<?xml version="1.0" encoding="UTF-8" standalone="no"?>
<svg xmlns:ffdec="https://www.free-decompiler.com/flash" xmlns:xlink="http://www.w3.org/1999/xlink" ffdec:objectType="shape" height="129.1px" width="248.5px" xmlns="http://www.w3.org/2000/svg">
  <g transform="matrix(1.0, 0.0, 0.0, 1.0, 249.95, 60.45)">
    <path d="M-4.55 -57.35 Q-2.2 -55.0 -2.2 -51.7 L-2.2 32.3 Q-2.2 35.65 -4.55 37.95 -6.85 40.3 -10.2 40.3 L-241.2 40.3 Q-244.5 40.3 -246.85 37.95 -249.2 35.65 -249.2 32.3 L-249.2 -51.7 Q-249.2 -55.0 -246.85 -57.35 -244.5 -59.7 -241.2 -59.7 L-10.2 -59.7 Q-6.85 -59.7 -4.55 -57.35" fill="#3398fb" fill-rule="evenodd" stroke="none"/>
    <path d="M-4.55 -57.35 Q-2.2 -55.0 -2.2 -51.7 L-2.2 32.3 Q-2.2 35.65 -4.55 37.95 -6.85 40.3 -10.2 40.3 L-241.2 40.3 Q-244.5 40.3 -246.85 37.95 -249.2 35.65 -249.2 32.3 L-249.2 -51.7 Q-249.2 -55.0 -246.85 -57.35 -244.5 -59.7 -241.2 -59.7 L-10.2 -59.7 Q-6.85 -59.7 -4.55 -57.35 Z" fill="none" stroke="#000000" stroke-linecap="butt" stroke-linejoin="miter-clip" stroke-miterlimit="4.0" stroke-opacity="0.2509804" stroke-width="1.5"/>
    <path d="M-6.2 36.3 Q-7.9 38.1 -10.4 38.1 L-241.5 38.1 Q-244.25 38.1 -246.05 36.0" fill="none" stroke="#4fa4fd" stroke-linecap="round" stroke-linejoin="miter-clip" stroke-miterlimit="4.0" stroke-width="2.0"/>
    <path d="M-3.7 -53.7 L-3.7 -46.7 -247.75 -46.7 -247.75 -53.7 Q-247.75 -55.75 -246.3 -57.25 -244.8 -58.7 -242.75 -58.7 L-8.7 -58.7 Q-6.6 -58.7 -5.15 -57.25 -3.7 -55.75 -3.7 -53.7" fill="url(#gradient0)" fill-rule="evenodd" stroke="none"/>
    <path d="M-2.2 49.0 L-2.2 60.65 Q-2.2 64.0 -4.55 66.3 -6.85 68.65 -10.2 68.65 L-241.2 68.65 Q-244.5 68.65 -246.85 66.3 -249.2 64.0 -249.2 60.65 L-249.2 49.0 Q-249.2 45.65 -246.85 43.35 -244.5 41.0 -241.2 41.0 L-10.2 41.0 Q-6.85 41.0 -4.55 43.35 -2.2 45.65 -2.2 49.0" fill="url(#gradient1)" fill-rule="evenodd" stroke="none"/>
  </g>
  <defs>
    <linearGradient gradientTransform="matrix(0.0, 0.0096, 0.0096, 0.0, -125.7, -50.5)" gradientUnits="userSpaceOnUse" id="gradient0" spreadMethod="pad" x1="-819.2" x2="819.2">
      <stop offset="0.0" stop-color="#fefefe" stop-opacity="0.29803923"/>
      <stop offset="1.0" stop-color="#fefefe" stop-opacity="0.0"/>
    </linearGradient>
    <linearGradient gradientTransform="matrix(0.0, 0.0129, 0.0129, 0.0, -125.7, 54.2)" gradientUnits="userSpaceOnUse" id="gradient1" spreadMethod="pad" x1="-819.2" x2="819.2">
      <stop offset="0.0" stop-color="#000000" stop-opacity="0.09803922"/>
      <stop offset="1.0" stop-color="#000000" stop-opacity="0.0"/>
    </linearGradient>
  </defs>
</svg>
