<?xml version="1.0" encoding="UTF-8" standalone="no"?>
<svg xmlns:ffdec="https://www.free-decompiler.com/flash" xmlns:xlink="http://www.w3.org/1999/xlink" ffdec:objectType="shape" height="31.4px" width="41.75px" xmlns="http://www.w3.org/2000/svg">
  <g transform="matrix(1.0, 0.0, 0.0, 1.0, 0.0, 0.0)">
    <path d="M35.25 1.1 Q37.15 1.1 38.45 2.6 39.65 4.05 39.65 6.0 L39.55 6.85 39.6 6.85 Q41.75 8.9 41.75 11.6 41.75 15.3 37.8 17.8 34.15 20.1 29.05 20.1 L28.35 20.05 28.6 21.9 Q28.6 23.95 27.4 25.8 26.25 27.55 24.2 28.8 20.1 31.4 14.3 31.4 8.55 31.4 4.45 28.8 0.1 26.1 0.0 21.9 0.0 18.7 2.95 16.1 L2.85 15.35 2.85 14.75 Q3.05 12.25 5.0 10.55 6.9 8.85 9.5 8.85 11.45 8.85 13.1 9.85 14.7 10.8 15.55 12.45 L16.45 12.5 16.4 11.6 Q16.4 8.9 18.6 6.8 L18.6 6.7 18.95 6.45 18.85 5.65 Q18.9 3.3 20.65 1.65 22.4 0.05 24.85 0.0 26.6 0.05 28.05 0.9 29.5 1.75 30.25 3.15 L31.55 3.3 Q32.8 1.1 35.25 1.1" fill="#000000" fill-rule="evenodd" stroke="none"/>
  </g>
</svg>
