<?xml version="1.0" encoding="UTF-8" standalone="no"?>
<svg xmlns:ffdec="https://www.free-decompiler.com/flash" xmlns:xlink="http://www.w3.org/1999/xlink" ffdec:objectType="shape" height="34.2px" width="42.15px" xmlns="http://www.w3.org/2000/svg">
  <g transform="matrix(1.0, 0.0, 0.0, 1.0, 262.35, 72.5)">
    <path d="M-221.7 -58.3 Q-221.7 -55.35 -225.05 -53.2 -228.4 -51.1 -233.1 -51.1 L-236.0 -51.35 Q-234.85 -49.8 -234.85 -48.0 -234.85 -44.6 -238.65 -42.2 -242.45 -39.8 -247.85 -39.8 -253.25 -39.8 -257.05 -42.2 -260.85 -44.6 -260.85 -48.0 -260.85 -51.05 -257.75 -53.35 L-258.0 -54.6 -258.0 -55.1 Q-257.9 -57.05 -256.35 -58.4 -254.8 -59.75 -252.65 -59.75 -250.85 -59.75 -249.4 -58.75 -248.0 -57.75 -247.5 -56.2 L-244.7 -55.95 -244.1 -55.85 -244.0 -56.2 Q-244.5 -57.3 -244.5 -58.3 -244.5 -60.6 -242.3 -62.55 L-241.75 -62.95 -242.0 -64.3 Q-242.0 -66.05 -240.6 -67.35 -239.25 -68.6 -237.3 -68.6 -235.7 -68.6 -234.45 -67.7 -233.2 -66.85 -232.8 -65.5 L-232.1 -65.45 -229.85 -65.2 Q-229.5 -66.25 -228.7 -66.9 -227.9 -67.55 -226.95 -67.55 -225.65 -67.55 -224.7 -66.45 -223.8 -65.4 -223.8 -63.9 L-224.0 -62.65 -223.5 -62.15 Q-221.7 -60.45 -221.7 -58.3 Z" fill="none" stroke="#234da9" stroke-linecap="butt" stroke-linejoin="miter-clip" stroke-miterlimit="4.0" stroke-width="3.0"/>
    <path d="M-244.5 -58.3 Q-244.5 -61.3 -241.15 -63.4 -237.85 -65.5 -233.1 -65.5 -228.35 -65.5 -225.05 -63.4 -221.7 -61.3 -221.7 -58.3 -221.7 -55.35 -225.05 -53.2 -228.4 -51.1 -233.1 -51.1 -237.8 -51.1 -241.15 -53.2 -244.5 -55.35 -244.5 -58.3" fill="#e67a2c" fill-rule="evenodd" stroke="none"/>
  </g>
</svg>
