<?xml version="1.0" encoding="UTF-8" standalone="no"?>
<svg xmlns:ffdec="https://www.free-decompiler.com/flash" xmlns:xlink="http://www.w3.org/1999/xlink" ffdec:objectType="shape" height="27.75px" width="37.35px" xmlns="http://www.w3.org/2000/svg">
  <g transform="matrix(1.0, 0.0, 0.0, 1.0, 260.85, 67.55)">
    <path d="M-233.1 -65.5 L-232.1 -65.45 -231.95 -64.3 Q-231.95 -62.25 -233.5 -60.8 -235.1 -59.35 -237.3 -59.35 -239.0 -59.35 -240.4 -60.25 -241.75 -61.1 -242.3 -62.55 -240.65 -63.9 -238.35 -64.7 -235.85 -65.5 -233.1 -65.5 M-223.5 -62.15 Q-223.95 -61.0 -224.85 -60.35 -225.8 -59.65 -226.95 -59.65 -228.5 -59.65 -229.6 -60.9 -230.7 -62.15 -230.7 -63.9 L-230.45 -65.3 Q-225.95 -64.6 -223.5 -62.15" fill="#a85a22" fill-rule="evenodd" stroke="none"/>
    <path d="M-230.05 -63.9 Q-230.05 -65.4 -229.15 -66.45 -228.2 -67.55 -226.95 -67.55 -225.65 -67.55 -224.7 -66.45 -223.8 -65.4 -223.8 -63.9 -223.8 -62.4 -224.7 -61.3 -225.65 -60.25 -226.95 -60.25 -228.2 -60.25 -229.15 -61.3 -230.05 -62.4 -230.05 -63.9" fill="#fefefe" fill-rule="evenodd" stroke="none"/>
    <path d="M-226.7 -63.2 Q-226.7 -64.2 -225.85 -64.2 -225.05 -64.2 -225.05 -63.2 -225.05 -62.8 -225.3 -62.55 -225.5 -62.25 -225.85 -62.25 -226.2 -62.25 -226.45 -62.55 L-226.7 -63.2" fill="#000000" fill-rule="evenodd" stroke="none"/>
    <path d="M-247.85 -56.2 Q-242.45 -56.2 -238.65 -53.8 -234.85 -51.4 -234.85 -48.0 -234.85 -44.6 -238.65 -42.2 -242.45 -39.8 -247.85 -39.8 -253.25 -39.8 -257.05 -42.2 -260.85 -44.6 -260.85 -48.0 -260.85 -51.4 -257.05 -53.8 -253.25 -56.2 -247.85 -56.2" fill="#fbd612" fill-rule="evenodd" stroke="none"/>
  </g>
</svg>
