<?xml version="1.0" encoding="UTF-8" standalone="no"?>
<svg xmlns:ffdec="https://www.free-decompiler.com/flash" xmlns:xlink="http://www.w3.org/1999/xlink" ffdec:objectType="shape" height="7.05px" width="21.25px" xmlns="http://www.w3.org/2000/svg">
  <g transform="matrix(1.0, 0.0, 0.0, 1.0, 258.25, 56.2)">
    <path d="M-244.95 -54.5 L-244.9 -55.05 -244.7 -55.95 Q-239.75 -55.2 -237.0 -52.5 -237.45 -51.2 -238.5 -50.45 -239.55 -49.65 -240.8 -49.65 -242.55 -49.65 -243.75 -51.05 -244.95 -52.4 -244.95 -54.4 L-244.95 -54.5 M-253.75 -55.3 Q-251.0 -56.2 -247.85 -56.2 L-246.65 -56.2 -246.5 -54.85 -246.5 -54.6 Q-246.6 -52.3 -248.35 -50.75 -250.1 -49.15 -252.55 -49.15 -254.5 -49.15 -256.05 -50.2 -257.6 -51.2 -258.25 -52.9 -256.45 -54.45 -253.75 -55.3" fill="#b99d0d" fill-rule="evenodd" stroke="none"/>
    <path d="M-252.65 -49.9 Q-254.8 -49.9 -256.35 -51.25 -257.9 -52.65 -258.0 -54.6 L-247.3 -54.6 Q-247.35 -52.65 -248.9 -51.25 -250.5 -49.9 -252.65 -49.9" fill="#fefefe" fill-rule="evenodd" stroke="none"/>
    <path d="M-251.3 -53.8 L-250.95 -54.7 Q-250.65 -55.05 -250.2 -55.05 -249.8 -55.05 -249.45 -54.7 -249.15 -54.3 -249.15 -53.8 -249.15 -53.3 -249.45 -52.9 -249.8 -52.55 -250.2 -52.55 -250.65 -52.55 -250.95 -52.9 -251.3 -53.3 -251.3 -53.8" fill="#000000" fill-rule="evenodd" stroke="none"/>
  </g>
</svg>
