<?xml version="1.0" encoding="UTF-8" standalone="no"?>
<svg xmlns:ffdec="https://www.free-decompiler.com/flash" xmlns:xlink="http://www.w3.org/1999/xlink" ffdec:objectType="shape" height="18.35px" width="25.4px" xmlns="http://www.w3.org/2000/svg">
  <g transform="matrix(1.0, 0.0, 0.0, 1.0, 258.0, 68.6)">
    <path d="M-247.3 -54.6 L-258.0 -54.6 -258.0 -55.1 -247.3 -55.1 -247.25 -54.85 -247.3 -54.6" fill="#b99d0d" fill-rule="evenodd" stroke="none"/>
    <path d="M-247.3 -55.1 L-258.0 -55.1 Q-257.9 -57.05 -256.35 -58.4 -254.8 -59.75 -252.65 -59.75 -250.5 -59.75 -248.95 -58.4 -247.4 -57.05 -247.3 -55.1" fill="#fbd612" fill-rule="evenodd" stroke="none"/>
    <path d="M-237.25 -54.4 Q-237.25 -52.7 -238.3 -51.45 -239.35 -50.25 -240.8 -50.25 -242.25 -50.25 -243.3 -51.45 -244.35 -52.7 -244.35 -54.4 L-244.35 -54.5 -237.25 -54.5 -237.25 -54.4" fill="#fefefe" fill-rule="evenodd" stroke="none"/>
    <path d="M-240.55 -53.65 L-240.25 -54.4 -239.6 -54.75 Q-239.2 -54.75 -238.9 -54.4 L-238.65 -53.65 Q-238.65 -53.15 -238.9 -52.85 -239.2 -52.5 -239.6 -52.5 L-240.25 -52.85 -240.55 -53.65" fill="#000000" fill-rule="evenodd" stroke="none"/>
    <path d="M-237.25 -54.95 L-237.25 -54.5 -244.35 -54.5 -244.3 -54.95 -237.25 -54.95" fill="#b99d0d" fill-rule="evenodd" stroke="none"/>
    <path d="M-240.8 -58.55 Q-239.45 -58.55 -238.45 -57.5 -237.45 -56.5 -237.25 -54.95 L-244.3 -54.95 Q-244.15 -56.5 -243.15 -57.5 -242.15 -58.55 -240.8 -58.55" fill="#fbd612" fill-rule="evenodd" stroke="none"/>
    <path d="M-242.0 -64.3 Q-242.0 -66.05 -240.6 -67.35 -239.25 -68.6 -237.3 -68.6 -235.35 -68.6 -233.95 -67.35 -232.6 -66.05 -232.6 -64.3 -232.6 -62.5 -233.95 -61.2 -235.35 -59.95 -237.3 -59.95 -239.25 -59.95 -240.6 -61.2 -242.0 -62.5 -242.0 -64.3" fill="#fefefe" fill-rule="evenodd" stroke="none"/>
    <path d="M-236.1 -63.4 L-235.85 -64.15 Q-235.55 -64.5 -235.2 -64.5 -234.8 -64.5 -234.5 -64.15 -234.25 -63.85 -234.25 -63.4 -234.25 -62.9 -234.5 -62.6 -234.8 -62.25 -235.2 -62.25 -235.55 -62.25 -235.85 -62.6 L-236.1 -63.4" fill="#000000" fill-rule="evenodd" stroke="none"/>
  </g>
</svg>
