<?xml version="1.0" encoding="UTF-8" standalone="no"?>
<svg xmlns:ffdec="https://www.free-decompiler.com/flash" xmlns:xlink="http://www.w3.org/1999/xlink" ffdec:objectType="shape" height="20.15px" width="124.7px" xmlns="http://www.w3.org/2000/svg">
  <g transform="matrix(1.0, 0.0, 0.0, 1.0, 62.3, 10.05)">
    <path d="M61.8 5.7 Q61.8 7.3 60.65 8.45 59.5 9.6 57.9 9.6 L-57.95 9.6 Q-59.55 9.6 -60.7 8.45 -61.8 7.3 -61.8 5.7 L-61.8 -5.7 Q-61.8 -7.3 -60.7 -8.45 -59.55 -9.55 -57.95 -9.55 L57.9 -9.55 Q59.5 -9.55 60.65 -8.45 61.8 -7.3 61.8 -5.7 L61.8 5.7" fill="#fffb42" fill-rule="evenodd" stroke="none"/>
    <path d="M61.8 5.7 Q61.8 7.3 60.65 8.45 59.5 9.6 57.9 9.6 L-57.95 9.6 Q-59.55 9.6 -60.7 8.45 -61.8 7.3 -61.8 5.7 L-61.8 -5.7 Q-61.8 -7.3 -60.7 -8.45 -59.55 -9.55 -57.95 -9.55 L57.9 -9.55 Q59.5 -9.55 60.65 -8.45 61.8 -7.3 61.8 -5.7 L61.8 5.7 Z" fill="none" stroke="#000000" stroke-linecap="butt" stroke-linejoin="miter-clip" stroke-miterlimit="4.0" stroke-opacity="0.3019608" stroke-width="1.0"/>
    <path d="M60.8 -5.7 L60.8 -0.85 -60.8 -0.85 -60.8 -5.7 Q-60.8 -6.85 -59.95 -7.7 -59.15 -8.55 -57.95 -8.55 L57.9 -8.55 Q59.1 -8.55 59.95 -7.7 60.8 -6.85 60.8 -5.7" fill="url(#gradient0)" fill-rule="evenodd" stroke="none"/>
  </g>
  <defs>
    <linearGradient gradientTransform="matrix(0.0, 0.0079, 0.0079, 0.0, 0.0, -2.8)" gradientUnits="userSpaceOnUse" id="gradient0" spreadMethod="pad" x1="-819.2" x2="819.2">
      <stop offset="0.0" stop-color="#fefefe" stop-opacity="0.49803922"/>
      <stop offset="1.0" stop-color="#fefefe" stop-opacity="0.047058824"/>
    </linearGradient>
  </defs>
</svg>
