<?xml version="1.0" encoding="UTF-8" standalone="no"?>
<svg xmlns:ffdec="https://www.free-decompiler.com/flash" xmlns:xlink="http://www.w3.org/1999/xlink" ffdec:objectType="shape" height="403.05px" width="573.1px" xmlns="http://www.w3.org/2000/svg">
  <g transform="matrix(1.0, 0.0, 0.0, 1.0, 0.05, 0.6)">
    <path d="M0.45 401.95 L0.45 384.0 0.45 19.95 0.45 -0.1 16.95 -0.1 555.1 -0.1 572.55 -0.1 572.55 19.95 572.55 384.0 572.55 401.95 555.1 401.95 16.95 401.95 0.45 401.95" fill="#fefefe" fill-rule="evenodd" stroke="none"/>
    <path d="M0.45 401.95 L16.95 401.95 555.1 401.95 572.55 401.95 572.55 384.0 572.55 19.95 572.55 -0.1 555.1 -0.1 16.95 -0.1 0.45 -0.1 0.45 19.95 0.45 384.0 0.45 401.95 Z" fill="none" stroke="#000000" stroke-linecap="butt" stroke-linejoin="miter-clip" stroke-miterlimit="4.0" stroke-opacity="0.2509804" stroke-width="1.0"/>
  </g>
</svg>
