<?xml version="1.0" encoding="UTF-8" standalone="no"?>
<svg xmlns:ffdec="https://www.free-decompiler.com/flash" xmlns:xlink="http://www.w3.org/1999/xlink" ffdec:objectType="shape" height="144.6px" width="438.7px" xmlns="http://www.w3.org/2000/svg">
  <g transform="matrix(1.0, 0.0, 0.0, 1.0, 449.95, 72.4)">
    <path d="M-448.95 -63.05 Q-448.95 -71.4 -440.6 -71.4 L-20.6 -71.4 Q-12.25 -71.4 -12.25 -63.05 L-12.25 62.85 Q-12.25 71.2 -20.6 71.2 L-440.6 71.2 Q-448.95 71.2 -448.95 62.85 L-448.95 -63.05" fill="#ffffff" fill-rule="evenodd" stroke="none"/>
    <path d="M-448.95 -63.05 L-448.95 62.85 Q-448.95 71.2 -440.6 71.2 L-20.6 71.2 Q-12.25 71.2 -12.25 62.85 L-12.25 -63.05 Q-12.25 -71.4 -20.6 -71.4 L-440.6 -71.4 Q-448.95 -71.4 -448.95 -63.05 Z" fill="none" stroke="#000000" stroke-linecap="butt" stroke-linejoin="miter-clip" stroke-miterlimit="4.0" stroke-opacity="0.3019608" stroke-width="2.0"/>
  </g>
</svg>
