<?xml version="1.0" encoding="UTF-8" standalone="no"?>
<svg xmlns:ffdec="https://www.free-decompiler.com/flash" xmlns:xlink="http://www.w3.org/1999/xlink" ffdec:objectType="shape" height="66.2px" width="526.55px" xmlns="http://www.w3.org/2000/svg">
  <g transform="matrix(1.0, 0.0, 0.0, 1.0, 525.8, 43.45)">
    <path d="M-525.8 -34.7 Q-525.8 -37.5 -523.85 -39.45 -521.85 -41.45 -519.05 -41.45 L-8.0 -41.45 Q-5.2 -41.45 -3.2 -39.45 -1.25 -37.5 -1.25 -34.7 L-1.25 14.0 Q-1.25 17.6 -3.8 20.2 -6.35 22.75 -10.0 22.75 L-517.05 22.75 Q-520.7 22.75 -523.25 20.2 -525.8 17.6 -525.8 14.0 L-525.8 -34.7" fill="#000000" fill-opacity="0.14901961" fill-rule="evenodd" stroke="none"/>
    <path d="M-523.05 -36.7 Q-523.05 -39.2 -521.3 -40.95 -519.55 -42.7 -517.05 -42.7 L-6.0 -42.7 Q-3.5 -42.7 -1.75 -40.95 0.0 -39.2 0.0 -36.7 L0.0 12.0 Q0.0 15.3 -2.35 17.65 -4.65 20.0 -8.0 20.0 L-515.05 20.0 Q-518.4 20.0 -520.7 17.65 -523.05 15.3 -523.05 12.0 L-523.05 -36.7" fill="#3695ff" fill-rule="evenodd" stroke="none"/>
    <path d="M-523.05 -36.7 L-523.05 12.0 Q-523.05 15.3 -520.7 17.65 -518.4 20.0 -515.05 20.0 L-8.0 20.0 Q-4.65 20.0 -2.35 17.65 0.0 15.3 0.0 12.0 L0.0 -36.7 Q0.0 -39.2 -1.75 -40.95 -3.5 -42.7 -6.0 -42.7 L-517.05 -42.7 Q-519.55 -42.7 -521.3 -40.95 -523.05 -39.2 -523.05 -36.7 Z" fill="none" stroke="#000000" stroke-linecap="butt" stroke-linejoin="miter-clip" stroke-miterlimit="4.0" stroke-opacity="0.3019608" stroke-width="1.5"/>
    <path d="M-3.75 16.25 Q-5.5 18.0 -8.0 18.0 L-515.05 18.0 Q-517.8 18.0 -519.6 15.95" fill="none" stroke="#4fa4fd" stroke-linecap="round" stroke-linejoin="miter-clip" stroke-miterlimit="4.0" stroke-width="2.0"/>
    <path d="M-2.45 -40.25 Q-1.0 -38.75 -1.0 -36.7 L-1.0 -29.7 -522.05 -29.7 -522.05 -36.7 Q-522.05 -38.75 -520.6 -40.25 -519.1 -41.7 -517.05 -41.7 L-6.0 -41.7 Q-3.9 -41.7 -2.45 -40.25" fill="url(#gradient0)" fill-rule="evenodd" stroke="none"/>
  </g>
  <defs>
    <linearGradient gradientTransform="matrix(0.0, 0.0096, 0.0096, 0.0, -261.5, -33.5)" gradientUnits="userSpaceOnUse" id="gradient0" spreadMethod="pad" x1="-819.2" x2="819.2">
      <stop offset="0.0" stop-color="#fefefe" stop-opacity="0.29803923"/>
      <stop offset="1.0" stop-color="#fefefe" stop-opacity="0.0"/>
    </linearGradient>
  </defs>
</svg>
