<?xml version="1.0" encoding="UTF-8" standalone="no"?>
<svg xmlns:ffdec="https://www.free-decompiler.com/flash" xmlns:xlink="http://www.w3.org/1999/xlink" ffdec:objectType="shape" height="34.25px" width="42.15px" xmlns="http://www.w3.org/2000/svg">
  <g transform="matrix(1.0, 0.0, 0.0, 1.0, 1.1, 3.95)">
    <path d="M37.45 4.7 L37.25 5.95 37.75 6.45 Q39.55 8.15 39.55 10.3 39.55 13.25 36.2 15.4 32.85 17.5 28.15 17.5 L25.3 17.25 Q26.4 18.8 26.4 20.6 26.4 24.0 22.6 26.4 18.8 28.8 13.4 28.8 8.0 28.8 4.2 26.4 0.4 24.0 0.4 20.6 0.4 17.55 3.5 15.25 L3.25 14.0 3.25 13.5 Q3.35 11.55 4.9 10.2 6.45 8.85 8.6 8.85 10.4 8.85 11.85 9.85 13.25 10.85 13.75 12.4 L16.55 12.65 17.15 12.75 17.25 12.4 Q16.75 11.3 16.75 10.3 16.75 8.0 18.95 6.05 L19.5 5.65 19.25 4.3 Q19.25 2.55 20.65 1.25 22.0 0.0 23.95 0.0 25.55 0.0 26.8 0.9 28.05 1.75 28.45 3.1 L29.15 3.15 31.4 3.4 Q31.75 2.35 32.55 1.7 33.35 1.05 34.3 1.05 35.6 1.05 36.55 2.15 37.45 3.2 37.45 4.7 Z" fill="none" stroke="#000000" stroke-linecap="butt" stroke-linejoin="miter-clip" stroke-miterlimit="4.0" stroke-opacity="0.3019608" stroke-width="3.0"/>
    <path d="M36.2 5.2 Q39.55 7.3 39.55 10.3 39.55 13.25 36.2 15.4 32.85 17.5 28.15 17.5 23.45 17.5 20.1 15.4 16.75 13.25 16.75 10.3 16.75 7.3 20.1 5.2 23.4 3.1 28.15 3.1 32.9 3.1 36.2 5.2" fill="#e67a2c" fill-rule="evenodd" stroke="none"/>
  </g>
</svg>
