<?xml version="1.0" encoding="UTF-8" standalone="no"?>
<svg xmlns:ffdec="https://www.free-decompiler.com/flash" xmlns:xlink="http://www.w3.org/1999/xlink" ffdec:objectType="shape" height="27.75px" width="37.35px" xmlns="http://www.w3.org/2000/svg">
  <g transform="matrix(1.0, 0.0, 0.0, 1.0, -0.4, -1.05)">
    <path d="M29.15 3.15 L29.3 4.3 Q29.3 6.35 27.75 7.8 26.15 9.25 23.95 9.25 22.25 9.25 20.85 8.35 19.5 7.5 18.95 6.05 22.4 3.1 28.15 3.1 L29.15 3.15 M30.8 3.3 Q35.3 4.0 37.75 6.45 37.3 7.6 36.4 8.25 35.45 8.95 34.3 8.95 32.75 8.95 31.65 7.7 30.55 6.45 30.55 4.7 L30.8 3.3" fill="#a85a22" fill-rule="evenodd" stroke="none"/>
    <path d="M31.2 4.7 Q31.2 3.2 32.1 2.15 33.05 1.05 34.3 1.05 35.6 1.05 36.55 2.15 37.45 3.2 37.45 4.7 37.45 6.2 36.55 7.25 35.6 8.3 34.3 8.3 33.0 8.3 32.1 7.25 31.2 6.2 31.2 4.7" fill="#fefefe" fill-rule="evenodd" stroke="none"/>
    <path d="M34.55 5.35 Q34.55 4.95 34.8 4.7 35.05 4.4 35.4 4.4 35.75 4.4 35.95 4.7 L36.2 5.35 35.95 6.05 Q35.75 6.35 35.4 6.35 34.55 6.35 34.55 5.35" fill="#000000" fill-rule="evenodd" stroke="none"/>
    <path d="M0.4 20.6 Q0.4 17.2 4.2 14.8 8.0 12.4 13.4 12.4 18.8 12.4 22.6 14.8 26.4 17.2 26.4 20.6 26.4 24.0 22.6 26.4 18.8 28.8 13.4 28.8 8.0 28.8 4.2 26.4 0.4 24.0 0.4 20.6" fill="#fbd612" fill-rule="evenodd" stroke="none"/>
  </g>
</svg>
