<?xml version="1.0" encoding="UTF-8" standalone="no"?>
<svg xmlns:ffdec="https://www.free-decompiler.com/flash" xmlns:xlink="http://www.w3.org/1999/xlink" ffdec:objectType="shape" height="18.35px" width="25.4px" xmlns="http://www.w3.org/2000/svg">
  <g transform="matrix(1.0, 0.0, 0.0, 1.0, -3.25, 0.0)">
    <path d="M3.25 13.5 L13.95 13.5 14.0 13.75 13.95 14.0 3.25 14.0 3.25 13.5" fill="#b99d0d" fill-rule="evenodd" stroke="none"/>
    <path d="M8.6 8.85 Q10.75 8.85 12.3 10.2 13.85 11.55 13.95 13.5 L3.25 13.5 Q3.35 11.55 4.9 10.2 6.45 8.85 8.6 8.85" fill="#fbd612" fill-rule="evenodd" stroke="none"/>
    <path d="M24.0 14.2 Q24.0 15.9 22.95 17.15 21.9 18.35 20.45 18.35 19.0 18.35 17.95 17.15 16.9 15.9 16.9 14.2 L16.9 14.1 24.0 14.1 24.0 14.2" fill="#fefefe" fill-rule="evenodd" stroke="none"/>
    <path d="M20.7 14.95 Q20.7 14.5 21.0 14.2 21.25 13.85 21.65 13.85 22.05 13.85 22.35 14.2 L22.6 14.95 22.35 15.75 Q22.05 16.1 21.65 16.1 21.25 16.1 21.0 15.75 20.7 15.45 20.7 14.95" fill="#000000" fill-rule="evenodd" stroke="none"/>
    <path d="M24.0 13.65 L24.0 14.1 16.9 14.1 16.95 13.65 24.0 13.65" fill="#b99d0d" fill-rule="evenodd" stroke="none"/>
    <path d="M20.45 10.05 Q21.8 10.05 22.8 11.1 23.8 12.1 24.0 13.65 L16.95 13.65 Q17.1 12.1 18.1 11.1 19.1 10.05 20.45 10.05" fill="#fbd612" fill-rule="evenodd" stroke="none"/>
    <path d="M19.25 4.3 Q19.25 2.55 20.65 1.25 22.0 0.0 23.95 0.0 25.9 0.0 27.3 1.25 28.65 2.55 28.65 4.3 28.65 6.1 27.3 7.35 25.9 8.6 23.95 8.6 22.0 8.6 20.65 7.35 19.25 6.1 19.25 4.3" fill="#fefefe" fill-rule="evenodd" stroke="none"/>
    <path d="M25.15 5.2 Q25.15 4.75 25.4 4.45 25.7 4.1 26.05 4.1 26.45 4.1 26.75 4.45 L27.0 5.2 26.75 6.0 Q26.45 6.35 26.05 6.35 L25.4 6.0 Q25.15 5.7 25.15 5.2" fill="#000000" fill-rule="evenodd" stroke="none"/>
  </g>
</svg>
