<?xml version="1.0" encoding="UTF-8" standalone="no"?>
<svg xmlns:ffdec="https://www.free-decompiler.com/flash" xmlns:xlink="http://www.w3.org/1999/xlink" ffdec:objectType="shape" height="22.0px" width="167.9px" xmlns="http://www.w3.org/2000/svg">
  <g transform="matrix(1.0, 0.0, 0.0, 1.0, 77.45, 11.0)">
    <path d="M-74.9 -8.45 Q-72.85 -10.5 -69.95 -10.5 L89.95 -10.5 89.95 10.5 -69.95 10.5 Q-72.85 10.5 -74.9 8.45 -76.95 6.4 -76.95 3.5 L-76.95 -3.5 Q-76.95 -6.4 -74.9 -8.45" fill="#fefefe" fill-rule="evenodd" stroke="none"/>
    <path d="M-74.9 -8.45 Q-76.95 -6.4 -76.95 -3.5 L-76.95 3.5 Q-76.95 6.4 -74.9 8.45 -72.85 10.5 -69.95 10.5 L89.95 10.5 89.95 -10.5 -69.95 -10.5 Q-72.85 -10.5 -74.9 -8.45 Z" fill="none" stroke="#000000" stroke-linecap="butt" stroke-linejoin="miter-clip" stroke-miterlimit="4.0" stroke-opacity="0.29803923" stroke-width="1.0"/>
  </g>
</svg>
