<?xml version="1.0" encoding="UTF-8" standalone="no"?>
<svg xmlns:ffdec="https://www.free-decompiler.com/flash" xmlns:xlink="http://www.w3.org/1999/xlink" ffdec:objectType="shape" height="22.0px" width="31.9px" xmlns="http://www.w3.org/2000/svg">
  <g transform="matrix(1.0, 0.0, 0.0, 1.0, 15.95, 11.0)">
    <path d="M8.45 -10.5 Q11.35 -10.5 13.4 -8.45 15.45 -6.4 15.45 -3.5 L15.45 3.5 Q15.45 6.4 13.4 8.45 11.35 10.5 8.45 10.5 L-15.45 10.5 -15.45 -10.5 8.45 -10.5" fill="#1cfd02" fill-rule="evenodd" stroke="none"/>
    <path d="M8.45 -10.5 L-15.45 -10.5 -15.45 10.5 8.45 10.5 Q11.35 10.5 13.4 8.45 15.45 6.4 15.45 3.5 L15.45 -3.5 Q15.45 -6.4 13.4 -8.45 11.35 -10.5 8.45 -10.5 Z" fill="none" stroke="#000000" stroke-linecap="butt" stroke-linejoin="miter-clip" stroke-miterlimit="4.0" stroke-opacity="0.29803923" stroke-width="1.0"/>
    <path d="M14.45 -0.85 L-14.45 -0.85 -14.45 -9.5 8.45 -9.5 Q10.95 -9.5 12.7 -7.75 14.45 -5.95 14.45 -3.5 L14.45 -0.85" fill="url(#gradient0)" fill-rule="evenodd" stroke="none"/>
  </g>
  <defs>
    <linearGradient gradientTransform="matrix(0.0, 0.0065, 0.0065, 0.0, 0.0, -3.65)" gradientUnits="userSpaceOnUse" id="gradient0" spreadMethod="pad" x1="-819.2" x2="819.2">
      <stop offset="0.0" stop-color="#fefefe" stop-opacity="0.69803923"/>
      <stop offset="1.0" stop-color="#fefefe" stop-opacity="0.0"/>
    </linearGradient>
  </defs>
</svg>
