<?xml version="1.0" encoding="UTF-8" standalone="no"?>
<svg xmlns:ffdec="https://www.free-decompiler.com/flash" xmlns:xlink="http://www.w3.org/1999/xlink" ffdec:objectType="shape" height="34.2px" width="42.15px" xmlns="http://www.w3.org/2000/svg">
  <g transform="matrix(1.0, 0.0, 0.0, 1.0, 244.15, 20.8)">
    <path d="M-205.6 -12.2 L-205.8 -10.95 -205.3 -10.45 Q-203.5 -8.75 -203.5 -6.6 -203.5 -3.65 -206.85 -1.5 -210.2 0.6 -214.9 0.6 L-217.75 0.35 Q-216.65 1.9 -216.65 3.7 -216.65 7.1 -220.45 9.5 -224.25 11.9 -229.65 11.9 -235.05 11.9 -238.85 9.5 -242.65 7.1 -242.65 3.7 -242.65 0.65 -239.55 -1.65 L-239.8 -2.9 -239.8 -3.4 Q-239.7 -5.35 -238.15 -6.7 -236.6 -8.05 -234.45 -8.05 -232.65 -8.05 -231.2 -7.05 -229.8 -6.05 -229.3 -4.5 L-226.5 -4.25 -225.9 -4.15 -225.8 -4.5 Q-226.3 -5.6 -226.3 -6.6 -226.3 -8.9 -224.1 -10.85 L-223.55 -11.25 -223.8 -12.6 Q-223.8 -14.35 -222.4 -15.65 -221.05 -16.9 -219.1 -16.9 -217.5 -16.9 -216.25 -16.0 -215.0 -15.15 -214.6 -13.8 L-213.9 -13.75 -211.65 -13.5 Q-211.3 -14.55 -210.5 -15.2 -209.7 -15.85 -208.75 -15.85 -207.45 -15.85 -206.5 -14.75 -205.6 -13.7 -205.6 -12.2 Z" fill="none" stroke="#28609c" stroke-linecap="butt" stroke-linejoin="miter-clip" stroke-miterlimit="4.0" stroke-width="3.0"/>
    <path d="M-206.85 -11.7 Q-203.5 -9.6 -203.5 -6.6 -203.5 -3.65 -206.85 -1.5 -210.2 0.6 -214.9 0.6 -219.6 0.6 -222.95 -1.5 -226.3 -3.65 -226.3 -6.6 -226.3 -9.6 -222.95 -11.7 -219.65 -13.8 -214.9 -13.8 -210.15 -13.8 -206.85 -11.7" fill="#e67a2c" fill-rule="evenodd" stroke="none"/>
  </g>
</svg>
