<?xml version="1.0" encoding="UTF-8" standalone="no"?>
<svg xmlns:ffdec="https://www.free-decompiler.com/flash" xmlns:xlink="http://www.w3.org/1999/xlink" ffdec:objectType="shape" height="23.85px" width="60.15px" xmlns="http://www.w3.org/2000/svg">
  <g transform="matrix(1.0, 0.0, 0.0, 1.0, 1.05, 0.75)">
    <path d="M58.2 12.95 Q57.85 15.2 56.75 17.0 55.6 18.85 53.65 20.25 50.65 22.4 47.15 22.35 L23.95 22.35 10.9 22.35 10.15 22.3 9.35 22.2 Q4.85 21.45 2.1 17.7 -0.6 13.9 0.15 9.35 0.9 4.85 4.65 2.15 7.7 -0.05 11.15 0.0 L47.15 0.0 48.95 0.15 Q53.5 0.9 56.2 4.7 58.95 8.45 58.2 12.95" fill="#31df15" fill-rule="evenodd" stroke="none"/>
    <path d="M58.2 12.95 Q58.95 8.45 56.2 4.7 53.5 0.9 48.95 0.15 L47.15 0.0 11.15 0.0 Q7.7 -0.05 4.65 2.15 0.9 4.85 0.15 9.35 -0.6 13.9 2.1 17.7 4.85 21.45 9.35 22.2 L10.15 22.3 10.9 22.35 23.95 22.35 47.15 22.35 Q50.65 22.4 53.65 20.25 55.6 18.85 56.75 17.0 57.85 15.2 58.2 12.95 Z" fill="none" stroke="#000000" stroke-linecap="butt" stroke-linejoin="miter-clip" stroke-miterlimit="4.0" stroke-opacity="0.3019608" stroke-width="1.5"/>
    <path d="M41.55 4.7 Q44.3 2.95 47.7 3.5 51.15 4.05 53.15 6.6 55.25 9.2 54.75 12.25 54.25 15.3 51.45 17.05 48.75 18.8 45.3 18.25 41.9 17.7 39.85 15.15 37.75 12.55 38.25 9.55 38.75 6.5 41.55 4.7" fill="url(#gradient0)" fill-rule="evenodd" stroke="none"/>
  </g>
  <defs>
    <linearGradient gradientTransform="matrix(-0.0014, 0.0084, 0.0084, 0.0014, 46.6, 10.35)" gradientUnits="userSpaceOnUse" id="gradient0" spreadMethod="pad" x1="-819.2" x2="819.2">
      <stop offset="0.0" stop-color="#ffffff" stop-opacity="0.49803922"/>
      <stop offset="1.0" stop-color="#ffffff" stop-opacity="0.0"/>
    </linearGradient>
  </defs>
</svg>
