<?xml version="1.0" encoding="UTF-8" standalone="no"?>
<svg xmlns:ffdec="https://www.free-decompiler.com/flash" xmlns:xlink="http://www.w3.org/1999/xlink" ffdec:objectType="shape" height="19.15px" width="138.65px" xmlns="http://www.w3.org/2000/svg">
  <g transform="matrix(1.0, 0.0, 0.0, 1.0, 138.15, 9.55)">
    <path d="M-137.65 -4.85 L-137.65 -5.15 Q-137.65 -6.75 -136.5 -7.9 -135.35 -9.05 -133.75 -9.05 L-103.55 -9.05 -34.1 -9.05 -3.9 -9.05 Q-2.3 -9.05 -1.15 -7.9 0.0 -6.75 0.0 -5.15 L0.0 -4.85 0.0 4.9 0.0 5.2 Q0.0 6.8 -1.15 7.95 -2.3 9.1 -3.9 9.1 L-34.1 9.1 -103.55 9.1 -133.75 9.1 Q-135.35 9.1 -136.5 7.95 -137.65 6.8 -137.65 5.2 L-137.65 4.9 -137.65 -4.85" fill="#3888e3" fill-rule="evenodd" stroke="none"/>
    <path d="M-137.65 -4.85 L-137.65 -5.15 Q-137.65 -6.75 -136.5 -7.9 -135.35 -9.05 -133.75 -9.05 L-103.55 -9.05 -34.1 -9.05 -3.9 -9.05 Q-2.3 -9.05 -1.15 -7.9 0.0 -6.75 0.0 -5.15 L0.0 -4.85 0.0 4.9 0.0 5.2 Q0.0 6.8 -1.15 7.95 -2.3 9.1 -3.9 9.1 L-34.1 9.1 -103.55 9.1 -133.75 9.1 Q-135.35 9.1 -136.5 7.95 -137.65 6.8 -137.65 5.2 L-137.65 4.9 -137.65 -4.85 Z" fill="none" stroke="#28609c" stroke-linecap="butt" stroke-linejoin="miter-clip" stroke-miterlimit="4.0" stroke-width="1.0"/>
    <path d="M-1.0 -5.15 L-1.0 -4.85 -1.0 -0.3 -34.1 -0.3 -103.55 -0.3 -136.65 -0.3 -136.65 -4.85 -136.65 -5.15 Q-136.65 -6.35 -135.8 -7.2 -134.95 -8.05 -133.75 -8.05 L-103.55 -8.05 -34.1 -8.05 -3.9 -8.05 Q-2.7 -8.05 -1.85 -7.2 -1.0 -6.35 -1.0 -5.15" fill="url(#gradient0)" fill-rule="evenodd" stroke="none"/>
  </g>
  <defs>
    <linearGradient gradientTransform="matrix(0.0, 0.0079, 0.0079, 0.0, -68.85, -2.3)" gradientUnits="userSpaceOnUse" id="gradient0" spreadMethod="pad" x1="-819.2" x2="819.2">
      <stop offset="0.0" stop-color="#fefefe" stop-opacity="0.29803923"/>
      <stop offset="1.0" stop-color="#fefefe" stop-opacity="0.0"/>
    </linearGradient>
  </defs>
</svg>
