<?xml version="1.0" encoding="UTF-8" standalone="no"?>
<svg xmlns:ffdec="https://www.free-decompiler.com/flash" xmlns:xlink="http://www.w3.org/1999/xlink" ffdec:objectType="shape" height="523.2px" width="807.0px" xmlns="http://www.w3.org/2000/svg">
  <g transform="matrix(1.0, 0.0, 0.0, 1.0, 2.85, -36.7)">
    <path d="M803.15 548.9 Q803.15 553.05 800.2 555.95 797.3 558.9 793.15 558.9 L8.1 558.9 Q4.0 558.9 1.05 555.95 -1.85 553.05 -1.85 548.9 L-1.85 37.7 803.15 37.7 803.15 548.9 M68.25 164.5 L66.75 164.95 Q65.9 165.45 65.0 166.75 65.75 167.5 67.0 168.0 68.55 167.4 69.0 166.0 L68.25 164.5" fill="#1e5cea" fill-rule="evenodd" stroke="none"/>
    <path d="M803.15 548.9 L803.15 37.7 -1.85 37.7 -1.85 548.9 Q-1.85 553.05 1.05 555.95 4.0 558.9 8.1 558.9 L793.15 558.9 Q797.3 558.9 800.2 555.95 803.15 553.05 803.15 548.9 Z" fill="none" stroke="#000000" stroke-linecap="butt" stroke-linejoin="miter-clip" stroke-miterlimit="4.0" stroke-opacity="0.2509804" stroke-width="2.0"/>
  </g>
</svg>
