<?xml version="1.0" encoding="UTF-8" standalone="no"?>
<svg xmlns:ffdec="https://www.free-decompiler.com/flash" xmlns:xlink="http://www.w3.org/1999/xlink" ffdec:objectType="shape" height="21.45px" width="18.85px" xmlns="http://www.w3.org/2000/svg">
  <g transform="matrix(1.0, 0.0, 0.0, 1.0, 18.85, 10.7)">
    <path d="M-7.65 -6.4 L-7.65 -7.7 -11.3 -7.7 -11.3 -6.4 -7.65 -6.4 M-1.6 -6.25 L-1.5 -5.9 -1.5 -2.2 -1.6 -1.85 Q-1.75 -1.7 -2.0 -1.7 L-3.3 -1.7 -3.3 8.75 -3.45 9.1 -3.8 9.25 -15.05 9.25 -15.4 9.1 -15.55 8.75 -15.55 -1.7 -16.85 -1.7 Q-17.1 -1.7 -17.25 -1.85 L-17.35 -2.2 -17.35 -5.9 -17.25 -6.25 -16.85 -6.4 -12.8 -6.4 -12.8 -8.45 -12.55 -8.95 -12.05 -9.2 -6.9 -9.2 -6.4 -8.95 -6.15 -8.45 -6.15 -6.4 -2.0 -6.4 -1.6 -6.25" fill="#3349a6" fill-rule="evenodd" stroke="none"/>
    <path d="M-7.65 -7.7 L-7.65 -6.4 -11.3 -6.4 -11.3 -7.7 -7.65 -7.7 M-0.55 -7.3 Q0.0 -6.75 0.0 -5.9 L0.0 -2.2 Q0.0 -1.4 -0.55 -0.75 -1.1 -0.3 -1.8 -0.2 L-1.8 8.75 Q-1.8 9.65 -2.4 10.15 -3.0 10.75 -3.8 10.75 L-15.05 10.75 Q-15.85 10.75 -16.45 10.15 -17.05 9.65 -17.05 8.75 L-17.05 -0.2 Q-17.75 -0.3 -18.3 -0.75 -18.85 -1.4 -18.85 -2.2 L-18.85 -5.9 Q-18.85 -6.7 -18.3 -7.35 -17.65 -7.9 -16.85 -7.9 L-14.3 -7.9 -14.3 -8.45 Q-14.3 -9.35 -13.65 -10.0 -12.95 -10.7 -12.05 -10.7 L-6.9 -10.7 Q-6.0 -10.7 -5.35 -10.05 -4.65 -9.35 -4.65 -8.45 L-4.65 -7.9 -2.0 -7.9 Q-1.15 -7.9 -0.55 -7.3 M-1.5 -5.9 L-1.6 -6.25 -2.0 -6.4 -6.15 -6.4 -6.15 -8.45 -6.4 -8.95 -6.9 -9.2 -12.05 -9.2 -12.55 -8.95 -12.8 -8.45 -12.8 -6.4 -16.85 -6.4 -17.25 -6.25 -17.35 -5.9 -17.35 -2.2 -17.25 -1.85 Q-17.1 -1.7 -16.85 -1.7 L-15.55 -1.7 -15.55 8.75 -15.4 9.1 -15.05 9.25 -3.8 9.25 -3.45 9.1 -3.3 8.75 -3.3 -1.7 -2.0 -1.7 Q-1.75 -1.7 -1.6 -1.85 L-1.5 -2.2 -1.5 -5.9" fill="#234da9" fill-rule="evenodd" stroke="none"/>
    <path d="M-6.9 -6.15 L-6.9 -8.45 -12.05 -8.45 -12.05 -6.15" fill="none" stroke="#a1cafd" stroke-linecap="round" stroke-linejoin="round" stroke-width="1.5"/>
    <path d="M-3.8 -2.2 L-3.8 8.75 -15.05 8.75 -15.05 -2.2 -3.8 -2.2" fill="#3398fb" fill-rule="evenodd" stroke="none"/>
    <path d="M-3.8 -2.2 L-3.8 8.75 -15.05 8.75 -15.05 -2.2" fill="none" stroke="#a1cafd" stroke-linecap="round" stroke-linejoin="round" stroke-width="1.0"/>
    <path d="M-11.4 6.35 L-11.4 -1.6" fill="none" stroke="#69b4fd" stroke-linecap="round" stroke-linejoin="round" stroke-width="1.0"/>
    <path d="M-7.45 6.35 L-7.45 -1.6" fill="none" stroke="#69b4fd" stroke-linecap="round" stroke-linejoin="round" stroke-width="1.0"/>
    <path d="M-16.85 -5.9 L-2.0 -5.9 -2.0 -2.2 -16.85 -2.2 -16.85 -5.9" fill="#3398fb" fill-rule="evenodd" stroke="none"/>
    <path d="M-16.85 -5.9 L-2.0 -5.9 -2.0 -2.2 -16.85 -2.2 -16.85 -5.9 Z" fill="none" stroke="#a1cafd" stroke-linecap="round" stroke-linejoin="round" stroke-width="1.0"/>
  </g>
</svg>
