<?xml version="1.0" encoding="UTF-8" standalone="no"?>
<svg xmlns:ffdec="https://www.free-decompiler.com/flash" xmlns:xlink="http://www.w3.org/1999/xlink" ffdec:objectType="shape" height="137.1px" width="91.0px" xmlns="http://www.w3.org/2000/svg">
  <g transform="matrix(1.0, 0.0, 0.0, 1.0, 0.0, -26.25)">
    <path d="M91.0 157.5 L91.0 157.7 90.95 157.7 91.0 157.5 M16.85 26.25 L74.2 26.25 90.85 156.8 Q89.35 154.5 76.35 152.9 L45.5 151.3 14.7 152.9 Q1.7 154.5 0.2 156.8 L16.85 26.25" fill="url(#gradient0)" fill-rule="evenodd" stroke="none"/>
    <path d="M13.35 153.05 Q26.65 151.3 45.5 151.3 64.35 151.3 77.7 153.05 91.0 154.85 91.0 157.35 91.0 159.85 77.7 161.6 64.35 163.35 45.5 163.35 26.7 163.35 13.35 161.6 0.0 159.85 0.0 157.35 0.0 154.85 13.35 153.05" fill="url(#gradient1)" fill-rule="evenodd" stroke="none"/>
  </g>
  <defs>
    <linearGradient gradientTransform="matrix(0.0, 0.1088, 0.1088, 0.0, 45.5, 84.0)" gradientUnits="userSpaceOnUse" id="gradient0" spreadMethod="pad" x1="-819.2" x2="819.2">
      <stop offset="0.0196078431372549" stop-color="#fefefe" stop-opacity="0.29803923"/>
      <stop offset="1.0" stop-color="#fefefe" stop-opacity="0.0"/>
    </linearGradient>
    <linearGradient gradientTransform="matrix(0.0, -0.0106, -0.0106, 0.0, 45.5, 154.65)" gradientUnits="userSpaceOnUse" id="gradient1" spreadMethod="pad" x1="-819.2" x2="819.2">
      <stop offset="0.0196078431372549" stop-color="#fefefe" stop-opacity="0.2"/>
      <stop offset="1.0" stop-color="#fefefe" stop-opacity="0.0"/>
    </linearGradient>
  </defs>
</svg>
