<?xml version="1.0" encoding="UTF-8" standalone="no"?>
<svg xmlns:ffdec="https://www.free-decompiler.com/flash" xmlns:xlink="http://www.w3.org/1999/xlink" ffdec:objectType="shape" height="172.7px" width="958.0px" xmlns="http://www.w3.org/2000/svg">
  <g transform="matrix(1.0, 0.0, 0.0, 1.0, 867.0, 81.95)">
    <path d="M-866.0 -80.95 L-637.95 -80.95 -637.95 -79.25 -639.2 -79.25 -639.2 36.95 -639.2 87.6 -639.2 89.75 -866.0 89.75 -866.0 -80.95" fill="#1e5cea" fill-rule="evenodd" stroke="none"/>
    <path d="M-866.0 -80.95 L-866.0 89.75" fill="none" stroke="#000000" stroke-linecap="butt" stroke-linejoin="miter-clip" stroke-miterlimit="4.0" stroke-opacity="0.2509804" stroke-width="2.0"/>
    <path d="M90.0 89.75 L-57.9 89.75 -57.9 87.6 -57.9 36.95 -57.9 -79.25 -59.25 -79.25 -59.25 -80.95 90.0 -80.95 90.0 89.75" fill="#1e5cea" fill-rule="evenodd" stroke="none"/>
    <path d="M90.0 89.75 L90.0 -80.95" fill="none" stroke="#000000" stroke-linecap="butt" stroke-linejoin="miter-clip" stroke-miterlimit="4.0" stroke-opacity="0.2509804" stroke-width="2.0"/>
    <path d="M86.45 81.25 L-57.75 81.25 -57.75 36.6 86.45 36.6 86.45 81.25 M-639.5 36.6 L-639.5 81.25 -862.3 81.25 -862.3 36.6 -639.5 36.6" fill="url(#gradient0)" fill-rule="evenodd" stroke="none"/>
  </g>
  <defs>
    <linearGradient gradientTransform="matrix(0.0, -0.0249, -0.0297, 0.0, -387.9, 57.75)" gradientUnits="userSpaceOnUse" id="gradient0" spreadMethod="pad" x1="-819.2" x2="819.2">
      <stop offset="0.0" stop-color="#000000" stop-opacity="0.0"/>
      <stop offset="1.0" stop-color="#000000" stop-opacity="0.14901961"/>
      <stop offset="1.0" stop-color="#000000"/>
    </linearGradient>
  </defs>
</svg>
