<?xml version="1.0" encoding="UTF-8" standalone="no"?>
<svg xmlns:ffdec="https://www.free-decompiler.com/flash" xmlns:xlink="http://www.w3.org/1999/xlink" ffdec:objectType="shape" height="21.45px" width="18.85px" xmlns="http://www.w3.org/2000/svg">
  <g transform="matrix(1.0, 0.0, 0.0, 1.0, 9.4, 10.7)">
    <path d="M1.8 -6.4 L1.8 -7.7 -1.85 -7.7 -1.85 -6.4 1.8 -6.4 M7.85 -6.25 L7.95 -5.9 7.95 -2.2 7.85 -1.85 7.45 -1.7 6.15 -1.7 6.15 8.75 6.0 9.1 5.65 9.25 -5.6 9.25 -5.95 9.1 -6.1 8.75 -6.1 -1.7 -7.4 -1.7 Q-7.65 -1.7 -7.8 -1.85 L-7.9 -2.2 -7.9 -5.9 -7.8 -6.25 -7.4 -6.4 -3.35 -6.4 -3.35 -8.45 -3.1 -8.95 -2.6 -9.2 2.55 -9.2 3.05 -8.95 3.3 -8.45 3.3 -6.4 7.45 -6.4 7.85 -6.25" fill="#3349a6" fill-rule="evenodd" stroke="none"/>
    <path d="M1.8 -7.7 L1.8 -6.4 -1.85 -6.4 -1.85 -7.7 1.8 -7.7 M7.95 -5.9 L7.85 -6.25 7.45 -6.4 3.3 -6.4 3.3 -8.45 3.05 -8.95 2.55 -9.2 -2.6 -9.2 -3.1 -8.95 -3.35 -8.45 -3.35 -6.4 -7.4 -6.4 -7.8 -6.25 -7.9 -5.9 -7.9 -2.2 -7.8 -1.85 Q-7.65 -1.7 -7.4 -1.7 L-6.1 -1.7 -6.1 8.75 -5.95 9.1 -5.6 9.25 5.65 9.25 6.0 9.1 6.15 8.75 6.15 -1.7 7.45 -1.7 7.85 -1.85 7.95 -2.2 7.95 -5.9 M7.45 -7.9 Q8.3 -7.9 8.9 -7.3 9.45 -6.75 9.45 -5.9 L9.45 -2.2 Q9.45 -1.4 8.9 -0.75 8.35 -0.3 7.65 -0.2 L7.65 8.75 Q7.65 9.65 7.05 10.15 6.45 10.75 5.65 10.75 L-5.6 10.75 Q-6.4 10.75 -7.0 10.15 -7.6 9.65 -7.6 8.75 L-7.6 -0.2 Q-8.3 -0.3 -8.85 -0.75 -9.4 -1.4 -9.4 -2.2 L-9.4 -5.9 Q-9.4 -6.7 -8.85 -7.35 -8.2 -7.9 -7.4 -7.9 L-4.85 -7.9 -4.85 -8.45 Q-4.85 -9.35 -4.2 -10.0 -3.5 -10.7 -2.6 -10.7 L2.55 -10.7 Q3.45 -10.7 4.1 -10.05 4.8 -9.35 4.8 -8.45 L4.8 -7.9 7.45 -7.9" fill="#234da9" fill-rule="evenodd" stroke="none"/>
    <path d="M2.55 -6.15 L2.55 -8.45 -2.6 -8.45 -2.6 -6.15" fill="none" stroke="#a1cafd" stroke-linecap="round" stroke-linejoin="round" stroke-width="1.5"/>
    <path d="M5.65 8.75 L-5.6 8.75 -5.6 -2.2 5.65 -2.2 5.65 8.75" fill="#3398fb" fill-rule="evenodd" stroke="none"/>
    <path d="M5.65 -2.2 L5.65 8.75 -5.6 8.75 -5.6 -2.2" fill="none" stroke="#a1cafd" stroke-linecap="round" stroke-linejoin="round" stroke-width="1.0"/>
    <path d="M-1.95 6.35 L-1.95 -1.6" fill="none" stroke="#69b4fd" stroke-linecap="round" stroke-linejoin="round" stroke-width="1.0"/>
    <path d="M2.0 6.35 L2.0 -1.6" fill="none" stroke="#69b4fd" stroke-linecap="round" stroke-linejoin="round" stroke-width="1.0"/>
    <path d="M7.45 -2.2 L-7.4 -2.2 -7.4 -5.9 7.45 -5.9 7.45 -2.2" fill="#3398fb" fill-rule="evenodd" stroke="none"/>
    <path d="M7.45 -2.2 L-7.4 -2.2 -7.4 -5.9 7.45 -5.9 7.45 -2.2 Z" fill="none" stroke="#a1cafd" stroke-linecap="round" stroke-linejoin="round" stroke-width="1.0"/>
  </g>
</svg>
