<?xml version="1.0" encoding="UTF-8" standalone="no"?>
<svg xmlns:ffdec="https://www.free-decompiler.com/flash" xmlns:xlink="http://www.w3.org/1999/xlink" ffdec:objectType="shape" height="20.85px" width="20.85px" xmlns="http://www.w3.org/2000/svg">
  <g transform="matrix(1.0, 0.0, 0.0, 1.0, 0.0, 0.0)">
    <path d="M16.35 1.5 Q17.6 1.5 18.45 2.4 19.35 3.25 19.35 4.5 L19.35 16.35 Q19.35 17.6 18.45 18.45 17.6 19.35 16.35 19.35 L4.5 19.35 Q3.25 19.35 2.4 18.45 1.5 17.6 1.5 16.35 L1.5 4.5 Q1.5 3.25 2.4 2.4 3.25 1.5 4.5 1.5 L16.35 1.5" fill="#3349a6" fill-rule="evenodd" stroke="none"/>
    <path d="M19.35 4.5 Q19.35 3.25 18.45 2.4 17.6 1.5 16.35 1.5 L4.5 1.5 Q3.25 1.5 2.4 2.4 1.5 3.25 1.5 4.5 L1.5 16.35 Q1.5 17.6 2.4 18.45 3.25 19.35 4.5 19.35 L16.35 19.35 Q17.6 19.35 18.45 18.45 19.35 17.6 19.35 16.35 L19.35 4.5 M20.85 4.5 L20.85 16.35 Q20.85 18.2 19.5 19.5 18.2 20.85 16.35 20.85 L4.5 20.85 Q2.65 20.85 1.35 19.5 0.0 18.2 0.0 16.35 L0.0 4.5 Q0.0 2.65 1.35 1.35 2.65 0.0 4.5 0.0 L16.35 0.0 Q18.2 0.0 19.5 1.35 20.85 2.65 20.85 4.5" fill="#234da9" fill-rule="evenodd" stroke="none"/>
    <path d="M18.85 4.5 L18.85 16.35 Q18.85 17.4 18.15 18.15 17.4 18.85 16.35 18.85 L4.5 18.85 Q3.45 18.85 2.75 18.15 2.0 17.4 2.0 16.35 L2.0 4.5 Q2.0 3.45 2.75 2.75 3.45 2.0 4.5 2.0 L16.35 2.0 Q17.4 2.0 18.15 2.75 18.85 3.45 18.85 4.5" fill="#3398fb" fill-rule="evenodd" stroke="none"/>
    <path d="M18.85 4.5 L18.85 16.35 Q18.85 17.4 18.15 18.15 17.4 18.85 16.35 18.85 L4.5 18.85 Q3.45 18.85 2.75 18.15 2.0 17.4 2.0 16.35 L2.0 4.5 Q2.0 3.45 2.75 2.75 3.45 2.0 4.5 2.0 L16.35 2.0 Q17.4 2.0 18.15 2.75 18.85 3.45 18.85 4.5 Z" fill="none" stroke="#a1cafd" stroke-linecap="round" stroke-linejoin="round" stroke-width="1.0"/>
  </g>
</svg>
