<?xml version="1.0" encoding="UTF-8" standalone="no"?>
<svg xmlns:ffdec="https://www.free-decompiler.com/flash" xmlns:xlink="http://www.w3.org/1999/xlink" ffdec:objectType="shape" height="21.35px" width="23.85px" xmlns="http://www.w3.org/2000/svg">
  <g transform="matrix(1.0, 0.0, 0.0, 1.0, 0.0, 0.0)">
    <path d="M22.35 3.65 L20.75 9.75 17.7 8.8 18.7 17.95 18.45 18.1 Q15.35 19.85 11.95 19.85 8.55 19.85 5.4 18.1 L5.15 17.95 6.15 8.8 3.1 9.75 1.5 3.65 8.65 1.5 8.65 2.15 Q8.65 3.3 9.8 4.2 10.85 5.0 11.9 5.0 13.0 5.0 14.05 4.2 15.2 3.3 15.2 2.15 L15.2 1.5 22.35 3.65" fill="#3349a6" fill-rule="evenodd" stroke="none"/>
    <path d="M22.8 2.25 Q23.35 2.4 23.65 2.95 23.95 3.45 23.8 4.05 L22.2 10.1 Q22.05 10.75 21.5 11.05 L20.75 11.25 19.45 10.9 20.2 17.75 Q20.3 18.8 19.45 19.25 L19.2 19.4 Q15.8 21.35 11.95 21.35 8.15 21.35 4.7 19.4 L4.4 19.25 Q3.55 18.75 3.65 17.8 L4.4 10.9 3.1 11.25 Q2.7 11.25 2.35 11.05 1.8 10.75 1.65 10.1 L0.05 4.05 Q-0.1 3.45 0.2 2.95 0.5 2.4 1.05 2.25 L8.2 0.05 8.65 0.0 9.55 0.3 Q10.15 0.8 10.15 1.5 L10.15 2.15 Q10.15 2.55 10.8 3.05 L11.9 3.5 13.05 3.05 13.7 2.15 13.7 1.5 Q13.7 0.8 14.3 0.3 14.75 0.0 15.2 0.0 L15.65 0.05 22.8 2.25 M20.75 9.75 L22.35 3.65 15.2 1.5 15.2 2.15 Q15.2 3.3 14.05 4.2 13.0 5.0 11.9 5.0 10.85 5.0 9.8 4.2 8.65 3.3 8.65 2.15 L8.65 1.5 1.5 3.65 3.1 9.75 6.15 8.8 5.15 17.95 5.4 18.1 Q8.55 19.85 11.95 19.85 15.35 19.85 18.45 18.1 L18.7 17.95 17.7 8.8 20.75 9.75" fill="#234da9" fill-rule="evenodd" stroke="none"/>
    <path d="M21.8 4.0 L20.45 9.1 17.15 8.1 18.2 17.65 Q15.3 19.35 11.95 19.35 8.65 19.35 5.65 17.65 L6.7 8.1 3.4 9.1 2.05 4.0 8.15 2.15 Q8.15 3.45 9.45 4.5 10.65 5.5 11.9 5.5 13.2 5.5 14.4 4.5 15.7 3.45 15.7 2.15 L21.8 4.0" fill="#3398fb" fill-rule="evenodd" stroke="none"/>
    <path d="M21.8 4.0 L15.7 2.15 Q15.7 3.45 14.4 4.5 13.2 5.5 11.9 5.5 10.65 5.5 9.45 4.5 8.15 3.45 8.15 2.15 L2.05 4.0 3.4 9.1 6.7 8.1 5.65 17.65 Q8.65 19.35 11.95 19.35 15.3 19.35 18.2 17.65 L17.15 8.1 20.45 9.1 21.8 4.0 Z" fill="none" stroke="#a1cafd" stroke-linecap="round" stroke-linejoin="round" stroke-width="1.0"/>
  </g>
</svg>
