<?xml version="1.0" encoding="UTF-8" standalone="no"?>
<svg xmlns:ffdec="https://www.free-decompiler.com/flash" xmlns:xlink="http://www.w3.org/1999/xlink" ffdec:objectType="shape" height="18.75px" width="28.55px" xmlns="http://www.w3.org/2000/svg">
  <g transform="matrix(1.0, 0.0, 0.0, 1.0, 0.5, 0.15)">
    <path d="M27.55 9.2 Q27.55 12.9 25.0 15.5 22.45 18.1 18.85 18.1 L8.7 18.1 Q5.1 18.1 2.55 15.5 0.0 12.9 0.0 9.2 0.0 5.55 2.55 2.95 5.1 0.35 8.7 0.35 L18.85 0.35 Q22.45 0.35 25.0 2.95 27.55 5.55 27.55 9.2" fill="#fefefe" fill-rule="evenodd" stroke="none"/>
    <path d="M25.0 15.5 Q22.45 18.1 18.85 18.1 L8.7 18.1 Q5.1 18.1 2.55 15.5 0.0 12.9 0.0 9.2 0.0 5.55 2.55 2.95 5.1 0.35 8.7 0.35 L18.85 0.35 Q22.45 0.35 25.0 2.95 27.55 5.55 27.55 9.2 27.55 12.9 25.0 15.5 Z" fill="none" stroke="#000000" stroke-linecap="butt" stroke-linejoin="miter-clip" stroke-miterlimit="4.0" stroke-opacity="0.4" stroke-width="1.0"/>
  </g>
</svg>
