<?xml version="1.0" encoding="UTF-8" standalone="no"?>
<svg xmlns:ffdec="https://www.free-decompiler.com/flash" xmlns:xlink="http://www.w3.org/1999/xlink" ffdec:objectType="shape" height="463.25px" width="463.0px" xmlns="http://www.w3.org/2000/svg">
  <g transform="matrix(1.0, 0.0, 0.0, 1.0, 231.5, 231.65)">
    <path d="M227.5 91.2 L227.5 215.6 Q227.5 230.0 214.5 231.45 L214.5 231.6 209.05 231.6 -211.05 231.6 -215.5 231.6 Q-231.5 231.6 -231.5 215.6 L-231.5 91.2 -231.5 -74.9 -231.5 -163.85 -231.5 -213.4 Q-231.5 -229.4 -215.5 -229.4 L-211.05 -229.4 209.05 -229.4 214.5 -229.4 214.5 -229.25 Q227.5 -227.8 227.5 -213.4 L227.5 -212.9 227.5 -202.9 227.5 -163.85 227.5 -74.9 227.5 91.2" fill="#000000" fill-opacity="0.2" fill-rule="evenodd" stroke="none"/>
    <path d="M229.5 40.95 L229.5 -67.15 229.5 -166.1 229.5 -215.65 Q229.5 -228.05 218.5 -229.45 L216.1 -229.65 209.05 -229.65 -211.05 -229.65 -211.5 -229.65 Q-225.5 -229.65 -225.5 -215.65 L-225.5 -166.1 -225.5 -67.15 -225.5 40.95 -225.5 213.35 Q-225.5 227.35 -211.5 227.35 L-211.05 227.35 209.05 227.2 218.5 227.2 Q229.5 225.8 229.5 213.35 L229.5 40.95 M231.5 40.95 L231.5 213.35 Q231.5 227.75 218.5 229.2 L218.5 229.35 209.05 229.35 -211.05 229.35 -211.5 229.35 Q-227.5 229.35 -227.5 213.35 L-227.5 40.95 -227.5 -67.15 -227.5 -166.1 -227.5 -215.65 Q-227.5 -231.65 -211.5 -231.65 L-211.05 -231.65 209.05 -231.65 218.5 -231.65 218.5 -231.5 Q231.5 -230.05 231.5 -215.65 L231.5 -215.15 231.5 -205.15 231.5 -166.1 231.5 -67.15 231.5 40.95" fill="#78c0fc" fill-rule="evenodd" stroke="none"/>
    <path d="M229.5 40.95 L229.5 213.35 Q229.5 225.8 218.5 227.2 L209.05 227.2 -211.05 227.35 -211.5 227.35 Q-225.5 227.35 -225.5 213.35 L-225.5 40.95 -225.5 -67.15 -225.5 -166.1 -225.5 -215.65 Q-225.5 -229.65 -211.5 -229.65 L-211.05 -229.65 209.05 -229.65 216.1 -229.65 218.5 -229.45 Q229.5 -228.05 229.5 -215.65 L229.5 -166.1 229.5 -67.15 229.5 40.95" fill="#3695ff" fill-rule="evenodd" stroke="none"/>
    <path d="M230.35 -203.3 L210.1 -199.75 Q100.05 -181.3 2.05 -181.3 -97.8 -181.3 -210.0 -200.4 L-226.3 -203.3 -226.3 -219.85 -226.15 -219.85 Q-225.4 -224.15 -221.6 -226.85 -217.45 -229.8 -211.1 -229.8 L-210.05 -229.8 210.05 -229.8 215.2 -229.8 Q221.45 -229.8 225.7 -226.5 229.55 -223.5 230.3 -219.1 L230.35 -219.1 230.35 -203.3" fill="url(#gradient0)" fill-rule="evenodd" stroke="none"/>
  </g>
  <defs>
    <linearGradient gradientTransform="matrix(0.0, 0.0367, -0.0432, 0.0, -66.8, -206.15)" gradientUnits="userSpaceOnUse" id="gradient0" spreadMethod="pad" x1="-819.2" x2="819.2">
      <stop offset="0.0" stop-color="#ffffff" stop-opacity="0.29803923"/>
      <stop offset="1.0" stop-color="#ffffff" stop-opacity="0.0"/>
    </linearGradient>
  </defs>
</svg>
