<?xml version="1.0" encoding="UTF-8" standalone="no"?>
<svg xmlns:ffdec="https://www.free-decompiler.com/flash" xmlns:xlink="http://www.w3.org/1999/xlink" ffdec:objectType="shape" height="349.7px" width="806.5px" xmlns="http://www.w3.org/2000/svg">
  <g transform="matrix(1.0, 0.0, 0.0, 1.0, 0.75, 0.75)">
    <path d="M802.05 345.0 Q799.15 348.2 795.0 348.2 L9.95 348.2 Q5.85 348.2 2.9 345.0 0.0 341.8 0.0 337.3 L0.0 0.0 805.0 0.0 805.0 337.3 Q805.0 341.8 802.05 345.0" fill="#3695ff" fill-rule="evenodd" stroke="none"/>
    <path d="M802.05 345.0 Q805.0 341.8 805.0 337.3 L805.0 0.0 0.0 0.0 0.0 337.3 Q0.0 341.8 2.9 345.0 5.85 348.2 9.95 348.2 L795.0 348.2 Q799.15 348.2 802.05 345.0 Z" fill="none" stroke="#000000" stroke-linecap="butt" stroke-linejoin="miter-clip" stroke-miterlimit="4.0" stroke-opacity="0.2509804" stroke-width="1.5"/>
    <path d="M795.0 346.7 L9.95 346.7 Q6.45 346.7 4.0 343.95 1.5 341.2 1.5 337.3 L1.5 1.5 803.5 1.5 803.5 337.3 Q803.5 341.2 801.0 343.95 798.55 346.7 795.0 346.7 Z" fill="none" stroke="#5babfd" stroke-linecap="butt" stroke-linejoin="miter-clip" stroke-miterlimit="4.0" stroke-width="1.5"/>
    <path d="M803.5 1.5 L803.5 16.6 1.5 16.6 1.5 1.5 803.5 1.5" fill="url(#gradient0)" fill-rule="evenodd" stroke="none"/>
    <path d="M797.3 347.15 L7.65 347.15 Q4.75 347.15 2.7 345.1 0.65 343.05 0.65 340.15 L0.65 325.85 804.3 325.85 804.3 340.15 Q804.3 343.1 802.25 345.1 800.25 347.15 797.3 347.15" fill="url(#gradient1)" fill-rule="evenodd" stroke="none"/>
  </g>
  <defs>
    <linearGradient gradientTransform="matrix(0.0, 0.0109, 0.0109, 0.0, 402.5, 13.5)" gradientUnits="userSpaceOnUse" id="gradient0" spreadMethod="pad" x1="-819.2" x2="819.2">
      <stop offset="0.0" stop-color="#fefefe" stop-opacity="0.29803923"/>
      <stop offset="0.4470588235294118" stop-color="#fefefe" stop-opacity="0.16470589"/>
      <stop offset="1.0" stop-color="#fefefe" stop-opacity="0.0"/>
    </linearGradient>
    <linearGradient gradientTransform="matrix(0.0, -0.0159, -0.0159, 0.0, 402.5, 334.65)" gradientUnits="userSpaceOnUse" id="gradient1" spreadMethod="pad" x1="-819.2" x2="819.2">
      <stop offset="0.0" stop-color="#fefefe" stop-opacity="0.2"/>
      <stop offset="1.0" stop-color="#fefefe" stop-opacity="0.0"/>
    </linearGradient>
  </defs>
</svg>
