<?xml version="1.0" encoding="UTF-8" standalone="no"?>
<svg xmlns:ffdec="https://www.free-decompiler.com/flash" xmlns:xlink="http://www.w3.org/1999/xlink" ffdec:objectType="shape" height="25.85px" width="25.9px" xmlns="http://www.w3.org/2000/svg">
  <g transform="matrix(1.0, 0.0, 0.0, 1.0, 12.95, 12.9)">
    <path d="M-8.8 8.8 Q-12.45 5.2 -12.45 0.05 -12.45 -5.1 -8.8 -8.75 -5.15 -12.4 0.0 -12.4 5.15 -12.4 8.8 -8.75 12.45 -5.1 12.45 0.05 12.45 5.2 8.8 8.8 5.15 12.45 0.0 12.45 -5.15 12.45 -8.8 8.8" fill="#15e100" fill-rule="evenodd" stroke="none"/>
    <path d="M-7.95 -7.95 Q-4.65 -11.25 -0.05 -11.25 4.65 -11.25 7.95 -7.95 10.35 -5.55 11.1 -2.45 -0.9 5.85 -11.0 -2.45 -10.35 -5.55 -7.95 -7.95" fill="url(#gradient0)" fill-rule="evenodd" stroke="none"/>
    <path d="M-8.8 8.8 Q-12.45 5.2 -12.45 0.05 -12.45 -5.1 -8.8 -8.75 -5.15 -12.4 0.0 -12.4 5.15 -12.4 8.8 -8.75 12.45 -5.1 12.45 0.05 12.45 5.2 8.8 8.8 5.15 12.45 0.0 12.45 -5.15 12.45 -8.8 8.8 Z" fill="none" stroke="#000000" stroke-linecap="round" stroke-linejoin="round" stroke-opacity="0.3019608" stroke-width="1.0"/>
    <path d="M4.95 5.3 L0.05 0.4 -4.85 5.3 M-4.85 -4.5 L0.05 0.4 4.95 -4.5" fill="none" stroke="#000000" stroke-linecap="round" stroke-linejoin="miter-clip" stroke-miterlimit="4.0" stroke-opacity="0.4" stroke-width="3.0"/>
  </g>
  <defs>
    <linearGradient gradientTransform="matrix(1.0E-4, 0.0121, -0.0079, 1.0E-4, -0.15, -4.2)" gradientUnits="userSpaceOnUse" id="gradient0" spreadMethod="pad" x1="-819.2" x2="819.2">
      <stop offset="0.0" stop-color="#ffffff"/>
      <stop offset="0.8470588235294118" stop-color="#ffffff" stop-opacity="0.0"/>
    </linearGradient>
  </defs>
</svg>
