<?xml version="1.0" encoding="UTF-8" standalone="no"?>
<svg xmlns:ffdec="https://www.free-decompiler.com/flash" xmlns:xlink="http://www.w3.org/1999/xlink" ffdec:objectType="shape" height="19.15px" width="88.65px" xmlns="http://www.w3.org/2000/svg">
  <g transform="matrix(1.0, 0.0, 0.0, 1.0, 44.35, 9.55)">
    <path d="M43.8 5.2 Q43.8 6.8 42.65 7.95 41.5 9.1 39.9 9.1 L-39.95 9.1 Q-41.55 9.1 -42.7 7.95 -43.85 6.8 -43.85 5.2 L-43.85 -5.15 Q-43.85 -6.75 -42.7 -7.9 -41.55 -9.05 -39.95 -9.05 L39.9 -9.05 Q41.5 -9.05 42.65 -7.9 43.8 -6.75 43.8 -5.15 L43.8 5.2" fill="#00df24" fill-rule="evenodd" stroke="none"/>
    <path d="M43.8 5.2 Q43.8 6.8 42.65 7.95 41.5 9.1 39.9 9.1 L-39.95 9.1 Q-41.55 9.1 -42.7 7.95 -43.85 6.8 -43.85 5.2 L-43.85 -5.15 Q-43.85 -6.75 -42.7 -7.9 -41.55 -9.05 -39.95 -9.05 L39.9 -9.05 Q41.5 -9.05 42.65 -7.9 43.8 -6.75 43.8 -5.15 L43.8 5.2 Z" fill="none" stroke="#000000" stroke-linecap="butt" stroke-linejoin="miter-clip" stroke-miterlimit="4.0" stroke-opacity="0.3019608" stroke-width="1.0"/>
    <path d="M39.9 -8.05 Q41.1 -8.05 41.95 -7.2 42.8 -6.35 42.8 -5.15 L42.8 -0.3 -42.85 -0.3 -42.85 -5.15 Q-42.85 -6.35 -42.0 -7.2 -41.15 -8.05 -39.95 -8.05 L39.9 -8.05" fill="url(#gradient0)" fill-rule="evenodd" stroke="none"/>
  </g>
  <defs>
    <linearGradient gradientTransform="matrix(0.0, 0.0079, 0.0079, 0.0, -0.05, -2.3)" gradientUnits="userSpaceOnUse" id="gradient0" spreadMethod="pad" x1="-819.2" x2="819.2">
      <stop offset="0.0" stop-color="#fefefe" stop-opacity="0.5019608"/>
      <stop offset="1.0" stop-color="#fefefe" stop-opacity="0.0"/>
    </linearGradient>
  </defs>
</svg>
