<?xml version="1.0" encoding="UTF-8" standalone="no"?>
<svg xmlns:ffdec="https://www.free-decompiler.com/flash" xmlns:xlink="http://www.w3.org/1999/xlink" ffdec:objectType="shape" height="10.35px" width="75.95px" xmlns="http://www.w3.org/2000/svg">
  <g transform="matrix(1.0, 0.0, 0.0, 1.0, -360.0, -342.5)">
    <path d="M374.4 347.85 Q374.4 348.35 374.8 348.65 375.25 349.0 375.85 349.0 L376.9 348.65 Q377.3 348.35 377.35 347.85 L376.9 347.05 Q376.5 346.7 375.85 346.7 375.25 346.7 374.8 347.05 374.4 347.35 374.4 347.85 M399.95 346.7 L398.8 346.65 398.8 347.0 398.8 347.75 398.85 348.65 400.2 348.35 400.75 347.8 400.65 347.15 399.95 346.7 M387.65 348.45 L387.4 347.5 387.1 346.55 386.85 347.55 386.55 348.6 387.15 348.5 387.65 348.45 M381.4 347.5 Q381.45 348.45 381.1 349.35 L380.0 350.9 Q379.25 351.6 378.15 352.05 L375.6 352.45 373.4 352.15 Q372.35 351.8 371.55 351.2 L370.35 349.65 Q369.9 348.75 369.9 347.55 369.9 346.35 370.45 345.45 370.95 344.55 371.75 343.9 372.6 343.3 373.65 343.0 L375.75 342.7 Q377.4 342.7 378.65 343.35 379.9 344.0 380.6 345.05 381.35 346.15 381.4 347.5 M389.7 342.8 L390.55 344.6 391.6 346.85 392.6 349.2 393.5 351.4 391.45 352.05 388.85 352.65 388.5 351.5 388.2 350.4 386.95 350.6 386.0 350.8 385.7 351.8 385.4 352.85 383.75 352.5 382.3 352.1 381.25 351.75 380.85 351.6 381.65 349.8 382.7 347.6 383.85 345.2 384.95 342.95 386.6 342.85 388.15 342.85 389.25 342.8 389.7 342.8 M360.25 345.65 L360.0 342.75 361.45 342.6 362.85 342.55 363.9 342.5 364.35 342.5 364.65 345.45 364.95 348.45 366.05 348.25 367.15 348.0 368.0 347.75 368.35 347.65 368.65 349.1 368.85 350.4 369.0 351.35 369.05 351.75 365.75 352.1 361.0 352.45 360.75 350.15 360.5 348.0 360.25 345.65 M402.3 343.35 Q403.65 343.95 404.35 344.9 405.0 345.9 405.05 347.1 405.1 348.3 404.65 349.3 404.15 350.3 402.95 351.05 401.8 351.75 399.85 352.1 L395.05 352.3 394.95 350.1 394.9 347.95 394.85 345.6 394.9 342.8 399.15 342.6 Q401.0 342.75 402.3 343.35 M410.05 342.95 L410.5 343.0 410.5 347.45 410.4 352.1 409.0 352.3 407.6 352.45 406.5 352.5 406.1 352.55 406.05 350.2 406.05 348.05 406.05 345.7 406.1 342.75 407.6 342.8 409.0 342.85 410.05 342.95 M421.95 342.9 L422.95 343.0 423.3 343.05 423.15 345.8 423.0 348.8 422.75 351.95 421.25 352.2 419.8 352.4 418.7 352.5 418.25 352.55 417.5 351.15 416.85 349.95 416.35 349.05 416.15 348.7 416.15 350.2 416.1 351.35 416.1 352.45 414.75 352.35 413.45 352.25 412.45 352.15 412.05 352.1 412.1 347.5 412.2 342.65 413.7 342.7 415.05 342.75 416.0 342.85 416.35 342.9 417.2 344.55 418.0 346.05 418.55 347.15 418.8 347.55 418.85 345.8 418.9 344.25 418.95 343.05 418.95 342.6 420.55 342.75 421.95 342.9 M426.45 343.9 Q427.25 343.25 428.25 342.9 L430.3 342.55 432.7 342.95 Q433.8 343.35 434.6 344.0 L435.75 345.6 433.65 346.3 432.15 346.85 431.55 347.05 Q431.3 346.65 430.85 346.45 L429.9 346.4 Q429.4 346.55 429.05 346.95 428.7 347.35 428.7 348.1 428.7 348.75 429.05 349.15 L429.85 349.6 430.4 349.55 430.85 349.2 430.35 349.1 429.9 349.1 429.7 349.05 429.7 348.4 429.7 347.85 429.7 347.6 431.25 347.55 433.25 347.5 435.95 347.45 Q435.9 348.7 435.45 349.65 L434.15 351.2 Q433.4 351.85 432.35 352.2 L430.15 352.5 Q428.55 352.5 427.35 351.95 426.1 351.35 425.4 350.25 424.7 349.2 424.7 347.65 424.75 346.45 425.2 345.5 425.65 344.55 426.45 343.9" fill="#ffffff" fill-opacity="0.49803922" fill-rule="evenodd" stroke="none"/>
  </g>
</svg>
