<?xml version="1.0" encoding="UTF-8" standalone="no"?>
<svg xmlns:ffdec="https://www.free-decompiler.com/flash" xmlns:xlink="http://www.w3.org/1999/xlink" ffdec:objectType="shape" height="1016.5px" width="1488.95px" xmlns="http://www.w3.org/2000/svg">
  <g transform="matrix(1.0, 0.0, 0.0, 1.0, 273.85, 168.2)">
    <path d="M1215.1 -168.2 L1215.1 848.3 -273.85 848.3 -273.85 -168.2 1215.1 -168.2 M802.95 37.8 L802.95 -72.0 -2.55 -72.0 -2.55 37.8 -2.55 548.2 Q-2.55 550.65 -1.75 552.6 -0.4 555.65 1.9 557.3 4.5 559.1 7.4 559.1 L792.95 559.1 Q795.95 559.1 798.5 557.3 800.85 555.5 802.1 552.75 802.95 550.45 802.95 548.2 L802.95 37.8" fill="#139ffd" fill-rule="evenodd" stroke="none"/>
    <path d="M-2.55 37.8 L-2.55 548.2 Q-2.55 550.65 -1.75 552.6 -0.4 555.65 1.9 557.3 4.5 559.1 7.4 559.1 L792.95 559.1 Q795.95 559.1 798.5 557.3 800.85 555.5 802.1 552.75 802.95 550.45 802.95 548.2 L802.95 37.8" fill="none" stroke="#004cbf" stroke-linecap="round" stroke-linejoin="round" stroke-width="2.0"/>
  </g>
</svg>
