<?xml version="1.0" encoding="UTF-8" standalone="no"?>
<svg xmlns:ffdec="https://www.free-decompiler.com/flash" xmlns:xlink="http://www.w3.org/1999/xlink" ffdec:objectType="shape" height="21.45px" width="21.45px" xmlns="http://www.w3.org/2000/svg">
  <g transform="matrix(1.0, 0.0, 0.0, 1.0, 21.45, 10.7)">
    <path d="M-1.65 -1.45 L-1.5 -1.15 Q-1.5 -0.95 -1.65 -0.8 L-10.4 7.9 -10.55 7.95 -10.6 7.95 -19.95 9.25 -18.65 -0.1 -18.55 -0.4 -9.9 -9.05 Q-9.55 -9.4 -9.25 -9.05 L-1.65 -1.45" fill="#3349a6" fill-rule="evenodd" stroke="none"/>
    <path d="M-18.55 -0.4 L-18.65 -0.1 -19.95 9.25 -10.6 7.95 -10.55 7.95 -10.4 7.9 -1.65 -0.8 -1.5 -1.15 -1.65 -1.45 -9.25 -9.05 -9.55 -9.2 -9.9 -9.05 -18.55 -0.4 M-20.15 -0.2 Q-20.15 -1.0 -19.6 -1.45 L-10.95 -10.15 Q-10.3 -10.7 -9.55 -10.7 -8.75 -10.7 -8.2 -10.15 L-0.55 -2.5 Q0.0 -1.95 0.0 -1.15 0.0 -0.4 -0.55 0.25 L-9.25 8.9 -9.6 9.15 -10.3 9.45 -10.35 9.45 -19.75 10.75 -19.95 10.75 -21.0 10.3 Q-21.55 9.85 -21.45 9.05 L-20.15 -0.2" fill="#234da9" fill-rule="evenodd" stroke="none"/>
    <path d="M-1.95 -1.15 L-10.65 7.55 -18.25 -0.1 -9.55 -8.75 -1.95 -1.15" fill="#3398fb" fill-rule="evenodd" stroke="none"/>
    <path d="M-1.95 -1.15 L-9.55 -8.75 -18.25 -0.1 -10.65 7.55 -1.95 -1.15 Z" fill="none" stroke="#a1cafd" stroke-linecap="round" stroke-linejoin="round" stroke-width="1.0"/>
    <path d="M-12.7 4.35 L-5.1 -3.2" fill="none" stroke="#6eadfb" stroke-linecap="butt" stroke-linejoin="miter-clip" stroke-miterlimit="10.0" stroke-width="1.0"/>
    <path d="M-7.5 -5.6 L-15.05 1.95" fill="none" stroke="#6eadfb" stroke-linecap="butt" stroke-linejoin="miter-clip" stroke-miterlimit="10.0" stroke-width="1.0"/>
    <path d="M-10.65 7.55 L-16.1 8.25 -18.95 5.4 -18.25 -0.05 -10.65 7.55" fill="#a1cafd" fill-rule="evenodd" stroke="none"/>
    <path d="M-10.65 7.55 L-18.25 -0.05 -18.95 5.4 -16.1 8.25 -10.65 7.55 Z" fill="none" stroke="#a1cafd" stroke-linecap="round" stroke-linejoin="round" stroke-width="1.0"/>
    <path d="M-16.1 8.25 L-19.45 8.75 -18.95 5.4 -16.1 8.25" fill="#234da9" fill-rule="evenodd" stroke="none"/>
    <path d="M-16.1 8.25 L-18.95 5.4 -19.45 8.75 -16.1 8.25 Z" fill="none" stroke="#234da9" stroke-linecap="round" stroke-linejoin="miter-clip" stroke-miterlimit="4.0" stroke-width="1.0"/>
  </g>
</svg>
