<?xml version="1.0" encoding="UTF-8" standalone="no"?>
<svg xmlns:ffdec="https://www.free-decompiler.com/flash" xmlns:xlink="http://www.w3.org/1999/xlink" ffdec:objectType="shape" height="79.3px" width="179.55px" xmlns="http://www.w3.org/2000/svg">
  <g transform="matrix(1.0, 0.0, 0.0, 1.0, 89.75, 78.4)">
    <path d="M84.3 -76.85 L15.7 -76.85 -84.25 -76.85 Q-85.9 -76.85 -87.05 -75.65 -88.25 -74.5 -88.25 -72.85 L-88.25 -4.6 Q-88.25 -2.9 -87.05 -1.75 -85.9 -0.6 -84.25 -0.6 L15.7 -0.6 84.3 -0.6 Q85.95 -0.6 87.15 -1.75 88.3 -2.9 88.3 -4.6 L88.3 -72.85 Q88.3 -74.5 87.15 -75.65 85.95 -76.85 84.3 -76.85 M9.8 -78.35 L15.7 -78.35 84.3 -78.35 Q86.55 -78.35 88.2 -76.7 89.8 -75.1 89.8 -72.85 L89.8 -4.6 Q89.8 -2.3 88.2 -0.7 86.55 0.9 84.3 0.9 L15.7 0.9 -84.25 0.9 Q-86.55 0.9 -88.15 -0.7 -89.75 -2.3 -89.75 -4.6 L-89.75 -72.85 Q-89.75 -75.1 -88.15 -76.7 -86.55 -78.35 -84.25 -78.35 L-8.75 -78.35 -8.7 -78.4 -6.85 -78.4 -6.9 -78.35 7.9 -78.35 7.85 -78.4 9.75 -78.4 9.8 -78.35" fill="#234da9" fill-rule="evenodd" stroke="none"/>
    <path d="M-88.25 -4.6 L-88.25 -11.95 -88.25 -67.55 -88.25 -72.85 Q-88.25 -74.5 -87.05 -75.65 -85.9 -76.85 -84.25 -76.85 L-74.05 -76.85 75.25 -76.85 84.3 -76.85 Q85.95 -76.85 87.15 -75.65 88.3 -74.5 88.3 -72.85 L88.3 -67.55 88.3 -11.95 88.3 -4.6 Q88.3 -2.9 87.15 -1.75 85.95 -0.6 84.3 -0.6 L75.25 -0.6 -74.05 -0.6 -84.25 -0.6 Q-85.9 -0.6 -87.05 -1.75 -88.25 -2.9 -88.25 -4.6" fill="#fefefe" fill-rule="evenodd" stroke="none"/>
  </g>
</svg>
