<?xml version="1.0" encoding="UTF-8" standalone="no"?>
<svg xmlns:ffdec="https://www.free-decompiler.com/flash" xmlns:xlink="http://www.w3.org/1999/xlink" ffdec:objectType="shape" height="168.4px" width="581.8px" xmlns="http://www.w3.org/2000/svg">
  <g transform="matrix(1.0, 0.0, 0.0, 1.0, 0.1, 0.3)">
    <path d="M573.75 5.1 Q576.9 8.25 576.9 12.7 L576.9 154.1 Q576.9 158.55 573.75 161.7 570.55 164.85 566.1 164.85 L12.9 165.85 Q8.45 165.85 5.3 162.7 2.15 159.55 2.15 155.1 L2.15 12.7 Q2.15 8.25 5.3 5.1 8.45 1.95 12.9 1.95 L566.1 1.95 Q570.55 1.95 573.75 5.1" fill="#3695ff" fill-rule="evenodd" stroke="none"/>
    <path d="M573.75 5.1 Q576.9 8.25 576.9 12.7 L576.9 154.1 Q576.9 158.55 573.75 161.7 570.55 164.85 566.1 164.85 L12.9 165.85 Q8.45 165.85 5.3 162.7 2.15 159.55 2.15 155.1 L2.15 12.7 Q2.15 8.25 5.3 5.1 8.45 1.95 12.9 1.95 L566.1 1.95 Q570.55 1.95 573.75 5.1 Z" fill="none" stroke="#234da9" stroke-linecap="butt" stroke-linejoin="miter-clip" stroke-miterlimit="4.0" stroke-width="4.5"/>
    <path d="M573.75 5.1 Q576.9 8.25 576.9 12.7 L576.9 154.1 Q576.9 158.55 573.75 161.7 570.55 164.85 566.1 164.85 L12.9 165.85 Q8.45 165.85 5.3 162.7 2.15 159.55 2.15 155.1 L2.15 12.7 Q2.15 8.25 5.3 5.1 8.45 1.95 12.9 1.95 L566.1 1.95 Q570.55 1.95 573.75 5.1" fill="#3695ff" fill-rule="evenodd" stroke="none"/>
    <path d="M573.75 5.1 Q576.9 8.25 576.9 12.7 L576.9 154.1 Q576.9 158.55 573.75 161.7 570.55 164.85 566.1 164.85 L12.9 165.85 Q8.45 165.85 5.3 162.7 2.15 159.55 2.15 155.1 L2.15 12.7 Q2.15 8.25 5.3 5.1 8.45 1.95 12.9 1.95 L566.1 1.95 Q570.55 1.95 573.75 5.1 Z" fill="none" stroke="#7ac4ff" stroke-linecap="butt" stroke-linejoin="miter-clip" stroke-miterlimit="4.0" stroke-width="1.5"/>
  </g>
</svg>
