<?xml version="1.0" encoding="UTF-8" standalone="no"?>
<svg xmlns:ffdec="https://www.free-decompiler.com/flash" xmlns:xlink="http://www.w3.org/1999/xlink" ffdec:objectType="shape" height="32.5px" width="171.5px" xmlns="http://www.w3.org/2000/svg">
  <g transform="matrix(1.0, 0.0, 0.0, 1.0, 0.75, 0.75)">
    <path d="M168.3 4.35 L170.0 9.4 170.0 9.5 170.0 9.65 170.0 9.75 170.0 10.0 170.0 21.0 170.0 21.15 170.0 21.25 170.0 21.4 170.0 21.5 170.0 21.65 168.3 26.65 167.1 28.05 165.65 29.3 160.5 31.0 160.15 31.0 160.0 31.0 10.0 31.0 4.5 29.35 2.9 28.05 1.7 26.6 0.0 21.4 0.0 21.0 0.0 10.0 0.0 9.9 0.0 9.75 0.0 9.65 0.0 9.5 0.0 9.4 1.75 4.35 2.9 2.9 4.4 1.7 9.65 0.0 10.0 0.0 160.0 0.0 160.15 0.0 160.25 0.0 160.4 0.0 160.5 0.0 160.65 0.0 160.75 0.0 165.7 1.75 167.1 2.9 168.3 4.35 167.05 2.9 165.7 1.75 M168.3 26.65 L167.05 28.05 165.65 29.3 M1.75 4.35 L2.95 2.9 4.4 1.7 M4.5 29.35 L2.95 28.05 1.7 26.6" fill="none" stroke="#000000" stroke-linecap="round" stroke-linejoin="miter-clip" stroke-miterlimit="10.0" stroke-opacity="0.3019608" stroke-width="1.5"/>
  </g>
</svg>
