<?xml version="1.0" encoding="UTF-8" standalone="no"?>
<svg xmlns:ffdec="https://www.free-decompiler.com/flash" xmlns:xlink="http://www.w3.org/1999/xlink" ffdec:objectType="shape" height="34.65px" width="171.5px" xmlns="http://www.w3.org/2000/svg">
  <g transform="matrix(1.0, 0.0, 0.0, 1.0, 0.75, 0.75)">
    <path d="M167.1 28.05 Q164.15 31.0 160.0 31.0 L10.0 31.0 Q5.9 31.0 2.95 28.05 0.0 25.15 0.0 21.0 L0.0 10.0 Q0.0 5.85 2.95 2.9 5.85 0.0 10.0 0.0 L160.0 0.0 Q164.15 0.0 167.1 2.9 170.0 5.85 170.0 10.0 L170.0 21.0 Q170.0 25.15 167.1 28.05" fill="#fdff35" fill-rule="evenodd" stroke="none"/>
    <path d="M167.1 28.05 Q164.15 31.0 160.0 31.0 L10.0 31.0 Q5.9 31.0 2.95 28.05 0.0 25.15 0.0 21.0 L0.0 10.0 Q0.0 5.85 2.95 2.9 5.85 0.0 10.0 0.0 L160.0 0.0 Q164.15 0.0 167.1 2.9 170.0 5.85 170.0 10.0 L170.0 21.0 Q170.0 25.15 167.1 28.05 Z" fill="none" stroke="#218cce" stroke-linecap="butt" stroke-linejoin="miter-clip" stroke-miterlimit="10.0" stroke-width="1.5"/>
    <path d="M167.1 28.05 Q164.15 31.0 160.0 31.0 L10.0 31.0 Q5.9 31.0 2.95 28.05 0.0 25.15 0.0 21.0 L0.0 10.0 Q0.0 5.85 2.95 2.9 5.85 0.0 10.0 0.0 L160.0 0.0 Q164.15 0.0 167.1 2.9 170.0 5.85 170.0 10.0 L170.0 21.0 Q170.0 25.15 167.1 28.05 Z" fill="none" stroke="#000000" stroke-linecap="butt" stroke-linejoin="miter-clip" stroke-miterlimit="10.0" stroke-opacity="0.3019608" stroke-width="1.5"/>
    <path d="M169.15 13.45 L169.15 15.5 Q84.8 23.7 0.35 15.5 L0.35 13.45 Q-0.95 -0.95 15.8 0.85 L32.85 0.85 139.8 0.85 153.75 0.85 Q170.55 -1.8 169.15 13.45" fill="url(#gradient0)" fill-rule="evenodd" stroke="none"/>
  </g>
  <defs>
    <linearGradient gradientTransform="matrix(0.0, 0.0117, -0.103, 0.0, 84.8, 14.95)" gradientUnits="userSpaceOnUse" id="gradient0" spreadMethod="pad" x1="-819.2" x2="819.2">
      <stop offset="0.0" stop-color="#ffffff" stop-opacity="0.7019608"/>
      <stop offset="0.8470588235294118" stop-color="#ffffff" stop-opacity="0.0"/>
    </linearGradient>
  </defs>
</svg>
