<?xml version="1.0" encoding="UTF-8" standalone="no"?>
<svg xmlns:ffdec="https://www.free-decompiler.com/flash" xmlns:xlink="http://www.w3.org/1999/xlink" ffdec:objectType="shape" height="160.0px" width="245.4px" xmlns="http://www.w3.org/2000/svg">
  <g transform="matrix(1.0, 0.0, 0.0, 1.0, 122.45, 77.25)">
    <path d="M-121.45 -67.05 Q-121.45 -76.25 -112.2 -76.25 L112.7 -76.25 Q121.95 -76.25 121.95 -67.05 L121.95 72.5 Q121.95 81.75 112.7 81.75 L-112.2 81.75 Q-121.45 81.75 -121.45 72.5 L-121.45 -67.05" fill="#ffffff" fill-rule="evenodd" stroke="none"/>
    <path d="M-121.45 -67.05 L-121.45 72.5 Q-121.45 81.75 -112.2 81.75 L112.7 81.75 Q121.95 81.75 121.95 72.5 L121.95 -67.05 Q121.95 -76.25 112.7 -76.25 L-112.2 -76.25 Q-121.45 -76.25 -121.45 -67.05 Z" fill="none" stroke="#000000" stroke-linecap="butt" stroke-linejoin="miter-clip" stroke-miterlimit="4.0" stroke-opacity="0.3019608" stroke-width="2.0"/>
  </g>
</svg>
