<?xml version="1.0" encoding="UTF-8" standalone="no"?>
<svg xmlns:ffdec="https://www.free-decompiler.com/flash" xmlns:xlink="http://www.w3.org/1999/xlink" ffdec:objectType="shape" height="117.75px" width="180.3px" xmlns="http://www.w3.org/2000/svg">
  <g transform="matrix(1.0, 0.0, 0.0, 1.0, 89.9, 56.1)">
    <path d="M-88.9 -48.35 Q-88.9 -55.1 -82.15 -55.1 L82.65 -55.1 Q89.4 -55.1 89.4 -48.35 L89.4 53.9 Q89.4 60.65 82.65 60.65 L-82.15 60.65 Q-88.9 60.65 -88.9 53.9 L-88.9 -48.35" fill="#ffffff" fill-rule="evenodd" stroke="none"/>
    <path d="M-88.9 -48.35 L-88.9 53.9 Q-88.9 60.65 -82.15 60.65 L82.65 60.65 Q89.4 60.65 89.4 53.9 L89.4 -48.35 Q89.4 -55.1 82.65 -55.1 L-82.15 -55.1 Q-88.9 -55.1 -88.9 -48.35 Z" fill="none" stroke="#000000" stroke-linecap="butt" stroke-linejoin="miter-clip" stroke-miterlimit="4.0" stroke-opacity="0.3019608" stroke-width="2.0"/>
  </g>
</svg>
