<?xml version="1.0" encoding="UTF-8" standalone="no"?>
<svg xmlns:ffdec="https://www.free-decompiler.com/flash" xmlns:xlink="http://www.w3.org/1999/xlink" ffdec:objectType="shape" height="19.15px" width="25.65px" xmlns="http://www.w3.org/2000/svg">
  <g transform="matrix(1.0, 0.0, 0.0, 1.0, 12.85, 9.55)">
    <path d="M-11.2 -7.9 Q-10.05 -9.05 -8.45 -9.05 L8.4 -9.05 Q10.0 -9.05 11.15 -7.9 12.3 -6.75 12.3 -5.15 L12.3 5.2 Q12.3 6.8 11.15 7.95 10.0 9.1 8.4 9.1 L-8.45 9.1 Q-10.05 9.1 -11.2 7.95 -12.35 6.8 -12.35 5.2 L-12.35 -5.15 Q-12.35 -6.75 -11.2 -7.9" fill="#ff5555" fill-rule="evenodd" stroke="none"/>
    <path d="M-11.2 -7.9 Q-10.05 -9.05 -8.45 -9.05 L8.4 -9.05 Q10.0 -9.05 11.15 -7.9 12.3 -6.75 12.3 -5.15 L12.3 5.2 Q12.3 6.8 11.15 7.95 10.0 9.1 8.4 9.1 L-8.45 9.1 Q-10.05 9.1 -11.2 7.95 -12.35 6.8 -12.35 5.2 L-12.35 -5.15 Q-12.35 -6.75 -11.2 -7.9 Z" fill="none" stroke="#000000" stroke-linecap="butt" stroke-linejoin="miter-clip" stroke-miterlimit="4.0" stroke-opacity="0.3019608" stroke-width="1.0"/>
    <path d="M-11.35 -0.3 L-11.35 -5.15 Q-11.35 -6.35 -10.5 -7.2 -9.65 -8.05 -8.45 -8.05 L8.4 -8.05 Q9.6 -8.05 10.45 -7.2 11.3 -6.35 11.3 -5.15 L11.3 -0.3 -11.35 -0.3" fill="url(#gradient0)" fill-rule="evenodd" stroke="none"/>
  </g>
  <defs>
    <linearGradient gradientTransform="matrix(0.0, 0.0079, 0.0079, 0.0, 31.45, -2.3)" gradientUnits="userSpaceOnUse" id="gradient0" spreadMethod="pad" x1="-819.2" x2="819.2">
      <stop offset="0.0" stop-color="#fefefe" stop-opacity="0.5019608"/>
      <stop offset="1.0" stop-color="#fefefe" stop-opacity="0.0"/>
    </linearGradient>
  </defs>
</svg>
