<?xml version="1.0" encoding="UTF-8" standalone="no"?>
<svg xmlns:ffdec="https://www.free-decompiler.com/flash" xmlns:xlink="http://www.w3.org/1999/xlink" ffdec:objectType="shape" height="81.2px" width="144.05px" xmlns="http://www.w3.org/2000/svg">
  <g transform="matrix(1.0, 0.0, 0.0, 1.0, 0.0, 0.0)">
    <path d="M135.15 27.8 Q137.05 28.9 138.7 30.55 144.05 35.8 144.05 43.25 144.05 50.6 138.75 55.85 139.05 61.9 141.55 70.85 66.35 91.7 0.0 70.6 8.2 61.0 8.65 49.65 4.85 44.95 4.85 38.7 L4.85 38.35 4.85 37.95 Q4.85 30.5 10.15 25.25 13.05 22.4 16.6 21.15 17.5 15.65 21.65 11.5 27.05 6.25 34.55 6.25 37.55 6.25 40.25 7.1 L41.9 5.25 Q47.3 0.0 54.8 0.0 61.55 0.0 66.55 4.25 71.55 0.0 78.3 0.0 85.8 0.0 91.15 5.25 L91.7 5.8 Q95.9 3.25 101.1 3.25 108.6 3.25 113.95 8.5 115.75 10.25 116.95 12.25 L117.1 12.25 Q124.6 12.25 129.95 17.5 134.4 21.9 135.15 27.8" fill="#333333" fill-rule="evenodd" stroke="none"/>
  </g>
</svg>
