<?xml version="1.0" encoding="UTF-8" standalone="no"?>
<svg xmlns:ffdec="https://www.free-decompiler.com/flash" xmlns:xlink="http://www.w3.org/1999/xlink" ffdec:objectType="shape" height="96.25px" width="86.65px" xmlns="http://www.w3.org/2000/svg">
  <g transform="matrix(1.0, 0.0, 0.0, 1.0, -5.95, 10.85)">
    <path d="M38.35 -2.55 Q45.6 4.6 45.65 13.8 47.45 0.3 68.45 -10.85 57.8 3.85 54.95 17.5 L54.95 19.7 Q58.3 15.65 64.0 12.7 71.55 8.75 80.45 8.5 86.95 8.45 88.6 10.35 69.85 17.85 65.2 30.1 62.3 37.55 63.5 35.75 70.05 26.0 92.6 35.4 68.45 39.75 64.9 57.7 L64.7 58.6 64.65 59.2 64.6 59.85 Q63.95 69.35 62.8 76.05 45.2 93.55 32.45 78.25 29.8 75.05 29.7 71.1 L29.45 60.3 Q29.5 58.9 26.8 48.0 24.0 33.55 5.95 32.85 18.9 25.1 30.75 28.95 30.3 23.4 24.7 14.95 19.1 6.5 9.8 7.4 18.25 0.85 27.3 5.75 36.35 10.65 36.85 13.8 36.65 9.25 34.3 3.1 30.4 -6.75 24.25 -10.55 32.7 -8.05 38.35 -2.55" fill="#000000" fill-rule="evenodd" stroke="none"/>
  </g>
</svg>
