<?xml version="1.0" encoding="UTF-8" standalone="no"?>
<svg xmlns:ffdec="https://www.free-decompiler.com/flash" xmlns:xlink="http://www.w3.org/1999/xlink" ffdec:objectType="shape" height="70.65px" width="74.95px" xmlns="http://www.w3.org/2000/svg">
  <g transform="matrix(1.0, 0.0, 0.0, 1.0, 36.75, 46.4)">
    <path d="M15.15 -38.65 L15.8 -38.15 18.0 -36.3 Q26.4 -28.6 31.55 -17.7 36.75 -6.8 38.1 6.75 2.4 34.4 -34.4 18.15 L-35.6 10.45 Q-37.1 -0.1 -36.45 -7.0 -35.75 -15.35 -32.25 -23.9 -25.2 -42.0 -10.45 -45.5 1.6 -48.5 13.0 -40.3 L15.15 -38.65" fill="#ffffff" fill-rule="evenodd" stroke="none"/>
    <path d="M15.15 -38.65 L15.8 -38.15 18.0 -36.3 Q26.4 -28.6 31.55 -17.7 36.75 -6.8 38.1 6.75 2.4 34.4 -34.4 18.15 L-35.6 10.45 Q-37.1 -0.1 -36.45 -7.0 -35.75 -15.35 -32.25 -23.9 -25.2 -42.0 -10.45 -45.5 1.6 -48.5 13.0 -40.3 L15.15 -38.65 Z" fill="none" stroke="#000000" stroke-linecap="round" stroke-linejoin="round" stroke-opacity="0.12941177" stroke-width="0.2"/>
    <path d="M-4.05 -32.2 Q0.25 -32.85 3.7 -30.2 7.25 -27.3 7.75 -22.75 8.2 -18.15 5.25 -14.6 L-7.7 1.3 -22.3 -11.95 Q-25.15 -14.55 -25.55 -18.65 -25.95 -22.8 -23.7 -26.1 -21.35 -29.45 -17.45 -29.95 -14.75 -30.5 -10.55 -27.25 -6.8 -31.85 -4.05 -32.2" fill="#cc3300" fill-rule="evenodd" stroke="none"/>
  </g>
</svg>
