<?xml version="1.0" encoding="UTF-8" standalone="no"?>
<svg xmlns:ffdec="https://www.free-decompiler.com/flash" xmlns:xlink="http://www.w3.org/1999/xlink" ffdec:objectType="shape" height="54.9px" width="72.35px" xmlns="http://www.w3.org/2000/svg">
  <g transform="matrix(1.0, 0.0, 0.0, 1.0, 36.8, 46.4)">
    <path d="M17.95 -36.25 Q26.35 -28.5 31.4 -17.6 33.75 -12.35 35.45 -6.5 -3.2 16.05 -36.5 4.45 -37.0 -1.45 -36.35 -6.8 -35.65 -15.75 -32.45 -23.8 -25.4 -41.95 -10.6 -45.5 1.5 -48.5 12.9 -40.3 L15.1 -38.6 15.8 -38.1 17.95 -36.25" fill="#ffffff" fill-rule="evenodd" stroke="none"/>
    <path d="M17.95 -36.25 Q26.35 -28.5 31.4 -17.6 33.75 -12.35 35.45 -6.5 -3.2 16.05 -36.5 4.45 -37.0 -1.45 -36.35 -6.8 -35.65 -15.75 -32.45 -23.8 -25.4 -41.95 -10.6 -45.5 1.5 -48.5 12.9 -40.3 L15.1 -38.6 15.8 -38.1 17.95 -36.25 Z" fill="none" stroke="#000000" stroke-linecap="round" stroke-linejoin="round" stroke-opacity="0.12941177" stroke-width="0.2"/>
  </g>
</svg>
