<?xml version="1.0" encoding="UTF-8" standalone="no"?>
<svg xmlns:ffdec="https://www.free-decompiler.com/flash" xmlns:xlink="http://www.w3.org/1999/xlink" ffdec:objectType="shape" height="24.05px" width="119.75px" xmlns="http://www.w3.org/2000/svg">
  <g transform="matrix(1.0, 0.0, 0.0, 1.0, 74.2, 58.15)">
    <path d="M44.2 -52.5 Q45.55 -50.15 45.55 -47.3 L45.4 -45.35 Q44.85 -42.35 42.65 -40.05 L42.2 -40.5 Q34.15 -48.15 23.65 -50.15 24.35 -52.9 26.5 -55.0 29.8 -58.15 34.4 -58.15 36.7 -58.15 38.7 -57.35 40.65 -56.55 42.25 -55.0 43.45 -53.85 44.2 -52.5 M-55.55 -43.6 Q-63.8 -42.1 -70.05 -35.85 L-71.65 -34.1 Q-74.2 -36.75 -74.2 -40.4 L-73.9 -42.75 Q-73.3 -45.15 -71.4 -47.0 L-70.0 -48.1 Q-67.65 -49.7 -64.6 -49.7 -60.6 -49.7 -57.8 -47.0 -56.25 -45.45 -55.55 -43.6" fill="#0033cc" fill-rule="evenodd" stroke="none"/>
  </g>
</svg>
