<?xml version="1.0" encoding="UTF-8" standalone="no"?>
<svg xmlns:ffdec="https://www.free-decompiler.com/flash" xmlns:xlink="http://www.w3.org/1999/xlink" ffdec:objectType="shape" height="84.65px" width="225.85px" xmlns="http://www.w3.org/2000/svg">
  <g transform="matrix(1.0, 0.0, 0.0, 1.0, 0.0, -0.05)">
    <path d="M166.65 11.75 L164.7 9.25 Q163.1 7.7 161.15 6.9 165.4 2.0 173.2 0.45 206.8 -5.7 225.85 78.4 206.3 75.4 189.15 82.8 193.4 3.5 166.65 11.75 M146.1 14.1 Q156.6 16.1 164.65 23.75 L165.1 24.2 Q175.7 34.5 175.7 49.0 175.7 63.8 164.65 74.25 153.6 84.7 137.95 84.7 122.3 84.7 111.25 74.25 100.2 63.8 100.2 49.0 100.2 34.2 111.25 23.75 122.3 13.3 137.95 13.3 L146.1 14.1 M52.45 16.15 L51.05 17.25 Q49.15 19.1 48.55 21.5 30.9 14.3 26.05 80.6 14.4 72.85 0.0 73.75 L2.8 65.2 Q5.2 58.15 7.65 52.0 26.3 5.0 45.9 11.7 49.95 13.2 52.45 16.15 M66.9 20.65 L72.2 20.2 Q83.8 20.2 92.0 28.4 100.2 36.6 100.2 48.2 100.2 59.8 92.0 68.0 83.8 76.2 72.2 76.2 60.6 76.2 52.4 68.0 50.25 65.85 48.7 63.5 44.2 56.8 44.2 48.2 L44.2 47.6 Q44.4 37.6 50.8 30.15 L52.4 28.4 Q58.65 22.15 66.9 20.65" fill="#000000" fill-rule="evenodd" stroke="none"/>
  </g>
</svg>
