<?xml version="1.0" encoding="UTF-8" standalone="no"?>
<svg xmlns:ffdec="https://www.free-decompiler.com/flash" xmlns:xlink="http://www.w3.org/1999/xlink" ffdec:objectType="shape" height="93.0px" width="51.3px" xmlns="http://www.w3.org/2000/svg">
  <g transform="matrix(1.0, 0.0, 0.0, 1.0, 138.5, 12.45)">
    <path d="M-119.1 56.55 Q-117.55 62.25 -120.55 68.45 -122.25 71.9 -126.35 78.2" fill="none" stroke="#156bbf" stroke-linecap="round" stroke-linejoin="round" stroke-width="1.4000000000000001"/>
    <path d="M-127.6 78.55 Q-127.6 79.35 -127.0 79.65 L-124.95 80.05 -115.2 80.55 Q-112.9 80.45 -112.9 78.45 -113.0 76.2 -115.9 76.05 L-120.5 76.4 -125.3 77.2 Q-127.6 77.75 -127.6 78.55" fill="#745a40" fill-rule="evenodd" stroke="none"/>
    <path d="M-118.5 -9.75 Q-128.85 -5.85 -134.45 1.25 -140.15 8.45 -137.8 14.6 -135.45 20.8 -126.55 22.45 -117.6 24.15 -107.2 20.25 -96.85 16.35 -91.25 9.2 -85.55 2.1 -87.9 -4.1 -90.25 -10.3 -99.2 -11.95 -108.2 -13.6 -118.5 -9.75" fill="#8f7050" fill-rule="evenodd" stroke="none"/>
  </g>
</svg>
