<?xml version="1.0" encoding="UTF-8" standalone="no"?>
<svg xmlns:ffdec="https://www.free-decompiler.com/flash" xmlns:xlink="http://www.w3.org/1999/xlink" ffdec:objectType="shape" height="35.4px" width="51.3px" xmlns="http://www.w3.org/2000/svg">
  <g transform="matrix(1.0, 0.0, 0.0, 1.0, 0.05, 0.0)">
    <path d="M49.65 26.75 Q51.85 20.9 46.3 14.15 40.85 7.4 30.85 3.65 20.8 -0.1 12.35 1.4 3.7 2.9 1.55 8.7 -0.65 14.5 4.9 21.3 10.3 28.0 20.35 31.75 30.25 35.5 38.85 34.0 47.45 32.6 49.65 26.75 M50.55 27.05 Q48.2 33.25 39.3 34.9 30.35 36.6 19.95 32.7 9.6 28.8 4.0 21.65 -1.7 14.55 0.65 8.35 3.0 2.15 11.95 0.5 20.95 -1.15 31.25 2.7 41.6 6.6 47.2 13.7 52.9 20.9 50.55 27.05" fill="#000000" fill-rule="evenodd" stroke="none"/>
  </g>
</svg>
