<?xml version="1.0" encoding="UTF-8" standalone="no"?>
<svg xmlns:ffdec="https://www.free-decompiler.com/flash" xmlns:xlink="http://www.w3.org/1999/xlink" ffdec:objectType="shape" height="24.65px" width="39.7px" xmlns="http://www.w3.org/2000/svg">
  <g transform="matrix(1.0, 0.0, 0.0, 1.0, 137.35, 18.55)">
    <path d="M-129.9 -12.5 Q-134.2 -10.9 -136.2 -7.2 -138.15 -3.45 -136.8 0.2 -135.45 3.9 -131.5 5.4 -127.45 6.85 -123.25 5.25 -118.9 3.55 -117.0 -0.05 -114.95 -3.75 -116.3 -7.5 -117.65 -11.1 -121.7 -12.65 -125.65 -14.15 -129.9 -12.5" fill="#ffffff" fill-rule="evenodd" stroke="none"/>
    <path d="M-111.05 -14.3 Q-112.1 -11.5 -111.0 -8.45 -109.8 -5.4 -107.2 -4.0 -104.5 -2.6 -101.9 -3.55 -99.25 -4.55 -98.2 -7.35 -97.1 -10.2 -98.2 -13.25 -99.45 -16.3 -102.05 -17.7 -104.75 -19.15 -107.35 -18.15 -110.0 -17.15 -111.05 -14.3" fill="#ffffff" fill-rule="evenodd" stroke="none"/>
    <path d="M-107.2 -16.65 Q-108.1 -16.15 -108.15 -15.25 -108.4 -14.4 -107.9 -13.7 -107.25 -12.9 -106.5 -12.75 -105.55 -12.6 -104.9 -13.05 -104.15 -13.55 -104.0 -14.4 -103.85 -15.35 -104.3 -16.0 -104.8 -16.8 -105.6 -16.95 -106.5 -17.1 -107.2 -16.65" fill="#000000" fill-rule="evenodd" stroke="none"/>
    <path d="M-129.2 -9.8 Q-129.35 -8.65 -128.8 -7.9 -128.25 -7.05 -127.25 -6.8 -126.2 -6.6 -125.35 -7.2 -124.5 -7.8 -124.35 -8.8 -124.0 -9.75 -124.65 -10.65 -125.3 -11.55 -126.25 -11.7 -127.3 -11.95 -128.1 -11.35 -128.95 -10.7 -129.2 -9.8" fill="#000000" fill-rule="evenodd" stroke="none"/>
  </g>
</svg>
