<?xml version="1.0" encoding="UTF-8" standalone="no"?>
<svg xmlns:ffdec="https://www.free-decompiler.com/flash" xmlns:xlink="http://www.w3.org/1999/xlink" ffdec:objectType="shape" height="19.45px" width="21.6px" xmlns="http://www.w3.org/2000/svg">
  <g transform="matrix(1.0, 0.0, 0.0, 1.0, 0.0, 0.0)">
    <path d="M19.8 6.5 Q17.8 3.0 13.9 1.55 11.85 0.75 9.8 0.75 7.9 0.75 6.25 1.4 2.55 2.75 1.25 6.15 0.05 9.5 1.9 12.95 3.65 16.3 7.8 17.9 9.95 18.7 11.85 18.7 L15.45 18.05 Q19.15 16.6 20.35 13.3 21.65 10.0 19.8 6.5 M20.45 6.15 Q22.4 9.9 21.05 13.55 19.7 17.25 15.75 18.75 L11.85 19.45 Q9.8 19.45 7.5 18.6 3.15 16.9 1.25 13.3 -0.8 9.6 0.55 5.85 1.9 2.25 5.95 0.7 7.9 0.0 9.8 0.0 11.85 0.0 14.15 0.85 18.45 2.45 20.45 6.15" fill="#000000" fill-rule="evenodd" stroke="none"/>
  </g>
</svg>
