<?xml version="1.0" encoding="UTF-8" standalone="no"?>
<svg xmlns:ffdec="https://www.free-decompiler.com/flash" xmlns:xlink="http://www.w3.org/1999/xlink" ffdec:objectType="shape" height="15.4px" width="13.9px" xmlns="http://www.w3.org/2000/svg">
  <g transform="matrix(1.0, 0.0, 0.0, 1.0, 0.0, 0.0)">
    <path d="M13.4 4.25 Q14.45 7.05 13.35 10.1 12.15 13.15 9.55 14.55 7.95 15.4 6.35 15.4 L4.25 15.0 Q1.6 14.0 0.55 11.2 -0.55 8.35 0.55 5.3 1.8 2.25 4.4 0.85 6.0 0.0 7.6 0.0 L9.7 0.4 Q12.35 1.4 13.4 4.25 M12.65 9.85 Q13.65 6.95 12.7 4.5 11.75 2.0 9.45 1.1 L7.6 0.75 Q6.15 0.75 4.8 1.5 2.35 2.75 1.3 5.55 0.2 8.5 1.25 10.9 2.25 13.45 4.5 14.3 L6.35 14.65 Q7.8 14.65 9.2 13.9 11.6 12.55 12.65 9.85" fill="#000000" fill-rule="evenodd" stroke="none"/>
  </g>
</svg>
