<?xml version="1.0" encoding="UTF-8" standalone="no"?>
<svg xmlns:ffdec="https://www.free-decompiler.com/flash" xmlns:xlink="http://www.w3.org/1999/xlink" ffdec:objectType="shape" height="24.55px" width="39.65px" xmlns="http://www.w3.org/2000/svg">
  <g transform="matrix(1.0, 0.0, 0.0, 1.0, -0.5, -7.1)">
    <path d="M11.0 7.9 L11.35 8.1 Q13.2 9.2 14.1 11.7 L14.05 11.8 14.1 11.8 14.15 11.95 14.15 12.1 14.2 12.1 14.2 12.3 14.25 12.3 14.25 12.4 14.2 12.5 14.3 12.5 14.3 12.6 14.25 12.7 14.35 12.75 14.35 12.8 14.3 12.9 14.4 12.95 14.35 13.05 14.4 13.1 14.35 13.2 14.4 13.2 14.35 13.3 14.4 13.35 14.4 13.45 14.45 13.5 14.4 13.6 14.45 13.6 14.4 13.8 14.45 13.8 14.4 13.9 14.45 13.95 14.4 14.1 14.45 14.1 14.4 14.25 14.45 14.25 14.4 14.4 14.45 14.45 14.35 14.65 14.45 14.7 14.35 14.85 14.4 14.9 14.35 15.1 14.4 15.15 14.3 15.4 14.35 15.45 14.25 15.7 14.3 15.75 14.15 16.2 14.2 16.2 13.4 18.15 Q12.4 20.25 10.35 21.45 8.25 22.7 6.0 22.35 L5.6 22.3 5.6 22.35 4.0 21.65 Q2.05 20.65 1.1 18.35 L1.0 18.3 1.05 18.2 0.95 17.95 0.9 17.95 0.95 17.85 0.9 17.7 0.8 17.65 0.85 17.55 0.8 17.45 0.75 17.45 0.8 17.35 0.8 17.25 0.7 17.25 0.75 17.15 0.75 17.05 0.65 17.05 0.7 16.9 0.7 16.85 0.6 16.8 0.65 16.7 0.6 16.7 0.65 16.55 0.6 16.55 0.65 16.45 0.6 16.4 0.6 16.3 0.55 16.3 0.6 16.15 0.55 16.15 0.6 16.05 0.55 16.0 0.6 15.85 0.55 15.85 0.6 15.7 0.55 15.7 0.6 15.55 0.55 15.5 0.6 15.4 0.5 15.35 0.6 15.2 0.55 15.2 0.6 14.95 0.55 14.95 0.6 14.75 0.55 14.75 0.65 14.5 0.6 14.5 0.7 14.2 0.65 14.2 0.75 13.9 0.7 13.9 0.85 13.45 0.8 13.45 1.15 12.45 1.15 12.4 Q2.15 9.8 4.35 8.3 L4.5 8.2 4.6 8.1 Q6.6 6.95 8.75 7.15 L9.05 7.2 9.4 7.3 11.0 7.9 M24.85 12.9 L25.0 12.9 25.2 12.8 30.55 12.5 31.5 12.7 33.8 13.55 34.65 14.0 Q37.95 15.9 39.45 19.55 L39.4 19.65 39.5 19.65 39.7 20.15 39.65 20.25 39.7 20.25 39.75 20.4 39.75 20.55 39.8 20.55 39.8 20.75 39.85 20.75 39.9 20.9 39.85 21.05 39.9 21.05 39.95 21.1 39.9 21.25 39.95 21.25 39.95 21.35 40.0 21.4 40.0 21.6 40.05 21.6 40.0 21.7 40.05 21.75 40.0 21.85 40.05 21.85 40.0 22.0 40.05 22.0 40.1 22.1 40.05 22.2 40.1 22.2 40.05 22.4 40.1 22.4 40.05 22.5 40.15 22.55 40.05 22.7 40.1 22.75 40.1 22.85 40.15 22.85 40.05 23.05 40.15 23.05 40.05 23.2 40.1 23.25 40.05 23.4 40.1 23.45 40.05 23.65 40.1 23.7 40.0 23.85 40.1 23.85 39.95 24.15 40.05 24.15 39.9 24.5 39.95 24.5 39.85 24.85 39.9 24.9 39.15 26.7 Q37.75 29.55 34.45 30.85 31.3 32.1 28.15 31.45 L27.2 31.2 27.2 31.25 24.9 30.35 Q21.0 28.55 19.2 24.15 L19.15 24.15 19.2 24.05 19.0 23.65 18.95 23.65 19.0 23.5 18.9 23.4 18.95 23.3 18.9 23.15 18.8 23.15 18.85 23.0 18.85 22.95 18.75 22.9 18.8 22.8 18.8 22.75 18.75 22.7 18.75 22.6 18.7 22.6 18.75 22.45 18.65 22.35 18.7 22.25 18.65 22.25 18.7 22.1 18.65 22.1 18.7 22.0 18.6 21.95 18.65 21.85 18.6 21.85 18.65 21.7 18.6 21.7 18.65 21.6 18.6 21.55 18.65 21.4 18.6 21.4 18.65 21.25 18.55 21.25 18.6 21.15 18.55 21.1 18.6 20.95 18.55 20.9 18.65 20.75 18.55 20.75 18.65 20.55 18.6 20.55 18.65 20.3 18.6 20.3 18.65 20.15 18.6 20.1 18.7 19.85 18.65 19.8 18.8 19.45 18.75 19.45 18.85 19.1 18.8 19.1 19.15 18.2 19.1 18.1 Q20.5 14.45 24.85 12.9" fill="#ff0000" fill-rule="evenodd" stroke="none"/>
  </g>
</svg>
