<?xml version="1.0" encoding="UTF-8" standalone="no"?>
<svg xmlns:ffdec="https://www.free-decompiler.com/flash" xmlns:xlink="http://www.w3.org/1999/xlink" ffdec:objectType="shape" height="32.25px" width="44.3px" xmlns="http://www.w3.org/2000/svg">
  <g transform="matrix(1.0, 0.0, 0.0, 1.0, 146.55, 39.4)">
    <path d="M-134.1 -12.8 Q-136.65 -18.95 -137.55 -24.25 -138.35 -28.9 -138.1 -34.75 -144.15 -29.4 -145.85 -22.9 -147.6 -16.15 -144.85 -7.15 L-134.1 -12.8 M-131.6 -15.7 L-117.05 -22.05 Q-119.5 -27.15 -122.55 -30.85 -124.65 -33.45 -130.05 -38.6 -132.95 -38.65 -135.9 -36.3 L-134.65 -26.25 Q-133.75 -21.4 -131.6 -15.7 M-119.95 -32.1 Q-116.6 -28.05 -113.7 -22.2 L-102.25 -24.25 Q-111.95 -40.55 -127.35 -39.3 -122.65 -35.35 -119.95 -32.1" fill="#e8bb0d" fill-rule="evenodd" stroke="none"/>
  </g>
</svg>
