<?xml version="1.0" encoding="UTF-8" standalone="no"?>
<svg xmlns:ffdec="https://www.free-decompiler.com/flash" xmlns:xlink="http://www.w3.org/1999/xlink" ffdec:objectType="shape" height="463.25px" width="463.0px" xmlns="http://www.w3.org/2000/svg">
  <g transform="matrix(1.0, 0.0, 0.0, 1.0, 231.5, 231.65)">
    <path d="M-231.5 91.2 L-231.5 -21.75 -231.5 -163.85 -231.5 -213.4 Q-231.5 -229.4 -215.5 -229.4 L-116.8 -229.4 114.8 -229.4 214.5 -229.4 214.5 -229.25 Q227.5 -227.8 227.5 -213.4 L227.5 -212.9 227.5 -202.9 227.5 -163.85 227.5 -21.75 227.5 91.2 227.5 210.0 227.5 215.6 Q227.5 230.0 214.5 231.45 L214.5 231.6 114.8 231.6 -116.8 231.6 -215.5 231.6 Q-231.5 231.6 -231.5 215.6 L-231.5 210.0 -231.5 91.2" fill="#000000" fill-opacity="0.2" fill-rule="evenodd" stroke="none"/>
    <path d="M-225.5 213.35 Q-225.5 215.8 -225.05 217.85 -223.05 227.35 -211.5 227.35 L-116.8 227.35 114.8 227.25 218.5 227.2 Q227.35 226.05 229.1 217.85 229.5 215.8 229.5 213.35 L229.5 40.95 229.5 -14.0 229.5 -166.1 229.5 -215.65 Q229.5 -228.05 218.5 -229.45 L216.1 -229.65 114.8 -229.65 -116.8 -229.65 -211.5 -229.65 Q-225.5 -229.65 -225.5 -215.65 L-225.5 -166.1 -225.5 -14.0 -225.5 40.95 -225.5 213.35 M-227.5 213.35 L-227.5 40.95 -227.5 -14.0 -227.5 -166.1 -227.5 -215.65 Q-227.5 -231.65 -211.5 -231.65 L-116.8 -231.65 114.8 -231.65 218.5 -231.65 218.5 -231.5 Q231.5 -230.05 231.5 -215.65 L231.5 -215.15 231.5 -205.15 231.5 -166.1 231.5 -14.0 231.5 40.95 231.5 213.35 Q231.5 215.8 231.15 217.85 229.3 228.0 218.5 229.2 L218.5 229.35 114.8 229.35 -116.8 229.35 -211.5 229.35 Q-225.1 229.35 -227.15 217.8 -227.5 215.75 -227.5 213.35" fill="#78c0fc" fill-rule="evenodd" stroke="none"/>
    <path d="M-225.5 213.35 L-225.5 40.95 -225.5 -14.0 -225.5 -166.1 -225.5 -215.65 Q-225.5 -229.65 -211.5 -229.65 L-116.8 -229.65 114.8 -229.65 216.1 -229.65 218.5 -229.45 Q229.5 -228.05 229.5 -215.65 L229.5 -166.1 229.5 -14.0 229.5 40.95 229.5 213.35 Q229.5 215.8 229.1 217.85 227.35 226.05 218.5 227.2 L114.8 227.25 -116.8 227.35 -211.5 227.35 Q-223.05 227.35 -225.05 217.85 -225.5 215.8 -225.5 213.35" fill="#3695ff" fill-rule="evenodd" stroke="none"/>
    <path d="M230.35 -203.3 Q171.4 -192.6 115.85 -187.1 57.05 -181.3 2.05 -181.3 -54.85 -181.3 -115.7 -187.5 -169.45 -193.0 -226.3 -203.3 L-226.3 -219.85 -226.15 -219.85 Q-225.4 -224.15 -221.6 -226.85 -217.45 -229.8 -211.1 -229.8 L-115.8 -229.8 115.8 -229.8 215.2 -229.8 Q221.45 -229.8 225.7 -226.5 229.55 -223.5 230.3 -219.1 L230.35 -219.1 230.35 -203.3" fill="url(#gradient0)" fill-rule="evenodd" stroke="none"/>
  </g>
  <defs>
    <linearGradient gradientTransform="matrix(0.0, 0.0367, -0.0432, 0.0, -66.8, -206.15)" gradientUnits="userSpaceOnUse" id="gradient0" spreadMethod="pad" x1="-819.2" x2="819.2">
      <stop offset="0.0" stop-color="#ffffff" stop-opacity="0.3019608"/>
      <stop offset="1.0" stop-color="#ffffff" stop-opacity="0.0"/>
    </linearGradient>
  </defs>
</svg>
