<?xml version="1.0" encoding="UTF-8" standalone="no"?>
<svg xmlns:ffdec="https://www.free-decompiler.com/flash" xmlns:xlink="http://www.w3.org/1999/xlink" ffdec:objectType="shape" height="33.55px" width="45.6px" xmlns="http://www.w3.org/2000/svg">
  <g transform="matrix(1.0, 0.0, 0.0, 1.0, 0.35, 0.0)">
    <path d="M44.05 17.0 Q42.35 10.5 36.3 5.15 36.55 11.0 35.75 15.65 34.85 20.95 32.3 27.1 L43.05 32.75 Q45.8 23.75 44.05 17.0 M28.25 1.3 Q31.15 1.25 34.1 3.6 L32.85 13.65 Q31.95 18.5 29.8 24.2 L15.25 17.85 Q17.7 12.75 20.75 9.05 22.85 6.45 28.25 1.3 M18.15 7.8 Q20.85 4.55 25.55 0.6 10.15 -0.65 0.45 15.65 L11.9 17.7 Q14.8 11.85 18.15 7.8 Z" fill="none" stroke="#000000" stroke-linecap="butt" stroke-linejoin="miter-clip" stroke-miterlimit="4.0" stroke-opacity="0.29803923" stroke-width="1.0"/>
  </g>
</svg>
