<?xml version="1.0" encoding="UTF-8" standalone="no"?>
<svg xmlns:ffdec="https://www.free-decompiler.com/flash" xmlns:xlink="http://www.w3.org/1999/xlink" ffdec:objectType="shape" height="32.05px" width="66.75px" xmlns="http://www.w3.org/2000/svg">
  <g transform="matrix(1.0, 0.0, 0.0, 1.0, 148.25, -0.7)">
    <path d="M-121.1 32.05 Q-138.2 25.45 -141.7 20.2" fill="none" stroke="#745a40" stroke-linecap="round" stroke-linejoin="round" stroke-width="1.4000000000000001"/>
    <path d="M-142.25 15.45 Q-143.55 14.5 -145.15 14.8 -146.65 15.05 -147.55 16.35 -148.5 17.6 -148.2 19.15 -147.95 20.75 -146.65 21.55 -145.45 22.5 -143.85 22.25 -142.25 21.95 -141.4 20.65 -140.5 19.45 -140.75 17.9 -141.05 16.35 -142.25 15.45" fill="#745a40" fill-rule="evenodd" stroke="none"/>
    <path d="M-83.1 10.35 Q-84.4 9.45 -85.95 9.7 -87.4 9.9 -88.35 11.25 -89.3 12.5 -89.0 14.05 -88.75 15.65 -87.45 16.45 -86.25 17.4 -84.65 17.15 -83.2 16.95 -82.2 15.55 -81.3 14.35 -81.55 12.8 -81.85 11.2 -83.1 10.35" fill="#8f7050" fill-rule="evenodd" stroke="none"/>
    <path d="M-104.1 15.2 Q-99.55 12.75 -96.7 10.35 -93.6 7.7 -93.65 6.1 -93.8 3.05 -99.65 1.45 -105.55 -0.15 -110.5 1.6 -115.4 3.3 -119.45 10.25 -123.5 17.1 -121.35 19.6 -119.95 21.15 -114.6 19.65 -109.8 18.3 -104.1 15.2" fill="#000000" fill-opacity="0.49803922" fill-rule="evenodd" stroke="none"/>
  </g>
</svg>
