<?xml version="1.0" encoding="UTF-8" standalone="no"?>
<svg xmlns:ffdec="https://www.free-decompiler.com/flash" xmlns:xlink="http://www.w3.org/1999/xlink" ffdec:objectType="shape" height="179.3px" width="295.85px" xmlns="http://www.w3.org/2000/svg">
  <g transform="matrix(1.0, 0.0, 0.0, 1.0, 143.5, 89.9)">
    <path d="M-113.7 19.05 Q-109.4 17.5 -105.35 15.3 -105.35 14.6 -105.65 14.0 -106.35 12.55 -108.1 12.15 -109.85 11.75 -111.65 12.6 -113.45 13.5 -114.25 15.1 -115.05 16.75 -114.35 18.15 L-113.7 19.05" fill="#a83131" fill-rule="evenodd" stroke="none"/>
    <path d="M-76.9 -28.3 Q-74.9 -29.25 -74.1 -30.35 -73.35 -31.4 -73.8 -32.3 -74.25 -33.2 -75.5 -33.25 -76.9 -33.3 -78.85 -32.35 -80.55 -31.55 -82.3 -29.45 L-83.7 -27.5 Q-79.65 -27.0 -76.9 -28.3" fill="#ffffff" fill-rule="evenodd" stroke="none"/>
    <path d="M-90.35 -48.0 Q-89.4 -50.0 -89.5 -51.35 -89.55 -52.6 -90.45 -53.0 -91.3 -53.45 -92.35 -52.7 -93.45 -51.85 -94.4 -49.9 -95.7 -47.2 -95.15 -43.1 L-93.25 -44.5 Q-91.15 -46.3 -90.35 -48.0" fill="#ffffff" fill-rule="evenodd" stroke="none"/>
    <path d="M-115.05 -57.65 Q-115.7 -56.45 -115.75 -54.25 -115.75 -51.25 -113.55 -47.75 L-112.4 -49.85 Q-111.25 -52.35 -111.25 -54.25 -111.2 -56.4 -111.85 -57.6 -112.45 -58.75 -113.45 -58.75 -114.45 -58.75 -115.05 -57.65" fill="#ffffff" fill-rule="evenodd" stroke="none"/>
    <path d="M-85.7 86.85 Q-44.9 89.4 12.9 89.4 70.7 89.4 111.5 86.85 152.35 84.3 152.35 80.65 152.35 77.05 111.5 74.5 70.65 71.95 12.9 71.95 -44.85 71.95 -85.7 74.5 -126.5 77.05 -126.5 80.65 -126.5 84.3 -85.7 86.85" fill="url(#gradient0)" fill-rule="evenodd" stroke="none"/>
    <path d="M-134.4 84.75 Q-125.3 86.4 -112.4 86.4 -99.5 86.4 -90.45 84.75 -81.35 83.05 -81.35 80.65 -81.35 78.3 -90.45 76.6 -99.55 74.95 -112.4 74.95 -125.3 74.95 -134.4 76.6 -143.5 78.3 -143.5 80.65 -143.5 83.05 -134.4 84.75" fill="url(#gradient1)" fill-rule="evenodd" stroke="none"/>
    <path d="M-28.7 -48.1 Q-30.3 -48.1 -31.5 -47.0 -32.65 -45.85 -32.65 -44.3 L-32.65 -7.55 Q-32.65 -5.95 -31.5 -4.8 -30.3 -3.7 -28.7 -3.7 L26.4 -3.7 Q28.0 -3.7 29.15 -4.8 30.3 -5.95 30.3 -7.55 L30.3 -44.3 Q30.3 -45.85 29.15 -47.0 28.0 -48.1 26.4 -48.1 L-28.7 -48.1" fill="#99ffaf" fill-rule="evenodd" stroke="none"/>
    <path d="M-32.65 -7.55 L-32.65 -44.3 Q-32.65 -45.85 -31.5 -47.0 -30.3 -48.1 -28.7 -48.1 L26.4 -48.1 Q28.0 -48.1 29.15 -47.0 30.3 -45.85 30.3 -44.3 L30.3 -7.55 Q30.3 -5.95 29.15 -4.8 28.0 -3.7 26.4 -3.7 L-28.7 -3.7 Q-30.3 -3.7 -31.5 -4.8 -32.65 -5.95 -32.65 -7.55 M-28.7 -49.1 Q-30.75 -49.1 -32.2 -47.7 -33.65 -46.3 -33.65 -44.3 L-33.65 -7.55 Q-33.65 -5.55 -32.2 -4.15 -30.75 -2.7 -28.7 -2.7 L26.4 -2.7 Q28.4 -2.7 29.85 -4.15 31.3 -5.55 31.3 -7.55 L31.3 -44.3 Q31.3 -46.3 29.85 -47.7 28.4 -49.1 26.4 -49.1 L-28.7 -49.1" fill="#1fff7b" fill-rule="evenodd" stroke="none"/>
    <path d="M-2.2 -32.9 Q-0.35 -28.45 3.1 -26.25 6.55 -24.1 9.6 -25.45 12.65 -26.85 12.75 -30.65 12.9 -34.5 10.05 -38.5 7.25 -42.5 3.8 -44.7 0.35 -46.9 -1.7 -45.95 -3.75 -45.0 -3.9 -41.2 -4.05 -37.35 -2.2 -32.9" fill="#d6ffdf" fill-rule="evenodd" stroke="none"/>
    <path d="M-2.2 -32.9 Q-0.35 -28.45 3.1 -26.25 6.55 -24.1 9.6 -25.45 12.65 -26.85 12.75 -30.65 12.9 -34.5 10.05 -38.5 7.25 -42.5 3.8 -44.7 0.35 -46.9 -1.7 -45.95 -3.75 -45.0 -3.9 -41.2 -4.05 -37.35 -2.2 -32.9 Z" fill="none" stroke="#00b84d" stroke-linecap="butt" stroke-linejoin="round" stroke-width="1.0"/>
    <path d="M-14.1 -30.25 Q-16.2 -27.75 -15.95 -25.1 -15.7 -22.45 -13.2 -21.2 -10.75 -19.95 -8.05 -21.1 -5.4 -22.25 -4.1 -25.2 -2.8 -28.1 -3.05 -30.8 -3.3 -33.45 -5.0 -34.3 -6.65 -35.15 -9.35 -34.0 -12.0 -32.8 -14.1 -30.25" fill="#d6ffdf" fill-rule="evenodd" stroke="none"/>
    <path d="M-14.1 -30.25 Q-16.2 -27.75 -15.95 -25.1 -15.7 -22.45 -13.2 -21.2 -10.75 -19.95 -8.05 -21.1 -5.4 -22.25 -4.1 -25.2 -2.8 -28.1 -3.05 -30.8 -3.3 -33.45 -5.0 -34.3 -6.65 -35.15 -9.35 -34.0 -12.0 -32.8 -14.1 -30.25 Z" fill="none" stroke="#00b84d" stroke-linecap="butt" stroke-linejoin="round" stroke-width="1.0"/>
    <path d="M-2.65 -34.85 Q-2.6 -33.95 -2.1 -33.35 -1.55 -32.7 -0.9 -32.75 -0.25 -32.8 0.2 -33.45 0.65 -34.1 0.6 -35.05 0.55 -35.95 0.05 -36.55 -0.5 -37.2 -1.15 -37.15 -1.8 -37.1 -2.25 -36.45 -2.7 -35.75 -2.65 -34.85" fill="#15c960" fill-rule="evenodd" stroke="none"/>
    <path d="M-2.65 -34.85 Q-2.6 -33.95 -2.1 -33.35 -1.55 -32.7 -0.9 -32.75 -0.25 -32.8 0.2 -33.45 0.65 -34.1 0.6 -35.05 0.55 -35.95 0.05 -36.55 -0.5 -37.2 -1.15 -37.15 -1.8 -37.1 -2.25 -36.45 -2.7 -35.75 -2.65 -34.85 Z" fill="none" stroke="#00b84d" stroke-linecap="butt" stroke-linejoin="miter-clip" stroke-miterlimit="4.0" stroke-width="1.0"/>
    <path d="M-6.25 -31.3 Q-6.2 -30.4 -5.7 -29.8 -5.2 -29.2 -4.55 -29.25 -3.9 -29.3 -3.45 -29.95 -3.0 -30.6 -3.05 -31.5 -3.1 -32.4 -3.6 -33.0 -4.1 -33.6 -4.8 -33.6 -5.45 -33.55 -5.9 -32.9 -6.35 -32.2 -6.25 -31.3" fill="#15c960" fill-rule="evenodd" stroke="none"/>
    <path d="M-6.25 -31.3 Q-6.2 -30.4 -5.7 -29.8 -5.2 -29.2 -4.55 -29.25 -3.9 -29.3 -3.45 -29.95 -3.0 -30.6 -3.05 -31.5 -3.1 -32.4 -3.6 -33.0 -4.1 -33.6 -4.8 -33.6 -5.45 -33.55 -5.9 -32.9 -6.35 -32.2 -6.25 -31.3 Z" fill="none" stroke="#00b84d" stroke-linecap="butt" stroke-linejoin="miter-clip" stroke-miterlimit="4.0" stroke-width="1.0"/>
    <path d="M-24.1 -8.35 Q-24.15 -6.75 -22.75 -6.8 L-18.7 -7.8 Q-10.05 -10.65 -3.7 -10.5 1.95 -10.35 14.5 -6.85 23.2 -4.4 23.3 -6.9 23.45 -11.45 20.05 -15.25 15.6 -20.1 7.1 -20.3 -2.25 -20.5 -13.25 -16.2 -24.0 -11.95 -24.1 -8.35" fill="#d6ffdf" fill-rule="evenodd" stroke="none"/>
    <path d="M-24.1 -8.35 Q-24.15 -6.75 -22.75 -6.8 L-18.7 -7.8 Q-10.05 -10.65 -3.7 -10.5 1.95 -10.35 14.5 -6.85 23.2 -4.4 23.3 -6.9 23.45 -11.45 20.05 -15.25 15.6 -20.1 7.1 -20.3 -2.25 -20.5 -13.25 -16.2 -24.0 -11.95 -24.1 -8.35 Z" fill="none" stroke="#00b84d" stroke-linecap="butt" stroke-linejoin="round" stroke-width="1.0"/>
    <path d="M22.85 -9.55 Q13.05 -15.1 -4.4 -14.4 -13.1 -14.1 -19.85 -12.65 L22.85 -9.55" fill="#d6ffdf" fill-rule="evenodd" stroke="none"/>
    <path d="M-19.85 -12.65 Q-13.1 -14.1 -4.4 -14.4 13.05 -15.1 22.85 -9.55" fill="none" stroke="#00b84d" stroke-linecap="butt" stroke-linejoin="round" stroke-width="1.0"/>
    <path d="M18.8 -12.05 L18.5 -11.8 18.6 -11.2 18.8 -12.05 Q19.55 -12.85 19.7 -14.1 L19.6 -15.45 18.8 -12.05 M18.65 -8.65 L18.6 -11.2 17.45 -6.2 Q18.4 -6.8 18.65 -8.65" fill="#d6ffdf" fill-rule="evenodd" stroke="none"/>
    <path d="M19.6 -15.45 L19.7 -14.1 Q19.55 -12.6 18.5 -11.8 18.9 -10.2 18.65 -8.65 18.4 -6.8 17.45 -6.2" fill="none" stroke="#00b84d" stroke-linecap="butt" stroke-linejoin="round" stroke-width="1.0"/>
    <path d="M12.65 -13.65 L12.45 -13.45 12.5 -13.0 11.5 -7.85 Q13.15 -9.0 12.5 -13.0 L12.65 -13.65 Q14.05 -15.2 13.75 -19.15 L12.65 -13.65" fill="#d6ffdf" fill-rule="evenodd" stroke="none"/>
    <path d="M13.75 -19.15 Q14.05 -14.9 12.45 -13.45 13.25 -9.05 11.5 -7.85" fill="none" stroke="#00b84d" stroke-linecap="butt" stroke-linejoin="round" stroke-width="1.0"/>
    <path d="M7.1 -20.3 L5.85 -9.25 6.6 -11.25 Q7.0 -12.95 6.65 -14.3 7.7 -15.1 7.55 -17.2 L7.1 -20.3" fill="#d6ffdf" fill-rule="evenodd" stroke="none"/>
    <path d="M7.1 -20.3 L7.55 -17.2 Q7.7 -15.1 6.65 -14.3 7.0 -12.95 6.6 -11.25 L5.85 -9.25" fill="none" stroke="#00b84d" stroke-linecap="butt" stroke-linejoin="round" stroke-width="1.0"/>
    <path d="M0.75 -14.7 Q1.1 -15.15 1.2 -16.95 1.3 -18.9 0.95 -19.7 L0.75 -14.7 M0.7 -14.4 L0.55 -10.2 Q1.15 -10.65 1.1 -12.05 1.1 -13.15 0.7 -14.4" fill="#d6ffdf" fill-rule="evenodd" stroke="none"/>
    <path d="M0.95 -19.7 Q1.3 -18.9 1.2 -16.95 1.1 -14.95 0.65 -14.65 L1.1 -12.05 Q1.15 -10.65 0.55 -10.2" fill="none" stroke="#00b84d" stroke-linecap="butt" stroke-linejoin="round" stroke-width="1.0"/>
    <path d="M-5.05 -18.65 L-5.35 -16.75 Q-5.6 -15.2 -5.3 -14.7 -5.6 -13.95 -5.55 -12.5 -5.45 -11.15 -5.15 -10.45 L-5.05 -18.65" fill="#d6ffdf" fill-rule="evenodd" stroke="none"/>
    <path d="M-5.05 -18.7 L-5.35 -16.75 Q-5.6 -15.2 -5.3 -14.7 -5.6 -13.95 -5.55 -12.5 -5.45 -11.15 -5.15 -10.45" fill="none" stroke="#00b84d" stroke-linecap="butt" stroke-linejoin="round" stroke-width="1.0"/>
    <path d="M-10.8 -17.0 Q-11.3 -14.8 -11.05 -14.0 -11.55 -11.3 -10.9 -10.0 L-10.8 -17.0" fill="#d6ffdf" fill-rule="evenodd" stroke="none"/>
    <path d="M-10.8 -17.0 Q-11.3 -14.8 -11.05 -14.0 -11.55 -11.3 -10.9 -10.0" fill="none" stroke="#00b84d" stroke-linecap="butt" stroke-linejoin="round" stroke-width="1.0"/>
    <path d="M-16.35 -14.7 L-16.4 -13.6 Q-16.95 -10.85 -15.75 -8.95 L-16.35 -14.7" fill="#d6ffdf" fill-rule="evenodd" stroke="none"/>
    <path d="M-16.35 -14.7 L-16.4 -13.6 Q-16.95 -10.85 -15.75 -8.95" fill="none" stroke="#00b84d" stroke-linecap="butt" stroke-linejoin="round" stroke-width="1.0"/>
    <path d="M-20.35 -12.65 L-20.4 -10.9 Q-20.2 -8.95 -19.2 -7.9 L-20.35 -12.65" fill="#d6ffdf" fill-rule="evenodd" stroke="none"/>
    <path d="M-20.35 -12.65 L-20.4 -10.9 Q-20.2 -8.95 -19.2 -7.9" fill="none" stroke="#00b84d" stroke-linecap="butt" stroke-linejoin="round" stroke-width="1.0"/>
    <path d="M-33.1 -51.15 L30.8 -51.15 Q32.05 -51.15 32.95 -50.25 33.85 -49.4 33.85 -48.15 L33.85 -3.1 Q33.85 -1.85 32.95 -0.95 32.1 -0.1 30.8 -0.1 L-33.1 -0.1 Q-34.4 -0.1 -35.3 -0.95 -36.2 -1.85 -36.2 -3.1 L-36.2 -48.15 Q-36.2 -49.4 -35.3 -50.25 -34.4 -51.15 -33.1 -51.15 Z" fill="none" stroke="#1fff7b" stroke-linecap="butt" stroke-linejoin="miter-clip" stroke-miterlimit="4.0" stroke-width="1.0"/>
    <path d="M49.65 -35.25 L49.65 27.9" fill="none" stroke="#1fff7b" stroke-linecap="butt" stroke-linejoin="miter-clip" stroke-miterlimit="4.0" stroke-width="1.0"/>
    <path d="M97.65 29.9 L-50.0 29.9" fill="none" stroke="#1fff7b" stroke-linecap="butt" stroke-linejoin="miter-clip" stroke-miterlimit="4.0" stroke-width="1.0"/>
    <path d="M53.15 -30.5 L53.15 -22.15" fill="none" stroke="#1fff7b" stroke-linecap="butt" stroke-linejoin="miter-clip" stroke-miterlimit="4.0" stroke-width="1.0"/>
    <path d="M53.15 -17.15 L53.15 -8.95" fill="none" stroke="#1fff7b" stroke-linecap="butt" stroke-linejoin="miter-clip" stroke-miterlimit="4.0" stroke-width="1.0"/>
    <path d="M53.65 -3.65 L53.65 24.75" fill="none" stroke="#1fff7b" stroke-linecap="butt" stroke-linejoin="miter-clip" stroke-miterlimit="4.0" stroke-width="1.0"/>
    <path d="M39.4 -79.6 Q37.0 -83.4 34.55 -85.35 31.8 -87.5 26.7 -89.4 L24.75 -84.3 Q20.2 -85.8 16.75 -86.0 L7.3 -85.2 Q14.75 -85.8 19.2 -84.55 23.15 -83.45 27.3 -80.1 L29.25 -85.05 Q33.4 -82.6 35.35 -80.25 37.1 -78.1 38.45 -74.3 L44.45 -79.4 Q46.85 -74.5 47.0 -70.65 47.15 -67.25 45.45 -62.2 L54.5 -63.8 Q54.1 -57.05 51.95 -52.4 49.95 -48.15 45.05 -42.75 52.2 -48.45 55.95 -56.1 59.55 -63.45 59.45 -71.1 L50.25 -67.4 Q50.8 -73.35 49.7 -77.05 48.4 -81.2 44.2 -86.05 L39.4 -79.6" fill="#e0ffe7" fill-rule="evenodd" stroke="none"/>
    <path d="M39.4 -79.6 Q37.0 -83.4 34.55 -85.35 31.8 -87.5 26.7 -89.4 L24.75 -84.3 Q20.2 -85.8 16.75 -86.0 L7.3 -85.2 Q14.75 -85.8 19.2 -84.55 23.15 -83.45 27.3 -80.1 L29.25 -85.05 Q33.4 -82.6 35.35 -80.25 37.1 -78.1 38.45 -74.3 L44.45 -79.4 Q46.85 -74.5 47.0 -70.65 47.15 -67.25 45.45 -62.2 L54.5 -63.8 Q54.1 -57.05 51.95 -52.4 49.95 -48.15 45.05 -42.75 52.2 -48.45 55.95 -56.1 59.55 -63.45 59.45 -71.1 L50.25 -67.4 Q50.8 -73.35 49.7 -77.05 48.4 -81.2 44.2 -86.05 L39.4 -79.6 Z" fill="none" stroke="#1fff7b" stroke-linecap="round" stroke-linejoin="round" stroke-width="1.0"/>
    <path d="M-40.45 -78.65 Q-44.8 -74.0 -47.0 -67.8 L-53.0 -72.8 Q-55.65 -66.4 -56.1 -61.55 -56.5 -57.25 -55.35 -50.9 L-60.85 -51.0 Q-59.15 -42.75 -56.25 -37.9 -53.8 -33.8 -48.6 -29.45 -52.0 -33.25 -53.65 -36.35 -55.55 -39.85 -56.9 -45.55 -54.3 -46.5 -51.35 -46.95 -53.0 -52.15 -53.2 -55.8 -53.35 -59.9 -52.0 -65.7 L-45.6 -60.6 Q-44.5 -66.8 -42.4 -70.4 -40.0 -74.5 -34.65 -78.55 -33.45 -73.3 -32.05 -68.9 -26.95 -74.3 -19.7 -75.4 -12.55 -76.5 -5.1 -73.3 -11.9 -77.35 -17.2 -78.0 -22.25 -78.6 -28.9 -76.35 L-30.4 -85.7 Q-36.15 -83.2 -40.45 -78.65" fill="#e0ffe7" fill-rule="evenodd" stroke="none"/>
    <path d="M-40.45 -78.65 Q-44.8 -74.0 -47.0 -67.8 L-53.0 -72.8 Q-55.65 -66.4 -56.1 -61.55 -56.5 -57.25 -55.35 -50.9 L-60.85 -51.0 Q-59.15 -42.75 -56.25 -37.9 -53.8 -33.8 -48.6 -29.45 -52.0 -33.25 -53.65 -36.35 -55.55 -39.85 -56.9 -45.55 -54.3 -46.5 -51.35 -46.95 -53.0 -52.15 -53.2 -55.8 -53.35 -59.9 -52.0 -65.7 L-45.6 -60.6 Q-44.5 -66.8 -42.4 -70.4 -40.0 -74.5 -34.65 -78.55 -33.45 -73.3 -32.05 -68.9 -26.95 -74.3 -19.7 -75.4 -12.55 -76.5 -5.1 -73.3 -11.9 -77.35 -17.2 -78.0 -22.25 -78.6 -28.9 -76.35 L-30.4 -85.7 Q-36.15 -83.2 -40.45 -78.65 Z" fill="none" stroke="#1fff7b" stroke-linecap="round" stroke-linejoin="round" stroke-width="1.0"/>
  </g>
  <defs>
    <radialGradient cx="0" cy="0" gradientTransform="matrix(-0.1521, 0.0, 0.0, -0.0121, 12.9, 80.65)" gradientUnits="userSpaceOnUse" id="gradient0" r="819.2" spreadMethod="pad">
      <stop offset="0.0" stop-color="#000000" stop-opacity="0.14901961"/>
      <stop offset="1.0" stop-color="#000000" stop-opacity="0.0"/>
    </radialGradient>
    <radialGradient cx="0" cy="0" gradientTransform="matrix(-0.0339, 0.0, 0.0, -0.008, -112.4, 80.65)" gradientUnits="userSpaceOnUse" id="gradient1" r="819.2" spreadMethod="pad">
      <stop offset="0.0" stop-color="#000000" stop-opacity="0.14901961"/>
      <stop offset="1.0" stop-color="#000000" stop-opacity="0.0"/>
    </radialGradient>
  </defs>
</svg>
