<?xml version="1.0" encoding="UTF-8" standalone="no"?>
<svg xmlns:ffdec="https://www.free-decompiler.com/flash" xmlns:xlink="http://www.w3.org/1999/xlink" ffdec:objectType="shape" height="220.95px" width="278.85px" xmlns="http://www.w3.org/2000/svg">
  <g transform="matrix(1.0, 0.0, 0.0, 1.0, 170.75, 129.3)">
    <path d="M-17.8 30.75 Q-16.75 30.75 -16.1 31.15 L-16.05 29.95 Q-15.75 26.8 -14.65 24.1 L-14.5 23.7 -14.55 22.25 Q-17.45 22.35 -19.55 23.2 -21.75 24.1 -22.4 25.55 -23.55 27.95 -19.95 31.4 -19.0 30.75 -17.8 30.75 M9.95 19.95 Q7.5 20.1 4.8 21.5 6.65 23.75 7.75 26.25 L8.05 26.85 8.15 26.85 9.05 29.6 9.2 29.4 Q10.35 28.25 11.9 28.25 13.1 28.25 14.05 28.95 16.3 23.2 13.75 20.95 12.4 19.8 9.95 19.95 M14.45 -21.4 L14.65 -21.3 18.15 -18.75 Q19.7 -17.45 19.9 -16.65 L19.95 -16.6 20.15 -15.9 19.8 -15.95 19.75 -15.9 19.3 -15.35 Q19.0 -15.1 18.3 -15.1 L14.6 -15.45 Q15.9 -12.85 16.7 -9.55 17.55 -5.85 17.45 -2.65 15.0 -4.9 13.85 -4.5 13.55 -1.9 12.55 0.15 L13.0 3.15 Q13.0 9.75 5.2 14.4 3.15 15.6 1.25 16.4 L1.9 16.85 1.85 18.7 3.1 19.7 3.8 20.4 Q6.95 18.65 9.95 18.5 12.95 18.35 14.7 19.9 16.05 21.05 16.4 23.1 16.9 25.95 15.15 30.15 15.7 31.0 15.7 32.05 L15.45 33.35 17.95 35.0 16.95 36.95 16.55 36.8 13.05 35.65 12.3 35.8 12.45 37.95 12.4 37.95 Q13.1 39.15 12.85 40.75 L19.05 50.4 19.0 50.65 Q18.0 53.4 15.35 53.4 L14.35 53.3 14.1 53.25 9.65 44.5 9.2 45.15 Q7.9 46.5 6.4 47.45 5.5 60.25 10.05 69.0 10.7 69.35 10.7 69.8 10.7 70.65 10.1 70.9 L8.05 71.3 -1.7 71.8 Q-4.0 71.65 -4.0 69.7 -3.9 67.45 -1.0 67.3 L3.65 67.65 8.15 68.35 Q4.3 59.95 4.9 48.45 L3.3 49.2 1.1 49.75 -0.3 50.0 -2.75 50.15 -5.05 50.0 Q-7.3 49.8 -9.7 48.7 L-11.3 47.7 Q-11.8 59.2 -8.05 67.8 -7.4 68.15 -7.4 68.6 -7.4 69.4 -8.0 69.7 L-10.05 70.1 -19.85 70.6 Q-22.1 70.45 -22.1 68.5 -22.0 66.25 -19.1 66.1 L-14.5 66.45 -9.85 67.2 Q-13.4 58.25 -12.7 46.35 L-13.9 44.65 Q-16.55 44.1 -16.85 42.9 L-17.2 38.25 -17.8 38.3 Q-19.35 38.3 -20.5 37.15 -21.55 36.1 -21.55 34.5 -21.55 33.35 -20.95 32.45 -25.3 28.35 -23.75 24.95 -22.9 23.1 -20.35 22.0 -17.85 20.9 -14.5 20.85 L-14.5 19.5 -14.15 19.15 Q-24.95 19.0 -32.5 14.4 -40.3 9.75 -40.3 3.15 -40.3 0.2 -38.7 -2.4 L-38.75 -2.4 Q-39.05 -4.25 -38.3 -6.65 -40.05 -6.05 -41.45 -4.35 -41.3 -9.75 -38.55 -15.5 L-42.35 -15.1 Q-43.15 -15.1 -43.25 -15.95 -43.35 -16.45 -43.1 -16.75 L-43.05 -16.85 Q-41.3 -19.7 -38.85 -21.2 L-38.7 -21.25 -37.85 -21.4 Q-36.85 -30.15 -30.45 -36.55 -22.85 -44.15 -12.15 -44.15 -1.4 -44.15 6.2 -36.55 12.55 -30.2 13.6 -21.55 L14.45 -21.4" fill="#000000" fill-opacity="0.047058824" fill-rule="evenodd" stroke="none"/>
    <path d="M-60.55 -129.3 Q-58.9 -129.3 -57.7 -128.1 -56.55 -126.95 -56.55 -125.3 L-56.55 10.15 Q-56.55 11.3 -57.15 12.25 -57.75 13.2 -58.7 13.7 L-58.75 13.7 -59.3 13.95 -59.85 14.1 -60.55 14.15 -137.75 14.15 -138.4 14.1 -138.65 14.05 -139.1 13.9 Q-140.3 13.5 -141.0 12.5 -141.75 11.45 -141.75 10.15 L-141.75 -125.3 Q-141.75 -126.95 -140.55 -128.1 -139.4 -129.3 -137.75 -129.3 L-60.55 -129.3" fill="#000000" fill-opacity="0.09803922" fill-rule="evenodd" stroke="none"/>
    <path d="M67.3 89.1 Q26.5 91.65 -31.3 91.65 -89.1 91.65 -129.9 89.1 -170.75 86.55 -170.75 82.9 -170.75 79.3 -129.9 76.75 -88.95 74.15 -31.3 74.15 26.35 74.15 67.3 76.75 108.1 79.3 108.1 82.9 108.1 86.55 67.3 89.1" fill="url(#gradient0)" fill-rule="evenodd" stroke="none"/>
    <path d="M23.4 13.65 Q19.85 12.45 18.75 9.65 17.7 7.15 18.8 3.9 19.9 0.65 22.25 -0.7 24.85 -2.2 28.4 -1.0 31.05 -0.1 33.95 3.55 36.85 7.15 38.4 7.65 35.55 12.4 31.25 13.85 L23.4 13.65" fill="#443828" fill-rule="evenodd" stroke="none"/>
    <path d="M14.9 2.95 Q14.9 1.05 16.25 -0.3 17.6 -1.65 19.5 -1.65 21.35 -1.65 22.7 -0.3 24.05 1.05 24.05 2.95 24.05 4.85 22.7 6.2 21.4 7.55 19.5 7.55 17.6 7.55 16.25 6.2 14.9 4.85 14.9 2.95" fill="#241d15" fill-rule="evenodd" stroke="none"/>
    <path d="M-4.75 -26.15 Q6.7 -26.15 14.75 -20.35 22.85 -14.5 22.85 -6.3 22.85 1.95 14.75 7.8 6.7 13.6 -4.75 13.6 -15.15 13.6 -23.0 8.65 -30.75 3.75 -32.15 -3.55 -33.95 -2.95 -34.4 -2.4 -34.75 -4.1 -33.95 -6.65 -35.7 -6.05 -37.1 -4.35 -37.05 -7.15 -36.05 -10.65 -35.1 -13.9 -33.65 -16.65 L-27.6 -17.45 Q-23.8 -21.45 -17.9 -23.75 -11.75 -26.15 -4.75 -26.15" fill="#443828" fill-rule="evenodd" stroke="none"/>
    <path d="M-7.1 21.75 Q-14.35 20.75 -17.75 23.9 -21.35 27.35 -15.65 32.35" fill="none" stroke="#745a40" stroke-linecap="round" stroke-linejoin="round" stroke-width="1.4000000000000001"/>
    <path d="M-7.45 44.0 Q-8.8 57.95 -4.35 68.2" fill="none" stroke="#af5b38" stroke-linecap="round" stroke-linejoin="round" stroke-width="1.4000000000000001"/>
    <path d="M-5.35 67.2 Q-3.05 67.8 -3.05 68.6 -3.05 69.4 -3.65 69.7 L-5.7 70.1 -15.5 70.6 Q-17.75 70.45 -17.75 68.5 -17.65 66.25 -14.75 66.1 L-10.15 66.45 -5.35 67.2" fill="#745a40" fill-rule="evenodd" stroke="none"/>
    <path d="M7.45 19.7 Q10.35 22.45 12.1 26.25 13.4 29.1 13.95 31.9 L14.35 33.6 14.65 37.1 14.5 39.55 Q14.15 42.1 13.2 43.6 11.55 46.1 7.5 47.8 L5.05 48.5 1.2 49.0 -2.6 48.75 -4.8 48.0 -6.25 47.1 -7.05 46.45 Q-8.5 45.1 -9.25 43.5 L-9.75 42.55 -10.95 38.9 -11.45 36.2 Q-11.95 32.55 -11.7 29.95 -11.5 27.1 -10.35 24.1 -7.8 17.7 -2.65 16.4 1.6 15.4 5.65 18.25 L7.45 19.7" fill="#8f7050" fill-rule="evenodd" stroke="none"/>
    <path d="M14.45 40.7 Q13.85 43.55 12.15 45.0 10.55 46.7 8.2 47.7 5.75 48.9 2.15 49.2 L-3.35 48.75 Q-6.0 47.85 -7.65 45.9 -9.3 43.95 -10.05 42.0 L-11.0 38.9 Q2.85 42.6 14.7 34.75 14.95 38.1 14.45 40.7" fill="#3772ac" fill-rule="evenodd" stroke="none"/>
  </g>
  <defs>
    <radialGradient cx="0" cy="0" gradientTransform="matrix(0.1521, 0.0, 0.0, -0.0121, -31.3, 82.9)" gradientUnits="userSpaceOnUse" id="gradient0" r="819.2" spreadMethod="pad">
      <stop offset="0.0" stop-color="#000000" stop-opacity="0.14901961"/>
      <stop offset="1.0" stop-color="#000000" stop-opacity="0.0"/>
    </radialGradient>
  </defs>
</svg>
