<?xml version="1.0" encoding="UTF-8" standalone="no"?>
<svg xmlns:ffdec="https://www.free-decompiler.com/flash" xmlns:xlink="http://www.w3.org/1999/xlink" ffdec:objectType="shape" height="32.85px" width="27.0px" xmlns="http://www.w3.org/2000/svg">
  <g transform="matrix(1.0, 0.0, 0.0, 1.0, 11.75, -16.8)">
    <path d="M3.1 16.8 Q4.25 17.25 5.55 18.2 5.1 19.4 5.1 20.9 5.1 23.45 6.65 25.4 8.15 27.25 10.5 27.25 L12.45 26.85 14.1 31.9 14.1 31.95 14.65 35.6 Q2.05 44.5 -10.85 38.85 L-11.0 38.2 -11.05 38.05 -11.45 36.15 Q-11.95 32.8 -11.65 30.0 -11.3 26.55 -10.25 24.0 -9.25 21.45 -7.65 19.45 L-6.75 20.55 Q-4.95 22.1 -2.65 22.1 -0.35 22.1 1.35 20.55 3.1 18.95 3.1 16.8" fill="#ffffff" fill-rule="evenodd" stroke="none"/>
    <path d="M14.65 41.7 Q14.2 43.5 13.15 44.85 11.75 46.25 10.35 47.1 L7.5 48.75 3.95 49.5 Q1.5 49.8 -0.65 49.5 -2.75 49.3 -5.15 48.25 -7.4 47.3 -9.25 44.25 -11.15 41.1 -11.45 38.95 -8.35 33.85 -9.35 26.2 -2.1 29.35 4.75 25.4 7.7 33.25 10.85 34.3 13.85 35.3 15.1 34.7 L15.25 37.35 14.65 41.7" fill="#af5b38" fill-rule="evenodd" stroke="none"/>
  </g>
</svg>
