<?xml version="1.0" encoding="UTF-8" standalone="no"?>
<svg xmlns:ffdec="https://www.free-decompiler.com/flash" xmlns:xlink="http://www.w3.org/1999/xlink" ffdec:objectType="shape" height="39.5px" width="59.05px" xmlns="http://www.w3.org/2000/svg">
  <g transform="matrix(1.0, 0.0, 0.0, 1.0, 29.5, 19.75)">
    <path d="M-28.75 11.7 L-28.75 9.95 -28.75 -9.95 -28.75 -11.7 Q-28.75 -19.0 -21.45 -19.0 L-14.8 -19.0 14.85 -19.0 21.5 -19.0 Q28.8 -19.0 28.8 -11.7 L28.8 -9.95 28.8 9.95 28.8 11.7 Q28.8 19.0 21.5 19.0 L14.85 19.0 -14.8 19.0 -21.45 19.0 Q-28.75 19.0 -28.75 11.7" fill="#fad92a" fill-rule="evenodd" stroke="none"/>
    <path d="M-14.7 -9.65 L-16.85 -10.0 -28.55 -11.4 Q-28.55 -18.65 -21.3 -18.65 L-14.75 -18.65 14.85 -18.65 21.35 -18.65 Q28.6 -18.65 28.6 -11.4 L16.4 -9.95 14.9 -9.75 7.15 -8.7 -0.35 -7.8 -7.7 -8.7 -14.7 -9.65" fill="url(#gradient0)" fill-rule="evenodd" stroke="none"/>
    <path d="M-28.75 11.7 Q-28.75 19.0 -21.45 19.0 L-14.8 19.0 14.85 19.0 21.5 19.0 Q28.8 19.0 28.8 11.7 L28.8 9.95 28.8 -9.95 28.8 -11.7 Q28.8 -19.0 21.5 -19.0 L14.85 -19.0 -14.8 -19.0 -21.45 -19.0 Q-28.75 -19.0 -28.75 -11.7 L-28.75 -9.95 -28.75 9.95 -28.75 11.7 Z" fill="none" stroke="#1d79c5" stroke-linecap="round" stroke-linejoin="round" stroke-opacity="0.9647059" stroke-width="1.5"/>
  </g>
  <defs>
    <linearGradient gradientTransform="matrix(0.0, 0.0153, -0.0029, 0.0, 36.05, -11.0)" gradientUnits="userSpaceOnUse" id="gradient0" spreadMethod="pad" x1="-819.2" x2="819.2">
      <stop offset="0.0" stop-color="#ffffff" stop-opacity="0.5019608"/>
      <stop offset="0.8470588235294118" stop-color="#ffffff" stop-opacity="0.0"/>
    </linearGradient>
  </defs>
</svg>
