<?xml version="1.0" encoding="UTF-8" standalone="no"?>
<svg xmlns:ffdec="https://www.free-decompiler.com/flash" xmlns:xlink="http://www.w3.org/1999/xlink" ffdec:objectType="shape" height="84.7px" width="53.3px" xmlns="http://www.w3.org/2000/svg">
  <g transform="matrix(1.0, 0.0, 0.0, 1.0, 35.95, 12.9)">
    <path d="M10.15 45.8 Q8.8 59.9 13.8 69.45" fill="none" stroke="#af5b38" stroke-linecap="round" stroke-linejoin="round" stroke-width="1.4000000000000001"/>
    <path d="M12.4 71.3 L2.65 71.8 Q0.35 71.65 0.35 69.7 0.45 67.45 3.35 67.3 L7.95 67.65 12.75 68.4 Q15.05 69.0 15.05 69.8 15.05 70.6 14.45 70.9 L12.4 71.3" fill="#745a40" fill-rule="evenodd" stroke="none"/>
    <path d="M17.35 3.15 Q17.35 9.75 9.55 14.4 1.75 19.15 -9.3 19.15 -20.45 19.15 -28.15 14.4 -35.95 9.75 -35.95 3.15 -35.95 -3.45 -28.15 -8.2 -20.4 -12.9 -9.3 -12.9 1.7 -12.9 9.55 -8.2 17.35 -3.45 17.35 3.15" fill="#8f7050" fill-rule="evenodd" stroke="none"/>
  </g>
</svg>
