<?xml version="1.0" encoding="UTF-8" standalone="no"?>
<svg xmlns:ffdec="https://www.free-decompiler.com/flash" xmlns:xlink="http://www.w3.org/1999/xlink" ffdec:objectType="shape" height="32.05px" width="53.3px" xmlns="http://www.w3.org/2000/svg">
  <g transform="matrix(1.0, 0.0, 0.0, 1.0, 0.0, 0.0)">
    <path d="M44.75 26.65 Q52.3 22.25 52.3 16.05 52.3 9.8 44.75 5.4 37.45 1.05 26.65 1.05 15.85 1.05 8.5 5.4 0.95 9.85 0.95 16.05 0.95 22.2 8.5 26.65 15.95 31.05 26.65 31.05 37.35 31.05 44.75 26.65 M45.5 27.3 Q37.7 32.05 26.65 32.05 15.5 32.05 7.8 27.3 0.0 22.65 0.0 16.05 0.0 9.45 7.8 4.7 15.55 0.0 26.65 0.0 37.65 0.0 45.5 4.7 53.3 9.45 53.3 16.05 53.3 22.65 45.5 27.3" fill="#000000" fill-rule="evenodd" stroke="none"/>
  </g>
</svg>
