<?xml version="1.0" encoding="UTF-8" standalone="no"?>
<svg xmlns:ffdec="https://www.free-decompiler.com/flash" xmlns:xlink="http://www.w3.org/1999/xlink" ffdec:objectType="shape" height="18.95px" width="50.45px" xmlns="http://www.w3.org/2000/svg">
  <g transform="matrix(1.0, 0.0, 0.0, 1.0, 34.0, 19.5)">
    <path d="M15.95 -12.3 Q13.35 -8.85 9.7 -9.85" fill="none" stroke="#000000" stroke-linecap="round" stroke-linejoin="round" stroke-width="1.05"/>
    <path d="M14.2 -16.2 Q12.35 -12.15 8.6 -12.4" fill="none" stroke="#000000" stroke-linecap="round" stroke-linejoin="round" stroke-width="1.05"/>
    <path d="M9.95 -18.0 Q8.3 -13.95 4.6 -13.9" fill="none" stroke="#000000" stroke-linecap="round" stroke-linejoin="round" stroke-width="1.05"/>
    <path d="M-33.5 -11.85 Q-31.05 -8.65 -27.85 -9.55" fill="none" stroke="#000000" stroke-linecap="round" stroke-linejoin="round" stroke-width="1.05"/>
    <path d="M-31.95 -15.3 Q-30.25 -11.75 -26.9 -11.85" fill="none" stroke="#000000" stroke-linecap="round" stroke-linejoin="round" stroke-width="1.05"/>
    <path d="M-28.1 -16.95 Q-26.65 -13.2 -23.25 -13.2" fill="none" stroke="#000000" stroke-linecap="round" stroke-linejoin="round" stroke-width="1.05"/>
    <path d="M8.2 -16.75 Q11.35 -13.95 11.35 -10.0 11.35 -6.05 8.2 -3.3 4.95 -0.55 0.45 -0.55 -4.2 -0.55 -7.3 -3.3 -10.55 -6.1 -10.55 -10.0 -10.55 -13.95 -7.3 -16.75 -4.2 -19.5 0.45 -19.5 4.95 -19.5 8.2 -16.75" fill="#ffffff" fill-rule="evenodd" stroke="none"/>
    <path d="M-17.85 -14.6 Q-15.9 -12.35 -15.9 -9.05 -15.9 -5.8 -17.85 -3.55 -19.9 -1.25 -22.65 -1.25 -25.45 -1.25 -27.45 -3.55 -29.5 -5.75 -29.5 -9.05 -29.5 -12.4 -27.45 -14.6 -25.5 -16.85 -22.65 -16.85 -19.85 -16.85 -17.85 -14.6" fill="#ffffff" fill-rule="evenodd" stroke="none"/>
    <path d="M-22.0 -7.4 Q-21.05 -7.25 -20.6 -6.45 -20.15 -5.75 -20.3 -4.9 -20.65 -3.9 -21.25 -3.5 -22.0 -3.05 -22.9 -3.2 -23.8 -3.45 -24.2 -4.2 -24.65 -4.9 -24.5 -5.8 -24.35 -6.65 -23.6 -7.1 L-22.0 -7.4" fill="#000000" fill-rule="evenodd" stroke="none"/>
    <path d="M0.35 -6.45 Q0.9 -5.55 0.65 -4.55 0.35 -3.5 -0.45 -3.0 -1.45 -2.4 -2.35 -2.7 -3.3 -2.9 -3.85 -3.85 -4.5 -4.6 -4.25 -5.7 -3.9 -6.75 -3.1 -7.25 -2.2 -7.85 -1.25 -7.55 -0.25 -7.25 0.35 -6.45" fill="#000000" fill-rule="evenodd" stroke="none"/>
  </g>
</svg>
