<?xml version="1.0" encoding="UTF-8" standalone="no"?>
<svg xmlns:ffdec="https://www.free-decompiler.com/flash" xmlns:xlink="http://www.w3.org/1999/xlink" ffdec:objectType="shape" height="18.9px" width="40.65px" xmlns="http://www.w3.org/2000/svg">
  <g transform="matrix(1.0, 0.0, 0.0, 1.0, -5.1, -0.95)">
    <path d="M11.05 3.65 L12.75 3.65 13.15 3.7 Q15.2 4.1 16.95 6.1 L16.95 6.25 17.05 6.25 17.15 6.35 17.15 6.5 17.2 6.5 17.25 6.55 17.25 6.65 17.35 6.65 17.4 6.7 17.4 6.85 17.45 6.85 17.5 6.9 17.5 7.0 17.55 7.0 17.65 7.1 17.65 7.2 17.7 7.2 17.7 7.3 17.75 7.3 17.75 7.45 17.8 7.45 17.8 7.55 17.85 7.55 17.85 7.7 17.95 7.7 17.95 7.8 18.0 7.8 18.0 8.0 18.05 8.0 18.05 8.1 18.1 8.1 18.1 8.3 18.15 8.3 18.15 8.4 18.25 8.4 18.25 8.6 18.3 8.6 18.3 8.8 18.35 8.8 18.35 9.0 18.4 9.0 18.4 9.25 18.45 9.25 18.45 9.55 18.55 9.55 18.55 9.85 18.6 9.85 18.6 10.3 18.65 10.3 18.6 12.4 Q18.35 14.75 16.9 16.6 15.35 18.5 13.15 18.95 L12.75 19.0 12.75 19.1 11.05 19.0 Q8.85 18.75 7.15 16.9 L7.05 16.9 7.05 16.8 6.9 16.6 6.85 16.6 6.85 16.5 6.7 16.4 6.65 16.4 6.65 16.25 6.6 16.2 6.55 16.2 6.55 16.1 6.45 16.0 6.4 16.0 6.4 15.9 6.35 15.85 6.3 15.85 6.3 15.7 6.25 15.65 6.15 15.65 6.15 15.55 6.1 15.55 6.1 15.4 6.05 15.4 6.05 15.3 6.0 15.3 6.0 15.2 5.95 15.2 5.95 15.05 5.85 15.05 5.85 14.95 5.8 14.95 5.8 14.75 5.75 14.75 5.75 14.65 5.7 14.65 5.7 14.45 5.65 14.45 5.65 14.35 5.55 14.35 5.55 14.15 5.5 14.15 5.5 13.9 5.45 13.9 5.45 13.75 5.4 13.75 5.4 13.5 5.35 13.5 5.35 13.2 5.25 13.2 5.25 12.9 5.2 12.9 5.2 12.4 5.15 12.4 5.15 11.4 5.1 11.35 Q5.1 8.55 6.65 6.35 L6.75 6.25 6.85 6.1 Q8.35 4.25 10.35 3.8 L10.65 3.7 11.05 3.65 M44.1 5.4 L44.15 5.4 44.2 5.45 44.2 5.6 44.25 5.6 44.4 5.7 44.4 5.8 44.45 5.8 44.5 5.9 44.5 6.0 44.55 6.0 44.55 6.1 44.65 6.1 44.7 6.2 44.7 6.3 44.75 6.3 44.75 6.4 44.8 6.4 44.8 6.55 44.85 6.55 44.85 6.65 44.95 6.65 45.0 6.7 45.0 6.85 45.05 6.85 45.05 7.0 45.1 7.0 45.1 7.15 45.15 7.15 45.15 7.3 45.25 7.3 45.25 7.45 45.3 7.45 45.3 7.6 45.35 7.6 45.35 7.8 45.4 7.8 45.4 8.0 45.45 8.0 45.45 8.2 45.55 8.2 45.55 8.4 45.6 8.4 45.6 8.7 45.65 8.7 45.65 9.05 45.7 9.05 45.7 9.4 45.75 9.4 45.7 11.4 Q45.4 14.5 42.75 16.9 40.25 19.2 37.05 19.7 L36.1 19.8 36.1 19.85 33.65 19.8 Q29.25 19.45 26.15 16.0 L26.1 16.0 26.1 15.9 25.8 15.6 25.75 15.6 25.75 15.5 25.65 15.4 25.6 15.4 25.6 15.3 25.5 15.2 25.45 15.2 25.45 15.05 25.35 15.0 25.3 15.0 25.3 14.9 25.25 14.8 25.2 14.8 25.2 14.7 25.15 14.7 25.15 14.6 25.05 14.5 25.0 14.5 25.0 14.4 24.95 14.4 24.95 14.3 24.9 14.3 24.9 14.15 24.85 14.15 24.85 14.05 24.75 14.05 24.75 13.9 24.7 13.9 24.7 13.8 24.65 13.8 24.65 13.6 24.6 13.6 24.6 13.5 24.55 13.5 24.55 13.4 24.45 13.4 24.45 13.2 24.4 13.2 24.4 13.0 24.35 13.0 24.35 12.85 24.3 12.85 24.3 12.6 24.25 12.6 24.25 12.4 24.15 12.4 24.15 12.1 24.1 12.1 24.1 11.75 24.05 11.75 24.05 11.4 24.0 11.4 24.0 10.45 23.95 10.4 Q23.95 6.45 27.45 3.5 L27.6 3.4 27.75 3.25 Q30.1 1.55 32.7 1.1 L33.65 0.95 36.1 0.95 37.05 1.1 Q40.7 1.65 43.5 4.55 L43.5 4.7 43.55 4.7 43.9 5.05 43.9 5.15 43.95 5.15 44.1 5.3 44.1 5.4" fill="#ff0000" fill-rule="evenodd" stroke="none"/>
  </g>
</svg>
