<?xml version="1.0" encoding="UTF-8" standalone="no"?>
<svg xmlns:ffdec="https://www.free-decompiler.com/flash" xmlns:xlink="http://www.w3.org/1999/xlink" ffdec:objectType="shape" height="29.1px" width="29.15px" xmlns="http://www.w3.org/2000/svg">
  <g transform="matrix(1.0, 0.0, 0.0, 1.0, 14.6, 14.95)">
    <path d="M-8.85 -9.3 Q-5.15 -13.0 -0.05 -13.0 5.2 -13.0 8.85 -9.3 11.5 -6.65 12.35 -3.15 -0.95 6.05 -12.2 -3.15 -11.5 -6.65 -8.85 -9.3" fill="url(#gradient0)" fill-rule="evenodd" stroke="none"/>
    <path d="M-9.8 9.35 Q-13.85 5.3 -13.85 -0.4 -13.85 -6.1 -9.8 -10.15 -5.75 -14.2 0.0 -14.2 5.7 -14.2 9.75 -10.15 13.8 -6.1 13.8 -0.4 13.8 5.3 9.75 9.35 5.7 13.4 0.0 13.4 -5.75 13.4 -9.8 9.35 Z" fill="none" stroke="#1d79c5" stroke-linecap="round" stroke-linejoin="round" stroke-width="1.5"/>
    <path d="M5.5 5.45 L0.05 0.0 -5.4 5.45 M-5.4 -5.45 L0.05 0.0 5.5 -5.45" fill="none" stroke="#000000" stroke-linecap="round" stroke-linejoin="miter-clip" stroke-miterlimit="4.0" stroke-opacity="0.4" stroke-width="3.0"/>
  </g>
  <defs>
    <linearGradient gradientTransform="matrix(1.0E-4, 0.0134, -0.0088, 1.0E-4, -0.15, -5.1)" gradientUnits="userSpaceOnUse" id="gradient0" spreadMethod="pad" x1="-819.2" x2="819.2">
      <stop offset="0.0" stop-color="#ffffff"/>
      <stop offset="0.8470588235294118" stop-color="#ffffff" stop-opacity="0.0"/>
    </linearGradient>
  </defs>
</svg>
