<?xml version="1.0" encoding="UTF-8" standalone="no"?>
<svg xmlns:ffdec="https://www.free-decompiler.com/flash" xmlns:xlink="http://www.w3.org/1999/xlink" ffdec:objectType="shape" height="24.9px" width="45.9px" xmlns="http://www.w3.org/2000/svg">
  <g transform="matrix(1.0, 0.0, 0.0, 1.0, 30.95, 41.85)">
    <path d="M-2.05 -31.7 Q-0.95 -26.85 -0.6 -20.8 L-16.5 -20.8 Q-16.3 -26.45 -14.95 -31.1 -14.05 -34.2 -11.15 -41.15 L-4.85 -41.4 Q-2.7 -34.5 -2.05 -31.7 M-13.95 -40.75 Q-16.65 -35.35 -17.85 -31.2 -19.3 -26.2 -19.65 -19.65 L-30.95 -16.95 Q-28.55 -35.8 -13.95 -40.75 M1.4 -31.0 Q0.3 -35.55 -2.25 -40.85 5.45 -38.3 9.6 -33.05 13.9 -27.55 14.95 -18.2 L2.8 -19.15 Q2.7 -25.8 1.4 -31.0" fill="#e8bb0d" fill-rule="evenodd" stroke="none"/>
  </g>
</svg>
