<?xml version="1.0" encoding="UTF-8" standalone="no"?>
<svg xmlns:ffdec="https://www.free-decompiler.com/flash" xmlns:xlink="http://www.w3.org/1999/xlink" ffdec:objectType="shape" height="26.05px" width="47.0px" xmlns="http://www.w3.org/2000/svg">
  <g transform="matrix(1.0, 0.0, 0.0, 1.0, 0.05, 0.0)">
    <path d="M41.05 9.3 Q36.9 4.05 29.2 1.5 31.75 6.8 32.85 11.35 34.15 16.55 34.25 23.2 L46.4 24.15 Q45.35 14.8 41.05 9.3 M29.4 10.65 Q30.5 15.5 30.85 21.55 L14.95 21.55 Q15.15 15.9 16.5 11.25 17.4 8.15 20.3 1.2 L26.6 0.95 29.4 10.65 M17.5 1.6 Q2.9 6.55 0.5 25.4 L11.8 22.7 Q12.15 16.15 13.6 11.15 14.8 7.0 17.5 1.6 Z" fill="none" stroke="#000000" stroke-linecap="butt" stroke-linejoin="miter-clip" stroke-miterlimit="4.0" stroke-opacity="0.29803923" stroke-width="1.0"/>
  </g>
</svg>
