<?xml version="1.0" encoding="UTF-8" standalone="no"?>
<svg xmlns:ffdec="https://www.free-decompiler.com/flash" xmlns:xlink="http://www.w3.org/1999/xlink" ffdec:objectType="shape" height="19.9px" width="38.2px" xmlns="http://www.w3.org/2000/svg">
  <g transform="matrix(1.0, 0.0, 0.0, 1.0, 17.25, -18.4)">
    <path d="M7.95 21.3 Q14.0 17.75 17.85 19.95 22.1 22.3 18.75 30.1" fill="none" stroke="#745a40" stroke-linecap="round" stroke-linejoin="round" stroke-width="1.4000000000000001"/>
    <path d="M13.55 29.4 Q14.7 28.25 16.25 28.25 17.8 28.25 18.9 29.4 20.05 30.45 20.05 32.05 20.05 33.55 18.9 34.7 17.8 35.8 16.25 35.8 14.7 35.8 13.55 34.7 12.45 33.5 12.45 32.05 12.45 30.5 13.55 29.4" fill="#745a40" fill-rule="evenodd" stroke="none"/>
    <path d="M-16.15 31.85 Q-15.0 30.75 -13.45 30.75 -11.9 30.75 -10.8 31.85 -9.65 33.0 -9.65 34.5 -9.65 36.1 -10.8 37.15 -11.9 38.3 -13.45 38.3 -15.0 38.3 -16.15 37.15 -17.25 36.05 -17.25 34.5 -17.25 33.05 -16.15 31.85" fill="#8f7050" fill-rule="evenodd" stroke="none"/>
  </g>
</svg>
