<?xml version="1.0" encoding="UTF-8" standalone="no"?>
<svg xmlns:ffdec="https://www.free-decompiler.com/flash" xmlns:xlink="http://www.w3.org/1999/xlink" ffdec:objectType="shape" height="145.5px" width="87.2px" xmlns="http://www.w3.org/2000/svg">
  <g transform="matrix(1.0, 0.0, 0.0, 1.0, 140.25, 134.5)">
    <path d="M-54.05 -129.5 L-54.05 6.0 Q-54.05 7.65 -55.2 8.85 -56.4 10.0 -58.05 10.0 L-135.25 10.0 Q-136.9 10.0 -138.05 8.85 -139.25 7.65 -139.25 6.0 L-139.25 -129.5 Q-139.25 -131.15 -138.05 -132.3 -136.9 -133.5 -135.25 -133.5 L-58.05 -133.5 Q-56.4 -133.5 -55.2 -132.3 -54.05 -131.15 -54.05 -129.5" fill="#f4edac" fill-rule="evenodd" stroke="none"/>
    <path d="M-54.05 -129.5 L-54.05 6.0 Q-54.05 7.65 -55.2 8.85 -56.4 10.0 -58.05 10.0 L-135.25 10.0 Q-136.9 10.0 -138.05 8.85 -139.25 7.65 -139.25 6.0 L-139.25 -129.5 Q-139.25 -131.15 -138.05 -132.3 -136.9 -133.5 -135.25 -133.5 L-58.05 -133.5 Q-56.4 -133.5 -55.2 -132.3 -54.05 -131.15 -54.05 -129.5 Z" fill="none" stroke="#938767" stroke-linecap="butt" stroke-linejoin="miter-clip" stroke-miterlimit="4.0" stroke-width="1.0"/>
    <path d="M-54.05 -129.5 L-54.05 6.0 Q-54.05 7.65 -55.2 8.85 -56.4 10.0 -58.05 10.0 L-135.25 10.0 Q-136.9 10.0 -138.05 8.85 -139.25 7.65 -139.25 6.0 L-139.25 -129.5 Q-139.25 -131.15 -138.05 -132.3 -136.9 -133.5 -135.25 -133.5 L-58.05 -133.5 Q-56.4 -133.5 -55.2 -132.3 -54.05 -131.15 -54.05 -129.5" fill="#f4edac" fill-rule="evenodd" stroke="none"/>
    <path d="M-58.05 -134.5 Q-56.0 -134.5 -54.5 -133.05 -53.05 -131.55 -53.05 -129.5 L-53.05 6.0 Q-53.05 8.05 -54.5 9.55 -56.0 11.0 -58.05 11.0 L-135.25 11.0 Q-137.3 11.0 -138.8 9.55 -140.25 8.05 -140.25 6.0 L-140.25 -129.5 Q-140.25 -131.55 -138.8 -133.05 -137.3 -134.5 -135.25 -134.5 L-58.05 -134.5 M-54.05 -129.5 Q-54.05 -131.15 -55.2 -132.3 -56.4 -133.5 -58.05 -133.5 L-135.25 -133.5 Q-136.9 -133.5 -138.05 -132.3 -139.25 -131.15 -139.25 -129.5 L-139.25 6.0 Q-139.25 7.65 -138.05 8.85 -136.9 10.0 -135.25 10.0 L-58.05 10.0 Q-56.4 10.0 -55.2 8.85 -54.05 7.65 -54.05 6.0 L-54.05 -129.5" fill="#887d5e" fill-rule="evenodd" stroke="none"/>
    <path d="M-58.05 -133.0 Q-56.6 -133.0 -55.55 -131.95 -54.55 -130.95 -54.55 -129.5 L-54.55 6.0 Q-54.55 7.45 -55.55 8.45 -56.6 9.5 -58.05 9.5 L-135.25 9.5 Q-136.65 9.5 -137.7 8.45 -138.75 7.45 -138.75 6.0 L-138.75 -129.5 Q-138.75 -130.9 -137.7 -131.95 -136.65 -133.0 -135.25 -133.0 L-58.05 -133.0 M-56.05 -129.5 Q-56.05 -130.3 -56.65 -130.9 -57.2 -131.5 -58.05 -131.5 L-135.25 -131.5 Q-136.05 -131.5 -136.65 -130.9 -137.25 -130.3 -137.25 -129.5 L-137.25 6.0 Q-137.25 6.85 -136.65 7.4 -136.05 8.0 -135.25 8.0 L-58.05 8.0 Q-57.2 8.0 -56.65 7.4 -56.05 6.85 -56.05 6.0 L-56.05 -129.5" fill="#fff9da" fill-rule="evenodd" stroke="none"/>
    <path d="M-80.65 -118.7 L-80.4 -118.5 Q-74.75 -114.5 -71.6 -108.4 -68.4 -102.25 -68.4 -95.35 -68.4 -88.0 -71.9 -81.6 -75.45 -75.25 -81.7 -71.35 L-81.95 -71.2 -111.5 -71.2 -111.75 -71.35 Q-118.0 -75.25 -121.55 -81.6 -125.05 -88.0 -125.05 -95.35 -125.05 -102.25 -121.85 -108.4 -118.7 -114.5 -113.05 -118.5 L-112.8 -118.7 -80.65 -118.7 M-72.9 -81.9 Q-69.4 -88.15 -69.4 -95.35 -69.4 -102.2 -72.55 -108.15 -75.6 -113.9 -81.0 -117.7 L-112.45 -117.7 Q-117.85 -113.9 -120.9 -108.15 -124.05 -102.2 -124.05 -95.35 -124.05 -88.15 -120.55 -81.9 -117.1 -75.85 -111.25 -72.2 L-82.25 -72.2 Q-76.35 -75.85 -72.9 -81.9" fill="#c6b485" fill-rule="evenodd" stroke="none"/>
    <path d="M-81.0 -117.7 Q-75.6 -113.9 -72.55 -108.15 -69.4 -102.2 -69.4 -95.35 -69.4 -88.15 -72.9 -81.9 -76.35 -75.85 -82.25 -72.2 L-111.25 -72.2 Q-117.1 -75.85 -120.55 -81.9 -124.05 -88.15 -124.05 -95.35 -124.05 -102.2 -120.9 -108.15 -117.85 -113.9 -112.45 -117.7 L-81.0 -117.7 M-74.0 -83.0 Q-70.9 -88.75 -70.9 -95.35 -70.9 -101.5 -73.7 -107.0 -76.5 -112.5 -81.45 -116.2 L-112.0 -116.2 Q-116.95 -112.5 -119.75 -107.0 -122.55 -101.5 -122.55 -95.35 -122.55 -88.75 -119.45 -83.0 -116.3 -77.3 -110.8 -73.7 L-82.65 -73.7 Q-77.15 -77.3 -74.0 -83.0" fill="#fff9da" fill-rule="evenodd" stroke="none"/>
  </g>
</svg>
