<?xml version="1.0" encoding="UTF-8" standalone="no"?>
<svg xmlns:ffdec="https://www.free-decompiler.com/flash" xmlns:xlink="http://www.w3.org/1999/xlink" ffdec:objectType="shape" height="98.2px" width="56.65px" xmlns="http://www.w3.org/2000/svg">
  <g transform="matrix(1.0, 0.0, 0.0, 1.0, 124.05, 104.9)">
    <path d="M-87.45 -84.75 L-89.65 -84.75 Q-90.45 -84.75 -91.05 -85.35 -91.65 -85.9 -91.65 -86.75 L-91.65 -102.9 Q-91.65 -103.7 -91.05 -104.3 -90.45 -104.9 -89.65 -104.9 L-87.45 -104.9 Q-86.6 -104.9 -86.05 -104.3 -85.45 -103.7 -85.45 -102.9 L-85.45 -86.75 Q-85.45 -85.9 -86.05 -85.35 -86.6 -84.75 -87.45 -84.75" fill="#423b2a" fill-rule="evenodd" stroke="none"/>
    <path d="M-124.05 -30.85 Q-124.05 -37.75 -120.85 -43.9 -117.7 -50.0 -112.05 -54.0 L-111.8 -54.2 -79.65 -54.2 -79.4 -54.0 Q-73.75 -50.0 -70.6 -43.9 -67.4 -37.75 -67.4 -30.85 -67.4 -23.5 -70.9 -17.1 -74.45 -10.75 -80.7 -6.85 L-80.95 -6.7 -110.5 -6.7 -110.75 -6.85 Q-117.0 -10.75 -120.55 -17.1 -124.05 -23.5 -124.05 -30.85 M-111.45 -53.2 Q-116.85 -49.4 -119.9 -43.65 -123.05 -37.7 -123.05 -30.85 -123.05 -23.65 -119.55 -17.4 -116.1 -11.35 -110.25 -7.7 L-81.25 -7.7 Q-75.35 -11.35 -71.9 -17.4 -68.4 -23.65 -68.4 -30.85 -68.4 -37.7 -71.55 -43.65 -74.6 -49.4 -80.0 -53.2 L-111.45 -53.2" fill="#c6b485" fill-rule="evenodd" stroke="none"/>
    <path d="M-123.05 -30.85 Q-123.05 -37.7 -119.9 -43.65 -116.85 -49.4 -111.45 -53.2 L-80.0 -53.2 Q-74.6 -49.4 -71.55 -43.65 -68.4 -37.7 -68.4 -30.85 -68.4 -23.65 -71.9 -17.4 -75.35 -11.35 -81.25 -7.7 L-110.25 -7.7 Q-116.1 -11.35 -119.55 -17.4 -123.05 -23.65 -123.05 -30.85 M-111.0 -51.7 Q-115.95 -48.0 -118.75 -42.5 -121.55 -37.0 -121.55 -30.85 -121.55 -24.25 -118.45 -18.5 -115.3 -12.8 -109.8 -9.2 L-81.65 -9.2 Q-76.15 -12.8 -73.0 -18.5 -69.9 -24.25 -69.9 -30.85 -69.9 -37.0 -72.7 -42.5 -75.5 -48.0 -80.45 -51.7 L-111.0 -51.7" fill="#fff9da" fill-rule="evenodd" stroke="none"/>
  </g>
</svg>
