<?xml version="1.0" encoding="UTF-8" standalone="no"?>
<svg xmlns:ffdec="https://www.free-decompiler.com/flash" xmlns:xlink="http://www.w3.org/1999/xlink" ffdec:objectType="shape" height="45.95px" width="16.3px" xmlns="http://www.w3.org/2000/svg">
  <g transform="matrix(1.0, 0.0, 0.0, 1.0, 100.75, 66.2)">
    <path d="M-90.05 -39.8 Q-89.45 -40.4 -88.65 -40.4 L-86.45 -40.4 Q-85.6 -40.4 -85.05 -39.8 -84.45 -39.2 -84.45 -38.4 L-84.45 -22.25 Q-84.45 -21.4 -85.05 -20.85 -85.6 -20.25 -86.45 -20.25 L-88.65 -20.25 Q-89.45 -20.25 -90.05 -20.85 -90.65 -21.4 -90.65 -22.25 L-90.65 -38.4 Q-90.65 -39.2 -90.05 -39.8" fill="#423b2a" fill-rule="evenodd" stroke="none"/>
    <path d="M-91.75 -61.45 Q-91.75 -59.7 -93.0 -58.45 -94.25 -57.2 -96.0 -57.2 -97.75 -57.2 -99.0 -58.45 -100.25 -59.7 -100.25 -61.45 -100.25 -63.2 -99.0 -64.45 -97.75 -65.7 -96.0 -65.7 -94.25 -65.7 -93.0 -64.45 -91.75 -63.2 -91.75 -61.45" fill="#f4edac" fill-rule="evenodd" stroke="none"/>
    <path d="M-91.75 -61.45 Q-91.75 -59.7 -93.0 -58.45 -94.25 -57.2 -96.0 -57.2 -97.75 -57.2 -99.0 -58.45 -100.25 -59.7 -100.25 -61.45 -100.25 -63.2 -99.0 -64.45 -97.75 -65.7 -96.0 -65.7 -94.25 -65.7 -93.0 -64.45 -91.75 -63.2 -91.75 -61.45 Z" fill="none" stroke="#938767" stroke-linecap="butt" stroke-linejoin="miter-clip" stroke-miterlimit="4.0" stroke-width="1.0"/>
    <path d="M-96.0 -58.7 Q-97.15 -58.7 -97.95 -59.5 -98.75 -60.3 -98.75 -61.45 -98.75 -62.55 -97.95 -63.4 -97.1 -64.2 -96.0 -64.2 -94.85 -64.2 -94.05 -63.4 -93.25 -62.6 -93.25 -61.45 -93.25 -60.3 -94.05 -59.5 -94.85 -58.7 -96.0 -58.7 Z" fill="none" stroke="#fff9da" stroke-linecap="butt" stroke-linejoin="miter-clip" stroke-miterlimit="4.0" stroke-width="1.5"/>
    <path d="M-93.05 -64.7 L-98.9 -58.85" fill="none" stroke="#938767" stroke-linecap="butt" stroke-linejoin="miter-clip" stroke-miterlimit="4.0" stroke-width="1.0"/>
  </g>
</svg>
