<?xml version="1.0" encoding="UTF-8" standalone="no"?>
<svg xmlns:ffdec="https://www.free-decompiler.com/flash" xmlns:xlink="http://www.w3.org/1999/xlink" ffdec:objectType="shape" height="140.8px" width="323.25px" xmlns="http://www.w3.org/2000/svg">
  <g transform="matrix(1.0, 0.0, 0.0, 1.0, 152.45, 6.35)">
    <path d="M114.6 63.35 Q128.2 63.85 141.95 66.3 L141.95 78.5 Q128.35 75.9 115.1 75.35 103.9 74.9 88.6 75.8 79.5 76.35 61.45 76.05 48.7 75.85 42.7 76.0 L24.65 77.3 Q7.35 79.7 -12.6 78.1 -27.35 76.9 -47.7 73.0 -61.2 70.45 -74.35 69.35 L-73.35 57.4 Q-59.35 58.6 -45.45 61.25 -24.7 65.2 -10.25 66.3 7.35 67.6 23.0 65.45 L42.35 64.0 Q48.85 63.85 61.65 64.05 79.2 64.35 87.9 63.85 103.1 62.95 114.6 63.35" fill="#2e2a27" fill-rule="evenodd" stroke="none"/>
    <path d="M114.6 63.35 Q103.1 62.95 87.9 63.85 79.2 64.35 61.65 64.05 48.85 63.85 42.35 64.0 L23.0 65.45 Q7.35 67.6 -10.25 66.3 -24.7 65.2 -45.45 61.25 -59.35 58.6 -73.35 57.4 L-74.35 69.35 Q-61.2 70.45 -47.7 73.0 -27.35 76.9 -12.6 78.1 7.35 79.7 24.65 77.3 L42.7 76.0 Q48.7 75.85 61.45 76.05 79.5 76.35 88.6 75.8 103.9 74.9 115.1 75.35 128.35 75.9 141.95 78.5 L141.95 66.3 Q128.2 63.85 114.6 63.35 Z" fill="none" stroke="#12100f" stroke-linecap="butt" stroke-linejoin="miter-clip" stroke-miterlimit="4.0" stroke-width="1.0"/>
    <path d="M136.5 75.5 L131.6 74.55 126.6 74.0 Q87.6 73.75 68.1 73.9 L9.6 76.0 Q-7.0 77.35 -27.4 74.65 -38.9 73.1 -64.4 68.0 L-71.4 68.0 Q-71.4 67.5 -71.9 67.0 -72.4 66.5 -72.4 66.0 -73.05 64.7 -72.65 62.95 L-71.5 59.55" fill="none" stroke="#000000" stroke-linecap="butt" stroke-linejoin="miter-clip" stroke-miterlimit="4.0" stroke-opacity="0.14901961" stroke-width="3.0"/>
    <path d="M-71.5 59.55 Q-68.4 59.2 -64.4 60.2 L-57.4 62.0 -34.3 65.15 -11.4 67.75 Q14.55 69.9 34.6 66.0 42.85 66.25 85.6 65.45 116.65 64.85 136.4 67.4" fill="none" stroke="#ffffff" stroke-linecap="butt" stroke-linejoin="miter-clip" stroke-miterlimit="4.0" stroke-opacity="0.14901961" stroke-width="3.0"/>
    <path d="M-145.05 59.1 Q-144.05 60.25 -142.55 60.4 -141.05 60.55 -139.85 59.55 -138.7 58.6 -138.55 57.05 -138.45 55.55 -139.4 54.4 -140.4 53.2 -141.9 53.1 -143.4 52.95 -144.55 53.95 -145.75 54.9 -145.9 56.4 -146.0 57.95 -145.05 59.1 M-110.15 51.8 L-111.55 67.4 -148.35 64.05 Q-149.3 61.4 -151.7 60.0 L-151.0 51.85 Q-148.45 50.95 -146.9 48.45 L-110.15 51.8" fill="#87857a" fill-rule="evenodd" stroke="none"/>
    <path d="M-110.15 51.8 L-146.9 48.45 Q-148.45 50.95 -151.0 51.85 L-151.7 60.0 Q-149.3 61.4 -148.35 64.05 L-111.55 67.4 -110.15 51.8 M-145.05 59.1 Q-146.0 57.95 -145.9 56.4 -145.75 54.9 -144.55 53.95 -143.4 52.95 -141.9 53.1 -140.4 53.2 -139.4 54.4 -138.45 55.55 -138.55 57.05 -138.7 58.6 -139.85 59.55 -141.05 60.55 -142.55 60.4 -144.05 60.25 -145.05 59.1 Z" fill="none" stroke="#403e39" stroke-linecap="butt" stroke-linejoin="round" stroke-width="1.5"/>
    <path d="M-112.45 66.3 L-147.65 63.1 Q-148.6 60.95 -150.65 59.45 L-150.05 52.55 Q-147.75 51.5 -146.4 49.5 L-111.25 52.7 -112.45 66.3 M-145.2 53.15 Q-146.7 54.4 -146.85 56.3 -147.05 58.25 -145.8 59.75 -144.55 61.2 -142.65 61.4 -140.7 61.55 -139.25 60.35 -137.75 59.1 -137.6 57.15 -137.4 55.25 -138.65 53.75 -139.9 52.3 -141.8 52.1 -143.7 51.9 -145.2 53.15 Z" fill="none" stroke="#ffffff" stroke-linecap="butt" stroke-linejoin="round" stroke-opacity="0.29803923" stroke-width="1.0"/>
    <path d="M-56.8 74.15 L-99.45 72.05 -97.4 49.4 -55.05 55.0 -56.8 74.15" fill="#2e2b20" fill-rule="evenodd" stroke="none"/>
    <path d="M-56.8 74.15 L-99.45 72.05 -97.4 49.4 -55.05 55.0 -56.8 74.15 Z" fill="none" stroke="#1a1816" stroke-linecap="butt" stroke-linejoin="round" stroke-width="1.0"/>
    <path d="M-57.7 73.1 L-98.35 71.1 -96.45 50.5 -56.15 55.85 -57.7 73.1 Z" fill="none" stroke="#ffffff" stroke-linecap="butt" stroke-linejoin="round" stroke-opacity="0.2" stroke-width="1.0"/>
    <path d="M-71.6 75.65 L-83.95 75.25 -83.9 73.45 -88.4 73.4 -88.45 75.1 -91.7 74.95 -91.65 73.35 -96.15 73.25 -96.2 74.8 -100.65 74.65 -100.6 73.15 -105.1 73.1 -105.15 74.5 -116.3 74.15 -113.6 44.35 -69.35 50.85 -71.6 75.65" fill="#2e2b20" fill-rule="evenodd" stroke="none"/>
    <path d="M-71.6 75.65 L-69.35 50.85 -113.6 44.35 -116.3 74.15 -105.15 74.5 -105.1 73.1 -100.6 73.15 -100.65 74.65 -96.2 74.8 -96.15 73.25 -91.65 73.35 -91.7 74.95 -88.45 75.1 -88.4 73.4 -83.9 73.45 -83.95 75.25 -71.6 75.65 Z" fill="none" stroke="#1a1816" stroke-linecap="butt" stroke-linejoin="round" stroke-width="1.0"/>
    <path d="M-82.9 72.5 L-89.4 72.35 -89.45 74.05 -90.7 74.0 -90.65 72.35 -97.15 72.25 -97.15 73.8 -99.6 73.7 -99.6 72.2 -106.1 72.05 -106.1 73.5 -115.2 73.15 -112.7 45.5 -70.45 51.7 -72.55 74.6 -82.95 74.25 -82.9 72.5 Z" fill="none" stroke="#ffffff" stroke-linecap="butt" stroke-linejoin="round" stroke-opacity="0.2" stroke-width="1.0"/>
    <path d="M-107.2 38.8 L-111.0 80.7 -118.65 80.05 -114.85 38.1 -107.2 38.8" fill="#2e2b20" fill-rule="evenodd" stroke="none"/>
    <path d="M-107.2 38.8 L-111.0 80.7 -118.65 80.05 -114.85 38.1 -107.2 38.8 Z" fill="none" stroke="#1a1816" stroke-linecap="butt" stroke-linejoin="round" stroke-width="1.0"/>
    <path d="M-108.3 39.7 L-111.9 79.65 -117.55 79.1 -113.95 39.2 -108.3 39.7 Z" fill="none" stroke="#ffffff" stroke-linecap="butt" stroke-linejoin="round" stroke-opacity="0.2" stroke-width="1.0"/>
    <path d="M-68.05 46.3 L-71.1 80.35 -78.75 79.65 -75.65 45.65 -68.05 46.3" fill="#2e2b20" fill-rule="evenodd" stroke="none"/>
    <path d="M-68.05 46.3 L-71.1 80.35 -78.75 79.65 -75.65 45.65 -68.05 46.3 Z" fill="none" stroke="#1a1816" stroke-linecap="butt" stroke-linejoin="round" stroke-width="1.0"/>
    <path d="M-69.1 47.25 L-72.0 79.25 -77.65 78.75 -74.75 46.7 -69.1 47.25 Z" fill="none" stroke="#ffffff" stroke-linecap="butt" stroke-linejoin="round" stroke-opacity="0.2" stroke-width="1.0"/>
    <path d="M-55.05 55.0 L-68.65 53.2 -68.05 46.3 -75.65 45.65 -76.05 49.85 -107.8 45.2 -107.2 38.8 -114.85 38.1 -118.65 80.05 -111.0 80.7 -110.45 74.35 -105.15 74.5 -105.1 73.1 -100.6 73.15 -100.65 74.65 -96.2 74.8 -96.15 73.25 -91.65 73.35 -91.7 74.95 -88.45 75.1 -88.4 73.4 -83.9 73.45 -83.95 75.25 -78.35 75.4 -78.75 79.65 -71.1 80.35 -70.5 73.5 -56.8 74.15 -55.05 55.0 M-67.25 45.7 Q-67.0 46.05 -67.05 46.4 L-67.55 52.35 -54.9 54.0 Q-54.5 54.05 -54.25 54.35 -54.0 54.7 -54.05 55.1 L-55.8 74.25 Q-55.9 75.15 -56.8 75.15 L-56.85 75.15 -69.6 74.55 -70.1 80.45 -70.45 81.1 -71.1 81.35 -71.2 81.35 -78.85 80.65 -79.5 80.3 -79.75 79.55 -79.45 76.4 -84.0 76.25 Q-84.95 76.15 -84.95 75.2 L-84.95 74.45 -87.45 74.4 -87.45 75.1 Q-87.45 75.5 -87.75 75.8 L-88.45 76.1 -88.5 76.05 -91.75 75.95 -92.4 75.65 -92.7 74.95 -92.7 74.3 -95.2 74.25 -95.2 74.85 Q-95.2 75.25 -95.5 75.55 L-96.2 75.8 -100.65 75.65 -101.35 75.35 -101.65 74.65 -101.6 74.15 -104.1 74.1 -104.15 74.55 Q-104.15 74.95 -104.45 75.25 L-105.15 75.5 -109.55 75.35 -110.0 80.8 Q-110.1 81.7 -111.0 81.7 L-111.1 81.7 -118.75 81.0 Q-119.15 81.0 -119.4 80.65 L-119.65 79.95 -115.85 38.0 -115.5 37.35 Q-115.2 37.1 -114.85 37.1 L-114.75 37.1 -107.15 37.8 Q-106.65 37.9 -106.45 38.15 -106.15 38.5 -106.25 38.9 L-106.7 44.35 -76.95 48.75 -76.65 45.55 Q-76.55 44.65 -75.65 44.65 L-75.6 44.65 -67.95 45.35 Q-67.6 45.35 -67.25 45.7" fill="#1a1816" fill-rule="evenodd" stroke="none"/>
    <path d="M-98.2 51.7 L-99.8 69.8 -104.95 69.35 -103.35 51.25 -98.2 51.7" fill="#2e2b20" fill-rule="evenodd" stroke="none"/>
    <path d="M-98.2 51.7 L-103.35 51.25 -104.95 69.35 -99.8 69.8 -98.2 51.7 Z" fill="none" stroke="#211f1c" stroke-linecap="butt" stroke-linejoin="round" stroke-width="1.0"/>
    <path d="M-89.4 52.5 L-90.95 69.6 -96.1 69.15 -94.55 52.05 -89.4 52.5" fill="#2e2b20" fill-rule="evenodd" stroke="none"/>
    <path d="M-89.4 52.5 L-94.55 52.05 -96.1 69.15 -90.95 69.6 -89.4 52.5 Z" fill="none" stroke="#211f1c" stroke-linecap="butt" stroke-linejoin="round" stroke-width="1.0"/>
    <path d="M-81.9 53.2 L-83.45 70.1 -88.6 69.65 -87.05 52.7 -81.9 53.2" fill="#2e2b20" fill-rule="evenodd" stroke="none"/>
    <path d="M-81.9 53.2 L-87.05 52.7 -88.6 69.65 -83.45 70.1 -81.9 53.2 Z" fill="none" stroke="#211f1c" stroke-linecap="butt" stroke-linejoin="round" stroke-width="1.0"/>
    <path d="M28.05 70.45 L112.75 -6.35 170.8 57.65 86.1 134.45 28.05 70.45" fill="url(#gradient0)" fill-rule="evenodd" stroke="none"/>
  </g>
  <defs>
    <linearGradient gradientTransform="matrix(0.0517, -0.0469, -0.0551, -0.0608, 99.45, 64.05)" gradientUnits="userSpaceOnUse" id="gradient0" spreadMethod="pad" x1="-819.2" x2="819.2">
      <stop offset="0.28627450980392155" stop-color="#3695ff" stop-opacity="0.0"/>
      <stop offset="0.7450980392156863" stop-color="#3695ff"/>
    </linearGradient>
  </defs>
</svg>
