<?xml version="1.0" encoding="UTF-8" standalone="no"?>
<svg xmlns:ffdec="https://www.free-decompiler.com/flash" xmlns:xlink="http://www.w3.org/1999/xlink" ffdec:objectType="shape" height="420.0px" width="315.0px" xmlns="http://www.w3.org/2000/svg">
  <g transform="matrix(1.0, 0.0, 0.0, 1.0, 16.9, 10.35)">
    <path d="M158.1 -10.35 L158.1 24.65 193.1 24.65 193.1 -10.35 228.1 -10.35 228.1 24.65 263.1 24.65 263.1 -10.35 298.1 -10.35 298.1 24.65 263.1 24.65 263.1 59.65 298.1 59.65 298.1 94.65 263.1 94.65 263.1 129.65 298.1 129.65 298.1 164.65 263.1 164.65 263.1 199.65 298.1 199.65 298.1 234.65 263.1 234.65 263.1 269.65 298.1 269.65 298.1 304.65 263.1 304.65 263.1 339.65 298.1 339.65 298.1 374.65 263.1 374.65 263.1 409.65 228.1 409.65 228.1 374.65 193.1 374.65 193.1 409.65 158.1 409.65 158.1 374.65 123.1 374.65 123.1 409.65 88.1 409.65 88.1 374.65 53.1 374.65 53.1 409.65 18.1 409.65 18.1 374.65 -16.9 374.65 -16.9 339.65 18.1 339.65 18.1 304.65 -16.9 304.65 -16.9 269.65 18.1 269.65 18.1 234.65 -16.9 234.65 -16.9 199.65 18.1 199.65 18.1 164.65 -16.9 164.65 -16.9 129.65 18.1 129.65 18.1 94.65 -16.9 94.65 -16.9 59.65 18.1 59.65 18.1 24.65 -16.9 24.65 -16.9 -10.35 18.1 -10.35 18.1 24.65 53.1 24.65 53.1 -10.35 88.1 -10.35 88.1 24.65 123.1 24.65 123.1 -10.35 158.1 -10.35 M263.1 59.65 L228.1 59.65 228.1 94.65 263.1 94.65 263.1 59.65 M193.1 59.65 L158.1 59.65 158.1 94.65 193.1 94.65 193.1 59.65 228.1 59.65 228.1 24.65 193.1 24.65 193.1 59.65 M193.1 94.65 L193.1 129.65 228.1 129.65 228.1 94.65 193.1 94.65 M193.1 164.65 L193.1 199.65 158.1 199.65 158.1 164.65 193.1 164.65 193.1 129.65 158.1 129.65 158.1 164.65 123.1 164.65 123.1 199.65 158.1 199.65 158.1 234.65 193.1 234.65 193.1 199.65 228.1 199.65 228.1 164.65 193.1 164.65 M228.1 199.65 L228.1 234.65 193.1 234.65 193.1 269.65 158.1 269.65 158.1 234.65 123.1 234.65 123.1 199.65 88.1 199.65 88.1 164.65 123.1 164.65 123.1 129.65 158.1 129.65 158.1 94.65 123.1 94.65 123.1 59.65 158.1 59.65 158.1 24.65 123.1 24.65 123.1 59.65 88.1 59.65 88.1 24.65 53.1 24.65 53.1 59.65 18.1 59.65 18.1 94.65 53.1 94.65 53.1 129.65 18.1 129.65 18.1 164.65 53.1 164.65 53.1 199.65 18.1 199.65 18.1 234.65 53.1 234.65 53.1 269.65 18.1 269.65 18.1 304.65 53.1 304.65 53.1 339.65 18.1 339.65 18.1 374.65 53.1 374.65 53.1 339.65 88.1 339.65 88.1 374.65 123.1 374.65 123.1 339.65 158.1 339.65 158.1 374.65 193.1 374.65 193.1 339.65 228.1 339.65 228.1 374.65 263.1 374.65 263.1 339.65 228.1 339.65 228.1 304.65 263.1 304.65 263.1 269.65 228.1 269.65 228.1 234.65 263.1 234.65 263.1 199.65 228.1 199.65 M228.1 164.65 L263.1 164.65 263.1 129.65 228.1 129.65 228.1 164.65 M88.1 59.65 L88.1 94.65 123.1 94.65 123.1 129.65 88.1 129.65 88.1 164.65 53.1 164.65 53.1 129.65 88.1 129.65 88.1 94.65 53.1 94.65 53.1 59.65 88.1 59.65 M53.1 199.65 L88.1 199.65 88.1 234.65 123.1 234.65 123.1 269.65 158.1 269.65 158.1 304.65 193.1 304.65 193.1 269.65 228.1 269.65 228.1 304.65 193.1 304.65 193.1 339.65 158.1 339.65 158.1 304.65 123.1 304.65 123.1 339.65 88.1 339.65 88.1 304.65 53.1 304.65 53.1 269.65 88.1 269.65 88.1 234.65 53.1 234.65 53.1 199.65 M88.1 269.65 L88.1 304.65 123.1 304.65 123.1 269.65 88.1 269.65" fill="#ffffff" fill-opacity="0.101960786" fill-rule="evenodd" stroke="none"/>
  </g>
</svg>
