<?xml version="1.0" encoding="UTF-8" standalone="no"?>
<svg xmlns:ffdec="https://www.free-decompiler.com/flash" xmlns:xlink="http://www.w3.org/1999/xlink" ffdec:objectType="shape" height="407.25px" width="287.0px" xmlns="http://www.w3.org/2000/svg">
  <g transform="matrix(1.0, 0.0, 0.0, 1.0, 2.45, 2.7)">
    <path d="M-2.45 -2.7 L284.55 -2.7 284.55 86.85 Q242.15 84.8 213.75 79.15 196.95 75.75 181.9 70.6 173.8 67.8 157.4 61.05 142.35 54.8 132.65 51.7 117.45 46.85 99.85 43.85 61.6 37.35 -2.45 37.5 L-2.45 -2.7 M159.8 195.0 Q175.55 203.7 183.35 207.3 197.75 213.9 213.85 218.15 242.05 225.65 284.55 228.25 L284.55 315.15 Q233.6 312.55 201.85 300.6 186.55 294.9 172.95 286.05 165.55 281.25 150.7 269.6 137.0 258.95 128.2 253.6 114.4 245.25 98.4 240.15 61.3 228.2 -2.45 229.35 L-2.45 164.95 Q65.25 164.05 104.6 173.0 121.45 176.85 136.05 183.05 145.4 187.05 159.8 195.0 M56.3 323.05 Q34.0 310.2 -2.45 309.65 L-2.45 282.05 Q56.65 281.1 91.4 295.4 106.75 301.7 120.0 311.95 128.45 318.55 141.55 331.65 155.85 345.95 162.95 351.85 176.05 362.75 190.7 369.8 225.55 386.65 284.55 388.35 L284.55 404.55 139.9 404.55 Q133.05 401.4 127.15 397.45 116.7 390.4 107.35 379.5 102.3 373.6 92.1 359.3 82.75 346.2 76.7 339.6 67.25 329.35 56.3 323.05" fill="#ffffff" fill-opacity="0.14901961" fill-rule="evenodd" stroke="none"/>
  </g>
</svg>
