<?xml version="1.0" encoding="UTF-8" standalone="no"?>
<svg xmlns:ffdec="https://www.free-decompiler.com/flash" xmlns:xlink="http://www.w3.org/1999/xlink" ffdec:objectType="shape" height="435.55px" width="350.65px" xmlns="http://www.w3.org/2000/svg">
  <g transform="matrix(1.0, 0.0, 0.0, 1.0, 31.4, 25.2)">
    <path d="M20.0 -5.85 Q27.15 1.3 27.15 11.45 27.15 21.6 20.0 28.75 12.85 35.9 2.7 35.9 -7.45 35.9 -14.6 28.75 -21.75 21.6 -21.75 11.45 -21.75 1.3 -14.6 -5.85 -7.45 -13.0 2.7 -13.0 12.85 -13.0 20.0 -5.85" fill="#000000" fill-opacity="0.101960786" fill-rule="evenodd" stroke="none"/>
    <path d="M183.75 153.9 Q195.65 142.05 212.45 142.05 229.25 142.05 241.1 153.9 253.0 165.8 253.0 182.6 253.0 199.4 241.1 211.25 229.25 223.15 212.45 223.15 195.65 223.15 183.75 211.25 171.9 199.4 171.9 182.6 171.9 165.8 183.75 153.9" fill="#000000" fill-opacity="0.101960786" fill-rule="evenodd" stroke="none"/>
    <path d="M103.75 241.15 Q95.5 241.15 89.65 235.3 83.8 229.45 83.8 221.2 83.8 212.95 89.65 207.1 95.5 201.25 103.75 201.25 112.0 201.25 117.85 207.1 123.7 212.95 123.7 221.2 123.7 229.45 117.85 235.3 112.0 241.15 103.75 241.15" fill="#000000" fill-opacity="0.101960786" fill-rule="evenodd" stroke="none"/>
    <path d="M21.35 246.25 Q12.3 255.3 -0.5 255.3 -13.3 255.3 -22.35 246.25 -31.4 237.2 -31.4 224.4 -31.4 211.6 -22.35 202.55 -13.3 193.5 -0.5 193.5 12.3 193.5 21.35 202.55 30.4 211.6 30.4 224.4 30.4 237.2 21.35 246.25" fill="#000000" fill-opacity="0.101960786" fill-rule="evenodd" stroke="none"/>
    <path d="M78.1 285.6 Q72.2 291.55 63.85 291.55 55.55 291.55 49.55 285.6 43.65 279.7 43.65 271.35 43.65 263.0 49.55 257.0 55.55 251.1 63.85 251.1 72.2 251.1 78.1 257.0 84.1 263.0 84.1 271.35 84.1 279.7 78.1 285.6" fill="#000000" fill-opacity="0.101960786" fill-rule="evenodd" stroke="none"/>
    <path d="M188.9 296.8 Q182.9 290.8 182.9 282.3 182.9 273.8 188.9 267.8 194.95 261.75 203.45 261.75 211.9 261.75 217.95 267.8 224.0 273.8 224.0 282.3 224.0 290.8 217.95 296.8 211.9 302.85 203.45 302.85 194.95 302.85 188.9 296.8" fill="#000000" fill-opacity="0.101960786" fill-rule="evenodd" stroke="none"/>
    <path d="M100.6 316.5 Q110.45 306.7 124.3 306.7 138.15 306.7 147.95 316.5 157.8 326.3 157.8 340.2 157.8 354.05 147.95 363.85 138.15 373.7 124.3 373.7 110.45 373.7 100.6 363.85 90.8 354.05 90.8 340.2 90.8 326.3 100.6 316.5" fill="#000000" fill-opacity="0.101960786" fill-rule="evenodd" stroke="none"/>
    <path d="M30.3 330.0 Q37.45 337.15 37.45 347.3 37.45 357.45 30.3 364.6 23.15 371.75 13.0 371.75 2.85 371.75 -4.3 364.6 -11.45 357.45 -11.45 347.3 -11.45 337.15 -4.3 330.0 2.85 322.85 13.0 322.85 23.15 322.85 30.3 330.0" fill="#000000" fill-opacity="0.101960786" fill-rule="evenodd" stroke="none"/>
    <path d="M227.8 342.7 Q239.3 331.2 255.55 331.2 271.8 331.2 283.3 342.7 294.8 354.2 294.8 370.45 294.8 386.7 283.3 398.2 271.8 409.7 255.55 409.7 239.3 409.7 227.8 398.2 216.3 386.7 216.3 370.45 216.3 354.2 227.8 342.7" fill="#000000" fill-opacity="0.101960786" fill-rule="evenodd" stroke="none"/>
    <path d="M286.85 290.4 Q277.65 299.65 264.6 299.65 251.55 299.65 242.3 290.4 233.1 281.2 233.1 268.15 233.1 255.1 242.3 245.85 251.55 236.65 264.6 236.65 277.65 236.65 286.85 245.85 296.1 255.1 296.1 268.15 296.1 281.2 286.85 290.4" fill="#000000" fill-opacity="0.101960786" fill-rule="evenodd" stroke="none"/>
    <path d="M56.05 373.6 Q62.2 367.5 70.9 367.5 79.6 367.5 85.7 373.6 91.85 379.75 91.85 388.45 91.85 397.15 85.7 403.25 79.6 409.4 70.9 409.4 62.2 409.4 56.05 403.25 49.95 397.15 49.95 388.45 49.95 379.75 56.05 373.6" fill="#000000" fill-opacity="0.101960786" fill-rule="evenodd" stroke="none"/>
    <path d="M168.45 374.05 Q174.7 367.85 183.5 367.85 192.3 367.85 198.5 374.05 204.75 380.3 204.75 389.1 204.75 397.9 198.5 404.1 192.3 410.35 183.5 410.35 174.7 410.35 168.45 404.1 162.25 397.9 162.25 389.1 162.25 380.3 168.45 374.05" fill="#000000" fill-opacity="0.101960786" fill-rule="evenodd" stroke="none"/>
    <path d="M73.65 331.35 Q69.35 335.7 63.2 335.7 57.05 335.7 52.7 331.35 48.4 327.05 48.4 320.9 48.4 314.75 52.7 310.4 57.05 306.1 63.2 306.1 69.35 306.1 73.65 310.4 78.0 314.75 78.0 320.9 78.0 327.05 73.65 331.35" fill="#000000" fill-opacity="0.101960786" fill-rule="evenodd" stroke="none"/>
    <path d="M22.25 273.75 Q27.15 278.65 27.15 285.55 27.15 292.45 22.25 297.35 17.35 302.25 10.45 302.25 3.55 302.25 -1.35 297.35 -6.25 292.45 -6.25 285.55 -6.25 278.65 -1.35 273.75 3.55 268.85 10.45 268.85 17.35 268.85 22.25 273.75" fill="#000000" fill-opacity="0.101960786" fill-rule="evenodd" stroke="none"/>
    <path d="M144.8 233.3 Q149.9 228.2 157.1 228.2 164.3 228.2 169.4 233.3 174.5 238.4 174.5 245.6 174.5 252.8 169.4 257.9 164.3 263.0 157.1 263.0 149.9 263.0 144.8 257.9 139.7 252.8 139.7 245.6 139.7 238.4 144.8 233.3" fill="#000000" fill-opacity="0.101960786" fill-rule="evenodd" stroke="none"/>
    <path d="M206.75 337.65 Q203.3 341.15 198.35 341.15 193.4 341.15 189.9 337.65 186.45 334.2 186.45 329.25 186.45 324.3 189.9 320.8 193.4 317.35 198.35 317.35 203.3 317.35 206.75 320.8 210.25 324.3 210.25 329.25 210.25 334.2 206.75 337.65" fill="#000000" fill-opacity="0.101960786" fill-rule="evenodd" stroke="none"/>
    <path d="M112.75 182.6 Q112.75 174.35 118.6 168.5 124.45 162.65 132.7 162.65 140.95 162.65 146.8 168.5 152.65 174.35 152.65 182.6 152.65 190.85 146.8 196.7 140.95 202.55 132.7 202.55 124.45 202.55 118.6 196.7 112.75 190.85 112.75 182.6" fill="#000000" fill-opacity="0.101960786" fill-rule="evenodd" stroke="none"/>
    <path d="M25.8 177.4 Q25.8 166.3 33.6 158.45 41.45 150.65 52.55 150.65 63.65 150.65 71.45 158.45 79.3 166.3 79.3 177.4 79.3 188.5 71.45 196.3 63.65 204.15 52.55 204.15 41.45 204.15 33.6 196.3 25.8 188.5 25.8 177.4" fill="#000000" fill-opacity="0.101960786" fill-rule="evenodd" stroke="none"/>
    <path d="M25.25 92.5 Q18.05 92.5 12.95 87.4 7.9 82.35 7.9 75.15 7.9 67.95 12.95 62.85 18.05 57.8 25.25 57.8 32.45 57.8 37.5 62.85 42.6 67.95 42.6 75.15 42.6 82.35 37.5 87.4 32.45 92.5 25.25 92.5" fill="#000000" fill-opacity="0.101960786" fill-rule="evenodd" stroke="none"/>
    <path d="M12.15 147.9 Q4.9 155.2 -5.4 155.2 -15.7 155.2 -23.0 147.9 -30.25 140.65 -30.25 130.35 -30.25 120.05 -23.0 112.75 -15.7 105.5 -5.4 105.5 4.9 105.5 12.15 112.75 19.45 120.05 19.45 130.35 19.45 140.65 12.15 147.9" fill="#000000" fill-opacity="0.101960786" fill-rule="evenodd" stroke="none"/>
    <path d="M79.3 -18.8 Q91.55 -18.8 100.2 -10.15 108.9 -1.45 108.9 10.8 108.9 23.05 100.2 31.7 91.55 40.4 79.3 40.4 67.05 40.4 58.35 31.7 49.7 23.05 49.7 10.8 49.7 -1.45 58.35 -10.15 67.05 -18.8 79.3 -18.8" fill="#000000" fill-opacity="0.101960786" fill-rule="evenodd" stroke="none"/>
    <path d="M148.25 -19.95 Q153.55 -25.2 161.0 -25.2 168.45 -25.2 173.7 -19.95 179.0 -14.65 179.0 -7.2 179.0 0.25 173.7 5.5 168.45 10.8 161.0 10.8 153.55 10.8 148.25 5.5 143.0 0.25 143.0 -7.2 143.0 -14.65 148.25 -19.95" fill="#000000" fill-opacity="0.101960786" fill-rule="evenodd" stroke="none"/>
    <path d="M229.25 29.5 Q225.5 33.3 220.2 33.3 214.9 33.3 211.1 29.5 207.35 25.75 207.35 20.45 207.35 15.15 211.1 11.35 214.9 7.6 220.2 7.6 225.5 7.6 229.25 11.35 233.05 15.15 233.05 20.45 233.05 25.75 229.25 29.5" fill="#000000" fill-opacity="0.101960786" fill-rule="evenodd" stroke="none"/>
    <path d="M310.2 -14.9 Q319.25 -5.85 319.25 6.95 319.25 19.75 310.2 28.75 301.2 37.8 288.4 37.8 275.6 37.8 266.55 28.75 257.55 19.75 257.55 6.95 257.55 -5.85 266.55 -14.9 275.6 -23.9 288.4 -23.9 301.2 -23.9 310.2 -14.9" fill="#000000" fill-opacity="0.101960786" fill-rule="evenodd" stroke="none"/>
    <path d="M267.25 69.85 Q274.25 76.85 274.25 86.7 274.25 96.55 267.25 103.5 260.3 110.5 250.45 110.5 240.6 110.5 233.6 103.5 226.65 96.55 226.65 86.7 226.65 76.85 233.6 69.85 240.6 62.9 250.45 62.9 260.3 62.9 267.25 69.85" fill="#000000" fill-opacity="0.101960786" fill-rule="evenodd" stroke="none"/>
    <path d="M308.25 131.85 Q315.4 139.0 315.4 149.15 315.4 159.3 308.25 166.45 301.1 173.6 290.95 173.6 280.8 173.6 273.65 166.45 266.5 159.3 266.5 149.15 266.5 139.0 273.65 131.85 280.8 124.7 290.95 124.7 301.1 124.7 308.25 131.85" fill="#000000" fill-opacity="0.101960786" fill-rule="evenodd" stroke="none"/>
    <path d="M106.4 284.75 Q102.75 281.1 102.75 275.9 102.75 270.7 106.4 267.0 110.1 263.35 115.3 263.35 120.5 263.35 124.15 267.0 127.85 270.7 127.85 275.9 127.85 281.1 124.15 284.75 120.5 288.45 115.3 288.45 110.1 288.45 106.4 284.75" fill="#000000" fill-opacity="0.101960786" fill-rule="evenodd" stroke="none"/>
    <path d="M121.4 61.75 Q117.75 58.1 117.75 52.9 117.75 47.7 121.4 44.0 125.1 40.35 130.3 40.35 135.5 40.35 139.15 44.0 142.85 47.7 142.85 52.9 142.85 58.1 139.15 61.75 135.5 65.45 130.3 65.45 125.1 65.45 121.4 61.75" fill="#000000" fill-opacity="0.101960786" fill-rule="evenodd" stroke="none"/>
    <path d="M197.85 114.4 Q188.65 123.65 175.6 123.65 162.55 123.65 153.3 114.4 144.1 105.2 144.1 92.15 144.1 79.1 153.3 69.85 162.55 60.65 175.6 60.65 188.65 60.65 197.85 69.85 207.1 79.1 207.1 92.15 207.1 105.2 197.85 114.4" fill="#000000" fill-opacity="0.101960786" fill-rule="evenodd" stroke="none"/>
    <path d="M64.75 96.6 Q64.75 88.35 70.6 82.5 76.45 76.65 84.7 76.65 92.95 76.65 98.8 82.5 104.65 88.35 104.65 96.6 104.65 104.85 98.8 110.7 92.95 116.55 84.7 116.55 76.45 116.55 70.6 110.7 64.75 104.85 64.75 96.6" fill="#000000" fill-opacity="0.101960786" fill-rule="evenodd" stroke="none"/>
    <path d="M129.75 143.7 Q126.3 147.2 121.35 147.2 116.4 147.2 112.9 143.7 109.45 140.25 109.45 135.3 109.45 130.35 112.9 126.85 116.4 123.4 121.35 123.4 126.3 123.4 129.75 126.85 133.25 130.35 133.25 135.3 133.25 140.25 129.75 143.7" fill="#000000" fill-opacity="0.101960786" fill-rule="evenodd" stroke="none"/>
  </g>
</svg>
