<?xml version="1.0" encoding="UTF-8" standalone="no"?>
<svg xmlns:ffdec="https://www.free-decompiler.com/flash" xmlns:xlink="http://www.w3.org/1999/xlink" ffdec:objectType="shape" height="426.7px" width="304.35px" xmlns="http://www.w3.org/2000/svg">
  <g transform="matrix(1.0, 0.0, 0.0, 1.0, 9.4, 17.55)">
    <path d="M139.3 -17.55 L148.2 93.7 111.25 -17.55 139.3 -17.55 M91.1 -17.55 L148.05 93.45 147.9 93.55 148.05 93.7 -9.4 22.55 -9.4 -17.55 6.3 -17.55 147.9 93.55 37.4 -17.55 91.1 -17.55 M181.7 -17.55 L148.4 93.1 162.45 -17.55 181.7 -17.55 M272.4 -17.55 L148.4 93.7 224.95 -17.55 272.4 -17.55 M294.95 93.8 L148.45 93.8 148.45 93.7 294.95 62.5 294.95 93.8 M294.95 154.85 L148.3 93.85 148.3 93.8 294.95 116.55 294.95 154.85 M148.1 93.8 L-9.4 89.05 -9.4 50.7 148.1 93.8 M148.15 93.85 L148.2 93.85 148.2 93.9 294.95 366.8 294.95 409.15 230.9 409.15 148.15 93.85 M148.2 94.1 L179.45 409.15 103.2 409.15 148.1 94.1 62.8 409.15 -9.4 409.15 -9.4 366.65 148.05 94.05 148.1 94.1 148.2 94.1 M294.95 43.1 L148.5 93.7 294.95 -0.9 294.95 43.1 M294.95 235.2 L148.25 93.9 294.95 194.35 294.95 235.2 M-9.4 139.2 L148.15 93.8 -9.4 169.25 -9.4 139.2 M-9.4 214.35 L148.05 93.95 -9.4 289.7 -9.4 214.35" fill="#ffffff" fill-opacity="0.14901961" fill-rule="evenodd" stroke="none"/>
  </g>
</svg>
