<?xml version="1.0" encoding="UTF-8" standalone="no"?>
<svg xmlns:ffdec="https://www.free-decompiler.com/flash" xmlns:xlink="http://www.w3.org/1999/xlink" ffdec:objectType="shape" height="221.5px" width="263.55px" xmlns="http://www.w3.org/2000/svg">
  <g transform="matrix(1.0, 0.0, 0.0, 1.0, 7.1, 41.45)">
    <path d="M250.0 170.0 L0.0 170.0 0.0 0.0 250.0 0.0 250.0 170.0" fill="#990000" fill-rule="evenodd" stroke="none"/>
    <path d="M30.65 83.25 Q39.55 107.2 42.45 122.45 47.0 146.5 43.35 172.35 L-7.1 172.35 Q0.05 151.75 2.35 127.6 3.6 114.7 4.0 85.8 4.4 59.65 6.35 45.15 9.45 22.75 17.9 3.85 14.3 25.3 18.9 46.55 21.4 58.3 30.65 83.25" fill="#cc8e00" fill-opacity="0.49803922" fill-rule="evenodd" stroke="none"/>
    <path d="M80.75 70.45 Q88.05 99.4 90.45 117.8 94.2 146.85 91.2 178.05 L49.85 178.05 Q55.7 153.15 57.55 124.0 58.6 108.45 58.95 73.55 59.25 41.95 60.85 24.45 63.4 -2.6 70.35 -25.4 67.4 0.45 71.1 26.1 73.2 40.35 80.75 70.45" fill="#cc8e00" fill-opacity="0.49803922" fill-rule="evenodd" stroke="none"/>
    <path d="M125.05 68.6 Q136.45 96.85 140.15 114.8 145.95 143.05 141.3 173.55 L76.85 173.55 Q85.95 149.25 88.9 120.85 90.5 105.65 91.05 71.6 91.5 40.8 94.05 23.7 97.95 -2.65 108.8 -24.9 104.2 0.3 110.0 25.35 113.25 39.2 125.05 68.6" fill="#cc8e00" fill-opacity="0.49803922" fill-rule="evenodd" stroke="none"/>
    <path d="M170.6 91.0 Q176.6 113.8 178.55 128.3 181.6 151.15 179.15 175.8 L145.35 175.8 Q150.1 156.15 151.65 133.2 152.5 120.95 152.8 93.4 153.05 68.5 154.35 54.7 156.4 33.35 162.1 15.4 159.7 35.8 162.75 56.0 164.45 67.25 170.6 91.0" fill="#cc8e00" fill-opacity="0.49803922" fill-rule="evenodd" stroke="none"/>
    <path d="M208.45 59.85 Q217.6 90.4 220.55 109.85 225.2 140.5 221.5 173.5 L169.85 173.5 Q177.15 147.2 179.5 116.4 180.8 100.0 181.25 63.05 181.6 29.7 183.65 11.2 186.75 -17.35 195.45 -41.45 191.75 -14.15 196.45 13.0 199.0 28.0 208.45 59.85" fill="#cc8e00" fill-opacity="0.49803922" fill-rule="evenodd" stroke="none"/>
    <path d="M247.4 107.7 Q253.0 124.75 254.85 135.6 257.7 152.7 255.4 171.15 L223.7 171.15 Q228.15 156.45 229.65 139.3 230.4 130.1 230.65 109.5 230.9 90.9 232.15 80.6 234.1 64.65 239.4 51.2 237.15 66.45 240.0 81.55 241.6 89.95 247.4 107.7" fill="#cc8e00" fill-opacity="0.49803922" fill-rule="evenodd" stroke="none"/>
    <path d="M205.75 111.45 Q198.15 128.8 195.7 139.8 191.8 157.2 194.9 175.9 L237.9 175.9 Q231.8 161.0 229.85 143.55 228.8 134.2 228.45 113.3 228.1 94.4 226.4 83.9 223.8 67.75 216.6 54.1 219.65 69.55 215.75 84.9 213.6 93.45 205.75 111.45" fill="#cc8e00" fill-opacity="0.49803922" fill-rule="evenodd" stroke="none"/>
    <path d="M152.85 127.1 Q148.25 141.35 146.75 150.4 144.35 164.7 146.25 180.05 L172.4 180.05 Q168.7 167.8 167.5 153.45 166.85 145.8 166.65 128.65 166.45 113.1 165.45 104.5 163.85 91.15 159.45 79.95 161.3 92.7 158.95 105.3 157.65 112.3 152.85 127.1" fill="#cc8e00" fill-opacity="0.49803922" fill-rule="evenodd" stroke="none"/>
    <path d="M117.7 103.9 Q109.2 123.5 106.4 135.95 102.05 155.6 105.55 176.7 L153.85 176.7 Q147.0 159.85 144.8 140.15 143.6 129.65 143.2 106.0 142.85 84.6 140.95 72.8 138.0 54.5 129.9 39.05 133.35 56.55 128.95 73.9 126.55 83.55 117.7 103.9" fill="#cc8e00" fill-opacity="0.49803922" fill-rule="evenodd" stroke="none"/>
    <path d="M72.45 117.05 Q67.4 133.55 65.7 144.05 63.1 160.6 65.2 178.4 L94.0 178.4 Q89.95 164.2 88.6 147.6 87.9 138.7 87.65 118.8 87.45 100.8 86.3 90.85 84.55 75.4 79.75 62.4 81.8 77.15 79.15 91.8 77.75 99.9 72.45 117.05" fill="#cc8e00" fill-opacity="0.49803922" fill-rule="evenodd" stroke="none"/>
    <path d="M37.2 105.2 Q31.35 124.45 29.4 136.65 26.4 155.95 28.8 176.7 L62.05 176.7 Q57.35 160.15 55.85 140.8 55.0 130.45 54.75 107.25 54.5 86.3 53.2 74.65 51.15 56.7 45.6 41.55 47.95 58.7 44.95 75.75 43.3 85.2 37.2 105.2" fill="#cc8e00" fill-opacity="0.49803922" fill-rule="evenodd" stroke="none"/>
    <path d="M7.1 129.15 Q2.3 141.5 0.75 149.3 -1.7 161.7 0.25 175.0 L27.3 175.0 Q23.5 164.4 22.25 151.95 21.6 145.35 21.35 130.45 21.15 117.0 20.1 109.55 18.45 98.0 13.9 88.3 15.85 99.3 13.4 110.25 12.05 116.3 7.1 129.15" fill="#cc8e00" fill-opacity="0.49803922" fill-rule="evenodd" stroke="none"/>
  </g>
</svg>
