<?xml version="1.0" encoding="UTF-8" standalone="no"?>
<svg xmlns:ffdec="https://www.free-decompiler.com/flash" xmlns:xlink="http://www.w3.org/1999/xlink" ffdec:objectType="shape" height="184.0px" width="271.0px" xmlns="http://www.w3.org/2000/svg">
  <g transform="matrix(1.0, 0.0, 0.0, 1.0, 11.0, 7.0)">
    <path d="M256.0 177.0 L-6.0 177.0 -6.0 -7.0 256.0 -7.0 256.0 177.0" fill="#afafd8" fill-rule="evenodd" stroke="none"/>
    <path d="M260.0 20.0 L-11.0 20.0 -11.0 0.0 260.0 0.0 260.0 20.0" fill="#333399" fill-opacity="0.2509804" fill-rule="evenodd" stroke="none"/>
    <path d="M260.0 30.0 L260.0 50.0 -11.0 50.0 -11.0 30.0 260.0 30.0" fill="#333399" fill-opacity="0.2509804" fill-rule="evenodd" stroke="none"/>
    <path d="M260.0 80.0 L-11.0 80.0 -11.0 60.0 260.0 60.0 260.0 80.0" fill="#333399" fill-opacity="0.2509804" fill-rule="evenodd" stroke="none"/>
    <path d="M260.0 90.0 L260.0 110.0 -11.0 110.0 -11.0 90.0 260.0 90.0" fill="#333399" fill-opacity="0.2509804" fill-rule="evenodd" stroke="none"/>
    <path d="M260.0 140.0 L-11.0 140.0 -11.0 120.0 260.0 120.0 260.0 140.0" fill="#333399" fill-opacity="0.2509804" fill-rule="evenodd" stroke="none"/>
    <path d="M260.0 150.0 L260.0 170.0 -11.0 170.0 -11.0 150.0 260.0 150.0" fill="#333399" fill-opacity="0.2509804" fill-rule="evenodd" stroke="none"/>
  </g>
</svg>
