<?xml version="1.0" encoding="UTF-8" standalone="no"?>
<svg xmlns:ffdec="https://www.free-decompiler.com/flash" xmlns:xlink="http://www.w3.org/1999/xlink" ffdec:objectType="shape" height="197.8px" width="377.9px" xmlns="http://www.w3.org/2000/svg">
  <g transform="matrix(1.0, 0.0, 0.0, 1.0, 71.75, 8.0)">
    <path d="M261.0 180.0 L-10.0 180.0 -10.0 -8.0 261.0 -8.0 261.0 180.0" fill="#476501" fill-rule="evenodd" stroke="none"/>
    <path d="M130.25 33.65 Q170.65 79.4 147.7 127.0 104.65 87.85 130.25 33.65" fill="#669900" fill-opacity="0.49803922" fill-rule="evenodd" stroke="none"/>
    <path d="M175.05 31.3 Q194.5 89.15 154.95 124.1 130.45 71.35 175.05 31.3" fill="#669900" fill-opacity="0.49803922" fill-rule="evenodd" stroke="none"/>
    <path d="M242.15 109.55 Q227.4 168.75 175.3 176.8 183.1 119.25 242.15 109.55" fill="#669900" fill-rule="evenodd" stroke="none"/>
    <path d="M196.05 77.3 Q215.5 135.15 175.95 170.1 151.45 117.35 196.05 77.3" fill="#669900" fill-rule="evenodd" stroke="none"/>
    <path d="M151.25 79.65 Q191.65 125.4 168.7 173.0 125.65 133.85 151.25 79.65" fill="#669900" fill-opacity="0.49803922" fill-rule="evenodd" stroke="none"/>
    <path d="M102.25 123.05 Q163.15 126.45 180.85 176.15 122.8 179.25 102.25 123.05" fill="#669900" fill-rule="evenodd" stroke="none"/>
    <path d="M294.15 121.55 Q279.4 180.75 227.3 188.8 235.1 131.25 294.15 121.55" fill="#669900" fill-rule="evenodd" stroke="none"/>
    <path d="M248.05 89.3 Q267.5 147.15 227.95 182.1 203.45 129.35 248.05 89.3" fill="#669900" fill-rule="evenodd" stroke="none"/>
    <path d="M203.25 91.65 Q243.65 137.4 220.7 185.0 177.65 145.85 203.25 91.65" fill="#669900" fill-opacity="0.49803922" fill-rule="evenodd" stroke="none"/>
    <path d="M154.25 135.05 Q215.15 138.45 232.85 188.15 174.8 191.25 154.25 135.05" fill="#669900" fill-rule="evenodd" stroke="none"/>
    <path d="M189.15 122.55 Q174.4 181.75 122.3 189.8 130.1 132.25 189.15 122.55" fill="#669900" fill-opacity="0.49803922" fill-rule="evenodd" stroke="none"/>
    <path d="M143.05 90.3 Q162.5 148.15 122.95 183.1 98.45 130.35 143.05 90.3" fill="#669900" fill-rule="evenodd" stroke="none"/>
    <path d="M98.25 92.65 Q138.65 138.4 115.7 186.0 72.65 146.85 98.25 92.65" fill="#669900" fill-rule="evenodd" stroke="none"/>
    <path d="M49.25 136.05 Q110.15 139.45 127.85 189.15 69.8 192.25 49.25 136.05" fill="#669900" fill-rule="evenodd" stroke="none"/>
    <path d="M127.15 117.55 Q112.4 176.75 60.3 184.8 68.1 127.25 127.15 117.55" fill="#669900" fill-rule="evenodd" stroke="none"/>
    <path d="M81.05 85.3 Q100.5 143.15 60.95 178.1 36.45 125.35 81.05 85.3" fill="#669900" fill-opacity="0.49803922" fill-rule="evenodd" stroke="none"/>
    <path d="M36.25 87.65 Q76.65 133.4 53.7 181.0 10.65 141.85 36.25 87.65" fill="#669900" fill-rule="evenodd" stroke="none"/>
    <path d="M-12.75 131.05 Q48.15 134.45 65.85 184.15 7.8 187.25 -12.75 131.05" fill="#669900" fill-rule="evenodd" stroke="none"/>
    <path d="M68.15 113.55 Q53.4 172.75 1.3 180.8 9.1 123.25 68.15 113.55" fill="#669900" fill-rule="evenodd" stroke="none"/>
    <path d="M22.05 81.3 Q41.5 139.15 1.95 174.1 -22.55 121.35 22.05 81.3" fill="#669900" fill-rule="evenodd" stroke="none"/>
    <path d="M-22.75 83.65 Q17.65 129.4 -5.3 177.0 -48.35 137.85 -22.75 83.65" fill="#669900" fill-rule="evenodd" stroke="none"/>
    <path d="M-71.75 127.05 Q-10.85 130.45 6.85 180.15 -51.2 183.25 -71.75 127.05" fill="#669900" fill-rule="evenodd" stroke="none"/>
    <path d="M139.15 71.55 Q124.4 130.75 72.3 138.8 80.1 81.25 139.15 71.55" fill="#669900" fill-opacity="0.49803922" fill-rule="evenodd" stroke="none"/>
    <path d="M93.05 39.3 Q112.5 97.15 72.95 132.1 48.45 79.35 93.05 39.3" fill="#669900" fill-opacity="0.49803922" fill-rule="evenodd" stroke="none"/>
    <path d="M48.25 41.65 Q88.65 87.4 65.7 135.0 22.65 95.85 48.25 41.65" fill="#669900" fill-opacity="0.49803922" fill-rule="evenodd" stroke="none"/>
    <path d="M-0.75 85.05 Q60.15 88.45 77.85 138.15 19.8 141.25 -0.75 85.05" fill="#669900" fill-opacity="0.49803922" fill-rule="evenodd" stroke="none"/>
    <path d="M221.15 63.55 Q206.4 122.75 154.3 130.8 162.1 73.25 221.15 63.55" fill="#669900" fill-opacity="0.49803922" fill-rule="evenodd" stroke="none"/>
    <path d="M81.25 77.05 Q142.15 80.45 159.85 130.15 101.8 133.25 81.25 77.05" fill="#669900" fill-opacity="0.49803922" fill-rule="evenodd" stroke="none"/>
    <path d="M70.15 47.55 Q55.4 106.75 3.3 114.8 11.1 57.25 70.15 47.55" fill="#669900" fill-opacity="0.49803922" fill-rule="evenodd" stroke="none"/>
    <path d="M24.05 15.3 Q43.5 73.15 3.95 108.1 -20.55 55.35 24.05 15.3" fill="#669900" fill-opacity="0.49803922" fill-rule="evenodd" stroke="none"/>
    <path d="M-20.75 17.65 Q19.65 63.4 -3.3 111.0 -46.35 71.85 -20.75 17.65" fill="#669900" fill-opacity="0.49803922" fill-rule="evenodd" stroke="none"/>
    <path d="M-69.75 61.05 Q-8.85 64.45 8.85 114.15 -49.2 117.25 -69.75 61.05" fill="#669900" fill-opacity="0.49803922" fill-rule="evenodd" stroke="none"/>
    <path d="M306.15 56.55 Q291.4 115.75 239.3 123.8 247.1 66.25 306.15 56.55" fill="#669900" fill-opacity="0.49803922" fill-rule="evenodd" stroke="none"/>
    <path d="M260.05 24.3 Q279.5 82.15 239.95 117.1 215.45 64.35 260.05 24.3" fill="#669900" fill-opacity="0.49803922" fill-rule="evenodd" stroke="none"/>
    <path d="M215.25 26.65 Q255.65 72.4 232.7 120.0 189.65 80.85 215.25 26.65" fill="#669900" fill-opacity="0.49803922" fill-rule="evenodd" stroke="none"/>
    <path d="M166.25 70.05 Q227.15 73.45 244.85 123.15 186.8 126.25 166.25 70.05" fill="#669900" fill-opacity="0.49803922" fill-rule="evenodd" stroke="none"/>
  </g>
</svg>
