<?xml version="1.0" encoding="UTF-8" standalone="no"?>
<svg xmlns:ffdec="https://www.free-decompiler.com/flash" xmlns:xlink="http://www.w3.org/1999/xlink" ffdec:objectType="shape" height="145.8px" width="145.8px" xmlns="http://www.w3.org/2000/svg">
  <g transform="matrix(1.0, 0.0, 0.0, 1.0, 72.8, 173.9)">
    <path d="M50.9 -151.9 Q72.0 -130.8 72.0 -101.0 72.0 -71.2 50.9 -50.2 29.9 -29.1 0.1 -29.1 -29.7 -29.1 -50.8 -50.2 -71.8 -71.2 -71.8 -101.0 -71.8 -130.8 -50.8 -151.9 -29.7 -172.9 0.1 -172.9 29.9 -172.9 50.9 -151.9" fill="#0083f2" fill-rule="evenodd" stroke="none"/>
    <path d="M50.9 -151.9 Q72.0 -130.8 72.0 -101.0 72.0 -71.2 50.9 -50.2 29.9 -29.1 0.1 -29.1 -29.7 -29.1 -50.8 -50.2 -71.8 -71.2 -71.8 -101.0 -71.8 -130.8 -50.8 -151.9 -29.7 -172.9 0.1 -172.9 29.9 -172.9 50.9 -151.9 Z" fill="none" stroke="#ffffff" stroke-linecap="round" stroke-linejoin="round" stroke-opacity="0.49803922" stroke-width="2.0"/>
  </g>
</svg>
