<?xml version="1.0" encoding="UTF-8" standalone="no"?>
<svg
   ffdec:objectType="shape"
   height="158.9px"
   width="415.5px"
   version="1.1"
   id="svg20"
   sodipodi:docname="299 copy.svg"
   inkscape:version="1.2.2 (b0a8486, 2022-12-01)"
   xml:space="preserve"
   xmlns:inkscape="http://www.inkscape.org/namespaces/inkscape"
   xmlns:sodipodi="http://sodipodi.sourceforge.net/DTD/sodipodi-0.dtd"
   xmlns="http://www.w3.org/2000/svg"
   xmlns:svg="http://www.w3.org/2000/svg"
   xmlns:ffdec="https://www.free-decompiler.com/flash"><defs
     id="defs24"><clipPath
       clipPathUnits="userSpaceOnUse"
       id="clipPath4755"><path
         id="path4757"
         style="fill:#ff0000;fill-opacity:1;fill-rule:nonzero;stroke:none;stroke-width:1.15927"
         d="m 311.06645,344.92792 0.52998,8.5888 c 0.31552,-0.15554 0.70387,-0.26803 1.18043,-0.31609 0.44552,-0.0449 0.8931,-0.088 1.34342,-0.11754 1.72546,-0.10236 3.47771,-0.11258 5.23912,-0.0718 2.26864,0.0646 4.52173,0.0713 6.77865,0.0836 3.28867,0.0529 6.59679,0.19871 9.89452,0.29432 2.89243,0.005 5.76787,-0.0616 8.66749,-0.026 0.84019,0.0244 1.37013,0.0337 2.19727,0.0792 1.22339,0.0673 2.46133,0.21476 3.69609,0.35446 1.26826,0.16626 2.53764,0.34958 3.8107,0.5597 1.10665,0.18267 1.15909,0.20998 2.21607,0.36513 0.1669,0.0246 0.33194,0.0442 0.49844,0.0658 -0.0492,-0.27022 -0.0477,-0.5325 0.0347,-0.7682 z m 57.2867,14.43936 c -0.46205,0.18425 -1.09336,0.23466 -1.92414,0.0531 -1.17383,-0.25644 -2.32168,-0.27851 -3.46544,-0.32651 -0.88925,-0.0249 -1.77225,-0.0245 -2.65488,-0.0205 -0.40196,0.002 -0.93102,0.0122 -1.3371,-0.01 -0.27969,-0.0148 -0.56154,-0.0464 -0.84261,-0.0688 -0.33481,-0.0433 -0.66948,-0.0807 -1.00487,-0.12874 -1.02951,-0.14762 -1.30859,-0.21208 -2.36467,-0.38635 -1.22182,-0.20163 -2.43995,-0.37672 -3.65709,-0.53565 -0.343,-0.0389 -0.68566,-0.081 -1.02842,-0.11819 -0.23292,-0.0253 -1.36982,-0.14224 -1.65271,-0.16498 -0.95101,-0.0765 -1.89291,-0.0969 -2.83409,-0.12389 -2.86642,-0.0317 -5.7083,0.0361 -8.56837,0.0313 -3.31387,-0.0915 -6.63934,-0.24341 -9.94495,-0.2961 -2.27167,-0.0116 -4.54042,-0.0175 -6.82406,-0.0825 -1.65624,-0.0358 -3.30798,-0.0356 -4.93035,0.0632 -0.40447,0.027 -0.80174,0.0686 -1.20197,0.10914 -0.93642,0.0949 -1.72187,-0.10157 -2.31296,-0.45154 l 5.3924,87.53735 c 0.54801,-0.49308 1.51612,-0.72224 2.94461,-0.41055 0.7801,0.17024 1.55149,0.23759 2.32126,0.31437 -0.065,-0.21652 -0.0831,-0.28904 -0.15308,-0.51867 -0.17356,-0.56995 0.83841,-0.48872 1.28016,-0.70562 1.06985,-0.52528 2.21245,-0.96472 3.35631,-1.40071 -2.0177,-2.71883 -0.71772,-5.70456 4.90805,-4.78984 0.52798,0.0858 1.05307,0.16063 1.5797,0.24095 0.0484,-0.22033 0.0907,-0.4405 0.10956,-0.66486 0.34575,-0.0559 0.69765,-0.0956 1.05441,-0.12613 0.0295,-0.0157 0.10307,-0.0198 0.20289,-0.0151 0.003,-2e-4 0.006,0.002 0.009,10e-4 0.44904,-0.0332 0.90596,-0.0519 1.36519,-0.0632 1.07719,-0.1051 2.15239,-0.21578 3.22485,-0.33003 2.68697,-0.2721 5.36901,-0.55361 8.12407,-0.68513 2.22825,-0.0407 4.43531,-0.13386 6.62747,-0.25564 0.0585,-0.47791 0.16462,-0.9664 0.33854,-1.46576 0.0875,-0.25133 0.17499,-0.5034 0.2668,-0.75224 0.29965,-0.79922 0.56581,-1.6315 1.11692,-2.26012 0.40009,-0.24753 0.75978,-0.54203 1.19952,-0.74267 0.59965,-0.27364 1.46032,-0.1682 2.23741,-0.0611 0.32809,0.05 0.65547,0.0984 0.98233,0.14351 0.15193,0.0202 0.30637,0.046 0.45348,0.0506 0.29959,0.012 0.58694,-0.005 0.87188,-0.0264 0.91062,-0.13302 1.77187,-0.35596 2.67815,-0.49703 1.25937,-0.19101 2.52925,-0.3794 3.90216,-0.33399 0.82237,0.0484 1.63691,0.0714 2.4844,0.19741 0.32451,0.0386 0.67211,0.0822 1.03176,0.1411 0.31649,0.0518 0.64175,0.12143 0.96826,0.20243 z m 0.85012,73.89263 c -0.007,-0.0589 -0.0108,0.11116 0.004,0.17169 0.002,0.01 0.005,0.0197 0.007,0.0296 -0.004,-0.0877 -0.008,-0.17503 -0.0115,-0.20131 z m 4.26079,9.04235 c -0.28451,0.0536 -0.56941,0.10671 -0.85941,0.15053 -0.25089,0.0404 -0.50515,0.0747 -0.75794,0.11144 -0.017,0.0796 -0.0351,0.15564 -0.0511,0.2302 -0.0662,0.48995 -0.12068,0.98635 -0.22217,1.4616 -0.1649,0.81149 -0.33305,1.62226 -0.53364,2.41654 -0.0813,0.27043 -0.17831,0.63383 -0.31283,0.85904 -0.44641,0.74728 -0.98313,1.0855 -1.86193,1.19684 -0.80559,0.0699 -1.63231,0.0717 -2.45612,0.0737 -1.28867,0.001 -2.57982,-0.004 -3.8886,-0.0975 -1.50326,-0.0981 -2.98146,-0.0837 -4.46454,-0.0879 -1.79342,0.008 -3.57221,0.0723 -5.36832,0.0679 -1.52311,-0.0393 -3.05598,-0.11847 -4.5784,-0.15459 -1.67189,-0.0293 -3.34596,-0.0657 -5.02943,-0.14983 -0.41491,0.005 -0.82489,0.0287 -1.23706,0.0446 -2.13487,0.57762 -4.29622,1.11567 -6.43532,1.68638 -0.5306,0.13029 -1.0544,0.272 -1.57568,0.41712 l 40.63201,8.01374 z" /></clipPath><clipPath
       clipPathUnits="userSpaceOnUse"
       id="clipPath5261"><path
         id="path5263"
         style="fill:#ff0000;fill-opacity:1;fill-rule:nonzero;stroke:none;stroke-width:1.13982"
         d="m 504.01435,284.92453 v 3.1453 c 0.0543,0.004 0.10876,0.0102 0.16273,0.016 0.11419,0.0126 0.22847,0.0278 0.34282,0.0388 0.14786,0.0126 0.29535,0.0292 0.44262,0.048 0.15293,0.0193 0.3058,0.0382 0.45998,0.0411 0.18558,0.008 0.37002,0.0187 0.55546,0.0297 0.17777,0.008 0.35587,0.009 0.53375,0.0137 0.12157,0.002 0.24299,0.006 0.36451,0.002 0.044,-0.003 0.0884,-0.005 0.13236,0 0.004,5.8e-4 0.01,0.002 0.0152,0.002 v -2.85521 c -0.10243,-0.008 -0.20372,-0.0185 -0.30593,-0.0297 -0.0985,-0.0136 -0.19939,-0.02 -0.29726,-0.0388 -0.0248,-0.005 -0.24181,-0.0518 -0.25603,-0.0548 -0.21648,-0.044 -0.43466,-0.0764 -0.65309,-0.10736 -0.004,-7e-4 -0.009,-10e-4 -0.013,-0.002 -0.0727,-0.005 -0.14694,-0.008 -0.21914,-0.0183 -0.0546,-0.009 -0.10842,-0.0195 -0.16274,-0.0297 -0.0493,-0.0101 -0.0984,-0.0193 -0.14754,-0.0297 -0.0202,-8.4e-4 -0.0404,-0.002 -0.0608,-0.002 -0.0858,-0.002 -0.14282,-0.0327 -0.17359,-0.0731 -0.0149,3.7e-4 -0.0289,10e-4 -0.0434,0 -0.0491,-0.003 -0.099,-0.009 -0.14754,-0.0183 -0.0554,-0.0104 -0.10975,-0.0199 -0.1649,-0.032 -0.0725,-0.015 -0.14429,-0.0315 -0.21697,-0.0457 -0.001,4e-5 -0.003,-5e-5 -0.004,0 -0.0143,4.2e-4 -0.029,0.002 -0.0434,0.002 -0.0339,9.6e-4 -0.0666,-4.5e-4 -0.0998,-0.002 z" /></clipPath><clipPath
       clipPathUnits="userSpaceOnUse"
       id="clipPath5699"><path
         id="path5701"
         style="fill:#ff0000;fill-opacity:1;fill-rule:nonzero;stroke:none;stroke-width:1.13982"
         d="M 254.21964,282.36855 V 387.09762 H 592.09027 V 282.36855 Z m 249.69708,0.6487 c 0.0114,-6.9e-4 0.0227,-1.1e-4 0.0347,0 0.0692,6.3e-4 0.13674,0.0167 0.20395,0.032 0.0649,0.0147 0.0962,0.0251 0.16055,0.0411 0.0236,0.006 0.0481,0.01 0.0716,0.016 0.0531,0.0136 0.10664,0.0289 0.16056,0.0388 0.0495,0.009 0.10709,0.0177 0.15622,0.0251 0.12541,0.0178 0.0631,0.008 0.18877,0.0251 0.38616,0.0518 0.33627,0.46302 -0.0499,0.41115 -0.12947,-0.0174 -0.0658,-0.009 -0.19528,-0.0274 -0.0632,-0.0101 -0.11549,-0.0157 -0.17792,-0.0274 -0.0592,-0.0111 -0.11733,-0.0261 -0.17574,-0.0411 -0.0229,-0.006 -0.0465,-0.0124 -0.0694,-0.0183 -0.069,-0.0173 -0.0801,-0.0205 -0.14971,-0.0366 -0.0959,-0.0221 -0.0279,-0.008 -0.10198,-0.0228 -0.003,-5.8e-4 -0.006,3.2e-4 -0.009,0 -0.003,-4.4e-4 -0.009,0 -0.013,0 -0.37714,0 -0.38835,-0.39432 -0.0347,-0.41572 z m 0.0694,1.16264 c 0.0114,-7.2e-4 0.0222,-5e-5 0.0348,0 0.0984,4.4e-4 0.19706,0.0111 0.29508,0.0206 0.12095,0.012 0.24341,0.0219 0.36452,0.032 0.0646,0.006 0.12836,0.0115 0.19309,0.016 0.16676,0.0117 0.25527,0.0946 0.2734,0.18273 0.0231,10e-4 0.0463,10e-4 0.0694,0.002 0.0444,0.003 0.0794,0.004 0.12366,0.009 0.0214,0.003 0.0437,0.008 0.0651,0.0115 0.14853,0.0302 0.29268,0.0803 0.43612,0.1302 0.0468,0.0164 0.0923,0.0334 0.13886,0.0503 0.11745,0.0422 0.0941,0.10701 0.0738,0.16446 0.0658,0.0133 0.13158,0.0258 0.19744,0.0388 0.0598,0.0121 0.12042,0.0238 0.18009,0.0366 0.0306,0.006 0.061,0.0123 0.0911,0.0206 0.01,0.003 0.0203,0.006 0.0303,0.009 0.004,9e-4 0.008,0.003 0.0152,0.005 -0.0617,-0.008 -0.0855,0.003 -0.0868,0.0274 0.0441,0.01 0.0882,0.0196 0.13235,0.0297 0.0908,0.0198 0.18284,0.0387 0.27338,0.0594 0.0359,0.008 0.0704,0.0146 0.10631,0.0228 0.2577,0.0589 0.20123,0.33304 -0.0564,0.2741 -0.0359,-0.008 -0.0704,-0.015 -0.10631,-0.0228 -0.0503,-0.0116 -0.10098,-0.0234 -0.15189,-0.0343 0.009,0.0431 -0.0177,0.0695 -0.11499,0.0617 -0.01,-8.2e-4 -0.0193,-6.5e-4 -0.0282,-0.002 -0.01,-0.002 -0.0187,-0.004 -0.0282,-0.007 -0.007,-0.002 -0.0112,-0.002 -0.0173,-0.005 l -0.002,-0.002 c -10e-4,-2.1e-4 -0.003,2.2e-4 -0.004,0 -0.01,-0.002 -0.0204,-0.002 -0.0303,-0.005 -0.0124,-0.004 -0.0246,-0.007 -0.0369,-0.0115 -0.002,-8.2e-4 -0.004,-0.003 -0.0111,-0.005 -0.0118,-0.003 -0.0229,-0.004 -0.0347,-0.007 -0.006,-10e-4 -0.0118,-0.003 -0.0173,-0.005 -0.058,-0.0124 -0.11549,-0.0201 -0.17359,-0.032 -0.0972,-0.0193 -0.19571,-0.0399 -0.2929,-0.0594 -0.0827,-0.0181 -0.16482,-0.0383 -0.24736,-0.0571 -0.0542,-0.012 -0.10798,-0.0216 -0.16273,-0.0297 -0.0858,-0.0113 -0.17255,-0.0197 -0.2582,-0.032 -0.0653,-0.0104 -0.13051,-0.0229 -0.19527,-0.0365 -0.0704,-0.0142 -0.13971,-0.0266 -0.21046,-0.0388 -0.0651,-0.009 -0.13225,-0.0189 -0.19746,-0.0274 -0.0692,-0.009 -0.13853,-0.0147 -0.20829,-0.016 -0.0615,-0.002 -0.12288,-0.003 -0.18443,-0.002 -0.15194,10e-4 -0.24451,-0.0602 -0.27772,-0.13706 -4e-4,-9e-5 4e-4,-0.002 0,-0.002 -0.22368,-0.0547 -0.28198,-0.25379 -0.0999,-0.34034 -0.10542,-0.11551 -0.10198,-0.27228 0.14103,-0.28781 z" /></clipPath><clipPath
       clipPathUnits="userSpaceOnUse"
       id="clipPath5709"><path
         id="path5711"
         style="fill:#ff0000;fill-opacity:1;fill-rule:nonzero;stroke:none;stroke-width:1.13982"
         d="M 203.96432,280.91125 V 422.54104 H 504.97554 V 285.02275 c -0.054,-0.0104 -0.1082,-0.0203 -0.16273,-0.0297 -0.0651,-0.009 -0.13224,-0.0189 -0.19745,-0.0274 -0.0692,-0.009 -0.13853,-0.0147 -0.20829,-0.016 -0.0615,-0.002 -0.12288,-0.003 -0.18443,-0.002 -0.15194,10e-4 -0.24451,-0.0602 -0.27772,-0.13705 -4e-4,-9e-5 4e-4,-0.002 0,-0.002 -0.22368,-0.0546 -0.28197,-0.25379 -0.0999,-0.34034 -0.10542,-0.11551 -0.10198,-0.27229 0.14103,-0.28781 0.0114,-7.3e-4 0.0223,-6e-5 0.0348,0 0.0984,4.3e-4 0.1971,0.0111 0.29508,0.0206 0.12095,0.012 0.24341,0.0219 0.36452,0.032 0.0646,0.006 0.12834,0.0115 0.1931,0.016 0.0383,0.003 0.0716,0.009 0.10198,0.0183 v -0.66012 c -0.0387,0.007 -0.0823,0.007 -0.13236,0 -0.12945,-0.0174 -0.0658,-0.009 -0.19527,-0.0274 -0.0632,-0.0101 -0.11549,-0.0157 -0.17792,-0.0274 -0.0592,-0.0111 -0.11734,-0.0261 -0.17575,-0.0411 -0.0229,-0.006 -0.0468,-0.0124 -0.0694,-0.0183 -0.069,-0.0172 -0.0801,-0.0205 -0.14971,-0.0366 -0.0959,-0.0221 -0.0279,-0.008 -0.10199,-0.0228 -0.003,-5.8e-4 -0.006,3.3e-4 -0.009,0 -0.003,-4.4e-4 -0.009,0 -0.013,0 -0.38932,0 -0.38931,-0.41922 0,-0.41572 0.0692,6.4e-4 0.13674,0.0167 0.20395,0.032 0.0649,0.0148 0.0962,0.0251 0.16056,0.0411 0.0236,0.006 0.0486,0.01 0.0715,0.016 0.0531,0.0136 0.10665,0.0289 0.16056,0.0388 0.0496,0.009 0.10709,0.0177 0.15623,0.0251 0.12539,0.0178 0.0631,0.008 0.18876,0.0251 0.0302,0.004 0.0578,0.0102 0.0824,0.0183 v -2.30244 z" /></clipPath><clipPath
       clipPathUnits="userSpaceOnUse"
       id="clipPath5719"><path
         id="path5721"
         style="fill:#ff0000;fill-opacity:1;fill-rule:nonzero;stroke:none"
         d="M 284.39845,28.292967 V 147.68359 h 120.3418 V 28.292967 h -118.4668 c -0.002,0.06591 -0.0746,0.123204 -0.20117,0.0957 -0.0323,-0.007 -0.0634,-0.01283 -0.0957,-0.01953 -0.0453,-0.0099 -0.0909,-0.02002 -0.13672,-0.0293 0.008,0.03685 -0.0159,0.05945 -0.10351,0.05273 -0.009,-7e-4 -0.0174,-5.53e-4 -0.0254,-0.002 -0.009,-0.0015 -0.0168,-0.0037 -0.0254,-0.0059 -0.006,-0.0014 -0.0101,-0.0021 -0.0156,-0.0039 l -0.002,-0.002 c -0.001,-1.73e-4 -0.003,1.9e-4 -0.004,0 -0.009,-0.0013 -0.0184,-0.0016 -0.0273,-0.0039 -0.0112,-0.003 -0.0221,-0.0063 -0.0332,-0.0098 -0.002,-7.01e-4 -0.004,-0.0027 -0.01,-0.0039 -0.0106,-0.0024 -0.0206,-0.0038 -0.0312,-0.0059 -0.005,-0.001 -0.0106,-0.0028 -0.0156,-0.0039 -0.0522,-0.01058 -0.10395,-0.01715 -0.15625,-0.02734 -0.0538,-0.01014 -0.10797,-0.02074 -0.16211,-0.03125 z" /></clipPath><clipPath
       clipPathUnits="userSpaceOnUse"
       id="clipPath5729"><path
         id="path5731"
         style="fill:#ff0000;fill-opacity:1;fill-rule:nonzero;stroke:none;stroke-width:1.13982"
         d="m 503.46758,284.69155 v 3.9676 h 3.54534 v -3.32804 c -0.0229,6.8e-4 -0.0481,-0.003 -0.076,-0.009 -0.0359,-0.008 -0.0704,-0.015 -0.10632,-0.0228 -0.0503,-0.0116 -0.10098,-0.0234 -0.15188,-0.0343 0.009,0.0431 -0.0177,0.0695 -0.11499,0.0617 -0.01,-8.2e-4 -0.0193,-6.5e-4 -0.0282,-0.002 -0.01,-0.002 -0.0187,-0.004 -0.0282,-0.007 -0.007,-0.002 -0.0112,-0.002 -0.0173,-0.005 l -0.002,-0.002 c -10e-4,-2.1e-4 -0.003,2.2e-4 -0.004,0 -0.01,-0.002 -0.0204,-0.002 -0.0303,-0.005 -0.0124,-0.004 -0.0245,-0.007 -0.0369,-0.0115 -0.002,-8.2e-4 -0.004,-0.003 -0.0111,-0.005 -0.0118,-0.003 -0.0229,-0.004 -0.0347,-0.007 -0.006,-0.001 -0.0118,-0.003 -0.0173,-0.005 -0.058,-0.0124 -0.11549,-0.02 -0.17359,-0.032 -0.0972,-0.0193 -0.1957,-0.0399 -0.2929,-0.0594 -0.0827,-0.0181 -0.16481,-0.0383 -0.24735,-0.0571 -0.0542,-0.012 -0.10798,-0.0216 -0.16274,-0.0297 -0.0858,-0.0113 -0.17254,-0.0197 -0.25819,-0.032 -0.0653,-0.0104 -0.13051,-0.0229 -0.19528,-0.0366 -0.0704,-0.0141 -0.1397,-0.0266 -0.21046,-0.0388 -0.0651,-0.009 -0.13224,-0.0189 -0.19745,-0.0274 -0.0692,-0.009 -0.13853,-0.0147 -0.20829,-0.016 -0.0616,-0.002 -0.12288,-0.003 -0.18444,-0.002 -0.12772,8.4e-4 -0.2122,-0.043 -0.25603,-0.10277 -0.13343,-0.0125 -0.21226,-0.0778 -0.2365,-0.15304 z m 2.61019,0 c 0.0404,0.0378 0.0548,0.0815 0.0499,0.12106 0.0412,0.008 0.0824,0.0169 0.12368,0.0251 0.0598,0.0121 0.12042,0.0238 0.18009,0.0365 0.0305,0.006 0.061,0.0122 0.0911,0.0206 0.01,0.003 0.0203,0.006 0.0303,0.009 0.004,9e-4 0.008,0.003 0.0152,0.005 -0.0617,-0.008 -0.0855,0.003 -0.0868,0.0274 0.0441,0.01 0.0882,0.0196 0.13235,0.0297 0.0908,0.0198 0.18285,0.0387 0.27338,0.0594 0.0359,0.008 0.0704,0.0147 0.10632,0.0228 0.007,0.002 0.0134,0.003 0.0196,0.005 v -0.3609 z" /></clipPath></defs><sodipodi:namedview
     id="namedview22"
     pagecolor="#ffffff"
     bordercolor="#000000"
     borderopacity="0.25"
     inkscape:showpageshadow="2"
     inkscape:pageopacity="0.0"
     inkscape:pagecheckerboard="0"
     inkscape:deskcolor="#d1d1d1"
     showgrid="false"
     inkscape:zoom="2.3657103"
     inkscape:cx="330.13341"
     inkscape:cy="82.850383"
     inkscape:window-width="1309"
     inkscape:window-height="800"
     inkscape:window-x="118"
     inkscape:window-y="34"
     inkscape:window-maximized="0"
     inkscape:current-layer="g18" /><g
     transform="matrix(0.90016889,0,0,0.85507094,-170.25663,-215.58186)"
     id="g18"><path
       d="m 241.5702,317.53964 q 10.5751,-6.50621 18.35765,-8.48217 l 10.48355,26.4586 q 10.94135,28.91652 13.23033,41.20604 2.28899,12.24132 1.19028,16.72339 -0.59514,2.21693 -1.60229,1.97596 -22.93563,4.91581 -41.56797,14.74742 -5.8598,3.08443 -10.57511,6.26525 l -3.52503,2.55429 3.3877,-32.96483 1.7854,-18.07283 -26.55222,-14.79561 q 14.14593,-22.65127 35.38771,-35.61551"
       fill="#bdad7a"
       fill-rule="evenodd"
       stroke="none"
       id="path831"
       style="display:inline;fill:#b7ab29;fill-opacity:1;stroke-width:0.939427" /><g
       transform="matrix(0.91559383,0,0,0.96388389,16.57538,-5.5924269)"
       id="g936"
       style="display:inline;fill:#b7ab29;fill-opacity:1"><path
         d="m 648.1,390 1.95,18.75 3.7,34.2 q -5.2,-4.05 -15.4,-9.15 -20.35,-10.2 -45.4,-15.3 -1.1,0.25 -1.75,-2.05 -1.25,-4.65 1.25,-17.35 2.5,-12.75 14.5,-42.75 l 11.45,-27.45 5.7,1.85 q 7.15,2.7 14.35,6.95 23.2,13.45 38.65,36.95 l -29,15.35"
         fill="#bdad7a"
         fill-rule="evenodd"
         stroke="none"
         id="path932"
         style="display:inline;fill:#b7ab29;fill-opacity:1" /><path
         d="m 648.1,390 1.95,18.75 3.7,34.2 q -5.2,-4.05 -15.4,-9.15 -20.35,-10.2 -45.4,-15.3 -1.1,0.25 -1.75,-2.05 -1.25,-4.65 1.25,-17.35 2.5,-12.75 14.5,-42.75 l 11.45,-27.45 5.7,1.85 q 7.15,2.7 14.35,6.95 23.2,13.45 38.65,36.95 z"
         fill="none"
         stroke="#6b6346"
         stroke-linecap="butt"
         stroke-linejoin="miter-clip"
         stroke-miterlimit="10"
         stroke-width="4.1"
         id="path934"
         style="display:none;fill:#b7ab29;fill-opacity:1" /></g><path
       d="m 442.13783,282.59119 2.39015,5.6869 h 19.45086 l 3.83248,-4.69788 q 37.78907,2.10169 69.19067,7.54133 33.04999,5.72812 54.68495,14.46452 0.8654,2.84346 -0.12363,12.28042 -0.78298,7.37649 -4.03852,30.12411 -5.06877,35.7286 -8.94245,39.10778 -19.03877,-7.58254 -49.53377,-12.65131 l -3.09071,-13.80516 -3.83248,12.69251 q -40.92099,-6.14021 -90.86685,-6.59351 -49.61618,-0.45331 -92.72127,4.8215 l -2.5962,-6.92319 -19.24482,3.9149 -1.97805,6.5111 q -28.18727,4.94513 -45.98975,12.03316 -4.53304,-1.52475 -10.30237,-39.6435 -3.42038,-22.70641 -4.03852,-31.19556 -0.65935,-9.1485 1.27749,-10.67325 18.00853,-7.25286 44.17654,-12.48646 24.89051,-4.98635 55.26188,-7.74738 l 4.20336,12.93977 2.76104,-13.55791 q 38.8193,-3.09071 80.06997,-2.14289"
       fill="#d3c289"
       fill-rule="evenodd"
       stroke="none"
       id="path6"
       style="display:inline;stroke-width:0.824189;fill:#d9ce54;fill-opacity:1"
       clip-path="url(#clipPath5699)" /><rect
       style="fill:#ffffff;fill-opacity:0.515254;stroke-width:1.16967"
       id="rect3722"
       width="18.08227"
       height="89.884544"
       x="615.7901"
       y="232.22206"
       transform="matrix(0.99206719,0.12570875,-0.43030251,0.90268474,0,0)" /><rect
       style="fill:#ffffff;fill-opacity:0.559889;stroke-width:1.03932"
       id="rect4424"
       width="50.785362"
       height="91.090919"
       x="317.37271"
       y="356.18991"
       ry="0"
       transform="matrix(0.9980987,-0.17557788,-0.24019368,1.1219609,66.17004,-51.32181)"
       clip-path="url(#clipPath4755)" /><text
       xml:space="preserve"
       style="font-size:64.7395px;font-family:'GhostKid AOE';-inkscape-font-specification:'GhostKid AOE';display:inline;fill:#6e6719;stroke-width:0.867138;fill-opacity:1"
       x="227.55133"
       y="392.20724"
       id="text273"
       transform="matrix(0.94281372,-0.18533006,0.17167896,1.0269078,0,0)"><tspan
         sodipodi:role="line"
         id="tspan271"
         style="font-style:normal;font-variant:normal;font-weight:normal;font-stretch:normal;font-size:64.7395px;font-family:'Billy Serif';-inkscape-font-specification:'Billy Serif';stroke-width:0.867138;fill:#6e6719;fill-opacity:1"
         x="227.55133"
         y="392.20724">U</tspan></text><text
       xml:space="preserve"
       style="font-size:64.7396px;font-family:'GhostKid AOE';-inkscape-font-specification:'GhostKid AOE';display:inline;fill:#6e6719;stroke-width:0.867138;fill-opacity:1"
       x="271.67892"
       y="390.75528"
       id="text273-7"
       transform="matrix(0.94418914,-0.1787239,0.16384486,1.0280959,0,0)"><tspan
         id="tspan271-1"
         style="font-style:normal;font-variant:normal;font-weight:normal;font-stretch:normal;font-size:64.7396px;font-family:'Billy Serif';-inkscape-font-specification:'Billy Serif';stroke-width:0.867138;fill:#6e6719;fill-opacity:1"
         x="271.67892"
         y="390.75528"
         sodipodi:role="line">N</tspan></text><text
       xml:space="preserve"
       style="font-style:normal;font-variant:normal;font-weight:normal;font-stretch:normal;font-size:64.7396px;font-family:'Billy Serif';-inkscape-font-specification:'Billy Serif';fill:#6e6719;stroke-width:0.867138;fill-opacity:1"
       x="340.69498"
       y="366.94534"
       id="text664"
       transform="matrix(0.95405308,-0.09894217,0.09015187,1.0388103,0,0)"><tspan
         sodipodi:role="line"
         id="tspan662"
         style="stroke-width:0.867138;fill:#6e6719;fill-opacity:1"
         x="340.69498"
         y="366.94534">L</tspan></text><text
       xml:space="preserve"
       style="font-style:normal;font-variant:normal;font-weight:normal;font-stretch:normal;font-size:64.7399px;font-family:'Billy Serif';-inkscape-font-specification:'Billy Serif';fill:#6e6719;stroke-width:0.867138;fill-opacity:1"
       x="399.97659"
       y="336.08035"
       id="text668"
       transform="matrix(0.95818513,-0.01554228,0.01527107,1.0433919,0,0)"><tspan
         sodipodi:role="line"
         id="tspan666"
         style="stroke-width:0.867138;fill:#6e6719;fill-opacity:1"
         x="399.97659"
         y="336.08035">I</tspan></text><text
       xml:space="preserve"
       style="font-style:normal;font-variant:normal;font-weight:normal;font-stretch:normal;font-size:64.7396px;font-family:'Billy Serif';-inkscape-font-specification:'Billy Serif';fill:#6e6719;stroke-width:0.867138;fill-opacity:1"
       x="434.4194"
       y="313.51724"
       id="text672"
       transform="matrix(0.95773381,0.03514319,-0.0330427,1.042919,0,0)"><tspan
         sodipodi:role="line"
         id="tspan670"
         style="stroke-width:0.867138;fill:#6e6719;fill-opacity:1"
         x="434.4194"
         y="313.51724">M</tspan></text><text
       xml:space="preserve"
       style="font-style:normal;font-variant:normal;font-weight:normal;font-stretch:normal;font-size:64.7399px;font-family:'Billy Serif';-inkscape-font-specification:'Billy Serif';fill:#6e6719;stroke-width:0.867138;fill-opacity:1"
       x="493.47757"
       y="300.99875"
       id="text676"
       transform="matrix(0.95654918,0.06430248,-0.05802306,1.0415241,0,0)"><tspan
         sodipodi:role="line"
         id="tspan674"
         style="stroke-width:0.867138;fill:#6e6719;fill-opacity:1"
         x="493.47757"
         y="300.99875">I</tspan></text><text
       xml:space="preserve"
       style="font-style:normal;font-variant:normal;font-weight:normal;font-stretch:normal;font-size:64.74px;font-family:'Billy Serif';-inkscape-font-specification:'Billy Serif';fill:#6e6719;stroke-width:0.867138;fill-opacity:1"
       x="516.42297"
       y="296.00439"
       id="text680"
       transform="matrix(0.9560637,0.07397108,-0.06589748,1.0408569,0,0)"><tspan
         sodipodi:role="line"
         id="tspan678"
         style="stroke-width:0.867138;fill:#6e6719;fill-opacity:1"
         x="516.42297"
         y="296.00439">T</tspan></text><text
       xml:space="preserve"
       style="font-style:normal;font-variant:normal;font-weight:normal;font-stretch:normal;font-size:64.7398px;font-family:'Billy Serif';-inkscape-font-specification:'Billy Serif';fill:#6e6719;stroke-width:0.867138;fill-opacity:1"
       x="566.13513"
       y="249.77869"
       id="text684"
       transform="matrix(0.94785108,0.16295788,-0.14337841,1.0303679,0,0)"><tspan
         sodipodi:role="line"
         id="tspan682"
         style="stroke-width:0.867138;fill:#6e6719;fill-opacity:1"
         x="566.13513"
         y="249.77869">E</tspan></text><text
       xml:space="preserve"
       style="font-style:normal;font-variant:normal;font-weight:normal;font-stretch:normal;font-size:64.7396px;font-family:'Billy Serif';-inkscape-font-specification:'Billy Serif';fill:#6e6719;stroke-width:0.867138;fill-opacity:1"
       x="609.92017"
       y="217.85773"
       id="text688"
       transform="matrix(0.93791853,0.21745049,-0.19690678,1.0205391,0,0)"><tspan
         sodipodi:role="line"
         id="tspan686"
         style="stroke-width:0.867138;fill:#6e6719;fill-opacity:1"
         x="609.92017"
         y="217.85773">D</tspan></text><path
       style="fill:#78701b;fill-opacity:1;stroke-width:0.351918"
       d="m 200.86406,99.349 c 0.34241,-0.08923 0.8175,-0.08336 1.05576,0.01304 0.23826,0.0964 -0.0419,0.169402 -0.62256,0.16223 -0.58066,-0.0072 -0.7756,-0.08604 -0.4332,-0.17527 z"
       id="path3412"
       transform="matrix(1.1109026,0,0,1.1694936,189.13854,252.12161)" /><path
       style="fill:#78701b;fill-opacity:1;stroke-width:0.196066"
       d="m 273.12334,397.90644 c 0,-1.80042 0.0228,-1.90784 0.42996,-2.0264 0.23647,-0.0689 2.10678,-0.53999 4.15624,-1.04697 2.04946,-0.50699 3.75177,-0.94823 3.78292,-0.98052 0.0312,-0.0323 -0.22742,-0.37576 -0.57458,-0.76327 -0.65033,-0.72592 -0.66378,-0.73132 -6.12249,-2.45981 l -1.67205,-0.52945 v -3.17502 -3.17501 l 2.43642,-0.8286 c 9.20244,-3.12963 23.61557,-6.7124 35.01755,-8.70455 1.41885,-0.24791 2.67976,-0.54962 2.80202,-0.67046 0.12225,-0.12085 0.62654,-1.57762 1.12067,-3.23728 0.49412,-1.65965 0.92145,-3.04464 0.94961,-3.07776 0.0497,-0.0584 20.19137,-4.16554 21.08273,-4.29901 0.40993,-0.0614 0.54358,0.1979 1.72865,3.35337 l 1.28437,3.4199 0.85108,-0.0349 c 0.46809,-0.0192 3.38782,-0.31239 6.48829,-0.65162 24.07195,-2.63374 48.09517,-3.83864 76.53222,-3.8385 29.95406,1.3e-4 54.18063,1.23328 79.3986,4.04144 5.24076,0.58359 15.29155,1.86741 16.5772,2.11747 l 2.01648,0.35843 -1.39543,1.37172 2.62669,1.80379 -3.24774,-0.31472 c -2.92084,-0.28304 -17.24312,-2.27384 -26.22734,-3.13276 -22.69214,-2.16947 -41.99807,-3.01187 -69.55736,-3.03511 -30.03289,-0.0253 -55.08652,1.29591 -80.52717,4.24673 -2.88037,0.33409 -5.33605,0.56744 -5.45707,0.51855 -0.12103,-0.0489 -0.76291,-1.54685 -1.42641,-3.3288 -1.03691,-2.78477 -1.26354,-3.23902 -1.61332,-3.2336 -0.22383,0.004 -4.05969,0.75302 -8.52417,1.66565 l -8.11723,1.65934 -0.97652,3.20032 c -0.72239,2.36748 -1.07157,3.23941 -1.34181,3.35058 -0.20091,0.0827 -1.74115,0.39 -3.42276,0.68298 -6.34108,1.10476 -14.87165,2.94572 -21.56118,4.65303 -3.39425,0.86629 -3.59287,0.94291 -3.49839,1.34956 0.65551,2.82135 0.63539,8.57747 -0.0363,10.38904 -0.50551,1.36335 -1.98388,3.38125 -2.56456,3.50049 -3.63149,0.74576 -9.71303,2.20132 -11.08339,2.65274 -0.30228,0.0995 -0.33441,-0.0725 -0.33441,-1.79105 z"
       id="path3414"
       sodipodi:nodetypes="ccsssscccsssscsscssssscccsssssscscscsssscccc" /><path
       style="display:inline;fill:#78701b;fill-opacity:1;stroke-width:0.266605"
       d="m 225.50448,421.37831 c 0.16497,-1.2796 2.65428,-25.5945 4.29073,-41.91064 0.57283,-5.71144 0.95526,-10.47158 0.84984,-10.57808 -0.10543,-0.1065 -6.09659,-3.4798 -13.31369,-7.49622 -7.21711,-4.01642 -13.22125,-7.39892 -13.34256,-7.51666 -0.4613,-0.44778 5.8963,-9.63156 10.41232,-15.04096 4.71988,-5.65359 10.36509,-11.19198 15.7924,-15.49356 6.02737,-4.77718 14.84181,-10.24622 20.65741,-12.81717 1.89072,-0.83585 2.06803,-1.02275 2.0773,-2.18967 0.0104,-1.31214 1.15294,-3.59841 2.0394,-4.081 1.43343,-0.78035 13.88394,-5.03642 19.15992,-6.54962 14.96259,-4.29139 32.82839,-7.91203 52.72707,-10.68553 8.93019,-1.24471 21.87879,-2.72405 26.80065,-3.0619 l 2.56146,-0.17583 1.2992,4.00085 c 0.71457,2.20047 1.35768,4.00134 1.42913,4.00192 0.0714,5.8e-4 0.50438,-1.85991 0.96202,-4.13443 0.45766,-2.27452 0.87929,-4.18517 0.93696,-4.24588 0.27123,-0.28553 18.04085,-1.42793 31.49068,-2.02451 8.4349,-0.37414 44.07296,-0.63106 47.9275,-0.34552 l 2.9749,0.22038 1.1069,2.59869 1.10691,2.59869 8.94553,0.0719 8.94553,0.0719 1.6377,-1.98672 c 0.90075,-1.0927 1.76402,-2.13848 1.91839,-2.32397 0.39106,-0.46986 17.1081,0.65273 31.58196,2.12081 2.92972,0.29716 5.58984,0.54058 5.9114,0.54093 0.5414,6.1e-4 0.58464,0.1223 0.58464,1.64516 v 1.64451 l -0.97441,-0.13773 c -4.48902,-0.6345 -31.78978,-2.87774 -35.02275,-2.87774 -0.36781,0 -1.16867,0.76652 -2.42934,2.32514 l -1.88066,2.32514 h -10.59066 -10.59065 l -1.1666,-2.80385 -1.1666,-2.80384 -7.39021,-0.24075 c -12.47125,-0.40625 -44.172,0.36802 -60.268,1.47202 -2.21515,0.15193 -5.35391,0.35653 -6.97501,0.45466 -2.66019,0.16102 -2.96971,0.23419 -3.17569,0.75074 -0.12552,0.31478 -0.83118,3.58818 -1.56813,7.27421 -0.73697,3.68604 -1.46108,6.86198 -1.60915,7.05765 -0.14808,0.19567 -0.55634,0.31876 -0.90725,0.27355 -0.58842,-0.0758 -0.81394,-0.62327 -2.90089,-7.04201 -1.24458,-3.82788 -2.41172,-7.01202 -2.59364,-7.07586 -0.40833,-0.14329 -4.72697,0.26883 -14.04966,1.3407 -26.15433,3.00709 -50.10978,7.64889 -68.33836,13.24178 -4.61486,1.41593 -13.68976,4.5791 -14.5975,5.08814 -1.73231,0.97143 -1.13702,10.5858 1.98993,32.1392 3.73756,25.76223 6.45069,38.87088 9.26583,44.7684 0.41294,0.86508 0.80492,1.57288 0.87106,1.57288 0.0661,0 0.89687,-0.30774 1.84608,-0.68386 0.94921,-0.37613 1.82885,-0.68387 1.95475,-0.68387 0.1259,0 0.2289,1.35405 0.2289,3.00901 0,1.65495 -0.0292,3.00686 -0.065,3.00423 -0.0357,-0.002 -1.21998,-0.36303 -2.63167,-0.8009 -1.95408,-0.60612 -2.78035,-1.01305 -3.46175,-1.7049 -2.2229,-2.25697 -4.44285,-9.38035 -6.9326,-22.24535 -2.38875,-12.34312 -6.39542,-40.29769 -7.04742,-49.16993 -0.0968,-1.31644 -0.25313,-2.39353 -0.34753,-2.39353 -0.45128,0 -8.11304,4.25915 -11.34177,6.30485 -7.5403,4.77748 -12.51024,8.90425 -19.24797,15.98244 -4.71022,4.94824 -8.89686,10.10023 -11.79849,14.51897 l -1.32021,2.01046 0.59139,0.34502 c 0.32526,0.18976 6.14549,3.443 12.93386,7.22942 l 12.34248,6.88439 -0.0791,0.922 c -0.19633,2.28755 -2.49398,25.25467 -3.55207,35.50606 -0.64333,6.23294 -1.11769,11.38737 -1.05415,11.45426 0.0635,0.0669 1.21234,-0.56737 2.55288,-1.40948 10.34153,-6.49648 23.83247,-12.48684 36.43157,-16.17661 1.85786,-0.5441 3.55333,-1.04295 3.7677,-1.10856 0.31959,-0.0978 0.38976,0.21858 0.38976,1.75729 v 1.87655 l -1.81889,0.48647 c -1.00039,0.26756 -4.31955,1.33978 -7.37592,2.38272 -13.28649,4.53381 -24.75327,10.24688 -34.25535,17.067 -2.17483,1.56097 -4.02362,2.83813 -4.10843,2.83813 -0.0848,0 -0.0868,-0.52316 -0.004,-1.16257 z"
       id="path3416"
       clip-path="url(#clipPath5709)" /><path
       style="fill:#78701b;fill-opacity:1;stroke-width:0.610591"
       d="m 559.54353,389.23605 c 0.18799,-3.22472 0.49597,-6.02543 0.6844,-6.22381 0.38375,-0.40397 3.79993,0.45508 10.43808,2.62481 l 4.46323,1.45886 -4.46323,1.42744 c -5.47571,1.75127 -7.53175,2.78983 -9.74905,4.92452 l -1.71521,1.65132 z"
       id="path3418" /><path
       style="fill:#78701b;fill-opacity:1;stroke-width:0.422269"
       d="m 382.32603,145.7552 c -9.76812,-7.382 -28.04106,-14.97752 -45.35551,-18.85293 -3.65612,-0.81833 -4.84039,-1.26428 -5.56296,-2.09481 -1.25781,-1.44572 -1.58685,-4.67517 -0.98765,-9.69365 0.27136,-2.27271 0.41705,-4.20853 0.32376,-4.30182 -0.33018,-0.33017 -9.49627,-2.26836 -16.7868,-3.5496 -4.06434,-0.71427 -7.79249,-1.38529 -8.28477,-1.49116 -0.74754,-0.16076 -1.01941,-0.785 -1.64951,-3.78754 -0.41494,-1.97728 -0.89098,-3.595056 -1.05787,-3.595056 -0.16689,0 -0.74445,1.526228 -1.28346,3.391616 -0.71464,2.4732 -1.13851,3.33079 -1.56531,3.16701 -0.32192,-0.12352 -0.9498,-0.22459 -1.3953,-0.22459 -0.98185,0 -1.14222,-1.96531 -0.22017,-2.6982 0.3244,-0.25785 1.49673,-3.366639 2.60517,-6.908419 1.10844,-3.54178 2.12566,-6.439224 2.26049,-6.438759 0.13483,4.22e-4 0.99273,3.241242 1.90645,7.201735 0.91372,3.960493 1.83469,7.308043 2.04659,7.439013 0.21191,0.13096 3.92981,0.88445 8.26201,1.67441 9.66803,1.76295 21.29181,4.59974 28.8993,7.05289 l 5.71876,1.8441 0.65173,-1.52194 c 1.95372,-4.56241 4.04286,-14.684245 6.76365,-32.769828 2.71917,-18.074774 3.63634,-25.527514 3.63634,-29.547936 v -3.51992 l -6.65073,-2.188065 c -16.96585,-5.581695 -42.1811,-10.549825 -67.56301,-13.311857 -2.56509,-0.27913 -2.63918,-0.321594 -2.63918,-1.512538 0,-0.67394 0.18531,-1.225345 0.41181,-1.225345 0.2265,0 4.92444,0.570871 10.43988,1.268604 17.60878,2.227602 33.41095,5.105837 46.33952,8.440359 9.57368,2.469232 20.91588,6.155701 21.86766,7.107481 0.22894,0.228944 0.42369,2.032994 0.43278,4.008999 l 0.0165,3.592737 1.73382,0.774999 c 2.99256,1.337639 11.27801,6.468643 15.45756,9.572543 7.32735,5.441568 19.00094,18.026857 22.90617,24.695132 l 0.73705,1.25853 -12.19531,6.440225 -12.1953,6.44022 0.18231,1.52098 c 0.79946,6.66928 4.71313,44.1744 4.6194,44.26813 -0.0657,0.0657 -1.33739,-0.80085 -2.82589,-1.92575 z m -2.90625,-24.79611 c -1.16743,-10.89006 -2.12259,-20.01815 -2.12259,-20.28466 0,-0.2665 5.13066,-3.188374 11.40147,-6.493058 6.2708,-3.30468 11.48645,-6.146026 11.59032,-6.314093 0.26187,-0.423709 -4.57087,-6.770591 -8.06518,-10.592086 -6.13839,-6.713149 -12.61253,-12.177692 -19.45683,-16.422662 -3.45171,-2.14082 -8.28279,-4.690778 -8.88701,-4.690778 -0.19303,0 -0.58891,1.947715 -0.87973,4.328255 -2.64205,21.627131 -6.93741,45.527162 -9.31764,51.844822 -1.44052,3.82348 -2.09874,4.31537 -8.37792,6.26075 -3.08039,0.95436 -6.16259,2.02575 -6.84934,2.38088 -1.11136,0.57471 -2.41536,2.18552 -2.04686,2.52844 0.0769,0.0715 2.80007,0.82555 6.05154,1.67556 13.26889,3.46881 25.90557,8.54011 35.68172,14.31963 1.74185,1.02977 3.21958,1.73433 3.28382,1.5657 0.0643,-0.16863 -0.83835,-9.21665 -2.00577,-20.1067 z m -42.29867,-2.69294 c 0.85178,-0.43455 2.97156,-1.21399 4.71061,-1.73209 1.73905,-0.5181 3.31043,-1.07537 3.49195,-1.23837 0.18153,-0.163 -1.62367,-0.89493 -4.01155,-1.62651 -5.36004,-1.64216 -6.91744,-1.9606 -7.21715,-1.47566 -0.38533,0.62348 -0.84644,7.62049 -0.55264,8.38609 0.23493,0.61222 0.39453,0.55589 1.1514,-0.40631 0.48327,-0.61438 1.57559,-1.4726 2.42738,-1.90715 z"
       id="path3420"
       transform="matrix(1.1109026,0,0,1.1694936,189.13854,252.12161)"
       clip-path="url(#clipPath5719)" /><path
       style="fill:#78701b;fill-opacity:1;stroke-width:0.0175951"
       d="m 275.61925,395.36291 c 0.009,-0.004 0.68852,-0.1742 1.50909,-0.37817 2.51352,-0.62481 4.18912,-1.05475 4.31717,-1.10771 0.0259,-0.0105 0.0472,-0.0305 0.0472,-0.044 0,-0.0712 -0.28707,-0.43841 -0.64297,-0.8223 -0.61076,-0.65881 -0.70477,-0.69578 -6.16071,-2.42289 l -1.56477,-0.49534 -5e-5,-3.17088 -5e-5,-3.17087 0.0472,-0.0122 c 0.0259,-0.007 0.61821,-0.20599 1.31616,-0.44297 1.65161,-0.56077 1.95903,-0.66382 2.65804,-0.89103 1.88987,-0.61431 4.06703,-1.27578 6.19067,-1.88084 0.30182,-0.086 0.61242,-0.17489 0.69023,-0.19754 l 0.14148,-0.0412 v 7.544 7.54398 l -4.28288,-10e-4 c -2.35558,-7.8e-4 -4.27516,-0.005 -4.26573,-0.008 z"
       id="path3957" /><path
       style="fill:#78701b;fill-opacity:1;stroke-width:0.00390625"
       d="m 75.549502,125.19497 c -3.71e-4,-0.45029 -0.0014,-0.86425 -0.0023,-0.91992 -8.93e-4,-0.0557 -8.82e-4,-0.0942 2.3e-5,-0.0856 9.05e-4,0.009 0.0044,0.038 0.0077,0.0653 0.0036,0.0296 0.005,0.059 0.0034,0.0727 -0.0014,0.0127 -0.0039,0.39725 -0.0054,0.85463 l -0.0028,0.8316 z"
       id="path4026"
       transform="matrix(1.1109026,0,0,1.1694936,189.13854,252.12161)" /><rect
       style="fill:#78701b;fill-opacity:1;stroke-width:1.13996"
       id="rect4307"
       width="0.53082931"
       height="0.15494789"
       x="182.1487"
       y="452.42227"
       transform="matrix(0.97237173,-0.23343781,0.21170821,0.97733292,0,0)" /><rect
       style="fill:#78701b;fill-opacity:1;stroke-width:1.13998"
       id="rect4309"
       width="0.74871463"
       height="0.122997"
       x="174.93866"
       y="452.20361"
       transform="matrix(0.96771317,-0.252054,0.22878569,0.97347681,0,0)" /><path
       style="fill:#78701b;fill-opacity:1;stroke-width:0.00466542"
       d="m 75.554627,124.45046 c 5.63e-4,-0.11058 -3.7e-4,-0.20245 -0.0021,-0.20416 -0.0017,-0.002 -0.0034,0.0188 -0.0038,0.0455 -4.12e-4,0.0267 -0.0024,-0.0301 -0.0043,-0.12635 -0.01082,-0.5312 -0.04151,-0.79354 -0.108747,-0.92958 l -0.02017,-0.0408 0.01684,-0.004 c 0.02807,-0.007 0.261399,-0.0656 0.263014,-0.0656 8.28e-4,0 -0.0064,0.0236 -0.01598,0.0525 -0.05443,0.16334 -0.07009,0.39127 -0.07664,1.11501 l -0.0031,0.34406 -0.01923,0.005 c -0.01058,0.003 -0.02093,0.006 -0.02299,0.007 -0.0021,0.001 -0.0033,-0.0882 -0.0027,-0.19877 z"
       id="path4319"
       transform="matrix(1.1109026,0,0,1.1694936,189.13854,252.12161)" /><rect
       style="fill:#78701b;fill-opacity:1;stroke-width:1.13982"
       id="rect4341"
       width="0.77039194"
       height="1.8790623"
       x="272.50363"
       y="397.74606" /><rect
       style="fill:#78701b;fill-opacity:1;stroke-width:1.13982"
       id="rect4343"
       width="2.0828052"
       height="4.6208868"
       x="272.22696"
       y="384.67764" /><path
       style="fill:#78701b;fill-opacity:1;stroke-width:1.13982"
       d="m 273.14074,383.74198 -4.27663,1.5888 3.30873,1.38938 1.89601,-2.1917 z"
       id="path4360" /><rect
       style="fill:#78701b;fill-opacity:1;stroke-width:1.14006"
       id="rect4368"
       width="0.49702126"
       height="0.89158362"
       x="371.49918"
       y="285.83868"
       transform="matrix(0.9510829,0.30893578,-0.2812616,0.95963113,0,0)" /><ellipse
       style="fill:#78701b;fill-opacity:1;stroke-width:1.13982"
       id="path5381"
       cx="505.24011"
       cy="286.6752"
       rx="1.7734385"
       ry="1.9836587"
       clip-path="url(#clipPath5729)" /><rect
       style="fill:#d9ce54;fill-opacity:1;stroke-width:1.13984"
       id="rect6128"
       width="2.4143288"
       height="1.3599845"
       x="514.10364"
       y="267.66983"
       transform="matrix(0.99919538,0.04010723,-0.0361946,0.99934476,0,0)" /><path
       style="fill:#78701b;fill-opacity:1;stroke-width:0.00390625"
       d="m 297.86607,103.43591 -0.0246,-0.0156 0.0234,-0.0234 c 0.0129,-0.0129 0.0245,-0.0224 0.0257,-0.0212 10e-4,0.001 0.002,0.0188 10e-4,0.0391 l -10e-4,0.0368 z"
       id="path6254"
       transform="matrix(1.1109026,0,0,1.1694936,189.13854,252.12161)" /></g></svg>
