<?xml version="1.0" encoding="UTF-8" standalone="no"?>
<svg xmlns:ffdec="https://www.free-decompiler.com/flash" xmlns:xlink="http://www.w3.org/1999/xlink" ffdec:objectType="shape" height="228.2px" width="338.55px" xmlns="http://www.w3.org/2000/svg">
  <g transform="matrix(1.0, 0.0, 0.0, 1.0, 1.0, 3.05)">
    <path d="M331.4 5.1 Q336.35 10.05 336.55 17.05 L336.55 207.1 Q336.35 214.1 331.4 219.05 L331.15 219.3 Q326.25 224.0 319.5 224.15 L319.05 224.15 247.55 224.15 199.0 224.1 185.05 224.1 90.65 224.15 89.0 224.15 17.5 224.15 17.05 224.15 Q10.3 224.0 5.4 219.3 L5.15 219.05 Q0.2 214.1 0.0 207.1 L0.0 17.05 Q0.2 10.05 5.15 5.1 L5.4 4.85 Q10.3 0.15 17.05 0.0 L17.5 0.0 319.05 0.0 319.5 0.0 Q326.25 0.15 331.15 4.85 L331.4 5.1" fill="#35a5ff" fill-rule="evenodd" stroke="none"/>
    <path d="M331.4 5.1 L331.15 4.85 Q326.25 0.15 319.5 0.0 L319.05 0.0 17.5 0.0 17.05 0.0 Q10.3 0.15 5.4 4.85 L5.15 5.1 Q0.2 10.05 0.0 17.05 L0.0 207.1 Q0.2 214.1 5.15 219.05 L5.4 219.3 Q10.3 224.0 17.05 224.15 L17.5 224.15 89.0 224.15 90.65 224.15 185.05 224.1 199.0 224.1 247.55 224.15 319.05 224.15 319.5 224.15 Q326.25 224.0 331.15 219.3 L331.4 219.05 Q336.35 214.1 336.55 207.1 L336.55 17.05 Q336.35 10.05 331.4 5.1 Z" fill="none" stroke="#62b8fd" stroke-linecap="round" stroke-linejoin="miter-clip" stroke-miterlimit="3.0" stroke-width="2.0"/>
    <path d="M336.6 63.8 L336.6 82.15 Q327.85 67.85 315.2 55.2 274.3 14.3 216.45 14.3 202.95 14.3 190.4 16.55 149.1 23.85 117.7 55.2 76.8 96.1 76.8 153.95 76.8 172.9 81.2 190.05 85.85 208.15 95.35 224.2 L90.65 224.2 89.0 224.2 73.05 224.2 Q52.95 189.95 52.95 147.45 52.95 83.65 98.1 38.55 126.0 10.65 161.1 0.0 L252.85 0.0 Q287.95 10.65 315.85 38.55 326.8 49.5 335.05 61.5 L336.6 63.8" fill="#000000" fill-opacity="0.2" fill-rule="evenodd" stroke="none"/>
  </g>
</svg>
