<?xml version="1.0" encoding="UTF-8" standalone="no"?>
<svg xmlns:ffdec="https://www.free-decompiler.com/flash" xmlns:xlink="http://www.w3.org/1999/xlink" ffdec:objectType="shape" height="11.5px" width="11.5px" xmlns="http://www.w3.org/2000/svg">
  <g transform="matrix(1.0, 0.0, 0.0, 1.0, -742.15, -99.1)">
    <path d="M751.95 100.8 Q753.65 102.45 753.65 104.85 753.65 107.25 751.95 108.9 750.25 110.6 747.85 110.6 745.5 110.6 743.85 108.9 742.15 107.25 742.15 104.85 742.15 102.45 743.85 100.8 745.5 99.1 747.85 99.1 750.25 99.1 751.95 100.8 M747.85 99.9 Q745.85 99.9 744.4 101.35 742.95 102.8 742.95 104.85 742.95 106.9 744.4 108.35 745.85 109.8 747.85 109.8 749.9 109.8 751.35 108.35 752.8 106.9 752.8 104.85 752.8 102.8 751.35 101.35 749.9 99.9 747.85 99.9 M746.65 102.45 L746.65 104.7 747.65 104.7 748.75 104.55 Q749.4 104.3 749.4 103.6 749.4 102.9 748.95 102.65 L747.65 102.45 746.65 102.45 M747.75 101.65 L749.45 101.9 Q750.45 102.3 750.45 103.45 750.45 104.35 749.85 104.75 L748.95 105.05 750.05 105.65 750.35 106.65 750.35 107.1 750.4 107.55 750.45 107.85 750.45 107.95 749.45 107.95 749.45 107.9 749.4 107.85 749.4 107.1 Q749.4 106.05 748.8 105.7 L747.55 105.45 746.65 105.45 746.65 107.95 745.55 107.95 745.55 101.65 747.75 101.65" fill="#ffffff" fill-opacity="0.49803922" fill-rule="evenodd" stroke="none"/>
  </g>
</svg>
