<?xml version="1.0" encoding="UTF-8" standalone="no"?>
<svg xmlns:ffdec="https://www.free-decompiler.com/flash" xmlns:xlink="http://www.w3.org/1999/xlink" ffdec:objectType="shape" height="163.25px" width="277.3px" xmlns="http://www.w3.org/2000/svg">
  <g transform="matrix(1.0, 0.0, 0.0, 1.0, 23.9, 15.2)">
    <path d="M20.6 -4.3 Q26.75 -9.8 31.5 -12.05 37.6 -15.0 45.75 -15.2 L198.3 -15.2 Q211.0 -15.2 220.0 -6.2 229.0 2.8 229.05 15.55 L229.05 60.65 Q229.2 77.95 223.7 90.35 221.4 95.55 219.45 97.85 L214.75 102.05 45.75 95.2 Q33.0 95.2 24.0 86.2 15.0 77.2 15.0 64.5 L3.7 16.25 Q10.05 5.1 20.6 -4.3" fill="url(#gradient0)" fill-rule="evenodd" stroke="none"/>
    <path d="M212.8 140.0 Q172.2 148.05 114.7 148.05 57.3 148.05 16.7 140.0 -23.9 131.95 -23.9 120.55 -23.9 109.15 16.7 101.1 57.3 93.05 114.7 93.05 172.2 93.05 212.8 101.1 253.4 109.15 253.4 120.55 253.4 131.95 212.8 140.0" fill="url(#gradient1)" fill-rule="evenodd" stroke="none"/>
    <path d="M0.0 68.0 L0.0 32.0 Q0.0 18.75 9.35 9.35 18.75 0.0 32.0 0.0 L190.95 0.0 Q204.2 0.0 213.55 9.35 222.95 18.75 222.95 32.0 L222.95 68.0 Q111.5 36.95 0.0 68.0" fill="url(#gradient2)" fill-rule="evenodd" stroke="none"/>
    <path d="M0.0 68.0 Q111.5 36.95 222.95 68.0 L222.95 83.0 Q222.95 96.25 213.55 105.6 204.2 115.0 190.95 115.0 L32.0 115.0 Q18.75 115.0 9.35 105.6 0.0 96.25 0.0 83.0 L0.0 68.0" fill="url(#gradient3)" fill-rule="evenodd" stroke="none"/>
  </g>
  <defs>
    <linearGradient gradientTransform="matrix(0.1333, 0.0506, -0.0253, 0.0668, 121.95, 34.95)" gradientUnits="userSpaceOnUse" id="gradient0" spreadMethod="pad" x1="-819.2" x2="819.2">
      <stop offset="0.0" stop-color="#0cf40c"/>
      <stop offset="0.08235294117647059" stop-color="#0cf20b"/>
      <stop offset="0.5725490196078431" stop-color="#0cf20b"/>
      <stop offset="0.7568627450980392" stop-color="#18f917"/>
      <stop offset="1.0" stop-color="#04e104"/>
    </linearGradient>
    <radialGradient cx="0" cy="0" gradientTransform="matrix(0.1722, 0.0, 0.0, 0.0341, 114.8, 120.55)" gradientUnits="userSpaceOnUse" id="gradient1" r="819.2" spreadMethod="pad">
      <stop offset="0.34901960784313724" stop-color="#000000" stop-opacity="0.15294118"/>
      <stop offset="1.0" stop-color="#000000" stop-opacity="0.0"/>
    </radialGradient>
    <linearGradient gradientTransform="matrix(0.0, 0.0385, -0.1361, 0.0, 111.5, 32.5)" gradientUnits="userSpaceOnUse" id="gradient2" spreadMethod="pad" x1="-819.2" x2="819.2">
      <stop offset="0.0" stop-color="#02e302"/>
      <stop offset="1.0" stop-color="#16d416"/>
    </linearGradient>
    <linearGradient gradientTransform="matrix(0.0, -0.061, 0.1361, 0.0, 111.45, 63.0)" gradientUnits="userSpaceOnUse" id="gradient3" spreadMethod="pad" x1="-819.2" x2="819.2">
      <stop offset="0.0" stop-color="#25fc25"/>
      <stop offset="1.0" stop-color="#02a002"/>
    </linearGradient>
  </defs>
</svg>
