<?xml version="1.0" encoding="UTF-8" standalone="no"?>
<svg xmlns:ffdec="https://www.free-decompiler.com/flash" xmlns:xlink="http://www.w3.org/1999/xlink" ffdec:objectType="shape" height="16.3px" width="16.05px" xmlns="http://www.w3.org/2000/svg">
  <g transform="matrix(1.0, 0.0, 0.0, 1.0, 0.0, 0.0)">
    <path d="M13.85 1.35 Q15.2 2.75 15.25 4.7 15.2 6.4 14.15 7.65 L14.65 8.1 Q16.0 9.45 16.05 11.5 16.0 13.5 14.65 14.9 13.25 16.25 11.25 16.3 9.2 16.25 7.85 14.9 L6.9 13.55 4.8 14.0 Q2.75 13.95 1.4 12.6 0.0 11.2 0.0 9.2 0.0 7.15 1.4 5.8 2.75 4.4 4.8 4.4 L5.85 4.5 Q5.9 2.7 7.2 1.35 8.6 0.0 10.55 0.0 12.45 0.0 13.85 1.35" fill="#ffffff" fill-rule="evenodd" stroke="none"/>
  </g>
</svg>
