<?xml version="1.0" encoding="UTF-8" standalone="no"?>
<svg xmlns:ffdec="https://www.free-decompiler.com/flash" xmlns:xlink="http://www.w3.org/1999/xlink" ffdec:objectType="shape" height="24.25px" width="15.1px" xmlns="http://www.w3.org/2000/svg">
  <g transform="matrix(1.0, 0.0, 0.0, 1.0, -11.95, -2.0)">
    <path d="M27.05 3.5 Q26.45 3.55 26.0 3.75 L25.15 4.15 24.45 4.65 24.2 4.9 24.3 5.0 24.7 5.75 24.75 6.3 24.75 6.7 25.3 7.1 Q26.5 8.1 26.55 9.4 26.5 11.05 24.6 12.2 22.65 13.35 19.95 13.35 17.25 13.35 15.35 12.2 13.4 11.05 13.4 9.4 13.4 8.2 14.45 7.3 L14.7 7.05 15.05 6.8 15.0 6.6 15.0 6.55 14.75 6.45 13.45 5.9 13.75 5.9 14.95 5.85 15.05 5.45 15.15 5.25 14.25 3.9 Q15.0 3.95 15.7 4.4 L15.85 4.5 16.6 4.1 16.85 3.75 17.5 2.9 18.2 2.2 18.35 2.0 18.4 2.85 18.35 3.85 18.35 4.1 Q19.35 3.25 20.55 2.7 21.5 2.25 22.55 2.15 21.6 2.7 21.25 3.9 L21.15 4.25 22.05 3.95 23.55 3.6 25.05 3.55 26.85 3.5 27.05 3.5 M20.45 18.65 L20.35 19.15 19.75 20.75 19.45 21.3 Q18.0 22.1 16.3 21.7 L15.65 21.5 14.85 21.1 14.75 21.0 14.4 20.75 14.05 20.35 13.95 18.9 14.1 17.6 Q14.5 15.65 15.75 14.55 L15.9 14.4 16.0 14.35 16.2 14.2 16.9 13.8 17.2 13.7 17.6 13.65 18.25 13.75 18.7 13.9 19.1 14.15 19.35 14.35 20.15 15.65 Q20.65 17.0 20.45 18.65 M12.85 17.9 L12.9 17.9 13.1 17.95 13.5 18.15 13.8 18.85 13.5 19.6 12.9 19.85 12.25 19.6 Q11.95 19.3 11.95 18.85 11.95 18.45 12.25 18.15 12.5 17.9 12.85 17.9 M14.05 25.6 L14.45 25.5 15.0 25.4 15.5 25.35 16.05 25.25 16.55 25.25 17.05 25.3 17.4 25.65 17.2 26.15 16.75 26.25 16.2 26.25 15.7 26.25 15.15 26.2 14.65 26.15 14.2 26.1 Q13.9 26.0 13.95 25.7 L14.0 25.6 14.05 25.6 M19.05 25.55 L19.45 25.45 20.0 25.35 20.55 25.3 21.1 25.2 21.65 25.15 22.2 25.25 22.55 25.65 22.35 26.15 21.85 26.25 21.3 26.25 20.75 26.25 20.2 26.2 19.65 26.15 19.15 26.1 Q18.85 26.0 18.9 25.65 L18.95 25.6 19.05 25.55" fill="#ffffff" fill-rule="evenodd" stroke="none"/>
    <path d="M15.9 14.4 L15.65 14.45 Q13.05 15.2 12.85 17.9 M14.75 21.0 L14.85 21.1 Q16.05 22.85 14.05 25.6 M19.05 25.55 Q21.0 23.05 19.75 20.75" fill="none" stroke="#ffffff" stroke-linecap="round" stroke-linejoin="round" stroke-width="1.0"/>
  </g>
</svg>
