<?xml version="1.0" encoding="UTF-8" standalone="no"?>
<svg xmlns:ffdec="https://www.free-decompiler.com/flash" xmlns:xlink="http://www.w3.org/1999/xlink" ffdec:objectType="shape" height="23.7px" width="16.5px" xmlns="http://www.w3.org/2000/svg">
  <g transform="matrix(1.0, 0.0, 0.0, 1.0, -11.8, -2.55)">
    <path d="M25.45 5.45 L25.95 6.0 Q26.25 6.35 26.7 6.4 L27.55 6.2 28.05 5.55 28.1 5.3 28.05 4.65 28.1 4.65 28.25 5.3 28.25 6.65 Q27.95 7.85 26.7 8.1 25.6 8.2 24.85 7.35 L24.05 6.45 23.8 6.8 23.2 7.05 23.05 7.05 23.0 7.3 23.3 7.5 23.55 7.75 Q24.55 8.65 24.6 9.8 24.6 11.4 22.7 12.55 20.85 13.65 18.2 13.65 15.55 13.65 13.65 12.55 11.8 11.4 11.8 9.8 11.8 8.55 13.0 7.55 L13.55 7.15 13.5 6.8 Q13.5 6.05 13.95 5.5 14.25 5.15 14.65 5.05 13.2 4.3 12.1 3.0 17.3 1.6 19.75 4.65 L20.2 4.55 20.6 4.5 21.45 4.65 22.35 5.15 22.75 5.5 23.2 5.4 Q23.55 5.35 23.8 5.65 L23.85 5.7 Q24.15 5.3 24.6 5.25 L25.45 5.45 M17.95 22.45 L16.95 22.1 17.8 19.0 17.75 18.8 Q17.5 17.2 18.05 15.9 18.65 14.35 19.9 14.05 20.95 13.75 21.9 14.45 L22.1 14.6 22.15 14.65 22.35 14.8 Q23.5 15.9 23.95 17.8 L24.05 18.3 24.25 19.15 24.25 19.05 Q24.2 18.65 24.5 18.35 L24.9 18.1 25.1 18.1 25.15 18.1 25.75 18.35 26.0 19.05 25.75 19.7 25.1 20.0 Q24.75 20.0 24.5 19.7 L24.3 19.45 24.9 21.75 24.8 21.8 22.75 22.6 Q22.75 21.85 23.2 21.2 22.75 21.85 22.75 22.6 L17.95 22.45 Q18.0 21.65 18.4 20.9 18.0 21.65 17.95 22.45 M23.2 21.2 L23.25 21.15 23.2 21.2 M24.0 25.6 L24.05 25.6 24.05 25.7 23.85 26.05 23.4 26.15 22.9 26.2 22.35 26.2 21.85 26.25 21.35 26.25 20.9 26.1 Q20.65 25.95 20.7 25.65 20.75 25.35 21.05 25.3 L21.55 25.25 22.05 25.3 22.55 25.35 23.05 25.4 23.55 25.5 24.0 25.6 M23.3 20.85 L23.25 21.15 23.45 21.0 23.3 20.85 M19.1 25.55 L19.2 25.6 19.25 25.65 Q19.3 26.0 19.0 26.05 L18.5 26.15 18.0 26.2 17.45 26.25 16.9 26.25 16.35 26.25 15.85 26.1 Q15.6 25.95 15.7 25.65 L16.0 25.25 16.55 25.2 17.1 25.25 17.65 25.3 18.15 25.35 18.7 25.45 19.1 25.55" fill="#ffffff" fill-rule="evenodd" stroke="none"/>
    <path d="M23.25 21.15 L23.3 20.85 23.45 21.0 23.25 21.15" fill="#336699" fill-rule="evenodd" stroke="none"/>
    <path d="M21.45 4.65 L21.4 4.05 M17.95 22.45 Q18.0 21.65 18.4 20.9 M22.15 14.65 L22.4 14.7 Q24.9 15.45 25.15 18.1 M23.2 21.2 L23.25 21.15 23.3 20.85 M23.2 21.2 Q22.75 21.85 22.75 22.6 22.75 23.9 24.0 25.6 M20.2 4.55 L20.0 4.05 M13.95 5.5 L13.5 5.3 M19.1 25.55 Q17.85 23.95 17.95 22.45" fill="none" stroke="#ffffff" stroke-linecap="round" stroke-linejoin="round" stroke-width="1.0"/>
  </g>
</svg>
