<?xml version="1.0" encoding="UTF-8" standalone="no"?>
<svg xmlns:ffdec="https://www.free-decompiler.com/flash" xmlns:xlink="http://www.w3.org/1999/xlink" ffdec:objectType="shape" height="140.1px" width="252.4px" xmlns="http://www.w3.org/2000/svg">
  <g transform="matrix(1.0, 0.0, 0.0, 1.0, 148.2, 57.8)">
    <path d="M-25.5 69.9 L-4.5 69.9 -4.5 39.3 -25.5 39.3 -25.5 69.9" fill="#9f9864" fill-rule="evenodd" stroke="none"/>
    <path d="M-25.5 69.9 L-25.5 39.3 -4.5 39.3 -4.5 69.9 -25.5 69.9 M-25.5 38.3 Q-25.9 38.3 -26.2 38.6 L-26.5 39.3 -26.5 69.9 -26.2 70.6 -25.5 70.9 -4.5 70.9 Q-4.1 70.9 -3.8 70.6 L-3.5 69.9 -3.5 39.3 Q-3.5 38.9 -3.8 38.6 -4.1 38.3 -4.5 38.3 L-25.5 38.3" fill="#46432c" fill-rule="evenodd" stroke="none"/>
    <path d="M-18.9 43.5 Q-20.55 45.1 -20.55 47.4 -20.55 49.7 -18.9 51.3 -17.3 52.95 -15.0 52.95 -12.7 52.95 -11.1 51.3 -9.45 49.7 -9.45 47.4 -9.45 45.1 -11.1 43.5 -12.7 41.85 -15.0 41.85 -17.3 41.85 -18.9 43.5" fill="#9f9864" fill-rule="evenodd" stroke="none"/>
    <path d="M-18.9 43.5 Q-20.55 45.1 -20.55 47.4 -20.55 49.7 -18.9 51.3 -17.3 52.95 -15.0 52.95 -12.7 52.95 -11.1 51.3 -9.45 49.7 -9.45 47.4 -9.45 45.1 -11.1 43.5 -12.7 41.85 -15.0 41.85 -17.3 41.85 -18.9 43.5 Z" fill="none" stroke="#76724b" stroke-linecap="butt" stroke-linejoin="miter-clip" stroke-miterlimit="4.0" stroke-width="1.0"/>
    <path d="M-20.55 61.65 Q-20.55 63.95 -18.9 65.55 -17.3 67.2 -15.0 67.2 -12.7 67.2 -11.1 65.55 -9.45 63.95 -9.45 61.65 -9.45 59.35 -11.1 57.75 -12.7 56.1 -15.0 56.1 -17.3 56.1 -18.9 57.75 -20.55 59.35 -20.55 61.65" fill="#4d5746" fill-rule="evenodd" stroke="none"/>
    <path d="M-20.55 61.65 Q-20.55 63.95 -18.9 65.55 -17.3 67.2 -15.0 67.2 -12.7 67.2 -11.1 65.55 -9.45 63.95 -9.45 61.65 -9.45 59.35 -11.1 57.75 -12.7 56.1 -15.0 56.1 -17.3 56.1 -18.9 57.75 -20.55 59.35 -20.55 61.65 Z" fill="none" stroke="#373e33" stroke-linecap="butt" stroke-linejoin="miter-clip" stroke-miterlimit="4.0" stroke-width="1.0"/>
    <path d="M-17.8 62.65 Q-17.8 63.8 -17.0 64.65 -16.15 65.45 -15.0 65.45 -13.85 65.45 -13.0 64.65 -12.2 63.8 -12.2 62.65 -12.2 61.5 -13.0 60.65 -13.85 59.85 -15.0 59.85 -16.15 59.85 -17.0 60.65 -17.8 61.5 -17.8 62.65" fill="#55604e" fill-rule="evenodd" stroke="none"/>
    <path d="M-17.8 62.65 Q-17.8 63.8 -17.0 64.65 -16.15 65.45 -15.0 65.45 -13.85 65.45 -13.0 64.65 -12.2 63.8 -12.2 62.65 -12.2 61.5 -13.0 60.65 -13.85 59.85 -15.0 59.85 -16.15 59.85 -17.0 60.65 -17.8 61.5 -17.8 62.65 Z" fill="none" stroke="#373e33" stroke-linecap="butt" stroke-linejoin="miter-clip" stroke-miterlimit="4.0" stroke-width="1.0"/>
    <path d="M-15.15 61.5 L-15.95 62.3 Q-16.2 62.9 -15.95 63.45 L-15.15 64.25 Q-14.55 64.5 -14.0 64.25 -9.4 62.3 -5.05 62.7 -1.6 62.95 2.15 64.7 4.75 65.85 8.8 68.45 L15.1 72.35 Q18.65 74.25 21.65 74.5 25.65 74.85 29.2 72.2 32.7 69.7 33.05 64.6 33.25 61.8 32.25 53.95 31.25 46.25 31.6 41.55 31.75 39.85 32.05 38.1 L29.05 37.9 28.6 41.3 Q28.25 46.45 29.25 54.35 30.25 62.15 30.05 64.35 29.75 68.05 27.45 69.8 24.7 71.75 21.85 71.5 19.65 71.35 16.5 69.7 L10.4 65.95 Q6.2 63.2 3.45 61.95 -0.8 60.0 -4.85 59.7 -9.9 59.3 -15.15 61.5" fill="#55604e" fill-rule="evenodd" stroke="none"/>
    <path d="M-15.15 61.5 Q-9.9 59.3 -4.85 59.7 -0.8 60.0 3.45 61.95 6.2 63.2 10.4 65.95 L16.5 69.7 Q19.65 71.35 21.85 71.5 24.7 71.75 27.45 69.8 29.75 68.05 30.05 64.35 30.25 62.15 29.25 54.35 28.25 46.45 28.6 41.3 L29.05 37.9 32.05 38.1 Q31.75 39.85 31.6 41.55 31.25 46.25 32.25 53.95 33.25 61.8 33.05 64.6 32.7 69.7 29.2 72.2 25.65 74.85 21.65 74.5 18.65 74.25 15.1 72.35 L8.8 68.45 Q4.75 65.85 2.15 64.7 -1.6 62.95 -5.05 62.7 -9.4 62.3 -14.0 64.25 -14.55 64.5 -15.15 64.25 L-15.95 63.45 Q-16.2 62.9 -15.95 62.3 L-15.15 61.5 Z" fill="none" stroke="#373e33" stroke-linecap="butt" stroke-linejoin="miter-clip" stroke-miterlimit="4.0" stroke-width="1.0"/>
    <path d="M-14.3 50.25 L-12.75 50.25 -12.75 44.55 -14.3 44.55 -14.3 50.25" fill="#676344" fill-rule="evenodd" stroke="none"/>
    <path d="M-17.3 50.25 L-15.7 50.25 -15.7 44.55 -17.3 44.55 -17.3 50.25" fill="#676344" fill-rule="evenodd" stroke="none"/>
    <path d="M103.3 -5.3 Q102.35 -7.15 99.85 -8.65 97.95 -9.75 94.55 -11.0 88.4 -13.15 83.25 -13.4 L83.0 -13.4 Q80.8 -13.4 75.0 -11.4 L58.15 -4.6 Q47.8 -0.25 45.9 0.15 L45.55 0.15 Q44.05 0.25 41.3 -1.9 37.9 -4.5 33.6 -9.6 31.4 -12.2 29.9 -14.3 L27.5 -12.55 Q30.25 -8.7 33.8 -4.85 37.0 -1.35 39.5 0.5 42.85 3.1 45.55 3.15 L46.5 3.05 Q48.6 2.6 54.1 0.35 L65.05 -4.25 Q71.95 -7.1 76.0 -8.55 81.35 -10.5 83.0 -10.4 L83.1 -10.4 Q87.65 -10.25 93.6 -8.2 96.2 -7.3 98.3 -6.05 100.35 -4.8 100.6 -4.0 L100.7 -3.6 99.95 -2.15 97.8 0.0 95.4 2.25 Q94.0 3.85 93.95 5.2 L93.95 5.6 94.7 7.65 96.4 11.65 Q97.4 14.25 97.4 16.05 97.3 18.55 95.65 20.1 93.3 22.2 87.75 22.85 L88.15 25.85 Q94.55 25.05 97.65 22.35 100.4 19.95 100.4 16.05 100.35 13.1 98.6 9.0 L97.05 5.55 96.95 5.25 96.95 5.2 97.05 5.0 Q97.3 4.45 100.45 1.65 L102.6 -0.6 Q103.65 -2.05 103.7 -3.6 L103.3 -5.3" fill="#4a5f53" fill-rule="evenodd" stroke="none"/>
    <path d="M103.3 -5.3 L103.7 -3.6 Q103.65 -2.05 102.6 -0.6 L100.45 1.65 Q97.3 4.45 97.05 5.0 L96.95 5.2 96.95 5.25 97.05 5.55 98.6 9.0 Q100.35 13.1 100.4 16.05 100.4 19.95 97.65 22.35 94.55 25.05 88.15 25.85 L87.75 22.85 Q93.3 22.2 95.65 20.1 97.3 18.55 97.4 16.05 97.4 14.25 96.4 11.65 L94.7 7.65 93.95 5.6 93.95 5.2 Q94.0 3.85 95.4 2.25 L97.8 0.0 99.95 -2.15 100.7 -3.6 100.6 -4.0 Q100.35 -4.8 98.3 -6.05 96.2 -7.3 93.6 -8.2 87.65 -10.25 83.1 -10.4 L83.0 -10.4 Q81.35 -10.5 76.0 -8.55 71.95 -7.1 65.05 -4.25 L54.1 0.35 Q48.6 2.6 46.5 3.05 L45.55 3.15 Q42.85 3.1 39.5 0.5 37.0 -1.35 33.8 -4.85 30.25 -8.7 27.5 -12.55 L29.9 -14.3 Q31.4 -12.2 33.6 -9.6 37.9 -4.5 41.3 -1.9 44.05 0.25 45.55 0.15 L45.9 0.15 Q47.8 -0.25 58.15 -4.6 L75.0 -11.4 Q80.8 -13.4 83.0 -13.4 L83.25 -13.4 Q88.4 -13.15 94.55 -11.0 97.95 -9.75 99.85 -8.65 102.35 -7.15 103.3 -5.3 Z" fill="none" stroke="#323d37" stroke-linecap="butt" stroke-linejoin="miter-clip" stroke-miterlimit="4.0" stroke-width="1.0"/>
    <path d="M-31.55 5.95 L-38.5 6.65 Q-49.4 8.25 -53.55 12.0 -58.5 16.5 -61.15 19.75 -65.65 25.25 -65.7 29.3 -65.7 31.25 -64.55 32.9 -63.4 34.65 -61.2 35.7 -57.25 37.65 -48.0 37.65 L-38.8 37.45 -29.4 37.2 Q-18.35 37.1 -13.5 39.65 -10.15 41.4 -7.1 44.65 L-2.1 50.5 Q0.9 53.8 4.35 55.5 8.75 57.6 14.7 57.6 L14.95 57.6 Q21.05 57.6 27.4 54.65 31.8 52.6 37.75 48.25 44.95 42.95 46.45 41.95 50.8 39.15 53.3 39.1 58.2 38.85 61.1 33.4 63.45 28.9 63.45 23.1 63.45 19.5 62.45 16.95 61.35 13.85 59.1 12.75 57.65 12.0 55.45 12.0 L50.25 12.6 44.6 13.15 Q40.7 13.1 37.55 11.7 33.55 9.85 29.85 5.4 L27.55 7.3 Q34.9 16.25 44.6 16.15 L50.7 15.55 55.45 15.0 Q56.9 15.0 57.8 15.45 58.9 15.95 59.65 18.0 60.45 20.15 60.45 23.1 60.45 28.2 58.4 32.0 56.35 35.95 53.1 36.1 49.5 36.35 44.8 39.45 42.0 41.25 36.0 45.8 30.4 49.9 26.15 51.9 20.35 54.6 14.95 54.6 9.35 54.55 5.7 52.8 3.0 51.5 0.1 48.45 L-4.9 42.6 Q-8.25 39.0 -12.1 37.0 -17.5 34.2 -29.4 34.2 L-38.9 34.45 -48.0 34.65 Q-56.5 34.75 -59.9 33.0 L-62.15 31.25 Q-62.65 30.45 -62.7 29.3 -62.7 26.25 -58.85 21.65 -56.55 18.85 -51.55 14.2 -49.85 12.6 -45.8 11.35 -42.35 10.25 -38.1 9.65 L-31.4 8.95 -28.55 8.85 -28.55 5.85 -31.55 5.95" fill="#4a5f53" fill-rule="evenodd" stroke="none"/>
    <path d="M-31.55 5.95 L-28.55 5.85 -28.55 8.85 -31.4 8.95 -38.1 9.65 Q-42.35 10.25 -45.8 11.35 -49.85 12.6 -51.55 14.2 -56.55 18.85 -58.85 21.65 -62.7 26.25 -62.7 29.3 -62.65 30.45 -62.15 31.25 L-59.9 33.0 Q-56.5 34.75 -48.0 34.65 L-38.9 34.45 -29.4 34.2 Q-17.5 34.2 -12.1 37.0 -8.25 39.0 -4.9 42.6 L0.1 48.45 Q3.0 51.5 5.7 52.8 9.35 54.55 14.95 54.6 20.35 54.6 26.15 51.9 30.4 49.9 36.0 45.8 42.0 41.25 44.8 39.45 49.5 36.35 53.1 36.1 56.35 35.95 58.4 32.0 60.45 28.2 60.45 23.1 60.45 20.15 59.65 18.0 58.9 15.95 57.8 15.45 56.9 15.0 55.45 15.0 L50.7 15.55 44.6 16.15 Q34.9 16.25 27.55 7.3 L29.85 5.4 Q33.55 9.85 37.55 11.7 40.7 13.1 44.6 13.15 L50.25 12.6 55.45 12.0 Q57.65 12.0 59.1 12.75 61.35 13.85 62.45 16.95 63.45 19.5 63.45 23.1 63.45 28.9 61.1 33.4 58.2 38.85 53.3 39.1 50.8 39.15 46.45 41.95 44.95 42.95 37.75 48.25 31.8 52.6 27.4 54.65 21.05 57.6 14.95 57.6 L14.7 57.6 Q8.75 57.6 4.35 55.5 0.9 53.8 -2.1 50.5 L-7.1 44.65 Q-10.15 41.4 -13.5 39.65 -18.35 37.1 -29.4 37.2 L-38.8 37.45 -48.0 37.65 Q-57.25 37.65 -61.2 35.7 -63.4 34.65 -64.55 32.9 -65.7 31.25 -65.7 29.3 -65.65 25.25 -61.15 19.75 -58.5 16.5 -53.55 12.0 -49.4 8.25 -38.5 6.65 L-31.55 5.95 Z" fill="none" stroke="#323d37" stroke-linecap="butt" stroke-linejoin="miter-clip" stroke-miterlimit="4.0" stroke-width="1.0"/>
    <path d="M-34.15 41.25 Q-34.1 40.9 -34.5 40.6 L-35.45 40.35 -40.5 40.35 -41.5 40.6 -41.95 41.25 -44.3 79.9 Q-44.3 80.8 -43.35 80.8 L-39.85 80.8 -39.1 80.55 -38.75 79.9 -34.15 41.25" fill="#78562e" fill-rule="evenodd" stroke="none"/>
    <path d="M-34.15 41.25 L-38.75 79.9 -39.1 80.55 -39.85 80.8 -43.35 80.8 Q-44.3 80.8 -44.3 79.9 L-41.95 41.25 -41.5 40.6 -40.5 40.35 -35.45 40.35 -34.5 40.6 Q-34.1 40.9 -34.15 41.25 Z" fill="none" stroke="#523821" stroke-linecap="butt" stroke-linejoin="miter-clip" stroke-miterlimit="4.0" stroke-width="1.0"/>
    <path d="M-44.55 70.7 L-45.05 79.9 Q-45.05 80.3 -44.7 80.55 L-43.85 80.8 -39.35 80.8 -38.45 80.55 Q-38.05 80.3 -38.0 79.9 L-36.8 70.7 -44.55 70.7" fill="#926539" fill-rule="evenodd" stroke="none"/>
    <path d="M-44.55 70.7 L-45.05 79.9 Q-45.05 80.3 -44.7 80.55 L-43.85 80.8 -39.35 80.8 -38.45 80.55 Q-38.05 80.3 -38.0 79.9 L-36.8 70.7 -44.55 70.7 Z" fill="none" stroke="#523821" stroke-linecap="butt" stroke-linejoin="round" stroke-width="1.0"/>
    <path d="M-32.75 40.2 Q-32.7 39.85 -32.95 39.55 L-33.6 39.3 -41.9 39.3 Q-42.3 39.3 -42.55 39.55 L-42.9 40.2 -43.8 49.55 Q-43.9 50.45 -42.95 50.45 L-34.55 50.45 Q-33.6 50.45 -33.5 49.55 L-32.75 40.2" fill="#926539" fill-rule="evenodd" stroke="none"/>
    <path d="M-32.75 40.2 L-33.5 49.55 Q-33.6 50.45 -34.55 50.45 L-42.95 50.45 Q-43.9 50.45 -43.8 49.55 L-42.9 40.2 -42.55 39.55 Q-42.3 39.3 -41.9 39.3 L-33.6 39.3 -32.95 39.55 Q-32.7 39.85 -32.75 40.2 Z" fill="none" stroke="#523821" stroke-linecap="butt" stroke-linejoin="miter-clip" stroke-miterlimit="4.0" stroke-width="1.0"/>
    <path d="M88.7 41.25 L88.25 40.6 87.25 40.35 82.2 40.35 81.25 40.6 Q80.9 40.9 80.95 41.25 L85.5 79.9 85.85 80.55 86.6 80.8 90.1 80.8 90.75 80.55 91.0 79.9 88.7 41.25" fill="#78562e" fill-rule="evenodd" stroke="none"/>
    <path d="M88.7 41.25 L91.0 79.9 90.75 80.55 90.1 80.8 86.6 80.8 85.85 80.55 85.5 79.9 80.95 41.25 Q80.9 40.9 81.25 40.6 L82.2 40.35 87.25 40.35 88.25 40.6 88.7 41.25 Z" fill="none" stroke="#523821" stroke-linecap="butt" stroke-linejoin="miter-clip" stroke-miterlimit="4.0" stroke-width="1.0"/>
    <path d="M83.55 70.7 L84.75 79.9 Q84.8 80.3 85.2 80.55 L86.1 80.8 90.6 80.8 91.45 80.55 91.8 79.9 91.35 70.7 83.55 70.7" fill="#926539" fill-rule="evenodd" stroke="none"/>
    <path d="M83.55 70.7 L84.75 79.9 Q84.8 80.3 85.2 80.55 L86.1 80.8 90.6 80.8 91.45 80.55 91.8 79.9 91.35 70.7 83.55 70.7 Z" fill="none" stroke="#523821" stroke-linecap="butt" stroke-linejoin="round" stroke-width="1.0"/>
    <path d="M89.95 40.2 L89.6 39.55 Q89.3 39.3 88.95 39.3 L80.65 39.3 Q79.7 39.3 79.8 40.2 L80.55 49.55 Q80.6 49.95 80.9 50.2 L81.55 50.45 90.0 50.45 90.65 50.2 90.85 49.55 89.95 40.2" fill="#926539" fill-rule="evenodd" stroke="none"/>
    <path d="M89.95 40.2 L90.85 49.55 90.65 50.2 90.0 50.45 81.55 50.45 80.9 50.2 Q80.6 49.95 80.55 49.55 L79.8 40.2 Q79.7 39.3 80.65 39.3 L88.95 39.3 Q89.3 39.3 89.6 39.55 L89.95 40.2 Z" fill="none" stroke="#523821" stroke-linecap="butt" stroke-linejoin="miter-clip" stroke-miterlimit="4.0" stroke-width="1.0"/>
    <path d="M83.85 -35.0 Q83.85 -35.7 83.35 -36.15 82.85 -36.65 82.15 -36.65 L50.6 -36.65 Q49.9 -36.65 49.45 -36.15 48.95 -35.65 48.95 -35.0 L48.95 28.45 Q48.95 29.15 49.45 29.65 49.9 30.15 50.6 30.15 L82.15 30.15 Q82.85 30.15 83.35 29.65 83.85 29.15 83.85 28.45 L83.85 -35.0" fill="#a3c5b2" fill-rule="evenodd" stroke="none"/>
    <path d="M83.85 -35.0 L83.85 28.45 Q83.85 29.15 83.35 29.65 82.85 30.15 82.15 30.15 L50.6 30.15 Q49.9 30.15 49.45 29.65 48.95 29.15 48.95 28.45 L48.95 -35.0 Q48.95 -35.65 49.45 -36.15 49.9 -36.65 50.6 -36.65 L82.15 -36.65 Q82.85 -36.65 83.35 -36.15 83.85 -35.7 83.85 -35.0 Z" fill="none" stroke="#46554c" stroke-linecap="butt" stroke-linejoin="miter-clip" stroke-miterlimit="4.0" stroke-width="1.0"/>
    <path d="M80.55 -22.15 L80.25 -21.45 Q79.95 -21.15 79.55 -21.15 L53.25 -21.15 Q52.85 -21.15 52.55 -21.45 52.25 -21.75 52.25 -22.15 L52.25 -30.0 52.55 -30.7 53.25 -31.0 79.55 -31.0 80.25 -30.7 80.55 -30.0 80.55 -22.15 Z" fill="none" stroke="#86a995" stroke-linecap="butt" stroke-linejoin="miter-clip" stroke-miterlimit="4.0" stroke-width="1.0"/>
    <path d="M71.8 15.5 Q71.8 11.9 70.2 9.0 68.6 6.0 66.4 6.0 64.2 6.0 62.55 9.0 60.95 11.9 60.95 15.5 60.95 19.4 61.95 21.05 63.15 23.1 66.4 23.1 69.45 23.1 70.7 21.05 71.8 19.3 71.8 15.5" fill="#94bca7" fill-rule="evenodd" stroke="none"/>
    <path d="M71.8 15.5 Q71.8 19.3 70.7 21.05 69.45 23.1 66.4 23.1 63.15 23.1 61.95 21.05 60.95 19.4 60.95 15.5 60.95 11.9 62.55 9.0 64.2 6.0 66.4 6.0 68.6 6.0 70.2 9.0 71.8 11.9 71.8 15.5 Z" fill="none" stroke="#86a995" stroke-linecap="butt" stroke-linejoin="miter-clip" stroke-miterlimit="4.0" stroke-width="1.0"/>
    <path d="M68.4 10.2 Q68.4 9.35 67.8 8.75 67.25 8.15 66.4 8.15 65.55 8.15 64.95 8.75 64.35 9.35 64.35 10.2 64.35 11.05 64.95 11.6 65.55 12.2 66.4 12.2 67.2 12.2 67.8 11.6 68.4 11.05 68.4 10.2" fill="#d44a20" fill-rule="evenodd" stroke="none"/>
    <path d="M68.4 10.2 Q68.4 11.05 67.8 11.6 67.2 12.2 66.4 12.2 65.55 12.2 64.95 11.6 64.35 11.05 64.35 10.2 64.35 9.35 64.95 8.75 65.55 8.15 66.4 8.15 67.25 8.15 67.8 8.75 68.4 9.35 68.4 10.2 Z" fill="none" stroke="#ff8661" stroke-linecap="butt" stroke-linejoin="miter-clip" stroke-miterlimit="4.0" stroke-width="1.0"/>
    <path d="M69.35 17.65 Q69.35 16.45 68.5 15.6 67.65 14.7 66.4 14.7 65.15 14.7 64.3 15.6 63.4 16.45 63.4 17.65 63.4 18.9 64.3 19.75 65.15 20.65 66.4 20.65 67.65 20.65 68.5 19.75 69.35 18.9 69.35 17.65" fill="#b9e6cb" fill-rule="evenodd" stroke="none"/>
    <path d="M69.35 17.65 Q69.35 18.9 68.5 19.75 67.65 20.65 66.4 20.65 65.15 20.65 64.3 19.75 63.4 18.9 63.4 17.65 63.4 16.45 64.3 15.6 65.15 14.7 66.4 14.7 67.65 14.7 68.5 15.6 69.35 16.45 69.35 17.65 Z" fill="none" stroke="#7ba18a" stroke-linecap="butt" stroke-linejoin="miter-clip" stroke-miterlimit="4.0" stroke-width="1.0"/>
    <path d="M80.55 -8.95 L80.25 -8.2 Q79.95 -7.9 79.55 -7.9 L53.25 -7.9 Q52.85 -7.9 52.55 -8.2 52.25 -8.5 52.25 -8.95 L52.25 -16.8 52.55 -17.5 53.25 -17.8 79.55 -17.8 80.25 -17.5 80.55 -16.8 80.55 -8.95 Z" fill="none" stroke="#86a995" stroke-linecap="butt" stroke-linejoin="miter-clip" stroke-miterlimit="4.0" stroke-width="1.0"/>
    <path d="M80.05 24.95 L79.75 25.65 79.05 25.95 53.75 25.95 Q53.35 25.95 53.05 25.65 52.75 25.35 52.75 24.95 L52.75 -3.25 Q52.75 -3.65 53.05 -3.95 53.35 -4.25 53.75 -4.25 L79.05 -4.25 79.75 -3.95 80.05 -3.25 80.05 24.95 Z" fill="none" stroke="#86a995" stroke-linecap="butt" stroke-linejoin="miter-clip" stroke-miterlimit="4.0" stroke-width="1.0"/>
    <path d="M77.95 -25.05 L77.95 -26.65 55.1 -26.65 55.1 -25.05 77.95 -25.05" fill="#7a9b88" fill-rule="evenodd" stroke="none"/>
    <path d="M70.8 -12.25 L70.8 -13.85 55.1 -13.85 55.1 -12.25 70.8 -12.25" fill="#7a9b88" fill-rule="evenodd" stroke="none"/>
    <path d="M-16.5 11.9 L-16.5 24.8 14.3 24.8 14.3 11.9 -16.5 11.9" fill="#738b7e" fill-rule="evenodd" stroke="none"/>
    <path d="M-16.5 11.9 L14.3 11.9 14.3 24.8 -16.5 24.8 -16.5 11.9 Z" fill="none" stroke="#425149" stroke-linecap="butt" stroke-linejoin="miter-clip" stroke-miterlimit="4.0" stroke-width="1.0"/>
    <path d="M-16.3 14.05 L14.0 14.05 Q15.2 14.05 16.05 13.0 16.9 11.95 16.9 10.5 L16.9 10.05 -19.25 10.05 -19.25 10.5 Q-19.25 11.95 -18.4 13.0 -17.5 14.05 -16.3 14.05" fill="#829d8d" fill-rule="evenodd" stroke="none"/>
    <path d="M-16.3 14.05 L14.0 14.05 Q15.2 14.05 16.05 13.0 16.9 11.95 16.9 10.5 L16.9 10.05 -19.25 10.05 -19.25 10.5 Q-19.25 11.95 -18.4 13.0 -17.5 14.05 -16.3 14.05 Z" fill="none" stroke="#425149" stroke-linecap="butt" stroke-linejoin="miter-clip" stroke-miterlimit="4.0" stroke-width="1.0"/>
    <path d="M-39.65 -56.3 Q-40.1 -56.3 -40.4 -55.95 L-40.7 -55.1 -40.7 9.55 -40.4 10.4 Q-40.1 10.75 -39.65 10.75 L37.35 10.75 38.1 10.4 38.4 9.55 38.4 -55.1 38.1 -55.95 37.35 -56.3 -39.65 -56.3" fill="#b1d6c1" fill-rule="evenodd" stroke="none"/>
    <path d="M-39.65 -56.3 L37.35 -56.3 38.1 -55.95 38.4 -55.1 38.4 9.55 38.1 10.4 37.35 10.75 -39.65 10.75 Q-40.1 10.75 -40.4 10.4 L-40.7 9.55 -40.7 -55.1 -40.4 -55.95 Q-40.1 -56.3 -39.65 -56.3 Z" fill="none" stroke="#4c5c53" stroke-linecap="butt" stroke-linejoin="miter-clip" stroke-miterlimit="4.0" stroke-width="1.0"/>
    <path d="M-33.1 -51.15 Q-34.4 -51.15 -35.3 -50.25 -36.2 -49.4 -36.2 -48.15 L-36.2 -3.1 Q-36.2 -1.85 -35.3 -0.95 -34.4 -0.1 -33.1 -0.1 L30.8 -0.1 Q32.1 -0.1 32.95 -0.95 33.85 -1.85 33.85 -3.1 L33.85 -48.15 Q33.85 -49.4 32.95 -50.25 32.05 -51.15 30.8 -51.15 L-33.1 -51.15" fill="#94bfa5" fill-rule="evenodd" stroke="none"/>
    <path d="M-33.1 -51.15 L30.8 -51.15 Q32.05 -51.15 32.95 -50.25 33.85 -49.4 33.85 -48.15 L33.85 -3.1 Q33.85 -1.85 32.95 -0.95 32.1 -0.1 30.8 -0.1 L-33.1 -0.1 Q-34.4 -0.1 -35.3 -0.95 -36.2 -1.85 -36.2 -3.1 L-36.2 -48.15 Q-36.2 -49.4 -35.3 -50.25 -34.4 -51.15 -33.1 -51.15 Z" fill="none" stroke="#72947f" stroke-linecap="butt" stroke-linejoin="miter-clip" stroke-miterlimit="4.0" stroke-width="1.0"/>
    <path d="M-28.7 -48.1 Q-30.3 -48.1 -31.5 -47.0 -32.65 -45.85 -32.65 -44.3 L-32.65 -7.55 Q-32.65 -5.95 -31.5 -4.8 -30.3 -3.7 -28.7 -3.7 L26.4 -3.7 Q28.0 -3.7 29.15 -4.8 30.3 -5.95 30.3 -7.55 L30.3 -44.3 Q30.3 -45.85 29.15 -47.0 28.0 -48.1 26.4 -48.1 L-28.7 -48.1" fill="#61a19d" fill-rule="evenodd" stroke="none"/>
    <path d="M-32.65 -7.55 L-32.65 -44.3 Q-32.65 -45.85 -31.5 -47.0 -30.3 -48.1 -28.7 -48.1 L26.4 -48.1 Q28.0 -48.1 29.15 -47.0 30.3 -45.85 30.3 -44.3 L30.3 -7.55 Q30.3 -5.95 29.15 -4.8 28.0 -3.7 26.4 -3.7 L-28.7 -3.7 Q-30.3 -3.7 -31.5 -4.8 -32.65 -5.95 -32.65 -7.55 M-28.7 -49.1 Q-30.75 -49.1 -32.2 -47.7 -33.65 -46.3 -33.65 -44.3 L-33.65 -7.55 Q-33.65 -5.55 -32.2 -4.15 -30.75 -2.7 -28.7 -2.7 L26.4 -2.7 Q28.4 -2.7 29.85 -4.15 31.3 -5.55 31.3 -7.55 L31.3 -44.3 Q31.3 -46.3 29.85 -47.7 28.4 -49.1 26.4 -49.1 L-28.7 -49.1" fill="#4c6958" fill-rule="evenodd" stroke="none"/>
    <path d="M-31.0 -8.65 Q-31.0 -7.15 -29.9 -6.1 -28.8 -5.05 -27.2 -5.05 L6.6 -5.05 Q0.9 -9.65 -11.9 -15.25 -25.7 -21.35 -31.0 -25.05 L-31.0 -8.65" fill="#5c9693" fill-rule="evenodd" stroke="none"/>
    <path d="M-10.3 -31.3 Q13.8 -27.7 28.75 -23.05 L28.75 -43.25 Q28.75 -44.7 27.65 -45.75 26.55 -46.75 25.0 -46.75 L-27.95 -46.75 Q-29.95 -46.75 -31.1 -45.2 -27.35 -39.7 -22.05 -36.1 -16.5 -32.35 -10.3 -31.3" fill="#68aba8" fill-rule="evenodd" stroke="none"/>
    <path d="M-40.05 3.0 L37.75 3.0" fill="none" stroke="#88b098" stroke-linecap="butt" stroke-linejoin="miter-clip" stroke-miterlimit="4.0" stroke-width="1.0"/>
    <path d="M35.25 5.65 L34.95 5.0 34.3 4.75 28.55 4.75 Q27.6 4.75 27.6 5.65 L27.6 7.55 Q27.6 8.45 28.55 8.45 L34.3 8.45 34.95 8.2 35.25 7.55 35.25 5.65" fill="#b9e6cb" fill-rule="evenodd" stroke="none"/>
    <path d="M35.25 5.65 L35.25 7.55 34.95 8.2 34.3 8.45 28.55 8.45 Q27.6 8.45 27.6 7.55 L27.6 5.65 Q27.6 4.75 28.55 4.75 L34.3 4.75 34.95 5.0 35.25 5.65 Z" fill="none" stroke="#7ba18a" stroke-linecap="butt" stroke-linejoin="miter-clip" stroke-miterlimit="4.0" stroke-width="1.0"/>
    <path d="M24.0 6.7 Q24.0 5.9 23.45 5.4 22.9 4.85 22.1 4.85 21.3 4.85 20.8 5.4 20.25 5.9 20.25 6.7 20.25 7.5 20.8 8.05 21.3 8.6 22.1 8.6 22.9 8.6 23.45 8.05 24.0 7.5 24.0 6.7" fill="#45d635" fill-rule="evenodd" stroke="none"/>
    <path d="M24.0 6.7 Q24.0 7.5 23.45 8.05 22.9 8.6 22.1 8.6 21.3 8.6 20.8 8.05 20.25 7.5 20.25 6.7 20.25 5.9 20.8 5.4 21.3 4.85 22.1 4.85 22.9 4.85 23.45 5.4 24.0 5.9 24.0 6.7 Z" fill="none" stroke="#a8ff9e" stroke-linecap="butt" stroke-linejoin="miter-clip" stroke-miterlimit="4.0" stroke-width="1.0"/>
    <path d="M-16.0 14.65 L-16.0 16.75 13.7 16.75 13.7 14.65 -16.0 14.65" fill="#60796b" fill-rule="evenodd" stroke="none"/>
    <path d="M-18.6 11.2 L-18.6 12.3 16.1 12.3 16.1 11.2 -18.6 11.2" fill="#6f877a" fill-rule="evenodd" stroke="none"/>
    <path d="M78.05 -11.9 L78.05 -14.45 73.8 -14.45 73.8 -11.9 78.05 -11.9" fill="#b9e6cb" fill-rule="evenodd" stroke="none"/>
    <path d="M78.05 -11.9 L73.8 -11.9 73.8 -14.45 78.05 -14.45 78.05 -11.9 Z" fill="none" stroke="#7ba18a" stroke-linecap="butt" stroke-linejoin="miter-clip" stroke-miterlimit="4.0" stroke-width="1.0"/>
    <path d="M82.95 -35.35 Q82.95 -36.05 82.2 -36.05 L50.9 -36.05 Q50.15 -36.05 50.15 -35.35 L50.35 -34.8 50.9 -34.6 82.2 -34.6 82.7 -34.8 82.95 -35.35" fill="#d4ede0" fill-rule="evenodd" stroke="none"/>
    <path d="M93.25 27.05 Q93.25 24.2 89.9 22.2 86.6 20.15 81.95 20.15 77.25 20.15 73.95 22.2 70.65 24.2 70.65 27.05 L70.65 27.1 93.25 27.1 93.25 27.05" fill="#bfe0cd" fill-rule="evenodd" stroke="none"/>
    <path d="M93.25 27.05 Q93.25 24.2 89.9 22.2 86.6 20.15 81.95 20.15 77.25 20.15 73.95 22.2 70.65 24.2 70.65 27.05 L70.65 27.1 93.25 27.1 93.25 27.05 Z" fill="none" stroke="#54665c" stroke-linecap="butt" stroke-linejoin="miter-clip" stroke-miterlimit="4.0" stroke-width="1.0"/>
    <path d="M-37.0 19.65 Q-37.45 19.65 -37.85 20.0 L-38.25 20.8 -38.65 25.6 Q-38.7 26.1 -38.35 26.4 -37.95 26.75 -37.4 26.75 L-32.4 26.75 Q-31.8 26.75 -31.45 26.4 -31.05 26.1 -31.1 25.6 L-31.5 20.8 Q-31.6 20.35 -31.95 20.0 -32.35 19.65 -32.8 19.65 L-37.0 19.65" fill="#a6c9b5" fill-rule="evenodd" stroke="none"/>
    <path d="M-37.0 19.65 L-32.8 19.65 Q-32.35 19.65 -31.95 20.0 -31.6 20.35 -31.5 20.8 L-31.1 25.6 Q-31.05 26.1 -31.45 26.4 -31.8 26.75 -32.4 26.75 L-37.4 26.75 Q-37.95 26.75 -38.35 26.4 -38.7 26.1 -38.65 25.6 L-38.25 20.8 -37.85 20.0 Q-37.45 19.65 -37.0 19.65 Z" fill="none" stroke="#1fff7b" stroke-linecap="butt" stroke-linejoin="miter-clip" stroke-miterlimit="4.0" stroke-width="1.0"/>
    <path d="M-23.35 25.6 L-23.75 20.8 -24.2 20.0 Q-24.6 19.65 -25.05 19.65 L-29.25 19.65 Q-29.7 19.65 -30.1 20.0 L-30.5 20.8 -30.9 25.6 Q-30.95 26.1 -30.6 26.4 -30.2 26.75 -29.65 26.75 L-24.65 26.75 Q-24.05 26.75 -23.7 26.4 -23.3 26.1 -23.35 25.6" fill="#a6c9b5" fill-rule="evenodd" stroke="none"/>
    <path d="M-23.35 25.6 Q-23.3 26.1 -23.7 26.4 -24.05 26.75 -24.65 26.75 L-29.65 26.75 Q-30.2 26.75 -30.6 26.4 -30.95 26.1 -30.9 25.6 L-30.5 20.8 -30.1 20.0 Q-29.7 19.65 -29.25 19.65 L-25.05 19.65 Q-24.6 19.65 -24.2 20.0 L-23.75 20.8 -23.35 25.6 Z" fill="none" stroke="#1fff7b" stroke-linecap="butt" stroke-linejoin="miter-clip" stroke-miterlimit="4.0" stroke-width="1.0"/>
    <path d="M-22.75 20.8 L-23.15 25.6 Q-23.2 26.1 -22.85 26.4 -22.45 26.75 -21.9 26.75 L-16.9 26.75 Q-16.3 26.75 -15.95 26.4 -15.55 26.1 -15.6 25.6 L-16.0 20.8 Q-16.05 20.35 -16.45 20.0 -16.8 19.65 -17.3 19.65 L-21.5 19.65 Q-21.95 19.65 -22.35 20.0 L-22.75 20.8" fill="#a6c9b5" fill-rule="evenodd" stroke="none"/>
    <path d="M-22.75 20.8 L-22.35 20.0 Q-21.95 19.65 -21.5 19.65 L-17.3 19.65 Q-16.8 19.65 -16.45 20.0 -16.05 20.35 -16.0 20.8 L-15.6 25.6 Q-15.55 26.1 -15.95 26.4 -16.3 26.75 -16.9 26.75 L-21.9 26.75 Q-22.45 26.75 -22.85 26.4 -23.2 26.1 -23.15 25.6 L-22.75 20.8 Z" fill="none" stroke="#1fff7b" stroke-linecap="butt" stroke-linejoin="miter-clip" stroke-miterlimit="4.0" stroke-width="1.0"/>
    <path d="M-15.4 25.6 Q-15.45 26.1 -15.1 26.4 -14.7 26.75 -14.15 26.75 L-9.15 26.75 Q-8.55 26.75 -8.2 26.4 -7.8 26.1 -7.85 25.6 L-8.25 20.8 Q-8.3 20.35 -8.65 20.0 -9.05 19.65 -9.5 19.65 L-13.75 19.65 Q-14.2 19.65 -14.6 20.0 L-15.0 20.8 -15.4 25.6" fill="#a6c9b5" fill-rule="evenodd" stroke="none"/>
    <path d="M-15.4 25.6 L-15.0 20.8 -14.6 20.0 Q-14.2 19.65 -13.75 19.65 L-9.5 19.65 Q-9.05 19.65 -8.65 20.0 -8.3 20.35 -8.25 20.8 L-7.85 25.6 Q-7.8 26.1 -8.2 26.4 -8.55 26.75 -9.15 26.75 L-14.15 26.75 Q-14.7 26.75 -15.1 26.4 -15.45 26.1 -15.4 25.6 Z" fill="none" stroke="#1fff7b" stroke-linecap="butt" stroke-linejoin="miter-clip" stroke-miterlimit="4.0" stroke-width="1.0"/>
    <path d="M-5.95 19.65 Q-6.45 19.65 -6.85 20.0 L-7.25 20.8 -7.65 25.6 Q-7.7 26.1 -7.3 26.4 L-6.35 26.75 -1.4 26.75 Q-0.8 26.75 -0.45 26.4 -0.05 26.1 -0.1 25.6 L-0.5 20.8 Q-0.55 20.35 -0.9 20.0 -1.3 19.65 -1.75 19.65 L-5.95 19.65" fill="#a6c9b5" fill-rule="evenodd" stroke="none"/>
    <path d="M-5.95 19.65 L-1.75 19.65 Q-1.3 19.65 -0.9 20.0 -0.55 20.35 -0.5 20.8 L-0.1 25.6 Q-0.05 26.1 -0.45 26.4 -0.8 26.75 -1.4 26.75 L-6.35 26.75 -7.3 26.4 Q-7.7 26.1 -7.65 25.6 L-7.25 20.8 -6.85 20.0 Q-6.45 19.65 -5.95 19.65 Z" fill="none" stroke="#1fff7b" stroke-linecap="butt" stroke-linejoin="miter-clip" stroke-miterlimit="4.0" stroke-width="1.0"/>
    <path d="M1.8 19.65 Q1.3 19.65 0.95 20.0 0.6 20.35 0.5 20.8 L0.1 25.6 Q0.05 26.1 0.45 26.4 0.8 26.75 1.4 26.75 L6.35 26.75 7.3 26.4 Q7.7 26.1 7.65 25.6 L7.25 20.8 6.85 20.0 Q6.45 19.65 6.0 19.65 L1.8 19.65" fill="#a6c9b5" fill-rule="evenodd" stroke="none"/>
    <path d="M1.8 19.65 L6.0 19.65 Q6.45 19.65 6.85 20.0 L7.25 20.8 7.65 25.6 Q7.7 26.1 7.3 26.4 L6.35 26.75 1.4 26.75 Q0.8 26.75 0.45 26.4 0.05 26.1 0.1 25.6 L0.5 20.8 Q0.6 20.35 0.95 20.0 1.3 19.65 1.8 19.65 Z" fill="none" stroke="#1fff7b" stroke-linecap="butt" stroke-linejoin="miter-clip" stroke-miterlimit="4.0" stroke-width="1.0"/>
    <path d="M8.25 20.8 L7.85 25.6 Q7.8 26.1 8.2 26.4 8.55 26.75 9.15 26.75 L14.1 26.75 15.05 26.4 Q15.45 26.1 15.4 25.6 L15.0 20.8 14.6 20.0 Q14.2 19.65 13.75 19.65 L9.55 19.65 Q9.05 19.65 8.7 20.0 L8.25 20.8" fill="#a6c9b5" fill-rule="evenodd" stroke="none"/>
    <path d="M8.25 20.8 L8.7 20.0 Q9.05 19.65 9.55 19.65 L13.75 19.65 Q14.2 19.65 14.6 20.0 L15.0 20.8 15.4 25.6 Q15.45 26.1 15.05 26.4 L14.1 26.75 9.15 26.75 Q8.55 26.75 8.2 26.4 7.8 26.1 7.85 25.6 L8.25 20.8 Z" fill="none" stroke="#1fff7b" stroke-linecap="butt" stroke-linejoin="miter-clip" stroke-miterlimit="4.0" stroke-width="1.0"/>
    <path d="M16.0 20.8 L15.6 25.6 Q15.55 26.1 15.95 26.4 16.3 26.75 16.9 26.75 L21.9 26.75 Q22.45 26.75 22.8 26.4 23.2 26.1 23.15 25.6 L22.75 20.8 22.35 20.0 Q21.95 19.65 21.5 19.65 L17.3 19.65 Q16.8 19.65 16.45 20.0 16.1 20.35 16.0 20.8" fill="#a6c9b5" fill-rule="evenodd" stroke="none"/>
    <path d="M16.0 20.8 Q16.1 20.35 16.45 20.0 16.8 19.65 17.3 19.65 L21.5 19.65 Q21.95 19.65 22.35 20.0 L22.75 20.8 23.15 25.6 Q23.2 26.1 22.8 26.4 22.45 26.75 21.9 26.75 L16.9 26.75 Q16.3 26.75 15.95 26.4 15.55 26.1 15.6 25.6 L16.0 20.8 Z" fill="none" stroke="#1fff7b" stroke-linecap="butt" stroke-linejoin="miter-clip" stroke-miterlimit="4.0" stroke-width="1.0"/>
    <path d="M25.05 19.65 Q24.55 19.65 24.2 20.0 L23.75 20.8 23.35 25.6 Q23.3 26.1 23.7 26.4 24.05 26.75 24.65 26.75 L29.65 26.75 30.55 26.4 Q30.95 26.1 30.9 25.6 L30.5 20.8 30.1 20.0 Q29.75 19.65 29.25 19.65 L25.05 19.65" fill="#a6c9b5" fill-rule="evenodd" stroke="none"/>
    <path d="M25.05 19.65 L29.25 19.65 Q29.75 19.65 30.1 20.0 L30.5 20.8 30.9 25.6 Q30.95 26.1 30.55 26.4 L29.65 26.75 24.65 26.75 Q24.05 26.75 23.7 26.4 23.3 26.1 23.35 25.6 L23.75 20.8 24.2 20.0 Q24.55 19.65 25.05 19.65 Z" fill="none" stroke="#1fff7b" stroke-linecap="butt" stroke-linejoin="miter-clip" stroke-miterlimit="4.0" stroke-width="1.0"/>
    <path d="M38.65 25.6 L38.25 20.8 37.85 20.0 Q37.5 19.65 37.0 19.65 L32.8 19.65 Q32.3 19.65 31.95 20.0 31.6 20.35 31.55 20.8 L31.1 25.6 Q31.05 26.1 31.45 26.4 31.85 26.75 32.4 26.75 L37.4 26.75 Q37.95 26.75 38.3 26.4 38.7 26.1 38.65 25.6" fill="#a6c9b5" fill-rule="evenodd" stroke="none"/>
    <path d="M38.65 25.6 Q38.7 26.1 38.3 26.4 37.95 26.75 37.4 26.75 L32.4 26.75 Q31.85 26.75 31.45 26.4 31.05 26.1 31.1 25.6 L31.55 20.8 Q31.6 20.35 31.95 20.0 32.3 19.65 32.8 19.65 L37.0 19.65 Q37.5 19.65 37.85 20.0 L38.25 20.8 38.65 25.6 Z" fill="none" stroke="#1fff7b" stroke-linecap="butt" stroke-linejoin="miter-clip" stroke-miterlimit="4.0" stroke-width="1.0"/>
    <path d="M-43.05 23.8 Q-43.6 23.8 -43.95 24.15 -44.35 24.45 -44.35 24.95 L-44.35 29.0 Q-44.35 29.5 -43.95 29.8 L-43.05 30.15 44.3 30.15 Q44.85 30.15 45.25 29.8 45.6 29.5 45.6 29.0 L45.6 24.95 Q45.6 24.45 45.25 24.15 44.85 23.8 44.3 23.8 L-43.05 23.8" fill="#a6c9b5" fill-rule="evenodd" stroke="none"/>
    <path d="M-43.05 23.8 L44.3 23.8 Q44.85 23.8 45.25 24.15 45.6 24.45 45.6 24.95 L45.6 29.0 Q45.6 29.5 45.25 29.8 44.85 30.15 44.3 30.15 L-43.05 30.15 -43.95 29.8 Q-44.35 29.5 -44.35 29.0 L-44.35 24.95 Q-44.35 24.45 -43.95 24.15 -43.6 23.8 -43.05 23.8 Z" fill="none" stroke="#1fff7b" stroke-linecap="butt" stroke-linejoin="miter-clip" stroke-miterlimit="4.0" stroke-width="1.0"/>
    <path d="M-43.65 27.4 L44.95 27.4" fill="none" stroke="#8ab09a" stroke-linecap="butt" stroke-linejoin="miter-clip" stroke-miterlimit="4.0" stroke-width="1.0"/>
    <path d="M93.25 27.1 L70.65 27.1 Q70.65 28.65 71.85 30.1 L92.05 30.1 Q93.15 28.75 93.25 27.1" fill="#79a68c" fill-rule="evenodd" stroke="none"/>
    <path d="M93.25 27.1 L70.65 27.1 Q70.65 28.65 71.85 30.1 L92.05 30.1 Q93.15 28.75 93.25 27.1 Z" fill="none" stroke="#54665c" stroke-linecap="butt" stroke-linejoin="miter-clip" stroke-miterlimit="4.0" stroke-width="1.0"/>
    <path d="M-46.8 31.25 Q-47.75 31.25 -47.75 32.2 L-47.75 43.15 -47.5 43.8 Q-47.2 44.1 -46.8 44.1 L93.5 44.1 94.15 43.8 94.45 43.15 94.45 32.2 94.15 31.5 Q93.9 31.25 93.5 31.25 L-46.8 31.25" fill="#926539" fill-rule="evenodd" stroke="none"/>
    <path d="M-46.8 31.25 L93.5 31.25 Q93.9 31.25 94.15 31.5 L94.45 32.2 94.45 43.15 94.15 43.8 93.5 44.1 -46.8 44.1 Q-47.2 44.1 -47.5 43.8 L-47.75 43.15 -47.75 32.2 Q-47.75 31.25 -46.8 31.25 Z" fill="none" stroke="#523821" stroke-linecap="butt" stroke-linejoin="miter-clip" stroke-miterlimit="4.0" stroke-width="1.0"/>
    <path d="M-47.4 34.2 L-47.4 37.85 93.95 37.85 93.95 34.2 -47.4 34.2" fill="#78532f" fill-rule="evenodd" stroke="none"/>
    <path d="M-50.0 29.35 L-50.7 29.6 -51.0 30.3 -51.0 33.85 -50.7 34.55 -50.0 34.8 97.15 34.8 97.85 34.55 98.15 33.85 98.15 30.3 97.85 29.6 97.15 29.35 -50.0 29.35" fill="#b57d48" fill-rule="evenodd" stroke="none"/>
    <path d="M-50.0 29.35 L97.15 29.35 97.85 29.6 98.15 30.3 98.15 33.85 97.85 34.55 97.15 34.8 -50.0 34.8 -50.7 34.55 -51.0 33.85 -51.0 30.3 -50.7 29.6 -50.0 29.35 Z" fill="none" stroke="#523821" stroke-linecap="butt" stroke-linejoin="miter-clip" stroke-miterlimit="4.0" stroke-width="1.0"/>
    <path d="M-49.45 29.9 Q-49.85 29.9 -50.1 30.15 L-50.4 30.65 Q-50.4 31.35 -49.45 31.35 L96.55 31.35 Q97.45 31.35 97.45 30.65 L97.2 30.15 96.55 29.9 -49.45 29.9" fill="#e39d5a" fill-rule="evenodd" stroke="none"/>
    <path d="M-40.7 -55.1 L-40.4 -55.95 Q-40.1 -56.3 -39.65 -56.3 L37.35 -56.3 38.1 -55.95 38.4 -55.1 38.4 9.55 38.1 10.4 37.35 10.75 16.9 10.75 Q16.8 12.05 16.1 13.0 15.35 13.9 14.3 14.05 L14.3 19.8 Q14.9 20.15 15.0 20.8 L15.25 23.8 15.75 23.8 16.0 20.8 Q16.1 20.35 16.45 20.0 16.8 19.65 17.3 19.65 L21.5 19.65 Q21.95 19.65 22.35 20.0 L22.75 20.8 23.0 23.8 23.5 23.8 23.75 20.8 24.2 20.0 Q24.55 19.65 25.05 19.65 L29.25 19.65 Q29.75 19.65 30.1 20.0 L30.5 20.8 30.75 23.8 31.25 23.8 31.55 20.8 Q31.6 20.35 31.95 20.0 32.3 19.65 32.8 19.65 L37.0 19.65 Q37.5 19.65 37.85 20.0 L38.25 20.8 38.5 23.8 44.3 23.8 Q44.85 23.8 45.25 24.15 45.6 24.45 45.6 24.95 L45.6 29.0 45.55 29.35 49.2 29.35 48.95 28.45 48.95 -35.0 Q48.95 -35.65 49.45 -36.15 49.9 -36.65 50.6 -36.65 L82.15 -36.65 Q82.85 -36.65 83.35 -36.15 83.85 -35.7 83.85 -35.0 L83.85 20.25 Q87.85 20.65 90.55 22.6 93.25 24.5 93.25 27.05 L93.25 27.1 Q93.15 28.35 92.6 29.35 L97.15 29.35 97.85 29.6 98.15 30.3 98.15 33.85 97.85 34.55 97.15 34.8 94.45 34.8 94.45 43.15 94.15 43.8 93.5 44.1 90.35 44.1 90.85 49.55 90.65 50.2 90.0 50.45 89.25 50.45 90.5 70.7 91.35 70.7 91.8 79.9 91.45 80.55 90.6 80.8 86.1 80.8 85.2 80.55 Q84.8 80.3 84.75 79.9 L83.55 70.7 84.4 70.7 82.05 50.45 81.55 50.45 80.9 50.2 Q80.6 49.95 80.55 49.55 L80.1 44.1 -33.05 44.1 -33.5 49.55 Q-33.6 50.45 -34.55 50.45 L-35.25 50.45 -37.65 70.7 -36.8 70.7 -38.0 79.9 Q-38.05 80.3 -38.45 80.55 L-39.35 80.8 -43.85 80.8 -44.7 80.55 Q-45.05 80.3 -45.05 79.9 L-44.55 70.7 -43.7 70.7 -42.5 50.45 -42.95 50.45 Q-43.9 50.45 -43.8 49.55 L-43.3 44.1 -46.8 44.1 Q-47.2 44.1 -47.5 43.8 L-47.75 43.15 -47.75 34.8 -50.0 34.8 -50.7 34.55 -51.0 33.85 -51.0 30.3 -50.7 29.6 -50.0 29.35 -44.25 29.35 -44.35 29.0 -44.35 24.95 Q-44.35 24.45 -43.95 24.15 -43.6 23.8 -43.05 23.8 L-38.5 23.8 -38.25 20.8 -37.85 20.0 Q-37.45 19.65 -37.0 19.65 L-32.8 19.65 Q-32.35 19.65 -31.95 20.0 -31.6 20.35 -31.5 20.8 L-31.25 23.8 -30.75 23.8 -30.5 20.8 -30.1 20.0 Q-29.7 19.65 -29.25 19.65 L-25.05 19.65 Q-24.6 19.65 -24.2 20.0 L-23.75 20.8 -23.5 23.8 -23.0 23.8 -22.75 20.8 -22.35 20.0 Q-21.95 19.65 -21.5 19.65 L-17.3 19.65 Q-17.0 19.65 -16.5 19.95 L-16.5 14.05 Q-17.6 13.95 -18.35 13.0 -19.15 12.05 -19.2 10.75 L-39.65 10.75 Q-40.1 10.75 -40.4 10.4 L-40.7 9.55 -40.7 -55.1 M-39.65 -57.8 Q-40.7 -57.8 -41.45 -57.0 -42.2 -56.2 -42.2 -55.1 L-42.2 9.55 Q-42.2 10.65 -41.45 11.45 -40.7 12.25 -39.65 12.25 L-20.45 12.25 Q-19.8 14.35 -18.0 15.15 L-18.0 18.15 -21.5 18.15 Q-22.45 18.15 -23.25 18.8 -24.05 18.15 -25.05 18.15 L-29.25 18.15 Q-30.2 18.15 -31.0 18.8 -31.8 18.15 -32.8 18.15 L-37.0 18.15 Q-38.05 18.15 -38.85 18.9 -39.65 19.65 -39.75 20.7 L-39.9 22.3 -43.05 22.3 Q-44.2 22.3 -45.05 23.1 -45.85 23.85 -45.85 24.95 L-45.85 27.85 -50.0 27.85 Q-51.05 27.85 -51.8 28.55 -52.5 29.3 -52.5 30.3 L-52.5 33.85 Q-52.5 34.85 -51.8 35.6 -51.05 36.3 -50.0 36.3 L-49.25 36.3 -49.25 43.15 Q-49.25 44.15 -48.55 44.9 -47.8 45.6 -46.8 45.6 L-44.95 45.6 -45.3 49.4 Q-45.4 50.4 -44.75 51.2 L-44.1 51.7 -45.15 69.2 -46.0 69.2 -46.55 79.85 Q-46.55 80.8 -45.9 81.45 -45.15 82.3 -43.85 82.3 L-39.35 82.3 Q-38.25 82.3 -37.45 81.65 -36.6 81.05 -36.5 80.1 L-35.1 69.2 -36.0 69.2 -33.9 51.9 Q-33.15 51.7 -32.6 51.1 -32.1 50.5 -32.0 49.7 L-31.7 45.6 78.7 45.6 79.05 49.7 Q79.2 51.2 80.65 51.8 L82.75 69.2 81.85 69.2 83.25 80.1 Q83.4 81.05 84.2 81.65 85.0 82.3 86.1 82.3 L90.6 82.3 Q91.9 82.3 92.65 81.45 93.3 80.8 93.3 79.85 L92.75 69.2 91.9 69.2 90.85 51.8 91.75 51.2 Q92.45 50.45 92.35 49.4 L92.0 45.9 92.0 45.6 93.5 45.6 Q94.5 45.6 95.25 44.9 95.95 44.15 95.95 43.15 L95.95 36.3 97.15 36.3 Q98.2 36.3 98.9 35.6 99.65 34.85 99.65 33.85 L99.65 30.3 Q99.65 29.3 98.9 28.55 98.2 27.85 97.15 27.85 L94.65 27.85 94.75 27.15 94.75 27.05 Q94.75 24.15 92.1 21.9 89.5 19.65 85.35 18.95 L85.35 -35.0 Q85.35 -36.3 84.4 -37.25 83.45 -38.15 82.15 -38.15 L50.6 -38.15 Q49.3 -38.15 48.35 -37.25 47.45 -36.3 47.45 -35.0 L47.45 27.85 47.1 27.85 47.1 24.95 Q47.1 23.85 46.3 23.1 45.45 22.3 44.3 22.3 L39.9 22.3 39.75 20.7 Q39.65 19.65 38.85 18.9 38.05 18.15 37.0 18.15 L32.8 18.15 Q31.8 18.15 31.0 18.8 30.25 18.15 29.25 18.15 L25.05 18.15 Q24.05 18.15 23.25 18.85 22.55 18.15 21.5 18.15 L17.3 18.15 Q16.5 18.15 15.8 18.6 L15.8 15.15 Q17.55 14.25 18.15 12.25 L37.35 12.25 Q38.4 12.25 39.15 11.45 39.9 10.65 39.9 9.55 L39.9 -55.1 Q39.9 -56.2 39.15 -57.0 38.4 -57.8 37.35 -57.8 L-39.65 -57.8" fill="#403c2d" fill-rule="evenodd" stroke="none"/>
    <path d="M-96.0 -20.7 Q-99.6 -24.9 -102.0 -26.75 L-121.85 -19.25 -123.05 -19.35 Q-125.25 -18.8 -136.2 -11.6 L-148.15 -3.75 Q-148.35 -1.15 -147.0 3.9 -145.65 8.8 -143.95 12.15 -142.65 9.15 -141.45 9.0 -140.1 11.3 -138.3 12.8 -138.55 11.2 -127.8 3.2 -116.25 -5.4 -115.45 -6.75 L-115.3 -7.65 -107.1 -9.05 Q-105.9 -8.85 -99.55 -10.2 -93.7 -11.45 -92.75 -10.85 -93.15 -12.6 -94.9 -14.6 -93.0 -14.7 -91.1 -13.8 -92.35 -16.35 -96.0 -20.7" fill="#443828" fill-rule="evenodd" stroke="none"/>
    <path d="M-106.15 29.9 Q-100.45 28.1 -95.15 23.75 -91.6 20.75 -87.2 15.6" fill="none" stroke="#745a40" stroke-linecap="round" stroke-linejoin="round" stroke-width="1.4000000000000001"/>
    <path d="M-102.05 51.8 Q-100.5 57.65 -103.1 65.3 -104.6 69.65 -108.2 76.95" fill="none" stroke="#156bbf" stroke-linecap="round" stroke-linejoin="round" stroke-width="1.4000000000000001"/>
    <path d="M-97.8 74.85 L-102.4 75.2 -107.2 76.0 Q-109.5 76.55 -109.5 77.35 -109.5 78.15 -108.9 78.45 L-106.85 78.85 -97.05 79.35 Q-94.8 79.3 -94.8 77.25 -94.9 75.0 -97.8 74.85" fill="#745a40" fill-rule="evenodd" stroke="none"/>
    <path d="M-124.35 37.6 Q-125.15 40.85 -125.2 43.45 L-125.0 48.7 -124.45 51.15 Q-123.7 53.5 -122.45 54.85 -120.45 57.05 -116.15 58.05 L-113.6 58.35 -109.75 58.15 -106.05 57.3 -104.0 56.2 -102.7 55.1 -102.05 54.3 Q-100.8 52.65 -100.35 51.0 L-100.05 50.0 Q-99.55 48.1 -99.5 46.2 L-99.4 43.45 Q-99.6 39.6 -100.25 37.25 -101.0 34.3 -102.6 31.7 -106.1 25.8 -111.45 25.4 -115.85 25.2 -119.3 28.65 L-120.8 30.35 Q-123.25 33.55 -124.35 37.6" fill="#8f7050" fill-rule="evenodd" stroke="none"/>
    <path d="M-116.85 58.1 L-110.65 58.55 -105.3 57.15 Q-102.8 55.8 -101.55 53.65 -100.3 51.6 -99.85 49.4 L-99.45 46.15 Q-112.35 52.15 -125.45 46.45 -125.15 49.65 -124.2 52.25 -123.05 54.95 -121.2 56.1 -119.3 57.5 -116.85 58.1" fill="#3772ac" fill-rule="evenodd" stroke="none"/>
  </g>
</svg>
