<?xml version="1.0" encoding="UTF-8" standalone="no"?>
<svg xmlns:ffdec="https://www.free-decompiler.com/flash" xmlns:xlink="http://www.w3.org/1999/xlink" ffdec:objectType="shape" height="530.95px" width="695.45px" xmlns="http://www.w3.org/2000/svg">
  <g transform="matrix(1.0, 0.0, 0.0, 1.0, 398.7, 519.45)">
    <path d="M-77.1 -55.15 Q-75.75 -54.0 -73.9 -54.0 L-67.55 -54.0 -68.8 -53.1 Q-70.2 -51.7 -70.2 -49.75 L-70.15 -49.0 Q-69.9 -47.5 -68.8 -46.4 -67.4 -45.0 -65.45 -45.0 L-64.3 -45.0 Q-66.1 -44.95 -67.45 -43.6 L-68.1 -42.75 Q-68.8 -41.65 -68.8 -40.25 L-68.75 -39.75 Q-68.6 -38.1 -67.45 -36.9 -66.05 -35.5 -64.15 -35.5 L-62.95 -35.5 Q-64.75 -35.45 -66.05 -34.1 L-66.85 -33.0 Q-67.4 -32.0 -67.4 -30.75 L-67.25 -29.5 Q-66.95 -28.35 -66.05 -27.4 -64.7 -26.0 -62.85 -26.0 L-61.6 -26.0 Q-63.4 -25.95 -64.7 -24.6 L-65.75 -22.75 -66.0 -21.25 -65.85 -20.0 Q-65.55 -18.85 -64.7 -17.9 -63.35 -16.5 -61.55 -16.5 L-60.25 -16.5 Q-62.05 -16.45 -63.3 -15.1 L-63.75 -14.5 -64.3 -13.5 -64.6 -11.75 -64.45 -10.5 Q-64.15 -9.35 -63.3 -8.4 -62.0 -7.0 -60.2 -7.0 L-59.0 -7.0 Q-60.75 -6.95 -61.95 -5.6 -62.85 -4.55 -63.1 -3.25 L-63.2 -2.25 -63.05 -1.0 Q-62.8 0.15 -61.95 1.1 L-60.35 2.25 -63.6 2.25 Q-65.2 2.25 -66.35 3.35 -67.45 4.5 -67.45 6.1 L-67.45 6.15 -67.4 6.75 Q-67.25 7.95 -66.35 8.85 -65.2 10.0 -63.6 10.0 L63.2 10.0 Q64.8 10.0 65.9 8.85 66.85 7.95 67.0 6.75 L67.05 6.15 67.05 6.1 Q67.05 4.5 65.9 3.35 64.8 2.25 63.2 2.25 L59.95 2.25 Q60.85 1.9 61.55 1.1 62.4 0.15 62.65 -1.0 L62.8 -2.25 62.7 -3.25 Q62.45 -4.55 61.55 -5.6 60.35 -6.95 58.6 -7.0 L59.85 -7.0 Q61.65 -7.0 62.95 -8.4 63.8 -9.35 64.1 -10.5 L64.25 -11.75 63.95 -13.5 63.45 -14.5 62.95 -15.1 Q61.7 -16.45 59.95 -16.5 L61.15 -16.5 Q62.95 -16.5 64.3 -17.9 65.15 -18.85 65.45 -20.0 L65.6 -21.25 65.4 -22.75 Q65.05 -23.75 64.3 -24.6 63.0 -25.95 61.25 -26.0 L62.45 -26.0 Q64.3 -26.0 65.65 -27.4 66.55 -28.35 66.85 -29.5 L67.0 -30.75 Q67.0 -32.0 66.45 -33.0 L65.65 -34.1 Q64.35 -35.45 62.6 -35.5 L63.75 -35.5 Q65.65 -35.5 67.05 -36.9 68.2 -38.1 68.4 -39.75 L68.4 -40.25 Q68.4 -41.65 67.75 -42.75 L67.05 -43.6 Q65.7 -44.95 63.95 -45.0 L65.05 -45.0 Q67.0 -45.0 68.4 -46.4 69.5 -47.5 69.75 -49.0 L69.8 -49.75 Q69.8 -51.15 69.05 -52.3 L70.6 -52.3 70.6 -54.0 73.5 -54.0 Q75.35 -54.0 76.65 -55.15 77.85 -56.15 78.0 -57.5 L78.0 -57.85 78.0 -57.9 Q78.0 -59.5 76.65 -60.65 75.35 -61.75 73.5 -61.75 L-73.9 -61.75 Q-75.75 -61.75 -77.1 -60.65 -78.35 -59.5 -78.35 -57.9 L-78.35 -57.85 -78.3 -57.5 Q-78.2 -56.15 -77.1 -55.15 Z" fill="none" stroke="#553722" stroke-linecap="round" stroke-linejoin="round" stroke-width="3.0"/>
    <path d="M-64.3 -45.0 L63.95 -45.0 Q65.7 -44.95 67.05 -43.6 L67.75 -42.75 Q68.4 -41.65 68.4 -40.25 L68.4 -39.75 -68.75 -39.75 -68.8 -40.25 Q-68.8 -41.65 -68.1 -42.75 L-67.45 -43.6 Q-66.1 -44.95 -64.3 -45.0 M62.6 -35.5 Q64.35 -35.45 65.65 -34.1 L66.45 -33.0 Q67.0 -32.0 67.0 -30.75 L66.85 -29.5 -67.25 -29.5 -67.4 -30.75 Q-67.4 -32.0 -66.85 -33.0 L-66.05 -34.1 Q-64.75 -35.45 -62.95 -35.5 L62.6 -35.5 M61.25 -26.0 Q63.0 -25.95 64.3 -24.6 65.05 -23.75 65.4 -22.75 L65.6 -21.25 65.45 -20.0 -65.85 -20.0 -66.0 -21.25 -65.75 -22.75 -64.7 -24.6 Q-63.4 -25.95 -61.6 -26.0 L61.25 -26.0 M59.95 -16.5 Q61.7 -16.45 62.95 -15.1 L63.45 -14.5 63.95 -13.5 64.25 -11.75 64.1 -10.5 -64.45 -10.5 -64.6 -11.75 -64.3 -13.5 -63.75 -14.5 -63.3 -15.1 Q-62.05 -16.45 -60.25 -16.5 L59.95 -16.5 M58.6 -7.0 Q60.35 -6.95 61.55 -5.6 62.45 -4.55 62.7 -3.25 L62.8 -2.25 62.65 -1.0 -63.05 -1.0 -63.2 -2.25 -63.1 -3.25 Q-62.85 -4.55 -61.95 -5.6 -60.75 -6.95 -59.0 -7.0 L58.6 -7.0" fill="#d0b788" fill-rule="evenodd" stroke="none"/>
    <path d="M-64.3 -45.0 L-65.45 -45.0 Q-67.4 -45.0 -68.8 -46.4 -69.9 -47.5 -70.15 -49.0 L-70.2 -49.75 Q-70.2 -51.7 -68.8 -53.1 -67.4 -54.5 -65.45 -54.5 L65.05 -54.5 Q67.0 -54.5 68.4 -53.1 69.8 -51.7 69.8 -49.75 L69.75 -49.0 Q69.5 -47.5 68.4 -46.4 67.0 -45.0 65.05 -45.0 L63.95 -45.0 -64.3 -45.0 M68.4 -39.75 Q68.2 -38.1 67.05 -36.9 65.65 -35.5 63.75 -35.5 L62.6 -35.5 -62.95 -35.5 -64.15 -35.5 Q-66.05 -35.5 -67.45 -36.9 -68.6 -38.1 -68.75 -39.75 L68.4 -39.75 M66.85 -29.5 Q66.55 -28.35 65.65 -27.4 64.3 -26.0 62.45 -26.0 L61.25 -26.0 -61.6 -26.0 -62.85 -26.0 Q-64.7 -26.0 -66.05 -27.4 -66.95 -28.35 -67.25 -29.5 L66.85 -29.5 M65.45 -20.0 Q65.15 -18.85 64.3 -17.9 62.95 -16.5 61.15 -16.5 L59.95 -16.5 -60.25 -16.5 -61.55 -16.5 Q-63.35 -16.5 -64.7 -17.9 -65.55 -18.85 -65.85 -20.0 L65.45 -20.0 M64.1 -10.5 Q63.8 -9.35 62.95 -8.4 61.65 -7.0 59.85 -7.0 L58.6 -7.0 -59.0 -7.0 -60.2 -7.0 Q-62.0 -7.0 -63.3 -8.4 -64.15 -9.35 -64.45 -10.5 L64.1 -10.5 M62.65 -1.0 Q62.4 0.15 61.55 1.1 60.3 2.5 58.5 2.5 L-58.95 2.5 Q-60.7 2.5 -61.95 1.1 -62.8 0.15 -63.05 -1.0 L62.65 -1.0" fill="#c29d67" fill-rule="evenodd" stroke="none"/>
    <path d="M63.95 -45.0 L65.05 -45.0 Q67.0 -45.0 68.4 -46.4 69.5 -47.5 69.75 -49.0 L69.8 -49.75 Q69.8 -51.7 68.4 -53.1 67.0 -54.5 65.05 -54.5 L-65.45 -54.5 Q-67.4 -54.5 -68.8 -53.1 -70.2 -51.7 -70.2 -49.75 L-70.15 -49.0 Q-69.9 -47.5 -68.8 -46.4 -67.4 -45.0 -65.45 -45.0 L-64.3 -45.0 63.95 -45.0 Q65.7 -44.95 67.05 -43.6 L67.75 -42.75 Q68.4 -41.65 68.4 -40.25 L68.4 -39.75 Q68.2 -38.1 67.05 -36.9 65.65 -35.5 63.75 -35.5 L62.6 -35.5 Q64.35 -35.45 65.65 -34.1 L66.45 -33.0 Q67.0 -32.0 67.0 -30.75 L66.85 -29.5 Q66.55 -28.35 65.65 -27.4 64.3 -26.0 62.45 -26.0 L61.25 -26.0 Q63.0 -25.95 64.3 -24.6 65.05 -23.75 65.4 -22.75 L65.6 -21.25 65.45 -20.0 Q65.15 -18.85 64.3 -17.9 62.95 -16.5 61.15 -16.5 L59.95 -16.5 Q61.7 -16.45 62.95 -15.1 L63.45 -14.5 63.95 -13.5 64.25 -11.75 64.1 -10.5 Q63.8 -9.35 62.95 -8.4 61.65 -7.0 59.85 -7.0 L58.6 -7.0 Q60.35 -6.95 61.55 -5.6 62.45 -4.55 62.7 -3.25 L62.8 -2.25 62.65 -1.0 Q62.4 0.15 61.55 1.1 60.3 2.5 58.5 2.5 L-58.95 2.5 Q-60.7 2.5 -61.95 1.1 -62.8 0.15 -63.05 -1.0 L-63.2 -2.25 -63.1 -3.25 Q-62.85 -4.55 -61.95 -5.6 -60.75 -6.95 -59.0 -7.0 L-60.2 -7.0 Q-62.0 -7.0 -63.3 -8.4 -64.15 -9.35 -64.45 -10.5 L-64.6 -11.75 -64.3 -13.5 -63.75 -14.5 -63.3 -15.1 Q-62.05 -16.45 -60.25 -16.5 L-61.55 -16.5 Q-63.35 -16.5 -64.7 -17.9 -65.55 -18.85 -65.85 -20.0 L-66.0 -21.25 -65.75 -22.75 -64.7 -24.6 Q-63.4 -25.95 -61.6 -26.0 L-62.85 -26.0 Q-64.7 -26.0 -66.05 -27.4 -66.95 -28.35 -67.25 -29.5 L-67.4 -30.75 Q-67.4 -32.0 -66.85 -33.0 L-66.05 -34.1 Q-64.75 -35.45 -62.95 -35.5 L-64.15 -35.5 Q-66.05 -35.5 -67.45 -36.9 -68.6 -38.1 -68.75 -39.75 L-68.8 -40.25 Q-68.8 -41.65 -68.1 -42.75 L-67.45 -43.6 Q-66.1 -44.95 -64.3 -45.0 M58.6 -7.0 L-59.0 -7.0 M59.95 -16.5 L-60.25 -16.5 M-61.6 -26.0 L61.25 -26.0 M-62.95 -35.5 L62.6 -35.5" fill="none" stroke="#9c7957" stroke-linecap="round" stroke-linejoin="round" stroke-width="1.0"/>
    <path d="M-65.75 -42.95 Q-66.9 -41.5 -68.5 -41.5 -70.1 -41.5 -71.25 -42.95 -72.4 -44.35 -72.4 -46.4 -72.4 -48.45 -71.25 -49.9 -70.1 -51.3 -68.5 -51.3 -66.9 -51.3 -65.75 -49.9 -64.6 -48.45 -64.6 -46.4 -64.6 -44.35 -65.75 -42.95" fill="#606060" fill-rule="evenodd" stroke="none"/>
    <path d="M-53.55 -54.5 Q-55.15 -54.5 -56.3 -53.1 -57.45 -51.7 -57.45 -49.75 -57.45 -47.8 -56.3 -46.4 -55.15 -45.0 -53.55 -45.0 L-52.65 -45.0 Q-54.1 -44.95 -55.2 -43.6 -56.3 -42.2 -56.3 -40.25 -56.3 -38.3 -55.2 -36.9 -54.05 -35.5 -52.5 -35.5 L-51.55 -35.5 Q-53.0 -35.45 -54.05 -34.1 -55.15 -32.7 -55.15 -30.75 -55.15 -28.8 -54.05 -27.4 -52.95 -26.0 -51.45 -26.0 L-50.4 -26.0 Q-51.9 -25.95 -52.95 -24.6 -54.0 -23.2 -54.0 -21.25 -54.0 -19.3 -52.95 -17.9 -51.85 -16.5 -50.4 -16.5 L-49.3 -16.5 Q-50.8 -16.45 -51.8 -15.1 -52.9 -13.7 -52.9 -11.75 -52.9 -9.8 -51.8 -8.4 -50.75 -7.0 -49.3 -7.0 L-48.3 -7.0 Q-49.75 -6.95 -50.7 -5.6 -51.75 -4.2 -51.75 -2.25 -51.75 -0.3 -50.7 1.1 -49.7 2.5 -48.25 2.5 M47.85 2.5 Q49.3 2.5 50.35 1.1 51.35 -0.3 51.35 -2.25 51.35 -4.2 50.35 -5.6 49.35 -6.95 47.95 -7.0 L48.95 -7.0 Q50.45 -7.0 51.5 -8.4 52.55 -9.8 52.55 -11.75 52.55 -13.7 51.5 -15.1 50.45 -16.45 49.05 -16.5 L50.0 -16.5 Q51.5 -16.5 52.6 -17.9 53.65 -19.3 53.65 -21.25 53.65 -23.2 52.6 -24.6 51.55 -25.95 50.1 -26.0 L51.1 -26.0 Q52.6 -26.0 53.7 -27.4 54.8 -28.8 54.8 -30.75 54.8 -32.7 53.7 -34.1 52.65 -35.45 51.2 -35.5 L52.15 -35.5 Q53.7 -35.5 54.85 -36.9 55.95 -38.3 55.95 -40.25 55.95 -42.2 54.85 -43.6 53.75 -44.95 52.3 -45.0 L53.2 -45.0 Q54.8 -45.0 55.95 -46.4 57.1 -47.8 57.1 -49.75 57.1 -51.7 55.95 -53.1 54.8 -54.5 53.2 -54.5" fill="none" stroke="#693a27" stroke-linecap="round" stroke-linejoin="round" stroke-opacity="0.49803922" stroke-width="1.0"/>
    <path d="M-22.85 -54.5 Q-23.5 -54.5 -24.0 -53.1 -24.5 -51.7 -24.5 -49.75 -24.5 -47.8 -24.0 -46.4 -23.5 -45.0 -22.85 -45.0 L-22.45 -45.0 Q-23.05 -44.95 -23.55 -43.6 -24.0 -42.2 -24.0 -40.25 -24.0 -38.3 -23.55 -36.9 -23.05 -35.5 -22.4 -35.5 L-21.95 -35.5 Q-22.6 -35.45 -23.05 -34.1 -23.5 -32.7 -23.5 -30.75 -23.5 -28.8 -23.05 -27.4 -22.6 -26.0 -21.95 -26.0 L-21.5 -26.0 Q-22.15 -25.95 -22.6 -24.6 -23.05 -23.2 -23.05 -21.25 -23.05 -19.3 -22.6 -17.9 -22.1 -16.5 -21.5 -16.5 L-21.05 -16.5 Q-21.65 -16.45 -22.1 -15.1 -22.55 -13.7 -22.55 -11.75 -22.55 -9.8 -22.1 -8.4 -21.65 -7.0 -21.0 -7.0 L-20.6 -7.0 Q-21.2 -6.95 -21.65 -5.6 -22.05 -4.2 -22.05 -2.25 -22.05 -0.3 -21.65 1.1 -21.2 2.5 -20.6 2.5 M22.05 -45.0 L22.4 -44.85 Q23.1 -45.0 23.6 -46.4 24.1 -47.8 24.1 -49.75 24.1 -51.7 23.6 -53.1 23.1 -54.5 22.45 -54.5 M20.15 2.5 Q20.8 2.5 21.2 1.1 21.65 -0.3 21.65 -2.25 21.65 -4.2 21.2 -5.6 20.8 -6.95 20.2 -7.0 L20.65 -7.0 Q21.25 -7.0 21.7 -8.4 22.15 -9.8 22.15 -11.75 22.15 -13.7 21.7 -15.1 21.25 -16.45 20.65 -16.5 L21.1 -16.5 Q21.7 -16.5 22.15 -17.9 22.6 -19.3 22.6 -21.25 22.6 -23.2 22.15 -24.6 21.7 -25.95 21.1 -26.0 L21.55 -26.0 Q22.15 -26.0 22.65 -27.4 23.1 -28.8 23.1 -30.75 23.1 -32.7 22.65 -34.1 22.2 -35.45 21.6 -35.5 L22.0 -35.5 Q22.65 -35.5 23.15 -36.9 23.6 -38.3 23.6 -40.25 23.6 -42.2 23.15 -43.6 L22.4 -44.85" fill="none" stroke="#693a27" stroke-linecap="round" stroke-linejoin="round" stroke-opacity="0.49803922" stroke-width="1.0"/>
    <path d="M-78.3 -57.5 L-78.35 -57.85 -78.35 -57.9 Q-78.35 -59.5 -77.1 -60.65 -75.75 -61.75 -73.9 -61.75 L73.5 -61.75 Q75.35 -61.75 76.65 -60.65 78.0 -59.5 78.0 -57.9 L78.0 -57.85 78.0 -57.5 -78.3 -57.5" fill="#9b5939" fill-rule="evenodd" stroke="none"/>
    <path d="M78.0 -57.5 Q77.85 -56.15 76.65 -55.15 75.35 -54.0 73.5 -54.0 L-73.9 -54.0 Q-75.75 -54.0 -77.1 -55.15 -78.2 -56.15 -78.3 -57.5 L78.0 -57.5" fill="#824831" fill-rule="evenodd" stroke="none"/>
    <path d="M78.0 -57.5 Q77.85 -56.15 76.65 -55.15 75.35 -54.0 73.5 -54.0 L-73.9 -54.0 Q-75.75 -54.0 -77.1 -55.15 -78.2 -56.15 -78.3 -57.5 L-78.35 -57.85 -78.35 -57.9 Q-78.35 -59.5 -77.1 -60.65 -75.75 -61.75 -73.9 -61.75 L73.5 -61.75 Q75.35 -61.75 76.65 -60.65 78.0 -59.5 78.0 -57.9 L78.0 -57.85 78.0 -57.5 Z" fill="none" stroke="#693a27" stroke-linecap="round" stroke-linejoin="round" stroke-width="1.0"/>
    <path d="M3.3 -42.4 Q1.7 -40.75 -0.5 -40.75 -2.7 -40.75 -4.3 -42.4 -5.9 -44.0 -5.9 -46.3 -5.9 -48.6 -4.3 -50.25 -2.7 -51.8 -0.5 -51.8 1.7 -51.8 3.3 -50.25 4.9 -48.6 4.9 -46.3 4.9 -44.0 3.3 -42.4" fill="#606060" fill-rule="evenodd" stroke="none"/>
    <path d="M-9.85 -38.6 Q-12.6 -41.35 -12.6 -45.25 -12.6 -49.2 -9.85 -51.95 -7.05 -54.7 -3.15 -54.7 0.8 -54.7 3.55 -51.95 6.3 -49.2 6.3 -45.25 6.3 -41.35 3.55 -38.6 0.8 -35.8 -3.15 -35.8 -7.05 -35.8 -9.85 -38.6" fill="#000000" fill-opacity="0.14901961" fill-rule="evenodd" stroke="none"/>
    <path d="M-5.3 -51.75 Q-3.25 -53.8 -0.35 -53.8 2.55 -53.8 4.6 -51.75 6.65 -49.7 6.65 -46.8 6.65 -43.85 4.6 -41.8 2.55 -39.75 -0.35 -39.75 -3.25 -39.75 -5.3 -41.8 -7.35 -43.85 -7.35 -46.8 -7.35 -49.7 -5.3 -51.75 Z" fill="none" stroke="#333333" stroke-linecap="round" stroke-linejoin="round" stroke-width="5.0"/>
    <path d="M-5.3 -51.75 Q-3.25 -53.8 -0.35 -53.8 2.55 -53.8 4.6 -51.75 6.65 -49.7 6.65 -46.8 6.65 -43.85 4.6 -41.8 2.55 -39.75 -0.35 -39.75 -3.25 -39.75 -5.3 -41.8 -7.35 -43.85 -7.35 -46.8 -7.35 -49.7 -5.3 -51.75 Z" fill="none" stroke="#999999" stroke-linecap="round" stroke-linejoin="round" stroke-width="3.0"/>
    <path d="M-67.4 6.75 L-67.45 6.15 -67.45 6.1 Q-67.45 4.5 -66.35 3.35 -65.2 2.25 -63.6 2.25 L63.2 2.25 Q64.8 2.25 65.9 3.35 67.05 4.5 67.05 6.1 L67.05 6.15 67.0 6.75 -67.4 6.75" fill="#9b5939" fill-rule="evenodd" stroke="none"/>
    <path d="M67.0 6.75 Q66.85 7.95 65.9 8.85 64.8 10.0 63.2 10.0 L-63.6 10.0 Q-65.2 10.0 -66.35 8.85 -67.25 7.95 -67.4 6.75 L67.0 6.75" fill="#824831" fill-rule="evenodd" stroke="none"/>
    <path d="M-67.4 6.75 L-67.45 6.15 -67.45 6.1 Q-67.45 4.5 -66.35 3.35 -65.2 2.25 -63.6 2.25 L63.2 2.25 Q64.8 2.25 65.9 3.35 67.05 4.5 67.05 6.1 L67.05 6.15 67.0 6.75 Q66.85 7.95 65.9 8.85 64.8 10.0 63.2 10.0 L-63.6 10.0 Q-65.2 10.0 -66.35 8.85 -67.25 7.95 -67.4 6.75 Z" fill="none" stroke="#693a27" stroke-linecap="round" stroke-linejoin="round" stroke-width="1.0"/>
    <path d="M-143.65 -236.75 L-69.05 -48.9" fill="none" stroke="#856723" stroke-linecap="round" stroke-linejoin="round" stroke-width="6.0"/>
    <path d="M143.3 -236.75 L68.8 -48.9" fill="none" stroke="#856723" stroke-linecap="round" stroke-linejoin="round" stroke-width="6.0"/>
    <path d="M-0.2 -236.75 L-0.2 -48.9" fill="none" stroke="#856723" stroke-linecap="round" stroke-linejoin="round" stroke-width="6.0"/>
    <path d="M-143.65 -236.75 L-69.05 -48.9" fill="none" stroke="#856723" stroke-linecap="round" stroke-linejoin="round" stroke-width="4.0"/>
    <path d="M143.3 -236.75 L68.8 -48.9" fill="none" stroke="#856723" stroke-linecap="round" stroke-linejoin="round" stroke-width="4.0"/>
    <path d="M-0.2 -236.75 L-0.2 -48.9" fill="none" stroke="#856723" stroke-linecap="round" stroke-linejoin="round" stroke-width="4.0"/>
    <path d="M66.25 -51.1 Q67.4 -52.55 69.0 -52.55 70.6 -52.55 71.75 -51.1 72.9 -49.7 72.9 -47.65 72.9 -45.6 71.75 -44.15 70.6 -42.75 69.0 -42.75 67.4 -42.75 66.25 -44.15 65.1 -45.6 65.1 -47.65 65.1 -49.7 66.25 -51.1" fill="#606060" fill-rule="evenodd" stroke="none"/>
    <path d="M60.5 -40.1 Q58.4 -42.85 58.4 -46.75 58.4 -50.7 60.5 -53.45 62.7 -56.2 65.7 -56.2 68.75 -56.2 70.9 -53.45 73.05 -50.7 73.05 -46.75 73.05 -42.85 70.9 -40.1 68.75 -37.3 65.7 -37.3 62.7 -37.3 60.5 -40.1" fill="#000000" fill-opacity="0.14901961" fill-rule="evenodd" stroke="none"/>
    <path d="M66.1 -54.2 Q67.95 -56.0 70.05 -55.6 72.15 -55.2 73.2 -52.8 74.3 -50.5 73.7 -47.5 73.15 -44.55 71.25 -42.7 69.35 -40.95 67.25 -41.35 65.15 -41.75 64.15 -44.1 63.05 -46.5 63.6 -49.45 64.2 -52.45 66.1 -54.2 Z" fill="none" stroke="#333333" stroke-linecap="round" stroke-linejoin="round" stroke-width="5.0"/>
    <path d="M66.1 -54.2 Q67.95 -56.0 70.05 -55.6 72.15 -55.2 73.2 -52.8 74.3 -50.5 73.7 -47.5 73.15 -44.55 71.25 -42.7 69.35 -40.95 67.25 -41.35 65.15 -41.75 64.15 -44.1 63.05 -46.5 63.6 -49.45 64.2 -52.45 66.1 -54.2 Z" fill="none" stroke="#999999" stroke-linecap="round" stroke-linejoin="round" stroke-width="3.0"/>
    <path d="M-70.9 -41.85 Q-69.05 -40.05 -66.95 -40.45 -64.85 -40.85 -63.8 -43.25 -62.7 -45.55 -63.3 -48.55 -63.85 -51.5 -65.75 -53.35 -67.65 -55.1 -69.75 -54.7 -71.85 -54.3 -72.85 -51.95 -73.95 -49.55 -73.4 -46.6 -72.8 -43.6 -70.9 -41.85 Z" fill="none" stroke="#333333" stroke-linecap="round" stroke-linejoin="round" stroke-width="5.0"/>
    <path d="M-70.9 -41.85 Q-69.05 -40.05 -66.95 -40.45 -64.85 -40.85 -63.8 -43.25 -62.7 -45.55 -63.3 -48.55 -63.85 -51.5 -65.75 -53.35 -67.65 -55.1 -69.75 -54.7 -71.85 -54.3 -72.85 -51.95 -73.95 -49.55 -73.4 -46.6 -72.8 -43.6 -70.9 -41.85 Z" fill="none" stroke="#8d8d8d" stroke-linecap="round" stroke-linejoin="round" stroke-width="3.0"/>
    <path d="M35.65 -38.6 Q32.9 -41.35 32.9 -45.25 32.9 -49.2 35.65 -51.95 38.45 -54.7 42.35 -54.7 46.3 -54.7 49.05 -51.95 51.8 -49.2 51.8 -45.25 51.8 -41.35 49.05 -38.6 46.3 -35.8 42.35 -35.8 38.45 -35.8 35.65 -38.6" fill="#000000" fill-opacity="0.14901961" fill-rule="evenodd" stroke="none"/>
    <path d="M47.95 -42.4 Q46.5 -40.75 44.5 -40.75 42.5 -40.75 41.05 -42.4 39.65 -44.0 39.65 -46.3 39.65 -48.6 41.05 -50.25 42.5 -51.8 44.5 -51.8 46.5 -51.8 47.95 -50.25 49.35 -48.6 49.35 -46.3 49.35 -44.0 47.95 -42.4" fill="#606060" fill-rule="evenodd" stroke="none"/>
    <path d="M40.2 -51.75 Q42.05 -53.8 44.65 -53.8 47.3 -53.8 49.1 -51.75 50.95 -49.7 50.95 -46.8 50.95 -43.85 49.1 -41.8 47.3 -39.75 44.65 -39.75 42.05 -39.75 40.2 -41.8 38.35 -43.85 38.35 -46.8 38.35 -49.7 40.2 -51.75 Z" fill="none" stroke="#333333" stroke-linecap="round" stroke-linejoin="round" stroke-width="5.0"/>
    <path d="M40.2 -51.75 Q42.05 -53.8 44.65 -53.8 47.3 -53.8 49.1 -51.75 50.95 -49.7 50.95 -46.8 50.95 -43.85 49.1 -41.8 47.3 -39.75 44.65 -39.75 42.05 -39.75 40.2 -41.8 38.35 -43.85 38.35 -46.8 38.35 -49.7 40.2 -51.75 Z" fill="none" stroke="#999999" stroke-linecap="round" stroke-linejoin="round" stroke-width="3.0"/>
    <path d="M-42.05 -42.4 Q-43.5 -40.75 -45.5 -40.75 -47.5 -40.75 -48.95 -42.4 -50.35 -44.0 -50.35 -46.3 -50.35 -48.6 -48.95 -50.25 -47.5 -51.8 -45.5 -51.8 -43.5 -51.8 -42.05 -50.25 -40.65 -48.6 -40.65 -46.3 -40.65 -44.0 -42.05 -42.4" fill="#606060" fill-rule="evenodd" stroke="none"/>
    <path d="M-49.8 -51.75 Q-47.95 -53.8 -45.35 -53.8 -42.7 -53.8 -40.9 -51.75 -39.05 -49.7 -39.05 -46.8 -39.05 -43.85 -40.9 -41.8 -42.7 -39.75 -45.35 -39.75 -47.95 -39.75 -49.8 -41.8 -51.65 -43.85 -51.65 -46.8 -51.65 -49.7 -49.8 -51.75 Z" fill="none" stroke="#333333" stroke-linecap="round" stroke-linejoin="round" stroke-width="5.0"/>
    <path d="M-49.8 -51.75 Q-47.95 -53.8 -45.35 -53.8 -42.7 -53.8 -40.9 -51.75 -39.05 -49.7 -39.05 -46.8 -39.05 -43.85 -40.9 -41.8 -42.7 -39.75 -45.35 -39.75 -47.95 -39.75 -49.8 -41.8 -51.65 -43.85 -51.65 -46.8 -51.65 -49.7 -49.8 -51.75 Z" fill="none" stroke="#999999" stroke-linecap="round" stroke-linejoin="round" stroke-width="3.0"/>
    <path d="M-37.65 -44.45 L-37.5 -44.45 -37.45 -44.25 -37.6 -44.2 Q-38.6 -43.9 -39.45 -43.05 L-40.1 -42.2 Q-40.8 -41.1 -40.8 -39.7 L-40.75 -39.2 Q-40.6 -37.55 -39.45 -36.35 -38.25 -35.15 -36.65 -34.95 L-36.15 -34.95 -36.1 -34.95 -36.05 -34.75 -36.6 -34.55 -38.05 -33.55 -38.85 -32.45 Q-39.4 -31.45 -39.4 -30.2 L-39.25 -28.95 Q-38.95 -27.8 -38.05 -26.85 -37.0 -25.75 -35.65 -25.5 L-34.85 -25.45 -34.75 -25.45 -34.7 -25.25 -35.6 -24.9 -36.7 -24.05 Q-37.45 -23.2 -37.75 -22.2 L-38.0 -20.7 -37.85 -19.45 Q-37.55 -18.3 -36.7 -17.35 -35.8 -16.4 -34.65 -16.1 L-33.55 -15.95 -33.35 -15.95 -33.3 -15.75 -34.55 -15.15 -35.3 -14.55 -35.75 -13.95 -36.3 -12.95 -36.6 -11.2 -36.45 -9.95 Q-36.15 -8.8 -35.3 -7.85 -34.6 -7.05 -33.7 -6.7 L-32.2 -6.45 -31.95 -6.45 -31.9 -6.3 -33.55 -5.45 -33.95 -5.05 Q-34.85 -4.0 -35.1 -2.7 L-35.2 -1.7 -35.2 -1.5 -35.05 -0.45 Q-34.8 0.7 -33.95 1.65 L-33.6 2.0 -61.45 2.0 Q-63.2 2.0 -64.45 0.6 -65.3 -0.35 -65.55 -1.5 L-65.7 -2.75 -65.6 -3.75 Q-65.35 -5.05 -64.45 -6.1 -63.25 -7.45 -61.5 -7.5 L-62.7 -7.5 Q-64.5 -7.5 -65.8 -8.9 -66.65 -9.85 -66.95 -11.0 L-67.1 -12.25 -66.8 -14.0 -66.25 -15.0 -65.8 -15.6 Q-64.55 -16.95 -62.75 -17.0 L-64.05 -17.0 Q-65.85 -17.0 -67.2 -18.4 -68.05 -19.35 -68.35 -20.5 L-68.5 -21.75 -68.25 -23.25 -67.2 -25.1 Q-65.9 -26.45 -64.1 -26.5 L-65.35 -26.5 Q-67.2 -26.5 -68.55 -27.9 -69.45 -28.85 -69.75 -30.0 L-69.9 -31.25 Q-69.9 -32.5 -69.35 -33.5 L-68.55 -34.6 Q-67.25 -35.95 -65.45 -36.0 L-66.65 -36.0 Q-68.55 -36.0 -69.95 -37.4 -71.1 -38.6 -71.25 -40.25 L-71.3 -40.75 Q-71.3 -42.15 -70.6 -43.25 L-69.95 -44.1 Q-68.6 -45.45 -66.8 -45.5 L-67.95 -45.5 Q-69.9 -45.5 -71.3 -46.9 -72.4 -48.0 -72.65 -49.5 L-72.7 -50.25 Q-72.7 -52.2 -71.3 -53.6 L-70.65 -54.15 -70.65 -55.55 -69.4 -55.55 -69.4 -56.05 68.1 -56.05 68.1 -55.0 66.35 -55.0 66.35 -50.55 -42.0 -50.55 -42.2 -49.2 -42.15 -48.45 Q-41.9 -46.95 -40.8 -45.85 -39.45 -44.5 -37.65 -44.45" fill="#000000" fill-opacity="0.101960786" fill-rule="evenodd" stroke="none"/>
    <path d="M111.3 -509.6 Q62.6 -517.95 3.75 -517.95 -65.8 -517.95 -141.45 -496.6 -161.6 -490.9 -181.45 -483.9 -189.3 -488.55 -198.8 -492.5 -209.95 -497.15 -223.45 -500.9 -248.95 -508.0 -276.3 -510.15 -304.05 -512.35 -325.65 -508.8 -378.8 -500.05 -389.7 -458.6 -394.3 -441.1 -391.9 -416.25 -390.25 -398.95 -384.75 -375.0 -387.7 -373.75 -389.95 -372.25 -397.2 -367.55 -397.2 -361.1 -397.2 -352.75 -385.15 -347.35 L-385.65 -343.25 Q-387.55 -334.8 -388.85 -327.2 -392.15 -312.95 -393.1 -286.5 -393.6 -273.0 -388.8 -260.35 -382.15 -239.2 -363.75 -227.05 -348.4 -216.2 -323.6 -213.0 -302.75 -209.9 -276.3 -212.0 L-274.25 -212.15 Q-249.95 -213.5 -235.0 -218.25 L-233.8 -218.6 -223.45 -221.3 Q-212.65 -224.3 -203.3 -227.9 -198.9 -229.2 -194.65 -231.5 L-191.15 -233.15 Q-181.9 -229.85 -172.7 -226.9 L-144.7 -218.25 -141.45 -217.3 Q-65.8 -195.95 3.75 -195.95 62.65 -195.95 111.3 -204.25 157.7 -212.2 193.4 -227.45 L197.5 -229.25 207.65 -234.0 Q234.85 -246.35 257.7 -269.15 264.65 -276.0 270.35 -283.5 295.25 -316.25 295.25 -357.0 L294.75 -356.2 294.75 -356.95 294.7 -358.5 294.7 -361.05 Q293.5 -399.4 269.85 -430.55 243.8 -464.85 193.4 -486.4 157.65 -501.65 111.3 -509.6 Z" fill="none" stroke="#333333" stroke-linecap="round" stroke-linejoin="round" stroke-width="3.0"/>
    <path d="M-179.15 -482.5 Q-160.0 -470.55 -155.6 -456.55 L-383.05 -367.7 Q-390.0 -396.35 -391.9 -416.25 -394.3 -441.1 -389.7 -458.6 -378.8 -500.05 -325.65 -508.8 -304.05 -512.35 -276.3 -510.15 -248.95 -508.0 -223.45 -500.9 -196.7 -493.45 -179.15 -482.5" fill="#ffea53" fill-rule="evenodd" stroke="none"/>
    <path d="M-179.15 -482.5 Q-196.7 -493.45 -223.45 -500.9 -248.95 -508.0 -276.3 -510.15 -304.05 -512.35 -325.65 -508.8 -378.8 -500.05 -389.7 -458.6 -394.3 -441.1 -391.9 -416.25 -390.0 -396.35 -383.05 -367.7 L-155.6 -456.55 Q-160.0 -470.55 -179.15 -482.5 Z" fill="none" stroke="#666666" stroke-linecap="butt" stroke-linejoin="miter-clip" stroke-miterlimit="4.0" stroke-width="1.0"/>
    <path d="M-391.9 -305.9 Q-390.0 -325.8 -383.05 -354.5 L-155.6 -265.65 Q-160.0 -251.65 -179.15 -239.7 -196.7 -228.75 -223.45 -221.3 -248.95 -214.2 -276.3 -212.0 -304.05 -209.8 -325.65 -213.35 -378.8 -222.1 -389.7 -263.55 -394.3 -281.1 -391.9 -305.9" fill="#ffea53" fill-rule="evenodd" stroke="none"/>
    <path d="M-391.9 -305.9 Q-390.0 -325.8 -383.05 -354.5 L-155.6 -265.65 Q-160.0 -251.65 -179.15 -239.7 -196.7 -228.75 -223.45 -221.3 -248.95 -214.2 -276.3 -212.0 -304.05 -209.8 -325.65 -213.35 -378.8 -222.1 -389.7 -263.55 -394.3 -281.1 -391.9 -305.9 Z" fill="none" stroke="#666666" stroke-linecap="butt" stroke-linejoin="miter-clip" stroke-miterlimit="4.0" stroke-width="1.0"/>
    <path d="M-345.4 -328.1 L-194.9 -264.0 Q-204.75 -257.7 -219.35 -252.5 -236.35 -246.5 -256.5 -243.1 -276.7 -239.7 -295.45 -239.7 -308.9 -239.7 -319.65 -241.5 -348.5 -246.25 -359.0 -262.0 -366.2 -272.9 -366.15 -296.85 -366.1 -316.15 -361.6 -339.3 L-345.4 -328.1" fill="#f5c503" fill-rule="evenodd" stroke="none"/>
    <path d="M-194.9 -458.2 L-352.25 -387.9 -361.6 -382.9 Q-366.1 -406.05 -366.15 -425.35 -366.2 -449.3 -359.0 -460.2 -348.5 -475.95 -319.65 -480.7 -308.9 -482.5 -295.45 -482.5 -276.65 -482.5 -256.5 -479.1 -236.35 -475.7 -219.35 -469.65 -205.1 -464.65 -194.9 -458.2" fill="#f5c503" fill-rule="evenodd" stroke="none"/>
    <path d="M269.85 -430.55 Q294.75 -397.75 294.75 -356.95 294.75 -316.1 269.85 -283.3 243.8 -249.0 193.4 -227.45 157.7 -212.2 111.3 -204.25 62.65 -195.95 3.75 -195.95 -65.8 -195.95 -141.45 -217.3 -205.3 -235.35 -266.5 -266.35 -318.3 -292.6 -354.2 -320.45 -369.9 -332.65 -378.65 -342.3 -387.25 -351.85 -387.25 -356.95 -387.25 -362.05 -378.65 -371.6 -369.9 -381.25 -354.2 -393.45 -318.25 -421.3 -266.5 -447.55 -205.3 -478.55 -141.45 -496.6 -65.8 -517.95 3.75 -517.95 62.6 -517.95 111.3 -509.6 157.65 -501.65 193.4 -486.4 243.8 -464.85 269.85 -430.55" fill="#ffea53" fill-rule="evenodd" stroke="none"/>
    <path d="M269.85 -430.55 Q243.8 -464.85 193.4 -486.4 157.65 -501.65 111.3 -509.6 62.6 -517.95 3.75 -517.95 -65.8 -517.95 -141.45 -496.6 -205.3 -478.55 -266.5 -447.55 -318.25 -421.3 -354.2 -393.45 -369.9 -381.25 -378.65 -371.6 -387.25 -362.05 -387.25 -356.95 -387.25 -351.85 -378.65 -342.3 -369.9 -332.65 -354.2 -320.45 -318.3 -292.6 -266.5 -266.35 -205.3 -235.35 -141.45 -217.3 -65.8 -195.95 3.75 -195.95 62.65 -195.95 111.3 -204.25 157.7 -212.2 193.4 -227.45 243.8 -249.0 269.85 -283.3 294.75 -316.1 294.75 -356.95 294.75 -397.75 269.85 -430.55 Z" fill="none" stroke="#666666" stroke-linecap="butt" stroke-linejoin="miter-clip" stroke-miterlimit="4.0" stroke-width="1.0"/>
    <path d="M269.85 -416.4 Q294.75 -389.9 294.75 -356.95 294.75 -324.0 269.85 -297.5 243.8 -269.8 193.4 -252.4 119.6 -226.95 3.75 -226.95 -65.8 -226.95 -141.45 -244.2 -205.3 -258.75 -266.5 -283.8 -318.3 -304.95 -354.2 -327.45 -387.25 -348.15 -387.25 -356.95 -387.25 -365.7 -354.2 -386.4 -318.25 -408.9 -266.5 -430.1 -205.3 -455.15 -141.45 -469.7 -65.8 -486.95 3.75 -486.95 62.6 -486.95 111.3 -480.2 157.65 -473.8 193.4 -461.45 243.8 -444.1 269.85 -416.4" fill="#f5c503" fill-rule="evenodd" stroke="none"/>
    <path d="M-212.95 -496.9 Q-238.45 -504.0 -265.8 -506.15 -293.55 -508.35 -315.15 -504.8 -368.3 -496.05 -379.2 -454.6 -383.8 -437.1 -381.4 -412.25 -379.75 -395.0 -374.3 -371.1 L-383.05 -367.7 Q-390.0 -396.35 -391.9 -416.25 -394.3 -441.1 -389.7 -458.6 -378.8 -500.05 -325.65 -508.8 -304.05 -512.35 -276.3 -510.15 -248.95 -508.0 -223.45 -500.9 -209.95 -497.15 -198.8 -492.5 -205.5 -494.85 -212.95 -496.9" fill="#000000" fill-opacity="0.101960786" fill-rule="evenodd" stroke="none"/>
    <path d="M269.85 -382.55 Q294.75 -371.15 294.75 -356.95 294.75 -342.75 269.85 -331.3 243.8 -319.4 193.4 -311.9 119.75 -300.95 3.75 -300.95 -127.55 -300.95 -266.5 -325.4 -318.3 -334.55 -354.2 -344.25 -387.25 -353.15 -387.25 -356.95 -387.25 -360.7 -354.2 -369.65 -318.3 -379.35 -266.5 -388.45 -127.5 -412.95 3.75 -412.95 119.45 -412.95 193.4 -401.95 243.8 -394.45 269.85 -382.55" fill="#ffea53" fill-rule="evenodd" stroke="none"/>
    <path d="M121.7 -359.6 Q123.95 -363.0 127.0 -365.4 130.3 -367.65 134.3 -368.7 L142.45 -369.15 146.2 -368.2 149.95 -366.65 153.35 -364.5 Q154.95 -363.25 155.95 -361.75 L148.6 -351.0 Q147.35 -352.15 145.75 -352.8 144.05 -353.6 142.45 -353.85 L140.3 -353.85 Q139.25 -353.7 138.25 -353.15 137.35 -352.6 136.8 -351.9 136.1 -351.1 135.85 -349.85 135.65 -348.6 136.1 -347.5 136.45 -346.45 137.25 -345.65 137.9 -344.85 139.05 -344.55 140.05 -343.95 141.2 -343.85 L143.0 -343.6 144.95 -343.6 146.9 -343.85 148.45 -344.1 150.6 -330.7 Q147.45 -329.55 144.05 -329.45 L137.25 -329.8 Q133.05 -330.5 129.5 -332.3 125.75 -334.1 123.25 -337.05 120.65 -340.0 119.4 -343.75 118.3 -347.6 118.95 -351.9 119.55 -356.2 121.7 -359.6 M122.25 -388.4 Q122.95 -386.45 122.7 -383.85 122.5 -381.6 121.25 -379.9 120.0 -378.4 118.15 -377.4 116.35 -376.5 114.4 -375.95 112.15 -375.8 110.2 -375.95 L107.95 -376.4 106.25 -376.95 Q104.45 -377.65 103.2 -379.0 101.95 -380.35 101.35 -382.05 100.7 -384.0 101.0 -386.35 101.15 -388.65 102.15 -390.35 103.05 -392.05 104.75 -393.15 106.15 -394.2 107.95 -394.75 L108.4 -394.85 112.6 -394.95 Q115.1 -394.75 117.05 -393.95 118.95 -393.15 120.3 -391.7 121.7 -390.45 122.25 -388.4 M168.35 -361.55 L171.85 -361.3 172.2 -361.3 175.8 -359.95 179.25 -358.25 179.7 -360.95 194.8 -357.9 188.3 -320.85 173.45 -324.25 173.8 -325.85 169.45 -325.35 165.4 -325.95 Q163.8 -326.3 162.45 -326.95 161.05 -327.4 159.7 -328.2 154.6 -331.15 152.55 -335.35 150.5 -339.75 151.2 -345.55 L151.4 -346.55 151.65 -347.5 Q152.2 -350.2 153.35 -352.45 154.35 -354.75 156.05 -356.45 157.65 -358.25 159.8 -359.4 161.95 -360.65 164.7 -361.2 L168.35 -361.55 M85.15 -377.4 L88.45 -376.25 Q90.9 -375.25 92.65 -373.65 94.45 -371.85 95.7 -369.8 L97.4 -365.25 Q97.95 -362.8 98.05 -360.15 98.2 -355.85 97.4 -352.35 96.35 -348.85 94.35 -346.25 92.3 -343.75 89.0 -342.25 85.7 -340.8 81.3 -340.55 L77.55 -340.9 Q75.85 -341.25 73.9 -341.9 L74.1 -326.85 57.0 -326.95 57.65 -377.85 73.2 -377.75 73.35 -375.25 75.25 -376.15 77.3 -376.95 79.35 -377.5 81.4 -377.75 81.6 -377.75 85.15 -377.4 M0.25 -365.95 Q2.75 -366.75 5.35 -366.75 10.55 -366.65 13.5 -363.9 16.35 -361.3 16.35 -356.0 L16.25 -352.45 16.15 -348.85 1.15 -348.5 1.35 -350.45 1.6 -352.35 Q1.6 -354.05 0.45 -355.2 -0.55 -356.3 -2.25 -356.3 -3.5 -356.3 -4.65 -355.75 L-4.3 -330.95 -20.1 -330.95 -20.9 -366.85 -4.65 -367.75 -4.55 -363.9 Q-2.25 -365.15 0.25 -365.95 M43.6 -367.65 Q47.1 -366.05 49.85 -363.55 52.35 -361.1 53.9 -357.7 55.6 -354.3 55.6 -350.3 55.6 -346.25 53.8 -342.85 52.2 -339.45 49.6 -336.95 46.9 -334.45 43.35 -333.2 39.85 -331.7 35.85 -331.7 32.0 -331.7 28.5 -333.2 24.85 -334.65 22.25 -337.15 19.55 -339.65 17.95 -343.05 16.45 -346.45 16.45 -350.55 16.45 -354.5 18.05 -357.9 19.65 -361.3 22.5 -363.8 25.1 -366.3 28.7 -367.65 32.25 -369.15 36.1 -369.15 40.05 -369.15 43.6 -367.65 M101.25 -372.1 L119.55 -367.55 116.1 -338.75 101.35 -339.3 101.25 -372.1 M-24.6 -400.65 L-24.6 -382.85 -16.35 -382.95 -16.9 -369.9 -24.6 -369.8 -24.5 -344.3 -41.4 -344.3 -41.85 -369.35 -49.25 -369.15 -49.5 -382.15 -42.1 -382.4 -42.35 -400.4 -24.6 -400.65 M-55.6 -371.95 Q-53.1 -370.95 -51.3 -369.25 -49.35 -367.75 -48.25 -365.6 -47.0 -363.55 -46.3 -361.1 -45.6 -358.8 -45.5 -356.2 -45.15 -351.9 -45.85 -348.25 -46.75 -344.65 -48.7 -342.05 -50.6 -339.45 -53.8 -337.85 -56.95 -336.25 -61.4 -335.9 L-65.15 -336.15 -68.9 -336.95 -68.1 -321.85 -85.35 -321.4 -86.35 -372.4 -70.8 -372.85 -70.7 -370.25 -68.75 -371.15 -66.85 -372.1 -64.8 -372.75 -62.75 -373.1 -62.55 -373.1 -59.0 -373.0 -55.6 -371.95 M-120.2 -364.25 L-120.4 -362.8 Q-121.55 -359.4 -123.6 -356.65 -125.85 -354.15 -128.8 -352.15 L-134.95 -349.05 Q-138.25 -347.8 -141.55 -347.15 L-136.4 -327.75 -154.9 -322.65 -167.85 -377.2 -157.2 -379.65 -146.4 -382.15 -145.6 -382.5 -144.5 -382.5 -136.2 -383.05 Q-132.2 -382.95 -128.8 -381.35 -125.5 -379.8 -123.25 -376.85 -120.85 -373.65 -119.85 -368.8 L-119.85 -367.45 -119.85 -365.75 Q-119.95 -365.05 -120.2 -364.25 M-120.75 -358.7 Q-118.15 -361.2 -114.5 -362.55 -111.0 -364.05 -107.0 -364.05 -103.15 -364.05 -99.65 -362.55 -96.15 -361.2 -93.4 -358.7 -90.7 -356.2 -89.1 -352.7 -87.5 -349.3 -87.5 -345.3 -87.5 -341.25 -89.1 -337.85 -90.7 -334.45 -93.4 -331.95 -96.15 -329.45 -99.65 -328.1 -103.15 -326.6 -107.0 -326.6 -111.0 -326.6 -114.5 -328.1 -118.15 -329.45 -120.75 -331.95 -123.5 -334.45 -125.05 -337.85 -126.65 -341.25 -126.65 -345.3 -126.65 -349.3 -125.05 -352.7 -123.5 -356.2 -120.75 -358.7" fill="#0083f2" fill-rule="evenodd" stroke="none"/>
    <path d="M168.35 -361.55 L164.7 -361.2 Q161.95 -360.65 159.8 -359.4 157.65 -358.25 156.05 -356.45 154.35 -354.75 153.35 -352.45 152.2 -350.2 151.65 -347.5 L151.4 -346.55 151.2 -345.55 Q150.5 -339.75 152.55 -335.35 154.6 -331.15 159.7 -328.2 161.05 -327.4 162.45 -326.95 163.8 -326.3 165.4 -325.95 L169.45 -325.35 173.8 -325.85 173.45 -324.25 188.3 -320.85 194.8 -357.9 179.7 -360.95 179.25 -358.25 175.8 -359.95 172.2 -361.3 171.85 -361.3 168.35 -361.55 M122.25 -388.4 Q121.7 -390.45 120.3 -391.7 118.95 -393.15 117.05 -393.95 115.1 -394.75 112.6 -394.95 L108.4 -394.85 107.95 -394.75 Q106.15 -394.2 104.75 -393.15 103.05 -392.05 102.15 -390.35 101.15 -388.65 101.0 -386.35 100.7 -384.0 101.35 -382.05 101.95 -380.35 103.2 -379.0 104.45 -377.65 106.25 -376.95 L107.95 -376.4 110.2 -375.95 Q112.15 -375.8 114.4 -375.95 116.35 -376.5 118.15 -377.4 120.0 -378.4 121.25 -379.9 122.5 -381.6 122.7 -383.85 122.95 -386.45 122.25 -388.4 M121.7 -359.6 Q119.55 -356.2 118.95 -351.9 118.3 -347.6 119.4 -343.75 120.65 -340.0 123.25 -337.05 125.75 -334.1 129.5 -332.3 133.05 -330.5 137.25 -329.8 L144.05 -329.45 Q147.45 -329.55 150.6 -330.7 L148.45 -344.1 146.9 -343.85 144.95 -343.6 143.0 -343.6 141.2 -343.85 Q140.05 -343.95 139.05 -344.55 137.9 -344.85 137.25 -345.65 136.45 -346.45 136.1 -347.5 135.65 -348.6 135.85 -349.85 136.1 -351.1 136.8 -351.9 137.35 -352.6 138.25 -353.15 139.25 -353.7 140.3 -353.85 L142.45 -353.85 Q144.05 -353.6 145.75 -352.8 147.35 -352.15 148.6 -351.0 L155.95 -361.75 Q154.95 -363.25 153.35 -364.5 L149.95 -366.65 146.2 -368.2 142.45 -369.15 134.3 -368.7 Q130.3 -367.65 127.0 -365.4 123.95 -363.0 121.7 -359.6 M85.15 -377.4 L88.45 -376.25 Q90.9 -375.25 92.65 -373.65 94.45 -371.85 95.7 -369.8 L97.4 -365.25 Q97.95 -362.8 98.05 -360.15 98.2 -355.85 97.4 -352.35 96.35 -348.85 94.35 -346.25 92.3 -343.75 89.0 -342.25 85.7 -340.8 81.3 -340.55 L77.55 -340.9 Q75.85 -341.25 73.9 -341.9 L74.1 -326.85 57.0 -326.95 57.65 -377.85 73.2 -377.75 73.35 -375.25 75.25 -376.15 77.3 -376.95 79.35 -377.5 81.4 -377.75 81.6 -377.75 85.15 -377.4 M101.25 -372.1 L101.35 -339.3 116.1 -338.75 119.55 -367.55 101.25 -372.1 M43.6 -367.65 Q40.05 -369.15 36.1 -369.15 32.25 -369.15 28.7 -367.65 25.1 -366.3 22.5 -363.8 19.65 -361.3 18.05 -357.9 16.45 -354.5 16.45 -350.55 16.45 -346.45 17.95 -343.05 19.55 -339.65 22.25 -337.15 24.85 -334.65 28.5 -333.2 32.0 -331.7 35.85 -331.7 39.85 -331.7 43.35 -333.2 46.9 -334.45 49.6 -336.95 52.2 -339.45 53.8 -342.85 55.6 -346.25 55.6 -350.3 55.6 -354.3 53.9 -357.7 52.35 -361.1 49.85 -363.55 47.1 -366.05 43.6 -367.65 M0.25 -365.95 Q-2.25 -365.15 -4.55 -363.9 L-4.65 -367.75 -20.9 -366.85 -20.1 -330.95 -4.3 -330.95 -4.65 -355.75 Q-3.5 -356.3 -2.25 -356.3 -0.55 -356.3 0.45 -355.2 1.6 -354.05 1.6 -352.35 L1.35 -350.45 1.15 -348.5 16.15 -348.85 16.25 -352.45 16.35 -356.0 Q16.35 -361.3 13.5 -363.9 10.55 -366.65 5.35 -366.75 2.75 -366.75 0.25 -365.95 M-24.6 -400.65 L-24.6 -382.85 -16.35 -382.95 -16.9 -369.9 -24.6 -369.8 -24.5 -344.3 -41.4 -344.3 -41.85 -369.35 -49.25 -369.15 -49.5 -382.15 -42.1 -382.4 -42.35 -400.4 -24.6 -400.65 M-55.6 -371.95 Q-53.1 -370.95 -51.3 -369.25 -49.35 -367.75 -48.25 -365.6 -47.0 -363.55 -46.3 -361.1 -45.6 -358.8 -45.5 -356.2 -45.15 -351.9 -45.85 -348.25 -46.75 -344.65 -48.7 -342.05 -50.6 -339.45 -53.8 -337.85 -56.95 -336.25 -61.4 -335.9 L-65.15 -336.15 -68.9 -336.95 -68.1 -321.85 -85.35 -321.4 -86.35 -372.4 -70.8 -372.85 -70.7 -370.25 -68.75 -371.15 -66.85 -372.1 -64.8 -372.75 -62.75 -373.1 -62.55 -373.1 -59.0 -373.0 -55.6 -371.95 M-120.75 -358.7 Q-123.5 -356.2 -125.05 -352.7 -126.65 -349.3 -126.65 -345.3 -126.65 -341.25 -125.05 -337.85 -123.5 -334.45 -120.75 -331.95 -118.15 -329.45 -114.5 -328.1 -111.0 -326.6 -107.0 -326.6 -103.15 -326.6 -99.65 -328.1 -96.15 -329.45 -93.4 -331.95 -90.7 -334.45 -89.1 -337.85 -87.5 -341.25 -87.5 -345.3 -87.5 -349.3 -89.1 -352.7 -90.7 -356.2 -93.4 -358.7 -96.15 -361.2 -99.65 -362.55 -103.15 -364.05 -107.0 -364.05 -111.0 -364.05 -114.5 -362.55 -118.15 -361.2 -120.75 -358.7 M-120.2 -364.25 Q-119.95 -365.05 -119.85 -365.75 L-119.85 -367.45 -119.85 -368.8 Q-120.85 -373.65 -123.25 -376.85 -125.5 -379.8 -128.8 -381.35 -132.2 -382.95 -136.2 -383.05 L-144.5 -382.5 -145.6 -382.5 -146.4 -382.15 -157.2 -379.65 -167.85 -377.2 -154.9 -322.65 -136.4 -327.75 -141.55 -347.15 Q-138.25 -347.8 -134.95 -349.05 L-128.8 -352.15 Q-125.85 -354.15 -123.6 -356.65 -121.55 -359.4 -120.4 -362.8 L-120.2 -364.25 Z" fill="none" stroke="#0083f2" stroke-linecap="square" stroke-linejoin="miter-clip" stroke-miterlimit="3.0" stroke-width="6.0"/>
    <path d="M-145.65 -369.95 L-146.6 -369.95 -143.4 -357.25 Q-142.25 -357.7 -140.8 -358.5 L-138.3 -360.4 -136.7 -362.7 Q-136.25 -364.15 -136.5 -365.75 L-136.5 -365.85 -136.8 -366.85 -137.4 -367.55 Q-138.2 -368.7 -139.2 -369.15 -140.0 -369.8 -141.15 -369.95 L-143.4 -370.25 -145.65 -369.95 M-167.8 -377.2 L-157.15 -379.7 -146.35 -382.15 -145.55 -382.5 -144.4 -382.5 -136.15 -383.1 Q-132.15 -382.95 -128.75 -381.4 -125.45 -379.8 -123.2 -376.85 -120.8 -373.65 -119.8 -368.8 L-119.8 -367.45 -119.8 -365.75 Q-119.9 -365.05 -120.15 -364.25 L-120.35 -362.8 Q-121.5 -359.4 -123.55 -356.65 -125.8 -354.15 -128.75 -352.15 -131.6 -350.45 -134.9 -349.05 -138.2 -347.85 -141.45 -347.15 L-136.35 -327.75 Q-145.55 -325.15 -154.85 -322.65 L-167.8 -377.2 M171.9 -361.3 L172.25 -361.3 175.9 -359.95 179.3 -358.25 179.75 -361.0 194.85 -357.9 188.35 -320.85 173.5 -324.25 173.85 -325.85 169.5 -325.4 165.45 -325.95 Q163.85 -326.3 162.5 -326.95 161.1 -327.4 159.75 -328.2 154.65 -331.15 152.6 -335.35 150.55 -339.8 151.25 -345.55 L151.45 -346.6 151.7 -347.5 Q152.25 -350.2 153.4 -352.45 154.4 -354.75 156.15 -356.45 157.7 -358.25 159.85 -359.4 162.05 -360.65 164.75 -361.2 L168.4 -361.55 171.9 -361.3 M176.9 -347.35 L173.85 -347.85 171.0 -347.5 Q169.5 -347.15 168.5 -346.15 167.5 -345.2 167.15 -343.5 166.8 -342.05 167.15 -341.0 167.35 -340.0 168.15 -339.3 168.95 -338.55 170.1 -338.1 L172.35 -337.5 174.05 -337.05 175.65 -336.95 177.45 -347.15 176.9 -347.35 M127.05 -365.4 Q130.35 -367.65 134.35 -368.7 L142.5 -369.15 146.25 -368.25 150.0 -366.65 153.4 -364.5 Q155.0 -363.25 156.0 -361.75 L148.65 -351.0 145.8 -352.8 142.5 -353.85 140.35 -353.85 Q139.35 -353.7 138.3 -353.15 137.4 -352.6 136.85 -351.9 136.15 -351.1 135.9 -349.85 135.7 -348.6 136.15 -347.5 136.5 -346.45 137.3 -345.65 137.95 -344.9 139.1 -344.55 140.1 -343.95 141.25 -343.85 L143.05 -343.65 145.0 -343.65 146.95 -343.85 148.5 -344.1 150.7 -330.7 Q147.5 -329.6 144.1 -329.45 L137.3 -329.8 Q133.1 -330.5 129.55 -332.3 125.8 -334.1 123.3 -337.05 120.7 -340.0 119.45 -343.75 118.35 -347.6 119.0 -351.9 119.6 -356.2 121.75 -359.6 124.0 -363.0 127.05 -365.4 M-70.65 -370.25 L-68.7 -371.2 -66.8 -372.1 -64.75 -372.75 -62.7 -373.1 -62.5 -373.1 -58.95 -373.0 Q-57.25 -372.65 -55.55 -371.95 -53.05 -370.95 -51.25 -369.25 -49.3 -367.8 -48.2 -365.6 -46.95 -363.6 -46.25 -361.1 -45.55 -358.8 -45.45 -356.2 -45.1 -351.9 -45.8 -348.3 -46.7 -344.65 -48.65 -342.05 -50.55 -339.45 -53.75 -337.85 -56.9 -336.25 -61.35 -335.9 L-65.1 -336.15 -68.85 -336.95 -68.05 -321.85 -85.3 -321.4 -86.3 -372.4 -70.75 -372.9 -70.65 -370.25 M-42.05 -382.4 L-42.25 -400.4 -24.55 -400.65 -24.55 -382.85 -16.3 -382.95 Q-16.5 -376.4 -16.85 -369.95 -20.7 -369.8 -24.55 -369.8 L-24.45 -344.3 -41.35 -344.3 -41.8 -369.35 -49.2 -369.15 -49.4 -382.15 -42.05 -382.4 M0.3 -365.95 Q2.8 -366.75 5.4 -366.75 10.6 -366.65 13.55 -363.9 16.4 -361.3 16.4 -356.0 L16.3 -352.45 16.2 -348.85 1.2 -348.5 1.4 -350.45 1.65 -352.35 Q1.65 -354.05 0.5 -355.2 -0.5 -356.35 -2.2 -356.35 -3.45 -356.35 -4.6 -355.75 L-4.25 -330.95 -20.05 -330.95 -20.8 -366.85 -4.6 -367.8 -4.5 -363.9 Q-2.2 -365.15 0.3 -365.95 M77.35 -376.95 L79.4 -377.5 81.45 -377.75 81.65 -377.75 85.2 -377.4 88.5 -376.3 Q91.0 -375.25 92.7 -373.65 94.5 -371.85 95.75 -369.8 L97.45 -365.3 Q98.0 -362.8 98.15 -360.2 98.25 -355.85 97.45 -352.35 96.4 -348.85 94.4 -346.25 92.35 -343.75 89.05 -342.25 85.75 -340.8 81.35 -340.55 L77.6 -340.9 Q75.9 -341.25 73.95 -341.95 L74.2 -326.85 57.05 -326.95 57.7 -377.85 73.25 -377.75 73.4 -375.25 75.3 -376.15 77.35 -376.95 M101.3 -372.1 L119.6 -367.55 116.15 -338.75 101.4 -339.3 101.3 -372.1 M108.0 -394.75 L108.45 -394.85 112.65 -395.0 Q115.15 -394.75 117.1 -393.95 119.0 -393.15 120.35 -391.7 121.75 -390.45 122.3 -388.4 123.0 -386.5 122.75 -383.85 122.55 -381.6 121.3 -379.9 120.05 -378.45 118.2 -377.4 116.4 -376.5 114.45 -375.95 112.2 -375.8 110.25 -375.95 L108.0 -376.4 106.3 -376.95 Q104.5 -377.65 103.25 -379.0 102.0 -380.35 101.4 -382.05 100.75 -384.0 101.1 -386.35 101.2 -388.65 102.2 -390.35 103.1 -392.05 104.8 -393.15 106.2 -394.2 108.0 -394.75 M36.15 -369.15 Q40.15 -369.15 43.65 -367.65 47.15 -366.1 49.9 -363.6 52.4 -361.1 54.0 -357.7 55.7 -354.3 55.7 -350.3 55.7 -346.25 53.85 -342.85 52.25 -339.45 49.65 -336.95 46.95 -334.45 43.4 -333.2 39.9 -331.75 35.95 -331.75 32.05 -331.75 28.55 -333.2 24.9 -334.7 22.3 -337.15 19.6 -339.65 18.0 -343.05 16.5 -346.45 16.5 -350.55 16.5 -354.5 18.1 -357.9 19.7 -361.3 22.55 -363.8 25.15 -366.3 28.8 -367.65 32.3 -369.15 36.15 -369.15 M79.75 -364.15 Q78.4 -364.95 76.7 -365.05 L73.5 -365.3 73.7 -354.3 75.45 -354.15 77.0 -354.15 79.4 -354.5 Q80.55 -354.75 81.2 -355.4 L82.6 -356.9 Q83.05 -357.8 82.9 -359.15 82.8 -361.1 81.9 -362.35 81.1 -363.6 79.75 -364.15 M34.55 -355.2 L32.75 -354.05 Q31.95 -353.4 31.5 -352.45 31.15 -351.45 31.15 -350.45 31.15 -349.3 31.5 -348.3 31.95 -347.35 32.75 -346.7 L34.55 -345.55 Q35.45 -345.1 36.6 -345.1 37.75 -345.1 38.75 -345.55 39.65 -346.0 40.45 -346.7 L41.7 -348.3 Q42.05 -349.3 42.05 -350.45 L41.7 -352.45 40.45 -354.05 Q39.65 -354.85 38.75 -355.2 L36.6 -355.65 34.55 -355.2 M-70.2 -360.4 L-69.5 -349.3 -67.8 -349.3 -66.2 -349.4 -63.85 -349.75 -62.0 -350.65 Q-61.25 -351.35 -60.9 -352.25 -60.45 -353.25 -60.55 -354.65 -60.75 -356.55 -61.55 -357.7 -62.5 -358.95 -63.95 -359.5 L-66.9 -360.3 -70.2 -360.4 M-100.95 -345.35 Q-100.95 -346.45 -101.4 -347.35 -101.85 -348.4 -102.65 -349.05 L-104.35 -350.1 -106.5 -350.55 -108.55 -350.1 -110.35 -349.05 Q-111.15 -348.4 -111.5 -347.35 -111.95 -346.45 -111.95 -345.35 -111.95 -344.2 -111.5 -343.2 -111.15 -342.25 -110.35 -341.6 -109.6 -340.9 -108.55 -340.45 L-106.5 -340.0 Q-105.4 -340.0 -104.35 -340.45 L-102.65 -341.6 Q-101.85 -342.25 -101.4 -343.2 -100.95 -344.2 -100.95 -345.35 M-93.35 -358.7 Q-90.65 -356.2 -89.05 -352.7 -87.45 -349.3 -87.45 -345.35 -87.45 -341.25 -89.05 -337.85 -90.65 -334.45 -93.35 -331.95 -96.05 -329.45 -99.6 -328.1 -103.1 -326.65 -106.95 -326.65 -110.95 -326.65 -114.45 -328.1 -118.1 -329.45 -120.7 -331.95 -123.45 -334.45 -125.0 -337.85 -126.6 -341.25 -126.6 -345.35 -126.6 -349.3 -125.0 -352.7 -123.45 -356.2 -120.7 -358.7 -118.1 -361.2 -114.45 -362.55 -110.95 -364.05 -106.95 -364.05 -103.1 -364.05 -99.6 -362.55 -96.05 -361.2 -93.35 -358.7" fill="#ffffff" fill-rule="evenodd" stroke="none"/>
    <path d="M193.95 -227.75 Q158.25 -212.55 111.95 -204.6 63.25 -196.25 4.45 -196.25 -46.35 -196.25 -97.15 -206.65 -142.85 -215.95 -191.6 -233.3 -197.85 -229.35 -204.55 -227.55 -211.3 -225.8 -235.0 -218.25 -258.75 -210.7 -306.2 -211.75 -353.65 -212.85 -373.85 -236.15 -394.1 -259.5 -393.1 -286.5 -392.15 -313.5 -388.75 -327.8 -385.35 -342.1 -384.95 -350.1 L-385.4 -351.15 Q-386.25 -353.9 -386.25 -357.0 -372.5 -353.95 -345.95 -349.9 L-185.75 -363.1 Q-184.6 -360.0 -186.95 -354.0 -189.35 -348.05 -207.5 -335.1 -96.25 -327.4 26.1 -330.15 191.4 -333.9 259.85 -345.85 281.25 -349.55 290.4 -353.65 294.95 -355.7 295.25 -357.0 295.25 -316.25 270.35 -283.5 244.35 -249.2 193.95 -227.75" fill="#000000" fill-opacity="0.12941177" fill-rule="evenodd" stroke="none"/>
    <path d="M212.55 -283.15 Q212.2 -284.65 212.2 -285.85 212.2 -290.6 215.6 -294.0 218.95 -297.35 223.7 -297.35 228.45 -297.35 231.85 -294.0 235.2 -290.6 235.2 -285.85 235.2 -281.1 231.85 -277.7 228.45 -274.35 223.7 -274.35 219.5 -274.35 216.2 -277.15 L208.1 -271.8 Q202.35 -268.05 197.95 -265.75 168.5 -250.4 150.7 -250.35 L149.15 -250.35 131.65 -208.6 122.95 -206.4 140.75 -250.7 Q131.1 -251.3 120.2 -253.2 L100.9 -256.9 Q96.3 -257.85 89.55 -259.8 L80.35 -262.4 Q79.25 -258.85 76.25 -256.65 73.7 -254.7 70.6 -254.4 L71.25 -254.25 64.0 -197.3 55.0 -197.05 62.0 -257.0 Q60.75 -258.1 59.8 -259.55 L51.75 -255.95 Q46.1 -253.4 42.15 -252.05 14.4 -242.6 -2.45 -241.5 L-2.95 -196.3 -10.2 -196.3 -10.45 -241.4 Q-21.05 -241.85 -33.3 -245.3 -40.3 -247.25 -54.95 -252.55 -58.7 -253.95 -64.15 -256.55 -70.55 -259.7 -71.9 -260.25 -73.45 -257.55 -76.05 -256.0 L-77.45 -255.25 -68.45 -200.8 -78.95 -203.3 -87.85 -255.95 -88.35 -256.3 Q-91.2 -258.25 -92.55 -261.4 -111.3 -257.0 -120.05 -255.3 -139.65 -251.55 -152.55 -251.35 L-139.55 -216.55 -148.75 -219.5 -161.25 -251.8 Q-171.65 -252.95 -183.85 -257.45 -189.85 -259.65 -205.5 -266.65 -210.1 -268.7 -216.45 -272.3 L-225.55 -277.4 Q-227.9 -276.35 -230.25 -276.35 -235.05 -276.35 -238.4 -279.7 -241.8 -283.1 -241.8 -287.85 -241.8 -292.6 -238.4 -296.0 -235.05 -299.35 -230.25 -299.35 -225.5 -299.35 -222.1 -296.0 -218.75 -292.6 -218.75 -287.85 -218.75 -285.05 -220.1 -282.45 L-212.0 -277.9 -202.65 -273.05 Q-188.6 -266.65 -176.75 -262.85 -162.45 -258.3 -153.95 -258.35 -141.45 -258.3 -121.2 -262.2 -112.05 -264.0 -93.15 -268.45 -92.25 -272.3 -89.15 -274.8 -86.0 -277.35 -81.95 -277.35 -77.55 -277.35 -74.3 -274.45 -71.05 -271.55 -70.55 -267.25 L-62.4 -263.4 Q-56.65 -260.65 -52.55 -259.15 -39.65 -254.45 -28.7 -251.7 -15.3 -248.3 -6.6 -248.35 6.2 -248.35 28.0 -254.85 35.2 -257.0 44.55 -260.8 L57.9 -266.35 Q58.1 -270.95 61.4 -274.15 64.75 -277.35 69.4 -277.35 73.1 -277.35 76.1 -275.15 79.05 -273.05 80.25 -269.65 L81.9 -269.25 91.05 -266.65 Q97.65 -264.75 102.3 -263.8 128.45 -258.5 144.45 -257.55 L144.45 -257.6 144.6 -257.55 150.7 -257.35 Q158.25 -257.3 169.15 -260.85 178.55 -263.9 189.3 -269.2 195.05 -272.05 202.3 -276.55 L212.55 -283.15" fill="#000000" fill-opacity="0.14901961" fill-rule="evenodd" stroke="none"/>
    <path d="M82.9 -274.15 L103.3 -269.7 Q135.05 -263.25 151.7 -263.25 165.9 -263.2 190.3 -275.1 204.7 -282.2 218.85 -291.4 L220.75 -292.65 224.7 -286.9 Q213.55 -279.25 198.95 -271.65 169.4 -256.35 151.7 -256.25 134.4 -256.25 101.9 -262.85 L81.35 -267.3 72.85 -269.4 74.6 -276.15 82.9 -274.15" fill="#c19733" fill-rule="evenodd" stroke="none"/>
    <path d="M82.9 -274.15 L103.3 -269.7 Q135.05 -263.25 151.7 -263.25 165.9 -263.2 190.3 -275.1 204.7 -282.2 218.85 -291.4 L220.75 -292.65 224.7 -286.9 Q213.55 -279.25 198.95 -271.65 169.4 -256.35 151.7 -256.25 134.4 -256.25 101.9 -262.85 L81.35 -267.3 72.85 -269.4 74.6 -276.15 82.9 -274.15 Z" fill="none" stroke="#73591e" stroke-linecap="round" stroke-linejoin="round" stroke-width="1.0"/>
    <path d="M226.15 -294.85 Q163.55 -237.25 70.1 -277.1" fill="none" stroke="#fec94e" stroke-linecap="round" stroke-linejoin="round" stroke-opacity="0.49803922" stroke-width="2.0"/>
    <path d="M68.0 -275.0 L70.8 -268.55 Q58.65 -263.25 43.15 -257.95 11.95 -247.3 -5.6 -247.25 -23.0 -247.3 -53.95 -258.5 -63.4 -261.95 -73.15 -266.1 L-81.1 -269.6 -78.1 -275.95 -70.45 -272.55 Q-62.05 -268.95 -51.55 -265.05 -38.65 -260.35 -27.7 -257.6 -14.3 -254.2 -5.6 -254.25 7.2 -254.25 29.0 -260.75 43.95 -265.2 60.15 -271.75 65.05 -273.7 68.0 -275.0" fill="#c19733" fill-rule="evenodd" stroke="none"/>
    <path d="M68.0 -275.0 L70.8 -268.55 Q58.65 -263.25 43.15 -257.95 11.95 -247.3 -5.6 -247.25 -23.0 -247.3 -53.95 -258.5 -63.4 -261.95 -73.15 -266.1 L-81.1 -269.6 -78.1 -275.95 -70.45 -272.55 Q-62.05 -268.95 -51.55 -265.05 -38.65 -260.35 -27.7 -257.6 -14.3 -254.2 -5.6 -254.25 7.2 -254.25 29.0 -260.75 43.95 -265.2 60.15 -271.75 65.05 -273.7 68.0 -275.0 Z" fill="none" stroke="#73591e" stroke-linecap="round" stroke-linejoin="round" stroke-width="1.0"/>
    <path d="M70.75 -276.25 Q1.15 -231.75 -69.8 -270.55" fill="none" stroke="#fec94e" stroke-linecap="round" stroke-linejoin="round" stroke-opacity="0.49803922" stroke-width="2.0"/>
    <path d="M-84.85 -275.15 L-83.05 -268.4 Q-93.65 -265.6 -107.65 -262.85 -135.6 -257.3 -152.95 -257.25 -170.75 -257.35 -204.5 -272.6 -215.05 -277.35 -225.8 -282.95 -234.3 -287.4 -234.65 -287.75 L-231.2 -293.8 -222.6 -289.2 Q-211.55 -283.4 -201.65 -278.95 -187.7 -272.6 -175.75 -268.8 -161.5 -264.2 -152.95 -264.25 -140.1 -264.25 -119.85 -267.7 -106.3 -270.0 -91.75 -273.45 L-84.85 -275.15" fill="#c19733" fill-rule="evenodd" stroke="none"/>
    <path d="M-84.85 -275.15 L-83.05 -268.4 Q-93.65 -265.6 -107.65 -262.85 -135.6 -257.3 -152.95 -257.25 -170.75 -257.35 -204.5 -272.6 -215.05 -277.35 -225.8 -282.95 -234.3 -287.4 -234.65 -287.75 L-231.2 -293.8 -222.6 -289.2 Q-211.55 -283.4 -201.65 -278.95 -187.7 -272.6 -175.75 -268.8 -161.5 -264.2 -152.95 -264.25 -140.1 -264.25 -119.85 -267.7 -106.3 -270.0 -91.75 -273.45 L-84.85 -275.15 Z" fill="none" stroke="#73591e" stroke-linecap="round" stroke-linejoin="round" stroke-width="1.0"/>
    <path d="M71.85 -275.65 Q70.4 -275.75 69.3 -274.9 68.15 -274.05 67.95 -272.55 L41.8 -47.55 Q41.65 -46.15 42.55 -45.1 43.5 -43.85 44.9 -43.7 L46.15 -43.85 Q47.25 -44.1 47.9 -44.85 48.7 -45.7 48.85 -46.8 L74.9 -271.75 Q75.1 -273.2 74.2 -274.35 73.25 -275.45 71.85 -275.65" fill="#c19733" fill-rule="evenodd" stroke="none"/>
    <path d="M71.85 -275.65 Q70.4 -275.75 69.3 -274.9 68.15 -274.05 67.95 -272.55 L41.8 -47.55 Q41.65 -46.15 42.55 -45.1 43.5 -43.85 44.9 -43.7 L46.15 -43.85 Q47.25 -44.1 47.9 -44.85 48.7 -45.7 48.85 -46.8 L74.9 -271.75 Q75.1 -273.2 74.2 -274.35 73.25 -275.45 71.85 -275.65 Z" fill="none" stroke="#73591e" stroke-linecap="round" stroke-linejoin="round" stroke-width="1.0"/>
    <path d="M46.3 -48.7 L70.2 -254.55" fill="none" stroke="#fec94e" stroke-linecap="round" stroke-linejoin="round" stroke-opacity="0.49803922" stroke-width="2.0"/>
    <path d="M62.6 -278.55 Q65.85 -281.8 70.4 -281.8 74.95 -281.8 78.15 -278.55 81.4 -275.35 81.4 -270.8 81.4 -266.25 78.15 -263.0 74.95 -259.8 70.4 -259.8 65.85 -259.8 62.6 -263.0 59.4 -266.2 59.4 -270.8 59.4 -275.35 62.6 -278.55" fill="#999999" fill-rule="evenodd" stroke="none"/>
    <path d="M62.6 -278.55 Q59.4 -275.35 59.4 -270.8 59.4 -266.2 62.6 -263.0 65.85 -259.8 70.4 -259.8 74.95 -259.8 78.15 -263.0 81.4 -266.25 81.4 -270.8 81.4 -275.35 78.15 -278.55 74.95 -281.8 70.4 -281.8 65.85 -281.8 62.6 -278.55 Z" fill="none" stroke="#4b4b4b" stroke-linecap="butt" stroke-linejoin="miter-clip" stroke-miterlimit="4.0" stroke-width="1.0"/>
    <path d="M235.75 -290.8 Q235.75 -286.25 232.5 -283.0 229.3 -279.8 224.75 -279.8 220.2 -279.8 216.95 -283.0 213.75 -286.2 213.75 -290.8 213.75 -295.35 216.95 -298.55 220.2 -301.8 224.75 -301.8 229.3 -301.8 232.5 -298.55 235.75 -295.35 235.75 -290.8" fill="#999999" fill-rule="evenodd" stroke="none"/>
    <path d="M235.75 -290.8 Q235.75 -295.35 232.5 -298.55 229.3 -301.8 224.75 -301.8 220.2 -301.8 216.95 -298.55 213.75 -295.35 213.75 -290.8 213.75 -286.2 216.95 -283.0 220.2 -279.8 224.75 -279.8 229.3 -279.8 232.5 -283.0 235.75 -286.25 235.75 -290.8 Z" fill="none" stroke="#4b4b4b" stroke-linecap="butt" stroke-linejoin="miter-clip" stroke-miterlimit="4.0" stroke-width="1.0"/>
    <path d="M-235.95 -295.35 Q-159.4 -240.85 -82.65 -276.1" fill="none" stroke="#fec94e" stroke-linecap="round" stroke-linejoin="round" stroke-opacity="0.49803922" stroke-width="2.0"/>
    <path d="M-237.05 -285.0 Q-240.25 -288.2 -240.25 -292.8 -240.25 -297.35 -237.05 -300.55 -233.8 -303.8 -229.25 -303.8 -224.7 -303.8 -221.5 -300.55 -218.25 -297.35 -218.25 -292.8 -218.25 -288.25 -221.5 -285.0 -224.7 -281.8 -229.25 -281.8 -233.8 -281.8 -237.05 -285.0" fill="#999999" fill-rule="evenodd" stroke="none"/>
    <path d="M-237.05 -285.0 Q-233.8 -281.8 -229.25 -281.8 -224.7 -281.8 -221.5 -285.0 -218.25 -288.25 -218.25 -292.8 -218.25 -297.35 -221.5 -300.55 -224.7 -303.8 -229.25 -303.8 -233.8 -303.8 -237.05 -300.55 -240.25 -297.35 -240.25 -292.8 -240.25 -288.2 -237.05 -285.0 Z" fill="none" stroke="#4b4b4b" stroke-linecap="butt" stroke-linejoin="miter-clip" stroke-miterlimit="4.0" stroke-width="1.0"/>
    <path d="M-81.7 -274.5 Q-80.25 -274.7 -79.1 -273.9 -77.9 -273.05 -77.65 -271.6 L-42.55 -47.8 Q-42.35 -46.4 -43.2 -45.3 -44.1 -44.05 -45.5 -43.8 L-46.75 -43.9 Q-47.85 -44.15 -48.55 -44.85 -49.35 -45.65 -49.55 -46.75 L-84.6 -270.5 Q-84.85 -271.95 -84.0 -273.15 -83.1 -274.25 -81.7 -274.5" fill="#c19733" fill-rule="evenodd" stroke="none"/>
    <path d="M-81.7 -274.5 Q-80.25 -274.7 -79.1 -273.9 -77.9 -273.05 -77.65 -271.6 L-42.55 -47.8 Q-42.35 -46.4 -43.2 -45.3 -44.1 -44.05 -45.5 -43.8 L-46.75 -43.9 Q-47.85 -44.15 -48.55 -44.85 -49.35 -45.65 -49.55 -46.75 L-84.6 -270.5 Q-84.85 -271.95 -84.0 -273.15 -83.1 -274.25 -81.7 -274.5 Z" fill="none" stroke="#73591e" stroke-linecap="round" stroke-linejoin="round" stroke-width="1.0"/>
    <path d="M-69.95 -270.8 Q-69.95 -266.2 -73.15 -263.0 -76.35 -259.8 -80.95 -259.8 -85.5 -259.8 -88.7 -263.0 -91.95 -266.25 -91.95 -270.8 -91.95 -275.35 -88.7 -278.55 -85.5 -281.8 -80.95 -281.8 -76.4 -281.8 -73.15 -278.55 -69.95 -275.35 -69.95 -270.8" fill="#999999" fill-rule="evenodd" stroke="none"/>
    <path d="M-69.95 -270.8 Q-69.95 -275.35 -73.15 -278.55 -76.4 -281.8 -80.95 -281.8 -85.5 -281.8 -88.7 -278.55 -91.95 -275.35 -91.95 -270.8 -91.95 -266.25 -88.7 -263.0 -85.5 -259.8 -80.95 -259.8 -76.35 -259.8 -73.15 -263.0 -69.95 -266.2 -69.95 -270.8 Z" fill="none" stroke="#4b4b4b" stroke-linecap="butt" stroke-linejoin="miter-clip" stroke-miterlimit="4.0" stroke-width="1.0"/>
    <path d="M3.25 -247.65 L3.25 -47.8 Q3.25 -46.35 2.2 -45.3 1.15 -44.3 -0.3 -44.3 -1.75 -44.3 -2.75 -45.3 -3.8 -46.35 -3.8 -47.8 L-3.8 -247.65 Q-3.8 -249.05 -2.75 -250.1 -1.7 -251.15 -0.3 -251.15 1.15 -251.15 2.2 -250.1 3.25 -249.1 3.25 -247.65 M156.0 -258.6 L73.0 -47.7 Q72.6 -46.65 71.65 -46.05 70.8 -45.5 69.7 -45.5 L68.45 -45.7 Q68.05 -45.85 67.75 -46.05 66.95 -46.65 66.5 -47.6 65.95 -48.9 66.45 -50.25 L149.45 -261.2 Q150.0 -262.55 151.35 -263.1 L154.0 -263.15 Q155.35 -262.6 155.95 -261.3 156.55 -259.95 156.0 -258.6 M-150.0 -261.2 L-67.0 -50.25 Q-66.5 -48.9 -67.05 -47.6 -67.65 -46.25 -69.0 -45.7 L-70.25 -45.5 Q-71.35 -45.5 -72.2 -46.05 -73.15 -46.65 -73.55 -47.7 L-156.55 -258.6 Q-157.05 -259.95 -156.5 -261.3 -155.9 -262.6 -154.55 -263.15 L-151.9 -263.1 Q-150.55 -262.55 -150.0 -261.2" fill="#c19733" fill-rule="evenodd" stroke="none"/>
    <path d="M3.25 -247.65 L3.25 -47.8 Q3.25 -46.35 2.2 -45.3 1.15 -44.3 -0.3 -44.3 -1.75 -44.3 -2.75 -45.3 -3.8 -46.35 -3.8 -47.8 L-3.8 -247.65 Q-3.8 -249.05 -2.75 -250.1 -1.7 -251.15 -0.3 -251.15 1.15 -251.15 2.2 -250.1 3.25 -249.1 3.25 -247.65 M156.0 -258.6 L73.0 -47.7 Q72.6 -46.65 71.65 -46.05 70.8 -45.5 69.7 -45.5 L68.45 -45.7 Q68.05 -45.85 67.75 -46.05 66.95 -46.65 66.5 -47.6 65.95 -48.9 66.45 -50.25 L149.45 -261.2 Q150.0 -262.55 151.35 -263.1 L154.0 -263.15 Q155.35 -262.6 155.95 -261.3 156.55 -259.95 156.0 -258.6 M-150.0 -261.2 L-67.0 -50.25 Q-66.5 -48.9 -67.05 -47.6 -67.65 -46.25 -69.0 -45.7 L-70.25 -45.5 Q-71.35 -45.5 -72.2 -46.05 -73.15 -46.65 -73.55 -47.7 L-156.55 -258.6 Q-157.05 -259.95 -156.5 -261.3 -155.9 -262.6 -154.55 -263.15 L-151.9 -263.1 Q-150.55 -262.55 -150.0 -261.2 Z" fill="none" stroke="#73591e" stroke-linecap="round" stroke-linejoin="round" stroke-width="1.0"/>
    <path d="M159.05 -259.9 Q159.05 -257.3 157.2 -255.4 155.35 -253.55 152.75 -253.55 150.15 -253.55 148.25 -255.4 146.4 -257.25 146.4 -259.9 146.4 -262.5 148.25 -264.4 150.15 -266.25 152.75 -266.25 155.35 -266.25 157.2 -264.4 159.05 -262.5 159.05 -259.9" fill="#c19733" fill-rule="evenodd" stroke="none"/>
    <path d="M159.05 -259.9 Q159.05 -262.5 157.2 -264.4 155.35 -266.25 152.75 -266.25 150.15 -266.25 148.25 -264.4 146.4 -262.5 146.4 -259.9 146.4 -257.25 148.25 -255.4 150.15 -253.55 152.75 -253.55 155.35 -253.55 157.2 -255.4 159.05 -257.3 159.05 -259.9 Z" fill="none" stroke="#856723" stroke-linecap="butt" stroke-linejoin="miter-clip" stroke-miterlimit="4.0" stroke-width="1.0"/>
    <path d="M5.75 -249.9 Q5.75 -247.25 3.9 -245.4 2.05 -243.55 -0.6 -243.55 -3.2 -243.55 -5.1 -245.4 -6.95 -247.25 -6.95 -249.9 -6.95 -252.5 -5.1 -254.4 -3.2 -256.25 -0.6 -256.25 2.05 -256.25 3.9 -254.4 5.75 -252.5 5.75 -249.9" fill="#c19733" fill-rule="evenodd" stroke="none"/>
    <path d="M5.75 -249.9 Q5.75 -252.5 3.9 -254.4 2.05 -256.25 -0.6 -256.25 -3.2 -256.25 -5.1 -254.4 -6.95 -252.5 -6.95 -249.9 -6.95 -247.25 -5.1 -245.4 -3.2 -243.55 -0.6 -243.55 2.05 -243.55 3.9 -245.4 5.75 -247.25 5.75 -249.9 Z" fill="none" stroke="#856723" stroke-linecap="butt" stroke-linejoin="miter-clip" stroke-miterlimit="4.0" stroke-width="1.0"/>
    <path d="M-147.6 -259.9 Q-147.6 -257.25 -149.45 -255.4 -151.3 -253.55 -153.95 -253.55 -156.55 -253.55 -158.4 -255.4 -160.25 -257.25 -160.25 -259.9 -160.25 -262.55 -158.4 -264.4 -156.55 -266.25 -153.95 -266.25 -151.3 -266.25 -149.45 -264.4 -147.6 -262.5 -147.6 -259.9" fill="#c19733" fill-rule="evenodd" stroke="none"/>
    <path d="M-147.6 -259.9 Q-147.6 -262.5 -149.45 -264.4 -151.3 -266.25 -153.95 -266.25 -156.55 -266.25 -158.4 -264.4 -160.25 -262.55 -160.25 -259.9 -160.25 -257.25 -158.4 -255.4 -156.55 -253.55 -153.95 -253.55 -151.3 -253.55 -149.45 -255.4 -147.6 -257.25 -147.6 -259.9 Z" fill="none" stroke="#856723" stroke-linecap="butt" stroke-linejoin="miter-clip" stroke-miterlimit="4.0" stroke-width="1.0"/>
    <path d="M233.2 -292.45 Q233.2 -290.05 231.5 -288.3 229.8 -286.6 227.35 -286.6 224.95 -286.6 223.25 -288.3 221.55 -290.0 221.55 -292.45 221.55 -294.85 223.25 -296.55 224.95 -298.3 227.35 -298.3 229.8 -298.3 231.5 -296.55 233.2 -294.85 233.2 -292.45" fill="#ffffff" fill-opacity="0.3019608" fill-rule="evenodd" stroke="none"/>
    <path d="M78.4 -272.45 Q78.4 -270.05 76.7 -268.3 75.0 -266.6 72.55 -266.6 70.15 -266.6 68.45 -268.3 66.75 -270.0 66.75 -272.45 66.75 -274.85 68.45 -276.55 70.15 -278.3 72.55 -278.3 75.0 -278.3 76.7 -276.55 78.4 -274.85 78.4 -272.45" fill="#ffffff" fill-opacity="0.3019608" fill-rule="evenodd" stroke="none"/>
    <path d="M-73.15 -271.95 Q-73.15 -269.55 -74.85 -267.8 -76.55 -266.1 -79.0 -266.1 -81.4 -266.1 -83.1 -267.8 -84.8 -269.5 -84.8 -271.95 -84.8 -274.35 -83.1 -276.05 -81.4 -277.8 -79.0 -277.8 -76.55 -277.8 -74.85 -276.05 -73.15 -274.35 -73.15 -271.95" fill="#ffffff" fill-opacity="0.3019608" fill-rule="evenodd" stroke="none"/>
    <path d="M-221.2 -294.2 Q-221.2 -291.8 -222.9 -290.05 -224.6 -288.35 -227.05 -288.35 -229.45 -288.35 -231.15 -290.05 -232.85 -291.75 -232.85 -294.2 -232.85 -296.6 -231.15 -298.3 -229.45 -300.05 -227.05 -300.05 -224.6 -300.05 -222.9 -298.3 -221.2 -296.6 -221.2 -294.2" fill="#ffffff" fill-opacity="0.3019608" fill-rule="evenodd" stroke="none"/>
    <path d="M-224.9 -344.85 Q-263.15 -338.1 -311.95 -338.1 -356.85 -338.1 -378.45 -344.85 -397.2 -350.7 -397.2 -361.1 -397.2 -371.5 -378.45 -377.35 -356.85 -384.1 -311.95 -384.1 -263.15 -384.1 -224.9 -377.35 -185.6 -370.45 -185.6 -361.1 -185.6 -351.75 -224.9 -344.85" fill="#ffea53" fill-rule="evenodd" stroke="none"/>
    <path d="M-224.9 -344.85 Q-263.15 -338.1 -311.95 -338.1 -356.85 -338.1 -378.45 -344.85 -397.2 -350.7 -397.2 -361.1 -397.2 -371.5 -378.45 -377.35 -356.85 -384.1 -311.95 -384.1 -263.15 -384.1 -224.9 -377.35 -185.6 -370.45 -185.6 -361.1 -185.6 -351.75 -224.9 -344.85 Z" fill="none" stroke="#666666" stroke-linecap="butt" stroke-linejoin="miter-clip" stroke-miterlimit="4.0" stroke-width="1.0"/>
    <path d="M-185.6 -361.1 Q-185.6 -351.75 -224.9 -344.85 -263.15 -338.1 -311.95 -338.1 -356.85 -338.1 -378.45 -344.85 -397.2 -350.7 -397.2 -361.1 -397.2 -367.55 -389.95 -372.25 -387.9 -363.55 -370.35 -358.4 -347.5 -351.65 -299.9 -351.65 -248.2 -351.65 -207.7 -358.4 -194.85 -360.55 -185.95 -362.85 -185.6 -362.0 -185.6 -361.1" fill="#000000" fill-opacity="0.101960786" fill-rule="evenodd" stroke="none"/>
    <path d="M-70.15 -50.55 L-149.2 -251.1" fill="none" stroke="#fec94e" stroke-linecap="round" stroke-linejoin="round" stroke-opacity="0.49803922" stroke-width="2.0"/>
    <path d="M0.4 -47.55 L-0.15 -239.6" fill="none" stroke="#fec94e" stroke-linecap="round" stroke-linejoin="round" stroke-opacity="0.49803922" stroke-width="2.0"/>
    <path d="M70.85 -49.05 L150.9 -252.1" fill="none" stroke="#fec94e" stroke-linecap="round" stroke-linejoin="round" stroke-opacity="0.49803922" stroke-width="2.0"/>
    <path d="M-154.2 -263.1 Q-151.15 -262.75 -150.7 -258.1" fill="none" stroke="#fec94e" stroke-linecap="round" stroke-linejoin="round" stroke-opacity="0.49803922" stroke-width="2.0"/>
    <path d="M-0.65 -253.35 Q2.4 -253.0 2.85 -248.35" fill="none" stroke="#fec94e" stroke-linecap="round" stroke-linejoin="round" stroke-opacity="0.49803922" stroke-width="2.0"/>
    <path d="M153.4 -263.35 Q156.45 -263.0 156.9 -258.35" fill="none" stroke="#fec94e" stroke-linecap="round" stroke-linejoin="round" stroke-opacity="0.49803922" stroke-width="2.0"/>
    <path d="M-45.6 -48.8 L-77.75 -253.6" fill="none" stroke="#fec94e" stroke-linecap="round" stroke-linejoin="round" stroke-opacity="0.49803922" stroke-width="2.0"/>
  </g>
</svg>
