<?xml version="1.0" encoding="UTF-8" standalone="no"?>
<svg xmlns:ffdec="https://www.free-decompiler.com/flash" xmlns:xlink="http://www.w3.org/1999/xlink" ffdec:objectType="shape" height="19.55px" width="117.75px" xmlns="http://www.w3.org/2000/svg">
  <g transform="matrix(1.0, 0.0, 0.0, 1.0, 58.85, 9.75)">
    <path d="M51.8 -8.75 Q54.3 -8.75 56.1 -7.0 57.9 -5.2 57.9 -2.65 L57.9 2.7 Q57.9 5.2 56.1 7.0 54.3 8.8 51.8 8.8 L-51.75 8.8 Q-54.3 8.8 -56.1 7.0 -57.85 5.2 -57.85 2.7 L-57.85 -2.65 Q-57.85 -5.2 -56.1 -7.0 -54.3 -8.75 -51.75 -8.75 L51.8 -8.75" fill="#b7e0fb" fill-opacity="0.2" fill-rule="evenodd" stroke="none"/>
    <path d="M51.8 -8.75 L-51.75 -8.75 Q-54.3 -8.75 -56.1 -7.0 -57.85 -5.2 -57.85 -2.65 L-57.85 2.7 Q-57.85 5.2 -56.1 7.0 -54.3 8.8 -51.75 8.8 L51.8 8.8 Q54.3 8.8 56.1 7.0 57.9 5.2 57.9 2.7 L57.9 -2.65 Q57.9 -5.2 56.1 -7.0 54.3 -8.75 51.8 -8.75 Z" fill="none" stroke="#006bc6" stroke-linecap="round" stroke-linejoin="round" stroke-opacity="0.2509804" stroke-width="2.0"/>
    <path d="M45.85 5.45 L45.85 -5.7 55.55 -0.1 45.85 5.45" fill="#006bc6" fill-opacity="0.7490196" fill-rule="evenodd" stroke="none"/>
    <path d="M51.8 -8.75 Q54.3 -8.75 56.1 -7.0 57.3 -5.75 57.75 -4.25 L50.9 -3.25 Q28.45 -0.45 -3.2 -0.45 -34.9 -0.45 -57.35 -3.25 L-57.8 -3.3 Q-57.6 -5.45 -56.1 -7.0 -54.3 -8.75 -51.75 -8.75 L51.8 -8.75" fill="#ffffff" fill-opacity="0.14901961" fill-rule="evenodd" stroke="none"/>
  </g>
</svg>
