<?xml version="1.0" encoding="UTF-8" standalone="no"?>
<svg xmlns:ffdec="https://www.free-decompiler.com/flash" xmlns:xlink="http://www.w3.org/1999/xlink" ffdec:objectType="shape" height="32.35px" width="26.9px" xmlns="http://www.w3.org/2000/svg">
  <g transform="matrix(1.0, 0.0, 0.0, 1.0, 125.85, -26.8)">
    <path d="M-102.65 31.65 Q-104.1 29.25 -106.0 27.6 L-106.7 28.8 Q-108.25 30.65 -110.5 31.0 -112.7 31.45 -114.7 30.15 -116.7 28.95 -117.05 26.8 L-119.25 28.55 Q-118.6 29.65 -118.3 31.15 -117.85 33.65 -119.1 35.85 -120.25 37.9 -122.55 38.35 L-124.6 38.25 -125.35 43.5 -125.3 43.55 -125.25 47.25 Q-111.3 53.9 -99.55 46.15 L-99.55 45.45 -99.5 45.35 -99.4 43.35 Q-99.55 40.0 -100.25 37.3 -101.15 34.0 -102.65 31.65" fill="#ffffff" fill-rule="evenodd" stroke="none"/>
    <path d="M-117.2 35.5 Q-118.85 43.75 -121.75 45.3 -124.5 46.85 -125.85 46.45 L-125.55 49.05 -124.2 53.3 Q-123.4 55.05 -122.2 56.1 -120.85 57.15 -119.1 57.9 -117.2 58.75 -116.0 59.0 L-113.7 59.15 -112.35 59.15 -107.8 58.4 Q-105.55 57.7 -103.6 56.4 -101.55 55.1 -100.25 51.75 -98.95 48.5 -98.95 46.15 -102.85 41.65 -103.15 33.9 -109.8 38.25 -117.2 35.5" fill="#156bbf" fill-rule="evenodd" stroke="none"/>
  </g>
</svg>
