<?xml version="1.0" encoding="UTF-8" standalone="no"?>
<svg xmlns:ffdec="https://www.free-decompiler.com/flash" xmlns:xlink="http://www.w3.org/1999/xlink" ffdec:objectType="shape" height="93.45px" width="163.2px" xmlns="http://www.w3.org/2000/svg">
  <g transform="matrix(1.0, 0.0, 0.0, 1.0, 90.3, 85.45)">
    <path d="M-38.0 -65.9 Q-36.2 -60.35 -30.5 -57.8 -24.8 -55.2 -18.4 -57.3 -12.15 -59.3 -8.85 -64.7 -5.7 -70.15 -7.5 -75.65 -9.15 -81.2 -14.9 -83.6 -20.7 -86.05 -27.0 -84.1 -33.25 -82.15 -36.55 -76.7 -39.65 -71.4 -38.0 -65.9" fill="#6c0900" fill-rule="evenodd" stroke="none"/>
    <path d="M-74.3 -1.35 Q-72.55 -1.85 -62.8 -15.35 -47.9 -30.35 -20.55 -39.1 -13.15 -41.45 16.85 -34.2 L49.25 -26.45 58.45 -27.15 Q64.0 -28.5 68.05 -34.1 74.2 -42.75 71.6 -51.95 68.3 -64.0 49.3 -69.05 10.25 -79.65 -28.0 -67.85 -45.45 -62.6 -61.55 -51.2 -79.6 -38.5 -86.75 -24.3 -93.35 -11.4 -85.6 -4.9 -79.55 0.3 -74.3 -1.35" fill="#b30e00" fill-rule="evenodd" stroke="none"/>
    <path d="M-73.45 -41.5 L-65.9 -48.1 -68.95 -1.45 -75.9 0.8 -73.45 -41.5" fill="#ffffff" fill-opacity="0.34509805" fill-rule="evenodd" stroke="none"/>
    <path d="M-25.7 -68.6 L-28.85 -26.1 -35.85 -23.85 -33.3 -66.15 -25.7 -68.6" fill="#ffffff" fill-opacity="0.34509805" fill-rule="evenodd" stroke="none"/>
    <path d="M12.05 -73.3 L8.85 -29.55 1.85 -27.3 4.25 -72.85 Q8.4 -74.35 12.05 -73.3" fill="#ffffff" fill-opacity="0.34509805" fill-rule="evenodd" stroke="none"/>
    <path d="M48.2 -68.7 L45.0 -25.95 38.0 -23.7 40.3 -70.4 Q44.55 -70.75 48.2 -68.7" fill="#ffffff" fill-opacity="0.34509805" fill-rule="evenodd" stroke="none"/>
    <path d="M69.1 -56.5 Q71.75 -52.35 71.9 -48.4 L-55.3 -55.5 -44.4 -61.5 69.1 -56.5" fill="#ffffff" fill-opacity="0.34509805" fill-rule="evenodd" stroke="none"/>
    <path d="M-31.25 -33.4 L-30.85 -26.1 -83.75 -28.55 -79.35 -35.5 -31.25 -33.4" fill="#ffffff" fill-opacity="0.34509805" fill-rule="evenodd" stroke="none"/>
    <path d="M69.35 -56.95 L70.85 -54.2 49.3 -55.45 49.0 -50.45 72.25 -49.15 72.4 -46.45 48.85 -47.8 47.8 -29.35 62.0 -28.55 Q60.3 -27.6 58.45 -27.15 L51.05 -26.45 48.55 -26.65 33.7 -30.15 37.45 -29.95 38.45 -48.4 11.55 -49.9 10.75 -35.65 8.15 -36.2 8.9 -50.05 3.85 -50.35 3.1 -37.25 0.5 -37.75 1.2 -50.5 -25.8 -52.05 -26.65 -37.0 -29.4 -36.0 -28.45 -52.25 -33.55 -52.5 -34.55 -34.1 -34.05 -34.1 -39.2 -31.7 -65.0 -33.2 -65.3 -28.15 -47.55 -27.15 -51.35 -24.7 -65.45 -25.5 -66.3 -10.5 -69.2 -6.75 -68.1 -25.65 -73.15 -25.95 -74.55 -1.25 -77.2 -0.95 -75.8 -26.1 -84.0 -26.55 -83.85 -29.25 -75.65 -28.75 -75.35 -33.8 -81.2 -34.15 -80.35 -34.1 -78.25 -36.65 -75.2 -36.45 -75.0 -40.1 -72.2 -42.8 -72.55 -36.3 -67.5 -36.0 -66.85 -47.2 -64.05 -49.35 -64.85 -35.85 -37.25 -34.25 -36.2 -52.65 -57.5 -53.9 -53.6 -56.35 -36.05 -55.35 -35.75 -60.35 -45.35 -60.9 -40.4 -63.3 -35.6 -63.05 -35.5 -65.35 -32.7 -66.35 -32.95 -62.85 -27.85 -62.6 -27.55 -68.0 -24.85 -68.8 -25.2 -62.45 1.8 -60.9 2.55 -73.75 5.25 -73.85 4.5 -60.75 9.5 -60.45 10.3 -74.05 13.0 -74.1 12.15 -60.3 39.1 -58.7 39.8 -71.3 42.45 -70.75 41.75 -58.55 46.8 -58.3 47.45 -69.5 49.25 -69.05 50.1 -68.85 49.45 -58.1 69.35 -56.95 M41.6 -55.9 L41.3 -50.9 46.4 -50.65 46.65 -55.6 41.6 -55.9 M9.35 -57.8 L4.3 -58.1 4.05 -53.0 9.05 -52.7 9.35 -57.8 M1.65 -58.25 L-25.35 -59.75 -25.65 -54.75 1.35 -53.15 1.65 -58.25 M11.75 -52.55 L38.65 -51.0 38.9 -56.05 12.0 -57.65 11.75 -52.55 M41.15 -48.25 L40.1 -29.8 45.15 -29.5 46.2 -47.95 41.15 -48.25 M-33.4 -55.2 L-28.3 -54.9 -28.0 -59.9 -33.1 -60.2 -33.4 -55.2 M-73.0 -28.6 L-67.95 -28.3 -67.7 -33.35 -72.7 -33.65 -73.0 -28.6" fill="#6c0900" fill-rule="evenodd" stroke="none"/>
    <path d="M-71.15 7.5 L-26.2 -0.1 Q23.5 -5.35 46.25 5.65 59.35 -29.9 57.55 -35.3 55.6 -41.0 24.05 -44.8 -10.6 -48.95 -30.75 -40.3 -51.55 -31.5 -65.25 -17.65 L-74.95 -5.55 -71.15 7.5" fill="#6c0900" fill-rule="evenodd" stroke="none"/>
    <path d="M50.1 -68.85 Q64.2 -64.9 69.35 -56.95 L69.6 -56.6 70.85 -54.2 71.6 -51.95 72.2 -49.15 72.25 -49.15 72.4 -46.45 Q72.35 -40.15 68.05 -34.1 64.8 -29.6 60.55 -27.8 L59.05 -27.3 58.95 -27.25 58.45 -27.15 56.8 -26.95 Q54.4 -16.5 46.25 5.65 23.5 -5.35 -26.2 -0.1 L-71.15 7.5 -73.3 0.0 -75.9 0.8 -75.8 -1.0 -76.85 -0.95 -77.2 -0.95 Q-81.2 -1.1 -85.6 -4.9 -93.35 -11.4 -86.75 -24.3 -84.05 -29.7 -79.7 -34.9 L-79.35 -35.5 -79.2 -35.5 -78.25 -36.65 -78.2 -36.65 -75.0 -40.05 -75.0 -40.1 -72.2 -42.8 -72.2 -42.7 -66.95 -47.15 -65.9 -48.1 -65.9 -48.0 -61.55 -51.2 -55.1 -55.5 -55.3 -55.5 -52.95 -56.8 -46.1 -60.55 -44.4 -61.5 -44.25 -61.5 -43.95 -61.65 -43.65 -61.8 -40.4 -63.3 -40.3 -63.3 -37.45 -64.5 -38.0 -65.9 Q-39.65 -71.4 -36.55 -76.7 -33.25 -82.15 -27.0 -84.1 -20.7 -86.05 -14.85 -83.6 -9.15 -81.2 -7.5 -75.65 -7.0 -74.15 -6.85 -72.65 L2.55 -73.7 2.55 -73.75 4.1 -73.8 4.35 -73.8 10.3 -74.05 13.0 -74.1 13.0 -74.05 Q27.65 -74.0 42.45 -70.75 L49.3 -69.05 50.0 -68.85 50.1 -68.85 Z" fill="none" stroke="#000000" stroke-linecap="round" stroke-linejoin="round" stroke-opacity="0.2509804" stroke-width="1.0"/>
  </g>
</svg>
