<?xml version="1.0" encoding="UTF-8" standalone="no"?>
<svg xmlns:ffdec="https://www.free-decompiler.com/flash" xmlns:xlink="http://www.w3.org/1999/xlink" ffdec:objectType="shape" height="78.7px" width="176.65px" xmlns="http://www.w3.org/2000/svg">
  <g transform="matrix(1.0, 0.0, 0.0, 1.0, 3.4, 0.0)">
    <path d="M138.2 42.25 L146.3 42.1 Q154.95 41.55 158.15 40.05 163.2 37.4 168.7 30.7 170.1 36.05 169.25 42.25 167.9 54.2 158.25 58.85 L159.35 59.4 Q164.45 61.9 173.25 61.9 169.95 66.25 164.6 69.55 154.0 76.15 144.0 70.8 133.95 65.45 134.25 59.95 134.35 57.2 136.55 55.55 L140.0 51.55 138.2 42.25" fill="#ff7c00" fill-rule="evenodd" stroke="none"/>
    <path d="M-1.85 43.35 Q4.35 48.7 9.55 50.25 12.7 51.1 20.9 50.15 L28.4 48.9 28.25 61.55 Q28.7 64.1 27.15 66.25 23.9 70.3 13.5 67.85 3.05 65.45 -0.5 54.1 -2.2 48.5 -1.85 43.35" fill="#ff7c00" fill-rule="evenodd" stroke="none"/>
    <path d="M54.05 35.4 Q46.15 28.15 48.55 16.55 49.85 10.75 52.7 6.4 55.45 14.3 59.25 18.0 L61.35 19.7 Q61.95 13.3 66.95 7.35 71.05 2.65 75.85 0.0 74.55 8.75 76.25 14.15 77.15 17.65 89.2 32.7 L101.0 46.95 74.35 48.8 70.6 44.6 67.75 40.05 66.9 40.5 Q61.95 42.6 54.05 35.4" fill="#ff7c00" fill-rule="evenodd" stroke="none"/>
    <path d="M-3.4 69.35 Q4.8 68.75 9.55 66.2 12.4 64.55 17.55 58.05 L21.9 51.85 30.8 60.9 Q32.9 62.4 33.3 64.95 33.95 70.2 24.8 75.8 15.7 81.5 5.15 76.0 0.0 73.25 -3.4 69.35" fill="#ff7c00" fill-rule="evenodd" stroke="none"/>
  </g>
</svg>
