<?xml version="1.0" encoding="UTF-8" standalone="no"?>
<svg xmlns:ffdec="https://www.free-decompiler.com/flash" xmlns:xlink="http://www.w3.org/1999/xlink" ffdec:objectType="shape" height="137.4px" width="170.3px" xmlns="http://www.w3.org/2000/svg">
  <g transform="matrix(1.0, 0.0, 0.0, 1.0, 0.0, 0.0)">
    <path d="M162.05 98.9 Q163.65 99.75 165.05 101.05 169.45 105.0 169.45 110.6 169.45 115.0 166.75 118.35 170.3 121.6 170.3 126.15 170.3 130.8 166.6 134.1 162.9 137.4 157.7 137.4 152.5 137.4 148.8 134.1 146.35 131.9 145.55 129.1 L144.9 129.75 Q141.4 133.25 136.45 133.25 131.5 133.25 128.0 129.75 125.9 127.7 125.05 125.1 L122.25 125.5 Q118.65 125.5 116.1 123.05 113.65 120.75 113.55 117.5 101.75 119.55 87.9 118.45 L80.2 117.6 Q71.85 121.15 61.25 121.15 54.15 121.15 48.05 119.55 L48.05 119.95 Q48.05 125.25 43.9 129.0 39.75 132.8 33.85 132.8 28.15 132.8 24.1 129.25 L21.9 131.9 Q18.15 135.55 12.85 135.55 7.55 135.55 3.75 131.9 0.0 128.3 0.0 123.2 0.0 118.1 3.75 114.45 6.0 112.3 8.8 111.45 8.25 109.75 8.25 107.85 8.25 102.95 11.7 99.3 13.2 94.9 16.95 91.4 20.7 87.95 25.4 86.55 22.05 80.3 22.05 73.5 L22.1 71.8 20.35 71.9 Q14.35 71.9 10.1 67.85 5.9 63.85 5.9 58.15 5.9 52.45 10.1 48.4 12.05 46.6 14.35 45.6 12.35 42.75 12.35 39.15 12.35 33.95 16.5 30.25 19.7 27.4 23.9 26.75 L23.75 24.5 Q23.75 18.5 28.05 14.25 32.35 10.05 38.4 10.05 42.8 10.05 46.3 12.3 47.35 9.6 49.6 7.4 53.9 3.2 59.95 3.2 66.0 3.2 70.3 7.4 L70.95 8.05 Q71.95 5.95 73.75 4.15 78.0 0.0 84.0 0.0 90.0 0.0 94.2 4.15 L96.55 7.05 Q97.35 5.75 98.5 4.6 102.3 0.9 107.6 0.9 112.9 0.9 116.65 4.6 119.1 7.0 120.0 10.0 L123.15 9.65 Q129.05 9.65 133.2 13.8 135.75 16.35 136.75 19.6 L139.25 19.4 Q145.05 19.4 149.15 23.4 153.25 27.45 153.25 33.15 153.25 38.05 150.2 41.75 151.65 42.55 152.9 43.8 157.0 47.75 157.0 53.35 157.0 57.95 154.25 61.45 159.05 61.65 162.5 65.0 166.2 68.65 166.2 73.75 166.2 78.85 162.5 82.45 L161.35 83.45 Q164.35 86.95 164.35 91.6 164.35 95.7 162.05 98.9" fill="#000000" fill-rule="evenodd" stroke="none"/>
  </g>
</svg>
