<?xml version="1.0" encoding="UTF-8" standalone="no"?>
<svg xmlns:ffdec="https://www.free-decompiler.com/flash" xmlns:xlink="http://www.w3.org/1999/xlink" ffdec:objectType="shape" height="89.65px" width="165.95px" xmlns="http://www.w3.org/2000/svg">
  <g transform="matrix(1.0, 0.0, 0.0, 1.0, 0.0, 0.0)">
    <path d="M80.0 2.85 L81.1 1.45 Q82.8 0.0 85.2 0.0 87.6 0.0 89.25 1.45 90.95 2.9 90.95 4.95 L90.95 5.55 Q85.65 3.8 80.0 2.85" fill="#710000" fill-rule="evenodd" stroke="none"/>
    <path d="M80.0 2.85 Q85.65 3.8 90.95 5.55 100.7 8.7 109.0 14.4 127.7 27.35 127.7 45.6 L127.65 47.45 Q142.05 54.7 152.45 62.2 167.9 73.3 165.7 78.4 163.45 83.45 144.85 79.6 131.85 76.9 116.2 70.9 113.05 73.95 109.0 76.7 90.3 89.65 63.85 89.65 37.4 89.65 18.7 76.7 0.0 63.8 0.0 45.6 0.0 27.35 18.7 14.4 37.4 1.5 63.85 1.55 72.3 1.5 80.0 2.85" fill="#ae0000" fill-rule="evenodd" stroke="none"/>
  </g>
</svg>
