<?xml version="1.0" encoding="UTF-8" standalone="no"?>
<svg xmlns:ffdec="https://www.free-decompiler.com/flash" xmlns:xlink="http://www.w3.org/1999/xlink" ffdec:objectType="shape" height="90.8px" width="162.9px" xmlns="http://www.w3.org/2000/svg">
  <g transform="matrix(1.0, 0.0, 0.0, 1.0, 72.5, 47.35)">
    <path d="M39.8 -28.75 Q57.05 -13.95 55.15 4.2 L54.9 6.05 Q68.45 14.75 78.0 23.3 92.2 36.0 89.45 40.8 86.65 45.6 68.6 39.8 55.95 35.8 41.05 28.15 37.55 30.9 33.25 33.2 13.3 44.1 -13.0 41.35 -39.3 38.55 -56.55 23.75 -73.7 8.95 -71.8 -9.15 -69.9 -27.3 -50.0 -38.2 -30.05 -49.1 -3.75 -46.25 4.65 -45.45 12.15 -43.3 L13.4 -44.55 Q15.25 -45.8 17.65 -45.55 20.0 -45.3 21.5 -43.7 23.05 -42.1 22.85 -40.05 L22.8 -39.45 Q32.15 -35.25 39.8 -28.75 Z" fill="none" stroke="#000000" stroke-linecap="round" stroke-linejoin="round" stroke-opacity="0.29803923" stroke-width="1.0"/>
  </g>
</svg>
