<?xml version="1.0" encoding="UTF-8" standalone="no"?>
<svg xmlns:ffdec="https://www.free-decompiler.com/flash" xmlns:xlink="http://www.w3.org/1999/xlink" ffdec:objectType="shape" height="111.45px" width="173.6px" xmlns="http://www.w3.org/2000/svg">
  <g transform="matrix(1.0, 0.0, 0.0, 1.0, 86.8, 55.7)">
    <path d="M28.2 -50.2 L36.75 -45.15 Q41.8 -41.65 45.85 -37.2 54.3 -41.2 64.15 -38.4 75.4 -35.15 81.95 -24.6 88.5 -14.05 86.2 -2.45 84.2 9.1 74.7 14.85 69.1 18.3 62.8 18.5 61.85 39.25 47.3 47.8 31.7 56.85 -1.55 55.6 -34.8 54.35 -49.25 46.55 -62.8 39.2 -63.65 18.45 -69.45 18.05 -74.75 14.85 -84.05 9.1 -86.3 -2.45 -88.3 -14.05 -82.0 -24.6 -75.5 -35.15 -64.2 -38.4 -54.55 -41.1 -46.55 -37.5 -30.3 -55.7 -0.4 -55.7 15.65 -55.75 28.2 -50.2" fill="#000000" fill-rule="evenodd" stroke="none"/>
  </g>
</svg>
