<svg xmlns="http://www.w3.org/2000/svg" xmlns:ffdec="https://www.free-decompiler.com/flash" ffdec:objectType="shape" viewBox="0 0 114.55 53.2">
  <defs>
    <clipPath id="a" clipPathUnits="userSpaceOnUse">
      <path fill="red" d="M-19.075-26.6c1.513 10.926 2.694 21.894 3.863 32.861.606 5.647 1.314 11.285 1.869 16.938.133 1.356.217 2.353.307 3.4H57.25V-26.6Z"/>
    </clipPath>
  </defs>
  <path fill="#fc6" fill-rule="evenodd" d="M26.55-26.6q12.7 0 21.7 7.8t9 18.8q0 11-9 18.8-9 7.8-21.7 7.8t-21.7-7.8q-9-7.8-9-18.8t9-18.8q9-7.8 21.7-7.8M-24.7-12.75q5.6 6.4 5.6 15.45 0 9.05-5.6 15.45-5.6 6.4-13.5 6.4t-13.5-6.4q-5.6-6.4-5.6-15.45 0-9.05 5.6-15.45 5.6-6.4 13.5-6.4t13.5 6.4" clip-path="url(#a)" transform="translate(4.325 26.6)"/>
</svg>