<svg ffdec:objectType="shape" height="53.2" width="114.55" xmlns="http://www.w3.org/2000/svg" xmlns:ffdec="https://www.free-decompiler.com/flash"><defs><clipPath clipPathUnits="userSpaceOnUse" id="a"><path style="fill:red;fill-opacity:1;fill-rule:nonzero;stroke:none" d="M-57.3-26.6v53.2H3.839c-.02-.301-.042-.6-.06-.901-2.963-.245-5.933-.587-8.878-.643-.655-1.858-1.444-3.675-1.967-5.574-.263-.958-.582-3.19-.855-5.266-6.813-.163-3.393-1.313-.123-.97-.095-.755-.228-1.738-.274-2.133-.457-3.96-.765-7.936-1.072-11.91-.203-2.596-.417-5.192-.633-7.787-.846-10.18 3.516-15.993 8.582-17.073.037-.314.08-.628.118-.943zm52.1 40.836-.01.002.01.008v-.01z"/></clipPath></defs><path d="M26.55-26.6q12.7 0 21.7 7.8t9 18.8q0 11-9 18.8-9 7.8-21.7 7.8t-21.7-7.8q-9-7.8-9-18.8t9-18.8q9-7.8 21.7-7.8M-24.7-12.75q5.6 6.4 5.6 15.45 0 9.05-5.6 15.45-5.6 6.4-13.5 6.4t-13.5-6.4q-5.6-6.4-5.6-15.45 0-9.05 5.6-15.45 5.6-6.4 13.5-6.4t13.5 6.4" fill="#fff" fill-rule="evenodd" style="fill:red" clip-path="url(#a)" transform="translate(57.3 26.6)"/></svg>