<?xml version="1.0" encoding="UTF-8" standalone="no"?>
<svg
   ffdec:objectType="shape"
   height="53.2px"
   width="114.55px"
   version="1.1"
   id="svg670"
   sodipodi:docname="443.svg"
   inkscape:version="1.2.2 (b0a8486, 2022-12-01)"
   xmlns:inkscape="http://www.inkscape.org/namespaces/inkscape"
   xmlns:sodipodi="http://sodipodi.sourceforge.net/DTD/sodipodi-0.dtd"
   xmlns="http://www.w3.org/2000/svg"
   xmlns:svg="http://www.w3.org/2000/svg"
   xmlns:ffdec="https://www.free-decompiler.com/flash">
  <defs
     id="defs674">
    <clipPath
       clipPathUnits="userSpaceOnUse"
       id="clipPath801">
      <path
         id="path803"
         style="fill:#ff0000;fill-opacity:1;fill-rule:nonzero;stroke:none"
         d="m -44.159375,-26.6 c 0.307173,0.827768 0.626081,1.651743 0.853516,2.503906 0.138689,0.519652 0.252442,1.050931 0.351562,1.589844 1.60972,-0.358824 3.039944,-0.721041 4.242188,-1.068359 -0.133365,-0.62082 -0.267408,-1.240838 -0.396485,-1.863282 -0.0498,-0.240163 -0.09005,-0.481495 -0.134765,-0.722656 -0.02795,-0.150704 -0.04163,-0.291084 -0.06641,-0.439453 z m 22.025391,0 c 0.89657,4.217715 1.581058,8.476014 2.208984,12.742188 0.880113,6.510099 1.616462,13.040098 2.171875,19.585937 0.319034,3.779214 0.434007,7.571181 0.527344,11.361328 0.02208,1.72491 0.476199,7.820333 -1.400391,7.978516 -2.483599,0.209349 -4.411057,0.357573 -6.11914,0.466797 -0.149155,0.332878 -0.295395,0.701061 -0.44336,1.064453 H 57.25078 V -26.6 Z m -26.908203,1.226562 c -0.0352,0.0096 -0.07023,0.03203 -0.06836,0.05664 0.02335,0.306946 0.103491,0.652993 0.203125,1.007813 -0.0068,-0.350082 -0.0014,-0.702229 -0.05859,-1.046875 -0.004,-0.02435 -0.04098,-0.02719 -0.07617,-0.01758 z" />
    </clipPath>
  </defs>
  <sodipodi:namedview
     id="namedview672"
     pagecolor="#ffffff"
     bordercolor="#000000"
     borderopacity="0.25"
     inkscape:showpageshadow="2"
     inkscape:pageopacity="0.0"
     inkscape:pagecheckerboard="0"
     inkscape:deskcolor="#d1d1d1"
     showgrid="false"
     inkscape:zoom="3.6833108"
     inkscape:cx="45.882634"
     inkscape:cy="26.606498"
     inkscape:window-width="1309"
     inkscape:window-height="456"
     inkscape:window-x="0"
     inkscape:window-y="25"
     inkscape:window-maximized="0"
     inkscape:current-layer="svg670" />
  <g
     transform="matrix(1.0, 0.0, 0.0, 1.0, 57.3, 26.6)"
     id="g668">
    <path
       d="M26.55 -26.6 Q39.25 -26.6 48.25 -18.8 57.25 -11.0 57.25 0.0 57.25 11.0 48.25 18.8 39.25 26.6 26.55 26.6 13.85 26.6 4.85 18.8 -4.15 11.0 -4.15 0.0 -4.15 -11.0 4.85 -18.8 13.85 -26.6 26.55 -26.6 M-24.7 -12.75 Q-19.1 -6.35 -19.1 2.7 -19.1 11.75 -24.7 18.15 -30.3 24.55 -38.2 24.55 -46.1 24.55 -51.7 18.15 -57.3 11.75 -57.3 2.7 -57.3 -6.35 -51.7 -12.75 -46.1 -19.15 -38.2 -19.15 -30.3 -19.15 -24.7 -12.75"
       fill="#ffcc66"
       fill-rule="evenodd"
       stroke="none"
       id="path666"
       clip-path="url(#clipPath801)" />
  </g>
</svg>
