<?xml version="1.0" encoding="UTF-8" standalone="no"?>
<svg xmlns:ffdec="https://www.free-decompiler.com/flash" xmlns:xlink="http://www.w3.org/1999/xlink" ffdec:objectType="shape" height="53.2px" width="114.55px" xmlns="http://www.w3.org/2000/svg">
  <g transform="matrix(1.0, 0.0, 0.0, 1.0, 57.3, 26.6)">
    <path d="M26.55 -26.6 Q39.25 -26.6 48.25 -18.8 57.25 -11.0 57.25 0.0 57.25 11.0 48.25 18.8 39.25 26.6 26.55 26.6 13.85 26.6 4.85 18.8 -4.15 11.0 -4.15 0.0 -4.15 -11.0 4.85 -18.8 13.85 -26.6 26.55 -26.6 M-24.7 -12.75 Q-19.1 -6.35 -19.1 2.7 -19.1 11.75 -24.7 18.15 -30.3 24.55 -38.2 24.55 -46.1 24.55 -51.7 18.15 -57.3 11.75 -57.3 2.7 -57.3 -6.35 -51.7 -12.75 -46.1 -19.15 -38.2 -19.15 -30.3 -19.15 -24.7 -12.75" fill="#ffcc66" fill-rule="evenodd" stroke="none"/>
  </g>
</svg>
