<?xml version="1.0" encoding="UTF-8" standalone="no"?>
<svg xmlns:ffdec="https://www.free-decompiler.com/flash" xmlns:xlink="http://www.w3.org/1999/xlink" ffdec:objectType="shape" height="53.2px" width="114.55px" xmlns="http://www.w3.org/2000/svg">
  <g transform="matrix(1.0, 0.0, 0.0, 1.0, 57.3, 26.6)">
    <path d="M-50.2 -11.05 Q-55.2 -5.35 -55.2 2.7 -55.2 10.8 -50.2 16.5 -45.25 22.2 -38.15 22.2 -31.1 22.2 -26.1 16.5 -21.15 10.8 -21.1 2.7 -21.15 -5.35 -26.1 -11.05 -31.1 -16.8 -38.15 -16.8 -45.25 -16.8 -50.2 -11.05 M-57.3 2.7 Q-57.3 -6.35 -51.7 -12.75 -46.1 -19.15 -38.2 -19.15 -30.3 -19.15 -24.7 -12.75 -19.1 -6.35 -19.1 2.7 -19.1 11.75 -24.7 18.15 -30.3 24.55 -38.2 24.55 -46.1 24.55 -51.7 18.15 -57.3 11.75 -57.3 2.7" fill="#000000" fill-opacity="0.49803922" fill-rule="evenodd" stroke="none"/>
    <path d="M26.55 -24.3 Q14.9 -24.3 6.7 -17.15 -1.55 -10.05 -1.55 0.05 -1.55 10.1 6.7 17.25 14.9 24.35 26.55 24.4 38.15 24.35 46.4 17.25 54.65 10.1 54.65 0.05 54.65 -10.05 46.4 -17.15 38.15 -24.3 26.55 -24.3 M26.55 -26.6 Q39.25 -26.6 48.25 -18.8 57.25 -11.0 57.25 0.0 57.25 11.0 48.25 18.8 39.25 26.6 26.55 26.6 13.85 26.6 4.85 18.8 -4.15 11.0 -4.15 0.0 -4.15 -11.0 4.85 -18.8 13.85 -26.6 26.55 -26.6" fill="#000000" fill-opacity="0.49803922" fill-rule="evenodd" stroke="none"/>
  </g>
</svg>
