<?xml version="1.0" encoding="UTF-8" standalone="no"?>
<svg xmlns:ffdec="https://www.free-decompiler.com/flash" xmlns:xlink="http://www.w3.org/1999/xlink" ffdec:objectType="shape" height="400.0px" width="280.0px" xmlns="http://www.w3.org/2000/svg">
  <g transform="matrix(1.0, 0.0, 0.0, 1.0, 0.0, 0.0)">
    <path d="M280.0 0.0 L280.0 400.0 0.0 400.0 0.0 0.0 280.0 0.0" fill="#ff9900" fill-rule="evenodd" stroke="none"/>
    <path d="M280.0 0.0 L277.5 2.85 2.45 2.85 0.0 0.0 280.0 0.0" fill="#ffffff" fill-opacity="0.34901962" fill-rule="evenodd" stroke="none"/>
    <path d="M277.5 2.85 L280.0 0.0 280.0 400.0 277.5 397.1 277.5 2.85" fill="#ffffff" fill-opacity="0.2509804" fill-rule="evenodd" stroke="none"/>
    <path d="M0.0 0.0 L2.45 2.85 2.45 397.1 0.0 400.0 0.0 0.0" fill="#000000" fill-opacity="0.2509804" fill-rule="evenodd" stroke="none"/>
    <path d="M277.5 397.1 L280.0 400.0 0.0 400.0 2.45 397.1 277.5 397.1" fill="#000000" fill-opacity="0.34901962" fill-rule="evenodd" stroke="none"/>
    <path d="M280.0 3.2 Q249.65 20.4 220.75 41.0 114.9 116.25 45.5 225.5 19.5 266.4 0.0 309.95 L0.0 242.1 Q5.55 228.5 11.75 215.05 66.15 97.8 160.8 8.95 L170.55 0.0 280.0 0.0 280.0 3.2 M280.0 176.4 Q194.3 211.7 121.0 269.9 51.75 324.85 0.0 395.25 L0.0 363.05 Q35.6 299.45 85.05 244.4 168.55 151.8 280.0 95.95 L280.0 176.4 M75.15 0.0 Q29.75 61.65 0.0 131.05 L0.0 0.0 75.15 0.0 M177.8 336.4 Q107.65 361.05 45.7 400.0 L16.55 400.0 Q77.45 342.05 152.05 300.95 213.7 266.9 280.0 246.75 L280.0 309.45 Q228.25 318.75 177.8 336.4 M280.0 366.9 L280.0 400.0 101.1 400.0 Q147.75 384.5 196.95 375.95 238.5 368.75 280.0 366.9" fill="#ffffff" fill-opacity="0.2" fill-rule="evenodd" stroke="none"/>
    <path d="M258.4 74.65 L263.3 72.9 263.3 74.65 258.4 74.65" fill="#ffffff" fill-opacity="0.49803922" fill-rule="evenodd" stroke="none"/>
    <path d="M16.7 74.65 L258.4 74.65 263.3 74.65 263.3 365.15 Q263.3 379.95 249.05 379.95 L30.9 379.95 Q16.7 379.95 16.7 365.15 L16.7 74.65" fill="#ffffff" fill-opacity="0.7019608" fill-rule="evenodd" stroke="none"/>
    <path d="M16.7 74.65 L16.7 35.0 Q16.7 20.2 30.9 20.2 L249.05 20.2 Q263.3 20.2 263.3 35.0 L263.3 72.9 258.4 74.65 16.7 74.65" fill="#ffffff" fill-opacity="0.4" fill-rule="evenodd" stroke="none"/>
    <path d="M263.3 72.9 L263.3 35.0 Q263.3 20.2 249.05 20.2 L30.9 20.2 Q16.7 20.2 16.7 35.0 L16.7 74.65 258.4 74.65 263.3 74.65 263.3 365.15 Q263.3 379.95 249.05 379.95 L30.9 379.95 Q16.7 379.95 16.7 365.15 L16.7 74.65 M263.3 72.9 L263.3 74.65" fill="none" stroke="#000000" stroke-linecap="round" stroke-linejoin="round" stroke-opacity="0.2" stroke-width="2.0"/>
  </g>
</svg>
