<?xml version="1.0" encoding="UTF-8" standalone="no"?>
<svg xmlns:ffdec="https://www.free-decompiler.com/flash" xmlns:xlink="http://www.w3.org/1999/xlink" ffdec:objectType="shape" height="136.4px" width="129.25px" xmlns="http://www.w3.org/2000/svg">
  <g transform="matrix(1.0, 0.0, 0.0, 1.0, 64.6, 84.1)">
    <path d="M-45.65 17.0 Q-26.75 10.9 0.05 10.9 26.8 10.9 45.75 17.0 64.65 23.05 64.65 31.6 64.65 40.15 45.75 46.2 26.8 52.3 0.05 52.3 -26.75 52.3 -45.65 46.2 -64.6 40.15 -64.6 31.6 -64.6 23.05 -45.65 17.0" fill="#000000" fill-opacity="0.101960786" fill-rule="evenodd" stroke="none"/>
    <path d="M6.55 -31.85 L6.55 -38.4 -6.5 -38.4 -6.5 -31.85 -13.05 -31.85 -13.05 -38.4 -32.65 -38.4 -32.65 -31.85 -39.15 -31.85 -39.15 -38.4 -45.7 -38.4 -45.7 -44.9 45.75 -44.9 45.75 -38.4 39.2 -38.4 39.2 -31.85 32.65 -31.85 32.65 -38.4 13.1 -38.4 13.1 -31.85 6.55 -31.85 M6.55 -57.95 L39.2 -57.95 39.2 -64.5 45.75 -64.5 45.75 -57.95 39.2 -57.95 39.2 -51.45 -39.15 -51.45 -39.15 -57.95 -45.7 -57.95 -45.7 -64.5 -39.15 -64.5 -39.15 -57.95 -19.6 -57.95 6.55 -57.95 M13.1 33.45 L6.55 33.45 6.55 20.4 13.1 20.4 13.1 33.45 M-6.5 33.45 L-13.05 33.45 -13.05 20.4 -6.5 20.4 -6.5 33.45 M-32.65 -18.8 L-32.65 7.35 -39.15 7.35 -39.15 0.8 -39.15 -18.8 -32.65 -18.8 M-13.05 7.35 L-13.05 -18.8 -6.5 -18.8 -6.5 -12.25 -6.5 7.35 -13.05 7.35 M6.55 -18.8 L13.1 -18.8 13.1 -12.25 13.1 7.35 6.55 7.35 6.55 -12.25 6.55 -18.8 M32.65 -18.8 L39.2 -18.8 39.2 0.8 39.2 7.35 32.65 7.35 32.65 -12.25 32.65 -18.8" fill="#805109" fill-rule="evenodd" stroke="none"/>
    <path d="M-6.5 -31.85 L-6.5 -38.4 6.55 -38.4 6.55 -31.85 -6.5 -31.85 M13.1 -31.85 L13.1 -38.4 32.65 -38.4 32.65 -31.85 13.1 -31.85 M-32.65 -31.85 L-32.65 -38.4 -13.05 -38.4 -13.05 -31.85 -32.65 -31.85 M45.75 26.95 L39.2 26.95 39.2 33.45 13.1 33.45 13.1 20.4 39.2 20.4 39.2 13.9 45.75 13.9 45.75 26.95 M6.55 33.45 L-6.5 33.45 -6.5 20.4 6.55 20.4 6.55 33.45 M-13.05 33.45 L-39.15 33.45 -39.15 26.95 -45.7 26.95 -45.7 13.85 -39.15 13.85 -39.15 20.4 -13.05 20.4 -13.05 33.45 M-45.7 0.8 L-45.7 -25.3 -39.15 -25.3 -39.15 -18.8 -39.15 0.8 -45.7 0.8 M-32.65 -18.8 L-13.05 -18.8 -13.05 7.35 -32.65 7.35 -32.65 -18.8 M-6.5 -18.8 L6.55 -18.8 6.55 -12.25 -6.5 -12.25 -6.5 -18.8 M13.1 -18.8 L32.65 -18.8 32.65 -12.25 13.1 -12.25 13.1 -18.8 M39.2 -18.8 L39.2 -25.3 45.75 -25.3 45.75 -18.8 39.2 -18.8" fill="#a36400" fill-rule="evenodd" stroke="none"/>
    <path d="M6.55 -57.95 L6.55 -64.5 39.2 -64.5 39.2 -57.95 6.55 -57.95" fill="#1f9bff" fill-rule="evenodd" stroke="none"/>
    <path d="M6.55 -64.5 L6.55 -57.95 -19.6 -57.95 -19.6 -64.5 6.55 -64.5" fill="#3fa9ff" fill-rule="evenodd" stroke="none"/>
    <path d="M39.2 -64.5 L6.55 -64.5 -19.6 -64.5 -39.15 -64.5 -39.15 -71.05 39.2 -71.05 39.2 -64.5" fill="#a86a0b" fill-rule="evenodd" stroke="none"/>
    <path d="M45.75 -44.9 L-45.7 -44.9 -45.7 -51.45 -52.25 -51.45 -52.25 -71.05 -45.7 -71.05 -45.7 -77.55 45.75 -77.55 52.25 -77.55 45.75 -77.55 45.75 -71.05 52.25 -71.05 52.25 -71.0 52.25 -51.45 45.75 -51.45 45.75 -44.9 M-39.15 -64.5 L-45.7 -64.5 -45.7 -57.95 -39.15 -57.95 -39.15 -51.45 39.2 -51.45 39.2 -57.95 45.75 -57.95 45.75 -64.5 39.2 -64.5 39.2 -71.05 -39.15 -71.05 -39.15 -64.5" fill="#d18a1f" fill-rule="evenodd" stroke="none"/>
    <path d="M45.75 -38.4 L45.75 -44.9 45.75 -51.45 52.25 -51.45 52.25 26.95 45.75 26.95 45.75 33.45 39.2 33.45 39.2 40.0 -39.15 40.0 -39.15 33.45 -45.7 33.45 -45.7 26.95 -52.25 26.95 -52.25 -51.45 -58.75 -51.45 -58.75 -71.05 -52.25 -71.05 -52.25 -77.55 -45.7 -77.55 -45.7 -84.1 45.75 -84.1 45.75 -77.55 -45.7 -77.55 -45.7 -71.05 -52.25 -71.05 -52.25 -51.45 -45.7 -51.45 -45.7 -44.9 -45.7 -38.4 -45.7 -31.85 -45.7 -25.3 -45.7 0.8 -45.7 7.35 -45.7 13.85 -45.7 26.95 -39.15 26.95 -39.15 33.45 -13.05 33.45 -6.5 33.45 6.55 33.45 13.1 33.45 39.2 33.45 39.2 26.95 45.75 26.95 45.75 13.9 45.75 13.85 45.75 7.35 45.75 0.8 45.75 -18.8 45.75 -25.3 45.75 -31.85 45.75 -38.4 M52.25 -77.55 L52.25 -71.05 45.75 -71.05 45.75 -77.55 52.25 -77.55 M52.25 -71.0 L58.8 -71.0 58.8 -51.45 52.25 -51.45 52.25 -71.0" fill="#000000" fill-rule="evenodd" stroke="none"/>
    <path d="M-45.7 -38.4 L-39.15 -38.4 -39.15 -31.85 -32.65 -31.85 -13.05 -31.85 -6.5 -31.85 -6.5 -25.3 -39.15 -25.3 -39.15 -31.85 -45.7 -31.85 -45.7 -38.4 M-45.7 7.35 L-45.7 0.8 -39.15 0.8 -39.15 7.35 -32.65 7.35 -13.05 7.35 -6.5 7.35 -6.5 13.85 -39.15 13.85 -39.15 7.35 -45.7 7.35" fill="#666666" fill-rule="evenodd" stroke="none"/>
    <path d="M-19.6 -64.5 L-19.6 -57.95 -39.15 -57.95 -39.15 -64.5 -19.6 -64.5" fill="#6bbdff" fill-rule="evenodd" stroke="none"/>
    <path d="M-45.7 13.85 L-45.7 7.35 -39.15 7.35 -39.15 13.85 -45.7 13.85 M-45.7 -25.3 L-45.7 -31.85 -39.15 -31.85 -39.15 -25.3 -45.7 -25.3 M-13.05 -18.8 L-32.65 -18.8 -39.15 -18.8 -39.15 -25.3 -6.5 -25.3 39.2 -25.3 39.2 -18.8 32.65 -18.8 13.1 -18.8 6.55 -18.8 -6.5 -18.8 -13.05 -18.8 M-6.5 13.85 L39.2 13.85 39.2 7.35 45.75 7.35 45.75 13.85 39.2 13.85 39.2 13.9 39.2 20.4 13.1 20.4 6.55 20.4 -6.5 20.4 -13.05 20.4 -39.15 20.4 -39.15 13.85 -6.5 13.85 M45.75 -25.3 L39.2 -25.3 39.2 -31.85 45.75 -31.85 45.75 -25.3" fill="#363636" fill-rule="evenodd" stroke="none"/>
    <path d="M6.55 -31.85 L13.1 -31.85 32.65 -31.85 39.2 -31.85 39.2 -38.4 45.75 -38.4 45.75 -31.85 39.2 -31.85 39.2 -25.3 -6.5 -25.3 -6.5 -31.85 6.55 -31.85 M6.55 7.35 L13.1 7.35 32.65 7.35 39.2 7.35 39.2 13.85 -6.5 13.85 -6.5 7.35 6.55 7.35 M45.75 7.35 L39.2 7.35 39.2 0.8 45.75 0.8 45.75 7.35" fill="#828282" fill-rule="evenodd" stroke="none"/>
    <path d="M13.1 -12.25 L32.65 -12.25 32.65 7.35 13.1 7.35 13.1 -12.25 M-6.5 -12.25 L6.55 -12.25 6.55 7.35 -6.5 7.35 -6.5 -12.25 M39.2 13.9 L39.2 13.85 45.75 13.85 45.75 13.9 39.2 13.9 M39.2 0.8 L39.2 -18.8 45.75 -18.8 45.75 0.8 39.2 0.8" fill="#c7841e" fill-rule="evenodd" stroke="none"/>
  </g>
</svg>
