<?xml version="1.0" encoding="UTF-8" standalone="no"?>
<svg xmlns:ffdec="https://www.free-decompiler.com/flash" xmlns:xlink="http://www.w3.org/1999/xlink" ffdec:objectType="shape" height="70.55px" width="74.7px" xmlns="http://www.w3.org/2000/svg">
  <g transform="matrix(1.0, 0.0, 0.0, 1.0, 36.6, 46.25)">
    <path d="M31.3 -18.1 Q36.35 -7.9 38.0 6.85 2.35 34.45 -34.45 18.2 L-35.6 10.5 Q-36.95 0.65 -36.25 -6.9 -35.45 -15.75 -32.25 -23.8 -25.25 -41.85 -10.5 -45.35 1.55 -48.35 12.9 -40.15 L15.1 -38.5 15.75 -38.0 17.95 -36.15 Q26.3 -28.45 31.3 -18.1" fill="#ffffff" fill-rule="evenodd" stroke="none"/>
    <path d="M31.3 -18.1 Q36.35 -7.9 38.0 6.85 2.35 34.45 -34.45 18.2 L-35.6 10.5 Q-36.95 0.65 -36.25 -6.9 -35.45 -15.75 -32.25 -23.8 -25.25 -41.85 -10.5 -45.35 1.55 -48.35 12.9 -40.15 L15.1 -38.5 15.75 -38.0 17.95 -36.15 Q26.3 -28.45 31.3 -18.1 Z" fill="none" stroke="#000000" stroke-linecap="round" stroke-linejoin="round" stroke-opacity="0.12941177" stroke-width="0.2"/>
    <path d="M-10.2 -39.65 Q-5.8 -39.45 -4.45 -37.95 -3.65 -36.9 -3.85 -35.85 L-4.25 -34.85 -15.2 -27.35 -14.65 -30.4 Q-16.75 -32.8 -17.7 -34.35 L-10.2 -39.65 M-6.75 -24.1 L-5.4 -17.25 -19.05 -7.65 -17.35 -16.9 -6.75 -24.1 M-4.05 -10.25 L-2.5 -2.55 -22.9 11.65 -21.0 1.4 -4.05 -10.25 M-0.6 6.5 L0.75 14.05 -11.35 22.6 -17.55 18.15 -0.6 6.5" fill="#0033cc" fill-rule="evenodd" stroke="none"/>
    <path d="M-10.2 -39.65 L-17.7 -34.35 Q-19.45 -36.9 -18.3 -37.95 -16.55 -39.65 -11.15 -39.65 L-10.2 -39.65 M-15.2 -27.35 L-4.25 -34.85 -5.0 -33.8 -7.9 -30.6 -7.9 -30.4 -6.75 -24.1 -17.35 -16.9 -15.2 -27.15 -15.2 -27.35 M-5.4 -17.25 L-4.05 -10.25 -21.0 1.4 -19.05 -7.65 -5.4 -17.25 M-2.5 -2.55 L-0.6 6.5 -17.55 18.15 -23.5 14.05 -22.9 11.65 -2.5 -2.55" fill="#3e6fff" fill-rule="evenodd" stroke="none"/>
    <path d="M-10.15 -39.65 Q-5.8 -39.5 -4.5 -37.85 -3.65 -36.85 -3.8 -35.8 L-4.15 -34.8 -5.0 -33.8 -7.85 -30.45 -7.85 -30.3 0.7 14.0 -11.35 22.55 -23.55 14.0 -22.9 11.7 -15.2 -27.15 -15.2 -27.3 -14.7 -30.3 -17.7 -34.3 Q-19.35 -36.85 -18.35 -37.85 -16.55 -39.65 -11.2 -39.65 L-10.15 -39.65 Z" fill="none" stroke="#000000" stroke-linecap="round" stroke-linejoin="round" stroke-opacity="0.2" stroke-width="0.2"/>
  </g>
</svg>
