<?xml version="1.0" encoding="UTF-8" standalone="no"?>
<svg xmlns:ffdec="https://www.free-decompiler.com/flash" xmlns:xlink="http://www.w3.org/1999/xlink" ffdec:objectType="shape" height="70.5px" width="74.65px" xmlns="http://www.w3.org/2000/svg">
  <g transform="matrix(1.0, 0.0, 0.0, 1.0, 36.55, 46.2)">
    <path d="M31.95 -15.5 Q35.8 -9.7 38.0 6.85 2.25 34.4 -34.45 18.2 L-35.6 10.5 Q-36.95 1.5 -36.1 -6.85 -35.8 -11.0 -34.95 -14.85 -22.75 -21.05 -23.75 -37.55 -18.25 -43.4 -10.6 -45.25 -0.25 -47.9 9.6 -42.05 2.45 -15.7 31.95 -15.5" fill="#ff6699" fill-rule="evenodd" stroke="none"/>
    <path d="M31.95 -15.5 Q35.8 -9.7 38.0 6.85 2.25 34.4 -34.45 18.2 L-35.6 10.5 Q-36.95 1.5 -36.1 -6.85 -35.8 -11.0 -34.95 -14.85 -22.75 -21.05 -23.75 -37.55 -18.25 -43.4 -10.6 -45.25 -0.25 -47.9 9.6 -42.05 2.45 -15.7 31.95 -15.5 Z" fill="none" stroke="#000000" stroke-linecap="round" stroke-linejoin="round" stroke-opacity="0.2" stroke-width="0.2"/>
  </g>
</svg>
