<?xml version="1.0" encoding="UTF-8" standalone="no"?>
<svg xmlns:ffdec="https://www.free-decompiler.com/flash" xmlns:xlink="http://www.w3.org/1999/xlink" ffdec:objectType="shape" height="85.2px" width="190.2px" xmlns="http://www.w3.org/2000/svg">
  <g transform="matrix(1.0, 0.0, 0.0, 1.0, 95.1, 42.6)">
    <path d="M30.6 -9.35 L35.25 -9.6 Q39.3 -9.6 42.2 -6.65 L43.0 -5.8 Q46.65 -10.3 51.7 -11.1 57.55 -12.25 61.2 -8.75 L67.55 -2.05 Q70.9 1.85 76.1 2.4 81.8 2.95 86.0 0.3 90.75 -2.75 92.15 -7.5 L92.7 -10.6 Q93.05 -14.25 91.95 -18.0 L92.3 -18.05 Q93.8 -14.4 94.5 -10.6 95.9 -2.85 94.05 5.55 91.0 19.6 76.1 22.15 63.0 23.35 54.2 13.55 L44.8 2.75 Q44.15 5.25 42.2 7.3 39.3 10.2 35.25 10.2 L33.6 9.95 Q29.95 11.25 26.0 9.45 26.7 14.05 26.7 16.0 26.7 27.0 14.3 34.8 1.95 42.6 -15.55 42.6 -33.05 42.6 -45.45 34.8 -57.8 27.0 -57.8 16.0 -57.8 5.9 -55.3 -1.55 -56.05 -6.7 -64.85 -13.45 -82.15 -22.3 -95.1 -37.6 -33.75 -53.65 -5.2 -18.4 1.1 -13.2 15.1 -11.15 L30.6 -9.35" fill="#000000" fill-rule="evenodd" stroke="none"/>
  </g>
</svg>
