<?xml version="1.0" encoding="UTF-8" standalone="no"?>
<svg xmlns:ffdec="https://www.free-decompiler.com/flash" xmlns:xlink="http://www.w3.org/1999/xlink" ffdec:objectType="shape" height="20.2px" width="97.6px" xmlns="http://www.w3.org/2000/svg">
  <g transform="matrix(1.0, 0.0, 0.0, 1.0, 48.8, 10.1)">
    <path d="M48.3 -5.65 L48.3 5.7 Q48.3 7.3 47.15 8.45 46.0 9.6 44.4 9.6 L-44.45 9.6 Q-46.05 9.6 -47.2 8.45 -48.3 7.3 -48.3 5.7 L-48.3 -5.65 Q-48.3 -7.25 -47.2 -8.4 -46.05 -9.55 -44.45 -9.55 L44.4 -9.55 Q46.0 -9.55 47.15 -8.4 48.3 -7.25 48.3 -5.65" fill="#fffb42" fill-rule="evenodd" stroke="none"/>
    <path d="M48.3 -5.65 L48.3 5.7 Q48.3 7.3 47.15 8.45 46.0 9.6 44.4 9.6 L-44.45 9.6 Q-46.05 9.6 -47.2 8.45 -48.3 7.3 -48.3 5.7 L-48.3 -5.65 Q-48.3 -7.25 -47.2 -8.4 -46.05 -9.55 -44.45 -9.55 L44.4 -9.55 Q46.0 -9.55 47.15 -8.4 48.3 -7.25 48.3 -5.65 Z" fill="none" stroke="#28609c" stroke-linecap="butt" stroke-linejoin="miter-clip" stroke-miterlimit="4.0" stroke-width="1.0"/>
    <path d="M44.4 -8.55 Q45.6 -8.55 46.45 -7.7 47.3 -6.85 47.3 -5.65 L47.3 -0.8 -47.3 -0.8 -47.3 -5.65 Q-47.3 -6.85 -46.45 -7.7 -45.65 -8.55 -44.45 -8.55 L44.4 -8.55" fill="url(#gradient0)" fill-rule="evenodd" stroke="none"/>
  </g>
  <defs>
    <linearGradient gradientTransform="matrix(0.0, 0.0079, 0.0079, 0.0, 0.0, -2.8)" gradientUnits="userSpaceOnUse" id="gradient0" spreadMethod="pad" x1="-819.2" x2="819.2">
      <stop offset="0.0" stop-color="#fefefe" stop-opacity="0.49803922"/>
      <stop offset="1.0" stop-color="#fefefe" stop-opacity="0.047058824"/>
    </linearGradient>
  </defs>
</svg>
