<?xml version="1.0" encoding="UTF-8" standalone="no"?>
<svg xmlns:ffdec="https://www.free-decompiler.com/flash" xmlns:xlink="http://www.w3.org/1999/xlink" ffdec:objectType="shape" height="13.7px" width="16.2px" xmlns="http://www.w3.org/2000/svg">
  <g transform="matrix(1.0, 0.0, 0.0, 1.0, 8.1, 6.85)">
    <path d="M-3.75 1.75 L-6.0 0.35 Q-8.25 -1.15 -8.1 -1.65 -8.0 -2.15 -5.15 -2.2 L-2.3 -2.15 -1.45 -4.5 Q-0.5 -6.85 0.0 -6.85 0.75 -6.85 2.3 -2.15 L5.05 -2.15 Q7.85 -2.1 8.1 -1.65 8.4 -0.95 3.75 1.75 5.65 6.1 5.0 6.75 4.6 7.1 2.25 5.65 L0.0 4.1 Q-4.5 7.35 -5.0 6.75 -5.3 6.35 -4.6 4.0 L-3.75 1.75" fill="#fad92a" fill-rule="evenodd" stroke="none"/>
  </g>
</svg>
