<?xml version="1.0" encoding="UTF-8" standalone="no"?>
<svg xmlns:ffdec="https://www.free-decompiler.com/flash" xmlns:xlink="http://www.w3.org/1999/xlink" ffdec:objectType="shape" height="22.3px" width="174.35px" xmlns="http://www.w3.org/2000/svg">
  <g transform="matrix(1.0, 0.0, 0.0, 1.0, 0.0, -0.05)">
    <path d="M70.6 13.9 L70.1 13.8 69.35 13.75 69.45 15.3 69.8 15.3 70.45 15.15 70.75 15.0 70.75 14.75 70.6 14.35 70.75 14.05 70.75 14.0 70.6 13.9 M69.05 7.75 L69.25 7.6 69.25 7.45 69.15 7.4 68.85 7.3 68.9 7.8 69.05 7.75 M91.55 9.1 L91.55 9.25 91.9 13.2 93.85 13.1 93.65 8.9 93.35 8.9 91.55 9.1 M102.25 7.6 L102.1 7.6 102.2 9.5 102.85 9.25 103.45 8.8 103.5 8.55 103.5 8.5 103.45 8.4 103.45 8.35 103.2 8.0 102.8 7.75 102.25 7.6 M112.15 10.75 L111.75 10.2 111.05 11.45 109.8 12.7 109.6 12.85 111.8 14.8 112.45 11.55 113.2 11.75 112.15 10.75 M126.7 9.55 L127.25 10.0 128.0 10.85 127.7 4.75 126.7 9.55 M165.9 9.05 L166.0 8.6 166.0 8.55 165.9 8.4 165.9 8.35 165.85 8.3 165.6 8.0 165.2 7.75 164.8 7.65 164.95 9.8 165.45 9.55 165.9 9.05 M174.15 9.85 L173.65 11.1 Q172.95 12.55 171.85 13.45 L169.45 14.95 166.8 15.8 165.25 16.0 165.6 20.9 156.5 21.5 156.45 21.05 149.1 21.15 149.1 21.4 139.2 21.75 138.95 14.65 137.75 14.6 138.0 21.2 128.6 21.7 128.4 18.1 127.75 19.1 126.15 20.55 Q125.25 21.15 124.2 21.45 L122.05 21.95 119.85 22.1 118.25 21.95 110.7 20.25 111.0 18.7 106.95 22.35 102.65 18.0 102.8 20.8 95.0 21.45 95.0 22.15 79.5 22.25 79.3 18.6 78.55 19.5 76.7 20.85 Q75.8 21.35 74.6 21.65 L72.4 22.05 70.25 22.15 60.9 22.05 60.85 21.15 60.7 21.15 51.75 22.0 51.25 15.1 49.2 18.95 47.6 15.9 47.35 21.9 39.05 21.3 39.05 22.15 23.5 22.25 23.45 21.15 14.55 22.0 14.0 15.1 11.95 18.95 10.4 15.9 10.1 21.9 0.0 21.15 2.35 1.1 11.1 1.3 12.05 4.2 13.15 1.8 21.75 0.8 22.7 7.45 22.35 1.5 37.9 0.05 38.4 8.8 35.55 9.1 35.55 9.25 35.9 12.7 35.9 13.2 38.2 13.1 39.6 1.1 48.35 1.3 49.3 4.2 50.4 1.8 59.0 0.8 60.35 10.35 59.9 0.75 70.45 0.05 72.25 0.4 Q73.2 0.65 74.0 1.0 L75.55 2.0 76.75 3.55 Q77.15 4.5 77.15 5.65 L77.0 7.05 76.45 8.35 76.8 8.55 Q78.05 9.1 78.8 10.15 L78.35 1.5 93.9 0.05 93.95 0.95 104.55 0.8 106.7 1.25 Q107.8 1.55 108.75 2.1 L110.55 3.45 111.45 4.7 112.35 3.2 113.9 1.85 115.75 0.85 117.75 0.25 119.75 0.05 120.55 0.1 125.95 1.1 127.5 1.7 127.5 1.55 137.2 1.05 137.5 7.75 138.75 7.75 138.6 1.55 147.4 1.5 147.35 1.35 156.8 0.8 156.8 1.3 165.25 0.85 168.5 1.2 Q170.15 1.55 171.45 2.5 172.85 3.5 173.55 4.9 174.35 6.35 174.35 8.45 L174.3 9.15 174.15 9.85" fill="#000000" fill-rule="evenodd" stroke="none"/>
  </g>
</svg>
