<?xml version="1.0" encoding="UTF-8" standalone="no"?>
<svg xmlns:ffdec="https://www.free-decompiler.com/flash" xmlns:xlink="http://www.w3.org/1999/xlink" ffdec:objectType="shape" height="20.8px" width="162.35px" xmlns="http://www.w3.org/2000/svg">
  <g transform="matrix(1.0, 0.0, 0.0, 1.0, -580.85, -248.95)">
    <path d="M609.05 261.2 L609.1 262.45 616.1 262.15 616.15 268.55 603.7 268.65 602.7 251.25 615.2 250.1 615.5 256.25 608.7 256.85 608.8 257.95 612.95 257.65 613.25 260.85 609.05 261.2 M590.4 251.1 L591.9 255.65 593.75 251.6 600.25 250.85 602.55 267.65 595.3 268.35 594.6 259.4 591.95 264.4 589.65 259.85 589.25 268.25 582.0 267.7 583.9 251.0 590.4 251.1 M647.75 262.0 L647.5 261.35 646.95 260.95 646.2 260.75 644.35 260.8 644.55 264.2 644.85 264.25 645.9 264.2 646.8 264.0 647.45 263.55 647.75 262.8 647.7 262.35 647.7 262.2 647.75 262.0 M646.35 255.85 L646.15 255.25 645.7 254.95 645.1 254.7 644.1 254.65 643.8 254.75 644.1 257.4 644.85 257.3 645.6 257.1 646.15 256.55 646.35 255.85 M644.35 249.95 L646.35 250.0 647.9 250.3 Q648.8 250.5 649.3 250.8 L650.55 251.55 Q651.05 252.05 651.35 252.7 L651.7 254.2 651.55 255.25 651.15 256.2 650.4 256.95 649.35 257.3 649.8 257.3 Q650.9 257.3 651.95 257.8 652.8 258.25 653.4 259.0 654.05 259.85 654.3 260.8 L654.6 262.95 Q654.6 264.15 654.2 264.9 653.9 265.75 653.25 266.4 L651.8 267.45 650.0 268.1 648.15 268.45 638.5 268.45 637.65 250.5 644.35 249.95 M625.1 251.1 L626.6 255.65 628.4 251.6 634.9 250.85 637.25 267.65 629.95 268.35 629.25 259.4 626.65 264.4 624.3 259.85 623.95 268.25 616.65 267.7 618.6 251.0 625.1 251.1 M692.35 250.0 L696.4 250.55 697.85 250.95 699.1 251.45 698.0 256.85 693.55 255.4 692.3 255.2 691.75 255.35 691.55 255.85 691.8 256.4 692.35 256.7 695.15 257.3 697.1 257.95 698.65 259.0 699.75 260.5 Q700.1 261.35 700.1 262.5 L699.85 264.55 699.0 266.1 697.75 267.25 696.15 267.95 694.4 268.35 692.45 268.5 691.15 268.4 685.1 267.05 686.35 260.95 690.0 261.85 691.2 262.0 691.8 261.85 692.05 261.3 691.8 260.8 Q691.6 260.6 691.2 260.5 L690.45 260.4 689.85 260.35 689.1 260.15 Q688.7 260.1 688.35 259.85 L687.1 259.2 686.05 258.3 685.35 257.15 685.1 255.75 Q685.1 254.9 685.4 254.0 685.7 253.25 686.25 252.6 L687.5 251.5 Q688.3 251.0 689.0 250.65 L690.65 250.2 692.35 250.0 M677.9 257.8 Q678.25 257.5 678.25 256.9 L678.2 256.55 678.05 256.25 677.6 255.65 677.0 255.2 676.25 255.05 675.45 254.95 675.15 255.0 674.9 255.0 675.05 259.0 676.05 258.8 677.05 258.5 Q677.65 258.15 677.9 257.8 M665.05 257.65 L665.35 260.85 661.15 261.2 661.25 262.45 668.25 262.15 668.25 268.55 655.8 268.65 654.85 251.25 667.35 250.1 667.65 256.25 660.85 256.85 660.9 257.95 665.05 257.65 M672.5 250.65 L676.2 250.55 678.05 250.7 679.9 251.05 681.65 251.75 683.05 252.85 684.0 254.35 Q684.35 255.1 684.35 256.3 L684.1 257.75 683.45 259.0 682.4 259.95 681.2 260.8 685.1 264.2 680.45 268.35 675.2 263.05 675.5 267.35 669.55 267.9 668.8 250.85 672.5 250.65 M736.2 256.25 L735.7 255.6 735.05 255.2 734.3 255.05 733.5 254.95 733.2 254.95 733.5 259.35 734.55 259.15 735.45 258.65 736.15 257.9 736.4 256.9 736.4 256.85 736.35 256.5 736.2 256.25 M719.1 251.15 L725.8 250.8 726.1 267.5 719.9 267.6 719.1 251.15 M710.9 251.4 L717.95 251.35 718.6 267.9 711.45 268.1 711.2 261.55 708.05 261.55 708.25 267.7 701.5 268.05 700.65 251.35 707.6 251.0 707.9 257.15 711.05 257.15 710.9 251.4 M742.0 257.8 L741.65 258.8 Q741.2 259.85 740.2 260.7 739.25 261.5 738.25 261.9 737.15 262.45 735.95 262.6 L733.65 262.9 733.95 267.45 727.5 267.9 726.45 251.15 730.25 250.95 734.0 250.75 734.7 250.75 737.5 251.05 Q738.75 251.35 739.9 252.1 740.9 252.75 741.55 253.95 742.15 255.1 742.15 256.8 L742.0 257.8" fill="#fbdf00" fill-rule="evenodd" stroke="none"/>
    <path d="M609.1 262.45 L609.05 261.2 613.25 260.85 612.95 257.65 608.8 257.95 608.7 256.85 615.5 256.25 615.2 250.1 602.7 251.25 603.7 268.65 616.15 268.55 616.1 262.15 609.1 262.45 M589.65 259.85 L591.95 264.4 594.6 259.4 595.3 268.35 602.55 267.65 600.25 250.85 593.75 251.6 591.9 255.65 590.4 251.1 583.9 251.0 582.0 267.7 589.25 268.25 589.65 259.85 M646.7 262.0 L646.7 261.95 646.55 261.9 646.1 261.8 645.4 261.75 645.5 263.25 645.85 263.2 646.45 263.05 646.7 262.9 646.7 262.65 646.55 262.3 646.7 262.0 M646.2 260.75 L646.95 260.95 647.5 261.35 647.75 262.0 647.7 262.2 647.7 262.35 647.75 262.8 647.45 263.55 646.8 264.0 645.9 264.2 644.85 264.25 644.55 264.2 644.35 260.8 646.2 260.75 M645.0 256.25 L645.3 256.0 645.3 255.9 645.2 255.8 644.95 255.75 645.0 256.25 M646.15 255.25 L646.35 255.85 646.15 256.55 645.6 257.1 644.85 257.3 644.1 257.4 643.8 254.75 644.1 254.65 645.1 254.7 645.7 254.95 646.15 255.25 M646.35 250.0 L644.95 249.95 637.65 250.5 638.5 268.45 648.15 268.45 650.0 268.1 651.8 267.45 653.25 266.4 Q653.9 265.75 654.2 264.9 654.6 264.15 654.6 262.95 L654.3 260.8 Q654.05 259.85 653.4 259.0 652.8 258.25 651.95 257.8 650.9 257.3 649.8 257.3 L649.35 257.3 650.4 256.95 651.15 256.2 651.55 255.25 651.7 254.2 651.35 252.7 Q651.05 252.05 650.55 251.55 L649.3 250.8 Q648.8 250.5 647.9 250.3 L646.35 250.0 M626.65 264.4 L629.25 259.4 629.95 268.35 637.25 267.65 634.9 250.85 628.4 251.6 626.6 255.65 625.1 251.1 618.6 251.0 616.65 267.7 623.95 268.25 624.3 259.85 626.65 264.4 M699.35 258.25 L700.0 259.05 699.75 253.35 698.8 257.8 699.35 258.25 M685.25 258.95 L684.9 258.45 684.25 259.6 683.1 260.75 682.9 260.9 684.95 262.7 685.55 259.7 686.25 259.85 685.25 258.95 M699.1 251.45 L697.85 250.95 696.4 250.55 692.35 250.0 690.65 250.2 689.0 250.65 Q688.3 251.0 687.5 251.5 L686.25 252.6 Q685.7 253.25 685.4 254.0 685.1 254.9 685.1 255.75 L685.35 257.15 686.05 258.3 687.1 259.2 688.35 259.85 Q688.7 260.1 689.1 260.15 L689.85 260.35 690.45 260.4 691.2 260.5 Q691.6 260.6 691.8 260.8 L692.05 261.3 691.8 261.85 691.2 262.0 690.0 261.85 686.35 260.95 685.1 267.05 689.85 268.15 692.45 268.5 694.4 268.35 696.15 267.95 697.75 267.25 699.0 266.1 699.85 264.55 700.1 262.5 Q700.1 261.35 699.75 260.5 L698.65 259.0 697.1 257.95 695.15 257.3 692.35 256.7 691.8 256.4 691.55 255.85 691.75 255.35 692.3 255.2 693.55 255.4 698.0 256.85 699.1 251.45 M676.6 257.55 L677.15 257.15 677.2 256.9 677.2 256.85 677.15 256.7 676.95 256.4 676.55 256.15 676.05 256.0 675.9 256.0 676.0 257.8 676.6 257.55 M677.0 255.2 L677.6 255.65 678.05 256.25 678.2 256.55 678.25 256.9 Q678.25 257.5 677.9 257.8 677.65 258.15 677.05 258.5 L676.05 258.8 675.05 259.0 674.9 255.0 675.15 255.0 675.45 254.95 676.25 255.05 677.0 255.2 M665.35 260.85 L665.05 257.65 660.9 257.95 660.85 256.85 667.65 256.25 667.35 250.1 654.85 251.25 655.8 268.65 668.25 268.55 668.25 262.15 661.25 262.45 661.15 261.2 665.35 260.85 M666.1 257.55 L666.4 261.2 668.2 261.2 668.05 257.2 667.75 257.25 666.1 257.4 666.1 257.55 M679.9 251.05 L678.05 250.7 676.2 250.55 672.5 250.65 668.8 250.85 669.55 267.9 675.5 267.35 675.2 263.05 680.45 268.35 685.1 264.2 681.2 260.8 682.4 259.95 683.45 259.0 684.1 257.75 684.35 256.3 Q684.35 255.1 684.0 254.35 L683.05 252.85 681.65 251.75 679.9 251.05 M734.65 256.15 L734.3 256.05 734.45 258.05 734.9 257.8 735.3 257.35 735.4 256.95 735.4 256.9 735.35 256.8 735.25 256.7 735.1 256.4 734.65 256.15 M735.7 255.6 L736.2 256.25 736.35 256.5 736.4 256.85 736.4 256.9 736.15 257.9 735.45 258.65 734.55 259.15 733.5 259.35 733.2 254.95 733.5 254.95 734.3 255.05 735.05 255.2 735.7 255.6 M725.8 250.8 L719.1 251.15 719.9 267.6 726.1 267.5 725.8 250.8 M717.95 251.35 L710.9 251.4 711.05 257.15 707.9 257.15 707.6 251.0 700.65 251.35 701.5 268.05 708.25 267.7 708.05 261.55 711.2 261.55 711.45 268.1 718.6 267.9 717.95 251.35 M742.0 257.8 L742.15 256.8 Q742.15 255.1 741.55 253.95 740.9 252.75 739.9 252.1 738.75 251.35 737.5 251.05 L734.7 250.75 734.0 250.75 730.25 250.95 726.45 251.15 727.5 267.9 733.95 267.45 733.65 262.9 735.95 262.6 Q737.15 262.45 738.25 261.9 739.25 261.5 740.2 260.7 741.2 259.85 741.65 258.8 L742.0 257.8 M743.15 257.45 L743.0 258.1 742.55 259.25 Q741.95 260.6 740.85 261.5 L738.6 262.85 736.15 263.65 734.7 263.85 735.05 268.4 726.55 268.95 726.5 268.55 719.65 268.65 719.65 268.85 710.45 269.2 710.2 262.55 709.1 262.55 709.35 268.65 700.6 269.15 700.4 265.85 699.8 266.7 698.3 268.05 Q697.45 268.65 696.5 268.9 L694.5 269.35 692.45 269.5 690.95 269.35 690.0 269.25 683.9 267.8 684.2 266.35 680.4 269.75 676.4 265.7 676.55 268.3 669.3 268.9 669.3 269.55 654.85 269.65 654.7 266.25 654.0 267.15 Q653.15 267.95 652.25 268.35 L650.3 269.1 648.25 269.45 646.25 269.55 637.55 269.45 637.5 268.65 637.35 268.65 629.0 269.4 628.55 263.0 626.65 266.6 625.15 263.75 624.9 269.3 617.2 268.75 617.2 269.55 602.7 269.65 602.65 268.65 594.4 269.4 593.85 263.0 591.95 266.6 590.45 263.75 590.25 269.3 580.85 268.65 583.0 249.95 591.15 250.15 592.05 252.85 593.1 250.6 601.1 249.7 601.95 255.85 601.65 250.35 616.1 249.0 616.6 257.15 613.95 257.4 613.95 257.55 614.25 261.2 616.1 261.2 616.4 261.15 617.7 249.95 625.85 250.15 626.75 252.85 627.75 250.6 635.75 249.7 637.05 258.55 636.6 249.65 644.95 248.95 646.45 249.0 648.1 249.3 649.75 249.85 651.2 250.8 652.25 252.25 Q652.65 253.05 652.65 254.2 L652.55 255.55 652.0 256.7 652.35 256.9 654.2 258.4 653.8 250.35 668.25 249.0 668.3 249.8 668.75 249.8 672.45 249.65 678.2 249.7 680.2 250.1 682.1 250.9 683.8 252.15 684.6 253.3 685.45 251.95 686.9 250.65 Q687.85 250.0 688.6 249.7 689.55 249.35 690.5 249.15 L692.35 249.0 693.1 249.05 693.3 249.05 696.65 249.6 698.1 249.95 699.55 250.55 699.55 250.35 708.6 249.9 708.85 256.15 710.05 256.15 709.9 250.4 718.1 250.35 718.1 250.2 726.85 249.7 726.85 250.15 734.7 249.7 737.75 250.05 Q739.25 250.35 740.5 251.25 741.8 252.2 742.45 253.5 743.2 254.85 743.2 256.8 L743.15 257.45" fill="#8f7300" fill-rule="evenodd" stroke="none"/>
  </g>
</svg>
