<?xml version="1.0" encoding="UTF-8" standalone="no"?>
<svg xmlns:ffdec="https://www.free-decompiler.com/flash" xmlns:xlink="http://www.w3.org/1999/xlink" ffdec:objectType="shape" height="48.65px" width="160.25px" xmlns="http://www.w3.org/2000/svg">
  <g transform="matrix(1.0, 0.0, 0.0, 1.0, -579.5, -286.85)">
    <path d="M727.55 289.35 Q737.25 289.35 737.25 299.05 L737.25 323.3 Q737.25 333.0 727.55 333.0 L591.7 333.0 Q582.0 333.0 582.0 323.3 L582.0 299.05 Q582.0 289.35 591.7 289.35 L727.55 289.35" fill="#248ee5" fill-rule="evenodd" stroke="none"/>
    <path d="M727.55 289.35 L591.7 289.35 Q582.0 289.35 582.0 299.05 L582.0 323.3 Q582.0 333.0 591.7 333.0 L727.55 333.0 Q737.25 333.0 737.25 323.3 L737.25 299.05 Q737.25 289.35 727.55 289.35 Z" fill="none" stroke="#000000" stroke-linecap="round" stroke-linejoin="round" stroke-opacity="0.15294118" stroke-width="5.0"/>
    <path d="M727.55 289.35 L591.7 289.35 Q582.0 289.35 582.0 299.05 L582.0 323.3 Q582.0 333.0 591.7 333.0 L727.55 333.0 Q737.25 333.0 737.25 323.3 L737.25 299.05 Q737.25 289.35 727.55 289.35 Z" fill="none" stroke="#c7c8c6" stroke-linecap="round" stroke-linejoin="round" stroke-width="2.0"/>
  </g>
</svg>
