<?xml version="1.0" encoding="UTF-8" standalone="no"?>
<svg xmlns:ffdec="https://www.free-decompiler.com/flash" xmlns:xlink="http://www.w3.org/1999/xlink" ffdec:objectType="shape" height="31.1px" width="225.0px" xmlns="http://www.w3.org/2000/svg">
  <g transform="matrix(1.0, 0.0, 0.0, 1.0, 0.0, 0.1)">
    <path d="M225.0 21.0 Q225.0 25.15 222.1 28.1 219.15 31.0 215.0 31.0 L10.0 31.0 Q5.85 31.0 2.95 28.1 0.0 25.15 0.0 21.0 L0.0 10.0 Q0.0 5.9 2.95 2.95 5.9 0.0 10.0 0.0 L215.0 0.0 Q219.15 0.0 222.1 2.95 225.0 5.85 225.0 10.0 L225.0 21.0" fill="#ffe23e" fill-rule="evenodd" stroke="none"/>
    <path d="M224.85 12.9 L224.85 14.95 Q112.55 23.15 0.2 14.95 L0.2 12.9 Q-1.5 -1.5 20.75 0.3 L43.45 0.3 185.8 0.3 204.3 0.3 Q226.7 -2.35 224.85 12.9" fill="url(#gradient0)" fill-rule="evenodd" stroke="none"/>
  </g>
  <defs>
    <linearGradient gradientTransform="matrix(0.0, 0.0117, -0.1371, 0.0, 112.55, 14.4)" gradientUnits="userSpaceOnUse" id="gradient0" spreadMethod="pad" x1="-819.2" x2="819.2">
      <stop offset="0.0" stop-color="#ffffff" stop-opacity="0.7019608"/>
      <stop offset="0.8470588235294118" stop-color="#ffffff" stop-opacity="0.0"/>
    </linearGradient>
  </defs>
</svg>
