<?xml version="1.0" encoding="UTF-8" standalone="no"?>
<svg xmlns:ffdec="https://www.free-decompiler.com/flash" xmlns:xlink="http://www.w3.org/1999/xlink" ffdec:objectType="shape" height="49.05px" width="161.55px" xmlns="http://www.w3.org/2000/svg">
  <g transform="matrix(1.0, 0.0, 0.0, 1.0, -578.4, -286.75)">
    <path d="M727.65 289.25 Q737.45 289.25 737.45 299.05 L737.45 323.5 Q737.45 333.3 727.65 333.3 L590.7 333.3 Q580.9 333.3 580.9 323.5 L580.9 299.05 Q580.9 289.25 590.7 289.25 L727.65 289.25" fill="#248ee5" fill-rule="evenodd" stroke="none"/>
    <path d="M727.65 289.25 L590.7 289.25 Q580.9 289.25 580.9 299.05 L580.9 323.5 Q580.9 333.3 590.7 333.3 L727.65 333.3 Q737.45 333.3 737.45 323.5 L737.45 299.05 Q737.45 289.25 727.65 289.25 Z" fill="none" stroke="#000000" stroke-linecap="round" stroke-linejoin="round" stroke-opacity="0.15294118" stroke-width="5.0"/>
    <path d="M727.65 289.25 L590.7 289.25 Q580.9 289.25 580.9 299.05 L580.9 323.5 Q580.9 333.3 590.7 333.3 L727.65 333.3 Q737.45 333.3 737.45 323.5 L737.45 299.05 Q737.45 289.25 727.65 289.25 Z" fill="none" stroke="#f7cb16" stroke-linecap="round" stroke-linejoin="round" stroke-width="2.0"/>
    <path d="M626.35 333.3 L613.7 333.3 648.7 295.55 597.95 333.3 590.7 333.3 Q584.4 333.3 582.15 329.25 L646.65 292.25 580.9 313.25 580.9 301.0 641.75 289.3 671.0 289.3 737.45 301.6 737.45 314.3 668.15 292.65 735.3 330.55 Q732.85 333.3 727.65 333.3 L717.05 333.3 666.0 295.9 701.2 333.3 688.5 333.3 662.9 298.2 678.3 333.3 669.35 333.3 659.15 299.0 661.3 333.3 653.2 333.3 655.3 299.3 645.45 333.3 636.55 333.3 651.7 298.0 626.35 333.3" fill="url(#gradient0)" fill-rule="evenodd" stroke="none"/>
  </g>
  <defs>
    <radialGradient cx="0" cy="0" gradientTransform="matrix(-2.0E-4, 0.101, 0.101, 2.0E-4, 652.65, 293.1)" gradientUnits="userSpaceOnUse" id="gradient0" r="819.2" spreadMethod="pad">
      <stop offset="0.0" stop-color="#fefefe" stop-opacity="0.24705882"/>
      <stop offset="1.0" stop-color="#fefefe" stop-opacity="0.047058824"/>
    </radialGradient>
  </defs>
</svg>
