<?xml version="1.0" encoding="UTF-8" standalone="no"?>
<svg xmlns:ffdec="https://www.free-decompiler.com/flash" xmlns:xlink="http://www.w3.org/1999/xlink" ffdec:objectType="shape" height="265.0px" width="501.2px" xmlns="http://www.w3.org/2000/svg">
  <g transform="matrix(1.0, 0.0, 0.0, 1.0, 0.75, 0.75)">
    <path d="M497.7 13.05 L497.7 250.45 Q497.7 255.0 494.55 258.25 491.4 261.45 486.95 261.45 L12.75 261.45 Q8.3 261.45 5.15 258.25 2.0 255.0 2.0 250.45 L2.0 13.05 Q2.0 8.5 5.15 5.25 8.3 2.05 12.75 2.05 L486.95 2.05 Q491.4 2.05 494.55 5.25 497.7 8.5 497.7 13.05" fill="url(#gradient0)" fill-rule="evenodd" stroke="none"/>
    <path d="M496.55 3.2 Q499.7 6.45 499.7 11.0 L499.7 252.5 Q499.7 257.05 496.55 260.3 493.4 263.5 488.95 263.5 L10.75 263.5 Q6.3 263.5 3.15 260.3 0.0 257.05 0.0 252.5 L0.0 11.0 Q0.0 6.45 3.15 3.2 6.3 0.0 10.75 0.0 L488.95 0.0 Q493.4 0.0 496.55 3.2 Z" fill="none" stroke="#234da9" stroke-linecap="butt" stroke-linejoin="miter-clip" stroke-miterlimit="4.0" stroke-width="1.5"/>
  </g>
  <defs>
    <linearGradient gradientTransform="matrix(0.0, -0.148, -0.1448, 0.0, 249.85, 131.8)" gradientUnits="userSpaceOnUse" id="gradient0" spreadMethod="pad" x1="-819.2" x2="819.2">
      <stop offset="0.0" stop-color="#257de2"/>
      <stop offset="0.4235294117647059" stop-color="#388ef8"/>
      <stop offset="1.0" stop-color="#257de2"/>
    </linearGradient>
  </defs>
</svg>
