<?xml version="1.0" encoding="UTF-8" standalone="no"?>
<svg xmlns:ffdec="https://www.free-decompiler.com/flash" xmlns:xlink="http://www.w3.org/1999/xlink" ffdec:objectType="shape" height="36.0px" width="240.25px" xmlns="http://www.w3.org/2000/svg">
  <g transform="matrix(1.0, 0.0, 0.0, 1.0, 45.1, 2.9)">
    <path d="M183.65 32.35 L-33.55 32.35 Q-38.0 32.35 -41.2 29.2 -44.25 26.15 -44.35 21.9 L-44.35 8.35 -44.3 7.6 Q-44.0 3.8 -41.2 1.0 -38.0 -2.15 -33.55 -2.15 L183.65 -2.15 Q188.1 -2.15 191.25 1.0 194.05 3.8 194.35 7.6 L194.4 8.35 194.4 21.9 Q194.3 26.15 191.25 29.2 188.1 32.35 183.65 32.35 Z" fill="none" stroke="#000000" stroke-linecap="butt" stroke-linejoin="miter-clip" stroke-miterlimit="4.0" stroke-opacity="0.3019608" stroke-width="1.5"/>
    <path d="M192.4 20.05 L192.4 20.45 192.4 21.75 192.25 21.75 192.4 20.05 M-42.25 21.75 L-42.35 21.75 -42.35 20.05 -42.25 21.35 -42.2 21.75 -42.25 21.75 -42.25 21.35 -42.25 21.75" fill="url(#gradient0)" fill-rule="evenodd" stroke="none"/>
    <path d="M192.4 16.4 L192.4 20.05 192.25 21.75 191.75 23.6 Q190.95 25.7 189.25 27.4 186.1 30.55 181.65 30.55 L-31.55 30.55 Q-36.0 30.55 -39.2 27.4 -40.9 25.7 -41.7 23.6 L-42.1 22.3 -42.2 21.75 -42.25 21.35 -42.3 16.4 -42.25 21.35 -42.35 20.05 -42.35 17.15 -42.35 16.4 -42.3 16.4 192.4 16.4" fill="url(#gradient1)" fill-rule="evenodd" stroke="none"/>
    <path d="M192.1 8.0 L192.4 8.0 192.4 9.8 192.4 9.9 192.1 8.0 M-42.35 9.95 L-42.35 8.0 -42.0 8.0 -42.3 9.95 -42.35 9.95" fill="url(#gradient2)" fill-rule="evenodd" stroke="none"/>
    <path d="M-42.0 8.0 Q-41.4 5.2 -39.2 3.0 -36.0 -0.15 -31.55 -0.15 L181.65 -0.15 Q186.1 -0.15 189.25 3.0 191.45 5.2 192.1 8.0 L192.4 9.9 192.4 16.4 -42.3 16.4 -42.35 16.4 -42.35 10.75 -42.35 10.35 -42.3 9.95 -42.0 8.0" fill="url(#gradient3)" fill-rule="evenodd" stroke="none"/>
    <path d="M-42.35 10.35 L-42.35 9.95 -42.3 9.95 -42.35 10.35" fill="url(#gradient4)" fill-rule="evenodd" stroke="none"/>
    <path d="M-42.0 8.0 Q-41.4 5.2 -39.2 3.0 -36.0 -0.15 -31.55 -0.15 L181.65 -0.15 Q186.1 -0.15 189.25 3.0 191.45 5.2 192.1 8.0 L192.4 9.9 192.4 16.4 192.4 20.05 192.4 20.45 M192.4 9.8 L192.4 9.9 M192.25 21.75 L191.75 23.6 Q190.95 25.7 189.25 27.4 186.1 30.55 181.65 30.55 L-31.55 30.55 Q-36.0 30.55 -39.2 27.4 -40.9 25.7 -41.7 23.6 L-42.1 22.3 -42.25 21.75 -42.25 21.35 -42.3 16.4 M-42.35 17.15 L-42.35 16.4 -42.35 10.75 M-42.35 10.35 L-42.35 9.95 M-42.0 8.0 L-42.3 9.95 -42.35 10.35 M192.25 21.75 L192.4 20.05 M-42.2 21.75 L-42.1 22.3" fill="none" stroke="#8fcafb" stroke-linecap="butt" stroke-linejoin="miter-clip" stroke-miterlimit="4.0" stroke-width="1.5"/>
  </g>
  <defs>
    <linearGradient gradientTransform="matrix(0.0, -0.0564, -0.0564, 0.0, 75.05, 8.1)" gradientUnits="userSpaceOnUse" id="gradient0" spreadMethod="pad" x1="-819.2" x2="819.2">
      <stop offset="0.0" stop-color="#3f77e0"/>
      <stop offset="0.4235294117647059" stop-color="#4e88f5"/>
      <stop offset="1.0" stop-color="#3f77e0"/>
    </linearGradient>
    <linearGradient gradientTransform="matrix(0.0, -0.0564, -0.0564, 0.0, 75.05, -18.9)" gradientUnits="userSpaceOnUse" id="gradient1" spreadMethod="pad" x1="-819.2" x2="819.2">
      <stop offset="0.0" stop-color="#3f77e0"/>
      <stop offset="0.4235294117647059" stop-color="#4e88f5"/>
      <stop offset="1.0" stop-color="#3f77e0"/>
    </linearGradient>
    <linearGradient gradientTransform="matrix(0.0, -0.0564, -0.0564, 0.0, 75.05, -13.7)" gradientUnits="userSpaceOnUse" id="gradient2" spreadMethod="pad" x1="-819.2" x2="819.2">
      <stop offset="0.0" stop-color="#3f77e0"/>
      <stop offset="0.4235294117647059" stop-color="#4e88f5"/>
      <stop offset="1.0" stop-color="#3f77e0"/>
    </linearGradient>
    <linearGradient gradientTransform="matrix(0.0, -0.0564, -0.0564, 0.0, 75.05, 49.3)" gradientUnits="userSpaceOnUse" id="gradient3" spreadMethod="pad" x1="-819.2" x2="819.2">
      <stop offset="0.0" stop-color="#3f77e0"/>
      <stop offset="0.4235294117647059" stop-color="#4e88f5"/>
      <stop offset="1.0" stop-color="#3f77e0"/>
    </linearGradient>
    <linearGradient gradientTransform="matrix(0.0, -0.0564, -0.0564, 0.0, 75.05, -3.7)" gradientUnits="userSpaceOnUse" id="gradient4" spreadMethod="pad" x1="-819.2" x2="819.2">
      <stop offset="0.0" stop-color="#3f77e0"/>
      <stop offset="0.4235294117647059" stop-color="#4e88f5"/>
      <stop offset="1.0" stop-color="#3f77e0"/>
    </linearGradient>
  </defs>
</svg>
