<?xml version="1.0" encoding="UTF-8" standalone="no"?>
<svg xmlns:ffdec="https://www.free-decompiler.com/flash" xmlns:xlink="http://www.w3.org/1999/xlink" ffdec:objectType="shape" height="30.7px" width="234.75px" xmlns="http://www.w3.org/2000/svg">
  <g transform="matrix(1.0, 0.0, 0.0, 1.0, 42.35, 0.15)">
    <path d="M-42.35 16.4 L-42.35 10.35 -42.3 9.95 -42.0 8.0 Q-41.4 5.2 -39.2 3.0 -36.0 -0.15 -31.55 -0.15 L181.65 -0.15 Q186.1 -0.15 189.25 3.0 191.45 5.2 192.1 8.0 L192.4 9.95 192.4 16.4 -42.35 16.4" fill="url(#gradient0)" fill-rule="evenodd" stroke="none"/>
    <path d="M192.4 16.4 L192.4 20.05 192.25 21.75 191.75 23.6 Q190.95 25.7 189.25 27.4 186.1 30.55 181.65 30.55 L-31.55 30.55 Q-36.0 30.55 -39.2 27.4 -40.9 25.7 -41.7 23.6 L-42.2 21.75 -42.35 20.05 -42.35 16.4 192.4 16.4" fill="url(#gradient1)" fill-rule="evenodd" stroke="none"/>
  </g>
  <defs>
    <linearGradient gradientTransform="matrix(0.0, -0.0564, -0.0564, 0.0, 75.05, 49.3)" gradientUnits="userSpaceOnUse" id="gradient0" spreadMethod="pad" x1="-819.2" x2="819.2">
      <stop offset="0.0" stop-color="#3f77e0"/>
      <stop offset="0.4235294117647059" stop-color="#4e88f5"/>
      <stop offset="1.0" stop-color="#3f77e0"/>
    </linearGradient>
    <linearGradient gradientTransform="matrix(0.0, -0.0564, -0.0564, 0.0, 75.05, -18.9)" gradientUnits="userSpaceOnUse" id="gradient1" spreadMethod="pad" x1="-819.2" x2="819.2">
      <stop offset="0.0" stop-color="#3f77e0"/>
      <stop offset="0.4235294117647059" stop-color="#4e88f5"/>
      <stop offset="1.0" stop-color="#3f77e0"/>
    </linearGradient>
  </defs>
</svg>
