<?xml version="1.0" encoding="UTF-8" standalone="no"?>
<svg xmlns:ffdec="https://www.free-decompiler.com/flash" xmlns:xlink="http://www.w3.org/1999/xlink" ffdec:objectType="shape" height="36.25px" width="374.85px" xmlns="http://www.w3.org/2000/svg">
  <g transform="matrix(1.0, 0.0, 0.0, 1.0, 168.3, 20.4)">
    <path d="M16.4 -20.4 L58.4 10.65 51.35 15.85 9.5 -15.2 16.4 -20.4 M-13.25 -20.4 L28.75 10.65 21.75 15.85 -20.15 -15.2 Q-16.7 -17.75 -13.25 -20.4 M75.65 -20.4 L117.65 10.65 110.65 15.85 68.75 -15.2 75.65 -20.4 M105.3 -20.4 L147.3 10.65 140.25 15.85 98.4 -15.2 105.3 -20.4 M46.05 -20.4 L88.0 10.65 81.0 15.85 39.1 -15.2 46.05 -20.4 M164.55 -20.4 L206.55 10.65 199.55 15.85 157.65 -15.2 164.55 -20.4 M134.95 -20.4 L176.9 10.65 169.9 15.85 128.0 -15.2 134.95 -20.4 M-7.9 15.85 L-49.8 -15.2 -42.85 -20.4 -0.9 10.65 -7.9 15.85 M-37.55 15.85 L-79.4 -15.2 -72.5 -20.4 -30.5 10.65 -37.55 15.85 M-131.75 -20.4 L-89.8 10.65 -96.8 15.85 -138.7 -15.2 -131.75 -20.4 M-161.4 -20.4 L-119.4 10.65 -126.45 15.85 -168.3 -15.2 -161.4 -20.4 M-102.15 -20.4 L-60.15 10.65 -67.15 15.85 -109.05 -15.2 -102.15 -20.4" fill="#31df15" fill-rule="evenodd" stroke="none"/>
  </g>
</svg>
