<?xml version="1.0" encoding="UTF-8" standalone="no"?>
<svg xmlns:ffdec="https://www.free-decompiler.com/flash" xmlns:xlink="http://www.w3.org/1999/xlink" ffdec:objectType="shape" height="44.65px" width="495.8px" xmlns="http://www.w3.org/2000/svg">
  <g transform="matrix(1.0, 0.0, 0.0, 1.0, -1.9, -2.0)">
    <path d="M489.85 2.4 L494.55 5.35 Q497.7 8.75 497.7 13.5 L497.7 22.65 Q472.05 29.6 423.85 35.75 372.05 42.4 324.95 44.7 276.65 47.05 228.15 46.55 L156.55 44.0 109.55 40.1 Q49.55 35.6 1.9 22.65 L1.9 13.5 Q1.9 8.75 5.05 5.35 7.55 2.7 10.85 2.15 L12.35 2.0 12.75 2.0 486.85 2.0 486.95 2.0 487.25 2.0 489.3 2.25 489.85 2.4" fill="#ffffff" fill-opacity="0.06666667" fill-rule="evenodd" stroke="none"/>
  </g>
</svg>
