<?xml version="1.0" encoding="UTF-8" standalone="no"?>
<svg xmlns:ffdec="https://www.free-decompiler.com/flash" xmlns:xlink="http://www.w3.org/1999/xlink" ffdec:objectType="shape" height="168.4px" width="580.25px" xmlns="http://www.w3.org/2000/svg">
  <g transform="matrix(1.0, 0.0, 0.0, 1.0, 0.75, 0.75)">
    <path d="M575.6 3.15 Q578.75 6.3 578.75 10.75 L578.75 157.15 Q578.75 161.5 575.6 164.25 572.55 166.9 567.95 166.9 L10.75 166.9 Q6.2 166.9 3.15 164.25 0.0 161.5 0.0 157.15 L0.0 10.75 Q0.0 6.3 3.15 3.15 6.3 0.0 10.75 0.0 L567.95 0.0 Q572.4 0.0 575.6 3.15 Z" fill="none" stroke="#0064a4" stroke-linecap="butt" stroke-linejoin="miter-clip" stroke-miterlimit="4.0" stroke-width="1.5"/>
    <path d="M573.75 5.1 Q576.9 8.25 576.9 12.7 L576.9 154.1 Q576.9 158.55 573.75 161.7 570.55 164.85 566.1 164.85 L12.9 165.85 Q8.45 165.85 5.3 162.7 2.15 159.55 2.15 155.1 L2.15 12.7 Q2.15 8.25 5.3 5.1 8.45 1.95 12.9 1.95 L566.1 1.95 Q570.55 1.95 573.75 5.1" fill="url(#gradient0)" fill-rule="evenodd" stroke="none"/>
    <path d="M573.75 5.1 Q576.9 8.25 576.9 12.7 L576.9 154.1 Q576.9 158.55 573.75 161.7 570.55 164.85 566.1 164.85 L12.9 165.85 Q8.45 165.85 5.3 162.7 2.15 159.55 2.15 155.1 L2.15 12.7 Q2.15 8.25 5.3 5.1 8.45 1.95 12.9 1.95 L566.1 1.95 Q570.55 1.95 573.75 5.1 Z" fill="none" stroke="#85c9fb" stroke-linecap="butt" stroke-linejoin="miter-clip" stroke-miterlimit="4.0" stroke-width="1.5"/>
  </g>
  <defs>
    <linearGradient gradientTransform="matrix(0.0, -0.0935, -0.0935, 0.0, 289.5, 83.95)" gradientUnits="userSpaceOnUse" id="gradient0" spreadMethod="pad" x1="-819.2" x2="819.2">
      <stop offset="0.0" stop-color="#257de0"/>
      <stop offset="0.4235294117647059" stop-color="#388df6"/>
      <stop offset="1.0" stop-color="#257de0"/>
    </linearGradient>
  </defs>
</svg>
