<?xml version="1.0" encoding="UTF-8" standalone="no"?>
<svg xmlns:ffdec="https://www.free-decompiler.com/flash" xmlns:xlink="http://www.w3.org/1999/xlink" ffdec:objectType="shape" height="34.65px" width="171.5px" xmlns="http://www.w3.org/2000/svg">
  <g transform="matrix(1.0, 0.0, 0.0, 1.0, 0.75, 0.75)">
    <path d="M170.0 21.0 Q170.0 25.15 167.1 28.05 164.15 31.0 160.0 31.0 L10.0 31.0 Q5.9 31.0 2.95 28.05 0.0 25.15 0.0 21.0 L0.0 10.0 Q0.0 5.85 2.95 2.9 5.85 0.0 10.0 0.0 L160.0 0.0 Q164.15 0.0 167.1 2.9 170.0 5.85 170.0 10.0 L170.0 21.0" fill="#00e000" fill-rule="evenodd" stroke="none"/>
    <path d="M170.0 21.0 Q170.0 25.15 167.1 28.05 164.15 31.0 160.0 31.0 L10.0 31.0 Q5.9 31.0 2.95 28.05 0.0 25.15 0.0 21.0 L0.0 10.0 Q0.0 5.85 2.95 2.9 5.85 0.0 10.0 0.0 L160.0 0.0 Q164.15 0.0 167.1 2.9 170.0 5.85 170.0 10.0 L170.0 21.0 Z" fill="none" stroke="#218cce" stroke-linecap="butt" stroke-linejoin="miter-clip" stroke-miterlimit="10.0" stroke-width="1.5"/>
  </g>
</svg>
