<?xml version="1.0" encoding="UTF-8" standalone="no"?>
<svg xmlns:ffdec="https://www.free-decompiler.com/flash" xmlns:xlink="http://www.w3.org/1999/xlink" ffdec:objectType="shape" height="87.75px" width="83.8px" xmlns="http://www.w3.org/2000/svg">
  <g transform="matrix(1.0, 0.0, 0.0, 1.0, 0.0, 0.05)">
    <path d="M38.7 13.9 Q34.7 14.1 31.65 15.7 L29.4 17.25 Q15.05 29.7 29.2 45.0 36.3 52.65 46.25 57.8 L49.3 41.75 Q56.95 47.45 68.4 65.45 74.15 74.45 78.35 82.3 65.45 85.65 45.0 86.6 34.75 87.1 27.1 86.9 L35.5 75.4 Q28.55 74.85 19.8 66.9 10.9 58.9 5.6 48.15 -0.4 36.15 1.0 25.8 2.6 13.8 14.1 6.55 34.65 -6.35 60.5 9.15 73.4 16.9 82.2 27.2 L69.2 27.2 Q51.5 13.35 38.7 13.9" fill="url(#gradient0)" fill-rule="evenodd" stroke="none"/>
    <path d="M38.7 13.9 Q51.5 13.35 69.2 27.2 L82.2 27.2 Q73.4 16.9 60.5 9.15 34.65 -6.35 14.1 6.55 2.6 13.8 1.0 25.8 -0.4 36.15 5.6 48.15 10.9 58.9 19.8 66.9 28.55 74.85 35.5 75.4 L27.1 86.9 Q34.75 87.1 45.0 86.6 65.45 85.65 78.35 82.3 74.15 74.45 68.4 65.45 56.95 47.45 49.3 41.75 L46.25 57.8 Q36.3 52.65 29.2 45.0 15.05 29.7 29.4 17.25 L31.65 15.7 Q34.7 14.1 38.7 13.9 Z" fill="none" stroke="#004e82" stroke-linecap="butt" stroke-linejoin="miter-clip" stroke-miterlimit="4.0" stroke-width="1.5"/>
  </g>
  <defs>
    <linearGradient gradientTransform="matrix(-0.0278, 0.0211, 0.0211, 0.0278, 83.65, 15.95)" gradientUnits="userSpaceOnUse" id="gradient0" spreadMethod="pad" x1="-819.2" x2="819.2">
      <stop offset="0.0" stop-color="#427fca"/>
      <stop offset="1.0" stop-color="#a4ccff"/>
    </linearGradient>
  </defs>
</svg>
