<?xml version="1.0" encoding="UTF-8" standalone="no"?>
<svg xmlns:ffdec="https://www.free-decompiler.com/flash" xmlns:xlink="http://www.w3.org/1999/xlink" ffdec:objectType="shape" height="32.5px" width="171.5px" xmlns="http://www.w3.org/2000/svg">
  <g transform="matrix(1.0, 0.0, 0.0, 1.0, 0.75, 0.75)">
    <path d="M0.0 21.4 L0.0 21.0 0.0 10.0 0.0 9.9 0.0 9.75 0.0 9.65 0.0 9.5 0.0 9.4 M9.65 0.0 L10.0 0.0 160.0 0.0 160.15 0.0 160.25 0.0 160.4 0.0 160.5 0.0 160.65 0.0 160.75 0.0" fill="none" stroke="#218cce" stroke-linecap="butt" stroke-linejoin="miter-clip" stroke-miterlimit="10.0" stroke-width="1.5"/>
    <path d="M160.75 0.0 L165.7 1.75 M0.0 9.4 L1.75 4.35" fill="none" stroke="#218cce" stroke-linecap="butt" stroke-linejoin="miter-clip" stroke-miterlimit="10.0" stroke-width="1.5"/>
    <path d="M165.7 1.75 L167.1 2.9 168.3 4.35 170.0 9.4 170.0 9.5 170.0 9.65 170.0 9.75 170.0 10.0 170.0 21.0 170.0 21.15 170.0 21.25 170.0 21.4 170.0 21.5 170.0 21.65 168.3 26.65 167.1 28.05 165.65 29.3 160.5 31.0 160.15 31.0 160.0 31.0 10.0 31.0 4.5 29.35 2.9 28.05 1.7 26.6 2.95 28.05 4.5 29.35 M1.75 4.35 L2.9 2.9 4.4 1.7 2.95 2.9 1.75 4.35 M168.3 4.35 L167.05 2.9 165.7 1.75 M168.3 26.65 L167.05 28.05 165.65 29.3" fill="none" stroke="#218cce" stroke-linecap="round" stroke-linejoin="miter-clip" stroke-miterlimit="10.0" stroke-width="1.5"/>
    <path d="M1.7 26.6 L0.0 21.4 M4.4 1.7 L9.65 0.0" fill="none" stroke="#218cce" stroke-linecap="round" stroke-linejoin="miter-clip" stroke-miterlimit="10.0" stroke-width="1.5"/>
  </g>
</svg>
