<?xml version="1.0" encoding="UTF-8" standalone="no"?>
<svg xmlns:ffdec="https://www.free-decompiler.com/flash" xmlns:xlink="http://www.w3.org/1999/xlink" ffdec:objectType="shape" height="182.0px" width="245.8px" xmlns="http://www.w3.org/2000/svg">
  <g transform="matrix(1.0, 0.0, 0.0, 1.0, 122.4, 112.0)">
    <path d="M-108.25 69.0 Q-112.1 69.0 -114.8 66.2 -117.5 63.45 -117.5 59.5 L-117.5 -111.0 118.5 -111.0 118.5 59.5 Q118.5 63.45 115.8 66.2 113.1 69.0 109.25 69.0 L-108.25 69.0" fill="#1b9ffc" fill-rule="evenodd" stroke="none"/>
    <path d="M-108.25 69.0 L109.25 69.0 Q113.1 69.0 115.8 66.2 118.5 63.45 118.5 59.5 L118.5 -111.0 -117.5 -111.0 -117.5 59.5 Q-117.5 63.45 -114.8 66.2 -112.1 69.0 -108.25 69.0 Z" fill="none" stroke="#234da9" stroke-linecap="butt" stroke-linejoin="miter-clip" stroke-miterlimit="10.0" stroke-width="2.0"/>
  </g>
</svg>
