<?xml version="1.0" encoding="UTF-8" standalone="no"?>
<svg xmlns:ffdec="https://www.free-decompiler.com/flash" xmlns:xlink="http://www.w3.org/1999/xlink" ffdec:objectType="shape" height="85.75px" width="243.05px" xmlns="http://www.w3.org/2000/svg">
  <g transform="matrix(1.0, 0.0, 0.0, 1.0, 118.5, 190.75)">
    <path d="M110.85 -187.0 Q114.7 -187.0 116.55 -185.3 118.5 -183.5 118.5 -179.75 L118.5 -106.0 -117.5 -106.0 -117.5 -179.75 Q-117.5 -183.25 -113.55 -185.3 -110.25 -187.0 -105.8 -187.0 L110.85 -187.0" fill="url(#gradient0)" fill-rule="evenodd" stroke="none"/>
    <path d="M110.85 -187.0 L-105.8 -187.0 Q-110.25 -187.0 -113.55 -185.3 -117.5 -183.25 -117.5 -179.75 L-117.5 -106.0 118.5 -106.0 118.5 -179.75 Q118.5 -183.5 116.55 -185.3 114.7 -187.0 110.85 -187.0 Z" fill="none" stroke="#234da9" stroke-linecap="butt" stroke-linejoin="miter-clip" stroke-miterlimit="10.0" stroke-width="2.0"/>
  </g>
  <defs>
    <linearGradient gradientTransform="matrix(0.0, -0.0494, -0.0494, 0.0, 0.5, -146.5)" gradientUnits="userSpaceOnUse" id="gradient0" spreadMethod="pad" x1="-819.2" x2="819.2">
      <stop offset="0.27058823529411763" stop-color="#2959c2"/>
      <stop offset="0.7333333333333333" stop-color="#2b5bc3"/>
      <stop offset="0.8941176470588236" stop-color="#456fca"/>
    </linearGradient>
  </defs>
</svg>
