<?xml version="1.0" encoding="UTF-8" standalone="no"?>
<svg xmlns:ffdec="https://www.free-decompiler.com/flash" xmlns:xlink="http://www.w3.org/1999/xlink" ffdec:objectType="shape" height="32.0px" width="35.0px" xmlns="http://www.w3.org/2000/svg">
  <g transform="matrix(1.0, 0.0, 0.0, 1.0, -7.5, 11.0)">
    <path d="M7.5 -5.2 Q7.5 -7.4 9.1 -9.15 10.75 -11.0 12.9 -11.0 L37.1 -11.0 Q39.2 -11.0 40.85 -9.15 42.5 -7.35 42.5 -5.2 L42.5 2.0 7.5 2.0 7.5 -5.2" fill="#dd5f25" fill-rule="evenodd" stroke="none"/>
    <path d="M42.5 2.0 L42.5 15.05 Q42.5 17.25 40.85 19.1 39.2 21.0 37.1 21.0 L12.9 21.0 Q10.75 21.0 9.1 19.1 7.5 17.3 7.5 15.05 L7.5 2.0 42.5 2.0" fill="#ffffff" fill-rule="evenodd" stroke="none"/>
  </g>
</svg>
