<?xml version="1.0" encoding="UTF-8" standalone="no"?>
<svg xmlns:ffdec="https://www.free-decompiler.com/flash" xmlns:xlink="http://www.w3.org/1999/xlink" ffdec:objectType="shape" height="198.2px" width="564.2px" xmlns="http://www.w3.org/2000/svg">
  <g transform="matrix(1.0, 0.0, 0.0, 1.0, -152.05, -1.9)">
    <path d="M672.95 135.15 Q695.65 143.8 708.25 172.8 714.5 187.35 716.25 200.1 L639.8 197.1 Q543.15 193.95 442.4 193.1 341.65 192.25 237.8 194.75 L154.05 197.45 152.05 163.0 Q170.2 150.5 193.1 138.2 238.8 113.7 262.35 115.0 L262.75 115.05 Q264.05 109.35 263.7 105.0 262.85 94.9 255.1 84.8 252.7 81.65 249.9 78.9 L247.55 76.75 Q240.85 77.6 232.75 90.05 230.25 93.95 227.9 98.5 L226.05 102.3 Q221.85 88.0 226.85 76.2 228.45 72.55 230.75 69.55 231.9 68.05 232.75 67.3 229.4 64.8 215.95 61.8 L203.15 59.25 Q209.9 55.9 224.05 56.55 L236.8 57.9 Q238.95 47.25 251.75 40.45 259.75 36.15 270.2 34.15 261.65 36.35 256.45 46.65 254.8 49.9 253.7 53.55 253.15 55.35 252.95 56.55 266.4 54.85 281.2 60.25 288.6 62.95 293.3 65.95 288.25 64.3 273.5 66.3 L259.7 68.65 264.75 77.4 Q270.75 88.15 275.8 98.25 279.05 104.75 278.2 116.25 L307.35 119.45 336.15 123.1 329.65 70.0 314.8 70.0 319.25 55.2 372.7 20.2 426.1 55.2 430.55 70.0 415.7 70.0 410.1 116.05 Q430.65 109.0 444.1 105.15 464.0 99.4 477.6 97.6 481.1 86.5 480.35 78.1 478.65 60.4 473.95 50.65 472.45 47.6 470.85 45.75 L469.55 44.45 Q462.85 45.3 454.75 57.75 452.25 61.65 449.9 66.2 L448.05 70.0 Q443.85 55.7 448.85 43.95 451.4 38.1 454.75 35.05 451.4 32.5 437.95 29.5 L425.15 26.95 Q431.9 23.6 446.05 24.25 L458.8 25.6 Q460.95 14.95 473.75 8.15 481.75 3.95 492.2 1.9 483.65 4.05 478.45 14.35 476.8 17.6 475.7 21.25 475.15 23.05 474.95 24.25 488.4 22.55 503.2 27.95 510.6 30.65 515.3 33.7 510.25 32.0 495.45 34.0 L481.65 36.35 486.55 47.3 Q491.6 60.4 492.45 71.35 493.2 80.95 493.0 96.95 506.2 97.9 526.25 105.05 526.65 98.45 528.75 94.2 536.85 78.1 544.9 64.6 L531.1 62.25 Q516.3 60.25 511.25 61.95 L514.55 60.1 Q518.75 57.9 523.35 56.2 538.2 50.8 551.65 52.5 550.75 47.8 548.15 42.65 542.95 32.35 534.4 30.15 544.85 32.2 552.85 36.4 565.65 43.2 567.8 53.85 L580.55 52.5 Q594.7 51.85 601.4 55.2 595.35 56.2 588.65 57.75 575.2 60.75 571.8 63.3 L573.8 65.55 Q576.1 68.55 577.7 72.2 582.75 83.95 578.55 98.25 575.85 92.2 571.85 86.0 563.75 73.55 557.0 72.7 553.3 75.75 549.45 80.75 541.7 90.85 540.85 100.95 540.5 105.4 541.85 111.0 553.15 115.65 573.3 124.55 589.1 131.35 594.7 132.05 L608.65 131.5 626.25 129.2 Q651.2 126.85 672.95 135.15" fill="#96cefd" fill-rule="evenodd" stroke="none"/>
  </g>
</svg>
