<?xml version="1.0" encoding="UTF-8" standalone="no"?>
<svg xmlns:ffdec="https://www.free-decompiler.com/flash" xmlns:xlink="http://www.w3.org/1999/xlink" ffdec:objectType="shape" height="180.9px" width="721.7px" xmlns="http://www.w3.org/2000/svg">
  <g transform="matrix(1.0, 0.0, 0.0, 1.0, 0.0, 0.0)">
    <path d="M683.75 73.55 L684.15 73.55 684.7 73.6 715.3 78.85 Q717.55 79.25 719.15 80.85 720.8 82.45 721.2 84.7 L721.5 86.85 721.7 92.15 721.4 102.0 710.75 174.25 Q710.35 176.75 708.35 178.2 L708.25 178.3 Q706.75 179.35 704.85 179.35 L704.0 179.3 671.45 173.15 Q669.5 172.7 668.25 171.15 L666.55 171.25 664.85 171.25 655.3 170.2 Q651.75 169.5 648.4 168.15 645.2 166.85 642.25 165.2 635.6 161.6 631.1 156.8 629.9 158.4 628.0 159.65 624.8 161.65 620.3 162.45 L612.15 163.15 609.9 163.2 597.7 162.2 Q588.35 160.65 580.4 156.35 572.1 151.8 566.5 145.2 562.7 140.75 560.2 135.35 L559.9 137.75 559.9 137.85 Q559.6 140.1 557.9 141.6 556.2 143.1 553.95 143.1 L523.85 141.45 Q521.55 141.3 519.9 139.65 518.3 137.95 518.2 135.65 L517.15 124.75 517.1 124.75 Q512.15 131.0 504.45 134.5 496.85 137.95 487.05 138.3 L484.95 138.35 479.8 138.05 480.1 147.35 480.15 147.55 478.85 161.05 Q478.75 163.4 477.15 165.1 475.45 166.9 472.85 166.9 L438.65 166.75 Q436.3 166.75 434.45 165.0 L434.35 164.9 Q432.8 163.15 432.7 161.0 L431.45 147.9 Q426.35 152.05 419.7 154.75 411.55 158.0 402.65 158.0 393.7 158.0 385.55 154.75 377.4 151.5 371.25 145.8 365.1 140.0 361.4 132.2 358.3 125.4 357.8 118.1 L334.8 118.9 334.55 118.85 331.9 118.25 332.15 134.6 330.85 148.1 Q330.85 150.4 329.2 152.15 L329.1 152.25 Q327.3 153.95 324.95 153.95 L293.5 154.25 Q291.15 154.25 289.45 152.65 287.75 151.1 287.55 148.75 L287.55 148.7 286.25 135.15 285.95 124.1 285.0 133.05 285.05 133.05 Q285.0 135.5 283.3 137.2 281.6 138.9 279.15 138.95 L245.35 139.35 Q243.55 139.35 242.0 138.35 240.55 137.3 239.85 135.65 L239.1 136.6 Q234.35 142.95 226.75 146.7 219.4 150.3 209.45 151.05 L206.1 151.2 202.65 151.05 203.2 160.2 203.25 160.4 203.25 160.7 201.95 174.05 Q201.95 176.4 200.4 178.1 L200.3 178.2 Q198.6 180.0 196.1 180.05 L161.8 180.9 Q159.4 180.9 157.7 179.3 156.0 177.7 155.85 175.35 L154.55 161.75 154.4 155.1 154.2 155.25 Q148.0 161.05 140.0 164.2 131.9 167.45 122.95 167.45 113.9 167.45 105.95 164.25 L105.85 164.2 105.8 164.2 Q97.8 161.0 91.6 155.25 L91.55 155.25 Q84.75 148.9 81.7 141.5 77.95 132.4 76.45 122.9 L75.15 123.7 Q73.15 124.85 71.0 125.5 L76.9 149.75 76.9 149.85 77.1 151.5 75.75 164.3 75.8 164.9 Q75.8 166.95 74.5 168.6 73.25 170.2 71.2 170.7 L33.45 179.75 33.3 179.8 32.1 179.9 31.95 179.9 Q30.3 179.9 28.85 179.0 26.75 177.6 26.2 175.25 L26.2 175.2 0.7 63.25 0.25 58.85 0.0 52.3 0.1 49.2 0.05 48.5 Q0.05 46.0 1.6 44.05 3.1 42.1 5.5 41.5 L5.65 41.45 27.05 36.4 27.1 36.4 48.4 31.75 50.85 31.2 52.8 30.85 65.7 29.75 67.1 29.75 67.15 29.8 70.9 29.95 70.95 29.95 Q80.05 30.55 88.1 34.3 L88.15 34.3 Q96.3 38.2 102.05 45.6 L102.05 45.65 Q107.75 53.0 109.65 64.35 L109.65 64.4 110.0 68.25 Q116.3 66.45 122.95 66.45 132.1 66.45 140.4 69.8 L140.5 69.85 Q147.2 72.5 152.5 76.85 L152.1 59.2 Q152.1 56.25 154.15 54.15 156.2 52.0 159.15 51.9 L190.45 51.0 Q193.3 51.0 195.5 53.1 L195.55 53.05 195.6 53.05 Q197.6 52.2 200.4 51.45 L200.5 51.4 Q203.3 50.7 206.0 50.55 L208.85 50.45 215.2 51.05 Q218.75 51.75 221.95 52.9 L221.8 44.4 Q221.8 41.45 223.85 39.35 225.9 37.2 228.85 37.1 L236.3 36.9 235.7 8.0 Q235.7 5.05 237.75 2.95 239.8 0.85 242.75 0.75 L278.25 0.0 Q281.15 0.1 283.25 2.0 L283.35 2.1 Q285.5 4.25 285.55 7.25 L285.7 35.4 294.85 35.15 Q297.85 35.25 300.0 37.3 302.2 39.5 302.1 42.45 L301.75 55.3 323.8 53.9 Q326.65 53.9 328.65 55.75 L328.8 55.9 Q329.75 56.85 330.3 57.9 L330.7 57.75 330.75 57.75 Q336.75 55.8 343.2 55.8 356.25 55.8 364.15 63.0 L364.25 63.05 364.25 63.1 Q367.65 66.1 369.6 70.35 L370.45 69.55 Q376.65 63.8 385.05 60.35 L385.15 60.35 Q393.4 57.0 402.65 57.0 411.9 57.0 420.15 60.35 426.55 62.95 431.9 67.15 L432.05 44.95 Q432.05 42.0 434.2 39.85 436.3 37.75 439.3 37.75 L470.35 37.75 Q473.5 37.75 475.6 40.0 L475.75 39.95 475.85 39.9 480.55 38.45 480.7 38.45 Q483.1 37.85 486.25 37.75 L488.05 37.7 495.35 38.5 Q499.15 39.35 503.3 41.1 L503.45 41.15 Q509.4 43.65 513.95 47.9 516.45 50.15 518.5 53.0 519.15 51.9 520.25 51.05 L520.3 51.05 Q522.25 49.5 524.7 49.5 L526.2 49.65 526.05 49.35 526.05 49.25 Q525.4 47.3 524.65 40.85 L524.05 33.55 Q523.65 27.25 523.9 24.95 524.65 18.75 527.55 14.05 L527.55 14.0 Q530.4 9.3 534.85 6.2 L535.0 6.1 Q539.15 3.15 544.6 1.9 L544.8 1.85 Q548.05 1.1 551.5 1.1 L555.6 1.35 Q561.5 2.1 566.35 4.2 L566.4 4.25 Q571.75 6.55 575.25 10.3 L575.3 10.4 Q579.1 14.4 580.75 20.0 L580.8 20.1 Q581.85 23.7 581.85 27.85 L581.6 32.1 581.6 32.15 580.3 45.4 580.3 45.5 Q579.45 51.5 576.05 55.8 L576.0 55.9 Q572.7 60.05 568.1 62.5 L567.9 62.6 Q568.65 64.1 568.65 65.85 L568.6 66.8 567.9 72.2 Q571.3 68.5 575.5 65.6 L575.55 65.55 Q583.2 60.35 592.35 58.15 L592.5 58.1 Q598.05 56.85 603.35 56.85 L611.55 57.55 611.6 57.55 Q615.65 58.2 620.15 59.75 L620.25 59.8 Q624.7 61.35 628.65 63.5 L628.7 63.5 Q633.0 65.95 636.4 68.6 640.25 71.65 642.9 75.3 L643.7 76.65 Q647.85 74.7 652.6 73.65 656.4 72.8 660.8 72.55 L662.55 72.5 669.3 73.05 669.45 73.1 670.2 73.25 670.3 73.25 Q674.65 74.15 678.65 75.8 L679.65 74.95 679.7 74.9 679.7 74.85 Q681.55 73.65 683.75 73.55" fill="#231f20" fill-rule="evenodd" stroke="none"/>
  </g>
</svg>
