<?xml version="1.0" encoding="UTF-8" standalone="no"?>
<svg xmlns:ffdec="https://www.free-decompiler.com/flash" xmlns:xlink="http://www.w3.org/1999/xlink" ffdec:objectType="shape" height="181.95px" width="722.8px" xmlns="http://www.w3.org/2000/svg">
  <g transform="matrix(1.0, 0.0, 0.0, 1.0, -58.9, -30.05)">
    <path d="M687.6 95.0 Q691.95 97.4 695.15 100.0 699.0 103.05 701.5 106.5 702.25 107.45 702.55 108.65 707.05 106.35 712.25 105.25 L720.3 104.15 722.0 104.15 728.6 104.65 729.55 104.85 Q734.05 105.8 738.0 107.45 L738.4 107.6 739.7 106.35 739.75 106.3 Q741.35 105.25 743.2 105.15 L743.5 105.2 744.1 105.2 774.55 110.4 Q776.55 110.8 777.9 112.2 779.3 113.6 779.6 115.55 L779.9 117.5 780.1 122.65 779.8 132.5 769.15 204.65 Q768.85 206.75 767.15 207.9 L767.05 208.0 Q766.0 208.75 764.4 208.85 L763.55 208.8 731.3 202.7 731.15 202.65 Q729.25 202.2 728.2 200.6 L724.35 200.75 Q719.65 200.7 714.95 199.7 711.7 199.05 708.25 197.7 L702.25 194.8 Q694.95 190.9 690.4 185.6 689.25 187.75 686.85 189.25 683.8 191.2 679.5 191.95 L671.6 192.65 669.35 192.7 657.3 191.7 Q648.1 190.15 640.35 185.95 632.5 181.75 626.75 175.05 621.75 169.25 619.1 161.65 L618.25 168.25 Q618.05 170.1 616.65 171.3 615.25 172.55 613.4 172.55 L583.35 170.9 Q581.45 170.8 580.1 169.4 578.75 168.0 578.75 166.05 L577.45 152.65 577.45 152.3 575.7 154.65 Q570.95 160.6 563.45 164.05 556.2 167.35 546.45 167.8 L544.55 167.85 538.15 167.35 538.5 178.1 537.2 191.6 Q537.2 193.55 535.85 194.9 534.35 196.4 532.35 196.4 L498.1 196.2 Q496.15 196.2 494.65 194.8 L494.5 194.6 Q493.25 193.25 493.25 191.4 L493.35 191.4 492.6 185.05 491.95 177.95 491.95 176.15 Q486.2 181.3 478.75 184.3 470.75 187.5 462.1 187.5 453.5 187.5 445.4 184.3 437.65 181.25 431.45 175.55 425.35 169.85 421.85 162.3 418.65 155.5 418.25 147.55 L394.05 148.35 391.25 147.6 390.25 146.9 390.5 165.05 389.25 178.65 Q389.25 180.55 387.85 181.95 L387.8 182.05 Q386.3 183.45 384.35 183.45 L353.0 183.75 Q351.0 183.75 349.55 182.4 348.15 181.05 348.05 179.05 L348.15 179.05 347.4 172.55 346.75 165.65 345.4 117.55 344.4 117.55 344.7 150.1 343.4 163.7 Q343.35 165.65 341.95 167.0 340.55 168.4 338.55 168.4 L304.85 168.85 Q302.85 168.85 301.45 167.5 300.0 166.15 299.9 164.2 L299.8 163.5 297.7 166.5 Q293.2 172.55 285.7 176.3 278.6 179.8 268.8 180.5 L265.55 180.65 260.95 180.35 261.6 191.2 260.3 204.65 Q260.4 206.45 259.05 207.95 L258.95 208.0 Q257.65 209.45 255.55 209.55 L221.25 210.4 Q219.35 210.4 217.9 209.05 216.45 207.65 216.35 205.7 L216.45 205.65 215.7 199.25 215.05 192.25 214.85 183.1 212.95 185.0 Q206.95 190.65 199.05 193.75 191.05 196.95 182.4 196.95 173.7 196.95 165.8 193.8 L165.7 193.75 Q157.6 190.5 151.8 185.0 145.1 178.8 142.1 171.65 138.1 161.8 136.7 151.55 L134.1 153.35 Q131.6 154.65 129.15 155.3 L135.3 180.6 135.45 182.05 134.15 194.85 134.2 195.45 Q134.2 197.15 133.15 198.5 132.1 199.85 130.4 200.2 L92.65 209.25 91.55 209.4 Q90.05 209.35 88.9 208.65 87.2 207.55 86.7 205.55 L61.2 93.55 60.75 89.3 60.5 82.85 Q60.5 80.9 60.65 79.75 L60.6 79.05 Q60.6 76.9 61.9 75.25 63.2 73.6 65.25 73.05 L65.35 73.05 86.75 68.0 86.8 68.0 108.2 63.3 110.5 62.8 112.4 62.45 125.15 61.35 126.55 61.4 130.25 61.55 130.3 61.55 Q139.3 62.15 147.15 65.8 155.15 69.65 160.65 76.8 166.25 84.15 168.05 95.15 L168.4 99.05 168.35 100.25 Q175.25 98.05 182.4 98.05 191.2 98.05 199.5 101.35 L199.55 101.35 Q207.2 104.45 213.1 109.75 L212.6 89.85 Q212.6 87.25 214.35 85.45 216.1 83.65 218.65 83.55 L249.7 82.6 Q252.8 82.6 254.65 84.95 L255.45 84.6 Q257.35 83.8 260.2 83.0 262.95 82.3 265.6 82.15 L268.3 82.05 274.4 82.65 Q278.55 83.45 282.3 84.95 L282.5 85.05 282.3 75.05 Q282.3 72.45 284.05 70.65 285.75 68.85 288.3 68.75 L296.8 68.5 296.25 38.7 Q296.25 36.1 298.0 34.25 299.75 32.45 302.25 32.35 L337.6 31.65 Q340.15 31.65 341.95 33.35 L342.05 33.4 Q343.9 35.25 343.9 37.75 L344.1 67.05 354.2 66.8 Q356.8 66.8 358.7 68.6 360.5 70.4 360.5 73.0 L360.1 87.0 383.25 85.5 Q385.65 85.5 387.4 87.1 L387.5 87.2 Q388.6 88.2 389.15 89.75 L390.45 89.3 390.5 89.3 Q396.25 87.45 402.6 87.45 415.4 87.45 422.9 94.35 L423.0 94.4 Q426.75 97.85 428.7 102.8 L430.55 100.95 Q436.85 95.1 444.9 91.9 453.1 88.6 462.1 88.6 471.1 88.6 479.2 91.9 486.55 94.9 492.4 99.95 L492.55 75.5 Q492.6 72.95 494.4 71.15 496.2 69.35 498.7 69.35 L529.8 69.35 Q532.95 69.35 534.75 71.8 L535.65 71.45 Q537.95 70.6 540.25 70.05 L540.4 70.0 545.75 69.4 547.45 69.3 554.6 70.1 Q558.55 71.0 562.35 72.65 L562.5 72.7 Q568.2 75.1 572.7 79.25 575.7 82.05 578.2 85.7 578.75 83.65 580.3 82.5 L580.35 82.45 Q582.1 81.1 584.15 81.1 L585.6 81.3 587.4 81.75 586.5 79.5 Q585.9 77.6 585.15 71.3 584.0 59.45 584.4 55.6 585.2 49.65 587.95 45.1 590.65 40.6 594.95 37.6 L595.0 37.55 Q599.3 34.6 604.3 33.5 L604.45 33.45 610.95 32.75 614.9 32.95 Q620.7 33.7 625.35 35.7 L625.45 35.75 Q630.45 37.95 633.95 41.6 L634.0 41.65 Q637.65 45.6 639.2 50.95 640.2 54.25 640.2 58.4 L639.95 62.55 639.95 62.9 638.7 75.8 638.65 76.0 Q637.95 81.55 634.65 85.7 L634.6 85.75 Q631.6 89.65 627.05 92.1 L625.85 92.7 Q627.05 94.4 627.05 96.35 L627.0 97.2 625.85 106.1 Q630.1 100.8 635.55 97.05 643.1 91.85 652.1 89.75 L652.15 89.7 Q657.35 88.5 662.8 88.5 L670.8 89.15 670.85 89.15 Q675.0 89.85 679.25 91.35 L679.3 91.35 Q683.45 92.75 687.6 95.0" fill="#305a82" fill-rule="evenodd" stroke="none"/>
    <path d="M662.8 90.1 Q657.55 90.1 652.5 91.3 643.75 93.3 636.5 98.35 629.25 103.35 624.35 110.95 L624.3 110.95 623.4 112.55 625.4 97.0 625.4 96.95 625.45 96.35 Q625.45 95.0 624.75 93.9 624.0 92.75 622.8 92.2 L626.3 90.7 Q630.5 88.4 633.35 84.8 636.4 81.0 637.1 75.65 L637.1 75.6 638.35 62.4 638.6 58.4 Q638.6 54.55 637.65 51.4 636.25 46.4 632.8 42.75 629.5 39.25 624.75 37.2 620.1 35.2 614.7 34.55 L610.95 34.35 Q607.55 34.35 604.75 35.05 599.8 36.1 595.9 38.9 592.0 41.55 589.3 45.95 586.7 50.2 586.0 55.8 585.75 57.8 586.1 63.4 L586.75 71.1 Q587.4 76.95 588.05 78.95 L588.05 79.0 Q588.9 81.75 590.6 84.2 L585.25 82.85 584.15 82.75 Q582.5 82.75 581.35 83.7 579.6 85.05 579.6 87.25 L579.55 91.45 578.35 89.05 Q575.6 84.2 571.6 80.4 567.5 76.55 561.75 74.15 L561.75 74.1 Q558.15 72.55 554.2 71.65 L547.5 70.9 547.45 70.9 545.8 71.0 540.7 71.6 536.15 73.0 536.1 73.0 534.05 73.8 Q533.55 72.55 532.4 71.75 531.25 70.95 529.8 70.95 L498.75 70.95 Q496.85 70.95 495.5 72.3 494.2 73.6 494.15 75.5 L494.0 103.75 492.4 102.15 492.4 102.1 Q486.55 96.6 478.6 93.4 470.7 90.2 462.1 90.2 453.5 90.2 445.5 93.4 437.6 96.6 431.65 102.1 L428.05 106.0 427.4 103.85 Q425.6 99.0 421.85 95.55 414.75 89.05 402.65 89.05 L402.6 89.05 Q396.6 89.05 390.95 90.85 389.45 91.35 387.85 92.0 L387.85 91.6 Q387.75 89.65 386.35 88.3 385.0 87.1 383.25 87.1 L358.45 88.7 358.9 73.0 Q358.9 71.05 357.55 69.75 356.3 68.4 354.3 68.4 L342.5 68.7 342.3 37.8 Q342.3 35.85 340.9 34.55 339.5 33.25 337.7 33.25 L302.35 33.95 Q300.45 34.05 299.15 35.35 297.85 36.7 297.85 38.55 L298.45 70.05 288.35 70.35 Q286.5 70.4 285.2 71.75 283.9 73.1 283.9 74.95 L284.15 87.5 281.75 86.45 281.7 86.45 Q278.05 84.95 274.1 84.2 L268.3 83.65 265.7 83.75 Q263.0 83.9 260.65 84.55 L260.6 84.55 Q258.2 85.15 256.05 86.1 L254.05 86.95 Q253.5 85.75 252.4 85.0 251.25 84.25 249.9 84.25 L218.7 85.15 Q216.8 85.2 215.5 86.55 214.2 87.9 214.25 89.75 L214.8 113.7 212.75 111.55 Q206.65 106.0 198.95 102.85 191.15 99.7 182.4 99.7 174.05 99.7 166.6 102.6 L166.8 99.3 166.8 99.05 166.5 95.4 Q164.65 84.7 159.4 77.8 154.15 71.0 146.45 67.25 138.9 63.75 130.15 63.15 L126.55 63.0 125.15 63.0 112.7 64.05 108.55 64.85 87.15 69.55 65.7 74.6 Q64.15 74.95 63.15 76.25 62.2 77.45 62.2 79.05 L62.25 79.7 Q62.1 81.0 62.1 82.85 L62.35 89.2 62.6 91.75 62.8 93.2 88.3 205.2 Q88.5 206.5 89.75 207.3 L91.45 207.8 91.55 207.8 92.25 207.7 130.05 198.65 Q131.15 198.4 131.9 197.5 132.6 196.6 132.6 195.45 L132.5 194.9 133.85 182.05 133.75 181.0 127.2 154.15 Q130.8 153.3 133.3 151.95 136.05 150.35 137.95 148.05 138.95 159.8 143.6 171.0 146.45 177.85 152.85 183.85 158.65 189.2 166.3 192.3 L166.35 192.3 Q174.05 195.35 182.4 195.35 190.75 195.35 198.45 192.3 206.0 189.3 211.85 183.85 214.4 181.45 216.35 178.85 L216.65 192.2 217.95 205.6 Q218.05 207.05 219.0 207.85 219.95 208.8 221.25 208.8 L255.5 207.95 Q257.0 207.85 257.85 206.85 258.7 205.9 258.7 204.6 L258.7 204.5 260.0 191.25 260.0 191.0 259.2 178.45 260.35 178.65 265.55 179.05 268.7 178.9 Q278.1 178.2 285.0 174.85 292.0 171.4 296.4 165.55 299.4 161.7 300.65 157.85 L301.5 164.1 Q301.6 165.4 302.55 166.35 303.5 167.25 304.8 167.25 L338.55 166.8 Q339.9 166.8 340.85 165.85 341.8 164.9 341.8 163.55 L343.1 150.1 342.8 116.0 346.95 115.9 348.35 165.6 349.65 179.0 Q349.75 180.35 350.65 181.25 351.6 182.15 352.95 182.15 L384.35 181.85 Q385.7 181.85 386.7 180.85 387.65 179.9 387.65 178.55 L387.65 178.5 388.9 165.15 388.4 131.3 388.65 131.4 389.2 132.15 389.3 132.5 389.35 132.55 390.3 144.0 390.4 144.35 Q390.75 145.5 392.0 146.15 393.05 146.65 394.2 146.75 L419.8 145.9 Q419.95 154.4 423.3 161.6 426.75 169.0 432.55 174.4 438.4 179.8 446.0 182.85 453.7 185.9 462.1 185.9 470.5 185.9 478.15 182.8 485.65 179.8 491.55 174.4 L493.6 172.25 493.55 177.95 494.85 191.35 Q494.85 192.6 495.8 193.65 496.75 194.6 498.15 194.6 L532.35 194.8 Q533.7 194.75 534.7 193.8 535.6 192.85 535.6 191.5 L535.6 191.45 536.9 178.1 536.5 165.3 538.05 165.65 538.05 165.7 544.4 166.25 546.35 166.2 Q555.75 165.75 562.8 162.6 570.0 159.3 574.45 153.65 577.15 150.3 579.1 145.7 L579.05 152.6 580.35 166.0 580.35 166.05 Q580.35 167.35 581.25 168.3 582.15 169.25 583.45 169.3 L613.4 170.95 Q614.65 170.95 615.55 170.15 616.5 169.3 616.65 168.05 L618.65 152.2 Q618.95 156.05 620.05 159.4 622.55 167.7 627.95 174.0 633.35 180.3 641.1 184.55 648.7 188.65 657.6 190.1 L669.35 191.05 671.55 191.05 678.95 190.45 Q683.1 189.7 686.0 187.9 688.1 186.6 689.05 184.7 689.65 183.45 689.75 182.15 694.5 188.85 703.0 193.4 705.8 194.95 708.85 196.2 712.0 197.5 715.3 198.15 L724.35 199.15 725.95 199.15 729.1 198.85 Q729.7 200.7 731.6 201.1 L763.65 207.2 764.25 207.25 764.35 207.25 Q765.35 207.25 766.15 206.65 767.3 205.9 767.55 204.45 L778.2 132.4 778.45 122.65 778.3 117.65 778.05 115.9 778.05 115.85 Q777.8 114.4 776.8 113.35 775.8 112.25 774.3 112.0 L744.0 106.8 743.25 106.8 Q741.8 106.8 740.65 107.65 739.55 108.45 739.1 109.7 L737.35 108.9 Q733.65 107.35 729.25 106.4 L728.4 106.25 728.35 106.25 722.0 105.75 720.35 105.75 Q716.3 106.0 712.6 106.8 706.5 108.15 701.6 111.0 L700.95 111.4 701.1 110.2 Q701.1 108.65 700.2 107.45 697.7 104.05 694.15 101.25 691.15 98.8 686.85 96.4 682.95 94.3 678.75 92.85 674.3 91.3 670.6 90.75 L662.8 90.1 M651.85 88.15 Q657.05 86.9 662.8 86.9 L671.05 87.55 671.1 87.6 Q675.3 88.25 679.75 89.8 L679.9 89.85 Q684.4 91.4 688.35 93.6 L688.4 93.6 Q692.4 95.75 696.15 98.7 699.95 101.7 702.8 105.55 L703.4 106.45 Q707.45 104.7 711.9 103.65 L720.2 102.55 722.0 102.5 728.8 103.05 729.75 103.25 729.9 103.25 Q734.25 104.2 738.0 105.7 L738.75 105.05 738.8 105.0 738.85 105.0 Q740.85 103.65 743.2 103.55 L743.5 103.55 743.65 103.6 744.2 103.6 774.85 108.85 Q777.25 109.3 779.0 111.0 780.7 112.75 781.15 115.1 L781.5 117.35 781.7 122.65 781.4 132.6 770.7 204.9 Q770.3 207.6 768.15 209.2 L768.0 209.3 Q766.5 210.35 764.3 210.45 L763.4 210.4 730.75 204.2 Q728.9 203.75 727.45 202.25 L724.3 202.35 Q719.7 202.3 714.65 201.25 711.0 200.55 707.65 199.15 704.5 197.85 701.45 196.2 695.1 192.8 690.6 188.15 689.45 189.5 687.7 190.65 684.45 192.7 679.9 193.55 L671.65 194.25 669.35 194.3 657.05 193.3 Q647.7 191.8 639.6 187.35 631.4 182.95 625.55 176.1 622.35 172.4 619.95 167.75 L619.85 168.35 619.85 168.45 Q619.55 170.9 617.7 172.5 615.85 174.15 613.4 174.15 L583.3 172.5 Q580.8 172.35 579.0 170.55 577.25 168.75 577.15 166.25 L576.2 156.6 Q571.4 162.15 564.1 165.5 556.6 168.95 546.55 169.4 L544.4 169.45 539.8 169.2 540.1 178.1 538.8 191.6 Q538.8 194.15 537.0 196.05 534.95 198.0 532.3 198.0 L498.1 197.8 Q495.4 197.8 493.5 195.9 L493.4 195.8 Q491.75 193.95 491.65 191.55 L490.45 179.5 Q485.6 183.25 479.35 185.8 471.2 189.1 462.1 189.1 453.0 189.1 444.8 185.8 436.65 182.6 430.35 176.75 424.1 170.9 420.4 162.95 417.45 156.65 416.75 149.2 L393.95 149.95 391.9 149.55 392.15 165.15 390.85 178.7 Q390.75 181.25 389.05 183.05 L388.9 183.2 Q386.95 185.05 384.4 185.05 L352.95 185.35 Q350.4 185.35 348.55 183.65 346.7 181.9 346.45 179.35 L346.45 179.3 345.15 165.7 345.1 163.0 345.0 163.6 Q344.95 166.25 343.1 168.1 341.25 169.95 338.6 170.0 L304.8 170.45 Q303.05 170.45 301.55 169.55 300.1 168.7 299.2 167.2 L299.0 167.5 Q294.05 173.95 286.4 177.75 278.8 181.45 268.95 182.1 L265.55 182.25 262.65 182.15 263.2 191.25 261.95 204.65 Q261.95 207.15 260.25 209.0 L260.15 209.15 Q258.25 211.1 255.6 211.15 L221.25 212.0 Q218.7 212.0 216.8 210.2 215.0 208.55 214.75 205.95 L214.75 205.9 213.45 192.3 213.35 186.85 Q207.25 192.3 199.65 195.25 191.5 198.55 182.4 198.55 173.45 198.55 165.2 195.3 L165.1 195.25 165.05 195.25 Q156.85 192.0 150.7 186.2 L150.65 186.15 Q143.65 179.6 140.65 172.25 137.05 163.5 135.5 154.35 L134.85 154.75 Q133.05 155.75 131.05 156.4 L136.85 180.2 136.9 180.3 137.05 182.05 135.75 194.85 135.8 195.45 Q135.8 197.7 134.4 199.45 133.0 201.25 130.8 201.8 L93.0 210.85 92.9 210.85 91.55 211.0 91.4 211.0 Q89.45 210.9 88.05 210.0 85.7 208.55 85.15 205.9 L85.15 205.85 59.65 93.9 59.15 89.4 58.9 82.85 Q58.9 80.95 59.05 79.75 L59.0 79.05 Q59.0 76.4 60.6 74.3 62.2 72.15 64.8 71.5 L64.95 71.45 86.35 66.45 86.45 66.4 107.75 61.75 110.2 61.2 112.15 60.85 Q119.0 59.75 125.15 59.75 L126.6 59.8 130.35 59.95 130.4 59.95 Q139.95 60.65 147.75 64.35 L147.85 64.35 Q156.2 68.35 161.9 75.8 L161.95 75.85 Q167.65 83.25 169.65 94.8 L169.65 94.85 169.95 98.1 Q176.05 96.45 182.4 96.45 191.65 96.45 200.05 99.85 L200.15 99.9 Q206.35 102.4 211.4 106.25 L211.0 89.75 Q211.0 86.55 213.2 84.3 215.4 82.05 218.6 81.95 L249.9 81.0 Q252.8 81.0 255.05 83.0 L259.7 81.45 259.8 81.45 265.5 80.55 268.3 80.45 274.75 81.05 Q277.9 81.65 280.85 82.7 L280.7 74.95 Q280.7 71.75 282.9 69.5 285.1 67.25 288.3 67.15 L295.2 66.9 294.65 38.55 Q294.65 35.35 296.85 33.1 299.0 30.85 302.2 30.75 L337.7 30.05 Q340.8 30.05 343.05 32.15 L343.2 32.25 Q345.4 34.45 345.5 37.75 L345.7 65.4 354.3 65.2 Q357.55 65.2 359.8 67.45 362.1 69.65 362.1 73.0 L361.75 85.3 382.8 83.9 383.25 83.9 Q386.25 83.9 388.5 85.9 L388.6 86.05 390.0 87.8 390.05 87.75 Q396.2 85.85 402.65 85.85 415.95 85.85 424.0 93.15 L424.1 93.25 Q427.25 96.1 429.2 100.0 L429.45 99.8 429.55 99.7 Q436.05 93.75 444.3 90.4 L444.4 90.4 Q452.85 87.0 462.1 87.0 471.35 87.0 479.8 90.4 485.95 92.95 490.85 96.6 L490.95 75.5 Q491.0 72.3 493.25 70.05 495.55 67.75 498.75 67.75 L529.8 67.75 Q532.95 67.75 535.2 69.9 537.4 69.05 539.85 68.5 L539.9 68.5 540.0 68.45 545.65 67.75 547.5 67.7 554.9 68.55 Q559.2 69.5 562.95 71.15 L563.1 71.2 Q569.3 73.85 573.8 78.05 L577.95 82.6 579.35 81.2 579.4 81.15 Q581.5 79.5 584.15 79.5 L584.85 79.55 Q584.15 77.1 583.6 71.45 L582.95 63.95 Q582.55 57.8 582.8 55.4 583.55 49.25 586.55 44.3 L586.55 44.25 Q589.5 39.45 593.95 36.3 L594.15 36.2 Q598.5 33.15 603.9 31.95 L604.15 31.85 610.95 31.15 615.1 31.4 Q620.85 32.05 626.0 34.25 L626.1 34.3 Q631.25 36.5 635.05 40.45 L635.15 40.55 Q639.05 44.8 640.7 50.4 L640.75 50.5 Q641.8 54.2 641.8 58.4 L641.55 62.7 641.55 63.05 640.3 76.0 640.25 76.1 Q639.5 82.15 635.95 86.7 L635.85 86.75 Q632.75 90.8 628.05 93.35 628.65 94.8 628.65 96.35 L628.6 97.4 628.1 101.2 Q630.9 98.35 634.65 95.7 L634.7 95.65 Q642.4 90.4 651.7 88.2 L651.85 88.15" fill="#356594" fill-rule="evenodd" stroke="none"/>
    <path d="M126.4 120.7 Q127.2 118.6 126.7 116.1 L126.3 114.85 125.45 113.7 Q124.2 112.0 122.65 111.05 121.1 110.15 119.25 109.7 L115.8 109.3 115.35 109.3 112.05 109.55 116.7 129.3 119.35 128.0 Q121.9 126.6 123.7 124.8 125.45 123.05 126.4 120.7 M254.55 146.75 L258.55 146.65 262.65 145.9 Q264.25 145.5 265.55 144.5 266.65 143.65 267.25 142.25 267.85 140.9 267.7 138.75 267.5 135.75 266.1 134.0 264.6 132.1 262.45 131.15 260.1 130.05 257.2 129.75 L253.65 129.55 254.55 146.75 M300.95 124.85 L301.55 127.35 301.3 116.4 297.55 116.5 Q299.7 120.4 300.95 124.85 M186.7 147.5 Q185.2 146.85 183.5 146.85 181.7 146.85 180.2 147.5 178.65 148.15 177.4 149.25 176.3 150.4 175.6 151.8 174.95 153.35 174.95 154.95 174.95 156.45 175.6 158.0 176.2 159.35 177.4 160.55 178.75 161.75 180.2 162.3 181.65 162.95 183.5 162.95 185.25 162.95 186.7 162.3 188.3 161.65 189.4 160.55 190.6 159.4 191.25 158.0 191.95 156.5 191.95 154.95 191.95 153.35 191.25 151.85 190.65 150.4 189.4 149.25 188.35 148.2 186.7 147.5 M455.3 142.35 Q454.65 143.7 454.65 145.45 454.65 147.2 455.3 148.55 455.9 149.9 457.1 151.1 458.25 152.15 459.9 152.85 461.4 153.5 463.15 153.5 L466.35 152.85 Q468.0 152.15 469.05 151.1 470.2 150.05 470.95 148.5 471.6 147.15 471.6 145.45 471.6 143.7 470.95 142.4 470.2 140.85 469.1 139.8 467.85 138.6 466.35 138.05 464.9 137.4 463.15 137.4 461.35 137.4 459.9 138.05 458.35 138.65 457.1 139.8 456.0 140.85 455.3 142.35 M545.1 121.2 Q543.7 119.3 541.5 118.2 539.2 117.1 536.3 116.7 L532.75 116.35 533.2 133.6 537.2 133.6 541.3 133.0 Q543.05 132.55 544.25 131.65 545.45 130.8 546.0 129.5 546.65 128.25 546.55 126.05 546.4 122.95 545.1 121.2 M584.15 98.25 L584.75 98.3 621.45 107.35 Q622.65 107.7 621.7 120.75 L615.8 167.95 Q615.7 168.9 615.0 169.5 614.3 170.1 613.4 170.1 L583.5 168.45 Q582.5 168.4 581.85 167.7 581.15 166.95 581.2 166.0 L580.15 152.85 581.45 132.5 Q581.1 136.3 580.15 140.05 578.2 147.65 573.8 153.1 569.4 158.65 562.4 161.8 555.8 164.9 546.3 165.35 L544.55 165.35 538.2 164.85 533.85 163.8 535.9 178.75 534.75 191.4 Q534.85 192.4 534.05 193.2 533.35 193.9 532.35 193.9 L498.15 193.75 Q497.1 193.75 496.4 193.05 495.7 192.25 495.7 191.3 L494.7 178.0 495.85 168.25 Q493.45 171.5 490.95 173.75 485.25 179.05 477.8 182.05 470.3 185.0 462.1 185.0 453.85 185.0 446.3 182.05 438.85 179.05 433.15 173.75 427.5 168.55 424.05 161.25 420.65 153.9 420.65 145.45 L420.7 145.0 394.3 145.9 Q391.7 145.7 391.2 144.1 L390.2 132.45 389.8 131.45 Q389.2 130.4 388.15 130.4 L386.0 130.75 387.5 165.9 386.8 178.5 Q386.8 179.55 386.1 180.25 385.35 181.0 384.35 181.0 L352.95 181.3 Q351.95 181.3 351.25 180.6 350.55 179.9 350.5 178.9 L349.35 166.25 348.7 115.0 340.55 115.2 342.05 150.7 340.95 163.5 Q340.95 164.5 340.25 165.25 339.55 165.95 338.55 165.95 L304.8 166.4 Q303.85 166.4 303.1 165.7 302.4 165.0 302.35 164.0 L301.65 158.75 Q300.95 153.55 300.85 153.95 300.0 157.65 298.9 160.0 297.9 162.15 295.75 165.05 291.4 170.75 284.65 174.1 277.95 177.35 268.6 178.05 L265.55 178.2 260.5 177.8 256.15 176.95 258.75 192.45 257.85 204.5 Q257.95 205.5 257.2 206.3 256.55 207.05 255.5 207.05 L221.25 207.9 Q220.3 207.9 219.55 207.25 218.8 206.5 218.8 205.55 L217.7 192.45 218.05 174.85 Q215.15 179.6 211.25 183.2 205.65 188.55 198.15 191.5 190.6 194.45 182.4 194.45 174.15 194.45 166.65 191.5 159.1 188.5 153.45 183.2 147.15 177.4 144.4 170.7 140.85 162.1 139.4 153.05 L138.7 145.75 137.15 147.7 Q135.2 149.9 132.9 151.2 130.75 152.4 127.45 153.25 L121.85 154.5 132.85 182.45 131.65 194.85 Q131.9 195.85 131.35 196.7 130.85 197.6 129.85 197.8 L92.05 206.85 91.45 206.95 90.2 206.55 Q89.35 206.0 89.1 205.05 L63.6 93.0 Q63.2 91.35 63.0 85.4 62.75 78.7 63.6 78.5 67.25 77.6 75.65 81.7 84.15 85.8 87.65 85.0 L109.0 80.35 111.1 79.85 113.05 79.5 126.5 78.5 130.0 78.65 Q138.6 79.25 145.55 82.6 152.8 86.05 157.7 92.5 162.7 99.0 164.35 109.15 L164.65 112.45 164.5 115.9 163.95 119.3 163.9 119.45 166.65 118.2 Q174.1 115.2 182.4 115.2 190.8 115.2 198.15 118.25 205.5 121.15 211.25 126.5 214.4 129.45 217.1 133.4 L216.35 103.15 Q216.35 102.15 217.05 101.4 217.75 100.7 218.75 100.65 L249.85 99.75 Q250.85 99.75 251.55 100.4 252.25 101.1 252.3 102.1 L252.35 103.45 256.85 101.45 Q258.6 100.7 261.15 100.0 263.35 99.4 265.85 99.3 L268.3 99.2 273.7 99.7 Q277.05 100.3 280.95 101.8 284.0 103.0 286.35 104.5 L286.05 88.35 Q286.05 87.35 286.75 86.6 287.45 85.9 288.45 85.85 L300.65 85.5 300.0 52.0 Q299.95 51.0 300.7 50.25 301.4 49.5 302.4 49.5 L337.7 48.75 Q338.7 48.75 339.4 49.45 340.15 50.15 340.15 51.2 L340.35 84.25 354.3 83.9 Q355.4 83.9 356.05 84.65 356.75 85.35 356.75 86.45 L356.25 104.4 383.25 102.65 Q384.25 102.65 384.9 103.3 385.7 104.0 385.7 105.05 L385.75 108.75 Q388.8 107.15 391.6 106.25 397.1 104.55 402.6 104.55 413.9 104.55 420.4 110.5 425.95 115.5 426.85 124.65 429.65 120.25 433.1 117.05 438.85 111.75 446.3 108.75 453.95 105.7 462.1 105.7 470.25 105.7 477.8 108.75 485.3 111.8 490.95 117.05 494.0 119.95 496.1 122.95 L496.3 88.9 Q496.3 87.9 497.0 87.15 497.75 86.45 498.75 86.45 L529.8 86.45 Q530.8 86.45 531.55 87.15 532.25 87.9 532.25 88.9 L532.3 90.25 536.85 88.35 Q539.15 87.55 541.2 87.05 L545.9 86.5 547.45 86.45 553.75 87.15 Q557.6 88.0 560.9 89.45 566.15 91.7 570.15 95.35 573.9 98.8 576.45 103.45 578.9 107.9 580.2 113.1 581.15 117.2 581.55 121.6 L581.7 100.7 Q581.8 99.5 582.65 98.75 583.3 98.25 584.15 98.25 M597.1 54.0 Q600.8 51.45 605.2 50.5 L610.95 49.85 614.45 50.05 Q619.55 50.7 623.9 52.55 628.2 54.4 631.25 57.6 632.25 58.7 634.45 56.3 636.4 54.2 636.85 55.65 637.85 59.05 637.3 66.2 L636.25 75.5 Q635.6 80.55 632.65 84.25 629.95 87.75 625.9 89.9 622.1 91.95 617.45 92.8 L612.1 93.25 608.7 93.05 Q603.95 92.45 600.0 90.7 595.95 88.85 593.1 85.95 590.2 82.9 588.85 78.7 588.25 76.9 587.6 71.0 587.1 66.4 586.9 62.8 586.65 57.85 587.6 54.65 588.15 52.85 589.75 50.15 590.55 48.85 593.15 51.7 595.95 54.8 597.1 54.0 M722.85 166.35 Q724.1 167.45 725.85 168.1 727.65 168.85 729.95 169.3 L734.0 169.95 736.4 153.9 732.05 153.5 730.95 153.5 Q728.9 153.5 727.0 154.1 724.8 154.75 723.15 156.25 721.65 157.75 721.15 160.4 720.7 162.45 721.25 163.95 721.8 165.45 722.85 166.35 M728.0 121.75 L728.8 121.9 Q732.7 122.65 736.55 124.25 L740.65 126.1 740.9 124.4 Q741.05 123.35 741.9 122.75 742.5 122.3 743.3 122.3 L743.75 122.3 776.85 115.5 Q778.15 115.75 777.2 133.7 L766.7 204.3 Q766.55 205.3 765.65 205.95 L764.35 206.4 763.8 206.35 731.75 200.3 Q730.9 200.1 730.35 199.45 729.8 198.75 729.8 197.9 L725.9 198.25 724.35 198.25 715.45 197.3 Q711.95 196.55 709.2 195.4 L703.4 192.65 Q693.55 187.35 688.85 179.2 L688.75 179.9 Q689.0 181.9 688.75 183.0 688.2 185.5 685.55 187.2 682.85 188.9 678.85 189.6 L671.55 190.2 669.35 190.2 657.7 189.25 Q649.05 187.9 641.5 183.8 633.8 179.55 628.65 173.45 623.35 167.25 620.85 159.15 618.4 151.15 619.9 141.8 621.4 132.75 626.1 125.5 630.8 118.3 637.7 113.5 644.65 108.7 652.95 106.75 657.85 105.6 662.8 105.6 L670.3 106.25 Q674.2 106.9 678.05 108.25 682.15 109.65 685.8 111.65 689.65 113.75 692.85 116.3 696.15 118.95 698.5 122.1 699.55 123.5 698.55 125.0 L683.3 146.4 Q682.7 147.25 681.6 147.4 L681.3 147.4 Q680.4 147.4 679.7 146.8 677.45 144.85 674.7 143.4 671.8 142.0 669.0 141.55 L666.85 141.35 665.25 141.45 Q663.5 141.7 662.05 142.4 660.7 143.15 659.75 144.4 658.85 145.5 658.55 147.2 658.25 149.25 658.75 150.7 659.25 152.25 660.4 153.45 661.65 154.7 663.3 155.5 665.1 156.35 666.95 156.65 L670.2 157.0 672.05 157.05 677.4 156.7 680.65 156.2 681.1 156.15 682.55 156.6 Q683.4 157.2 683.55 158.3 L684.5 160.8 684.8 156.05 685.45 151.95 Q686.7 146.0 688.85 141.45 691.1 136.65 694.55 132.75 697.9 128.95 702.65 126.2 707.45 123.5 713.1 122.25 L720.45 121.3 721.1 121.25 728.0 121.75" fill="#5591ca" fill-rule="evenodd" stroke="none"/>
    <path d="M722.85 166.35 Q721.8 165.45 721.25 163.95 720.7 162.45 721.15 160.4 721.65 157.75 723.15 156.25 724.8 154.75 727.0 154.1 728.9 153.5 730.95 153.5 L732.05 153.5 736.4 153.9 734.0 169.95 729.95 169.3 Q727.65 168.85 725.85 168.1 724.1 167.45 722.85 166.35 M597.1 54.0 Q595.95 54.8 593.15 51.7 590.55 48.85 589.75 50.15 588.15 52.85 587.6 54.65 586.65 57.85 586.9 62.8 587.1 66.4 587.6 71.0 588.25 76.9 588.85 78.7 590.2 82.9 593.1 85.95 595.95 88.85 600.0 90.7 603.95 92.45 608.7 93.05 L612.1 93.25 617.45 92.8 Q622.1 91.95 625.9 89.9 629.95 87.75 632.65 84.25 635.6 80.55 636.25 75.5 L637.3 66.2 Q637.85 59.05 636.85 55.65 636.4 54.2 634.45 56.3 632.25 58.7 631.25 57.6 628.2 54.4 623.9 52.55 619.55 50.7 614.45 50.05 L610.95 49.85 605.2 50.5 Q600.8 51.45 597.1 54.0 M584.15 98.25 Q583.3 98.25 582.65 98.75 581.8 99.5 581.7 100.7 L581.55 121.6 Q581.15 117.2 580.2 113.1 578.9 107.9 576.45 103.45 573.9 98.8 570.15 95.35 566.15 91.7 560.9 89.45 557.6 88.0 553.75 87.15 L547.45 86.45 545.9 86.5 541.2 87.05 Q539.15 87.55 536.85 88.35 L532.3 90.25 532.25 88.9 Q532.25 87.9 531.55 87.15 530.8 86.45 529.8 86.45 L498.75 86.45 Q497.75 86.45 497.0 87.15 496.3 87.9 496.3 88.9 L496.1 122.95 Q494.0 119.95 490.95 117.05 485.3 111.8 477.8 108.75 470.25 105.7 462.1 105.7 453.95 105.7 446.3 108.75 438.85 111.75 433.1 117.05 429.65 120.25 426.85 124.65 425.95 115.5 420.4 110.5 413.9 104.55 402.6 104.55 397.1 104.55 391.6 106.25 388.8 107.15 385.75 108.75 L385.7 105.05 Q385.7 104.0 384.9 103.3 384.25 102.65 383.25 102.65 L356.25 104.4 356.75 86.45 Q356.75 85.35 356.05 84.65 355.4 83.9 354.3 83.9 L340.35 84.25 340.15 51.2 Q340.15 50.15 339.4 49.45 338.7 48.75 337.7 48.75 L302.4 49.5 Q301.4 49.5 300.7 50.25 299.95 51.0 300.0 52.0 L300.65 85.5 288.45 85.85 Q287.45 85.9 286.75 86.6 286.05 87.35 286.05 88.35 L286.35 104.5 Q284.0 103.0 280.95 101.8 277.05 100.3 273.7 99.7 L268.3 99.2 265.85 99.3 Q263.35 99.4 261.15 100.0 258.6 100.7 256.85 101.45 L252.35 103.45 252.3 102.1 Q252.25 101.1 251.55 100.4 250.85 99.75 249.85 99.75 L218.75 100.65 Q217.75 100.7 217.05 101.4 216.35 102.15 216.35 103.15 L217.1 133.4 Q214.4 129.45 211.25 126.5 205.5 121.15 198.15 118.25 190.8 115.2 182.4 115.2 174.1 115.2 166.65 118.2 L163.9 119.45 163.95 119.3 164.5 115.9 164.65 112.45 164.35 109.15 Q162.7 99.0 157.7 92.5 152.8 86.05 145.55 82.6 138.6 79.25 130.0 78.65 L126.5 78.5 113.05 79.5 111.1 79.85 109.0 80.35 87.65 85.0 Q84.15 85.8 75.65 81.7 67.25 77.6 63.6 78.5 62.75 78.7 63.0 85.4 63.2 91.35 63.6 93.0 L89.1 205.05 Q89.35 206.0 90.2 206.55 L91.45 206.95 92.05 206.85 129.85 197.8 Q130.85 197.6 131.35 196.7 131.9 195.85 131.65 194.85 L132.85 182.45 121.85 154.5 127.45 153.25 Q130.75 152.4 132.9 151.2 135.2 149.9 137.15 147.7 L138.7 145.75 139.4 153.05 Q140.85 162.1 144.4 170.7 147.15 177.4 153.45 183.2 159.1 188.5 166.65 191.5 174.15 194.45 182.4 194.45 190.6 194.45 198.15 191.5 205.65 188.55 211.25 183.2 215.15 179.6 218.05 174.85 L217.7 192.45 218.8 205.55 Q218.8 206.5 219.55 207.25 220.3 207.9 221.25 207.9 L255.5 207.05 Q256.55 207.05 257.2 206.3 257.95 205.5 257.85 204.5 L258.75 192.45 256.15 176.95 260.5 177.8 265.55 178.2 268.6 178.05 Q277.95 177.35 284.65 174.1 291.4 170.75 295.75 165.05 297.9 162.15 298.9 160.0 300.0 157.65 300.85 153.95 300.95 153.55 301.65 158.75 L302.35 164.0 Q302.4 165.0 303.1 165.7 303.85 166.4 304.8 166.4 L338.55 165.95 Q339.55 165.95 340.25 165.25 340.95 164.5 340.95 163.5 L342.05 150.7 340.55 115.2 348.7 115.0 349.35 166.25 350.5 178.9 Q350.55 179.9 351.25 180.6 351.95 181.3 352.95 181.3 L384.35 181.0 Q385.35 181.0 386.1 180.25 386.8 179.55 386.8 178.5 L387.5 165.9 386.0 130.75 388.15 130.4 Q389.2 130.4 389.8 131.45 L390.2 132.45 391.2 144.1 Q391.7 145.7 394.3 145.9 L420.7 145.0 420.65 145.45 Q420.65 153.9 424.05 161.25 427.5 168.55 433.15 173.75 438.85 179.05 446.3 182.05 453.85 185.0 462.1 185.0 470.3 185.0 477.8 182.05 485.25 179.05 490.95 173.75 493.45 171.5 495.85 168.25 L494.7 178.0 495.7 191.3 Q495.7 192.25 496.4 193.05 497.1 193.75 498.15 193.75 L532.35 193.9 Q533.35 193.9 534.05 193.2 534.85 192.4 534.75 191.4 L535.9 178.75 533.85 163.8 538.2 164.85 544.55 165.35 546.3 165.35 Q555.8 164.9 562.4 161.8 569.4 158.65 573.8 153.1 578.2 147.65 580.15 140.05 581.1 136.3 581.45 132.5 L580.15 152.85 581.2 166.0 Q581.15 166.95 581.85 167.7 582.5 168.4 583.5 168.45 L613.4 170.1 Q614.3 170.1 615.0 169.5 615.7 168.9 615.8 167.95 L621.7 120.75 Q622.65 107.7 621.45 107.35 L584.75 98.3 584.15 98.25 M545.1 121.2 Q546.4 122.95 546.55 126.05 546.65 128.25 546.0 129.5 545.45 130.8 544.25 131.65 543.05 132.55 541.3 133.0 L537.2 133.6 533.2 133.6 532.75 116.35 536.3 116.7 Q539.2 117.1 541.5 118.2 543.7 119.3 545.1 121.2 M455.3 142.35 Q456.0 140.85 457.1 139.8 458.35 138.65 459.9 138.05 461.35 137.4 463.15 137.4 464.9 137.4 466.35 138.05 467.85 138.6 469.1 139.8 470.2 140.85 470.95 142.4 471.6 143.7 471.6 145.45 471.6 147.15 470.95 148.5 470.2 150.05 469.05 151.1 468.0 152.15 466.35 152.85 L463.15 153.5 Q461.4 153.5 459.9 152.85 458.25 152.15 457.1 151.1 455.9 149.9 455.3 148.55 454.65 147.2 454.65 145.45 454.65 143.7 455.3 142.35 M186.7 147.5 Q188.35 148.2 189.4 149.25 190.65 150.4 191.25 151.85 191.95 153.35 191.95 154.95 191.95 156.5 191.25 158.0 190.6 159.4 189.4 160.55 188.3 161.65 186.7 162.3 185.25 162.95 183.5 162.95 181.65 162.95 180.2 162.3 178.75 161.75 177.4 160.55 176.2 159.35 175.6 158.0 174.95 156.45 174.95 154.95 174.95 153.35 175.6 151.8 176.3 150.4 177.4 149.25 178.65 148.15 180.2 147.5 181.7 146.85 183.5 146.85 185.2 146.85 186.7 147.5 M300.95 124.85 Q299.7 120.4 297.55 116.5 L301.3 116.4 301.55 127.35 300.95 124.85 M254.55 146.75 L253.65 129.55 257.2 129.75 Q260.1 130.05 262.45 131.15 264.6 132.1 266.1 134.0 267.5 135.75 267.7 138.75 267.85 140.9 267.25 142.25 266.65 143.65 265.55 144.5 264.25 145.5 262.65 145.9 L258.55 146.65 254.55 146.75 M126.4 120.7 Q125.45 123.05 123.7 124.8 121.9 126.6 119.35 128.0 L116.7 129.3 112.05 109.55 115.35 109.3 115.8 109.3 119.25 109.7 Q121.1 110.15 122.65 111.05 124.2 112.0 125.45 113.7 L126.3 114.85 126.7 116.1 Q127.2 118.6 126.4 120.7" fill="none" stroke="#5591ca" stroke-linecap="butt" stroke-linejoin="miter-clip" stroke-miterlimit="4.0" stroke-width="1.7000000000000002"/>
    <path d="M728.0 121.75 L721.1 121.25 720.45 121.3 713.1 122.25 Q707.45 123.5 702.65 126.2 697.9 128.95 694.55 132.75 691.1 136.65 688.85 141.45 686.7 146.0 685.45 151.95 L684.8 156.05 684.5 160.8 M692.85 116.3 Q689.65 113.75 685.8 111.65 682.15 109.65 678.05 108.25 674.2 106.9 670.3 106.25 L662.8 105.6 Q657.85 105.6 652.95 106.75 644.65 108.7 637.7 113.5 630.8 118.3 626.1 125.5 621.4 132.75 619.9 141.8 618.4 151.15 620.85 159.15 623.35 167.25 628.65 173.45 633.8 179.55 641.5 183.8 649.05 187.9 657.7 189.25 L669.35 190.2 671.55 190.2 678.85 189.6 Q682.85 188.9 685.55 187.2 688.2 185.5 688.75 183.0 689.0 181.9 688.75 179.9 L688.85 179.2" fill="none" stroke="#5591ca" stroke-linecap="butt" stroke-linejoin="miter-clip" stroke-miterlimit="4.0" stroke-width="1.7000000000000002"/>
    <path d="M684.5 160.8 L689.45 173.8 688.85 179.2 687.95 177.55 Q684.35 170.2 684.5 160.8" fill="none" stroke="#5591ca" stroke-linecap="round" stroke-linejoin="miter-clip" stroke-miterlimit="4.0" stroke-width="1.7000000000000002"/>
    <path d="M688.85 179.2 Q693.55 187.35 703.4 192.65 L709.2 195.4 Q711.95 196.55 715.45 197.3 L724.35 198.25 725.9 198.25 729.8 197.9 Q729.8 198.75 730.35 199.45 730.9 200.1 731.75 200.3 L763.8 206.35 764.35 206.4 765.65 205.95 Q766.55 205.3 766.7 204.3 L777.2 133.7 Q778.15 115.75 776.85 115.5 L743.75 122.3 743.3 122.3 Q742.5 122.3 741.9 122.75 741.05 123.35 740.9 124.4 L740.65 126.1 736.55 124.25 Q732.7 122.65 728.8 121.9 L728.0 121.75 M684.5 160.8 L683.55 158.3 Q683.4 157.2 682.55 156.6 L681.1 156.15 680.65 156.2 677.4 156.7 672.05 157.05 670.2 157.0 666.95 156.65 Q665.1 156.35 663.3 155.5 661.65 154.7 660.4 153.45 659.25 152.25 658.75 150.7 658.25 149.25 658.55 147.2 658.85 145.5 659.75 144.4 660.7 143.15 662.05 142.4 663.5 141.7 665.25 141.45 L666.85 141.35 669.0 141.55 Q671.8 142.0 674.7 143.4 677.45 144.85 679.7 146.8 680.4 147.4 681.3 147.4 L681.6 147.4 Q682.7 147.25 683.3 146.4 L698.55 125.0 Q699.55 123.5 698.5 122.1 696.15 118.95 692.85 116.3" fill="none" stroke="#5591ca" stroke-linecap="round" stroke-linejoin="miter-clip" stroke-miterlimit="4.0" stroke-width="1.7000000000000002"/>
  </g>
</svg>
