<?xml version="1.0" encoding="UTF-8" standalone="no"?>
<svg xmlns:ffdec="https://www.free-decompiler.com/flash" xmlns:xlink="http://www.w3.org/1999/xlink" ffdec:objectType="shape" height="128.15px" width="100.3px" xmlns="http://www.w3.org/2000/svg">
  <g transform="matrix(1.0, 0.0, 0.0, 1.0, -64.35, -50.35)">
    <path d="M163.2 94.15 Q160.95 101.65 156.25 107.25 151.75 112.65 145.7 116.65 140.0 120.4 132.9 123.0 127.6 124.95 121.85 126.3 L131.65 166.7 Q131.9 167.7 131.35 168.55 130.8 169.45 129.85 169.65 L92.95 178.4 92.35 178.5 Q91.55 178.4 91.1 178.1 90.25 177.55 90.0 176.6 L64.4 64.8 Q64.2 63.85 64.7 62.95 65.25 62.1 66.2 61.85 L87.65 56.85 109.0 52.15 111.1 51.7 113.05 51.35 Q119.95 50.2 126.5 50.35 L130.0 50.5 Q138.35 51.0 145.55 54.4 152.6 57.75 157.7 64.3 162.7 70.8 164.35 80.95 L164.65 84.25 164.5 87.7 163.9 91.15 163.2 94.15 M112.05 81.35 L116.7 101.15 119.35 99.85 Q121.75 98.55 123.7 96.6 125.45 94.85 126.4 92.5 127.2 90.5 126.7 87.95 L126.3 86.65 125.45 85.5 Q124.05 83.7 122.65 82.9 121.1 81.95 119.25 81.55 L115.8 81.15 115.35 81.15 112.05 81.35" fill="#ff0000" fill-rule="evenodd" stroke="none"/>
  </g>
</svg>
