<?xml version="1.0" encoding="UTF-8" standalone="no"?>
<svg xmlns:ffdec="https://www.free-decompiler.com/flash" xmlns:xlink="http://www.w3.org/1999/xlink" ffdec:objectType="shape" height="79.3px" width="82.75px" xmlns="http://www.w3.org/2000/svg">
  <g transform="matrix(1.0, 0.0, 0.0, 1.0, -39.65, -41.4)">
    <path d="M96.8 44.45 Q104.45 47.55 109.95 52.75 115.6 58.0 119.0 65.3 122.4 72.65 122.4 81.15 122.4 89.65 119.0 96.9 115.65 104.05 109.95 109.45 104.35 114.7 96.8 117.7 89.4 120.7 81.1 120.7 72.8 120.7 65.3 117.7 57.75 114.7 52.15 109.45 46.45 104.1 43.05 96.9 39.65 89.55 39.65 81.15 39.65 72.65 43.05 65.3 46.45 58.0 52.1 52.75 57.7 47.5 65.3 44.45 72.75 41.4 81.1 41.4 89.45 41.4 96.8 44.45 M82.15 73.05 Q80.55 73.05 78.9 73.7 77.3 74.4 76.1 75.5 75.0 76.55 74.3 78.0 73.65 79.35 73.65 81.15 73.65 82.85 74.3 84.2 75.0 85.7 76.1 86.75 77.35 87.9 78.9 88.55 80.5 89.15 82.15 89.15 83.85 89.15 85.35 88.55 86.9 87.9 88.05 86.8 89.2 85.75 89.95 84.2 90.6 82.75 90.6 81.15 90.6 79.4 89.95 78.05 89.2 76.55 88.1 75.45 86.8 74.35 85.35 73.7 83.75 73.05 82.15 73.05" fill="#ff0000" fill-rule="evenodd" stroke="none"/>
  </g>
</svg>
