<?xml version="1.0" encoding="UTF-8" standalone="no"?>
<svg xmlns:ffdec="https://www.free-decompiler.com/flash" xmlns:xlink="http://www.w3.org/1999/xlink" ffdec:objectType="shape" height="207.4px" width="366.65px" xmlns="http://www.w3.org/2000/svg">
  <g transform="matrix(1.0, 0.0, 0.0, 1.0, 365.8, 101.25)">
    <path d="M-8.15 -100.25 Q-4.8 -100.25 -2.5 -97.9 -0.15 -95.6 -0.15 -92.25 L-0.15 97.05 Q-0.15 100.4 -2.5 102.7 -4.8 105.05 -8.15 105.05 L-356.8 105.05 Q-360.1 105.05 -362.45 102.7 -364.8 100.4 -364.8 97.05 L-364.8 -92.25 Q-364.8 -95.6 -362.45 -97.9 -360.1 -100.25 -356.8 -100.25 L-8.15 -100.25" fill="url(#gradient0)" fill-rule="evenodd" stroke="none"/>
    <path d="M-2.5 102.7 Q-4.8 105.05 -8.15 105.05 L-356.8 105.05 Q-360.1 105.05 -362.45 102.7 -364.8 100.4 -364.8 97.05 L-364.8 72.05 -0.15 72.05 -0.15 97.05 Q-0.15 100.4 -2.5 102.7" fill="url(#gradient1)" fill-rule="evenodd" stroke="none"/>
    <path d="M-1.65 -92.25 L-1.65 97.05 Q-1.65 99.75 -3.55 101.65 -5.45 103.55 -8.15 103.55 L-356.8 103.55 Q-359.5 103.55 -361.4 101.65 -363.3 99.75 -363.3 97.05 L-363.3 -92.25 Q-363.3 -94.95 -361.4 -96.85 -359.5 -98.75 -356.8 -98.75 L-8.15 -98.75 Q-5.45 -98.75 -3.55 -96.85 -1.65 -94.95 -1.65 -92.25 Z" fill="none" stroke="#ffffff" stroke-linecap="butt" stroke-linejoin="miter-clip" stroke-miterlimit="10.0" stroke-opacity="0.2" stroke-width="1.5"/>
    <path d="M-0.3 -70.25 L-0.3 -66.05 -364.65 -66.05 -364.65 -70.25 -0.3 -70.25" fill="url(#gradient2)" fill-rule="evenodd" stroke="none"/>
    <path d="M-0.15 -92.25 L-0.15 -69.95 -364.8 -69.95 -364.8 -92.25 Q-364.8 -95.6 -362.45 -97.9 -360.1 -100.25 -356.8 -100.25 L-8.15 -100.25 Q-4.8 -100.25 -2.5 -97.9 -0.15 -95.6 -0.15 -92.25" fill="#2959c2" fill-rule="evenodd" stroke="none"/>
    <path d="M-0.15 -92.25 Q-0.15 -95.6 -2.5 -97.9 -4.8 -100.25 -8.15 -100.25 L-356.8 -100.25 Q-360.1 -100.25 -362.45 -97.9 -364.8 -95.6 -364.8 -92.25 L-364.8 -69.95 -0.15 -69.95 -0.15 -92.25 Z" fill="none" stroke="#234da9" stroke-linecap="butt" stroke-linejoin="miter-clip" stroke-miterlimit="4.0" stroke-width="1.5"/>
    <path d="M-1.65 -71.45 L-363.3 -71.45" fill="none" stroke="#ffffff" stroke-linecap="butt" stroke-linejoin="miter-clip" stroke-miterlimit="10.0" stroke-opacity="0.14901961" stroke-width="1.5"/>
    <path d="M-199.15 -92.45 L-199.15 -76.95" fill="none" stroke="#ffffff" stroke-linecap="butt" stroke-linejoin="miter-clip" stroke-miterlimit="10.0" stroke-opacity="0.49803922" stroke-width="1.0"/>
    <path d="M-8.15 -100.25 L-356.8 -100.25 Q-360.1 -100.25 -362.45 -97.9 -364.8 -95.6 -364.8 -92.25 L-364.8 97.05 Q-364.8 100.4 -362.45 102.7 -360.1 105.05 -356.8 105.05 L-8.15 105.05 Q-4.8 105.05 -2.5 102.7 -0.15 100.4 -0.15 97.05 L-0.15 -92.25 Q-0.15 -95.6 -2.5 -97.9 -4.8 -100.25 -8.15 -100.25 Z" fill="none" stroke="#234da9" stroke-linecap="butt" stroke-linejoin="miter-clip" stroke-miterlimit="4.0" stroke-width="2.0"/>
    <path d="M-1.15 -87.95 L-363.8 -87.95 -363.8 -92.25 Q-363.8 -95.15 -361.75 -97.2 -359.7 -99.25 -356.8 -99.25 L-8.15 -99.25 Q-5.25 -99.25 -3.2 -97.2 -1.15 -95.15 -1.15 -92.25 L-1.15 -87.95" fill="url(#gradient3)" fill-rule="evenodd" stroke="none"/>
  </g>
  <defs>
    <linearGradient gradientTransform="matrix(0.2226, 0.0, 0.0, 0.1253, -182.5, 2.4)" gradientUnits="userSpaceOnUse" id="gradient0" spreadMethod="pad" x1="-819.2" x2="819.2">
      <stop offset="0.0" stop-color="#1670e6"/>
      <stop offset="0.4235294117647059" stop-color="#2d81fc"/>
      <stop offset="1.0" stop-color="#1670e6"/>
    </linearGradient>
    <linearGradient gradientTransform="matrix(0.0, 0.0354, 0.0285, 0.0, -179.45, 84.0)" gradientUnits="userSpaceOnUse" id="gradient1" spreadMethod="pad" x1="-819.2" x2="819.2">
      <stop offset="0.0" stop-color="#3695ff" stop-opacity="0.8"/>
      <stop offset="1.0" stop-color="#3695ff" stop-opacity="0.101960786"/>
    </linearGradient>
    <linearGradient gradientTransform="matrix(0.0, 0.003, 0.003, 0.0, -182.45, -67.6)" gradientUnits="userSpaceOnUse" id="gradient2" spreadMethod="pad" x1="-819.2" x2="819.2">
      <stop offset="0.0" stop-color="#000000" stop-opacity="0.14901961"/>
      <stop offset="1.0" stop-color="#000000" stop-opacity="0.0"/>
    </linearGradient>
    <linearGradient gradientTransform="matrix(0.0, 0.0084, 0.0084, 0.0, -182.45, -92.6)" gradientUnits="userSpaceOnUse" id="gradient3" spreadMethod="pad" x1="-819.2" x2="819.2">
      <stop offset="0.0" stop-color="#ffffff" stop-opacity="0.2"/>
      <stop offset="1.0" stop-color="#ffffff" stop-opacity="0.0"/>
    </linearGradient>
  </defs>
</svg>
