<?xml version="1.0" encoding="UTF-8" standalone="no"?>
<svg xmlns:ffdec="https://www.free-decompiler.com/flash" xmlns:xlink="http://www.w3.org/1999/xlink" ffdec:objectType="shape" height="83.0px" width="86.45px" xmlns="http://www.w3.org/2000/svg">
  <g transform="matrix(1.0, 0.0, 0.0, 1.0, -418.8, -90.5)">
    <path d="M500.0 147.85 Q496.6 155.05 490.95 160.35 485.4 165.6 477.8 168.65 470.4 171.65 462.1 171.65 453.8 171.65 446.3 168.65 438.7 165.6 433.15 160.35 427.45 155.1 424.05 147.85 420.65 140.5 420.65 132.1 420.65 123.6 424.05 116.25 427.45 108.95 433.1 103.7 438.7 98.45 446.3 95.4 453.75 92.35 462.1 92.35 470.45 92.35 477.8 95.4 485.45 98.5 490.95 103.7 496.6 108.95 500.0 116.25 503.4 123.6 503.4 132.1 503.4 140.6 500.0 147.85 M459.9 124.65 Q458.3 125.35 457.1 126.45 456.0 127.5 455.3 128.95 454.65 130.3 454.65 132.1 454.65 133.8 455.3 135.15 456.0 136.65 457.1 137.7 458.35 138.85 459.9 139.5 461.5 140.1 463.15 140.1 L466.35 139.5 Q467.9 138.85 469.05 137.75 470.2 136.7 470.95 135.15 471.6 133.7 471.6 132.1 471.6 130.35 470.95 129.0 470.2 127.5 469.1 126.4 467.8 125.3 466.35 124.65 464.75 124.0 463.15 124.0 461.55 124.0 459.9 124.65 Z" fill="none" stroke="#7ebae3" stroke-linecap="butt" stroke-linejoin="miter-clip" stroke-miterlimit="4.0" stroke-width="3.7"/>
  </g>
</svg>
