<?xml version="1.0" encoding="UTF-8" standalone="no"?>
<svg xmlns:ffdec="https://www.free-decompiler.com/flash" xmlns:xlink="http://www.w3.org/1999/xlink" ffdec:objectType="shape" height="108.75px" width="86.55px" xmlns="http://www.w3.org/2000/svg">
  <g transform="matrix(1.0, 0.0, 0.0, 1.0, -54.4, -43.4)">
    <path d="M89.6 44.65 Q90.3 45.35 90.35 46.3 L90.4 47.7 90.85 47.45 94.9 45.65 Q97.15 44.75 99.2 44.2 L103.9 43.5 106.35 43.4 111.75 43.9 Q115.55 44.65 119.0 46.05 124.35 48.1 128.4 51.6 132.35 55.1 134.95 59.55 137.45 63.75 139.0 69.1 140.45 74.3 140.75 79.55 141.45 88.7 139.75 96.0 138.0 103.7 133.8 109.25 129.45 114.95 122.7 118.3 115.9 121.6 106.65 122.3 L103.6 122.4 98.55 122.05 94.2 121.15 95.9 148.7 Q96.0 149.7 95.25 150.5 94.55 151.3 93.55 151.3 L59.3 152.15 Q58.3 152.15 57.6 151.45 56.85 150.8 56.85 149.75 L54.4 47.4 Q54.4 46.4 55.1 45.65 55.8 44.9 56.8 44.9 L87.9 43.95 Q88.9 43.95 89.6 44.65 M91.7 73.75 L92.6 90.95 93.3 91.0 96.6 90.85 100.7 90.15 Q102.5 89.6 103.6 88.7 104.7 87.8 105.3 86.5 105.9 85.15 105.75 83.0 105.5 79.95 104.15 78.2 102.65 76.3 100.5 75.35 97.9 74.2 95.25 74.0 L91.7 73.75" fill="#ff0000" fill-rule="evenodd" stroke="none"/>
  </g>
</svg>
