<?xml version="1.0" encoding="UTF-8" standalone="no"?>
<svg xmlns:ffdec="https://www.free-decompiler.com/flash" xmlns:xlink="http://www.w3.org/1999/xlink" ffdec:objectType="shape" height="113.3px" width="90.25px" xmlns="http://www.w3.org/2000/svg">
  <g transform="matrix(1.0, 0.0, 0.0, 1.0, -214.5, -83.1)">
    <path d="M251.55 87.05 Q252.25 87.75 252.3 88.7 L252.35 90.1 252.8 89.85 256.85 88.05 261.15 86.6 265.85 85.9 268.3 85.8 273.7 86.3 Q277.5 87.05 280.95 88.45 286.3 90.5 290.35 94.0 294.3 97.5 296.9 101.95 299.4 106.15 300.95 111.5 302.4 116.7 302.7 121.95 303.4 131.1 301.7 138.4 299.95 146.1 295.75 151.65 291.4 157.35 284.65 160.7 277.85 164.0 268.6 164.7 L265.55 164.8 260.5 164.45 256.15 163.55 257.85 191.1 Q257.95 192.1 257.2 192.9 256.5 193.7 255.5 193.7 L221.25 194.55 Q220.25 194.55 219.55 193.85 218.8 193.2 218.8 192.15 L216.35 89.8 Q216.35 88.8 217.05 88.05 217.75 87.3 218.75 87.3 L249.85 86.35 Q250.85 86.35 251.55 87.05 M253.65 116.15 L254.55 133.35 255.25 133.4 258.55 133.25 262.65 132.55 Q264.45 132.0 265.55 131.1 266.65 130.2 267.25 128.9 267.85 127.55 267.7 125.4 267.45 122.35 266.1 120.6 264.6 118.7 262.45 117.75 259.85 116.6 257.2 116.4 L253.65 116.15 Z" fill="none" stroke="#7ebae3" stroke-linecap="butt" stroke-linejoin="miter-clip" stroke-miterlimit="4.0" stroke-width="3.7"/>
  </g>
</svg>
