<?xml version="1.0" encoding="UTF-8" standalone="no"?>
<svg xmlns:ffdec="https://www.free-decompiler.com/flash" xmlns:xlink="http://www.w3.org/1999/xlink" ffdec:objectType="shape" height="117.6px" width="70.7px" xmlns="http://www.w3.org/2000/svg">
  <g transform="matrix(1.0, 0.0, 0.0, 1.0, -58.85, -35.4)">
    <path d="M112.95 37.8 L113.15 70.9 127.1 70.55 Q128.15 70.55 128.85 71.25 129.55 72.05 129.55 73.05 L128.85 99.1 Q128.8 100.1 128.1 100.75 127.45 101.45 126.45 101.5 L113.35 101.85 113.75 150.1 Q113.75 151.1 113.05 151.85 112.35 152.55 111.35 152.55 L77.6 153.0 Q76.6 153.0 75.9 152.3 75.2 151.6 75.15 150.6 L74.1 103.0 61.8 103.35 Q60.85 103.35 60.1 102.7 59.35 101.95 59.35 100.95 L58.85 75.0 Q58.85 74.0 59.55 73.25 60.25 72.5 61.25 72.5 L73.45 72.1 72.8 38.6 Q72.75 37.6 73.5 36.85 74.2 36.15 75.2 36.1 L110.5 35.4 Q111.5 35.4 112.2 36.1 112.95 36.8 112.95 37.8" fill="#ff0000" fill-rule="evenodd" stroke="none"/>
  </g>
</svg>
