<?xml version="1.0" encoding="UTF-8" standalone="no"?>
<svg xmlns:ffdec="https://www.free-decompiler.com/flash" xmlns:xlink="http://www.w3.org/1999/xlink" ffdec:objectType="shape" height="31.35px" width="41.75px" xmlns="http://www.w3.org/2000/svg">
  <g transform="matrix(1.0, 0.0, 0.0, 1.0, 0.0, 0.0)">
    <path d="M35.25 1.05 Q37.15 1.1 38.4 2.55 39.65 4.0 39.65 5.95 L39.55 6.8 Q41.75 9.0 41.75 11.55 41.75 15.25 37.8 17.75 34.15 20.05 29.05 20.05 L28.35 20.05 28.6 21.85 Q28.6 23.9 27.4 25.75 26.25 27.5 24.2 28.75 20.1 31.35 14.3 31.35 8.55 31.35 4.45 28.75 2.4 27.5 1.25 25.75 0.0 23.9 0.0 21.85 0.0 18.65 2.95 16.05 L2.85 15.3 2.85 14.7 Q3.0 12.2 4.95 10.5 6.9 8.8 9.5 8.8 11.45 8.8 13.1 9.8 14.7 10.75 15.55 12.4 L16.45 12.5 16.4 11.55 Q16.4 8.85 18.55 6.8 L18.55 6.7 18.95 6.4 18.85 5.6 Q18.9 3.25 20.65 1.6 22.4 0.0 24.85 0.0 26.6 0.0 28.05 0.85 29.5 1.7 30.25 3.15 L31.55 3.25 Q32.8 1.05 35.25 1.05" fill="#000000" fill-rule="evenodd" stroke="none"/>
  </g>
</svg>
