<?xml version="1.0" encoding="UTF-8" standalone="no"?>
<svg xmlns:ffdec="https://www.free-decompiler.com/flash" xmlns:xlink="http://www.w3.org/1999/xlink" ffdec:objectType="shape" height="127.1px" width="74.4px" xmlns="http://www.w3.org/2000/svg">
  <g transform="matrix(1.0, 0.0, 0.0, 1.0, -284.2, -30.4)">
    <path d="M340.15 37.8 L340.35 70.9 354.3 70.55 Q355.35 70.55 356.05 71.25 356.75 72.05 356.75 73.05 L356.05 99.1 Q356.0 100.1 355.3 100.75 354.65 101.45 353.65 101.5 L340.55 101.85 340.95 150.1 Q340.95 151.1 340.25 151.85 339.55 152.55 338.55 152.55 L304.8 153.0 Q303.8 153.0 303.1 152.3 302.4 151.6 302.35 150.6 L301.3 103.0 289.0 103.35 Q288.05 103.35 287.3 102.7 286.55 101.95 286.55 100.95 L286.05 75.0 Q286.05 74.0 286.75 73.25 287.45 72.5 288.45 72.5 L300.65 72.1 300.0 38.6 Q299.95 37.6 300.7 36.85 301.4 36.15 302.4 36.1 L337.7 35.4 Q338.7 35.4 339.4 36.1 340.15 36.8 340.15 37.8 Z" fill="none" stroke="#7ebae3" stroke-linecap="butt" stroke-linejoin="miter-clip" stroke-miterlimit="4.0" stroke-width="3.7"/>
  </g>
</svg>
