<?xml version="1.0" encoding="UTF-8" standalone="no"?>
<svg xmlns:ffdec="https://www.free-decompiler.com/flash" xmlns:xlink="http://www.w3.org/1999/xlink" ffdec:objectType="shape" height="78.65px" width="78.55px" xmlns="http://www.w3.org/2000/svg">
  <g transform="matrix(1.0, 0.0, 0.0, 1.0, -39.4, -39.3)">
    <path d="M111.3 47.2 Q117.95 53.2 117.95 64.9 L117.8 72.15 117.55 78.95 Q117.5 79.95 116.8 80.7 116.1 81.55 115.15 81.55 L85.2 82.55 Q84.1 82.55 83.4 81.8 82.65 81.0 82.75 79.85 L83.35 75.9 83.6 72.35 Q83.6 69.9 82.2 68.35 L80.9 67.35 79.05 67.05 76.9 67.45 77.7 115.15 Q77.7 116.15 77.0 116.95 76.3 117.65 75.25 117.65 L43.85 117.95 Q42.85 117.95 42.15 117.25 41.45 116.55 41.4 115.55 L39.4 43.9 Q39.35 42.95 40.0 42.2 40.65 41.5 41.65 41.4 L74.15 39.3 Q75.05 39.3 75.8 39.95 76.6 40.65 76.6 41.7 L76.65 45.45 Q79.95 43.7 82.5 42.95 87.75 41.25 93.5 41.25 104.8 41.25 111.3 47.2" fill="#ff0000" fill-rule="evenodd" stroke="none"/>
  </g>
</svg>
