<?xml version="1.0" encoding="UTF-8" standalone="no"?>
<svg xmlns:ffdec="https://www.free-decompiler.com/flash" xmlns:xlink="http://www.w3.org/1999/xlink" ffdec:objectType="shape" height="86.05px" width="83.4px" xmlns="http://www.w3.org/2000/svg">
  <g transform="matrix(1.0, 0.0, 0.0, 1.0, -345.5, -83.7)">
    <path d="M350.75 91.35 L383.25 89.25 Q384.15 89.25 384.9 89.9 385.7 90.6 385.7 91.65 L385.75 95.4 Q389.05 93.65 391.6 92.9 396.85 91.2 402.6 91.2 413.9 91.2 420.4 97.15 427.05 103.2 427.05 114.85 L426.9 122.1 426.65 128.9 Q426.6 129.9 425.9 130.65 425.2 131.5 424.25 131.5 L394.3 132.5 Q393.2 132.5 392.5 131.75 391.75 130.95 391.85 129.8 L392.45 125.85 392.7 122.3 Q392.7 119.85 391.3 118.35 L390.0 117.3 388.15 117.0 386.0 117.4 386.8 165.1 Q386.8 166.15 386.1 166.85 385.45 167.6 384.35 167.6 L352.95 167.9 Q351.95 167.9 351.25 167.2 350.55 166.55 350.5 165.55 L348.5 93.85 Q348.45 92.9 349.1 92.15 349.75 91.45 350.75 91.35 Z" fill="none" stroke="#7ebae3" stroke-linecap="butt" stroke-linejoin="miter-clip" stroke-miterlimit="4.0" stroke-width="3.7"/>
  </g>
</svg>
