<?xml version="1.0" encoding="UTF-8" standalone="no"?>
<svg xmlns:ffdec="https://www.free-decompiler.com/flash" xmlns:xlink="http://www.w3.org/1999/xlink" ffdec:objectType="shape" height="107.5px" width="86.05px" xmlns="http://www.w3.org/2000/svg">
  <g transform="matrix(1.0, 0.0, 0.0, 1.0, -53.75, -43.1)">
    <path d="M89.6 43.85 Q90.3 44.55 90.3 45.55 L90.35 46.95 90.8 46.7 94.9 45.05 99.25 43.75 103.95 43.15 105.5 43.1 111.8 43.8 Q115.4 44.6 118.95 46.15 124.3 48.4 128.2 52.0 132.05 55.65 134.5 60.15 136.95 64.55 138.25 69.8 139.55 75.2 139.75 80.3 140.15 89.4 138.2 96.7 136.25 104.25 131.85 109.8 127.35 115.4 120.45 118.5 113.6 121.65 104.35 122.0 L102.6 122.05 96.25 121.5 91.9 120.5 92.8 148.05 Q92.9 149.15 92.1 149.85 91.35 150.6 90.4 150.6 L56.2 150.45 Q55.2 150.45 54.45 149.7 53.75 149.0 53.75 147.95 L54.35 45.55 Q54.35 44.55 55.05 43.85 55.8 43.15 56.8 43.15 L87.85 43.15 Q88.85 43.15 89.6 43.85 M90.8 73.05 L91.25 90.25 92.15 90.3 95.25 90.3 99.35 89.7 Q101.15 89.25 102.3 88.3 103.45 87.55 104.05 86.15 104.7 84.95 104.6 82.7 104.45 79.6 103.15 77.85 101.65 75.9 99.55 74.9 97.1 73.7 94.35 73.35 L90.8 73.05" fill="#ff0000" fill-rule="evenodd" stroke="none"/>
  </g>
</svg>
