<?xml version="1.0" encoding="UTF-8" standalone="no"?>
<svg xmlns:ffdec="https://www.free-decompiler.com/flash" xmlns:xlink="http://www.w3.org/1999/xlink" ffdec:objectType="shape" height="111.2px" width="89.75px" xmlns="http://www.w3.org/2000/svg">
  <g transform="matrix(1.0, 0.0, 0.0, 1.0, -493.85, -71.2)">
    <path d="M576.45 90.1 Q578.9 94.5 580.2 99.75 581.5 105.15 581.7 110.25 582.1 119.35 580.15 126.65 578.2 134.2 573.8 139.75 569.3 145.35 562.4 148.45 555.55 151.6 546.3 151.95 L544.55 152.0 538.2 151.45 533.85 150.45 534.75 178.0 Q534.85 179.1 534.05 179.8 533.3 180.55 532.35 180.55 L498.15 180.4 Q497.15 180.4 496.4 179.65 495.7 178.95 495.7 177.9 L496.3 75.5 Q496.3 74.5 497.0 73.8 497.75 73.1 498.75 73.1 L529.8 73.1 Q530.8 73.1 531.55 73.8 532.25 74.5 532.25 75.5 L532.3 76.9 532.75 76.65 536.85 75.0 Q539.15 74.2 541.2 73.7 L545.9 73.1 547.45 73.05 553.75 73.75 Q557.35 74.55 560.9 76.1 566.25 78.35 570.15 81.95 574.0 85.6 576.45 90.1 M541.5 104.85 Q539.05 103.65 536.3 103.3 L532.75 103.0 533.2 120.2 534.1 120.25 537.2 120.25 541.3 119.65 Q543.1 119.2 544.25 118.25 545.4 117.5 546.0 116.1 546.65 114.9 546.55 112.65 546.4 109.55 545.1 107.8 543.6 105.85 541.5 104.85 Z" fill="none" stroke="#7ebae3" stroke-linecap="butt" stroke-linejoin="miter-clip" stroke-miterlimit="4.0" stroke-width="3.7"/>
  </g>
</svg>
