<?xml version="1.0" encoding="UTF-8" standalone="no"?>
<svg xmlns:ffdec="https://www.free-decompiler.com/flash" xmlns:xlink="http://www.w3.org/1999/xlink" ffdec:objectType="shape" height="84.6px" width="79.65px" xmlns="http://www.w3.org/2000/svg">
  <g transform="matrix(1.0, 0.0, 0.0, 1.0, -42.75, -40.15)">
    <path d="M109.2 46.2 Q112.95 48.2 116.25 50.8 119.6 53.45 121.9 56.65 122.4 57.3 122.4 58.1 L121.95 59.5 106.7 80.9 Q106.1 81.8 105.0 81.9 L104.7 81.95 Q103.85 81.95 103.1 81.35 101.05 79.5 98.1 77.95 95.5 76.65 92.4 76.05 L90.25 75.9 88.65 76.0 Q87.1 76.15 85.45 76.95 84.15 77.7 83.15 78.9 82.25 80.05 81.95 81.75 81.65 83.75 82.15 85.2 82.65 86.75 83.8 87.95 85.05 89.3 86.7 90.0 88.45 90.85 90.35 91.2 L93.6 91.5 100.8 91.25 104.0 90.75 104.5 90.7 Q105.3 90.7 105.95 91.15 106.8 91.75 106.95 92.8 L110.5 119.6 Q110.6 120.5 110.15 121.2 109.7 121.95 108.85 122.2 102.1 124.55 94.9 124.7 L92.75 124.75 81.1 123.8 Q72.4 122.35 64.9 118.3 57.4 114.25 52.0 108.0 46.75 101.75 44.25 93.7 41.8 85.7 43.3 76.35 44.8 67.4 49.5 60.0 54.3 52.75 61.1 48.0 67.85 43.3 76.35 41.25 81.05 40.15 86.2 40.15 L93.7 40.75 Q97.2 41.3 101.45 42.75 105.7 44.3 109.2 46.2" fill="#ff0000" fill-rule="evenodd" stroke="none"/>
  </g>
</svg>
