<?xml version="1.0" encoding="UTF-8" standalone="no"?>
<svg xmlns:ffdec="https://www.free-decompiler.com/flash" xmlns:xlink="http://www.w3.org/1999/xlink" ffdec:objectType="shape" height="35.95px" width="43.15px" xmlns="http://www.w3.org/2000/svg">
  <g transform="matrix(1.0, 0.0, 0.0, 1.0, 355.8, 110.15)">
    <path d="M-317.65 -102.85 Q-316.75 -101.8 -316.75 -100.3 L-317.0 -99.0 -316.45 -98.55 Q-314.65 -96.75 -314.65 -94.7 -314.65 -91.75 -318.0 -89.6 -321.35 -87.5 -326.05 -87.5 L-328.95 -87.75 Q-327.8 -86.2 -327.8 -84.4 -327.8 -81.0 -331.6 -78.6 -335.4 -76.2 -340.8 -76.2 -346.2 -76.2 -350.0 -78.6 -353.8 -81.0 -353.8 -84.4 -353.8 -87.45 -350.7 -89.7 L-350.95 -91.0 -350.95 -91.5 Q-350.85 -93.45 -349.3 -94.8 -347.75 -96.15 -345.6 -96.15 -343.8 -96.15 -342.35 -95.15 -340.95 -94.15 -340.45 -92.6 L-337.65 -92.35 -337.05 -92.25 -336.95 -92.6 Q-337.45 -93.7 -337.45 -94.7 -337.45 -97.0 -335.25 -98.9 L-335.25 -98.95 -334.75 -99.35 -334.95 -100.65 Q-334.95 -102.45 -333.55 -103.7 -332.2 -105.0 -330.25 -105.0 -328.65 -105.0 -327.4 -104.1 -326.15 -103.2 -325.75 -101.85 L-325.05 -101.85 -322.8 -101.6 Q-322.45 -102.65 -321.65 -103.3 -320.85 -103.95 -319.9 -103.95 -318.6 -103.95 -317.65 -102.85 Z" fill="none" stroke="#234da9" stroke-linecap="butt" stroke-linejoin="miter-clip" stroke-miterlimit="4.0" stroke-width="4.0"/>
    <path d="M-318.0 -99.8 Q-314.65 -97.65 -314.65 -94.7 -314.65 -91.75 -318.0 -89.6 -321.35 -87.5 -326.05 -87.5 -330.75 -87.5 -334.1 -89.6 -337.45 -91.75 -337.45 -94.7 -337.45 -97.65 -334.1 -99.8 -330.75 -101.9 -326.05 -101.9 -321.35 -101.9 -318.0 -99.8" fill="#e87828" fill-rule="evenodd" stroke="none"/>
  </g>
</svg>
