<?xml version="1.0" encoding="UTF-8" standalone="no"?>
<svg xmlns:ffdec="https://www.free-decompiler.com/flash" xmlns:xlink="http://www.w3.org/1999/xlink" ffdec:objectType="shape" height="88.55px" width="83.95px" xmlns="http://www.w3.org/2000/svg">
  <g transform="matrix(1.0, 0.0, 0.0, 1.0, -616.9, -90.15)">
    <path d="M685.8 98.3 Q689.55 100.3 692.85 102.9 696.2 105.55 698.5 108.75 699.0 109.4 699.0 110.2 L698.55 111.6 683.3 133.0 Q682.7 133.9 681.6 134.0 L681.3 134.05 Q680.45 134.05 679.7 133.45 677.65 131.6 674.7 130.05 672.1 128.75 669.0 128.15 L666.85 128.0 665.25 128.1 Q663.7 128.25 662.05 129.05 660.75 129.8 659.75 131.0 658.85 132.15 658.55 133.85 658.25 135.85 658.75 137.3 659.25 138.85 660.4 140.05 661.65 141.4 663.3 142.1 665.05 142.95 666.95 143.3 L670.2 143.6 677.4 143.35 681.1 142.8 682.55 143.25 Q683.4 143.85 683.55 144.9 L687.1 171.7 Q687.2 172.6 686.75 173.3 686.3 174.05 685.45 174.3 678.7 176.65 671.5 176.8 L669.35 176.85 657.7 175.9 Q649.0 174.45 641.5 170.4 634.0 166.35 628.6 160.1 623.35 153.85 620.85 145.8 618.4 137.8 619.9 128.45 621.4 119.5 626.1 112.1 630.85 104.85 637.7 100.1 644.45 95.4 652.95 93.35 657.65 92.25 662.8 92.25 L670.3 92.85 Q673.8 93.4 678.05 94.85 682.3 96.4 685.8 98.3 Z" fill="none" stroke="#7ebae3" stroke-linecap="butt" stroke-linejoin="miter-clip" stroke-miterlimit="4.0" stroke-width="3.7"/>
  </g>
</svg>
