<?xml version="1.0" encoding="UTF-8" standalone="no"?>
<svg xmlns:ffdec="https://www.free-decompiler.com/flash" xmlns:xlink="http://www.w3.org/1999/xlink" ffdec:objectType="shape" height="85.3px" width="91.45px" xmlns="http://www.w3.org/2000/svg">
  <g transform="matrix(1.0, 0.0, 0.0, 1.0, -43.25, -46.15)">
    <path d="M102.05 47.15 L132.65 52.35 Q133.65 52.55 134.25 53.35 134.85 54.2 134.65 55.15 L123.1 129.35 Q122.95 130.35 122.05 131.0 L120.7 131.45 120.15 131.4 90.5 125.15 89.1 124.3 Q88.55 123.65 88.55 122.8 L84.65 123.15 83.1 123.15 Q78.75 123.1 74.2 122.15 71.15 121.6 67.95 120.3 65.1 119.15 62.15 117.5 51.35 111.8 46.7 102.45 42.2 93.2 43.55 80.9 L43.85 78.75 44.2 76.85 Q45.45 70.95 47.6 66.35 49.8 61.55 53.3 57.6 56.7 53.85 61.4 51.1 65.95 48.45 71.85 47.15 75.5 46.3 79.2 46.15 L79.85 46.15 86.75 46.6 87.55 46.75 Q91.6 47.6 95.3 49.15 96.7 49.7 99.4 51.0 L99.65 49.25 Q99.8 48.2 100.65 47.65 101.2 47.25 102.05 47.15 M89.7 78.35 L85.75 78.95 Q83.5 79.65 81.9 81.15 80.45 82.55 79.9 85.25 79.45 87.4 80.0 88.8 80.55 90.3 81.6 91.2 82.8 92.35 84.6 93.0 L88.7 94.2 92.75 94.8 95.2 78.75 90.8 78.35 89.7 78.35" fill="#ff0000" fill-rule="evenodd" stroke="none"/>
  </g>
</svg>
