<?xml version="1.0" encoding="UTF-8" standalone="no"?>
<svg xmlns:ffdec="https://www.free-decompiler.com/flash" xmlns:xlink="http://www.w3.org/1999/xlink" ffdec:objectType="shape" height="89.0px" width="95.15px" xmlns="http://www.w3.org/2000/svg">
  <g transform="matrix(1.0, 0.0, 0.0, 1.0, -682.65, -106.05)">
    <path d="M720.45 107.9 L721.1 107.9 728.0 108.35 728.8 108.5 Q732.7 109.3 736.55 110.9 737.95 111.45 740.65 112.75 L740.9 111.0 Q741.05 109.95 741.9 109.4 742.45 109.0 743.3 108.9 L773.9 114.1 Q774.9 114.3 775.5 115.1 776.1 115.95 775.9 116.9 L764.35 191.1 Q764.2 192.1 763.3 192.75 L761.95 193.2 761.4 193.15 731.75 186.9 Q730.9 186.7 730.35 186.05 729.8 185.4 729.8 184.55 L725.9 184.9 724.35 184.9 715.45 183.9 Q712.4 183.35 709.2 182.05 706.35 180.9 703.4 179.25 692.6 173.55 687.95 164.2 683.45 154.95 684.8 142.65 L685.1 140.5 685.45 138.6 Q686.7 132.7 688.85 128.1 691.05 123.3 694.55 119.35 697.95 115.6 702.65 112.85 707.2 110.2 713.1 108.9 L720.45 107.9 M723.15 142.9 Q721.7 144.3 721.15 147.0 720.7 149.15 721.25 150.55 721.8 152.05 722.85 152.95 724.05 154.1 725.85 154.75 L729.95 155.95 734.0 156.55 736.4 140.5 732.05 140.1 730.95 140.1 727.0 140.7 Q724.75 141.4 723.15 142.9 Z" fill="none" stroke="#7ebae3" stroke-linecap="butt" stroke-linejoin="miter-clip" stroke-miterlimit="4.0" stroke-width="3.7"/>
  </g>
</svg>
