<?xml version="1.0" encoding="UTF-8" standalone="no"?>
<svg xmlns:ffdec="https://www.free-decompiler.com/flash" xmlns:xlink="http://www.w3.org/1999/xlink" ffdec:objectType="shape" height="30.65px" width="30.85px" xmlns="http://www.w3.org/2000/svg">
  <g transform="matrix(1.0, 0.0, 0.0, 1.0, 0.0, 0.0)">
    <path d="M18.8 12.15 Q18.8 9.45 14.9 9.45 L12.6 9.65 12.6 14.65 14.6 14.65 Q18.8 14.65 18.8 12.15 M21.3 19.7 Q21.95 22.9 22.5 23.7 L19.6 23.7 Q18.9 22.9 18.3 19.5 18.0 18.15 17.1 17.55 16.2 16.95 14.5 16.95 L12.6 16.95 12.6 23.7 9.85 23.7 9.85 7.65 15.1 7.15 Q18.4 7.15 20.2 8.45 20.9 8.9 21.35 9.8 21.8 10.75 21.8 11.85 21.8 14.5 18.6 15.65 L18.6 15.85 Q20.55 16.5 21.3 19.7 M28.3 15.35 Q28.3 9.75 24.65 5.85 20.9 1.9 15.4 1.9 L15.3 1.9 Q9.85 1.9 6.1 5.85 2.4 9.75 2.4 15.25 2.4 20.9 6.15 24.75 9.9 28.65 15.5 28.65 20.95 28.75 24.65 24.8 28.3 20.95 28.3 15.35 M26.4 4.4 Q30.85 8.85 30.85 15.25 30.85 21.75 26.35 26.2 21.9 30.65 15.4 30.65 8.95 30.65 4.5 26.2 0.0 21.7 0.0 15.25 0.0 8.85 4.5 4.4 8.95 0.0 15.4 0.0 L15.5 0.0 Q21.9 0.0 26.4 4.4" fill="#000000" fill-rule="evenodd" stroke="none"/>
  </g>
</svg>
