<?xml version="1.0" encoding="UTF-8" standalone="no"?>
<svg xmlns:ffdec="https://www.free-decompiler.com/flash" xmlns:xlink="http://www.w3.org/1999/xlink" ffdec:objectType="shape" height="30.65px" width="30.85px" xmlns="http://www.w3.org/2000/svg">
  <g transform="matrix(1.0, 0.0, 0.0, 1.0, -787.5, -114.0)">
    <path d="M812.15 138.8 Q815.8 134.95 815.8 129.35 815.8 123.75 812.15 119.85 808.45 115.9 802.9 115.9 L802.8 115.9 Q797.35 115.9 793.6 119.85 789.9 123.7 789.9 129.2 789.9 134.9 793.65 138.75 797.4 142.65 803.05 142.65 808.5 142.75 812.15 138.8 M813.9 118.4 Q818.35 122.8 818.35 129.25 818.35 135.75 813.9 140.2 809.4 144.65 802.9 144.65 796.45 144.65 792.0 140.2 787.5 135.7 787.5 129.25 787.5 122.8 792.0 118.4 796.45 114.0 802.9 114.0 L803.0 114.0 Q809.45 114.0 813.9 118.4" fill="#ffffff" fill-rule="evenodd" stroke="none"/>
    <path d="M802.4 123.45 L800.15 123.65 800.15 128.65 802.1 128.65 Q806.3 128.65 806.3 126.15 806.3 123.45 802.4 123.45 M797.35 121.65 L802.6 121.15 Q805.9 121.15 807.7 122.45 809.3 123.5 809.3 125.85 809.3 128.5 806.1 129.65 L806.1 129.8 Q808.05 130.45 808.8 133.7 809.45 136.9 810.0 137.7 L807.1 137.7 Q806.4 136.9 805.8 133.5 805.5 132.15 804.6 131.55 803.7 130.9 802.0 130.9 L800.15 130.9 800.15 137.7 797.35 137.7 797.35 121.65" fill="#ffffff" fill-rule="evenodd" stroke="none"/>
  </g>
</svg>
