<?xml version="1.0" encoding="UTF-8" standalone="no"?>
<svg xmlns:ffdec="https://www.free-decompiler.com/flash" xmlns:xlink="http://www.w3.org/1999/xlink" ffdec:objectType="shape" height="164.55px" width="507.1px" xmlns="http://www.w3.org/2000/svg">
  <g transform="matrix(1.0, 0.0, 0.0, 1.0, 0.0, 0.0)">
    <path d="M458.1 28.15 Q458.85 30.6 458.5 36.4 458.2 42.05 456.7 53.35 468.7 58.35 479.8 66.8 495.7 78.9 507.1 96.2 L478.1 111.55 480.05 130.3 483.75 164.55 Q478.55 160.5 468.35 155.4 448.0 145.2 422.95 140.1 422.3 140.2 421.7 139.3 420.05 138.55 419.6 135.2 418.85 130.15 421.1 120.1 403.75 115.3 382.1 111.7 L378.35 95.0 373.7 110.4 Q324.0 102.95 263.45 102.4 203.2 101.8 150.95 108.2 L147.8 99.8 124.45 104.6 122.1 112.45 Q102.5 115.8 86.1 120.45 88.25 130.3 87.45 135.3 86.95 138.55 85.35 139.3 84.8 140.2 84.15 140.1 59.1 145.2 38.75 155.4 28.55 160.5 23.35 164.55 L27.05 130.3 29.0 111.55 0.0 96.2 Q11.35 79.0 27.1 66.95 38.2 58.45 50.15 53.45 48.6 41.05 48.65 35.25 48.7 29.5 50.35 28.15 72.25 19.35 104.0 13.0 134.2 6.95 171.05 3.6 L176.15 19.35 179.5 2.9 Q227.1 -0.9 276.65 0.25 L279.55 7.15 303.15 7.15 307.8 1.45 Q353.75 4.05 391.75 10.6 431.85 17.55 458.1 28.15" fill="#000000" fill-rule="evenodd" stroke="none"/>
  </g>
</svg>
