<?xml version="1.0" encoding="UTF-8" standalone="no"?>
<svg xmlns:ffdec="https://www.free-decompiler.com/flash" xmlns:xlink="http://www.w3.org/1999/xlink" ffdec:objectType="shape" height="121.35px" width="93.5px" xmlns="http://www.w3.org/2000/svg">
  <g transform="matrix(1.0, 0.0, 0.0, 1.0, -586.5, -325.75)">
    <path d="M648.1 390.0 L650.05 408.75 653.75 442.95 Q648.55 438.9 638.35 433.8 618.0 423.6 592.95 418.5 591.85 418.75 591.2 416.45 589.95 411.8 592.45 399.1 594.95 386.35 606.95 356.35 L618.4 328.9 624.1 330.75 Q631.25 333.45 638.45 337.7 661.65 351.15 677.1 374.65 L648.1 390.0" fill="#bdad7a" fill-rule="evenodd" stroke="none"/>
    <path d="M648.1 390.0 L650.05 408.75 653.75 442.95 Q648.55 438.9 638.35 433.8 618.0 423.6 592.95 418.5 591.85 418.75 591.2 416.45 589.95 411.8 592.45 399.1 594.95 386.35 606.95 356.35 L618.4 328.9 624.1 330.75 Q631.25 333.45 638.45 337.7 661.65 351.15 677.1 374.65 L648.1 390.0 Z" fill="none" stroke="#6b6346" stroke-linecap="butt" stroke-linejoin="miter-clip" stroke-miterlimit="10.0" stroke-width="4.1000000000000005"/>
  </g>
</svg>
