<?xml version="1.0" encoding="UTF-8" standalone="no"?>
<svg xmlns:ffdec="https://www.free-decompiler.com/flash" xmlns:xlink="http://www.w3.org/1999/xlink" ffdec:objectType="shape" height="121.9px" width="448.2px" xmlns="http://www.w3.org/2000/svg">
  <g transform="matrix(1.0, 0.0, 0.0, 1.0, -167.05, -325.6)">
    <path d="M606.35 363.5 Q608.8 367.15 610.45 371.85 615.7 387.0 610.9 407.55 L598.1 411.6 Q595.1 412.6 593.6 415.0 592.95 416.05 592.45 417.9 590.75 418.1 589.9 415.1 588.15 409.15 592.35 393.3 595.2 382.55 600.0 370.65 L604.25 360.85 606.35 363.5" fill="#6b6346" fill-rule="evenodd" stroke="none"/>
    <path d="M606.35 363.5 Q608.8 367.15 610.45 371.85 615.7 387.0 610.9 407.55 L598.1 411.6 Q595.1 412.6 593.6 415.0 592.95 416.05 592.45 417.9 590.75 418.1 589.9 415.1 588.15 409.15 592.35 393.3 595.2 382.55 600.0 370.65 L604.25 360.85 606.35 363.5 Z" fill="none" stroke="#6b6346" stroke-linecap="butt" stroke-linejoin="miter-clip" stroke-miterlimit="10.0" stroke-width="4.1000000000000005"/>
    <path d="M208.65 337.7 Q220.2 330.95 228.7 328.9 L240.15 356.35 Q252.1 386.35 254.6 399.1 257.1 411.8 255.9 416.45 255.25 418.75 254.15 418.5 229.1 423.6 208.75 433.8 202.35 437.0 197.2 440.3 L193.35 442.95 197.05 408.75 199.0 390.0 170.0 374.65 Q185.45 351.15 208.65 337.7" fill="#bdad7a" fill-rule="evenodd" stroke="none"/>
    <path d="M208.65 337.7 Q185.45 351.15 170.0 374.65 L199.0 390.0 197.05 408.75 193.35 442.95 197.2 440.3 Q202.35 437.0 208.75 433.8 229.1 423.6 254.15 418.5 255.25 418.75 255.9 416.45 257.1 411.8 254.6 399.1 252.1 386.35 240.15 356.35 L228.7 328.9 Q220.2 330.95 208.65 337.7 Z" fill="none" stroke="#6b6346" stroke-linecap="butt" stroke-linejoin="miter-clip" stroke-miterlimit="10.0" stroke-width="4.1000000000000005"/>
  </g>
</svg>
