<?xml version="1.0" encoding="UTF-8" standalone="no"?>
<svg xmlns:ffdec="https://www.free-decompiler.com/flash" xmlns:xlink="http://www.w3.org/1999/xlink" ffdec:objectType="shape" height="27.75px" width="37.35px" xmlns="http://www.w3.org/2000/svg">
  <g transform="matrix(1.0, 0.0, 0.0, 1.0, 353.8, 103.95)">
    <path d="M-323.45 -101.7 Q-319.0 -101.0 -316.45 -98.55 -316.9 -97.4 -317.8 -96.7 -318.75 -96.0 -319.9 -96.0 -321.45 -96.0 -322.55 -97.25 -323.65 -98.55 -323.65 -100.3 L-323.45 -101.7 M-325.05 -101.85 L-324.9 -100.65 Q-324.9 -98.6 -326.45 -97.15 -328.05 -95.7 -330.25 -95.7 -331.95 -95.7 -333.35 -96.6 -334.7 -97.5 -335.25 -98.9 -333.65 -100.3 -331.3 -101.05 -328.85 -101.9 -326.05 -101.9 L-325.05 -101.85" fill="#ab581d" fill-rule="evenodd" stroke="none"/>
    <path d="M-323.0 -100.3 Q-323.0 -101.8 -322.1 -102.85 -321.15 -103.95 -319.9 -103.95 -318.6 -103.95 -317.65 -102.85 -316.75 -101.8 -316.75 -100.3 -316.75 -98.8 -317.65 -97.7 -318.6 -96.65 -319.9 -96.65 -321.15 -96.65 -322.1 -97.7 -323.0 -98.8 -323.0 -100.3" fill="#ffffff" fill-rule="evenodd" stroke="none"/>
    <path d="M-319.65 -99.6 L-319.4 -100.3 Q-319.2 -100.6 -318.85 -100.6 -318.0 -100.6 -318.0 -99.6 -318.0 -98.65 -318.85 -98.65 -319.65 -98.65 -319.65 -99.6" fill="#000000" fill-rule="evenodd" stroke="none"/>
    <path d="M-353.8 -84.4 Q-353.8 -87.8 -350.0 -90.2 -346.2 -92.6 -340.8 -92.6 -335.4 -92.6 -331.6 -90.2 -327.8 -87.8 -327.8 -84.4 -327.8 -81.0 -331.6 -78.6 -335.4 -76.2 -340.8 -76.2 -346.2 -76.2 -350.0 -78.6 -353.8 -81.0 -353.8 -84.4" fill="#ffd500" fill-rule="evenodd" stroke="none"/>
  </g>
</svg>
