<?xml version="1.0" encoding="UTF-8" standalone="no"?>
<svg xmlns:ffdec="https://www.free-decompiler.com/flash" xmlns:xlink="http://www.w3.org/1999/xlink" ffdec:objectType="shape" height="158.9px" width="415.5px" xmlns="http://www.w3.org/2000/svg">
  <g transform="matrix(1.0, 0.0, 0.0, 1.0, -216.6, -276.4)">
    <path d="M236.65 371.85 Q238.3 367.15 240.75 363.5 L242.85 360.85 247.1 370.65 Q251.9 382.55 254.75 393.3 258.95 409.15 257.2 415.1 256.3 418.1 254.6 417.9 253.6 413.2 248.95 411.6 L236.15 407.55 Q231.4 387.0 236.65 371.85" fill="#6b6346" fill-rule="evenodd" stroke="none"/>
    <path d="M236.65 371.85 Q231.4 387.0 236.15 407.55 L248.95 411.6 Q253.6 413.2 254.6 417.9 256.3 418.1 257.2 415.1 258.95 409.15 254.75 393.3 251.9 382.55 247.1 370.65 L242.85 360.85 240.75 363.5 Q238.3 367.15 236.65 371.85 Z" fill="none" stroke="#6b6346" stroke-linecap="butt" stroke-linejoin="miter-clip" stroke-miterlimit="10.0" stroke-width="4.1000000000000005"/>
    <path d="M446.65 278.7 L449.55 285.6 473.15 285.6 477.8 279.9 Q523.65 282.45 561.75 289.05 601.85 296.0 628.1 306.6 629.15 310.05 627.95 321.5 627.0 330.45 623.05 358.05 616.9 401.4 612.2 405.5 589.1 396.3 552.1 390.15 L548.35 373.4 543.7 388.8 Q494.05 381.35 433.45 380.8 373.25 380.25 320.95 386.65 L317.8 378.25 294.45 383.0 292.05 390.9 Q257.85 396.9 236.25 405.5 230.75 403.65 223.75 357.4 219.6 329.85 218.85 319.55 218.05 308.45 220.4 306.6 242.25 297.8 274.0 291.45 304.2 285.4 341.05 282.05 L346.15 297.75 349.5 281.3 Q396.6 277.55 446.65 278.7" fill="#d3c289" fill-rule="evenodd" stroke="none"/>
    <path d="M446.65 278.7 Q396.6 277.55 349.5 281.3 L346.15 297.75 341.05 282.05 Q304.2 285.4 274.0 291.45 242.25 297.8 220.4 306.6 218.05 308.45 218.85 319.55 219.6 329.85 223.75 357.4 230.75 403.65 236.25 405.5 257.85 396.9 292.05 390.9 L294.45 383.0 317.8 378.25 320.95 386.65 Q373.25 380.25 433.45 380.8 494.05 381.35 543.7 388.8 L548.35 373.4 552.1 390.15 Q589.1 396.3 612.2 405.5 616.9 401.4 623.05 358.05 627.0 330.45 627.95 321.5 629.15 310.05 628.1 306.6 601.85 296.0 561.75 289.05 523.65 282.45 477.8 279.9 L473.15 285.6 449.55 285.6 446.65 278.7 Z" fill="none" stroke="#6b6346" stroke-linecap="butt" stroke-linejoin="miter-clip" stroke-miterlimit="10.0" stroke-width="4.1000000000000005"/>
    <path d="M353.1 341.45 L355.05 360.7 337.6 362.3 Q326.6 363.7 319.8 365.35 L318.25 357.05 323.65 355.65 Q319.5 332.0 318.3 316.15 L312.65 316.7 312.1 308.75 333.85 307.05 334.2 315.0 328.6 315.4 Q329.65 332.6 333.8 354.05 L345.55 352.4 344.5 342.15 353.1 341.45" fill="#6b6346" fill-rule="evenodd" stroke="none"/>
    <path d="M398.95 310.35 L391.75 310.8 Q399.35 330.45 405.6 348.3 L411.05 347.8 411.85 356.15 392.25 358.25 391.15 349.9 396.5 349.25 395.0 344.3 Q386.95 344.35 377.05 344.7 L375.45 350.95 380.3 350.85 380.3 359.25 362.35 359.45 362.1 351.1 366.55 351.1 Q371.15 332.3 376.9 311.95 L370.3 312.55 369.45 304.0 398.45 301.75 398.95 310.35 M392.5 335.7 L384.3 314.5 379.1 336.1 392.5 335.7" fill="#6b6346" fill-rule="evenodd" stroke="none"/>
    <path d="M468.8 311.7 L465.1 358.6 457.05 358.35 Q450.05 346.8 444.95 339.0 L431.95 319.9 Q432.15 338.55 431.85 350.1 L439.75 350.05 439.75 357.7 Q429.15 357.65 418.5 357.95 L418.3 350.35 423.55 350.25 Q423.95 330.0 423.4 310.2 L418.1 310.15 417.8 302.2 Q425.7 302.15 432.6 302.25 440.75 313.95 445.75 321.75 450.9 329.65 458.0 341.5 L459.7 310.85 454.6 310.35 455.3 302.75 475.2 304.7 474.25 312.35 468.8 311.7" fill="#6b6346" fill-rule="evenodd" stroke="none"/>
    <path d="M481.9 305.95 L489.95 305.05 Q495.2 304.75 498.4 305.1 515.65 306.95 523.7 315.0 532.3 323.65 529.85 338.95 527.75 352.25 517.55 358.35 508.25 363.9 494.3 362.4 L486.55 361.05 478.8 359.35 479.3 350.6 485.7 351.9 488.1 314.9 481.5 315.15 481.9 305.95 M500.7 313.85 L497.55 313.95 495.05 354.15 497.4 354.5 Q506.55 355.55 512.95 351.0 519.55 346.3 520.85 337.35 522.3 327.35 516.8 321.15 511.45 315.05 500.7 313.85" fill="#6b6346" fill-rule="evenodd" stroke="none"/>
  </g>
</svg>
