<?xml version="1.0" encoding="UTF-8" standalone="no"?>
<svg xmlns:ffdec="https://www.free-decompiler.com/flash" xmlns:xlink="http://www.w3.org/1999/xlink" ffdec:objectType="shape" height="7.05px" width="21.25px" xmlns="http://www.w3.org/2000/svg">
  <g transform="matrix(1.0, 0.0, 0.0, 1.0, 351.2, 92.6)">
    <path d="M-339.45 -91.25 L-339.45 -91.0 Q-339.55 -88.7 -341.3 -87.15 -343.05 -85.55 -345.5 -85.55 -347.45 -85.55 -349.0 -86.6 -350.55 -87.6 -351.2 -89.3 -349.4 -90.85 -346.7 -91.7 -343.95 -92.6 -340.8 -92.6 L-339.65 -92.55 -339.45 -91.25 M-337.85 -91.4 L-337.65 -92.35 Q-332.7 -91.6 -329.95 -88.9 -330.4 -87.6 -331.45 -86.8 -332.5 -86.0 -333.75 -86.0 -335.45 -86.0 -336.7 -87.4 -337.9 -88.8 -337.9 -90.8 L-337.9 -90.9 -337.85 -91.4" fill="#bd9d00" fill-rule="evenodd" stroke="none"/>
    <path d="M-345.6 -86.3 Q-347.75 -86.3 -349.3 -87.65 -350.85 -89.05 -350.95 -91.0 L-340.25 -91.0 Q-340.3 -89.05 -341.85 -87.65 -343.45 -86.3 -345.6 -86.3" fill="#ffffff" fill-rule="evenodd" stroke="none"/>
    <path d="M-344.25 -90.2 L-343.95 -91.1 -343.2 -91.45 Q-342.75 -91.45 -342.4 -91.1 -342.1 -90.7 -342.1 -90.2 -342.1 -89.7 -342.4 -89.3 -342.75 -88.95 -343.2 -88.95 -343.6 -88.95 -343.95 -89.3 L-344.25 -90.2" fill="#000000" fill-rule="evenodd" stroke="none"/>
  </g>
</svg>
