<?xml version="1.0" encoding="UTF-8" standalone="no"?>
<svg xmlns:ffdec="https://www.free-decompiler.com/flash" xmlns:xlink="http://www.w3.org/1999/xlink" ffdec:objectType="shape" height="60.8px" width="92.05px" xmlns="http://www.w3.org/2000/svg">
  <g transform="matrix(1.0, 0.0, 0.0, 1.0, 0.0, 0.0)">
    <path d="M36.6 4.65 Q37.4 4.9 38.0 5.35 L39.1 6.55 39.85 8.05 40.2 9.8 40.35 10.7 38.75 11.3 40.6 11.8 40.15 12.95 39.3 14.65 38.15 16.0 36.75 16.95 35.05 17.3 33.05 16.9 31.25 15.75 30.55 14.9 30.5 16.45 29.65 16.5 25.95 16.65 25.35 16.65 25.4 16.95 24.5 17.0 21.15 17.25 20.35 17.3 20.0 8.95 18.5 9.05 18.9 17.45 12.8 17.95 12.9 9.55 10.3 9.85 10.15 3.95 11.0 3.75 19.75 2.25 19.75 1.95 25.15 1.35 25.2 5.6 25.9 5.45 26.45 5.45 28.3 5.85 Q29.15 6.25 29.65 6.95 L30.25 8.05 Q30.55 7.3 31.0 6.7 31.75 5.7 32.75 5.1 33.7 4.5 34.95 4.4 L35.8 4.45 36.6 4.65" fill="#010816" fill-rule="evenodd" stroke="none"/>
    <path d="M49.6 10.75 L49.2 10.65 49.25 11.35 49.6 11.25 49.65 11.2 49.55 10.85 49.6 10.75 M64.55 11.6 L63.9 11.75 64.5 11.95 64.55 11.6 M81.65 7.35 L81.55 12.4 79.85 12.2 79.9 18.5 79.05 18.45 74.4 18.15 74.3 11.75 73.5 11.7 73.1 11.7 73.05 11.95 73.45 12.7 73.7 14.15 73.4 15.8 72.65 16.9 71.55 17.5 70.45 17.75 69.3 17.8 68.25 17.75 67.3 17.55 64.0 16.25 64.1 15.55 63.35 16.3 61.9 17.15 60.25 17.4 Q59.35 17.4 58.2 16.9 L56.45 15.6 Q55.8 14.95 55.35 13.95 L54.75 14.95 53.55 15.95 52.25 16.5 50.85 16.8 43.6 16.75 43.0 0.6 43.8 0.45 48.2 0.0 48.65 0.0 49.7 0.1 50.8 0.35 51.9 0.85 Q52.35 1.1 52.9 1.65 53.45 2.3 53.65 2.9 L53.95 4.55 53.85 5.65 53.6 6.4 53.65 6.45 54.9 7.75 55.2 8.3 Q55.6 7.2 56.2 6.45 56.85 5.6 57.95 5.0 59.0 4.5 60.15 4.55 L61.0 4.7 61.8 5.0 Q62.65 5.35 63.2 5.9 L64.3 7.15 64.6 7.75 Q64.85 7.05 65.25 6.55 L66.45 5.65 67.8 5.3 69.1 5.3 70.15 5.5 72.3 6.3 72.35 6.4 72.35 6.35 74.2 6.5 74.1 1.9 79.75 2.7 79.8 7.1 81.65 7.35" fill="#010816" fill-rule="evenodd" stroke="none"/>
    <path d="M5.25 30.7 L5.1 30.75 4.9 30.95 4.9 31.15 5.0 31.3 5.1 31.35 5.25 31.4 5.4 31.4 5.55 31.3 5.6 31.15 5.65 31.05 5.55 30.85 5.4 30.75 5.25 30.7 M11.1 23.6 Q11.5 22.8 12.2 22.1 12.85 21.45 13.85 21.2 L14.5 21.05 15.8 21.0 17.4 21.4 18.15 21.8 18.55 22.15 18.05 27.45 17.3 27.05 17.35 31.0 15.15 31.05 15.95 36.85 10.85 36.8 10.3 31.5 9.9 33.25 8.75 34.95 7.1 36.0 5.15 36.3 3.2 35.85 1.55 34.7 Q0.9 34.15 0.4 33.1 0.0 32.05 0.0 31.05 0.0 30.0 0.4 29.05 0.9 28.0 1.55 27.4 L3.2 26.25 Q4.3 25.8 5.15 25.8 L7.1 26.1 8.75 27.15 9.05 27.55 9.0 26.2 10.25 26.15 10.45 25.25 Q10.7 24.3 11.1 23.6" fill="#010816" fill-rule="evenodd" stroke="none"/>
    <path d="M44.25 24.5 L45.1 24.6 45.9 24.8 Q46.8 25.15 47.3 25.6 L48.4 26.8 49.15 28.35 49.55 30.15 49.65 31.05 48.05 31.6 49.9 32.1 49.45 33.25 48.6 34.95 47.45 36.3 Q46.9 36.85 46.05 37.2 L44.35 37.5 42.3 37.05 Q41.4 36.7 40.55 35.85 L39.8 34.95 39.65 36.5 33.35 36.4 33.35 37.65 32.1 37.45 30.4 37.2 30.0 36.95 29.6 36.7 29.35 30.45 28.6 30.5 28.65 37.25 23.15 37.25 23.05 30.7 22.25 30.75 21.35 30.75 21.3 25.4 22.15 25.35 22.95 25.3 22.85 20.6 23.7 20.55 27.7 20.3 28.55 20.25 28.55 25.05 29.15 25.05 29.0 20.95 29.9 21.2 31.75 21.45 33.6 21.65 34.45 21.65 34.5 25.05 35.2 24.95 35.55 24.95 35.75 25.0 37.6 25.55 Q38.45 26.0 38.95 26.75 L39.55 27.95 Q39.85 27.2 40.3 26.6 41.0 25.7 42.05 25.05 43.15 24.5 44.25 24.5" fill="#010816" fill-rule="evenodd" stroke="none"/>
    <path d="M67.2 30.7 L67.0 30.8 66.85 30.95 66.8 31.15 66.8 31.25 66.85 31.3 67.0 31.35 67.25 31.4 67.2 30.7 M85.7 30.6 L85.7 30.75 85.75 31.0 85.95 31.15 86.05 31.25 86.1 30.5 85.85 30.55 85.7 30.6 M87.1 22.4 L92.05 22.95 91.35 36.0 90.55 35.9 86.8 35.65 85.95 35.65 85.95 35.7 85.55 36.0 84.9 36.1 84.8 36.1 83.95 36.0 83.15 35.75 81.85 34.95 81.5 34.5 81.45 36.15 80.65 36.25 77.3 36.45 67.45 36.7 67.45 36.65 66.4 36.75 65.55 36.7 64.8 36.45 Q63.35 36.0 62.5 34.7 L62.4 36.15 53.1 36.75 52.35 21.25 53.25 21.2 58.35 21.1 58.5 28.9 61.85 28.45 61.95 28.45 62.15 27.9 63.05 26.65 64.25 25.75 65.15 25.4 66.15 25.3 66.2 25.3 67.0 25.35 67.0 25.0 72.15 24.95 72.2 25.8 75.6 25.65 76.5 25.6 76.5 26.25 76.7 26.2 77.5 26.05 78.25 26.0 Q79.8 26.0 80.7 27.05 L81.05 27.6 81.6 26.8 Q82.4 26.0 83.2 25.75 L85.2 25.45 86.2 25.6 86.25 22.3 87.1 22.4" fill="#010816" fill-rule="evenodd" stroke="none"/>
    <path d="M57.4 51.7 L57.7 51.8 57.7 51.6 57.4 51.7 M72.55 50.4 L72.25 50.5 71.8 50.9 71.8 51.2 72.05 51.25 72.5 51.25 72.65 51.2 72.65 50.8 72.6 50.4 72.55 50.4 M34.1 51.4 L34.3 51.5 34.5 51.55 34.5 50.8 34.25 50.9 34.1 51.1 34.05 51.3 34.1 51.4 M15.05 47.35 L14.95 47.7 15.0 48.05 15.2 48.35 15.55 48.55 15.95 48.65 16.25 48.65 16.65 48.65 18.15 48.2 19.5 52.0 19.25 45.3 17.7 48.25 16.95 47.35 16.5 47.0 15.9 46.85 15.5 46.9 15.2 47.05 15.05 47.35 M82.15 43.25 L82.95 43.25 83.75 43.4 Q84.5 43.55 85.15 43.95 L86.2 44.85 86.95 46.1 87.3 47.6 87.4 48.35 85.85 49.05 87.7 49.25 87.25 50.3 86.4 51.85 85.3 53.25 83.9 54.25 82.2 54.85 80.25 54.75 Q79.3 54.55 78.5 53.9 L77.9 53.3 77.8 54.7 77.45 56.15 76.8 57.5 75.8 58.8 74.9 59.55 73.95 60.15 72.9 60.55 71.95 60.75 70.35 60.75 68.9 60.4 68.35 60.2 68.5 55.4 67.95 54.8 67.95 56.05 62.85 56.7 62.85 56.65 62.2 56.75 57.85 57.05 57.8 55.25 56.8 56.4 55.4 57.4 53.7 57.75 51.7 57.4 49.9 56.2 49.3 55.45 49.3 56.15 49.25 57.2 42.35 57.45 42.35 57.25 37.35 57.35 37.35 57.2 34.15 57.05 33.35 57.0 33.35 56.95 33.0 57.0 32.9 56.95 32.85 56.85 32.1 56.6 Q30.7 56.0 29.85 54.75 L29.8 56.3 28.95 56.25 24.65 55.85 24.7 56.1 19.65 55.6 19.6 55.15 17.75 55.55 16.7 55.6 15.65 55.5 14.35 55.2 13.05 54.65 Q12.0 54.15 11.1 53.25 10.25 52.4 9.75 51.4 9.2 50.45 8.95 49.25 8.7 48.1 8.7 46.95 L8.7 46.75 Q8.7 45.95 8.85 45.2 8.9 44.5 9.25 43.65 9.75 42.5 10.45 41.8 L12.1 40.6 Q12.85 40.2 14.0 39.95 L16.0 39.8 17.1 40.0 18.2 40.4 19.1 40.85 19.05 40.2 23.65 40.5 24.45 40.55 24.5 44.8 25.2 44.7 25.55 44.75 25.75 44.8 Q26.75 44.95 27.6 45.45 28.35 45.85 28.95 46.7 L29.5 47.7 30.3 46.55 31.5 45.7 32.4 45.4 33.4 45.25 33.45 45.25 34.2 45.35 34.1 44.95 37.95 44.95 37.35 44.9 37.35 44.8 Q37.7 44.7 37.45 44.65 L37.8 44.25 38.1 43.85 37.9 40.5 38.8 40.45 44.15 40.3 44.15 40.5 48.95 40.3 49.15 47.8 49.65 46.95 Q50.35 46.05 51.4 45.4 52.45 44.8 53.6 44.8 L54.45 44.85 55.2 45.05 Q56.0 45.35 56.55 45.85 L56.7 46.3 57.35 46.8 57.35 46.75 57.45 45.75 62.95 45.15 62.95 45.8 64.7 45.4 Q66.25 45.35 67.2 46.35 67.6 46.9 67.8 47.6 L68.05 47.15 Q68.75 46.2 69.5 45.75 70.3 45.2 71.4 45.1 L72.35 45.2 72.35 44.9 73.35 44.85 78.0 44.5 78.0 45.9 78.25 45.5 Q79.0 44.55 79.95 43.95 81.05 43.3 82.15 43.25" fill="#010816" fill-rule="evenodd" stroke="none"/>
  </g>
</svg>
