<?xml version="1.0" encoding="UTF-8" standalone="no"?>
<svg xmlns:ffdec="https://www.free-decompiler.com/flash" xmlns:xlink="http://www.w3.org/1999/xlink" ffdec:objectType="shape" height="60.8px" width="92.05px" xmlns="http://www.w3.org/2000/svg">
  <g transform="matrix(1.0, 0.0, 0.0, 1.0, -19.15, 177.6)">
    <path d="M32.35 -160.2 L32.45 -168.55 29.85 -168.3 29.75 -173.3 39.95 -175.05 40.0 -169.2 37.2 -169.0 37.6 -160.6 32.35 -160.2" fill="#f7c833" fill-rule="evenodd" stroke="none"/>
    <path d="M37.15 -161.05 L36.75 -169.45 39.55 -169.65 39.5 -174.5 30.2 -172.9 30.3 -168.8 32.9 -169.1 32.8 -160.7 37.15 -161.05 M39.5 -175.45 L40.35 -175.6 40.4 -168.75 37.65 -168.55 38.05 -160.15 31.95 -159.65 32.05 -168.05 29.45 -167.75 29.3 -173.65 30.15 -173.85 39.5 -175.45" fill="#234da9" fill-rule="evenodd" stroke="none"/>
    <path d="M47.25 -171.3 L48.5 -170.3 49.2 -168.75 49.4 -166.8 49.25 -161.65 44.7 -161.45 44.75 -165.7 44.7 -166.35 44.55 -166.95 44.3 -167.3 44.0 -167.35 44.1 -161.15 39.9 -160.85 39.35 -175.25 43.9 -175.7 43.95 -171.25 44.05 -171.3 45.05 -171.65 45.6 -171.65 47.25 -171.3" fill="#f7c833" fill-rule="evenodd" stroke="none"/>
    <path d="M45.6 -172.15 L47.45 -171.75 48.8 -170.65 Q49.4 -169.9 49.6 -168.95 L49.85 -166.8 49.85 -166.25 49.8 -165.95 49.65 -161.15 44.5 -160.95 44.55 -160.65 43.65 -160.6 40.3 -160.35 39.5 -160.3 38.9 -175.65 44.3 -176.25 44.35 -172.0 45.05 -172.15 45.6 -172.15 M48.8 -168.6 L48.15 -169.95 47.1 -170.85 45.55 -171.15 45.05 -171.15 44.25 -170.85 43.55 -170.2 43.45 -175.15 39.8 -174.8 40.3 -161.35 43.65 -161.6 43.55 -167.4 43.65 -167.6 43.8 -167.8 44.0 -167.85 44.6 -167.7 44.95 -167.15 45.1 -166.45 45.1 -161.95 48.8 -162.1 48.95 -166.75 48.8 -168.6" fill="#234da9" fill-rule="evenodd" stroke="none"/>
    <path d="M59.0 -167.25 L56.2 -166.2 59.15 -165.45 58.9 -164.85 58.1 -163.3 57.05 -162.0 55.75 -161.15 54.2 -160.8 52.35 -161.15 50.7 -162.25 Q49.95 -162.9 49.5 -163.9 49.05 -164.95 49.05 -166.15 49.05 -167.25 49.45 -168.55 L50.5 -170.6 Q51.25 -171.6 52.1 -172.05 52.95 -172.6 54.1 -172.7 L54.85 -172.65 55.6 -172.5 Q56.35 -172.3 56.9 -171.8 L57.9 -170.75 58.6 -169.35 58.95 -167.7 59.0 -167.25" fill="#f7c833" fill-rule="evenodd" stroke="none"/>
    <path d="M52.85 -167.1 L52.95 -167.7 53.2 -168.2 53.6 -168.6 54.1 -168.75 54.45 -168.75 54.75 -168.65 55.0 -168.45 55.2 -168.1 52.85 -167.1 M55.75 -173.0 L57.15 -172.25 58.25 -171.05 59.0 -169.55 59.35 -167.8 59.5 -166.9 57.9 -166.3 59.75 -165.8 59.3 -164.65 58.45 -162.95 57.3 -161.6 55.9 -160.65 54.2 -160.3 Q53.05 -160.3 52.2 -160.7 51.25 -161.05 50.4 -161.85 49.55 -162.7 49.15 -163.65 48.6 -164.85 48.6 -166.1 48.6 -167.4 49.05 -168.7 49.4 -169.8 50.15 -170.9 50.9 -171.9 51.9 -172.5 52.85 -173.1 54.1 -173.2 L54.95 -173.15 55.75 -173.0 M58.5 -167.6 L58.2 -169.15 57.55 -170.4 56.65 -171.35 Q56.25 -171.75 55.5 -172.0 L54.8 -172.15 54.1 -172.2 Q53.15 -172.15 52.25 -171.6 L50.8 -170.25 Q50.15 -169.35 49.85 -168.35 49.5 -167.35 49.5 -166.15 49.5 -164.95 49.9 -164.15 50.3 -163.25 50.95 -162.65 L52.5 -161.65 54.2 -161.35 55.6 -161.65 Q56.3 -161.95 56.8 -162.4 L57.8 -163.6 58.5 -165.1 55.6 -165.85 55.1 -165.2 54.35 -164.95 53.7 -165.1 53.2 -165.6 58.5 -167.6" fill="#234da9" fill-rule="evenodd" stroke="none"/>
    <path d="M67.0 -177.05 L67.4 -177.05 67.8 -177.1 68.8 -177.0 69.85 -176.75 70.85 -176.3 71.75 -175.55 72.45 -174.5 72.65 -173.05 72.55 -172.1 72.25 -171.2 72.1 -170.95 72.6 -170.7 73.75 -169.55 74.4 -167.95 74.6 -166.1 74.3 -164.35 73.6 -163.05 Q73.05 -162.45 72.5 -162.15 L71.3 -161.6 69.95 -161.3 63.2 -161.35 62.6 -176.55 67.0 -177.05 M68.3 -172.0 L68.1 -172.15 67.85 -172.25 67.55 -172.3 67.65 -171.2 67.7 -171.2 68.05 -171.35 68.25 -171.6 68.3 -171.85 68.3 -172.0 M68.6 -167.45 L67.9 -167.45 67.95 -165.75 68.45 -165.75 68.9 -165.9 69.15 -166.1 69.25 -166.35 69.15 -166.7 69.2 -166.9 69.2 -167.15 68.95 -167.3 68.6 -167.45" fill="#f7c833" fill-rule="evenodd" stroke="none"/>
    <path d="M68.75 -166.85 L68.35 -166.95 68.4 -166.25 68.75 -166.35 68.8 -166.4 68.7 -166.75 68.75 -166.85 M67.45 -167.95 L68.2 -168.0 68.65 -167.95 69.15 -167.8 69.5 -167.5 69.65 -166.95 69.65 -166.8 69.6 -166.7 69.65 -166.35 69.5 -165.75 69.05 -165.4 68.5 -165.25 67.95 -165.2 67.75 -165.2 67.55 -165.25 67.45 -167.95 M68.75 -171.85 L68.6 -171.3 68.25 -170.9 67.8 -170.7 67.3 -170.65 67.05 -172.75 67.3 -172.8 67.5 -172.8 67.9 -172.75 68.3 -172.6 68.6 -172.3 68.75 -171.85 M68.85 -177.5 L69.95 -177.25 71.05 -176.75 72.05 -175.95 72.8 -174.7 73.1 -173.05 73.0 -171.95 72.75 -171.2 72.8 -171.15 Q73.5 -170.75 74.05 -169.85 74.6 -169.1 74.8 -168.05 L75.0 -166.1 74.7 -164.15 73.9 -162.65 72.7 -161.65 71.4 -161.1 70.0 -160.8 62.75 -160.85 62.15 -177.0 67.35 -177.6 67.8 -177.6 68.85 -177.5 M70.7 -175.85 L69.75 -176.25 68.75 -176.5 67.8 -176.55 67.0 -176.55 63.05 -176.1 63.6 -161.85 68.65 -161.75 69.9 -161.85 71.15 -162.1 72.3 -162.6 73.25 -163.4 73.9 -164.55 74.15 -166.15 73.95 -167.8 73.4 -169.25 72.4 -170.25 71.0 -170.65 70.75 -170.65 71.4 -170.95 71.85 -171.5 Q72.1 -171.8 72.15 -172.25 L72.25 -173.1 72.05 -174.3 71.5 -175.2 70.7 -175.85" fill="#234da9" fill-rule="evenodd" stroke="none"/>
    <path d="M83.75 -168.75 L84.15 -167.1 84.2 -166.65 81.4 -165.9 84.3 -164.9 84.1 -164.35 83.3 -162.85 82.25 -161.7 Q81.65 -161.2 80.95 -160.95 L79.4 -160.7 77.5 -161.2 Q76.45 -161.7 75.9 -162.35 75.15 -163.1 74.7 -164.15 74.25 -165.2 74.25 -166.45 74.25 -167.8 74.6 -168.85 L75.7 -170.8 Q76.3 -171.65 77.3 -172.1 78.15 -172.6 79.3 -172.5 L80.05 -172.4 80.8 -172.15 82.1 -171.3 83.1 -170.15 83.75 -168.75 M79.55 -165.3 Q79.85 -165.3 80.05 -165.45 L80.25 -165.55 79.4 -165.35 79.55 -165.3" fill="#f7c833" fill-rule="evenodd" stroke="none"/>
    <path d="M78.15 -167.65 L78.4 -168.15 78.8 -168.5 79.3 -168.6 79.6 -168.55 79.9 -168.45 80.2 -168.25 80.4 -167.85 78.05 -167.05 78.15 -167.65 M83.45 -170.45 L84.15 -168.9 84.55 -167.15 84.65 -166.25 83.05 -165.85 84.9 -165.2 84.5 -164.1 83.65 -162.55 82.5 -161.3 81.05 -160.45 79.4 -160.2 77.35 -160.7 Q76.45 -161.15 75.6 -162.0 74.8 -162.85 74.3 -163.9 73.8 -165.25 73.8 -166.45 73.8 -167.75 74.2 -169.05 74.65 -170.2 75.35 -171.15 L77.1 -172.6 79.3 -173.05 80.15 -172.9 80.95 -172.6 Q81.8 -172.25 82.35 -171.7 L83.45 -170.45 M83.35 -168.55 L82.75 -169.85 81.85 -170.9 80.7 -171.65 80.0 -171.9 79.3 -172.0 77.45 -171.65 Q76.6 -171.15 76.0 -170.45 L75.0 -168.65 Q74.65 -167.4 74.65 -166.45 74.65 -165.3 75.1 -164.4 75.5 -163.4 76.15 -162.75 L77.65 -161.65 Q78.55 -161.25 79.4 -161.2 L80.8 -161.45 82.0 -162.1 82.95 -163.2 83.7 -164.6 80.8 -165.6 80.3 -165.0 79.55 -164.8 78.9 -165.0 78.4 -165.55 83.7 -167.05 83.35 -168.55" fill="#234da9" fill-rule="evenodd" stroke="none"/>
    <path d="M92.65 -170.05 L91.8 -165.85 91.35 -166.1 90.7 -166.35 90.8 -166.3 91.65 -165.65 92.2 -164.7 92.4 -163.5 92.2 -162.05 91.5 -161.1 Q91.1 -160.7 90.6 -160.55 L89.55 -160.35 88.45 -160.3 86.55 -160.55 85.6 -160.85 83.65 -161.65 84.15 -166.2 85.3 -165.55 84.65 -166.1 84.15 -167.05 83.95 -168.3 84.05 -169.25 Q84.2 -170.15 84.7 -170.65 L85.8 -171.45 87.05 -171.8 88.3 -171.8 89.25 -171.65 91.4 -170.85 92.65 -170.05" fill="#f7c833" fill-rule="evenodd" stroke="none"/>
    <path d="M92.15 -169.85 L91.3 -170.4 90.25 -170.85 89.2 -171.15 88.3 -171.3 87.15 -171.3 85.95 -171.0 Q85.5 -170.8 85.0 -170.3 84.6 -169.8 84.45 -169.1 L84.4 -168.7 84.4 -168.25 Q84.4 -167.65 84.55 -167.2 L84.95 -166.45 85.55 -165.95 Q85.85 -165.75 86.2 -165.65 L86.85 -165.4 87.45 -165.25 87.85 -165.05 88.0 -164.75 87.9 -164.5 87.75 -164.4 87.5 -164.35 87.25 -164.35 85.85 -164.75 84.5 -165.45 84.1 -162.0 86.6 -161.0 87.4 -160.85 88.45 -160.8 89.5 -160.85 90.45 -161.05 Q90.85 -161.2 91.25 -161.5 L91.8 -162.3 92.0 -163.55 91.8 -164.55 91.35 -165.3 90.65 -165.85 89.85 -166.25 89.6 -166.3 88.8 -166.6 88.4 -166.8 88.1 -167.0 87.95 -167.2 88.0 -167.4 88.15 -167.5 88.35 -167.55 88.55 -167.55 89.2 -167.45 91.5 -166.55 92.15 -169.85 M91.55 -171.3 L93.15 -170.25 92.2 -165.65 92.6 -164.9 92.85 -163.45 92.55 -161.85 91.8 -160.7 Q91.35 -160.25 90.7 -160.1 L89.6 -159.85 88.45 -159.85 87.4 -159.9 86.45 -160.05 83.15 -161.35 83.8 -166.8 83.75 -166.85 83.55 -168.3 83.55 -168.8 83.65 -169.4 Q83.8 -170.35 84.4 -171.05 84.95 -171.65 85.6 -171.95 L87.0 -172.3 88.3 -172.3 89.3 -172.1 91.55 -171.3" fill="#234da9" fill-rule="evenodd" stroke="none"/>
    <path d="M98.5 -174.5 L98.55 -170.1 100.35 -169.85 100.25 -165.75 98.55 -165.9 98.6 -159.6 94.0 -159.9 93.85 -166.3 92.2 -166.4 92.15 -170.75 93.75 -170.6 93.7 -175.2 98.5 -174.5" fill="#f7c833" fill-rule="evenodd" stroke="none"/>
    <path d="M98.1 -174.1 L94.15 -174.65 94.2 -170.05 92.55 -170.2 92.6 -166.85 94.25 -166.75 94.4 -160.35 98.15 -160.1 98.1 -166.4 99.85 -166.25 99.95 -169.45 98.1 -169.65 98.1 -174.1 M93.25 -175.75 L98.9 -174.9 98.95 -170.5 100.8 -170.25 100.7 -165.25 99.9 -165.3 99.0 -165.4 99.05 -159.1 98.2 -159.15 94.4 -159.4 93.55 -159.45 93.45 -165.85 91.8 -165.95 91.7 -171.25 93.35 -171.1 93.25 -175.75" fill="#234da9" fill-rule="evenodd" stroke="none"/>
    <path d="M28.65 -148.55 Q29.05 -147.6 29.05 -146.55 29.05 -145.5 28.65 -144.55 28.3 -143.7 27.6 -143.0 L26.1 -142.05 24.3 -141.75 22.5 -142.15 Q21.6 -142.5 21.0 -143.2 20.35 -143.85 19.95 -144.7 19.55 -145.6 19.55 -146.55 19.55 -147.5 19.95 -148.4 L21.0 -149.9 22.5 -150.95 24.3 -151.4 26.1 -151.05 27.6 -150.1 28.65 -148.55 M24.4 -147.35 L24.1 -147.25 23.85 -147.1 23.7 -146.85 23.6 -146.55 23.7 -146.25 Q23.7 -146.05 23.85 -146.0 L24.1 -145.8 24.4 -145.75 24.7 -145.8 24.95 -146.0 25.15 -146.25 25.2 -146.55 25.15 -146.85 24.95 -147.1 24.7 -147.3 24.4 -147.35" fill="#f7c833" fill-rule="evenodd" stroke="none"/>
    <path d="M24.7 -146.3 L24.75 -146.45 24.8 -146.55 24.75 -146.65 24.7 -146.8 24.4 -146.9 24.25 -146.85 24.05 -146.65 24.05 -146.45 24.25 -146.25 24.4 -146.2 24.7 -146.3 M25.55 -147.05 L25.65 -146.55 25.55 -146.05 25.25 -145.65 24.9 -145.4 24.4 -145.3 23.95 -145.4 23.55 -145.7 23.3 -146.05 23.2 -146.55 23.3 -147.05 23.55 -147.4 23.95 -147.7 24.4 -147.8 24.9 -147.7 25.25 -147.45 25.55 -147.05 M22.35 -151.35 L24.3 -151.8 26.25 -151.5 27.9 -150.45 29.05 -148.75 Q29.45 -147.8 29.45 -146.55 29.45 -145.3 29.05 -144.35 L27.9 -142.65 Q27.25 -141.95 26.25 -141.6 L24.3 -141.3 Q23.45 -141.3 22.35 -141.75 21.3 -142.25 20.7 -142.9 20.05 -143.45 19.55 -144.5 19.15 -145.55 19.15 -146.55 19.15 -147.55 19.55 -148.6 20.05 -149.65 20.7 -150.2 21.3 -150.85 22.35 -151.35 M24.3 -150.95 L22.65 -150.55 21.25 -149.6 20.3 -148.25 Q19.95 -147.3 19.95 -146.55 19.95 -145.8 20.3 -144.85 20.7 -144.05 21.25 -143.5 21.85 -142.9 22.65 -142.55 23.55 -142.2 24.3 -142.2 L25.95 -142.45 27.3 -143.35 28.25 -144.75 Q28.65 -145.65 28.65 -146.55 28.65 -147.45 28.25 -148.35 L27.3 -149.75 Q26.8 -150.3 25.95 -150.65 L24.3 -150.95" fill="#234da9" fill-rule="evenodd" stroke="none"/>
    <path d="M30.0 -152.25 L30.6 -153.8 31.6 -155.15 Q32.15 -155.7 33.1 -155.95 L33.65 -156.05 34.9 -156.1 35.65 -156.0 36.4 -155.75 37.05 -155.35 37.25 -155.2 36.85 -150.9 36.35 -151.15 35.55 -151.45 34.85 -151.55 34.2 -151.3 34.05 -151.2 36.0 -151.25 36.05 -147.1 33.85 -147.05 34.6 -141.25 30.35 -141.25 29.8 -146.9 28.8 -146.9 28.6 -150.95 29.75 -151.0 30.0 -152.25" fill="#f7c833" fill-rule="evenodd" stroke="none"/>
    <path d="M30.15 -150.55 L29.05 -150.55 29.2 -147.35 30.15 -147.4 30.7 -141.7 34.1 -141.7 33.35 -147.5 35.65 -147.55 35.55 -150.75 33.4 -150.7 33.9 -151.65 Q34.3 -152.05 34.85 -152.05 L35.7 -151.9 36.5 -151.6 36.8 -154.95 36.2 -155.3 35.55 -155.5 34.15 -155.65 33.2 -155.5 Q32.35 -155.25 31.85 -154.8 L30.95 -153.6 30.4 -152.1 30.15 -150.55 M28.15 -151.4 L29.4 -151.45 29.6 -152.35 30.25 -154.05 31.35 -155.5 Q32.0 -156.15 33.0 -156.4 L33.65 -156.55 34.95 -156.6 35.75 -156.45 36.55 -156.2 37.3 -155.8 37.7 -155.45 37.2 -150.15 36.45 -150.55 36.5 -146.6 34.3 -146.55 35.1 -140.75 30.0 -140.8 29.4 -146.45 28.4 -146.4 28.15 -151.4" fill="#234da9" fill-rule="evenodd" stroke="none"/>
    <path d="M49.15 -152.15 L49.05 -147.65 47.3 -147.6 47.35 -140.85 42.7 -140.85 42.6 -147.4 40.95 -147.35 40.85 -151.7 42.5 -151.8 42.45 -156.5 47.25 -156.8 47.3 -152.05 49.15 -152.15" fill="#f7c833" fill-rule="evenodd" stroke="none"/>
    <path d="M42.95 -151.35 L41.3 -151.25 41.35 -147.85 43.0 -147.95 43.15 -141.35 46.95 -141.35 46.9 -148.1 48.65 -148.15 48.75 -151.65 46.85 -151.55 46.85 -156.3 42.85 -156.05 42.95 -151.35 M46.85 -157.3 L47.7 -157.35 47.7 -152.6 48.7 -152.65 49.6 -152.7 49.5 -147.15 48.65 -147.15 47.75 -147.1 47.8 -140.35 42.3 -140.35 42.2 -146.9 41.4 -146.9 40.5 -146.85 40.45 -152.2 41.3 -152.25 42.1 -152.3 42.0 -157.0 42.85 -157.05 46.85 -157.3" fill="#234da9" fill-rule="evenodd" stroke="none"/>
    <path d="M58.5 -148.9 L58.7 -146.85 58.5 -141.6 53.95 -141.7 54.0 -146.05 53.85 -147.35 53.6 -147.7 53.25 -147.8 53.35 -141.4 49.15 -141.4 48.6 -156.4 53.15 -156.4 53.25 -151.8 53.35 -151.85 54.35 -152.15 54.65 -152.1 54.9 -152.1 56.55 -151.6 57.8 -150.5 58.5 -148.9" fill="#f7c833" fill-rule="evenodd" stroke="none"/>
    <path d="M53.65 -152.55 L54.35 -152.65 54.7 -152.65 54.9 -152.6 56.75 -152.05 58.1 -150.85 58.9 -149.05 59.1 -146.85 58.95 -141.1 53.8 -141.2 53.8 -140.9 48.75 -140.9 48.15 -156.9 53.6 -156.9 53.65 -152.55 M54.35 -151.6 L53.5 -151.4 52.8 -150.8 52.75 -155.9 49.05 -155.85 49.55 -141.95 52.95 -141.95 52.85 -147.85 52.95 -148.1 53.1 -148.25 53.25 -148.35 53.85 -148.1 54.25 -147.55 54.4 -146.8 54.4 -142.2 58.1 -142.15 58.25 -146.85 58.05 -148.75 57.45 -150.2 56.4 -151.15 54.8 -151.6 54.35 -151.6" fill="#234da9" fill-rule="evenodd" stroke="none"/>
    <path d="M67.9 -149.05 L68.25 -147.4 68.3 -146.95 65.5 -146.0 68.45 -145.15 68.2 -144.55 67.4 -143.0 66.35 -141.75 65.05 -140.9 63.5 -140.6 Q62.6 -140.6 61.65 -141.0 60.7 -141.45 60.0 -142.15 59.25 -142.9 58.8 -143.95 58.35 -144.9 58.35 -146.2 58.35 -147.6 58.75 -148.6 59.1 -149.7 59.8 -150.65 L61.4 -152.05 Q62.35 -152.6 63.4 -152.6 L64.2 -152.5 64.9 -152.3 66.2 -151.55 67.2 -150.45 67.9 -149.05" fill="#f7c833" fill-rule="evenodd" stroke="none"/>
    <path d="M63.4 -148.6 L63.75 -148.6 64.05 -148.5 64.3 -148.3 64.5 -147.9 62.15 -147.0 62.25 -147.6 62.5 -148.1 62.9 -148.45 63.4 -148.6 M63.4 -152.1 Q62.55 -152.1 61.55 -151.6 L60.1 -150.3 59.1 -148.45 Q58.75 -147.2 58.75 -146.2 58.75 -145.1 59.2 -144.15 59.6 -143.2 60.25 -142.55 60.95 -141.85 61.8 -141.5 L63.5 -141.1 64.9 -141.4 Q65.6 -141.6 66.1 -142.15 L67.1 -143.3 67.85 -144.75 64.9 -145.6 64.4 -145.0 63.65 -144.75 63.0 -144.95 62.5 -145.5 67.85 -147.3 67.5 -148.85 66.85 -150.15 66.0 -151.15 64.8 -151.8 64.1 -152.0 63.4 -152.1 M58.35 -148.8 Q58.65 -149.85 59.45 -151.0 L61.2 -152.55 Q62.3 -153.1 63.4 -153.1 L64.25 -153.05 65.05 -152.8 Q65.95 -152.45 66.45 -152.0 L67.55 -150.8 68.3 -149.25 68.7 -147.45 68.8 -146.55 67.2 -146.0 69.05 -145.5 68.6 -144.35 67.75 -142.65 66.6 -141.3 Q66.05 -140.75 65.2 -140.4 L63.5 -140.1 Q62.5 -140.1 61.5 -140.55 L59.7 -141.75 Q58.85 -142.65 58.45 -143.7 57.9 -144.9 57.9 -146.2 57.9 -147.6 58.35 -148.8" fill="#234da9" fill-rule="evenodd" stroke="none"/>
    <path d="M81.15 -141.9 L72.65 -141.4 71.95 -155.85 77.1 -156.0 77.25 -148.15 81.55 -148.75 81.15 -141.9" fill="#f7c833" fill-rule="evenodd" stroke="none"/>
    <path d="M76.65 -155.5 L72.4 -155.35 73.05 -141.95 80.75 -142.4 81.1 -148.15 76.8 -147.55 76.65 -155.5 M82.0 -149.3 L81.55 -141.45 73.1 -140.9 72.25 -140.85 71.5 -156.4 77.5 -156.5 77.65 -148.7 82.0 -149.3" fill="#234da9" fill-rule="evenodd" stroke="none"/>
    <path d="M85.35 -151.8 L86.3 -151.7 86.6 -151.6 86.6 -152.1 90.9 -152.15 91.3 -141.45 87.05 -141.4 87.0 -141.6 86.6 -141.45 85.55 -141.35 84.8 -141.4 84.1 -141.6 Q82.65 -142.15 81.95 -143.2 81.25 -144.35 81.1 -146.05 L81.1 -146.6 81.25 -148.15 81.7 -149.45 82.5 -150.55 Q82.95 -151.05 83.6 -151.35 L84.4 -151.7 85.25 -151.8 85.35 -151.8 M86.8 -147.5 L86.45 -147.45 85.95 -147.25 85.65 -146.95 85.55 -146.45 85.6 -146.1 85.75 -145.9 Q85.9 -145.75 86.1 -145.75 L86.55 -145.7 86.85 -145.7 86.8 -147.5" fill="#f7c833" fill-rule="evenodd" stroke="none"/>
    <path d="M86.35 -146.9 L86.15 -146.8 86.0 -146.65 85.95 -146.45 85.95 -146.35 86.0 -146.3 86.15 -146.25 86.4 -146.2 86.35 -146.9 M86.4 -147.95 L87.05 -148.0 87.2 -148.0 87.3 -145.3 86.95 -145.2 86.0 -145.25 85.55 -145.45 85.25 -145.8 Q85.1 -146.1 85.1 -146.45 L85.3 -147.25 85.75 -147.7 86.4 -147.95 M82.75 -150.2 L82.05 -149.2 81.65 -148.0 81.5 -146.6 81.5 -146.35 81.55 -146.1 Q81.65 -144.5 82.3 -143.55 82.95 -142.6 84.2 -142.1 L84.9 -141.9 85.55 -141.85 86.55 -141.95 87.4 -142.3 87.45 -141.9 90.85 -141.95 90.5 -151.65 87.05 -151.6 87.05 -150.95 86.2 -151.2 85.35 -151.3 85.3 -151.3 84.5 -151.2 83.75 -150.9 82.75 -150.2 M84.3 -152.2 L85.3 -152.3 85.35 -152.3 86.15 -152.25 86.15 -152.6 91.3 -152.65 91.75 -141.0 90.85 -140.95 86.6 -140.9 86.6 -140.95 85.55 -140.85 84.7 -140.9 83.95 -141.15 Q82.4 -141.6 81.65 -142.9 80.85 -144.05 80.7 -146.0 L80.65 -146.35 80.65 -146.6 Q80.65 -147.5 80.8 -148.25 L81.3 -149.75 82.2 -150.95 83.4 -151.85 84.3 -152.2" fill="#234da9" fill-rule="evenodd" stroke="none"/>
    <path d="M96.7 -151.1 L97.4 -151.15 Q98.8 -151.05 99.55 -150.2 100.25 -149.45 100.25 -147.8 L100.2 -141.85 96.0 -141.6 96.1 -146.9 95.95 -147.45 Q95.95 -147.6 95.6 -147.6 L95.25 -147.6 95.35 -141.6 91.0 -141.45 90.75 -151.25 95.25 -151.5 95.25 -150.75 96.7 -151.1" fill="#f7c833" fill-rule="evenodd" stroke="none"/>
    <path d="M96.05 -150.5 L94.85 -150.0 94.8 -151.0 91.15 -150.8 91.4 -141.95 94.95 -142.05 94.85 -147.95 95.2 -148.05 95.6 -148.1 Q96.1 -148.1 96.3 -147.75 L96.55 -146.9 96.45 -142.1 99.75 -142.3 99.85 -147.8 Q99.85 -149.15 99.25 -149.9 98.65 -150.65 97.4 -150.65 L96.75 -150.65 96.05 -150.5 M90.3 -151.75 L91.1 -151.8 95.65 -152.0 95.65 -151.35 95.85 -151.4 96.65 -151.55 97.4 -151.6 Q98.95 -151.6 99.85 -150.55 100.7 -149.45 100.7 -147.8 L100.6 -141.45 99.8 -141.35 96.45 -141.15 95.55 -141.1 90.6 -140.95 90.3 -151.75" fill="#234da9" fill-rule="evenodd" stroke="none"/>
    <path d="M110.75 -154.25 L110.1 -141.95 105.55 -141.95 105.55 -142.35 105.15 -142.2 104.05 -141.95 103.95 -141.95 103.2 -142.05 102.45 -142.3 101.3 -143.0 100.5 -144.05 Q100.2 -144.65 100.05 -145.35 99.9 -146.0 99.9 -146.75 99.9 -147.95 100.2 -148.85 L101.05 -150.45 102.5 -151.45 104.35 -151.7 105.35 -151.55 105.75 -151.45 105.8 -154.85 110.75 -154.25 M105.35 -147.55 L104.95 -147.5 104.65 -147.4 104.5 -147.2 104.45 -146.85 104.55 -146.35 104.9 -146.05 105.4 -145.85 105.6 -145.8 105.65 -147.55 105.35 -147.55" fill="#f7c833" fill-rule="evenodd" stroke="none"/>
    <path d="M105.0 -147.05 L104.85 -147.0 104.85 -146.85 104.9 -146.6 105.1 -146.45 105.2 -146.35 105.25 -147.1 105.0 -147.05 M105.35 -148.0 L106.1 -147.9 106.05 -145.35 105.35 -145.4 104.7 -145.65 104.2 -146.1 104.0 -146.85 104.1 -147.4 104.4 -147.75 104.85 -147.95 105.35 -148.0 M106.25 -154.35 L106.15 -150.8 105.3 -151.1 104.35 -151.25 102.65 -151.0 101.35 -150.15 Q100.8 -149.4 100.6 -148.7 100.35 -148.0 100.35 -146.75 L100.45 -145.45 100.85 -144.3 101.6 -143.35 Q101.9 -143.05 102.6 -142.7 L103.3 -142.5 104.0 -142.4 104.05 -142.4 105.05 -142.6 106.0 -143.0 105.95 -142.4 109.7 -142.35 110.3 -153.9 106.25 -154.35 M99.8 -149.0 Q100.05 -149.95 100.75 -150.8 L102.35 -151.85 104.35 -152.15 105.35 -152.0 105.4 -155.3 111.2 -154.65 110.5 -141.5 105.1 -141.5 105.1 -141.7 104.05 -141.5 103.95 -141.5 103.1 -141.6 102.3 -141.85 101.0 -142.65 Q100.45 -143.2 100.15 -143.85 L99.65 -145.25 Q99.5 -145.9 99.5 -146.75 99.5 -148.0 99.8 -149.0" fill="#234da9" fill-rule="evenodd" stroke="none"/>
    <path d="M37.2 -136.8 L39.1 -135.6 39.4 -135.3 36.75 -130.15 36.35 -130.6 35.8 -131.05 35.05 -131.25 34.5 -131.2 34.1 -130.9 33.8 -130.5 33.7 -129.95 33.8 -129.35 34.1 -128.9 34.55 -128.6 35.1 -128.45 35.45 -128.45 35.9 -128.5 37.05 -128.8 39.1 -123.05 36.8 -122.55 35.8 -122.5 34.8 -122.55 33.55 -122.85 32.35 -123.35 30.5 -124.7 Q29.65 -125.55 29.25 -126.4 28.75 -127.25 28.5 -128.4 L28.25 -130.6 28.25 -130.8 28.4 -132.3 28.8 -133.75 29.9 -135.45 31.45 -136.55 Q32.15 -136.95 33.2 -137.2 L35.15 -137.3 36.15 -137.15 37.2 -136.8" fill="#f7c833" fill-rule="evenodd" stroke="none"/>
    <path d="M33.3 -136.7 L31.65 -136.15 Q30.9 -135.8 30.2 -135.1 L29.2 -133.5 28.8 -132.15 28.7 -130.75 28.7 -130.55 28.9 -128.45 Q29.15 -127.45 29.6 -126.6 29.95 -125.85 30.75 -125.0 L32.45 -123.8 33.6 -123.3 34.8 -123.05 35.75 -123.0 36.7 -123.05 38.55 -123.4 36.8 -128.2 36.0 -128.0 35.1 -127.95 34.45 -128.15 Q34.1 -128.3 33.85 -128.6 L33.4 -129.2 Q33.25 -129.55 33.25 -130.0 L33.4 -130.75 33.8 -131.3 34.35 -131.65 35.05 -131.7 35.9 -131.5 36.65 -130.9 38.85 -135.2 38.05 -135.85 37.1 -136.3 36.1 -136.65 35.15 -136.8 33.3 -136.7 M33.15 -137.65 L35.15 -137.8 36.25 -137.6 37.35 -137.25 38.4 -136.7 39.95 -135.4 36.85 -129.35 36.1 -130.25 35.65 -130.6 35.05 -130.75 34.65 -130.7 34.35 -130.55 34.2 -130.25 34.1 -129.9 34.15 -129.55 34.35 -129.25 34.7 -129.05 35.1 -128.95 35.4 -128.95 35.8 -128.95 37.3 -129.4 39.65 -122.7 36.9 -122.05 35.85 -122.0 34.8 -122.1 33.5 -122.4 Q32.6 -122.7 32.2 -122.95 31.0 -123.6 30.25 -124.35 29.4 -125.2 28.9 -126.2 28.35 -127.1 28.1 -128.35 L27.85 -130.65 27.85 -130.9 Q27.85 -131.65 28.0 -132.4 28.05 -133.1 28.4 -133.95 28.85 -135.05 29.6 -135.8 L31.25 -137.0 Q32.0 -137.4 33.15 -137.65" fill="#234da9" fill-rule="evenodd" stroke="none"/>
    <path d="M38.65 -136.9 L43.2 -136.6 43.25 -132.15 43.35 -132.2 44.35 -132.4 44.9 -132.3 46.55 -131.7 Q47.2 -131.4 47.8 -130.6 L48.5 -128.95 48.7 -126.95 48.55 -121.85 44.0 -122.25 44.05 -126.5 44.0 -127.15 43.85 -127.75 43.6 -128.15 43.3 -128.25 43.4 -122.05 39.2 -122.45 38.65 -136.9" fill="#f7c833" fill-rule="evenodd" stroke="none"/>
    <path d="M39.1 -136.35 L39.6 -122.9 42.95 -122.55 42.85 -128.35 43.1 -128.7 43.3 -128.75 43.9 -128.5 44.25 -127.9 44.4 -127.2 44.4 -122.7 48.1 -122.35 48.25 -127.0 48.1 -128.85 47.45 -130.3 46.4 -131.25 44.85 -131.8 44.35 -131.9 43.55 -131.7 42.85 -131.2 42.75 -136.1 39.1 -136.35 M38.8 -122.0 L38.2 -137.4 42.8 -137.1 43.6 -137.05 43.65 -132.8 44.35 -132.9 44.7 -132.85 44.9 -132.8 46.75 -132.15 48.1 -130.9 Q48.7 -130.1 48.9 -129.1 L49.15 -126.95 49.15 -126.4 49.1 -126.05 48.95 -121.3 43.8 -121.75 43.85 -121.5 42.95 -121.55 38.8 -122.0" fill="#234da9" fill-rule="evenodd" stroke="none"/>
    <path d="M48.35 -126.75 Q48.35 -127.55 48.5 -128.25 L48.95 -129.55 49.75 -130.65 50.85 -131.4 51.65 -131.7 52.55 -131.85 52.65 -131.85 53.55 -131.7 53.9 -131.6 53.85 -132.1 58.2 -132.15 58.6 -120.85 54.3 -121.1 54.3 -121.3 53.85 -121.2 52.85 -121.1 52.05 -121.25 51.35 -121.5 Q49.95 -122.15 49.2 -123.3 48.6 -124.3 48.35 -126.15 L48.35 -126.75 M53.2 -127.15 L52.9 -126.85 52.8 -126.35 52.85 -125.95 53.05 -125.75 53.35 -125.6 53.8 -125.55 54.1 -125.55 54.05 -127.35 53.7 -127.35 53.2 -127.15" fill="#f7c833" fill-rule="evenodd" stroke="none"/>
    <path d="M53.2 -126.3 L53.25 -126.2 53.45 -126.1 53.65 -126.05 53.65 -126.8 53.4 -126.7 53.25 -126.55 53.2 -126.3 M53.65 -127.85 L54.3 -127.9 54.45 -127.85 54.55 -125.05 54.2 -125.0 53.8 -125.0 53.3 -125.1 52.8 -125.3 52.5 -125.7 Q52.35 -126.0 52.35 -126.35 L52.55 -127.15 53.0 -127.6 53.65 -127.85 M48.1 -128.4 L48.6 -129.85 49.45 -131.05 50.65 -131.9 51.55 -132.2 52.55 -132.35 52.65 -132.35 53.4 -132.25 53.4 -132.65 58.6 -132.7 59.05 -120.35 58.15 -120.4 54.7 -120.55 53.9 -120.6 53.9 -120.65 52.85 -120.6 52.0 -120.75 51.25 -121.05 Q49.75 -121.6 48.9 -123.0 48.1 -124.25 47.95 -126.15 L47.9 -126.5 47.9 -126.75 48.1 -128.4 M48.9 -128.1 L48.8 -126.7 48.8 -126.2 Q48.85 -124.7 49.55 -123.55 50.2 -122.55 51.5 -122.0 L52.15 -121.75 52.85 -121.65 53.8 -121.7 54.7 -122.0 54.7 -121.6 58.15 -121.4 57.75 -131.65 54.3 -131.6 54.35 -130.9 53.5 -131.2 52.65 -131.3 52.55 -131.35 51.75 -131.2 51.0 -130.95 50.0 -130.25 49.3 -129.3 48.9 -128.1" fill="#234da9" fill-rule="evenodd" stroke="none"/>
    <path d="M58.3 -133.2 L57.65 -133.35 57.5 -136.6 62.9 -136.8 63.3 -120.9 58.35 -120.75 58.3 -133.2" fill="#f7c833" fill-rule="evenodd" stroke="none"/>
    <path d="M57.95 -136.1 L58.1 -133.8 58.7 -133.65 58.75 -121.3 62.85 -121.4 62.45 -136.25 57.95 -136.1 M57.05 -137.1 L57.95 -137.15 63.3 -137.3 63.75 -120.4 62.9 -120.35 57.9 -120.25 57.85 -132.8 57.25 -132.95 57.05 -137.1" fill="#234da9" fill-rule="evenodd" stroke="none"/>
    <path d="M63.1 -133.15 L62.45 -133.3 62.3 -136.55 67.7 -136.8 68.1 -120.9 63.15 -120.65 63.1 -133.15" fill="#f7c833" fill-rule="evenodd" stroke="none"/>
    <path d="M62.85 -133.75 L63.5 -133.6 63.55 -121.2 67.65 -121.4 67.25 -136.25 62.75 -136.05 62.85 -133.75 M62.65 -132.75 L62.05 -132.85 61.85 -137.05 67.25 -137.3 68.1 -137.35 68.55 -120.4 67.7 -120.35 62.7 -120.15 62.65 -132.75" fill="#234da9" fill-rule="evenodd" stroke="none"/>
    <path d="M70.75 -131.75 Q71.7 -132.3 72.75 -132.3 L73.55 -132.25 74.25 -132.05 75.55 -131.35 76.55 -130.25 77.25 -128.9 77.6 -127.3 77.65 -126.85 74.85 -125.75 77.8 -125.05 77.55 -124.45 76.8 -122.9 75.7 -121.6 Q75.2 -121.1 74.4 -120.7 73.55 -120.35 72.85 -120.35 71.85 -120.35 71.0 -120.7 L69.35 -121.8 Q68.6 -122.55 68.15 -123.55 67.7 -124.6 67.7 -125.85 67.7 -127.05 68.1 -128.25 68.45 -129.35 69.15 -130.3 L70.75 -131.75 M73.0 -125.05 Q73.35 -125.05 73.55 -125.2 L73.7 -125.35 72.9 -125.05 73.0 -125.05" fill="#f7c833" fill-rule="evenodd" stroke="none"/>
    <path d="M73.65 -128.05 L73.85 -127.65 71.5 -126.7 71.6 -127.3 71.85 -127.8 72.25 -128.15 72.8 -128.3 73.1 -128.3 73.4 -128.25 73.65 -128.05 M67.25 -125.85 Q67.25 -127.25 67.7 -128.45 68.05 -129.6 68.85 -130.65 69.45 -131.55 70.55 -132.2 71.6 -132.8 72.75 -132.8 L73.6 -132.75 74.4 -132.55 Q75.25 -132.25 75.8 -131.75 L76.9 -130.6 77.65 -129.1 78.05 -127.35 78.15 -126.5 76.55 -125.9 78.4 -125.45 77.95 -124.25 77.1 -122.6 Q76.7 -121.85 75.95 -121.2 75.3 -120.55 74.55 -120.25 L72.85 -119.85 70.85 -120.2 Q69.85 -120.65 69.1 -121.4 68.2 -122.3 67.8 -123.3 67.25 -124.55 67.25 -125.85 M69.45 -129.95 Q68.75 -129.0 68.5 -128.1 68.15 -127.05 68.15 -125.85 68.15 -124.65 68.55 -123.8 68.9 -122.95 69.65 -122.2 L71.15 -121.2 72.85 -120.85 Q73.75 -120.95 74.25 -121.2 L75.45 -122.0 76.45 -123.2 77.2 -124.65 74.25 -125.4 73.75 -124.75 73.0 -124.5 72.35 -124.65 71.85 -125.2 Q74.35 -126.05 77.2 -127.2 L76.85 -128.7 76.25 -129.95 75.35 -130.9 Q74.85 -131.3 74.15 -131.55 L72.75 -131.8 Q71.7 -131.7 70.95 -131.25 70.1 -130.8 69.45 -129.95" fill="#234da9" fill-rule="evenodd" stroke="none"/>
    <path d="M81.7 -131.05 L82.4 -131.35 83.15 -131.6 83.85 -131.7 Q85.3 -131.75 86.05 -130.85 86.75 -130.0 86.75 -128.35 L86.65 -122.0 82.45 -121.45 82.55 -127.1 82.4 -127.65 82.05 -127.8 81.75 -127.75 81.7 -127.75 81.8 -121.4 77.4 -121.1 77.15 -131.35 81.65 -131.9 81.7 -131.05" fill="#f7c833" fill-rule="evenodd" stroke="none"/>
    <path d="M82.1 -132.45 L82.1 -131.8 83.85 -132.2 Q85.4 -132.25 86.35 -131.25 87.2 -130.15 87.2 -128.4 L87.1 -121.55 82.0 -120.9 82.0 -120.95 77.0 -120.55 76.7 -131.85 82.1 -132.45 M82.5 -130.9 L81.25 -130.25 81.25 -131.35 77.6 -130.9 77.85 -121.65 81.35 -121.9 81.3 -128.1 81.65 -128.25 82.05 -128.3 Q82.5 -128.4 82.75 -128.0 L83.0 -127.1 82.9 -122.0 86.25 -122.4 86.35 -128.3 Q86.35 -129.85 85.7 -130.5 85.1 -131.2 83.85 -131.15 L83.2 -131.1 82.5 -130.9" fill="#234da9" fill-rule="evenodd" stroke="none"/>
    <path d="M88.9 -131.45 Q89.7 -131.9 90.65 -132.0 L91.8 -131.9 92.2 -131.8 92.2 -132.25 96.7 -132.6 96.65 -124.35 96.55 -122.95 96.2 -121.6 95.6 -120.35 94.65 -119.15 93.85 -118.45 Q93.4 -118.1 92.95 -117.9 L92.0 -117.55 91.1 -117.35 Q90.35 -117.2 89.65 -117.35 L88.2 -117.7 87.95 -117.8 88.1 -121.95 88.7 -121.65 89.4 -121.4 90.1 -121.35 90.45 -121.45 Q90.65 -121.45 90.85 -121.6 L91.25 -121.75 91.5 -121.95 91.1 -121.9 89.3 -122.0 Q88.5 -122.15 87.8 -122.75 87.2 -123.25 86.75 -124.2 86.4 -124.95 86.4 -126.3 86.4 -127.35 86.7 -128.35 L87.55 -130.15 88.9 -131.45 M90.6 -126.9 L90.5 -126.45 90.55 -126.1 90.8 -125.95 91.15 -125.85 91.65 -125.85 92.0 -126.0 92.2 -126.1 92.2 -127.65 92.05 -127.7 91.7 -127.7 91.25 -127.55 90.85 -127.3 90.6 -126.9" fill="#f7c833" fill-rule="evenodd" stroke="none"/>
    <path d="M90.95 -126.7 L90.95 -126.4 91.2 -126.35 91.65 -126.35 91.8 -126.4 91.8 -126.8 91.75 -127.2 91.7 -127.2 91.4 -127.1 91.15 -126.95 90.95 -126.7 M90.25 -127.1 L90.6 -127.65 91.15 -128.0 91.7 -128.2 92.2 -128.15 92.6 -128.0 92.65 -125.85 92.15 -125.55 91.65 -125.4 91.1 -125.35 90.6 -125.45 90.25 -125.8 Q90.1 -126.0 90.1 -126.4 L90.25 -127.1 M88.7 -131.85 Q89.55 -132.4 90.65 -132.5 L91.75 -132.4 91.75 -132.7 92.65 -132.75 97.15 -133.1 96.95 -122.9 96.6 -121.45 95.95 -120.1 94.95 -118.8 94.05 -118.05 93.1 -117.45 92.05 -117.05 91.1 -116.85 Q90.35 -116.7 89.5 -116.85 L88.05 -117.2 87.5 -117.4 87.65 -122.2 87.55 -122.3 Q86.75 -122.95 86.4 -123.95 85.95 -124.9 85.95 -126.25 85.95 -127.2 86.3 -128.5 86.6 -129.55 87.2 -130.45 87.85 -131.35 88.7 -131.85 M90.65 -131.5 Q89.9 -131.5 89.05 -131.0 L87.85 -129.85 87.1 -128.2 Q86.8 -127.3 86.8 -126.35 86.8 -125.35 87.15 -124.4 87.6 -123.55 88.1 -123.15 88.55 -122.7 89.45 -122.45 L91.1 -122.4 91.8 -122.55 92.45 -122.9 92.2 -122.2 91.75 -121.6 91.4 -121.35 90.95 -121.1 90.1 -120.85 89.25 -120.9 Q88.9 -120.95 88.5 -121.2 L88.4 -118.15 89.7 -117.85 91.1 -117.8 91.95 -118.0 92.85 -118.35 93.7 -118.85 94.4 -119.45 95.25 -120.6 95.8 -121.7 96.1 -122.95 96.2 -124.3 96.3 -132.05 92.6 -131.8 92.6 -131.1 91.65 -131.45 90.65 -131.5" fill="#234da9" fill-rule="evenodd" stroke="none"/>
    <path d="M105.7 -131.25 L106.05 -129.9 106.1 -129.5 103.35 -128.3 106.25 -128.0 105.25 -125.95 104.2 -124.7 102.9 -123.75 101.35 -123.2 99.55 -123.3 Q98.6 -123.55 97.9 -124.1 97.2 -124.65 96.75 -125.55 96.3 -126.45 96.3 -127.6 96.3 -128.85 96.65 -129.85 97.05 -130.95 97.7 -131.8 L99.3 -133.25 Q100.3 -133.85 101.3 -133.9 L102.05 -133.9 102.75 -133.8 Q103.5 -133.65 104.05 -133.25 L105.05 -132.4 105.7 -131.25" fill="#f7c833" fill-rule="evenodd" stroke="none"/>
    <path d="M101.9 -130.3 L102.15 -130.15 102.35 -129.85 100.05 -128.75 100.15 -129.3 100.4 -129.8 100.8 -130.15 101.3 -130.35 101.6 -130.35 101.9 -130.3 M102.1 -134.35 L102.9 -134.25 104.3 -133.65 105.35 -132.75 106.1 -131.5 106.45 -130.0 106.55 -129.25 105.0 -128.55 106.85 -128.4 106.4 -127.3 105.55 -125.75 104.45 -124.4 Q103.75 -123.7 103.05 -123.35 102.2 -122.9 101.35 -122.75 L99.4 -122.85 Q98.45 -123.05 97.65 -123.7 96.95 -124.2 96.35 -125.25 95.85 -126.4 95.85 -127.55 95.85 -128.7 96.25 -130.0 L97.4 -132.1 99.1 -133.65 Q100.2 -134.3 101.3 -134.35 L102.1 -134.35 M102.65 -133.35 L101.95 -133.45 101.3 -133.45 99.45 -132.85 98.0 -131.5 Q97.45 -130.8 97.05 -129.7 96.7 -128.8 96.7 -127.65 96.7 -126.7 97.1 -125.8 97.6 -124.95 98.2 -124.5 98.9 -123.95 99.7 -123.75 L101.35 -123.7 102.75 -124.15 103.95 -125.0 104.9 -126.2 105.65 -127.6 102.75 -127.9 102.25 -127.25 Q101.95 -127.05 101.55 -126.95 L100.9 -127.0 100.35 -127.45 105.65 -129.75 105.3 -131.05 104.7 -132.1 103.8 -132.85 102.65 -133.35" fill="#234da9" fill-rule="evenodd" stroke="none"/>
  </g>
</svg>
