<?xml version="1.0" encoding="UTF-8" standalone="no"?>
<svg xmlns:ffdec="https://www.free-decompiler.com/flash" xmlns:xlink="http://www.w3.org/1999/xlink" ffdec:objectType="shape" height="18.35px" width="25.4px" xmlns="http://www.w3.org/2000/svg">
  <g transform="matrix(1.0, 0.0, 0.0, 1.0, 350.95, 105.0)">
    <path d="M-350.95 -91.5 L-340.25 -91.5 -340.2 -91.25 -340.25 -91.0 -350.95 -91.0 -350.95 -91.5" fill="#bd9d00" fill-rule="evenodd" stroke="none"/>
    <path d="M-345.6 -96.15 Q-343.45 -96.15 -341.9 -94.8 -340.35 -93.45 -340.25 -91.5 L-350.95 -91.5 Q-350.85 -93.45 -349.3 -94.8 -347.75 -96.15 -345.6 -96.15" fill="#ffd500" fill-rule="evenodd" stroke="none"/>
    <path d="M-330.2 -90.8 Q-330.2 -89.1 -331.25 -87.85 -332.3 -86.65 -333.75 -86.65 -335.2 -86.65 -336.25 -87.85 -337.3 -89.1 -337.3 -90.8 L-337.3 -90.9 -330.2 -90.9 -330.2 -90.8" fill="#ffffff" fill-rule="evenodd" stroke="none"/>
    <path d="M-333.5 -90.0 L-333.2 -90.8 Q-332.95 -91.15 -332.55 -91.15 -332.15 -91.15 -331.85 -90.8 -331.6 -90.5 -331.6 -90.0 -331.6 -89.55 -331.85 -89.2 -332.15 -88.9 -332.55 -88.9 -332.95 -88.9 -333.2 -89.2 L-333.5 -90.0" fill="#000000" fill-rule="evenodd" stroke="none"/>
    <path d="M-330.25 -91.35 L-330.2 -90.9 -337.3 -90.9 -337.25 -91.35 -330.25 -91.35" fill="#bd9d00" fill-rule="evenodd" stroke="none"/>
    <path d="M-333.75 -94.95 Q-332.4 -94.95 -331.4 -93.9 -330.4 -92.85 -330.25 -91.35 L-337.25 -91.35 Q-337.1 -92.85 -336.1 -93.9 -335.1 -94.95 -333.75 -94.95" fill="#ffd500" fill-rule="evenodd" stroke="none"/>
    <path d="M-334.95 -100.65 Q-334.95 -102.45 -333.55 -103.7 -332.2 -105.0 -330.25 -105.0 -328.3 -105.0 -326.9 -103.7 -325.55 -102.45 -325.55 -100.65 -325.55 -98.9 -326.9 -97.6 -328.3 -96.35 -330.25 -96.35 -332.2 -96.35 -333.55 -97.6 -334.95 -98.9 -334.95 -100.65" fill="#ffffff" fill-rule="evenodd" stroke="none"/>
    <path d="M-329.05 -99.75 L-328.8 -100.55 -328.15 -100.85 Q-327.2 -100.85 -327.2 -99.75 -327.2 -99.3 -327.45 -98.95 -327.75 -98.65 -328.15 -98.65 -328.5 -98.65 -328.8 -98.95 L-329.05 -99.75" fill="#000000" fill-rule="evenodd" stroke="none"/>
  </g>
</svg>
