<?xml version="1.0" encoding="UTF-8" standalone="no"?>
<svg xmlns:ffdec="https://www.free-decompiler.com/flash" xmlns:xlink="http://www.w3.org/1999/xlink" ffdec:objectType="shape" height="22.0px" width="150.25px" xmlns="http://www.w3.org/2000/svg">
  <g transform="matrix(1.0, 0.0, 0.0, 1.0, 73.4, -34.5)">
    <path d="M74.4 40.2 L74.4 53.35 Q74.4 54.65 73.5 55.6 72.55 56.5 71.25 56.5 L-70.3 56.5 Q-71.6 56.5 -72.5 55.6 -73.4 54.65 -73.4 53.35 L-73.4 40.2 Q-73.4 38.95 -72.5 38.0 -71.55 37.1 -70.3 37.1 L71.25 37.1 Q72.55 37.1 73.5 38.0 74.4 38.9 74.4 40.2" fill="#000000" fill-opacity="0.14901961" fill-rule="evenodd" stroke="none"/>
    <path d="M75.85 38.6 L75.85 51.75 Q75.85 53.05 74.95 54.0 74.0 54.9 72.7 54.9 L-68.85 54.9 Q-70.15 54.9 -71.05 54.0 -71.95 53.05 -71.95 51.75 L-71.95 38.6 Q-71.95 37.35 -71.05 36.4 -70.1 35.5 -68.85 35.5 L72.7 35.5 Q74.0 35.5 74.95 36.4 75.85 37.3 75.85 38.6" fill="#fee052" fill-rule="evenodd" stroke="none"/>
    <path d="M75.85 38.6 L75.85 51.75 Q75.85 53.05 74.95 54.0 74.0 54.9 72.7 54.9 L-68.85 54.9 Q-70.15 54.9 -71.05 54.0 -71.95 53.05 -71.95 51.75 L-71.95 38.6 Q-71.95 37.35 -71.05 36.4 -70.1 35.5 -68.85 35.5 L72.7 35.5 Q74.0 35.5 74.95 36.4 75.85 37.3 75.85 38.6 Z" fill="none" stroke="#000000" stroke-linecap="butt" stroke-linejoin="miter-clip" stroke-miterlimit="4.0" stroke-opacity="0.29803923" stroke-width="2.0"/>
    <path d="M72.7 35.8 Q73.75 35.8 74.5 36.55 75.2 37.3 75.2 38.3 L75.2 40.9 Q42.25 48.35 1.95 48.35 -38.3 48.35 -71.35 40.9 L-71.35 38.3 Q-71.35 37.3 -70.6 36.55 -69.9 35.8 -68.85 35.8 L72.7 35.8" fill="url(#gradient0)" fill-rule="evenodd" stroke="none"/>
  </g>
  <defs>
    <linearGradient gradientTransform="matrix(0.0, 0.0096, 0.0096, 0.0, 1.95, 44.9)" gradientUnits="userSpaceOnUse" id="gradient0" spreadMethod="pad" x1="-819.2" x2="819.2">
      <stop offset="0.011764705882352941" stop-color="#ffffff" stop-opacity="0.29803923"/>
      <stop offset="1.0" stop-color="#ffffff" stop-opacity="0.0"/>
    </linearGradient>
  </defs>
</svg>
