<?xml version="1.0" encoding="UTF-8" standalone="no"?>
<svg xmlns:ffdec="https://www.free-decompiler.com/flash" xmlns:xlink="http://www.w3.org/1999/xlink" ffdec:objectType="shape" height="141.9px" width="578.0px" xmlns="http://www.w3.org/2000/svg">
  <g transform="matrix(1.0, 0.0, 0.0, 1.0, -0.8, 8.3)">
    <path d="M575.6 11.9 L575.6 119.85 Q575.6 124.0 572.65 126.9 569.8 129.85 565.65 129.85 L13.5 129.85 Q9.35 129.85 6.45 126.9 3.55 124.0 3.55 119.85 L3.55 11.9 Q3.55 7.75 6.45 4.8 9.35 1.9 13.5 1.9 L565.65 1.9 Q569.8 1.9 572.65 4.8 575.6 7.75 575.6 11.9" fill="#3799df" fill-rule="evenodd" stroke="none"/>
    <path d="M576.35 13.75 L576.35 120.05 Q576.35 124.5 573.2 127.7 570.1 130.85 565.65 130.85 L14.3 130.85 Q9.85 130.85 6.7 127.7 3.55 124.5 3.55 120.05 L3.55 13.75 Q3.55 9.3 6.7 6.1 9.85 2.95 14.3 2.95 L565.65 2.95 Q570.1 2.95 573.2 6.1 576.35 9.3 576.35 13.75" fill="url(#gradient0)" fill-rule="evenodd" stroke="none"/>
    <path d="M183.75 8.95 L175.1 9.8 174.75 6.3 176.8 6.1 176.1 -2.2 173.25 -1.95 173.0 -5.5 182.55 -6.3 182.85 -2.75 179.6 -2.45 180.3 5.75 183.4 5.45 183.75 8.95" fill="#d2edff" fill-rule="evenodd" stroke="none"/>
    <path d="M183.75 8.95 L175.1 9.8 174.75 6.3 176.8 6.1 176.1 -2.2 173.25 -1.95 173.0 -5.5 182.55 -6.3 182.85 -2.75 179.6 -2.45 180.3 5.75 183.4 5.45 183.75 8.95 Z" fill="none" stroke="#085da4" stroke-linecap="butt" stroke-linejoin="miter-clip" stroke-miterlimit="4.0" stroke-width="1.0"/>
    <path d="M197.2 2.5 Q198.2 3.5 198.2 4.75 198.2 7.65 193.85 9.75 191.55 10.8 188.55 11.0 L188.2 7.5 191.65 6.8 Q193.85 6.15 194.5 5.0 194.5 4.65 192.65 4.55 L190.4 4.55 Q183.95 4.55 183.95 0.8 183.95 -1.25 186.15 -2.9 187.75 -4.1 190.2 -4.85 L194.65 -5.55 197.05 -5.4 196.65 -1.9 194.75 -2.0 Q190.7 -2.0 188.05 0.1 L187.55 0.65 189.75 1.05 193.7 1.2 Q196.05 1.5 197.2 2.5" fill="#d2edff" fill-rule="evenodd" stroke="none"/>
    <path d="M197.2 2.5 Q198.2 3.5 198.2 4.75 198.2 7.65 193.85 9.75 191.55 10.8 188.55 11.0 L188.2 7.5 191.65 6.8 Q193.85 6.15 194.5 5.0 194.5 4.65 192.65 4.55 L190.4 4.55 Q183.95 4.55 183.95 0.8 183.95 -1.25 186.15 -2.9 187.75 -4.1 190.2 -4.85 L194.65 -5.55 197.05 -5.4 196.65 -1.9 194.75 -2.0 Q190.7 -2.0 188.05 0.1 L187.55 0.65 189.75 1.05 193.7 1.2 Q196.05 1.5 197.2 2.5 Z" fill="none" stroke="#085da4" stroke-linecap="butt" stroke-linejoin="miter-clip" stroke-miterlimit="4.0" stroke-width="1.0"/>
    <path d="M210.25 7.55 Q207.25 8.65 204.8 9.0 L199.3 9.3 198.5 -5.45 201.95 -5.65 202.6 5.75 Q205.55 5.55 208.95 4.25 L210.25 7.55" fill="#d2edff" fill-rule="evenodd" stroke="none"/>
    <path d="M210.25 7.55 Q207.25 8.65 204.8 9.0 L199.3 9.3 198.5 -5.45 201.95 -5.65 202.6 5.75 Q205.55 5.55 208.95 4.25 L210.25 7.55 Z" fill="none" stroke="#085da4" stroke-linecap="butt" stroke-linejoin="miter-clip" stroke-miterlimit="4.0" stroke-width="1.0"/>
    <path d="M217.9 0.8 L216.7 -2.8 215.4 -2.55 214.65 1.4 217.9 0.8 M221.6 0.7 Q223.05 5.1 223.6 8.4 L220.15 8.95 219.0 4.2 214.05 5.05 213.35 9.1 209.85 8.8 212.4 -5.55 219.1 -6.9 221.6 0.7" fill="#d2edff" fill-rule="evenodd" stroke="none"/>
    <path d="M217.9 0.8 L216.7 -2.8 215.4 -2.55 214.65 1.4 217.9 0.8 M221.6 0.7 Q223.05 5.1 223.6 8.4 L220.15 8.95 219.0 4.2 214.05 5.05 213.35 9.1 209.85 8.8 212.4 -5.55 219.1 -6.9 221.6 0.7 Z" fill="none" stroke="#085da4" stroke-linecap="butt" stroke-linejoin="miter-clip" stroke-miterlimit="4.0" stroke-width="1.0"/>
    <path d="M230.6 -0.15 L233.35 3.8 232.65 -3.95 236.1 -4.45 Q236.9 1.25 237.05 10.05 L233.95 10.9 227.85 2.1 Q228.05 5.45 229.15 9.45 L225.75 10.35 Q224.25 4.75 224.25 -2.85 L224.3 -4.75 227.9 -4.8 Q229.5 -1.8 230.6 -0.15" fill="#d2edff" fill-rule="evenodd" stroke="none"/>
    <path d="M230.6 -0.15 L233.35 3.8 232.65 -3.95 236.1 -4.45 Q236.9 1.25 237.05 10.05 L233.95 10.9 227.85 2.1 Q228.05 5.45 229.15 9.45 L225.75 10.35 Q224.25 4.75 224.25 -2.85 L224.3 -4.75 227.9 -4.8 Q229.5 -1.8 230.6 -0.15 Z" fill="none" stroke="#085da4" stroke-linecap="butt" stroke-linejoin="miter-clip" stroke-miterlimit="4.0" stroke-width="1.0"/>
    <path d="M247.95 2.3 Q247.95 0.15 245.85 -1.5 244.1 -3.0 241.8 -3.1 L242.5 5.6 242.75 5.6 246.1 5.0 Q247.95 4.1 247.95 2.3 M251.45 2.3 Q251.45 5.7 248.6 7.5 246.15 9.15 242.7 9.15 L239.2 8.9 237.9 -6.35 241.9 -6.65 Q245.45 -6.65 248.4 -3.95 251.45 -1.2 251.45 2.3" fill="#d2edff" fill-rule="evenodd" stroke="none"/>
    <path d="M247.95 2.3 Q247.95 0.15 245.85 -1.5 244.1 -3.0 241.8 -3.1 L242.5 5.6 242.75 5.6 246.1 5.0 Q247.95 4.1 247.95 2.3 M251.45 2.3 Q251.45 5.7 248.6 7.5 246.15 9.15 242.7 9.15 L239.2 8.9 237.9 -6.35 241.9 -6.65 Q245.45 -6.65 248.4 -3.95 251.45 -1.2 251.45 2.3 Z" fill="none" stroke="#085da4" stroke-linecap="butt" stroke-linejoin="miter-clip" stroke-miterlimit="4.0" stroke-width="1.0"/>
    <path d="M273.05 -6.5 Q274.4 1.3 277.55 8.3 L274.45 9.8 Q272.45 5.45 271.5 2.3 270.75 4.85 269.25 7.95 L266.45 7.45 Q264.95 4.1 264.05 1.3 263.05 4.7 262.5 9.15 L259.05 8.7 Q260.05 1.45 262.75 -5.55 L265.9 -5.3 Q267.0 -0.85 267.95 1.75 269.1 -2.05 269.65 -6.45 L273.05 -6.5" fill="#d2edff" fill-rule="evenodd" stroke="none"/>
    <path d="M273.05 -6.5 Q274.4 1.3 277.55 8.3 L274.45 9.8 Q272.45 5.45 271.5 2.3 270.75 4.85 269.25 7.95 L266.45 7.45 Q264.95 4.1 264.05 1.3 263.05 4.7 262.5 9.15 L259.05 8.7 Q260.05 1.45 262.75 -5.55 L265.9 -5.3 Q267.0 -0.85 267.95 1.75 269.1 -2.05 269.65 -6.45 L273.05 -6.5 Z" fill="none" stroke="#085da4" stroke-linecap="butt" stroke-linejoin="miter-clip" stroke-miterlimit="4.0" stroke-width="1.0"/>
    <path d="M288.8 8.8 L285.3 9.55 281.7 9.9 278.95 9.75 278.0 -5.35 287.5 -5.8 287.65 -2.3 281.75 -2.0 281.9 0.75 287.7 0.25 287.95 3.8 282.1 4.3 282.2 6.2 282.6 6.2 288.15 5.3 288.8 8.8" fill="#d2edff" fill-rule="evenodd" stroke="none"/>
    <path d="M288.8 8.8 L285.3 9.55 281.7 9.9 278.95 9.75 278.0 -5.35 287.5 -5.8 287.65 -2.3 281.75 -2.0 281.9 0.75 287.7 0.25 287.95 3.8 282.1 4.3 282.2 6.2 282.6 6.2 288.15 5.3 288.8 8.8 Z" fill="none" stroke="#085da4" stroke-linecap="butt" stroke-linejoin="miter-clip" stroke-miterlimit="4.0" stroke-width="1.0"/>
    <path d="M297.15 -1.5 Q295.35 -3.0 293.05 -3.1 L293.7 5.6 293.95 5.6 Q296.0 5.6 297.4 5.0 299.2 4.1 299.2 2.3 299.2 0.1 297.15 -1.5 M302.75 2.3 Q302.75 5.7 299.9 7.5 297.45 9.15 293.95 9.15 L290.45 8.9 289.2 -6.35 293.15 -6.65 Q296.75 -6.65 299.65 -3.95 302.75 -1.15 302.75 2.3" fill="#d2edff" fill-rule="evenodd" stroke="none"/>
    <path d="M297.15 -1.5 Q295.35 -3.0 293.05 -3.1 L293.7 5.6 293.95 5.6 Q296.0 5.6 297.4 5.0 299.2 4.1 299.2 2.3 299.2 0.1 297.15 -1.5 M302.75 2.3 Q302.75 5.7 299.9 7.5 297.45 9.15 293.95 9.15 L290.45 8.9 289.2 -6.35 293.15 -6.65 Q296.75 -6.65 299.65 -3.95 302.75 -1.15 302.75 2.3 Z" fill="none" stroke="#085da4" stroke-linecap="butt" stroke-linejoin="miter-clip" stroke-miterlimit="4.0" stroke-width="1.0"/>
    <path d="M311.6 0.8 L310.4 -2.8 309.05 -2.55 308.35 1.4 311.6 0.8 M312.85 -6.9 L315.3 0.7 Q316.75 5.1 317.3 8.4 L313.85 8.95 312.7 4.2 307.7 5.05 307.0 9.1 303.55 8.8 304.75 1.6 Q305.55 -3.2 306.1 -5.55 L312.85 -6.9" fill="#d2edff" fill-rule="evenodd" stroke="none"/>
    <path d="M311.6 0.8 L310.4 -2.8 309.05 -2.55 308.35 1.4 311.6 0.8 M312.85 -6.9 L315.3 0.7 Q316.75 5.1 317.3 8.4 L313.85 8.95 312.7 4.2 307.7 5.05 307.0 9.1 303.55 8.8 304.75 1.6 Q305.55 -3.2 306.1 -5.55 L312.85 -6.9 Z" fill="none" stroke="#085da4" stroke-linecap="butt" stroke-linejoin="miter-clip" stroke-miterlimit="4.0" stroke-width="1.0"/>
    <path d="M329.4 7.55 Q326.45 8.65 324.0 9.0 L318.45 9.3 317.65 -5.45 321.1 -5.65 321.75 5.75 Q324.7 5.55 328.15 4.25 L329.4 7.55" fill="#d2edff" fill-rule="evenodd" stroke="none"/>
    <path d="M329.4 7.55 Q326.45 8.65 324.0 9.0 L318.45 9.3 317.65 -5.45 321.1 -5.65 321.75 5.75 Q324.7 5.55 328.15 4.25 L329.4 7.55 Z" fill="none" stroke="#085da4" stroke-linecap="butt" stroke-linejoin="miter-clip" stroke-miterlimit="4.0" stroke-width="1.0"/>
    <path d="M340.4 7.55 Q337.45 8.65 335.0 9.0 L329.5 9.3 328.65 -5.45 332.15 -5.65 332.85 5.75 Q335.8 5.5 339.15 4.25 L340.4 7.55" fill="#d2edff" fill-rule="evenodd" stroke="none"/>
    <path d="M340.4 7.55 Q337.45 8.65 335.0 9.0 L329.5 9.3 328.65 -5.45 332.15 -5.65 332.85 5.75 Q335.8 5.5 339.15 4.25 L340.4 7.55 Z" fill="none" stroke="#085da4" stroke-linecap="butt" stroke-linejoin="miter-clip" stroke-miterlimit="4.0" stroke-width="1.0"/>
    <path d="M347.25 5.75 L350.3 5.45 350.65 8.95 342.05 9.8 341.7 6.3 343.75 6.1 343.05 -2.2 340.2 -1.95 339.95 -5.5 349.5 -6.3 349.75 -2.75 346.55 -2.45 347.25 5.75" fill="#d2edff" fill-rule="evenodd" stroke="none"/>
    <path d="M347.25 5.75 L350.3 5.45 350.65 8.95 342.05 9.8 341.7 6.3 343.75 6.1 343.05 -2.2 340.2 -1.95 339.95 -5.5 349.5 -6.3 349.75 -2.75 346.55 -2.45 347.25 5.75 Z" fill="none" stroke="#085da4" stroke-linecap="butt" stroke-linejoin="miter-clip" stroke-miterlimit="4.0" stroke-width="1.0"/>
    <path d="M368.15 0.0 Q368.15 3.85 365.25 6.45 362.5 9.05 358.7 9.05 355.45 9.05 353.4 6.8 351.3 4.55 351.3 1.25 351.3 -2.3 354.2 -5.05 357.1 -7.8 360.65 -7.8 363.85 -7.8 366.0 -5.5 368.15 -3.25 368.15 0.0 M354.85 1.3 Q354.85 3.3 355.85 4.35 356.85 5.5 358.75 5.5 361.1 5.5 362.85 3.9 364.6 2.35 364.6 0.05 364.6 -1.85 363.55 -3.0 362.45 -4.25 360.65 -4.25 358.5 -4.25 356.7 -2.55 354.85 -0.85 354.85 1.3" fill="#d2edff" fill-rule="evenodd" stroke="none"/>
    <path d="M368.15 0.0 Q368.15 3.85 365.25 6.45 362.5 9.05 358.7 9.05 355.45 9.05 353.4 6.8 351.3 4.55 351.3 1.25 351.3 -2.3 354.2 -5.05 357.1 -7.8 360.65 -7.8 363.85 -7.8 366.0 -5.5 368.15 -3.25 368.15 0.0 M354.85 1.3 Q354.85 3.3 355.85 4.35 356.85 5.5 358.75 5.5 361.1 5.5 362.85 3.9 364.6 2.35 364.6 0.05 364.6 -1.85 363.55 -3.0 362.45 -4.25 360.65 -4.25 358.5 -4.25 356.7 -2.55 354.85 -0.85 354.85 1.3 Z" fill="none" stroke="#085da4" stroke-linecap="butt" stroke-linejoin="miter-clip" stroke-miterlimit="4.0" stroke-width="1.0"/>
    <path d="M380.7 -4.45 Q381.55 1.3 381.65 10.05 L378.65 10.9 375.55 6.45 372.5 2.1 Q372.75 5.7 373.75 9.45 L370.35 10.35 Q368.9 4.65 368.9 -2.85 L368.9 -4.75 372.55 -4.8 Q374.3 -1.5 375.2 -0.15 L378.0 3.8 Q377.85 0.05 377.3 -3.95 L380.7 -4.45" fill="#d2edff" fill-rule="evenodd" stroke="none"/>
    <path d="M380.7 -4.45 Q381.55 1.3 381.65 10.05 L378.65 10.9 375.55 6.45 372.5 2.1 Q372.75 5.7 373.75 9.45 L370.35 10.35 Q368.9 4.65 368.9 -2.85 L368.9 -4.75 372.55 -4.8 Q374.3 -1.5 375.2 -0.15 L378.0 3.8 Q377.85 0.05 377.3 -3.95 L380.7 -4.45 Z" fill="none" stroke="#085da4" stroke-linecap="butt" stroke-linejoin="miter-clip" stroke-miterlimit="4.0" stroke-width="1.0"/>
    <path d="M395.15 -1.9 L393.25 -2.0 Q389.2 -2.0 386.55 0.1 L386.05 0.65 Q386.3 1.0 388.3 1.05 L392.25 1.2 Q394.6 1.5 395.65 2.5 396.65 3.5 396.65 4.75 396.65 7.65 392.35 9.75 390.05 10.8 387.05 11.0 L386.75 7.5 390.15 6.8 Q392.3 6.15 393.05 5.0 393.0 4.65 391.15 4.55 L388.9 4.55 Q382.4 4.55 382.4 0.8 382.4 -1.25 384.65 -2.9 386.15 -4.05 388.7 -4.85 390.9 -5.55 393.2 -5.55 L395.5 -5.4 395.15 -1.9" fill="#d2edff" fill-rule="evenodd" stroke="none"/>
    <path d="M395.15 -1.9 L393.25 -2.0 Q389.2 -2.0 386.55 0.1 L386.05 0.65 Q386.3 1.0 388.3 1.05 L392.25 1.2 Q394.6 1.5 395.65 2.5 396.65 3.5 396.65 4.75 396.65 7.65 392.35 9.75 390.05 10.8 387.05 11.0 L386.75 7.5 390.15 6.8 Q392.3 6.15 393.05 5.0 393.0 4.65 391.15 4.55 L388.9 4.55 Q382.4 4.55 382.4 0.8 382.4 -1.25 384.65 -2.9 386.15 -4.05 388.7 -4.85 390.9 -5.55 393.2 -5.55 L395.5 -5.4 395.15 -1.9 Z" fill="none" stroke="#085da4" stroke-linecap="butt" stroke-linejoin="miter-clip" stroke-miterlimit="4.0" stroke-width="1.0"/>
    <path d="M576.35 13.75 L576.35 14.45 Q420.95 58.45 223.8 48.85 106.9 43.15 3.55 21.4 L3.55 13.75 Q3.55 9.3 6.7 6.1 9.85 2.95 14.3 2.95 L565.65 2.95 Q570.1 2.95 573.2 6.1 576.35 9.3 576.35 13.75" fill="#ffffff" fill-opacity="0.06666667" fill-rule="evenodd" stroke="none"/>
    <path d="M573.75 5.6 Q577.1 9.0 577.1 13.75 L577.1 120.05 Q577.1 124.8 573.75 128.2 570.4 131.6 565.65 131.6 L14.3 131.6 Q9.55 131.6 6.2 128.2 2.8 124.8 2.8 120.05 L2.8 13.75 Q2.8 9.0 6.2 5.6 9.55 2.2 14.3 2.2 L173.15 2.2 173.15 3.7 14.3 3.7 Q10.15 3.7 7.25 6.65 4.3 9.6 4.3 13.75 L4.3 120.05 Q4.3 124.2 7.25 127.15 10.15 130.1 14.3 130.1 L565.65 130.1 Q569.8 130.1 572.7 127.15 575.6 124.2 575.6 120.05 L575.6 13.75 Q575.6 9.6 572.7 6.65 569.8 3.7 565.65 3.7 L398.4 3.7 398.4 2.2 565.65 2.2 Q570.4 2.2 573.75 5.6" fill="#86cbfd" fill-rule="evenodd" stroke="none"/>
    <path d="M577.6 11.75 Q577.6 7.6 574.7 4.65 571.8 1.7 567.65 1.7 L398.4 1.7 398.4 0.2 567.65 0.2 Q571.7 0.2 574.8 2.75 577.9 5.25 578.8 9.1 L578.8 124.7 Q577.9 128.55 574.8 131.05 571.7 133.6 567.65 133.6 L12.3 133.6 Q7.6 133.6 4.2 130.2 0.8 126.8 0.8 122.05 L0.8 11.75 Q0.8 7.0 4.2 3.6 7.6 0.2 12.3 0.2 L173.15 0.2 173.15 1.7 12.3 1.7 Q8.2 1.7 5.25 4.65 2.3 7.6 2.3 11.75 L2.3 122.05 Q2.3 126.2 5.25 129.15 8.2 132.1 12.3 132.1 L567.65 132.1 Q571.8 132.1 574.7 129.15 577.6 126.2 577.6 122.05 L577.6 11.75" fill="#085da4" fill-rule="evenodd" stroke="none"/>
  </g>
  <defs>
    <linearGradient gradientTransform="matrix(6.0E-4, -0.0616, -0.0614, -6.0E-4, 289.95, 73.45)" gradientUnits="userSpaceOnUse" id="gradient0" spreadMethod="pad" x1="-819.2" x2="819.2">
      <stop offset="0.0" stop-color="#257de2"/>
      <stop offset="0.4235294117647059" stop-color="#388ef8"/>
      <stop offset="1.0" stop-color="#257de2"/>
    </linearGradient>
  </defs>
</svg>
