<?xml version="1.0" encoding="UTF-8" standalone="no"?>
<svg xmlns:ffdec="https://www.free-decompiler.com/flash" xmlns:xlink="http://www.w3.org/1999/xlink" ffdec:objectType="shape" height="42.5px" width="136.5px" xmlns="http://www.w3.org/2000/svg">
  <g transform="matrix(1.0, 0.0, 0.0, 1.0, 0.0, 0.0)">
    <path d="M136.5 10.75 L136.5 31.75 Q136.5 36.2 133.35 39.35 130.2 42.5 125.75 42.5 L10.75 42.5 Q6.3 42.5 3.15 39.35 0.0 36.2 0.0 31.75 L0.0 10.75 Q0.0 6.35 3.15 3.15 6.35 0.0 10.75 0.0 L125.75 0.0 Q130.2 0.0 133.35 3.15 136.5 6.3 136.5 10.75 M125.75 1.5 L10.75 1.5 Q6.95 1.5 4.2 4.2 1.5 6.95 1.5 10.75 L1.5 31.75 Q1.5 35.6 4.2 38.3 6.9 41.0 10.75 41.0 L125.75 41.0 Q129.6 41.0 132.3 38.3 135.0 35.6 135.0 31.75 L135.0 10.75 Q135.0 6.9 132.3 4.2 129.6 1.5 125.75 1.5" fill="#97c4f4" fill-rule="evenodd" stroke="none"/>
    <path d="M135.75 10.75 L135.75 31.75 Q135.75 35.9 132.85 38.85 129.9 41.75 125.75 41.75 L10.75 41.75 Q6.6 41.75 3.7 38.85 0.75 35.9 0.75 31.75 L0.75 10.75 Q0.75 6.65 3.7 3.7 6.65 0.75 10.75 0.75 L125.75 0.75 Q129.9 0.75 132.85 3.7 135.75 6.6 135.75 10.75" fill="url(#gradient0)" fill-rule="evenodd" stroke="none"/>
    <path d="M125.75 1.5 Q128.7 1.5 131.1 3.2 133.45 4.9 134.45 7.6 80.0 14.15 35.65 11.85 13.5 10.7 2.25 8.25 L2.0 7.9 Q2.9 5.1 5.3 3.3 7.75 1.5 10.75 1.5 L125.75 1.5" fill="#ffffff" fill-opacity="0.2" fill-rule="evenodd" stroke="none"/>
    <path d="M134.65 7.55 L135.0 8.55 Q94.2 13.4 58.65 13.4 35.3 13.4 16.1 11.3 L1.45 9.2 1.3 9.15 1.1 8.95 1.5 7.8 1.85 8.25 17.8 10.5 Q36.3 12.4 58.65 12.4 94.0 12.4 134.65 7.55" fill="#c8e2ef" fill-opacity="0.2" fill-rule="evenodd" stroke="none"/>
    <path d="M135.75 10.75 L135.75 31.75 Q135.75 35.9 132.85 38.85 129.9 41.75 125.75 41.75 L10.75 41.75 Q6.6 41.75 3.7 38.85 0.75 35.9 0.75 31.75 L0.75 10.75 Q0.75 6.65 3.7 3.7 6.65 0.75 10.75 0.75 L125.75 0.75 Q129.9 0.75 132.85 3.7 135.75 6.6 135.75 10.75 Z" fill="none" stroke="#60b2f2" stroke-linecap="butt" stroke-linejoin="miter-clip" stroke-miterlimit="10.0" stroke-width="1.5"/>
    <path d="M135.75 10.75 L135.75 31.75 Q135.75 35.9 132.85 38.85 129.9 41.75 125.75 41.75 L10.75 41.75 Q6.6 41.75 3.7 38.85 0.75 35.9 0.75 31.75 L0.75 10.75 Q0.75 6.65 3.7 3.7 6.65 0.75 10.75 0.75 L125.75 0.75 Q129.9 0.75 132.85 3.7 135.75 6.6 135.75 10.75 Z" fill="none" stroke="#60b2f2" stroke-linecap="butt" stroke-linejoin="miter-clip" stroke-miterlimit="10.0" stroke-width="1.5"/>
    <path d="M17.6 7.75 Q20.1 7.75 21.4 8.4 23.15 9.25 23.6 11.35 L23.65 11.95 Q23.65 13.85 21.1 14.95 L16.9 16.2 17.2 19.2 15.1 19.4 14.1 7.95 17.6 7.75 M16.75 14.1 L19.55 13.35 Q21.65 12.65 21.55 11.85 L21.5 11.75 Q21.35 9.8 17.85 9.8 L16.35 9.85 16.75 14.1" fill="#ffffff" fill-rule="evenodd" stroke="none"/>
    <path d="M25.05 7.75 L28.7 7.5 Q34.7 7.5 34.7 11.55 34.7 13.9 30.85 15.55 L35.35 16.7 34.85 18.75 27.9 16.95 28.15 19.0 26.05 19.2 25.05 7.75 M27.7 14.55 Q32.6 12.8 32.6 11.55 32.6 9.6 28.9 9.6 L27.25 9.65 27.7 14.55" fill="#ffffff" fill-rule="evenodd" stroke="none"/>
    <path d="M37.9 16.75 L39.5 16.6 38.9 9.4 36.65 9.6 36.5 7.5 43.3 6.95 43.5 9.0 40.95 9.25 41.55 16.4 44.0 16.15 44.2 18.25 38.05 18.8 37.9 16.75" fill="#ffffff" fill-rule="evenodd" stroke="none"/>
    <path d="M55.05 8.5 Q52.4 14.3 51.1 19.25 L49.15 19.45 Q46.4 14.35 44.95 8.4 L47.0 7.85 Q48.05 12.25 49.8 16.1 51.2 11.8 53.2 7.6 L55.05 8.5" fill="#ffffff" fill-rule="evenodd" stroke="none"/>
    <path d="M55.55 18.05 L57.45 7.4 62.25 6.45 64.1 12.05 Q65.25 15.45 65.6 17.75 L63.55 18.1 62.6 14.35 58.15 15.1 57.65 18.25 55.55 18.05 M61.95 12.35 L60.8 8.85 59.2 9.2 58.55 12.9 61.95 12.35" fill="#ffffff" fill-rule="evenodd" stroke="none"/>
    <path d="M76.7 17.4 Q74.0 18.3 71.8 18.3 68.4 18.3 66.9 16.05 65.7 14.35 65.7 12.3 65.7 10.05 67.45 8.35 69.2 6.7 71.5 6.7 73.75 6.7 75.6 8.55 L74.1 10.0 Q73.0 8.8 71.4 8.8 70.0 8.8 68.85 9.85 67.75 10.95 67.75 12.3 L67.85 12.95 Q68.55 16.25 71.85 16.25 73.65 16.25 76.05 15.4 L76.7 17.4" fill="#ffffff" fill-rule="evenodd" stroke="none"/>
    <path d="M86.65 8.8 L82.95 12.25 83.35 19.8 81.25 19.9 80.9 12.25 76.15 8.9 77.35 7.15 81.9 10.4 85.2 7.25 86.65 8.8" fill="#ffffff" fill-rule="evenodd" stroke="none"/>
    <path d="M37.85 34.25 L33.95 35.25 30.0 35.45 29.4 24.55 31.45 24.45 32.0 33.35 Q34.55 33.3 37.1 32.3 L37.85 34.25" fill="#ffffff" fill-rule="evenodd" stroke="none"/>
    <path d="M50.35 28.4 Q50.35 31.25 48.25 33.2 46.1 35.2 43.25 35.2 40.85 35.2 39.3 33.5 37.8 31.85 37.8 29.4 37.8 26.7 39.95 24.7 42.15 22.65 44.8 22.65 47.2 22.65 48.8 24.35 50.35 26.0 50.35 28.4 M46.75 31.75 Q48.3 30.3 48.3 28.45 48.3 26.95 47.3 25.8 46.35 24.75 44.8 24.75 42.95 24.75 41.45 26.15 39.9 27.65 39.9 29.45 39.9 31.1 40.8 32.05 41.7 33.1 43.3 33.1 45.25 33.1 46.75 31.75" fill="#ffffff" fill-rule="evenodd" stroke="none"/>
    <path d="M59.3 27.0 Q58.1 25.8 56.55 25.8 55.1 25.8 54.05 26.85 52.9 27.9 52.9 29.3 L53.0 29.95 Q53.7 33.25 57.0 33.25 L61.2 32.4 61.9 34.4 Q59.15 35.3 56.95 35.3 53.55 35.3 52.05 33.05 50.85 31.35 50.85 29.3 50.85 27.05 52.6 25.35 54.35 23.7 56.65 23.7 59.0 23.7 60.75 25.55 L59.3 27.0" fill="#ffffff" fill-rule="evenodd" stroke="none"/>
    <path d="M71.05 25.0 L65.95 32.0 72.15 33.65 71.6 35.65 64.7 33.8 64.9 36.0 62.8 36.15 61.9 25.4 63.95 25.25 64.4 30.55 69.35 23.8 71.05 25.0" fill="#ffffff" fill-rule="evenodd" stroke="none"/>
  </g>
  <defs>
    <linearGradient gradientTransform="matrix(0.0, -0.016, -0.016, 0.0, 68.25, 27.85)" gradientUnits="userSpaceOnUse" id="gradient0" spreadMethod="pad" x1="-819.2" x2="819.2">
      <stop offset="0.0" stop-color="#77bff8"/>
      <stop offset="0.15294117647058825" stop-color="#6bb8f5"/>
      <stop offset="0.7098039215686275" stop-color="#42a2ec"/>
      <stop offset="1.0" stop-color="#3299e8"/>
    </linearGradient>
  </defs>
</svg>
