<?xml version="1.0" encoding="UTF-8" standalone="no"?>
<svg xmlns:ffdec="https://www.free-decompiler.com/flash" xmlns:xlink="http://www.w3.org/1999/xlink" ffdec:objectType="shape" height="11.2px" width="346.2px" xmlns="http://www.w3.org/2000/svg">
  <g transform="matrix(1.0, 0.0, 0.0, 1.0, -103.05, -26.25)">
    <path d="M110.0 29.5 L107.25 29.8 107.65 36.9 106.0 37.0 105.6 30.0 103.25 30.3 103.05 28.65 109.8 27.85 110.0 29.5" fill="#bce0ff" fill-rule="evenodd" stroke="none"/>
    <path d="M119.65 27.6 Q120.9 28.85 120.9 30.8 120.9 33.05 119.2 34.6 117.6 36.15 115.25 36.15 113.35 36.15 112.15 34.8 111.0 33.6 111.0 31.6 111.0 29.5 112.7 27.85 114.4 26.25 116.5 26.25 118.4 26.25 119.65 27.6 M112.65 31.6 Q112.65 32.95 113.35 33.7 114.1 34.5 115.3 34.5 116.9 34.5 118.05 33.4 119.25 32.35 119.25 30.85 119.25 29.6 118.5 28.75 117.65 27.9 116.5 27.9 115.1 27.9 113.85 29.0 112.65 30.2 112.65 31.6" fill="#bce0ff" fill-rule="evenodd" stroke="none"/>
    <path d="M128.5 29.5 L125.75 29.8 126.15 36.9 124.5 37.0 124.1 30.0 121.7 30.3 121.55 28.65 128.3 27.85 128.5 29.5" fill="#bce0ff" fill-rule="evenodd" stroke="none"/>
    <path d="M134.55 31.55 L133.6 28.8 132.35 29.05 131.85 32.0 134.55 31.55 M136.2 31.3 Q137.1 33.95 137.4 35.8 L135.75 36.1 135.05 33.1 131.55 33.7 131.1 36.2 129.45 36.05 130.95 27.65 134.75 26.85 136.2 31.3" fill="#bce0ff" fill-rule="evenodd" stroke="none"/>
    <path d="M144.75 35.4 L141.65 36.2 138.55 36.4 138.05 27.75 139.7 27.65 140.1 34.7 Q142.05 34.65 144.15 33.85 L144.75 35.4" fill="#bce0ff" fill-rule="evenodd" stroke="none"/>
    <path d="M151.4 33.4 L151.55 35.4 154.1 35.25 Q155.6 34.95 155.6 34.15 155.6 33.2 153.7 33.2 L151.4 33.4 M154.55 29.85 Q154.55 29.25 152.9 29.25 L151.1 29.45 151.25 31.75 Q152.65 31.55 153.75 30.8 154.55 30.3 154.55 29.85 M156.75 32.65 Q157.3 33.3 157.3 34.2 157.3 35.85 155.4 36.6 L152.15 37.1 150.0 37.0 149.35 28.15 152.85 27.55 Q154.05 27.55 155.05 28.05 156.25 28.75 156.25 29.9 156.25 30.8 155.3 31.75 156.25 32.0 156.75 32.65" fill="#bce0ff" fill-rule="evenodd" stroke="none"/>
    <path d="M162.25 28.8 L161.0 29.05 160.5 32.0 163.2 31.55 162.25 28.8 M166.05 35.8 L164.4 36.1 163.7 33.1 160.2 33.7 159.75 36.2 158.1 36.05 159.6 27.65 163.4 26.85 164.85 31.3 Q165.75 33.95 166.05 35.8" fill="#bce0ff" fill-rule="evenodd" stroke="none"/>
    <path d="M174.35 32.25 Q174.35 34.2 172.65 35.3 171.15 36.25 169.15 36.25 L167.2 36.15 166.45 27.1 168.65 27.0 Q170.75 27.0 172.5 28.6 174.35 30.3 174.35 32.25 M168.3 28.65 L168.75 34.55 169.05 34.55 Q170.45 34.65 171.4 34.15 172.7 33.55 172.7 32.3 172.7 30.85 171.3 29.7 169.95 28.6 168.45 28.65 L168.3 28.65" fill="#bce0ff" fill-rule="evenodd" stroke="none"/>
    <path d="M181.05 27.45 L180.45 29.0 179.45 28.8 Q178.3 28.8 177.35 29.6 176.45 30.45 176.45 31.6 L176.5 32.15 Q177.05 34.85 179.7 34.85 L182.5 34.35 182.4 32.45 178.7 32.95 178.5 31.35 184.55 30.5 184.75 32.15 184.05 32.25 184.25 35.5 Q181.55 36.45 179.6 36.45 177.05 36.45 175.75 34.65 174.8 33.25 174.8 31.65 174.8 29.8 176.2 28.45 177.6 27.15 179.45 27.15 L181.05 27.45" fill="#bce0ff" fill-rule="evenodd" stroke="none"/>
    <path d="M187.5 33.3 L187.6 34.95 188.05 35.0 191.3 34.5 191.6 36.15 189.95 36.5 188.3 36.75 186.05 36.7 185.55 27.8 190.85 27.55 190.95 29.25 187.3 29.4 187.4 31.65 191.0 31.35 191.15 33.0 187.5 33.3" fill="#bce0ff" fill-rule="evenodd" stroke="none"/>
    <path d="M199.25 27.8 L199.1 29.45 198.2 29.4 Q195.45 29.4 193.8 30.8 193.45 31.1 193.45 31.35 L193.45 31.45 Q193.65 31.8 194.9 31.85 L197.35 31.9 Q198.9 32.05 199.45 32.7 200.0 33.2 200.0 33.9 200.0 35.45 197.5 36.75 196.1 37.4 194.55 37.45 L194.4 35.85 196.4 35.4 Q197.55 35.0 198.15 34.3 L198.3 34.0 Q198.3 33.65 197.0 33.5 L195.45 33.5 Q191.7 33.5 191.7 31.45 191.7 30.3 193.0 29.3 194.05 28.6 195.4 28.15 L198.1 27.75 199.25 27.8" fill="#bce0ff" fill-rule="evenodd" stroke="none"/>
    <path d="M203.2 36.4 L201.55 36.4 201.35 34.75 203.0 34.75 203.2 36.4 M203.0 33.5 L201.3 33.5 201.1 31.85 202.75 31.85 203.0 33.5" fill="#bce0ff" fill-rule="evenodd" stroke="none"/>
    <path d="M336.65 32.0 Q337.2 34.65 339.8 34.65 L343.1 33.95 343.65 35.55 339.75 36.25 Q337.1 36.25 335.9 34.45 334.95 33.05 334.95 31.5 334.95 29.7 336.3 28.4 337.7 27.1 339.55 27.1 341.4 27.1 342.75 28.55 L341.6 29.7 Q340.7 28.75 339.45 28.75 338.4 28.75 337.45 29.55 336.6 30.35 336.6 31.5 L336.65 32.0" fill="#bce0ff" fill-rule="evenodd" stroke="none"/>
    <path d="M352.5 27.6 Q353.75 28.85 353.75 30.8 353.75 33.05 352.05 34.6 350.45 36.15 348.1 36.15 346.3 36.15 345.0 34.8 343.85 33.6 343.85 31.6 343.85 29.5 345.55 27.85 347.25 26.25 349.35 26.25 351.25 26.25 352.5 27.6 M345.5 31.6 Q345.5 32.95 346.2 33.7 346.95 34.5 348.15 34.5 349.75 34.5 350.9 33.4 352.1 32.35 352.1 30.85 352.1 29.6 351.35 28.75 350.6 27.9 349.35 27.9 347.95 27.9 346.7 29.0 345.5 30.2 345.5 31.6" fill="#bce0ff" fill-rule="evenodd" stroke="none"/>
    <path d="M362.55 27.1 Q363.4 31.85 365.25 35.9 L363.75 36.6 Q362.4 33.65 361.8 31.3 L361.75 31.45 Q361.3 33.25 360.25 35.5 L358.9 35.25 Q357.8 32.8 357.2 30.75 356.4 33.35 356.0 36.25 L354.35 36.0 Q354.95 31.65 356.55 27.7 L358.15 27.85 359.65 32.75 Q360.6 29.7 360.9 27.15 L362.55 27.1" fill="#bce0ff" fill-rule="evenodd" stroke="none"/>
    <path d="M367.5 32.9 L369.7 32.35 Q371.3 31.75 371.3 31.15 L371.25 31.05 Q371.15 29.5 368.35 29.5 L367.2 29.55 367.5 32.9 M372.95 31.2 Q372.95 32.7 370.95 33.6 L367.65 34.55 367.85 36.95 366.2 37.1 365.4 28.05 368.15 27.9 Q370.15 27.9 371.15 28.4 372.5 29.05 372.9 30.75 L372.95 31.2" fill="#bce0ff" fill-rule="evenodd" stroke="none"/>
    <path d="M380.45 35.4 L377.35 36.2 374.25 36.4 373.75 27.75 375.4 27.65 375.8 34.7 Q377.75 34.65 379.85 33.85 L380.45 35.4" fill="#bce0ff" fill-rule="evenodd" stroke="none"/>
    <path d="M383.05 35.0 L386.3 34.5 386.6 36.15 384.95 36.5 383.3 36.75 381.05 36.7 380.5 27.8 385.85 27.55 385.95 29.25 382.25 29.4 382.4 31.65 386.0 31.35 386.1 33.0 382.5 33.3 382.55 34.95 383.05 35.0" fill="#bce0ff" fill-rule="evenodd" stroke="none"/>
    <path d="M393.95 29.5 L391.15 29.8 391.6 36.9 389.95 37.0 389.55 30.0 387.15 30.3 387.0 28.65 393.75 27.85 393.95 29.5" fill="#bce0ff" fill-rule="evenodd" stroke="none"/>
    <path d="M397.0 33.3 L397.1 34.95 397.55 35.0 400.8 34.5 401.1 36.15 399.45 36.5 397.8 36.75 395.55 36.7 395.0 27.8 400.35 27.55 400.45 29.25 396.75 29.4 396.9 31.65 400.5 31.35 400.6 33.0 397.0 33.3" fill="#bce0ff" fill-rule="evenodd" stroke="none"/>
    <path d="M407.8 32.3 Q407.8 30.85 406.4 29.7 405.05 28.6 403.6 28.65 L403.4 28.65 403.85 34.55 404.2 34.55 Q405.55 34.65 406.5 34.15 407.8 33.55 407.8 32.3 M409.45 32.25 Q409.45 34.2 407.75 35.3 406.25 36.25 404.25 36.25 L402.3 36.15 401.55 27.1 403.75 27.0 Q405.95 27.0 407.6 28.6 409.45 30.25 409.45 32.25" fill="#bce0ff" fill-rule="evenodd" stroke="none"/>
    <path d="M422.3 27.8 L422.15 29.45 421.25 29.4 Q418.5 29.4 416.85 30.8 416.5 31.1 416.5 31.35 L416.5 31.45 Q416.7 31.8 417.95 31.85 L420.4 31.9 Q421.95 32.05 422.5 32.7 423.05 33.2 423.05 33.9 423.05 35.45 420.55 36.75 419.15 37.4 417.6 37.45 L417.45 35.85 419.45 35.4 Q420.6 35.0 421.2 34.3 L421.35 34.0 Q421.35 33.65 420.05 33.5 L418.5 33.5 Q414.75 33.5 414.75 31.45 414.75 30.3 416.05 29.3 417.1 28.6 418.45 28.15 L421.15 27.75 422.3 27.8" fill="#bce0ff" fill-rule="evenodd" stroke="none"/>
    <path d="M423.85 27.8 L429.15 27.55 429.25 29.25 425.6 29.4 425.7 31.65 429.3 31.35 429.45 33.0 425.8 33.3 425.9 34.95 426.35 35.0 429.6 34.5 429.9 36.15 428.25 36.5 426.6 36.75 424.35 36.7 423.85 27.8" fill="#bce0ff" fill-rule="evenodd" stroke="none"/>
    <path d="M437.25 29.5 L434.5 29.8 434.9 36.9 433.25 37.0 432.85 30.0 430.45 30.3 430.3 28.65 437.05 27.85 437.25 29.5" fill="#bce0ff" fill-rule="evenodd" stroke="none"/>
    <path d="M446.05 33.9 Q446.05 35.5 443.5 36.75 442.15 37.4 440.55 37.45 L440.4 35.85 442.45 35.4 Q443.65 34.95 444.15 34.3 L444.3 34.0 Q444.3 33.65 443.05 33.5 L441.5 33.5 Q437.7 33.5 437.7 31.45 437.7 30.3 439.05 29.3 440.1 28.6 441.45 28.15 L444.15 27.75 445.3 27.8 445.1 29.45 444.25 29.4 Q441.4 29.4 439.85 30.8 439.45 31.1 439.45 31.35 L439.5 31.45 Q439.65 31.75 440.95 31.85 L443.4 31.9 Q444.85 32.05 445.5 32.7 446.05 33.25 446.05 33.9" fill="#bce0ff" fill-rule="evenodd" stroke="none"/>
    <path d="M449.25 36.4 L447.6 36.4 447.35 34.75 449.0 34.75 449.25 36.4 M449.05 33.5 L447.35 33.5 447.15 31.85 448.8 31.85 449.05 33.5" fill="#bce0ff" fill-rule="evenodd" stroke="none"/>
  </g>
</svg>
