<?xml version="1.0" encoding="UTF-8" standalone="no"?>
<svg xmlns:ffdec="https://www.free-decompiler.com/flash" xmlns:xlink="http://www.w3.org/1999/xlink" ffdec:objectType="shape" height="13.55px" width="98.4px" xmlns="http://www.w3.org/2000/svg">
  <g transform="matrix(1.0, 0.0, 0.0, 1.0, -17.5, -150.85)">
    <path d="M17.75 157.5 Q17.75 155.25 19.4 153.6 21.15 152.0 23.4 152.0 25.7 152.0 27.65 154.05 L25.85 155.8 Q24.65 154.6 23.3 154.6 22.05 154.6 21.2 155.45 20.25 156.35 20.25 157.5 L20.3 158.05 Q20.95 160.85 23.75 160.85 L27.8 160.0 28.65 162.4 Q25.65 163.4 23.65 163.4 20.4 163.4 18.9 161.15 17.75 159.55 17.75 157.5" fill="#fffb00" fill-rule="evenodd" stroke="none"/>
    <path d="M17.75 157.5 Q17.75 155.25 19.4 153.6 21.15 152.0 23.4 152.0 25.7 152.0 27.65 154.05 L25.85 155.8 Q24.65 154.6 23.3 154.6 22.05 154.6 21.2 155.45 20.25 156.35 20.25 157.5 L20.3 158.05 Q20.95 160.85 23.75 160.85 L27.8 160.0 28.65 162.4 Q25.65 163.4 23.65 163.4 20.4 163.4 18.9 161.15 17.75 159.55 17.75 157.5 Z" fill="none" stroke="#085da4" stroke-linecap="butt" stroke-linejoin="miter-clip" stroke-miterlimit="4.0" stroke-width="0.5"/>
    <path d="M41.9 156.75 Q41.9 159.5 39.8 161.45 37.8 163.3 35.0 163.3 32.65 163.3 31.15 161.65 29.65 160.1 29.65 157.65 29.65 155.1 31.75 153.05 33.85 151.1 36.45 151.1 38.8 151.1 40.35 152.75 41.9 154.4 41.9 156.75 M39.35 156.75 Q39.35 155.4 38.55 154.55 37.75 153.65 36.45 153.65 34.9 153.65 33.55 154.9 32.2 156.1 32.2 157.7 32.2 159.1 32.95 159.9 33.7 160.75 35.05 160.75 36.65 160.75 38.05 159.6 39.35 158.4 39.35 156.75" fill="#fffb00" fill-rule="evenodd" stroke="none"/>
    <path d="M41.9 156.75 Q41.9 159.5 39.8 161.45 37.8 163.3 35.0 163.3 32.65 163.3 31.15 161.65 29.65 160.1 29.65 157.65 29.65 155.1 31.75 153.05 33.85 151.1 36.45 151.1 38.8 151.1 40.35 152.75 41.9 154.4 41.9 156.75 M39.35 156.75 Q39.35 155.4 38.55 154.55 37.75 153.65 36.45 153.65 34.9 153.65 33.55 154.9 32.2 156.1 32.2 157.7 32.2 159.1 32.95 159.9 33.7 160.75 35.05 160.75 36.65 160.75 38.05 159.6 39.35 158.4 39.35 156.75 Z" fill="none" stroke="#085da4" stroke-linecap="butt" stroke-linejoin="miter-clip" stroke-miterlimit="4.0" stroke-width="0.5"/>
    <path d="M51.6 162.2 Q49.5 163.05 47.65 163.25 L43.65 163.5 43.05 152.75 45.6 152.6 46.05 160.9 Q48.25 160.75 50.7 159.85 L51.6 162.2" fill="#fffb00" fill-rule="evenodd" stroke="none"/>
    <path d="M51.6 162.2 Q49.5 163.05 47.65 163.25 L43.65 163.5 43.05 152.75 45.6 152.6 46.05 160.9 Q48.25 160.75 50.7 159.85 L51.6 162.2 Z" fill="none" stroke="#085da4" stroke-linecap="butt" stroke-linejoin="miter-clip" stroke-miterlimit="4.0" stroke-width="0.5"/>
    <path d="M60.45 162.2 Q58.35 163.05 56.5 163.25 L52.45 163.5 51.9 152.75 54.4 152.6 54.9 160.9 Q57.1 160.75 59.55 159.85 L60.45 162.2" fill="#fffb00" fill-rule="evenodd" stroke="none"/>
    <path d="M60.45 162.2 Q58.35 163.05 56.5 163.25 L52.45 163.5 51.9 152.75 54.4 152.6 54.9 160.9 Q57.1 160.75 59.55 159.85 L60.45 162.2 Z" fill="none" stroke="#085da4" stroke-linecap="butt" stroke-linejoin="miter-clip" stroke-miterlimit="4.0" stroke-width="0.5"/>
    <path d="M67.8 152.5 L67.9 155.1 63.6 155.3 63.7 157.3 67.9 156.9 68.15 159.5 63.85 159.85 63.95 161.25 64.2 161.25 68.25 160.6 68.75 163.1 66.15 163.65 63.55 163.95 61.55 163.8 60.9 152.85 67.8 152.5" fill="#fffb00" fill-rule="evenodd" stroke="none"/>
    <path d="M67.8 152.5 L67.9 155.1 63.6 155.3 63.7 157.3 67.9 156.9 68.15 159.5 63.85 159.85 63.95 161.25 64.2 161.25 68.25 160.6 68.75 163.1 66.15 163.65 63.55 163.95 61.55 163.8 60.9 152.85 67.8 152.5 Z" fill="none" stroke="#085da4" stroke-linecap="butt" stroke-linejoin="miter-clip" stroke-miterlimit="4.0" stroke-width="0.5"/>
    <path d="M75.45 152.0 Q77.75 152.0 79.7 154.05 L77.9 155.8 Q76.7 154.6 75.35 154.6 74.1 154.6 73.25 155.45 72.3 156.35 72.3 157.5 L72.35 158.05 Q73.0 160.85 75.8 160.85 77.45 160.85 79.85 160.0 L80.7 162.4 Q77.7 163.4 75.7 163.4 72.45 163.4 70.95 161.15 69.8 159.55 69.8 157.5 69.8 155.25 71.45 153.6 73.2 152.0 75.45 152.0" fill="#fffb00" fill-rule="evenodd" stroke="none"/>
    <path d="M75.45 152.0 Q77.75 152.0 79.7 154.05 L77.9 155.8 Q76.7 154.6 75.35 154.6 74.1 154.6 73.25 155.45 72.3 156.35 72.3 157.5 L72.35 158.05 Q73.0 160.85 75.8 160.85 77.45 160.85 79.85 160.0 L80.7 162.4 Q77.7 163.4 75.7 163.4 72.45 163.4 70.95 161.15 69.8 159.55 69.8 157.5 69.8 155.25 71.45 153.6 73.2 152.0 75.45 152.0 Z" fill="none" stroke="#085da4" stroke-linecap="butt" stroke-linejoin="miter-clip" stroke-miterlimit="4.0" stroke-width="0.5"/>
    <path d="M90.35 155.3 L87.05 155.75 87.55 164.05 85.0 164.15 84.5 156.05 81.75 156.35 81.45 153.85 90.05 152.8 90.35 155.3" fill="#fffb00" fill-rule="evenodd" stroke="none"/>
    <path d="M90.35 155.3 L87.05 155.75 87.55 164.05 85.0 164.15 84.5 156.05 81.75 156.35 81.45 153.85 90.05 152.8 90.35 155.3 Z" fill="none" stroke="#085da4" stroke-linecap="butt" stroke-linejoin="miter-clip" stroke-miterlimit="4.0" stroke-width="0.5"/>
    <path d="M98.25 151.1 Q100.65 151.1 102.2 152.75 103.75 154.4 103.75 156.75 103.75 159.5 101.65 161.45 99.65 163.3 96.85 163.3 94.5 163.3 93.0 161.65 91.45 160.1 91.45 157.65 91.45 155.05 93.6 153.05 95.65 151.1 98.25 151.1 M94.05 157.7 Q94.05 159.05 94.75 159.9 95.6 160.75 96.9 160.75 98.5 160.75 99.9 159.6 101.2 158.4 101.2 156.75 101.2 155.5 100.4 154.55 99.6 153.65 98.25 153.65 96.65 153.65 95.4 154.9 94.05 156.1 94.05 157.7" fill="#fffb00" fill-rule="evenodd" stroke="none"/>
    <path d="M98.25 151.1 Q100.65 151.1 102.2 152.75 103.75 154.4 103.75 156.75 103.75 159.5 101.65 161.45 99.65 163.3 96.85 163.3 94.5 163.3 93.0 161.65 91.45 160.1 91.45 157.65 91.45 155.05 93.6 153.05 95.65 151.1 98.25 151.1 M94.05 157.7 Q94.05 159.05 94.75 159.9 95.6 160.75 96.9 160.75 98.5 160.75 99.9 159.6 101.2 158.4 101.2 156.75 101.2 155.5 100.4 154.55 99.6 153.65 98.25 153.65 96.65 153.65 95.4 154.9 94.05 156.1 94.05 157.7 Z" fill="none" stroke="#085da4" stroke-linecap="butt" stroke-linejoin="miter-clip" stroke-miterlimit="4.0" stroke-width="0.5"/>
    <path d="M108.95 152.7 Q114.9 152.7 114.9 156.75 114.9 158.9 111.95 160.35 L115.6 161.3 114.95 163.75 108.65 162.15 108.85 163.9 106.3 164.15 105.3 152.95 108.95 152.7 M108.4 159.1 Q112.35 157.7 112.35 156.75 112.35 155.25 109.3 155.25 L108.05 155.3 108.4 159.1" fill="#fffb00" fill-rule="evenodd" stroke="none"/>
    <path d="M108.95 152.7 Q114.9 152.7 114.9 156.75 114.9 158.9 111.95 160.35 L115.6 161.3 114.95 163.75 108.65 162.15 108.85 163.9 106.3 164.15 105.3 152.95 108.95 152.7 M108.4 159.1 Q112.35 157.7 112.35 156.75 112.35 155.25 109.3 155.25 L108.05 155.3 108.4 159.1 Z" fill="none" stroke="#085da4" stroke-linecap="butt" stroke-linejoin="miter-clip" stroke-miterlimit="4.0" stroke-width="0.5"/>
  </g>
</svg>
