<?xml version="1.0" encoding="UTF-8" standalone="no"?>
<svg xmlns:ffdec="https://www.free-decompiler.com/flash" xmlns:xlink="http://www.w3.org/1999/xlink" ffdec:objectType="shape" height="135.35px" width="136.95px" xmlns="http://www.w3.org/2000/svg">
  <g transform="matrix(1.0, 0.0, 0.0, 1.0, 68.7, 67.95)">
    <path d="M58.3 20.6 L64.6 27.8 56.3 32.3 58.3 20.6" fill="#070e43" fill-rule="evenodd" stroke="none"/>
    <path d="M58.9 17.4 L59.6 19.1 58.45 22.4 59.6 23.35 59.25 23.65 Q58.9 24.05 58.9 24.5 L59.4 26.65 57.95 28.55 59.15 29.95 57.75 32.8 -10.8 64.25 -15.55 56.65 -12.25 33.0 59.4 13.15 60.8 15.3 58.9 17.4" fill="#f0ddb1" fill-rule="evenodd" stroke="none"/>
    <path d="M58.9 17.4 L59.6 19.1 58.45 22.4 59.6 23.35 59.25 23.65 Q58.9 24.05 58.9 24.5 L59.4 26.65 57.95 28.55 59.15 29.95 57.75 32.8 -10.8 64.25 -15.55 56.65 -12.25 33.0 59.4 13.15 60.8 15.3 58.9 17.4 Z" fill="none" stroke="#cfb78a" stroke-linecap="butt" stroke-linejoin="miter-clip" stroke-miterlimit="4.0" stroke-width="1.0"/>
    <path d="M0.65 39.2 L0.65 39.25 Q-1.05 40.3 -4.1 41.5 -7.85 42.95 -9.0 43.5 L-9.2 43.45 -9.15 43.2 Q-7.65 42.3 -4.25 41.2 -0.9 40.15 0.65 39.2" fill="#cfb78a" fill-rule="evenodd" stroke="none"/>
    <path d="M2.55 41.7 L-1.7 43.6 -9.95 46.75 -10.35 46.65 Q-10.5 46.4 -10.3 46.25 -8.75 45.2 -6.25 44.35 L-1.9 43.1 2.5 41.55 Q5.2 40.5 6.9 40.2 5.05 40.6 2.55 41.7" fill="#cfb78a" fill-rule="evenodd" stroke="none"/>
    <path d="M-2.1 56.4 L-2.05 56.45 Q-5.0 58.0 -9.75 59.75 L-10.0 59.65 -9.9 59.4 Q-8.5 58.6 -6.05 57.75 L-2.1 56.4" fill="#cfb78a" fill-rule="evenodd" stroke="none"/>
    <path d="M-2.85 53.95 L-2.85 54.05 -7.15 55.4 -10.05 56.45 -10.35 56.25 -10.2 55.95 -6.6 54.4 Q-4.4 53.65 -2.85 53.95" fill="#cfb78a" fill-rule="evenodd" stroke="none"/>
    <path d="M-14.15 64.7 L-14.15 37.3 -8.05 38.0 -7.05 63.75 -14.15 64.7" fill="#827252" fill-rule="evenodd" stroke="none"/>
    <path d="M67.55 8.1 L66.85 11.3 Q-1.6 39.1 -10.35 41.7 -13.4 44.75 -12.55 54.45 -11.65 64.15 -8.6 62.65 L64.6 27.8 63.85 31.6 Q14.7 56.2 1.25 61.65 0.45 60.5 -1.15 60.95 -3.1 61.45 -4.45 64.45 L-8.95 66.5 Q-12.5 67.95 -14.6 67.05 -17.8 64.1 -19.45 51.6 L-20.5 39.65 -8.0 33.95 67.55 8.1" fill="#070e43" fill-rule="evenodd" stroke="none"/>
    <path d="M46.55 27.15 L52.2 24.7 57.9 22.4 Q58.15 22.35 58.25 22.55 L58.1 22.9 Q55.65 24.05 52.0 25.4 L45.8 27.7 34.0 31.85 46.55 27.15" fill="#cfb78a" fill-rule="evenodd" stroke="none"/>
    <path d="M41.75 24.85 L41.75 24.8 50.85 21.2 Q56.4 19.0 60.25 18.85 L60.4 19.0 60.25 19.2 Q56.85 20.05 51.0 21.95 L41.75 24.85" fill="#cfb78a" fill-rule="evenodd" stroke="none"/>
    <path d="M44.75 21.3 L44.7 21.2 44.75 21.1 Q47.25 20.65 52.0 18.9 56.75 17.15 59.2 16.7 L59.35 16.8 59.3 16.95 52.1 19.5 Q47.95 20.85 44.75 21.3" fill="#cfb78a" fill-rule="evenodd" stroke="none"/>
    <path d="M54.25 17.15 L54.2 17.05 56.6 16.3 58.95 15.5 59.1 15.6 59.05 15.75 56.7 16.55 54.25 17.15" fill="#cfb78a" fill-rule="evenodd" stroke="none"/>
    <path d="M55.15 27.1 Q57.35 26.1 58.5 26.05 L58.7 26.25 58.6 26.5 56.4 27.15 54.15 27.75 50.25 29.2 55.15 27.1" fill="#cfb78a" fill-rule="evenodd" stroke="none"/>
    <path d="M-68.15 -27.95 Q-68.5 -39.1 -64.95 -43.55 L-63.45 -44.6 Q-61.7 -45.55 -60.35 -45.35 -58.75 -43.5 -58.15 -43.7 -57.6 -43.9 -57.85 -46.05 L7.4 -66.6 65.15 7.6 Q9.85 29.1 -1.5 34.1 -2.4 35.9 -4.3 36.7 -6.4 37.6 -7.15 35.85 L-12.15 37.65 Q-17.15 41.75 -17.15 50.95 -17.15 58.25 -14.25 66.35 -17.1 67.0 -40.8 27.4 L-66.0 -15.55 Q-67.85 -18.1 -68.15 -27.95" fill="#233cb1" fill-rule="evenodd" stroke="none"/>
    <path d="M-68.15 -27.95 Q-67.85 -18.1 -66.0 -15.55 L-40.8 27.4 Q-17.1 67.0 -14.25 66.35 -17.15 58.25 -17.15 50.95 -17.15 41.75 -12.15 37.65 L-7.15 35.85 Q-6.4 37.6 -4.3 36.7 -2.4 35.9 -1.5 34.1 9.85 29.1 65.15 7.6 L7.4 -66.6 -57.85 -46.05 Q-57.6 -43.9 -58.15 -43.7 -58.75 -43.5 -60.35 -45.35 -61.7 -45.55 -63.45 -44.6 L-64.95 -43.55 Q-68.5 -39.1 -68.15 -27.95 Z" fill="none" stroke="#0e1670" stroke-linecap="butt" stroke-linejoin="miter-clip" stroke-miterlimit="4.0" stroke-width="1.0"/>
    <path d="M-61.25 -45.15 L-57.35 -46.05 -1.5 34.1 -6.1 37.1 -61.25 -45.15" fill="#0e1670" fill-rule="evenodd" stroke="none"/>
    <path d="M-68.1 -27.55 Q-68.55 -38.3 -65.3 -43.05 L-13.45 38.95 Q-17.45 43.4 -17.15 52.0 -16.95 58.85 -14.25 66.35 -17.1 67.0 -40.8 27.4 L-66.0 -15.55 Q-67.75 -18.05 -68.1 -27.55" fill="#0e1670" fill-rule="evenodd" stroke="none"/>
    <path d="M35.0 24.8 L35.05 24.95 Q28.55 28.5 19.7 31.75 L12.15 34.8 8.45 36.2 5.25 37.8 Q7.8 36.1 11.6 34.45 L18.7 31.7 Q24.25 29.65 35.0 24.8" fill="#cfb78a" fill-rule="evenodd" stroke="none"/>
    <path d="M30.45 29.75 L30.4 29.6 33.85 28.45 Q36.75 27.15 37.2 27.0 L43.8 24.6 Q48.3 22.95 57.5 19.8 L57.6 20.0 Q55.0 21.6 50.6 23.05 45.6 24.55 43.25 25.4 L35.85 28.0 Q32.55 29.4 30.45 29.75" fill="#cfb78a" fill-rule="evenodd" stroke="none"/>
    <path d="M42.65 17.4 L42.35 15.9 53.85 -8.25 68.25 7.35 42.65 17.4" fill="#fbc01a" fill-rule="evenodd" stroke="none"/>
    <path d="M66.5 6.95 L65.8 6.2 54.15 -6.45 43.4 16.0 66.5 6.95 M42.65 17.4 L42.35 15.9 53.85 -8.25 68.25 7.35 42.65 17.4" fill="#d79d13" fill-rule="evenodd" stroke="none"/>
    <path d="M52.2 7.9 Q51.1 7.45 50.8 6.05 50.45 4.65 51.1 3.1 51.7 1.55 52.9 0.8 54.15 0.0 55.25 0.45 56.35 0.9 56.65 2.3 56.95 3.7 56.35 5.25 55.7 6.8 54.5 7.55 53.3 8.35 52.2 7.9" fill="#fbdd64" fill-rule="evenodd" stroke="none"/>
    <path d="M-9.9 -61.6 L-4.3 -63.7 Q2.3 -66.1 7.45 -67.4 L9.7 -64.65 15.25 -57.15 -9.9 -61.6" fill="#fbc01a" fill-rule="evenodd" stroke="none"/>
    <path d="M-9.9 -61.6 L15.25 -57.15 9.7 -64.65 7.45 -67.4 Q2.3 -66.1 -4.3 -63.7 L-9.9 -61.6 Z" fill="none" stroke="#d79d13" stroke-linecap="butt" stroke-linejoin="miter-clip" stroke-miterlimit="4.0" stroke-width="1.0"/>
    <path d="M5.2 -64.8 L6.85 -63.8 Q7.5 -63.1 7.3 -62.4 7.1 -61.65 6.25 -61.3 L4.35 -61.25 Q3.3 -61.5 2.7 -62.2 2.05 -62.9 2.25 -63.65 2.45 -64.35 3.3 -64.7 L5.2 -64.8" fill="#fbdd64" fill-rule="evenodd" stroke="none"/>
    <path d="M43.8 20.3 L43.2 17.1 67.6 7.6 67.5 9.2 67.25 10.8 43.8 20.3" fill="#d79d13" fill-rule="evenodd" stroke="none"/>
    <path d="M44.0 20.85 L43.35 21.15 42.6 17.35 43.8 16.9 43.85 17.1 44.25 19.45 58.6 13.65 66.7 10.35 67.0 7.8 68.2 7.35 68.25 7.4 68.1 9.15 67.8 11.0 67.7 11.3 59.05 14.8 44.0 20.85" fill="#a17408" fill-rule="evenodd" stroke="none"/>
    <path d="M50.7 29.2 L53.1 31.35 Q52.65 31.45 52.2 31.7 51.3 32.15 51.2 32.8 50.95 34.5 52.35 36.25 L49.5 36.45 Q41.15 32.9 42.95 40.35 43.6 42.8 45.3 45.1 L46.85 46.9 45.65 48.35 45.65 50.05 42.25 49.55 42.25 51.75 39.8 51.25 38.6 56.85 36.4 51.25 34.95 53.45 33.75 52.0 30.8 53.95 Q31.25 49.3 30.95 45.5 30.4 37.95 26.95 42.3 21.9 48.65 21.05 50.9 L19.4 49.1 17.95 48.35 15.55 49.8 15.75 47.4 13.1 47.4 14.7 45.0 Q16.15 42.3 15.55 40.95 23.55 37.05 35.2 32.4 47.65 27.45 51.2 27.0 L50.7 29.2" fill="#80b85c" fill-rule="evenodd" stroke="none"/>
    <path d="M50.05 29.4 L50.4 27.0 Q46.2 27.9 34.6 32.7 24.25 36.95 16.15 40.85 L16.35 41.85 Q16.35 43.75 14.35 46.75 L16.45 46.75 16.3 48.65 17.95 47.65 19.8 48.6 20.9 49.8 Q22.65 46.7 26.45 41.9 28.3 39.65 29.65 40.2 31.7 41.0 31.7 48.4 L31.55 52.7 33.85 51.15 34.9 52.4 36.55 49.9 38.4 54.7 39.3 50.55 41.6 51.0 41.6 48.85 45.0 49.35 45.0 48.15 46.0 46.95 Q43.25 44.0 42.35 40.5 42.0 39.1 42.0 37.95 42.0 36.15 43.0 35.3 44.8 33.8 49.6 35.85 L51.25 35.7 Q50.55 34.4 50.55 33.25 L50.6 32.75 Q50.7 31.8 51.9 31.15 L50.05 29.4 M51.15 26.4 L52.0 26.25 51.4 28.95 54.4 31.75 53.2 32.0 52.4 32.3 51.85 32.9 51.8 33.25 Q51.8 34.55 52.85 35.85 L53.6 36.8 49.4 37.1 49.25 37.05 Q45.05 35.25 43.8 36.25 43.25 36.75 43.25 37.95 43.25 38.85 43.55 40.2 44.15 42.45 45.75 44.7 L47.25 46.45 47.7 46.85 46.25 48.6 46.25 50.75 42.85 50.3 42.85 52.5 40.3 52.0 38.75 59.0 36.25 52.6 35.0 54.5 33.6 52.8 30.1 55.2 30.2 53.9 Q30.6 49.4 30.35 45.7 30.1 41.75 29.2 41.35 28.6 41.15 27.45 42.7 22.55 48.8 21.65 51.15 L21.3 52.1 19.05 49.6 18.0 49.05 14.8 51.0 15.1 48.0 11.8 48.0 12.6 47.0 14.45 44.05 Q15.35 42.1 14.95 41.2 L31.15 34.05 Q48.0 26.8 51.15 26.4" fill="#5f9738" fill-rule="evenodd" stroke="none"/>
    <path d="M37.4 43.5 L37.35 43.5 Q37.35 38.6 36.6 36.3 35.95 34.05 36.15 32.8 L36.4 32.6 Q36.6 32.6 36.65 32.8 L37.0 35.5 37.35 38.15 37.4 43.5" fill="#5f9738" fill-rule="evenodd" stroke="none"/>
    <path d="M34.8 48.15 L34.65 48.2 34.65 48.05 35.7 46.3 Q36.35 45.3 37.1 44.85 37.2 44.8 37.25 44.9 L37.2 45.05 Q36.5 45.5 35.85 46.5 L34.8 48.15" fill="#5f9738" fill-rule="evenodd" stroke="none"/>
    <path d="M34.5 44.5 L34.45 44.45 Q35.4 41.7 37.5 39.95 L37.75 39.95 37.8 40.2 36.05 42.3 34.5 44.5" fill="#5f9738" fill-rule="evenodd" stroke="none"/>
    <path d="M37.3 36.55 L37.35 36.8 36.8 37.5 36.05 38.1 34.35 39.15 Q34.1 39.25 33.95 39.0 33.85 38.75 34.1 38.6 L35.75 37.45 Q36.65 36.55 37.1 36.45 L37.3 36.55" fill="#5f9738" fill-rule="evenodd" stroke="none"/>
    <path d="M33.3 36.45 Q33.1 36.5 33.05 36.3 L33.15 36.0 34.8 35.1 Q34.95 34.95 35.1 35.1 L35.15 35.35 Q34.65 36.0 33.3 36.45" fill="#5f9738" fill-rule="evenodd" stroke="none"/>
    <path d="M22.95 39.05 L24.65 37.3 Q25.7 36.3 26.6 36.0 L26.9 36.1 26.85 36.4 25.05 37.9 23.2 39.35 Q21.85 40.6 19.75 43.3 L19.6 43.35 19.6 43.2 Q20.65 41.55 22.95 39.05" fill="#5f9738" fill-rule="evenodd" stroke="none"/>
    <path d="M46.3 30.95 L44.7 29.1 44.7 28.8 45.0 28.7 Q45.85 29.1 46.55 30.4 L47.65 32.5 47.65 32.7 47.45 32.65 46.3 30.95" fill="#5f9738" fill-rule="evenodd" stroke="none"/>
    <path d="M41.65 29.45 L49.95 26.15 Q54.7 24.4 58.45 23.6 58.7 23.55 58.75 23.8 L58.6 24.15 Q40.5 30.55 28.3 35.75 L16.15 40.95 3.9 45.95 3.9 45.9 16.3 40.5 28.6 34.85 41.65 29.45" fill="#cfb78a" fill-rule="evenodd" stroke="none"/>
    <path d="M-6.3 45.2 L35.2 29.4 -2.9 50.8 -6.3 45.2" fill="#f0ddb1" fill-rule="evenodd" stroke="none"/>
    <path d="M-6.3 45.2 L35.2 29.4 -2.9 50.8 -6.3 45.2 Z" fill="none" stroke="#cfb78a" stroke-linecap="butt" stroke-linejoin="miter-clip" stroke-miterlimit="16.0" stroke-width="1.0"/>
    <path d="M-5.55 -1.35 Q-6.05 -1.05 -6.05 -0.4 L-5.6 0.85 -12.7 4.8 -12.7 4.75 Q-13.15 4.15 -13.85 3.9 -14.5 3.65 -15.0 3.9 L-15.05 3.95 -24.15 -7.95 -24.05 -7.95 Q-23.6 -8.2 -23.6 -8.85 -23.6 -9.5 -24.1 -10.1 L-24.1 -10.15 -16.8 -14.05 -16.8 -14.0 Q-16.3 -13.4 -15.6 -13.15 -14.95 -12.9 -14.45 -13.15 L-5.45 -1.35 -5.55 -1.35" fill="#f6f6e4" fill-rule="evenodd" stroke="none"/>
    <path d="M-5.55 -1.35 L-5.45 -1.35 -14.45 -13.15 Q-14.95 -12.9 -15.6 -13.15 -16.3 -13.4 -16.8 -14.0 L-16.8 -14.05 -24.1 -10.15 -24.1 -10.1 Q-23.6 -9.5 -23.6 -8.85 -23.6 -8.2 -24.05 -7.95 L-24.15 -7.95 -15.05 3.95 -15.0 3.9 Q-14.5 3.65 -13.85 3.9 -13.15 4.15 -12.7 4.75 L-12.7 4.8 -5.6 0.85 -6.05 -0.4 Q-6.05 -1.05 -5.55 -1.35 Z" fill="none" stroke="#d2cbbd" stroke-linecap="butt" stroke-linejoin="miter-clip" stroke-miterlimit="4.0" stroke-width="1.0"/>
    <path d="M-8.85 -1.9 L-14.25 1.1 -20.75 -7.35 -15.25 -10.35 -8.85 -1.9" fill="#4eab38" fill-rule="evenodd" stroke="none"/>
    <path d="M-8.85 -1.9 L-14.25 1.1 -16.05 -1.3 -10.6 -4.25 -8.85 -1.9" fill="#bedc65" fill-rule="evenodd" stroke="none"/>
    <path d="M-13.55 -8.15 L-19.05 -5.15 -20.75 -7.35 -15.25 -10.35 -13.55 -8.15" fill="#60debb" fill-rule="evenodd" stroke="none"/>
    <path d="M4.3 -6.6 L4.2 -6.6 Q3.7 -6.35 3.7 -5.7 3.65 -5.05 4.1 -4.45 L4.1 -4.4 -3.15 -0.5 Q-3.65 -1.15 -4.3 -1.35 -4.95 -1.6 -5.5 -1.35 L-5.55 -1.3 -14.55 -13.1 -14.45 -13.15 Q-13.95 -13.4 -13.95 -14.05 -13.95 -14.65 -14.45 -15.3 L-6.95 -19.2 Q-6.45 -18.55 -5.75 -18.3 -5.1 -18.05 -4.6 -18.3 L4.3 -6.6" fill="#f6f6e4" fill-rule="evenodd" stroke="none"/>
    <path d="M4.3 -6.6 L-4.6 -18.3 Q-5.1 -18.05 -5.75 -18.3 -6.45 -18.55 -6.95 -19.2 L-14.45 -15.3 Q-13.95 -14.65 -13.95 -14.05 -13.95 -13.4 -14.45 -13.15 L-14.55 -13.1 -5.55 -1.3 -5.5 -1.35 Q-4.95 -1.6 -4.3 -1.35 -3.65 -1.15 -3.15 -0.5 L4.1 -4.4 4.1 -4.45 Q3.65 -5.05 3.7 -5.7 3.7 -6.35 4.2 -6.6 L4.3 -6.6 Z" fill="none" stroke="#d2cbbd" stroke-linecap="butt" stroke-linejoin="miter-clip" stroke-miterlimit="4.0" stroke-width="1.0"/>
    <path d="M14.25 -11.85 Q13.75 -11.6 13.7 -10.95 13.65 -10.35 14.1 -9.75 L14.1 -9.7 6.65 -5.8 5.5 -6.65 Q4.85 -6.9 4.35 -6.65 L4.3 -6.6 -4.6 -18.35 -4.5 -18.35 Q-4.0 -18.6 -4.0 -19.25 -3.95 -19.85 -4.45 -20.5 L3.15 -24.4 4.35 -23.5 Q5.05 -23.25 5.55 -23.5 L14.3 -11.9 14.25 -11.85" fill="#f6f6e4" fill-rule="evenodd" stroke="none"/>
    <path d="M14.25 -11.85 L14.3 -11.9 5.55 -23.5 Q5.05 -23.25 4.35 -23.5 L3.15 -24.4 -4.45 -20.5 Q-3.95 -19.85 -4.0 -19.25 -4.0 -18.6 -4.5 -18.35 L-4.6 -18.35 4.3 -6.6 4.35 -6.65 Q4.85 -6.9 5.5 -6.65 L6.65 -5.8 14.1 -9.7 14.1 -9.75 Q13.65 -10.35 13.7 -10.95 13.75 -11.6 14.25 -11.85 Z" fill="none" stroke="#d2cbbd" stroke-linecap="butt" stroke-linejoin="miter-clip" stroke-miterlimit="4.0" stroke-width="1.0"/>
    <path d="M-1.15 -17.75 L4.6 -20.75 10.9 -12.4 5.15 -9.45 -1.15 -17.75" fill="#3a68a9" fill-rule="evenodd" stroke="none"/>
    <path d="M-5.6 -12.0 Q-4.1 -11.45 -3.0 -12.0 L-2.85 -12.1 0.85 -7.15 -0.8 -6.25 -1.35 -7.25 Q-2.4 -8.65 -3.95 -9.2 -5.45 -9.75 -6.55 -9.2 -7.3 -8.75 -7.55 -7.95 L-11.1 -12.55 -8.3 -14.05 -8.25 -13.95 Q-7.15 -12.55 -5.6 -12.0" fill="#e24a1a" fill-rule="evenodd" stroke="none"/>
    <path d="M-8.3 -14.05 L-5.45 -15.5 -2.85 -12.1 -3.0 -12.0 Q-4.1 -11.45 -5.6 -12.0 -7.15 -12.55 -8.25 -13.95 L-8.3 -14.05" fill="#9c4cdc" fill-rule="evenodd" stroke="none"/>
    <path d="M-6.55 -9.2 Q-5.45 -9.75 -3.95 -9.2 -2.4 -8.65 -1.35 -7.25 L-0.8 -6.25 -4.7 -4.15 -7.55 -7.95 Q-7.3 -8.75 -6.55 -9.2" fill="#9c4cdc" fill-rule="evenodd" stroke="none"/>
    <path d="M1.15 -14.75 Q1.8 -16.4 3.4 -17.25 4.95 -18.05 6.85 -17.8 L9.4 -14.4 Q7.65 -14.1 6.8 -12.75 6.1 -11.6 6.1 -9.9 L5.15 -9.45 1.15 -14.75" fill="#6385f4" fill-rule="evenodd" stroke="none"/>
    <path d="M14.55 -26.2 Q11.85 -24.85 8.75 -24.55 L4.2 -24.4 0.85 -24.2 Q-0.6 -23.95 -1.3 -23.3 -2.0 -22.4 -2.45 -20.9 L-3.45 -17.65 Q-4.05 -15.85 -5.7 -14.15 L-8.5 -11.7 Q-11.25 -15.6 -11.9 -19.8 L-12.0 -23.2 Q-14.45 -22.9 -17.7 -24.45 -20.8 -26.25 -21.75 -26.5 -24.0 -27.1 -24.6 -27.75 -25.45 -28.75 -21.6 -29.35 L-13.2 -30.3 Q-15.9 -32.5 -17.25 -34.4 -18.35 -36.0 -19.55 -38.95 L-22.65 -44.9 Q-24.0 -47.6 -20.95 -45.45 L-12.8 -40.7 Q-8.2 -38.1 -7.4 -36.35 -7.45 -38.4 -6.45 -40.1 -5.15 -42.4 -4.95 -43.05 -4.25 -45.35 -3.85 -45.6 -3.15 -45.95 -1.75 -43.3 L1.7 -36.5 Q3.4 -32.4 2.1 -30.35 L7.5 -30.5 12.75 -28.95 16.5 -27.95 Q17.3 -27.55 14.55 -26.2" fill="#8dd749" fill-rule="evenodd" stroke="none"/>
    <path d="M14.55 -26.2 Q11.85 -24.85 8.75 -24.55 L4.2 -24.4 0.85 -24.2 Q-0.6 -23.95 -1.3 -23.3 -2.0 -22.4 -2.45 -20.9 L-3.45 -17.65 Q-4.05 -15.85 -5.7 -14.15 L-8.5 -11.7 Q-11.25 -15.6 -11.9 -19.8 L-12.0 -23.2 Q-14.45 -22.9 -17.7 -24.45 -20.8 -26.25 -21.75 -26.5 -24.0 -27.1 -24.6 -27.75 -25.45 -28.75 -21.6 -29.35 L-13.2 -30.3 Q-15.9 -32.5 -17.25 -34.4 -18.35 -36.0 -19.55 -38.95 L-22.65 -44.9 Q-24.0 -47.6 -20.95 -45.45 L-12.8 -40.7 Q-8.2 -38.1 -7.4 -36.35 -7.45 -38.4 -6.45 -40.1 -5.15 -42.4 -4.95 -43.05 -4.25 -45.35 -3.85 -45.6 -3.15 -45.95 -1.75 -43.3 L1.7 -36.5 Q3.4 -32.4 2.1 -30.35 L7.5 -30.5 12.75 -28.95 16.5 -27.95 Q17.3 -27.55 14.55 -26.2 Z" fill="none" stroke="#74ae32" stroke-linecap="butt" stroke-linejoin="miter-clip" stroke-miterlimit="5.0" stroke-width="1.0"/>
    <path d="M-9.9 -31.95 L-9.8 -31.95 Q-8.3 -30.1 -0.1 -23.35 6.1 -18.2 7.5 -14.0 7.8 -13.05 6.7 -12.85 5.6 -12.65 5.0 -13.6 2.1 -18.4 -3.6 -23.95 L-7.2 -27.8 Q-8.55 -29.55 -9.9 -31.95" fill="#74ae32" fill-rule="evenodd" stroke="none"/>
    <path d="M-13.4 -33.8 Q-13.7 -34.1 -13.3 -33.9 L-10.8 -32.35 -10.75 -32.15 -11.05 -32.1 -13.4 -33.8" fill="#74ae32" fill-rule="evenodd" stroke="none"/>
    <path d="M-15.6 -36.5 L-15.55 -36.7 -15.25 -36.7 Q-13.2 -35.7 -12.15 -34.8 -11.9 -34.6 -12.05 -34.4 L-12.5 -34.35 Q-14.55 -35.25 -15.6 -36.5" fill="#74ae32" fill-rule="evenodd" stroke="none"/>
    <path d="M-16.9 -38.6 L-17.0 -38.75 -16.85 -38.8 Q-15.7 -38.6 -15.05 -37.8 -14.9 -37.6 -15.05 -37.55 L-15.4 -37.55 -16.9 -38.6" fill="#74ae32" fill-rule="evenodd" stroke="none"/>
    <path d="M-17.85 -40.35 L-17.85 -40.5 -17.65 -40.55 -16.25 -39.7 Q-16.0 -39.5 -16.2 -39.4 L-16.65 -39.45 -17.85 -40.35" fill="#74ae32" fill-rule="evenodd" stroke="none"/>
    <path d="M-13.2 -26.95 L-10.15 -26.9 -8.9 -27.1 -7.6 -27.15 Q-4.8 -26.95 -3.7 -25.7 L-3.55 -25.2 -3.9 -24.9 Q-5.0 -24.55 -8.4 -25.5 -11.6 -26.3 -13.2 -26.85 L-13.2 -26.95" fill="#74ae32" fill-rule="evenodd" stroke="none"/>
    <path d="M-2.6 -35.6 L-2.5 -35.6 Q-2.45 -33.45 -3.05 -30.7 L-3.4 -27.9 -3.25 -26.9 -3.35 -26.0 Q-3.55 -25.6 -4.05 -25.55 -4.6 -25.5 -5.0 -25.9 -5.95 -26.8 -5.9 -28.2 -5.85 -29.3 -5.2 -30.35 L-3.5 -32.8 Q-2.65 -34.25 -2.6 -35.6" fill="#74ae32" fill-rule="evenodd" stroke="none"/>
    <path d="M-13.15 -27.85 L-13.1 -27.95 -11.25 -27.5 Q-10.3 -27.25 -9.7 -26.55 -9.45 -26.25 -9.65 -26.05 -9.85 -25.8 -10.2 -25.85 -11.1 -25.95 -11.8 -26.6 L-13.15 -27.85" fill="#74ae32" fill-rule="evenodd" stroke="none"/>
    <path d="M-10.5 -28.0 Q-10.4 -28.2 -10.2 -28.0 L-9.0 -27.65 -7.7 -27.35 -6.75 -26.5 Q-6.3 -26.0 -6.85 -25.65 L-7.95 -25.7 -9.1 -26.9 -10.3 -27.8 -10.5 -28.0" fill="#74ae32" fill-rule="evenodd" stroke="none"/>
    <path d="M-17.05 -27.65 L-17.0 -27.9 Q-15.45 -28.4 -14.2 -27.2 -13.7 -26.75 -14.0 -26.4 -14.3 -26.05 -14.9 -26.25 -15.5 -26.45 -16.05 -26.85 L-17.05 -27.65" fill="#74ae32" fill-rule="evenodd" stroke="none"/>
    <path d="M-18.65 -27.15 L-18.7 -27.4 -17.7 -27.6 Q-16.85 -27.45 -17.05 -26.85 -17.25 -26.2 -17.95 -26.7 L-18.65 -27.15" fill="#74ae32" fill-rule="evenodd" stroke="none"/>
    <path d="M-5.45 -34.05 L-5.2 -34.35 -4.75 -34.15 -3.65 -32.45 Q-3.0 -31.5 -2.95 -30.8 -2.9 -30.4 -3.35 -30.25 L-4.25 -30.4 Q-5.5 -31.15 -5.45 -32.15 L-5.45 -34.05" fill="#74ae32" fill-rule="evenodd" stroke="none"/>
    <path d="M-4.45 -36.3 L-4.3 -36.45 -4.0 -36.3 -2.95 -35.0 -2.1 -33.6 Q-2.0 -33.3 -2.3 -33.1 -2.6 -32.9 -3.0 -33.1 -4.1 -33.6 -4.35 -34.55 L-4.45 -36.3" fill="#74ae32" fill-rule="evenodd" stroke="none"/>
    <path d="M-3.3 -38.2 L-3.25 -38.2 -2.45 -37.4 -1.9 -36.45 Q-1.7 -36.15 -2.05 -35.95 -2.4 -35.75 -2.7 -36.1 -3.85 -37.25 -3.3 -38.2" fill="#74ae32" fill-rule="evenodd" stroke="none"/>
    <path d="M-3.65 -39.5 Q-3.8 -40.15 -2.95 -40.2 -2.1 -40.2 -1.95 -39.55 L-1.75 -38.45 Q-1.8 -38.1 -2.2 -38.0 -2.6 -37.9 -2.95 -38.25 -3.4 -38.7 -3.65 -39.5" fill="#74ae32" fill-rule="evenodd" stroke="none"/>
    <path d="M-7.85 -20.4 Q-7.7 -22.2 -7.35 -23.2 -6.8 -24.7 -4.4 -25.7 -3.8 -25.95 -2.95 -25.45 L-2.25 -24.6 Q-2.1 -24.35 -2.2 -24.0 -2.3 -23.7 -2.55 -23.55 L-4.5 -22.45 -6.1 -21.0 -8.05 -17.45 -8.2 -17.55 -7.85 -20.4" fill="#74ae32" fill-rule="evenodd" stroke="none"/>
    <path d="M3.5 -27.4 L3.85 -27.2 3.75 -26.9 0.05 -26.25 Q-2.0 -25.8 -2.8 -24.65 L-4.9 -24.6 Q-6.4 -25.5 -5.65 -26.4 -4.55 -27.75 -1.6 -27.7 L3.5 -27.4" fill="#74ae32" fill-rule="evenodd" stroke="none"/>
    <path d="M-8.45 -15.1 Q-8.95 -15.1 -9.15 -15.5 -9.35 -15.9 -8.95 -16.05 L-7.55 -16.1 -7.1 -15.75 Q-7.0 -15.45 -7.25 -15.35 L-8.45 -15.1" fill="#74ae32" fill-rule="evenodd" stroke="none"/>
    <path d="M-9.25 -17.05 L-9.8 -17.4 Q-10.0 -17.75 -9.7 -17.9 L-7.85 -18.25 Q-7.4 -18.15 -7.2 -17.8 -6.95 -17.4 -7.3 -17.2 L-9.25 -17.05" fill="#74ae32" fill-rule="evenodd" stroke="none"/>
    <path d="M-9.4 -19.45 L-9.6 -19.55 -9.6 -19.75 Q-9.05 -20.55 -7.6 -20.35 L-7.2 -20.05 Q-7.05 -19.75 -7.25 -19.7 -8.25 -19.2 -9.4 -19.45" fill="#74ae32" fill-rule="evenodd" stroke="none"/>
    <path d="M-8.55 -22.15 Q-8.7 -22.15 -8.75 -22.3 L-8.65 -22.45 -7.85 -22.7 -6.95 -22.5 -6.65 -22.1 Q-6.65 -21.8 -7.0 -21.85 L-8.55 -22.15" fill="#74ae32" fill-rule="evenodd" stroke="none"/>
    <path d="M8.55 -27.75 Q8.75 -28.2 9.4 -27.95 10.05 -27.7 9.85 -27.3 L9.25 -26.35 8.65 -26.3 Q8.25 -26.4 8.3 -26.7 8.35 -27.35 8.55 -27.75" fill="#74ae32" fill-rule="evenodd" stroke="none"/>
    <path d="M7.6 -27.95 L7.85 -27.75 Q8.25 -26.7 7.0 -26.15 6.5 -25.95 6.05 -26.4 5.55 -26.9 5.85 -27.25 6.6 -28.05 7.6 -27.95" fill="#74ae32" fill-rule="evenodd" stroke="none"/>
    <path d="M4.65 -28.7 L5.4 -28.5 5.7 -27.9 5.45 -27.3 5.0 -26.85 Q4.7 -26.7 4.25 -26.85 3.75 -27.0 3.7 -27.35 3.55 -27.95 3.8 -28.25 L4.65 -28.7" fill="#74ae32" fill-rule="evenodd" stroke="none"/>
    <path d="M2.75 -28.3 Q3.4 -28.05 3.1 -27.45 L2.4 -26.8 Q2.05 -26.65 1.6 -27.0 1.15 -27.35 1.3 -27.65 1.7 -28.65 2.75 -28.3" fill="#74ae32" fill-rule="evenodd" stroke="none"/>
    <path d="M30.3 -20.5 Q32.1 -16.15 32.45 -13.3 33.05 -8.55 30.3 -6.15 26.65 -2.95 22.45 -4.1 17.95 -5.3 13.95 -11.35 9.5 -10.75 5.45 -14.45 1.7 -17.8 1.4 -21.25 0.95 -26.25 3.75 -28.7 8.55 -32.85 22.75 -31.5 24.75 -31.55 26.8 -32.5 26.85 -29.05 28.0 -25.9 L30.3 -20.5" fill="#67e151" fill-rule="evenodd" stroke="none"/>
    <path d="M30.3 -20.5 Q32.1 -16.15 32.45 -13.3 33.05 -8.55 30.3 -6.15 26.65 -2.95 22.45 -4.1 17.95 -5.3 13.95 -11.35 9.5 -10.75 5.45 -14.45 1.7 -17.8 1.4 -21.25 0.95 -26.25 3.75 -28.7 8.55 -32.85 22.75 -31.5 24.75 -31.55 26.8 -32.5 26.85 -29.05 28.0 -25.9 L30.3 -20.5 Z" fill="none" stroke="#4eab38" stroke-linecap="butt" stroke-linejoin="miter-clip" stroke-miterlimit="4.0" stroke-width="1.0"/>
    <path d="M19.5 -21.65 L19.75 -21.5 16.65 -16.4 Q14.95 -13.05 15.0 -10.75 15.0 -9.85 15.8 -5.85 16.35 -2.85 15.75 -1.1 15.25 0.35 13.7 -0.05 12.1 -0.4 12.2 -2.0 L12.5 -7.8 Q12.65 -11.25 13.25 -13.4 13.95 -15.8 15.7 -17.9 L19.5 -21.65" fill="#4eab38" fill-rule="evenodd" stroke="none"/>
    <path d="M12.35 -15.45 L15.55 -12.3 Q15.9 -11.8 15.45 -11.55 15.0 -11.25 14.45 -11.55 12.55 -12.55 11.1 -14.75 10.45 -15.7 9.1 -18.55 8.95 -18.85 9.2 -18.6 10.05 -17.35 12.35 -15.45" fill="#4eab38" fill-rule="evenodd" stroke="none"/>
    <path d="M13.35 -17.3 L15.05 -15.25 16.2 -13.1 Q16.35 -12.6 15.9 -12.5 L15.0 -12.75 Q13.15 -14.15 11.7 -17.05 L9.55 -21.85 9.6 -21.95 9.7 -21.9 13.35 -17.3" fill="#4eab38" fill-rule="evenodd" stroke="none"/>
    <path d="M13.25 -23.75 L14.85 -20.7 16.2 -18.1 17.1 -15.45 Q17.25 -14.65 16.35 -14.45 15.45 -14.25 14.9 -15.1 14.15 -16.3 13.7 -18.15 L13.05 -21.25 11.5 -26.8 11.75 -26.8 13.25 -23.75" fill="#4eab38" fill-rule="evenodd" stroke="none"/>
    <path d="M16.25 -28.15 L16.5 -28.1 17.15 -24.8 17.8 -21.5 18.35 -19.15 Q18.55 -17.85 18.05 -17.0 17.75 -16.5 17.0 -16.75 16.3 -17.0 16.05 -17.55 15.75 -18.2 15.8 -18.95 L15.95 -20.35 15.9 -22.95 Q16.45 -26.3 16.25 -28.15" fill="#4eab38" fill-rule="evenodd" stroke="none"/>
    <path d="M22.7 -26.3 L22.95 -26.3 23.1 -26.1 Q22.95 -23.95 20.7 -21.6 L18.95 -19.5 17.1 -17.5 Q16.85 -17.3 16.45 -17.5 16.0 -17.65 15.9 -18.0 15.65 -19.35 16.3 -20.5 16.8 -21.4 18.05 -22.45 L19.35 -23.5 20.65 -24.55 22.7 -26.3" fill="#4eab38" fill-rule="evenodd" stroke="none"/>
    <path d="M24.9 -23.35 L25.05 -23.35 25.05 -23.25 22.85 -21.25 20.6 -19.25 18.7 -17.75 16.95 -16.1 Q16.6 -15.8 16.0 -16.1 15.4 -16.45 15.4 -16.9 15.45 -18.05 16.6 -18.9 L18.9 -20.15 24.9 -23.35" fill="#4eab38" fill-rule="evenodd" stroke="none"/>
    <path d="M24.7 -19.1 L24.9 -19.05 24.9 -18.9 Q23.75 -17.4 21.1 -16.55 L16.35 -15.3 Q15.85 -15.15 15.4 -15.6 14.95 -16.05 15.25 -16.4 16.15 -17.45 19.1 -17.65 L22.0 -18.25 24.7 -19.1" fill="#4eab38" fill-rule="evenodd" stroke="none"/>
    <path d="M24.3 -10.5 L24.3 -10.45 21.8 -10.45 19.25 -10.65 15.25 -11.7 Q14.0 -11.85 14.0 -12.85 14.0 -13.85 15.2 -13.75 16.8 -13.55 19.15 -12.3 21.7 -11.0 24.3 -10.5" fill="#4eab38" fill-rule="evenodd" stroke="none"/>
    <path d="M25.0 -14.5 L25.1 -14.4 20.35 -13.5 17.9 -13.25 15.45 -13.55 Q14.85 -13.75 14.7 -14.25 14.55 -14.75 14.95 -15.0 L18.8 -15.15 22.0 -14.45 25.0 -14.5" fill="#4eab38" fill-rule="evenodd" stroke="none"/>
    <path d="M9.2 -0.95 Q11.85 1.5 12.55 4.7 13.25 7.8 11.65 9.85 10.05 11.9 7.05 11.55 4.0 11.25 1.35 8.75 -1.3 6.25 -2.1 3.1 -2.85 -0.1 -1.3 -2.1 0.35 -4.1 3.45 -3.75 6.5 -3.4 9.2 -0.95" fill="#f0c464" fill-rule="evenodd" stroke="none"/>
    <path d="M9.2 -0.95 Q11.85 1.5 12.55 4.7 13.25 7.8 11.65 9.85 10.05 11.9 7.05 11.55 4.0 11.25 1.35 8.75 -1.3 6.25 -2.1 3.1 -2.85 -0.1 -1.3 -2.1 0.35 -4.1 3.45 -3.75 6.5 -3.4 9.2 -0.95 Z" fill="none" stroke="#c29744" stroke-linecap="butt" stroke-linejoin="miter-clip" stroke-miterlimit="4.0" stroke-width="1.0"/>
    <path d="M7.3 1.35 Q8.7 2.65 9.1 4.3 9.45 5.95 8.6 7.0 7.75 8.1 6.15 7.9 4.6 7.75 3.2 6.45 1.8 5.15 1.4 3.45 1.0 1.8 1.85 0.75 2.65 -0.3 4.3 -0.1 5.85 0.05 7.3 1.35" fill="#c29744" fill-rule="evenodd" stroke="none"/>
    <path d="M3.05 3.5 L7.25 4.1" fill="none" stroke="#9c7528" stroke-linecap="round" stroke-linejoin="miter-clip" stroke-miterlimit="4.0" stroke-width="1.0"/>
    <path d="M4.6 1.65 L5.75 5.95" fill="none" stroke="#9c7528" stroke-linecap="round" stroke-linejoin="miter-clip" stroke-miterlimit="4.0" stroke-width="1.0"/>
    <path d="M22.9 5.35 Q24.65 6.95 25.05 9.05 25.5 11.15 24.35 12.5 23.25 13.85 21.25 13.65 19.25 13.45 17.5 11.85 15.8 10.2 15.3 8.1 14.85 5.95 15.95 4.6 17.1 3.3 19.1 3.5 21.15 3.7 22.9 5.35" fill="#4b64da" fill-rule="evenodd" stroke="none"/>
    <path d="M18.05 8.2 L22.2 8.75" fill="none" stroke="#9c7528" stroke-linecap="round" stroke-linejoin="miter-clip" stroke-miterlimit="4.0" stroke-width="1.0"/>
    <path d="M19.6 6.3 L20.65 10.65" fill="none" stroke="#9c7528" stroke-linecap="round" stroke-linejoin="miter-clip" stroke-miterlimit="4.0" stroke-width="1.0"/>
    <path d="M-61.5 -22.3 Q-61.85 -18.85 -61.65 -16.5 -61.4 -14.15 -60.75 -13.05 -60.3 -12.2 -59.8 -12.7 -59.3 -13.1 -58.95 -15.05 L-58.4 -13.5 Q-58.9 -11.0 -59.6 -10.5 -60.25 -9.9 -60.95 -11.15 -61.55 -12.1 -61.95 -13.85 L-62.35 -18.05 -62.1 -23.35 Q-61.9 -25.75 -61.35 -27.5 -60.85 -28.9 -60.25 -29.05 -59.6 -29.2 -59.0 -28.2 -58.3 -27.0 -58.0 -25.05 -57.6 -23.05 -57.7 -20.35 L-58.4 -20.85 Q-58.25 -24.75 -59.25 -26.35 -59.7 -27.1 -60.1 -26.95 -60.55 -26.8 -60.9 -25.7 L-61.5 -22.3" fill="#fbc01a" fill-rule="evenodd" stroke="none"/>
    <path d="M-54.3 -20.35 Q-53.7 -19.5 -53.3 -17.5 -52.85 -15.7 -52.85 -13.25 -52.75 -10.6 -53.1 -8.25 -53.45 -4.7 -54.35 -3.25 -55.25 -1.75 -56.3 -3.4 -57.3 -5.1 -57.6 -8.7 -57.9 -11.9 -57.5 -15.3 -57.05 -19.35 -56.15 -20.75 -55.25 -22.0 -54.3 -20.35 M-54.5 -18.5 Q-55.2 -19.65 -55.85 -18.7 -56.45 -17.8 -56.9 -14.25 -57.2 -10.95 -56.95 -8.75 -56.75 -6.4 -56.05 -5.25 -55.4 -4.25 -54.75 -5.1 -54.05 -6.05 -53.7 -9.3 -53.45 -11.8 -53.5 -13.5 -53.5 -15.05 -53.8 -16.4 -54.0 -17.65 -54.5 -18.5" fill="#fbc01a" fill-rule="evenodd" stroke="none"/>
    <path d="M-53.35 1.1 L-51.35 -15.2 -50.75 -14.15 -52.5 0.2 -50.25 3.9 -50.5 5.8 -53.35 1.1" fill="#fbc01a" fill-rule="evenodd" stroke="none"/>
    <path d="M-49.8 6.95 L-47.75 -9.2 -47.15 -8.2 -48.95 6.05 -46.7 9.75 -46.95 11.65 -49.8 6.95" fill="#fbc01a" fill-rule="evenodd" stroke="none"/>
    <path d="M-40.7 2.4 L-41.0 4.25 -43.7 -0.25 -44.4 4.65 -41.85 8.85 -42.1 10.75 -44.65 6.55 -45.35 12.0 -42.55 16.6 -42.8 18.5 -46.2 12.9 -44.1 -3.15 -40.7 2.4" fill="#fbc01a" fill-rule="evenodd" stroke="none"/>
    <path d="M-38.0 8.75 Q-38.45 8.0 -38.9 8.1 -39.35 8.25 -39.7 9.3 -40.05 10.15 -40.4 12.55 -40.85 15.45 -40.7 18.1 -40.55 20.35 -39.85 21.5 -39.4 22.3 -38.85 21.9 -38.4 21.55 -37.95 19.65 L-37.4 21.2 Q-38.0 23.55 -38.7 24.0 -39.4 24.55 -40.1 23.3 -40.75 22.3 -41.05 20.65 -41.4 19.1 -41.4 16.6 -41.4 13.95 -41.05 11.5 L-40.15 7.5 Q-39.5 6.15 -38.95 6.1 -38.35 5.95 -37.7 7.0 -37.05 8.1 -36.75 10.1 -36.4 11.95 -36.55 14.6 L-37.2 14.1 Q-37.05 10.3 -38.0 8.75" fill="#fbc01a" fill-rule="evenodd" stroke="none"/>
    <path d="M-36.25 29.4 L-34.15 15.55 -35.7 13.0 -35.4 11.15 -31.75 17.25 -32.0 19.1 -33.55 16.55 -35.65 30.4 -36.25 29.4" fill="#fbc01a" fill-rule="evenodd" stroke="none"/>
    <path d="M-29.15 21.2 Q-28.55 22.05 -28.15 24.0 -27.8 25.7 -27.8 28.1 -27.8 30.2 -28.2 32.9 -28.7 36.3 -29.65 37.55 -30.65 38.95 -31.65 37.3 -32.65 35.6 -32.9 32.15 -33.1 29.05 -32.65 25.8 -31.95 21.75 -31.05 20.7 -30.05 19.65 -29.15 21.2 M-32.0 26.85 Q-32.45 29.9 -32.25 32.1 -32.05 34.4 -31.4 35.5 -30.75 36.6 -30.0 35.75 -29.35 34.95 -28.8 31.8 -28.5 29.8 -28.5 27.85 -28.45 26.6 -28.7 25.0 -29.0 23.6 -29.4 22.95 -30.1 21.8 -30.8 22.65 -31.45 23.55 -32.0 26.85" fill="#fbc01a" fill-rule="evenodd" stroke="none"/>
    <path d="M-24.1 29.85 Q-23.45 31.0 -23.25 31.85 L-22.95 34.1 -23.15 36.75 Q-23.45 38.5 -23.95 39.0 -24.45 39.5 -25.15 38.75 L-24.9 40.25 -24.75 43.0 -24.65 48.5 -25.4 47.25 -25.5 43.05 -25.6 39.65 -25.8 38.2 -26.25 37.15 -26.95 36.0 -28.05 42.85 -28.65 41.85 -26.2 26.4 -24.1 29.85 M-25.35 36.4 L-24.65 37.2 Q-24.4 37.3 -24.15 36.9 L-23.8 35.7 Q-23.6 34.6 -23.75 33.45 -23.9 32.35 -24.35 31.55 L-25.85 29.15 -26.65 34.25 -25.35 36.4" fill="#fbc01a" fill-rule="evenodd" stroke="none"/>
  </g>
</svg>
