<?xml version="1.0" encoding="UTF-8" standalone="no"?>
<svg xmlns:ffdec="https://www.free-decompiler.com/flash" xmlns:xlink="http://www.w3.org/1999/xlink" ffdec:objectType="shape" height="14.15px" width="105.6px" xmlns="http://www.w3.org/2000/svg">
  <g transform="matrix(1.0, 0.0, 0.0, 1.0, -12.5, -144.8)">
    <path d="M17.0 151.45 L19.9 151.55 Q21.6 151.75 22.4 152.5 23.15 153.2 23.15 154.15 23.15 156.25 19.95 157.75 18.45 158.45 16.1 158.7 L15.9 156.15 18.4 155.65 Q19.9 155.15 20.45 154.3 L19.1 154.0 17.45 154.0 Q12.75 154.0 12.75 151.3 12.75 149.8 14.35 148.6 15.6 147.65 17.3 147.15 L20.55 146.65 22.3 146.75 22.0 149.3 20.6 149.2 Q17.6 149.2 15.75 150.75 L15.4 151.15 17.0 151.45" fill="#fffb00" fill-rule="evenodd" stroke="none"/>
    <path d="M17.0 151.45 L19.9 151.55 Q21.6 151.75 22.4 152.5 23.15 153.2 23.15 154.15 23.15 156.25 19.95 157.75 18.45 158.45 16.1 158.7 L15.9 156.15 18.4 155.65 Q19.9 155.15 20.45 154.3 L19.1 154.0 17.45 154.0 Q12.75 154.0 12.75 151.3 12.75 149.8 14.35 148.6 15.6 147.65 17.3 147.15 L20.55 146.65 22.3 146.75 22.0 149.3 20.6 149.2 Q17.6 149.2 15.75 150.75 L15.4 151.15 17.0 151.45 Z" fill="none" stroke="#085da4" stroke-linecap="butt" stroke-linejoin="miter-clip" stroke-miterlimit="4.0" stroke-width="0.5"/>
    <path d="M34.05 150.7 Q34.05 149.35 33.25 148.5 32.45 147.6 31.15 147.6 29.6 147.6 28.25 148.85 26.9 150.05 26.9 151.65 26.9 153.05 27.65 153.85 28.4 154.7 29.75 154.7 31.35 154.7 32.75 153.55 34.05 152.35 34.05 150.7 M36.6 150.7 Q36.6 153.45 34.5 155.4 32.5 157.25 29.7 157.25 27.35 157.25 25.85 155.6 24.35 154.05 24.35 151.6 24.35 149.05 26.45 147.0 28.5 145.05 31.15 145.05 33.5 145.05 35.05 146.7 36.6 148.35 36.6 150.7" fill="#fffb00" fill-rule="evenodd" stroke="none"/>
    <path d="M34.05 150.7 Q34.05 149.35 33.25 148.5 32.45 147.6 31.15 147.6 29.6 147.6 28.25 148.85 26.9 150.05 26.9 151.65 26.9 153.05 27.65 153.85 28.4 154.7 29.75 154.7 31.35 154.7 32.75 153.55 34.05 152.35 34.05 150.7 M36.6 150.7 Q36.6 153.45 34.5 155.4 32.5 157.25 29.7 157.25 27.35 157.25 25.85 155.6 24.35 154.05 24.35 151.6 24.35 149.05 26.45 147.0 28.5 145.05 31.15 145.05 33.5 145.05 35.05 146.7 36.6 148.35 36.6 150.7 Z" fill="none" stroke="#085da4" stroke-linecap="butt" stroke-linejoin="miter-clip" stroke-miterlimit="4.0" stroke-width="0.5"/>
    <path d="M43.2 148.55 Q41.95 148.55 41.1 149.4 40.15 150.3 40.15 151.45 L40.2 152.0 Q40.8 154.8 43.65 154.8 45.3 154.8 47.7 153.95 L48.55 156.35 Q45.55 157.35 43.55 157.35 40.3 157.35 38.8 155.1 37.65 153.5 37.65 151.45 37.65 149.2 39.3 147.55 41.05 145.95 43.3 145.95 45.6 145.95 47.55 148.0 L45.7 149.75 Q44.6 148.55 43.2 148.55" fill="#fffb00" fill-rule="evenodd" stroke="none"/>
    <path d="M43.2 148.55 Q41.95 148.55 41.1 149.4 40.15 150.3 40.15 151.45 L40.2 152.0 Q40.8 154.8 43.65 154.8 45.3 154.8 47.7 153.95 L48.55 156.35 Q45.55 157.35 43.55 157.35 40.3 157.35 38.8 155.1 37.65 153.5 37.65 151.45 37.65 149.2 39.3 147.55 41.05 145.95 43.3 145.95 45.6 145.95 47.55 148.0 L45.7 149.75 Q44.6 148.55 43.2 148.55 Z" fill="none" stroke="#085da4" stroke-linecap="butt" stroke-linejoin="miter-clip" stroke-miterlimit="4.0" stroke-width="0.5"/>
    <path d="M54.35 148.9 L54.85 154.85 57.15 154.65 57.4 157.2 51.05 157.8 50.85 155.25 52.3 155.1 51.8 149.05 49.7 149.25 49.55 146.7 56.5 146.1 56.7 148.65 54.35 148.9" fill="#fffb00" fill-rule="evenodd" stroke="none"/>
    <path d="M54.35 148.9 L54.85 154.85 57.15 154.65 57.4 157.2 51.05 157.8 50.85 155.25 52.3 155.1 51.8 149.05 49.7 149.25 49.55 146.7 56.5 146.1 56.7 148.65 54.35 148.9 Z" fill="none" stroke="#085da4" stroke-linecap="butt" stroke-linejoin="miter-clip" stroke-miterlimit="4.0" stroke-width="0.5"/>
    <path d="M64.6 151.25 L63.75 148.65 62.75 148.85 62.2 151.7 64.6 151.25 M67.3 151.2 Q68.4 154.55 68.75 156.8 L66.2 157.2 65.4 153.75 61.75 154.35 61.25 157.3 58.7 157.1 59.6 151.85 60.6 146.65 65.5 145.65 67.3 151.2" fill="#fffb00" fill-rule="evenodd" stroke="none"/>
    <path d="M64.6 151.25 L63.75 148.65 62.75 148.85 62.2 151.7 64.6 151.25 M67.3 151.2 Q68.4 154.55 68.75 156.8 L66.2 157.2 65.4 153.75 61.75 154.35 61.25 157.3 58.7 157.1 59.6 151.85 60.6 146.65 65.5 145.65 67.3 151.2 Z" fill="none" stroke="#085da4" stroke-linecap="butt" stroke-linejoin="miter-clip" stroke-miterlimit="4.0" stroke-width="0.5"/>
    <path d="M78.4 156.15 Q76.3 157.0 74.45 157.2 L70.4 157.45 69.8 146.7 72.35 146.55 72.85 154.85 Q75.0 154.7 77.45 153.8 L78.4 156.15" fill="#fffb00" fill-rule="evenodd" stroke="none"/>
    <path d="M78.4 156.15 Q76.3 157.0 74.45 157.2 L70.4 157.45 69.8 146.7 72.35 146.55 72.85 154.85 Q75.0 154.7 77.45 153.8 L78.4 156.15 Z" fill="none" stroke="#085da4" stroke-linecap="butt" stroke-linejoin="miter-clip" stroke-miterlimit="4.0" stroke-width="0.5"/>
    <path d="M83.65 148.9 L84.15 154.85 86.45 154.65 86.7 157.2 80.35 157.8 80.15 155.25 81.6 155.1 81.1 149.05 79.0 149.25 78.85 146.7 85.8 146.1 86.0 148.65 83.65 148.9" fill="#fffb00" fill-rule="evenodd" stroke="none"/>
    <path d="M83.65 148.9 L84.15 154.85 86.45 154.65 86.7 157.2 80.35 157.8 80.15 155.25 81.6 155.1 81.1 149.05 79.0 149.25 78.85 146.7 85.8 146.1 86.0 148.65 83.65 148.9 Z" fill="none" stroke="#085da4" stroke-linecap="butt" stroke-linejoin="miter-clip" stroke-miterlimit="4.0" stroke-width="0.5"/>
    <path d="M91.25 154.55 L96.45 154.2 96.65 156.8 88.7 157.3 87.7 155.3 92.25 148.5 88.4 148.95 88.1 146.4 95.25 145.55 95.95 147.55 91.25 154.55" fill="#fffb00" fill-rule="evenodd" stroke="none"/>
    <path d="M91.25 154.55 L96.45 154.2 96.65 156.8 88.7 157.3 87.7 155.3 92.25 148.5 88.4 148.95 88.1 146.4 95.25 145.55 95.95 147.55 91.25 154.55 Z" fill="none" stroke="#085da4" stroke-linecap="butt" stroke-linejoin="miter-clip" stroke-miterlimit="4.0" stroke-width="0.5"/>
    <path d="M105.1 149.05 L100.8 149.25 100.95 151.25 105.15 150.85 105.35 153.45 101.05 153.8 101.15 155.2 101.45 155.2 105.45 154.55 105.95 157.05 103.4 157.6 100.75 157.9 98.75 157.75 98.1 146.8 105.0 146.45 105.1 149.05" fill="#fffb00" fill-rule="evenodd" stroke="none"/>
    <path d="M105.1 149.05 L100.8 149.25 100.95 151.25 105.15 150.85 105.35 153.45 101.05 153.8 101.15 155.2 101.45 155.2 105.45 154.55 105.95 157.05 103.4 157.6 100.75 157.9 98.75 157.75 98.1 146.8 105.0 146.45 105.1 149.05 Z" fill="none" stroke="#085da4" stroke-linecap="butt" stroke-linejoin="miter-clip" stroke-miterlimit="4.0" stroke-width="0.5"/>
    <path d="M114.55 150.7 Q114.55 149.2 111.55 149.2 L110.3 149.25 110.65 153.05 Q114.55 151.65 114.55 150.7 M117.8 155.25 L117.2 157.7 110.9 156.1 111.05 157.85 108.5 158.1 107.5 146.9 111.15 146.65 Q117.15 146.65 117.15 150.7 117.15 152.8 114.2 154.3 L117.8 155.25" fill="#fffb00" fill-rule="evenodd" stroke="none"/>
    <path d="M114.55 150.7 Q114.55 149.2 111.55 149.2 L110.3 149.25 110.65 153.05 Q114.55 151.65 114.55 150.7 M117.8 155.25 L117.2 157.7 110.9 156.1 111.05 157.85 108.5 158.1 107.5 146.9 111.15 146.65 Q117.15 146.65 117.15 150.7 117.15 152.8 114.2 154.3 L117.8 155.25 Z" fill="none" stroke="#085da4" stroke-linecap="butt" stroke-linejoin="miter-clip" stroke-miterlimit="4.0" stroke-width="0.5"/>
  </g>
</svg>
