<?xml version="1.0" encoding="UTF-8" standalone="no"?>
<svg xmlns:ffdec="https://www.free-decompiler.com/flash" xmlns:xlink="http://www.w3.org/1999/xlink" ffdec:objectType="shape" height="132.25px" width="133.95px" xmlns="http://www.w3.org/2000/svg">
  <g transform="matrix(1.0, 0.0, 0.0, 1.0, 66.95, 66.1)">
    <path d="M63.4 27.5 L55.3 31.9 57.25 20.45 63.4 27.5" fill="#290f68" fill-rule="evenodd" stroke="none"/>
    <path d="M59.7 15.25 L57.85 17.35 58.55 18.95 57.4 22.2 58.55 23.1 58.2 23.4 Q57.85 23.8 57.85 24.25 L58.3 26.35 56.9 28.2 58.1 29.6 56.7 32.35 -10.3 63.05 -14.9 55.7 -11.7 32.6 58.3 13.2 59.7 15.25" fill="#f0ddb1" fill-rule="evenodd" stroke="none"/>
    <path d="M59.7 15.25 L57.85 17.35 58.55 18.95 57.4 22.2 58.55 23.1 58.2 23.4 Q57.85 23.8 57.85 24.25 L58.3 26.35 56.9 28.2 58.1 29.6 56.7 32.35 -10.3 63.05 -14.9 55.7 -11.7 32.6 58.3 13.2 59.7 15.25 Z" fill="none" stroke="#cfb78a" stroke-linecap="butt" stroke-linejoin="miter-clip" stroke-miterlimit="4.0" stroke-width="1.0"/>
    <path d="M-3.7 40.85 L-8.5 42.85 Q-8.7 42.9 -8.75 42.75 L-8.65 42.5 Q-7.15 41.6 -3.85 40.6 -0.55 39.5 0.95 38.65 -0.7 39.7 -3.7 40.85" fill="#cfb78a" fill-rule="evenodd" stroke="none"/>
    <path d="M7.05 39.6 Q5.25 40.0 2.75 41.1 L-1.4 42.9 -9.45 46.0 -9.8 45.9 Q-9.95 45.65 -9.75 45.5 -8.3 44.45 -5.8 43.65 L-1.55 42.4 2.7 40.9 Q5.35 39.9 7.05 39.6" fill="#cfb78a" fill-rule="evenodd" stroke="none"/>
    <path d="M-1.8 55.4 Q-1.5 55.25 -1.75 55.5 -4.5 56.95 -9.25 58.7 L-9.5 58.6 -9.4 58.35 Q-8.05 57.6 -5.65 56.75 L-1.8 55.4" fill="#cfb78a" fill-rule="evenodd" stroke="none"/>
    <path d="M-2.5 53.05 L-2.5 53.1 -6.7 54.45 Q-8.45 55.25 -9.55 55.45 L-9.8 55.3 -9.7 54.95 -6.2 53.45 Q-4.0 52.75 -2.5 53.05" fill="#cfb78a" fill-rule="evenodd" stroke="none"/>
    <path d="M-13.5 36.75 L-7.6 37.45 -6.6 62.6 -13.5 63.55 -13.5 36.75" fill="#827252" fill-rule="evenodd" stroke="none"/>
    <path d="M66.25 8.2 L65.6 11.35 Q-1.3 38.55 -9.85 41.05 -12.8 44.05 -11.95 53.5 -11.1 62.95 -8.1 61.5 L63.4 27.5 62.7 31.2 Q14.65 55.2 1.5 60.55 0.75 59.45 -0.8 59.85 -2.7 60.35 -4.05 63.3 -4.95 63.55 -8.45 65.25 -11.95 66.7 -14.0 65.85 -17.1 62.95 -18.75 50.7 L-19.75 39.05 -7.5 33.5 66.25 8.2" fill="#290f68" fill-rule="evenodd" stroke="none"/>
    <path d="M45.8 26.85 L51.3 24.45 Q54.6 23.0 56.85 22.2 57.1 22.1 57.2 22.35 57.3 22.6 57.05 22.7 L51.1 25.15 45.0 27.4 33.5 31.45 33.5 31.4 45.8 26.85" fill="#cfb78a" fill-rule="evenodd" stroke="none"/>
    <path d="M41.1 24.6 L41.05 24.55 49.95 21.05 Q55.4 18.85 59.15 18.7 L59.35 18.9 59.2 19.1 Q55.85 19.9 50.1 21.8 L41.1 24.6" fill="#cfb78a" fill-rule="evenodd" stroke="none"/>
    <path d="M44.0 21.1 L44.0 20.95 Q46.35 20.5 51.1 18.75 55.65 17.1 58.15 16.65 L58.3 16.75 58.25 16.9 51.2 19.4 Q47.15 20.7 44.0 21.1" fill="#cfb78a" fill-rule="evenodd" stroke="none"/>
    <path d="M53.3 17.05 L53.25 16.95 55.55 16.25 57.85 15.45 58.05 15.55 58.0 15.7 55.65 16.5 53.3 17.05" fill="#cfb78a" fill-rule="evenodd" stroke="none"/>
    <path d="M49.4 28.85 L49.35 28.85 54.15 26.8 Q56.25 25.8 57.45 25.8 L57.65 25.95 57.55 26.2 55.35 26.85 53.2 27.45 49.4 28.85" fill="#cfb78a" fill-rule="evenodd" stroke="none"/>
    <path d="M-64.2 -14.9 Q-66.0 -17.35 -66.3 -27.0 -66.65 -37.85 -63.2 -42.25 L-61.7 -43.25 Q-60.0 -44.2 -58.7 -44.0 -57.15 -42.2 -56.55 -42.4 -56.0 -42.55 -56.25 -44.7 L7.5 -64.75 63.95 7.7 Q9.9 28.75 -1.15 33.6 -2.05 35.4 -3.9 36.2 -5.95 37.05 -6.7 35.35 L-11.55 37.1 Q-16.5 41.05 -16.5 50.1 -16.5 57.2 -13.65 65.15 -16.45 65.8 -39.6 27.1 L-64.2 -14.9" fill="#233cb1" fill-rule="evenodd" stroke="none"/>
    <path d="M-64.2 -14.9 L-39.6 27.1 Q-16.45 65.8 -13.65 65.15 -16.5 57.2 -16.5 50.1 -16.5 41.05 -11.55 37.1 L-6.7 35.35 Q-5.95 37.05 -3.9 36.2 -2.05 35.4 -1.15 33.6 9.9 28.75 63.95 7.7 L7.5 -64.75 -56.25 -44.7 Q-56.0 -42.55 -56.55 -42.4 -57.15 -42.2 -58.7 -44.0 -60.0 -44.2 -61.7 -43.25 L-63.2 -42.25 Q-66.65 -37.85 -66.3 -27.0 -66.0 -17.35 -64.2 -14.9 Z" fill="none" stroke="#0e1670" stroke-linecap="butt" stroke-linejoin="miter-clip" stroke-miterlimit="4.0" stroke-width="1.0"/>
    <path d="M-46.5 -24.35 L-42.55 -25.8 -35.2 -15.2 -39.3 -13.6 -46.5 -24.35" fill="#0e1670" fill-rule="evenodd" stroke="none"/>
    <path d="M-14.5 14.5 L-19.25 16.3 -29.9 0.45 -25.45 -1.25 -14.5 14.5" fill="#0e1670" fill-rule="evenodd" stroke="none"/>
    <path d="M7.5 -64.75 L20.05 -48.6 -57.8 -20.25 -66.3 -29.55 Q-66.2 -38.4 -63.2 -42.25 L-61.7 -43.25 Q-60.0 -44.2 -58.7 -44.0 -57.15 -42.2 -56.55 -42.4 -56.0 -42.55 -56.25 -44.7 L7.5 -64.75" fill="#7733de" fill-rule="evenodd" stroke="none"/>
    <path d="M-46.95 -32.05 L-42.55 -25.8 -46.5 -24.35 -50.8 -30.75 -46.95 -32.05" fill="#4e20a4" fill-rule="evenodd" stroke="none"/>
    <path d="M-11.55 37.1 Q-15.35 40.2 -16.25 46.35 -16.95 51.5 -15.6 58.1 -16.4 58.3 -25.0 39.95 L-33.4 21.6 50.2 -9.95 63.95 7.7 Q9.9 28.75 -1.15 33.6 -2.05 35.4 -3.9 36.2 -5.95 37.05 -6.7 35.35 L-11.55 37.1" fill="#7733de" fill-rule="evenodd" stroke="none"/>
    <path d="M27.55 -39.0 L38.35 -25.2 -41.95 4.95 -52.9 -8.45 27.55 -39.0" fill="#34a9de" fill-rule="evenodd" stroke="none"/>
    <path d="M7.5 -64.75 L16.35 -53.45 -60.25 -27.55 -65.85 -35.1 Q-65.1 -39.75 -63.2 -42.25 L-61.7 -43.25 Q-60.0 -44.2 -58.7 -44.0 -57.15 -42.2 -56.55 -42.4 -56.0 -42.55 -56.25 -44.7 L7.5 -64.75" fill="#3aae24" fill-rule="evenodd" stroke="none"/>
    <path d="M-55.75 -44.7 L-46.95 -32.05 -50.8 -30.75 -59.55 -43.8 -58.75 -44.0 -58.7 -44.0 Q-57.2 -42.2 -56.6 -42.4 -56.0 -42.55 -56.25 -44.55 L-55.75 -44.7" fill="#226d13" fill-rule="evenodd" stroke="none"/>
    <path d="M-35.2 -15.2 L-25.45 -1.25 -29.9 0.45 -39.3 -13.6 -35.2 -15.2" fill="#176f85" fill-rule="evenodd" stroke="none"/>
    <path d="M-19.25 16.3 L-14.5 14.5 -1.15 33.6 -3.15 36.3 -5.45 36.4 -5.85 36.3 -19.25 16.3" fill="#4e20a4" fill-rule="evenodd" stroke="none"/>
    <path d="M-66.5 -34.95 L-65.45 -33.55 -65.7 -29.75 -57.6 -20.95 -46.85 -24.9 -46.15 -23.85 -57.95 -19.55 -66.95 -29.3 -66.9 -29.55 Q-66.9 -31.9 -66.5 -34.95" fill="#4e20a4" fill-rule="evenodd" stroke="none"/>
    <path d="M16.1 -52.7 L17.35 -53.15 21.05 -48.35 -42.2 -25.25 -42.95 -26.3 19.1 -48.9 16.1 -52.7" fill="#4e20a4" fill-rule="evenodd" stroke="none"/>
    <path d="M-14.15 15.0 L-14.85 13.95 50.4 -10.7 64.95 8.0 64.2 8.3 Q10.65 29.15 -0.75 34.1 -1.4 35.25 -2.6 36.1 -3.9 37.05 -5.1 37.05 -6.3 37.05 -7.0 36.1 L-11.25 37.6 Q-15.15 40.85 -15.75 47.6 -16.2 52.3 -15.0 58.0 L-14.9 58.6 -15.65 58.75 Q-17.45 58.75 -33.95 21.85 L-34.25 21.3 -19.6 15.75 -18.9 16.8 -32.6 21.95 Q-21.1 47.6 -16.7 55.55 -18.6 42.0 -11.95 36.6 L-11.75 36.5 -6.9 34.75 -5.85 36.3 -5.45 36.4 -3.15 36.3 -1.15 33.6 -1.5 33.1 -1.4 33.05 Q7.35 29.2 63.0 7.45 L50.0 -9.25 -14.15 15.0" fill="#4e20a4" fill-rule="evenodd" stroke="none"/>
    <path d="M27.75 -39.75 L39.3 -24.9 -25.1 -0.7 -25.8 -1.75 37.35 -25.45 27.35 -38.3 -34.8 -14.65 -35.55 -15.7 27.75 -39.75" fill="#176f85" fill-rule="evenodd" stroke="none"/>
    <path d="M-39.65 -14.15 L-38.95 -13.1 -51.9 -8.2 -41.75 4.25 -30.25 -0.1 -29.55 0.95 -42.15 5.7 -53.9 -8.7 -39.65 -14.15" fill="#176f85" fill-rule="evenodd" stroke="none"/>
    <path d="M15.3 -53.75 L16.1 -52.7 -46.55 -31.55 -47.3 -32.55 15.3 -53.75" fill="#226d13" fill-rule="evenodd" stroke="none"/>
    <path d="M-51.15 -31.25 L-50.45 -30.2 -60.45 -26.85 -65.45 -33.55 -65.15 -35.6 -65.2 -35.25 -60.0 -28.3 -51.15 -31.25" fill="#226d13" fill-rule="evenodd" stroke="none"/>
    <path d="M16.1 -52.7 L7.25 -64.05 -55.45 -44.3 -55.75 -44.7 -56.25 -44.55 Q-56.0 -42.55 -56.6 -42.4 -57.2 -42.2 -58.7 -44.0 L-58.75 -44.0 -59.55 -43.8 -59.25 -43.4 Q-60.9 -43.35 -62.8 -41.8 L-63.45 -40.8 -63.95 -39.7 Q-65.0 -37.3 -65.45 -33.55 L-66.5 -34.95 -66.2 -36.65 -65.3 -39.7 -65.15 -39.95 -64.55 -41.25 -64.5 -41.4 -63.65 -42.65 Q-60.9 -44.95 -58.6 -44.6 L-58.35 -44.55 -58.2 -44.4 Q-57.35 -43.3 -56.8 -43.05 L-56.85 -44.6 -56.9 -45.1 7.7 -65.5 17.35 -53.15 16.1 -52.7" fill="#226d13" fill-rule="evenodd" stroke="none"/>
    <path d="M-46.15 -23.85 L-42.2 -25.25 -35.55 -15.7 -39.65 -14.15 -46.15 -23.85" fill="#0e1670" fill-rule="evenodd" stroke="none"/>
    <path d="M-14.85 13.95 L-19.6 15.75 -29.55 0.95 -25.1 -0.7 -14.85 13.95" fill="#0e1670" fill-rule="evenodd" stroke="none"/>
    <path d="M-46.55 -31.55 L-42.95 -26.3 -46.85 -24.9 -50.45 -30.2 -46.55 -31.55" fill="#4e20a4" fill-rule="evenodd" stroke="none"/>
    <path d="M-42.95 -26.3 L-42.2 -25.25 -46.15 -23.85 -46.85 -24.9 -42.95 -26.3" fill="#290f68" fill-rule="evenodd" stroke="none"/>
    <path d="M-47.3 -32.55 L-51.15 -31.25 -59.25 -43.4 -59.0 -43.4 Q-57.5 -41.75 -56.7 -41.75 -56.25 -41.75 -55.95 -42.1 -55.45 -42.6 -55.6 -44.25 L-55.45 -44.3 -47.3 -32.55" fill="#226d13" fill-rule="evenodd" stroke="none"/>
    <path d="M-47.3 -32.55 L-46.55 -31.55 -50.45 -30.2 -51.15 -31.25 -47.3 -32.55" fill="#124408" fill-rule="evenodd" stroke="none"/>
    <path d="M-55.45 -44.3 L-55.6 -44.25 Q-55.45 -42.6 -55.95 -42.1 -56.25 -41.75 -56.7 -41.75 -57.5 -41.75 -59.0 -43.4 L-59.25 -43.4 -59.55 -43.8 -58.75 -44.0 -58.7 -44.0 Q-57.2 -42.2 -56.6 -42.4 -56.0 -42.55 -56.25 -44.55 L-55.75 -44.7 -55.45 -44.3" fill="#226d13" fill-rule="evenodd" stroke="none"/>
    <path d="M-34.8 -14.65 L-25.8 -1.75 -30.25 -0.1 -38.95 -13.1 -34.8 -14.65" fill="#176f85" fill-rule="evenodd" stroke="none"/>
    <path d="M-25.8 -1.75 L-25.1 -0.7 -29.55 0.95 -30.25 -0.1 -25.8 -1.75" fill="#0d4a59" fill-rule="evenodd" stroke="none"/>
    <path d="M-35.55 -15.7 L-34.8 -14.65 -38.95 -13.1 -39.65 -14.15 -35.55 -15.7" fill="#0d4a59" fill-rule="evenodd" stroke="none"/>
    <path d="M-18.9 16.8 L-14.15 15.0 -1.5 33.1 -1.6 33.15 -1.7 33.35 Q-2.2 34.3 -3.25 35.05 -4.3 35.85 -5.1 35.85 -5.85 35.85 -6.15 35.1 L-6.4 34.6 -6.9 34.75 -18.9 16.8" fill="#4e20a4" fill-rule="evenodd" stroke="none"/>
    <path d="M-14.85 13.95 L-14.15 15.0 -18.9 16.8 -19.6 15.75 -14.85 13.95" fill="#290f68" fill-rule="evenodd" stroke="none"/>
    <path d="M-6.15 35.1 Q-5.85 35.85 -5.1 35.85 -4.3 35.85 -3.25 35.05 -2.2 34.3 -1.7 33.35 L-1.6 33.15 -1.5 33.1 -1.15 33.6 -3.15 36.3 -5.45 36.4 -5.85 36.3 -6.9 34.75 -6.4 34.6 -6.15 35.1" fill="#4e20a4" fill-rule="evenodd" stroke="none"/>
    <path d="M-64.2 -14.9 Q-65.9 -17.3 -66.25 -26.6 -66.65 -37.1 -63.5 -41.75 L-12.9 38.35 Q-16.75 42.7 -16.5 51.1 -16.25 57.85 -13.65 65.15 -16.45 65.8 -39.6 27.1 L-64.2 -14.9" fill="#0e1670" fill-rule="evenodd" stroke="none"/>
    <path d="M-51.35 -22.55 Q-55.55 -18.8 -56.75 -12.5 -57.8 -7.1 -56.45 -1.55 L-64.2 -14.9 Q-65.25 -16.3 -65.95 -22.0 -66.7 -28.3 -66.05 -33.7 L-60.1 -36.4 -51.35 -22.55" fill="#4e20a4" fill-rule="evenodd" stroke="none"/>
    <path d="M-51.35 -22.55 L-60.1 -36.4 -66.05 -33.7 Q-66.7 -28.3 -65.95 -22.0 -65.25 -16.3 -64.2 -14.9 L-56.45 -1.55 Q-57.8 -7.1 -56.75 -12.5 -55.55 -18.8 -51.35 -22.55 Z" fill="none" stroke="#4e20a4" stroke-linecap="butt" stroke-linejoin="miter-clip" stroke-miterlimit="4.0" stroke-width="1.0"/>
    <path d="M34.5 24.55 L34.55 24.7 Q27.9 28.3 19.55 31.3 L12.2 34.3 8.55 35.7 Q6.4 36.6 5.05 37.45 L5.05 37.4 Q9.55 34.45 19.4 30.95 22.45 29.9 27.0 27.85 L34.5 24.55" fill="#cfb78a" fill-rule="evenodd" stroke="none"/>
    <path d="M43.05 24.35 L56.45 19.65 Q56.7 19.8 56.55 19.85 54.0 21.45 49.7 22.85 44.85 24.35 42.55 25.15 L35.3 27.65 Q32.05 29.1 30.05 29.35 29.95 29.4 30.0 29.2 31.45 29.0 33.4 28.1 L36.6 26.7 43.05 24.35" fill="#cfb78a" fill-rule="evenodd" stroke="none"/>
    <path d="M67.0 7.5 L66.35 7.7 41.95 17.3 41.7 15.85 52.9 -7.75 67.0 7.5" fill="#fbc01a" fill-rule="evenodd" stroke="none"/>
    <path d="M42.75 15.9 L65.25 7.1 64.5 6.3 53.2 -5.95 42.75 15.9 M67.0 7.5 L66.35 7.7 41.95 17.3 41.7 15.85 52.9 -7.75 67.0 7.5" fill="#d79d13" fill-rule="evenodd" stroke="none"/>
    <path d="M55.35 5.45 Q54.7 6.95 53.55 7.7 52.35 8.45 51.3 8.05 50.2 7.6 49.9 6.25 49.6 4.85 50.2 3.35 50.8 1.85 52.0 1.1 53.2 0.35 54.25 0.75 55.3 1.2 55.65 2.6 55.95 3.95 55.35 5.45" fill="#fbdd64" fill-rule="evenodd" stroke="none"/>
    <path d="M7.6 -65.55 Q10.8 -61.75 15.2 -55.5 L-9.35 -59.85 Q-0.5 -63.45 7.6 -65.55" fill="#fbc01a" fill-rule="evenodd" stroke="none"/>
    <path d="M7.6 -65.55 Q-0.5 -63.45 -9.35 -59.85 L15.2 -55.5 Q10.8 -61.75 7.6 -65.55 Z" fill="none" stroke="#d79d13" stroke-linecap="butt" stroke-linejoin="miter-clip" stroke-miterlimit="4.0" stroke-width="1.0"/>
    <path d="M5.4 -63.0 L7.0 -62.05 Q7.6 -61.35 7.4 -60.65 7.2 -59.95 6.35 -59.6 L4.5 -59.5 Q3.5 -59.75 2.9 -60.45 2.3 -61.15 2.5 -61.85 2.7 -62.55 3.55 -62.9 L5.4 -63.0" fill="#fbdd64" fill-rule="evenodd" stroke="none"/>
    <path d="M66.0 10.85 L43.05 20.15 42.5 17.05 66.35 7.7 66.0 10.85" fill="#d79d13" fill-rule="evenodd" stroke="none"/>
    <path d="M66.55 11.05 L66.45 11.35 58.0 14.75 43.25 20.7 42.6 21.0 41.9 17.25 43.05 16.8 43.55 19.3 57.5 13.65 65.45 10.45 65.75 7.95 66.95 7.5 66.95 7.55 66.85 9.25 66.55 11.05" fill="#a17408" fill-rule="evenodd" stroke="none"/>
    <path d="M25.55 -32.0 Q28.0 -25.1 22.5 -17.65 17.05 -10.2 6.85 -6.5 8.95 -0.5 6.85 4.55 4.85 9.4 0.3 10.8 2.55 6.7 2.25 2.55 1.95 -1.5 -0.7 -4.6 -9.1 -3.35 -15.6 -6.0 -22.25 -8.65 -24.25 -14.3 -26.7 -21.2 -21.15 -28.7 -15.6 -36.15 -5.3 -39.85 5.0 -43.5 14.05 -41.2 23.05 -38.9 25.55 -32.0" fill="#ffffff" fill-rule="evenodd" stroke="none"/>
    <path d="M25.55 -32.0 Q23.05 -38.9 14.05 -41.2 5.0 -43.5 -5.3 -39.85 -15.6 -36.15 -21.15 -28.7 -26.7 -21.2 -24.25 -14.3 -22.25 -8.65 -15.6 -6.0 -9.1 -3.35 -0.7 -4.6 1.95 -1.5 2.25 2.55 2.55 6.7 0.3 10.8 4.85 9.4 6.85 4.55 8.95 -0.5 6.85 -6.5 17.05 -10.2 22.5 -17.65 28.0 -25.1 25.55 -32.0 Z" fill="none" stroke="#808080" stroke-linecap="butt" stroke-linejoin="miter-clip" stroke-miterlimit="4.0" stroke-width="1.0"/>
    <path d="M3.25 -21.05 Q3.65 -20.3 4.3 -20.1 L5.25 -19.55 Q6.0 -18.15 3.3 -17.05 0.95 -16.05 0.2 -17.3 -0.1 -17.75 0.1 -18.4 0.3 -19.15 -0.95 -21.3 L-1.6 -22.1 -2.35 -21.95 Q-3.75 -21.4 -3.8 -21.05 L-3.1 -19.45 Q-2.3 -18.05 -1.6 -17.8 -0.9 -17.55 -0.65 -17.1 0.1 -15.8 -2.55 -14.6 -5.1 -13.55 -5.85 -14.9 -6.15 -15.35 -5.85 -15.85 -5.6 -16.3 -5.75 -16.8 L-7.6 -20.25 -10.1 -24.4 Q-10.4 -24.8 -11.0 -24.95 -11.65 -25.05 -11.85 -25.45 -12.75 -26.95 -9.7 -28.3 -7.5 -29.1 -6.85 -27.95 -6.45 -27.35 -6.8 -26.7 L-6.8 -26.0 -5.95 -24.4 -5.2 -23.65 -4.4 -23.9 -3.7 -24.2 Q-3.05 -24.45 -3.05 -24.65 -3.0 -24.85 -3.3 -25.3 -4.4 -27.3 -5.0 -27.4 L-6.0 -28.05 Q-7.0 -29.4 -4.15 -30.55 -1.65 -31.5 -0.9 -30.25 -0.55 -29.7 -0.8 -29.2 -1.05 -28.85 -0.9 -28.5 L0.45 -25.85 3.25 -21.05" fill="#808080" fill-rule="evenodd" stroke="none"/>
    <path d="M1.5 -32.55 Q2.85 -33.05 3.5 -31.9 4.05 -30.95 3.3 -30.05 L1.9 -29.05 Q0.7 -28.55 -0.05 -29.8 -0.5 -30.6 0.2 -31.55 L1.5 -32.55 M5.45 -28.75 L8.45 -23.6 Q9.15 -22.4 9.8 -22.15 10.45 -21.9 10.65 -21.55 11.35 -20.35 9.0 -19.35 6.55 -18.4 5.85 -19.5 5.65 -19.9 5.75 -20.3 L5.8 -21.1 4.85 -23.15 3.55 -25.1 2.75 -25.5 Q2.25 -25.6 2.0 -26.05 1.2 -27.35 4.55 -29.35 4.9 -29.5 5.45 -28.75" fill="#808080" fill-rule="evenodd" stroke="none"/>
    <path d="M5.95 -31.15 Q5.3 -32.25 5.2 -33.2 5.15 -34.3 5.95 -34.6 6.8 -34.95 7.8 -34.2 L9.3 -32.45 Q10.3 -30.7 10.65 -28.65 10.9 -26.85 10.55 -26.75 10.25 -26.6 8.7 -27.9 6.85 -29.55 5.95 -31.15 M12.85 -25.15 L14.15 -23.85 Q14.65 -23.0 14.55 -22.25 14.45 -21.45 13.8 -21.25 L12.35 -21.4 Q11.55 -21.8 11.05 -22.65 10.55 -23.5 10.65 -24.25 10.75 -25.05 11.4 -25.3 L12.85 -25.15" fill="#808080" fill-rule="evenodd" stroke="none"/>
    <path d="M-55.05 -29.3 Q-58.1 -26.15 -59.8 -20.35 -61.65 -14.15 -60.65 -8.75 L-64.2 -14.9 Q-65.9 -17.3 -66.25 -26.6 -66.65 -37.1 -63.5 -41.75 -60.85 -37.5 -55.05 -29.3" fill="#226d13" fill-rule="evenodd" stroke="none"/>
    <path d="M-55.05 -29.3 Q-60.85 -37.5 -63.5 -41.75 -66.65 -37.1 -66.25 -26.6 -65.9 -17.3 -64.2 -14.9 L-60.65 -8.75 Q-61.65 -14.15 -59.8 -20.35 -58.1 -26.15 -55.05 -29.3 Z" fill="none" stroke="#226d13" stroke-linecap="butt" stroke-linejoin="miter-clip" stroke-miterlimit="6.0" stroke-width="1.0"/>
    <path d="M-49.5 -1.8 Q-48.3 -8.7 -44.7 -11.45 L-35.6 2.55 Q-38.8 4.8 -40.55 11.75 -42.4 18.8 -41.05 24.65 L-49.65 10.1 Q-50.4 3.75 -49.5 -1.8" fill="#176f85" fill-rule="evenodd" stroke="none"/>
    <path d="M-49.5 -1.8 Q-50.4 3.75 -49.65 10.1 L-41.05 24.65 Q-42.4 18.8 -40.55 11.75 -38.8 4.8 -35.6 2.55 L-44.7 -11.45 Q-48.3 -8.7 -49.5 -1.8 Z" fill="none" stroke="#176f85" stroke-linecap="butt" stroke-linejoin="miter-clip" stroke-miterlimit="8.0" stroke-width="1.0"/>
    <path d="M-31.3 40.7 Q-32.45 33.25 -31.0 27.4 -29.5 21.45 -25.7 18.7 L-12.9 38.35 Q-16.75 42.7 -16.5 51.1 -16.25 57.85 -13.65 65.15 -15.85 65.65 -31.3 40.7" fill="#4e20a4" fill-rule="evenodd" stroke="none"/>
    <path d="M-31.3 40.7 Q-15.85 65.65 -13.65 65.15 -16.25 57.85 -16.5 51.1 -16.75 42.7 -12.9 38.35 L-25.7 18.7 Q-29.5 21.45 -31.0 27.4 -32.45 33.25 -31.3 40.7 Z" fill="none" stroke="#4e20a4" stroke-linecap="butt" stroke-linejoin="miter-clip" stroke-miterlimit="4.0" stroke-width="1.0"/>
    <path d="M2.7 43.45 L28.0 34.2 29.1 36.0 10.35 56.55 -3.35 46.45 2.7 43.45" fill="#ffffff" fill-rule="evenodd" stroke="none"/>
    <path d="M5.35 42.85 Q5.6 43.05 5.35 43.2 L5.15 43.4 5.2 43.4 5.3 43.75 5.25 43.85 5.35 43.85 5.65 44.15 5.7 44.85 6.85 44.7 Q7.35 44.6 7.25 45.0 L7.25 45.35 8.55 44.9 Q8.7 44.85 8.9 45.05 L9.35 45.55 9.95 45.9 Q10.2 46.05 10.25 46.55 L10.7 46.65 11.1 47.35 Q11.2 47.7 10.9 47.75 L10.45 47.5 Q10.45 47.0 9.95 47.35 9.6 47.35 9.55 47.15 L8.95 46.2 8.45 45.45 7.1 45.8 Q6.85 45.9 6.75 45.65 L6.75 45.45 6.35 45.6 5.35 45.7 Q4.9 45.7 4.9 45.25 L4.95 44.6 4.6 44.5 4.4 44.35 4.0 44.3 Q3.8 44.1 4.0 43.9 L4.05 43.85 4.95 42.8 5.35 42.85" fill="#636466" fill-rule="evenodd" stroke="none"/>
    <path d="M0.8 45.1 Q0.5 45.25 0.3 45.75 L-0.1 46.45 -0.25 46.3 0.1 45.55 -1.5 45.7 -1.65 45.4 Q-1.6 45.15 -1.4 45.2 L-0.3 45.3 0.6 44.95 0.7 44.9 0.8 45.05 0.8 45.1" fill="#636466" fill-rule="evenodd" stroke="none"/>
    <path d="M27.3 34.35 L16.9 37.85 27.2 34.15 27.3 34.35 28.4 33.95 29.85 36.05 10.4 57.4 -3.9 46.8 -2.65 46.2 -2.9 46.05 4.15 42.9 -2.65 46.2 10.25 55.75 28.35 35.9 27.3 34.35" fill="#c0c0c0" fill-rule="evenodd" stroke="none"/>
    <path d="M22.85 35.95 L13.4 45.45 6.95 41.75 22.85 35.95" fill="#b98bde" fill-rule="evenodd" stroke="none"/>
    <path d="M9.45 40.35 L17.25 37.65 Q22.0 36.05 24.9 34.65 25.35 34.45 25.55 34.85 25.75 35.3 25.35 35.5 L17.6 38.45 Q11.4 40.5 9.8 41.1 4.5 43.05 -5.45 47.7 L-5.65 47.65 -5.6 47.45 Q-0.25 44.15 9.45 40.35" fill="#cfb78a" fill-rule="evenodd" stroke="none"/>
    <path d="M40.5 26.0 L51.5 21.65 55.3 26.4 32.9 44.4 23.0 32.95 Q25.2 31.7 30.65 29.65 L40.5 26.0" fill="#ffffff" fill-rule="evenodd" stroke="none"/>
    <path d="M51.25 22.35 L34.25 28.4 Q24.65 31.9 23.7 32.85 L32.95 43.55 54.45 26.3 51.25 22.35 M56.15 26.5 L32.8 45.2 22.3 33.05 23.9 32.4 Q28.6 30.3 39.6 26.15 L51.5 21.65 52.0 21.35 56.15 26.5" fill="#c0c0c0" fill-rule="evenodd" stroke="none"/>
    <path d="M30.15 34.6 L26.4 31.2 46.75 23.5 30.15 34.6" fill="#24c8a8" fill-rule="evenodd" stroke="none"/>
    <path d="M41.55 34.0 L41.3 33.75 41.55 33.45 41.8 33.4 42.15 33.3 42.3 33.6 Q42.3 34.15 41.55 34.0" fill="#636466" fill-rule="evenodd" stroke="none"/>
    <path d="M11.35 48.7 Q10.85 48.7 10.9 48.2 10.95 47.7 11.45 47.7 11.95 47.7 11.9 48.2 11.85 48.7 11.35 48.7" fill="#636466" fill-rule="evenodd" stroke="none"/>
    <path d="M1.55 46.25 L1.45 46.2 1.55 46.4 1.55 46.25 2.15 46.5 2.45 47.05 2.55 46.95 2.9 46.95 3.05 47.2 3.35 47.9 3.35 48.15 3.1 48.25 2.5 47.75 2.15 47.8 Q1.85 47.8 1.8 47.55 L1.8 47.1 1.75 46.85 1.45 46.7 1.15 46.45 0.95 46.05 0.9 45.85 Q0.95 45.7 1.1 45.75 L1.55 46.25" fill="#636466" fill-rule="evenodd" stroke="none"/>
    <path d="M4.2 48.9 Q4.0 48.7 4.15 48.45 L4.55 48.4 5.3 49.0 5.65 49.9 5.5 50.05 5.3 50.0 4.95 49.4 4.2 48.9" fill="#636466" fill-rule="evenodd" stroke="none"/>
    <path d="M7.55 52.1 Q7.0 52.05 7.25 51.55 7.55 51.0 7.9 51.45 L8.45 51.8 8.95 52.2 Q9.15 52.4 8.85 52.5 L8.2 52.35 7.55 52.1" fill="#636466" fill-rule="evenodd" stroke="none"/>
    <path d="M34.2 33.95 Q34.3 33.75 34.5 33.8 L34.95 33.85 35.25 33.45 Q35.35 33.25 35.5 33.3 36.75 33.5 37.55 32.05 L38.0 32.0 38.6 32.85 38.5 33.15 38.2 33.1 37.8 32.65 Q37.15 33.55 36.35 33.85 L35.6 33.9 35.2 34.55 34.85 34.55 34.55 34.4 34.35 34.75 33.75 35.95 33.5 36.1 Q33.3 36.1 33.25 35.95 L33.0 35.55 32.65 36.6 Q32.2 37.45 31.35 37.15 31.2 37.15 31.4 36.95 32.3 37.2 32.7 34.9 L32.85 34.75 33.05 34.8 33.45 35.4 34.2 33.95" fill="#636466" fill-rule="evenodd" stroke="none"/>
    <path d="M45.75 26.25 L46.3 25.65 46.6 25.65 46.6 25.9 45.6 27.0 45.3 27.1 45.05 27.0 45.05 27.2 44.8 27.9 44.45 28.1 43.85 27.85 43.35 28.55 42.95 28.6 Q42.8 28.55 41.95 29.15 L41.05 29.95 40.45 30.65 39.55 31.05 Q39.35 31.2 39.2 30.95 39.1 30.7 39.3 30.55 40.5 29.9 40.7 29.45 L41.3 28.9 42.35 28.35 42.75 28.0 Q43.05 27.95 43.15 27.75 L43.4 27.2 43.65 27.0 44.0 27.1 Q44.65 27.2 44.7 26.6 44.8 26.35 45.0 26.45 45.4 26.6 45.75 26.25" fill="#636466" fill-rule="evenodd" stroke="none"/>
    <path d="M48.35 25.1 L48.3 25.3 48.1 25.4 47.8 25.35 Q47.4 25.8 46.75 25.7 L46.55 25.55 Q46.5 25.4 46.6 25.3 L47.05 25.1 47.35 24.75 Q47.6 24.5 47.7 24.55 L48.35 25.1" fill="#636466" fill-rule="evenodd" stroke="none"/>
    <path d="M48.75 24.4 Q48.4 24.55 48.3 24.2 48.2 23.9 48.55 23.8 L49.7 23.4 Q49.95 23.3 50.05 23.55 50.2 23.8 49.95 23.9 L48.75 24.4" fill="#636466" fill-rule="evenodd" stroke="none"/>
    <path d="M36.0 37.75 L35.95 38.0 35.15 38.35 Q35.1 39.1 34.55 39.65 34.15 40.05 33.4 40.15 L33.15 40.0 Q33.05 39.85 33.25 39.75 34.5 39.25 34.6 38.1 L34.75 37.85 35.75 37.6 Q35.9 37.55 36.0 37.75" fill="#636466" fill-rule="evenodd" stroke="none"/>
    <path d="M37.25 37.2 L36.7 37.1 Q36.5 36.8 36.85 36.6 37.85 35.95 38.0 35.85 38.8 35.25 39.05 35.15 L39.3 35.2 39.4 35.5 38.4 36.45 Q37.6 36.95 37.25 37.2" fill="#636466" fill-rule="evenodd" stroke="none"/>
    <path d="M41.05 33.7 Q41.25 33.65 41.35 33.9 L41.3 34.25 40.65 34.75 40.15 34.95 39.95 34.9 39.9 34.7 40.1 34.25 40.4 34.0 41.05 33.7" fill="#636466" fill-rule="evenodd" stroke="none"/>
    <path d="M48.7 27.8 L49.0 27.75 49.1 27.95 Q49.0 29.2 47.95 29.05 L47.4 29.1 47.0 29.6 46.2 31.2 45.9 31.4 45.55 31.25 45.1 30.8 44.05 31.9 43.7 31.95 43.65 31.6 44.75 29.95 45.0 29.8 45.3 29.85 45.75 30.3 46.15 29.45 Q46.6 28.65 47.1 28.35 L47.75 28.25 Q48.35 28.35 48.7 27.8" fill="#636466" fill-rule="evenodd" stroke="none"/>
    <path d="M50.5 27.05 Q50.3 27.2 50.25 26.95 50.15 26.7 50.4 26.65 51.05 26.5 51.3 25.85 L51.55 25.8 51.65 26.0 50.5 27.05" fill="#636466" fill-rule="evenodd" stroke="none"/>
    <path d="M48.1 22.6 L52.25 20.7 Q54.7 19.55 56.5 19.05 L56.65 19.15 56.6 19.35 54.7 20.75 52.5 21.65 47.65 23.8 37.15 27.85 27.1 31.5 Q21.3 33.75 17.4 35.9 L17.3 35.8 Q21.0 33.15 26.7 30.75 L36.75 27.0 48.1 22.6" fill="#cfb78a" fill-rule="evenodd" stroke="none"/>
    <path d="M-56.45 -25.9 Q-55.95 -25.15 -55.65 -23.85 -55.35 -22.65 -55.35 -21.2 -55.25 -19.75 -55.5 -18.25 L-56.1 -19.05 Q-55.9 -20.6 -56.05 -21.95 -56.2 -23.05 -56.7 -24.0 -57.2 -24.8 -57.6 -24.6 -57.95 -24.4 -58.1 -23.3 L-58.15 -21.45 Q-58.1 -20.7 -57.45 -18.9 L-56.7 -16.4 -56.3 -13.75 -56.5 -11.0 Q-56.75 -9.55 -57.1 -8.85 -57.55 -8.1 -58.0 -8.1 L-58.95 -9.0 Q-59.75 -10.3 -60.05 -12.7 -60.3 -15.2 -59.95 -17.55 L-59.35 -16.8 -59.45 -14.35 -59.2 -12.4 -58.65 -10.9 Q-58.1 -9.95 -57.7 -10.3 -57.3 -10.6 -57.1 -11.8 L-57.0 -13.2 -57.2 -14.6 -57.95 -17.1 -58.65 -19.75 -58.85 -21.85 -58.7 -24.1 Q-58.4 -26.1 -57.8 -26.6 -57.15 -27.1 -56.45 -25.9" fill="#fbc01a" fill-rule="evenodd" stroke="none"/>
    <path d="M-53.5 -16.55 Q-54.15 -15.7 -54.75 -12.2 -55.2 -9.2 -55.05 -6.85 -54.9 -4.55 -54.25 -3.4 -53.55 -2.35 -52.9 -3.25 -52.2 -4.1 -51.65 -7.35 L-51.25 -11.45 -51.45 -14.3 Q-51.65 -15.55 -52.1 -16.35 -52.75 -17.45 -53.5 -16.55 M-50.9 -15.35 Q-50.6 -13.55 -50.6 -11.2 -50.6 -8.85 -51.05 -6.3 -51.65 -2.7 -52.55 -1.45 -53.6 0.05 -54.55 -1.6 -55.45 -3.1 -55.7 -6.75 -55.85 -10.1 -55.35 -13.25 -54.7 -17.35 -53.7 -18.55 -52.75 -19.65 -51.8 -18.15 -51.2 -17.2 -50.9 -15.35" fill="#fbc01a" fill-rule="evenodd" stroke="none"/>
    <path d="M-48.2 -10.95 Q-47.55 -11.05 -47.0 -10.05 -46.35 -9.05 -46.05 -7.0 -45.8 -4.8 -46.0 -2.5 L-46.65 -3.0 Q-46.4 -6.85 -47.3 -8.3 -47.75 -9.05 -48.2 -8.9 -48.6 -8.85 -49.05 -7.7 -49.45 -6.75 -49.85 -4.45 -50.45 -1.2 -50.3 1.1 -50.2 3.4 -49.55 4.45 -49.1 5.25 -48.55 4.85 -48.0 4.35 -47.55 2.6 L-47.05 4.1 Q-47.75 6.45 -48.45 6.95 -49.15 7.5 -49.85 6.3 -50.45 5.25 -50.75 3.65 -51.05 2.1 -50.95 -0.4 L-50.45 -5.5 Q-50.1 -8.0 -49.45 -9.45 -48.85 -10.8 -48.2 -10.95" fill="#fbc01a" fill-rule="evenodd" stroke="none"/>
    <path d="M-43.7 -4.25 L-46.5 11.5 -47.1 10.55 -44.3 -5.25 -43.7 -4.25" fill="#fbc01a" fill-rule="evenodd" stroke="none"/>
    <path d="M-41.45 1.7 L-42.25 4.3 -43.55 8.05 -42.05 10.6 -41.45 1.7 M-46.0 12.4 L-41.45 -0.45 -40.8 0.65 -41.85 19.3 -42.5 18.2 -42.15 12.6 -44.05 9.5 -45.35 13.45 -46.0 12.4" fill="#fbc01a" fill-rule="evenodd" stroke="none"/>
    <path d="M-38.7 24.65 L-41.45 20.0 -38.55 4.45 -37.95 5.45 -40.5 19.15 -38.35 22.8 -38.7 24.65" fill="#fbc01a" fill-rule="evenodd" stroke="none"/>
    <path d="M-37.85 26.0 L-34.9 10.55 -34.3 11.55 -37.3 27.0 -37.85 26.0" fill="#fbc01a" fill-rule="evenodd" stroke="none"/>
    <path d="M-31.2 19.15 L-33.7 14.95 -33.35 13.1 -30.15 18.5 -30.5 20.3 -35.1 26.8 -35.6 27.4 -32.75 32.15 -33.1 33.95 -36.6 28.1 -36.25 26.2 -32.05 20.2 -31.2 19.15" fill="#fbc01a" fill-rule="evenodd" stroke="none"/>
    <path d="M-32.5 35.0 L-29.4 19.7 -26.15 25.15 -26.55 26.95 -29.2 22.5 -30.15 27.2 -27.65 31.3 -28.05 33.1 -30.5 29.0 -31.55 34.15 -28.85 38.7 -29.2 40.5 -32.5 35.0" fill="#fbc01a" fill-rule="evenodd" stroke="none"/>
    <path d="M-23.25 30.05 Q-22.6 31.2 -22.4 32.0 L-22.25 34.25 Q-22.25 35.55 -22.55 36.8 -22.85 38.45 -23.45 39.05 -23.95 39.55 -24.65 38.8 L-24.45 40.3 -24.5 48.35 -25.25 47.1 -25.15 39.65 -25.3 38.25 -25.75 37.25 -26.4 36.1 -27.8 42.8 -28.4 41.85 -25.25 26.7 -23.25 30.05 M-23.15 35.8 Q-22.9 34.65 -23.0 33.6 -23.05 32.6 -23.6 31.75 L-25.0 29.4 -26.05 34.4 -24.8 36.5 -24.1 37.3 -23.55 37.0 -23.15 35.8" fill="#fbc01a" fill-rule="evenodd" stroke="none"/>
  </g>
</svg>
