<?xml version="1.0" encoding="UTF-8" standalone="no"?>
<svg xmlns:ffdec="https://www.free-decompiler.com/flash" xmlns:xlink="http://www.w3.org/1999/xlink" ffdec:objectType="shape" height="13.7px" width="85.6px" xmlns="http://www.w3.org/2000/svg">
  <g transform="matrix(1.0, 0.0, 0.0, 1.0, -33.4, -149.45)">
    <path d="M40.6 151.1 L40.7 153.7 36.4 153.9 36.5 155.9 40.7 155.5 40.95 158.1 36.65 158.45 36.75 159.85 37.0 159.85 41.05 159.2 41.55 161.7 38.95 162.25 36.35 162.55 34.35 162.4 33.7 151.45 40.6 151.1" fill="#fffb00" fill-rule="evenodd" stroke="none"/>
    <path d="M40.6 151.1 L40.7 153.7 36.4 153.9 36.5 155.9 40.7 155.5 40.95 158.1 36.65 158.45 36.75 159.85 37.0 159.85 41.05 159.2 41.55 161.7 38.95 162.25 36.35 162.55 34.35 162.4 33.7 151.45 40.6 151.1 Z" fill="none" stroke="#085da4" stroke-linecap="butt" stroke-linejoin="miter-clip" stroke-miterlimit="4.0" stroke-width="0.5"/>
    <path d="M51.95 152.05 L49.2 155.65 52.9 160.85 50.85 162.3 47.55 157.75 44.0 162.35 42.0 160.75 46.0 155.6 43.0 151.45 45.1 149.95 47.65 153.45 49.95 150.45 51.95 152.05" fill="#fffb00" fill-rule="evenodd" stroke="none"/>
    <path d="M51.95 152.05 L49.2 155.65 52.9 160.85 50.85 162.3 47.55 157.75 44.0 162.35 42.0 160.75 46.0 155.6 43.0 151.45 45.1 149.95 47.65 153.45 49.95 150.45 51.95 152.05 Z" fill="none" stroke="#085da4" stroke-linecap="butt" stroke-linejoin="miter-clip" stroke-miterlimit="4.0" stroke-width="0.5"/>
    <path d="M63.45 155.7 Q63.45 157.5 61.1 158.65 59.85 159.35 57.2 159.85 L57.45 162.7 54.9 162.9 53.95 151.7 57.5 151.45 Q59.8 151.45 61.2 152.1 62.9 153.0 63.35 155.05 L63.45 155.7 M60.85 155.65 Q60.85 154.0 57.85 154.0 L56.7 154.05 57.0 157.3 Q60.85 156.45 60.85 155.65" fill="#fffb00" fill-rule="evenodd" stroke="none"/>
    <path d="M63.45 155.7 Q63.45 157.5 61.1 158.65 59.85 159.35 57.2 159.85 L57.45 162.7 54.9 162.9 53.95 151.7 57.5 151.45 Q59.8 151.45 61.2 152.1 62.9 153.0 63.35 155.05 L63.45 155.7 M60.85 155.65 Q60.85 154.0 57.85 154.0 L56.7 154.05 57.0 157.3 Q60.85 156.45 60.85 155.65 Z" fill="none" stroke="#085da4" stroke-linecap="butt" stroke-linejoin="miter-clip" stroke-miterlimit="4.0" stroke-width="0.5"/>
    <path d="M73.15 160.8 Q71.05 161.65 69.2 161.85 L65.15 162.1 64.55 151.35 67.1 151.2 67.6 159.5 Q69.8 159.35 72.2 158.45 L73.15 160.8" fill="#fffb00" fill-rule="evenodd" stroke="none"/>
    <path d="M73.15 160.8 Q71.05 161.65 69.2 161.85 L65.15 162.1 64.55 151.35 67.1 151.2 67.6 159.5 Q69.8 159.35 72.2 158.45 L73.15 160.8 Z" fill="none" stroke="#085da4" stroke-linecap="butt" stroke-linejoin="miter-clip" stroke-miterlimit="4.0" stroke-width="0.5"/>
    <path d="M77.5 153.5 Q76.15 154.7 76.15 156.3 76.15 157.7 76.9 158.5 77.65 159.35 79.0 159.35 80.7 159.35 82.0 158.2 83.3 157.05 83.3 155.35 83.3 154.0 82.5 153.15 81.7 152.25 80.4 152.25 78.85 152.25 77.5 153.5 M80.4 149.7 Q82.75 149.7 84.3 151.35 85.9 153.05 85.9 155.35 85.9 158.1 83.75 160.05 81.75 161.9 78.95 161.9 76.6 161.9 75.1 160.25 73.6 158.7 73.6 156.25 73.6 153.7 75.7 151.65 77.8 149.7 80.4 149.7" fill="#fffb00" fill-rule="evenodd" stroke="none"/>
    <path d="M77.5 153.5 Q76.15 154.7 76.15 156.3 76.15 157.7 76.9 158.5 77.65 159.35 79.0 159.35 80.7 159.35 82.0 158.2 83.3 157.05 83.3 155.35 83.3 154.0 82.5 153.15 81.7 152.25 80.4 152.25 78.85 152.25 77.5 153.5 M80.4 149.7 Q82.75 149.7 84.3 151.35 85.9 153.05 85.9 155.35 85.9 158.1 83.75 160.05 81.75 161.9 78.95 161.9 76.6 161.9 75.1 160.25 73.6 158.7 73.6 156.25 73.6 153.7 75.7 151.65 77.8 149.7 80.4 149.7 Z" fill="none" stroke="#085da4" stroke-linecap="butt" stroke-linejoin="miter-clip" stroke-miterlimit="4.0" stroke-width="0.5"/>
    <path d="M90.2 153.9 L90.55 157.7 Q94.45 156.3 94.45 155.35 94.45 153.85 91.45 153.85 L90.2 153.9 M91.05 151.3 Q97.05 151.3 97.05 155.35 97.05 157.45 94.1 158.95 L97.7 159.9 97.1 162.35 90.8 160.75 90.95 162.5 88.45 162.75 87.45 151.55 91.05 151.3" fill="#fffb00" fill-rule="evenodd" stroke="none"/>
    <path d="M90.2 153.9 L90.55 157.7 Q94.45 156.3 94.45 155.35 94.45 153.85 91.45 153.85 L90.2 153.9 M91.05 151.3 Q97.05 151.3 97.05 155.35 97.05 157.45 94.1 158.95 L97.7 159.9 97.1 162.35 90.8 160.75 90.95 162.5 88.45 162.75 87.45 151.55 91.05 151.3 Z" fill="none" stroke="#085da4" stroke-linecap="butt" stroke-linejoin="miter-clip" stroke-miterlimit="4.0" stroke-width="0.5"/>
    <path d="M106.0 153.7 L101.7 153.9 101.8 155.9 106.0 155.5 106.2 158.1 101.95 158.45 102.05 159.85 102.3 159.85 106.35 159.2 106.85 161.7 104.25 162.25 101.65 162.55 99.65 162.4 99.0 151.45 105.9 151.1 106.0 153.7" fill="#fffb00" fill-rule="evenodd" stroke="none"/>
    <path d="M106.0 153.7 L101.7 153.9 101.8 155.9 106.0 155.5 106.2 158.1 101.95 158.45 102.05 159.85 102.3 159.85 106.35 159.2 106.85 161.7 104.25 162.25 101.65 162.55 99.65 162.4 99.0 151.45 105.9 151.1 106.0 153.7 Z" fill="none" stroke="#085da4" stroke-linecap="butt" stroke-linejoin="miter-clip" stroke-miterlimit="4.0" stroke-width="0.5"/>
    <path d="M111.2 153.9 L111.5 157.7 Q115.45 156.3 115.45 155.35 115.45 153.85 112.45 153.85 L111.2 153.9 M112.05 151.3 Q118.0 151.3 118.0 155.35 118.0 157.45 115.1 158.95 L118.7 159.9 118.05 162.35 111.8 160.75 111.95 162.5 109.4 162.75 108.4 151.55 112.05 151.3" fill="#fffb00" fill-rule="evenodd" stroke="none"/>
    <path d="M111.2 153.9 L111.5 157.7 Q115.45 156.3 115.45 155.35 115.45 153.85 112.45 153.85 L111.2 153.9 M112.05 151.3 Q118.0 151.3 118.0 155.35 118.0 157.45 115.1 158.95 L118.7 159.9 118.05 162.35 111.8 160.75 111.95 162.5 109.4 162.75 108.4 151.55 112.05 151.3 Z" fill="none" stroke="#085da4" stroke-linecap="butt" stroke-linejoin="miter-clip" stroke-miterlimit="4.0" stroke-width="0.5"/>
  </g>
</svg>
