<?xml version="1.0" encoding="UTF-8" standalone="no"?>
<svg xmlns:ffdec="https://www.free-decompiler.com/flash" xmlns:xlink="http://www.w3.org/1999/xlink" ffdec:objectType="shape" height="136.8px" width="138.45px" xmlns="http://www.w3.org/2000/svg">
  <g transform="matrix(1.0, 0.0, 0.0, 1.0, 69.2, 68.35)">
    <path d="M65.5 28.45 L57.15 33.0 59.2 21.15 65.5 28.45" fill="#070e43" fill-rule="evenodd" stroke="none"/>
    <path d="M60.5 19.6 L59.3 22.95 60.5 23.9 60.15 24.2 Q59.75 24.65 59.75 25.1 L60.25 27.25 58.8 29.15 60.0 30.6 58.6 33.45 -10.7 65.25 -15.5 57.6 -12.15 33.7 60.25 13.6 61.7 15.75 59.75 17.9 60.5 19.6" fill="#f0ddb1" fill-rule="evenodd" stroke="none"/>
    <path d="M60.5 19.6 L59.3 22.95 60.5 23.9 60.15 24.2 Q59.75 24.65 59.75 25.1 L60.25 27.25 58.8 29.15 60.0 30.6 58.6 33.45 -10.7 65.25 -15.5 57.6 -12.15 33.7 60.25 13.6 61.7 15.75 59.75 17.9 60.5 19.6 Z" fill="none" stroke="#cfb78a" stroke-linecap="butt" stroke-linejoin="miter-clip" stroke-miterlimit="4.0" stroke-width="1.0"/>
    <path d="M0.9 39.95 L0.9 40.0 Q-0.8 41.05 -3.9 42.25 -7.65 43.7 -8.9 44.3 L-9.1 44.2 -9.05 43.95 Q-7.5 43.05 -4.05 41.95 -0.65 40.9 0.9 39.95" fill="#cfb78a" fill-rule="evenodd" stroke="none"/>
    <path d="M7.2 40.95 Q5.2 41.35 2.4 42.6 L-2.25 44.65 -9.85 47.6 Q-10.1 47.7 -10.2 47.45 -10.35 47.25 -10.15 47.1 -8.75 46.1 -6.45 45.3 L-2.45 44.1 2.35 42.4 Q5.25 41.3 7.2 40.95" fill="#cfb78a" fill-rule="evenodd" stroke="none"/>
    <path d="M-1.9 57.3 L-1.85 57.4 Q-5.4 59.2 -9.65 60.7 -9.8 60.8 -9.85 60.6 L-9.8 60.35 Q-8.4 59.55 -5.9 58.7 L-1.9 57.3" fill="#cfb78a" fill-rule="evenodd" stroke="none"/>
    <path d="M-2.65 54.85 L-2.65 54.95 Q-5.9 55.85 -7.0 56.3 L-9.9 57.35 -10.2 57.2 -10.1 56.85 -6.45 55.3 Q-4.2 54.55 -2.65 54.85" fill="#cfb78a" fill-rule="evenodd" stroke="none"/>
    <path d="M-14.05 38.0 L-7.9 38.7 -6.9 64.75 -14.05 65.7 -14.05 38.0" fill="#827252" fill-rule="evenodd" stroke="none"/>
    <path d="M68.5 8.5 L67.8 11.7 Q-1.4 39.85 -10.25 42.45 -13.3 45.55 -12.4 55.35 -11.55 65.1 -8.45 63.6 L65.5 28.45 64.8 32.25 Q15.1 57.1 1.5 62.6 0.7 61.45 -0.9 61.9 -2.85 62.45 -4.25 65.45 -5.2 65.7 -8.8 67.5 -12.4 69.0 -14.55 68.1 -17.75 65.1 -19.45 52.45 L-20.5 40.4 -7.85 34.65 68.5 8.5" fill="#070e43" fill-rule="evenodd" stroke="none"/>
    <path d="M46.85 27.95 L52.75 25.35 58.75 22.95 59.1 23.1 58.95 23.45 Q56.4 24.65 52.55 26.1 L46.1 28.45 34.6 32.5 Q41.7 30.1 46.85 27.95" fill="#cfb78a" fill-rule="evenodd" stroke="none"/>
    <path d="M42.45 25.45 L42.4 25.35 51.65 21.75 Q57.25 19.5 61.15 19.35 L61.3 19.5 61.15 19.7 51.8 22.5 42.45 25.45" fill="#cfb78a" fill-rule="evenodd" stroke="none"/>
    <path d="M45.45 21.8 L45.45 21.65 Q47.95 21.2 52.8 19.4 57.55 17.65 60.1 17.2 L60.25 17.3 60.15 17.45 52.95 20.0 Q48.8 21.35 45.45 21.8" fill="#cfb78a" fill-rule="evenodd" stroke="none"/>
    <path d="M55.05 17.65 L55.05 17.55 57.45 16.8 59.8 16.0 60.0 16.05 59.9 16.25 57.55 17.05 55.05 17.65" fill="#cfb78a" fill-rule="evenodd" stroke="none"/>
    <path d="M51.0 29.8 L55.95 27.7 Q58.15 26.7 59.4 26.65 L59.6 26.85 59.45 27.1 57.2 27.75 54.95 28.4 51.0 29.8" fill="#cfb78a" fill-rule="evenodd" stroke="none"/>
    <path d="M-66.5 -15.4 Q-68.35 -17.95 -68.65 -27.95 -69.0 -39.2 -65.4 -43.7 L-63.9 -44.75 Q-62.1 -45.7 -60.75 -45.5 -59.15 -43.65 -58.55 -43.85 -58.0 -44.05 -58.25 -46.25 L7.7 -67.0 66.1 8.0 Q10.2 29.75 -1.25 34.75 -2.2 36.55 -4.15 37.4 -6.25 38.3 -7.0 36.55 L-12.0 38.35 Q-17.1 42.5 -17.1 51.8 -17.1 59.15 -14.15 67.4 -17.05 68.05 -41.0 28.0 -53.15 7.7 -66.5 -15.4" fill="#233cb1" fill-rule="evenodd" stroke="none"/>
    <path d="M-66.5 -15.4 Q-53.15 7.7 -41.0 28.0 -17.05 68.05 -14.15 67.4 -17.1 59.15 -17.1 51.8 -17.1 42.5 -12.0 38.35 L-7.0 36.55 Q-6.25 38.3 -4.15 37.4 -2.2 36.55 -1.25 34.75 10.2 29.75 66.1 8.0 L7.7 -67.0 -58.25 -46.25 Q-58.0 -44.05 -58.55 -43.85 -59.15 -43.65 -60.75 -45.5 -62.1 -45.7 -63.9 -44.75 L-65.4 -43.7 Q-69.0 -39.2 -68.65 -27.95 -68.35 -17.95 -66.5 -15.4 Z" fill="none" stroke="#0e1670" stroke-linecap="butt" stroke-linejoin="miter-clip" stroke-miterlimit="4.0" stroke-width="1.0"/>
    <path d="M-61.65 -45.35 L-57.7 -46.25 -1.25 34.75 -5.95 37.8 -61.65 -45.35" fill="#0e1670" fill-rule="evenodd" stroke="none"/>
    <path d="M-66.5 -15.4 Q-68.25 -17.85 -68.6 -27.5 -69.05 -38.4 -65.8 -43.2 L-13.4 39.65 Q-17.4 44.15 -17.1 52.85 -16.9 59.85 -14.15 67.4 -17.05 68.05 -41.0 28.0 -53.15 7.7 -66.5 -15.4" fill="#0e1670" fill-rule="evenodd" stroke="none"/>
    <path d="M5.2 38.7 L5.15 38.7 Q7.9 36.9 11.95 35.15 L19.1 32.35 Q24.75 30.3 35.6 25.4 L35.7 25.4 35.7 25.5 Q28.85 29.25 20.15 32.4 L12.55 35.45 8.75 36.9 Q6.55 37.8 5.2 38.7" fill="#cfb78a" fill-rule="evenodd" stroke="none"/>
    <path d="M44.5 25.2 Q49.05 23.5 58.35 20.3 L58.5 20.35 58.45 20.55 Q55.8 22.15 51.35 23.6 L43.95 26.0 Q38.9 27.6 36.5 28.6 32.9 30.1 31.0 30.35 30.9 30.4 30.95 30.2 32.45 30.0 34.45 29.1 37.4 27.75 37.8 27.6 L44.5 25.2" fill="#cfb78a" fill-rule="evenodd" stroke="none"/>
    <path d="M69.25 7.75 L43.3 17.9 43.05 16.4 54.7 -8.05 Q56.9 -5.4 69.25 7.75" fill="#fbc01a" fill-rule="evenodd" stroke="none"/>
    <path d="M69.25 7.75 L43.3 17.9 43.05 16.4 54.7 -8.05 Q56.9 -5.4 69.25 7.75 M46.5 11.55 L44.1 16.55 67.45 7.35 66.7 6.5 54.95 -6.2 46.5 11.55" fill="#d79d13" fill-rule="evenodd" stroke="none"/>
    <path d="M57.15 5.6 Q56.55 7.15 55.3 7.95 54.1 8.75 53.0 8.3 51.9 7.85 51.55 6.45 51.2 5.05 51.85 3.45 52.5 1.9 53.75 1.15 54.95 0.35 56.05 0.8 57.15 1.25 57.45 2.65 57.8 4.05 57.15 5.6" fill="#fbdd64" fill-rule="evenodd" stroke="none"/>
    <path d="M7.8 -67.8 Q11.1 -63.9 15.65 -57.45 L-9.75 -61.95 Q-0.6 -65.65 7.8 -67.8" fill="#fbc01a" fill-rule="evenodd" stroke="none"/>
    <path d="M7.8 -67.8 Q-0.6 -65.65 -9.75 -61.95 L15.65 -57.45 Q11.1 -63.9 7.8 -67.8 Z" fill="none" stroke="#d79d13" stroke-linecap="butt" stroke-linejoin="miter-clip" stroke-miterlimit="4.0" stroke-width="1.0"/>
    <path d="M5.5 -65.15 L7.15 -64.2 Q7.8 -63.5 7.6 -62.75 7.4 -62.0 6.55 -61.65 L4.6 -61.6 Q3.55 -61.85 2.95 -62.55 2.35 -63.25 2.5 -64.0 2.7 -64.75 3.55 -65.1 L5.5 -65.15" fill="#fbdd64" fill-rule="evenodd" stroke="none"/>
    <path d="M68.2 11.25 L44.5 20.8 43.9 17.6 68.6 8.0 68.45 9.65 68.2 11.25" fill="#d79d13" fill-rule="evenodd" stroke="none"/>
    <path d="M68.8 11.4 L68.65 11.7 59.9 15.25 44.7 21.4 44.05 21.7 43.3 17.85 44.5 17.4 44.55 17.6 44.95 20.0 67.65 10.8 67.95 8.2 69.2 7.75 69.2 7.8 69.1 9.55 68.8 11.4" fill="#a17408" fill-rule="evenodd" stroke="none"/>
    <path d="M28.7 37.25 Q23.05 46.55 12.95 55.5 10.3 52.75 6.1 50.1 2.45 47.8 1.1 47.5 9.95 44.65 28.7 37.25" fill="#f0ddb1" fill-rule="evenodd" stroke="none"/>
    <path d="M28.7 37.25 Q23.05 46.55 12.95 55.5 10.3 52.75 6.1 50.1 2.45 47.8 1.1 47.5 9.95 44.65 28.7 37.25 Z" fill="none" stroke="#cfb78a" stroke-linecap="butt" stroke-linejoin="miter-clip" stroke-miterlimit="4.0" stroke-width="1.0"/>
    <path d="M35.8 35.85 L35.65 36.0 35.45 35.8 Q35.55 35.2 35.85 35.05 L36.05 35.05 36.1 35.3 35.8 35.85" fill="#827252" fill-rule="evenodd" stroke="none"/>
    <path d="M31.5 35.25 L31.35 35.3 31.25 35.15 Q31.25 34.8 31.45 34.6 L32.1 34.5 32.25 34.7 32.1 34.9 31.8 35.0 31.5 35.25" fill="#827252" fill-rule="evenodd" stroke="none"/>
    <path d="M14.65 49.45 Q14.65 49.15 14.95 49.05 L15.7 48.7 15.95 47.9 16.15 47.65 16.45 47.7 17.05 47.8 17.25 47.0 17.35 46.9 17.5 47.0 17.2 48.35 17.0 48.45 16.55 48.35 16.2 49.2 15.35 49.65 Q15.45 51.7 14.05 51.7 L13.75 52.5 Q13.65 52.75 13.4 52.75 L13.15 52.7 12.85 52.5 12.85 51.85 Q12.95 51.5 13.3 51.55 L13.35 51.25 Q13.45 50.85 13.75 50.9 14.9 51.05 14.65 49.45" fill="#827252" fill-rule="evenodd" stroke="none"/>
    <path d="M19.85 45.05 L19.3 45.35 19.1 45.8 18.6 46.4 18.1 46.5 Q17.8 46.3 18.0 46.0 18.65 45.6 18.6 45.15 18.5 44.85 18.85 44.75 L20.3 44.15 20.3 43.75 20.3 43.05 Q20.3 42.65 20.8 42.75 L21.5 42.85 Q21.85 41.75 22.65 41.2 L23.15 41.3 23.1 41.75 Q22.3 42.3 22.1 43.25 L21.65 43.55 21.0 43.45 21.0 44.25 Q21.05 44.55 20.7 44.65 20.4 44.7 19.85 45.05" fill="#827252" fill-rule="evenodd" stroke="none"/>
    <path d="M9.6 49.4 L9.9 49.35 10.2 49.6 10.2 48.7 10.3 48.5 10.75 48.55 10.95 48.65 10.95 47.7 Q11.05 47.45 11.3 47.55 L11.8 47.7 11.85 47.15 Q11.85 46.75 12.2 46.85 L12.65 46.95 13.0 46.75 13.25 46.1 Q13.35 45.7 13.7 45.9 L14.05 45.55 14.3 45.5 14.45 45.7 Q14.55 46.25 14.25 46.5 L13.8 46.65 13.65 46.95 13.3 47.45 12.45 47.55 12.4 48.0 12.35 48.25 Q12.3 48.4 12.15 48.35 L11.45 48.15 11.45 48.85 11.25 49.15 10.7 49.05 Q10.6 49.0 10.6 49.45 L10.6 49.95 10.55 50.15 10.35 50.2 9.65 49.7 Q9.45 49.6 9.6 49.4" fill="#827252" fill-rule="evenodd" stroke="none"/>
    <path d="M16.95 41.65 L17.25 41.6 18.7 41.5 18.55 41.05 18.7 40.8 19.1 40.45 19.35 40.4 19.4 40.6 19.0 41.15 19.1 41.55 19.0 41.85 18.1 42.2 17.55 42.35 17.35 43.1 16.9 43.25 16.8 44.35 16.55 44.65 16.2 44.65 15.35 43.8 Q15.1 43.5 15.4 43.25 L15.9 43.3 16.15 43.55 16.2 42.75 Q16.1 42.5 16.3 42.3 L16.35 42.3 16.75 42.25 16.8 42.3 16.8 41.9 16.95 41.65" fill="#827252" fill-rule="evenodd" stroke="none"/>
    <path d="M9.65 44.7 Q9.55 44.45 9.8 44.35 11.0 44.0 13.0 42.7 L13.3 42.75 13.25 43.1 10.3 44.85 10.4 45.85 10.3 46.1 10.0 46.15 9.25 45.85 Q8.75 47.95 7.15 48.25 L6.85 48.05 Q6.8 47.75 7.05 47.65 8.35 47.35 8.65 45.25 L8.85 45.0 9.2 45.0 9.75 45.35 9.65 44.7" fill="#827252" fill-rule="evenodd" stroke="none"/>
    <path d="M4.9 47.35 Q4.7 47.55 4.55 47.35 4.35 47.15 4.55 46.95 L5.75 45.95 6.7 45.2 7.0 45.25 7.0 45.6 6.05 46.55 4.9 47.35" fill="#827252" fill-rule="evenodd" stroke="none"/>
    <path d="M28.7 37.25 Q23.05 46.55 12.95 55.5 10.3 52.75 6.1 50.1 2.45 47.8 1.1 47.5 9.95 44.65 28.7 37.25 Z" fill="none" stroke="#cfb78a" stroke-linecap="butt" stroke-linejoin="miter-clip" stroke-miterlimit="16.0" stroke-width="1.0"/>
    <path d="M30.6 46.05 Q24.8 42.05 18.3 40.05 L49.05 27.45 Q39.6 42.75 35.5 50.0 34.5 48.7 30.6 46.05" fill="#f0ddb1" fill-rule="evenodd" stroke="none"/>
    <path d="M30.6 46.05 Q34.5 48.7 35.5 50.0 39.6 42.75 49.05 27.45 L18.3 40.05 Q24.8 42.05 30.6 46.05 Z" fill="none" stroke="#cfb78a" stroke-linecap="butt" stroke-linejoin="miter-clip" stroke-miterlimit="4.0" stroke-width="1.0"/>
    <path d="M37.4 39.45 Q37.25 39.1 37.55 38.95 37.9 38.8 38.0 39.15 38.4 40.15 38.25 41.35 L38.05 41.65 37.65 41.65 37.2 41.35 37.15 42.3 36.95 42.55 Q36.55 42.6 36.45 42.95 L36.35 43.7 36.05 43.9 35.6 43.7 35.65 45.75 Q35.65 46.15 35.2 46.05 L35.15 46.05 35.2 46.2 Q35.3 46.55 35.0 46.7 34.65 46.85 34.55 46.55 L33.9 45.3 33.4 44.65 Q33.25 44.35 33.55 44.2 L34.05 44.25 34.1 44.3 34.15 44.35 34.45 44.75 34.7 45.0 35.15 45.3 35.1 43.25 35.2 43.05 35.45 43.05 35.95 43.4 36.0 42.25 36.25 42.0 Q36.65 41.95 36.7 41.6 L36.6 40.75 36.7 40.45 37.1 40.4 37.55 40.75 37.4 39.45" fill="#827252" fill-rule="evenodd" stroke="none"/>
    <path d="M40.6 36.95 L40.85 37.1 40.6 37.65 Q40.3 37.85 40.4 38.45 L40.25 38.75 39.95 38.8 39.5 38.6 39.45 38.6 39.35 38.75 39.1 38.95 Q38.8 39.05 38.65 38.75 38.55 38.45 38.8 38.35 L39.1 38.05 Q39.3 37.75 39.55 37.85 L39.75 37.95 Q39.75 37.6 39.9 37.4 40.1 37.15 40.6 36.95" fill="#827252" fill-rule="evenodd" stroke="none"/>
    <path d="M44.2 30.35 Q44.6 29.6 44.9 29.4 L45.3 29.4 45.4 29.75 Q44.95 31.0 44.3 31.55 L43.95 31.8 43.8 32.2 43.55 32.85 43.0 33.55 42.6 34.4 41.95 34.75 41.85 35.15 41.55 35.75 41.25 35.85 41.1 35.55 41.35 34.5 41.6 34.3 42.1 34.0 42.35 33.35 42.9 32.7 43.2 31.5 43.4 31.25 44.2 30.35" fill="#827252" fill-rule="evenodd" stroke="none"/>
    <path d="M28.9 42.65 Q28.7 42.45 28.95 42.2 29.25 42.0 29.45 42.2 30.35 43.1 30.7 42.75 31.0 42.45 30.75 41.55 L30.85 41.25 31.5 40.55 31.8 40.45 33.2 40.7 33.3 40.85 33.15 41.0 31.8 41.0 31.45 41.55 31.55 42.45 Q31.5 43.15 31.0 43.4 30.05 43.8 28.9 42.65" fill="#827252" fill-rule="evenodd" stroke="none"/>
    <path d="M33.4 39.85 L33.35 40.0 33.2 39.95 Q32.85 39.45 32.85 38.95 L32.95 38.9 33.05 38.95 33.4 39.85" fill="#827252" fill-rule="evenodd" stroke="none"/>
    <path d="M33.4 37.05 Q33.55 36.8 33.8 36.85 34.75 36.95 34.8 36.4 L35.1 36.05 Q35.4 36.0 35.45 36.3 35.7 36.9 35.15 37.35 L34.6 37.65 34.65 37.75 Q34.85 37.95 34.7 38.2 L34.35 38.4 34.05 38.4 34.1 38.6 33.85 39.0 33.4 38.7 33.3 38.05 33.25 38.0 33.3 38.0 33.25 37.9 Q33.2 37.65 33.5 37.55 L33.45 37.5 Q33.25 37.3 33.4 37.05" fill="#827252" fill-rule="evenodd" stroke="none"/>
    <path d="M40.25 31.65 L40.3 32.05 Q39.65 33.05 38.65 33.4 L38.5 33.95 Q38.5 34.35 38.15 34.25 L37.9 34.2 37.6 35.1 36.45 36.0 Q36.1 36.15 35.95 35.8 35.8 35.5 36.1 35.3 L36.95 34.75 37.2 33.8 37.3 33.5 37.55 33.4 37.9 33.5 38.0 33.0 38.25 32.8 39.85 31.65 Q40.05 31.45 40.25 31.65" fill="#827252" fill-rule="evenodd" stroke="none"/>
    <path d="M28.05 38.6 Q28.1 38.45 28.25 38.45 L28.45 38.6 28.35 39.35 28.3 40.65 28.25 40.85 28.0 40.9 27.05 40.65 26.85 40.55 26.8 41.05 Q26.8 41.4 26.45 41.3 25.95 41.3 25.15 40.6 24.95 40.4 25.2 40.15 25.45 39.95 25.65 40.15 L26.25 40.65 26.2 39.95 Q26.15 39.75 26.35 39.65 L26.75 39.7 27.45 40.15 27.85 40.3 Q27.8 39.35 28.05 38.6" fill="#827252" fill-rule="evenodd" stroke="none"/>
    <path d="M30.55 35.95 L31.1 35.1 31.35 35.15 Q31.45 35.85 30.95 36.45 L30.15 37.05 Q30.2 37.5 29.85 37.55 L29.5 37.6 29.4 37.55 29.4 37.65 29.25 37.9 Q29.05 37.95 29.0 37.8 L28.8 37.45 28.8 37.05 29.15 36.85 29.3 36.85 29.25 36.8 Q29.15 36.35 29.7 36.35 30.25 36.4 30.55 35.95" fill="#827252" fill-rule="evenodd" stroke="none"/>
    <path d="M24.8 37.1 L25.5 37.1 Q25.7 37.05 25.8 37.25 L25.8 37.55 25.15 37.95 24.7 39.1 Q24.5 39.5 24.15 39.35 L23.8 39.1 23.25 39.6 23.25 39.65 23.1 39.9 22.95 39.95 22.9 39.95 22.8 39.95 Q22.5 39.9 22.5 39.65 L22.5 39.55 22.65 38.8 22.75 38.6 22.95 38.6 23.1 38.65 23.55 38.2 Q23.8 37.85 24.15 38.2 L24.2 38.25 24.35 37.5 Q24.35 37.1 24.8 37.1" fill="#827252" fill-rule="evenodd" stroke="none"/>
    <path d="M30.6 46.05 Q34.5 48.7 35.5 50.0 39.6 42.75 49.05 27.45 L18.3 40.05 Q24.8 42.05 30.6 46.05 Z" fill="none" stroke="#cfb78a" stroke-linecap="butt" stroke-linejoin="miter-clip" stroke-miterlimit="16.0" stroke-width="1.0"/>
    <path d="M21.9 -33.2 L26.2 -33.35 Q28.65 -32.55 30.25 -30.5 31.85 -28.5 31.7 -26.35 31.5 -24.25 29.65 -23.35 L25.45 -23.2 Q29.8 -15.9 29.25 -8.8 28.65 -1.7 23.4 2.5 25.75 3.3 27.25 5.25 28.85 7.3 28.7 9.4 28.5 11.5 26.65 12.4 L22.3 12.55 Q19.85 11.75 18.25 9.7 16.75 7.8 16.85 5.75 9.8 7.65 1.55 4.95 -6.75 2.25 -13.05 -4.05 -13.2 -2.0 -15.1 -1.0 L-19.4 -0.9 Q-21.85 -1.65 -23.45 -3.7 -25.05 -5.75 -24.9 -7.85 -24.7 -9.95 -22.85 -10.9 L-18.5 -11.0 Q-22.8 -18.3 -22.15 -25.35 -21.5 -32.4 -16.2 -36.55 -18.7 -37.35 -20.35 -39.4 -21.95 -41.45 -21.75 -43.55 -21.6 -45.65 -19.7 -46.6 L-15.4 -46.7 Q-12.95 -45.9 -11.35 -43.85 -9.7 -41.85 -9.95 -39.65 -2.95 -41.65 5.3 -39.0 13.5 -36.4 19.85 -30.2 20.0 -32.3 21.9 -33.2" fill="#fbc01a" fill-rule="evenodd" stroke="none"/>
    <path d="M21.9 -33.2 Q20.0 -32.3 19.85 -30.2 13.5 -36.4 5.3 -39.0 -2.95 -41.65 -9.95 -39.65 -9.7 -41.85 -11.35 -43.85 -12.95 -45.9 -15.4 -46.7 L-19.7 -46.6 Q-21.6 -45.65 -21.75 -43.55 -21.95 -41.45 -20.35 -39.4 -18.7 -37.35 -16.2 -36.55 -21.5 -32.4 -22.15 -25.35 -22.8 -18.3 -18.5 -11.0 L-22.85 -10.9 Q-24.7 -9.95 -24.9 -7.85 -25.05 -5.75 -23.45 -3.7 -21.85 -1.65 -19.4 -0.9 L-15.1 -1.0 Q-13.2 -2.0 -13.05 -4.05 -6.75 2.25 1.55 4.95 9.8 7.65 16.85 5.75 16.75 7.8 18.25 9.7 19.85 11.75 22.3 12.55 L26.65 12.4 Q28.5 11.5 28.7 9.4 28.85 7.3 27.25 5.25 25.75 3.3 23.4 2.5 28.65 -1.7 29.25 -8.8 29.8 -15.9 25.45 -23.2 L29.65 -23.35 Q31.5 -24.25 31.7 -26.35 31.85 -28.5 30.25 -30.5 28.65 -32.55 26.2 -33.35 L21.9 -33.2 Z" fill="none" stroke="#d79d13" stroke-linecap="butt" stroke-linejoin="miter-clip" stroke-miterlimit="4.0" stroke-width="1.0"/>
    <path d="M19.85 -25.1 Q25.7 -17.65 25.05 -10.05 24.4 -2.4 17.6 0.95 10.85 4.3 1.95 1.4 -6.95 -1.45 -12.8 -8.9 -18.65 -16.3 -18.0 -23.95 -17.35 -31.55 -10.55 -34.9 -3.8 -38.25 5.1 -35.4 14.05 -32.5 19.85 -25.1" fill="#40a3f0" fill-rule="evenodd" stroke="none"/>
    <path d="M-6.2 -12.2 Q-10.05 -17.6 -11.75 -23.4 -13.4 -29.15 -12.5 -33.7 L-10.7 -34.85 Q-12.25 -30.55 -10.7 -24.45 -9.2 -18.35 -5.15 -12.65 -1.35 -7.3 3.9 -3.6 9.1 0.1 15.25 1.85 L13.1 2.4 Q1.25 -1.7 -6.2 -12.2" fill="#2080b9" fill-rule="evenodd" stroke="none"/>
    <path d="M-10.45 -34.95 L-9.3 -35.45 Q-2.15 -29.15 5.85 -18.85 14.2 -8.1 18.3 0.55 L17.6 0.95 17.2 1.1 Q13.35 -7.1 5.15 -17.8 -3.1 -28.55 -10.45 -34.95" fill="#2080b9" fill-rule="evenodd" stroke="none"/>
    <path d="M13.3 -22.75 Q17.35 -17.8 19.55 -12.5 21.8 -7.2 21.9 -2.35 L20.45 -0.95 Q20.85 -5.85 18.7 -11.4 16.5 -17.0 12.25 -22.2 8.0 -27.45 2.55 -31.0 -2.85 -34.5 -8.45 -35.75 L-6.1 -36.35 Q-0.8 -34.7 4.2 -31.2 9.25 -27.65 13.3 -22.75" fill="#2080b9" fill-rule="evenodd" stroke="none"/>
    <path d="M3.5 -30.0 L4.65 -29.25 5.5 -29.3 6.5 -29.6 7.45 -28.8 8.5 -27.3 Q8.9 -26.5 8.4 -26.25 L7.25 -25.9 6.3 -25.35 Q5.0 -23.8 5.75 -23.5 6.25 -23.3 6.25 -22.65 6.25 -22.0 5.85 -21.7 L5.15 -21.15 Q4.95 -20.85 5.65 -20.55 L6.75 -20.05 8.0 -19.9 Q8.35 -19.8 8.0 -18.95 L7.65 -17.65 Q7.55 -17.3 6.75 -17.15 L5.3 -17.1 Q4.9 -17.1 4.9 -16.45 L4.85 -15.7 4.35 -15.0 3.6 -14.2 3.25 -13.7 2.95 -13.0 1.9 -12.35 0.9 -11.6 -0.05 -11.65 -1.1 -12.2 -1.75 -12.4 -2.95 -11.95 -3.75 -11.9 -4.75 -11.85 -5.3 -12.45 -5.8 -13.35 -5.9 -14.0 Q-5.85 -14.6 -6.2 -15.05 -6.55 -15.45 -7.0 -15.45 -7.7 -15.4 -7.9 -16.35 -8.15 -17.3 -7.5 -17.7 L-6.35 -18.4 Q-5.9 -18.7 -5.95 -19.25 L-5.95 -20.45 Q-5.95 -21.1 -6.3 -21.7 L-7.0 -23.05 Q-7.2 -23.7 -6.85 -23.95 L-6.45 -24.6 -6.4 -25.35 -6.15 -26.0 -5.8 -27.0 -5.95 -28.0 Q-6.05 -28.35 -5.4 -28.5 -4.6 -29.0 -3.45 -29.05 L-2.15 -28.75 Q-1.65 -28.6 -1.45 -29.15 -1.3 -29.6 -1.3 -30.2 -1.25 -30.6 -0.65 -30.7 L1.75 -30.6 2.5 -30.5 3.5 -30.0" fill="#83da4b" fill-rule="evenodd" stroke="none"/>
    <path d="M3.5 -30.0 L2.5 -30.5 1.75 -30.6 -0.65 -30.7 Q-1.25 -30.6 -1.3 -30.2 -1.3 -29.6 -1.45 -29.15 -1.65 -28.6 -2.15 -28.75 L-3.45 -29.05 Q-4.6 -29.0 -5.4 -28.5 -6.05 -28.35 -5.95 -28.0 L-5.8 -27.0 -6.15 -26.0 -6.4 -25.35 -6.45 -24.6 -6.85 -23.95 Q-7.2 -23.7 -7.0 -23.05 L-6.3 -21.7 Q-5.95 -21.1 -5.95 -20.45 L-5.95 -19.25 Q-5.9 -18.7 -6.35 -18.4 L-7.5 -17.7 Q-8.15 -17.3 -7.9 -16.35 -7.7 -15.4 -7.0 -15.45 -6.55 -15.45 -6.2 -15.05 -5.85 -14.6 -5.9 -14.0 L-5.8 -13.35 -5.3 -12.45 -4.75 -11.85 -3.75 -11.9 -2.95 -11.95 -1.75 -12.4 -1.1 -12.2 -0.05 -11.65 0.9 -11.6 1.9 -12.35 2.95 -13.0 3.25 -13.7 3.6 -14.2 4.35 -15.0 4.85 -15.7 4.9 -16.45 Q4.9 -17.1 5.3 -17.1 L6.75 -17.15 Q7.55 -17.3 7.65 -17.65 L8.0 -18.95 Q8.35 -19.8 8.0 -19.9 L6.75 -20.05 5.65 -20.55 Q4.95 -20.85 5.15 -21.15 L5.85 -21.7 Q6.25 -22.0 6.25 -22.65 6.25 -23.3 5.75 -23.5 5.0 -23.8 6.3 -25.35 L7.25 -25.9 8.4 -26.25 Q8.9 -26.5 8.5 -27.3 L7.45 -28.8 6.5 -29.6 5.5 -29.3 4.65 -29.25 3.5 -30.0 Z" fill="none" stroke="#61ae2c" stroke-linecap="butt" stroke-linejoin="miter-clip" stroke-miterlimit="4.0" stroke-width="1.0"/>
    <path d="M15.2 -15.6 L15.15 -15.7 Q13.7 -15.7 15.2 -15.6 Z" fill="none" stroke="#61ae2c" stroke-linecap="butt" stroke-linejoin="miter-clip" stroke-miterlimit="4.0" stroke-width="1.0"/>
    <path d="M13.8 -19.3 Q13.25 -19.05 13.75 -19.65 14.2 -20.3 13.8 -19.3" fill="#83da4b" fill-rule="evenodd" stroke="none"/>
    <path d="M13.8 -19.3 Q14.2 -20.3 13.75 -19.65 13.25 -19.05 13.8 -19.3 Z" fill="none" stroke="#61ae2c" stroke-linecap="butt" stroke-linejoin="miter-clip" stroke-miterlimit="4.0" stroke-width="1.0"/>
    <path d="M15.55 -15.55 L15.2 -15.6" fill="none" stroke="#61ae2c" stroke-linecap="butt" stroke-linejoin="miter-clip" stroke-miterlimit="4.0" stroke-width="1.0"/>
    <path d="M15.55 -15.55 L15.2 -15.6 15.15 -15.7 Q16.0 -15.7 15.55 -15.55" fill="#83da4b" fill-rule="evenodd" stroke="none"/>
    <path d="M15.55 -15.55 Q16.0 -15.7 15.15 -15.7 L15.2 -15.6 15.55 -15.55 Z" fill="none" stroke="#61ae2c" stroke-linecap="butt" stroke-linejoin="miter-clip" stroke-miterlimit="4.0" stroke-width="1.0"/>
    <path d="M18.25 -26.95 L19.85 -25.1 Q24.05 -19.75 24.9 -14.0 L23.55 -14.1 Q22.9 -14.35 22.85 -13.95 L22.7 -13.05 22.15 -12.55 21.1 -12.35 20.1 -12.25 19.35 -12.4 18.15 -13.15 17.75 -13.55 Q18.2 -13.5 18.25 -13.85 L18.15 -14.5 17.7 -15.45 17.3 -15.85 15.55 -15.55 Q16.0 -15.7 15.15 -15.7 L14.65 -16.3 13.4 -17.4 Q13.1 -17.75 13.25 -18.05 L13.8 -19.3 14.15 -19.5 Q14.0 -19.6 14.2 -19.9 14.3 -20.1 14.95 -20.35 15.4 -20.55 15.55 -21.25 L15.7 -21.7 Q15.85 -21.4 16.15 -21.55 L16.4 -22.0 16.15 -22.6 15.9 -24.15 15.75 -25.55 Q15.75 -25.95 16.05 -26.15 L17.0 -26.55 Q17.55 -26.85 18.25 -26.95" fill="#83da4b" fill-rule="evenodd" stroke="none"/>
    <path d="M18.25 -26.95 Q17.55 -26.85 17.0 -26.55 L16.05 -26.15 Q15.75 -25.95 15.75 -25.55 L15.9 -24.15 16.15 -22.6 16.4 -22.0 16.15 -21.55 Q15.85 -21.4 15.7 -21.7 L15.55 -21.25 Q15.4 -20.55 14.95 -20.35 14.3 -20.1 14.2 -19.9 14.0 -19.6 14.15 -19.5 L13.8 -19.3 13.25 -18.05 Q13.1 -17.75 13.4 -17.4 L14.65 -16.3 15.15 -15.7 Q16.0 -15.7 15.55 -15.55 L17.3 -15.85 17.7 -15.45 18.15 -14.5 18.25 -13.85 Q18.2 -13.5 17.75 -13.55 L18.15 -13.15 19.35 -12.4 20.1 -12.25 21.1 -12.35 22.15 -12.55 22.7 -13.05 22.85 -13.95 Q22.9 -14.35 23.55 -14.1 L24.9 -14.0 Q24.05 -19.75 19.85 -25.1 L18.25 -26.95 Z" fill="none" stroke="#61ae2c" stroke-linecap="butt" stroke-linejoin="miter-clip" stroke-miterlimit="4.0" stroke-width="1.0"/>
    <path d="M9.3 -9.2 L9.85 -8.65 10.25 -8.55 11.55 -8.45 12.3 -8.3 Q11.85 -8.15 12.1 -7.9 L12.35 -7.35 12.25 -6.8 Q12.3 -6.3 12.9 -5.55 13.3 -5.05 13.7 -5.2 L14.45 -5.65 16.35 -6.2 17.15 -6.3 Q16.85 -5.9 17.35 -5.65 L18.25 -5.05 19.15 -4.45 19.65 -4.1 20.05 -3.45 20.65 -2.7 20.95 -2.0 21.05 -1.5 Q19.55 0.0 17.6 0.95 12.9 3.3 6.7 2.5 L6.3 1.95 5.7 1.15 4.6 0.15 Q4.0 -0.3 4.05 -0.15 4.25 0.35 3.85 0.55 L3.45 0.6 Q3.45 0.2 3.05 -0.15 L2.6 -0.7 2.6 -1.2 2.05 -1.8 0.75 -2.15 Q0.05 -2.35 0.05 -2.55 -0.05 -3.05 -0.3 -3.35 -0.7 -3.85 -0.45 -4.35 L-0.3 -5.05 Q-0.5 -5.5 -0.3 -6.25 L2.55 -6.6 3.75 -6.75 Q3.0 -6.75 3.4 -6.9 L3.95 -7.25 3.85 -8.05 Q3.85 -8.55 4.0 -8.65 L4.25 -8.9 4.55 -9.25 8.65 -9.5 Q9.0 -9.55 9.3 -9.2" fill="#83da4b" fill-rule="evenodd" stroke="none"/>
    <path d="M9.3 -9.2 Q9.0 -9.55 8.65 -9.5 L4.55 -9.25 4.25 -8.9 4.0 -8.65 Q3.85 -8.55 3.85 -8.05 L3.95 -7.25 3.4 -6.9 Q3.0 -6.75 3.75 -6.75 L2.55 -6.6 -0.3 -6.25 Q-0.5 -5.5 -0.3 -5.05 L-0.45 -4.35 Q-0.7 -3.85 -0.3 -3.35 -0.05 -3.05 0.05 -2.55 0.05 -2.35 0.75 -2.15 L2.05 -1.8 2.6 -1.2 2.6 -0.7 3.05 -0.15 Q3.45 0.2 3.45 0.6 L3.85 0.55 Q4.25 0.35 4.05 -0.15 4.0 -0.3 4.6 0.15 L5.7 1.15 6.3 1.95 6.7 2.5 Q12.9 3.3 17.6 0.95 19.55 0.0 21.05 -1.5 L20.95 -2.0 20.65 -2.7 20.05 -3.45 19.65 -4.1 19.15 -4.45 18.25 -5.05 17.35 -5.65 Q16.85 -5.9 17.15 -6.3 L16.35 -6.2 14.45 -5.65 13.7 -5.2 Q13.3 -5.05 12.9 -5.55 12.3 -6.3 12.25 -6.8 L12.35 -7.35 12.1 -7.9 Q11.85 -8.15 12.3 -8.3 L11.55 -8.45 10.25 -8.55 9.85 -8.65 9.3 -9.2 Z" fill="none" stroke="#61ae2c" stroke-linecap="butt" stroke-linejoin="miter-clip" stroke-miterlimit="4.0" stroke-width="1.0"/>
    <path d="M-17.75 -19.5 L-16.6 -19.5 -15.65 -19.2 -14.75 -19.0 -14.2 -18.45 -14.2 -17.7 Q-14.3 -17.25 -13.7 -16.75 L-12.55 -15.9 Q-12.25 -15.7 -12.3 -15.45 L-12.65 -14.2 -12.9 -13.6 -13.0 -13.0 Q-13.0 -12.7 -12.6 -12.3 L-11.75 -11.7 Q-11.4 -11.5 -11.8 -11.1 L-12.25 -10.45 -13.05 -10.1 -13.55 -9.95 Q-16.9 -14.65 -17.75 -19.5" fill="#83da4b" fill-rule="evenodd" stroke="none"/>
    <path d="M-17.75 -19.5 Q-16.9 -14.65 -13.55 -9.95 L-13.05 -10.1 -12.25 -10.45 -11.8 -11.1 Q-11.4 -11.5 -11.75 -11.7 L-12.6 -12.3 Q-13.0 -12.7 -13.0 -13.0 L-12.9 -13.6 -12.65 -14.2 -12.3 -15.45 Q-12.25 -15.7 -12.55 -15.9 L-13.7 -16.75 Q-14.3 -17.25 -14.2 -17.7 L-14.2 -18.45 -14.75 -19.0 -15.65 -19.2 -16.6 -19.5 -17.75 -19.5 Z" fill="none" stroke="#61ae2c" stroke-linecap="butt" stroke-linejoin="miter-clip" stroke-miterlimit="4.0" stroke-width="1.0"/>
    <path d="M19.85 -25.1 Q25.7 -17.65 25.05 -10.05 24.4 -2.4 17.6 0.95 10.85 4.3 1.95 1.4 -6.95 -1.45 -12.8 -8.9 -18.65 -16.3 -18.0 -23.95 -17.35 -31.55 -10.55 -34.9 -3.8 -38.25 5.1 -35.4 14.05 -32.5 19.85 -25.1 Z" fill="none" stroke="#b1853c" stroke-linecap="butt" stroke-linejoin="miter-clip" stroke-miterlimit="4.0" stroke-width="1.0"/>
    <path d="M-13.35 -42.9 Q-12.4 -41.7 -12.5 -40.5 -12.6 -39.25 -13.7 -38.75 L-16.2 -38.7 Q-17.6 -39.15 -18.55 -40.3 -19.45 -41.5 -19.35 -42.7 -19.25 -43.95 -18.15 -44.45 L-15.7 -44.5 Q-14.3 -44.05 -13.35 -42.9" fill="#ac51f0" fill-rule="evenodd" stroke="none"/>
    <path d="M-13.35 -42.9 Q-12.4 -41.7 -12.5 -40.5 -12.6 -39.25 -13.7 -38.75 L-16.2 -38.7 Q-17.6 -39.15 -18.55 -40.3 -19.45 -41.5 -19.35 -42.7 -19.25 -43.95 -18.15 -44.45 L-15.7 -44.5 Q-14.3 -44.05 -13.35 -42.9 Z" fill="none" stroke="#7a27c0" stroke-linecap="butt" stroke-linejoin="miter-clip" stroke-miterlimit="4.0" stroke-width="1.0"/>
    <path d="M25.45 6.15 Q26.35 7.35 26.25 8.55 26.15 9.8 25.1 10.3 L22.6 10.35 Q21.2 9.9 20.25 8.75 19.3 7.55 19.45 6.35 19.55 5.15 20.6 4.6 L23.1 4.55 Q24.5 5.0 25.45 6.15" fill="#ac51f0" fill-rule="evenodd" stroke="none"/>
    <path d="M25.45 6.15 Q26.35 7.35 26.25 8.55 26.15 9.8 25.1 10.3 L22.6 10.35 Q21.2 9.9 20.25 8.75 19.3 7.55 19.45 6.35 19.55 5.15 20.6 4.6 L23.1 4.55 Q24.5 5.0 25.45 6.15 Z" fill="none" stroke="#7a27c0" stroke-linecap="butt" stroke-linejoin="miter-clip" stroke-miterlimit="4.0" stroke-width="1.0"/>
    <path d="M28.3 -29.65 Q29.25 -28.5 29.15 -27.3 29.05 -26.05 27.95 -25.55 L25.5 -25.5 Q24.05 -25.95 23.15 -27.1 22.2 -28.25 22.3 -29.45 22.4 -30.7 23.5 -31.25 L26.0 -31.3 Q27.4 -30.85 28.3 -29.65" fill="#ac51f0" fill-rule="evenodd" stroke="none"/>
    <path d="M28.3 -29.65 Q29.25 -28.5 29.15 -27.3 29.05 -26.05 27.95 -25.55 L25.5 -25.5 Q24.05 -25.95 23.15 -27.1 22.2 -28.25 22.3 -29.45 22.4 -30.7 23.5 -31.25 L26.0 -31.3 Q27.4 -30.85 28.3 -29.65 Z" fill="none" stroke="#7a27c0" stroke-linecap="butt" stroke-linejoin="miter-clip" stroke-miterlimit="4.0" stroke-width="1.0"/>
    <path d="M-16.7 -7.35 Q-15.75 -6.15 -15.85 -4.95 -15.95 -3.7 -17.05 -3.2 L-19.55 -3.15 Q-20.95 -3.6 -21.9 -4.75 -22.8 -5.95 -22.7 -7.15 -22.6 -8.35 -21.55 -8.9 L-19.05 -8.95 Q-17.65 -8.5 -16.7 -7.35" fill="#ac51f0" fill-rule="evenodd" stroke="none"/>
    <path d="M-16.7 -7.35 Q-15.75 -6.15 -15.85 -4.95 -15.95 -3.7 -17.05 -3.2 L-19.55 -3.15 Q-20.95 -3.6 -21.9 -4.75 -22.8 -5.95 -22.7 -7.15 -22.6 -8.35 -21.55 -8.9 L-19.05 -8.95 Q-17.65 -8.5 -16.7 -7.35 Z" fill="none" stroke="#7a27c0" stroke-linecap="butt" stroke-linejoin="miter-clip" stroke-miterlimit="4.0" stroke-width="1.0"/>
    <path d="M-15.35 -42.55 Q-14.95 -42.0 -14.95 -41.4 -15.0 -40.85 -15.5 -40.6 -16.05 -40.35 -16.7 -40.6 L-17.75 -41.35 Q-18.2 -41.9 -18.15 -42.45 L-17.6 -43.25 -16.45 -43.3 -15.35 -42.55" fill="#ca95ff" fill-rule="evenodd" stroke="none"/>
    <path d="M-16.15 -42.6 L-15.9 -41.85 -16.25 -41.35 Q-17.0 -40.9 -17.7 -41.8 -18.0 -42.15 -17.95 -42.55 L-17.6 -43.05 -16.85 -43.05 -16.15 -42.6" fill="#ffffff" fill-rule="evenodd" stroke="none"/>
    <path d="M23.2 6.55 Q23.65 7.05 23.6 7.65 L23.05 8.45 21.9 8.5 Q21.2 8.3 20.8 7.75 20.35 7.2 20.4 6.65 20.45 6.05 20.95 5.8 21.5 5.55 22.15 5.8 22.8 6.0 23.2 6.55" fill="#ca95ff" fill-rule="evenodd" stroke="none"/>
    <path d="M22.4 6.5 L22.65 7.25 22.3 7.75 Q21.55 8.1 20.85 7.3 L20.6 6.55 Q20.65 6.2 20.95 6.05 21.3 5.9 21.7 6.05 22.15 6.15 22.4 6.5" fill="#ffffff" fill-rule="evenodd" stroke="none"/>
    <path d="M26.15 -29.25 Q26.6 -28.7 26.55 -28.1 26.5 -27.55 26.0 -27.3 25.5 -27.05 24.85 -27.3 24.2 -27.5 23.75 -28.05 23.35 -28.6 23.4 -29.15 23.4 -29.75 23.9 -29.95 L25.1 -30.0 26.15 -29.25" fill="#ca95ff" fill-rule="evenodd" stroke="none"/>
    <path d="M25.35 -29.25 L25.6 -28.55 Q25.6 -28.2 25.25 -28.05 L24.55 -28.0 23.8 -28.5 Q23.55 -28.85 23.55 -29.2 L23.9 -29.75 24.65 -29.75 25.35 -29.25" fill="#ffffff" fill-rule="evenodd" stroke="none"/>
    <path d="M-19.0 -6.85 Q-18.55 -6.3 -18.6 -5.7 -18.65 -5.15 -19.15 -4.9 L-20.35 -4.85 Q-21.0 -5.1 -21.4 -5.65 -21.85 -6.15 -21.8 -6.75 -21.75 -7.3 -21.25 -7.55 L-20.1 -7.6 Q-19.4 -7.4 -19.0 -6.85" fill="#ca95ff" fill-rule="evenodd" stroke="none"/>
    <path d="M-19.8 -6.85 L-19.55 -6.15 Q-19.6 -5.8 -19.9 -5.6 -20.75 -5.25 -21.35 -6.1 -22.0 -6.95 -21.25 -7.35 L-20.5 -7.35 -19.8 -6.85" fill="#ffffff" fill-rule="evenodd" stroke="none"/>
    <path d="M-55.45 -17.65 L-58.25 -22.2 -59.0 -17.5 -56.4 -13.25 -56.7 -11.4 -59.3 -15.65 -60.1 -10.4 -57.25 -5.75 -57.55 -3.9 -61.0 -9.6 -58.55 -25.05 -55.15 -19.45 -55.45 -17.65" fill="#fbc01a" fill-rule="evenodd" stroke="none"/>
    <path d="M-53.7 -17.05 L-53.45 -9.25 -51.1 -12.85 -50.45 -11.75 -53.3 -7.3 -52.95 3.65 -53.7 2.4 -53.95 -6.3 -56.45 -2.1 -57.2 -3.3 -54.05 -8.35 -54.45 -18.3 -53.7 -17.05" fill="#fbc01a" fill-rule="evenodd" stroke="none"/>
    <path d="M-48.0 -7.75 L-47.1 -5.9 Q-46.75 -4.75 -46.7 -3.4 -46.7 -1.7 -46.95 -0.4 -47.35 1.7 -47.95 2.25 -48.55 2.95 -49.55 1.35 L-50.7 -0.65 -51.8 5.55 -52.4 4.55 -49.75 -10.65 -48.0 -7.75 M-49.2 -0.45 Q-48.65 0.5 -48.25 0.25 -47.8 0.0 -47.6 -1.35 L-47.45 -3.1 -47.6 -4.5 -48.25 -5.85 -49.45 -7.85 -50.4 -2.4 -49.2 -0.45" fill="#fbc01a" fill-rule="evenodd" stroke="none"/>
    <path d="M-44.8 -2.45 L-47.2 10.75 -44.9 14.5 -45.25 16.3 -48.15 11.55 -45.4 -3.5 -44.8 -2.45" fill="#fbc01a" fill-rule="evenodd" stroke="none"/>
    <path d="M-39.9 7.45 Q-40.55 6.25 -41.35 7.05 -42.0 7.8 -42.7 11.0 -43.2 14.05 -43.0 16.05 -42.85 18.4 -42.2 19.4 -41.5 20.55 -40.75 19.75 -39.95 18.95 -39.45 16.0 -39.1 14.15 -39.0 12.2 L-39.2 9.45 Q-39.45 8.15 -39.9 7.45 M-40.4 21.5 Q-41.5 22.75 -42.5 21.1 -43.55 19.45 -43.7 16.05 -43.85 12.75 -43.3 9.95 -42.65 6.15 -41.55 5.15 -40.5 4.2 -39.55 5.75 -38.85 6.95 -38.6 8.5 -38.2 10.3 -38.3 12.5 -38.3 14.45 -38.8 17.1 -39.5 20.45 -40.4 21.5" fill="#fbc01a" fill-rule="evenodd" stroke="none"/>
    <path d="M-33.6 16.45 Q-33.35 17.45 -33.35 18.65 -33.35 20.15 -33.6 21.15 -33.9 22.85 -34.5 23.3 -35.0 23.75 -35.7 23.0 L-35.5 24.45 -35.4 27.15 -35.4 32.45 -36.15 31.15 -36.2 23.8 -36.4 22.4 Q-36.55 21.85 -36.85 21.4 L-37.55 20.2 -38.85 26.75 -39.45 25.75 -36.55 11.0 -34.45 14.45 Q-33.8 15.6 -33.6 16.45 M-34.75 16.1 L-36.25 13.65 -37.25 18.5 -35.9 20.7 -35.2 21.5 Q-34.9 21.65 -34.65 21.25 L-34.25 20.15 Q-34.0 18.95 -34.15 17.95 -34.2 17.1 -34.75 16.1" fill="#fbc01a" fill-rule="evenodd" stroke="none"/>
    <path d="M-28.35 24.45 L-28.75 26.15 -31.5 21.6 -32.45 26.05 -29.85 30.25 -30.2 32.0 -32.8 27.75 -33.8 32.7 -30.95 37.35 -31.35 39.1 -34.8 33.4 -31.8 18.85 -28.35 24.45" fill="#fbc01a" fill-rule="evenodd" stroke="none"/>
    <path d="M-26.1 36.4 Q-25.8 36.55 -25.55 36.15 L-25.1 35.05 Q-24.85 33.95 -25.0 32.95 -25.15 31.95 -25.6 31.1 L-27.1 28.65 -28.15 33.4 -26.8 35.6 -26.1 36.4 M-28.5 35.05 L-29.9 41.45 -30.5 40.45 -27.4 26.0 -25.3 29.45 Q-24.65 30.45 -24.4 31.45 L-24.2 33.6 Q-24.2 34.9 -24.5 36.1 -24.8 37.75 -25.4 38.2 -25.95 38.65 -26.65 37.85 L-26.45 39.3 -26.4 47.15 -27.2 45.9 -27.15 38.65 -27.35 37.25 Q-27.5 36.7 -27.8 36.25 L-28.5 35.05" fill="#fbc01a" fill-rule="evenodd" stroke="none"/>
  </g>
</svg>
