<?xml version="1.0" encoding="UTF-8" standalone="no"?>
<svg xmlns:ffdec="https://www.free-decompiler.com/flash" xmlns:xlink="http://www.w3.org/1999/xlink" ffdec:objectType="shape" height="13.7px" width="113.05px" xmlns="http://www.w3.org/2000/svg">
  <g transform="matrix(1.0, 0.0, 0.0, 1.0, -20.65, -144.9)">
    <path d="M31.8 156.45 Q28.9 157.45 26.8 157.45 23.65 157.45 22.05 155.2 20.9 153.5 20.9 151.55 20.9 149.3 22.6 147.65 24.3 146.05 26.6 146.05 28.8 146.05 30.85 148.1 L29.0 149.85 Q27.8 148.65 26.5 148.65 25.25 148.65 24.35 149.5 23.45 150.4 23.45 151.55 L23.5 152.1 Q24.1 154.9 26.9 154.9 L31.0 154.05 31.8 156.45" fill="#fffb00" fill-rule="evenodd" stroke="none"/>
    <path d="M31.8 156.45 Q28.9 157.45 26.8 157.45 23.65 157.45 22.05 155.2 20.9 153.5 20.9 151.55 20.9 149.3 22.6 147.65 24.3 146.05 26.6 146.05 28.8 146.05 30.85 148.1 L29.0 149.85 Q27.8 148.65 26.5 148.65 25.25 148.65 24.35 149.5 23.45 150.4 23.45 151.55 L23.5 152.1 Q24.1 154.9 26.9 154.9 L31.0 154.05 31.8 156.45 Z" fill="none" stroke="#085da4" stroke-linecap="butt" stroke-linejoin="miter-clip" stroke-miterlimit="4.0" stroke-width="0.5"/>
    <path d="M36.1 153.95 Q36.85 154.8 38.25 154.8 39.9 154.8 41.2 153.65 42.55 152.45 42.55 150.8 42.55 149.55 41.7 148.6 40.95 147.7 39.6 147.7 38.0 147.7 36.75 148.95 35.4 150.15 35.4 151.75 35.4 153.2 36.1 153.95 M34.95 147.1 Q37.0 145.15 39.6 145.15 42.0 145.15 43.55 146.8 45.1 148.5 45.1 150.8 45.1 153.55 43.0 155.5 40.95 157.35 38.2 157.35 35.9 157.35 34.3 155.7 32.8 154.15 32.8 151.7 32.8 149.1 34.95 147.1" fill="#fffb00" fill-rule="evenodd" stroke="none"/>
    <path d="M36.1 153.95 Q36.85 154.8 38.25 154.8 39.9 154.8 41.2 153.65 42.55 152.45 42.55 150.8 42.55 149.55 41.7 148.6 40.95 147.7 39.6 147.7 38.0 147.7 36.75 148.95 35.4 150.15 35.4 151.75 35.4 153.2 36.1 153.95 M34.95 147.1 Q37.0 145.15 39.6 145.15 42.0 145.15 43.55 146.8 45.1 148.5 45.1 150.8 45.1 153.55 43.0 155.5 40.95 157.35 38.2 157.35 35.9 157.35 34.3 155.7 32.8 154.15 32.8 151.7 32.8 149.1 34.95 147.1 Z" fill="none" stroke="#085da4" stroke-linecap="butt" stroke-linejoin="miter-clip" stroke-miterlimit="4.0" stroke-width="0.5"/>
    <path d="M57.3 157.9 Q55.9 154.95 55.2 152.45 L53.55 156.6 51.5 156.2 49.75 151.75 Q48.95 154.65 48.65 157.4 L46.1 157.1 Q46.8 151.8 48.8 146.75 L51.1 146.9 Q51.9 150.3 52.6 152.05 53.5 148.9 53.85 146.1 L56.3 146.05 Q57.25 151.65 59.65 156.85 L57.3 157.9" fill="#fffb00" fill-rule="evenodd" stroke="none"/>
    <path d="M57.3 157.9 Q55.9 154.95 55.2 152.45 L53.55 156.6 51.5 156.2 49.75 151.75 Q48.95 154.65 48.65 157.4 L46.1 157.1 Q46.8 151.8 48.8 146.75 L51.1 146.9 Q51.9 150.3 52.6 152.05 53.5 148.9 53.85 146.1 L56.3 146.05 Q57.25 151.65 59.65 156.85 L57.3 157.9 Z" fill="none" stroke="#085da4" stroke-linecap="butt" stroke-linejoin="miter-clip" stroke-miterlimit="4.0" stroke-width="0.5"/>
    <path d="M70.15 151.15 Q70.15 152.95 67.8 154.1 66.55 154.8 63.9 155.3 L64.2 158.15 61.6 158.35 60.65 147.15 64.2 146.9 Q66.5 146.9 67.95 147.55 69.6 148.45 70.05 150.5 L70.15 151.15 M63.7 152.75 Q67.55 151.9 67.55 151.1 67.55 149.45 64.55 149.45 L63.4 149.5 63.7 152.75" fill="#fffb00" fill-rule="evenodd" stroke="none"/>
    <path d="M70.15 151.15 Q70.15 152.95 67.8 154.1 66.55 154.8 63.9 155.3 L64.2 158.15 61.6 158.35 60.65 147.15 64.2 146.9 Q66.5 146.9 67.95 147.55 69.6 148.45 70.05 150.5 L70.15 151.15 M63.7 152.75 Q67.55 151.9 67.55 151.1 67.55 149.45 64.55 149.45 L63.4 149.5 63.7 152.75 Z" fill="none" stroke="#085da4" stroke-linecap="butt" stroke-linejoin="miter-clip" stroke-miterlimit="4.0" stroke-width="0.5"/>
    <path d="M79.3 157.15 L76.7 157.7 74.1 158.0 72.1 157.85 71.45 146.9 78.35 146.55 78.45 149.15 74.15 149.35 74.25 151.35 78.45 150.95 78.7 153.55 74.4 153.9 74.5 155.3 74.75 155.3 78.8 154.65 79.3 157.15" fill="#fffb00" fill-rule="evenodd" stroke="none"/>
    <path d="M79.3 157.15 L76.7 157.7 74.1 158.0 72.1 157.85 71.45 146.9 78.35 146.55 78.45 149.15 74.15 149.35 74.25 151.35 78.45 150.95 78.7 153.55 74.4 153.9 74.5 155.3 74.75 155.3 78.8 154.65 79.3 157.15 Z" fill="none" stroke="#085da4" stroke-linecap="butt" stroke-linejoin="miter-clip" stroke-miterlimit="4.0" stroke-width="0.5"/>
    <path d="M89.25 149.35 L86.0 149.8 86.5 158.1 83.95 158.2 83.45 150.1 80.65 150.4 80.4 147.9 88.95 146.85 89.25 149.35" fill="#fffb00" fill-rule="evenodd" stroke="none"/>
    <path d="M89.25 149.35 L86.0 149.8 86.5 158.1 83.95 158.2 83.45 150.1 80.65 150.4 80.4 147.9 88.95 146.85 89.25 149.35 Z" fill="none" stroke="#085da4" stroke-linecap="butt" stroke-linejoin="miter-clip" stroke-miterlimit="4.0" stroke-width="0.5"/>
    <path d="M98.25 157.3 L91.95 157.9 91.7 155.35 93.15 155.2 92.65 149.15 90.6 149.35 90.4 146.8 97.35 146.2 97.55 148.75 95.2 149.0 95.7 154.95 98.0 154.75 98.25 157.3" fill="#fffb00" fill-rule="evenodd" stroke="none"/>
    <path d="M98.25 157.3 L91.95 157.9 91.7 155.35 93.15 155.2 92.65 149.15 90.6 149.35 90.4 146.8 97.35 146.2 97.55 148.75 95.2 149.0 95.7 154.95 98.0 154.75 98.25 157.3 Z" fill="none" stroke="#085da4" stroke-linecap="butt" stroke-linejoin="miter-clip" stroke-miterlimit="4.0" stroke-width="0.5"/>
    <path d="M108.15 149.35 L104.9 149.8 105.4 158.1 102.8 158.2 102.35 150.1 99.55 150.4 99.3 147.9 107.85 146.85 108.15 149.35" fill="#fffb00" fill-rule="evenodd" stroke="none"/>
    <path d="M108.15 149.35 L104.9 149.8 105.4 158.1 102.8 158.2 102.35 150.1 99.55 150.4 99.3 147.9 107.85 146.85 108.15 149.35 Z" fill="none" stroke="#085da4" stroke-linecap="butt" stroke-linejoin="miter-clip" stroke-miterlimit="4.0" stroke-width="0.5"/>
    <path d="M118.2 148.6 Q117.4 147.7 116.1 147.7 114.55 147.7 113.2 148.95 111.85 150.15 111.85 151.75 111.85 153.15 112.6 153.95 113.35 154.8 114.7 154.8 116.3 154.8 117.7 153.65 119.0 152.45 119.0 150.8 119.0 149.45 118.2 148.6 M121.55 150.8 Q121.55 153.55 119.45 155.5 117.45 157.35 114.65 157.35 112.3 157.35 110.8 155.7 109.3 154.15 109.3 151.7 109.3 149.15 111.4 147.1 113.45 145.15 116.1 145.15 118.45 145.15 120.0 146.8 121.55 148.45 121.55 150.8" fill="#fffb00" fill-rule="evenodd" stroke="none"/>
    <path d="M118.2 148.6 Q117.4 147.7 116.1 147.7 114.55 147.7 113.2 148.95 111.85 150.15 111.85 151.75 111.85 153.15 112.6 153.95 113.35 154.8 114.7 154.8 116.3 154.8 117.7 153.65 119.0 152.45 119.0 150.8 119.0 149.45 118.2 148.6 M121.55 150.8 Q121.55 153.55 119.45 155.5 117.45 157.35 114.65 157.35 112.3 157.35 110.8 155.7 109.3 154.15 109.3 151.7 109.3 149.15 111.4 147.1 113.45 145.15 116.1 145.15 118.45 145.15 120.0 146.8 121.55 148.45 121.55 150.8 Z" fill="none" stroke="#085da4" stroke-linecap="butt" stroke-linejoin="miter-clip" stroke-miterlimit="4.0" stroke-width="0.5"/>
    <path d="M133.4 155.35 L132.75 157.8 126.5 156.2 126.65 157.95 124.1 158.2 123.1 147.0 126.75 146.75 Q132.7 146.75 132.7 150.8 132.7 152.9 129.8 154.4 L133.4 155.35 M126.2 153.15 Q130.15 151.75 130.15 150.8 130.15 149.3 127.15 149.3 L125.9 149.35 126.2 153.15" fill="#fffb00" fill-rule="evenodd" stroke="none"/>
    <path d="M133.4 155.35 L132.75 157.8 126.5 156.2 126.65 157.95 124.1 158.2 123.1 147.0 126.75 146.75 Q132.7 146.75 132.7 150.8 132.7 152.9 129.8 154.4 L133.4 155.35 M126.2 153.15 Q130.15 151.75 130.15 150.8 130.15 149.3 127.15 149.3 L125.9 149.35 126.2 153.15 Z" fill="none" stroke="#085da4" stroke-linecap="butt" stroke-linejoin="miter-clip" stroke-miterlimit="4.0" stroke-width="0.5"/>
  </g>
</svg>
