<?xml version="1.0" encoding="UTF-8" standalone="no"?>
<svg xmlns:ffdec="https://www.free-decompiler.com/flash" xmlns:xlink="http://www.w3.org/1999/xlink" ffdec:objectType="shape" height="131.15px" width="132.7px" xmlns="http://www.w3.org/2000/svg">
  <g transform="matrix(1.0, 0.0, 0.0, 1.0, 66.35, 65.55)">
    <path d="M62.8 27.25 L54.8 31.6 56.75 20.3 62.8 27.25" fill="#070e43" fill-rule="evenodd" stroke="none"/>
    <path d="M59.15 15.15 L57.3 17.2 58.0 18.8 56.85 22.0 58.0 22.9 57.65 23.2 Q57.3 23.6 57.3 24.05 L57.75 26.1 56.4 27.95 57.55 29.35 56.15 32.1 -10.25 62.55 -14.85 55.2 -11.65 32.3 57.75 13.05 59.15 15.15" fill="#f0ddb1" fill-rule="evenodd" stroke="none"/>
    <path d="M59.15 15.15 L57.3 17.2 58.0 18.8 56.85 22.0 58.0 22.9 57.65 23.2 Q57.3 23.6 57.3 24.05 L57.75 26.1 56.4 27.95 57.55 29.35 56.15 32.1 -10.25 62.55 -14.85 55.2 -11.65 32.3 57.75 13.05 59.15 15.15 Z" fill="none" stroke="#cfb78a" stroke-linecap="butt" stroke-linejoin="miter-clip" stroke-miterlimit="4.0" stroke-width="1.0"/>
    <path d="M0.85 38.3 L0.9 38.35 Q-0.75 39.35 -3.75 40.5 L-8.5 42.45 -8.7 42.4 -8.65 42.15 Q-7.2 41.3 -3.9 40.25 -0.65 39.2 0.85 38.3" fill="#cfb78a" fill-rule="evenodd" stroke="none"/>
    <path d="M6.95 39.25 Q5.15 39.65 2.7 40.75 L-1.45 42.55 Q-6.75 44.55 -9.4 45.65 -9.65 45.75 -9.8 45.5 L-9.75 45.1 Q-8.25 44.05 -5.8 43.25 L-1.6 42.05 2.65 40.55 Q5.25 39.55 6.95 39.25" fill="#cfb78a" fill-rule="evenodd" stroke="none"/>
    <path d="M-1.8 54.95 L-1.75 55.0 Q-4.95 56.7 -9.2 58.2 L-9.45 58.1 -9.4 57.85 Q-8.0 57.05 -5.65 56.25 L-1.8 54.95" fill="#cfb78a" fill-rule="evenodd" stroke="none"/>
    <path d="M-2.5 52.6 L-2.5 52.65 -6.7 54.0 -9.5 55.0 -9.8 54.85 -9.65 54.5 -6.2 53.0 Q-4.0 52.3 -2.5 52.6" fill="#cfb78a" fill-rule="evenodd" stroke="none"/>
    <path d="M-13.45 36.45 L-7.55 37.1 -6.6 62.05 -13.45 63.0 -13.45 36.45" fill="#827252" fill-rule="evenodd" stroke="none"/>
    <path d="M65.65 8.15 L64.95 11.25 Q-1.3 38.2 -9.8 40.7 -12.75 43.65 -11.9 53.05 -11.1 62.4 -8.1 61.0 L62.8 27.25 62.1 30.95 Q14.5 54.75 1.45 60.0 0.7 58.9 -0.85 59.35 -2.7 59.85 -4.05 62.75 -4.95 63.0 -8.45 64.7 -11.9 66.15 -13.9 65.3 -17.0 62.45 -18.65 50.3 L-19.65 38.7 -7.5 33.2 65.65 8.15" fill="#070e43" fill-rule="evenodd" stroke="none"/>
    <path d="M44.9 26.8 L50.6 24.3 Q54.0 22.8 56.3 22.0 L56.65 22.15 56.55 22.5 Q47.9 26.5 33.15 31.2 L33.15 31.15 Q40.35 28.7 44.9 26.8" fill="#cfb78a" fill-rule="evenodd" stroke="none"/>
    <path d="M40.65 24.4 L40.65 24.35 49.5 20.85 Q54.9 18.7 58.6 18.55 L58.75 18.7 58.6 18.9 Q55.35 19.75 49.6 21.6 L40.65 24.4" fill="#cfb78a" fill-rule="evenodd" stroke="none"/>
    <path d="M43.6 20.95 L43.5 20.85 43.55 20.75 50.6 18.6 Q55.2 16.95 57.6 16.5 L57.75 16.6 57.7 16.75 50.75 19.2 Q46.75 20.5 43.6 20.95" fill="#cfb78a" fill-rule="evenodd" stroke="none"/>
    <path d="M52.8 16.9 Q52.5 17.05 52.75 16.8 L55.05 16.1 57.3 15.3 57.5 15.4 57.45 15.6 55.15 16.35 52.8 16.9" fill="#cfb78a" fill-rule="evenodd" stroke="none"/>
    <path d="M53.65 26.55 Q55.9 25.6 56.9 25.55 L57.1 25.75 57.0 26.0 54.85 26.6 52.7 27.2 49.15 28.5 53.65 26.55" fill="#cfb78a" fill-rule="evenodd" stroke="none"/>
    <path d="M-63.7 -14.75 Q-65.5 -17.2 -65.8 -26.75 -66.1 -37.55 -62.7 -41.9 L-61.25 -42.9 Q-59.55 -43.8 -58.25 -43.6 -56.7 -41.8 -56.1 -42.0 -55.55 -42.2 -55.8 -44.3 L7.4 -64.2 63.35 7.65 Q9.8 28.5 -1.2 33.35 -2.1 35.1 -3.95 35.85 -5.95 36.7 -6.7 35.05 L-11.5 36.75 Q-16.4 40.7 -16.4 49.65 -16.4 56.7 -13.55 64.6 -16.35 65.2 -39.3 26.85 L-63.7 -14.75" fill="#233cb1" fill-rule="evenodd" stroke="none"/>
    <path d="M-63.7 -14.75 L-39.3 26.85 Q-16.35 65.2 -13.55 64.6 -16.4 56.7 -16.4 49.65 -16.4 40.7 -11.5 36.75 L-6.7 35.05 Q-5.95 36.7 -3.95 35.85 -2.1 35.1 -1.2 33.35 9.8 28.5 63.35 7.65 L7.4 -64.2 -55.8 -44.3 Q-55.55 -42.2 -56.1 -42.0 -56.7 -41.8 -58.25 -43.6 -59.55 -43.8 -61.25 -42.9 L-62.7 -41.9 Q-66.1 -37.55 -65.8 -26.75 -65.5 -17.2 -63.7 -14.75 Z" fill="none" stroke="#0e1670" stroke-linecap="butt" stroke-linejoin="miter-clip" stroke-miterlimit="4.0" stroke-width="1.0"/>
    <path d="M-59.1 -43.45 L-55.3 -44.3 -1.2 33.35 -5.65 36.25 -59.1 -43.45" fill="#0e1670" fill-rule="evenodd" stroke="none"/>
    <path d="M-63.7 -14.75 Q-65.4 -17.1 -65.75 -26.35 -66.15 -36.75 -63.05 -41.35 -45.65 -14.25 -12.8 38.05 -16.65 42.35 -16.4 50.65 -16.15 57.35 -13.55 64.6 -16.35 65.2 -39.3 26.85 L-63.7 -14.75" fill="#0e1670" fill-rule="evenodd" stroke="none"/>
    <path d="M47.55 22.7 L47.9 36.1 41.75 33.0 34.35 41.25 34.0 28.5 47.55 22.7" fill="#e12205" fill-rule="evenodd" stroke="none"/>
    <path d="M48.75 21.85 L49.35 38.35 42.05 34.7 33.05 44.7 32.6 28.35 48.75 21.85 M41.4 31.3 L46.5 33.85 46.0 23.55 40.2 25.75 35.35 27.5 35.6 37.75 41.4 31.3" fill="#9c1400" fill-rule="evenodd" stroke="none"/>
    <path d="M10.15 34.6 L23.75 28.95 23.9 55.75 9.85 53.25 10.15 34.6" fill="#4cae10" fill-rule="evenodd" stroke="none"/>
    <path d="M9.1 34.8 L26.5 27.6 26.65 59.0 7.05 55.5 7.4 37.3 7.55 35.9 9.1 34.8 M23.75 29.4 L10.15 34.55 9.85 53.25 23.9 55.75 23.75 29.4" fill="#316d0a" fill-rule="evenodd" stroke="none"/>
    <path d="M14.45 32.8 L19.45 30.75 19.2 54.9 14.25 54.0 14.45 32.8" fill="#068c2d" fill-rule="evenodd" stroke="none"/>
    <path d="M20.45 44.5 Q20.4 46.25 19.3 47.45 18.2 48.65 16.65 48.6 15.1 48.6 14.05 47.35 12.95 46.15 13.0 44.4 13.0 42.7 14.1 41.5 15.2 40.3 16.75 40.3 18.3 40.35 19.35 41.55 20.45 42.8 20.45 44.5" fill="#cede2b" fill-rule="evenodd" stroke="none"/>
    <path d="M34.15 24.35 L34.2 24.5 Q27.7 28.0 19.35 31.05 17.75 31.65 12.05 34.0 L8.45 35.4 Q6.3 36.25 5.0 37.1 L4.95 37.1 Q7.6 35.35 11.5 33.7 13.65 32.75 18.35 31.0 23.7 29.0 34.15 24.35" fill="#cfb78a" fill-rule="evenodd" stroke="none"/>
    <path d="M42.65 24.15 L55.95 19.5 56.1 19.55 56.05 19.7 Q53.55 21.25 49.25 22.65 L42.1 24.95 34.95 27.45 Q31.55 28.85 29.7 29.1 L29.7 28.95 33.05 27.9 36.25 26.5 42.65 24.15" fill="#cfb78a" fill-rule="evenodd" stroke="none"/>
    <path d="M31.45 -13.95 L34.85 -7.8 41.5 -8.65 37.1 -3.95 40.85 2.4 34.2 -1.1 29.3 3.3 30.2 -3.2 23.9 -6.5 30.7 -7.3 31.45 -13.95" fill="#3b8cec" fill-rule="evenodd" stroke="none"/>
    <path d="M-8.3 -40.2 Q-5.9 -51.9 -4.75 -52.7 -3.65 -53.45 -7.5 -38.45 -8.55 -39.0 -8.5 -39.65 L-8.3 -40.2" fill="#9b1400" fill-rule="evenodd" stroke="none"/>
    <path d="M-5.55 -36.0 L-9.55 -42.2 -7.8 -59.15 2.35 -62.65 -5.55 -36.0" fill="#e42200" fill-rule="evenodd" stroke="none"/>
    <path d="M-5.55 -36.0 L2.35 -62.65 -7.8 -59.15 -9.55 -42.2 -5.55 -36.0 Z" fill="none" stroke="#9b1400" stroke-linecap="butt" stroke-linejoin="miter-clip" stroke-miterlimit="4.0" stroke-width="1.0"/>
    <path d="M-12.6 -40.65 L-8.55 -34.45 -50.4 -46.0 -34.75 -50.95 -12.6 -40.65" fill="#e42200" fill-rule="evenodd" stroke="none"/>
    <path d="M-12.6 -40.65 L-34.75 -50.95 -50.4 -46.0 -8.55 -34.45 -12.6 -40.65 Z" fill="none" stroke="#9b1400" stroke-linecap="butt" stroke-linejoin="miter-clip" stroke-miterlimit="4.0" stroke-width="1.0"/>
    <path d="M-11.3 -38.7 L-10.65 -38.6 Q-10.0 -38.25 -10.0 -37.2 -26.8 -42.05 -25.5 -42.5 -24.1 -42.95 -11.3 -38.7" fill="#9b1400" fill-rule="evenodd" stroke="none"/>
    <path d="M-10.75 -42.85 Q-9.75 -42.45 -9.15 -41.5 L-6.15 -36.95 Q-5.55 -36.0 -5.7 -35.05 -5.8 -34.1 -6.6 -33.7 L-8.35 -33.65 Q-9.35 -34.05 -10.0 -35.0 L-12.95 -39.6 Q-13.55 -40.55 -13.45 -41.5 -13.35 -42.5 -12.55 -42.85 -11.75 -43.25 -10.75 -42.85" fill="#fbc01a" fill-rule="evenodd" stroke="none"/>
    <path d="M-10.75 -42.85 Q-9.75 -42.45 -9.15 -41.5 L-6.15 -36.95 Q-5.55 -36.0 -5.7 -35.05 -5.8 -34.1 -6.6 -33.7 L-8.35 -33.65 Q-9.35 -34.05 -10.0 -35.0 L-12.95 -39.6 Q-13.55 -40.55 -13.45 -41.5 -13.35 -42.5 -12.55 -42.85 -11.75 -43.25 -10.75 -42.85 Z" fill="none" stroke="#d79d13" stroke-linecap="butt" stroke-linejoin="miter-clip" stroke-miterlimit="4.0" stroke-width="1.0"/>
    <path d="M22.55 -23.9 Q27.75 -16.3 26.55 -8.4 25.4 -0.5 18.6 3.35 11.85 7.35 3.45 4.65 -5.05 1.95 -10.4 -6.05 -15.8 -14.25 -14.8 -22.7 -13.8 -31.2 -6.95 -34.85 -0.05 -38.25 8.65 -35.0 17.3 -31.75 22.55 -23.9" fill="#9f780e" fill-rule="evenodd" stroke="none"/>
    <path d="M8.65 -20.65 Q6.9 -19.45 6.55 -19.8 6.25 -20.15 7.25 -21.55 9.85 -25.2 14.85 -27.9 L17.65 -25.3 Q12.85 -23.5 8.65 -20.65" fill="#fbc01a" fill-rule="evenodd" stroke="none"/>
    <path d="M8.65 -20.65 Q12.85 -23.5 17.65 -25.3 L14.85 -27.9 Q9.85 -25.2 7.25 -21.55 6.25 -20.15 6.55 -19.8 6.9 -19.45 8.65 -20.65 Z" fill="none" stroke="#d79d13" stroke-linecap="butt" stroke-linejoin="miter-clip" stroke-miterlimit="4.0" stroke-width="1.0"/>
    <path d="M-1.5 -1.6 L-2.05 -1.65 -4.1 -3.35 Q0.45 -6.8 1.5 -6.55 2.6 -6.3 -1.5 -1.6" fill="#fbc01a" fill-rule="evenodd" stroke="none"/>
    <path d="M-1.5 -1.6 Q2.6 -6.3 1.5 -6.55 0.45 -6.8 -4.1 -3.35 L-2.05 -1.65 -1.5 -1.6 Z" fill="none" stroke="#d79d13" stroke-linecap="butt" stroke-linejoin="miter-clip" stroke-miterlimit="4.0" stroke-width="1.0"/>
    <path d="M9.95 -31.0 Q6.35 -29.0 3.8 -25.5 2.45 -23.65 -0.45 -18.35 L-3.7 -12.3 Q-5.5 -9.4 -7.7 -7.55 L-7.75 -7.65 Q-12.25 -14.45 -11.4 -21.5 -10.55 -28.55 -4.85 -31.6 -1.65 -33.2 2.35 -33.0 6.15 -32.85 9.95 -31.0" fill="#fbc01a" fill-rule="evenodd" stroke="none"/>
    <path d="M9.95 -31.0 Q6.15 -32.85 2.35 -33.0 -1.65 -33.2 -4.85 -31.6 -10.55 -28.55 -11.4 -21.5 -12.25 -14.45 -7.75 -7.65 L-7.7 -7.55 Q-5.5 -9.4 -3.7 -12.3 L-0.45 -18.35 Q2.45 -23.65 3.8 -25.5 6.35 -29.0 9.95 -31.0 Z" fill="none" stroke="#d79d13" stroke-linecap="butt" stroke-linejoin="miter-clip" stroke-miterlimit="4.0" stroke-width="1.0"/>
    <path d="M9.5 -10.05 Q11.15 -13.3 12.95 -15.15 15.75 -18.05 21.05 -20.55 24.3 -14.5 23.0 -8.55 21.75 -2.6 16.55 0.35 13.35 2.15 9.55 2.25 5.8 2.3 2.05 0.7 6.55 -4.1 9.5 -10.05" fill="#fbc01a" fill-rule="evenodd" stroke="none"/>
    <path d="M9.5 -10.05 Q6.55 -4.1 2.05 0.7 5.8 2.3 9.55 2.25 13.35 2.15 16.55 0.35 21.75 -2.6 23.0 -8.55 24.3 -14.5 21.05 -20.55 15.75 -18.05 12.95 -15.15 11.15 -13.3 9.5 -10.05 Z" fill="none" stroke="#d79d13" stroke-linecap="butt" stroke-linejoin="miter-clip" stroke-miterlimit="4.0" stroke-width="1.0"/>
    <path d="M-4.1 -3.35 L-2.05 -1.65 -1.5 -1.6 Q2.6 -6.3 1.5 -6.55 0.45 -6.8 -4.1 -3.35 M12.95 -15.15 Q11.15 -13.3 9.5 -10.05 6.55 -4.1 2.05 0.7 5.8 2.3 9.55 2.25 13.35 2.15 16.55 0.35 21.75 -2.6 23.0 -8.55 24.3 -14.5 21.05 -20.55 15.75 -18.05 12.95 -15.15 M13.45 -32.55 Q16.3 -30.8 18.35 -28.8 L18.55 -28.65 20.8 -26.25 22.55 -23.9 23.9 -21.75 Q27.9 -14.5 26.4 -7.35 24.9 -0.2 18.6 3.35 13.9 6.15 8.05 5.6 2.35 5.1 -2.85 1.6 L-3.4 1.25 Q-6.0 -0.7 -7.95 -2.85 L-8.2 -3.15 -10.4 -6.05 Q-15.8 -14.25 -14.8 -22.7 -13.8 -31.2 -6.95 -34.85 -2.55 -37.05 3.0 -36.35 8.35 -35.7 13.45 -32.55 M9.95 -31.0 Q6.15 -32.85 2.35 -33.0 -1.65 -33.2 -4.85 -31.6 -10.55 -28.55 -11.4 -21.5 -12.25 -14.45 -7.75 -7.65 L-7.7 -7.55 Q-5.5 -9.4 -3.7 -12.3 L-0.45 -18.35 Q2.45 -23.65 3.8 -25.5 6.35 -29.0 9.95 -31.0 M17.65 -25.3 L14.85 -27.9 Q9.85 -25.2 7.25 -21.55 6.25 -20.15 6.55 -19.8 6.9 -19.45 8.65 -20.65 12.85 -23.5 17.65 -25.3" fill="#fbc01a" fill-rule="evenodd" stroke="none"/>
    <path d="M17.65 -25.3 Q12.85 -23.5 8.65 -20.65 6.9 -19.45 6.55 -19.8 6.25 -20.15 7.25 -21.55 9.85 -25.2 14.85 -27.9 L17.65 -25.3 M9.95 -31.0 Q6.35 -29.0 3.8 -25.5 2.45 -23.65 -0.45 -18.35 L-3.7 -12.3 Q-5.5 -9.4 -7.7 -7.55 L-7.75 -7.65 Q-12.25 -14.45 -11.4 -21.5 -10.55 -28.55 -4.85 -31.6 -1.65 -33.2 2.35 -33.0 6.15 -32.85 9.95 -31.0 M13.45 -32.55 Q8.35 -35.7 3.0 -36.35 -2.55 -37.05 -6.95 -34.85 -13.8 -31.2 -14.8 -22.7 -15.8 -14.25 -10.4 -6.05 L-8.2 -3.15 -7.95 -2.85 Q-6.0 -0.7 -3.4 1.25 L-2.85 1.6 Q2.35 5.1 8.05 5.6 13.9 6.15 18.6 3.35 24.9 -0.2 26.4 -7.35 27.9 -14.5 23.9 -21.75 L22.55 -23.9 20.8 -26.25 18.55 -28.65 18.35 -28.8 Q16.3 -30.8 13.45 -32.55 M12.95 -15.15 Q15.75 -18.05 21.05 -20.55 24.3 -14.5 23.0 -8.55 21.75 -2.6 16.55 0.35 13.35 2.15 9.55 2.25 5.8 2.3 2.05 0.7 6.55 -4.1 9.5 -10.05 11.15 -13.3 12.95 -15.15 M-4.1 -3.35 Q0.45 -6.8 1.5 -6.55 2.6 -6.3 -1.5 -1.6 L-2.05 -1.65 -4.1 -3.35 Z" fill="none" stroke="#d79d13" stroke-linecap="butt" stroke-linejoin="miter-clip" stroke-miterlimit="4.0" stroke-width="1.0"/>
    <path d="M8.35 -8.3 L-0.85 -22.05 -4.25 -20.25 -6.6 -23.75 -4.65 -25.4 -2.8 -27.65 -1.95 -29.15 -0.75 -29.75 12.2 -10.4 13.25 -9.0 Q13.65 -8.6 14.05 -8.6 L15.2 -8.95 16.9 -9.9 19.15 -6.55 8.8 -0.7 6.55 -4.1 8.25 -5.1 9.25 -5.9 9.3 -6.65 8.35 -8.3" fill="#fbd578" fill-rule="evenodd" stroke="none"/>
    <path d="M8.35 -8.3 L-0.85 -22.05 -4.25 -20.25 -6.6 -23.75 -4.65 -25.4 -2.8 -27.65 -1.95 -29.15 -0.75 -29.75 12.2 -10.4 13.25 -9.0 Q13.65 -8.6 14.05 -8.6 L15.2 -8.95 16.9 -9.9 19.15 -6.55 8.8 -0.7 6.55 -4.1 8.25 -5.1 9.25 -5.9 9.3 -6.65 8.35 -8.3 Z" fill="none" stroke="#d79d13" stroke-linecap="butt" stroke-linejoin="miter-clip" stroke-miterlimit="4.0" stroke-width="1.0"/>
    <path d="M5.25 -43.3 L-0.3 -45.35 4.65 -46.55 3.8 -51.8 7.65 -47.35 12.4 -48.65 10.2 -44.45 14.6 -39.65 8.75 -41.95 6.25 -37.95 5.25 -43.3" fill="#3b8cec" fill-rule="evenodd" stroke="none"/>
    <path d="M3.75 8.25 L6.35 11.15 9.35 9.25 8.0 13.05 10.85 16.25 7.1 15.35 5.45 18.9 4.75 14.8 1.05 13.9 4.35 12.25 3.75 8.25" fill="#3b8cec" fill-rule="evenodd" stroke="none"/>
    <path d="M-6.5 10.95 L-6.65 14.2 -8.25 11.15 -11.1 11.4 -9.15 9.3 -10.55 6.45 -8.0 7.95 -6.3 5.6 -6.4 8.95 -3.7 10.6 -6.5 10.95" fill="#3b8cec" fill-rule="evenodd" stroke="none"/>
    <path d="M66.35 7.45 L41.55 17.15 41.25 15.7 52.4 -7.7 66.35 7.45" fill="#fbc01a" fill-rule="evenodd" stroke="none"/>
    <path d="M66.35 7.45 L41.55 17.15 41.25 15.7 52.4 -7.7 66.35 7.45 M42.35 15.75 L64.6 7.05 63.95 6.3 52.7 -5.9 42.35 15.75" fill="#d79d13" fill-rule="evenodd" stroke="none"/>
    <path d="M54.8 5.4 Q54.2 6.9 53.05 7.65 51.85 8.4 50.8 7.95 49.75 7.55 49.45 6.2 49.1 4.8 49.7 3.35 50.35 1.85 51.5 1.1 52.65 0.35 53.75 0.75 54.8 1.2 55.1 2.55 55.4 3.9 54.8 5.4" fill="#fbdd64" fill-rule="evenodd" stroke="none"/>
    <path d="M7.45 -65.0 Q10.65 -61.2 15.0 -55.05 L-9.35 -59.35 Q-0.55 -62.95 7.45 -65.0" fill="#fbc01a" fill-rule="evenodd" stroke="none"/>
    <path d="M7.45 -65.0 Q-0.55 -62.95 -9.35 -59.35 L15.0 -55.05 Q10.65 -61.2 7.45 -65.0 Z" fill="none" stroke="#d79d13" stroke-linecap="butt" stroke-linejoin="miter-clip" stroke-miterlimit="4.0" stroke-width="1.0"/>
    <path d="M5.3 -62.45 Q6.3 -62.2 6.9 -61.5 7.45 -60.8 7.3 -60.1 7.1 -59.4 6.25 -59.1 L4.45 -59.0 Q3.45 -59.25 2.85 -59.95 2.25 -60.65 2.45 -61.35 2.6 -62.05 3.45 -62.35 L5.3 -62.45" fill="#fbdd64" fill-rule="evenodd" stroke="none"/>
    <path d="M65.35 10.8 L42.65 19.95 42.1 16.9 65.75 7.65 65.6 9.25 65.35 10.8" fill="#d79d13" fill-rule="evenodd" stroke="none"/>
    <path d="M65.95 10.95 L65.85 11.25 57.45 14.65 42.85 20.55 42.2 20.8 41.5 17.1 42.65 16.65 43.1 19.15 57.0 13.55 64.85 10.35 65.15 7.9 66.3 7.45 66.3 7.5 66.2 9.2 65.95 10.95" fill="#a17408" fill-rule="evenodd" stroke="none"/>
    <path d="M-60.05 -28.75 L-60.9 -27.7 -61.7 -24.7 Q-62.25 -21.6 -62.1 -19.45 -61.95 -17.25 -61.3 -16.1 -60.85 -15.3 -60.3 -15.6 -59.7 -16.0 -59.35 -17.65 L-58.8 -16.15 Q-59.4 -13.95 -60.15 -13.55 -60.85 -13.15 -61.6 -14.4 -62.3 -15.65 -62.55 -17.1 L-62.8 -21.0 -62.3 -25.75 -61.3 -29.4 Q-60.65 -30.65 -60.05 -30.65 -59.45 -30.7 -58.85 -29.75 -58.25 -28.6 -57.95 -26.75 -57.7 -25.1 -57.85 -22.4 L-58.5 -22.95 Q-58.25 -26.6 -59.15 -28.05 -59.6 -28.8 -60.05 -28.75" fill="#fbc01a" fill-rule="evenodd" stroke="none"/>
    <path d="M-57.2 -16.65 Q-57.65 -13.7 -57.45 -11.55 -57.2 -9.1 -56.6 -8.1 -55.9 -6.95 -55.25 -7.8 -54.55 -8.6 -54.1 -11.65 -53.75 -13.45 -53.75 -15.55 L-54.0 -18.35 Q-54.25 -19.7 -54.65 -20.35 -55.3 -21.4 -56.0 -20.7 -56.65 -19.85 -57.2 -16.65 M-53.1 -15.3 Q-53.1 -12.85 -53.45 -10.55 -53.95 -7.25 -54.85 -5.95 -55.9 -4.7 -56.85 -6.35 -57.85 -8.1 -58.1 -11.55 -58.3 -14.6 -57.8 -17.7 -57.2 -21.5 -56.2 -22.6 -55.3 -23.65 -54.35 -22.1 -53.75 -20.95 -53.45 -19.35 -53.1 -17.75 -53.1 -15.3" fill="#fbc01a" fill-rule="evenodd" stroke="none"/>
    <path d="M-50.7 -15.5 L-51.35 -0.1 -48.15 -11.2 -47.35 -9.85 -49.5 5.85 -50.1 4.85 -48.3 -8.25 -51.4 2.55 -51.95 1.65 -51.35 -13.75 -53.3 -0.6 -53.9 -1.6 -51.6 -17.0 -50.7 -15.5" fill="#fbc01a" fill-rule="evenodd" stroke="none"/>
    <path d="M-46.1 -5.4 L-46.85 0.25 -45.65 2.2 Q-45.1 3.2 -44.8 2.85 -44.5 2.65 -44.25 1.1 L-44.2 -0.7 Q-44.2 -1.6 -44.35 -2.15 L-44.95 -3.45 -46.1 -5.4 M-43.55 -1.1 Q-43.4 0.35 -43.65 2.05 -43.85 4.1 -44.45 4.95 -45.0 5.65 -45.95 4.1 L-47.1 2.1 -47.9 8.55 -48.55 7.5 -46.45 -8.25 -44.8 -5.45 -43.95 -3.65 Q-43.6 -2.5 -43.55 -1.1" fill="#fbc01a" fill-rule="evenodd" stroke="none"/>
    <path d="M-40.25 12.7 L-42.75 8.45 -43.4 13.95 -40.6 18.7 -40.8 20.6 -44.25 14.8 -42.3 -1.25 -39.15 4.2 -39.35 6.1 -41.95 1.65 -42.55 6.55 -40.05 10.8 -40.25 12.7" fill="#fbc01a" fill-rule="evenodd" stroke="none"/>
    <path d="M-38.8 24.05 L-37.3 9.6 -38.75 7.1 -38.55 5.2 -35.05 11.15 -35.25 13.1 -36.7 10.6 -38.2 25.1 -38.8 24.05" fill="#fbc01a" fill-rule="evenodd" stroke="none"/>
    <path d="M-35.95 28.9 L-34.35 12.3 -33.75 13.3 -35.35 29.95 -35.95 28.9" fill="#fbc01a" fill-rule="evenodd" stroke="none"/>
    <path d="M-33.1 33.75 L-31.8 18.95 -33.25 16.45 -33.05 14.5 -29.55 20.45 -29.75 22.45 -31.2 19.95 -32.5 34.8 -33.1 33.75" fill="#fbc01a" fill-rule="evenodd" stroke="none"/>
    <path d="M-27.1 24.3 Q-26.5 25.4 -26.15 27.15 -25.75 28.75 -25.6 31.5 -25.45 34.2 -25.65 36.8 -25.95 40.7 -26.65 42.1 -27.45 43.65 -28.5 41.95 -29.55 40.1 -29.9 36.5 -30.25 33.25 -29.95 29.7 -29.65 25.35 -28.8 24.05 -28.0 22.7 -27.1 24.3 M-29.35 30.75 Q-29.65 33.7 -29.3 36.4 -29.0 38.85 -28.35 40.0 -27.65 41.15 -27.1 40.15 -26.55 39.25 -26.25 35.7 -26.1 33.7 -26.2 31.35 -26.3 29.55 -26.55 28.35 -26.85 27.0 -27.25 26.25 -27.9 25.15 -28.5 26.1 -29.05 27.2 -29.35 30.75" fill="#fbc01a" fill-rule="evenodd" stroke="none"/>
    <path d="M-23.85 32.35 L-24.25 38.05 -22.95 40.25 -22.3 41.0 Q-22.05 41.1 -21.9 40.55 L-21.65 39.2 Q-21.55 37.85 -21.8 36.7 -21.95 35.65 -22.45 34.7 L-23.85 32.35 M-21.45 34.8 Q-21.15 36.05 -21.1 37.25 -20.95 38.5 -21.05 40.2 -21.2 42.25 -21.6 42.85 L-22.6 42.8 -22.3 44.45 -21.45 53.6 -22.2 52.3 -22.95 43.85 -23.25 42.25 -24.35 40.05 -24.9 47.75 -25.5 46.7 -24.3 29.45 -22.35 32.75 Q-21.75 33.75 -21.45 34.8" fill="#fbc01a" fill-rule="evenodd" stroke="none"/>
  </g>
</svg>
