<?xml version="1.0" encoding="UTF-8" standalone="no"?>
<svg xmlns:ffdec="https://www.free-decompiler.com/flash" xmlns:xlink="http://www.w3.org/1999/xlink" ffdec:objectType="shape" height="211.5px" width="373.3px" xmlns="http://www.w3.org/2000/svg">
  <g transform="matrix(1.0, 0.0, 0.0, 1.0, 0.75, 0.75)">
    <path d="M369.8 10.5 L369.8 199.55 Q369.8 203.1 367.35 205.55 364.9 208.0 361.35 208.0 L10.5 208.0 Q6.95 208.0 4.5 205.55 2.0 203.05 2.0 199.55 L2.0 10.5 Q2.0 7.0 4.5 4.5 7.0 2.0 10.5 2.0 L361.35 2.0 Q364.85 2.0 367.35 4.5 369.8 6.95 369.8 10.5 Z" fill="none" stroke="#86cbfd" stroke-linecap="butt" stroke-linejoin="miter-clip" stroke-miterlimit="4.0" stroke-width="1.5"/>
    <path d="M371.8 8.5 L371.8 201.55 Q371.8 205.1 369.35 207.55 366.9 210.0 363.35 210.0 L8.5 210.0 Q4.95 210.0 2.5 207.55 0.0 205.05 0.0 201.55 L0.0 8.5 Q0.0 5.0 2.5 2.5 5.0 0.0 8.5 0.0 L363.35 0.0 Q366.85 0.0 369.35 2.5 371.8 4.95 371.8 8.5 Z" fill="none" stroke="#234da9" stroke-linecap="butt" stroke-linejoin="miter-clip" stroke-miterlimit="4.0" stroke-width="1.5"/>
  </g>
</svg>
