<?xml version="1.0" encoding="UTF-8" standalone="no"?>
<svg xmlns:ffdec="https://www.free-decompiler.com/flash" xmlns:xlink="http://www.w3.org/1999/xlink" ffdec:objectType="shape" height="31.9px" width="45.5px" xmlns="http://www.w3.org/2000/svg">
  <g transform="matrix(1.0, 0.0, 0.0, 1.0, -131.15, -49.3)">
    <path d="M151.7 70.05 Q155.2 71.95 155.2 74.7 155.2 77.45 151.7 79.3 148.2 81.2 143.15 81.2 138.1 81.2 134.6 79.3 131.15 77.45 131.15 74.7 131.15 71.95 134.6 70.05 138.1 68.15 143.15 68.15 148.2 68.15 151.7 70.05 M143.15 69.65 Q138.85 69.65 135.75 71.15 132.65 72.65 132.65 74.7 132.65 76.75 135.75 78.2 138.9 79.7 143.15 79.7 147.45 79.7 150.55 78.2 153.7 76.75 153.7 74.7 153.7 72.65 150.55 71.15 147.45 69.65 143.15 69.65" fill="#86cbfd" fill-rule="evenodd" stroke="none"/>
    <path d="M135.75 78.2 Q132.65 76.75 132.65 74.7 132.65 72.65 135.75 71.15 138.85 69.65 143.15 69.65 147.45 69.65 150.55 71.15 153.7 72.65 153.7 74.7 153.7 76.75 150.55 78.2 147.45 79.7 143.15 79.7 138.9 79.7 135.75 78.2" fill="#3285d7" fill-rule="evenodd" stroke="none"/>
    <path d="M172.2 51.65 Q176.65 54.0 176.65 57.4 176.65 60.8 172.2 63.1 167.75 65.45 161.25 65.45 154.75 65.45 150.3 63.1 145.8 60.8 145.8 57.4 145.8 54.0 150.3 51.65 154.75 49.3 161.25 49.3 167.75 49.3 172.2 51.65 M161.25 50.8 Q155.6 50.8 151.45 52.75 147.3 54.7 147.3 57.4 147.3 60.05 151.45 62.0 155.6 63.95 161.25 63.95 166.9 63.95 171.05 62.0 175.15 60.05 175.15 57.4 175.15 54.7 171.05 52.75 166.9 50.8 161.25 50.8" fill="#86cbfd" fill-rule="evenodd" stroke="none"/>
    <path d="M161.25 50.8 Q166.9 50.8 171.05 52.75 175.15 54.7 175.15 57.4 175.15 60.05 171.05 62.0 166.9 63.95 161.25 63.95 155.6 63.95 151.45 62.0 147.3 60.05 147.3 57.4 147.3 54.7 151.45 52.75 155.6 50.8 161.25 50.8" fill="#3285d7" fill-rule="evenodd" stroke="none"/>
  </g>
</svg>
