<?xml version="1.0" encoding="UTF-8" standalone="no"?>
<svg xmlns:ffdec="https://www.free-decompiler.com/flash" xmlns:xlink="http://www.w3.org/1999/xlink" ffdec:objectType="shape" height="48.0px" width="162.9px" xmlns="http://www.w3.org/2000/svg">
  <g transform="matrix(1.0, 0.0, 0.0, 1.0, 81.45, 24.0)">
    <path d="M-42.8 17.7 Q-47.75 19.5 -60.4 21.7 L-72.0 23.5 -68.05 11.25 -80.25 4.95 -57.0 -4.35 -46.9 5.6 Q-37.85 15.9 -42.8 17.7" fill="#ffc31a" fill-rule="evenodd" stroke="none"/>
    <path d="M-42.8 17.7 Q-47.75 19.5 -60.4 21.7 L-72.0 23.5 -68.05 11.25 -80.25 4.95 -57.0 -4.35 -46.9 5.6 Q-37.85 15.9 -42.8 17.7 Z" fill="none" stroke="#dba112" stroke-linecap="butt" stroke-linejoin="miter-clip" stroke-miterlimit="4.0" stroke-width="1.0"/>
    <path d="M-59.0 -6.65 L-58.8 -16.0 -49.95 -10.75 Q-46.25 -3.95 -43.5 4.9 -41.8 10.45 -41.55 14.05 -41.45 15.85 -41.7 16.5 -42.15 16.1 -48.2 15.15 L-57.0 14.4 Q-58.0 14.5 -57.9 14.1 L-57.15 12.75 Q-55.5 9.9 -56.95 7.05 -58.8 3.4 -59.0 -6.65" fill="#ffc31a" fill-rule="evenodd" stroke="none"/>
    <path d="M-59.0 -6.65 Q-58.8 3.4 -56.95 7.05 -55.5 9.9 -57.15 12.75 L-57.9 14.1 Q-58.0 14.5 -57.0 14.4 L-48.2 15.15 Q-42.15 16.1 -41.7 16.5 -41.45 15.85 -41.55 14.05 -41.8 10.45 -43.5 4.9 -46.25 -3.95 -49.95 -10.75 L-58.8 -16.0 -59.0 -6.65 Z" fill="none" stroke="#dba112" stroke-linecap="butt" stroke-linejoin="miter-clip" stroke-miterlimit="4.0" stroke-width="1.0"/>
    <path d="M42.8 16.7 Q37.85 14.9 46.9 4.6 51.45 -0.55 57.0 -5.35 L80.25 3.95 68.05 10.25 72.05 22.5 60.4 20.7 Q47.75 18.5 42.8 16.7" fill="#ffc31a" fill-rule="evenodd" stroke="none"/>
    <path d="M42.8 16.7 Q47.75 18.5 60.4 20.7 L72.05 22.5 68.05 10.25 80.25 3.95 57.0 -5.35 Q51.45 -0.55 46.9 4.6 37.85 14.9 42.8 16.7 Z" fill="none" stroke="#dba112" stroke-linecap="butt" stroke-linejoin="miter-clip" stroke-miterlimit="4.0" stroke-width="1.0"/>
    <path d="M59.0 -7.65 Q58.8 2.4 56.95 6.05 55.5 8.9 57.15 11.75 L57.9 13.1 Q58.0 13.5 57.0 13.4 L48.2 14.15 Q42.15 15.1 41.7 15.5 41.5 14.85 41.6 13.05 41.8 9.45 43.5 3.9 45.2 -1.65 47.75 -7.25 L49.95 -11.75 58.8 -17.0 Q59.1 -12.7 59.0 -7.65" fill="#ffc31a" fill-rule="evenodd" stroke="none"/>
    <path d="M59.0 -7.65 Q58.8 2.4 56.95 6.05 55.5 8.9 57.15 11.75 L57.9 13.1 Q58.0 13.5 57.0 13.4 L48.2 14.15 Q42.15 15.1 41.7 15.5 41.5 14.85 41.6 13.05 41.8 9.45 43.5 3.9 45.2 -1.65 47.75 -7.25 L49.95 -11.75 58.8 -17.0 Q59.1 -12.7 59.0 -7.65 Z" fill="none" stroke="#dba112" stroke-linecap="butt" stroke-linejoin="miter-clip" stroke-miterlimit="4.0" stroke-width="1.0"/>
    <path d="M48.25 -20.05 Q58.75 -18.3 63.85 -16.6 L57.85 13.05 Q56.25 8.85 35.5 6.95 L0.05 5.6 Q-18.0 5.6 -35.45 7.95 -56.1 10.75 -57.75 15.05 L-60.8 -15.7 Q-56.45 -17.65 -46.65 -19.6 -27.1 -23.45 0.0 -23.5 L0.1 -23.5 Q27.2 -23.45 48.25 -20.05" fill="#ffc31a" fill-rule="evenodd" stroke="none"/>
    <path d="M48.25 -20.05 Q27.2 -23.45 0.1 -23.5 L0.0 -23.5 Q-27.1 -23.45 -46.65 -19.6 -56.45 -17.65 -60.8 -15.7 L-57.75 15.05 Q-56.1 10.75 -35.45 7.95 -18.0 5.6 0.05 5.6 L35.5 6.95 Q56.25 8.85 57.85 13.05 L63.85 -16.6 Q58.75 -18.3 48.25 -20.05 Z" fill="none" stroke="#dba112" stroke-linecap="butt" stroke-linejoin="miter-clip" stroke-miterlimit="4.0" stroke-width="1.0"/>
  </g>
</svg>
