<?xml version="1.0" encoding="UTF-8" standalone="no"?>
<svg xmlns:ffdec="https://www.free-decompiler.com/flash" xmlns:xlink="http://www.w3.org/1999/xlink" ffdec:objectType="shape" height="115.4px" width="115.4px" xmlns="http://www.w3.org/2000/svg">
  <g transform="matrix(1.0, 0.0, 0.0, 1.0, 55.85, 59.65)">
    <path d="M58.05 -1.95 Q58.05 21.3 41.6 37.75 25.15 54.2 1.85 54.2 -21.45 54.2 -37.9 37.75 -54.35 21.3 -54.35 -1.95 -54.35 -25.25 -37.9 -41.7 -21.45 -58.15 1.85 -58.15 25.15 -58.15 41.6 -41.7 58.05 -25.25 58.05 -1.95" fill="#ffc200" fill-rule="evenodd" stroke="none"/>
    <path d="M41.6 37.75 Q58.05 21.3 58.05 -1.95 58.05 -25.25 41.6 -41.7 25.15 -58.15 1.85 -58.15 -21.45 -58.15 -37.9 -41.7 -54.35 -25.25 -54.35 -1.95 -54.35 21.3 -37.9 37.75 -21.45 54.2 1.85 54.2 25.15 54.2 41.6 37.75 M59.55 -1.95 Q59.55 21.9 42.65 38.85 25.7 55.75 1.85 55.75 -22.0 55.75 -38.9 38.85 -55.85 21.9 -55.85 -1.95 -55.85 -25.8 -38.9 -42.7 -22.0 -59.65 1.85 -59.65 25.7 -59.65 42.65 -42.7 59.55 -25.8 59.55 -1.95" fill="#8c680b" fill-rule="evenodd" stroke="none"/>
    <path d="M50.75 -1.85 Q50.75 18.45 36.4 32.8 22.05 47.15 1.75 47.15 -18.55 47.15 -32.9 32.8 -47.25 18.45 -47.25 -1.85 -47.25 -22.15 -32.9 -36.5 -18.55 -50.85 1.75 -50.85 22.05 -50.85 36.4 -36.5 50.75 -22.15 50.75 -1.85" fill="#ebb200" fill-rule="evenodd" stroke="none"/>
    <path d="M51.35 -17.3 Q45.7 -36.1 29.0 -46.35 12.3 -56.6 -7.0 -53.1 -26.15 -49.6 -38.2 -34.45 -37.7 -38.55 -36.45 -42.7 -22.85 -55.65 -4.15 -57.8 14.9 -60.0 31.25 -50.0 47.6 -40.0 54.25 -22.0 60.85 -4.35 55.45 13.6 52.4 16.6 48.85 19.0 56.9 1.35 51.35 -17.3" fill="url(#gradient0)" fill-rule="evenodd" stroke="none"/>
    <path d="M41.95 27.9 Q41.4 31.75 40.1 36.1 26.65 49.15 8.35 51.55 -10.3 54.0 -26.1 44.3 -41.9 34.6 -48.15 16.9 -54.35 -0.5 -48.8 -18.4 -45.65 -21.45 -42.3 -23.8 -50.45 -6.2 -45.25 12.2 -40.05 30.75 -23.85 40.65 -7.7 50.55 11.2 46.8 29.9 43.1 41.95 27.9" fill="url(#gradient1)" fill-rule="evenodd" stroke="none"/>
    <path d="M50.0 -1.85 Q50.0 -21.8 35.85 -35.95 21.75 -50.1 1.75 -50.1 -18.2 -50.1 -32.35 -35.95 -46.5 -21.8 -46.5 -1.85 -46.5 18.1 -32.35 32.25 -18.2 46.4 1.75 46.4 21.75 46.4 35.85 32.25 50.0 18.1 50.0 -1.85 M36.4 32.8 Q22.05 47.15 1.75 47.15 -18.55 47.15 -32.9 32.8 -47.25 18.45 -47.25 -1.85 -47.25 -22.15 -32.9 -36.5 -18.55 -50.85 1.75 -50.85 22.05 -50.85 36.4 -36.5 50.75 -22.15 50.75 -1.85 50.75 18.45 36.4 32.8" fill="#bf8e0f" fill-rule="evenodd" stroke="none"/>
  </g>
  <defs>
    <linearGradient gradientTransform="matrix(-0.0061, 0.0099, 0.0099, 0.0061, 29.0, -46.05)" gradientUnits="userSpaceOnUse" id="gradient0" spreadMethod="pad" x1="-819.2" x2="819.2">
      <stop offset="0.0" stop-color="#ffffff"/>
      <stop offset="1.0" stop-color="#ffffff" stop-opacity="0.0"/>
    </linearGradient>
    <linearGradient gradientTransform="matrix(0.0061, -0.0099, -0.0095, -0.0059, -23.85, 40.4)" gradientUnits="userSpaceOnUse" id="gradient1" spreadMethod="pad" x1="-819.2" x2="819.2">
      <stop offset="0.0" stop-color="#ffffff"/>
      <stop offset="1.0" stop-color="#ffffff" stop-opacity="0.0"/>
    </linearGradient>
  </defs>
</svg>
