<?xml version="1.0" encoding="UTF-8" standalone="no"?>
<svg xmlns:ffdec="https://www.free-decompiler.com/flash" xmlns:xlink="http://www.w3.org/1999/xlink" ffdec:objectType="shape" height="92.35px" width="91.6px" xmlns="http://www.w3.org/2000/svg">
  <g transform="matrix(1.0, 0.0, 0.0, 1.0, 46.3, 45.65)">
    <path d="M-35.8 -21.95 L-35.85 -21.85 -35.3 -21.5 -35.15 -21.35 -35.15 -21.45 -35.25 -21.7 -35.6 -22.05 -35.65 -22.05 -35.8 -21.95 M-31.35 -23.3 L-31.3 -23.35 -31.35 -23.35 -31.75 -23.7 -31.75 -23.75 -31.8 -23.75 -31.85 -23.8 -31.65 -23.1 -31.5 -23.2 -31.45 -23.3 -31.35 -23.3 M-24.65 -26.95 L-24.35 -26.75 Q-23.3 -25.7 -24.35 -24.6 L-25.75 -23.15 -25.85 -23.0 -26.05 -22.85 -26.15 -22.7 -26.25 -22.65 -26.35 -22.55 -26.5 -22.35 -26.7 -22.15 -26.9 -22.0 -27.0 -21.85 -27.25 -21.55 Q-27.65 -21.15 -28.05 -21.1 -28.1 -20.65 -28.3 -20.3 -28.9 -19.4 -29.9 -19.2 -30.45 -19.0 -31.15 -18.9 L-30.95 -18.8 -30.35 -17.95 Q-30.2 -17.4 -30.55 -16.9 L-30.75 -16.65 -30.8 -16.55 -30.85 -16.55 -30.9 -16.5 -30.95 -16.35 -31.4 -15.6 -31.75 -15.25 -31.9 -14.8 -31.95 -14.55 -32.1 -14.1 -32.6 -13.15 Q-33.05 -12.7 -33.85 -12.7 L-34.25 -12.7 -34.5 -12.05 -34.55 -11.85 -34.55 -11.8 -34.45 -11.75 Q-33.95 -11.5 -33.8 -11.0 -33.55 -10.5 -33.8 -9.8 L-33.95 -9.5 -34.35 -8.5 -34.35 -8.0 -34.4 -7.85 -34.4 -7.8 -34.45 -7.7 -34.45 -7.55 -34.55 -6.95 -34.55 -6.8 -34.6 -6.65 -34.6 -6.6 -34.65 -6.55 -34.65 -6.4 -34.95 -4.65 -35.0 -4.6 -35.05 -4.15 -35.1 -4.05 -35.25 -3.25 Q-35.3 -2.6 -35.75 -2.3 -36.15 -1.95 -36.8 -1.95 L-37.1 -1.95 -37.35 -2.0 -37.45 -2.05 -37.6 -2.05 -38.1 -2.15 -38.35 -2.15 -39.7 -2.4 -39.8 -2.45 -40.0 -2.45 -40.35 -2.5 -40.5 -2.55 -42.0 -2.8 -42.15 -2.85 -42.25 -2.9 -42.45 -2.9 -42.8 -2.95 -43.4 -3.1 -44.7 -3.3 -45.65 -3.65 Q-46.4 -4.25 -46.25 -5.1 L-46.2 -5.45 -46.15 -5.6 -45.85 -7.4 -45.8 -7.55 -45.75 -7.85 -45.75 -8.0 -45.5 -9.1 -45.5 -9.35 -45.45 -9.65 Q-45.2 -10.85 -44.1 -10.85 L-43.55 -10.75 -43.4 -10.75 -42.8 -10.65 Q-42.25 -10.55 -41.95 -10.15 L-41.65 -9.8 Q-41.15 -10.2 -40.65 -10.2 L-40.35 -10.2 -39.55 -10.0 -40.45 -10.7 -40.6 -10.8 -40.7 -10.85 -41.75 -11.55 -41.7 -11.5 -41.8 -11.55 -42.25 -11.95 -42.3 -11.95 -42.35 -12.0 -42.45 -12.05 Q-44.45 -13.2 -43.8 -14.8 L-43.25 -16.2 -43.25 -16.25 Q-43.0 -17.2 -42.25 -17.65 L-41.25 -17.95 -40.55 -17.85 -40.15 -17.85 -39.85 -17.8 -39.8 -17.8 -39.25 -17.7 -38.95 -17.7 -38.9 -17.65 -38.1 -17.55 -38.0 -17.55 -37.8 -17.5 -36.95 -17.4 -36.9 -17.4 -36.75 -17.35 -36.5 -17.35 -36.65 -17.45 -36.85 -17.55 -39.95 -19.6 Q-40.75 -20.15 -40.9 -20.75 L-40.65 -21.9 -40.5 -22.1 -40.45 -22.15 -40.4 -22.3 -39.95 -22.9 -39.25 -24.1 -38.05 -25.45 -37.85 -25.55 -37.45 -25.85 -37.35 -25.9 -37.3 -25.9 -36.4 -26.25 -36.2 -26.25 -35.85 -26.3 -35.5 -26.3 -34.1 -25.95 -34.15 -26.0 -34.25 -26.05 -34.25 -26.1 -34.45 -26.25 -35.1 -26.9 -35.35 -27.1 Q-35.8 -27.45 -35.8 -28.15 L-35.45 -29.1 -34.85 -29.7 -34.75 -29.85 -34.7 -29.9 -34.65 -29.9 -34.6 -30.0 -34.5 -30.15 Q-34.05 -30.6 -33.4 -30.6 -32.9 -30.6 -32.4 -30.2 L-32.2 -29.95 -31.5 -29.25 -31.45 -29.25 -31.45 -29.2 -30.6 -28.4 -30.4 -28.25 -28.85 -26.7 -28.4 -26.35 -28.2 -26.55 -28.1 -26.7 -27.45 -27.35 -27.25 -27.6 Q-26.8 -28.05 -26.25 -28.05 -25.7 -28.05 -25.25 -27.6 L-24.65 -26.95 M-23.2 -36.8 L-23.1 -36.35 -23.1 -36.2 -23.05 -36.15 -23.05 -36.05 -22.65 -34.1 -22.65 -33.7 -22.55 -33.45 -22.5 -33.1 -22.45 -33.05 -22.45 -32.75 -22.4 -32.7 -22.4 -32.6 -22.35 -32.4 -22.35 -32.25 -22.3 -32.2 -22.3 -31.95 -22.05 -31.1 -22.0 -31.05 -21.65 -30.6 -21.55 -30.4 -21.45 -30.3 -20.9 -29.6 -20.8 -29.5 -20.65 -29.3 Q-20.25 -28.85 -20.35 -28.2 -20.45 -27.6 -20.9 -27.3 L-21.15 -27.15 -21.3 -27.0 -21.7 -26.75 -21.85 -26.6 -22.1 -26.4 Q-22.45 -26.15 -22.9 -26.15 -23.75 -26.15 -24.1 -26.7 L-24.35 -27.1 -24.4 -27.15 -24.75 -27.65 -24.85 -27.75 -24.9 -27.85 -24.95 -27.9 -25.65 -28.7 -25.8 -28.8 -25.85 -28.85 -26.75 -29.3 -26.95 -29.45 -27.3 -29.6 -27.35 -29.6 -27.35 -29.65 -27.65 -29.8 -27.8 -29.85 -29.85 -30.9 -29.9 -30.95 -30.55 -31.25 -30.65 -31.25 -30.7 -31.3 -30.9 -31.4 -31.4 -31.85 -31.65 -32.75 Q-31.55 -33.35 -31.1 -33.65 L-30.9 -33.8 -30.8 -33.85 -30.65 -34.0 -30.35 -34.2 -30.2 -34.35 -30.05 -34.45 -29.9 -34.6 -29.25 -34.9 -28.85 -34.95 -28.05 -34.7 -26.95 -34.15 -26.95 -34.3 -27.05 -34.8 -27.1 -34.9 -27.25 -35.8 -27.25 -35.95 -26.9 -36.7 -26.6 -37.05 -26.45 -37.1 -26.4 -37.15 -25.75 -37.6 -25.4 -37.95 -24.5 -38.3 Q-23.95 -38.3 -23.6 -37.85 L-23.2 -36.85 -23.2 -36.8 M-14.65 -38.8 L-14.7 -38.8 -14.8 -38.75 -14.6 -38.1 -14.5 -37.9 -14.45 -37.85 -14.45 -37.8 -13.8 -38.05 -13.7 -38.15 -13.7 -38.2 -13.65 -38.2 -13.65 -38.3 -13.7 -38.7 -13.85 -38.85 -14.0 -38.95 -14.65 -38.8 M-2.3 -34.3 L-2.2 -34.35 -2.35 -34.25 -2.3 -34.3 -3.2 -33.8 -3.65 -33.7 -3.7 -33.65 -3.85 -33.6 -4.4 -33.5 -5.6 -33.45 -6.05 -33.5 -6.45 -33.6 -6.55 -33.6 -6.7 -33.65 -6.75 -33.65 -7.35 -33.85 -7.65 -34.05 -7.7 -34.1 -7.75 -34.1 -9.05 -35.1 -9.55 -35.75 -9.7 -35.9 -9.85 -36.1 -9.85 -36.2 -10.0 -36.4 -10.35 -35.8 Q-10.85 -35.1 -11.95 -34.55 L-12.0 -34.55 -12.65 -34.25 -13.25 -34.1 -13.15 -34.0 -13.0 -33.5 -12.9 -33.3 Q-12.35 -31.7 -14.15 -31.15 L-14.75 -30.95 -15.05 -30.8 -15.45 -30.75 Q-16.4 -30.75 -16.85 -31.8 L-17.2 -33.0 -17.3 -33.2 -17.5 -33.75 -17.55 -33.95 -18.3 -36.15 -18.3 -36.3 -18.4 -36.5 -18.45 -36.7 -18.5 -36.8 -18.55 -36.95 -18.7 -37.25 -18.9 -37.85 -18.9 -37.95 -19.0 -38.15 -19.4 -39.15 Q-19.8 -40.15 -19.15 -40.95 L-19.1 -40.95 -19.1 -41.0 -18.35 -41.5 -18.25 -41.5 -18.1 -41.6 -17.6 -41.75 -17.5 -41.8 -17.35 -41.85 -17.05 -42.0 -16.15 -42.35 -15.9 -42.4 -15.7 -42.5 -15.65 -42.5 -13.9 -42.8 -13.85 -42.8 -12.9 -42.7 -12.15 -42.5 Q-10.95 -42.0 -10.35 -41.05 L-10.3 -40.85 -10.0 -41.55 -10.0 -41.6 -9.95 -41.75 -9.5 -42.5 -9.5 -42.55 -9.45 -42.55 -9.45 -42.65 -8.9 -43.3 -8.7 -43.5 -7.95 -44.05 -7.7 -44.15 -7.65 -44.2 -7.6 -44.2 -7.55 -44.25 -7.25 -44.4 -5.85 -44.75 -5.25 -44.75 -5.0 -44.7 -4.1 -44.65 -4.05 -44.6 -3.0 -44.25 -2.05 -43.6 -1.8 -43.4 -1.65 -43.25 -1.55 -43.2 -1.5 -43.1 -1.0 -42.5 -0.55 -41.75 -0.2 -40.75 -0.2 -41.3 -0.1 -41.85 -0.1 -42.0 -0.05 -42.2 0.0 -43.3 Q0.1 -44.4 1.0 -44.8 L1.1 -44.8 1.7 -44.95 2.0 -44.9 3.85 -44.75 4.35 -44.75 4.8 -44.65 4.85 -44.65 6.55 -44.15 7.4 -43.65 7.95 -43.15 Q8.35 -43.9 9.2 -43.9 L9.7 -43.85 10.05 -43.7 11.05 -43.45 11.35 -43.3 12.5 -43.0 12.55 -42.95 12.65 -42.95 12.9 -42.9 13.05 -42.85 13.1 -42.8 13.2 -42.8 13.45 -42.75 13.8 -42.6 13.85 -42.6 14.35 -42.45 14.5 -42.35 14.55 -42.35 14.9 -42.3 15.4 -42.05 15.95 -41.15 Q16.3 -41.5 16.85 -41.5 L17.55 -41.3 17.8 -41.2 17.85 -41.15 19.05 -40.55 19.2 -40.45 19.45 -40.35 20.75 -39.65 21.4 -39.1 21.45 -39.0 21.5 -38.95 21.8 -38.55 21.95 -38.4 22.35 -37.55 22.4 -37.45 22.4 -37.35 22.5 -36.7 Q22.65 -35.95 22.25 -35.05 L22.15 -34.9 22.15 -34.85 22.3 -34.95 22.95 -35.3 23.25 -35.4 23.3 -35.4 23.4 -35.45 23.9 -35.65 24.25 -35.7 24.4 -35.7 24.8 -35.8 25.55 -35.8 26.45 -35.65 26.7 -35.55 26.75 -35.5 26.9 -35.5 28.4 -34.65 29.55 -33.3 29.55 -33.25 29.6 -33.25 29.65 -33.05 30.05 -32.25 30.25 -31.1 30.3 -30.8 30.3 -30.35 30.2 -29.6 30.05 -29.1 30.05 -29.0 30.2 -29.15 30.35 -29.25 31.0 -29.9 Q31.7 -30.35 32.15 -30.35 L32.8 -30.2 32.85 -30.2 33.6 -29.6 33.65 -29.55 33.75 -29.4 34.25 -28.85 34.45 -28.55 34.8 -28.2 35.25 -27.6 35.4 -27.45 35.4 -27.4 36.25 -25.9 36.5 -24.9 36.55 -24.1 36.25 -22.9 36.55 -23.1 37.45 -23.3 Q38.2 -23.3 38.55 -22.8 L38.55 -22.75 38.6 -22.7 38.7 -22.55 38.7 -22.5 39.2 -21.65 39.25 -21.6 39.35 -21.4 Q39.7 -20.85 39.4 -20.25 L38.7 -19.4 38.3 -19.2 37.95 -18.95 37.55 -18.75 38.65 -18.65 Q39.7 -18.4 40.35 -17.95 L41.2 -17.15 42.25 -15.4 42.55 -14.65 Q42.7 -13.55 41.55 -13.05 L41.1 -12.9 40.6 -12.65 39.9 -12.45 39.8 -12.45 39.7 -12.5 Q39.05 -12.65 38.7 -13.3 L38.6 -13.65 38.6 -13.75 38.55 -13.9 38.2 -14.3 37.95 -14.45 37.35 -14.55 36.7 -14.3 36.15 -13.9 35.6 -13.1 35.65 -12.6 35.7 -12.5 35.8 -12.4 35.95 -12.05 36.05 -11.35 36.9 -11.35 37.05 -11.3 37.15 -11.3 37.4 -11.35 37.9 -11.35 38.95 -11.3 40.75 -11.3 41.0 -11.25 41.25 -11.25 41.75 -11.3 Q43.6 -11.3 43.9 -9.7 L44.2 -8.3 44.25 -8.2 Q44.55 -7.4 44.2 -6.45 L43.15 -5.5 42.65 -5.25 42.55 -5.15 42.3 -5.0 42.2 -5.0 41.6 -4.7 41.55 -4.7 41.5 -4.65 41.4 -4.65 41.4 -4.6 40.55 -4.2 40.4 -4.15 39.65 -3.75 39.6 -3.75 39.4 -3.7 39.35 -3.7 39.2 -3.6 39.15 -3.55 39.1 -3.55 38.65 -3.3 38.35 -3.2 38.3 -3.2 38.1 -3.05 36.55 -2.35 36.4 -2.25 36.35 -2.25 36.05 -2.05 35.25 -1.85 Q34.25 -1.85 33.95 -3.15 L33.9 -3.4 33.75 -3.85 33.7 -5.05 Q33.85 -5.65 34.55 -6.05 L34.75 -6.15 34.8 -6.2 34.65 -6.9 34.55 -7.1 34.2 -7.1 Q33.85 -7.1 33.45 -7.35 32.95 -7.65 32.8 -8.4 L32.7 -9.0 32.7 -9.1 32.6 -9.4 32.55 -10.05 Q32.15 -10.35 32.0 -10.75 L31.85 -11.25 31.7 -11.5 31.7 -11.6 31.6 -11.95 31.45 -13.15 Q31.45 -13.7 31.6 -14.1 L31.6 -14.15 31.65 -14.35 32.0 -15.4 32.0 -15.45 32.05 -15.5 32.1 -15.6 32.0 -15.55 31.9 -15.45 31.6 -15.25 30.95 -15.1 Q30.15 -15.1 29.75 -15.8 L29.6 -16.0 29.6 -16.1 29.3 -16.5 29.15 -16.85 29.1 -16.85 29.0 -17.1 Q28.4 -18.1 29.25 -18.85 L31.4 -20.1 30.85 -20.25 Q30.0 -20.5 29.15 -21.3 L29.1 -21.35 29.05 -21.35 28.35 -22.25 28.25 -22.4 27.8 -21.95 27.6 -21.8 Q27.15 -21.35 26.6 -21.35 25.95 -21.35 25.15 -22.3 L24.95 -22.55 24.8 -22.8 24.55 -23.05 Q24.05 -23.7 24.55 -24.6 L24.15 -24.6 23.75 -24.7 23.7 -24.75 23.3 -24.8 23.35 -24.8 22.4 -25.1 22.2 -25.25 22.05 -25.3 22.0 -25.35 21.85 -25.4 20.7 -26.3 20.5 -26.6 20.25 -26.9 20.0 -27.3 19.95 -27.35 19.85 -27.5 19.6 -28.1 19.5 -28.45 19.5 -28.55 19.45 -28.6 19.3 -29.3 Q18.95 -28.7 18.1 -28.7 L17.35 -28.85 Q16.35 -29.35 16.1 -30.3 15.8 -30.8 15.65 -31.5 L15.55 -31.3 Q15.15 -30.55 14.35 -30.55 L13.75 -30.7 13.3 -30.95 13.25 -31.0 13.1 -31.05 12.35 -31.4 Q11.8 -31.7 11.65 -32.3 11.5 -32.8 11.75 -33.35 L11.95 -33.65 12.0 -33.7 12.05 -33.85 12.15 -34.0 13.2 -36.05 13.35 -36.45 13.5 -36.65 13.7 -37.05 13.8 -37.35 14.35 -38.35 14.15 -38.3 14.05 -38.3 14.0 -38.35 13.4 -38.45 13.2 -38.55 12.9 -37.7 12.85 -37.45 12.7 -37.05 12.65 -36.7 12.35 -35.55 12.15 -35.0 11.85 -33.85 11.7 -33.55 11.7 -33.4 11.6 -33.1 Q11.35 -32.15 10.25 -32.15 L9.65 -32.2 9.35 -32.3 9.25 -32.35 9.0 -32.4 8.75 -32.5 8.7 -32.55 8.45 -32.6 Q7.5 -32.75 7.5 -33.95 L7.6 -34.5 7.65 -34.6 8.3 -36.95 8.45 -37.25 8.5 -37.45 8.55 -37.55 8.6 -37.8 8.7 -38.1 8.75 -38.2 8.8 -38.35 8.95 -39.05 9.15 -39.6 9.15 -39.8 9.0 -39.85 8.95 -39.85 8.9 -39.55 8.4 -37.95 8.2 -37.7 8.1 -37.5 7.8 -37.2 7.7 -37.05 7.5 -36.85 7.45 -36.85 Q7.25 -36.65 6.65 -36.35 6.0 -35.95 4.7 -35.9 L4.65 -35.9 3.5 -36.0 3.35 -36.05 3.35 -35.9 3.3 -35.55 3.3 -35.15 Q3.1 -33.75 1.75 -33.75 L0.6 -33.9 0.25 -33.9 -0.7 -34.55 -0.9 -35.55 -0.9 -35.6 -1.65 -34.75 -2.0 -34.5 -2.05 -34.45 -2.3 -34.3 M-5.15 -40.55 L-5.65 -40.55 -5.8 -40.5 -5.85 -40.4 -6.1 -40.2 -6.2 -40.1 -6.4 -39.7 -6.4 -38.85 -6.25 -38.4 -6.0 -37.95 -5.65 -37.65 -5.55 -37.6 -5.4 -37.6 -5.35 -37.55 -5.2 -37.55 -5.05 -37.6 -4.8 -37.6 -4.45 -37.85 -4.2 -38.25 -4.15 -38.4 -4.1 -38.8 -4.1 -39.25 -4.15 -39.5 -4.15 -39.65 -4.4 -40.1 -4.75 -40.45 -5.15 -40.55 M4.85 -40.6 L4.75 -40.75 4.15 -40.9 3.95 -40.9 3.9 -39.95 3.85 -39.9 4.15 -39.85 4.6 -39.85 4.7 -39.9 4.75 -39.9 4.75 -39.95 4.85 -40.0 4.9 -40.35 4.85 -40.6 M32.55 -24.55 L32.55 -24.7 32.5 -24.9 32.25 -25.25 32.2 -25.3 32.15 -25.4 31.75 -25.1 31.6 -24.95 31.55 -24.95 31.55 -24.85 31.4 -24.75 31.55 -24.5 31.8 -24.2 31.95 -24.15 32.1 -24.15 32.45 -24.35 32.55 -24.55 M19.85 -32.4 L19.95 -32.5 19.8 -32.45 19.85 -32.4 M24.2 -31.3 L23.7 -30.75 23.65 -30.65 23.45 -30.0 23.45 -29.55 23.5 -29.45 23.6 -29.3 23.65 -29.25 23.65 -29.2 23.75 -29.15 23.9 -29.0 24.05 -28.9 24.45 -28.8 24.5 -28.8 24.95 -28.9 25.05 -29.0 25.4 -29.2 25.6 -29.4 25.85 -29.75 25.95 -29.85 25.95 -29.9 26.1 -30.3 26.1 -30.85 25.95 -31.2 25.6 -31.45 25.55 -31.55 25.4 -31.6 25.3 -31.6 25.0 -31.65 24.85 -31.65 24.45 -31.5 24.4 -31.45 24.2 -31.3 M18.05 -36.55 L17.65 -35.75 17.95 -35.9 18.25 -36.3 18.3 -36.35 18.2 -36.45 18.1 -36.5 18.05 -36.55" fill="#d4a000" fill-rule="evenodd" stroke="none"/>
    <path d="M-17.8 40.0 L-17.6 39.3 -18.05 39.45 -17.8 40.0 M-12.3 39.0 L-12.45 38.85 -12.6 38.6 -13.1 38.35 -13.15 38.55 -13.2 38.65 -13.85 40.75 -13.55 40.85 -13.45 40.9 -12.95 40.9 -12.35 40.1 -12.25 39.75 -12.25 39.65 -12.2 39.4 -12.2 39.35 -12.25 39.25 -12.3 39.0 M18.0 35.85 L17.7 35.7 17.55 35.65 17.2 35.65 16.8 35.85 16.75 35.95 16.7 35.95 16.7 36.0 16.55 36.25 16.55 36.3 16.5 36.35 16.5 36.8 16.6 37.15 16.85 37.6 17.35 38.1 17.7 38.2 17.95 38.2 18.0 38.15 18.1 38.15 18.25 38.05 18.3 38.05 18.4 37.95 18.6 37.65 18.7 37.25 18.7 37.15 18.55 36.55 18.45 36.45 18.35 36.25 18.25 36.1 18.0 35.85 M28.7 29.95 L28.9 30.15 29.75 31.2 29.8 31.3 29.9 31.45 30.05 31.55 30.25 31.8 30.65 32.2 Q31.0 32.6 31.0 33.2 30.9 33.8 30.45 34.2 L30.1 34.45 29.9 34.65 29.8 34.7 29.75 34.75 29.55 34.9 Q29.2 35.25 28.65 35.25 L27.75 35.0 27.55 34.95 27.45 34.9 26.15 34.45 26.2 34.5 26.45 34.85 26.5 34.85 26.9 35.25 Q27.55 36.0 26.95 36.95 L26.05 37.85 25.85 38.0 25.0 38.4 24.85 38.4 Q24.25 38.4 23.8 37.9 L23.8 37.85 23.4 37.4 23.2 37.1 23.0 36.9 22.95 36.8 22.75 36.6 22.6 36.4 22.7 36.85 22.65 38.1 22.2 39.5 21.15 40.85 20.95 41.0 20.85 41.05 20.65 41.25 20.2 41.55 19.15 41.95 18.35 42.15 18.1 42.15 17.7 42.2 17.5 42.2 17.15 42.15 17.1 42.1 17.05 42.1 15.65 41.7 14.95 41.3 14.85 41.2 14.75 41.2 14.55 41.05 14.55 41.0 14.5 40.95 14.5 41.05 14.8 41.95 15.0 42.35 14.95 43.4 14.1 44.1 13.9 44.15 13.85 44.15 13.65 44.2 13.15 44.4 13.05 44.4 12.8 44.5 12.35 44.6 Q11.8 44.6 11.35 44.15 11.25 45.15 10.15 45.3 L9.35 45.45 9.05 45.55 8.3 45.65 7.75 45.8 7.7 45.8 7.6 45.85 7.05 45.95 6.85 45.95 6.35 46.1 6.0 46.15 Q5.2 46.15 4.8 45.45 4.55 46.4 3.4 46.5 L2.9 46.5 2.6 46.55 1.55 46.55 1.4 46.6 0.8 46.6 0.55 46.65 -0.15 46.65 -0.5 46.7 -0.55 46.7 Q-1.4 46.7 -1.8 46.0 -2.15 46.7 -2.95 46.7 L-3.3 46.65 -3.6 46.65 -4.0 46.6 Q-5.45 46.5 -5.8 45.2 L-5.8 45.05 -6.4 44.95 -6.55 45.0 -6.6 45.05 -7.1 45.85 -7.9 46.15 -8.6 46.05 -8.9 46.05 -9.2 46.0 Q-9.85 46.0 -10.1 45.65 L-10.2 45.55 Q-10.6 45.05 -10.6 44.4 L-10.45 43.9 -11.3 44.45 -12.3 44.75 -12.75 44.75 -13.0 44.8 -13.15 44.8 -13.45 44.75 -13.6 44.75 -15.75 44.25 -17.1 43.8 -17.85 43.45 Q-18.55 42.95 -18.4 42.05 -18.8 42.7 -19.5 42.7 L-20.25 42.55 -20.4 42.4 -20.45 42.4 -20.5 42.35 -21.2 42.0 -21.35 41.95 -21.4 41.9 -23.0 41.05 -23.05 41.05 Q-23.4 40.85 -23.8 40.6 L-24.15 40.45 -24.9 39.65 Q-25.15 38.95 -24.8 38.35 L-24.45 37.65 -24.35 37.5 -24.3 37.3 -24.2 37.15 -24.25 37.2 -24.35 37.25 -25.0 38.1 -25.2 38.3 -25.25 38.4 Q-25.75 38.9 -26.3 38.9 -26.85 38.9 -27.4 38.5 L-27.8 38.1 -28.05 37.9 -28.15 37.85 -28.3 37.75 -28.75 36.9 Q-28.8 36.35 -28.45 35.9 L-28.35 35.85 -28.2 35.6 -28.0 35.4 -27.75 35.05 -27.7 35.0 Q-28.2 35.0 -28.55 34.65 L-28.95 34.15 -29.05 33.35 -29.1 33.45 -29.8 34.3 -29.9 34.4 -30.0 34.6 Q-30.45 35.05 -31.05 35.05 L-31.95 34.75 -32.2 34.5 -32.4 34.35 -32.4 34.3 -32.8 34.05 Q-33.5 33.5 -33.35 32.65 L-33.35 32.6 -33.3 32.55 -33.05 31.95 -32.55 31.45 -32.35 31.15 -32.0 30.8 -31.05 29.65 -30.8 29.25 -30.55 29.05 -30.45 28.9 -30.45 28.85 -30.15 28.55 -30.05 28.4 -29.85 28.2 -29.7 28.0 -29.6 27.95 -29.5 27.75 -29.3 27.55 -29.25 27.45 -29.15 27.35 -29.15 27.3 -28.9 27.05 -28.2 26.1 Q-27.75 25.6 -27.15 25.6 L-26.9 25.6 Q-26.4 25.7 -26.2 25.9 L-26.1 26.0 -25.85 26.15 -25.7 26.3 -25.4 26.5 Q-24.95 26.9 -24.85 27.35 L-24.95 28.4 -24.95 28.65 -25.0 29.15 -25.05 29.4 -25.05 29.65 -25.1 29.95 -25.1 30.4 -25.0 30.35 -24.85 30.3 -24.55 30.25 -24.5 30.2 -24.3 30.15 -24.0 30.0 -23.85 29.95 -23.2 29.65 -23.1 29.65 -23.05 29.6 -22.95 29.6 -22.55 29.45 -22.4 29.45 Q-21.9 29.45 -21.45 29.8 L-20.95 30.25 -20.75 30.35 -20.5 30.6 -20.2 31.0 -20.0 30.95 -19.3 31.15 -18.7 31.5 -18.3 31.65 -17.45 32.15 -16.65 32.5 -15.85 33.0 -15.6 33.1 -14.95 33.7 -14.9 33.7 -13.5 34.05 -13.4 34.1 -13.2 34.15 -13.15 34.15 -13.1 34.2 -12.2 34.4 -12.05 34.5 -11.95 34.5 -11.8 34.55 -11.6 34.65 -11.55 34.65 -11.45 34.7 Q-11.05 34.8 -10.7 35.05 L-10.6 35.15 -10.55 35.15 -10.3 35.35 -10.2 35.4 -10.1 35.5 -9.95 35.6 -9.8 35.75 -9.65 35.85 -9.65 35.9 -9.6 35.9 -9.15 36.5 Q-8.6 37.2 -8.4 38.0 L-8.4 37.95 -8.35 37.9 -8.35 37.8 Q-7.85 35.85 -6.4 35.85 L-6.1 35.85 -4.8 36.0 -4.7 36.0 Q-3.85 36.0 -3.15 36.6 -2.7 37.05 -2.6 37.85 L-2.5 38.35 -2.5 38.45 -2.45 38.75 -2.4 38.8 -2.4 38.05 -2.45 37.75 Q-2.45 37.1 -2.05 36.7 -1.65 36.3 -1.15 36.3 L-0.25 36.25 -0.15 36.2 0.25 36.2 Q0.8 36.2 1.2 36.6 1.6 36.95 1.65 37.55 L1.7 39.9 1.75 40.15 1.85 42.6 2.05 42.6 2.2 42.55 3.05 42.55 3.35 42.5 3.45 42.5 4.15 42.7 3.85 41.15 3.8 41.0 3.8 40.9 3.65 40.4 3.65 40.15 3.55 39.7 3.4 39.3 3.4 39.0 3.35 38.9 3.3 38.65 3.2 38.35 3.2 38.1 3.15 38.0 3.15 37.85 3.05 37.55 Q2.95 36.9 3.25 36.45 3.55 36.0 4.1 35.9 L4.85 35.75 5.0 35.7 5.15 35.7 5.2 35.65 5.4 35.6 5.7 35.6 Q6.9 35.6 7.05 36.75 L7.1 37.0 7.15 37.2 7.15 37.45 7.2 37.55 7.25 37.8 7.25 38.0 7.45 38.95 7.5 39.05 7.9 41.25 8.05 41.7 8.1 41.7 8.2 41.65 8.95 41.5 9.1 41.5 9.25 41.45 9.8 41.35 10.35 41.45 10.35 41.4 10.3 41.2 10.15 40.9 10.05 40.45 9.35 38.4 9.3 38.2 9.2 38.0 9.0 37.4 9.0 37.25 8.85 36.95 8.7 36.5 Q8.5 36.0 8.65 35.45 8.85 34.9 9.35 34.7 L9.4 34.65 9.45 34.65 9.6 34.6 9.65 34.6 10.3 34.35 10.5 34.3 10.6 34.25 10.75 34.2 11.2 34.15 11.9 34.35 12.55 35.15 12.65 35.5 12.65 35.55 12.7 35.35 12.7 35.3 12.75 35.2 12.8 34.9 13.1 34.2 13.55 33.5 13.85 33.2 14.05 32.95 15.15 32.15 16.7 31.65 17.8 31.65 18.75 31.85 18.65 31.6 Q18.25 30.75 19.0 30.15 L19.35 29.9 19.5 29.75 19.55 29.75 19.55 29.7 19.75 29.5 20.65 29.0 21.2 28.9 21.4 28.9 22.75 29.3 23.0 29.35 23.1 29.4 23.15 29.4 23.0 29.25 22.9 29.1 22.65 28.85 Q22.1 28.2 22.5 27.4 L22.5 27.35 22.55 27.35 23.0 26.9 23.25 26.65 23.6 26.4 23.9 26.1 Q24.3 25.8 24.7 25.8 25.4 25.8 25.85 26.4 L26.05 26.65 26.15 26.85 26.55 27.25 26.75 27.55 27.9 29.0 28.05 29.15 28.7 29.95" fill="#d4a000" fill-rule="evenodd" stroke="none"/>
    <path d="M-25.75 25.8 L-25.6 25.9 -25.55 25.95 -25.5 25.95 -25.5 26.0 -24.8 26.5 Q-24.55 26.7 -24.7 27.5 L-24.75 28.25 -24.8 28.5 -24.8 28.8 -24.9 30.2 -24.8 30.8 -24.3 30.8 -23.55 30.6 -22.9 30.35 -22.65 30.3 -21.4 29.75 -21.25 29.7 -20.85 29.8 -19.95 30.55 Q-19.65 30.85 -19.9 31.1 L-20.15 31.35 -23.65 35.65 -24.2 36.2 -24.55 36.7 -24.75 36.9 -24.8 37.0 -25.5 36.95 -26.4 36.2 Q-26.65 36.1 -26.4 35.75 L-25.6 34.75 -25.25 34.4 -25.05 34.1 -24.5 33.5 -24.4 33.3 Q-24.25 33.2 -24.4 33.05 L-25.05 33.0 -26.0 33.15 -26.7 33.1 -26.75 33.0 -26.8 32.6 -26.8 31.25 -26.9 30.55 -27.15 30.45 -27.55 30.75 -28.25 31.6 -28.65 32.0 -29.55 33.15 -30.1 33.2 -30.55 32.75 -30.75 32.6 -30.95 32.5 -31.1 32.05 -31.0 31.85 -28.3 28.55 -27.65 27.85 -27.15 27.15 -26.2 25.95 -25.75 25.8" fill="#ffd245" fill-rule="evenodd" stroke="none"/>
    <path d="M-26.95 25.3 Q-26.6 24.8 -25.9 24.8 L-25.65 24.8 Q-25.2 24.9 -24.95 25.15 L-24.85 25.2 -24.2 25.7 Q-23.5 26.3 -23.7 27.65 L-23.7 27.9 -23.75 28.4 -23.8 28.6 -23.8 28.85 -23.85 29.2 -23.85 29.6 -23.8 29.6 -23.35 29.45 -23.3 29.45 -22.6 29.2 -22.45 29.1 -21.95 28.9 -21.9 28.85 -21.85 28.85 -21.75 28.8 -21.7 28.8 -21.45 28.7 -21.2 28.7 Q-20.6 28.7 -20.25 29.0 L-19.75 29.4 -19.75 29.45 -19.3 29.8 Q-18.9 30.2 -18.85 30.75 -18.8 31.35 -19.15 31.75 L-19.25 31.85 -19.75 32.45 -19.8 32.5 -20.3 33.15 -20.55 33.4 -20.7 33.5 -21.35 34.4 -21.65 34.7 -21.9 35.1 -22.35 35.6 -22.6 35.95 -22.9 36.25 -23.0 36.4 -23.1 36.5 -23.45 36.8 -23.5 36.95 -23.75 37.3 -23.95 37.5 -24.05 37.65 Q-24.45 38.15 -25.1 38.15 L-26.15 37.7 -26.4 37.45 -26.8 37.15 -26.9 37.1 -27.05 36.95 -27.5 36.15 Q-27.55 35.6 -27.2 35.15 L-27.15 35.05 -26.95 34.85 -26.8 34.65 -26.6 34.45 -26.5 34.3 -26.45 34.25 -27.3 33.9 -27.7 33.4 -27.8 32.6 -27.9 32.65 -28.55 33.5 -28.65 33.6 -28.8 33.8 Q-29.2 34.3 -29.8 34.3 -30.35 34.3 -30.7 33.95 L-31.0 33.7 -31.2 33.5 -31.2 33.55 -31.6 33.25 Q-32.2 32.75 -32.1 31.9 L-32.1 31.8 -31.8 31.2 -31.55 30.95 -31.35 30.65 -31.2 30.5 -31.1 30.35 -29.85 28.85 -29.65 28.65 -29.35 28.25 -29.2 28.1 -29.1 27.95 -29.05 27.95 -28.9 27.75 -28.8 27.65 -28.75 27.55 -28.35 27.1 -28.25 26.95 -28.1 26.85 -28.05 26.8 -28.0 26.65 -27.9 26.55 -26.95 25.3 M-25.9 25.8 Q-26.05 25.8 -26.2 25.95 L-27.15 27.15 -27.65 27.85 -28.3 28.55 -31.0 31.85 -31.1 32.05 -30.95 32.5 -30.75 32.6 -30.55 32.75 -30.1 33.2 -29.8 33.3 -29.55 33.15 -28.65 32.0 -28.25 31.6 -27.55 30.75 -27.15 30.45 -27.1 30.45 -26.9 30.55 -26.8 31.25 -26.8 32.6 -26.75 33.0 -26.7 33.1 -26.4 33.25 -26.0 33.15 -24.7 32.95 Q-24.5 32.95 -24.4 33.05 -24.25 33.2 -24.4 33.3 L-24.5 33.5 -25.05 34.1 -25.25 34.4 -25.6 34.75 -26.4 35.75 Q-26.65 36.1 -26.4 36.2 L-25.5 36.95 -25.1 37.15 -24.8 37.0 -24.75 36.9 -24.55 36.7 -24.2 36.2 -23.65 35.65 -20.15 31.35 -19.9 31.1 Q-19.65 30.85 -19.95 30.55 L-20.85 29.8 -21.2 29.7 -21.25 29.7 -21.4 29.75 -22.65 30.3 -24.3 30.8 -24.65 30.85 -24.8 30.8 -24.9 30.2 -24.8 28.8 -24.8 28.5 -24.75 28.25 -24.7 27.5 Q-24.55 26.7 -24.8 26.5 L-25.5 26.0 -25.5 25.95 -25.55 25.95 -25.6 25.9 -25.75 25.8 -25.9 25.8" fill="#b07f00" fill-rule="evenodd" stroke="none"/>
    <path d="M-21.5 35.8 L-20.6 34.0 -20.4 33.75 -19.95 32.8 -19.6 32.3 -19.35 31.7 -19.1 31.3 -18.55 31.25 -14.8 33.2 Q-14.45 33.4 -14.65 33.75 L-14.85 34.1 -15.05 34.6 -15.3 34.8 -15.5 34.85 -15.8 34.75 -16.7 34.3 -16.95 34.1 -17.25 33.95 -17.9 33.7 -18.3 34.05 -18.5 34.6 -18.3 34.95 -17.95 35.2 -17.35 35.5 -16.9 35.8 -16.15 36.15 -16.15 36.6 -16.35 36.85 -16.55 37.3 -16.7 37.5 -17.35 37.65 -18.7 36.85 -19.15 36.65 -19.4 36.6 -19.8 36.95 -20.1 37.7 -19.45 38.3 -18.1 39.0 -17.85 39.1 -17.55 39.55 -17.7 40.05 -17.75 40.1 -17.85 40.45 -18.0 40.7 Q-18.15 41.1 -18.55 40.85 L-18.7 40.75 -19.15 40.55 -19.4 40.4 -19.65 40.3 -21.35 39.4 -21.8 39.1 -22.15 38.95 -22.45 38.75 -22.75 38.5 -22.7 38.0 -22.5 37.75 -22.35 37.35 -21.5 35.8" fill="#ffd245" fill-rule="evenodd" stroke="none"/>
    <path d="M-22.5 37.75 L-22.7 38.0 -22.75 38.5 -22.45 38.75 -22.15 38.95 -21.8 39.1 -21.35 39.4 -19.65 40.3 -19.4 40.4 -19.15 40.55 -18.7 40.75 -18.55 40.85 -18.3 40.95 -18.0 40.7 -17.85 40.45 -17.75 40.1 -17.7 40.05 -17.55 39.55 -17.85 39.1 -18.1 39.0 -19.45 38.3 -20.1 37.7 -19.8 36.95 -19.4 36.6 -19.15 36.65 -18.7 36.85 -17.35 37.65 -17.05 37.7 Q-16.8 37.7 -16.7 37.5 L-16.55 37.3 -16.35 36.85 -16.15 36.6 -16.15 36.15 -16.9 35.8 -17.35 35.5 -17.95 35.2 -18.3 34.95 -18.5 34.6 -18.3 34.05 -17.85 33.7 Q-17.65 33.7 -17.25 33.95 L-16.95 34.1 -16.7 34.25 -16.6 34.35 -15.8 34.75 -15.5 34.85 -15.45 34.85 -15.3 34.8 -15.05 34.6 -14.85 34.1 -14.65 33.75 Q-14.45 33.4 -14.8 33.2 L-18.55 31.25 -18.75 31.2 -19.05 31.3 -19.35 31.7 -19.6 32.3 -19.95 32.8 -20.4 33.75 -20.6 34.0 -21.5 35.8 -22.35 37.35 -22.5 37.75 M-21.1 32.8 L-20.8 32.35 -20.5 31.8 -20.25 31.25 -19.65 30.5 Q-19.25 30.2 -18.75 30.2 -18.4 30.2 -18.1 30.35 L-17.75 30.55 -17.7 30.6 -16.85 31.0 -16.55 31.2 -16.2 31.35 -16.1 31.45 -15.75 31.6 -14.35 32.35 Q-13.75 32.6 -13.65 33.15 -13.45 33.7 -13.75 34.25 L-13.85 34.35 -14.2 35.05 -14.9 35.7 -15.2 35.85 Q-14.95 36.55 -15.3 37.1 L-15.65 37.75 -15.85 38.0 -15.85 38.05 -15.9 38.1 Q-16.3 38.65 -16.85 38.7 -16.5 39.15 -16.55 39.55 L-16.8 40.5 -16.85 40.55 -16.9 40.8 -16.95 40.85 -16.95 40.9 -17.1 41.2 Q-17.5 41.95 -18.3 41.95 L-19.0 41.75 -19.05 41.7 -19.1 41.7 -19.15 41.65 -19.25 41.6 -19.3 41.6 -19.35 41.55 -19.55 41.45 -19.6 41.45 -19.9 41.3 -19.95 41.25 -20.1 41.15 -20.15 41.15 -20.2 41.1 -21.35 40.55 -21.8 40.25 -22.15 40.1 -22.25 40.0 -22.95 39.65 Q-23.5 39.35 -23.65 38.85 -23.9 38.2 -23.55 37.55 L-23.25 36.9 -22.4 35.35 -22.4 35.3 -22.35 35.25 -21.3 33.25 -21.25 33.1 -21.1 32.8" fill="#b07f00" fill-rule="evenodd" stroke="none"/>
    <path d="M-13.65 33.95 L-12.55 34.2 -12.25 34.3 -11.95 34.45 -11.25 34.6 -11.05 34.7 -10.5 34.85 -10.0 35.1 -9.9 35.2 -9.65 35.35 -9.5 35.5 -9.35 35.6 -9.2 35.75 -9.05 35.85 -8.6 36.5 Q-8.15 37.25 -8.05 37.95 L-8.0 38.75 -8.15 39.65 -8.35 40.35 -8.65 41.0 -8.95 41.5 -9.1 41.65 -9.25 41.9 -9.5 42.05 -9.75 42.3 -10.5 42.75 -11.2 42.95 -11.6 43.0 -12.3 43.0 -14.2 42.5 -15.6 42.05 Q-16.35 41.85 -16.2 41.4 L-16.05 41.05 -15.55 39.2 -15.25 38.35 -14.8 36.9 -14.1 34.45 Q-13.85 33.95 -13.65 33.95 M-12.05 36.5 L-12.3 36.55 -12.75 37.1 -13.65 40.0 -13.6 40.5 -12.6 41.05 -12.35 41.1 -11.45 41.05 Q-10.95 40.95 -10.55 40.35 L-10.15 39.6 -10.0 39.1 -10.0 38.7 -9.95 38.5 -10.1 38.0 Q-10.15 37.75 -10.35 37.55 L-10.65 37.1 -11.65 36.6 -12.05 36.5" fill="#ffd245" fill-rule="evenodd" stroke="none"/>
    <path d="M-11.95 37.8 L-11.95 37.9 -12.25 38.75 -12.25 38.8 -12.6 39.95 -12.3 40.1 -11.7 40.1 Q-11.3 40.0 -11.1 39.3 L-11.0 39.0 -11.0 38.45 -11.05 38.25 -11.2 38.1 -11.4 37.8 -11.85 37.6 -11.95 37.8 M-12.3 36.55 L-12.15 36.5 -12.05 36.5 -11.65 36.6 -10.65 37.1 -10.35 37.55 Q-10.15 37.75 -10.1 38.0 L-9.95 38.5 -10.0 38.7 -10.0 39.1 -10.15 39.6 -10.55 40.35 Q-10.95 40.95 -11.45 41.05 L-12.35 41.1 -12.6 41.05 -13.6 40.5 -13.65 40.0 -12.75 37.1 -12.3 36.55 M-13.65 33.95 Q-13.85 33.95 -14.1 34.45 L-14.8 36.9 -15.25 38.35 -15.55 39.2 -16.05 41.05 -16.2 41.4 Q-16.35 41.85 -15.6 42.05 L-14.2 42.5 -12.3 43.0 -11.5 43.0 -11.2 42.95 -10.5 42.75 -9.75 42.3 -9.5 42.05 -9.25 41.9 -9.1 41.65 -8.95 41.5 -8.65 41.0 -8.35 40.35 -8.15 39.65 -8.0 38.75 -8.05 37.95 Q-8.15 37.25 -8.6 36.5 L-9.05 35.85 -9.2 35.75 -9.35 35.6 -9.5 35.5 -9.65 35.35 -9.9 35.2 -10.0 35.1 -10.5 34.85 -11.05 34.7 -11.25 34.6 -12.0 34.45 -12.25 34.3 -12.55 34.2 -13.65 33.95 M-15.25 35.0 L-15.05 34.2 Q-14.65 32.95 -13.7 32.95 L-13.65 32.95 -12.25 33.25 -12.15 33.3 -11.95 33.35 -11.9 33.4 -11.7 33.45 -11.45 33.55 -10.8 33.7 -10.75 33.7 -10.35 33.85 -10.3 33.85 -9.35 34.35 -9.05 34.55 -8.95 34.6 -8.55 35.0 -8.45 35.05 -8.35 35.15 -7.75 35.9 Q-7.15 36.85 -7.05 37.8 L-7.0 38.75 -7.15 39.9 -7.25 40.1 -7.25 40.25 -7.4 40.65 -7.75 41.45 -8.2 42.15 -8.35 42.3 -8.35 42.35 -8.5 42.55 -8.55 42.6 -8.85 42.85 -8.95 42.9 -9.1 43.05 -9.1 43.1 -9.15 43.1 -10.05 43.65 -11.05 43.95 -11.1 43.95 -11.5 44.0 -12.35 44.0 -14.5 43.45 -15.9 43.0 Q-16.75 42.8 -17.05 42.15 -17.3 41.75 -17.15 41.15 L-17.05 40.85 -17.0 40.75 -16.65 39.5 -16.65 39.35 -16.15 37.9 -16.0 37.3 -15.95 37.2 -15.9 37.0 -15.75 36.6 -15.7 36.4 -15.25 35.05 -15.25 35.0" fill="#b07f00" fill-rule="evenodd" stroke="none"/>
    <path d="M-6.15 37.25 Q-5.8 36.0 -5.0 36.1 L-4.7 36.15 -3.5 36.25 Q-2.95 36.25 -2.65 36.55 -2.4 36.8 -2.35 37.2 L-2.15 38.6 -2.15 38.8 -2.1 39.0 -1.9 41.05 -1.8 41.25 -1.75 42.1 -1.7 42.35 -1.65 42.95 -1.5 43.85 -1.5 44.15 -1.45 44.35 -1.45 44.7 Q-1.45 44.9 -2.0 44.9 L-2.65 44.85 -3.3 44.7 -3.55 44.25 -3.6 43.9 -3.65 43.75 -3.95 43.4 -5.05 43.2 -5.45 43.2 -5.95 43.35 -6.35 44.05 -6.5 44.3 -6.9 44.35 -7.5 44.25 -7.85 44.25 -8.2 44.15 -8.35 43.75 -8.25 43.5 -8.15 43.1 -7.9 42.4 -7.8 41.9 -7.55 41.15 -7.4 40.9 -6.95 39.5 -6.85 39.3 -6.45 38.05 -6.35 37.85 -6.15 37.25 M-4.05 38.8 Q-4.1 38.5 -4.3 38.5 -4.4 38.4 -4.5 38.6 L-4.85 39.3 -4.95 39.6 -5.0 39.85 -5.2 40.35 -5.3 40.75 Q-5.35 41.3 -4.6 41.4 L-4.05 41.4 -3.8 41.15 -3.75 41.0 -3.85 40.25 -3.9 39.85 -3.9 39.45 -4.05 38.8" fill="#ffd245" fill-rule="evenodd" stroke="none"/>
    <path d="M-4.05 38.8 L-3.9 39.45 -3.9 39.85 -3.85 40.25 -3.75 41.0 -3.8 41.15 -4.05 41.4 -4.3 41.45 -4.6 41.4 Q-5.35 41.3 -5.3 40.75 L-5.2 40.35 -5.0 39.85 -4.95 39.6 -4.85 39.3 -4.5 38.6 -4.3 38.5 Q-4.1 38.5 -4.05 38.8 M-6.15 37.25 L-6.35 37.85 -6.45 38.05 -6.85 39.3 -6.95 39.5 -7.4 40.9 -7.55 41.2 -7.8 41.9 -7.9 42.4 -8.15 43.1 -8.25 43.5 -8.35 43.75 -8.2 44.15 -7.85 44.25 -7.5 44.25 -6.9 44.35 -6.65 44.35 -6.5 44.3 -6.35 44.05 -5.95 43.35 -5.45 43.2 -5.05 43.2 -3.95 43.4 -3.65 43.75 -3.6 43.9 -3.55 44.25 -3.3 44.7 -2.65 44.85 -1.75 44.9 Q-1.45 44.9 -1.45 44.75 L-1.45 44.35 -1.5 44.15 -1.5 43.85 -1.65 42.95 -1.7 42.35 -1.75 42.1 -1.8 41.25 -1.9 41.05 -2.1 39.0 -2.15 38.8 -2.15 38.6 -2.35 37.2 Q-2.4 36.8 -2.6 36.55 -2.9 36.25 -3.45 36.25 L-3.5 36.25 -4.7 36.15 -5.0 36.1 -5.15 36.05 Q-5.75 36.05 -6.15 37.25 M-5.15 35.05 L-3.5 35.25 -3.45 35.25 Q-2.55 35.25 -1.95 35.85 -1.45 36.3 -1.35 37.05 L-1.3 37.35 -1.3 37.55 -1.25 37.7 -1.15 38.5 -1.15 38.7 -1.1 38.75 -1.1 38.9 -1.0 39.6 -1.0 39.9 -0.9 40.7 -0.9 40.9 -0.85 41.05 -0.85 41.2 -0.8 41.35 -0.75 41.65 -0.75 42.0 -0.7 42.2 -0.55 43.75 -0.5 43.95 -0.45 44.3 -0.45 44.25 -0.45 44.85 -0.8 45.55 Q-1.2 45.9 -1.75 45.9 L-2.1 45.9 -2.35 45.85 -2.75 45.85 -3.85 45.55 Q-4.35 45.25 -4.55 44.45 L-4.55 44.25 -4.8 44.25 -5.15 44.2 -5.3 44.2 -5.35 44.25 -5.85 45.05 -6.65 45.35 -7.0 45.35 -7.35 45.3 -7.55 45.25 -7.95 45.25 -8.9 44.85 Q-9.4 44.3 -9.35 43.65 L-9.15 43.05 -9.15 42.95 -9.1 42.95 -9.1 42.85 -8.85 42.1 -8.75 41.65 -8.75 41.6 -8.4 40.65 -8.35 40.55 -8.2 40.1 -7.85 39.1 -7.8 39.05 -7.4 37.8 -7.4 37.7 -7.2 37.25 -7.15 37.2 -7.15 37.15 -7.1 37.0 Q-6.6 35.05 -5.15 35.05" fill="#b07f00" fill-rule="evenodd" stroke="none"/>
    <path d="M1.9 36.8 L1.85 37.3 1.9 37.65 1.95 39.1 2.0 39.4 2.05 41.45 2.15 42.3 Q2.15 42.75 2.45 42.8 L2.95 42.8 4.25 42.75 4.65 42.7 4.95 42.85 5.05 43.1 5.05 43.35 5.0 43.8 5.1 44.25 Q5.1 44.7 4.6 44.7 L2.35 44.8 2.05 44.85 0.7 44.9 Q0.2 44.95 0.2 44.3 L0.15 42.4 0.05 41.5 -0.1 38.3 -0.15 38.05 -0.15 37.35 -0.2 36.9 Q-0.2 36.5 0.15 36.5 L1.2 36.45 1.45 36.4 1.9 36.8" fill="#ffd245" fill-rule="evenodd" stroke="none"/>
    <path d="M1.45 36.4 L1.2 36.45 0.15 36.5 Q-0.2 36.5 -0.2 36.9 L-0.15 37.35 -0.15 38.05 -0.1 38.3 0.05 41.5 0.15 42.4 0.2 44.3 Q0.2 44.9 0.65 44.9 L0.7 44.9 1.2 44.85 2.05 44.85 2.35 44.8 4.6 44.7 Q5.1 44.7 5.1 44.25 L5.0 43.8 5.05 43.35 5.05 43.1 4.95 42.85 Q4.9 42.7 4.7 42.7 L4.65 42.7 4.25 42.75 3.8 42.75 2.6 42.85 2.45 42.8 Q2.15 42.75 2.15 42.3 L2.05 41.45 2.0 39.4 1.95 39.1 1.9 36.8 1.45 36.4 M-1.15 38.1 L-1.15 37.4 -1.2 37.3 -1.2 36.95 Q-1.2 36.3 -0.85 35.9 -0.45 35.5 0.1 35.5 L1.2 35.45 1.4 35.4 1.45 35.4 Q2.05 35.4 2.45 35.8 2.85 36.2 2.9 36.75 L2.95 39.1 3.0 39.35 3.05 41.4 3.1 41.8 3.45 41.8 3.8 41.75 4.3 41.75 4.6 41.7 4.7 41.7 Q5.9 41.7 6.05 43.05 L6.05 43.3 6.0 43.65 6.0 43.75 6.05 43.85 6.1 44.2 Q6.1 45.7 4.65 45.7 L4.35 45.75 3.8 45.75 3.5 45.8 2.1 45.8 2.05 45.85 1.3 45.85 1.05 45.9 0.65 45.9 Q-0.75 45.9 -0.8 44.35 L-1.0 40.2 -1.05 39.9 -1.1 38.3 -1.15 38.1" fill="#b07f00" fill-rule="evenodd" stroke="none"/>
    <path d="M7.7 38.4 L7.8 38.7 8.15 40.7 8.4 41.55 8.8 42.0 9.3 41.95 10.1 41.75 10.6 41.7 10.95 41.6 Q11.35 41.5 11.35 41.85 L11.45 42.55 11.6 43.05 Q11.7 43.45 11.2 43.55 L7.85 44.2 7.35 44.35 6.75 43.85 6.2 41.05 5.6 37.95 5.5 37.65 5.4 37.0 5.25 36.55 Q5.25 36.15 5.55 36.1 L6.55 35.9 6.8 35.8 7.35 36.15 7.7 38.4" fill="#ffd245" fill-rule="evenodd" stroke="none"/>
    <path d="M7.7 38.4 L7.35 36.15 Q7.25 35.8 6.95 35.8 L6.8 35.8 6.55 35.9 5.55 36.1 Q5.25 36.15 5.25 36.55 L5.4 37.0 5.5 37.65 5.6 37.95 6.2 41.05 6.75 43.85 7.25 44.35 7.35 44.35 7.85 44.2 11.2 43.55 Q11.7 43.45 11.6 43.05 L11.45 42.55 11.35 41.85 11.05 41.55 10.95 41.6 9.65 41.85 9.3 41.95 8.85 42.0 8.8 42.0 8.4 41.55 8.15 40.7 7.8 38.7 7.7 38.4 M6.35 34.9 L6.45 34.9 6.6 34.85 6.95 34.8 Q8.05 34.8 8.3 36.0 L8.35 36.25 8.35 36.45 8.4 36.55 8.4 36.65 8.45 36.75 8.45 37.0 8.5 37.1 8.5 37.25 8.7 38.15 8.75 38.25 8.75 38.4 8.8 38.5 9.25 40.9 9.45 40.9 9.65 40.85 9.9 40.75 10.2 40.75 10.35 40.7 10.45 40.7 10.75 40.6 11.05 40.55 Q12.15 40.55 12.35 41.65 L12.4 42.05 12.4 41.95 12.45 42.3 12.45 42.35 12.6 42.85 Q12.7 43.5 12.4 43.9 L11.4 44.55 9.55 44.9 9.4 44.95 9.15 45.0 9.0 45.0 8.9 45.05 8.75 45.05 7.55 45.35 7.25 45.35 Q6.1 45.35 5.8 44.05 L5.7 43.3 5.05 40.4 5.05 40.25 5.0 40.15 4.85 39.35 4.85 39.2 4.75 38.95 4.6 38.25 4.6 38.15 4.5 37.85 4.4 37.35 4.4 37.2 4.35 37.05 4.3 36.8 Q4.2 36.15 4.5 35.7 4.8 35.25 5.35 35.15 L6.1 35.0 6.25 34.95 6.35 34.9" fill="#b07f00" fill-rule="evenodd" stroke="none"/>
    <path d="M12.3 34.35 L12.6 34.4 12.85 34.7 12.95 35.15 14.0 38.3 14.55 39.8 14.6 40.1 15.1 41.5 15.3 41.9 15.05 42.35 13.75 42.8 Q13.3 42.9 13.3 42.65 L13.0 41.6 12.5 40.3 12.45 40.1 12.35 39.85 12.1 38.9 11.8 38.1 11.6 37.65 11.5 37.1 11.3 36.6 11.2 36.15 10.85 35.4 Q10.75 34.95 11.0 34.8 L11.2 34.75 12.3 34.35" fill="#ffd245" fill-rule="evenodd" stroke="none"/>
    <path d="M11.2 34.75 L11.0 34.8 Q10.75 34.95 10.85 35.4 L11.2 36.15 11.3 36.6 11.5 37.1 11.6 37.65 11.8 38.1 12.1 38.9 12.35 39.85 12.45 40.1 12.5 40.3 13.0 41.6 13.2 42.4 13.3 42.65 Q13.3 42.8 13.6 42.8 L13.75 42.8 15.05 42.35 15.3 41.9 15.1 41.5 14.6 40.1 14.55 39.8 14.0 38.3 13.55 36.85 13.25 36.1 13.1 35.5 12.95 35.15 12.85 34.75 12.6 34.4 12.4 34.35 12.3 34.35 11.2 34.75 M11.55 33.55 L11.75 33.5 11.85 33.45 12.0 33.45 12.4 33.35 13.15 33.55 13.8 34.4 13.9 34.7 13.9 34.8 13.95 34.9 14.15 35.5 14.2 35.75 14.35 36.1 14.9 37.75 14.95 38.0 15.25 38.7 15.5 39.45 15.5 39.6 15.55 39.8 15.75 40.25 16.1 41.3 16.25 41.6 Q16.4 42.1 16.15 42.6 15.95 43.15 15.4 43.3 L15.15 43.35 15.05 43.4 14.85 43.45 14.6 43.55 14.4 43.6 14.3 43.65 14.25 43.65 14.05 43.75 13.6 43.8 Q12.8 43.8 12.4 43.1 L12.25 42.7 12.05 41.9 11.6 40.65 11.5 40.45 11.5 40.4 11.25 39.65 11.15 39.2 11.0 38.9 10.65 37.95 10.55 37.4 10.45 37.25 10.3 36.9 10.25 36.6 9.9 35.7 Q9.75 35.2 9.9 34.7 10.1 34.15 10.6 33.9 L10.65 33.9 10.7 33.85 10.85 33.8 10.9 33.8 11.55 33.55" fill="#b07f00" fill-rule="evenodd" stroke="none"/>
    <path d="M21.4 33.0 L21.7 33.35 22.5 34.6 22.95 36.2 22.9 37.2 22.6 38.25 21.75 39.3 21.45 39.5 21.3 39.65 21.0 39.85 20.35 40.15 20.1 40.2 19.8 40.3 19.2 40.4 18.85 40.4 18.5 40.35 17.25 40.0 16.4 39.45 15.85 38.8 15.2 37.75 15.05 37.35 14.85 36.45 14.8 35.85 14.85 35.6 14.85 35.05 14.95 34.75 15.0 34.4 15.1 34.1 15.25 33.85 Q15.45 33.45 15.6 33.35 L15.75 33.15 16.0 32.9 16.45 32.55 16.85 32.3 17.5 32.05 18.05 31.9 19.0 31.85 20.35 32.25 20.75 32.5 21.4 33.0 M20.45 35.0 L20.4 34.85 20.3 34.7 19.7 34.2 19.3 34.0 18.95 33.9 18.25 33.9 17.65 34.15 17.4 34.3 17.05 34.7 16.8 35.35 16.7 36.0 16.85 36.5 16.95 36.9 17.0 36.95 17.25 37.35 17.55 37.7 18.05 38.15 Q18.4 38.4 19.0 38.45 L19.2 38.4 19.35 38.4 19.8 38.25 20.3 38.0 20.75 37.3 20.95 36.45 20.8 35.75 20.65 35.35 20.45 35.0" fill="#ffd245" fill-rule="evenodd" stroke="none"/>
    <path d="M19.85 36.9 L19.95 36.5 19.9 36.4 19.85 36.0 19.75 35.8 19.7 35.65 19.6 35.45 19.5 35.35 19.5 35.3 19.2 35.05 19.15 35.0 18.8 34.9 18.8 34.85 18.45 34.9 17.95 35.15 17.95 35.2 17.9 35.25 17.75 35.55 17.75 35.6 17.7 35.95 17.75 36.0 17.85 36.4 18.05 36.8 18.15 36.85 18.25 37.0 18.3 37.05 18.6 37.3 18.95 37.45 19.0 37.45 19.2 37.4 19.3 37.4 19.5 37.25 19.55 37.25 19.65 37.2 19.85 36.9 M20.3 34.7 L20.4 34.85 20.45 35.0 20.65 35.35 20.8 35.75 20.95 36.45 20.75 37.3 20.3 38.0 19.8 38.25 19.35 38.4 19.2 38.4 19.0 38.45 18.05 38.15 17.55 37.7 17.25 37.35 17.0 36.95 16.95 36.9 16.85 36.5 16.7 36.0 16.8 35.35 17.05 34.7 17.4 34.3 17.65 34.15 18.25 33.9 18.8 33.85 18.95 33.9 19.3 34.0 19.7 34.2 20.3 34.7 M21.4 33.0 L20.75 32.5 20.35 32.25 19.0 31.85 18.95 31.85 18.05 31.9 17.5 32.05 16.85 32.3 16.45 32.55 16.0 32.9 15.75 33.15 15.6 33.35 Q15.45 33.45 15.25 33.85 L15.0 34.4 14.95 34.75 14.85 35.05 14.85 35.6 14.8 35.85 14.85 36.45 15.05 37.35 15.2 37.75 15.85 38.8 16.4 39.45 17.25 40.0 18.5 40.35 18.85 40.4 19.2 40.4 19.8 40.3 20.1 40.2 20.35 40.15 21.0 39.85 21.3 39.65 21.45 39.5 21.75 39.3 22.6 38.25 22.9 37.2 22.95 36.2 22.5 34.6 21.7 33.35 21.4 33.0 M20.55 31.25 L20.75 31.35 Q21.1 31.45 21.4 31.7 L21.65 31.9 21.75 32.0 22.05 32.2 22.5 32.7 23.4 34.15 23.75 35.15 23.95 36.1 23.9 37.35 23.4 38.75 23.2 39.1 23.0 39.35 23.1 39.2 22.4 40.05 22.05 40.3 21.95 40.4 21.95 40.45 21.9 40.45 21.45 40.75 20.7 41.1 20.05 41.3 19.6 41.35 19.4 41.35 19.35 41.4 18.75 41.4 18.4 41.35 18.3 41.35 16.85 40.9 16.2 40.5 16.1 40.45 16.05 40.45 16.0 40.4 15.8 40.25 15.75 40.25 15.05 39.4 15.0 39.4 15.0 39.35 14.3 38.2 13.85 36.55 13.8 35.9 13.8 35.85 13.85 35.55 13.85 34.9 13.95 34.6 13.95 34.45 14.05 34.1 14.35 33.45 Q14.5 33.0 14.8 32.7 L15.1 32.4 15.3 32.15 16.4 31.4 16.95 31.2 17.15 31.1 17.95 30.9 19.1 30.85 20.1 31.1 20.4 31.2 20.5 31.25 20.55 31.25" fill="#b07f00" fill-rule="evenodd" stroke="none"/>
    <path d="M22.5 29.1 L23.9 29.55 24.15 29.6 26.95 30.65 27.25 30.7 27.0 30.25 26.8 29.95 26.65 29.8 26.45 29.5 26.15 29.2 25.45 28.35 24.9 27.65 24.65 27.45 24.6 27.1 25.1 26.7 25.25 26.55 25.45 26.4 25.6 26.25 25.8 26.1 Q26.0 25.9 26.3 26.25 L26.6 26.7 27.0 27.1 27.45 27.7 27.75 28.0 27.95 28.3 30.05 30.85 30.5 31.45 31.1 32.05 Q31.4 32.35 31.05 32.65 L30.35 33.15 30.15 33.35 Q29.95 33.55 29.4 33.35 L28.95 33.15 27.15 32.55 26.9 32.5 25.25 31.9 25.05 31.85 24.85 31.9 Q24.7 31.9 24.85 32.2 L25.45 32.95 25.65 33.15 25.8 33.4 26.0 33.6 26.1 33.75 27.0 34.75 27.05 34.85 27.35 35.1 Q27.6 35.35 27.35 35.6 L26.45 36.45 26.15 36.6 25.85 36.5 24.25 34.5 23.8 34.05 23.05 33.0 22.55 32.55 21.6 31.4 21.45 31.2 21.3 31.05 21.2 30.9 20.95 30.65 20.8 30.45 Q20.7 30.25 20.85 30.15 L21.05 30.0 21.15 29.95 21.2 29.9 21.25 29.8 21.35 29.75 21.5 29.6 21.95 29.3 22.25 29.15 22.5 29.1" fill="#ffd245" fill-rule="evenodd" stroke="none"/>
    <path d="M24.6 27.1 L24.65 27.45 24.9 27.65 25.45 28.35 26.15 29.2 26.45 29.5 26.65 29.8 26.8 29.95 27.0 30.25 27.25 30.7 26.95 30.65 24.15 29.6 23.9 29.55 22.5 29.1 22.4 29.1 22.25 29.15 21.95 29.3 21.5 29.6 21.35 29.75 21.25 29.8 21.2 29.9 21.15 29.95 21.05 30.0 20.85 30.15 Q20.7 30.25 20.8 30.45 L20.95 30.65 21.2 30.9 21.3 31.05 21.45 31.2 21.6 31.4 22.55 32.55 23.05 33.0 23.8 34.05 24.25 34.5 25.85 36.5 26.1 36.6 26.15 36.6 26.45 36.45 27.35 35.6 Q27.6 35.35 27.35 35.1 L27.05 34.85 27.0 34.75 26.1 33.75 26.0 33.6 25.8 33.4 25.65 33.15 25.45 32.95 24.85 32.2 Q24.7 31.9 24.85 31.9 L25.05 31.85 25.25 31.9 26.9 32.5 27.15 32.55 28.95 33.15 29.4 33.35 29.9 33.45 30.15 33.35 30.35 33.15 31.05 32.65 Q31.4 32.35 31.1 32.05 L30.5 31.45 27.0 27.1 26.6 26.7 26.3 26.25 25.95 26.05 25.8 26.1 25.6 26.25 25.45 26.4 25.25 26.55 25.1 26.7 24.6 27.1 M21.0 28.75 L21.85 28.2 22.4 28.1 22.6 28.1 22.65 28.15 23.95 28.5 24.0 28.55 24.35 28.65 24.4 28.65 24.25 28.5 24.15 28.35 24.05 28.25 23.9 28.05 Q23.4 27.45 23.7 26.65 L24.15 26.15 24.2 26.1 24.7 25.75 25.15 25.3 25.95 25.05 Q26.6 25.05 27.05 25.6 L27.25 25.9 27.55 26.2 28.75 27.7 28.7 27.65 28.95 27.95 29.1 28.2 29.95 29.15 30.1 29.4 30.85 30.2 30.95 30.35 31.05 30.55 31.1 30.6 31.25 30.8 31.5 31.0 31.9 31.4 Q32.25 31.9 32.25 32.45 32.15 33.1 31.7 33.4 L31.5 33.55 31.35 33.7 31.1 33.85 30.8 34.15 29.9 34.45 29.0 34.25 28.8 34.15 28.7 34.15 27.4 33.7 27.75 34.05 27.75 34.1 27.9 34.25 28.15 34.45 Q28.75 35.25 28.2 36.15 L27.1 37.25 26.25 37.6 26.1 37.6 Q25.5 37.6 25.05 37.1 L25.0 37.05 24.75 36.75 24.65 36.65 24.25 36.1 23.8 35.6 23.65 35.35 23.5 35.2 23.45 35.1 23.3 34.95 22.5 33.95 22.45 33.9 22.4 33.9 22.4 33.85 22.25 33.65 21.85 33.2 21.8 33.2 21.8 33.15 21.6 32.9 21.3 32.6 20.85 32.05 20.75 31.9 20.65 31.8 20.55 31.65 20.45 31.6 20.4 31.5 20.15 31.3 19.85 30.8 Q19.5 29.95 20.2 29.35 L20.6 29.1 20.8 28.9 20.9 28.85 21.0 28.75" fill="#b07f00" fill-rule="evenodd" stroke="none"/>
    <path d="M-43.6 -9.65 L-43.55 -10.2 Q-43.5 -10.65 -43.05 -10.55 L-42.65 -10.45 -42.05 -10.4 -41.75 -10.2 -41.65 -10.0 -41.65 -9.7 -41.8 -8.7 -41.85 -8.6 -41.95 -8.25 -42.0 -7.9 -42.05 -7.15 Q-41.95 -6.95 -41.55 -6.9 L-40.9 -6.85 Q-40.7 -6.85 -40.6 -7.15 L-40.45 -7.6 -40.4 -8.3 -40.2 -8.9 -40.15 -9.4 -40.05 -9.75 -39.9 -9.85 -39.65 -9.9 -38.8 -9.75 -38.55 -9.65 Q-38.1 -9.55 -38.15 -9.0 L-38.55 -6.95 -38.55 -6.6 -38.05 -6.25 -37.2 -6.2 Q-36.9 -6.35 -36.8 -7.1 L-36.45 -9.0 -36.15 -9.5 -35.6 -9.45 -35.1 -9.45 -34.8 -9.4 Q-34.35 -9.25 -34.45 -8.9 L-34.6 -8.15 -34.6 -7.85 -34.7 -7.55 -35.15 -4.95 -35.25 -4.55 -35.3 -4.1 -35.5 -3.75 -36.0 -3.65 -36.35 -3.75 -38.4 -4.05 -38.7 -4.15 -39.25 -4.2 -40.6 -4.45 -41.15 -4.6 -41.7 -4.65 -42.3 -4.8 -43.6 -5.0 -44.1 -5.15 Q-44.4 -5.3 -44.35 -5.65 L-44.0 -7.5 -43.9 -8.4 -43.6 -9.65" fill="#ffd245" fill-rule="evenodd" stroke="none"/>
    <path d="M-43.55 -10.2 L-43.95 -8.0 -44.0 -7.5 -44.35 -5.65 Q-44.4 -5.3 -44.1 -5.15 L-43.6 -5.0 -42.3 -4.8 -41.7 -4.65 -41.15 -4.6 -40.6 -4.45 -39.25 -4.2 -38.7 -4.15 -38.4 -4.05 -37.05 -3.85 -36.35 -3.75 -36.0 -3.65 -35.9 -3.65 -35.5 -3.75 -35.3 -4.1 -34.7 -7.55 -34.6 -7.85 -34.6 -8.15 -34.45 -8.9 Q-34.35 -9.25 -34.8 -9.4 L-35.1 -9.45 -35.6 -9.45 -35.9 -9.5 -36.15 -9.45 -36.45 -9.0 -36.75 -7.1 Q-36.95 -6.2 -37.45 -6.2 L-38.05 -6.25 -38.55 -6.6 -38.55 -6.95 -38.15 -9.0 Q-38.1 -9.55 -38.55 -9.65 L-38.8 -9.75 -39.65 -9.9 -39.7 -9.95 Q-40.05 -9.95 -40.05 -9.75 L-40.15 -9.4 -40.2 -8.9 -40.4 -8.3 -40.45 -7.6 -40.6 -7.15 Q-40.75 -6.8 -41.0 -6.8 L-41.55 -6.9 Q-41.95 -6.95 -42.05 -7.15 L-42.0 -7.9 -41.95 -8.25 -41.85 -8.6 -41.8 -8.7 -41.65 -9.7 -41.65 -10.0 -41.75 -10.2 -42.05 -10.4 -42.65 -10.45 -43.05 -10.55 -43.15 -10.55 -43.55 -10.2 M-42.5 -11.45 L-41.9 -11.35 Q-41.45 -11.3 -41.0 -10.85 L-40.75 -10.5 Q-40.2 -10.95 -39.7 -10.95 L-39.5 -10.9 -39.45 -10.9 -38.3 -10.65 -38.25 -10.6 -38.2 -10.6 Q-37.5 -10.35 -37.25 -9.75 L-36.4 -10.45 -35.9 -10.5 -35.4 -10.45 -34.95 -10.45 -34.6 -10.4 Q-34.05 -10.25 -33.65 -9.8 -33.35 -9.35 -33.45 -8.7 L-33.5 -8.55 -33.5 -8.45 -33.55 -8.4 -33.55 -8.25 -33.6 -8.05 -33.65 -7.7 -33.65 -7.5 -33.7 -7.35 -33.7 -7.25 -33.75 -7.1 -34.05 -5.35 -34.05 -5.3 -34.1 -5.25 -34.1 -5.3 -34.15 -4.9 -34.2 -4.75 -34.3 -4.0 -34.3 -3.9 Q-34.45 -3.3 -34.85 -3.0 -35.25 -2.65 -35.9 -2.65 L-36.15 -2.65 -36.45 -2.75 -36.7 -2.75 -37.2 -2.85 -37.45 -2.85 -37.8 -2.9 -38.6 -3.1 -38.7 -3.1 -38.9 -3.15 -39.05 -3.15 -39.4 -3.25 -39.65 -3.25 -40.75 -3.45 -41.1 -3.55 -41.2 -3.55 -41.3 -3.6 -41.55 -3.6 -41.9 -3.65 -42.95 -3.9 -43.1 -3.95 -43.35 -3.95 -43.75 -4.0 -44.7 -4.35 Q-45.55 -4.95 -45.35 -5.85 L-45.25 -6.2 -45.25 -6.35 -45.15 -7.05 -44.9 -8.15 -44.9 -8.25 -44.85 -8.6 -44.85 -8.75 -44.6 -9.85 -44.6 -10.1 -44.55 -10.35 Q-44.3 -11.55 -43.15 -11.55 L-42.9 -11.55 -42.65 -11.5 -42.5 -11.45" fill="#b07f00" fill-rule="evenodd" stroke="none"/>
    <path d="M-41.4 -16.7 Q-41.25 -17.3 -40.8 -17.5 L-40.05 -17.65 -39.5 -17.55 -39.05 -17.55 -38.3 -17.4 -38.1 -17.4 -36.25 -17.15 -35.9 -17.05 -35.65 -17.05 -35.15 -17.0 -33.6 -16.7 -32.85 -16.65 -32.55 -16.6 -32.3 -16.6 -31.95 -16.5 Q-31.65 -16.4 -31.9 -15.9 L-32.15 -15.2 -32.5 -14.5 -33.05 -14.4 -33.4 -14.45 -33.55 -14.4 Q-33.85 -14.4 -34.0 -14.2 L-34.4 -13.5 -34.65 -12.7 -34.6 -12.15 -34.0 -11.55 -33.8 -11.35 Q-33.75 -11.15 -33.85 -10.85 L-34.1 -10.3 -34.2 -9.9 -34.4 -9.55 -34.85 -9.5 -35.1 -9.7 -35.3 -9.8 -35.5 -9.95 -35.75 -10.05 -37.35 -11.1 -37.6 -11.3 -38.9 -12.15 -39.1 -12.35 -40.35 -13.1 -40.5 -13.25 -41.05 -13.65 -41.95 -14.35 Q-42.15 -14.7 -41.95 -15.15 L-41.4 -16.7 M-38.55 -14.4 L-37.75 -13.95 -37.55 -13.75 -37.15 -13.55 Q-36.55 -13.35 -36.25 -14.05 L-36.1 -14.65 -36.3 -15.05 -36.45 -15.05 -37.3 -15.25 -37.7 -15.25 -38.1 -15.35 -38.4 -15.35 -38.9 -15.4 Q-39.25 -15.45 -39.25 -15.25 L-39.2 -14.95 -38.55 -14.4" fill="#ffd245" fill-rule="evenodd" stroke="none"/>
    <path d="M-38.55 -14.4 L-39.2 -14.95 -39.25 -15.25 -38.95 -15.4 -38.9 -15.4 -38.4 -15.35 -38.1 -15.35 -37.7 -15.25 -37.3 -15.25 -36.45 -15.05 -36.3 -15.05 -36.1 -14.65 -36.25 -14.05 Q-36.5 -13.5 -36.9 -13.5 L-37.15 -13.55 -37.55 -13.75 -37.75 -13.95 -38.55 -14.4 M-41.4 -16.7 L-41.95 -15.15 Q-42.15 -14.7 -41.95 -14.35 L-41.05 -13.65 -40.5 -13.25 -40.35 -13.1 -39.1 -12.35 -38.9 -12.15 -37.6 -11.3 -37.35 -11.1 -36.15 -10.35 -35.75 -10.05 -35.5 -9.95 -35.3 -9.8 -35.1 -9.7 -34.85 -9.5 -34.7 -9.5 -34.4 -9.55 -34.2 -9.9 -34.1 -10.3 -33.85 -10.85 Q-33.75 -11.15 -33.8 -11.35 L-34.0 -11.55 -34.6 -12.15 -34.65 -12.7 -34.4 -13.5 -34.0 -14.2 Q-33.85 -14.4 -33.55 -14.4 L-33.4 -14.45 -33.35 -14.45 -33.05 -14.4 -32.95 -14.4 Q-32.6 -14.4 -32.45 -14.55 L-32.15 -15.2 -31.9 -15.9 Q-31.65 -16.4 -31.95 -16.5 L-32.3 -16.6 -32.55 -16.6 -33.6 -16.75 -33.85 -16.75 -35.15 -17.0 -35.65 -17.05 -35.9 -17.05 -36.25 -17.15 -38.1 -17.4 -38.3 -17.4 -39.05 -17.55 -39.5 -17.55 -40.05 -17.65 -40.35 -17.65 -40.8 -17.5 Q-41.25 -17.3 -41.4 -16.7 M-42.9 -15.5 L-42.35 -16.9 -42.35 -16.95 Q-42.1 -17.9 -41.35 -18.35 L-40.35 -18.65 -39.95 -18.6 -39.65 -18.6 -39.4 -18.55 -38.85 -18.55 -38.35 -18.45 -38.25 -18.4 -38.0 -18.4 -37.15 -18.3 -37.1 -18.25 -36.85 -18.25 -36.1 -18.15 -36.05 -18.1 -36.0 -18.1 -35.85 -18.05 -35.55 -18.05 -35.45 -18.0 -35.3 -18.0 -34.95 -17.95 -35.0 -17.95 -34.7 -17.9 -34.6 -17.85 -34.4 -17.85 -32.7 -17.6 -32.15 -17.6 -31.55 -17.4 -30.9 -16.8 Q-30.65 -16.25 -30.95 -15.5 L-31.05 -15.3 -31.2 -14.85 Q-31.8 -13.4 -32.95 -13.4 L-33.1 -13.4 -33.3 -13.45 -33.6 -12.75 -33.65 -12.55 -33.55 -12.45 Q-33.1 -12.3 -32.85 -11.75 -32.65 -11.2 -32.9 -10.5 L-33.15 -9.95 -33.2 -9.8 -33.25 -9.55 Q-33.5 -9.0 -33.85 -8.75 L-33.9 -8.7 -34.05 -8.65 -34.7 -8.5 -35.25 -8.6 -35.8 -8.95 -35.85 -8.95 -35.85 -9.0 -35.9 -9.05 -35.9 -9.0 -36.0 -9.05 -36.1 -9.15 -36.25 -9.2 -36.9 -9.65 -37.15 -9.75 -37.2 -9.8 -37.9 -10.3 -38.1 -10.4 -38.15 -10.5 -38.35 -10.55 -39.7 -11.5 -39.8 -11.6 -40.8 -12.2 -40.9 -12.3 -41.1 -12.45 -41.3 -12.6 -41.4 -12.7 -41.55 -12.75 Q-43.55 -13.9 -42.9 -15.5" fill="#b07f00" fill-rule="evenodd" stroke="none"/>
    <path d="M-28.55 -22.4 L-28.35 -22.3 Q-28.1 -22.15 -28.15 -21.85 L-28.25 -21.6 -29.3 -20.85 -31.25 -20.35 -31.8 -19.9 -31.85 -19.7 -31.75 -19.4 -31.3 -19.0 -30.6 -18.65 Q-30.15 -18.5 -30.45 -18.2 L-30.95 -17.55 -31.35 -16.85 Q-31.45 -16.7 -31.65 -16.7 L-31.95 -16.8 -32.2 -17.0 -38.05 -20.9 -38.5 -21.15 Q-39.2 -21.6 -38.9 -22.05 L-38.7 -22.35 -38.55 -22.65 -38.2 -23.1 -37.5 -24.3 -37.0 -24.95 -36.5 -25.4 -35.9 -25.75 -35.25 -26.0 -34.6 -26.0 -33.6 -25.75 -33.35 -25.55 -32.9 -25.3 Q-32.3 -24.95 -31.95 -24.3 L-31.65 -23.4 -31.3 -22.6 -30.9 -22.6 -30.15 -23.0 -30.0 -23.15 -29.55 -23.1 -29.3 -22.95 -28.55 -22.4 M-36.05 -22.2 L-35.8 -21.9 -34.75 -21.2 -34.1 -20.85 Q-33.8 -20.7 -33.65 -20.85 L-33.4 -21.15 -33.3 -21.35 -33.2 -21.85 -33.2 -22.1 -33.25 -22.3 -33.5 -22.85 -34.15 -23.6 -35.4 -23.55 -35.75 -23.2 -36.1 -22.75 -36.15 -22.5 -36.05 -22.2" fill="#ffd245" fill-rule="evenodd" stroke="none"/>
    <path d="M-34.25 -22.15 L-34.35 -22.4 -34.75 -22.8 -34.9 -22.65 -34.95 -22.55 -34.65 -22.4 -34.25 -22.1 -34.25 -22.15 M-36.05 -22.2 L-36.15 -22.5 -36.1 -22.75 -35.75 -23.2 -35.4 -23.55 -34.75 -23.8 Q-34.35 -23.8 -34.15 -23.6 L-33.5 -22.85 -33.25 -22.3 -33.2 -22.1 -33.2 -21.85 -33.3 -21.35 -33.4 -21.15 -33.65 -20.85 -33.85 -20.75 -34.1 -20.85 -34.75 -21.2 -35.75 -21.9 -36.05 -22.2 M-28.35 -22.3 L-28.55 -22.4 -29.55 -23.1 -29.8 -23.2 -30.0 -23.15 -30.15 -23.0 -30.9 -22.6 -31.15 -22.55 -31.3 -22.6 -31.65 -23.4 -31.95 -24.3 Q-32.3 -24.95 -32.9 -25.3 L-33.35 -25.55 -33.6 -25.75 -34.6 -26.0 -35.25 -26.0 -35.9 -25.75 -36.5 -25.4 -37.0 -24.95 -37.5 -24.3 -38.2 -23.1 -38.55 -22.65 -38.7 -22.35 -38.9 -22.05 Q-39.2 -21.6 -38.5 -21.15 L-32.2 -17.0 -31.95 -16.8 -31.65 -16.7 -31.35 -16.85 -30.95 -17.55 -30.45 -18.2 Q-30.15 -18.5 -30.6 -18.65 L-31.3 -19.0 -31.75 -19.4 -31.85 -19.7 -31.8 -19.9 -31.25 -20.35 -29.3 -20.85 -28.25 -21.6 -28.15 -21.85 Q-28.1 -22.15 -28.35 -22.3 M-30.4 -24.05 L-29.8 -24.2 -29.0 -23.95 -28.85 -23.8 -28.8 -23.8 -28.45 -23.6 -28.2 -23.4 -28.05 -23.25 -27.85 -23.15 -27.8 -23.15 -27.8 -23.1 Q-27.3 -22.8 -27.15 -22.2 -27.05 -21.6 -27.4 -21.05 -27.9 -20.2 -29.0 -19.9 L-30.2 -19.6 -30.05 -19.5 Q-29.5 -19.15 -29.45 -18.65 -29.3 -18.2 -29.6 -17.65 L-29.85 -17.35 -29.95 -17.25 -30.05 -17.05 -30.25 -16.75 -30.35 -16.55 -30.5 -16.35 Q-30.9 -15.7 -31.65 -15.7 -32.2 -15.7 -32.45 -15.95 L-32.75 -16.2 -32.8 -16.25 -33.0 -16.35 -33.9 -16.95 -34.0 -17.05 -34.15 -17.15 -34.7 -17.45 -35.65 -18.1 -35.95 -18.25 -38.15 -19.8 -39.05 -20.3 -39.75 -20.95 Q-40.3 -21.75 -39.75 -22.6 L-39.6 -22.8 -39.55 -22.9 -39.45 -23.05 -39.4 -23.15 -39.2 -23.4 -38.85 -24.0 -38.75 -24.1 -38.6 -24.4 -38.3 -24.8 -37.75 -25.6 -37.05 -26.25 -36.95 -26.3 -36.45 -26.6 -36.4 -26.65 -35.5 -26.95 -35.4 -27.0 -34.6 -27.0 Q-33.75 -27.0 -33.0 -26.55 L-32.9 -26.45 -32.8 -26.4 -32.65 -26.3 -32.35 -26.15 Q-31.45 -25.5 -31.1 -24.8 L-31.05 -24.8 -31.05 -24.75 -30.7 -23.85 -30.6 -23.9 -30.5 -24.0 -30.4 -24.05" fill="#b07f00" fill-rule="evenodd" stroke="none"/>
    <path d="M-24.55 -27.05 L-24.1 -26.7 Q-23.8 -26.4 -24.15 -26.0 L-25.85 -24.25 -27.05 -22.95 -27.9 -23.0 -28.45 -23.6 -32.65 -27.55 -33.15 -27.95 -33.4 -28.25 -33.75 -28.55 -33.9 -28.75 -33.8 -29.1 -32.85 -30.15 -32.2 -30.2 -31.85 -29.8 -31.55 -29.55 -31.3 -29.25 -27.9 -26.05 -27.25 -25.9 -26.55 -26.55 -26.25 -26.95 -25.6 -27.6 -25.25 -27.75 -25.05 -27.6 -24.55 -27.05" fill="#ffd245" fill-rule="evenodd" stroke="none"/>
    <path d="M-24.05 -28.05 L-23.95 -27.85 -23.85 -27.75 -23.7 -27.7 -23.45 -27.45 Q-22.95 -26.95 -22.95 -26.5 -22.95 -25.85 -23.45 -25.3 L-24.85 -23.85 -24.95 -23.7 -25.15 -23.5 -25.25 -23.45 -25.35 -23.35 -25.45 -23.2 -26.35 -22.25 Q-26.85 -21.75 -27.4 -21.75 -28.05 -21.75 -28.6 -22.3 L-31.7 -25.25 -31.7 -25.3 -31.85 -25.45 -32.15 -25.65 -32.3 -25.85 -32.5 -26.0 -33.25 -26.7 -33.3 -26.8 -33.35 -26.8 -33.8 -27.2 -34.45 -27.85 Q-34.9 -28.2 -34.9 -28.85 -34.9 -29.5 -34.5 -29.8 L-33.95 -30.4 -33.85 -30.55 -33.8 -30.6 -33.75 -30.6 -33.7 -30.7 -33.55 -30.85 Q-33.15 -31.3 -32.5 -31.3 -31.9 -31.3 -31.5 -30.9 L-31.25 -30.65 -31.15 -30.5 -31.05 -30.4 -30.95 -30.35 -30.55 -29.95 -30.55 -29.9 -29.7 -29.1 -29.5 -28.95 -27.95 -27.4 -27.5 -27.05 -27.15 -27.4 -26.75 -27.85 -26.6 -27.95 -26.35 -28.3 Q-25.9 -28.75 -25.35 -28.75 -24.8 -28.75 -24.35 -28.3 L-24.05 -28.05 M-24.55 -27.05 L-25.05 -27.6 -25.35 -27.75 -25.6 -27.6 -25.85 -27.3 -26.25 -26.95 -26.55 -26.55 -27.25 -25.9 -27.45 -25.85 -27.9 -26.05 -31.3 -29.25 -31.55 -29.55 -31.85 -29.8 -32.2 -30.2 -32.5 -30.3 -32.85 -30.15 -33.8 -29.1 -33.9 -28.75 -33.75 -28.55 -33.4 -28.25 -33.15 -27.95 -32.65 -27.55 -28.45 -23.6 -27.9 -23.0 Q-27.65 -22.75 -27.4 -22.75 L-27.05 -22.95 -26.05 -24.0 -25.85 -24.25 -24.15 -26.0 Q-23.8 -26.4 -24.1 -26.7 L-24.55 -27.05" fill="#b07f00" fill-rule="evenodd" stroke="none"/>
    <path d="M-20.55 -28.85 L-20.8 -28.7 -21.8 -27.9 Q-22.1 -27.7 -22.45 -28.05 L-22.6 -28.35 -22.85 -28.65 -23.1 -29.1 -23.45 -29.45 -23.7 -29.85 -23.9 -30.0 -24.15 -30.25 -24.35 -30.35 -24.55 -30.5 -24.8 -30.6 -26.45 -31.5 -26.95 -31.7 -27.4 -31.95 -27.65 -32.05 -28.55 -32.55 -29.2 -32.85 -29.35 -32.9 -29.45 -33.0 -29.7 -33.15 Q-29.85 -33.4 -29.6 -33.55 L-29.45 -33.65 -29.35 -33.75 -28.85 -34.15 -28.5 -34.35 -28.45 -34.45 -28.05 -34.65 -27.6 -34.55 -25.25 -33.25 -24.7 -33.1 -24.6 -33.35 -24.65 -33.5 -24.65 -33.6 -24.85 -34.25 -25.2 -35.9 -25.35 -36.55 -25.1 -36.95 -23.9 -37.85 -23.45 -37.95 -23.15 -36.85 -22.7 -34.25 -22.35 -32.5 -21.95 -31.25 -21.75 -30.95 -20.75 -29.7 -20.55 -29.4 -20.45 -29.1 Q-20.45 -28.9 -20.55 -28.85" fill="#ffd245" fill-rule="evenodd" stroke="none"/>
    <path d="M-20.55 -28.85 Q-20.45 -28.9 -20.45 -29.1 L-20.55 -29.4 -20.75 -29.7 -21.95 -31.25 -22.35 -32.5 -22.7 -34.25 -23.15 -36.85 -23.45 -37.95 -23.55 -38.0 -23.9 -37.85 -25.1 -36.95 -25.35 -36.55 -25.2 -35.9 -25.1 -35.3 -24.85 -34.25 -24.65 -33.6 -24.65 -33.5 -24.6 -33.35 -24.7 -33.1 -24.75 -33.05 -25.25 -33.25 -27.6 -34.55 -27.95 -34.65 -28.05 -34.65 -28.45 -34.45 -28.5 -34.35 -28.85 -34.15 -29.35 -33.75 -29.45 -33.65 -29.6 -33.55 Q-29.85 -33.4 -29.7 -33.15 L-29.45 -33.0 -29.35 -32.9 -29.2 -32.85 -27.65 -32.05 -27.4 -31.95 -26.95 -31.7 -26.45 -31.5 -24.8 -30.6 -24.55 -30.5 -24.35 -30.35 -24.15 -30.25 -23.75 -29.85 -23.45 -29.45 -23.3 -29.3 -22.6 -28.35 -22.45 -28.05 -22.0 -27.85 -21.8 -27.9 -21.4 -28.25 -20.55 -28.85 M-20.25 -30.7 L-20.0 -30.3 -19.9 -30.2 -19.75 -30.0 Q-19.35 -29.55 -19.45 -28.9 -19.5 -28.4 -20.0 -28.0 L-20.25 -27.9 -20.25 -27.85 -20.3 -27.85 -21.2 -27.1 Q-21.55 -26.85 -22.0 -26.85 -22.75 -26.85 -23.2 -27.45 L-23.45 -27.8 -23.55 -27.9 -23.65 -28.05 -23.65 -28.1 -23.8 -28.3 -23.9 -28.5 -24.5 -29.15 -24.5 -29.2 -24.65 -29.3 -24.75 -29.45 -24.9 -29.5 -24.95 -29.55 -25.25 -29.7 -25.8 -30.05 -26.05 -30.15 -26.75 -30.5 -26.85 -30.6 -27.0 -30.6 -28.95 -31.6 -29.0 -31.65 -29.75 -32.0 -29.8 -32.0 -30.0 -32.15 -30.5 -32.55 -30.7 -33.5 -30.2 -34.35 -29.95 -34.5 -29.9 -34.55 -29.7 -34.7 -29.45 -34.95 -29.15 -35.15 -29.0 -35.3 -28.35 -35.6 -27.95 -35.7 -27.15 -35.45 -26.75 -35.2 -26.7 -35.15 -26.05 -34.85 -26.0 -34.85 -26.05 -35.0 -26.15 -35.5 -26.2 -35.65 -26.35 -36.5 -26.35 -36.65 -26.0 -37.4 -25.7 -37.75 -25.55 -37.85 -25.5 -37.85 -25.5 -37.9 -24.85 -38.35 -24.75 -38.45 -24.5 -38.65 -23.55 -39.0 Q-23.0 -39.0 -22.7 -38.55 L-22.3 -37.55 -22.3 -37.5 -22.2 -37.05 -22.15 -36.9 -22.15 -36.8 -21.75 -34.8 -21.75 -34.7 -21.6 -33.85 -21.55 -33.8 -21.55 -33.55 -21.5 -33.45 -21.5 -33.3 -21.45 -33.1 -21.45 -32.95 -21.4 -32.85 -21.4 -32.7 -21.35 -32.65 -21.15 -31.85 -20.65 -31.15 -20.25 -30.7" fill="#b07f00" fill-rule="evenodd" stroke="none"/>
    <path d="M-11.6 -42.25 L-10.3 -41.25 -10.05 -40.75 -9.8 -40.05 Q-9.55 -39.4 -9.65 -38.85 L-9.65 -38.4 -9.9 -37.7 -10.25 -37.15 Q-10.65 -36.6 -11.55 -36.15 L-12.1 -35.9 -12.7 -35.75 -13.05 -35.6 -13.4 -35.3 -13.4 -34.9 -13.35 -34.7 -12.9 -33.65 -12.9 -33.15 -13.55 -32.8 -14.5 -32.5 Q-14.85 -32.4 -15.0 -32.85 L-16.45 -37.3 -16.55 -37.5 -16.65 -37.9 -16.85 -38.3 -17.0 -38.85 -17.15 -39.2 -17.2 -39.4 -17.55 -40.2 Q-17.75 -40.7 -17.5 -41.0 L-16.75 -41.4 -14.45 -42.25 -13.0 -42.5 -12.15 -42.4 -11.6 -42.25 M-14.4 -40.35 L-14.6 -40.25 -14.9 -39.85 -14.65 -38.65 -14.6 -38.45 -14.35 -37.95 -13.8 -37.55 -12.9 -37.65 -12.3 -37.95 -11.85 -38.4 -11.8 -38.6 -11.7 -38.85 -11.7 -39.0 -11.9 -39.8 -11.9 -39.9 -12.3 -40.35 -12.55 -40.5 -13.5 -40.6 -14.4 -40.35" fill="#ffd245" fill-rule="evenodd" stroke="none"/>
    <path d="M-13.1 -39.65 L-13.75 -39.5 -13.9 -39.45 -13.7 -39.0 -13.65 -38.8 -13.65 -38.75 -13.6 -38.7 -13.55 -38.55 -13.25 -38.6 -12.85 -38.8 -12.8 -38.9 -12.75 -38.9 -12.75 -38.95 -12.7 -39.05 -12.8 -39.4 -12.95 -39.55 -12.95 -39.6 -13.1 -39.65 M-13.5 -40.6 L-13.1 -40.65 -12.55 -40.5 -12.3 -40.35 -11.9 -39.9 -11.9 -39.8 -11.7 -39.0 -11.7 -38.85 -11.8 -38.6 -11.85 -38.4 -12.3 -37.95 -12.9 -37.65 -13.7 -37.5 -13.8 -37.55 -14.35 -37.95 -14.6 -38.45 -14.65 -38.65 -14.9 -39.85 -14.6 -40.25 -14.4 -40.35 -13.5 -40.6 M-13.0 -43.5 L-12.0 -43.4 -11.25 -43.2 Q-10.15 -42.85 -9.45 -41.75 L-9.25 -41.35 -9.2 -41.2 Q-8.95 -40.9 -8.85 -40.4 -8.55 -39.6 -8.65 -38.75 L-8.65 -38.3 -8.7 -38.2 -8.8 -37.85 -8.8 -37.8 -8.85 -37.65 -8.9 -37.4 -8.95 -37.35 -8.95 -37.3 -9.45 -36.55 Q-10.0 -35.8 -11.0 -35.3 L-11.05 -35.25 -11.1 -35.25 -11.75 -34.95 -12.3 -34.8 -12.25 -34.7 -12.15 -34.35 -12.05 -34.25 -11.95 -34.0 Q-11.45 -32.55 -13.25 -31.85 L-13.55 -31.75 -13.85 -31.7 -14.15 -31.55 -14.55 -31.45 Q-15.55 -31.45 -15.9 -32.5 L-16.6 -34.45 -16.65 -34.65 -16.75 -34.85 -16.8 -35.1 -17.25 -36.4 -17.35 -36.9 -17.4 -37.0 -17.4 -37.05 -17.5 -37.2 -17.6 -37.55 -17.8 -38.0 -17.95 -38.55 -18.1 -38.85 -18.15 -39.05 -18.5 -39.85 Q-18.9 -40.9 -18.25 -41.65 L-18.2 -41.7 -17.4 -42.2 -17.35 -42.25 -16.65 -42.5 -16.6 -42.5 -16.45 -42.55 -16.15 -42.7 -14.95 -43.15 -14.75 -43.2 -14.7 -43.2 -13.0 -43.5 M-11.6 -42.25 L-12.15 -42.4 -13.0 -42.5 -14.45 -42.25 -16.75 -41.4 -17.5 -41.0 Q-17.75 -40.7 -17.55 -40.2 L-17.2 -39.4 -17.15 -39.2 -17.0 -38.85 -16.85 -38.3 -16.65 -37.9 -16.55 -37.5 -16.45 -37.3 -16.3 -36.75 -14.95 -32.85 -14.55 -32.45 -14.5 -32.5 -13.55 -32.8 -12.9 -33.15 -12.9 -33.65 -13.35 -34.7 -13.4 -34.9 -13.4 -35.3 -13.05 -35.6 -12.7 -35.75 -12.1 -35.9 -11.55 -36.15 Q-10.65 -36.6 -10.25 -37.15 L-9.9 -37.7 -9.65 -38.4 -9.65 -38.85 Q-9.55 -39.4 -9.8 -40.05 L-10.05 -40.75 -10.3 -41.25 -11.6 -42.25" fill="#b07f00" fill-rule="evenodd" stroke="none"/>
    <path d="M-0.2 -38.1 L-0.65 -37.15 -1.35 -36.2 -1.75 -36.0 -1.95 -35.85 -2.65 -35.45 -3.6 -35.2 -4.35 -35.15 -4.65 -35.2 -5.0 -35.2 -5.95 -35.45 -6.35 -35.7 -7.4 -36.5 -8.1 -37.4 -8.4 -38.25 -8.65 -39.55 -8.5 -41.05 -8.3 -41.65 -8.15 -41.9 -7.95 -42.45 -7.75 -42.7 -7.55 -43.05 -7.05 -43.5 -6.55 -43.9 -6.3 -44.0 -5.95 -44.2 -4.85 -44.45 -3.45 -44.4 -2.5 -44.05 -1.75 -43.55 -1.5 -43.3 -1.3 -43.15 -0.95 -42.7 -0.5 -41.95 -0.3 -41.5 0.0 -39.9 -0.2 -38.1 M-5.05 -42.2 L-5.55 -41.9 -6.1 -41.4 -6.4 -40.75 -6.5 -40.2 -6.5 -39.7 -6.4 -39.2 -6.25 -38.75 -5.9 -38.05 Q-5.6 -37.6 -5.05 -37.35 L-4.85 -37.35 -4.7 -37.3 -4.55 -37.3 -4.2 -37.3 -3.95 -37.3 -3.55 -37.35 -2.85 -37.85 -2.3 -38.65 -2.2 -39.4 -2.2 -39.9 -2.25 -40.3 -2.25 -40.45 -2.3 -40.7 -2.45 -41.05 -2.7 -41.45 -3.3 -42.0 -4.05 -42.25 -4.75 -42.25 -5.05 -42.2" fill="#ffd245" fill-rule="evenodd" stroke="none"/>
    <path d="M-3.55 -40.85 L-3.85 -41.15 -4.2 -41.3 -4.6 -41.25 -4.7 -41.25 -4.85 -41.2 -4.95 -41.1 -5.2 -40.9 -5.25 -40.85 -5.25 -40.8 -5.3 -40.8 -5.45 -40.4 -5.45 -40.35 -5.5 -40.15 -5.5 -39.8 -5.45 -39.4 -5.3 -39.1 -5.1 -38.65 -4.75 -38.35 -4.65 -38.35 -4.45 -38.3 -3.9 -38.3 -3.55 -38.6 -3.25 -39.0 -3.25 -39.1 -3.2 -39.55 -3.2 -39.8 -3.2 -39.95 -3.25 -40.2 -3.25 -40.4 -3.45 -40.8 -3.55 -40.85 M-5.05 -42.2 L-4.2 -42.3 -4.05 -42.25 -3.3 -42.0 -2.7 -41.45 -2.45 -41.05 -2.3 -40.7 -2.25 -40.45 -2.25 -40.3 -2.2 -39.9 -2.2 -39.4 -2.3 -38.65 -2.85 -37.85 -3.55 -37.35 -3.95 -37.3 -4.7 -37.3 -5.05 -37.4 -5.4 -37.6 -5.9 -38.05 -6.25 -38.75 -6.4 -39.2 -6.5 -39.7 -6.5 -40.2 -6.4 -40.75 -6.1 -41.4 -5.55 -41.9 -5.05 -42.2 M0.0 -39.9 L-0.35 -41.5 -0.5 -41.95 -0.95 -42.7 -1.3 -43.15 -1.5 -43.3 -1.75 -43.55 -2.5 -44.05 -3.45 -44.4 -4.85 -44.45 -5.95 -44.2 -6.3 -44.0 -6.55 -43.9 -7.05 -43.5 -7.55 -43.05 -7.75 -42.7 -7.95 -42.45 -8.15 -41.9 -8.3 -41.65 -8.5 -41.05 -8.65 -39.55 -8.4 -38.25 -8.1 -37.4 -7.4 -36.5 -6.35 -35.7 -5.95 -35.45 -5.0 -35.2 -4.65 -35.2 -4.35 -35.15 -3.6 -35.2 -2.65 -35.45 -1.95 -35.85 -1.75 -36.0 -1.35 -36.2 -0.65 -37.15 -0.2 -38.1 0.0 -39.9 M0.05 -42.9 L0.35 -42.45 0.65 -41.8 0.65 -41.75 1.0 -40.0 0.95 -38.9 0.75 -37.85 0.25 -36.65 -0.75 -35.45 -0.7 -35.45 -1.1 -35.2 -1.15 -35.2 -1.4 -35.0 -2.3 -34.5 -2.55 -34.45 -2.7 -34.4 -2.75 -34.4 -2.95 -34.3 -3.5 -34.2 -4.4 -34.15 -4.7 -34.2 -5.1 -34.2 -5.55 -34.3 -5.65 -34.35 -5.85 -34.35 -6.4 -34.55 -6.85 -34.8 -8.1 -35.8 -8.65 -36.45 -8.7 -36.5 -8.7 -36.55 -8.75 -36.55 -8.8 -36.65 -8.9 -36.8 -8.95 -36.85 -8.95 -36.9 -9.35 -38.0 -9.4 -38.0 -9.4 -38.05 -9.65 -39.45 -9.6 -40.15 -9.45 -41.3 -9.25 -41.95 -9.25 -42.0 -9.2 -42.1 -9.2 -42.05 -9.1 -42.3 -9.05 -42.3 -9.05 -42.4 -8.8 -42.95 -8.6 -43.2 -8.6 -43.25 -8.5 -43.35 -8.3 -43.65 -7.95 -44.0 -7.95 -44.05 -7.75 -44.25 -7.05 -44.75 -6.3 -45.1 -5.0 -45.45 -4.1 -45.45 -3.2 -45.35 -3.15 -45.35 -3.15 -45.3 -3.05 -45.3 -2.05 -44.95 -1.15 -44.3 -0.9 -44.1 -0.8 -44.0 -0.65 -43.9 -0.6 -43.85 -0.1 -43.25 0.05 -42.9" fill="#b07f00" fill-rule="evenodd" stroke="none"/>
    <path d="M4.85 -42.65 L4.55 -42.65 4.15 -42.4 Q3.9 -42.1 3.8 -41.25 L3.8 -40.5 Q3.8 -40.05 4.1 -39.85 L5.0 -39.55 5.65 -39.55 5.95 -39.65 6.25 -39.8 6.55 -40.1 6.65 -40.25 6.85 -41.05 6.85 -41.15 6.7 -41.75 6.55 -41.95 5.75 -42.5 4.85 -42.65 M7.0 -44.0 L8.2 -43.15 Q8.85 -42.35 8.85 -41.65 L8.85 -40.35 8.45 -39.2 8.25 -38.85 7.7 -38.3 7.15 -37.95 5.55 -37.6 3.95 -37.8 3.5 -37.65 3.3 -37.3 3.25 -37.1 3.25 -36.35 3.2 -36.0 3.0 -35.5 2.25 -35.5 1.6 -35.6 1.3 -35.6 1.1 -35.75 1.0 -36.15 1.2 -37.35 1.2 -37.9 1.6 -40.6 1.65 -40.8 1.65 -41.05 1.7 -41.4 1.7 -41.9 1.85 -42.8 1.9 -43.9 Q1.95 -44.4 2.35 -44.6 L2.85 -44.65 3.15 -44.6 5.6 -44.4 7.0 -44.0" fill="#ffd245" fill-rule="evenodd" stroke="none"/>
    <path d="M5.8 -41.3 L5.65 -41.45 5.5 -41.5 5.05 -41.6 4.9 -41.6 4.8 -41.1 4.8 -40.65 5.05 -40.55 5.5 -40.55 5.6 -40.6 5.65 -40.6 5.65 -40.65 5.75 -40.7 5.85 -41.1 5.8 -41.3 M7.0 -44.0 L5.6 -44.4 3.15 -44.6 2.85 -44.65 2.6 -44.65 2.35 -44.6 Q1.95 -44.4 1.9 -43.9 L1.85 -42.8 1.7 -41.9 1.7 -41.4 1.65 -41.05 1.65 -40.8 1.6 -40.6 1.2 -37.9 1.2 -37.35 1.0 -36.15 1.1 -35.75 1.3 -35.6 1.6 -35.6 2.7 -35.45 Q3.2 -35.45 3.2 -36.0 L3.25 -36.35 3.25 -37.1 3.3 -37.3 3.5 -37.65 3.95 -37.8 5.55 -37.6 7.15 -37.95 7.7 -38.3 8.25 -38.85 8.45 -39.2 8.85 -40.35 8.85 -41.65 Q8.85 -42.35 8.2 -43.15 L7.0 -44.0 M4.85 -42.65 L5.75 -42.5 6.55 -41.95 6.7 -41.75 6.85 -41.15 6.85 -41.05 6.65 -40.25 6.55 -40.1 6.25 -39.8 5.95 -39.65 5.65 -39.55 5.0 -39.55 4.1 -39.85 Q3.8 -40.05 3.8 -40.5 L3.8 -41.25 Q3.9 -42.1 4.15 -42.4 L4.55 -42.65 4.85 -42.65 M1.95 -45.5 L2.0 -45.5 2.0 -45.55 2.6 -45.65 2.9 -45.6 3.2 -45.6 3.7 -45.55 3.95 -45.55 4.3 -45.5 5.3 -45.45 5.75 -45.35 7.45 -44.9 8.3 -44.35 8.9 -43.85 Q9.75 -42.9 9.85 -41.75 L9.9 -41.3 9.85 -41.15 9.85 -40.25 Q9.75 -39.4 9.3 -38.7 L9.15 -38.4 9.0 -38.25 8.75 -37.95 8.6 -37.8 8.45 -37.6 8.4 -37.55 7.6 -37.05 Q6.75 -36.65 5.65 -36.6 L5.55 -36.6 4.45 -36.7 4.25 -36.75 4.25 -36.15 4.2 -35.85 Q4.1 -34.45 2.7 -34.45 L1.5 -34.6 1.15 -34.6 Q0.6 -34.65 0.3 -35.15 -0.05 -35.65 0.0 -36.25 L0.2 -37.5 0.2 -37.7 0.25 -38.0 0.25 -38.3 0.3 -38.5 0.3 -38.65 0.6 -40.8 0.65 -40.95 0.65 -41.2 0.7 -41.45 0.7 -41.7 0.75 -42.0 0.75 -42.1 0.8 -42.6 0.8 -42.65 0.85 -42.95 0.9 -44.0 Q1.0 -45.1 1.95 -45.5" fill="#b07f00" fill-rule="evenodd" stroke="none"/>
    <path d="M9.6 -43.05 L9.7 -43.35 Q9.8 -43.7 10.35 -43.6 L13.2 -42.7 13.5 -42.65 13.75 -42.55 14.05 -42.5 14.4 -42.35 14.65 -42.3 15.15 -42.1 15.5 -42.05 15.7 -41.95 15.85 -41.7 15.55 -40.55 15.5 -40.35 Q15.4 -39.95 15.0 -40.05 L14.6 -40.15 13.6 -40.25 13.35 -40.05 13.15 -39.65 12.65 -38.05 12.3 -36.55 12.05 -35.95 11.8 -34.9 11.65 -34.55 11.55 -34.1 Q11.5 -33.75 10.85 -33.9 L9.9 -34.2 9.6 -34.25 Q9.4 -34.3 9.4 -34.65 L9.45 -34.9 10.4 -37.9 10.45 -38.2 10.6 -38.6 11.15 -40.55 11.05 -41.1 10.2 -41.5 9.75 -41.6 Q9.25 -41.7 9.35 -42.25 L9.55 -42.8 9.6 -43.05" fill="#ffd245" fill-rule="evenodd" stroke="none"/>
    <path d="M9.6 -43.05 L9.55 -42.8 9.35 -42.25 Q9.25 -41.7 9.75 -41.6 L10.2 -41.5 11.05 -41.1 11.15 -40.55 10.6 -38.6 10.45 -38.2 10.4 -37.9 9.45 -34.9 9.4 -34.65 Q9.4 -34.3 9.6 -34.25 L9.9 -34.2 10.85 -33.9 11.15 -33.85 Q11.45 -33.85 11.55 -34.1 L11.65 -34.55 11.8 -34.9 12.05 -35.95 12.3 -36.55 12.65 -38.05 13.15 -39.65 13.35 -40.05 13.6 -40.25 13.85 -40.3 15.0 -40.05 15.05 -40.05 15.5 -40.35 15.55 -40.55 15.85 -41.7 15.7 -41.95 15.5 -42.05 15.15 -42.1 14.65 -42.3 14.4 -42.35 14.05 -42.5 13.75 -42.55 13.5 -42.65 13.2 -42.7 10.35 -43.6 10.1 -43.65 9.7 -43.35 9.6 -43.05 M8.4 -42.55 L8.75 -43.65 Q9.1 -44.65 10.1 -44.65 L10.65 -44.55 11.2 -44.35 12.9 -43.85 13.2 -43.8 13.4 -43.7 13.45 -43.7 14.0 -43.55 14.05 -43.55 14.1 -43.5 14.35 -43.45 14.6 -43.35 14.7 -43.35 14.75 -43.3 15.0 -43.25 15.3 -43.15 15.4 -43.1 15.45 -43.1 15.8 -43.0 16.3 -42.75 16.35 -42.75 16.85 -41.7 16.7 -40.95 16.55 -40.25 16.5 -40.2 16.5 -40.05 Q16.15 -39.05 15.05 -39.05 L14.9 -39.05 14.3 -39.2 14.1 -39.25 13.85 -38.6 13.85 -38.5 13.3 -36.55 13.25 -36.25 13.1 -35.9 12.75 -34.6 12.65 -34.35 12.65 -34.25 12.6 -34.15 12.55 -33.85 Q12.2 -32.85 11.15 -32.85 L10.25 -33.05 10.15 -33.05 9.95 -33.1 9.65 -33.25 9.55 -33.25 9.4 -33.3 9.35 -33.3 Q8.4 -33.5 8.4 -34.6 L8.4 -34.65 8.5 -35.2 8.65 -35.65 8.7 -35.75 9.2 -37.65 9.35 -38.0 9.4 -38.2 9.45 -38.3 9.5 -38.45 9.65 -38.8 9.65 -38.9 10.1 -40.5 9.9 -40.55 9.8 -40.55 9.45 -40.65 8.55 -41.35 Q8.2 -41.9 8.4 -42.55" fill="#b07f00" fill-rule="evenodd" stroke="none"/>
    <path d="M21.6 -39.1 L22.0 -38.55 22.3 -37.95 22.45 -37.25 22.25 -36.25 22.1 -36.0 21.9 -35.5 Q21.65 -34.9 21.0 -34.45 L20.2 -34.05 19.4 -33.65 19.45 -33.2 19.9 -32.55 20.1 -32.35 20.1 -31.95 19.95 -31.7 19.8 -31.35 19.5 -30.9 19.4 -30.65 19.05 -30.4 18.7 -30.45 Q18.15 -30.75 17.9 -31.45 L17.5 -32.5 17.45 -32.7 17.15 -33.3 16.65 -33.8 16.45 -33.85 16.2 -33.7 15.85 -33.25 15.6 -32.45 Q15.35 -32.15 15.1 -32.3 L14.65 -32.6 13.7 -33.0 Q13.35 -33.2 13.55 -33.6 L13.75 -33.85 13.85 -34.1 15.15 -36.7 15.4 -37.1 17.15 -40.65 Q17.6 -41.35 18.0 -41.15 L18.3 -40.95 21.1 -39.55 21.6 -39.1 M19.9 -37.8 L19.0 -38.4 18.8 -38.4 18.5 -38.3 18.2 -38.0 17.35 -36.2 Q17.2 -35.95 17.4 -35.75 L17.7 -35.55 17.95 -35.45 18.25 -35.45 18.45 -35.4 18.65 -35.45 18.9 -35.55 19.4 -35.8 20.1 -36.55 Q20.4 -37.3 19.9 -37.8" fill="#ffd245" fill-rule="evenodd" stroke="none"/>
    <path d="M18.95 -37.25 L18.85 -36.95 18.55 -36.5 18.65 -36.5 18.85 -36.65 19.2 -37.0 19.2 -37.05 19.1 -37.2 19.05 -37.2 18.95 -37.25 M19.9 -37.8 Q20.4 -37.3 20.1 -36.55 L19.4 -35.8 18.9 -35.55 18.65 -35.45 18.45 -35.4 18.25 -35.45 17.95 -35.45 17.7 -35.55 17.4 -35.75 Q17.2 -35.95 17.35 -36.2 L18.2 -38.0 18.5 -38.3 18.75 -38.4 19.0 -38.4 19.9 -37.8 M21.75 -40.25 L21.65 -40.35 22.3 -39.8 22.35 -39.75 22.4 -39.65 22.85 -39.1 23.25 -38.25 23.3 -38.15 23.3 -38.1 23.4 -37.45 Q23.6 -36.6 23.15 -35.8 L23.05 -35.6 23.0 -35.55 22.95 -35.35 22.8 -35.05 21.6 -33.6 20.7 -33.15 20.8 -33.1 20.85 -33.0 20.95 -32.9 Q21.35 -32.25 21.0 -31.5 L20.85 -31.3 20.85 -31.25 20.7 -30.9 20.4 -30.45 20.35 -30.35 20.3 -30.2 Q19.9 -29.4 19.0 -29.4 L18.25 -29.55 Q17.5 -30.0 16.95 -31.05 L16.55 -32.2 16.45 -32.0 Q16.1 -31.25 15.25 -31.25 L14.7 -31.4 14.3 -31.6 14.3 -31.65 14.2 -31.7 14.15 -31.7 13.65 -31.95 13.5 -32.0 13.25 -32.15 Q12.8 -32.35 12.55 -32.9 12.4 -33.5 12.65 -34.05 L12.85 -34.35 12.95 -34.55 13.05 -34.7 13.6 -35.75 13.7 -35.9 13.75 -36.1 14.1 -36.75 14.25 -37.15 14.5 -37.55 14.55 -37.75 15.6 -39.65 16.05 -40.6 16.15 -40.75 16.25 -41.05 Q16.9 -42.2 17.75 -42.2 L18.45 -42.05 18.65 -41.9 18.75 -41.85 18.9 -41.8 19.05 -41.7 20.85 -40.85 21.75 -40.25 M21.1 -39.55 L20.4 -39.95 18.3 -40.95 18.0 -41.15 17.75 -41.2 17.15 -40.65 15.6 -37.6 15.4 -37.1 15.15 -36.7 13.85 -34.1 13.75 -33.85 13.55 -33.6 Q13.35 -33.2 13.7 -33.0 L14.65 -32.6 15.1 -32.3 15.25 -32.25 15.6 -32.45 15.85 -33.25 16.2 -33.7 16.45 -33.85 16.65 -33.8 17.15 -33.3 17.45 -32.7 17.5 -32.5 17.9 -31.45 Q18.15 -30.75 18.7 -30.45 L19.0 -30.4 Q19.3 -30.4 19.4 -30.65 L19.5 -30.9 19.8 -31.35 19.95 -31.7 20.1 -31.95 20.1 -32.35 19.9 -32.55 19.45 -33.2 19.4 -33.65 20.2 -34.05 21.0 -34.45 Q21.65 -34.9 21.9 -35.5 L22.1 -36.0 22.25 -36.25 22.45 -37.25 22.3 -37.95 22.0 -38.55 21.6 -39.1 21.1 -39.55" fill="#b07f00" fill-rule="evenodd" stroke="none"/>
    <path d="M22.85 -34.2 L23.7 -34.8 24.25 -35.1 24.5 -35.15 25.1 -35.4 25.8 -35.5 26.45 -35.5 27.1 -35.4 27.7 -35.15 28.7 -34.6 29.6 -33.55 30.05 -32.6 30.2 -31.7 30.2 -31.1 30.15 -30.6 29.9 -29.75 29.7 -29.25 28.8 -27.95 28.15 -27.35 27.35 -26.85 Q27.05 -26.6 26.35 -26.45 L25.2 -26.35 24.8 -26.45 24.5 -26.45 23.8 -26.7 23.25 -27.0 22.35 -27.7 21.95 -28.2 21.45 -29.1 21.35 -29.5 21.2 -30.85 21.25 -31.6 21.35 -31.95 21.75 -32.8 22.85 -34.2 M24.5 -32.75 L24.15 -32.5 24.1 -32.45 23.8 -32.0 23.6 -31.6 23.35 -30.9 23.35 -30.2 23.45 -29.8 23.7 -29.45 23.75 -29.35 24.0 -29.1 24.5 -28.7 25.35 -28.55 26.25 -28.7 26.9 -29.15 27.65 -29.95 27.75 -30.1 28.0 -30.9 28.0 -31.8 27.65 -32.5 26.9 -33.15 26.35 -33.3 25.6 -33.35 24.9 -33.1 24.5 -32.75" fill="#ffd245" fill-rule="evenodd" stroke="none"/>
    <path d="M26.3 -32.3 L26.2 -32.35 25.75 -32.35 25.35 -32.2 25.3 -32.15 25.1 -32.0 24.9 -31.8 24.65 -31.45 24.5 -31.15 24.35 -30.7 24.35 -30.25 24.4 -30.15 24.45 -30.15 24.55 -30.0 24.55 -29.95 24.65 -29.85 24.75 -29.8 24.95 -29.6 25.4 -29.55 25.85 -29.6 25.95 -29.7 26.5 -30.1 26.85 -30.6 27.0 -31.05 27.0 -31.55 26.85 -31.9 26.55 -32.2 26.45 -32.25 26.3 -32.3 M24.5 -32.75 L24.9 -33.1 25.6 -33.35 25.9 -33.35 26.35 -33.3 26.9 -33.15 27.2 -32.95 27.65 -32.5 28.0 -31.8 28.0 -30.9 27.75 -30.1 27.65 -29.95 26.9 -29.15 26.25 -28.7 25.4 -28.55 25.35 -28.55 24.5 -28.7 24.0 -29.1 23.75 -29.35 23.7 -29.45 23.45 -29.8 23.35 -30.2 23.35 -30.9 23.6 -31.6 23.8 -32.0 24.1 -32.45 24.15 -32.5 24.5 -32.75 M24.5 -35.15 L24.25 -35.1 23.7 -34.8 22.85 -34.2 21.75 -32.8 21.35 -31.95 21.25 -31.6 21.2 -30.85 21.35 -29.5 21.45 -29.1 21.95 -28.2 22.35 -27.7 23.25 -27.0 23.8 -26.7 24.5 -26.45 24.8 -26.45 25.35 -26.3 26.35 -26.45 Q27.05 -26.6 27.35 -26.85 L28.15 -27.35 28.8 -27.95 29.7 -29.25 29.9 -29.75 30.15 -30.6 30.2 -31.7 30.05 -32.6 29.6 -33.55 28.7 -34.6 27.7 -35.15 27.1 -35.4 26.45 -35.5 25.8 -35.5 25.1 -35.4 24.5 -35.15 M24.15 -36.1 L24.8 -36.35 25.15 -36.4 25.25 -36.4 25.3 -36.45 25.65 -36.5 26.45 -36.5 27.4 -36.35 27.65 -36.25 27.7 -36.25 27.7 -36.2 27.8 -36.2 28.1 -36.1 29.3 -35.35 29.9 -34.75 30.45 -34.05 30.5 -34.0 30.5 -33.95 30.95 -33.0 31.2 -31.8 31.2 -31.1 31.1 -30.3 30.95 -29.8 30.9 -29.45 30.6 -28.8 Q30.15 -27.9 29.55 -27.3 29.1 -26.75 28.7 -26.55 L28.65 -26.45 27.85 -25.95 26.65 -25.5 25.35 -25.3 24.65 -25.45 24.6 -25.45 24.25 -25.5 24.4 -25.5 23.35 -25.8 23.1 -25.95 22.95 -26.0 22.9 -26.05 22.75 -26.1 22.25 -26.45 21.6 -27.05 21.15 -27.6 20.9 -28.0 20.85 -28.1 20.75 -28.25 20.5 -28.8 20.4 -29.15 20.4 -29.25 20.35 -29.3 20.2 -30.9 20.3 -31.7 20.3 -31.85 20.35 -31.95 20.35 -32.2 20.4 -32.25 20.65 -32.95 20.9 -33.3 20.9 -33.35 21.75 -34.5 22.25 -35.0 23.25 -35.7 23.2 -35.65 23.9 -36.05 24.15 -36.1" fill="#b07f00" fill-rule="evenodd" stroke="none"/>
    <path d="M35.5 -27.55 L36.25 -26.25 36.45 -24.85 Q36.45 -24.05 35.9 -23.3 L34.95 -22.4 33.85 -21.9 33.45 -21.75 32.7 -21.75 32.05 -21.9 30.7 -22.8 29.7 -24.05 29.3 -24.25 28.9 -24.15 28.75 -24.05 27.9 -23.3 27.45 -23.1 26.85 -23.6 26.5 -24.15 26.25 -24.4 Q26.15 -24.5 26.2 -24.65 L26.45 -24.95 29.5 -27.3 29.7 -27.5 31.75 -29.1 31.9 -29.2 32.55 -29.8 Q32.95 -30.15 33.35 -30.0 L33.75 -29.65 33.95 -29.45 35.25 -27.9 35.5 -27.55 M33.1 -27.2 L32.05 -26.6 31.85 -26.45 31.7 -26.25 31.5 -26.05 Q31.2 -25.75 31.25 -25.4 L31.65 -24.6 32.15 -24.1 32.4 -23.95 32.7 -23.85 33.2 -23.85 33.35 -23.9 34.05 -24.35 34.1 -24.35 34.4 -24.9 34.45 -25.15 34.25 -26.1 33.75 -26.85 33.55 -27.05 33.1 -27.2" fill="#ffd245" fill-rule="evenodd" stroke="none"/>
    <path d="M33.5 -25.45 L33.2 -25.9 33.15 -26.0 33.1 -26.0 33.05 -26.1 32.5 -25.7 32.5 -25.65 32.45 -25.6 32.3 -25.5 32.3 -25.45 Q32.3 -25.3 32.45 -25.25 L32.75 -24.9 32.85 -24.85 33.0 -24.85 33.35 -25.05 33.5 -25.25 33.5 -25.45 M33.1 -27.2 L33.2 -27.2 33.55 -27.05 33.75 -26.85 34.25 -26.1 34.45 -25.15 34.4 -24.9 34.1 -24.35 34.05 -24.3 33.35 -23.9 33.2 -23.85 32.7 -23.85 32.4 -23.95 32.15 -24.1 31.65 -24.6 31.25 -25.4 Q31.2 -25.75 31.5 -26.05 L31.7 -26.25 31.85 -26.45 32.05 -26.6 33.1 -27.2 M35.5 -27.55 L35.25 -27.9 33.95 -29.45 33.75 -29.65 33.35 -30.0 33.05 -30.05 32.55 -29.8 31.9 -29.2 31.75 -29.1 29.7 -27.5 29.5 -27.3 26.45 -24.95 26.2 -24.65 Q26.15 -24.5 26.25 -24.4 L26.5 -24.15 26.85 -23.65 27.5 -23.1 27.9 -23.3 28.75 -24.05 28.9 -24.15 29.15 -24.25 29.3 -24.25 29.7 -24.05 30.7 -22.8 32.05 -21.9 32.7 -21.75 33.45 -21.75 33.85 -21.9 34.95 -22.4 35.9 -23.3 Q36.45 -24.05 36.45 -24.85 L36.25 -26.25 35.5 -27.55 M35.25 -29.45 L36.3 -28.15 37.15 -26.6 37.4 -25.6 37.45 -24.8 Q37.45 -23.65 36.7 -22.7 L35.6 -21.65 Q35.1 -21.25 34.1 -20.9 L33.8 -20.85 33.65 -20.8 33.6 -20.75 32.65 -20.75 31.75 -20.95 Q30.95 -21.2 30.0 -22.1 L29.5 -22.6 29.25 -22.95 29.2 -23.1 29.1 -23.0 28.8 -22.8 28.75 -22.7 28.5 -22.5 Q28.1 -22.1 27.5 -22.1 26.75 -22.1 26.1 -23.0 L25.7 -23.5 25.65 -23.6 25.45 -23.8 Q25.15 -24.2 25.25 -24.8 25.35 -25.4 25.8 -25.75 L27.4 -26.95 27.6 -27.15 27.8 -27.3 27.95 -27.45 29.1 -28.3 29.5 -28.55 29.6 -28.65 29.95 -28.9 30.15 -29.1 30.4 -29.3 30.45 -29.35 30.85 -29.65 31.1 -29.9 31.25 -30.0 31.5 -30.25 31.95 -30.6 33.05 -31.05 33.7 -30.95 33.75 -30.9 34.5 -30.35 34.55 -30.25 35.0 -29.75 35.05 -29.65 35.25 -29.45" fill="#b07f00" fill-rule="evenodd" stroke="none"/>
    <path d="M37.25 -22.45 L37.95 -22.95 Q38.4 -23.2 38.65 -22.95 L38.75 -22.7 39.0 -22.35 39.25 -21.85 39.4 -21.65 39.4 -21.35 39.15 -21.0 38.7 -20.8 38.35 -20.55 37.75 -20.25 37.0 -19.75 33.8 -17.95 32.05 -16.85 Q31.7 -16.7 31.5 -17.0 L30.75 -18.3 Q30.55 -18.65 30.85 -18.8 L31.05 -18.95 31.85 -19.35 36.8 -22.25 37.25 -22.45" fill="#ffd245" fill-rule="evenodd" stroke="none"/>
    <path d="M37.25 -22.45 L36.8 -22.25 31.85 -19.35 31.05 -18.95 30.85 -18.8 Q30.55 -18.65 30.75 -18.3 L31.5 -17.0 Q31.6 -16.8 31.85 -16.8 L32.05 -16.85 33.8 -17.95 38.35 -20.55 38.7 -20.8 39.15 -21.0 39.4 -21.35 39.4 -21.65 39.25 -21.85 39.0 -22.35 38.75 -22.7 38.65 -22.95 38.35 -23.05 37.95 -22.95 37.25 -22.45 M33.1 -21.3 L34.0 -21.75 35.25 -22.55 36.0 -22.9 36.3 -23.1 36.7 -23.3 37.45 -23.8 38.35 -24.05 Q39.05 -24.05 39.45 -23.5 L39.5 -23.45 39.6 -23.2 39.65 -23.15 39.85 -22.85 40.0 -22.55 40.1 -22.4 40.15 -22.35 40.25 -22.15 Q40.55 -21.65 40.35 -20.95 L39.65 -20.15 39.25 -19.9 38.3 -19.4 37.15 -18.7 37.0 -18.65 35.4 -17.65 35.15 -17.55 34.65 -17.25 34.55 -17.2 34.5 -17.2 34.3 -17.1 32.95 -16.25 32.8 -16.2 32.55 -16.0 31.85 -15.8 Q31.1 -15.8 30.65 -16.5 L30.5 -16.8 30.1 -17.5 30.05 -17.55 30.05 -17.6 29.9 -17.8 Q29.3 -18.8 30.15 -19.55 L30.5 -19.8 30.55 -19.85 30.95 -20.0 30.95 -20.05 32.6 -21.0 32.85 -21.1 33.1 -21.3" fill="#b07f00" fill-rule="evenodd" stroke="none"/>
    <path d="M39.35 -18.4 L40.65 -17.85 41.4 -17.2 42.25 -15.75 42.45 -15.15 42.1 -14.7 41.1 -14.25 40.8 -14.2 40.55 -14.45 40.35 -15.0 Q39.9 -16.0 39.1 -16.15 L38.2 -16.25 37.2 -15.95 Q36.0 -15.45 35.55 -14.15 35.35 -13.5 35.65 -12.9 L35.95 -12.4 35.7 -11.95 35.4 -11.85 35.15 -11.7 34.7 -11.6 34.5 -11.5 34.1 -11.55 33.85 -11.85 33.55 -12.6 33.45 -12.95 33.35 -13.85 33.45 -14.55 33.6 -14.95 33.75 -15.55 33.85 -15.75 34.5 -16.65 35.55 -17.55 36.15 -17.85 36.45 -17.95 37.15 -18.25 38.1 -18.45 39.35 -18.4" fill="#ffd245" fill-rule="evenodd" stroke="none"/>
    <path d="M38.45 -19.5 L39.6 -19.35 39.35 -19.4 40.3 -19.15 41.25 -18.65 42.15 -17.85 43.2 -16.15 43.45 -15.35 Q43.6 -14.25 42.5 -13.75 L42.0 -13.6 41.5 -13.35 40.8 -13.2 40.6 -13.2 Q39.9 -13.35 39.6 -14.05 L39.5 -14.35 39.5 -14.45 39.45 -14.6 39.1 -15.0 38.85 -15.2 38.25 -15.25 37.6 -15.0 37.1 -14.65 36.5 -13.8 36.55 -13.3 36.6 -13.2 36.75 -13.05 36.85 -12.8 36.9 -11.8 36.15 -11.05 35.9 -10.95 35.85 -10.95 35.55 -10.8 35.2 -10.7 34.9 -10.55 34.35 -10.45 33.5 -10.7 32.9 -11.45 32.65 -12.25 32.6 -12.3 32.6 -12.35 32.5 -12.7 Q32.35 -13.2 32.35 -13.85 32.35 -14.4 32.5 -14.8 L32.5 -14.9 32.55 -14.95 32.9 -16.1 32.9 -16.15 32.95 -16.2 32.95 -16.25 33.75 -17.35 35.0 -18.4 35.05 -18.4 35.05 -18.45 35.75 -18.8 36.0 -18.85 36.05 -18.9 36.1 -18.9 36.35 -19.05 36.9 -19.2 37.2 -19.25 37.95 -19.45 38.45 -19.5 M39.35 -18.4 L38.45 -18.5 37.15 -18.25 36.45 -17.95 36.15 -17.85 35.55 -17.55 34.5 -16.65 33.85 -15.75 33.75 -15.5 33.45 -14.55 33.35 -13.85 33.45 -12.95 33.55 -12.6 33.85 -11.85 34.1 -11.55 Q34.15 -11.45 34.35 -11.45 L34.5 -11.5 34.7 -11.6 35.15 -11.7 35.45 -11.85 35.7 -11.95 35.95 -12.4 35.65 -12.9 Q35.35 -13.5 35.55 -14.15 36.0 -15.45 37.2 -15.95 L38.2 -16.25 39.1 -16.15 Q39.9 -16.0 40.35 -15.0 L40.55 -14.45 40.8 -14.2 41.1 -14.25 42.1 -14.7 42.45 -15.15 42.25 -15.75 41.4 -17.2 40.65 -17.85 39.35 -18.4" fill="#b07f00" fill-rule="evenodd" stroke="none"/>
    <path d="M34.8 -11.0 L36.9 -11.05 39.65 -11.05 39.9 -11.0 40.1 -11.0 41.2 -11.0 41.6 -11.0 41.9 -10.95 42.25 -11.0 43.35 -10.9 43.85 -10.2 44.2 -8.6 44.2 -7.6 43.6 -7.1 42.7 -6.6 42.25 -6.4 42.05 -6.35 41.85 -6.2 40.2 -5.4 39.85 -5.3 39.6 -5.15 38.8 -4.8 38.55 -4.65 36.8 -3.85 36.55 -3.7 36.2 -3.6 Q35.95 -3.55 35.85 -4.1 L35.65 -4.75 35.6 -5.55 36.0 -5.9 36.3 -6.1 36.4 -6.2 36.7 -6.65 Q36.85 -6.9 36.6 -7.4 L36.55 -7.85 36.4 -8.2 36.05 -8.7 35.2 -8.85 34.9 -8.9 34.7 -9.3 34.6 -9.95 34.5 -10.3 34.45 -10.7 34.8 -11.0 M38.5 -8.0 L38.7 -7.4 Q38.8 -7.15 39.05 -7.2 L39.2 -7.25 40.0 -7.6 40.35 -7.8 40.75 -7.95 41.4 -8.3 41.65 -8.65 41.45 -8.85 40.55 -8.95 39.95 -8.95 39.65 -8.9 39.4 -8.95 38.95 -8.9 Q38.35 -8.75 38.5 -8.0" fill="#ffd245" fill-rule="evenodd" stroke="none"/>
    <path d="M39.65 -8.9 L39.85 -8.95 40.55 -8.95 41.45 -8.85 41.65 -8.65 41.4 -8.3 40.75 -7.95 40.35 -7.8 40.0 -7.6 39.2 -7.25 39.05 -7.2 38.95 -7.2 38.7 -7.4 38.5 -8.0 Q38.35 -8.75 38.95 -8.9 L39.2 -8.95 39.4 -8.95 39.6 -8.9 39.65 -8.9 M34.8 -11.0 L34.45 -10.7 34.5 -10.3 34.6 -9.95 34.7 -9.3 34.9 -8.9 35.1 -8.8 35.2 -8.85 35.35 -8.85 36.05 -8.7 36.4 -8.2 36.55 -7.85 36.6 -7.45 36.7 -6.65 36.4 -6.2 36.3 -6.1 36.0 -5.9 35.6 -5.55 35.65 -4.75 35.85 -4.1 Q35.95 -3.55 36.15 -3.55 L36.2 -3.6 36.55 -3.7 36.8 -3.85 38.55 -4.65 38.8 -4.8 39.6 -5.15 39.85 -5.3 40.2 -5.4 42.05 -6.35 42.25 -6.4 42.7 -6.6 43.6 -7.1 44.2 -7.6 44.2 -8.6 43.85 -10.2 Q43.65 -11.0 42.65 -11.0 L42.25 -11.0 42.05 -10.95 41.9 -10.95 41.6 -11.0 41.2 -11.0 41.0 -11.05 39.9 -11.0 39.65 -11.05 36.9 -11.05 36.35 -11.0 34.8 -11.0 M33.55 -11.1 Q33.8 -11.8 34.6 -12.0 L36.35 -12.0 36.55 -12.05 38.75 -12.05 39.8 -12.0 41.0 -12.05 41.2 -12.0 41.9 -12.0 41.95 -11.95 42.05 -11.95 42.15 -12.0 42.65 -12.0 Q44.45 -12.0 44.85 -10.4 L44.9 -10.05 45.15 -9.0 45.15 -8.9 Q45.5 -7.95 45.1 -7.2 44.85 -6.65 44.05 -6.2 L43.8 -6.05 43.55 -5.95 43.2 -5.75 43.15 -5.7 42.65 -5.5 42.6 -5.45 42.5 -5.45 42.45 -5.4 42.4 -5.4 42.35 -5.35 42.3 -5.35 41.55 -4.95 41.45 -4.95 41.3 -4.85 40.55 -4.5 40.5 -4.5 40.5 -4.45 40.35 -4.4 40.3 -4.4 40.15 -4.3 40.05 -4.25 40.0 -4.25 37.25 -2.95 36.95 -2.75 37.0 -2.8 36.45 -2.6 36.15 -2.6 Q35.15 -2.6 34.9 -3.85 L34.8 -4.1 34.7 -4.55 Q34.35 -6.1 35.45 -6.8 L35.65 -6.9 35.7 -6.9 35.65 -7.2 35.5 -7.75 35.45 -7.8 35.35 -7.85 35.1 -7.8 34.35 -8.05 Q33.95 -8.35 33.75 -9.1 L33.65 -9.45 33.65 -9.7 33.6 -9.75 33.5 -10.1 Q33.35 -10.7 33.55 -11.1" fill="#b07f00" fill-rule="evenodd" stroke="none"/>
    <path d="M23.65 -0.2 L26.0 -0.2 26.0 6.95 23.65 6.95 23.65 9.3 21.25 9.3 21.25 16.4 18.9 16.4 18.9 21.15 16.5 21.15 16.5 23.55 14.15 23.55 14.15 25.9 9.4 25.9 9.4 28.3 4.65 28.3 4.65 30.65 -7.05 30.65 -7.05 28.3 -11.95 28.3 -11.95 25.9 -16.7 25.9 -16.7 23.55 -19.05 23.55 -19.05 21.15 -21.45 21.15 -21.45 18.8 -23.8 18.8 -23.8 11.65 -26.15 11.65 -26.15 9.3 -28.55 9.3 -28.55 -0.2 -26.15 -0.2 -26.15 -2.55 -21.45 -2.55 -21.45 -4.95 -14.3 -4.95 -14.3 -16.8 -11.95 -16.8 -11.95 -26.3 -9.55 -26.3 -9.55 -28.65 7.05 -28.65 7.05 -26.3 9.4 -26.3 9.4 -19.15 11.8 -19.15 11.8 -4.95 18.9 -4.95 18.9 -2.55 23.65 -2.55 23.65 -0.2" fill="#d4a000" fill-rule="evenodd" stroke="none"/>
    <path d="M23.65 -4.05 L23.65 5.4 -19.05 5.4 -19.05 -4.05 23.65 -4.05" fill="#d6a200" fill-rule="evenodd" stroke="none"/>
    <path d="M11.75 -11.2 L-9.55 -11.2 -9.55 -20.65 11.75 -20.65 11.75 -11.2" fill="#ebb200" fill-rule="evenodd" stroke="none"/>
    <path d="M9.4 -15.95 L-7.2 -15.95 -7.2 -27.8 9.4 -27.8 9.4 -15.95" fill="#ebb200" fill-rule="evenodd" stroke="none"/>
    <path d="M14.15 -11.2 L14.15 -4.05 -11.95 -4.05 -11.95 -11.2 14.15 -11.2" fill="#b07f00" fill-rule="evenodd" stroke="none"/>
    <path d="M9.4 -11.2 L-9.55 -11.2 -9.55 -20.65 9.4 -20.65 9.4 -11.2" fill="#d6a200" fill-rule="evenodd" stroke="none"/>
    <path d="M7.05 -15.95 L-9.55 -15.95 -9.55 -25.4 7.05 -25.4 7.05 -15.95" fill="#d6a200" fill-rule="evenodd" stroke="none"/>
    <path d="M26.0 -1.7 L26.0 7.8 -19.05 7.8 -19.05 10.15 -21.45 10.15 -21.45 7.8 -23.8 7.8 -23.8 -1.7 26.0 -1.7" fill="#c28c00" fill-rule="evenodd" stroke="none"/>
    <path d="M18.9 22.0 L-16.7 22.0 -16.7 14.9 18.9 14.9 18.9 22.0" fill="#ffcc67" fill-rule="evenodd" stroke="none"/>
    <path d="M9.4 26.75 L-9.55 26.75 -9.55 19.65 9.4 19.65 9.4 26.75" fill="#ffcc67" fill-rule="evenodd" stroke="none"/>
    <path d="M-2.45 7.8 L-11.95 7.8 -11.95 -6.45 -2.45 -6.45 -2.45 7.8" fill="#ffffff" fill-rule="evenodd" stroke="none"/>
    <path d="M23.65 7.8 L23.65 12.55 21.25 12.55 21.25 17.3 -19.05 17.3 -19.05 5.4 -16.7 5.4 -16.7 3.05 -14.3 3.05 -14.3 7.8 -9.55 7.8 -9.55 3.05 -0.1 3.05 -0.1 0.65 9.4 0.65 9.4 3.05 14.15 3.05 14.15 7.8 18.9 7.8 18.9 3.05 21.25 3.05 21.25 7.8 23.65 7.8" fill="#ffc200" fill-rule="evenodd" stroke="none"/>
    <path d="M18.9 0.6 L18.9 7.8 16.5 7.8 16.5 10.15 9.4 10.15 9.4 7.8 7.05 7.8 7.05 0.6 18.9 0.6" fill="#ffdf7a" fill-rule="evenodd" stroke="none"/>
    <path d="M-23.8 0.65 L-23.8 -1.7 -19.05 -1.7 -19.05 0.65 -23.8 0.65" fill="#d6a200" fill-rule="evenodd" stroke="none"/>
    <path d="M21.25 -1.7 L26.0 -1.7 26.0 0.65 21.25 0.65 21.25 -1.7" fill="#d6a200" fill-rule="evenodd" stroke="none"/>
    <path d="M-2.45 5.4 L-0.1 5.4 -0.1 7.8 -2.45 7.8 -2.45 5.4" fill="#ffffff" fill-rule="evenodd" stroke="none"/>
    <path d="M-14.3 -4.05 L-0.1 -4.05 -0.1 7.8 -2.45 7.8 -2.45 10.15 -14.3 10.15 -14.3 -4.05" fill="#ffdf7a" fill-rule="evenodd" stroke="none"/>
    <path d="M-7.2 7.8 L-4.85 7.8 -4.85 10.15 -7.2 10.15 -7.2 7.8" fill="#ffdf7a" fill-rule="evenodd" stroke="none"/>
    <path d="M-9.55 7.8 L-7.2 7.8 -7.2 10.15 -9.55 10.15 -9.55 7.8" fill="#ffdf7a" fill-rule="evenodd" stroke="none"/>
    <path d="M11.75 7.8 L16.5 7.8 16.5 10.15 11.75 10.15 11.75 7.8" fill="#ffdf7a" fill-rule="evenodd" stroke="none"/>
    <path d="M16.5 5.4 L18.9 5.4 18.9 7.8 16.5 7.8 16.5 5.4" fill="#ffdf7a" fill-rule="evenodd" stroke="none"/>
    <path d="M11.75 7.8 L14.15 7.8 14.15 10.15 11.75 10.15 11.75 7.8" fill="#ffdf7a" fill-rule="evenodd" stroke="none"/>
    <path d="M21.25 10.15 L18.9 10.15 18.9 7.8 21.25 7.8 21.25 10.15" fill="#ffc200" fill-rule="evenodd" stroke="none"/>
    <path d="M-16.7 5.4 L-14.3 5.4 -14.3 7.8 -16.7 7.8 -16.7 5.4" fill="#ffc200" fill-rule="evenodd" stroke="none"/>
    <path d="M-11.95 10.15 L-2.45 10.15 -2.45 12.55 -11.95 12.55 -11.95 10.15" fill="#ebb200" fill-rule="evenodd" stroke="none"/>
    <path d="M9.4 10.15 L16.5 10.15 16.5 12.55 9.4 12.55 9.4 10.15" fill="#ebb200" fill-rule="evenodd" stroke="none"/>
    <path d="M-2.45 -4.05 L-0.1 -4.05 -0.1 0.65 -14.3 0.65 -14.3 -4.05 -11.95 -4.05 -11.95 -6.45 -2.45 -6.45 -2.45 -4.05" fill="#ffc200" fill-rule="evenodd" stroke="none"/>
    <path d="M9.4 -4.05 L16.5 -4.05 16.5 0.65 9.4 0.65 9.4 -4.05" fill="#ffc200" fill-rule="evenodd" stroke="none"/>
    <path d="M-14.3 7.8 L-11.95 7.8 -11.95 10.15 -14.3 10.15 -14.3 7.8" fill="#ebb200" fill-rule="evenodd" stroke="none"/>
    <path d="M-2.45 7.8 L-0.1 7.8 -0.1 10.15 -2.45 10.15 -2.45 7.8" fill="#ebb200" fill-rule="evenodd" stroke="none"/>
    <path d="M7.05 7.8 L9.4 7.8 9.4 10.15 7.05 10.15 7.05 7.8" fill="#ebb200" fill-rule="evenodd" stroke="none"/>
    <path d="M16.5 7.8 L18.9 7.8 18.9 10.15 16.5 10.15 16.5 7.8" fill="#ebb200" fill-rule="evenodd" stroke="none"/>
    <path d="M21.25 14.9 L21.25 19.65 18.9 19.65 18.9 22.0 16.5 22.0 16.5 24.4 11.75 24.4 11.75 26.75 -9.55 26.75 -9.55 24.4 -14.3 24.4 -14.3 22.0 -16.7 22.0 -16.7 17.3 -19.05 17.3 -19.05 12.55 -16.7 12.55 -16.7 14.9 -11.95 14.9 -11.95 17.3 -4.85 17.3 -4.85 14.9 11.75 14.9 11.75 17.3 16.5 17.3 16.5 14.9 21.25 14.9" fill="#e3ac00" fill-rule="evenodd" stroke="none"/>
    <path d="M-0.1 -13.55 L9.4 -13.55 9.4 -4.05 -0.1 -4.05 -0.1 -13.55" fill="#ffd245" fill-rule="evenodd" stroke="none"/>
    <path d="M2.55 -11.2 L6.75 -11.2 6.75 -6.45 2.55 -6.45 2.55 -11.2" fill="#b07f00" fill-rule="evenodd" stroke="none"/>
    <path d="M7.05 -1.7 L18.9 -1.7 18.9 0.65 7.05 0.65 7.05 -1.7" fill="#ffcc67" fill-rule="evenodd" stroke="none"/>
    <path d="M7.05 -1.7 L18.9 -1.7 18.9 0.65 7.05 0.65 7.05 -1.7" fill="#ebb200" fill-rule="evenodd" stroke="none"/>
    <path d="M-14.3 -1.7 L-0.1 -1.7 -0.1 0.65 -14.3 0.65 -14.3 -1.7" fill="#ebb200" fill-rule="evenodd" stroke="none"/>
    <path d="M-2.45 19.65 L7.05 19.65 7.05 22.0 -2.45 22.0 -2.45 19.65" fill="#b07f00" fill-rule="evenodd" stroke="none"/>
    <path d="M28.4 -1.7 L28.4 5.4 26.0 5.4 26.0 7.8 23.65 7.8 23.65 14.9 21.25 14.9 21.25 19.65 18.9 19.65 18.9 22.0 16.5 22.0 16.5 24.4 11.75 24.4 11.75 26.75 7.05 26.75 7.05 29.15 -4.7 29.15 -4.7 26.75 7.05 26.75 7.05 24.4 11.75 24.4 11.75 22.0 16.5 22.0 16.5 19.65 18.9 19.65 18.9 14.9 21.25 14.9 21.25 7.8 23.65 7.8 23.65 5.4 26.0 5.4 26.0 -1.7 21.25 -1.7 21.25 -4.05 14.15 -4.05 14.15 -6.45 11.75 -6.45 11.75 -20.65 9.4 -20.65 9.4 -27.8 -7.2 -27.8 -7.2 -18.3 -9.55 -18.3 -9.55 -6.45 -11.95 -6.45 -11.95 -4.05 -19.05 -4.05 -19.05 -1.7 -23.8 -1.7 -23.8 7.8 -21.45 7.8 -21.45 10.15 -19.05 10.15 -19.05 17.3 -16.7 17.3 -16.7 19.65 -14.3 19.65 -14.3 22.0 -9.55 22.0 -9.55 24.4 -4.85 24.4 -4.85 26.75 -9.55 26.75 -9.55 24.4 -14.3 24.4 -14.3 22.0 -16.7 22.0 -16.7 19.65 -19.05 19.65 -19.05 17.3 -21.45 17.3 -21.45 10.15 -23.8 10.15 -23.8 7.8 -26.15 7.8 -26.15 -1.7 -23.8 -1.7 -23.8 -4.05 -19.05 -4.05 -19.05 -6.45 -11.95 -6.45 -11.95 -18.3 -9.55 -18.3 -9.55 -27.8 -7.2 -27.8 -7.2 -30.15 9.4 -30.15 9.4 -27.8 11.75 -27.8 11.75 -20.65 14.15 -20.65 14.15 -6.45 21.25 -6.45 21.25 -4.05 26.0 -4.05 26.0 -1.7 28.4 -1.7" fill="#a87900" fill-rule="evenodd" stroke="none"/>
    <path d="M11.75 3.05 L16.5 3.05 16.5 7.8 11.75 7.8 11.75 3.05" fill="#b07f00" fill-rule="evenodd" stroke="none"/>
    <path d="M-7.2 3.05 L-2.45 3.05 -2.45 7.8 -7.2 7.8 -7.2 3.05" fill="#b07f00" fill-rule="evenodd" stroke="none"/>
  </g>
</svg>
