<?xml version="1.0" encoding="UTF-8" standalone="no"?>
<svg xmlns:ffdec="https://www.free-decompiler.com/flash" xmlns:xlink="http://www.w3.org/1999/xlink" ffdec:objectType="shape" height="92.35px" width="83.2px" xmlns="http://www.w3.org/2000/svg">
  <g transform="matrix(1.0, 0.0, 0.0, 1.0, 41.4, 46.15)">
    <path d="M-17.2 39.5 L-17.0 38.8 -17.45 38.95 -17.2 39.5 M-11.7 38.5 L-11.85 38.35 -12.0 38.05 -12.5 37.85 -12.55 38.05 -12.6 38.15 -13.25 40.25 -12.95 40.35 -12.85 40.4 -12.7 40.4 -12.35 40.35 Q-11.95 40.25 -11.7 39.55 L-11.65 39.25 -11.65 39.1 -11.6 38.9 -11.6 38.85 -11.65 38.75 -11.7 38.5 M18.3 35.2 L18.15 35.15 17.85 35.15 17.5 35.3 17.45 35.35 17.35 35.4 17.3 35.45 17.3 35.5 17.15 35.75 17.15 35.85 17.1 36.2 17.1 36.3 17.2 36.5 17.25 36.65 17.25 36.75 17.45 37.05 17.5 37.15 17.65 37.25 17.95 37.6 18.3 37.7 18.4 37.7 18.55 37.65 18.65 37.65 18.7 37.6 18.85 37.55 18.9 37.5 19.05 37.45 19.2 37.15 19.3 36.75 19.3 36.65 19.15 36.05 18.85 35.6 18.6 35.3 18.5 35.3 18.3 35.2 M28.1 28.0 L30.3 30.65 30.35 30.7 30.4 30.8 31.25 31.7 Q32.15 32.75 31.05 33.7 L30.5 34.1 30.2 34.4 29.25 34.75 28.4 34.5 28.15 34.45 28.05 34.4 26.75 33.95 27.1 34.3 27.1 34.35 27.5 34.75 27.8 35.7 27.55 36.45 26.75 37.2 26.65 37.35 26.45 37.5 25.6 37.85 25.5 37.9 25.45 37.9 Q24.85 37.9 24.45 37.4 L24.4 37.35 24.4 37.3 24.15 37.0 24.05 36.9 23.8 36.6 23.65 36.35 23.55 36.3 23.4 36.1 23.2 35.9 23.3 36.35 23.25 37.6 22.8 39.0 22.4 39.6 22.35 39.65 21.75 40.35 21.55 40.5 21.45 40.55 21.45 40.6 21.4 40.6 20.8 41.0 20.05 41.35 19.4 41.55 18.95 41.6 18.85 41.6 18.7 41.65 18.3 41.7 18.15 41.65 17.8 41.6 17.65 41.6 16.25 41.15 15.55 40.8 15.4 40.65 15.2 40.55 15.1 40.45 15.1 40.55 15.4 41.45 15.6 41.85 15.55 42.85 14.75 43.55 14.5 43.6 14.4 43.65 13.75 43.9 13.65 43.9 13.45 44.0 13.0 44.05 Q12.45 44.05 11.95 43.65 11.85 44.55 10.75 44.8 L9.95 44.95 9.65 45.05 8.95 45.15 8.8 45.2 8.35 45.3 8.2 45.3 7.25 45.5 6.95 45.6 6.6 45.6 Q5.8 45.6 5.4 44.9 L5.1 45.5 Q4.75 45.95 4.0 46.0 L3.2 46.0 2.85 46.05 2.0 46.05 1.8 46.1 0.65 46.1 0.5 46.15 0.1 46.2 0.05 46.2 Q-0.75 46.2 -1.2 45.5 -1.55 46.15 -2.35 46.15 L-2.95 46.15 -3.4 46.1 -4.5 45.8 Q-5.0 45.5 -5.15 44.7 L-5.2 44.55 -5.8 44.45 -5.95 44.45 -6.0 44.5 -6.5 45.35 -7.3 45.6 -7.65 45.6 -8.2 45.5 -8.6 45.5 Q-9.4 45.35 -9.65 45.0 -10.05 44.6 -9.95 43.9 L-9.85 43.4 -10.7 43.9 -11.65 44.2 -11.7 44.25 -13.0 44.25 -15.15 43.75 -16.5 43.25 -17.2 42.95 Q-17.95 42.4 -17.8 41.55 -18.2 42.2 -18.9 42.2 L-19.65 42.0 -19.7 42.0 -19.85 41.85 -19.9 41.85 -20.6 41.5 -20.75 41.45 -20.75 41.4 -20.8 41.4 -21.0 41.3 -21.4 41.05 -22.45 40.55 -22.8 40.3 -23.55 39.9 -24.3 39.15 Q-24.55 38.5 -24.2 37.8 L-24.1 37.65 -24.05 37.55 -24.0 37.4 -23.6 36.65 -24.15 37.2 -24.4 37.6 -24.6 37.8 -24.65 37.9 Q-25.15 38.4 -25.7 38.4 -26.25 38.4 -26.8 37.95 L-27.0 37.75 -27.45 37.4 -27.5 37.35 -27.7 37.25 -28.1 36.4 Q-28.2 35.85 -27.8 35.4 L-27.75 35.3 -27.45 34.9 -27.15 34.6 -27.1 34.5 Q-27.6 34.5 -27.95 34.15 L-28.3 33.65 -28.45 32.85 -28.5 32.95 -29.2 33.8 -29.25 33.85 -29.4 34.05 Q-29.75 34.55 -30.45 34.55 L-31.35 34.2 -31.55 34.0 -31.6 34.0 -31.8 33.8 -32.2 33.5 Q-32.9 33.0 -32.75 32.15 L-32.75 32.1 -32.7 32.05 -32.4 31.45 -31.95 30.95 -31.9 30.8 -31.75 30.6 -31.2 30.05 -30.2 28.75 -29.95 28.55 -29.85 28.4 -29.85 28.35 -29.7 28.2 -29.55 28.0 -29.0 27.4 -28.85 27.2 -28.6 26.95 -28.55 26.85 -28.55 26.8 -27.6 25.55 Q-27.1 25.05 -26.55 25.05 L-26.3 25.1 Q-25.9 25.1 -25.55 25.4 L-25.5 25.45 -25.5 25.5 -25.25 25.65 -25.1 25.8 -24.8 26.0 Q-24.35 26.35 -24.25 26.9 L-24.3 27.9 -24.45 28.9 -24.45 29.35 -24.5 29.6 -24.5 29.9 -24.4 29.85 -23.95 29.7 -23.9 29.7 -23.7 29.6 -23.25 29.45 -22.5 29.1 -22.4 29.1 -22.35 29.05 -22.1 29.0 -21.95 28.95 -21.8 28.95 Q-21.2 28.95 -20.85 29.3 L-20.4 29.7 -20.35 29.7 -20.15 29.85 -19.9 30.1 -19.6 30.5 -19.4 30.45 -18.7 30.6 -18.5 30.75 -16.85 31.65 -16.45 31.8 -16.3 31.9 -16.05 32.0 -15.7 32.25 -15.4 32.4 -15.25 32.45 -15.0 32.6 -14.35 33.2 -14.25 33.2 -12.9 33.5 -12.6 33.65 -12.5 33.65 -12.3 33.75 -11.45 33.95 -11.35 34.0 -11.0 34.1 -10.95 34.15 -10.85 34.15 -10.0 34.6 -9.95 34.65 -9.65 34.8 -9.6 34.9 -9.5 35.0 -9.35 35.1 -9.3 35.1 -9.3 35.15 -9.15 35.25 -9.05 35.35 -9.0 35.35 -9.0 35.4 -8.55 36.0 Q-8.0 36.7 -7.8 37.5 L-7.8 37.45 -7.75 37.4 -7.75 37.25 Q-7.25 35.35 -5.8 35.35 L-5.5 35.35 -4.15 35.5 -4.05 35.5 Q-3.15 35.5 -2.55 36.1 -2.1 36.55 -2.0 37.3 L-1.9 37.85 -1.9 37.95 -1.8 38.25 -1.8 38.3 -1.75 38.7 -1.75 38.35 -1.8 38.05 -1.8 37.5 -1.85 37.2 Q-1.85 36.6 -1.45 36.2 -1.05 35.75 -0.55 35.75 L0.2 35.75 0.4 35.7 0.75 35.7 0.8 35.65 0.85 35.65 Q1.4 35.65 1.8 36.05 2.2 36.45 2.25 37.05 L2.3 39.35 2.35 39.6 2.45 42.1 2.65 42.1 2.85 42.05 3.55 42.05 3.7 42.0 4.05 42.0 4.75 42.2 4.4 40.45 4.4 40.4 4.15 39.15 4.0 38.75 4.0 38.5 3.95 38.4 3.95 38.35 3.8 37.55 3.75 37.5 3.75 37.3 3.65 37.05 Q3.55 36.4 3.85 35.95 4.25 35.5 4.7 35.4 L5.45 35.25 5.6 35.2 5.7 35.2 5.75 35.15 5.8 35.15 6.0 35.1 6.3 35.1 Q7.45 35.1 7.7 36.25 L7.7 36.5 7.75 36.7 7.75 36.85 7.8 36.95 7.8 37.05 7.85 37.25 7.85 37.4 7.9 37.45 7.9 37.75 8.05 38.4 8.1 38.55 8.5 40.75 8.65 41.2 8.7 41.2 9.0 41.1 9.55 41.0 9.7 40.95 9.85 40.95 10.1 40.85 10.45 40.85 10.95 40.95 10.95 40.9 10.9 40.7 10.75 40.4 10.65 39.9 9.95 37.9 9.85 37.5 9.7 37.2 9.6 36.85 9.6 36.75 9.45 36.45 9.3 36.0 Q9.15 35.45 9.3 34.95 9.45 34.4 9.95 34.15 L10.05 34.15 10.25 34.05 10.3 34.05 10.5 34.0 10.65 33.9 10.95 33.85 11.1 33.8 11.2 33.75 11.35 33.7 11.8 33.6 Q12.15 33.6 12.5 33.85 L13.15 34.65 13.25 35.0 13.3 34.85 13.3 34.8 13.35 34.75 13.35 34.7 13.4 34.4 13.6 33.95 13.6 33.9 13.7 33.7 14.2 32.95 14.4 32.75 14.4 32.7 14.45 32.65 14.65 32.4 15.75 31.65 17.3 31.15 18.35 31.1 18.4 31.1 19.4 31.35 19.25 31.1 Q18.85 30.2 19.6 29.6 L19.95 29.35 20.0 29.3 20.1 29.25 20.25 29.1 20.4 29.0 Q20.7 28.7 20.95 28.65 L21.25 28.45 21.8 28.4 22.05 28.4 23.75 28.9 23.6 28.75 23.5 28.6 23.25 28.35 Q22.65 27.7 23.1 26.9 L23.1 26.85 23.15 26.85 23.55 26.4 23.6 26.35 24.2 25.9 24.5 25.6 Q24.9 25.3 25.3 25.3 26.0 25.3 26.45 25.9 L26.75 26.3 26.95 26.5 27.6 27.35 27.9 27.65 28.1 28.0" fill="#d4a000" fill-rule="evenodd" stroke="none"/>
    <path d="M-25.55 25.65 L-24.9 26.15 Q-24.65 26.4 -24.75 27.2 L-24.9 28.2 -24.9 28.5 -25.0 29.85 -24.9 30.5 -24.35 30.45 -22.75 29.95 -21.5 29.4 -21.3 29.35 -20.95 29.45 -20.05 30.2 Q-19.75 30.5 -20.0 30.75 L-21.15 32.15 -21.55 32.55 -23.75 35.3 -24.3 35.85 -24.8 36.55 -24.9 36.65 -25.6 36.6 -26.25 36.0 -26.5 35.85 Q-26.7 35.65 -26.5 35.4 L-24.6 33.15 -24.5 32.95 Q-24.35 32.85 -24.5 32.7 L-25.15 32.65 -26.1 32.8 -26.75 32.75 -26.85 32.65 -26.9 32.25 -26.9 31.3 -26.9 30.9 Q-26.85 30.25 -26.95 30.2 L-27.2 30.1 -27.6 30.4 -28.35 31.3 -28.75 31.7 -29.45 32.55 -29.65 32.85 Q-29.9 33.1 -30.15 32.85 L-30.8 32.3 Q-30.9 32.25 -31.05 32.15 L-31.2 31.75 -31.1 31.5 -28.55 28.45 -28.4 28.2 -28.1 27.95 -26.3 25.6 Q-26.15 25.45 -25.85 25.45 L-25.65 25.55 -25.6 25.6 -25.6 25.65 -25.55 25.65" fill="#ffd245" fill-rule="evenodd" stroke="none"/>
    <path d="M-25.85 25.45 L-26.0 25.45 Q-26.15 25.45 -26.3 25.6 L-28.1 27.95 -28.4 28.2 -28.55 28.45 -31.1 31.5 -31.2 31.7 -31.05 32.15 -30.6 32.45 -30.15 32.85 -29.9 32.95 -29.65 32.85 -29.45 32.55 -28.75 31.7 -28.35 31.3 -27.6 30.4 -27.2 30.1 -26.95 30.2 Q-26.85 30.25 -26.9 30.9 L-26.9 31.3 -26.9 32.25 -26.85 32.65 -26.75 32.8 -26.5 32.9 -26.1 32.8 -24.8 32.6 -24.5 32.7 Q-24.35 32.85 -24.5 32.95 L-24.6 33.15 -26.5 35.4 Q-26.7 35.65 -26.5 35.85 L-26.25 36.0 -25.6 36.6 -25.15 36.8 -24.9 36.65 -24.8 36.55 -24.3 35.85 -23.75 35.3 -21.55 32.55 -21.15 32.15 -20.0 30.75 Q-19.75 30.5 -20.05 30.2 L-20.95 29.45 Q-21.05 29.35 -21.25 29.35 L-21.3 29.35 -21.5 29.4 -22.75 29.95 -22.95 30.0 -23.65 30.25 -24.75 30.55 -24.9 30.5 -25.0 29.85 -24.9 28.5 -24.9 28.2 -24.75 27.2 Q-24.65 26.4 -24.9 26.15 L-25.55 25.65 -25.6 25.65 -25.6 25.6 -25.7 25.55 -25.85 25.45 M-25.75 24.45 Q-25.3 24.55 -25.05 24.8 L-24.95 24.85 -24.75 25.0 -24.55 25.2 -24.3 25.35 Q-23.8 25.75 -23.7 26.3 L-23.75 27.3 -23.8 27.55 -23.85 28.05 -23.9 28.25 -23.9 28.75 -23.95 29.0 -23.95 29.3 -23.85 29.25 -23.4 29.1 -23.35 29.1 -23.15 29.0 -22.7 28.85 -22.05 28.55 -22.0 28.5 -21.85 28.5 -21.8 28.45 -21.55 28.35 -21.25 28.35 Q-20.65 28.35 -20.3 28.65 L-19.85 29.1 -19.8 29.1 -19.6 29.25 -19.4 29.45 -19.4 29.5 Q-19.0 29.8 -18.9 30.4 -18.9 31.05 -19.2 31.35 L-19.35 31.55 -20.4 32.8 -20.65 33.05 -20.8 33.15 -21.05 33.5 -21.45 34.05 -21.55 34.15 -22.95 35.9 -23.05 36.05 -23.5 36.45 -23.6 36.65 -24.0 37.15 -24.15 37.3 Q-24.55 37.8 -25.15 37.8 -25.7 37.8 -26.25 37.35 L-26.4 37.2 -26.9 36.8 -26.95 36.75 -27.15 36.6 -27.6 35.8 Q-27.65 35.25 -27.3 34.8 L-27.25 34.75 -26.9 34.3 -26.55 33.95 -26.55 33.9 -27.45 33.55 -27.75 33.05 -27.8 33.0 -27.9 32.25 -28.0 32.3 -28.65 33.2 -28.9 33.45 Q-29.3 33.95 -29.9 33.95 -30.45 33.95 -30.8 33.6 L-31.25 33.2 -31.65 32.9 Q-32.3 32.4 -32.2 31.55 L-32.2 31.45 -32.15 31.45 -31.85 30.85 -31.45 30.3 -31.35 30.2 -31.2 30.0 -30.65 29.45 -29.9 28.5 -29.65 28.15 -29.3 27.8 -29.3 27.75 -29.15 27.6 -29.0 27.4 -28.9 27.3 -28.7 27.05 -28.5 26.9 -28.45 26.8 -28.3 26.6 -28.25 26.5 -28.15 26.45 -28.05 26.3 -28.0 26.25 -28.0 26.2 -27.05 24.95 Q-26.55 24.45 -26.0 24.45 L-25.75 24.45" fill="#b07f00" fill-rule="evenodd" stroke="none"/>
    <path d="M-20.3 32.95 L-19.45 31.4 -19.15 30.95 -18.65 30.9 -16.75 31.95 -14.9 32.85 Q-14.5 33.1 -14.75 33.4 L-15.15 34.25 -15.4 34.45 -15.6 34.5 -15.9 34.4 -16.8 33.95 -17.05 33.75 -17.35 33.6 -18.35 33.7 Q-18.75 34.35 -18.4 34.65 L-16.25 35.8 -16.25 36.25 -16.65 36.95 -16.8 37.15 Q-17.05 37.5 -17.45 37.3 L-18.25 36.85 -18.5 36.75 -18.8 36.5 -19.15 36.35 -19.2 36.35 -19.45 36.25 -19.9 36.6 -20.15 37.35 -19.55 37.95 -18.75 38.4 -17.95 38.75 Q-17.6 39.1 -17.6 39.2 L-17.8 39.7 -17.8 39.75 -17.9 40.1 -18.05 40.35 Q-18.25 40.7 -18.6 40.5 L-18.8 40.4 -18.95 40.3 -19.5 40.1 -19.7 39.95 -22.55 38.45 -22.8 38.15 Q-22.95 37.9 -22.75 37.7 L-22.45 37.0 -21.6 35.45 -20.8 33.85 -20.65 33.7 -20.3 32.95" fill="#ffd245" fill-rule="evenodd" stroke="none"/>
    <path d="M-20.7 31.7 L-20.35 30.9 -19.7 30.15 Q-19.3 29.85 -18.85 29.85 L-18.15 30.05 -17.8 30.25 -17.5 30.35 -16.3 31.05 -15.9 31.2 -15.75 31.3 -15.55 31.4 -14.9 31.8 -14.7 31.85 -14.45 32.0 Q-13.85 32.35 -13.75 32.8 -13.55 33.35 -13.85 33.9 L-13.9 33.95 -14.05 34.2 -14.25 34.7 -14.95 35.35 -15.3 35.5 Q-15.0 36.1 -15.35 36.75 L-15.9 37.65 -16.0 37.75 -16.9 38.35 Q-16.6 38.85 -16.6 39.25 L-16.9 40.15 -16.9 40.2 -17.0 40.45 -17.0 40.5 -17.05 40.55 -17.2 40.85 Q-17.6 41.6 -18.35 41.6 L-19.1 41.4 -19.15 41.35 -19.2 41.35 -19.25 41.3 -20.05 40.9 -20.2 40.8 -20.25 40.8 -20.3 40.75 -21.4 40.2 -23.0 39.3 -23.75 38.55 Q-24.0 37.85 -23.65 37.25 L-23.5 36.95 -23.45 36.8 -23.1 36.15 -23.0 35.85 -22.8 35.55 -22.55 35.05 -22.45 34.95 -22.25 34.55 -22.2 34.4 -21.5 33.1 -21.45 33.05 -21.4 32.9 -21.3 32.75 -21.2 32.45 -20.7 31.7 M-18.85 30.85 L-19.15 30.95 -19.45 31.4 -20.3 32.95 -20.65 33.7 -20.8 33.85 -21.6 35.45 -22.45 37.0 -22.75 37.7 Q-22.95 37.9 -22.8 38.15 L-22.55 38.45 -22.2 38.6 -19.7 39.95 -19.5 40.1 -18.95 40.3 -18.8 40.4 -18.35 40.6 -18.05 40.35 -17.9 40.1 -17.8 39.75 -17.8 39.7 -17.6 39.2 Q-17.6 39.1 -17.95 38.75 L-18.75 38.4 -19.55 37.95 -20.15 37.35 -19.9 36.6 Q-19.7 36.25 -19.5 36.25 L-19.2 36.3 -19.15 36.35 -18.8 36.5 -18.5 36.75 -18.25 36.85 -17.45 37.3 -17.15 37.35 -16.8 37.15 -16.65 36.95 -16.25 36.25 -16.25 35.85 -18.4 34.65 -18.6 34.25 -18.35 33.7 -17.95 33.35 Q-17.75 33.35 -17.35 33.6 L-17.05 33.75 -16.8 33.95 -15.9 34.4 -15.6 34.5 -15.55 34.5 -15.4 34.45 -15.15 34.25 -14.75 33.4 Q-14.5 33.1 -14.9 32.85 L-16.75 31.95 -18.65 30.9 -18.85 30.85" fill="#b07f00" fill-rule="evenodd" stroke="none"/>
    <path d="M-12.35 33.95 L-12.05 34.1 -11.35 34.25 -10.95 34.4 -10.6 34.5 -10.1 34.75 -10.0 34.85 -9.75 35.0 -9.6 35.15 -9.45 35.25 -9.3 35.4 -9.15 35.5 Q-8.3 36.35 -8.15 37.6 L-8.05 38.4 -8.4 40.05 -8.75 40.65 -9.05 41.15 -9.35 41.55 -9.85 41.95 -10.6 42.4 -11.3 42.65 -12.4 42.65 -14.25 42.2 -14.3 42.15 -15.7 41.7 Q-16.4 41.55 -16.3 41.1 L-16.15 40.7 -15.3 38.0 -15.2 37.45 -15.05 37.1 -14.15 34.15 Q-14.05 33.6 -13.75 33.6 L-12.65 33.85 -12.35 33.95 M-10.75 36.75 L-11.75 36.25 -12.1 36.15 -12.35 36.2 -12.85 36.75 -13.3 38.1 -13.7 39.65 Q-13.9 40.35 -12.7 40.7 L-12.4 40.75 -11.55 40.75 -10.6 40.0 -10.2 39.25 -10.1 38.75 -10.1 38.4 -10.05 38.15 -10.2 37.65 -10.45 37.2 -10.75 36.75" fill="#ffd245" fill-rule="evenodd" stroke="none"/>
    <path d="M-11.15 37.9 L-11.3 37.75 -11.45 37.45 -11.95 37.25 -12.2 38.05 -12.35 38.4 -12.7 39.65 -12.4 39.75 -11.8 39.75 Q-11.45 39.65 -11.2 38.95 L-11.1 38.65 -11.1 38.5 -11.05 38.25 -11.15 37.9 M-10.75 36.75 L-10.45 37.2 -10.2 37.65 -10.05 38.15 -10.05 38.4 -10.2 39.25 -10.6 40.0 -11.55 40.75 -12.4 40.75 -12.7 40.7 Q-13.9 40.35 -13.7 39.65 L-13.3 38.1 -12.85 36.75 -12.35 36.2 -12.2 36.15 -12.1 36.15 -11.75 36.25 -10.75 36.75 M-12.05 33.05 L-11.9 33.05 -11.75 33.15 -11.05 33.3 -11.1 33.3 -10.9 33.35 -10.8 33.4 -10.65 33.4 -10.45 33.5 -10.4 33.55 -10.3 33.55 -9.45 34.0 -9.4 34.05 -9.1 34.2 -9.05 34.25 -9.0 34.35 -8.95 34.4 -8.75 34.5 -8.65 34.65 -8.45 34.8 -7.85 35.55 Q-7.25 36.5 -7.15 37.45 L-7.05 38.4 -7.25 39.6 -7.35 39.8 -7.35 39.9 -7.4 40.05 -7.45 40.3 -7.85 41.1 -8.25 41.8 -8.45 42.0 -8.6 42.2 -9.2 42.75 -10.15 43.3 -11.15 43.6 -11.2 43.6 -11.65 43.65 -12.45 43.65 -14.6 43.1 -16.0 42.65 Q-17.6 42.15 -17.25 40.8 L-17.1 40.4 -16.05 36.9 -16.0 36.85 -15.65 35.55 -15.5 35.15 -15.15 33.85 Q-14.75 32.7 -13.8 32.6 L-13.75 32.6 -12.35 32.9 -12.2 32.95 -12.05 33.05 M-12.35 33.95 L-12.65 33.85 -13.75 33.6 Q-14.05 33.6 -14.15 34.15 L-15.05 37.1 -15.2 37.45 -15.3 38.0 -16.3 41.1 Q-16.4 41.55 -15.7 41.7 L-14.3 42.15 -14.25 42.15 -12.4 42.65 -11.65 42.65 -11.3 42.6 -10.6 42.4 -9.85 41.95 -9.35 41.55 -9.05 41.15 -8.75 40.65 -8.4 40.05 -8.2 39.3 -8.05 38.4 -8.15 37.6 Q-8.3 36.35 -9.15 35.5 L-9.3 35.4 -9.45 35.25 -9.6 35.15 -9.75 35.0 -10.0 34.85 -10.1 34.75 -10.6 34.5 -11.35 34.25 -12.05 34.1 -12.35 33.95" fill="#b07f00" fill-rule="evenodd" stroke="none"/>
    <path d="M-4.8 35.8 L-3.55 35.9 Q-3.0 35.9 -2.7 36.2 L-2.45 36.85 -2.25 37.8 -2.2 38.25 -2.2 38.45 -2.15 38.65 -1.95 40.35 -1.95 40.7 -1.85 41.4 -1.85 41.75 -1.8 42.0 -1.75 42.6 -1.6 43.55 -1.6 43.8 -1.5 44.05 -1.55 44.4 -2.05 44.55 -2.7 44.5 -3.4 44.35 -3.65 43.9 -3.7 43.55 -3.75 43.4 Q-3.85 43.15 -4.05 43.05 L-5.15 42.85 -5.55 42.85 -6.05 43.0 -6.55 43.95 -7.0 44.0 -7.55 43.9 -7.9 43.9 -8.3 43.8 -8.45 43.4 -8.25 42.95 -8.15 42.5 -7.05 39.15 -6.9 38.95 -6.9 38.8 -6.45 37.5 -6.3 37.2 -6.25 36.9 Q-5.9 35.65 -5.1 35.75 L-4.8 35.8 M-4.15 38.45 Q-4.15 38.15 -4.4 38.15 L-4.6 38.25 -4.95 39.0 -5.0 39.25 -5.1 39.55 -5.2 39.75 -5.25 40.0 -5.4 40.4 Q-5.45 40.95 -4.7 41.05 L-4.15 41.1 -3.85 40.8 -3.9 39.9 -4.0 39.5 -4.0 39.1 -4.15 38.45" fill="#ffd245" fill-rule="evenodd" stroke="none"/>
    <path d="M-4.15 38.45 L-4.0 39.1 -4.0 39.5 -3.9 39.9 -3.85 40.8 -4.15 41.1 -4.4 41.1 -4.7 41.05 Q-5.45 40.95 -5.4 40.4 L-5.25 40.0 -5.2 39.75 -5.1 39.55 -5.0 39.25 -4.95 39.0 -4.6 38.25 -4.4 38.15 Q-4.15 38.15 -4.15 38.45 M-3.55 35.9 L-4.8 35.8 -5.1 35.75 -5.25 35.7 Q-5.85 35.7 -6.25 36.9 L-6.3 37.2 -6.45 37.5 -6.5 37.7 -6.9 38.8 -6.9 38.95 -7.05 39.15 -8.15 42.5 -8.2 42.75 -8.3 42.95 -8.35 43.15 -8.45 43.4 -8.3 43.8 -7.9 43.9 -7.55 43.9 -7.0 44.0 -6.75 44.0 -6.55 43.95 -6.05 43.0 -5.55 42.85 -5.15 42.85 -4.05 43.05 Q-3.85 43.15 -3.75 43.4 L-3.7 43.55 -3.65 43.9 -3.4 44.35 -2.75 44.5 -1.8 44.55 Q-1.55 44.55 -1.55 44.4 L-1.5 44.05 -1.6 43.8 -1.6 43.55 -1.85 41.75 -1.85 41.4 -1.95 40.7 -1.95 40.35 -2.2 38.65 -2.2 38.25 -2.4 36.85 -2.7 36.2 Q-3.0 35.9 -3.55 35.9 M-5.25 34.7 L-3.65 34.9 -3.55 34.9 Q-2.6 34.9 -2.0 35.5 -1.55 35.9 -1.45 36.7 L-1.35 37.2 -1.35 37.35 -1.25 37.7 -1.25 38.15 -1.2 38.2 -1.2 38.45 -1.1 39.25 -1.1 39.4 -1.05 39.55 -0.95 40.35 -0.95 40.7 -0.9 40.8 -0.9 41.0 -0.85 41.35 -0.85 41.65 -0.8 41.85 -0.75 42.65 -0.6 43.4 -0.6 43.6 -0.5 43.95 -0.55 43.95 -0.55 44.5 Q-0.65 45.55 -1.8 45.55 L-2.4 45.55 -2.85 45.5 -3.95 45.2 Q-4.45 44.9 -4.65 44.1 L-4.65 43.9 -4.9 43.9 -5.25 43.85 -5.4 43.85 -5.45 43.9 -5.95 44.7 Q-6.25 45.0 -6.75 45.0 L-7.1 45.0 -7.45 44.95 -7.65 44.9 -8.0 44.9 -9.0 44.5 Q-9.5 43.95 -9.45 43.3 L-9.25 42.7 -9.2 42.65 -9.2 42.5 -8.95 41.75 -8.85 41.3 -8.85 41.25 -8.8 41.25 -8.5 40.3 -8.45 40.2 -8.3 39.75 -7.9 38.7 -7.9 38.65 -7.85 38.6 -7.85 38.45 -7.5 37.4 -7.5 37.45 -7.35 37.1 -7.3 36.9 -7.2 36.8 -7.2 36.65 Q-6.65 34.7 -5.25 34.7" fill="#b07f00" fill-rule="evenodd" stroke="none"/>
    <path d="M-0.25 37.0 L-0.3 36.55 Q-0.3 36.15 0.05 36.15 L1.1 36.1 1.35 36.05 Q1.8 36.05 1.8 36.5 L1.85 38.75 1.9 39.05 1.95 41.1 2.05 41.95 2.4 42.5 2.85 42.5 3.25 42.45 3.7 42.4 4.55 42.4 Q4.95 42.35 4.95 42.75 L4.95 43.0 4.9 43.45 5.0 43.9 Q5.0 44.35 4.5 44.4 L2.65 44.45 2.25 44.5 0.6 44.55 Q0.1 44.6 0.1 44.0 L0.05 42.05 -0.05 41.15 -0.05 40.3 -0.1 40.0 -0.1 39.05 -0.2 38.35 -0.2 37.95 -0.25 37.7 -0.25 37.0" fill="#ffd245" fill-rule="evenodd" stroke="none"/>
    <path d="M1.1 35.1 L1.3 35.05 1.4 35.05 Q1.95 35.05 2.35 35.45 2.75 35.85 2.8 36.45 L2.8 37.95 2.85 38.65 2.85 38.75 2.9 39.0 2.95 41.05 3.0 41.45 3.35 41.45 3.7 41.4 3.9 41.45 4.1 41.45 4.25 41.4 4.6 41.4 Q5.85 41.4 5.95 42.7 L5.95 43.3 5.9 43.4 5.95 43.5 6.0 43.85 Q6.0 44.55 5.65 44.9 5.3 45.3 4.55 45.4 L3.75 45.4 3.4 45.45 2.5 45.45 2.35 45.5 1.15 45.5 1.0 45.55 0.6 45.55 Q-0.8 45.55 -0.9 44.0 L-1.0 41.65 -1.05 41.15 -1.05 40.2 -1.1 40.05 -1.1 39.1 -1.2 38.4 -1.2 38.0 -1.25 37.75 -1.25 36.95 -1.3 36.6 Q-1.3 35.95 -0.9 35.55 -0.5 35.15 0.0 35.15 L1.1 35.1 M1.35 36.05 L1.1 36.1 0.05 36.15 Q-0.3 36.15 -0.3 36.55 L-0.25 37.0 -0.25 37.7 -0.2 37.95 -0.1 40.0 -0.05 40.3 -0.05 41.15 0.1 44.0 Q0.1 44.55 0.6 44.55 L1.15 44.5 2.25 44.5 2.65 44.45 4.5 44.4 Q5.0 44.35 5.0 43.9 L4.9 43.45 4.95 43.0 4.95 42.75 Q4.95 42.4 4.6 42.4 L4.2 42.4 3.9 42.45 3.7 42.4 3.25 42.45 2.9 42.5 2.4 42.5 2.05 41.95 1.95 41.1 1.9 39.05 1.85 38.75 1.8 36.5 Q1.8 36.05 1.4 36.05 L1.35 36.05" fill="#b07f00" fill-rule="evenodd" stroke="none"/>
    <path d="M5.2 36.2 Q5.0 35.8 5.45 35.75 L6.75 35.5 Q7.15 35.4 7.25 35.8 L7.35 36.65 7.45 37.0 7.7 38.35 7.9 39.2 8.3 41.2 8.7 41.65 9.2 41.6 10.5 41.35 10.85 41.25 11.3 41.55 11.35 41.8 11.35 42.2 11.5 42.7 Q11.6 43.15 11.1 43.2 L10.0 43.45 9.25 43.55 8.9 43.65 8.6 43.7 8.3 43.8 7.8 43.85 7.3 44.0 Q6.7 44.1 6.7 43.5 L5.5 37.6 5.4 37.3 5.2 36.2" fill="#ffd245" fill-rule="evenodd" stroke="none"/>
    <path d="M5.4 37.3 L5.5 37.6 5.9 39.6 5.95 39.9 6.1 40.7 6.45 42.1 6.7 43.5 Q6.7 44.0 7.15 44.0 L7.3 44.0 7.8 43.85 8.3 43.8 8.6 43.7 8.9 43.65 9.25 43.55 10.0 43.45 11.1 43.2 Q11.6 43.15 11.5 42.7 L11.35 42.2 11.35 41.8 11.3 41.55 10.95 41.2 10.85 41.25 10.5 41.35 10.05 41.4 9.2 41.6 8.75 41.65 8.7 41.65 8.3 41.2 7.9 39.2 7.7 38.35 7.45 37.0 7.35 36.65 7.25 35.8 Q7.15 35.45 6.85 35.45 L6.75 35.5 5.45 35.75 Q5.0 35.8 5.2 36.2 L5.4 37.3 M6.35 34.55 L6.5 34.5 6.85 34.45 Q8.05 34.45 8.2 35.65 L8.3 36.1 8.3 36.3 8.4 36.65 8.4 36.85 8.45 36.9 8.45 37.15 8.7 38.15 8.75 38.3 9.0 39.6 9.05 40.15 9.2 40.6 9.55 40.5 10.1 40.4 10.25 40.35 10.4 40.35 10.65 40.25 10.95 40.2 Q12.05 40.2 12.25 41.3 L12.35 41.75 12.3 41.6 12.35 41.95 12.35 42.0 12.5 42.5 Q12.65 43.05 12.3 43.55 L11.3 44.2 10.5 44.35 10.2 44.45 9.5 44.55 9.1 44.65 8.9 44.65 8.8 44.7 8.75 44.7 7.8 44.9 7.5 45.0 7.15 45.0 Q6.0 45.0 5.7 43.7 L5.6 42.95 5.45 42.35 5.4 41.95 5.35 41.8 5.0 40.05 4.95 39.9 4.95 39.8 4.85 39.3 4.75 39.0 4.75 38.85 4.55 38.15 4.55 37.95 4.5 37.8 4.5 37.75 4.45 37.5 4.35 37.2 4.35 37.0 4.3 36.85 4.3 36.7 4.2 36.45 Q4.1 35.8 4.4 35.35 4.7 34.9 5.25 34.8 L6.0 34.65 6.15 34.6 6.2 34.6 6.3 34.55 6.35 34.55" fill="#b07f00" fill-rule="evenodd" stroke="none"/>
    <path d="M11.15 34.4 L12.0 34.1 12.25 34.05 12.5 34.05 12.75 34.4 15.2 41.55 Q15.3 41.9 14.95 42.0 L13.65 42.45 13.2 42.3 13.1 42.05 12.9 41.25 12.45 39.95 12.4 39.75 12.25 39.5 11.1 35.85 10.8 35.05 Q10.7 34.95 10.75 34.75 L10.95 34.45 11.15 34.4" fill="#ffd245" fill-rule="evenodd" stroke="none"/>
    <path d="M11.15 34.4 L10.95 34.45 10.75 34.75 Q10.7 34.95 10.8 35.05 L11.1 35.85 11.2 36.25 12.25 39.5 12.4 39.75 12.45 39.95 13.1 42.05 13.2 42.3 13.55 42.45 13.65 42.45 14.95 42.0 Q15.3 41.9 15.2 41.55 L12.75 34.4 12.5 34.05 12.35 34.0 12.25 34.05 12.0 34.1 11.15 34.4 M11.45 33.25 L11.65 33.15 11.75 33.15 11.9 33.1 12.35 33.0 Q12.7 33.0 13.05 33.25 13.55 33.55 13.7 34.0 L13.8 34.4 13.85 34.45 13.85 34.55 14.25 35.8 14.45 36.2 14.75 37.15 14.8 37.4 15.4 39.1 15.4 39.25 15.45 39.3 15.45 39.45 15.65 39.9 16.0 40.95 16.15 41.25 Q16.3 41.8 16.05 42.25 L15.25 42.95 15.05 43.0 15.0 43.05 14.8 43.1 14.55 43.2 14.25 43.25 14.2 43.3 13.95 43.4 13.55 43.45 Q12.7 43.45 12.3 42.75 L12.15 42.35 11.5 40.25 11.45 40.25 11.45 40.05 11.3 39.8 11.05 38.9 10.45 37.05 10.35 36.9 10.15 36.25 10.15 36.15 10.0 35.85 9.85 35.4 Q9.65 34.9 9.8 34.35 10.0 33.8 10.5 33.55 L10.55 33.55 10.75 33.45 10.8 33.45 11.0 33.4 11.2 33.3 11.45 33.25" fill="#b07f00" fill-rule="evenodd" stroke="none"/>
    <path d="M22.1 38.4 L21.65 38.95 21.35 39.15 21.2 39.3 20.9 39.5 20.3 39.8 20.0 39.85 19.7 39.95 19.1 40.05 18.8 40.05 18.4 40.0 17.2 39.65 16.3 39.1 15.75 38.5 15.1 37.4 14.95 37.0 14.75 36.1 14.7 35.55 14.75 35.25 14.75 34.7 14.85 34.4 14.9 34.05 15.05 33.8 15.15 33.5 15.65 32.8 15.9 32.55 16.75 31.95 17.4 31.7 18.0 31.55 18.9 31.5 19.75 31.7 20.05 31.85 20.25 31.9 21.35 32.65 21.65 33.0 22.45 34.25 22.7 35.0 22.85 35.85 22.8 36.85 22.5 37.9 22.25 38.2 22.1 38.4 M18.15 33.55 L17.6 33.8 17.35 33.95 17.0 34.4 16.7 35.0 16.65 35.7 16.75 36.15 16.9 36.55 16.9 36.6 17.15 37.0 17.45 37.35 17.95 37.8 18.9 38.1 19.15 38.05 19.25 38.05 19.7 37.9 20.2 37.65 20.65 36.95 20.85 36.1 20.75 35.4 20.4 34.65 20.2 34.35 19.6 33.85 18.9 33.55 18.15 33.55" fill="#ffd245" fill-rule="evenodd" stroke="none"/>
    <path d="M17.35 33.95 L17.6 33.8 18.15 33.55 18.9 33.55 19.6 33.85 20.2 34.35 20.4 34.65 20.7 35.4 20.85 36.1 20.65 36.95 20.2 37.65 19.7 37.9 19.25 38.05 19.15 38.05 18.9 38.1 17.95 37.8 17.45 37.35 17.15 37.0 16.9 36.6 16.9 36.55 16.75 36.15 16.65 35.7 16.7 35.0 17.0 34.4 17.35 33.95 M18.0 34.75 L17.9 34.8 17.7 35.15 17.7 35.2 17.65 35.25 17.65 35.65 17.75 36.05 17.8 36.15 18.0 36.45 18.05 36.55 18.2 36.65 18.5 36.95 18.85 37.1 18.9 37.1 19.15 37.05 19.25 37.0 19.4 36.95 19.45 36.9 19.55 36.85 19.75 36.55 19.85 36.15 19.7 35.45 19.6 35.3 19.5 35.1 19.4 35.0 19.4 34.95 19.1 34.7 19.05 34.7 18.85 34.6 18.7 34.55 18.35 34.55 18.05 34.7 18.0 34.75 M22.5 37.9 L22.8 36.85 22.85 35.85 22.7 35.0 22.45 34.25 21.65 33.0 21.35 32.65 20.25 31.9 20.05 31.85 19.75 31.7 18.95 31.5 18.9 31.5 18.0 31.55 17.4 31.7 16.75 31.95 15.9 32.55 15.65 32.8 15.15 33.5 15.05 33.8 14.9 34.05 14.85 34.4 14.75 34.7 14.75 35.25 14.7 35.55 14.75 36.1 14.95 37.0 15.1 37.4 15.75 38.5 16.3 39.1 17.2 39.65 18.4 40.0 18.8 40.05 19.1 40.05 19.7 39.95 20.0 39.85 20.3 39.8 20.9 39.5 21.2 39.3 21.35 39.15 21.65 38.95 22.1 38.4 22.25 38.2 22.5 37.9 M21.95 31.9 L22.4 32.35 23.3 33.8 23.65 34.8 23.7 34.85 23.85 35.75 23.8 37.0 23.35 38.45 23.35 38.4 23.0 38.9 22.65 39.35 22.3 39.7 22.1 39.9 22.0 39.95 21.95 40.0 21.35 40.4 20.65 40.75 20.6 40.75 19.95 40.95 19.5 41.0 19.4 41.0 19.3 41.05 18.65 41.05 18.3 41.0 18.2 41.0 16.75 40.55 16.1 40.15 15.7 39.95 15.7 39.9 14.95 39.05 14.9 39.0 14.2 37.85 14.0 37.3 13.75 36.2 13.7 35.5 13.75 35.2 13.75 34.55 13.85 34.25 13.85 34.15 13.9 34.1 13.95 33.75 14.1 33.35 14.15 33.3 14.25 33.1 14.75 32.35 14.9 32.15 14.95 32.15 14.95 32.1 15.0 32.05 15.2 31.8 16.3 31.05 16.9 30.85 17.05 30.75 17.85 30.55 17.95 30.55 19.0 30.5 20.05 30.75 20.4 30.9 20.45 30.9 20.6 30.95 21.3 31.35 21.55 31.55 21.7 31.7 21.95 31.9" fill="#b07f00" fill-rule="evenodd" stroke="none"/>
    <path d="M26.2 25.9 L28.25 28.5 28.7 28.95 29.25 29.7 30.0 30.5 30.1 30.65 30.2 30.85 30.4 31.1 31.05 31.7 Q31.25 32.1 30.95 32.3 L30.8 32.4 30.1 33.05 29.3 33.0 28.85 32.8 27.35 32.3 27.1 32.25 26.4 32.05 25.15 31.55 24.95 31.5 24.75 31.55 24.75 31.85 25.7 33.05 26.05 33.4 26.9 34.4 27.0 34.5 27.3 34.75 27.3 35.25 27.1 35.4 26.35 36.15 26.05 36.25 25.75 36.15 24.95 35.1 24.7 34.85 23.95 33.9 23.7 33.7 21.35 30.85 21.2 30.7 21.1 30.55 20.85 30.3 20.7 30.1 Q20.6 29.9 20.75 29.8 L21.0 29.65 21.1 29.55 21.2 29.5 21.25 29.4 21.3 29.4 21.55 29.15 21.85 28.95 22.15 28.8 22.4 28.8 23.7 29.15 24.05 29.25 26.85 30.3 27.2 30.35 26.95 29.9 26.35 29.15 26.05 28.85 25.75 28.45 24.55 27.1 Q24.4 26.9 24.55 26.75 L25.2 26.2 25.35 26.1 25.7 25.75 Q25.95 25.6 26.2 25.9" fill="#ffd245" fill-rule="evenodd" stroke="none"/>
    <path d="M25.85 25.7 L25.7 25.75 25.35 26.1 24.55 26.75 Q24.4 26.9 24.55 27.1 L25.75 28.45 26.05 28.85 26.95 29.9 27.2 30.35 27.15 30.35 26.85 30.3 24.05 29.25 23.7 29.15 22.4 28.8 22.35 28.75 22.15 28.8 21.85 28.95 21.55 29.15 21.3 29.4 21.25 29.4 21.2 29.5 21.1 29.55 21.0 29.65 20.75 29.8 Q20.6 29.9 20.7 30.1 L20.85 30.3 21.1 30.55 21.2 30.7 21.35 30.85 23.7 33.7 23.95 33.9 25.75 36.15 26.0 36.3 26.05 36.25 26.35 36.15 27.1 35.4 27.3 35.25 27.25 34.75 26.35 33.8 26.05 33.4 25.7 33.05 24.75 31.85 24.75 31.55 24.95 31.5 25.15 31.55 25.65 31.75 26.15 31.9 26.4 32.05 27.1 32.25 27.35 32.3 28.85 32.8 29.3 33.0 29.8 33.1 30.1 33.05 30.8 32.4 30.95 32.3 Q31.25 32.1 31.05 31.7 L30.4 31.1 30.2 30.85 30.1 30.65 30.0 30.5 29.25 29.7 28.7 28.95 28.25 28.5 26.2 25.9 25.85 25.7 M24.35 25.55 L24.75 25.3 25.05 25.0 Q25.35 24.7 25.85 24.7 26.55 24.7 27.0 25.25 L27.3 25.7 28.15 26.75 28.45 27.05 28.7 27.4 28.65 27.35 30.85 30.0 30.95 30.2 31.4 30.7 31.8 31.05 32.15 32.1 Q32.05 32.75 31.6 33.05 L31.4 33.2 31.4 33.25 31.05 33.5 30.9 33.65 30.7 33.8 29.8 34.1 28.9 33.9 28.7 33.85 28.6 33.8 28.55 33.8 27.3 33.35 27.65 33.7 27.65 33.75 27.7 33.8 27.8 33.85 28.05 34.1 Q28.7 34.85 28.1 35.8 L28.15 35.8 27.75 36.2 27.6 36.3 27.0 36.9 26.15 37.25 26.0 37.25 Q25.4 37.25 24.95 36.75 L24.95 36.7 24.65 36.35 24.55 36.3 24.15 35.75 24.1 35.7 23.5 34.95 23.4 34.8 22.95 34.35 22.45 33.65 22.3 33.5 22.3 33.45 21.75 32.85 21.7 32.85 21.7 32.8 21.25 32.25 20.75 31.7 20.65 31.55 20.6 31.45 20.45 31.35 20.4 31.25 20.1 30.95 19.8 30.5 Q19.35 29.6 20.15 29.0 L20.5 28.75 20.55 28.7 20.65 28.65 20.9 28.4 21.45 28.05 21.5 28.05 21.8 27.85 22.35 27.75 22.45 27.8 22.55 27.8 23.9 28.2 24.15 28.25 24.3 28.3 24.15 28.15 24.05 28.0 23.8 27.75 Q23.25 27.05 23.65 26.25 L24.1 25.8 24.35 25.55" fill="#b07f00" fill-rule="evenodd" stroke="none"/>
    <path d="M-16.3 -37.55 Q-16.2 -37.8 -16.35 -38.05 L-16.4 -38.1 -16.55 -38.1 -16.55 -38.05 -16.65 -38.05 -16.55 -37.75 -16.4 -37.45 -16.35 -37.25 -16.3 -37.3 -16.3 -37.55 M-4.75 -42.85 L-4.9 -42.55 -4.9 -42.5 -5.5 -41.3 -5.65 -41.1 -5.8 -40.75 -5.8 -40.7 -6.1 -40.1 -6.1 -40.0 -6.15 -39.9 -6.25 -39.75 -5.85 -39.2 -5.75 -39.1 -5.7 -38.95 -5.6 -38.9 -5.5 -38.75 -5.05 -38.2 -4.95 -38.05 -4.8 -37.95 -4.15 -37.1 -4.1 -37.1 -4.05 -37.05 -4.0 -36.95 -3.65 -36.45 Q-3.15 -36.05 -3.05 -35.5 L-3.1 -34.9 Q-3.25 -34.15 -4.05 -34.0 L-4.3 -33.95 -4.45 -33.95 -5.05 -33.8 -5.3 -33.8 -5.45 -33.75 -5.55 -33.75 -6.15 -33.6 -6.9 -33.85 -7.65 -34.7 -7.7 -34.75 Q-7.6 -34.3 -7.85 -33.8 -8.15 -33.35 -8.6 -33.2 L-8.95 -33.1 -9.0 -33.1 -9.1 -33.05 -9.2 -33.05 -9.35 -33.0 -9.9 -32.9 -10.0 -32.9 -10.25 -32.8 -10.85 -32.8 -11.3 -32.5 -12.25 -32.3 -13.25 -32.45 -14.45 -32.9 -14.35 -32.7 Q-14.15 -32.2 -14.35 -31.65 -14.55 -31.2 -15.1 -30.95 L-15.45 -30.85 -15.5 -30.8 -15.6 -30.8 -15.75 -30.7 -16.1 -30.55 -16.3 -30.5 -16.55 -30.35 -17.0 -30.3 -17.35 -29.95 -17.6 -29.75 -17.95 -29.55 Q-18.7 -29.0 -19.25 -29.0 -19.7 -29.0 -20.3 -29.45 L-20.45 -29.55 -20.5 -29.6 -20.75 -29.4 -21.1 -29.2 -21.25 -29.05 -21.25 -28.9 Q-21.0 -28.55 -21.1 -27.95 -21.2 -27.35 -21.8 -26.95 L-22.1 -26.75 -22.3 -26.65 -22.4 -26.55 -22.65 -26.35 -23.2 -26.1 -23.5 -25.7 -23.65 -25.5 -23.75 -25.45 -24.2 -24.9 Q-24.85 -24.25 -25.5 -24.25 L-25.65 -24.25 -25.75 -24.3 -26.6 -24.75 -27.5 -25.65 -27.7 -25.8 -28.05 -26.15 -28.1 -26.05 -28.2 -25.95 -28.3 -25.9 -28.85 -25.35 -28.85 -25.3 -27.95 -24.4 -27.75 -24.25 -27.5 -24.0 Q-26.35 -22.85 -27.2 -21.8 L-27.55 -21.45 -27.65 -21.4 -28.2 -20.75 Q-28.65 -20.3 -29.2 -20.3 L-29.4 -20.35 -29.4 -19.65 -29.65 -18.45 -29.65 -18.4 -29.7 -18.35 -29.9 -17.95 -30.1 -17.65 -30.15 -17.55 -30.7 -16.8 -31.6 -15.95 Q-31.95 -15.75 -32.3 -15.75 L-33.0 -15.95 -33.2 -16.1 -33.6 -16.3 -33.85 -16.5 -34.0 -16.65 -34.05 -16.65 -34.25 -16.8 Q-34.65 -17.0 -34.85 -17.55 -34.95 -18.1 -34.5 -18.85 L-34.2 -19.2 -35.4 -18.85 -36.2 -18.75 -36.3 -18.75 -37.3 -18.9 Q-38.05 -19.1 -38.4 -19.35 L-39.3 -20.15 Q-39.85 -20.7 -39.95 -21.6 L-39.85 -22.9 -39.65 -23.5 -39.1 -24.6 -38.05 -25.8 Q-37.65 -26.2 -37.1 -26.2 L-36.7 -26.1 -36.25 -25.85 -36.1 -25.8 -35.6 -25.45 -35.4 -25.35 Q-34.85 -25.0 -34.75 -24.25 L-35.0 -23.3 -34.5 -23.45 -34.45 -23.45 -34.05 -23.6 -33.2 -23.7 -35.95 -26.25 -36.6 -27.35 -36.15 -28.55 -36.0 -28.65 -35.7 -28.95 -35.55 -29.15 -34.8 -29.85 -34.7 -29.85 -34.2 -29.95 Q-33.7 -29.95 -33.2 -29.55 L-33.0 -29.3 -31.9 -28.25 -31.15 -28.95 -31.05 -29.1 -32.3 -30.25 -32.85 -31.15 Q-32.95 -31.85 -32.5 -32.3 L-32.3 -32.45 -32.3 -32.5 -32.25 -32.5 -32.15 -32.65 -31.8 -33.0 -31.6 -33.25 Q-31.0 -33.85 -30.5 -33.85 -29.8 -33.85 -29.45 -33.35 L-28.95 -32.85 -28.8 -32.75 -28.2 -32.15 -27.95 -31.85 -27.7 -31.7 -27.2 -31.2 -27.05 -31.0 -26.35 -30.35 -26.35 -30.4 -26.55 -30.9 -26.75 -31.45 -26.8 -31.65 -27.3 -32.8 -27.3 -32.85 -27.45 -33.2 -27.5 -33.45 -27.55 -33.5 -27.55 -33.6 -27.6 -33.7 Q-28.55 -35.8 -27.15 -36.75 L-25.95 -37.6 -25.9 -37.65 Q-25.2 -38.2 -24.35 -38.2 L-24.25 -38.2 Q-23.55 -38.15 -22.95 -37.6 L-22.75 -37.4 -22.55 -37.25 -22.45 -37.15 -22.2 -37.0 -22.2 -36.95 -22.15 -36.95 -20.9 -35.75 -20.8 -35.7 -20.7 -35.55 -20.05 -35.0 -20.0 -34.95 -19.95 -34.85 -19.8 -34.7 -19.85 -34.85 -20.1 -35.4 -20.25 -35.9 -21.35 -38.5 Q-21.65 -39.45 -21.45 -40.0 L-20.6 -40.8 -20.4 -40.85 -20.3 -40.9 -20.15 -40.95 -19.95 -41.05 -19.05 -41.4 -18.9 -41.5 -17.15 -42.15 -17.25 -42.1 -16.45 -42.25 -16.3 -42.25 -16.2 -42.2 -15.55 -42.2 -14.6 -41.95 -14.55 -41.9 -13.85 -41.5 -13.15 -40.8 -13.2 -40.9 -13.35 -41.6 -13.35 -41.7 -13.4 -41.85 -13.45 -42.1 Q-13.55 -42.7 -13.25 -43.15 L-12.4 -43.75 -12.05 -43.8 -11.9 -43.85 -11.85 -43.85 -11.6 -43.9 -11.45 -43.9 -10.95 -44.05 -10.6 -44.1 Q-10.05 -44.1 -9.8 -43.75 -9.35 -43.45 -9.3 -42.95 L-9.25 -42.85 -9.25 -42.9 -8.65 -44.1 Q-8.1 -44.65 -7.55 -44.75 L-7.25 -44.75 -6.8 -44.9 -6.5 -44.95 -6.25 -44.95 -6.1 -45.0 -5.75 -45.05 Q-4.75 -45.05 -4.5 -44.0 -4.4 -43.45 -4.75 -42.85 M11.35 -39.3 L11.0 -39.3 10.7 -39.2 10.6 -39.15 10.25 -38.85 10.1 -38.55 10.05 -38.4 10.0 -38.3 9.95 -38.3 9.85 -37.9 9.85 -37.55 9.9 -37.1 10.1 -36.65 10.15 -36.6 10.3 -36.5 10.35 -36.5 10.35 -36.45 10.45 -36.45 10.65 -36.35 10.7 -36.35 10.9 -36.3 11.3 -36.4 11.7 -36.65 12.0 -37.1 12.15 -37.5 12.2 -37.75 12.25 -37.9 12.25 -38.4 12.1 -38.7 12.05 -38.85 12.05 -38.9 11.75 -39.15 11.35 -39.3 M21.4 -34.55 L21.15 -34.85 20.8 -35.1 20.75 -35.15 20.6 -35.2 20.15 -35.2 19.65 -34.95 19.6 -34.9 19.45 -34.7 19.25 -34.5 19.05 -34.15 19.05 -34.1 19.0 -34.0 18.85 -33.3 18.95 -32.85 19.15 -32.65 19.15 -32.6 19.2 -32.6 19.3 -32.55 19.4 -32.45 19.5 -32.4 19.6 -32.3 20.05 -32.3 20.5 -32.45 20.65 -32.55 21.1 -33.05 21.15 -33.2 21.3 -33.4 21.35 -33.55 21.4 -33.55 21.45 -34.0 21.45 -34.1 21.4 -34.35 21.4 -34.55 M21.35 -39.25 L21.5 -39.25 21.85 -39.2 23.1 -38.65 23.65 -38.2 23.8 -38.1 24.45 -37.45 24.5 -37.45 24.5 -37.4 25.1 -36.5 25.45 -35.4 25.55 -35.05 25.55 -34.9 25.6 -34.75 25.6 -34.65 25.65 -34.3 25.85 -34.55 26.0 -34.65 26.25 -34.95 Q26.65 -35.4 27.25 -35.4 L28.35 -34.95 28.6 -34.7 28.75 -34.5 30.3 -33.1 30.45 -33.0 30.5 -32.9 30.55 -32.85 30.9 -32.6 31.5 -32.0 31.65 -31.9 32.05 -31.5 32.3 -31.3 32.6 -30.9 32.65 -30.85 32.7 -29.65 32.2 -29.05 32.25 -29.05 33.35 -29.5 33.4 -29.5 Q34.2 -29.45 34.5 -28.85 L34.8 -28.4 34.8 -28.35 34.85 -28.35 35.5 -27.4 35.55 -27.3 35.55 -27.2 Q35.7 -26.3 34.95 -25.8 L33.95 -25.15 33.45 -24.7 33.65 -24.45 34.1 -23.7 35.5 -24.75 Q35.95 -25.1 36.45 -25.1 37.2 -25.1 37.55 -24.6 L37.65 -24.4 37.7 -24.35 37.7 -24.3 37.8 -24.25 37.85 -24.2 38.0 -23.95 37.9 -24.05 38.05 -23.8 38.35 -23.5 Q39.25 -22.25 38.05 -21.35 L37.45 -21.0 37.35 -20.9 37.05 -20.65 36.6 -20.4 36.3 -20.15 36.05 -20.0 35.5 -19.55 35.3 -19.45 33.8 -18.35 33.45 -18.15 33.35 -18.05 31.4 -16.6 30.55 -16.3 Q29.9 -16.3 29.4 -16.9 L29.3 -17.1 29.2 -17.2 28.75 -17.75 Q28.2 -18.5 28.4 -19.2 L28.4 -19.35 28.45 -19.45 29.05 -20.15 29.75 -20.65 29.9 -20.7 30.05 -20.85 30.3 -21.05 30.7 -21.3 30.65 -21.35 30.55 -21.55 30.5 -21.6 30.25 -21.9 30.15 -22.1 30.05 -22.25 30.0 -22.25 29.85 -22.15 29.8 -22.15 29.75 -22.1 28.5 -21.2 Q27.95 -20.75 27.35 -20.75 26.75 -20.75 26.3 -21.3 L26.0 -21.65 25.95 -21.75 25.45 -22.45 Q24.8 -23.3 25.4 -24.0 L25.85 -24.45 28.7 -26.5 28.8 -26.55 28.85 -26.6 29.55 -27.05 30.4 -27.75 30.6 -27.9 30.55 -27.9 29.8 -28.1 29.75 -28.1 29.1 -28.65 28.5 -28.05 28.35 -27.8 28.15 -27.65 28.05 -27.55 27.6 -27.0 27.3 -26.7 27.2 -26.55 26.45 -25.75 26.25 -25.45 25.6 -24.85 25.35 -24.5 Q24.9 -24.05 24.35 -24.05 23.7 -24.05 23.2 -24.55 L22.45 -25.2 22.45 -25.25 22.4 -25.25 22.25 -25.4 Q21.5 -26.0 21.95 -27.0 L22.35 -27.5 22.4 -27.6 22.65 -27.8 24.45 -29.75 24.5 -29.85 24.65 -30.0 24.9 -30.2 25.0 -30.3 25.1 -30.45 25.85 -31.3 25.95 -31.45 26.05 -31.55 25.9 -31.65 25.85 -31.75 25.55 -31.95 25.3 -32.25 24.5 -30.7 23.8 -29.8 23.7 -29.75 Q23.15 -29.2 23.0 -29.15 L21.85 -28.45 20.3 -28.1 19.9 -28.15 19.65 -28.15 18.55 -28.35 18.2 -28.5 18.1 -28.5 17.95 -28.55 17.4 -28.8 16.7 -29.3 16.15 -29.8 15.85 -30.15 15.8 -30.2 15.3 -30.9 15.2 -31.25 15.15 -31.35 Q14.8 -32.1 14.75 -32.9 L14.7 -33.75 14.0 -33.15 Q13.45 -32.6 12.65 -32.4 L12.2 -32.35 12.15 -32.35 11.8 -32.25 10.9 -32.15 10.85 -32.15 10.8 -32.2 10.45 -32.2 10.4 -32.25 10.15 -32.25 9.6 -32.35 8.75 -32.65 8.1 -33.0 7.75 -33.25 7.7 -33.35 7.65 -33.35 7.55 -33.45 7.05 -33.85 6.85 -34.15 6.75 -34.25 Q6.25 -34.9 6.0 -35.65 L5.75 -36.45 5.75 -36.6 5.7 -36.7 5.65 -36.95 5.65 -37.0 5.7 -38.15 5.7 -38.2 6.05 -39.6 6.6 -40.7 6.25 -40.6 6.1 -40.6 5.6 -40.65 5.4 -40.65 5.3 -40.0 5.3 -39.85 5.2 -39.3 5.2 -38.8 5.1 -38.05 5.1 -37.55 5.05 -37.2 5.0 -37.0 5.0 -36.4 4.9 -35.85 4.9 -35.6 4.85 -35.5 4.85 -35.05 4.35 -34.15 Q3.9 -33.8 3.3 -33.8 L3.1 -33.8 2.75 -33.85 2.65 -33.85 2.1 -33.95 1.8 -33.95 Q0.8 -34.2 0.65 -35.1 L0.65 -35.7 0.65 -35.8 0.7 -36.1 0.7 -36.25 0.85 -37.4 0.85 -37.75 0.95 -38.55 1.0 -38.75 1.0 -39.1 1.05 -39.4 1.1 -39.5 1.1 -40.1 1.2 -40.8 1.2 -41.15 1.05 -41.2 0.55 -41.2 Q-0.05 -41.3 -0.45 -41.75 L-0.8 -42.9 -0.75 -43.45 -0.7 -43.65 -0.65 -44.0 Q-0.6 -44.55 -0.2 -44.9 0.2 -45.25 0.8 -45.25 L1.0 -45.25 1.6 -45.15 1.9 -45.15 3.05 -45.0 3.35 -45.0 3.7 -44.95 3.9 -44.95 3.95 -44.9 4.55 -44.9 4.65 -44.85 4.9 -44.85 5.1 -44.8 5.5 -44.8 5.85 -44.7 6.4 -44.7 6.85 -44.55 6.9 -44.55 6.95 -44.5 Q7.55 -44.3 7.65 -43.6 L7.65 -42.8 7.65 -42.6 7.6 -42.3 7.6 -41.9 7.65 -42.0 7.8 -42.1 8.45 -42.65 8.5 -42.65 8.5 -42.7 8.55 -42.7 8.6 -42.75 8.9 -42.95 9.35 -43.15 9.4 -43.15 9.65 -43.25 10.55 -43.45 11.0 -43.45 11.3 -43.5 12.7 -43.25 13.3 -43.0 13.5 -42.9 14.25 -42.5 14.35 -42.4 14.5 -42.3 15.15 -41.7 15.8 -40.7 15.9 -40.4 15.95 -40.3 16.0 -40.25 16.1 -40.05 16.3 -39.3 16.3 -38.95 16.35 -38.75 16.4 -38.4 16.4 -37.7 16.35 -37.45 17.05 -38.1 17.9 -38.65 17.95 -38.65 18.1 -38.75 18.85 -39.05 18.9 -39.1 18.95 -39.1 19.05 -39.15 19.4 -39.25 19.8 -39.3 19.9 -39.35 20.15 -39.35 20.4 -39.4 21.05 -39.35 21.35 -39.25" fill="#d4a000" fill-rule="evenodd" stroke="none"/>
    <path d="M-35.85 -23.85 L-35.95 -23.45 -35.7 -22.95 -35.05 -22.85 -34.2 -23.15 -34.0 -23.2 -33.85 -23.3 -33.45 -23.35 -33.05 -23.5 -32.45 -23.6 Q-31.65 -23.6 -30.85 -23.1 L-30.25 -22.6 -29.9 -22.05 -29.75 -21.65 Q-29.6 -21.25 -29.6 -20.75 L-29.8 -19.7 -30.3 -18.8 -30.7 -18.3 -31.3 -17.7 Q-31.6 -17.55 -31.65 -17.7 L-31.95 -17.9 -32.25 -18.05 -32.7 -18.35 -32.95 -18.5 Q-33.25 -18.7 -32.85 -19.2 L-32.5 -19.6 -32.3 -19.75 -32.0 -20.25 Q-31.85 -20.4 -31.85 -20.65 -31.75 -20.95 -32.15 -21.25 L-32.5 -21.35 -33.05 -21.3 -33.4 -21.2 -33.8 -21.0 -34.9 -20.7 -35.45 -20.65 -36.25 -20.75 Q-36.85 -20.95 -37.05 -21.1 L-37.75 -21.65 -38.2 -22.65 Q-38.25 -23.4 -37.95 -24.05 L-37.5 -24.95 -36.6 -25.95 -36.25 -26.05 -35.2 -25.4 -35.0 -25.1 -35.1 -24.75 -35.85 -23.85" fill="#ffd245" fill-rule="evenodd" stroke="none"/>
    <path d="M-35.2 -25.4 L-36.25 -26.05 -36.35 -26.1 -36.6 -25.95 -37.5 -24.95 -37.95 -24.05 Q-38.25 -23.4 -38.2 -22.65 L-37.75 -21.65 -37.05 -21.1 Q-36.85 -20.95 -36.25 -20.75 L-35.5 -20.65 -35.4 -20.65 -34.9 -20.7 -33.8 -21.0 -33.4 -21.2 -33.05 -21.3 -32.65 -21.35 -32.5 -21.35 -32.15 -21.25 Q-31.75 -20.95 -31.85 -20.65 -31.85 -20.4 -32.0 -20.25 L-32.3 -19.75 -32.5 -19.6 -32.85 -19.2 Q-33.25 -18.7 -32.95 -18.5 L-32.7 -18.35 -32.25 -18.05 -31.95 -17.9 -31.65 -17.7 -31.55 -17.65 -31.3 -17.7 -30.7 -18.3 -30.3 -18.8 -29.8 -19.7 -29.6 -20.75 Q-29.6 -21.25 -29.75 -21.65 L-29.9 -22.05 -30.25 -22.6 -30.85 -23.1 Q-31.65 -23.6 -32.45 -23.6 L-33.05 -23.5 -33.45 -23.35 -33.85 -23.3 -34.0 -23.2 -34.2 -23.15 -35.05 -22.85 -35.2 -22.85 -35.7 -22.95 -35.95 -23.45 -35.85 -23.85 -35.1 -24.75 -35.0 -25.1 -35.2 -25.4 M-39.2 -22.5 L-39.1 -23.8 -38.9 -24.4 -38.3 -25.5 -37.25 -26.7 Q-36.85 -27.1 -36.35 -27.1 L-35.85 -27.0 -35.95 -27.05 -35.45 -26.75 -35.3 -26.65 -35.2 -26.6 -34.65 -26.25 Q-34.0 -25.8 -34.0 -25.15 L-34.0 -25.1 Q-33.95 -24.65 -34.25 -24.2 L-34.2 -24.2 -34.2 -24.25 -33.7 -24.35 -33.65 -24.35 -33.25 -24.5 -32.45 -24.6 Q-31.4 -24.6 -30.3 -23.9 L-29.65 -23.4 -29.25 -22.9 -28.95 -22.3 -28.95 -22.45 -28.8 -21.95 -28.6 -20.7 -28.6 -20.5 -28.85 -19.3 -28.9 -19.3 -28.9 -19.25 -29.45 -18.25 -29.9 -17.7 Q-30.35 -17.05 -30.85 -16.85 L-31.55 -16.65 Q-32.0 -16.65 -32.2 -16.85 L-32.4 -16.95 -32.5 -17.05 -32.8 -17.2 -33.1 -17.45 -33.2 -17.55 -33.25 -17.55 -33.5 -17.7 -34.05 -18.45 Q-34.15 -19.0 -33.7 -19.75 L-33.45 -20.1 -34.65 -19.75 -35.45 -19.65 -35.5 -19.65 -36.5 -19.8 -37.6 -20.25 -38.5 -21.05 Q-39.1 -21.75 -39.2 -22.5" fill="#b07f00" fill-rule="evenodd" stroke="none"/>
    <path d="M-29.35 -33.55 L-28.85 -33.0 -28.45 -32.65 -27.85 -32.0 -27.35 -31.6 -26.95 -31.15 -26.5 -30.8 -23.45 -27.85 Q-23.1 -27.6 -23.45 -27.25 L-24.15 -26.5 Q-24.5 -26.15 -24.7 -26.15 L-25.15 -26.35 -26.95 -28.1 -27.4 -28.2 -27.8 -27.95 -28.05 -27.65 -28.8 -26.95 -29.15 -26.35 -28.9 -25.6 -28.6 -25.3 -28.35 -25.1 -27.45 -24.2 Q-26.9 -23.7 -27.2 -23.35 L-28.15 -22.35 Q-28.3 -22.15 -28.55 -22.25 L-28.8 -22.45 -29.75 -23.35 -30.25 -23.9 -31.1 -24.65 -31.35 -24.95 -34.45 -27.9 -34.8 -28.35 -34.65 -28.7 -34.4 -29.0 -34.2 -29.15 -34.05 -29.35 -33.75 -29.65 -33.55 -29.8 -33.1 -29.7 -33.0 -29.55 -31.55 -28.2 Q-31.0 -27.8 -30.6 -28.2 L-29.65 -29.15 -29.2 -29.8 Q-29.1 -30.25 -29.45 -30.6 L-30.8 -31.85 -31.05 -32.2 -31.0 -32.5 -30.9 -32.55 -30.8 -32.65 -30.75 -32.75 -30.35 -33.15 -30.2 -33.35 -30.1 -33.45 -29.35 -33.55" fill="#ffd245" fill-rule="evenodd" stroke="none"/>
    <path d="M-30.1 -33.45 L-30.2 -33.35 -30.35 -33.15 -30.75 -32.75 -30.8 -32.65 -30.9 -32.55 -31.0 -32.5 -31.05 -32.2 -30.8 -31.85 -29.45 -30.6 Q-29.1 -30.25 -29.2 -29.8 L-29.65 -29.15 -30.6 -28.2 Q-30.85 -27.95 -31.05 -27.95 -31.3 -27.95 -31.55 -28.2 L-33.0 -29.55 -33.1 -29.7 -33.45 -29.85 -33.55 -29.8 -33.75 -29.65 -34.05 -29.35 -34.2 -29.15 -34.4 -29.0 -34.65 -28.7 -34.8 -28.35 -34.45 -27.9 -31.35 -24.95 -31.1 -24.65 -30.25 -23.9 -29.75 -23.35 -28.8 -22.45 -28.55 -22.25 -28.4 -22.2 -28.15 -22.35 -27.2 -23.35 Q-26.9 -23.7 -27.45 -24.2 L-28.35 -25.1 -28.6 -25.3 -28.9 -25.6 -29.15 -26.35 -28.8 -26.95 -28.5 -27.2 -27.8 -27.95 -27.4 -28.2 -27.3 -28.25 -26.95 -28.1 -25.15 -26.35 -24.7 -26.15 Q-24.5 -26.15 -24.15 -26.5 L-23.45 -27.25 Q-23.1 -27.6 -23.45 -27.85 L-26.5 -30.8 -26.95 -31.15 -27.35 -31.6 -27.85 -32.0 -28.45 -32.65 -28.85 -33.0 -29.35 -33.55 -29.7 -33.75 -30.1 -33.45 M-31.5 -33.4 L-31.45 -33.4 -31.35 -33.55 -31.0 -33.9 -30.8 -34.15 Q-30.2 -34.75 -29.7 -34.75 -29.15 -34.75 -28.65 -34.25 L-28.05 -33.65 -27.4 -33.05 -27.15 -32.75 -24.9 -30.65 -24.75 -30.45 -24.65 -30.35 -24.5 -30.25 -22.75 -28.55 Q-22.3 -28.15 -22.3 -27.6 -22.3 -27.05 -22.7 -26.55 L-22.85 -26.4 -22.95 -26.35 -23.15 -26.15 -23.4 -25.8 Q-24.25 -25.15 -24.7 -25.15 L-24.85 -25.15 -24.95 -25.2 Q-25.5 -25.3 -25.85 -25.65 L-26.5 -26.35 -26.7 -26.5 -27.25 -27.05 -27.75 -26.5 -27.95 -26.35 -28.1 -26.2 -28.05 -26.2 -28.0 -26.15 -27.9 -26.0 -27.65 -25.8 -26.75 -24.9 Q-25.5 -23.75 -26.4 -22.75 L-26.75 -22.35 -26.85 -22.3 -27.45 -21.65 Q-27.9 -21.2 -28.4 -21.2 L-29.0 -21.35 -29.5 -21.75 -30.0 -22.25 -30.2 -22.4 -30.95 -23.2 -31.3 -23.45 -32.1 -24.25 -32.1 -24.3 -33.55 -25.6 -33.85 -25.95 -35.15 -27.15 Q-35.75 -27.75 -35.8 -28.25 L-35.65 -29.05 -35.4 -29.4 -35.0 -29.8 -34.95 -29.8 -34.9 -29.85 -34.8 -30.0 -34.65 -30.15 -34.5 -30.35 -34.1 -30.65 -34.0 -30.7 -33.95 -30.75 -33.45 -30.85 Q-32.85 -30.85 -32.45 -30.45 L-31.1 -29.15 -30.85 -29.35 -30.6 -29.65 -30.35 -29.85 -30.25 -30.0 -30.35 -30.05 -31.5 -31.15 -32.05 -32.05 Q-32.15 -32.75 -31.7 -33.2 L-31.5 -33.35 -31.5 -33.4" fill="#b07f00" fill-rule="evenodd" stroke="none"/>
    <path d="M-17.05 -32.5 L-16.8 -32.2 Q-16.65 -31.95 -17.15 -31.7 L-17.7 -31.25 Q-18.2 -30.9 -18.4 -30.9 -18.6 -30.85 -18.9 -31.1 L-19.2 -31.35 -19.35 -31.45 -19.85 -31.5 -20.55 -31.15 -21.2 -30.65 -21.5 -30.15 -21.3 -29.3 -21.25 -29.05 -21.6 -28.7 -22.4 -28.1 -22.8 -27.95 Q-23.0 -27.85 -23.2 -28.15 L-23.45 -28.85 -23.6 -29.1 -23.75 -29.55 -24.05 -30.1 -24.3 -30.85 -24.45 -31.15 -24.65 -31.7 -24.85 -32.15 -25.0 -32.65 -25.15 -33.05 -25.6 -34.05 -25.8 -34.75 -25.95 -35.05 -26.25 -36.1 -25.8 -36.8 -24.45 -37.75 Q-24.1 -38.1 -23.55 -38.1 L-22.85 -37.75 -22.4 -37.4 -21.4 -36.45 -20.0 -35.2 -19.75 -34.9 -19.2 -34.45 -18.95 -34.15 -17.25 -32.65 -17.05 -32.5 M-23.15 -35.25 L-23.55 -35.35 -23.65 -35.1 -23.45 -34.25 -23.15 -33.7 -22.8 -32.75 -21.75 -32.7 -21.3 -33.1 Q-21.05 -33.25 -21.25 -33.5 L-21.35 -33.6 -21.95 -34.2 -22.55 -34.8 -23.15 -35.25" fill="#ffd245" fill-rule="evenodd" stroke="none"/>
    <path d="M-23.4 -35.4 L-23.15 -35.25 -22.55 -34.8 -21.95 -34.2 -21.35 -33.6 -21.25 -33.5 Q-21.05 -33.25 -21.3 -33.1 L-21.75 -32.7 -22.3 -32.5 Q-22.6 -32.5 -22.8 -32.75 L-23.15 -33.7 -23.45 -34.25 -23.65 -35.1 -23.55 -35.35 -23.4 -35.4 M-18.45 -30.9 Q-18.25 -30.9 -17.7 -31.25 L-17.15 -31.7 Q-16.65 -31.95 -16.8 -32.2 L-17.05 -32.5 -17.25 -32.65 -18.95 -34.15 -19.2 -34.45 -19.55 -34.75 -19.75 -34.9 -20.0 -35.2 -21.4 -36.45 -22.05 -37.1 -22.85 -37.75 -23.55 -38.1 -23.6 -38.1 -24.45 -37.75 -25.8 -36.8 -26.25 -36.1 -25.95 -35.05 -25.8 -34.75 -25.6 -34.05 -25.15 -33.05 -25.0 -32.65 -24.85 -32.15 -24.65 -31.7 -24.05 -30.1 -23.75 -29.55 -23.6 -29.1 -23.45 -28.85 -23.2 -28.15 -22.8 -27.95 -22.4 -28.1 -21.6 -28.7 -21.25 -29.05 -21.3 -29.3 -21.5 -30.15 -21.2 -30.65 -20.55 -31.15 -19.85 -31.5 -19.65 -31.55 -19.35 -31.45 -19.2 -31.35 -18.9 -31.1 -18.45 -30.9 M-18.7 -35.35 L-18.3 -34.9 -18.25 -34.9 -18.25 -34.85 -18.05 -34.7 -17.45 -34.15 -16.65 -33.4 -16.4 -33.25 -16.0 -32.75 Q-15.35 -31.7 -16.6 -30.85 L-17.15 -30.4 Q-18.05 -29.9 -18.45 -29.9 L-19.5 -30.3 -19.7 -30.5 -20.3 -30.1 -20.45 -29.95 -20.5 -29.95 -20.45 -29.8 Q-20.2 -29.4 -20.3 -28.8 -20.4 -28.25 -21.0 -27.85 L-21.35 -27.65 -21.55 -27.5 -21.6 -27.5 -21.9 -27.25 Q-22.5 -26.95 -22.8 -26.95 -23.55 -26.95 -24.0 -27.55 L-24.3 -28.2 -24.3 -28.3 -24.35 -28.4 -24.45 -28.55 -24.6 -29.0 -24.95 -29.65 -24.95 -29.7 -25.25 -30.5 -25.35 -30.7 -25.35 -30.8 -25.6 -31.3 -26.0 -32.45 -26.0 -32.55 -26.1 -32.65 -26.55 -33.8 -26.55 -33.85 -26.75 -34.35 -26.75 -34.5 -26.85 -34.6 Q-27.8 -36.7 -26.4 -37.65 L-26.05 -37.85 -25.15 -38.5 -25.1 -38.5 Q-24.5 -39.1 -23.6 -39.1 L-23.5 -39.1 Q-22.75 -39.05 -22.15 -38.5 L-22.2 -38.5 -21.75 -38.15 -21.65 -38.05 -21.35 -37.85 -20.9 -37.35 -20.85 -37.35 -18.85 -35.45 -18.7 -35.35" fill="#b07f00" fill-rule="evenodd" stroke="none"/>
    <path d="M-12.65 -40.0 Q-12.4 -39.6 -12.4 -38.65 L-12.65 -37.75 -12.85 -36.9 -12.5 -36.65 -11.7 -36.55 -11.45 -36.6 -11.15 -36.3 -11.05 -36.0 -10.6 -34.95 Q-10.45 -34.55 -10.9 -34.3 L-11.7 -34.2 -12.2 -34.3 -13.25 -34.7 -13.45 -34.8 -13.75 -34.85 -14.1 -35.0 -14.8 -34.95 -14.95 -34.8 -15.05 -34.5 -14.9 -33.95 -14.5 -33.25 Q-14.35 -32.85 -14.65 -32.75 L-14.95 -32.7 -15.45 -32.5 -15.7 -32.35 -16.15 -32.2 Q-16.45 -32.05 -16.65 -32.45 L-19.6 -39.8 Q-19.95 -40.55 -19.45 -40.75 L-19.1 -40.85 -18.8 -41.0 -16.25 -42.05 -14.85 -42.1 -14.2 -41.9 -13.6 -41.55 -12.95 -40.75 -12.65 -40.0 M-16.7 -39.7 L-16.9 -39.55 -17.0 -39.25 -16.95 -38.85 -16.15 -37.0 -15.8 -36.75 -15.45 -36.85 -15.2 -37.0 -14.95 -37.2 -14.85 -37.35 -14.65 -37.75 -14.5 -38.35 Q-14.5 -39.0 -14.65 -39.3 L-14.95 -39.75 Q-15.3 -40.05 -15.7 -40.0 L-16.2 -39.9 -16.7 -39.7" fill="#ffd245" fill-rule="evenodd" stroke="none"/>
    <path d="M-15.9 -38.9 L-15.75 -38.65 -15.65 -38.3 -15.55 -38.1 -15.55 -38.2 -15.5 -38.45 -15.55 -38.95 -15.6 -39.0 -15.75 -38.95 -15.8 -38.95 -15.9 -38.9 M-16.9 -39.55 L-16.7 -39.7 -16.2 -39.9 -15.7 -40.0 -15.6 -40.0 Q-14.8 -40.0 -14.65 -39.3 -14.5 -39.0 -14.5 -38.35 L-14.65 -37.75 -14.85 -37.35 -14.95 -37.2 -15.2 -37.0 -15.45 -36.85 -15.8 -36.75 -15.85 -36.75 -16.15 -37.0 -16.95 -38.85 -17.0 -39.25 -16.9 -39.55 M-13.55 -42.7 L-13.1 -42.4 Q-12.35 -41.9 -12.05 -41.15 L-12.0 -41.1 -11.95 -40.95 -11.95 -40.9 -11.7 -40.4 Q-11.35 -39.5 -11.45 -38.55 L-11.65 -37.55 -11.55 -37.55 -11.45 -37.6 -11.3 -37.55 Q-10.55 -37.4 -10.2 -36.65 L-10.15 -36.5 -10.15 -36.45 -9.95 -36.1 -9.8 -35.55 -9.75 -35.5 -9.65 -35.3 Q-9.4 -34.75 -9.65 -34.25 -9.9 -33.65 -10.55 -33.35 L-11.5 -33.2 -12.45 -33.35 -13.65 -33.8 -13.55 -33.6 Q-13.3 -33.05 -13.55 -32.55 -13.85 -32.0 -14.3 -31.85 L-14.65 -31.75 -14.75 -31.7 -14.85 -31.7 -15.0 -31.6 -15.3 -31.45 -15.35 -31.45 -15.5 -31.35 -15.75 -31.25 -16.3 -31.15 Q-17.15 -31.15 -17.6 -32.05 L-17.7 -32.45 -17.75 -32.5 -17.75 -32.6 -17.8 -32.65 -18.0 -33.1 -18.15 -33.6 -18.2 -33.65 -18.25 -33.9 -18.3 -34.05 -18.9 -35.3 -19.05 -35.75 -19.3 -36.25 -19.3 -36.35 -20.3 -38.95 -20.4 -39.1 -20.55 -39.4 Q-20.85 -40.35 -20.65 -40.85 L-19.8 -41.7 -19.6 -41.75 -19.5 -41.8 -19.35 -41.85 -19.2 -41.95 -18.1 -42.35 -17.85 -42.5 -17.65 -42.55 -17.4 -42.7 -16.4 -43.0 -15.65 -43.1 -15.55 -43.15 -15.45 -43.1 -14.75 -43.1 -13.85 -42.85 -13.75 -42.8 -13.7 -42.75 -13.55 -42.7 M-12.65 -40.0 L-12.95 -40.75 -13.6 -41.55 -14.2 -41.9 -14.85 -42.1 -16.25 -42.05 -18.8 -41.0 -19.1 -40.85 -19.45 -40.75 Q-19.95 -40.55 -19.6 -39.8 L-16.65 -32.45 Q-16.65 -32.15 -16.3 -32.15 L-15.7 -32.35 -15.45 -32.5 -14.95 -32.7 -14.65 -32.75 Q-14.35 -32.85 -14.5 -33.25 L-14.9 -33.95 -15.05 -34.5 -14.95 -34.8 -14.8 -34.95 -14.45 -35.0 -14.1 -35.0 -13.45 -34.8 -13.25 -34.7 -12.2 -34.3 -11.5 -34.2 -10.9 -34.3 Q-10.45 -34.55 -10.6 -34.95 L-11.05 -36.0 -11.15 -36.3 -11.45 -36.6 -11.7 -36.55 -11.75 -36.55 -12.5 -36.65 -12.85 -36.9 -12.65 -37.75 -12.4 -38.65 Q-12.4 -39.6 -12.65 -40.0" fill="#b07f00" fill-rule="evenodd" stroke="none"/>
    <path d="M-10.6 -43.8 L-10.45 -43.85 -10.0 -43.95 -9.65 -43.9 -9.5 -43.65 -9.45 -43.45 -9.35 -42.75 -9.2 -42.3 -9.1 -41.55 -9.0 -41.3 -8.8 -41.1 -8.6 -41.25 Q-8.3 -41.65 -7.9 -42.6 L-7.65 -43.1 -7.55 -43.4 -7.1 -44.35 -6.6 -44.65 -6.25 -44.65 -5.8 -44.8 -5.1 -44.9 Q-4.75 -45.05 -4.7 -44.7 L-4.85 -44.2 -5.75 -42.35 -5.9 -42.1 -6.25 -41.35 -6.35 -41.0 -6.45 -40.45 -6.3 -40.05 -5.7 -39.3 -5.4 -38.95 -4.45 -37.8 -4.05 -37.35 -3.25 -36.25 -3.25 -36.05 -3.45 -35.9 -3.85 -35.85 -4.45 -35.7 -4.9 -35.65 -5.3 -35.5 -5.55 -35.55 -6.05 -36.2 -6.3 -36.55 -6.4 -36.65 -6.45 -36.75 -6.55 -36.85 -7.65 -38.15 -8.15 -38.5 Q-8.5 -38.45 -8.4 -37.95 L-8.35 -37.7 -8.3 -37.2 -8.15 -36.7 -8.15 -36.4 -7.9 -35.6 Q-7.8 -35.15 -8.15 -35.05 L-8.35 -34.95 -8.6 -34.95 -9.05 -34.8 -9.65 -34.7 -9.85 -34.7 -10.1 -34.95 -10.1 -35.05 -10.75 -38.55 -10.75 -38.75 -10.8 -39.1 -10.9 -39.45 -10.9 -39.7 -11.0 -39.95 -11.5 -42.45 -11.7 -43.2 -11.4 -43.65 -11.25 -43.7 -11.1 -43.7 -10.6 -43.8" fill="#ffd245" fill-rule="evenodd" stroke="none"/>
    <path d="M-9.85 -44.0 L-10.0 -43.95 -10.45 -43.85 -10.6 -43.8 -11.1 -43.7 -11.25 -43.7 -11.4 -43.65 -11.7 -43.2 -11.5 -42.45 -11.0 -39.95 -10.9 -39.7 -10.9 -39.45 -10.8 -39.1 -10.8 -38.75 -10.6 -37.9 -10.1 -35.05 -10.1 -34.95 -9.85 -34.7 -9.75 -34.65 Q-9.55 -34.7 -9.4 -34.8 L-9.05 -34.8 -8.6 -34.95 -8.35 -34.95 -8.15 -35.05 Q-7.8 -35.15 -7.9 -35.6 L-8.15 -36.4 -8.15 -36.7 -8.3 -37.2 -8.35 -37.7 -8.4 -37.95 Q-8.5 -38.45 -8.15 -38.5 L-7.65 -38.15 -6.55 -36.85 -6.45 -36.75 -6.4 -36.65 -6.3 -36.55 -6.05 -36.2 -5.55 -35.55 -5.35 -35.5 -5.3 -35.5 -4.9 -35.65 -4.45 -35.7 -3.85 -35.85 -3.45 -35.9 -3.25 -36.05 -3.25 -36.2 -3.55 -36.7 -4.05 -37.35 -4.45 -37.8 -5.4 -38.95 -5.7 -39.3 -6.3 -40.05 -6.45 -40.45 -6.35 -41.0 -6.25 -41.35 -5.9 -42.1 -5.75 -42.35 -4.85 -44.2 -4.7 -44.7 -5.0 -44.95 -5.1 -44.9 -5.8 -44.8 -6.25 -44.65 -6.6 -44.65 -7.1 -44.35 -7.55 -43.4 -7.65 -43.1 -7.9 -42.6 Q-8.3 -41.65 -8.6 -41.25 L-8.8 -41.1 -8.85 -41.1 -9.0 -41.3 -9.1 -41.55 -9.5 -43.65 -9.65 -43.9 -9.85 -44.0 M-6.8 -45.65 L-6.45 -45.65 -6.3 -45.7 -6.05 -45.75 -6.0 -45.8 -5.75 -45.8 -5.55 -45.85 -5.5 -45.85 -5.0 -45.95 Q-3.9 -45.95 -3.75 -44.9 -3.65 -44.35 -3.95 -43.75 L-4.1 -43.45 -4.15 -43.4 -4.75 -42.15 -4.85 -42.0 -5.0 -41.65 -5.05 -41.6 -5.1 -41.4 -5.3 -41.0 -5.35 -40.95 -5.35 -40.8 -5.45 -40.65 -5.05 -40.1 -4.95 -40.0 -4.9 -39.85 -4.8 -39.8 -4.7 -39.65 -4.25 -39.1 -4.15 -38.95 -4.0 -38.85 -3.35 -38.0 -3.3 -37.95 -3.25 -37.95 -3.2 -37.85 -2.85 -37.35 -2.3 -36.45 Q-2.15 -36.2 -2.3 -35.8 -2.45 -35.05 -3.3 -34.9 L-3.55 -34.85 -3.65 -34.85 -4.25 -34.7 -4.5 -34.7 -4.8 -34.6 -5.35 -34.5 Q-5.85 -34.5 -6.15 -34.8 L-6.85 -35.6 -6.9 -35.65 Q-6.8 -34.4 -7.85 -34.1 L-7.75 -34.1 -8.0 -34.05 -8.3 -33.95 -8.4 -33.95 -8.55 -33.9 -9.15 -33.8 -9.2 -33.8 -9.5 -33.7 -9.75 -33.65 -10.05 -33.7 -10.25 -33.8 Q-10.9 -34.05 -11.05 -34.75 L-11.1 -35.0 -11.1 -35.2 -11.15 -35.6 -11.25 -35.9 -11.55 -37.35 -11.55 -37.7 -11.6 -37.75 -11.6 -37.85 -11.65 -37.95 -11.65 -38.1 -11.75 -38.4 -11.75 -38.75 -11.8 -38.95 -11.8 -39.0 -11.85 -39.3 -11.9 -39.45 -11.9 -39.5 -11.95 -39.6 -11.95 -39.7 -12.0 -39.8 -12.2 -40.9 -12.25 -41.05 -12.3 -41.45 -12.55 -42.5 -12.55 -42.6 -12.6 -42.75 -12.65 -43.0 Q-12.75 -43.6 -12.45 -44.05 L-11.6 -44.65 -11.65 -44.65 -11.3 -44.7 -11.1 -44.7 -11.05 -44.75 -10.8 -44.8 -10.7 -44.8 -10.2 -44.95 -9.85 -45.0 -9.05 -44.7 Q-8.6 -44.4 -8.5 -43.85 L-8.5 -43.75 -8.45 -43.8 -8.1 -44.55 -8.05 -44.6 -7.9 -44.9 -7.85 -45.0 Q-7.3 -45.55 -6.8 -45.65" fill="#b07f00" fill-rule="evenodd" stroke="none"/>
    <path d="M6.95 -42.5 L6.5 -42.55 5.5 -42.45 5.3 -42.25 5.05 -40.95 5.05 -40.55 4.9 -39.0 4.9 -38.55 4.65 -36.5 4.65 -36.05 Q4.55 -35.6 4.0 -35.7 L3.6 -35.75 3.3 -35.75 2.95 -35.85 2.7 -35.85 Q2.5 -35.85 2.4 -36.2 L2.4 -36.45 2.45 -36.6 3.0 -41.6 3.0 -42.15 3.05 -42.3 2.8 -42.85 1.95 -43.05 1.65 -43.1 1.45 -43.1 Q1.3 -43.1 1.15 -43.25 L1.0 -43.65 1.05 -44.25 1.1 -44.5 1.1 -44.8 Q1.15 -45.15 1.7 -45.15 L4.65 -44.8 5.0 -44.8 5.25 -44.75 5.55 -44.75 5.9 -44.7 6.15 -44.7 6.65 -44.6 7.05 -44.6 7.25 -44.55 7.45 -44.3 7.45 -43.8 7.4 -43.3 7.4 -43.1 7.35 -42.9 6.95 -42.5" fill="#ffd245" fill-rule="evenodd" stroke="none"/>
    <path d="M7.05 -44.6 L6.65 -44.6 6.15 -44.7 5.9 -44.7 5.55 -44.75 5.25 -44.75 5.0 -44.8 4.65 -44.8 1.7 -45.15 1.55 -45.15 Q1.15 -45.15 1.1 -44.8 L1.1 -44.5 1.05 -44.25 1.0 -43.65 1.15 -43.25 Q1.3 -43.1 1.45 -43.1 L1.7 -43.1 1.95 -43.05 2.8 -42.85 3.05 -42.3 3.0 -42.1 3.0 -41.6 2.45 -36.6 2.4 -36.45 2.4 -36.2 Q2.5 -35.85 2.7 -35.85 L2.95 -35.85 3.3 -35.75 3.6 -35.75 4.0 -35.7 4.1 -35.7 Q4.55 -35.7 4.65 -36.05 L4.65 -36.5 4.9 -38.55 4.9 -39.0 5.05 -40.55 5.05 -40.95 5.3 -42.25 5.5 -42.45 5.95 -42.6 6.9 -42.5 6.95 -42.5 7.35 -42.9 7.4 -43.1 7.4 -43.3 7.45 -43.8 7.45 -44.3 7.25 -44.55 7.05 -44.6 M3.15 -46.0 L3.85 -45.9 4.1 -45.9 4.5 -45.85 4.65 -45.85 4.75 -45.8 5.25 -45.8 5.3 -45.75 5.7 -45.75 5.9 -45.7 6.1 -45.7 6.6 -45.6 7.2 -45.6 7.65 -45.45 7.7 -45.45 7.7 -45.4 Q8.3 -45.2 8.45 -44.5 L8.45 -43.7 8.4 -43.45 8.4 -42.95 8.35 -42.8 Q8.25 -41.65 7.05 -41.5 L6.9 -41.5 6.5 -41.55 6.15 -41.55 6.05 -40.9 6.05 -40.4 6.0 -40.15 6.0 -40.05 5.95 -39.7 5.95 -39.3 5.9 -38.9 5.9 -38.45 5.8 -38.1 5.8 -37.65 5.7 -36.75 5.65 -36.5 5.65 -35.95 Q5.5 -34.7 4.1 -34.7 L3.9 -34.7 3.55 -34.75 3.4 -34.75 2.9 -34.85 2.6 -34.85 Q1.6 -34.85 1.45 -36.0 L1.4 -36.6 1.45 -36.7 1.5 -37.0 1.5 -37.15 1.75 -39.45 1.8 -39.65 1.8 -40.0 1.85 -40.3 1.9 -40.4 1.9 -41.0 2.0 -41.7 2.0 -42.05 1.8 -42.1 1.35 -42.1 0.3 -42.65 Q-0.1 -43.1 0.0 -43.8 L0.05 -44.35 0.1 -44.5 0.1 -44.9 Q0.2 -45.45 0.6 -45.8 L1.55 -46.15 1.8 -46.15 2.85 -46.0 3.15 -46.0" fill="#b07f00" fill-rule="evenodd" stroke="none"/>
    <path d="M9.9 -42.75 L10.2 -42.95 10.5 -43.1 10.8 -43.2 11.45 -43.35 11.7 -43.35 12.1 -43.4 13.2 -43.2 14.45 -42.6 15.2 -41.9 15.7 -41.15 15.95 -40.6 16.1 -40.1 16.1 -39.75 16.2 -39.2 16.2 -38.7 15.85 -37.1 15.5 -36.35 14.95 -35.55 14.15 -34.8 13.15 -34.25 11.7 -34.05 11.3 -34.1 11.1 -34.15 10.65 -34.2 10.0 -34.45 9.75 -34.6 Q9.6 -34.65 9.4 -34.75 L8.6 -35.4 8.4 -35.7 7.7 -36.9 7.5 -37.6 7.45 -38.0 7.5 -38.9 7.8 -40.2 8.0 -40.65 8.5 -41.5 8.9 -41.95 9.6 -42.55 9.9 -42.75 M10.85 -40.9 L10.3 -40.4 10.0 -39.9 9.8 -39.55 9.8 -39.45 9.7 -39.0 9.65 -38.5 9.7 -37.75 10.2 -36.8 10.4 -36.65 10.55 -36.6 10.65 -36.5 11.0 -36.35 11.55 -36.2 12.45 -36.35 13.25 -36.85 13.65 -37.5 13.85 -37.95 14.0 -38.5 14.05 -38.75 14.0 -39.55 13.65 -40.35 13.05 -40.9 12.45 -41.15 12.1 -41.2 11.55 -41.15 10.85 -40.9" fill="#ffd245" fill-rule="evenodd" stroke="none"/>
    <path d="M11.05 -39.75 L10.9 -39.45 10.85 -39.3 10.75 -39.2 10.65 -38.8 10.65 -37.95 10.85 -37.55 10.9 -37.55 11.1 -37.4 11.15 -37.4 11.15 -37.35 11.2 -37.35 11.25 -37.3 11.45 -37.25 11.5 -37.25 11.65 -37.2 12.1 -37.3 12.5 -37.55 12.55 -37.65 12.8 -38.0 12.95 -38.4 13.0 -38.65 13.05 -38.8 13.05 -39.3 13.0 -39.35 12.9 -39.6 12.8 -39.75 12.8 -39.8 12.55 -40.05 12.15 -40.2 11.8 -40.2 11.5 -40.1 11.4 -40.05 11.35 -40.0 11.05 -39.75 M10.85 -40.9 L11.55 -41.15 11.85 -41.2 12.1 -41.2 12.45 -41.15 13.05 -40.9 13.65 -40.35 14.0 -39.55 14.05 -38.75 14.0 -38.5 13.85 -37.95 13.65 -37.5 13.25 -36.85 12.45 -36.35 11.6 -36.2 11.55 -36.2 11.0 -36.35 10.65 -36.5 10.55 -36.6 10.4 -36.65 10.2 -36.8 9.7 -37.75 9.65 -38.5 9.7 -39.0 9.8 -39.45 9.8 -39.55 10.0 -39.9 10.3 -40.4 10.85 -40.9 M11.4 -43.35 L10.5 -43.1 9.85 -42.75 8.9 -41.95 8.5 -41.5 8.0 -40.65 7.8 -40.2 7.5 -38.9 7.45 -38.0 7.5 -37.6 7.7 -36.9 8.4 -35.7 8.6 -35.4 9.4 -34.75 Q9.6 -34.65 9.75 -34.6 L10.0 -34.45 10.65 -34.2 11.1 -34.15 11.3 -34.1 11.7 -34.05 13.15 -34.25 14.15 -34.8 14.95 -35.55 15.5 -36.35 15.85 -37.1 16.2 -38.7 16.2 -39.2 16.1 -39.75 16.1 -40.1 15.95 -40.6 15.7 -41.15 15.2 -41.9 14.45 -42.6 13.2 -43.2 12.1 -43.4 11.7 -43.35 11.4 -43.35 M10.45 -44.15 L11.35 -44.35 11.8 -44.35 12.05 -44.4 12.1 -44.4 13.45 -44.15 14.1 -43.9 14.25 -43.8 15.05 -43.4 15.95 -42.55 16.55 -41.6 16.75 -41.2 16.75 -41.15 16.85 -41.05 16.9 -40.95 17.05 -40.2 17.2 -39.3 17.2 -38.6 16.8 -36.85 16.25 -35.7 15.75 -34.95 14.8 -34.05 Q14.25 -33.5 13.35 -33.3 L13.4 -33.3 12.55 -33.15 12.7 -33.15 11.7 -33.05 11.6 -33.05 11.35 -33.1 11.15 -33.1 10.4 -33.25 9.55 -33.55 9.25 -33.7 8.55 -34.15 8.45 -34.2 7.85 -34.75 7.6 -35.05 7.6 -35.1 7.55 -35.15 Q7.0 -35.95 6.8 -36.55 L6.55 -37.35 6.55 -37.45 6.5 -37.45 6.5 -37.6 6.45 -37.8 6.45 -37.9 Q6.35 -38.65 6.5 -39.05 L6.5 -39.1 6.85 -40.5 7.15 -41.15 7.75 -42.15 8.25 -42.7 8.2 -42.7 8.45 -42.9 8.5 -42.9 8.55 -43.0 8.95 -43.35 9.25 -43.55 9.3 -43.55 9.4 -43.65 9.7 -43.85 10.15 -44.0 10.2 -44.05 10.4 -44.15 10.35 -44.1 10.45 -44.15" fill="#b07f00" fill-rule="evenodd" stroke="none"/>
    <path d="M25.0 -36.9 L25.3 -36.05 25.4 -35.45 25.4 -34.9 25.2 -33.55 24.45 -32.1 23.9 -31.45 23.2 -30.8 22.25 -30.3 21.1 -30.0 20.7 -30.05 20.4 -30.05 19.65 -30.15 18.7 -30.55 18.1 -30.95 17.6 -31.4 17.0 -32.2 16.85 -32.6 16.5 -33.95 16.5 -34.65 16.5 -35.0 16.8 -35.9 17.4 -37.1 18.45 -38.2 18.95 -38.55 19.2 -38.65 19.7 -38.95 20.4 -39.15 21.05 -39.25 21.7 -39.25 22.0 -39.15 22.35 -39.1 23.4 -38.65 24.45 -37.75 25.0 -36.9 M22.15 -36.85 L21.85 -37.0 21.25 -37.1 20.55 -37.0 19.85 -36.65 19.5 -36.25 19.15 -35.9 18.8 -35.0 18.65 -34.25 Q18.65 -33.45 18.9 -33.2 L19.05 -33.0 19.55 -32.55 19.75 -32.45 20.05 -32.25 20.95 -32.2 21.85 -32.5 22.4 -33.0 22.7 -33.4 22.9 -33.8 23.0 -33.9 23.1 -34.1 23.25 -34.95 23.2 -35.4 23.1 -35.8 22.7 -36.45 22.15 -36.85" fill="#ffd245" fill-rule="evenodd" stroke="none"/>
    <path d="M22.15 -35.45 L21.95 -35.75 21.6 -36.0 21.4 -36.1 20.95 -36.1 20.9 -36.05 20.85 -36.05 20.45 -35.85 20.4 -35.8 20.25 -35.6 20.05 -35.4 20.05 -35.35 19.8 -34.9 19.65 -34.2 19.75 -33.75 19.85 -33.65 19.9 -33.55 20.05 -33.4 20.05 -33.45 20.2 -33.3 20.25 -33.3 20.3 -33.25 20.4 -33.2 20.85 -33.2 21.3 -33.35 21.45 -33.5 21.7 -33.7 21.85 -33.95 21.95 -34.05 22.05 -34.3 22.15 -34.45 22.25 -34.9 22.25 -35.0 22.2 -35.25 22.15 -35.4 22.15 -35.45 M21.85 -37.0 L22.15 -36.85 22.7 -36.45 23.1 -35.8 23.2 -35.4 23.25 -34.95 23.1 -34.1 23.0 -33.9 22.9 -33.8 22.7 -33.4 22.4 -33.0 21.85 -32.5 20.95 -32.2 20.05 -32.25 19.75 -32.45 19.55 -32.55 19.05 -33.0 18.9 -33.2 Q18.65 -33.45 18.65 -34.25 L18.8 -35.0 19.15 -35.9 19.5 -36.25 19.85 -36.65 20.55 -37.0 21.25 -37.1 21.4 -37.1 21.85 -37.0 M25.0 -36.9 L24.45 -37.75 23.4 -38.65 22.35 -39.1 22.0 -39.15 21.7 -39.25 21.05 -39.25 20.4 -39.15 19.7 -38.95 19.2 -38.65 18.95 -38.55 18.45 -38.2 17.4 -37.1 16.8 -35.9 16.5 -35.0 16.5 -34.65 16.5 -33.95 16.85 -32.6 17.0 -32.2 17.6 -31.4 18.1 -30.95 18.7 -30.55 19.65 -30.15 20.4 -30.05 20.7 -30.05 21.1 -30.0 21.15 -30.0 22.25 -30.3 23.2 -30.8 23.9 -31.45 24.45 -32.1 25.2 -33.55 25.4 -34.9 25.4 -35.45 25.3 -36.05 25.0 -36.9 M22.1 -40.15 L22.3 -40.15 22.6 -40.05 Q23.25 -39.95 23.9 -39.5 L24.4 -39.15 Q24.5 -39.0 24.6 -39.0 L25.25 -38.35 25.3 -38.3 25.35 -38.2 25.9 -37.35 26.25 -36.25 26.3 -35.9 26.35 -35.85 26.35 -35.75 26.4 -35.7 26.4 -34.8 26.35 -34.45 26.35 -34.2 26.3 -33.9 26.1 -33.2 25.3 -31.55 24.6 -30.7 24.55 -30.7 23.8 -30.0 22.65 -29.35 21.1 -29.0 20.7 -29.05 20.3 -29.05 19.1 -29.3 18.95 -29.35 18.95 -29.4 18.9 -29.4 18.7 -29.45 18.2 -29.7 17.45 -30.2 16.9 -30.7 16.65 -31.05 16.55 -31.1 16.45 -31.25 16.1 -31.8 15.9 -32.25 15.5 -33.8 15.5 -34.6 15.5 -35.15 15.85 -36.3 15.9 -36.35 16.55 -37.6 17.0 -38.15 17.8 -38.95 18.45 -39.4 18.4 -39.4 18.7 -39.55 18.75 -39.55 19.3 -39.85 19.7 -40.0 19.75 -40.0 19.8 -40.05 20.15 -40.15 20.65 -40.2 20.7 -40.2 20.95 -40.25 21.85 -40.2 22.1 -40.15" fill="#b07f00" fill-rule="evenodd" stroke="none"/>
    <path d="M27.0 -33.6 L26.85 -33.9 26.95 -34.3 27.4 -34.75 27.55 -34.95 27.75 -35.15 28.45 -35.1 30.6 -33.05 30.9 -32.85 31.05 -32.7 31.3 -32.5 31.55 -32.2 31.75 -32.05 32.1 -31.65 32.4 -31.45 32.55 -31.3 32.55 -30.95 31.9 -30.2 31.8 -30.05 31.65 -29.9 31.05 -29.85 30.75 -30.15 29.9 -30.65 29.6 -30.6 26.65 -27.5 26.3 -27.05 25.65 -26.4 25.4 -26.05 Q25.1 -25.75 24.65 -26.15 L24.15 -26.6 23.9 -26.9 23.7 -27.05 Q23.55 -27.2 23.65 -27.5 L25.55 -29.6 25.95 -29.95 27.8 -32.0 28.0 -32.6 27.4 -33.3 27.0 -33.6" fill="#ffd245" fill-rule="evenodd" stroke="none"/>
    <path d="M27.55 -34.95 L27.4 -34.75 26.95 -34.3 26.85 -33.9 27.0 -33.6 27.4 -33.3 27.95 -32.6 Q28.05 -32.25 27.8 -32.0 L25.95 -29.95 25.55 -29.6 23.95 -27.8 23.8 -27.7 23.65 -27.5 Q23.55 -27.15 23.7 -27.05 L23.9 -26.9 24.15 -26.6 24.65 -26.15 25.1 -25.95 25.4 -26.05 25.65 -26.4 26.3 -27.05 26.65 -27.5 27.1 -27.9 27.35 -28.25 29.6 -30.6 29.9 -30.65 30.75 -30.15 31.05 -29.85 31.35 -29.75 Q31.6 -29.75 31.65 -29.9 L31.8 -30.05 31.9 -30.2 32.55 -30.95 32.55 -31.3 32.4 -31.45 32.1 -31.65 31.75 -32.05 31.55 -32.2 31.3 -32.5 31.05 -32.7 30.9 -32.85 30.6 -33.05 28.45 -35.1 28.05 -35.3 27.75 -35.15 27.55 -34.95 M25.85 -33.85 Q25.8 -34.55 26.25 -35.0 L27.05 -35.85 28.05 -36.3 Q28.65 -36.3 29.1 -35.85 L30.15 -34.9 30.35 -34.65 30.6 -34.45 31.35 -33.75 31.55 -33.6 31.65 -33.5 31.75 -33.45 31.85 -33.35 31.95 -33.2 32.2 -32.95 32.3 -32.9 32.4 -32.8 32.45 -32.8 32.45 -32.75 32.65 -32.55 32.75 -32.4 32.8 -32.4 33.1 -32.15 33.35 -31.8 33.45 -31.7 Q33.7 -31.0 33.45 -30.55 L33.0 -29.9 32.85 -29.75 32.65 -29.5 32.5 -29.4 32.55 -29.4 32.4 -29.25 Q32.0 -28.75 31.35 -28.75 30.95 -28.75 30.55 -29.0 L30.1 -29.35 29.9 -29.55 29.3 -28.95 29.1 -28.7 28.1 -27.6 27.8 -27.2 26.1 -25.4 Q25.75 -24.95 25.1 -24.95 24.45 -24.95 23.95 -25.45 L23.7 -25.65 23.45 -25.85 23.25 -26.1 23.2 -26.15 23.0 -26.3 Q22.3 -27.0 22.75 -27.9 L23.1 -28.4 24.3 -29.65 24.5 -29.9 24.85 -30.25 25.05 -30.5 25.25 -30.65 25.3 -30.75 25.9 -31.35 26.3 -31.85 26.65 -32.15 26.75 -32.35 26.85 -32.45 26.7 -32.55 26.65 -32.65 26.35 -32.85 Q25.9 -33.25 25.85 -33.85" fill="#b07f00" fill-rule="evenodd" stroke="none"/>
    <path d="M34.45 -29.15 L34.8 -28.65 35.0 -28.45 35.1 -28.3 35.2 -28.1 35.35 -27.9 35.15 -27.5 34.15 -26.85 33.4 -26.2 Q32.85 -25.75 33.25 -25.25 L34.0 -24.15 34.55 -23.6 35.35 -23.7 36.85 -24.85 37.25 -25.0 37.5 -24.9 37.6 -24.7 37.8 -24.5 37.95 -24.25 38.0 -24.1 38.2 -23.95 38.3 -23.85 Q38.65 -23.35 38.25 -23.05 L37.65 -22.7 37.25 -22.35 36.0 -21.45 35.45 -21.15 34.0 -20.05 33.65 -19.85 31.6 -18.3 31.0 -18.4 30.8 -18.7 30.35 -19.25 Q30.1 -19.65 30.15 -19.85 L30.4 -20.25 31.15 -20.7 31.45 -20.95 31.85 -21.2 32.45 -21.7 32.65 -22.15 32.45 -22.55 31.65 -23.7 31.15 -24.2 30.35 -24.1 30.2 -23.95 30.0 -23.85 28.7 -22.9 27.8 -22.8 27.55 -23.25 27.0 -23.95 Q26.85 -24.2 27.0 -24.35 L27.25 -24.55 27.85 -25.0 33.05 -28.75 33.6 -29.1 34.15 -29.4 34.45 -29.15" fill="#ffd245" fill-rule="evenodd" stroke="none"/>
    <path d="M34.1 -29.4 L33.6 -29.15 27.85 -25.0 27.25 -24.55 27.0 -24.3 Q26.85 -24.2 27.0 -23.95 L27.85 -22.8 28.15 -22.65 28.7 -22.9 30.0 -23.85 30.2 -23.95 30.35 -24.1 30.9 -24.25 31.15 -24.2 31.65 -23.7 32.45 -22.55 32.65 -22.15 32.45 -21.7 31.85 -21.2 31.45 -20.95 31.15 -20.7 30.4 -20.25 30.15 -19.85 Q30.1 -19.65 30.35 -19.25 L30.8 -18.7 31.0 -18.4 31.3 -18.2 31.6 -18.3 33.65 -19.85 34.0 -20.05 35.45 -21.15 36.0 -21.45 37.25 -22.35 37.65 -22.7 38.25 -23.05 Q38.65 -23.35 38.3 -23.85 L38.2 -23.95 38.0 -24.1 37.95 -24.3 37.8 -24.5 37.6 -24.7 37.5 -24.9 37.25 -25.0 37.2 -25.0 36.85 -24.85 35.35 -23.7 34.9 -23.55 34.55 -23.6 34.0 -24.15 33.25 -25.25 Q32.85 -25.75 33.4 -26.2 L34.15 -26.85 35.15 -27.5 35.35 -27.9 35.2 -28.1 35.1 -28.3 35.0 -28.45 34.8 -28.65 34.45 -29.15 34.15 -29.4 34.1 -29.4 M34.1 -30.4 L34.15 -30.4 Q34.9 -30.35 35.25 -29.8 L35.25 -29.75 35.3 -29.75 35.35 -29.6 35.45 -29.45 35.5 -29.45 35.5 -29.4 35.55 -29.35 35.6 -29.25 35.8 -29.05 35.9 -28.9 36.0 -28.7 36.05 -28.65 36.3 -28.2 36.35 -28.05 Q36.45 -27.15 35.75 -26.7 L35.5 -26.5 34.75 -26.05 34.2 -25.6 34.45 -25.3 34.9 -24.6 35.05 -24.7 35.35 -24.95 35.5 -25.05 35.6 -25.15 35.85 -25.3 36.25 -25.65 Q36.7 -26.0 37.25 -26.0 37.95 -26.0 38.3 -25.5 L38.45 -25.25 38.5 -25.25 38.5 -25.2 38.6 -25.15 38.6 -25.1 38.8 -24.8 38.85 -24.7 39.1 -24.45 39.1 -24.4 Q40.05 -23.1 38.8 -22.25 L38.45 -22.05 38.25 -21.9 38.1 -21.75 37.4 -21.25 37.05 -21.05 36.85 -20.85 36.35 -20.5 36.05 -20.35 35.95 -20.25 34.4 -19.15 34.25 -19.0 34.1 -18.95 33.95 -18.8 33.55 -18.55 32.15 -17.5 Q31.8 -17.2 31.3 -17.2 L30.2 -17.8 29.55 -18.65 Q29.0 -19.4 29.15 -20.1 L29.25 -20.3 29.8 -21.05 30.55 -21.5 30.65 -21.6 31.25 -22.0 31.45 -22.2 31.45 -22.25 31.35 -22.4 31.3 -22.45 30.9 -23.0 30.85 -23.15 30.8 -23.15 30.65 -23.05 30.6 -23.0 30.45 -22.95 30.35 -22.8 Q30.2 -22.8 30.0 -22.6 L29.75 -22.45 29.6 -22.3 29.3 -22.1 Q28.75 -21.65 28.15 -21.65 27.5 -21.65 27.1 -22.15 L26.8 -22.55 26.7 -22.65 26.2 -23.35 Q25.6 -24.2 26.2 -24.9 L26.65 -25.35 26.95 -25.6 27.3 -25.8 27.5 -25.95 27.7 -26.15 28.05 -26.35 29.5 -27.4 29.6 -27.45 29.65 -27.5 30.35 -27.95 31.2 -28.65 31.95 -29.1 32.15 -29.3 33.0 -29.95 34.1 -30.4" fill="#b07f00" fill-rule="evenodd" stroke="none"/>
    <path d="M39.9 -10.1 L39.9 1.45 Q39.9 2.1 39.5 2.55 L38.45 3.0 34.75 7.8 31.6 3.65 28.4 7.8 25.25 3.65 22.1 7.8 18.9 3.65 15.75 7.8 13.55 4.95 13.55 11.7 16.15 8.3 19.3 12.45 22.5 8.3 25.65 12.45 28.85 8.3 32.45 13.0 32.5 13.0 Q33.15 13.0 33.65 13.45 34.1 13.9 34.1 14.55 L34.1 17.6 Q34.1 18.25 33.65 18.7 33.15 19.15 32.5 19.15 L9.25 19.15 Q9.0 19.5 8.55 19.65 L8.85 21.05 Q8.85 22.45 7.9 23.4 6.95 24.35 5.55 24.35 4.2 24.35 3.25 23.4 2.25 22.45 2.25 21.05 2.25 20.45 2.6 19.65 L2.15 19.4 -8.05 30.8 -8.05 17.85 -12.95 16.4 Q-16.0 15.3 -18.05 14.1 -22.15 11.75 -27.15 7.55 L-41.4 20.3 -38.9 4.95 -37.0 3.75 -38.9 2.75 -41.35 -14.65 -27.5 -1.25 Q-21.25 -6.25 -15.95 -8.35 -13.05 -9.45 -8.35 -10.45 L-8.35 -28.0 5.7 -12.35 7.85 -12.35 Q9.0 -12.35 9.6 -11.25 L13.2 -11.3 Q14.15 -12.65 15.6 -13.4 17.05 -14.2 18.65 -14.2 22.1 -14.2 24.05 -11.45 L38.3 -11.65 Q38.95 -11.65 39.45 -11.2 39.9 -10.75 39.9 -10.1" fill="#d4a000" fill-rule="evenodd" stroke="none"/>
    <path d="M7.5 -12.0 L-5.85 -8.3 -5.85 -26.85 7.5 -12.0" fill="#ffc200" fill-rule="evenodd" stroke="none"/>
    <path d="M7.5 -12.0 L-5.85 -8.3 -5.85 -26.85 7.5 -12.0 Z" fill="none" stroke="#b07f00" stroke-linecap="butt" stroke-linejoin="miter-clip" stroke-miterlimit="4.0" stroke-width="1.0"/>
    <path d="M33.05 0.45 L36.25 -2.75 39.5 0.45 36.25 4.65 33.05 0.45" fill="#ffd245" fill-rule="evenodd" stroke="none"/>
    <path d="M33.05 0.45 L36.25 -2.75 39.5 0.45 36.25 4.65 33.05 0.45 Z" fill="none" stroke="#b07f00" stroke-linecap="butt" stroke-linejoin="miter-clip" stroke-miterlimit="4.0" stroke-width="1.0"/>
    <path d="M26.7 0.45 L29.9 -2.75 33.15 0.45 29.9 4.65 26.7 0.45" fill="#ffd245" fill-rule="evenodd" stroke="none"/>
    <path d="M26.7 0.45 L29.9 -2.75 33.15 0.45 29.9 4.65 26.7 0.45 Z" fill="none" stroke="#b07f00" stroke-linecap="butt" stroke-linejoin="miter-clip" stroke-miterlimit="4.0" stroke-width="1.0"/>
    <path d="M23.6 4.65 L20.35 0.45 23.6 -2.75 26.8 0.45 23.6 4.65" fill="#ffd245" fill-rule="evenodd" stroke="none"/>
    <path d="M23.6 4.65 L20.35 0.45 23.6 -2.75 26.8 0.45 23.6 4.65 Z" fill="none" stroke="#b07f00" stroke-linecap="butt" stroke-linejoin="miter-clip" stroke-miterlimit="4.0" stroke-width="1.0"/>
    <path d="M14.0 0.45 L17.25 -2.75 20.45 0.45 17.25 4.65 14.0 0.45" fill="#ffd245" fill-rule="evenodd" stroke="none"/>
    <path d="M14.0 0.45 L17.25 -2.75 20.45 0.45 17.25 4.65 14.0 0.45 Z" fill="none" stroke="#b07f00" stroke-linecap="butt" stroke-linejoin="miter-clip" stroke-miterlimit="4.0" stroke-width="1.0"/>
    <path d="M27.1 12.65 L30.35 8.45 33.55 12.65 30.35 15.85 27.1 12.65" fill="#ffd245" fill-rule="evenodd" stroke="none"/>
    <path d="M27.1 12.65 L30.35 8.45 33.55 12.65 30.35 15.85 27.1 12.65 Z" fill="none" stroke="#b07f00" stroke-linecap="butt" stroke-linejoin="miter-clip" stroke-miterlimit="4.0" stroke-width="1.0"/>
    <path d="M24.0 15.85 L20.75 12.65 24.0 8.45 27.2 12.65 24.0 15.85" fill="#ffd245" fill-rule="evenodd" stroke="none"/>
    <path d="M24.0 15.85 L20.75 12.65 24.0 8.45 27.2 12.65 24.0 15.85 Z" fill="none" stroke="#b07f00" stroke-linecap="butt" stroke-linejoin="miter-clip" stroke-miterlimit="4.0" stroke-width="1.0"/>
    <path d="M14.4 12.65 L17.65 8.45 20.85 12.65 17.65 15.85 14.4 12.65" fill="#ffd245" fill-rule="evenodd" stroke="none"/>
    <path d="M14.4 12.65 L17.65 8.45 20.85 12.65 17.65 15.85 14.4 12.65 Z" fill="none" stroke="#b07f00" stroke-linecap="butt" stroke-linejoin="miter-clip" stroke-miterlimit="4.0" stroke-width="1.0"/>
    <path d="M39.8 -12.15 Q40.4 -12.15 40.4 -11.6 L40.4 -0.05 Q40.4 0.5 39.8 0.5 L14.6 0.65 Q14.05 0.65 14.05 1.2 L14.05 11.9 Q14.05 12.45 14.6 12.45 L34.0 12.5 Q34.6 12.5 34.6 13.05 L34.6 16.1 Q34.6 16.65 34.0 16.65 L3.4 16.65 -5.55 26.7 -5.55 15.5 Q-7.3 15.3 -10.45 14.2 -13.75 13.05 -16.05 11.75 L-22.55 7.3 -25.65 4.75 -38.45 16.15 -36.5 4.05 -33.45 2.15 -36.5 0.6 -38.45 -13.45 -26.05 -1.4 -22.25 -4.3 Q-17.75 -7.5 -14.1 -8.9 -10.2 -10.45 -3.65 -11.55 L39.8 -12.15" fill="#ffc200" fill-rule="evenodd" stroke="none"/>
    <path d="M39.8 -12.15 L-3.65 -11.55 Q-10.2 -10.45 -14.1 -8.9 -17.75 -7.5 -22.25 -4.3 L-26.05 -1.4 -38.45 -13.45 -36.5 0.6 -33.45 2.15 -36.5 4.05 -38.45 16.15 -25.65 4.75 -22.55 7.3 -16.05 11.75 Q-13.75 13.05 -10.45 14.2 -7.3 15.3 -5.55 15.5 L-5.55 26.7 3.4 16.65 34.0 16.65 Q34.6 16.65 34.6 16.1 L34.6 13.05 Q34.6 12.5 34.0 12.5 L14.6 12.45 Q14.05 12.45 14.05 11.9 L14.05 1.2 Q14.05 0.65 14.6 0.65 L39.8 0.5 Q40.4 0.5 40.4 -0.05 L40.4 -11.6 Q40.4 -12.15 39.8 -12.15 Z" fill="none" stroke="#b07f00" stroke-linecap="butt" stroke-linejoin="miter-clip" stroke-miterlimit="4.0" stroke-width="1.0"/>
    <path d="M24.2 -13.05 Q25.85 -11.4 25.85 -9.05 25.85 -6.7 24.2 -5.0 22.5 -3.35 20.15 -3.35 17.8 -3.35 16.15 -5.0 14.5 -6.7 14.5 -9.05 14.5 -11.35 16.15 -13.05 17.85 -14.7 20.15 -14.7 22.5 -14.7 24.2 -13.05" fill="#ffd245" fill-rule="evenodd" stroke="none"/>
    <path d="M24.2 -13.05 Q22.5 -14.7 20.15 -14.7 17.85 -14.7 16.15 -13.05 14.5 -11.35 14.5 -9.05 14.5 -6.7 16.15 -5.0 17.8 -3.35 20.15 -3.35 22.5 -3.35 24.2 -5.0 25.85 -6.7 25.85 -9.05 25.85 -11.4 24.2 -13.05 Z" fill="none" stroke="#b07f00" stroke-linecap="butt" stroke-linejoin="miter-clip" stroke-miterlimit="4.0" stroke-width="1.0"/>
    <path d="M22.1 -9.2 Q22.7 -9.2 23.15 -8.75 23.55 -8.35 23.55 -7.75 23.55 -7.15 23.15 -6.7 22.7 -6.3 22.1 -6.3 21.5 -6.3 21.1 -6.7 20.65 -7.15 20.65 -7.75 20.65 -8.35 21.1 -8.75 21.5 -9.2 22.1 -9.2" fill="#b07f00" fill-rule="evenodd" stroke="none"/>
    <path d="M3.8 -11.8 Q3.8 -12.2 4.1 -12.55 L4.8 -12.85 9.35 -12.85 10.05 -12.55 10.3 -11.8 10.3 16.25 10.05 17.0 9.35 17.3 4.8 17.3 4.1 17.0 Q3.8 16.65 3.8 16.25 L3.8 -11.8" fill="#d6a200" fill-rule="evenodd" stroke="none"/>
    <path d="M3.8 -11.8 L3.8 16.25 Q3.8 16.65 4.1 17.0 L4.8 17.3 9.35 17.3 10.05 17.0 10.3 16.25 10.3 -11.8 10.05 -12.55 9.35 -12.85 4.8 -12.85 4.1 -12.55 Q3.8 -12.2 3.8 -11.8 Z" fill="none" stroke="#b07f00" stroke-linecap="butt" stroke-linejoin="miter-clip" stroke-miterlimit="4.0" stroke-width="1.0"/>
    <path d="M8.4 -8.45 Q8.4 -7.9 8.0 -7.5 7.6 -7.1 7.05 -7.1 6.5 -7.1 6.1 -7.5 5.7 -7.9 5.7 -8.45 5.7 -9.0 6.1 -9.4 6.5 -9.8 7.05 -9.8 7.6 -9.8 8.0 -9.4 8.4 -9.0 8.4 -8.45" fill="#ffd245" fill-rule="evenodd" stroke="none"/>
    <path d="M8.4 -8.45 Q8.4 -7.9 8.0 -7.5 7.6 -7.1 7.05 -7.1 6.5 -7.1 6.1 -7.5 5.7 -7.9 5.7 -8.45 5.7 -9.0 6.1 -9.4 6.5 -9.8 7.05 -9.8 7.6 -9.8 8.0 -9.4 8.4 -9.0 8.4 -8.45 Z" fill="none" stroke="#b07f00" stroke-linecap="butt" stroke-linejoin="miter-clip" stroke-miterlimit="4.0" stroke-width="1.0"/>
    <path d="M5.7 -1.3 Q5.7 -1.85 6.1 -2.25 6.5 -2.65 7.05 -2.65 7.6 -2.65 8.0 -2.25 8.4 -1.85 8.4 -1.3 8.4 -0.75 8.0 -0.35 7.6 0.05 7.05 0.05 6.5 0.05 6.1 -0.35 5.7 -0.75 5.7 -1.3" fill="#ffd245" fill-rule="evenodd" stroke="none"/>
    <path d="M5.7 -1.3 Q5.7 -1.85 6.1 -2.25 6.5 -2.65 7.05 -2.65 7.6 -2.65 8.0 -2.25 8.4 -1.85 8.4 -1.3 8.4 -0.75 8.0 -0.35 7.6 0.05 7.05 0.05 6.5 0.05 6.1 -0.35 5.7 -0.75 5.7 -1.3 Z" fill="none" stroke="#b07f00" stroke-linecap="butt" stroke-linejoin="miter-clip" stroke-miterlimit="4.0" stroke-width="1.0"/>
    <path d="M5.7 5.85 Q5.7 5.3 6.1 4.9 6.5 4.5 7.05 4.5 7.6 4.5 8.0 4.9 8.4 5.3 8.4 5.85 8.4 6.4 8.0 6.8 7.6 7.2 7.05 7.2 6.5 7.2 6.1 6.8 5.7 6.4 5.7 5.85" fill="#ffd245" fill-rule="evenodd" stroke="none"/>
    <path d="M5.7 5.85 Q5.7 5.3 6.1 4.9 6.5 4.5 7.05 4.5 7.6 4.5 8.0 4.9 8.4 5.3 8.4 5.85 8.4 6.4 8.0 6.8 7.6 7.2 7.05 7.2 6.5 7.2 6.1 6.8 5.7 6.4 5.7 5.85 Z" fill="none" stroke="#b07f00" stroke-linecap="butt" stroke-linejoin="miter-clip" stroke-miterlimit="4.0" stroke-width="1.0"/>
    <path d="M5.7 13.0 Q5.7 12.45 6.1 12.05 6.5 11.65 7.05 11.65 7.6 11.65 8.0 12.05 8.4 12.45 8.4 13.0 8.4 13.55 8.0 13.95 7.6 14.35 7.05 14.35 6.5 14.35 6.1 13.95 5.7 13.55 5.7 13.0" fill="#ffd245" fill-rule="evenodd" stroke="none"/>
    <path d="M5.7 13.0 Q5.7 12.45 6.1 12.05 6.5 11.65 7.05 11.65 7.6 11.65 8.0 12.05 8.4 12.45 8.4 13.0 8.4 13.55 8.0 13.95 7.6 14.35 7.05 14.35 6.5 14.35 6.1 13.95 5.7 13.55 5.7 13.0 Z" fill="none" stroke="#b07f00" stroke-linecap="butt" stroke-linejoin="miter-clip" stroke-miterlimit="4.0" stroke-width="1.0"/>
    <path d="M4.75 19.55 Q4.75 18.6 5.45 17.95 6.1 17.3 7.05 17.3 8.0 17.3 8.7 17.95 9.35 18.6 9.35 19.55 9.35 20.55 8.7 21.2 8.05 21.85 7.05 21.85 6.1 21.85 5.45 21.2 4.75 20.5 4.75 19.55" fill="#ffd245" fill-rule="evenodd" stroke="none"/>
    <path d="M4.75 19.55 Q4.75 18.6 5.45 17.95 6.1 17.3 7.05 17.3 8.0 17.3 8.7 17.95 9.35 18.6 9.35 19.55 9.35 20.55 8.7 21.2 8.05 21.85 7.05 21.85 6.1 21.85 5.45 21.2 4.75 20.5 4.75 19.55 Z" fill="none" stroke="#b07f00" stroke-linecap="butt" stroke-linejoin="miter-clip" stroke-miterlimit="4.0" stroke-width="1.0"/>
    <path d="M0.4 8.65 Q-0.35 8.65 -0.35 7.8 L-0.35 -2.85 Q-0.35 -3.65 0.4 -3.65 L0.9 -3.65 0.9 8.65 0.4 8.65" fill="#b07f00" fill-rule="evenodd" stroke="none"/>
    <path d="M-2.85 8.65 Q-3.55 8.65 -3.55 7.8 L-3.55 -2.85 Q-3.55 -3.65 -2.85 -3.65 L-2.3 -3.65 -2.3 8.65 -2.85 8.65" fill="#b07f00" fill-rule="evenodd" stroke="none"/>
    <path d="M-6.05 8.65 Q-6.75 8.65 -6.75 7.8 L-6.75 -2.85 Q-6.75 -3.65 -6.05 -3.65 L-5.5 -3.65 -5.5 8.65 -6.05 8.65" fill="#b07f00" fill-rule="evenodd" stroke="none"/>
    <path d="M40.95 -12.7 Q41.4 -12.25 41.4 -11.6 L41.4 -0.05 Q41.4 0.6 41.0 1.05 40.55 1.45 39.95 1.5 L36.25 6.3 33.1 2.15 29.9 6.3 26.75 2.15 23.55 6.3 20.4 2.15 17.25 6.3 15.05 3.45 15.05 10.2 17.65 6.8 20.8 10.95 24.0 6.8 27.15 10.95 30.35 6.8 33.95 11.5 34.0 11.5 Q34.65 11.5 35.15 11.95 35.6 12.4 35.6 13.05 L35.6 16.1 Q35.6 16.75 35.15 17.2 34.65 17.65 34.0 17.65 L10.75 17.65 10.05 18.15 10.35 19.55 Q10.35 20.95 9.4 21.9 8.45 22.85 7.05 22.85 5.7 22.85 4.75 21.9 3.8 20.95 3.8 19.55 3.8 18.85 4.1 18.15 L3.65 17.9 -6.55 29.3 -6.55 16.35 -11.45 14.9 Q-14.5 13.8 -16.55 12.6 -20.65 10.25 -25.65 6.05 L-39.9 18.8 -37.4 3.45 -35.5 2.25 -37.4 1.25 -39.85 -16.15 -26.0 -2.75 Q-19.8 -7.75 -14.45 -9.85 -11.65 -10.9 -6.85 -11.95 L-6.85 -29.5 7.2 -13.85 9.35 -13.85 Q10.5 -13.85 11.1 -12.75 L14.7 -12.8 Q15.65 -14.15 17.1 -14.9 18.55 -15.7 20.15 -15.7 23.6 -15.7 25.55 -12.95 L39.8 -13.15 Q40.45 -13.15 40.95 -12.7 M25.0 -11.95 Q24.25 -13.2 22.95 -13.95 21.65 -14.7 20.15 -14.7 16.9 -14.7 15.25 -11.8 L10.3 -11.75 10.3 -11.8 10.05 -12.55 9.35 -12.85 6.75 -12.85 -5.85 -26.85 -5.85 -11.15 Q-11.2 -10.05 -14.1 -8.9 -17.75 -7.5 -22.25 -4.3 L-26.05 -1.4 -38.45 -13.45 -36.5 0.6 -33.45 2.15 -36.5 4.05 -38.45 16.15 -25.65 4.75 -22.55 7.3 -16.05 11.75 Q-13.75 13.05 -10.45 14.2 -7.3 15.3 -5.55 15.5 L-5.55 26.7 3.4 16.65 3.9 16.65 Q4.2 17.3 4.8 17.3 L7.0 17.3 Q6.1 17.3 5.45 17.95 4.75 18.6 4.75 19.55 4.75 20.5 5.45 21.2 6.1 21.85 7.05 21.85 8.05 21.85 8.7 21.2 9.35 20.55 9.35 19.55 9.35 18.6 8.7 17.95 8.0 17.3 7.1 17.3 L9.35 17.3 Q9.95 17.3 10.25 16.65 L34.0 16.65 Q34.6 16.65 34.6 16.1 L34.6 13.05 Q34.6 12.5 34.0 12.5 L33.45 12.5 30.35 8.45 27.25 12.5 27.1 12.5 24.0 8.45 20.9 12.45 20.75 12.45 17.65 8.45 14.55 12.45 Q14.05 12.45 14.05 11.9 L14.05 1.2 14.25 0.8 17.25 4.65 20.3 0.65 20.5 0.65 23.55 4.65 26.7 0.6 26.8 0.6 29.9 4.65 33.05 0.55 33.15 0.55 36.25 4.65 39.45 0.5 39.8 0.5 Q40.4 0.5 40.4 -0.05 L40.4 -11.6 Q40.4 -12.15 39.8 -12.15 L25.0 -11.95" fill="#b07f00" fill-rule="evenodd" stroke="none"/>
  </g>
</svg>
