<?xml version="1.0" encoding="UTF-8" standalone="no"?>
<svg xmlns:ffdec="https://www.free-decompiler.com/flash" xmlns:xlink="http://www.w3.org/1999/xlink" ffdec:objectType="shape" height="92.75px" width="79.95px" xmlns="http://www.w3.org/2000/svg">
  <g transform="matrix(1.0, 0.0, 0.0, 1.0, 40.45, 46.1)">
    <path d="M27.95 36.9 L28.0 36.9 27.95 36.95 27.95 36.9 27.65 37.2 27.65 37.25 27.5 37.35 27.2 37.65 27.1 37.8 26.9 37.95 26.05 38.35 25.9 38.35 Q25.35 38.35 24.85 37.85 L24.85 37.8 24.55 37.5 24.05 36.8 23.8 36.55 23.65 36.35 23.75 36.8 23.7 38.05 23.25 39.45 22.85 40.05 22.8 40.1 22.2 40.8 21.25 41.45 20.5 41.8 19.85 42.0 19.4 42.05 19.35 42.1 19.15 42.1 18.75 42.15 18.55 42.15 18.2 42.05 18.1 42.05 16.65 41.6 16.0 41.25 15.9 41.2 15.9 41.15 15.85 41.15 15.8 41.1 15.6 41.0 15.6 40.95 15.55 40.95 15.5 40.9 15.55 41.0 15.85 41.9 16.05 42.3 15.9 43.45 15.15 44.0 14.95 44.1 14.85 44.1 14.4 44.25 14.2 44.35 14.1 44.35 13.85 44.45 13.4 44.55 Q12.85 44.55 12.4 44.1 12.35 45.0 11.2 45.25 L10.4 45.4 10.05 45.5 9.35 45.6 8.8 45.75 8.6 45.75 7.7 45.95 7.4 46.05 7.05 46.1 Q6.25 46.1 5.85 45.4 L5.55 45.95 Q5.2 46.35 4.45 46.45 L3.9 46.45 3.65 46.5 2.4 46.5 2.2 46.55 1.6 46.55 1.4 46.6 1.15 46.6 1.1 46.55 0.9 46.6 0.55 46.65 0.45 46.65 Q-0.35 46.65 -0.75 45.95 -1.1 46.65 -1.95 46.65 L-2.3 46.6 -2.55 46.6 -2.95 46.55 -4.05 46.25 Q-4.55 45.95 -4.75 45.15 L-4.75 45.0 -5.35 44.9 -5.5 44.9 -5.55 44.95 -6.05 45.8 -6.85 46.1 -7.55 46.0 -7.75 46.0 -7.9 45.95 -8.15 45.95 -9.0 45.65 -9.1 45.55 Q-9.65 45.0 -9.55 44.4 L-9.4 43.85 -10.25 44.4 -11.25 44.7 -11.95 44.7 -12.0 44.75 -12.1 44.75 -12.45 44.7 -12.55 44.7 -14.7 44.2 -15.75 43.85 -16.1 43.7 Q-17.55 43.25 -17.4 42.05 -17.8 42.65 -18.5 42.65 L-19.2 42.45 -19.25 42.45 -19.35 42.35 -19.45 42.3 -19.5 42.3 -19.55 42.25 -20.1 42.0 -20.15 41.95 -20.3 41.9 -20.35 41.85 -20.4 41.85 -20.55 41.75 -21.55 41.25 -21.95 41.0 -22.0 40.95 -22.4 40.75 -22.45 40.75 -22.75 40.55 -23.15 40.4 Q-23.75 40.1 -23.85 39.6 -24.1 38.95 -23.75 38.25 L-23.65 38.1 -23.55 37.9 -23.45 37.6 -23.25 37.2 -23.15 37.1 -23.2 37.1 -23.65 37.55 -23.7 37.7 -23.95 38.05 -24.25 38.35 Q-24.65 38.85 -25.3 38.85 L-26.35 38.4 -26.6 38.2 -26.75 38.05 -27.0 37.85 -27.05 37.8 -27.25 37.7 -27.7 36.9 Q-27.75 36.4 -27.4 35.85 L-27.3 35.75 -27.0 35.35 -26.7 35.05 -26.65 34.95 Q-27.15 34.95 -27.5 34.6 L-27.9 34.1 -28.0 33.3 -28.1 33.4 -28.75 34.25 -28.85 34.35 -29.0 34.55 Q-29.35 35.0 -30.0 35.0 L-30.95 34.7 -31.1 34.5 -31.35 34.25 -31.8 33.95 Q-32.4 33.45 -32.3 32.6 L-32.3 32.5 -32.0 31.9 -31.7 31.6 -31.3 31.05 -30.75 30.5 -30.55 30.2 -30.3 29.95 -29.75 29.2 -29.55 29.0 -29.45 28.85 -29.4 28.8 -29.3 28.65 -29.1 28.5 -29.0 28.35 -28.75 28.1 -28.65 27.95 -28.55 27.85 -28.45 27.65 -28.35 27.55 -28.25 27.5 -28.15 27.3 -28.1 27.25 -27.15 26.05 Q-26.75 25.5 -26.1 25.5 L-25.85 25.55 Q-25.5 25.55 -25.15 25.85 L-25.05 25.9 -25.05 25.95 -24.7 26.2 -24.65 26.25 -24.4 26.45 Q-23.95 26.8 -23.85 27.35 L-23.9 28.35 -23.9 28.6 -23.95 29.1 -24.0 29.35 -24.0 29.55 -24.05 29.8 -24.05 30.35 -23.85 30.25 -23.55 30.2 -23.45 30.15 -23.25 30.1 -22.95 29.95 -22.8 29.9 -22.15 29.6 -22.05 29.6 -22.0 29.55 -21.9 29.55 -21.5 29.4 -21.4 29.4 Q-20.9 29.4 -20.4 29.75 L-19.95 30.15 -19.9 30.15 -19.7 30.35 -19.5 30.5 -19.5 30.55 -19.2 30.95 -18.95 30.9 Q-18.55 30.9 -18.3 31.1 L-18.05 31.2 -17.9 31.3 -16.4 32.1 -16.0 32.25 -15.9 32.35 -15.65 32.45 -15.0 32.85 -14.55 33.05 Q-14.1 33.3 -13.95 33.65 L-13.85 33.65 -12.45 34.0 -12.35 34.0 -12.15 34.1 -12.05 34.1 -11.9 34.2 -11.2 34.35 -11.0 34.45 -10.95 34.45 -10.75 34.5 -10.55 34.6 -10.4 34.6 -9.55 35.05 -9.55 35.1 -9.25 35.3 -9.15 35.35 -9.05 35.45 -8.9 35.55 -8.75 35.7 -8.6 35.8 -8.6 35.85 -8.55 35.85 -8.1 36.45 Q-7.6 37.15 -7.4 37.95 L-7.35 37.95 -7.35 37.85 -7.3 37.75 Q-6.8 35.8 -5.35 35.8 L-5.1 35.8 -3.75 35.95 -3.65 35.95 Q-2.75 35.95 -2.15 36.55 -1.6 37.1 -1.55 37.75 L-1.45 38.3 -1.45 38.4 -1.4 38.7 -1.4 38.75 -1.35 39.2 -1.35 39.4 -1.3 39.45 -1.3 39.05 -1.35 38.8 -1.35 38.15 -1.4 37.95 -1.4 37.7 Q-1.4 37.0 -1.05 36.65 -0.75 36.3 -0.1 36.2 L0.65 36.2 0.8 36.15 1.25 36.15 Q1.85 36.15 2.25 36.55 2.65 36.9 2.7 37.5 L2.75 39.7 2.75 39.8 2.8 40.1 2.8 40.65 2.85 40.9 2.85 42.1 2.9 42.55 3.1 42.55 3.3 42.5 4.1 42.5 4.4 42.45 4.5 42.45 5.2 42.65 4.85 41.1 4.85 40.85 4.7 40.35 4.65 40.1 4.65 39.9 4.55 39.65 4.4 39.0 4.4 38.85 4.35 38.6 4.25 38.3 4.2 38.05 4.2 37.95 4.15 37.8 4.1 37.5 Q4.0 36.85 4.3 36.4 4.6 35.95 5.15 35.85 L5.9 35.7 6.05 35.65 6.15 35.65 6.2 35.6 6.4 35.55 6.75 35.55 Q7.85 35.55 8.1 36.7 L8.15 36.95 8.15 37.15 8.2 37.3 8.2 37.4 8.25 37.5 8.25 37.7 8.3 37.85 8.3 37.95 8.5 38.9 8.55 39.0 8.6 39.2 9.05 41.65 9.15 41.65 9.25 41.6 9.95 41.45 10.15 41.45 10.55 41.3 10.85 41.3 11.4 41.4 11.35 41.35 10.95 39.95 10.4 38.35 10.35 38.15 10.25 37.95 10.05 37.3 10.05 37.2 9.9 36.9 9.75 36.45 Q9.55 35.95 9.7 35.4 9.9 34.85 10.4 34.65 L10.45 34.6 10.5 34.6 10.65 34.55 10.7 34.5 11.1 34.4 11.35 34.3 11.55 34.25 11.6 34.2 12.2 34.05 12.95 34.3 13.6 35.1 13.7 35.45 13.7 35.5 13.75 35.3 13.75 35.15 14.0 34.4 14.05 34.35 14.15 34.15 14.6 33.45 14.8 33.25 14.8 33.2 14.85 33.2 14.9 33.1 15.1 32.9 16.2 32.1 16.75 31.9 17.75 31.6 18.8 31.6 19.8 31.8 19.7 31.55 Q19.3 30.75 20.0 30.1 L20.25 29.95 20.35 29.8 20.55 29.7 20.55 29.65 20.6 29.65 20.8 29.45 21.4 29.1 Q21.55 28.95 21.7 28.95 L22.25 28.85 22.45 28.85 24.15 29.35 24.2 29.35 24.05 29.2 23.95 29.05 23.7 28.8 Q23.1 28.15 23.55 27.35 L23.55 27.3 24.3 26.6 24.65 26.35 24.95 26.05 Q25.25 25.75 25.75 25.75 26.4 25.75 26.9 26.35 L27.05 26.6 27.2 26.75 29.1 29.15 29.3 29.35 30.65 30.95 30.75 31.1 30.8 31.2 30.95 31.35 31.05 31.5 31.7 32.15 Q32.05 32.55 32.05 33.15 31.95 33.8 31.45 34.15 L31.3 34.3 31.15 34.4 30.95 34.6 30.8 34.65 30.8 34.7 30.6 34.85 Q30.25 35.2 29.7 35.2 L28.8 34.95 27.2 34.4 27.25 34.45 27.5 34.75 27.95 35.2 28.25 36.15 27.95 36.9 M19.65 36.75 L19.4 36.2 19.3 36.05 19.0 35.75 18.95 35.75 18.75 35.65 18.6 35.6 18.25 35.6 17.85 35.8 17.75 35.9 17.75 35.95 17.7 35.95 17.6 36.2 17.55 36.25 17.55 36.75 17.65 37.1 17.85 37.5 17.95 37.6 18.05 37.75 18.4 38.05 18.75 38.15 18.8 38.15 19.0 38.1 19.05 38.1 19.15 38.05 19.3 38.0 19.35 38.0 19.45 37.9 19.65 37.6 19.75 37.2 19.7 37.1 19.65 36.75 M-11.6 38.55 L-12.05 38.3 -12.1 38.5 -12.15 38.6 -12.8 40.7 -12.5 40.8 -12.4 40.85 -12.25 40.85 -11.9 40.8 Q-11.55 40.8 -11.3 40.0 L-11.2 39.7 -11.2 39.2 -11.25 38.95 -11.35 38.9 -11.35 38.85 -11.4 38.8 -11.6 38.55 M-16.65 39.6 L-16.55 39.25 -17.05 39.4 -16.8 39.95 -16.65 39.6" fill="#d3a000" fill-rule="evenodd" stroke="none"/>
    <path d="M18.35 -17.8 Q26.8 -9.35 26.8 2.55 26.8 14.45 18.35 22.9 9.95 31.3 -1.95 31.3 L-6.2 31.0 -10.25 30.1 -14.05 28.65 -17.6 26.7 -19.7 25.2 -21.9 23.25 -22.25 22.95 -23.7 21.4 -25.65 18.9 -27.45 15.9 -28.6 13.45 -29.6 10.55 -29.85 9.55 -29.9 9.4 -30.55 5.6 -33.6 5.6 -33.6 6.7 Q-33.6 7.45 -34.1 8.0 -34.65 8.55 -35.4 8.55 -36.2 8.55 -36.7 8.0 -37.25 7.45 -37.25 6.7 L-37.25 -0.9 Q-37.25 -1.65 -36.7 -2.15 -36.2 -2.7 -35.4 -2.7 -34.65 -2.7 -34.1 -2.15 -33.6 -1.65 -33.6 -0.9 L-33.6 0.0 -30.6 0.0 -30.45 -1.3 -30.45 -1.35 -30.25 -2.65 -30.25 -2.7 -30.0 -3.95 -29.95 -4.05 -29.65 -5.3 -29.6 -5.4 -29.25 -6.55 -29.2 -6.65 -28.8 -7.85 -28.75 -7.9 -27.7 -10.3 Q-25.35 -14.95 -21.55 -18.55 L-21.45 -18.65 -19.7 -20.1 -19.35 -20.35 -18.25 -21.15 -14.75 -23.25 -10.95 -24.8 -4.85 -26.1 -1.95 -26.25 Q9.95 -26.25 18.35 -17.8" fill="#d3a000" fill-rule="evenodd" stroke="none"/>
    <path d="M-25.0 26.3 Q-24.75 26.5 -24.9 27.3 L-24.95 28.05 -25.0 28.3 -25.1 30.0 -25.0 30.6 -24.45 30.55 -23.75 30.35 -23.5 30.25 -23.05 30.15 -22.85 30.05 -22.4 29.9 -21.8 29.6 -21.45 29.5 -21.05 29.6 -20.6 30.0 -20.35 30.15 -20.15 30.35 Q-19.9 30.6 -20.1 30.9 L-21.65 32.65 -23.85 35.4 -23.95 35.55 -24.4 36.0 -24.75 36.5 -24.95 36.7 -25.0 36.8 -25.7 36.75 -26.1 36.35 -26.6 36.0 Q-26.8 35.8 -26.6 35.55 L-25.45 34.2 -25.25 33.9 -24.7 33.3 -24.6 33.1 -24.6 32.8 Q-24.8 32.65 -25.25 32.8 L-25.75 32.85 -26.2 32.95 -26.9 32.9 -26.95 32.8 -27.0 32.4 -27.0 31.0 -27.1 30.3 -27.35 30.2 -27.75 30.55 -28.45 31.4 -28.85 31.8 -29.75 32.95 -30.3 33.0 -30.75 32.55 -31.15 32.25 -31.3 31.85 -31.2 31.6 -28.25 28.05 -27.85 27.65 -26.4 25.75 -25.95 25.6 -25.8 25.7 -25.75 25.75 -25.7 25.75 -25.65 25.8 -25.0 26.3" fill="#ffd245" fill-rule="evenodd" stroke="none"/>
    <path d="M-26.1 25.6 Q-26.25 25.6 -26.4 25.75 L-27.85 27.65 -28.5 28.35 -31.2 31.6 -31.3 31.85 -31.15 32.25 -30.75 32.55 -30.3 33.0 -30.0 33.1 -29.75 32.95 -28.85 31.8 -28.45 31.4 -27.75 30.55 -27.35 30.2 -27.3 30.2 -27.1 30.3 -27.0 31.0 -27.0 32.4 -26.95 32.8 -26.9 32.9 -26.6 33.0 -24.9 32.75 -24.6 32.8 -24.6 33.1 -24.7 33.3 -25.25 33.9 -25.45 34.2 -26.6 35.55 Q-26.8 35.8 -26.6 36.0 L-26.1 36.35 -25.7 36.75 -25.3 36.9 -25.0 36.8 -24.95 36.7 -24.75 36.5 -24.4 36.0 -23.95 35.55 -23.85 35.4 -21.65 32.65 -20.35 31.15 -20.1 30.9 Q-19.9 30.6 -20.15 30.35 L-20.35 30.15 -20.6 30.0 -21.05 29.6 -21.4 29.5 -21.45 29.5 -21.8 29.6 -22.4 29.9 -22.85 30.05 -23.05 30.15 -23.5 30.25 -23.75 30.35 -24.85 30.65 -25.0 30.6 -25.1 30.0 -25.0 28.3 -24.95 28.05 -24.9 27.3 Q-24.75 26.5 -25.0 26.3 L-25.65 25.8 -25.7 25.75 -25.75 25.75 -25.8 25.7 -25.95 25.6 -26.1 25.6 M-29.4 27.9 L-29.3 27.75 -28.75 27.15 -28.65 27.0 -28.55 26.95 -28.45 26.75 -28.25 26.55 -28.15 26.35 -28.1 26.35 -27.15 25.1 Q-26.8 24.6 -26.1 24.6 L-25.85 24.6 -25.15 24.95 -25.05 24.95 -25.05 25.0 -24.7 25.25 -24.65 25.3 -24.4 25.5 Q-23.7 26.1 -23.9 27.45 L-23.9 27.65 -23.95 28.15 -24.0 28.4 -24.0 28.65 -24.05 28.9 -24.05 29.4 -23.95 29.4 -23.85 29.35 -23.55 29.25 -23.45 29.25 -22.95 29.0 -22.6 28.9 -22.05 28.65 -22.0 28.65 -21.95 28.6 -21.9 28.6 -21.65 28.5 -21.4 28.5 Q-20.85 28.5 -20.4 28.8 L-20.15 29.05 -19.95 29.2 -19.9 29.25 -19.7 29.4 -19.5 29.6 Q-19.1 30.0 -19.0 30.55 -18.95 31.15 -19.3 31.55 L-19.45 31.65 -20.75 33.2 -20.9 33.3 -21.7 34.35 -21.85 34.5 -22.15 34.95 -22.8 35.75 -23.1 36.05 -23.2 36.2 -23.3 36.3 -23.65 36.6 -23.7 36.75 -23.95 37.1 -24.25 37.4 Q-24.6 37.9 -25.3 37.9 -25.9 37.9 -26.35 37.5 L-26.6 37.3 -26.75 37.15 -27.0 36.95 -27.05 36.9 -27.25 36.75 -27.7 35.95 Q-27.75 35.45 -27.4 34.9 L-27.3 34.85 -27.0 34.4 -26.8 34.25 -26.7 34.1 -26.65 34.0 -27.5 33.7 -27.9 33.15 -28.0 32.4 -28.1 32.45 -28.75 33.3 -28.85 33.4 -29.0 33.6 Q-29.4 34.1 -30.0 34.1 L-30.95 33.75 -31.1 33.55 -31.15 33.5 -31.35 33.35 -31.5 33.2 -31.8 33.05 Q-32.45 32.5 -32.3 31.7 L-32.3 31.6 -32.0 31.0 -31.55 30.45 -31.45 30.35 -31.3 30.15 -30.75 29.55 -30.55 29.25 -30.3 29.0 -29.55 28.05 -29.4 27.9" fill="#b07f00" fill-rule="evenodd" stroke="none"/>
    <path d="M-19.8 32.05 L-19.55 31.5 -19.25 31.1 -18.75 31.05 -16.5 32.25 -16.1 32.4 -15.45 32.8 -15.0 33.0 Q-14.65 33.2 -14.85 33.55 L-15.05 33.85 -15.25 34.4 -15.5 34.6 -15.7 34.65 -16.0 34.55 -16.3 34.35 -16.8 34.15 -16.9 34.05 -17.45 33.75 -18.1 33.5 -18.5 33.85 -18.7 34.4 -18.5 34.75 -18.15 35.0 -17.55 35.3 -17.1 35.6 Q-16.7 35.8 -16.35 35.95 L-16.35 36.4 -16.75 37.1 -16.9 37.3 -17.55 37.4 -18.1 37.15 -18.35 36.95 -18.6 36.85 -18.9 36.65 -19.35 36.45 -19.6 36.4 Q-19.8 36.4 -20.0 36.75 L-20.25 37.5 -19.65 38.1 -18.3 38.8 -18.05 38.9 -17.75 39.35 -17.9 39.85 -17.95 39.9 -18.05 40.2 -18.2 40.5 Q-18.35 40.9 -18.75 40.65 L-18.9 40.55 -19.85 40.05 -20.1 39.95 -21.1 39.45 -21.5 39.15 -22.65 38.55 -22.9 38.3 -22.9 37.8 -22.7 37.55 -22.55 37.15 -20.8 33.8 -20.6 33.55 -20.4 33.1 -19.8 32.05" fill="#ffd245" fill-rule="evenodd" stroke="none"/>
    <path d="M-19.55 31.5 L-19.8 32.05 -20.4 33.1 -20.6 33.55 -20.8 33.8 -22.55 37.15 -22.7 37.55 -22.9 37.8 -22.9 38.3 -22.65 38.55 -21.5 39.15 -21.1 39.45 -20.1 39.95 -19.85 40.05 -18.9 40.55 -18.75 40.65 -18.5 40.75 -18.2 40.5 -18.05 40.2 -17.95 39.9 -17.9 39.85 -17.75 39.35 -18.05 38.9 -18.3 38.8 -19.65 38.1 -20.25 37.5 -20.0 36.75 Q-19.8 36.4 -19.6 36.4 L-19.35 36.45 -18.9 36.65 -18.6 36.85 -18.35 36.95 -18.1 37.15 -17.55 37.4 -17.25 37.5 -16.9 37.3 -16.75 37.1 -16.35 36.4 -16.35 35.95 Q-16.7 35.8 -17.1 35.6 L-17.55 35.3 -18.15 35.0 -18.5 34.75 -18.7 34.4 -18.5 33.85 -18.05 33.5 -17.45 33.75 -16.9 34.05 -16.8 34.15 -16.3 34.35 -16.0 34.55 -15.7 34.65 -15.65 34.65 -15.5 34.6 -15.25 34.4 -15.05 33.85 -14.85 33.55 Q-14.65 33.2 -15.0 33.0 L-15.45 32.8 -16.1 32.4 -16.5 32.25 -18.75 31.05 -18.95 31.0 -19.25 31.1 -19.55 31.5 M-20.45 31.05 L-19.85 30.3 Q-19.4 30.0 -18.95 30.0 L-18.3 30.15 -17.9 30.4 -17.6 30.5 -16.4 31.15 -16.25 31.2 -14.55 32.15 Q-14.0 32.4 -13.85 32.95 -13.7 33.5 -13.95 34.05 L-14.05 34.15 -14.25 34.55 -14.35 34.85 Q-14.65 35.35 -15.05 35.5 L-15.4 35.6 Q-15.15 36.3 -15.5 36.9 L-15.7 37.2 -15.85 37.55 -16.0 37.8 -16.05 37.85 -16.1 37.85 -16.1 37.9 Q-16.5 38.45 -17.05 38.5 -16.7 38.85 -16.75 39.35 L-17.0 40.3 -17.0 40.35 -17.1 40.6 -17.15 40.65 -17.15 40.7 -17.3 40.95 Q-17.7 41.75 -18.5 41.75 L-19.2 41.55 -19.3 41.45 -19.35 41.45 -19.45 41.4 -19.55 41.3 -19.75 41.25 -20.1 41.1 -20.15 41.05 -20.3 40.95 -20.35 40.95 -20.4 40.9 -20.55 40.8 -21.95 40.1 -22.0 40.05 -22.4 39.85 -22.45 39.8 -23.15 39.45 -23.85 38.65 Q-24.1 38.0 -23.75 37.35 L-22.5 34.9 -22.25 34.5 -21.8 33.55 -21.6 33.25 -21.5 33.05 -21.45 32.9 -21.3 32.6 -21.0 32.15 -20.45 31.05" fill="#b07f00" fill-rule="evenodd" stroke="none"/>
    <path d="M-8.55 40.15 L-8.85 40.8 -9.15 41.3 -9.3 41.45 -9.45 41.7 -9.7 41.85 -9.95 42.1 -10.7 42.55 -11.4 42.75 -11.8 42.75 -12.05 42.8 -12.5 42.8 -14.4 42.3 -15.8 41.85 Q-16.55 41.65 -16.4 41.2 L-16.25 40.85 -14.3 34.25 -13.85 33.7 -11.05 34.5 -10.85 34.6 -10.7 34.65 -10.2 34.9 -10.1 35.0 -9.85 35.15 -9.7 35.3 -9.4 35.5 -9.25 35.65 -8.8 36.3 Q-8.35 37.05 -8.25 37.75 L-8.2 38.55 -8.3 39.45 -8.45 39.75 -8.55 40.15 M-10.85 36.9 L-11.85 36.4 -12.25 36.3 -12.5 36.35 -12.95 36.85 -13.85 39.8 -13.8 40.3 Q-13.6 40.55 -12.8 40.8 L-12.55 40.9 -11.65 40.85 Q-10.75 40.6 -10.35 39.4 L-10.2 38.85 -10.2 38.5 -10.15 38.3 -10.3 37.8 -10.55 37.3 -10.85 36.9" fill="#ffd245" fill-rule="evenodd" stroke="none"/>
    <path d="M-12.1 37.55 L-12.15 37.65 -12.8 39.75 -12.5 39.85 -12.4 39.9 -11.9 39.9 -11.3 39.1 -11.2 38.75 -11.2 38.25 -11.25 38.05 -11.35 37.95 -11.35 37.9 -11.4 37.85 -11.6 37.6 -12.05 37.4 -12.1 37.55 M-10.85 36.9 L-10.55 37.3 -10.3 37.8 -10.15 38.3 -10.2 38.5 -10.2 38.85 -10.35 39.4 Q-10.75 40.6 -11.65 40.85 L-12.55 40.9 -12.8 40.8 Q-13.6 40.55 -13.8 40.3 L-13.85 39.8 -12.95 36.85 -12.5 36.35 -12.35 36.3 -12.25 36.3 -11.85 36.4 -10.85 36.9 M-8.2 38.55 L-8.25 37.75 Q-8.35 37.05 -8.8 36.3 L-9.25 35.65 -9.4 35.5 -9.7 35.3 -9.85 35.15 -10.1 35.0 -10.2 34.9 -10.7 34.65 -10.85 34.6 -11.05 34.5 -13.85 33.7 -14.3 34.25 -15.0 36.7 -16.25 40.85 -16.4 41.2 Q-16.55 41.65 -15.8 41.85 L-14.4 42.3 -12.5 42.8 -12.05 42.8 -11.8 42.75 -11.4 42.75 -10.7 42.55 -9.95 42.1 -9.7 41.85 -9.45 41.7 -9.3 41.45 -9.15 41.3 -8.85 40.8 -8.55 40.15 -8.45 39.75 -8.3 39.45 -8.2 38.55 M-8.85 34.65 L-8.75 34.8 -8.6 34.85 -8.6 34.9 -8.55 34.9 -7.95 35.7 Q-7.35 36.65 -7.25 37.6 L-7.2 38.55 -7.35 39.75 -7.45 39.9 -7.45 40.0 -7.5 40.2 -7.6 40.45 -7.95 41.25 -8.4 41.95 -8.55 42.1 -8.55 42.15 -8.7 42.35 -8.75 42.35 -8.8 42.4 -9.05 42.6 -9.05 42.65 -9.15 42.7 -9.35 42.9 -10.25 43.45 -11.25 43.75 -11.75 43.75 -11.95 43.8 -12.45 43.8 -12.55 43.75 -14.7 43.25 -16.1 42.8 Q-17.1 42.5 -17.35 41.75 L-17.35 40.9 -17.2 40.55 -16.85 39.3 -16.85 39.15 -16.4 37.85 -16.15 37.05 -16.15 36.95 -16.1 36.8 -16.0 36.6 -15.6 35.3 -15.55 35.05 -15.45 34.8 -15.25 34.0 Q-14.85 32.75 -13.9 32.75 L-13.85 32.7 -12.45 33.05 -12.35 33.1 -12.15 33.15 -12.1 33.15 -12.05 33.2 -11.65 33.35 -11.0 33.5 -10.95 33.5 -10.75 33.55 -10.55 33.65 -10.5 33.65 -10.4 33.7 Q-9.95 33.8 -9.65 34.1 L-9.55 34.15 -9.25 34.35 -9.15 34.4 -9.05 34.5 -8.9 34.6 -8.9 34.65 -8.85 34.65" fill="#b07f00" fill-rule="evenodd" stroke="none"/>
    <path d="M-4.9 35.9 L-3.7 36.05 Q-3.25 36.0 -2.8 36.35 -2.6 36.55 -2.55 37.0 L-2.35 38.4 -2.3 38.6 -2.3 38.8 -2.05 40.5 -2.1 40.85 -2.0 41.05 -1.95 41.9 -1.9 42.15 -1.85 42.75 -1.8 42.95 -1.7 43.65 -1.7 43.95 -1.65 44.15 -1.65 44.5 Q-1.65 44.7 -2.2 44.7 L-2.85 44.65 -3.5 44.45 -3.75 44.05 -3.8 43.7 -3.85 43.55 Q-3.95 43.3 -4.15 43.2 L-4.9 43.05 -5.25 43.0 -5.65 43.0 -6.15 43.15 -6.55 43.85 -6.65 44.05 -7.1 44.15 -7.7 44.05 -8.05 44.05 -8.4 43.95 -8.55 43.55 -8.4 43.1 -8.3 42.9 -8.25 42.65 -8.1 42.2 -8.0 41.7 -7.75 40.95 -7.6 40.7 -7.15 39.3 -7.05 39.1 -6.65 37.8 -6.55 37.6 -6.35 37.05 Q-6.0 35.8 -5.2 35.85 L-4.9 35.9 M-4.5 38.25 L-4.7 38.4 -5.05 39.1 -5.15 39.4 -5.2 39.65 -5.4 40.15 -5.5 40.55 Q-5.55 41.1 -4.8 41.2 L-4.25 41.2 -4.0 40.95 -3.95 40.8 -4.05 40.05 -4.1 39.65 -4.1 39.25 -4.25 38.55 -4.5 38.25" fill="#ffd245" fill-rule="evenodd" stroke="none"/>
    <path d="M-4.5 38.25 L-4.25 38.55 -4.1 39.25 -4.1 39.65 -4.05 40.05 -3.95 40.8 -4.0 40.95 -4.25 41.2 -4.8 41.2 Q-5.55 41.1 -5.5 40.55 L-5.4 40.15 -5.2 39.65 -5.15 39.4 -5.05 39.1 -4.7 38.4 -4.5 38.25 M-7.35 37.0 L-7.35 36.9 -7.3 36.8 Q-6.8 34.85 -5.35 34.85 L-3.75 35.05 -3.65 35.05 Q-2.7 35.05 -2.15 35.6 -1.65 36.1 -1.55 36.8 L-1.5 37.15 -1.45 37.35 -1.45 37.5 -1.4 37.75 -1.4 37.8 -1.35 38.3 -1.35 38.45 -1.3 38.55 -1.3 38.65 -1.2 39.4 -1.2 39.7 -1.05 40.5 -1.1 40.65 -1.1 40.7 -1.05 40.85 -1.05 40.95 -1.0 41.0 -1.0 41.15 -0.95 41.45 -0.95 41.75 -0.9 42.0 -0.75 43.55 -0.7 43.7 -0.7 43.75 -0.65 44.1 -0.65 44.65 Q-0.75 45.7 -1.95 45.7 L-2.3 45.7 -2.55 45.65 -2.95 45.65 -4.05 45.3 Q-4.55 45.0 -4.75 44.2 L-4.75 44.05 -5.0 44.0 -5.5 44.0 -5.55 44.05 Q-5.6 44.5 -6.05 44.85 L-6.85 45.15 -7.2 45.15 -7.55 45.1 -7.75 45.05 -8.15 45.05 Q-8.8 44.95 -9.05 44.65 L-9.0 44.75 Q-9.6 44.2 -9.55 43.45 L-9.35 42.8 -9.35 42.75 -9.3 42.75 -9.3 42.65 -9.25 42.45 -9.2 42.35 -9.05 41.9 -8.95 41.45 -8.95 41.35 -8.6 40.45 -8.55 40.35 -8.4 39.9 -8.25 39.4 -8.05 38.85 -8.0 38.75 -7.6 37.55 -7.6 37.5 -7.4 37.05 -7.35 37.0 M-4.9 35.9 L-5.2 35.85 -5.35 35.85 Q-5.95 35.85 -6.35 37.05 L-6.55 37.6 -6.65 37.8 -7.05 39.1 -7.15 39.3 -7.6 40.7 -7.75 40.95 -8.0 41.7 -8.1 42.2 -8.25 42.65 -8.3 42.9 -8.4 43.1 -8.55 43.55 -8.4 43.95 -8.05 44.05 -7.7 44.05 -7.1 44.15 -6.85 44.15 -6.65 44.05 -6.55 43.85 -6.15 43.15 -5.65 43.0 -5.25 43.0 -4.9 43.05 -4.15 43.2 Q-3.95 43.3 -3.85 43.55 L-3.8 43.7 -3.75 44.05 -3.5 44.45 -2.85 44.65 -1.95 44.7 -1.65 44.5 -1.65 44.15 -1.7 43.95 -1.7 43.65 -1.8 42.95 -1.85 42.75 -1.9 42.15 -1.95 41.9 -2.0 41.05 -2.1 40.85 -2.05 40.5 -2.3 38.8 -2.3 38.6 -2.35 38.4 -2.55 37.0 Q-2.6 36.55 -2.8 36.35 -3.1 36.05 -3.65 36.05 L-3.7 36.05 -4.9 35.9" fill="#b07f00" fill-rule="evenodd" stroke="none"/>
    <path d="M1.0 36.25 L1.25 36.2 Q1.7 36.2 1.7 36.6 L1.75 38.85 1.95 42.1 Q1.95 42.55 2.25 42.6 L2.75 42.6 4.05 42.55 4.45 42.5 Q4.85 42.5 4.85 42.85 L4.85 43.15 4.8 43.55 4.9 44.05 Q4.9 44.5 4.4 44.5 L1.85 44.6 1.55 44.65 0.5 44.7 Q0.0 44.75 0.0 44.1 L-0.1 41.65 -0.3 38.1 -0.35 37.8 -0.35 37.15 -0.4 36.7 Q-0.4 36.3 -0.05 36.3 L1.0 36.25" fill="#ffd245" fill-rule="evenodd" stroke="none"/>
    <path d="M-0.4 36.7 L-0.35 37.15 -0.35 37.8 -0.3 38.1 -0.15 41.25 -0.05 42.15 0.0 44.1 Q0.0 44.7 0.45 44.7 L0.5 44.7 1.0 44.65 1.55 44.65 1.85 44.6 4.4 44.5 Q4.9 44.5 4.9 44.05 L4.8 43.55 4.85 43.15 4.85 42.85 Q4.85 42.5 4.5 42.5 L4.45 42.5 4.05 42.55 2.75 42.6 2.4 42.65 2.25 42.6 Q1.95 42.55 1.95 42.1 L1.7 38.15 1.7 36.6 Q1.7 36.2 1.25 36.2 L1.0 36.25 -0.05 36.3 Q-0.4 36.3 -0.4 36.7 M0.95 35.25 L1.0 35.2 1.25 35.2 Q1.85 35.2 2.25 35.6 2.65 35.95 2.7 36.55 L2.75 38.8 2.75 38.9 2.8 39.15 2.8 39.7 2.85 40.0 2.9 41.6 3.3 41.6 3.55 41.55 4.1 41.55 4.4 41.5 4.5 41.5 Q5.05 41.5 5.45 41.85 L5.85 42.8 5.85 43.1 5.8 43.4 5.8 43.55 5.85 43.65 5.9 44.0 5.55 45.05 Q5.2 45.5 4.45 45.5 L4.2 45.5 3.9 45.55 3.3 45.55 2.9 45.6 1.9 45.6 1.8 45.65 0.9 45.65 0.55 45.7 0.45 45.7 Q-0.95 45.7 -1.0 44.15 L-1.15 41.3 -1.2 39.65 -1.25 39.4 -1.25 39.0 -1.3 38.55 -1.3 38.15 -1.35 37.85 -1.35 37.2 -1.4 37.05 -1.4 36.75 Q-1.4 36.1 -1.05 35.7 -0.65 35.3 -0.1 35.3 L0.9 35.25 0.95 35.25" fill="#b07f00" fill-rule="evenodd" stroke="none"/>
    <path d="M5.35 35.9 L6.35 35.7 6.6 35.6 Q7.0 35.55 7.15 35.95 L7.3 37.15 7.4 37.45 7.5 38.15 7.8 39.3 7.95 40.5 8.2 41.35 8.6 41.8 10.4 41.45 10.75 41.35 Q11.05 41.3 11.2 41.65 L11.2 41.95 11.25 42.35 11.4 42.85 Q11.5 43.25 11.0 43.35 L8.2 43.9 7.2 44.15 Q6.75 44.25 6.55 43.6 L6.3 42.25 6.25 41.7 6.0 40.85 5.45 38.1 5.4 37.7 5.3 37.45 5.2 36.8 5.05 36.35 Q5.05 35.95 5.35 35.9" fill="#ffd245" fill-rule="evenodd" stroke="none"/>
    <path d="M5.35 35.9 Q5.05 35.95 5.05 36.35 L5.2 36.8 5.3 37.45 5.4 37.7 5.45 38.1 6.0 40.85 6.25 41.7 6.3 42.25 6.55 43.6 Q6.75 44.15 7.05 44.15 L7.2 44.15 9.15 43.7 11.0 43.35 Q11.5 43.25 11.4 42.85 L11.25 42.35 11.2 41.95 11.2 41.65 11.1 41.5 Q11.0 41.35 10.85 41.35 L10.75 41.35 8.65 41.8 8.6 41.8 8.2 41.35 7.95 40.5 7.8 39.3 7.5 38.15 7.4 37.45 7.3 37.15 7.15 35.95 Q7.05 35.6 6.75 35.6 L6.6 35.6 6.35 35.7 5.35 35.9 M6.1 34.7 L6.2 34.7 6.4 34.65 6.75 34.6 Q7.85 34.6 8.1 35.75 L8.15 36.05 8.15 36.25 8.2 36.35 8.2 36.45 8.25 36.6 8.25 36.8 8.3 36.9 8.3 37.05 8.5 37.95 8.55 38.05 9.05 40.7 9.25 40.7 9.45 40.65 9.7 40.55 9.95 40.5 10.15 40.5 10.3 40.45 10.85 40.35 Q11.95 40.35 12.15 41.45 L12.2 41.85 12.2 41.75 12.25 42.05 12.25 42.15 12.4 42.65 Q12.65 44.05 11.2 44.35 L10.9 44.4 10.7 44.45 10.05 44.55 9.7 44.65 9.35 44.7 9.2 44.7 9.0 44.8 8.7 44.8 8.6 44.85 8.1 44.95 7.9 44.95 7.4 45.1 7.05 45.15 Q5.9 45.15 5.6 43.85 L5.3 42.1 4.85 40.2 4.85 39.9 4.7 39.4 4.65 39.15 4.65 38.95 4.55 38.7 4.4 38.05 4.4 37.9 4.35 37.65 4.25 37.35 4.2 37.1 4.2 37.0 4.15 36.85 4.1 36.55 Q4.0 35.95 4.3 35.45 4.6 35.0 5.15 34.9 L5.9 34.75 6.05 34.75 6.1 34.7" fill="#b07f00" fill-rule="evenodd" stroke="none"/>
    <path d="M12.4 34.2 L12.65 34.5 12.75 34.95 12.9 35.3 14.35 39.6 14.4 39.9 14.9 41.3 15.1 41.7 14.85 42.15 14.55 42.2 14.1 42.4 13.8 42.45 Q13.7 42.55 13.55 42.6 L13.1 42.4 13.0 42.15 12.8 41.4 12.3 40.1 12.25 39.9 11.3 36.9 11.1 36.4 11.0 35.95 10.7 35.2 Q10.5 34.8 10.8 34.6 L11.0 34.55 12.1 34.15 12.4 34.2" fill="#ffd245" fill-rule="evenodd" stroke="none"/>
    <path d="M12.2 33.15 L12.95 33.35 Q13.45 33.7 13.6 34.2 L13.7 34.5 13.7 34.6 13.75 34.7 14.4 36.6 14.45 36.85 14.7 37.55 14.75 37.8 14.9 38.1 15.15 38.9 15.3 39.25 15.3 39.4 15.35 39.55 15.45 39.75 15.9 41.1 16.05 41.4 15.9 42.5 15.15 43.1 14.95 43.15 14.85 43.15 14.7 43.25 14.2 43.4 14.1 43.4 14.1 43.45 13.85 43.55 13.4 43.6 Q12.6 43.6 12.25 42.95 L12.05 42.5 11.85 41.7 11.6 41.15 11.05 39.45 10.95 39.0 10.4 37.45 10.35 37.2 10.25 37.0 10.05 36.4 10.05 36.3 9.75 35.5 Q9.55 35.05 9.7 34.5 9.9 33.95 10.4 33.7 L10.45 33.7 10.5 33.65 10.65 33.6 10.7 33.6 10.9 33.5 11.1 33.45 11.35 33.35 11.55 33.3 11.6 33.3 11.8 33.2 12.2 33.15 M12.2 34.15 L12.1 34.15 11.0 34.55 10.8 34.6 Q10.5 34.8 10.7 35.2 L11.0 35.95 11.1 36.4 12.8 41.4 13.0 42.15 13.1 42.4 13.4 42.6 13.55 42.6 Q13.7 42.55 13.8 42.45 L14.1 42.4 14.55 42.2 14.85 42.15 15.1 41.7 14.9 41.3 14.4 39.9 14.35 39.6 12.75 34.95 12.65 34.5 12.4 34.2 12.2 34.15" fill="#b07f00" fill-rule="evenodd" stroke="none"/>
    <path d="M17.85 31.7 L18.8 31.65 20.15 32.05 21.2 32.8 21.5 33.1 22.3 34.4 22.6 35.15 22.75 36.0 22.7 37.0 22.4 38.0 21.55 39.1 21.25 39.3 21.1 39.45 20.8 39.65 20.15 39.95 19.9 40.0 19.6 40.1 19.0 40.2 18.65 40.2 18.3 40.15 17.05 39.8 16.2 39.25 15.65 38.6 15.0 37.55 14.85 37.15 14.65 36.25 14.6 35.65 14.65 35.4 14.65 34.85 14.75 34.55 14.8 34.2 15.05 33.65 15.4 33.15 15.55 32.95 15.8 32.7 16.25 32.35 16.65 32.1 17.85 31.7 M18.05 33.7 L17.45 33.95 17.2 34.1 16.85 34.5 16.6 35.15 16.55 35.8 16.75 36.7 16.8 36.75 17.05 37.15 17.35 37.5 17.85 37.95 18.8 38.25 19.0 38.2 19.15 38.2 19.6 38.05 19.8 37.95 20.1 37.75 20.55 37.1 20.75 36.25 20.6 35.55 20.45 35.1 20.25 34.8 20.2 34.65 20.1 34.5 19.5 33.95 18.75 33.65 18.05 33.7" fill="#ffd245" fill-rule="evenodd" stroke="none"/>
    <path d="M19.3 35.1 L19.0 34.85 18.95 34.8 18.75 34.75 18.6 34.65 18.55 34.65 18.25 34.7 17.95 34.85 17.85 34.85 17.75 34.95 17.75 35.0 17.7 35.05 17.6 35.25 17.55 35.3 17.55 35.8 17.65 36.2 17.7 36.25 17.85 36.55 17.95 36.65 18.05 36.8 18.4 37.1 18.75 37.25 18.8 37.2 19.05 37.2 19.15 37.15 19.3 37.1 19.35 37.05 19.45 37.0 19.65 36.65 19.75 36.25 19.7 36.15 19.65 35.8 19.55 35.6 19.5 35.45 19.4 35.25 19.3 35.1 M17.2 34.1 L17.45 33.95 18.05 33.7 18.6 33.65 18.75 33.65 19.5 33.95 20.1 34.5 20.2 34.65 20.25 34.8 20.45 35.1 20.6 35.55 20.75 36.25 20.55 37.1 20.1 37.75 19.8 37.95 19.6 38.05 19.15 38.2 19.0 38.2 18.8 38.25 17.85 37.95 17.35 37.5 17.05 37.15 16.8 36.75 16.75 36.7 16.55 35.8 16.6 35.15 16.85 34.5 17.2 34.1 M17.85 31.7 L16.65 32.1 16.25 32.35 15.8 32.7 15.55 32.95 15.4 33.15 15.05 33.65 14.8 34.2 14.75 34.55 14.65 34.85 14.65 35.4 14.6 35.65 14.65 36.25 14.85 37.15 15.0 37.55 15.65 38.6 16.2 39.25 17.05 39.8 18.3 40.15 18.65 40.2 19.0 40.2 19.6 40.1 19.9 40.0 20.15 39.95 20.8 39.65 21.1 39.45 21.25 39.3 21.55 39.1 22.4 38.0 22.7 37.0 22.75 36.0 22.6 35.15 22.3 34.4 21.5 33.1 21.2 32.8 20.15 32.05 18.8 31.65 18.75 31.65 17.85 31.7 M19.9 30.9 L20.2 31.0 20.3 31.05 20.35 31.05 20.45 31.1 20.55 31.1 21.6 31.8 21.85 32.0 22.3 32.5 22.8 33.25 23.2 33.95 23.55 34.95 23.6 35.05 23.75 35.9 23.7 37.1 23.25 38.5 23.0 38.85 23.0 38.9 22.8 39.2 22.85 39.05 22.2 39.85 21.85 40.1 21.7 40.25 21.25 40.55 20.5 40.9 20.2 40.95 19.85 41.1 19.4 41.15 19.15 41.15 18.75 41.2 18.55 41.2 18.2 41.15 18.1 41.1 16.65 40.7 16.0 40.3 15.9 40.25 15.85 40.25 15.8 40.2 15.6 40.05 15.55 40.05 14.85 39.2 14.8 39.2 14.8 39.15 14.1 38.0 13.9 37.4 13.65 36.3 13.6 35.7 13.65 35.35 13.65 34.7 13.75 34.4 13.75 34.25 14.0 33.5 14.05 33.45 14.05 33.4 14.15 33.25 14.6 32.5 14.8 32.3 14.8 32.25 14.85 32.25 14.9 32.2 15.1 31.95 Q15.7 31.4 16.2 31.2 L16.75 31.0 16.95 30.9 17.75 30.7 17.85 30.7 18.05 30.65 18.8 30.65 19.9 30.9" fill="#b07f00" fill-rule="evenodd" stroke="none"/>
    <path d="M26.1 26.05 L29.85 30.65 30.3 31.25 30.9 31.85 Q31.2 32.15 30.85 32.45 L30.15 32.95 29.95 33.15 29.2 33.1 26.7 32.25 25.05 31.7 24.85 31.65 24.65 31.7 Q24.5 31.7 24.65 31.95 L25.05 32.45 25.9 33.55 27.15 34.9 Q27.4 35.15 27.15 35.4 L26.25 36.25 25.95 36.4 Q25.75 36.45 25.65 36.25 L24.05 34.3 23.8 34.05 22.85 32.8 22.35 32.35 21.4 31.2 21.25 31.0 21.1 30.85 21.0 30.7 20.75 30.45 20.6 30.2 Q20.5 30.1 20.65 29.9 L20.9 29.8 20.95 29.75 21.0 29.65 21.05 29.6 21.25 29.5 21.3 29.4 21.75 29.1 22.05 28.95 22.3 28.9 23.55 29.3 23.7 29.35 23.95 29.4 27.05 30.5 26.8 30.0 26.6 29.75 26.45 29.6 26.25 29.3 25.95 29.0 25.65 28.55 25.25 28.15 24.7 27.45 24.45 27.25 24.4 26.9 24.9 26.45 25.1 26.35 25.25 26.2 25.45 26.05 25.6 25.9 Q25.75 25.6 26.1 26.05" fill="#ffd245" fill-rule="evenodd" stroke="none"/>
    <path d="M25.75 25.85 L25.6 25.9 25.45 26.05 25.25 26.2 25.1 26.35 24.9 26.45 24.4 26.9 24.45 27.25 24.7 27.45 25.25 28.15 25.65 28.55 25.95 29.0 26.25 29.3 26.45 29.6 26.6 29.75 26.8 30.0 27.05 30.5 25.15 29.8 23.95 29.4 23.7 29.35 23.55 29.3 22.3 28.9 22.25 28.9 22.05 28.95 21.75 29.1 21.3 29.4 21.25 29.5 21.05 29.6 21.0 29.65 20.95 29.75 20.9 29.8 20.65 29.9 Q20.5 30.1 20.6 30.2 L20.75 30.45 21.0 30.7 21.1 30.85 21.25 31.0 21.4 31.2 22.35 32.35 22.85 32.8 23.05 33.1 25.65 36.25 25.9 36.4 25.95 36.4 26.25 36.25 27.15 35.4 Q27.4 35.15 27.15 34.9 L25.9 33.55 25.05 32.45 24.65 31.95 Q24.5 31.7 24.65 31.7 L24.85 31.65 25.05 31.7 26.7 32.25 29.7 33.25 29.95 33.15 30.15 32.95 30.85 32.45 Q31.2 32.15 30.9 31.85 L30.3 31.25 26.1 26.05 25.75 25.85 M23.55 26.4 L24.0 25.9 24.5 25.55 24.75 25.3 24.95 25.15 Q25.25 24.85 25.75 24.85 26.35 24.85 26.9 25.4 L27.2 25.85 27.35 26.0 27.55 26.3 29.75 28.95 29.9 29.2 30.75 30.15 30.8 30.25 30.85 30.3 30.85 30.35 31.7 31.2 Q32.05 31.6 32.05 32.25 31.95 32.8 31.45 33.2 L31.15 33.5 30.95 33.65 30.8 33.7 30.8 33.75 30.6 33.95 29.7 34.25 28.8 34.05 28.6 33.95 27.3 33.55 27.5 33.85 27.6 33.95 27.7 34.0 27.95 34.25 28.25 35.2 27.95 36.0 26.9 37.05 26.05 37.4 25.9 37.4 Q25.3 37.4 24.85 36.9 L24.85 36.85 24.8 36.85 24.55 36.55 24.45 36.4 24.05 35.9 24.0 35.85 23.4 35.1 23.3 34.95 23.1 34.75 22.25 33.7 22.2 33.65 21.65 33.0 21.6 33.0 21.6 32.95 20.95 32.15 20.65 31.85 20.55 31.7 20.45 31.6 20.35 31.45 20.25 31.4 20.2 31.3 19.95 31.1 19.7 30.6 Q19.3 29.8 20.0 29.15 L20.25 29.0 20.35 28.9 20.45 28.85 20.6 28.7 20.7 28.65 20.8 28.55 21.4 28.15 21.7 28.0 22.25 27.9 22.45 27.9 23.8 28.35 24.0 28.35 24.15 28.45 24.2 28.45 24.05 28.25 23.95 28.15 23.9 28.05 23.7 27.85 Q23.15 27.2 23.55 26.4" fill="#b07f00" fill-rule="evenodd" stroke="none"/>
    <path d="M19.6 -19.9 Q27.8 -11.65 27.8 -0.05 27.8 11.6 19.6 19.8 11.35 28.05 -0.25 28.05 -11.85 28.05 -20.1 19.8 -28.35 11.6 -28.35 -0.05 -28.35 -11.65 -20.1 -19.9 -11.9 -28.1 -0.25 -28.1 11.4 -28.1 19.6 -19.9" fill="#ffd245" fill-rule="evenodd" stroke="none"/>
    <path d="M19.6 -19.9 Q11.4 -28.1 -0.25 -28.1 -11.9 -28.1 -20.1 -19.9 -28.35 -11.65 -28.35 -0.05 -28.35 11.6 -20.1 19.8 -11.85 28.05 -0.25 28.05 11.35 28.05 19.6 19.8 27.8 11.6 27.8 -0.05 27.8 -11.65 19.6 -19.9 Z" fill="none" stroke="#b07f00" stroke-linecap="butt" stroke-linejoin="miter-clip" stroke-miterlimit="4.0" stroke-width="1.0"/>
    <path d="M-28.15 -2.45 L-28.15 3.15 -32.6 3.15 -32.6 -2.45 -28.15 -2.45" fill="#d6a200" fill-rule="evenodd" stroke="none"/>
    <path d="M-28.15 -2.45 L-28.15 3.15 -32.6 3.15 -32.6 -2.45 -28.15 -2.45 Z" fill="none" stroke="#b07f00" stroke-linecap="butt" stroke-linejoin="miter-clip" stroke-miterlimit="4.0" stroke-width="1.0"/>
    <path d="M-33.65 -5.15 Q-32.9 -5.15 -32.35 -4.6 -31.8 -4.1 -31.8 -3.35 L-31.8 4.25 Q-31.8 5.0 -32.35 5.55 -32.9 6.1 -33.65 6.1 -34.45 6.1 -34.95 5.55 -35.5 5.0 -35.5 4.25 L-35.5 -3.35 Q-35.5 -4.1 -34.95 -4.6 -34.45 -5.15 -33.65 -5.15" fill="#ffc200" fill-rule="evenodd" stroke="none"/>
    <path d="M-33.65 -5.15 Q-32.9 -5.15 -32.35 -4.6 -31.8 -4.1 -31.8 -3.35 L-31.8 4.25 Q-31.8 5.0 -32.35 5.55 -32.9 6.1 -33.65 6.1 -34.45 6.1 -34.95 5.55 -35.5 5.0 -35.5 4.25 L-35.5 -3.35 Q-35.5 -4.1 -34.95 -4.6 -34.45 -5.15 -33.65 -5.15 Z" fill="none" stroke="#b07f00" stroke-linecap="butt" stroke-linejoin="miter-clip" stroke-miterlimit="4.0" stroke-width="1.0"/>
    <path d="M-0.2 -1.1 Q0.3 -1.1 0.6 -0.75 0.95 -0.4 0.95 0.1 0.95 0.6 0.6 0.9 0.3 1.25 -0.2 1.25 L-1.05 0.9 Q-1.4 0.6 -1.4 0.1 L-1.05 -0.75 -0.2 -1.1" fill="#ffffff" fill-rule="evenodd" stroke="none"/>
    <path d="M-0.2 -1.1 L-1.05 -0.75 -1.4 0.1 Q-1.4 0.6 -1.05 0.9 L-0.2 1.25 Q0.3 1.25 0.6 0.9 0.95 0.6 0.95 0.1 0.95 -0.4 0.6 -0.75 0.3 -1.1 -0.2 -1.1 Z" fill="none" stroke="#000000" stroke-linecap="butt" stroke-linejoin="miter-clip" stroke-miterlimit="4.0" stroke-width="1.0"/>
    <path d="M8.25 -19.0 L7.45 -7.4 5.1 -8.35 -3.05 11.35 Q-2.3 12.1 -2.05 13.1 -1.8 14.15 -2.2 15.1 -2.7 16.4 -4.0 16.95 -5.3 17.5 -6.6 16.95 -7.9 16.45 -8.4 15.15 -8.95 13.8 -8.45 12.55 -8.0 11.55 -7.1 11.0 -6.2 10.45 -5.15 10.5 L2.95 -9.25 0.6 -10.25 8.25 -19.0" fill="#d6a200" fill-rule="evenodd" stroke="none"/>
    <path d="M8.25 -19.0 L0.6 -10.25 2.95 -9.25 -5.15 10.5 Q-6.2 10.45 -7.1 11.0 -8.0 11.55 -8.45 12.55 -8.95 13.8 -8.4 15.15 -7.9 16.45 -6.6 16.95 -5.3 17.5 -4.0 16.95 -2.7 16.4 -2.2 15.1 -1.8 14.15 -2.05 13.1 -2.3 12.1 -3.05 11.35 L5.1 -8.35 7.45 -7.4 8.25 -19.0 Z" fill="none" stroke="#b07f00" stroke-linecap="butt" stroke-linejoin="miter-clip" stroke-miterlimit="4.0" stroke-width="1.0"/>
    <path d="M3.3 -2.7 Q4.45 -1.55 4.45 0.1 4.45 1.75 3.3 2.95 2.15 4.1 0.45 4.1 -1.2 4.1 -2.35 2.95 -3.5 1.75 -3.5 0.1 -3.5 -1.55 -2.35 -2.7 -1.2 -3.9 0.45 -3.9 2.15 -3.9 3.3 -2.7" fill="#ffc200" fill-rule="evenodd" stroke="none"/>
    <path d="M3.3 -2.7 Q2.15 -3.9 0.45 -3.9 -1.2 -3.9 -2.35 -2.7 -3.5 -1.55 -3.5 0.1 -3.5 1.75 -2.35 2.95 -1.2 4.1 0.45 4.1 2.15 4.1 3.3 2.95 4.45 1.75 4.45 0.1 4.45 -1.55 3.3 -2.7 Z" fill="none" stroke="#b07f00" stroke-linecap="butt" stroke-linejoin="miter-clip" stroke-miterlimit="4.0" stroke-width="1.0"/>
    <path d="M23.7 0.1 Q23.7 -9.85 16.7 -16.85 9.7 -23.85 -0.2 -23.85 -10.1 -23.85 -17.1 -16.85 -24.15 -9.85 -24.15 0.1 -24.15 10.0 -17.1 17.0 -10.1 24.0 -0.2 24.0 9.7 24.0 16.7 17.0 23.7 10.0 23.7 0.1 M20.1 -20.25 Q28.55 -11.8 28.55 0.1 28.55 12.0 20.1 20.4 11.7 28.85 -0.2 28.85 -12.1 28.85 -20.55 20.4 -29.0 12.0 -29.0 0.1 -29.0 -11.8 -20.55 -20.25 -12.1 -28.7 -0.2 -28.7 11.7 -28.7 20.1 -20.25" fill="#ffc200" fill-rule="evenodd" stroke="none"/>
    <path d="M20.1 -20.25 Q11.7 -28.7 -0.2 -28.7 -12.1 -28.7 -20.55 -20.25 -29.0 -11.8 -29.0 0.1 -29.0 12.0 -20.55 20.4 -12.1 28.85 -0.2 28.85 11.7 28.85 20.1 20.4 28.55 12.0 28.55 0.1 28.55 -11.8 20.1 -20.25 M23.7 0.1 Q23.7 10.0 16.7 17.0 9.7 24.0 -0.2 24.0 -10.1 24.0 -17.1 17.0 -24.15 10.0 -24.15 0.1 -24.15 -9.85 -17.1 -16.85 -10.1 -23.85 -0.2 -23.85 9.7 -23.85 16.7 -16.85 23.7 -9.85 23.7 0.1 Z" fill="none" stroke="#b07f00" stroke-linecap="butt" stroke-linejoin="miter-clip" stroke-miterlimit="4.0" stroke-width="1.0"/>
    <path d="M15.35 17.75 L13.15 14.85 14.55 13.45 17.45 15.65 15.35 17.75 M-15.0 13.45 L-13.55 14.85 -15.75 17.75 -17.85 15.65 -15.0 13.45 M-1.7 23.6 L-1.25 20.0 0.8 20.0 1.25 23.6 -1.7 23.6 M-17.85 -15.5 L-15.8 -17.6 -13.55 -14.7 -15.0 -13.25 -17.85 -15.5 M0.8 -19.8 L-1.25 -19.8 -1.7 -23.4 1.25 -23.4 0.8 -19.8 M-23.7 1.55 L-23.7 -1.4 -20.1 -0.95 -20.1 1.1 -23.7 1.55 M17.45 -15.5 L14.6 -13.25 13.15 -14.7 15.35 -17.6 17.45 -15.5 M19.7 1.1 L19.7 -0.95 23.3 -1.4 23.3 1.55 19.7 1.1" fill="#d6a200" fill-rule="evenodd" stroke="none"/>
    <path d="M19.7 1.1 L23.3 1.55 23.3 -1.4 19.7 -0.95 19.7 1.1 M17.45 -15.5 L15.35 -17.6 13.15 -14.7 14.6 -13.25 17.45 -15.5 M-23.7 1.55 L-20.1 1.1 -20.1 -0.95 -23.7 -1.4 -23.7 1.55 M0.8 -19.8 L1.25 -23.4 -1.7 -23.4 -1.25 -19.8 0.8 -19.8 M-17.85 -15.5 L-15.0 -13.25 -13.55 -14.7 -15.8 -17.6 -17.85 -15.5 M-1.7 23.6 L1.25 23.6 0.8 20.0 -1.25 20.0 -1.7 23.6 M-15.0 13.45 L-17.85 15.65 -15.75 17.75 -13.55 14.85 -15.0 13.45 M15.35 17.75 L17.45 15.65 14.55 13.45 13.15 14.85 15.35 17.75 Z" fill="none" stroke="#b07f00" stroke-linecap="butt" stroke-linejoin="miter-clip" stroke-miterlimit="4.0" stroke-width="1.0"/>
    <path d="M20.85 -20.95 Q29.55 -12.25 29.55 0.1 29.55 12.4 20.85 21.15 12.1 29.85 -0.2 29.85 -11.45 29.85 -19.8 22.5 -28.2 15.2 -29.7 4.15 L-30.8 4.15 -30.8 4.25 Q-30.8 5.4 -31.65 6.25 -32.5 7.1 -33.65 7.1 -34.85 7.1 -35.65 6.25 -36.5 5.4 -36.5 4.25 L-36.5 -3.35 Q-36.5 -4.5 -35.65 -5.35 -34.85 -6.15 -33.65 -6.15 -32.5 -6.15 -31.7 -5.35 -30.9 -4.55 -30.85 -3.45 L-29.75 -3.45 Q-29.15 -8.7 -26.75 -13.45 -24.35 -18.15 -20.4 -21.8 -16.25 -25.6 -11.05 -27.65 -5.8 -29.7 -0.2 -29.7 12.1 -29.7 20.85 -20.95 M28.55 0.1 Q28.55 -11.8 20.1 -20.25 11.7 -28.7 -0.2 -28.7 -11.45 -28.7 -19.7 -21.1 -27.9 -13.5 -28.85 -2.45 L-31.8 -2.45 -31.8 -3.35 Q-31.8 -4.1 -32.35 -4.6 -32.9 -5.15 -33.65 -5.15 -34.45 -5.15 -34.95 -4.6 -35.5 -4.1 -35.5 -3.35 L-35.5 4.25 Q-35.5 5.0 -34.95 5.55 -34.45 6.1 -33.65 6.1 -32.9 6.1 -32.35 5.55 -31.8 5.0 -31.8 4.25 L-31.8 3.15 -28.8 3.15 Q-27.65 14.05 -19.5 21.4 -11.3 28.85 -0.2 28.85 11.7 28.85 20.1 20.4 28.55 12.0 28.55 0.1" fill="#b07f00" fill-rule="evenodd" stroke="none"/>
    <path d="M2.35 -1.9 Q2.95 -1.35 2.95 -0.5 2.95 0.3 2.35 0.9 1.8 1.45 0.95 1.45 0.15 1.45 -0.45 0.9 -1.0 0.3 -1.0 -0.5 -1.0 -1.35 -0.45 -1.9 0.15 -2.5 0.95 -2.5 1.8 -2.5 2.35 -1.9" fill="#ffd245" fill-rule="evenodd" stroke="none"/>
    <path d="M-18.85 -41.0 Q-18.1 -41.0 -17.6 -40.2 L-17.55 -40.05 -17.45 -39.85 -17.1 -39.35 Q-16.85 -38.85 -16.95 -38.4 L-17.1 -37.9 Q-16.3 -37.8 -15.95 -37.1 L-15.75 -36.65 -15.8 -36.8 -15.55 -36.35 -15.45 -36.1 -15.45 -36.05 -15.4 -36.0 Q-15.15 -35.25 -15.5 -34.7 L-15.2 -34.75 -14.4 -34.5 -13.8 -33.7 -13.75 -33.7 -13.75 -33.65 -13.55 -33.45 -13.55 -33.4 -13.5 -33.35 -13.35 -33.05 Q-13.05 -32.5 -13.2 -31.95 -13.35 -31.4 -13.95 -31.1 L-14.0 -31.05 -14.05 -31.05 -14.1 -31.0 -14.2 -30.95 -14.25 -30.95 -14.3 -30.9 -14.55 -30.8 -15.0 -30.5 -15.1 -30.45 -15.15 -30.45 -15.2 -30.4 -17.3 -29.25 -17.45 -29.2 -18.2 -28.8 -18.95 -28.6 -19.2 -28.6 -19.7 -27.95 -20.45 -27.35 -20.5 -27.25 -20.7 -27.1 Q-21.0 -26.8 -21.5 -26.8 -22.15 -26.8 -22.55 -27.3 L-22.8 -27.55 -23.15 -28.0 -23.5 -28.35 Q-23.5 -27.85 -24.0 -27.4 -24.3 -27.1 -24.6 -27.1 L-25.0 -27.05 -25.5 -27.15 -25.6 -27.15 -25.55 -27.0 -24.35 -25.7 Q-24.0 -25.15 -24.05 -24.7 -24.05 -24.15 -24.55 -23.75 L-25.05 -23.35 -25.05 -23.3 -25.2 -23.2 -25.45 -22.95 -25.95 -22.6 Q-25.95 -22.1 -26.3 -21.75 L-26.4 -21.6 -26.5 -21.55 -26.6 -21.35 -27.05 -20.85 -27.05 -20.8 -27.2 -20.6 Q-27.7 -20.1 -28.3 -20.1 L-29.0 -20.25 -29.4 -20.55 -31.2 -22.05 -31.35 -22.2 -32.4 -23.1 -32.7 -23.3 -33.7 -24.1 -33.7 -23.95 -33.75 -23.9 -34.05 -23.35 -34.15 -23.15 -33.6 -22.75 -33.45 -22.7 -32.85 -22.3 -31.9 -21.75 -31.5 -21.55 -31.2 -21.3 -30.8 -21.1 -30.05 -20.65 -29.8 -20.45 -29.75 -20.4 -29.6 -20.35 -29.35 -20.2 Q-28.85 -19.9 -28.75 -19.35 -28.6 -18.75 -29.0 -18.1 L-29.2 -17.8 -29.35 -17.5 -29.55 -17.25 -29.6 -17.2 -29.7 -17.0 Q-30.05 -16.4 -30.8 -16.4 L-31.25 -16.45 -31.8 -16.7 -31.9 -16.75 -32.15 -16.95 -32.25 -17.05 -33.95 -18.05 -34.35 -18.35 -34.45 -18.4 -34.65 -18.55 -34.95 -18.7 -35.0 -18.8 -35.2 -18.9 -36.25 -19.55 -36.45 -19.65 -36.55 -19.45 -36.55 -19.4 -36.75 -19.05 Q-37.15 -18.35 -38.05 -18.35 L-38.8 -18.55 -39.0 -18.65 -39.8 -19.2 Q-40.3 -19.5 -40.45 -20.05 -40.55 -20.65 -40.2 -21.25 L-40.0 -21.5 -39.45 -22.4 -39.05 -22.95 -38.65 -23.7 -38.55 -23.8 -38.45 -24.05 -38.35 -24.2 -38.3 -24.25 -38.2 -24.4 -38.15 -24.55 -38.0 -24.75 -37.9 -24.85 -37.8 -25.05 -37.5 -25.45 -37.5 -25.5 -37.35 -25.8 -36.95 -26.2 -36.95 -26.25 -36.15 -26.5 -36.1 -26.5 Q-36.2 -27.15 -35.95 -27.5 L-35.9 -27.6 -35.7 -27.8 -35.65 -27.9 -35.1 -28.5 -34.95 -28.8 -33.9 -29.25 -33.85 -29.25 Q-33.25 -29.25 -32.8 -28.9 L-32.5 -28.6 -32.1 -28.3 -31.95 -28.15 -32.1 -28.35 -33.0 -29.3 Q-33.5 -29.85 -33.25 -30.7 L-32.85 -31.35 -32.75 -31.4 -32.7 -31.45 -32.45 -31.65 -32.1 -32.0 -32.1 -32.05 -32.05 -32.05 Q-31.65 -32.45 -31.05 -32.45 L-30.0 -32.25 -28.95 -31.9 -28.85 -31.9 -28.7 -31.85 -28.2 -31.75 -28.15 -31.75 -27.8 -31.65 -27.8 -31.7 -27.85 -31.9 -27.85 -32.05 -27.9 -32.35 -27.9 -32.5 -28.05 -33.05 -28.05 -33.2 -28.25 -33.95 -28.25 -34.05 -28.3 -34.1 -28.3 -34.2 -28.35 -34.5 -28.35 -34.6 Q-28.35 -35.25 -27.85 -35.7 L-27.55 -35.9 -27.05 -36.35 -26.85 -36.5 -26.8 -36.55 -25.9 -36.85 Q-25.2 -36.85 -24.85 -36.4 L-24.7 -36.25 -24.2 -35.6 -24.15 -35.55 -23.55 -34.85 -23.35 -34.55 -22.8 -33.95 -22.85 -34.05 -23.15 -34.5 -23.7 -35.65 -23.85 -35.85 -24.05 -36.2 -24.35 -37.15 Q-24.4 -38.1 -23.6 -38.6 L-23.15 -38.8 -22.5 -39.2 Q-22.2 -39.3 -21.95 -39.45 L-21.55 -39.7 -21.4 -39.75 -20.0 -40.5 -19.55 -40.8 -18.85 -41.0 M15.85 -37.5 L15.8 -37.4 15.45 -36.75 15.4 -36.55 15.4 -36.4 15.35 -36.1 15.35 -36.0 15.55 -35.45 15.6 -35.35 15.75 -36.1 16.1 -36.8 16.1 -36.9 16.2 -37.1 16.7 -37.75 16.4 -37.75 16.1 -37.65 16.05 -37.6 16.0 -37.6 15.95 -37.55 15.85 -37.5 M33.85 -23.1 L31.8 -21.7 32.05 -21.35 32.1 -21.25 32.55 -20.9 32.7 -20.85 Q33.1 -20.85 33.7 -21.15 L34.0 -21.4 34.1 -21.5 34.25 -21.7 34.3 -21.75 34.5 -22.1 34.45 -22.2 34.45 -22.3 34.5 -22.35 34.5 -22.7 34.2 -23.35 33.9 -23.15 33.85 -23.1 M-10.7 -43.8 L-10.1 -44.0 -9.85 -44.05 -9.7 -44.05 -9.5 -44.15 -9.3 -44.15 -9.25 -44.2 -9.1 -44.2 -8.95 -44.25 -8.65 -44.3 -8.55 -44.3 -8.5 -44.35 -8.3 -44.4 -7.95 -44.45 -7.8 -44.45 -7.75 -44.5 -7.45 -44.6 -7.1 -44.65 -6.95 -44.6 -6.85 -44.6 Q-6.25 -44.6 -5.9 -44.0 L-5.65 -43.25 -5.55 -43.0 -5.5 -42.7 -5.45 -42.6 -5.45 -42.55 -5.4 -42.35 Q-5.15 -41.3 -6.25 -40.7 L-6.3 -40.7 -6.85 -40.5 -7.1 -40.45 -6.95 -39.8 -6.9 -39.65 -6.8 -39.1 -6.75 -38.95 -6.7 -38.65 -6.55 -38.25 -6.5 -37.9 -6.35 -37.45 -6.3 -37.05 -5.95 -35.75 -5.95 -35.6 -5.85 -35.95 -5.85 -36.15 -5.8 -36.35 -5.8 -36.45 -5.75 -36.8 -5.7 -36.95 -5.7 -37.2 -5.65 -37.45 -5.65 -37.55 -5.45 -38.6 -5.45 -38.7 -5.1 -40.5 -5.05 -40.65 -4.85 -41.85 -4.85 -41.9 -4.75 -42.45 -4.7 -42.5 -4.7 -42.55 -4.65 -42.7 Q-4.5 -45.0 -2.7 -45.05 L-1.15 -45.1 -0.75 -45.15 Q-0.1 -45.15 0.55 -44.75 L1.35 -43.6 1.5 -43.05 1.55 -42.95 1.85 -41.9 1.85 -41.8 1.9 -41.75 1.9 -41.7 2.15 -40.9 2.15 -40.8 2.45 -39.85 2.45 -39.55 2.55 -39.4 2.55 -39.35 2.7 -40.05 2.7 -40.15 2.85 -41.1 2.85 -41.15 3.1 -42.7 3.15 -42.9 3.15 -43.0 3.2 -43.05 3.2 -43.35 3.25 -43.45 3.25 -43.8 3.45 -44.35 Q3.75 -45.05 4.55 -45.05 L4.8 -45.05 5.05 -44.95 5.25 -44.95 5.35 -44.9 5.45 -44.9 5.5 -44.85 5.85 -44.85 6.9 -44.5 7.45 -43.95 8.15 -42.35 8.25 -42.2 8.25 -42.1 8.3 -42.05 8.3 -42.0 8.35 -41.9 8.45 -42.45 8.5 -42.6 8.5 -43.0 Q8.7 -43.9 9.55 -44.05 L9.7 -44.1 9.8 -44.1 11.1 -43.85 11.3 -43.85 11.55 -43.8 Q12.1 -43.7 12.4 -43.25 L12.65 -42.1 12.5 -41.55 12.4 -40.9 12.3 -40.55 12.25 -40.1 12.15 -39.7 12.2 -39.8 13.1 -40.8 14.0 -41.4 15.65 -41.85 15.95 -41.9 17.0 -41.85 18.3 -41.5 18.7 -41.35 18.8 -41.35 18.85 -41.3 19.05 -41.25 19.05 -41.2 19.55 -41.05 20.2 -40.75 Q21.35 -40.15 21.65 -39.5 22.05 -38.85 21.75 -38.1 L21.65 -37.85 21.55 -37.7 21.5 -37.5 21.4 -37.35 21.3 -37.05 20.7 -36.4 20.9 -35.6 20.85 -35.5 21.0 -35.65 21.4 -36.35 21.5 -36.45 21.6 -36.6 21.65 -36.65 21.8 -36.9 22.0 -37.15 22.1 -37.35 22.2 -37.45 22.3 -37.6 22.45 -37.9 Q22.85 -38.5 23.65 -38.5 L24.4 -38.25 25.25 -37.7 25.3 -37.65 25.35 -37.65 25.4 -37.6 25.6 -37.5 26.25 -36.55 Q26.35 -35.95 25.95 -35.45 L25.65 -35.05 25.55 -34.95 25.45 -34.75 25.2 -34.4 25.15 -34.4 25.15 -34.35 24.55 -33.5 24.1 -32.75 23.05 -31.4 22.8 -30.9 22.9 -30.8 23.0 -30.75 23.7 -30.3 23.9 -30.1 24.2 -29.95 24.4 -29.75 24.55 -29.9 24.65 -29.95 24.8 -30.15 25.0 -30.35 25.15 -30.55 25.35 -30.7 26.3 -31.7 26.4 -31.75 26.5 -31.9 27.0 -32.4 27.15 -32.6 27.65 -33.05 27.8 -33.25 28.1 -33.55 28.9 -34.15 29.45 -34.25 Q30.05 -34.25 30.45 -33.85 L30.8 -33.5 31.05 -33.3 31.65 -32.7 31.8 -32.5 32.25 -32.1 32.5 -31.9 32.6 -31.8 32.85 -31.6 33.55 -30.85 33.8 -30.65 Q34.8 -29.65 33.8 -28.6 L33.55 -28.35 33.4 -28.15 33.15 -27.9 Q32.85 -27.55 32.25 -27.45 L32.0 -27.4 31.8 -27.45 31.75 -26.7 33.8 -28.15 Q34.3 -28.55 34.95 -28.55 L35.65 -28.35 36.65 -27.1 36.75 -27.0 36.85 -26.8 36.9 -26.75 37.0 -26.55 37.5 -25.95 37.6 -25.75 37.65 -25.7 37.65 -25.65 37.8 -25.5 37.9 -25.35 37.9 -25.25 38.0 -25.15 38.35 -24.35 38.4 -24.25 38.4 -24.2 38.5 -23.85 38.55 -23.75 38.55 -23.6 38.7 -23.0 38.7 -22.9 Q38.9 -21.25 38.0 -19.85 L37.45 -19.0 36.5 -18.1 36.35 -18.0 36.25 -17.95 35.85 -17.65 35.0 -17.25 34.2 -16.95 33.95 -16.9 33.9 -16.9 33.65 -16.85 33.6 -16.8 32.75 -16.8 31.6 -16.95 Q30.95 -17.1 30.6 -17.35 L30.55 -17.35 30.55 -17.4 30.2 -17.65 30.0 -17.75 29.5 -18.2 28.05 -20.0 28.0 -20.05 27.15 -21.4 26.85 -22.0 26.25 -22.35 26.0 -22.6 25.95 -22.7 25.5 -23.05 25.4 -23.2 25.3 -23.3 25.25 -23.3 25.05 -23.5 25.05 -23.55 24.15 -24.35 23.8 -24.75 23.75 -24.75 22.75 -25.7 22.35 -26.35 21.7 -26.6 21.25 -26.95 20.7 -27.3 Q20.5 -27.4 20.35 -27.6 L20.05 -27.8 19.9 -27.85 19.55 -28.1 19.45 -28.2 19.15 -28.35 18.9 -28.55 18.75 -28.7 18.55 -28.8 18.25 -29.0 Q17.85 -29.25 17.6 -29.85 L17.35 -29.8 17.0 -29.85 Q16.8 -29.85 15.95 -30.25 L15.5 -30.45 15.45 -30.45 14.95 -30.65 14.0 -31.2 13.0 -32.0 12.7 -32.3 12.7 -32.35 12.65 -32.35 11.5 -34.15 11.3 -34.95 11.2 -34.05 Q11.0 -32.85 9.8 -32.85 L9.25 -32.95 9.05 -32.95 8.6 -33.1 8.3 -33.1 Q7.4 -33.25 7.0 -34.45 L6.95 -34.7 6.85 -34.85 6.25 -36.4 6.2 -36.5 6.2 -36.1 6.1 -35.65 6.1 -35.35 6.05 -35.0 Q5.95 -34.5 5.5 -34.15 5.05 -33.85 4.65 -33.85 L4.3 -33.9 4.0 -33.9 3.6 -33.95 3.4 -33.95 3.1 -34.0 2.6 -34.2 2.1 -34.1 1.8 -34.1 1.35 -34.05 1.05 -34.05 Q-0.2 -34.05 -0.7 -35.2 L-0.75 -35.4 -0.8 -35.45 -1.5 -35.45 -1.7 -35.4 -1.75 -35.4 -1.75 -35.25 Q-1.75 -34.75 -2.15 -34.35 -2.55 -33.9 -3.3 -33.9 L-4.0 -33.9 -4.35 -33.85 -5.35 -34.1 -5.75 -34.55 Q-5.85 -33.55 -7.05 -33.25 L-7.4 -33.15 -7.5 -33.15 -8.0 -33.05 -8.05 -33.05 -8.3 -32.95 -8.6 -32.95 Q-9.4 -32.95 -9.75 -33.65 L-10.0 -34.25 -10.0 -34.35 -10.05 -34.65 -10.1 -34.8 -10.6 -37.05 -10.6 -37.25 -10.65 -37.35 -10.75 -37.85 -10.75 -38.0 -10.85 -38.2 -10.95 -38.55 -11.0 -38.95 -11.2 -39.6 -11.35 -39.55 -11.45 -39.55 -11.8 -39.4 -12.15 -39.4 Q-13.35 -39.4 -13.65 -40.55 L-13.65 -40.7 -13.9 -41.65 Q-14.05 -42.45 -13.5 -43.0 L-12.7 -43.4 -10.7 -43.8" fill="#d3a000" fill-rule="evenodd" stroke="none"/>
    <path d="M-34.85 -26.25 L-34.1 -25.75 Q-33.75 -25.6 -33.95 -25.2 L-34.15 -24.85 -34.5 -23.9 -34.4 -23.6 -33.35 -22.85 -32.95 -22.65 -32.65 -22.4 -31.3 -21.65 -30.3 -21.0 -29.8 -20.75 -29.55 -20.5 -29.15 -20.3 Q-28.8 -20.05 -29.1 -19.55 L-29.45 -19.0 -29.7 -18.7 -29.8 -18.45 -30.25 -18.35 -30.45 -18.5 -30.6 -18.55 -30.95 -18.85 -33.7 -20.6 -35.45 -21.6 -36.05 -21.65 -36.65 -20.95 -36.85 -20.55 -37.15 -20.3 -37.55 -20.35 -38.05 -20.7 -38.25 -20.8 -38.55 -21.0 Q-38.95 -21.2 -38.6 -21.65 L-36.85 -24.45 -36.7 -24.65 -36.55 -24.95 -35.9 -25.9 -35.75 -26.25 -35.6 -26.4 -35.3 -26.45 -34.85 -26.25" fill="#ffd245" fill-rule="evenodd" stroke="none"/>
    <path d="M-35.4 -26.5 L-35.6 -26.4 -35.75 -26.25 -35.9 -25.9 -36.55 -24.95 -36.7 -24.65 -38.6 -21.65 Q-38.95 -21.2 -38.55 -21.0 L-38.25 -20.8 -38.05 -20.7 -37.55 -20.35 -37.3 -20.3 Q-37.0 -20.3 -36.85 -20.55 L-36.65 -20.95 -36.05 -21.65 -35.8 -21.7 -35.45 -21.6 -33.7 -20.6 -30.95 -18.85 -30.6 -18.55 -30.45 -18.5 -30.25 -18.35 -30.05 -18.35 Q-29.85 -18.35 -29.8 -18.45 L-29.7 -18.7 -29.45 -19.0 -29.1 -19.55 Q-28.8 -20.05 -29.15 -20.3 L-29.55 -20.5 -29.8 -20.75 -30.8 -21.3 -31.3 -21.65 -32.65 -22.4 -32.95 -22.65 -33.35 -22.85 -34.4 -23.6 -34.5 -23.9 -34.15 -24.85 -33.95 -25.2 Q-33.75 -25.6 -34.1 -25.75 L-34.85 -26.25 -35.4 -26.5 M-35.05 -27.45 L-34.35 -27.1 -33.9 -26.8 -33.7 -26.7 -33.55 -26.6 Q-32.6 -26.0 -33.0 -24.9 L-33.0 -24.85 -33.4 -24.1 -32.85 -23.7 -32.7 -23.65 -32.25 -23.35 -32.15 -23.25 -31.45 -22.9 -31.15 -22.7 -30.75 -22.5 -30.45 -22.25 -30.25 -22.15 -29.3 -21.6 -29.05 -21.4 -29.0 -21.35 -28.85 -21.3 -28.6 -21.15 -28.0 -20.3 Q-27.85 -19.7 -28.25 -19.05 L-28.45 -18.75 -28.6 -18.45 -28.8 -18.2 -28.85 -18.15 -28.95 -17.95 Q-29.3 -17.35 -30.05 -17.35 L-30.5 -17.4 -31.05 -17.65 -31.15 -17.7 -31.4 -17.9 -31.5 -18.0 -32.8 -18.75 -33.6 -19.3 -33.7 -19.35 -34.2 -19.7 -34.25 -19.75 -34.45 -19.85 -35.5 -20.5 -35.7 -20.6 -35.8 -20.4 -35.85 -20.35 -36.0 -20.0 Q-36.45 -19.3 -37.3 -19.3 L-38.05 -19.5 -38.25 -19.6 -39.05 -20.15 Q-39.55 -20.45 -39.7 -21.0 -39.8 -21.6 -39.45 -22.2 L-39.25 -22.45 -38.35 -23.9 -38.2 -24.2 -38.0 -24.45 -37.9 -24.65 -37.8 -24.75 -37.7 -25.0 -37.6 -25.15 -37.55 -25.2 -37.5 -25.35 -37.25 -25.7 -37.15 -25.8 -37.05 -26.0 -36.75 -26.4 -36.75 -26.45 -36.6 -26.75 -36.25 -27.1 -36.2 -27.15 -36.2 -27.2 -35.4 -27.5 -35.05 -27.45" fill="#b07f00" fill-rule="evenodd" stroke="none"/>
    <path d="M-32.35 -28.75 L-30.8 -27.55 -30.4 -27.15 -28.25 -25.4 -28.0 -25.15 -27.55 -24.85 -26.35 -23.9 Q-26.05 -23.7 -26.3 -23.35 L-27.25 -22.2 -27.75 -22.1 -28.0 -22.25 -28.6 -22.85 -29.8 -23.8 -29.95 -23.95 -30.25 -24.1 -33.05 -26.45 -33.4 -26.8 -34.15 -27.3 Q-34.5 -27.65 -34.35 -27.95 L-34.2 -28.1 -33.9 -28.5 -33.55 -28.85 -33.4 -29.1 -33.15 -29.2 -32.7 -29.1 -32.35 -28.75" fill="#ffd245" fill-rule="evenodd" stroke="none"/>
    <path d="M-33.15 -29.2 L-33.4 -29.1 -33.55 -28.85 -33.9 -28.5 -34.2 -28.1 -34.35 -27.95 Q-34.5 -27.65 -34.15 -27.3 L-33.4 -26.8 -33.05 -26.45 -30.25 -24.1 -29.95 -23.95 -29.8 -23.8 -28.6 -22.85 -28.0 -22.25 -27.75 -22.1 -27.55 -22.05 -27.25 -22.2 -26.3 -23.35 Q-26.05 -23.7 -26.35 -23.9 L-27.55 -24.85 -28.0 -25.15 -28.9 -26.0 -29.55 -26.45 -30.4 -27.15 -30.8 -27.55 -32.35 -28.75 -32.7 -29.1 -33.15 -29.2 M-32.05 -29.85 L-31.75 -29.55 -31.35 -29.25 -27.6 -26.2 -27.55 -26.15 -27.55 -26.1 -27.35 -25.95 -27.2 -25.8 -26.9 -25.6 -26.1 -24.95 -26.0 -24.85 -25.7 -24.7 Q-25.2 -24.2 -25.2 -23.65 -25.2 -23.1 -25.55 -22.7 L-25.75 -22.5 -25.85 -22.3 -26.35 -21.75 -26.45 -21.55 Q-26.95 -21.05 -27.55 -21.05 L-28.25 -21.2 -30.45 -23.0 -30.6 -23.15 -31.65 -24.05 -31.95 -24.25 -32.75 -24.9 -33.05 -25.2 -33.4 -25.45 -33.95 -25.9 -34.05 -26.0 -34.75 -26.55 -35.35 -27.45 -35.2 -28.5 -35.0 -28.7 -35.0 -28.75 -34.9 -28.85 -34.5 -29.35 -34.35 -29.5 -34.35 -29.55 -34.2 -29.75 Q-33.8 -30.2 -33.15 -30.2 L-33.1 -30.2 Q-32.5 -30.2 -32.05 -29.85" fill="#b07f00" fill-rule="evenodd" stroke="none"/>
    <path d="M-20.2 -31.15 L-19.7 -30.7 -19.55 -30.5 -19.45 -30.4 Q-19.15 -30.05 -19.65 -29.65 L-20.6 -28.8 Q-20.75 -28.6 -21.05 -28.9 L-21.3 -29.15 -21.65 -29.6 -22.0 -29.95 -23.1 -31.35 -23.3 -31.5 Q-23.5 -31.7 -23.6 -31.5 L-23.75 -30.85 -23.75 -30.3 -23.75 -29.8 Q-23.7 -29.3 -23.9 -29.1 L-24.05 -29.0 -24.5 -29.05 -25.55 -29.25 -25.75 -29.25 -25.95 -29.3 -26.7 -29.35 -26.85 -29.1 -26.6 -28.6 -25.45 -27.15 -24.4 -26.0 Q-24.1 -25.7 -24.45 -25.45 L-25.0 -25.05 -25.2 -24.85 -25.35 -24.65 -25.85 -24.55 -26.05 -24.7 -27.35 -26.25 -27.9 -26.8 -28.2 -27.2 -28.55 -27.55 -28.9 -28.0 -30.1 -29.45 -30.35 -29.65 -31.5 -30.9 -31.55 -31.35 -31.45 -31.55 -31.4 -31.6 -31.35 -31.6 -30.65 -32.25 -29.55 -32.2 -28.75 -32.0 -28.5 -31.9 -28.15 -31.85 -26.7 -31.5 -26.05 -31.5 Q-25.85 -31.65 -26.0 -32.05 L-26.05 -32.85 -26.15 -33.65 -26.25 -33.9 -26.35 -34.4 -26.5 -35.1 -26.6 -35.5 -26.45 -35.9 -25.9 -36.3 -25.65 -36.55 -25.45 -36.7 Q-25.05 -37.0 -24.85 -36.7 L-23.25 -34.7 -20.7 -31.85 -20.6 -31.75 -20.2 -31.15" fill="#ffd245" fill-rule="evenodd" stroke="none"/>
    <path d="M-19.75 -32.25 L-19.45 -31.85 -18.85 -31.25 -18.8 -31.15 -18.7 -31.05 Q-17.8 -29.95 -18.95 -28.9 L-19.45 -28.5 -19.95 -28.05 Q-20.25 -27.75 -20.75 -27.75 -21.4 -27.75 -21.8 -28.25 L-22.05 -28.5 -22.4 -28.95 -22.75 -29.3 Q-22.75 -28.8 -23.25 -28.35 -23.55 -28.05 -23.85 -28.05 L-24.25 -28.0 -24.8 -28.1 -24.9 -28.1 -24.8 -28.0 -24.7 -27.8 -23.6 -26.65 -23.3 -25.65 Q-23.3 -25.1 -23.8 -24.7 L-24.3 -24.3 -24.3 -24.25 -24.45 -24.15 -24.7 -23.9 Q-25.1 -23.5 -25.65 -23.5 L-26.2 -23.6 -26.25 -23.6 -26.85 -24.05 -27.05 -24.25 -27.3 -24.6 -27.6 -24.9 -28.1 -25.6 -28.65 -26.15 -28.95 -26.55 -29.3 -26.9 -29.6 -27.3 -29.7 -27.35 -29.95 -27.7 -30.1 -27.85 -30.25 -28.1 -30.7 -28.55 -30.85 -28.75 -30.85 -28.8 -31.0 -28.9 -32.25 -30.25 Q-32.75 -30.8 -32.5 -31.65 L-32.1 -32.3 -32.0 -32.35 -31.95 -32.4 -31.7 -32.6 -31.6 -32.75 -31.35 -32.95 -31.35 -33.0 -31.3 -33.0 Q-30.9 -33.4 -30.3 -33.4 L-29.25 -33.2 -28.5 -32.95 -28.2 -32.9 -28.2 -32.85 -28.15 -32.85 -27.45 -32.7 -27.4 -32.7 -27.05 -32.6 -27.05 -32.65 -27.1 -32.85 -27.1 -33.0 -27.15 -33.3 -27.15 -33.45 -27.3 -34.0 -27.3 -34.15 -27.5 -34.9 -27.55 -35.0 -27.55 -35.15 -27.6 -35.45 -27.6 -35.55 Q-27.6 -36.2 -27.1 -36.65 L-26.8 -36.9 -26.55 -37.05 -26.5 -37.1 -26.35 -37.3 -26.1 -37.45 -26.05 -37.5 -25.15 -37.8 Q-24.45 -37.8 -24.1 -37.35 L-23.95 -37.2 -23.45 -36.55 -23.4 -36.5 -22.6 -35.55 -22.5 -35.35 -21.5 -34.3 -21.35 -34.1 -19.95 -32.5 -19.8 -32.4 -19.75 -32.35 -19.75 -32.25 M-20.2 -31.15 L-20.6 -31.75 -20.7 -31.85 -23.25 -34.7 -24.85 -36.7 -25.15 -36.8 -25.45 -36.7 -25.65 -36.55 -25.9 -36.3 -26.45 -35.9 -26.6 -35.5 -26.5 -35.1 -26.35 -34.4 -26.25 -33.9 -26.15 -33.65 -26.0 -32.05 Q-25.85 -31.65 -26.05 -31.5 L-26.25 -31.45 -26.7 -31.5 -28.15 -31.85 -28.5 -31.9 -28.75 -32.0 -29.55 -32.2 -30.3 -32.4 -30.65 -32.25 -31.35 -31.6 -31.4 -31.6 -31.45 -31.55 -31.55 -31.35 -31.5 -30.9 -30.35 -29.65 -30.1 -29.45 -29.05 -28.15 -28.9 -28.0 -28.55 -27.55 -28.2 -27.2 -27.9 -26.8 -27.35 -26.25 -26.05 -24.7 -25.85 -24.55 -25.65 -24.5 Q-25.5 -24.5 -25.35 -24.65 L-25.2 -24.85 -25.0 -25.05 -24.45 -25.45 Q-24.1 -25.7 -24.4 -26.0 L-25.45 -27.15 -26.6 -28.6 -26.85 -29.1 -26.7 -29.35 -26.5 -29.4 -25.75 -29.25 -25.55 -29.25 -24.25 -29.0 -24.05 -29.0 -23.9 -29.1 Q-23.7 -29.3 -23.75 -29.8 L-23.75 -30.3 -23.75 -30.85 -23.6 -31.5 -23.5 -31.55 -23.3 -31.5 -23.1 -31.35 -22.0 -29.95 -21.65 -29.6 -21.3 -29.15 -21.05 -28.9 -20.75 -28.75 -20.6 -28.8 -19.65 -29.65 Q-19.15 -30.05 -19.45 -30.4 L-19.55 -30.5 -19.7 -30.7 -20.2 -31.15" fill="#b07f00" fill-rule="evenodd" stroke="none"/>
    <path d="M-17.75 -40.7 L-17.25 -39.8 -17.2 -39.45 -17.3 -39.25 -17.55 -39.05 -18.4 -38.55 -18.5 -38.5 -18.85 -38.4 -19.15 -38.25 -19.75 -37.8 -19.65 -37.25 -19.3 -36.7 -18.85 -36.65 -16.5 -37.85 Q-16.2 -37.85 -16.1 -37.65 L-15.7 -36.85 -15.6 -36.6 Q-15.45 -36.2 -15.9 -35.9 L-17.0 -35.3 -17.4 -35.15 -17.7 -34.95 -17.8 -34.9 -18.0 -34.7 -17.95 -34.1 -17.45 -33.4 Q-17.15 -33.3 -16.5 -33.65 L-15.05 -34.45 -14.85 -34.6 -14.6 -34.65 -14.25 -34.6 -13.9 -34.2 -13.85 -34.1 -13.45 -33.5 Q-13.3 -33.15 -13.65 -32.95 L-14.05 -32.75 -14.6 -32.4 -15.15 -32.15 -15.6 -31.85 -17.9 -30.65 Q-18.05 -30.45 -18.3 -30.55 L-18.7 -30.9 -19.1 -31.6 -19.2 -31.8 -19.5 -32.3 -21.2 -35.5 -21.5 -35.95 -22.4 -37.65 -22.6 -38.15 -22.35 -38.65 -21.95 -38.9 -20.3 -39.75 -19.55 -40.25 -18.8 -40.6 Q-18.6 -40.6 -18.35 -40.85 -18.0 -41.05 -17.75 -40.7" fill="#ffd245" fill-rule="evenodd" stroke="none"/>
    <path d="M-17.75 -40.7 Q-17.9 -40.95 -18.1 -40.95 L-18.35 -40.85 Q-18.6 -40.6 -18.8 -40.6 L-19.55 -40.25 -20.3 -39.75 -21.95 -38.9 -22.35 -38.65 -22.6 -38.15 -22.4 -37.65 -21.5 -35.95 -21.2 -35.5 -19.5 -32.3 -19.2 -31.8 -19.1 -31.6 -18.7 -30.9 -18.3 -30.55 -18.2 -30.55 -17.9 -30.65 -15.6 -31.85 -15.15 -32.15 -14.6 -32.4 -13.65 -32.95 Q-13.3 -33.15 -13.45 -33.5 L-13.85 -34.1 -13.9 -34.2 -14.25 -34.6 -14.45 -34.7 -14.85 -34.6 -15.05 -34.45 -16.5 -33.65 Q-17.0 -33.35 -17.25 -33.35 L-17.95 -34.1 -18.0 -34.7 -17.8 -34.9 -17.7 -34.95 -17.4 -35.15 -17.0 -35.3 -15.9 -35.9 Q-15.45 -36.2 -15.6 -36.6 L-15.7 -36.85 -16.1 -37.65 Q-16.2 -37.85 -16.5 -37.85 L-18.85 -36.65 -19.1 -36.6 Q-19.35 -36.6 -19.65 -37.25 L-19.75 -37.8 -19.15 -38.25 -18.85 -38.4 -18.5 -38.5 -18.4 -38.55 -17.55 -39.05 -17.3 -39.25 -17.2 -39.45 -17.25 -39.8 -17.75 -40.7 M-15.2 -38.1 L-14.85 -37.3 -14.7 -37.05 -14.7 -37.0 -14.65 -36.95 Q-14.4 -36.2 -14.75 -35.65 L-14.45 -35.7 -13.7 -35.45 -13.05 -34.65 -13.0 -34.65 -13.0 -34.6 -12.8 -34.4 -12.8 -34.35 -12.75 -34.3 -12.6 -34.0 Q-12.3 -33.45 -12.45 -32.9 -12.6 -32.35 -13.2 -32.05 L-13.25 -32.0 -13.3 -32.0 -13.35 -31.95 -13.45 -31.95 -13.55 -31.85 -13.8 -31.75 -14.1 -31.55 -14.25 -31.5 -14.35 -31.4 -14.4 -31.4 -14.45 -31.35 -16.55 -30.2 -16.7 -30.15 -17.45 -29.75 Q-17.65 -29.55 -18.2 -29.55 L-18.5 -29.55 Q-19.25 -29.7 -19.6 -30.4 L-19.75 -30.7 -19.8 -30.85 -20.0 -31.1 -21.0 -33.0 -21.3 -33.45 -22.2 -35.2 -22.4 -35.5 -23.3 -37.15 -23.6 -38.1 Q-23.65 -39.05 -22.85 -39.55 L-22.4 -39.75 -21.75 -40.15 -21.2 -40.4 -20.8 -40.65 -20.65 -40.7 -20.25 -41.0 Q-19.65 -41.25 -19.1 -41.55 L-18.8 -41.75 -18.1 -41.95 Q-17.35 -41.95 -16.85 -41.15 L-16.8 -41.0 -16.7 -40.85 -16.6 -40.65 -16.35 -40.3 Q-16.1 -39.8 -16.2 -39.35 L-16.35 -38.85 Q-15.55 -38.75 -15.2 -38.1" fill="#b07f00" fill-rule="evenodd" stroke="none"/>
    <path d="M-7.95 -44.25 L-6.25 -44.6 -6.0 -44.4 -5.7 -43.45 -5.7 -43.25 -5.6 -43.05 Q-5.5 -42.75 -5.9 -42.55 L-6.35 -42.45 -7.25 -42.05 -7.4 -41.75 -7.2 -40.5 -7.05 -40.1 -7.0 -39.7 -6.5 -37.55 -6.3 -37.05 -6.15 -36.15 -6.0 -35.7 Q-5.9 -35.3 -6.5 -35.2 L-7.2 -35.0 -7.8 -34.9 -8.15 -35.1 -8.3 -35.5 -8.35 -35.95 -9.0 -38.75 -9.05 -39.15 -9.55 -41.1 Q-9.55 -41.45 -9.9 -41.55 L-10.85 -41.5 -11.1 -41.4 -11.3 -41.35 Q-11.8 -41.2 -11.9 -41.7 L-12.15 -42.85 Q-12.25 -43.2 -11.75 -43.35 L-8.8 -44.0 -8.5 -44.1 -8.25 -44.15 -7.95 -44.25" fill="#ffd245" fill-rule="evenodd" stroke="none"/>
    <path d="M-7.95 -44.25 L-8.25 -44.15 -8.5 -44.1 -8.8 -44.0 -11.75 -43.35 Q-12.25 -43.2 -12.15 -42.85 L-11.9 -41.7 Q-11.85 -41.35 -11.4 -41.35 L-11.3 -41.35 -11.1 -41.4 -10.85 -41.5 -10.15 -41.6 -9.9 -41.55 Q-9.55 -41.45 -9.55 -41.1 L-9.5 -40.95 -9.05 -39.15 -9.0 -38.75 -8.35 -35.95 -8.3 -35.5 -8.15 -35.1 -7.85 -34.9 -7.8 -34.9 -6.5 -35.2 Q-5.9 -35.3 -6.0 -35.7 L-6.15 -36.15 -6.3 -37.05 -6.5 -37.55 -6.7 -38.6 -7.0 -39.7 -7.05 -40.1 -7.2 -40.5 -7.4 -41.75 -7.25 -42.05 -6.35 -42.45 -5.9 -42.55 Q-5.5 -42.75 -5.6 -43.05 L-5.7 -43.25 -5.7 -43.45 -6.0 -44.4 -6.25 -44.6 -6.35 -44.6 -6.45 -44.55 -7.95 -44.25 M-12.75 -43.95 L-11.95 -44.35 -10.6 -44.65 -9.95 -44.75 -9.7 -44.85 -9.1 -45.0 -8.95 -45.0 -8.75 -45.1 -8.55 -45.1 -8.5 -45.15 -8.35 -45.15 -8.2 -45.2 -7.9 -45.25 -7.8 -45.25 -7.75 -45.3 -7.55 -45.35 -7.2 -45.4 -7.05 -45.4 -7.0 -45.45 -6.7 -45.55 -6.35 -45.6 -6.2 -45.55 -6.1 -45.55 Q-5.5 -45.55 -5.15 -44.95 L-4.9 -44.2 -4.75 -43.65 -4.7 -43.55 -4.7 -43.5 -4.65 -43.3 Q-4.4 -42.25 -5.5 -41.65 L-5.55 -41.65 -6.1 -41.5 -6.35 -41.4 -6.2 -40.75 -6.15 -40.6 -5.95 -39.6 -5.8 -39.2 -5.75 -38.85 -5.6 -38.4 -5.55 -38.0 -5.2 -36.7 -5.2 -36.5 -5.1 -36.2 -5.05 -35.95 Q-4.95 -35.4 -5.2 -34.9 -5.55 -34.4 -6.3 -34.2 L-6.65 -34.15 -6.75 -34.1 -7.25 -34.0 -7.35 -34.0 -7.55 -33.9 -7.85 -33.9 Q-8.65 -33.9 -9.05 -34.6 L-9.25 -35.2 -9.25 -35.3 -9.3 -35.6 -9.35 -35.75 -9.8 -37.65 -9.85 -38.0 -9.9 -38.2 -9.9 -38.3 -10.4 -40.4 -10.45 -40.55 -10.6 -40.5 -10.7 -40.5 -11.05 -40.35 -11.4 -40.35 Q-12.6 -40.35 -12.9 -41.5 L-12.95 -41.65 -13.0 -42.05 -13.15 -42.6 Q-13.3 -43.4 -12.75 -43.95" fill="#b07f00" fill-rule="evenodd" stroke="none"/>
    <path d="M1.45 -43.3 L1.6 -42.55 1.7 -42.35 2.2 -40.6 2.25 -40.2 2.35 -40.0 2.5 -39.5 2.55 -39.1 2.65 -38.85 2.8 -38.2 2.9 -37.95 3.2 -36.95 3.3 -36.7 3.35 -36.35 Q3.35 -36.15 2.8 -36.05 L2.05 -36.0 1.3 -36.1 Q1.1 -36.15 1.0 -36.5 L0.8 -37.0 0.4 -37.35 -0.4 -37.4 -0.8 -37.4 -1.2 -37.3 -1.75 -37.05 -2.0 -36.25 -2.15 -36.0 Q-2.3 -35.85 -2.6 -35.85 L-3.2 -35.85 -3.6 -35.8 -4.0 -35.85 -4.25 -36.25 -3.95 -37.75 -3.95 -38.35 -3.7 -39.45 -3.65 -40.05 -3.45 -41.05 -3.3 -41.45 -3.15 -42.5 -3.1 -42.7 -3.1 -42.9 -2.95 -43.55 -2.65 -44.65 Q-2.45 -45.0 -1.9 -45.0 L-1.6 -45.0 -0.25 -45.1 0.7 -44.9 1.15 -44.25 1.45 -43.3 M-0.45 -42.3 L-0.75 -42.55 -0.95 -42.4 -1.2 -41.55 -1.45 -39.95 Q-1.45 -39.35 -0.6 -39.35 L0.0 -39.45 0.25 -39.8 0.2 -39.95 -0.2 -41.55 -0.45 -42.3" fill="#ffd245" fill-rule="evenodd" stroke="none"/>
    <path d="M-0.45 -42.3 L0.05 -40.75 0.2 -39.95 0.25 -39.8 0.0 -39.45 -0.6 -39.35 -0.7 -39.35 Q-1.45 -39.35 -1.45 -39.95 L-1.2 -41.55 -0.95 -42.4 -0.75 -42.55 -0.45 -42.3 M-1.9 -45.0 Q-2.45 -45.0 -2.65 -44.65 L-2.95 -43.55 -3.1 -42.9 -3.1 -42.7 -3.15 -42.5 -3.3 -41.45 -3.45 -41.05 -3.65 -40.05 -3.7 -39.45 -3.95 -38.35 -3.95 -37.75 -4.25 -36.25 -4.0 -35.85 -3.6 -35.8 -3.2 -35.85 -2.6 -35.85 Q-2.3 -35.85 -2.15 -36.0 L-2.0 -36.25 -1.75 -37.05 -1.2 -37.3 -0.8 -37.4 0.4 -37.35 0.8 -37.0 1.0 -36.5 Q1.2 -36.0 1.8 -36.0 L2.8 -36.05 Q3.35 -36.15 3.35 -36.35 L3.3 -36.7 3.2 -36.95 2.9 -37.95 2.8 -38.2 2.65 -38.85 2.55 -39.1 2.5 -39.5 2.35 -40.0 2.25 -40.2 2.2 -40.6 1.7 -42.35 1.6 -42.55 1.45 -43.3 1.15 -44.25 0.7 -44.9 0.0 -45.1 -0.25 -45.1 -1.45 -45.0 -1.9 -45.0 M-3.95 -43.45 L-3.95 -43.65 -3.55 -45.05 Q-3.1 -45.95 -1.95 -46.0 L-0.45 -46.05 -0.4 -46.1 0.0 -46.1 Q0.65 -46.1 1.3 -45.7 1.85 -45.35 2.1 -44.55 L2.25 -44.0 2.3 -43.9 2.55 -43.0 2.55 -42.85 2.6 -42.85 2.6 -42.8 2.65 -42.7 2.65 -42.65 2.9 -41.85 2.9 -41.75 3.2 -40.8 3.2 -40.5 3.3 -40.35 3.3 -40.25 3.35 -40.2 3.5 -39.45 3.5 -39.35 3.6 -39.15 3.8 -38.35 3.8 -38.3 4.1 -37.35 4.15 -37.3 4.25 -36.95 4.25 -37.0 4.35 -36.4 Q4.35 -35.15 2.8 -35.05 L2.55 -35.05 2.1 -35.0 1.8 -35.0 Q0.55 -35.0 0.05 -36.15 L0.0 -36.35 -0.05 -36.4 -0.75 -36.4 -0.95 -36.35 -1.0 -36.35 -1.0 -36.2 Q-1.0 -35.7 -1.4 -35.3 -1.85 -34.85 -2.55 -34.85 L-3.25 -34.85 -3.6 -34.8 -4.6 -35.05 Q-5.15 -35.45 -5.25 -36.2 L-5.1 -36.9 -5.1 -37.1 -5.05 -37.3 -5.05 -37.4 -5.0 -37.75 -4.95 -37.9 -4.95 -38.15 -4.9 -38.4 -4.9 -38.5 -4.7 -39.55 -4.7 -39.65 -4.35 -41.45 -4.3 -41.6 -4.1 -42.8 -4.1 -42.85 -4.0 -43.4 -3.95 -43.45" fill="#b07f00" fill-rule="evenodd" stroke="none"/>
    <path d="M5.9 -44.9 L6.0 -44.85 6.25 -44.85 6.8 -44.7 7.15 -44.55 7.35 -44.35 7.9 -43.05 8.0 -42.9 8.6 -41.35 9.05 -40.1 9.4 -39.3 9.6 -39.85 9.85 -41.3 10.0 -41.85 10.25 -43.75 10.5 -44.05 11.2 -43.95 11.4 -43.85 11.65 -43.8 11.9 -43.8 12.15 -43.75 Q12.45 -43.75 12.4 -43.25 L11.05 -36.1 10.95 -35.2 Q10.95 -34.75 10.4 -34.85 L10.2 -34.9 9.95 -34.9 9.2 -35.05 Q8.9 -35.1 8.7 -35.7 L7.75 -38.1 7.65 -38.4 7.45 -38.8 7.15 -39.55 7.0 -40.15 6.9 -40.35 6.7 -40.5 6.5 -40.25 6.3 -39.6 6.1 -38.35 6.05 -38.15 5.95 -37.15 5.85 -36.7 5.85 -36.6 5.8 -36.15 Q5.8 -35.8 5.4 -35.8 L5.15 -35.85 4.75 -35.85 4.05 -35.95 3.7 -36.1 3.6 -36.45 4.5 -41.2 4.95 -44.0 4.95 -44.15 5.05 -44.85 5.35 -45.0 5.6 -44.95 5.7 -44.9 5.9 -44.9" fill="#ffd245" fill-rule="evenodd" stroke="none"/>
    <path d="M5.7 -44.9 L5.6 -44.95 5.35 -45.0 5.3 -45.0 5.05 -44.85 4.95 -44.15 4.95 -44.0 4.9 -43.8 4.5 -41.2 3.6 -36.45 3.7 -36.1 4.05 -35.95 4.75 -35.85 5.15 -35.85 5.4 -35.8 Q5.8 -35.8 5.8 -36.15 L5.85 -36.6 5.85 -36.7 5.95 -37.15 6.05 -38.15 6.1 -38.35 6.3 -39.6 6.5 -40.25 6.65 -40.5 6.7 -40.5 6.9 -40.35 7.0 -40.15 7.15 -39.55 7.65 -38.4 7.75 -38.1 8.7 -35.7 Q8.9 -35.1 9.2 -35.05 L9.95 -34.9 10.2 -34.9 10.55 -34.8 Q10.95 -34.8 10.95 -35.2 L11.05 -36.1 12.4 -43.25 Q12.45 -43.75 12.15 -43.75 L11.9 -43.8 11.65 -43.8 11.4 -43.85 11.2 -43.95 10.55 -44.05 10.5 -44.05 10.25 -43.75 10.0 -41.85 9.85 -41.3 9.6 -39.85 9.4 -39.3 9.05 -40.1 8.6 -41.35 8.0 -42.9 7.9 -43.05 7.35 -44.35 7.15 -44.55 6.8 -44.7 6.25 -44.85 6.0 -44.85 5.9 -44.9 5.7 -44.9 M6.1 -45.85 L6.35 -45.85 6.45 -45.8 6.6 -45.8 7.65 -45.45 8.2 -44.9 8.9 -43.3 8.95 -43.15 9.05 -43.05 9.05 -42.95 9.1 -42.85 9.2 -43.4 9.25 -43.55 9.25 -43.95 Q9.4 -44.85 10.3 -45.0 L10.45 -45.05 10.55 -45.05 11.65 -44.85 11.8 -44.8 12.05 -44.8 12.3 -44.75 13.15 -44.2 Q13.5 -43.7 13.4 -43.05 L13.05 -41.5 13.0 -41.05 12.9 -40.65 12.9 -40.6 12.75 -39.85 12.65 -39.55 12.6 -39.25 12.6 -38.9 12.15 -36.5 12.15 -36.45 12.1 -36.35 12.1 -36.3 12.05 -36.15 12.05 -35.95 11.95 -35.0 Q11.75 -33.8 10.55 -33.8 L10.0 -33.9 9.8 -33.95 9.5 -34.0 9.35 -34.05 9.05 -34.05 Q8.15 -34.25 7.75 -35.4 L7.7 -35.65 7.6 -35.8 7.0 -37.35 6.95 -37.45 6.95 -37.3 6.85 -36.6 6.85 -36.3 6.8 -35.95 Q6.7 -35.45 6.25 -35.1 5.8 -34.8 5.4 -34.8 L5.05 -34.85 4.75 -34.85 4.35 -34.9 4.15 -34.95 3.85 -34.95 3.0 -35.4 Q2.5 -35.9 2.65 -36.65 L2.65 -36.7 2.7 -37.15 2.75 -37.3 2.9 -38.0 2.9 -38.15 3.15 -39.3 3.15 -39.6 3.2 -40.0 3.45 -41.0 3.45 -41.1 3.6 -42.05 3.6 -42.1 3.85 -43.7 3.9 -43.85 3.9 -43.95 3.95 -44.0 3.95 -44.3 4.0 -44.4 4.0 -44.75 4.2 -45.3 Q4.5 -46.0 5.3 -46.0 L5.55 -46.0 5.8 -45.9 6.0 -45.9 6.1 -45.85" fill="#b07f00" fill-rule="evenodd" stroke="none"/>
    <path d="M21.4 -39.05 L21.3 -38.85 21.15 -38.4 Q21.0 -38.1 20.7 -38.25 L20.35 -38.45 20.15 -38.6 19.9 -38.7 19.45 -39.0 18.5 -39.5 17.95 -39.65 17.65 -39.7 17.0 -39.7 Q16.4 -39.6 16.15 -39.35 L15.75 -38.95 15.25 -38.05 15.2 -37.9 15.2 -37.7 15.15 -37.5 15.15 -37.4 15.05 -37.05 15.35 -36.05 16.25 -34.9 16.95 -34.55 17.65 -34.6 17.9 -35.05 18.1 -35.5 18.05 -35.9 17.5 -36.2 Q17.25 -36.35 17.4 -36.65 L17.85 -37.65 Q18.05 -38.15 18.4 -37.95 L19.1 -37.65 19.45 -37.45 20.15 -37.2 20.65 -36.65 20.35 -35.85 19.45 -33.65 19.3 -33.4 19.2 -33.15 18.8 -32.35 18.55 -31.9 17.95 -31.75 16.15 -32.5 16.1 -32.5 14.45 -33.65 14.15 -33.95 13.2 -35.45 Q12.95 -35.95 12.95 -36.5 L12.9 -37.55 13.0 -38.2 13.4 -39.5 13.8 -40.2 14.45 -40.95 15.2 -41.45 16.5 -41.8 16.95 -41.85 17.6 -41.85 18.65 -41.55 20.5 -40.8 21.55 -40.0 21.55 -39.45 21.4 -39.05" fill="#ffd245" fill-rule="evenodd" stroke="none"/>
    <path d="M16.15 -37.5 L16.15 -37.35 16.1 -37.05 16.1 -36.95 16.35 -36.3 16.5 -37.05 16.85 -37.8 16.85 -37.85 16.95 -38.05 17.45 -38.7 17.15 -38.7 16.85 -38.6 16.8 -38.55 16.75 -38.55 16.7 -38.5 16.6 -38.45 16.55 -38.35 16.2 -37.7 16.15 -37.5 M21.4 -39.05 L21.55 -39.45 21.55 -40.0 20.5 -40.8 18.65 -41.55 17.6 -41.85 16.95 -41.85 16.5 -41.8 15.2 -41.45 14.45 -40.95 13.8 -40.2 13.4 -39.5 13.0 -38.2 12.9 -37.55 12.95 -36.5 Q12.95 -35.95 13.2 -35.45 L14.15 -33.95 14.45 -33.65 16.1 -32.5 16.15 -32.5 17.95 -31.75 18.1 -31.75 18.55 -31.9 18.8 -32.35 19.2 -33.15 19.3 -33.4 19.45 -33.65 20.35 -35.85 20.65 -36.65 20.15 -37.2 19.45 -37.45 19.1 -37.65 18.3 -38.0 Q18.0 -38.0 17.85 -37.65 L17.4 -36.65 Q17.25 -36.35 17.5 -36.2 L18.05 -35.9 18.1 -35.5 17.9 -35.05 17.65 -34.6 17.35 -34.45 16.95 -34.55 16.25 -34.9 15.35 -36.05 15.05 -37.05 15.15 -37.4 15.15 -37.5 15.2 -37.7 15.2 -37.9 15.25 -38.05 15.75 -38.95 16.15 -39.35 Q16.4 -39.6 17.0 -39.7 L17.65 -39.7 17.95 -39.65 18.5 -39.5 19.45 -39.0 19.9 -38.7 20.15 -38.6 20.35 -38.45 20.7 -38.25 20.85 -38.2 21.15 -38.4 21.3 -38.85 21.4 -39.05 M19.8 -42.15 L20.3 -42.0 20.95 -41.7 Q22.05 -41.2 22.4 -40.45 22.8 -39.8 22.5 -39.05 L22.4 -38.8 22.3 -38.65 22.25 -38.45 22.15 -38.3 22.05 -38.0 21.45 -37.35 21.65 -36.55 21.25 -35.45 20.95 -34.65 20.8 -34.4 20.5 -33.6 20.45 -33.55 20.35 -33.25 20.25 -33.05 20.2 -33.0 20.2 -32.95 20.1 -32.7 19.7 -31.9 19.25 -31.2 19.15 -31.1 Q18.7 -30.75 18.1 -30.75 L17.75 -30.8 16.7 -31.2 16.25 -31.4 16.15 -31.4 15.7 -31.6 14.75 -32.15 13.75 -32.95 13.45 -33.25 13.45 -33.3 13.4 -33.3 12.25 -35.1 Q11.95 -35.9 11.95 -36.4 L11.95 -36.5 11.9 -36.8 11.9 -37.65 12.15 -38.85 12.5 -39.85 12.95 -40.75 13.85 -41.75 14.75 -42.35 16.4 -42.8 16.7 -42.85 17.75 -42.85 19.45 -42.3 19.55 -42.3 19.6 -42.25 19.8 -42.2 19.8 -42.15" fill="#b07f00" fill-rule="evenodd" stroke="none"/>
    <path d="M25.75 -37.6 Q26.15 -37.35 25.9 -36.95 L25.55 -36.6 25.35 -36.25 22.5 -32.1 Q22.25 -31.65 22.45 -31.4 L24.4 -30.05 Q24.7 -29.85 24.5 -29.5 L24.3 -29.25 24.0 -28.95 23.75 -28.45 23.0 -28.4 21.0 -29.8 20.75 -29.95 19.55 -30.8 Q19.0 -31.15 19.5 -31.65 L20.7 -33.35 21.0 -33.85 21.25 -34.15 22.95 -36.7 23.2 -37.0 23.35 -37.25 23.8 -37.85 24.05 -38.3 24.6 -38.4 25.75 -37.6" fill="#ffd245" fill-rule="evenodd" stroke="none"/>
    <path d="M24.6 -38.4 L24.4 -38.45 Q24.05 -38.45 24.05 -38.3 L23.8 -37.85 23.35 -37.25 23.2 -37.0 22.95 -36.7 21.25 -34.15 21.0 -33.85 20.7 -33.35 19.5 -31.65 Q19.0 -31.15 19.55 -30.8 L20.75 -29.95 23.0 -28.4 23.4 -28.25 23.75 -28.45 24.0 -28.95 24.3 -29.25 24.5 -29.5 Q24.7 -29.85 24.4 -30.05 L22.45 -31.4 Q22.25 -31.65 22.5 -32.1 L25.1 -35.95 25.35 -36.25 25.55 -36.6 25.9 -36.95 Q26.15 -37.35 25.75 -37.6 L24.6 -38.4 M26.0 -38.65 L26.05 -38.65 26.15 -38.55 26.35 -38.45 27.0 -37.5 Q27.1 -36.9 26.7 -36.4 L26.4 -36.0 26.3 -35.9 26.25 -35.8 26.15 -35.7 26.05 -35.5 25.95 -35.35 25.9 -35.35 25.9 -35.3 25.7 -35.05 23.8 -32.35 23.5 -31.85 23.65 -31.75 23.75 -31.7 24.6 -31.1 24.65 -31.05 24.95 -30.9 Q25.45 -30.55 25.55 -30.0 25.65 -29.4 25.3 -28.95 L25.05 -28.6 25.1 -28.7 24.9 -28.45 24.8 -28.35 24.55 -27.9 Q24.15 -27.25 23.4 -27.25 22.85 -27.25 22.45 -27.6 L21.4 -28.25 20.8 -28.75 20.65 -28.8 20.45 -28.95 20.3 -29.1 20.1 -29.2 19.65 -29.5 19.45 -29.65 18.95 -29.95 Q18.45 -30.3 18.35 -30.9 18.25 -31.6 18.65 -32.2 L18.9 -32.5 20.4 -34.75 20.45 -34.8 21.05 -35.65 21.15 -35.75 21.25 -35.95 21.45 -36.2 21.6 -36.45 21.75 -36.6 22.15 -37.3 22.25 -37.4 22.35 -37.55 22.4 -37.6 22.55 -37.85 22.75 -38.1 22.85 -38.3 22.95 -38.4 23.05 -38.55 23.2 -38.85 Q23.6 -39.45 24.4 -39.45 L25.15 -39.2 26.0 -38.65" fill="#b07f00" fill-rule="evenodd" stroke="none"/>
    <path d="M30.5 -34.05 L32.2 -32.4 32.9 -31.85 33.45 -31.25 33.85 -30.9 Q34.15 -30.55 33.85 -30.25 L33.55 -30.0 33.15 -29.55 Q33.05 -29.4 32.85 -29.4 L32.6 -29.4 31.55 -30.35 31.1 -30.85 30.5 -31.3 Q30.25 -31.35 30.0 -31.05 L29.55 -30.55 29.65 -30.1 31.3 -28.5 31.55 -28.2 31.45 -27.75 31.15 -27.55 30.8 -27.15 30.6 -27.0 29.85 -27.05 28.7 -28.25 28.4 -28.5 28.3 -28.6 28.05 -28.7 Q27.8 -28.8 27.5 -28.5 L27.0 -27.8 Q27.0 -27.45 27.5 -26.95 L28.9 -25.65 29.1 -25.1 28.8 -24.65 28.75 -24.6 28.55 -24.25 28.3 -24.05 Q28.05 -23.7 27.7 -24.05 L27.4 -24.35 26.9 -24.75 26.5 -25.2 24.2 -27.4 24.0 -27.75 24.2 -28.25 24.75 -28.8 24.9 -29.0 25.85 -30.0 26.1 -30.2 27.4 -31.6 27.6 -31.75 27.85 -32.0 28.2 -32.45 29.55 -33.8 29.95 -34.15 30.5 -34.05" fill="#ffd245" fill-rule="evenodd" stroke="none"/>
    <path d="M30.2 -34.2 L29.95 -34.15 29.55 -33.8 28.2 -32.45 27.85 -32.0 27.6 -31.75 27.4 -31.6 26.1 -30.2 25.85 -30.0 24.9 -29.0 24.75 -28.8 24.2 -28.25 24.0 -27.75 24.2 -27.4 26.5 -25.2 26.9 -24.75 27.4 -24.35 27.7 -24.05 28.0 -23.85 28.3 -24.05 28.55 -24.25 28.75 -24.6 28.8 -24.65 29.1 -25.1 28.9 -25.65 27.5 -26.95 Q27.0 -27.45 27.0 -27.8 L27.5 -28.5 27.95 -28.75 28.3 -28.6 28.4 -28.5 28.7 -28.25 29.85 -27.05 30.3 -26.85 30.6 -27.0 30.8 -27.15 31.15 -27.55 31.45 -27.75 31.55 -28.2 31.3 -28.5 29.65 -30.1 29.55 -30.55 30.0 -31.05 30.4 -31.3 31.1 -30.85 31.55 -30.35 32.6 -29.4 32.75 -29.35 32.85 -29.4 Q33.05 -29.4 33.15 -29.55 L33.55 -30.0 33.85 -30.25 Q34.15 -30.55 33.85 -30.9 L33.45 -31.25 32.9 -31.85 32.2 -32.4 30.5 -34.05 30.2 -34.2 M31.2 -34.8 L31.55 -34.45 31.8 -34.25 33.2 -32.85 33.6 -32.55 34.3 -31.8 34.55 -31.6 Q35.55 -30.6 34.55 -29.55 L34.3 -29.3 34.15 -29.1 33.9 -28.85 Q33.55 -28.5 33.0 -28.4 L32.75 -28.35 32.55 -28.4 Q32.7 -27.6 32.15 -27.05 L31.5 -26.45 31.3 -26.3 31.2 -26.2 Q30.85 -25.85 30.3 -25.85 L29.95 -25.9 30.1 -24.8 29.55 -23.95 29.5 -23.95 29.5 -23.9 29.35 -23.65 29.3 -23.6 29.25 -23.6 29.0 -23.35 Q28.55 -22.85 28.0 -22.85 27.45 -22.85 27.0 -23.3 L26.75 -23.55 26.7 -23.65 26.25 -24.0 26.15 -24.15 26.0 -24.25 26.0 -24.3 25.95 -24.3 25.8 -24.45 25.8 -24.5 25.4 -24.8 24.55 -25.7 24.5 -25.7 23.5 -26.65 Q23.15 -27.0 23.0 -27.65 23.0 -28.45 23.5 -28.9 L23.65 -29.1 23.75 -29.15 23.85 -29.3 24.05 -29.5 24.2 -29.7 24.9 -30.45 25.15 -30.65 25.3 -30.85 25.4 -30.9 25.55 -31.1 25.75 -31.3 25.9 -31.5 26.1 -31.65 27.05 -32.65 27.15 -32.7 27.25 -32.85 27.75 -33.4 28.4 -34.0 28.8 -34.5 Q29.25 -34.95 29.65 -35.1 L30.2 -35.2 Q30.8 -35.2 31.2 -34.8" fill="#b07f00" fill-rule="evenodd" stroke="none"/>
    <path d="M29.0 -24.05 L31.55 -25.8 32.0 -26.2 32.35 -26.35 34.4 -27.75 35.1 -28.3 35.85 -28.45 36.6 -27.5 36.75 -27.2 37.4 -26.3 37.55 -26.05 37.7 -25.9 37.8 -25.7 37.9 -25.55 38.15 -25.05 38.3 -24.55 38.3 -24.35 38.4 -24.15 38.4 -23.95 38.45 -23.75 Q38.55 -22.35 37.9 -21.3 L37.4 -20.6 36.7 -19.9 36.4 -19.7 36.0 -19.45 35.35 -19.1 34.75 -18.9 34.5 -18.85 34.2 -18.75 32.55 -18.85 31.85 -19.15 31.25 -19.55 30.9 -19.9 29.6 -21.55 29.6 -21.6 28.75 -22.9 Q28.25 -23.6 28.65 -23.85 L29.0 -24.05 M34.5 -25.2 L31.75 -23.3 Q31.2 -22.85 31.95 -21.75 L32.15 -21.5 32.9 -20.95 Q33.4 -20.75 34.2 -20.95 L35.0 -21.3 35.45 -21.65 35.9 -22.1 36.1 -22.6 36.2 -23.2 36.25 -23.75 35.75 -24.85 35.5 -25.2 35.25 -25.35 34.5 -25.2" fill="#ffd245" fill-rule="evenodd" stroke="none"/>
    <path d="M33.3 -21.85 L33.45 -21.85 34.45 -22.1 34.75 -22.35 34.85 -22.45 35.0 -22.65 35.05 -22.7 35.2 -23.05 35.2 -23.3 35.25 -23.65 34.95 -24.3 34.65 -24.1 34.6 -24.05 32.55 -22.65 32.8 -22.3 32.85 -22.2 33.3 -21.85 M34.5 -25.2 L35.0 -25.35 35.25 -25.35 35.5 -25.2 35.75 -24.85 36.25 -23.75 36.2 -23.2 36.1 -22.6 35.9 -22.1 35.45 -21.65 35.0 -21.3 Q34.55 -20.85 33.45 -20.85 L32.9 -20.95 32.15 -21.5 31.95 -21.75 Q31.2 -22.85 31.75 -23.3 L34.5 -25.2 M29.0 -24.05 L28.65 -23.85 Q28.25 -23.6 28.75 -22.9 L29.6 -21.6 29.6 -21.55 30.9 -19.9 31.25 -19.55 31.85 -19.15 32.55 -18.85 33.5 -18.75 34.2 -18.75 34.5 -18.85 34.75 -18.9 35.35 -19.1 36.0 -19.45 36.4 -19.7 36.7 -19.9 37.4 -20.6 37.9 -21.3 Q38.55 -22.35 38.45 -23.75 L38.4 -23.95 38.4 -24.15 38.3 -24.35 38.3 -24.55 38.15 -25.05 37.9 -25.55 37.8 -25.7 37.7 -25.9 37.55 -26.05 37.4 -26.3 36.75 -27.2 36.6 -27.5 35.85 -28.45 35.65 -28.5 35.1 -28.3 34.4 -27.75 32.35 -26.35 32.0 -26.2 31.55 -25.8 29.0 -24.05 M39.3 -24.55 L39.4 -24.1 39.45 -23.95 39.45 -23.9 Q39.65 -22.2 38.75 -20.8 L38.2 -19.95 37.25 -19.1 37.1 -18.95 36.95 -18.9 36.85 -18.8 36.6 -18.6 Q36.25 -18.35 35.75 -18.2 L34.95 -17.9 34.7 -17.85 34.65 -17.85 34.4 -17.8 34.35 -17.8 34.3 -17.75 33.5 -17.75 32.35 -17.9 Q31.7 -18.05 31.35 -18.3 L31.3 -18.3 31.3 -18.35 30.75 -18.7 30.7 -18.75 30.65 -18.75 30.25 -19.15 Q29.9 -19.4 28.8 -20.95 L28.75 -21.0 27.9 -22.35 Q27.3 -23.25 27.55 -24.0 L28.1 -24.7 28.3 -24.8 29.6 -25.75 29.7 -25.8 30.95 -26.6 31.65 -27.15 31.8 -27.2 32.35 -27.55 33.6 -28.45 34.15 -28.8 34.55 -29.15 35.65 -29.5 36.4 -29.3 37.4 -28.05 37.5 -27.95 37.6 -27.75 37.65 -27.7 37.75 -27.5 38.25 -26.9 38.35 -26.7 38.4 -26.65 38.4 -26.6 38.55 -26.45 38.6 -26.3 38.65 -26.2 38.7 -26.15 39.15 -25.2 39.15 -25.15 39.25 -24.8 39.3 -24.7 39.3 -24.55" fill="#b07f00" fill-rule="evenodd" stroke="none"/>
  </g>
</svg>
