<?xml version="1.0" encoding="UTF-8" standalone="no"?>
<svg xmlns:ffdec="https://www.free-decompiler.com/flash" xmlns:xlink="http://www.w3.org/1999/xlink" ffdec:objectType="shape" height="93.85px" width="66.55px" xmlns="http://www.w3.org/2000/svg">
  <g transform="matrix(1.0, 0.0, 0.0, 1.0, 33.25, 46.95)">
    <path d="M-17.0 -25.55 Q-10.25 -26.55 -4.85 -23.45 L-1.15 -31.9 2.35 -23.6 Q6.9 -26.75 15.55 -25.75 8.8 -21.9 3.9 -16.25 L9.05 -15.6 Q13.75 -14.8 15.2 -12.7 16.7 -10.6 15.3 -3.25 13.9 4.05 10.75 12.7 7.55 21.35 4.3 27.4 1.0 33.4 -2.05 33.4 -5.1 33.4 -8.1 27.35 -11.1 21.25 -13.6 12.65 -16.15 4.0 -17.45 -3.25 -18.75 -10.5 -17.35 -12.7 -16.0 -14.85 -11.5 -15.6 L-6.95 -16.15 Q-10.7 -21.1 -17.0 -25.55" fill="#d3a000" fill-rule="evenodd" stroke="none"/>
    <path d="M-2.7 -24.95 L1.0 -33.4 4.5 -25.15 Q9.05 -28.25 17.7 -27.25 10.0 -22.9 4.7 -16.15 L-3.75 -16.15 Q-7.6 -21.95 -14.85 -27.05 -8.1 -28.1 -2.7 -24.95" fill="#d4a001" fill-rule="evenodd" stroke="none"/>
    <path d="M-2.7 -24.95 L1.0 -33.4 4.5 -25.15 Q9.05 -28.25 17.7 -27.25 10.0 -22.9 4.7 -16.15 L-3.75 -16.15 Q-7.6 -21.95 -14.85 -27.05 -8.1 -28.1 -2.7 -24.95 Z" fill="none" stroke="#b07f00" stroke-linecap="round" stroke-linejoin="round" stroke-width="1.0"/>
    <path d="M0.8 -17.9 L11.2 -17.15 Q15.9 -16.3 17.35 -14.2 18.85 -12.1 17.45 -4.8 16.05 2.55 12.9 11.2 9.7 19.85 6.45 25.85 3.15 31.9 0.05 31.9 -2.95 31.9 -5.95 25.85 -8.95 19.75 -11.45 11.1 -14.0 2.5 -15.3 -4.75 -16.6 -12.05 -15.2 -14.2 -13.85 -16.35 -9.35 -17.1 L0.8 -17.9" fill="#ffc200" fill-rule="evenodd" stroke="none"/>
    <path d="M0.8 -17.9 L11.2 -17.15 Q15.9 -16.3 17.35 -14.2 18.85 -12.1 17.45 -4.8 16.05 2.55 12.9 11.2 9.7 19.85 6.45 25.85 3.15 31.9 0.05 31.9 -2.95 31.9 -5.95 25.85 -8.95 19.75 -11.45 11.1 -14.0 2.5 -15.3 -4.75 -16.6 -12.05 -15.2 -14.2 -13.85 -16.35 -9.35 -17.1 L0.8 -17.9 Z" fill="none" stroke="#b07f00" stroke-linecap="round" stroke-linejoin="round" stroke-width="1.0"/>
    <path d="M-8.2 -13.35 Q-6.35 -13.35 -5.1 -12.05 -3.8 -10.75 -3.8 -8.95 -3.8 -7.1 -5.1 -5.85 -6.35 -4.55 -8.2 -4.55 -10.0 -4.55 -11.3 -5.85 -12.6 -7.1 -12.6 -8.95 -12.6 -10.75 -11.3 -12.05 -10.0 -13.35 -8.2 -13.35" fill="#ffd245" fill-rule="evenodd" stroke="none"/>
    <path d="M-6.45 2.45 Q-7.05 3.1 -8.0 3.1 -8.9 3.1 -9.55 2.45 -10.15 1.85 -10.15 0.9 -10.15 0.0 -9.55 -0.65 -8.9 -1.25 -8.0 -1.25 -7.05 -1.25 -6.45 -0.65 -5.8 0.0 -5.8 0.9 -5.8 1.85 -6.45 2.45" fill="#ffd245" fill-rule="evenodd" stroke="none"/>
    <path d="M2.85 1.95 Q3.9 -8.7 6.4 -11.7 8.9 -14.75 11.35 -13.95 13.8 -13.25 13.6 -7.45 13.35 -1.75 10.55 7.05 7.8 15.75 5.3 21.6 2.8 27.35 1.85 27.1 0.9 26.85 1.35 19.7 1.75 12.55 2.85 1.95" fill="#ffd245" fill-rule="evenodd" stroke="none"/>
    <path d="M-12.9 -2.8 L14.55 -2.8" fill="none" stroke="#d4a001" stroke-linecap="round" stroke-linejoin="round" stroke-width="1.0"/>
    <path d="M-7.8 13.75 L9.25 13.75" fill="none" stroke="#d4a001" stroke-linecap="round" stroke-linejoin="round" stroke-width="1.0"/>
    <path d="M-22.9 -39.5 Q-22.15 -39.5 -21.8 -38.85 L-21.65 -38.55 -21.55 -38.45 -19.95 -35.95 -19.8 -35.65 -19.7 -35.5 -19.15 -35.6 -18.9 -35.6 -18.8 -35.55 -18.05 -34.95 -17.8 -34.6 -17.7 -34.4 -17.65 -34.35 -17.65 -34.3 -17.55 -34.2 -17.45 -34.0 Q-16.85 -33.15 -17.7 -32.4 L-17.6 -32.2 -17.5 -32.05 -17.45 -32.0 -17.3 -31.8 Q-17.0 -31.3 -17.1 -30.8 -17.2 -30.25 -17.7 -30.0 L-18.5 -29.5 -18.6 -29.4 -18.85 -29.25 -19.55 -29.0 Q-20.25 -29.0 -20.65 -29.65 L-20.85 -29.95 -21.0 -30.25 -21.15 -30.2 -21.8 -29.8 -22.0 -29.65 -22.1 -29.65 -22.2 -29.55 -22.5 -29.35 -22.5 -29.3 -22.2 -29.0 Q-21.9 -28.65 -21.85 -28.1 L-22.05 -27.2 -22.5 -26.7 -23.85 -25.5 -24.0 -25.4 -24.3 -25.1 -24.55 -24.9 -24.85 -24.6 -24.85 -24.55 -25.3 -24.2 -25.6 -23.9 -25.8 -23.75 -25.9 -23.65 -26.0 -23.5 -26.2 -23.3 -26.35 -23.2 Q-26.7 -22.85 -27.2 -22.85 -27.7 -22.85 -28.2 -23.35 L-28.5 -23.65 -28.95 -24.55 -28.8 -25.95 -28.8 -26.0 -28.65 -26.75 -28.65 -27.15 -28.5 -27.95 -28.5 -28.15 -28.45 -28.35 -28.45 -28.5 -28.5 -28.75 -28.5 -29.0 -28.5 -29.6 -28.55 -29.9 -28.6 -29.95 -28.65 -30.05 -28.65 -30.2 -28.7 -30.2 -28.75 -30.25 -28.85 -30.4 -28.9 -30.45 -28.95 -30.45 -29.1 -30.4 -29.15 -30.4 -29.2 -30.3 -29.25 -30.25 -29.1 -30.15 -28.8 -29.6 -28.75 -29.55 -28.75 -29.5 Q-28.5 -28.65 -29.2 -28.05 L-29.45 -27.85 -29.55 -27.8 -29.65 -27.65 -29.85 -27.5 -29.85 -27.45 -29.95 -27.4 Q-30.25 -27.1 -30.8 -27.1 -31.5 -27.1 -32.1 -27.7 L-32.55 -28.25 -32.9 -28.9 -33.25 -30.2 -33.05 -31.6 -32.2 -32.95 -32.15 -33.0 -31.85 -33.25 -31.75 -33.4 -31.55 -33.55 -30.3 -34.35 -28.85 -34.6 -27.9 -34.45 -27.55 -34.35 -27.1 -34.15 -26.05 -33.3 -25.35 -32.3 -25.15 -31.9 -25.15 -32.55 -25.1 -32.65 -25.1 -35.35 -25.15 -35.75 -25.15 -37.2 -24.95 -38.25 -23.6 -39.3 -22.9 -39.5 M7.1 -38.8 L7.1 -38.85 6.45 -38.15 6.6 -38.1 6.8 -38.0 6.85 -37.9 6.85 -38.05 7.1 -38.8 M3.4 -41.35 L3.4 -41.0 3.3 -40.5 3.35 -40.55 3.5 -40.75 3.7 -41.2 3.7 -41.25 3.55 -41.3 3.5 -41.3 3.4 -41.35 M16.8 -39.3 L16.75 -39.25 16.7 -39.25 16.8 -39.3 M11.95 -39.45 L11.95 -39.55 11.85 -39.65 11.8 -39.65 11.7 -39.7 11.45 -38.85 11.5 -38.9 11.7 -39.05 11.95 -39.45 M18.45 -35.3 L18.2 -34.8 18.15 -34.6 18.1 -34.1 18.2 -33.65 18.25 -33.6 18.35 -33.45 18.4 -33.4 18.45 -33.4 18.5 -33.35 18.65 -33.25 18.7 -33.2 18.85 -33.1 19.3 -33.1 19.75 -33.3 19.85 -33.4 20.15 -33.65 20.35 -34.0 20.6 -34.4 20.65 -34.85 20.65 -34.95 20.6 -35.2 20.55 -35.35 20.55 -35.4 20.35 -35.7 20.0 -35.9 19.9 -35.95 19.75 -36.0 19.35 -36.0 19.25 -35.95 19.2 -35.95 18.85 -35.75 18.8 -35.7 18.65 -35.5 18.45 -35.3 M20.9 -40.05 L22.2 -39.5 22.9 -39.0 23.55 -38.4 23.65 -38.3 23.7 -38.2 24.25 -37.4 24.65 -36.35 24.7 -36.0 24.7 -35.9 24.75 -35.85 24.8 -35.7 24.8 -35.6 24.8 -34.85 24.75 -34.5 24.75 -33.95 24.55 -33.25 23.8 -31.6 23.1 -30.7 23.0 -30.65 22.35 -30.0 21.2 -29.35 19.6 -28.95 18.95 -28.95 17.9 -29.1 17.5 -29.25 17.45 -29.3 17.25 -29.35 16.0 -30.05 15.75 -30.25 15.15 -30.85 15.1 -30.95 14.95 -31.1 14.6 -31.6 14.1 -32.75 Q13.75 -31.9 12.75 -31.9 L12.3 -32.0 Q11.25 -32.3 10.8 -33.2 L10.15 -34.3 10.1 -34.1 Q9.8 -33.15 8.8 -33.15 L8.4 -33.2 8.05 -33.35 8.0 -33.4 7.95 -33.4 7.85 -33.45 7.75 -33.45 7.15 -33.6 6.9 -33.7 6.3 -34.05 5.6 -33.9 5.5 -33.9 Q4.85 -33.95 3.75 -34.8 L2.95 -35.8 2.95 -35.55 Q2.8 -34.35 1.6 -34.35 L1.45 -34.35 1.1 -34.45 0.85 -34.45 0.7 -34.5 0.7 -34.45 0.35 -34.5 0.15 -34.5 -0.55 -34.65 -1.0 -34.55 -2.3 -34.4 Q-3.3 -34.4 -3.85 -35.45 L-3.95 -35.7 -4.3 -35.7 -4.9 -35.6 -4.9 -35.45 Q-4.9 -35.0 -5.25 -34.55 -5.6 -34.1 -6.35 -34.0 L-6.65 -33.95 -7.1 -33.95 -7.35 -33.9 -7.45 -33.85 -7.5 -33.85 -8.2 -33.95 -8.25 -33.85 Q-8.5 -33.55 -9.05 -33.4 L-9.85 -33.15 -9.95 -33.15 -10.3 -33.05 -10.9 -33.0 -11.5 -33.05 -12.45 -33.3 -12.5 -33.3 -12.9 -33.5 -13.65 -33.8 -13.7 -33.85 -13.75 -33.85 -13.8 -33.9 -14.8 -34.75 -14.8 -34.8 -14.85 -34.8 -15.75 -36.2 -16.05 -36.95 -16.1 -37.15 -16.1 -37.2 -16.15 -37.35 -16.25 -37.55 -16.3 -37.9 -16.35 -38.1 -16.5 -39.2 -16.25 -40.7 -15.9 -41.55 -15.4 -42.4 -14.5 -43.2 Q-13.75 -43.7 -12.65 -44.05 L-11.85 -44.25 -11.7 -44.25 Q-10.75 -44.25 -10.35 -43.1 L-10.25 -42.6 -10.15 -42.4 -10.05 -42.1 -9.95 -41.45 -9.95 -41.3 -10.0 -41.2 Q-10.2 -40.55 -10.95 -40.3 L-11.25 -40.25 -11.4 -40.2 -11.5 -40.2 -12.15 -39.65 -12.3 -39.05 -12.1 -38.4 Q-11.9 -37.6 -11.0 -37.2 L-10.8 -37.15 -10.55 -37.2 -10.4 -37.25 -10.3 -37.3 -10.25 -37.3 -9.95 -37.45 -9.55 -37.5 -8.95 -37.35 -8.95 -37.45 -8.85 -38.35 -8.8 -38.55 -8.8 -38.85 -8.75 -39.2 -8.6 -40.3 -8.55 -40.5 -8.55 -40.6 -8.45 -41.8 -8.45 -41.9 -8.35 -42.4 -8.35 -42.45 -8.3 -42.55 -8.3 -42.7 Q-8.3 -45.0 -6.5 -45.15 L-5.05 -45.3 -4.95 -45.35 -4.4 -45.4 -3.25 -45.1 Q-2.65 -44.75 -2.35 -43.95 L-2.25 -43.65 -2.15 -43.45 -2.0 -43.05 -1.95 -43.0 -1.95 -42.95 -1.75 -42.3 -1.75 -42.25 -1.7 -42.2 -1.7 -42.15 -1.65 -42.1 -1.4 -41.35 -1.4 -41.25 -1.3 -41.05 -1.05 -40.3 -1.0 -40.25 -1.0 -40.0 -0.9 -39.85 -0.9 -40.05 -0.85 -40.3 -0.85 -40.65 -0.65 -41.9 -0.5 -43.45 -0.5 -43.65 -0.45 -43.95 Q-0.25 -45.65 1.05 -45.65 L1.25 -45.65 1.5 -45.6 1.55 -45.55 1.95 -45.55 2.2 -45.5 2.5 -45.5 2.9 -45.45 3.1 -45.4 3.6 -45.4 4.8 -45.2 4.95 -45.15 6.25 -44.55 6.3 -44.5 6.35 -44.5 6.35 -44.45 7.1 -43.8 7.15 -43.75 7.5 -43.1 Q7.9 -42.4 7.85 -41.45 L7.8 -41.25 7.8 -41.05 8.0 -41.5 8.4 -43.0 8.8 -43.85 Q9.25 -44.4 9.95 -44.4 L10.7 -44.2 10.75 -44.2 10.85 -44.15 11.1 -44.1 11.6 -43.9 12.0 -43.8 13.95 -43.1 13.85 -43.2 14.55 -42.75 14.65 -42.7 14.7 -42.6 15.1 -42.3 15.25 -42.15 15.8 -41.35 15.85 -41.3 15.85 -41.2 16.05 -40.6 Q16.35 -39.75 16.1 -38.95 L16.0 -38.7 16.15 -38.85 16.75 -39.25 17.0 -39.4 17.05 -39.4 17.15 -39.5 17.6 -39.75 17.95 -39.85 18.0 -39.9 18.1 -39.9 18.45 -40.05 18.95 -40.1 19.0 -40.15 19.2 -40.2 20.15 -40.15 20.4 -40.1 20.6 -40.1 20.9 -40.05 M28.0 -35.55 L28.25 -35.3 28.45 -35.15 29.5 -34.15 30.0 -33.75 30.2 -33.55 30.3 -33.5 30.5 -33.35 30.6 -33.2 30.65 -33.2 30.7 -33.1 30.9 -32.95 31.2 -32.65 31.35 -32.55 31.75 -32.15 32.0 -31.95 32.3 -31.55 32.35 -31.5 Q32.7 -30.95 32.4 -30.3 L31.95 -29.65 31.8 -29.5 31.6 -29.25 31.45 -29.1 31.35 -28.95 Q31.0 -28.5 30.3 -28.5 L29.55 -28.7 29.5 -28.75 29.0 -29.15 28.85 -29.3 28.35 -28.8 28.1 -28.45 27.1 -27.3 27.0 -27.2 26.8 -26.95 26.5 -26.65 26.35 -26.55 26.25 -26.4 25.65 -25.65 25.45 -25.5 25.4 -25.4 25.3 -25.3 25.1 -25.05 Q24.65 -24.6 24.1 -24.6 23.55 -24.6 22.95 -25.1 L22.7 -25.35 22.6 -25.4 22.45 -25.55 22.25 -25.8 22.2 -25.8 22.0 -25.95 Q21.25 -26.55 21.75 -27.55 L22.1 -28.05 22.15 -28.15 22.4 -28.35 22.5 -28.45 23.25 -29.35 23.45 -29.55 23.75 -29.95 24.15 -30.35 24.25 -30.4 24.4 -30.6 24.7 -30.9 24.8 -31.05 25.3 -31.55 25.75 -32.15 25.65 -32.25 25.55 -32.3 25.25 -32.55 Q24.85 -32.9 24.75 -33.6 24.75 -34.2 25.15 -34.7 L25.55 -35.1 25.65 -35.25 25.9 -35.55 Q26.35 -36.0 26.95 -36.0 27.55 -36.0 28.0 -35.55" fill="#d3a000" fill-rule="evenodd" stroke="none"/>
    <path d="M17.75 36.1 L17.75 36.2 17.7 36.2 17.6 36.45 17.55 36.5 17.55 36.95 17.65 37.35 17.85 37.75 17.9 37.75 17.95 37.85 18.4 38.25 18.75 38.4 18.8 38.4 19.0 38.35 19.05 38.35 19.15 38.3 19.3 38.25 19.35 38.2 19.45 38.15 19.65 37.85 19.75 37.45 19.7 37.3 19.65 36.95 19.55 36.75 19.5 36.6 19.4 36.4 19.0 36.0 18.95 36.0 18.75 35.9 18.6 35.85 18.25 35.85 17.75 36.1 M-12.1 38.75 L-12.15 38.85 -12.8 40.95 -12.5 41.05 -12.4 41.05 -12.25 41.1 -11.9 41.05 Q-11.5 40.95 -11.3 40.25 L-11.2 39.95 -11.2 39.4 -11.25 39.2 -11.35 39.15 -11.35 39.05 -11.4 39.05 -11.6 38.75 -12.05 38.55 -12.1 38.75 M-16.55 39.45 L-17.05 39.65 -16.8 40.2 -16.65 39.85 -16.55 39.45 M-26.1 25.75 L-25.85 25.8 Q-25.5 25.8 -25.15 26.1 L-25.05 26.15 -25.05 26.2 -24.7 26.45 -24.65 26.5 -24.4 26.65 Q-23.7 27.25 -23.9 28.6 L-23.9 28.85 -24.0 29.6 -24.0 29.8 -24.05 30.05 -24.05 30.6 -23.85 30.5 -23.55 30.4 -23.45 30.4 -23.25 30.3 -22.8 30.15 -22.05 29.8 -22.0 29.8 -21.95 29.75 -21.9 29.75 -21.65 29.7 -21.5 29.65 -21.4 29.65 Q-20.8 29.65 -20.4 30.0 L-19.95 30.4 -19.9 30.4 -19.7 30.55 -19.5 30.75 -19.5 30.8 -19.2 31.2 -18.95 31.15 -18.3 31.3 -17.9 31.55 -17.6 31.65 -17.3 31.85 -16.95 32.0 -16.75 32.15 -16.4 32.35 -16.0 32.5 -15.9 32.6 -15.65 32.7 -15.0 33.1 -14.8 33.15 -14.55 33.3 Q-14.1 33.55 -13.95 33.9 L-13.85 33.9 -12.45 34.2 -12.35 34.25 -12.15 34.3 -12.1 34.35 -12.05 34.35 -11.9 34.45 -11.0 34.65 -10.95 34.7 -10.55 34.8 -10.5 34.85 -10.4 34.85 -9.55 35.3 -9.55 35.35 -9.15 35.55 -9.1 35.65 -9.05 35.7 -8.9 35.8 -8.75 35.95 -8.6 36.05 -8.55 36.1 -8.1 36.65 Q-7.6 37.4 -7.4 38.2 L-7.35 38.15 -7.35 38.1 -7.3 37.95 Q-6.8 36.05 -5.35 36.05 L-5.1 36.05 -3.75 36.2 -3.65 36.2 Q-2.65 36.2 -2.15 36.8 -1.65 37.25 -1.55 38.0 L-1.45 38.5 -1.45 38.65 -1.4 38.95 -1.4 39.0 -1.35 39.45 -1.35 39.65 -1.3 39.7 -1.3 39.3 -1.35 39.05 -1.35 38.35 -1.4 38.2 -1.4 37.9 Q-1.4 37.25 -1.05 36.9 -0.65 36.45 -0.1 36.45 L1.0 36.4 1.2 36.35 1.25 36.35 Q1.85 36.35 2.25 36.75 2.65 37.15 2.7 37.75 L2.75 40.05 2.8 40.3 2.8 40.85 2.85 41.15 2.85 42.35 2.9 42.8 2.95 42.8 3.1 42.75 4.0 42.75 4.1 42.7 4.5 42.7 5.2 42.9 4.85 41.35 4.85 41.1 4.7 40.6 4.65 40.3 4.65 40.15 4.55 39.85 4.4 39.2 4.4 39.05 4.35 38.8 4.25 38.5 4.2 38.25 4.2 38.15 4.15 38.05 4.1 37.7 Q4.0 37.1 4.3 36.65 4.6 36.2 5.15 36.1 L5.9 35.95 6.05 35.9 6.1 35.9 6.15 35.85 6.2 35.85 6.4 35.8 6.75 35.75 Q7.85 35.75 8.1 36.95 L8.15 37.2 8.15 37.4 8.2 37.55 8.2 37.65 8.25 37.75 8.25 37.95 8.3 38.1 8.3 38.2 8.5 39.1 8.55 39.25 9.05 41.9 9.15 41.85 9.25 41.85 10.15 41.65 10.3 41.65 10.55 41.55 10.85 41.55 11.4 41.65 11.35 41.6 11.3 41.4 11.3 41.35 11.2 41.1 10.95 40.2 10.8 39.85 10.4 38.6 10.35 38.35 10.25 38.2 10.05 37.55 10.05 37.45 9.9 37.15 9.75 36.7 Q9.55 36.2 9.7 35.65 9.9 35.1 10.4 34.85 L10.5 34.85 10.65 34.75 10.7 34.75 10.9 34.7 11.1 34.6 11.55 34.5 11.6 34.45 12.2 34.3 12.95 34.55 13.6 35.35 13.7 35.65 13.7 35.7 13.75 35.55 13.75 35.4 14.0 34.65 14.05 34.6 14.15 34.4 14.6 33.65 14.8 33.5 14.8 33.45 14.9 33.35 15.1 33.1 16.2 32.35 17.75 31.85 18.75 31.8 18.8 31.8 19.8 32.0 19.7 31.8 Q19.3 30.9 20.0 30.3 L20.25 30.15 20.35 30.05 20.55 29.95 20.55 29.9 20.6 29.85 20.7 29.8 20.8 29.7 21.4 29.3 21.7 29.15 22.25 29.1 22.45 29.1 24.15 29.6 24.2 29.6 24.05 29.45 23.95 29.3 23.7 29.05 Q23.15 28.35 23.55 27.6 L23.55 27.55 24.0 27.05 24.65 26.6 24.75 26.45 24.95 26.3 Q25.25 26.0 25.75 26.0 26.35 26.0 26.9 26.55 L27.05 26.85 27.2 27.0 27.55 27.45 27.8 27.7 28.55 28.7 28.75 28.9 28.95 29.2 29.1 29.35 30.65 31.2 30.75 31.35 30.8 31.4 30.85 31.5 30.95 31.6 31.05 31.75 31.7 32.4 Q32.05 32.8 32.05 33.4 31.95 34.05 31.45 34.4 L31.3 34.5 31.15 34.65 30.8 34.9 30.8 34.95 30.6 35.1 29.7 35.45 28.8 35.2 28.6 35.15 27.2 34.65 27.25 34.7 27.5 35.0 27.95 35.45 28.25 36.4 27.95 37.15 27.65 37.45 27.65 37.5 27.5 37.6 26.9 38.2 26.05 38.55 25.95 38.6 25.9 38.6 Q25.3 38.6 24.85 38.05 L24.8 38.0 24.55 37.7 24.45 37.6 24.25 37.3 23.8 36.8 23.65 36.6 23.75 37.05 23.7 38.3 23.25 39.7 22.85 40.3 22.8 40.35 22.2 41.05 21.25 41.7 20.5 42.05 19.85 42.25 19.4 42.3 19.25 42.3 19.15 42.35 18.75 42.4 18.55 42.35 18.2 42.3 18.1 42.3 16.65 41.85 15.9 41.45 15.9 41.4 15.85 41.4 15.8 41.35 15.6 41.25 15.6 41.2 15.55 41.2 15.5 41.15 15.55 41.25 15.9 42.25 16.05 42.55 Q16.25 43.15 15.9 43.65 L15.15 44.25 14.95 44.3 14.85 44.35 14.2 44.55 14.1 44.6 13.85 44.7 13.4 44.75 Q12.85 44.75 12.4 44.3 12.3 45.25 11.2 45.5 L10.4 45.65 10.05 45.75 9.35 45.85 9.0 45.95 8.8 45.95 8.7 46.0 8.6 46.0 8.1 46.1 7.4 46.3 7.05 46.3 Q6.25 46.3 5.85 45.6 L5.55 46.2 Q5.2 46.6 4.45 46.7 L3.65 46.7 3.3 46.75 2.4 46.75 2.2 46.8 1.1 46.8 0.9 46.85 0.55 46.9 0.45 46.9 Q-0.35 46.9 -0.75 46.2 -1.1 46.85 -1.95 46.85 L-2.55 46.85 -2.95 46.8 -4.05 46.5 Q-4.55 46.2 -4.75 45.4 L-4.75 45.25 -5.35 45.15 -5.5 45.15 -5.55 45.2 Q-5.6 45.65 -6.05 46.0 L-6.85 46.3 -7.2 46.3 -7.55 46.25 -7.75 46.2 -8.15 46.2 -9.0 45.9 -9.1 45.8 Q-9.6 45.3 -9.55 44.6 L-9.4 44.1 -10.25 44.6 Q-10.75 44.9 -11.25 44.9 L-11.3 44.9 -11.65 44.95 -12.55 44.95 -14.7 44.4 -16.1 43.95 Q-17.55 43.5 -17.4 42.3 -17.8 42.9 -18.5 42.9 L-19.2 42.7 -19.25 42.65 -19.3 42.65 -19.35 42.6 -19.45 42.55 -19.5 42.55 -19.55 42.5 -20.1 42.25 -20.15 42.2 -20.3 42.15 -20.4 42.05 -20.55 42.0 -20.95 41.75 -21.55 41.5 -21.95 41.25 -22.0 41.2 -22.4 41.0 -22.45 40.95 -23.15 40.6 -23.85 39.85 Q-24.1 39.2 -23.75 38.5 L-23.65 38.35 -23.25 37.45 -23.15 37.35 -23.2 37.35 -23.65 37.8 -23.7 37.9 -23.95 38.3 -24.1 38.4 -24.15 38.5 -24.25 38.6 Q-24.65 39.1 -25.3 39.1 L-26.35 38.65 -26.6 38.45 -26.75 38.3 -27.0 38.1 -27.05 38.05 -27.25 37.95 -27.7 37.1 Q-27.75 36.65 -27.4 36.1 L-27.3 36.0 -27.0 35.6 -26.7 35.3 -26.65 35.2 Q-27.15 35.2 -27.5 34.85 L-27.9 34.3 -28.0 33.55 -28.1 33.6 -28.75 34.5 -28.85 34.55 -29.0 34.75 Q-29.35 35.25 -30.0 35.25 L-30.95 34.9 -31.35 34.5 -31.8 34.2 Q-32.4 33.7 -32.3 32.85 L-32.3 32.75 -32.0 32.15 -31.7 31.85 -31.45 31.5 -31.0 30.95 -30.75 30.75 -30.55 30.45 -30.0 29.8 -29.55 29.2 -29.4 29.05 -29.3 28.9 -28.55 28.1 -28.45 27.9 -28.35 27.8 -28.25 27.75 -28.2 27.6 -28.1 27.5 -27.15 26.25 Q-26.75 25.75 -26.1 25.75" fill="#d3a000" fill-rule="evenodd" stroke="none"/>
    <path d="M-27.15 -34.7 L-26.85 -34.55 -26.05 -33.9 -25.5 -33.15 -25.2 -32.5 -25.15 -32.25 -25.05 -31.95 -25.05 -31.7 -25.0 -31.5 -25.0 -30.7 -24.95 -30.45 -25.1 -29.1 -24.9 -29.2 -24.7 -29.45 -23.7 -30.3 Q-23.25 -30.75 -22.95 -30.45 L-22.55 -29.95 -22.2 -29.6 Q-21.95 -29.35 -22.15 -29.0 L-22.7 -28.55 -24.8 -26.6 -25.25 -26.25 -25.55 -25.9 -26.15 -25.35 -26.3 -25.25 Q-26.45 -25.05 -26.75 -25.35 L-27.05 -25.65 -27.2 -26.0 -27.1 -27.0 -27.05 -27.15 -27.05 -27.35 -26.9 -28.0 -26.9 -28.35 -26.7 -29.8 -26.75 -30.1 -26.8 -31.2 -27.0 -31.9 -27.05 -31.95 -27.3 -32.25 -27.35 -32.4 -27.65 -32.55 Q-28.05 -32.9 -28.5 -32.7 L-28.6 -32.65 -28.75 -32.6 -29.1 -32.4 -29.35 -32.1 -29.5 -31.8 -29.5 -31.4 -29.35 -30.95 -29.1 -30.75 -28.95 -30.5 -29.15 -30.05 -29.4 -29.85 -29.6 -29.65 -29.8 -29.5 -29.85 -29.45 Q-30.15 -29.2 -30.65 -29.7 L-31.0 -30.15 -31.25 -30.55 -31.5 -31.6 -31.35 -32.55 -30.75 -33.55 -30.15 -34.15 -29.15 -34.7 -27.5 -34.8 -27.15 -34.7" fill="#ffd245" fill-rule="evenodd" stroke="none"/>
    <path d="M-27.5 -34.8 L-28.1 -34.9 -29.15 -34.7 -30.15 -34.15 -30.75 -33.55 -31.35 -32.55 -31.5 -31.6 -31.25 -30.55 -31.0 -30.15 -30.65 -29.7 Q-30.3 -29.35 -30.05 -29.35 L-29.85 -29.45 -29.8 -29.5 -29.6 -29.65 -29.4 -29.85 -29.15 -30.05 -28.95 -30.5 -29.1 -30.75 -29.35 -30.95 -29.5 -31.4 -29.5 -31.8 -29.35 -32.1 -29.1 -32.4 -28.75 -32.6 -28.6 -32.65 -28.5 -32.7 -28.25 -32.75 -27.65 -32.55 -27.35 -32.4 -27.3 -32.25 -27.05 -31.95 -27.0 -31.9 -26.8 -31.2 -26.75 -30.1 -26.7 -29.8 -26.9 -28.35 -26.9 -28.0 -27.05 -27.35 -27.05 -27.15 -27.1 -27.0 -27.2 -26.0 -27.05 -25.65 -26.75 -25.35 -26.45 -25.15 -26.3 -25.25 -26.15 -25.35 -25.55 -25.9 -25.25 -26.25 -24.8 -26.6 -22.15 -29.0 Q-21.95 -29.35 -22.2 -29.6 L-22.55 -29.95 -22.95 -30.45 -23.2 -30.55 -23.7 -30.3 -24.7 -29.45 -24.9 -29.2 -25.05 -29.1 -25.1 -29.1 -24.95 -30.45 -25.0 -30.7 -25.0 -31.5 -25.05 -31.7 -25.05 -31.95 -25.15 -32.25 -25.2 -32.5 -25.5 -33.15 -26.05 -33.9 -26.85 -34.55 -27.15 -34.7 -27.5 -34.8 M-31.0 -34.65 L-30.8 -34.85 -29.55 -35.65 -28.1 -35.9 -27.15 -35.75 -26.8 -35.65 -26.35 -35.45 -25.3 -34.55 -24.6 -33.6 -24.25 -32.7 -24.2 -32.6 -24.2 -32.5 -24.15 -32.45 -24.05 -31.95 -24.0 -31.55 -24.0 -31.35 -23.2 -31.55 Q-22.55 -31.55 -22.2 -31.1 L-22.0 -30.85 -22.0 -30.8 -21.95 -30.8 -21.65 -30.5 -21.65 -30.45 -21.6 -30.4 -21.45 -30.3 -21.1 -29.35 -21.3 -28.5 -21.75 -28.0 -22.1 -27.75 -22.9 -27.0 -23.3 -26.7 -23.35 -26.6 -23.6 -26.4 -24.1 -25.9 -24.1 -25.85 -24.4 -25.65 -24.85 -25.2 -25.05 -25.05 -25.6 -24.5 Q-25.95 -24.15 -26.45 -24.15 -27.1 -24.15 -27.45 -24.65 L-27.75 -24.95 -28.2 -25.85 -28.05 -27.25 -28.05 -27.3 -27.9 -28.0 -27.9 -28.45 -27.75 -29.25 -27.75 -29.65 -27.7 -29.8 -27.75 -30.05 -27.75 -30.9 -27.85 -31.2 -27.85 -31.25 -27.95 -31.45 -27.95 -31.5 -28.0 -31.55 -28.1 -31.7 -28.2 -31.7 -28.2 -31.75 -28.35 -31.7 -28.45 -31.65 -28.5 -31.6 -28.5 -31.55 -28.35 -31.45 -28.05 -30.9 -28.05 -30.85 -28.0 -30.8 Q-27.75 -29.95 -28.5 -29.35 L-28.7 -29.15 -28.75 -29.15 -29.2 -28.7 Q-29.65 -28.35 -30.05 -28.35 -30.75 -28.35 -31.4 -29.0 L-31.8 -29.55 -32.15 -30.15 -32.5 -31.5 -32.3 -32.9 -31.5 -34.25 -31.45 -34.25 -31.15 -34.55 -31.0 -34.65" fill="#b07f00" fill-rule="evenodd" stroke="none"/>
    <path d="M-21.55 -39.05 L-20.1 -36.7 -19.9 -36.45 -19.45 -35.65 -18.95 -35.6 -18.75 -35.75 -18.6 -35.85 -18.35 -35.9 -18.15 -35.65 -18.0 -35.5 -17.9 -35.25 -17.55 -34.75 Q-17.4 -34.55 -18.0 -34.15 -18.3 -33.95 -18.1 -33.6 L-17.45 -32.55 Q-17.25 -32.25 -17.5 -32.1 L-17.6 -32.05 -18.65 -31.35 Q-18.85 -31.15 -19.05 -31.5 L-19.4 -32.1 -19.65 -32.35 -19.85 -32.65 -20.5 -32.6 -22.3 -31.45 -22.45 -31.4 Q-22.7 -31.15 -22.95 -31.5 L-23.25 -31.95 -23.4 -32.9 -23.35 -35.8 -23.4 -36.1 -23.4 -37.6 -23.45 -37.85 -23.4 -38.45 -23.35 -39.05 -22.35 -39.75 -21.9 -39.65 -21.75 -39.3 -21.55 -39.05 M-21.75 -35.85 Q-21.9 -36.15 -22.0 -36.05 L-22.1 -35.55 -21.95 -34.0 -21.35 -34.05 -21.05 -34.25 Q-20.85 -34.35 -21.15 -34.85 L-21.75 -35.85" fill="#ffd245" fill-rule="evenodd" stroke="none"/>
    <path d="M-21.75 -35.85 L-21.15 -34.85 Q-20.85 -34.35 -21.05 -34.25 L-21.35 -34.05 -21.75 -33.85 Q-21.85 -33.85 -21.95 -34.0 L-22.1 -35.55 -22.0 -36.05 -21.95 -36.05 -21.75 -35.85 M-22.15 -39.8 L-22.35 -39.75 -23.35 -39.05 -23.4 -38.45 -23.45 -37.85 -23.4 -37.6 -23.4 -36.1 -23.35 -35.8 -23.4 -32.9 -23.25 -31.95 -22.95 -31.5 -22.7 -31.3 Q-22.55 -31.3 -22.45 -31.4 L-22.3 -31.45 -20.5 -32.6 -20.1 -32.75 -19.85 -32.65 -19.65 -32.35 -19.4 -32.1 -19.05 -31.5 -18.8 -31.3 -18.65 -31.35 -17.6 -32.05 -17.5 -32.1 Q-17.25 -32.25 -17.45 -32.55 L-18.1 -33.6 Q-18.3 -33.95 -18.0 -34.15 -17.4 -34.55 -17.55 -34.75 L-17.9 -35.25 -18.0 -35.5 -18.15 -35.65 -18.35 -35.9 -18.4 -35.9 -18.6 -35.85 -18.75 -35.75 -18.95 -35.6 Q-18.95 -35.5 -19.2 -35.5 L-19.45 -35.65 -19.9 -36.45 -20.1 -36.7 -21.55 -39.05 -21.75 -39.3 -21.9 -39.65 -22.15 -39.8 M-20.2 -38.8 L-20.1 -38.6 -18.95 -36.8 -18.4 -36.9 -18.25 -36.9 -18.15 -36.85 -18.05 -36.85 -17.3 -36.2 -17.3 -36.25 -17.05 -35.9 -17.05 -35.8 -16.95 -35.65 -16.9 -35.6 -16.85 -35.5 -16.7 -35.3 Q-16.4 -34.85 -16.5 -34.35 L-16.95 -33.65 -16.75 -33.35 -16.75 -33.3 -16.6 -33.1 Q-16.3 -32.6 -16.4 -32.1 -16.5 -31.55 -16.95 -31.25 L-17.1 -31.2 -17.75 -30.8 -17.85 -30.7 -18.1 -30.55 -18.8 -30.3 Q-19.5 -30.3 -19.9 -30.95 L-20.25 -31.5 -20.25 -31.55 -20.4 -31.5 -21.3 -30.95 -21.35 -30.9 -21.5 -30.85 -21.9 -30.55 -22.7 -30.3 Q-23.4 -30.3 -23.8 -30.95 L-23.95 -31.15 -24.0 -31.25 -24.1 -31.4 Q-24.5 -32.0 -24.4 -32.9 L-24.4 -33.95 -24.35 -34.15 -24.4 -34.55 -24.4 -34.65 -24.35 -34.7 -24.4 -34.9 -24.4 -35.4 -24.35 -35.75 -24.35 -35.8 -24.4 -36.1 -24.4 -36.4 -24.35 -36.5 -24.4 -36.65 -24.4 -37.8 -24.45 -37.85 -24.4 -38.05 -24.4 -38.5 Q-24.5 -39.15 -24.2 -39.55 -24.05 -39.85 -22.85 -40.6 L-22.15 -40.8 Q-21.45 -40.8 -21.05 -40.15 L-20.85 -39.75 -20.7 -39.6 -20.2 -38.8" fill="#b07f00" fill-rule="evenodd" stroke="none"/>
    <path d="M-10.6 -44.1 L-10.25 -43.1 -10.2 -42.8 -10.5 -42.55 -10.7 -42.5 -11.05 -42.45 Q-12.05 -42.1 -12.35 -41.25 L-12.55 -40.4 -12.3 -39.4 -11.8 -38.5 -10.7 -37.55 -9.5 -37.5 -9.1 -37.7 -8.95 -37.8 Q-8.55 -37.9 -8.55 -37.5 L-8.25 -36.5 -8.15 -36.25 -8.25 -35.85 -8.6 -35.6 -9.4 -35.4 -9.75 -35.35 -10.65 -35.35 -11.35 -35.5 -11.7 -35.7 -12.5 -36.0 -13.35 -36.75 -14.1 -37.9 -14.35 -38.5 -14.4 -38.8 -14.55 -39.15 -14.75 -40.5 -14.55 -41.75 -13.9 -43.0 -13.15 -43.65 -11.6 -44.4 -11.05 -44.55 Q-10.7 -44.55 -10.6 -44.1" fill="#ffd245" fill-rule="evenodd" stroke="none"/>
    <path d="M-11.05 -44.55 L-11.6 -44.4 -13.15 -43.65 -13.9 -43.0 -14.55 -41.75 -14.75 -40.5 -14.55 -39.15 -14.4 -38.8 -14.35 -38.5 -14.1 -37.9 -13.35 -36.75 -12.5 -36.0 -11.7 -35.7 -11.35 -35.5 -10.2 -35.3 -8.6 -35.6 -8.25 -35.85 -8.15 -36.25 -8.25 -36.5 -8.55 -37.5 Q-8.55 -37.8 -8.85 -37.8 L-8.95 -37.8 -9.1 -37.7 -9.5 -37.5 -10.1 -37.45 -10.7 -37.55 -11.8 -38.5 -12.3 -39.4 -12.55 -40.4 -12.35 -41.25 Q-12.05 -42.1 -11.05 -42.45 L-10.7 -42.5 -10.5 -42.55 -10.2 -42.8 -10.25 -43.1 -10.6 -44.1 -11.0 -44.55 -11.05 -44.55 M-11.95 -45.35 L-11.1 -45.55 -11.0 -45.55 Q-9.95 -45.55 -9.65 -44.4 L-9.45 -43.7 -9.3 -43.4 -9.25 -42.7 -9.25 -42.6 -9.3 -42.45 Q-9.45 -41.75 -10.2 -41.6 L-10.55 -41.5 -10.75 -41.5 -11.4 -40.95 -11.55 -40.35 -11.35 -39.7 Q-11.15 -38.85 -10.25 -38.45 L-9.8 -38.45 -9.65 -38.5 -9.6 -38.6 -9.5 -38.6 -9.25 -38.75 -8.85 -38.8 Q-7.9 -38.8 -7.55 -37.8 L-7.55 -37.6 -7.5 -37.5 -7.45 -37.45 -7.4 -37.2 -7.3 -36.9 -7.3 -36.8 -7.2 -36.55 Q-6.95 -35.75 -7.55 -35.15 L-8.3 -34.65 -8.8 -34.55 -9.1 -34.45 -9.2 -34.45 -9.55 -34.35 -10.2 -34.3 -10.75 -34.35 -11.7 -34.6 -11.75 -34.6 -12.15 -34.8 -12.35 -34.85 -12.9 -35.1 -12.95 -35.15 -13.0 -35.15 -13.05 -35.2 -14.05 -36.05 -14.1 -36.1 -15.05 -37.5 -15.3 -38.2 -15.35 -38.45 -15.35 -38.5 -15.5 -38.85 -15.55 -39.25 -15.6 -39.4 -15.75 -40.5 -15.5 -42.0 -15.15 -42.85 -14.65 -43.65 -13.75 -44.45 Q-13.05 -45.0 -11.95 -45.35" fill="#b07f00" fill-rule="evenodd" stroke="none"/>
    <path d="M7.5 -42.05 L7.05 -40.75 6.4 -40.05 5.85 -39.4 Q5.8 -39.2 6.05 -39.05 L6.7 -38.55 6.9 -38.45 7.05 -38.05 7.05 -37.8 6.9 -36.9 6.9 -36.6 Q6.85 -36.2 6.3 -36.2 L5.6 -36.5 5.2 -36.8 4.45 -37.7 4.35 -37.85 3.85 -38.3 3.2 -38.6 3.0 -38.55 2.8 -38.35 2.65 -37.75 2.65 -36.95 Q2.65 -36.55 2.3 -36.65 L1.75 -36.75 1.5 -36.75 1.2 -36.8 0.7 -36.8 0.4 -37.05 0.4 -37.3 0.6 -38.95 0.7 -39.35 0.7 -39.95 1.25 -45.15 Q1.35 -46.0 1.9 -45.95 L2.2 -45.85 2.55 -45.85 4.5 -45.65 5.95 -45.3 6.55 -44.95 7.05 -44.45 7.4 -43.9 7.6 -42.85 7.5 -42.05 M3.0 -41.1 Q3.0 -40.75 3.2 -40.7 L3.55 -40.6 3.8 -40.6 4.3 -40.75 4.5 -40.85 4.7 -41.0 5.1 -41.45 5.45 -42.4 Q5.45 -43.25 4.85 -43.45 L4.35 -43.6 3.8 -43.7 3.55 -43.65 3.3 -43.45 3.15 -43.05 3.0 -41.1" fill="#ffd245" fill-rule="evenodd" stroke="none"/>
    <path d="M3.55 -43.65 L3.8 -43.7 4.35 -43.6 4.85 -43.45 Q5.45 -43.25 5.45 -42.4 L5.1 -41.45 4.7 -41.0 4.5 -40.85 4.3 -40.75 3.8 -40.6 3.55 -40.6 3.2 -40.7 Q3.0 -40.75 3.0 -41.1 L3.15 -43.05 3.3 -43.45 3.55 -43.65 M4.45 -42.45 L4.45 -42.55 4.3 -42.6 4.25 -42.6 4.15 -42.65 4.05 -42.0 4.05 -41.75 4.1 -41.8 4.25 -42.0 4.45 -42.45 M7.5 -42.05 L7.6 -42.85 7.4 -43.9 7.05 -44.45 6.55 -44.95 5.95 -45.3 4.5 -45.65 2.55 -45.85 2.2 -45.85 1.9 -45.95 1.8 -45.95 Q1.35 -45.95 1.25 -45.15 L0.7 -39.95 0.7 -39.35 0.6 -38.95 0.4 -37.3 0.4 -37.05 0.7 -36.8 1.2 -36.8 1.45 -36.75 1.75 -36.75 2.3 -36.65 Q2.65 -36.65 2.65 -36.95 L2.65 -37.75 2.8 -38.35 3.0 -38.55 3.2 -38.6 3.85 -38.3 4.35 -37.85 4.45 -37.7 5.2 -36.8 5.6 -36.5 6.3 -36.2 6.35 -36.2 Q6.85 -36.2 6.9 -36.6 L6.9 -36.9 7.05 -37.8 7.05 -38.05 6.9 -38.45 6.7 -38.55 6.05 -39.05 Q5.8 -39.2 5.85 -39.4 L6.4 -40.05 7.05 -40.75 7.5 -42.05 M7.8 -45.1 L7.85 -45.0 7.9 -44.95 8.25 -44.4 8.25 -44.35 Q8.6 -43.75 8.6 -42.75 L8.55 -42.55 8.55 -42.25 8.5 -41.95 Q8.4 -40.9 7.85 -40.15 L7.2 -39.45 7.35 -39.4 7.45 -39.35 7.5 -39.25 Q8.15 -38.85 8.05 -37.95 L8.05 -37.75 8.0 -37.7 8.0 -37.35 7.95 -37.0 7.9 -36.8 7.9 -36.5 Q7.75 -35.2 6.35 -35.2 L6.2 -35.2 Q5.3 -35.3 4.5 -36.1 L3.65 -37.05 3.65 -36.85 Q3.55 -35.65 2.3 -35.65 L2.2 -35.65 1.8 -35.7 1.75 -35.75 1.45 -35.75 1.1 -35.8 0.9 -35.8 0.6 -35.85 -0.3 -36.35 Q-0.65 -36.8 -0.6 -37.4 L-0.55 -37.8 -0.5 -37.85 -0.5 -38.2 -0.4 -39.1 -0.3 -39.45 -0.3 -40.05 -0.2 -40.9 -0.2 -41.15 -0.15 -41.35 -0.15 -41.6 0.25 -45.25 Q0.45 -46.95 1.8 -46.95 L2.0 -46.9 2.25 -46.9 2.3 -46.85 2.65 -46.85 3.2 -46.75 3.65 -46.75 3.8 -46.7 4.3 -46.7 4.6 -46.65 5.55 -46.5 6.35 -46.2 6.45 -46.15 6.5 -46.1 7.05 -45.8 7.1 -45.8 7.1 -45.75 7.8 -45.1" fill="#b07f00" fill-rule="evenodd" stroke="none"/>
    <path d="M-1.25 -41.3 L-1.2 -40.95 -1.05 -40.7 -0.8 -39.85 0.15 -37.15 Q0.15 -36.85 -0.4 -36.85 L-1.1 -36.75 -1.85 -36.75 -2.2 -37.15 -2.35 -37.5 -2.45 -37.65 Q-2.6 -37.9 -2.85 -37.95 L-3.65 -37.95 -4.05 -37.95 -4.45 -37.8 -4.95 -37.55 -5.2 -36.7 -5.3 -36.45 Q-5.45 -36.3 -5.75 -36.3 L-6.35 -36.25 -6.75 -36.15 -7.15 -36.2 -7.4 -36.55 -7.3 -37.05 -7.25 -38.65 -7.15 -39.5 -7.05 -39.8 -7.05 -40.4 -6.85 -41.65 -6.8 -41.8 -6.75 -42.9 -6.7 -43.05 -6.55 -43.95 Q-6.55 -45.4 -5.65 -45.45 L-5.3 -45.5 -4.0 -45.65 -3.0 -45.5 -2.55 -44.9 -1.95 -43.25 -1.9 -43.05 -1.25 -41.3 M-4.55 -42.9 L-4.75 -42.05 -4.75 -41.75 -4.8 -41.45 -4.8 -41.15 -4.85 -40.9 -4.85 -40.45 Q-4.8 -39.8 -4.0 -39.9 L-3.4 -40.05 Q-3.15 -40.05 -3.15 -40.4 L-3.2 -40.55 -3.45 -41.35 -3.6 -41.7 -3.7 -42.15 -4.0 -42.85 -4.35 -43.1 -4.55 -42.9" fill="#ffd245" fill-rule="evenodd" stroke="none"/>
    <path d="M-4.35 -43.1 L-4.3 -43.1 Q-4.1 -43.1 -4.0 -42.85 L-3.7 -42.15 -3.6 -41.7 -3.45 -41.35 -3.2 -40.55 -3.15 -40.4 Q-3.15 -40.05 -3.4 -40.05 L-4.0 -39.9 -4.15 -39.9 Q-4.85 -39.9 -4.85 -40.45 L-4.85 -40.9 -4.8 -41.15 -4.8 -41.45 -4.75 -41.75 -4.75 -42.05 -4.55 -42.9 -4.35 -43.1 M-1.9 -43.05 L-1.95 -43.25 -2.55 -44.9 -3.0 -45.5 -3.65 -45.7 -4.0 -45.65 -5.3 -45.5 -5.65 -45.45 Q-6.55 -45.4 -6.55 -43.95 L-6.7 -43.05 -6.75 -42.9 -6.8 -41.8 -6.85 -41.65 -7.05 -40.4 -7.05 -39.8 -7.15 -39.5 -7.25 -38.65 -7.3 -37.05 -7.4 -36.55 -7.15 -36.2 -6.8 -36.15 -6.75 -36.15 -6.35 -36.25 -5.75 -36.3 Q-5.45 -36.3 -5.3 -36.45 L-5.2 -36.7 -4.95 -37.55 -4.45 -37.8 -4.05 -37.95 -3.15 -38.0 -2.85 -37.95 Q-2.6 -37.9 -2.45 -37.65 L-2.35 -37.5 -2.2 -37.15 Q-1.95 -36.7 -1.55 -36.7 L-0.4 -36.85 Q0.15 -36.85 0.15 -37.15 L-0.8 -39.85 -1.05 -40.7 -1.2 -40.95 -1.25 -41.3 -1.9 -43.05 M-2.5 -46.35 Q-1.9 -46.0 -1.65 -45.25 L-1.5 -44.95 -1.45 -44.75 -1.35 -44.6 -1.25 -44.3 -1.25 -44.25 -1.05 -43.75 -1.05 -43.6 -0.95 -43.5 -0.95 -43.35 -0.65 -42.65 -0.65 -42.55 -0.6 -42.35 -0.3 -41.6 -0.3 -41.5 -0.25 -41.35 -0.25 -41.3 -0.15 -41.15 -0.15 -41.05 -0.1 -41.0 0.05 -40.55 0.1 -40.25 0.15 -40.2 0.5 -39.2 0.5 -39.15 0.85 -38.2 0.85 -38.15 1.0 -37.85 1.15 -37.25 0.85 -36.35 Q0.55 -36.0 -0.3 -35.85 L-0.55 -35.8 -1.55 -35.7 Q-2.55 -35.7 -3.1 -36.75 L-3.2 -36.95 -3.2 -37.0 -3.55 -36.95 -3.9 -36.95 -4.15 -36.85 -4.2 -36.75 Q-4.15 -36.35 -4.5 -35.8 -4.85 -35.4 -5.65 -35.3 L-5.9 -35.25 -6.2 -35.25 -6.35 -35.2 -6.65 -35.15 -6.8 -35.15 -7.65 -35.35 Q-8.3 -35.7 -8.4 -36.45 L-8.35 -37.15 -8.3 -37.2 -8.3 -37.65 -8.25 -38.0 -8.25 -38.2 -8.25 -38.4 -8.2 -38.7 -8.2 -38.75 -8.1 -39.65 -8.1 -39.85 -8.05 -39.9 -8.05 -40.5 -7.85 -41.75 -7.8 -41.9 -7.7 -43.1 -7.7 -43.15 -7.65 -43.5 -7.6 -43.7 -7.6 -43.8 -7.55 -43.85 -7.55 -44.0 Q-7.55 -46.3 -5.75 -46.45 L-4.3 -46.6 -4.2 -46.6 -3.65 -46.7 -2.5 -46.35" fill="#b07f00" fill-rule="evenodd" stroke="none"/>
    <path d="M13.8 -43.75 L14.15 -43.55 14.75 -43.2 15.25 -42.75 15.65 -42.2 15.85 -41.55 Q16.05 -41.35 15.85 -40.5 L15.75 -40.25 15.65 -39.75 14.95 -38.55 14.15 -38.0 13.45 -37.5 13.6 -37.05 14.15 -36.45 14.35 -36.35 14.4 -35.9 14.3 -35.65 14.25 -35.3 13.95 -34.5 13.65 -34.2 13.3 -34.25 Q12.65 -34.45 12.35 -35.05 L11.7 -36.25 11.3 -36.8 10.75 -37.2 10.55 -37.2 10.3 -37.0 10.0 -36.5 9.9 -35.7 Q9.75 -35.35 9.45 -35.45 L8.7 -35.75 8.4 -35.8 7.95 -35.95 Q7.55 -36.1 7.7 -36.5 L7.85 -36.75 7.95 -37.0 8.05 -37.55 8.25 -38.05 10.0 -43.5 10.1 -44.0 Q10.35 -44.8 10.85 -44.65 L11.2 -44.5 11.5 -44.45 12.45 -44.1 13.4 -43.85 13.8 -43.75 M11.55 -41.55 L11.0 -39.65 Q11.0 -39.3 11.15 -39.25 L11.5 -39.1 11.7 -39.05 12.05 -39.05 12.45 -39.15 12.65 -39.25 13.15 -39.65 13.65 -40.45 Q13.95 -41.15 13.3 -41.65 L12.3 -42.1 12.05 -42.1 11.8 -41.95 11.55 -41.55" fill="#ffd245" fill-rule="evenodd" stroke="none"/>
    <path d="M12.05 -42.1 L12.3 -42.1 13.3 -41.65 Q13.95 -41.15 13.65 -40.45 L13.15 -39.65 12.65 -39.25 12.45 -39.15 12.05 -39.05 11.7 -39.05 11.5 -39.1 11.15 -39.25 Q11.0 -39.3 11.0 -39.65 L11.55 -41.55 11.8 -41.95 12.05 -42.1 M12.7 -40.85 L12.5 -40.95 12.45 -40.95 12.25 -40.3 12.15 -40.15 12.2 -40.15 12.25 -40.2 12.45 -40.35 12.7 -40.75 12.7 -40.85 M14.75 -43.2 L14.15 -43.55 13.8 -43.75 13.4 -43.85 12.45 -44.1 11.5 -44.45 11.2 -44.5 10.85 -44.65 10.65 -44.7 Q10.35 -44.7 10.1 -44.0 L10.0 -43.5 8.4 -38.45 8.05 -37.55 7.95 -37.0 7.85 -36.75 7.7 -36.5 Q7.55 -36.1 7.95 -35.95 L8.4 -35.8 8.7 -35.75 9.45 -35.45 9.55 -35.45 9.9 -35.7 10.0 -36.5 10.3 -37.0 10.55 -37.2 10.75 -37.2 11.3 -36.8 11.7 -36.25 12.35 -35.05 Q12.65 -34.45 13.3 -34.25 L13.5 -34.2 13.95 -34.5 14.25 -35.3 14.3 -35.65 14.4 -35.9 14.35 -36.35 14.15 -36.45 13.6 -37.05 13.45 -37.5 14.15 -38.0 14.95 -38.55 15.65 -39.75 15.75 -40.25 15.85 -40.5 Q16.05 -41.35 15.85 -41.55 L15.65 -42.2 15.25 -42.75 14.75 -43.2 M15.4 -44.0 L15.45 -43.9 15.95 -43.45 16.55 -42.65 16.55 -42.6 16.6 -42.5 16.8 -41.9 16.8 -41.85 Q17.1 -41.0 16.8 -40.2 L16.75 -40.0 16.7 -39.95 16.6 -39.45 Q16.3 -38.45 15.6 -37.8 L14.8 -37.25 14.95 -37.15 15.1 -37.0 Q15.65 -36.45 15.35 -35.6 L15.3 -35.4 15.25 -35.3 15.2 -35.05 15.0 -34.5 14.95 -34.4 14.95 -34.2 Q14.6 -33.2 13.5 -33.2 L13.0 -33.3 Q12.15 -33.55 11.5 -34.5 L10.9 -35.6 10.85 -35.4 Q10.55 -34.45 9.55 -34.45 L9.15 -34.5 8.8 -34.65 8.75 -34.65 8.7 -34.7 8.6 -34.75 8.45 -34.75 7.9 -34.9 7.65 -35.0 Q7.1 -35.15 6.85 -35.65 6.55 -36.2 6.75 -36.8 L6.95 -37.2 6.95 -37.3 7.05 -37.5 7.1 -37.85 7.3 -38.3 7.3 -38.4 7.45 -38.75 7.7 -39.75 7.85 -40.1 7.9 -40.3 8.0 -40.55 8.1 -41.1 8.15 -41.15 9.05 -43.8 9.15 -44.3 Q9.55 -45.7 10.65 -45.7 L11.15 -45.6 11.4 -45.5 11.45 -45.5 12.35 -45.2 14.6 -44.45 15.4 -44.0" fill="#b07f00" fill-rule="evenodd" stroke="none"/>
    <path d="M20.35 -38.3 L19.65 -38.2 Q19.25 -38.1 19.0 -37.85 L18.35 -37.15 18.05 -36.6 17.95 -36.15 17.8 -35.4 Q17.8 -34.65 18.1 -34.35 L18.25 -34.2 18.35 -34.05 18.45 -33.95 18.75 -33.75 18.95 -33.65 Q18.95 -33.45 19.3 -33.45 L20.15 -33.4 Q20.8 -33.5 21.05 -33.75 L21.9 -34.65 22.1 -35.05 22.2 -35.2 22.3 -35.4 22.4 -36.2 22.25 -37.05 21.8 -37.7 21.25 -38.1 20.95 -38.2 20.35 -38.3 M21.4 -40.35 L22.45 -39.95 23.55 -39.05 24.1 -38.2 24.4 -37.35 24.45 -37.0 24.55 -36.75 24.55 -36.25 24.5 -35.9 24.5 -35.35 24.35 -34.85 23.65 -33.4 23.1 -32.75 22.45 -32.05 Q22.05 -31.75 21.5 -31.55 L20.4 -31.25 19.7 -31.25 18.9 -31.35 18.55 -31.5 18.35 -31.55 17.35 -32.1 16.85 -32.55 16.25 -33.35 16.05 -33.75 15.7 -35.05 15.65 -36.15 15.9 -37.05 16.5 -38.25 17.5 -39.35 18.0 -39.7 18.25 -39.8 18.8 -40.15 19.45 -40.35 19.8 -40.4 20.1 -40.5 21.4 -40.35" fill="#ffd245" fill-rule="evenodd" stroke="none"/>
    <path d="M19.4 -36.8 L19.15 -36.55 18.95 -36.1 18.8 -35.4 18.9 -34.95 19.0 -34.9 19.1 -34.75 19.15 -34.7 19.15 -34.65 19.45 -34.5 19.6 -34.4 20.05 -34.4 20.5 -34.6 21.05 -35.15 21.1 -35.3 21.25 -35.55 21.3 -35.7 21.35 -35.7 21.4 -36.15 21.4 -36.25 21.35 -36.5 21.3 -36.65 21.3 -36.7 21.1 -37.0 20.65 -37.25 20.5 -37.3 20.1 -37.3 20.0 -37.25 19.95 -37.25 19.55 -37.05 19.5 -37.0 19.4 -36.8 M20.55 -38.3 L21.25 -38.1 21.8 -37.7 22.25 -37.05 22.4 -36.2 22.3 -35.4 22.2 -35.2 22.1 -35.05 21.9 -34.65 21.05 -33.75 Q20.8 -33.5 20.15 -33.4 L19.3 -33.45 Q18.95 -33.45 18.95 -33.65 L18.75 -33.75 18.45 -33.95 18.35 -34.05 18.25 -34.2 18.1 -34.35 Q17.8 -34.65 17.8 -35.4 L17.95 -36.15 18.05 -36.6 18.35 -37.15 19.0 -37.85 Q19.25 -38.1 19.65 -38.2 L20.35 -38.3 20.55 -38.3 M21.4 -40.35 L20.3 -40.5 20.1 -40.5 19.8 -40.4 19.45 -40.35 18.8 -40.15 18.25 -39.8 18.0 -39.7 17.5 -39.35 16.5 -38.25 15.9 -37.05 15.65 -36.15 15.7 -35.05 16.05 -33.75 16.25 -33.35 16.85 -32.55 17.35 -32.1 18.35 -31.55 18.55 -31.5 18.9 -31.35 19.7 -31.25 20.4 -31.25 21.5 -31.55 Q22.05 -31.75 22.45 -32.05 L23.1 -32.75 23.65 -33.4 24.35 -34.85 24.5 -35.35 24.5 -35.9 24.55 -36.25 24.55 -36.75 24.45 -37.0 24.4 -37.35 24.1 -38.2 23.55 -39.05 22.45 -39.95 21.4 -40.35 M17.9 -40.8 L18.35 -41.05 18.7 -41.15 18.75 -41.15 18.75 -41.2 18.85 -41.2 19.2 -41.35 19.65 -41.4 19.7 -41.45 19.95 -41.45 20.3 -41.5 21.15 -41.4 21.3 -41.4 21.65 -41.35 22.95 -40.8 23.45 -40.4 23.65 -40.3 24.3 -39.7 24.35 -39.65 24.35 -39.6 24.5 -39.45 25.0 -38.7 25.35 -37.6 25.45 -37.3 25.45 -37.15 25.5 -37.0 25.55 -36.9 25.55 -36.15 25.5 -35.8 25.5 -35.6 25.45 -35.2 25.3 -34.55 24.5 -32.9 23.8 -32.0 23.05 -31.3 21.95 -30.6 Q21.1 -30.25 20.35 -30.25 L19.7 -30.25 18.6 -30.4 18.25 -30.55 18.15 -30.55 18.0 -30.65 17.45 -30.85 16.45 -31.55 15.85 -32.15 15.8 -32.25 15.7 -32.4 15.35 -32.9 15.15 -33.35 Q14.75 -34.25 14.7 -34.9 L14.65 -36.25 15.0 -37.4 15.0 -37.45 15.65 -38.7 16.05 -39.25 16.9 -40.1 17.55 -40.6 17.75 -40.7 17.8 -40.7 17.9 -40.8" fill="#b07f00" fill-rule="evenodd" stroke="none"/>
    <path d="M30.55 -33.9 L30.7 -33.7 31.2 -33.25 31.4 -33.1 31.75 -32.7 32.1 -32.5 32.2 -32.3 32.25 -32.0 31.45 -31.1 31.35 -30.95 30.75 -30.9 30.45 -31.15 29.6 -31.7 29.25 -31.65 27.05 -29.25 26.8 -28.9 26.0 -28.05 25.65 -27.6 25.35 -27.35 25.1 -27.05 Q24.8 -26.75 24.35 -27.15 L23.6 -27.85 23.4 -28.0 Q23.2 -28.2 23.4 -28.45 L23.55 -28.65 25.65 -30.95 25.85 -31.2 26.15 -31.5 27.35 -32.9 27.5 -33.0 27.65 -33.6 27.05 -34.3 26.65 -34.6 26.5 -34.9 26.6 -35.3 27.05 -35.75 27.2 -35.95 27.4 -36.15 28.1 -36.1 30.05 -34.3 30.55 -33.9" fill="#ffd245" fill-rule="evenodd" stroke="none"/>
    <path d="M29.0 -36.6 L29.2 -36.45 29.75 -35.9 30.45 -35.25 30.75 -35.05 31.0 -34.8 31.2 -34.65 31.35 -34.5 31.35 -34.45 31.45 -34.4 31.6 -34.25 31.85 -34.05 31.95 -33.95 32.1 -33.85 32.5 -33.4 32.75 -33.2 33.05 -32.85 33.1 -32.8 33.1 -32.75 Q33.5 -32.35 33.15 -31.6 L32.65 -30.95 32.35 -30.55 32.2 -30.4 32.1 -30.25 Q31.65 -29.8 31.05 -29.8 L30.25 -30.0 29.8 -30.4 29.75 -30.4 29.6 -30.55 29.0 -29.95 28.1 -28.9 27.7 -28.5 27.5 -28.25 27.0 -27.7 26.75 -27.35 26.35 -26.95 26.2 -26.75 26.1 -26.7 26.0 -26.6 25.85 -26.35 Q25.5 -25.9 24.85 -25.9 24.3 -25.9 23.7 -26.4 L23.45 -26.6 23.2 -26.85 22.95 -27.05 22.95 -27.1 22.9 -27.1 22.75 -27.25 Q21.95 -27.85 22.45 -28.85 L22.8 -29.35 23.2 -29.75 24.5 -31.25 25.0 -31.7 25.1 -31.9 25.35 -32.1 25.45 -32.15 25.55 -32.35 26.3 -33.15 26.5 -33.45 26.35 -33.55 26.3 -33.6 26.0 -33.85 Q25.55 -34.2 25.5 -34.85 25.45 -35.5 25.9 -36.0 L26.3 -36.4 26.4 -36.55 26.65 -36.85 Q27.1 -37.3 27.7 -37.3 28.25 -37.3 28.75 -36.85 L29.0 -36.6 M28.1 -36.1 L27.7 -36.3 27.4 -36.15 27.2 -35.95 27.05 -35.75 26.6 -35.3 26.5 -34.9 26.65 -34.6 27.05 -34.3 27.65 -33.6 27.5 -33.0 27.35 -32.9 23.55 -28.65 23.4 -28.45 Q23.2 -28.2 23.4 -28.0 L23.6 -27.85 24.35 -27.15 Q24.7 -26.9 24.85 -26.9 L25.1 -27.05 25.35 -27.35 25.65 -27.6 26.0 -28.05 26.8 -28.9 27.3 -29.55 29.25 -31.65 29.6 -31.7 30.45 -31.15 30.75 -30.9 31.05 -30.8 31.35 -30.95 31.45 -31.1 32.25 -32.0 32.2 -32.3 32.1 -32.5 31.75 -32.7 31.4 -33.1 31.2 -33.25 30.7 -33.7 30.55 -33.9 28.1 -36.1" fill="#b07f00" fill-rule="evenodd" stroke="none"/>
    <path d="M-25.75 25.95 L-25.7 25.95 -25.7 26.0 -25.65 26.05 -25.2 26.4 -25.0 26.5 Q-24.75 26.75 -24.9 27.55 L-24.95 28.3 -25.0 28.55 -25.1 30.25 -25.0 30.85 -24.45 30.8 -23.75 30.6 -23.5 30.5 -23.05 30.4 -21.8 29.85 -21.6 29.8 -21.45 29.7 -21.05 29.8 -20.6 30.25 -20.35 30.4 -20.15 30.6 Q-19.9 30.85 -20.1 31.15 L-21.65 32.9 -23.85 35.65 -23.95 35.8 -24.4 36.2 -24.75 36.75 -24.95 36.9 -25.0 37.0 -25.7 36.95 -26.1 36.6 -26.4 36.4 -26.6 36.2 Q-26.8 36.1 -26.6 35.8 L-26.4 35.5 -25.8 34.75 -24.7 33.55 -24.6 33.35 Q-24.45 33.2 -24.6 33.05 L-25.25 33.0 -25.75 33.1 -26.2 33.2 -26.9 33.15 -26.95 33.0 -27.0 32.65 -27.0 31.25 -27.1 30.55 -27.35 30.45 -27.75 30.75 -28.45 31.65 -28.85 32.05 -29.75 33.2 -30.3 33.25 -30.5 33.0 -31.15 32.5 -31.3 32.1 -31.2 31.85 -30.75 31.35 -29.0 29.15 -28.65 28.8 -27.85 27.9 -26.4 26.0 -25.95 25.85 -25.8 25.9 -25.75 25.95" fill="#ffd245" fill-rule="evenodd" stroke="none"/>
    <path d="M-26.1 25.85 Q-26.3 25.85 -26.4 26.0 L-27.85 27.9 -28.5 28.6 -28.65 28.8 -29.0 29.15 -30.75 31.35 -31.2 31.85 -31.3 32.1 -31.15 32.5 -30.5 33.0 -30.3 33.25 -30.0 33.3 -29.75 33.2 -28.85 32.05 -28.45 31.65 -27.75 30.75 -27.35 30.45 -27.3 30.45 -27.1 30.55 -27.0 31.25 -27.0 32.65 -26.95 33.0 -26.9 33.15 -26.6 33.25 -26.2 33.2 -25.75 33.1 -24.9 32.95 -24.6 33.05 Q-24.45 33.2 -24.6 33.35 L-24.7 33.55 -25.8 34.75 -26.4 35.5 -26.6 35.8 Q-26.8 36.1 -26.6 36.2 L-26.4 36.4 -26.1 36.6 -25.7 36.95 -25.3 37.15 -25.0 37.0 -24.95 36.9 -24.75 36.75 -24.4 36.2 -23.95 35.8 -23.85 35.65 -21.65 32.9 -20.1 31.15 Q-19.9 30.85 -20.15 30.6 L-20.35 30.4 -20.6 30.25 -21.05 29.8 -21.4 29.7 -21.45 29.7 -21.6 29.8 -21.8 29.85 -23.05 30.4 -23.5 30.5 -23.75 30.6 -24.85 30.9 -25.0 30.85 -25.1 30.25 -25.0 28.55 -24.95 28.3 -24.9 27.55 Q-24.75 26.75 -25.0 26.5 L-25.2 26.4 -25.65 26.05 -25.7 26.0 -25.7 25.95 -25.75 25.95 -25.8 25.9 -25.95 25.85 -26.1 25.85 M-28.55 27.15 L-28.35 26.85 -28.25 26.8 -28.15 26.6 -27.85 26.3 -27.15 25.35 Q-26.8 24.85 -26.1 24.85 L-25.85 24.85 Q-25.5 24.85 -25.15 25.15 L-25.05 25.25 -24.7 25.5 -24.65 25.55 -24.4 25.75 Q-23.95 26.15 -23.85 26.65 L-23.9 27.65 -23.9 27.9 -23.95 28.4 -24.0 28.65 -24.0 28.9 -24.05 29.15 -24.05 29.65 -23.85 29.55 -23.55 29.5 -23.45 29.45 -23.25 29.4 -22.95 29.25 -22.8 29.2 -22.15 28.9 -22.0 28.9 -21.95 28.85 -21.9 28.85 -21.5 28.7 -21.4 28.7 Q-20.9 28.7 -20.4 29.05 L-20.15 29.3 -19.95 29.45 -19.9 29.5 -19.5 29.8 -19.5 29.85 Q-19.1 30.25 -19.0 30.8 -18.95 31.35 -19.3 31.8 L-19.45 31.9 -19.6 32.1 -20.9 33.55 -21.55 34.4 -21.7 34.55 -23.1 36.3 -23.65 36.85 -23.7 37.0 -23.95 37.35 -24.25 37.65 Q-24.6 38.15 -25.3 38.15 -25.8 38.15 -26.35 37.75 L-26.6 37.5 -27.0 37.2 -27.05 37.15 -27.25 37.0 -27.7 36.2 Q-27.75 35.7 -27.4 35.15 L-27.3 35.05 -27.0 34.65 -26.8 34.5 -26.7 34.35 -26.65 34.25 Q-27.15 34.25 -27.5 33.9 L-27.9 33.4 -28.0 32.6 -28.1 32.7 -28.75 33.55 -28.85 33.65 -29.0 33.85 Q-29.35 34.3 -30.0 34.3 L-30.95 34.0 -31.1 33.8 -31.15 33.75 -31.35 33.6 -31.5 33.45 -31.8 33.3 Q-32.4 32.8 -32.3 31.9 L-32.3 31.8 -32.0 31.25 -31.45 30.55 -30.75 29.8 -30.55 29.5 -30.3 29.25 -30.0 28.85 -29.9 28.75 -29.55 28.3 -29.45 28.2 -29.4 28.1 -29.3 27.95 -29.1 27.8 -29.0 27.65 -28.75 27.4 -28.65 27.25 -28.55 27.15" fill="#b07f00" fill-rule="evenodd" stroke="none"/>
    <path d="M-15.0 33.25 Q-14.65 33.45 -14.85 33.8 L-15.05 34.1 -15.25 34.65 -15.5 34.85 -15.7 34.85 -16.0 34.8 -16.3 34.6 -16.8 34.4 -16.9 34.3 -17.45 33.95 -18.1 33.75 -18.5 34.1 -18.7 34.65 -18.5 35.0 -18.15 35.25 -17.55 35.5 -17.1 35.8 -16.65 36.0 -16.35 36.2 -16.35 36.6 -16.5 36.9 -16.9 37.5 Q-17.15 37.85 -17.55 37.65 L-18.35 37.2 -18.6 37.1 -18.9 36.9 -19.35 36.7 -19.6 36.65 Q-19.8 36.6 -20.0 37.0 L-20.25 37.75 -19.65 38.35 -18.3 39.05 -18.05 39.15 -17.75 39.6 -17.9 40.05 -17.95 40.15 -18.05 40.45 -18.2 40.75 Q-18.4 41.1 -18.75 40.9 L-18.9 40.8 -19.1 40.7 -19.3 40.55 -19.6 40.45 -20.1 40.15 -20.55 39.95 -22.0 39.15 -22.3 38.95 -22.65 38.8 -22.9 38.55 -22.9 38.05 -22.7 37.75 -22.55 37.4 -20.8 34.05 -20.6 33.8 -20.4 33.3 -19.8 32.3 -19.55 31.75 -19.25 31.35 -18.75 31.25 -16.85 32.3 -15.0 33.25" fill="#ffd245" fill-rule="evenodd" stroke="none"/>
    <path d="M-15.0 33.25 L-15.45 33.05 -18.75 31.25 -18.95 31.2 Q-19.25 31.2 -19.25 31.35 L-19.55 31.75 -19.8 32.3 -20.4 33.3 -20.6 33.8 -20.8 34.05 -22.55 37.4 -22.7 37.75 -22.9 38.05 -22.9 38.55 -22.65 38.8 -22.3 38.95 -22.0 39.15 -20.55 39.95 -20.1 40.15 -19.6 40.45 -19.3 40.55 -19.1 40.7 -18.9 40.8 -18.75 40.9 -18.5 40.95 -18.2 40.75 -18.05 40.45 -17.95 40.15 -17.9 40.05 -17.75 39.6 -18.05 39.15 -18.3 39.05 -19.65 38.35 -20.25 37.75 -20.0 37.0 Q-19.8 36.65 -19.6 36.65 L-19.35 36.7 -18.9 36.9 -18.6 37.1 -18.35 37.2 -17.55 37.65 -17.25 37.75 -16.9 37.5 -16.5 36.9 -16.35 36.6 -16.35 36.2 -16.65 36.0 -17.1 35.8 -17.55 35.5 -18.15 35.25 -18.5 35.0 -18.7 34.65 -18.5 34.1 -18.05 33.75 -17.45 33.95 -16.9 34.3 -16.8 34.4 -16.3 34.6 -16.0 34.8 -15.7 34.85 -15.65 34.9 -15.5 34.85 -15.25 34.65 -15.05 34.1 -14.85 33.8 Q-14.65 33.45 -15.0 33.25 M-18.05 30.5 L-17.9 30.6 -16.4 31.4 -16.25 31.45 -15.9 31.65 -15.65 31.75 -15.0 32.15 -14.55 32.35 Q-14.0 32.65 -13.85 33.2 -13.7 33.75 -13.95 34.25 L-14.15 34.55 -14.35 35.1 -15.05 35.75 -15.4 35.85 Q-15.15 36.55 -15.5 37.1 L-16.0 38.05 -16.05 38.05 -16.1 38.1 -16.1 38.15 -17.05 38.75 Q-16.7 39.1 -16.75 39.6 L-17.0 40.5 -17.0 40.6 -17.1 40.85 -17.15 40.9 -17.15 40.95 -17.3 41.2 Q-17.7 41.95 -18.5 41.95 L-19.2 41.8 -19.3 41.7 -19.35 41.7 -19.45 41.65 -19.55 41.55 -20.1 41.3 -20.15 41.25 -20.3 41.2 -20.35 41.15 -20.4 41.15 -20.55 41.05 -21.95 40.3 -22.0 40.3 -22.45 40.05 -22.75 39.85 -23.15 39.7 Q-23.75 39.4 -23.85 38.9 -24.1 38.2 -23.75 37.6 L-23.55 37.2 -23.45 36.9 -23.35 36.75 -22.5 35.1 -22.35 34.9 -21.8 33.75 -21.6 33.5 -21.55 33.35 -21.5 33.3 -21.45 33.15 -21.3 32.85 -21.1 32.55 -21.0 32.35 -20.8 32.05 -20.45 31.3 -19.85 30.5 Q-19.4 30.2 -18.95 30.2 L-18.3 30.4 -18.05 30.5" fill="#b07f00" fill-rule="evenodd" stroke="none"/>
    <path d="M-13.8 40.55 Q-13.6 40.8 -12.8 41.05 L-12.55 41.15 -11.65 41.1 -10.75 40.35 -10.35 39.6 -10.2 39.1 -10.2 38.75 -10.15 38.5 -10.3 38.05 -10.55 37.55 -10.85 37.15 -11.85 36.65 -12.25 36.55 -12.5 36.6 -12.95 37.1 -13.85 40.05 -13.8 40.55 M-13.85 33.95 L-11.05 34.75 -10.85 34.85 -10.7 34.9 -10.2 35.15 -10.1 35.25 Q-9.85 35.35 -9.85 35.4 L-9.7 35.55 -9.4 35.75 -9.25 35.9 -8.8 36.55 Q-8.35 37.3 -8.25 38.0 L-8.2 38.75 -8.3 39.7 -8.45 39.95 -8.55 40.4 -8.85 41.05 -9.15 41.55 -9.3 41.7 -9.45 41.95 -9.7 42.1 -9.95 42.35 -10.7 42.8 -11.4 43.0 -11.8 43.0 -12.05 43.05 -12.5 43.0 -14.4 42.55 -15.8 42.1 Q-16.5 41.75 -16.4 41.45 L-16.25 41.1 -15.0 36.95 -14.3 34.5 -13.85 33.95" fill="#ffd245" fill-rule="evenodd" stroke="none"/>
    <path d="M-11.4 38.1 L-11.6 37.85 -12.05 37.6 -12.1 37.8 -12.15 37.9 -12.8 40.0 -12.5 40.1 -12.4 40.15 -11.9 40.15 -11.3 39.35 -11.2 39.0 -11.2 38.5 -11.25 38.25 -11.35 38.2 -11.35 38.15 -11.4 38.1 M-13.8 40.55 L-13.85 40.05 -12.95 37.1 -12.5 36.6 -12.35 36.55 -12.25 36.55 -11.85 36.65 -10.85 37.15 -10.55 37.55 -10.3 38.05 -10.15 38.5 -10.2 38.75 -10.2 39.1 -10.35 39.6 -10.75 40.35 -11.65 41.1 -12.55 41.15 -12.8 41.05 Q-13.6 40.8 -13.8 40.55 M-13.85 33.95 L-14.3 34.5 -15.0 36.95 -16.25 41.1 -16.4 41.45 Q-16.5 41.75 -15.8 42.1 L-14.4 42.55 -12.5 43.0 -12.1 43.05 -12.05 43.05 -11.8 43.0 -11.4 43.0 -10.7 42.8 -9.95 42.35 -9.7 42.1 -9.45 41.95 -9.3 41.7 -9.15 41.55 -8.85 41.05 -8.55 40.4 -8.45 39.95 -8.3 39.7 -8.2 38.75 -8.25 38.0 Q-8.35 37.3 -8.8 36.55 L-9.25 35.9 -9.4 35.75 -9.7 35.55 -9.85 35.4 Q-9.85 35.35 -10.1 35.25 L-10.2 35.15 -10.7 34.9 -10.85 34.85 -11.05 34.75 -13.85 33.95 M-13.9 32.95 L-13.85 32.95 Q-13.35 32.95 -12.5 33.3 L-12.15 33.4 -12.1 33.4 -11.9 33.5 -11.2 33.65 -11.0 33.75 -10.95 33.75 -10.75 33.8 -10.55 33.9 -10.5 33.9 -10.4 33.95 Q-10.0 34.05 -9.65 34.3 L-9.55 34.4 -9.25 34.6 -9.15 34.65 -9.05 34.75 -8.9 34.85 -8.9 34.9 -8.85 34.9 -8.75 35.05 -8.6 35.1 -8.6 35.15 -8.55 35.15 -7.95 35.9 Q-7.35 36.85 -7.25 37.85 L-7.2 38.8 -7.35 40.0 -7.45 40.15 -7.45 40.25 -7.5 40.45 -7.6 40.7 -7.95 41.5 -8.4 42.2 -8.55 42.35 -8.55 42.4 -8.8 42.65 -9.05 42.85 -9.05 42.9 -9.15 42.95 -9.35 43.15 -10.25 43.7 -11.25 44.0 -11.75 44.0 -11.95 44.05 -12.1 44.05 -12.45 44.0 -12.55 44.0 -14.7 43.5 -16.1 43.05 Q-17.1 42.75 -17.35 42.0 L-17.35 41.15 -17.2 40.8 -16.85 39.5 -16.85 39.4 -16.15 37.3 -16.15 37.2 -16.1 37.05 -16.0 36.85 -15.35 34.7 -15.25 34.2 Q-14.85 33.05 -13.9 32.95" fill="#b07f00" fill-rule="evenodd" stroke="none"/>
    <path d="M-2.3 38.85 L-2.3 39.0 -2.05 40.75 -2.1 41.1 -2.0 41.3 -1.95 42.15 -1.9 42.4 -1.7 43.9 -1.7 44.15 -1.65 44.4 -1.65 44.75 Q-1.65 45.0 -2.2 44.9 L-2.85 44.9 -3.5 44.7 -3.75 44.25 -3.8 43.95 -3.85 43.8 -4.15 43.4 -5.25 43.2 -5.65 43.25 -6.15 43.4 -6.55 44.1 -6.65 44.3 -7.1 44.35 -8.05 44.25 -8.4 44.15 -8.55 43.8 -8.3 43.1 -8.25 42.85 -8.1 42.45 -8.0 41.9 -7.75 41.2 -7.6 40.9 -6.65 38.05 -6.55 37.85 -6.35 37.3 Q-6.0 36.05 -5.2 36.1 L-4.9 36.15 -3.7 36.25 Q-3.25 36.25 -2.8 36.6 -2.6 36.8 -2.55 37.25 L-2.3 38.85 M-4.25 38.8 Q-4.3 38.5 -4.5 38.5 L-4.7 38.6 -5.05 39.35 -5.15 39.65 -5.2 39.9 -5.4 40.4 -5.5 40.8 Q-5.55 41.35 -4.8 41.45 L-4.25 41.45 -4.0 41.2 -3.95 41.05 -4.05 40.25 -4.1 39.9 -4.1 39.5 -4.25 38.8" fill="#ffd245" fill-rule="evenodd" stroke="none"/>
    <path d="M-4.25 38.8 L-4.1 39.5 -4.1 39.9 -4.05 40.25 -3.95 41.05 -4.0 41.2 -4.25 41.45 -4.8 41.45 Q-5.55 41.35 -5.5 40.8 L-5.4 40.4 -5.2 39.9 -5.15 39.65 -5.05 39.35 -4.7 38.6 -4.5 38.5 Q-4.3 38.5 -4.25 38.8 M-2.55 37.25 Q-2.6 36.8 -2.8 36.6 -3.15 36.25 -3.65 36.25 L-3.7 36.25 -4.9 36.15 -5.2 36.1 -5.35 36.1 Q-5.95 36.1 -6.35 37.3 L-6.55 37.85 -6.65 38.05 -7.6 40.9 -7.75 41.2 -8.0 41.9 -8.1 42.45 -8.25 42.85 -8.3 43.1 -8.55 43.8 -8.4 44.15 -8.05 44.25 -7.1 44.35 -6.85 44.4 -6.65 44.3 -6.55 44.1 -6.15 43.4 -5.65 43.25 -5.35 43.2 -5.25 43.2 -4.15 43.4 -3.85 43.8 -3.8 43.95 -3.75 44.25 -3.5 44.7 -2.85 44.9 -2.2 44.9 -1.95 44.95 -1.65 44.75 -1.65 44.4 -1.7 44.15 -1.7 43.9 -1.85 42.95 -1.9 42.4 -1.95 42.15 -2.0 41.3 -2.1 41.1 -2.05 40.75 -2.3 39.0 -2.3 38.85 -2.55 37.25 M-1.45 37.6 L-1.45 37.7 -1.4 38.0 -1.4 38.05 -1.35 38.55 -1.35 38.7 -1.3 38.75 -1.3 38.9 -1.2 39.65 -1.2 39.9 -1.05 40.75 -1.1 40.9 -1.1 40.95 -1.05 41.1 -1.05 41.15 -1.0 41.2 -1.0 41.4 -0.95 41.7 -0.95 42.0 -0.9 42.2 -0.75 43.8 -0.7 43.9 -0.7 44.0 -0.65 44.35 -0.65 44.3 -0.65 44.85 Q-0.75 45.95 -1.95 45.95 L-2.3 45.9 -2.55 45.9 -2.95 45.85 Q-4.4 45.75 -4.75 44.45 L-4.75 44.3 -5.35 44.2 -5.5 44.25 -5.55 44.3 Q-5.6 44.75 -6.05 45.1 L-6.85 45.4 -7.55 45.3 -7.9 45.3 -8.15 45.25 Q-8.85 45.15 -9.15 44.8 L-9.0 45.0 Q-9.65 44.45 -9.55 43.7 L-9.35 43.05 -9.35 43.0 -9.3 43.0 -9.3 42.85 -9.25 42.7 -9.2 42.6 -9.05 42.15 -8.95 41.65 -8.95 41.6 -8.65 40.85 -8.6 40.65 -8.55 40.6 -8.4 40.1 -8.05 39.1 -8.0 38.95 -7.95 38.85 -7.6 37.8 -7.6 37.75 -7.5 37.45 -7.4 37.25 -7.35 37.25 -7.35 37.15 -7.3 37.05 Q-6.8 35.1 -5.35 35.1 L-5.1 35.1 -3.75 35.25 -3.65 35.25 Q-2.75 35.25 -2.15 35.85 -1.6 36.4 -1.55 37.1 L-1.45 37.6" fill="#b07f00" fill-rule="evenodd" stroke="none"/>
    <path d="M1.25 36.45 Q1.7 36.45 1.7 36.85 L1.7 38.4 1.95 42.35 Q1.95 42.8 2.25 42.85 L4.05 42.8 4.45 42.75 Q4.85 42.75 4.85 43.1 L4.85 43.4 4.8 43.8 4.9 44.3 Q4.9 44.75 4.4 44.75 L2.55 44.8 2.15 44.85 1.85 44.85 1.55 44.9 0.5 44.95 Q0.0 44.95 0.0 44.35 L-0.05 42.4 -0.15 41.5 -0.3 38.35 -0.35 38.05 -0.35 37.4 -0.4 36.95 Q-0.4 36.55 -0.05 36.55 L0.7 36.5 1.0 36.45 1.25 36.45" fill="#ffd245" fill-rule="evenodd" stroke="none"/>
    <path d="M-0.1 35.55 L0.8 35.5 0.85 35.45 1.25 35.45 Q1.85 35.45 2.25 35.85 2.65 36.2 2.7 36.8 L2.75 39.0 2.75 39.15 2.8 39.4 2.8 40.0 2.85 40.25 2.85 41.4 2.9 41.85 3.3 41.85 3.55 41.8 4.1 41.8 4.4 41.75 4.5 41.75 Q5.05 41.75 5.45 42.1 L5.85 43.05 5.85 43.35 5.8 43.65 5.8 43.75 5.85 43.9 5.9 44.25 5.55 45.3 Q5.1 45.75 4.45 45.75 L3.9 45.75 3.65 45.8 2.6 45.8 2.4 45.85 1.8 45.85 1.6 45.9 0.9 45.9 0.55 45.95 0.45 45.95 Q-0.1 45.95 -0.5 45.55 -0.95 45.15 -1.0 44.4 L-1.05 42.45 -1.1 42.05 -1.2 39.9 -1.25 39.65 -1.3 38.35 -1.35 38.1 -1.35 37.45 -1.4 37.3 -1.4 37.0 Q-1.4 36.3 -1.05 35.95 -0.65 35.55 -0.1 35.55 M0.7 36.5 L-0.05 36.55 Q-0.4 36.55 -0.4 36.95 L-0.35 37.4 -0.35 38.05 -0.3 38.35 -0.15 41.5 -0.05 42.4 0.0 44.35 Q0.0 44.95 0.45 44.95 L0.5 44.95 1.0 44.9 1.55 44.9 1.85 44.85 2.15 44.85 2.55 44.8 4.4 44.75 Q4.9 44.75 4.9 44.3 L4.8 43.8 4.85 43.4 4.85 43.1 Q4.85 42.75 4.5 42.75 L4.45 42.75 4.05 42.8 2.25 42.85 Q1.95 42.8 1.95 42.35 L1.7 38.4 1.7 36.85 Q1.7 36.45 1.25 36.45 L1.0 36.45 0.7 36.5" fill="#b07f00" fill-rule="evenodd" stroke="none"/>
    <path d="M7.15 36.2 L7.3 37.35 7.4 37.7 7.5 38.4 7.8 39.55 7.95 40.75 8.2 41.6 8.6 42.05 10.75 41.6 Q11.05 41.55 11.2 41.9 L11.2 42.2 11.25 42.6 11.4 43.05 Q11.5 43.5 11.0 43.6 L7.2 44.35 Q6.75 44.45 6.55 43.85 L6.25 41.95 5.45 38.35 5.4 37.95 5.3 37.7 5.2 37.0 5.05 36.6 Q5.05 36.2 5.35 36.15 L6.1 36.0 6.35 35.9 6.6 35.85 Q7.0 35.8 7.15 36.2" fill="#ffd245" fill-rule="evenodd" stroke="none"/>
    <path d="M6.75 35.85 L6.6 35.85 6.35 35.9 6.1 36.0 5.35 36.15 Q5.05 36.2 5.05 36.6 L5.2 37.0 5.3 37.7 5.4 37.95 5.45 38.35 6.1 41.45 6.25 41.95 6.3 42.45 6.55 43.85 7.05 44.4 7.2 44.35 11.0 43.6 Q11.5 43.5 11.4 43.05 L11.25 42.6 11.2 42.2 11.2 41.9 10.85 41.6 10.75 41.6 9.45 41.9 8.65 42.05 8.6 42.05 8.2 41.6 7.95 40.75 7.8 39.55 7.5 38.4 7.4 37.7 7.3 37.35 7.15 36.2 Q7.1 35.85 6.75 35.85 M6.4 34.9 L6.75 34.85 Q7.85 34.85 8.1 36.0 L8.15 36.3 8.15 36.45 8.2 36.6 8.2 36.7 8.25 36.8 8.25 37.0 8.3 37.15 8.3 37.25 8.5 38.2 8.55 38.3 9.05 40.95 9.15 40.95 9.25 40.9 9.95 40.75 10.15 40.75 10.3 40.7 10.85 40.6 Q11.95 40.6 12.15 41.7 L12.2 42.1 12.2 42.0 12.25 42.3 12.25 42.4 12.3 42.5 12.4 42.85 Q12.5 43.5 12.2 43.95 11.85 44.45 11.2 44.55 L10.7 44.65 10.4 44.75 9.35 44.9 8.8 45.05 8.7 45.05 8.6 45.1 8.1 45.2 7.9 45.2 7.4 45.35 7.05 45.4 Q5.85 45.4 5.6 44.05 L5.5 43.35 4.85 40.45 4.85 40.15 4.7 39.65 4.65 39.4 4.65 39.2 4.55 38.95 4.4 38.3 4.4 38.15 4.35 37.9 4.25 37.6 4.2 37.35 4.2 37.25 4.15 37.1 4.1 36.8 Q4.0 36.15 4.3 35.7 4.6 35.25 5.15 35.15 L5.9 35.0 6.05 34.95 6.2 34.95 6.4 34.9" fill="#b07f00" fill-rule="evenodd" stroke="none"/>
    <path d="M12.1 34.4 L12.4 34.45 12.65 34.75 14.35 39.8 14.4 40.15 14.6 40.6 14.9 41.55 15.1 41.95 14.85 42.4 14.55 42.45 14.1 42.65 13.8 42.7 13.55 42.8 Q13.25 42.95 13.1 42.65 L13.0 42.4 12.8 41.65 12.3 40.35 12.25 40.15 11.0 36.2 10.7 35.45 10.65 35.1 10.8 34.85 11.0 34.8 12.1 34.4" fill="#ffd245" fill-rule="evenodd" stroke="none"/>
    <path d="M12.2 34.4 L12.1 34.4 11.0 34.8 10.8 34.85 10.65 35.1 10.7 35.45 11.0 36.2 12.25 40.15 12.3 40.35 12.8 41.65 13.0 42.4 13.1 42.65 13.4 42.85 13.8 42.7 14.1 42.65 14.55 42.45 14.85 42.4 15.1 41.95 14.9 41.55 14.6 40.6 14.4 40.15 14.35 39.8 12.75 35.15 12.65 34.75 12.4 34.45 12.2 34.4 M11.8 33.45 L12.2 33.4 12.95 33.6 13.6 34.4 13.7 34.75 13.7 34.85 13.75 34.95 14.4 36.85 14.45 37.1 14.7 37.8 14.75 38.05 14.9 38.3 15.05 38.7 15.15 39.15 15.3 39.5 15.3 39.6 15.35 39.8 15.45 40.0 15.85 41.2 16.05 41.6 15.9 42.75 15.15 43.35 14.95 43.4 14.9 43.4 14.7 43.45 14.4 43.6 14.2 43.65 14.1 43.65 14.1 43.7 13.4 43.85 Q12.7 43.85 12.25 43.2 L12.05 42.75 11.85 41.95 11.35 40.65 11.3 40.45 11.2 40.2 10.95 39.25 10.8 38.9 10.35 37.45 10.25 37.25 10.05 36.65 10.05 36.55 9.75 35.75 Q9.55 35.25 9.7 34.7 9.9 34.15 10.4 33.95 L10.45 33.9 10.5 33.9 10.65 33.85 10.7 33.85 10.9 33.75 11.1 33.7 11.35 33.6 11.55 33.55 11.6 33.5 11.8 33.45" fill="#b07f00" fill-rule="evenodd" stroke="none"/>
    <path d="M20.55 32.5 L21.2 33.0 21.5 33.35 22.3 34.65 22.6 35.4 22.75 36.25 22.7 37.25 22.4 38.25 22.15 38.55 22.0 38.8 21.55 39.35 21.25 39.55 21.1 39.7 20.8 39.9 20.15 40.2 19.9 40.25 19.6 40.35 19.35 40.4 19.0 40.4 18.65 40.45 18.3 40.35 17.05 40.0 16.5 39.7 16.2 39.5 15.65 38.85 15.0 37.8 14.85 37.4 14.65 36.45 14.6 35.9 14.65 35.65 14.65 35.1 14.75 34.75 14.8 34.45 15.05 33.9 15.4 33.4 15.8 32.9 16.65 32.3 17.85 31.9 18.8 31.9 19.6 32.1 19.9 32.2 20.55 32.5 M20.1 34.7 L19.5 34.2 18.75 33.9 18.05 33.95 17.45 34.2 17.2 34.35 16.85 34.75 16.6 35.35 16.55 36.05 16.75 36.9 16.8 37.0 17.05 37.4 17.85 38.2 18.8 38.5 19.15 38.4 19.3 38.4 19.6 38.25 19.8 38.2 20.1 38.0 20.55 37.35 20.75 36.5 20.6 35.8 20.45 35.35 20.25 35.05 20.2 34.9 20.1 34.7" fill="#ffd245" fill-rule="evenodd" stroke="none"/>
    <path d="M18.6 34.9 L18.25 34.9 17.85 35.1 17.75 35.2 17.75 35.25 17.7 35.25 17.6 35.5 17.55 35.55 17.55 36.05 17.65 36.4 17.85 36.8 17.95 36.9 18.05 37.05 18.4 37.35 18.75 37.45 19.05 37.45 19.05 37.4 19.15 37.4 19.3 37.3 19.35 37.3 19.45 37.25 19.65 36.9 19.75 36.5 19.7 36.4 19.65 36.05 19.4 35.5 19.3 35.35 19.0 35.1 18.95 35.05 18.75 34.95 18.6 34.9 M20.1 34.7 L20.2 34.9 20.25 35.05 20.45 35.35 20.6 35.8 20.75 36.5 20.55 37.35 20.1 38.0 19.8 38.2 19.6 38.25 19.3 38.4 19.15 38.4 18.8 38.5 17.85 38.2 17.05 37.4 16.8 37.0 16.75 36.9 16.55 36.05 16.6 35.35 16.85 34.75 17.2 34.35 17.45 34.2 18.05 33.95 18.6 33.9 18.75 33.9 19.5 34.2 20.1 34.7 M18.8 30.9 L19.9 31.1 20.3 31.3 20.45 31.3 20.55 31.35 21.2 31.75 21.85 32.25 22.3 32.75 22.8 33.5 23.2 34.2 23.55 35.2 23.6 35.3 23.75 36.1 23.7 37.35 23.25 38.75 22.8 39.45 22.85 39.3 22.2 40.1 22.0 40.25 21.9 40.35 21.85 40.35 21.7 40.5 21.25 40.8 19.85 41.3 19.4 41.4 19.15 41.4 18.75 41.45 18.55 41.45 18.2 41.4 18.1 41.35 16.65 40.95 16.0 40.55 15.9 40.5 15.85 40.45 15.8 40.45 15.6 40.3 15.55 40.25 14.85 39.45 14.8 39.4 14.1 38.25 13.9 37.65 13.65 36.55 13.6 35.9 13.65 35.6 13.65 34.95 13.75 34.6 13.75 34.45 14.0 33.7 14.05 33.65 14.15 33.45 14.6 32.75 14.8 32.55 14.8 32.5 14.85 32.5 14.9 32.45 15.1 32.2 16.2 31.4 16.75 31.2 16.95 31.15 17.75 30.95 17.8 30.9 18.8 30.9 M19.6 32.1 L18.8 31.9 17.85 31.9 16.65 32.3 15.8 32.9 15.4 33.4 15.05 33.9 14.8 34.45 14.75 34.75 14.65 35.1 14.65 35.65 14.6 35.9 14.65 36.45 14.85 37.4 15.0 37.8 15.65 38.85 16.2 39.5 16.5 39.7 17.05 40.0 18.3 40.35 18.65 40.45 18.75 40.45 19.0 40.4 19.35 40.4 19.6 40.35 19.9 40.25 20.15 40.2 20.8 39.9 21.1 39.7 21.25 39.55 21.55 39.35 22.0 38.8 22.15 38.55 22.4 38.25 22.7 37.25 22.75 36.25 22.6 35.4 22.3 34.65 21.5 33.35 21.2 33.0 20.55 32.5 20.15 32.3 19.6 32.1" fill="#b07f00" fill-rule="evenodd" stroke="none"/>
    <path d="M24.9 26.7 L25.1 26.6 25.25 26.45 25.45 26.3 25.6 26.15 Q25.75 25.9 26.1 26.25 L26.45 26.7 26.8 27.15 27.55 28.05 28.15 28.9 29.85 30.9 29.95 31.05 30.1 31.2 30.9 32.1 Q31.2 32.4 30.85 32.7 L30.15 33.2 29.95 33.4 29.2 33.35 27.25 32.65 26.95 32.6 26.7 32.5 26.3 32.4 25.05 31.95 24.85 31.9 24.65 31.95 24.65 32.2 25.05 32.7 25.8 33.65 25.9 33.8 27.15 35.15 Q27.4 35.4 27.15 35.65 L27.0 35.75 26.75 36.05 26.55 36.2 26.25 36.5 25.95 36.65 Q25.75 36.65 25.65 36.5 L24.8 35.5 24.6 35.2 24.4 35.0 24.05 34.55 23.8 34.3 22.85 33.05 22.35 32.55 21.9 31.95 21.4 31.45 21.25 31.2 20.75 30.7 20.6 30.45 Q20.5 30.35 20.65 30.15 L20.9 30.05 20.95 30.0 21.0 29.9 21.05 29.85 21.25 29.75 21.3 29.65 21.75 29.35 21.85 29.3 22.05 29.15 22.3 29.15 23.55 29.55 23.7 29.55 25.15 30.05 Q25.8 30.2 26.3 30.5 L27.05 30.75 26.8 30.25 26.6 30.0 26.45 29.85 26.25 29.55 25.65 28.8 25.25 28.4 24.7 27.7 24.45 27.45 24.4 27.1 24.9 26.7" fill="#ffd245" fill-rule="evenodd" stroke="none"/>
    <path d="M24.65 25.65 L24.95 25.35 25.75 25.1 Q26.35 25.1 26.9 25.65 L27.2 26.1 27.35 26.25 29.1 28.45 29.3 28.65 29.9 29.4 30.65 30.25 30.75 30.4 30.8 30.5 30.85 30.55 30.85 30.6 31.7 31.45 Q32.05 31.85 32.05 32.45 31.95 33.05 31.45 33.45 L31.3 33.6 31.15 33.7 30.95 33.9 30.8 33.95 30.8 34.0 30.6 34.15 Q30.25 34.5 29.7 34.5 L28.8 34.25 27.2 33.7 27.25 33.75 27.5 34.1 27.55 34.1 27.95 34.5 28.25 35.45 27.95 36.25 28.0 36.2 27.65 36.5 27.65 36.55 27.1 37.1 26.9 37.25 Q26.6 37.55 26.05 37.65 L25.9 37.65 Q25.3 37.65 24.85 37.15 L24.85 37.1 24.8 37.1 24.55 36.8 24.25 36.35 24.05 36.15 24.0 36.05 23.8 35.85 23.4 35.35 23.3 35.2 23.1 35.0 22.25 33.95 22.2 33.9 21.4 32.95 21.15 32.6 20.55 31.95 20.5 31.85 20.45 31.85 20.35 31.7 19.95 31.3 19.65 30.85 Q19.3 30.0 20.0 29.4 L20.25 29.25 20.35 29.15 20.45 29.1 20.6 28.95 20.7 28.9 20.8 28.75 21.4 28.4 21.7 28.25 22.25 28.15 22.45 28.15 24.15 28.65 24.2 28.65 24.05 28.5 23.95 28.35 23.7 28.1 Q23.1 27.45 23.55 26.65 L23.55 26.6 24.0 26.15 24.3 25.95 24.5 25.75 24.65 25.65 M24.9 26.7 L24.4 27.1 24.45 27.45 24.7 27.7 25.25 28.4 25.65 28.8 26.25 29.55 26.45 29.85 26.6 30.0 26.8 30.25 27.05 30.75 26.3 30.5 Q25.8 30.2 25.15 30.05 L23.7 29.55 23.55 29.55 22.3 29.15 22.05 29.15 21.85 29.3 21.75 29.35 21.3 29.65 21.25 29.75 21.05 29.85 21.0 29.9 20.95 30.0 20.9 30.05 20.65 30.15 Q20.5 30.35 20.6 30.45 L20.75 30.7 21.25 31.2 21.4 31.45 21.9 31.95 22.35 32.55 22.85 33.05 24.4 35.0 24.6 35.2 24.8 35.5 25.65 36.5 25.9 36.65 25.95 36.65 26.25 36.5 26.55 36.2 26.75 36.05 27.0 35.75 27.15 35.65 Q27.4 35.4 27.15 35.15 L25.9 33.8 25.8 33.65 25.05 32.7 24.65 32.2 24.65 31.95 24.85 31.9 25.05 31.95 26.3 32.4 26.7 32.5 26.95 32.6 27.25 32.65 29.7 33.5 29.95 33.4 30.15 33.2 30.85 32.7 Q31.2 32.4 30.9 32.1 L29.95 31.05 29.85 30.9 27.55 28.05 26.8 27.15 26.45 26.7 26.1 26.25 25.75 26.1 25.6 26.15 25.45 26.3 25.25 26.45 25.1 26.6 24.9 26.7" fill="#b07f00" fill-rule="evenodd" stroke="none"/>
  </g>
</svg>
