<?xml version="1.0" encoding="UTF-8" standalone="no"?>
<svg xmlns:ffdec="https://www.free-decompiler.com/flash" xmlns:xlink="http://www.w3.org/1999/xlink" ffdec:objectType="shape" height="90.9px" width="78.9px" xmlns="http://www.w3.org/2000/svg">
  <g transform="matrix(1.0, 0.0, 0.0, 1.0, 39.45, 45.85)">
    <path d="M6.35 -22.15 L6.2 -21.0 6.3 -20.95 Q9.8 -18.0 9.45 -14.3 9.1 -10.65 5.15 -8.4 1.2 -6.2 -4.05 -6.65 -9.3 -7.15 -12.75 -10.1 -16.25 -12.95 -15.9 -16.65 -15.6 -19.65 -12.9 -21.7 L-13.0 -22.45 Q-13.0 -23.95 -12.0 -25.05 -11.0 -26.05 -9.65 -26.05 -8.3 -26.05 -7.35 -25.05 L-6.75 -24.2 -3.6 -24.4 -2.7 -25.6 Q-1.1 -27.0 1.05 -27.0 3.25 -27.0 4.75 -25.6 6.35 -24.15 6.35 -22.15 M13.8 -11.8 Q14.6 -11.1 14.7 -10.15 14.8 -9.2 14.15 -8.45 13.6 -7.65 12.6 -7.55 L11.25 -7.8 Q9.15 -5.4 6.7 -3.5 L8.75 -1.25 Q13.6 4.8 15.75 16.0 11.85 14.6 5.45 15.4 L4.3 15.55 6.55 23.15 6.7 23.1 Q7.45 23.0 8.15 24.0 8.8 25.0 9.0 26.45 9.15 27.9 8.7 29.0 8.25 30.05 7.5 30.15 6.75 30.25 6.15 29.25 5.45 28.3 5.35 26.9 5.15 25.4 5.55 24.3 L5.75 23.9 3.3 15.6 Q-0.85 15.7 -3.8 13.9 L-3.45 10.85 -5.45 9.8 -5.9 9.45 Q-8.7 11.45 -8.5 13.3 -8.1 15.15 -4.7 16.95 -4.35 16.45 -3.85 16.4 -3.05 16.3 -2.4 17.3 -1.75 18.3 -1.55 19.8 -1.4 21.2 -1.85 22.3 -2.25 23.4 -3.0 23.5 -3.8 23.55 -4.4 22.6 -5.05 21.65 -5.2 20.2 -5.4 18.85 -5.05 17.9 -9.05 15.8 -9.4 13.45 -9.85 11.15 -6.65 8.75 -8.25 7.0 -8.45 4.2 -8.65 1.45 -7.85 -0.85 -14.2 -4.15 -16.95 -7.25 -17.4 -6.85 -18.05 -6.8 -19.05 -6.65 -19.8 -7.35 -20.55 -7.9 -20.7 -8.85 -20.75 -9.85 -20.2 -10.65 -19.6 -11.35 -18.6 -11.5 -17.6 -11.6 -16.9 -11.05 -16.05 -10.35 -16.0 -9.35 -15.85 -8.55 -16.3 -7.95 -13.65 -5.0 -7.55 -1.75 L-7.25 -2.4 Q-5.85 -5.3 -3.2 -5.95 -1.3 -6.4 0.55 -5.5 L0.7 -5.55 Q3.2 -6.3 5.95 -4.1 8.4 -6.0 10.55 -8.35 10.1 -8.9 10.0 -9.6 9.9 -10.6 10.45 -11.4 11.05 -12.1 12.05 -12.25 13.05 -12.35 13.8 -11.8" fill="#d3a000" fill-rule="evenodd" stroke="none"/>
    <path d="M6.35 -22.15 L6.2 -21.0 6.3 -20.95 Q9.8 -18.0 9.45 -14.3 9.1 -10.65 5.15 -8.4 1.2 -6.2 -4.05 -6.65 -9.3 -7.15 -12.75 -10.1 -16.25 -12.95 -15.9 -16.65 -15.6 -19.65 -12.9 -21.7 L-13.0 -22.45 Q-13.0 -23.95 -12.0 -25.05 -11.0 -26.05 -9.65 -26.05 -8.3 -26.05 -7.35 -25.05 L-6.75 -24.2 -3.6 -24.4 -2.7 -25.6 Q-1.1 -27.0 1.05 -27.0 3.25 -27.0 4.75 -25.6 6.35 -24.15 6.35 -22.15 M13.8 -11.8 Q14.6 -11.1 14.7 -10.15 14.8 -9.2 14.15 -8.45 13.6 -7.65 12.6 -7.55 L11.25 -7.8 Q9.15 -5.4 6.7 -3.5 L8.75 -1.25 Q13.6 4.8 15.75 16.0 11.85 14.6 5.45 15.4 L4.3 15.55 6.55 23.15 6.7 23.1 Q7.45 23.0 8.15 24.0 8.8 25.0 9.0 26.45 9.15 27.9 8.7 29.0 8.25 30.05 7.5 30.15 6.75 30.25 6.15 29.25 5.45 28.3 5.35 26.9 5.15 25.4 5.55 24.3 L5.75 23.9 3.3 15.6 Q-0.85 15.7 -3.8 13.9 L-3.45 10.85 -5.45 9.8 -5.9 9.45 Q-8.7 11.45 -8.5 13.3 -8.1 15.15 -4.7 16.95 -4.35 16.45 -3.85 16.4 -3.05 16.3 -2.4 17.3 -1.75 18.3 -1.55 19.8 -1.4 21.2 -1.85 22.3 -2.25 23.4 -3.0 23.5 -3.8 23.55 -4.4 22.6 -5.05 21.65 -5.2 20.2 -5.4 18.85 -5.05 17.9 -9.05 15.8 -9.4 13.45 -9.85 11.15 -6.65 8.75 -8.25 7.0 -8.45 4.2 -8.65 1.45 -7.85 -0.85 -14.2 -4.15 -16.95 -7.25 -17.4 -6.85 -18.05 -6.8 -19.05 -6.65 -19.8 -7.35 -20.55 -7.9 -20.7 -8.85 -20.75 -9.85 -20.2 -10.65 -19.6 -11.35 -18.6 -11.5 -17.6 -11.6 -16.9 -11.05 -16.05 -10.35 -16.0 -9.35 -15.85 -8.55 -16.3 -7.95 -13.65 -5.0 -7.55 -1.75 L-7.25 -2.4 Q-5.85 -5.3 -3.2 -5.95 -1.3 -6.4 0.55 -5.5 L0.7 -5.55 Q3.2 -6.3 5.95 -4.1 8.4 -6.0 10.55 -8.35 10.1 -8.9 10.0 -9.6 9.9 -10.6 10.45 -11.4 11.05 -12.1 12.05 -12.25 13.05 -12.35 13.8 -11.8 Z" fill="none" stroke="#d3a000" stroke-linecap="round" stroke-linejoin="miter-clip" stroke-miterlimit="3.0" stroke-width="2.0"/>
    <path d="M-25.7 24.95 L-25.55 25.05 -25.5 25.1 -25.45 25.1 -25.45 25.15 -24.75 25.65 Q-24.5 25.85 -24.65 26.65 L-24.7 27.4 -24.75 27.65 -24.75 27.95 -24.85 29.35 -24.75 29.95 -24.25 29.95 -23.5 29.75 -22.85 29.5 -22.6 29.45 -21.35 28.9 -21.2 28.85 -20.8 28.95 -19.9 29.7 Q-19.6 30.0 -19.85 30.25 L-20.1 30.5 -23.6 34.8 -24.15 35.35 -24.5 35.85 -24.7 36.05 -24.75 36.15 -25.45 36.1 -26.35 35.35 Q-26.6 35.25 -26.35 34.9 L-25.55 33.9 -25.2 33.55 -25.0 33.25 -24.45 32.65 -24.35 32.45 Q-24.2 32.35 -24.35 32.2 L-25.0 32.15 -25.95 32.3 -26.65 32.25 -26.7 32.15 -26.75 31.75 -26.75 30.4 -26.85 29.7 -27.1 29.6 -27.5 29.9 -28.2 30.75 -28.6 31.15 -29.5 32.3 -30.05 32.35 -30.5 31.9 -30.7 31.75 -30.9 31.65 -31.05 31.2 -30.95 31.0 -28.25 27.7 -27.6 27.0 -27.1 26.3 -26.15 25.1 Q-26.05 24.95 -25.7 24.95" fill="#ffd245" fill-rule="evenodd" stroke="none"/>
    <path d="M-26.9 24.45 Q-26.55 23.95 -25.85 23.95 L-25.6 23.95 Q-25.15 24.05 -24.9 24.3 L-24.8 24.35 -24.15 24.85 Q-23.45 25.45 -23.65 26.8 L-23.65 27.05 -23.7 27.55 -23.75 27.75 -23.75 28.0 -23.8 28.35 -23.8 28.75 -23.75 28.75 -23.3 28.6 -23.25 28.6 -22.55 28.35 -22.4 28.25 -21.9 28.05 -21.85 28.0 -21.8 28.0 -21.7 27.95 -21.65 27.95 -21.4 27.85 -21.15 27.85 Q-20.55 27.85 -20.2 28.15 L-19.7 28.55 -19.7 28.6 -19.25 28.95 Q-18.85 29.35 -18.8 29.9 -18.75 30.5 -19.1 30.9 L-19.2 31.0 -19.7 31.6 -19.75 31.65 -20.25 32.3 -20.5 32.55 -20.65 32.65 -21.3 33.55 -21.6 33.85 -21.85 34.25 -22.3 34.75 -22.55 35.1 -22.85 35.4 -22.95 35.55 -23.05 35.65 -23.4 35.95 -23.45 36.1 -23.7 36.45 -23.9 36.65 -24.0 36.8 Q-24.4 37.3 -25.05 37.3 L-26.1 36.85 -26.35 36.6 -26.75 36.3 -26.85 36.25 -27.0 36.1 -27.45 35.3 Q-27.5 34.75 -27.15 34.3 L-27.1 34.2 -26.9 34.0 -26.75 33.8 -26.55 33.6 -26.45 33.45 -26.4 33.4 -27.25 33.05 -27.65 32.55 -27.75 31.75 -27.85 31.8 -28.5 32.65 -28.6 32.75 -28.75 32.95 Q-29.15 33.45 -29.75 33.45 -30.3 33.45 -30.65 33.1 L-30.95 32.85 -31.15 32.65 -31.15 32.7 -31.55 32.4 Q-32.15 31.9 -32.05 31.05 L-32.05 30.95 -31.75 30.35 -31.5 30.1 -31.3 29.8 -31.15 29.65 -31.05 29.5 -29.8 28.0 -29.6 27.8 -29.3 27.4 -29.15 27.25 -29.05 27.1 -29.0 27.1 -28.85 26.9 -28.75 26.8 -28.7 26.7 -28.3 26.25 -28.2 26.1 -28.05 26.0 -28.0 25.95 -27.95 25.8 -27.85 25.7 -26.9 24.45 M-25.7 24.95 L-25.85 24.95 -26.15 25.1 -27.1 26.3 -27.6 27.0 -28.25 27.7 -30.95 31.0 -31.05 31.2 -30.9 31.65 -30.7 31.75 -30.5 31.9 -30.05 32.35 -29.75 32.45 -29.5 32.3 -28.6 31.15 -28.2 30.75 -27.5 29.9 -27.1 29.6 -27.05 29.6 -26.85 29.7 -26.75 30.4 -26.75 31.75 -26.7 32.15 -26.65 32.25 -26.35 32.4 -25.95 32.3 -24.65 32.1 -24.35 32.2 Q-24.2 32.35 -24.35 32.45 L-24.45 32.65 -25.0 33.25 -25.2 33.55 -25.55 33.9 -26.35 34.9 Q-26.6 35.25 -26.35 35.35 L-25.45 36.1 -25.05 36.3 -24.75 36.15 -24.7 36.05 -24.5 35.85 -24.15 35.35 -23.6 34.8 -20.1 30.5 -19.85 30.25 Q-19.6 30.0 -19.9 29.7 L-20.8 28.95 -21.15 28.85 -21.2 28.85 -21.35 28.9 -22.6 29.45 -24.25 29.95 -24.6 30.0 -24.75 29.95 -24.85 29.35 -24.75 27.95 -24.75 27.65 -24.7 27.4 -24.65 26.65 Q-24.5 25.85 -24.75 25.65 L-25.45 25.15 -25.45 25.1 -25.5 25.1 -25.55 25.05 -25.7 24.95" fill="#b07f00" fill-rule="evenodd" stroke="none"/>
    <path d="M-21.45 34.95 L-20.55 33.15 -20.35 32.9 -19.9 31.95 -19.55 31.45 -19.3 30.85 -19.05 30.45 -18.5 30.4 -14.75 32.35 Q-14.4 32.55 -14.6 32.9 L-14.8 33.25 -15.0 33.75 -15.25 33.95 -15.45 34.0 -15.75 33.9 -16.65 33.45 -16.9 33.25 -17.2 33.1 -17.85 32.85 Q-18.05 32.9 -18.25 33.2 L-18.45 33.75 -18.25 34.1 -17.9 34.35 -17.3 34.65 -16.85 34.95 -16.1 35.3 -16.1 35.75 -16.3 36.0 -16.5 36.45 -16.65 36.65 -17.3 36.8 -18.65 36.0 -19.1 35.8 -19.35 35.75 -19.75 36.1 -20.05 36.85 -19.4 37.45 -18.05 38.15 -17.8 38.25 -17.5 38.7 -17.65 39.2 -17.7 39.25 -17.8 39.6 -17.95 39.85 Q-18.1 40.25 -18.5 40.0 L-18.65 39.9 -19.1 39.7 -19.35 39.55 -19.6 39.45 -21.3 38.55 -21.75 38.25 -22.1 38.1 -22.4 37.9 -22.7 37.65 -22.65 37.15 -22.45 36.9 -22.3 36.5 -21.45 34.95" fill="#ffd245" fill-rule="evenodd" stroke="none"/>
    <path d="M-22.45 36.9 L-22.65 37.15 -22.7 37.65 -22.4 37.9 -22.1 38.1 -21.75 38.25 -21.3 38.55 -19.6 39.45 -19.35 39.55 -19.1 39.7 -18.65 39.9 -18.5 40.0 -18.25 40.1 -17.95 39.85 -17.8 39.6 -17.7 39.25 -17.65 39.2 -17.5 38.7 -17.8 38.25 -18.05 38.15 -19.4 37.45 -20.05 36.85 -19.75 36.1 -19.35 35.75 -19.1 35.8 -18.65 36.0 -17.3 36.8 -17.0 36.85 Q-16.75 36.85 -16.65 36.65 L-16.5 36.45 -16.3 36.0 -16.1 35.75 -16.1 35.3 -16.85 34.95 -17.3 34.65 -17.9 34.35 -18.25 34.1 -18.45 33.75 -18.25 33.2 -17.8 32.85 -17.2 33.1 -16.9 33.25 -16.65 33.4 -16.55 33.5 -15.75 33.9 -15.45 34.0 -15.4 34.0 -15.25 33.95 -15.0 33.75 -14.8 33.25 -14.6 32.9 Q-14.4 32.55 -14.75 32.35 L-18.5 30.4 -18.7 30.35 -19.0 30.45 -19.3 30.85 -19.55 31.45 -19.9 31.95 -20.35 32.9 -20.55 33.15 -21.45 34.95 -22.3 36.5 -22.45 36.9 M-21.05 31.95 L-20.75 31.5 -20.45 30.95 -20.2 30.4 -19.6 29.65 -18.7 29.35 -18.05 29.5 -17.7 29.7 -17.65 29.75 -16.8 30.15 -16.5 30.35 -16.15 30.5 -16.05 30.6 Q-15.85 30.7 -15.7 30.75 L-14.3 31.5 Q-13.7 31.75 -13.6 32.3 -13.4 32.85 -13.7 33.4 L-13.8 33.5 -14.15 34.2 -14.85 34.85 -15.15 35.0 Q-14.9 35.7 -15.25 36.25 L-15.6 36.9 -15.8 37.15 -15.8 37.2 -15.85 37.25 -16.8 37.85 Q-16.45 38.3 -16.5 38.7 L-16.75 39.65 -16.8 39.7 -16.85 39.95 -16.9 40.0 -16.9 40.05 -17.05 40.35 Q-17.45 41.1 -18.25 41.1 L-18.95 40.9 -19.0 40.85 -19.05 40.85 -19.1 40.8 -19.2 40.75 -19.25 40.75 -19.3 40.7 -19.5 40.6 -19.55 40.6 -19.85 40.45 -19.9 40.4 -20.05 40.3 -20.1 40.3 -20.15 40.25 Q-20.7 40.0 -21.3 39.7 L-21.75 39.4 -22.1 39.25 -22.2 39.15 -22.9 38.8 Q-23.45 38.5 -23.6 38.0 -23.85 37.35 -23.5 36.7 L-23.2 36.05 -22.35 34.5 -22.35 34.45 -22.3 34.4 -21.25 32.4 -21.2 32.25 -21.05 31.95" fill="#b07f00" fill-rule="evenodd" stroke="none"/>
    <path d="M-13.6 33.1 L-12.5 33.35 -12.2 33.45 -11.9 33.6 -11.2 33.75 -11.0 33.85 -10.45 34.0 -9.95 34.25 -9.85 34.35 -9.6 34.5 -9.45 34.65 -9.3 34.75 -9.15 34.9 -9.0 35.0 -8.55 35.65 Q-8.1 36.4 -8.0 37.1 L-7.95 37.9 -8.1 38.8 -8.3 39.5 -8.6 40.15 -8.9 40.65 -9.05 40.8 -9.2 41.05 -9.45 41.2 -9.7 41.45 -10.45 41.9 -11.15 42.1 -11.55 42.15 -12.25 42.15 -14.15 41.65 -15.55 41.2 Q-16.3 41.0 -16.15 40.55 L-16.0 40.2 -15.5 38.35 -15.2 37.5 -14.75 36.05 -14.05 33.6 Q-13.8 33.1 -13.6 33.1 M-12.0 35.65 L-12.25 35.7 -12.7 36.25 -13.6 39.15 -13.55 39.65 Q-13.35 39.95 -12.55 40.2 L-12.3 40.25 -11.4 40.2 Q-10.9 40.1 -10.5 39.5 L-10.1 38.75 -9.95 38.25 -9.95 37.85 -9.9 37.65 -10.05 37.15 -10.3 36.7 -10.6 36.25 Q-10.85 36.0 -11.6 35.75 L-12.0 35.65" fill="#ffd245" fill-rule="evenodd" stroke="none"/>
    <path d="M-11.9 36.95 L-11.9 37.05 -12.2 37.9 -12.2 37.95 -12.55 39.1 -12.25 39.25 -11.65 39.25 Q-11.25 39.15 -11.05 38.45 L-10.95 38.15 -10.95 37.6 -11.0 37.4 -11.15 37.25 -11.35 36.95 -11.8 36.75 -11.9 36.95 M-12.25 35.7 L-12.1 35.65 -12.0 35.65 -11.6 35.75 Q-10.85 36.0 -10.6 36.25 L-10.3 36.7 -10.05 37.15 -9.9 37.65 -9.95 37.85 -9.95 38.25 -10.1 38.75 -10.5 39.5 Q-10.9 40.1 -11.4 40.2 L-12.3 40.25 -12.55 40.2 Q-13.35 39.95 -13.55 39.65 L-13.6 39.15 -12.7 36.25 -12.25 35.7 M-13.6 33.1 Q-13.8 33.1 -14.05 33.6 L-14.75 36.05 -15.2 37.5 -15.5 38.35 -16.0 40.2 -16.15 40.55 Q-16.3 41.0 -15.55 41.2 L-14.15 41.65 -12.25 42.15 -11.45 42.15 -11.15 42.1 -10.45 41.9 -9.7 41.45 -9.45 41.2 -9.2 41.05 -9.05 40.8 -8.9 40.65 -8.6 40.15 -8.3 39.5 -8.1 38.8 -7.95 37.9 -8.0 37.1 Q-8.1 36.4 -8.55 35.65 L-9.0 35.0 -9.15 34.9 -9.3 34.75 -9.45 34.65 -9.6 34.5 -9.85 34.35 -9.95 34.25 -10.45 34.0 -11.0 33.85 -11.2 33.75 -11.95 33.6 -12.2 33.45 -12.5 33.35 -13.6 33.1 M-15.2 34.15 L-15.0 33.35 Q-14.6 32.1 -13.65 32.1 L-13.6 32.1 -12.2 32.4 -12.1 32.45 -11.9 32.5 -11.85 32.55 -11.65 32.6 -11.4 32.7 -10.75 32.85 -10.7 32.85 -10.3 33.0 -10.25 33.0 -9.3 33.5 -9.0 33.7 -8.9 33.75 -8.5 34.15 -8.4 34.2 -8.3 34.3 -7.7 35.05 Q-7.1 36.0 -7.0 36.95 L-6.95 37.9 -7.1 39.05 -7.2 39.25 -7.2 39.4 -7.35 39.8 -7.7 40.6 -8.15 41.3 -8.3 41.45 -8.3 41.5 -8.45 41.7 -8.5 41.75 -8.8 42.0 -8.9 42.05 -9.05 42.2 -9.05 42.25 -9.1 42.25 -10.0 42.8 -11.0 43.1 -11.05 43.1 -11.45 43.15 -12.3 43.15 -14.45 42.6 -15.85 42.15 Q-16.7 41.95 -17.0 41.3 -17.25 40.9 -17.1 40.3 L-17.0 40.0 -16.95 39.9 -16.6 38.65 -16.6 38.5 -16.1 37.05 -15.95 36.45 -15.9 36.35 -15.85 36.15 -15.7 35.75 -15.65 35.55 -15.2 34.2 -15.2 34.15" fill="#b07f00" fill-rule="evenodd" stroke="none"/>
    <path d="M-6.1 36.4 Q-5.75 35.15 -4.95 35.25 L-4.65 35.3 -3.45 35.4 Q-2.9 35.4 -2.6 35.7 L-2.3 36.35 -2.1 37.75 -2.1 37.95 -2.05 38.15 -1.85 40.2 -1.75 40.4 -1.7 41.25 -1.65 41.5 -1.6 42.1 -1.45 43.0 -1.45 43.3 -1.4 43.5 -1.4 43.85 Q-1.4 44.05 -1.95 44.05 L-2.6 44.0 -3.25 43.85 -3.5 43.4 -3.55 43.05 -3.6 42.9 -3.9 42.55 -5.0 42.35 -5.4 42.35 Q-5.85 42.45 -5.9 42.5 L-6.3 43.2 -6.45 43.45 -6.85 43.5 -7.45 43.4 -7.8 43.4 -8.15 43.3 -8.3 42.9 -8.2 42.65 -8.1 42.25 -7.85 41.55 -7.75 41.05 -7.5 40.3 -7.35 40.05 -6.9 38.65 -6.8 38.45 -6.4 37.2 -6.3 37.0 -6.1 36.4 M-4.0 37.95 Q-4.05 37.65 -4.25 37.65 -4.35 37.55 -4.45 37.75 L-4.8 38.45 -4.9 38.75 -4.95 39.0 -5.15 39.5 -5.25 39.9 Q-5.3 40.45 -4.55 40.55 L-4.0 40.55 -3.75 40.3 -3.7 40.15 -3.8 39.4 -3.85 39.0 -3.85 38.6 -4.0 37.95" fill="#ffd245" fill-rule="evenodd" stroke="none"/>
    <path d="M-4.0 37.95 L-3.85 38.6 -3.85 39.0 -3.8 39.4 -3.7 40.15 -3.75 40.3 -4.0 40.55 -4.25 40.6 -4.55 40.55 Q-5.3 40.45 -5.25 39.9 L-5.15 39.5 -4.95 39.0 -4.9 38.75 -4.8 38.45 -4.45 37.75 -4.25 37.65 Q-4.05 37.65 -4.0 37.95 M-6.1 36.4 L-6.3 37.0 -6.4 37.2 -6.8 38.45 -6.9 38.65 -7.35 40.05 -7.5 40.35 -7.75 41.05 -7.85 41.55 -8.1 42.25 -8.2 42.65 -8.3 42.9 -8.15 43.3 -7.8 43.4 -7.45 43.4 -6.85 43.5 -6.6 43.5 -6.45 43.45 -6.3 43.2 -5.9 42.5 Q-5.85 42.45 -5.4 42.35 L-5.0 42.35 -3.9 42.55 -3.6 42.9 -3.55 43.05 -3.5 43.4 -3.25 43.85 -2.6 44.0 -1.7 44.05 Q-1.4 44.05 -1.4 43.9 L-1.4 43.5 -1.45 43.3 -1.45 43.0 -1.6 42.1 -1.65 41.5 -1.7 41.25 -1.75 40.4 -1.85 40.2 -2.05 38.15 -2.1 37.95 -2.1 37.75 -2.3 36.35 Q-2.35 35.95 -2.55 35.7 -2.85 35.4 -3.4 35.4 L-3.45 35.4 -4.65 35.3 -4.95 35.25 -5.1 35.2 Q-5.7 35.2 -6.1 36.4 M-5.1 34.2 L-3.45 34.4 -3.4 34.4 Q-2.5 34.4 -1.9 35.0 -1.4 35.45 -1.3 36.2 L-1.25 36.5 -1.25 36.7 -1.2 36.85 -1.1 37.65 -1.1 37.85 -1.05 37.9 -1.05 38.05 -0.95 38.75 -0.95 39.05 -0.85 39.85 -0.85 40.05 -0.8 40.2 -0.8 40.35 -0.75 40.5 -0.7 40.8 -0.7 41.15 -0.65 41.35 -0.5 42.9 -0.45 43.1 -0.4 43.45 -0.4 43.4 -0.4 44.0 -0.75 44.7 Q-1.15 45.05 -1.7 45.05 L-2.05 45.05 -2.3 45.0 -2.7 45.0 -3.8 44.7 Q-4.3 44.4 -4.5 43.6 L-4.5 43.4 -4.75 43.4 -5.1 43.35 -5.25 43.35 -5.3 43.4 Q-5.35 43.85 -5.8 44.2 -6.25 44.5 -6.6 44.5 L-6.95 44.5 -7.3 44.45 -7.5 44.4 -7.9 44.4 -8.85 44.0 Q-9.35 43.45 -9.3 42.8 L-9.1 42.2 -9.1 42.1 -9.05 42.1 -9.05 42.0 -8.8 41.25 -8.7 40.8 -8.7 40.75 -8.35 39.8 -8.3 39.7 -8.15 39.25 -7.8 38.25 -7.75 38.2 -7.35 36.95 -7.35 36.85 -7.15 36.4 -7.1 36.35 -7.1 36.3 -7.05 36.15 Q-6.55 34.2 -5.1 34.2" fill="#b07f00" fill-rule="evenodd" stroke="none"/>
    <path d="M1.95 35.95 L1.9 36.45 1.95 36.8 2.0 38.25 2.05 38.55 2.1 40.6 2.2 41.45 Q2.2 41.9 2.5 41.95 L3.0 41.95 4.3 41.9 4.7 41.85 Q4.9 41.85 5.0 42.0 L5.1 42.25 5.1 42.5 5.05 42.95 5.15 43.4 Q5.15 43.85 4.65 43.85 L2.4 43.95 2.1 44.0 0.75 44.05 Q0.25 44.1 0.25 43.45 L0.2 41.55 0.1 40.65 -0.05 37.45 -0.1 37.2 -0.1 36.5 -0.15 36.05 Q-0.15 35.65 0.2 35.65 L1.25 35.6 1.5 35.55 1.95 35.95" fill="#ffd245" fill-rule="evenodd" stroke="none"/>
    <path d="M1.5 35.55 L1.25 35.6 0.2 35.65 Q-0.15 35.65 -0.15 36.05 L-0.1 36.5 -0.1 37.2 -0.05 37.45 0.1 40.65 0.2 41.55 0.25 43.45 Q0.25 44.05 0.7 44.05 L0.75 44.05 1.25 44.0 2.1 44.0 2.4 43.95 4.65 43.85 Q5.15 43.85 5.15 43.4 L5.05 42.95 5.1 42.5 5.1 42.25 5.0 42.0 4.75 41.85 4.7 41.85 4.3 41.9 3.85 41.9 2.65 42.0 2.5 41.95 Q2.2 41.9 2.2 41.45 L2.1 40.6 2.05 38.55 2.0 38.25 1.95 35.95 1.5 35.55 M-1.1 37.25 L-1.1 36.55 -1.15 36.45 -1.15 36.1 Q-1.15 35.45 -0.8 35.05 -0.4 34.65 0.15 34.65 L1.25 34.6 1.45 34.55 1.5 34.55 Q2.1 34.55 2.5 34.95 L2.95 35.9 3.0 38.25 3.05 38.5 3.1 40.55 3.15 40.95 3.5 40.95 3.85 40.9 4.35 40.9 4.65 40.85 4.75 40.85 Q5.95 40.85 6.1 42.2 L6.1 42.45 6.05 42.8 6.05 42.9 6.1 43.0 6.15 43.35 Q6.15 44.85 4.7 44.85 L4.4 44.9 3.85 44.9 3.55 44.95 2.15 44.95 2.1 45.0 1.35 45.0 1.1 45.05 0.7 45.05 Q-0.7 45.05 -0.75 43.5 L-0.95 39.35 -1.0 39.05 -1.05 37.45 -1.1 37.25" fill="#b07f00" fill-rule="evenodd" stroke="none"/>
    <path d="M7.75 37.55 L7.85 37.85 8.2 39.85 8.45 40.7 8.85 41.15 9.35 41.1 10.15 40.9 10.65 40.85 11.0 40.75 Q11.4 40.65 11.4 41.0 L11.5 41.7 11.65 42.2 Q11.75 42.6 11.25 42.7 L7.9 43.35 7.4 43.5 Q7.1 43.55 6.8 43.0 L6.25 40.2 5.65 37.1 5.55 36.8 5.45 36.15 5.3 35.7 Q5.3 35.3 5.6 35.25 L6.6 35.05 6.85 34.95 Q7.25 34.9 7.4 35.3 L7.75 37.55" fill="#ffd245" fill-rule="evenodd" stroke="none"/>
    <path d="M7.75 37.55 L7.4 35.3 7.0 34.95 6.85 34.95 6.6 35.05 5.6 35.25 Q5.3 35.3 5.3 35.7 L5.45 36.15 5.55 36.8 5.65 37.1 6.25 40.2 6.8 43.0 7.3 43.5 7.4 43.5 7.9 43.35 11.25 42.7 Q11.75 42.6 11.65 42.2 L11.5 41.7 11.4 41.0 11.1 40.7 11.0 40.75 9.7 41.0 9.35 41.1 8.9 41.15 8.85 41.15 8.45 40.7 8.2 39.85 7.85 37.85 7.75 37.55 M6.4 34.05 L6.5 34.05 6.65 34.0 7.0 33.95 Q8.1 33.95 8.35 35.15 L8.4 35.4 8.4 35.6 8.45 35.7 8.45 35.8 8.5 35.9 8.5 36.15 8.55 36.25 8.55 36.4 8.75 37.3 8.8 37.4 8.8 37.55 8.85 37.65 9.3 40.05 9.5 40.05 9.7 40.0 9.95 39.9 10.25 39.9 10.4 39.85 10.5 39.85 10.8 39.75 11.1 39.7 Q12.2 39.7 12.4 40.8 L12.45 41.2 12.45 41.1 12.5 41.45 12.5 41.5 12.65 42.0 Q12.75 42.65 12.45 43.05 12.15 43.55 11.45 43.7 L9.6 44.05 9.45 44.1 9.2 44.15 9.05 44.15 8.95 44.2 8.8 44.2 7.6 44.5 7.3 44.5 Q6.15 44.5 5.85 43.2 L5.75 42.45 5.1 39.55 5.1 39.4 5.05 39.3 4.9 38.5 4.9 38.35 4.8 38.1 4.65 37.4 4.65 37.3 4.55 37.0 4.45 36.5 4.45 36.35 4.4 36.2 4.35 35.95 Q4.25 35.3 4.55 34.85 4.85 34.4 5.4 34.3 L6.15 34.15 6.3 34.1 6.4 34.05" fill="#b07f00" fill-rule="evenodd" stroke="none"/>
    <path d="M12.35 33.5 L12.65 33.55 12.9 33.85 13.0 34.3 14.05 37.45 14.6 38.95 14.65 39.25 15.15 40.65 15.35 41.05 15.1 41.5 13.8 41.95 Q13.35 42.05 13.35 41.8 L13.05 40.75 12.55 39.45 12.5 39.25 12.4 39.0 12.15 38.05 11.85 37.25 11.65 36.8 11.55 36.25 11.35 35.75 11.25 35.3 10.9 34.55 Q10.8 34.1 11.05 33.95 L11.25 33.9 12.35 33.5" fill="#ffd245" fill-rule="evenodd" stroke="none"/>
    <path d="M11.25 33.9 L11.05 33.95 Q10.8 34.1 10.9 34.55 L11.25 35.3 11.35 35.75 11.55 36.25 11.65 36.8 11.85 37.25 12.15 38.05 12.4 39.0 12.5 39.25 12.55 39.45 13.05 40.75 13.25 41.55 13.35 41.8 Q13.35 41.95 13.65 41.95 L13.8 41.95 15.1 41.5 15.35 41.05 15.15 40.65 14.65 39.25 14.6 38.95 14.05 37.45 13.6 36.0 13.3 35.25 13.15 34.65 13.0 34.3 12.9 33.9 12.65 33.55 12.45 33.5 12.35 33.5 11.25 33.9 M11.6 32.7 L11.8 32.65 11.9 32.6 12.05 32.6 12.45 32.5 13.2 32.7 13.85 33.55 13.95 33.85 13.95 33.95 14.0 34.05 14.2 34.65 14.25 34.9 14.4 35.25 14.95 36.9 15.0 37.15 15.3 37.85 15.55 38.6 15.55 38.75 15.6 38.95 15.8 39.4 16.15 40.45 16.3 40.75 Q16.45 41.25 16.2 41.75 16.0 42.3 15.45 42.45 L15.2 42.5 15.1 42.55 14.9 42.6 14.65 42.7 14.45 42.75 14.35 42.8 14.3 42.8 14.1 42.9 13.65 42.95 Q12.85 42.95 12.45 42.25 L12.3 41.85 12.1 41.05 11.65 39.8 11.55 39.6 11.55 39.55 11.3 38.8 11.2 38.35 11.05 38.05 10.7 37.1 10.6 36.55 10.5 36.4 10.35 36.05 10.3 35.75 9.95 34.85 Q9.8 34.35 9.95 33.85 10.15 33.3 10.65 33.05 L10.7 33.05 10.75 33.0 10.9 32.95 10.95 32.95 11.6 32.7" fill="#b07f00" fill-rule="evenodd" stroke="none"/>
    <path d="M21.45 32.15 L21.75 32.5 22.55 33.75 23.0 35.35 22.95 36.35 22.65 37.4 21.8 38.45 21.5 38.65 21.35 38.8 21.05 39.0 20.4 39.3 20.15 39.35 19.85 39.45 19.25 39.55 18.9 39.55 18.55 39.5 17.3 39.15 16.45 38.6 15.9 37.95 15.25 36.9 15.1 36.5 14.9 35.6 14.85 35.0 14.9 34.75 14.9 34.2 15.0 33.9 15.05 33.55 15.15 33.25 15.3 33.0 15.65 32.5 15.8 32.3 16.05 32.05 Q16.1 31.95 16.5 31.7 L16.9 31.45 17.55 31.2 18.1 31.05 19.05 31.0 20.4 31.4 20.8 31.65 21.45 32.15 M20.5 34.15 L20.45 34.0 20.35 33.85 19.75 33.35 19.35 33.15 19.0 33.05 18.3 33.05 17.7 33.3 17.45 33.45 17.1 33.85 16.85 34.5 16.75 35.15 16.9 35.65 17.0 36.05 17.05 36.1 17.3 36.5 17.6 36.85 18.1 37.3 19.05 37.6 19.25 37.55 19.4 37.55 19.85 37.4 20.35 37.15 20.8 36.45 21.0 35.6 20.85 34.9 20.7 34.5 20.5 34.15" fill="#ffd245" fill-rule="evenodd" stroke="none"/>
    <path d="M19.9 36.05 L20.0 35.65 19.95 35.55 19.9 35.15 19.8 34.95 19.75 34.8 19.65 34.6 19.55 34.5 19.55 34.45 19.25 34.2 19.2 34.15 18.85 34.05 18.85 34.0 18.5 34.05 18.0 34.3 18.0 34.35 17.95 34.4 17.8 34.7 17.8 34.75 17.75 35.1 17.8 35.15 17.9 35.55 18.1 35.95 18.2 36.0 18.3 36.15 18.35 36.2 18.65 36.45 19.0 36.6 19.05 36.6 19.25 36.55 19.35 36.55 19.55 36.4 19.6 36.4 19.7 36.35 19.9 36.05 M20.35 33.85 L20.45 34.0 20.5 34.15 20.7 34.5 20.85 34.9 21.0 35.6 20.8 36.45 20.35 37.15 19.85 37.4 19.4 37.55 19.25 37.55 19.05 37.6 18.1 37.3 17.6 36.85 17.3 36.5 17.05 36.1 17.0 36.05 16.9 35.65 16.75 35.15 16.85 34.5 17.1 33.85 17.45 33.45 17.7 33.3 18.3 33.05 18.85 33.0 19.0 33.05 19.35 33.15 19.75 33.35 20.35 33.85 M21.45 32.15 L20.8 31.65 20.4 31.4 19.05 31.0 19.0 31.0 18.1 31.05 17.55 31.2 16.9 31.45 16.5 31.7 Q16.1 31.95 16.05 32.05 L15.8 32.3 15.65 32.5 15.3 33.0 15.05 33.55 15.0 33.9 14.9 34.2 14.9 34.75 14.85 35.0 14.9 35.6 15.1 36.5 15.25 36.9 15.9 37.95 16.45 38.6 17.3 39.15 18.55 39.5 18.9 39.55 19.25 39.55 19.85 39.45 20.15 39.35 20.4 39.3 21.05 39.0 21.35 38.8 21.5 38.65 21.8 38.45 22.65 37.4 22.95 36.35 23.0 35.35 22.55 33.75 21.75 32.5 21.45 32.15 M20.6 30.4 L20.8 30.5 21.45 30.85 21.7 31.05 21.8 31.15 22.1 31.35 22.55 31.85 23.45 33.3 23.8 34.3 24.0 35.25 23.95 36.5 23.45 37.9 23.25 38.25 23.05 38.5 23.15 38.35 22.45 39.2 22.1 39.45 22.0 39.55 22.0 39.6 21.95 39.6 21.5 39.9 20.75 40.25 20.1 40.45 19.65 40.5 19.45 40.5 19.4 40.55 18.8 40.55 18.45 40.5 18.35 40.5 16.9 40.05 16.25 39.65 16.15 39.6 16.1 39.6 16.05 39.55 15.85 39.4 15.8 39.4 15.1 38.55 15.05 38.55 15.05 38.5 14.35 37.35 13.9 35.7 13.85 35.05 13.85 35.0 13.9 34.7 13.9 34.05 14.0 33.75 14.0 33.6 14.1 33.25 14.4 32.6 Q14.55 32.15 14.85 31.85 L15.15 31.55 15.35 31.3 16.45 30.55 17.0 30.35 17.2 30.25 18.0 30.05 19.15 30.0 20.15 30.25 20.45 30.35 20.55 30.4 20.6 30.4" fill="#b07f00" fill-rule="evenodd" stroke="none"/>
    <path d="M22.55 28.25 L23.95 28.7 24.2 28.75 27.0 29.8 27.3 29.85 27.05 29.4 26.85 29.1 26.7 28.95 26.5 28.65 26.2 28.35 25.5 27.5 24.95 26.8 24.7 26.6 24.65 26.25 25.15 25.85 25.3 25.7 25.5 25.55 25.65 25.4 25.85 25.25 Q26.05 25.05 26.35 25.4 L26.65 25.85 27.05 26.25 27.5 26.85 27.8 27.15 28.0 27.45 30.1 30.0 30.55 30.6 31.15 31.2 Q31.45 31.5 31.1 31.8 L30.4 32.3 30.2 32.5 Q30.0 32.7 29.45 32.5 L29.0 32.3 27.2 31.7 26.95 31.65 25.3 31.05 25.1 31.0 24.9 31.05 Q24.75 31.05 24.9 31.35 L25.5 32.1 25.7 32.3 25.85 32.55 26.05 32.75 26.15 32.9 27.05 33.9 27.1 34.0 27.4 34.25 Q27.65 34.5 27.4 34.75 L26.5 35.6 26.2 35.75 25.9 35.65 24.3 33.65 23.85 33.2 23.1 32.15 22.6 31.7 21.65 30.55 21.5 30.35 21.35 30.2 21.25 30.05 21.0 29.8 20.85 29.6 Q20.75 29.4 20.9 29.3 L21.1 29.15 21.2 29.1 21.25 29.05 21.3 28.95 21.4 28.9 21.55 28.75 22.0 28.45 22.3 28.3 22.55 28.25" fill="#ffd245" fill-rule="evenodd" stroke="none"/>
    <path d="M24.65 26.25 L24.7 26.6 24.95 26.8 25.5 27.5 26.2 28.35 26.5 28.65 26.7 28.95 26.85 29.1 27.05 29.4 27.3 29.85 27.0 29.8 24.2 28.75 23.95 28.7 22.55 28.25 22.45 28.25 22.3 28.3 22.0 28.45 21.55 28.75 21.4 28.9 21.3 28.95 21.25 29.05 21.2 29.1 21.1 29.15 20.9 29.3 Q20.75 29.4 20.85 29.6 L21.0 29.8 21.25 30.05 21.35 30.2 21.5 30.35 21.65 30.55 22.6 31.7 23.1 32.15 23.85 33.2 24.3 33.65 25.9 35.65 26.15 35.75 26.2 35.75 26.5 35.6 27.4 34.75 Q27.65 34.5 27.4 34.25 L27.1 34.0 27.05 33.9 26.15 32.9 26.05 32.75 25.85 32.55 25.7 32.3 25.5 32.1 24.9 31.35 Q24.75 31.05 24.9 31.05 L25.1 31.0 25.3 31.05 26.95 31.65 27.2 31.7 29.0 32.3 29.45 32.5 29.95 32.6 30.2 32.5 30.4 32.3 31.1 31.8 Q31.45 31.5 31.15 31.2 L30.55 30.6 27.05 26.25 26.65 25.85 26.35 25.4 26.0 25.2 25.85 25.25 25.65 25.4 25.5 25.55 25.3 25.7 25.15 25.85 24.65 26.25 M21.05 27.9 L21.9 27.35 22.45 27.25 22.65 27.25 22.7 27.3 24.0 27.65 24.05 27.7 24.4 27.8 24.45 27.8 24.3 27.65 24.2 27.5 24.1 27.4 23.95 27.2 Q23.45 26.6 23.75 25.8 L24.2 25.3 24.25 25.25 24.75 24.9 25.2 24.45 26.0 24.2 Q26.65 24.2 27.1 24.75 L27.3 25.05 27.6 25.35 28.8 26.85 28.75 26.8 29.0 27.1 29.15 27.35 30.0 28.3 30.15 28.55 30.9 29.35 31.0 29.5 31.1 29.7 31.15 29.75 31.3 29.95 31.55 30.15 31.95 30.55 32.3 31.6 Q32.2 32.25 31.75 32.55 L31.55 32.7 31.4 32.85 31.15 33.0 30.85 33.3 29.95 33.6 29.05 33.4 28.85 33.3 28.75 33.3 27.45 32.85 27.8 33.2 27.8 33.25 27.95 33.4 28.2 33.6 Q28.8 34.4 28.25 35.3 L27.15 36.4 26.3 36.75 26.15 36.75 Q25.55 36.75 25.1 36.25 L25.05 36.2 24.8 35.9 24.7 35.8 24.3 35.25 23.85 34.75 23.7 34.5 23.55 34.35 23.5 34.25 23.35 34.1 22.55 33.1 22.5 33.05 22.45 33.05 22.45 33.0 22.3 32.8 21.9 32.35 21.85 32.35 21.85 32.3 21.65 32.05 21.35 31.75 20.9 31.2 20.8 31.05 20.7 30.95 20.6 30.8 20.5 30.75 20.45 30.65 20.2 30.45 19.9 29.95 Q19.55 29.1 20.25 28.5 L20.65 28.25 20.85 28.05 20.95 28.0 21.05 27.9" fill="#b07f00" fill-rule="evenodd" stroke="none"/>
    <path d="M5.7 -26.85 Q7.3 -25.4 7.3 -23.4 L7.15 -22.25 7.25 -22.2 Q10.75 -19.25 10.4 -15.55 10.05 -11.9 6.1 -9.65 2.15 -7.45 -3.1 -7.9 -8.35 -8.4 -11.8 -11.35 -15.3 -14.2 -14.95 -17.9 -14.65 -20.9 -11.95 -22.95 L-12.05 -23.7 Q-12.05 -25.2 -11.05 -26.3 -10.05 -27.3 -8.7 -27.3 -7.35 -27.3 -6.4 -26.3 L-5.8 -25.45 -2.65 -25.65 -1.75 -26.85 Q-0.15 -28.25 2.0 -28.25 4.2 -28.25 5.7 -26.85 M13.0 -13.5 Q14.0 -13.6 14.75 -13.05 15.55 -12.35 15.65 -11.4 15.75 -10.45 15.1 -9.7 14.55 -8.9 13.55 -8.8 L12.2 -9.05 Q10.1 -6.65 7.65 -4.75 L9.7 -2.5 Q14.55 3.55 16.7 14.75 12.8 13.35 6.4 14.15 L5.25 14.3 7.5 21.9 7.65 21.85 Q8.4 21.75 9.1 22.75 9.75 23.75 9.95 25.2 10.1 26.65 9.65 27.75 9.2 28.8 8.45 28.9 7.7 29.0 7.1 28.0 6.4 27.05 6.3 25.65 6.1 24.15 6.5 23.05 L6.7 22.65 4.25 14.35 Q0.1 14.45 -2.85 12.65 L-2.5 9.6 -4.5 8.55 -4.95 8.2 Q-7.75 10.2 -7.55 12.05 -7.15 13.9 -3.75 15.7 -3.4 15.2 -2.9 15.15 -2.1 15.05 -1.45 16.05 -0.8 17.05 -0.6 18.55 -0.45 19.95 -0.9 21.05 -1.3 22.15 -2.05 22.25 -2.85 22.3 -3.45 21.35 -4.1 20.4 -4.25 18.95 -4.45 17.6 -4.1 16.65 -8.1 14.55 -8.45 12.2 -8.9 9.9 -5.7 7.5 -7.3 5.75 -7.5 2.95 -7.7 0.2 -6.9 -2.1 -13.25 -5.4 -16.0 -8.5 -16.45 -8.1 -17.1 -8.05 -18.1 -7.9 -18.85 -8.6 -19.6 -9.15 -19.75 -10.1 -19.8 -11.1 -19.25 -11.9 -18.65 -12.6 -17.65 -12.75 -16.65 -12.85 -15.95 -12.3 -15.1 -11.6 -15.05 -10.6 -14.9 -9.8 -15.35 -9.2 -12.7 -6.25 -6.6 -3.0 L-6.3 -3.65 Q-4.9 -6.55 -2.25 -7.2 -0.35 -7.65 1.5 -6.75 L1.65 -6.8 Q4.15 -7.55 6.9 -5.35 9.35 -7.25 11.5 -9.6 11.05 -10.15 10.95 -10.85 10.85 -11.85 11.4 -12.65 12.0 -13.35 13.0 -13.5 Z" fill="none" stroke="#a87900" stroke-linecap="round" stroke-linejoin="miter-clip" stroke-miterlimit="3.0" stroke-width="2.0"/>
    <path d="M9.65 -2.5 Q14.55 3.65 16.65 14.7 12.75 13.4 6.4 14.15 0.8 14.9 -2.9 12.65 -1.8 4.35 -3.35 -5.0 L1.6 -6.75 Q5.4 -7.85 9.65 -2.5" fill="#d6a200" fill-rule="evenodd" stroke="none"/>
    <path d="M-6.3 -3.6 Q-5.0 -6.5 -2.3 -7.2 0.35 -7.85 2.9 -5.85 5.45 -3.85 6.4 -0.1 7.4 3.5 5.95 6.4 4.55 9.35 1.4 9.9 -1.75 10.45 -4.55 8.6 -7.3 6.7 -7.55 3.0 -7.8 -0.75 -6.3 -3.6" fill="#ffc200" fill-rule="evenodd" stroke="none"/>
    <path d="M9.8 -13.3 Q9.25 -12.25 8.3 -11.3 L6.1 -9.65 Q4.1 -8.55 1.7 -8.1 L1.2 -8.0 -3.1 -7.9 -3.75 -7.95 Q-8.55 -8.6 -11.8 -11.35 -15.3 -14.2 -14.95 -17.9 -14.6 -21.3 -11.2 -23.55 L-10.65 -23.85 Q-6.7 -26.1 -1.45 -25.6 3.8 -25.15 7.25 -22.2 10.75 -19.25 10.4 -15.55 L9.8 -13.3" fill="#ffc200" fill-rule="evenodd" stroke="none"/>
    <path d="M-5.95 -1.75 L-6.3 -1.8 Q-13.85 -5.65 -16.6 -9.2 L-16.7 -9.55 -16.5 -9.85 -16.15 -9.95 -15.85 -9.75 Q-13.2 -6.4 -5.85 -2.65 L-5.65 -2.35 Q-5.6 -2.15 -5.7 -2.0 L-5.95 -1.75" fill="#ffc200" fill-rule="evenodd" stroke="none"/>
    <path d="M-15.55 -8.9 Q-16.15 -8.15 -17.1 -8.0 -18.1 -7.9 -18.9 -8.55 -19.65 -9.1 -19.75 -10.1 -19.9 -11.1 -19.25 -11.9 -18.65 -12.6 -17.65 -12.7 -16.7 -12.85 -15.9 -12.25 -15.15 -11.65 -15.0 -10.65 -14.9 -9.65 -15.55 -8.9" fill="#ffc200" fill-rule="evenodd" stroke="none"/>
    <path d="M11.75 -9.3 Q11.0 -9.85 10.9 -10.85 10.75 -11.85 11.4 -12.65 12.0 -13.35 13.0 -13.45 13.95 -13.6 14.75 -13.0 15.5 -12.4 15.65 -11.4 15.75 -10.4 15.1 -9.65 14.5 -8.9 13.55 -8.75 12.55 -8.65 11.75 -9.3" fill="#ffc200" fill-rule="evenodd" stroke="none"/>
    <path d="M2.4 8.35 L2.5 8.05 2.75 7.75 3.1 7.8 3.35 8.05 7.65 22.5 7.6 22.85 7.3 23.1 Q7.1 23.15 7.0 23.0 L6.7 22.75 2.4 8.35" fill="#ffc200" fill-rule="evenodd" stroke="none"/>
    <path d="M-4.9 7.1 Q-4.7 7.1 -4.6 7.3 L-4.5 7.65 -4.7 7.95 Q-7.8 10.1 -7.55 12.05 -7.15 14.05 -3.3 15.95 L-3.05 16.25 -3.1 16.6 -3.35 16.85 -3.7 16.8 Q-8.1 14.6 -8.45 12.2 -8.95 9.75 -5.2 7.15 L-4.9 7.1" fill="#ffc200" fill-rule="evenodd" stroke="none"/>
    <path d="M9.6 27.75 Q9.2 28.85 8.45 28.95 7.7 29.05 7.0 28.05 6.4 27.05 6.25 25.6 6.05 24.15 6.45 23.05 6.9 21.95 7.65 21.85 8.4 21.75 9.05 22.75 9.7 23.75 9.9 25.2 10.05 26.65 9.6 27.75" fill="#ffc200" fill-rule="evenodd" stroke="none"/>
    <path d="M-4.05 16.35 Q-3.6 15.25 -2.85 15.15 -2.1 15.05 -1.45 16.05 -0.8 17.05 -0.6 18.5 -0.45 19.95 -0.9 21.05 -1.3 22.15 -2.05 22.25 -2.8 22.35 -3.5 21.35 -4.1 20.35 -4.25 18.9 -4.45 17.45 -4.05 16.35" fill="#ffc200" fill-rule="evenodd" stroke="none"/>
    <path d="M1.95 -1.4 L1.65 -1.65 1.65 -2.05 1.9 -2.35 Q7.6 -5.05 11.85 -10.0 L12.1 -10.2 12.5 -10.05 12.65 -9.8 12.55 -9.4 Q8.2 -4.25 2.35 -1.45 L1.95 -1.4" fill="#ffc200" fill-rule="evenodd" stroke="none"/>
    <path d="M10.4 -15.55 L9.8 -13.3 Q9.25 -12.25 8.3 -11.3 L6.45 -9.85 Q12.35 -21.95 -8.55 -24.8 -5.35 -25.95 -1.45 -25.6 3.8 -25.15 7.25 -22.2 10.75 -19.25 10.4 -15.55" fill="#ffd552" fill-rule="evenodd" stroke="none"/>
    <path d="M6.45 -0.15 Q7.35 3.55 5.95 6.4 5.25 7.8 4.2 8.7 6.6 -3.9 -3.3 -6.8 L-2.25 -7.2 Q0.35 -7.85 2.9 -5.85 5.45 -3.85 6.45 -0.15" fill="#ffd552" fill-rule="evenodd" stroke="none"/>
    <path d="M-7.35 3.7 Q1.1 5.45 7.35 3.2" fill="none" stroke="#d4a000" stroke-linecap="round" stroke-linejoin="miter-clip" stroke-miterlimit="3.0" stroke-width="1.0"/>
    <path d="M4.65 -14.6 Q5.3 -13.25 4.2 -12.1 3.3 -11.05 1.35 -10.7 -3.4 -9.8 -6.05 -13.1 -3.15 -13.15 1.1 -15.25 3.7 -16.5 4.65 -14.6" fill="#ffd552" fill-rule="evenodd" stroke="none"/>
    <path d="M4.65 -14.6 Q5.3 -13.25 4.2 -12.1 3.3 -11.05 1.35 -10.7 -3.4 -9.8 -6.05 -13.1 -3.15 -13.15 1.1 -15.25 3.7 -16.5 4.65 -14.6 Z" fill="none" stroke="#d4a000" stroke-linecap="round" stroke-linejoin="miter-clip" stroke-miterlimit="3.0" stroke-width="1.0"/>
    <path d="M7.3 -23.4 L7.0 -21.8 Q6.6 -20.8 5.7 -20.0 4.2 -18.55 2.0 -18.55 -0.15 -18.55 -1.75 -20.0 -3.25 -21.4 -3.25 -23.4 -3.25 -25.4 -1.75 -26.85 -0.55 -27.9 0.9 -28.2 L2.0 -28.25 Q4.2 -28.25 5.7 -26.85 7.3 -25.4 7.3 -23.4 M-8.7 -27.3 Q-7.35 -27.3 -6.4 -26.3 -5.4 -25.2 -5.4 -23.7 L-5.45 -22.9 Q-5.7 -21.9 -6.4 -21.15 -7.35 -20.05 -8.7 -20.05 -10.05 -20.05 -11.05 -21.15 -12.05 -22.2 -12.05 -23.7 -12.05 -25.2 -11.05 -26.3 -10.25 -27.15 -9.25 -27.25 L-8.7 -27.3" fill="#ffd552" fill-rule="evenodd" stroke="none"/>
    <path d="M7.3 -23.4 L7.0 -21.8 Q6.6 -20.8 5.7 -20.0 4.2 -18.55 2.0 -18.55 -0.15 -18.55 -1.75 -20.0 -3.25 -21.4 -3.25 -23.4 -3.25 -25.4 -1.75 -26.85 -0.55 -27.9 0.9 -28.2 L2.0 -28.25 Q4.2 -28.25 5.7 -26.85 7.3 -25.4 7.3 -23.4 M-8.7 -27.3 Q-7.35 -27.3 -6.4 -26.3 -5.4 -25.2 -5.4 -23.7 L-5.45 -22.9 Q-5.7 -21.9 -6.4 -21.15 -7.35 -20.05 -8.7 -20.05 -10.05 -20.05 -11.05 -21.15 -12.05 -22.2 -12.05 -23.7 -12.05 -25.2 -11.05 -26.3 -10.25 -27.15 -9.25 -27.25 L-8.7 -27.3 Z" fill="none" stroke="#d4a000" stroke-linecap="round" stroke-linejoin="miter-clip" stroke-miterlimit="3.0" stroke-width="1.0"/>
    <path d="M-8.4 -23.9 Q-8.75 -23.5 -9.3 -23.5 -9.9 -23.5 -10.3 -23.9 -10.7 -24.3 -10.7 -24.85 -10.7 -25.4 -10.3 -25.85 -9.9 -26.2 -9.3 -26.2 -8.75 -26.2 -8.4 -25.85 -7.95 -25.4 -7.95 -24.85 -7.95 -24.3 -8.4 -23.9" fill="#d6a200" fill-rule="evenodd" stroke="none"/>
    <path d="M2.4 -24.15 Q1.9 -23.6 1.15 -23.6 0.45 -23.6 -0.05 -24.15 -0.6 -24.65 -0.6 -25.4 -0.6 -26.1 -0.05 -26.65 0.45 -27.15 1.15 -27.15 1.9 -27.15 2.4 -26.65 2.95 -26.1 2.95 -25.4 2.95 -24.65 2.4 -24.15" fill="#d6a200" fill-rule="evenodd" stroke="none"/>
    <path d="M30.15 -33.2 Q30.75 -33.2 31.15 -32.8 L31.35 -32.55 31.5 -32.4 31.75 -32.2 32.8 -31.1 32.95 -31.0 33.15 -30.8 33.3 -30.7 34.2 -29.75 34.45 -29.55 34.9 -28.5 Q34.9 -27.95 34.45 -27.5 L34.3 -27.35 34.15 -27.25 34.0 -27.05 33.75 -26.8 Q33.4 -26.45 32.85 -26.35 L32.4 -26.35 Q32.5 -25.6 31.95 -25.05 L31.35 -24.45 31.1 -24.25 31.6 -24.6 33.4 -25.7 34.3 -26.3 34.45 -26.45 34.7 -26.65 Q35.35 -27.05 35.85 -27.05 36.65 -27.05 37.1 -26.35 L37.25 -26.05 37.35 -25.95 37.75 -25.3 38.4 -24.4 39.1 -23.2 39.3 -22.55 39.35 -22.45 39.35 -22.35 39.45 -21.85 39.45 -21.7 39.4 -20.7 39.35 -20.65 39.35 -20.55 39.15 -20.1 39.1 -19.95 Q38.75 -19.1 38.05 -18.65 L37.9 -18.5 37.85 -18.5 37.4 -18.15 Q36.5 -17.6 35.65 -17.55 L35.45 -17.5 34.65 -17.6 34.65 -17.45 34.7 -17.35 34.7 -17.25 Q34.8 -16.5 34.05 -16.0 L33.85 -15.85 33.75 -15.75 33.55 -15.6 33.05 -15.35 32.85 -15.15 32.05 -14.95 Q31.1 -14.95 30.75 -15.65 30.15 -16.55 30.35 -17.55 L30.55 -18.8 30.4 -18.65 29.65 -18.45 Q28.9 -18.45 28.5 -19.05 L28.35 -19.35 28.3 -19.4 28.3 -19.5 28.25 -19.5 27.65 -20.35 27.45 -20.95 26.75 -21.35 26.7 -21.45 26.65 -21.45 26.65 -21.5 26.0 -22.1 25.75 -22.35 25.75 -22.4 25.2 -22.9 23.35 -24.8 Q22.85 -25.25 22.85 -25.75 22.75 -26.45 23.35 -27.05 L23.9 -27.6 24.05 -27.8 26.95 -30.7 27.05 -30.75 27.15 -30.9 27.7 -31.4 28.75 -32.5 29.6 -33.1 30.15 -33.2 M2.1 -44.65 L2.8 -44.55 4.35 -44.5 4.65 -44.45 4.8 -44.4 4.9 -44.4 6.55 -43.95 7.45 -43.4 8.05 -42.9 Q8.65 -42.3 8.95 -41.15 L9.15 -41.3 9.2 -41.3 9.3 -41.45 9.7 -41.8 10.0 -41.95 10.05 -42.0 10.15 -42.05 10.45 -42.25 11.15 -42.55 12.05 -42.7 12.25 -42.75 12.85 -42.75 14.25 -42.55 15.0 -42.15 15.8 -41.7 15.85 -41.7 15.85 -41.65 16.0 -41.5 16.65 -40.9 17.3 -39.9 17.4 -39.6 17.45 -39.5 17.5 -39.45 17.55 -39.35 17.6 -39.3 17.75 -38.5 17.8 -38.3 18.15 -39.4 18.15 -39.45 18.2 -39.5 18.35 -39.85 18.4 -39.9 18.5 -40.05 18.65 -40.2 18.85 -40.35 19.1 -40.45 19.15 -40.45 19.45 -40.6 19.8 -40.5 19.9 -40.5 20.1 -40.45 20.3 -40.25 20.4 -40.25 20.5 -40.15 20.65 -40.05 20.7 -40.0 20.95 -39.85 21.05 -39.85 21.1 -39.75 21.3 -39.65 21.7 -39.35 21.8 -39.15 21.95 -38.95 22.05 -38.7 22.05 -38.4 22.8 -38.6 23.25 -38.4 23.45 -38.35 23.55 -38.25 24.2 -37.8 24.4 -37.7 24.45 -37.7 24.5 -37.65 24.65 -37.55 24.75 -37.45 24.85 -37.4 24.95 -37.25 25.2 -37.05 25.25 -36.75 25.25 -36.05 25.15 -35.7 25.0 -35.45 24.9 -35.05 24.9 -35.0 24.85 -34.95 24.6 -34.45 24.6 -34.4 25.75 -35.6 25.9 -35.8 26.1 -35.9 26.5 -36.05 26.75 -36.0 27.05 -36.0 27.65 -35.65 27.7 -35.65 27.95 -35.55 28.0 -35.5 28.4 -35.2 28.95 -34.9 29.1 -34.55 29.25 -34.05 29.25 -33.8 29.15 -33.5 29.1 -33.4 29.1 -33.3 27.35 -31.4 27.05 -31.15 27.0 -31.05 26.95 -31.0 26.65 -30.75 26.6 -30.65 25.3 -29.35 24.3 -28.4 24.3 -28.35 23.0 -27.1 23.0 -27.05 22.8 -26.9 22.65 -26.75 22.1 -26.55 21.9 -26.55 Q21.15 -26.65 20.75 -26.9 L19.6 -27.6 19.5 -27.65 19.45 -27.7 19.35 -27.75 18.75 -28.35 18.65 -28.55 18.65 -28.75 18.45 -28.65 17.65 -28.8 17.4 -28.95 17.05 -29.25 16.6 -29.45 16.55 -29.5 16.0 -29.85 15.7 -30.0 15.6 -30.3 15.55 -30.35 15.4 -30.85 15.4 -31.55 15.85 -32.7 15.4 -32.35 Q14.65 -31.8 14.0 -31.65 L13.6 -31.6 13.55 -31.6 13.2 -31.5 12.2 -31.45 11.95 -31.5 11.75 -31.5 11.0 -31.65 9.5 -32.3 9.15 -32.6 9.05 -32.7 8.95 -32.75 8.45 -33.15 8.25 -33.45 8.2 -33.55 8.2 -33.6 Q7.65 -34.25 7.45 -35.0 L7.2 -35.8 7.2 -35.95 7.15 -36.0 7.1 -36.25 7.1 -36.3 6.8 -36.1 Q6.0 -35.7 4.8 -35.65 L4.75 -35.65 3.65 -35.75 3.5 -35.8 3.5 -35.3 3.45 -35.15 3.45 -34.9 Q3.35 -33.45 1.9 -33.45 L1.05 -33.55 0.8 -33.6 0.45 -33.6 Q-0.1 -33.65 -0.45 -34.1 -0.8 -34.6 -0.75 -35.2 L-0.6 -36.45 -0.55 -36.65 -0.55 -37.0 -0.5 -37.25 -0.5 -37.65 -0.3 -39.05 -0.3 -39.35 -0.2 -39.8 -0.2 -39.95 -0.15 -40.1 -0.15 -40.35 -0.1 -40.45 -0.05 -41.55 -0.05 -41.65 0.0 -41.9 0.05 -43.0 Q0.15 -44.1 1.05 -44.5 L1.1 -44.5 1.75 -44.65 2.1 -44.65 M-27.25 -35.4 L-27.2 -35.45 -26.85 -35.75 -26.4 -36.05 -26.1 -36.3 -25.7 -36.55 -25.65 -36.6 Q-24.8 -37.15 -24.05 -37.35 L-23.05 -37.5 -22.55 -37.55 -22.25 -37.5 Q-21.4 -37.4 -20.35 -36.75 L-20.75 -37.55 -21.0 -38.55 Q-20.9 -39.55 -20.1 -39.85 L-19.85 -40.0 -19.65 -40.05 Q-19.3 -40.2 -19.0 -40.4 L-18.65 -40.5 -18.0 -40.8 -17.85 -40.85 -17.6 -41.0 -15.9 -41.75 -15.3 -41.85 Q-14.4 -41.85 -14.0 -41.0 L-13.9 -40.65 -13.6 -40.1 Q-13.4 -39.6 -13.55 -39.1 L-13.7 -38.65 Q-12.9 -38.5 -12.6 -37.8 L-12.2 -36.7 -12.2 -36.6 Q-12.0 -35.85 -12.35 -35.35 L-12.2 -35.35 -11.55 -35.15 -11.55 -35.35 -11.65 -35.6 -11.7 -35.95 -11.95 -37.0 -11.95 -37.2 -12.05 -37.4 -12.15 -37.75 -12.4 -39.5 -12.75 -41.05 Q-13.0 -41.85 -12.6 -42.5 -12.3 -43.0 -11.65 -43.15 L-11.4 -43.2 -11.3 -43.2 -10.95 -43.3 -10.0 -43.45 -9.8 -43.5 -9.55 -43.6 -9.35 -43.65 -8.05 -43.85 -8.0 -43.85 -7.25 -43.8 -7.15 -43.8 -7.05 -43.75 -6.55 -43.65 -6.45 -43.6 -6.4 -43.6 Q-5.75 -43.4 -5.55 -43.2 L-5.45 -43.15 -5.4 -43.05 -4.9 -42.65 -4.9 -42.6 Q-4.3 -42.0 -4.1 -41.2 L-4.05 -41.0 -4.05 -40.9 -3.9 -40.4 Q-3.7 -39.6 -4.0 -38.5 L-4.4 -37.6 -4.15 -37.6 -4.05 -37.55 Q-3.25 -37.3 -3.15 -36.45 L-3.1 -36.25 -3.1 -36.2 -3.05 -36.1 -2.95 -35.5 -2.9 -35.3 -2.9 -35.2 -2.85 -35.0 Q-2.7 -34.45 -3.05 -33.95 L-3.65 -33.45 -4.05 -33.3 -4.5 -33.25 -5.95 -33.6 -7.05 -34.3 -7.0 -34.05 Q-6.9 -33.5 -7.2 -33.05 -7.5 -32.55 -8.05 -32.45 L-8.4 -32.45 -8.45 -32.4 -8.6 -32.4 -9.1 -32.25 -9.3 -32.25 -9.55 -32.15 -9.85 -32.15 -10.4 -32.25 -11.1 -31.6 -11.2 -31.55 -11.3 -31.55 -11.4 -31.5 -11.45 -31.5 -12.05 -31.2 -12.2 -31.1 -12.35 -31.05 -12.45 -31.05 -14.8 -30.0 -15.55 -29.65 -16.2 -29.5 -16.65 -29.6 Q-17.3 -29.75 -17.65 -30.5 L-17.75 -30.85 -17.85 -30.95 -17.95 -31.25 -18.35 -32.0 -18.5 -32.45 -18.8 -31.55 Q-19.15 -30.7 -19.95 -29.95 L-20.05 -29.85 -21.1 -29.15 -21.0 -29.05 -20.8 -28.75 -20.7 -28.65 -20.55 -28.45 Q-19.55 -27.05 -21.2 -26.05 L-21.7 -25.7 -21.8 -25.65 -22.0 -25.5 Q-22.35 -25.25 -22.7 -25.25 -23.05 -25.25 -23.55 -25.55 L-23.55 -25.4 -23.75 -24.35 -24.1 -23.6 -24.1 -23.5 Q-24.5 -22.85 -24.85 -22.5 L-25.25 -22.1 -25.3 -22.0 Q-26.15 -21.15 -26.9 -20.7 L-26.95 -20.7 -27.0 -20.65 -27.45 -20.5 -28.5 -20.25 -28.8 -20.25 -29.1 -20.3 -29.0 -19.95 -28.75 -18.65 -28.75 -18.6 -28.8 -18.5 -29.0 -17.3 -29.0 -17.25 -29.05 -17.25 -29.25 -16.8 -29.45 -16.45 -29.5 -16.4 -29.55 -16.25 -30.0 -15.65 -30.9 -14.75 -31.65 -14.55 -32.3 -14.75 -32.5 -14.85 -32.6 -14.95 -32.9 -15.1 -33.3 -15.4 -33.35 -15.45 -33.6 -15.55 Q-34.7 -16.2 -33.85 -17.65 L-33.6 -17.95 -34.75 -17.6 -35.55 -17.45 -35.8 -17.45 -36.65 -17.6 -37.75 -18.05 -38.7 -18.8 -39.4 -20.25 -39.3 -21.6 -39.1 -22.2 -38.6 -23.25 -37.55 -24.5 Q-37.15 -24.9 -36.6 -24.9 L-36.2 -24.85 -35.7 -24.6 -35.65 -24.55 -35.45 -24.45 -35.1 -24.2 -34.9 -24.1 Q-34.25 -23.7 -34.25 -23.0 -34.2 -22.6 -34.45 -22.1 L-33.95 -22.2 -33.9 -22.25 -33.5 -22.35 -32.7 -22.5 -32.85 -22.7 -32.95 -22.75 -33.1 -22.9 -33.3 -23.05 -34.15 -23.9 -35.6 -25.2 -35.95 -25.75 -36.0 -25.8 Q-36.35 -26.7 -35.75 -27.3 L-35.45 -27.55 -35.4 -27.65 -35.25 -27.8 -35.1 -28.0 -34.35 -28.7 -34.25 -28.7 -33.7 -28.85 Q-33.2 -28.85 -32.8 -28.45 L-32.55 -28.25 -31.9 -27.55 -31.6 -27.3 -31.0 -26.8 -30.85 -26.6 -30.75 -26.5 -30.55 -26.35 -30.35 -26.15 -30.2 -25.95 -29.9 -25.75 -29.55 -25.45 -29.45 -25.3 -29.4 -25.3 -29.25 -25.15 -29.15 -25.1 -29.05 -25.0 -28.5 -24.65 -28.45 -24.65 -28.05 -24.95 -27.9 -25.15 -27.9 -25.4 -28.5 -26.0 -28.95 -26.35 -29.1 -26.55 -29.2 -26.65 -29.4 -26.8 -29.85 -27.25 -29.85 -27.3 -30.15 -27.6 -31.85 -29.1 -32.4 -30.0 Q-32.65 -30.7 -32.0 -31.35 L-31.9 -31.5 -31.85 -31.5 -31.85 -31.55 -31.8 -31.6 -31.75 -31.6 -31.55 -31.9 -31.2 -32.25 Q-30.8 -32.75 -30.2 -32.75 L-30.0 -32.7 -29.9 -32.7 Q-29.25 -32.5 -29.1 -32.35 L-29.05 -32.3 -27.75 -31.1 -27.7 -31.0 -27.6 -30.95 -27.4 -30.8 -27.2 -30.55 -27.05 -30.4 -26.9 -30.3 -26.75 -30.15 -26.8 -30.25 -26.9 -30.35 -27.2 -30.75 -27.25 -30.8 -27.5 -31.25 -27.75 -31.5 -28.05 -31.95 -28.4 -32.35 Q-29.05 -33.3 -28.6 -34.15 L-28.6 -34.2 -27.95 -34.9 -27.9 -34.95 -27.3 -35.4 -27.25 -35.4" fill="#d3a000" fill-rule="evenodd" stroke="none"/>
    <path d="M-29.75 -19.9 L-29.95 -18.85 -30.4 -17.95 -30.8 -17.45 -31.4 -16.8 -31.8 -16.8 -33.05 -17.6 Q-33.3 -17.75 -33.0 -18.3 L-32.65 -18.7 -32.45 -18.85 -32.15 -19.35 Q-32.0 -19.5 -32.0 -19.75 -32.0 -20.1 -32.35 -20.35 L-32.65 -20.45 -33.2 -20.35 -33.6 -20.25 -33.95 -20.1 -35.05 -19.75 -35.6 -19.65 -36.4 -19.75 -37.25 -20.1 -37.9 -20.65 Q-38.25 -21.0 -38.4 -21.6 -38.5 -22.1 -38.2 -23.0 L-37.75 -23.95 -36.9 -24.95 -36.5 -25.1 -36.25 -24.9 -36.0 -24.75 -35.75 -24.65 -35.45 -24.45 -35.25 -24.15 -35.35 -23.75 -35.5 -23.6 -36.05 -22.85 -36.15 -22.45 -35.9 -21.95 -35.3 -21.9 -34.4 -22.25 -34.2 -22.25 -34.1 -22.35 -32.65 -22.7 -31.05 -22.2 -30.45 -21.75 -30.1 -21.2 -29.9 -20.75 -29.75 -19.9" fill="#ffd245" fill-rule="evenodd" stroke="none"/>
    <path d="M-29.1 -21.45 L-29.2 -21.65 -29.05 -21.3 -29.0 -21.1 Q-28.75 -20.55 -28.75 -19.85 L-28.75 -19.8 -28.8 -19.7 -29.0 -18.5 -29.0 -18.45 -29.05 -18.4 -29.45 -17.6 -29.5 -17.6 -29.55 -17.4 -30.0 -16.85 -30.9 -15.95 -31.65 -15.75 -32.3 -15.95 -32.5 -16.05 -32.6 -16.15 -32.9 -16.3 -33.3 -16.6 -33.35 -16.6 -33.6 -16.75 Q-34.75 -17.45 -33.85 -18.8 L-33.6 -19.15 -34.75 -18.8 -35.55 -18.65 -35.8 -18.65 -36.65 -18.8 -37.75 -19.25 -38.7 -20.0 -39.4 -21.45 -39.3 -22.8 -39.1 -23.4 -38.6 -24.45 -37.55 -25.7 Q-37.15 -26.1 -36.6 -26.1 L-36.2 -26.05 -35.7 -25.75 -35.65 -25.75 -35.45 -25.6 -35.25 -25.5 -35.1 -25.4 -34.9 -25.3 Q-34.25 -24.85 -34.25 -24.2 -34.2 -23.85 -34.45 -23.25 L-33.95 -23.4 -33.9 -23.45 -32.7 -23.7 -32.6 -23.7 Q-31.6 -23.7 -30.55 -23.05 L-29.7 -22.35 -29.1 -21.45 M-29.75 -19.9 L-29.9 -20.75 -30.1 -21.2 -30.45 -21.75 -31.05 -22.2 Q-31.85 -22.7 -32.6 -22.7 L-32.65 -22.7 -34.1 -22.35 -34.2 -22.25 -34.4 -22.25 -35.3 -21.9 -35.45 -21.9 -35.9 -21.95 -36.15 -22.45 -36.05 -22.85 -35.5 -23.6 -35.35 -23.75 -35.25 -24.15 -35.45 -24.45 -35.75 -24.65 -36.0 -24.75 -36.25 -24.9 -36.5 -25.1 -36.6 -25.1 -36.9 -24.95 -37.75 -23.95 -38.2 -23.0 Q-38.5 -22.1 -38.4 -21.6 -38.25 -21.0 -37.9 -20.65 L-37.25 -20.1 -36.4 -19.75 -35.8 -19.65 -35.6 -19.65 -35.05 -19.75 -33.95 -20.1 -33.6 -20.25 -33.2 -20.35 -32.85 -20.45 -32.65 -20.45 -32.35 -20.35 Q-32.0 -20.1 -32.0 -19.75 -32.0 -19.5 -32.15 -19.35 L-32.45 -18.85 -32.65 -18.7 -33.0 -18.3 Q-33.3 -17.75 -33.05 -17.6 L-31.8 -16.8 -31.65 -16.75 -31.4 -16.8 -30.8 -17.45 -30.4 -17.95 -29.95 -18.85 -29.75 -19.9" fill="#b07f00" fill-rule="evenodd" stroke="none"/>
    <path d="M-29.1 -32.2 L-28.95 -32.0 -28.6 -31.7 -27.55 -30.7 -27.1 -30.35 -25.9 -29.15 -25.7 -29.0 -25.35 -28.65 -24.9 -28.05 -24.6 -27.4 -24.55 -26.7 -24.7 -25.8 -25.0 -25.2 -25.6 -24.35 -26.05 -23.9 Q-26.55 -23.3 -27.4 -22.75 L-27.8 -22.6 -28.65 -22.45 -29.2 -22.5 -29.75 -22.65 -30.15 -22.9 -30.95 -23.45 -34.95 -27.1 -35.05 -27.35 Q-35.25 -27.6 -35.0 -27.85 L-34.85 -27.95 -34.65 -28.15 -34.35 -28.55 -33.85 -29.0 -33.45 -28.9 -33.35 -28.75 -30.25 -25.9 -30.1 -25.7 -28.8 -24.85 -28.15 -24.9 Q-27.6 -25.05 -27.35 -25.45 L-27.05 -25.9 Q-26.85 -26.2 -26.9 -26.65 -27.0 -27.1 -27.25 -27.35 L-28.25 -28.3 -28.4 -28.5 -28.75 -28.75 -29.45 -29.5 -31.2 -31.05 -31.45 -31.45 -31.3 -31.85 -31.05 -32.1 -31.0 -32.1 -30.5 -32.75 -30.15 -32.9 -29.7 -32.75 -29.1 -32.2" fill="#ffd245" fill-rule="evenodd" stroke="none"/>
    <path d="M-30.2 -32.9 L-30.5 -32.75 -31.0 -32.1 -31.05 -32.1 -31.3 -31.85 -31.45 -31.45 -31.2 -31.05 -29.45 -29.5 -28.75 -28.75 -28.4 -28.5 -28.25 -28.3 -27.25 -27.35 Q-27.0 -27.1 -26.9 -26.65 -26.85 -26.2 -27.05 -25.9 L-27.35 -25.45 Q-27.6 -25.05 -28.15 -24.9 L-28.5 -24.85 -28.8 -24.85 -30.1 -25.7 -30.25 -25.9 -33.35 -28.75 -33.45 -28.9 -33.7 -29.0 -33.85 -29.0 -34.35 -28.55 -34.65 -28.15 -34.85 -27.95 -35.0 -27.85 Q-35.25 -27.6 -35.05 -27.35 L-34.95 -27.1 -30.95 -23.45 -30.15 -22.9 -29.75 -22.65 -29.2 -22.5 -28.65 -22.45 -28.5 -22.45 -27.8 -22.6 -27.4 -22.75 Q-26.55 -23.3 -26.05 -23.9 L-25.6 -24.35 -25.0 -25.2 -24.7 -25.8 -24.55 -26.7 -24.6 -27.4 -24.9 -28.05 -25.35 -28.65 -25.7 -29.0 -25.9 -29.15 -27.1 -30.35 -27.55 -30.7 -28.95 -32.0 -29.1 -32.2 -29.7 -32.75 -30.15 -32.9 -30.2 -32.9 M-30.2 -33.9 L-29.9 -33.9 -29.1 -33.5 -29.05 -33.5 -28.45 -32.9 -28.3 -32.8 -27.9 -32.45 -27.75 -32.25 -27.7 -32.2 -27.6 -32.15 -27.4 -32.0 -27.2 -31.75 -26.9 -31.45 -26.45 -31.1 -25.2 -29.85 -25.05 -29.75 -24.1 -28.7 -24.1 -28.65 -24.05 -28.65 -23.65 -27.65 -23.55 -26.6 -23.75 -25.55 -24.1 -24.8 -24.1 -24.7 Q-24.5 -24.05 -24.85 -23.7 L-25.3 -23.2 Q-26.15 -22.35 -26.9 -21.9 L-26.95 -21.85 -27.0 -21.85 -27.45 -21.7 -28.5 -21.45 -28.8 -21.45 -29.45 -21.55 -30.2 -21.8 -30.5 -21.95 -30.65 -22.05 -31.6 -22.7 -31.8 -22.85 -31.95 -23.05 -32.05 -23.15 -32.25 -23.3 -32.5 -23.55 -32.7 -23.7 -32.95 -23.95 -33.1 -24.05 -34.15 -25.1 -34.95 -25.75 -35.2 -26.05 -35.6 -26.4 -35.95 -26.9 -36.0 -27.0 Q-36.35 -27.8 -35.75 -28.5 L-35.45 -28.75 -35.4 -28.85 -35.25 -28.95 -35.1 -29.2 -34.4 -29.8 -34.35 -29.85 -34.25 -29.9 -33.7 -30.0 -32.8 -29.65 -31.9 -28.75 -31.0 -28.0 -30.85 -27.8 -30.75 -27.7 -30.55 -27.55 -30.35 -27.3 -30.2 -27.15 -29.9 -26.95 -29.4 -26.45 -29.25 -26.35 -29.15 -26.25 -29.1 -26.25 -29.1 -26.2 -29.05 -26.2 -28.5 -25.85 -28.45 -25.85 -28.05 -26.15 -27.9 -26.35 -27.9 -26.6 -27.95 -26.6 -28.4 -27.1 -28.5 -27.2 -28.95 -27.55 -29.1 -27.75 -29.2 -27.8 -30.15 -28.8 -30.4 -28.95 -31.85 -30.3 -32.4 -31.15 Q-32.65 -31.9 -32.0 -32.55 L-31.2 -33.45 Q-30.8 -33.9 -30.2 -33.9" fill="#b07f00" fill-rule="evenodd" stroke="none"/>
    <path d="M-27.6 -34.1 Q-27.9 -34.55 -27.7 -34.9 L-27.35 -35.3 -25.5 -36.7 -25.15 -36.9 -23.8 -37.55 -22.95 -37.7 -22.35 -37.7 Q-21.4 -37.6 -20.85 -37.05 L-20.05 -36.05 -19.55 -34.9 -19.5 -34.5 -19.5 -33.75 -19.7 -33.1 -20.7 -31.8 -22.0 -30.9 -22.25 -30.5 -22.15 -30.1 -22.05 -29.95 -21.35 -29.05 -21.2 -28.55 -21.75 -28.05 -22.3 -27.7 -22.55 -27.5 Q-22.85 -27.3 -23.1 -27.7 L-23.8 -28.75 -24.1 -29.2 -25.25 -30.9 -25.4 -31.1 -25.6 -31.45 -27.0 -33.4 -27.6 -34.1 M-23.75 -35.6 L-24.55 -35.1 -24.75 -34.95 -24.9 -34.5 -24.35 -33.4 -24.25 -33.2 -24.1 -33.05 -23.9 -32.8 Q-23.65 -32.55 -23.25 -32.55 L-22.4 -32.9 -21.9 -33.35 -21.6 -33.9 -21.6 -34.1 -21.55 -34.35 -21.6 -34.55 -22.0 -35.25 -22.05 -35.3 -22.55 -35.65 -22.8 -35.75 -23.75 -35.6" fill="#ffd245" fill-rule="evenodd" stroke="none"/>
    <path d="M-22.6 -34.1 L-22.6 -34.25 -22.75 -34.6 -22.95 -34.75 -23.15 -34.75 -23.35 -34.7 -23.7 -34.45 -23.85 -34.4 -23.45 -33.8 -23.35 -33.75 -23.25 -33.6 -23.0 -33.7 -22.65 -34.0 -22.6 -34.1 M-23.75 -35.6 L-23.15 -35.75 -22.8 -35.75 -22.55 -35.65 -22.05 -35.3 -22.0 -35.25 -21.6 -34.55 -21.55 -34.35 -21.6 -34.1 -21.6 -33.9 -21.9 -33.35 -22.4 -32.9 Q-22.9 -32.55 -23.25 -32.55 L-23.3 -32.55 Q-23.65 -32.55 -23.9 -32.8 L-24.1 -33.05 -24.25 -33.2 -24.35 -33.4 -24.9 -34.5 -24.75 -34.95 -24.55 -35.1 -23.75 -35.6 M-27.7 -34.9 Q-27.9 -34.55 -27.6 -34.1 L-27.0 -33.4 -25.7 -31.6 -25.4 -31.1 -25.25 -30.9 -24.1 -29.2 -23.8 -28.75 -23.1 -27.7 -22.7 -27.45 -22.55 -27.5 -22.3 -27.7 -21.75 -28.05 -21.2 -28.55 -21.35 -29.05 -22.05 -29.95 -22.15 -30.1 -22.25 -30.5 -22.0 -30.9 -20.7 -31.8 -19.7 -33.1 -19.5 -33.75 -19.5 -34.5 -19.55 -34.9 -20.05 -36.05 -20.85 -37.05 Q-21.4 -37.6 -22.35 -37.7 L-22.95 -37.7 -23.8 -37.55 -25.15 -36.9 -25.5 -36.7 -27.35 -35.3 -27.7 -34.9 M-23.05 -38.7 L-22.25 -38.7 Q-21.1 -38.6 -20.2 -37.8 L-19.85 -37.45 -19.8 -37.35 -19.2 -36.6 -18.6 -35.1 -18.55 -34.8 -18.5 -34.65 -18.5 -33.65 -18.8 -32.75 Q-19.1 -31.95 -19.95 -31.1 L-20.0 -31.1 -20.05 -31.05 -20.6 -30.6 -20.95 -30.4 -21.1 -30.35 -21.0 -30.2 -20.8 -29.95 -20.7 -29.85 -20.55 -29.65 Q-19.55 -28.25 -21.2 -27.25 L-21.7 -26.9 -21.8 -26.85 -22.0 -26.65 -22.7 -26.45 Q-23.5 -26.45 -23.95 -27.15 L-24.6 -28.2 -24.75 -28.35 -24.95 -28.6 -25.2 -29.05 -25.35 -29.2 -26.25 -30.55 -26.5 -31.0 -26.6 -31.1 -26.7 -31.25 -26.8 -31.45 -27.0 -31.65 -27.2 -31.95 -27.25 -32.0 -27.6 -32.55 -27.75 -32.7 -28.4 -33.55 Q-29.05 -34.5 -28.6 -35.35 L-28.6 -35.4 -27.95 -36.1 -27.9 -36.15 -27.3 -36.55 -27.2 -36.65 -26.1 -37.5 -25.7 -37.75 -25.65 -37.75 -25.65 -37.8 -24.05 -38.5 -23.05 -38.7" fill="#b07f00" fill-rule="evenodd" stroke="none"/>
    <path d="M-14.95 -41.8 L-14.8 -41.4 -14.5 -40.85 -14.5 -40.5 -14.6 -40.3 -14.85 -40.15 -15.75 -39.75 -16.55 -39.45 -17.15 -39.05 -17.15 -38.5 Q-16.8 -37.75 -16.4 -37.85 L-15.95 -38.0 -14.25 -38.75 -13.9 -38.85 Q-13.65 -38.85 -13.55 -38.6 L-13.45 -38.25 -13.15 -37.55 Q-13.05 -37.1 -13.5 -36.9 L-14.1 -36.6 -14.4 -36.5 -14.65 -36.35 -15.05 -36.25 -15.5 -36.0 -15.7 -35.85 Q-15.9 -35.65 -15.7 -35.25 L-15.2 -34.5 -14.3 -34.65 -12.55 -35.45 Q-12.3 -35.7 -11.95 -35.45 L-11.65 -35.0 -11.6 -34.9 -11.4 -34.6 -11.3 -34.3 Q-11.05 -33.9 -11.5 -33.7 L-11.7 -33.65 -12.2 -33.45 -12.75 -33.15 -13.05 -33.05 -15.95 -31.75 -16.35 -31.7 -16.7 -32.1 -18.65 -36.35 -18.7 -36.55 -19.1 -37.35 -19.3 -37.95 -19.85 -39.15 -20.0 -39.65 -19.7 -40.15 -17.2 -41.3 -16.0 -41.75 -15.5 -42.0 Q-15.1 -42.25 -14.95 -41.8" fill="#ffd245" fill-rule="evenodd" stroke="none"/>
    <path d="M-15.3 -42.05 L-15.5 -42.0 -16.0 -41.75 -17.2 -41.3 -19.7 -40.15 -20.0 -39.65 -19.85 -39.15 -19.3 -37.95 -19.1 -37.35 -18.7 -36.55 -18.65 -36.35 -16.7 -32.1 -16.35 -31.7 -16.2 -31.7 -15.95 -31.75 -13.05 -33.05 -12.75 -33.15 -12.2 -33.45 -11.7 -33.65 -11.5 -33.7 Q-11.05 -33.9 -11.3 -34.3 L-11.4 -34.6 -11.6 -34.9 -11.65 -35.0 -11.95 -35.45 -12.2 -35.55 -12.8 -35.35 -14.3 -34.65 -15.0 -34.45 Q-15.4 -34.45 -15.7 -35.25 -15.9 -35.65 -15.7 -35.85 L-15.5 -36.0 -15.05 -36.25 -14.65 -36.35 -14.4 -36.5 -14.1 -36.6 -13.5 -36.9 Q-13.05 -37.1 -13.15 -37.55 L-13.45 -38.25 -13.55 -38.6 Q-13.65 -38.85 -13.9 -38.85 L-14.25 -38.75 -15.95 -38.0 -16.6 -37.8 -17.15 -38.5 -17.15 -39.05 -16.55 -39.45 -15.75 -39.75 -14.85 -40.15 -14.6 -40.3 -14.5 -40.5 -14.5 -40.85 -14.8 -41.4 -14.95 -41.8 Q-15.05 -42.05 -15.3 -42.05 M-14.0 -42.15 L-13.95 -42.05 -13.9 -41.85 -13.75 -41.6 -13.6 -41.25 Q-13.4 -40.8 -13.55 -40.3 L-13.7 -39.85 Q-12.9 -39.7 -12.6 -38.95 L-12.2 -37.9 -12.2 -37.8 Q-12.0 -37.05 -12.35 -36.5 L-12.2 -36.55 -11.35 -36.2 Q-10.9 -35.9 -10.75 -35.4 L-10.75 -35.35 -10.7 -35.3 -10.55 -35.1 -10.5 -35.05 -10.5 -35.0 -10.35 -34.7 Q-10.15 -34.15 -10.3 -33.6 -10.55 -33.05 -11.1 -32.8 L-11.2 -32.75 -11.25 -32.75 -11.3 -32.7 -11.45 -32.7 -11.75 -32.55 -12.05 -32.35 -12.35 -32.25 -12.4 -32.25 -12.45 -32.2 -12.65 -32.15 -13.7 -31.6 -14.2 -31.45 -14.65 -31.25 -14.8 -31.2 -15.55 -30.85 -16.2 -30.7 -16.65 -30.75 Q-17.35 -31.0 -17.65 -31.7 L-17.7 -31.9 -17.75 -32.0 -17.85 -32.15 -18.05 -32.65 -18.2 -32.85 -18.35 -33.15 -18.45 -33.5 -18.7 -34.0 -18.75 -34.2 -19.0 -34.7 -19.05 -34.85 -19.55 -35.95 -19.65 -36.25 -19.75 -36.45 -19.75 -36.5 -19.85 -36.65 -20.15 -37.35 -20.2 -37.55 -20.45 -38.15 -20.6 -38.4 -20.75 -38.75 -21.0 -39.7 Q-20.9 -40.75 -20.1 -41.05 L-18.0 -42.0 -17.85 -42.05 -17.4 -42.3 -16.4 -42.7 -16.2 -42.8 -15.9 -42.9 -15.3 -43.05 Q-14.35 -43.05 -14.0 -42.15" fill="#b07f00" fill-rule="evenodd" stroke="none"/>
    <path d="M-4.9 -41.35 Q-4.75 -40.65 -4.95 -40.0 L-5.35 -39.15 -5.7 -38.35 -5.4 -38.05 -4.6 -37.8 -4.4 -37.8 -4.1 -37.45 -4.05 -37.15 -3.95 -36.85 -3.9 -36.25 -3.8 -36.0 Q-3.75 -35.6 -4.25 -35.45 L-5.5 -35.7 -6.5 -36.3 -6.65 -36.4 -7.25 -36.7 -7.95 -36.8 -8.1 -36.7 -8.25 -36.4 -8.25 -35.8 -7.95 -35.05 Q-7.85 -34.65 -8.25 -34.65 L-8.5 -34.6 -8.75 -34.6 -9.05 -34.5 -9.8 -34.35 Q-10.25 -34.2 -10.25 -34.7 L-10.3 -35.0 -10.3 -35.25 -10.45 -35.8 -10.5 -36.3 -11.65 -41.95 -11.8 -42.45 Q-11.9 -43.25 -11.45 -43.35 L-11.1 -43.4 -9.8 -43.7 -8.05 -44.0 -7.35 -44.0 -6.7 -43.85 -6.1 -43.55 -5.55 -43.05 -5.3 -42.75 -5.05 -42.15 -4.9 -41.35 M-9.15 -41.7 L-9.3 -41.45 -9.35 -41.0 -8.9 -39.1 -8.6 -38.75 -8.2 -38.8 -7.7 -39.05 -7.55 -39.15 -7.3 -39.5 Q-7.1 -39.75 -7.05 -40.05 L-6.95 -41.05 Q-7.1 -41.85 -7.9 -41.9 L-8.4 -41.9 -8.95 -41.85 -9.15 -41.7" fill="#ffd245" fill-rule="evenodd" stroke="none"/>
    <path d="M-7.95 -40.85 L-8.0 -40.9 -8.15 -40.95 -8.2 -40.9 -8.3 -40.9 -8.2 -40.6 -8.15 -40.25 -8.1 -40.05 -8.05 -40.15 -8.0 -40.35 Q-7.9 -40.65 -7.95 -40.85 M-9.15 -41.7 L-8.95 -41.85 -8.4 -41.9 -8.15 -41.95 -7.9 -41.9 Q-7.1 -41.85 -6.95 -41.05 L-7.05 -40.05 Q-7.1 -39.75 -7.3 -39.5 L-7.55 -39.15 -7.7 -39.05 -8.2 -38.8 -8.55 -38.75 -8.6 -38.75 -8.9 -39.1 -9.35 -41.0 -9.3 -41.45 -9.15 -41.7 M-5.05 -42.15 L-5.3 -42.75 -5.55 -43.05 -6.1 -43.55 -6.7 -43.85 -7.35 -44.0 -8.05 -44.0 -9.8 -43.7 -11.1 -43.4 -11.45 -43.35 Q-11.9 -43.25 -11.8 -42.45 L-11.65 -41.95 -11.15 -39.1 -10.5 -36.3 -10.45 -35.8 -10.3 -35.25 -10.3 -35.0 -10.25 -34.7 Q-10.25 -34.3 -9.85 -34.3 L-9.8 -34.35 -9.05 -34.5 -8.75 -34.6 -8.5 -34.6 -8.25 -34.65 Q-7.85 -34.65 -7.95 -35.05 L-8.25 -35.8 -8.25 -36.4 -8.1 -36.7 -7.95 -36.8 -7.75 -36.85 -7.25 -36.7 -6.65 -36.4 -6.5 -36.3 -5.5 -35.7 -4.5 -35.4 -4.25 -35.45 Q-3.75 -35.6 -3.8 -36.0 L-3.9 -36.25 -3.95 -36.85 -4.05 -37.15 -4.1 -37.45 -4.4 -37.8 -4.6 -37.8 -5.4 -38.05 -5.7 -38.35 -5.35 -39.15 -4.95 -40.0 Q-4.75 -40.65 -4.9 -41.35 L-5.05 -42.15 M-12.75 -42.25 Q-13.0 -43.05 -12.6 -43.7 -12.3 -44.2 -11.65 -44.35 L-11.4 -44.4 -11.15 -44.4 -9.35 -44.8 -9.05 -44.9 -8.05 -45.0 -7.25 -45.0 -7.15 -44.95 -7.05 -44.95 -6.55 -44.85 -6.45 -44.8 -6.4 -44.8 -5.55 -44.4 -5.4 -44.25 -4.9 -43.8 Q-4.3 -43.2 -4.1 -42.35 L-4.05 -42.15 -4.05 -42.1 -3.9 -41.55 Q-3.7 -40.75 -4.0 -39.7 L-4.4 -38.8 -4.25 -38.8 -4.15 -38.75 -4.05 -38.75 Q-3.25 -38.5 -3.15 -37.65 L-3.1 -37.45 -3.1 -37.4 -3.05 -37.3 -2.9 -36.5 -2.9 -36.4 -2.85 -36.2 Q-2.7 -35.65 -3.05 -35.15 L-3.65 -34.6 -4.05 -34.45 -4.5 -34.4 Q-5.55 -34.4 -5.95 -34.8 L-7.05 -35.45 -7.0 -35.25 Q-6.9 -34.7 -7.2 -34.2 -7.5 -33.75 -8.05 -33.65 L-8.4 -33.6 -8.6 -33.6 -8.75 -33.55 -9.85 -33.3 Q-10.9 -33.3 -11.25 -34.5 L-11.25 -34.85 -11.3 -34.95 -11.3 -35.05 -11.35 -35.25 -11.55 -36.4 -11.55 -36.55 -11.65 -36.75 -11.7 -37.15 -11.95 -38.15 -11.95 -38.35 -12.05 -38.55 -12.15 -38.95 -12.4 -40.7 -12.75 -42.25" fill="#b07f00" fill-rule="evenodd" stroke="none"/>
    <path d="M3.3 -44.75 L4.25 -44.65 4.7 -44.6 6.15 -44.25 6.85 -43.8 7.3 -43.4 Q7.95 -42.75 8.05 -41.95 L8.0 -40.65 7.65 -39.45 7.45 -39.1 6.95 -38.55 6.35 -38.2 4.75 -37.85 4.15 -37.85 3.55 -37.95 3.15 -38.0 Q2.9 -38.0 2.75 -37.85 L2.55 -37.5 2.5 -37.3 2.5 -36.55 2.45 -36.2 2.3 -35.7 1.5 -35.65 0.85 -35.75 0.55 -35.75 Q0.2 -35.85 0.25 -36.3 L0.7 -40.1 0.7 -40.4 0.8 -40.75 0.8 -40.95 0.85 -41.2 1.05 -44.05 Q1.05 -44.6 1.45 -44.75 L1.95 -44.8 3.3 -44.75 M4.0 -42.85 L3.75 -42.85 3.3 -42.65 Q3.1 -42.35 3.0 -41.45 L2.95 -41.2 2.95 -40.7 3.3 -40.05 4.15 -39.8 4.85 -39.8 5.1 -39.9 5.4 -40.05 5.55 -40.15 5.75 -40.35 5.85 -40.5 6.0 -41.3 6.0 -41.4 5.85 -42.0 5.7 -42.2 4.9 -42.7 4.0 -42.85" fill="#ffd245" fill-rule="evenodd" stroke="none"/>
    <path d="M4.2 -41.8 L4.15 -41.8 4.05 -41.85 4.0 -41.35 3.95 -41.15 3.95 -40.85 4.25 -40.8 4.65 -40.8 4.8 -40.85 4.9 -40.95 5.0 -41.3 4.95 -41.55 4.85 -41.7 4.65 -41.75 4.2 -41.8 M3.75 -42.85 L4.0 -42.85 4.9 -42.7 5.7 -42.2 5.85 -42.0 6.0 -41.4 6.0 -41.3 5.85 -40.5 5.75 -40.35 5.55 -40.15 5.4 -40.05 5.1 -39.9 4.85 -39.8 4.15 -39.8 3.3 -40.05 2.95 -40.7 2.95 -41.2 3.0 -41.45 Q3.1 -42.35 3.3 -42.65 L3.75 -42.85 M1.05 -45.7 L1.1 -45.7 1.75 -45.85 2.0 -45.8 4.65 -45.65 4.8 -45.6 4.9 -45.6 6.55 -45.15 7.45 -44.6 8.05 -44.1 Q8.85 -43.3 9.05 -42.05 L9.05 -41.45 9.0 -40.55 Q8.95 -39.75 8.5 -38.95 L8.35 -38.7 8.3 -38.55 8.2 -38.5 8.0 -38.25 7.8 -38.05 7.65 -37.85 7.6 -37.8 6.8 -37.3 5.9 -36.95 4.8 -36.85 4.05 -36.85 3.65 -36.95 3.5 -36.95 3.5 -36.5 3.45 -36.35 3.45 -36.05 Q3.35 -34.65 1.9 -34.65 L1.05 -34.75 0.7 -34.75 0.45 -34.8 Q-0.1 -34.85 -0.45 -35.3 -0.8 -35.8 -0.75 -36.4 L-0.6 -37.65 -0.55 -37.85 -0.55 -38.15 -0.5 -38.45 -0.5 -38.85 -0.3 -40.25 -0.3 -40.5 -0.2 -41.0 -0.2 -41.15 -0.15 -41.3 -0.15 -41.55 -0.1 -41.65 -0.05 -42.75 -0.05 -42.85 0.0 -43.1 0.05 -44.2 Q0.15 -45.25 1.05 -45.7 M3.3 -44.75 L1.95 -44.8 1.75 -44.85 1.45 -44.75 Q1.05 -44.6 1.05 -44.05 L0.85 -41.2 0.8 -40.95 0.8 -40.75 0.7 -40.4 0.7 -40.1 0.25 -36.3 Q0.2 -35.85 0.55 -35.75 L0.85 -35.75 1.5 -35.65 1.9 -35.65 Q2.45 -35.65 2.45 -36.2 L2.5 -36.55 2.5 -37.3 2.55 -37.5 2.75 -37.85 Q2.9 -38.0 3.15 -38.0 L3.55 -37.95 4.15 -37.85 4.75 -37.85 6.35 -38.2 6.95 -38.55 7.45 -39.1 7.65 -39.45 8.0 -40.65 8.05 -41.95 Q7.95 -42.75 7.3 -43.4 L6.85 -43.8 6.15 -44.25 4.7 -44.6 4.25 -44.65 3.3 -44.75" fill="#b07f00" fill-rule="evenodd" stroke="none"/>
    <path d="M8.5 -39.85 L9.2 -41.1 9.65 -41.6 10.3 -42.15 10.9 -42.55 11.2 -42.65 11.5 -42.8 12.15 -42.9 12.45 -42.9 12.8 -42.95 13.95 -42.75 14.6 -42.45 15.15 -42.1 15.9 -41.4 16.4 -40.65 16.65 -40.1 16.9 -38.7 16.85 -38.2 16.5 -36.65 16.1 -35.85 15.6 -35.1 14.8 -34.35 Q14.4 -33.95 13.75 -33.8 L13.05 -33.7 12.3 -33.65 11.95 -33.7 11.7 -33.7 11.3 -33.8 10.6 -34.05 10.05 -34.35 9.5 -34.75 9.25 -35.0 9.0 -35.35 8.35 -36.55 8.15 -37.25 8.1 -37.6 8.15 -38.55 8.5 -39.85 M14.35 -39.9 L13.75 -40.45 13.15 -40.7 12.8 -40.75 12.25 -40.7 11.55 -40.45 11.0 -40.0 10.7 -39.5 10.5 -39.15 10.5 -39.05 10.35 -38.6 10.3 -38.1 10.35 -37.35 Q10.5 -36.7 10.85 -36.35 L11.05 -36.25 11.2 -36.15 11.85 -35.85 12.2 -35.75 13.1 -35.9 13.9 -36.4 14.3 -37.05 14.5 -37.5 14.7 -38.05 14.75 -38.3 14.65 -39.1 14.35 -39.9" fill="#ffd245" fill-rule="evenodd" stroke="none"/>
    <path d="M13.75 -38.4 L13.7 -38.85 13.55 -39.15 13.5 -39.3 13.5 -39.35 13.2 -39.6 12.85 -39.75 12.75 -39.75 12.6 -39.8 12.55 -39.75 12.5 -39.75 12.15 -39.65 12.1 -39.65 11.7 -39.25 11.6 -39.05 11.5 -38.9 11.45 -38.8 11.35 -38.35 11.35 -38.25 11.3 -38.0 11.35 -37.55 11.55 -37.15 11.6 -37.1 11.75 -37.0 11.75 -36.95 11.8 -36.95 11.85 -36.9 11.95 -36.9 12.1 -36.85 12.15 -36.8 12.3 -36.75 12.75 -36.85 13.15 -37.1 13.2 -37.2 13.45 -37.55 13.6 -37.95 13.65 -38.2 13.75 -38.4 M14.35 -39.9 L14.65 -39.1 14.75 -38.3 14.7 -38.05 14.5 -37.5 14.3 -37.05 13.9 -36.4 13.1 -35.9 12.25 -35.75 12.2 -35.75 11.85 -35.85 11.2 -36.15 11.05 -36.25 10.85 -36.35 Q10.5 -36.7 10.35 -37.35 L10.3 -38.1 10.35 -38.6 10.5 -39.05 10.5 -39.15 10.7 -39.5 11.0 -40.0 11.55 -40.45 12.25 -40.7 12.55 -40.8 13.15 -40.7 13.75 -40.45 14.35 -39.9 M7.8 -40.75 L8.45 -41.75 9.15 -42.5 9.2 -42.5 9.7 -42.95 10.0 -43.15 10.05 -43.15 10.05 -43.2 10.15 -43.25 10.45 -43.45 11.15 -43.75 12.05 -43.9 12.45 -43.9 12.5 -43.95 12.85 -43.95 14.25 -43.7 15.8 -42.9 15.85 -42.9 15.85 -42.85 16.65 -42.1 17.3 -41.1 17.4 -40.8 17.45 -40.7 17.5 -40.65 17.6 -40.45 17.75 -39.7 17.8 -39.35 17.85 -39.15 17.9 -38.8 17.85 -38.1 17.45 -36.35 16.9 -35.2 16.35 -34.45 15.4 -33.55 Q14.65 -33.0 14.0 -32.85 L13.6 -32.8 13.55 -32.8 13.15 -32.7 13.35 -32.75 12.3 -32.65 12.2 -32.65 11.95 -32.7 11.55 -32.7 11.0 -32.85 9.5 -33.5 9.15 -33.75 9.1 -33.85 9.05 -33.85 8.95 -33.95 8.45 -34.35 8.25 -34.65 8.2 -34.75 8.2 -34.8 Q7.65 -35.45 7.45 -36.15 L7.2 -37.0 7.2 -37.1 7.15 -37.2 7.1 -37.45 7.1 -37.5 7.15 -38.7 7.2 -38.75 7.55 -40.15 7.8 -40.75 M8.5 -39.85 L8.15 -38.55 8.1 -37.6 8.15 -37.25 8.35 -36.55 9.0 -35.35 9.25 -35.0 9.5 -34.75 10.05 -34.35 10.6 -34.05 11.3 -33.8 11.7 -33.7 11.95 -33.7 12.3 -33.65 13.05 -33.7 13.75 -33.8 Q14.4 -33.95 14.8 -34.35 L15.6 -35.1 16.1 -35.85 16.5 -36.65 16.85 -38.2 16.9 -38.7 16.65 -40.1 16.4 -40.65 15.9 -41.4 15.15 -42.1 14.6 -42.45 13.95 -42.75 12.8 -42.95 12.45 -42.9 12.15 -42.9 11.5 -42.8 11.2 -42.65 10.9 -42.55 10.3 -42.15 9.65 -41.6 9.2 -41.1 8.5 -39.85" fill="#b07f00" fill-rule="evenodd" stroke="none"/>
    <path d="M16.4 -32.55 L19.2 -40.5 19.3 -40.65 19.5 -40.75 19.65 -40.7 19.95 -40.5 20.05 -40.4 20.55 -40.15 20.95 -39.85 21.05 -39.65 21.05 -39.4 20.7 -38.5 20.45 -37.9 19.1 -33.75 19.15 -33.6 19.55 -33.9 21.2 -35.5 21.3 -35.65 21.95 -37.25 22.05 -37.65 22.5 -38.65 22.75 -38.75 22.95 -38.65 23.75 -38.1 24.15 -37.9 24.25 -37.75 24.3 -37.45 23.3 -34.85 22.85 -33.75 22.15 -31.9 22.1 -31.8 22.2 -31.75 22.6 -32.05 22.9 -32.35 23.15 -32.65 24.65 -34.3 25.3 -34.85 26.5 -36.15 26.65 -36.2 26.75 -36.2 27.5 -35.85 27.85 -35.55 28.15 -35.4 28.25 -35.05 28.2 -34.95 27.0 -33.65 26.6 -33.3 26.35 -33.0 25.95 -32.65 24.65 -31.3 23.55 -30.2 22.1 -28.8 21.95 -28.75 21.3 -28.9 19.9 -29.8 19.6 -30.1 19.6 -30.25 20.15 -32.15 20.1 -32.3 19.95 -32.25 19.7 -32.05 19.35 -31.75 18.95 -31.3 18.6 -31.0 18.3 -30.9 18.05 -30.9 17.55 -31.3 16.5 -31.9 16.4 -32.2 16.4 -32.55" fill="#ffd245" fill-rule="evenodd" stroke="none"/>
    <path d="M16.4 -32.55 L16.4 -32.2 16.5 -31.9 17.55 -31.3 18.05 -30.9 18.3 -30.9 18.6 -31.0 18.95 -31.3 19.35 -31.75 19.7 -32.05 19.95 -32.25 20.1 -32.3 20.15 -32.15 19.6 -30.25 19.6 -30.1 19.9 -29.8 21.3 -28.9 21.95 -28.75 22.1 -28.8 23.55 -30.2 24.65 -31.3 25.95 -32.65 26.35 -33.0 26.6 -33.3 27.0 -33.65 28.2 -34.95 28.25 -35.05 28.15 -35.4 27.85 -35.55 27.5 -35.85 26.75 -36.2 26.65 -36.2 26.5 -36.15 25.3 -34.85 24.65 -34.3 23.15 -32.65 22.9 -32.35 22.6 -32.05 22.2 -31.75 22.1 -31.8 22.15 -31.9 22.85 -33.75 23.3 -34.85 24.3 -37.45 24.25 -37.75 24.15 -37.9 23.75 -38.1 22.95 -38.65 22.75 -38.75 22.5 -38.65 22.05 -37.65 21.95 -37.25 21.3 -35.65 21.2 -35.5 19.55 -33.9 19.15 -33.6 19.1 -33.75 20.45 -37.9 20.7 -38.5 21.05 -39.4 21.05 -39.65 20.95 -39.85 20.55 -40.15 20.05 -40.4 19.95 -40.5 19.65 -40.7 19.5 -40.75 19.3 -40.65 19.2 -40.5 16.4 -32.55 M18.15 -40.6 L18.2 -40.65 18.4 -41.1 18.5 -41.25 18.65 -41.4 19.1 -41.65 19.15 -41.65 19.45 -41.8 19.8 -41.7 19.9 -41.65 20.1 -41.6 20.25 -41.5 20.3 -41.45 20.5 -41.35 20.65 -41.25 20.7 -41.2 21.05 -41.0 21.1 -40.95 21.3 -40.8 21.5 -40.7 21.7 -40.55 21.8 -40.35 21.95 -40.15 22.05 -39.9 22.05 -39.6 22.8 -39.75 23.05 -39.7 23.25 -39.6 23.45 -39.55 23.55 -39.45 24.2 -38.95 24.4 -38.9 24.45 -38.85 24.5 -38.85 24.65 -38.75 24.95 -38.45 25.2 -38.25 25.25 -37.95 25.25 -37.2 25.15 -36.9 25.0 -36.65 24.9 -36.25 24.9 -36.2 24.6 -35.65 24.6 -35.6 25.1 -36.1 25.15 -36.2 25.75 -36.8 25.9 -37.0 26.1 -37.05 26.25 -37.15 26.5 -37.25 26.75 -37.2 27.05 -37.2 27.65 -36.85 27.7 -36.85 27.95 -36.75 27.95 -36.7 28.0 -36.7 28.4 -36.4 28.95 -36.1 29.1 -35.75 29.25 -35.25 29.25 -34.95 29.1 -34.55 29.1 -34.5 29.05 -34.4 28.4 -33.7 27.9 -33.2 27.7 -32.95 26.95 -32.2 26.65 -31.95 26.6 -31.85 25.3 -30.55 24.3 -29.55 23.6 -28.8 23.55 -28.8 23.0 -28.3 23.0 -28.25 22.8 -28.1 22.65 -27.95 22.1 -27.75 21.9 -27.75 Q21.15 -27.85 20.75 -28.1 L19.5 -28.85 19.45 -28.9 19.35 -28.9 18.75 -29.55 18.65 -29.7 18.65 -29.95 18.45 -29.85 17.9 -29.95 17.65 -29.95 17.4 -30.15 16.6 -30.65 16.55 -30.65 16.0 -31.05 15.7 -31.2 15.6 -31.5 15.55 -31.55 15.4 -32.05 15.4 -32.7 15.45 -32.9 16.4 -35.55 16.4 -35.6 18.15 -40.55 18.15 -40.6" fill="#b07f00" fill-rule="evenodd" stroke="none"/>
    <path d="M30.45 -33.25 L31.8 -31.95 32.1 -31.6 32.8 -31.0 33.7 -30.0 Q34.0 -29.75 33.75 -29.4 L33.45 -29.15 33.05 -28.65 32.7 -28.55 32.5 -28.55 32.2 -28.75 31.4 -29.5 31.0 -30.05 30.35 -30.5 29.85 -30.25 29.45 -29.75 29.55 -29.3 29.85 -28.95 30.4 -28.45 30.75 -28.0 31.4 -27.4 31.3 -26.95 30.65 -26.35 30.4 -26.2 29.7 -26.25 29.2 -26.7 28.25 -27.75 27.9 -27.95 27.35 -27.75 26.8 -27.05 Q26.8 -26.7 27.3 -26.2 L27.7 -25.85 28.0 -25.5 28.7 -24.85 Q29.0 -24.55 28.9 -24.3 L28.6 -23.85 28.55 -23.8 28.1 -23.25 Q27.7 -23.0 27.45 -23.25 L27.3 -23.4 27.15 -23.6 26.7 -24.0 26.3 -24.45 25.4 -25.25 25.05 -25.7 24.05 -26.7 23.85 -27.05 24.05 -27.55 24.3 -27.75 26.35 -29.9 26.7 -30.2 27.3 -30.85 27.5 -31.0 28.1 -31.65 29.5 -33.0 29.9 -33.35 30.45 -33.25" fill="#ffd245" fill-rule="evenodd" stroke="none"/>
    <path d="M30.15 -33.4 L29.9 -33.35 29.5 -33.0 28.1 -31.65 27.5 -31.0 27.3 -30.85 26.7 -30.2 26.35 -29.9 24.3 -27.75 24.05 -27.55 23.85 -27.05 24.05 -26.7 25.05 -25.7 25.4 -25.25 26.3 -24.45 26.7 -24.0 27.15 -23.6 27.3 -23.4 27.45 -23.25 27.8 -23.1 28.1 -23.25 28.55 -23.8 28.6 -23.85 28.9 -24.3 Q29.0 -24.55 28.7 -24.85 L28.0 -25.5 27.7 -25.85 27.3 -26.2 Q26.8 -26.7 26.8 -27.05 L27.35 -27.75 27.8 -28.0 28.25 -27.75 29.2 -26.7 29.7 -26.25 30.1 -26.05 Q30.25 -26.05 30.4 -26.2 L30.65 -26.35 31.3 -26.95 31.4 -27.4 30.75 -28.0 30.4 -28.45 29.85 -28.95 29.55 -29.3 29.45 -29.75 29.85 -30.25 30.3 -30.5 31.0 -30.05 31.4 -29.5 32.2 -28.75 32.5 -28.55 32.6 -28.5 32.7 -28.55 33.05 -28.65 33.45 -29.15 33.75 -29.4 Q34.0 -29.75 33.7 -30.0 L32.8 -31.0 32.1 -31.6 31.8 -31.95 30.45 -33.25 30.15 -33.4 M27.7 -32.6 L28.75 -33.7 29.6 -34.3 30.15 -34.4 Q30.8 -34.4 31.15 -33.95 L31.5 -33.6 31.75 -33.4 32.05 -33.1 32.25 -32.85 32.5 -32.65 32.8 -32.3 32.95 -32.2 33.3 -31.85 33.5 -31.7 34.2 -30.95 34.45 -30.75 34.9 -29.7 Q34.9 -29.15 34.45 -28.7 L34.3 -28.55 34.15 -28.45 33.75 -27.95 32.85 -27.55 32.6 -27.5 32.4 -27.55 Q32.5 -26.75 31.95 -26.2 L31.1 -25.45 31.0 -25.4 Q30.65 -25.05 30.1 -25.05 L29.75 -25.1 Q30.05 -24.5 29.85 -24.0 L29.3 -23.15 29.25 -23.1 29.1 -22.85 29.05 -22.85 29.0 -22.8 28.8 -22.55 Q28.15 -22.1 27.8 -22.1 27.25 -22.1 26.75 -22.55 L26.65 -22.65 26.65 -22.7 26.55 -22.8 26.5 -22.8 26.45 -22.9 25.75 -23.55 25.75 -23.6 24.35 -24.9 24.3 -25.0 23.35 -25.95 Q22.85 -26.45 22.85 -26.95 22.75 -27.7 23.35 -28.2 L23.5 -28.4 23.6 -28.45 23.7 -28.6 23.9 -28.8 24.05 -29.0 24.25 -29.15 24.45 -29.4 25.05 -29.95 25.15 -30.1 26.95 -31.9 27.05 -31.95 27.15 -32.1 27.7 -32.6" fill="#b07f00" fill-rule="evenodd" stroke="none"/>
    <path d="M36.6 -26.45 L37.7 -24.8 38.1 -24.1 38.35 -23.45 38.45 -22.8 38.4 -22.1 38.15 -21.45 37.95 -21.1 37.5 -20.65 37.25 -20.5 36.85 -20.2 Q36.15 -19.75 35.55 -19.7 L34.6 -19.8 33.75 -19.8 Q33.6 -19.7 33.6 -19.4 33.5 -18.85 33.65 -18.6 L33.7 -18.4 33.5 -18.0 33.25 -17.85 33.0 -17.65 32.25 -17.2 Q32.05 -17.05 31.8 -17.2 L31.6 -17.4 Q31.35 -17.75 31.35 -18.65 L31.6 -20.0 31.6 -20.3 31.65 -20.65 31.45 -21.3 31.3 -21.45 31.0 -21.45 30.45 -21.2 29.85 -20.7 29.35 -20.75 29.25 -21.0 29.1 -21.25 28.5 -22.1 Q28.25 -22.45 28.65 -22.65 L28.95 -22.8 30.05 -23.55 30.45 -23.75 30.9 -24.1 35.25 -27.0 Q35.95 -27.45 36.25 -27.0 L36.4 -26.7 36.6 -26.45 M33.25 -23.05 L33.05 -22.65 33.2 -22.3 33.4 -22.1 33.65 -21.95 33.8 -21.8 34.25 -21.7 34.85 -21.7 35.8 -22.0 Q36.45 -22.45 36.25 -23.15 L36.0 -23.65 35.75 -24.1 35.55 -24.25 35.25 -24.35 34.85 -24.2 34.35 -23.8 33.8 -23.5 33.25 -23.05" fill="#ffd245" fill-rule="evenodd" stroke="none"/>
    <path d="M39.05 -24.45 L39.3 -23.75 39.35 -23.65 39.35 -23.55 39.45 -23.05 39.45 -22.85 39.4 -21.9 39.35 -21.8 39.35 -21.75 39.15 -21.3 39.1 -21.15 Q38.85 -20.35 38.05 -19.8 L37.9 -19.7 37.85 -19.65 37.65 -19.55 37.4 -19.35 Q36.8 -18.9 35.65 -18.7 L34.65 -18.75 34.65 -18.65 34.7 -18.55 34.7 -18.4 Q34.85 -17.7 34.05 -17.15 L33.85 -17.05 33.75 -16.95 33.55 -16.8 33.05 -16.55 33.0 -16.45 32.85 -16.35 32.05 -16.1 Q31.15 -16.1 30.75 -16.85 30.1 -17.8 30.35 -18.7 L30.55 -20.0 30.4 -19.85 29.65 -19.6 Q28.95 -19.6 28.5 -20.2 L28.35 -20.55 28.3 -20.6 28.3 -20.65 28.25 -20.7 27.65 -21.55 Q27.35 -21.95 27.45 -22.55 27.5 -22.9 28.1 -23.5 L28.45 -23.7 28.5 -23.7 28.6 -23.8 28.8 -23.9 29.05 -24.1 29.75 -24.5 31.4 -25.65 31.6 -25.75 31.9 -26.0 34.7 -27.8 Q35.25 -28.25 35.85 -28.25 36.65 -28.25 37.1 -27.55 L37.25 -27.25 37.35 -27.15 38.25 -25.75 38.4 -25.6 39.05 -24.45 39.05 -24.5 39.1 -24.4 39.05 -24.45 M35.2 -23.1 L35.15 -23.15 34.9 -22.95 34.4 -22.7 34.45 -22.7 34.5 -22.65 34.75 -22.7 35.2 -22.85 35.25 -22.9 35.2 -23.05 35.2 -23.1 M33.25 -23.05 L33.8 -23.5 34.35 -23.8 34.85 -24.2 35.25 -24.35 35.4 -24.35 35.75 -24.1 36.0 -23.65 36.25 -23.15 Q36.45 -22.45 35.8 -22.0 L34.85 -21.7 34.45 -21.65 33.8 -21.8 33.65 -21.95 33.4 -22.1 33.2 -22.3 33.05 -22.65 33.25 -23.05 M35.85 -27.25 L35.25 -27.0 32.45 -25.15 30.45 -23.75 30.05 -23.55 28.95 -22.8 28.65 -22.65 Q28.25 -22.45 28.5 -22.1 L29.1 -21.25 29.25 -21.0 29.35 -20.75 Q29.5 -20.6 29.65 -20.6 L29.85 -20.7 30.45 -21.2 31.0 -21.45 31.15 -21.5 31.3 -21.45 31.45 -21.3 31.65 -20.65 31.6 -20.3 31.6 -20.0 31.35 -18.65 Q31.35 -17.75 31.6 -17.4 L31.75 -17.25 Q31.9 -17.1 32.05 -17.1 L33.0 -17.65 33.25 -17.85 33.5 -18.0 33.7 -18.4 33.65 -18.6 Q33.5 -18.85 33.6 -19.4 33.6 -19.7 33.75 -19.8 L33.95 -19.85 35.45 -19.7 35.55 -19.7 Q36.15 -19.75 36.85 -20.2 L37.25 -20.5 37.5 -20.65 37.95 -21.1 38.15 -21.45 38.4 -22.1 38.45 -22.8 38.35 -23.45 38.1 -24.1 37.7 -24.8 36.6 -26.45 36.4 -26.7 36.25 -27.0 35.85 -27.25" fill="#b07f00" fill-rule="evenodd" stroke="none"/>
  </g>
</svg>
