<?xml version="1.0" encoding="UTF-8" standalone="no"?>
<svg xmlns:ffdec="https://www.free-decompiler.com/flash" xmlns:xlink="http://www.w3.org/1999/xlink" ffdec:objectType="shape" height="91.2px" width="64.95px" xmlns="http://www.w3.org/2000/svg">
  <g transform="matrix(1.0, 0.0, 0.0, 1.0, 32.45, 45.9)">
    <path d="M11.5 10.7 Q11.95 10.25 12.55 10.25 13.2 10.25 13.65 10.7 L16.1 13.2 Q19.35 8.9 20.05 3.5 L2.25 3.5 2.25 21.35 Q7.7 20.65 12.05 17.35 L9.5 14.8 Q9.05 14.35 9.05 13.75 9.05 13.15 9.5 12.7 L11.5 10.7 M-20.9 3.5 Q-20.3 8.95 -16.9 13.35 L-14.4 10.8 Q-14.0 10.35 -13.35 10.35 -12.75 10.35 -12.3 10.8 L-10.3 12.8 Q-9.85 13.25 -9.85 13.85 -9.85 14.5 -10.3 14.95 L-12.8 17.4 Q-8.55 20.7 -3.1 21.4 L-3.1 3.5 -20.9 3.5 M9.45 -13.05 L12.0 -15.55 Q7.65 -18.9 2.25 -19.55 L2.25 -1.85 20.0 -1.85 Q19.3 -7.2 16.1 -11.45 L13.6 -8.95 Q13.15 -8.5 12.6 -8.5 11.95 -8.5 11.55 -8.9 L9.5 -10.9 Q9.15 -11.2 9.05 -11.6 L9.05 -12.35 9.45 -13.05 M-12.75 -15.65 L-10.25 -13.15 Q-9.8 -12.75 -9.8 -12.1 -9.8 -11.5 -10.25 -11.05 L-12.25 -9.05 Q-12.7 -8.6 -13.3 -8.6 -13.9 -8.6 -14.35 -9.05 L-16.85 -11.6 Q-20.25 -7.3 -20.9 -1.85 L-3.1 -1.85 -3.1 -19.55 Q-8.5 -18.95 -12.75 -15.65 M30.2 -1.85 Q30.8 -1.85 31.25 -1.4 31.7 -0.95 31.7 -0.35 L31.7 2.0 Q31.7 2.6 31.25 3.05 30.8 3.5 30.2 3.5 L28.45 3.5 Q27.6 13.85 20.05 21.4 12.5 28.95 2.25 29.8 L2.25 30.6 1.8 31.65 Q1.35 32.1 0.75 32.1 L-1.6 32.1 Q-2.2 32.1 -2.65 31.65 L-3.1 30.6 -3.1 29.8 Q-13.45 28.95 -21.0 21.4 -28.55 13.85 -29.35 3.5 L-30.95 3.5 Q-31.55 3.5 -32.0 3.05 -32.45 2.6 -32.45 2.0 L-32.45 -0.35 Q-32.45 -0.95 -32.0 -1.4 -31.55 -1.85 -30.95 -1.85 L-29.35 -1.85 Q-28.55 -12.1 -21.0 -19.65 -13.45 -27.2 -3.1 -28.0 L-3.1 -28.9 -2.65 -29.95 Q-2.2 -30.4 -1.6 -30.4 L0.75 -30.4 Q1.35 -30.4 1.8 -29.95 L2.25 -28.9 2.25 -28.0 Q12.5 -27.2 20.05 -19.65 27.6 -12.1 28.45 -1.85 L30.2 -1.85" fill="#d4a000" fill-rule="evenodd" stroke="none"/>
    <path d="M-25.2 25.4 L-24.55 25.9 Q-24.3 26.15 -24.4 26.95 L-24.55 27.95 -24.55 28.25 -24.65 29.6 -24.55 30.25 -24.0 30.2 -22.4 29.7 -21.15 29.15 -20.95 29.1 -20.6 29.2 -19.7 29.95 Q-19.4 30.25 -19.65 30.5 L-20.8 31.9 -21.2 32.3 -23.4 35.05 -23.95 35.6 -24.45 36.3 -24.55 36.4 -25.25 36.35 -25.9 35.75 -26.15 35.6 Q-26.35 35.4 -26.15 35.15 L-24.25 32.9 -24.15 32.7 Q-24.0 32.6 -24.15 32.45 L-24.8 32.4 -25.75 32.55 -26.4 32.5 -26.5 32.4 -26.55 32.0 -26.55 31.05 -26.55 30.65 Q-26.5 30.0 -26.6 29.95 L-26.85 29.85 -27.25 30.15 -28.0 31.05 -28.4 31.45 -29.1 32.3 -29.3 32.6 Q-29.55 32.85 -29.8 32.6 L-30.45 32.05 -30.7 31.9 -30.85 31.5 -30.75 31.25 -28.2 28.2 -28.05 27.95 -27.75 27.7 -25.95 25.35 -25.5 25.2 -25.3 25.3 -25.25 25.35 -25.25 25.4 -25.2 25.4" fill="#ffd245" fill-rule="evenodd" stroke="none"/>
    <path d="M-25.65 24.2 L-25.4 24.2 Q-24.95 24.3 -24.7 24.55 L-24.6 24.6 -24.4 24.75 -24.2 24.95 -23.95 25.1 Q-23.45 25.5 -23.35 26.05 L-23.4 27.05 -23.45 27.3 -23.5 27.8 -23.55 28.0 -23.55 28.5 -23.6 28.75 -23.6 29.05 -23.5 29.0 -23.05 28.85 -23.0 28.85 -22.8 28.75 -22.35 28.6 -21.7 28.3 -21.65 28.25 -21.5 28.25 -21.45 28.2 -21.2 28.1 -20.9 28.1 Q-20.3 28.1 -19.95 28.4 L-19.5 28.85 -19.45 28.85 -19.25 29.0 -19.05 29.2 -19.05 29.25 Q-18.65 29.55 -18.55 30.15 -18.55 30.8 -18.85 31.1 L-19.0 31.3 -20.05 32.55 -20.3 32.8 -20.45 32.9 -20.7 33.25 -21.1 33.8 -21.2 33.9 -22.6 35.65 -22.7 35.8 -23.15 36.2 -23.25 36.4 -23.65 36.9 -23.8 37.05 Q-24.2 37.55 -24.8 37.55 -25.35 37.55 -25.9 37.1 L-26.05 36.95 -26.55 36.55 -26.6 36.5 -26.8 36.35 -27.25 35.55 Q-27.3 35.0 -26.95 34.55 L-26.9 34.5 -26.55 34.05 -26.2 33.7 -26.2 33.65 -27.1 33.3 -27.4 32.8 -27.45 32.75 -27.55 32.0 -27.65 32.05 -28.3 32.95 -28.55 33.2 Q-28.95 33.7 -29.55 33.7 -30.1 33.7 -30.45 33.35 L-30.9 32.95 -31.3 32.65 Q-31.95 32.15 -31.85 31.3 L-31.85 31.2 -31.8 31.2 -31.5 30.6 -31.1 30.05 -31.0 29.95 -30.85 29.75 -30.3 29.2 -29.55 28.25 -29.3 27.9 -28.95 27.55 -28.95 27.5 -28.8 27.35 -28.65 27.15 -28.55 27.05 -28.35 26.8 -28.15 26.65 -28.1 26.55 -27.95 26.35 -27.9 26.25 -27.8 26.2 -27.7 26.05 -27.65 26.0 -27.65 25.95 -26.7 24.7 Q-26.2 24.2 -25.65 24.2 M-25.5 25.2 L-25.65 25.2 -25.95 25.35 -27.75 27.7 -28.05 27.95 -28.2 28.2 -30.75 31.25 -30.85 31.45 -30.7 31.9 -30.25 32.2 -29.8 32.6 -29.55 32.7 -29.3 32.6 -29.1 32.3 -28.4 31.45 -28.0 31.05 -27.25 30.15 -26.85 29.85 -26.6 29.95 Q-26.5 30.0 -26.55 30.65 L-26.55 31.05 -26.55 32.0 -26.5 32.4 -26.4 32.55 -26.15 32.65 -25.75 32.55 -24.45 32.35 -24.15 32.45 Q-24.0 32.6 -24.15 32.7 L-24.25 32.9 -26.15 35.15 Q-26.35 35.4 -26.15 35.6 L-25.9 35.75 -25.25 36.35 -24.8 36.55 Q-24.6 36.55 -24.55 36.4 L-24.45 36.3 -23.95 35.6 -23.4 35.05 -21.2 32.3 -20.8 31.9 -19.65 30.5 Q-19.4 30.25 -19.7 29.95 L-20.6 29.2 -20.9 29.1 -20.95 29.1 -21.15 29.15 -22.4 29.7 -22.6 29.75 -23.3 30.0 -24.4 30.3 -24.55 30.25 -24.65 29.6 -24.55 28.25 -24.55 27.95 -24.4 26.95 Q-24.3 26.15 -24.55 25.9 L-25.2 25.4 -25.25 25.4 -25.25 25.35 -25.35 25.3 -25.5 25.2" fill="#b07f00" fill-rule="evenodd" stroke="none"/>
    <path d="M-19.95 32.7 L-19.1 31.15 -18.8 30.7 -18.3 30.65 -16.4 31.7 -14.55 32.6 Q-14.15 32.85 -14.4 33.15 L-14.8 34.0 -15.05 34.2 -15.25 34.25 -15.55 34.15 -16.45 33.7 -16.7 33.5 -17.0 33.35 Q-17.75 32.95 -18.0 33.45 -18.4 34.1 -18.05 34.4 L-15.9 35.55 -15.9 36.0 -16.3 36.7 -16.45 36.9 Q-16.7 37.25 -17.1 37.05 L-17.9 36.6 -18.15 36.5 -18.45 36.25 -18.8 36.1 -18.85 36.1 -19.1 36.0 -19.55 36.35 -19.8 37.1 -19.2 37.7 -18.4 38.15 -17.6 38.5 -17.25 38.95 -17.45 39.45 -17.45 39.5 -17.55 39.85 -17.7 40.1 Q-17.9 40.45 -18.25 40.25 L-18.45 40.15 -18.6 40.05 -19.15 39.85 -19.35 39.7 -22.2 38.2 -22.45 37.9 Q-22.6 37.65 -22.4 37.45 L-22.1 36.75 -21.25 35.2 -20.45 33.6 -20.3 33.45 -19.95 32.7" fill="#ffd245" fill-rule="evenodd" stroke="none"/>
    <path d="M-18.8 30.7 L-19.1 31.15 -19.95 32.7 -20.3 33.45 -20.45 33.6 -21.25 35.2 -22.1 36.75 -22.4 37.45 Q-22.6 37.65 -22.45 37.9 L-22.2 38.2 -21.85 38.35 -19.35 39.7 -19.15 39.85 -18.6 40.05 -18.45 40.15 -18.0 40.35 -17.7 40.1 -17.55 39.85 -17.45 39.5 -17.45 39.45 -17.25 38.95 -17.6 38.5 -18.4 38.15 -19.2 37.7 -19.8 37.1 -19.55 36.35 -19.15 36.0 -18.85 36.05 -18.8 36.1 -18.45 36.25 -18.15 36.5 -17.9 36.6 -17.1 37.05 -16.8 37.1 Q-16.55 37.1 -16.45 36.9 L-16.3 36.7 -15.9 36.0 -15.9 35.6 -18.05 34.4 -18.25 34.0 -18.0 33.45 -17.6 33.1 Q-17.4 33.1 -17.0 33.35 L-16.7 33.5 -16.45 33.7 -15.55 34.15 -15.25 34.25 -15.2 34.25 -15.05 34.2 -14.8 34.0 -14.4 33.15 Q-14.15 32.85 -14.55 32.6 L-16.4 31.7 -18.3 30.65 -18.5 30.6 -18.8 30.7 M-20.35 31.45 L-20.0 30.65 -19.35 29.9 -18.5 29.6 -17.8 29.8 -17.45 30.0 -17.15 30.1 -15.95 30.8 -15.55 30.95 -15.4 31.05 -15.2 31.15 -14.55 31.55 -14.35 31.6 -14.1 31.75 Q-13.5 32.1 -13.4 32.55 -13.2 33.1 -13.5 33.65 L-13.55 33.7 -13.7 33.95 -13.9 34.45 -14.6 35.1 -14.95 35.25 Q-14.65 35.85 -15.0 36.5 L-15.55 37.4 -15.65 37.5 Q-16.0 38.05 -16.55 38.1 -16.25 38.6 -16.25 39.0 L-16.55 39.9 -16.55 39.95 -16.65 40.2 -16.65 40.25 -16.7 40.3 -16.85 40.6 Q-17.25 41.35 -18.0 41.35 L-18.75 41.15 -18.8 41.1 -18.85 41.1 -18.9 41.05 -19.7 40.65 -19.85 40.55 -19.9 40.55 -19.95 40.5 -21.05 39.95 -22.65 39.05 -23.4 38.3 Q-23.65 37.6 -23.3 37.0 L-23.15 36.7 -23.1 36.55 -22.75 35.9 -22.65 35.6 -22.45 35.3 -22.2 34.8 -22.1 34.7 -21.9 34.3 -21.85 34.15 -21.15 32.85 -21.1 32.8 -21.05 32.65 -20.95 32.5 -20.85 32.2 -20.35 31.45" fill="#b07f00" fill-rule="evenodd" stroke="none"/>
    <path d="M-12.0 33.7 L-11.7 33.85 -11.0 34.0 -10.6 34.15 -10.25 34.25 -9.75 34.5 -9.65 34.6 -9.4 34.75 -9.25 34.9 -9.1 35.0 -8.95 35.15 -8.8 35.25 Q-7.95 36.1 -7.8 37.35 L-7.7 38.15 -8.05 39.8 -8.4 40.4 -8.7 40.9 -9.0 41.3 -9.5 41.7 -10.25 42.15 -10.95 42.4 -12.05 42.4 -13.9 41.95 -13.95 41.9 -15.35 41.45 Q-16.05 41.3 -15.95 40.85 L-15.8 40.45 -14.95 37.75 -14.85 37.2 -14.7 36.85 -13.8 33.9 Q-13.7 33.35 -13.4 33.35 L-12.3 33.6 -12.0 33.7 M-10.4 36.5 Q-10.65 36.25 -11.4 36.0 L-11.75 35.9 -12.0 35.95 -12.5 36.5 -12.95 37.85 -13.35 39.4 Q-13.55 40.1 -12.35 40.45 L-12.05 40.5 -11.2 40.5 -10.25 39.75 -9.85 39.0 -9.75 38.5 -9.75 38.15 -9.7 37.9 -9.85 37.4 Q-9.9 37.15 -10.1 36.95 L-10.4 36.5" fill="#ffd245" fill-rule="evenodd" stroke="none"/>
    <path d="M-10.8 37.65 L-10.95 37.5 -11.1 37.2 -11.6 37.0 -11.85 37.8 -12.0 38.15 -12.35 39.4 -12.05 39.5 -11.45 39.5 Q-11.1 39.4 -10.85 38.7 L-10.75 38.4 -10.75 38.25 -10.7 38.0 -10.8 37.65 M-10.4 36.5 L-10.1 36.95 Q-9.9 37.15 -9.85 37.4 L-9.7 37.9 -9.7 38.15 -9.85 39.0 -10.25 39.75 -11.2 40.5 -12.05 40.5 -12.35 40.45 Q-13.55 40.1 -13.35 39.4 L-12.95 37.85 -12.5 36.5 -12.0 35.95 -11.85 35.9 -11.75 35.9 -11.4 36.0 Q-10.65 36.25 -10.4 36.5 M-11.0 34.0 L-11.7 33.85 -12.0 33.7 -12.3 33.6 -13.4 33.35 Q-13.7 33.35 -13.8 33.9 L-14.7 36.85 -14.85 37.2 -14.95 37.75 -15.95 40.85 Q-16.05 41.3 -15.35 41.45 L-13.95 41.9 -13.9 41.9 -12.05 42.4 -11.3 42.4 -10.95 42.35 -10.25 42.15 -9.5 41.7 -9.0 41.3 -8.7 40.9 -8.4 40.4 -8.05 39.8 -7.85 39.05 -7.7 38.15 -7.8 37.35 Q-7.95 36.1 -8.8 35.25 L-8.95 35.15 -9.1 35.0 -9.25 34.9 -9.4 34.75 -9.65 34.6 -9.75 34.5 -10.25 34.25 -11.0 34.0 M-11.7 32.8 L-11.55 32.8 -11.4 32.9 -10.7 33.05 -10.75 33.05 -10.55 33.1 -10.45 33.15 -10.3 33.15 -10.1 33.25 -10.05 33.3 -9.95 33.3 -9.1 33.75 -9.05 33.8 -8.75 33.95 -8.7 34.0 -8.65 34.1 -8.6 34.15 -8.4 34.25 -8.3 34.4 -8.1 34.55 -7.5 35.3 Q-6.9 36.25 -6.8 37.2 L-6.7 38.15 -6.9 39.35 -7.0 39.55 -7.0 39.65 -7.05 39.8 -7.1 40.05 -7.5 40.85 -7.9 41.55 -8.1 41.75 -8.25 41.95 -8.85 42.5 -9.8 43.05 -10.8 43.35 -10.85 43.35 -11.3 43.4 -12.1 43.4 -14.25 42.85 -15.65 42.4 Q-17.25 41.9 -16.9 40.55 L-16.75 40.15 -15.7 36.65 -15.65 36.6 -15.3 35.3 -15.15 34.9 -14.8 33.6 Q-14.4 32.45 -13.45 32.35 L-13.4 32.35 -12.0 32.65 -11.85 32.7 -11.7 32.8" fill="#b07f00" fill-rule="evenodd" stroke="none"/>
    <path d="M-3.2 35.65 Q-2.65 35.65 -2.35 35.95 -2.1 36.3 -2.1 36.6 L-1.9 37.55 -1.85 38.0 -1.85 38.2 -1.8 38.4 -1.6 40.1 -1.6 40.45 -1.5 41.15 -1.5 41.5 -1.45 41.75 -1.4 42.35 -1.25 43.3 -1.25 43.55 -1.15 43.8 -1.2 44.15 -1.7 44.3 -2.35 44.25 -3.05 44.1 -3.3 43.65 -3.35 43.3 -3.4 43.15 -3.7 42.8 -4.8 42.6 -5.2 42.6 -5.7 42.75 -6.2 43.7 -6.65 43.75 -7.2 43.65 -7.55 43.65 -7.95 43.55 -8.1 43.15 -7.9 42.7 -7.8 42.25 -6.7 38.9 -6.55 38.7 -6.55 38.55 -6.1 37.25 -5.95 36.95 -5.9 36.65 Q-5.55 35.4 -4.75 35.5 L-4.45 35.55 -3.2 35.65 M-3.8 38.2 Q-3.8 37.9 -4.05 37.9 L-4.25 38.0 -4.6 38.75 -4.65 39.0 -4.75 39.3 -4.85 39.5 -4.9 39.75 -5.05 40.15 Q-5.1 40.7 -4.35 40.8 L-3.8 40.85 -3.5 40.55 -3.55 39.65 -3.65 39.25 -3.65 38.85 -3.8 38.2" fill="#ffd245" fill-rule="evenodd" stroke="none"/>
    <path d="M-3.8 38.2 L-3.65 38.85 -3.65 39.25 -3.55 39.65 -3.5 40.55 -3.8 40.85 -4.05 40.85 -4.35 40.8 Q-5.1 40.7 -5.05 40.15 L-4.9 39.75 -4.85 39.5 -4.75 39.3 -4.65 39.0 -4.6 38.75 -4.25 38.0 -4.05 37.9 Q-3.8 37.9 -3.8 38.2 M-3.2 35.65 L-4.45 35.55 -4.75 35.5 -4.9 35.45 Q-5.5 35.45 -5.9 36.65 L-5.95 36.95 -6.1 37.25 -6.15 37.45 -6.55 38.55 -6.55 38.7 -6.7 38.9 -7.8 42.25 -7.85 42.5 -7.95 42.7 -8.0 42.9 -8.1 43.15 -7.95 43.55 -7.55 43.65 -7.2 43.65 -6.65 43.75 -6.4 43.75 -6.2 43.7 -5.7 42.75 -5.2 42.6 -4.8 42.6 -3.7 42.8 -3.4 43.15 -3.35 43.3 -3.3 43.65 -3.05 44.1 -2.4 44.25 -1.45 44.3 -1.2 44.15 -1.15 43.8 -1.25 43.55 -1.25 43.3 -1.5 41.5 -1.5 41.15 -1.6 40.45 -1.6 40.1 -1.85 38.4 -1.85 38.0 -2.05 36.6 -2.35 35.95 Q-2.65 35.65 -3.2 35.65 M-4.9 34.45 L-3.3 34.65 -3.2 34.65 Q-2.25 34.65 -1.65 35.25 -1.2 35.65 -1.1 36.45 L-1.0 36.95 -1.0 37.1 -0.9 37.45 -0.9 37.9 -0.85 37.95 -0.85 38.2 -0.75 39.0 -0.75 39.15 -0.7 39.3 -0.6 40.1 -0.6 40.45 -0.55 40.55 -0.55 40.75 -0.5 41.1 -0.5 41.4 -0.45 41.6 -0.4 42.4 -0.25 43.15 -0.25 43.35 -0.15 43.7 -0.2 43.7 -0.2 44.25 Q-0.3 45.3 -1.45 45.3 L-2.05 45.3 -2.5 45.25 -3.6 44.95 Q-4.1 44.65 -4.3 43.85 L-4.3 43.65 -4.55 43.65 -4.9 43.6 -5.05 43.6 -5.1 43.65 Q-5.15 44.1 -5.6 44.45 L-6.4 44.75 -6.75 44.75 -7.1 44.7 -7.3 44.65 -7.65 44.65 Q-8.35 44.5 -8.65 44.25 -9.15 43.7 -9.1 43.05 L-8.9 42.45 -8.85 42.4 -8.85 42.25 -8.6 41.5 -8.5 41.05 -8.5 41.0 -8.45 41.0 -8.15 40.05 -8.1 39.95 -7.95 39.5 -7.55 38.45 -7.55 38.4 -7.5 38.35 -7.5 38.2 -7.15 37.15 -7.15 37.2 -7.0 36.85 -6.95 36.65 -6.85 36.55 -6.85 36.4 Q-6.3 34.45 -4.9 34.45" fill="#b07f00" fill-rule="evenodd" stroke="none"/>
    <path d="M0.1 36.75 L0.05 36.3 Q0.05 35.9 0.4 35.9 L1.45 35.85 1.7 35.8 Q2.15 35.8 2.15 36.25 L2.2 38.5 2.25 38.8 2.3 40.85 2.4 41.7 Q2.45 42.15 2.75 42.25 L3.2 42.25 3.6 42.2 4.05 42.15 4.9 42.15 Q5.3 42.1 5.3 42.5 L5.3 42.75 5.25 43.2 5.35 43.65 Q5.35 44.1 4.85 44.15 L3.0 44.2 2.6 44.25 0.95 44.3 Q0.45 44.35 0.45 43.75 L0.4 41.8 0.3 40.9 0.3 40.05 0.25 39.75 0.25 38.8 0.15 38.1 0.15 37.7 0.1 37.45 0.1 36.75" fill="#ffd245" fill-rule="evenodd" stroke="none"/>
    <path d="M1.7 35.8 L1.45 35.85 0.4 35.9 Q0.05 35.9 0.05 36.3 L0.1 36.75 0.1 37.45 0.15 37.7 0.25 39.75 0.3 40.05 0.3 40.9 0.45 43.75 Q0.45 44.3 0.95 44.3 L1.5 44.25 2.6 44.25 3.0 44.2 4.85 44.15 Q5.35 44.1 5.35 43.65 L5.25 43.2 5.3 42.75 5.3 42.5 Q5.3 42.15 4.95 42.15 L4.55 42.15 4.25 42.2 4.05 42.15 3.6 42.2 3.25 42.25 2.75 42.25 Q2.45 42.15 2.4 41.7 L2.3 40.85 2.25 38.8 2.2 38.5 2.15 36.25 Q2.15 35.8 1.75 35.8 L1.7 35.8 M1.45 34.85 L1.65 34.8 1.75 34.8 Q2.3 34.8 2.7 35.2 3.1 35.6 3.15 36.2 L3.15 37.7 3.2 38.4 3.2 38.5 3.25 38.75 3.3 40.8 3.35 41.2 3.7 41.2 4.05 41.15 4.25 41.2 4.45 41.2 4.6 41.15 4.95 41.15 Q6.2 41.15 6.3 42.45 L6.3 43.05 6.25 43.15 6.3 43.25 6.35 43.6 Q6.35 44.3 6.0 44.65 5.65 45.05 4.9 45.15 L4.1 45.15 3.75 45.2 2.85 45.2 2.7 45.25 1.5 45.25 1.35 45.3 0.95 45.3 Q-0.45 45.3 -0.55 43.75 L-0.65 41.4 -0.7 40.9 -0.7 39.95 -0.75 39.8 -0.75 38.85 -0.85 38.15 -0.85 37.75 -0.9 37.5 -0.9 36.7 -0.95 36.35 Q-0.95 35.7 -0.55 35.3 -0.15 34.9 0.35 34.9 L1.45 34.85" fill="#b07f00" fill-rule="evenodd" stroke="none"/>
    <path d="M5.8 35.5 L7.1 35.25 Q7.5 35.15 7.6 35.55 L7.7 36.4 7.8 36.75 8.05 38.1 8.25 38.95 8.65 40.95 9.05 41.4 9.55 41.35 10.85 41.1 11.2 41.0 Q11.45 40.95 11.65 41.3 L11.7 41.55 11.7 41.95 11.85 42.45 Q11.95 42.9 11.45 42.95 L10.35 43.2 9.6 43.3 9.25 43.4 8.95 43.45 8.65 43.55 8.15 43.6 7.65 43.75 Q7.05 43.85 7.05 43.25 L5.85 37.35 5.75 37.05 5.55 35.95 Q5.35 35.55 5.8 35.5" fill="#ffd245" fill-rule="evenodd" stroke="none"/>
    <path d="M5.75 37.05 L5.85 37.35 6.25 39.35 6.3 39.65 6.45 40.45 6.8 41.85 7.05 43.25 Q7.05 43.75 7.5 43.75 L7.65 43.75 8.15 43.6 8.65 43.55 8.95 43.45 9.25 43.4 9.6 43.3 10.35 43.2 11.45 42.95 Q11.95 42.9 11.85 42.45 L11.7 41.95 11.7 41.55 11.65 41.3 11.3 40.95 11.2 41.0 10.85 41.1 10.4 41.15 9.55 41.35 9.1 41.4 9.05 41.4 8.65 40.95 8.25 38.95 8.05 38.1 7.8 36.75 7.7 36.4 7.6 35.55 Q7.5 35.2 7.2 35.2 L7.1 35.25 5.8 35.5 Q5.35 35.55 5.55 35.95 L5.75 37.05 M6.7 34.3 L6.85 34.25 7.2 34.2 Q8.4 34.2 8.55 35.4 L8.65 35.85 8.65 36.05 8.75 36.4 8.75 36.6 8.8 36.65 8.8 36.9 9.05 37.9 9.1 38.05 9.35 39.35 9.4 39.9 9.55 40.35 9.9 40.25 10.45 40.15 10.6 40.1 10.75 40.1 11.0 40.0 11.3 39.95 Q12.4 39.95 12.6 41.05 L12.7 41.5 12.65 41.35 12.7 41.7 12.7 41.75 12.85 42.25 Q13.0 42.8 12.65 43.3 12.35 43.8 11.65 43.95 L10.85 44.1 10.55 44.2 9.85 44.3 9.45 44.4 9.25 44.4 9.15 44.45 9.1 44.45 8.15 44.65 7.85 44.75 7.5 44.75 Q6.35 44.75 6.05 43.45 L5.95 42.7 5.8 42.1 5.75 41.7 5.7 41.55 5.35 39.8 5.3 39.65 5.3 39.55 5.2 39.05 5.1 38.75 5.1 38.6 4.9 37.9 4.9 37.7 4.85 37.55 4.85 37.5 4.8 37.25 4.7 36.95 4.7 36.75 4.65 36.6 4.65 36.45 4.55 36.2 Q4.45 35.55 4.75 35.1 5.05 34.65 5.6 34.55 L6.35 34.4 6.5 34.35 6.55 34.35 6.65 34.3 6.7 34.3" fill="#b07f00" fill-rule="evenodd" stroke="none"/>
    <path d="M11.5 34.15 L12.35 33.85 12.6 33.8 12.85 33.8 13.1 34.15 15.55 41.3 15.3 41.75 14.0 42.2 13.55 42.05 13.45 41.8 13.25 41.0 12.8 39.7 12.75 39.5 12.6 39.25 11.45 35.6 11.15 34.8 11.1 34.5 11.3 34.2 11.5 34.15" fill="#ffd245" fill-rule="evenodd" stroke="none"/>
    <path d="M11.5 34.15 L11.3 34.2 11.1 34.5 11.15 34.8 11.45 35.6 11.55 36.0 12.6 39.25 12.75 39.5 12.8 39.7 13.45 41.8 13.55 42.05 13.9 42.2 14.0 42.2 15.3 41.75 15.55 41.3 13.1 34.15 12.85 33.8 12.7 33.75 12.6 33.8 12.35 33.85 11.5 34.15 M11.8 33.0 L12.0 32.9 12.1 32.9 12.25 32.85 12.7 32.75 13.4 33.0 Q13.9 33.3 14.05 33.75 L14.15 34.15 14.2 34.2 14.2 34.3 14.6 35.55 14.8 35.95 15.1 36.9 15.15 37.15 15.75 38.85 15.75 39.0 15.8 39.05 15.8 39.2 16.0 39.65 16.35 40.7 16.5 41.0 Q16.65 41.55 16.4 42.0 L15.6 42.7 15.4 42.75 15.35 42.8 15.15 42.85 14.9 42.95 14.6 43.0 14.55 43.05 14.3 43.15 13.9 43.2 Q13.05 43.2 12.65 42.5 L12.5 42.1 11.85 40.0 11.8 40.0 11.8 39.8 11.65 39.55 11.4 38.65 10.8 36.8 10.7 36.65 10.5 36.0 10.5 35.9 10.35 35.6 10.2 35.15 Q10.0 34.65 10.15 34.1 10.35 33.55 10.85 33.3 L10.9 33.3 11.1 33.2 11.15 33.2 11.35 33.15 11.55 33.05 11.8 33.0" fill="#b07f00" fill-rule="evenodd" stroke="none"/>
    <path d="M22.45 38.15 L22.0 38.7 21.7 38.9 21.55 39.05 21.25 39.25 20.65 39.55 20.35 39.6 20.05 39.7 19.45 39.8 19.15 39.8 18.75 39.75 17.55 39.4 16.65 38.85 16.1 38.25 15.45 37.15 15.3 36.75 15.1 35.85 15.05 35.3 15.1 35.0 15.1 34.45 15.2 34.15 15.25 33.8 15.4 33.55 15.5 33.25 16.0 32.55 16.25 32.3 17.1 31.7 17.75 31.45 18.35 31.3 19.25 31.25 20.1 31.45 20.4 31.6 20.6 31.65 21.7 32.4 22.0 32.75 22.8 34.0 23.05 34.75 23.2 35.6 23.15 36.6 22.85 37.65 22.6 37.95 22.45 38.15 M18.5 33.3 L17.95 33.55 17.7 33.7 17.35 34.15 17.05 34.75 17.0 35.45 17.1 35.9 17.25 36.3 17.25 36.35 17.5 36.75 17.8 37.1 18.3 37.55 19.25 37.85 19.5 37.8 19.6 37.8 20.05 37.65 20.55 37.4 21.0 36.7 21.2 35.85 21.1 35.15 20.75 34.4 20.55 34.1 19.95 33.6 19.25 33.3 18.5 33.3" fill="#ffd245" fill-rule="evenodd" stroke="none"/>
    <path d="M18.35 34.5 L18.25 34.55 18.05 34.9 18.05 34.95 18.0 35.0 18.0 35.4 18.1 35.8 18.15 35.9 18.35 36.2 18.4 36.3 18.55 36.4 18.85 36.7 19.2 36.85 19.25 36.85 19.5 36.8 19.6 36.75 19.75 36.7 19.8 36.65 19.9 36.6 20.1 36.3 20.2 35.9 20.05 35.2 19.95 35.05 19.85 34.85 19.75 34.75 19.75 34.7 19.45 34.45 19.4 34.45 19.2 34.35 19.05 34.3 18.7 34.3 18.4 34.45 18.35 34.5 M17.7 33.7 L17.95 33.55 18.5 33.3 19.25 33.3 19.95 33.6 20.55 34.1 20.75 34.4 21.05 35.15 21.2 35.85 21.0 36.7 20.55 37.4 20.05 37.65 19.6 37.8 19.5 37.8 19.25 37.85 18.3 37.55 17.8 37.1 17.5 36.75 17.25 36.35 17.25 36.3 17.1 35.9 17.0 35.45 17.05 34.75 17.35 34.15 17.7 33.7 M22.85 37.65 L23.15 36.6 23.2 35.6 23.05 34.75 22.8 34.0 22.0 32.75 21.7 32.4 20.6 31.65 20.4 31.6 20.1 31.45 19.3 31.25 19.25 31.25 18.35 31.3 17.75 31.45 17.1 31.7 16.25 32.3 16.0 32.55 15.5 33.25 15.4 33.55 15.25 33.8 15.2 34.15 15.1 34.45 15.1 35.0 15.05 35.3 15.1 35.85 15.3 36.75 15.45 37.15 16.1 38.25 16.65 38.85 17.55 39.4 18.75 39.75 19.15 39.8 19.45 39.8 20.05 39.7 20.35 39.6 20.65 39.55 21.25 39.25 21.55 39.05 21.7 38.9 22.0 38.7 22.45 38.15 22.6 37.95 22.85 37.65 M22.3 31.65 L22.75 32.1 23.65 33.55 24.0 34.55 24.05 34.6 24.2 35.5 24.15 36.75 23.7 38.2 23.7 38.15 23.35 38.65 23.0 39.1 22.65 39.45 22.45 39.65 22.35 39.7 22.3 39.75 21.7 40.15 21.0 40.5 20.95 40.5 20.3 40.7 19.85 40.75 19.75 40.75 19.65 40.8 19.0 40.8 18.65 40.75 18.55 40.75 17.1 40.3 16.45 39.9 16.05 39.7 16.05 39.65 15.3 38.8 15.25 38.75 14.55 37.6 14.35 37.05 14.1 35.95 14.05 35.25 14.1 34.95 14.1 34.3 14.2 34.0 14.2 33.9 14.25 33.85 14.3 33.5 14.45 33.1 14.5 33.05 14.6 32.85 15.1 32.1 15.25 31.9 15.3 31.9 15.3 31.85 15.35 31.8 15.55 31.55 16.65 30.8 17.25 30.6 17.4 30.5 18.2 30.3 18.3 30.3 19.35 30.25 20.4 30.5 20.75 30.65 20.8 30.65 20.95 30.7 21.65 31.1 21.9 31.3 22.05 31.45 22.3 31.65" fill="#b07f00" fill-rule="evenodd" stroke="none"/>
    <path d="M26.55 25.65 L28.6 28.25 29.05 28.7 29.6 29.45 30.35 30.25 30.45 30.4 30.55 30.6 30.75 30.85 31.4 31.45 Q31.6 31.85 31.3 32.05 L31.15 32.15 30.45 32.8 29.65 32.75 29.2 32.55 27.7 32.05 27.45 32.0 26.75 31.8 25.5 31.3 25.3 31.25 25.1 31.3 25.1 31.6 26.05 32.8 26.4 33.15 27.25 34.15 27.35 34.25 27.65 34.5 27.65 35.0 27.45 35.15 26.7 35.9 26.4 36.0 26.1 35.9 25.3 34.85 25.05 34.6 24.3 33.65 24.05 33.45 21.7 30.6 21.55 30.45 21.45 30.3 21.2 30.05 21.05 29.85 Q20.95 29.65 21.1 29.55 L21.35 29.4 21.45 29.3 21.55 29.25 21.6 29.15 21.65 29.15 21.9 28.9 22.2 28.7 22.5 28.55 22.75 28.55 24.05 28.9 24.4 29.0 27.2 30.05 27.55 30.1 27.3 29.65 26.7 28.9 26.4 28.6 26.1 28.2 24.9 26.85 Q24.75 26.65 24.9 26.5 L25.55 25.95 25.7 25.85 26.05 25.5 Q26.3 25.35 26.55 25.65" fill="#ffd245" fill-rule="evenodd" stroke="none"/>
    <path d="M26.2 25.45 L26.05 25.5 25.7 25.85 24.9 26.5 Q24.75 26.65 24.9 26.85 L26.1 28.2 26.4 28.6 27.3 29.65 27.55 30.1 27.5 30.1 27.2 30.05 24.4 29.0 24.05 28.9 22.75 28.55 22.7 28.5 22.5 28.55 22.2 28.7 21.9 28.9 21.65 29.15 21.6 29.15 21.55 29.25 21.45 29.3 21.35 29.4 21.1 29.55 Q20.95 29.65 21.05 29.85 L21.2 30.05 21.45 30.3 21.55 30.45 21.7 30.6 24.05 33.45 24.3 33.65 26.1 35.9 26.35 36.05 26.4 36.0 26.7 35.9 27.45 35.15 27.65 35.0 27.6 34.5 26.7 33.55 26.4 33.15 26.05 32.8 25.1 31.6 25.1 31.3 25.3 31.25 25.5 31.3 26.0 31.5 26.5 31.65 26.75 31.8 27.45 32.0 27.7 32.05 29.2 32.55 29.65 32.75 30.15 32.85 30.45 32.8 31.15 32.15 31.3 32.05 Q31.6 31.85 31.4 31.45 L30.75 30.85 30.55 30.6 30.45 30.4 30.35 30.25 29.6 29.45 29.05 28.7 28.6 28.25 26.55 25.65 Q26.4 25.45 26.2 25.45 M24.7 25.3 L25.1 25.05 25.4 24.75 Q25.7 24.45 26.2 24.45 26.9 24.45 27.35 25.0 L27.65 25.45 28.5 26.5 28.8 26.8 29.05 27.15 29.0 27.1 31.2 29.75 31.3 29.95 31.75 30.45 32.15 30.8 32.5 31.85 Q32.4 32.5 31.95 32.8 L31.75 32.95 31.75 33.0 31.4 33.25 31.25 33.4 31.05 33.55 30.15 33.85 29.25 33.65 29.05 33.6 28.95 33.55 28.9 33.55 27.65 33.1 28.0 33.45 28.0 33.5 28.05 33.55 28.15 33.6 28.4 33.85 Q29.05 34.6 28.45 35.55 L28.5 35.55 28.1 35.95 27.95 36.05 27.35 36.65 26.5 37.0 26.35 37.0 Q25.75 37.0 25.3 36.5 L25.3 36.45 25.0 36.1 24.9 36.05 24.5 35.5 24.45 35.45 23.85 34.7 23.75 34.55 23.3 34.1 22.8 33.4 22.65 33.25 22.65 33.2 22.1 32.6 22.05 32.6 22.05 32.55 21.6 32.0 21.1 31.45 21.0 31.3 20.95 31.2 20.8 31.1 20.75 31.0 20.45 30.7 20.15 30.25 Q19.7 29.35 20.5 28.75 L20.85 28.5 20.9 28.45 21.0 28.4 21.25 28.15 21.8 27.8 21.85 27.8 22.15 27.6 22.7 27.5 22.8 27.55 22.9 27.55 24.25 27.95 24.5 28.0 24.65 28.05 24.5 27.9 24.4 27.75 24.15 27.5 Q23.6 26.8 24.0 26.0 L24.45 25.55 24.7 25.3" fill="#b07f00" fill-rule="evenodd" stroke="none"/>
    <path d="M-0.85 -40.75 L-1.1 -40.8 -1.55 -40.8 -1.65 -40.85 -1.65 -39.85 -1.35 -39.8 -0.9 -39.85 -0.8 -39.95 -0.75 -39.95 -0.7 -40.05 -0.65 -40.45 -0.75 -40.6 -0.75 -40.65 -0.85 -40.75 M9.65 -43.6 L10.6 -43.4 10.9 -43.4 Q12.25 -43.15 12.1 -42.0 L11.6 -41.05 11.6 -41.0 11.55 -41.0 11.3 -40.6 11.25 -40.5 11.15 -40.4 11.05 -40.2 10.85 -39.95 9.95 -38.75 9.95 -38.7 9.7 -38.45 9.6 -38.25 9.4 -37.95 9.35 -37.9 9.3 -37.8 9.2 -37.75 9.2 -37.7 9.15 -37.65 9.15 -37.6 9.05 -37.5 8.95 -37.35 8.85 -37.25 8.85 -37.2 8.7 -37.05 8.7 -37.0 8.25 -36.25 8.2 -36.15 8.2 -35.95 8.1 -35.4 8.05 -35.25 7.9 -34.4 7.9 -34.0 7.4 -33.15 Q7.0 -32.8 6.5 -32.8 L6.3 -32.8 6.0 -32.9 5.75 -32.9 5.35 -33.0 5.15 -33.0 4.8 -33.05 3.9 -33.65 Q3.5 -34.2 3.6 -34.75 L3.75 -35.2 3.75 -35.25 3.9 -36.0 3.9 -36.15 4.0 -36.85 4.0 -37.1 4.05 -37.25 4.0 -37.4 3.95 -37.45 3.95 -37.55 3.9 -37.65 3.85 -37.8 3.55 -39.05 3.5 -39.1 3.45 -39.4 3.4 -39.55 3.1 -38.55 2.95 -38.1 2.9 -38.0 2.7 -37.75 2.65 -37.65 2.55 -37.55 2.4 -37.35 2.4 -37.3 2.35 -37.25 1.65 -36.7 Q0.95 -36.2 -0.25 -35.95 L-1.45 -35.9 -1.6 -35.95 -1.6 -35.45 -1.55 -35.3 -1.55 -35.05 Q-1.5 -33.4 -3.45 -33.4 L-4.4 -33.4 Q-5.35 -33.4 -5.7 -34.4 L-6.4 -33.45 -6.45 -33.45 -7.5 -32.75 -7.55 -32.7 -7.6 -32.7 -8.05 -32.6 -8.35 -32.5 -8.45 -32.45 -8.5 -32.45 -8.65 -32.4 -10.05 -32.25 -10.65 -32.35 Q-11.5 -32.6 -11.65 -33.35 L-11.7 -33.55 -11.7 -33.7 -11.75 -33.8 -11.8 -34.0 -11.85 -34.35 -11.85 -34.5 -11.9 -34.55 -11.95 -34.8 -11.8 -35.75 -10.65 -36.45 -10.2 -36.5 -11.3 -37.1 -11.95 -37.55 -12.65 -38.45 -13.05 -39.55 -13.15 -40.75 Q-13.05 -41.65 -12.6 -42.25 -12.05 -43.0 -11.0 -43.4 L-9.9 -43.75 -8.55 -43.9 -8.25 -43.9 Q-7.35 -43.65 -7.1 -43.15 L-6.95 -42.65 -6.95 -42.55 -6.85 -42.1 -6.75 -41.75 Q-6.55 -40.95 -7.05 -40.45 -7.45 -40.05 -7.9 -40.0 L-7.4 -39.7 -7.35 -39.7 -7.0 -39.5 -6.35 -39.0 -5.8 -38.35 -5.8 -39.45 -5.75 -39.55 -5.75 -39.6 -5.8 -39.8 -5.8 -40.3 -5.85 -40.65 -5.85 -41.75 -5.95 -42.65 Q-5.95 -43.75 -5.1 -44.25 L-5.1 -44.3 -5.05 -44.3 -4.15 -44.5 -4.1 -44.55 -3.3 -44.55 -3.2 -44.6 -1.3 -44.65 0.4 -44.4 1.35 -44.0 2.0 -43.55 2.35 -43.25 2.35 -43.6 Q2.5 -44.6 3.65 -44.6 L3.9 -44.6 4.1 -44.55 4.2 -44.5 4.45 -44.5 4.75 -44.45 4.8 -44.45 5.15 -44.35 5.4 -44.35 6.05 -44.1 Q6.5 -43.8 6.75 -43.1 L6.85 -42.7 6.85 -42.55 7.0 -42.25 7.1 -41.9 7.45 -42.45 7.55 -42.55 8.05 -43.25 8.15 -43.35 9.15 -43.65 9.4 -43.65 9.6 -43.6 9.65 -43.6" fill="#d3a000" fill-rule="evenodd" stroke="none"/>
    <path d="M-7.5 -42.75 L-7.6 -42.4 -7.9 -42.2 -8.15 -42.2 -9.05 -42.1 -9.45 -41.9 -9.6 -41.35 -9.25 -40.85 -8.2 -40.35 -8.05 -40.3 -7.75 -40.1 -7.35 -39.9 -6.85 -39.55 Q-6.3 -39.0 -6.05 -38.05 L-6.0 -37.3 -6.1 -36.65 -6.3 -36.25 -6.8 -35.5 -7.7 -34.9 -9.35 -34.55 -10.2 -34.55 -10.45 -34.8 -10.55 -35.15 -10.75 -36.3 Q-10.85 -36.6 -10.2 -36.7 L-9.7 -36.75 -9.45 -36.7 -8.5 -37.0 Q-8.25 -37.25 -8.3 -37.65 L-8.45 -37.95 -8.9 -38.3 Q-8.9 -38.5 -9.25 -38.5 L-9.6 -38.65 -10.6 -39.2 -11.05 -39.55 -11.55 -40.15 -11.9 -41.0 -11.95 -41.9 -11.6 -42.9 -10.45 -43.75 -9.45 -44.05 -8.15 -44.15 -7.8 -43.95 -7.75 -43.65 -7.65 -43.35 -7.5 -42.75" fill="#ffd245" fill-rule="evenodd" stroke="none"/>
    <path d="M-6.6 -43.35 L-6.6 -43.2 -6.55 -42.95 Q-6.35 -42.2 -6.85 -41.7 -7.25 -41.3 -7.65 -41.25 L-7.2 -40.95 -7.15 -40.9 -6.8 -40.75 -6.15 -40.25 Q-5.4 -39.5 -5.1 -38.25 L-4.95 -37.35 -5.0 -37.1 -5.05 -36.8 -5.25 -36.15 -5.2 -36.3 -5.4 -35.8 Q-5.75 -35.05 -6.2 -34.7 L-6.25 -34.65 -7.3 -34.0 -7.35 -33.95 -7.4 -33.95 -7.85 -33.8 -8.15 -33.75 -8.25 -33.7 -8.3 -33.7 -8.45 -33.65 -9.85 -33.5 -10.45 -33.6 Q-11.25 -33.8 -11.45 -34.55 L-11.5 -34.8 -11.5 -34.95 -11.55 -35.05 -11.6 -35.25 -11.65 -35.6 -11.65 -35.8 -11.75 -36.05 Q-11.85 -36.6 -11.6 -37.0 L-10.45 -37.7 -10.0 -37.75 -11.1 -38.35 -11.75 -38.8 -12.4 -39.7 -12.85 -40.8 -12.95 -42.0 -12.4 -43.5 Q-11.85 -44.25 -10.8 -44.65 L-9.7 -45.0 -8.35 -45.15 -8.05 -45.15 Q-7.15 -44.95 -6.9 -44.4 L-6.7 -43.75 -6.7 -43.6 -6.6 -43.35 M-7.75 -43.65 L-7.8 -43.95 -8.15 -44.15 -8.35 -44.15 -9.45 -44.05 -10.45 -43.75 -11.6 -42.9 -11.95 -41.9 -11.9 -41.0 -11.55 -40.15 -11.05 -39.55 -10.6 -39.2 -9.6 -38.65 -9.25 -38.5 Q-8.9 -38.5 -8.9 -38.3 L-8.45 -37.95 -8.3 -37.65 Q-8.25 -37.25 -8.5 -37.0 L-9.45 -36.7 -9.5 -36.7 -9.7 -36.75 -9.85 -36.75 -10.2 -36.7 Q-10.85 -36.6 -10.75 -36.3 L-10.55 -35.15 -10.45 -34.8 -10.2 -34.55 -9.85 -34.5 -7.7 -34.9 -6.8 -35.5 -6.3 -36.25 -6.1 -36.65 -6.0 -37.3 -6.05 -38.05 Q-6.3 -39.0 -6.85 -39.55 L-7.35 -39.9 -7.75 -40.1 -8.05 -40.3 -8.2 -40.35 -9.25 -40.85 -9.6 -41.35 -9.45 -41.9 -9.05 -42.1 -8.15 -42.2 -7.9 -42.2 -7.6 -42.4 -7.5 -42.75 -7.75 -43.65" fill="#b07f00" fill-rule="evenodd" stroke="none"/>
    <path d="M2.65 -41.35 L2.4 -40.15 2.25 -39.75 2.0 -39.5 1.8 -39.15 1.25 -38.75 Q0.8 -38.4 -0.25 -38.2 L-1.9 -38.15 -2.25 -37.95 -2.45 -37.6 -2.45 -37.4 -2.4 -36.9 -2.35 -36.65 -2.35 -36.25 -2.45 -35.8 -3.25 -35.65 -3.9 -35.65 -4.2 -35.6 Q-4.55 -35.6 -4.55 -36.1 L-4.55 -37.35 -4.6 -37.9 -4.6 -40.25 -4.55 -40.6 -4.55 -40.8 -4.6 -41.05 -4.65 -41.9 -4.6 -42.45 -4.65 -42.85 -4.65 -43.0 -4.75 -43.9 Q-4.75 -44.45 -4.4 -44.65 L-3.9 -44.75 -3.6 -44.8 -1.15 -44.9 0.3 -44.7 1.1 -44.35 1.6 -44.0 Q2.3 -43.5 2.5 -42.65 L2.65 -41.35 M-1.9 -43.05 L-2.3 -42.75 -2.45 -41.55 -2.45 -41.3 -2.4 -41.1 -2.4 -40.8 -2.0 -40.2 -1.1 -40.05 -0.4 -40.15 -0.15 -40.25 0.1 -40.45 0.25 -40.6 0.4 -40.8 0.45 -40.95 0.55 -41.8 0.55 -41.85 0.3 -42.45 0.15 -42.65 Q-0.3 -42.95 -0.7 -43.05 L-1.35 -43.05 -1.65 -43.1 -1.9 -43.05" fill="#ffd245" fill-rule="evenodd" stroke="none"/>
    <path d="M-0.5 -41.3 L-0.45 -41.65 -0.55 -41.85 -0.55 -41.9 -0.65 -42.0 -0.85 -42.05 -1.45 -42.05 -1.45 -41.3 -1.4 -41.1 -1.15 -41.05 -0.7 -41.1 -0.6 -41.15 -0.55 -41.2 -0.5 -41.3 M-1.5 -43.05 L-0.7 -43.05 Q-0.3 -42.95 0.15 -42.65 L0.3 -42.45 0.55 -41.85 0.55 -41.8 0.45 -40.95 0.4 -40.8 0.25 -40.6 0.1 -40.45 -0.15 -40.25 -0.4 -40.15 -1.1 -40.05 -1.15 -40.05 -2.0 -40.2 -2.4 -40.8 -2.4 -41.1 -2.45 -41.3 -2.45 -41.55 -2.3 -42.75 -1.9 -43.05 -1.65 -43.1 -1.5 -43.05 M2.65 -41.35 L2.5 -42.65 Q2.3 -43.5 1.6 -44.0 L1.1 -44.35 0.3 -44.7 -1.15 -44.9 -3.6 -44.8 -3.9 -44.75 -4.4 -44.65 Q-4.75 -44.45 -4.75 -43.9 L-4.65 -43.0 -4.65 -42.85 -4.6 -42.45 -4.65 -41.9 -4.6 -41.05 -4.55 -40.8 -4.55 -40.6 -4.6 -40.25 -4.6 -37.9 -4.55 -37.35 -4.55 -36.1 Q-4.55 -35.6 -4.2 -35.6 L-3.9 -35.65 -3.25 -35.65 -2.45 -35.8 -2.35 -36.25 -2.35 -36.65 -2.4 -36.9 -2.45 -37.4 -2.45 -37.6 -2.25 -37.95 -1.9 -38.15 -0.25 -38.2 Q0.8 -38.4 1.25 -38.75 L1.8 -39.15 2.0 -39.5 2.25 -39.75 2.4 -40.15 2.65 -41.35 M2.2 -44.8 Q3.15 -44.0 3.45 -42.9 L3.55 -42.45 3.55 -42.3 3.65 -41.4 Q3.65 -40.55 3.3 -39.75 L3.2 -39.45 3.1 -39.25 2.9 -38.95 2.85 -38.9 2.75 -38.75 2.6 -38.6 2.6 -38.55 2.55 -38.5 1.85 -37.9 Q1.15 -37.45 -0.05 -37.2 L-0.1 -37.2 -1.4 -37.15 -1.4 -37.05 -1.35 -36.7 -1.35 -36.3 Q-1.3 -34.65 -3.25 -34.65 L-3.9 -34.65 -4.2 -34.6 Q-4.75 -34.6 -5.15 -35.05 -5.55 -35.5 -5.55 -36.1 L-5.55 -37.55 -5.6 -37.85 -5.55 -40.85 -5.6 -41.0 -5.6 -41.25 -5.55 -41.4 -5.6 -41.55 -5.65 -41.9 -5.65 -43.0 -5.75 -43.9 Q-5.75 -45.0 -4.9 -45.5 L-4.85 -45.55 -3.95 -45.75 -3.9 -45.75 -3.7 -45.8 -3.0 -45.8 -2.6 -45.85 -1.1 -45.9 0.65 -45.65 1.55 -45.25 2.2 -44.8" fill="#b07f00" fill-rule="evenodd" stroke="none"/>
    <path d="M11.3 -43.4 L10.25 -41.75 9.1 -40.3 8.8 -39.75 8.6 -39.55 8.1 -38.85 7.45 -37.7 7.1 -35.4 Q7.0 -34.95 6.65 -35.05 L5.15 -35.3 Q4.8 -35.35 4.8 -35.85 L4.9 -36.2 4.95 -36.55 5.1 -37.05 5.1 -37.35 5.15 -37.55 5.2 -38.0 5.2 -38.25 5.25 -38.6 5.15 -38.85 5.05 -39.3 4.65 -40.65 4.55 -41.15 4.2 -42.15 4.15 -42.4 3.65 -44.1 3.6 -44.2 3.55 -44.35 3.55 -44.65 Q3.55 -44.85 3.9 -44.85 L4.2 -44.75 4.5 -44.75 5.2 -44.6 5.45 -44.6 5.75 -44.5 6.0 -44.05 6.1 -43.55 6.35 -42.85 6.65 -41.5 6.95 -40.95 7.15 -41.1 7.35 -41.3 7.7 -41.85 7.8 -42.1 9.0 -43.8 9.45 -43.9 9.6 -43.85 10.95 -43.65 11.3 -43.4" fill="#ffd245" fill-rule="evenodd" stroke="none"/>
    <path d="M9.8 -44.85 L9.85 -44.8 10.6 -44.65 10.8 -44.65 11.1 -44.6 Q12.45 -44.4 12.3 -43.25 L11.8 -42.3 11.8 -42.25 11.75 -42.25 11.7 -42.1 11.5 -41.85 11.45 -41.75 11.35 -41.65 11.1 -41.2 10.2 -40.0 10.1 -39.9 9.6 -39.2 9.6 -39.15 9.55 -39.15 9.5 -39.05 9.45 -39.0 9.4 -38.9 9.35 -38.9 9.35 -38.85 9.3 -38.8 9.3 -38.75 9.05 -38.5 9.05 -38.45 9.0 -38.4 8.95 -38.3 8.9 -38.3 8.9 -38.25 8.45 -37.5 8.45 -37.4 8.3 -36.65 8.25 -36.5 8.15 -35.85 8.15 -35.6 8.1 -35.5 8.1 -35.25 Q7.85 -34.05 6.7 -34.05 L6.5 -34.05 6.2 -34.15 5.95 -34.15 5.55 -34.25 5.35 -34.25 5.0 -34.3 Q4.5 -34.35 4.1 -34.9 3.7 -35.4 3.85 -36.0 L3.95 -36.4 3.95 -36.5 4.05 -37.05 4.1 -37.2 4.1 -37.4 4.2 -38.1 4.2 -38.3 4.25 -38.45 4.2 -38.65 4.2 -38.7 4.1 -38.9 4.1 -39.05 3.9 -39.7 3.75 -40.3 3.7 -40.3 3.7 -40.35 3.65 -40.65 3.6 -40.8 3.55 -40.9 3.25 -41.85 3.2 -42.15 3.1 -42.35 2.95 -43.0 2.9 -43.1 2.75 -43.7 2.7 -43.75 2.65 -43.85 2.65 -43.95 2.6 -44.15 2.55 -44.8 Q2.75 -45.85 3.85 -45.85 L4.1 -45.85 4.35 -45.75 4.4 -45.75 4.65 -45.7 5.0 -45.7 5.35 -45.6 5.6 -45.6 6.25 -45.35 6.95 -44.35 7.05 -43.95 7.05 -43.8 7.3 -43.15 7.65 -43.7 7.75 -43.8 8.25 -44.5 8.35 -44.6 9.35 -44.9 9.65 -44.85 9.8 -44.85 M11.3 -43.4 L10.95 -43.65 9.6 -43.85 9.45 -43.9 9.35 -43.9 9.0 -43.8 7.8 -42.1 7.7 -41.85 7.35 -41.3 7.15 -41.1 6.95 -40.95 6.65 -41.5 6.35 -42.85 6.1 -43.55 6.0 -44.05 5.75 -44.5 5.45 -44.6 5.2 -44.6 4.5 -44.75 4.2 -44.75 3.9 -44.85 3.85 -44.85 Q3.55 -44.85 3.55 -44.65 L3.55 -44.35 3.6 -44.2 3.65 -44.1 4.15 -42.4 4.2 -42.15 4.55 -41.15 4.65 -40.65 5.05 -39.3 5.15 -38.85 5.25 -38.6 5.2 -38.25 5.2 -38.0 5.15 -37.55 5.1 -37.35 5.1 -37.05 4.95 -36.55 4.9 -36.2 4.8 -35.85 Q4.8 -35.35 5.15 -35.3 L6.65 -35.05 6.7 -35.05 Q7.0 -35.05 7.1 -35.4 L7.45 -37.7 8.1 -38.85 8.6 -39.55 8.8 -39.75 9.1 -40.3 10.25 -41.75 11.3 -43.4" fill="#b07f00" fill-rule="evenodd" stroke="none"/>
    <path d="M-0.95 -2.05 L-0.95 -22.9 Q-8.65 -22.55 -14.35 -17.45 L-10.65 -13.8 -12.65 -11.8 -16.3 -15.5 Q-21.5 -9.8 -21.9 -2.05 L-0.95 -2.05 M-0.95 21.3 L-0.95 0.3 -21.9 0.3 Q-21.55 8.05 -16.35 13.85 L-12.7 10.15 -10.7 12.15 -14.4 15.8 Q-8.7 20.9 -0.95 21.3 M14.9 15.75 L11.2 12.05 13.2 10.05 16.85 13.75 Q21.9 8.0 22.3 0.3 L1.4 0.3 1.4 21.3 Q9.15 20.85 14.9 15.75 M16.85 -15.4 L13.2 -11.7 11.15 -13.7 14.85 -17.35 Q9.1 -22.5 1.4 -22.9 L1.4 -2.05 22.3 -2.05 Q21.85 -9.7 16.85 -15.4 M-0.95 -30.6 L1.4 -30.6 1.4 -28.3 Q12.0 -27.95 19.65 -20.3 27.3 -12.65 27.7 -2.05 L30.85 -2.05 30.85 0.3 27.7 0.3 Q27.3 11.0 19.65 18.65 12.0 26.3 1.4 26.7 L1.4 28.9 -0.95 28.9 -0.95 26.7 Q-11.65 26.3 -19.3 18.65 -26.95 11.0 -27.3 0.3 L-30.3 0.3 -30.3 -2.05 -27.3 -2.05 Q-26.95 -12.65 -19.3 -20.3 -11.65 -27.95 -0.95 -28.3 L-0.95 -30.6" fill="#ffc200" fill-rule="evenodd" stroke="none"/>
    <path d="M-0.95 -30.6 L-0.95 -28.3 Q-11.65 -27.95 -19.3 -20.3 -26.95 -12.65 -27.3 -2.05 L-30.3 -2.05 -30.3 0.3 -27.3 0.3 Q-26.95 11.0 -19.3 18.65 -11.65 26.3 -0.95 26.7 L-0.95 28.9 1.4 28.9 1.4 26.7 Q12.0 26.3 19.65 18.65 27.3 11.0 27.7 0.3 L30.85 0.3 30.85 -2.05 27.7 -2.05 Q27.3 -12.65 19.65 -20.3 12.0 -27.95 1.4 -28.3 L1.4 -30.6 -0.95 -30.6 M16.85 -15.4 Q21.85 -9.7 22.3 -2.05 L1.4 -2.05 1.4 -22.9 Q9.1 -22.5 14.85 -17.35 L11.15 -13.7 13.2 -11.7 16.85 -15.4 M14.9 15.75 Q9.15 20.85 1.4 21.3 L1.4 0.3 22.3 0.3 Q21.9 8.0 16.85 13.75 L13.2 10.05 11.2 12.05 14.9 15.75 M-0.95 21.3 Q-8.7 20.9 -14.4 15.8 L-10.7 12.15 -12.7 10.15 -16.35 13.85 Q-21.55 8.05 -21.9 0.3 L-0.95 0.3 -0.95 21.3 M-0.95 -2.05 L-21.9 -2.05 Q-21.5 -9.8 -16.3 -15.5 L-12.65 -11.8 -10.65 -13.8 -14.35 -17.45 Q-8.65 -22.55 -0.95 -22.9 L-0.95 -2.05 Z" fill="none" stroke="#b07f00" stroke-linecap="butt" stroke-linejoin="round" stroke-width="3.0"/>
    <path d="M-0.95 -2.05 L-0.95 -22.9 Q-8.65 -22.55 -14.35 -17.45 L-10.65 -13.8 -12.65 -11.8 -16.3 -15.5 Q-21.5 -9.8 -21.9 -2.05 L-0.95 -2.05 M14.9 15.75 L11.2 12.05 13.2 10.05 16.85 13.75 Q21.9 8.0 22.3 0.3 L1.4 0.3 1.4 21.3 Q9.15 20.85 14.9 15.75 M-0.95 21.3 L-0.95 0.3 -21.9 0.3 Q-21.55 8.05 -16.35 13.85 L-12.7 10.15 -10.7 12.15 -14.4 15.8 Q-8.7 20.9 -0.95 21.3 M-0.95 -30.6 L1.4 -30.6 1.4 -28.3 Q12.0 -27.95 19.65 -20.3 27.3 -12.65 27.7 -2.05 L30.85 -2.05 30.85 0.3 27.7 0.3 Q27.3 11.0 19.65 18.65 12.0 26.3 1.4 26.7 L1.4 28.9 -0.95 28.9 -0.95 26.7 Q-11.65 26.3 -19.3 18.65 -26.95 11.0 -27.3 0.3 L-30.3 0.3 -30.3 -2.05 -27.3 -2.05 Q-26.95 -12.65 -19.3 -20.3 -11.65 -27.95 -0.95 -28.3 L-0.95 -30.6 M16.85 -15.4 L13.2 -11.7 11.15 -13.7 14.85 -17.35 Q9.1 -22.5 1.4 -22.9 L1.4 -2.05 22.3 -2.05 Q21.85 -9.7 16.85 -15.4" fill="#ffc200" fill-rule="evenodd" stroke="none"/>
    <path d="M18.5 -19.1 Q26.05 -11.55 26.05 -0.85 26.05 9.85 18.5 17.4 10.95 24.95 0.25 24.95 -10.4 24.95 -17.95 17.4 -25.5 9.85 -25.5 -0.85 -25.5 -11.55 -17.95 -19.1 -10.4 -26.65 0.25 -26.65 10.95 -26.65 18.5 -19.1 Z" fill="none" stroke="#ffd553" stroke-linecap="butt" stroke-linejoin="round" stroke-width="2.0"/>
    <path d="M-29.5 -1.15 L31.0 -1.15" fill="none" stroke="#ffd245" stroke-linecap="butt" stroke-linejoin="round" stroke-width="2.0"/>
    <path d="M-0.1 -29.1 L-0.1 28.0" fill="none" stroke="#ffd245" stroke-linecap="butt" stroke-linejoin="round" stroke-width="2.0"/>
  </g>
</svg>
