<?xml version="1.0" encoding="UTF-8" standalone="no"?>
<svg xmlns:ffdec="https://www.free-decompiler.com/flash" xmlns:xlink="http://www.w3.org/1999/xlink" ffdec:objectType="shape" height="92.85px" width="84.7px" xmlns="http://www.w3.org/2000/svg">
  <g transform="matrix(1.0, 0.0, 0.0, 1.0, 42.35, 46.15)">
    <path d="M2.85 -8.3 Q3.2 -4.7 4.35 -4.35 L5.05 -4.2 5.55 6.3 Q16.15 3.35 21.1 1.1 24.0 -0.25 24.45 -1.15 L18.9 -2.15 9.85 -2.6 9.7 -4.6 10.5 -4.7 10.25 -4.85 Q5.85 -7.45 2.85 -8.3 M-0.75 -31.4 Q1.25 -31.4 2.7 -29.95 4.1 -28.55 4.1 -26.55 4.1 -24.5 2.7 -23.1 3.1 -22.45 3.1 -21.6 L3.1 -19.6 Q3.1 -18.9 2.6 -18.3 L3.1 -16.65 3.1 -16.2 Q7.5 -15.3 12.45 -12.35 L13.05 -12.0 11.55 -4.85 27.45 -6.1 34.5 -5.4 Q36.85 -4.7 37.35 -3.15 37.7 -2.15 37.05 -0.85 35.2 2.55 25.65 6.8 17.2 10.6 5.95 13.75 L6.6 26.85 -0.75 34.75 -8.1 26.85 -8.05 26.45 -7.6 17.0 Q-20.15 19.6 -28.85 19.6 -38.1 19.6 -38.85 16.2 -39.8 12.05 -27.4 6.45 -21.6 3.85 -15.5 1.85 L-14.75 3.65 Q-18.85 5.85 -22.25 8.05 -25.95 10.4 -26.65 11.35 L-23.45 11.8 Q-17.8 11.8 -7.2 9.45 L-6.5 -4.2 -5.8 -4.35 Q-4.7 -4.7 -4.35 -8.3 -7.25 -7.45 -11.7 -4.85 L-12.9 -4.15 -14.55 -12.0 -13.9 -12.35 Q-8.95 -15.3 -4.55 -16.2 L-4.55 -16.65 -4.1 -18.3 -4.55 -19.6 -4.55 -21.6 Q-4.55 -22.55 -4.15 -23.1 -5.6 -24.55 -5.6 -26.55 -5.6 -28.55 -4.15 -29.95 -2.75 -31.4 -0.75 -31.4" fill="#d3a000" fill-rule="evenodd" stroke="none"/>
    <path d="M17.7 35.85 L17.65 35.95 17.6 36.0 17.6 36.05 17.45 36.25 17.45 36.3 17.4 36.35 17.4 36.8 17.5 37.2 17.55 37.25 17.75 37.55 17.75 37.6 18.25 38.1 18.6 38.25 18.7 38.2 18.9 38.2 19.0 38.15 19.15 38.1 19.2 38.05 19.3 38.0 19.5 37.65 19.6 37.25 19.6 37.15 19.45 36.6 19.35 36.45 19.25 36.25 19.15 36.1 18.9 35.85 18.8 35.8 18.6 35.75 18.45 35.65 18.1 35.7 17.8 35.85 17.7 35.85 M-16.9 40.0 L-16.7 39.3 -17.15 39.5 -16.9 40.0 M-11.55 38.85 L-11.7 38.6 -12.2 38.4 -12.25 38.55 -12.3 38.65 -12.95 40.75 -12.65 40.85 -12.55 40.9 -12.05 40.9 -11.45 40.1 -11.35 39.75 -11.35 39.65 -11.3 39.4 -11.4 39.05 -11.45 38.95 -11.55 38.85 M-28.8 28.0 L-28.7 27.95 -28.55 27.75 -28.45 27.65 -28.3 27.35 -28.25 27.35 -27.3 26.1 Q-26.95 25.6 -26.25 25.6 L-26.0 25.6 -25.25 25.9 -25.2 25.95 -25.2 26.0 -24.85 26.25 -24.8 26.3 -24.55 26.5 Q-23.75 27.15 -24.05 28.45 L-24.05 28.65 -24.1 29.15 -24.15 29.4 -24.15 29.9 -24.2 30.1 -24.2 30.4 -24.1 30.4 -23.65 30.25 -23.6 30.25 -23.1 30.0 -22.75 29.9 -22.2 29.65 -22.15 29.65 -22.1 29.6 -22.05 29.6 -21.8 29.5 -21.5 29.5 Q-20.9 29.5 -20.55 29.8 L-20.3 30.05 -20.1 30.2 -20.05 30.25 -19.85 30.4 -19.65 30.6 -19.6 30.6 -19.35 31.0 -19.1 31.0 -18.45 31.15 -18.2 31.25 -18.05 31.35 -17.4 31.65 -16.55 32.15 -16.4 32.2 -16.15 32.35 -16.0 32.4 -15.8 32.55 -14.7 33.15 -14.05 33.75 -14.0 33.7 -12.6 34.05 -12.5 34.1 -12.3 34.15 -12.25 34.15 -12.2 34.2 -11.75 34.3 -11.35 34.45 -10.9 34.55 -10.7 34.65 -10.65 34.65 -10.55 34.7 Q-10.1 34.8 -9.8 35.1 L-9.7 35.15 -9.65 35.15 -9.35 35.35 -9.2 35.5 -9.05 35.6 -9.0 35.65 -8.9 35.8 -8.75 35.85 -8.75 35.9 -8.7 35.9 -8.25 36.5 Q-7.7 37.25 -7.5 38.0 L-7.5 37.95 -7.45 37.9 -7.45 37.8 Q-6.95 35.85 -5.5 35.85 L-5.25 35.85 -4.85 35.95 -3.85 36.05 -3.8 36.05 Q-2.9 36.05 -2.25 36.6 -1.8 37.05 -1.7 37.85 L-1.6 38.35 -1.6 38.5 -1.55 38.75 -1.5 38.8 -1.5 38.05 -1.55 37.75 Q-1.55 37.15 -1.15 36.7 -0.75 36.3 -0.25 36.3 L0.8 36.25 0.85 36.2 1.15 36.2 Q1.7 36.2 2.1 36.6 2.5 36.95 2.55 37.55 L2.6 39.8 2.6 39.9 2.65 40.15 2.75 42.6 3.15 42.6 3.4 42.55 3.95 42.55 4.25 42.5 4.35 42.5 5.05 42.7 4.7 41.0 4.7 40.9 4.55 40.4 4.5 40.15 4.5 39.95 4.4 39.7 4.3 39.3 4.3 39.05 4.25 38.95 4.25 38.9 4.2 38.65 4.1 38.35 4.1 38.1 4.05 38.0 4.05 37.85 3.95 37.55 Q3.85 36.95 4.15 36.45 4.45 36.0 5.0 35.9 L5.75 35.75 5.9 35.75 6.0 35.7 6.1 35.7 6.6 35.6 Q7.8 35.6 7.95 36.75 L8.05 37.25 8.05 37.45 8.15 37.8 8.15 38.05 8.35 38.95 8.4 39.05 8.75 40.75 8.8 41.3 8.95 41.7 9.1 41.7 9.3 41.65 9.55 41.55 9.8 41.5 10.0 41.5 10.15 41.45 10.7 41.35 11.25 41.45 11.25 41.4 11.2 41.2 11.15 41.2 11.05 40.95 10.8 40.0 10.65 39.65 10.25 38.45 10.2 38.2 10.1 38.0 9.9 37.4 9.9 37.3 9.6 36.5 Q9.4 36.05 9.55 35.5 9.75 34.95 10.25 34.7 L10.3 34.7 10.35 34.65 10.5 34.6 10.55 34.6 11.2 34.35 11.4 34.3 11.5 34.3 11.65 34.2 12.1 34.15 12.8 34.35 13.45 35.15 13.55 35.5 13.55 35.55 13.6 35.4 13.6 35.3 13.65 35.25 13.7 34.9 13.9 34.5 13.9 34.4 14.0 34.2 14.45 33.5 14.75 33.2 14.95 32.95 16.05 32.2 16.6 32.0 16.8 31.9 17.6 31.7 17.7 31.7 17.9 31.65 18.7 31.65 19.65 31.85 19.55 31.6 Q19.15 30.75 19.9 30.15 L20.25 29.9 20.4 29.75 20.45 29.75 20.45 29.7 20.55 29.65 20.65 29.5 21.55 29.0 22.1 28.9 22.3 28.9 23.65 29.35 23.85 29.35 24.0 29.45 24.05 29.45 23.9 29.25 23.8 29.15 23.75 29.05 23.55 28.85 Q23.0 28.2 23.4 27.4 L23.9 26.9 24.35 26.55 24.45 26.45 24.5 26.45 24.5 26.4 24.6 26.3 24.8 26.15 Q25.1 25.85 25.6 25.85 26.3 25.85 26.75 26.4 L26.95 26.65 27.05 26.85 27.2 27.0 30.5 31.05 30.6 31.15 30.65 31.25 30.7 31.3 30.7 31.35 30.8 31.45 30.95 31.55 31.15 31.8 31.55 32.2 31.9 32.95 Q31.9 33.75 31.35 34.2 L31.15 34.35 31.0 34.5 30.8 34.65 30.7 34.7 30.45 34.95 29.55 35.25 28.65 35.05 28.35 34.9 27.15 34.55 27.4 34.85 27.4 34.9 27.45 34.95 27.55 35.0 27.8 35.25 Q28.45 36.05 27.85 37.0 L27.55 37.3 27.5 37.3 26.75 38.05 25.9 38.4 25.75 38.4 Q25.15 38.4 24.7 37.9 L24.7 37.85 23.9 36.9 23.85 36.85 23.65 36.6 23.5 36.45 23.6 36.9 23.55 38.1 Q23.55 38.85 23.1 39.5 L22.85 39.85 22.85 39.9 22.7 40.1 22.05 40.85 21.7 41.1 21.55 41.25 21.1 41.55 20.35 41.9 20.05 41.95 19.7 42.1 19.25 42.15 19.0 42.15 18.6 42.2 18.45 42.2 18.05 42.15 17.95 42.1 16.5 41.7 15.85 41.3 15.8 41.25 15.75 41.25 15.65 41.2 15.45 41.05 15.4 41.0 15.4 41.05 15.75 42.1 15.9 42.4 Q16.05 42.95 15.75 43.5 L15.0 44.1 14.8 44.15 14.7 44.15 14.55 44.25 14.3 44.35 14.05 44.4 13.95 44.4 13.95 44.45 13.7 44.55 13.25 44.6 12.25 44.15 Q12.15 45.1 11.05 45.35 L9.2 45.7 9.05 45.7 8.65 45.8 8.55 45.8 8.45 45.85 7.95 45.95 7.75 45.95 7.25 46.1 6.9 46.15 Q6.1 46.15 5.7 45.45 L5.4 46.05 Q5.05 46.5 4.3 46.5 L4.05 46.5 3.8 46.55 3.15 46.55 2.75 46.6 1.7 46.6 1.45 46.65 0.75 46.65 0.4 46.7 0.35 46.7 Q-0.45 46.7 -0.9 46.05 -1.25 46.7 -2.05 46.7 L-2.4 46.7 -2.7 46.65 -3.1 46.65 -4.2 46.3 -4.9 45.2 -4.9 45.05 -5.15 45.0 -5.65 45.0 -5.7 45.05 -6.2 45.85 Q-6.5 46.15 -7.0 46.15 L-7.35 46.15 -7.7 46.1 -7.9 46.05 -8.3 46.05 -9.15 45.7 -9.25 45.6 Q-9.8 45.05 -9.7 44.45 L-9.55 43.95 -10.4 44.45 -11.4 44.75 -11.85 44.75 -12.1 44.8 -12.6 44.8 -12.7 44.75 -14.85 44.25 -16.25 43.8 Q-17.7 43.35 -17.55 42.15 -17.95 42.75 -18.6 42.75 L-19.35 42.55 -19.45 42.45 -19.5 42.45 -19.6 42.4 -19.6 42.35 -19.7 42.3 -19.9 42.25 -20.3 42.05 -20.45 41.95 -20.5 41.95 -20.55 41.9 -20.7 41.8 -21.7 41.3 -22.1 41.05 -22.15 41.05 -23.25 40.45 -24.0 39.65 Q-24.25 39.0 -23.9 38.35 L-23.35 37.3 -23.3 37.25 -23.4 37.3 -23.75 37.6 -24.1 38.1 -24.3 38.3 -24.35 38.4 Q-24.8 38.9 -25.4 38.9 -26.05 38.9 -26.5 38.5 L-26.75 38.3 -26.9 38.15 -27.15 37.95 -27.2 37.9 -27.4 37.75 -27.85 36.95 Q-27.85 36.3 -27.5 35.9 L-27.45 35.85 -27.1 35.4 -26.95 35.25 -26.85 35.1 -26.8 35.0 -27.65 34.7 -28.05 34.15 -28.15 33.4 -28.9 34.3 -29.0 34.4 -29.15 34.6 Q-29.55 35.1 -30.15 35.1 -30.6 35.1 -31.05 34.75 L-31.3 34.5 -31.5 34.35 -31.65 34.2 -31.9 34.05 Q-32.6 33.5 -32.45 32.7 L-32.45 32.6 -32.4 32.6 -32.15 32.0 -31.7 31.45 -31.6 31.35 -31.45 31.15 -31.1 30.8 -30.15 29.65 -29.9 29.3 -29.55 28.95 -29.55 28.9 -29.4 28.75 -29.25 28.55 -29.15 28.45 -28.9 28.15 -28.8 28.0 M-23.05 -34.0 L-23.1 -34.05 -23.25 -34.0 -23.35 -33.95 -22.9 -33.2 -22.85 -33.3 -22.9 -33.55 -23.05 -34.0 M-13.4 -37.6 L-13.8 -38.0 -14.0 -38.1 -14.15 -38.2 -14.2 -38.2 -14.55 -38.25 -14.95 -38.1 -15.05 -38.05 -15.2 -38.0 -15.25 -37.9 -15.45 -37.65 -15.45 -37.55 -15.5 -37.55 -15.5 -37.5 -15.55 -37.1 -15.55 -37.0 -15.5 -36.8 -15.5 -36.6 -15.45 -36.5 -15.3 -36.1 -15.2 -36.0 -14.8 -35.45 -14.35 -35.25 -14.05 -35.25 -14.0 -35.3 -13.9 -35.3 -13.75 -35.35 -13.7 -35.4 -13.5 -35.45 -13.25 -35.8 -13.1 -36.25 -13.1 -36.4 -13.2 -37.05 -13.25 -37.2 -13.35 -37.4 -13.4 -37.55 -13.4 -37.6 M-18.8 -33.8 L-18.9 -34.1 -18.95 -33.4 -18.85 -33.45 -18.7 -33.5 -18.6 -33.5 -18.75 -33.75 -18.75 -33.8 -18.8 -33.8 M20.75 -35.35 L20.45 -35.35 20.15 -35.3 20.1 -35.3 20.0 -35.25 19.9 -35.15 19.8 -35.1 19.4 -34.5 19.35 -34.3 19.3 -34.2 19.3 -34.1 19.2 -33.85 19.2 -33.75 19.4 -33.05 19.6 -33.8 19.95 -34.35 20.15 -34.75 20.75 -35.35 M29.25 -34.35 L29.55 -34.05 29.75 -33.9 29.85 -33.75 29.9 -33.75 30.05 -33.55 30.35 -33.2 30.45 -33.1 30.45 -33.0 Q30.75 -32.25 30.15 -31.55 L29.9 -31.35 28.85 -30.2 29.35 -29.7 29.55 -29.45 29.7 -29.35 30.55 -30.25 30.85 -30.65 Q31.3 -31.1 31.75 -31.15 L31.95 -31.2 Q32.5 -31.2 32.9 -30.8 L33.2 -30.5 33.25 -30.5 33.45 -30.25 33.55 -30.15 33.6 -30.15 33.85 -29.9 34.45 -28.85 Q34.45 -28.25 33.95 -27.75 L33.45 -27.3 33.35 -27.15 33.1 -26.85 32.45 -26.25 32.3 -26.05 30.95 -24.65 30.65 -24.4 30.35 -24.05 30.1 -23.85 30.05 -23.75 28.25 -21.85 Q27.9 -21.4 27.25 -21.4 26.7 -21.4 26.25 -21.85 L26.0 -22.1 25.8 -22.25 25.5 -22.55 Q24.8 -23.25 24.85 -23.9 L24.85 -24.05 24.9 -24.15 Q25.05 -24.65 25.35 -24.95 L26.05 -25.65 26.2 -25.85 26.4 -26.0 26.75 -26.35 26.05 -27.05 25.95 -27.2 25.9 -27.2 25.7 -27.0 25.65 -26.9 25.5 -26.8 25.0 -26.3 24.85 -26.1 24.6 -25.85 Q24.1 -25.2 23.35 -25.2 22.8 -25.2 22.4 -25.55 L21.35 -26.55 Q21.0 -26.9 20.9 -27.35 L20.65 -27.35 20.15 -27.45 Q20.0 -27.45 19.1 -27.95 L18.7 -28.2 18.65 -28.25 18.5 -28.3 17.3 -29.15 16.45 -30.05 16.35 -30.2 16.1 -30.45 15.45 -31.7 15.2 -32.4 15.0 -33.5 14.55 -32.1 Q14.2 -31.2 13.25 -31.2 L12.75 -31.3 12.5 -31.4 12.45 -31.45 12.25 -31.5 11.7 -31.7 11.65 -31.75 11.6 -31.75 11.35 -31.85 Q10.85 -32.0 10.6 -32.5 L10.25 -32.45 9.9 -32.45 9.65 -32.55 9.45 -32.55 9.15 -32.65 9.0 -32.65 8.95 -32.7 8.7 -32.7 Q7.8 -32.9 7.45 -34.1 L6.75 -36.05 6.7 -36.15 6.7 -36.0 6.55 -35.3 6.55 -35.0 6.5 -34.65 5.95 -33.85 5.1 -33.55 4.7 -33.6 4.45 -33.6 4.0 -33.65 3.55 -33.75 2.95 -33.95 2.35 -33.85 1.75 -33.85 1.35 -33.8 0.5 -33.8 Q-0.1 -33.8 -0.45 -34.15 L-1.05 -35.15 -1.1 -35.2 Q-1.1 -34.7 -1.4 -34.3 -1.75 -33.85 -2.25 -33.8 L-2.45 -33.75 -3.05 -33.75 -3.35 -33.7 -3.6 -33.75 -3.65 -33.75 -4.0 -33.7 -4.55 -33.8 -4.75 -33.9 Q-5.3 -34.35 -5.35 -35.0 L-5.3 -35.25 -5.3 -35.9 -5.75 -35.75 -5.95 -35.75 -6.05 -35.7 -6.25 -35.65 -6.5 -35.65 -6.65 -35.6 -6.75 -35.6 -7.3 -35.5 -7.4 -35.45 -7.55 -35.45 -7.8 -35.35 -8.1 -35.35 Q-8.55 -35.35 -8.95 -35.65 L-9.1 -34.85 Q-9.25 -34.15 -9.75 -33.45 L-9.8 -33.4 -9.75 -33.4 -10.25 -32.9 Q-10.5 -32.45 -11.05 -32.15 L-11.3 -32.0 -11.4 -31.9 -11.45 -31.9 -11.6 -31.8 -12.95 -31.25 -13.7 -31.15 -14.6 -31.15 -15.05 -31.2 -15.55 -31.35 -16.6 -31.7 -16.55 -31.6 Q-16.25 -31.15 -16.35 -30.55 L-16.75 -29.8 -17.05 -29.55 Q-17.7 -29.1 -18.6 -29.1 L-20.2 -29.35 -20.05 -29.15 Q-19.7 -28.65 -19.85 -28.15 -19.9 -27.7 -20.4 -27.3 L-20.75 -27.1 -20.8 -27.1 -20.85 -27.05 -20.9 -27.05 -21.05 -26.95 -21.35 -26.7 -21.75 -26.45 Q-22.15 -26.2 -22.5 -26.2 -23.3 -26.2 -23.7 -26.9 L-23.9 -27.2 -23.9 -27.3 -24.0 -27.4 -24.3 -27.8 -24.8 -28.65 -25.95 -30.35 -26.2 -30.65 -27.1 -32.2 -27.15 -32.2 Q-26.9 -31.7 -27.35 -31.0 L-27.35 -30.95 -27.75 -30.5 -27.95 -30.35 -27.35 -29.7 -27.15 -29.55 -26.95 -29.3 -25.95 -28.35 -25.7 -28.15 -25.45 -27.85 -25.35 -27.7 -24.35 -26.75 -24.3 -26.65 -24.15 -26.55 -23.95 -26.35 Q-23.55 -25.95 -23.55 -25.4 -23.55 -24.75 -24.1 -24.2 L-24.35 -23.95 -24.45 -23.9 -24.6 -23.7 -25.05 -23.3 Q-25.45 -22.9 -25.95 -22.9 -26.4 -22.9 -26.65 -23.15 -26.9 -23.25 -27.15 -23.5 L-27.2 -23.6 -27.4 -23.85 -28.3 -24.75 -29.15 -25.55 -29.25 -25.75 -29.35 -25.8 -29.5 -25.95 -29.7 -26.2 -30.95 -27.45 -31.15 -27.25 -31.4 -26.95 Q-31.9 -26.55 -32.5 -26.55 L-33.1 -26.65 Q-32.85 -26.35 -32.85 -25.8 -32.85 -25.35 -33.15 -24.9 L-32.6 -25.0 -32.55 -25.05 -31.5 -25.2 -31.3 -25.2 Q-30.15 -25.1 -29.2 -24.4 L-28.45 -23.7 -28.45 -23.65 -28.4 -23.6 -28.4 -23.65 -27.95 -22.75 -28.0 -22.85 -27.8 -22.35 Q-27.6 -21.45 -27.7 -21.0 L-27.7 -20.95 -28.05 -19.75 -28.05 -19.65 -28.35 -19.25 -28.55 -18.9 -28.6 -18.9 -28.65 -18.7 -29.15 -18.15 -30.0 -17.4 -30.3 -16.55 -30.5 -16.15 Q-31.15 -14.85 -32.15 -14.85 L-32.45 -14.85 -32.7 -14.9 -33.0 -14.3 -33.05 -14.05 -33.1 -14.05 -33.0 -13.95 Q-32.55 -13.75 -32.35 -13.2 -32.15 -12.6 -32.5 -11.95 L-32.75 -11.45 -32.9 -11.05 Q-33.2 -10.5 -33.6 -10.25 L-33.7 -10.2 -34.3 -10.05 -34.9 -10.2 -35.5 -10.6 -35.55 -10.65 -35.55 -10.7 -35.65 -10.75 -35.8 -10.85 -35.9 -10.9 -36.15 -11.1 -36.3 -11.25 -36.75 -11.5 -36.8 -11.55 -37.5 -12.05 -37.7 -12.25 -38.15 -12.6 -39.05 -13.3 -39.15 -13.45 -39.3 -13.5 -40.2 -14.2 -40.25 -14.2 -40.8 -14.7 -40.95 -14.8 Q-41.75 -15.4 -42.0 -15.75 -42.6 -16.6 -42.1 -17.6 L-41.45 -19.05 Q-41.1 -19.95 -40.35 -20.35 L-39.5 -20.6 -38.95 -20.55 -38.65 -20.45 -38.4 -20.45 -38.25 -20.4 -37.95 -20.4 -37.9 -20.35 -37.35 -20.25 -37.25 -20.2 -37.15 -20.2 -37.05 -20.15 -37.0 -20.15 -36.2 -20.0 -36.1 -20.0 -35.1 -19.75 -35.05 -19.75 -34.9 -19.7 -34.85 -19.65 -34.5 -19.65 -34.35 -19.6 -34.05 -19.55 -33.75 -19.45 -33.7 -19.45 -33.25 -19.35 -32.85 -20.4 -32.55 -20.75 -33.75 -20.45 -34.45 -20.4 -34.55 -20.4 -35.65 -20.6 Q-36.4 -20.9 -36.7 -21.15 L-37.6 -21.95 -38.15 -23.45 -38.0 -24.75 -37.75 -25.35 -37.15 -26.4 -36.05 -27.55 Q-35.5 -27.9 -35.15 -27.9 L-34.65 -27.8 -34.2 -27.5 -34.15 -27.45 -33.95 -27.35 -33.75 -27.2 -34.35 -27.8 Q-34.75 -28.2 -34.75 -28.8 L-34.25 -29.9 -34.0 -30.1 -32.15 -31.9 -32.15 -31.95 -32.05 -32.0 -31.6 -32.45 -31.5 -32.6 -31.3 -32.8 -31.2 -32.85 -31.0 -33.05 -30.75 -33.25 -30.6 -33.4 -30.4 -33.65 -30.0 -33.95 -29.95 -33.95 -29.9 -34.0 -29.35 -34.1 -28.75 -33.95 -28.15 -33.45 -28.0 -33.3 -27.75 -33.1 -27.7 -33.05 -28.0 -33.5 -28.4 -34.35 Q-28.65 -35.3 -27.75 -35.85 L-27.55 -36.0 -27.35 -36.1 -27.2 -36.25 -26.2 -36.85 -25.55 -37.35 -24.75 -37.8 -24.6 -37.85 -24.7 -37.8 -23.95 -38.1 -23.85 -38.1 -23.75 -38.15 -23.25 -38.2 -23.05 -38.25 -22.85 -38.25 -22.1 -38.15 -22.0 -38.15 -21.95 -38.1 -21.3 -37.9 -20.0 -36.85 -19.9 -36.65 -19.85 -36.6 -19.6 -36.25 -19.65 -37.0 -19.6 -37.7 -19.3 -39.05 -19.25 -39.1 -19.25 -39.2 -18.9 -39.95 -18.85 -40.0 -18.75 -40.2 -17.95 -41.1 -17.9 -41.1 -17.8 -41.2 -17.55 -41.4 -16.3 -42.1 -15.5 -42.3 -14.6 -42.45 -14.55 -42.45 -14.5 -42.4 -14.35 -42.4 -13.4 -42.3 -12.35 -41.95 -12.0 -41.8 -11.9 -41.7 -11.85 -41.7 -11.75 -41.65 -11.7 -41.6 -11.05 -41.1 -10.8 -40.85 -10.65 -40.75 -10.4 -40.5 -10.0 -39.9 -9.4 -38.7 -8.75 -39.15 -8.65 -39.2 -8.55 -39.2 -8.3 -39.25 -8.2 -39.3 -7.65 -39.4 -7.55 -39.4 -7.0 -39.5 -6.85 -39.5 -6.1 -39.65 -5.35 -39.4 -5.35 -39.95 -5.4 -40.05 -5.5 -42.9 -5.45 -43.0 -5.5 -43.15 -5.5 -43.4 -5.2 -44.35 Q-4.85 -44.85 -4.2 -44.85 L-4.15 -44.85 -3.85 -44.8 -3.7 -44.85 -3.25 -44.85 -2.75 -44.9 -2.65 -44.9 Q-2.0 -44.9 -1.65 -44.45 -1.3 -44.1 -1.25 -43.5 L-1.25 -43.4 -1.2 -43.5 -0.7 -44.25 -0.45 -44.55 Q0.1 -45.0 0.75 -45.0 L1.05 -44.95 1.2 -45.0 2.3 -45.0 Q2.85 -45.0 3.25 -44.65 3.6 -44.3 3.6 -43.75 3.6 -43.1 3.2 -42.65 L3.05 -42.5 3.0 -42.4 2.95 -42.35 2.45 -41.6 2.15 -41.25 2.05 -41.05 1.8 -40.75 1.75 -40.7 1.65 -40.55 1.4 -40.2 1.3 -40.0 1.2 -39.85 1.45 -39.4 1.5 -39.25 1.55 -39.2 1.55 -39.1 1.65 -38.9 2.2 -38.0 2.3 -37.8 2.6 -37.35 2.7 -37.1 2.7 -37.2 2.75 -37.5 2.85 -37.8 2.9 -38.05 2.95 -38.2 2.95 -38.35 3.0 -38.8 3.25 -39.8 3.25 -39.9 3.35 -40.15 3.8 -42.65 3.8 -42.75 3.85 -42.95 3.85 -43.15 3.9 -43.5 4.1 -44.05 Q4.45 -44.75 5.2 -44.75 L5.35 -44.75 5.45 -44.7 5.75 -44.65 5.9 -44.6 6.0 -44.6 6.15 -44.55 6.25 -44.55 6.35 -44.5 6.5 -44.5 7.2 -44.25 7.55 -44.1 8.1 -43.55 8.65 -42.2 8.7 -42.15 8.8 -41.95 8.85 -41.8 8.85 -41.75 8.9 -41.65 8.9 -41.6 8.95 -41.5 9.05 -42.05 9.1 -42.2 9.1 -42.3 9.15 -42.55 Q9.3 -43.5 10.2 -43.65 L10.4 -43.65 10.95 -43.55 11.55 -43.45 11.7 -43.4 11.8 -43.4 11.9 -43.35 12.2 -43.35 13.05 -42.75 Q13.35 -42.25 13.25 -41.6 L13.15 -41.3 13.05 -40.75 12.95 -40.45 12.9 -40.0 12.75 -39.45 12.85 -39.65 13.05 -40.3 13.15 -40.4 13.4 -41.3 Q13.8 -42.35 14.8 -42.35 L15.1 -42.3 15.2 -42.3 15.45 -42.15 15.6 -42.15 16.15 -41.9 16.35 -41.85 16.4 -41.8 16.6 -41.75 Q17.25 -41.55 17.4 -40.9 17.6 -40.3 17.4 -39.8 L17.35 -39.6 17.15 -39.2 17.1 -38.95 16.75 -38.1 17.55 -38.8 18.5 -39.25 20.15 -39.55 20.2 -39.55 20.5 -39.5 20.7 -39.5 21.55 -39.4 23.2 -38.7 23.3 -38.6 23.5 -38.5 23.65 -38.4 24.6 -37.9 25.9 -36.5 Q26.2 -35.75 25.8 -35.05 L25.7 -34.85 25.55 -34.7 25.5 -34.55 25.25 -34.1 Q25.05 -33.65 24.6 -33.5 L24.65 -32.7 24.15 -31.65 23.9 -31.2 23.9 -31.15 25.65 -33.0 25.95 -33.25 26.85 -34.25 Q27.5 -34.9 27.95 -34.9 L28.05 -34.95 28.1 -34.95 29.05 -34.55 29.1 -34.5 29.15 -34.5 29.25 -34.35 M38.65 -23.55 L38.8 -23.35 38.95 -23.05 39.05 -22.95 39.1 -22.85 39.3 -22.6 39.5 -22.2 39.5 -22.1 Q39.7 -21.45 39.3 -20.95 L38.65 -20.45 38.55 -20.35 38.6 -20.35 39.8 -20.1 41.3 -18.8 41.85 -17.75 42.35 -16.2 Q42.35 -15.25 41.85 -14.9 L41.35 -14.65 41.3 -14.6 40.55 -14.25 39.9 -14.1 Q39.5 -14.1 39.25 -14.3 L38.6 -15.0 38.4 -14.45 38.4 -14.4 38.3 -14.05 37.95 -13.3 Q37.35 -12.35 36.25 -11.85 L35.2 -11.5 34.25 -11.5 33.95 -11.6 33.75 -11.6 Q32.85 -11.9 32.6 -12.15 L32.55 -12.15 32.55 -12.2 31.55 -13.15 31.15 -13.9 31.1 -13.95 31.1 -14.0 31.0 -14.15 30.75 -14.85 Q30.5 -15.55 30.55 -16.1 30.6 -16.95 31.3 -17.25 L31.5 -17.35 31.65 -17.4 31.75 -17.45 31.9 -17.55 32.25 -17.65 32.4 -17.75 32.45 -17.75 32.7 -17.9 33.2 -18.0 Q34.05 -18.0 34.55 -16.95 L34.7 -16.55 35.05 -17.75 35.35 -18.45 36.1 -19.3 36.65 -19.75 36.1 -20.1 36.05 -20.15 35.7 -20.6 35.6 -20.8 35.0 -20.4 34.85 -20.35 34.65 -20.15 34.3 -19.95 33.25 -19.2 33.05 -19.0 32.5 -18.7 32.35 -18.6 32.05 -18.35 31.4 -17.9 31.2 -17.8 30.95 -17.6 30.2 -17.35 Q29.4 -17.35 28.9 -18.15 L28.7 -18.4 28.65 -18.45 28.15 -19.2 Q27.65 -20.05 28.25 -20.85 L28.75 -21.2 28.8 -21.3 29.2 -21.5 30.45 -22.35 30.8 -22.65 31.3 -22.9 31.35 -23.0 31.55 -23.1 31.85 -23.3 31.95 -23.35 32.1 -23.45 32.4 -23.7 33.15 -24.2 33.25 -24.3 33.15 -24.45 33.15 -24.5 32.85 -24.8 Q32.55 -25.25 32.65 -25.9 32.75 -26.55 33.25 -26.9 L34.2 -27.55 35.0 -27.8 Q35.8 -27.8 36.25 -27.1 L36.45 -26.75 37.05 -25.95 37.2 -25.65 37.4 -25.35 37.55 -25.2 37.75 -24.85 37.9 -24.7 37.9 -24.65 37.95 -24.55 38.1 -24.35 38.25 -24.2 38.25 -24.15 38.3 -24.05 38.45 -23.85 38.55 -23.65 38.65 -23.55" fill="#d3a000" fill-rule="evenodd" stroke="none"/>
    <path d="M-24.85 26.15 Q-24.6 26.4 -24.7 27.2 L-24.85 28.2 -24.85 28.5 -24.95 29.9 -24.85 30.5 -24.3 30.45 -23.6 30.25 -23.35 30.15 -22.9 30.05 -21.65 29.5 -21.45 29.45 -21.25 29.35 -20.9 29.45 -20.45 29.9 -20.2 30.05 -20.0 30.25 Q-19.7 30.55 -19.9 30.8 L-20.2 31.05 -21.1 32.2 -21.5 32.55 -23.7 35.3 -23.8 35.45 -24.25 35.85 -24.6 36.4 -24.85 36.65 -25.55 36.6 -26.45 35.85 -26.45 35.45 -26.25 35.15 -24.55 33.2 -24.4 33.0 -24.45 32.7 -25.1 32.65 -25.6 32.75 -26.05 32.85 -26.7 32.8 -26.8 32.65 -26.85 32.3 -26.85 31.3 -26.85 30.9 Q-26.8 30.3 -26.9 30.2 L-27.15 30.1 -27.55 30.4 -29.6 32.85 -30.1 32.9 -30.55 32.45 -31.0 32.15 -31.15 31.75 -31.05 31.5 -30.6 31.0 -30.35 30.65 -28.35 28.25 -27.5 27.3 -26.25 25.65 -25.8 25.5 -25.6 25.55 -25.55 25.6 -25.55 25.65 -25.5 25.7 -25.05 26.05 -24.85 26.15" fill="#ffd245" fill-rule="evenodd" stroke="none"/>
    <path d="M-24.85 26.15 L-25.05 26.05 -25.5 25.7 -25.55 25.65 -25.55 25.6 -25.6 25.55 -25.8 25.5 -25.95 25.5 -26.25 25.65 -28.05 27.95 -28.35 28.25 -30.35 30.65 -30.6 31.0 -31.05 31.5 -31.15 31.75 -31.0 32.15 -30.55 32.45 -30.1 32.9 -29.85 32.95 -29.6 32.85 -27.55 30.4 -27.15 30.1 -26.9 30.2 Q-26.8 30.3 -26.85 30.9 L-26.85 31.3 -26.85 32.3 -26.8 32.65 -26.7 32.8 -26.45 32.9 -26.05 32.85 -25.6 32.75 -24.75 32.6 -24.45 32.7 -24.4 33.0 -24.55 33.2 -26.25 35.15 -26.45 35.45 -26.45 35.85 -25.55 36.6 Q-25.35 36.8 -25.1 36.8 -24.9 36.8 -24.85 36.65 L-24.6 36.4 -24.25 35.85 -23.8 35.45 -23.7 35.3 -21.5 32.55 -21.1 32.2 -20.2 31.05 -19.9 30.8 Q-19.7 30.55 -20.0 30.25 L-20.2 30.05 -20.45 29.9 -20.9 29.45 -21.2 29.35 -21.25 29.35 -21.45 29.45 -21.65 29.5 -22.9 30.05 -23.35 30.15 -23.6 30.25 -24.7 30.55 -24.85 30.5 -24.95 29.9 -24.7 27.2 Q-24.6 26.4 -24.85 26.15 M-27.95 26.2 L-27.7 25.95 -27.0 25.0 Q-26.55 24.5 -25.95 24.5 L-25.7 24.5 Q-25.3 24.5 -25.0 24.8 L-24.95 24.8 -24.9 24.85 -24.9 24.9 -24.85 24.9 -24.55 25.15 -24.5 25.2 -24.2 25.4 Q-23.75 25.8 -23.65 26.3 L-23.7 27.3 -23.75 27.55 -23.8 28.05 -23.85 28.3 -23.85 28.8 -23.9 29.0 -23.9 29.3 -23.8 29.25 -23.65 29.2 -23.35 29.15 -23.3 29.1 -23.1 29.05 -22.8 28.9 -22.65 28.85 -22.0 28.55 -21.9 28.55 -21.85 28.5 -21.75 28.5 -21.35 28.35 -21.2 28.35 Q-20.7 28.35 -20.25 28.7 L-19.75 29.15 -19.35 29.45 -19.3 29.5 Q-18.9 29.9 -18.85 30.45 -18.8 31.0 -19.15 31.45 L-19.3 31.55 -19.45 31.75 -20.75 33.2 -21.0 33.55 -21.4 34.05 -21.5 34.2 -21.7 34.4 -22.9 35.95 -23.45 36.5 -23.8 37.0 -24.0 37.2 -24.05 37.3 Q-24.5 37.8 -25.1 37.8 L-26.2 37.4 -26.6 37.0 -26.85 36.85 -26.9 36.8 -27.1 36.65 -27.5 35.8 Q-27.6 35.25 -27.2 34.8 L-27.15 34.7 -27.0 34.5 -26.8 34.3 -26.65 34.1 -26.55 34.0 -26.5 33.9 Q-27.0 33.9 -27.35 33.55 L-27.75 33.05 -27.85 32.25 -27.9 32.35 -28.6 33.2 -28.65 33.3 -28.8 33.5 Q-29.25 33.95 -29.85 33.95 L-30.75 33.65 -31.0 33.4 -31.2 33.25 -31.35 33.1 -31.6 32.95 Q-32.25 32.4 -32.15 31.55 L-32.15 31.5 -32.1 31.45 -31.85 30.9 -31.35 30.35 -31.3 30.2 -30.8 29.7 -29.85 28.5 -29.75 28.35 -29.25 27.85 -29.2 27.75 -29.1 27.6 -28.95 27.45 -28.85 27.3 -28.6 27.05 -28.5 26.9 -28.15 26.55 -28.1 26.45 -28.0 26.35 -27.95 26.25 -27.95 26.2" fill="#b07f00" fill-rule="evenodd" stroke="none"/>
    <path d="M-22.7 37.7 L-20.75 33.9 -20.45 33.45 -20.25 32.95 -19.65 31.95 -19.4 31.4 -19.1 31.0 -18.6 30.9 -17.1 31.75 -16.3 32.1 -15.3 32.7 -14.85 32.9 Q-14.5 33.1 -14.65 33.45 L-14.85 33.75 -15.1 34.3 -15.35 34.5 -15.55 34.5 -15.85 34.45 -16.15 34.25 -16.65 34.05 -16.75 33.95 -17.0 33.8 -17.25 33.6 Q-18.05 33.2 -18.3 33.75 -18.7 34.4 -18.35 34.65 L-18.0 34.9 -17.4 35.15 -16.2 35.85 -16.2 36.25 -16.6 36.95 -16.75 37.15 Q-16.9 37.55 -17.4 37.3 L-18.2 36.85 -18.45 36.75 -18.75 36.55 -19.1 36.4 -19.15 36.35 -19.4 36.3 -19.85 36.65 -20.1 37.4 -19.5 38.0 -17.9 38.8 -17.7 38.95 -17.55 39.25 -17.75 39.7 -17.75 39.8 -17.85 40.1 -18.0 40.4 -18.55 40.55 -18.75 40.45 -19.15 40.2 -19.45 40.1 -19.65 39.95 -20.9 39.3 -21.35 39.05 -22.5 38.45 -22.75 38.2 -22.7 37.7" fill="#ffd245" fill-rule="evenodd" stroke="none"/>
    <path d="M-22.7 37.7 L-22.75 38.2 -22.5 38.45 -21.35 39.05 -20.9 39.3 -19.65 39.95 -19.45 40.1 -19.15 40.2 -18.75 40.45 -18.55 40.55 -18.3 40.6 -18.0 40.4 -17.85 40.1 -17.75 39.8 -17.75 39.7 -17.55 39.25 -17.7 38.95 -17.9 38.8 -19.5 38.0 -20.1 37.4 -19.85 36.65 -19.45 36.3 -19.4 36.3 -19.15 36.35 -19.1 36.4 -18.75 36.55 -18.45 36.75 -18.2 36.85 -17.4 37.3 -17.1 37.4 -16.75 37.15 -16.35 36.55 -16.2 36.25 -16.2 35.85 -17.4 35.15 -18.0 34.9 -18.35 34.65 Q-18.7 34.4 -18.3 33.75 L-17.9 33.4 -17.25 33.6 -17.0 33.8 -16.75 33.95 -16.65 34.05 -16.15 34.25 -15.85 34.45 -15.55 34.5 -15.45 34.55 -15.35 34.5 -15.1 34.3 -14.85 33.75 -14.65 33.45 Q-14.5 33.1 -14.85 32.9 L-15.3 32.7 -16.3 32.1 -17.1 31.75 -18.6 30.9 -18.8 30.85 Q-18.95 30.85 -19.1 31.0 L-19.4 31.4 -19.95 32.5 -20.25 32.95 -20.45 33.45 -20.75 33.9 -22.7 37.7 M-23.6 37.25 L-23.25 36.55 -23.15 36.4 -23.05 36.2 -22.95 35.9 -22.45 35.1 -21.45 33.15 -21.35 33.0 -21.35 32.95 -21.25 32.8 -20.85 32.0 -20.65 31.7 -20.3 30.95 -19.7 30.15 Q-19.25 29.85 -18.8 29.85 L-18.15 30.05 -17.9 30.15 -17.75 30.25 -17.1 30.55 -16.8 30.75 -16.25 31.05 -16.1 31.1 -15.85 31.25 -15.7 31.3 -15.5 31.4 -14.85 31.8 -14.4 32.0 Q-13.85 32.3 -13.65 32.85 -13.5 33.4 -13.8 33.9 L-13.9 34.05 -14.2 34.75 -14.9 35.4 -15.25 35.5 Q-15.0 36.15 -15.3 36.75 L-15.55 37.1 -15.7 37.45 -15.85 37.7 -15.9 37.7 -15.9 37.75 -15.95 37.75 -16.85 38.4 Q-16.55 38.8 -16.55 39.25 -16.55 39.85 -16.85 40.15 L-16.85 40.25 -16.95 40.5 -16.95 40.55 -17.0 40.6 -17.15 40.85 Q-17.55 41.6 -18.3 41.6 L-19.05 41.45 -19.15 41.35 -19.2 41.35 -19.3 41.25 -20.0 40.9 -20.15 40.85 -20.2 40.8 -20.35 40.7 Q-21.05 40.35 -21.8 39.95 L-21.85 39.95 -22.6 39.5 -22.95 39.35 -23.7 38.55 Q-23.95 37.85 -23.6 37.25" fill="#b07f00" fill-rule="evenodd" stroke="none"/>
    <path d="M-8.6 36.2 Q-8.2 36.9 -8.1 37.65 L-8.0 38.4 -8.15 39.35 -8.25 39.6 -8.35 40.05 -8.7 40.7 -9.0 41.2 -9.15 41.35 -9.3 41.55 -9.8 42.0 -10.55 42.45 -11.25 42.65 -11.6 42.65 -11.9 42.7 -12.35 42.65 -14.2 42.2 -14.25 42.2 -15.65 41.75 -16.05 41.55 -16.25 41.1 -16.1 40.75 -15.25 38.0 -15.15 37.45 -15.0 37.15 -14.1 34.15 Q-14.0 33.65 -13.65 33.6 L-10.9 34.4 -10.7 34.5 -10.55 34.55 -10.05 34.8 -9.95 34.9 -9.7 35.05 -9.55 35.2 -9.25 35.4 -9.1 35.55 -8.6 36.2 M-10.7 36.8 Q-11.05 36.45 -11.7 36.3 L-12.05 36.2 -12.3 36.25 -12.8 36.75 -13.25 38.1 -13.65 39.7 Q-13.85 40.35 -12.65 40.7 L-12.35 40.8 -11.5 40.75 -10.55 40.0 -10.15 39.25 -10.0 38.4 -10.0 38.15 -10.15 37.7 -10.4 37.2 -10.7 36.8" fill="#ffd245" fill-rule="evenodd" stroke="none"/>
    <path d="M-11.1 37.9 L-11.25 37.75 -11.4 37.5 -11.9 37.25 -11.95 37.45 -12.0 37.55 -12.65 39.65 -12.35 39.75 -12.25 39.8 -11.75 39.8 -11.1 39.0 -11.05 38.65 -11.05 38.55 -11.0 38.3 -11.0 38.25 -11.05 38.15 -11.1 37.9 M-10.7 36.8 L-10.4 37.2 -10.15 37.7 -10.0 38.15 -10.0 38.4 -10.15 39.25 -10.55 40.0 -11.5 40.75 -12.35 40.8 -12.65 40.7 Q-13.85 40.35 -13.65 39.7 L-13.25 38.1 -12.8 36.75 -12.3 36.25 -12.15 36.2 -12.05 36.2 -11.7 36.3 Q-11.05 36.45 -10.7 36.8 M-9.1 35.55 L-9.25 35.4 -9.55 35.2 -9.7 35.05 -9.95 34.9 -10.05 34.8 -10.55 34.55 -10.7 34.5 -10.9 34.4 -13.65 33.6 Q-14.0 33.65 -14.1 34.15 L-15.0 37.15 -15.15 37.45 -15.25 38.0 -16.1 40.75 -16.25 41.1 -16.05 41.55 -15.65 41.75 -14.25 42.2 -14.2 42.2 -12.35 42.65 -11.95 42.7 -11.9 42.7 -11.6 42.65 -11.25 42.65 -10.55 42.45 -9.8 42.0 -9.3 41.55 -9.15 41.35 -9.0 41.2 -8.7 40.7 -8.35 40.05 -8.25 39.6 -8.15 39.35 -8.0 38.4 -8.1 37.65 Q-8.2 36.9 -8.6 36.2 L-9.1 35.55 M-11.7 33.15 L-11.05 33.3 -10.8 33.4 -10.6 33.45 -10.4 33.55 -10.35 33.55 -10.25 33.6 Q-9.9 33.65 -9.45 33.95 L-9.4 34.05 -9.35 34.05 -9.05 34.25 -8.9 34.4 -8.75 34.5 -8.55 34.7 -8.45 34.75 -8.45 34.8 -8.4 34.8 -7.8 35.55 Q-7.2 36.5 -7.1 37.45 L-7.0 38.45 -7.2 39.65 -7.25 39.8 -7.3 39.9 -7.4 40.35 -7.8 41.15 -8.2 41.8 -8.4 42.0 -8.4 42.05 -8.55 42.2 -8.55 42.25 -8.6 42.3 -8.85 42.5 -8.9 42.5 -8.95 42.6 -9.1 42.75 -9.15 42.75 -9.15 42.8 -10.1 43.35 -11.1 43.65 -11.65 43.65 -11.8 43.7 -11.95 43.7 -12.25 43.65 -12.4 43.65 -14.55 43.15 -15.9 42.7 Q-17.5 42.2 -17.2 40.8 L-17.05 40.45 -16.7 39.15 -16.65 39.05 -16.0 36.95 -15.95 36.85 -15.45 35.15 -15.35 34.95 -15.3 34.65 -15.05 33.85 Q-14.7 32.7 -13.75 32.6 L-13.65 32.6 Q-13.15 32.6 -12.3 32.95 L-12.2 33.0 -12.0 33.05 -11.9 33.05 -11.7 33.15" fill="#b07f00" fill-rule="evenodd" stroke="none"/>
    <path d="M-2.35 36.9 L-2.3 37.4 -2.2 37.8 -2.15 38.25 -2.15 38.5 -2.1 38.65 -1.9 40.4 -1.9 40.75 -1.85 40.95 -1.8 41.8 -1.65 42.6 -1.65 42.85 -1.45 44.05 -1.45 44.4 -2.0 44.55 -2.65 44.55 -3.35 44.35 -3.6 43.9 -3.65 43.6 -3.7 43.45 -4.0 43.05 -5.1 42.85 -5.5 42.9 -6.0 43.05 -6.35 43.75 -6.5 43.95 -6.95 44.0 -7.85 43.9 -8.25 43.8 -8.4 43.45 -8.3 43.15 -8.2 43.0 -8.1 42.5 -7.0 39.2 -6.85 38.95 -6.85 38.8 -6.4 37.5 -6.25 37.25 -6.15 36.95 Q-5.85 35.7 -5.05 35.75 L-4.75 35.8 -3.5 35.9 Q-3.0 35.9 -2.65 36.25 -2.4 36.45 -2.35 36.9 M-5.15 39.8 L-5.2 40.05 -5.35 40.45 Q-5.4 41.0 -4.65 41.1 L-4.1 41.1 -3.8 40.85 -3.85 39.9 -3.95 39.55 -3.95 39.15 -4.1 38.45 -4.3 38.15 -4.55 38.25 -4.9 39.0 -4.95 39.3 -5.15 39.8" fill="#ffd245" fill-rule="evenodd" stroke="none"/>
    <path d="M-5.15 39.8 L-4.95 39.3 -4.9 39.0 -4.55 38.25 -4.35 38.15 -4.3 38.15 -4.1 38.45 -3.95 39.15 -3.95 39.55 -3.85 39.9 -3.8 40.85 -4.1 41.1 -4.65 41.1 Q-5.4 41.0 -5.35 40.45 L-5.2 40.05 -5.15 39.8 M-2.35 36.9 Q-2.4 36.45 -2.65 36.25 -3.0 35.9 -3.45 35.9 L-3.5 35.9 -4.75 35.8 -5.05 35.75 -5.2 35.75 Q-5.85 35.75 -6.15 36.95 L-6.25 37.25 -6.4 37.5 -6.85 38.8 -6.85 38.95 -7.0 39.2 -8.1 42.5 -8.2 43.0 -8.3 43.15 -8.4 43.45 -8.25 43.8 -7.5 43.95 -6.95 44.0 -6.7 44.05 -6.5 43.95 -6.35 43.75 -6.0 43.05 -5.5 42.9 -5.2 42.85 -5.1 42.85 -4.0 43.05 -3.7 43.45 -3.65 43.6 -3.6 43.9 -3.35 44.35 -2.65 44.55 -2.0 44.55 -1.75 44.6 -1.45 44.4 -1.45 44.05 -1.65 42.85 -1.65 42.6 -1.8 41.8 -1.85 40.95 -1.9 40.75 -1.9 40.4 -2.1 38.65 -2.15 38.5 -2.15 38.25 -2.2 37.8 -2.3 37.4 -2.35 36.9 M-7.3 37.1 L-7.2 36.9 -7.2 36.85 -7.15 36.8 -7.15 36.7 Q-6.65 34.75 -5.2 34.75 L-4.95 34.75 -3.55 34.9 -3.45 34.9 Q-2.65 34.9 -1.95 35.5 -1.5 35.95 -1.4 36.7 L-1.35 37.05 -1.3 37.25 -1.3 37.35 -1.2 37.65 -1.2 37.7 -1.15 38.2 -1.15 38.55 -1.05 39.3 -1.05 39.4 -1.0 39.55 -0.9 40.4 -0.9 40.75 -0.85 40.8 -0.85 41.05 -0.8 41.35 -0.8 41.65 -0.75 41.85 -0.65 42.65 -0.7 42.65 -0.55 43.45 -0.55 43.65 -0.45 44.0 -0.5 44.5 Q-0.6 45.6 -1.75 45.6 L-2.1 45.55 -2.35 45.55 -2.8 45.5 Q-4.25 45.4 -4.55 44.1 L-4.6 43.95 -5.2 43.85 -5.35 43.9 -5.4 43.95 -5.9 44.75 -6.7 45.05 -7.4 44.95 -7.7 44.95 -8.0 44.9 -8.85 44.6 -8.8 44.65 Q-9.5 44.15 -9.4 43.35 L-9.2 42.7 -9.15 42.65 -9.15 42.5 -9.1 42.35 -9.05 42.25 -8.9 41.8 -8.8 41.3 -8.75 41.3 -8.75 41.25 -8.5 40.5 -8.4 40.3 -8.4 40.25 -8.25 39.75 -7.8 38.65 -7.9 38.75 -7.8 38.6 -7.8 38.5 -7.45 37.45 -7.45 37.5 -7.4 37.4 -7.3 37.1" fill="#b07f00" fill-rule="evenodd" stroke="none"/>
    <path d="M1.85 36.5 L1.85 38.05 1.95 39.1 2.1 42.0 Q2.2 42.45 2.45 42.5 L4.25 42.45 4.6 42.4 Q5.0 42.4 5.0 42.75 L5.0 43.05 4.95 43.45 5.05 43.95 Q5.05 44.4 4.55 44.4 L2.7 44.45 2.3 44.5 2.0 44.5 1.7 44.55 0.65 44.6 Q0.15 44.6 0.15 44.0 L0.1 42.05 0.0 41.15 -0.05 39.05 -0.15 38.35 -0.15 38.0 -0.2 37.7 -0.2 37.0 -0.25 36.6 Q-0.25 36.2 0.1 36.2 L0.85 36.15 1.15 36.1 1.4 36.1 Q1.85 36.1 1.85 36.5" fill="#ffd245" fill-rule="evenodd" stroke="none"/>
    <path d="M1.05 35.1 L1.45 35.1 Q2.0 35.1 2.4 35.5 2.8 35.85 2.85 36.45 L2.9 38.65 2.9 38.8 2.95 39.05 3.0 41.05 3.05 41.5 3.25 41.5 3.45 41.45 4.25 41.45 4.55 41.4 4.65 41.4 Q5.95 41.4 6.0 42.75 L6.0 43.35 5.95 43.4 6.0 43.5 6.05 43.9 5.7 44.95 Q5.25 45.4 4.6 45.4 L4.1 45.4 3.8 45.45 2.75 45.45 2.6 45.5 2.0 45.5 1.75 45.55 1.05 45.55 0.7 45.6 0.65 45.6 Q0.1 45.6 -0.35 45.2 -0.8 44.8 -0.85 44.05 L-1.0 41.2 -1.0 40.05 -1.05 39.85 -1.05 39.1 -1.15 38.4 -1.15 37.75 -1.2 37.45 -1.2 36.95 -1.25 36.65 Q-1.25 36.0 -0.85 35.6 -0.45 35.2 0.05 35.2 L0.95 35.15 1.05 35.1 M1.45 36.1 L1.15 36.1 0.85 36.15 0.1 36.2 Q-0.25 36.2 -0.25 36.6 L-0.2 37.0 -0.2 37.7 -0.15 38.0 -0.15 38.35 -0.05 39.05 0.0 41.15 0.15 44.0 Q0.15 44.6 0.65 44.6 L1.2 44.55 1.7 44.55 2.0 44.5 2.3 44.5 2.7 44.45 4.55 44.4 Q5.05 44.4 5.05 43.95 L4.95 43.45 5.0 43.05 5.0 42.75 Q5.0 42.4 4.65 42.4 L4.6 42.4 4.25 42.45 2.45 42.5 Q2.2 42.45 2.1 42.0 L1.85 38.05 1.85 36.5 Q1.85 36.1 1.45 36.1" fill="#b07f00" fill-rule="evenodd" stroke="none"/>
    <path d="M7.4 36.65 L7.5 37.0 7.7 38.05 7.8 38.4 8.35 41.25 8.75 41.7 10.55 41.35 10.9 41.25 Q11.2 41.2 11.35 41.55 L11.4 41.85 11.4 42.25 11.55 42.7 Q11.65 43.15 11.15 43.25 L9.3 43.6 8.95 43.7 7.35 44.0 Q6.75 44.1 6.75 43.5 L6.65 42.8 6.25 41.1 6.2 40.7 5.6 38.0 5.55 37.6 5.45 37.35 5.25 36.25 Q5.05 35.85 5.5 35.8 L6.25 35.65 6.55 35.55 6.8 35.5 Q7.2 35.4 7.3 35.85 L7.4 36.65" fill="#ffd245" fill-rule="evenodd" stroke="none"/>
    <path d="M6.8 35.5 L6.55 35.55 6.25 35.65 5.5 35.8 Q5.05 35.85 5.25 36.25 L5.35 36.65 5.45 37.35 5.55 37.6 5.6 38.0 6.2 40.7 6.25 41.1 6.65 42.8 6.75 43.5 Q6.75 44.05 7.2 44.05 L7.35 44.0 9.3 43.6 11.15 43.25 Q11.65 43.15 11.55 42.7 L11.4 42.25 11.4 41.85 11.35 41.55 11.0 41.25 10.9 41.25 8.8 41.7 8.75 41.7 8.35 41.25 7.8 38.4 7.7 38.05 7.5 37.0 7.4 36.65 7.3 35.85 Q7.25 35.5 6.9 35.5 L6.8 35.5 M8.35 36.15 L8.35 36.25 8.4 36.35 8.4 36.45 8.45 36.65 8.45 36.85 8.5 36.9 8.5 37.15 8.65 37.85 8.7 37.95 8.75 38.2 8.8 38.35 9.05 39.65 9.1 40.15 9.25 40.6 9.3 40.6 9.6 40.5 10.15 40.4 10.3 40.4 10.45 40.35 11.0 40.25 Q12.1 40.25 12.3 41.35 L12.4 41.75 12.35 41.65 12.4 41.95 12.4 42.05 12.55 42.5 Q12.65 43.15 12.35 43.6 12.0 44.1 11.35 44.2 L10.85 44.3 10.55 44.4 9.5 44.55 8.95 44.7 8.9 44.7 8.3 44.85 8.05 44.85 7.55 45.0 7.2 45.05 Q6.0 45.05 5.75 43.7 L5.65 43.0 5.3 41.45 5.3 41.4 5.0 39.9 5.0 39.8 4.95 39.7 4.75 38.6 4.6 38.2 4.6 37.95 4.55 37.8 4.4 37.2 4.4 37.0 4.35 36.9 4.25 36.45 Q4.15 35.8 4.45 35.35 4.75 34.9 5.3 34.8 L6.05 34.65 6.2 34.6 6.35 34.6 6.4 34.55 6.6 34.55 6.9 34.5 Q8.1 34.5 8.25 35.65 L8.35 36.15" fill="#b07f00" fill-rule="evenodd" stroke="none"/>
    <path d="M12.55 34.1 L12.8 34.4 15.25 41.6 15.0 42.05 14.7 42.1 14.25 42.3 13.95 42.35 13.7 42.45 Q13.4 42.6 13.25 42.3 L13.15 42.05 12.95 41.3 12.5 40.0 12.45 39.8 12.3 39.5 11.45 36.75 11.25 36.25 11.15 35.85 10.85 35.1 Q10.7 34.55 11.0 34.5 L11.2 34.45 12.3 34.05 12.55 34.1" fill="#ffd245" fill-rule="evenodd" stroke="none"/>
    <path d="M12.4 34.05 L12.3 34.05 11.2 34.45 11.0 34.5 Q10.7 34.55 10.85 35.1 L11.15 35.85 11.25 36.25 11.45 36.75 12.3 39.5 12.45 39.8 12.5 40.0 12.95 41.3 13.15 42.05 13.25 42.3 13.6 42.5 Q13.8 42.45 13.95 42.35 L14.25 42.3 14.7 42.1 15.0 42.05 15.25 41.6 12.8 34.4 12.55 34.1 12.4 34.05 M10.55 33.6 L10.6 33.55 10.65 33.55 10.8 33.5 10.9 33.5 11.1 33.4 11.7 33.2 11.8 33.15 11.95 33.1 12.4 33.05 13.1 33.25 Q13.6 33.55 13.75 34.1 L14.3 35.8 14.5 36.25 14.55 36.5 15.45 39.15 15.45 39.2 15.5 39.25 15.6 39.65 16.0 40.85 16.2 41.25 16.15 42.3 15.3 43.0 15.1 43.05 15.0 43.05 14.85 43.1 14.6 43.25 14.35 43.3 14.25 43.3 14.05 43.4 13.6 43.5 Q12.85 43.5 12.4 42.85 L12.2 42.4 12.1 41.95 11.55 40.3 11.5 40.1 11.35 39.85 11.1 38.9 10.95 38.55 10.55 37.35 10.5 37.1 10.4 36.9 10.2 36.3 10.2 36.15 9.9 35.4 Q9.75 34.85 9.9 34.35 10.05 33.8 10.55 33.6" fill="#b07f00" fill-rule="evenodd" stroke="none"/>
    <path d="M15.75 32.85 L15.95 32.55 16.8 31.95 18.05 31.55 19.0 31.55 19.8 31.75 20.3 31.9 20.75 32.15 20.95 32.35 21.4 32.65 21.7 33.0 22.5 34.3 22.75 35.05 22.9 35.9 22.85 36.9 22.55 37.9 22.3 38.2 22.15 38.45 21.7 39.0 20.95 39.55 20.35 39.85 20.05 39.9 19.75 40.0 19.5 40.05 19.15 40.05 18.85 40.1 18.45 40.0 17.25 39.65 16.65 39.35 16.35 39.15 15.8 38.5 15.15 37.45 14.8 36.1 14.75 35.55 14.8 35.3 14.8 34.75 14.95 34.1 15.1 33.8 15.2 33.5 15.55 33.0 15.75 32.85 M17.4 34.0 L17.05 34.4 16.75 35.0 16.7 35.7 16.8 36.2 16.95 36.55 16.95 36.65 17.2 37.05 18.0 37.85 18.95 38.15 19.2 38.1 19.35 38.05 19.45 38.05 19.75 37.9 19.95 37.85 20.25 37.65 20.75 37.0 20.9 36.15 20.8 35.45 20.45 34.7 20.35 34.55 20.25 34.35 19.65 33.85 18.95 33.55 18.2 33.6 17.65 33.85 17.4 34.0" fill="#ffd245" fill-rule="evenodd" stroke="none"/>
    <path d="M17.9 34.85 L17.9 34.9 17.75 35.15 17.75 35.25 17.7 35.25 17.7 35.7 17.8 35.9 17.8 36.05 17.85 36.15 18.05 36.45 18.05 36.5 18.55 37.0 18.9 37.1 19.15 37.1 19.2 37.05 19.3 37.05 19.45 36.95 19.5 36.95 19.65 36.9 19.8 36.55 19.9 36.15 19.9 36.0 19.8 35.7 19.75 35.45 19.65 35.35 19.55 35.15 19.5 35.0 19.2 34.75 18.9 34.6 18.75 34.55 18.4 34.55 18.0 34.75 17.95 34.85 17.9 34.85 M17.4 34.0 L17.65 33.85 18.2 33.6 18.75 33.55 18.95 33.55 19.65 33.85 20.25 34.35 20.35 34.55 20.45 34.7 20.8 35.45 20.9 36.15 20.75 37.0 20.25 37.65 19.95 37.85 19.75 37.9 19.45 38.05 19.35 38.05 19.2 38.1 18.95 38.15 18.0 37.85 17.2 37.05 16.95 36.65 16.95 36.55 16.8 36.2 16.7 35.7 16.75 35.0 17.05 34.4 17.4 34.0 M15.75 32.85 L15.55 33.0 15.2 33.5 15.1 33.8 14.95 34.1 14.8 34.75 14.8 35.3 14.75 35.55 14.8 36.1 15.15 37.45 15.8 38.5 16.35 39.15 16.65 39.35 17.25 39.65 18.45 40.0 18.85 40.1 18.9 40.1 19.15 40.05 19.5 40.05 19.75 40.0 20.05 39.9 20.35 39.85 20.95 39.55 21.7 39.0 22.15 38.45 22.3 38.2 22.55 37.9 22.85 36.9 22.9 35.9 22.75 35.05 22.5 34.3 21.7 33.0 21.4 32.65 20.95 32.35 20.75 32.15 20.3 31.9 19.8 31.75 19.0 31.55 18.05 31.55 16.8 31.95 15.95 32.55 15.75 32.85 M17.9 30.6 L17.95 30.55 19.0 30.55 20.1 30.75 20.4 30.9 20.45 30.95 20.65 30.95 20.7 31.0 22.0 31.9 22.45 32.4 23.4 33.8 23.7 34.85 23.75 34.95 23.9 35.75 23.85 37.0 23.4 38.4 22.95 39.05 23.05 38.95 22.35 39.75 22.15 39.9 22.05 39.95 22.05 40.0 22.0 40.0 21.85 40.15 20.65 40.75 19.55 41.05 19.3 41.05 18.9 41.1 18.75 41.1 18.35 41.05 18.25 41.0 16.8 40.55 16.15 40.2 16.1 40.15 16.05 40.15 16.05 40.1 15.95 40.1 15.75 39.95 15.75 39.9 15.0 39.1 15.0 39.05 14.95 39.05 14.3 37.9 14.05 37.3 13.8 36.2 13.8 35.45 13.75 35.55 13.8 35.25 13.8 34.6 13.85 34.6 13.9 34.25 13.9 34.2 13.95 34.1 14.0 33.8 14.2 33.4 14.2 33.3 14.3 33.1 14.8 32.4 14.95 32.2 15.0 32.15 15.05 32.05 15.25 31.85 16.35 31.05 16.9 30.85 17.1 30.8 17.9 30.6" fill="#b07f00" fill-rule="evenodd" stroke="none"/>
    <path d="M24.85 27.35 L24.6 27.1 24.6 26.75 25.05 26.35 25.25 26.25 25.4 26.1 25.6 25.95 25.75 25.8 Q25.95 25.6 26.25 25.9 L28.3 28.55 28.75 29.0 30.05 30.55 30.25 30.85 31.1 31.75 Q31.3 32.1 31.0 32.35 L30.85 32.45 30.7 32.6 30.35 32.85 30.15 33.05 29.4 33.0 26.45 32.05 25.05 31.55 24.8 31.6 24.8 31.85 25.6 32.85 25.8 33.05 25.95 33.3 27.35 34.8 27.35 35.3 27.15 35.4 26.9 35.7 26.7 35.85 26.4 36.15 26.1 36.3 25.8 36.15 24.55 34.65 23.75 33.7 23.2 32.95 21.55 31.1 21.3 30.7 21.2 30.6 20.9 30.35 20.75 30.1 20.8 29.8 21.05 29.7 21.1 29.65 21.15 29.55 21.25 29.5 21.3 29.45 21.35 29.45 21.6 29.2 21.9 29.0 22.0 28.95 22.2 28.8 22.5 28.8 23.75 29.2 23.9 29.2 24.1 29.3 24.75 29.5 25.35 29.7 26.9 30.3 27.25 30.4 27.0 29.9 26.8 29.65 26.65 29.5 25.8 28.45 25.4 28.05 24.85 27.35" fill="#ffd245" fill-rule="evenodd" stroke="none"/>
    <path d="M25.9 25.75 L25.75 25.8 25.6 25.95 25.4 26.1 25.25 26.25 25.05 26.35 24.6 26.75 24.6 27.1 24.85 27.35 25.4 28.05 25.8 28.45 26.65 29.5 26.8 29.65 27.0 29.9 27.25 30.4 27.2 30.4 25.35 29.7 24.75 29.5 24.1 29.3 23.9 29.2 23.75 29.2 22.5 28.8 22.2 28.8 22.0 28.95 21.9 29.0 21.6 29.2 21.35 29.45 21.3 29.45 21.25 29.5 21.15 29.55 21.1 29.65 21.05 29.7 20.8 29.8 20.75 30.1 20.9 30.35 21.2 30.6 21.3 30.7 21.55 31.1 23.2 32.95 23.75 33.7 25.8 36.15 26.05 36.3 26.1 36.3 26.4 36.15 26.7 35.85 26.9 35.7 27.15 35.4 27.35 35.3 27.35 34.8 25.95 33.3 25.8 33.05 25.6 32.85 24.8 31.85 24.8 31.6 25.05 31.55 26.45 32.05 27.4 32.3 29.4 33.0 29.85 33.15 30.15 33.05 30.35 32.85 30.7 32.6 30.85 32.45 31.0 32.35 Q31.3 32.1 31.1 31.75 L30.25 30.85 30.05 30.55 28.75 29.0 28.3 28.55 26.25 25.9 25.9 25.75 M21.55 28.05 L21.85 27.9 22.4 27.8 22.65 27.8 24.3 28.3 24.35 28.3 24.2 28.15 24.1 28.0 23.85 27.75 Q23.3 27.1 23.7 26.3 L23.7 26.25 24.45 25.55 24.65 25.4 24.75 25.35 25.1 25.0 Q25.45 24.75 25.9 24.75 26.6 24.75 27.05 25.3 L27.25 25.55 27.35 25.75 27.75 26.15 28.5 27.1 29.25 28.1 29.5 28.3 29.9 28.85 30.1 29.05 30.95 30.1 30.95 30.15 31.0 30.15 31.0 30.25 31.1 30.3 31.25 30.45 31.45 30.7 31.85 31.1 32.2 32.1 Q32.1 32.7 31.65 33.1 L31.45 33.25 31.3 33.4 31.1 33.55 31.0 33.6 30.95 33.65 30.75 33.8 Q30.4 34.15 29.85 34.15 L29.0 33.9 28.75 33.85 28.65 33.8 27.35 33.35 27.4 33.4 27.65 33.7 28.1 34.15 28.4 35.1 28.1 35.9 27.8 36.2 27.7 36.35 27.05 36.95 26.2 37.3 26.05 37.3 Q25.4 37.3 25.05 36.8 L24.6 36.3 24.4 36.0 24.2 35.8 24.15 35.7 23.95 35.5 23.55 35.0 23.45 34.85 22.4 33.6 22.4 33.55 22.35 33.55 22.25 33.35 21.8 32.9 21.8 32.85 21.75 32.85 21.3 32.25 20.7 31.6 20.65 31.5 20.5 31.35 20.45 31.25 20.35 31.2 20.15 30.95 19.85 30.5 Q19.45 29.65 20.2 29.05 L20.55 28.8 20.7 28.65 20.75 28.65 20.75 28.6 20.85 28.55 21.0 28.4 Q21.5 28.05 21.55 28.05" fill="#b07f00" fill-rule="evenodd" stroke="none"/>
    <path d="M-31.8 -17.05 L-32.35 -16.95 -32.7 -17.0 -32.85 -17.0 -33.35 -16.85 -33.95 -15.8 -34.05 -15.4 -34.1 -14.8 -33.5 -14.2 -33.3 -13.95 -33.4 -13.5 -33.8 -12.6 -34.05 -12.25 -34.5 -12.2 -34.75 -12.4 -34.9 -12.55 -35.35 -12.85 -35.7 -13.15 -36.2 -13.45 -36.85 -13.95 -37.1 -14.2 -37.6 -14.5 -38.55 -15.35 -38.7 -15.4 -39.9 -16.3 -40.1 -16.55 -40.4 -16.75 Q-41.05 -17.2 -41.2 -17.5 -41.4 -17.85 -41.2 -18.3 L-40.5 -19.8 -39.9 -20.6 -39.1 -20.65 -37.65 -20.4 -37.4 -20.3 -37.2 -20.3 -35.05 -19.8 -34.8 -19.8 -34.3 -19.7 -33.9 -19.55 -33.0 -19.4 -32.75 -19.3 -32.0 -19.2 -31.7 -19.1 -31.45 -19.1 -31.1 -18.95 Q-30.9 -18.85 -31.1 -18.35 L-31.4 -17.7 -31.8 -17.05 M-36.5 -16.4 Q-35.95 -16.1 -35.6 -16.85 L-35.4 -17.45 -35.6 -17.8 -35.7 -17.85 -36.55 -18.1 -38.1 -18.35 -38.5 -18.2 -38.45 -17.95 -37.85 -17.35 -37.3 -17.0 -37.1 -16.8 -36.5 -16.4" fill="#ffd245" fill-rule="evenodd" stroke="none"/>
    <path d="M-35.4 -17.45 L-35.6 -16.85 Q-35.85 -16.3 -36.25 -16.3 L-36.5 -16.4 -37.1 -16.8 -37.3 -17.0 -37.85 -17.35 -38.45 -17.95 -38.5 -18.2 -38.2 -18.4 -38.1 -18.35 -36.55 -18.1 -35.7 -17.85 -35.6 -17.8 -35.4 -17.45 M-31.1 -18.35 Q-30.9 -18.85 -31.1 -18.95 L-31.45 -19.1 -31.7 -19.1 -32.0 -19.2 -32.75 -19.3 -33.0 -19.4 -33.9 -19.55 -34.3 -19.7 -34.8 -19.8 -35.05 -19.8 -37.2 -20.3 -37.4 -20.3 -37.65 -20.4 -39.5 -20.7 -39.9 -20.6 -40.5 -19.8 -41.2 -18.3 Q-41.4 -17.85 -41.2 -17.5 -41.05 -17.2 -40.4 -16.75 L-40.1 -16.55 -39.9 -16.3 -38.7 -15.4 -38.55 -15.35 -37.6 -14.5 -37.1 -14.2 -36.85 -13.95 -36.2 -13.45 -35.7 -13.15 -35.35 -12.85 -34.9 -12.55 -34.75 -12.4 -34.5 -12.2 -34.3 -12.2 -34.05 -12.25 -33.8 -12.6 -33.4 -13.5 -33.3 -13.95 -33.5 -14.2 -34.1 -14.8 -34.05 -15.4 -33.95 -15.8 -33.35 -16.85 -32.95 -17.0 -32.7 -17.0 -32.35 -16.95 -32.15 -16.95 Q-31.75 -16.95 -31.4 -17.7 L-31.1 -18.35 M-39.5 -21.7 L-38.65 -21.6 -38.4 -21.55 -38.25 -21.55 -37.95 -21.5 -37.9 -21.5 -37.35 -21.35 -37.25 -21.3 -37.0 -21.3 -36.2 -21.1 -36.1 -21.1 -35.1 -20.9 -35.1 -20.85 -35.05 -20.85 -34.9 -20.8 -34.85 -20.8 -34.65 -20.75 -34.5 -20.75 -34.35 -20.7 -34.05 -20.65 -33.75 -20.55 -33.7 -20.55 -31.8 -20.15 -31.65 -20.15 -31.6 -20.1 -31.2 -20.05 -31.25 -20.1 -30.7 -19.9 Q-30.2 -19.65 -30.05 -19.2 -29.9 -18.75 -30.2 -17.95 L-30.5 -17.25 Q-31.15 -15.95 -32.15 -15.95 L-32.45 -16.0 -32.7 -16.0 -32.85 -15.75 -33.1 -15.15 -33.0 -15.05 Q-32.5 -14.8 -32.35 -14.3 -32.15 -13.7 -32.5 -13.05 L-32.8 -12.45 -32.9 -12.15 Q-33.15 -11.6 -33.5 -11.4 L-34.3 -11.2 -34.9 -11.3 -35.5 -11.75 -35.55 -11.8 -35.65 -11.85 -35.8 -11.95 -35.9 -12.0 -36.15 -12.25 -36.3 -12.35 -36.75 -12.6 -36.8 -12.65 -37.5 -13.2 -37.7 -13.4 -37.9 -13.5 -38.15 -13.7 -39.05 -14.4 -39.15 -14.55 -39.3 -14.6 -40.2 -15.3 -40.25 -15.3 -40.3 -15.35 -40.55 -15.55 -40.7 -15.75 -40.75 -15.8 -40.8 -15.8 -40.8 -15.85 -40.95 -15.9 Q-42.8 -17.25 -42.1 -18.75 L-41.9 -19.1 -41.45 -20.15 Q-41.15 -21.05 -40.35 -21.5 L-39.5 -21.7" fill="#b07f00" fill-rule="evenodd" stroke="none"/>
    <path d="M-34.55 -27.65 L-34.0 -27.25 -33.85 -26.95 -33.95 -26.6 -34.15 -26.45 -34.75 -25.75 -34.9 -25.35 -34.65 -24.85 -34.05 -24.7 -33.15 -25.0 -32.95 -25.0 -32.8 -25.1 -31.4 -25.3 Q-30.5 -25.2 -29.8 -24.7 L-29.25 -24.2 -28.9 -23.65 -28.8 -23.2 -28.7 -22.35 -28.95 -21.25 -29.35 -20.6 -29.9 -19.95 -30.55 -19.35 -30.95 -19.35 -31.2 -19.6 -31.5 -19.75 -31.9 -20.1 -32.15 -20.25 Q-32.4 -20.45 -32.0 -20.95 L-31.65 -21.35 -31.45 -21.45 -31.1 -21.95 Q-30.95 -22.1 -30.95 -22.35 -30.85 -22.7 -31.25 -22.95 L-31.55 -23.05 -32.1 -23.05 -32.5 -22.95 Q-32.65 -22.85 -32.85 -22.8 L-34.0 -22.55 -34.55 -22.5 -35.3 -22.65 Q-35.8 -22.8 -36.15 -23.05 L-36.75 -23.65 Q-37.15 -24.2 -37.15 -24.65 -37.2 -25.5 -36.85 -26.05 L-36.35 -26.9 -35.45 -27.85 -35.05 -28.0 -34.8 -27.8 -34.55 -27.65" fill="#ffd245" fill-rule="evenodd" stroke="none"/>
    <path d="M-34.8 -27.8 L-35.05 -28.0 -35.15 -28.0 -35.45 -27.85 -36.35 -26.9 -36.85 -26.05 Q-37.2 -25.5 -37.15 -24.65 -37.15 -24.2 -36.75 -23.65 L-36.15 -23.05 Q-35.8 -22.8 -35.3 -22.65 L-34.55 -22.5 -34.45 -22.5 -34.0 -22.55 -32.85 -22.8 Q-32.65 -22.85 -32.5 -22.95 L-31.75 -23.1 -31.55 -23.05 -31.25 -22.95 Q-30.85 -22.7 -30.95 -22.35 -30.95 -22.1 -31.1 -21.95 L-31.45 -21.45 -31.65 -21.35 -32.0 -20.95 Q-32.4 -20.45 -32.15 -20.25 L-31.9 -20.1 -31.5 -19.75 -31.2 -19.6 -30.95 -19.35 -30.75 -19.3 -30.55 -19.35 -29.9 -19.95 -29.35 -20.6 -28.95 -21.25 -28.7 -22.35 -28.8 -23.2 -28.9 -23.65 -29.25 -24.2 -29.8 -24.7 Q-30.5 -25.2 -31.4 -25.3 L-31.5 -25.3 -32.8 -25.1 -32.95 -25.0 -33.15 -25.0 -34.05 -24.7 -34.1 -24.7 -34.65 -24.85 -34.9 -25.35 -34.75 -25.75 -34.15 -26.45 -33.95 -26.6 -33.85 -26.95 -34.0 -27.25 -34.55 -27.65 -34.8 -27.8 M-36.05 -28.65 Q-35.7 -29.0 -35.15 -29.0 L-34.65 -28.9 Q-34.45 -28.85 -34.2 -28.6 L-34.15 -28.55 -33.95 -28.45 -33.75 -28.3 -33.65 -28.2 -33.45 -28.1 Q-32.85 -27.65 -32.85 -26.95 -32.85 -26.5 -33.15 -26.0 L-32.6 -26.1 -32.55 -26.15 -32.15 -26.25 -31.5 -26.3 -31.3 -26.3 Q-30.25 -26.2 -29.2 -25.5 L-28.5 -24.85 -28.65 -25.0 -28.4 -24.7 -28.5 -24.85 -28.0 -24.0 -27.95 -23.9 -27.85 -23.65 -27.8 -23.45 Q-27.6 -22.65 -27.7 -22.1 L-27.7 -22.05 -28.05 -20.85 -28.05 -20.8 -28.5 -20.1 -28.55 -20.0 -28.6 -20.0 -29.15 -19.25 -30.1 -18.45 -30.75 -18.3 -31.55 -18.55 -31.7 -18.65 -31.9 -18.85 -32.1 -18.95 -32.35 -19.15 -32.45 -19.3 -32.5 -19.3 -32.75 -19.45 -33.25 -20.25 Q-33.35 -20.75 -32.85 -21.55 L-32.55 -21.85 -34.45 -21.5 -34.55 -21.5 -35.65 -21.7 Q-36.3 -21.95 -36.7 -22.25 L-37.6 -23.1 -38.15 -24.55 -38.0 -25.9 -37.75 -26.5 -37.15 -27.5 -36.05 -28.65" fill="#b07f00" fill-rule="evenodd" stroke="none"/>
    <path d="M-29.2 -34.2 L-28.45 -33.5 -28.35 -33.35 -28.2 -33.2 Q-28.0 -33.0 -28.15 -32.65 L-28.45 -32.3 -29.05 -31.5 -29.0 -31.2 -28.15 -30.2 -27.85 -29.95 -27.6 -29.65 -26.75 -28.85 -25.6 -27.7 -24.7 -26.75 Q-24.4 -26.45 -24.8 -26.05 L-25.1 -25.8 -25.3 -25.55 -25.6 -25.3 -25.75 -25.1 -26.2 -25.15 -26.4 -25.3 -29.05 -28.1 -30.0 -29.05 -30.4 -29.35 -30.5 -29.5 -30.65 -29.65 -31.05 -29.7 -31.8 -29.15 -31.95 -28.95 -32.1 -28.8 Q-32.45 -28.4 -32.85 -28.8 L-33.25 -29.2 -33.4 -29.4 -33.65 -29.6 Q-33.9 -29.85 -33.55 -30.3 L-32.05 -31.7 -31.65 -32.15 -31.4 -32.35 -31.2 -32.6 -31.0 -32.75 -30.8 -33.0 -30.5 -33.25 -30.35 -33.45 -29.95 -33.75 -29.7 -34.05 -29.5 -34.15 -29.2 -34.2" fill="#ffd245" fill-rule="evenodd" stroke="none"/>
    <path d="M-29.35 -34.2 L-29.5 -34.15 -29.7 -34.05 -29.95 -33.75 -30.35 -33.45 -30.5 -33.25 -30.8 -33.0 -31.0 -32.75 -31.2 -32.6 -31.4 -32.35 -31.65 -32.15 -32.05 -31.7 -33.55 -30.3 Q-33.9 -29.85 -33.65 -29.6 L-33.4 -29.4 -33.25 -29.2 -32.85 -28.8 -32.5 -28.65 Q-32.25 -28.65 -32.1 -28.8 L-31.95 -28.95 -31.8 -29.15 -31.05 -29.7 -30.95 -29.7 Q-30.5 -29.7 -30.5 -29.5 L-30.4 -29.35 -30.0 -29.05 -29.05 -28.1 -26.4 -25.3 -26.2 -25.15 -25.95 -25.05 -25.75 -25.1 -25.6 -25.3 -25.3 -25.55 -25.1 -25.8 -24.8 -26.05 Q-24.4 -26.45 -24.7 -26.75 L-26.75 -28.85 -27.6 -29.65 -27.85 -29.95 -28.15 -30.2 -29.0 -31.2 -29.05 -31.5 -28.45 -32.3 -28.15 -32.65 Q-28.0 -33.0 -28.2 -33.2 L-28.35 -33.35 -28.45 -33.5 -29.2 -34.2 -29.35 -34.2 M-31.3 -33.9 L-31.2 -33.95 -31.15 -34.0 -31.05 -34.15 -30.75 -34.35 -30.65 -34.45 -30.6 -34.55 -30.4 -34.75 -30.0 -35.05 -29.95 -35.1 -29.9 -35.1 -29.35 -35.2 -28.75 -35.05 -28.15 -34.55 -27.95 -34.4 -27.6 -34.05 -27.5 -33.9 Q-26.65 -33.15 -27.35 -32.1 L-27.35 -32.05 -27.75 -31.6 -27.95 -31.45 -27.35 -30.8 -27.15 -30.65 -26.95 -30.4 -25.95 -29.45 -25.7 -29.25 -25.45 -28.95 -25.35 -28.8 -24.35 -27.85 -24.3 -27.75 -24.2 -27.65 -23.95 -27.45 Q-23.55 -27.05 -23.55 -26.5 -23.55 -25.85 -24.1 -25.3 L-24.35 -25.05 -24.45 -25.0 -24.6 -24.85 -24.85 -24.65 -24.9 -24.6 -25.05 -24.4 Q-25.4 -24.05 -25.95 -24.05 L-26.65 -24.25 -27.15 -24.65 -27.2 -24.7 -27.4 -24.95 -29.15 -26.7 -29.25 -26.85 -30.5 -28.05 -30.95 -28.55 -31.15 -28.35 -31.4 -28.05 Q-31.9 -27.65 -32.5 -27.65 -33.15 -27.65 -33.55 -28.05 L-34.35 -28.9 Q-34.75 -29.4 -34.75 -29.9 L-34.25 -31.0 -34.0 -31.25 -33.8 -31.4 -32.3 -32.85 -32.2 -33.0 -32.15 -33.05 -32.05 -33.1 -31.9 -33.35 -31.75 -33.4 -31.7 -33.5 -31.3 -33.9" fill="#b07f00" fill-rule="evenodd" stroke="none"/>
    <path d="M-21.3 -37.85 L-20.85 -37.4 -20.7 -37.15 -20.4 -36.75 -19.9 -35.45 -20.0 -34.5 -20.0 -33.65 -19.6 -33.45 -18.8 -33.55 -18.6 -33.6 -18.2 -33.4 -17.55 -32.35 -17.4 -32.15 Q-17.2 -31.85 -17.6 -31.45 -17.9 -31.25 -18.35 -31.2 L-18.85 -31.25 -20.0 -31.45 -20.2 -31.5 -20.85 -31.5 -21.5 -31.35 -21.65 -31.2 -21.65 -30.85 -21.45 -30.35 -20.9 -29.75 Q-20.7 -29.45 -21.0 -29.25 L-21.7 -28.85 -21.9 -28.65 -22.3 -28.4 Q-22.55 -28.2 -22.9 -28.55 L-23.0 -28.85 -23.75 -29.95 -23.95 -30.35 -24.8 -31.5 -25.0 -31.85 -27.2 -35.15 Q-27.65 -35.85 -27.2 -36.15 L-26.9 -36.3 -26.65 -36.5 -25.8 -37.05 -25.4 -37.3 -25.0 -37.6 -24.3 -38.0 -23.65 -38.25 -23.0 -38.35 -22.3 -38.3 -21.65 -38.05 -21.3 -37.85 M-21.9 -34.75 Q-21.9 -35.2 -22.2 -35.7 -22.7 -36.35 -23.35 -36.1 L-23.85 -35.9 -24.3 -35.65 -24.5 -35.45 -24.55 -35.15 -24.4 -34.75 -24.0 -34.25 -23.7 -33.7 -23.25 -33.1 Q-23.05 -32.9 -22.85 -32.95 L-22.5 -33.1 -22.35 -33.25 -22.15 -33.5 -21.95 -33.9 -21.9 -34.15 -21.9 -34.75" fill="#ffd245" fill-rule="evenodd" stroke="none"/>
    <path d="M-22.9 -34.65 Q-22.9 -34.95 -23.05 -35.1 L-23.1 -35.15 -23.25 -35.1 -23.35 -35.05 -22.9 -34.3 -22.85 -34.4 -22.9 -34.65 M-21.9 -34.75 L-21.9 -34.15 -21.95 -33.9 -22.15 -33.5 -22.35 -33.25 -22.5 -33.1 -22.95 -32.9 -23.25 -33.1 -23.7 -33.7 -24.0 -34.25 -24.4 -34.75 -24.55 -35.15 -24.5 -35.45 -24.3 -35.65 -23.85 -35.9 -23.35 -36.1 -23.1 -36.15 Q-22.65 -36.15 -22.2 -35.7 -21.9 -35.2 -21.9 -34.75 M-20.85 -37.4 L-21.3 -37.85 -21.65 -38.05 -22.3 -38.3 -22.85 -38.35 -23.0 -38.35 -23.65 -38.25 -24.3 -38.0 -25.0 -37.6 -25.4 -37.3 -25.8 -37.05 -26.65 -36.5 -26.9 -36.3 -27.2 -36.15 Q-27.65 -35.85 -27.2 -35.15 L-25.35 -32.3 -25.0 -31.85 -24.8 -31.5 -23.95 -30.35 -23.75 -29.95 -23.0 -28.85 -22.9 -28.55 -22.5 -28.3 -22.3 -28.4 -21.9 -28.65 -21.7 -28.85 -21.0 -29.25 Q-20.7 -29.45 -20.9 -29.75 L-21.45 -30.35 -21.65 -30.85 -21.65 -31.2 -21.5 -31.35 -20.85 -31.5 -20.2 -31.5 -18.6 -31.2 -17.6 -31.45 Q-17.2 -31.85 -17.4 -32.15 L-17.55 -32.35 -18.2 -33.4 -18.55 -33.6 -18.6 -33.6 -18.8 -33.55 -19.45 -33.45 -19.6 -33.45 -20.0 -33.65 -20.0 -34.5 -19.9 -35.45 -20.4 -36.75 -20.7 -37.15 -20.85 -37.4 M-21.95 -39.25 L-21.65 -39.1 -21.3 -39.0 -20.0 -37.95 -19.9 -37.8 -19.85 -37.7 -19.55 -37.3 Q-19.1 -36.65 -18.9 -35.5 L-18.95 -34.5 -18.85 -34.55 -18.7 -34.6 -18.55 -34.6 Q-17.8 -34.6 -17.35 -33.95 L-17.25 -33.75 -17.25 -33.7 -17.15 -33.6 -17.05 -33.45 -17.0 -33.4 -16.7 -32.85 -16.55 -32.7 Q-16.25 -32.25 -16.35 -31.65 L-16.75 -30.9 -17.05 -30.65 Q-17.7 -30.2 -18.6 -30.2 L-20.2 -30.45 -20.05 -30.3 Q-19.75 -29.85 -19.85 -29.25 -19.9 -28.8 -20.4 -28.4 L-20.85 -28.2 -20.9 -28.2 -20.9 -28.15 -21.05 -28.05 -21.35 -27.8 -21.75 -27.55 Q-22.15 -27.3 -22.5 -27.3 -23.3 -27.3 -23.7 -28.0 L-23.9 -28.3 -23.9 -28.4 -24.0 -28.5 -24.1 -28.7 -24.3 -28.95 -24.6 -29.45 -24.75 -29.65 -24.8 -29.8 -24.95 -29.95 -25.35 -30.6 -25.6 -30.9 -25.95 -31.45 -26.2 -31.75 -26.85 -32.9 -27.45 -33.75 -27.7 -34.2 -27.85 -34.35 -28.0 -34.6 -28.4 -35.45 Q-28.65 -36.35 -27.75 -37.0 L-27.45 -37.15 -27.35 -37.25 -25.8 -38.25 -25.55 -38.45 -24.6 -38.95 -24.7 -38.95 -23.95 -39.2 -23.85 -39.25 -23.75 -39.25 -23.25 -39.3 -23.05 -39.35 -22.1 -39.3 -22.0 -39.25 -21.95 -39.25" fill="#b07f00" fill-rule="evenodd" stroke="none"/>
    <path d="M-11.55 -41.3 L-11.15 -40.9 -10.85 -40.5 -10.15 -39.05 -9.9 -37.25 -10.1 -36.2 -10.55 -35.15 -10.85 -34.85 -11.05 -34.6 -11.6 -34.1 -11.95 -33.9 -12.1 -33.75 -13.2 -33.35 -13.85 -33.25 -14.85 -33.25 -15.25 -33.4 Q-16.0 -33.6 -16.5 -33.95 L-17.1 -34.35 -17.35 -34.6 -17.9 -35.35 -18.45 -36.6 -18.55 -37.05 -18.65 -38.05 -18.6 -38.7 -18.45 -39.55 -18.35 -39.9 -17.9 -40.8 -16.95 -41.75 -15.95 -42.25 -15.25 -42.45 -14.6 -42.55 -13.55 -42.45 -12.75 -42.15 -12.2 -41.85 -11.75 -41.55 -11.55 -41.3 M-15.3 -40.15 L-15.6 -40.0 -16.05 -39.6 -16.4 -39.0 -16.55 -38.25 -16.5 -37.75 -16.4 -37.3 -16.4 -37.25 -16.2 -36.75 -15.9 -36.35 -15.4 -35.8 Q-14.95 -35.35 -14.45 -35.35 L-14.2 -35.4 -13.9 -35.4 -13.55 -35.5 -13.35 -35.55 -13.0 -35.7 -12.4 -36.35 Q-12.1 -36.8 -12.1 -37.25 L-12.15 -38.0 -12.25 -38.5 -12.4 -38.9 -12.5 -39.05 -12.55 -39.25 -13.15 -39.85 -13.5 -40.1 -13.9 -40.3 -14.65 -40.35 -15.3 -40.15" fill="#ffd245" fill-rule="evenodd" stroke="none"/>
    <path d="M-13.4 -38.7 L-13.8 -39.1 -14.0 -39.2 -14.15 -39.3 -14.2 -39.3 -14.55 -39.35 -14.95 -39.2 -15.05 -39.2 -15.2 -39.1 -15.25 -39.0 -15.45 -38.75 -15.45 -38.7 -15.5 -38.65 -15.55 -38.2 -15.55 -38.1 -15.5 -37.9 -15.5 -37.7 -15.3 -37.25 -15.3 -37.2 -15.2 -37.1 -14.8 -36.55 -14.35 -36.35 -14.3 -36.4 -13.9 -36.4 -13.75 -36.45 -13.7 -36.5 -13.5 -36.55 -13.25 -36.9 -13.1 -37.35 -13.1 -37.5 -13.2 -38.15 -13.4 -38.7 M-15.6 -40.0 L-15.3 -40.15 -14.65 -40.35 -13.9 -40.3 -13.5 -40.1 -13.15 -39.85 -12.55 -39.25 -12.5 -39.05 -12.4 -38.9 -12.25 -38.5 -12.15 -38.0 -12.1 -37.25 Q-12.1 -36.8 -12.4 -36.35 L-13.0 -35.7 -13.35 -35.55 -13.55 -35.5 -13.9 -35.4 -14.2 -35.4 -14.45 -35.35 Q-14.95 -35.35 -15.4 -35.8 L-15.9 -36.35 -16.2 -36.75 -16.4 -37.25 -16.4 -37.3 -16.5 -37.75 -16.55 -38.25 -16.4 -39.0 -16.05 -39.6 -15.6 -40.0 M-10.85 -40.5 L-11.15 -40.9 -11.55 -41.3 -11.75 -41.55 -12.2 -41.85 -12.75 -42.15 -13.55 -42.45 -14.6 -42.55 -15.25 -42.45 -15.95 -42.25 -16.95 -41.75 -17.9 -40.8 -18.35 -39.9 -18.45 -39.55 -18.65 -38.05 -18.55 -37.05 -18.45 -36.6 -17.9 -35.35 -17.35 -34.6 -17.1 -34.35 -16.5 -33.95 Q-16.0 -33.6 -15.25 -33.4 L-14.85 -33.25 -13.85 -33.25 -13.2 -33.35 -12.1 -33.75 -11.95 -33.9 -11.6 -34.1 -11.05 -34.6 -10.85 -34.85 -10.55 -35.15 -10.1 -36.2 -9.9 -37.25 -10.15 -39.05 -10.85 -40.5 M-11.9 -42.8 L-11.85 -42.8 -11.75 -42.75 -11.7 -42.7 -11.05 -42.25 -10.4 -41.6 -10.0 -41.05 -9.2 -39.4 -9.0 -38.3 -8.95 -38.2 -8.9 -37.25 -9.1 -35.95 -9.75 -34.55 -10.05 -34.2 -10.1 -34.2 -10.35 -33.9 -11.05 -33.25 -11.3 -33.1 -11.45 -33.05 -11.45 -33.0 -11.6 -32.9 -12.15 -32.65 -12.95 -32.4 -13.7 -32.25 -14.6 -32.25 -15.05 -32.3 -15.55 -32.45 -17.05 -33.1 -17.7 -33.55 -17.85 -33.7 -18.05 -33.85 -18.05 -33.9 -18.1 -33.9 -18.75 -34.9 -18.8 -34.95 -19.35 -36.25 -19.5 -36.9 -19.65 -38.1 -19.6 -38.9 -19.6 -38.8 -19.55 -39.1 -19.55 -39.15 -19.5 -39.3 -19.45 -39.8 -19.3 -40.15 -19.3 -40.2 -19.25 -40.2 -19.25 -40.3 -19.15 -40.65 -18.9 -41.05 -18.85 -41.1 -18.75 -41.3 -17.95 -42.2 -17.9 -42.2 -17.55 -42.55 Q-16.9 -42.85 -16.3 -43.2 L-15.5 -43.4 -14.6 -43.55 -14.5 -43.55 -14.35 -43.5 -13.4 -43.45 -12.35 -43.05 -12.0 -42.9 -11.9 -42.8" fill="#b07f00" fill-rule="evenodd" stroke="none"/>
    <path d="M-7.75 -39.5 L-7.4 -39.5 -7.1 -39.6 -6.7 -39.65 -6.2 -39.75 Q-5.95 -39.8 -5.8 -39.55 L-5.55 -38.3 Q-5.55 -38.0 -5.9 -37.85 L-6.15 -37.85 -6.45 -37.75 -6.85 -37.7 -7.2 -37.6 -8.0 -37.45 Q-8.3 -37.45 -8.45 -37.7 L-8.65 -38.4 -8.7 -39.0 -8.4 -39.35 -8.1 -39.4 -7.75 -39.5" fill="#ffd245" fill-rule="evenodd" stroke="none"/>
    <path d="M-7.1 -39.6 L-7.4 -39.5 -7.75 -39.5 -8.1 -39.4 -8.4 -39.35 -8.7 -39.0 -8.65 -38.4 -8.45 -37.7 -8.1 -37.45 -8.0 -37.45 -7.2 -37.6 -6.85 -37.7 -6.45 -37.75 -6.15 -37.85 -5.9 -37.85 Q-5.55 -38.0 -5.55 -38.3 L-5.8 -39.55 Q-5.9 -39.75 -6.1 -39.75 L-6.2 -39.75 -6.7 -39.65 -7.1 -39.6 M-6.85 -40.6 L-6.1 -40.75 Q-5.45 -40.75 -5.0 -40.1 L-4.65 -39.05 -4.65 -39.0 -4.6 -38.8 -4.6 -38.7 -4.55 -38.3 Q-4.55 -37.15 -5.75 -36.85 L-5.95 -36.85 -6.05 -36.8 -6.25 -36.8 -6.5 -36.75 -6.65 -36.7 -6.8 -36.7 -7.3 -36.6 -7.4 -36.6 -7.55 -36.55 -8.1 -36.45 Q-9.0 -36.45 -9.35 -37.3 L-9.6 -38.25 -9.7 -39.15 Q-9.55 -39.95 -8.75 -40.25 L-8.65 -40.3 -8.55 -40.3 -8.3 -40.35 -8.2 -40.4 -7.65 -40.5 -7.55 -40.5 -7.0 -40.6 -6.85 -40.6" fill="#b07f00" fill-rule="evenodd" stroke="none"/>
    <path d="M2.4 -44.35 L1.0 -42.5 0.35 -41.5 0.15 -40.95 0.3 -40.55 0.7 -39.65 0.95 -39.3 1.3 -38.6 2.4 -36.75 2.6 -36.25 2.6 -36.1 2.35 -35.95 1.35 -35.9 0.9 -35.95 0.5 -35.9 Q0.3 -35.9 0.25 -36.0 L-0.15 -36.65 -0.3 -37.05 -0.4 -37.2 -0.45 -37.3 -0.55 -37.4 -0.9 -38.05 -1.2 -38.6 -1.4 -38.9 -1.85 -39.3 -2.2 -38.8 -2.15 -38.55 -2.2 -38.05 -2.15 -37.55 -2.1 -36.4 Q-2.05 -36.25 -2.15 -36.05 -2.25 -35.9 -2.4 -35.9 L-2.65 -35.85 -3.7 -35.85 -4.0 -35.8 -4.15 -35.85 -4.35 -36.15 -4.3 -36.25 -4.35 -39.35 -4.4 -39.8 -4.4 -40.0 -4.35 -40.35 -4.35 -40.95 -4.4 -41.25 -4.5 -44.55 Q-4.5 -44.95 -4.15 -44.95 L-3.2 -44.95 -2.7 -45.0 -2.4 -44.9 -2.25 -44.6 -2.3 -44.4 -2.3 -43.7 -2.25 -43.25 -2.25 -42.45 -2.2 -42.2 -2.0 -42.0 -1.85 -42.1 -0.9 -43.3 0.2 -44.9 0.75 -45.1 1.05 -45.1 1.55 -45.15 2.05 -45.1 2.25 -45.15 2.6 -44.85 2.4 -44.35" fill="#ffd245" fill-rule="evenodd" stroke="none"/>
    <path d="M2.3 -45.15 L2.25 -45.15 2.05 -45.1 1.8 -45.1 1.55 -45.15 1.05 -45.1 0.75 -45.1 0.2 -44.9 -0.9 -43.3 -1.85 -42.1 -2.0 -42.0 -2.2 -42.2 -2.25 -42.45 -2.25 -43.25 -2.3 -43.7 -2.3 -44.4 -2.25 -44.6 -2.4 -44.9 -2.65 -45.0 -2.7 -45.0 -3.2 -44.95 -4.15 -44.95 Q-4.5 -44.95 -4.5 -44.55 L-4.4 -41.25 -4.35 -40.95 -4.35 -40.35 -4.4 -40.0 -4.4 -39.8 -4.35 -39.35 -4.3 -36.25 -4.35 -36.15 -4.15 -35.85 -4.0 -35.8 -3.7 -35.85 -2.65 -35.85 -2.4 -35.9 Q-2.25 -35.9 -2.15 -36.05 -2.05 -36.25 -2.1 -36.4 L-2.2 -38.05 -2.15 -38.55 -2.2 -38.8 -1.85 -39.3 -1.4 -38.9 -1.2 -38.6 -0.9 -38.05 -0.55 -37.4 -0.45 -37.3 -0.4 -37.2 -0.3 -37.05 -0.15 -36.65 0.25 -36.0 Q0.3 -35.9 0.5 -35.9 L0.9 -35.95 1.15 -35.95 1.35 -35.9 1.95 -35.95 2.35 -35.95 2.6 -36.1 2.6 -36.25 2.4 -36.75 1.3 -38.6 0.95 -39.3 0.7 -39.65 0.3 -40.55 0.15 -40.95 0.35 -41.5 1.0 -42.5 2.4 -44.35 2.6 -44.85 2.3 -45.15 M3.25 -45.8 Q3.6 -45.45 3.6 -44.9 3.6 -44.3 3.2 -43.75 L3.05 -43.6 3.0 -43.5 2.95 -43.5 2.95 -43.45 2.45 -42.7 2.0 -42.2 1.8 -41.9 1.75 -41.8 1.4 -41.3 1.3 -41.1 1.2 -40.95 1.55 -40.3 1.55 -40.2 1.65 -40.0 2.2 -39.1 2.3 -38.9 2.85 -38.0 2.9 -37.95 2.95 -37.75 3.2 -37.3 3.6 -36.3 3.5 -35.65 Q3.2 -34.95 2.35 -34.95 L1.75 -34.95 1.35 -34.9 1.1 -34.95 0.95 -34.95 0.85 -34.9 0.5 -34.9 Q0.0 -34.9 -0.45 -35.25 L-1.05 -36.25 -1.05 -36.2 -1.1 -36.3 Q-1.1 -35.8 -1.4 -35.4 -1.75 -34.95 -2.25 -34.9 L-2.45 -34.85 -3.65 -34.85 -4.0 -34.8 -4.55 -34.95 -4.65 -34.95 -4.75 -35.05 Q-5.3 -35.45 -5.35 -36.15 L-5.3 -36.35 -5.35 -39.5 -5.4 -39.8 -5.4 -40.1 -5.35 -40.2 -5.35 -41.05 -5.4 -41.15 -5.5 -44.5 -5.25 -45.45 Q-4.85 -45.95 -4.2 -45.95 L-2.75 -46.0 -2.65 -46.0 Q-1.95 -46.0 -1.65 -45.55 -1.3 -45.2 -1.25 -44.6 L-0.45 -45.65 Q0.1 -46.1 0.75 -46.1 L1.2 -46.1 1.55 -46.15 1.85 -46.1 2.0 -46.1 2.25 -46.15 2.3 -46.15 Q2.85 -46.15 3.25 -45.8" fill="#b07f00" fill-rule="evenodd" stroke="none"/>
    <path d="M12.0 -43.45 Q12.35 -43.45 12.25 -42.9 L11.8 -40.95 11.75 -40.5 11.45 -39.4 10.95 -36.6 10.9 -36.4 10.8 -36.2 10.65 -34.9 Q10.45 -34.45 10.1 -34.55 L8.9 -34.8 Q8.6 -34.85 8.4 -35.45 L7.65 -37.6 7.5 -37.9 7.4 -38.2 7.2 -38.6 6.7 -40.15 6.5 -40.3 6.4 -40.3 6.25 -40.1 6.1 -39.45 6.05 -39.05 5.95 -38.75 5.55 -36.55 5.55 -36.4 5.5 -36.0 5.3 -35.75 5.1 -35.65 4.85 -35.7 4.45 -35.7 3.75 -35.8 Q3.55 -35.85 3.4 -36.0 L3.3 -36.35 4.3 -41.05 4.7 -43.35 4.8 -43.65 4.8 -43.85 4.85 -44.0 4.95 -44.7 5.25 -44.85 5.55 -44.75 5.7 -44.75 5.8 -44.7 5.95 -44.7 6.0 -44.65 6.15 -44.65 6.7 -44.5 7.05 -44.35 7.25 -44.15 7.8 -42.8 7.85 -42.7 9.0 -39.4 9.15 -39.05 9.4 -39.6 9.6 -40.6 9.65 -41.05 10.15 -43.5 10.4 -43.75 11.3 -43.6 11.5 -43.5 11.8 -43.5 12.0 -43.45" fill="#ffd245" fill-rule="evenodd" stroke="none"/>
    <path d="M11.5 -43.5 L11.3 -43.6 10.4 -43.75 10.15 -43.5 9.8 -41.6 9.65 -41.05 9.6 -40.6 9.4 -39.6 9.2 -39.05 9.15 -39.05 9.0 -39.4 7.85 -42.7 7.8 -42.8 7.25 -44.15 7.05 -44.35 6.7 -44.5 6.15 -44.65 6.0 -44.65 5.95 -44.7 5.8 -44.7 5.7 -44.75 5.55 -44.75 5.25 -44.85 5.2 -44.85 4.95 -44.7 4.85 -44.0 4.8 -43.85 4.8 -43.65 4.7 -43.35 3.65 -37.75 3.3 -36.35 3.4 -36.0 Q3.55 -35.85 3.75 -35.8 L4.45 -35.7 4.85 -35.7 5.1 -35.65 5.3 -35.75 5.5 -36.0 5.55 -36.4 5.55 -36.55 5.95 -38.75 6.05 -39.05 6.1 -39.45 6.25 -40.1 6.45 -40.3 6.5 -40.3 6.7 -40.15 7.2 -38.6 7.4 -38.2 7.5 -37.9 7.65 -37.6 8.4 -35.45 Q8.6 -34.85 8.9 -34.8 L10.1 -34.55 10.25 -34.55 Q10.65 -34.55 10.65 -34.9 L10.8 -36.2 10.9 -36.4 10.95 -36.6 11.45 -39.4 11.75 -40.5 11.8 -40.95 12.25 -42.9 Q12.35 -43.45 12.0 -43.45 L11.8 -43.5 11.5 -43.5 M11.7 -44.5 L11.75 -44.5 11.9 -44.45 12.2 -44.45 13.05 -43.85 Q13.35 -43.4 13.25 -42.7 L13.15 -42.4 13.05 -41.85 12.95 -41.55 12.7 -40.3 12.7 -40.25 12.5 -39.55 11.85 -36.15 11.85 -36.1 11.8 -36.05 11.8 -36.0 11.75 -35.85 11.75 -35.65 11.65 -34.7 Q11.4 -33.55 10.25 -33.55 L9.65 -33.65 9.45 -33.65 9.0 -33.8 8.7 -33.8 Q7.85 -34.0 7.45 -35.2 L6.75 -37.15 6.7 -37.25 6.7 -37.1 6.55 -36.4 6.55 -36.15 6.5 -35.8 5.95 -34.95 5.1 -34.65 4.7 -34.7 4.45 -34.7 4.0 -34.75 3.55 -34.85 Q3.1 -34.9 2.7 -35.3 2.2 -35.8 2.35 -36.55 L2.35 -36.6 2.5 -37.2 2.55 -37.55 2.65 -37.9 2.65 -38.0 2.75 -38.6 2.85 -38.9 2.9 -39.15 2.9 -39.25 3.0 -39.9 3.25 -40.95 3.25 -41.0 3.35 -41.25 3.85 -44.05 3.85 -44.25 3.9 -44.6 4.1 -45.15 Q4.4 -45.85 5.2 -45.85 L5.45 -45.85 5.9 -45.7 6.0 -45.7 6.15 -45.65 6.35 -45.65 7.2 -45.4 7.2 -45.35 7.55 -45.25 8.1 -44.65 8.65 -43.3 8.7 -43.25 8.8 -43.05 8.85 -42.9 8.85 -42.85 8.9 -42.8 8.9 -42.7 8.95 -42.6 9.05 -43.2 9.1 -43.3 9.1 -43.4 9.15 -43.7 Q9.3 -44.6 10.2 -44.75 L10.4 -44.75 10.95 -44.7 11.55 -44.55 11.7 -44.5" fill="#b07f00" fill-rule="evenodd" stroke="none"/>
    <path d="M14.85 -42.45 L16.25 -41.9 16.45 -41.7 16.45 -41.25 14.4 -35.85 14.25 -35.55 13.6 -33.55 Q13.45 -33.25 13.1 -33.35 L12.8 -33.5 12.3 -33.65 12.0 -33.8 11.7 -33.9 Q11.3 -34.05 11.45 -34.35 L11.5 -34.6 12.35 -36.8 12.5 -37.0 12.55 -37.3 12.95 -38.3 13.25 -39.15 14.1 -41.2 14.35 -42.05 Q14.5 -42.55 14.85 -42.45" fill="#ffd245" fill-rule="evenodd" stroke="none"/>
    <path d="M14.8 -42.45 L14.35 -42.05 14.1 -41.2 13.25 -39.15 12.95 -38.3 12.55 -37.3 12.5 -37.0 12.35 -36.8 11.5 -34.6 11.45 -34.35 Q11.3 -34.05 11.7 -33.9 L12.0 -33.8 12.3 -33.65 12.8 -33.5 13.1 -33.35 13.25 -33.35 Q13.55 -33.35 13.6 -33.55 L14.25 -35.55 14.4 -35.85 15.2 -38.0 16.45 -41.25 16.45 -41.7 16.25 -41.9 14.85 -42.45 14.8 -42.45 M15.1 -43.4 L15.2 -43.4 16.15 -43.05 16.3 -42.95 16.4 -42.95 16.6 -42.85 Q17.2 -42.65 17.4 -42.05 L17.4 -42.0 Q17.6 -41.4 17.4 -40.9 L17.3 -40.7 17.25 -40.5 17.2 -40.4 17.1 -40.05 16.55 -38.6 16.3 -38.1 15.5 -35.8 15.35 -35.5 15.35 -35.45 15.3 -35.45 15.3 -35.35 15.2 -35.2 15.05 -34.65 14.65 -33.7 14.65 -33.55 14.55 -33.2 Q14.2 -32.35 13.25 -32.35 L12.75 -32.4 12.5 -32.5 12.45 -32.55 11.7 -32.8 11.6 -32.9 11.35 -32.95 Q10.25 -33.35 10.45 -34.5 L10.75 -35.35 10.8 -35.4 11.45 -37.2 11.55 -37.35 11.55 -37.4 11.6 -37.7 12.05 -38.6 12.3 -39.5 13.05 -41.4 13.15 -41.55 13.4 -42.4 Q13.8 -43.45 14.8 -43.45 L15.1 -43.4" fill="#b07f00" fill-rule="evenodd" stroke="none"/>
    <path d="M21.1 -37.4 L20.85 -37.45 20.4 -37.45 19.55 -37.25 19.05 -36.9 18.5 -36.05 18.45 -35.95 18.4 -35.75 18.3 -35.55 18.3 -35.45 18.2 -35.1 18.2 -34.75 18.35 -34.1 Q18.5 -33.45 19.15 -32.8 L19.8 -32.35 Q20.25 -32.15 20.45 -32.35 L20.8 -32.75 21.0 -33.2 21.0 -33.55 20.5 -33.95 Q20.3 -34.15 20.45 -34.4 L21.05 -35.35 21.35 -35.6 21.6 -35.6 22.6 -34.95 23.3 -34.65 Q23.75 -34.3 23.65 -34.0 L23.05 -32.8 22.7 -32.3 22.45 -31.75 22.25 -31.45 22.15 -31.2 21.95 -30.95 21.35 -29.95 21.05 -29.55 20.45 -29.5 18.7 -30.45 17.95 -31.0 16.95 -32.1 16.15 -33.7 16.0 -34.8 16.1 -35.85 16.4 -36.8 16.85 -37.7 17.35 -38.4 18.05 -39.05 18.85 -39.45 20.15 -39.65 21.3 -39.55 22.3 -39.1 24.05 -38.15 24.95 -37.25 24.95 -36.65 24.6 -36.15 24.4 -35.7 Q24.15 -35.45 23.95 -35.6 23.9 -35.6 23.75 -35.7 L23.6 -35.85 22.95 -36.35 22.8 -36.5 22.2 -36.95 21.9 -37.1 21.1 -37.4" fill="#ffd245" fill-rule="evenodd" stroke="none"/>
    <path d="M20.1 -36.4 L19.9 -36.3 19.8 -36.2 19.4 -35.6 19.35 -35.4 19.3 -35.3 19.3 -35.25 19.2 -34.95 19.2 -34.85 19.35 -34.3 19.4 -34.2 19.6 -34.9 20.0 -35.6 20.05 -35.65 20.15 -35.85 20.75 -36.45 20.15 -36.45 20.1 -36.4 M21.1 -37.4 L21.9 -37.1 22.2 -36.95 22.8 -36.5 22.95 -36.35 23.6 -35.85 23.75 -35.7 Q23.9 -35.6 23.95 -35.6 L24.1 -35.55 Q24.35 -35.55 24.4 -35.7 L24.6 -36.15 24.95 -36.65 24.95 -37.25 24.05 -38.15 22.3 -39.1 21.3 -39.55 20.15 -39.65 18.85 -39.45 18.05 -39.05 17.35 -38.4 16.85 -37.7 16.4 -36.8 16.1 -35.85 16.0 -34.8 16.15 -33.7 16.95 -32.1 17.95 -31.0 18.7 -30.45 20.45 -29.5 20.65 -29.45 21.05 -29.55 21.35 -29.95 21.95 -30.95 22.15 -31.2 22.25 -31.45 22.45 -31.75 22.7 -32.3 23.05 -32.8 23.65 -34.0 Q23.75 -34.3 23.3 -34.65 L22.6 -34.95 21.6 -35.6 21.45 -35.65 Q21.2 -35.65 21.05 -35.35 L20.45 -34.4 Q20.3 -34.15 20.5 -33.95 L21.0 -33.55 21.0 -33.2 20.8 -32.75 20.45 -32.35 20.2 -32.25 19.8 -32.35 19.15 -32.8 Q18.5 -33.45 18.35 -34.1 L18.2 -34.75 18.2 -35.1 18.3 -35.45 18.3 -35.55 18.4 -35.75 18.45 -35.95 18.5 -36.05 19.05 -36.9 19.55 -37.25 20.4 -37.45 20.85 -37.45 21.1 -37.4 M20.15 -40.65 L20.5 -40.65 20.7 -40.6 21.55 -40.5 22.8 -40.0 23.2 -39.8 23.25 -39.75 23.3 -39.75 23.65 -39.5 24.2 -39.25 24.6 -39.0 25.9 -37.6 Q26.15 -36.75 25.8 -36.15 L25.55 -35.8 25.5 -35.65 25.25 -35.2 Q25.05 -34.85 24.6 -34.6 L24.65 -33.8 24.15 -32.75 23.6 -31.75 23.45 -31.55 23.15 -30.95 23.1 -30.9 23.0 -30.7 22.85 -30.5 22.8 -30.45 22.8 -30.4 22.2 -29.4 21.65 -28.8 21.55 -28.7 20.65 -28.45 20.1 -28.55 20.15 -28.55 19.1 -29.05 18.7 -29.3 18.5 -29.4 17.3 -30.25 16.4 -31.2 16.3 -31.3 16.15 -31.5 16.1 -31.55 16.1 -31.6 15.45 -32.85 15.2 -33.5 15.0 -34.8 15.0 -34.95 15.1 -36.0 15.15 -36.05 15.15 -36.1 15.35 -36.8 15.35 -36.85 15.95 -38.2 16.55 -39.0 17.55 -39.9 18.5 -40.35 20.15 -40.65" fill="#b07f00" fill-rule="evenodd" stroke="none"/>
    <path d="M29.5 -33.8 Q29.7 -33.6 29.4 -33.35 L28.55 -32.55 27.9 -31.75 Q27.45 -31.25 27.9 -30.8 L28.85 -29.85 29.5 -29.4 Q29.95 -29.3 30.3 -29.65 L31.55 -31.05 31.9 -31.3 32.2 -31.2 32.55 -30.85 32.75 -30.7 32.85 -30.55 33.05 -30.4 33.15 -30.3 Q33.55 -29.9 33.25 -29.55 L29.05 -25.25 28.5 -24.75 27.55 -23.65 Q27.2 -23.45 26.95 -23.65 L26.2 -24.35 Q25.85 -24.7 25.85 -24.95 L26.05 -25.35 27.8 -27.15 27.9 -27.65 27.65 -28.0 27.35 -28.25 27.2 -28.45 26.6 -29.0 26.05 -29.4 Q25.7 -29.5 25.3 -29.15 L25.15 -29.0 25.0 -28.8 24.75 -28.6 23.9 -27.65 Q23.4 -27.1 23.05 -27.45 L22.05 -28.4 Q21.85 -28.6 21.95 -28.75 L22.15 -29.05 22.7 -29.55 23.05 -30.0 23.6 -30.5 24.35 -31.35 24.65 -31.6 27.6 -34.7 28.05 -35.05 28.4 -34.9 29.05 -34.25 29.2 -34.15 29.35 -34.0 29.5 -33.8" fill="#ffd245" fill-rule="evenodd" stroke="none"/>
    <path d="M29.5 -33.8 L29.35 -34.0 29.2 -34.15 29.05 -34.25 28.4 -34.9 28.1 -35.05 28.05 -35.05 27.6 -34.7 24.65 -31.6 24.35 -31.35 23.6 -30.5 23.05 -30.0 22.7 -29.55 22.15 -29.05 21.95 -28.75 Q21.85 -28.6 22.05 -28.4 L23.05 -27.45 23.35 -27.3 23.9 -27.65 24.75 -28.6 25.0 -28.8 25.15 -29.0 25.3 -29.15 25.9 -29.4 26.05 -29.4 26.6 -29.0 27.2 -28.45 27.35 -28.25 27.65 -28.0 27.9 -27.65 27.8 -27.15 26.05 -25.35 25.85 -24.95 Q25.85 -24.7 26.2 -24.35 L26.95 -23.65 27.25 -23.5 27.55 -23.65 28.5 -24.75 29.05 -25.25 33.25 -29.55 Q33.55 -29.9 33.15 -30.3 L33.05 -30.4 32.85 -30.55 32.75 -30.7 32.55 -30.85 32.2 -31.2 31.95 -31.3 31.9 -31.3 31.55 -31.05 30.3 -29.65 Q30.05 -29.4 29.75 -29.4 L29.5 -29.4 28.85 -29.85 27.9 -30.8 Q27.45 -31.25 27.9 -31.75 L28.55 -32.55 29.4 -33.35 Q29.7 -33.6 29.5 -33.8 M29.05 -35.65 L29.1 -35.6 29.15 -35.6 29.25 -35.45 29.55 -35.15 29.75 -35.0 29.85 -34.85 30.05 -34.7 30.4 -34.3 30.45 -34.2 30.45 -34.15 Q30.75 -33.35 30.15 -32.65 L29.25 -31.85 28.8 -31.3 29.05 -31.1 29.55 -30.6 29.65 -30.45 30.2 -31.05 30.3 -31.1 30.5 -31.4 30.85 -31.75 Q31.3 -32.2 31.75 -32.25 L31.95 -32.3 Q32.5 -32.3 32.9 -31.9 L33.1 -31.7 33.2 -31.65 33.25 -31.6 33.4 -31.4 33.45 -31.35 33.55 -31.3 33.6 -31.25 33.85 -31.05 34.45 -29.95 33.95 -28.85 33.45 -28.4 33.35 -28.25 32.0 -26.9 31.6 -26.45 31.4 -26.3 31.2 -26.05 30.3 -25.15 30.15 -24.95 29.0 -23.75 28.25 -23.0 Q27.85 -22.5 27.25 -22.5 26.7 -22.5 26.25 -22.95 L25.5 -23.65 Q24.8 -24.35 24.85 -25.0 L24.85 -25.15 24.9 -25.25 Q25.05 -25.75 25.35 -26.05 L26.25 -26.95 26.35 -27.1 26.55 -27.25 26.75 -27.5 26.65 -27.55 26.05 -28.15 25.95 -28.3 25.9 -28.3 25.8 -28.2 25.7 -28.15 25.65 -28.05 24.6 -26.95 Q23.8 -26.3 23.35 -26.3 22.8 -26.3 22.4 -26.65 L22.05 -27.0 22.0 -27.1 21.35 -27.65 Q20.65 -28.35 21.05 -29.2 L21.4 -29.75 23.8 -32.2 23.95 -32.3 25.95 -34.35 26.85 -35.35 27.95 -36.05 28.1 -36.05 29.05 -35.65" fill="#b07f00" fill-rule="evenodd" stroke="none"/>
    <path d="M34.8 -27.85 Q35.15 -28.05 35.45 -27.65 L36.55 -25.9 36.95 -25.4 37.1 -25.15 37.3 -24.9 37.4 -24.7 37.6 -24.45 38.2 -23.45 38.45 -23.15 38.55 -23.0 38.5 -22.65 38.1 -22.4 37.7 -22.05 37.55 -21.95 37.35 -21.85 Q37.15 -21.6 36.8 -21.95 L36.55 -22.3 35.85 -23.0 35.5 -23.0 35.1 -22.8 30.4 -19.55 Q30.0 -19.3 29.7 -19.8 L29.3 -20.35 29.15 -20.7 28.95 -20.9 Q28.85 -21.1 29.05 -21.3 L29.25 -21.5 29.4 -21.55 31.4 -22.95 31.85 -23.2 32.1 -23.4 32.5 -23.6 32.95 -24.0 33.95 -24.7 34.1 -24.75 34.4 -25.3 34.0 -26.1 33.7 -26.5 33.6 -26.85 33.8 -27.2 34.3 -27.55 34.55 -27.65 34.8 -27.85" fill="#ffd245" fill-rule="evenodd" stroke="none"/>
    <path d="M35.45 -27.65 L35.0 -27.95 34.8 -27.85 34.55 -27.65 34.3 -27.55 33.8 -27.2 33.6 -26.85 33.7 -26.5 34.0 -26.1 34.4 -25.3 34.1 -24.75 33.95 -24.7 32.95 -24.0 32.5 -23.6 32.1 -23.4 31.85 -23.2 31.4 -22.95 29.4 -21.55 29.25 -21.5 29.05 -21.3 Q28.85 -21.1 28.95 -20.9 L29.15 -20.7 29.3 -20.35 29.7 -19.8 30.2 -19.45 30.4 -19.55 35.1 -22.8 35.5 -23.0 35.85 -23.0 36.55 -22.3 36.8 -21.95 37.15 -21.8 37.35 -21.85 37.55 -21.95 37.7 -22.05 38.1 -22.4 38.5 -22.65 38.55 -23.0 38.45 -23.15 38.2 -23.45 37.95 -23.9 37.4 -24.7 37.3 -24.9 37.1 -25.15 36.95 -25.4 35.75 -27.1 35.45 -27.65 M38.65 -24.7 L38.65 -24.65 38.8 -24.5 38.95 -24.2 39.05 -24.05 39.1 -24.0 39.3 -23.75 39.5 -23.3 39.5 -23.2 Q39.7 -22.55 39.3 -22.05 L38.65 -21.55 38.1 -21.15 37.95 -21.0 37.15 -20.8 Q36.6 -20.8 36.1 -21.2 L36.05 -21.25 35.7 -21.7 35.6 -21.9 34.85 -21.45 34.65 -21.25 34.4 -21.15 34.3 -21.05 33.25 -20.3 33.05 -20.1 32.5 -19.8 31.4 -19.0 31.2 -18.9 30.95 -18.7 30.2 -18.45 Q29.4 -18.45 28.85 -19.25 L28.7 -19.55 28.6 -19.6 28.5 -19.8 28.15 -20.3 Q27.65 -21.15 28.25 -21.95 L28.7 -22.35 29.1 -22.55 29.2 -22.65 31.1 -23.95 31.3 -24.05 31.35 -24.1 31.55 -24.25 31.95 -24.45 32.1 -24.6 33.15 -25.3 33.25 -25.4 33.15 -25.55 33.1 -25.65 32.85 -25.95 Q32.55 -26.4 32.65 -27.0 32.75 -27.7 33.3 -28.05 L34.2 -28.65 35.0 -28.95 Q35.8 -28.95 36.25 -28.2 L37.0 -27.05 37.2 -26.8 37.55 -26.25 37.75 -26.0 37.85 -25.8 37.9 -25.75 37.95 -25.65 38.15 -25.45 38.2 -25.3 38.3 -25.2 38.6 -24.75 38.65 -24.7" fill="#b07f00" fill-rule="evenodd" stroke="none"/>
    <path d="M40.95 -18.45 L41.35 -17.2 41.25 -16.8 40.95 -16.7 40.7 -16.55 40.45 -16.45 40.1 -16.25 39.75 -16.25 39.5 -16.55 39.45 -16.8 39.15 -17.65 38.85 -18.0 38.3 -18.05 37.9 -17.55 37.35 -15.5 37.1 -14.95 Q36.65 -14.2 35.8 -13.85 L35.1 -13.65 34.45 -13.6 34.0 -13.7 33.2 -14.05 32.4 -14.8 31.7 -16.3 31.55 -17.15 31.7 -17.45 32.85 -17.95 33.1 -18.1 33.65 -17.65 33.8 -17.1 33.8 -16.9 34.05 -16.35 34.3 -16.0 34.95 -15.95 35.25 -16.15 35.5 -16.65 35.65 -17.45 36.2 -19.05 36.75 -19.65 37.5 -20.2 38.35 -20.45 39.4 -20.3 40.45 -19.35 40.95 -18.45" fill="#ffd245" fill-rule="evenodd" stroke="none"/>
    <path d="M40.95 -18.45 L40.45 -19.35 39.4 -20.3 38.6 -20.45 38.35 -20.45 37.5 -20.2 36.75 -19.65 36.2 -19.05 35.65 -17.45 35.5 -16.65 35.25 -16.15 34.95 -15.95 34.65 -15.9 34.3 -16.0 34.05 -16.35 33.8 -16.9 33.8 -17.1 33.65 -17.65 33.2 -18.1 33.1 -18.1 32.85 -17.95 31.7 -17.45 31.55 -17.15 31.7 -16.3 32.4 -14.8 33.2 -14.05 34.0 -13.7 34.45 -13.6 34.5 -13.6 35.1 -13.65 35.8 -13.85 Q36.65 -14.2 37.1 -14.95 L37.35 -15.5 37.65 -16.45 37.9 -17.55 38.3 -18.05 38.55 -18.1 38.85 -18.0 39.15 -17.65 39.45 -16.8 39.5 -16.55 39.75 -16.25 39.9 -16.2 40.1 -16.25 40.45 -16.45 40.7 -16.55 40.95 -16.7 41.25 -16.8 41.35 -17.2 40.95 -18.45 M41.25 -19.9 L41.85 -18.85 42.35 -17.3 Q42.35 -16.35 41.85 -16.0 L41.35 -15.75 41.3 -15.75 40.85 -15.5 40.7 -15.45 40.55 -15.35 39.9 -15.2 39.25 -15.4 38.6 -16.1 38.4 -15.6 38.4 -15.5 38.3 -15.15 37.95 -14.4 Q37.35 -13.45 36.25 -12.95 L35.2 -12.65 34.5 -12.6 34.2 -12.65 34.3 -12.6 33.75 -12.75 32.6 -13.25 31.55 -14.25 31.55 -14.3 31.0 -15.3 30.75 -16.0 Q30.5 -16.6 30.55 -17.2 30.55 -18.0 31.3 -18.4 L31.65 -18.5 31.75 -18.55 31.9 -18.65 32.4 -18.85 32.45 -18.85 32.7 -19.0 33.2 -19.1 Q34.05 -19.1 34.55 -18.05 L34.7 -17.65 35.35 -19.6 36.1 -20.45 37.05 -21.1 38.2 -21.45 38.6 -21.45 39.8 -21.2 41.25 -19.9" fill="#b07f00" fill-rule="evenodd" stroke="none"/>
    <path d="M2.5 -12.55 Q2.55 -8.7 3.05 -6.95 3.6 -5.15 4.8 -4.8 L6.35 25.1 0.0 31.85 -6.3 25.1 -4.8 -4.8 Q-3.6 -5.15 -3.05 -6.95 -2.5 -8.7 -2.45 -12.55 L2.5 -12.55" fill="#ffd245" fill-rule="evenodd" stroke="none"/>
    <path d="M2.5 -12.55 L-2.45 -12.55 Q-2.5 -8.7 -3.05 -6.95 -3.6 -5.15 -4.8 -4.8 L-6.3 25.1 0.0 31.85 6.35 25.1 4.8 -4.8 Q3.6 -5.15 3.05 -6.95 2.55 -8.7 2.5 -12.55 Z" fill="none" stroke="#b07f00" stroke-linecap="butt" stroke-linejoin="miter-clip" stroke-miterlimit="4.0" stroke-width="1.0"/>
    <path d="M0.0 -5.2 L0.0 28.5" fill="none" stroke="#d3a000" stroke-linecap="butt" stroke-linejoin="miter-clip" stroke-miterlimit="4.0" stroke-opacity="0.8" stroke-width="1.0"/>
    <path d="M26.2 -2.95 Q25.9 -4.1 18.25 -4.65 L10.6 -5.0 23.3 -6.35 Q36.2 -7.15 37.15 -4.3 38.1 -1.25 27.7 3.7 17.3 8.7 1.9 12.6 -13.45 16.5 -24.95 17.1 -36.45 17.7 -37.15 14.6 -37.85 11.25 -26.25 5.95 -20.4 3.3 -14.45 1.35 L-20.9 5.05 Q-27.3 9.0 -27.0 10.1 -26.5 12.05 -18.1 11.1 -10.5 10.2 0.8 7.35 27.1 0.7 26.2 -2.95" fill="#ffc200" fill-rule="evenodd" stroke="none"/>
    <path d="M26.2 -2.95 Q27.1 0.7 0.8 7.35 -10.5 10.2 -18.1 11.1 -26.5 12.05 -27.0 10.1 -27.3 9.0 -20.9 5.05 L-14.45 1.35 Q-20.4 3.3 -26.25 5.95 -37.85 11.25 -37.15 14.6 -36.45 17.7 -24.95 17.1 -13.45 16.5 1.9 12.6 17.3 8.7 27.7 3.7 38.1 -1.25 37.15 -4.3 36.2 -7.15 23.3 -6.35 L10.6 -5.0 18.25 -4.65 Q25.9 -4.1 26.2 -2.95 Z" fill="none" stroke="#b07f00" stroke-linecap="butt" stroke-linejoin="miter-clip" stroke-miterlimit="4.0" stroke-opacity="0.8" stroke-width="1.0"/>
    <path d="M3.9 -27.95 Q3.9 -26.35 2.75 -25.2 1.6 -24.1 0.0 -24.1 -1.6 -24.1 -2.7 -25.2 -3.85 -26.35 -3.85 -27.95 -3.85 -29.55 -2.7 -30.7 -1.6 -31.8 0.0 -31.8 1.6 -31.8 2.75 -30.7 3.9 -29.55 3.9 -27.95" fill="#ffc200" fill-rule="evenodd" stroke="none"/>
    <path d="M3.9 -27.95 Q3.9 -29.55 2.75 -30.7 1.6 -31.8 0.0 -31.8 -1.6 -31.8 -2.7 -30.7 -3.85 -29.55 -3.85 -27.95 -3.85 -26.35 -2.7 -25.2 -1.6 -24.1 0.0 -24.1 1.6 -24.1 2.75 -25.2 3.9 -26.35 3.9 -27.95 Z" fill="none" stroke="#b07f00" stroke-linecap="butt" stroke-linejoin="miter-clip" stroke-miterlimit="4.0" stroke-width="1.0"/>
    <path d="M0.0 -24.65 L2.0 -24.45 Q2.85 -24.1 2.85 -23.05 L2.85 -21.0 Q2.85 -20.25 2.0 -20.1 L2.45 -19.35 2.85 -18.05 2.85 -14.95 Q2.85 -14.0 2.0 -14.05 L0.0 -14.3 -2.0 -14.05 Q-2.8 -14.0 -2.8 -14.95 L-2.8 -18.05 -2.35 -19.35 -1.95 -20.1 Q-2.8 -20.25 -2.8 -21.0 L-2.8 -23.05 Q-2.8 -24.1 -2.0 -24.45 L0.0 -24.65" fill="#d6a200" fill-rule="evenodd" stroke="none"/>
    <path d="M0.0 -24.65 L-2.0 -24.45 Q-2.8 -24.1 -2.8 -23.05 L-2.8 -21.0 Q-2.8 -20.25 -1.95 -20.1 L-2.35 -19.35 -2.8 -18.05 -2.8 -14.95 Q-2.8 -14.0 -2.0 -14.05 L0.0 -14.3 2.0 -14.05 Q2.85 -14.0 2.85 -14.95 L2.85 -18.05 2.45 -19.35 2.0 -20.1 Q2.85 -20.25 2.85 -21.0 L2.85 -23.05 Q2.85 -24.1 2.0 -24.45 L0.0 -24.65 Z" fill="none" stroke="#b07f00" stroke-linecap="butt" stroke-linejoin="miter-clip" stroke-miterlimit="4.0" stroke-width="1.0"/>
    <path d="M-2.15 -19.9 L2.15 -19.9" fill="none" stroke="#b07f00" stroke-linecap="butt" stroke-linejoin="miter-clip" stroke-miterlimit="4.0" stroke-width="1.0"/>
    <path d="M11.5 -7.15 Q4.55 -11.25 0.05 -11.25 -4.45 -11.25 -11.45 -7.15 L-12.65 -12.9 Q-5.65 -17.0 0.0 -17.0 5.7 -17.0 12.7 -12.9 L11.5 -7.15" fill="#ffc200" fill-rule="evenodd" stroke="none"/>
    <path d="M11.5 -7.15 Q4.55 -11.25 0.05 -11.25 -4.45 -11.25 -11.45 -7.15 L-12.65 -12.9 Q-5.65 -17.0 0.0 -17.0 5.7 -17.0 12.7 -12.9 L11.5 -7.15 Z" fill="none" stroke="#b07f00" stroke-linecap="butt" stroke-linejoin="miter-clip" stroke-miterlimit="4.0" stroke-width="1.0"/>
  </g>
</svg>
