<?xml version="1.0" encoding="UTF-8" standalone="no"?>
<svg xmlns:ffdec="https://www.free-decompiler.com/flash" xmlns:xlink="http://www.w3.org/1999/xlink" ffdec:objectType="shape" height="92.8px" width="68.45px" xmlns="http://www.w3.org/2000/svg">
  <g transform="matrix(1.0, 0.0, 0.0, 1.0, 34.25, 45.5)">
    <path d="M23.8 16.6 L-23.2 15.65 -25.1 -14.95 26.3 -16.7 23.8 16.6" fill="#e7b20e" fill-rule="evenodd" stroke="none"/>
    <path d="M-22.2 14.95 L20.25 15.45 22.05 -12.2 -24.05 -11.5 -22.2 14.95 M-14.9 20.1 L-15.5 24.85 -19.9 24.85 -20.55 20.1 -26.55 20.1 -29.0 -16.05 27.6 -17.75 24.6 20.1 18.3 20.1 17.65 24.85 13.25 24.85 12.65 20.1 -14.9 20.1 M-15.15 -2.8 Q-15.15 -3.0 -15.55 -3.0 L-21.4 -3.0 -21.45 -3.1 -21.45 -7.2 -21.4 -7.35 -3.0 -7.35 -2.95 -7.2 -2.95 -3.1 -3.0 -3.0 -8.15 -3.0 Q-8.5 -3.0 -8.5 -2.8 L-8.4 12.5 -8.5 12.65 -15.15 12.75 -15.15 -2.8 M19.1 -8.3 L19.2 -8.1 13.8 11.5 3.2 11.5 3.15 11.4 -1.85 -8.25 -1.7 -8.35 4.95 -8.3 8.0 6.65 8.35 6.85 8.7 6.65 12.35 -8.25 19.1 -8.3" fill="#cfa00a" fill-rule="evenodd" stroke="none"/>
    <path d="M19.05 37.85 L19.05 37.75 18.9 37.2 18.8 37.05 18.7 36.85 18.65 36.7 18.35 36.45 18.25 36.4 18.05 36.35 17.9 36.25 17.6 36.3 17.25 36.45 17.2 36.45 17.05 36.6 17.05 36.65 16.9 36.85 16.9 37.0 16.85 37.35 16.85 37.4 16.95 37.6 17.0 37.8 17.0 37.85 17.2 38.15 17.2 38.2 17.7 38.7 18.05 38.85 18.15 38.8 18.4 38.8 18.45 38.75 18.6 38.7 18.65 38.65 18.8 38.6 19.0 38.25 19.05 37.85 M-12.0 39.55 L-12.1 39.45 -12.25 39.2 -12.75 39.0 -12.8 39.15 -12.85 39.25 -13.5 41.35 -13.05 41.5 -12.6 41.5 Q-12.25 41.4 -11.95 40.7 L-11.9 40.35 -11.9 40.25 -11.85 40.0 -11.95 39.65 -12.0 39.55 M-17.2 39.9 L-17.7 40.1 -17.45 40.6 -17.35 40.25 -17.2 39.9 M-29.1 28.35 L-29.0 28.25 -28.9 28.05 -28.8 27.95 -27.85 26.7 Q-27.4 26.2 -26.8 26.2 L-26.55 26.2 Q-26.15 26.3 -25.8 26.55 L-25.75 26.55 -25.5 26.8 -25.4 26.85 -25.35 26.9 -25.05 27.1 Q-24.35 27.7 -24.55 29.05 L-24.6 29.25 -24.65 29.75 -24.7 30.0 -24.7 30.5 -24.75 30.7 -24.75 31.0 -24.65 31.0 -24.2 30.85 -24.15 30.85 -23.5 30.55 -23.3 30.5 -22.75 30.25 -22.7 30.25 -22.65 30.2 -22.6 30.2 -22.35 30.1 -22.05 30.1 Q-21.45 30.1 -21.1 30.4 L-20.85 30.65 -20.65 30.8 -20.6 30.85 -20.4 31.0 -20.2 31.2 -20.15 31.2 -19.85 31.6 -19.65 31.6 -18.95 31.75 -18.75 31.9 -17.95 32.25 -16.95 32.85 -16.55 33.0 -15.25 33.75 Q-14.85 33.95 -14.6 34.35 L-14.55 34.3 -14.5 34.3 -13.15 34.65 -13.05 34.7 -12.85 34.75 -12.8 34.75 -12.75 34.8 -12.55 34.85 -12.3 34.95 -11.65 35.1 -11.6 35.1 -11.45 35.15 -11.25 35.25 -11.2 35.25 -11.1 35.3 -10.3 35.7 -10.25 35.75 -10.2 35.75 -9.9 35.95 -9.75 36.1 -9.6 36.2 -9.4 36.4 -9.3 36.45 -9.3 36.5 -9.25 36.5 -8.8 37.1 Q-8.25 37.85 -8.05 38.6 L-8.05 38.55 -8.0 38.5 -8.0 38.4 Q-7.5 36.45 -6.05 36.45 L-4.4 36.65 -4.3 36.65 Q-3.45 36.65 -2.8 37.2 -2.35 37.65 -2.25 38.4 L-2.2 38.75 -2.15 38.95 -2.15 39.1 -2.05 39.35 -2.05 39.4 -2.0 39.85 -2.0 39.45 -2.05 39.2 -2.05 38.65 -2.1 38.35 Q-2.1 37.75 -1.7 37.3 -1.3 36.9 -0.8 36.9 L0.25 36.85 0.3 36.8 0.6 36.8 Q1.15 36.8 1.55 37.2 1.95 37.55 2.0 38.15 L2.0 39.45 2.05 39.7 2.05 40.5 2.1 40.75 2.15 42.75 2.2 43.2 2.6 43.2 2.85 43.15 3.45 43.15 3.7 43.1 3.8 43.1 Q4.15 43.1 4.5 43.35 L4.15 41.6 4.15 41.5 4.1 41.35 3.9 40.3 3.75 39.9 3.75 39.55 3.7 39.5 3.55 38.7 3.5 38.6 3.5 38.45 3.4 38.15 Q3.3 37.5 3.65 37.05 3.95 36.6 4.45 36.5 L5.2 36.35 5.4 36.35 5.45 36.3 5.55 36.3 6.05 36.2 Q7.2 36.2 7.45 37.35 L7.45 37.65 7.5 37.8 7.5 38.0 7.55 38.05 7.55 38.2 7.6 38.4 7.6 38.5 7.65 38.55 7.65 38.65 7.7 38.85 7.8 39.55 7.85 39.65 8.2 41.35 8.25 41.9 8.4 42.3 8.6 42.3 8.75 42.25 9.05 42.15 9.3 42.1 9.45 42.1 9.6 42.05 10.2 41.95 10.7 42.1 10.7 42.0 10.65 41.8 10.5 41.55 10.4 41.05 9.7 39.05 9.6 38.6 9.45 38.3 9.4 38.0 9.05 37.15 Q8.65 35.85 9.7 35.3 L9.75 35.3 9.8 35.25 10.0 35.2 10.05 35.2 10.25 35.1 10.85 34.9 10.95 34.9 11.1 34.8 11.55 34.75 12.25 34.95 12.9 35.8 13.0 36.1 13.0 36.15 13.05 36.0 13.05 35.95 13.1 35.9 13.1 35.85 13.15 35.5 13.35 35.1 13.35 35.05 13.45 34.85 13.95 34.1 14.1 33.9 14.15 33.9 14.15 33.85 14.2 33.8 14.4 33.55 15.5 32.8 16.05 32.6 16.25 32.5 17.05 32.3 17.15 32.3 17.35 32.25 18.25 32.25 19.15 32.45 19.0 32.2 Q18.65 31.3 19.35 30.75 L19.7 30.5 19.75 30.45 19.85 30.4 19.9 30.3 19.95 30.3 20.0 30.25 20.7 29.75 21.0 29.6 21.55 29.5 21.8 29.5 23.15 29.95 23.3 29.95 23.45 30.05 23.5 30.05 23.25 29.7 23.0 29.45 Q22.45 28.8 22.85 28.0 L23.35 27.5 23.95 27.05 23.95 27.0 24.1 26.9 24.25 26.75 Q24.65 26.45 25.05 26.45 25.75 26.45 26.2 27.0 L26.4 27.25 26.5 27.45 27.35 28.45 27.6 28.8 27.9 29.1 28.05 29.35 28.4 29.8 28.65 30.05 29.1 30.55 29.25 30.8 29.6 31.15 29.95 31.65 30.15 31.85 30.15 31.9 30.2 31.95 30.25 32.05 30.4 32.15 30.6 32.4 31.0 32.8 Q31.4 33.35 31.35 33.85 31.35 34.3 30.8 34.8 L30.6 34.95 30.45 35.1 30.25 35.25 30.15 35.3 30.1 35.35 29.95 35.55 29.0 35.85 28.15 35.65 27.8 35.5 26.6 35.15 27.25 35.85 Q27.95 36.7 27.3 37.55 L27.0 37.9 26.95 37.9 26.85 38.05 26.2 38.65 25.35 39.0 25.2 39.0 Q24.55 39.0 24.2 38.5 L24.15 38.5 24.15 38.45 23.9 38.15 23.8 38.0 23.55 37.75 23.4 37.5 23.3 37.45 23.15 37.2 23.0 37.05 23.05 37.5 23.0 38.7 22.55 40.1 22.3 40.45 22.3 40.5 22.1 40.8 21.5 41.45 21.3 41.6 21.2 41.7 21.15 41.7 21.0 41.85 20.55 42.15 Q20.2 42.35 19.8 42.5 L19.5 42.55 19.15 42.7 18.7 42.75 18.45 42.75 18.05 42.8 17.9 42.8 17.55 42.75 17.45 42.7 15.95 42.3 15.3 41.9 15.25 41.85 15.2 41.85 15.15 41.8 14.95 41.65 14.9 41.65 14.85 41.6 14.85 41.65 15.2 42.7 15.35 43.0 Q15.6 43.55 15.2 44.1 L14.45 44.7 14.25 44.75 14.15 44.75 14.0 44.85 13.75 44.95 13.5 45.0 13.45 45.0 13.4 45.05 13.2 45.15 12.75 45.2 Q12.15 45.2 11.7 44.75 11.6 45.7 10.5 45.95 L8.7 46.3 8.55 46.3 8.3 46.4 8.05 46.4 7.95 46.45 7.45 46.55 7.2 46.55 7.05 46.65 6.4 46.75 Q5.55 46.75 5.15 46.05 L4.85 46.65 Q4.5 47.1 3.75 47.1 L3.55 47.1 3.25 47.15 2.6 47.15 2.25 47.2 1.25 47.2 1.15 47.25 0.25 47.25 -0.15 47.3 -0.2 47.3 Q-1.0 47.3 -1.45 46.65 -1.8 47.3 -2.6 47.3 L-2.95 47.3 -3.2 47.25 -3.65 47.25 Q-5.1 47.05 -5.4 45.8 L-5.45 45.65 -5.7 45.6 -6.2 45.6 -6.2 45.65 Q-6.3 46.2 -6.75 46.45 -7.05 46.75 -7.55 46.75 L-7.9 46.75 -8.25 46.7 -8.45 46.65 -8.85 46.65 Q-9.35 46.6 -9.65 46.35 -10.35 45.8 -10.2 45.05 L-10.1 44.55 -10.95 45.05 -11.9 45.35 -12.4 45.35 -12.65 45.4 -13.1 45.4 -13.25 45.35 -15.4 44.85 -16.75 44.4 Q-18.25 43.95 -18.1 42.7 -18.5 43.35 -19.15 43.35 L-19.9 43.15 -19.95 43.1 -20.0 43.1 -20.15 42.95 -20.25 42.9 -20.4 42.85 -20.85 42.65 -20.95 42.55 -21.0 42.55 -21.05 42.5 -21.2 42.4 -22.65 41.7 -22.7 41.65 -23.8 41.05 -24.55 40.25 Q-24.8 39.6 -24.45 38.95 L-23.9 37.9 -23.85 37.85 -23.95 37.9 -24.3 38.2 -24.65 38.7 -24.85 38.9 -24.9 39.0 Q-25.35 39.5 -25.95 39.5 -26.6 39.5 -27.05 39.1 L-27.25 38.9 -27.7 38.55 -27.9 38.35 -28.35 37.5 Q-28.45 36.95 -28.05 36.5 L-28.0 36.45 -27.65 36.0 -27.5 35.85 -27.4 35.7 -27.35 35.6 -28.2 35.3 -28.55 34.75 -28.7 34.0 -29.45 34.9 -29.5 35.0 -29.65 35.2 Q-30.05 35.7 -30.7 35.7 L-31.6 35.35 -31.85 35.1 -32.05 34.95 -32.2 34.8 -32.45 34.65 Q-33.1 34.1 -33.0 33.25 L-32.95 33.2 -32.65 32.6 -32.4 32.25 -32.1 31.95 -32.0 31.75 -31.65 31.4 -30.45 29.9 -30.05 29.5 -29.8 29.15 -29.65 29.05 -29.45 28.75 -29.25 28.55 -29.1 28.35 M-24.55 -29.45 L-24.5 -29.45 -24.55 -29.55 -24.65 -29.7 -24.65 -29.4 -24.55 -29.45 M11.65 -42.1 L11.7 -42.15 11.75 -42.15 12.55 -42.4 13.0 -42.35 13.2 -42.3 13.2 -42.25 13.25 -42.25 13.9 -42.05 14.0 -42.05 14.15 -42.0 14.45 -41.95 Q15.15 -41.75 15.4 -41.35 15.65 -40.85 15.5 -40.5 15.45 -40.05 14.95 -39.55 L14.8 -39.4 14.65 -39.15 14.45 -38.95 14.15 -38.55 13.1 -37.4 12.85 -37.15 12.5 -36.7 12.5 -36.65 12.45 -36.6 12.35 -36.55 12.3 -36.5 12.3 -36.45 11.85 -36.0 11.8 -35.9 11.7 -35.8 11.2 -35.1 11.2 -35.0 11.05 -34.45 10.95 -34.3 10.95 -34.15 10.75 -33.25 10.7 -33.15 10.65 -32.85 10.15 -32.05 9.3 -31.75 8.95 -31.8 8.7 -31.9 8.65 -31.95 8.45 -31.95 8.0 -32.1 7.85 -32.1 7.5 -32.2 Q6.9 -32.35 6.6 -32.95 6.35 -33.5 6.5 -34.05 L6.6 -34.4 6.65 -34.45 6.7 -34.7 6.85 -35.2 6.85 -35.3 6.9 -35.35 6.95 -35.7 7.05 -36.05 7.05 -36.25 7.1 -36.4 7.05 -36.6 7.05 -36.7 7.0 -36.8 7.0 -37.0 6.75 -38.25 6.75 -38.35 6.7 -38.65 6.65 -38.8 6.65 -38.9 6.5 -39.35 6.25 -40.65 6.2 -40.8 Q5.85 -40.05 5.1 -40.0 L5.05 -40.0 5.05 -39.95 4.85 -39.95 4.45 -40.0 4.2 -40.0 4.15 -38.85 4.1 -38.6 4.1 -38.45 4.05 -38.1 4.05 -36.9 4.0 -36.5 3.95 -36.3 3.95 -35.2 3.9 -34.9 3.9 -34.4 Q3.85 -33.8 3.45 -33.4 3.0 -33.05 2.35 -33.05 L2.2 -33.05 1.85 -33.1 1.5 -33.1 1.2 -33.15 0.9 -33.15 Q-0.05 -33.15 -0.3 -34.25 L-0.35 -34.85 -0.35 -34.95 -0.3 -35.25 -0.2 -37.4 -0.1 -37.95 -0.1 -38.25 -0.05 -38.55 -0.05 -39.3 0.0 -39.65 0.0 -40.0 0.05 -40.15 0.05 -40.35 -0.65 -40.35 Q-0.95 -40.35 -1.3 -40.6 L-1.3 -40.05 -1.25 -39.8 -1.25 -39.3 -1.2 -39.0 -1.1 -36.7 -1.05 -36.45 -1.05 -36.1 -0.95 -35.1 -0.95 -34.95 -0.9 -34.6 Q-0.85 -34.05 -1.25 -33.6 -1.65 -33.2 -2.2 -33.15 L-2.5 -33.15 -2.75 -33.1 -3.45 -33.1 -3.7 -33.05 -3.8 -33.05 -4.4 -33.2 -5.0 -32.95 -5.3 -32.9 -5.55 -32.9 -5.85 -32.8 -6.6 -32.65 -7.0 -32.6 -7.15 -32.6 -7.4 -32.5 -7.7 -32.5 -7.8 -32.45 -8.35 -32.35 -8.55 -32.3 -8.75 -32.25 -9.45 -32.15 -9.85 -32.2 -10.3 -32.0 -10.55 -31.85 -10.95 -31.7 -12.0 -31.45 Q-12.65 -31.45 -13.3 -32.1 L-13.4 -32.3 -13.45 -32.3 -14.1 -32.05 -14.3 -31.95 -14.3 -31.8 Q-14.15 -31.35 -14.35 -30.8 -14.6 -30.25 -15.3 -30.0 L-15.85 -29.8 -15.95 -29.75 -16.25 -29.65 -16.45 -29.55 -16.75 -29.3 -16.85 -29.25 -16.9 -29.25 -16.95 -29.2 -17.05 -29.15 -17.1 -29.15 -17.15 -29.1 -17.65 -28.7 -17.8 -28.65 -17.9 -28.6 -17.95 -28.55 -18.0 -28.55 -18.2 -28.45 -19.2 -27.75 -19.65 -27.5 -19.7 -27.45 -20.9 -26.7 -21.7 -26.45 -21.75 -26.45 -22.15 -25.85 Q-22.9 -25.15 -23.95 -25.15 L-25.2 -25.2 -25.05 -25.05 Q-24.65 -24.55 -24.7 -24.05 -24.7 -23.5 -25.1 -23.1 L-25.4 -22.9 -25.5 -22.85 -26.3 -22.05 Q-26.75 -21.7 -27.2 -21.7 -27.8 -21.7 -28.3 -22.2 L-28.55 -22.5 -28.6 -22.55 -28.65 -22.65 -29.05 -23.05 -29.4 -23.5 -29.55 -23.65 -29.65 -23.8 -30.35 -24.45 -33.6 -28.05 -34.15 -28.8 Q-34.45 -29.75 -33.75 -30.4 L-33.3 -30.8 -33.2 -30.85 -33.2 -30.9 -33.0 -31.05 -32.45 -31.55 -32.35 -31.7 -32.15 -31.85 -31.8 -32.2 -31.05 -32.8 -30.3 -33.25 -30.2 -33.25 -30.1 -33.3 -29.6 -33.45 -29.55 -33.5 -29.45 -33.5 -28.6 -33.6 -28.4 -33.6 -28.3 -33.55 -27.7 -33.45 -26.7 -33.0 -26.95 -33.45 -27.2 -33.75 -27.6 -34.7 Q-27.7 -35.7 -26.9 -36.15 L-26.7 -36.3 -26.5 -36.4 -26.2 -36.6 -25.85 -36.8 -24.95 -37.4 -24.8 -37.45 -24.35 -37.8 -23.3 -38.4 -23.05 -38.6 -22.25 -38.85 Q-21.45 -38.85 -21.05 -38.2 L-20.85 -37.85 -20.7 -37.65 -20.5 -37.3 Q-20.2 -36.85 -20.3 -36.35 L-20.4 -35.9 Q-19.6 -35.8 -19.2 -35.2 L-19.1 -35.05 -19.15 -35.5 -19.15 -35.65 -19.2 -35.8 -19.4 -36.9 -19.4 -37.05 -19.45 -37.35 -19.45 -37.75 -19.5 -37.9 Q-20.0 -40.1 -18.4 -40.75 L-17.05 -41.25 -16.95 -41.3 -15.8 -41.6 -15.25 -41.55 -14.1 -40.7 -13.8 -40.25 -13.7 -40.15 -13.5 -39.9 -13.5 -39.85 -13.45 -39.85 -13.15 -39.4 -13.1 -39.25 -12.95 -39.1 -12.95 -39.05 -12.5 -38.4 -12.45 -38.35 -12.35 -38.15 -11.85 -37.5 -11.8 -37.45 -11.75 -37.3 -11.7 -37.25 -11.65 -37.15 -11.7 -37.45 -11.7 -37.7 -11.75 -37.8 -11.8 -37.95 -12.15 -39.8 -12.15 -39.95 -12.2 -39.95 -12.35 -40.8 -12.35 -40.95 -12.5 -41.45 -12.25 -42.55 -11.4 -43.1 -10.4 -43.3 -10.25 -43.3 -10.2 -43.35 -10.0 -43.4 -9.7 -43.4 Q-8.55 -43.4 -8.3 -42.2 L-8.25 -41.9 -8.25 -41.7 -8.2 -41.6 -8.2 -41.45 -8.15 -41.35 -8.1 -41.1 -8.1 -40.85 -7.9 -39.8 -7.85 -39.7 -7.5 -37.9 -7.45 -37.3 -7.3 -36.75 -7.2 -36.75 -6.05 -37.0 -5.9 -37.0 -5.6 -37.1 -5.35 -37.1 -5.35 -37.15 -5.4 -37.45 -5.55 -39.95 -5.55 -40.8 -5.6 -41.15 -5.6 -41.6 -5.7 -42.5 -5.45 -43.55 -4.6 -44.15 -4.0 -44.15 -3.75 -44.2 -3.3 -44.2 -3.2 -44.25 -2.85 -44.25 Q-2.35 -44.25 -1.9 -43.8 L-1.8 -43.7 Q-1.4 -44.4 -0.5 -44.4 L-0.35 -44.4 0.0 -44.35 0.6 -44.35 1.35 -44.25 2.0 -44.25 2.35 -44.2 3.15 -44.2 3.2 -44.15 3.8 -44.15 3.85 -44.1 4.15 -44.1 4.5 -44.05 5.05 -44.05 5.5 -43.95 5.55 -43.9 5.6 -43.9 6.25 -43.35 Q6.55 -43.8 7.2 -43.8 L7.8 -43.7 7.9 -43.65 8.1 -43.6 8.45 -43.55 8.7 -43.45 8.8 -43.45 9.05 -43.4 9.7 -43.1 Q10.2 -42.7 10.3 -42.05 L10.35 -41.6 10.35 -41.5 10.55 -40.85 10.55 -40.8 10.65 -40.95 11.65 -42.1 M27.85 -34.55 L28.15 -34.25 28.4 -34.05 28.5 -33.95 28.6 -33.9 28.8 -33.7 Q29.55 -32.95 29.25 -32.15 L29.25 -32.1 29.2 -32.05 28.85 -31.45 28.75 -31.2 28.45 -30.7 28.45 -30.65 28.3 -30.45 28.4 -30.5 28.75 -30.8 29.35 -31.2 Q29.9 -31.75 30.45 -31.75 30.95 -31.75 31.4 -31.35 L31.7 -31.05 32.05 -30.8 32.05 -30.75 32.1 -30.7 32.35 -30.55 Q33.15 -29.85 32.8 -28.95 L32.45 -28.4 31.9 -28.0 30.65 -27.05 30.6 -27.05 30.05 -26.7 29.7 -26.4 29.2 -26.1 29.1 -26.0 29.05 -26.0 29.0 -25.95 26.45 -24.15 26.4 -24.15 26.35 -24.1 26.15 -24.0 25.65 -23.65 25.45 -23.55 25.3 -23.45 24.5 -23.2 24.3 -23.2 Q23.7 -23.2 23.25 -23.65 L22.9 -24.0 22.7 -24.15 22.55 -24.3 22.35 -24.45 22.1 -24.7 22.05 -24.7 21.85 -24.9 Q21.2 -25.45 21.35 -26.25 21.5 -27.15 22.35 -28.35 L22.35 -28.4 22.45 -28.5 22.6 -28.8 22.6 -28.85 22.65 -28.9 22.75 -29.05 22.9 -29.35 23.0 -29.5 23.6 -30.6 23.6 -30.65 23.85 -31.05 23.95 -31.25 24.2 -31.6 24.3 -31.85 24.5 -32.15 24.55 -32.3 24.6 -32.35 24.45 -32.35 23.9 -32.45 23.85 -32.45 23.15 -32.85 22.65 -32.15 22.55 -31.9 22.35 -31.7 22.15 -31.25 21.3 -29.9 21.2 -29.7 20.6 -28.75 20.5 -28.55 20.4 -28.45 20.35 -28.3 20.2 -28.05 Q19.8 -27.4 19.05 -27.4 18.55 -27.4 18.1 -27.7 L17.8 -27.9 17.5 -28.05 17.25 -28.25 17.2 -28.25 17.2 -28.3 17.0 -28.4 Q16.15 -28.9 16.45 -29.95 L16.7 -30.45 16.75 -30.55 16.95 -30.85 17.0 -30.95 17.65 -31.9 18.0 -32.6 18.25 -32.9 18.35 -33.05 18.5 -33.35 18.7 -33.6 18.75 -33.7 18.85 -33.85 19.05 -34.25 19.45 -34.8 19.5 -35.0 19.6 -35.15 19.45 -35.25 19.0 -35.45 Q18.55 -35.7 18.4 -36.25 18.2 -36.95 18.5 -37.5 L18.6 -37.7 18.85 -38.0 18.95 -38.2 19.15 -38.5 Q19.55 -39.15 20.3 -39.15 L21.2 -38.9 21.7 -38.55 22.0 -38.4 23.45 -37.45 23.65 -37.35 23.7 -37.3 23.75 -37.3 24.15 -37.05 24.2 -37.0 24.5 -36.85 24.7 -36.7 24.75 -36.65 24.85 -36.6 25.3 -36.3 25.8 -36.05 26.15 -35.75 26.2 -35.7 26.2 -35.65 26.5 -34.85 26.9 -34.9 27.85 -34.55" fill="#cfa00a" fill-rule="evenodd" stroke="none"/>
    <path d="M-26.75 27.5 L-26.45 27.2 -25.8 26.25 -25.35 26.1 -25.2 26.2 -25.15 26.25 -25.1 26.25 -25.1 26.3 -25.05 26.3 -24.4 26.8 Q-24.15 27.05 -24.3 27.85 L-24.35 28.55 -24.4 28.85 -24.4 29.15 -24.5 30.5 -24.4 31.15 -23.85 31.1 -23.15 30.9 -22.9 30.8 -22.45 30.7 -21.0 30.05 -20.85 30.0 -20.45 30.1 -19.55 30.9 -19.45 31.15 -19.5 31.4 -19.75 31.7 -20.15 32.2 -23.8 36.5 -24.15 37.0 -24.35 37.2 -24.4 37.3 -25.1 37.25 -25.55 36.9 -25.8 36.65 -26.0 36.5 Q-26.25 36.4 -26.0 36.05 L-25.2 35.05 -24.85 34.7 -24.1 33.8 -24.0 33.65 -24.0 33.35 -24.65 33.3 -25.6 33.45 -26.3 33.45 -26.35 33.3 -26.4 32.9 -26.4 31.55 -26.5 30.85 -26.75 30.75 -27.15 31.05 -27.85 31.95 -28.25 32.35 -28.95 33.2 -29.15 33.5 Q-29.35 33.75 -29.7 33.5 L-30.55 32.8 -30.7 32.4 -30.6 32.15 -28.4 29.45 -28.05 29.1 -27.05 27.9 -26.9 27.75 -26.75 27.5" fill="#fbd248" fill-rule="evenodd" stroke="none"/>
    <path d="M-26.75 27.5 L-26.9 27.75 -27.05 27.9 -28.05 29.1 -28.4 29.45 -30.6 32.15 -30.7 32.4 -30.55 32.8 -29.9 33.3 -29.7 33.5 -29.4 33.6 -29.15 33.5 -28.95 33.2 -28.25 32.35 -27.85 31.95 -27.15 31.05 -26.75 30.75 -26.7 30.75 -26.5 30.85 -26.4 31.55 -26.4 32.9 -26.35 33.3 -26.3 33.45 -26.0 33.55 -25.6 33.45 -24.3 33.25 -24.0 33.35 -24.0 33.65 -24.1 33.8 -24.85 34.7 -25.2 35.05 -26.0 36.05 Q-26.25 36.4 -26.0 36.5 L-25.8 36.65 -25.55 36.9 -25.1 37.25 -24.7 37.45 -24.4 37.3 -24.35 37.2 -24.15 37.0 -23.8 36.5 -23.25 35.95 -20.15 32.2 -19.75 31.7 -19.5 31.4 -19.45 31.15 -19.55 30.9 -20.45 30.1 -20.8 30.0 -20.85 30.0 -21.0 30.05 -22.45 30.7 -22.9 30.8 -23.15 30.9 -24.25 31.2 -24.4 31.15 -24.5 30.5 -24.4 28.85 -24.35 28.55 -24.3 27.85 Q-24.15 27.05 -24.4 26.8 L-25.05 26.3 -25.1 26.3 -25.1 26.25 -25.15 26.25 -25.2 26.2 -25.35 26.1 -25.5 26.1 Q-25.65 26.1 -25.8 26.25 L-26.45 27.2 -26.75 27.5 M-25.5 25.1 L-25.25 25.15 Q-24.9 25.15 -24.55 25.45 L-24.5 25.5 -24.2 25.7 -24.2 25.75 -24.1 25.8 -24.05 25.85 -23.8 26.05 Q-23.35 26.4 -23.25 26.95 L-23.3 27.95 -23.3 28.2 -23.4 28.95 -23.4 29.15 -23.45 29.4 -23.45 29.95 -23.25 29.85 -22.95 29.75 -22.85 29.75 -22.65 29.65 -22.2 29.5 -21.55 29.2 -21.5 29.15 -21.35 29.15 -21.3 29.1 -21.05 29.05 -21.0 29.0 -20.8 29.0 Q-20.2 29.0 -19.8 29.35 L-19.35 29.75 -19.3 29.75 -19.1 29.9 -18.9 30.1 -18.9 30.15 Q-18.5 30.5 -18.4 31.05 -18.35 31.65 -18.7 32.05 L-19.0 32.35 -20.3 33.85 -20.95 34.7 -21.1 34.85 -22.5 36.6 -23.05 37.15 -23.1 37.3 -23.35 37.65 -23.65 37.95 Q-24.05 38.45 -24.7 38.45 L-25.75 38.0 -26.0 37.8 -26.15 37.65 -26.4 37.45 -26.45 37.4 -26.65 37.3 -27.1 36.45 Q-27.15 35.9 -26.8 35.45 L-26.7 35.35 -26.4 34.95 -26.1 34.65 -26.05 34.55 -26.9 34.2 -27.3 33.65 -27.4 32.9 -27.5 32.95 -28.15 33.85 -28.4 34.1 Q-28.75 34.6 -29.4 34.6 L-30.35 34.25 -30.75 33.85 -31.2 33.55 Q-31.8 33.05 -31.7 32.2 L-31.7 32.1 -31.4 31.5 -31.1 31.2 -30.4 30.3 -30.15 30.1 -29.4 29.15 -28.95 28.55 -28.8 28.4 -28.7 28.25 -27.95 27.45 -27.85 27.25 -27.75 27.15 -27.65 27.1 -27.6 27.0 -27.55 26.95 -27.5 26.85 -26.55 25.6 Q-26.15 25.1 -25.5 25.1" fill="#ac800a" fill-rule="evenodd" stroke="none"/>
    <path d="M-18.15 31.55 L-16.25 32.6 -15.9 32.75 -14.85 33.35 -14.4 33.55 Q-14.05 33.7 -14.25 34.05 L-14.45 34.4 -14.65 34.9 -14.9 35.1 -15.1 35.15 -15.4 35.05 -16.3 34.6 -16.55 34.4 -16.85 34.25 -17.9 34.35 -18.1 34.9 -17.9 35.3 -16.95 35.8 -16.5 36.1 -16.05 36.3 -15.75 36.5 -15.75 36.9 -15.9 37.2 -16.3 37.8 Q-16.55 38.15 -16.95 37.95 L-17.75 37.5 -18.0 37.4 -18.3 37.15 -18.65 37.05 -19.0 36.9 -19.4 37.25 -19.7 38.0 -19.05 38.6 -17.7 39.3 -17.45 39.45 -17.25 39.55 -17.15 39.85 -17.3 40.35 -17.35 40.4 -17.45 40.75 -17.6 41.0 Q-17.75 41.4 -18.15 41.2 -18.15 41.1 -18.3 41.1 L-18.5 40.95 -19.0 40.75 -19.95 40.2 -20.5 39.95 -21.7 39.25 -22.05 39.1 -22.3 38.85 -22.3 38.35 -22.1 38.05 -21.95 37.65 -21.85 37.5 -21.1 36.1 -20.9 35.65 -20.0 34.05 -19.55 33.1 -19.2 32.6 -18.95 32.05 -18.65 31.6 -18.15 31.55" fill="#fbd248" fill-rule="evenodd" stroke="none"/>
    <path d="M-18.35 31.5 L-18.65 31.6 -18.95 32.05 -19.2 32.6 -19.55 33.1 -20.0 34.05 -20.9 35.65 -21.1 36.1 -21.85 37.5 -21.95 37.65 -22.1 38.05 -22.3 38.35 -22.3 38.85 -22.05 39.1 -21.7 39.25 -21.4 39.45 -19.0 40.75 -18.5 40.95 -18.3 41.1 Q-18.15 41.1 -18.15 41.2 L-17.9 41.25 -17.6 41.0 -17.45 40.75 -17.35 40.4 -17.3 40.35 -17.15 39.85 -17.25 39.55 -17.45 39.45 -17.7 39.3 -19.05 38.6 -19.7 38.0 -19.4 37.25 -19.0 36.9 -18.65 37.05 -18.3 37.15 -18.0 37.4 -17.75 37.5 -16.95 37.95 -16.65 38.05 Q-16.4 38.05 -16.3 37.8 L-15.9 37.2 -15.75 36.9 -15.75 36.5 -16.05 36.3 -16.5 36.1 -16.95 35.8 -17.9 35.3 -18.1 34.9 -17.9 34.35 -17.45 34.05 -16.85 34.25 -16.55 34.4 -16.3 34.6 -15.4 35.05 -15.1 35.15 -15.05 35.15 -14.9 35.1 -14.65 34.9 -14.45 34.4 -14.25 34.05 Q-14.05 33.7 -14.4 33.55 L-14.85 33.35 -16.25 32.6 -18.15 31.55 -18.35 31.5 M-18.35 30.5 L-17.7 30.65 -15.8 31.7 -15.4 31.85 -15.3 31.95 -15.05 32.05 -14.4 32.45 -14.2 32.5 -13.95 32.65 Q-12.75 33.3 -13.35 34.55 L-13.55 34.85 -13.8 35.4 -14.45 36.0 -14.8 36.15 Q-14.55 36.85 -14.9 37.4 L-15.3 38.05 -15.4 38.3 -15.5 38.4 Q-15.9 38.95 -16.45 39.0 -16.1 39.45 -16.15 39.9 L-16.4 40.8 -16.4 40.85 -16.5 41.1 -16.55 41.15 -16.55 41.2 -16.7 41.5 Q-17.1 42.25 -17.9 42.25 L-18.65 42.05 -18.75 41.95 -18.85 41.9 -18.9 41.9 -18.95 41.85 -19.5 41.6 -19.55 41.55 -19.7 41.5 -19.8 41.4 -19.95 41.35 -20.35 41.1 -20.95 40.85 -21.35 40.6 -21.4 40.55 -22.55 39.95 Q-23.15 39.7 -23.25 39.2 -23.5 38.55 -23.15 37.85 L-23.05 37.7 -23.0 37.6 -22.85 37.2 -22.5 36.5 -22.3 36.2 -21.9 35.4 -21.65 35.0 -21.2 34.05 -21.0 33.8 -20.95 33.65 -20.9 33.6 -20.85 33.45 -20.7 33.15 -20.2 32.35 -19.85 31.55 -19.25 30.8 Q-18.8 30.5 -18.35 30.5" fill="#ac800a" fill-rule="evenodd" stroke="none"/>
    <path d="M-15.8 41.75 L-13.7 34.8 -13.25 34.25 -12.15 34.5 -11.85 34.65 -11.55 34.75 -10.85 34.9 -10.65 35.0 -10.45 35.05 -10.25 35.15 -10.1 35.15 -9.6 35.4 -9.5 35.5 -9.25 35.65 -9.1 35.8 -8.95 35.9 -8.8 36.05 -8.65 36.15 -8.2 36.8 Q-7.75 37.55 -7.65 38.25 L-7.6 39.05 -7.7 39.95 -7.85 40.25 -7.95 40.7 -8.55 41.8 -8.85 42.2 -9.35 42.6 -10.1 43.05 -10.8 43.3 -11.9 43.3 -13.8 42.85 -13.8 42.8 -15.2 42.35 Q-15.95 42.15 -15.8 41.75 M-11.25 36.9 L-11.65 36.8 -11.9 36.85 -12.35 37.4 -13.25 40.3 -13.2 40.85 Q-13.0 41.1 -12.2 41.35 L-11.95 41.4 -11.05 41.4 -10.15 40.65 -9.75 39.9 -9.6 39.4 -9.6 39.05 -9.55 38.8 -9.7 38.3 -9.95 37.85 -10.25 37.4 Q-10.6 37.1 -11.25 36.9" fill="#fbd248" fill-rule="evenodd" stroke="none"/>
    <path d="M-11.5 38.1 L-11.55 38.2 -12.2 40.3 -11.9 40.4 -11.8 40.45 -11.65 40.45 -11.3 40.4 Q-10.9 40.3 -10.7 39.6 L-10.6 39.3 -10.6 38.8 -10.65 38.55 -10.75 38.5 -10.75 38.45 -10.8 38.4 -11.0 38.1 -11.45 37.9 -11.5 38.1 M-11.25 36.9 Q-10.6 37.1 -10.25 37.4 L-9.95 37.85 -9.7 38.3 -9.55 38.8 -9.6 39.05 -9.6 39.4 -9.75 39.9 -10.15 40.65 -11.05 41.4 -11.65 41.45 -12.2 41.35 Q-13.0 41.1 -13.2 40.85 L-13.25 40.3 -12.35 37.4 -11.9 36.85 -11.75 36.8 -11.65 36.8 -11.25 36.9 M-15.65 41.35 L-15.8 41.75 Q-15.95 42.15 -15.2 42.35 L-13.8 42.8 -13.8 42.85 -11.9 43.3 -10.8 43.3 -10.1 43.05 -9.35 42.6 -8.85 42.2 -8.25 41.3 -7.95 40.7 -7.85 40.25 -7.7 39.95 -7.6 39.05 -7.65 38.25 Q-7.75 37.55 -8.2 36.8 L-8.65 36.15 -8.8 36.05 -8.95 35.9 -9.1 35.8 -9.25 35.65 -9.5 35.5 -9.6 35.4 -10.1 35.15 -10.25 35.15 -10.45 35.05 -10.65 35.0 -10.85 34.9 -11.55 34.75 -11.85 34.65 -12.15 34.5 -13.25 34.25 -13.7 34.8 -14.55 37.6 -15.65 41.35 M-15.55 37.6 L-15.55 37.5 -15.5 37.3 -15.4 37.1 -14.75 34.95 -14.65 34.5 Q-14.25 33.35 -13.3 33.25 L-13.25 33.25 -11.85 33.55 -11.75 33.6 -11.55 33.65 -11.5 33.7 -11.3 33.8 -10.4 34.0 -10.35 34.05 -9.95 34.15 -9.9 34.2 -9.8 34.2 -8.95 34.65 -8.95 34.7 -8.65 34.85 -8.45 35.05 -8.3 35.15 -8.15 35.3 -8.0 35.4 -7.95 35.45 -7.35 36.2 Q-6.75 37.15 -6.65 38.15 L-6.6 39.05 -6.75 40.25 -6.85 40.45 -6.85 40.55 -7.0 41.0 -7.35 41.8 -7.8 42.45 -7.95 42.65 -7.95 42.7 -8.2 42.95 -8.45 43.15 -8.55 43.25 -8.7 43.35 -8.7 43.4 -8.75 43.4 -9.65 43.95 -10.65 44.25 -10.7 44.25 -10.7 44.3 -11.95 44.3 -14.1 43.8 -15.5 43.3 Q-16.5 43.0 -16.75 42.25 L-16.75 41.45 -16.65 41.2 -16.25 39.8 -16.25 39.65 -16.05 39.2 -15.65 37.8 -15.55 37.6" fill="#ac800a" fill-rule="evenodd" stroke="none"/>
    <path d="M-1.95 37.5 L-1.75 38.9 -1.75 39.1 -1.7 39.3 -1.45 41.0 -1.5 41.35 -1.4 41.6 -1.35 42.05 -1.35 42.4 -1.3 42.65 -1.25 43.25 -1.1 44.2 -1.1 44.45 -1.05 44.7 -1.05 45.05 Q-1.05 45.3 -1.6 45.2 L-2.25 45.15 -2.9 45.0 -3.15 44.55 -3.2 44.25 -3.25 44.1 -3.55 43.7 -4.65 43.5 -5.05 43.5 -5.55 43.65 -5.95 44.35 -6.05 44.6 -6.5 44.65 -7.1 44.55 -7.45 44.55 -7.8 44.45 -7.95 44.05 -7.85 43.8 -7.8 43.6 -7.7 43.4 -7.65 43.15 -7.5 42.7 -7.4 42.2 -7.15 41.5 -7.0 41.2 -6.55 39.8 -6.45 39.6 -6.05 38.35 -5.95 38.15 -5.75 37.6 Q-5.4 36.3 -4.6 36.4 L-4.3 36.45 -3.1 36.55 Q-2.55 36.55 -2.2 36.85 -2.0 37.1 -1.95 37.5 M-3.5 40.15 L-3.5 39.8 -3.65 39.1 Q-3.7 38.8 -3.9 38.8 L-4.1 38.9 -4.3 39.3 -4.45 39.65 -4.55 39.9 -4.6 40.2 -4.8 40.65 -4.9 41.05 Q-4.95 41.65 -4.2 41.75 L-3.65 41.75 -3.4 41.45 -3.35 41.3 -3.45 40.55 -3.5 40.15" fill="#fbd248" fill-rule="evenodd" stroke="none"/>
    <path d="M-3.5 40.15 L-3.45 40.55 -3.35 41.3 -3.4 41.45 -3.65 41.75 -4.2 41.75 Q-4.95 41.65 -4.9 41.05 L-4.8 40.65 -4.6 40.2 -4.55 39.9 -4.45 39.65 -4.3 39.3 -4.1 38.9 -3.9 38.8 Q-3.7 38.8 -3.65 39.1 L-3.5 39.8 -3.5 40.15 M-1.95 37.5 Q-2.0 37.1 -2.2 36.85 -2.6 36.55 -3.05 36.55 L-3.1 36.55 -4.3 36.45 -4.6 36.4 -4.75 36.4 Q-5.4 36.4 -5.75 37.6 L-5.95 38.15 -6.05 38.35 -6.45 39.6 -6.55 39.8 -7.0 41.2 -7.15 41.5 -7.4 42.2 -7.5 42.7 -7.65 43.15 -7.7 43.4 -7.8 43.6 -7.85 43.8 -7.95 44.05 -7.8 44.45 -7.45 44.55 -7.1 44.55 -6.5 44.65 -6.25 44.65 -6.05 44.6 -5.95 44.35 -5.55 43.65 -5.05 43.5 -4.65 43.5 -3.55 43.7 -3.25 44.1 -3.2 44.25 -3.15 44.55 -2.9 45.0 -2.25 45.15 -1.35 45.2 Q-1.05 45.2 -1.05 45.05 L-1.05 44.7 -1.1 44.45 -1.1 44.2 -1.3 42.65 -1.35 42.4 -1.35 42.05 -1.4 41.6 -1.5 41.35 -1.45 41.0 -1.7 39.3 -1.75 39.1 -1.75 38.9 -1.95 37.5 M-0.95 37.35 L-0.85 37.9 -0.85 38.0 -0.8 38.3 -0.8 38.35 -0.75 38.8 -0.75 39.0 -0.7 39.05 -0.7 39.15 -0.6 39.95 -0.6 40.2 -0.45 41.0 -0.5 41.2 -0.45 41.4 -0.45 41.45 -0.4 41.5 -0.4 41.65 -0.35 41.95 -0.35 42.3 -0.3 42.5 -0.25 43.25 -0.25 43.3 -0.15 44.05 -0.1 44.2 -0.1 44.25 -0.05 44.65 -0.05 45.15 Q-0.15 46.2 -1.35 46.2 L-1.95 46.2 -2.35 46.15 -3.45 45.85 Q-3.95 45.55 -4.15 44.75 L-4.15 44.6 -4.75 44.5 -4.9 44.5 -4.95 44.55 -5.45 45.35 -6.25 45.65 -6.6 45.65 -6.95 45.6 -7.15 45.55 -7.55 45.55 -8.4 45.25 Q-9.05 44.8 -8.95 43.95 L-8.75 43.3 -8.7 43.25 -8.7 43.15 -8.5 42.6 -8.35 41.95 -8.35 41.9 -8.05 41.15 -8.0 40.95 -7.95 40.9 -7.9 40.7 -7.4 39.25 -7.35 39.15 -7.0 38.1 -7.0 38.0 -6.8 37.55 -6.75 37.5 -6.75 37.45 -6.7 37.3 Q-6.2 35.4 -4.75 35.4 L-4.5 35.4 -3.15 35.55 -3.05 35.55 Q-2.05 35.55 -1.55 36.15 -1.0 36.7 -0.95 37.35" fill="#ac800a" fill-rule="evenodd" stroke="none"/>
    <path d="M0.25 38.35 L0.25 37.65 0.2 37.2 Q0.2 36.8 0.55 36.8 L1.3 36.8 1.85 36.7 Q2.25 36.7 2.3 37.15 L2.35 39.4 2.4 39.7 2.45 41.75 2.55 42.6 Q2.55 43.1 2.85 43.15 L3.75 43.15 4.2 43.1 4.65 43.1 5.05 43.05 Q5.45 43.0 5.45 43.4 L5.45 43.7 5.4 44.1 5.5 44.6 Q5.5 45.0 5.0 45.05 L3.15 45.1 2.75 45.15 1.6 45.15 1.1 45.25 Q0.6 45.25 0.6 44.65 L0.55 42.7 0.45 41.8 0.3 38.6 0.25 38.35" fill="#fbd248" fill-rule="evenodd" stroke="none"/>
    <path d="M0.55 36.8 Q0.2 36.8 0.2 37.2 L0.25 37.65 0.25 38.35 0.3 38.6 0.45 41.8 0.6 44.65 Q0.6 45.25 1.05 45.25 L1.1 45.25 1.6 45.15 2.75 45.15 3.15 45.1 5.0 45.05 Q5.5 45.0 5.5 44.6 L5.4 44.1 5.45 43.7 5.45 43.4 Q5.45 43.05 5.1 43.05 L5.05 43.05 4.65 43.1 4.2 43.1 3.75 43.15 2.85 43.15 Q2.55 43.1 2.55 42.6 L2.45 41.75 2.4 39.7 2.35 39.4 2.3 37.15 Q2.3 36.7 1.85 36.7 L1.3 36.8 0.55 36.8 M-0.45 36.25 Q-0.05 35.8 0.5 35.8 L1.25 35.8 1.4 35.75 1.6 35.75 1.8 35.7 1.85 35.7 Q2.45 35.7 2.85 36.1 3.25 36.5 3.3 37.1 L3.3 37.4 3.25 37.55 3.3 37.65 3.35 39.3 3.35 39.4 3.4 39.65 3.4 40.25 3.45 40.5 3.45 41.7 3.5 42.15 3.7 42.15 3.9 42.1 4.6 42.1 4.7 42.05 5.1 42.05 Q6.35 42.05 6.45 43.35 L6.45 43.75 6.4 43.95 6.4 44.05 6.45 44.15 6.5 44.5 Q6.5 45.2 6.15 45.55 5.8 45.95 5.05 46.05 L4.25 46.05 3.9 46.1 3.0 46.1 2.8 46.15 1.7 46.15 1.5 46.2 1.15 46.25 1.05 46.25 Q0.5 46.25 0.1 45.85 -0.35 45.45 -0.4 44.65 L-0.55 41.85 -0.6 40.2 -0.65 39.9 -0.7 38.65 -0.75 38.4 -0.75 37.75 -0.8 37.55 -0.8 37.25 Q-0.8 36.6 -0.45 36.25" fill="#ac800a" fill-rule="evenodd" stroke="none"/>
    <path d="M5.8 37.3 L5.65 36.85 Q5.65 36.45 5.95 36.4 L7.2 36.15 Q7.6 36.1 7.75 36.45 L7.9 37.65 8.0 38.0 8.1 38.7 8.2 39.0 8.55 41.0 8.8 41.85 9.2 42.3 10.05 42.2 10.5 42.05 11.0 42.0 11.35 41.9 Q11.75 41.8 11.75 42.2 L11.85 42.9 12.0 43.35 Q12.1 43.8 11.6 43.9 L11.1 43.95 9.75 44.25 9.1 44.35 8.8 44.45 8.25 44.5 7.8 44.65 Q7.45 44.7 7.15 44.15 L6.9 42.75 6.85 42.25 6.6 41.35 6.0 38.25 5.9 37.95 5.8 37.3" fill="#fbd248" fill-rule="evenodd" stroke="none"/>
    <path d="M4.75 37.4 L4.7 37.1 Q4.6 36.45 4.9 36.0 5.2 35.55 5.75 35.45 L6.5 35.3 6.65 35.25 6.7 35.25 6.75 35.2 6.8 35.2 7.0 35.15 7.35 35.15 Q8.45 35.15 8.7 36.3 L8.75 36.55 8.75 36.7 8.8 36.85 8.8 37.0 8.85 37.1 8.85 37.3 8.9 37.45 8.9 37.55 9.1 38.45 9.2 38.8 9.65 41.25 9.75 41.2 9.85 41.2 10.75 41.0 10.9 41.0 11.15 40.9 11.45 40.9 Q12.55 40.9 12.75 42.0 L12.8 42.4 12.85 42.55 12.85 42.7 12.9 42.8 13.0 43.15 Q13.25 44.55 11.8 44.85 L11.0 45.0 10.65 45.1 9.95 45.2 9.4 45.35 9.2 45.35 8.7 45.45 8.0 45.65 7.65 45.65 Q6.5 45.65 6.2 44.35 L5.9 42.65 5.45 40.7 5.45 40.45 5.3 39.95 5.25 39.7 5.25 39.5 5.15 39.2 5.0 38.55 5.0 38.45 4.8 37.6 4.8 37.55 4.75 37.4 M5.8 37.3 L5.9 37.95 6.0 38.25 6.6 41.35 6.85 42.25 6.9 42.75 7.15 44.15 7.65 44.65 7.8 44.65 8.25 44.5 8.8 44.45 9.1 44.35 9.75 44.25 11.1 43.95 11.6 43.9 Q12.1 43.8 12.0 43.35 L11.85 42.9 11.75 42.2 11.45 41.9 11.35 41.9 11.0 42.0 10.5 42.05 10.05 42.2 9.25 42.3 9.2 42.3 8.8 41.85 8.55 41.0 8.2 39.0 8.1 38.7 8.0 38.0 7.9 37.65 7.75 36.45 Q7.7 36.15 7.35 36.15 L7.2 36.15 5.95 36.4 Q5.65 36.45 5.65 36.85 L5.8 37.3" fill="#ac800a" fill-rule="evenodd" stroke="none"/>
    <path d="M13.0 34.75 L13.25 35.05 14.95 40.1 15.0 40.4 15.5 41.85 15.7 42.2 15.45 42.65 14.15 43.1 13.7 42.95 13.6 42.7 13.4 41.9 12.9 40.6 12.85 40.4 12.75 40.15 11.7 36.9 11.6 36.5 11.25 35.75 Q11.15 35.3 11.4 35.1 L11.6 35.05 12.0 34.9 12.45 34.8 12.7 34.7 13.0 34.75" fill="#fbd248" fill-rule="evenodd" stroke="none"/>
    <path d="M13.0 34.75 L12.8 34.65 12.45 34.8 12.0 34.9 11.6 35.05 11.4 35.1 Q11.15 35.3 11.25 35.75 L11.6 36.5 11.7 36.9 12.75 40.15 12.85 40.4 12.9 40.6 13.4 41.9 13.6 42.7 13.7 42.95 Q13.7 43.1 14.0 43.1 L14.15 43.1 15.45 42.65 15.7 42.2 15.5 41.85 15.0 40.4 14.95 40.1 13.35 35.45 13.25 35.05 13.0 34.75 M11.5 34.05 L11.7 33.95 12.15 33.85 12.2 33.8 12.8 33.65 13.55 33.9 14.2 34.7 14.3 35.05 14.3 35.1 14.35 35.2 15.3 38.1 15.35 38.3 15.65 39.0 15.75 39.45 15.9 39.8 15.9 39.9 15.95 40.1 16.05 40.3 16.45 41.5 16.65 41.9 Q16.85 42.5 16.5 43.0 L15.75 43.6 15.55 43.65 15.45 43.7 15.0 43.85 14.8 43.95 14.7 43.95 14.45 44.05 14.0 44.1 Q13.2 44.1 12.85 43.45 L12.65 43.0 12.45 42.25 11.95 40.95 11.9 40.75 11.9 40.7 11.55 39.55 11.4 39.2 10.95 37.75 10.85 37.55 10.65 36.9 10.65 36.8 10.5 36.5 10.35 36.05 Q10.15 35.55 10.3 35.0 10.5 34.45 11.0 34.2 L11.1 34.2 11.25 34.15 11.3 34.1 11.5 34.05" fill="#ac800a" fill-rule="evenodd" stroke="none"/>
    <path d="M22.9 34.9 L23.2 35.65 23.35 36.55 23.3 37.5 23.0 38.55 22.15 39.6 21.85 39.85 21.4 40.15 20.2 40.65 19.95 40.65 19.25 40.75 18.9 40.65 17.65 40.3 17.1 39.95 16.8 39.8 16.25 39.15 15.6 38.05 15.45 37.65 15.25 36.75 15.2 36.2 15.25 35.9 15.25 35.35 15.35 35.05 15.4 34.7 15.55 34.45 15.65 34.15 16.15 33.45 16.4 33.2 17.25 32.6 18.45 32.2 19.4 32.15 20.2 32.35 20.5 32.5 20.75 32.55 21.8 33.3 22.1 33.65 22.9 34.9 M18.05 34.45 L17.8 34.6 17.45 35.05 Q17.25 35.35 17.2 35.65 L17.15 36.35 17.35 37.2 17.4 37.25 17.65 37.65 17.95 38.0 18.45 38.45 19.05 38.7 19.4 38.75 19.6 38.7 19.9 38.7 20.7 38.3 21.15 37.6 21.35 36.75 21.05 35.65 20.85 35.3 20.8 35.15 20.7 35.0 20.1 34.5 19.7 34.35 19.35 34.2 18.65 34.2 18.05 34.45" fill="#fbd248" fill-rule="evenodd" stroke="none"/>
    <path d="M20.0 35.75 L19.6 35.35 19.55 35.35 19.35 35.25 19.2 35.2 18.85 35.2 18.35 35.45 18.35 35.55 18.3 35.55 18.2 35.8 18.15 35.85 18.15 35.9 18.1 36.25 18.15 36.35 18.25 36.7 18.45 37.1 18.5 37.1 18.55 37.2 19.0 37.6 19.35 37.75 19.4 37.75 19.6 37.7 19.65 37.7 19.75 37.65 19.9 37.6 19.95 37.55 20.05 37.5 20.25 37.2 20.35 36.8 20.3 36.65 20.25 36.3 20.0 35.75 M17.8 34.6 L18.05 34.45 18.65 34.2 19.35 34.2 19.7 34.35 20.1 34.5 20.7 35.0 20.8 35.15 20.85 35.3 21.05 35.65 21.35 36.75 21.15 37.6 20.7 38.3 19.9 38.7 19.6 38.7 19.4 38.75 19.4 38.8 Q18.95 38.8 18.45 38.45 L17.95 38.0 17.65 37.65 17.4 37.25 17.35 37.2 17.15 36.35 17.2 35.65 Q17.25 35.35 17.45 35.05 L17.8 34.6 M21.8 32.05 L22.45 32.55 22.9 33.0 23.8 34.45 24.15 35.45 24.2 35.55 24.35 36.4 24.3 37.65 23.85 39.05 22.8 40.4 22.6 40.55 22.5 40.6 22.45 40.65 21.85 41.05 21.1 41.4 20.45 41.6 20.0 41.65 19.85 41.65 19.75 41.7 19.35 41.75 19.15 41.7 18.8 41.65 18.7 41.65 17.25 41.2 16.5 40.8 16.5 40.75 16.45 40.75 16.4 40.7 16.2 40.6 16.2 40.55 16.15 40.55 15.45 39.75 15.4 39.7 15.4 39.65 14.7 38.55 14.5 37.95 14.25 36.85 14.2 36.2 14.25 35.85 14.25 35.2 14.35 34.9 14.35 34.75 14.6 34.0 14.65 33.95 14.75 33.75 15.2 33.0 15.4 32.85 15.4 32.8 15.5 32.7 15.7 32.45 16.8 31.7 18.35 31.2 18.45 31.2 19.35 31.15 19.5 31.15 20.8 31.5 20.9 31.55 20.95 31.55 20.95 31.6 21.05 31.6 21.15 31.65 Q21.5 31.75 21.8 32.05 M22.9 34.9 L22.1 33.65 21.8 33.3 20.75 32.55 20.5 32.5 20.2 32.35 19.4 32.15 19.35 32.15 18.45 32.2 17.25 32.6 16.4 33.2 16.15 33.45 15.65 34.15 15.55 34.45 15.4 34.7 15.35 35.05 15.25 35.35 15.25 35.9 15.2 36.2 15.25 36.75 15.45 37.65 15.6 38.05 16.25 39.15 16.8 39.8 17.1 39.95 17.65 40.3 18.9 40.65 19.25 40.75 19.35 40.75 19.95 40.65 20.2 40.65 21.4 40.15 21.85 39.85 22.15 39.6 23.0 38.55 23.3 37.5 23.35 36.55 23.2 35.65 22.9 34.9" fill="#ac800a" fill-rule="evenodd" stroke="none"/>
    <path d="M27.0 27.0 L29.15 29.65 29.75 30.35 30.45 31.2 30.55 31.3 30.9 31.75 31.5 32.35 Q31.85 32.7 31.45 32.95 L31.3 33.1 30.75 33.5 30.55 33.7 29.8 33.65 27.85 32.95 27.55 32.9 27.3 32.8 26.15 32.45 25.65 32.2 25.45 32.15 25.25 32.2 Q25.1 32.2 25.25 32.5 L26.2 33.7 26.4 33.9 26.5 34.05 27.4 35.05 27.45 35.15 27.75 35.4 Q28.0 35.65 27.75 35.9 L26.85 36.8 26.55 36.95 26.25 36.8 24.65 34.8 24.4 34.6 23.45 33.35 22.95 32.85 22.0 31.7 21.85 31.5 21.35 30.95 21.2 30.75 Q21.1 30.6 21.25 30.45 L21.45 30.3 21.55 30.25 21.75 30.05 21.85 30.0 21.9 29.95 22.05 29.85 22.35 29.6 22.45 29.6 22.65 29.45 22.9 29.45 26.9 30.75 27.35 30.95 27.65 31.0 Q27.8 30.95 27.4 30.55 L26.85 29.8 26.55 29.5 26.25 29.1 25.05 27.75 25.0 27.4 25.7 26.85 25.85 26.75 26.2 26.4 Q26.4 26.2 26.7 26.55 L27.0 27.0" fill="#fbd248" fill-rule="evenodd" stroke="none"/>
    <path d="M27.5 25.9 L27.65 26.2 27.8 26.35 29.15 28.05 29.35 28.25 29.7 28.75 29.9 28.95 30.5 29.7 31.25 30.55 31.35 30.7 31.4 30.8 31.55 30.95 31.65 31.1 32.3 31.75 Q32.65 32.15 32.65 32.75 32.55 33.4 32.05 33.75 L31.9 33.9 31.4 34.25 31.4 34.3 31.2 34.45 Q30.75 34.8 30.3 34.8 L29.4 34.55 28.25 34.2 27.8 34.0 27.85 34.05 28.1 34.35 28.55 34.8 28.8 35.7 28.6 36.45 28.25 36.8 28.25 36.85 28.1 36.95 27.5 37.55 26.65 37.95 26.5 37.95 Q25.95 37.95 25.45 37.45 L25.45 37.4 25.4 37.35 25.15 37.05 25.05 36.95 24.65 36.4 24.4 36.15 24.25 35.9 24.0 35.65 23.9 35.5 23.85 35.4 23.7 35.3 22.85 34.2 22.8 34.2 22.8 34.15 22.65 33.95 22.2 33.5 21.55 32.65 21.25 32.35 21.15 32.2 20.55 31.6 20.25 31.15 Q19.9 30.25 20.6 29.65 L20.85 29.5 20.95 29.4 21.05 29.35 21.1 29.3 21.2 29.25 21.2 29.2 21.3 29.15 21.4 29.05 Q21.65 28.8 22.0 28.7 L22.3 28.5 22.85 28.45 23.05 28.45 24.75 28.95 24.8 28.95 24.65 28.8 24.55 28.65 24.3 28.4 Q23.7 27.75 24.15 26.95 L24.15 26.9 24.6 26.4 25.1 26.05 25.2 25.95 25.25 25.95 25.35 25.8 25.55 25.65 Q25.85 25.35 26.35 25.35 26.95 25.35 27.5 25.9 M27.0 27.0 L26.7 26.55 26.35 26.35 26.2 26.4 25.85 26.75 25.0 27.4 25.05 27.75 26.25 29.1 26.55 29.5 26.85 29.8 27.4 30.55 Q27.8 30.95 27.65 31.0 L27.35 30.95 26.9 30.75 22.9 29.45 22.65 29.45 22.45 29.6 22.35 29.6 22.05 29.85 21.9 29.95 21.85 30.0 21.75 30.05 21.55 30.25 21.45 30.3 21.25 30.45 Q21.1 30.6 21.2 30.75 L21.35 30.95 21.85 31.5 22.0 31.7 22.95 32.85 23.45 33.35 24.4 34.6 24.65 34.8 26.25 36.8 26.5 36.95 26.55 36.95 26.85 36.8 27.75 35.9 Q28.0 35.65 27.75 35.4 L27.45 35.15 27.4 35.05 26.5 34.05 26.4 33.9 26.2 33.7 25.25 32.5 Q25.1 32.2 25.25 32.2 L25.45 32.15 25.65 32.2 26.15 32.45 27.3 32.8 27.55 32.9 27.85 32.95 30.3 33.8 30.55 33.7 30.75 33.5 31.3 33.1 31.45 32.95 Q31.85 32.7 31.5 32.35 L30.9 31.75 30.55 31.3 30.45 31.2 29.75 30.35 29.15 29.65 27.0 27.0" fill="#ac800a" fill-rule="evenodd" stroke="none"/>
    <path d="M-26.6 -33.55 L-25.7 -33.0 -25.1 -32.45 Q-24.6 -31.85 -24.45 -31.25 L-24.35 -30.3 -24.25 -29.45 Q-24.1 -29.25 -23.85 -29.35 L-23.05 -29.5 -22.85 -29.6 -22.45 -29.45 -22.0 -29.0 -21.65 -28.55 -21.45 -28.4 Q-21.1 -28.05 -21.55 -27.65 -22.0 -27.25 -22.75 -27.25 L-23.9 -27.25 -24.1 -27.3 -24.75 -27.2 -25.4 -26.95 -25.5 -26.75 -25.45 -26.45 -25.15 -25.95 -24.5 -25.45 Q-24.3 -25.15 -24.5 -24.95 L-24.95 -24.6 -25.7 -23.9 -26.3 -23.95 -26.45 -24.2 -31.2 -29.45 -31.6 -29.8 Q-32.2 -30.4 -31.75 -30.75 L-29.2 -33.1 -28.6 -33.4 -27.95 -33.6 -27.25 -33.7 -26.6 -33.55 M-28.95 -30.55 L-28.95 -30.2 -28.75 -29.85 -27.4 -28.4 -26.95 -28.3 -26.65 -28.5 -26.5 -28.7 -26.35 -29.0 -26.25 -29.15 -26.25 -29.4 -26.2 -29.6 -26.3 -30.2 -26.75 -31.1 Q-27.2 -31.7 -27.95 -31.35 L-28.4 -31.1 -28.85 -30.75 -28.95 -30.55" fill="#fbd248" fill-rule="evenodd" stroke="none"/>
    <path d="M-27.7 -30.35 L-27.8 -30.3 -27.2 -29.65 -27.2 -29.7 -27.25 -29.95 -27.45 -30.4 -27.55 -30.45 -27.7 -30.4 -27.7 -30.35 M-28.4 -31.1 L-27.95 -31.35 -27.55 -31.45 Q-27.1 -31.45 -26.75 -31.1 L-26.3 -30.2 -26.2 -29.6 -26.25 -29.4 -26.25 -29.15 -26.35 -29.0 -26.5 -28.7 -26.65 -28.5 -26.95 -28.3 -27.1 -28.25 -27.4 -28.4 -28.75 -29.85 -28.95 -30.2 -28.95 -30.55 -28.85 -30.75 -28.4 -31.1 M-27.95 -33.6 L-28.6 -33.4 -29.2 -33.1 -31.75 -30.75 Q-32.2 -30.4 -31.6 -29.8 L-31.2 -29.45 -26.45 -24.2 -26.3 -23.95 Q-26.15 -23.8 -25.95 -23.8 -25.8 -23.8 -25.7 -23.9 L-24.95 -24.6 -24.5 -24.95 Q-24.3 -25.15 -24.5 -25.45 L-25.15 -25.95 -25.45 -26.45 -25.5 -26.75 -25.4 -26.95 -24.75 -27.2 -24.1 -27.3 -24.05 -27.3 -23.9 -27.25 -22.75 -27.25 Q-22.0 -27.25 -21.55 -27.65 -21.1 -28.05 -21.45 -28.4 L-21.65 -28.55 -22.0 -29.0 -22.45 -29.45 -22.75 -29.65 -23.05 -29.5 -23.85 -29.35 -23.95 -29.3 -24.25 -29.45 -24.35 -30.3 -24.45 -31.25 Q-24.6 -31.85 -25.1 -32.45 L-25.7 -33.0 -26.6 -33.55 -27.25 -33.7 -27.3 -33.7 -27.95 -33.6 M-30.5 -33.3 L-29.75 -33.9 Q-29.35 -34.3 -29.0 -34.3 L-28.9 -34.35 -28.85 -34.4 -28.3 -34.55 -28.25 -34.55 -28.2 -34.6 -27.3 -34.7 -27.2 -34.7 -27.15 -34.65 -27.05 -34.65 -26.7 -34.6 -26.4 -34.5 Q-25.6 -34.35 -24.95 -33.7 L-24.6 -33.35 -24.4 -33.1 Q-23.75 -32.45 -23.5 -31.45 L-23.35 -30.45 -23.25 -30.55 -23.15 -30.6 -23.05 -30.6 -22.75 -30.65 Q-22.2 -30.65 -21.7 -30.15 L-21.55 -30.0 -21.55 -29.95 -21.45 -29.85 -21.25 -29.7 -21.05 -29.4 -20.9 -29.25 -20.85 -29.15 -20.7 -29.05 Q-20.25 -28.6 -20.35 -28.05 -20.35 -27.45 -20.85 -26.95 -21.6 -26.25 -22.65 -26.25 L-23.95 -26.25 -23.8 -26.1 Q-23.4 -25.75 -23.4 -25.15 -23.4 -24.65 -23.85 -24.2 L-24.15 -23.95 -24.2 -23.95 -24.7 -23.5 -24.8 -23.35 -25.0 -23.15 Q-25.35 -22.8 -25.95 -22.8 -26.55 -22.8 -27.0 -23.25 L-27.25 -23.55 -27.3 -23.65 -28.15 -24.55 -28.25 -24.75 -28.35 -24.85 -28.55 -25.0 -28.8 -25.3 -29.55 -26.05 -29.65 -26.2 -30.9 -27.6 -31.2 -28.0 -31.55 -28.3 -32.1 -28.9 -32.35 -29.1 -32.85 -29.9 Q-33.15 -30.8 -32.45 -31.5 L-32.25 -31.65 -31.95 -31.95 -31.9 -31.95 -31.75 -32.15 -31.5 -32.35 -31.2 -32.65 -31.05 -32.75 -30.5 -33.3" fill="#ac800a" fill-rule="evenodd" stroke="none"/>
    <path d="M-20.6 -38.7 L-20.05 -37.85 Q-19.95 -37.75 -20.0 -37.5 L-20.05 -37.3 -20.3 -37.1 -20.65 -36.9 -21.1 -36.55 -21.25 -36.5 -21.55 -36.35 -21.85 -36.15 -22.4 -35.7 -22.3 -35.15 -21.9 -34.6 -21.45 -34.6 -21.05 -34.8 -20.45 -35.25 -19.9 -35.5 -19.5 -35.8 -19.15 -36.0 -18.75 -35.75 -18.2 -34.75 Q-18.05 -34.3 -18.45 -34.05 L-19.9 -33.2 -20.2 -32.95 -20.3 -32.9 -20.5 -32.7 -20.4 -32.15 -19.8 -31.45 Q-19.55 -31.35 -18.95 -31.75 L-18.5 -32.05 -18.1 -32.25 -17.3 -32.8 -16.75 -32.85 -16.35 -32.45 -16.3 -32.4 -16.05 -32.1 -15.9 -31.8 Q-15.6 -31.5 -16.05 -31.2 L-16.65 -30.85 -16.9 -30.65 -17.45 -30.35 -19.8 -28.9 -20.1 -28.65 -20.5 -28.55 -20.95 -28.85 -21.1 -29.15 -21.4 -29.55 -21.5 -29.75 -21.85 -30.2 -23.55 -33.0 -25.05 -35.35 -25.3 -35.85 -25.1 -36.4 -23.5 -37.35 -21.2 -38.85 Q-20.8 -39.05 -20.6 -38.7" fill="#fbd248" fill-rule="evenodd" stroke="none"/>
    <path d="M-20.95 -38.95 L-21.2 -38.85 -23.1 -37.65 -23.5 -37.35 -25.1 -36.4 -25.3 -35.85 -25.05 -35.35 -23.55 -33.0 -21.85 -30.2 -21.5 -29.75 -21.4 -29.55 -21.1 -29.15 -20.95 -28.85 -20.5 -28.55 -20.45 -28.55 -20.1 -28.65 -19.8 -28.9 -17.45 -30.35 -16.9 -30.65 -16.65 -30.85 -16.05 -31.2 Q-15.6 -31.5 -15.9 -31.8 L-16.05 -32.1 -16.3 -32.4 -16.35 -32.45 -16.75 -32.85 -16.9 -32.9 -17.3 -32.8 -18.1 -32.25 -18.5 -32.05 -18.95 -31.75 Q-19.3 -31.45 -19.65 -31.45 -20.0 -31.45 -20.4 -32.15 L-20.5 -32.7 -20.3 -32.9 -20.2 -32.95 -19.9 -33.2 -18.45 -34.05 Q-18.05 -34.3 -18.2 -34.75 L-18.75 -35.75 -19.15 -36.0 -19.5 -35.8 -19.9 -35.5 -20.45 -35.25 -21.05 -34.8 -21.45 -34.6 -21.7 -34.55 -22.3 -35.15 -22.4 -35.7 -21.85 -36.15 -21.55 -36.35 -21.25 -36.5 -21.1 -36.55 -20.65 -36.9 -20.3 -37.1 -20.05 -37.3 -20.0 -37.5 Q-19.95 -37.75 -20.05 -37.85 L-20.6 -38.7 -20.95 -38.95 M-21.75 -39.7 L-20.95 -39.95 Q-20.2 -39.95 -19.8 -39.25 L-19.65 -39.05 -19.6 -38.9 -19.2 -38.4 Q-18.9 -37.95 -19.0 -37.45 L-19.1 -36.95 Q-18.3 -36.95 -17.9 -36.25 L-17.3 -35.2 -17.3 -35.15 Q-17.0 -34.5 -17.3 -33.9 L-16.9 -33.9 -16.2 -33.75 -15.5 -33.0 -15.45 -32.95 -15.3 -32.75 -15.2 -32.65 -15.05 -32.35 Q-14.7 -31.9 -14.8 -31.3 -15.05 -30.65 -15.5 -30.4 L-15.6 -30.35 -15.6 -30.3 -15.7 -30.3 -15.8 -30.2 -15.9 -30.15 -16.4 -29.8 -16.5 -29.75 -16.65 -29.65 -16.7 -29.65 -16.7 -29.6 -16.9 -29.5 -17.9 -28.8 -18.35 -28.55 -18.45 -28.55 -18.8 -28.3 -18.9 -28.25 -19.6 -27.8 -20.45 -27.55 -20.65 -27.55 Q-21.4 -27.7 -21.8 -28.3 L-21.95 -28.6 -22.25 -29.0 -22.35 -29.2 -23.2 -30.5 -23.25 -30.65 -23.55 -31.1 -23.7 -31.25 -24.45 -32.55 -24.55 -32.65 -24.55 -32.75 -24.7 -32.9 -25.1 -33.5 -25.2 -33.7 -25.7 -34.5 -25.9 -34.85 -26.3 -35.75 Q-26.35 -36.7 -25.6 -37.25 L-25.4 -37.35 -24.6 -37.9 -24.3 -38.05 -22.9 -39.0 -22.5 -39.2 -22.2 -39.4 -22.0 -39.5 -21.75 -39.7" fill="#ac800a" fill-rule="evenodd" stroke="none"/>
    <path d="M-13.0 -40.35 L-12.75 -39.95 -12.6 -39.75 -11.4 -38.05 -11.25 -37.75 -10.8 -37.15 -10.6 -36.8 -10.05 -36.05 -9.9 -35.8 -9.45 -35.2 -9.3 -34.95 -9.15 -34.75 -8.95 -34.45 Q-8.85 -34.2 -9.4 -34.0 L-10.05 -33.7 -10.8 -33.5 -11.25 -33.85 -11.45 -34.1 -11.6 -34.2 Q-11.7 -34.4 -12.05 -34.45 L-12.8 -34.2 -13.2 -34.05 -13.55 -33.85 -13.95 -33.45 -13.95 -32.6 -14.0 -32.3 Q-14.05 -32.15 -14.4 -32.05 L-15.3 -31.65 -15.7 -31.55 -16.05 -31.85 -16.25 -32.85 -16.3 -33.35 -16.6 -34.75 -16.6 -35.05 -16.9 -36.65 -16.9 -37.05 -17.1 -38.15 -17.15 -38.3 -17.15 -38.55 -17.25 -39.2 -17.35 -40.3 -16.75 -40.9 -15.2 -41.5 -14.25 -41.65 -13.65 -41.15 -13.0 -40.35 M-14.0 -38.2 L-14.2 -38.4 -14.45 -38.8 -14.85 -38.95 -15.0 -38.75 -14.95 -37.85 -14.75 -36.7 -14.65 -36.25 Q-14.45 -35.65 -13.7 -36.0 -13.4 -36.1 -13.15 -36.25 L-13.0 -36.65 -13.1 -36.8 -13.5 -37.5 -13.8 -37.85 -14.0 -38.2" fill="#fbd248" fill-rule="evenodd" stroke="none"/>
    <path d="M-14.0 -38.2 L-13.8 -37.85 -13.5 -37.5 -13.1 -36.8 -13.0 -36.65 -13.15 -36.25 Q-13.4 -36.1 -13.7 -36.0 L-14.15 -35.9 Q-14.5 -35.9 -14.65 -36.25 L-14.75 -36.7 -14.95 -37.85 -15.0 -38.75 -14.85 -38.95 -14.75 -39.0 -14.45 -38.8 -14.2 -38.4 -14.0 -38.2 M-12.75 -39.95 L-13.0 -40.35 -13.65 -41.15 -14.25 -41.65 -14.55 -41.7 -15.2 -41.5 -16.75 -40.9 -17.35 -40.3 -17.25 -39.2 -17.15 -38.55 -17.15 -38.3 -17.1 -38.15 -16.9 -37.05 -16.9 -36.65 -16.6 -35.05 -16.6 -34.75 -16.3 -33.35 -16.25 -32.85 -16.05 -31.85 -15.7 -31.55 -15.3 -31.65 -14.4 -32.05 Q-14.05 -32.15 -14.0 -32.3 L-13.95 -32.6 -13.95 -33.45 -13.55 -33.85 -13.2 -34.05 -12.8 -34.2 -12.05 -34.45 Q-11.7 -34.4 -11.6 -34.2 L-11.45 -34.1 -11.25 -33.85 Q-10.95 -33.5 -10.75 -33.5 L-10.05 -33.7 -9.4 -34.0 Q-8.85 -34.2 -8.95 -34.45 L-9.15 -34.75 -9.3 -34.95 -9.45 -35.2 -9.9 -35.8 -10.05 -36.05 -10.6 -36.8 -10.8 -37.15 -11.25 -37.75 -11.4 -38.05 -12.6 -39.75 -12.75 -39.95 M-12.2 -40.95 L-12.2 -40.9 -11.9 -40.45 -11.8 -40.35 -11.8 -40.3 -11.65 -40.15 -11.2 -39.5 -11.15 -39.4 -10.55 -38.6 -10.55 -38.55 -10.45 -38.35 -10.45 -38.3 -10.3 -38.2 -10.25 -38.1 -9.95 -37.7 -9.8 -37.4 -9.6 -37.2 -8.65 -35.75 -8.5 -35.6 -8.25 -35.3 -8.05 -34.8 Q-7.85 -34.5 -8.0 -34.05 -8.15 -33.4 -9.0 -33.05 L-9.7 -32.8 Q-10.3 -32.5 -10.75 -32.5 -11.45 -32.5 -12.0 -33.2 L-12.15 -33.35 -12.15 -33.4 -12.8 -33.15 -13.0 -33.0 -13.0 -32.9 Q-12.8 -32.35 -13.1 -31.9 -13.3 -31.35 -14.0 -31.1 L-14.7 -30.85 -14.95 -30.7 -15.7 -30.55 -15.95 -30.55 -16.05 -30.6 Q-16.75 -30.85 -17.0 -31.5 L-17.1 -32.15 -17.1 -32.25 -17.15 -32.25 -17.15 -32.35 -17.2 -32.55 -17.2 -32.65 -17.25 -33.0 -17.45 -33.75 -17.55 -34.6 -17.6 -34.8 -17.6 -34.9 -17.65 -35.1 -17.9 -36.6 -17.9 -36.9 -18.1 -38.0 -18.1 -38.15 -18.2 -38.65 -18.2 -38.95 Q-18.9 -41.15 -17.1 -41.85 L-16.75 -41.95 -15.8 -42.35 -15.65 -42.4 -14.55 -42.7 -13.95 -42.6 Q-13.35 -42.4 -12.85 -41.75 L-12.65 -41.5 -12.5 -41.3 -12.4 -41.2 -12.2 -40.95" fill="#ac800a" fill-rule="evenodd" stroke="none"/>
    <path d="M-3.6 -36.1 L-3.45 -35.6 Q-3.35 -35.1 -3.9 -35.05 L-6.6 -34.55 -6.95 -34.45 -7.5 -34.4 -8.05 -34.25 Q-8.5 -34.15 -8.7 -34.8 L-9.2 -37.45 -9.4 -38.7 -9.5 -39.05 -9.65 -40.1 -9.85 -40.8 -9.9 -41.2 -10.0 -41.5 -10.1 -42.25 -10.25 -42.7 Q-10.25 -43.15 -9.9 -43.2 L-8.8 -43.4 -8.55 -43.5 Q-8.1 -43.6 -8.0 -43.1 L-7.95 -42.6 -7.85 -42.2 -7.75 -41.45 -7.5 -40.35 -7.15 -38.15 -6.9 -37.25 -6.45 -36.75 -4.15 -37.2 Q-3.7 -37.25 -3.7 -36.85 L-3.6 -36.1" fill="#fbd248" fill-rule="evenodd" stroke="none"/>
    <path d="M-2.7 -37.05 L-2.7 -37.0 -2.65 -36.6 -2.6 -36.4 -2.6 -36.3 -2.45 -35.8 Q-2.2 -34.4 -3.7 -34.05 L-4.05 -34.0 -4.95 -33.8 -5.7 -33.7 -5.85 -33.65 -6.3 -33.55 -6.55 -33.55 -7.85 -33.25 -8.15 -33.2 Q-9.4 -33.2 -9.7 -34.6 L-10.15 -37.1 -10.15 -37.15 -10.25 -37.65 -10.25 -37.7 -10.45 -38.75 -10.45 -38.85 -10.5 -39.05 -10.6 -39.7 -10.85 -40.65 -10.85 -40.85 -10.9 -41.0 -10.9 -41.05 -11.05 -41.65 -11.05 -41.9 -11.15 -42.2 -11.2 -42.5 -10.95 -43.6 -10.1 -44.15 -9.1 -44.35 -9.05 -44.4 -8.95 -44.4 -8.75 -44.45 -8.4 -44.5 Q-7.25 -44.5 -7.0 -43.3 L-6.95 -43.0 -6.95 -42.65 -6.9 -42.5 -6.9 -42.4 -6.85 -42.15 -6.8 -42.0 -6.8 -41.9 -6.6 -40.9 -6.6 -40.75 -6.5 -40.55 -6.15 -38.35 -6.0 -37.85 -5.75 -37.85 -5.0 -38.05 -4.75 -38.05 -4.6 -38.1 -4.05 -38.2 Q-2.9 -38.2 -2.7 -37.05 M-3.45 -35.6 L-3.6 -36.1 -3.7 -36.85 Q-3.7 -37.2 -4.05 -37.2 L-4.15 -37.2 -6.4 -36.75 -6.45 -36.75 -6.9 -37.25 -7.15 -38.15 -7.5 -40.35 -7.6 -40.7 -7.85 -42.2 -7.95 -42.6 -8.0 -43.1 Q-8.1 -43.5 -8.4 -43.5 L-8.55 -43.5 -8.8 -43.4 -9.9 -43.2 Q-10.25 -43.15 -10.25 -42.7 L-10.1 -42.25 -10.0 -41.5 -9.9 -41.2 -9.85 -40.8 -9.65 -40.1 -9.5 -39.05 -9.4 -38.7 -9.2 -37.45 -8.7 -34.8 Q-8.7 -34.2 -8.15 -34.2 L-8.05 -34.25 -7.5 -34.4 -6.95 -34.45 -6.6 -34.55 -3.9 -35.05 Q-3.35 -35.1 -3.45 -35.6" fill="#ac800a" fill-rule="evenodd" stroke="none"/>
    <path d="M-1.1 -42.9 L-0.95 -39.75 -0.8 -38.05 -0.7 -36.05 -0.6 -35.6 Q-0.6 -35.3 -1.0 -35.2 L-2.2 -35.15 -2.45 -35.1 -2.9 -35.4 -2.95 -35.7 -3.05 -38.3 -3.1 -38.6 -3.25 -40.55 -3.3 -42.75 -3.45 -43.65 Q-3.45 -44.15 -3.1 -44.25 L-2.9 -44.25 -1.9 -44.3 -1.6 -44.35 -1.35 -44.2 -1.15 -43.8 -1.1 -42.9" fill="#fbd248" fill-rule="evenodd" stroke="none"/>
    <path d="M-0.15 -43.85 L-0.15 -43.2 -0.1 -42.95 -0.1 -42.35 0.0 -41.45 0.05 -39.8 0.15 -39.0 0.15 -38.5 0.2 -38.1 0.2 -37.55 0.25 -37.2 0.3 -36.2 0.35 -36.05 0.4 -35.7 Q0.45 -35.15 0.05 -34.7 -0.35 -34.25 -0.95 -34.2 L-1.15 -34.2 -1.25 -34.25 -1.75 -34.15 -2.15 -34.15 -2.4 -34.1 -2.5 -34.1 Q-3.05 -34.1 -3.4 -34.45 L-3.85 -35.15 -3.95 -35.65 -4.05 -38.25 -4.1 -38.55 -4.1 -39.6 -4.25 -41.0 -4.25 -41.65 -4.3 -41.85 -4.3 -42.7 -4.4 -43.6 -4.15 -44.6 -3.3 -45.2 -3.25 -45.25 -2.75 -45.25 -2.5 -45.3 -1.9 -45.3 -1.7 -45.35 -1.6 -45.35 Q-1.05 -45.35 -0.6 -44.9 -0.2 -44.4 -0.15 -43.85 M-1.1 -42.9 L-1.15 -43.8 -1.35 -44.2 -1.6 -44.35 -1.9 -44.3 -2.9 -44.25 -3.1 -44.25 Q-3.45 -44.15 -3.45 -43.65 L-3.3 -42.75 -3.1 -38.6 -3.05 -38.3 -2.95 -35.7 -2.9 -35.4 Q-2.9 -35.1 -2.5 -35.1 L-2.45 -35.1 -2.2 -35.15 -1.0 -35.2 Q-0.6 -35.3 -0.6 -35.6 L-0.7 -36.05 -0.8 -38.05 -0.95 -39.75 -1.0 -41.35 -1.1 -42.25 -1.1 -42.9" fill="#ac800a" fill-rule="evenodd" stroke="none"/>
    <path d="M6.65 -42.45 L6.2 -42.05 5.8 -42.05 4.8 -41.95 4.6 -41.7 4.5 -41.25 4.4 -40.4 4.4 -40.0 4.35 -39.6 4.35 -38.45 4.15 -35.95 4.15 -35.5 Q4.15 -35.05 3.5 -35.15 L3.15 -35.15 2.5 -35.25 2.25 -35.25 Q1.95 -35.25 1.95 -35.55 L1.95 -35.8 1.95 -36.0 2.25 -39.7 2.3 -41.5 2.35 -41.7 2.1 -42.25 1.2 -42.45 0.95 -42.45 0.7 -42.4 Q0.2 -42.5 0.2 -42.95 L0.3 -43.55 0.3 -44.1 Q0.35 -44.5 0.85 -44.5 L2.95 -44.3 3.55 -44.3 3.85 -44.25 4.2 -44.3 4.45 -44.25 4.75 -44.25 5.1 -44.2 5.35 -44.2 5.9 -44.1 6.25 -44.15 6.45 -44.1 6.7 -43.85 6.65 -42.45" fill="#fbd248" fill-rule="evenodd" stroke="none"/>
    <path d="M6.8 -45.0 L6.9 -45.0 7.65 -44.1 7.65 -43.3 7.65 -42.4 Q7.55 -41.3 6.4 -41.05 L5.7 -41.05 5.5 -41.1 5.5 -41.05 5.4 -40.35 5.4 -39.65 5.35 -39.55 5.35 -38.4 Q5.2 -38.4 5.35 -38.25 L5.25 -37.55 5.2 -36.25 5.2 -36.0 5.15 -35.9 5.15 -35.45 Q5.1 -34.9 4.7 -34.5 4.25 -34.15 3.6 -34.15 L3.0 -34.15 2.8 -34.2 2.45 -34.25 2.15 -34.25 Q1.15 -34.25 0.95 -35.35 L0.95 -35.95 0.95 -36.35 1.0 -36.5 1.1 -38.05 1.1 -38.45 1.15 -38.8 1.15 -39.1 1.2 -39.35 1.2 -39.65 1.25 -39.75 1.25 -40.7 1.3 -41.05 1.3 -41.4 1.15 -41.45 1.05 -41.45 0.75 -41.4 0.65 -41.4 Q0.1 -41.45 -0.35 -41.9 -0.8 -42.4 -0.75 -43.05 L-0.75 -43.1 -0.7 -43.6 -0.7 -44.15 -0.25 -45.1 Q0.15 -45.5 0.8 -45.5 L0.95 -45.5 1.55 -45.4 2.3 -45.4 3.0 -45.3 3.85 -45.3 3.9 -45.25 4.0 -45.3 4.2 -45.3 4.25 -45.25 4.8 -45.25 5.05 -45.2 5.45 -45.2 5.8 -45.15 5.9 -45.1 6.0 -45.1 6.25 -45.15 6.35 -45.15 6.8 -45.0 M6.45 -44.1 L6.25 -44.15 5.9 -44.1 5.35 -44.2 5.1 -44.2 4.75 -44.25 4.45 -44.25 4.2 -44.3 4.15 -44.3 3.9 -44.25 3.85 -44.25 3.55 -44.3 2.95 -44.3 0.85 -44.5 0.8 -44.5 Q0.35 -44.5 0.3 -44.1 L0.3 -43.55 0.2 -42.95 Q0.2 -42.5 0.7 -42.4 L0.75 -42.4 0.95 -42.45 1.2 -42.45 2.1 -42.25 2.35 -41.7 2.3 -41.5 2.25 -39.7 1.95 -36.0 1.95 -35.8 1.95 -35.55 Q1.95 -35.25 2.25 -35.25 L2.5 -35.25 3.15 -35.15 3.6 -35.15 Q4.15 -35.15 4.15 -35.5 L4.15 -35.95 4.25 -36.85 4.35 -38.45 4.35 -39.6 4.4 -40.0 4.4 -40.4 4.5 -41.25 4.6 -41.7 4.8 -41.95 5.35 -42.1 5.8 -42.05 6.2 -42.05 6.65 -42.45 6.7 -43.85 6.45 -44.1" fill="#ac800a" fill-rule="evenodd" stroke="none"/>
    <path d="M12.5 -41.15 L12.75 -41.4 13.1 -41.9 13.55 -42.4 14.05 -42.45 15.0 -42.15 15.5 -42.05 15.85 -41.8 15.5 -41.3 15.0 -40.7 13.4 -38.9 13.0 -38.4 12.8 -38.2 12.25 -37.55 Q11.6 -36.8 11.5 -36.45 L11.45 -36.1 11.25 -35.6 11.2 -35.05 10.95 -34.2 Q10.85 -33.75 10.5 -33.85 L10.25 -33.95 10.0 -34.0 9.55 -34.15 9.05 -34.25 Q8.85 -34.3 8.75 -34.5 L8.75 -34.85 9.1 -36.0 9.4 -37.55 8.65 -41.15 8.65 -41.4 8.25 -43.15 8.2 -43.25 8.2 -43.7 Q8.25 -43.9 8.6 -43.9 L8.75 -43.85 9.2 -43.7 9.5 -43.65 10.0 -43.5 10.1 -43.5 10.4 -43.35 10.6 -42.9 10.65 -42.4 10.85 -41.65 11.05 -40.3 Q11.15 -39.75 11.3 -39.75 L11.5 -39.85 11.7 -40.05 12.5 -41.15" fill="#fbd248" fill-rule="evenodd" stroke="none"/>
    <path d="M14.05 -42.45 L13.85 -42.45 13.55 -42.4 13.1 -41.9 12.75 -41.4 12.5 -41.15 11.7 -40.05 11.5 -39.85 11.3 -39.75 Q11.15 -39.75 11.05 -40.3 L10.85 -41.65 10.65 -42.4 10.6 -42.9 10.4 -43.35 10.1 -43.5 10.0 -43.5 9.5 -43.65 9.2 -43.7 8.75 -43.85 8.6 -43.9 8.5 -43.9 Q8.25 -43.9 8.2 -43.7 L8.2 -43.25 8.25 -43.15 8.65 -41.4 8.65 -41.15 9.4 -37.55 9.1 -36.0 8.75 -34.85 8.75 -34.5 Q8.85 -34.3 9.05 -34.25 L9.55 -34.15 10.0 -34.0 10.25 -33.95 10.5 -33.85 10.55 -33.85 10.95 -34.2 11.2 -35.05 11.25 -35.6 11.45 -36.1 11.5 -36.45 Q11.6 -36.8 12.25 -37.55 L12.4 -37.7 12.8 -38.2 13.0 -38.4 13.4 -38.9 13.7 -39.2 15.5 -41.3 15.85 -41.8 15.5 -42.05 15.0 -42.15 14.05 -42.45 M16.7 -42.4 L16.8 -41.6 16.25 -40.65 16.2 -40.6 16.1 -40.45 15.8 -40.15 15.8 -40.1 15.75 -40.05 15.6 -39.85 15.4 -39.65 14.4 -38.45 14.35 -38.4 14.15 -38.25 13.8 -37.75 13.75 -37.75 13.75 -37.7 13.6 -37.55 13.55 -37.55 13.5 -37.5 13.45 -37.4 13.4 -37.35 13.3 -37.2 13.0 -36.9 12.5 -36.2 12.2 -35.2 12.1 -34.55 12.0 -34.35 12.0 -34.2 11.95 -33.95 Q11.6 -32.85 10.55 -32.85 L10.2 -32.9 9.95 -33.0 9.9 -33.0 8.8 -33.3 Q8.2 -33.45 7.9 -34.05 7.6 -34.6 7.75 -35.1 L7.9 -35.5 7.9 -35.55 7.95 -35.8 8.1 -36.1 8.15 -36.25 8.15 -36.4 8.25 -36.75 8.3 -37.15 8.35 -37.2 8.35 -37.75 8.3 -37.8 8.3 -37.95 8.25 -38.05 8.05 -39.35 8.0 -39.35 8.0 -39.4 7.95 -39.75 7.95 -39.9 7.9 -39.95 7.65 -41.3 7.6 -41.45 7.45 -42.1 7.45 -42.25 7.25 -42.95 7.25 -43.05 7.2 -43.3 7.25 -43.95 Q7.5 -44.9 8.5 -44.9 L8.85 -44.85 9.1 -44.75 9.15 -44.75 10.1 -44.5 10.35 -44.45 10.95 -44.15 Q11.45 -43.85 11.55 -43.1 L11.65 -42.7 11.65 -42.55 11.8 -41.9 11.95 -42.0 12.25 -42.4 12.3 -42.5 12.9 -43.15 13.0 -43.25 13.85 -43.45 14.3 -43.4 14.45 -43.35 14.5 -43.35 15.2 -43.15 15.25 -43.15 15.4 -43.1 15.75 -43.05 16.7 -42.4" fill="#ac800a" fill-rule="evenodd" stroke="none"/>
    <path d="M26.55 -35.4 L26.15 -34.8 26.05 -34.6 Q25.9 -34.35 25.5 -34.45 L25.15 -34.7 24.2 -35.05 23.9 -34.95 23.65 -34.55 23.15 -33.85 22.15 -32.2 21.95 -31.8 21.6 -31.3 21.35 -30.8 20.85 -30.05 20.65 -29.65 Q20.4 -29.3 19.9 -29.65 L19.6 -29.85 19.3 -30.0 19.0 -30.2 18.8 -30.3 Q18.6 -30.45 18.7 -30.75 L18.8 -31.0 18.9 -31.1 20.15 -33.15 20.5 -33.6 20.65 -33.9 20.9 -34.25 21.8 -35.85 21.9 -35.95 Q22.15 -36.2 21.95 -36.55 L21.25 -37.15 21.05 -37.3 20.85 -37.35 Q20.45 -37.65 20.65 -38.1 L21.0 -38.6 21.25 -39.05 21.95 -39.15 24.75 -37.4 24.95 -37.25 25.25 -37.1 25.75 -36.75 26.7 -36.15 26.75 -35.85 26.55 -35.4" fill="#fbd248" fill-rule="evenodd" stroke="none"/>
    <path d="M26.55 -35.4 L26.75 -35.85 26.7 -36.15 25.75 -36.75 25.25 -37.1 24.95 -37.25 24.75 -37.4 21.95 -39.15 21.6 -39.25 Q21.4 -39.25 21.25 -39.05 L20.65 -38.1 Q20.45 -37.65 20.85 -37.35 L21.05 -37.3 21.25 -37.15 21.95 -36.55 Q22.15 -36.2 21.9 -35.95 L21.8 -35.85 20.9 -34.25 20.65 -33.9 20.5 -33.6 20.15 -33.15 18.9 -31.1 18.8 -31.0 18.7 -30.75 Q18.6 -30.45 18.8 -30.3 L19.0 -30.2 19.3 -30.0 19.6 -29.85 19.9 -29.65 20.3 -29.5 Q20.5 -29.5 20.65 -29.65 L20.85 -30.05 21.35 -30.8 21.6 -31.3 21.95 -31.8 23.15 -33.85 23.65 -34.55 23.9 -34.95 24.2 -35.05 24.3 -35.05 25.15 -34.7 25.5 -34.45 25.7 -34.45 Q26.0 -34.45 26.05 -34.6 L26.15 -34.8 26.55 -35.4 M27.05 -37.15 L27.45 -36.75 27.5 -36.75 Q27.9 -36.15 27.75 -35.6 L27.4 -34.9 27.25 -34.7 27.0 -34.25 26.95 -34.1 Q26.45 -33.45 25.7 -33.45 L25.2 -33.5 25.15 -33.55 24.4 -33.95 23.65 -32.75 23.6 -32.65 23.0 -31.7 22.95 -31.55 22.6 -30.95 22.45 -30.8 22.35 -30.65 22.2 -30.3 21.9 -29.8 21.75 -29.6 21.7 -29.55 21.6 -29.4 21.5 -29.15 Q21.1 -28.5 20.3 -28.5 L19.35 -28.8 18.55 -29.3 18.5 -29.35 18.25 -29.45 Q17.45 -30.1 17.7 -31.0 L18.0 -31.55 18.2 -31.9 18.3 -32.0 19.1 -33.3 19.3 -33.7 19.5 -34.0 19.65 -34.15 19.8 -34.45 20.0 -34.7 20.05 -34.8 20.15 -34.95 20.45 -35.5 20.9 -36.2 20.75 -36.3 20.3 -36.5 Q19.9 -36.75 19.65 -37.35 19.4 -38.05 19.8 -38.6 L20.15 -39.1 20.2 -39.25 20.4 -39.6 21.6 -40.25 22.45 -40.0 22.8 -39.75 23.0 -39.65 23.25 -39.45 23.65 -39.25 24.2 -38.85 24.45 -38.75 24.75 -38.55 24.95 -38.45 25.05 -38.35 25.3 -38.25 25.45 -38.15 25.45 -38.1 26.0 -37.8 26.05 -37.75 26.15 -37.7 26.6 -37.4 26.7 -37.3 26.75 -37.3 27.05 -37.15" fill="#ac800a" fill-rule="evenodd" stroke="none"/>
    <path d="M27.9 -34.85 L28.5 -34.9 28.7 -34.65 29.45 -34.0 29.6 -33.55 28.15 -31.15 27.0 -29.15 26.75 -28.45 26.85 -28.45 27.0 -28.55 28.15 -29.25 31.25 -31.5 Q31.7 -31.95 32.0 -31.7 L32.15 -31.55 32.25 -31.4 32.55 -31.2 32.65 -31.1 32.65 -31.05 32.7 -31.05 32.95 -30.85 33.15 -30.4 33.0 -30.15 31.4 -29.0 30.65 -28.5 29.95 -28.0 29.05 -27.35 28.7 -27.2 26.05 -25.35 25.65 -25.25 Q25.4 -25.3 25.25 -25.45 L24.6 -26.05 24.0 -26.5 23.8 -26.7 23.6 -27.15 Q23.75 -27.85 24.45 -28.85 L25.6 -30.9 25.75 -31.15 27.05 -33.45 27.15 -33.7 27.35 -33.95 27.9 -34.85" fill="#fbd248" fill-rule="evenodd" stroke="none"/>
    <path d="M26.65 -34.8 L27.15 -35.5 Q27.55 -36.0 28.2 -36.0 28.75 -36.0 29.15 -35.6 L29.35 -35.4 29.45 -35.35 29.85 -34.95 29.95 -34.9 30.1 -34.75 Q30.85 -34.1 30.5 -33.2 L30.5 -33.1 30.0 -32.3 29.75 -31.75 29.7 -31.7 29.65 -31.6 30.6 -32.3 Q31.2 -32.8 31.75 -32.8 L32.65 -32.45 33.0 -32.1 33.2 -31.95 33.35 -31.8 33.4 -31.8 33.6 -31.6 Q34.45 -30.85 34.05 -30.0 L33.7 -29.5 33.15 -29.05 31.95 -28.15 31.9 -28.15 31.85 -28.1 31.75 -28.05 30.5 -27.15 30.4 -27.1 30.3 -27.0 29.95 -26.8 29.6 -26.55 29.2 -26.35 27.7 -25.25 27.7 -25.2 27.65 -25.2 27.25 -24.95 27.2 -24.95 26.6 -24.5 25.8 -24.25 25.55 -24.25 Q24.9 -24.35 24.55 -24.75 L24.15 -25.05 24.0 -25.25 23.95 -25.3 23.85 -25.35 23.65 -25.5 23.35 -25.8 23.1 -25.95 Q22.5 -26.55 22.65 -27.35 22.8 -28.3 23.6 -29.4 L23.65 -29.45 23.65 -29.5 23.7 -29.6 23.8 -29.7 23.8 -29.75 23.9 -29.9 24.2 -30.45 24.25 -30.6 24.35 -30.7 25.1 -32.1 25.25 -32.3 25.45 -32.7 25.6 -32.9 25.75 -33.25 25.85 -33.4 25.9 -33.5 25.95 -33.5 25.95 -33.55 26.0 -33.65 26.1 -33.8 26.3 -34.2 26.4 -34.35 26.45 -34.45 26.5 -34.5 26.65 -34.8 M28.5 -34.9 L28.2 -35.0 27.9 -34.85 27.35 -33.95 27.15 -33.7 27.05 -33.45 25.75 -31.15 25.6 -30.9 24.45 -28.85 Q23.75 -27.85 23.6 -27.15 L23.8 -26.7 24.0 -26.5 24.6 -26.05 25.25 -25.45 Q25.4 -25.3 25.65 -25.25 L25.8 -25.25 26.05 -25.35 28.7 -27.2 29.05 -27.35 29.95 -28.0 30.65 -28.5 31.4 -29.0 33.0 -30.15 33.15 -30.4 32.95 -30.85 32.7 -31.05 32.65 -31.05 32.65 -31.1 32.55 -31.2 32.25 -31.4 32.15 -31.55 32.0 -31.7 31.75 -31.8 31.25 -31.5 28.15 -29.25 27.0 -28.55 26.85 -28.45 26.75 -28.45 27.0 -29.15 29.6 -33.55 29.45 -34.0 28.7 -34.65 28.5 -34.9" fill="#ac800a" fill-rule="evenodd" stroke="none"/>
    <path d="M21.55 14.1 L23.4 -13.55 -22.7 -12.8 -20.9 13.6 21.55 14.1 M25.95 18.8 L19.6 18.8 19.0 23.5 14.6 23.5 13.95 18.8 -13.55 18.8 -14.2 23.5 -18.55 23.5 -19.2 18.8 -25.25 18.8 -27.7 -17.4 28.95 -19.1 25.95 18.8" fill="#fbc310" fill-rule="evenodd" stroke="none"/>
    <path d="M13.7 -9.6 L20.45 -9.6 20.55 -9.4 15.1 10.2 4.55 10.2 4.5 10.05 -0.5 -9.55 -0.4 -9.7 6.3 -9.6 9.35 5.3 9.65 5.55 10.05 5.3 13.7 -9.6 M-20.15 -8.55 L-20.05 -8.7 -1.7 -8.7 -1.6 -8.55 -1.6 -4.45 -1.7 -4.35 -6.85 -4.35 Q-7.2 -4.35 -7.2 -4.1 L-7.05 11.2 -7.15 11.3 -13.8 11.45 -13.85 11.3 -13.85 -4.1 Q-13.85 -4.35 -14.2 -4.35 L-20.05 -4.35 -20.15 -4.45 -20.15 -8.55" fill="#fbd248" fill-rule="evenodd" stroke="none"/>
    <path d="M13.7 -9.6 L10.05 5.3 9.65 5.55 9.35 5.3 6.3 -9.6 -0.4 -9.7 -0.5 -9.55 4.5 10.05 4.55 10.2 15.1 10.2 20.55 -9.4 20.45 -9.6 13.7 -9.6 M25.95 18.8 L28.95 -19.1 -27.7 -17.4 -25.25 18.8 -19.2 18.8 -18.55 23.5 -14.2 23.5 -13.55 18.8 13.95 18.8 14.6 23.5 19.0 23.5 19.6 18.8 25.95 18.8 M21.55 14.1 L-20.9 13.6 -22.7 -12.8 23.4 -13.55 21.55 14.1 M-20.15 -8.55 L-20.15 -4.45 -20.05 -4.35 -14.2 -4.35 Q-13.85 -4.35 -13.85 -4.1 L-13.85 11.3 -13.8 11.45 -7.15 11.3 -7.05 11.2 -7.2 -4.1 Q-7.2 -4.35 -6.85 -4.35 L-1.7 -4.35 -1.6 -4.45 -1.6 -8.55 -1.7 -8.7 -20.05 -8.7 -20.15 -8.55 Z" fill="none" stroke="#ac800a" stroke-linecap="butt" stroke-linejoin="miter-clip" stroke-miterlimit="4.0" stroke-width="1.0"/>
  </g>
</svg>
