<?xml version="1.0" encoding="UTF-8" standalone="no"?>
<svg xmlns:ffdec="https://www.free-decompiler.com/flash" xmlns:xlink="http://www.w3.org/1999/xlink" ffdec:objectType="shape" height="92.75px" width="74.55px" xmlns="http://www.w3.org/2000/svg">
  <g transform="matrix(1.0, 0.0, 0.0, 1.0, 37.8, 45.3)">
    <path d="M2.35 -12.7 L9.0 -12.9 -1.4 4.2 3.9 3.4 -12.5 30.3 -13.4 29.95 -9.3 13.95 -13.95 15.15 -6.55 -3.6 -11.25 -3.5 -1.8 -27.45 12.05 -27.4 2.35 -12.7" fill="#cfa00a" fill-rule="evenodd" stroke="none"/>
    <path d="M17.4 37.15 L17.4 37.55 17.5 37.75 17.55 37.95 17.55 38.0 17.7 38.3 18.25 38.85 18.6 39.0 18.7 38.95 18.95 38.95 19.0 38.9 19.15 38.85 19.2 38.8 19.35 38.75 19.5 38.45 19.6 38.05 19.6 37.9 19.45 37.35 19.35 37.2 19.25 37.0 19.2 36.85 18.9 36.6 18.8 36.55 18.6 36.5 18.45 36.4 18.1 36.45 17.8 36.6 17.75 36.6 17.6 36.75 17.6 36.8 17.45 37.0 17.45 37.1 17.4 37.15 M-11.45 39.7 L-11.55 39.6 -11.7 39.35 -12.2 39.15 -12.95 41.5 -12.65 41.6 -12.55 41.65 -12.05 41.65 Q-11.75 41.6 -11.4 40.85 L-11.35 40.5 -11.35 40.4 -11.3 40.15 -11.4 39.8 -11.45 39.7 M-16.9 40.75 L-16.7 40.05 -17.15 40.25 -16.9 40.75 M-28.4 28.35 L-28.3 28.15 -28.25 28.1 -27.3 26.85 Q-26.85 26.35 -26.25 26.35 L-26.0 26.35 Q-25.6 26.45 -25.25 26.7 L-25.2 26.7 -24.95 26.95 -24.85 27.0 -24.8 27.05 -24.5 27.25 Q-23.8 27.85 -24.0 29.2 L-24.15 30.15 -24.15 30.65 -24.2 30.85 -24.2 31.15 -24.1 31.15 -23.65 31.0 -23.6 31.0 -23.4 30.9 -23.1 30.8 -22.95 30.7 -22.75 30.65 -22.2 30.4 -22.15 30.4 -22.1 30.35 -22.05 30.35 -21.8 30.25 -21.5 30.25 Q-20.9 30.25 -20.55 30.55 L-20.3 30.8 -20.1 30.95 -20.05 31.0 -19.85 31.15 -19.65 31.35 -19.6 31.35 -19.3 31.8 -19.1 31.75 -18.45 31.9 -18.05 32.15 -17.75 32.25 -17.1 32.6 -16.9 32.75 -16.55 32.9 -16.4 33.0 -16.0 33.15 -14.7 33.9 -14.05 34.5 -13.95 34.5 -12.6 34.8 -12.5 34.85 -12.3 34.9 -12.25 34.9 -12.2 34.95 -12.0 35.0 -11.75 35.1 -10.9 35.3 -10.7 35.4 -10.65 35.4 -10.55 35.45 -9.75 35.85 -9.7 35.9 -9.65 35.9 -9.35 36.1 -9.3 36.15 -9.25 36.25 -9.2 36.25 -9.05 36.4 -9.0 36.4 -9.0 36.45 -8.85 36.55 -8.7 36.7 -8.25 37.25 Q-7.7 38.0 -7.5 38.8 L-7.5 38.7 -7.45 38.65 -7.45 38.55 Q-6.95 36.6 -5.5 36.6 L-5.25 36.65 -3.85 36.8 -3.75 36.8 Q-2.85 36.8 -2.25 37.4 -1.8 37.8 -1.7 38.6 L-1.6 39.1 -1.6 39.25 -1.5 39.5 -1.5 39.6 -1.45 40.0 -1.45 39.6 -1.5 39.35 -1.5 38.8 -1.55 38.5 Q-1.55 37.9 -1.15 37.45 -0.75 37.05 -0.25 37.05 L0.85 37.0 1.05 36.95 1.15 36.95 Q1.7 36.95 2.1 37.35 2.5 37.75 2.55 38.3 L2.6 40.65 2.65 40.9 2.7 42.95 2.75 43.35 3.15 43.35 3.4 43.3 4.0 43.3 4.25 43.25 4.35 43.25 Q4.7 43.25 5.05 43.5 L4.7 41.75 4.7 41.65 4.65 41.5 4.45 40.45 4.3 40.05 4.3 39.8 4.25 39.7 4.25 39.65 4.1 38.85 4.05 38.75 4.05 38.6 3.95 38.3 Q3.85 37.7 4.15 37.25 4.55 36.8 5.0 36.7 L5.75 36.55 5.9 36.5 6.0 36.45 6.1 36.45 6.6 36.35 Q7.8 36.35 7.95 37.5 L8.0 37.8 8.05 37.95 8.05 38.15 8.1 38.2 8.1 38.35 8.15 38.55 8.15 38.75 8.2 38.8 8.2 39.0 8.35 39.7 8.4 39.8 8.75 41.5 8.8 42.05 8.95 42.45 9.15 42.45 9.6 42.3 9.85 42.3 10.15 42.2 10.75 42.1 11.25 42.25 11.25 42.15 11.2 41.95 11.05 41.7 10.8 40.75 10.65 40.45 10.25 39.2 10.2 38.95 10.1 38.75 9.9 38.15 9.9 38.05 9.6 37.3 Q9.45 36.75 9.6 36.25 9.75 35.7 10.25 35.45 L10.3 35.45 10.35 35.4 10.55 35.35 10.6 35.35 10.8 35.25 11.4 35.05 11.5 35.05 11.65 34.95 12.1 34.9 Q12.45 34.9 12.8 35.15 L13.45 35.95 13.55 36.25 13.55 36.3 13.6 36.15 13.6 36.05 13.65 36.0 13.7 35.65 13.9 35.25 13.9 35.2 14.45 34.25 14.65 34.05 14.7 34.05 14.7 34.0 14.75 33.95 14.95 33.7 16.05 32.95 16.6 32.75 16.8 32.65 17.6 32.45 18.8 32.4 19.65 32.6 19.55 32.35 Q19.15 31.5 19.9 30.9 L20.25 30.65 20.3 30.6 20.4 30.55 20.45 30.45 20.55 30.4 21.25 29.9 21.55 29.75 22.1 29.65 22.3 29.7 23.65 30.1 23.85 30.15 24.0 30.2 24.05 30.2 23.9 30.0 23.75 29.85 23.55 29.6 Q23.0 28.95 23.4 28.15 L23.9 27.65 24.5 27.2 24.5 27.15 24.65 27.05 24.6 27.05 24.8 26.9 Q25.1 26.6 25.6 26.6 26.3 26.6 26.75 27.15 L26.95 27.4 27.05 27.6 30.5 31.8 30.7 32.0 30.7 32.1 31.55 32.95 31.9 34.0 Q31.8 34.65 31.35 34.95 L31.15 35.1 31.0 35.25 30.8 35.4 30.65 35.55 30.45 35.7 29.55 36.0 28.7 35.8 28.45 35.7 28.35 35.7 27.15 35.3 27.8 36.0 Q28.45 36.75 27.85 37.7 L27.55 38.05 26.75 38.8 25.9 39.15 25.75 39.15 Q25.1 39.15 24.75 38.65 L24.7 38.65 24.7 38.6 24.3 38.15 24.1 37.9 23.95 37.65 23.85 37.6 23.7 37.35 23.5 37.2 23.6 37.65 23.55 38.9 Q23.55 39.6 23.1 40.3 L22.85 40.6 22.85 40.65 22.65 40.95 22.05 41.6 21.85 41.75 21.75 41.85 21.7 41.85 21.7 41.9 21.1 42.3 20.35 42.65 20.05 42.7 19.7 42.85 19.25 42.9 19.15 42.9 19.0 42.95 18.45 42.95 18.05 42.9 17.95 42.9 16.5 42.45 15.85 42.05 15.8 42.0 15.75 42.0 15.65 41.95 15.5 41.8 15.45 41.8 15.4 41.75 15.4 41.8 15.75 42.85 15.9 43.15 Q16.05 43.7 15.75 44.25 L15.0 44.85 14.8 44.9 14.7 44.95 14.3 45.1 14.05 45.15 14.0 45.15 13.95 45.2 13.75 45.3 13.3 45.35 Q12.7 45.35 12.25 44.9 12.15 45.85 11.05 46.1 L9.2 46.45 9.1 46.5 8.85 46.55 8.6 46.55 8.45 46.6 6.9 46.9 Q6.1 46.9 5.7 46.2 L5.4 46.8 Q5.05 47.25 4.3 47.25 L4.05 47.25 3.8 47.3 3.5 47.3 3.15 47.35 1.8 47.35 1.7 47.4 0.8 47.4 0.4 47.45 0.35 47.45 Q-0.45 47.45 -0.9 46.8 -1.25 47.45 -2.05 47.45 L-2.4 47.45 -2.65 47.4 -3.1 47.4 -4.2 47.1 Q-4.7 46.8 -4.85 46.0 L-4.9 45.8 -5.15 45.75 -5.65 45.75 -5.7 45.8 -6.2 46.6 Q-6.5 46.9 -7.0 46.9 L-7.35 46.9 -7.7 46.85 -7.9 46.8 -8.3 46.8 -9.1 46.5 Q-9.8 46.0 -9.7 45.2 L-9.55 44.7 -10.4 45.2 -11.4 45.5 -11.45 45.5 -11.8 45.55 -12.7 45.55 -14.85 45.0 -16.2 44.55 Q-17.7 44.1 -17.55 42.85 -17.95 43.5 -18.6 43.5 L-19.35 43.3 -19.4 43.25 -19.45 43.25 -19.6 43.1 -19.7 43.1 -20.3 42.8 -20.45 42.7 -20.5 42.7 -20.5 42.65 -21.7 42.1 -22.1 41.85 -22.15 41.8 -23.25 41.2 -24.0 40.4 Q-24.25 39.75 -23.9 39.1 L-23.35 38.05 -23.3 38.0 -23.4 38.05 -23.75 38.35 -24.1 38.85 -24.25 39.0 -24.3 39.1 -24.35 39.15 Q-24.8 39.65 -25.4 39.65 -26.05 39.65 -26.5 39.25 L-26.7 39.05 -27.15 38.7 -27.35 38.5 Q-27.75 38.2 -27.8 37.7 -27.9 37.15 -27.5 36.7 L-27.45 36.6 -27.3 36.4 -27.1 36.2 -26.85 35.85 -26.8 35.8 -27.65 35.45 -28.05 34.9 -28.15 34.15 -28.2 34.2 -28.9 35.05 -28.95 35.15 -29.1 35.35 Q-29.6 35.85 -30.15 35.85 -30.7 35.85 -31.05 35.5 L-31.3 35.25 -31.9 34.8 Q-32.55 34.25 -32.45 33.45 L-32.45 33.4 -32.4 33.35 -32.1 32.75 -31.85 32.4 -31.65 32.2 -31.6 32.1 -31.45 31.9 -31.1 31.55 -29.9 30.05 -29.5 29.65 -29.25 29.3 -29.15 29.2 -28.9 28.9 -28.7 28.7 -28.55 28.5 -28.4 28.35 M-13.9 -38.0 L-14.1 -37.8 -14.65 -37.55 -14.85 -37.45 -14.55 -36.65 -14.4 -36.4 -13.8 -35.0 -13.55 -34.6 -13.45 -34.2 -13.35 -34.05 -12.8 -32.75 -12.75 -32.7 -13.1 -34.3 -13.15 -34.65 -13.45 -36.05 -13.45 -36.15 -13.5 -36.15 -13.5 -36.25 -13.75 -37.5 -13.9 -38.0 M15.35 -37.05 L15.25 -37.05 14.95 -36.95 14.9 -36.95 14.85 -36.9 14.8 -36.9 14.45 -36.65 14.45 -36.6 14.2 -36.25 14.0 -35.8 14.0 -35.6 13.95 -35.4 13.95 -34.95 14.1 -34.5 14.2 -34.45 14.3 -34.3 14.35 -34.3 14.45 -34.2 14.65 -34.15 14.7 -34.1 14.85 -34.05 15.3 -34.1 15.7 -34.35 15.8 -34.45 16.05 -34.75 16.15 -35.0 16.25 -35.15 16.3 -35.4 16.4 -35.55 16.4 -36.1 16.25 -36.5 16.25 -36.55 16.0 -36.8 15.6 -37.0 15.5 -37.0 15.35 -37.05 M24.1 -32.45 L24.0 -32.5 23.4 -32.5 23.35 -32.45 23.2 -32.4 23.1 -32.3 22.65 -31.75 22.6 -31.55 22.55 -31.5 22.5 -31.4 22.4 -31.1 22.4 -31.05 22.45 -30.55 22.5 -30.5 22.55 -30.35 22.8 -31.05 23.3 -31.7 23.35 -31.75 23.45 -31.9 24.1 -32.45 M23.45 -36.75 L24.25 -36.65 24.4 -36.6 25.25 -36.45 26.45 -35.8 26.8 -35.6 26.85 -35.55 26.95 -35.5 27.1 -35.35 27.15 -35.35 27.25 -35.25 27.55 -35.1 28.15 -34.65 Q29.15 -33.9 29.3 -33.15 29.5 -32.55 29.25 -31.95 L29.4 -32.2 Q29.8 -32.5 30.25 -32.5 30.8 -32.5 31.25 -32.0 L31.45 -31.8 31.6 -31.6 31.85 -31.4 32.05 -31.15 32.1 -31.1 32.3 -30.95 32.65 -30.35 32.6 -29.1 32.4 -28.7 32.35 -28.65 32.25 -28.25 32.15 -28.0 32.15 -27.95 33.75 -28.45 33.9 -28.45 Q34.55 -28.45 35.05 -27.9 L35.15 -27.8 35.15 -27.75 35.2 -27.75 35.7 -27.15 35.85 -27.05 36.05 -26.8 Q36.55 -26.3 36.5 -25.75 L36.15 -25.0 Q35.85 -24.7 35.2 -24.55 L35.15 -24.5 34.95 -24.45 34.7 -24.35 34.6 -24.35 34.55 -24.3 34.45 -24.3 34.25 -24.2 32.5 -23.7 32.4 -23.7 32.15 -23.65 31.55 -23.45 31.55 -23.4 31.4 -23.4 31.3 -23.35 31.2 -23.35 31.15 -23.3 31.05 -23.3 30.7 -23.2 30.65 -23.15 30.5 -23.15 30.45 -23.1 30.4 -23.1 29.6 -22.8 29.55 -22.7 29.4 -22.55 29.15 -22.35 29.0 -22.2 28.85 -22.1 28.6 -21.8 28.2 -21.5 28.15 -21.4 27.95 -21.2 Q27.55 -20.8 26.95 -20.8 26.35 -20.8 25.95 -21.25 L25.8 -21.5 25.75 -21.5 25.15 -22.1 24.95 -22.35 Q24.55 -22.75 24.6 -23.35 24.6 -23.95 25.05 -24.4 L25.4 -24.65 25.45 -24.75 25.6 -24.9 26.0 -25.2 26.05 -25.3 26.1 -25.3 26.35 -25.6 26.65 -25.85 26.65 -25.9 26.85 -26.1 26.95 -26.3 26.95 -26.35 27.45 -27.5 27.55 -27.85 27.6 -27.9 27.6 -27.95 27.8 -28.35 27.8 -28.45 28.15 -29.4 28.3 -29.7 28.35 -29.9 28.45 -30.1 28.6 -30.5 28.65 -30.6 28.85 -31.2 28.85 -31.25 28.9 -31.35 28.9 -31.4 29.0 -31.6 28.9 -31.5 28.85 -31.35 28.7 -31.25 28.65 -31.05 28.45 -30.8 27.75 -30.3 27.75 -29.5 27.15 -28.5 27.05 -28.3 26.0 -26.85 25.95 -26.8 25.8 -26.5 25.55 -26.25 25.45 -26.05 25.3 -25.9 24.9 -25.4 24.9 -25.35 24.85 -25.35 24.3 -24.75 24.25 -24.7 24.15 -24.7 23.45 -24.5 22.75 -24.65 21.4 -25.55 21.3 -25.6 21.2 -25.7 20.9 -25.85 20.05 -26.65 19.3 -27.65 19.2 -27.8 19.05 -27.95 19.05 -28.0 19.0 -28.05 18.5 -29.35 18.3 -30.05 18.2 -31.0 17.65 -30.6 Q17.0 -30.15 16.25 -30.0 L15.75 -30.0 15.4 -29.95 14.4 -29.95 14.15 -30.0 14.0 -30.05 13.95 -30.05 13.2 -30.25 12.4 -30.6 11.45 -31.35 11.3 -31.5 11.25 -31.5 11.25 -31.55 10.8 -32.0 10.65 -32.3 10.55 -32.4 10.55 -32.45 Q10.15 -31.85 9.4 -31.85 L8.95 -31.9 7.0 -32.3 6.85 -32.35 6.55 -32.4 6.4 -32.4 6.3 -32.45 6.2 -32.45 5.95 -32.5 5.65 -32.6 5.4 -32.65 5.2 -32.65 4.85 -32.7 Q4.3 -32.8 3.85 -33.35 L3.65 -34.15 3.25 -33.8 2.85 -33.6 2.8 -33.6 2.45 -33.4 1.55 -33.1 1.3 -33.05 1.15 -33.0 1.1 -33.0 0.9 -32.95 0.35 -32.9 -0.55 -32.95 -0.85 -33.0 -1.7 -33.25 -1.8 -33.3 -1.95 -33.35 -2.5 -33.6 -2.8 -33.85 -2.9 -33.9 -3.3 -34.2 Q-3.3 -33.15 -4.4 -32.9 L-4.6 -32.85 -4.75 -32.85 -5.0 -32.75 -5.4 -32.65 -6.0 -32.6 Q-6.5 -32.6 -6.9 -32.9 L-7.0 -32.95 -7.05 -33.05 -7.5 -33.85 -7.65 -34.7 -7.7 -34.8 -7.9 -35.8 -8.0 -35.8 -8.2 -35.75 -8.25 -35.75 -8.65 -35.65 -8.85 -35.65 -9.0 -35.6 -9.05 -35.6 -9.05 -35.4 -9.0 -35.35 -9.0 -35.2 -8.65 -33.75 Q-8.3 -32.15 -9.65 -31.75 L-10.1 -31.65 -10.2 -31.65 -10.55 -31.55 -11.4 -31.4 Q-12.05 -31.4 -12.5 -32.0 -12.2 -30.9 -13.45 -30.35 L-14.1 -30.05 -14.4 -29.95 -14.45 -29.95 -14.65 -29.85 Q-14.95 -29.7 -15.2 -29.7 -15.7 -29.7 -16.25 -30.25 L-16.55 -30.8 -17.55 -33.1 -17.65 -33.4 -18.0 -34.2 -18.0 -34.3 -18.3 -34.85 -18.55 -35.5 -18.65 -35.65 -18.7 -35.8 -18.9 -35.75 -18.95 -35.7 -18.95 -35.75 -19.3 -35.5 -19.9 -35.4 -20.4 -35.5 -20.25 -34.35 -20.25 -34.0 -20.15 -33.4 -20.15 -33.2 -20.1 -33.15 -20.1 -32.85 -20.05 -32.65 -20.05 -32.45 -20.0 -32.4 -20.0 -32.2 -19.8 -31.35 -19.75 -31.25 -19.6 -31.1 -19.35 -30.65 -19.25 -30.55 -19.0 -30.25 -18.85 -29.95 -18.75 -29.8 -18.65 -29.7 -18.5 -29.5 Q-18.15 -28.95 -18.25 -28.4 -18.35 -27.85 -18.85 -27.5 L-19.1 -27.4 -19.1 -27.35 -19.3 -27.25 -20.1 -26.7 Q-20.45 -26.45 -20.85 -26.45 -21.7 -26.45 -22.1 -27.1 L-22.35 -27.55 -22.5 -27.75 -22.65 -28.05 -22.8 -28.2 -22.85 -28.3 -23.05 -28.55 -23.25 -28.9 -23.3 -28.9 -23.4 -29.05 -23.5 -29.15 -23.65 -29.25 -23.7 -29.3 -24.0 -29.45 -25.1 -30.1 -25.15 -30.15 -25.2 -30.15 -25.45 -30.35 -25.6 -30.4 -26.55 -30.9 -27.0 -31.2 -27.25 -31.3 -27.45 -31.45 -27.05 -31.05 -26.95 -30.9 -26.05 -30.1 -25.85 -29.95 -25.7 -29.75 -23.4 -27.55 -23.0 -27.25 -22.9 -27.15 -22.85 -27.05 -22.75 -27.0 Q-22.35 -26.6 -22.3 -26.0 -22.25 -25.35 -22.8 -24.8 L-23.45 -24.15 -23.5 -24.05 -23.65 -23.9 Q-24.05 -23.5 -24.6 -23.5 -25.15 -23.5 -25.55 -23.85 L-26.25 -24.55 -26.4 -24.65 -26.6 -24.85 Q-26.6 -24.2 -27.0 -23.8 -27.25 -23.55 -27.55 -23.45 L-28.1 -23.35 -28.5 -23.4 -28.6 -23.45 -28.5 -23.35 -28.4 -23.15 -27.95 -22.8 -27.5 -22.35 -27.35 -22.25 -27.2 -22.1 -26.75 -21.15 Q-26.75 -20.55 -27.15 -20.15 L-27.65 -19.7 -27.65 -19.65 -27.8 -19.5 -28.0 -19.25 Q-28.5 -18.75 -29.05 -18.75 L-29.45 -18.8 -29.5 -18.8 -29.5 -18.85 Q-29.9 -18.95 -30.1 -19.15 L-30.65 -19.7 -30.8 -19.8 -31.35 -20.35 -31.55 -20.6 -31.85 -20.8 -33.1 -22.05 -33.25 -22.15 -34.25 -23.15 -34.45 -23.3 -34.6 -23.45 -34.6 -23.5 -34.75 -23.6 -34.8 -23.6 -35.2 -24.0 -36.15 -24.8 Q-36.7 -25.35 -36.55 -26.15 L-36.2 -26.9 -35.7 -27.4 -35.5 -27.65 Q-35.1 -28.2 -34.35 -28.2 L-32.4 -27.85 -32.35 -27.85 -32.3 -27.8 -32.15 -27.8 -31.85 -27.75 -31.6 -27.75 -31.2 -27.7 -31.2 -27.75 -31.3 -28.05 -31.35 -28.4 -31.4 -28.45 -31.45 -28.7 -31.6 -29.05 -31.7 -29.45 -31.9 -29.95 -31.9 -30.05 -31.95 -30.1 -31.95 -30.2 -32.05 -30.45 -32.05 -30.6 Q-32.05 -31.25 -31.65 -31.7 L-31.4 -32.0 -30.75 -32.65 -30.7 -32.65 Q-30.3 -33.1 -29.7 -33.1 L-29.3 -33.0 -29.25 -33.7 -28.7 -34.35 -28.5 -34.5 -28.4 -34.55 -27.75 -35.0 -27.65 -35.1 -27.45 -35.25 -26.8 -35.5 -26.45 -35.55 -25.6 -35.25 -25.25 -35.05 -25.15 -34.95 -24.55 -34.65 -24.55 -34.8 -24.65 -35.3 -24.65 -35.4 -24.75 -36.3 -24.75 -36.45 -24.4 -37.2 -24.05 -37.5 -23.9 -37.6 -23.85 -37.65 -22.8 -38.35 -21.95 -38.65 -21.7 -38.65 -20.9 -39.25 -19.0 -40.05 -18.45 -40.35 -18.25 -40.4 -18.2 -40.45 -17.9 -40.6 -17.7 -40.65 -17.65 -40.65 -17.55 -40.75 -17.35 -40.8 -17.0 -40.95 -16.95 -41.0 -16.45 -41.2 -16.3 -41.2 -16.25 -41.25 -15.95 -41.4 -15.5 -41.55 -15.3 -41.55 Q-14.8 -41.55 -14.45 -41.25 L-14.35 -41.55 Q-14.05 -42.15 -13.35 -42.3 L-13.15 -42.35 -13.0 -42.35 -12.8 -42.4 -12.7 -42.4 -12.5 -42.5 -12.3 -42.55 -12.1 -42.55 -11.6 -42.65 -11.5 -42.65 -11.35 -42.6 Q-10.5 -42.45 -10.35 -41.5 L-10.15 -40.35 -9.95 -39.7 -8.75 -39.95 -8.8 -40.05 -8.95 -40.65 -8.95 -40.8 -9.2 -41.6 -9.1 -42.65 -8.2 -43.4 -7.95 -43.45 -7.9 -43.45 -7.75 -43.5 -7.7 -43.5 -7.4 -43.55 -7.3 -43.6 -7.25 -43.6 -6.4 -43.8 Q-5.3 -43.8 -5.05 -42.6 L-4.95 -41.9 -4.9 -41.75 -4.7 -40.9 -4.7 -40.75 -3.9 -42.2 -3.65 -42.45 -3.65 -42.5 -2.95 -43.15 -2.9 -43.2 -2.7 -43.35 -1.9 -43.8 -1.65 -43.9 -1.55 -43.9 -1.45 -43.95 -1.15 -44.05 0.2 -44.25 0.25 -44.25 0.85 -44.15 1.1 -44.15 1.95 -43.95 2.0 -43.9 2.05 -43.9 2.2 -43.8 3.05 -43.4 3.9 -42.65 4.1 -42.4 4.2 -42.35 4.2 -42.3 4.25 -42.3 4.3 -42.2 4.4 -42.1 4.8 -41.45 4.9 -41.15 4.95 -41.05 4.95 -41.1 5.1 -41.7 5.1 -41.9 5.15 -42.05 5.25 -42.55 5.7 -43.35 Q6.05 -43.7 6.6 -43.7 L7.9 -43.45 8.05 -43.45 8.25 -43.4 Q8.9 -43.3 9.2 -42.8 9.55 -42.35 9.4 -41.7 L9.3 -41.2 9.25 -41.1 9.25 -41.05 9.2 -40.9 9.2 -40.8 9.1 -40.45 9.1 -40.35 8.9 -39.35 8.85 -39.2 8.85 -38.95 8.35 -36.8 8.3 -36.25 8.4 -36.2 8.55 -36.2 9.55 -36.0 9.65 -35.95 9.8 -35.95 9.9 -36.4 9.9 -36.45 10.35 -37.8 10.7 -38.4 11.4 -39.35 11.9 -39.85 12.2 -40.05 12.3 -40.15 12.75 -40.45 13.05 -40.6 13.1 -40.65 13.15 -40.65 13.2 -40.7 13.55 -40.85 14.0 -41.0 14.05 -41.0 14.25 -41.1 15.15 -41.2 15.95 -41.2 17.35 -40.85 18.05 -40.4 18.8 -39.9 18.85 -39.85 18.9 -39.85 19.0 -39.7 19.6 -39.0 20.15 -38.0 20.25 -37.65 20.3 -37.6 20.3 -37.5 20.4 -37.3 20.5 -36.55 20.55 -36.2 20.55 -35.75 21.2 -36.2 22.2 -36.6 23.45 -36.75" fill="#cfa00a" fill-rule="evenodd" stroke="none"/>
    <path d="M-26.55 26.45 L-26.1 26.3 -25.9 26.35 -25.85 26.4 -25.85 26.45 -25.8 26.5 -25.35 26.85 -25.15 26.95 Q-24.9 27.2 -25.0 28.0 L-25.15 29.0 -25.15 29.3 -25.2 29.8 -25.2 30.7 -25.15 31.3 -24.6 31.25 -23.9 31.05 -23.65 30.95 -23.2 30.85 -21.95 30.3 -21.75 30.25 -21.55 30.15 -21.2 30.25 -20.75 30.7 -20.5 30.85 -20.3 31.05 Q-20.0 31.3 -20.2 31.6 L-20.5 31.85 -21.4 33.0 -21.8 33.35 -24.0 36.1 -24.1 36.25 -24.55 36.65 -24.9 37.2 -25.15 37.45 -25.85 37.4 -26.75 36.65 -26.75 36.25 -26.55 35.95 -25.1 34.3 -24.7 33.8 -24.75 33.5 -25.4 33.45 -25.9 33.55 -26.35 33.65 -27.0 33.6 -27.1 33.45 -27.15 33.1 -27.15 32.1 -27.15 31.7 Q-27.1 31.1 -27.2 31.0 L-27.45 30.9 -27.85 31.2 -29.9 33.65 -30.4 33.7 -30.85 33.25 -31.3 32.95 -31.45 32.55 -31.35 32.3 -30.9 31.8 -30.65 31.45 -28.65 29.05 -28.0 28.35 -26.55 26.45" fill="#fbd248" fill-rule="evenodd" stroke="none"/>
    <path d="M-26.25 26.3 L-26.55 26.45 -27.8 28.1 -28.65 29.05 -30.65 31.45 -30.9 31.8 -31.35 32.3 -31.45 32.55 -31.3 32.95 -30.85 33.25 -30.4 33.7 -30.15 33.75 -29.9 33.65 -27.85 31.2 -27.45 30.9 -27.2 31.0 Q-27.1 31.1 -27.15 31.7 L-27.15 32.1 -27.15 33.1 -27.1 33.45 -27.0 33.6 -26.75 33.7 -26.35 33.65 -25.9 33.55 -25.05 33.4 -24.75 33.5 -24.7 33.8 -25.1 34.3 -26.55 35.95 -26.75 36.25 -26.75 36.65 -25.85 37.4 -25.4 37.6 Q-25.2 37.6 -25.15 37.45 L-24.9 37.2 -24.55 36.65 -24.1 36.25 -24.0 36.1 -21.8 33.35 -21.4 33.0 -20.5 31.85 -20.2 31.6 Q-20.0 31.3 -20.3 31.05 L-20.5 30.85 -20.75 30.7 -21.2 30.25 -21.5 30.15 -21.55 30.15 -21.75 30.25 -21.95 30.3 -23.2 30.85 -23.65 30.95 -23.9 31.05 -25.0 31.35 -25.15 31.3 -25.2 30.7 -25.2 29.8 -25.15 29.3 -25.15 29.0 -25.0 28.0 Q-24.9 27.2 -25.15 26.95 L-25.35 26.85 -25.8 26.5 -25.85 26.45 -25.85 26.4 -25.9 26.35 -26.1 26.3 -26.25 26.3 M-28.3 27.1 L-28.25 27.0 -28.0 26.75 -27.3 25.8 Q-26.85 25.3 -26.25 25.3 L-26.0 25.3 Q-25.6 25.3 -25.25 25.6 L-24.95 25.9 -24.85 25.95 -24.8 26.0 -24.5 26.2 Q-24.05 26.6 -23.95 27.1 L-24.0 28.1 -24.05 28.35 -24.1 28.85 -24.15 29.1 -24.15 29.6 -24.2 29.8 -24.2 30.1 -24.1 30.05 -23.95 30.0 -23.65 29.95 -23.6 29.9 -23.4 29.85 -23.1 29.7 -22.95 29.65 -22.3 29.35 -22.15 29.35 -22.1 29.3 -22.05 29.3 -21.8 29.2 -21.75 29.2 -21.65 29.15 -21.5 29.15 Q-21.0 29.15 -20.55 29.5 L-20.05 29.95 -19.65 30.25 -19.6 30.3 Q-19.2 30.7 -19.15 31.25 -19.1 31.8 -19.45 32.25 L-19.6 32.35 -20.65 33.6 -20.9 33.85 -21.0 34.0 -21.3 34.35 -21.7 34.85 -21.8 35.0 -22.0 35.2 -23.2 36.75 -23.75 37.3 -24.1 37.8 -24.3 38.0 -24.35 38.1 Q-24.8 38.6 -25.4 38.6 -25.95 38.6 -26.5 38.2 L-26.7 37.95 -27.15 37.65 -27.35 37.45 -27.8 36.6 Q-27.9 36.05 -27.5 35.6 L-27.45 35.5 -27.3 35.3 -26.95 34.95 -26.85 34.8 -26.8 34.7 -27.65 34.35 -28.05 33.85 -28.15 33.05 -28.2 33.15 -28.9 34.0 -28.95 34.1 -29.1 34.3 Q-29.55 34.75 -30.15 34.75 L-31.05 34.45 -31.3 34.2 -31.5 34.05 -31.65 33.9 -31.9 33.75 Q-32.55 33.2 -32.45 32.35 L-32.45 32.3 -32.4 32.25 -32.1 31.7 -31.85 31.35 -31.65 31.15 -31.6 31.0 -31.1 30.5 -30.15 29.3 -30.05 29.2 -29.9 29.0 -29.55 28.65 -29.5 28.55 -29.4 28.4 -29.25 28.25 -29.15 28.1 -28.9 27.85 -28.8 27.7 -28.55 27.45 -28.45 27.3 -28.4 27.25 -28.35 27.15 -28.3 27.1" fill="#ac800a" fill-rule="evenodd" stroke="none"/>
    <path d="M-18.9 31.7 L-17.4 32.55 -16.6 32.9 -15.6 33.5 -15.15 33.7 Q-14.8 33.9 -14.95 34.25 L-15.15 34.55 -15.4 35.1 -15.65 35.3 -15.85 35.3 -16.15 35.25 -16.45 35.05 -16.95 34.85 -17.05 34.75 -17.3 34.6 -17.55 34.4 Q-18.35 34.0 -18.6 34.55 -19.0 35.2 -18.65 35.45 L-18.25 35.7 Q-17.5 36.1 -16.8 36.45 L-16.5 36.65 -16.5 37.05 -16.9 37.75 -17.05 37.95 Q-17.2 38.35 -17.7 38.1 L-18.5 37.65 -18.75 37.55 -19.05 37.35 -19.4 37.2 -19.45 37.15 -19.7 37.1 Q-19.95 37.05 -20.15 37.45 L-20.4 38.2 -19.8 38.8 -18.2 39.6 -18.0 39.75 -17.85 40.05 -18.0 40.5 -18.05 40.6 -18.15 40.9 -18.3 41.2 -18.85 41.35 -19.45 41.0 -19.7 40.9 -21.2 40.1 -21.65 39.85 -22.8 39.25 -23.05 39.0 -23.0 38.5 -22.7 37.85 -20.75 34.25 -20.55 33.75 -19.95 32.75 -19.7 32.2 -19.4 31.8 -18.9 31.7" fill="#fbd248" fill-rule="evenodd" stroke="none"/>
    <path d="M-19.1 31.65 Q-19.25 31.65 -19.4 31.8 L-19.7 32.2 -20.25 33.3 -20.55 33.75 -20.75 34.25 -23.0 38.5 -23.05 39.0 -22.8 39.25 -21.65 39.85 -21.2 40.1 -19.7 40.9 -19.45 41.0 -18.85 41.35 -18.6 41.4 -18.3 41.2 -18.15 40.9 -18.05 40.6 -18.0 40.5 -17.85 40.05 -18.0 39.75 -18.2 39.6 -19.8 38.8 -20.4 38.2 -20.15 37.45 -19.75 37.1 -19.7 37.1 -19.45 37.15 -19.4 37.2 -19.05 37.35 -18.75 37.55 -18.5 37.65 -17.7 38.1 -17.4 38.2 Q-17.15 38.2 -17.05 37.95 L-16.65 37.35 -16.5 37.05 -16.5 36.65 -16.8 36.45 Q-17.5 36.1 -18.25 35.7 L-18.65 35.45 Q-19.0 35.2 -18.6 34.55 -18.45 34.2 -18.2 34.2 L-17.55 34.4 -17.3 34.6 -17.05 34.75 -16.95 34.85 -16.45 35.05 -16.15 35.25 -15.85 35.3 -15.75 35.35 -15.65 35.3 -15.4 35.1 -15.15 34.55 -14.95 34.25 Q-14.8 33.9 -15.15 33.7 L-15.6 33.5 -16.6 32.9 -17.0 32.75 -18.9 31.7 -19.1 31.65 M-19.1 30.65 L-18.45 30.85 -18.2 30.95 -18.05 31.05 -17.4 31.35 -17.1 31.55 -16.55 31.85 -16.4 31.9 -16.15 32.05 -15.75 32.2 -15.15 32.6 -14.7 32.8 Q-14.15 33.1 -13.95 33.65 -13.8 34.2 -14.1 34.7 L-14.2 34.85 -14.5 35.55 -15.2 36.2 -15.55 36.3 Q-15.3 36.95 -15.6 37.55 L-15.85 37.9 -16.0 38.25 -16.15 38.5 -16.2 38.5 -16.2 38.55 -16.25 38.55 -17.15 39.2 Q-16.85 39.6 -16.85 40.05 -16.85 40.65 -17.15 40.95 L-17.15 41.05 -17.25 41.3 -17.25 41.35 -17.3 41.4 -17.45 41.65 Q-17.85 42.4 -18.6 42.4 L-19.35 42.2 -19.4 42.2 -19.45 42.15 -19.5 42.15 -19.6 42.05 -20.3 41.7 -20.45 41.65 -20.5 41.6 -22.1 40.75 -22.15 40.75 -22.9 40.3 -23.25 40.15 -24.0 39.35 Q-24.25 38.65 -23.9 38.05 L-23.55 37.35 -23.45 37.2 -23.05 36.35 -22.75 35.9 -21.75 33.95 -21.65 33.8 -21.65 33.75 -21.55 33.6 -21.15 32.8 -20.95 32.5 -20.6 31.75 -20.0 30.95 Q-19.55 30.65 -19.1 30.65" fill="#ac800a" fill-rule="evenodd" stroke="none"/>
    <path d="M-13.95 34.4 L-11.2 35.2 -11.0 35.3 -10.85 35.35 -10.35 35.6 -10.25 35.7 Q-10.0 35.8 -10.0 35.85 L-9.85 36.0 -9.55 36.2 -9.4 36.35 -8.9 37.0 Q-8.5 37.7 -8.4 38.45 L-8.3 39.2 -8.45 40.15 -8.55 40.4 -8.65 40.85 -9.0 41.5 -9.3 42.0 -9.45 42.15 -9.6 42.35 -10.1 42.8 -10.85 43.25 -11.55 43.45 -11.9 43.45 -12.2 43.5 -12.65 43.45 -14.5 43.0 -14.55 43.0 -15.95 42.55 -16.35 42.35 -16.55 41.9 -16.4 41.55 -15.55 38.8 -15.45 38.25 -15.3 37.95 -14.4 34.95 Q-14.3 34.45 -13.95 34.4 M-13.95 40.5 Q-14.15 41.15 -12.95 41.5 L-12.65 41.6 -11.8 41.55 Q-11.3 41.4 -10.85 40.8 L-10.45 40.05 -10.3 39.2 -10.3 38.95 -10.45 38.5 -10.7 38.0 -11.0 37.6 Q-11.35 37.25 -12.0 37.1 L-12.35 37.0 -12.6 37.05 -13.1 37.55 -13.55 38.9 -13.95 40.5" fill="#fbd248" fill-rule="evenodd" stroke="none"/>
    <path d="M-11.4 38.7 L-11.55 38.55 -11.7 38.3 -12.2 38.05 -12.25 38.25 -12.3 38.35 -12.95 40.45 -12.65 40.55 -12.55 40.6 -12.05 40.6 -11.4 39.8 -11.35 39.45 -11.35 39.35 -11.3 39.1 -11.3 39.05 -11.35 38.95 -11.4 38.7 M-13.95 40.5 L-13.55 38.9 -13.1 37.55 -12.6 37.05 -12.45 37.0 -12.35 37.0 -12.0 37.1 Q-11.35 37.25 -11.0 37.6 L-10.7 38.0 -10.45 38.5 -10.3 38.95 -10.3 39.2 -10.45 40.05 -10.85 40.8 Q-11.3 41.4 -11.8 41.55 L-12.65 41.6 -12.95 41.5 Q-14.15 41.15 -13.95 40.5 M-13.95 34.4 Q-14.3 34.45 -14.4 34.95 L-15.3 37.95 -15.45 38.25 -15.55 38.8 -16.4 41.55 -16.55 41.9 -16.35 42.35 -15.95 42.55 -14.55 43.0 -14.5 43.0 -12.65 43.45 -12.25 43.5 -12.2 43.5 -11.9 43.45 -11.55 43.45 -10.85 43.25 -10.1 42.8 -9.6 42.35 -9.45 42.15 -9.3 42.0 -9.0 41.5 -8.65 40.85 -8.55 40.4 -8.45 40.15 -8.3 39.2 -8.4 38.45 Q-8.5 37.7 -8.9 37.0 L-9.4 36.35 -9.55 36.2 -9.85 36.0 -10.0 35.85 Q-10.0 35.8 -10.25 35.7 L-10.35 35.6 -10.85 35.35 -11.0 35.3 -11.2 35.2 -13.95 34.4 M-7.6 40.7 L-7.7 41.15 -8.5 42.65 -8.7 42.8 -8.7 42.85 -8.85 43.0 -8.85 43.05 -8.9 43.1 -9.15 43.3 -9.2 43.3 -9.25 43.4 -9.4 43.55 -9.45 43.55 -9.45 43.6 -10.4 44.15 -11.4 44.45 -11.85 44.45 -12.1 44.5 -12.25 44.5 -12.55 44.45 -12.7 44.45 -14.85 43.95 -16.2 43.5 Q-17.8 43.0 -17.5 41.6 L-17.35 41.25 -17.0 39.95 -16.95 39.85 -16.3 37.75 -16.25 37.65 -15.35 34.65 Q-15.0 33.5 -14.05 33.4 L-13.95 33.4 -12.6 33.75 -12.5 33.8 -12.3 33.85 -12.2 33.85 -12.0 33.95 -11.35 34.1 -11.1 34.2 -10.9 34.25 -10.7 34.35 -10.65 34.35 -10.55 34.4 -9.75 34.75 -9.7 34.85 -9.65 34.85 -9.35 35.05 -9.2 35.2 -9.05 35.3 -8.85 35.5 -8.75 35.55 -8.75 35.6 -8.7 35.6 -8.1 36.35 Q-7.5 37.3 -7.4 38.3 L-7.3 39.25 -7.5 40.45 -7.55 40.6 -7.6 40.7" fill="#ac800a" fill-rule="evenodd" stroke="none"/>
    <path d="M-3.8 36.7 Q-3.3 36.7 -2.95 37.05 L-2.65 37.7 -2.6 38.2 -2.5 38.6 -2.45 39.05 -2.45 39.3 -2.4 39.45 -2.2 41.2 -2.2 41.55 -2.15 41.75 -2.1 42.6 -1.95 43.4 -1.95 43.65 -1.75 44.85 -1.75 45.2 Q-1.8 45.5 -2.3 45.35 L-2.95 45.35 -3.65 45.15 -3.9 44.7 -3.95 44.4 -4.0 44.25 -4.3 43.85 -5.4 43.65 -5.8 43.7 -6.3 43.85 -6.65 44.55 -6.8 44.75 -7.25 44.8 -8.15 44.7 -8.55 44.6 -8.7 44.25 -8.6 43.95 -8.5 43.8 -8.4 43.3 -7.3 40.0 -7.15 39.75 -7.15 39.6 -6.7 38.3 -6.55 38.05 -6.45 37.75 Q-6.15 36.5 -5.35 36.55 L-5.05 36.6 -3.8 36.7 M-5.45 40.6 L-5.5 40.85 -5.65 41.25 Q-5.7 41.8 -4.95 41.9 L-4.4 41.9 -4.1 41.65 -4.15 40.7 -4.25 40.35 -4.25 39.95 -4.4 39.25 -4.6 38.95 -4.85 39.05 -5.2 39.8 -5.25 40.1 -5.45 40.6" fill="#fbd248" fill-rule="evenodd" stroke="none"/>
    <path d="M-5.45 40.6 L-5.25 40.1 -5.2 39.8 -4.85 39.05 -4.65 38.95 -4.6 38.95 -4.4 39.25 -4.25 39.95 -4.25 40.35 -4.15 40.7 -4.1 41.65 -4.4 41.9 -4.95 41.9 Q-5.7 41.8 -5.65 41.25 L-5.5 40.85 -5.45 40.6 M-3.85 35.7 L-3.75 35.7 Q-2.95 35.7 -2.25 36.3 -1.8 36.75 -1.7 37.5 L-1.65 37.85 -1.6 38.05 -1.6 38.15 -1.5 38.45 -1.5 38.5 -1.45 39.0 -1.45 39.35 -1.35 40.1 -1.35 40.2 -1.3 40.35 -1.2 41.2 -1.2 41.55 -1.15 41.6 -1.15 41.85 -1.1 42.15 -1.1 42.45 -1.05 42.65 -0.85 44.25 -0.85 44.45 -0.75 44.8 -0.8 45.3 Q-0.9 46.4 -2.05 46.4 L-2.4 46.35 -2.65 46.35 -3.1 46.3 Q-4.55 46.2 -4.85 44.9 L-4.9 44.75 -5.5 44.65 -5.65 44.7 -5.7 44.75 -6.2 45.55 Q-6.5 45.85 -7.0 45.85 L-7.7 45.75 -8.0 45.75 -8.3 45.7 -9.1 45.45 Q-9.8 44.95 -9.7 44.15 L-9.5 43.5 -9.45 43.45 -9.45 43.3 -9.4 43.15 -9.35 43.05 -9.2 42.6 -9.1 42.1 -9.05 42.1 -9.05 42.05 -8.8 41.3 -8.7 41.1 -8.7 41.05 -8.2 39.55 -8.1 39.4 -8.1 39.3 -7.75 38.3 -7.7 38.2 -7.6 37.9 -7.5 37.7 -7.5 37.65 -7.45 37.6 -7.45 37.5 Q-6.95 35.55 -5.5 35.55 L-5.25 35.55 -3.85 35.7 M-2.95 37.05 Q-3.3 36.7 -3.75 36.7 L-3.8 36.7 -5.05 36.6 -5.35 36.55 -5.5 36.55 Q-6.15 36.55 -6.45 37.75 L-6.55 38.05 -6.7 38.3 -7.15 39.6 -7.15 39.75 -7.3 40.0 -8.4 43.3 -8.5 43.8 -8.6 43.95 -8.7 44.25 -8.55 44.6 -7.8 44.75 -7.25 44.8 -7.0 44.85 -6.8 44.75 -6.65 44.55 -6.3 43.85 -5.8 43.7 -5.5 43.65 -5.4 43.65 -4.3 43.85 -4.0 44.25 -3.95 44.4 -3.9 44.7 -3.65 45.15 -2.95 45.35 -2.3 45.35 -2.05 45.4 -1.75 45.2 -1.75 44.85 -1.95 43.65 -1.95 43.4 -2.1 42.6 -2.15 41.75 -2.2 41.55 -2.2 41.2 -2.4 39.45 -2.45 39.3 -2.45 39.05 -2.5 38.6 -2.6 38.2 -2.65 37.7 -2.95 37.05" fill="#ac800a" fill-rule="evenodd" stroke="none"/>
    <path d="M1.55 37.3 L1.55 38.85 1.65 39.9 1.8 42.8 Q1.9 43.25 2.15 43.3 L3.0 43.3 3.95 43.25 4.3 43.2 Q4.7 43.2 4.7 43.55 L4.7 43.85 4.65 44.25 4.75 44.75 Q4.75 45.2 4.25 45.2 L2.4 45.25 2.0 45.3 1.7 45.3 1.4 45.35 0.35 45.4 Q-0.15 45.4 -0.15 44.8 L-0.2 42.85 -0.3 41.95 -0.35 39.85 -0.45 39.15 -0.45 38.5 -0.5 38.2 -0.5 37.8 -0.55 37.4 Q-0.55 37.0 -0.2 37.0 L0.55 36.95 0.85 36.9 1.1 36.9 Q1.55 36.9 1.55 37.3" fill="#fbd248" fill-rule="evenodd" stroke="none"/>
    <path d="M1.15 35.9 Q1.7 35.9 2.1 36.3 2.5 36.65 2.55 37.25 L2.6 39.45 2.6 39.6 2.65 39.85 2.7 40.4 2.7 41.85 2.75 42.3 2.95 42.3 3.15 42.25 4.0 42.25 4.25 42.2 4.35 42.2 Q4.9 42.2 5.3 42.55 L5.7 43.5 5.7 44.1 5.65 44.2 5.7 44.35 5.75 44.7 5.4 45.75 Q4.95 46.2 4.3 46.2 L3.8 46.2 3.5 46.25 2.45 46.25 2.3 46.3 1.7 46.3 1.45 46.35 0.8 46.35 0.4 46.4 0.35 46.4 Q-0.2 46.4 -0.65 46.0 -1.1 45.6 -1.15 44.85 L-1.3 42.0 -1.3 40.85 -1.35 40.65 -1.35 39.9 -1.45 39.2 -1.45 38.55 -1.5 38.25 -1.5 37.75 -1.55 37.45 Q-1.55 36.8 -1.15 36.4 -0.75 36.0 -0.25 36.0 L0.65 35.95 0.75 35.9 1.15 35.9 M0.85 36.9 L0.55 36.95 -0.2 37.0 Q-0.55 37.0 -0.55 37.4 L-0.5 37.8 -0.5 38.2 -0.45 38.5 -0.45 39.15 -0.35 39.85 -0.3 41.95 -0.15 44.8 Q-0.15 45.4 0.35 45.4 L0.9 45.35 1.4 45.35 1.7 45.3 2.0 45.3 2.4 45.25 4.25 45.2 Q4.75 45.2 4.75 44.75 L4.65 44.25 4.7 43.85 4.7 43.55 Q4.7 43.2 4.35 43.2 L4.3 43.2 3.95 43.25 2.15 43.3 Q1.9 43.25 1.8 42.8 L1.65 39.9 1.55 38.85 1.55 37.3 Q1.55 36.9 1.15 36.9 L0.85 36.9" fill="#ac800a" fill-rule="evenodd" stroke="none"/>
    <path d="M6.5 36.3 Q6.9 36.2 7.0 36.65 L7.1 37.45 7.2 37.8 7.4 38.85 7.5 39.2 8.05 42.05 8.45 42.5 10.6 42.05 Q10.9 42.0 11.05 42.35 L11.1 42.65 11.1 43.05 11.25 43.5 Q11.35 43.95 10.85 44.05 L7.05 44.8 Q6.45 44.9 6.45 44.3 L6.35 43.6 5.95 41.9 5.9 41.5 5.3 38.8 5.25 38.4 5.15 38.15 5.05 37.45 4.95 37.05 Q4.75 36.65 5.2 36.6 L5.95 36.45 6.25 36.35 6.5 36.3" fill="#fbd248" fill-rule="evenodd" stroke="none"/>
    <path d="M6.5 36.3 L6.25 36.35 5.95 36.45 5.2 36.6 Q4.75 36.65 4.95 37.05 L5.15 38.15 5.25 38.4 5.3 38.8 5.9 41.5 5.95 41.9 6.45 44.3 Q6.45 44.85 6.9 44.85 L7.05 44.8 10.85 44.05 Q11.35 43.95 11.25 43.5 L11.1 43.05 11.1 42.65 11.05 42.35 10.75 42.05 10.6 42.05 9.35 42.35 8.5 42.5 8.45 42.5 8.05 42.05 7.5 39.2 7.4 38.85 7.2 37.8 7.1 37.45 7.0 36.65 Q6.95 36.3 6.6 36.3 L6.5 36.3 M6.3 35.35 L6.6 35.3 Q7.8 35.3 7.95 36.45 L8.0 36.75 8.05 36.9 8.05 37.05 8.1 37.15 8.1 37.25 8.15 37.45 8.15 37.65 8.2 37.7 8.2 37.95 8.35 38.65 8.4 38.75 8.75 40.45 8.8 40.95 8.95 41.4 9.0 41.4 9.3 41.3 9.85 41.2 10.0 41.2 10.15 41.15 10.75 41.05 Q11.8 41.05 12.0 42.15 L12.1 42.55 12.1 42.85 12.15 42.95 12.25 43.3 Q12.35 43.95 12.05 44.4 11.7 44.9 11.05 45.0 L10.55 45.1 10.25 45.2 9.2 45.35 9.1 45.4 8.65 45.5 8.6 45.5 8.0 45.65 7.75 45.65 7.25 45.8 6.9 45.85 Q5.7 45.85 5.45 44.5 L5.15 42.8 4.7 40.7 4.7 40.6 4.45 39.4 4.3 39.0 4.3 38.75 4.25 38.65 4.25 38.6 4.1 37.8 4.05 37.7 4.05 37.55 3.95 37.25 Q3.85 36.6 4.15 36.15 4.55 35.7 5.0 35.6 L5.75 35.45 5.9 35.4 6.05 35.4 6.1 35.35 6.3 35.35" fill="#ac800a" fill-rule="evenodd" stroke="none"/>
    <path d="M12.25 34.9 L12.5 35.2 14.95 42.4 14.7 42.85 14.4 42.9 13.95 43.1 13.65 43.15 13.4 43.25 Q13.1 43.4 12.95 43.1 L12.85 42.85 12.65 42.1 12.2 40.8 12.15 40.6 12.0 40.3 11.15 37.55 10.95 37.05 10.85 36.65 10.55 35.9 Q10.4 35.35 10.7 35.3 L10.9 35.25 12.0 34.85 12.25 34.9" fill="#fbd248" fill-rule="evenodd" stroke="none"/>
    <path d="M12.1 34.85 L12.0 34.85 10.9 35.25 10.7 35.3 Q10.4 35.35 10.55 35.9 L10.85 36.65 10.95 37.05 11.15 37.55 12.0 40.3 12.15 40.6 12.2 40.8 12.65 42.1 12.85 42.85 12.95 43.1 13.3 43.3 13.65 43.15 13.95 43.1 14.4 42.9 14.7 42.85 14.95 42.4 12.5 35.2 12.25 34.9 12.1 34.85 M12.8 34.05 L13.45 34.85 13.55 35.2 13.6 35.3 13.6 35.35 14.0 36.6 14.2 37.05 14.25 37.3 14.5 37.95 14.55 38.25 15.15 39.95 15.15 40.0 15.2 40.05 15.3 40.45 15.7 41.65 15.9 42.05 15.75 43.2 15.0 43.8 14.8 43.85 14.7 43.85 14.55 43.9 Q14.45 44.0 14.3 44.05 L14.05 44.1 13.95 44.1 13.75 44.2 13.3 44.3 Q12.55 44.3 12.1 43.65 L11.9 43.2 11.25 41.1 11.2 40.9 11.05 40.65 10.8 39.7 10.65 39.35 10.2 37.9 10.1 37.7 9.9 37.1 9.9 36.95 9.75 36.65 9.6 36.2 Q9.45 35.65 9.6 35.15 9.75 34.6 10.25 34.4 L10.3 34.35 10.35 34.35 10.55 34.3 10.6 34.3 10.8 34.2 11.4 34.0 11.5 33.95 11.65 33.9 12.1 33.85 12.8 34.05" fill="#ac800a" fill-rule="evenodd" stroke="none"/>
    <path d="M17.9 34.4 L17.35 34.65 17.1 34.8 16.75 35.2 16.45 35.8 16.4 36.5 16.5 37.0 16.65 37.35 16.65 37.45 16.9 37.85 17.7 38.65 18.65 38.95 18.9 38.9 19.05 38.85 19.15 38.85 19.45 38.7 19.65 38.65 19.95 38.45 20.45 37.8 20.6 36.95 20.5 36.25 20.15 35.5 20.05 35.35 19.95 35.15 19.35 34.65 18.65 34.35 17.9 34.4 M20.0 32.7 L20.45 32.95 20.65 33.15 21.1 33.45 21.4 33.8 22.2 35.1 22.45 35.85 22.6 36.7 22.55 37.7 22.25 38.7 22.0 39.0 21.85 39.25 21.4 39.8 20.65 40.35 20.05 40.65 19.2 40.85 18.85 40.85 18.55 40.9 18.15 40.8 16.95 40.45 16.35 40.15 16.05 39.95 15.5 39.3 14.85 38.25 14.5 36.9 14.45 36.35 14.5 36.1 14.5 35.55 14.65 34.9 14.8 34.6 14.9 34.3 15.25 33.8 15.45 33.65 15.65 33.35 16.5 32.75 17.75 32.35 18.7 32.35 19.5 32.55 20.0 32.7" fill="#fbd248" fill-rule="evenodd" stroke="none"/>
    <path d="M17.4 36.05 L17.4 36.5 17.5 36.7 17.55 36.85 17.55 36.95 17.7 37.25 18.25 37.8 18.6 37.9 18.85 37.9 18.9 37.85 19.0 37.85 19.15 37.75 19.2 37.75 19.35 37.7 19.5 37.35 19.6 36.95 19.6 36.85 19.45 36.25 19.35 36.15 19.25 35.95 19.2 35.8 18.9 35.55 18.6 35.4 18.45 35.35 18.1 35.35 17.8 35.5 17.65 35.65 17.6 35.65 17.6 35.7 17.45 35.95 17.45 36.05 17.4 36.05 M20.0 32.7 L19.5 32.55 18.7 32.35 17.75 32.35 16.5 32.75 15.65 33.35 15.45 33.65 15.25 33.8 14.9 34.3 14.8 34.6 14.65 34.9 14.5 35.55 14.5 36.1 14.45 36.35 14.5 36.9 14.85 38.25 15.5 39.3 16.05 39.95 16.35 40.15 16.95 40.45 18.15 40.8 18.55 40.9 18.6 40.9 18.85 40.85 19.2 40.85 20.05 40.65 20.65 40.35 21.4 39.8 21.85 39.25 22.0 39.0 22.25 38.7 22.55 37.7 22.6 36.7 22.45 35.85 22.2 35.1 21.4 33.8 21.1 33.45 20.65 33.15 20.45 32.95 20.0 32.7 M18.45 34.35 L18.65 34.35 19.35 34.65 19.95 35.15 20.05 35.35 20.15 35.5 20.5 36.25 20.6 36.95 20.45 37.8 19.95 38.45 19.65 38.65 19.45 38.7 19.15 38.85 19.05 38.85 18.9 38.9 18.65 38.95 17.7 38.65 16.9 37.85 16.65 37.45 16.65 37.35 16.5 37.0 16.4 36.5 16.45 35.8 16.75 35.2 17.1 34.8 17.35 34.65 17.9 34.4 18.45 34.35 M20.1 31.7 L20.15 31.7 20.2 31.75 20.35 31.75 20.45 31.8 21.7 32.7 22.2 33.2 23.1 34.65 23.4 35.65 23.45 35.75 23.6 36.55 23.55 37.8 Q23.55 38.5 23.1 39.2 L22.05 40.55 21.85 40.7 21.75 40.8 21.7 40.8 21.55 40.95 20.35 41.55 19.25 41.85 19.0 41.85 18.6 41.9 18.45 41.9 18.05 41.85 17.95 41.8 16.5 41.35 15.85 41.0 15.8 40.95 15.75 40.95 15.75 40.9 15.65 40.9 15.5 40.75 15.45 40.75 15.45 40.7 14.7 39.9 14.7 39.85 14.65 39.85 14.0 38.7 13.75 38.1 13.5 37.0 13.45 36.35 13.5 36.05 13.5 35.4 13.55 35.4 13.6 35.05 13.6 35.0 13.65 34.9 13.7 34.6 13.9 34.15 13.9 34.1 14.0 33.9 14.45 33.2 14.75 32.9 14.95 32.65 16.05 31.85 16.6 31.65 16.8 31.6 17.6 31.4 17.65 31.35 18.8 31.35 19.8 31.55 20.1 31.7" fill="#ac800a" fill-rule="evenodd" stroke="none"/>
    <path d="M24.75 27.15 L24.95 27.05 25.1 26.9 25.3 26.75 25.45 26.6 25.95 26.7 27.6 28.8 28.0 29.35 28.45 29.8 29.75 31.35 29.95 31.65 30.8 32.55 Q31.0 32.9 30.7 33.15 L30.55 33.25 30.4 33.4 30.05 33.65 29.85 33.85 29.1 33.8 27.1 33.1 26.85 33.05 26.15 32.85 24.95 32.4 24.75 32.35 24.5 32.4 24.5 32.65 25.3 33.65 25.5 33.85 25.65 34.1 27.05 35.6 27.05 36.1 26.85 36.2 26.6 36.5 26.4 36.65 26.1 36.95 25.8 37.1 25.5 36.95 24.25 35.45 21.0 31.5 20.9 31.4 20.6 31.15 20.45 30.9 20.5 30.6 20.75 30.5 20.8 30.45 20.85 30.35 20.95 30.3 21.0 30.25 21.05 30.25 21.3 30.0 21.6 29.8 21.7 29.75 21.9 29.6 22.2 29.6 23.45 30.0 23.6 30.0 23.8 30.1 24.45 30.3 25.05 30.5 26.6 31.1 26.95 31.2 26.7 30.7 26.5 30.45 26.35 30.3 25.5 29.25 25.1 28.85 24.55 28.15 24.3 27.9 24.3 27.55 24.75 27.15" fill="#fbd248" fill-rule="evenodd" stroke="none"/>
    <path d="M24.5 26.15 L24.5 26.1 24.65 26.0 24.6 26.0 24.8 25.8 Q25.15 25.55 25.6 25.55 26.3 25.55 26.75 26.1 L26.95 26.35 27.05 26.55 27.45 26.95 28.95 28.9 29.15 29.1 29.6 29.65 30.6 30.85 30.7 30.95 30.7 31.05 30.8 31.1 30.95 31.25 31.15 31.5 31.55 31.9 31.9 32.9 31.35 33.9 31.0 34.15 30.8 34.35 30.7 34.4 30.65 34.45 30.45 34.6 Q30.1 34.95 29.55 34.95 L28.7 34.7 28.45 34.65 28.35 34.6 27.05 34.15 27.1 34.2 27.8 34.95 Q28.45 35.7 27.85 36.65 L27.5 37.0 27.4 37.15 26.95 37.55 26.75 37.7 25.9 38.1 25.75 38.1 Q25.1 38.1 24.75 37.6 L24.7 37.6 24.7 37.55 24.3 37.1 23.95 36.6 23.85 36.5 23.7 36.3 23.5 36.1 23.3 35.8 23.15 35.65 23.1 35.55 22.95 35.45 22.1 34.4 22.1 34.35 22.05 34.35 21.95 34.15 21.5 33.7 21.5 33.65 21.45 33.65 21.0 33.05 20.4 32.4 20.35 32.3 20.2 32.15 20.15 32.05 20.05 32.0 19.85 31.75 19.55 31.3 Q19.15 30.45 19.9 29.85 L20.25 29.6 20.45 29.4 20.55 29.35 20.7 29.2 21.25 28.85 21.55 28.7 22.1 28.6 22.3 28.6 24.0 29.1 24.05 29.1 23.9 28.95 23.8 28.8 23.55 28.55 Q22.95 27.9 23.4 27.1 L23.4 27.05 23.45 27.05 23.9 26.6 24.15 26.35 24.35 26.2 24.5 26.15 M25.1 26.9 L24.95 27.05 24.75 27.15 24.3 27.55 24.3 27.9 24.55 28.15 25.1 28.85 25.5 29.25 26.5 30.45 26.7 30.7 26.95 31.2 26.9 31.2 25.05 30.5 24.45 30.3 23.8 30.1 23.6 30.0 23.45 30.0 22.2 29.6 21.9 29.6 21.7 29.75 21.6 29.8 21.3 30.0 21.05 30.25 21.0 30.25 20.95 30.3 20.85 30.35 20.8 30.45 20.75 30.5 20.5 30.6 20.45 30.9 20.6 31.15 20.9 31.4 21.0 31.5 21.1 31.65 24.25 35.45 25.5 36.95 25.75 37.1 25.8 37.1 26.1 36.95 26.4 36.65 26.6 36.5 26.85 36.2 27.05 36.1 27.05 35.6 25.65 34.1 25.5 33.85 25.3 33.65 24.5 32.65 24.5 32.4 24.75 32.35 24.95 32.4 26.85 33.05 27.1 33.1 29.1 33.8 29.55 33.95 29.85 33.85 30.05 33.65 30.4 33.4 30.55 33.25 30.7 33.15 Q31.0 32.9 30.8 32.55 L29.95 31.65 29.75 31.35 28.45 29.8 28.0 29.35 27.6 28.8 25.95 26.7 25.6 26.55 25.45 26.6 25.3 26.75 25.1 26.9" fill="#ac800a" fill-rule="evenodd" stroke="none"/>
    <path d="M-29.45 -33.05 L-24.7 -28.55 -24.25 -28.0 -23.7 -27.6 -23.4 -27.3 Q-23.1 -27.0 -23.5 -26.55 L-23.95 -26.15 -24.4 -25.65 -24.85 -25.7 -25.15 -25.9 -25.55 -26.35 -26.55 -27.25 -27.15 -27.9 -27.35 -28.05 -27.65 -28.0 Q-27.9 -27.8 -27.75 -27.35 L-27.65 -26.3 Q-27.55 -25.75 -27.75 -25.55 L-27.9 -25.5 -28.3 -25.45 -29.35 -25.55 -29.8 -25.55 -30.55 -25.55 -30.65 -25.25 -30.35 -24.8 -27.9 -22.45 Q-27.6 -22.15 -27.9 -21.9 L-28.4 -21.4 -28.55 -21.2 -28.75 -21.0 Q-28.95 -20.75 -29.2 -20.85 L-29.45 -20.95 -33.95 -25.3 -34.2 -25.5 -34.5 -25.8 -35.45 -26.6 -35.55 -27.05 -35.5 -27.25 -35.4 -27.3 -35.4 -27.35 -34.75 -28.05 -33.65 -28.15 -32.85 -28.0 -32.55 -27.9 -32.25 -27.9 -30.75 -27.7 -30.1 -27.75 -30.1 -28.35 -30.25 -29.1 -30.35 -29.4 -30.5 -30.1 -30.95 -31.25 -31.05 -31.7 -30.9 -32.1 -30.45 -32.55 -30.25 -32.85 -30.0 -33.0 -29.7 -33.15 -29.45 -33.05" fill="#fbd248" fill-rule="evenodd" stroke="none"/>
    <path d="M-29.7 -33.15 L-30.0 -33.0 -30.25 -32.85 -30.45 -32.55 -30.9 -32.1 -31.05 -31.7 -30.95 -31.25 -30.5 -30.1 -30.35 -29.4 -30.25 -29.1 -30.1 -28.35 -30.1 -27.75 -30.4 -27.7 -30.75 -27.7 -32.25 -27.9 -32.55 -27.9 -32.85 -28.0 -34.35 -28.25 -34.75 -28.05 -35.4 -27.35 -35.4 -27.3 -35.5 -27.25 -35.55 -27.05 -35.45 -26.6 -34.5 -25.8 -34.2 -25.5 -29.45 -20.95 -29.05 -20.8 -28.75 -21.0 -28.55 -21.2 -28.4 -21.4 -27.9 -21.9 Q-27.6 -22.15 -27.9 -22.45 L-30.35 -24.8 -30.65 -25.25 -30.55 -25.55 -30.25 -25.6 -29.8 -25.55 -29.35 -25.55 -28.3 -25.45 -28.1 -25.45 -27.9 -25.5 -27.75 -25.55 Q-27.55 -25.75 -27.65 -26.3 L-27.75 -27.35 Q-27.9 -27.8 -27.65 -28.0 L-27.5 -28.05 -27.35 -28.05 -27.15 -27.9 -26.55 -27.25 -25.55 -26.35 -25.15 -25.9 -24.85 -25.7 -24.6 -25.55 -24.4 -25.65 -23.95 -26.15 -23.5 -26.55 Q-23.1 -27.0 -23.4 -27.3 L-23.7 -27.6 -24.25 -28.0 -24.7 -28.55 -29.45 -33.05 -29.7 -33.15 M-29.7 -34.15 Q-29.2 -34.15 -28.7 -33.75 L-28.6 -33.65 -28.45 -33.45 -27.3 -32.4 -27.05 -32.1 -26.95 -31.95 -24.1 -29.4 -24.0 -29.25 -23.55 -28.75 -23.0 -28.35 -22.9 -28.2 -22.75 -28.05 Q-21.75 -27.05 -22.8 -25.85 L-23.0 -25.7 -23.45 -25.2 -23.5 -25.1 -23.65 -24.95 Q-24.05 -24.55 -24.6 -24.55 -25.1 -24.55 -25.55 -24.95 L-25.65 -25.0 -26.4 -25.75 -26.6 -25.9 Q-26.6 -25.3 -27.0 -24.85 -27.15 -24.65 -27.55 -24.55 L-28.1 -24.45 -28.5 -24.5 -28.6 -24.5 -28.5 -24.4 -28.4 -24.25 -27.35 -23.3 -27.2 -23.2 -26.75 -22.25 Q-26.75 -21.7 -27.15 -21.2 L-27.8 -20.6 -28.0 -20.3 Q-28.5 -19.8 -29.05 -19.8 L-29.45 -19.85 -29.5 -19.9 -30.1 -20.25 -30.8 -20.9 -31.0 -21.05 -31.35 -21.4 -31.55 -21.65 -31.85 -21.9 -32.5 -22.55 -32.65 -22.65 -33.1 -23.1 -33.25 -23.2 -33.65 -23.6 -33.75 -23.75 -34.0 -23.95 -34.15 -24.15 -34.25 -24.2 -34.45 -24.35 -34.6 -24.5 -34.6 -24.55 -34.75 -24.65 -36.15 -25.9 Q-36.65 -26.35 -36.55 -27.25 L-36.2 -27.95 -36.15 -28.0 -35.85 -28.35 -35.8 -28.35 -35.7 -28.45 -35.5 -28.75 Q-35.0 -29.25 -34.35 -29.25 L-32.7 -29.0 -32.4 -28.9 -32.15 -28.9 -31.65 -28.8 -31.6 -28.8 -31.2 -28.75 -31.2 -28.85 -31.3 -29.15 -31.35 -29.45 -31.4 -29.55 -31.45 -29.8 -31.6 -30.1 -31.7 -30.5 -31.9 -31.0 -31.9 -31.1 -31.95 -31.15 -31.95 -31.25 -32.05 -31.55 -32.05 -31.65 Q-32.05 -32.35 -31.65 -32.8 L-30.7 -33.75 Q-30.3 -34.15 -29.7 -34.15" fill="#ac800a" fill-rule="evenodd" stroke="none"/>
    <path d="M-23.75 -37.35 L-23.5 -37.75 Q-22.85 -38.15 -22.25 -38.6 L-21.85 -38.65 Q-21.7 -38.65 -21.7 -38.1 L-21.25 -35.4 -21.25 -34.95 -21.05 -33.8 -21.0 -33.4 -21.0 -33.15 -20.65 -31.9 -19.55 -30.3 -19.3 -30.0 Q-19.1 -29.6 -19.4 -29.4 L-19.65 -29.3 -20.2 -28.9 -20.65 -28.6 -21.0 -28.55 -21.3 -28.75 -21.9 -29.8 -22.1 -30.0 -22.85 -31.0 -23.3 -31.25 -23.5 -31.4 -24.3 -31.9 -25.65 -32.6 -26.25 -33.0 -27.95 -33.9 -28.05 -34.0 -28.3 -34.2 Q-28.4 -34.45 -28.15 -34.6 L-28.0 -34.7 -27.9 -34.75 -27.65 -34.95 -27.05 -35.35 -26.95 -35.4 -26.9 -35.5 -26.6 -35.6 -26.1 -35.45 -23.85 -34.1 -23.3 -33.9 Q-23.2 -33.95 -23.2 -34.15 L-23.25 -34.25 -23.25 -34.4 -23.35 -35.05 -23.45 -35.35 -23.5 -35.75 -23.6 -36.1 -23.75 -37.35" fill="#fbd248" fill-rule="evenodd" stroke="none"/>
    <path d="M-23.75 -37.35 L-23.6 -36.1 -23.5 -35.75 -23.45 -35.35 -23.35 -35.05 -23.25 -34.4 -23.25 -34.25 -23.2 -34.15 Q-23.2 -33.95 -23.3 -33.9 L-23.35 -33.85 -23.85 -34.1 -26.1 -35.45 -26.45 -35.6 -26.6 -35.6 -26.9 -35.5 -26.95 -35.4 -27.05 -35.35 -27.65 -34.95 -27.9 -34.75 -28.0 -34.7 -28.15 -34.6 Q-28.4 -34.45 -28.3 -34.2 L-28.05 -34.0 -27.95 -33.9 -26.25 -33.0 -23.5 -31.4 -23.3 -31.25 -22.85 -31.0 -22.1 -30.0 -21.9 -29.8 -21.3 -28.75 -20.85 -28.5 -20.65 -28.6 -20.2 -28.9 -19.65 -29.3 -19.4 -29.4 Q-19.1 -29.6 -19.3 -30.0 L-19.55 -30.3 -20.65 -31.9 -21.0 -33.15 -21.0 -33.4 -21.05 -33.8 -21.25 -34.95 -21.25 -35.4 -21.7 -38.1 Q-21.7 -38.65 -21.85 -38.65 L-21.95 -38.75 -22.25 -38.6 Q-22.85 -38.15 -23.5 -37.75 L-23.75 -37.35 M-21.95 -39.75 Q-21.3 -39.75 -21.0 -39.2 L-20.7 -38.25 -20.7 -38.15 -20.65 -38.0 -20.6 -37.7 -20.6 -37.55 -20.55 -37.5 -20.55 -37.45 -20.25 -35.45 -20.25 -35.05 -20.15 -34.45 -20.15 -34.3 -20.1 -34.2 -20.1 -33.95 -20.05 -33.7 -20.05 -33.5 -20.0 -33.45 -20.0 -33.3 -19.8 -32.45 -19.75 -32.35 -19.6 -32.2 -19.45 -31.9 -19.25 -31.6 -19.0 -31.3 -18.75 -30.85 -18.65 -30.75 -18.5 -30.55 Q-18.15 -30.05 -18.25 -29.5 -18.35 -28.9 -18.85 -28.6 L-19.1 -28.45 -19.2 -28.35 -19.3 -28.3 -20.1 -27.75 Q-20.45 -27.5 -20.85 -27.5 -21.65 -27.5 -22.1 -28.2 L-22.35 -28.65 -22.5 -28.8 -22.65 -29.1 -22.75 -29.25 -22.85 -29.35 -23.25 -29.95 -23.5 -30.2 -23.65 -30.3 -23.7 -30.35 -24.0 -30.5 -25.1 -31.2 -25.2 -31.2 -25.6 -31.5 -25.7 -31.5 -26.85 -32.15 -27.6 -32.6 -27.7 -32.65 -28.2 -32.95 -28.3 -33.0 -28.35 -33.0 -28.4 -33.05 -28.65 -33.2 -29.1 -33.65 Q-29.5 -34.15 -29.25 -34.75 L-28.7 -35.45 -28.4 -35.6 -28.25 -35.75 -27.75 -36.1 -27.65 -36.15 -27.45 -36.3 -26.8 -36.6 -26.45 -36.6 -25.6 -36.35 -25.25 -36.1 -24.85 -35.9 -24.55 -35.7 -24.55 -35.9 -24.65 -36.35 -24.65 -36.5 -24.75 -37.35 -24.75 -37.5 -24.4 -38.25 -24.05 -38.6 -23.9 -38.65 -23.9 -38.7 -23.85 -38.7 -22.8 -39.4 -21.95 -39.75" fill="#ac800a" fill-rule="evenodd" stroke="none"/>
    <path d="M-15.55 -41.55 L-15.35 -41.6 -15.05 -41.5 -14.65 -40.6 -14.55 -40.45 -14.45 -40.25 Q-14.3 -39.95 -14.65 -39.7 L-15.05 -39.5 Q-15.75 -39.2 -15.85 -38.95 L-15.95 -38.65 -15.5 -37.45 -15.3 -37.05 -15.2 -36.7 -14.5 -35.25 -14.3 -34.7 -14.0 -34.2 -13.7 -33.35 -13.5 -32.95 Q-13.35 -32.6 -13.85 -32.35 L-14.5 -32.05 -14.85 -31.95 -15.05 -31.8 Q-15.35 -31.7 -15.45 -32.0 L-15.6 -32.2 -15.8 -32.8 -16.65 -34.55 -16.8 -35.1 -17.1 -35.8 -17.4 -36.3 -17.65 -37.0 -17.9 -37.45 -17.95 -37.6 -18.4 -38.0 -19.3 -37.75 -19.5 -37.6 -19.7 -37.5 Q-20.15 -37.25 -20.4 -37.75 L-20.7 -38.55 -20.85 -38.8 Q-21.0 -39.2 -20.5 -39.4 L-18.6 -40.2 -18.05 -40.5 -17.75 -40.6 -17.5 -40.75 -16.95 -40.95 -15.55 -41.55" fill="#fbd248" fill-rule="evenodd" stroke="none"/>
    <path d="M-16.95 -40.95 L-17.5 -40.75 -17.75 -40.6 -18.05 -40.5 -18.6 -40.2 -20.5 -39.4 Q-21.0 -39.2 -20.85 -38.8 L-20.7 -38.55 -20.4 -37.75 -19.9 -37.45 -19.7 -37.5 -19.5 -37.6 -19.3 -37.75 -18.45 -38.0 -18.4 -38.0 -17.95 -37.6 -17.9 -37.45 -17.65 -37.0 -17.4 -36.3 -17.1 -35.8 -16.8 -35.1 -16.65 -34.55 -15.8 -32.8 -15.6 -32.2 -15.45 -32.0 -15.2 -31.8 -15.05 -31.8 -14.85 -31.95 -14.5 -32.05 -13.85 -32.35 Q-13.35 -32.6 -13.5 -32.95 L-13.7 -33.35 -14.0 -34.2 -14.3 -34.7 -14.5 -35.25 -15.2 -36.7 -15.3 -37.05 -15.8 -38.2 -15.95 -38.65 -15.85 -38.95 Q-15.75 -39.2 -15.05 -39.5 L-14.65 -39.7 Q-14.3 -39.95 -14.45 -40.25 L-14.55 -40.45 -14.65 -40.6 -15.05 -41.5 -15.3 -41.6 -15.35 -41.6 -15.55 -41.55 -16.95 -40.95 M-16.3 -42.3 L-16.25 -42.35 -15.95 -42.5 -15.5 -42.6 -15.3 -42.6 Q-14.7 -42.6 -14.3 -42.2 L-13.65 -40.9 -13.65 -40.85 -13.55 -40.65 Q-13.05 -39.7 -14.05 -38.9 L-14.1 -38.9 -14.1 -38.85 -14.85 -38.5 -14.55 -37.7 -14.4 -37.45 -13.8 -36.05 -13.7 -35.95 -13.55 -35.65 -13.45 -35.3 -13.35 -35.1 -13.25 -34.95 -12.8 -33.85 -12.55 -33.35 Q-12.35 -32.8 -12.55 -32.3 -12.8 -31.7 -13.45 -31.4 L-13.8 -31.3 -14.1 -31.15 -14.4 -31.05 -14.45 -31.0 -14.65 -30.9 -15.2 -30.8 Q-15.85 -30.8 -16.25 -31.35 L-16.55 -31.85 -16.6 -31.95 -16.7 -32.25 -16.75 -32.35 -17.35 -33.8 -17.55 -34.15 -17.75 -34.7 -17.8 -34.75 -18.0 -35.3 -18.0 -35.4 -18.3 -35.9 -18.55 -36.55 -18.65 -36.7 -18.7 -36.9 -18.9 -36.8 -18.95 -36.8 -19.3 -36.6 -19.9 -36.45 Q-20.85 -36.45 -21.3 -37.3 L-21.55 -37.9 -21.6 -38.1 -21.75 -38.4 Q-22.0 -38.95 -21.8 -39.45 L-20.9 -40.35 -19.0 -41.1 -18.25 -41.5 -18.2 -41.5 -17.7 -41.75 -17.65 -41.75 -17.1 -42.0 -17.0 -42.0 -16.95 -42.05 -16.8 -42.15 -16.3 -42.3" fill="#ac800a" fill-rule="evenodd" stroke="none"/>
    <path d="M-7.65 -43.55 L-7.5 -43.6 -7.25 -43.65 -7.1 -43.65 -6.7 -43.8 -6.3 -43.85 Q-6.1 -43.8 -6.05 -43.45 L-4.85 -37.95 -4.3 -35.45 Q-4.2 -35.0 -4.6 -34.95 L-4.95 -34.9 -5.65 -34.7 -6.3 -34.75 -6.55 -35.15 -6.65 -36.0 -7.05 -37.6 -7.25 -37.9 -7.4 -37.95 -8.45 -37.8 -9.25 -37.65 -9.9 -37.4 -10.1 -36.6 -9.65 -34.6 Q-9.5 -33.9 -9.95 -33.8 L-11.25 -33.5 -11.65 -33.6 -11.75 -33.9 -11.9 -34.7 -12.05 -35.2 -12.15 -35.95 -12.45 -37.05 -12.5 -37.4 -13.45 -41.6 -13.45 -42.2 -13.15 -42.4 -12.5 -42.5 -12.25 -42.6 -12.1 -42.6 -11.6 -42.7 -11.3 -42.35 -11.3 -42.15 -10.85 -40.2 Q-10.65 -39.6 -10.05 -39.7 L-8.7 -39.95 Q-8.15 -40.1 -8.0 -40.3 -7.6 -40.6 -7.75 -41.05 L-8.2 -42.9 -8.2 -43.3 -8.0 -43.5 -7.85 -43.5 -7.75 -43.55 -7.65 -43.55" fill="#fbd248" fill-rule="evenodd" stroke="none"/>
    <path d="M-7.1 -43.65 L-7.25 -43.65 -7.5 -43.6 -7.65 -43.55 -7.75 -43.55 -7.85 -43.5 -8.0 -43.5 -8.2 -43.3 -8.2 -42.9 -7.75 -41.05 Q-7.6 -40.6 -8.0 -40.3 -8.15 -40.1 -8.7 -39.95 L-10.05 -39.7 -10.3 -39.7 Q-10.65 -39.7 -10.85 -40.2 L-11.3 -42.15 -11.3 -42.35 -11.6 -42.7 -12.1 -42.6 -12.25 -42.6 -12.5 -42.5 -13.15 -42.4 -13.45 -42.2 -13.45 -41.6 -12.5 -37.4 -12.45 -37.05 -12.15 -35.95 -12.05 -35.2 -11.9 -34.7 -11.75 -33.9 -11.65 -33.6 -11.4 -33.45 -11.25 -33.5 -9.95 -33.8 Q-9.5 -33.9 -9.65 -34.6 L-10.1 -36.6 -9.9 -37.4 -9.25 -37.65 -7.4 -37.95 -7.25 -37.9 -7.05 -37.6 -6.65 -36.0 -6.55 -35.15 -6.3 -34.75 -6.0 -34.65 -5.65 -34.7 -4.95 -34.9 -4.6 -34.95 Q-4.2 -35.0 -4.3 -35.45 L-6.05 -43.45 Q-6.1 -43.85 -6.4 -43.85 L-6.7 -43.8 -7.1 -43.65 M-5.05 -43.65 L-4.95 -42.95 -4.7 -41.95 -4.1 -39.05 -3.95 -38.55 -3.95 -38.35 -3.85 -38.0 -3.65 -37.05 -3.3 -35.65 Q-3.2 -35.05 -3.5 -34.55 -3.8 -34.1 -4.4 -33.95 L-4.6 -33.95 -4.75 -33.9 -6.0 -33.65 Q-6.5 -33.65 -6.9 -33.95 L-7.0 -34.0 -7.05 -34.1 -7.5 -34.9 -7.65 -35.75 -7.7 -35.9 -7.9 -36.9 -8.0 -36.85 -8.25 -36.85 -8.85 -36.7 -9.0 -36.65 -9.05 -36.65 -9.05 -36.45 -9.0 -36.4 -9.0 -36.25 -8.65 -34.8 Q-8.25 -33.15 -9.65 -32.85 L-10.1 -32.75 -10.2 -32.7 -10.55 -32.65 -11.05 -32.5 -11.4 -32.45 Q-12.15 -32.45 -12.5 -33.1 L-12.75 -33.7 -13.45 -37.1 -13.45 -37.2 -13.5 -37.25 -13.5 -37.3 -13.75 -38.6 -13.95 -39.2 -14.0 -39.7 -14.4 -41.35 Q-14.6 -42.1 -14.35 -42.65 -14.05 -43.2 -13.35 -43.35 L-13.0 -43.45 -12.8 -43.45 -12.75 -43.5 -12.7 -43.5 -12.1 -43.65 -11.6 -43.7 -11.35 -43.7 Q-10.5 -43.45 -10.35 -42.6 L-10.15 -41.45 -9.95 -40.75 -9.6 -40.85 -8.75 -41.0 -8.8 -41.1 -8.95 -41.75 -8.95 -41.85 -9.2 -42.65 -9.1 -43.7 Q-8.9 -44.35 -8.2 -44.5 L-7.95 -44.5 -7.9 -44.55 -7.75 -44.6 -7.7 -44.6 -7.4 -44.65 -7.3 -44.65 -7.25 -44.7 -6.9 -44.8 -6.4 -44.85 Q-5.3 -44.85 -5.05 -43.65" fill="#ac800a" fill-rule="evenodd" stroke="none"/>
    <path d="M-1.8 -40.8 L-2.0 -39.85 -2.0 -39.75 -1.95 -39.25 -1.85 -38.8 -1.6 -38.1 -0.85 -37.3 -0.6 -37.25 -0.45 -37.2 -0.35 -37.15 0.05 -37.1 0.65 -37.1 1.45 -37.5 2.05 -38.25 2.25 -38.95 2.3 -40.25 2.0 -41.05 1.45 -41.7 0.75 -42.05 -0.25 -42.1 -0.8 -41.85 -1.4 -41.4 -1.8 -40.8 M3.85 -42.15 L4.25 -41.3 4.35 -40.85 4.5 -39.2 4.35 -38.35 4.05 -37.45 3.5 -36.55 Q3.2 -35.95 2.7 -35.7 L2.3 -35.55 2.05 -35.4 1.35 -35.1 0.35 -34.95 -0.4 -35.0 -1.25 -35.2 -1.95 -35.5 -2.3 -35.75 -3.25 -36.75 -3.65 -37.35 -3.85 -37.65 -4.05 -38.55 -4.1 -39.9 -4.05 -40.4 -3.8 -41.35 -3.55 -41.9 -3.1 -42.7 -2.35 -43.45 -2.1 -43.65 -1.25 -44.05 -0.9 -44.15 0.2 -44.3 0.95 -44.2 1.6 -44.05 2.5 -43.6 3.2 -43.05 3.4 -42.75 3.6 -42.55 3.85 -42.15" fill="#fbd248" fill-rule="evenodd" stroke="none"/>
    <path d="M-0.55 -40.85 L-0.65 -40.75 -0.9 -40.3 -0.9 -40.1 -0.95 -39.9 -1.0 -39.8 -0.95 -39.45 -0.95 -39.25 -0.9 -39.05 -0.7 -38.6 -0.4 -38.25 -0.3 -38.2 -0.15 -38.15 -0.1 -38.15 -0.05 -38.1 0.45 -38.1 0.85 -38.3 1.15 -38.7 1.3 -39.2 1.3 -40.1 1.15 -40.5 1.1 -40.6 0.95 -40.75 0.85 -40.9 0.8 -40.9 0.45 -41.1 -0.05 -41.1 -0.2 -41.05 -0.55 -40.85 M-0.8 -41.85 L-0.25 -42.1 0.75 -42.05 1.45 -41.7 2.0 -41.05 2.3 -40.25 2.25 -38.95 2.05 -38.25 1.45 -37.5 0.65 -37.1 0.05 -37.1 -0.35 -37.15 -0.45 -37.2 -0.6 -37.25 -0.85 -37.3 -1.6 -38.1 -1.85 -38.8 -1.95 -39.25 -2.0 -39.75 -2.0 -39.85 -1.8 -40.8 -1.4 -41.4 -0.8 -41.85 M4.2 -43.35 L4.25 -43.35 4.3 -43.25 4.4 -43.2 4.8 -42.5 4.9 -42.2 5.15 -41.7 5.35 -41.0 5.5 -39.2 5.3 -38.1 5.25 -38.0 5.0 -37.1 4.35 -35.95 3.25 -34.85 2.85 -34.7 2.8 -34.65 2.45 -34.45 2.45 -34.5 1.55 -34.15 1.3 -34.1 1.15 -34.1 1.1 -34.05 0.9 -34.0 0.35 -33.95 -0.55 -34.0 -0.85 -34.1 -1.25 -34.15 -1.7 -34.3 -1.8 -34.35 -1.95 -34.4 -2.8 -34.9 -2.9 -35.0 Q-3.65 -35.5 -4.05 -36.1 L-4.5 -36.8 -4.55 -36.9 -4.55 -36.95 -4.6 -37.0 -4.75 -37.25 -4.75 -37.3 -5.05 -38.4 -5.1 -39.9 -5.0 -40.6 -4.7 -41.75 -4.4 -42.4 -4.25 -42.65 -4.25 -42.7 -4.15 -42.8 -3.9 -43.25 -3.65 -43.55 -3.55 -43.65 -3.3 -43.95 -2.95 -44.25 -2.9 -44.25 -2.7 -44.45 Q-2.2 -44.85 -1.9 -44.85 L-1.65 -44.95 -1.6 -44.95 -1.55 -45.0 -1.45 -45.0 -1.15 -45.15 0.2 -45.3 0.25 -45.3 0.85 -45.25 1.1 -45.2 1.95 -45.0 2.0 -45.0 2.05 -44.95 2.2 -44.9 3.05 -44.5 3.9 -43.75 4.1 -43.5 4.2 -43.4 4.2 -43.35 M3.6 -42.55 L3.4 -42.75 3.2 -43.05 2.5 -43.6 1.6 -44.05 0.95 -44.2 0.2 -44.3 -0.9 -44.15 -1.5 -43.95 -2.1 -43.65 -2.35 -43.45 -3.1 -42.7 -3.8 -41.35 -4.05 -40.4 -4.1 -39.9 -4.05 -38.55 -3.85 -37.65 -3.65 -37.35 -3.25 -36.75 -2.3 -35.75 -1.95 -35.5 -1.25 -35.2 -0.4 -35.0 0.35 -34.95 1.35 -35.1 2.05 -35.4 2.3 -35.55 2.7 -35.7 Q3.2 -35.95 3.5 -36.55 L4.05 -37.45 4.35 -38.35 4.5 -39.2 4.35 -40.85 4.25 -41.3 3.85 -42.15 3.6 -42.55" fill="#ac800a" fill-rule="evenodd" stroke="none"/>
    <path d="M8.45 -42.95 L8.3 -42.45 8.25 -42.1 8.05 -41.35 7.7 -39.3 7.35 -38.05 7.25 -37.1 Q7.15 -36.6 7.45 -36.5 L8.4 -36.25 8.85 -36.2 9.35 -36.05 9.75 -36.0 Q10.25 -35.95 10.05 -35.55 L10.0 -35.25 9.85 -34.8 9.8 -34.3 Q9.7 -33.85 9.15 -33.95 L5.6 -34.7 5.05 -34.75 Q4.4 -34.85 4.65 -35.55 L4.85 -36.3 5.25 -38.55 5.75 -40.8 5.85 -41.55 6.2 -43.45 Q6.4 -43.85 6.7 -43.75 L8.05 -43.5 Q8.55 -43.4 8.45 -42.95" fill="#fbd248" fill-rule="evenodd" stroke="none"/>
    <path d="M7.9 -44.55 L8.0 -44.55 8.05 -44.5 8.25 -44.5 9.2 -43.85 Q9.55 -43.4 9.4 -42.75 L9.3 -42.25 9.25 -42.15 9.2 -42.0 9.2 -41.9 9.15 -41.65 9.1 -41.5 9.1 -41.4 8.9 -40.4 8.85 -40.25 8.85 -40.0 8.35 -37.85 8.3 -37.3 8.4 -37.3 8.75 -37.2 9.05 -37.2 9.55 -37.05 9.65 -37.05 9.95 -37.0 Q10.55 -36.9 10.85 -36.4 11.15 -35.95 11.05 -35.35 L10.85 -34.6 10.85 -34.45 10.8 -34.1 Q10.55 -32.9 9.4 -32.9 L8.7 -33.0 8.45 -33.1 7.0 -33.35 6.85 -33.4 6.55 -33.45 6.4 -33.5 6.3 -33.5 6.2 -33.55 5.95 -33.55 5.65 -33.65 5.2 -33.75 4.85 -33.8 Q4.35 -33.9 3.85 -34.4 3.55 -34.95 3.65 -35.75 L4.05 -37.5 4.15 -37.8 4.2 -38.25 4.55 -39.85 4.55 -39.95 4.8 -41.25 4.85 -41.75 4.95 -42.0 4.95 -42.15 5.1 -42.8 5.1 -43.0 5.2 -43.3 5.25 -43.6 Q5.45 -44.75 6.6 -44.75 L6.9 -44.75 7.9 -44.55 M8.45 -42.95 Q8.55 -43.4 8.05 -43.5 L6.7 -43.75 6.6 -43.75 6.2 -43.45 5.95 -41.95 5.85 -41.55 5.55 -39.75 5.25 -38.55 4.85 -36.3 4.65 -35.55 Q4.4 -34.85 5.05 -34.75 L5.6 -34.7 6.15 -34.55 9.4 -33.9 9.8 -34.3 9.85 -34.8 10.0 -35.25 10.05 -35.55 Q10.25 -35.95 9.75 -36.0 L9.35 -36.05 8.85 -36.2 7.95 -36.35 7.45 -36.5 Q7.15 -36.6 7.25 -37.1 L7.35 -38.05 7.7 -39.3 8.05 -41.35 8.25 -42.1 8.3 -42.45 8.45 -42.95" fill="#ac800a" fill-rule="evenodd" stroke="none"/>
    <path d="M18.8 -39.5 L19.25 -38.7 19.45 -38.1 19.5 -37.6 19.5 -37.25 19.55 -36.7 19.5 -36.2 19.0 -34.65 18.55 -33.9 17.95 -33.2 17.1 -32.5 16.05 -32.05 15.65 -32.05 15.35 -32.0 14.6 -32.0 13.6 -32.25 12.9 -32.55 12.4 -32.9 11.65 -33.6 11.45 -33.95 Q11.05 -34.55 10.9 -35.25 L10.7 -36.3 Q10.7 -36.75 10.85 -37.2 L11.3 -38.5 11.5 -38.9 12.1 -39.7 12.55 -40.15 12.8 -40.3 13.3 -40.7 13.9 -41.0 14.55 -41.2 15.2 -41.25 15.85 -41.25 16.45 -41.1 16.95 -40.95 18.15 -40.25 18.8 -39.5 M15.7 -39.1 L15.1 -39.1 14.4 -38.9 13.8 -38.45 13.45 -38.0 13.2 -37.55 13.05 -37.1 12.95 -36.6 12.95 -35.85 Q13.05 -35.15 13.35 -34.85 L13.55 -34.7 13.65 -34.6 13.8 -34.55 14.1 -34.35 14.3 -34.25 14.65 -34.15 15.55 -34.2 16.4 -34.65 16.85 -35.25 17.1 -35.7 17.3 -36.25 17.4 -36.45 17.4 -37.3 17.25 -37.7 17.1 -38.1 16.6 -38.65 16.0 -39.0 15.7 -39.1" fill="#fbd248" fill-rule="evenodd" stroke="none"/>
    <path d="M15.5 -38.1 L15.25 -38.1 14.95 -38.05 14.9 -38.0 14.85 -38.0 14.8 -37.95 14.45 -37.75 14.45 -37.65 14.2 -37.3 14.0 -36.85 14.0 -36.7 13.95 -36.5 13.95 -36.0 14.1 -35.55 14.2 -35.5 14.4 -35.3 14.45 -35.3 14.65 -35.2 14.7 -35.2 14.85 -35.1 15.3 -35.2 15.7 -35.4 15.8 -35.5 16.05 -35.85 16.15 -36.05 16.25 -36.2 16.3 -36.45 16.4 -36.6 16.4 -37.15 16.3 -37.4 16.25 -37.6 16.0 -37.9 15.6 -38.05 15.5 -38.1 M17.1 -38.1 L17.25 -37.7 17.4 -37.3 17.4 -36.45 17.3 -36.25 17.1 -35.7 16.85 -35.25 16.4 -34.65 15.55 -34.2 14.8 -34.1 14.3 -34.25 14.1 -34.35 13.8 -34.55 13.65 -34.6 13.55 -34.7 13.35 -34.85 Q13.05 -35.15 12.95 -35.85 L12.95 -36.6 13.05 -37.1 13.2 -37.55 13.45 -38.0 13.8 -38.45 14.4 -38.9 15.1 -39.1 15.7 -39.1 16.0 -39.0 16.6 -38.65 17.1 -38.1 M18.85 -40.95 L19.0 -40.8 19.6 -40.1 20.15 -39.05 20.25 -38.75 20.3 -38.65 20.3 -38.6 20.35 -38.45 20.4 -38.35 20.5 -37.6 20.55 -37.25 20.5 -36.0 19.95 -34.25 19.35 -33.3 19.3 -33.2 18.7 -32.5 17.65 -31.7 17.05 -31.35 16.25 -31.1 15.8 -31.05 15.75 -31.05 15.4 -31.0 14.4 -31.05 14.15 -31.1 14.0 -31.1 13.95 -31.15 13.75 -31.15 12.4 -31.7 12.15 -31.9 11.8 -32.1 11.45 -32.4 10.8 -33.05 10.6 -33.45 10.55 -33.5 Q10.1 -34.2 9.95 -34.95 L9.75 -35.8 9.75 -36.0 9.7 -36.25 9.7 -36.3 Q9.7 -37.45 9.9 -37.45 L9.9 -37.5 10.35 -38.85 10.7 -39.45 11.4 -40.4 11.9 -40.9 12.2 -41.1 12.3 -41.2 12.75 -41.55 13.05 -41.7 13.15 -41.7 13.2 -41.75 13.55 -41.95 14.0 -42.05 14.05 -42.1 14.25 -42.15 15.15 -42.25 15.95 -42.25 17.35 -41.9 17.9 -41.6 18.05 -41.5 18.8 -40.95 18.85 -40.95 M18.8 -39.5 L18.15 -40.25 16.95 -40.95 16.45 -41.1 15.85 -41.25 14.55 -41.2 13.9 -41.0 13.3 -40.7 12.8 -40.3 12.55 -40.15 12.1 -39.7 11.5 -38.9 11.3 -38.5 10.85 -37.2 Q10.7 -36.75 10.7 -36.3 L10.9 -35.25 Q11.05 -34.55 11.45 -33.95 L11.65 -33.6 12.4 -32.9 12.9 -32.55 13.6 -32.25 14.6 -32.0 15.35 -32.0 15.65 -32.05 16.05 -32.05 17.1 -32.5 17.95 -33.2 18.55 -33.9 19.0 -34.65 19.5 -36.2 19.55 -36.7 19.5 -37.25 19.5 -37.6 19.45 -38.1 19.25 -38.7 18.8 -39.5" fill="#ac800a" fill-rule="evenodd" stroke="none"/>
    <path d="M24.9 -36.55 L25.9 -36.05 27.55 -34.9 Q28.25 -34.4 28.35 -33.9 L28.3 -33.35 28.0 -33.0 27.65 -32.45 27.2 -32.4 26.85 -32.65 26.7 -32.85 26.25 -33.25 26.15 -33.4 25.3 -34.1 24.25 -34.55 23.85 -34.6 22.95 -34.4 22.45 -34.1 21.8 -33.35 21.65 -33.05 21.6 -32.85 21.55 -32.75 21.4 -32.1 21.5 -31.4 21.8 -30.6 22.15 -30.05 22.75 -29.55 23.45 -29.45 23.8 -29.85 24.05 -30.3 Q24.2 -30.7 23.65 -31.1 23.35 -31.2 23.6 -31.55 L24.1 -32.15 24.25 -32.4 Q24.6 -32.85 24.85 -32.6 L25.1 -32.4 26.45 -31.5 26.8 -30.85 26.05 -29.7 25.65 -29.2 25.35 -28.7 25.1 -28.4 25.0 -28.2 24.8 -27.95 24.65 -27.7 24.1 -27.0 23.75 -26.65 Q23.45 -26.45 23.15 -26.65 L21.5 -27.75 20.8 -28.4 19.9 -29.6 19.25 -31.25 19.2 -32.35 19.4 -33.4 19.8 -34.3 20.05 -34.65 20.3 -35.15 20.85 -35.8 21.65 -36.35 22.5 -36.7 23.8 -36.8 24.9 -36.55" fill="#fbd248" fill-rule="evenodd" stroke="none"/>
    <path d="M23.8 -33.6 L23.5 -33.6 23.4 -33.55 23.35 -33.5 23.2 -33.45 23.1 -33.35 22.65 -32.8 22.6 -32.65 22.4 -32.2 22.4 -32.1 22.45 -31.6 22.5 -31.55 22.55 -31.4 22.8 -32.1 23.3 -32.75 23.35 -32.85 23.45 -33.0 24.1 -33.55 24.0 -33.55 23.8 -33.6 M24.9 -36.55 L23.8 -36.8 23.45 -36.8 22.5 -36.7 21.65 -36.35 20.85 -35.8 20.3 -35.15 20.05 -34.65 19.8 -34.3 19.4 -33.4 19.2 -32.35 19.25 -31.25 19.9 -29.6 20.8 -28.4 21.5 -27.75 23.15 -26.65 23.45 -26.6 23.75 -26.65 24.1 -27.0 24.65 -27.7 24.8 -27.95 25.0 -28.2 25.1 -28.4 25.35 -28.7 25.65 -29.2 26.05 -29.7 26.8 -30.85 26.45 -31.5 25.1 -32.4 24.85 -32.6 24.7 -32.65 24.25 -32.4 24.1 -32.15 23.6 -31.55 Q23.35 -31.2 23.65 -31.1 24.2 -30.7 24.05 -30.3 L23.8 -29.85 23.45 -29.45 23.2 -29.4 Q23.05 -29.4 22.75 -29.55 L22.15 -30.05 21.8 -30.6 21.5 -31.4 21.4 -32.1 21.55 -32.75 21.6 -32.85 21.65 -33.05 21.8 -33.35 22.45 -34.1 22.95 -34.4 23.65 -34.6 23.85 -34.6 24.25 -34.55 25.3 -34.1 26.15 -33.4 26.25 -33.25 26.7 -32.85 26.85 -32.65 27.2 -32.4 27.4 -32.3 27.65 -32.45 28.0 -33.0 28.3 -33.35 28.35 -33.9 Q28.25 -34.4 27.55 -34.9 L25.9 -36.05 24.9 -36.55 M25.25 -37.5 L26.45 -36.85 26.8 -36.65 26.85 -36.6 26.95 -36.55 27.1 -36.45 27.15 -36.4 27.25 -36.35 28.15 -35.7 Q29.15 -34.95 29.3 -34.2 29.55 -33.4 29.1 -32.8 L28.9 -32.55 28.85 -32.45 28.7 -32.3 28.65 -32.15 28.45 -31.85 27.75 -31.35 27.75 -30.55 27.15 -29.55 26.5 -28.65 26.0 -27.9 25.95 -27.85 25.9 -27.75 25.8 -27.6 25.65 -27.45 25.6 -27.35 25.55 -27.3 25.45 -27.1 25.3 -26.95 24.9 -26.45 24.85 -26.4 24.3 -25.8 24.25 -25.8 24.15 -25.75 23.45 -25.6 22.75 -25.7 21.4 -26.65 21.2 -26.75 20.9 -26.95 20.05 -27.7 Q19.8 -27.95 19.3 -28.7 L19.05 -29.05 19.0 -29.1 18.5 -30.45 18.3 -31.1 18.25 -32.45 18.25 -32.6 18.45 -33.65 18.45 -33.7 18.9 -34.75 19.5 -35.75 20.15 -36.45 Q20.5 -36.9 21.2 -37.25 L22.2 -37.65 23.45 -37.8 23.9 -37.75 24.25 -37.7 24.4 -37.7 25.25 -37.5" fill="#ac800a" fill-rule="evenodd" stroke="none"/>
    <path d="M30.9 -32.0 L31.1 -31.75 31.55 -31.3 31.7 -31.05 31.65 -30.55 30.65 -28.1 Q30.45 -27.6 30.55 -27.5 L30.8 -27.45 30.9 -27.5 31.9 -27.9 32.3 -28.0 33.25 -28.35 33.9 -28.5 34.3 -28.3 34.4 -28.15 35.3 -27.2 35.45 -26.8 34.95 -26.55 34.4 -26.4 34.15 -26.3 30.15 -25.15 28.95 -24.6 27.25 -23.0 Q26.95 -22.7 26.7 -23.0 L26.55 -23.2 26.05 -23.75 25.65 -24.1 Q25.4 -24.4 25.75 -24.75 L26.0 -24.95 26.3 -25.25 26.7 -25.55 27.35 -26.2 27.75 -26.65 27.95 -27.15 28.0 -27.35 28.75 -29.1 28.9 -29.65 29.8 -32.0 29.85 -32.1 29.9 -32.25 30.1 -32.5 30.5 -32.45 30.6 -32.3 30.9 -32.0" fill="#fbd248" fill-rule="evenodd" stroke="none"/>
    <path d="M31.1 -31.75 L30.6 -32.3 30.5 -32.45 30.25 -32.55 30.1 -32.5 29.9 -32.25 29.85 -32.1 29.8 -32.0 28.9 -29.65 28.75 -29.1 28.0 -27.35 27.95 -27.15 27.75 -26.65 26.7 -25.55 26.3 -25.25 26.0 -24.95 25.75 -24.75 Q25.4 -24.4 25.65 -24.1 L26.05 -23.75 26.55 -23.2 26.7 -23.0 Q26.75 -22.9 26.95 -22.9 L27.25 -23.0 28.95 -24.6 30.15 -25.15 34.95 -26.55 35.45 -26.8 35.3 -27.2 34.4 -28.15 34.3 -28.3 33.9 -28.5 33.25 -28.35 32.3 -28.0 31.9 -27.9 30.9 -27.5 30.8 -27.45 30.65 -27.45 30.55 -27.5 Q30.45 -27.6 30.65 -28.1 L31.65 -30.55 31.7 -31.05 31.55 -31.3 31.1 -31.75 M30.25 -33.55 Q30.8 -33.55 31.25 -33.1 L31.4 -32.95 31.45 -32.85 32.05 -32.25 32.1 -32.15 32.3 -32.0 32.65 -31.4 32.6 -30.2 32.35 -29.7 32.15 -29.05 32.15 -29.0 32.3 -29.1 32.75 -29.25 32.9 -29.25 33.75 -29.5 33.9 -29.5 Q34.55 -29.5 35.05 -29.0 L35.15 -28.85 35.15 -28.8 35.2 -28.8 35.7 -28.2 35.85 -28.1 36.05 -27.9 Q36.55 -27.4 36.5 -26.85 36.5 -26.4 36.15 -26.05 35.75 -25.75 35.2 -25.6 L35.15 -25.6 34.95 -25.5 34.7 -25.45 34.6 -25.4 34.55 -25.4 34.45 -25.35 32.5 -24.75 32.4 -24.75 32.15 -24.7 31.55 -24.5 31.5 -24.45 31.3 -24.45 31.25 -24.4 31.15 -24.4 31.1 -24.35 31.05 -24.35 30.7 -24.25 30.65 -24.25 30.6 -24.2 30.45 -24.2 30.4 -24.15 29.6 -23.85 29.15 -23.4 29.0 -23.3 28.4 -22.7 28.2 -22.55 28.15 -22.45 27.95 -22.25 Q27.6 -21.9 26.95 -21.9 26.35 -21.9 25.95 -22.3 L25.8 -22.55 25.75 -22.55 24.95 -23.4 Q24.55 -23.9 24.6 -24.4 24.6 -25.05 25.05 -25.5 L25.4 -25.75 25.85 -26.2 26.0 -26.25 26.05 -26.35 26.65 -26.9 26.65 -26.95 26.75 -27.05 26.95 -27.35 26.95 -27.4 27.05 -27.6 27.55 -28.9 27.6 -28.95 27.6 -29.0 27.75 -29.3 27.8 -29.45 27.8 -29.55 28.15 -30.45 28.3 -30.75 28.35 -30.95 28.6 -31.6 28.65 -31.65 28.85 -32.25 28.85 -32.35 28.9 -32.4 28.9 -32.45 29.0 -32.7 29.4 -33.25 Q29.8 -33.55 30.25 -33.55" fill="#ac800a" fill-rule="evenodd" stroke="none"/>
    <path d="M23.25 7.4 L24.4 8.25 Q24.2 7.6 23.2 6.4 L21.75 5.0 20.25 6.4 19.05 8.25 20.2 7.4 Q21.25 6.65 21.6 6.65 L21.75 6.5 21.9 6.65 23.25 7.4 M11.2 -6.0 Q15.35 -11.0 21.75 -11.0 28.15 -11.0 32.3 -6.0 35.4 -2.3 35.8 1.5 36.05 4.15 34.05 5.7 34.8 6.85 34.95 8.1 35.2 9.8 34.15 11.15 33.1 12.6 31.7 12.6 30.85 12.6 30.05 12.1 29.75 16.75 29.35 17.2 28.7 17.8 26.15 17.8 L25.15 17.7 Q24.8 17.55 24.8 16.9 L24.9 14.55 25.05 12.55 24.3 12.45 23.9 12.5 23.95 14.35 24.0 16.85 Q23.95 17.6 23.5 17.8 L21.6 18.0 19.85 17.7 Q19.5 17.4 19.6 14.8 L19.6 12.45 18.95 12.4 Q18.45 12.4 18.45 12.55 18.3 12.8 18.6 14.55 L18.75 16.8 18.4 17.65 17.05 17.85 Q14.65 17.85 14.1 17.2 13.7 16.55 13.5 12.1 12.55 12.6 11.75 12.6 10.4 12.6 9.35 11.15 8.35 9.8 8.55 8.1 8.65 6.8 9.45 5.7 7.4 4.1 7.65 1.5 8.1 -2.3 11.2 -6.0 M25.9 -3.3 Q25.2 -2.8 24.85 -1.8 24.45 -0.85 24.55 0.35 24.9 2.85 26.9 3.7 L29.25 4.2 Q30.8 4.2 31.3 3.25 31.8 2.55 31.85 1.55 31.9 -0.15 30.7 -1.95 29.4 -3.8 27.6 -3.8 26.65 -3.8 25.9 -3.3 M15.85 -3.8 Q14.05 -3.8 12.75 -1.95 11.55 -0.15 11.6 1.55 11.65 2.55 12.2 3.25 12.9 4.2 14.25 4.2 L16.65 3.7 Q18.65 2.8 18.9 0.35 19.0 -0.85 18.7 -1.8 L17.65 -3.3 Q16.75 -3.8 15.85 -3.8" fill="#cfa00a" fill-rule="evenodd" stroke="none"/>
    <path d="M25.95 7.35 Q26.1 6.65 24.65 4.9 23.2 3.15 22.7 3.15 22.2 3.15 20.75 4.9 19.3 6.65 19.45 7.35 19.6 7.95 20.95 6.95 L22.65 5.85 22.7 5.8 22.8 5.85 24.5 6.95 Q25.8 7.95 25.95 7.35 M32.7 2.3 Q34.3 -0.3 32.1 -3.5 30.8 -5.45 28.9 -5.6 27.5 -5.7 26.55 -5.0 24.75 -3.75 25.0 -0.9 25.3 1.95 27.65 2.85 29.75 3.7 31.2 3.3 32.2 3.0 32.7 2.3 M11.15 4.2 L10.05 3.35 Q9.0 2.1 9.15 0.25 9.5 -3.25 12.45 -6.85 16.5 -11.8 22.7 -11.8 28.9 -11.8 32.95 -6.85 35.85 -3.25 36.25 0.25 36.4 2.1 35.35 3.35 L34.25 4.2 35.2 5.9 Q35.85 7.95 34.65 9.6 33.5 11.2 31.9 10.65 L30.45 9.75 Q30.3 15.15 29.9 15.55 L28.1 16.0 26.35 15.95 Q26.15 15.8 26.35 13.55 26.6 11.15 26.45 11.0 26.25 10.7 25.5 10.7 24.65 10.65 24.45 10.95 24.25 11.15 24.45 13.55 24.55 15.95 24.25 16.05 L22.65 16.2 21.1 16.05 Q20.95 15.95 21.05 13.55 L21.0 10.95 Q20.75 10.65 19.9 10.65 19.1 10.65 18.9 11.0 18.8 11.25 19.0 13.55 19.3 15.75 19.05 15.95 L17.3 16.05 Q15.75 15.9 15.5 15.55 15.3 15.25 15.1 12.45 L14.9 9.75 13.55 10.65 Q11.95 11.2 10.7 9.6 9.5 7.95 10.2 5.9 L11.15 4.2 M12.1 0.3 Q12.15 1.45 12.7 2.3 13.2 3.0 14.2 3.3 15.65 3.7 17.75 2.85 20.05 1.95 20.4 -0.9 20.65 -3.75 18.85 -5.0 17.9 -5.7 16.5 -5.6 14.6 -5.45 13.3 -3.5 12.0 -1.55 12.1 0.3" fill="#fbc310" fill-rule="evenodd" stroke="none"/>
    <path d="M12.1 0.3 Q12.0 -1.55 13.3 -3.5 14.6 -5.45 16.5 -5.6 17.9 -5.7 18.85 -5.0 20.65 -3.75 20.4 -0.9 20.05 1.95 17.75 2.85 15.65 3.7 14.2 3.3 13.2 3.0 12.7 2.3 12.15 1.45 12.1 0.3 M11.15 4.2 L10.2 5.9 Q9.5 7.95 10.7 9.6 11.95 11.2 13.55 10.65 L14.9 9.75 15.1 12.45 Q15.3 15.25 15.5 15.55 15.75 15.9 17.3 16.05 L19.05 15.95 Q19.3 15.75 19.0 13.55 18.8 11.25 18.9 11.0 19.1 10.65 19.9 10.65 20.75 10.65 21.0 10.95 L21.05 13.55 Q20.95 15.95 21.1 16.05 L22.65 16.2 24.25 16.05 Q24.55 15.95 24.45 13.55 24.25 11.15 24.45 10.95 24.65 10.65 25.5 10.7 26.25 10.7 26.45 11.0 26.6 11.15 26.35 13.55 26.15 15.8 26.35 15.95 L28.1 16.0 29.9 15.55 Q30.3 15.15 30.45 9.75 L31.9 10.65 Q33.5 11.2 34.65 9.6 35.85 7.95 35.2 5.9 L34.25 4.2 35.35 3.35 Q36.4 2.1 36.25 0.25 35.85 -3.25 32.95 -6.85 28.9 -11.8 22.7 -11.8 16.5 -11.8 12.45 -6.85 9.5 -3.25 9.15 0.25 9.0 2.1 10.05 3.35 L11.15 4.2 M32.7 2.3 Q32.2 3.0 31.2 3.3 29.75 3.7 27.65 2.85 25.3 1.95 25.0 -0.9 24.75 -3.75 26.55 -5.0 27.5 -5.7 28.9 -5.6 30.8 -5.45 32.1 -3.5 34.3 -0.3 32.7 2.3 M25.95 7.35 Q25.8 7.95 24.5 6.95 L22.8 5.85 22.7 5.8 22.65 5.85 20.95 6.95 Q19.6 7.95 19.45 7.35 19.3 6.65 20.75 4.9 22.2 3.15 22.7 3.15 23.2 3.15 24.65 4.9 26.1 6.65 25.95 7.35 Z" fill="none" stroke="#ac800a" stroke-linecap="butt" stroke-linejoin="miter-clip" stroke-miterlimit="4.0" stroke-width="1.0"/>
    <path d="M10.1 -13.7 L-0.4 3.5 4.95 2.75 -10.95 28.75 -6.6 11.95 -11.1 13.1 -3.8 -5.45 -8.5 -5.35 0.55 -28.3 13.1 -28.25 3.45 -13.5 10.1 -13.7" fill="#fbd248" fill-rule="evenodd" stroke="none"/>
    <path d="M10.1 -13.7 L-0.4 3.5 4.95 2.75 -10.95 28.75 -6.6 11.95 -11.1 13.1 -3.8 -5.45 -8.5 -5.35 0.55 -28.3 13.1 -28.25 3.45 -13.5 10.1 -13.7 Z" fill="none" stroke="#ac800a" stroke-linecap="butt" stroke-linejoin="miter-clip" stroke-miterlimit="4.0" stroke-width="1.0"/>
    <path d="M-14.35 -6.6 L-16.35 -5.95 Q-15.3 -1.2 -15.4 1.75 -15.5 5.15 -17.1 7.35 -19.3 10.35 -23.5 11.5 L-23.1 17.8 Q-23.1 19.75 -26.1 19.75 -29.05 19.75 -29.05 17.8 L-28.65 11.5 Q-32.85 10.35 -35.05 7.35 -36.65 5.15 -36.75 1.75 -36.85 -1.2 -35.8 -5.95 L-37.8 -6.6 -31.25 -11.85 -32.6 -4.6 Q-32.9 -2.0 -32.8 0.5 -32.65 3.85 -31.6 5.25 -30.65 6.5 -28.2 7.5 L-27.85 -7.2 -30.2 -6.5 -26.0 -14.7 -22.0 -6.5 -24.35 -7.2 -23.95 7.5 Q-21.5 6.5 -20.55 5.25 -19.5 3.85 -19.35 0.5 -19.2 -2.05 -19.6 -4.6 L-20.9 -11.85 -14.35 -6.6" fill="#cfa00a" fill-rule="evenodd" stroke="none"/>
    <path d="M-13.0 -7.95 L-15.0 -7.3 Q-13.95 -2.55 -14.05 0.4 -14.15 3.8 -15.75 6.0 -17.95 9.0 -22.15 10.15 L-21.75 16.45 Q-21.75 18.4 -24.75 18.4 -27.7 18.4 -27.7 16.45 L-27.3 10.15 Q-31.5 9.0 -33.7 6.0 -35.3 3.8 -35.4 0.4 -35.5 -2.55 -34.45 -7.3 L-36.45 -7.95 -29.9 -13.2 -31.25 -5.95 Q-31.55 -3.35 -31.45 -0.85 -31.3 2.5 -30.25 3.9 -29.3 5.15 -26.85 6.15 L-26.5 -8.55 -28.85 -7.85 -24.65 -16.05 -20.65 -7.85 -23.0 -8.55 -22.6 6.15 Q-20.15 5.15 -19.2 3.9 -18.15 2.5 -18.0 -0.85 -17.85 -3.4 -18.25 -5.95 L-19.55 -13.2 -13.0 -7.95" fill="#fbc310" fill-rule="evenodd" stroke="none"/>
    <path d="M-13.0 -7.95 L-19.55 -13.2 -18.25 -5.95 Q-17.85 -3.4 -18.0 -0.85 -18.15 2.5 -19.2 3.9 -20.15 5.15 -22.6 6.15 L-23.0 -8.55 -20.65 -7.85 -24.65 -16.05 -28.85 -7.85 -26.5 -8.55 -26.85 6.15 Q-29.3 5.15 -30.25 3.9 -31.3 2.5 -31.45 -0.85 -31.55 -3.35 -31.25 -5.95 L-29.9 -13.2 -36.45 -7.95 -34.45 -7.3 Q-35.5 -2.55 -35.4 0.4 -35.3 3.8 -33.7 6.0 -31.5 9.0 -27.3 10.15 L-27.7 16.45 Q-27.7 18.4 -24.75 18.4 -21.75 18.4 -21.75 16.45 L-22.15 10.15 Q-17.95 9.0 -15.75 6.0 -14.15 3.8 -14.05 0.4 -13.95 -2.55 -15.0 -7.3 L-13.0 -7.95 Z" fill="none" stroke="#ac800a" stroke-linecap="round" stroke-linejoin="round" stroke-width="1.0"/>
  </g>
</svg>
