<?xml version="1.0" encoding="UTF-8" standalone="no"?>
<svg xmlns:ffdec="https://www.free-decompiler.com/flash" xmlns:xlink="http://www.w3.org/1999/xlink" ffdec:objectType="shape" height="92.5px" width="84.8px" xmlns="http://www.w3.org/2000/svg">
  <g transform="matrix(1.0, 0.0, 0.0, 1.0, 42.1, 46.0)">
    <path d="M28.95 11.85 Q30.25 12.65 30.6 14.1 30.95 15.6 30.15 16.9 29.5 17.95 28.4 18.4 L26.1 18.5 Q26.8 19.4 26.9 20.55 27.0 21.7 26.35 22.7 25.55 24.0 24.1 24.35 22.6 24.7 21.3 23.9 20.0 23.1 19.65 21.65 19.3 20.15 20.1 18.85 L20.6 18.2 15.15 14.85 Q17.85 13.45 18.65 10.6 L23.6 13.6 23.9 13.05 Q24.7 11.75 26.15 11.4 27.65 11.05 28.95 11.85 M-18.65 10.55 Q-17.85 13.35 -15.2 14.85 L-20.6 18.15 -20.1 18.8 Q-19.3 20.1 -19.65 21.6 -20.05 23.05 -21.35 23.85 -22.65 24.65 -24.1 24.3 -25.6 23.9 -26.4 22.6 -27.0 21.6 -26.9 20.45 -26.8 19.3 -26.1 18.45 L-28.4 18.3 Q-29.5 17.85 -30.15 16.8 -30.95 15.5 -30.6 14.0 -30.25 12.55 -28.95 11.75 -27.65 10.95 -26.15 11.3 -24.7 11.65 -23.9 12.95 L-23.6 13.55 -18.65 10.55 M-12.85 3.8 Q-14.35 6.0 -13.1 8.35 -11.95 10.5 -6.55 8.65 -1.25 6.8 -1.35 4.85 -1.4 3.25 -3.3 2.55 -4.65 2.05 -8.3 1.75 -11.35 1.55 -12.85 3.8 M-1.75 10.05 Q-3.0 12.05 -2.35 12.5 L0.1 12.9 2.35 12.5 Q2.85 12.2 1.6 10.05 0.3 7.9 -0.1 8.0 -0.6 8.15 -1.75 10.05 M-26.3 -17.65 Q-25.5 -18.95 -24.05 -19.3 -22.55 -19.65 -21.25 -18.85 -19.95 -18.05 -19.6 -16.6 -19.25 -15.1 -20.05 -13.8 L-20.4 -13.3 -16.25 -10.75 Q-18.05 -8.55 -18.8 -5.9 L-23.5 -8.75 -23.85 -8.0 Q-24.65 -6.7 -26.1 -6.35 -27.6 -6.0 -28.9 -6.8 -30.2 -7.6 -30.55 -9.05 -30.9 -10.55 -30.1 -11.85 -29.45 -12.9 -28.35 -13.3 L-26.05 -13.45 Q-26.75 -14.35 -26.85 -15.5 -26.95 -16.65 -26.3 -17.65 M20.55 -13.25 L20.15 -13.75 Q19.35 -15.05 19.75 -16.55 20.1 -18.0 21.4 -18.8 22.7 -19.6 24.15 -19.2 25.65 -18.85 26.45 -17.55 27.05 -16.55 26.95 -15.4 26.85 -14.25 26.15 -13.4 L28.45 -13.25 Q29.55 -12.8 30.2 -11.75 31.0 -10.45 30.65 -8.95 30.3 -7.5 29.0 -6.7 27.7 -5.9 26.2 -6.25 24.75 -6.6 23.9 -7.9 L23.6 -8.7 18.9 -5.85 Q18.15 -8.6 16.35 -10.7 L20.55 -13.25 M17.6 -2.6 Q17.6 -1.6 16.7 0.7 15.9 2.8 16.1 3.55 L16.75 6.3 17.2 8.9 Q17.2 11.0 15.55 12.5 13.85 14.0 11.5 13.95 L10.6 13.9 Q10.15 18.25 9.05 19.05 7.9 19.9 7.1 19.65 6.05 19.65 5.4 17.85 L4.8 19.3 Q4.25 20.25 3.75 20.25 L1.8 20.2 Q0.95 20.2 0.1 17.85 -0.55 20.2 -1.55 20.2 L-3.5 20.2 Q-4.5 20.2 -5.15 17.85 -5.75 19.6 -6.85 19.6 -8.0 19.7 -8.8 19.05 -9.25 18.6 -9.85 16.2 L-10.3 13.85 -11.25 13.95 Q-13.6 13.9 -15.25 12.45 -16.9 10.95 -16.9 8.85 L-16.45 6.25 -15.8 3.5 Q-15.65 2.85 -16.45 0.7 -17.3 -1.6 -17.3 -2.65 -17.25 -8.45 -12.15 -11.95 -7.3 -15.25 0.2 -15.25 7.65 -15.25 12.5 -11.9 17.6 -8.4 17.6 -2.6 M12.95 1.25 Q11.6 -3.25 8.6 -2.95 5.5 -2.65 3.55 -0.5 1.8 1.45 1.8 4.05 1.8 7.1 6.8 8.6 11.7 10.05 12.9 7.8 14.25 5.4 12.95 1.25" fill="#cfa00a" fill-rule="evenodd" stroke="none"/>
    <path d="M-16.65 39.45 L-16.5 39.1 -17.0 39.3 -16.75 39.8 -16.65 39.45 M-11.35 38.7 L-11.55 38.4 -12.05 38.2 -12.1 38.35 -12.1 38.5 -12.3 38.95 -12.4 39.35 -12.45 39.4 -12.8 40.6 -12.5 40.7 -11.85 40.7 Q-11.45 40.6 -11.25 39.9 L-11.2 39.6 -11.15 39.45 -11.15 39.2 -11.25 38.85 -11.3 38.75 -11.35 38.75 -11.35 38.7 M-28.4 27.55 L-28.25 27.4 -28.2 27.3 -28.05 27.15 -27.15 25.9 Q-26.7 25.4 -26.1 25.4 L-25.85 25.4 Q-25.45 25.45 -25.15 25.7 L-25.05 25.75 -24.75 26.05 -24.65 26.1 -24.4 26.3 -24.35 26.3 Q-23.9 26.7 -23.8 27.15 L-23.85 28.25 -24.0 29.25 -24.0 29.9 -24.05 29.95 -24.05 30.2 -23.9 30.2 -23.8 30.15 -23.5 30.05 -23.45 30.05 -22.9 29.85 -22.75 29.75 -22.6 29.7 -22.05 29.45 -22.0 29.45 -21.95 29.4 -21.9 29.4 -21.65 29.3 -21.35 29.3 Q-20.75 29.3 -20.4 29.6 L-20.15 29.85 -19.95 30.0 -19.9 30.05 -19.7 30.2 -19.45 30.45 -19.15 30.8 -18.95 30.8 -18.3 30.95 -18.0 31.1 -17.85 31.2 -16.95 31.65 -16.75 31.8 -16.4 31.95 -16.25 32.05 -16.0 32.15 -15.85 32.25 -15.6 32.35 -14.95 32.7 -14.8 32.8 -14.5 32.95 -13.9 33.55 -13.8 33.55 -12.45 33.85 -12.15 33.95 -12.05 34.0 -12.0 34.0 -11.85 34.1 -11.15 34.25 -11.0 34.3 -10.9 34.35 -10.75 34.35 -10.35 34.5 -9.6 34.9 -9.55 34.95 -9.5 34.95 -9.2 35.15 -9.05 35.3 -9.05 35.35 -8.9 35.4 -8.85 35.45 -8.85 35.5 -8.7 35.6 -8.6 35.65 -8.6 35.7 -8.55 35.75 -8.1 36.35 Q-7.55 37.05 -7.35 37.8 L-7.3 37.7 -7.3 37.6 Q-6.75 35.65 -5.35 35.65 L-3.7 35.85 -3.6 35.85 Q-2.7 35.85 -2.1 36.45 -1.65 36.85 -1.55 37.65 L-1.45 38.15 -1.4 38.3 -1.35 38.55 -1.35 38.65 -1.3 39.1 -1.3 38.7 -1.35 38.35 -1.35 37.85 -1.4 37.55 Q-1.4 36.95 -1.0 36.5 -0.6 36.1 -0.1 36.1 L0.85 36.05 1.0 36.05 1.2 36.0 1.3 36.0 Q1.85 36.0 2.25 36.4 2.65 36.8 2.7 37.35 L2.7 38.55 2.75 38.6 2.7 38.65 2.75 38.9 2.75 39.6 2.8 39.75 2.85 42.0 2.9 42.4 3.3 42.4 3.6 42.35 4.4 42.35 4.5 42.3 5.2 42.5 4.85 40.8 4.85 40.7 4.7 39.95 4.65 39.8 4.45 38.85 4.45 38.75 4.4 38.7 4.25 37.95 4.25 37.8 4.1 37.35 Q4.1 36.6 4.35 36.25 L5.2 35.75 5.9 35.6 6.05 35.55 6.15 35.5 6.25 35.5 6.75 35.4 Q7.9 35.4 8.15 36.55 L8.15 36.85 8.2 37.05 8.2 37.15 8.25 37.3 8.25 37.4 8.3 37.6 8.3 37.75 8.35 37.8 8.35 37.85 8.5 38.75 8.6 39.05 9.1 41.5 9.3 41.5 9.5 41.45 9.75 41.35 10.0 41.35 10.2 41.3 10.3 41.25 10.9 41.15 Q11.2 41.15 11.4 41.3 L11.4 41.2 11.35 41.0 11.2 40.75 11.1 40.25 10.65 39.05 10.3 37.8 10.15 37.5 10.1 37.2 10.05 37.1 9.75 36.35 Q9.6 35.8 9.75 35.3 9.9 34.75 10.4 34.5 L10.45 34.5 10.5 34.45 10.7 34.4 10.75 34.4 10.95 34.35 11.1 34.25 11.4 34.2 11.55 34.1 11.65 34.1 11.8 34.0 12.25 33.95 Q12.7 33.95 12.95 34.2 L13.6 35.0 13.7 35.2 13.7 35.35 13.75 35.2 13.75 35.15 13.8 35.1 13.8 35.05 13.85 34.7 14.15 34.05 14.65 33.3 14.85 33.1 14.85 33.05 14.9 33.0 15.1 32.75 16.2 32.0 16.75 31.8 16.95 31.7 17.75 31.5 18.0 31.5 18.8 31.45 18.95 31.45 19.8 31.65 19.7 31.45 Q19.35 30.5 20.05 29.95 L20.25 29.8 20.3 29.8 20.45 29.65 20.55 29.6 20.7 29.45 21.4 28.95 21.7 28.8 22.25 28.7 22.45 28.7 22.5 28.75 23.85 29.15 24.05 29.2 24.15 29.25 24.2 29.25 24.05 29.05 23.7 28.7 Q23.15 28.0 23.6 27.15 L24.25 26.5 24.65 26.25 24.65 26.2 24.75 26.1 24.95 25.95 Q25.35 25.65 25.75 25.65 26.45 25.65 26.9 26.2 L27.1 26.5 27.25 26.65 27.35 26.85 27.6 27.1 28.05 27.7 28.6 28.3 29.1 29.0 29.35 29.25 30.65 30.85 30.8 31.0 30.85 31.1 30.85 31.15 30.95 31.2 31.1 31.4 31.7 32.0 32.05 33.05 31.5 34.0 31.3 34.15 31.15 34.3 30.95 34.45 30.85 34.55 30.8 34.55 30.65 34.75 29.7 35.05 28.85 34.85 28.6 34.75 28.5 34.75 27.25 34.3 27.65 34.75 27.7 34.85 27.95 35.05 Q28.6 35.85 28.05 36.75 L26.9 37.85 26.05 38.2 25.9 38.2 Q25.25 38.2 24.9 37.7 L24.85 37.7 24.85 37.65 24.6 37.35 24.5 37.25 24.25 36.95 24.1 36.7 23.85 36.45 23.7 36.25 23.75 36.7 23.7 37.95 23.25 39.35 22.8 40.0 22.2 40.65 22.0 40.8 21.9 40.9 21.9 40.95 21.85 40.95 21.75 41.05 20.5 41.7 19.85 41.9 19.45 41.95 19.3 41.95 19.2 42.0 18.6 42.0 18.25 41.95 18.15 41.95 16.7 41.5 16.0 41.1 15.95 41.05 15.9 41.05 15.85 41.0 15.65 40.9 15.55 40.8 15.55 40.85 15.9 41.9 16.05 42.2 Q16.25 42.7 16.0 43.2 L15.2 43.9 14.95 43.95 14.9 43.95 14.45 44.15 14.2 44.2 14.15 44.2 14.1 44.25 13.9 44.35 13.45 44.4 Q12.85 44.4 12.45 44.0 12.3 44.9 11.2 45.15 L9.4 45.5 9.25 45.55 9.0 45.6 8.85 45.6 8.75 45.65 8.65 45.65 8.45 45.7 8.1 45.75 7.4 45.95 7.1 45.95 Q6.3 45.95 5.85 45.3 L5.55 45.85 Q5.2 46.3 4.45 46.3 L4.25 46.35 3.65 46.35 3.35 46.4 2.2 46.4 2.0 46.45 1.1 46.45 0.95 46.5 0.5 46.5 Q-0.3 46.5 -0.75 45.85 -1.1 46.5 -1.9 46.5 L-2.25 46.5 -2.5 46.45 -2.95 46.45 -4.05 46.15 Q-4.55 45.8 -4.7 45.0 L-4.75 44.85 -4.95 44.85 -5.3 44.8 -5.5 44.8 -5.5 44.85 Q-5.6 45.4 -6.05 45.65 L-6.85 45.95 -7.2 45.95 -7.75 45.85 -8.15 45.85 -8.95 45.55 Q-9.6 45.1 -9.5 44.25 L-9.4 43.75 -10.2 44.25 -10.25 44.25 Q-10.75 44.55 -11.2 44.55 L-11.3 44.55 -11.65 44.6 -12.55 44.6 -14.7 44.05 -15.25 43.9 -15.7 43.7 -16.05 43.6 Q-16.9 43.45 -17.25 42.75 L-17.4 41.95 Q-17.8 42.55 -18.45 42.55 L-19.15 42.35 -19.25 42.3 -19.3 42.3 -19.4 42.2 -19.45 42.2 -19.5 42.15 -20.15 41.85 -20.3 41.75 -20.35 41.7 -20.5 41.6 -23.1 40.25 -23.85 39.45 Q-24.1 38.8 -23.75 38.15 L-23.6 37.85 -23.5 37.75 -23.2 37.1 -23.15 37.05 -23.25 37.1 -23.6 37.4 -23.95 37.95 -24.2 38.2 Q-24.65 38.75 -25.25 38.75 -25.85 38.75 -26.3 38.3 L-26.6 38.1 -26.75 37.95 -27.0 37.75 -27.2 37.55 Q-27.6 37.25 -27.65 36.75 -27.75 36.2 -27.35 35.75 L-27.3 35.65 -27.15 35.45 -26.95 35.25 -26.8 35.05 -26.65 34.9 -26.65 34.85 -27.5 34.5 -27.85 33.95 -28.0 33.2 -28.05 33.25 -28.75 34.15 -28.85 34.25 -28.95 34.4 Q-29.35 34.9 -30.0 34.9 -30.55 34.9 -30.9 34.55 L-31.35 34.15 -31.75 33.85 Q-32.45 33.25 -32.3 32.5 L-32.25 32.45 -32.25 32.4 -31.95 31.8 -31.4 31.1 -30.0 29.45 -29.9 29.3 -29.35 28.7 -29.1 28.35 -28.95 28.25 -28.85 28.1 -28.6 27.8 -28.55 27.75 -28.4 27.55 M-7.5 -39.85 L-7.85 -40.0 -8.0 -40.0 -8.55 -39.95 -8.45 -39.7 -8.45 -39.55 -8.0 -37.15 -7.55 -37.2 -7.45 -37.25 Q-7.2 -37.25 -6.95 -37.5 -6.6 -37.75 -6.75 -38.65 L-6.8 -39.05 -7.0 -39.4 -7.0 -39.45 -7.3 -39.75 -7.4 -39.8 -7.45 -39.8 -7.5 -39.85 M11.25 -39.5 L11.15 -39.5 10.7 -39.35 10.5 -39.15 10.4 -39.0 10.15 -38.35 10.15 -37.65 10.2 -37.6 10.4 -37.15 10.55 -37.0 Q10.4 -37.3 10.55 -37.75 L10.8 -38.5 10.8 -38.6 10.85 -38.8 11.25 -39.5 M19.55 -35.8 L19.4 -35.65 19.3 -35.6 18.9 -34.95 18.85 -34.8 18.8 -34.7 18.8 -34.6 18.7 -34.35 18.75 -34.25 18.85 -33.75 18.85 -33.7 18.9 -33.55 19.1 -34.3 19.5 -34.9 19.55 -35.0 19.55 -35.05 19.65 -35.25 20.25 -35.85 19.65 -35.85 19.55 -35.8 M29.45 -34.4 L30.0 -33.95 30.1 -33.85 30.5 -33.55 31.3 -32.8 31.7 -32.5 32.25 -31.5 Q32.3 -30.95 31.9 -30.45 L31.6 -30.15 31.25 -29.7 Q30.9 -29.3 30.4 -29.2 L30.05 -29.15 29.9 -29.15 29.95 -28.55 30.2 -28.75 30.6 -29.0 31.6 -29.85 31.8 -30.05 Q32.45 -30.55 33.05 -30.55 33.75 -30.55 34.2 -30.0 L34.35 -29.75 34.65 -29.45 34.8 -29.2 35.25 -28.65 35.4 -28.5 35.55 -28.3 35.7 -28.15 35.85 -27.9 36.4 -27.15 36.75 -26.4 36.8 -26.25 36.8 -26.15 36.95 -25.75 37.0 -25.5 37.0 -24.45 36.95 -24.35 36.9 -24.05 36.8 -23.75 36.8 -23.7 Q36.6 -23.0 35.9 -22.35 L35.7 -22.2 35.65 -22.2 35.5 -22.05 35.25 -21.85 Q34.5 -21.2 33.55 -21.05 L32.55 -21.0 32.6 -20.9 32.65 -20.75 32.65 -20.65 Q32.8 -19.85 32.1 -19.35 L31.95 -19.25 31.65 -18.95 31.35 -18.75 31.15 -18.65 31.15 -18.6 30.95 -18.45 Q30.6 -18.15 30.1 -18.15 29.15 -18.15 28.85 -18.75 28.1 -19.7 28.3 -20.6 L28.4 -21.85 28.25 -21.7 Q27.9 -21.4 27.35 -21.4 26.8 -21.4 26.3 -21.9 L26.1 -22.2 26.1 -22.25 26.05 -22.35 25.9 -22.5 25.35 -23.15 25.15 -23.45 24.7 -23.75 24.45 -24.0 24.35 -24.05 23.9 -24.45 23.8 -24.5 23.65 -24.65 23.6 -24.65 23.6 -24.7 23.45 -24.85 21.75 -26.25 21.65 -26.35 21.35 -26.6 21.0 -26.9 Q20.55 -27.3 20.45 -27.85 L20.45 -27.9 20.25 -27.85 19.75 -27.95 18.3 -28.7 18.25 -28.75 18.1 -28.8 17.85 -28.95 16.9 -29.6 15.9 -30.6 15.75 -30.8 15.7 -30.85 15.0 -32.15 14.75 -32.8 Q14.6 -33.1 14.6 -33.55 L14.45 -33.1 14.45 -33.05 14.1 -32.3 14.0 -32.2 Q13.5 -31.7 12.75 -31.7 L12.7 -31.7 11.55 -31.95 11.05 -32.1 11.0 -32.1 10.85 -32.15 10.55 -32.2 9.45 -32.65 8.4 -33.35 8.25 -33.45 8.05 -33.55 8.05 -33.6 8.0 -33.65 Q7.65 -33.85 7.05 -34.7 L6.65 -35.25 6.2 -36.3 5.7 -35.4 4.95 -34.65 4.0 -34.1 3.2 -33.85 3.15 -33.85 2.2 -33.75 1.85 -33.75 1.35 -33.8 1.25 -33.8 -0.8 -34.15 -0.85 -34.2 -0.9 -34.2 -1.2 -34.35 -1.3 -34.45 -2.3 -35.25 -2.35 -35.3 -2.7 -35.85 -2.7 -35.9 -2.95 -36.4 -3.0 -36.35 -3.05 -36.1 -3.1 -36.1 -3.1 -36.05 Q-3.25 -35.5 -3.7 -35.05 L-4.5 -34.25 -5.55 -33.65 -5.7 -33.6 -7.95 -33.0 -8.0 -33.0 -10.1 -32.7 -10.3 -32.7 -11.0 -32.2 -11.55 -32.0 -11.8 -31.85 -12.15 -31.7 -13.05 -31.4 -13.4 -31.2 -13.55 -31.2 -13.65 -31.1 -13.85 -31.05 -14.4 -30.85 -14.55 -30.75 -14.9 -30.6 -15.5 -30.45 -15.6 -30.5 -16.15 -30.0 -17.85 -28.95 -18.0 -28.9 -18.25 -28.7 -18.35 -28.65 -18.5 -28.6 -18.55 -28.55 -18.75 -28.4 -19.25 -28.15 -19.75 -27.8 -20.55 -27.55 Q-21.05 -27.55 -21.5 -27.95 L-21.55 -27.75 -21.85 -26.7 -22.25 -26.0 -22.3 -25.9 -23.1 -24.95 -23.6 -24.5 -25.3 -23.35 -25.35 -23.3 -25.4 -23.3 -25.85 -23.15 -26.45 -23.05 Q-26.15 -22.4 -26.55 -21.75 L-26.7 -21.55 -26.8 -21.45 -26.9 -21.25 -27.1 -20.95 -27.3 -20.75 -27.4 -20.6 -27.6 -20.2 Q-27.9 -19.75 -28.5 -19.65 L-28.7 -19.65 -29.6 -19.75 -29.7 -19.75 Q-29.3 -19.45 -29.15 -18.95 -29.05 -18.45 -29.25 -18.0 L-29.35 -17.8 -29.4 -17.75 -29.45 -17.65 -29.55 -17.5 -29.6 -17.45 -29.8 -17.1 -30.0 -16.85 -30.05 -16.8 -30.2 -16.55 -30.65 -16.15 -30.85 -16.05 -31.3 -16.0 -31.35 -16.0 -31.25 -15.5 -31.3 -14.1 -31.35 -14.05 -31.35 -14.0 -31.65 -13.3 -31.65 -13.2 -31.7 -13.15 -31.75 -12.95 -32.15 -12.3 -32.9 -11.35 Q-33.2 -11.05 -33.75 -11.05 L-34.3 -11.15 -34.95 -11.45 -35.35 -11.7 -35.45 -11.7 -35.65 -11.8 -36.35 -12.5 Q-36.55 -13.05 -36.15 -13.85 L-35.95 -14.2 -37.1 -13.7 -37.85 -13.45 -38.45 -13.4 -39.0 -13.45 -40.1 -13.8 -41.1 -14.4 Q-41.7 -14.85 -42.0 -15.8 L-42.05 -17.1 -41.95 -17.75 -41.55 -18.85 -40.7 -20.2 Q-40.3 -20.75 -39.65 -20.75 L-39.35 -20.7 -38.85 -20.5 -38.8 -20.5 -38.25 -20.25 -38.0 -20.15 Q-37.3 -19.85 -37.2 -19.15 L-37.35 -18.2 -37.3 -18.2 -36.8 -18.4 -36.75 -18.4 -35.65 -18.8 -35.75 -18.9 -35.9 -19.0 -35.95 -19.05 -36.1 -19.1 -36.2 -19.2 -37.4 -19.95 -37.6 -20.15 -38.35 -20.6 -38.5 -20.75 -38.6 -20.8 -38.7 -20.9 -38.95 -21.0 -39.5 -21.8 Q-39.7 -22.35 -39.35 -22.95 L-39.1 -23.2 -38.85 -23.6 -38.8 -23.7 -38.5 -24.15 Q-38.1 -24.75 -37.5 -24.75 L-37.3 -24.75 -36.55 -24.55 -36.45 -24.45 -36.45 -24.55 -36.75 -25.4 -36.85 -25.8 Q-36.95 -26.45 -36.55 -27.0 L-36.35 -27.25 -36.3 -27.25 -36.1 -27.65 -35.7 -28.2 -34.6 -28.85 -33.85 -28.6 -33.2 -27.65 -33.15 -27.4 -33.1 -27.3 -33.1 -27.25 -32.65 -25.95 -32.5 -25.4 -32.45 -25.3 -32.2 -24.6 -32.2 -24.5 -32.1 -24.35 -31.6 -24.25 -31.4 -24.25 -31.3 -24.2 -31.2 -24.2 -31.15 -24.15 -30.9 -24.15 -30.2 -24.1 -30.05 -24.05 -29.8 -24.05 -29.3 -24.0 -30.1 -24.75 -30.2 -24.9 -30.35 -25.0 -30.5 -25.15 -30.65 -25.35 -30.9 -25.6 -31.05 -25.8 -31.45 -26.2 -31.6 -26.4 -32.0 -26.8 -32.25 -27.15 -32.45 -27.3 -33.6 -28.55 -33.9 -29.1 -33.9 -29.15 -33.95 -29.15 Q-34.2 -30.1 -33.55 -30.65 L-33.25 -30.85 -33.2 -30.95 -32.85 -31.3 -32.1 -31.85 -32.05 -31.9 -31.95 -31.9 -31.5 -32.0 Q-30.85 -32.0 -30.5 -31.55 L-29.7 -30.6 -28.6 -29.45 -28.45 -29.25 -28.25 -29.05 -28.15 -28.85 -27.55 -28.3 -27.45 -28.15 -27.25 -27.95 -27.15 -27.9 -27.15 -27.85 -27.1 -27.85 -27.05 -27.8 -26.55 -27.4 -26.5 -27.4 -26.1 -27.65 -25.95 -27.85 -25.9 -27.95 -25.9 -28.1 -25.95 -28.15 -26.35 -28.65 -26.85 -29.15 -27.0 -29.35 -27.3 -29.65 -27.65 -30.1 -27.7 -30.1 -27.7 -30.15 -27.95 -30.45 -29.55 -32.1 -30.0 -33.05 Q-30.15 -33.85 -29.5 -34.35 L-29.35 -34.5 -29.35 -34.55 -29.3 -34.55 -29.1 -34.7 -29.0 -34.85 -28.65 -35.2 Q-28.15 -35.6 -27.7 -35.6 L-27.5 -35.6 -27.4 -35.55 -27.3 -35.55 -26.5 -35.1 -26.15 -34.75 -26.0 -34.55 -25.9 -34.45 -25.8 -34.3 -25.4 -33.95 -25.25 -33.75 -25.25 -33.7 -24.9 -33.35 -25.25 -33.9 -25.3 -34.0 -25.3 -34.05 -25.65 -34.55 -25.75 -34.75 -25.85 -34.9 -25.95 -35.0 -26.1 -35.3 Q-26.45 -35.75 -26.3 -36.4 L-25.65 -37.25 -24.8 -37.75 -24.75 -37.8 -24.7 -37.8 -24.5 -38.0 -23.7 -38.2 Q-22.9 -38.2 -22.45 -37.5 L-22.3 -37.2 -22.25 -37.05 -22.15 -36.95 -22.15 -36.9 -22.05 -36.7 -21.9 -36.5 -21.85 -36.35 -21.8 -36.35 -21.8 -36.3 -21.25 -35.4 -21.2 -35.3 -21.05 -35.1 -20.2 -33.75 -19.95 -33.2 -19.6 -32.75 -19.5 -32.8 -19.35 -32.85 -19.2 -33.0 -18.4 -33.45 -18.15 -33.65 Q-17.95 -33.7 -17.8 -33.8 L-17.9 -33.9 -17.9 -33.95 -18.1 -34.45 -18.15 -34.5 -18.45 -35.3 -18.55 -35.5 -18.55 -35.55 -18.9 -36.35 -18.95 -36.55 -19.3 -37.25 -19.4 -37.6 -19.4 -37.65 -19.55 -37.9 -19.65 -38.2 -19.75 -38.4 -19.8 -38.55 -19.9 -38.7 -20.0 -39.0 Q-20.25 -39.55 -20.0 -40.15 L-19.25 -40.85 -18.5 -41.15 -18.35 -41.25 -18.25 -41.25 -18.2 -41.3 -18.15 -41.3 -17.95 -41.4 -17.35 -41.55 Q-16.5 -41.55 -16.05 -40.6 L-15.9 -40.1 -15.85 -40.0 -15.8 -39.85 -15.65 -39.55 -15.6 -39.4 -15.6 -39.35 -15.55 -39.3 -15.5 -39.05 -15.2 -38.35 -15.15 -38.2 -15.05 -38.0 -14.95 -37.85 -14.25 -35.95 -14.0 -35.45 -13.9 -35.5 -13.7 -35.55 -13.55 -35.65 -13.0 -35.85 -12.8 -35.9 -12.65 -36.0 -12.05 -36.2 -12.1 -36.35 -12.45 -38.1 -12.45 -38.25 -12.5 -38.45 -12.5 -38.6 -12.9 -40.65 -13.1 -41.55 Q-13.35 -42.8 -12.55 -43.3 L-11.0 -43.75 -10.85 -43.75 -10.65 -43.8 -10.5 -43.8 -10.35 -43.85 -10.05 -43.9 -9.6 -44.05 -9.35 -44.05 -9.3 -44.1 -9.1 -44.15 -8.8 -44.15 -8.7 -44.2 -7.65 -44.2 -7.3 -44.15 -7.2 -44.15 -7.1 -44.1 -7.05 -44.1 -6.85 -44.05 -6.75 -44.05 -6.45 -43.95 -6.35 -43.95 -5.45 -43.5 Q-4.4 -42.9 -3.8 -42.05 L-3.25 -41.2 -3.1 -40.9 -3.05 -41.35 -3.05 -42.8 -3.0 -43.15 -3.0 -43.7 -2.8 -44.35 -2.8 -44.4 Q-2.35 -45.2 -1.55 -45.2 L-1.45 -45.2 -1.1 -45.15 -1.0 -45.1 -0.8 -45.1 -0.65 -45.15 -0.5 -45.15 0.4 -45.0 0.5 -45.0 0.55 -44.95 Q1.35 -44.55 1.35 -43.7 L1.2 -42.4 1.2 -41.25 1.15 -40.95 1.15 -40.25 1.1 -40.05 1.1 -39.05 1.05 -39.05 1.1 -38.8 1.1 -38.55 1.2 -37.95 1.2 -37.9 1.7 -37.8 1.95 -37.8 2.0 -37.85 2.05 -37.85 2.15 -37.95 2.15 -38.4 2.2 -38.65 2.2 -39.35 2.25 -39.6 2.3 -40.65 2.3 -40.7 2.35 -41.1 2.35 -42.45 2.4 -42.85 2.4 -43.4 2.7 -44.35 Q3.1 -44.95 3.85 -44.95 L4.25 -44.95 4.6 -44.9 5.25 -44.9 6.3 -44.35 6.4 -44.3 6.4 -44.2 6.65 -43.35 6.65 -42.6 6.6 -42.45 6.6 -41.5 6.55 -41.45 6.55 -40.95 7.3 -42.05 8.15 -42.75 Q8.8 -43.2 9.7 -43.45 L10.0 -43.5 10.15 -43.55 11.0 -43.65 11.05 -43.65 12.4 -43.45 12.75 -43.35 12.85 -43.35 12.95 -43.3 13.65 -43.15 13.9 -43.05 14.35 -42.95 Q15.5 -42.6 15.95 -41.9 16.45 -41.3 16.25 -40.5 L16.1 -40.1 16.0 -39.75 15.95 -39.4 15.45 -38.7 15.7 -37.95 16.0 -38.3 Q16.3 -38.85 16.95 -39.25 L17.9 -39.75 19.6 -40.05 19.9 -40.05 20.1 -40.0 21.0 -39.9 22.6 -39.25 22.65 -39.2 22.75 -39.2 22.9 -39.05 22.95 -39.05 23.1 -38.95 23.4 -38.85 24.0 -38.45 Q25.05 -37.9 25.35 -37.1 25.7 -36.3 25.3 -35.7 L25.05 -35.3 25.0 -35.15 24.75 -34.7 24.1 -34.1 24.2 -33.3 24.1 -32.95 24.3 -33.15 24.6 -33.6 25.45 -34.5 25.85 -35.05 26.65 -35.65 27.3 -35.8 Q27.85 -35.8 28.25 -35.45 L28.4 -35.3 28.6 -35.15 28.8 -34.95 29.2 -34.65 29.45 -34.4 M39.25 -23.3 L39.35 -23.1 39.35 -23.0 39.4 -23.0 39.95 -21.95 40.15 -21.3 Q40.2 -20.7 39.75 -20.15 L39.5 -19.8 39.4 -19.75 39.2 -19.45 39.05 -19.15 39.8 -19.15 40.75 -19.2 40.85 -19.15 41.8 -18.35 41.9 -18.15 41.9 -18.1 42.25 -17.4 42.35 -17.3 42.5 -17.0 42.65 -15.9 Q42.5 -15.4 42.15 -15.25 L41.05 -15.0 40.05 -15.0 39.75 -14.95 38.1 -14.95 37.85 -15.0 37.6 -14.95 36.15 -14.95 36.1 -14.9 35.2 -14.85 35.15 -14.8 34.6 -14.55 34.0 -14.15 33.5 -13.95 33.4 -13.9 33.2 -13.75 32.5 -13.6 Q31.65 -13.6 31.25 -14.35 L31.15 -14.6 31.15 -14.65 31.05 -14.8 30.85 -15.2 30.75 -15.35 30.6 -15.65 Q30.3 -16.05 30.5 -16.7 30.75 -17.35 31.25 -17.65 L31.65 -17.8 31.7 -17.8 31.9 -17.95 32.2 -18.05 32.35 -18.15 32.45 -18.2 32.5 -18.2 32.8 -18.4 33.15 -18.55 33.2 -18.6 33.35 -18.7 33.45 -18.75 33.55 -18.9 33.6 -19.0 33.75 -19.15 33.8 -19.25 34.25 -19.75 34.4 -19.95 34.6 -20.3 34.65 -20.35 34.85 -20.6 34.95 -20.7 35.0 -20.8 35.25 -21.2 36.3 -22.55 36.35 -22.6 36.7 -23.1 36.75 -23.2 36.85 -23.3 37.0 -23.5 37.5 -23.95 38.05 -24.05 Q38.9 -24.05 39.25 -23.3" fill="#cfa00a" fill-rule="evenodd" stroke="none"/>
    <path d="M6.65 35.65 Q7.05 35.55 7.15 35.95 L7.2 36.45 7.3 36.8 7.55 38.2 7.65 38.5 8.0 40.5 8.25 41.35 8.65 41.8 9.1 41.75 9.95 41.55 10.4 41.5 10.75 41.4 Q11.2 41.3 11.2 41.7 L11.3 42.35 11.45 42.85 Q11.55 43.3 11.0 43.35 L8.5 43.85 8.2 43.95 7.7 44.0 7.2 44.15 Q6.6 44.25 6.6 43.65 L6.1 41.2 5.85 39.75 5.7 39.25 5.65 38.8 5.45 38.1 5.35 37.45 5.25 37.15 5.1 36.35 5.1 36.1 Q5.2 35.95 5.4 35.9 L6.65 35.65 M1.7 36.65 L1.7 37.45 1.75 37.8 1.75 38.15 1.75 38.9 1.8 39.2 1.85 41.25 1.95 42.1 Q2.0 42.55 2.3 42.65 L2.8 42.65 3.65 42.55 4.1 42.6 4.5 42.55 Q4.85 42.5 4.85 42.9 L4.9 44.05 Q4.9 44.5 4.4 44.55 L2.55 44.6 2.15 44.65 1.05 44.65 0.55 44.75 Q0.0 44.75 0.0 44.15 L-0.05 42.2 -0.15 41.3 -0.15 40.15 -0.3 38.5 -0.3 37.85 -0.35 37.5 -0.35 37.15 -0.4 36.7 Q-0.4 36.3 -0.05 36.3 L1.0 36.25 1.25 36.2 Q1.7 36.2 1.7 36.65 M11.9 34.25 L12.15 34.2 12.4 34.25 12.65 34.55 15.1 41.7 14.85 42.15 13.55 42.6 13.1 42.45 13.0 42.2 12.95 41.85 12.35 40.1 12.3 39.9 12.15 39.65 11.9 38.7 11.3 36.9 11.1 36.4 11.0 36.0 10.7 35.2 Q10.55 34.75 10.85 34.6 L11.05 34.55 11.9 34.25 M15.05 33.65 L15.8 32.7 16.65 32.1 17.3 31.85 17.9 31.7 18.85 31.65 19.65 31.85 19.95 32.0 20.15 32.05 20.6 32.3 20.8 32.5 21.25 32.8 21.55 33.15 22.35 34.4 22.6 35.15 22.75 36.0 22.75 37.0 22.4 38.05 22.15 38.35 22.05 38.55 21.55 39.1 21.3 39.3 21.15 39.45 20.2 39.95 19.4 40.15 19.0 40.2 18.7 40.2 18.3 40.15 17.1 39.8 16.5 39.45 16.25 39.25 15.65 38.65 15.05 37.55 Q14.9 37.4 14.9 37.15 L14.65 36.25 14.65 35.7 14.7 34.85 14.75 34.55 15.05 33.65 M17.5 33.95 L17.25 34.1 16.9 34.55 16.6 35.15 16.55 35.85 16.8 36.7 16.85 36.75 17.05 37.15 17.35 37.5 17.85 37.95 Q18.5 38.4 18.85 38.25 L19.05 38.2 19.2 38.2 19.3 38.15 19.6 38.05 20.1 37.8 20.6 37.1 20.8 36.25 20.65 35.55 20.5 35.15 20.1 34.5 19.9 34.25 19.55 34.0 18.8 33.7 18.05 33.7 17.5 33.95 M25.25 26.25 L25.6 25.9 Q25.85 25.75 26.1 26.05 L27.55 27.85 27.75 28.1 29.9 30.7 30.0 30.8 30.1 31.0 30.95 31.85 Q31.15 32.25 30.85 32.45 L30.7 32.55 30.55 32.75 30.2 33.0 30.0 33.2 29.25 33.15 27.25 32.45 27.0 32.4 26.3 32.2 25.1 31.7 24.9 31.65 24.65 31.7 24.7 32.0 25.05 32.5 25.3 32.75 25.45 33.0 25.65 33.2 25.8 33.4 25.95 33.55 26.25 33.95 26.9 34.65 27.2 34.9 Q27.4 35.2 27.2 35.4 L27.0 35.55 26.25 36.3 25.95 36.45 25.65 36.3 24.85 35.25 24.6 35.0 21.45 31.2 21.25 31.0 21.05 30.7 20.6 30.25 20.7 29.95 20.9 29.8 20.95 29.75 21.05 29.7 21.1 29.65 21.15 29.55 21.2 29.55 21.45 29.3 21.9 29.05 22.05 28.95 22.35 28.95 23.75 29.35 24.0 29.4 24.6 29.65 25.2 29.85 26.8 30.45 27.1 30.5 26.85 30.05 26.5 29.6 24.5 27.25 Q24.3 27.05 24.45 26.9 L24.95 26.5 25.1 26.35 25.25 26.25 M-4.15 39.05 L-4.2 38.6 Q-4.25 38.3 -4.45 38.3 L-4.7 38.4 -5.05 39.15 -5.1 39.4 -5.25 39.9 -5.5 40.55 Q-5.5 41.1 -4.8 41.2 L-4.25 41.25 -3.95 40.95 -3.95 40.8 -4.1 39.25 -4.15 39.05 M-7.45 40.2 L-7.1 39.3 -7.0 39.1 -6.55 37.65 -6.4 37.35 -6.3 37.05 Q-6.0 35.8 -5.15 35.9 L-4.9 35.95 -3.65 36.05 Q-3.1 36.05 -2.8 36.35 L-2.5 37.0 -2.45 37.5 -2.3 38.4 -2.3 38.6 -2.25 38.8 -2.15 39.45 -2.15 39.9 -2.05 40.5 -2.05 40.85 -1.95 41.55 -1.95 41.9 -1.8 42.75 -1.8 43.0 -1.6 44.2 -1.6 44.55 Q-1.65 44.8 -2.15 44.7 L-2.8 44.65 -3.5 44.5 -3.75 44.05 -3.8 43.7 -3.85 43.55 Q-3.95 43.3 -4.15 43.2 L-5.25 43.0 -5.6 43.0 -6.15 43.15 -6.5 43.85 -6.65 44.1 -7.1 44.15 -7.65 44.05 -8.0 44.05 -8.35 43.95 Q-8.6 43.85 -8.5 43.55 L-8.45 43.3 -8.35 43.1 -8.25 42.65 -8.05 42.2 -7.95 41.7 -7.45 40.2 M-9.4 35.55 L-9.25 35.65 Q-8.35 36.55 -8.25 37.75 L-8.15 38.55 -8.3 39.45 -8.5 40.2 -9.1 41.3 -9.25 41.5 -9.65 41.9 -9.9 42.1 -10.65 42.55 -11.4 42.8 -12.5 42.8 -14.35 42.35 -14.4 42.3 -15.75 41.85 Q-16.5 41.65 -16.4 41.25 L-15.4 38.15 -15.3 37.6 -14.65 35.6 -14.45 35.1 -14.25 34.3 Q-14.15 33.75 -13.8 33.75 L-12.75 34.0 -12.45 34.1 -12.15 34.25 -11.45 34.4 -11.2 34.5 -10.65 34.65 -9.8 35.15 -9.7 35.3 -9.5 35.4 -9.4 35.55 M-10.55 37.35 L-10.85 36.9 -11.8 36.4 -12.2 36.3 -12.45 36.35 -12.9 36.9 -13.4 38.25 -13.8 39.8 Q-14.0 40.5 -12.8 40.85 L-12.5 40.9 -11.65 40.9 Q-11.15 40.75 -10.7 40.15 L-10.3 39.4 -10.15 38.55 -10.15 38.3 -10.25 38.0 -10.25 37.8 -10.55 37.35 M-22.9 38.3 L-22.85 37.85 -20.85 34.0 -20.75 33.85 -19.55 31.55 -19.25 31.1 -18.75 31.05 -17.7 31.55 -17.2 31.85 -16.85 32.1 -16.45 32.25 -15.0 33.0 Q-14.65 33.2 -14.8 33.55 L-15.25 34.4 -15.5 34.6 -15.7 34.65 -15.95 34.55 -16.75 34.15 -16.9 34.1 -17.15 33.9 -17.4 33.75 -18.45 33.85 Q-18.8 34.55 -18.5 34.8 L-16.65 35.8 -16.35 36.0 -16.25 36.15 -16.3 36.4 -16.75 37.1 -16.85 37.3 Q-17.1 37.65 -17.55 37.45 L-18.35 37.0 -18.6 36.9 -18.9 36.65 -19.25 36.5 -19.3 36.5 -19.55 36.4 -20.0 36.75 -20.25 37.5 -19.65 38.1 -18.85 38.55 -18.05 38.9 -17.7 39.35 -17.85 39.85 -17.9 39.9 -18.0 40.25 -18.15 40.5 Q-18.3 40.9 -18.7 40.65 L-18.85 40.55 -19.55 40.25 -22.3 38.75 -22.65 38.6 -22.9 38.3 M-28.2 28.1 L-27.65 27.4 -27.45 27.2 -26.35 25.75 Q-26.25 25.6 -25.95 25.6 L-25.75 25.7 -25.7 25.75 -25.7 25.8 -25.65 25.8 -25.0 26.3 Q-24.75 26.55 -24.85 27.35 L-25.0 28.35 -25.05 30.0 -25.0 30.65 -24.45 30.6 -23.05 30.15 -22.85 30.1 -21.6 29.55 -21.4 29.5 -21.05 29.6 -20.6 30.0 -20.3 30.2 -20.15 30.35 Q-19.8 30.65 -20.05 30.9 L-23.85 35.45 -24.4 36.0 -24.75 36.5 -24.9 36.7 -25.0 36.8 -25.7 36.75 -26.35 36.15 -26.6 36.0 Q-26.8 35.8 -26.55 35.55 L-26.4 35.3 -26.0 34.9 -24.55 33.1 Q-24.4 32.95 -24.6 32.85 L-25.25 32.8 -25.7 32.9 -26.2 32.95 -26.85 32.9 -26.95 32.8 -27.0 32.4 -26.95 31.45 -27.0 31.25 -27.0 31.05 Q-26.95 30.4 -27.05 30.35 L-27.3 30.25 -27.7 30.55 -29.75 33.0 Q-30.0 33.25 -30.25 33.0 L-31.1 32.3 -31.3 31.9 -31.2 31.65 -29.5 29.65 -29.25 29.3 -28.6 28.6 -28.45 28.35 -28.2 28.1 M-36.05 -18.4 L-35.45 -18.6 -33.8 -18.35 -33.15 -17.95 -32.75 -17.45 -32.5 -17.05 -32.25 -16.2 -32.3 -15.1 -32.6 -14.4 -32.65 -14.2 -33.0 -13.6 -33.5 -12.95 -33.85 -12.85 -34.2 -13.05 -34.5 -13.15 -34.95 -13.4 -35.25 -13.5 Q-35.5 -13.65 -35.25 -14.2 L-34.95 -14.65 -34.8 -14.8 -34.55 -15.35 -34.45 -15.75 Q-34.45 -16.1 -34.85 -16.3 L-35.2 -16.4 -35.75 -16.25 -36.1 -16.1 -36.45 -15.85 -37.5 -15.4 -38.0 -15.25 -38.8 -15.25 -39.7 -15.5 -40.45 -15.95 -41.0 -16.85 Q-41.25 -17.5 -41.0 -18.25 L-40.65 -19.25 -39.95 -20.35 -39.55 -20.55 -39.3 -20.4 -39.0 -20.3 -38.8 -20.15 -38.45 -20.0 -38.2 -19.75 -38.25 -19.35 -38.4 -19.2 -38.85 -18.4 -38.9 -17.95 Q-38.9 -17.65 -38.6 -17.5 L-37.95 -17.5 -37.15 -17.95 -36.95 -18.0 -36.85 -18.1 -36.05 -18.4 M-34.95 -28.25 L-34.85 -28.45 Q-34.7 -28.8 -34.4 -28.55 L-34.15 -28.1 -34.05 -27.8 -33.75 -26.9 -33.05 -24.8 -32.7 -24.3 -32.3 -24.15 -28.0 -23.6 -27.45 -23.5 -27.35 -23.4 -27.4 -23.1 -28.45 -21.6 -28.65 -21.45 -29.45 -21.5 -29.85 -21.6 -30.0 -21.6 -30.15 -21.65 -30.25 -21.65 -30.5 -21.7 -31.95 -21.85 -32.6 -21.7 Q-32.75 -21.35 -32.35 -21.15 L-30.55 -19.9 -30.35 -19.8 Q-29.95 -19.55 -30.15 -19.25 L-30.25 -19.0 -30.4 -18.85 -30.65 -18.45 -30.85 -18.2 -31.0 -17.9 -31.15 -17.8 -31.45 -17.85 -31.55 -17.9 -33.65 -19.35 -33.9 -19.6 -34.1 -19.7 -34.5 -19.95 -34.6 -20.05 -35.4 -20.65 -38.35 -22.65 Q-38.7 -22.9 -38.5 -23.15 L-38.4 -23.3 -38.3 -23.4 -38.2 -23.6 -38.05 -23.8 -37.7 -24.4 -37.4 -24.55 -37.1 -24.5 -36.95 -24.35 -36.4 -23.95 -35.95 -23.7 -35.35 -23.25 -35.15 -23.15 -34.85 -23.15 -34.8 -23.35 -35.25 -24.85 -35.8 -26.45 -35.85 -26.65 -35.75 -27.25 -35.5 -27.45 -35.3 -27.85 -34.95 -28.25 M-27.6 -35.4 L-27.2 -35.2 -26.65 -34.55 -26.15 -34.05 -25.35 -33.1 -24.8 -32.6 -23.15 -30.7 -22.75 -30.1 -22.55 -29.4 -22.55 -28.7 -22.8 -27.85 -23.1 -27.25 -23.8 -26.45 -24.25 -26.05 Q-25.2 -25.2 -25.7 -25.05 L-26.1 -24.95 -27.0 -24.8 -28.05 -25.15 -28.45 -25.4 -29.5 -26.35 -29.95 -26.9 -32.85 -30.0 -33.0 -30.25 -32.9 -30.7 -32.5 -31.0 -31.65 -31.75 -31.25 -31.7 -31.15 -31.5 -30.45 -30.7 -29.85 -30.15 -29.45 -29.65 -28.3 -28.4 -28.15 -28.2 -27.9 -28.0 -27.75 -27.85 -26.95 -27.25 -26.25 -27.2 -25.4 -27.7 -25.1 -28.1 Q-24.85 -28.5 -24.9 -28.9 L-25.2 -29.6 -25.6 -30.1 -25.9 -30.35 -26.25 -30.8 -26.9 -31.5 -27.2 -31.95 -27.9 -32.55 -28.8 -33.6 -29.05 -34.0 -28.85 -34.4 -28.65 -34.6 -28.6 -34.6 -28.6 -34.65 -28.55 -34.65 -27.95 -35.25 -27.6 -35.4 M-16.4 -32.35 Q-16.2 -31.9 -16.65 -31.65 L-20.25 -29.45 Q-20.75 -29.1 -21.05 -29.75 L-21.85 -31.05 -22.1 -31.55 -25.25 -36.6 Q-25.45 -37.0 -25.15 -37.15 L-23.95 -37.9 Q-23.55 -38.2 -23.3 -37.75 L-23.1 -37.3 -21.4 -34.6 -20.8 -33.45 -20.25 -32.65 Q-19.95 -32.3 -19.65 -32.35 L-18.8 -32.8 -18.4 -33.1 -17.95 -33.35 -17.65 -33.6 Q-17.3 -33.8 -17.1 -33.45 L-16.75 -32.75 -16.4 -32.35 M-11.05 -34.55 Q-10.9 -34.15 -11.4 -33.9 L-13.95 -32.9 -14.25 -32.75 -15.3 -32.3 Q-15.8 -32.05 -16.05 -32.75 L-17.0 -35.25 -17.2 -35.6 -19.1 -40.2 Q-19.3 -40.55 -18.85 -40.7 L-17.6 -41.25 Q-17.2 -41.45 -16.95 -41.0 L-16.55 -39.8 -14.75 -35.5 Q-14.5 -35.05 -14.25 -35.1 L-13.7 -35.25 -12.9 -35.65 -12.4 -35.8 -12.05 -36.0 Q-11.65 -36.1 -11.5 -35.75 L-11.3 -35.05 -11.05 -34.55 M-5.9 -40.2 L-6.15 -40.8 -6.4 -41.05 -6.5 -41.2 -7.55 -41.75 -8.7 -41.75 -9.15 -41.65 -9.35 -41.45 -9.55 -40.7 -9.4 -40.15 -9.3 -39.2 -8.9 -37.45 -8.6 -37.0 Q-8.25 -36.85 -7.4 -37.0 L-7.1 -37.1 Q-6.6 -37.2 -6.25 -37.55 -5.85 -37.95 -5.75 -38.75 L-5.75 -39.65 -5.9 -40.2 M-6.6 -43.75 L-5.8 -43.4 -4.6 -42.25 -4.15 -41.55 -3.8 -40.6 -3.6 -39.05 -3.65 -38.45 -3.75 -37.9 -3.9 -37.6 -4.0 -37.25 -4.5 -36.45 -5.05 -35.85 -5.65 -35.5 -6.1 -35.3 Q-6.55 -35.1 -8.15 -34.8 L-9.35 -34.6 -9.7 -34.5 -10.25 -34.5 -10.65 -34.8 -10.7 -35.25 -12.15 -42.55 Q-12.3 -43.1 -12.0 -43.3 L-8.9 -43.95 -8.65 -43.95 -8.5 -44.0 -7.95 -44.0 -7.75 -43.95 -7.45 -43.95 -6.6 -43.75 M5.2 -44.7 L5.5 -44.55 5.65 -44.1 5.65 -43.65 5.6 -43.3 5.6 -42.55 5.55 -42.25 5.45 -39.3 5.4 -38.9 5.4 -38.65 5.35 -38.1 5.2 -37.4 4.9 -36.75 4.4 -36.25 Q4.0 -36.0 3.6 -35.8 L2.95 -35.65 1.9 -35.55 1.3 -35.6 -0.45 -35.9 -0.8 -36.1 -1.5 -36.65 -1.8 -37.1 -2.05 -37.65 -2.1 -38.1 -2.2 -39.05 -2.2 -39.9 -2.15 -40.2 -2.15 -40.85 -2.1 -41.3 -2.1 -41.65 -2.05 -42.1 -2.0 -44.45 -1.9 -44.75 -1.5 -45.0 -1.0 -44.9 0.1 -44.85 0.35 -44.5 0.3 -44.3 0.1 -40.1 0.05 -39.85 0.1 -39.5 0.1 -39.35 0.25 -38.35 0.7 -37.85 Q1.1 -37.6 1.65 -37.6 L2.15 -37.65 2.85 -38.05 3.15 -38.75 3.2 -40.1 3.25 -40.35 3.4 -44.15 3.55 -44.6 4.0 -44.75 4.15 -44.75 4.2 -44.7 5.2 -44.7 M15.15 -42.1 L15.3 -41.55 15.15 -41.15 15.0 -40.5 Q14.9 -40.2 14.55 -40.25 L12.95 -41.0 12.55 -41.1 12.25 -41.25 11.1 -41.3 10.7 -41.2 9.9 -40.75 9.55 -40.3 9.2 -39.35 9.15 -39.2 9.15 -38.35 9.25 -38.0 9.55 -37.4 10.15 -36.75 10.65 -36.35 11.35 -36.1 12.05 -36.25 12.25 -36.75 12.35 -37.25 12.25 -37.6 11.65 -37.85 11.5 -38.25 11.75 -39.0 11.8 -39.3 Q11.95 -39.85 12.35 -39.7 L14.2 -39.2 14.7 -38.65 14.1 -36.15 14.0 -35.85 13.95 -35.55 13.8 -35.3 13.75 -35.0 13.5 -34.15 13.3 -33.7 12.7 -33.5 11.25 -33.9 10.8 -33.95 10.8 -34.0 9.9 -34.35 8.65 -35.15 7.5 -36.5 7.1 -37.55 6.95 -38.6 6.95 -39.2 7.1 -40.0 7.15 -40.55 7.5 -41.3 Q7.6 -41.7 8.05 -42.15 L8.7 -42.7 Q9.4 -43.25 9.9 -43.25 L11.0 -43.45 12.1 -43.25 12.65 -43.15 12.9 -43.05 14.05 -42.75 15.15 -42.1 M33.2 -27.25 L33.0 -27.35 32.65 -27.4 32.3 -27.2 30.75 -25.95 30.6 -25.5 31.0 -25.05 31.25 -24.85 31.45 -24.75 31.65 -24.75 31.9 -24.7 32.5 -24.75 Q32.95 -24.75 33.4 -25.15 34.0 -25.6 33.75 -26.3 L33.5 -26.75 33.2 -27.25 M26.7 -25.5 L27.15 -25.8 28.35 -26.8 29.0 -27.3 32.45 -30.05 33.45 -30.15 33.6 -29.85 33.85 -29.6 34.75 -28.45 35.1 -28.1 35.85 -26.8 36.0 -26.15 36.0 -25.45 35.85 -24.8 35.25 -23.9 35.0 -23.75 34.65 -23.4 33.4 -22.8 32.45 -22.8 31.6 -22.75 Q31.45 -22.65 31.45 -22.35 31.45 -21.7 31.6 -21.55 L31.65 -21.3 31.5 -20.9 31.25 -20.75 31.0 -20.5 30.55 -20.2 30.35 -20.0 29.85 -19.95 29.65 -20.15 Q29.3 -20.6 29.3 -21.4 L29.4 -22.5 29.4 -23.4 29.15 -24.05 29.0 -24.15 28.65 -24.15 28.15 -23.85 27.6 -23.3 Q27.35 -23.05 27.1 -23.3 L26.8 -23.8 26.65 -24.0 26.15 -24.55 Q25.95 -24.85 26.25 -25.15 L26.5 -25.3 26.7 -25.5 M27.95 -35.15 L28.55 -34.7 29.35 -33.95 31.05 -32.5 Q31.4 -32.2 31.15 -31.9 L30.85 -31.6 30.5 -31.1 Q30.4 -31.0 30.15 -30.95 L29.95 -30.95 29.65 -31.1 29.4 -31.4 28.9 -31.75 28.35 -32.35 27.2 -32.45 Q26.65 -31.8 26.95 -31.5 L28.25 -30.3 28.7 -29.95 28.95 -29.7 28.85 -29.25 28.25 -28.6 28.05 -28.45 Q27.75 -28.15 27.35 -28.45 L26.35 -29.3 26.1 -29.6 25.75 -29.8 25.7 -29.9 25.45 -30.0 24.9 -29.75 24.45 -29.0 Q24.4 -28.7 24.95 -28.25 L25.4 -27.9 25.7 -27.6 26.45 -27.0 26.7 -26.45 26.4 -26.0 26.35 -25.9 25.95 -25.35 25.35 -25.3 25.2 -25.45 25.0 -25.6 23.15 -27.15 22.75 -27.55 22.3 -27.9 22.0 -28.2 21.65 -28.45 21.45 -28.8 21.6 -29.3 22.15 -29.9 23.15 -31.15 23.4 -31.4 24.05 -32.2 24.65 -32.85 24.8 -33.05 25.05 -33.3 26.6 -35.15 27.0 -35.55 27.6 -35.5 27.95 -35.15 M21.75 -39.35 L22.25 -39.1 22.45 -38.95 22.9 -38.75 23.5 -38.4 24.45 -37.5 24.4 -36.95 24.2 -36.55 24.1 -36.4 23.9 -35.95 Q23.75 -35.65 23.45 -35.85 L22.3 -36.7 22.05 -36.95 21.65 -37.15 21.35 -37.35 20.55 -37.6 20.3 -37.65 19.9 -37.65 19.0 -37.4 18.55 -37.05 18.0 -36.2 17.95 -36.1 17.85 -35.7 17.8 -35.6 17.7 -35.25 17.9 -34.25 Q18.05 -33.6 18.7 -32.95 L19.35 -32.55 20.05 -32.5 20.35 -32.95 20.55 -33.4 20.55 -33.75 20.05 -34.15 Q19.85 -34.35 20.0 -34.6 L20.55 -35.55 20.85 -35.85 21.1 -35.8 22.8 -34.9 23.2 -34.25 21.85 -31.65 21.55 -31.2 21.45 -30.9 20.65 -29.75 20.05 -29.7 18.3 -30.6 17.55 -31.15 16.8 -31.95 16.5 -32.25 15.7 -33.8 15.55 -34.9 15.6 -35.95 15.8 -36.55 15.9 -36.95 16.1 -37.3 16.3 -37.8 16.8 -38.5 17.5 -39.2 18.3 -39.6 19.6 -39.85 20.7 -39.75 21.75 -39.35 M39.15 -22.0 L38.95 -21.55 37.3 -19.45 37.05 -18.9 37.3 -18.8 38.25 -18.85 38.5 -18.9 38.9 -18.9 39.3 -18.95 40.6 -19.0 40.9 -18.65 41.0 -18.5 41.35 -17.75 41.6 -17.35 41.65 -16.9 41.05 -16.8 39.7 -16.75 37.85 -16.75 37.25 -16.7 36.95 -16.75 36.7 -16.7 36.05 -16.7 34.75 -16.5 33.95 -16.15 33.05 -15.6 32.75 -15.45 Q32.3 -15.25 32.15 -15.55 L32.05 -15.85 31.75 -16.45 31.45 -16.9 Q31.35 -17.2 31.7 -17.55 L32.05 -17.65 32.35 -17.85 32.85 -18.05 33.25 -18.3 33.9 -18.65 34.15 -18.85 35.2 -20.15 36.35 -21.8 36.55 -22.0 37.6 -23.45 37.65 -23.55 37.95 -23.85 Q38.25 -23.95 38.35 -23.65 L38.4 -23.55 38.45 -23.4 39.05 -22.3 39.15 -22.0" fill="#fbd248" fill-rule="evenodd" stroke="none"/>
    <path d="M7.15 35.95 Q7.05 35.6 6.75 35.6 L6.65 35.65 5.4 35.9 Q5.2 35.95 5.1 36.1 L5.1 36.35 5.25 37.15 5.35 37.45 5.45 38.1 5.65 38.8 5.7 39.25 5.85 39.75 6.1 41.2 6.6 43.65 Q6.6 44.15 7.1 44.15 L7.2 44.15 7.7 44.0 8.2 43.95 8.5 43.85 9.2 43.7 11.0 43.35 Q11.55 43.3 11.45 42.85 L11.3 42.35 11.2 41.7 10.9 41.4 10.75 41.4 10.4 41.5 8.7 41.8 8.65 41.8 8.25 41.35 8.0 40.5 7.65 38.5 7.55 38.2 7.3 36.8 7.2 36.45 7.15 35.95 M1.7 37.45 L1.7 36.65 Q1.7 36.2 1.3 36.2 L1.25 36.2 1.0 36.25 -0.05 36.3 Q-0.4 36.3 -0.4 36.7 L-0.35 37.15 -0.35 37.5 -0.3 37.85 -0.3 38.5 -0.2 39.2 -0.15 41.3 -0.05 42.2 0.0 44.15 Q0.0 44.75 0.5 44.75 L0.55 44.75 1.05 44.65 2.15 44.65 2.55 44.6 4.4 44.55 Q4.9 44.5 4.9 44.05 L4.85 42.9 Q4.85 42.55 4.5 42.55 L4.1 42.6 4.0 42.6 3.65 42.55 2.8 42.65 2.3 42.65 Q2.0 42.55 1.95 42.1 L1.85 41.25 1.8 39.2 1.75 38.9 1.75 38.15 1.75 37.8 1.7 37.45 M18.6 34.7 L18.3 34.7 17.95 34.85 17.9 34.9 17.8 34.95 17.75 35.05 17.6 35.25 17.6 35.4 17.55 35.75 17.55 35.8 17.65 36.0 17.7 36.2 17.7 36.3 17.9 36.6 17.95 36.7 18.4 37.1 18.75 37.25 18.85 37.25 19.0 37.2 19.1 37.2 19.15 37.15 19.3 37.1 19.35 37.05 19.4 37.05 19.5 37.0 19.7 36.7 19.75 36.3 19.75 36.2 19.6 35.6 19.5 35.5 19.35 35.15 19.05 34.85 19.0 34.85 18.6 34.7 M12.15 34.2 L11.9 34.25 11.05 34.55 10.85 34.6 Q10.55 34.75 10.7 35.2 L11.0 36.0 11.1 36.4 12.15 39.65 12.3 39.9 12.35 40.1 12.95 41.85 13.0 42.2 13.1 42.45 13.45 42.6 13.55 42.6 14.85 42.15 15.1 41.7 12.65 34.55 12.4 34.25 12.25 34.15 12.15 34.2 M17.25 34.1 L17.5 33.95 18.05 33.7 18.8 33.7 19.55 34.0 19.9 34.25 20.1 34.5 20.5 35.15 20.65 35.55 20.8 36.25 20.6 37.1 20.1 37.8 19.6 38.05 19.3 38.15 19.2 38.2 19.05 38.2 18.85 38.25 18.8 38.25 Q18.2 38.2 17.85 37.95 L17.35 37.5 17.05 37.15 16.85 36.75 16.8 36.7 16.55 35.85 16.6 35.15 16.9 34.55 17.25 34.1 M15.8 32.7 L15.05 33.65 14.75 34.55 14.65 35.4 14.65 35.7 14.65 36.25 14.9 37.15 Q14.9 37.4 15.05 37.55 L15.65 38.65 16.25 39.25 16.5 39.45 17.1 39.8 18.3 40.15 18.7 40.2 18.75 40.25 19.4 40.15 20.2 39.95 21.15 39.45 21.3 39.3 21.55 39.1 22.05 38.55 22.15 38.35 22.4 38.05 22.75 37.0 22.75 36.0 22.6 35.15 22.35 34.4 21.55 33.15 21.25 32.8 20.8 32.5 20.6 32.3 20.15 32.05 19.95 32.0 19.65 31.85 18.85 31.65 18.8 31.65 17.9 31.7 17.3 31.85 16.65 32.1 15.8 32.7 M25.6 25.9 L25.25 26.25 25.1 26.35 24.95 26.5 24.45 26.9 Q24.3 27.05 24.5 27.25 L26.5 29.6 26.85 30.05 27.1 30.5 27.05 30.5 26.8 30.45 25.2 29.85 24.6 29.65 24.0 29.4 23.75 29.35 22.35 28.95 22.05 28.95 21.45 29.3 21.2 29.55 21.15 29.55 21.1 29.65 21.05 29.7 20.95 29.75 20.9 29.8 20.7 29.95 20.6 30.25 21.05 30.7 21.25 31.0 21.45 31.2 24.6 35.0 24.85 35.25 25.65 36.3 25.9 36.45 25.95 36.45 26.25 36.3 27.0 35.55 27.2 35.4 Q27.4 35.2 27.2 34.9 L26.9 34.65 26.8 34.55 25.95 33.55 25.8 33.4 25.65 33.2 25.45 33.0 25.3 32.75 25.05 32.5 24.7 32.0 24.65 31.7 24.9 31.65 25.1 31.7 26.3 32.2 29.7 33.3 30.0 33.2 30.2 33.0 30.55 32.75 30.7 32.55 30.85 32.45 Q31.15 32.25 30.95 31.85 L30.1 31.0 30.0 30.8 29.9 30.7 27.75 28.1 27.55 27.85 26.1 26.05 25.75 25.85 25.6 25.9 M-16.75 39.0 L-16.5 38.3 Q-16.8 38.5 -17.0 38.5 L-16.75 39.0 M-4.2 38.6 L-4.15 39.05 -4.1 39.25 -3.95 40.8 -3.95 40.95 -4.25 41.25 -4.5 41.25 -4.8 41.2 Q-5.5 41.1 -5.5 40.55 L-5.1 39.4 -5.05 39.15 -4.7 38.4 -4.5 38.3 -4.45 38.3 Q-4.25 38.3 -4.2 38.6 M-7.0 39.1 L-7.1 39.3 -7.45 40.2 -7.95 41.7 -8.05 42.2 -8.25 42.65 -8.35 43.1 -8.45 43.3 -8.5 43.55 Q-8.6 43.85 -8.35 43.95 L-8.0 44.05 -7.65 44.05 -7.1 44.15 -6.85 44.15 -6.65 44.1 -6.5 43.85 -6.15 43.15 -5.6 43.0 -5.25 43.0 -4.15 43.2 Q-3.95 43.3 -3.85 43.55 L-3.8 43.7 -3.75 44.05 -3.5 44.5 -2.8 44.65 -1.9 44.7 -1.6 44.55 -1.6 44.2 -1.8 43.0 -1.8 42.75 -1.95 41.9 -1.95 41.55 -2.05 40.85 -2.05 40.5 -2.15 39.9 -2.15 39.45 -2.25 38.8 -2.3 38.6 -2.3 38.4 -2.45 37.5 -2.5 37.0 -2.8 36.35 Q-3.1 36.05 -3.6 36.05 L-4.9 35.95 -5.15 35.9 -5.35 35.9 Q-6.0 35.9 -6.3 37.05 L-6.4 37.35 -6.55 37.65 -7.0 39.1 M-11.25 38.05 L-11.35 37.95 -11.35 37.9 -11.55 37.6 -12.05 37.4 -12.1 37.6 -12.1 37.7 -12.3 38.15 -12.4 38.55 -12.45 38.6 -12.8 39.8 -12.5 39.9 -12.35 39.9 -12.2 39.95 -11.85 39.9 Q-11.45 39.8 -11.25 39.1 L-11.2 38.8 -11.15 38.65 -11.15 38.4 -11.25 38.05 M-9.25 35.65 L-9.4 35.55 -9.5 35.4 -9.7 35.3 -9.8 35.15 -10.65 34.65 -11.2 34.5 -11.45 34.4 -12.15 34.25 -12.45 34.1 -12.75 34.0 -13.8 33.75 Q-14.15 33.75 -14.25 34.3 L-14.45 35.1 -14.65 35.6 -15.3 37.6 -15.4 38.15 -16.4 41.25 Q-16.5 41.65 -15.75 41.85 L-14.4 42.3 -14.35 42.35 -12.5 42.8 -11.4 42.8 -10.65 42.55 -9.9 42.1 -9.65 41.9 -9.25 41.5 -9.1 41.3 -8.5 40.2 -8.15 38.55 -8.25 37.75 Q-8.35 36.55 -9.25 35.65 M-10.85 36.9 L-10.55 37.35 -10.25 37.8 -10.25 38.0 -10.15 38.3 -10.15 38.55 -10.3 39.4 -10.7 40.15 Q-11.15 40.75 -11.65 40.9 L-12.2 40.95 -12.8 40.85 Q-14.0 40.5 -13.8 39.8 L-13.4 38.25 -12.9 36.9 -12.45 36.35 -12.3 36.3 -12.2 36.3 -11.8 36.4 -10.85 36.9 M-22.85 37.85 L-22.9 38.3 -22.65 38.6 -22.3 38.75 -19.55 40.25 -18.85 40.55 -18.7 40.65 -18.45 40.75 -18.15 40.5 -18.0 40.25 -17.9 39.9 -17.85 39.85 -17.7 39.35 -18.05 38.9 -18.85 38.55 -19.65 38.1 -20.25 37.5 -20.0 36.75 Q-19.8 36.4 -19.6 36.4 L-19.55 36.4 -19.3 36.5 -19.25 36.5 -18.9 36.65 -18.6 36.9 -18.35 37.0 -17.55 37.45 -17.25 37.5 Q-17.05 37.5 -16.85 37.3 L-16.75 37.1 -16.3 36.4 -16.25 36.15 -16.35 36.0 -16.65 35.8 -18.5 34.8 Q-18.8 34.55 -18.45 33.85 L-18.05 33.5 -17.4 33.75 -17.15 33.9 -16.9 34.1 -16.75 34.15 -15.95 34.55 -15.7 34.65 -15.6 34.65 -15.5 34.6 -15.25 34.4 -14.8 33.55 Q-14.65 33.2 -15.0 33.0 L-16.45 32.25 -16.85 32.1 -17.2 31.85 -17.7 31.55 -18.75 31.05 -18.95 31.0 -19.25 31.1 -19.55 31.55 -20.4 33.1 -20.75 33.85 -20.85 34.0 -22.85 37.85 M-27.45 27.2 L-28.2 28.1 -28.45 28.35 -28.6 28.6 -29.25 29.3 -29.5 29.65 -31.2 31.65 -31.3 31.9 -31.1 32.3 -30.45 32.8 -30.25 33.0 -30.0 33.1 -29.75 33.0 -28.85 31.85 -27.7 30.55 -27.3 30.25 -27.05 30.35 Q-26.95 30.4 -27.0 31.05 L-27.0 31.25 -26.95 31.45 -27.0 32.4 -26.95 32.8 -26.85 32.9 -26.6 33.05 -26.2 32.95 -24.9 32.75 -24.6 32.85 Q-24.4 32.95 -24.55 33.1 L-26.0 34.9 -26.4 35.3 -26.55 35.55 Q-26.8 35.8 -26.6 36.0 L-26.35 36.15 -25.7 36.75 -25.25 36.95 Q-25.05 36.95 -25.0 36.8 L-24.9 36.7 -24.75 36.5 -24.4 36.0 -21.65 32.7 -20.05 30.9 Q-19.8 30.65 -20.15 30.35 L-20.3 30.2 -20.6 30.0 -21.05 29.6 -21.35 29.5 -21.4 29.5 -21.6 29.55 -22.85 30.1 -24.8 30.7 -25.0 30.65 -25.05 30.0 -25.0 28.35 -24.85 27.35 Q-24.75 26.55 -25.0 26.3 L-25.65 25.8 -25.7 25.8 -25.7 25.75 -25.75 25.7 -25.95 25.6 -26.1 25.6 -26.35 25.75 -27.45 27.2 M-28.25 26.6 L-28.2 26.5 -28.05 26.35 -27.15 25.1 Q-26.65 24.6 -26.1 24.6 L-25.85 24.6 Q-25.45 24.65 -25.15 24.9 L-25.05 24.95 -24.75 25.25 -24.65 25.3 -24.4 25.5 -24.35 25.5 Q-23.9 25.9 -23.8 26.4 L-23.85 27.45 -24.0 28.45 -24.0 29.15 -24.05 29.15 -24.05 29.45 -23.9 29.4 -23.8 29.35 -23.5 29.25 -23.45 29.25 -22.75 29.0 -22.6 28.9 -22.05 28.65 -22.0 28.65 -21.95 28.6 -21.9 28.6 -21.65 28.5 -21.35 28.5 Q-20.75 28.5 -20.4 28.85 L-19.95 29.25 -19.9 29.25 -19.7 29.4 -19.45 29.65 -19.15 30.0 -18.95 30.0 -18.3 30.15 -18.0 30.3 -17.85 30.4 -16.95 30.85 -16.75 31.0 -16.4 31.2 -16.0 31.35 -15.85 31.45 -15.6 31.55 -14.95 31.95 -14.8 32.0 -14.5 32.15 -13.9 32.75 -13.8 32.75 -12.45 33.05 -12.15 33.15 -12.05 33.2 -12.0 33.2 -11.85 33.3 -11.15 33.45 -11.0 33.5 -10.9 33.55 -10.75 33.6 -10.5 33.65 -10.5 33.7 -10.35 33.7 -9.6 34.1 -9.55 34.15 -9.5 34.15 -9.2 34.35 -9.05 34.5 -9.05 34.55 -8.9 34.65 -8.85 34.65 -8.85 34.7 -8.7 34.8 -8.6 34.85 -8.6 34.9 -8.55 34.95 -8.1 35.55 Q-7.55 36.25 -7.35 37.05 L-7.35 37.0 -7.3 36.95 -7.3 36.8 Q-6.8 34.9 -5.35 34.9 L-5.05 34.9 -3.7 35.05 -3.6 35.05 Q-2.7 35.05 -2.1 35.65 -1.65 36.05 -1.55 36.85 L-1.45 37.35 -1.4 37.5 -1.35 37.8 -1.35 37.85 -1.3 38.3 -1.3 37.9 -1.35 37.55 -1.35 37.05 -1.4 36.75 Q-1.4 36.15 -1.0 35.7 -0.6 35.3 -0.1 35.3 L1.0 35.25 1.2 35.2 1.3 35.2 Q1.85 35.2 2.25 35.6 2.65 36.0 2.7 36.6 L2.7 37.75 2.75 37.8 2.7 37.85 2.75 38.1 2.75 38.8 2.8 38.95 2.9 41.65 3.0 41.65 3.1 41.6 3.6 41.6 3.65 41.55 3.85 41.6 4.0 41.6 4.15 41.55 4.5 41.55 5.2 41.7 4.85 40.0 4.85 39.95 4.45 38.05 4.45 37.95 4.4 37.9 4.25 37.15 4.25 37.0 4.1 36.55 Q4.1 35.8 4.35 35.5 4.65 35.05 5.2 34.95 L5.9 34.8 6.05 34.75 6.15 34.75 6.2 34.7 6.25 34.7 6.75 34.6 Q7.9 34.6 8.15 35.75 L8.15 36.1 8.2 36.25 8.2 36.4 8.25 36.5 8.25 36.6 8.3 36.8 8.3 36.95 8.35 37.0 8.35 37.05 8.5 37.95 8.6 38.25 9.1 40.75 9.15 40.7 9.3 40.7 10.2 40.5 10.3 40.5 10.55 40.4 10.9 40.4 11.4 40.5 11.4 40.4 11.35 40.25 11.2 39.95 10.85 38.7 10.65 38.25 10.35 37.2 10.15 36.7 10.1 36.4 10.05 36.3 9.75 35.55 Q9.6 35.0 9.75 34.5 9.9 33.95 10.4 33.7 L10.45 33.7 10.5 33.65 10.7 33.6 10.75 33.6 10.95 33.55 11.1 33.45 11.4 33.4 11.55 33.35 11.65 33.3 11.8 33.25 12.25 33.15 Q12.7 33.15 12.95 33.4 L13.6 34.2 13.7 34.4 13.7 34.55 13.75 34.4 13.75 34.35 13.8 34.3 13.8 34.25 13.85 33.9 14.15 33.25 14.65 32.5 14.85 32.3 14.85 32.25 14.9 32.2 15.1 31.95 16.2 31.2 17.75 30.7 17.85 30.7 18.9 30.65 18.95 30.65 19.8 30.85 19.7 30.65 Q19.35 29.7 20.05 29.15 L20.25 29.0 20.3 29.0 20.45 28.85 20.55 28.8 20.7 28.65 21.4 28.15 21.7 28.0 22.25 27.95 22.5 27.95 23.85 28.35 24.05 28.4 24.15 28.45 24.2 28.45 24.05 28.25 23.7 27.9 Q23.15 27.2 23.6 26.4 L24.0 25.95 24.05 25.9 24.65 25.45 24.65 25.4 24.75 25.35 24.95 25.15 Q25.35 24.85 25.75 24.85 26.45 24.85 26.9 25.4 L27.1 25.7 27.25 25.85 27.35 26.05 27.6 26.3 29.1 28.2 29.35 28.45 30.65 30.05 30.75 30.2 30.85 30.3 30.85 30.35 30.95 30.4 31.1 30.6 31.7 31.25 Q32.6 32.3 31.5 33.25 L31.3 33.35 31.3 33.4 30.95 33.65 30.65 33.95 29.7 34.3 28.85 34.05 28.6 33.95 28.5 33.95 27.7 33.65 27.25 33.5 27.65 33.95 27.7 34.05 27.95 34.25 Q28.6 35.05 28.05 35.95 L26.9 37.05 26.05 37.4 25.95 37.45 25.9 37.45 Q25.3 37.45 24.9 36.9 L24.85 36.9 24.85 36.85 24.6 36.55 24.5 36.45 24.25 36.15 24.1 35.9 23.85 35.65 23.7 35.45 23.75 35.9 23.7 37.15 23.25 38.55 22.2 39.9 22.0 40.0 21.9 40.1 21.9 40.15 21.85 40.15 21.75 40.25 20.5 40.9 19.85 41.1 19.45 41.15 19.3 41.15 19.2 41.2 18.75 41.25 18.6 41.2 18.25 41.15 18.15 41.15 16.7 40.7 16.0 40.3 15.95 40.3 15.85 40.2 15.65 40.1 15.55 40.0 15.55 40.05 15.9 41.1 16.05 41.4 Q16.25 41.9 16.0 42.4 L15.2 43.1 14.95 43.15 14.9 43.2 14.7 43.25 14.45 43.35 14.2 43.4 14.15 43.45 14.1 43.45 13.9 43.55 13.45 43.6 Q12.75 43.6 12.45 43.2 12.3 44.1 11.2 44.35 L10.4 44.5 10.1 44.6 9.4 44.7 9.25 44.75 9.0 44.8 8.85 44.8 8.75 44.85 8.65 44.85 8.45 44.9 8.1 44.95 7.4 45.15 7.1 45.15 Q6.25 45.15 5.85 44.5 L5.55 45.05 Q5.2 45.5 4.45 45.55 L3.65 45.55 3.35 45.6 2.45 45.6 2.2 45.65 1.1 45.65 0.95 45.7 0.6 45.75 0.5 45.75 Q-0.3 45.75 -0.75 45.05 -1.1 45.7 -1.9 45.7 L-2.5 45.7 -2.95 45.65 -4.05 45.35 Q-4.55 45.05 -4.7 44.25 L-4.75 44.05 -4.95 44.05 -5.3 44.0 -5.5 44.0 -5.5 44.05 Q-5.6 44.6 -6.05 44.85 L-6.85 45.15 -7.2 45.15 -7.75 45.05 -8.15 45.05 -8.95 44.75 Q-9.6 44.3 -9.5 43.45 L-9.4 42.95 -10.2 43.45 -10.25 43.45 Q-10.75 43.75 -11.2 43.75 L-11.3 43.75 -11.65 43.8 -12.55 43.8 -14.7 43.25 -15.25 43.1 -15.7 42.9 -16.05 42.8 Q-16.9 42.65 -17.25 41.95 L-17.4 41.15 Q-17.8 41.75 -18.45 41.75 -18.9 41.75 -19.15 41.55 L-19.25 41.5 -19.3 41.5 -19.4 41.4 -19.45 41.4 -19.5 41.35 -20.15 41.05 -20.3 40.95 -20.35 40.95 -20.5 40.85 -21.05 40.55 -21.55 40.35 -21.9 40.1 -23.1 39.45 -23.85 38.65 Q-24.1 38.0 -23.75 37.35 L-23.65 37.2 -23.6 37.05 -23.5 36.95 -23.3 36.5 -23.2 36.35 -23.15 36.2 -23.7 36.75 -23.95 37.15 -24.15 37.35 -24.2 37.45 Q-24.7 37.95 -25.25 37.95 -25.85 37.95 -26.3 37.5 L-26.6 37.3 -26.75 37.15 -27.0 36.95 -27.2 36.75 Q-27.6 36.45 -27.65 35.95 -27.75 35.4 -27.35 34.95 L-27.3 34.85 -27.15 34.65 -26.95 34.45 -26.8 34.25 -26.65 34.1 -26.65 34.05 Q-27.2 34.0 -27.5 33.7 L-27.85 33.15 -28.0 32.4 -28.05 32.45 -28.75 33.35 -28.85 33.45 -28.95 33.6 Q-29.35 34.1 -30.0 34.1 -30.55 34.1 -30.9 33.75 L-31.35 33.35 -31.75 33.05 Q-32.45 32.5 -32.3 31.7 L-32.25 31.65 -32.25 31.6 -31.95 31.0 -31.5 30.45 -31.4 30.3 -30.75 29.6 -30.0 28.65 -29.9 28.5 -29.5 28.05 -29.35 27.9 -29.1 27.55 -28.95 27.45 -28.85 27.3 -28.6 27.05 -28.55 26.95 -28.4 26.75 -28.25 26.6 M-35.0 -18.65 L-35.45 -18.6 -36.05 -18.4 -36.85 -18.1 -36.95 -18.0 -37.15 -17.95 -37.95 -17.5 -38.3 -17.45 -38.6 -17.5 Q-38.9 -17.65 -38.9 -17.95 L-38.85 -18.4 -38.4 -19.2 -38.25 -19.35 -38.2 -19.75 -38.45 -20.0 -38.8 -20.15 -39.0 -20.3 -39.3 -20.4 -39.55 -20.55 -39.65 -20.55 -39.95 -20.35 -40.65 -19.25 -41.0 -18.25 Q-41.25 -17.5 -41.0 -16.85 L-40.45 -15.95 -39.7 -15.5 -38.8 -15.25 -38.45 -15.2 -38.0 -15.25 -37.5 -15.4 -36.45 -15.85 -36.1 -16.1 -35.75 -16.25 -35.25 -16.4 -35.2 -16.4 -34.85 -16.3 Q-34.45 -16.1 -34.45 -15.75 L-34.55 -15.35 -34.8 -14.8 -34.95 -14.65 -35.25 -14.2 Q-35.5 -13.65 -35.25 -13.5 L-34.95 -13.4 -34.5 -13.15 -34.2 -13.05 -33.85 -12.85 -33.75 -12.85 -33.5 -12.95 -33.0 -13.6 -32.65 -14.2 -32.6 -14.4 -32.3 -15.1 -32.25 -16.2 -32.5 -17.05 -32.75 -17.45 -33.15 -17.95 -33.8 -18.35 -35.0 -18.65 M-34.6 -28.65 L-34.85 -28.45 -34.95 -28.25 -35.3 -27.85 -35.5 -27.45 -35.75 -27.25 -35.85 -26.65 -35.25 -24.85 -34.8 -23.35 -34.85 -23.15 -35.0 -23.1 -35.15 -23.15 -35.35 -23.25 -35.95 -23.7 -36.4 -23.95 -36.95 -24.35 -37.1 -24.5 -37.3 -24.55 -37.4 -24.55 -37.7 -24.4 -38.05 -23.8 -38.2 -23.6 -38.3 -23.4 -38.4 -23.3 -38.5 -23.15 Q-38.7 -22.9 -38.35 -22.65 L-34.9 -20.3 -34.6 -20.05 -34.5 -19.95 -34.1 -19.7 -33.9 -19.6 -33.65 -19.35 -31.55 -17.9 -31.45 -17.85 -31.3 -17.8 -31.15 -17.8 -31.0 -17.9 -30.85 -18.2 -30.65 -18.45 -30.4 -18.85 -30.25 -19.0 -30.15 -19.25 Q-29.95 -19.55 -30.35 -19.8 L-30.55 -19.9 -32.35 -21.15 Q-32.75 -21.35 -32.6 -21.7 L-32.1 -21.85 -31.95 -21.85 -30.5 -21.7 -30.25 -21.65 -30.15 -21.65 -30.0 -21.6 -29.85 -21.6 -29.45 -21.5 -28.7 -21.45 -28.65 -21.45 -28.45 -21.6 -27.4 -23.1 -27.35 -23.4 -27.45 -23.5 -28.0 -23.6 -32.3 -24.15 -32.7 -24.3 -33.05 -24.8 -33.55 -26.15 -33.75 -26.9 -34.05 -27.8 -34.15 -28.1 -34.4 -28.55 -34.6 -28.65 M-27.7 -35.4 L-27.95 -35.25 -28.55 -34.65 -28.6 -34.65 -28.6 -34.6 -28.65 -34.6 -28.85 -34.4 -29.05 -34.0 -28.8 -33.6 -27.9 -32.55 -27.2 -31.95 -26.9 -31.5 -26.25 -30.8 -25.9 -30.35 -25.6 -30.1 -25.2 -29.6 -24.9 -28.9 Q-24.85 -28.5 -25.1 -28.1 L-25.4 -27.7 -26.25 -27.2 -26.5 -27.2 -26.95 -27.25 -27.75 -27.85 -27.9 -28.0 -28.15 -28.2 -28.3 -28.4 -29.45 -29.65 -29.85 -30.15 -30.45 -30.7 -31.15 -31.5 -31.25 -31.7 -31.5 -31.8 -31.65 -31.75 -32.15 -31.35 -32.5 -31.0 -32.9 -30.7 -33.0 -30.25 -32.85 -30.0 -29.95 -26.9 -29.5 -26.35 -28.45 -25.4 -28.05 -25.15 -27.0 -24.8 -26.75 -24.8 -25.7 -25.05 Q-25.2 -25.2 -24.25 -26.05 L-23.8 -26.45 -23.1 -27.25 -22.8 -27.85 -22.55 -28.7 -22.55 -29.4 -22.75 -30.1 -23.15 -30.7 -24.8 -32.6 -25.35 -33.1 -27.2 -35.2 -27.6 -35.4 -27.7 -35.4 M-16.4 -32.35 L-16.75 -32.75 -17.1 -33.45 Q-17.1 -33.65 -17.4 -33.65 L-17.65 -33.6 -17.95 -33.35 -18.4 -33.1 -18.8 -32.8 -19.65 -32.35 -19.8 -32.35 -20.25 -32.65 -20.8 -33.45 -21.4 -34.6 -23.1 -37.3 -23.3 -37.75 -23.7 -38.0 -23.95 -37.9 -25.15 -37.15 Q-25.45 -37.0 -25.25 -36.6 L-22.1 -31.55 -21.85 -31.05 -21.05 -29.75 -20.55 -29.35 -20.25 -29.45 -16.65 -31.65 Q-16.2 -31.9 -16.4 -32.35 M-11.05 -34.55 L-11.3 -35.05 -11.5 -35.75 -11.85 -36.0 -12.05 -36.0 -12.4 -35.8 -12.9 -35.65 -13.7 -35.25 -14.25 -35.1 -14.3 -35.1 Q-14.6 -35.1 -14.75 -35.5 L-16.55 -39.8 -16.95 -41.0 -17.35 -41.3 -17.6 -41.25 -18.85 -40.7 Q-19.3 -40.55 -19.1 -40.2 L-17.2 -35.6 -17.0 -35.25 -16.05 -32.75 Q-15.8 -32.25 -15.5 -32.25 L-15.3 -32.3 -14.25 -32.75 -13.95 -32.9 -11.4 -33.9 Q-10.9 -34.15 -11.05 -34.55 M-8.55 -40.75 L-8.45 -40.5 -8.45 -40.35 -8.0 -37.95 -7.55 -38.0 -7.45 -38.0 -6.95 -38.3 Q-6.6 -38.55 -6.75 -39.45 L-6.8 -39.8 -6.85 -39.95 -7.0 -40.2 -7.0 -40.25 -7.3 -40.55 -7.4 -40.6 -7.5 -40.6 -7.85 -40.8 -8.0 -40.8 -8.55 -40.75 M-6.15 -40.8 L-5.9 -40.2 -5.75 -39.65 -5.75 -38.75 Q-5.85 -37.95 -6.25 -37.55 -6.6 -37.2 -7.1 -37.1 L-7.4 -37.0 -8.1 -36.95 Q-8.7 -36.95 -8.9 -37.45 L-9.3 -39.2 -9.4 -40.15 -9.55 -40.7 -9.35 -41.45 -9.15 -41.65 -8.7 -41.75 -8.0 -41.8 -7.55 -41.75 -6.5 -41.2 -6.4 -41.05 -6.15 -40.8 M-5.8 -43.4 L-6.6 -43.75 -7.45 -43.95 -7.75 -43.95 -7.95 -44.0 -8.5 -44.0 -8.65 -43.95 -8.9 -43.95 -12.0 -43.3 Q-12.3 -43.1 -12.15 -42.55 L-10.7 -35.25 -10.65 -34.8 Q-10.5 -34.45 -10.1 -34.45 L-9.7 -34.5 -9.35 -34.6 -8.15 -34.8 Q-6.55 -35.1 -6.1 -35.3 L-5.65 -35.5 -5.05 -35.85 -4.5 -36.45 -4.0 -37.25 -3.9 -37.6 -3.75 -37.9 -3.65 -38.45 -3.6 -39.05 -3.8 -40.6 -4.15 -41.55 -4.6 -42.25 -5.8 -43.4 M5.5 -44.55 L5.2 -44.7 4.2 -44.7 4.15 -44.75 3.85 -44.75 3.55 -44.6 3.4 -44.15 3.25 -40.35 3.2 -40.1 3.15 -38.75 2.85 -38.05 2.15 -37.65 1.7 -37.6 1.65 -37.6 Q1.1 -37.6 0.7 -37.85 L0.25 -38.35 0.1 -39.35 0.1 -39.5 0.05 -39.85 0.1 -40.1 0.3 -44.3 0.35 -44.5 0.1 -44.85 -0.8 -44.9 -1.0 -44.9 -1.5 -45.0 -1.55 -45.0 -1.9 -44.75 -2.0 -44.45 -2.05 -42.1 -2.1 -41.65 -2.1 -41.3 -2.15 -40.85 -2.15 -40.2 -2.2 -39.9 -2.2 -39.05 -2.1 -38.1 -2.05 -37.65 -1.8 -37.1 -1.5 -36.65 -0.8 -36.1 -0.45 -35.9 1.3 -35.6 1.85 -35.55 2.2 -35.55 3.6 -35.8 Q4.0 -36.0 4.4 -36.25 L4.9 -36.75 5.2 -37.4 5.35 -38.1 5.4 -38.65 5.4 -38.9 5.45 -39.3 5.55 -42.25 5.6 -42.55 5.6 -43.3 5.65 -43.65 5.65 -44.1 5.5 -44.55 M10.7 -40.15 L10.5 -39.95 10.4 -39.8 10.15 -39.15 10.15 -38.45 10.2 -38.4 10.4 -37.95 10.45 -37.9 10.55 -37.75 Q10.4 -38.1 10.55 -38.55 L10.8 -39.3 10.8 -39.35 10.85 -39.55 11.25 -40.3 11.15 -40.3 10.7 -40.15 M15.3 -41.55 L15.15 -42.1 14.05 -42.75 12.9 -43.05 12.65 -43.15 12.1 -43.25 11.0 -43.45 9.9 -43.25 Q9.4 -43.25 8.7 -42.7 L8.05 -42.15 Q7.6 -41.7 7.5 -41.3 L7.15 -40.55 7.1 -40.0 6.95 -39.2 6.95 -38.6 7.1 -37.55 7.5 -36.5 8.65 -35.15 9.9 -34.35 10.8 -34.0 10.8 -33.95 11.25 -33.9 12.7 -33.5 12.75 -33.5 13.3 -33.7 13.5 -34.15 13.75 -35.0 13.8 -35.3 13.95 -35.55 14.0 -35.85 14.1 -36.15 14.7 -38.65 14.2 -39.2 13.05 -39.45 12.35 -39.7 12.25 -39.7 Q11.95 -39.7 11.8 -39.3 L11.75 -39.0 11.5 -38.25 11.65 -37.85 12.25 -37.6 12.35 -37.25 12.25 -36.75 12.05 -36.25 Q11.9 -36.05 11.65 -36.05 L11.35 -36.1 10.65 -36.35 10.15 -36.75 9.55 -37.4 9.25 -38.0 9.15 -38.35 9.15 -39.2 9.2 -39.35 9.55 -40.3 9.9 -40.75 10.7 -41.2 11.1 -41.3 11.65 -41.3 12.25 -41.25 12.55 -41.1 12.95 -41.0 14.55 -40.25 14.7 -40.25 15.0 -40.5 15.15 -41.15 15.3 -41.55 M33.0 -27.35 L33.2 -27.25 33.5 -26.75 33.75 -26.3 Q34.0 -25.6 33.4 -25.15 32.95 -24.75 32.5 -24.75 L32.05 -24.65 31.9 -24.7 31.65 -24.75 31.45 -24.75 31.25 -24.85 31.0 -25.05 30.6 -25.5 30.75 -25.95 32.3 -27.2 32.65 -27.4 32.85 -27.4 33.0 -27.35 M32.8 -25.95 L32.75 -26.1 32.65 -26.2 32.45 -26.0 32.0 -25.7 32.05 -25.65 32.3 -25.7 32.75 -25.9 32.8 -25.95 M26.5 -25.3 L26.25 -25.15 Q25.95 -24.85 26.15 -24.55 L26.65 -24.0 27.1 -23.3 27.35 -23.2 27.6 -23.3 28.15 -23.85 28.65 -24.15 28.85 -24.2 29.0 -24.15 29.15 -24.05 29.4 -23.4 29.4 -22.5 29.3 -21.4 Q29.3 -20.6 29.65 -20.15 29.65 -19.9 30.1 -19.9 L30.35 -20.0 30.55 -20.2 31.0 -20.5 31.25 -20.75 31.5 -20.9 31.65 -21.3 31.6 -21.55 Q31.45 -21.7 31.45 -22.35 31.45 -22.65 31.6 -22.75 L31.85 -22.85 33.4 -22.8 34.65 -23.4 35.0 -23.75 35.25 -23.9 35.85 -24.8 36.0 -25.45 36.0 -26.15 35.85 -26.8 35.1 -28.1 33.85 -29.6 33.6 -29.85 33.45 -30.15 33.05 -30.35 32.45 -30.05 29.0 -27.3 28.35 -26.8 27.15 -25.8 26.7 -25.5 26.5 -25.3 M27.3 -35.6 L27.0 -35.55 26.6 -35.15 25.05 -33.3 24.8 -33.05 24.65 -32.85 24.05 -32.2 23.4 -31.4 23.15 -31.15 21.85 -29.55 21.6 -29.3 21.45 -28.8 21.65 -28.45 22.0 -28.2 22.3 -27.9 22.75 -27.55 24.1 -26.4 25.0 -25.6 25.2 -25.45 25.35 -25.3 25.65 -25.15 25.95 -25.35 26.35 -25.9 26.4 -26.0 26.7 -26.45 26.45 -27.0 25.7 -27.6 25.4 -27.9 24.95 -28.25 Q24.4 -28.7 24.45 -29.0 L24.9 -29.75 Q25.05 -30.05 25.35 -30.05 L25.7 -29.9 25.75 -29.8 26.1 -29.6 26.35 -29.3 27.35 -28.45 27.75 -28.3 Q27.9 -28.3 28.05 -28.45 L28.25 -28.6 28.85 -29.25 28.95 -29.7 28.7 -29.95 28.25 -30.3 26.95 -31.5 Q26.65 -31.8 27.2 -32.45 L27.65 -32.7 28.35 -32.35 28.9 -31.75 29.4 -31.4 29.65 -31.1 29.95 -30.95 30.15 -30.95 Q30.4 -31.0 30.5 -31.1 L30.85 -31.6 31.15 -31.9 Q31.4 -32.2 31.05 -32.5 L29.0 -34.25 28.55 -34.7 27.95 -35.15 27.6 -35.5 27.3 -35.6 M20.25 -36.65 L19.95 -36.65 19.65 -36.6 19.55 -36.6 19.5 -36.55 19.5 -36.5 19.4 -36.45 19.3 -36.35 18.9 -35.75 18.85 -35.6 18.8 -35.5 18.8 -35.4 18.7 -35.1 18.75 -35.05 18.85 -34.55 18.85 -34.5 18.9 -34.35 19.1 -35.1 19.5 -35.7 19.55 -35.8 19.55 -35.85 19.65 -36.05 20.25 -36.65 M21.35 -37.35 L21.65 -37.15 22.05 -36.95 22.3 -36.7 23.45 -35.85 23.6 -35.8 Q23.75 -35.8 23.9 -35.95 L24.1 -36.4 24.2 -36.55 24.4 -36.95 24.45 -37.5 23.5 -38.4 22.9 -38.75 22.45 -38.95 22.25 -39.1 21.75 -39.35 20.7 -39.75 19.6 -39.85 18.3 -39.6 17.5 -39.2 16.8 -38.5 16.3 -37.8 16.1 -37.3 15.9 -36.95 15.8 -36.55 15.6 -35.95 15.55 -34.9 15.7 -33.8 16.5 -32.25 16.8 -31.95 17.55 -31.15 18.3 -30.6 20.05 -29.7 20.25 -29.65 20.65 -29.75 21.45 -30.9 21.55 -31.2 21.85 -31.65 23.2 -34.25 22.8 -34.9 21.1 -35.8 20.95 -35.85 20.55 -35.55 20.0 -34.6 Q19.85 -34.35 20.05 -34.15 L20.55 -33.75 20.55 -33.4 20.35 -32.95 20.05 -32.5 19.75 -32.4 19.35 -32.55 18.7 -32.95 Q18.05 -33.6 17.9 -34.25 L17.7 -35.25 17.8 -35.6 17.85 -35.7 17.95 -36.1 18.0 -36.2 18.55 -37.05 19.0 -37.4 19.9 -37.65 20.3 -37.65 20.55 -37.6 21.35 -37.35 M29.2 -35.45 L29.45 -35.2 30.35 -34.45 30.5 -34.3 30.7 -34.15 31.7 -33.3 32.25 -32.3 Q32.3 -31.75 31.9 -31.25 L31.6 -30.95 31.25 -30.45 30.4 -30.0 30.05 -29.95 29.9 -29.95 29.95 -29.35 30.2 -29.5 31.4 -30.45 31.8 -30.85 33.05 -31.35 Q33.75 -31.35 34.2 -30.75 L34.35 -30.55 34.65 -30.25 34.95 -29.8 35.4 -29.3 36.4 -27.95 36.75 -27.2 36.8 -27.05 36.8 -26.95 36.95 -26.55 37.0 -26.3 37.0 -25.25 36.95 -25.15 36.9 -24.85 36.8 -24.55 36.8 -24.5 Q36.55 -23.7 35.9 -23.15 L35.7 -23.0 35.65 -22.95 35.25 -22.65 Q34.5 -22.0 33.55 -21.85 L32.55 -21.8 32.6 -21.65 32.65 -21.55 32.65 -21.45 Q32.8 -20.65 32.1 -20.15 L31.95 -20.0 31.9 -20.0 31.65 -19.75 30.95 -19.25 Q30.5 -18.9 30.1 -18.9 29.2 -18.9 28.85 -19.55 L28.35 -20.65 28.3 -21.35 28.4 -22.65 28.25 -22.5 Q27.9 -22.2 27.35 -22.2 26.75 -22.2 26.3 -22.7 L26.1 -23.0 26.1 -23.05 26.05 -23.15 25.5 -23.75 25.15 -24.25 24.7 -24.55 24.45 -24.8 24.35 -24.85 23.9 -25.25 23.8 -25.3 23.65 -25.45 23.6 -25.45 23.6 -25.5 23.45 -25.65 21.75 -27.05 21.65 -27.15 21.0 -27.7 Q20.55 -28.1 20.45 -28.65 L20.25 -28.65 19.75 -28.75 18.3 -29.5 18.25 -29.5 18.1 -29.6 17.85 -29.7 16.9 -30.4 15.9 -31.4 15.75 -31.6 15.7 -31.65 15.0 -32.9 14.75 -33.6 Q14.6 -33.9 14.6 -34.35 L14.45 -33.9 14.45 -33.85 14.1 -33.1 14.0 -33.0 Q13.5 -32.5 12.75 -32.5 L12.7 -32.5 11.55 -32.75 11.05 -32.9 11.0 -32.9 10.85 -32.95 10.55 -33.0 9.45 -33.45 8.4 -34.15 8.25 -34.25 8.05 -34.35 8.05 -34.4 8.0 -34.45 Q7.65 -34.65 7.05 -35.5 L6.65 -36.05 6.2 -37.1 5.7 -36.2 4.95 -35.45 4.0 -34.9 Q3.6 -34.7 3.2 -34.65 L3.15 -34.65 2.2 -34.55 1.25 -34.6 -0.8 -34.95 -0.85 -35.0 -0.9 -35.0 -1.3 -35.2 -2.3 -36.05 -2.35 -36.1 -2.7 -36.65 -2.7 -36.7 -2.95 -37.2 -3.0 -37.15 -3.05 -36.9 -3.1 -36.85 Q-3.25 -36.3 -3.7 -35.85 -4.0 -35.3 -4.45 -35.1 L-4.5 -35.05 -5.55 -34.45 -5.7 -34.4 -7.95 -33.8 -8.0 -33.8 -9.55 -33.55 -10.1 -33.45 -10.3 -33.5 -11.0 -33.0 -11.3 -32.85 -11.55 -32.8 -11.8 -32.65 -12.15 -32.5 -12.9 -32.25 -13.05 -32.15 -13.4 -32.0 -13.55 -31.95 -13.65 -31.9 -13.85 -31.85 -14.15 -31.7 -14.4 -31.65 -14.55 -31.55 -14.9 -31.4 -15.5 -31.25 -15.6 -31.25 -16.15 -30.8 -18.25 -29.5 -18.35 -29.45 -18.5 -29.4 -18.55 -29.3 -19.25 -28.95 -19.4 -28.8 -19.75 -28.6 -20.55 -28.35 Q-21.1 -28.35 -21.5 -28.75 L-21.55 -28.55 -21.85 -27.5 -22.25 -26.75 -22.3 -26.7 -23.1 -25.75 -23.6 -25.3 Q-24.45 -24.4 -25.3 -24.15 L-25.35 -24.1 -25.4 -24.1 -25.85 -23.95 -26.45 -23.8 Q-26.1 -23.15 -26.55 -22.55 L-26.7 -22.3 -26.8 -22.25 -26.9 -22.05 -27.3 -21.5 -27.4 -21.4 -27.6 -21.0 Q-27.9 -20.55 -28.5 -20.45 L-28.7 -20.45 -29.6 -20.55 -29.7 -20.55 Q-28.75 -19.8 -29.25 -18.75 L-29.35 -18.6 -29.4 -18.5 -29.45 -18.45 -29.55 -18.3 -29.6 -18.25 -29.8 -17.9 -30.0 -17.65 -30.05 -17.6 -30.2 -17.35 -30.65 -16.9 -30.75 -16.9 -30.85 -16.85 -31.3 -16.8 -31.35 -16.8 -31.25 -16.25 -31.3 -14.9 -31.35 -14.85 -31.35 -14.8 -31.65 -14.1 -31.65 -14.0 -31.7 -13.95 -31.75 -13.75 -32.15 -13.1 -32.9 -12.15 Q-33.2 -11.85 -33.75 -11.85 L-34.3 -11.95 -34.95 -12.25 -35.35 -12.5 -35.45 -12.5 -35.65 -12.6 -36.35 -13.3 Q-36.55 -13.9 -36.15 -14.6 L-35.95 -15.0 -37.1 -14.5 -37.85 -14.25 -38.45 -14.2 -39.0 -14.25 -40.1 -14.55 -41.1 -15.2 Q-41.7 -15.65 -42.0 -16.6 L-42.05 -17.85 -41.95 -18.5 -41.55 -19.65 -40.7 -21.0 Q-40.15 -21.55 -39.65 -21.55 L-39.35 -21.5 -38.85 -21.3 -38.8 -21.25 -38.6 -21.2 -38.35 -21.1 -38.25 -21.0 -38.0 -20.95 Q-37.3 -20.55 -37.2 -19.9 L-37.35 -18.95 -37.3 -19.0 -36.8 -19.2 -36.75 -19.2 -35.65 -19.6 -35.75 -19.7 -35.9 -19.8 -35.95 -19.85 -36.1 -19.9 -36.2 -20.0 -37.4 -20.75 -37.6 -20.9 -37.9 -21.15 -38.35 -21.4 -38.5 -21.55 -38.6 -21.6 -38.7 -21.7 -38.95 -21.8 Q-39.4 -22.1 -39.5 -22.6 -39.7 -23.15 -39.35 -23.75 L-39.1 -24.0 -38.8 -24.5 -38.5 -24.95 Q-38.1 -25.55 -37.5 -25.55 L-37.3 -25.55 -36.55 -25.3 -36.45 -25.25 -36.45 -25.3 -36.75 -26.2 -36.85 -26.6 Q-36.95 -27.25 -36.55 -27.8 L-36.35 -28.05 -36.3 -28.05 -36.1 -28.45 -35.9 -28.7 -35.8 -28.8 -35.8 -28.85 -35.7 -29.0 -34.6 -29.65 -33.85 -29.4 Q-33.35 -29.05 -33.2 -28.4 L-33.15 -28.2 -33.1 -28.1 -33.1 -28.05 -32.5 -26.2 -32.45 -26.1 -32.25 -25.5 -32.2 -25.4 -32.2 -25.3 -32.1 -25.15 -31.6 -25.05 -31.4 -25.05 -31.2 -24.95 -30.2 -24.9 -30.05 -24.85 -29.8 -24.85 -29.3 -24.8 -29.9 -25.35 -30.1 -25.5 -30.2 -25.7 -30.35 -25.8 -30.5 -25.95 -30.65 -26.15 -30.9 -26.4 -31.05 -26.6 -31.45 -27.0 -31.6 -27.2 -32.0 -27.6 -32.25 -27.95 -32.45 -28.1 -33.6 -29.35 -33.9 -29.9 -33.9 -29.95 -33.95 -29.95 Q-34.2 -30.9 -33.55 -31.45 L-33.25 -31.65 -33.2 -31.75 -32.85 -32.1 -32.1 -32.65 -32.05 -32.7 -31.95 -32.7 -31.5 -32.8 Q-30.85 -32.8 -30.5 -32.35 L-28.6 -30.25 -28.15 -29.65 -27.55 -29.1 -27.45 -28.9 -27.4 -28.9 -27.25 -28.75 -27.15 -28.7 -27.15 -28.65 -27.1 -28.6 -27.05 -28.6 -26.55 -28.2 -26.5 -28.2 -26.1 -28.45 -25.95 -28.65 -25.9 -28.7 -25.9 -28.9 -25.95 -28.9 -26.35 -29.45 -26.85 -29.95 -27.0 -30.15 -27.1 -30.25 -27.3 -30.4 -27.65 -30.9 -27.7 -30.9 -27.7 -30.95 -27.95 -31.25 -29.55 -32.9 -30.0 -33.85 Q-30.15 -34.65 -29.5 -35.15 L-29.3 -35.35 -29.1 -35.5 -29.0 -35.65 -28.65 -36.0 Q-28.15 -36.4 -27.7 -36.4 L-27.5 -36.4 -27.4 -36.35 -27.3 -36.35 -26.5 -35.9 -26.45 -35.85 -25.9 -35.25 -25.8 -35.1 -25.4 -34.75 -25.25 -34.55 -25.25 -34.5 -24.9 -34.15 -25.25 -34.65 -25.3 -34.8 -25.95 -35.8 -26.1 -36.1 Q-26.45 -36.55 -26.3 -37.2 -26.15 -37.75 -25.65 -38.0 L-24.8 -38.55 -24.75 -38.6 -24.7 -38.6 -24.65 -38.65 -24.5 -38.75 -23.7 -39.0 Q-22.9 -39.0 -22.45 -38.3 L-22.3 -38.0 -22.25 -37.85 -22.15 -37.75 -22.15 -37.7 -22.05 -37.5 -21.9 -37.3 -21.85 -37.15 -21.8 -37.1 -21.8 -37.05 -21.65 -36.85 -21.25 -36.2 -21.05 -35.85 -20.75 -35.45 -19.95 -34.0 -19.6 -33.5 -19.5 -33.6 -19.35 -33.65 -19.2 -33.8 -18.4 -34.25 -18.15 -34.45 Q-17.95 -34.5 -17.8 -34.6 L-17.9 -34.7 -17.9 -34.75 -18.1 -35.2 -18.15 -35.25 -18.45 -36.1 -18.55 -36.3 -18.55 -36.35 -18.9 -37.15 -18.95 -37.35 -19.1 -37.6 -19.3 -38.05 -19.4 -38.4 -19.4 -38.45 -19.55 -38.7 -19.65 -39.0 -19.75 -39.2 -19.8 -39.35 -19.9 -39.5 -20.0 -39.8 Q-20.3 -40.3 -20.0 -40.95 L-19.25 -41.65 -18.5 -41.95 -18.35 -42.05 -18.25 -42.05 -18.2 -42.1 -18.15 -42.1 -17.95 -42.2 -17.35 -42.3 Q-16.45 -42.3 -16.05 -41.35 L-15.95 -41.1 -15.9 -40.9 -15.85 -40.8 -15.8 -40.65 -15.6 -40.2 -15.6 -40.15 -15.55 -40.1 -15.5 -39.85 -15.2 -39.15 -15.15 -39.0 -15.05 -38.8 -14.95 -38.65 -14.45 -37.3 -14.0 -36.25 -13.9 -36.3 -13.55 -36.4 -13.0 -36.65 -12.8 -36.7 -12.65 -36.8 -12.05 -37.0 -12.1 -37.15 -12.45 -38.9 -12.45 -39.0 -12.5 -39.2 -12.5 -39.4 -12.9 -41.45 -13.1 -42.35 Q-13.35 -43.6 -12.55 -44.1 L-11.0 -44.55 -10.85 -44.55 -10.65 -44.6 -10.5 -44.6 -10.35 -44.65 -10.05 -44.7 -9.6 -44.85 -9.3 -44.85 -8.9 -44.95 -8.7 -44.95 -7.8 -45.0 -7.7 -44.95 -7.2 -44.95 -7.1 -44.9 -7.05 -44.85 -6.75 -44.85 -6.6 -44.75 -6.35 -44.75 -5.45 -44.3 Q-4.4 -43.7 -3.8 -42.85 L-3.25 -42.0 -3.1 -41.65 -3.1 -41.7 -3.05 -42.15 -3.05 -43.55 -3.0 -43.95 -3.0 -44.5 -2.8 -45.15 -2.8 -45.2 Q-2.3 -46.0 -1.55 -46.0 L-1.45 -46.0 -1.1 -45.9 -0.5 -45.9 0.4 -45.8 0.5 -45.75 0.55 -45.75 Q1.35 -45.35 1.35 -44.45 L1.2 -43.2 1.2 -42.05 1.15 -41.75 1.15 -41.05 1.1 -40.85 1.1 -39.85 1.05 -39.85 1.1 -39.6 1.1 -39.35 1.2 -38.75 1.2 -38.7 1.7 -38.6 1.95 -38.6 2.0 -38.65 2.05 -38.65 2.15 -38.75 2.15 -39.2 2.2 -39.45 2.2 -40.15 2.25 -40.4 2.3 -41.4 2.3 -41.45 2.35 -41.85 2.35 -43.25 2.4 -43.65 2.4 -44.2 2.7 -45.15 Q3.1 -45.75 3.85 -45.75 L4.0 -45.75 4.25 -45.7 5.25 -45.7 6.3 -45.15 6.4 -45.05 6.4 -45.0 6.65 -44.15 6.65 -43.4 6.6 -43.25 6.6 -42.3 6.55 -42.25 6.55 -41.75 7.3 -42.85 8.15 -43.55 Q8.8 -44.0 9.7 -44.25 L10.0 -44.3 10.15 -44.3 11.0 -44.45 11.05 -44.45 12.4 -44.25 12.75 -44.15 12.85 -44.15 12.95 -44.1 13.65 -43.95 14.35 -43.7 Q15.55 -43.3 15.95 -42.7 16.45 -42.1 16.25 -41.3 L16.15 -41.05 16.0 -40.5 15.95 -40.2 15.45 -39.5 15.7 -38.75 16.0 -39.1 Q16.3 -39.65 16.95 -40.05 17.4 -40.35 17.9 -40.5 L19.6 -40.85 19.9 -40.8 20.1 -40.8 21.0 -40.7 22.6 -40.05 22.65 -40.0 22.75 -39.95 22.9 -39.85 22.95 -39.85 23.1 -39.75 23.4 -39.65 24.0 -39.25 25.35 -37.9 Q25.7 -37.1 25.3 -36.45 L25.05 -36.1 25.0 -35.95 24.75 -35.5 24.1 -34.9 24.2 -34.1 24.1 -33.75 24.3 -33.95 24.4 -34.1 25.25 -35.05 25.85 -35.8 26.65 -36.45 27.3 -36.6 Q27.85 -36.6 28.25 -36.25 L28.4 -36.1 28.6 -35.95 28.8 -35.75 29.2 -35.45 M39.4 -23.8 L39.8 -22.95 39.95 -22.75 40.15 -22.1 Q40.2 -21.5 39.75 -20.95 L39.5 -20.6 39.4 -20.5 39.2 -20.25 39.05 -19.95 40.7 -20.0 40.75 -19.95 40.85 -19.95 41.8 -19.15 41.9 -18.95 41.9 -18.9 42.25 -18.2 42.35 -18.1 42.5 -17.8 42.65 -16.65 Q42.5 -16.2 42.15 -16.05 L41.05 -15.8 40.25 -15.8 40.05 -15.75 37.6 -15.75 37.25 -15.7 37.2 -15.7 37.1 -15.75 36.8 -15.75 36.75 -15.7 36.7 -15.7 36.5 -15.75 36.4 -15.75 36.3 -15.7 36.1 -15.7 35.2 -15.65 35.15 -15.6 34.6 -15.3 34.45 -15.25 34.0 -14.95 33.5 -14.75 33.4 -14.7 33.2 -14.55 32.5 -14.4 Q31.65 -14.4 31.25 -15.1 L31.15 -15.4 31.15 -15.45 31.05 -15.6 30.85 -16.0 30.75 -16.15 30.6 -16.45 Q30.3 -16.85 30.5 -17.5 30.75 -18.2 31.25 -18.4 L31.65 -18.55 31.7 -18.6 31.9 -18.75 32.35 -18.9 32.45 -19.0 32.5 -19.0 32.8 -19.2 33.15 -19.35 33.2 -19.4 33.35 -19.5 33.45 -19.55 33.55 -19.7 33.6 -19.8 33.75 -19.95 33.8 -20.05 34.25 -20.55 34.55 -21.0 34.6 -21.05 34.6 -21.1 34.65 -21.1 34.85 -21.4 34.95 -21.5 35.0 -21.6 35.25 -22.0 36.3 -23.35 36.35 -23.4 36.7 -23.9 36.75 -24.0 36.85 -24.1 37.0 -24.3 37.5 -24.75 38.05 -24.85 Q38.85 -24.85 39.25 -24.1 L39.35 -23.9 39.35 -23.8 39.4 -23.8 M38.95 -21.55 L39.15 -22.0 39.05 -22.3 38.45 -23.4 38.4 -23.55 38.35 -23.65 Q38.25 -23.85 38.05 -23.85 L37.95 -23.85 37.65 -23.55 37.6 -23.45 36.55 -22.0 36.35 -21.8 35.2 -20.15 34.15 -18.85 33.9 -18.65 33.25 -18.3 32.85 -18.05 32.35 -17.85 32.05 -17.65 31.7 -17.55 Q31.35 -17.2 31.45 -16.9 L31.75 -16.45 32.05 -15.85 32.15 -15.55 Q32.25 -15.4 32.5 -15.4 L32.75 -15.45 33.05 -15.6 33.95 -16.15 34.75 -16.5 36.05 -16.7 36.3 -16.7 36.4 -16.75 36.7 -16.7 36.85 -16.75 37.0 -16.75 37.25 -16.7 40.25 -16.8 41.05 -16.8 41.65 -16.9 41.6 -17.35 41.35 -17.75 41.0 -18.5 40.9 -18.65 40.6 -19.0 40.35 -19.0 39.9 -18.95 39.3 -18.95 38.9 -18.9 38.5 -18.9 38.25 -18.85 37.3 -18.8 37.05 -18.9 37.3 -19.45 38.95 -21.55" fill="#ac800a" fill-rule="evenodd" stroke="none"/>
    <path d="M28.95 10.35 Q30.25 11.15 30.6 12.6 30.95 14.1 30.15 15.4 29.5 16.45 28.4 16.9 L26.1 17.0 Q26.8 17.9 26.9 19.05 27.0 20.2 26.35 21.2 25.55 22.5 24.1 22.85 22.6 23.2 21.3 22.4 20.0 21.6 19.65 20.15 19.3 18.65 20.1 17.35 L20.6 16.7 15.15 13.35 Q17.85 11.95 18.65 9.1 L23.6 12.1 23.9 11.55 Q24.7 10.25 26.15 9.9 27.65 9.55 28.95 10.35 M-18.65 9.05 Q-17.85 11.85 -15.2 13.35 L-20.6 16.65 -20.1 17.3 Q-19.3 18.6 -19.65 20.1 -20.05 21.55 -21.35 22.35 -22.65 23.15 -24.1 22.8 -25.6 22.4 -26.4 21.1 -27.0 20.1 -26.9 18.95 -26.8 17.8 -26.1 16.95 L-28.4 16.8 Q-29.5 16.35 -30.15 15.3 -30.95 14.0 -30.6 12.5 -30.25 11.05 -28.95 10.25 -27.65 9.45 -26.15 9.8 -24.7 10.15 -23.9 11.45 L-23.6 12.05 -18.65 9.05 M-26.3 -19.15 Q-25.5 -20.45 -24.05 -20.8 -22.55 -21.15 -21.25 -20.35 -19.95 -19.55 -19.6 -18.1 -19.25 -16.6 -20.05 -15.3 L-20.4 -14.8 -16.25 -12.25 Q-18.05 -10.05 -18.8 -7.4 L-23.5 -10.25 -23.85 -9.5 Q-24.65 -8.2 -26.1 -7.85 -27.6 -7.5 -28.9 -8.3 -30.2 -9.1 -30.55 -10.55 -30.9 -12.05 -30.1 -13.35 -29.45 -14.4 -28.35 -14.8 L-26.05 -14.95 Q-26.75 -15.85 -26.85 -17.0 -26.95 -18.15 -26.3 -19.15 M30.2 -13.25 Q31.0 -11.95 30.65 -10.45 30.3 -9.0 29.0 -8.2 27.7 -7.4 26.2 -7.75 24.75 -8.1 23.9 -9.4 L23.6 -10.2 18.9 -7.35 Q18.15 -10.1 16.35 -12.2 L20.55 -14.75 20.15 -15.25 Q19.35 -16.55 19.75 -18.05 20.1 -19.5 21.4 -20.3 22.7 -21.1 24.15 -20.7 25.65 -20.35 26.45 -19.05 27.05 -18.05 26.95 -16.9 26.85 -15.75 26.15 -14.9 L28.45 -14.75 Q29.55 -14.3 30.2 -13.25" fill="#fbc310" fill-rule="evenodd" stroke="none"/>
    <path d="M30.2 -13.25 Q29.55 -14.3 28.45 -14.75 L26.15 -14.9 Q26.85 -15.75 26.95 -16.9 27.05 -18.05 26.45 -19.05 25.65 -20.35 24.15 -20.7 22.7 -21.1 21.4 -20.3 20.1 -19.5 19.75 -18.05 19.35 -16.55 20.15 -15.25 L20.55 -14.75 16.35 -12.2 Q18.15 -10.1 18.9 -7.35 L23.6 -10.2 23.9 -9.4 Q24.75 -8.1 26.2 -7.75 27.7 -7.4 29.0 -8.2 30.3 -9.0 30.65 -10.45 31.0 -11.95 30.2 -13.25 M-26.3 -19.15 Q-26.95 -18.15 -26.85 -17.0 -26.75 -15.85 -26.05 -14.95 L-28.35 -14.8 Q-29.45 -14.4 -30.1 -13.35 -30.9 -12.05 -30.55 -10.55 -30.2 -9.1 -28.9 -8.3 -27.6 -7.5 -26.1 -7.85 -24.65 -8.2 -23.85 -9.5 L-23.5 -10.25 -18.8 -7.4 Q-18.05 -10.05 -16.25 -12.25 L-20.4 -14.8 -20.05 -15.3 Q-19.25 -16.6 -19.6 -18.1 -19.95 -19.55 -21.25 -20.35 -22.55 -21.15 -24.05 -20.8 -25.5 -20.45 -26.3 -19.15 M-18.65 9.05 L-23.6 12.05 -23.9 11.45 Q-24.7 10.15 -26.15 9.8 -27.65 9.45 -28.95 10.25 -30.25 11.05 -30.6 12.5 -30.95 14.0 -30.15 15.3 -29.5 16.35 -28.4 16.8 L-26.1 16.95 Q-26.8 17.8 -26.9 18.95 -27.0 20.1 -26.4 21.1 -25.6 22.4 -24.1 22.8 -22.65 23.15 -21.35 22.35 -20.05 21.55 -19.65 20.1 -19.3 18.6 -20.1 17.3 L-20.6 16.65 -15.2 13.35 Q-17.85 11.85 -18.65 9.05 M28.95 10.35 Q27.65 9.55 26.15 9.9 24.7 10.25 23.9 11.55 L23.6 12.1 18.65 9.1 Q17.85 11.95 15.15 13.35 L20.6 16.7 20.1 17.35 Q19.3 18.65 19.65 20.15 20.0 21.6 21.3 22.4 22.6 23.2 24.1 22.85 25.55 22.5 26.35 21.2 27.0 20.2 26.9 19.05 26.8 17.9 26.1 17.0 L28.4 16.9 Q29.5 16.45 30.15 15.4 30.95 14.1 30.6 12.6 30.25 11.15 28.95 10.35 Z" fill="none" stroke="#ac800a" stroke-linecap="butt" stroke-linejoin="miter-clip" stroke-miterlimit="4.0" stroke-width="0.4"/>
    <path d="M-1.75 8.55 Q-3.0 10.55 -2.35 11.0 L0.1 11.4 2.35 11.0 Q2.85 10.7 1.6 8.55 0.3 6.4 -0.1 6.5 -0.6 6.65 -1.75 8.55 M-3.3 1.05 Q-4.65 0.55 -8.3 0.25 -11.35 0.05 -12.85 2.3 -14.35 4.5 -13.1 6.85 -11.95 9.0 -6.55 7.15 -1.25 5.3 -1.35 3.35 -1.4 1.75 -3.3 1.05 M17.6 -4.1 Q17.6 -3.1 16.7 -0.8 15.9 1.3 16.1 2.05 L16.75 4.8 17.2 7.4 Q17.2 9.5 15.55 11.0 13.85 12.5 11.5 12.45 L10.6 12.4 Q10.15 16.75 9.05 17.55 7.9 18.4 7.1 18.15 6.05 18.15 5.4 16.35 L4.8 17.8 Q4.25 18.75 3.75 18.75 L1.8 18.7 Q0.95 18.7 0.1 16.35 -0.55 18.7 -1.55 18.7 L-3.5 18.7 Q-4.5 18.7 -5.15 16.35 -5.75 18.1 -6.85 18.1 -8.0 18.2 -8.8 17.55 -9.25 17.1 -9.85 14.7 L-10.3 12.35 -11.25 12.45 Q-13.6 12.4 -15.25 10.95 -16.9 9.45 -16.9 7.35 L-16.45 4.75 -15.8 2.0 Q-15.65 1.35 -16.45 -0.8 -17.3 -3.1 -17.3 -4.15 -17.25 -9.95 -12.15 -13.45 -7.3 -16.75 0.2 -16.75 7.65 -16.75 12.5 -13.4 17.6 -9.9 17.6 -4.1 M12.95 -0.25 Q11.6 -4.75 8.6 -4.45 5.5 -4.15 3.55 -2.0 1.8 -0.05 1.8 2.55 1.8 5.6 6.8 7.1 11.7 8.55 12.9 6.3 14.25 3.9 12.95 -0.25" fill="#fbc310" fill-rule="evenodd" stroke="none"/>
    <path d="M12.95 -0.25 Q14.25 3.9 12.9 6.3 11.7 8.55 6.8 7.1 1.8 5.6 1.8 2.55 1.8 -0.05 3.55 -2.0 5.5 -4.15 8.6 -4.45 11.6 -4.75 12.95 -0.25 M17.6 -4.1 Q17.6 -9.9 12.5 -13.4 7.65 -16.75 0.2 -16.75 -7.3 -16.75 -12.15 -13.45 -17.25 -9.95 -17.3 -4.15 -17.3 -3.1 -16.45 -0.8 -15.65 1.35 -15.8 2.0 L-16.45 4.75 -16.9 7.35 Q-16.9 9.45 -15.25 10.95 -13.6 12.4 -11.25 12.45 L-10.3 12.35 -9.85 14.7 Q-9.25 17.1 -8.8 17.55 -8.0 18.2 -6.85 18.1 -5.75 18.1 -5.15 16.35 -4.5 18.7 -3.5 18.7 L-1.55 18.7 Q-0.55 18.7 0.1 16.35 0.95 18.7 1.8 18.7 L3.75 18.75 Q4.25 18.75 4.8 17.8 L5.4 16.35 Q6.05 18.15 7.1 18.15 7.9 18.4 9.05 17.55 10.15 16.75 10.6 12.4 L11.5 12.45 Q13.85 12.5 15.55 11.0 17.2 9.5 17.2 7.4 L16.75 4.8 16.1 2.05 Q15.9 1.3 16.7 -0.8 17.6 -3.1 17.6 -4.1 M-3.3 1.05 Q-1.4 1.75 -1.35 3.35 -1.25 5.3 -6.55 7.15 -11.95 9.0 -13.1 6.85 -14.35 4.5 -12.85 2.3 -11.35 0.05 -8.3 0.25 -4.65 0.55 -3.3 1.05 M-1.75 8.55 Q-0.6 6.65 -0.1 6.5 0.3 6.4 1.6 8.55 2.85 10.7 2.35 11.0 L0.1 11.4 -2.35 11.0 Q-3.0 10.55 -1.75 8.55 Z" fill="none" stroke="#ac800a" stroke-linecap="butt" stroke-linejoin="miter-clip" stroke-miterlimit="4.0" stroke-width="0.4"/>
    <path d="M28.95 10.35 Q30.25 11.15 30.6 12.6 30.95 14.1 30.15 15.4 29.5 16.45 28.4 16.9 L26.1 17.0 Q26.8 17.9 26.9 19.05 27.0 20.2 26.35 21.2 25.55 22.5 24.1 22.85 22.6 23.2 21.3 22.4 20.0 21.6 19.65 20.15 19.3 18.65 20.1 17.35 L20.6 16.7 15.15 13.35 Q17.85 11.95 18.65 9.1 L23.6 12.1 23.9 11.55 Q24.7 10.25 26.15 9.9 27.65 9.55 28.95 10.35 M-18.65 9.05 Q-17.85 11.85 -15.2 13.35 L-20.6 16.65 -20.1 17.3 Q-19.3 18.6 -19.65 20.1 -20.05 21.55 -21.35 22.35 -22.65 23.15 -24.1 22.8 -25.6 22.4 -26.4 21.1 -27.0 20.1 -26.9 18.95 -26.8 17.8 -26.1 16.95 L-28.4 16.8 Q-29.5 16.35 -30.15 15.3 -30.95 14.0 -30.6 12.5 -30.25 11.05 -28.95 10.25 -27.65 9.45 -26.15 9.8 -24.7 10.15 -23.9 11.45 L-23.6 12.05 -18.65 9.05 M-1.75 8.55 Q-3.0 10.55 -2.35 11.0 L0.1 11.4 2.35 11.0 Q2.85 10.7 1.6 8.55 0.3 6.4 -0.1 6.5 -0.6 6.65 -1.75 8.55 M-3.3 1.05 Q-4.65 0.55 -8.3 0.25 -11.35 0.05 -12.85 2.3 -14.35 4.5 -13.1 6.85 -11.95 9.0 -6.55 7.15 -1.25 5.3 -1.35 3.35 -1.4 1.75 -3.3 1.05 M-26.85 -17.0 Q-26.95 -18.15 -26.3 -19.15 -25.5 -20.45 -24.05 -20.8 -22.55 -21.15 -21.25 -20.35 -19.95 -19.55 -19.6 -18.1 -19.25 -16.6 -20.05 -15.3 L-20.4 -14.8 -16.25 -12.25 Q-18.05 -10.05 -18.8 -7.4 L-23.5 -10.25 -23.85 -9.5 Q-24.65 -8.2 -26.1 -7.85 -27.6 -7.5 -28.9 -8.3 -30.2 -9.1 -30.55 -10.55 -30.9 -12.05 -30.1 -13.35 -29.45 -14.4 -28.35 -14.8 L-26.05 -14.95 Q-26.75 -15.85 -26.85 -17.0 M30.2 -13.25 Q31.0 -11.95 30.65 -10.45 30.3 -9.0 29.0 -8.2 27.7 -7.4 26.2 -7.75 24.75 -8.1 23.9 -9.4 L23.6 -10.2 18.9 -7.35 Q18.15 -10.1 16.35 -12.2 L20.55 -14.75 20.15 -15.25 Q19.35 -16.55 19.75 -18.05 20.1 -19.5 21.4 -20.3 22.7 -21.1 24.15 -20.7 25.65 -20.35 26.45 -19.05 27.05 -18.05 26.95 -16.9 26.85 -15.75 26.15 -14.9 L28.45 -14.75 Q29.55 -14.3 30.2 -13.25 M8.6 -4.45 Q5.5 -4.15 3.55 -2.0 1.8 -0.05 1.8 2.55 1.8 5.6 6.8 7.1 11.7 8.55 12.9 6.3 14.25 3.9 12.95 -0.25 11.6 -4.75 8.6 -4.45 M12.5 -13.4 Q17.6 -9.9 17.6 -4.1 17.6 -3.1 16.7 -0.8 15.9 1.3 16.1 2.05 L16.75 4.8 17.2 7.4 Q17.2 9.5 15.55 11.0 13.85 12.5 11.5 12.45 L10.6 12.4 Q10.15 16.75 9.05 17.55 7.9 18.4 7.1 18.15 6.05 18.15 5.4 16.35 L4.8 17.8 Q4.25 18.75 3.75 18.75 L1.8 18.7 Q0.95 18.7 0.1 16.35 -0.55 18.7 -1.55 18.7 L-3.5 18.7 Q-4.5 18.7 -5.15 16.35 -5.75 18.1 -6.85 18.1 -8.0 18.2 -8.8 17.55 -9.25 17.1 -9.85 14.7 L-10.3 12.35 -11.25 12.45 Q-13.6 12.4 -15.25 10.95 -16.9 9.45 -16.9 7.35 L-16.45 4.75 -15.8 2.0 Q-15.65 1.35 -16.45 -0.8 -17.3 -3.1 -17.3 -4.15 -17.25 -9.95 -12.15 -13.45 -7.3 -16.75 0.2 -16.75 7.65 -16.75 12.5 -13.4" fill="#fbc310" fill-rule="evenodd" stroke="none"/>
    <path d="M12.5 -13.4 Q7.65 -16.75 0.2 -16.75 -7.3 -16.75 -12.15 -13.45 -17.25 -9.95 -17.3 -4.15 -17.3 -3.1 -16.45 -0.8 -15.65 1.35 -15.8 2.0 L-16.45 4.75 -16.9 7.35 Q-16.9 9.45 -15.25 10.95 -13.6 12.4 -11.25 12.45 L-10.3 12.35 -9.85 14.7 Q-9.25 17.1 -8.8 17.55 -8.0 18.2 -6.85 18.1 -5.75 18.1 -5.15 16.35 -4.5 18.7 -3.5 18.7 L-1.55 18.7 Q-0.55 18.7 0.1 16.35 0.95 18.7 1.8 18.7 L3.75 18.75 Q4.25 18.75 4.8 17.8 L5.4 16.35 Q6.05 18.15 7.1 18.15 7.9 18.4 9.05 17.55 10.15 16.75 10.6 12.4 L11.5 12.45 Q13.85 12.5 15.55 11.0 17.2 9.5 17.2 7.4 L16.75 4.8 16.1 2.05 Q15.9 1.3 16.7 -0.8 17.6 -3.1 17.6 -4.1 17.6 -9.9 12.5 -13.4 M8.6 -4.45 Q11.6 -4.75 12.95 -0.25 14.25 3.9 12.9 6.3 11.7 8.55 6.8 7.1 1.8 5.6 1.8 2.55 1.8 -0.05 3.55 -2.0 5.5 -4.15 8.6 -4.45 M30.2 -13.25 Q29.55 -14.3 28.45 -14.75 L26.15 -14.9 Q26.85 -15.75 26.95 -16.9 27.05 -18.05 26.45 -19.05 25.65 -20.35 24.15 -20.7 22.7 -21.1 21.4 -20.3 20.1 -19.5 19.75 -18.05 19.35 -16.55 20.15 -15.25 L20.55 -14.75 16.35 -12.2 Q18.15 -10.1 18.9 -7.35 L23.6 -10.2 23.9 -9.4 Q24.75 -8.1 26.2 -7.75 27.7 -7.4 29.0 -8.2 30.3 -9.0 30.65 -10.45 31.0 -11.95 30.2 -13.25 M-26.85 -17.0 Q-26.75 -15.85 -26.05 -14.95 L-28.35 -14.8 Q-29.45 -14.4 -30.1 -13.35 -30.9 -12.05 -30.55 -10.55 -30.2 -9.1 -28.9 -8.3 -27.6 -7.5 -26.1 -7.85 -24.65 -8.2 -23.85 -9.5 L-23.5 -10.25 -18.8 -7.4 Q-18.05 -10.05 -16.25 -12.25 L-20.4 -14.8 -20.05 -15.3 Q-19.25 -16.6 -19.6 -18.1 -19.95 -19.55 -21.25 -20.35 -22.55 -21.15 -24.05 -20.8 -25.5 -20.45 -26.3 -19.15 -26.95 -18.15 -26.85 -17.0 M-3.3 1.05 Q-1.4 1.75 -1.35 3.35 -1.25 5.3 -6.55 7.15 -11.95 9.0 -13.1 6.85 -14.35 4.5 -12.85 2.3 -11.35 0.05 -8.3 0.25 -4.65 0.55 -3.3 1.05 M-1.75 8.55 Q-0.6 6.65 -0.1 6.5 0.3 6.4 1.6 8.55 2.85 10.7 2.35 11.0 L0.1 11.4 -2.35 11.0 Q-3.0 10.55 -1.75 8.55 M-18.65 9.05 L-23.6 12.05 -23.9 11.45 Q-24.7 10.15 -26.15 9.8 -27.65 9.45 -28.95 10.25 -30.25 11.05 -30.6 12.5 -30.95 14.0 -30.15 15.3 -29.5 16.35 -28.4 16.8 L-26.1 16.95 Q-26.8 17.8 -26.9 18.95 -27.0 20.1 -26.4 21.1 -25.6 22.4 -24.1 22.8 -22.65 23.15 -21.35 22.35 -20.05 21.55 -19.65 20.1 -19.3 18.6 -20.1 17.3 L-20.6 16.65 -15.2 13.35 Q-17.85 11.85 -18.65 9.05 M28.95 10.35 Q27.65 9.55 26.15 9.9 24.7 10.25 23.9 11.55 L23.6 12.1 18.65 9.1 Q17.85 11.95 15.15 13.35 L20.6 16.7 20.1 17.35 Q19.3 18.65 19.65 20.15 20.0 21.6 21.3 22.4 22.6 23.2 24.1 22.85 25.55 22.5 26.35 21.2 27.0 20.2 26.9 19.05 26.8 17.9 26.1 17.0 L28.4 16.9 Q29.5 16.45 30.15 15.4 30.95 14.1 30.6 12.6 30.25 11.15 28.95 10.35 Z" fill="none" stroke="#ac800a" stroke-linecap="butt" stroke-linejoin="miter-clip" stroke-miterlimit="4.0" stroke-width="1.0"/>
    <path d="M-2.6 -8.8 Q0.05 -7.3 3.75 -6.8 L10.05 -7.05 Q12.7 -7.85 12.7 -9.5 12.7 -11.15 10.05 -12.65 7.4 -14.2 3.75 -14.7 L-2.6 -14.4 Q-5.2 -13.6 -5.2 -11.95 -5.2 -10.3 -2.6 -8.8" fill="#fbd248" fill-rule="evenodd" stroke="none"/>
    <path d="M24.25 -16.25 Q23.8 -15.75 23.1 -15.75 22.4 -15.75 21.9 -16.25 21.45 -16.7 21.45 -17.4 21.45 -18.1 21.9 -18.6 L23.1 -19.05 Q23.8 -19.05 24.25 -18.6 24.75 -18.1 24.75 -17.4 24.75 -16.7 24.25 -16.25" fill="#fbd248" fill-rule="evenodd" stroke="none"/>
    <path d="M28.0 -10.9 Q27.55 -10.4 26.85 -10.4 26.15 -10.4 25.65 -10.9 25.2 -11.35 25.2 -12.05 25.2 -12.75 25.65 -13.25 L26.85 -13.7 Q27.55 -13.7 28.0 -13.25 28.5 -12.75 28.5 -12.05 28.5 -11.35 28.0 -10.9" fill="#fbd248" fill-rule="evenodd" stroke="none"/>
    <path d="M-21.85 -16.4 Q-22.3 -15.9 -23.0 -15.9 -23.7 -15.9 -24.2 -16.4 -24.65 -16.85 -24.65 -17.55 L-24.2 -18.75 Q-23.7 -19.2 -23.0 -19.2 -22.3 -19.2 -21.85 -18.75 -21.35 -18.25 -21.35 -17.55 -21.35 -16.85 -21.85 -16.4" fill="#fbd248" fill-rule="evenodd" stroke="none"/>
    <path d="M-26.0 -11.1 Q-26.45 -10.6 -27.15 -10.6 -27.85 -10.6 -28.35 -11.1 -28.8 -11.55 -28.8 -12.25 -28.8 -12.95 -28.35 -13.45 L-27.15 -13.9 -26.0 -13.45 Q-25.5 -12.95 -25.5 -12.25 -25.5 -11.55 -26.0 -11.1" fill="#fbd248" fill-rule="evenodd" stroke="none"/>
    <path d="M-25.75 14.0 Q-26.2 14.5 -26.9 14.5 -27.6 14.5 -28.1 14.0 -28.55 13.55 -28.55 12.85 -28.55 12.15 -28.1 11.65 -27.6 11.2 -26.9 11.2 -26.2 11.2 -25.75 11.65 -25.25 12.15 -25.25 12.85 -25.25 13.55 -25.75 14.0" fill="#fbd248" fill-rule="evenodd" stroke="none"/>
    <path d="M-21.65 19.9 Q-22.1 20.4 -22.8 20.4 -23.5 20.4 -24.0 19.9 L-24.45 18.75 Q-24.45 18.05 -24.0 17.55 -23.5 17.1 -22.8 17.1 -22.1 17.1 -21.65 17.55 -21.15 18.05 -21.15 18.75 -21.15 19.45 -21.65 19.9" fill="#fbd248" fill-rule="evenodd" stroke="none"/>
    <path d="M28.25 13.95 Q27.8 14.45 27.1 14.45 26.4 14.45 25.9 13.95 25.45 13.5 25.45 12.8 25.45 12.1 25.9 11.6 26.4 11.15 27.1 11.15 27.8 11.15 28.25 11.6 28.75 12.1 28.75 12.8 28.75 13.5 28.25 13.95" fill="#fbd248" fill-rule="evenodd" stroke="none"/>
    <path d="M24.85 20.3 Q24.4 20.8 23.7 20.8 23.0 20.8 22.5 20.3 22.05 19.85 22.05 19.15 22.05 18.45 22.5 17.95 23.0 17.5 23.7 17.5 24.4 17.5 24.85 17.95 25.35 18.45 25.35 19.15 25.35 19.85 24.85 20.3" fill="#fbd248" fill-rule="evenodd" stroke="none"/>
    <path d="M-13.95 8.45 Q-11.2 10.5 -3.2 7.55 -7.7 12.55 -13.95 10.4 -16.55 7.55 -13.95 8.45" fill="#fbd248" fill-rule="evenodd" stroke="none"/>
    <path d="M13.95 8.45 Q11.2 10.5 3.2 7.55 7.7 12.55 13.95 10.4 16.55 7.55 13.95 8.45" fill="#fbd248" fill-rule="evenodd" stroke="none"/>
  </g>
</svg>
