<?xml version="1.0" encoding="UTF-8" standalone="no"?>
<svg xmlns:ffdec="https://www.free-decompiler.com/flash" xmlns:xlink="http://www.w3.org/1999/xlink" ffdec:objectType="shape" height="92.5px" width="77.7px" xmlns="http://www.w3.org/2000/svg">
  <g transform="matrix(1.0, 0.0, 0.0, 1.0, 38.85, 45.95)">
    <path d="M19.75 36.6 L19.4 35.95 19.1 35.65 19.05 35.65 18.65 35.5 18.35 35.5 18.0 35.65 17.95 35.7 17.85 35.75 17.85 35.8 17.8 35.85 17.65 36.1 17.65 36.2 17.6 36.55 17.65 36.65 17.75 37.0 17.75 37.1 17.95 37.4 18.5 37.95 18.85 38.05 18.9 38.05 19.1 38.0 19.15 38.0 19.35 37.9 19.45 37.9 19.55 37.8 19.75 37.5 19.85 37.1 19.8 37.0 19.75 36.6 M-12.05 38.4 L-12.05 38.5 -12.7 40.6 -12.45 40.7 -12.3 40.75 -12.15 40.75 -11.8 40.7 Q-11.4 40.6 -11.2 39.9 L-11.1 39.6 -11.1 39.2 -11.15 39.1 -11.2 38.85 -11.3 38.75 -11.3 38.7 -11.5 38.45 -12.0 38.2 -12.05 38.4 M-16.6 39.5 L-16.45 39.15 -16.95 39.3 -16.7 39.85 -16.6 39.5 M-28.1 27.3 L-28.1 27.25 -28.0 27.15 -27.1 25.9 Q-26.6 25.4 -26.05 25.4 L-25.8 25.45 Q-25.4 25.45 -25.05 25.75 L-25.0 25.8 -24.7 26.0 -24.7 26.05 -24.65 26.1 -24.55 26.15 -24.3 26.35 Q-23.85 26.7 -23.75 27.25 L-23.8 28.25 -23.9 28.95 -23.9 29.25 -23.95 29.25 -23.95 30.0 -24.0 30.25 -23.85 30.2 -23.75 30.15 -23.45 30.05 -23.35 30.05 -23.15 29.95 -22.7 29.8 -22.55 29.7 -22.05 29.5 -22.0 29.45 -21.85 29.45 -21.85 29.4 -21.6 29.35 -21.5 29.3 -21.3 29.3 Q-20.7 29.3 -20.35 29.65 L-19.9 30.05 -19.85 30.05 -19.6 30.2 -19.45 30.4 -19.4 30.45 -19.1 30.85 -18.85 30.8 -18.2 30.95 -18.0 31.1 -16.9 31.65 -16.7 31.8 -15.95 32.15 -15.8 32.25 -15.55 32.35 -14.9 32.75 -14.75 32.8 -14.45 32.95 -13.85 33.55 -13.75 33.55 -12.4 33.85 -12.25 33.9 -12.1 34.0 -12.0 34.0 -11.8 34.1 -11.1 34.25 -10.9 34.35 -10.85 34.35 -10.45 34.45 -10.4 34.5 -10.3 34.5 -9.55 34.9 -9.45 35.0 -9.15 35.15 -8.85 35.45 -8.8 35.45 -8.55 35.7 -8.5 35.7 -8.5 35.75 -8.0 36.35 Q-7.5 37.05 -7.3 37.85 L-7.3 37.8 -7.25 37.75 -7.2 37.6 Q-6.7 35.7 -5.3 35.7 L-5.0 35.7 -3.65 35.85 -3.55 35.85 Q-2.65 35.85 -2.05 36.45 -1.5 37.0 -1.45 37.65 L-1.4 37.95 -1.4 38.2 -1.35 38.3 -1.3 38.6 -1.3 38.65 -1.25 39.1 -1.25 39.35 -1.2 39.4 -1.2 38.95 -1.25 38.7 -1.25 38.4 -1.3 38.1 -1.3 37.55 Q-1.4 37.0 -0.95 36.55 -0.55 36.1 0.0 36.1 L0.7 36.1 0.9 36.05 1.25 36.05 1.35 36.0 Q1.95 36.0 2.35 36.4 2.75 36.8 2.75 37.4 L2.75 38.1 2.8 38.2 2.8 39.6 2.85 39.7 2.9 40.8 2.9 41.45 2.95 42.45 3.15 42.45 3.35 42.4 4.05 42.4 4.2 42.35 4.55 42.35 5.3 42.55 5.2 42.3 4.9 40.8 4.9 40.75 4.5 38.85 4.5 38.75 4.4 38.5 4.3 37.9 4.3 37.85 4.15 37.4 Q4.05 36.8 4.4 36.3 4.7 35.85 5.25 35.75 L6.15 35.55 6.2 35.55 6.25 35.5 6.3 35.5 6.5 35.45 6.8 35.45 Q7.95 35.45 8.2 36.6 L8.25 36.85 8.25 37.05 8.3 37.15 8.3 37.4 8.4 37.75 8.4 37.85 8.6 38.75 8.6 38.9 8.7 39.1 9.15 41.55 9.2 41.5 9.35 41.5 9.5 41.45 10.25 41.3 10.35 41.3 10.65 41.2 10.95 41.2 11.5 41.3 11.45 41.25 11.4 41.05 11.4 41.0 10.9 39.5 10.55 38.6 10.35 37.85 10.2 37.55 10.15 37.2 10.1 37.1 9.8 36.35 Q9.65 35.85 9.8 35.3 10.0 34.75 10.45 34.5 L10.55 34.5 10.75 34.45 10.8 34.4 11.0 34.35 11.2 34.25 11.65 34.15 11.7 34.1 12.3 33.95 Q12.75 33.95 13.0 34.2 L13.65 35.0 13.75 35.35 13.8 35.35 13.85 35.2 13.85 35.05 14.1 34.3 14.15 34.25 14.2 34.05 14.7 33.3 14.9 33.1 14.95 33.1 15.0 33.0 15.2 32.8 16.25 32.0 16.8 31.8 17.05 31.75 Q17.45 31.55 17.85 31.5 L19.0 31.45 19.0 31.5 19.9 31.7 19.75 31.45 Q19.45 30.6 20.1 29.95 L20.35 29.8 20.5 29.65 20.7 29.55 20.7 29.5 20.75 29.45 20.9 29.35 Q21.15 29.1 21.5 29.0 L21.75 28.8 22.3 28.75 22.55 28.75 24.25 29.25 24.15 29.1 23.75 28.7 Q23.2 27.95 23.6 27.25 L23.65 27.2 23.65 27.15 24.1 26.7 24.35 26.5 24.6 26.35 24.7 26.25 24.75 26.25 24.85 26.15 24.85 26.1 25.0 25.95 25.85 25.65 Q26.5 25.65 26.95 26.25 L27.4 26.85 27.65 27.1 28.65 28.35 28.8 28.6 30.75 30.85 30.85 31.0 30.9 31.1 31.05 31.25 31.15 31.4 31.75 32.05 Q32.2 32.5 32.1 33.05 32.1 33.55 31.55 34.05 L31.4 34.2 31.35 34.2 31.25 34.3 31.0 34.45 30.7 34.75 29.8 35.1 28.9 34.85 27.75 34.5 27.3 34.3 27.3 34.35 27.6 34.65 27.6 34.7 27.7 34.75 27.75 34.85 28.0 35.1 28.3 36.0 28.1 36.75 27.15 37.7 26.95 37.85 26.1 38.25 26.0 38.25 Q25.35 38.25 24.95 37.75 L24.95 37.7 24.9 37.65 24.65 37.35 24.55 37.25 24.3 36.95 24.15 36.7 23.9 36.45 23.75 36.25 23.8 36.7 23.8 37.95 23.35 39.35 23.1 39.7 23.05 39.7 22.85 40.0 22.25 40.7 22.05 40.85 21.95 40.9 21.95 40.95 21.35 41.35 20.6 41.7 19.9 41.9 19.5 41.95 19.35 41.95 19.25 42.0 18.85 42.05 18.65 42.0 18.3 41.95 18.2 41.95 16.75 41.5 16.05 41.15 15.9 41.0 15.7 40.9 15.6 40.8 15.65 40.9 15.95 41.8 16.0 41.9 16.1 42.2 Q16.35 42.8 16.0 43.3 L15.25 43.9 15.05 43.95 14.95 44.0 14.25 44.25 14.15 44.25 13.95 44.35 13.5 44.4 Q12.8 44.4 12.5 44.0 12.35 44.9 11.3 45.15 L10.5 45.3 10.15 45.4 9.45 45.5 9.3 45.55 9.05 45.6 8.9 45.65 8.7 45.65 8.2 45.75 7.45 45.95 7.15 45.95 Q6.3 45.95 5.9 45.25 L5.65 45.85 Q5.2 46.3 4.5 46.35 L3.7 46.35 3.4 46.4 2.5 46.4 2.25 46.45 1.2 46.45 1.0 46.5 0.65 46.55 0.55 46.55 Q-0.25 46.55 -0.7 45.85 -0.95 46.5 -1.85 46.5 L-2.45 46.5 -2.85 46.45 -3.95 46.15 Q-4.5 45.85 -4.65 45.05 L-4.7 44.9 -4.9 44.85 -5.25 44.8 -5.45 44.8 -5.45 44.85 Q-5.55 45.35 -5.95 45.65 L-6.8 45.95 -7.15 45.95 -7.7 45.85 -8.1 45.85 -8.9 45.55 Q-9.55 45.15 -9.45 44.25 L-9.3 43.75 -10.2 44.25 -11.15 44.55 -11.2 44.6 -12.5 44.6 -14.6 44.1 -16.0 43.6 Q-17.6 43.15 -17.3 41.95 -17.7 42.55 -18.4 42.55 L-19.15 42.35 -19.2 42.3 -19.3 42.25 -19.35 42.2 -19.4 42.2 -19.45 42.15 Q-19.8 42.0 -20.2 41.8 L-20.25 41.75 -20.3 41.75 -21.9 40.9 -21.95 40.85 -22.3 40.65 -22.35 40.6 -23.05 40.25 -23.75 39.5 Q-24.05 38.9 -23.7 38.15 L-23.55 38.0 -23.5 37.9 -23.45 37.75 -23.1 37.0 -23.55 37.45 -24.0 38.1 -24.15 38.25 Q-24.55 38.75 -25.2 38.75 -25.7 38.75 -26.25 38.3 L-26.7 37.95 -26.9 37.75 -27.0 37.7 -27.15 37.6 -27.6 36.75 Q-27.65 36.2 -27.3 35.75 L-27.25 35.65 -27.1 35.45 -26.9 35.25 -26.75 35.05 -26.55 34.85 Q-27.1 34.85 -27.45 34.5 L-27.8 34.0 -27.95 33.2 -28.0 33.25 -28.3 33.7 -28.7 34.15 -28.75 34.25 -28.9 34.4 Q-29.25 34.9 -29.95 34.9 -30.45 34.9 -30.85 34.55 L-31.05 34.4 -31.3 34.15 -31.7 33.85 Q-32.4 33.25 -32.2 32.5 L-32.2 32.4 -31.9 31.8 -31.45 31.3 -31.35 31.15 -30.9 30.6 -30.45 30.1 -30.25 29.8 -29.8 29.3 -29.65 29.1 -29.45 28.9 -29.35 28.75 -29.3 28.7 -29.2 28.55 -28.65 28.0 -28.55 27.85 -28.5 27.75 -28.35 27.55 -28.1 27.3 M-3.2 -43.85 L-3.2 -43.7 -2.8 -41.55 -2.8 -41.35 -2.05 -38.0 -2.0 -37.65 -1.95 -37.45 -1.95 -37.3 -1.9 -36.8 -1.7 -36.15 -1.7 -36.0 -1.65 -35.85 -1.65 -35.75 Q-1.5 -35.15 -1.85 -34.7 -2.2 -34.15 -2.95 -34.0 L-3.9 -33.85 -3.95 -33.8 -4.2 -33.75 -4.45 -33.75 Q-5.55 -33.75 -5.75 -34.85 L-5.75 -34.95 -5.85 -35.2 -5.9 -35.5 -5.9 -35.75 -6.0 -36.25 -6.05 -36.25 Q-6.3 -35.8 -7.0 -35.65 L-7.1 -35.6 -7.2 -35.6 -7.6 -35.7 Q-8.1 -35.85 -8.4 -36.2 L-8.5 -36.25 -8.45 -36.1 -8.45 -35.9 -8.2 -34.75 -8.15 -34.6 -8.1 -34.35 Q-8.0 -33.75 -8.3 -33.35 L-9.2 -32.75 -9.85 -32.65 -9.9 -32.65 -10.4 -32.5 -10.8 -32.45 -10.95 -32.5 -12.15 -31.8 -13.25 -31.5 Q-13.9 -31.5 -14.5 -32.1 L-14.6 -32.25 -14.65 -32.25 -15.3 -32.0 -15.45 -31.85 -15.5 -31.85 -15.45 -31.7 Q-15.3 -31.25 -15.5 -30.75 -15.65 -30.2 -16.35 -29.85 L-16.7 -29.75 -17.25 -29.45 -17.6 -29.35 -17.9 -29.0 -18.0 -28.95 -18.05 -28.9 -18.1 -28.9 -18.2 -28.8 -18.3 -28.75 -18.5 -28.6 -18.75 -28.35 -18.9 -28.3 -19.05 -28.2 -19.1 -28.15 -19.7 -27.7 -19.8 -27.65 -20.65 -27.0 -20.75 -26.95 -21.1 -26.7 -21.2 -26.65 -21.5 -26.45 -21.85 -26.15 Q-22.3 -25.85 -22.75 -25.85 L-22.9 -25.85 Q-23.55 -25.9 -24.1 -26.55 L-24.2 -26.7 -24.25 -26.85 -24.35 -26.95 -25.5 -28.45 -25.65 -28.65 -25.7 -28.75 -25.85 -28.95 -26.0 -29.2 -26.15 -29.35 -26.3 -29.6 -26.85 -30.3 -27.0 -30.6 -27.1 -30.7 -27.1 -30.8 -27.5 -31.2 -27.6 -31.4 Q-27.6 -30.8 -27.85 -30.5 L-27.85 -30.4 -28.25 -30.0 -28.25 -29.95 -28.4 -29.8 -27.95 -29.3 -27.8 -29.2 -27.6 -29.0 -27.45 -28.8 -27.35 -28.7 -26.75 -28.2 -26.4 -27.85 -25.9 -27.4 -25.75 -27.2 -25.6 -27.1 -24.9 -26.45 -24.75 -26.25 -24.7 -26.2 -24.55 -26.1 -24.35 -25.9 Q-23.95 -25.55 -23.95 -24.95 -23.9 -24.3 -24.45 -23.75 L-24.7 -23.55 -24.75 -23.45 -24.9 -23.25 -25.15 -23.05 -25.2 -23.05 -25.35 -22.85 Q-25.75 -22.45 -26.25 -22.45 L-27.0 -22.65 -27.45 -23.0 -27.5 -23.1 -27.75 -23.3 -29.65 -25.15 -29.7 -25.25 -29.9 -25.4 -30.1 -25.65 -30.15 -25.7 -30.35 -25.85 -31.25 -26.75 -31.4 -26.85 -31.5 -26.7 -31.6 -26.65 -31.8 -26.35 Q-32.25 -25.9 -32.95 -25.9 L-33.45 -26.0 -33.2 -25.2 -33.45 -24.25 -32.95 -24.4 -32.9 -24.4 -32.5 -24.5 -31.8 -24.6 -31.65 -24.6 Q-30.45 -24.5 -29.55 -23.85 L-28.7 -23.05 -28.3 -22.35 -28.25 -22.35 -28.1 -21.85 Q-27.8 -21.0 -27.95 -20.6 L-27.95 -20.35 -28.0 -20.35 -28.25 -19.2 -28.3 -19.15 -28.7 -18.45 -28.75 -18.4 -28.75 -18.35 -28.85 -18.2 -29.35 -17.6 -30.25 -16.8 -30.95 -16.6 -31.65 -16.85 -31.85 -16.95 -31.95 -17.05 -32.05 -17.1 -32.65 -17.55 -32.9 -17.7 Q-33.9 -18.5 -33.05 -19.8 L-32.8 -20.1 -34.0 -19.8 -34.7 -19.7 -34.8 -19.7 -35.9 -19.9 -36.95 -20.4 -37.85 -21.2 Q-38.4 -22.05 -38.45 -22.7 L-38.3 -24.0 -38.1 -24.6 -37.5 -25.65 -36.4 -26.85 Q-36.05 -27.2 -35.5 -27.2 L-35.05 -27.1 -34.6 -26.8 -34.5 -26.8 -34.4 -26.7 -34.5 -26.85 -34.8 -27.1 Q-35.75 -28.15 -34.75 -29.2 L-34.1 -29.8 -33.75 -30.2 -33.25 -30.65 -32.85 -31.15 -32.7 -31.25 -32.65 -31.3 -32.6 -31.4 -31.7 -32.3 -31.6 -32.45 -31.3 -32.65 -31.15 -32.8 -30.95 -33.05 -30.55 -33.35 -30.5 -33.4 -29.9 -33.55 -29.3 -33.4 -28.7 -32.9 -28.65 -32.9 -29.05 -33.7 Q-29.2 -34.6 -28.45 -35.2 L-28.25 -35.35 -28.05 -35.45 -27.85 -35.65 -27.45 -35.9 -26.95 -36.3 -26.55 -36.55 -26.45 -36.65 -26.2 -36.85 -25.15 -37.55 -25.0 -37.7 -24.75 -37.9 -23.9 -38.2 Q-23.15 -38.2 -22.75 -37.55 L-22.65 -37.4 -22.5 -37.25 -22.15 -36.75 Q-21.85 -36.4 -21.85 -35.8 L-21.95 -35.35 -21.9 -35.35 Q-21.15 -35.35 -20.7 -34.7 L-20.45 -34.35 -20.4 -34.25 -20.55 -35.1 -20.55 -35.3 -20.6 -35.4 -20.85 -36.55 -20.9 -36.6 -20.9 -36.65 -21.0 -37.2 -21.0 -37.35 -21.05 -37.45 Q-21.7 -39.65 -20.1 -40.4 L-18.7 -41.05 -17.45 -41.4 -17.0 -41.35 Q-16.3 -41.2 -15.85 -40.6 L-15.6 -40.35 -15.45 -40.15 -15.15 -39.85 -15.15 -39.8 -14.8 -39.35 -14.75 -39.25 -14.7 -39.25 -14.65 -39.2 -14.65 -39.15 -14.55 -39.05 -14.05 -38.45 -14.0 -38.35 -13.9 -38.2 -13.35 -37.55 -13.35 -37.5 -13.25 -37.35 -13.25 -37.3 -13.1 -37.2 -13.05 -37.1 -13.0 -37.05 -12.9 -36.9 -12.8 -36.8 -12.8 -36.95 -12.95 -37.75 -13.0 -37.9 -13.0 -37.95 -13.1 -38.45 -13.1 -38.6 -13.2 -38.95 -13.2 -39.2 -13.25 -39.3 -13.35 -39.75 -13.35 -39.8 -13.4 -39.95 -13.4 -40.0 -13.45 -40.15 -13.5 -40.5 -13.8 -41.75 Q-13.95 -42.5 -13.35 -43.1 L-12.7 -43.45 -12.6 -43.5 -12.4 -43.5 -12.15 -43.55 -11.7 -43.7 -11.65 -43.7 -11.25 -43.75 Q-10.65 -43.75 -9.75 -42.85 L-9.0 -42.05 -9.0 -42.0 -8.95 -42.0 -8.6 -41.65 -8.45 -41.55 -8.45 -41.5 -8.4 -41.5 -8.15 -41.25 -8.1 -41.3 -8.0 -41.6 -7.8 -42.0 -7.6 -42.7 -7.55 -42.95 -7.4 -43.45 -7.35 -43.55 -7.35 -43.6 -7.3 -43.65 -7.3 -43.7 -7.2 -44.0 -7.15 -44.05 -7.15 -44.1 -6.15 -44.75 -5.5 -44.85 -5.45 -44.9 -4.9 -45.0 -4.65 -45.0 -3.7 -44.65 Q-3.3 -44.35 -3.2 -43.85 M9.75 -43.45 L9.75 -43.1 9.35 -41.5 9.0 -40.35 8.95 -40.25 8.95 -40.2 8.8 -39.85 8.8 -39.7 8.25 -37.95 7.85 -36.65 7.85 -36.55 7.6 -35.7 7.55 -35.65 7.55 -35.6 7.3 -34.9 7.3 -34.85 7.15 -34.45 7.0 -34.3 6.9 -34.15 6.75 -34.0 6.55 -33.9 5.65 -33.65 5.4 -33.65 5.05 -33.7 3.75 -33.75 Q3.35 -33.75 2.95 -34.05 L2.8 -34.1 2.65 -34.25 2.65 -34.3 2.5 -34.15 1.75 -33.85 1.0 -34.0 0.45 -34.0 0.15 -34.05 -0.55 -34.05 -0.8 -34.3 -1.1 -34.55 -1.2 -34.65 -1.3 -34.8 -1.45 -35.1 -1.55 -35.4 -1.75 -37.15 -1.95 -38.2 -1.95 -38.3 -2.75 -43.5 -2.75 -43.85 -2.8 -43.95 -2.75 -44.1 -2.75 -44.25 -2.7 -44.45 -2.6 -44.65 -2.4 -44.85 -2.4 -44.9 -2.15 -45.15 -1.7 -45.3 -1.0 -45.3 -0.85 -45.25 -0.8 -45.2 -0.05 -45.2 0.4 -45.1 0.6 -45.0 1.0 -44.7 1.15 -44.5 1.15 -44.45 1.35 -44.6 1.5 -44.75 1.75 -44.95 2.0 -45.0 2.25 -45.0 2.4 -45.05 2.55 -45.0 3.4 -44.9 4.0 -44.9 4.1 -44.85 4.3 -44.8 4.55 -44.7 4.75 -44.45 5.05 -43.95 5.1 -43.85 5.15 -43.7 5.15 -43.2 5.25 -42.8 5.25 -42.7 5.3 -42.15 5.3 -42.1 5.45 -42.75 5.5 -42.8 5.5 -42.85 5.8 -43.9 6.05 -44.25 6.2 -44.4 6.55 -44.55 6.7 -44.65 7.75 -44.65 8.3 -44.55 8.9 -44.55 9.55 -43.95 9.7 -43.7 9.75 -43.45 M15.0 -37.15 L15.0 -37.65 14.95 -37.7 14.85 -37.9 14.8 -38.1 14.8 -38.15 14.5 -38.4 14.05 -38.6 13.8 -38.6 13.5 -38.5 13.4 -38.45 13.35 -38.45 13.0 -38.2 13.0 -38.1 12.9 -37.9 12.75 -37.75 12.7 -37.65 12.6 -37.25 12.6 -37.1 12.55 -36.9 12.55 -36.45 12.75 -36.0 12.85 -35.95 13.05 -35.75 13.1 -35.75 13.3 -35.7 13.35 -35.65 13.5 -35.6 13.95 -35.65 14.35 -35.9 14.8 -36.6 14.85 -36.75 14.9 -37.0 15.0 -37.15 M24.35 -30.15 L24.4 -30.2 24.4 -30.25 24.5 -30.3 24.55 -30.4 24.05 -30.25 24.15 -30.15 24.2 -30.05 24.3 -30.15 24.35 -30.15 M24.55 -38.1 L25.0 -37.85 25.75 -37.3 26.35 -36.7 26.45 -36.5 26.8 -35.95 27.15 -35.05 27.15 -34.85 27.2 -34.55 27.2 -34.2 26.85 -32.75 27.9 -33.85 28.05 -34.05 Q28.5 -34.5 29.1 -34.5 29.55 -34.5 30.05 -34.1 L30.25 -33.9 30.35 -33.75 30.4 -33.75 30.7 -33.45 31.1 -33.15 Q31.6 -32.65 31.5 -32.0 31.5 -31.5 31.15 -31.1 L31.05 -31.05 31.1 -31.05 32.3 -31.25 32.45 -31.25 Q33.1 -31.15 33.6 -30.7 L33.8 -30.5 33.8 -30.45 33.9 -30.4 34.35 -29.95 34.45 -29.8 34.5 -29.8 34.65 -29.65 Q35.6 -28.7 34.7 -27.8 34.3 -27.4 33.65 -27.3 L33.35 -27.3 33.3 -27.25 33.25 -27.25 32.75 -27.2 32.35 -27.1 31.9 -27.05 31.7 -27.05 31.3 -27.0 31.25 -26.95 31.05 -26.95 30.65 -26.85 30.5 -26.85 30.4 -26.8 30.25 -26.8 30.05 -26.15 30.0 -26.1 29.9 -25.9 29.9 -25.8 29.4 -24.05 29.4 -24.0 29.65 -24.05 Q30.4 -24.05 30.9 -23.2 L31.15 -22.85 31.25 -24.05 31.45 -24.85 32.0 -25.8 32.85 -26.65 33.9 -27.2 34.85 -27.35 35.5 -27.25 Q36.45 -27.0 37.2 -26.25 L37.95 -25.35 38.7 -23.9 Q39.05 -23.15 38.5 -22.55 L38.05 -22.2 38.0 -22.15 37.8 -22.05 37.6 -21.9 37.5 -21.8 37.3 -21.65 36.5 -21.35 36.05 -21.45 35.25 -22.05 35.25 -22.0 35.2 -21.5 35.2 -21.45 35.15 -21.05 34.95 -20.25 Q34.45 -19.15 33.55 -18.5 L32.5 -18.0 31.7 -17.8 31.3 -17.8 31.15 -17.85 Q30.25 -17.85 29.85 -18.15 L29.65 -18.25 Q28.95 -18.65 28.7 -18.9 L28.65 -18.95 28.35 -19.3 28.2 -19.55 28.1 -19.65 28.1 -19.7 27.95 -19.8 27.6 -20.45 27.15 -21.45 26.75 -21.75 26.05 -22.4 25.85 -22.65 25.7 -22.8 25.4 -23.0 Q25.0 -23.5 25.0 -24.05 L25.3 -25.1 25.3 -25.15 Q24.9 -24.75 24.25 -24.75 23.85 -24.75 23.5 -25.0 L23.35 -25.15 23.25 -25.2 23.05 -25.4 22.9 -25.5 22.5 -25.9 22.5 -25.95 22.25 -26.15 Q22.0 -26.35 21.9 -26.65 L21.9 -26.7 21.25 -26.9 Q20.55 -27.35 20.1 -28.5 L19.8 -29.75 19.7 -29.55 Q19.3 -28.9 18.6 -28.9 18.2 -28.9 17.85 -29.15 L17.55 -29.35 17.4 -29.5 17.25 -29.55 16.75 -29.9 16.55 -30.0 Q16.05 -30.3 15.95 -30.85 15.75 -31.55 16.15 -31.95 L16.3 -32.15 15.05 -31.6 14.65 -31.55 14.6 -31.55 13.4 -31.45 13.3 -31.5 13.25 -31.5 13.0 -31.55 12.8 -31.55 12.6 -31.6 12.05 -31.75 11.25 -32.05 10.6 -32.45 10.25 -32.75 10.15 -32.8 10.05 -32.9 10.0 -32.9 9.6 -33.35 9.4 -33.65 9.35 -33.75 9.3 -33.75 Q8.8 -34.5 8.6 -35.2 L8.4 -36.0 8.4 -36.15 8.35 -36.25 8.35 -36.55 8.45 -37.7 8.45 -37.75 8.85 -39.15 9.15 -39.75 9.85 -40.75 10.35 -41.25 10.3 -41.25 10.75 -41.55 11.15 -41.9 11.45 -42.05 11.45 -42.1 11.5 -42.1 11.6 -42.15 11.9 -42.35 12.35 -42.5 12.4 -42.5 12.65 -42.6 13.55 -42.75 14.3 -42.75 15.05 -42.65 15.7 -42.45 16.3 -42.2 16.45 -42.1 17.2 -41.6 17.25 -41.55 17.3 -41.55 18.05 -40.75 18.65 -39.75 18.75 -39.45 18.8 -39.35 18.8 -39.3 18.9 -39.2 18.9 -39.1 19.05 -38.3 19.1 -37.95 19.1 -37.8 19.15 -37.4 19.1 -36.7 19.0 -36.3 20.2 -38.1 20.35 -38.3 20.5 -38.6 Q21.15 -39.55 21.95 -39.55 L22.75 -39.3 22.95 -39.15 23.05 -39.1 23.15 -39.0 23.35 -38.9 24.15 -38.35 24.35 -38.25 24.55 -38.1" fill="#cfa00a" fill-rule="evenodd" stroke="none"/>
    <path d="M-27.65 27.15 L-27.35 26.85 -26.7 25.95 -26.25 25.8 -26.1 25.85 -26.05 25.9 -26.0 25.9 -26.0 25.95 -25.95 26.0 -25.5 26.35 -25.3 26.45 Q-25.05 26.7 -25.2 27.5 L-25.25 28.25 -25.3 28.5 -25.4 30.2 -25.3 30.8 -24.75 30.75 -24.05 30.55 -23.8 30.45 -23.35 30.35 -22.1 29.8 -21.9 29.75 -21.75 29.65 -21.35 29.75 -20.9 30.2 -20.65 30.35 -20.45 30.55 Q-20.2 30.8 -20.4 31.1 L-20.65 31.35 -21.95 32.85 -24.15 35.6 -24.25 35.75 -24.7 36.15 -25.05 36.7 -25.25 36.85 -25.3 36.95 -26.0 36.9 -26.7 36.35 -26.9 36.15 Q-27.1 36.05 -26.9 35.75 L-26.7 35.45 -26.1 34.7 -25.75 34.35 -25.0 33.5 -24.9 33.3 Q-24.75 33.15 -24.9 33.0 L-25.55 32.95 -26.05 33.05 -26.5 33.15 -27.2 33.1 -27.25 32.95 -27.3 32.6 -27.3 31.2 -27.4 30.5 -27.65 30.4 -28.05 30.7 -28.75 31.6 -29.15 32.0 -30.05 33.15 -30.6 33.2 -30.8 32.95 -31.45 32.45 -31.6 32.05 -31.5 31.8 -29.3 29.1 -28.95 28.75 -28.8 28.55 -27.95 27.6 -27.65 27.15" fill="#fbd248" fill-rule="evenodd" stroke="none"/>
    <path d="M-26.4 25.8 Q-26.6 25.8 -26.7 25.95 L-27.35 26.85 -27.65 27.15 -28.15 27.85 -28.8 28.55 -28.95 28.75 -29.3 29.1 -30.8 30.95 -31.05 31.3 -31.5 31.8 -31.6 32.05 -31.45 32.45 -30.8 32.95 -30.6 33.2 -30.3 33.25 -30.05 33.15 -29.15 32.0 -28.75 31.6 -28.05 30.7 -27.65 30.4 -27.6 30.4 -27.4 30.5 -27.3 31.2 -27.3 32.6 -27.25 32.95 -27.2 33.1 -26.9 33.2 -26.5 33.15 -26.05 33.05 -25.2 32.9 -24.9 33.0 Q-24.75 33.15 -24.9 33.3 L-25.0 33.5 -26.1 34.7 -26.7 35.45 -26.9 35.75 Q-27.1 36.05 -26.9 36.15 L-26.0 36.9 -25.6 37.1 -25.3 36.95 -25.25 36.85 -25.05 36.7 -24.7 36.15 -24.25 35.75 -24.15 35.6 -21.95 32.85 -20.65 31.35 -20.4 31.1 Q-20.2 30.8 -20.45 30.55 L-20.65 30.35 -20.9 30.2 -21.35 29.75 -21.7 29.65 -21.75 29.65 -21.9 29.75 -22.1 29.8 -23.35 30.35 -23.8 30.45 -24.05 30.55 -25.15 30.85 -25.3 30.8 -25.4 30.2 -25.3 28.5 -25.25 28.25 -25.2 27.5 Q-25.05 26.7 -25.3 26.45 L-25.5 26.35 -25.95 26.0 -26.0 25.95 -26.0 25.9 -26.05 25.9 -26.1 25.85 -26.25 25.8 -26.4 25.8 M-29.05 27.35 L-28.95 27.2 -28.85 27.1 -28.65 26.8 -28.55 26.75 -28.5 26.65 -28.45 26.6 -28.4 26.5 -28.15 26.25 -27.45 25.3 Q-27.1 24.8 -26.4 24.8 L-26.15 24.8 Q-25.8 24.8 -25.45 25.1 L-25.4 25.15 -25.1 25.4 -25.0 25.45 -24.95 25.5 -24.7 25.7 Q-24.25 26.1 -24.15 26.6 L-24.2 27.6 -24.2 27.85 -24.25 28.35 -24.3 28.6 -24.3 28.85 -24.35 29.1 -24.35 29.6 -24.15 29.5 -23.85 29.45 -23.75 29.4 -23.55 29.35 -23.25 29.2 -23.1 29.15 -22.45 28.85 -22.3 28.85 -22.25 28.8 -22.2 28.8 -21.95 28.7 -21.9 28.7 -21.8 28.65 -21.7 28.65 Q-21.2 28.65 -20.7 29.0 L-20.2 29.45 -19.8 29.75 -19.8 29.8 Q-19.4 30.2 -19.3 30.75 -19.25 31.3 -19.6 31.75 L-19.75 31.85 -19.9 32.05 -21.2 33.5 -21.85 34.35 -22.0 34.5 -23.1 35.95 -23.95 36.8 -24.0 36.95 -24.25 37.3 -24.55 37.6 Q-24.9 38.1 -25.6 38.1 -26.1 38.1 -26.65 37.7 L-27.05 37.3 Q-27.15 37.25 -27.3 37.15 L-27.35 37.1 -27.55 36.95 -28.0 36.1 Q-28.05 35.55 -27.7 35.1 L-27.6 35.0 -27.3 34.6 -27.1 34.45 -27.0 34.3 -26.95 34.2 Q-27.45 34.2 -27.8 33.85 L-28.2 33.35 -28.3 32.55 -28.4 32.65 -29.05 33.5 -29.15 33.6 -29.3 33.8 Q-29.65 34.25 -30.3 34.25 L-31.25 33.95 -31.4 33.75 -31.45 33.7 -31.65 33.55 -31.8 33.4 -32.1 33.25 Q-32.7 32.75 -32.6 31.85 L-32.6 31.75 -32.3 31.2 -31.85 30.65 -31.75 30.5 -31.05 29.75 -30.85 29.45 -30.6 29.2 -30.3 28.8 -30.2 28.7 -29.85 28.25 -29.75 28.15 -29.7 28.05 -29.6 27.9 -29.4 27.75 -29.3 27.6 -29.05 27.35" fill="#ac800a" fill-rule="evenodd" stroke="none"/>
    <path d="M-19.05 31.2 L-17.15 32.25 -16.8 32.4 -15.75 33.0 -15.3 33.2 Q-14.95 33.4 -15.15 33.75 L-15.35 34.05 -15.55 34.6 -15.8 34.8 -16.0 34.8 -16.3 34.75 -16.6 34.55 -17.1 34.35 -17.2 34.25 -17.75 33.9 -18.4 33.7 -18.8 34.05 -19.0 34.6 -18.8 34.95 -18.45 35.2 -17.85 35.45 -17.4 35.75 -16.95 35.95 -16.65 36.15 -16.65 36.55 -17.05 37.25 -17.2 37.45 -17.85 37.6 -18.65 37.15 -18.9 37.05 -19.2 36.85 -19.65 36.65 -19.9 36.6 Q-20.1 36.55 -20.3 36.95 L-20.6 37.7 -19.95 38.3 -18.6 39.0 -18.35 39.1 -18.15 39.25 -18.05 39.55 -18.2 40.0 -18.25 40.1 -18.35 40.4 -18.5 40.7 Q-18.7 41.05 -19.05 40.85 L-19.65 40.5 -19.9 40.4 -20.4 40.1 -20.85 39.9 -22.3 39.1 -22.6 38.9 -22.95 38.75 -23.2 38.5 -23.2 38.0 -23.0 37.7 -22.85 37.35 -21.1 34.0 -20.9 33.75 -20.7 33.25 -20.1 32.25 -19.85 31.7 -19.55 31.3 -19.05 31.2" fill="#fbd248" fill-rule="evenodd" stroke="none"/>
    <path d="M-20.75 31.25 L-20.15 30.45 Q-19.7 30.15 -19.25 30.15 L-18.6 30.35 -18.35 30.45 -18.2 30.55 -17.6 30.85 -17.3 31.05 -17.05 31.15 -16.7 31.35 -16.55 31.4 -16.3 31.55 -15.95 31.7 -15.3 32.1 -14.85 32.3 Q-14.3 32.6 -14.15 33.15 -14.0 33.7 -14.25 34.2 L-14.45 34.5 -14.7 35.05 -15.35 35.7 -15.7 35.8 Q-15.45 36.5 -15.8 37.05 L-16.35 38.0 -16.4 38.05 Q-16.75 38.55 -17.35 38.7 -17.0 39.15 -17.05 39.55 L-17.3 40.45 -17.3 40.55 -17.4 40.8 -17.45 40.85 -17.45 40.9 -17.6 41.15 Q-18.0 41.9 -18.8 41.9 L-19.55 41.7 -19.6 41.7 -19.6 41.65 -19.65 41.65 -19.75 41.6 -19.85 41.5 -20.4 41.25 -20.45 41.2 -20.6 41.15 -20.65 41.1 -20.7 41.1 -20.85 41.0 -22.25 40.25 -22.3 40.25 -22.75 40.0 -23.05 39.8 -23.45 39.65 Q-24.05 39.35 -24.15 38.85 -24.4 38.15 -24.05 37.55 L-23.85 37.15 -23.75 36.85 -23.65 36.7 -23.05 35.6 -22.8 35.05 -22.65 34.85 -22.1 33.7 -21.9 33.45 -21.85 33.3 -21.8 33.25 -21.75 33.1 -21.6 32.8 -21.4 32.5 -21.3 32.3 -21.1 32.0 -20.75 31.25 M-19.25 31.15 Q-19.55 31.15 -19.55 31.3 L-19.85 31.7 -20.1 32.25 -20.7 33.25 -20.9 33.75 -21.1 34.0 -22.85 37.35 -23.0 37.7 -23.2 38.0 -23.2 38.5 -22.95 38.75 -22.6 38.9 -22.3 39.1 -20.85 39.9 -20.4 40.1 -19.9 40.4 -19.65 40.5 -19.05 40.85 -18.8 40.9 -18.5 40.7 -18.35 40.4 -18.25 40.1 -18.2 40.0 -18.05 39.55 -18.15 39.25 -18.35 39.1 -18.6 39.0 -19.95 38.3 -20.6 37.7 -20.3 36.95 Q-20.1 36.6 -19.9 36.6 L-19.65 36.65 -19.2 36.85 -18.9 37.05 -18.65 37.15 -17.85 37.6 -17.55 37.7 Q-17.3 37.7 -17.2 37.45 L-17.05 37.25 -16.65 36.55 -16.65 36.15 -16.95 35.95 -17.4 35.75 -17.85 35.45 -18.45 35.2 -18.8 34.95 -19.0 34.6 -18.8 34.05 -18.35 33.7 -17.75 33.9 -17.2 34.25 -17.1 34.35 -16.6 34.55 -16.3 34.75 -16.0 34.8 -15.95 34.85 -15.8 34.8 -15.55 34.6 -15.35 34.05 -15.15 33.75 Q-14.95 33.4 -15.3 33.2 L-15.75 33.0 -16.4 32.6 -19.05 31.2 -19.25 31.15" fill="#ac800a" fill-rule="evenodd" stroke="none"/>
    <path d="M-14.15 33.9 L-11.35 34.7 -11.15 34.8 -11.0 34.85 -10.5 35.1 -10.4 35.2 Q-10.15 35.3 -10.15 35.35 L-10.0 35.5 -9.7 35.7 -9.55 35.85 -9.1 36.5 Q-8.65 37.25 -8.55 37.95 L-8.5 38.7 -8.6 39.65 -8.75 39.9 -8.85 40.35 -9.15 41.0 -9.45 41.5 -9.6 41.65 -9.75 41.85 -10.25 42.3 -11.0 42.75 -11.7 42.95 -12.1 42.95 -12.35 43.0 -12.8 42.95 -14.7 42.5 -16.1 42.05 Q-16.8 41.7 -16.7 41.4 L-16.55 41.05 -14.6 34.45 -14.15 33.9 M-14.1 40.5 Q-13.9 40.75 -13.1 41.0 L-12.85 41.1 -11.95 41.05 -11.05 40.3 -10.65 39.55 -10.5 39.05 -10.5 38.7 -10.45 38.45 -10.6 38.0 -10.85 37.5 -11.15 37.1 -12.15 36.6 -12.55 36.5 -12.8 36.55 -13.25 37.05 -14.15 40.0 -14.1 40.5" fill="#fbd248" fill-rule="evenodd" stroke="none"/>
    <path d="M-11.65 38.15 L-11.65 38.1 -11.7 38.05 -11.9 37.8 -12.35 37.55 -12.4 37.75 -12.45 37.85 -13.1 39.95 -12.8 40.05 -12.7 40.1 -12.2 40.1 Q-11.9 40.0 -11.6 39.3 L-11.5 38.95 -11.5 38.45 -11.55 38.2 -11.65 38.15 M-14.1 40.5 L-14.15 40.0 -13.25 37.05 -12.8 36.55 -12.65 36.5 -12.55 36.5 -12.15 36.6 -11.15 37.1 -10.85 37.5 -10.6 38.0 -10.45 38.45 -10.5 38.7 -10.5 39.05 -10.65 39.55 -11.05 40.3 -11.95 41.05 -12.85 41.1 -13.1 41.0 Q-13.9 40.75 -14.1 40.5 M-14.15 33.9 L-14.6 34.45 -16.55 41.05 -16.7 41.4 Q-16.8 41.7 -16.1 42.05 L-14.7 42.5 -12.8 42.95 -12.4 43.0 -12.35 43.0 -12.1 42.95 -11.7 42.95 -11.0 42.75 -10.25 42.3 -9.75 41.85 -9.6 41.65 -9.45 41.5 -9.15 41.0 -8.85 40.35 -8.75 39.9 -8.6 39.65 -8.5 38.7 -8.55 37.95 Q-8.65 37.25 -9.1 36.5 L-9.55 35.85 -9.7 35.7 -10.0 35.5 -10.15 35.35 Q-10.15 35.3 -10.4 35.2 L-10.5 35.1 -11.0 34.85 -11.15 34.8 -11.35 34.7 -14.15 33.9 M-8.25 35.85 Q-7.65 36.8 -7.55 37.8 L-7.5 38.75 -7.65 39.95 -7.75 40.1 -7.75 40.2 -7.8 40.4 -7.9 40.65 -8.25 41.45 -8.7 42.15 -8.85 42.3 -8.85 42.35 -9.1 42.6 -9.35 42.8 -9.65 43.1 -10.55 43.65 -11.55 43.95 -12.05 43.95 -12.25 44.0 -12.4 44.0 -12.75 43.95 -12.85 43.95 -15.0 43.45 -16.4 43.0 Q-17.4 42.7 -17.65 41.95 L-17.65 41.1 -17.5 40.75 -17.15 39.45 -17.15 39.35 -16.7 38.05 -16.45 37.25 -16.45 37.15 -16.4 37.0 -16.3 36.8 -15.65 34.65 -15.55 34.15 Q-15.15 33.0 -14.2 32.9 L-14.15 32.9 -12.75 33.25 -12.65 33.3 -12.45 33.35 -12.4 33.35 -12.2 33.45 -11.5 33.6 -11.3 33.7 -11.25 33.7 -11.05 33.75 -10.85 33.85 -10.8 33.85 -10.7 33.9 Q-10.25 34.0 -9.95 34.25 L-9.85 34.35 -9.55 34.55 -9.45 34.6 -9.35 34.7 -9.2 34.8 -9.2 34.85 -9.15 34.85 -9.05 35.0 -8.9 35.05 -8.9 35.1 -8.85 35.1 -8.25 35.85" fill="#ac800a" fill-rule="evenodd" stroke="none"/>
    <path d="M-4.0 36.2 Q-3.55 36.2 -3.1 36.55 -2.9 36.75 -2.85 37.2 L-2.65 38.55 -2.65 38.8 -2.6 38.95 -2.35 40.7 -2.4 41.05 -2.3 41.25 -2.25 42.1 -2.2 42.35 -2.15 42.9 -2.0 43.85 -2.0 44.1 -1.95 44.35 -1.95 44.7 Q-1.95 44.95 -2.5 44.85 L-3.15 44.85 -3.8 44.65 -4.05 44.2 -4.1 43.9 -4.15 43.75 -4.45 43.35 -5.55 43.15 -5.95 43.2 -6.45 43.35 -6.85 44.05 -6.95 44.25 -7.4 44.3 -8.35 44.2 -8.7 44.1 -8.85 43.75 -8.6 43.05 -8.55 42.8 -8.4 42.4 -8.3 41.85 -8.05 41.15 -7.9 40.85 -6.95 38.0 -6.85 37.8 -6.65 37.25 Q-6.3 36.0 -5.5 36.05 L-5.2 36.1 -4.0 36.2 M-5.0 38.55 L-5.35 39.3 -5.45 39.6 -5.5 39.85 -5.7 40.35 -5.8 40.75 Q-5.85 41.3 -5.1 41.4 L-4.55 41.4 -4.3 41.15 -4.25 41.0 -4.35 40.2 -4.4 39.85 -4.4 39.45 -4.55 38.75 Q-4.6 38.45 -4.8 38.45 L-5.0 38.55" fill="#fbd248" fill-rule="evenodd" stroke="none"/>
    <path d="M-5.0 38.55 L-4.8 38.45 Q-4.6 38.45 -4.55 38.75 L-4.4 39.45 -4.4 39.85 -4.35 40.2 -4.25 41.0 -4.3 41.15 -4.55 41.4 -5.1 41.4 Q-5.85 41.3 -5.8 40.75 L-5.7 40.35 -5.5 39.85 -5.45 39.6 -5.35 39.3 -5.0 38.55 M-3.95 36.2 L-4.0 36.2 -5.2 36.1 -5.5 36.05 -5.65 36.05 Q-6.25 36.05 -6.65 37.25 L-6.85 37.8 -6.95 38.0 -7.9 40.85 -8.05 41.15 -8.3 41.85 -8.4 42.4 -8.55 42.8 -8.6 43.05 -8.85 43.75 -8.7 44.1 -8.35 44.2 -7.4 44.3 -7.15 44.35 -6.95 44.25 -6.85 44.05 -6.45 43.35 -5.95 43.2 -5.65 43.15 -5.55 43.15 -4.45 43.35 -4.15 43.75 -4.1 43.9 -4.05 44.2 -3.8 44.65 -3.15 44.85 -2.5 44.85 -2.25 44.9 -1.95 44.7 -1.95 44.35 -2.0 44.1 -2.0 43.85 -2.15 42.9 -2.2 42.35 -2.25 42.1 -2.3 41.25 -2.4 41.05 -2.35 40.7 -2.6 38.95 -2.65 38.8 -2.65 38.55 -2.85 37.2 Q-2.9 36.75 -3.1 36.55 -3.45 36.2 -3.95 36.2 M-5.4 35.05 L-4.05 35.2 -3.95 35.2 Q-3.05 35.2 -2.45 35.8 -1.9 36.35 -1.85 37.0 L-1.8 37.35 -1.75 37.55 -1.75 37.65 -1.7 37.95 -1.7 38.0 -1.65 38.5 -1.65 38.65 -1.6 38.7 -1.6 38.85 -1.5 39.6 -1.5 39.85 -1.35 40.7 -1.4 40.85 -1.4 40.9 -1.35 41.05 -1.35 41.1 -1.3 41.15 -1.3 41.35 -1.25 41.65 -1.25 41.95 -1.2 42.15 -1.05 43.75 -1.0 43.85 -1.0 43.95 -0.95 44.3 -0.95 44.8 Q-1.05 45.9 -2.25 45.9 L-2.6 45.85 -2.85 45.85 -3.25 45.8 Q-4.7 45.7 -5.05 44.4 L-5.05 44.25 -5.65 44.15 -5.8 44.2 -5.85 44.25 -6.35 45.05 -7.15 45.35 -7.85 45.25 -8.2 45.25 -8.45 45.2 -9.3 44.95 Q-9.95 44.4 -9.85 43.65 L-9.65 43.0 -9.65 42.95 -9.6 42.95 -9.6 42.8 -9.55 42.65 -9.5 42.55 -9.35 42.1 -9.25 41.6 -9.25 41.55 -8.95 40.8 -8.9 40.6 -8.85 40.55 -8.3 38.9 -8.25 38.8 -7.9 37.8 -7.9 37.7 -7.8 37.4 -7.7 37.2 -7.65 37.2 -7.65 37.1 -7.6 37.0 Q-7.1 35.05 -5.65 35.05 L-5.4 35.05" fill="#ac800a" fill-rule="evenodd" stroke="none"/>
    <path d="M1.4 36.8 L1.45 39.05 1.65 42.3 Q1.65 42.75 1.95 42.8 L2.85 42.8 4.15 42.7 Q4.55 42.7 4.55 43.05 L4.55 43.35 4.5 43.75 4.6 44.25 4.1 44.7 2.25 44.75 1.85 44.8 1.55 44.8 1.25 44.85 0.2 44.9 Q-0.3 44.9 -0.3 44.3 L-0.4 41.85 -0.45 41.45 -0.6 38.3 -0.65 38.0 -0.65 37.3 -0.7 36.9 Q-0.7 36.5 -0.35 36.5 L0.4 36.45 0.7 36.4 0.95 36.4 1.4 36.8" fill="#fbd248" fill-rule="evenodd" stroke="none"/>
    <path d="M-0.35 36.5 Q-0.7 36.5 -0.7 36.9 L-0.65 37.3 -0.65 38.0 -0.6 38.3 -0.45 41.45 -0.35 42.35 -0.3 44.3 Q-0.3 44.9 0.15 44.9 L0.2 44.9 0.7 44.85 1.25 44.85 1.55 44.8 1.85 44.8 2.25 44.75 4.1 44.7 4.6 44.25 4.5 43.75 4.55 43.35 4.55 43.05 Q4.55 42.7 4.2 42.7 L4.15 42.7 3.75 42.75 1.95 42.8 Q1.65 42.75 1.65 42.3 L1.45 39.05 1.4 36.8 Q1.4 36.4 0.95 36.4 L0.7 36.4 0.4 36.45 -0.35 36.5 M0.55 35.4 L0.95 35.4 Q1.55 35.4 1.95 35.8 2.35 36.15 2.4 36.75 L2.4 37.05 2.35 37.2 2.4 37.35 2.45 38.95 2.45 39.1 2.5 39.35 2.5 39.9 2.55 40.2 2.55 41.35 2.6 41.8 2.8 41.8 3.0 41.75 3.8 41.75 4.1 41.7 4.2 41.7 Q4.75 41.7 5.15 42.05 L5.55 43.0 5.55 43.4 5.5 43.6 5.5 43.7 5.55 43.85 5.6 44.2 5.25 45.25 Q4.8 45.7 4.15 45.7 L3.6 45.7 3.35 45.75 2.3 45.75 2.1 45.8 1.5 45.8 1.3 45.85 0.6 45.85 0.25 45.9 0.15 45.9 Q-0.4 45.9 -0.8 45.5 -1.25 45.1 -1.3 44.35 L-1.35 42.4 -1.4 42.0 -1.5 39.85 -1.55 39.6 -1.6 38.3 -1.65 38.05 -1.65 37.4 -1.7 37.25 -1.7 36.95 Q-1.7 36.25 -1.35 35.9 -0.95 35.5 -0.4 35.5 L0.5 35.45 0.55 35.4" fill="#ac800a" fill-rule="evenodd" stroke="none"/>
    <path d="M6.3 35.8 Q6.7 35.75 6.85 36.15 L7.0 37.3 7.1 37.65 7.2 38.35 7.5 39.5 7.65 40.7 7.9 41.55 8.3 42.0 10.45 41.55 Q10.85 41.5 10.85 41.85 L10.95 42.55 11.1 43.0 Q11.2 43.45 10.7 43.55 L6.9 44.3 Q6.45 44.4 6.25 43.8 L6.0 42.4 5.95 41.9 5.8 41.4 5.15 38.3 5.1 37.9 5.0 37.65 4.9 36.95 4.75 36.55 Q4.75 36.15 5.05 36.1 L5.8 35.95 6.05 35.85 6.3 35.8" fill="#fbd248" fill-rule="evenodd" stroke="none"/>
    <path d="M6.05 35.85 L5.8 35.95 5.05 36.1 Q4.75 36.15 4.75 36.55 L4.9 36.95 5.0 37.65 5.1 37.9 5.15 38.3 5.8 41.4 5.95 41.9 6.25 43.8 6.75 44.35 6.9 44.3 10.7 43.55 Q11.2 43.45 11.1 43.0 L10.95 42.55 10.85 41.85 10.55 41.55 10.45 41.55 9.15 41.85 8.35 42.0 8.3 42.0 7.9 41.55 7.65 40.7 7.5 39.5 7.2 38.35 7.1 37.65 7.0 37.3 6.85 36.15 Q6.8 35.8 6.45 35.8 L6.3 35.8 6.05 35.85 M5.75 34.9 L5.85 34.9 5.9 34.85 6.1 34.85 6.45 34.8 Q7.55 34.8 7.8 35.95 L7.85 36.25 7.85 36.4 7.9 36.55 7.9 36.65 7.95 36.75 7.95 36.95 8.0 37.1 8.0 37.2 8.2 38.15 8.25 38.25 8.75 40.9 8.85 40.9 8.95 40.85 9.65 40.7 9.85 40.7 10.0 40.65 10.55 40.55 Q11.65 40.55 11.85 41.65 L11.9 42.05 11.95 42.25 11.95 42.35 12.0 42.45 12.1 42.8 Q12.2 43.45 11.9 43.9 11.55 44.4 10.9 44.5 L10.4 44.6 10.1 44.7 9.05 44.85 8.9 44.9 8.65 44.95 8.5 45.0 8.4 45.0 8.3 45.05 7.8 45.15 7.6 45.15 7.1 45.3 6.75 45.35 Q5.55 45.35 5.3 44.0 L5.0 42.3 4.55 40.4 4.55 40.1 4.4 39.6 4.35 39.35 4.35 39.15 4.25 38.9 4.1 38.25 4.1 38.1 4.05 37.85 3.95 37.55 3.9 37.3 3.9 37.2 3.85 37.05 3.8 36.75 Q3.7 36.1 4.0 35.65 4.3 35.2 4.85 35.1 L5.6 34.95 5.75 34.9" fill="#ac800a" fill-rule="evenodd" stroke="none"/>
    <path d="M12.1 34.4 L12.35 34.7 12.45 35.1 14.05 39.75 14.1 40.1 14.3 40.55 14.6 41.5 14.8 41.9 14.55 42.35 14.25 42.4 13.8 42.6 13.5 42.65 13.25 42.75 Q12.95 42.9 12.8 42.6 L12.7 42.35 12.5 41.6 12.0 40.3 11.95 40.1 11.0 37.05 10.8 36.55 10.7 36.15 10.35 35.4 Q10.2 34.9 10.5 34.8 L10.7 34.75 11.8 34.35 12.1 34.4" fill="#fbd248" fill-rule="evenodd" stroke="none"/>
    <path d="M11.9 33.35 L12.65 33.55 13.3 34.35 13.4 34.7 13.4 34.8 13.45 34.85 14.1 36.8 14.15 37.05 14.4 37.75 14.45 38.0 14.6 38.25 14.75 38.65 14.85 39.1 15.0 39.45 15.0 39.55 15.05 39.75 15.15 39.95 15.55 41.15 15.75 41.55 15.6 42.7 14.85 43.3 14.65 43.35 14.55 43.35 14.4 43.4 14.1 43.55 13.9 43.6 13.8 43.6 13.55 43.7 13.1 43.8 Q12.4 43.8 11.95 43.15 L11.75 42.7 11.55 41.9 11.05 40.6 11.0 40.4 10.9 40.15 10.65 39.2 10.5 38.85 10.05 37.4 9.95 37.2 9.75 36.6 9.75 36.45 9.6 36.15 9.45 35.7 Q9.25 35.2 9.4 34.65 9.6 34.1 10.1 33.9 L10.15 33.85 10.2 33.85 10.35 33.8 10.4 33.8 10.6 33.7 10.8 33.65 11.05 33.55 11.25 33.5 11.3 33.45 11.5 33.4 11.9 33.35 M11.9 34.35 L11.8 34.35 10.7 34.75 10.5 34.8 Q10.2 34.9 10.35 35.4 L10.7 36.15 10.8 36.55 11.0 37.05 11.95 40.1 12.0 40.3 12.5 41.6 12.7 42.35 12.8 42.6 13.1 42.8 13.5 42.65 13.8 42.6 14.25 42.4 14.55 42.35 14.8 41.9 14.6 41.5 14.3 40.55 14.1 40.1 14.05 39.75 12.45 35.1 12.35 34.7 12.1 34.4 11.9 34.35" fill="#ac800a" fill-rule="evenodd" stroke="none"/>
    <path d="M18.45 33.85 L17.75 33.9 17.15 34.15 16.9 34.3 16.55 34.7 16.3 35.3 16.25 36.0 16.45 36.85 16.5 36.95 16.75 37.35 17.55 38.15 18.5 38.45 18.85 38.35 19.0 38.35 19.3 38.2 19.5 38.15 19.8 37.95 20.25 37.3 20.45 36.45 20.3 35.75 20.15 35.3 19.95 35.0 19.9 34.85 19.8 34.65 19.2 34.15 18.45 33.85 M18.5 31.85 L19.3 32.05 19.6 32.15 19.85 32.2 20.25 32.45 20.9 32.95 21.2 33.3 22.0 34.6 22.3 35.35 22.45 36.2 22.4 37.2 22.1 38.2 21.85 38.5 21.7 38.75 21.25 39.3 20.95 39.5 20.8 39.65 20.5 39.85 19.85 40.15 19.6 40.2 19.3 40.3 19.05 40.35 18.7 40.35 18.35 40.4 18.0 40.3 16.75 39.95 16.2 39.65 15.9 39.45 15.35 38.8 14.7 37.75 14.55 37.35 14.35 36.4 14.3 35.85 14.35 35.6 14.35 35.05 14.5 34.4 14.65 34.1 14.75 33.8 15.5 32.85 16.35 32.25 17.55 31.85 18.5 31.85" fill="#fbd248" fill-rule="evenodd" stroke="none"/>
    <path d="M19.45 36.45 L19.4 36.35 19.35 36.0 19.1 35.45 19.0 35.3 18.7 35.05 18.65 35.0 18.45 34.9 18.3 34.85 17.95 34.85 17.55 35.05 17.45 35.15 17.45 35.2 17.4 35.2 17.3 35.45 17.25 35.5 17.25 35.55 17.2 35.95 17.25 36.0 17.35 36.35 17.55 36.75 17.65 36.85 17.75 37.0 18.1 37.3 18.45 37.4 18.7 37.4 18.75 37.35 18.85 37.35 19.0 37.25 19.05 37.25 19.15 37.2 19.35 36.85 19.45 36.45 M17.15 34.15 L17.75 33.9 18.3 33.85 18.45 33.85 19.2 34.15 19.8 34.65 19.9 34.85 19.95 35.0 20.15 35.3 20.3 35.75 20.45 36.45 20.25 37.3 19.8 37.95 19.5 38.15 19.3 38.2 19.0 38.35 18.85 38.35 18.5 38.45 17.55 38.15 16.75 37.35 16.5 36.95 16.45 36.85 16.25 36.0 16.3 35.3 16.55 34.7 16.9 34.3 17.15 34.15 M19.3 32.05 L18.5 31.85 17.55 31.85 16.35 32.25 15.5 32.85 15.1 33.3 14.75 33.8 14.65 34.1 14.5 34.4 14.35 35.05 14.35 35.6 14.3 35.85 14.35 36.4 14.55 37.35 14.7 37.75 15.35 38.8 15.9 39.45 16.2 39.65 16.75 39.95 18.0 40.3 18.35 40.4 18.45 40.4 18.7 40.35 19.05 40.35 19.3 40.3 19.6 40.2 19.85 40.15 20.5 39.85 20.8 39.65 20.95 39.5 21.25 39.3 21.7 38.75 21.85 38.5 22.1 38.2 22.4 37.2 22.45 36.2 22.3 35.35 22.0 34.6 21.2 33.3 20.9 32.95 20.25 32.45 19.85 32.2 19.6 32.15 19.3 32.05 M19.6 31.05 L19.9 31.2 20.0 31.2 20.05 31.25 20.15 31.25 20.25 31.3 21.55 32.2 22.0 32.7 22.5 33.45 22.9 34.15 23.25 35.15 23.3 35.25 23.45 36.05 23.4 37.3 22.95 38.7 21.9 40.05 21.7 40.2 21.6 40.3 21.55 40.3 21.4 40.45 20.95 40.7 20.2 41.05 19.1 41.35 18.85 41.35 18.45 41.4 18.25 41.4 17.9 41.35 17.8 41.3 16.35 40.85 15.7 40.5 15.6 40.45 15.55 40.4 15.5 40.4 15.3 40.25 15.25 40.2 14.55 39.4 14.5 39.35 13.8 38.2 13.6 37.6 13.35 36.5 13.3 35.85 13.35 35.55 13.35 34.9 13.45 34.55 13.45 34.4 13.7 33.65 13.75 33.6 13.85 33.4 14.3 32.7 14.5 32.5 14.5 32.45 14.55 32.45 14.6 32.4 14.8 32.15 15.9 31.35 16.45 31.15 16.65 31.1 17.45 30.9 17.5 30.85 18.6 30.85 19.6 31.05" fill="#ac800a" fill-rule="evenodd" stroke="none"/>
    <path d="M24.15 27.4 L24.1 27.05 24.6 26.65 24.8 26.55 24.95 26.4 25.15 26.25 25.3 26.1 Q25.45 25.85 25.8 26.2 L26.1 26.65 29.55 30.85 29.65 31.0 29.8 31.15 30.6 32.05 Q30.9 32.35 30.55 32.65 L29.85 33.15 29.65 33.35 28.9 33.3 26.95 32.6 26.65 32.55 26.4 32.45 24.75 31.9 24.55 31.85 24.35 31.9 24.35 32.15 24.75 32.65 25.6 33.75 26.5 34.7 26.55 34.8 26.85 35.1 Q27.1 35.35 26.85 35.6 L26.7 35.7 26.45 36.0 26.25 36.15 25.95 36.45 25.65 36.6 Q25.45 36.6 25.35 36.45 L24.5 35.45 24.3 35.15 24.1 34.95 23.75 34.5 23.5 34.25 22.55 33.0 22.05 32.5 21.6 31.9 21.1 31.4 20.95 31.15 20.45 30.65 20.3 30.4 Q20.2 30.3 20.35 30.1 L20.65 29.95 20.7 29.85 20.75 29.8 20.95 29.7 21.0 29.6 21.45 29.3 21.55 29.25 21.75 29.1 22.0 29.1 23.25 29.5 23.4 29.5 24.85 30.0 Q25.5 30.15 26.0 30.45 L26.75 30.7 26.5 30.2 26.3 29.95 26.15 29.8 25.95 29.5 25.35 28.75 24.95 28.35 24.4 27.65 24.15 27.4" fill="#fbd248" fill-rule="evenodd" stroke="none"/>
    <path d="M24.1 27.05 L24.15 27.4 24.4 27.65 24.95 28.35 25.35 28.75 25.95 29.5 26.15 29.8 26.3 29.95 26.5 30.2 26.75 30.7 26.0 30.45 Q25.5 30.15 24.85 30.0 L23.4 29.5 23.25 29.5 22.0 29.1 21.75 29.1 21.55 29.25 21.45 29.3 21.0 29.6 20.95 29.7 20.75 29.8 20.7 29.85 20.65 29.95 20.35 30.1 Q20.2 30.3 20.3 30.4 L20.45 30.65 20.95 31.15 21.1 31.4 21.6 31.9 22.05 32.5 22.55 33.0 23.5 34.25 23.75 34.5 24.1 34.95 24.3 35.15 24.5 35.45 25.35 36.45 25.6 36.6 25.65 36.6 25.95 36.45 26.25 36.15 26.45 36.0 26.7 35.7 26.85 35.6 Q27.1 35.35 26.85 35.1 L26.55 34.8 26.5 34.7 25.6 33.75 24.75 32.65 24.35 32.15 24.35 31.9 24.55 31.85 24.75 31.9 26.4 32.45 26.65 32.55 26.95 32.6 29.4 33.45 29.65 33.35 29.85 33.15 30.55 32.65 Q30.9 32.35 30.6 32.05 L29.8 31.15 29.65 31.0 29.55 30.85 26.1 26.65 25.8 26.2 25.45 26.05 25.3 26.1 25.15 26.25 24.95 26.4 24.8 26.55 24.6 26.65 24.1 27.05 M24.2 25.7 L24.3 25.65 24.65 25.3 25.45 25.05 Q26.05 25.05 26.6 25.6 L26.9 26.05 27.05 26.2 28.8 28.4 29.0 28.6 30.35 30.2 30.45 30.35 30.5 30.45 30.55 30.5 30.55 30.55 30.65 30.6 30.75 30.75 31.4 31.4 Q31.75 31.8 31.75 32.4 31.65 33.0 31.15 33.4 L31.0 33.55 30.85 33.65 30.65 33.85 30.5 33.9 30.5 33.95 30.3 34.1 29.4 34.45 28.5 34.2 27.35 33.85 26.9 33.65 26.95 33.7 27.2 34.05 27.25 34.05 27.3 34.15 27.4 34.2 27.65 34.45 Q28.25 35.25 27.7 36.15 L27.35 36.45 27.35 36.5 26.8 37.05 26.6 37.2 Q26.3 37.5 25.75 37.6 L25.6 37.6 Q25.0 37.6 24.55 37.1 L24.5 37.05 24.25 36.75 23.95 36.3 23.75 36.1 23.7 36.0 23.5 35.8 23.1 35.3 23.0 35.15 22.95 35.05 22.8 34.95 21.95 33.9 21.9 33.85 21.55 33.4 21.3 33.15 20.35 32.0 20.25 31.9 20.2 31.8 20.15 31.8 20.05 31.65 19.65 31.25 19.35 30.8 Q19.0 29.95 19.7 29.35 L19.95 29.2 20.05 29.1 20.15 29.05 20.2 28.95 20.4 28.85 20.5 28.7 21.1 28.35 21.4 28.2 21.95 28.1 22.15 28.1 23.85 28.6 23.9 28.6 23.75 28.45 23.65 28.3 23.4 28.05 Q22.8 27.4 23.25 26.6 L23.25 26.55 23.3 26.55 23.7 26.1 24.2 25.7" fill="#ac800a" fill-rule="evenodd" stroke="none"/>
    <path d="M16.75 -18.75 L16.75 -18.3 Q16.75 -15.7 16.0 -12.95 19.0 -9.55 20.5 -5.35 23.4 -4.6 25.55 -3.45 L25.95 -3.2 26.05 -2.75 Q26.8 0.7 26.2 6.4 L26.15 6.95 25.65 7.2 Q23.2 8.4 20.6 9.15 L20.35 10.05 Q18.9 13.8 16.3 16.85 16.9 19.05 17.1 22.15 L17.15 22.6 16.8 22.95 Q13.65 25.8 8.9 27.6 L8.4 27.8 8.0 27.5 Q5.35 25.8 3.75 24.25 L-0.8 24.7 -5.05 24.3 Q-7.0 26.2 -9.25 27.75 L-9.7 28.05 -10.2 27.85 Q-15.6 25.5 -18.1 23.25 L-18.45 22.95 -18.45 22.5 Q-18.45 19.95 -17.7 17.15 -20.7 13.8 -22.2 9.55 -25.1 8.8 -27.25 7.65 L-27.65 7.4 -27.75 6.95 Q-28.5 3.5 -27.9 -2.2 L-27.85 -2.75 -27.35 -3.0 Q-24.9 -4.2 -22.3 -4.95 L-22.05 -5.8 Q-20.6 -9.65 -18.0 -12.6 -18.6 -14.9 -18.8 -17.95 L-18.85 -18.4 -18.5 -18.75 Q-15.45 -21.55 -10.6 -23.4 L-10.1 -23.6 -9.7 -23.3 -5.45 -20.05 -0.9 -20.5 3.35 -20.1 Q5.15 -21.9 7.5 -23.55 L8.0 -23.85 8.5 -23.65 Q13.9 -21.3 16.4 -19.05 L16.75 -18.75" fill="#cfa00a" fill-rule="evenodd" stroke="none"/>
    <path d="M-35.3 -26.5 L-35.1 -26.3 -34.75 -26.15 -34.6 -25.8 Q-34.45 -25.65 -34.7 -25.45 L-34.85 -25.3 -35.45 -24.6 -35.6 -24.15 -35.35 -23.7 -34.75 -23.55 -33.85 -23.85 -33.5 -23.95 -32.7 -24.15 -32.1 -24.2 Q-31.25 -24.2 -30.5 -23.65 L-29.95 -23.15 -29.6 -22.65 -29.45 -22.2 -29.3 -21.35 -29.55 -20.25 -29.95 -19.6 -30.05 -19.4 -30.5 -18.9 -31.1 -18.3 -31.5 -18.3 -32.45 -19.0 -32.75 -19.15 Q-33.0 -19.4 -32.6 -19.85 L-32.25 -20.25 -32.05 -20.4 -31.75 -20.85 -31.55 -21.25 Q-31.55 -21.6 -31.9 -21.85 L-32.2 -22.0 -32.75 -21.95 -33.15 -21.85 -33.5 -21.7 -35.15 -21.35 -35.95 -21.5 -36.8 -21.85 -37.45 -22.45 -37.85 -23.45 -37.6 -24.85 -37.1 -25.75 -36.2 -26.7 -35.8 -26.8 -35.3 -26.5" fill="#fbd248" fill-rule="evenodd" stroke="none"/>
    <path d="M-35.3 -26.5 L-35.8 -26.8 -35.9 -26.85 -36.2 -26.7 -37.1 -25.75 -37.6 -24.85 -37.85 -23.45 -37.45 -22.45 -36.8 -21.85 -35.95 -21.5 -35.15 -21.35 -35.1 -21.35 -33.5 -21.7 -33.15 -21.85 -32.4 -22.0 -32.2 -22.0 -31.9 -21.85 Q-31.55 -21.6 -31.55 -21.25 L-31.75 -20.85 -32.05 -20.4 -32.25 -20.25 -32.6 -19.85 Q-33.0 -19.4 -32.75 -19.15 L-32.45 -19.0 -31.5 -18.3 -31.35 -18.25 -31.1 -18.3 -30.5 -18.9 -30.05 -19.4 -29.95 -19.6 -29.55 -20.25 -29.3 -21.35 -29.45 -22.2 -29.6 -22.65 -29.95 -23.15 -30.5 -23.65 Q-31.25 -24.2 -32.1 -24.2 L-32.15 -24.25 -33.5 -23.95 -33.85 -23.85 -34.75 -23.55 -34.85 -23.55 Q-35.2 -23.55 -35.35 -23.7 L-35.6 -24.15 -35.45 -24.6 -34.85 -25.3 -34.7 -25.45 Q-34.45 -25.65 -34.6 -25.8 L-34.75 -26.15 -35.1 -26.3 -35.3 -26.5 M-35.9 -27.85 L-35.45 -27.75 Q-35.25 -27.7 -35.0 -27.45 L-34.9 -27.4 -34.5 -27.15 -34.4 -27.1 -34.2 -26.95 Q-33.6 -26.55 -33.6 -25.8 -33.55 -25.4 -33.85 -24.9 L-33.3 -25.0 -33.25 -25.05 -32.9 -25.15 -32.15 -25.25 -32.05 -25.2 Q-31.0 -25.2 -29.95 -24.5 L-29.1 -23.7 -28.65 -23.0 -28.5 -22.5 -28.3 -21.2 -28.35 -21.0 -28.35 -20.95 -28.65 -19.85 -28.65 -19.8 -28.9 -19.35 -29.1 -19.1 -29.1 -19.05 -29.15 -19.0 -29.25 -18.85 -29.75 -18.25 Q-30.15 -17.65 -30.65 -17.4 L-31.35 -17.25 Q-31.8 -17.25 -32.05 -17.5 L-32.25 -17.6 -32.35 -17.7 -32.45 -17.75 -32.9 -18.05 -33.0 -18.2 -33.05 -18.2 -33.3 -18.35 -33.8 -18.95 Q-34.0 -19.6 -33.45 -20.45 L-33.2 -20.75 -34.4 -20.45 -35.1 -20.35 -35.15 -20.35 -36.3 -20.55 -37.35 -21.05 -38.25 -21.85 Q-38.75 -22.6 -38.85 -23.35 L-38.7 -24.65 -38.5 -25.25 -37.9 -26.3 -36.8 -27.5 -35.9 -27.85" fill="#ac800a" fill-rule="evenodd" stroke="none"/>
    <path d="M-29.25 -32.35 L-29.1 -32.2 Q-28.85 -31.95 -29.1 -31.6 L-29.35 -31.3 -29.9 -30.5 -29.85 -30.15 -29.6 -29.8 -29.0 -29.2 -26.0 -26.4 -25.75 -26.1 -25.45 -25.85 Q-25.15 -25.55 -25.55 -25.1 L-26.3 -24.35 -26.45 -24.15 -26.9 -24.15 -27.1 -24.3 -27.2 -24.45 -28.95 -26.1 -29.3 -26.5 -31.2 -28.3 -31.3 -28.45 -31.9 -28.6 -32.6 -28.05 -32.8 -27.85 -32.9 -27.65 Q-33.3 -27.4 -33.65 -27.65 L-34.45 -28.45 Q-34.7 -28.7 -34.4 -29.15 L-33.95 -29.55 -31.9 -31.7 -31.7 -31.95 -30.85 -32.7 -30.45 -33.15 -30.15 -33.15 -29.4 -32.45 -29.25 -32.35" fill="#fbd248" fill-rule="evenodd" stroke="none"/>
    <path d="M-29.25 -32.35 L-29.4 -32.45 -30.15 -33.15 -30.3 -33.2 -30.45 -33.15 -30.85 -32.7 -31.7 -31.95 -33.95 -29.55 -34.4 -29.15 Q-34.7 -28.7 -34.45 -28.45 L-33.65 -27.65 Q-33.5 -27.5 -33.3 -27.5 L-32.9 -27.65 -32.8 -27.85 -32.6 -28.05 -31.9 -28.6 -31.75 -28.6 -31.3 -28.45 -31.2 -28.3 -29.3 -26.5 -28.95 -26.1 -27.2 -24.45 -27.1 -24.3 -26.9 -24.15 -26.65 -24.1 -26.45 -24.15 -26.3 -24.35 -25.55 -25.1 Q-25.15 -25.55 -25.45 -25.85 L-25.75 -26.1 -26.0 -26.4 -29.0 -29.2 -29.6 -29.8 -29.85 -30.15 -29.9 -30.5 -29.35 -31.3 -29.1 -31.6 Q-28.85 -31.95 -29.1 -32.2 L-29.25 -32.35 M-30.3 -34.2 L-29.7 -34.05 -29.1 -33.55 -28.95 -33.4 -28.7 -33.2 -28.55 -33.05 -28.4 -32.95 Q-27.6 -32.15 -28.2 -31.1 L-28.25 -31.1 -28.25 -31.05 -28.6 -30.65 -28.8 -30.45 -26.9 -28.6 -26.75 -28.5 -26.15 -27.85 -26.0 -27.75 -24.75 -26.55 Q-24.35 -26.15 -24.35 -25.55 -24.3 -24.95 -24.85 -24.4 L-25.05 -24.15 -25.75 -23.5 Q-26.1 -23.1 -26.65 -23.1 L-27.35 -23.25 -27.85 -23.65 -28.15 -23.95 -28.2 -24.05 -29.9 -25.65 -30.0 -25.8 -30.1 -25.9 -30.25 -26.0 -30.5 -26.3 -31.5 -27.25 -31.65 -27.35 -31.75 -27.45 -31.9 -27.35 -31.95 -27.25 -32.2 -27.0 Q-32.6 -26.5 -33.3 -26.5 -33.9 -26.5 -34.35 -26.95 L-35.15 -27.75 Q-35.55 -28.1 -35.6 -28.65 -35.6 -29.3 -35.1 -29.85 L-34.85 -30.1 -34.65 -30.25 -34.5 -30.45 -33.45 -31.5 -33.25 -31.75 -33.05 -31.95 -32.95 -32.0 -32.8 -32.25 -32.65 -32.4 -32.6 -32.4 -32.4 -32.65 -32.2 -32.8 -31.55 -33.45 -31.35 -33.7 -30.95 -34.0 -30.9 -34.0 -30.9 -34.05 -30.3 -34.2" fill="#ac800a" fill-rule="evenodd" stroke="none"/>
    <path d="M-24.55 -37.7 Q-24.2 -38.0 -23.95 -37.6 L-23.3 -36.8 -23.25 -36.45 -23.3 -36.25 -23.5 -36.0 -23.85 -35.8 -24.3 -35.45 -24.4 -35.35 -24.7 -35.2 -25.0 -35.0 -25.55 -34.5 -25.4 -33.95 -24.95 -33.45 Q-24.8 -33.3 -24.5 -33.45 L-24.1 -33.7 -23.55 -34.15 -23.05 -34.45 -22.65 -34.8 -22.3 -35.0 -21.9 -34.8 -21.4 -34.05 -21.3 -33.85 Q-21.05 -33.5 -21.5 -33.1 L-22.9 -32.15 -23.2 -31.9 -23.45 -31.65 -23.3 -31.05 -22.7 -30.45 Q-22.4 -30.35 -21.8 -30.75 L-20.25 -31.95 Q-20.2 -31.95 -20.05 -32.05 L-19.7 -32.05 -19.3 -31.65 -19.25 -31.6 -18.8 -31.05 Q-18.55 -30.7 -18.9 -30.45 L-19.05 -30.35 -19.75 -29.8 -20.25 -29.5 -21.2 -28.75 -21.7 -28.45 -22.8 -27.6 -23.2 -27.5 Q-23.5 -27.5 -23.65 -27.75 L-23.85 -28.05 -24.15 -28.4 -24.25 -28.6 -24.65 -29.05 -25.25 -30.0 -25.6 -30.4 -26.4 -31.55 -26.55 -31.7 -26.7 -32.0 -28.15 -34.0 -28.45 -34.5 -28.25 -35.0 -26.0 -36.65 -25.65 -36.95 -24.55 -37.7" fill="#fbd248" fill-rule="evenodd" stroke="none"/>
    <path d="M-23.95 -37.6 L-24.25 -37.8 -24.55 -37.7 -25.65 -36.95 -26.0 -36.65 -28.25 -35.0 -28.45 -34.5 -28.15 -34.0 -26.7 -32.0 -26.55 -31.7 -26.4 -31.55 -25.6 -30.4 -25.25 -30.0 -24.65 -29.05 -24.25 -28.6 -24.15 -28.4 -23.85 -28.05 -23.65 -27.75 Q-23.5 -27.5 -23.2 -27.5 L-23.15 -27.5 -22.8 -27.6 -21.7 -28.45 -21.2 -28.75 -20.25 -29.5 -19.75 -29.8 -19.05 -30.35 -18.9 -30.45 Q-18.55 -30.7 -18.8 -31.05 L-19.25 -31.6 -19.3 -31.65 -19.7 -32.05 -19.85 -32.1 -20.25 -31.95 -21.8 -30.75 Q-22.3 -30.4 -22.55 -30.4 L-23.3 -31.05 -23.45 -31.65 -23.2 -31.9 -22.9 -32.15 -21.5 -33.1 Q-21.05 -33.5 -21.3 -33.85 L-21.4 -34.05 -21.9 -34.8 -22.3 -35.0 -22.65 -34.8 -23.05 -34.45 -23.55 -34.15 -24.1 -33.7 -24.5 -33.45 -24.8 -33.4 Q-25.0 -33.4 -25.4 -33.95 L-25.55 -34.5 -25.0 -35.0 -24.7 -35.2 -24.4 -35.35 -24.3 -35.45 -23.85 -35.8 -23.5 -36.0 -23.3 -36.25 -23.25 -36.45 -23.3 -36.8 -23.95 -37.6 M-18.15 -31.9 L-17.95 -31.65 Q-17.2 -30.45 -18.3 -29.65 L-18.4 -29.55 -18.45 -29.55 -18.55 -29.45 -18.6 -29.45 -18.7 -29.4 -19.25 -28.9 -19.4 -28.85 -19.45 -28.8 -19.5 -28.8 -19.65 -28.65 -20.1 -28.35 -20.2 -28.25 -21.05 -27.65 -21.1 -27.6 -21.5 -27.35 -21.55 -27.3 -22.25 -26.8 Q-22.6 -26.5 -23.15 -26.5 L-23.3 -26.5 Q-24.05 -26.6 -24.45 -27.2 L-24.65 -27.5 -24.75 -27.6 -24.95 -27.85 -25.1 -28.0 -25.25 -28.25 -25.9 -29.1 -26.05 -29.4 -26.5 -30.0 -26.7 -30.2 -27.2 -30.95 -27.4 -31.2 -27.45 -31.35 -27.65 -31.55 -28.1 -32.15 -28.4 -32.7 -28.55 -32.9 -29.0 -33.4 -29.45 -34.35 Q-29.55 -35.3 -28.85 -35.85 L-28.6 -36.0 -28.2 -36.3 -27.3 -36.9 -26.95 -37.2 -26.85 -37.25 -26.6 -37.45 -26.45 -37.6 -26.2 -37.75 -25.15 -38.5 -24.25 -38.8 Q-23.55 -38.8 -23.1 -38.2 L-22.5 -37.4 -22.25 -36.45 -22.3 -36.0 Q-21.55 -36.0 -21.05 -35.35 L-20.4 -34.3 Q-20.05 -33.55 -20.3 -33.0 L-19.85 -33.1 -19.25 -32.9 -18.5 -32.25 -18.5 -32.2 -18.45 -32.2 -18.15 -31.9" fill="#ac800a" fill-rule="evenodd" stroke="none"/>
    <path d="M-16.3 -39.85 L-15.9 -39.25 -15.75 -39.1 -15.0 -38.15 -14.6 -37.6 -14.4 -37.3 -13.9 -36.75 -13.7 -36.4 -13.5 -36.2 -13.1 -35.7 -12.95 -35.45 -12.45 -34.9 -12.3 -34.65 -12.1 -34.45 -11.9 -34.15 Q-11.8 -33.95 -12.3 -33.7 L-12.95 -33.35 -13.7 -33.1 -14.15 -33.4 -14.35 -33.65 -14.5 -33.8 -15.0 -33.95 -15.75 -33.7 -16.1 -33.5 -16.45 -33.3 -16.85 -32.85 -16.8 -32.0 -16.8 -31.7 -17.15 -31.4 -18.5 -30.85 -18.85 -31.15 -19.0 -31.9 -19.1 -32.15 -19.2 -32.65 -19.35 -33.2 -19.95 -35.85 -19.95 -36.15 -20.0 -36.3 -20.25 -37.35 -20.3 -37.5 -20.45 -38.4 -20.6 -39.5 Q-20.55 -39.9 -20.05 -40.1 L-19.75 -40.25 Q-19.55 -40.3 -18.6 -40.85 L-17.6 -41.05 -17.0 -40.6 -16.3 -39.85 M-17.15 -37.6 L-17.65 -38.15 -18.05 -38.3 -18.2 -38.1 -18.1 -37.2 -18.0 -36.9 -17.85 -36.05 -17.7 -35.65 Q-17.5 -35.05 -16.7 -35.4 L-16.2 -35.7 Q-15.95 -35.95 -16.1 -36.15 L-16.15 -36.25 -16.65 -36.95 -17.15 -37.6" fill="#fbd248" fill-rule="evenodd" stroke="none"/>
    <path d="M-18.05 -38.3 L-17.95 -38.35 -17.65 -38.15 -16.65 -36.95 -16.15 -36.25 -16.1 -36.15 Q-15.95 -35.95 -16.2 -35.7 L-16.7 -35.4 -17.2 -35.3 -17.7 -35.65 -17.85 -36.05 -18.0 -36.9 -18.1 -37.2 -18.2 -38.1 -18.05 -38.3 M-17.85 -42.05 L-17.4 -42.0 -16.2 -41.25 -16.0 -41.0 -15.85 -40.8 -15.55 -40.5 -15.55 -40.45 -15.5 -40.4 -15.2 -40.0 -15.15 -39.9 -14.95 -39.7 -14.45 -39.05 -14.4 -39.0 -14.3 -38.85 -13.75 -38.2 -13.75 -38.15 -13.7 -38.15 -13.65 -38.0 -13.6 -37.95 -13.5 -37.8 -13.25 -37.55 -12.95 -37.05 -12.9 -37.0 -12.7 -36.85 -11.65 -35.5 -11.55 -35.3 -11.25 -35.05 -11.0 -34.55 Q-10.8 -34.2 -10.9 -33.8 -11.05 -33.2 -11.9 -32.8 L-12.5 -32.45 Q-13.3 -32.1 -13.65 -32.1 -14.25 -32.1 -14.85 -32.7 L-15.0 -32.9 -15.3 -32.8 -15.7 -32.6 -15.85 -32.5 -15.85 -32.35 Q-15.65 -31.9 -15.85 -31.35 -16.05 -30.85 -16.75 -30.5 L-17.65 -30.1 -18.45 -29.85 -18.65 -29.85 -18.75 -29.9 Q-19.45 -30.05 -19.75 -30.7 L-19.9 -31.4 -19.9 -31.5 -20.05 -31.8 -20.05 -31.9 -20.1 -32.2 -20.3 -32.9 -20.35 -32.95 -20.55 -34.0 -20.55 -34.1 -20.7 -34.6 -20.95 -35.75 -20.95 -35.9 -21.0 -36.05 -21.25 -37.15 -21.25 -37.3 -21.35 -37.6 -21.35 -37.9 -21.4 -37.95 -21.4 -38.1 Q-22.05 -40.3 -20.5 -41.05 L-19.15 -41.65 -19.1 -41.7 Q-18.55 -42.05 -17.85 -42.05 M-16.3 -39.85 L-17.0 -40.6 -17.6 -41.05 -17.85 -41.05 -18.6 -40.85 Q-19.55 -40.3 -19.75 -40.25 L-20.05 -40.1 Q-20.55 -39.9 -20.6 -39.5 L-20.45 -38.4 -20.3 -37.5 -20.25 -37.35 -20.0 -36.3 -19.95 -36.15 -19.95 -35.85 -19.35 -33.2 -19.2 -32.65 -19.1 -32.15 -19.0 -31.9 -18.85 -31.15 -18.5 -30.85 -18.45 -30.85 -17.15 -31.4 -16.8 -31.7 -16.8 -32.0 -16.85 -32.85 -16.45 -33.3 -16.1 -33.5 -15.75 -33.7 -15.0 -33.95 -14.95 -33.95 -14.5 -33.8 -14.35 -33.65 -14.15 -33.4 -13.65 -33.1 -12.95 -33.35 -12.3 -33.7 Q-11.8 -33.95 -11.9 -34.15 L-12.1 -34.45 -12.3 -34.65 -12.45 -34.9 -12.95 -35.45 -13.1 -35.7 -13.5 -36.2 -13.7 -36.4 -13.9 -36.75 -14.4 -37.3 -14.6 -37.6 -15.0 -38.15 -15.75 -39.1 -15.9 -39.25 -16.3 -39.85" fill="#ac800a" fill-rule="evenodd" stroke="none"/>
    <path d="M-4.6 -44.35 L-3.35 -38.05 -3.35 -37.9 -3.05 -36.3 -3.0 -36.2 Q-2.9 -35.75 -3.55 -35.6 L-4.75 -35.4 Q-5.1 -35.3 -5.15 -35.7 L-5.25 -36.05 -5.3 -36.6 -5.45 -37.05 -5.5 -37.6 -5.6 -37.95 -5.65 -38.4 -5.8 -39.05 -5.9 -39.15 -6.05 -39.2 -6.55 -38.7 -6.8 -38.25 -7.05 -37.8 -7.55 -37.25 -7.7 -37.25 -8.05 -37.5 -8.85 -38.2 -9.05 -38.3 -9.2 -38.45 -9.85 -38.85 -10.1 -38.7 -10.15 -38.15 -9.85 -36.95 -9.8 -36.35 -9.45 -34.8 Q-9.4 -34.5 -9.8 -34.35 L-10.75 -34.2 -11.0 -34.1 Q-11.3 -34.05 -11.45 -34.25 L-11.6 -34.5 -12.75 -40.65 -12.85 -40.95 -12.9 -41.4 -13.25 -42.55 -13.05 -43.0 -12.85 -43.1 -12.8 -43.15 -12.7 -43.15 -11.85 -43.35 Q-11.45 -43.4 -10.85 -42.75 L-10.3 -42.2 -10.1 -41.95 -8.75 -40.75 Q-8.35 -40.35 -8.2 -40.4 L-7.85 -40.85 -7.25 -42.35 -7.15 -42.55 -7.0 -43.1 -6.85 -43.75 -6.75 -44.0 -6.7 -44.2 -6.35 -44.4 -5.1 -44.65 -4.75 -44.55 -4.6 -44.35" fill="#fbd248" fill-rule="evenodd" stroke="none"/>
    <path d="M-5.0 -44.65 L-5.1 -44.65 -6.35 -44.4 -6.7 -44.2 -6.75 -44.0 -6.85 -43.75 -7.0 -43.1 -7.15 -42.55 -7.25 -42.35 -7.85 -40.85 -8.2 -40.4 Q-8.4 -40.4 -8.75 -40.75 L-10.1 -41.95 -10.3 -42.2 -10.85 -42.75 -11.65 -43.4 -12.7 -43.15 -12.8 -43.15 -12.85 -43.1 -13.05 -43.0 -13.25 -42.55 -12.9 -41.4 -12.85 -40.95 -12.75 -40.65 -11.6 -34.5 -11.45 -34.25 Q-11.35 -34.1 -11.2 -34.1 L-11.0 -34.1 -10.75 -34.2 -9.8 -34.35 Q-9.4 -34.5 -9.45 -34.8 L-9.8 -36.35 -9.85 -36.95 -10.15 -38.15 -10.1 -38.7 -9.85 -38.85 -9.8 -38.85 Q-9.6 -38.85 -9.2 -38.45 L-9.05 -38.3 -8.85 -38.2 -8.05 -37.5 -7.7 -37.25 -7.55 -37.25 -7.05 -37.8 -6.8 -38.25 -6.55 -38.7 -6.05 -39.2 Q-5.8 -39.2 -5.8 -39.05 L-5.65 -38.4 -5.6 -37.95 -5.5 -37.6 -5.45 -37.05 -5.3 -36.6 -5.25 -36.05 -5.15 -35.7 -4.8 -35.35 -4.75 -35.4 -3.55 -35.6 Q-2.9 -35.75 -3.0 -36.2 L-3.05 -36.3 -3.35 -37.9 -3.35 -38.05 -4.6 -44.35 Q-4.6 -44.65 -5.0 -44.65 M-3.2 -42.0 L-2.85 -40.6 -2.85 -40.35 -2.7 -39.9 -2.4 -38.25 -2.35 -38.1 -2.35 -37.95 -2.3 -37.4 -2.05 -36.6 -2.05 -36.35 Q-1.9 -35.8 -2.25 -35.35 -2.6 -34.8 -3.35 -34.65 L-3.95 -34.55 -4.25 -34.45 -4.35 -34.45 -4.6 -34.4 -4.75 -34.35 -4.8 -34.35 Q-5.9 -34.35 -6.1 -35.45 L-6.15 -35.6 -6.4 -36.85 -6.4 -36.9 Q-6.75 -36.4 -7.35 -36.25 L-7.6 -36.25 -8.0 -36.3 -8.8 -36.8 -8.85 -36.9 -8.85 -36.55 -8.6 -35.35 -8.5 -35.0 Q-8.35 -34.5 -8.7 -34.0 -8.95 -33.55 -9.6 -33.35 L-10.0 -33.3 -10.25 -33.3 -10.3 -33.25 -11.2 -33.1 Q-11.75 -33.1 -12.25 -33.6 L-12.25 -33.65 -12.3 -33.7 -12.6 -34.3 -12.7 -35.05 -12.75 -35.2 -13.35 -38.35 -13.4 -38.55 -13.4 -38.6 -13.5 -39.05 -13.5 -39.25 -13.6 -39.85 -13.65 -39.95 -13.7 -40.15 -13.7 -40.4 -13.75 -40.45 -13.75 -40.55 -13.8 -40.65 -13.8 -40.75 -14.2 -42.4 Q-14.35 -43.15 -13.75 -43.75 L-13.05 -44.1 -13.0 -44.1 -12.95 -44.15 -12.8 -44.15 -12.55 -44.2 -12.4 -44.25 -12.1 -44.3 -12.05 -44.35 -11.65 -44.4 Q-11.0 -44.4 -10.15 -43.45 L-9.4 -42.7 -9.4 -42.65 -9.35 -42.6 -9.2 -42.5 -8.85 -42.15 -8.8 -42.15 -8.8 -42.1 -8.5 -41.85 -8.5 -41.95 -8.4 -42.1 -8.4 -42.25 -8.2 -42.65 -8.0 -43.35 -7.9 -43.55 -7.8 -44.1 -7.75 -44.2 -7.7 -44.25 -7.7 -44.35 -7.6 -44.6 -7.55 -44.65 -7.5 -44.75 Q-7.25 -45.25 -6.55 -45.4 L-5.9 -45.5 -5.85 -45.5 -5.55 -45.6 -5.3 -45.65 -5.0 -45.65 Q-4.5 -45.65 -4.1 -45.3 -3.7 -45.0 -3.6 -44.5 L-3.55 -44.35 -3.55 -44.05 -3.2 -42.2 -3.2 -42.0" fill="#ac800a" fill-rule="evenodd" stroke="none"/>
    <path d="M7.75 -44.2 L8.15 -44.2 8.35 -43.95 8.4 -43.8 7.95 -42.1 7.75 -41.6 6.95 -38.95 6.5 -37.45 5.95 -35.8 5.85 -35.6 5.75 -35.45 5.1 -35.3 4.75 -35.35 3.45 -35.4 3.05 -35.5 2.95 -35.65 2.55 -37.6 2.45 -37.7 2.35 -37.6 2.2 -37.3 1.75 -35.85 1.55 -35.65 1.3 -35.55 -0.55 -35.7 -0.75 -35.9 -0.95 -36.2 -2.15 -44.3 -2.15 -44.7 -2.0 -44.9 -1.85 -44.95 -1.5 -44.9 -1.35 -44.85 -0.3 -44.8 -0.1 -44.65 0.0 -44.45 0.85 -38.65 0.9 -38.5 1.0 -38.4 1.2 -38.85 1.55 -39.9 1.85 -40.65 1.95 -41.1 1.95 -41.25 1.85 -42.4 1.8 -42.95 1.7 -43.35 1.6 -44.45 1.8 -44.65 2.0 -44.65 2.95 -44.55 3.45 -44.55 3.6 -44.5 3.75 -44.2 4.05 -41.45 4.25 -40.3 4.45 -38.3 4.5 -38.2 4.55 -38.2 4.8 -38.7 4.9 -39.05 5.15 -40.15 6.35 -44.1 6.45 -44.25 6.55 -44.3 7.35 -44.3 7.75 -44.2" fill="#fbd248" fill-rule="evenodd" stroke="none"/>
    <path d="M7.75 -44.2 L7.35 -44.3 6.55 -44.3 6.45 -44.25 6.35 -44.1 5.15 -40.15 4.9 -39.05 4.8 -38.7 4.55 -38.2 4.5 -38.2 4.45 -38.3 4.25 -40.3 4.05 -41.45 3.75 -44.2 3.6 -44.5 3.45 -44.55 2.95 -44.55 2.0 -44.65 1.8 -44.65 1.6 -44.45 1.7 -43.35 1.8 -42.95 1.85 -42.4 1.95 -41.25 1.95 -41.1 1.85 -40.65 1.55 -39.9 1.2 -38.85 1.0 -38.4 0.9 -38.5 0.85 -38.65 0.0 -44.45 -0.1 -44.65 -0.3 -44.8 -0.85 -44.85 -1.35 -44.85 -1.5 -44.9 -1.6 -44.9 -1.85 -44.95 -2.0 -44.9 -2.15 -44.7 -2.15 -44.3 -0.95 -36.2 -0.75 -35.9 -0.55 -35.7 -0.2 -35.65 -0.15 -35.65 1.3 -35.55 1.55 -35.65 1.75 -35.85 2.2 -37.3 2.35 -37.6 2.45 -37.7 2.55 -37.6 2.95 -35.65 3.05 -35.5 3.45 -35.4 4.75 -35.35 5.1 -35.3 5.25 -35.3 5.75 -35.45 5.85 -35.6 5.95 -35.8 6.5 -37.45 6.95 -38.95 8.4 -43.8 8.35 -43.95 8.15 -44.2 7.75 -44.2 M9.4 -43.95 L9.4 -43.75 8.95 -42.15 8.9 -41.85 8.75 -41.35 8.6 -41.0 8.6 -40.9 8.55 -40.85 8.45 -40.45 8.4 -40.35 7.85 -38.55 7.45 -37.25 7.45 -37.15 7.2 -36.35 7.2 -36.25 7.15 -36.2 6.9 -35.55 6.9 -35.45 6.8 -35.25 6.75 -35.05 6.5 -34.8 6.35 -34.6 6.15 -34.55 5.25 -34.3 5.0 -34.3 4.7 -34.35 3.4 -34.4 2.55 -34.65 2.4 -34.75 2.3 -34.9 2.25 -34.95 2.15 -34.8 1.35 -34.5 1.1 -34.55 0.15 -34.6 0.1 -34.65 -0.2 -34.65 -0.6 -34.7 -0.9 -34.7 -1.15 -34.9 -1.2 -34.95 -1.5 -35.2 -1.6 -35.3 -1.8 -35.75 -1.9 -35.9 -1.9 -36.05 -2.35 -38.85 -2.35 -38.95 -2.55 -40.55 -2.65 -40.95 -3.15 -44.1 -3.15 -44.85 -3.1 -45.1 -2.8 -45.5 -2.75 -45.55 -2.55 -45.8 -2.2 -45.9 -2.1 -45.9 -1.9 -45.95 -1.7 -45.9 -1.4 -45.9 -1.25 -45.85 -0.7 -45.85 -0.45 -45.8 -0.2 -45.8 0.05 -45.75 0.25 -45.65 0.4 -45.5 0.65 -45.35 0.75 -45.15 0.8 -45.1 0.95 -45.25 1.35 -45.55 1.85 -45.65 2.0 -45.7 2.2 -45.65 3.0 -45.55 3.5 -45.55 3.6 -45.5 3.75 -45.5 3.9 -45.45 4.2 -45.3 4.4 -45.1 4.65 -44.6 4.75 -44.45 4.75 -44.15 4.85 -43.45 4.85 -43.3 4.9 -42.8 4.9 -42.75 5.1 -43.4 5.1 -43.45 5.4 -44.55 5.55 -44.75 5.65 -44.85 5.8 -45.05 6.15 -45.2 6.3 -45.25 6.5 -45.25 6.8 -45.3 7.4 -45.3 7.9 -45.2 8.55 -45.2 9.15 -44.6 9.35 -44.35 9.35 -44.1 9.4 -43.95" fill="#ac800a" fill-rule="evenodd" stroke="none"/>
    <path d="M17.35 -39.95 L17.45 -39.65 17.6 -39.4 17.7 -38.9 17.75 -37.5 17.3 -35.95 16.35 -34.4 15.5 -33.7 Q14.85 -33.25 14.45 -33.25 L13.75 -33.15 13.0 -33.1 12.6 -33.2 12.4 -33.2 12.0 -33.3 11.3 -33.6 10.75 -33.9 10.55 -34.05 10.0 -34.6 9.75 -34.95 9.15 -36.15 8.95 -37.25 9.05 -38.15 9.4 -39.45 10.2 -40.7 11.3 -41.7 11.6 -41.9 12.25 -42.2 12.55 -42.3 13.2 -42.4 13.85 -42.4 14.95 -42.15 16.2 -41.5 16.9 -40.75 17.35 -39.95 M12.5 -39.95 L11.9 -39.5 11.4 -38.7 11.4 -38.6 11.25 -38.1 11.2 -37.65 11.2 -36.9 Q11.25 -36.3 11.65 -35.9 L11.85 -35.75 11.95 -35.7 12.1 -35.6 12.4 -35.45 13.0 -35.25 13.85 -35.35 14.7 -35.8 15.35 -36.9 15.6 -37.65 15.55 -38.5 15.4 -38.9 15.25 -39.3 14.7 -39.85 14.1 -40.15 13.8 -40.2 13.2 -40.2 12.5 -39.95" fill="#fbd248" fill-rule="evenodd" stroke="none"/>
    <path d="M14.5 -38.55 L14.4 -38.75 14.15 -39.05 13.75 -39.2 13.65 -39.2 13.5 -39.25 13.45 -39.25 13.4 -39.2 13.1 -39.15 13.05 -39.1 13.0 -39.1 12.65 -38.8 12.6 -38.75 12.5 -38.55 12.4 -38.4 12.35 -38.3 12.2 -37.9 12.2 -37.55 12.2 -37.05 12.35 -36.65 12.45 -36.6 12.65 -36.4 12.75 -36.4 12.9 -36.3 12.95 -36.3 13.15 -36.25 13.55 -36.3 14.0 -36.55 14.05 -36.7 14.3 -37.0 14.45 -37.4 14.55 -37.6 14.6 -37.8 14.6 -38.25 14.55 -38.35 14.5 -38.55 M13.5 -40.25 L14.1 -40.15 14.7 -39.85 15.25 -39.3 15.4 -38.9 15.55 -38.5 15.6 -37.65 15.35 -36.9 14.7 -35.8 13.85 -35.35 13.1 -35.2 13.0 -35.25 12.65 -35.35 12.1 -35.6 11.95 -35.7 11.85 -35.75 11.65 -35.9 Q11.25 -36.3 11.2 -36.9 L11.2 -37.65 11.25 -38.1 11.4 -38.6 11.4 -38.7 11.9 -39.5 12.5 -39.95 13.2 -40.2 13.5 -40.25 M17.35 -39.95 L16.9 -40.75 16.2 -41.5 14.95 -42.15 13.85 -42.4 13.2 -42.4 12.55 -42.3 12.25 -42.2 11.6 -41.9 11.3 -41.7 10.2 -40.7 9.4 -39.45 9.05 -38.15 8.95 -37.25 9.15 -36.15 9.75 -34.95 10.0 -34.6 10.55 -34.05 10.75 -33.9 12.0 -33.3 12.4 -33.2 12.6 -33.2 13.0 -33.1 13.75 -33.15 14.45 -33.25 Q14.85 -33.25 15.5 -33.7 L16.35 -34.4 17.3 -35.95 17.75 -37.5 17.7 -38.9 17.6 -39.4 17.45 -39.65 17.35 -39.95 M16.85 -42.25 L16.9 -42.2 16.9 -42.15 17.05 -42.05 17.7 -41.4 18.25 -40.4 18.4 -40.1 18.4 -39.95 18.45 -39.95 18.5 -39.8 18.55 -39.7 18.7 -38.95 18.7 -38.6 18.75 -38.4 18.75 -38.05 18.7 -37.35 18.25 -35.6 17.7 -34.6 17.65 -34.5 17.1 -33.8 16.1 -32.9 Q15.5 -32.45 14.7 -32.25 L14.25 -32.2 14.2 -32.2 13.05 -32.1 12.85 -32.1 12.6 -32.15 12.45 -32.2 12.2 -32.2 11.65 -32.35 10.55 -32.85 9.85 -33.35 9.8 -33.45 9.75 -33.45 9.2 -34.0 9.0 -34.3 8.9 -34.4 8.2 -35.85 8.0 -36.65 8.0 -36.9 7.95 -37.1 7.95 -37.2 8.05 -38.35 8.05 -38.4 8.5 -39.8 8.8 -40.4 9.45 -41.35 10.2 -42.1 10.25 -42.1 10.75 -42.55 11.05 -42.7 11.1 -42.75 11.15 -42.75 11.2 -42.8 11.95 -43.15 12.0 -43.15 12.25 -43.25 13.15 -43.4 13.95 -43.4 15.3 -43.1 15.9 -42.8 16.05 -42.7 16.85 -42.25" fill="#ac800a" fill-rule="evenodd" stroke="none"/>
    <path d="M22.0 -36.25 L21.7 -35.95 20.65 -34.25 Q20.5 -33.95 20.65 -33.8 L20.95 -33.55 21.15 -33.45 21.65 -33.35 21.9 -33.4 22.1 -33.4 22.7 -33.65 23.4 -34.3 Q23.9 -34.95 23.35 -35.55 L23.0 -35.9 22.55 -36.25 22.3 -36.3 22.0 -36.25 M25.55 -33.75 L25.1 -33.05 24.1 -32.1 23.25 -31.8 22.45 -31.5 22.45 -31.05 22.8 -30.3 22.95 -30.15 22.9 -29.7 22.75 -29.5 22.6 -29.2 22.1 -28.5 Q21.95 -28.25 21.7 -28.3 21.5 -28.3 21.4 -28.4 L20.9 -29.0 20.7 -29.45 20.4 -30.55 20.4 -30.75 20.25 -31.05 20.15 -31.4 19.75 -31.95 19.55 -32.0 19.25 -31.9 18.85 -31.45 18.65 -31.1 18.5 -30.7 Q18.3 -30.4 18.0 -30.6 L17.8 -30.8 17.35 -31.1 Q17.25 -31.1 17.1 -31.25 L16.7 -31.5 Q16.4 -31.65 16.6 -32.05 L16.8 -32.3 18.8 -35.35 19.35 -36.3 20.1 -37.3 20.95 -38.65 Q21.35 -39.35 21.85 -39.1 L24.1 -37.65 24.75 -37.15 25.2 -36.65 25.55 -36.1 25.8 -35.45 25.8 -34.75 25.75 -34.35 25.55 -33.75" fill="#fbd248" fill-rule="evenodd" stroke="none"/>
    <path d="M22.0 -34.4 L22.2 -34.5 22.6 -34.9 22.5 -35.05 22.45 -35.05 22.35 -35.1 22.2 -34.85 22.0 -34.6 21.9 -34.4 22.0 -34.4 M22.0 -36.25 L22.2 -36.3 22.3 -36.3 22.55 -36.25 23.0 -35.9 23.35 -35.55 Q23.9 -34.95 23.4 -34.3 L22.7 -33.65 22.1 -33.4 21.9 -33.4 21.65 -33.35 21.15 -33.45 20.95 -33.55 20.65 -33.8 Q20.5 -33.95 20.65 -34.25 L21.0 -34.9 21.7 -35.95 22.0 -36.25 M24.1 -37.65 L22.1 -38.9 21.85 -39.1 21.55 -39.2 20.95 -38.65 20.1 -37.3 19.35 -36.3 18.8 -35.35 16.8 -32.3 16.6 -32.05 Q16.4 -31.65 16.7 -31.5 L17.1 -31.25 Q17.25 -31.1 17.35 -31.1 L17.8 -30.8 18.0 -30.6 18.2 -30.55 18.5 -30.7 18.65 -31.1 18.85 -31.45 19.25 -31.9 19.55 -32.0 19.75 -31.95 20.15 -31.4 20.25 -31.05 20.4 -30.75 20.4 -30.55 20.7 -29.45 20.9 -29.0 21.4 -28.4 21.75 -28.3 22.1 -28.5 22.6 -29.2 22.75 -29.5 22.9 -29.7 22.95 -30.15 22.8 -30.3 22.45 -31.05 22.45 -31.5 23.25 -31.8 24.1 -32.1 25.1 -33.05 25.55 -33.75 25.75 -34.35 25.8 -34.75 25.8 -35.45 25.55 -36.1 25.2 -36.65 24.75 -37.15 24.1 -37.65 M25.35 -37.95 L26.0 -37.25 26.05 -37.15 26.35 -36.75 26.45 -36.55 26.75 -35.65 26.8 -35.6 26.8 -34.85 Q26.9 -34.15 26.4 -33.2 L26.3 -33.05 26.2 -33.0 25.95 -32.5 24.6 -31.25 Q24.2 -31.0 23.65 -30.9 L23.75 -30.8 23.85 -30.6 Q24.25 -29.95 23.75 -29.15 L23.65 -29.0 23.6 -29.0 23.45 -28.65 23.2 -28.35 23.1 -28.2 23.05 -28.1 22.95 -27.95 Q22.55 -27.3 21.75 -27.3 21.35 -27.3 20.85 -27.55 19.95 -28.15 19.75 -29.15 L19.45 -30.35 19.35 -30.2 Q18.95 -29.55 18.2 -29.55 L17.45 -29.75 17.15 -30.0 17.15 -30.05 17.05 -30.1 17.0 -30.1 16.9 -30.2 16.35 -30.5 16.15 -30.65 Q15.6 -31.0 15.55 -31.5 15.45 -32.0 15.75 -32.6 L16.0 -32.9 16.05 -33.0 16.1 -33.05 16.75 -34.0 16.85 -34.2 16.95 -34.3 17.1 -34.5 17.25 -34.85 17.45 -35.1 17.7 -35.55 17.85 -35.7 18.25 -36.45 19.85 -38.75 20.1 -39.2 Q20.65 -40.2 21.55 -40.2 L22.4 -39.9 22.6 -39.75 22.65 -39.75 22.75 -39.65 22.95 -39.55 23.2 -39.35 23.4 -39.25 24.6 -38.5 25.35 -37.95" fill="#ac800a" fill-rule="evenodd" stroke="none"/>
    <path d="M29.3 -33.65 L29.5 -33.5 30.0 -33.05 30.15 -32.75 30.05 -32.45 29.35 -31.8 29.05 -31.45 28.5 -30.95 28.35 -30.75 28.35 -30.45 28.55 -30.35 31.75 -30.85 31.95 -30.85 32.5 -30.65 32.7 -30.4 33.55 -29.6 Q33.8 -29.35 33.6 -29.1 L33.1 -28.95 29.65 -28.4 29.1 -28.15 28.9 -27.8 28.7 -27.1 28.6 -26.85 27.65 -23.6 27.45 -23.1 27.35 -23.0 27.05 -23.1 26.35 -23.75 26.05 -24.1 25.75 -24.35 25.65 -24.6 25.85 -25.35 26.0 -25.75 26.05 -25.95 26.05 -26.05 26.35 -26.85 26.45 -27.45 26.6 -27.8 26.55 -28.45 25.95 -28.35 25.75 -28.1 25.4 -27.8 24.3 -26.55 23.7 -26.45 23.5 -26.6 23.0 -27.05 22.8 -27.3 22.55 -27.5 22.45 -27.65 22.55 -28.0 24.8 -30.25 25.1 -30.6 25.25 -30.7 25.55 -30.95 25.75 -31.2 28.4 -34.0 28.95 -34.05 29.05 -33.9 29.3 -33.65" fill="#fbd248" fill-rule="evenodd" stroke="none"/>
    <path d="M29.3 -33.65 L29.05 -33.9 28.95 -34.05 28.7 -34.15 28.4 -34.0 25.75 -31.2 25.55 -30.95 25.25 -30.7 25.1 -30.6 22.55 -28.0 22.45 -27.65 22.55 -27.5 22.8 -27.3 23.0 -27.05 23.5 -26.6 23.7 -26.45 23.9 -26.4 Q24.15 -26.4 24.3 -26.55 L25.4 -27.8 25.75 -28.1 25.95 -28.35 26.35 -28.5 26.55 -28.45 26.6 -27.8 26.45 -27.45 26.35 -26.85 26.1 -26.15 26.05 -26.05 26.05 -25.95 26.0 -25.75 25.85 -25.35 25.65 -24.6 25.75 -24.35 26.05 -24.1 26.35 -23.75 27.05 -23.1 Q27.1 -23.0 27.25 -23.0 L27.35 -23.0 27.45 -23.1 27.65 -23.6 28.6 -26.85 28.7 -27.1 28.9 -27.8 29.1 -28.15 29.65 -28.4 33.1 -28.95 33.6 -29.1 Q33.8 -29.35 33.55 -29.6 L32.7 -30.4 32.5 -30.65 31.95 -30.85 31.75 -30.85 30.05 -30.55 28.75 -30.35 28.55 -30.35 28.35 -30.45 28.35 -30.75 28.5 -30.95 29.05 -31.45 29.35 -31.8 30.05 -32.45 30.15 -32.75 30.0 -33.05 29.5 -33.5 29.3 -33.65 M27.15 -34.15 L27.7 -34.7 Q28.1 -35.15 28.7 -35.15 29.25 -35.15 29.65 -34.75 L29.85 -34.5 30.0 -34.4 30.0 -34.35 30.25 -34.2 30.3 -34.1 30.7 -33.75 Q31.2 -33.25 31.15 -32.65 L30.75 -31.75 30.7 -31.7 30.75 -31.7 31.6 -31.85 32.05 -31.85 Q32.7 -31.85 33.2 -31.35 L33.4 -31.1 33.5 -31.0 34.1 -30.45 34.1 -30.4 34.25 -30.3 Q34.7 -29.85 34.7 -29.25 L34.3 -28.4 Q33.9 -28.0 33.25 -27.95 L33.05 -27.95 32.95 -27.9 32.85 -27.9 32.4 -27.8 31.55 -27.7 31.3 -27.7 30.95 -27.6 30.85 -27.6 30.65 -27.55 30.25 -27.5 30.15 -27.5 30.05 -27.45 29.85 -27.4 29.65 -26.8 29.6 -26.7 29.6 -26.65 29.5 -26.5 29.5 -26.4 29.15 -25.2 29.0 -24.65 28.9 -24.2 28.9 -24.15 28.85 -24.1 28.65 -23.4 28.2 -22.4 27.65 -22.05 27.25 -22.0 Q26.75 -22.0 26.35 -22.35 L26.2 -22.55 25.05 -23.65 Q24.55 -24.05 24.65 -24.65 L24.9 -25.7 24.95 -25.8 Q24.45 -25.4 23.9 -25.4 L23.1 -25.65 22.95 -25.75 22.85 -25.8 22.8 -25.9 22.55 -26.15 22.3 -26.35 22.15 -26.55 22.1 -26.6 21.85 -26.8 21.5 -27.3 21.5 -27.4 21.45 -27.5 21.45 -27.95 21.8 -28.7 22.0 -28.85 22.05 -28.85 22.45 -29.25 22.65 -29.5 24.1 -30.95 24.2 -31.1 24.6 -31.5 24.7 -31.55 24.85 -31.65 24.85 -31.7 25.35 -32.2 25.35 -32.25 27.15 -34.15" fill="#ac800a" fill-rule="evenodd" stroke="none"/>
    <path d="M32.0 -25.15 L32.4 -25.8 33.05 -26.45 33.8 -26.9 34.9 -26.9 Q35.55 -26.75 36.1 -26.2 L36.75 -25.4 37.35 -24.25 37.35 -23.85 36.65 -23.35 36.35 -23.1 36.0 -23.05 35.7 -23.25 35.6 -23.5 35.15 -24.3 34.8 -24.55 34.25 -24.5 33.95 -23.95 33.9 -23.05 33.85 -22.85 33.9 -22.65 33.8 -22.3 33.65 -21.25 Q33.3 -20.5 32.55 -19.95 L31.9 -19.6 31.25 -19.45 30.8 -19.45 29.95 -19.65 29.0 -20.25 28.4 -21.05 28.1 -21.6 Q27.8 -22.0 27.75 -22.4 L27.85 -22.75 28.4 -23.15 28.9 -23.4 29.1 -23.6 Q29.4 -23.75 29.7 -23.25 L29.95 -22.75 30.0 -22.55 30.35 -22.1 30.65 -21.8 31.35 -21.85 31.55 -22.1 31.7 -22.65 31.75 -23.05 31.75 -23.45 31.9 -24.6 32.0 -25.15" fill="#fbd248" fill-rule="evenodd" stroke="none"/>
    <path d="M31.05 -25.5 L31.65 -26.45 32.45 -27.3 33.55 -27.85 34.45 -28.0 35.15 -27.9 Q36.3 -27.6 36.8 -26.9 L37.6 -26.0 38.3 -24.55 Q38.65 -23.75 38.1 -23.15 L37.65 -22.85 37.45 -22.65 37.25 -22.5 37.15 -22.45 36.95 -22.3 Q36.65 -22.0 36.1 -22.0 L35.65 -22.1 Q35.2 -22.2 34.9 -22.65 L34.8 -22.1 34.8 -22.05 34.75 -21.7 34.55 -20.85 Q34.2 -19.85 33.15 -19.15 32.65 -18.75 32.15 -18.6 L31.3 -18.45 30.75 -18.45 29.5 -18.75 29.3 -18.85 29.3 -18.9 28.35 -19.5 28.3 -19.55 27.8 -20.2 27.7 -20.3 27.2 -21.1 Q26.8 -21.8 26.75 -22.25 26.65 -23.15 27.3 -23.55 L27.45 -23.7 27.6 -23.75 27.7 -23.8 27.85 -23.95 28.15 -24.15 28.3 -24.2 28.35 -24.25 28.55 -24.4 29.25 -24.65 Q29.9 -24.65 30.55 -23.85 L30.75 -23.45 31.05 -25.5 M32.0 -25.15 L31.9 -24.6 31.75 -23.45 31.75 -23.05 31.7 -22.65 31.55 -22.1 31.35 -21.85 30.95 -21.7 30.65 -21.8 30.35 -22.1 30.0 -22.55 29.95 -22.75 29.7 -23.25 Q29.5 -23.65 29.25 -23.65 L29.1 -23.6 28.9 -23.4 28.4 -23.15 27.85 -22.75 27.75 -22.4 Q27.8 -22.0 28.1 -21.6 L28.4 -21.05 29.0 -20.25 29.95 -19.65 30.8 -19.45 31.25 -19.45 31.9 -19.6 32.55 -19.95 Q33.3 -20.5 33.65 -21.25 L33.8 -22.3 33.9 -22.65 33.85 -22.85 33.9 -23.05 33.95 -23.95 34.25 -24.5 34.55 -24.6 34.8 -24.55 35.15 -24.3 35.6 -23.5 35.7 -23.25 36.0 -23.05 36.1 -23.0 36.35 -23.1 36.65 -23.35 37.35 -23.85 37.35 -24.25 36.75 -25.4 36.1 -26.2 Q35.55 -26.75 34.9 -26.9 L34.45 -27.0 33.8 -26.9 33.05 -26.45 32.4 -25.8 32.0 -25.15" fill="#ac800a" fill-rule="evenodd" stroke="none"/>
    <path d="M12.95 -12.1 Q18.3 -6.7 18.3 0.85 18.3 8.45 12.95 13.8 7.6 19.15 0.0 19.15 -7.55 19.15 -12.95 13.8 -18.3 8.45 -18.3 0.85 -18.3 -6.7 -12.95 -12.1 -7.55 -17.45 0.0 -17.45 7.6 -17.45 12.95 -12.1" fill="#d2a20a" fill-rule="evenodd" stroke="none"/>
    <path d="M12.95 -12.1 Q7.6 -17.45 0.0 -17.45 -7.55 -17.45 -12.95 -12.1 -18.3 -6.7 -18.3 0.85 -18.3 8.45 -12.95 13.8 -7.55 19.15 0.0 19.15 7.6 19.15 12.95 13.8 18.3 8.45 18.3 0.85 18.3 -6.7 12.95 -12.1 Z" fill="none" stroke="#ac800a" stroke-linecap="butt" stroke-linejoin="miter-clip" stroke-miterlimit="4.0" stroke-width="1.0"/>
    <path d="M11.65 -10.8 Q6.85 -15.65 0.0 -15.65 -6.8 -15.65 -11.65 -10.8 -16.5 -5.95 -16.5 0.85 -16.5 7.7 -11.65 12.5 -6.8 17.35 0.0 17.35 6.85 17.35 11.65 12.5 16.5 7.7 16.5 0.85 16.5 -5.95 11.65 -10.8 M4.55 -20.25 Q6.55 -22.3 8.95 -23.95 14.15 -21.75 16.6 -19.55 16.6 -17.0 15.75 -13.95 19.1 -10.35 20.55 -5.75 23.55 -5.1 25.9 -3.8 26.6 -0.4 26.05 5.05 23.7 6.25 20.65 7.1 L20.25 8.45 Q18.8 12.2 16.05 15.35 16.7 17.45 16.95 20.95 14.05 23.65 9.4 25.45 6.45 23.45 4.9 21.9 0.2 23.0 -4.55 21.95 -6.55 24.0 -8.95 25.65 -14.15 23.45 -16.6 21.25 -16.6 18.7 -15.75 15.65 -19.1 12.05 -20.55 7.45 -23.5 6.8 -25.9 5.5 -26.6 2.1 -26.05 -3.35 -23.35 -4.65 -20.65 -5.4 L-20.25 -6.7 Q-18.8 -10.55 -16.05 -13.6 -16.8 -16.1 -16.95 -19.25 -14.2 -21.8 -9.4 -23.75 -6.45 -21.75 -4.9 -20.2 -0.2 -21.3 4.55 -20.25" fill="#fbc310" fill-rule="evenodd" stroke="none"/>
    <path d="M11.65 -10.8 Q16.5 -5.95 16.5 0.85 16.5 7.7 11.65 12.5 6.85 17.35 0.0 17.35 -6.8 17.35 -11.65 12.5 -16.5 7.7 -16.5 0.85 -16.5 -5.95 -11.65 -10.8 -6.8 -15.65 0.0 -15.65 6.85 -15.65 11.65 -10.8" fill="none" stroke="#ac800a" stroke-linecap="butt" stroke-linejoin="miter-clip" stroke-miterlimit="4.0" stroke-width="1.0"/>
    <path d="M4.55 -20.25 Q-0.2 -21.3 -4.9 -20.2 -6.45 -21.75 -9.4 -23.75 -14.2 -21.8 -16.95 -19.25 -16.8 -16.1 -16.05 -13.6 -18.8 -10.55 -20.25 -6.7 L-20.65 -5.4 Q-23.35 -4.65 -26.05 -3.35 -26.6 2.1 -25.9 5.5 -23.5 6.8 -20.55 7.45 -19.1 12.05 -15.75 15.65 -16.6 18.7 -16.6 21.25 -14.15 23.45 -8.95 25.65 -6.55 24.0 -4.55 21.95 0.2 23.0 4.9 21.9 6.45 23.45 9.4 25.45 14.05 23.65 16.95 20.95 16.7 17.45 16.05 15.35 18.8 12.2 20.25 8.45 L20.65 7.1 Q23.7 6.25 26.05 5.05 26.6 -0.4 25.9 -3.8 23.55 -5.1 20.55 -5.75 19.1 -10.35 15.75 -13.95 16.6 -17.0 16.6 -19.55 14.15 -21.75 8.95 -23.95 6.55 -22.3 4.55 -20.25 Z" fill="none" stroke="#ac800a" stroke-linecap="butt" stroke-linejoin="miter-clip" stroke-miterlimit="4.0" stroke-width="1.5"/>
    <path d="M9.25 -20.95 Q12.25 -19.6 13.9 -18.35 13.75 -16.4 13.25 -14.65 L12.85 -13.25 Q9.65 -16.15 5.45 -17.45 L6.4 -18.4 9.25 -20.95 M18.6 -3.55 L19.95 -3.2 Q21.85 -2.8 23.55 -2.05 23.85 0.45 23.6 3.3 L19.95 4.55 18.65 4.95 19.1 0.85 Q19.1 -1.2 18.6 -3.55 M-19.1 0.85 Q-19.1 2.9 -18.6 5.25 L-19.95 4.95 -23.55 3.75 Q-23.85 1.55 -23.6 -1.6 L-19.95 -2.85 -18.65 -3.25 -19.1 0.85 M-6.8 -18.35 L-5.8 -17.35 Q-9.95 -16.0 -13.1 -13.0 L-13.55 -14.4 -14.25 -18.15 Q-12.25 -19.65 -9.7 -20.8 L-6.8 -18.35 M-9.25 22.65 Q-12.25 21.35 -13.95 20.05 L-13.25 16.35 -12.85 14.95 Q-9.75 17.8 -5.45 19.15 L-6.4 20.15 -9.25 22.65 M9.7 22.5 L6.8 20.05 5.8 19.05 Q9.95 17.7 13.1 14.7 L13.55 16.1 14.25 19.85 Q12.25 21.35 9.7 22.5" fill="#fbd248" fill-rule="evenodd" stroke="none"/>
    <path d="M5.15 0.85 Q5.15 -1.3 3.65 -2.8 2.15 -4.3 0.0 -4.3 -2.15 -4.3 -3.65 -2.8 -5.15 -1.3 -5.15 0.85 -5.15 3.0 -3.65 4.5 -2.15 6.0 0.0 6.0 2.15 6.0 3.65 4.5 5.15 3.0 5.15 0.85 M8.2 -7.35 Q11.55 -3.95 11.55 0.85 11.55 5.65 8.2 9.05 4.8 12.45 0.0 12.45 -4.8 12.45 -8.2 9.05 -11.6 5.65 -11.6 0.85 -11.6 -3.95 -8.2 -7.35 -4.8 -10.75 0.0 -10.75 4.8 -10.75 8.2 -7.35" fill="#fbc310" fill-rule="evenodd" stroke="none"/>
    <path d="M8.2 -7.35 Q4.8 -10.75 0.0 -10.75 -4.8 -10.75 -8.2 -7.35 -11.6 -3.95 -11.6 0.85 -11.6 5.65 -8.2 9.05 -4.8 12.45 0.0 12.45 4.8 12.45 8.2 9.05 11.55 5.65 11.55 0.85 11.55 -3.95 8.2 -7.35 M5.15 0.85 Q5.15 3.0 3.65 4.5 2.15 6.0 0.0 6.0 -2.15 6.0 -3.65 4.5 -5.15 3.0 -5.15 0.85 -5.15 -1.3 -3.65 -2.8 -2.15 -4.3 0.0 -4.3 2.15 -4.3 3.65 -2.8 5.15 -1.3 5.15 0.85 Z" fill="none" stroke="#ac800a" stroke-linecap="butt" stroke-linejoin="miter-clip" stroke-miterlimit="4.0" stroke-width="1.0"/>
  </g>
</svg>
