<?xml version="1.0" encoding="UTF-8" standalone="no"?>
<svg xmlns:ffdec="https://www.free-decompiler.com/flash" xmlns:xlink="http://www.w3.org/1999/xlink" ffdec:objectType="shape" height="92.95px" width="85.4px" xmlns="http://www.w3.org/2000/svg">
  <g transform="matrix(1.0, 0.0, 0.0, 1.0, 42.55, 45.75)">
    <path d="M18.15 36.15 L17.85 36.15 17.5 36.3 17.3 36.5 17.2 36.75 17.15 36.8 17.15 36.85 17.1 37.2 17.15 37.3 17.25 37.65 17.45 38.05 17.45 38.1 17.55 38.15 17.65 38.3 18.0 38.6 18.35 38.7 18.4 38.7 18.6 38.65 18.65 38.65 18.75 38.6 18.9 38.55 18.95 38.55 19.05 38.45 19.25 38.15 19.35 37.75 19.3 37.65 19.25 37.3 19.1 36.95 18.95 36.75 18.9 36.6 18.6 36.3 18.55 36.3 18.15 36.15 M-17.2 40.5 L-17.1 40.15 -16.95 39.8 -17.45 39.95 -17.2 40.5 M-11.7 39.5 L-11.8 39.4 -11.8 39.35 -12.0 39.1 -12.45 38.85 -12.55 39.05 -12.55 39.15 -13.2 41.25 -12.9 41.35 -12.8 41.4 -12.3 41.4 Q-11.95 41.3 -11.7 40.55 L-11.6 40.25 -11.6 39.75 -11.7 39.5 M-28.5 27.8 L-27.6 26.6 Q-27.15 26.05 -26.5 26.05 L-26.3 26.1 Q-25.9 26.1 -25.55 26.4 L-25.5 26.45 -25.2 26.65 -25.2 26.7 -25.1 26.8 -24.85 26.95 -24.8 26.95 -24.8 27.0 Q-24.35 27.35 -24.25 27.9 L-24.3 28.9 -24.3 29.15 -24.35 29.65 -24.4 29.9 -24.45 29.95 -24.45 30.65 -24.5 30.9 -24.35 30.85 -24.25 30.8 -23.95 30.75 -23.85 30.7 -23.65 30.65 -23.35 30.5 -23.2 30.45 -23.05 30.35 -22.55 30.15 -22.5 30.15 -22.4 30.1 -22.35 30.1 -22.0 29.95 -21.8 29.95 Q-21.3 29.95 -20.85 30.3 L-20.35 30.75 Q-20.25 30.75 -20.1 30.9 L-19.9 31.1 -19.6 31.5 -19.35 31.45 -18.7 31.65 -18.05 32.0 -17.7 32.15 -17.4 32.35 Q-16.9 32.6 -16.45 32.8 L-16.3 32.9 -16.05 33.0 -15.4 33.4 -14.95 33.6 -14.35 34.2 -14.25 34.2 Q-13.75 34.2 -12.9 34.55 L-12.6 34.65 -12.5 34.65 -12.45 34.7 -12.3 34.75 -11.6 34.9 -11.4 35.0 -11.35 35.0 -11.15 35.05 -10.95 35.15 -10.9 35.15 -10.8 35.2 Q-10.35 35.3 -10.05 35.55 L-9.95 35.6 -9.95 35.65 -9.65 35.85 -9.55 35.9 -9.35 36.1 -9.3 36.1 -9.0 36.4 -8.5 37.0 Q-8.0 37.7 -7.8 38.5 L-7.75 38.45 -7.75 38.4 -7.7 38.3 Q-7.2 36.35 -5.75 36.35 L-5.5 36.35 -4.1 36.5 -4.05 36.5 Q-3.25 36.5 -2.55 37.1 -2.0 37.65 -1.95 38.3 L-1.9 38.6 -1.9 38.85 -1.85 38.95 -1.8 39.25 -1.8 39.3 -1.75 39.75 -1.75 40.0 -1.7 40.1 -1.7 39.6 -1.75 39.35 -1.75 38.7 -1.8 38.5 -1.8 38.25 Q-1.9 37.65 -1.45 37.2 -1.15 36.85 -0.5 36.75 L0.4 36.75 0.45 36.7 0.85 36.7 Q1.45 36.7 1.85 37.1 2.25 37.45 2.3 38.05 L2.25 38.35 2.25 38.75 2.3 38.85 2.4 41.2 2.45 41.45 2.45 42.65 2.5 43.1 2.7 43.1 2.85 43.05 3.7 43.05 4.0 43.0 4.1 43.0 4.8 43.2 4.75 42.95 4.6 42.55 4.45 41.65 4.45 41.5 4.4 41.4 4.0 39.55 4.0 39.4 3.9 39.15 3.8 38.6 3.8 38.5 3.75 38.35 3.7 38.05 Q3.5 37.5 3.9 36.95 4.2 36.5 4.75 36.4 L5.5 36.25 5.65 36.2 5.75 36.2 5.8 36.15 6.0 36.1 6.3 36.1 Q7.45 36.1 7.7 37.25 L7.75 37.5 7.75 37.7 7.8 37.85 7.8 37.95 7.85 38.05 7.85 38.25 7.9 38.4 7.9 38.5 8.1 39.45 8.1 39.55 8.2 39.8 8.65 42.2 8.75 42.2 8.85 42.15 9.55 42.0 9.75 42.0 9.85 41.95 10.15 41.85 10.45 41.85 11.0 41.95 10.95 41.9 10.55 40.5 10.05 39.25 10.0 38.9 9.9 38.7 9.85 38.5 9.3 37.0 Q9.15 36.5 9.3 35.95 9.5 35.4 10.0 35.2 L10.0 35.15 10.05 35.15 10.25 35.1 10.3 35.05 10.7 34.95 10.95 34.85 11.15 34.8 11.2 34.75 11.4 34.7 11.8 34.65 12.55 34.85 13.2 35.65 13.3 36.0 13.3 36.05 13.35 35.85 13.35 35.7 13.6 34.95 13.65 34.9 13.7 34.7 Q13.9 34.3 14.2 34.0 L14.4 33.8 14.4 33.75 14.45 33.75 14.5 33.65 14.7 33.45 15.75 32.65 16.3 32.45 16.55 32.4 17.35 32.15 18.45 32.15 19.4 32.35 19.25 32.1 Q18.9 31.25 19.6 30.65 L19.85 30.5 19.95 30.35 20.0 30.35 20.1 30.25 20.2 30.2 20.25 30.1 21.25 29.5 21.8 29.4 22.05 29.4 23.75 29.9 23.65 29.75 23.45 29.55 23.3 29.35 Q22.75 28.7 23.1 27.9 L23.15 27.85 23.6 27.4 24.1 27.0 24.2 26.95 24.35 26.8 24.5 26.6 Q24.9 26.3 25.35 26.3 26.0 26.3 26.45 26.9 L26.65 27.15 26.8 27.3 28.35 29.25 28.5 29.5 29.35 30.45 30.25 31.5 30.35 31.65 30.4 31.7 30.4 31.75 30.55 31.9 30.65 32.05 31.3 32.7 31.6 33.45 Q31.75 34.15 31.05 34.7 L30.9 34.85 30.5 35.15 30.4 35.2 30.2 35.4 29.3 35.75 28.4 35.5 27.25 35.15 26.8 34.95 26.8 35.0 27.1 35.35 27.15 35.35 27.2 35.45 27.3 35.5 27.5 35.75 27.8 36.65 27.6 37.45 27.25 37.75 27.2 37.8 27.1 37.95 26.45 38.5 25.6 38.9 25.5 38.9 Q24.95 38.9 24.45 38.4 L24.45 38.35 24.15 38.05 24.05 37.9 23.65 37.4 23.6 37.3 23.4 37.1 23.25 36.9 23.3 37.35 23.3 38.6 22.85 40.0 22.6 40.35 22.55 40.35 22.35 40.65 21.75 41.35 21.55 41.5 21.45 41.6 20.85 42.0 20.1 42.35 19.0 42.65 18.75 42.65 18.35 42.7 18.15 42.7 17.8 42.6 17.7 42.6 16.25 42.15 15.6 41.8 15.5 41.75 15.4 41.65 15.2 41.55 15.1 41.45 15.15 41.55 15.45 42.45 15.5 42.55 15.6 42.85 15.55 43.9 14.75 44.6 14.55 44.65 14.45 44.65 14.25 44.7 14.0 44.85 13.8 44.9 13.65 44.9 13.45 45.0 13.0 45.1 Q12.35 45.1 12.0 44.65 11.85 45.6 10.8 45.8 L10.0 45.95 9.65 46.05 8.95 46.15 8.8 46.2 8.55 46.25 8.4 46.3 8.3 46.3 8.2 46.35 8.0 46.35 6.65 46.65 Q5.8 46.65 5.4 45.95 L5.15 46.5 Q4.7 46.95 4.0 47.0 L3.5 47.0 3.25 47.05 2.15 47.05 2.0 47.1 1.4 47.1 1.2 47.15 0.5 47.15 0.15 47.2 0.05 47.2 Q-0.75 47.2 -1.15 46.5 -1.5 47.2 -2.35 47.2 L-2.7 47.15 -2.95 47.15 -3.35 47.1 -4.45 46.8 Q-5.0 46.5 -5.15 45.7 L-5.15 45.55 -5.75 45.45 -5.95 45.45 -5.95 45.5 -6.45 46.35 -7.3 46.65 -8.0 46.55 -8.3 46.55 -8.55 46.5 -9.4 46.2 Q-10.05 45.8 -9.95 44.95 L-9.8 44.4 -10.7 44.95 -11.65 45.25 -12.35 45.25 -12.4 45.3 -12.55 45.3 -12.85 45.25 -12.95 45.25 -15.1 44.75 -15.6 44.55 -16.5 44.3 Q-17.95 43.8 -17.8 42.6 -18.2 43.2 -18.9 43.2 L-19.6 43.0 -19.65 43.0 -19.7 42.95 -19.8 42.9 -19.85 42.85 -19.9 42.85 -19.95 42.8 -20.5 42.55 -20.55 42.5 -20.7 42.45 -20.75 42.4 -20.8 42.4 -20.95 42.3 -22.8 41.3 -22.85 41.3 -23.15 41.1 -23.55 40.95 Q-24.15 40.65 -24.25 40.15 -24.5 39.4 -24.2 38.85 L-24.05 38.65 -23.95 38.45 -23.85 38.15 -23.75 38.0 -23.6 37.65 -24.05 38.1 -24.5 38.75 -24.65 38.9 Q-25.05 39.4 -25.7 39.4 -26.2 39.4 -26.75 39.0 L-27.0 38.8 -27.15 38.6 -27.4 38.4 -27.45 38.4 -27.65 38.25 -28.1 37.4 Q-28.15 36.95 -27.8 36.4 L-27.75 36.3 -27.6 36.1 -27.4 35.9 -27.25 35.7 -27.05 35.5 Q-27.7 35.5 -27.9 35.15 -28.2 35.0 -28.3 34.65 L-28.4 33.85 -28.5 33.95 -29.2 34.8 -29.25 34.9 -29.4 35.1 Q-29.75 35.55 -30.4 35.55 L-31.35 35.25 -31.5 35.05 -31.6 35.0 -31.8 34.8 -32.2 34.5 Q-32.9 33.9 -32.7 33.15 L-32.7 33.05 -32.4 32.45 -31.85 31.85 -30.45 30.1 -30.3 30.0 -30.15 29.75 -29.95 29.55 -29.85 29.4 -29.8 29.35 -29.7 29.2 -29.5 29.05 -29.4 28.9 -29.15 28.65 -29.05 28.5 -29.0 28.4 -28.85 28.2 -28.6 27.95 -28.6 27.9 -28.5 27.8 M-36.15 -14.9 L-36.8 -15.05 -37.5 -15.45 -37.6 -15.45 -37.75 -15.55 -38.4 -16.05 -38.45 -15.95 -38.4 -15.8 -38.35 -15.45 -38.05 -15.15 -37.45 -14.8 -37.25 -14.75 -37.15 -14.75 -37.05 -14.7 -36.8 -14.65 -36.7 -14.7 -36.15 -14.85 -36.05 -14.95 -36.15 -14.9 M-29.5 -24.85 L-29.6 -24.9 -29.55 -24.7 -29.45 -24.75 -29.5 -24.85 M-12.1 -40.65 L-12.05 -40.6 -12.0 -40.4 Q-11.55 -39.4 -12.6 -38.7 L-12.6 -38.65 -12.65 -38.65 -13.2 -38.4 -13.4 -38.35 -12.9 -37.0 -12.6 -36.25 -12.55 -36.2 -12.45 -35.85 -12.35 -35.7 -12.1 -35.05 -12.0 -34.7 -11.8 -34.35 -11.6 -33.85 -11.55 -33.6 -11.5 -33.5 -11.35 -33.1 Q-11.05 -32.5 -11.5 -31.8 L-12.35 -31.2 -12.75 -31.0 -13.25 -30.85 -13.3 -30.85 -13.55 -30.7 -14.0 -30.65 Q-14.65 -30.65 -15.1 -31.2 L-15.2 -31.4 -15.15 -30.75 Q-15.3 -30.2 -16.0 -29.8 L-16.55 -29.4 Q-17.3 -28.9 -17.85 -28.9 L-18.95 -29.35 -19.1 -29.5 -19.4 -29.35 -19.9 -29.0 -19.85 -28.85 Q-19.65 -28.45 -19.75 -27.9 -19.9 -27.25 -20.55 -26.95 L-20.75 -26.8 -21.05 -26.65 -21.15 -26.55 -21.55 -26.3 -21.85 -25.95 -21.9 -25.9 -21.95 -25.9 -22.1 -25.75 -22.2 -25.7 -22.35 -25.5 -22.6 -25.25 -22.7 -25.2 -23.95 -24.0 -24.4 -23.65 -24.7 -23.35 -24.8 -23.3 -25.05 -23.0 -25.4 -22.7 Q-25.65 -22.45 -26.15 -22.35 L-26.45 -21.7 Q-27.05 -20.85 -28.1 -20.65 L-29.35 -20.45 -29.15 -20.35 Q-28.75 -20.0 -28.65 -19.45 -28.5 -18.95 -28.9 -18.45 L-29.15 -18.15 -29.2 -18.15 -29.25 -18.05 -29.3 -18.0 -29.35 -17.9 -29.6 -17.6 -29.65 -17.45 -29.85 -17.2 -30.45 -16.75 -30.5 -16.15 -31.1 -14.7 -31.15 -14.6 -31.2 -14.45 -31.35 -14.15 -31.95 -13.2 -32.75 -12.25 -32.9 -12.15 -33.05 -11.95 -33.1 -11.95 -33.1 -11.9 -34.9 -10.8 -36.25 -10.5 -37.5 -10.5 -38.25 -10.65 -38.3 -10.65 -38.65 -10.75 -39.7 -11.15 -40.55 -11.65 -41.55 -12.55 -42.1 -13.45 -42.45 -14.55 -42.55 -15.15 -42.55 -15.6 -42.5 -16.45 -42.1 -17.8 -41.95 -18.15 -41.95 -18.25 -41.9 -18.3 -41.8 -18.5 -41.3 -19.65 Q-40.7 -20.8 -40.05 -21.05 L-39.25 -21.3 -38.6 -21.1 -38.4 -21.0 -38.2 -20.95 -38.05 -20.85 -37.85 -20.8 -37.6 -20.65 -36.95 -20.05 -36.3 -20.2 -36.0 -20.2 -36.8 -20.85 -37.1 -21.05 -37.65 -21.5 -38.1 -21.75 -38.75 -22.45 Q-39.3 -23.25 -38.65 -24.1 L-38.5 -24.3 -38.45 -24.35 -38.05 -24.9 Q-37.9 -24.95 -37.9 -25.1 L-37.2 -26.0 -37.05 -26.25 -36.45 -26.95 -35.8 -27.45 -35.7 -27.55 -35.6 -27.55 -35.05 -27.85 -35.05 -27.9 -35.0 -27.9 -34.1 -28.15 -33.15 -28.15 -32.35 -27.9 -32.4 -28.0 -32.9 -28.5 -33.45 -29.3 Q-33.7 -30.25 -33.05 -30.9 L-32.65 -31.2 -32.45 -31.45 -32.15 -31.75 -31.85 -31.95 -31.2 -32.55 -31.0 -32.8 -30.85 -32.9 -30.65 -33.1 -30.05 -33.6 -29.65 -34.0 Q-29.25 -34.4 -28.7 -34.4 -28.0 -34.4 -27.65 -33.95 L-27.5 -33.75 -26.9 -33.2 Q-26.55 -32.8 -26.55 -32.3 L-26.55 -31.8 -26.35 -31.85 Q-25.75 -31.85 -25.25 -31.35 L-25.35 -31.8 -25.4 -31.9 -25.85 -33.0 -25.85 -33.1 -25.95 -33.4 -26.0 -33.65 -26.0 -33.7 -26.05 -33.7 -26.05 -33.75 -26.1 -33.9 Q-27.0 -36.0 -25.55 -36.9 L-24.3 -37.7 -24.25 -37.75 -22.75 -38.25 -22.6 -38.25 Q-21.9 -38.2 -21.3 -37.65 L-20.8 -37.15 -20.55 -36.95 -20.15 -36.55 -20.05 -36.4 -20.0 -36.35 -19.95 -36.35 -18.5 -34.95 -18.5 -34.9 -18.35 -34.75 -18.35 -34.7 -18.2 -34.55 -18.1 -34.5 -17.5 -33.85 -17.3 -33.7 -16.75 -33.15 -16.75 -33.1 -15.95 -32.35 -15.65 -32.1 -15.35 -31.75 -15.4 -31.85 -15.55 -32.3 -16.3 -34.1 -16.45 -34.65 -16.6 -34.95 -16.65 -35.25 -16.7 -35.35 -16.8 -35.5 -17.1 -36.25 -17.25 -36.75 -17.35 -36.9 -17.5 -36.8 -17.6 -36.8 -17.95 -36.6 -18.45 -36.5 Q-19.5 -36.5 -19.9 -37.5 L-20.15 -38.2 -20.3 -38.5 -20.3 -38.55 Q-20.55 -39.1 -20.3 -39.6 L-19.4 -40.4 -18.8 -40.65 -18.45 -40.75 -18.1 -40.9 -17.75 -41.0 -17.45 -41.15 -17.25 -41.2 -16.85 -41.4 -16.65 -41.45 -16.6 -41.45 -16.25 -41.6 -16.1 -41.7 -16.0 -41.7 -15.5 -41.9 -15.45 -41.9 -15.15 -42.05 -14.7 -42.2 -14.65 -42.2 -14.35 -42.35 -13.85 -42.45 -13.7 -42.45 Q-13.0 -42.45 -12.7 -41.95 L-12.35 -41.25 -12.25 -41.05 -12.1 -40.65 M31.6 -24.5 L31.35 -24.5 31.2 -24.45 31.0 -24.05 30.95 -23.85 30.9 -23.75 30.9 -23.7 30.85 -23.6 30.8 -23.55 30.8 -23.5 30.75 -23.3 30.5 -22.65 30.4 -22.3 30.3 -22.1 30.6 -22.25 31.7 -23.0 32.05 -23.25 33.2 -24.05 33.45 -24.15 33.6 -24.3 34.2 -24.7 34.3 -24.75 34.35 -24.8 34.25 -24.8 33.35 -24.65 32.65 -24.65 32.3 -24.6 32.15 -24.6 32.0 -24.55 31.6 -24.5 M24.55 -32.0 L24.6 -32.2 24.6 -32.4 24.45 -32.55 24.1 -32.8 24.0 -32.9 23.6 -32.35 23.55 -32.3 23.55 -32.25 23.4 -32.1 23.65 -31.9 24.0 -31.7 24.15 -31.65 24.2 -31.7 24.3 -31.7 24.55 -32.0 M39.6 -21.35 L39.65 -21.1 39.7 -21.1 39.75 -20.95 39.95 -20.55 40.35 -19.35 40.25 -18.6 40.2 -18.55 39.45 -17.3 39.45 -17.25 39.35 -17.05 39.25 -16.9 39.2 -16.85 39.2 -16.8 39.1 -16.7 39.1 -16.65 39.6 -16.9 39.75 -16.95 39.8 -17.0 40.05 -17.15 40.65 -17.25 Q41.2 -17.25 41.55 -16.9 L41.6 -16.85 41.95 -16.3 42.05 -16.0 42.2 -15.7 42.25 -15.55 42.3 -15.5 42.35 -15.4 42.35 -15.35 42.5 -15.15 42.55 -14.15 Q42.35 -13.6 41.75 -13.3 L40.9 -12.95 40.65 -12.8 40.25 -12.65 39.5 -12.25 39.05 -12.1 38.75 -11.95 38.45 -11.85 38.25 -11.7 35.85 -10.55 35.7 -10.5 35.6 -10.45 35.55 -10.45 35.5 -10.4 35.35 -10.35 35.2 -10.25 34.85 -10.05 34.35 -9.8 33.7 -9.6 Q32.85 -9.6 32.4 -10.5 L32.3 -10.75 32.2 -10.9 32.05 -11.3 31.9 -11.6 Q31.55 -12.4 32.25 -13.45 L32.4 -13.65 32.45 -13.75 33.4 -15.2 33.45 -15.25 33.3 -15.2 33.1 -15.05 32.7 -14.85 32.65 -14.85 32.55 -14.8 32.45 -14.7 32.15 -14.55 Q31.95 -14.4 31.6 -14.4 30.85 -14.4 30.45 -14.9 L30.2 -15.3 30.2 -15.35 30.05 -15.55 29.85 -15.95 29.75 -16.1 29.65 -16.35 Q29.5 -16.65 29.5 -16.95 29.0 -17.1 28.7 -17.55 L28.6 -17.7 28.55 -17.8 28.15 -18.4 28.1 -18.5 28.05 -18.55 27.9 -18.75 27.65 -19.4 27.25 -19.8 27.2 -19.9 26.6 -20.55 26.45 -20.7 26.15 -20.95 Q25.8 -21.35 25.8 -22.0 L26.15 -23.05 26.2 -23.1 Q25.7 -22.75 25.2 -22.75 24.75 -22.75 24.35 -23.05 L24.2 -23.2 24.1 -23.25 23.95 -23.4 23.95 -23.45 23.6 -23.8 23.45 -24.0 23.4 -24.05 23.15 -24.25 22.85 -24.8 22.8 -24.9 22.8 -25.0 22.85 -25.4 23.25 -26.15 23.45 -26.3 24.1 -26.9 24.7 -27.5 24.85 -27.6 24.15 -27.6 Q23.25 -27.65 22.15 -28.2 L21.2 -28.85 21.1 -28.95 21.0 -28.85 20.85 -28.55 20.75 -28.45 20.6 -28.2 Q20.1 -27.5 19.4 -27.5 18.95 -27.5 18.1 -28.0 L17.65 -28.4 17.55 -28.45 17.35 -28.6 16.95 -29.1 16.25 -29.25 16.0 -29.4 15.4 -29.65 15.3 -29.65 15.1 -29.75 Q14.65 -29.9 14.4 -30.45 14.2 -30.85 14.4 -31.45 L14.45 -31.6 14.95 -32.8 14.4 -32.7 Q14.15 -32.7 13.85 -32.85 13.5 -32.95 13.3 -33.25 13.0 -33.6 12.95 -34.1 L12.9 -34.2 12.85 -34.05 12.75 -33.9 12.3 -32.75 12.25 -32.65 12.2 -32.4 Q11.8 -31.55 10.9 -31.55 L10.35 -31.65 9.8 -31.95 9.75 -31.95 9.2 -32.1 Q8.4 -32.45 8.3 -33.3 L8.3 -33.35 8.2 -33.35 7.2 -32.9 6.4 -32.75 6.35 -32.75 5.85 -32.7 5.1 -32.75 4.55 -32.85 4.45 -32.85 2.4 -33.45 2.35 -33.5 2.1 -33.7 1.95 -33.75 1.05 -34.65 0.7 -35.3 0.5 -36.1 0.45 -36.4 0.45 -36.65 0.4 -37.2 -0.25 -36.55 Q-1.05 -36.0 -2.1 -35.75 L-2.2 -35.75 -2.9 -35.65 -3.5 -35.65 -3.45 -35.5 -3.4 -35.15 -3.4 -35.0 -3.35 -34.75 Q-3.35 -33.95 -3.65 -33.55 -4.1 -33.1 -5.15 -33.0 L-5.85 -33.0 -6.1 -32.95 -6.2 -32.95 Q-6.75 -32.95 -7.1 -33.35 L-7.55 -34.35 -7.6 -35.55 -7.7 -36.1 -7.7 -36.75 -7.75 -37.05 -7.8 -39.1 -7.85 -39.25 -7.85 -39.6 -7.9 -39.8 -7.95 -40.15 -7.95 -40.7 -8.0 -40.85 -8.0 -41.2 -8.15 -42.1 Q-8.25 -43.25 -7.4 -43.8 L-7.35 -43.8 -6.5 -44.1 -6.4 -44.1 -6.2 -44.15 -5.7 -44.15 -5.6 -44.2 -5.45 -44.2 -4.15 -44.35 -3.65 -44.35 -3.05 -44.4 -1.9 -44.2 -0.95 -43.85 -0.25 -43.45 Q0.65 -42.8 1.0 -41.75 L1.0 -41.85 1.25 -43.15 1.5 -43.8 Q1.85 -44.5 2.65 -44.5 L2.9 -44.5 3.25 -44.4 3.35 -44.35 3.55 -44.35 3.85 -44.3 4.75 -44.1 4.8 -44.1 4.9 -44.05 Q5.65 -43.55 5.5 -42.7 L5.1 -40.0 5.05 -39.9 5.05 -39.65 4.95 -39.3 4.95 -39.15 4.85 -38.3 4.8 -38.15 4.8 -37.8 4.75 -37.75 4.75 -37.6 4.8 -37.0 4.8 -36.95 5.25 -36.8 5.6 -36.8 5.65 -36.85 5.75 -36.9 5.75 -36.95 5.8 -37.35 5.9 -37.6 5.9 -38.0 6.0 -38.55 6.05 -38.6 6.05 -38.95 6.15 -39.55 6.2 -39.6 6.3 -40.0 6.3 -40.35 6.55 -42.05 6.55 -42.3 Q6.6 -42.85 7.0 -43.25 7.4 -43.7 7.95 -43.7 L8.35 -43.7 8.55 -43.65 8.9 -43.6 9.0 -43.6 9.5 -43.55 10.55 -42.9 10.65 -42.7 10.8 -41.8 10.8 -41.75 10.7 -41.05 10.65 -40.95 10.65 -40.75 10.6 -40.2 10.55 -40.0 10.5 -39.9 10.5 -39.8 10.35 -39.05 10.35 -38.8 10.3 -38.65 10.45 -39.0 10.6 -39.25 10.6 -39.35 10.75 -39.75 10.85 -39.95 10.85 -40.05 10.9 -40.15 11.5 -41.7 Q11.8 -42.5 12.6 -42.6 L12.9 -42.6 13.4 -42.5 13.45 -42.5 13.55 -42.45 13.6 -42.45 13.6 -42.4 13.8 -42.35 14.35 -42.15 14.4 -42.15 Q15.3 -41.75 15.45 -40.4 L15.65 -39.6 15.65 -39.25 15.7 -39.2 15.75 -39.05 15.85 -38.55 15.85 -38.5 15.95 -38.15 16.0 -38.2 16.55 -38.55 16.65 -38.6 16.8 -38.75 17.1 -38.95 17.2 -39.1 17.85 -39.65 17.95 -39.7 18.0 -39.75 18.25 -39.9 18.35 -40.0 19.0 -40.1 19.55 -40.0 19.85 -39.85 20.15 -39.75 20.2 -39.7 20.7 -39.5 20.75 -39.45 21.5 -38.7 Q21.75 -38.15 21.5 -37.65 L21.3 -37.25 21.1 -36.7 21.05 -36.65 20.75 -35.8 20.55 -35.5 20.45 -35.3 20.3 -34.85 20.35 -34.95 20.9 -35.7 20.95 -35.8 21.4 -36.45 21.65 -36.95 Q22.3 -37.75 23.05 -37.75 L23.35 -37.75 24.2 -37.35 24.3 -37.3 24.45 -37.25 24.85 -36.95 24.95 -36.9 25.05 -36.8 26.55 -35.8 26.55 -35.75 26.6 -35.75 27.8 -34.5 28.3 -33.65 28.55 -32.9 Q28.8 -32.05 28.5 -31.0 L29.05 -31.5 29.15 -31.55 29.25 -31.65 29.4 -31.85 Q29.9 -32.25 30.4 -32.25 31.0 -32.25 31.35 -31.8 L31.4 -31.75 31.55 -31.55 31.7 -31.45 31.7 -31.4 31.75 -31.4 31.9 -31.2 32.4 -30.75 Q32.9 -30.2 32.75 -29.6 32.75 -29.15 32.3 -28.75 L32.25 -28.65 32.3 -28.65 33.2 -28.8 33.65 -28.8 Q34.35 -28.65 34.75 -28.2 L34.95 -27.95 35.3 -27.6 35.55 -27.25 35.6 -27.25 35.75 -27.1 Q36.35 -26.35 36.0 -25.6 36.65 -25.6 37.0 -25.15 L37.05 -25.1 37.05 -25.05 37.15 -24.9 37.2 -24.85 37.75 -24.05 37.8 -24.0 37.9 -23.85 Q38.2 -23.35 38.05 -22.65 37.95 -22.1 37.4 -21.8 L37.25 -21.65 37.1 -21.55 37.3 -21.65 37.35 -21.7 37.7 -21.9 38.2 -22.1 38.4 -22.1 Q39.2 -22.1 39.6 -21.35" fill="#cfa00a" fill-rule="evenodd" stroke="none"/>
    <path d="M1.55 -25.6 Q2.95 -24.6 3.35 -22.15 3.55 -20.65 3.4 -18.1 L3.4 -16.7 10.1 -18.1 14.1 -18.6 Q17.05 -18.6 19.05 -17.5 22.2 -15.95 24.75 -12.45 28.85 -6.85 29.5 1.85 30.15 10.15 28.15 15.55 26.5 20.1 23.5 21.4 L22.9 21.7 Q19.05 23.45 16.15 24.25 10.8 25.75 4.7 25.75 -5.55 25.75 -11.05 25.35 -19.25 24.7 -22.35 23.0 -26.05 20.95 -28.1 18.45 -31.1 14.85 -31.25 9.8 -31.4 4.3 -30.35 -2.4 -29.2 -9.85 -27.35 -12.45 -25.3 -15.25 -20.05 -17.15 -15.0 -19.0 -11.05 -18.75 L-5.5 -17.85 Q-3.95 -19.6 -3.55 -20.35 -3.2 -21.05 -3.65 -22.75 L-4.45 -24.9 -4.8 -25.6 1.45 -25.7 1.55 -25.6" fill="#cfa00a" fill-rule="evenodd" stroke="none"/>
    <path d="M-27.7 27.45 L-27.55 27.2 -26.6 25.95 -26.2 25.85 -26.0 25.9 -25.95 25.95 -25.95 26.0 -25.9 26.0 -25.45 26.4 -25.25 26.5 -25.0 26.8 -25.1 27.55 -25.15 28.3 -25.25 28.85 -25.3 30.25 -25.2 30.85 -24.7 30.8 -23.95 30.6 -23.7 30.5 -23.3 30.4 -22.05 29.85 -21.8 29.8 -21.65 29.7 -21.25 29.8 -20.8 30.25 -20.55 30.4 -20.35 30.6 Q-20.1 30.85 -20.3 31.15 L-21.9 32.9 -22.55 33.75 -24.05 35.65 -24.15 35.8 -24.6 36.2 -24.95 36.7 -25.15 36.9 -25.2 37.0 -25.9 36.95 -26.6 36.4 -26.8 36.2 Q-27.05 36.05 -26.8 35.8 L-26.6 35.5 -26.0 34.75 -25.65 34.4 -25.2 33.85 -24.9 33.55 -24.8 33.35 Q-24.6 33.15 -24.85 33.05 L-25.45 33.0 -26.4 33.15 Q-26.85 33.35 -27.1 33.15 L-27.15 33.0 -27.2 32.65 -27.2 31.25 -27.3 30.55 -27.55 30.45 -27.95 30.75 -28.65 31.65 -29.05 32.05 -29.75 32.9 -29.95 33.2 Q-30.15 33.4 -30.5 33.2 L-30.7 33.0 -31.35 32.5 -31.55 32.1 -31.45 31.85 -31.0 31.35 -30.75 31.0 -30.2 30.45 -29.2 29.15 -28.85 28.8 -27.9 27.65 -27.7 27.45" fill="#fbd248" fill-rule="evenodd" stroke="none"/>
    <path d="M-27.55 27.2 L-27.7 27.45 -28.85 28.8 -29.2 29.15 -30.2 30.45 -30.75 31.0 -31.0 31.35 -31.45 31.85 -31.55 32.1 -31.35 32.5 -30.7 33.0 -30.5 33.2 -30.2 33.3 -29.95 33.2 -29.75 32.9 -29.05 32.05 -28.65 31.65 -27.95 30.75 -27.55 30.45 -27.3 30.55 -27.2 31.25 -27.2 32.65 -27.15 33.0 -27.1 33.15 -26.85 33.25 -26.4 33.15 -25.15 32.95 Q-24.95 32.95 -24.85 33.05 -24.6 33.15 -24.8 33.35 L-24.9 33.55 -25.2 33.85 -25.65 34.4 -26.0 34.75 -26.6 35.5 -26.8 35.8 Q-27.05 36.05 -26.8 36.2 L-25.9 36.95 -25.5 37.15 -25.2 37.0 -25.15 36.9 -24.95 36.7 -24.6 36.2 -24.15 35.8 -24.05 35.65 -22.55 33.75 -21.9 32.9 -20.3 31.15 Q-20.1 30.85 -20.35 30.6 L-20.55 30.4 -20.8 30.25 -21.25 29.8 -21.6 29.7 -21.65 29.7 -21.8 29.8 -22.05 29.85 -23.3 30.4 -23.7 30.5 -23.95 30.6 -25.05 30.9 -25.2 30.85 -25.3 30.25 -25.25 28.85 -25.15 28.3 -25.1 27.55 -25.0 26.8 -25.25 26.5 -25.45 26.4 -25.9 26.0 -25.95 26.0 -25.95 25.95 -26.0 25.9 -26.2 25.85 -26.3 25.85 -26.6 25.95 -27.55 27.2 M-28.55 26.85 L-28.4 26.7 -28.4 26.65 -28.3 26.55 -27.4 25.35 Q-26.95 24.85 -26.3 24.85 L-26.1 24.85 Q-25.7 24.85 -25.35 25.15 L-25.3 25.2 -25.0 25.4 -25.0 25.45 -24.9 25.55 -24.65 25.7 -24.6 25.75 Q-24.15 26.15 -24.05 26.65 L-24.1 27.65 -24.1 27.9 -24.15 28.4 -24.2 28.65 -24.25 28.7 -24.25 29.4 -24.3 29.65 -24.15 29.6 -24.05 29.55 -23.75 29.5 -23.65 29.45 -23.45 29.4 -23.15 29.25 -23.0 29.2 -22.85 29.1 -22.35 28.9 -22.3 28.9 -22.25 28.85 -22.15 28.85 -21.9 28.75 -21.8 28.75 -21.7 28.7 -21.6 28.7 Q-21.1 28.7 -20.65 29.05 L-20.15 29.5 -19.9 29.65 -19.7 29.85 Q-19.3 30.25 -19.25 30.8 -19.2 31.35 -19.55 31.8 L-19.65 31.9 -20.7 33.15 -21.1 33.55 -21.75 34.4 -21.9 34.55 -23.3 36.3 -23.85 36.85 -24.3 37.5 -24.45 37.65 Q-24.8 38.15 -25.5 38.15 -26.0 38.15 -26.55 37.75 L-26.8 37.55 -26.95 37.35 -27.2 37.2 -27.25 37.15 -27.45 37.0 -27.9 36.15 Q-27.95 35.7 -27.6 35.15 L-27.55 35.05 -27.4 34.85 -27.05 34.5 -26.95 34.35 -26.85 34.25 -27.75 33.9 -28.1 33.4 -28.2 32.6 -28.3 32.7 -29.0 33.55 -29.05 33.65 -29.2 33.85 Q-29.55 34.3 -30.2 34.3 L-31.15 34.0 -31.6 33.55 -32.0 33.3 Q-32.75 32.7 -32.5 31.9 L-32.5 31.8 -32.2 31.2 -30.25 28.85 -30.1 28.75 -29.75 28.3 -29.65 28.2 -29.6 28.1 -29.3 27.8 -29.2 27.65 -28.95 27.4 -28.85 27.25 -28.8 27.15 -28.65 27.0 -28.55 26.85" fill="#ac800a" fill-rule="evenodd" stroke="none"/>
    <path d="M-23.1 38.05 L-21.0 34.05 -20.8 33.8 -20.6 33.3 -19.5 31.35 -18.95 31.25 -16.7 32.45 -15.25 33.25 Q-14.9 33.45 -15.05 33.8 L-15.25 34.1 -15.45 34.65 -15.75 34.85 -15.95 34.85 -16.2 34.8 -16.5 34.6 -17.0 34.4 -17.1 34.3 -17.4 34.15 -17.65 33.95 Q-18.1 33.7 -18.3 33.75 L-18.7 34.1 -18.95 34.65 -18.75 35.0 -18.35 35.25 -17.75 35.5 -17.3 35.8 -16.85 36.0 -16.6 36.2 Q-16.4 36.4 -16.55 36.6 L-16.75 36.9 -16.95 37.3 -17.1 37.5 Q-17.35 37.85 -17.75 37.65 L-19.55 36.7 -19.8 36.65 -20.25 37.0 -20.5 37.75 -19.85 38.35 -19.4 38.55 -19.05 38.75 -18.5 39.05 -18.25 39.15 -18.1 39.3 -17.95 39.6 -18.1 40.05 -18.15 40.15 -18.25 40.45 -18.4 40.75 Q-18.6 41.1 -18.95 40.9 L-19.55 40.55 -19.8 40.45 -22.9 38.8 -23.15 38.55 -23.1 38.05" fill="#fbd248" fill-rule="evenodd" stroke="none"/>
    <path d="M-23.1 38.05 L-23.15 38.55 -22.9 38.8 -19.8 40.45 -19.55 40.55 -18.95 40.9 -18.7 40.95 -18.4 40.75 -18.25 40.45 -18.15 40.15 -18.1 40.05 -17.95 39.6 -18.1 39.3 -18.25 39.15 -18.5 39.05 -19.05 38.75 -19.4 38.55 -19.85 38.35 -20.5 37.75 -20.25 37.0 -19.8 36.65 -19.55 36.7 -17.75 37.65 -17.45 37.75 -17.1 37.5 -16.95 37.3 -16.75 36.9 -16.55 36.6 Q-16.4 36.4 -16.6 36.2 L-16.85 36.0 -17.3 35.8 -17.75 35.5 -18.35 35.25 -18.75 35.0 -18.95 34.65 -18.7 34.1 -18.25 33.75 -17.65 33.95 -17.4 34.15 -17.1 34.3 -17.0 34.4 -16.5 34.6 -16.2 34.8 -15.95 34.85 -15.85 34.9 -15.75 34.85 -15.45 34.65 -15.25 34.1 -15.05 33.8 Q-14.9 33.45 -15.25 33.25 L-18.95 31.25 -19.15 31.2 -19.5 31.35 -20.6 33.3 -20.8 33.8 -21.0 34.05 -23.1 38.05 M-22.8 35.35 L-22.55 34.9 -22.5 34.7 -22.35 34.5 -22.0 33.75 -21.8 33.5 -21.75 33.35 -21.7 33.3 -21.65 33.15 -21.5 32.85 -21.3 32.55 -21.05 32.05 -20.9 31.85 -20.65 31.3 -20.05 30.5 -19.15 30.2 -18.5 30.4 -17.5 30.9 -17.2 31.1 -16.25 31.6 -15.85 31.75 -15.2 32.15 -14.75 32.35 Q-14.2 32.65 -14.05 33.2 -13.9 33.75 -14.15 34.25 L-14.35 34.55 -14.6 35.1 -15.3 35.75 -15.65 35.85 Q-15.35 36.45 -15.7 37.1 L-16.25 38.05 -16.3 38.1 -17.25 38.7 Q-16.95 39.15 -16.95 39.6 L-17.2 40.5 -17.2 40.55 -17.25 40.6 -17.3 40.85 -17.35 40.9 -17.35 40.95 -17.5 41.2 Q-17.9 41.95 -18.7 41.95 L-19.4 41.8 -19.5 41.7 -19.6 41.65 -19.65 41.65 -19.75 41.55 -20.5 41.2 -20.55 41.15 -20.6 41.15 -20.75 41.05 -22.6 40.1 -22.65 40.05 -22.95 39.85 -23.35 39.7 -24.05 38.9 Q-24.3 38.15 -24.0 37.6 L-23.85 37.4 -23.75 37.2 -23.65 36.9 -23.55 36.75 -22.95 35.65 -22.85 35.4 -22.8 35.35" fill="#ac800a" fill-rule="evenodd" stroke="none"/>
    <path d="M-9.0 36.55 Q-8.55 37.3 -8.45 38.0 L-8.4 38.75 -8.75 40.4 -9.35 41.55 -10.15 42.35 -10.9 42.8 -11.6 43.0 -12.0 43.0 -12.25 43.05 -12.7 43.0 -14.6 42.55 -14.65 42.55 -16.0 42.1 Q-16.7 41.75 -16.6 41.45 L-14.5 34.5 Q-14.4 34.0 -14.05 33.95 L-11.25 34.75 -11.05 34.85 -10.9 34.9 Q-10.45 35.0 -10.45 35.15 L-10.3 35.2 -10.05 35.4 -9.9 35.55 -9.75 35.65 -9.65 35.75 -9.45 35.9 -9.0 36.55 M-12.05 36.65 L-12.45 36.55 -12.7 36.55 -13.15 37.1 -14.05 40.05 -14.0 40.55 Q-13.8 40.8 -13.0 41.05 L-12.75 41.15 -11.85 41.1 Q-11.35 40.95 -10.95 40.35 L-10.55 39.6 -10.4 39.1 -10.4 38.5 -10.45 38.2 -10.5 38.05 -10.75 37.55 -11.1 37.15 Q-11.3 36.9 -12.05 36.65" fill="#fbd248" fill-rule="evenodd" stroke="none"/>
    <path d="M-11.45 38.5 L-11.5 38.25 -11.6 38.15 -11.6 38.1 -11.8 37.85 -12.25 37.6 -12.35 37.8 -12.35 37.9 -12.55 38.4 -13.0 40.0 -12.7 40.1 -12.6 40.15 -12.1 40.15 Q-11.8 40.05 -11.5 39.35 L-11.4 39.0 -11.4 38.6 -11.45 38.5 M-12.05 36.65 Q-11.3 36.9 -11.1 37.15 L-10.75 37.55 -10.5 38.05 -10.45 38.2 -10.4 38.5 -10.4 39.1 -10.55 39.6 -10.95 40.35 Q-11.35 40.95 -11.85 41.1 L-12.75 41.15 -13.0 41.05 Q-13.8 40.8 -14.0 40.55 L-14.05 40.05 -13.15 37.1 -12.7 36.55 -12.45 36.55 -12.05 36.65 M-9.0 36.55 L-9.45 35.9 -9.65 35.75 -9.75 35.65 -9.9 35.55 -10.05 35.4 -10.3 35.2 -10.45 35.15 Q-10.45 35.0 -10.9 34.9 L-11.05 34.85 -11.25 34.75 -14.05 33.95 Q-14.4 34.0 -14.5 34.5 L-16.6 41.45 Q-16.7 41.75 -16.0 42.1 L-14.65 42.55 -14.6 42.55 -12.7 43.0 -12.35 43.05 -12.25 43.05 -12.0 43.0 -11.6 43.0 -10.9 42.8 -10.15 42.35 -9.35 41.55 -8.75 40.4 -8.4 38.75 -8.45 38.0 Q-8.55 37.3 -9.0 36.55 M-11.4 33.65 L-11.2 33.75 -11.15 33.75 -10.95 33.8 -10.75 33.9 -10.7 33.9 -10.6 33.95 Q-10.15 34.05 -9.85 34.3 L-9.75 34.4 -9.45 34.6 -9.35 34.65 -9.1 34.9 -9.05 34.9 -8.8 35.15 Q-8.65 35.15 -8.2 35.9 -7.6 36.85 -7.5 37.85 L-7.4 38.8 -7.6 40.0 -7.65 40.15 -7.7 40.25 -7.7 40.45 -8.15 41.5 -8.6 42.15 -8.75 42.35 -8.8 42.4 -8.9 42.55 -9.5 43.1 -9.55 43.1 -10.5 43.7 -11.45 44.0 -12.05 44.0 -12.15 44.05 -12.35 44.05 -12.65 44.0 -12.75 44.0 -14.9 43.5 -16.3 43.05 Q-17.3 42.75 -17.55 42.0 L-17.55 41.15 -17.5 40.9 -17.45 40.8 -17.2 40.0 -17.1 39.5 -17.05 39.4 -16.6 38.1 -16.4 37.3 -16.35 37.2 -16.25 36.85 -16.15 36.65 -15.85 35.5 -15.75 35.3 -15.65 35.0 -15.6 34.7 -15.45 34.2 Q-15.1 33.05 -14.1 32.95 L-14.05 32.95 Q-13.55 32.95 -12.7 33.3 L-12.4 33.4 -12.3 33.4 -12.25 33.45 -12.1 33.5 -11.4 33.65" fill="#ac800a" fill-rule="evenodd" stroke="none"/>
    <path d="M-2.75 37.25 L-2.55 38.6 -2.55 38.85 -2.5 39.0 -2.3 41.1 -2.25 41.3 -2.1 42.4 -2.05 42.95 -2.05 43.2 -1.85 44.4 -1.85 44.75 Q-1.85 45.0 -2.4 44.9 L-3.05 44.9 -3.75 44.7 -3.95 44.25 -4.1 43.8 -4.4 43.4 -5.5 43.2 -5.85 43.25 Q-6.25 43.25 -6.35 43.4 -6.65 43.55 -6.75 44.1 L-6.9 44.3 -7.3 44.35 -8.25 44.25 -8.6 44.15 Q-8.85 44.05 -8.75 43.8 L-8.7 43.5 -8.6 43.35 -8.55 43.1 -8.3 42.45 -8.2 41.9 -7.95 41.2 -7.8 40.9 -7.65 40.4 -6.85 38.05 -6.75 37.85 -6.55 37.3 -6.15 36.35 Q-5.9 36.05 -5.4 36.1 L-5.1 36.15 -3.9 36.25 Q-3.4 36.25 -3.05 36.6 L-2.75 37.25 M-4.9 38.6 L-5.25 39.35 -5.45 39.9 -5.5 40.15 -5.6 40.4 -5.7 40.8 Q-5.75 41.35 -5.05 41.45 L-4.45 41.45 -4.2 41.2 -4.2 41.05 -4.45 38.8 Q-4.5 38.5 -4.7 38.5 L-4.9 38.6" fill="#fbd248" fill-rule="evenodd" stroke="none"/>
    <path d="M-4.9 38.6 L-4.7 38.5 Q-4.5 38.5 -4.45 38.8 L-4.2 41.05 -4.2 41.2 -4.45 41.45 -5.05 41.45 Q-5.75 41.35 -5.7 40.8 L-5.6 40.4 -5.5 40.15 -5.45 39.9 -5.25 39.35 -4.9 38.6 M-2.75 37.25 L-3.05 36.6 Q-3.4 36.25 -3.85 36.25 L-3.9 36.25 -5.1 36.15 -5.4 36.1 -5.55 36.1 Q-6.25 36.1 -6.55 37.3 L-6.75 37.85 -6.85 38.05 -7.65 40.4 -7.8 40.9 -7.95 41.2 -8.2 41.9 -8.3 42.45 -8.55 43.1 -8.6 43.35 -8.7 43.5 -8.75 43.8 Q-8.85 44.05 -8.6 44.15 L-8.25 44.25 -7.3 44.35 -7.1 44.4 -6.9 44.3 -6.75 44.1 Q-6.65 43.55 -6.35 43.4 -6.25 43.25 -5.85 43.25 L-5.55 43.2 -5.5 43.2 -4.4 43.4 -4.1 43.8 -3.95 44.25 -3.75 44.7 -3.05 44.9 -2.4 44.9 -2.15 44.95 -1.85 44.75 -1.85 44.4 -2.05 43.2 -2.05 42.95 -2.1 42.4 -2.25 41.3 -2.3 41.1 -2.5 39.0 -2.55 38.85 -2.55 38.6 -2.75 37.25 M-7.8 37.75 L-7.7 37.45 -7.6 37.25 -7.55 37.2 -7.55 37.15 -7.5 37.05 Q-7.0 35.1 -5.55 35.1 L-5.3 35.1 -3.9 35.25 -3.85 35.25 Q-3.05 35.25 -2.35 35.85 -1.8 36.4 -1.75 37.05 L-1.7 37.4 -1.7 37.6 -1.65 37.7 -1.6 38.0 -1.6 38.05 -1.55 38.5 -1.55 38.75 -1.5 38.85 -1.5 38.9 -1.4 39.65 -1.4 39.9 -1.3 40.75 -1.3 40.95 -1.25 41.1 -1.25 41.2 -1.2 41.4 -1.2 41.65 -1.15 41.95 -1.15 42.2 -0.95 43.8 -0.9 43.9 -0.9 44.0 -0.85 44.35 -0.85 44.85 Q-0.95 45.95 -2.15 45.95 L-2.5 45.9 -2.75 45.9 -3.15 45.85 Q-4.65 45.75 -4.95 44.45 L-5.0 44.3 -5.2 44.25 -5.55 44.2 -5.75 44.25 -5.75 44.3 -6.25 45.1 -7.1 45.4 -7.8 45.3 -8.1 45.3 -8.35 45.25 -9.2 44.95 Q-9.85 44.55 -9.75 43.7 L-9.55 43.05 -9.55 42.95 -9.5 42.85 -9.45 42.7 -9.45 42.6 -9.35 42.3 -9.25 42.15 -9.15 41.65 -9.15 41.6 -8.85 40.85 -8.8 40.65 -8.75 40.6 -8.65 40.1 -8.25 39.1 -8.2 38.95 -8.15 38.85 -7.85 37.85 -7.8 37.75" fill="#ac800a" fill-rule="evenodd" stroke="none"/>
    <path d="M1.5 36.85 L1.45 37.3 1.5 37.7 1.55 39.45 1.65 40.3 1.75 42.35 Q1.75 42.8 2.05 42.85 L3.85 42.8 4.25 42.75 Q4.6 42.75 4.6 43.1 L4.65 44.3 Q4.75 44.75 4.15 44.75 L2.3 44.8 1.9 44.85 1.65 44.85 1.35 44.9 0.3 44.95 Q-0.25 44.95 -0.25 44.35 L-0.5 38.35 -0.55 38.05 -0.55 37.35 -0.6 36.95 -0.55 36.7 -0.25 36.55 0.45 36.5 0.75 36.45 1.0 36.45 Q1.4 36.4 1.5 36.85" fill="#fbd248" fill-rule="evenodd" stroke="none"/>
    <path d="M1.05 36.45 L0.75 36.45 0.45 36.5 -0.25 36.55 -0.55 36.7 -0.6 36.95 -0.55 37.35 -0.55 38.05 -0.5 38.35 -0.25 44.35 Q-0.25 44.95 0.25 44.95 L0.3 44.95 0.8 44.9 1.35 44.9 1.65 44.85 1.9 44.85 2.3 44.8 4.15 44.75 Q4.75 44.75 4.65 44.3 L4.6 43.1 Q4.6 42.75 4.25 42.75 L3.85 42.8 2.05 42.85 Q1.75 42.8 1.75 42.35 L1.65 40.3 1.5 37.7 1.45 37.3 1.5 36.85 1.05 36.45 M0.65 35.45 L1.05 35.45 Q1.65 35.45 2.05 35.85 2.45 36.2 2.5 36.8 L2.45 37.1 2.45 37.5 2.5 37.65 2.65 40.25 2.65 41.4 2.7 41.85 2.9 41.85 3.05 41.8 3.9 41.8 4.2 41.75 4.25 41.75 Q4.85 41.75 5.25 42.1 5.6 42.5 5.6 43.05 L5.6 43.9 5.65 44.25 Q5.75 44.85 5.35 45.25 4.9 45.7 4.2 45.75 L3.7 45.75 3.45 45.8 2.35 45.8 2.2 45.85 1.6 45.85 1.35 45.9 0.7 45.9 0.35 45.95 0.25 45.95 Q-0.3 45.95 -0.75 45.55 -1.2 45.15 -1.25 44.4 L-1.25 42.7 -1.3 42.45 -1.4 40.2 -1.45 39.9 -1.5 38.35 -1.55 38.1 -1.55 37.45 -1.6 37.3 -1.6 37.0 Q-1.7 36.4 -1.25 35.95 -0.85 35.55 -0.3 35.55 L0.6 35.5 0.65 35.45" fill="#ac800a" fill-rule="evenodd" stroke="none"/>
    <path d="M6.9 36.2 L7.0 36.65 7.05 37.0 7.6 39.55 7.75 40.75 8.0 41.6 8.4 42.05 10.55 41.6 Q10.95 41.55 10.95 41.9 L11.05 42.6 11.2 43.05 Q11.3 43.5 10.75 43.6 L6.95 44.35 Q6.55 44.45 6.35 43.85 L6.25 43.15 5.2 38.3 5.05 37.35 4.85 36.6 Q4.85 36.2 5.15 36.15 L5.85 36.0 6.15 35.9 6.4 35.85 Q6.8 35.8 6.9 36.2" fill="#fbd248" fill-rule="evenodd" stroke="none"/>
    <path d="M6.15 35.9 L5.85 36.0 5.15 36.15 Q4.85 36.2 4.85 36.6 L5.05 37.35 5.2 38.3 6.25 43.15 6.35 43.85 6.45 44.15 Q6.6 44.4 6.85 44.4 L6.95 44.35 10.75 43.6 Q11.3 43.5 11.2 43.05 L11.05 42.6 10.95 41.9 10.65 41.6 10.55 41.6 8.45 42.05 8.4 42.05 8.0 41.6 7.75 40.75 7.6 39.55 7.05 37.0 7.0 36.65 6.9 36.2 Q6.85 35.85 6.5 35.85 L6.4 35.85 6.15 35.9 M8.1 37.15 L8.1 37.25 8.3 38.2 8.3 38.3 8.4 38.55 8.85 40.95 8.95 40.95 9.05 40.9 9.75 40.75 9.95 40.75 10.05 40.7 10.65 40.6 Q11.7 40.6 11.95 41.7 L12.0 42.1 12.0 42.3 12.05 42.4 12.05 42.5 12.15 42.85 Q12.3 43.5 11.95 43.95 11.65 44.45 11.0 44.55 L10.45 44.65 10.2 44.75 9.15 44.9 9.0 44.95 8.75 45.0 8.6 45.05 8.5 45.05 8.4 45.1 8.2 45.15 7.9 45.2 7.7 45.2 7.15 45.35 6.85 45.4 Q5.6 45.4 5.4 44.05 L5.3 43.7 5.15 42.7 5.05 42.35 5.05 42.15 4.8 41.3 4.65 40.45 4.65 40.25 4.6 40.15 4.2 38.3 4.2 38.15 4.1 37.9 4.0 37.35 4.0 37.25 3.95 37.1 3.9 36.8 Q3.7 36.25 4.1 35.7 4.4 35.25 4.95 35.15 L5.7 35.0 5.85 34.95 5.95 34.95 6.0 34.9 6.2 34.85 6.5 34.85 Q7.65 34.85 7.9 36.0 L7.95 36.25 7.95 36.45 8.0 36.6 8.0 36.7 8.05 36.8 8.05 37.0 8.1 37.15" fill="#ac800a" fill-rule="evenodd" stroke="none"/>
    <path d="M12.2 34.45 L12.45 34.75 14.2 40.15 14.4 40.6 14.85 41.95 Q15.0 42.3 14.65 42.4 L14.35 42.45 13.9 42.65 13.6 42.7 13.35 42.8 12.85 42.65 12.8 42.4 12.1 40.35 12.05 40.15 11.65 38.95 11.35 38.15 11.05 37.1 10.85 36.6 10.75 36.2 10.45 35.45 Q10.3 34.95 10.6 34.85 L10.8 34.8 11.9 34.4 12.2 34.45" fill="#fbd248" fill-rule="evenodd" stroke="none"/>
    <path d="M12.0 34.4 L11.9 34.4 10.8 34.8 10.6 34.85 Q10.3 34.95 10.45 35.45 L10.75 36.2 10.85 36.6 11.05 37.1 11.35 38.15 11.65 38.95 12.05 40.15 12.1 40.35 12.8 42.4 12.85 42.65 Q13.05 42.85 13.2 42.85 L13.6 42.7 13.9 42.65 14.35 42.45 14.65 42.4 Q15.0 42.3 14.85 41.95 L14.4 40.6 14.2 40.15 12.55 35.15 12.45 34.75 12.2 34.45 12.0 34.4 M10.15 33.95 L10.2 33.9 10.25 33.9 10.45 33.85 10.5 33.85 10.7 33.75 10.9 33.7 11.15 33.6 11.35 33.55 11.4 33.5 11.6 33.45 12.0 33.4 12.75 33.6 13.35 34.4 13.5 34.75 13.5 34.85 13.55 34.9 13.75 35.55 13.8 35.8 14.2 36.85 14.25 37.1 14.5 37.8 15.05 39.5 15.1 39.55 15.1 39.6 15.2 40.0 15.35 40.3 15.65 41.2 15.7 41.3 15.8 41.6 15.75 42.65 14.95 43.35 14.75 43.4 14.65 43.4 14.45 43.45 14.2 43.6 14.0 43.65 13.85 43.65 13.65 43.75 13.2 43.85 Q12.55 43.85 12.0 43.2 L11.85 42.7 11.7 42.35 11.6 41.95 11.15 40.65 10.25 38.0 10.2 37.65 10.1 37.45 9.5 35.75 Q9.35 35.25 9.5 34.7 9.7 34.15 10.15 33.95" fill="#ac800a" fill-rule="evenodd" stroke="none"/>
    <path d="M15.15 33.35 L15.35 33.2 15.6 32.9 16.45 32.3 17.65 31.9 18.6 31.9 19.4 32.1 19.7 32.2 19.95 32.25 20.35 32.5 21.0 33.0 21.3 33.35 22.1 34.65 22.35 35.4 22.55 36.25 22.5 37.25 22.15 38.25 21.8 38.8 21.35 39.35 21.05 39.55 20.9 39.7 19.95 40.2 19.7 40.25 19.4 40.35 19.15 40.4 18.8 40.4 18.45 40.45 18.05 40.35 16.85 40.0 16.3 39.7 16.0 39.5 15.45 38.85 14.8 37.8 14.65 37.4 14.45 36.45 14.4 35.9 14.4 35.65 14.5 34.75 14.7 34.15 15.15 33.35 M17.25 34.2 L17.0 34.35 16.65 34.75 16.4 35.35 16.3 36.05 16.55 36.9 16.6 37.0 16.85 37.4 17.1 37.7 17.65 38.2 18.6 38.5 18.95 38.4 19.05 38.4 19.4 38.25 19.6 38.2 19.9 38.0 20.35 37.35 20.55 36.5 20.4 35.8 20.25 35.35 20.05 35.05 20.0 34.9 19.9 34.7 19.3 34.2 18.55 33.9 17.85 33.95 17.25 34.2" fill="#fbd248" fill-rule="evenodd" stroke="none"/>
    <path d="M18.05 34.9 L17.7 35.05 17.5 35.25 17.35 35.5 17.35 35.6 17.3 36.0 17.35 36.05 17.45 36.4 17.45 36.5 17.65 36.8 17.65 36.85 17.75 36.9 17.85 37.05 18.2 37.35 18.55 37.45 18.8 37.45 18.8 37.4 18.85 37.4 18.95 37.35 19.1 37.3 19.15 37.3 19.25 37.25 19.45 36.9 19.55 36.5 19.5 36.4 19.45 36.05 19.3 35.7 19.15 35.5 19.1 35.35 18.8 35.1 18.75 35.05 18.35 34.9 18.05 34.9 M17.0 34.35 L17.25 34.2 17.85 33.95 18.4 33.9 18.55 33.9 19.3 34.2 19.9 34.7 20.0 34.9 20.05 35.05 20.25 35.35 20.4 35.8 20.55 36.5 20.35 37.35 19.9 38.0 19.6 38.2 19.4 38.25 19.05 38.4 18.95 38.4 18.6 38.5 17.65 38.2 17.1 37.7 16.85 37.4 16.6 37.0 16.55 36.9 16.3 36.05 16.4 35.35 16.65 34.75 17.0 34.35 M15.15 33.35 L14.7 34.15 14.5 34.75 14.4 35.65 14.4 35.9 14.45 36.45 14.65 37.4 14.8 37.8 15.45 38.85 16.0 39.5 16.3 39.7 16.85 40.0 18.05 40.35 18.45 40.45 18.55 40.45 18.8 40.4 19.15 40.4 19.4 40.35 19.7 40.25 19.95 40.2 20.9 39.7 21.05 39.55 21.35 39.35 21.8 38.8 22.15 38.25 22.5 37.25 22.55 36.25 22.35 35.4 22.1 34.65 21.3 33.35 21.0 33.0 20.35 32.5 19.95 32.25 19.7 32.2 19.4 32.1 18.6 31.9 17.65 31.9 16.45 32.3 15.6 32.9 15.35 33.2 15.15 33.35 M16.75 31.15 Q17.15 30.95 17.55 30.9 L18.65 30.9 19.7 31.1 20.0 31.25 20.1 31.25 20.1 31.3 20.25 31.3 20.35 31.35 21.0 31.75 21.65 32.25 22.1 32.75 23.0 34.2 23.35 35.2 23.35 35.3 23.5 36.1 23.5 37.35 23.05 38.75 22.8 39.1 22.75 39.1 22.55 39.4 21.95 40.1 21.75 40.25 21.5 40.5 21.05 40.75 20.3 41.1 19.2 41.4 18.95 41.4 18.55 41.45 18.35 41.45 18.0 41.4 17.9 41.35 16.45 40.9 15.75 40.55 15.65 40.45 15.6 40.45 15.4 40.3 14.6 39.45 14.6 39.4 13.9 38.25 13.7 37.65 13.45 36.55 13.4 35.6 13.45 35.4 13.45 34.9 13.55 34.6 13.55 34.45 13.8 33.7 13.85 33.65 13.9 33.45 14.4 32.75 14.6 32.55 14.6 32.5 14.65 32.5 14.7 32.45 14.9 32.2 15.95 31.4 16.5 31.2 16.75 31.15" fill="#ac800a" fill-rule="evenodd" stroke="none"/>
    <path d="M25.35 26.15 Q25.6 25.9 25.9 26.25 L26.2 26.7 29.65 30.9 29.75 31.05 29.9 31.2 30.7 32.1 Q31.0 32.4 30.6 32.7 L30.45 32.8 30.3 32.95 29.95 33.2 29.75 33.4 29.0 33.35 27.05 32.65 26.75 32.6 26.05 32.4 24.85 31.95 24.65 31.9 24.4 31.95 24.45 32.2 24.8 32.7 25.05 32.95 25.2 33.2 25.4 33.4 25.55 33.65 26.6 34.75 26.65 34.85 26.95 35.15 Q27.15 35.45 26.95 35.65 L26.8 35.75 26.55 36.05 26.35 36.2 26.05 36.5 25.75 36.65 Q25.55 36.65 25.45 36.5 L24.6 35.45 24.35 35.2 23.85 34.55 23.6 34.3 22.8 33.3 22.6 33.05 22.15 32.55 21.2 31.4 21.05 31.2 20.55 30.7 20.4 30.45 20.45 30.15 20.65 30.05 20.85 29.85 20.95 29.8 21.1 29.65 21.55 29.35 21.65 29.3 21.85 29.15 22.1 29.15 23.35 29.55 23.5 29.55 24.35 29.85 24.95 30.05 Q25.6 30.2 26.1 30.5 L26.85 30.75 26.6 30.25 26.4 30.0 26.25 29.85 26.05 29.55 25.7 29.2 25.45 28.8 24.25 27.45 24.2 27.1 25.05 26.45 25.35 26.15" fill="#fbd248" fill-rule="evenodd" stroke="none"/>
    <path d="M25.35 26.15 L25.05 26.45 24.2 27.1 24.25 27.45 25.45 28.8 25.7 29.2 26.05 29.55 26.25 29.85 26.4 30.0 26.6 30.25 26.85 30.75 26.1 30.5 Q25.6 30.2 24.95 30.05 L24.35 29.85 23.5 29.55 23.35 29.55 22.1 29.15 21.85 29.15 21.65 29.3 21.55 29.35 21.1 29.65 20.95 29.8 20.85 29.85 20.65 30.05 20.45 30.15 20.4 30.45 20.55 30.7 21.05 31.2 21.2 31.4 22.15 32.55 22.6 33.05 22.8 33.3 23.6 34.3 23.85 34.55 24.35 35.2 24.6 35.45 25.45 36.5 25.7 36.65 25.75 36.65 26.05 36.5 26.35 36.2 26.55 36.05 26.8 35.75 26.95 35.65 Q27.15 35.45 26.95 35.15 L26.65 34.85 26.6 34.75 25.55 33.65 25.4 33.4 25.2 33.2 25.05 32.95 24.8 32.7 24.45 32.2 24.4 31.95 24.65 31.9 24.85 31.95 26.05 32.4 26.75 32.6 27.05 32.65 29.0 33.35 29.5 33.5 29.75 33.4 29.95 33.2 30.3 32.95 30.45 32.8 30.6 32.7 Q31.0 32.4 30.7 32.1 L29.75 31.05 29.65 30.9 26.2 26.7 25.9 26.25 25.55 26.1 25.35 26.15 M21.45 28.25 L22.0 28.15 22.25 28.15 23.95 28.65 23.85 28.5 23.65 28.3 23.5 28.1 Q22.9 27.45 23.3 26.65 L23.35 26.6 23.8 26.15 24.3 25.75 24.4 25.7 24.55 25.55 24.7 25.35 25.55 25.1 Q26.25 25.1 26.65 25.65 L27.0 26.1 27.15 26.25 28.55 28.0 28.7 28.25 29.55 29.2 29.7 29.4 30.45 30.25 30.55 30.4 30.6 30.45 30.6 30.5 30.75 30.65 30.85 30.8 31.5 31.45 31.8 32.2 Q31.95 32.9 31.25 33.45 L31.1 33.6 30.7 33.9 30.6 33.95 30.4 34.15 Q30.05 34.5 29.5 34.5 L28.6 34.25 27.45 33.9 27.0 33.7 27.0 33.75 27.3 34.1 27.35 34.1 27.4 34.2 27.7 34.5 28.0 35.4 27.8 36.2 27.45 36.5 27.4 36.55 27.3 36.7 26.85 37.1 26.65 37.25 25.8 37.65 25.7 37.65 Q25.0 37.65 24.65 37.15 L24.65 37.1 24.6 37.1 24.35 36.8 24.25 36.65 23.85 36.15 23.8 36.05 23.4 35.65 23.1 35.2 22.0 33.95 22.0 33.9 21.65 33.45 21.4 33.25 21.4 33.2 20.45 32.05 20.3 31.95 20.3 31.85 20.25 31.85 20.15 31.7 19.75 31.3 19.45 30.85 Q19.1 30.0 19.8 29.4 L20.05 29.25 20.3 29.0 20.4 28.95 20.6 28.75 21.45 28.25" fill="#ac800a" fill-rule="evenodd" stroke="none"/>
    <path d="M-38.25 -21.2 L-37.8 -21.0 Q-37.5 -20.85 -37.65 -20.55 L-37.85 -20.2 -38.3 -19.5 -38.45 -19.35 -38.8 -18.7 -39.0 -18.4 -39.15 -17.85 -39.2 -17.55 -39.2 -16.9 -38.9 -16.05 -38.5 -15.6 -37.5 -15.05 -37.3 -15.0 -37.1 -15.0 -37.0 -14.95 -36.6 -14.9 -36.3 -14.95 -35.65 -15.15 -34.9 -15.6 -34.45 -16.05 -34.05 -16.75 Q-33.85 -17.2 -34.1 -17.4 L-34.55 -17.7 -35.0 -17.85 Q-35.45 -17.95 -35.75 -17.3 -35.85 -17.05 -36.15 -17.2 L-36.85 -17.6 -37.15 -17.7 Q-37.55 -17.9 -37.45 -18.25 L-36.9 -19.3 -36.65 -20.0 Q-36.45 -20.5 -36.05 -20.45 L-34.8 -19.95 -34.25 -19.65 -33.7 -19.45 -32.85 -19.0 -32.6 -18.9 -31.4 -18.25 -31.25 -17.65 -32.05 -15.85 -32.05 -15.8 -32.55 -15.0 -33.55 -13.9 -34.65 -13.2 -35.05 -13.0 -36.15 -12.75 -37.2 -12.75 -37.8 -12.9 -38.2 -12.95 -39.1 -13.3 -39.8 -13.75 -40.55 -14.4 -41.0 -15.15 -41.35 -16.45 -41.35 -17.55 -41.0 -18.6 -40.2 -20.45 -39.4 -21.45 -38.8 -21.45 -38.45 -21.25 -38.25 -21.2" fill="#fbd248" fill-rule="evenodd" stroke="none"/>
    <path d="M-37.3 -16.7 L-37.4 -16.7 -37.55 -16.8 -38.2 -17.3 -38.25 -17.2 -38.15 -16.7 -38.05 -16.6 -38.05 -16.55 -37.95 -16.5 -37.85 -16.4 -37.25 -16.05 -37.05 -16.0 -36.95 -15.95 -36.85 -15.95 -36.6 -15.9 -36.5 -15.95 -35.95 -16.1 -35.85 -16.15 -35.95 -16.15 -36.6 -16.3 -37.3 -16.7 M-39.85 -22.3 L-39.05 -22.5 -38.4 -22.35 -38.0 -22.15 -37.7 -22.05 -37.4 -21.9 -36.75 -21.3 -36.1 -21.45 -35.95 -21.45 -34.9 -21.05 -34.7 -20.95 -34.4 -20.85 -33.85 -20.55 -33.25 -20.35 -33.05 -20.25 -33.0 -20.2 -32.9 -20.15 -32.7 -20.1 -32.5 -19.95 -32.45 -19.95 -32.35 -19.9 -32.2 -19.85 -31.35 -19.4 -30.65 -18.95 -30.55 -18.85 Q-30.15 -18.2 -30.3 -17.4 L-30.7 -16.35 -30.95 -15.85 -31.0 -15.7 -31.15 -15.4 -31.75 -14.45 -32.55 -13.5 -32.9 -13.15 -34.1 -12.35 -34.7 -12.05 -36.05 -11.75 -37.3 -11.75 -38.05 -11.9 -38.1 -11.9 -38.45 -12.0 -39.5 -12.4 -40.35 -12.9 -41.35 -13.8 -41.9 -14.7 -42.25 -15.8 -42.35 -16.4 -42.35 -16.85 -42.3 -17.7 -41.9 -19.0 -41.75 -19.4 -41.75 -19.5 -41.7 -19.55 -41.6 -19.75 -41.55 -19.9 -41.1 -20.9 Q-40.65 -21.9 -39.85 -22.3 M-39.05 -21.5 L-39.4 -21.45 -40.2 -20.45 -41.0 -18.6 -41.35 -17.55 -41.35 -16.45 -41.0 -15.15 -40.55 -14.4 -39.8 -13.75 -39.1 -13.3 -38.2 -12.95 -37.8 -12.9 -37.2 -12.75 -36.15 -12.75 -35.05 -13.0 -34.65 -13.2 -33.55 -13.9 -32.55 -15.0 -32.05 -15.8 -32.05 -15.85 -31.25 -17.65 -31.4 -18.25 -32.6 -18.9 -32.85 -19.0 -33.7 -19.45 -34.25 -19.65 -34.8 -19.95 -36.05 -20.45 -36.1 -20.45 -36.65 -20.0 -36.9 -19.3 -37.45 -18.25 Q-37.55 -17.9 -37.15 -17.7 L-36.85 -17.6 -36.15 -17.2 -35.95 -17.15 -35.75 -17.3 -35.2 -17.9 -34.55 -17.7 -34.1 -17.4 Q-33.85 -17.2 -34.05 -16.75 L-34.45 -16.05 -34.9 -15.6 -35.65 -15.15 -36.3 -14.95 -36.6 -14.9 -37.0 -14.95 -37.1 -15.0 -37.3 -15.0 -37.5 -15.05 -38.5 -15.6 -38.9 -16.05 -39.2 -16.9 -39.2 -17.55 -39.15 -17.85 -39.0 -18.4 -38.8 -18.7 -38.45 -19.35 -38.3 -19.5 -37.85 -20.2 -37.65 -20.55 Q-37.5 -20.85 -37.8 -21.0 L-38.25 -21.2 -38.45 -21.25 -38.8 -21.45 -39.05 -21.5" fill="#ac800a" fill-rule="evenodd" stroke="none"/>
    <path d="M-33.05 -28.4 L-32.05 -28.05 -31.85 -27.85 -31.4 -27.55 Q-30.8 -27.1 -30.55 -26.5 L-30.3 -25.6 -30.05 -24.75 -29.6 -24.75 -28.85 -25.05 -28.65 -25.2 -28.25 -25.15 -27.3 -24.4 -27.05 -24.25 Q-26.8 -24.05 -27.05 -23.5 -27.55 -22.9 -28.15 -22.9 L-29.25 -22.7 -29.5 -22.7 -30.1 -22.5 -30.7 -22.1 -30.75 -21.9 -30.7 -21.6 -30.25 -21.2 -29.95 -21.0 -29.55 -20.8 Q-29.3 -20.6 -29.5 -20.3 L-29.7 -20.1 -30.45 -19.05 -31.05 -19.0 -31.3 -19.25 -32.65 -20.35 -33.15 -20.65 -34.15 -21.45 -34.65 -21.75 -37.3 -23.8 Q-37.95 -24.35 -37.65 -24.75 L-37.25 -25.3 -36.6 -26.05 -36.35 -26.45 -35.55 -27.5 -35.0 -27.9 -34.4 -28.2 -33.75 -28.4 -33.05 -28.4 M-34.85 -25.0 L-34.8 -24.7 -34.55 -24.35 -34.0 -24.0 -33.55 -23.6 -32.95 -23.2 -32.5 -23.15 -32.1 -23.65 -31.95 -24.15 -31.95 -24.35 -32.0 -24.6 -32.15 -25.15 -32.8 -25.95 -34.0 -26.0 -34.4 -25.65 -34.75 -25.25 -34.85 -25.0" fill="#fbd248" fill-rule="evenodd" stroke="none"/>
    <path d="M-33.45 -25.2 L-33.65 -25.0 -33.1 -24.55 -33.0 -24.45 -33.0 -24.55 -33.1 -24.75 -33.35 -25.15 -33.45 -25.2 M-33.45 -26.2 L-32.8 -25.95 -32.15 -25.15 -32.0 -24.6 -31.95 -24.35 -31.95 -24.15 -32.1 -23.65 -32.5 -23.15 -32.65 -23.1 -32.95 -23.2 -33.55 -23.6 -34.0 -24.0 -34.55 -24.35 -34.8 -24.7 -34.85 -25.0 -34.75 -25.25 -34.4 -25.65 -34.0 -26.0 Q-33.8 -26.2 -33.45 -26.2 M-36.85 -27.5 L-36.25 -28.15 -35.6 -28.7 -35.5 -28.8 -35.4 -28.8 -34.85 -29.1 -34.85 -29.15 -34.8 -29.15 -33.9 -29.4 -32.95 -29.4 Q-32.15 -29.25 -31.45 -28.85 L-31.25 -28.65 -31.05 -28.55 -30.8 -28.35 -29.6 -26.9 -29.35 -25.95 -29.25 -26.05 -29.05 -26.15 -28.5 -26.25 Q-28.0 -26.25 -27.65 -25.9 L-27.5 -25.8 -27.45 -25.75 -27.35 -25.7 -26.85 -25.35 -26.65 -25.15 -26.45 -25.05 Q-25.95 -24.65 -25.9 -24.0 -25.9 -23.4 -26.25 -22.9 -26.85 -22.1 -27.9 -21.9 L-29.15 -21.7 -28.95 -21.6 Q-28.55 -21.25 -28.45 -20.7 -28.35 -20.1 -28.7 -19.7 L-28.95 -19.4 -29.0 -19.4 -29.05 -19.3 -29.1 -19.25 -29.15 -19.15 -29.4 -18.85 -29.45 -18.7 -29.65 -18.45 Q-30.05 -17.9 -30.75 -17.9 -31.35 -17.9 -31.65 -18.2 L-31.95 -18.45 -32.1 -18.6 -33.15 -19.45 -33.25 -19.55 -33.45 -19.65 -33.75 -19.9 -34.45 -20.35 -34.55 -20.5 -34.75 -20.65 -34.95 -20.75 -35.25 -20.95 -36.6 -22.1 -37.9 -23.0 -38.55 -23.7 Q-39.1 -24.5 -38.45 -25.35 L-38.3 -25.55 -38.15 -25.7 -38.05 -25.9 -37.85 -26.1 -37.4 -26.65 -37.3 -26.85 -36.85 -27.5 M-35.0 -27.9 L-35.55 -27.5 -36.35 -26.45 -36.6 -26.05 -37.25 -25.3 -37.65 -24.75 Q-37.95 -24.35 -37.3 -23.8 L-34.65 -21.75 -34.15 -21.45 -33.15 -20.65 -32.65 -20.35 -31.3 -19.25 -31.05 -19.0 -30.75 -18.9 -30.45 -19.05 -29.7 -20.1 -29.5 -20.3 Q-29.3 -20.6 -29.55 -20.8 L-29.95 -21.0 -30.25 -21.2 -30.7 -21.6 -30.75 -21.9 -30.7 -22.1 -30.1 -22.5 -29.5 -22.7 -29.25 -22.7 -28.15 -22.9 Q-27.55 -22.9 -27.05 -23.5 -26.8 -24.05 -27.05 -24.25 L-27.3 -24.4 -28.25 -25.15 -28.5 -25.25 -28.65 -25.2 -28.85 -25.05 -29.6 -24.75 -29.8 -24.7 -30.05 -24.75 -30.3 -25.6 -30.55 -26.5 Q-30.8 -27.1 -31.4 -27.55 L-31.85 -27.85 -32.05 -28.05 -33.05 -28.4 -33.75 -28.4 -34.4 -28.2 -35.0 -27.9" fill="#ac800a" fill-rule="evenodd" stroke="none"/>
    <path d="M-22.3 -27.95 L-22.65 -27.7 -22.85 -27.45 -24.4 -26.0 -25.85 -24.7 Q-26.05 -24.5 -26.25 -24.5 -26.55 -24.5 -26.7 -24.75 L-27.25 -25.35 -27.45 -25.5 -29.9 -28.15 -30.05 -28.35 -31.45 -29.95 -31.95 -30.4 -32.25 -30.85 Q-32.4 -31.15 -32.15 -31.4 L-30.75 -32.65 -28.8 -34.5 Q-28.45 -34.8 -28.15 -34.5 L-27.45 -33.75 -27.35 -33.4 -27.4 -33.2 -27.55 -32.95 -28.25 -32.3 -28.4 -32.2 -28.65 -32.0 -28.9 -31.75 Q-29.65 -31.15 -29.2 -30.65 L-28.7 -30.2 Q-28.5 -30.1 -28.25 -30.3 L-27.85 -30.6 -27.4 -31.1 -26.9 -31.45 -26.55 -31.85 -26.25 -32.05 -25.8 -31.95 -25.6 -31.65 -25.1 -31.05 Q-24.85 -30.65 -25.2 -30.3 L-26.8 -28.85 -26.95 -28.6 -26.8 -28.05 -26.1 -27.5 Q-25.75 -27.45 -25.25 -27.95 L-23.85 -29.3 Q-23.8 -29.3 -23.65 -29.4 L-23.3 -29.45 -22.85 -29.1 -22.8 -29.05 -22.25 -28.55 Q-21.95 -28.25 -22.3 -27.95" fill="#fbd248" fill-rule="evenodd" stroke="none"/>
    <path d="M-22.3 -27.95 Q-21.95 -28.25 -22.25 -28.55 L-22.8 -29.05 -22.85 -29.1 -23.3 -29.45 -23.4 -29.5 -23.85 -29.3 -25.25 -27.95 Q-25.75 -27.5 -26.0 -27.5 L-26.8 -28.05 -26.95 -28.6 -26.8 -28.85 -25.2 -30.3 Q-24.85 -30.65 -25.1 -31.05 L-25.6 -31.65 -25.8 -31.95 -26.15 -32.05 -26.25 -32.05 -26.55 -31.85 -26.9 -31.45 -27.4 -31.1 -27.85 -30.6 -28.25 -30.3 -28.55 -30.2 -29.2 -30.65 Q-29.65 -31.15 -28.9 -31.75 L-28.65 -32.0 -28.4 -32.2 -28.25 -32.3 -27.55 -32.95 -27.4 -33.2 -27.35 -33.4 -27.45 -33.75 -28.15 -34.5 -28.5 -34.65 -28.8 -34.5 -30.75 -32.65 -32.15 -31.4 Q-32.4 -31.15 -32.25 -30.85 L-31.95 -30.4 -31.45 -29.95 -30.05 -28.35 -29.9 -28.15 -27.45 -25.5 -27.25 -25.35 -26.7 -24.75 Q-26.55 -24.5 -26.25 -24.5 -26.05 -24.5 -25.85 -24.7 L-24.85 -25.65 -24.4 -26.0 -23.55 -26.85 -22.85 -27.45 -22.65 -27.7 -22.3 -27.95 M-22.1 -29.8 L-21.85 -29.55 -21.8 -29.55 -21.75 -29.5 -21.55 -29.25 Q-21.05 -28.75 -21.15 -28.25 -21.15 -27.7 -21.65 -27.2 L-21.7 -27.15 -21.75 -27.15 -21.9 -27.0 -22.0 -26.95 -22.15 -26.75 -22.5 -26.4 -22.65 -26.3 -22.65 -26.25 -22.7 -26.25 -23.75 -25.25 -24.2 -24.9 -25.2 -23.95 Q-25.65 -23.5 -26.25 -23.5 -26.9 -23.5 -27.45 -24.05 L-27.6 -24.25 -29.1 -25.8 -29.25 -26.0 -29.85 -26.65 -30.05 -26.8 -30.65 -27.45 -30.85 -27.75 -30.95 -27.85 -31.0 -27.95 -31.15 -28.05 -32.2 -29.25 -32.7 -29.75 -33.25 -30.55 Q-33.5 -31.5 -32.85 -32.15 L-32.45 -32.45 -32.25 -32.7 -31.0 -33.8 -30.8 -34.05 -30.65 -34.15 -30.45 -34.35 -29.45 -35.25 Q-29.05 -35.65 -28.5 -35.65 -27.8 -35.65 -27.45 -35.15 L-26.7 -34.45 Q-26.35 -34.05 -26.35 -33.55 L-26.35 -33.05 -26.15 -33.05 Q-25.5 -33.05 -25.05 -32.6 L-24.55 -31.95 -24.5 -31.95 -24.35 -31.7 -24.25 -31.6 Q-23.85 -30.95 -24.05 -30.35 L-23.4 -30.5 -22.95 -30.4 -22.15 -29.8 -22.1 -29.8" fill="#ac800a" fill-rule="evenodd" stroke="none"/>
    <path d="M-20.7 -37.1 L-19.85 -36.3 -19.55 -35.95 -19.05 -35.5 -18.8 -35.2 -18.6 -35.05 -18.0 -34.4 -16.4 -32.85 -16.2 -32.7 -15.95 -32.4 Q-15.8 -32.15 -16.3 -31.9 L-16.9 -31.45 Q-17.4 -31.15 -17.6 -31.15 L-18.1 -31.35 -18.35 -31.6 -18.5 -31.7 -19.0 -31.8 -19.75 -31.45 -20.1 -31.25 -20.4 -30.95 -20.7 -30.5 -20.55 -29.65 -20.55 -29.35 -20.85 -29.05 -21.7 -28.5 -22.1 -28.3 -22.45 -28.55 -22.6 -28.85 -22.65 -29.05 -22.75 -29.25 -23.0 -30.0 -23.25 -30.5 -23.6 -31.6 -23.85 -32.15 -24.15 -33.1 -24.2 -33.35 -24.25 -33.5 -24.65 -34.55 -24.7 -34.7 -24.8 -34.9 -24.85 -35.2 -25.0 -35.55 -25.3 -36.6 Q-25.25 -37.0 -24.8 -37.3 L-23.4 -38.2 Q-22.95 -38.55 -22.5 -38.5 -22.15 -38.5 -21.8 -38.15 L-21.4 -37.75 -21.05 -37.5 -20.7 -37.1 M-22.2 -35.65 L-22.6 -35.75 -22.7 -35.5 -22.5 -34.65 -22.4 -34.35 -22.25 -34.1 -22.2 -33.8 -21.9 -33.15 -20.9 -33.05 -20.4 -33.4 Q-20.2 -33.6 -20.35 -33.85 L-21.0 -34.55 -21.35 -34.85 -21.6 -35.15 -22.2 -35.65" fill="#fbd248" fill-rule="evenodd" stroke="none"/>
    <path d="M-22.2 -35.65 L-21.6 -35.15 -21.35 -34.85 -21.0 -34.55 -20.35 -33.85 Q-20.2 -33.6 -20.4 -33.4 L-20.9 -33.05 -21.45 -32.85 -21.9 -33.15 -22.2 -33.8 -22.25 -34.1 -22.4 -34.35 -22.5 -34.65 -22.7 -35.5 -22.6 -35.75 -22.45 -35.8 -22.2 -35.65 M-21.05 -37.5 L-21.4 -37.75 -21.8 -38.15 Q-22.15 -38.5 -22.5 -38.5 L-22.55 -38.5 Q-23.1 -38.5 -23.4 -38.2 L-24.8 -37.3 Q-25.25 -37.0 -25.3 -36.6 L-25.0 -35.55 -24.85 -35.2 -24.8 -34.9 -24.7 -34.7 -24.65 -34.55 -24.25 -33.5 -24.2 -33.35 -24.15 -33.1 -23.85 -32.15 -23.6 -31.6 -23.25 -30.5 -23.0 -30.0 -22.75 -29.25 -22.65 -29.05 -22.6 -28.85 -22.45 -28.55 -22.1 -28.3 -21.7 -28.5 -20.85 -29.05 -20.55 -29.35 -20.55 -29.65 -20.7 -30.5 -20.4 -30.95 -20.1 -31.25 -19.75 -31.45 -19.0 -31.8 -18.85 -31.85 -18.5 -31.7 -18.35 -31.6 -18.1 -31.35 -17.65 -31.15 Q-17.4 -31.15 -16.9 -31.45 L-16.3 -31.9 Q-15.8 -32.15 -15.95 -32.4 L-16.2 -32.7 -16.4 -32.85 -18.0 -34.4 -18.6 -35.05 -18.8 -35.2 -19.05 -35.5 -19.55 -35.95 -19.85 -36.3 -20.7 -37.1 -21.05 -37.5 M-19.75 -37.55 L-19.7 -37.55 -18.15 -36.0 -18.15 -35.95 -18.0 -35.8 -17.9 -35.75 -17.3 -35.1 -17.1 -34.95 -16.55 -34.4 -16.55 -34.35 -15.75 -33.6 -15.45 -33.35 -15.1 -32.9 Q-14.85 -32.5 -14.95 -32.0 -15.1 -31.45 -15.8 -31.05 -16.05 -30.8 -16.35 -30.6 -17.15 -30.15 -17.65 -30.15 -18.0 -30.15 -18.75 -30.6 L-18.9 -30.75 -19.2 -30.6 -19.7 -30.25 -19.65 -30.1 Q-19.45 -29.7 -19.55 -29.15 -19.7 -28.55 -20.35 -28.15 L-20.55 -28.05 -20.85 -27.85 -20.95 -27.8 -21.2 -27.6 Q-21.7 -27.3 -22.1 -27.3 L-22.2 -27.3 -22.25 -27.35 Q-22.95 -27.45 -23.3 -28.0 L-23.6 -28.65 -23.6 -28.75 -23.65 -28.85 -23.75 -29.15 -23.9 -29.45 -23.95 -29.65 -24.15 -30.1 -24.15 -30.15 -24.2 -30.15 -24.45 -31.0 -24.55 -31.2 -24.55 -31.25 -24.8 -31.8 -25.15 -32.85 -25.15 -33.05 -25.2 -33.15 -25.65 -34.25 -25.65 -34.35 -25.8 -34.85 -25.8 -34.9 -25.85 -34.95 -25.85 -35.0 -25.9 -35.15 Q-26.9 -37.2 -25.35 -38.15 L-24.1 -38.95 -24.05 -39.0 Q-23.3 -39.5 -22.55 -39.5 L-22.4 -39.5 Q-21.7 -39.45 -21.15 -38.9 L-20.9 -38.65 -20.7 -38.5 -20.6 -38.4 -20.35 -38.2 -20.35 -38.15 -19.75 -37.55" fill="#ac800a" fill-rule="evenodd" stroke="none"/>
    <path d="M-15.5 -42.0 L-15.2 -42.15 -14.1 -42.5 -13.75 -42.65 -13.55 -42.7 -13.3 -42.6 -13.1 -42.15 -12.9 -41.65 -12.8 -41.5 -12.7 -41.3 Q-12.6 -41.0 -12.95 -40.75 L-13.35 -40.6 -14.2 -40.05 -14.3 -39.75 -13.9 -38.55 -13.7 -38.15 -13.6 -37.75 -12.95 -36.3 -12.8 -35.75 -12.25 -34.35 -12.05 -33.95 Q-11.95 -33.6 -12.5 -33.35 L-12.85 -33.25 -13.15 -33.1 -13.7 -32.9 Q-13.9 -32.8 -14.1 -33.1 L-14.25 -33.3 -14.3 -33.45 -14.4 -33.9 -15.15 -35.7 -15.3 -36.25 -15.45 -36.55 -15.55 -36.95 -16.25 -38.65 -16.3 -38.8 -16.45 -39.0 -16.75 -39.2 -17.65 -39.0 -18.1 -38.8 Q-18.55 -38.55 -18.75 -39.05 L-18.95 -39.65 -19.05 -39.85 -19.15 -40.15 Q-19.3 -40.55 -18.8 -40.75 L-16.0 -41.8 -15.75 -41.95 -15.5 -42.0" fill="#fbd248" fill-rule="evenodd" stroke="none"/>
    <path d="M-13.5 -42.7 L-13.55 -42.7 -13.75 -42.65 -14.1 -42.5 -15.2 -42.15 -15.5 -42.0 -15.75 -41.95 -16.0 -41.8 -18.8 -40.75 Q-19.3 -40.55 -19.15 -40.15 L-19.05 -39.85 -18.95 -39.65 -18.75 -39.05 -18.25 -38.75 -18.1 -38.8 -17.65 -39.0 -16.85 -39.2 -16.75 -39.2 -16.45 -39.0 -16.3 -38.8 -16.25 -38.65 -15.55 -36.95 -15.45 -36.55 -15.3 -36.25 -15.15 -35.7 -14.4 -33.9 -14.3 -33.45 -14.25 -33.3 -14.1 -33.1 -13.8 -32.85 -13.15 -33.1 -12.85 -33.25 -12.5 -33.35 Q-11.95 -33.6 -12.05 -33.95 L-12.25 -34.35 -12.8 -35.75 -12.95 -36.3 -13.6 -37.75 -13.7 -38.15 -13.9 -38.55 -14.3 -39.75 -14.2 -40.05 -13.35 -40.6 -12.95 -40.75 Q-12.6 -41.0 -12.7 -41.3 L-12.8 -41.5 -12.9 -41.65 -13.1 -42.15 -13.3 -42.6 -13.5 -42.7 M-12.15 -42.5 L-11.95 -42.0 -11.9 -41.9 -11.85 -41.85 -11.8 -41.65 Q-11.35 -40.65 -12.4 -39.95 L-12.4 -39.9 -12.45 -39.9 -13.0 -39.65 -13.2 -39.6 -12.9 -38.75 -12.4 -37.5 -12.35 -37.45 -12.25 -37.1 -12.15 -36.95 -11.8 -35.95 -11.6 -35.6 -11.4 -35.1 -11.35 -34.85 -11.3 -34.75 -11.15 -34.35 Q-10.85 -33.75 -11.3 -33.05 -11.7 -32.55 -12.15 -32.45 L-12.55 -32.25 -13.05 -32.1 -13.1 -32.1 -13.1 -32.05 -13.35 -31.95 -13.8 -31.85 Q-14.45 -31.85 -14.9 -32.45 L-15.2 -33.0 -15.2 -33.1 -16.2 -35.65 -16.25 -35.9 -16.4 -36.2 -16.45 -36.5 -16.5 -36.6 -16.6 -36.75 -17.0 -37.8 -17.05 -38.0 -17.15 -38.1 -17.3 -38.05 -17.4 -38.05 -17.75 -37.85 -18.25 -37.75 Q-19.35 -37.75 -19.7 -38.75 L-19.9 -39.25 -19.95 -39.45 -20.1 -39.75 -20.1 -39.8 Q-20.35 -40.35 -20.1 -40.85 -19.9 -41.4 -19.2 -41.65 -19.0 -41.7 -18.85 -41.8 L-18.6 -41.85 -17.9 -42.15 -17.25 -42.35 -17.05 -42.45 -16.65 -42.6 -16.45 -42.7 -16.4 -42.7 -16.05 -42.85 -15.9 -42.9 -15.85 -42.95 -15.8 -42.95 -15.3 -43.15 -15.25 -43.15 -14.95 -43.3 -14.65 -43.4 -14.5 -43.4 -14.45 -43.45 -14.15 -43.6 -13.65 -43.7 -13.5 -43.7 Q-12.8 -43.7 -12.5 -43.2 L-12.15 -42.5" fill="#ac800a" fill-rule="evenodd" stroke="none"/>
    <path d="M-0.65 -43.9 Q0.1 -43.4 0.3 -42.6 L0.45 -42.05 0.55 -41.3 0.35 -40.05 0.2 -39.7 0.0 -39.4 -0.15 -39.05 -0.7 -38.6 Q-1.25 -38.15 -2.2 -37.95 L-3.8 -37.85 -4.15 -37.65 -4.3 -37.25 -4.35 -37.05 -4.15 -35.9 -4.25 -35.4 -5.0 -35.25 -5.65 -35.25 -6.0 -35.2 Q-6.35 -35.2 -6.35 -35.65 L-6.4 -36.9 -6.5 -37.45 -6.6 -39.75 -6.6 -40.15 -6.6 -40.35 -6.65 -40.6 -6.65 -40.95 -6.75 -41.45 -6.75 -42.0 -6.8 -42.35 -6.8 -42.55 -6.95 -43.45 Q-7.0 -43.9 -6.65 -44.2 L-6.2 -44.35 -3.85 -44.6 -3.4 -44.6 -1.95 -44.5 -1.15 -44.2 -0.65 -43.9 M-1.85 -42.25 L-2.05 -42.45 Q-2.4 -42.75 -2.9 -42.8 L-3.55 -42.75 -3.85 -42.8 -4.1 -42.7 -4.45 -42.4 -4.55 -41.2 -4.55 -41.0 -4.45 -40.45 -4.05 -39.9 -3.1 -39.8 -2.45 -39.9 -1.9 -40.25 -1.85 -40.4 -1.65 -40.6 -1.6 -40.8 -1.55 -41.65 -1.85 -42.25" fill="#fbd248" fill-rule="evenodd" stroke="none"/>
    <path d="M-2.8 -41.75 L-3.0 -41.8 -3.4 -41.8 -3.5 -41.75 -3.6 -41.75 -3.55 -41.3 -3.55 -41.05 -3.5 -40.95 -3.5 -40.8 -3.3 -40.75 -3.2 -40.75 -2.8 -40.85 -2.7 -40.9 -2.65 -40.9 -2.65 -40.95 -2.6 -41.05 -2.55 -41.45 -2.65 -41.6 -2.65 -41.65 -2.8 -41.75 M-1.85 -42.25 L-1.55 -41.65 -1.6 -40.8 -1.65 -40.6 -1.85 -40.4 -1.9 -40.25 -2.45 -39.9 -3.1 -39.8 -3.3 -39.75 -4.05 -39.9 -4.45 -40.45 -4.55 -41.0 -4.55 -41.2 -4.45 -42.4 -4.1 -42.7 -3.85 -42.8 -3.8 -42.8 -3.6 -42.75 -3.55 -42.75 -3.1 -42.8 -2.9 -42.8 Q-2.4 -42.75 -2.05 -42.45 L-1.85 -42.25 M-0.75 -45.1 L-0.05 -44.7 Q1.0 -43.85 1.25 -42.85 L1.35 -42.4 1.4 -42.25 1.55 -41.35 1.3 -39.75 1.25 -39.6 1.25 -39.5 0.95 -38.95 0.85 -38.85 0.8 -38.7 0.65 -38.5 0.65 -38.45 0.6 -38.45 -0.05 -37.8 Q-0.85 -37.25 -1.9 -37.0 L-2.0 -37.0 -2.7 -36.9 -3.3 -36.9 -3.25 -36.75 -3.2 -36.4 -3.2 -36.25 -3.15 -36.0 Q-3.15 -35.2 -3.45 -34.8 -3.9 -34.35 -4.95 -34.25 L-5.55 -34.25 -5.65 -34.2 -6.0 -34.2 Q-6.55 -34.2 -6.9 -34.6 L-7.35 -35.6 -7.4 -36.8 -7.5 -37.35 -7.5 -38.0 -7.55 -38.3 -7.6 -40.35 -7.65 -40.5 -7.65 -40.85 -7.7 -41.05 -7.75 -41.4 -7.75 -41.95 -7.8 -42.1 -7.8 -42.45 -7.95 -43.35 Q-8.05 -44.5 -7.2 -45.0 L-7.2 -45.05 -7.15 -45.05 -6.3 -45.35 -6.0 -45.35 -5.5 -45.4 -5.4 -45.4 -5.25 -45.45 -3.45 -45.6 -2.85 -45.65 -1.7 -45.45 -0.75 -45.1 M-0.65 -43.9 L-1.15 -44.2 -1.95 -44.5 -2.85 -44.65 -6.2 -44.35 -6.65 -44.2 Q-7.0 -43.9 -6.95 -43.45 L-6.8 -42.55 -6.8 -42.35 -6.75 -42.0 -6.75 -41.45 -6.65 -40.95 -6.65 -40.6 -6.6 -40.35 -6.6 -40.15 -6.6 -39.75 -6.5 -37.45 -6.4 -36.9 -6.35 -35.65 Q-6.35 -35.2 -6.0 -35.2 L-5.65 -35.25 -5.0 -35.25 -4.25 -35.4 -4.15 -35.9 -4.35 -37.05 -4.3 -37.25 -4.15 -37.65 -3.8 -37.85 -3.4 -37.9 -2.75 -37.9 -2.2 -37.95 Q-1.25 -38.15 -0.7 -38.6 L-0.15 -39.05 0.0 -39.4 0.2 -39.7 0.35 -40.05 0.55 -41.3 0.45 -42.05 0.3 -42.6 Q0.1 -43.4 -0.65 -43.9" fill="#ac800a" fill-rule="evenodd" stroke="none"/>
    <path d="M9.95 -42.7 L9.85 -42.3 9.85 -42.1 9.8 -41.6 9.7 -41.3 9.7 -40.95 9.55 -40.4 9.55 -40.2 9.15 -37.7 9.1 -37.2 8.9 -36.5 8.45 -35.9 7.9 -35.45 7.1 -35.1 6.45 -34.95 5.4 -35.0 4.75 -35.1 Q3.9 -35.2 3.05 -35.6 L2.75 -35.8 2.1 -36.45 1.85 -36.9 1.65 -37.45 1.65 -37.95 1.65 -38.9 1.95 -41.15 2.05 -41.5 2.4 -44.25 2.55 -44.5 Q2.75 -44.8 2.95 -44.75 L3.15 -44.65 3.45 -44.6 3.9 -44.6 4.55 -44.45 4.75 -44.1 4.65 -43.9 4.0 -39.45 4.0 -39.15 3.95 -38.95 4.0 -37.95 4.4 -37.4 5.35 -37.05 5.85 -37.05 Q6.35 -37.15 6.55 -37.4 L6.95 -38.05 7.25 -40.05 7.5 -41.1 7.75 -43.4 7.95 -43.85 8.4 -43.95 8.6 -43.9 8.65 -43.9 8.7 -43.85 8.75 -43.85 9.6 -43.8 9.9 -43.6 10.0 -43.15 9.95 -42.7" fill="#fbd248" fill-rule="evenodd" stroke="none"/>
    <path d="M8.75 -43.85 L8.7 -43.85 8.65 -43.9 8.6 -43.9 8.4 -43.95 8.15 -43.95 7.95 -43.85 7.75 -43.4 7.5 -41.1 7.25 -40.05 6.95 -38.05 6.55 -37.4 Q6.35 -37.15 5.85 -37.05 L5.35 -37.05 4.4 -37.4 4.0 -37.95 3.95 -38.95 4.0 -39.15 4.0 -39.45 4.65 -43.9 4.75 -44.1 4.55 -44.45 3.9 -44.6 3.45 -44.6 3.15 -44.65 2.95 -44.75 2.85 -44.75 2.55 -44.5 2.4 -44.25 2.05 -41.5 1.95 -41.15 1.65 -38.9 1.65 -37.95 1.65 -37.45 1.85 -36.9 2.1 -36.45 2.75 -35.8 3.05 -35.6 Q3.9 -35.2 4.75 -35.1 L6.05 -34.95 6.45 -34.95 7.1 -35.1 7.9 -35.45 8.45 -35.9 8.9 -36.5 9.1 -37.2 9.15 -37.7 9.3 -38.4 9.55 -40.2 9.55 -40.4 9.7 -40.95 9.7 -41.3 9.8 -41.6 9.85 -42.1 9.85 -42.3 9.95 -42.7 10.0 -43.15 9.9 -43.6 9.6 -43.8 8.75 -43.85 M10.75 -44.15 L10.85 -43.95 11.0 -43.05 11.0 -43.0 10.9 -42.3 10.85 -42.2 10.85 -42.0 10.75 -41.45 10.75 -41.25 10.7 -41.15 10.7 -41.05 10.55 -40.25 10.55 -40.05 10.5 -39.5 10.2 -38.0 10.2 -37.8 10.15 -37.55 10.15 -37.45 9.8 -36.15 9.25 -35.25 Q8.8 -34.75 8.4 -34.55 L7.4 -34.15 6.6 -34.0 6.55 -34.0 6.05 -33.95 5.25 -34.0 4.75 -34.1 4.65 -34.1 Q3.65 -34.25 2.6 -34.7 L2.55 -34.7 2.55 -34.75 2.25 -34.9 2.15 -35.0 1.25 -35.9 0.9 -36.55 0.7 -37.35 0.65 -37.65 0.65 -37.9 0.65 -39.0 0.65 -39.05 0.75 -39.5 0.75 -39.9 0.8 -40.1 0.8 -40.15 0.85 -40.25 0.85 -40.5 0.9 -40.65 0.9 -40.85 0.95 -41.0 0.95 -41.3 1.05 -41.65 1.1 -42.1 1.15 -42.3 1.15 -42.5 1.2 -42.7 1.2 -43.1 1.45 -44.4 1.7 -45.05 Q2.05 -45.75 2.85 -45.75 L3.1 -45.75 3.45 -45.65 3.55 -45.6 3.75 -45.6 4.05 -45.55 4.9 -45.35 5.1 -45.25 Q5.85 -44.75 5.7 -43.95 L5.3 -41.25 5.25 -41.15 5.25 -40.9 5.1 -40.4 5.05 -39.55 5.0 -39.4 5.0 -39.05 4.95 -39.0 4.95 -38.85 5.0 -38.25 5.0 -38.2 5.45 -38.05 5.8 -38.05 5.85 -38.1 5.95 -38.15 5.95 -38.2 6.05 -38.85 6.1 -39.0 6.1 -39.2 6.2 -39.8 6.25 -39.8 6.25 -40.2 6.35 -40.8 6.4 -40.85 6.5 -41.25 6.55 -42.15 6.75 -43.25 6.75 -43.55 Q6.8 -44.1 7.15 -44.5 7.6 -44.95 8.15 -44.95 L8.55 -44.9 8.75 -44.9 9.1 -44.85 9.2 -44.8 9.7 -44.75 Q10.4 -44.65 10.75 -44.15" fill="#ac800a" fill-rule="evenodd" stroke="none"/>
    <path d="M18.95 -40.3 L19.35 -40.3 19.95 -40.05 20.3 -39.95 Q20.45 -39.85 20.55 -39.8 L20.8 -39.25 20.6 -38.9 19.75 -36.95 18.35 -33.4 18.3 -33.2 17.95 -32.6 17.6 -31.6 Q17.45 -31.2 16.85 -31.45 L15.7 -31.9 Q15.45 -32.05 15.55 -32.35 L15.65 -32.7 16.05 -33.7 16.3 -34.15 16.4 -34.5 16.8 -35.3 16.85 -35.55 16.75 -35.85 16.05 -35.65 15.1 -35.2 Q14.65 -34.9 14.4 -35.0 L14.3 -35.1 14.1 -35.5 13.7 -36.9 13.35 -37.6 13.1 -37.65 12.75 -37.2 12.3 -36.05 12.0 -35.5 11.45 -34.0 Q11.3 -33.65 10.9 -33.85 L10.65 -34.0 9.8 -34.3 Q9.5 -34.4 9.5 -34.65 L9.5 -34.95 10.95 -38.45 11.8 -40.45 11.95 -40.7 12.6 -42.6 13.0 -42.85 13.2 -42.85 13.3 -42.8 13.35 -42.75 14.2 -42.45 14.5 -42.25 14.7 -41.45 14.85 -40.65 14.85 -40.35 15.35 -38.6 Q15.45 -38.05 15.6 -38.0 15.75 -37.95 16.15 -38.2 L17.05 -38.8 17.45 -39.1 18.6 -40.05 18.95 -40.3" fill="#fbd248" fill-rule="evenodd" stroke="none"/>
    <path d="M18.95 -40.3 L18.6 -40.05 17.45 -39.1 17.05 -38.8 16.15 -38.2 15.7 -37.95 15.6 -38.0 Q15.45 -38.05 15.35 -38.6 L14.85 -40.35 14.85 -40.65 14.7 -41.45 14.5 -42.25 14.2 -42.45 13.35 -42.75 13.3 -42.8 13.2 -42.85 13.0 -42.85 12.6 -42.6 11.95 -40.7 11.8 -40.45 11.7 -40.15 10.95 -38.45 9.5 -34.95 9.5 -34.65 Q9.5 -34.4 9.8 -34.3 L10.65 -34.0 10.9 -33.85 11.1 -33.8 11.45 -34.0 12.0 -35.5 12.3 -36.05 12.75 -37.2 13.1 -37.65 13.2 -37.65 13.35 -37.6 13.7 -36.9 14.1 -35.5 14.3 -35.1 14.4 -35.0 14.6 -34.95 15.1 -35.2 16.05 -35.65 16.6 -35.85 16.75 -35.85 16.85 -35.55 16.8 -35.3 16.4 -34.5 16.3 -34.15 16.05 -33.7 15.65 -32.7 15.55 -32.35 Q15.45 -32.05 15.7 -31.9 L16.85 -31.45 17.2 -31.35 Q17.45 -31.35 17.6 -31.6 L17.95 -32.6 18.3 -33.2 18.35 -33.4 19.75 -36.95 20.6 -38.9 20.8 -39.25 20.55 -39.8 Q20.45 -39.85 20.3 -39.95 L19.95 -40.05 19.2 -40.35 18.95 -40.3 M18.45 -41.15 L18.55 -41.25 19.2 -41.35 19.75 -41.25 20.35 -40.95 20.4 -40.95 20.9 -40.75 20.95 -40.7 21.7 -39.95 Q21.95 -39.4 21.7 -38.9 L21.5 -38.5 21.3 -37.95 20.65 -36.55 20.25 -35.45 19.3 -33.0 19.2 -32.85 19.2 -32.8 18.9 -32.25 18.7 -31.6 18.6 -31.45 18.5 -31.25 Q18.15 -30.35 17.2 -30.35 L16.45 -30.5 16.2 -30.65 15.6 -30.9 15.5 -30.9 15.3 -31.0 Q14.85 -31.15 14.6 -31.7 14.4 -32.1 14.6 -32.7 L15.1 -33.9 15.15 -34.05 14.6 -33.95 Q14.35 -33.95 14.05 -34.1 L13.5 -34.5 Q13.2 -34.85 13.15 -35.3 L13.1 -35.4 12.5 -34.0 12.4 -33.65 Q12.0 -32.8 11.1 -32.8 L10.55 -32.9 10.2 -33.05 10.0 -33.2 9.95 -33.2 9.4 -33.35 Q8.55 -33.75 8.5 -34.55 L8.5 -34.6 Q8.4 -34.9 8.6 -35.35 L8.9 -36.0 8.95 -36.2 9.4 -37.15 9.5 -37.5 10.2 -39.15 10.25 -39.3 10.3 -39.4 10.35 -39.6 10.45 -39.75 10.55 -39.95 10.75 -40.5 10.8 -40.6 10.95 -41.0 11.0 -41.05 11.05 -41.2 11.05 -41.3 11.7 -42.95 Q12.0 -43.75 12.8 -43.85 L13.1 -43.85 13.6 -43.75 13.65 -43.75 13.75 -43.7 13.8 -43.7 13.8 -43.65 14.0 -43.6 14.55 -43.4 14.6 -43.4 Q15.5 -43.0 15.65 -41.65 L15.7 -41.35 15.85 -40.85 15.85 -40.5 15.9 -40.45 15.95 -40.3 16.05 -39.8 16.05 -39.75 16.15 -39.4 16.2 -39.4 16.35 -39.55 16.85 -39.85 17.0 -40.0 17.3 -40.2 17.4 -40.35 18.05 -40.9 18.15 -40.95 18.2 -40.95 18.2 -41.0 18.45 -41.15" fill="#ac800a" fill-rule="evenodd" stroke="none"/>
    <path d="M20.6 -34.55 L20.8 -34.85 20.95 -35.0 21.05 -35.2 21.3 -35.5 21.9 -36.35 22.7 -37.6 Q23.0 -38.0 23.4 -38.0 L23.85 -37.8 24.55 -37.3 25.0 -37.05 25.8 -36.5 26.15 -36.25 27.2 -35.2 27.6 -34.45 27.8 -33.9 Q28.0 -33.05 27.7 -32.25 L27.05 -31.15 26.1 -30.3 25.75 -30.1 25.4 -30.0 25.05 -29.85 24.35 -29.85 Q23.8 -29.85 22.8 -30.35 L22.3 -30.65 21.5 -31.25 21.05 -31.35 Q20.9 -31.35 20.7 -31.15 L20.0 -30.05 19.6 -29.75 Q19.4 -29.75 18.9 -30.1 L18.4 -30.5 18.1 -30.65 Q17.85 -30.9 18.15 -31.25 L20.4 -34.35 20.6 -34.55 M22.85 -33.95 L22.65 -33.7 Q22.5 -33.3 22.65 -33.0 L23.25 -32.3 23.9 -32.0 24.5 -31.9 24.65 -31.95 24.95 -32.0 25.65 -32.7 25.65 -32.8 25.85 -33.4 25.8 -33.65 25.35 -34.5 24.85 -34.9 24.65 -35.1 24.4 -35.2 23.9 -35.2 23.05 -34.35 22.85 -33.95" fill="#fbd248" fill-rule="evenodd" stroke="none"/>
    <path d="M23.75 -33.6 L23.75 -33.5 23.65 -33.35 23.6 -33.35 23.85 -33.15 24.2 -32.95 24.35 -32.9 24.4 -32.9 24.5 -32.95 24.75 -33.2 24.8 -33.45 24.8 -33.65 24.65 -33.75 24.2 -34.15 23.9 -33.75 23.75 -33.6 M22.85 -33.95 L23.05 -34.35 23.9 -35.2 24.15 -35.25 24.4 -35.2 24.65 -35.1 24.85 -34.9 25.35 -34.5 25.8 -33.65 25.85 -33.4 25.65 -32.8 25.65 -32.7 24.95 -32.0 24.65 -31.95 24.5 -31.9 24.4 -31.9 23.9 -32.0 23.25 -32.3 22.65 -33.0 Q22.5 -33.3 22.65 -33.7 L22.85 -33.95 M23.25 -38.0 Q22.95 -38.0 22.7 -37.6 L21.9 -36.35 21.05 -35.2 20.95 -35.0 20.8 -34.85 20.6 -34.55 20.4 -34.35 18.15 -31.25 Q17.85 -30.9 18.1 -30.65 L18.4 -30.5 18.9 -30.1 Q19.4 -29.75 19.6 -29.75 L20.0 -30.05 20.7 -31.15 Q20.9 -31.35 21.05 -31.35 L21.2 -31.35 21.5 -31.25 22.3 -30.65 22.8 -30.35 Q23.8 -29.85 24.35 -29.85 L25.05 -29.85 25.4 -30.0 25.75 -30.1 26.1 -30.3 27.05 -31.15 27.7 -32.25 Q28.0 -33.05 27.8 -33.9 L27.6 -34.45 27.2 -35.2 26.15 -36.25 25.8 -36.5 25.0 -37.05 24.55 -37.3 23.85 -37.8 23.4 -38.0 23.25 -38.0 M28.5 -34.85 L28.75 -34.15 Q29.1 -33.05 28.6 -31.85 L28.4 -31.45 28.3 -31.35 27.85 -30.55 26.6 -29.45 26.45 -29.35 26.4 -29.25 25.8 -29.05 25.7 -29.05 25.55 -29.0 25.35 -28.9 25.25 -28.9 24.35 -28.85 Q23.45 -28.9 22.35 -29.45 L22.3 -29.45 21.4 -30.1 21.3 -30.2 21.2 -30.1 21.0 -29.8 20.95 -29.65 20.8 -29.45 Q20.3 -28.75 19.6 -28.75 19.15 -28.75 18.3 -29.25 L17.85 -29.65 17.75 -29.7 17.55 -29.85 Q17.15 -30.05 17.05 -30.65 16.9 -31.3 17.3 -31.8 L18.65 -33.65 18.8 -33.8 18.9 -34.05 19.6 -34.9 19.75 -35.15 20.15 -35.6 20.15 -35.65 20.4 -36.0 20.5 -36.05 20.55 -36.2 21.1 -36.95 21.15 -37.05 21.6 -37.7 21.85 -38.2 Q22.65 -39.0 23.25 -39.0 L23.5 -39.0 23.5 -38.95 23.55 -38.95 24.4 -38.6 24.5 -38.55 24.65 -38.5 25.05 -38.15 25.25 -38.05 26.55 -37.15 26.75 -37.05 26.75 -37.0 26.8 -37.0 28.0 -35.75 28.5 -34.85" fill="#ac800a" fill-rule="evenodd" stroke="none"/>
    <path d="M26.95 -29.25 L27.3 -29.45 28.7 -30.85 29.15 -31.2 29.75 -31.85 30.05 -32.05 30.3 -32.35 Q30.6 -32.6 30.85 -32.35 L30.95 -32.25 31.05 -32.1 31.85 -31.3 31.95 -31.0 31.85 -30.7 31.7 -30.6 30.05 -29.1 30.05 -28.8 30.25 -28.7 31.75 -28.8 32.35 -28.9 32.6 -28.9 33.5 -29.0 33.7 -29.05 34.2 -28.75 34.4 -28.5 34.75 -28.2 35.05 -27.8 35.2 -27.65 Q35.55 -27.5 35.2 -27.2 L34.75 -27.05 34.4 -27.05 33.45 -26.9 32.7 -26.9 31.25 -26.7 30.7 -26.45 30.45 -26.1 29.3 -22.8 29.0 -22.05 28.75 -21.5 28.65 -21.45 28.35 -21.5 28.1 -21.85 27.4 -22.6 27.1 -22.85 27.0 -23.1 27.25 -23.85 27.45 -24.25 27.55 -24.55 27.55 -24.65 27.85 -25.35 28.0 -25.95 28.15 -26.25 28.1 -26.9 27.55 -26.8 26.6 -25.95 26.35 -25.75 25.8 -25.15 25.2 -25.05 25.0 -25.2 24.85 -25.4 24.1 -26.2 24.0 -26.35 24.1 -26.65 26.05 -28.45 26.35 -28.65 26.95 -29.25" fill="#fbd248" fill-rule="evenodd" stroke="none"/>
    <path d="M27.5 -29.7 L27.3 -29.45 26.95 -29.25 26.35 -28.65 26.05 -28.45 24.1 -26.65 24.0 -26.35 24.1 -26.2 24.85 -25.4 25.0 -25.2 25.2 -25.05 25.4 -25.0 Q25.65 -25.0 25.8 -25.15 L26.35 -25.75 26.6 -25.95 27.55 -26.8 27.9 -27.0 28.1 -26.9 28.15 -26.25 28.0 -25.95 27.85 -25.35 27.55 -24.65 27.55 -24.55 27.45 -24.25 27.25 -23.85 27.0 -23.1 27.1 -22.85 27.4 -22.6 28.1 -21.85 28.35 -21.5 28.55 -21.4 28.75 -21.5 29.0 -22.05 29.3 -22.8 29.45 -23.35 30.45 -26.1 30.7 -26.45 31.25 -26.7 32.7 -26.9 33.45 -26.9 34.4 -27.05 34.75 -27.05 35.2 -27.2 Q35.55 -27.5 35.2 -27.65 L35.05 -27.8 34.75 -28.2 34.4 -28.5 34.2 -28.75 33.7 -29.05 33.65 -29.05 33.5 -29.0 32.6 -28.9 32.35 -28.9 30.6 -28.7 30.25 -28.7 30.05 -28.8 30.05 -29.1 31.7 -30.6 31.85 -30.7 31.95 -31.0 31.85 -31.3 31.05 -32.1 30.95 -32.25 30.85 -32.35 30.6 -32.5 30.3 -32.35 30.05 -32.05 29.75 -31.85 29.15 -31.2 28.7 -30.85 27.5 -29.7 M27.0 -30.55 L28.0 -31.6 28.45 -31.95 29.25 -32.75 29.35 -32.8 29.45 -32.9 29.6 -33.1 Q30.1 -33.5 30.6 -33.5 31.2 -33.5 31.55 -33.05 L31.6 -33.0 31.75 -32.8 31.9 -32.7 31.9 -32.65 31.95 -32.65 32.1 -32.45 32.6 -32.0 Q33.1 -31.45 32.95 -30.85 L32.5 -30.0 32.45 -29.9 32.5 -29.9 33.4 -30.0 33.65 -30.05 33.85 -30.0 Q34.45 -30.0 34.95 -29.45 L35.15 -29.2 35.5 -28.85 35.75 -28.5 35.8 -28.5 35.95 -28.35 Q36.8 -27.35 35.9 -26.45 L34.8 -26.05 34.4 -26.05 33.55 -25.9 32.85 -25.9 32.5 -25.85 32.35 -25.85 32.2 -25.8 31.8 -25.75 31.55 -25.75 31.4 -25.7 31.2 -25.3 31.15 -25.05 31.1 -25.0 31.1 -24.95 31.0 -24.85 31.0 -24.7 30.25 -22.55 30.25 -22.5 30.2 -22.45 29.95 -21.75 29.45 -20.8 28.9 -20.45 28.55 -20.4 Q28.05 -20.4 27.65 -20.85 L27.45 -21.05 27.4 -21.15 26.8 -21.8 26.65 -21.95 26.35 -22.2 Q25.95 -22.7 26.0 -23.25 L26.35 -24.25 26.4 -24.35 Q26.0 -24.0 25.4 -24.0 24.95 -24.0 24.55 -24.3 L24.4 -24.45 24.3 -24.5 24.15 -24.65 24.15 -24.7 23.8 -25.05 23.65 -25.25 23.6 -25.3 23.35 -25.5 23.05 -26.05 23.0 -26.15 23.0 -26.25 23.05 -26.65 23.45 -27.4 23.65 -27.55 25.65 -29.35 25.7 -29.4 25.7 -29.45 25.8 -29.55 25.95 -29.65 26.35 -30.05 26.45 -30.1 26.6 -30.2 26.85 -30.45 27.0 -30.55" fill="#ac800a" fill-rule="evenodd" stroke="none"/>
    <path d="M29.95 -21.7 L31.15 -22.55 31.35 -22.65 31.6 -22.85 34.65 -24.95 35.05 -25.15 35.75 -25.7 36.45 -25.75 36.55 -25.55 37.3 -24.5 37.3 -24.2 37.05 -23.85 32.3 -20.6 32.0 -20.45 30.65 -19.5 30.3 -19.2 Q30.0 -18.95 29.75 -19.3 L29.6 -19.6 28.9 -20.55 Q28.7 -20.8 28.95 -21.05 L29.2 -21.25 29.95 -21.7" fill="#fbd248" fill-rule="evenodd" stroke="none"/>
    <path d="M29.95 -21.7 L29.2 -21.25 28.95 -21.05 Q28.7 -20.8 28.9 -20.55 L29.6 -19.6 29.75 -19.3 Q29.85 -19.15 30.1 -19.15 L30.3 -19.2 30.65 -19.5 32.0 -20.45 32.3 -20.6 37.05 -23.85 37.3 -24.2 37.3 -24.5 37.1 -24.75 36.55 -25.55 36.45 -25.75 36.2 -25.85 35.75 -25.7 35.05 -25.15 34.65 -24.95 31.6 -22.85 31.35 -22.65 31.15 -22.55 29.95 -21.7 M28.6 -22.05 L30.6 -23.4 30.8 -23.5 31.05 -23.7 33.4 -25.3 33.65 -25.4 33.8 -25.55 34.1 -25.75 34.4 -25.9 34.5 -26.0 34.8 -26.2 35.2 -26.55 36.2 -26.85 Q36.85 -26.85 37.2 -26.4 L37.25 -26.35 37.25 -26.3 37.35 -26.15 37.4 -26.1 37.5 -25.9 37.65 -25.75 37.95 -25.3 38.0 -25.25 38.1 -25.05 Q38.4 -24.6 38.25 -23.9 38.15 -23.35 37.6 -23.0 L37.45 -22.9 37.25 -22.8 37.1 -22.65 36.35 -22.2 35.3 -21.45 35.1 -21.35 34.7 -21.05 33.6 -20.25 33.15 -19.95 32.85 -19.75 32.8 -19.75 32.75 -19.7 32.55 -19.6 32.4 -19.5 32.1 -19.25 31.25 -18.7 31.15 -18.6 30.85 -18.35 30.1 -18.15 Q29.35 -18.15 28.9 -18.8 L28.8 -18.95 28.75 -19.05 28.35 -19.65 28.3 -19.75 28.25 -19.8 28.1 -20.0 Q27.8 -20.4 27.85 -20.95 L28.25 -21.75 28.6 -22.05" fill="#ac800a" fill-rule="evenodd" stroke="none"/>
    <path d="M39.0 -21.85 L39.1 -21.65 39.15 -21.6 39.15 -21.5 39.25 -21.35 39.45 -20.8 39.45 -20.7 39.55 -20.45 39.5 -20.2 38.75 -18.95 38.7 -18.8 36.55 -15.6 37.15 -15.75 38.05 -16.15 38.45 -16.4 40.4 -17.3 40.7 -17.5 41.05 -17.45 41.65 -16.15 41.8 -15.95 Q41.95 -15.65 41.5 -15.45 L39.25 -14.4 38.2 -14.0 37.65 -13.65 35.65 -12.7 34.1 -11.95 Q33.7 -11.75 33.5 -12.2 L33.45 -12.35 33.3 -12.6 33.0 -13.3 Q32.85 -13.55 33.25 -14.05 L34.5 -15.95 35.0 -16.9 35.85 -18.05 35.95 -18.25 35.95 -18.5 35.65 -18.55 35.05 -18.3 34.7 -18.1 34.4 -18.0 34.15 -17.85 33.85 -17.75 32.4 -17.0 32.3 -16.9 31.9 -16.7 31.4 -16.8 31.3 -17.05 30.75 -18.0 30.65 -18.35 30.9 -18.65 33.7 -19.95 34.0 -20.15 34.9 -20.55 35.25 -20.65 35.9 -21.05 36.65 -21.35 37.35 -21.75 37.8 -21.95 38.3 -22.25 38.55 -22.35 38.85 -22.2 38.95 -21.9 39.0 -21.85" fill="#fbd248" fill-rule="evenodd" stroke="none"/>
    <path d="M38.6 -22.35 L38.55 -22.35 38.3 -22.25 37.6 -21.85 37.35 -21.75 36.65 -21.35 35.9 -21.05 35.25 -20.65 34.9 -20.55 34.0 -20.15 33.7 -19.95 30.9 -18.65 30.65 -18.35 30.75 -18.0 31.1 -17.35 31.3 -17.05 31.4 -16.8 Q31.55 -16.65 31.8 -16.65 L32.3 -16.9 32.4 -17.0 33.85 -17.75 34.15 -17.85 34.4 -18.0 34.7 -18.1 35.05 -18.3 35.65 -18.55 35.8 -18.55 35.95 -18.5 35.95 -18.25 35.85 -18.05 35.0 -16.9 34.65 -16.2 33.25 -14.05 Q32.85 -13.55 33.0 -13.3 L33.3 -12.6 33.45 -12.35 33.5 -12.2 33.9 -11.85 35.25 -12.55 35.65 -12.7 37.65 -13.65 38.2 -14.0 41.5 -15.45 Q41.95 -15.65 41.8 -15.95 L41.65 -16.15 41.05 -17.45 40.85 -17.5 40.7 -17.5 40.4 -17.3 38.45 -16.4 38.05 -16.15 37.65 -16.0 36.65 -15.55 36.55 -15.6 38.7 -18.8 38.75 -18.95 39.5 -20.2 39.55 -20.45 39.45 -20.7 39.45 -20.8 39.25 -21.35 39.15 -21.5 39.15 -21.6 39.1 -21.65 39.0 -21.85 38.95 -21.9 38.85 -22.2 38.6 -22.35 M38.55 -23.35 L38.6 -23.35 Q39.4 -23.35 39.8 -22.6 L39.85 -22.35 39.95 -22.2 40.1 -21.9 40.1 -21.85 40.15 -21.8 40.45 -20.95 40.45 -20.9 40.55 -20.6 40.45 -19.85 40.4 -19.8 39.65 -18.55 39.65 -18.5 39.55 -18.3 39.45 -18.15 39.4 -18.1 39.4 -18.05 39.3 -17.95 39.3 -17.9 39.8 -18.15 39.95 -18.2 40.0 -18.25 40.25 -18.4 40.85 -18.5 41.75 -18.15 41.8 -18.1 42.15 -17.55 42.25 -17.25 42.4 -16.95 42.45 -16.8 42.5 -16.75 42.55 -16.65 42.55 -16.6 42.7 -16.4 42.75 -15.4 Q42.55 -14.85 41.95 -14.55 L41.1 -14.2 40.85 -14.05 40.05 -13.7 39.7 -13.5 39.25 -13.35 38.95 -13.2 38.65 -13.1 38.45 -12.95 36.05 -11.8 35.9 -11.75 35.8 -11.7 35.75 -11.7 35.7 -11.65 35.55 -11.6 35.35 -11.5 35.05 -11.3 34.55 -11.05 33.9 -10.85 Q33.05 -10.85 32.6 -11.75 L32.5 -12.0 32.4 -12.15 32.25 -12.55 32.1 -12.85 Q31.7 -13.7 32.45 -14.65 L32.65 -15.0 33.6 -16.45 33.65 -16.5 33.5 -16.4 32.9 -16.1 32.85 -16.1 32.75 -16.05 32.65 -15.95 32.35 -15.8 Q32.15 -15.65 31.8 -15.65 31.05 -15.65 30.65 -16.15 L30.4 -16.55 30.35 -16.6 30.05 -17.2 29.8 -17.6 29.65 -18.55 Q29.8 -19.25 30.45 -19.55 L30.5 -19.55 30.55 -19.6 30.9 -19.75 31.05 -19.85 31.45 -20.0 33.05 -20.75 33.2 -20.85 33.5 -21.0 33.55 -21.05 34.55 -21.45 34.6 -21.5 35.15 -21.75 35.4 -21.9 35.45 -21.9 35.45 -21.95 37.05 -22.7 37.2 -22.75 37.5 -22.9 37.55 -22.95 37.9 -23.15 38.4 -23.3 38.55 -23.35" fill="#ac800a" fill-rule="evenodd" stroke="none"/>
    <path d="M30.1 0.3 Q30.75 8.85 28.65 14.1 27.05 18.15 24.4 19.35 20.1 21.25 17.75 21.95 12.15 23.65 5.75 23.65 -4.25 23.65 -9.65 23.25 -17.95 22.65 -21.0 20.95 -24.9 18.8 -27.0 16.1 -29.55 12.75 -29.7 8.15 -29.8 2.6 -28.8 -3.95 -27.65 -11.25 -25.85 -13.75 -23.95 -16.4 -18.8 -18.3 -13.85 -20.1 -10.0 -19.85 -5.0 -19.5 1.65 -17.25 L11.3 -19.2 15.4 -19.7 Q18.05 -19.65 19.9 -18.7 23.2 -17.0 25.7 -13.4 29.45 -8.0 30.1 0.3" fill="#fbc310" fill-rule="evenodd" stroke="none"/>
    <path d="M30.1 0.3 Q30.75 8.85 28.65 14.1 27.05 18.15 24.4 19.35 20.1 21.25 17.75 21.95 12.15 23.65 5.75 23.65 -4.25 23.65 -9.65 23.25 -17.95 22.65 -21.0 20.95 -24.9 18.8 -27.0 16.1 -29.55 12.75 -29.7 8.15 -29.8 2.6 -28.8 -3.95 -27.65 -11.25 -25.85 -13.75 -23.95 -16.4 -18.8 -18.3 -13.85 -20.1 -10.0 -19.85 -5.0 -19.5 1.65 -17.25 L11.3 -19.2 15.4 -19.7 Q18.05 -19.65 19.9 -18.7 23.2 -17.0 25.7 -13.4 29.45 -8.0 30.1 0.3 Z" fill="none" stroke="#ac800a" stroke-linecap="butt" stroke-linejoin="miter-clip" stroke-miterlimit="4.0" stroke-width="1.0"/>
    <path d="M6.85 -14.55 Q4.7 -12.95 2.9 -12.8 L0.4 -12.95 Q-0.6 -13.2 -2.1 -13.95 -3.3 -14.5 -5.8 -14.65 L-8.1 -14.65 Q-2.85 -20.1 -2.05 -21.75 -1.25 -23.35 -2.95 -26.75 L2.35 -26.85 Q3.85 -25.7 4.05 -22.55 L3.95 -18.15 Q4.0 -16.95 5.45 -15.6 L6.85 -14.55" fill="#d2a20a" fill-rule="evenodd" stroke="none"/>
    <path d="M6.85 -14.55 L5.45 -15.6 Q4.0 -16.95 3.95 -18.15 L4.05 -22.55 Q3.85 -25.7 2.35 -26.85 L-2.95 -26.75 Q-1.25 -23.35 -2.05 -21.75 -2.85 -20.1 -8.1 -14.65 L-5.8 -14.65 Q-3.3 -14.5 -2.1 -13.95 -0.6 -13.2 0.4 -12.95 L2.9 -12.8 Q4.7 -12.95 6.85 -14.55 Z" fill="none" stroke="#ac800a" stroke-linecap="butt" stroke-linejoin="miter-clip" stroke-miterlimit="4.0" stroke-width="1.0"/>
    <path d="M11.85 -15.75 Q8.6 -15.55 6.85 -14.55 L4.65 -13.3 Q3.65 -12.8 2.9 -12.8 1.3 -12.8 -1.65 -13.65 L-4.8 -14.55 -10.0 -14.35 -12.7 -14.05" fill="none" stroke="#ac800a" stroke-linecap="butt" stroke-linejoin="miter-clip" stroke-miterlimit="4.0" stroke-width="1.0"/>
    <path d="M-11.05 10.65 L-10.9 12.9 -7.15 12.8 -6.5 10.6 2.0 11.1 2.35 13.45 6.3 13.45 6.75 10.75 8.4 10.6 12.0 9.7 Q13.7 9.1 15.35 6.85 L16.7 4.7 16.75 9.6 Q16.25 14.8 13.35 16.3 12.3 16.9 7.65 17.5 L0.9 18.2 -7.65 17.9 Q-14.35 17.3 -17.25 15.95 -20.0 14.65 -21.0 9.4 L-21.45 4.4 -20.5 5.55 -18.25 7.9 Q-16.55 9.5 -11.05 10.65 M-6.75 6.55 Q-7.05 6.45 -5.1 4.1 -3.1 1.75 -2.75 1.8 -2.35 1.9 -0.9 4.2 0.6 6.45 0.4 6.85 L-6.75 6.55 M-8.75 -0.4 Q-9.1 0.4 -17.6 -0.95 -18.0 -1.2 -15.05 -4.7 -12.05 -8.25 -11.5 -8.1 -10.95 -8.0 -9.75 -4.5 -8.5 -1.05 -8.75 -0.4 M12.85 -1.25 Q12.6 -0.7 8.3 -0.4 4.15 -0.15 3.6 -0.4 3.2 -0.65 5.35 -4.65 7.5 -8.7 8.0 -8.55 8.55 -8.45 10.8 -5.15 13.1 -1.8 12.85 -1.25" fill="#fbd248" fill-rule="evenodd" stroke="none"/>
    <path d="M12.85 -1.25 Q13.1 -1.8 10.8 -5.15 8.55 -8.45 8.0 -8.55 7.5 -8.7 5.35 -4.65 3.2 -0.65 3.6 -0.4 4.15 -0.15 8.3 -0.4 12.6 -0.7 12.85 -1.25 M-8.75 -0.4 Q-8.5 -1.05 -9.75 -4.5 -10.95 -8.0 -11.5 -8.1 -12.05 -8.25 -15.05 -4.7 -18.0 -1.2 -17.6 -0.95 -9.1 0.4 -8.75 -0.4 M-6.75 6.55 L0.4 6.85 Q0.6 6.45 -0.9 4.2 -2.35 1.9 -2.75 1.8 -3.1 1.75 -5.1 4.1 -7.05 6.45 -6.75 6.55 M-11.05 10.65 Q-16.55 9.5 -18.25 7.9 L-20.5 5.55 -21.45 4.4 -21.0 9.4 Q-20.0 14.65 -17.25 15.95 -14.35 17.3 -7.65 17.9 L0.9 18.2 7.65 17.5 Q12.3 16.9 13.35 16.3 16.25 14.8 16.75 9.6 L16.7 4.7 15.35 6.85 Q13.7 9.1 12.0 9.7 L8.4 10.6 6.75 10.75 6.3 13.45 2.35 13.45 2.0 11.1 -6.5 10.6 -7.15 12.8 -10.9 12.9 -11.05 10.65 Z" fill="none" stroke="#ac800a" stroke-linecap="butt" stroke-linejoin="miter-clip" stroke-miterlimit="4.0" stroke-width="1.0"/>
  </g>
</svg>
