<?xml version="1.0" encoding="UTF-8" standalone="no"?>
<svg xmlns:ffdec="https://www.free-decompiler.com/flash" xmlns:xlink="http://www.w3.org/1999/xlink" ffdec:objectType="shape" height="408.5px" width="579.5px" xmlns="http://www.w3.org/2000/svg">
  <g transform="matrix(1.0, 0.0, 0.0, 1.0, 0.75, 0.75)">
    <path d="M0.0 19.95 L0.0 7.0 Q0.0 4.1 2.05 2.05 4.1 0.0 7.0 0.0 L16.95 0.0 555.0 0.0 571.0 0.0 Q573.9 0.0 575.95 2.05 578.0 4.1 578.0 7.0 L578.0 19.95 578.0 384.0 578.0 400.0 Q578.0 402.95 575.95 404.95 573.95 407.0 571.0 407.0 L555.0 407.0 16.95 407.0 7.0 407.0 Q4.1 407.0 2.05 404.95 0.0 402.9 0.0 400.0 L0.0 384.0 0.0 19.95 Z" fill="none" stroke="#085da5" stroke-linecap="butt" stroke-linejoin="miter-clip" stroke-miterlimit="4.0" stroke-width="1.5"/>
    <path d="M2.0 19.95 L2.0 9.0 Q2.0 6.1 4.05 4.05 6.1 2.0 9.0 2.0 L16.95 2.0 555.0 2.0 569.0 2.0 Q571.9 2.0 573.95 4.05 576.0 6.1 576.0 9.0 L576.0 19.95 576.0 384.0 576.0 398.0 Q576.0 400.95 573.95 402.95 571.95 405.0 569.0 405.0 L555.0 405.0 16.95 405.0 9.0 405.0 Q6.1 405.0 4.05 402.95 2.0 400.9 2.0 398.0 L2.0 384.0 2.0 19.95" fill="#3286d8" fill-rule="evenodd" stroke="none"/>
    <path d="M2.0 19.95 L2.0 9.0 Q2.0 6.1 4.05 4.05 6.1 2.0 9.0 2.0 L16.95 2.0 555.0 2.0 569.0 2.0 Q571.9 2.0 573.95 4.05 576.0 6.1 576.0 9.0 L576.0 19.95 576.0 384.0 576.0 398.0 Q576.0 400.95 573.95 402.95 571.95 405.0 569.0 405.0 L555.0 405.0 16.95 405.0 9.0 405.0 Q6.1 405.0 4.05 402.95 2.0 400.9 2.0 398.0 L2.0 384.0 2.0 19.95 Z" fill="none" stroke="#87ccfe" stroke-linecap="butt" stroke-linejoin="miter-clip" stroke-miterlimit="4.0" stroke-width="1.5"/>
  </g>
</svg>
