<?xml version="1.0" encoding="UTF-8" standalone="no"?>
<svg xmlns:ffdec="https://www.free-decompiler.com/flash" xmlns:xlink="http://www.w3.org/1999/xlink" ffdec:objectType="shape" height="256.4px" width="236.25px" xmlns="http://www.w3.org/2000/svg">
  <g transform="matrix(1.0, 0.0, 0.0, 1.0, 0.75, 0.75)">
    <path d="M234.75 10.75 L234.75 244.15 Q234.75 248.6 231.6 251.75 228.45 254.9 224.0 254.9 L10.8 254.9 Q6.35 254.9 3.15 251.75 0.0 248.6 0.0 244.15 L0.0 10.75 Q0.0 6.3 3.15 3.15 6.35 0.0 10.8 0.0 L224.0 0.0 Q228.45 0.0 231.6 3.15 234.75 6.3 234.75 10.75" fill="url(#gradient0)" fill-rule="evenodd" stroke="none"/>
    <path d="M234.75 10.75 L234.75 244.15 Q234.75 248.6 231.6 251.75 228.45 254.9 224.0 254.9 L10.8 254.9 Q6.35 254.9 3.15 251.75 0.0 248.6 0.0 244.15 L0.0 10.75 Q0.0 6.3 3.15 3.15 6.35 0.0 10.8 0.0 L224.0 0.0 Q228.45 0.0 231.6 3.15 234.75 6.3 234.75 10.75 Z" fill="none" stroke="#7ac9ff" stroke-linecap="butt" stroke-linejoin="miter-clip" stroke-miterlimit="4.0" stroke-width="1.5"/>
  </g>
  <defs>
    <linearGradient gradientTransform="matrix(0.0, -0.1454, -0.1454, 0.0, 117.4, 127.5)" gradientUnits="userSpaceOnUse" id="gradient0" spreadMethod="pad" x1="-819.2" x2="819.2">
      <stop offset="0.0" stop-color="#1670e6"/>
      <stop offset="0.4235294117647059" stop-color="#2d81fc"/>
      <stop offset="1.0" stop-color="#1670e6"/>
    </linearGradient>
  </defs>
</svg>
