<?xml version="1.0" encoding="UTF-8" standalone="no"?>
<svg xmlns:ffdec="https://www.free-decompiler.com/flash" xmlns:xlink="http://www.w3.org/1999/xlink" ffdec:objectType="shape" height="133.95px" width="214.5px" xmlns="http://www.w3.org/2000/svg">
  <g transform="matrix(1.0, 0.0, 0.0, 1.0, -14.95, -14.5)">
    <path d="M228.7 27.25 L228.7 135.7 Q228.7 140.7 225.2 144.2 221.7 147.7 216.7 147.7 L27.7 147.7 Q22.75 147.7 19.25 144.2 15.7 140.7 15.7 135.7 L15.7 27.25 Q15.7 22.25 19.25 18.75 22.75 15.25 27.7 15.25 L216.7 15.25 Q221.7 15.25 225.2 18.75 228.7 22.25 228.7 27.25" fill="url(#gradient0)" fill-rule="evenodd" stroke="none"/>
    <path d="M228.7 27.25 L228.7 135.7 Q228.7 140.7 225.2 144.2 221.7 147.7 216.7 147.7 L27.7 147.7 Q22.75 147.7 19.25 144.2 15.7 140.7 15.7 135.7 L15.7 27.25 Q15.7 22.25 19.25 18.75 22.75 15.25 27.7 15.25 L216.7 15.25 Q221.7 15.25 225.2 18.75 228.7 22.25 228.7 27.25 Z" fill="none" stroke="#7ac9ff" stroke-linecap="butt" stroke-linejoin="miter-clip" stroke-miterlimit="4.0" stroke-width="1.5"/>
  </g>
  <defs>
    <linearGradient gradientTransform="matrix(0.0, -0.0809, -0.0755, 0.0, 122.2, 81.5)" gradientUnits="userSpaceOnUse" id="gradient0" spreadMethod="pad" x1="-819.2" x2="819.2">
      <stop offset="0.0" stop-color="#1670e6"/>
      <stop offset="0.4235294117647059" stop-color="#2d81fc"/>
      <stop offset="1.0" stop-color="#1670e6"/>
    </linearGradient>
  </defs>
</svg>
