<?xml version="1.0" encoding="UTF-8" standalone="no"?>
<svg xmlns:ffdec="https://www.free-decompiler.com/flash" xmlns:xlink="http://www.w3.org/1999/xlink" ffdec:objectType="shape" height="10.85px" width="19.45px" xmlns="http://www.w3.org/2000/svg">
  <g transform="matrix(1.0, 0.0, 0.0, 1.0, -24.6, -5.95)">
    <path d="M43.6 16.4 L37.95 14.9 38.1 16.65 36.35 16.8 35.6 8.15 37.3 8.05 37.7 12.3 41.75 6.85 43.15 7.85 38.95 13.45 44.05 14.8 43.6 16.4 M32.4 8.5 Q31.65 7.65 30.35 7.65 28.8 7.65 27.6 8.8 26.35 9.9 26.35 11.4 26.35 12.7 27.1 13.5 27.85 14.35 29.15 14.35 30.7 14.35 31.95 13.25 33.2 12.15 33.2 10.6 33.2 9.3 32.4 8.5 M34.95 10.6 Q34.95 12.85 33.2 14.45 31.45 16.0 29.05 16.0 27.15 16.0 25.85 14.65 24.6 13.35 24.6 11.4 24.6 9.25 26.4 7.6 28.15 5.95 30.35 5.95 32.3 5.95 33.65 7.3 34.95 8.7 34.95 10.6" fill="#000000" fill-opacity="0.5019608" fill-rule="evenodd" stroke="none"/>
  </g>
</svg>
