<?xml version="1.0" encoding="UTF-8" standalone="no"?>
<svg xmlns:ffdec="https://www.free-decompiler.com/flash" xmlns:xlink="http://www.w3.org/1999/xlink" ffdec:objectType="shape" height="22.95px" width="69.9px" xmlns="http://www.w3.org/2000/svg">
  <g transform="matrix(1.0, 0.0, 0.0, 1.0, 0.5, 0.5)">
    <path d="M68.9 15.75 Q68.9 18.3 67.05 20.15 65.2 21.95 62.6 21.95 L6.3 21.95 Q3.7 21.95 1.85 20.15 0.0 18.3 0.0 15.75 L0.0 6.15 Q0.0 3.6 1.85 1.8 3.7 0.0 6.3 0.0 L62.6 0.0 Q65.2 0.0 67.05 1.8 68.9 3.6 68.9 6.15 L68.9 15.75" fill="url(#gradient0)" fill-rule="evenodd" stroke="none"/>
    <path d="M68.9 15.75 Q68.9 18.3 67.05 20.15 65.2 21.95 62.6 21.95 L6.3 21.95 Q3.7 21.95 1.85 20.15 0.0 18.3 0.0 15.75 L0.0 6.15 Q0.0 3.6 1.85 1.8 3.7 0.0 6.3 0.0 L62.6 0.0 Q65.2 0.0 67.05 1.8 68.9 3.6 68.9 6.15 L68.9 15.75 Z" fill="none" stroke="#1052b6" stroke-linecap="butt" stroke-linejoin="miter-clip" stroke-miterlimit="4.0" stroke-width="1.0"/>
  </g>
  <defs>
    <linearGradient gradientTransform="matrix(0.0, -0.0124, 0.0421, 0.0, 34.45, 10.15)" gradientUnits="userSpaceOnUse" id="gradient0" spreadMethod="pad" x1="-819.2" x2="819.2">
      <stop offset="0.0" stop-color="#ffe23e"/>
      <stop offset="0.6549019607843137" stop-color="#ffe96e"/>
      <stop offset="1.0" stop-color="#fff6c5"/>
    </linearGradient>
  </defs>
</svg>
