<?xml version="1.0" encoding="UTF-8" standalone="no"?>
<svg xmlns:ffdec="https://www.free-decompiler.com/flash" xmlns:xlink="http://www.w3.org/1999/xlink" ffdec:objectType="shape" height="26.85px" width="26.85px" xmlns="http://www.w3.org/2000/svg">
  <g transform="matrix(1.0, 0.0, 0.0, 1.0, 13.4, 13.4)">
    <path d="M0.0 -12.65 Q5.25 -12.65 9.0 -8.95 12.7 -5.2 12.7 0.0 12.7 5.25 9.0 9.0 5.25 12.7 0.0 12.7 -5.2 12.7 -8.95 9.0 -12.65 5.25 -12.65 0.0 -12.65 -5.2 -8.95 -8.95 -5.2 -12.65 0.0 -12.65" fill="#31df15" fill-rule="evenodd" stroke="none"/>
    <path d="M0.0 -12.65 Q-5.2 -12.65 -8.95 -8.95 -12.65 -5.2 -12.65 0.0 -12.65 5.25 -8.95 9.0 -5.2 12.7 0.0 12.7 5.25 12.7 9.0 9.0 12.7 5.25 12.7 0.0 12.7 -5.2 9.0 -8.95 5.25 -12.65 0.0 -12.65 Z" fill="none" stroke="#000000" stroke-linecap="butt" stroke-linejoin="miter-clip" stroke-miterlimit="4.0" stroke-opacity="0.3019608" stroke-width="1.5"/>
    <path d="M6.7 -8.15 Q9.5 -5.65 9.5 -2.15 9.5 1.4 6.7 3.85 3.95 6.35 0.0 6.35 -3.9 6.35 -6.7 3.85 -9.5 1.35 -9.5 -2.15 -9.5 -5.65 -6.7 -8.15 -3.9 -10.65 0.0 -10.65 3.95 -10.65 6.7 -8.15" fill="url(#gradient0)" fill-rule="evenodd" stroke="none"/>
    <path d="M5.1 -6.75 L6.8 -5.05 1.7 0.0 6.8 5.1 5.1 6.8 0.0 1.7 -5.05 6.8 -6.75 5.1 -1.65 0.0 -6.75 -5.05 -5.05 -6.75 0.0 -1.65 5.1 -6.75" fill="#000000" fill-opacity="0.4" fill-rule="evenodd" stroke="none"/>
  </g>
  <defs>
    <linearGradient gradientTransform="matrix(0.0, 0.0097, 0.0097, 0.0, 0.0, -2.75)" gradientUnits="userSpaceOnUse" id="gradient0" spreadMethod="pad" x1="-819.2" x2="819.2">
      <stop offset="0.0" stop-color="#ffffff" stop-opacity="0.49803922"/>
      <stop offset="1.0" stop-color="#ffffff" stop-opacity="0.0"/>
    </linearGradient>
  </defs>
</svg>
