<?xml version="1.0" encoding="UTF-8" standalone="no"?>
<svg xmlns:ffdec="https://www.free-decompiler.com/flash" xmlns:xlink="http://www.w3.org/1999/xlink" ffdec:objectType="shape" height="259.9px" width="239.75px" xmlns="http://www.w3.org/2000/svg">
  <g transform="matrix(1.0, 0.0, 0.0, 1.0, -541.05, -239.7)">
    <path d="M775.15 245.35 Q778.3 248.5 778.3 252.95 L778.3 486.35 Q778.3 490.8 775.15 493.95 772.0 497.1 767.55 497.1 L554.35 497.1 Q549.9 497.1 546.7 493.95 543.55 490.8 543.55 486.35 L543.55 252.95 Q543.55 248.5 546.7 245.35 549.9 242.2 554.35 242.2 L767.55 242.2 Q772.0 242.2 775.15 245.35" fill="url(#gradient0)" fill-rule="evenodd" stroke="none"/>
    <path d="M775.15 245.35 Q778.3 248.5 778.3 252.95 L778.3 486.35 Q778.3 490.8 775.15 493.95 772.0 497.1 767.55 497.1 L554.35 497.1 Q549.9 497.1 546.7 493.95 543.55 490.8 543.55 486.35 L543.55 252.95 Q543.55 248.5 546.7 245.35 549.9 242.2 554.35 242.2 L767.55 242.2 Q772.0 242.2 775.15 245.35 Z" fill="none" stroke="#234da9" stroke-linecap="butt" stroke-linejoin="miter-clip" stroke-miterlimit="4.0" stroke-width="5.0"/>
    <path d="M775.15 245.35 Q778.3 248.5 778.3 252.95 L778.3 486.35 Q778.3 490.8 775.15 493.95 772.0 497.1 767.55 497.1 L554.35 497.1 Q549.9 497.1 546.7 493.95 543.55 490.8 543.55 486.35 L543.55 252.95 Q543.55 248.5 546.7 245.35 549.9 242.2 554.35 242.2 L767.55 242.2 Q772.0 242.2 775.15 245.35" fill="url(#gradient1)" fill-rule="evenodd" stroke="none"/>
    <path d="M775.15 245.35 Q778.3 248.5 778.3 252.95 L778.3 486.35 Q778.3 490.8 775.15 493.95 772.0 497.1 767.55 497.1 L554.35 497.1 Q549.9 497.1 546.7 493.95 543.55 490.8 543.55 486.35 L543.55 252.95 Q543.55 248.5 546.7 245.35 549.9 242.2 554.35 242.2 L767.55 242.2 Q772.0 242.2 775.15 245.35 Z" fill="none" stroke="#7ac9ff" stroke-linecap="butt" stroke-linejoin="miter-clip" stroke-miterlimit="4.0" stroke-width="1.5"/>
  </g>
  <defs>
    <linearGradient gradientTransform="matrix(0.0, -0.1034, 0.1556, 0.0, 660.9, 369.65)" gradientUnits="userSpaceOnUse" id="gradient0" spreadMethod="pad" x1="-819.2" x2="819.2">
      <stop offset="0.0" stop-color="#118fe3"/>
      <stop offset="0.5058823529411764" stop-color="#1498f1"/>
      <stop offset="1.0" stop-color="#118fe3"/>
    </linearGradient>
    <linearGradient gradientTransform="matrix(0.0, -0.1454, -0.1454, 0.0, 660.95, 369.7)" gradientUnits="userSpaceOnUse" id="gradient1" spreadMethod="pad" x1="-819.2" x2="819.2">
      <stop offset="0.0" stop-color="#1670e6"/>
      <stop offset="0.4235294117647059" stop-color="#2d81fc"/>
      <stop offset="1.0" stop-color="#1670e6"/>
    </linearGradient>
  </defs>
</svg>
