<?xml version="1.0" encoding="UTF-8" standalone="no"?>
<svg xmlns:ffdec="https://www.free-decompiler.com/flash" xmlns:xlink="http://www.w3.org/1999/xlink" ffdec:objectType="shape" height="22.95px" width="69.95px" xmlns="http://www.w3.org/2000/svg">
  <g transform="matrix(1.0, 0.0, 0.0, 1.0, 0.5, 0.5)">
    <path d="M68.95 6.2 L68.95 15.75 Q68.95 18.35 67.1 20.15 65.25 21.95 62.6 21.95 L6.35 21.95 Q3.7 21.95 1.85 20.15 0.0 18.35 0.0 15.75 L0.0 6.2 Q0.0 3.6 1.85 1.8 3.7 0.0 6.35 0.0 L62.6 0.0 Q65.25 0.0 67.1 1.8 68.95 3.6 68.95 6.2" fill="url(#gradient0)" fill-rule="evenodd" stroke="none"/>
    <path d="M68.95 6.2 L68.95 15.75 Q68.95 18.35 67.1 20.15 65.25 21.95 62.6 21.95 L6.35 21.95 Q3.7 21.95 1.85 20.15 0.0 18.35 0.0 15.75 L0.0 6.2 Q0.0 3.6 1.85 1.8 3.7 0.0 6.35 0.0 L62.6 0.0 Q65.25 0.0 67.1 1.8 68.95 3.6 68.95 6.2 Z" fill="none" stroke="#000000" stroke-linecap="butt" stroke-linejoin="miter-clip" stroke-miterlimit="4.0" stroke-opacity="0.3019608" stroke-width="1.0"/>
  </g>
  <defs>
    <linearGradient gradientTransform="matrix(0.0, -0.0044, -0.0044, 0.0, 34.5, 11.1)" gradientUnits="userSpaceOnUse" id="gradient0" spreadMethod="pad" x1="-819.2" x2="819.2">
      <stop offset="0.0" stop-color="#00ee00"/>
      <stop offset="0.6549019607843137" stop-color="#33fc55"/>
      <stop offset="1.0" stop-color="#6aff78"/>
    </linearGradient>
  </defs>
</svg>
