<?xml version="1.0" encoding="UTF-8" standalone="no"?>
<svg xmlns:ffdec="https://www.free-decompiler.com/flash" xmlns:xlink="http://www.w3.org/1999/xlink" ffdec:objectType="shape" height="10.0px" width="39.55px" xmlns="http://www.w3.org/2000/svg">
  <g transform="matrix(1.0, 0.0, 0.0, 1.0, -16.35, -7.3)">
    <path d="M45.7 9.0 L41.85 9.2 42.0 11.45 45.75 11.15 45.9 12.8 42.1 13.15 42.2 14.85 42.7 14.85 46.05 14.35 46.4 16.0 44.65 16.4 42.9 16.6 40.6 16.55 40.05 7.55 45.6 7.3 45.7 9.0 M49.25 9.2 L49.6 13.1 Q53.6 11.75 53.6 10.7 53.6 9.15 50.6 9.15 L49.25 9.2 M50.4 7.45 Q55.3 7.45 55.3 10.7 55.3 12.55 52.2 13.9 L55.9 14.85 55.45 16.45 49.75 15.0 49.95 16.65 48.2 16.85 47.4 7.65 50.4 7.45 M36.05 9.6 L36.5 16.8 34.75 16.85 34.35 9.8 31.9 10.1 31.7 8.45 38.75 7.6 38.95 9.25 36.05 9.6 M26.8 10.8 L29.2 14.0 28.7 8.5 30.4 8.25 Q30.9 11.9 30.95 16.85 L29.35 17.3 24.95 11.1 Q25.05 13.85 25.75 16.5 L24.1 16.95 Q23.25 13.55 23.25 9.2 L23.25 8.0 25.15 8.0 26.8 10.8 M22.0 9.0 L18.2 9.2 18.3 11.45 22.05 11.15 22.2 12.8 18.4 13.15 18.5 14.85 19.0 14.85 22.35 14.35 22.7 16.0 20.95 16.4 19.25 16.6 16.9 16.55 16.35 7.55 21.9 7.3 22.0 9.0" fill="#000000" fill-opacity="0.49803922" fill-rule="evenodd" stroke="none"/>
  </g>
</svg>
