<?xml version="1.0" encoding="UTF-8" standalone="no"?>
<svg xmlns:ffdec="https://www.free-decompiler.com/flash" xmlns:xlink="http://www.w3.org/1999/xlink" ffdec:objectType="shape" height="185.1px" width="235.75px" xmlns="http://www.w3.org/2000/svg">
  <g transform="matrix(1.0, 0.0, 0.0, 1.0, 117.85, 92.55)">
    <path d="M99.4 -92.05 Q117.4 -92.05 117.4 -74.05 L117.4 74.05 Q117.4 92.05 99.4 92.05 L-99.35 92.05 Q-117.35 92.05 -117.35 74.05 L-117.35 -74.05 Q-117.35 -92.05 -99.35 -92.05 L99.4 -92.05" fill="#004b87" fill-rule="evenodd" stroke="none"/>
    <path d="M99.4 -92.05 L-99.35 -92.05 Q-117.35 -92.05 -117.35 -74.05 L-117.35 74.05 Q-117.35 92.05 -99.35 92.05 L99.4 92.05 Q117.4 92.05 117.4 74.05 L117.4 -74.05 Q117.4 -92.05 99.4 -92.05 Z" fill="none" stroke="#000000" stroke-linecap="round" stroke-linejoin="round" stroke-width="1.0"/>
  </g>
</svg>
