<?xml version="1.0" encoding="UTF-8" standalone="no"?>
<svg xmlns:ffdec="https://www.free-decompiler.com/flash" xmlns:xlink="http://www.w3.org/1999/xlink" ffdec:objectType="shape" height="48.65px" width="160.25px" xmlns="http://www.w3.org/2000/svg">
  <g transform="matrix(1.0, 0.0, 0.0, 1.0, -580.4, -286.85)">
    <path d="M728.45 289.35 Q738.15 289.35 738.15 299.05 L738.15 323.3 Q738.15 333.0 728.45 333.0 L592.6 333.0 Q582.9 333.0 582.9 323.3 L582.9 299.05 Q582.9 289.35 592.6 289.35 L728.45 289.35" fill="#248ee5" fill-rule="evenodd" stroke="none"/>
    <path d="M728.45 289.35 L592.6 289.35 Q582.9 289.35 582.9 299.05 L582.9 323.3 Q582.9 333.0 592.6 333.0 L728.45 333.0 Q738.15 333.0 738.15 323.3 L738.15 299.05 Q738.15 289.35 728.45 289.35 Z" fill="none" stroke="#000000" stroke-linecap="round" stroke-linejoin="round" stroke-opacity="0.15294118" stroke-width="5.0"/>
    <path d="M728.45 289.35 L592.6 289.35 Q582.9 289.35 582.9 299.05 L582.9 323.3 Q582.9 333.0 592.6 333.0 L728.45 333.0 Q738.15 333.0 738.15 323.3 L738.15 299.05 Q738.15 289.35 728.45 289.35 Z" fill="none" stroke="#c7c8c6" stroke-linecap="round" stroke-linejoin="round" stroke-width="2.0"/>
  </g>
</svg>
