<?xml version="1.0" encoding="UTF-8" standalone="no"?>
<svg xmlns:ffdec="https://www.free-decompiler.com/flash" xmlns:xlink="http://www.w3.org/1999/xlink" ffdec:objectType="shape" height="37.25px" width="69.0px" xmlns="http://www.w3.org/2000/svg">
  <g transform="matrix(1.0, 0.0, 0.0, 1.0, 34.5, 18.6)">
    <path d="M32.6 -0.25 Q34.7 3.25 33.65 3.95 32.9 4.5 30.25 2.4 L27.75 0.25 28.8 2.8 Q29.7 5.45 28.95 5.9 28.2 6.4 25.5 4.05 L22.95 1.55 23.35 3.95 Q23.5 6.4 22.35 6.7 21.25 7.0 19.9 4.2 L18.75 1.3 12.75 -2.05 Q15.15 -3.75 18.1 -5.05 24.05 -7.75 27.05 -6.0 30.4 -4.0 32.6 -0.25" fill="#c7a51c" fill-rule="evenodd" stroke="none"/>
    <path d="M32.6 -0.25 Q34.7 3.25 33.65 3.95 32.9 4.5 30.25 2.4 L27.75 0.25 28.8 2.8 Q29.7 5.45 28.95 5.9 28.2 6.4 25.5 4.05 L22.95 1.55 23.35 3.95 Q23.5 6.4 22.35 6.7 21.25 7.0 19.9 4.2 L18.75 1.3 12.75 -2.05 Q15.15 -3.75 18.1 -5.05 24.05 -7.75 27.05 -6.0 30.4 -4.0 32.6 -0.25 Z" fill="none" stroke="#756110" stroke-linecap="butt" stroke-linejoin="miter-clip" stroke-miterlimit="6.0" stroke-width="1.0"/>
    <path d="M32.85 2.75 Q31.85 0.7 30.45 -1.2 27.7 -4.8 25.4 -5.35 23.45 -5.85 19.75 -4.45 L16.45 -3.0" fill="none" stroke="#f7ce23" stroke-linecap="round" stroke-linejoin="miter-clip" stroke-miterlimit="4.0" stroke-width="1.0"/>
    <path d="M28.25 4.8 L26.8 1.2 25.4 -1.75" fill="none" stroke="#f7ce23" stroke-linecap="round" stroke-linejoin="miter-clip" stroke-miterlimit="4.0" stroke-width="1.0"/>
    <path d="M22.1 5.5 L21.95 2.75 Q21.85 1.35 21.2 -0.1" fill="none" stroke="#f7ce23" stroke-linecap="round" stroke-linejoin="miter-clip" stroke-miterlimit="4.0" stroke-width="1.0"/>
    <path d="M-32.55 -0.25 Q-30.35 -4.0 -27.0 -6.0 -24.0 -7.75 -18.05 -5.05 -15.05 -3.75 -12.7 -2.05 L-18.7 1.3 -19.8 4.2 Q-21.15 7.0 -22.3 6.7 -23.4 6.4 -23.25 3.95 L-22.9 1.55 -25.45 4.05 Q-28.15 6.4 -28.9 5.9 -29.65 5.45 -28.75 2.8 L-27.7 0.25 -30.2 2.4 Q-32.85 4.5 -33.6 3.95 -34.6 3.25 -32.55 -0.25" fill="#c7a51c" fill-rule="evenodd" stroke="none"/>
    <path d="M-32.55 -0.25 Q-34.6 3.25 -33.6 3.95 -32.85 4.5 -30.2 2.4 L-27.7 0.25 -28.75 2.8 Q-29.65 5.45 -28.9 5.9 -28.15 6.4 -25.45 4.05 L-22.9 1.55 -23.25 3.95 Q-23.4 6.4 -22.3 6.7 -21.15 7.0 -19.8 4.2 L-18.7 1.3 -12.7 -2.05 Q-15.05 -3.75 -18.05 -5.05 -24.0 -7.75 -27.0 -6.0 -30.35 -4.0 -32.55 -0.25 Z" fill="none" stroke="#756110" stroke-linecap="butt" stroke-linejoin="miter-clip" stroke-miterlimit="6.0" stroke-width="1.0"/>
    <path d="M-32.8 2.75 Q-31.8 0.7 -30.4 -1.2 -27.65 -4.8 -25.35 -5.35 -23.4 -5.85 -19.7 -4.45 L-16.4 -3.0" fill="none" stroke="#f7ce23" stroke-linecap="round" stroke-linejoin="miter-clip" stroke-miterlimit="4.0" stroke-width="1.0"/>
    <path d="M-28.2 4.8 L-26.75 1.2 -25.35 -1.75" fill="none" stroke="#f7ce23" stroke-linecap="round" stroke-linejoin="miter-clip" stroke-miterlimit="4.0" stroke-width="1.0"/>
    <path d="M-22.05 5.5 L-21.9 2.75 Q-21.8 1.35 -21.15 -0.1" fill="none" stroke="#f7ce23" stroke-linecap="round" stroke-linejoin="miter-clip" stroke-miterlimit="4.0" stroke-width="1.0"/>
    <path d="M0.0 -17.85 Q7.45 -17.85 12.65 -12.6 17.9 -7.35 17.9 0.05 17.9 7.45 12.65 12.65 7.4 17.9 0.0 17.9 -7.4 17.9 -12.6 12.65 -17.85 7.45 -17.85 0.05 -17.85 -7.35 -12.6 -12.6 -7.4 -17.85 0.0 -17.85" fill="#f7cb16" fill-rule="evenodd" stroke="none"/>
    <path d="M0.0 -17.85 Q-7.4 -17.85 -12.6 -12.6 -17.85 -7.35 -17.85 0.05 -17.85 7.45 -12.6 12.65 -7.4 17.9 0.0 17.9 7.4 17.9 12.65 12.65 17.9 7.45 17.9 0.05 17.9 -7.35 12.65 -12.6 7.45 -17.85 0.0 -17.85 Z" fill="none" stroke="#756110" stroke-linecap="butt" stroke-linejoin="miter-clip" stroke-miterlimit="4.0" stroke-width="1.5"/>
    <path d="M11.75 -11.7 Q16.6 -6.85 16.6 0.05 16.6 6.9 11.75 11.75 6.9 16.6 0.0 16.6 -6.85 16.6 -11.7 11.75 -16.55 6.9 -16.55 0.05 -16.55 -6.85 -11.7 -11.7 -6.85 -16.55 0.0 -16.55 6.9 -16.55 11.75 -11.7 Z" fill="none" stroke="#ffeda3" stroke-linecap="butt" stroke-linejoin="miter-clip" stroke-miterlimit="4.0" stroke-width="1.0"/>
    <path d="M0.3 -16.05 Q5.55 -16.05 9.3 -12.35 13.0 -8.65 13.0 -3.35 13.0 1.9 9.3 5.65 5.55 9.35 0.3 9.35 -5.0 9.35 -8.7 5.65 -12.4 1.9 -12.4 -3.35 -12.4 -8.65 -8.7 -12.35 -5.0 -16.05 0.3 -16.05" fill="url(#gradient0)" fill-rule="evenodd" stroke="none"/>
    <path d="M13.1 -3.8 Q13.6 -2.65 6.05 1.7 L7.5 5.35 Q8.8 9.15 8.1 9.75 7.45 10.4 3.65 8.05 L0.0 5.55 Q-7.2 10.75 -8.05 9.75 -8.9 8.8 -6.0 1.7 -13.35 -2.5 -13.05 -3.8 -12.85 -4.6 -8.25 -4.7 L-3.7 -4.6 Q-1.2 -12.2 0.0 -12.2 1.25 -12.2 3.75 -4.6 12.6 -4.95 13.1 -3.8" fill="#b08f10" fill-rule="evenodd" stroke="none"/>
    <path d="M13.1 -3.8 Q13.6 -2.65 6.05 1.7 L7.5 5.35 Q8.8 9.15 8.1 9.75 7.45 10.4 3.65 8.05 L0.0 5.55 Q-7.2 10.75 -8.05 9.75 -8.9 8.8 -6.0 1.7 -13.35 -2.5 -13.05 -3.8 -12.85 -4.6 -8.25 -4.7 L-3.7 -4.6 Q-1.2 -12.2 0.0 -12.2 1.25 -12.2 3.75 -4.6 12.6 -4.95 13.1 -3.8 Z" fill="none" stroke="#ffe88a" stroke-linecap="butt" stroke-linejoin="miter-clip" stroke-miterlimit="4.0" stroke-width="1.1"/>
  </g>
  <defs>
    <linearGradient gradientTransform="matrix(0.0, 0.0155, 0.0155, 0.0, 0.3, -3.35)" gradientUnits="userSpaceOnUse" id="gradient0" spreadMethod="pad" x1="-819.2" x2="819.2">
      <stop offset="0.0" stop-color="#ffeda3"/>
      <stop offset="1.0" stop-color="#ffffff" stop-opacity="0.0"/>
    </linearGradient>
  </defs>
</svg>
