<?xml version="1.0" encoding="UTF-8" standalone="no"?>
<svg xmlns:ffdec="https://www.free-decompiler.com/flash" xmlns:xlink="http://www.w3.org/1999/xlink" ffdec:objectType="shape" height="116.45px" width="170.75px" xmlns="http://www.w3.org/2000/svg">
  <g transform="matrix(1.0, 0.0, 0.0, 1.0, 85.8, 60.75)">
    <path d="M57.55 -39.45 Q81.4 -23.2 81.4 -0.05 81.4 23.1 57.55 39.4 33.7 55.65 0.0 55.7 -33.75 55.65 -57.55 39.4 -81.4 23.1 -81.4 -0.05 -81.4 -23.2 -57.55 -39.45 -33.75 -55.75 0.0 -55.75 33.7 -55.75 57.55 -39.45" fill="#000000" fill-rule="evenodd" stroke="none"/>
    <path d="M-49.55 41.5 Q-52.05 44.05 -55.65 44.05 -59.25 44.05 -61.8 41.5 -64.3 39.0 -64.3 35.4 -64.3 31.8 -61.8 29.25 -59.25 26.75 -55.65 26.75 -52.05 26.75 -49.55 29.25 -47.0 31.8 -47.0 35.4 -47.0 39.0 -49.55 41.5" fill="#000000" fill-rule="evenodd" stroke="none"/>
    <path d="M-59.55 32.0 Q-62.05 34.55 -65.65 34.55 -69.25 34.55 -71.8 32.0 -74.3 29.5 -74.3 25.9 -74.3 22.3 -71.8 19.75 -69.25 17.25 -65.65 17.25 -62.05 17.25 -59.55 19.75 -57.0 22.3 -57.0 25.9 -57.0 29.5 -59.55 32.0" fill="#000000" fill-rule="evenodd" stroke="none"/>
    <path d="M-68.05 22.0 Q-70.55 24.55 -74.15 24.55 -77.75 24.55 -80.3 22.0 -82.8 19.5 -82.8 15.9 -82.8 12.3 -80.3 9.75 -77.75 7.25 -74.15 7.25 -70.55 7.25 -68.05 9.75 -65.5 12.3 -65.5 15.9 -65.5 19.5 -68.05 22.0" fill="#000000" fill-rule="evenodd" stroke="none"/>
    <path d="M-65.95 9.1 Q-69.3 12.55 -74.15 12.55 -79.0 12.55 -82.45 9.1 -85.8 5.75 -85.8 0.9 -85.8 -3.95 -82.45 -7.4 -79.0 -10.75 -74.15 -10.75 -69.3 -10.75 -65.95 -7.4 -62.5 -3.95 -62.5 0.9 -62.5 5.75 -65.95 9.1" fill="#000000" fill-rule="evenodd" stroke="none"/>
    <path d="M-65.55 -10.0 Q-68.05 -7.45 -71.65 -7.45 -75.25 -7.45 -77.8 -10.0 -80.3 -12.5 -80.3 -16.1 -80.3 -19.7 -77.8 -22.25 -75.25 -24.75 -71.65 -24.75 -68.05 -24.75 -65.55 -22.25 -63.0 -19.7 -63.0 -16.1 -63.0 -12.5 -65.55 -10.0" fill="#000000" fill-rule="evenodd" stroke="none"/>
    <path d="M-54.1 -23.1 Q-57.2 -19.95 -61.6 -19.95 -66.05 -19.95 -69.2 -23.1 -72.25 -26.2 -72.25 -30.6 -72.25 -35.05 -69.2 -38.2 -66.05 -41.25 -61.6 -41.25 -57.2 -41.25 -54.1 -38.2 -50.95 -35.05 -50.95 -30.6 -50.95 -26.2 -54.1 -23.1" fill="#000000" fill-rule="evenodd" stroke="none"/>
    <path d="M-39.55 -36.0 Q-42.05 -33.45 -45.65 -33.45 -49.25 -33.45 -51.8 -36.0 -54.3 -38.5 -54.3 -42.1 -54.3 -45.7 -51.8 -48.25 -49.25 -50.75 -45.65 -50.75 -42.05 -50.75 -39.55 -48.25 -37.0 -45.7 -37.0 -42.1 -37.0 -38.5 -39.55 -36.0" fill="#000000" fill-rule="evenodd" stroke="none"/>
    <path d="M-17.6 -38.05 Q-21.1 -34.45 -26.15 -34.45 -31.2 -34.45 -34.8 -38.05 -38.3 -41.55 -38.3 -46.6 -38.3 -51.65 -34.8 -55.25 -31.2 -58.75 -26.15 -58.75 -21.1 -58.75 -17.6 -55.25 -14.0 -51.65 -14.0 -46.6 -14.0 -41.55 -17.6 -38.05" fill="#000000" fill-rule="evenodd" stroke="none"/>
    <path d="M0.95 -44.5 Q-1.55 -41.95 -5.15 -41.95 -8.75 -41.95 -11.3 -44.5 -13.8 -47.0 -13.8 -50.6 -13.8 -54.2 -11.3 -56.75 -8.75 -59.25 -5.15 -59.25 -1.55 -59.25 0.95 -56.75 3.5 -54.2 3.5 -50.6 3.5 -47.0 0.95 -44.5" fill="#000000" fill-rule="evenodd" stroke="none"/>
    <path d="M21.4 -40.05 Q17.9 -36.45 12.85 -36.45 7.8 -36.45 4.2 -40.05 0.7 -43.55 0.7 -48.6 0.7 -53.65 4.2 -57.25 7.8 -60.75 12.85 -60.75 17.9 -60.75 21.4 -57.25 25.0 -53.65 25.0 -48.6 25.0 -43.55 21.4 -40.05" fill="#000000" fill-rule="evenodd" stroke="none"/>
    <path d="M39.95 -41.0 Q37.45 -38.45 33.85 -38.45 30.25 -38.45 27.7 -41.0 25.2 -43.5 25.2 -47.1 25.2 -50.7 27.7 -53.25 30.25 -55.75 33.85 -55.75 37.45 -55.75 39.95 -53.25 42.5 -50.7 42.5 -47.1 42.5 -43.5 39.95 -41.0" fill="#000000" fill-rule="evenodd" stroke="none"/>
    <path d="M58.65 -30.25 Q55.4 -26.95 50.8 -26.95 46.15 -26.95 42.85 -30.25 39.65 -33.45 39.65 -38.1 39.65 -42.75 42.85 -46.05 46.15 -49.25 50.8 -49.25 55.4 -49.25 58.65 -46.05 61.95 -42.75 61.95 -38.1 61.95 -33.45 58.65 -30.25" fill="#000000" fill-rule="evenodd" stroke="none"/>
    <path d="M71.9 -20.5 Q69.4 -17.95 65.8 -17.95 62.2 -17.95 59.65 -20.5 57.15 -23.0 57.15 -26.6 57.15 -30.2 59.65 -32.75 62.2 -35.25 65.8 -35.25 69.4 -35.25 71.9 -32.75 74.45 -30.2 74.45 -26.6 74.45 -23.0 71.9 -20.5" fill="#000000" fill-rule="evenodd" stroke="none"/>
    <path d="M80.5 -5.9 Q77.15 -2.45 72.3 -2.45 67.45 -2.45 64.0 -5.9 60.65 -9.25 60.65 -14.1 60.65 -18.95 64.0 -22.4 67.45 -25.75 72.3 -25.75 77.15 -25.75 80.5 -22.4 83.95 -18.95 83.95 -14.1 83.95 -9.25 80.5 -5.9" fill="#000000" fill-rule="evenodd" stroke="none"/>
    <path d="M82.4 6.0 Q79.9 8.55 76.3 8.55 72.7 8.55 70.15 6.0 67.65 3.5 67.65 -0.1 67.65 -3.7 70.15 -6.25 72.7 -8.75 76.3 -8.75 79.9 -8.75 82.4 -6.25 84.95 -3.7 84.95 -0.1 84.95 3.5 82.4 6.0" fill="#000000" fill-rule="evenodd" stroke="none"/>
    <path d="M80.35 21.9 Q77.25 25.05 72.85 25.05 68.4 25.05 65.25 21.9 62.2 18.8 62.2 14.4 62.2 9.95 65.25 6.8 68.4 3.75 72.85 3.75 77.25 3.75 80.35 6.8 83.5 9.95 83.5 14.4 83.5 18.8 80.35 21.9" fill="#000000" fill-rule="evenodd" stroke="none"/>
    <path d="M73.9 33.5 Q71.4 36.05 67.8 36.05 64.2 36.05 61.65 33.5 59.15 31.0 59.15 27.4 59.15 23.8 61.65 21.25 64.2 18.75 67.8 18.75 71.4 18.75 73.9 21.25 76.45 23.8 76.45 27.4 76.45 31.0 73.9 33.5" fill="#000000" fill-rule="evenodd" stroke="none"/>
    <path d="M60.0 44.1 Q56.65 47.55 51.8 47.55 46.95 47.55 43.5 44.1 40.15 40.75 40.15 35.9 40.15 31.05 43.5 27.6 46.95 24.25 51.8 24.25 56.65 24.25 60.0 27.6 63.45 31.05 63.45 35.9 63.45 40.75 60.0 44.1" fill="#000000" fill-rule="evenodd" stroke="none"/>
  </g>
</svg>
