<?xml version="1.0" encoding="UTF-8" standalone="no"?>
<svg xmlns:ffdec="https://www.free-decompiler.com/flash" xmlns:xlink="http://www.w3.org/1999/xlink" ffdec:objectType="shape" height="46.6px" width="157.75px" xmlns="http://www.w3.org/2000/svg">
  <g transform="matrix(1.0, 0.0, 0.0, 1.0, 4.7, 1.25)">
    <path d="M132.8 44.35 L152.05 32.15 M128.5 40.55 L146.45 26.1 M122.9 37.0 L140.15 19.75 M104.2 27.1 L114.8 8.1 M96.6 24.05 L105.7 5.6 M88.5 22.3 L95.8 2.8 M81.4 21.05 L85.45 1.0 M118.6 33.45 L133.8 15.7 M111.55 29.9 L124.7 10.9 M64.95 20.8 L65.2 0.5 M57.85 21.55 L56.05 0.75 M51.25 23.05 L46.95 1.8 M37.3 28.65 L27.95 7.85 M29.2 32.45 L19.6 12.15 M21.6 36.5 L10.25 18.25 M16.55 41.3 L2.1 23.05 M44.4 25.85 L37.85 4.05 M73.55 21.55 L76.05 -0.25 M10.75 44.1 L-3.7 28.9" fill="none" stroke="#000000" stroke-linecap="round" stroke-linejoin="round" stroke-width="2.0"/>
  </g>
</svg>
