<?xml version="1.0" encoding="UTF-8" standalone="no"?>
<svg xmlns:ffdec="https://www.free-decompiler.com/flash" xmlns:xlink="http://www.w3.org/1999/xlink" ffdec:objectType="shape" height="88.9px" width="163.95px" xmlns="http://www.w3.org/2000/svg">
  <g transform="matrix(1.0, 0.0, 0.0, 1.0, 0.0, 2.05)">
    <path d="M116.75 59.6 L116.5 59.9 117.2 59.9" fill="none" stroke="#00cccc" stroke-linecap="round" stroke-linejoin="round" stroke-width="1.0"/>
    <path d="M94.7 -0.15 Q109.25 2.9 121.85 11.0 133.05 18.2 139.95 29.65 L139.95 29.7 140.4 29.65 141.05 29.65 Q150.55 29.65 157.25 36.55 163.95 43.5 163.95 53.3 163.95 58.1 162.35 62.2 160.65 66.5 157.25 70.0 150.55 76.95 141.05 76.95 L140.85 76.95 138.65 78.1 Q120.95 86.85 95.85 86.85 70.7 86.85 52.95 78.1 35.2 69.35 35.25 57.05 35.2 55.85 35.4 54.7 33.2 54.25 32.0 53.65 21.45 48.3 12.95 47.2 4.4 46.1 0.0 47.0 L7.7 38.55 10.0 36.15 7.0 35.4 Q2.85 34.5 0.1 34.6 L0.3 34.4 Q11.1 25.55 22.45 17.15 32.65 9.7 44.25 4.85 55.85 0.05 68.3 -1.5 81.55 -3.05 94.7 -0.15 M138.15 29.85 L138.15 29.8 138.1 29.85 138.15 29.85" fill="#000000" fill-rule="evenodd" stroke="none"/>
  </g>
</svg>
