<?xml version="1.0" encoding="UTF-8" standalone="no"?>
<svg xmlns:ffdec="https://www.free-decompiler.com/flash" xmlns:xlink="http://www.w3.org/1999/xlink" ffdec:objectType="shape" height="66.0px" width="148.75px" xmlns="http://www.w3.org/2000/svg">
  <g transform="matrix(1.0, 0.0, 0.0, 1.0, 78.35, 6.5)">
    <path d="M36.75 -6.5 L37.2 -6.35 Q42.4 -4.35 43.35 1.4 L43.35 1.45 43.45 2.15 44.0 4.25 Q44.8 9.15 43.85 12.8 42.75 17.7 43.85 20.7 44.7 23.0 44.8 25.2 44.95 28.6 43.35 31.7 42.85 32.75 43.0 34.05 L43.1 34.55 43.2 35.05 Q43.95 38.95 45.85 41.75 47.45 43.95 46.9 46.8 L45.6 51.4 Q44.8 53.85 43.25 55.9 39.45 61.1 34.15 57.05 28.9 53.1 31.6 46.95 L32.85 44.75 Q35.15 40.35 33.0 35.65 L32.65 34.8 Q31.35 34.05 30.95 33.3 30.45 32.35 30.5 31.5 30.55 30.75 30.95 30.1 34.45 24.2 31.8 18.15 29.4 12.95 29.6 6.4 29.55 -1.0 33.95 -4.65 35.15 -5.6 36.75 -6.5 M60.55 -6.5 L61.05 -6.35 Q66.2 -4.35 67.15 1.4 68.0 6.6 67.0 10.45 65.85 15.65 67.0 18.85 67.9 21.3 68.0 23.7 68.25 27.3 66.5 30.6 65.8 31.9 66.15 33.6 67.0 38.1 69.2 41.3 70.85 43.65 70.2 46.7 L68.85 51.55 Q68.0 54.25 66.35 56.45 62.3 61.95 56.6 57.6 51.05 53.4 53.95 46.85 L55.25 44.5 Q58.1 39.15 54.75 33.3 54.3 32.35 54.35 31.5 54.35 30.75 54.75 30.1 58.3 24.2 55.6 18.15 53.25 12.95 53.4 6.4 53.4 -1.0 57.75 -4.65 L60.55 -6.5 M-71.25 -3.15 L-70.8 -2.95 Q-66.1 -1.15 -65.15 3.95 L-65.05 4.15 -65.05 4.25 Q-64.25 9.15 -65.2 12.8 L-65.6 15.1 Q-66.05 18.4 -65.2 20.7 -64.35 23.0 -64.3 25.2 -64.1 28.6 -65.7 31.7 -66.3 32.95 -65.95 34.55 L-65.9 35.05 Q-65.1 38.95 -63.2 41.75 -61.6 43.95 -62.2 46.8 -62.7 49.3 -63.45 51.4 -64.25 53.85 -65.8 55.9 -69.6 61.1 -74.95 57.05 -80.15 53.1 -77.45 46.95 L-76.2 44.75 Q-73.9 40.35 -76.05 35.65 L-76.7 34.2 Q-77.15 33.3 -77.1 32.5 L-76.7 31.15 Q-73.4 25.65 -75.95 20.0 -78.15 15.15 -77.95 9.0 L-77.95 8.55 Q-77.8 1.95 -73.85 -1.4 L-72.6 -2.3 -71.25 -3.15 M-50.7 -2.95 Q-45.8 -1.1 -44.9 4.25 -44.15 9.15 -45.05 12.8 L-45.5 15.1 Q-45.9 18.4 -45.05 20.7 -44.2 23.0 -44.15 25.2 -43.95 28.6 -45.6 31.7 -46.2 32.95 -45.8 34.55 L-45.75 35.05 Q-44.95 38.95 -43.05 41.75 -41.45 43.95 -42.05 46.8 -42.55 49.3 -43.3 51.4 -44.1 53.85 -45.65 55.9 -49.45 61.1 -54.8 57.05 -60.05 53.1 -57.35 46.95 L-56.05 44.75 Q-53.75 40.35 -55.9 35.65 L-56.55 34.2 -57.0 32.5 -56.55 31.15 Q-53.3 25.65 -55.8 20.0 -58.0 15.15 -57.8 9.0 L-57.8 8.55 Q-57.7 1.95 -53.7 -1.4 L-51.1 -3.15 -50.7 -2.95" fill="#66330c" fill-rule="evenodd" stroke="none"/>
  </g>
</svg>
