<?xml version="1.0" encoding="UTF-8" standalone="no"?>
<svg xmlns:ffdec="https://www.free-decompiler.com/flash" xmlns:xlink="http://www.w3.org/1999/xlink" ffdec:objectType="shape" height="88.7px" width="164.65px" xmlns="http://www.w3.org/2000/svg">
  <g transform="matrix(1.0, 0.0, 0.0, 1.0, 82.05, 45.7)">
    <path d="M61.5 -20.15 L62.05 -19.75 65.2 -16.55 Q75.65 -5.75 79.75 6.1 83.95 17.75 80.6 28.55 78.2 36.4 71.2 42.5 71.1 40.0 67.4 37.55 63.7 35.05 62.05 34.75 60.35 34.5 56.05 32.1 51.7 29.65 40.75 28.4 L14.35 28.4 13.9 29.85 Q29.45 -33.05 61.5 -20.15" fill="#0f8c37" fill-rule="evenodd" stroke="none"/>
    <path d="M5.95 -44.5 Q24.5 -42.2 39.35 -34.9 52.25 -28.65 61.5 -20.15 29.45 -33.05 13.9 29.85 L-40.2 27.25 Q-24.65 -40.55 5.95 -44.5" fill="#f7f632" fill-rule="evenodd" stroke="none"/>
    <path d="M-40.2 27.25 L-58.0 27.0 Q-84.2 25.8 -81.25 9.0 L-78.95 3.85 Q-76.65 -1.7 -71.15 -9.8 -65.65 -18.0 -57.0 -25.9 -48.2 -34.05 -35.4 -39.55 -23.9 -44.55 -8.65 -45.15 L-7.4 -45.2 -6.75 -45.2 -5.55 -45.2 4.2 -44.65 5.95 -44.5 Q-24.65 -40.55 -40.2 27.25" fill="#de1408" fill-rule="evenodd" stroke="none"/>
    <path d="M39.35 -34.9 Q52.25 -28.65 61.5 -20.15 L62.05 -19.75 65.2 -16.55 Q75.65 -5.75 79.75 6.1 83.95 17.75 80.6 28.55 78.2 36.4 71.2 42.5 71.1 40.0 67.4 37.55 63.7 35.05 62.05 34.75 60.35 34.5 56.05 32.1 51.7 29.65 40.75 28.4 L14.35 28.4 13.9 29.85 -40.2 27.25 -58.0 27.0 Q-84.2 25.8 -81.25 9.0 L-78.95 3.85 Q-76.65 -1.7 -71.15 -9.8 -65.65 -18.0 -57.0 -25.9 -48.2 -34.05 -35.4 -39.55 -23.9 -44.55 -8.65 -45.15 L-7.4 -45.2 -6.75 -45.2 -5.55 -45.2 4.2 -44.65 5.95 -44.5 Q24.5 -42.2 39.35 -34.9 Z" fill="none" stroke="#000000" stroke-linecap="round" stroke-linejoin="round" stroke-opacity="0.2509804" stroke-width="1.0"/>
  </g>
</svg>
