<?xml version="1.0" encoding="UTF-8" standalone="no"?>
<svg xmlns:ffdec="https://www.free-decompiler.com/flash" xmlns:xlink="http://www.w3.org/1999/xlink" ffdec:objectType="shape" height="70.65px" width="74.8px" xmlns="http://www.w3.org/2000/svg">
  <g transform="matrix(1.0, 0.0, 0.0, 1.0, 36.6, 46.4)">
    <path d="M31.4 -18.2 Q36.45 -8.0 38.1 6.75 2.4 34.4 -34.4 18.15 L-35.6 10.45 Q-36.95 0.55 -36.25 -7.0 -35.45 -15.85 -32.25 -23.9 -25.2 -42.0 -10.45 -45.5 1.6 -48.5 13.0 -40.3 L15.15 -38.65 15.8 -38.15 18.0 -36.3 Q26.4 -28.6 31.4 -18.2" fill="#ffffff" fill-rule="evenodd" stroke="none"/>
    <path d="M31.4 -18.2 Q36.45 -8.0 38.1 6.75 2.4 34.4 -34.4 18.15 L-35.6 10.45 Q-36.95 0.55 -36.25 -7.0 -35.45 -15.85 -32.25 -23.9 -25.2 -42.0 -10.45 -45.5 1.6 -48.5 13.0 -40.3 L15.15 -38.65 15.8 -38.15 18.0 -36.3 Q26.4 -28.6 31.4 -18.2 Z" fill="none" stroke="#000000" stroke-linecap="round" stroke-linejoin="round" stroke-opacity="0.12941177" stroke-width="0.2"/>
    <path d="M-19.85 -12.15 Q-19.85 -15.7 -17.65 -17.85 -15.65 -20.2 -12.5 -20.05 -9.45 -20.2 -6.95 -17.85 -4.6 -15.5 -4.6 -12.0 -4.6 -8.8 -6.95 -6.5 -9.45 -4.15 -12.5 -4.15 -15.65 -4.45 -17.65 -6.65 -19.85 -9.0 -19.85 -12.15" fill="#fdff00" fill-rule="evenodd" stroke="none"/>
    <path d="M2.75 -28.6 Q4.25 -27.25 4.25 -25.25 4.1 -22.2 1.25 -19.2 L-0.6 -17.7 1.95 -18.05 Q5.3 -18.05 7.3 -16.55 9.3 -15.0 9.3 -12.15 9.3 -9.85 7.3 -8.3 5.3 -6.65 1.95 -6.65 L-0.4 -6.8 1.4 -5.15 Q4.25 -2.45 4.25 0.55 4.25 2.55 2.6 4.05 1.1 5.4 -0.9 5.4 -3.75 5.25 -6.3 2.55 L-7.8 0.7 -7.6 2.75 -7.6 3.05 Q-7.6 6.4 -9.15 8.45 -10.65 10.25 -12.8 10.25 -15.3 9.95 -16.65 7.75 -17.85 5.75 -17.65 2.55 L-17.5 0.2 -19.2 2.05 Q-21.5 4.6 -23.85 4.6 L-24.05 4.4 Q-25.7 4.4 -27.05 2.9 -28.4 1.4 -28.4 -0.45 -28.4 -3.15 -25.9 -5.65 L-24.55 -7.15 -26.7 -7.0 Q-29.55 -7.15 -31.25 -8.5 -32.75 -10.0 -32.75 -12.15 -32.75 -14.7 -31.25 -16.0 -29.55 -17.55 -26.7 -17.55 L-24.7 -17.35 -26.2 -18.85 Q-28.55 -21.4 -28.4 -24.25 -28.4 -26.25 -27.05 -27.6 -25.7 -29.1 -23.85 -29.1 -21.5 -29.25 -19.0 -26.75 L-17.65 -25.05 -17.85 -27.25 Q-18.0 -30.6 -16.65 -32.6 -15.15 -34.6 -12.65 -34.45 -10.45 -34.6 -9.15 -32.75 -7.6 -30.95 -7.6 -27.4 L-7.8 -25.05 -6.1 -26.9 Q-3.75 -30.1 -0.75 -30.1 1.1 -30.25 2.75 -28.6 M-19.85 -12.15 Q-19.85 -9.0 -17.65 -6.65 -15.65 -4.45 -12.5 -4.15 -9.45 -4.15 -6.95 -6.5 -4.6 -8.8 -4.6 -12.0 -4.6 -15.5 -6.95 -17.85 -9.45 -20.2 -12.5 -20.05 -15.65 -20.2 -17.65 -17.85 -19.85 -15.7 -19.85 -12.15" fill="#9966cc" fill-rule="evenodd" stroke="none"/>
  </g>
</svg>
