<?xml version="1.0" encoding="UTF-8" standalone="no"?>
<svg xmlns:ffdec="https://www.free-decompiler.com/flash" xmlns:xlink="http://www.w3.org/1999/xlink" ffdec:objectType="shape" height="42.65px" width="84.4px" xmlns="http://www.w3.org/2000/svg">
  <g transform="matrix(1.0, 0.0, 0.0, 1.0, 37.3, -5.4)">
    <path d="M47.0 28.85 Q16.15 58.7 -37.2 41.95 -33.55 30.2 -34.35 17.25 2.7 29.5 37.95 5.5 40.8 18.1 47.0 28.85" fill="#ff6699" fill-rule="evenodd" stroke="none"/>
    <path d="M47.0 28.85 Q16.15 58.7 -37.2 41.95 -33.55 30.2 -34.35 17.25 2.7 29.5 37.95 5.5 40.8 18.1 47.0 28.85 Z" fill="none" stroke="#000000" stroke-linecap="round" stroke-linejoin="round" stroke-opacity="0.2" stroke-width="0.2"/>
    <path d="M17.65 44.95 Q14.65 33.2 12.8 18.3 M30.75 40.1 Q26.2 30.35 23.35 14.4 M40.8 34.05 Q34.6 24.0 31.9 9.7 M3.55 47.3 L2.2 21.3 M-20.45 45.45 Q-18.25 34.2 -19.1 21.3 M-30.15 43.6 Q-27.0 32.05 -28.0 19.6 M-10.05 46.95 Q-8.85 35.25 -9.35 21.95" fill="none" stroke="#000000" stroke-linecap="round" stroke-linejoin="round" stroke-opacity="0.08627451" stroke-width="0.2"/>
  </g>
</svg>
