<?xml version="1.0" encoding="UTF-8" standalone="no"?>
<svg xmlns:ffdec="https://www.free-decompiler.com/flash" xmlns:xlink="http://www.w3.org/1999/xlink" ffdec:objectType="shape" height="93.45px" width="163.2px" xmlns="http://www.w3.org/2000/svg">
  <g transform="matrix(1.0, 0.0, 0.0, 1.0, 91.3, 86.45)">
    <path d="M-39.0 -66.9 Q-37.2 -61.35 -31.5 -58.8 -25.8 -56.2 -19.4 -58.3 -13.15 -60.3 -9.85 -65.7 -6.7 -71.15 -8.5 -76.65 -10.15 -82.2 -15.9 -84.6 -21.7 -87.05 -28.0 -85.1 -34.25 -83.15 -37.55 -77.7 -40.65 -72.4 -39.0 -66.9" fill="#6c0900" fill-rule="evenodd" stroke="none"/>
    <path d="M-75.3 -2.35 Q-73.55 -2.85 -63.8 -16.35 -48.9 -31.35 -21.55 -40.1 -14.15 -42.45 15.85 -35.2 L48.25 -27.45 57.45 -28.15 Q63.0 -29.5 67.05 -35.1 73.2 -43.75 70.6 -52.95 67.3 -65.0 48.3 -70.05 9.25 -80.65 -29.0 -68.85 -46.45 -63.6 -62.55 -52.2 -80.6 -39.5 -87.75 -25.3 -94.35 -12.4 -86.6 -5.9 -80.55 -0.7 -75.3 -2.35" fill="#b30e00" fill-rule="evenodd" stroke="none"/>
    <path d="M-66.9 -49.1 L-69.95 -2.45 -70.7 -2.2 Q-73.3 -3.0 -76.75 -2.2 L-74.45 -42.5 -66.9 -49.1" fill="#ffffff" fill-opacity="0.34509805" fill-rule="evenodd" stroke="none"/>
    <path d="M-26.7 -69.6 L-29.85 -27.1 -36.85 -24.85 -34.3 -67.15 -26.7 -69.6" fill="#ffffff" fill-opacity="0.34509805" fill-rule="evenodd" stroke="none"/>
    <path d="M11.05 -74.3 L7.85 -30.55 0.85 -28.3 3.25 -73.85 Q7.4 -75.35 11.05 -74.3" fill="#ffffff" fill-opacity="0.34509805" fill-rule="evenodd" stroke="none"/>
    <path d="M47.2 -69.7 L44.0 -26.95 37.0 -24.7 39.3 -71.4 Q43.55 -71.75 47.2 -69.7" fill="#ffffff" fill-opacity="0.34509805" fill-rule="evenodd" stroke="none"/>
    <path d="M68.1 -57.5 Q70.75 -53.35 70.9 -49.4 L-56.3 -56.5 -45.4 -62.5 68.1 -57.5" fill="#ffffff" fill-opacity="0.34509805" fill-rule="evenodd" stroke="none"/>
    <path d="M-32.25 -34.4 L-31.85 -27.1 -84.75 -29.55 -80.35 -36.5 -32.25 -34.4" fill="#ffffff" fill-opacity="0.34509805" fill-rule="evenodd" stroke="none"/>
    <path d="M40.6 -56.9 L40.3 -51.9 45.4 -51.65 45.65 -56.6 40.6 -56.9 M68.35 -57.95 L69.85 -55.2 48.3 -56.45 48.0 -51.45 71.25 -50.15 71.4 -47.45 47.85 -48.8 46.8 -30.35 61.0 -29.55 Q59.3 -28.6 57.45 -28.15 L50.05 -27.45 47.55 -27.65 32.7 -31.15 36.45 -30.95 37.45 -49.4 10.55 -50.9 9.75 -36.65 7.15 -37.2 7.9 -51.05 2.85 -51.35 2.1 -38.25 -0.5 -38.75 0.2 -51.5 -26.8 -53.05 -27.65 -38.0 -30.4 -37.0 -29.45 -53.25 -34.55 -53.5 -35.55 -35.1 -35.05 -35.1 -40.2 -32.7 -66.0 -34.2 -66.3 -29.15 -48.55 -28.15 -52.35 -25.7 -66.45 -26.5 -67.3 -11.5 -70.2 -7.75 -69.1 -26.65 -74.15 -26.95 -75.55 -2.25 -78.2 -1.95 -76.8 -27.1 -85.0 -27.55 -84.85 -30.25 -76.65 -29.75 -76.35 -34.8 -82.2 -35.15 -81.35 -35.1 -79.25 -37.65 -76.2 -37.45 -76.0 -41.1 -73.2 -43.8 -73.55 -37.3 -68.5 -37.0 -67.85 -48.2 -65.05 -50.35 -65.85 -36.85 -38.25 -35.25 -37.2 -53.65 -58.5 -54.9 -54.6 -57.35 -37.05 -56.35 -36.75 -61.35 -46.35 -61.9 Q-43.95 -63.2 -41.4 -64.3 L-36.6 -64.05 -36.5 -66.35 -33.7 -67.35 -33.95 -63.85 -28.85 -63.6 -28.55 -69.0 -25.85 -69.8 -26.2 -63.45 0.8 -61.9 1.55 -74.75 4.25 -74.85 3.5 -61.75 8.5 -61.45 9.3 -75.05 12.0 -75.1 11.15 -61.3 38.1 -59.7 38.8 -72.3 41.45 -71.75 40.75 -59.55 45.8 -59.3 46.45 -70.5 48.25 -70.05 49.1 -69.85 48.45 -59.1 68.35 -57.95 M0.65 -59.25 L-26.35 -60.75 -26.65 -55.75 0.35 -54.15 0.65 -59.25 M8.35 -58.8 L3.3 -59.1 3.05 -54.0 8.05 -53.7 8.35 -58.8 M10.75 -53.55 L37.65 -52.0 37.9 -57.05 11.0 -58.65 10.75 -53.55 M40.15 -49.25 L39.1 -30.8 44.15 -30.5 45.2 -48.95 40.15 -49.25 M-34.4 -56.2 L-29.3 -55.9 -29.0 -60.9 -34.1 -61.2 -34.4 -56.2 M-74.0 -29.6 L-68.95 -29.3 -68.7 -34.35 -73.7 -34.65 -74.0 -29.6" fill="#6c0900" fill-rule="evenodd" stroke="none"/>
    <path d="M-72.15 6.5 L-27.2 -1.1 Q22.5 -6.35 45.25 4.65 58.35 -30.9 56.55 -36.3 54.6 -42.0 23.05 -45.8 -11.6 -49.95 -31.75 -41.3 -52.55 -32.5 -66.25 -18.65 L-75.95 -6.55 -72.15 6.5" fill="#6c0900" fill-rule="evenodd" stroke="none"/>
    <path d="M48.3 -70.05 L41.45 -71.75 Q26.65 -75.0 12.0 -75.05 L12.0 -75.1 9.3 -75.05 3.35 -74.8 3.1 -74.8 1.55 -74.75 1.55 -74.7 -7.85 -73.65 Q-8.0 -75.15 -8.5 -76.65 -10.15 -82.2 -15.85 -84.6 -21.7 -87.05 -28.0 -85.1 -34.25 -83.15 -37.55 -77.7 -40.65 -72.4 -39.0 -66.9 L-38.45 -65.5 -41.3 -64.3 -41.4 -64.3 -44.8 -62.7 -45.25 -62.5 -45.4 -62.5 -47.1 -61.55 -53.95 -57.8 -56.3 -56.5 -56.1 -56.5 -62.55 -52.2 -66.9 -49.0 -66.9 -49.1 -67.95 -48.15 -73.2 -43.7 -73.2 -43.8 -76.0 -41.1 -76.0 -41.05 -79.2 -37.65 -79.25 -37.65 -80.2 -36.5 -80.35 -36.5 -80.7 -35.9 Q-85.05 -30.7 -87.75 -25.3 -94.35 -12.4 -86.6 -5.9 -82.2 -2.1 -78.2 -1.95 L-77.85 -1.95 -76.8 -2.0 -74.95 -2.65 -74.3 -1.0 -72.15 6.5 -27.2 -1.1 Q22.5 -6.35 45.25 4.65 53.4 -17.5 55.8 -27.95 L57.45 -28.15 57.95 -28.25 58.05 -28.3 59.55 -28.8 Q63.8 -30.6 67.05 -35.1 71.35 -41.15 71.4 -47.45 L71.25 -50.15 71.2 -50.15 70.6 -52.95 69.85 -55.2 68.6 -57.6 68.35 -57.95 Q63.2 -65.9 49.1 -69.85 L49.0 -69.85 48.3 -70.05 Z" fill="none" stroke="#000000" stroke-linecap="round" stroke-linejoin="round" stroke-opacity="0.2509804" stroke-width="1.0"/>
  </g>
</svg>
