<?xml version="1.0" encoding="UTF-8" standalone="no"?>
<svg xmlns:ffdec="https://www.free-decompiler.com/flash" xmlns:xlink="http://www.w3.org/1999/xlink" ffdec:objectType="shape" height="97.1px" width="198.05px" xmlns="http://www.w3.org/2000/svg">
  <g transform="matrix(1.0, 0.0, 0.0, 1.0, 0.0, 0.0)">
    <path d="M174.45 40.55 Q174.25 50.1 175.3 53.75 176.4 57.35 178.45 59.8 180.5 62.25 185.55 64.5 190.6 66.7 198.05 63.55 188.3 93.0 101.0 96.65 13.7 100.25 0.0 75.25 19.55 77.2 22.35 56.15 25.15 35.1 37.4 20.65 49.65 6.2 56.15 4.55 62.65 2.9 87.4 0.0 106.95 0.35 108.95 0.55 L131.15 2.75 Q151.4 4.75 163.05 17.85 174.65 30.95 174.45 40.55" fill="#000000" fill-rule="evenodd" stroke="none"/>
  </g>
</svg>
