<?xml version="1.0" encoding="UTF-8" standalone="no"?>
<svg xmlns:ffdec="https://www.free-decompiler.com/flash" xmlns:xlink="http://www.w3.org/1999/xlink" ffdec:objectType="shape" height="170.0px" width="102.5px" xmlns="http://www.w3.org/2000/svg">
  <g transform="matrix(1.0, 0.0, 0.0, 1.0, 59.05, 95.85)">
    <path d="M-32.95 -94.25 Q-21.85 -99.2 -17.4 -88.8 -14.7 -82.75 -16.15 -76.95 -17.55 -71.25 -22.3 -69.15 L-25.0 -68.4 Q-21.3 -55.35 -14.55 -39.15 -7.7 -22.6 -1.75 -12.65 3.05 -4.75 11.35 12.95 21.6 35.25 23.6 39.05 L24.65 38.5 Q29.25 36.45 34.45 39.25 39.6 42.1 42.2 48.1 44.05 52.4 43.2 55.8 42.15 59.95 37.1 62.75 L35.3 63.6 32.85 64.55 26.55 64.95 26.4 64.9 Q25.85 70.15 20.05 72.65 16.7 74.15 13.6 74.15 L11.05 73.85 10.15 73.65 9.35 73.4 8.05 72.85 Q6.45 72.05 5.15 70.8 L3.6 68.85 Q2.85 67.75 2.25 66.45 L1.3 63.8 0.85 55.95 0.85 55.75 Q1.85 50.45 5.55 47.9 L5.0 46.35 -6.75 14.45 -8.0 11.5 -9.4 8.25 -39.9 -55.85 -40.1 -56.25 -40.3 -56.65 -40.5 -57.05 -40.7 -57.5 -40.9 -57.9 -41.1 -58.35 -41.3 -58.75 -41.5 -59.2 -41.7 -59.6 -41.9 -60.05 -44.3 -59.75 -49.25 -61.0 -51.0 -61.95 -52.95 -63.45 -57.5 -69.5 -57.55 -69.65 -57.65 -69.8 -57.7 -69.95 -57.8 -70.15 -57.85 -70.3 -57.95 -70.5 Q-60.4 -76.15 -57.4 -80.85 -54.95 -84.5 -49.35 -87.05 -45.55 -88.75 -42.75 -88.4 L-41.7 -88.2 -40.65 -87.8 Q-38.95 -91.55 -32.95 -94.25" fill="#000000" fill-opacity="0.14901961" fill-rule="evenodd" stroke="none"/>
  </g>
</svg>
