<?xml version="1.0" encoding="UTF-8" standalone="no"?>
<svg xmlns:ffdec="https://www.free-decompiler.com/flash" xmlns:xlink="http://www.w3.org/1999/xlink" ffdec:objectType="shape" height="112.45px" width="34.95px" xmlns="http://www.w3.org/2000/svg">
  <g transform="matrix(1.0, 0.0, 0.0, 1.0, -0.05, 0.0)">
    <path d="M25.65 18.85 L23.85 18.5 Q22.25 26.95 21.5 38.1 20.7 49.45 21.25 56.8 21.75 62.65 21.4 75.05 20.9 90.65 20.95 93.35 L21.7 93.35 Q24.9 93.5 27.05 96.55 29.2 99.65 28.95 103.8 28.55 111.0 20.65 110.65 17.05 110.5 15.2 108.85 13.4 111.7 9.4 111.45 5.8 111.3 3.5 109.2 0.85 106.85 1.05 102.9 1.25 99.15 3.3 96.4 5.35 93.65 8.2 93.25 10.4 76.5 10.85 68.75 11.4 57.45 11.9 18.45 9.05 17.75 7.3 14.8 5.55 11.8 5.75 7.95 5.95 4.05 9.0 2.25 11.45 0.85 15.35 1.0 19.05 1.15 20.5 3.05 22.5 1.4 26.7 1.55 34.4 1.9 34.0 9.1 33.8 13.3 31.35 16.15 28.9 19.0 25.65 18.85" fill="#e0e0bb" fill-rule="evenodd" stroke="none"/>
    <path d="M25.65 18.85 Q28.9 19.0 31.35 16.15 33.8 13.3 34.0 9.1 34.4 1.9 26.7 1.55 22.5 1.4 20.5 3.05 19.05 1.15 15.35 1.0 11.45 0.85 9.0 2.25 5.95 4.05 5.75 7.95 5.55 11.8 7.3 14.8 9.05 17.75 11.9 18.45 11.4 57.45 10.85 68.75 10.4 76.5 8.2 93.25 5.35 93.65 3.3 96.4 1.25 99.15 1.05 102.9 0.85 106.85 3.5 109.2 5.8 111.3 9.4 111.45 13.4 111.7 15.2 108.85 17.05 110.5 20.65 110.65 28.55 111.0 28.95 103.8 29.2 99.65 27.05 96.55 24.9 93.5 21.7 93.35 L20.95 93.35 Q20.9 90.65 21.4 75.05 21.75 62.65 21.25 56.8 20.7 49.45 21.5 38.1 22.25 26.95 23.85 18.5 L25.65 18.85 Z" fill="none" stroke="#535344" stroke-linecap="butt" stroke-linejoin="miter-clip" stroke-miterlimit="4.0" stroke-width="2.0"/>
  </g>
</svg>
