<?xml version="1.0" encoding="UTF-8" standalone="no"?>
<svg xmlns:ffdec="https://www.free-decompiler.com/flash" xmlns:xlink="http://www.w3.org/1999/xlink" ffdec:objectType="shape" height="110.45px" width="26.3px" xmlns="http://www.w3.org/2000/svg">
  <g transform="matrix(1.0, 0.0, 0.0, 1.0, -0.05, 0.0)">
    <path d="M20.8 3.0 L21.85 4.35 Q22.7 5.3 21.5 7.55 20.2 10.1 20.4 8.45 20.5 7.1 18.55 6.05 16.45 4.95 14.15 5.55 12.15 6.05 12.35 8.75 12.4 10.1 12.9 11.35 15.45 14.4 15.2 15.5 15.85 20.4 15.05 24.05 14.4 26.95 14.05 41.0 13.65 55.4 14.25 58.1 14.9 60.85 15.35 75.75 15.8 90.45 15.35 91.7 15.0 92.65 13.0 94.05 L10.45 95.75 8.0 97.95 Q6.25 99.8 7.2 100.95 8.45 102.55 10.8 103.05 13.25 103.65 13.65 101.85 14.05 100.1 15.45 101.85 16.85 103.65 16.35 104.5 15.9 105.25 17.55 106.0 19.15 106.75 20.8 106.65 22.95 106.55 26.0 107.4 L26.35 107.45 Q24.25 109.9 19.65 109.65 16.05 109.5 14.2 107.85 12.4 110.7 8.4 110.45 4.8 110.3 2.5 108.2 -0.15 105.85 0.05 101.9 0.25 98.15 2.3 95.4 4.35 92.65 7.2 92.25 9.4 75.5 9.85 67.75 10.4 56.45 10.9 17.45 8.05 16.75 6.3 13.8 4.55 10.8 4.75 6.95 4.95 3.05 8.0 1.25 10.45 -0.15 14.35 0.0 17.8 0.15 19.3 1.8 L19.5 2.05 Q20.45 2.6 20.8 3.0" fill="#000000" fill-rule="evenodd" stroke="none"/>
  </g>
</svg>
