<?xml version="1.0" encoding="UTF-8" standalone="no"?>
<svg xmlns:ffdec="https://www.free-decompiler.com/flash" xmlns:xlink="http://www.w3.org/1999/xlink" ffdec:objectType="shape" height="70.55px" width="74.65px" xmlns="http://www.w3.org/2000/svg">
  <g transform="matrix(1.0, 0.0, 0.0, 1.0, 36.55, 46.25)">
    <path d="M31.65 -17.1 Q36.85 -5.9 38.0 6.85 2.35 34.45 -34.45 18.2 L-35.6 10.5 Q-36.95 1.5 -36.1 -6.9 -35.45 -15.75 -32.25 -23.8 -25.25 -41.85 -10.5 -45.35 1.55 -48.35 12.9 -40.15 L15.1 -38.5 15.75 -38.0 17.95 -36.15 Q26.3 -28.45 31.65 -17.1" fill="#333333" fill-rule="evenodd" stroke="none"/>
    <path d="M31.65 -17.1 Q36.85 -5.9 38.0 6.85 2.35 34.45 -34.45 18.2 L-35.6 10.5 Q-36.95 1.5 -36.1 -6.9 -35.45 -15.75 -32.25 -23.8 -25.25 -41.85 -10.5 -45.35 1.55 -48.35 12.9 -40.15 L15.1 -38.5 15.75 -38.0 17.95 -36.15 Q26.3 -28.45 31.65 -17.1 Z" fill="none" stroke="#000000" stroke-linecap="round" stroke-linejoin="round" stroke-opacity="0.2" stroke-width="0.2"/>
    <path d="M3.85 -17.65 Q5.5 -16.1 5.75 -13.8 6.05 -11.25 4.4 -9.3 2.65 -7.45 0.15 -7.2 L-0.5 -7.2 Q-2.7 -7.25 -4.55 -8.8 -6.15 -10.3 -6.45 -12.5 -6.6 -15.05 -5.05 -17.0 -3.5 -18.85 -0.8 -19.3 L-0.3 -19.25 Q2.2 -19.4 3.85 -17.65 M-6.75 -6.35 Q-5.25 -4.95 -4.8 -2.75 -4.65 -1.1 -5.7 -0.6 L-7.2 -0.5 -8.2 -0.5 -9.85 -0.7 Q-10.65 -1.2 -10.8 -2.55 -10.75 -4.7 -9.75 -6.2 L-8.4 -7.65 Q-8.2 -7.65 -6.75 -6.35 M-17.6 -17.05 L-16.45 -17.2 Q-14.4 -17.15 -12.9 -15.65 -11.45 -14.25 -11.35 -12.05 -11.15 -9.55 -12.55 -7.75 -13.95 -5.75 -16.3 -5.5 L-16.65 -5.5 Q-18.8 -5.7 -20.4 -7.1 -22.1 -8.75 -22.4 -10.75 -22.65 -13.45 -21.15 -15.1 -19.75 -16.9 -17.6 -17.05" fill="#333333" fill-rule="evenodd" stroke="none"/>
    <path d="M3.85 -17.65 Q2.2 -19.4 -0.3 -19.25 L-0.8 -19.3 Q-3.5 -18.85 -5.05 -17.0 -6.6 -15.05 -6.45 -12.5 -6.15 -10.3 -4.55 -8.8 -2.7 -7.25 -0.5 -7.2 L0.15 -7.2 Q2.65 -7.45 4.4 -9.3 6.05 -11.25 5.75 -13.8 5.5 -16.1 3.85 -17.65 M3.95 -24.7 Q8.45 -21.1 9.1 -14.4 9.55 -10.4 8.0 -6.7 6.55 -3.05 3.5 -0.45 3.8 3.55 4.25 7.4 L0.35 7.7 -0.2 3.5 -2.55 3.8 -2.5 7.65 -5.5 7.95 -5.9 3.75 -8.4 4.05 -8.2 7.9 -11.2 8.15 -11.4 4.15 -13.75 4.1 -13.55 8.1 -17.2 8.4 -17.9 1.0 Q-24.2 -3.3 -25.05 -11.15 -25.8 -17.85 -21.7 -22.45 -17.55 -27.1 -10.55 -28.15 L-7.05 -28.4 Q-0.65 -28.3 3.95 -24.7 M-17.6 -17.05 Q-19.75 -16.9 -21.15 -15.1 -22.65 -13.45 -22.4 -10.75 -22.1 -8.75 -20.4 -7.1 -18.8 -5.7 -16.65 -5.5 L-16.3 -5.5 Q-13.95 -5.75 -12.55 -7.75 -11.15 -9.55 -11.35 -12.05 -11.45 -14.25 -12.9 -15.65 -14.4 -17.15 -16.45 -17.2 L-17.6 -17.05 M-6.75 -6.35 Q-8.2 -7.65 -8.4 -7.65 L-9.75 -6.2 Q-10.75 -4.7 -10.8 -2.55 -10.65 -1.2 -9.85 -0.7 L-8.2 -0.5 -7.2 -0.5 -5.7 -0.6 Q-4.65 -1.1 -4.8 -2.75 -5.25 -4.95 -6.75 -6.35" fill="#ffffff" fill-rule="evenodd" stroke="none"/>
  </g>
</svg>
