<?xml version="1.0" encoding="UTF-8" standalone="no"?>
<svg xmlns:ffdec="https://www.free-decompiler.com/flash" xmlns:xlink="http://www.w3.org/1999/xlink" ffdec:objectType="shape" height="105.5px" width="153.2px" xmlns="http://www.w3.org/2000/svg">
  <g transform="matrix(1.0, 0.0, 0.0, 1.0, 76.6, 52.75)">
    <path d="M23.35 -32.6 Q46.2 -29.6 62.75 -14.8 76.05 -3.0 76.6 5.05 77.1 12.05 56.0 52.75 52.0 50.7 -48.5 37.2 -73.1 9.8 -76.1 -10.05 -78.35 -24.6 -70.55 -38.4 -62.55 -52.25 -51.0 -52.75 -31.4 -53.2 -31.4 -34.15 -35.9 -44.2 -46.0 -41.15 -48.95 -40.4 -51.0 -36.9 -53.25 -33.4 -53.25 -29.6 -52.75 -19.85 -37.95 -19.05 -30.65 -18.8 -23.85 -21.3 L-12.05 -27.1 Q4.0 -35.15 23.35 -32.6" fill="#000000" fill-rule="evenodd" stroke="none"/>
  </g>
</svg>
