<?xml version="1.0" encoding="UTF-8" standalone="no"?>
<svg xmlns:ffdec="https://www.free-decompiler.com/flash" xmlns:xlink="http://www.w3.org/1999/xlink" ffdec:objectType="shape" height="109.85px" width="67.15px" xmlns="http://www.w3.org/2000/svg">
  <g transform="matrix(1.0, 0.0, 0.0, 1.0, 39.7, 108.05)">
    <path d="M-6.75 -50.05 Q-1.6 -36.1 -7.05 -27.4" fill="none" stroke="#c4a459" stroke-linecap="round" stroke-linejoin="round" stroke-width="2.5"/>
    <path d="M-8.9 -50.35 L-8.65 -49.85 Q-8.5 -37.45 -14.25 -31.1 L-14.0 -30.6 Q-13.3 -29.1 -14.0 -27.6 -14.55 -26.15 -16.15 -25.45 -17.6 -24.85 -19.15 -25.45 -20.65 -26.15 -21.25 -27.6 -21.85 -29.15 -21.25 -30.6 -20.7 -32.05 -19.1 -32.75 -17.6 -33.35 -16.1 -32.75 L-15.3 -32.3 Q-10.1 -38.2 -10.25 -49.8 -10.25 -50.6 -9.45 -50.6 L-8.9 -50.35" fill="#f5d791" fill-rule="evenodd" stroke="none"/>
    <path d="M-6.7 -19.7 Q-6.7 -9.8 -3.15 -2.3 -2.8 -1.6 -3.5 -1.25 L-3.85 -1.15 Q-4.35 -1.15 -4.55 -1.6 -8.3 -9.4 -8.3 -19.7 L-7.85 -26.9 -7.55 -27.45 -7.0 -27.6 Q-6.2 -27.5 -6.3 -26.7 -6.7 -22.85 -6.7 -19.7" fill="#a7651d" fill-rule="evenodd" stroke="none"/>
    <path d="M-14.75 -4.75 L-14.4 -4.7 -14.4 -1.1 -17.7 -1.1 -17.85 -2.0 Q-17.75 -4.5 -14.75 -4.75" fill="#d9d3b2" fill-rule="evenodd" stroke="none"/>
    <path d="M-2.55 -1.85 L-2.75 -1.1 -14.4 -1.1 -14.4 -4.7 -9.9 -4.35 -4.95 -3.4 Q-2.55 -2.85 -2.55 -1.85" fill="#2e2e2e" fill-rule="evenodd" stroke="none"/>
    <path d="M-17.7 -1.1 L-14.4 -1.1 -14.4 0.3 -15.45 0.3 Q-17.35 0.25 -17.7 -1.1" fill="#d9d3b2" fill-rule="evenodd" stroke="none"/>
    <path d="M-5.25 -0.2 L-14.4 0.3 -14.4 -1.1 -2.75 -1.1 Q-2.9 -0.8 -3.2 -0.65 -3.65 -0.35 -5.25 -0.2" fill="#d9d3b2" fill-rule="evenodd" stroke="none"/>
    <path d="M-1.95 -55.6 Q2.4 -56.65 6.55 -53.7 L8.5 -52.25 Q11.5 -49.4 13.3 -45.4 14.65 -42.55 15.3 -39.45 L15.3 -39.4 Q16.1 -36.0 15.95 -31.5 L15.9 -30.95 Q15.25 -27.45 12.6 -25.2 L12.5 -25.15 12.1 -24.85 Q10.35 -23.7 8.4 -22.95 L6.05 -22.15 Q1.9 -21.1 -1.95 -21.95 L-2.9 -22.25 -3.5 -22.35 -4.3 -22.6 -5.45 -23.25 -6.7 -24.3 Q-7.9 -25.45 -8.95 -27.35 L-9.4 -28.35 -10.6 -32.15 -10.75 -32.9 -10.8 -33.0 -11.25 -35.0 Q-11.75 -38.3 -11.45 -41.45 -11.15 -44.55 -10.0 -47.65 -7.35 -54.35 -1.95 -55.6" fill="#2e2e2e" fill-rule="evenodd" stroke="none"/>
    <path d="M0.4 -46.3 Q-0.5 -46.15 -0.95 -45.45 -1.65 -44.7 -1.55 -43.7 -1.55 -42.85 -0.95 -42.25 -0.4 -41.5 0.35 -41.5 L0.6 -41.5 Q1.4 -41.6 2.05 -42.25 2.6 -42.95 2.6 -44.0 2.5 -45.15 2.0 -45.6 1.45 -46.35 0.6 -46.3 L0.4 -46.3 M-6.55 -47.8 Q-4.95 -49.6 -2.7 -49.9 L-1.5 -50.0 Q0.55 -49.85 2.1 -48.4 3.55 -46.9 3.7 -44.2 3.85 -42.8 3.25 -41.15 2.65 -39.7 1.6 -38.8 L1.75 -35.65 0.45 -35.55 0.25 -37.25 -0.5 -37.1 -0.5 -35.6 -1.5 -35.55 -1.65 -37.25 -2.45 -37.1 -2.45 -35.6 -3.45 -35.5 -3.55 -37.1 -4.3 -37.2 -4.25 -35.5 -5.5 -35.5 -5.6 -38.45 Q-7.7 -40.3 -7.85 -43.4 -8.0 -46.05 -6.55 -47.8 M-2.75 -41.2 L-3.2 -39.75 -2.85 -39.0 -2.0 -38.9 -1.45 -38.95 Q-1.15 -39.15 -1.15 -39.8 -1.2 -40.5 -1.7 -41.2 L-2.25 -41.8 -2.75 -41.2 M-3.7 -45.0 Q-4.2 -45.65 -4.8 -45.65 L-5.2 -45.6 Q-5.95 -45.5 -6.5 -44.9 -7.0 -44.05 -6.95 -43.15 -6.85 -42.35 -6.3 -41.65 L-5.1 -41.0 -5.0 -41.0 Q-4.2 -41.05 -3.65 -41.85 -3.15 -42.55 -3.25 -43.6 -3.25 -44.45 -3.7 -45.0" fill="#e6e1c6" fill-rule="evenodd" stroke="none"/>
    <path d="M15.15 -94.45 Q16.6 -93.25 18.35 -89.8 19.8 -86.35 19.8 -79.9 19.75 -73.55 15.2 -70.25 10.75 -67.05 3.4 -67.05 -3.35 -67.05 -8.25 -70.8 -12.95 -67.65 -19.15 -67.65 -26.45 -67.65 -32.2 -71.45 -37.9 -75.15 -33.35 -75.6 -28.8 -75.9 -29.7 -80.3 -30.1 -81.9 -27.8 -88.4 L-28.8 -86.55 Q-29.75 -92.7 -34.85 -94.75 -37.35 -95.75 -39.7 -95.55 -36.0 -100.4 -30.1 -101.0 -26.4 -101.4 -22.7 -100.15 L-22.05 -101.45 Q-21.6 -102.35 -20.2 -103.75 L-17.5 -105.8 -14.15 -107.15 -6.55 -108.05 Q-10.5 -106.2 -11.25 -104.7 L-12.1 -102.25 Q-12.2 -101.3 -11.95 -101.4 -7.95 -104.7 -2.55 -105.3 2.6 -105.85 7.6 -104.55 2.95 -104.25 0.35 -100.1 L0.05 -99.75 4.1 -100.9 Q7.5 -101.65 11.2 -100.8 15.1 -99.9 15.9 -98.1 13.65 -99.0 11.85 -98.05 10.1 -97.2 11.7 -96.5 13.55 -95.7 15.15 -94.45" fill="#7d582d" fill-rule="evenodd" stroke="none"/>
    <path d="M-3.85 -22.5 L-4.3 -22.6 -5.45 -23.25 Q-7.7 -24.9 -8.95 -27.35 L-9.6 -28.9 Q3.4 -23.35 16.05 -32.95 L15.95 -31.5 15.95 -31.45 15.9 -30.95 Q15.25 -27.45 12.6 -25.2 L12.5 -25.15 12.15 -24.85 12.1 -24.8 Q10.4 -23.65 8.35 -22.85 L5.95 -22.15 Q1.4 -21.0 -2.9 -22.15 L-3.85 -22.5" fill="#a7651d" fill-rule="evenodd" stroke="none"/>
    <path d="M-10.6 -32.25 Q2.85 -26.3 15.85 -36.35 L16.05 -32.95 Q3.4 -23.35 -9.6 -28.9 L-9.7 -29.15 -10.6 -32.25" fill="#4f3104" fill-rule="evenodd" stroke="none"/>
    <path d="M11.65 -18.5 Q11.65 -8.35 15.75 -1.15 16.15 -0.4 15.45 -0.05 L15.05 0.05 14.35 -0.35 Q10.1 -7.9 10.1 -18.5 10.1 -21.9 10.45 -25.1 10.55 -25.9 11.35 -25.8 12.15 -25.7 12.05 -24.9 11.65 -21.4 11.65 -18.5" fill="#a7651d" fill-rule="evenodd" stroke="none"/>
    <path d="M18.55 -74.35 Q18.55 -67.05 10.4 -61.95 2.4 -56.75 -9.2 -56.75 -20.8 -56.75 -28.8 -61.95 -36.95 -67.05 -36.95 -74.35 -36.95 -81.6 -28.8 -86.85 -20.7 -91.95 -9.2 -91.95 2.3 -91.95 10.4 -86.85 18.55 -81.6 18.55 -74.35" fill="#f5d791" fill-rule="evenodd" stroke="none"/>
    <path d="M18.55 -74.35 Q18.55 -67.05 10.4 -61.95 2.4 -56.75 -9.2 -56.75 -20.8 -56.75 -28.8 -61.95 -36.95 -67.05 -36.95 -74.35 -36.95 -81.6 -28.8 -86.85 -20.7 -91.95 -9.2 -91.95 2.3 -91.95 10.4 -86.85 18.55 -81.6 18.55 -74.35 Z" fill="none" stroke="#66593c" stroke-linecap="butt" stroke-linejoin="miter-clip" stroke-miterlimit="4.0" stroke-width="1.0"/>
    <path d="M12.15 -88.4 L12.2 -87.2 Q12.2 -83.15 8.95 -80.25 5.6 -77.35 0.85 -77.35 -3.9 -77.35 -7.15 -80.25 -10.5 -83.15 -10.5 -87.2 L-10.45 -88.1 12.15 -88.4" fill="#ffffff" fill-rule="evenodd" stroke="none"/>
    <path d="M12.15 -88.4 L-10.45 -88.1 -10.5 -87.2 Q-10.5 -83.15 -7.15 -80.25 -3.9 -77.35 0.85 -77.35 5.6 -77.35 8.95 -80.25 12.2 -83.15 12.2 -87.2 L12.15 -88.4 Z" fill="none" stroke="#5e4f2c" stroke-linecap="butt" stroke-linejoin="miter-clip" stroke-miterlimit="4.0" stroke-width="1.0"/>
    <path d="M-30.2 -86.25 L-30.05 -87.85 -16.2 -88.05 Q-16.05 -87.15 -16.05 -86.25 -16.05 -82.95 -18.1 -80.5 -20.1 -78.1 -23.1 -78.1 -26.0 -78.1 -28.1 -80.5 -30.2 -83.0 -30.2 -86.25" fill="#ffffff" fill-rule="evenodd" stroke="none"/>
    <path d="M-30.2 -86.25 Q-30.2 -83.0 -28.1 -80.5 -26.0 -78.1 -23.1 -78.1 -20.1 -78.1 -18.1 -80.5 -16.05 -82.95 -16.05 -86.25 -16.05 -87.15 -16.2 -88.05 L-30.05 -87.85 -30.2 -86.25 Z" fill="none" stroke="#5e4f2c" stroke-linecap="butt" stroke-linejoin="miter-clip" stroke-miterlimit="4.0" stroke-width="1.0"/>
    <path d="M-22.35 -85.05 Q-23.05 -85.6 -23.2 -86.5 -23.35 -87.45 -22.8 -88.15 -22.3 -88.9 -21.4 -89.05 L-19.7 -88.7 Q-19.0 -88.1 -18.8 -87.2 -18.7 -86.25 -19.25 -85.5 -19.75 -84.8 -20.65 -84.7 -21.55 -84.5 -22.35 -85.05" fill="#000000" fill-rule="evenodd" stroke="none"/>
    <path d="M1.6 -84.55 Q0.65 -85.2 0.5 -86.15 0.3 -87.2 0.85 -88.1 1.5 -89.05 2.55 -89.2 3.6 -89.5 4.5 -88.8 5.3 -88.3 5.6 -87.2 5.75 -86.1 5.2 -85.25 4.45 -84.35 3.5 -84.2 2.4 -83.9 1.6 -84.55" fill="#000000" fill-rule="evenodd" stroke="none"/>
    <path d="M8.3 -49.4 Q12.55 -47.55 15.75 -45.3 L14.8 -44.0 Q11.45 -46.35 7.65 -47.9 7.0 -48.25 7.25 -48.95 7.6 -49.65 8.3 -49.4" fill="#2e2e2e" fill-rule="evenodd" stroke="none"/>
    <path d="M15.75 -45.3 Q22.9 -40.15 24.3 -32.85 24.4 -32.05 23.65 -31.9 L23.5 -31.9 Q22.85 -31.9 22.7 -32.55 21.4 -39.25 14.8 -44.0 L15.75 -45.3" fill="#f5d791" fill-rule="evenodd" stroke="none"/>
    <path d="M19.65 -32.85 Q19.65 -34.45 20.85 -35.6 22.05 -36.7 23.65 -36.65 25.3 -36.55 26.4 -35.4 27.55 -34.25 27.45 -32.6 27.45 -30.95 26.25 -29.85 25.05 -28.7 23.45 -28.8 21.8 -28.85 20.7 -30.05 19.6 -31.25 19.65 -32.85" fill="#f5d791" fill-rule="evenodd" stroke="none"/>
    <path d="M8.95 -94.2 Q11.7 -91.75 12.15 -88.4 L-10.45 -88.1 Q-10.05 -91.65 -7.15 -94.2 -3.9 -97.1 0.85 -97.1 5.6 -97.1 8.95 -94.2" fill="#f5d791" fill-rule="evenodd" stroke="none"/>
    <path d="M8.95 -94.2 Q5.6 -97.1 0.85 -97.1 -3.9 -97.1 -7.15 -94.2 -10.05 -91.65 -10.45 -88.1 L12.15 -88.4 Q11.7 -91.75 8.95 -94.2 Z" fill="none" stroke="#66593c" stroke-linecap="butt" stroke-linejoin="miter-clip" stroke-miterlimit="4.0" stroke-width="1.0"/>
    <path d="M-23.1 -94.3 Q-20.1 -94.3 -18.1 -91.95 -16.65 -90.2 -16.2 -88.05 L-30.05 -87.85 Q-29.6 -90.15 -28.1 -91.95 -26.05 -94.3 -23.1 -94.3" fill="#f5d791" fill-rule="evenodd" stroke="none"/>
    <path d="M-23.1 -94.3 Q-26.05 -94.3 -28.1 -91.95 -29.6 -90.15 -30.05 -87.85 L-16.2 -88.05 Q-16.65 -90.2 -18.1 -91.95 -20.1 -94.3 -23.1 -94.3 Z" fill="none" stroke="#66593c" stroke-linecap="butt" stroke-linejoin="miter-clip" stroke-miterlimit="4.0" stroke-width="1.0"/>
    <path d="M1.55 -70.65 Q4.55 -71.25 5.45 -68.65 6.3 -66.0 4.85 -64.05 3.3 -62.05 0.2 -60.9 -3.1 -59.6 -10.4 -59.9 -17.7 -60.1 -19.5 -65.1 -11.3 -64.8 -6.45 -67.45 -1.45 -70.15 1.55 -70.65" fill="#ffffff" fill-rule="evenodd" stroke="none"/>
    <path d="M5.8 -67.45 Q5.9 -67.15 5.6 -67.0 3.25 -66.0 0.15 -65.1 L0.6 -61.4 Q0.6 -61.05 0.3 -61.0 L0.25 -61.0 Q-0.05 -61.0 -0.05 -61.3 L-0.5 -64.95 -6.35 -63.7 -6.05 -60.05 Q-5.95 -59.7 -6.35 -59.7 -6.7 -59.7 -6.7 -60.0 L-7.05 -63.65 -12.9 -63.25 -12.6 -60.75 Q-12.6 -60.4 -12.9 -60.35 L-12.95 -60.35 -13.25 -60.65 -13.55 -63.25 -19.0 -63.55 -19.3 -63.95 -18.95 -64.25 -13.6 -63.9 -13.75 -64.9 -13.45 -65.25 Q-13.15 -65.3 -13.05 -65.0 L-12.95 -63.9 -7.1 -64.3 -7.35 -66.95 -7.05 -67.35 Q-6.7 -67.35 -6.7 -67.05 L-6.45 -64.35 Q-3.25 -64.85 -0.6 -65.6 L-1.05 -69.6 Q-1.1 -69.9 -0.75 -70.0 -0.4 -70.0 -0.4 -69.7 L0.05 -65.8 Q2.85 -66.55 5.35 -67.65 L5.8 -67.45" fill="#5e5e5e" fill-rule="evenodd" stroke="none"/>
    <path d="M4.6 -64.25 Q5.9 -66.0 5.15 -68.55 4.3 -70.9 1.6 -70.35 -1.4 -69.85 -6.3 -67.2 -11.15 -64.55 -19.0 -64.8 -17.15 -60.4 -10.4 -60.2 -3.25 -59.9 0.1 -61.15 3.2 -62.3 4.6 -64.25 M1.5 -70.95 Q4.8 -71.55 5.7 -68.8 6.65 -66.0 5.1 -63.9 3.55 -61.85 0.3 -60.6 -3.05 -59.3 -10.4 -59.6 -17.9 -59.8 -19.8 -65.0 L-19.95 -65.4 -19.5 -65.4 Q-11.6 -65.05 -6.55 -67.7 -2.0 -70.2 1.5 -70.95" fill="#806e46" fill-rule="evenodd" stroke="none"/>
    <path d="M-19.7 -88.35 L-29.25 -88.5 Q-31.7 -88.5 -32.45 -87.75 -33.7 -86.6 -33.25 -83.3 L-33.15 -82.9 Q-32.85 -80.7 -31.25 -79.1 -29.65 -77.6 -27.7 -77.6 L-19.75 -77.55 Q-18.0 -77.4 -16.45 -78.95 -15.2 -80.45 -15.05 -82.75 L-15.05 -83.05 Q-14.5 -86.5 -16.15 -87.6 -17.1 -88.35 -19.7 -88.35 M13.45 -87.05 Q12.5 -88.05 10.0 -88.05 L-4.0 -88.15 -7.55 -87.75 Q-8.9 -86.9 -8.6 -82.75 L-8.6 -82.55 Q-8.6 -80.4 -7.1 -78.75 -5.75 -77.3 -3.7 -77.15 L8.3 -77.1 Q10.3 -77.1 11.9 -78.5 13.55 -80.1 13.9 -82.3 L14.05 -82.6 Q14.8 -85.85 13.45 -87.05 M12.2 -89.55 Q14.25 -89.45 15.2 -88.15 16.3 -86.7 15.85 -84.8 L15.0 -80.8 Q14.55 -78.75 12.95 -77.4 11.2 -76.0 9.25 -75.8 L-5.1 -75.95 Q-6.95 -76.15 -8.3 -77.45 -9.5 -78.7 -9.85 -80.25 -10.35 -84.4 -11.75 -84.4 -12.4 -84.4 -12.9 -83.2 L-13.75 -80.35 Q-14.05 -78.6 -15.35 -77.55 -16.65 -76.3 -18.5 -76.3 L-28.55 -76.4 Q-30.45 -76.4 -32.2 -77.9 -33.95 -79.5 -34.3 -81.25 L-35.1 -85.25 Q-35.2 -87.3 -34.3 -88.5 -33.15 -90.0 -31.25 -89.95 L-15.35 -89.65 Q-14.25 -89.3 -13.75 -88.5 -13.0 -87.35 -11.75 -87.2 -10.5 -87.2 -9.75 -88.5 -9.25 -89.3 -8.0 -89.55 L12.2 -89.55" fill="#3b3b3b" fill-rule="evenodd" stroke="none"/>
    <path d="M-4.0 -31.15 L1.25 -31.15 Q1.8 -31.15 2.15 -30.8 L2.55 -29.9 2.55 -27.55 Q2.55 -27.05 2.15 -26.65 1.8 -26.3 1.25 -26.3 L-4.0 -26.3 Q-4.55 -26.3 -4.9 -26.65 -5.3 -27.05 -5.3 -27.55 L-5.3 -29.9 Q-5.3 -30.4 -4.9 -30.8 -4.55 -31.15 -4.0 -31.15" fill="#cfa70b" fill-rule="evenodd" stroke="none"/>
    <path d="M-6.0 -2.4 L-6.2 -1.85 Q-6.45 -1.6 -6.75 -1.6 -7.1 -1.6 -7.3 -1.85 L-7.55 -2.4 Q-7.55 -3.2 -6.75 -3.2 L-6.2 -2.95 -6.0 -2.4" fill="#d9d3b2" fill-rule="evenodd" stroke="none"/>
    <path d="M4.2 -3.25 L4.55 -3.25 4.55 0.4 1.2 0.4 1.1 -0.55 Q1.2 -3.1 4.2 -3.25" fill="#d9d3b2" fill-rule="evenodd" stroke="none"/>
    <path d="M16.4 -0.4 L16.2 0.4 4.55 0.4 4.55 -3.25 9.05 -2.85 14.0 -1.95 Q16.4 -1.4 16.4 -0.4" fill="#2e2e2e" fill-rule="evenodd" stroke="none"/>
    <path d="M1.2 0.4 L4.55 0.4 4.55 1.8 3.5 1.8 Q1.65 1.75 1.2 0.4" fill="#d9d3b2" fill-rule="evenodd" stroke="none"/>
    <path d="M13.7 1.3 L4.55 1.8 4.55 0.4 16.2 0.4 15.75 0.8 13.7 1.3" fill="#d9d3b2" fill-rule="evenodd" stroke="none"/>
    <path d="M12.95 -0.95 Q12.95 -0.15 12.15 -0.15 L11.6 -0.4 Q11.35 -0.6 11.35 -0.95 L11.6 -1.5 12.15 -1.75 12.7 -1.5 12.95 -0.95" fill="#d9d3b2" fill-rule="evenodd" stroke="none"/>
    <path d="M24.0 -37.4 L20.2 -35.7 19.1 -38.2 22.85 -39.95 24.0 -37.4" fill="#a7651d" fill-rule="evenodd" stroke="none"/>
    <path d="M22.4 -38.35 L22.45 -37.45 21.9 -36.8 Q21.45 -36.6 21.0 -36.8 20.6 -36.95 20.4 -37.4 20.2 -37.85 20.35 -38.3 L20.9 -38.95 Q21.35 -39.15 21.8 -38.95 L22.4 -38.35" fill="#d9d9d9" fill-rule="evenodd" stroke="none"/>
  </g>
</svg>
