<?xml version="1.0" encoding="UTF-8" standalone="no"?>
<svg xmlns:ffdec="https://www.free-decompiler.com/flash" xmlns:xlink="http://www.w3.org/1999/xlink" ffdec:objectType="shape" height="35.0px" width="35.5px" xmlns="http://www.w3.org/2000/svg">
  <g transform="matrix(1.0, 0.0, 0.0, 1.0, 22.25, 13.0)">
    <path d="M12.75 -12.75 Q13.25 -12.25 13.25 -11.5 L12.7 -9.45 Q12.25 -7.95 12.5 -7.25 L8.6 -5.7 Q6.45 -4.85 6.0 -4.0 L5.05 -1.95 3.75 0.5 1.4 3.05 Q0.2 4.2 0.0 5.0 L-0.55 7.4 Q-1.2 9.1 -2.75 9.0 L-3.0 7.8 -3.25 6.75 Q-3.25 3.9 3.6 -4.45 L10.1 -12.4 10.35 -12.75 12.75 -12.75 M2.0 -13.0 L2.0 -11.75 Q1.1 -11.05 1.35 -10.3 L1.75 -9.6 Q1.75 -6.5 -1.4 -4.95 -3.15 -4.1 -6.75 -3.0 L-6.85 -3.3 -6.95 -3.6 -7.0 -3.85 -6.95 -4.05 -6.15 -4.9 Q-0.2 -11.2 1.25 -13.0 L2.0 -13.0 M-13.7 17.45 L-15.3 18.4 -16.25 18.75 -16.3 18.9 -16.5 19.0 -16.15 19.15 -17.0 20.0 Q-18.85 22.0 -20.35 22.0 -20.8 22.0 -21.5 21.25 -22.25 20.45 -22.25 19.85 -22.25 18.95 -18.05 16.0 -13.95 13.1 -9.75 11.0 L-9.75 12.5 -12.4 16.15 -13.35 17.15 -13.7 17.45" fill="#ffffff" fill-rule="evenodd" stroke="none"/>
  </g>
</svg>
