<?xml version="1.0" encoding="UTF-8" standalone="no"?>
<svg xmlns:ffdec="https://www.free-decompiler.com/flash" xmlns:xlink="http://www.w3.org/1999/xlink" ffdec:objectType="shape" height="41.0px" width="30.0px" xmlns="http://www.w3.org/2000/svg">
  <g transform="matrix(1.0, 0.0, 0.0, 1.0, 20.5, 22.75)">
    <path d="M5.2 -12.5 Q5.2 -12.75 4.85 -12.75 2.85 -12.0 1.85 -10.8 L1.8 -10.85 1.5 -11.0 1.65 -11.25 1.75 -11.5 2.5 -11.75 1.75 -13.25 Q1.75 -14.35 4.6 -18.15 7.65 -22.2 9.5 -22.75 L9.5 -21.5 8.2 -15.95 Q7.2 -12.25 5.5 -12.25 5.2 -12.25 5.2 -12.5 M3.45 -1.65 Q3.45 -1.35 4.0 -1.5 1.65 -0.25 1.45 1.0 L1.75 3.35 Q1.75 4.95 0.8 6.75 L-0.75 10.0 -1.0 13.4 Q-1.05 15.4 -2.25 16.5 L-3.5 16.5 -3.5 12.75 -2.75 10.5 -2.75 9.0 Q-3.45 9.85 -5.7 11.45 L-8.75 13.75 -10.25 13.35 -12.0 13.25 -4.1 3.8 Q-0.45 -0.05 3.5 -2.25 L3.45 -1.65 M-11.65 7.2 L-13.0 9.5 Q-13.65 11.45 -14.55 13.0 L-16.35 15.85 Q-19.5 17.45 -20.25 18.25 L-20.5 15.35 Q-20.5 13.1 -16.35 9.4 -12.25 5.7 -12.25 3.25 -12.25 2.65 -12.95 2.15 -13.3 1.85 -14.0 1.5 L-14.0 0.0 Q-13.4 -0.05 -12.0 1.55 -10.5 3.25 -10.5 4.25 -10.5 5.1 -11.65 7.2" fill="#ffffff" fill-rule="evenodd" stroke="none"/>
  </g>
</svg>
