<?xml version="1.0" encoding="UTF-8" standalone="no"?>
<svg xmlns:ffdec="https://www.free-decompiler.com/flash" xmlns:xlink="http://www.w3.org/1999/xlink" ffdec:objectType="shape" height="59.55px" width="39.65px" xmlns="http://www.w3.org/2000/svg">
  <g transform="matrix(1.0, 0.0, 0.0, 1.0, 21.4, 30.7)">
    <path d="M18.25 -28.2 Q18.25 -26.65 17.65 -24.15 17.0 -21.65 17.0 -20.3 L17.2 -19.7 18.0 -18.95 15.65 -15.2 Q14.15 -13.2 12.5 -13.2 L14.3 -15.85 Q15.5 -17.65 15.5 -18.55 15.5 -19.4 14.5 -21.55 14.5 -23.6 15.0 -26.05 15.55 -28.85 16.5 -30.7 17.9 -30.65 18.15 -30.15 L18.25 -28.2 M-2.5 -5.6 Q-2.5 -3.6 -4.95 -0.7 L-7.75 3.0 -7.65 2.3 -7.15 -0.4 Q-6.7 -1.55 -6.75 -3.25 -6.75 -4.7 -6.2 -6.7 L-5.25 -10.0 -5.0 -10.0 Q-5.0 -9.0 -3.75 -7.7 -2.5 -6.4 -2.5 -5.6 M-2.6 5.1 Q-4.15 9.75 -6.15 13.95 L-6.6 14.55 Q-7.35 15.7 -8.35 18.35 L-8.1 18.95 -7.85 19.6 Q-7.85 21.95 -9.55 24.5 L-12.85 28.85 -14.35 28.85 -14.35 25.6 -13.4 22.8 Q-12.85 21.3 -12.85 20.1 -12.85 18.9 -11.25 17.15 L-9.6 15.1 Q-9.2 12.55 -6.7 9.65 L-2.6 5.1 M-11.5 5.45 L-10.4 2.4 -10.15 2.4 -10.25 6.1 -10.35 9.3 -10.4 9.4 -11.3 11.5 Q-12.35 13.55 -14.4 13.65 -15.2 14.9 -19.4 18.9 -20.35 18.9 -20.55 18.35 -20.75 17.55 -21.4 17.15 -20.8 16.55 -17.5 11.4 -15.45 8.15 -12.9 8.15 -12.6 8.15 -11.5 5.45" fill="#ffffff" fill-rule="evenodd" stroke="none"/>
  </g>
</svg>
