<?xml version="1.0" encoding="UTF-8" standalone="no"?>
<svg xmlns:ffdec="https://www.free-decompiler.com/flash" xmlns:xlink="http://www.w3.org/1999/xlink" ffdec:objectType="shape" height="58.25px" width="39.5px" xmlns="http://www.w3.org/2000/svg">
  <g transform="matrix(1.0, 0.0, 0.0, 1.0, 19.75, 29.25)">
    <path d="M14.4 -28.65 L14.6 -28.75 15.3 -28.5 16.0 -28.25 Q16.5 -28.25 16.95 -28.75 17.4 -29.25 18.35 -29.25 L19.5 -29.0 19.75 -26.0 Q19.75 -22.2 15.45 -17.35 11.15 -12.5 8.0 -12.75 7.85 -10.1 5.85 -8.15 L-0.5 -3.0 -0.25 -3.25 Q7.5 -16.15 7.5 -16.6 L7.35 -17.15 Q7.4 -17.8 8.25 -18.75 8.55 -19.1 10.0 -19.55 11.0 -19.9 11.25 -21.0 11.45 -22.2 13.2 -23.7 14.75 -25.1 14.75 -27.0 L14.4 -28.65 M-6.65 -3.25 Q-7.5 -0.1 -8.65 2.4 -9.8 4.85 -10.75 5.95 L-12.0 7.15 -12.65 7.25 -13.4 7.0 -13.4 4.5 Q-11.6 3.4 -9.75 -0.2 -8.2 -3.25 -6.65 -3.25 M-15.75 21.75 L-13.0 18.7 Q-10.75 16.2 -8.75 15.8 L-8.6 16.0 -8.5 16.15 -8.25 16.6 Q-8.25 18.55 -12.75 22.75 L-19.75 29.0 -19.75 28.75 -18.2 24.75 Q-17.35 22.65 -15.75 21.75" fill="#ffffff" fill-rule="evenodd" stroke="none"/>
  </g>
</svg>
