<?xml version="1.0" encoding="UTF-8" standalone="no"?>
<svg xmlns:ffdec="https://www.free-decompiler.com/flash" xmlns:xlink="http://www.w3.org/1999/xlink" ffdec:objectType="shape" height="271.25px" width="91.85px" xmlns="http://www.w3.org/2000/svg">
  <g transform="matrix(1.0, 0.0, 0.0, 1.0, 47.8, 247.45)">
    <path d="M-19.9 23.3 L-19.65 23.3 Q-16.0 23.7 -7.85 6.6 0.4 -10.75 1.45 -23.65 L12.15 -160.1 -1.2 -161.45 -19.9 23.3" fill="#ffffff" fill-rule="evenodd" stroke="none"/>
    <path d="M-1.2 -161.45 L-14.5 -162.85 -32.15 -27.05 Q-33.6 -15.0 -28.5 4.1 -23.45 22.2 -19.9 23.3 L-1.2 -161.45" fill="#ebebeb" fill-rule="evenodd" stroke="none"/>
    <path d="M-19.9 23.3 L-19.65 23.3 Q-16.0 23.7 -7.85 6.6 0.4 -10.75 1.45 -23.65 L12.15 -160.1 -1.2 -161.45 -14.5 -162.85 -32.15 -27.05 Q-33.6 -15.0 -28.5 4.1 -23.45 22.2 -19.9 23.3 Z" fill="none" stroke="#000000" stroke-linecap="round" stroke-linejoin="round" stroke-opacity="0.3019608" stroke-width="1.0"/>
    <path d="M-1.95 -223.75 Q-11.2 -199.3 -10.35 -174.35 L9.3 -172.35 Q16.6 -196.0 10.65 -222.45 L-1.95 -223.75" fill="#1f1f1f" fill-rule="evenodd" stroke="none"/>
    <path d="M-4.75 -225.05 Q-1.35 -220.3 4.45 -219.7 10.25 -219.15 15.05 -223.05 19.3 -226.5 19.85 -232.3 20.4 -237.6 17.0 -242.35 13.05 -246.7 7.25 -247.25 1.45 -247.85 -2.8 -244.35 -7.6 -240.45 -8.15 -235.15 -8.7 -229.35 -4.75 -225.05" fill="#dfae1a" fill-rule="evenodd" stroke="none"/>
    <path d="M-4.75 -225.05 Q-1.35 -220.3 4.45 -219.7 10.25 -219.15 15.05 -223.05 19.3 -226.5 19.85 -232.3 20.4 -237.6 17.0 -242.35 13.05 -246.7 7.25 -247.25 1.45 -247.85 -2.8 -244.35 -7.6 -240.45 -8.15 -235.15 -8.7 -229.35 -4.75 -225.05 Z" fill="none" stroke="#000000" stroke-linecap="round" stroke-linejoin="round" stroke-opacity="0.3019608" stroke-width="0.2"/>
    <path d="M-1.15 -164.65 L-18.75 8.3" fill="none" stroke="#000000" stroke-linecap="round" stroke-linejoin="round" stroke-opacity="0.2" stroke-width="1.0"/>
    <path d="M-2.8 -148.25 L7.15 -155.3 Q25.35 -152.7 42.75 -147.1 L43.95 -158.5 Q2.75 -185.45 -46.5 -167.7 L-47.7 -156.3 Q-29.5 -158.3 -11.55 -157.2 L-2.8 -148.25" fill="#dfae1a" fill-rule="evenodd" stroke="none"/>
    <path d="M-2.8 -148.25 L7.15 -155.3 Q25.35 -152.7 42.75 -147.1 L43.95 -158.5 Q2.75 -185.45 -46.5 -167.7 L-47.7 -156.3 Q-29.5 -158.3 -11.55 -157.2 L-2.8 -148.25 Z" fill="none" stroke="#000000" stroke-linecap="round" stroke-linejoin="round" stroke-opacity="0.3019608" stroke-width="0.2"/>
    <path d="M9.8 -210.95 L-2.55 -212.2 M9.1 -203.7 L-3.25 -204.95 M8.35 -196.45 L-4.0 -197.7 M6.85 -181.95 L-5.5 -183.2 M7.6 -189.2 L-4.75 -190.45" fill="none" stroke="#5b3f22" stroke-linecap="round" stroke-linejoin="round" stroke-width="0.2"/>
    <path d="M11.75 -232.7 Q11.95 -235.1 10.45 -237.0 8.85 -238.85 6.5 -239.1 4.1 -239.35 2.25 -237.8 0.35 -236.3 0.15 -233.9 -0.1 -231.5 1.4 -229.6 2.95 -227.75 5.35 -227.5 7.7 -227.25 9.6 -228.8 11.5 -230.3 11.75 -232.7" fill="#0099cc" fill-rule="evenodd" stroke="none"/>
    <path d="M11.75 -232.7 Q11.95 -235.1 10.45 -237.0 8.85 -238.85 6.5 -239.1 4.1 -239.35 2.25 -237.8 0.35 -236.3 0.15 -233.9 -0.1 -231.5 1.4 -229.6 2.95 -227.75 5.35 -227.5 7.7 -227.25 9.6 -228.8 11.5 -230.3 11.75 -232.7 Z" fill="none" stroke="#000000" stroke-linecap="round" stroke-linejoin="round" stroke-opacity="0.2" stroke-width="0.2"/>
    <path d="M38.9 -157.3 Q-0.05 -177.8 -42.35 -165.55" fill="none" stroke="#000000" stroke-linecap="round" stroke-linejoin="round" stroke-opacity="0.14901961" stroke-width="2.0"/>
  </g>
</svg>
