<?xml version="1.0" encoding="UTF-8" standalone="no"?>
<svg xmlns:ffdec="https://www.free-decompiler.com/flash" xmlns:xlink="http://www.w3.org/1999/xlink" ffdec:objectType="shape" height="271.1px" width="69.0px" xmlns="http://www.w3.org/2000/svg">
  <g transform="matrix(1.0, 0.0, 0.0, 1.0, 32.1, 244.8)">
    <path d="M-17.0 14.5 L-24.2 12.8 Q-14.7 -88.65 -5.55 -190.05 L7.75 -188.65 -17.0 14.5" fill="#cccccc" fill-rule="evenodd" stroke="none"/>
    <path d="M-17.0 14.5 L-24.2 12.8 Q-14.7 -88.65 -5.55 -190.05 L7.75 -188.65 -17.0 14.5 Z" fill="none" stroke="#000000" stroke-linecap="round" stroke-linejoin="round" stroke-opacity="0.3019608" stroke-width="1.0"/>
    <path d="M4.55 -186.5 L-19.3 15.25" fill="none" stroke="#bababa" stroke-linecap="round" stroke-linejoin="round" stroke-width="1.0"/>
    <path d="M-0.9 -242.25 L-7.5 -180.2 7.0 -178.65 13.6 -240.7 Q8.2 -247.05 -0.9 -242.25" fill="#cccccc" fill-rule="evenodd" stroke="none"/>
    <path d="M-0.9 -242.25 L-7.5 -180.2 7.0 -178.65 13.6 -240.7 Q8.2 -247.05 -0.9 -242.25 Z" fill="none" stroke="#000000" stroke-linecap="round" stroke-linejoin="round" stroke-opacity="0.3019608" stroke-width="1.0"/>
    <path d="M-2.6 -232.55 L-9.85 -180.8 9.95 -178.7 13.3 -230.85 -2.6 -232.55" fill="#d09f42" fill-rule="evenodd" stroke="none"/>
    <path d="M-2.6 -232.55 L-9.85 -180.8 9.95 -178.7 13.3 -230.85 -2.6 -232.55 Z" fill="none" stroke="#000000" stroke-linecap="round" stroke-linejoin="round" stroke-opacity="0.3019608" stroke-width="1.0"/>
    <path d="M26.2 -210.9 Q26.3 -205.15 22.75 -195.6 -4.8 -194.7 -31.6 -201.4 -29.95 -193.15 -24.2 -186.5 -15.4 -175.65 -1.25 -174.15 12.85 -172.65 23.8 -181.4 34.7 -189.85 36.2 -203.75 37.6 -217.05 28.75 -227.95 22.45 -235.65 13.05 -238.2 L12.35 -231.9 Q18.9 -229.6 22.5 -223.15 26.15 -217.0 26.2 -210.9" fill="#cccccc" fill-rule="evenodd" stroke="none"/>
    <path d="M26.2 -210.9 Q26.15 -217.0 22.5 -223.15 18.9 -229.6 12.35 -231.9 L13.05 -238.2 Q22.45 -235.65 28.75 -227.95 37.6 -217.05 36.2 -203.75 34.7 -189.85 23.8 -181.4 12.85 -172.65 -1.25 -174.15 -15.4 -175.65 -24.2 -186.5 -29.95 -193.15 -31.6 -201.4 -4.8 -194.7 22.75 -195.6 26.3 -205.15 26.2 -210.9 Z" fill="none" stroke="#000000" stroke-linecap="round" stroke-linejoin="round" stroke-opacity="0.3019608" stroke-width="1.0"/>
    <path d="M-15.5 23.7 Q-18.15 26.15 -21.55 25.75 -24.95 25.4 -27.05 22.45 -29.15 19.8 -28.8 16.4 -28.45 13.35 -25.85 10.9 -23.2 8.75 -19.8 9.1 -16.4 9.5 -14.3 12.15 -12.15 15.1 -12.55 18.5 -12.85 21.55 -15.5 23.7" fill="#cccccc" fill-rule="evenodd" stroke="none"/>
    <path d="M-15.5 23.7 Q-18.15 26.15 -21.55 25.75 -24.95 25.4 -27.05 22.45 -29.15 19.8 -28.8 16.4 -28.45 13.35 -25.85 10.9 -23.2 8.75 -19.8 9.1 -16.4 9.5 -14.3 12.15 -12.15 15.1 -12.55 18.5 -12.85 21.55 -15.5 23.7 Z" fill="none" stroke="#000000" stroke-linecap="round" stroke-linejoin="round" stroke-opacity="0.3019608" stroke-width="1.0"/>
    <path d="M12.7 -227.15 L-3.15 -228.5" fill="none" stroke="#000000" stroke-linecap="round" stroke-linejoin="round" stroke-opacity="0.14901961" stroke-width="1.0"/>
    <path d="M11.85 -218.85 L-4.0 -220.2" fill="none" stroke="#000000" stroke-linecap="round" stroke-linejoin="round" stroke-opacity="0.14901961" stroke-width="1.0"/>
    <path d="M11.0 -211.35 L-4.85 -212.7" fill="none" stroke="#000000" stroke-linecap="round" stroke-linejoin="round" stroke-opacity="0.14901961" stroke-width="1.0"/>
    <path d="M10.05 -203.05 L-5.8 -204.4" fill="none" stroke="#000000" stroke-linecap="round" stroke-linejoin="round" stroke-opacity="0.14901961" stroke-width="1.0"/>
    <path d="M23.55 -185.0 Q-1.25 -166.05 -23.0 -190.25" fill="none" stroke="#e4e4e4" stroke-linecap="round" stroke-linejoin="round" stroke-width="2.0"/>
    <path d="M-19.7 17.55 Q-18.8 18.55 -18.95 19.85 -19.1 21.1 -20.2 22.05 -21.25 22.85 -22.5 22.7 -23.8 22.6 -24.7 21.55 -25.55 20.4 -25.4 19.15 -25.25 17.85 -24.2 17.05 -23.1 16.2 -21.8 16.3 -20.55 16.45 -19.7 17.55" fill="#e4e4e4" fill-rule="evenodd" stroke="none"/>
  </g>
</svg>
