<?xml version="1.0" encoding="UTF-8" standalone="no"?>
<svg xmlns:ffdec="https://www.free-decompiler.com/flash" xmlns:xlink="http://www.w3.org/1999/xlink" ffdec:objectType="shape" height="276.0px" width="52.35px" xmlns="http://www.w3.org/2000/svg">
  <g transform="matrix(1.0, 0.0, 0.0, 1.0, 27.5, 248.6)">
    <path d="M-10.0 11.05 L8.8 -165.95 -6.45 -167.6 -27.0 25.6 Q-27.15 29.4 -18.75 22.1 -10.35 14.45 -10.0 11.05" fill="#ffffff" fill-rule="evenodd" stroke="none"/>
    <path d="M-10.0 11.05 L8.8 -165.95 -6.45 -167.6 -27.0 25.6 Q-27.15 29.4 -18.75 22.1 -10.35 14.45 -10.0 11.05 Z" fill="none" stroke="#000000" stroke-linecap="round" stroke-linejoin="round" stroke-opacity="0.3019608" stroke-width="1.0"/>
    <path d="M-3.0 -153.95 L-21.7 21.7 -20.0 20.2 Q-12.1 12.75 -11.75 9.45 L5.55 -153.05 -3.0 -153.95" fill="#000000" fill-opacity="0.14901961" fill-rule="evenodd" stroke="none"/>
    <path d="M0.6 -242.4 L-7.0 -171.15 10.1 -169.35 17.7 -240.6 0.6 -242.4" fill="#000000" fill-rule="evenodd" stroke="none"/>
    <path d="M6.9 -221.05 L13.25 -227.35 8.4 -234.9 2.05 -228.6 6.9 -221.05" fill="#82681b" fill-rule="evenodd" stroke="none"/>
    <path d="M5.3 -205.8 L11.65 -212.1 6.8 -219.65 0.45 -213.35 5.3 -205.8" fill="#82681b" fill-rule="evenodd" stroke="none"/>
    <path d="M3.7 -190.55 L10.05 -196.85 5.2 -204.4 -1.15 -198.1 3.7 -190.55" fill="#82681b" fill-rule="evenodd" stroke="none"/>
    <path d="M19.8 -240.9 Q20.05 -243.2 19.1 -244.8 18.15 -246.45 16.5 -246.65 L2.85 -248.1 Q1.2 -248.25 -0.05 -246.85 -1.3 -245.45 -1.55 -243.15 -1.8 -240.9 -0.85 -239.25 0.1 -237.6 1.75 -237.45 L15.4 -236.0 Q17.05 -235.8 18.3 -237.2 19.55 -238.65 19.8 -240.9" fill="#e7b725" fill-rule="evenodd" stroke="none"/>
    <path d="M19.1 -244.8 Q20.05 -243.2 19.8 -240.9 19.55 -238.65 18.3 -237.2 17.05 -235.8 15.4 -236.0 M-0.85 -239.25 Q-1.8 -240.9 -1.55 -243.15 -1.3 -245.45 -0.05 -246.85 1.2 -248.25 2.85 -248.1 L16.5 -246.65 Q18.15 -246.45 19.1 -244.8" fill="none" stroke="#000000" stroke-linecap="round" stroke-linejoin="round" stroke-opacity="0.3019608" stroke-width="1.0"/>
    <path d="M15.4 -236.0 L1.75 -237.45 Q0.1 -237.6 -0.85 -239.25" fill="none" stroke="#000000" stroke-linecap="round" stroke-linejoin="round" stroke-opacity="0.3019608" stroke-width="1.0"/>
    <path d="M-17.9 -174.8 Q-19.45 -174.95 -20.7 -173.2 -22.0 -171.35 -22.3 -168.5 -22.6 -165.65 -21.7 -163.6 -20.85 -161.55 -19.3 -161.4 L19.85 -157.25 Q21.4 -157.1 22.7 -158.85 23.95 -160.7 24.25 -163.55 24.55 -166.4 23.7 -168.45 22.8 -170.5 21.25 -170.65 L-17.9 -174.8" fill="#e7b725" fill-rule="evenodd" stroke="none"/>
    <path d="M-20.7 -173.2 Q-19.45 -174.95 -17.9 -174.8 L21.25 -170.65 Q22.8 -170.5 23.7 -168.45 24.55 -166.4 24.25 -163.55 23.95 -160.7 22.7 -158.85 21.4 -157.1 19.85 -157.25 M-21.7 -163.6 Q-22.6 -165.65 -22.3 -168.5 -22.0 -171.35 -20.7 -173.2" fill="none" stroke="#000000" stroke-linecap="round" stroke-linejoin="round" stroke-opacity="0.3019608" stroke-width="1.0"/>
    <path d="M19.85 -157.25 L-19.3 -161.4 Q-20.85 -161.55 -21.7 -163.6" fill="none" stroke="#000000" stroke-linecap="round" stroke-linejoin="round" stroke-opacity="0.3019608" stroke-width="1.0"/>
    <path d="M2.1 -175.45 L8.45 -181.75 3.6 -189.3 -2.75 -183.0 2.1 -175.45" fill="#82681b" fill-rule="evenodd" stroke="none"/>
    <path d="M21.5 -167.0 L-18.95 -171.3" fill="none" stroke="#ffffff" stroke-linecap="round" stroke-linejoin="round" stroke-opacity="0.3019608" stroke-width="2.0"/>
    <path d="M15.8 -243.1 L3.0 -244.45" fill="none" stroke="#ffffff" stroke-linecap="round" stroke-linejoin="round" stroke-opacity="0.3019608" stroke-width="2.0"/>
  </g>
</svg>
