<?xml version="1.0" encoding="UTF-8" standalone="no"?>
<svg xmlns:ffdec="https://www.free-decompiler.com/flash" xmlns:xlink="http://www.w3.org/1999/xlink" ffdec:objectType="shape" height="259.75px" width="101.25px" xmlns="http://www.w3.org/2000/svg">
  <g transform="matrix(1.0, 0.0, 0.0, 1.0, 56.05, 241.65)">
    <path d="M-46.75 17.3 L-56.05 17.65 Q-55.45 17.6 -55.25 17.25 -50.9 17.6 -46.75 17.3 -50.9 17.6 -55.25 17.25 -16.0 -67.35 -10.15 -165.9 L2.95 -168.8 Q9.1 -65.4 -14.4 -20.1 -29.2 8.35 -46.75 17.3" fill="#ffffff" fill-rule="evenodd" stroke="none"/>
    <path d="M2.95 -168.8 L12.1 -170.75 Q22.05 -64.95 -1.95 -18.8 -19.45 15.05 -46.75 17.3 -29.2 8.35 -14.4 -20.1 9.1 -65.4 2.95 -168.8" fill="#ebebeb" fill-rule="evenodd" stroke="none"/>
    <path d="M-46.75 17.3 Q-50.9 17.6 -55.25 17.25 -16.0 -67.35 -10.15 -165.9 L2.95 -168.8 12.1 -170.75 Q22.05 -64.95 -1.95 -18.8 -19.45 15.05 -46.75 17.3 Z" fill="none" stroke="#000000" stroke-linecap="round" stroke-linejoin="round" stroke-opacity="0.3019608" stroke-width="1.0"/>
    <path d="M0.7 -238.7 L-7.1 -165.4 10.0 -163.6 17.8 -236.9 Q11.4 -244.4 0.7 -238.7" fill="#ffc226" fill-rule="evenodd" stroke="none"/>
    <path d="M0.7 -238.7 L-7.1 -165.4 10.0 -163.6 17.8 -236.9 Q11.4 -244.4 0.7 -238.7 Z" fill="none" stroke="#000000" stroke-linecap="round" stroke-linejoin="round" stroke-opacity="0.3019608" stroke-width="1.0"/>
    <path d="M-1.3 -227.2 Q-5.8 -196.7 -9.9 -166.05 L13.45 -163.6 17.45 -225.2 -1.3 -227.2" fill="#7d5c20" fill-rule="evenodd" stroke="none"/>
    <path d="M-1.3 -227.2 Q-5.8 -196.7 -9.9 -166.05 L13.45 -163.6 17.45 -225.2 -1.3 -227.2 Z" fill="none" stroke="#000000" stroke-linecap="round" stroke-linejoin="round" stroke-opacity="0.3019608" stroke-width="1.0"/>
    <path d="M32.7 -201.65 Q32.85 -194.85 28.65 -183.55 -3.95 -182.5 -35.6 -190.4 -33.7 -180.75 -26.9 -172.8 -16.5 -160.0 0.2 -158.2 16.9 -156.45 29.85 -166.75 42.7 -176.75 44.45 -193.2 46.1 -208.9 35.7 -221.75 28.2 -230.9 17.1 -233.95 L16.3 -226.5 Q24.05 -223.75 28.3 -216.1 32.6 -208.85 32.7 -201.65" fill="#ffc226" fill-rule="evenodd" stroke="none"/>
    <path d="M32.7 -201.65 Q32.6 -208.85 28.3 -216.1 24.05 -223.75 16.3 -226.5 L17.1 -233.95 Q28.2 -230.9 35.7 -221.75 46.1 -208.9 44.45 -193.2 42.7 -176.75 29.85 -166.75 16.9 -156.45 0.2 -158.2 -16.5 -160.0 -26.9 -172.8 -33.7 -180.75 -35.6 -190.4 -3.95 -182.5 28.65 -183.55 32.85 -194.85 32.7 -201.65 Z" fill="none" stroke="#000000" stroke-linecap="round" stroke-linejoin="round" stroke-opacity="0.3019608" stroke-width="1.0"/>
    <path d="M16.75 -220.9 L-2.0 -222.45" fill="none" stroke="#000000" stroke-linecap="round" stroke-linejoin="round" stroke-opacity="0.14901961" stroke-width="1.0"/>
    <path d="M15.65 -211.0 L-3.1 -212.55" fill="none" stroke="#000000" stroke-linecap="round" stroke-linejoin="round" stroke-opacity="0.14901961" stroke-width="1.0"/>
    <path d="M14.75 -202.15 L-4.0 -203.7" fill="none" stroke="#000000" stroke-linecap="round" stroke-linejoin="round" stroke-opacity="0.14901961" stroke-width="1.0"/>
    <path d="M13.65 -192.3 L-5.1 -193.85" fill="none" stroke="#000000" stroke-linecap="round" stroke-linejoin="round" stroke-opacity="0.14901961" stroke-width="1.0"/>
    <path d="M29.55 -171.0 Q0.2 -148.6 -25.5 -177.2" fill="none" stroke="#ffffff" stroke-linecap="round" stroke-linejoin="round" stroke-opacity="0.49803922" stroke-width="2.0"/>
  </g>
</svg>
