<?xml version="1.0" encoding="UTF-8" standalone="no"?>
<svg xmlns:ffdec="https://www.free-decompiler.com/flash" xmlns:xlink="http://www.w3.org/1999/xlink" ffdec:objectType="shape" height="87.85px" width="51.1px" xmlns="http://www.w3.org/2000/svg">
  <g transform="matrix(1.0, 0.0, 0.0, 1.0, 26.8, 243.5)">
    <path d="M7.9 -159.35 L16.1 -236.5 -2.1 -238.45 -10.3 -161.3 7.9 -159.35" fill="#333333" fill-rule="evenodd" stroke="none"/>
    <path d="M7.9 -159.35 L16.1 -236.5 -2.1 -238.45 -10.3 -161.3 7.9 -159.35 Z" fill="none" stroke="#000000" stroke-linecap="square" stroke-linejoin="round" stroke-opacity="0.3019608" stroke-width="1.0"/>
    <path d="M17.65 -169.0 Q10.9 -175.55 0.55 -176.65 -9.75 -177.75 -17.7 -172.75 -24.75 -168.4 -26.15 -161.6 L23.65 -156.3 Q23.6 -163.25 17.65 -169.0" fill="#666666" fill-rule="evenodd" stroke="none"/>
    <path d="M17.65 -169.0 Q10.9 -175.55 0.55 -176.65 -9.75 -177.75 -17.7 -172.75 -24.75 -168.4 -26.15 -161.6 L23.65 -156.3 Q23.6 -163.25 17.65 -169.0 Z" fill="none" stroke="#000000" stroke-linecap="square" stroke-linejoin="round" stroke-opacity="0.3019608" stroke-width="1.0"/>
    <path d="M19.8 -238.35 Q17.65 -241.0 14.25 -241.35 L0.65 -242.8 Q-2.75 -243.15 -5.4 -241.0 -8.0 -238.85 -8.35 -235.45 -8.7 -232.05 -6.6 -229.4 -4.45 -226.8 -1.05 -226.45 L12.55 -225.0 Q15.95 -224.65 18.6 -226.75 21.25 -228.85 21.6 -232.25 21.95 -235.65 19.8 -238.35" fill="#666666" fill-rule="evenodd" stroke="none"/>
    <path d="M19.8 -238.35 Q21.95 -235.65 21.6 -232.25 21.25 -228.85 18.6 -226.75 15.95 -224.65 12.55 -225.0 L-1.05 -226.45 Q-4.45 -226.8 -6.6 -229.4 -8.7 -232.05 -8.35 -235.45 -8.0 -238.85 -5.4 -241.0 -2.75 -243.15 0.65 -242.8 L14.25 -241.35 Q17.65 -241.0 19.8 -238.35 Z" fill="none" stroke="#000000" stroke-linecap="square" stroke-linejoin="round" stroke-opacity="0.3019608" stroke-width="1.0"/>
    <path d="M20.0 -159.1 L-21.15 -163.45" fill="none" stroke="#fdfa14" stroke-linecap="square" stroke-linejoin="round" stroke-opacity="0.3019608" stroke-width="2.0"/>
    <path d="M7.9 -182.85 L-5.1 -184.25 M9.1 -194.15 L-3.9 -195.55 M10.3 -205.4 L-2.7 -206.8 M11.5 -216.7 L-1.5 -218.1" fill="none" stroke="#525252" stroke-linecap="square" stroke-linejoin="round" stroke-width="2.0"/>
  </g>
</svg>
