<?xml version="1.0" encoding="UTF-8" standalone="no"?>
<svg xmlns:ffdec="https://www.free-decompiler.com/flash" xmlns:xlink="http://www.w3.org/1999/xlink" ffdec:objectType="shape" height="277.35px" width="82.6px" xmlns="http://www.w3.org/2000/svg">
  <g transform="matrix(1.0, 0.0, 0.0, 1.0, 36.5, 250.7)">
    <path d="M-20.45 25.8 L-6.0 -9.95 14.55 -196.85 4.9 -198.85 -20.45 25.8" fill="#fde69f" fill-rule="evenodd" stroke="none"/>
    <path d="M4.9 -198.85 L4.25 -198.95 4.3 -199.05 4.1 -198.95 3.9 -199.15 3.85 -199.05 -6.7 -199.15 -27.3 -12.25 -20.6 26.15 -20.45 25.8 4.9 -198.85" fill="#fcd970" fill-rule="evenodd" stroke="none"/>
    <path d="M14.55 -196.85 L-6.0 -9.95 -20.6 26.15 -27.3 -12.25 -6.7 -199.15 3.85 -199.05 3.9 -199.15 4.1 -198.95 4.3 -199.05 4.25 -198.95 14.55 -196.85 Z" fill="none" stroke="#000000" stroke-linecap="round" stroke-linejoin="round" stroke-opacity="0.3019608" stroke-width="1.0"/>
    <path d="M23.1 -232.7 L21.05 -240.25 Q17.85 -247.95 12.0 -249.35 L5.0 -250.2 Q-1.0 -250.45 -5.45 -243.6 -7.75 -240.3 -8.8 -236.8 -4.05 -230.85 -5.75 -211.95 L-8.3 -194.3 3.15 -190.25 15.1 -191.25 15.75 -209.2 Q17.45 -228.1 23.1 -232.7" fill="#0c2400" fill-rule="evenodd" stroke="none"/>
    <path d="M23.1 -232.7 Q17.45 -228.1 15.75 -209.2 L15.1 -191.25 3.15 -190.25 -8.3 -194.3 -5.75 -211.95 Q-4.05 -230.85 -8.8 -236.8 -7.75 -240.3 -5.45 -243.6 -1.0 -250.45 5.0 -250.2 L12.0 -249.35 Q17.85 -247.95 21.05 -240.25 L23.1 -232.7 Z" fill="none" stroke="#174700" stroke-linecap="round" stroke-linejoin="round" stroke-width="1.0"/>
    <path d="M4.65 -243.65 Q1.15 -243.6 -2.05 -237.15 1.75 -228.5 0.2 -210.7 -0.3 -205.1 -1.35 -198.7 L3.75 -196.85 9.0 -197.35 Q9.15 -203.85 9.65 -209.5 11.25 -227.2 16.55 -234.8 14.55 -241.8 11.15 -242.8 L4.65 -243.65" fill="#0c2400" fill-rule="evenodd" stroke="none"/>
    <path d="M4.65 -243.65 Q1.15 -243.6 -2.05 -237.15 1.75 -228.5 0.2 -210.7 -0.3 -205.1 -1.35 -198.7 L3.75 -196.85 9.0 -197.35 Q9.15 -203.85 9.65 -209.5 11.25 -227.2 16.55 -234.8 14.55 -241.8 11.15 -242.8 L4.65 -243.65 Z" fill="none" stroke="#339900" stroke-linecap="round" stroke-linejoin="round" stroke-opacity="0.3019608" stroke-width="1.0"/>
    <path d="M41.15 -187.6 Q45.0 -190.65 45.5 -195.55 46.1 -200.55 42.95 -204.35 39.95 -208.45 35.05 -208.5 29.85 -208.5 26.85 -204.45 23.2 -199.7 21.65 -199.15 20.0 -198.3 14.6 -197.8 9.0 -197.15 5.3 -197.6 2.15 -197.8 -4.2 -199.85 -10.5 -201.7 -11.8 -202.75 -13.15 -203.6 -15.75 -209.1 -17.95 -213.7 -23.0 -214.8 -27.65 -215.8 -31.6 -212.5 -35.35 -209.4 -35.95 -204.4 -36.45 -199.55 -33.45 -195.75 -30.3 -192.0 -25.55 -191.55 -21.1 -191.15 -18.65 -193.1 L-14.85 -196.0 Q-13.7 -196.9 -10.75 -195.65 L-6.75 -193.6 Q0.2 -189.35 4.55 -188.85 7.15 -188.6 10.1 -189.5 L14.7 -191.15 Q17.55 -192.25 19.0 -192.45 22.05 -192.95 23.1 -191.85 L26.15 -188.2 Q28.15 -185.8 32.55 -185.2 37.35 -184.55 41.15 -187.6" fill="#0d2800" fill-rule="evenodd" stroke="none"/>
    <path d="M41.15 -187.6 Q37.35 -184.55 32.55 -185.2 28.15 -185.8 26.15 -188.2 L23.1 -191.85 Q22.05 -192.95 19.0 -192.45 17.55 -192.25 14.7 -191.15 L10.1 -189.5 Q7.15 -188.6 4.55 -188.85 0.2 -189.35 -6.75 -193.6 L-10.75 -195.65 Q-13.7 -196.9 -14.85 -196.0 L-18.65 -193.1 Q-21.1 -191.15 -25.55 -191.55 -30.3 -192.0 -33.45 -195.75 -36.45 -199.55 -35.95 -204.4 -35.35 -209.4 -31.6 -212.5 -27.65 -215.8 -23.0 -214.8 -17.95 -213.7 -15.75 -209.1 -13.15 -203.6 -11.8 -202.75 -10.5 -201.7 -4.2 -199.85 2.15 -197.8 5.3 -197.6 9.0 -197.15 14.6 -197.8 20.0 -198.3 21.65 -199.15 23.2 -199.7 26.85 -204.45 29.85 -208.5 35.05 -208.5 39.95 -208.45 42.95 -204.35 46.1 -200.55 45.5 -195.55 45.0 -190.65 41.15 -187.6 Z" fill="none" stroke="#174700" stroke-linecap="round" stroke-linejoin="round" stroke-width="1.0"/>
    <path d="M36.1 -208.55 Q39.6 -206.65 40.8 -201.5 42.05 -196.35 38.9 -193.95 35.75 -191.65 33.25 -191.65 30.8 -191.7 29.45 -193.25 27.9 -195.0 27.75 -198.1 27.65 -201.7 29.95 -202.6 30.75 -203.05 31.7 -203.15 33.6 -203.2 34.25 -200.85" fill="none" stroke="#339900" stroke-linecap="round" stroke-linejoin="round" stroke-opacity="0.3019608" stroke-width="1.0"/>
    <path d="M-23.9 -214.7 Q-28.8 -215.05 -30.55 -211.8 -34.2 -205.4 -30.9 -201.7 -28.4 -199.05 -25.55 -198.35 -22.9 -197.75 -21.0 -198.95 -18.85 -200.3 -17.8 -203.4 -16.7 -206.9 -19.05 -208.45 -19.8 -209.1 -20.9 -209.45 -23.0 -210.0 -24.3 -207.85" fill="none" stroke="#339900" stroke-linecap="round" stroke-linejoin="round" stroke-opacity="0.3019608" stroke-width="1.0"/>
  </g>
</svg>
