<?xml version="1.0" encoding="UTF-8" standalone="no"?>
<svg xmlns:ffdec="https://www.free-decompiler.com/flash" xmlns:xlink="http://www.w3.org/1999/xlink" ffdec:objectType="shape" height="274.5px" width="63.95px" xmlns="http://www.w3.org/2000/svg">
  <g transform="matrix(1.0, 0.0, 0.0, 1.0, 28.15, 249.1)">
    <path d="M15.5 -230.75 L15.0 -238.9 Q13.9 -247.25 10.95 -248.2 L7.3 -248.6 Q4.15 -248.35 1.25 -240.4 L-1.05 -232.6 Q0.95 -226.45 -1.35 -205.3 L-4.1 -185.45 1.7 -182.1 8.05 -184.05 9.8 -204.1 Q12.15 -225.2 15.5 -230.75" fill="#5f1b2e" fill-rule="evenodd" stroke="none"/>
    <path d="M15.5 -230.75 Q12.15 -225.2 9.8 -204.1 L8.05 -184.05 1.7 -182.1 -4.1 -185.45 -1.35 -205.3 Q0.95 -226.45 -1.05 -232.6 L1.25 -240.4 Q4.15 -248.35 7.3 -248.6 L10.95 -248.2 Q13.9 -247.25 15.0 -238.9 L15.5 -230.75 Z" fill="none" stroke="#373535" stroke-linecap="butt" stroke-linejoin="miter-clip" stroke-miterlimit="4.0" stroke-opacity="0.3019608" stroke-width="1.0"/>
    <path d="M9.9 -240.9 L6.65 -241.3 Q4.6 -240.9 2.55 -233.55 3.9 -224.35 1.7 -204.5 L-0.05 -191.0 2.55 -189.5 5.4 -190.4 Q5.95 -197.65 6.65 -203.95 8.85 -223.8 12.2 -232.45 11.85 -240.1 9.9 -240.9" fill="#a02e4e" fill-rule="evenodd" stroke="none"/>
    <path d="M-21.15 24.45 L-17.3 16.55 Q-13.0 5.3 -11.15 -11.25 L9.35 -194.45 3.45 -196.2 -21.15 24.45" fill="#faedf5" fill-rule="evenodd" stroke="none"/>
    <path d="M3.45 -196.2 L3.2 -196.25 -2.95 -195.8 -23.4 -12.6 Q-25.5 5.7 -23.55 16.95 -22.95 20.55 -22.0 22.9 L-21.2 24.6 -21.15 24.45 3.45 -196.2" fill="#f3d6eb" fill-rule="evenodd" stroke="none"/>
    <path d="M-21.15 24.45 L-17.3 16.55 Q-13.0 5.3 -11.15 -11.25 L9.35 -194.45 3.45 -196.2 3.2 -196.25 -2.95 -195.8 -23.4 -12.6 Q-25.5 5.7 -23.55 16.95 -22.95 20.55 -22.0 22.9 L-21.2 24.6 -21.15 24.45 Z" fill="none" stroke="#000000" stroke-linecap="butt" stroke-linejoin="miter-clip" stroke-miterlimit="4.0" stroke-opacity="0.3019608" stroke-width="1.0"/>
    <path d="M2.35 -187.1 L-1.85 -180.5 0.15 -168.45 4.05 -180.65 2.35 -187.1" fill="#a22431" fill-rule="evenodd" stroke="none"/>
    <path d="M2.35 -187.1 L4.05 -180.65 0.15 -168.45 -1.85 -180.5 2.35 -187.1 Z" fill="none" stroke="#373535" stroke-linecap="butt" stroke-linejoin="miter-clip" stroke-miterlimit="4.0" stroke-opacity="0.29803923" stroke-width="1.0"/>
    <path d="M22.85 -198.3 Q25.55 -197.4 26.95 -198.3 L25.55 -200.6 Q24.4 -203.15 26.3 -203.5 29.15 -204.1 30.85 -201.05 32.7 -197.85 29.35 -194.35 27.1 -192.05 15.4 -195.7 9.5 -197.5 4.05 -199.8 L3.4 -199.85 -8.55 -198.4 Q-20.75 -197.4 -22.4 -200.15 -24.95 -204.3 -22.4 -207.0 -20.1 -209.6 -17.45 -208.4 -15.7 -207.65 -17.25 -205.4 L-19.25 -203.45 Q-18.55 -202.65 -16.9 -202.55 L-15.2 -202.55 Q-11.3 -203.55 -11.75 -207.0 -11.95 -209.95 -13.95 -211.2 -17.15 -213.25 -21.35 -212.15 -26.0 -210.9 -27.2 -206.2 -29.7 -196.2 -15.05 -192.1 -7.0 -189.9 2.6 -189.95 12.1 -187.75 20.4 -188.15 35.5 -188.9 35.3 -199.2 35.25 -204.05 30.95 -206.3 27.1 -208.3 23.5 -207.0 21.3 -206.25 20.4 -203.4 19.35 -200.1 22.85 -198.3" fill="#5f1b2e" fill-rule="evenodd" stroke="none"/>
    <path d="M22.85 -198.3 Q19.35 -200.1 20.4 -203.4 21.3 -206.25 23.5 -207.0 27.1 -208.3 30.95 -206.3 35.25 -204.05 35.3 -199.2 35.5 -188.9 20.4 -188.15 12.1 -187.75 2.6 -189.95 -7.0 -189.9 -15.05 -192.1 -29.7 -196.2 -27.2 -206.2 -26.0 -210.9 -21.35 -212.15 -17.15 -213.25 -13.95 -211.2 -11.95 -209.95 -11.75 -207.0 -11.3 -203.55 -15.2 -202.55 L-16.9 -202.55 Q-18.55 -202.65 -19.25 -203.45 L-17.25 -205.4 Q-15.7 -207.65 -17.45 -208.4 -20.1 -209.6 -22.4 -207.0 -24.95 -204.3 -22.4 -200.15 -20.75 -197.4 -8.55 -198.4 L3.4 -199.85 4.05 -199.8 Q9.5 -197.5 15.4 -195.7 27.1 -192.05 29.35 -194.35 32.7 -197.85 30.85 -201.05 29.15 -204.1 26.3 -203.5 24.4 -203.15 25.55 -200.6 L26.95 -198.3 Q25.55 -197.4 22.85 -198.3 Z" fill="none" stroke="#373535" stroke-linecap="butt" stroke-linejoin="miter-clip" stroke-miterlimit="4.0" stroke-opacity="0.3019608" stroke-width="1.0"/>
  </g>
</svg>
