<?xml version="1.0" encoding="UTF-8" standalone="no"?>
<svg xmlns:ffdec="https://www.free-decompiler.com/flash" xmlns:xlink="http://www.w3.org/1999/xlink" ffdec:objectType="shape" height="269.9px" width="87.5px" xmlns="http://www.w3.org/2000/svg">
  <g transform="matrix(1.0, 0.0, 0.0, 1.0, 52.8, 248.7)">
    <path d="M-3.5 -227.15 L-0.9 -238.15 Q3.15 -248.9 10.6 -248.15 17.95 -247.45 20.25 -236.05 L21.05 -224.75 Q11.55 -224.0 11.4 -201.15 11.4 -193.9 12.3 -185.4 L13.2 -178.3 3.9 -176.55 -4.85 -180.05 -2.8 -186.6 Q-0.45 -194.5 0.8 -201.45 4.75 -223.55 -3.5 -227.15" fill="#4f3584" fill-rule="evenodd" stroke="none"/>
    <path d="M-3.5 -227.15 Q4.75 -223.55 0.8 -201.45 -0.45 -194.5 -2.8 -186.6 L-4.85 -180.05 3.9 -176.55 13.2 -178.3 12.3 -185.4 Q11.4 -193.9 11.4 -201.15 11.55 -224.0 21.05 -224.75 L20.25 -236.05 Q17.95 -247.45 10.6 -248.15 3.15 -248.9 -0.9 -238.15 L-3.5 -227.15 Z" fill="none" stroke="#000000" stroke-linecap="butt" stroke-linejoin="miter-clip" stroke-miterlimit="4.0" stroke-opacity="0.29803923" stroke-width="1.0"/>
    <path d="M5.15 -188.95 L3.05 -189.8 Q5.35 -198.35 6.65 -206.1 6.55 -198.6 7.4 -189.35 L5.15 -188.95" fill="#a300f0" fill-rule="evenodd" stroke="none"/>
    <path d="M15.7 -230.8 Q9.65 -226.4 7.45 -214.25 7.55 -226.05 2.75 -231.8 5.2 -240.45 9.95 -240.0 14.65 -239.55 15.7 -230.8" fill="#a300f0" fill-rule="evenodd" stroke="none"/>
    <path d="M6.7 -178.3 L6.7 -178.25 12.35 -176.55 Q2.25 -88.35 -2.4 -54.9 -9.65 -2.85 -31.25 14.1 -37.95 19.45 -45.35 20.7 L-51.4 20.7 -47.3 17.45 Q-42.25 12.8 -37.6 5.95 -22.8 -15.85 -17.85 -51.65 -14.45 -75.95 -4.45 -179.15 L6.7 -178.3" fill="#101014" fill-rule="evenodd" stroke="none"/>
    <path d="M6.7 -178.3 L-4.45 -179.15 Q-14.45 -75.95 -17.85 -51.65 -22.8 -15.85 -37.6 5.95 -42.25 12.8 -47.3 17.45 L-51.4 20.7 -45.35 20.7 Q-37.95 19.45 -31.25 14.1 -9.65 -2.85 -2.4 -54.9 2.25 -88.35 12.35 -176.55 L6.7 -178.25 6.7 -178.3 Z" fill="none" stroke="#3d3e4b" stroke-linecap="butt" stroke-linejoin="miter-clip" stroke-miterlimit="4.0" stroke-width="1.0"/>
    <path d="M6.4 -177.45 L-2.8 -92.1 Q-7.15 -52.15 -14.5 -26.7 -16.8 -18.85 -19.15 -13.25 L-21.05 -9.35" fill="none" stroke="#ffffff" stroke-linecap="butt" stroke-linejoin="miter-clip" stroke-miterlimit="4.0" stroke-opacity="0.29803923" stroke-width="1.0"/>
    <path d="M-12.15 -197.05 Q-14.15 -193.0 -11.3 -189.7 L-6.2 -186.7 Q0.4 -183.95 7.4 -184.9 L16.85 -186.45 Q26.4 -189.4 26.85 -196.55 L25.95 -200.3 Q24.1 -204.0 20.0 -203.7 L22.45 -204.0 27.8 -203.6 Q35.2 -201.2 34.0 -190.2 33.55 -186.1 30.25 -182.15 23.6 -174.25 9.4 -174.65 3.4 -175.1 -3.15 -176.9 -16.4 -180.3 -20.15 -186.4 L-20.8 -188.0 Q-21.5 -189.8 -21.15 -191.65 -20.05 -197.55 -9.6 -200.45 -11.15 -199.1 -12.15 -197.05" fill="#4f3584" fill-rule="evenodd" stroke="none"/>
    <path d="M-12.15 -197.05 Q-14.15 -193.0 -11.3 -189.7 L-6.2 -186.7 Q0.4 -183.95 7.4 -184.9 L16.85 -186.45 Q26.4 -189.4 26.85 -196.55 L25.95 -200.3 Q24.1 -204.0 20.0 -203.7 L22.45 -204.0 27.8 -203.6 Q35.2 -201.2 34.0 -190.2 33.55 -186.1 30.25 -182.15 23.6 -174.25 9.4 -174.65 3.4 -175.1 -3.15 -176.9 -16.4 -180.3 -20.15 -186.4 L-20.8 -188.0 Q-21.5 -189.8 -21.15 -191.65 -20.05 -197.55 -9.6 -200.45 -11.15 -199.1 -12.15 -197.05 Z" fill="none" stroke="#000000" stroke-linecap="butt" stroke-linejoin="miter-clip" stroke-miterlimit="4.0" stroke-opacity="0.29803923" stroke-width="1.0"/>
  </g>
</svg>
