<?xml version="1.0" encoding="UTF-8" standalone="no"?>
<svg xmlns:ffdec="https://www.free-decompiler.com/flash" xmlns:xlink="http://www.w3.org/1999/xlink" ffdec:objectType="shape" height="80.95px" width="282.65px" xmlns="http://www.w3.org/2000/svg">
  <g transform="matrix(1.0, 0.0, 0.0, 1.0, 141.55, 40.45)">
    <path d="M114.35 -37.3 L125.9 -39.25 Q137.75 -39.7 140.05 -32.3 142.3 -25.0 132.4 -18.25 L121.95 -12.95 Q117.4 -21.7 95.6 -12.65 88.7 -9.8 81.0 -5.5 L74.65 -1.75 69.15 -9.95 69.05 -19.65 76.1 -20.35 Q84.5 -21.25 91.7 -22.9 114.25 -28.0 114.35 -37.3" fill="#400055" fill-rule="evenodd" stroke="none"/>
    <path d="M114.35 -37.3 Q114.25 -28.0 91.7 -22.9 84.5 -21.25 76.1 -20.35 L69.05 -19.65 69.15 -9.95 74.65 -1.75 81.0 -5.5 Q88.7 -9.8 95.6 -12.65 117.4 -21.7 121.95 -12.95 L132.4 -18.25 Q142.3 -25.0 140.05 -32.3 137.75 -39.7 125.9 -39.25 L114.35 -37.3 Z" fill="none" stroke="#000000" stroke-linecap="butt" stroke-linejoin="miter-clip" stroke-miterlimit="4.0" stroke-opacity="0.29803923" stroke-width="1.0"/>
    <path d="M81.45 -13.65 L81.4 -16.05 Q90.5 -17.3 98.4 -19.2 91.2 -16.2 82.75 -11.75 L81.45 -13.65" fill="#b30086" fill-rule="evenodd" stroke="none"/>
    <path d="M125.55 -20.45 Q118.95 -24.45 106.5 -21.75 117.75 -26.35 121.3 -33.2 130.55 -34.35 132.0 -29.7 133.45 -25.0 125.55 -20.45" fill="#b30086" fill-rule="evenodd" stroke="none"/>
    <path d="M72.2 -7.9 L72.15 -7.9 72.75 -1.85 Q-15.25 23.95 -48.9 32.95 -101.4 46.95 -126.2 33.15 -133.95 28.95 -138.1 22.4 L-140.55 16.65 -135.8 19.25 Q-129.35 22.2 -121.0 23.85 -94.25 29.2 -58.25 19.55 -33.75 13.05 68.5 -18.9 L72.2 -7.9" fill="#ffe6f9" fill-rule="evenodd" stroke="none"/>
    <path d="M72.2 -7.9 L68.5 -18.9 Q-33.75 13.05 -58.25 19.55 -94.25 29.2 -121.0 23.85 -129.35 22.2 -135.8 19.25 L-140.55 16.65 -138.1 22.4 Q-133.95 28.95 -126.2 33.15 -101.4 46.95 -48.9 32.95 -15.25 23.95 72.75 -1.85 L72.15 -7.9 72.2 -7.9 Z" fill="none" stroke="#000000" stroke-linecap="butt" stroke-linejoin="miter-clip" stroke-miterlimit="4.0" stroke-opacity="0.3019608" stroke-width="1.0"/>
    <path d="M71.05 -7.9 L-13.85 17.6 Q-53.65 29.55 -80.8 32.75 L-95.5 33.7 -100.0 33.5" fill="none" stroke="#000000" stroke-linecap="butt" stroke-linejoin="miter-clip" stroke-miterlimit="4.0" stroke-opacity="0.14901961" stroke-width="1.0"/>
    <path d="M82.25 -33.4 Q77.6 -33.7 75.6 -29.65 L74.8 -23.55 Q74.85 -16.2 78.6 -9.95 L83.85 -1.55 Q90.45 6.35 97.45 3.9 L100.65 1.5 Q103.45 -1.7 101.5 -5.45 L102.8 -3.25 Q104.2 -0.55 104.5 2.0 105.25 10.0 94.25 13.25 L85.15 12.95 Q74.95 9.75 69.6 -3.9 67.65 -9.75 66.7 -16.7 64.65 -30.75 68.95 -36.75 L70.15 -38.0 Q71.65 -39.4 73.55 -39.8 79.55 -41.1 86.5 -32.35 84.6 -33.25 82.25 -33.4" fill="#400055" fill-rule="evenodd" stroke="none"/>
    <path d="M82.25 -33.4 Q77.6 -33.7 75.6 -29.65 L74.8 -23.55 Q74.85 -16.2 78.6 -9.95 L83.85 -1.55 Q90.45 6.35 97.45 3.9 L100.65 1.5 Q103.45 -1.7 101.5 -5.45 L102.8 -3.25 Q104.2 -0.55 104.5 2.0 105.25 10.0 94.25 13.25 L85.15 12.95 Q74.95 9.75 69.6 -3.9 67.65 -9.75 66.7 -16.7 64.65 -30.75 68.95 -36.75 L70.15 -38.0 Q71.65 -39.4 73.55 -39.8 79.55 -41.1 86.5 -32.35 84.6 -33.25 82.25 -33.4 Z" fill="none" stroke="#000000" stroke-linecap="butt" stroke-linejoin="miter-clip" stroke-miterlimit="4.0" stroke-opacity="0.29803923" stroke-width="1.0"/>
  </g>
</svg>
