<?xml version="1.0" encoding="UTF-8" standalone="no"?>
<svg xmlns:ffdec="https://www.free-decompiler.com/flash" xmlns:xlink="http://www.w3.org/1999/xlink" ffdec:objectType="shape" height="269.1px" width="88.05px" xmlns="http://www.w3.org/2000/svg">
  <g transform="matrix(1.0, 0.0, 0.0, 1.0, 48.5, 246.5)">
    <path d="M1.85 -178.05 L-6.1 -179.5 Q-13.65 -106.6 -24.65 -41.25 -32.8 8.8 -47.65 21.8 L-48.0 22.1" fill="none" stroke="#000000" stroke-linecap="round" stroke-linejoin="round" stroke-opacity="0.3019608" stroke-width="1.0"/>
    <path d="M1.85 -178.05 L9.7 -176.6 Q10.6 -156.8 8.45 -120.1 6.35 -83.8 2.05 -47.05 L-5.75 -42.5 0.35 -36.7 Q-4.65 -34.15 -9.7 -31.7 L-2.55 -24.6 Q-7.35 -6.55 -17.5 3.6 -31.9 18.3 -47.5 21.95 -39.05 16.15 -31.3 7.1 -17.1 -9.45 -11.8 -45.5 -6.6 -81.25 -2.9 -121.25 -0.4 -148.85 1.85 -178.05" fill="#d5d5d5" fill-rule="evenodd" stroke="none"/>
    <path d="M1.85 -178.05 Q-0.4 -148.85 -2.9 -121.25 -6.6 -81.25 -11.8 -45.5 -17.1 -9.45 -31.3 7.1 -39.05 16.15 -47.5 21.95 L-48.0 22.1 Q-32.9 9.4 -24.65 -41.25 -13.65 -106.6 -6.1 -179.5 L1.85 -178.05" fill="#f7f7f7" fill-rule="evenodd" stroke="none"/>
    <path d="M-47.5 21.95 Q-31.9 18.3 -17.5 3.6 -7.35 -6.55 -2.55 -24.6 L-9.7 -31.7 Q-4.65 -34.15 0.35 -36.7 L-5.75 -42.5 2.05 -47.05 Q6.35 -83.8 8.45 -120.1 10.6 -156.8 9.7 -176.6 L1.85 -178.05" fill="none" stroke="#000000" stroke-linecap="round" stroke-linejoin="round" stroke-opacity="0.3019608" stroke-width="1.0"/>
    <path d="M-7.1 -177.35 L3.75 -236.3 15.95 -235.0 12.65 -175.1 Q9.2 -158.6 -7.1 -177.35" fill="#467bb0" fill-rule="evenodd" stroke="none"/>
    <path d="M-7.1 -177.35 L3.75 -236.3 15.95 -235.0 12.65 -175.1 Q9.2 -158.6 -7.1 -177.35 Z" fill="none" stroke="#000000" stroke-linecap="round" stroke-linejoin="round" stroke-opacity="0.3019608" stroke-width="1.0"/>
    <path d="M15.45 -231.9 L1.9 -233.3 Q0.8 -235.5 1.05 -238.2 1.45 -241.75 4.05 -244.05 6.7 -246.3 10.1 -245.95 13.5 -245.6 15.55 -242.85 17.7 -240.05 17.3 -236.5 17.05 -233.8 15.45 -231.9" fill="#e1522f" fill-rule="evenodd" stroke="none"/>
    <path d="M1.9 -233.3 Q0.8 -235.5 1.05 -238.2 1.45 -241.75 4.05 -244.05 6.7 -246.3 10.1 -245.95 13.5 -245.6 15.55 -242.85 17.7 -240.05 17.3 -236.5 17.05 -233.8 15.45 -231.9" fill="none" stroke="#000000" stroke-linecap="round" stroke-linejoin="round" stroke-opacity="0.3019608" stroke-width="1.0"/>
    <path d="M4.25 -238.2 Q4.05 -239.1 4.45 -240.15 4.95 -241.5 6.25 -242.4 7.55 -243.3 8.95 -243.15 10.3 -243.05 10.85 -241.95 11.45 -240.85 10.95 -239.5 10.55 -238.45 9.7 -237.65 L4.25 -238.2" fill="#ed9681" fill-rule="evenodd" stroke="none"/>
    <path d="M-3.3 -180.05 L5.85 -228.0" fill="none" stroke="#ffffff" stroke-linecap="round" stroke-linejoin="round" stroke-opacity="0.3019608" stroke-width="3.0"/>
    <path d="M1.1 -169.5 Q-0.6 -170.7 -0.75 -172.8 -1.0 -174.75 0.3 -176.3 1.65 -177.85 3.8 -178.1 15.1 -179.1 19.75 -182.3 27.75 -188.35 28.55 -199.45 29.4 -211.05 24.6 -219.65 L24.6 -219.55 Q19.45 -226.65 1.4 -227.2 -0.75 -227.3 -2.2 -228.75 -3.7 -230.3 -3.65 -232.3 -3.65 -234.3 -2.1 -235.65 -0.5 -237.05 1.65 -237.0 27.2 -236.25 33.6 -224.25 L33.6 -224.2 Q39.95 -213.4 38.9 -198.6 37.75 -183.1 26.35 -174.65 20.25 -169.7 4.95 -168.4 2.75 -168.15 1.1 -169.5" fill="#ffc226" fill-rule="evenodd" stroke="none"/>
    <path d="M1.1 -169.5 Q2.75 -168.15 4.95 -168.4 20.25 -169.7 26.35 -174.65 37.75 -183.1 38.9 -198.6 39.95 -213.4 33.6 -224.2 L33.6 -224.25 Q27.2 -236.25 1.65 -237.0 -0.5 -237.05 -2.1 -235.65 -3.65 -234.3 -3.65 -232.3 -3.7 -230.3 -2.2 -228.75 -0.75 -227.3 1.4 -227.2 19.45 -226.65 24.6 -219.55 L24.6 -219.65 Q29.4 -211.05 28.55 -199.45 27.75 -188.35 19.75 -182.3 15.1 -179.1 3.8 -178.1 1.65 -177.85 0.3 -176.3 -1.0 -174.75 -0.75 -172.8 -0.6 -170.7 1.1 -169.5 Z" fill="none" stroke="#000000" stroke-linecap="round" stroke-linejoin="round" stroke-opacity="0.3019608" stroke-width="1.0"/>
    <path d="M-7.5 -178.1 L13.15 -175.9 11.65 -161.85 -9.0 -164.05 -7.5 -178.1" fill="#ffc226" fill-rule="evenodd" stroke="none"/>
    <path d="M-7.5 -178.1 L13.15 -175.9 11.65 -161.85 -9.0 -164.05 -7.5 -178.1 Z" fill="none" stroke="#000000" stroke-linecap="round" stroke-linejoin="round" stroke-opacity="0.3019608" stroke-width="1.0"/>
    <path d="M-22.95 -171.9 Q-24.65 -172.1 -25.7 -173.85 -26.75 -175.6 -26.5 -177.9 -26.25 -180.15 -24.85 -181.7 -23.5 -183.15 -21.8 -182.95 L27.85 -177.7 Q29.6 -177.5 30.7 -175.8 31.75 -174.0 31.5 -171.75 31.25 -169.45 29.85 -167.95 28.45 -166.45 26.7 -166.65 L-22.95 -171.9" fill="#ffc226" fill-rule="evenodd" stroke="none"/>
    <path d="M-22.95 -171.9 L26.7 -166.65 Q28.45 -166.45 29.85 -167.95 31.25 -169.45 31.5 -171.75 31.75 -174.0 30.7 -175.8 29.6 -177.5 27.85 -177.7 L-21.8 -182.95 Q-23.5 -183.15 -24.85 -181.7 -26.25 -180.15 -26.5 -177.9 -26.75 -175.6 -25.7 -173.85 -24.65 -172.1 -22.95 -171.9 Z" fill="none" stroke="#000000" stroke-linecap="round" stroke-linejoin="round" stroke-opacity="0.3019608" stroke-width="1.0"/>
    <path d="M12.35 -187.55 L-4.5 -189.35 M13.2 -197.85 L-2.05 -199.45 M13.75 -208.15 L-0.5 -209.65 M14.5 -218.45 L1.2 -219.85" fill="none" stroke="#000000" stroke-linecap="round" stroke-linejoin="round" stroke-opacity="0.2" stroke-width="1.0"/>
    <path d="M-22.9 -175.15 L27.3 -169.8" fill="none" stroke="#ffe092" stroke-linecap="round" stroke-linejoin="round" stroke-width="2.0"/>
  </g>
</svg>
