<?xml version="1.0" encoding="UTF-8" standalone="no"?>
<svg xmlns:ffdec="https://www.free-decompiler.com/flash" xmlns:xlink="http://www.w3.org/1999/xlink" ffdec:objectType="shape" height="112.45px" width="163.8px" xmlns="http://www.w3.org/2000/svg">
  <g transform="matrix(1.0, 0.0, 0.0, 1.0, 91.75, 70.55)">
    <path d="M47.7 -53.75 Q71.55 -37.5 71.55 -14.35 71.55 8.8 47.7 25.1 23.85 41.35 -9.85 41.4 -43.6 41.35 -67.4 25.1 -91.25 8.8 -91.25 -14.35 -91.25 -37.5 -67.4 -53.75 -43.6 -70.05 -9.85 -70.05 23.85 -70.05 47.7 -53.75" fill="#ffffff" fill-rule="evenodd" stroke="none"/>
    <path d="M47.7 -53.75 Q71.55 -37.5 71.55 -14.35 71.55 8.8 47.7 25.1 23.85 41.35 -9.85 41.4 -43.6 41.35 -67.4 25.1 -91.25 8.8 -91.25 -14.35 -91.25 -37.5 -67.4 -53.75 -43.6 -70.05 -9.85 -70.05 23.85 -70.05 47.7 -53.75 Z" fill="none" stroke="#000000" stroke-linecap="round" stroke-linejoin="round" stroke-width="1.0"/>
  </g>
</svg>
