<?xml version="1.0" encoding="UTF-8" standalone="no"?>
<svg xmlns:ffdec="https://www.free-decompiler.com/flash" xmlns:xlink="http://www.w3.org/1999/xlink" ffdec:objectType="shape" height="280.4px" width="462.15px" xmlns="http://www.w3.org/2000/svg">
  <g transform="matrix(1.0, 0.0, 0.0, 1.0, 222.9, -31.8)">
    <path d="M197.85 151.4 L197.9 151.35 237.4 179.15 238.25 182.5 Q230.8 190.7 217.35 202.85 189.75 227.7 158.1 248.05 62.0 309.85 -36.3 309.3 L-36.3 309.15 Q-18.85 306.45 15.35 292.45 23.5 289.7 36.55 284.0 62.65 272.7 87.05 258.2 165.3 211.85 197.85 151.4" fill="url(#gradient0)" fill-rule="evenodd" stroke="none"/>
    <path d="M197.85 151.4 L197.9 151.35 237.4 179.15 238.25 182.5 Q230.8 190.7 217.35 202.85 189.75 227.7 158.1 248.05 62.0 309.85 -36.3 309.3 L-36.3 309.15 Q-18.85 306.45 15.35 292.45" fill="none" stroke="#ffffff" stroke-linecap="round" stroke-linejoin="round" stroke-opacity="0.7490196" stroke-width="1.0"/>
    <path d="M-222.4 283.35 Q-217.75 286.15 -208.75 290.0 -190.8 297.65 -169.3 302.85 -100.4 319.45 -21.55 304.9" fill="none" stroke="#ffffff" stroke-linecap="round" stroke-linejoin="round" stroke-opacity="0.7490196" stroke-width="1.0"/>
    <path d="M237.4 179.15 L238.25 182.5 Q230.8 190.7 217.35 202.85 189.75 227.7 158.1 248.05 62.0 309.85 -36.3 309.3 L-36.3 309.15 Q-18.85 306.45 15.35 292.45" fill="none" stroke="#ffffff" stroke-linecap="round" stroke-linejoin="round" stroke-width="2.0"/>
    <path d="M13.85 66.95 L22.9 79.0 21.65 80.2 Q72.55 173.85 143.25 253.75 139.1 254.25 136.05 252.3 46.05 193.75 -19.9 103.3 L-20.95 103.9 -25.6 98.4 Q-21.85 93.15 -20.3 86.85 L-19.65 84.1 -19.25 82.35 -11.0 78.35 -32.95 50.2 -35.65 51.3 Q-52.1 28.05 -24.1 32.5 -20.5 33.25 -20.0 37.2 L-19.85 38.9 -21.35 40.6 1.45 72.5 13.85 66.95" fill="#ffffff" fill-opacity="0.24705882" fill-rule="evenodd" stroke="none"/>
  </g>
  <defs>
    <linearGradient gradientTransform="matrix(0.0869, 0.1428, -0.0822, 0.05, 103.85, 232.4)" gradientUnits="userSpaceOnUse" id="gradient0" spreadMethod="pad" x1="-819.2" x2="819.2">
      <stop offset="0.0" stop-color="#ffffff" stop-opacity="0.0"/>
      <stop offset="0.7686274509803922" stop-color="#ffffff" stop-opacity="0.7529412"/>
    </linearGradient>
  </defs>
</svg>
