<?xml version="1.0" encoding="UTF-8" standalone="no"?>
<svg xmlns:ffdec="https://www.free-decompiler.com/flash" xmlns:xlink="http://www.w3.org/1999/xlink" ffdec:objectType="shape" height="397.4px" width="328.7px" xmlns="http://www.w3.org/2000/svg">
  <g transform="matrix(1.0, 0.0, 0.0, 1.0, 55.2, 197.2)">
    <path d="M141.7 -184.0 Q180.25 -173.05 215.1 -134.3 245.85 -100.15 260.65 -52.5 275.4 -4.9 272.1 49.95 268.75 104.8 208.65 154.15 148.55 203.5 119.65 199.95 143.4 122.25 101.7 38.0 L91.7 32.0 50.7 -31.0 5.75 -57.0 -6.25 -66.0 -25.25 -97.0 141.7 -184.0" fill="url(#gradient0)" fill-rule="evenodd" stroke="none"/>
    <path d="M-7.15 -67.8 L-4.55 -59.9 Q-2.3 -59.9 -0.15 -59.0 2.75 -57.95 5.15 -55.9 L8.9 -52.05 15.45 -55.7 14.95 -56.75 Q114.65 -101.6 171.55 -195.25 L169.8 -197.2 Q87.2 -142.1 -2.05 -98.7 L-3.25 -100.0 -15.2 -92.35 -11.25 -80.25 Q-28.7 -71.65 -45.55 -62.05 -64.95 -50.95 -45.4 -42.6 L-44.05 -44.0 Q-40.15 -44.55 -36.45 -45.75 -18.4 -52.0 -7.15 -67.8" fill="#ffffff" fill-opacity="0.7019608" fill-rule="evenodd" stroke="none"/>
    <path d="M24.95 -43.1 L26.25 -34.75 Q28.4 -34.4 30.35 -33.2 33.05 -31.7 35.1 -29.25 L38.1 -24.8 45.1 -27.4 44.85 -28.5 Q148.55 -59.2 221.5 -140.35 L220.15 -142.5 Q129.8 -101.65 35.1 -72.9 L34.15 -74.3 21.15 -68.7 23.0 -56.1 Q4.5 -50.45 -13.6 -43.8 -34.35 -36.1 -16.75 -24.3 L-15.2 -25.45 -7.45 -26.0 Q11.35 -29.25 24.95 -43.1" fill="#ffffff" fill-opacity="0.24705882" fill-rule="evenodd" stroke="none"/>
    <path d="M45.25 14.75 L43.7 23.35 Q49.1 26.85 51.0 33.1 L51.55 35.2 52.15 37.3 60.05 37.2 60.15 36.05 Q176.2 41.85 273.5 -12.1 L272.85 -14.7 Q169.3 -6.05 65.35 -10.95 L64.85 -12.7 50.05 -11.75 47.65 1.25 8.8 0.2 Q4.25 -3.05 -0.25 0.2 L-1.0 0.85 -1.8 1.75 Q-13.3 5.55 -6.3 15.35 L-4.5 17.45 -2.55 18.6 -0.65 18.05 Q3.0 22.4 7.95 20.2 L8.85 19.65 9.7 19.05 45.25 14.75" fill="#ffffff" fill-opacity="0.14901961" fill-rule="evenodd" stroke="none"/>
  </g>
  <defs>
    <linearGradient gradientTransform="matrix(-0.0027, -0.2004, 0.2348, -0.0031, 141.1, 5.85)" gradientUnits="userSpaceOnUse" id="gradient0" spreadMethod="pad" x1="-819.2" x2="819.2">
      <stop offset="0.0" stop-color="#ffffff" stop-opacity="0.0"/>
      <stop offset="0.35294117647058826" stop-color="#ffffff" stop-opacity="0.2"/>
      <stop offset="0.6745098039215687" stop-color="#ffffff" stop-opacity="0.5019608"/>
    </linearGradient>
  </defs>
</svg>
