<?xml version="1.0" encoding="UTF-8" standalone="no"?>
<svg xmlns:ffdec="https://www.free-decompiler.com/flash" xmlns:xlink="http://www.w3.org/1999/xlink" ffdec:objectType="shape" height="375.2px" width="150.25px" xmlns="http://www.w3.org/2000/svg">
  <g transform="matrix(1.0, 0.0, 0.0, 1.0, -128.5, 197.6)">
    <path d="M129.0 -165.1 L149.3 -181.85 Q169.75 -198.35 170.45 -197.0 182.35 -188.25 197.95 -172.4 229.1 -140.7 248.9 -101.9 276.65 -47.35 278.15 14.6 280.05 92.1 240.7 177.1 246.65 161.7 252.35 137.1 263.75 87.95 262.45 41.95 260.65 -22.4 233.75 -71.15 200.15 -132.15 129.0 -165.1" fill="url(#gradient0)" fill-rule="evenodd" stroke="none"/>
    <path d="M129.0 -165.1 L149.3 -181.85 Q169.75 -198.35 170.45 -197.0 182.35 -188.25 197.95 -172.4 229.1 -140.7 248.9 -101.9 276.65 -47.35 278.15 14.6 280.05 92.1 240.7 177.1" fill="none" stroke="#ffffff" stroke-linecap="round" stroke-linejoin="round" stroke-width="1.0"/>
    <path d="M129.0 -165.1 L149.3 -181.85 Q169.75 -198.35 170.45 -197.0 182.35 -188.25 197.95 -172.4 229.1 -140.7 248.9 -101.9 276.65 -47.35 278.15 14.6 280.05 92.1 240.7 177.1" fill="none" stroke="#ffffff" stroke-linecap="round" stroke-linejoin="round" stroke-width="1.0"/>
  </g>
  <defs>
    <linearGradient gradientTransform="matrix(0.0701, -0.0578, 0.145, 0.1757, 201.1, -6.3)" gradientUnits="userSpaceOnUse" id="gradient0" spreadMethod="pad" x1="-819.2" x2="819.2">
      <stop offset="0.0" stop-color="#ffffff" stop-opacity="0.0"/>
      <stop offset="0.7686274509803922" stop-color="#ffffff" stop-opacity="0.7529412"/>
    </linearGradient>
  </defs>
</svg>
