<?xml version="1.0" encoding="UTF-8" standalone="no"?>
<svg xmlns:ffdec="https://www.free-decompiler.com/flash" xmlns:xlink="http://www.w3.org/1999/xlink" ffdec:objectType="shape" height="337.15px" width="488.65px" xmlns="http://www.w3.org/2000/svg">
  <g transform="matrix(1.0, 0.0, 0.0, 1.0, 229.3, 264.05)">
    <path d="M256.65 39.25 L259.35 38.35 259.3 39.25 256.65 39.25 M52.05 -24.95 Q45.05 -31.95 37.2 -38.95 21.45 -52.95 17.05 -52.95 L12.05 -45.95 Q-9.7 -52.7 -36.95 -53.95 -91.4 -56.45 -118.95 -28.95 L-136.95 -26.95 -142.0 -17.95 -218.0 -221.0 -218.2 -221.35 Q-197.65 -230.55 -165.45 -240.35 -99.75 -260.35 -38.95 -263.5 46.15 -267.85 109.3 -237.85 188.2 -200.35 228.1 -110.95 L230.5 -106.5 236.55 -93.75 Q245.9 -72.35 248.35 -60.95 250.8 -49.55 251.85 -38.2 252.85 -26.85 251.1 -0.25 245.75 61.45 225.75 73.1 227.4 46.35 188.3 19.65 L139.7 -5.35 130.9 -8.15 Q73.4 -24.05 52.05 -24.95" fill="url(#gradient0)" fill-rule="evenodd" stroke="none"/>
    <path d="M-143.55 -35.25 L-134.9 -35.95 Q-132.9 -41.75 -127.3 -45.05 L-125.4 -46.1 -123.6 -47.15 -125.6 -54.35 -126.8 -54.15 Q-147.1 -162.15 -226.95 -237.95 L-229.3 -236.7 Q-194.6 -143.9 -173.4 -47.3 L-175.0 -46.45 -170.35 -33.1 -157.15 -34.1 -148.45 1.8 Q-150.4 6.75 -146.15 10.05 L-145.3 10.65 -144.25 11.1 Q-139.55 19.15 -132.15 13.7 -131.1 12.95 -130.35 11.65 L-127.8 7.7 -128.8 6.05 Q-125.5 1.6 -128.9 -2.4 L-129.6 -3.05 -130.45 -3.7 -143.55 -35.25" fill="#ffffff" fill-opacity="0.7019608" fill-rule="evenodd" stroke="none"/>
    <path d="M-88.65 -53.9 Q-86.7 -57.1 -83.4 -58.95 -79.8 -61.0 -75.9 -61.95 L-76.15 -69.0 -77.2 -69.1 Q-80.75 -145.85 -102.0 -218.75 -105.05 -229.15 -111.0 -238.65 -117.4 -248.65 -125.3 -257.45 L-127.7 -256.8 Q-118.95 -176.4 -120.2 -95.05 L-120.7 -71.8 -122.25 -71.35 -121.15 -58.15 -109.1 -56.55 -109.4 -21.85 Q-110.5 -20.45 -110.75 -18.85 -111.3 -14.75 -107.8 -12.45 -106.7 -5.6 -99.6 -6.3 -97.65 -6.5 -96.15 -7.85 L-95.05 -8.85 -93.25 -10.7 -92.25 -12.45 -92.8 -14.1 -91.15 -15.85 Q-89.0 -19.4 -91.4 -22.7 L-92.0 -23.4 -96.6 -54.9 -88.65 -53.9" fill="#ffffff" fill-opacity="0.24705882" fill-rule="evenodd" stroke="none"/>
    <path d="M-33.35 -54.4 Q-29.75 -56.85 -25.4 -56.95 L-18.5 -56.4 -15.85 -62.85 -16.85 -63.35 Q13.55 -125.15 17.6 -193.7 19.4 -224.15 15.45 -254.65 L13.0 -255.0 Q-15.35 -167.25 -55.15 -84.15 L-56.85 -84.35 -61.15 -71.9 -50.85 -65.4 -65.15 -34.0 Q-70.35 -29.45 -68.05 -22.2 -67.4 -20.05 -65.8 -18.05 -64.35 -16.3 -62.0 -16.05 -59.7 -15.85 -57.45 -16.7 -55.3 -17.3 -53.3 -18.25 L-53.15 -20.0 Q-39.25 -33.7 -40.15 -58.65 L-33.35 -54.4" fill="#ffffff" fill-opacity="0.14901961" fill-rule="evenodd" stroke="none"/>
  </g>
  <defs>
    <linearGradient gradientTransform="matrix(-0.045, -0.1199, 0.1749, -0.0656, 314.15, -217.7)" gradientUnits="userSpaceOnUse" id="gradient0" spreadMethod="pad" x1="-819.2" x2="819.2">
      <stop offset="0.0" stop-color="#ffffff" stop-opacity="0.0"/>
      <stop offset="0.35294117647058826" stop-color="#ffffff" stop-opacity="0.2"/>
      <stop offset="0.6745098039215687" stop-color="#ffffff" stop-opacity="0.5019608"/>
    </linearGradient>
  </defs>
</svg>
