<?xml version="1.0" encoding="UTF-8" standalone="no"?>
<svg xmlns:ffdec="https://www.free-decompiler.com/flash" xmlns:xlink="http://www.w3.org/1999/xlink" ffdec:objectType="shape" height="135.3px" width="442.4px" xmlns="http://www.w3.org/2000/svg">
  <g transform="matrix(1.0, 0.0, 0.0, 1.0, 227.8, 281.35)">
    <path d="M-208.85 -187.25 L-226.8 -236.2 -226.4 -239.6 Q-216.6 -244.7 -199.75 -251.35 -165.2 -264.9 -128.5 -272.85 -31.8 -293.8 65.85 -256.05 L20.5 -264.4 Q11.95 -264.65 -2.25 -263.9 -30.6 -262.45 -58.5 -257.45 -147.9 -241.5 -199.55 -196.4 L-208.85 -187.25" fill="url(#gradient0)" fill-rule="evenodd" stroke="none"/>
    <path d="M214.1 -146.55 Q198.35 -169.35 172.0 -194.45 119.3 -244.65 56.45 -257.75" fill="none" stroke="#ffffff" stroke-linecap="round" stroke-linejoin="round" stroke-opacity="0.7490196" stroke-width="1.0"/>
    <path d="M-208.85 -187.25 L-226.8 -236.2 -226.4 -239.6 Q-216.6 -244.7 -199.75 -251.35 -165.2 -264.9 -128.5 -272.85 -31.8 -293.8 65.85 -256.05 L20.5 -264.4" fill="none" stroke="#ffffff" stroke-linecap="round" stroke-linejoin="round" stroke-width="2.0"/>
  </g>
  <defs>
    <linearGradient gradientTransform="matrix(-0.0626, -0.1506, 0.0904, -0.0376, -89.0, -229.8)" gradientUnits="userSpaceOnUse" id="gradient0" spreadMethod="pad" x1="-819.2" x2="819.2">
      <stop offset="0.0" stop-color="#ffffff" stop-opacity="0.0"/>
      <stop offset="0.7686274509803922" stop-color="#ffffff" stop-opacity="0.7529412"/>
    </linearGradient>
  </defs>
</svg>
