<?xml version="1.0" encoding="UTF-8" standalone="no"?>
<svg xmlns:ffdec="https://www.free-decompiler.com/flash" xmlns:xlink="http://www.w3.org/1999/xlink" ffdec:objectType="shape" height="376.8px" width="598.95px" xmlns="http://www.w3.org/2000/svg">
  <g transform="matrix(1.0, 0.0, 0.0, 1.0, 341.2, 268.7)">
    <path d="M107.05 -61.55 Q55.5 -65.5 29.0 -65.9 2.5 -66.3 -34.1 -56.2 -70.7 -46.15 -95.2 -23.4 -151.5 28.85 -150.0 68.1 L-164.55 62.75 -313.4 -7.7 Q-299.65 -113.8 -246.4 -178.35 L-236.7 -189.4 -235.7 -190.5 Q-228.5 -198.15 -220.65 -205.05 -47.95 -332.85 157.55 -204.05 175.85 -192.15 188.45 -175.65 L191.8 -170.15 192.6 -169.55 198.4 -164.3 Q207.65 -154.95 213.25 -142.75 L209.65 -139.25 217.4 -124.75 218.45 -126.0 Q227.7 -106.55 235.3 -84.35 L235.35 -84.2 Q240.15 -70.15 244.05 -55.5 242.3 -54.3 249.85 -17.4 253.65 1.0 257.75 19.15 L255.75 19.3 Q254.55 17.9 252.15 16.0 158.55 -57.65 107.05 -61.55" fill="url(#gradient0)" fill-rule="evenodd" stroke="none"/>
    <path d="M-155.1 71.75 L-149.5 65.75 Q-151.75 60.05 -149.9 54.05 L-149.25 52.05 -148.55 50.1 -154.5 45.9 -155.2 46.8 Q-237.0 -22.05 -340.3 -28.9 L-341.2 -26.45 Q-258.85 21.85 -183.55 81.55 L-184.1 83.25 -172.55 90.4 -163.95 81.25 -135.4 102.95 Q-133.7 107.95 -128.55 107.75 L-127.65 107.6 -126.6 107.3 Q-118.3 110.4 -116.5 101.6 -116.25 100.35 -116.5 98.9 -116.8 96.6 -117.25 94.25 L-119.0 93.75 Q-119.45 88.25 -124.3 87.35 L-125.25 87.35 -126.25 87.35 -155.1 71.75" fill="#ffffff" fill-opacity="0.7019608" fill-rule="evenodd" stroke="none"/>
    <path d="M-114.85 41.8 Q-114.85 37.45 -112.55 33.6 -110.1 29.35 -106.7 26.0 L-111.3 19.15 -112.45 19.8 Q-164.2 -54.05 -231.9 -113.25 -241.6 -121.7 -253.7 -127.35 -266.6 -133.35 -280.35 -137.2 L-282.45 -135.05 Q-223.05 -60.85 -173.45 20.45 L-159.4 43.7 -160.8 45.2 -151.35 57.55 -137.8 51.75 -116.4 86.3 Q-116.7 88.35 -115.95 90.1 -113.9 94.4 -108.9 94.6 -103.45 100.75 -96.5 95.7 -94.6 94.25 -93.85 92.05 L-93.4 90.3 -92.65 87.45 -92.65 85.05 -94.3 83.75 -93.65 81.0 Q-93.7 76.2 -98.2 74.35 L-99.35 74.05 -123.75 45.65 -114.85 41.8" fill="#ffffff" fill-opacity="0.24705882" fill-rule="evenodd" stroke="none"/>
    <path d="M-74.6 19.1 L-63.8 19.4 Q-60.4 12.5 -52.95 9.15 L-50.45 8.15 -48.0 7.1 -49.35 -2.1 -50.85 -1.95 Q-62.65 -138.4 -144.9 -242.3 L-148.0 -241.1 Q-120.4 -121.9 -109.45 0.2 L-111.55 1.05 -108.0 18.15 -91.6 18.7 -86.55 64.2 Q-89.85 70.0 -85.05 74.65 L-84.1 75.5 -82.9 76.25 Q-76.35 89.0 -65.45 79.1 L-63.15 76.6 -62.05 74.2 -63.1 72.1 Q-58.25 67.0 -61.75 61.65 L-62.6 60.7 -63.5 59.8 -74.6 19.1" fill="#ffffff" fill-opacity="0.14901961" fill-rule="evenodd" stroke="none"/>
  </g>
  <defs>
    <linearGradient gradientTransform="matrix(-0.0684, -0.1095, 0.1598, -0.0998, 278.6, -317.45)" gradientUnits="userSpaceOnUse" id="gradient0" spreadMethod="pad" x1="-819.2" x2="819.2">
      <stop offset="0.0" stop-color="#ffffff" stop-opacity="0.0"/>
      <stop offset="0.35294117647058826" stop-color="#ffffff" stop-opacity="0.2"/>
      <stop offset="0.6745098039215687" stop-color="#ffffff" stop-opacity="0.5019608"/>
    </linearGradient>
  </defs>
</svg>
