<?xml version="1.0" encoding="UTF-8" standalone="no"?>
<svg xmlns:ffdec="https://www.free-decompiler.com/flash" xmlns:xlink="http://www.w3.org/1999/xlink" ffdec:objectType="shape" height="280.55px" width="344.75px" xmlns="http://www.w3.org/2000/svg">
  <g transform="matrix(1.0, 0.0, 0.0, 1.0, 334.25, 271.9)">
    <path d="M-284.8 7.65 L-331.15 -15.95 -333.25 -18.7 Q-329.5 -29.1 -321.7 -45.4 L-275.9 -140.8 Q-246.1 -202.85 -153.15 -246.55 -183.9 -228.35 -201.0 -207.25 -218.1 -186.05 -247.65 -129.7 -277.15 -73.35 -284.25 -5.4 L-284.8 7.65" fill="url(#gradient0)" fill-rule="evenodd" stroke="none"/>
    <path d="M10.0 -269.35 Q-15.75 -272.65 -51.0 -270.6 -121.6 -266.45 -169.3 -239.5" fill="none" stroke="#ffffff" stroke-linecap="round" stroke-linejoin="round" stroke-opacity="0.7490196" stroke-width="1.0"/>
    <path d="M-284.8 7.65 L-331.2 -15.95 -333.25 -18.7 Q-329.5 -29.1 -321.7 -45.4 L-275.95 -140.8 Q-246.1 -202.85 -153.15 -246.55" fill="none" stroke="#ffffff" stroke-linecap="round" stroke-linejoin="round" stroke-width="2.0"/>
  </g>
  <defs>
    <linearGradient gradientTransform="matrix(-0.1363, -0.0725, 0.0529, -0.0995, -235.05, -112.75)" gradientUnits="userSpaceOnUse" id="gradient0" spreadMethod="pad" x1="-819.2" x2="819.2">
      <stop offset="0.0" stop-color="#ffffff" stop-opacity="0.0"/>
      <stop offset="0.7686274509803922" stop-color="#ffffff" stop-opacity="0.7529412"/>
    </linearGradient>
  </defs>
</svg>
