<?xml version="1.0" encoding="UTF-8" standalone="no"?>
<svg xmlns:ffdec="https://www.free-decompiler.com/flash" xmlns:xlink="http://www.w3.org/1999/xlink" ffdec:objectType="shape" height="486.35px" width="410.0px" xmlns="http://www.w3.org/2000/svg">
  <g transform="matrix(1.0, 0.0, 0.0, 1.0, 332.0, 262.1)">
    <path d="M73.05 -236.85 Q78.35 -233.15 77.95 -231.65 77.6 -230.15 35.65 -213.45 -9.6 -195.55 -17.5 -190.55 -40.15 -176.35 -69.9 -144.35 -99.65 -112.35 -115.9 -64.5 -123.55 -41.7 -126.9 -16.75 -130.0 5.95 -128.5 21.05 -126.3 41.55 -117.45 69.65 -109.15 95.9 -93.3 134.05 L-251.95 216.3 Q-291.4 161.45 -311.75 108.7 -332.0 56.15 -332.0 9.1 -332.0 -30.35 -326.35 -64.8 -323.5 -82.05 -320.55 -91.7 -316.85 -101.55 -312.4 -110.9 -305.2 -139.8 -278.45 -172.3 -246.6 -210.85 -200.85 -234.9 -187.15 -242.05 -172.7 -247.05 -153.6 -253.6 -128.65 -258.1 -90.3 -264.95 -24.75 -260.1 31.2 -256.05 57.45 -245.0 67.0 -240.95 73.05 -236.85" fill="url(#gradient0)" fill-rule="evenodd" stroke="none"/>
    <path d="M-94.75 108.5 L-97.4 101.25 Q-103.65 100.65 -108.15 96.3 L-109.45 95.1 -110.65 93.8 -117.1 97.1 -116.65 98.05 Q-135.95 109.5 -156.35 119.05 -232.35 154.65 -269.95 222.55 L-268.2 224.25 Q-187.2 175.1 -99.55 136.8 L-98.4 138.0 -86.65 131.2 -90.6 120.05 -58.2 105.05 Q-52.95 105.95 -50.75 101.5 L-50.4 100.6 -50.2 99.5 Q-41.45 91.85 -52.7 87.1 L-55.1 86.2 -57.2 86.1 -58.55 87.3 Q-63.5 85.1 -66.7 89.1 L-67.2 89.85 -67.5 90.7 -94.75 108.5" fill="#ffffff" fill-opacity="0.7019608" fill-rule="evenodd" stroke="none"/>
    <path d="M-92.95 96.7 L-91.55 88.45 Q-96.7 85.2 -98.45 78.9 L-98.9 77.2 -99.35 75.45 -106.6 75.75 -106.65 76.85 Q-129.15 79.35 -151.65 79.6 -235.4 80.3 -302.0 129.2 L-301.4 131.65 Q-206.5 120.1 -111.3 121.85 L-110.85 123.55 -97.3 122.15 -95.1 109.65 -59.5 109.5 Q-55.45 112.75 -51.3 109.45 L-50.55 108.65 -49.8 107.7 Q-38.35 104.15 -45.75 94.6 L-47.4 92.7 -49.15 91.6 -50.9 92.2 Q-54.1 87.9 -58.9 90.3 L-59.65 90.85 -60.45 91.55 -92.95 96.7" fill="#ffffff" fill-opacity="0.24705882" fill-rule="evenodd" stroke="none"/>
    <path d="M-87.5 48.55 L-84.3 40.1 Q-89.1 35.65 -89.85 28.95 L-90.0 26.7 -90.2 24.5 -98.15 23.25 -98.45 24.4 Q-212.7 -4.55 -322.05 36.75 L-321.85 39.5 Q-216.05 48.2 -112.5 71.2 L-112.35 73.1 -97.3 74.7 -92.45 61.85 -53.55 69.6 Q-49.65 73.7 -44.5 71.15 L-43.6 70.6 -42.65 69.85 Q-32.7 69.0 -34.7 59.6 -35.05 58.25 -35.9 57.05 -37.15 54.85 -38.7 52.85 L-40.7 53.1 Q-43.55 48.05 -48.95 49.35 L-49.95 49.8 -50.95 50.3 -87.5 48.55" fill="#ffffff" fill-opacity="0.14901961" fill-rule="evenodd" stroke="none"/>
  </g>
  <defs>
    <linearGradient gradientTransform="matrix(-0.1182, 0.0511, -0.0745, -0.1725, -356.6, -491.5)" gradientUnits="userSpaceOnUse" id="gradient0" spreadMethod="pad" x1="-819.2" x2="819.2">
      <stop offset="0.0" stop-color="#ffffff" stop-opacity="0.0"/>
      <stop offset="0.35294117647058826" stop-color="#ffffff" stop-opacity="0.2"/>
      <stop offset="0.6745098039215687" stop-color="#ffffff" stop-opacity="0.5019608"/>
    </linearGradient>
  </defs>
</svg>
