<?xml version="1.0" encoding="UTF-8" standalone="no"?>
<svg xmlns:ffdec="https://www.free-decompiler.com/flash" xmlns:xlink="http://www.w3.org/1999/xlink" ffdec:objectType="shape" height="461.4px" width="124.7px" xmlns="http://www.w3.org/2000/svg">
  <g transform="matrix(1.0, 0.0, 0.0, 1.0, 339.95, 228.35)">
    <path d="M-219.0 209.55 L-265.8 232.05 -269.25 232.05 Q-275.2 222.75 -283.4 206.7 -300.2 173.85 -325.35 104.2 -339.25 65.45 -339.9 21.95 -340.7 -29.15 -322.9 -80.5 -330.65 -24.25 -324.25 26.15 -319.0 67.95 -305.55 96.9 -278.7 154.4 -228.95 201.2 L-219.0 209.55" fill="url(#gradient0)" fill-rule="evenodd" stroke="none"/>
    <path d="M-323.7 -82.2 Q-315.3 -112.85 -297.55 -142.4 -266.9 -193.45 -215.75 -227.85" fill="none" stroke="#ffffff" stroke-linecap="round" stroke-linejoin="round" stroke-opacity="0.7490196" stroke-width="1.0"/>
    <path d="M-228.95 201.2 L-219.0 209.55 -265.8 232.05 -269.25 232.05 Q-275.2 222.75 -283.4 206.7 -300.2 173.85 -325.35 104.2 -350.35 34.5 -323.85 -79.7" fill="none" stroke="#ffffff" stroke-linecap="round" stroke-linejoin="round" stroke-width="2.0"/>
  </g>
  <defs>
    <linearGradient gradientTransform="matrix(-0.1514, 0.0863, -0.0498, -0.0874, -270.75, 83.6)" gradientUnits="userSpaceOnUse" id="gradient0" spreadMethod="pad" x1="-819.2" x2="819.2">
      <stop offset="0.0" stop-color="#ffffff" stop-opacity="0.0"/>
      <stop offset="0.7686274509803922" stop-color="#ffffff" stop-opacity="0.7529412"/>
    </linearGradient>
  </defs>
</svg>
