<?xml version="1.0" encoding="UTF-8" standalone="no"?>
<svg xmlns:ffdec="https://www.free-decompiler.com/flash" xmlns:xlink="http://www.w3.org/1999/xlink" ffdec:objectType="shape" height="371.85px" width="311.6px" xmlns="http://www.w3.org/2000/svg">
  <g transform="matrix(1.0, 0.0, 0.0, 1.0, 333.5, 71.45)">
    <path d="M-262.85 -2.2 Q-253.4 5.75 -245.45 10.6 L-238.6 14.25 -236.7 15.1 Q-225.6 19.85 -219.55 24.2 -213.4 28.55 -172.15 77.75 -130.9 126.9 -104.25 131.65 -77.6 136.4 -53.55 129.6 -75.8 155.75 -127.85 208.55 -161.65 242.7 -192.6 272.95 -194.05 271.8 -202.2 269.35 L-221.95 263.3 Q-233.55 259.65 -255.6 234.8 -277.65 209.9 -290.1 187.5 -302.55 165.1 -321.45 126.55 -340.4 88.0 -329.55 11.85 -325.1 -19.4 -298.9 -71.45 -303.05 -38.05 -268.65 -22.15 L-266.55 -5.35 -262.85 -2.2" fill="url(#gradient0)" fill-rule="evenodd" stroke="none"/>
    <path d="M-74.05 131.1 Q-74.25 130.6 -74.85 130.85 -78.95 131.9 -83.6 129.35 -85.95 128.1 -87.5 126.7 L-87.85 126.35 -88.85 126.0 -89.9 126.1 -94.25 130.2 Q-94.8 130.75 -94.35 131.2 L-93.85 132.0 Q-103.95 153.2 -124.5 172.45 -134.0 181.3 -155.6 197.95 -174.9 212.55 -184.55 221.65 -200.3 236.35 -208.0 251.3 -218.8 272.4 -217.25 298.6 -217.35 300.05 -215.8 300.4 -214.5 300.55 -213.55 299.65 L-212.5 298.7 -212.2 298.3 Q-200.35 279.8 -182.15 261.0 L-169.65 248.75 Q-160.7 240.3 -155.75 237.0 -152.25 234.5 -144.1 230.85 L-131.3 224.6 -130.5 224.15 -123.65 220.8 -123.25 220.75 -122.35 220.25 -121.65 219.75 -68.15 169.65 -67.7 170.35 -67.05 170.65 Q-66.75 170.8 -66.3 170.4 L-56.95 161.55 Q-56.5 161.15 -56.75 160.5 L-63.05 149.8 -35.9 125.35 -35.3 125.9 Q-34.35 126.9 -32.5 126.6 -30.6 126.3 -29.15 124.95 -27.55 123.5 -27.2 121.65 -26.85 119.9 -27.8 118.9 L-28.15 118.6 Q-25.5 118.6 -23.75 117.0 -21.55 114.95 -21.95 111.5 -22.3 108.05 -25.0 105.3 -27.7 102.55 -31.2 102.05 -34.6 101.55 -36.8 103.55 -38.55 105.3 -38.6 107.85 L-39.0 107.5 Q-40.0 106.45 -41.85 106.7 -43.7 107.0 -45.25 108.45 -46.75 109.8 -47.15 111.65 -47.5 113.45 -46.5 114.55 L-46.0 115.05 -69.8 138.4 -74.05 131.1 M-207.35 254.75 L-206.7 253.35 -209.45 259.65 -207.35 254.75" fill="#ffffff" fill-opacity="0.7019608" fill-rule="evenodd" stroke="none"/>
    <path d="M-82.2 122.25 L-82.7 114.0 Q-84.75 113.35 -86.7 112.05 -89.25 110.45 -91.15 108.05 -92.75 105.95 -93.4 103.55 L-100.5 105.65 -100.3 106.75 Q-205.75 127.7 -282.7 206.25 L-281.55 208.45 Q-189.7 173.7 -94.75 150.8 L-93.9 152.35 -80.75 147.6 -81.45 135.1 Q-73.35 137.0 -64.95 134.6 -43.55 128.45 -39.85 106.25 L-45.65 106.85 Q-65.95 109.2 -82.2 122.25" fill="#ffffff" fill-opacity="0.24705882" fill-rule="evenodd" stroke="none"/>
    <path d="M-89.8 99.4 L-87.35 91.05 Q-92.65 86.8 -93.85 80.05 L-94.25 78.2 -94.55 76.25 -102.7 75.5 -102.95 76.65 Q-128.5 75.85 -153.75 72.75 -247.9 60.9 -328.45 101.85 L-328.0 104.45 Q-220.1 106.65 -113.35 122.8 L-113.05 124.6 -97.65 125.25 -93.75 112.55 -53.7 117.75 Q-49.55 121.7 -44.5 118.9 L-43.55 118.2 -42.65 117.35 Q-29.35 115.35 -36.55 104.3 L-38.2 102.0 -40.0 100.65 -42.1 101.05 Q-45.1 96.1 -50.8 97.85 L-51.75 98.3 -52.65 98.9 -89.8 99.4" fill="#ffffff" fill-opacity="0.14901961" fill-rule="evenodd" stroke="none"/>
  </g>
  <defs>
    <linearGradient gradientTransform="matrix(-0.0043, 0.1216, -0.1877, -0.0066, -231.15, 84.7)" gradientUnits="userSpaceOnUse" id="gradient0" spreadMethod="pad" x1="-819.2" x2="819.2">
      <stop offset="0.0" stop-color="#ffffff" stop-opacity="0.0"/>
      <stop offset="0.35294117647058826" stop-color="#ffffff" stop-opacity="0.2"/>
      <stop offset="0.6745098039215687" stop-color="#ffffff" stop-opacity="0.5019608"/>
    </linearGradient>
  </defs>
</svg>
