<?xml version="1.0" encoding="UTF-8" standalone="no"?>
<svg xmlns:ffdec="https://www.free-decompiler.com/flash" xmlns:xlink="http://www.w3.org/1999/xlink" ffdec:objectType="shape" height="461.0px" width="171.7px" xmlns="http://www.w3.org/2000/svg">
  <g transform="matrix(1.0, 0.0, 0.0, 1.0, 338.35, 160.65)">
    <path d="M-167.65 258.7 L-201.5 298.0 -204.65 299.35 Q-213.8 293.25 -227.75 281.85 -256.25 258.4 -300.75 198.85 -345.35 139.3 -335.6 5.0 -326.8 141.8 -285.55 186.95 -244.3 232.05 -180.1 255.05 L-167.65 258.7" fill="url(#gradient0)" fill-rule="evenodd" stroke="none"/>
    <path d="M-287.2 -160.15 Q-295.5 -150.2 -305.65 -124.6 -326.0 -73.35 -335.35 5.0" fill="none" stroke="#ffffff" stroke-linecap="round" stroke-linejoin="round" stroke-opacity="0.7490196" stroke-width="1.0"/>
    <path d="M-180.1 255.05 L-167.65 258.7 -201.5 298.0 -204.65 299.35 Q-213.8 293.25 -227.75 281.85 -256.25 258.4 -300.75 198.85 -345.35 139.35 -335.6 5.0" fill="none" stroke="#ffffff" stroke-linecap="round" stroke-linejoin="round" stroke-width="2.0"/>
  </g>
  <defs>
    <linearGradient gradientTransform="matrix(-0.0844, 0.1694, -0.0773, -0.0385, -255.9, 150.25)" gradientUnits="userSpaceOnUse" id="gradient0" spreadMethod="pad" x1="-819.2" x2="819.2">
      <stop offset="0.0" stop-color="#ffffff" stop-opacity="0.0"/>
      <stop offset="0.7686274509803922" stop-color="#ffffff" stop-opacity="0.7529412"/>
    </linearGradient>
  </defs>
</svg>
