<?xml version="1.0" encoding="UTF-8" standalone="no"?>
<svg xmlns:ffdec="https://www.free-decompiler.com/flash" xmlns:xlink="http://www.w3.org/1999/xlink" ffdec:objectType="shape" height="230.7px" width="433.9px" xmlns="http://www.w3.org/2000/svg">
  <g transform="matrix(1.0, 0.0, 0.0, 1.0, 270.65, -95.75)">
    <path d="M-195.45 160.65 L-195.4 160.65 -195.45 160.7 -195.45 160.65 M-174.05 152.3 L-168.15 152.7 -174.05 154.5 -174.05 152.3" fill="url(#gradient0)" fill-rule="evenodd" stroke="none"/>
    <path d="M8.85 119.55 Q47.3 146.5 89.05 171.3 130.75 196.05 163.25 223.65 133.05 274.6 68.35 298.3 3.6 322.0 -31.25 324.4 L-72.95 326.4 Q-99.8 324.9 -142.15 312.15 -184.55 299.35 -221.3 258.8 -258.05 218.2 -270.65 190.6 -241.0 187.4 -205.85 180.3 -186.8 176.5 -176.1 170.7 -165.5 164.95 -157.55 165.8 -149.6 166.65 -94.3 165.0 -39.0 163.3 -15.65 142.55 7.65 121.75 8.85 119.55" fill="url(#gradient1)" fill-rule="evenodd" stroke="none"/>
    <path d="M-12.5 135.65 L-19.7 137.75 Q-19.95 142.8 -24.1 146.45 L-25.25 147.45 -26.5 148.45 -22.95 153.8 -22.05 153.45 Q-9.8 169.5 0.5 186.35 39.1 249.3 108.05 281.3 L109.7 280.0 Q57.5 212.65 15.75 140.15 L16.8 139.15 9.6 129.45 -1.25 132.5 -17.55 105.65 Q-16.85 101.35 -21.35 99.5 L-22.3 99.2 -23.4 99.0 Q-31.4 91.7 -35.6 100.8 L-36.35 102.8 -36.4 104.55 -35.15 105.6 Q-37.1 109.65 -33.0 112.35 L-32.3 112.75 -31.35 113.05 -12.5 135.65" fill="#ffffff" fill-opacity="0.24705882" fill-rule="evenodd" stroke="none"/>
    <path d="M-42.65 140.95 Q-44.1 143.85 -46.75 145.4 -49.6 147.15 -52.75 148.0 L-52.2 154.25 -51.3 154.3 Q-49.3 209.25 -32.8 261.75 -22.35 295.0 -1.65 322.95 L0.25 322.35 Q-12.8 240.2 -15.25 157.5 L-13.9 157.05 -15.55 145.3 -25.6 143.7 -27.15 112.75 Q-26.35 111.55 -26.15 110.1 -26.0 106.5 -28.95 104.35 -29.95 99.85 -34.0 98.9 -35.65 98.45 -37.0 99.25 L-37.85 99.7 -39.45 101.2 -41.85 104.15 -41.3 105.6 -42.55 107.15 Q-44.15 110.3 -42.05 113.2 L-41.45 113.85 -36.05 142.0 -42.65 140.95" fill="#ffffff" fill-opacity="0.14901961" fill-rule="evenodd" stroke="none"/>
  </g>
  <defs>
    <linearGradient gradientTransform="matrix(0.0432, 0.0, 0.0, 0.014, -203.55, 151.55)" gradientUnits="userSpaceOnUse" id="gradient0" spreadMethod="pad" x1="-819.2" x2="819.2">
      <stop offset="0.0" stop-color="#ffffff" stop-opacity="0.0"/>
      <stop offset="0.35294117647058826" stop-color="#ffffff" stop-opacity="0.2"/>
      <stop offset="0.6745098039215687" stop-color="#ffffff" stop-opacity="0.5019608"/>
    </linearGradient>
    <linearGradient gradientTransform="matrix(0.2648, 0.0, 0.0, 0.114, -53.7, 212.9)" gradientUnits="userSpaceOnUse" id="gradient1" spreadMethod="pad" x1="-819.2" x2="819.2">
      <stop offset="0.0" stop-color="#ffffff" stop-opacity="0.0"/>
      <stop offset="0.35294117647058826" stop-color="#ffffff" stop-opacity="0.2"/>
      <stop offset="0.6745098039215687" stop-color="#ffffff" stop-opacity="0.5019608"/>
    </linearGradient>
  </defs>
</svg>
