<?xml version="1.0" encoding="UTF-8" standalone="no"?>
<svg xmlns:ffdec="https://www.free-decompiler.com/flash" xmlns:xlink="http://www.w3.org/1999/xlink" ffdec:objectType="shape" height="243.65px" width="484.6px" xmlns="http://www.w3.org/2000/svg">
  <g transform="matrix(1.0, 0.0, 0.0, 1.0, 290.95, -92.1)">
    <path d="M5.55 127.05 L-1.7 131.75 Q-0.25 136.9 -3.4 141.95 L-4.5 143.65 -5.6 145.25 0.15 149.5 1.1 148.8 Q78.1 217.05 190.15 233.4 L191.5 231.35 Q110.1 181.0 38.55 121.4 L39.5 120.0 28.1 112.6 17.0 119.7 -10.4 97.95 Q-11.3 93.4 -16.95 93.05 L-17.95 93.1 -19.15 93.2 Q-27.7 89.7 -31.25 97.15 -31.75 98.3 -31.75 99.5 L-31.8 103.6 -30.0 104.3 Q-30.5 109.1 -25.35 110.4 L-24.3 110.5 -23.2 110.55 5.55 127.05" fill="#ffffff" fill-opacity="0.7019608" fill-rule="evenodd" stroke="none"/>
    <path d="M147.85 199.75 L191.35 225.45 192.65 228.6 Q186.65 237.85 169.5 258.0 152.25 278.2 93.15 315.7 33.95 353.15 -124.2 316.95 21.4 319.1 73.6 294.0 125.75 268.9 148.15 204.45 L147.85 199.75" fill="url(#gradient0)" fill-rule="evenodd" stroke="none"/>
    <path d="M-290.45 218.6 Q-285.55 225.05 -276.6 234.7 -258.65 253.95 -238.15 270.05 -172.6 321.5 -106.2 321.5" fill="none" stroke="#ffffff" stroke-linecap="round" stroke-linejoin="round" stroke-opacity="0.7490196" stroke-width="1.0"/>
    <path d="M148.15 204.45 L147.85 199.75 191.35 225.45 192.65 228.6 Q186.65 237.85 169.5 258.0 152.25 278.2 93.15 315.7 33.95 353.15 -124.2 316.95" fill="none" stroke="#ffffff" stroke-linecap="round" stroke-linejoin="round" stroke-width="2.0"/>
  </g>
  <defs>
    <linearGradient gradientTransform="matrix(0.1455, 0.1358, -0.0475, 0.0509, 31.4, 273.9)" gradientUnits="userSpaceOnUse" id="gradient0" spreadMethod="pad" x1="-819.2" x2="819.2">
      <stop offset="0.0" stop-color="#ffffff" stop-opacity="0.0"/>
      <stop offset="0.7686274509803922" stop-color="#ffffff" stop-opacity="0.7529412"/>
    </linearGradient>
  </defs>
</svg>
