<?xml version="1.0" encoding="UTF-8" standalone="no"?>
<svg xmlns:ffdec="https://www.free-decompiler.com/flash" xmlns:xlink="http://www.w3.org/1999/xlink" ffdec:objectType="shape" height="276.55px" width="390.2px" xmlns="http://www.w3.org/2000/svg">
  <g transform="matrix(1.0, 0.0, 0.0, 1.0, 159.8, -55.9)">
    <path d="M9.1 96.3 L2.65 100.05 Q3.7 105.05 0.55 109.65 L-0.25 110.9 -1.2 112.15 3.55 116.4 4.35 115.85 Q20.15 128.35 34.45 142.05 87.6 193.2 162.3 206.8 L163.55 205.0 Q96.15 153.15 37.45 93.5 L38.35 92.3 28.9 84.7 19.15 90.4 -3.35 68.55 Q-3.75 64.2 -8.55 63.55 L-9.55 63.45 -10.65 63.55 Q-20.2 58.55 -22.05 68.4 L-22.25 70.55 -21.9 72.15 -20.4 72.95 Q-21.25 77.25 -16.65 78.9 L-15.75 79.1 -14.8 79.1 9.1 96.3" fill="#ffffff" fill-opacity="0.24705882" fill-rule="evenodd" stroke="none"/>
    <path d="M18.5 89.8 Q20.3 92.7 19.95 96.25 19.65 100.15 18.15 103.85 L24.8 106.45 25.5 105.55 Q81.75 131.4 146.05 141.0 186.7 147.0 229.55 139.75 L230.4 137.45 Q139.0 109.25 54.85 69.65 L55.35 68.05 42.5 63.8 33.55 73.4 1.6 59.3 Q1.0 57.8 -0.3 56.95 -3.75 54.9 -8.05 56.95 -13.25 55.7 -17.15 59.35 -18.85 60.9 -18.95 62.65 L-19.1 63.8 -18.85 66.2 -17.65 70.2 -15.8 70.35 -15.2 72.45 Q-13.15 75.65 -8.75 75.0 L-7.65 74.75 24.3 83.45 18.5 89.8" fill="#ffffff" fill-opacity="0.5019608" fill-rule="evenodd" stroke="none"/>
    <path d="M178.25 110.85 L228.6 129.45 227.7 131.1 Q229.2 130.6 226.5 158.05 223.1 191.45 177.5 247.6 131.8 303.75 -37.25 330.65 48.65 306.55 105.05 265.45 161.45 224.35 179.25 115.5 L178.25 110.85" fill="url(#gradient0)" fill-rule="evenodd" stroke="none"/>
    <path d="M-159.3 318.2 Q-122.35 326.9 -74.05 330.45 22.65 337.5 79.7 311.55" fill="none" stroke="#ffffff" stroke-linecap="round" stroke-linejoin="round" stroke-opacity="0.7490196" stroke-width="1.0"/>
    <path d="M179.25 115.5 L178.25 110.85 228.6 129.45 227.7 131.1 Q229.2 130.6 226.5 158.05 223.1 191.45 177.5 247.6 131.8 303.75 -37.25 330.65" fill="none" stroke="#ffffff" stroke-linecap="round" stroke-linejoin="round" stroke-width="2.0"/>
  </g>
  <defs>
    <linearGradient gradientTransform="matrix(0.1522, 0.1139, -0.0558, 0.0746, 65.1, 260.95)" gradientUnits="userSpaceOnUse" id="gradient0" spreadMethod="pad" x1="-819.2" x2="819.2">
      <stop offset="0.0" stop-color="#ffffff" stop-opacity="0.0"/>
      <stop offset="0.7686274509803922" stop-color="#ffffff" stop-opacity="0.7529412"/>
    </linearGradient>
  </defs>
</svg>
