<?xml version="1.0" encoding="UTF-8" standalone="no"?>
<svg xmlns:ffdec="https://www.free-decompiler.com/flash" xmlns:xlink="http://www.w3.org/1999/xlink" ffdec:objectType="shape" height="333.95px" width="357.7px" xmlns="http://www.w3.org/2000/svg">
  <g transform="matrix(1.0, 0.0, 0.0, 1.0, 101.75, -8.55)">
    <path d="M41.4 32.9 L36.25 39.85 Q39.4 44.15 38.25 50.05 L37.8 51.95 37.4 53.85 44.3 55.8 44.85 54.85 Q140.85 91.5 251.35 67.4 L251.9 65.0 Q158.1 46.55 70.3 16.05 L70.65 14.4 57.4 11.5 49.5 22.0 16.25 11.3 Q13.8 7.4 8.45 9.05 L7.45 9.45 6.4 10.0 Q-2.85 9.7 -3.55 17.95 -3.65 19.15 -3.15 20.35 L-1.75 24.2 0.15 24.15 Q1.35 28.8 6.65 28.2 L7.65 27.95 8.7 27.65 41.4 32.9" fill="#ffffff" fill-opacity="0.3019608" fill-rule="evenodd" stroke="none"/>
    <path d="M254.95 62.8 Q249.9 86.0 242.65 114.75 228.05 172.35 216.6 200.15 189.1 267.05 35.15 341.5 110.35 293.65 152.45 238.15 170.05 214.9 184.1 131.55 191.2 89.95 194.7 52.85 L254.95 62.8" fill="url(#gradient0)" fill-rule="evenodd" stroke="none"/>
    <path d="M-101.25 333.15 L-73.65 335.2 Q-39.4 336.6 -6.2 333.35 100.0 322.95 156.05 270.05" fill="none" stroke="#ffffff" stroke-linecap="round" stroke-linejoin="round" stroke-opacity="0.7490196" stroke-width="1.0"/>
    <path d="M35.15 341.5 Q189.1 267.05 216.6 200.15 228.05 172.35 242.65 114.75 249.9 86.0 254.95 62.8 L194.7 52.85" fill="none" stroke="#ffffff" stroke-linecap="round" stroke-linejoin="round" stroke-width="2.0"/>
  </g>
  <defs>
    <linearGradient gradientTransform="matrix(0.1623, 0.0983, -0.0482, 0.0795, 114.1, 235.55)" gradientUnits="userSpaceOnUse" id="gradient0" spreadMethod="pad" x1="-819.2" x2="819.2">
      <stop offset="0.0" stop-color="#ffffff" stop-opacity="0.0"/>
      <stop offset="0.7686274509803922" stop-color="#ffffff" stop-opacity="0.7529412"/>
    </linearGradient>
  </defs>
</svg>
