<?xml version="1.0" encoding="UTF-8" standalone="no"?>
<svg xmlns:ffdec="https://www.free-decompiler.com/flash" xmlns:xlink="http://www.w3.org/1999/xlink" ffdec:objectType="shape" height="85.0px" width="197.1px" xmlns="http://www.w3.org/2000/svg">
  <g transform="matrix(1.0, 0.0, 0.0, 1.0, 358.55, 74.0)">
    <path d="M-357.8 -23.45 Q-359.75 -32.5 -356.5 -46.15 -352.25 -64.25 -316.65 -72.65 -281.05 -81.05 -231.5 -37.15 -216.05 -23.45 -202.7 -5.8 L-192.5 9.1 -192.55 10.2 Q-257.95 12.4 -318.8 0.9 -305.7 -11.5 -319.95 -23.25 -334.2 -35.05 -348.1 -31.0 -357.4 -28.3 -357.8 -23.45" fill="url(#gradient0)" fill-rule="evenodd" stroke="none"/>
    <path d="M-189.05 -18.05 L-188.9 -22.2 Q-190.5 -22.85 -191.55 -24.1 L-192.15 -24.95 -194.65 -28.75 -198.9 -28.65 -199.0 -27.95 Q-241.1 -20.7 -283.8 -15.2 -302.45 -12.7 -313.75 -0.15 L-312.9 1.05 Q-278.4 -9.5 -240.85 -1.95 L-198.25 -5.2 -198.25 -4.8 -197.9 -4.4 -189.7 -5.15 -189.4 -11.5 Q-180.25 -8.8 -171.35 -10.75 -162.65 -12.65 -161.45 -20.15 L-163.1 -20.85 -163.85 -20.6 Q-165.9 -22.2 -168.2 -21.45 L-168.75 -21.2 -169.7 -20.7 -169.8 -19.85 -189.05 -18.05" fill="#ffffff" fill-opacity="0.7019608" fill-rule="evenodd" stroke="none"/>
    <path d="M-193.15 -18.55 Q-195.0 -20.05 -195.8 -22.25 L-197.6 -26.85 -201.8 -27.8 -201.95 -27.1 Q-228.0 -25.65 -254.7 -32.45 -266.5 -35.4 -278.15 -36.5 -296.45 -38.15 -311.35 -30.4 -315.35 -28.3 -318.95 -25.65 L-318.35 -24.2 Q-287.5 -26.95 -256.35 -13.75 L-247.45 -9.85 -205.35 -2.95 -205.4 -2.45 -205.1 -1.95 -197.0 -0.75 -195.55 -7.35 Q-184.7 -1.3 -173.9 -2.85 -170.1 -3.4 -168.15 -6.4 -167.15 -7.9 -166.75 -9.65 L-168.25 -10.85 -169.0 -10.75 -170.05 -11.9 Q-171.15 -12.75 -172.45 -12.8 L-173.1 -12.85 -174.25 -12.55 -174.7 -12.3 -174.95 -11.45 -194.05 -14.2 -193.15 -18.55" fill="#ffffff" fill-opacity="0.24705882" fill-rule="evenodd" stroke="none"/>
    <path d="M-189.05 -13.45 Q-188.85 -13.65 -189.1 -13.95 -190.3 -15.95 -190.05 -19.0 L-189.65 -21.7 -189.55 -21.95 -189.6 -22.55 -189.85 -23.1 -192.4 -24.55 Q-192.75 -24.75 -192.85 -24.4 L-193.1 -23.95 Q-204.2 -24.9 -216.45 -31.85 -222.05 -35.0 -233.35 -43.1 -243.25 -50.35 -249.05 -53.65 -258.3 -58.9 -266.3 -59.9 -277.45 -61.2 -288.55 -54.7 -289.2 -54.45 -289.05 -53.5 -288.9 -52.75 -288.35 -52.45 L-287.7 -52.1 -287.5 -52.0 Q-277.25 -49.6 -265.7 -43.85 L-258.0 -39.75 Q-252.65 -36.75 -250.3 -34.75 -248.55 -33.4 -245.45 -29.8 L-240.35 -24.25 -240.0 -23.9 -237.25 -20.9 -237.15 -20.7 -236.8 -20.3 -236.45 -20.05 -204.7 -2.0 -204.9 -1.55 -204.95 -1.15 -204.65 -0.85 -199.05 2.35 -198.55 2.2 -195.1 -3.55 -179.4 5.9 -179.6 6.3 Q-179.8 7.05 -179.3 8.05 -178.85 8.95 -177.95 9.45 L-176.15 9.8 Q-175.35 9.6 -175.1 8.9 L-175.05 8.65 Q-174.55 10.05 -173.5 10.65 -172.2 11.4 -170.8 10.45 -169.4 9.5 -168.7 7.4 -168.0 5.4 -168.4 3.45 -168.85 1.45 -170.1 0.7 L-172.3 0.6 -172.25 0.4 Q-171.95 -0.4 -172.4 -1.35 -172.9 -2.3 -173.85 -2.8 -174.7 -3.3 -175.55 -3.1 -176.4 -2.95 -176.7 -2.15 L-176.85 -1.75 -191.4 -9.6 -189.05 -13.45 M-266.95 -58.7 L-270.2 -58.85 -267.65 -58.8 -266.95 -58.7" fill="#ffffff" fill-opacity="0.14901961" fill-rule="evenodd" stroke="none"/>
  </g>
  <defs>
    <linearGradient gradientTransform="matrix(0.056, -0.0747, 0.0559, 0.042, -515.1, -200.55)" gradientUnits="userSpaceOnUse" id="gradient0" spreadMethod="pad" x1="-819.2" x2="819.2">
      <stop offset="0.0" stop-color="#ffffff" stop-opacity="0.0"/>
      <stop offset="0.35294117647058826" stop-color="#ffffff" stop-opacity="0.2"/>
      <stop offset="0.6745098039215687" stop-color="#ffffff" stop-opacity="0.5019608"/>
    </linearGradient>
  </defs>
</svg>
