<?xml version="1.0" encoding="UTF-8" standalone="no"?>
<svg xmlns:ffdec="https://www.free-decompiler.com/flash" xmlns:xlink="http://www.w3.org/1999/xlink" ffdec:objectType="shape" height="212.1px" width="206.75px" xmlns="http://www.w3.org/2000/svg">
  <g transform="matrix(1.0, 0.0, 0.0, 1.0, 324.0, 82.5)">
    <path d="M-315.95 -70.55 L-324.0 -76.4 Q-315.25 -80.9 -305.5 -82.1 -286.85 -84.45 -265.7 -72.45 -232.9 -53.85 -204.5 7.7 -174.35 72.7 -117.25 71.3 L-158.0 94.85 Q-200.2 118.95 -207.35 121.6 L-212.8 122.8 Q-219.0 121.7 -234.9 111.1 -250.8 100.45 -267.55 75.9 -284.35 51.35 -290.3 35.55 -296.3 19.7 -293.7 -12.15 L-299.2 -9.25 Q-292.7 -48.85 -302.85 -59.45 -307.1 -63.85 -315.95 -70.55" fill="url(#gradient0)" fill-rule="evenodd" stroke="none"/>
    <path d="M-145.4 35.55 L-147.95 31.8 -150.9 31.75 -151.8 31.45 -155.9 29.75 -158.65 32.55 -158.25 33.2 Q-172.25 58.45 -193.25 77.6 -216.0 98.1 -216.2 129.1 L-214.85 129.6 Q-199.1 98.6 -169.3 81.8 L-143.3 52.3 -143.05 52.65 -142.5 52.8 -137.65 47.05 -141.45 41.35 Q-133.95 37.65 -129.3 30.7 -124.05 22.9 -128.5 16.35 L-130.1 16.85 -130.4 17.55 Q-133.3 17.3 -134.2 20.05 L-134.3 20.55 -134.35 21.1 -133.85 21.85 -145.4 35.55" fill="#ffffff" fill-opacity="0.7019608" fill-rule="evenodd" stroke="none"/>
    <path d="M-146.2 -0.2 L-144.55 -0.25 Q-144.45 2.1 -144.95 4.4 -145.9 8.85 -148.45 12.6 -153.9 20.5 -163.2 21.65 L-160.8 28.15 -166.95 32.75 -167.45 32.5 -167.65 32.1 -200.15 55.5 -216.6 65.65 Q-230.0 74.0 -256.25 92.6 L-257.45 91.8 -256.85 89.8 Q-254.5 81.95 -249.95 75.05 -245.95 69.05 -240.65 64.2 -209.7 36.2 -177.7 9.7 L-177.95 8.95 -174.55 6.85 -171.25 9.75 Q-169.5 11.35 -167.3 10.65 L-165.65 14.95 -151.05 3.95 -151.35 3.05 Q-150.25 1.5 -148.5 0.9 L-146.65 0.45 -146.2 -0.2" fill="#ffffff" fill-opacity="0.24705882" fill-rule="evenodd" stroke="none"/>
    <path d="M-174.3 -12.1 Q-176.7 -11.9 -178.0 -13.75 L-180.5 -17.15 -184.4 -15.85 -184.35 -15.15 Q-218.85 1.0 -253.65 16.7 -264.2 21.4 -272.7 29.15 -280.15 35.95 -285.5 44.4 L-284.55 45.3 Q-254.15 25.85 -219.05 22.45 L-180.5 7.55 -180.4 7.95 -180.0 8.3 -172.65 5.25 -173.25 -1.2 Q-162.65 -0.45 -154.55 -7.8 -151.75 -10.3 -150.3 -13.6 -149.4 -15.55 -148.85 -17.6 L-150.5 -17.9 -151.15 -17.35 -153.0 -17.55 Q-155.0 -17.35 -156.5 -15.9 L-156.5 -15.05 -173.9 -7.9 -174.3 -12.1" fill="#ffffff" fill-opacity="0.14901961" fill-rule="evenodd" stroke="none"/>
  </g>
  <defs>
    <linearGradient gradientTransform="matrix(0.4663, -0.8718, 0.8718, 0.4663, -514.55, -112.2)" gradientUnits="userSpaceOnUse" id="gradient0" spreadMethod="pad" x1="-819.2" x2="819.2">
      <stop offset="0.0" stop-color="#ffffff" stop-opacity="0.0"/>
      <stop offset="0.35294117647058826" stop-color="#ffffff" stop-opacity="0.2"/>
      <stop offset="0.6745098039215687" stop-color="#ffffff" stop-opacity="0.5019608"/>
    </linearGradient>
  </defs>
</svg>
