<?xml version="1.0" encoding="UTF-8" standalone="no"?>
<svg xmlns:ffdec="https://www.free-decompiler.com/flash" xmlns:xlink="http://www.w3.org/1999/xlink" ffdec:objectType="shape" height="194.0px" width="109.0px" xmlns="http://www.w3.org/2000/svg">
  <g transform="matrix(1.0, 0.0, 0.0, 1.0, 309.9, 63.8)">
    <path d="M-291.5 36.55 Q-277.75 72.95 -243.25 94.05 -230.1 102.1 -214.45 109.7 L-201.9 115.65 -221.75 129.2 Q-250.6 115.2 -275.25 77.7 -283.85 64.6 -291.5 36.55" fill="url(#gradient0)" fill-rule="evenodd" stroke="none"/>
    <path d="M-291.5 36.55 Q-283.85 64.6 -275.25 77.7 -250.6 115.2 -221.75 129.2 L-201.9 115.65" fill="none" stroke="#ffffff" stroke-linecap="round" stroke-linejoin="round" stroke-width="2.0"/>
    <path d="M-291.5 36.55 Q-283.85 64.6 -275.25 77.7 -250.6 115.2 -221.75 129.2 L-201.9 115.65" fill="none" stroke="#ffffff" stroke-linecap="round" stroke-linejoin="round" stroke-width="2.0"/>
    <path d="M-308.9 -62.8 Q-304.45 -61.0 -300.75 -55.8 -293.35 -45.4 -296.9 -28.5 -300.6 -11.3 -297.15 8.9 -295.85 16.6 -291.5 36.55" fill="none" stroke="#ffffff" stroke-linecap="round" stroke-linejoin="round" stroke-width="2.0"/>
  </g>
  <defs>
    <linearGradient gradientTransform="matrix(0.0535, 0.0, 0.0, 0.0466, -245.75, 91.0)" gradientUnits="userSpaceOnUse" id="gradient0" spreadMethod="pad" x1="-819.2" x2="819.2">
      <stop offset="0.0" stop-color="#ffffff" stop-opacity="0.0"/>
      <stop offset="0.7686274509803922" stop-color="#ffffff" stop-opacity="0.7529412"/>
    </linearGradient>
  </defs>
</svg>
