<?xml version="1.0" encoding="UTF-8" standalone="no"?>
<svg xmlns:ffdec="https://www.free-decompiler.com/flash" xmlns:xlink="http://www.w3.org/1999/xlink" ffdec:objectType="shape" height="128.1px" width="259.1px" xmlns="http://www.w3.org/2000/svg">
  <g transform="matrix(1.0, 0.0, 0.0, 1.0, 212.35, -29.7)">
    <path d="M-28.9 36.65 Q37.3 44.4 46.75 47.95 39.4 73.9 30.75 92.7 27.7 99.45 20.45 108.55 12.0 119.35 1.35 128.55 -26.9 153.25 -57.9 157.2 -66.4 158.3 -79.85 157.4 -94.05 156.55 -108.8 153.8 -145.05 147.05 -163.25 134.1 -182.1 120.75 -193.35 101.05 -207.75 76.05 -212.35 37.95 -197.45 70.2 -175.6 74.6 -153.75 78.95 -134.4 73.6 -115.2 68.2 -103.8 56.35 -93.1 45.1 -93.25 29.7 L-28.9 36.65" fill="url(#gradient0)" fill-rule="evenodd" stroke="none"/>
    <path d="M-121.85 49.05 L-123.25 52.85 Q-121.35 53.6 -120.3 54.95 L-119.75 55.8 -117.6 59.65 -111.95 60.15 -111.7 59.5 Q-54.75 58.65 2.4 59.45 27.3 59.75 45.55 49.7 L44.8 48.55 Q-3.05 53.5 -49.9 41.4 L-106.3 38.5 -106.25 38.1 -106.6 37.7 -117.45 37.25 -119.65 43.05 Q-130.8 39.3 -142.95 39.9 -154.8 40.4 -158.45 47.15 -157.45 47.55 -156.5 48.05 L-155.45 47.9 Q-153.25 49.6 -150.0 49.3 L-149.2 49.15 -147.85 48.85 -147.5 48.05 -121.85 49.05" fill="#ffffff" fill-opacity="0.7019608" fill-rule="evenodd" stroke="none"/>
    <path d="M-129.35 61.8 Q-126.6 63.3 -125.9 65.7 L-124.4 70.3 -119.25 71.85 -119.0 71.2 Q-68.65 80.95 -18.35 91.75 -7.05 94.25 3.55 93.8 15.7 93.4 25.5 89.5 L24.85 88.0 Q-6.5 85.65 -38.2 73.35 -50.15 68.7 -61.8 62.8 L-113.4 49.3 -113.3 48.85 -113.6 48.35 -123.55 45.9 -125.75 51.8 Q-136.35 45.3 -148.0 44.1 L-154.35 44.35 Q-157.9 45.05 -159.95 47.3 L-161.45 49.1 -159.7 50.45 -158.7 50.5 Q-157.6 51.65 -156.1 52.25 -153.85 53.25 -151.8 52.9 L-151.45 52.1 -127.95 57.9 -129.35 61.8" fill="#ffffff" fill-opacity="0.24705882" fill-rule="evenodd" stroke="none"/>
    <path d="M-160.9 67.65 Q-159.1 70.2 -159.25 73.35 L-159.25 79.35 -155.55 82.5 -155.25 81.75 Q-118.15 105.15 -81.3 129.75 -73.05 135.3 -64.6 137.15 -54.9 139.2 -46.1 136.5 L-46.2 134.55 Q-70.35 124.65 -92.05 102.25 -100.25 93.75 -107.85 83.85 L-144.95 55.5 -144.75 55.0 -144.9 54.25 -152.05 49.0 -155.35 55.9 Q-162.0 45.4 -170.85 41.4 -173.4 40.25 -176.0 40.3 -178.95 40.35 -181.15 42.75 L-182.85 44.7 -181.75 46.75 -181.05 46.95 Q-180.45 48.65 -179.45 49.85 -177.95 51.55 -176.2 51.55 L-175.75 50.65 -158.75 63.05 -160.9 67.65" fill="#ffffff" fill-opacity="0.14901961" fill-rule="evenodd" stroke="none"/>
  </g>
  <defs>
    <linearGradient gradientTransform="matrix(-0.0867, 0.011, -0.0079, -0.0566, 18.3, 104.95)" gradientUnits="userSpaceOnUse" id="gradient0" spreadMethod="pad" x1="-819.2" x2="819.2">
      <stop offset="0.0" stop-color="#ffffff" stop-opacity="0.0"/>
      <stop offset="0.35294117647058826" stop-color="#ffffff" stop-opacity="0.2"/>
      <stop offset="0.6745098039215687" stop-color="#ffffff" stop-opacity="0.5019608"/>
    </linearGradient>
  </defs>
</svg>
