<?xml version="1.0" encoding="UTF-8" standalone="no"?>
<svg xmlns:ffdec="https://www.free-decompiler.com/flash" xmlns:xlink="http://www.w3.org/1999/xlink" ffdec:objectType="shape" height="117.0px" width="179.15px" xmlns="http://www.w3.org/2000/svg">
  <g transform="matrix(1.0, 0.0, 0.0, 1.0, 125.5, -41.45)">
    <path d="M17.7 42.45 L52.65 48.6 Q49.45 58.05 45.5 67.3 37.6 85.85 27.45 101.55 -5.1 151.85 -48.4 155.45 -42.2 152.75 -33.4 147.65 -15.85 137.4 -2.95 125.2 38.4 86.2 17.7 42.45" fill="url(#gradient0)" fill-rule="evenodd" stroke="none"/>
    <path d="M17.7 42.45 L52.65 48.6 Q49.45 58.05 45.5 67.3 37.6 85.85 27.45 101.55 -5.1 151.85 -48.4 155.45" fill="none" stroke="#ffffff" stroke-linecap="round" stroke-linejoin="round" stroke-width="2.0"/>
    <path d="M17.7 42.45 L52.65 48.6 Q49.45 58.05 45.5 67.3 37.6 85.85 27.45 101.55 -5.1 151.85 -48.4 155.45" fill="none" stroke="#ffffff" stroke-linecap="round" stroke-linejoin="round" stroke-width="2.0"/>
    <path d="M-124.5 150.25 Q-112.2 153.1 -96.85 155.25 -66.1 159.55 -48.4 155.45" fill="none" stroke="#ffffff" stroke-linecap="round" stroke-linejoin="round" stroke-width="2.0"/>
  </g>
  <defs>
    <linearGradient gradientTransform="matrix(0.0617, 0.0, 0.0, 0.069, 2.1, 98.95)" gradientUnits="userSpaceOnUse" id="gradient0" spreadMethod="pad" x1="-819.2" x2="819.2">
      <stop offset="0.0" stop-color="#ffffff" stop-opacity="0.0"/>
      <stop offset="0.7686274509803922" stop-color="#ffffff" stop-opacity="0.7529412"/>
    </linearGradient>
  </defs>
</svg>
