<?xml version="1.0" encoding="UTF-8" standalone="no"?>
<svg xmlns:ffdec="https://www.free-decompiler.com/flash" xmlns:xlink="http://www.w3.org/1999/xlink" ffdec:objectType="shape" height="114.3px" width="216.65px" xmlns="http://www.w3.org/2000/svg">
  <g transform="matrix(1.0, 0.0, 0.0, 1.0, 163.85, 32.2)">
    <path d="M14.65 73.6 L6.65 76.7 15.2 73.35 6.65 76.7 Q-3.05 80.0 -12.15 80.65 -31.65 82.0 -48.65 78.15 -65.65 74.25 -72.95 74.85 -71.1 74.15 -57.4 72.4 -43.45 70.55 -35.55 67.75 -9.3 58.35 -24.25 31.45 -37.1 8.3 -87.05 -8.7 -112.3 -17.3 -137.6 -21.75 L-24.05 -29.25 Q-0.65 -25.85 26.65 -4.15 53.9 17.5 52.75 34.95 51.55 52.4 29.45 65.85 L26.2 67.75 Q20.7 70.9 15.35 73.3 L15.2 73.35 14.65 73.6" fill="url(#gradient0)" fill-rule="evenodd" stroke="none"/>
    <path d="M14.65 73.6 L15.2 73.35 6.65 76.7 M26.2 67.75 Q20.7 70.9 15.35 73.3 L15.2 73.35" fill="none" stroke="#ffffff" stroke-linecap="round" stroke-linejoin="round" stroke-width="2.0"/>
    <path d="M-135.35 1.4 L-135.75 6.4 Q-133.9 7.25 -132.85 9.0 L-132.55 9.5 -130.15 13.85 -125.7 13.4 -125.65 12.55 Q-112.6 7.15 -98.7 4.7 -70.3 -0.15 -42.45 -7.35 -20.8 -12.95 -6.7 -30.85 L-7.55 -32.2 Q-43.35 -16.4 -81.6 -22.35 L-125.45 -14.85 -125.45 -15.35 -125.8 -15.8 -134.2 -14.15 -134.8 -6.5 Q-144.9 -8.95 -154.8 -5.15 -162.75 -2.1 -163.85 6.3 L-162.15 7.0 -161.35 6.6 Q-159.4 8.45 -156.95 7.35 L-155.8 6.7 -155.4 6.3 -155.25 5.25 -135.35 1.4" fill="#ffffff" fill-opacity="0.24705882" fill-rule="evenodd" stroke="none"/>
    <path d="M50.9 35.2 Q25.65 49.05 -1.75 45.8 -39.2 41.35 -76.9 38.55 L-77.3 39.3 -81.6 38.4 -81.8 33.5 -81.8 32.85 Q-82.1 30.65 -84.05 29.6 L-81.8 25.0 -109.6 19.75 -110.1 20.75 -111.2 20.95 Q-114.1 21.25 -115.8 19.1 L-116.7 19.25 -118.0 18.0 Q-115.8 15.5 -108.25 14.4 L-93.95 14.8 Q-87.6 14.6 -78.25 17.7 L-74.75 10.7 -66.25 11.8 -66.1 12.35 -66.3 12.85 -22.4 19.5 28.6 30.15 Q46.15 33.9 50.65 33.65 L50.9 35.2" fill="#ffffff" fill-opacity="0.14901961" fill-rule="evenodd" stroke="none"/>
    <path d="M-115.15 26.25 L-118.25 29.3 Q-116.95 30.85 -117.3 32.8 L-117.5 33.35 -118.75 37.5 -115.5 39.75 -114.95 39.25 Q-83.0 59.65 -56.5 71.85 -30.0 84.05 -10.35 81.7 L-10.1 80.3 Q-40.15 62.4 -65.45 42.7 L-99.2 21.65 -98.9 21.3 -98.9 20.75 -105.45 16.85 -110.2 21.45 Q-114.65 13.95 -123.2 11.45 -130.4 9.45 -137.05 12.6 L-136.3 14.0 -135.55 14.25 Q-134.75 16.25 -132.75 17.2 L-132.05 17.4 -131.35 17.55 -130.7 17.0 -115.15 26.25" fill="#ffffff" fill-opacity="0.14901961" fill-rule="evenodd" stroke="none"/>
  </g>
  <defs>
    <linearGradient gradientTransform="matrix(0.095, 0.0, 0.0, 0.0711, 18.55, 47.2)" gradientUnits="userSpaceOnUse" id="gradient0" spreadMethod="pad" x1="-819.2" x2="819.2">
      <stop offset="0.0" stop-color="#ffffff" stop-opacity="0.0"/>
      <stop offset="0.35294117647058826" stop-color="#ffffff" stop-opacity="0.2"/>
      <stop offset="0.6745098039215687" stop-color="#ffffff" stop-opacity="0.5019608"/>
    </linearGradient>
  </defs>
</svg>
