<?xml version="1.0" encoding="UTF-8" standalone="no"?>
<svg xmlns:ffdec="https://www.free-decompiler.com/flash" xmlns:xlink="http://www.w3.org/1999/xlink" ffdec:objectType="shape" height="112.65px" width="126.65px" xmlns="http://www.w3.org/2000/svg">
  <g transform="matrix(1.0, 0.0, 0.0, 1.0, 72.65, 31.4)">
    <path d="M-23.95 -29.35 L-6.9 -30.4 Q-0.45 -26.75 8.2 -20.7 25.55 -8.55 36.65 3.6 52.15 20.65 52.95 35.35 53.65 47.8 37.95 59.95 L38.7 58.9 Q45.65 48.25 45.65 36.9 45.65 0.55 -23.95 -29.35" fill="url(#gradient0)" fill-rule="evenodd" stroke="none"/>
    <path d="M37.95 59.95 Q33.75 64.9 19.45 71.3 30.5 65.65 37.95 59.95" fill="url(#gradient1)" fill-rule="evenodd" stroke="none"/>
    <path d="M-23.95 -29.35 L-6.9 -30.4 Q-0.45 -26.75 8.2 -20.7 25.55 -8.55 36.65 3.6 52.15 20.65 52.95 35.35 53.65 47.8 37.95 59.95 33.75 64.9 19.45 71.3 30.5 65.65 37.95 59.95" fill="none" stroke="#ffffff" stroke-linecap="round" stroke-linejoin="round" stroke-width="2.0"/>
    <path d="M37.95 59.95 Q33.75 64.9 19.45 71.3 30.5 65.65 37.95 59.95" fill="url(#gradient2)" fill-rule="evenodd" stroke="none"/>
    <path d="M-23.95 -29.35 L-6.9 -30.4 Q-0.45 -26.75 8.2 -20.7 25.55 -8.55 36.65 3.6 52.15 20.65 52.95 35.35 53.65 47.8 37.95 59.95 33.75 64.9 19.45 71.3 30.5 65.65 37.95 59.95" fill="none" stroke="#ffffff" stroke-linecap="round" stroke-linejoin="round" stroke-width="2.0"/>
    <path d="M-71.65 65.65 Q-64.15 71.5 -50.65 75.8 -23.6 84.35 6.6 76.55" fill="none" stroke="#ffffff" stroke-linecap="round" stroke-linejoin="round" stroke-width="2.0"/>
  </g>
  <defs>
    <linearGradient gradientTransform="matrix(0.047, 0.0, 0.0, 0.0551, 14.5, 14.75)" gradientUnits="userSpaceOnUse" id="gradient0" spreadMethod="pad" x1="-819.2" x2="819.2">
      <stop offset="0.0" stop-color="#ffffff" stop-opacity="0.0"/>
      <stop offset="0.7686274509803922" stop-color="#ffffff" stop-opacity="0.7529412"/>
    </linearGradient>
    <linearGradient gradientTransform="matrix(0.0113, 0.0, 0.0, 0.0069, 28.7, 65.6)" gradientUnits="userSpaceOnUse" id="gradient1" spreadMethod="pad" x1="-819.2" x2="819.2">
      <stop offset="0.0" stop-color="#ffffff" stop-opacity="0.0"/>
      <stop offset="0.7686274509803922" stop-color="#ffffff" stop-opacity="0.7529412"/>
    </linearGradient>
    <linearGradient gradientTransform="matrix(0.0113, 0.0, 0.0, 0.0069, 28.7, 65.6)" gradientUnits="userSpaceOnUse" id="gradient2" spreadMethod="pad" x1="-819.2" x2="819.2">
      <stop offset="0.0" stop-color="#ffffff" stop-opacity="0.0"/>
      <stop offset="0.7686274509803922" stop-color="#ffffff" stop-opacity="0.7529412"/>
    </linearGradient>
  </defs>
</svg>
