<?xml version="1.0" encoding="UTF-8" standalone="no"?>
<svg xmlns:ffdec="https://www.free-decompiler.com/flash" xmlns:xlink="http://www.w3.org/1999/xlink" ffdec:objectType="shape" height="187.6px" width="276.4px" xmlns="http://www.w3.org/2000/svg">
  <g transform="matrix(1.0, 0.0, 0.0, 1.0, 223.7, 109.45)">
    <path d="M-204.0 -22.4 L-223.7 -109.45 Q-184.1 -98.4 -167.3 -94.65 -150.6 -90.9 -131.6 -82.9 -112.55 -74.9 -84.7 -63.6 -56.9 -52.35 -30.75 -40.2 -4.65 -28.05 24.75 -7.55 54.1 12.95 52.65 23.95 51.1 34.85 45.75 45.1 40.35 55.35 22.35 65.4 7.1 73.95 -10.15 78.15 -1.1 74.1 8.2 58.6 20.9 37.5 1.45 20.45 -18.1 3.5 -49.05 -3.95 -79.95 -11.3 -109.8 -15.7 L-157.25 -23.1 Q-174.85 -26.15 -204.0 -22.4" fill="url(#gradient0)" fill-rule="evenodd" stroke="none"/>
  </g>
  <defs>
    <linearGradient gradientTransform="matrix(-0.1073, -0.0355, 0.0281, -0.0753, 29.35, -2.05)" gradientUnits="userSpaceOnUse" id="gradient0" spreadMethod="pad" x1="-819.2" x2="819.2">
      <stop offset="0.0" stop-color="#ffffff" stop-opacity="0.0"/>
      <stop offset="0.35294117647058826" stop-color="#ffffff" stop-opacity="0.2"/>
      <stop offset="0.6745098039215687" stop-color="#ffffff" stop-opacity="0.5019608"/>
    </linearGradient>
  </defs>
</svg>
