<?xml version="1.0" encoding="UTF-8" standalone="no"?>
<svg xmlns:ffdec="https://www.free-decompiler.com/flash" xmlns:xlink="http://www.w3.org/1999/xlink" ffdec:objectType="shape" height="195.0px" width="276.45px" xmlns="http://www.w3.org/2000/svg">
  <g transform="matrix(1.0, 0.0, 0.0, 1.0, 223.3, 113.5)">
    <path d="M-198.4 -22.45 L-194.85 -21.95 -194.1 -23.05 Q-192.85 -24.3 -191.0 -24.95 L-190.3 -25.15 -189.6 -25.3 -189.95 -28.3 -190.55 -28.4 Q-200.15 -61.5 -211.0 -94.25 -214.0 -103.3 -221.6 -110.0 L-222.55 -109.5 Q-218.95 -100.9 -217.0 -92.0 -213.5 -75.65 -215.4 -59.6 L-209.9 -29.95 -210.3 -29.95 -210.6 -29.75 -209.4 -24.05 -204.0 -23.25 Q-206.0 -17.45 -203.15 -11.6 -200.5 -6.15 -194.85 -3.15 L-194.35 -4.25 -194.65 -4.85 Q-194.1 -6.1 -194.45 -7.5 L-194.65 -8.15 -194.85 -8.85 -195.6 -9.0 -198.4 -22.45" fill="#ffffff" fill-opacity="0.7019608" fill-rule="evenodd" stroke="none"/>
    <path d="M-159.55 -6.75 Q-158.9 -8.45 -157.65 -9.5 L-155.2 -11.55 -154.85 -14.6 -155.25 -14.55 Q-155.25 -37.1 -154.4 -60.15 -154.05 -69.0 -154.7 -77.2 -155.25 -84.35 -158.15 -89.2 L-160.4 -92.15 -161.15 -91.45 Q-159.35 -76.6 -162.1 -59.5 -163.6 -50.35 -166.35 -41.0 L-168.55 -11.35 -168.85 -11.25 -169.1 -10.9 -169.45 -5.3 -165.75 -5.8 Q-168.6 1.9 -167.75 8.35 -167.55 10.35 -166.55 11.5 -165.45 12.6 -164.0 12.8 L-163.4 12.85 -162.85 11.65 -162.95 11.1 -162.55 10.4 Q-162.1 9.6 -162.05 8.7 L-162.0 8.4 -162.3 7.0 -162.8 7.0 -162.0 -6.4 -159.55 -6.75" fill="#ffffff" fill-opacity="0.24705882" fill-rule="evenodd" stroke="none"/>
    <path d="M-110.3 14.35 Q-109.15 13.5 -107.6 13.65 L-104.6 13.85 -103.35 11.35 -103.75 11.05 Q-95.4 -15.45 -85.3 -41.4 -83.4 -46.15 -83.2 -51.25 -82.9 -58.1 -84.8 -64.6 L-85.3 -66.2 -86.3 -66.2 Q-93.85 -43.4 -106.55 -23.85 L-117.65 1.8 -117.9 1.7 -118.3 1.75 -120.3 6.7 -116.6 9.5 Q-122.65 15.3 -122.8 23.6 -122.8 25.3 -121.95 26.85 L-120.45 28.7 -119.95 29.1 -119.05 28.5 -118.95 27.95 -117.95 27.4 Q-117.25 26.85 -117.1 25.85 L-117.1 25.4 -117.1 24.7 -117.55 24.25 -112.75 12.5 -110.3 14.35" fill="#ffffff" fill-opacity="0.14901961" fill-rule="evenodd" stroke="none"/>
    <path d="M-219.1 -76.9 L-222.3 -112.5 Q-203.2 -108.25 -175.15 -100.6 -119.0 -85.2 -73.9 -67.75 -10.8 -43.3 21.1 -18.15 60.85 13.1 49.75 43.65 51.1 37.85 48.75 28.8 43.95 10.45 24.75 -6.25 -36.65 -59.65 -219.1 -76.9" fill="url(#gradient0)" fill-rule="evenodd" stroke="none"/>
    <path d="M-219.1 -76.9 L-222.3 -112.5 Q-203.2 -108.25 -175.15 -100.6 -119.0 -85.2 -73.9 -67.75 -10.8 -43.3 21.1 -18.15 60.85 13.1 49.75 43.65" fill="none" stroke="#ffffff" stroke-linecap="round" stroke-linejoin="round" stroke-width="2.0"/>
    <path d="M-219.1 -76.9 L-222.3 -112.5 Q-203.2 -108.25 -175.15 -100.6 -119.0 -85.2 -73.9 -67.75 -10.8 -43.3 21.1 -18.15 60.85 13.1 49.75 43.65" fill="none" stroke="#ffffff" stroke-linecap="round" stroke-linejoin="round" stroke-width="2.0"/>
    <path d="M-5.15 80.5 Q4.75 79.6 16.55 74.55 40.15 64.5 49.75 43.65" fill="none" stroke="#ffffff" stroke-linecap="round" stroke-linejoin="round" stroke-width="2.0"/>
  </g>
  <defs>
    <linearGradient gradientTransform="matrix(0.1675, 0.0, 0.0, 0.0953, -85.1, -34.4)" gradientUnits="userSpaceOnUse" id="gradient0" spreadMethod="pad" x1="-819.2" x2="819.2">
      <stop offset="0.0" stop-color="#ffffff" stop-opacity="0.0"/>
      <stop offset="0.7686274509803922" stop-color="#ffffff" stop-opacity="0.7529412"/>
    </linearGradient>
  </defs>
</svg>
