<?xml version="1.0" encoding="UTF-8" standalone="no"?>
<svg xmlns:ffdec="https://www.free-decompiler.com/flash" xmlns:xlink="http://www.w3.org/1999/xlink" ffdec:objectType="shape" height="104.35px" width="355.0px" xmlns="http://www.w3.org/2000/svg">
  <g transform="matrix(1.0, 0.0, 0.0, 1.0, 323.65, 105.95)">
    <path d="M-171.6 -21.35 L-188.75 -21.35 -311.35 -97.95 Q-234.4 -104.6 -180.1 -99.45 -125.9 -94.3 -90.15 -82.85 -54.35 -71.4 -19.5 -56.9 15.35 -42.45 31.35 -14.6 -28.0 -50.4 -78.25 -37.0 -93.95 -35.95 -166.7 -22.25 L-171.6 -21.35" fill="url(#gradient0)" fill-rule="evenodd" stroke="none"/>
    <path d="M-193.65 -23.0 L-188.5 -26.35 Q-189.95 -28.45 -188.85 -30.75 L-188.5 -31.35 -185.6 -36.35 -189.45 -39.6 -190.3 -39.0 Q-230.85 -67.3 -274.6 -92.05 -296.15 -104.25 -322.95 -104.05 L-323.65 -102.45 -319.15 -100.3 Q-280.6 -81.85 -257.75 -49.4 L-217.0 -19.25 -217.55 -18.9 -217.7 -18.2 -209.75 -12.6 -201.85 -17.7 Q-197.85 -8.3 -187.65 -3.85 -177.95 0.4 -167.25 -3.45 L-167.9 -5.3 -168.8 -5.65 Q-169.3 -7.95 -171.4 -9.35 L-172.5 -9.85 -173.75 -10.3 -174.85 -9.65 -193.65 -23.0" fill="#ffffff" fill-opacity="0.7019608" fill-rule="evenodd" stroke="none"/>
    <path d="M-174.15 -40.2 Q-175.2 -42.0 -175.35 -43.6 L-175.65 -46.85 -178.05 -49.45 -178.2 -49.15 Q-194.5 -70.1 -208.95 -81.1 -223.35 -92.15 -230.65 -98.05 -236.95 -103.25 -242.75 -105.1 L-246.5 -105.95 -246.35 -104.85 Q-233.95 -91.75 -224.15 -80.15 -214.3 -68.55 -206.95 -62.3 L-183.2 -37.85 -183.35 -37.65 -183.25 -37.2 -178.65 -32.55 -177.0 -35.4 Q-172.15 -27.6 -166.2 -23.1 -164.4 -21.65 -162.85 -21.5 -161.3 -21.35 -160.25 -22.15 L-159.9 -22.5 -160.6 -23.85 -161.1 -24.15 -161.45 -25.0 Q-161.9 -25.9 -162.65 -26.65 L-162.9 -26.95 -164.2 -27.8 -164.45 -27.45 -175.25 -38.35 -174.15 -40.2" fill="#ffffff" fill-opacity="0.24705882" fill-rule="evenodd" stroke="none"/>
  </g>
  <defs>
    <linearGradient gradientTransform="matrix(-0.0184, -0.1458, 0.1007, -0.0149, 105.9, -54.95)" gradientUnits="userSpaceOnUse" id="gradient0" spreadMethod="pad" x1="-819.2" x2="819.2">
      <stop offset="0.0" stop-color="#ffffff" stop-opacity="0.0"/>
      <stop offset="0.35294117647058826" stop-color="#ffffff" stop-opacity="0.2"/>
      <stop offset="0.6745098039215687" stop-color="#ffffff" stop-opacity="0.5019608"/>
    </linearGradient>
  </defs>
</svg>
