<?xml version="1.0" encoding="UTF-8" standalone="no"?>
<svg xmlns:ffdec="https://www.free-decompiler.com/flash" xmlns:xlink="http://www.w3.org/1999/xlink" ffdec:objectType="shape" height="120.7px" width="372.6px" xmlns="http://www.w3.org/2000/svg">
  <g transform="matrix(1.0, 0.0, 0.0, 1.0, 325.1, 109.75)">
    <path d="M-287.6 -78.8 L-324.1 -108.75 Q-314.35 -104.35 -294.85 -106.0 -255.9 -109.25 -216.3 -107.55 -89.5 -102.05 -3.45 -48.95 -14.5 -54.7 -32.85 -62.25 -69.4 -77.35 -105.5 -86.8 -156.05 -100.05 -198.25 -99.95 -250.95 -99.8 -287.6 -78.8" fill="url(#gradient0)" fill-rule="evenodd" stroke="none"/>
    <path d="M-287.6 -78.8 L-324.1 -108.75 Q-314.35 -104.35 -294.85 -106.0 -255.9 -109.25 -216.3 -107.55 -89.5 -102.05 -3.45 -48.95" fill="none" stroke="#ffffff" stroke-linecap="round" stroke-linejoin="round" stroke-width="2.0"/>
    <path d="M-287.6 -78.8 L-323.75 -108.0 Q-314.35 -104.35 -294.85 -106.0 -255.9 -109.25 -216.3 -107.55 -89.5 -102.05 -3.45 -48.95" fill="none" stroke="#ffffff" stroke-linecap="round" stroke-linejoin="round" stroke-width="2.0"/>
    <path d="M46.5 9.95 L43.6 0.55 Q34.95 -26.4 -3.45 -48.95" fill="none" stroke="#ffffff" stroke-linecap="round" stroke-linejoin="round" stroke-width="2.0"/>
  </g>
  <defs>
    <linearGradient gradientTransform="matrix(-0.0334, -0.1597, 0.0432, -0.0061, -165.4, -77.05)" gradientUnits="userSpaceOnUse" id="gradient0" spreadMethod="pad" x1="-819.2" x2="819.2">
      <stop offset="0.0" stop-color="#ffffff" stop-opacity="0.0"/>
      <stop offset="0.7686274509803922" stop-color="#ffffff" stop-opacity="0.7529412"/>
    </linearGradient>
  </defs>
</svg>
