<?xml version="1.0" encoding="UTF-8" standalone="no"?>
<svg xmlns:ffdec="https://www.free-decompiler.com/flash" xmlns:xlink="http://www.w3.org/1999/xlink" ffdec:objectType="shape" height="73.35px" width="179.9px" xmlns="http://www.w3.org/2000/svg">
  <g transform="matrix(1.0, 0.0, 0.0, 1.0, 344.7, 73.8)">
    <path d="M-195.95 -20.45 L-191.7 -25.1 Q-193.0 -27.8 -192.45 -30.8 L-191.9 -33.3 -191.3 -35.75 Q-193.65 -36.85 -195.95 -38.05 L-196.65 -37.25 Q-209.55 -39.15 -221.85 -42.65 -251.75 -51.1 -278.5 -64.9 -308.55 -80.5 -344.4 -68.8 L-344.7 -67.0 Q-297.65 -60.6 -266.0 -30.7 L-218.0 -10.95 -218.45 -10.4 -218.45 -9.75 -209.15 -6.15 -202.6 -13.15 Q-195.45 -7.45 -187.05 -3.45 -170.8 4.15 -164.8 -7.6 L-165.9 -9.3 -166.9 -9.45 Q-167.45 -13.15 -171.45 -13.1 L-172.15 -13.05 -172.95 -12.8 -173.9 -11.9 -195.95 -20.45" fill="#ffffff" fill-opacity="0.7019608" fill-rule="evenodd" stroke="none"/>
  </g>
</svg>
