<?xml version="1.0" encoding="UTF-8" standalone="no"?>
<svg xmlns:ffdec="https://www.free-decompiler.com/flash" xmlns:xlink="http://www.w3.org/1999/xlink" ffdec:objectType="shape" height="99.95px" width="139.1px" xmlns="http://www.w3.org/2000/svg">
  <g transform="matrix(1.0, 0.0, 0.0, 1.0, 244.5, 78.0)">
    <path d="M-213.6 -78.0 Q-231.85 -58.6 -222.5 -52.05 -217.8 -48.75 -209.5 -49.35 -154.7 -64.85 -131.45 -51.35 -108.25 -37.85 -105.4 -24.8 L-121.2 21.95 -132.7 2.4 Q-137.75 -6.4 -143.55 -11.65 -153.1 -20.3 -166.8 -22.65 -179.2 -24.8 -196.5 -22.75 L-208.9 -21.1 -218.75 -20.35 Q-235.35 -20.8 -242.05 -35.95 -248.8 -51.15 -237.05 -62.2 -225.3 -73.3 -213.6 -78.0" fill="url(#gradient0)" fill-rule="evenodd" stroke="none"/>
  </g>
  <defs>
    <linearGradient gradientTransform="matrix(0.0281, -0.0903, 0.0676, 0.0211, 33.55, 7.2)" gradientUnits="userSpaceOnUse" id="gradient0" spreadMethod="pad" x1="-819.2" x2="819.2">
      <stop offset="0.0" stop-color="#ffffff" stop-opacity="0.0"/>
      <stop offset="0.35294117647058826" stop-color="#ffffff" stop-opacity="0.2"/>
      <stop offset="0.6745098039215687" stop-color="#ffffff" stop-opacity="0.5019608"/>
    </linearGradient>
  </defs>
</svg>
