<?xml version="1.0" encoding="UTF-8" standalone="no"?>
<svg xmlns:ffdec="https://www.free-decompiler.com/flash" xmlns:xlink="http://www.w3.org/1999/xlink" ffdec:objectType="shape" height="67.65px" width="144.85px" xmlns="http://www.w3.org/2000/svg">
  <g transform="matrix(1.0, 0.0, 0.0, 1.0, 249.6, 93.5)">
    <path d="M-204.6 -44.4 Q-235.55 -43.5 -230.35 -57.6 -227.75 -64.65 -218.95 -71.9 -223.65 -67.4 -225.35 -62.95 -227.15 -58.15 -224.55 -55.5 -217.95 -48.85 -188.95 -59.35 -162.1 -69.1 -131.25 -56.55 -121.6 -52.65 -112.7 -47.0 L-105.75 -42.1 -111.2 -26.85 Q-121.45 -34.45 -143.65 -39.5 -170.9 -45.65 -204.6 -44.4" fill="url(#gradient0)" fill-rule="evenodd" stroke="none"/>
    <path d="M-111.2 -26.85 L-105.75 -42.1 -112.7 -47.0 Q-121.6 -52.65 -131.25 -56.55 -162.1 -69.1 -188.95 -59.35 -217.95 -48.85 -224.55 -55.5 -227.15 -58.15 -225.35 -62.95 -223.65 -67.4 -218.95 -71.9 -227.75 -64.65 -230.35 -57.6 -235.55 -43.5 -204.6 -44.4" fill="none" stroke="#ffffff" stroke-linecap="round" stroke-linejoin="round" stroke-width="2.0"/>
    <path d="M-111.2 -26.85 L-105.75 -42.1 -112.7 -47.0 Q-121.6 -52.65 -131.25 -56.55 -162.1 -69.1 -188.95 -59.35 -217.95 -48.85 -224.55 -55.5 -227.15 -58.15 -225.35 -62.95 -223.65 -67.4 -218.95 -71.9" fill="none" stroke="#ffffff" stroke-linecap="round" stroke-linejoin="round" stroke-width="2.0"/>
    <path d="M-248.6 -92.45 Q-235.95 -92.9 -225.9 -90.55 -205.85 -85.9 -218.95 -71.9" fill="none" stroke="#ffffff" stroke-linecap="round" stroke-linejoin="round" stroke-width="2.0"/>
  </g>
  <defs>
    <linearGradient gradientTransform="matrix(0.0765, 0.0, 0.0, 0.0275, -168.45, -49.4)" gradientUnits="userSpaceOnUse" id="gradient0" spreadMethod="pad" x1="-819.2" x2="819.2">
      <stop offset="0.0" stop-color="#ffffff" stop-opacity="0.0"/>
      <stop offset="0.7686274509803922" stop-color="#ffffff" stop-opacity="0.7529412"/>
    </linearGradient>
  </defs>
</svg>
