<?xml version="1.0" encoding="UTF-8" standalone="no"?>
<svg xmlns:ffdec="https://www.free-decompiler.com/flash" xmlns:xlink="http://www.w3.org/1999/xlink" ffdec:objectType="shape" height="211.55px" width="246.9px" xmlns="http://www.w3.org/2000/svg">
  <g transform="matrix(1.0, 0.0, 0.0, 1.0, 189.35, 42.35)">
    <path d="M-189.35 -35.2 Q-146.85 -49.35 -92.95 -35.45 -39.15 -21.6 2.25 15.35 43.65 52.2 54.85 85.65 66.0 119.05 30.8 169.05 L-71.15 83.15 Q-62.7 74.6 -62.0 63.05 -61.75 58.25 -64.1 52.0 L-68.75 40.3 Q-85.5 -5.55 -139.1 -25.0 -155.85 -31.05 -174.3 -33.75 L-185.3 -35.0 -189.35 -35.2" fill="url(#gradient0)" fill-rule="evenodd" stroke="none"/>
    <path d="M-73.8 39.05 Q-70.95 39.6 -68.45 37.7 L-63.45 34.0 Q-61.1 35.75 -58.85 37.45 L-59.3 38.5 Q-21.2 79.6 18.6 118.6 26.45 126.35 32.25 136.15 41.1 151.0 44.9 168.15 L43.25 169.2 Q17.45 132.4 -20.55 114.0 L-31.55 108.85 -74.75 71.05 -75.1 71.7 -75.75 72.0 -83.95 64.6 -80.2 55.05 Q-94.35 49.7 -103.7 36.4 -105.9 33.35 -106.0 29.6 -106.0 27.3 -105.05 25.25 -103.85 22.85 -102.1 21.05 L-101.5 22.05 -98.9 22.1 Q-97.35 22.65 -96.35 24.1 L-95.85 24.9 -95.15 26.35 -95.65 27.65 -76.25 45.3 -73.8 39.05" fill="#ffffff" fill-opacity="0.7019608" fill-rule="evenodd" stroke="none"/>
    <path d="M-100.6 -7.0 Q-100.2 -10.2 -98.8 -13.7 -97.5 -17.25 -93.45 -17.55 L-88.25 -16.1 -88.25 -14.75 Q-43.65 6.2 1.4 25.4 16.65 31.85 29.65 44.85 41.05 56.15 49.7 71.15 L48.65 73.15 Q21.65 55.85 -2.5 52.5 -26.75 49.15 -38.4 46.1 L-89.8 27.4 -89.85 28.25 -90.35 28.9 -100.1 25.05 -100.35 13.1 Q-112.45 16.65 -123.35 7.3 -130.1 1.5 -133.05 -8.4 L-133.85 -11.3 -131.85 -12.1 -130.95 -11.4 Q-129.8 -12.05 -128.65 -12.15 -125.95 -12.3 -123.9 -9.9 L-123.8 -8.3 -100.5 0.85 -100.6 -7.0" fill="#ffffff" fill-opacity="0.24705882" fill-rule="evenodd" stroke="none"/>
  </g>
  <defs>
    <linearGradient gradientTransform="matrix(0.0733, -0.0187, 0.014, 0.0549, -49.3, 1.0)" gradientUnits="userSpaceOnUse" id="gradient0" spreadMethod="pad" x1="-819.2" x2="819.2">
      <stop offset="0.0" stop-color="#ffffff" stop-opacity="0.0"/>
      <stop offset="0.35294117647058826" stop-color="#ffffff" stop-opacity="0.2"/>
      <stop offset="0.6745098039215687" stop-color="#ffffff" stop-opacity="0.5019608"/>
    </linearGradient>
  </defs>
</svg>
