<?xml version="1.0" encoding="UTF-8" standalone="no"?>
<svg xmlns:ffdec="https://www.free-decompiler.com/flash" xmlns:xlink="http://www.w3.org/1999/xlink" ffdec:objectType="shape" height="231.25px" width="230.95px" xmlns="http://www.w3.org/2000/svg">
  <g transform="matrix(1.0, 0.0, 0.0, 1.0, 169.9, 61.35)">
    <path d="M-67.3 -27.35 Q-55.95 -23.45 -40.1 -15.5 -8.3 0.4 14.55 20.65 46.55 48.95 56.1 81.85 68.05 122.95 44.05 168.9 L17.6 149.75 Q23.65 144.25 29.85 134.55 42.25 115.2 43.2 94.5 44.45 65.45 22.5 37.75 -4.95 3.15 -67.3 -27.35" fill="url(#gradient0)" fill-rule="evenodd" stroke="none"/>
    <path d="M-67.3 -27.35 Q-55.95 -23.45 -40.1 -15.5 -8.3 0.4 14.55 20.65 46.55 48.95 56.1 81.85 68.05 122.95 44.05 168.9 L17.6 149.75" fill="none" stroke="#ffffff" stroke-linecap="round" stroke-linejoin="round" stroke-width="2.0"/>
    <path d="M-67.3 -27.35 Q-55.95 -23.45 -40.1 -15.5 -8.3 0.4 14.55 20.65 46.55 48.95 56.1 81.85 68.05 122.95 44.05 168.9 L17.6 149.75" fill="none" stroke="#ffffff" stroke-linecap="round" stroke-linejoin="round" stroke-width="2.0"/>
    <path d="M-168.9 -60.35 Q-148.1 -58.85 -115.5 -46.75 -82.9 -34.7 -67.3 -27.35" fill="none" stroke="#ffffff" stroke-linecap="round" stroke-linejoin="round" stroke-width="2.0"/>
  </g>
  <defs>
    <linearGradient gradientTransform="matrix(0.0777, 0.0, 0.0, 0.1198, -3.65, 70.75)" gradientUnits="userSpaceOnUse" id="gradient0" spreadMethod="pad" x1="-819.2" x2="819.2">
      <stop offset="0.0" stop-color="#ffffff" stop-opacity="0.0"/>
      <stop offset="0.7686274509803922" stop-color="#ffffff" stop-opacity="0.7529412"/>
    </linearGradient>
  </defs>
</svg>
