<?xml version="1.0" encoding="UTF-8" standalone="no"?>
<svg xmlns:ffdec="https://www.free-decompiler.com/flash" xmlns:xlink="http://www.w3.org/1999/xlink" ffdec:objectType="shape" height="199.0px" width="245.95px" xmlns="http://www.w3.org/2000/svg">
  <g transform="matrix(1.0, 0.0, 0.0, 1.0, 161.75, -8.8)">
    <path d="M-156.4 91.2 L-141.75 94.7 Q-138.7 95.35 -122.7 99.9 -105.6 104.75 -93.8 107.45 -53.45 116.65 -31.8 111.75 5.6 103.1 34.7 72.75 62.4 43.9 70.4 8.8 97.45 58.4 71.55 111.3 45.6 164.15 30.55 172.95 15.5 181.75 -7.3 195.35 -43.45 216.85 -115.45 193.35 L-161.5 90.4 -161.25 89.9 -156.4 91.2" fill="url(#gradient0)" fill-rule="evenodd" stroke="none"/>
    <path d="M-161.25 89.9 L-156.4 91.2" fill="none" stroke="#000000" stroke-linecap="round" stroke-linejoin="round" stroke-opacity="0.29803923" stroke-width="1.0"/>
    <path d="M-135.35 72.2 Q-133.6 73.7 -131.25 73.75 L-126.45 74.1 -124.95 78.15 -125.6 78.55 Q-123.65 105.95 -113.4 131.4 -108.9 142.65 -106.35 154.4 -102.3 172.8 -108.15 190.75 -109.7 195.6 -111.9 200.2 L-113.45 200.05 Q-114.7 167.2 -132.0 139.25 L-137.05 131.3 -149.5 89.95 -149.9 90.15 -150.5 90.05 -152.75 82.0 -146.3 78.35 Q-153.75 69.1 -153.6 57.4 -153.55 53.3 -150.75 50.25 -149.4 48.8 -147.7 47.75 L-146.35 48.9 -146.35 49.75 Q-145.65 50.15 -145.05 50.5 -144.0 51.25 -143.8 52.65 L-143.7 53.35 -143.85 54.6 -144.0 55.1 -144.85 55.65 -139.6 74.55 -135.35 72.2" fill="#ffffff" fill-opacity="0.7019608" fill-rule="evenodd" stroke="none"/>
    <path d="M-70.05 80.1 L-65.55 78.25 Q-64.2 79.7 -62.25 80.05 L-61.7 80.2 -56.9 81.1 -55.9 85.3 -56.65 85.6 Q-57.2 99.25 -54.8 112.65 -49.8 140.15 -47.15 167.85 -45.05 189.45 -56.75 207.8 L-58.25 207.5 Q-60.0 172.55 -73.9 136.7 L-81.6 94.2 -82.05 94.35 -82.6 94.2 -83.9 86.0 -77.1 83.1 Q-82.65 74.55 -82.5 64.35 -82.35 56.1 -75.05 52.55 L-73.8 53.85 -73.95 54.75 Q-71.6 55.95 -71.8 58.55 L-72.0 59.8 -72.25 60.3 -73.15 60.7 -70.05 80.1" fill="#ffffff" fill-opacity="0.24705882" fill-rule="evenodd" stroke="none"/>
    <path d="M-38.5 55.3 L-34.15 55.55 -29.5 54.25 -26.75 57.6 -27.3 58.25 Q-6.5 95.6 17.0 131.5 21.35 138.1 23.2 145.7 25.75 155.95 24.7 166.4 L24.4 169.05 22.9 169.4 Q7.55 138.1 -21.3 111.85 L-46.25 76.6 -46.6 76.95 -47.2 77.0 -51.85 70.1 -46.9 64.6 Q-58.05 57.85 -60.75 45.3 -61.3 42.8 -60.35 40.2 -59.7 38.4 -58.6 36.85 L-58.0 36.05 -56.35 36.75 -56.05 37.55 -54.3 38.0 Q-53.05 38.7 -52.55 40.15 L-52.35 40.75 -52.15 41.9 -52.8 42.7 -41.8 58.95 -38.5 55.3" fill="#ffffff" fill-opacity="0.14901961" fill-rule="evenodd" stroke="none"/>
  </g>
  <defs>
    <linearGradient gradientTransform="matrix(-0.0845, 0.0431, -0.0249, -0.0489, 15.95, 180.05)" gradientUnits="userSpaceOnUse" id="gradient0" spreadMethod="pad" x1="-819.2" x2="819.2">
      <stop offset="0.0" stop-color="#ffffff" stop-opacity="0.0"/>
      <stop offset="0.35294117647058826" stop-color="#ffffff" stop-opacity="0.2"/>
      <stop offset="0.6745098039215687" stop-color="#ffffff" stop-opacity="0.5019608"/>
    </linearGradient>
  </defs>
</svg>
