<?xml version="1.0" encoding="UTF-8" standalone="no"?>
<svg xmlns:ffdec="https://www.free-decompiler.com/flash" xmlns:xlink="http://www.w3.org/1999/xlink" ffdec:objectType="shape" height="174.5px" width="185.8px" xmlns="http://www.w3.org/2000/svg">
  <g transform="matrix(1.0, 0.0, 0.0, 1.0, 124.65, -42.95)">
    <path d="M-122.4 177.8 Q-48.75 213.3 8.15 187.8 25.9 179.8 39.9 166.7 44.25 162.55 47.7 158.45 L50.3 155.15 Q7.5 215.7 -58.5 216.45 -79.15 216.7 -99.6 210.9 -109.85 208.05 -115.95 205.1 L-122.4 177.8" fill="url(#gradient0)" fill-rule="evenodd" stroke="none"/>
    <path d="M-122.4 177.8 L-115.95 205.1 Q-109.85 208.05 -99.6 210.9 -79.15 216.7 -58.5 216.45 7.5 215.7 50.3 155.15 L47.7 158.45" fill="none" stroke="#ffffff" stroke-linecap="round" stroke-linejoin="round" stroke-width="2.0"/>
    <path d="M-123.65 175.05 L-115.95 205.1 Q-109.85 208.05 -99.6 210.9 -79.15 216.7 -58.5 216.45 5.6 215.7 47.85 158.55 L50.3 155.15" fill="none" stroke="#ffffff" stroke-linecap="round" stroke-linejoin="round" stroke-width="2.0"/>
    <path d="M37.3 43.95 Q47.55 57.15 54.3 77.6 67.75 118.6 50.3 155.15" fill="none" stroke="#ffffff" stroke-linecap="round" stroke-linejoin="round" stroke-width="2.0"/>
  </g>
  <defs>
    <linearGradient gradientTransform="matrix(0.1054, 0.0, 0.0, 0.0374, -36.05, 185.8)" gradientUnits="userSpaceOnUse" id="gradient0" spreadMethod="pad" x1="-819.2" x2="819.2">
      <stop offset="0.0" stop-color="#ffffff" stop-opacity="0.0"/>
      <stop offset="0.7686274509803922" stop-color="#ffffff" stop-opacity="0.7529412"/>
    </linearGradient>
  </defs>
</svg>
