<?xml version="1.0" encoding="UTF-8" standalone="no"?>
<svg xmlns:ffdec="https://www.free-decompiler.com/flash" xmlns:xlink="http://www.w3.org/1999/xlink" ffdec:objectType="shape" height="195.5px" width="423.3px" xmlns="http://www.w3.org/2000/svg">
  <g transform="matrix(1.0, 0.0, 0.0, 1.0, 355.65, -41.8)">
    <path d="M-244.35 70.6 Q-168.4 123.0 -130.2 129.45 -92.1 136.0 -43.15 127.45 5.8 118.95 22.9 107.85 40.0 96.8 67.65 97.9 57.75 124.25 26.35 164.2 -5.1 204.15 -43.5 218.75 -81.9 233.25 -106.65 236.45 -112.9 237.15 -145.35 237.3 -177.8 237.3 -239.25 219.5 -300.7 201.75 -340.45 173.95 -303.6 133.25 -280.0 109.85 -256.35 86.35 -244.35 70.6" fill="url(#gradient0)" fill-rule="evenodd" stroke="none"/>
    <path d="M-3.9 75.1 L-3.95 75.0 -3.95 75.05 -3.9 75.1 M-24.1 70.7 L-29.75 69.45 -24.3 68.65 -24.1 70.7" fill="url(#gradient1)" fill-rule="evenodd" stroke="none"/>
    <path d="M-203.2 77.75 Q-204.05 80.85 -202.55 83.95 L-199.65 90.25 -204.0 94.7 -204.95 94.0 Q-254.75 130.15 -301.8 169.7 -310.4 176.95 -321.15 181.05 -335.5 186.5 -350.9 186.95 L-354.8 187.05 -355.65 185.0 Q-307.5 159.15 -281.6 112.4 L-235.85 70.9 -236.4 70.45 -236.65 69.6 -227.65 61.85 -218.55 67.7 Q-211.15 50.85 -193.55 44.85 -189.95 43.55 -186.0 44.35 -183.25 44.95 -180.8 46.25 L-179.4 46.95 -180.1 49.35 -181.2 49.85 Q-181.1 51.15 -181.45 52.4 -182.25 54.35 -184.15 55.3 L-185.05 55.7 -186.65 56.2 -187.95 55.4 -209.15 73.85 -203.2 77.75" fill="#ffffff" fill-opacity="0.7019608" fill-rule="evenodd" stroke="none"/>
    <path d="M-123.35 77.9 Q-120.4 78.5 -118.15 80.6 -115.8 82.65 -115.7 87.05 L-117.5 92.45 -118.55 92.25 Q-145.0 131.35 -158.35 176.6 -162.8 191.6 -172.4 204.1 -181.75 216.35 -195.0 224.1 -198.95 226.45 -203.1 228.3 L-204.55 226.85 Q-186.3 182.4 -173.05 137.2 L-152.25 84.6 -152.9 84.5 -153.4 83.9 -149.15 73.85 -139.55 75.3 Q-139.4 54.35 -123.8 43.15 -120.35 40.65 -116.15 42.8 L-115.75 45.05 -116.45 45.9 Q-115.65 47.15 -115.55 48.65 -115.45 51.95 -118.4 53.35 L-119.7 53.15 -129.65 76.9 -123.35 77.9" fill="#ffffff" fill-opacity="0.24705882" fill-rule="evenodd" stroke="none"/>
    <path d="M-54.05 81.5 Q-52.55 83.6 -50.2 84.5 L-45.15 86.45 -44.95 91.25 -45.85 91.4 Q-55.25 130.5 -52.3 170.5 -51.35 183.8 -55.25 196.65 -59.1 209.15 -67.3 219.35 -69.75 222.45 -72.55 225.2 L-74.1 224.55 Q-69.7 184.85 -75.9 143.7 L-75.05 95.65 -75.6 95.75 -76.15 95.4 -75.85 86.2 -67.75 84.4 Q-73.85 67.7 -64.8 54.05 -62.75 51.0 -58.8 51.4 L-57.8 53.1 -58.05 54.0 Q-57.1 54.75 -56.55 55.9 -55.5 58.45 -57.4 60.5 L-58.5 60.75 -59.35 82.6 -54.05 81.5" fill="#ffffff" fill-opacity="0.14901961" fill-rule="evenodd" stroke="none"/>
  </g>
  <defs>
    <linearGradient gradientTransform="matrix(-0.2452, 0.0171, 0.0074, 0.1055, -131.8, 132.55)" gradientUnits="userSpaceOnUse" id="gradient0" spreadMethod="pad" x1="-819.2" x2="819.2">
      <stop offset="0.0" stop-color="#ffffff" stop-opacity="0.0"/>
      <stop offset="0.35294117647058826" stop-color="#ffffff" stop-opacity="0.2"/>
      <stop offset="0.6745098039215687" stop-color="#ffffff" stop-opacity="0.5019608"/>
    </linearGradient>
    <linearGradient gradientTransform="matrix(-0.04, 0.0028, 9.0E-4, 0.013, 3.0, 66.05)" gradientUnits="userSpaceOnUse" id="gradient1" spreadMethod="pad" x1="-819.2" x2="819.2">
      <stop offset="0.0" stop-color="#ffffff" stop-opacity="0.0"/>
      <stop offset="0.35294117647058826" stop-color="#ffffff" stop-opacity="0.2"/>
      <stop offset="0.6745098039215687" stop-color="#ffffff" stop-opacity="0.5019608"/>
    </linearGradient>
  </defs>
</svg>
