<?xml version="1.0" encoding="UTF-8" standalone="no"?>
<svg xmlns:ffdec="https://www.free-decompiler.com/flash" xmlns:xlink="http://www.w3.org/1999/xlink" ffdec:objectType="shape" height="157.65px" width="431.55px" xmlns="http://www.w3.org/2000/svg">
  <g transform="matrix(1.0, 0.0, 0.0, 1.0, 363.5, -98.5)">
    <path d="M-8.4 202.15 L-9.05 202.65 -9.8 203.2 -8.4 202.15" fill="url(#gradient0)" fill-rule="evenodd" stroke="none"/>
    <path d="M-9.8 203.2 Q-63.95 244.3 -128.9 252.9 -183.7 260.15 -243.65 244.05 -286.5 232.55 -327.6 210.55 -348.15 199.5 -362.5 188.6 L-332.1 161.0 Q-257.45 208.95 -189.2 225.7 -134.55 239.1 -86.5 232.05 -52.2 227.05 -24.6 212.3 -16.4 207.95 -9.8 203.2" fill="url(#gradient1)" fill-rule="evenodd" stroke="none"/>
    <path d="M-8.4 202.15 L-9.05 202.65 -9.8 203.2 Q-63.95 244.3 -128.9 252.9 -183.7 260.15 -243.65 244.05 -286.5 232.55 -327.6 210.55 -348.15 199.5 -362.5 188.6 L-332.1 161.0 M-9.8 203.2 L-8.4 202.15 -7.3 201.3 -3.85 198.55" fill="none" stroke="#ffffff" stroke-linecap="round" stroke-linejoin="round" stroke-width="2.0"/>
    <path d="M-9.8 203.2 L-8.4 202.15 -9.05 202.65 -9.8 203.2" fill="url(#gradient2)" fill-rule="evenodd" stroke="none"/>
    <path d="M-9.8 203.2 L-8.4 202.15 -7.3 201.3 -3.85 198.55 M-8.4 202.15 L-9.05 202.65 -9.8 203.2 Q-63.95 244.3 -128.9 252.9 -183.7 260.15 -243.65 244.05 -286.5 232.55 -327.6 210.55 -348.15 199.5 -362.05 187.45 L-332.1 161.0" fill="none" stroke="#ffffff" stroke-linecap="round" stroke-linejoin="round" stroke-width="2.0"/>
    <path d="M67.05 99.5 Q60.05 115.3 47.45 136.35 22.05 178.85 -3.85 198.55" fill="none" stroke="#ffffff" stroke-linecap="round" stroke-linejoin="round" stroke-width="2.0"/>
  </g>
  <defs>
    <linearGradient gradientTransform="matrix(9.0E-4, 0.0, 0.0, 6.0E-4, -9.1, 202.65)" gradientUnits="userSpaceOnUse" id="gradient0" spreadMethod="pad" x1="-819.2" x2="819.2">
      <stop offset="0.0" stop-color="#ffffff" stop-opacity="0.0"/>
      <stop offset="0.7686274509803922" stop-color="#ffffff" stop-opacity="0.7529412"/>
    </linearGradient>
    <linearGradient gradientTransform="matrix(-0.094, -0.1913, 0.0514, -0.0253, -182.85, 200.8)" gradientUnits="userSpaceOnUse" id="gradient1" spreadMethod="pad" x1="-819.2" x2="819.2">
      <stop offset="0.0" stop-color="#ffffff" stop-opacity="0.0"/>
      <stop offset="0.7686274509803922" stop-color="#ffffff" stop-opacity="0.7529412"/>
    </linearGradient>
    <linearGradient gradientTransform="matrix(9.0E-4, 0.0, 0.0, 6.0E-4, -9.1, 202.65)" gradientUnits="userSpaceOnUse" id="gradient2" spreadMethod="pad" x1="-819.2" x2="819.2">
      <stop offset="0.0" stop-color="#ffffff" stop-opacity="0.0"/>
      <stop offset="0.7686274509803922" stop-color="#ffffff" stop-opacity="0.7529412"/>
    </linearGradient>
  </defs>
</svg>
