<?xml version="1.0" encoding="UTF-8" standalone="no"?>
<svg xmlns:ffdec="https://www.free-decompiler.com/flash" xmlns:xlink="http://www.w3.org/1999/xlink" ffdec:objectType="shape" height="236.45px" width="414.75px" xmlns="http://www.w3.org/2000/svg">
  <g transform="matrix(1.0, 0.0, 0.0, 1.0, 493.0, 2.75)">
    <path d="M-324.25 -2.75 Q-289.3 82.45 -260.95 108.7 -232.6 134.95 -187.0 154.5 -141.4 174.05 -121.1 174.15 -100.8 174.15 -78.25 190.2 -100.85 206.85 -148.9 223.15 -197.0 239.4 -237.05 230.65 -277.15 221.85 -299.55 211.0 L-336.65 191.65 Q-368.15 175.0 -411.2 127.0 -454.25 78.95 -469.4 34.75 -408.0 17.35 -375.5 10.6 -342.95 3.9 -324.25 -2.75" fill="url(#gradient0)" fill-rule="evenodd" stroke="none"/>
    <path d="M-125.65 132.1 L-125.7 132.0 -125.65 132.05 -125.65 132.1" fill="url(#gradient1)" fill-rule="evenodd" stroke="none"/>
    <path d="M-317.8 48.05 L-316.55 54.6 Q-318.6 55.9 -319.65 57.9 L-320.35 59.25 -322.9 65.4 -328.8 65.6 -329.0 64.45 Q-370.9 53.85 -413.75 57.35 -459.85 61.1 -493.0 29.6 L-492.15 27.6 Q-442.3 42.15 -392.65 26.8 L-333.5 28.55 -333.5 27.9 -333.1 27.2 -321.75 27.8 Q-303.8 13.25 -297.55 21.1 -295.75 20.75 -286.25 26.3 -276.7 31.85 -279.4 49.2 L-281.5 50.45 -282.6 50.05 Q-285.45 53.45 -289.35 51.7 L-290.0 51.25 -290.6 50.75 -290.9 49.4 -317.8 48.05" fill="#ffffff" fill-opacity="0.7019608" fill-rule="evenodd" stroke="none"/>
    <path d="M-249.85 86.2 L-246.7 91.45 Q-248.15 93.0 -248.45 95.05 L-248.55 96.5 -248.75 102.45 -253.75 104.3 -254.25 103.4 Q-307.35 113.55 -359.9 126.15 -382.8 131.55 -404.4 120.8 L-404.25 118.85 Q-359.9 111.05 -319.95 89.6 L-269.15 74.1 -269.45 73.55 -269.3 72.85 -259.45 70.1 -254.7 78.0 Q-246.05 70.4 -234.6 68.8 -223.35 67.2 -216.85 76.15 L-218.25 77.85 -219.3 77.85 Q-220.5 80.8 -223.65 80.95 L-224.45 80.9 -225.85 80.75 -226.55 79.65 -249.85 86.2" fill="#ffffff" fill-opacity="0.24705882" fill-rule="evenodd" stroke="none"/>
    <path d="M-194.4 118.2 L-189.75 120.9 Q-190.05 123.75 -188.75 126.35 L-187.65 128.3 -186.55 130.35 -189.55 134.0 -190.35 133.6 Q-199.9 139.8 -208.65 147.3 -229.85 165.5 -247.05 187.4 -266.35 212.05 -297.75 214.15 L-298.45 212.65 Q-269.45 186.5 -246.6 152.1 L-214.35 117.35 -214.8 117.05 -215.0 116.45 -208.65 109.9 -201.65 113.95 Q-197.55 106.3 -192.05 99.7 -181.45 87.15 -173.45 95.6 L-173.85 97.55 -174.6 98.05 Q-174.05 101.55 -177.2 102.9 L-177.8 103.1 -178.4 103.2 -179.4 102.65 -194.4 118.2" fill="#ffffff" fill-opacity="0.14901961" fill-rule="evenodd" stroke="none"/>
  </g>
  <defs>
    <linearGradient gradientTransform="matrix(-0.2144, -0.1194, -0.0514, 0.0923, -263.9, 110.45)" gradientUnits="userSpaceOnUse" id="gradient0" spreadMethod="pad" x1="-819.2" x2="819.2">
      <stop offset="0.0" stop-color="#ffffff" stop-opacity="0.0"/>
      <stop offset="0.35294117647058826" stop-color="#ffffff" stop-opacity="0.2"/>
      <stop offset="0.6745098039215687" stop-color="#ffffff" stop-opacity="0.5019608"/>
    </linearGradient>
    <linearGradient gradientTransform="matrix(-0.035, -0.0195, -0.0063, 0.0114, -114.95, 128.3)" gradientUnits="userSpaceOnUse" id="gradient1" spreadMethod="pad" x1="-819.2" x2="819.2">
      <stop offset="0.0" stop-color="#ffffff" stop-opacity="0.0"/>
      <stop offset="0.35294117647058826" stop-color="#ffffff" stop-opacity="0.2"/>
      <stop offset="0.6745098039215687" stop-color="#ffffff" stop-opacity="0.5019608"/>
    </linearGradient>
  </defs>
</svg>
