<?xml version="1.0" encoding="UTF-8" standalone="no"?>
<svg xmlns:ffdec="https://www.free-decompiler.com/flash" xmlns:xlink="http://www.w3.org/1999/xlink" ffdec:objectType="shape" height="226.15px" width="440.9px" xmlns="http://www.w3.org/2000/svg">
  <g transform="matrix(1.0, 0.0, 0.0, 1.0, 494.95, -30.0)">
    <path d="M-455.85 31.0 Q-439.9 85.5 -404.45 129.45 -376.05 164.65 -336.6 191.5 -308.4 210.65 -277.45 223.75 -267.75 227.85 -259.0 230.85 L-255.65 241.75 Q-306.0 226.3 -356.0 193.95 -396.05 168.05 -431.8 127.0 -457.35 97.7 -478.2 63.75 -488.65 46.75 -493.95 35.65 L-455.85 31.0" fill="url(#gradient0)" fill-rule="evenodd" stroke="none"/>
    <path d="M-455.85 31.0 L-493.95 35.65 Q-488.65 46.75 -478.2 63.75 -457.35 97.7 -431.8 127.0 -396.05 168.05 -356.0 193.95 -306.0 226.3 -255.65 241.75" fill="none" stroke="#ffffff" stroke-linecap="round" stroke-linejoin="round" stroke-width="2.0"/>
    <path d="M-455.85 31.0 L-493.95 35.65 Q-488.65 46.75 -478.2 63.75 -457.35 97.7 -431.8 127.0 -396.05 168.05 -356.0 193.95 -306.0 226.3 -254.55 242.15" fill="none" stroke="#ffffff" stroke-linecap="round" stroke-linejoin="round" stroke-width="2.0"/>
    <path d="M-55.05 231.45 L-71.85 237.95 Q-93.25 245.3 -116.45 249.7 -190.65 263.6 -254.55 242.1" fill="none" stroke="#ffffff" stroke-linecap="round" stroke-linejoin="round" stroke-width="2.0"/>
  </g>
  <defs>
    <linearGradient gradientTransform="matrix(0.0382, -0.1421, 0.1187, 0.032, -373.3, 132.5)" gradientUnits="userSpaceOnUse" id="gradient0" spreadMethod="pad" x1="-819.2" x2="819.2">
      <stop offset="0.0" stop-color="#ffffff" stop-opacity="0.0"/>
      <stop offset="0.7686274509803922" stop-color="#ffffff" stop-opacity="0.7529412"/>
    </linearGradient>
  </defs>
</svg>
