<?xml version="1.0" encoding="UTF-8" standalone="no"?>
<svg xmlns:ffdec="https://www.free-decompiler.com/flash" xmlns:xlink="http://www.w3.org/1999/xlink" ffdec:objectType="shape" height="157.65px" width="198.2px" xmlns="http://www.w3.org/2000/svg">
  <g transform="matrix(1.0, 0.0, 0.0, 1.0, 477.4, 110.15)">
    <path d="M-315.55 12.95 Q-318.75 12.65 -321.4 14.95 L-326.85 19.3 -332.15 16.15 -331.75 15.05 Q-370.75 -18.25 -411.2 -49.3 -425.8 -60.5 -438.8 -73.85 -449.3 -84.5 -454.2 -98.9 -455.9 -103.8 -457.1 -108.85 -456.25 -109.45 -455.3 -110.15 -426.3 -77.35 -386.35 -61.4 -377.15 -57.8 -367.45 -55.15 L-316.45 -20.35 -316.15 -21.05 -315.45 -21.4 -305.75 -14.55 -309.4 -4.35 Q-296.35 -2.2 -286.4 7.1 -283.1 10.25 -281.1 14.45 -279.25 18.3 -279.2 22.7 -279.25 25.85 -280.05 28.85 L-282.55 28.75 -283.3 27.85 -285.85 28.05 Q-287.45 27.85 -288.7 26.8 L-289.25 26.15 -290.7 24.0 -290.25 22.6 -313.1 6.25 -315.55 12.95" fill="#ffffff" fill-opacity="0.7019608" fill-rule="evenodd" stroke="none"/>
    <path d="M-327.2 37.9 Q-327.15 38.35 -327.65 38.3 -330.85 38.7 -333.5 41.8 -334.8 43.35 -335.5 44.75 L-335.65 45.05 -336.3 45.6 Q-336.65 46.0 -337.05 45.8 L-341.3 44.1 Q-341.9 43.9 -341.7 43.4 L-341.55 42.75 Q-354.85 30.5 -375.0 22.55 -384.25 18.85 -404.5 13.0 -422.45 7.95 -431.9 4.2 -447.4 -1.85 -457.15 -10.3 -470.9 -22.3 -477.25 -41.2 -477.7 -42.25 -476.7 -42.9 L-474.9 -43.0 -473.9 -42.6 -473.55 -42.4 Q-459.8 -32.55 -441.4 -24.25 L-429.05 -19.0 Q-420.2 -15.5 -415.75 -14.55 -412.5 -13.7 -405.65 -13.35 L-394.7 -12.5 -394.0 -12.35 -388.1 -11.9 -387.8 -11.95 -387.05 -11.85 -386.45 -11.7 -333.9 9.1 -333.75 8.45 -333.4 8.1 -332.85 8.05 -323.6 11.75 Q-323.15 11.9 -323.15 12.4 L-324.6 21.75 -298.2 31.55 -297.95 31.0 Q-297.55 30.05 -296.15 29.7 L-293.3 30.0 Q-291.75 30.6 -290.95 31.8 -290.2 32.9 -290.65 33.9 L-290.75 34.2 Q-288.9 33.5 -287.15 34.15 -285.0 34.95 -284.3 37.5 -283.6 40.05 -284.75 42.75 -285.85 45.4 -288.25 46.7 -290.55 47.95 -292.65 47.2 -294.4 46.45 -295.2 44.7 L-295.35 45.05 Q-295.8 46.05 -297.15 46.35 -298.6 46.7 -300.1 46.05 -301.55 45.5 -302.35 44.3 -303.15 43.1 -302.75 42.1 L-302.55 41.55 Q-314.35 36.6 -326.2 31.6 L-327.2 37.9 M-456.8 -12.15 L-460.6 -15.8 -457.7 -12.9 -456.8 -12.15" fill="#ffffff" fill-opacity="0.24705882" fill-rule="evenodd" stroke="none"/>
  </g>
</svg>
