<?xml version="1.0" encoding="UTF-8" standalone="no"?>
<svg xmlns:ffdec="https://www.free-decompiler.com/flash" xmlns:xlink="http://www.w3.org/1999/xlink" ffdec:objectType="shape" height="169.15px" width="212.0px" xmlns="http://www.w3.org/2000/svg">
  <g transform="matrix(1.0, 0.0, 0.0, 1.0, 496.55, 136.15)">
    <path d="M-323.65 10.0 Q-326.75 9.7 -329.7 10.9 -332.85 12.3 -335.9 14.05 L-340.5 9.95 -339.9 9.0 Q-361.65 -28.05 -395.75 -53.75 -419.1 -71.55 -431.5 -98.3 -438.6 -113.6 -439.0 -130.6 L-439.1 -135.25 -437.05 -136.15 Q-409.85 -88.85 -361.55 -66.1 L-318.3 -22.55 -317.9 -23.15 -317.1 -23.35 -308.95 -14.85 -314.35 -5.6 -292.3 15.65 Q-285.75 15.05 -284.65 23.75 -284.1 28.45 -287.2 31.65 -289.05 33.65 -291.7 32.7 L-294.45 31.7 -294.95 30.55 -297.9 30.75 Q-300.95 29.85 -301.35 26.5 L-301.45 25.45 -300.8 24.15 -320.1 3.95 -323.65 10.0" fill="#ffffff" fill-opacity="0.5019608" fill-rule="evenodd" stroke="none"/>
    <path d="M-495.55 -12.55 Q-491.8 -34.05 -482.85 -60.1 -465.0 -112.15 -439.2 -134.8" fill="none" stroke="#ffffff" stroke-linecap="round" stroke-linejoin="round" stroke-width="2.0"/>
  </g>
</svg>
