<?xml version="1.0" encoding="UTF-8" standalone="no"?>
<svg xmlns:ffdec="https://www.free-decompiler.com/flash" xmlns:xlink="http://www.w3.org/1999/xlink" ffdec:objectType="shape" height="393.3px" width="335.55px" xmlns="http://www.w3.org/2000/svg">
  <g transform="matrix(1.0, 0.0, 0.0, 1.0, 117.55, 193.1)">
    <path d="M86.95 -184.0 Q125.5 -173.05 160.35 -134.3 191.1 -100.15 205.9 -52.5 220.65 -4.9 217.35 49.95 214.0 104.8 153.9 154.15 93.8 203.5 64.9 199.95 88.65 122.25 46.95 38.0 L36.95 32.0 -4.05 -31.0 -49.0 -57.0 -61.0 -66.0 -80.0 -97.0 86.95 -184.0" fill="url(#gradient0)" fill-rule="evenodd" stroke="none"/>
    <path d="M-67.85 -54.65 L-64.45 -47.15 Q-62.1 -47.3 -59.8 -46.65 -56.6 -45.8 -53.85 -44.0 L-49.65 -40.5 -42.95 -44.55 -43.55 -45.55 Q58.55 -96.3 111.55 -191.35 L109.6 -193.1 Q26.35 -133.55 -64.85 -85.0 L-66.2 -86.15 -78.3 -77.85 -73.25 -66.45 Q-91.0 -56.8 -108.1 -46.3 -127.8 -34.1 -106.4 -27.4 L-105.15 -28.8 Q-101.0 -29.65 -97.15 -31.15 -78.45 -38.5 -67.85 -54.65" fill="#ffffff" fill-opacity="0.7019608" fill-rule="evenodd" stroke="none"/>
    <path d="M-14.5 -1.9 L-13.65 6.25 Q-11.35 6.8 -9.3 8.2 -6.55 9.95 -4.5 12.5 -2.85 14.8 -1.6 17.15 L6.0 15.35 5.75 14.3 Q118.55 -2.4 198.35 -76.35 L196.95 -78.6 Q99.5 -47.8 -2.3 -29.85 L-3.25 -31.35 -17.25 -27.25 -15.95 -14.8 Q-35.85 -11.2 -55.4 -6.45 -77.85 -0.95 -59.6 12.0 L-57.95 11.05 -49.65 11.35 Q-29.65 10.1 -14.5 -1.9" fill="#ffffff" fill-opacity="0.24705882" fill-rule="evenodd" stroke="none"/>
    <path d="M-16.3 45.3 L-16.7 52.95 Q-14.4 54.25 -12.5 56.1 -9.9 58.65 -8.25 61.6 -6.85 64.25 -5.95 66.75 L2.3 67.65 2.25 66.6 Q122.65 88.95 218.0 48.9 L217.0 46.45 Q110.15 41.8 1.0 24.3 L0.25 22.6 -15.05 21.6 -15.7 33.25 Q-37.1 29.95 -58.2 27.75 -82.6 25.2 -65.65 42.9 L-63.7 42.65 Q-59.45 44.45 -55.2 45.6 -34.05 51.15 -16.3 45.3" fill="#ffffff" fill-opacity="0.14901961" fill-rule="evenodd" stroke="none"/>
  </g>
  <defs>
    <linearGradient gradientTransform="matrix(-0.0027, -0.2004, 0.2348, -0.0031, 86.35, 5.85)" gradientUnits="userSpaceOnUse" id="gradient0" spreadMethod="pad" x1="-819.2" x2="819.2">
      <stop offset="0.0" stop-color="#ffffff" stop-opacity="0.0"/>
      <stop offset="0.35294117647058826" stop-color="#ffffff" stop-opacity="0.2"/>
      <stop offset="0.6745098039215687" stop-color="#ffffff" stop-opacity="0.5019608"/>
    </linearGradient>
  </defs>
</svg>
