<?xml version="1.0" encoding="UTF-8" standalone="no"?>
<svg xmlns:ffdec="https://www.free-decompiler.com/flash" xmlns:xlink="http://www.w3.org/1999/xlink" ffdec:objectType="shape" height="372.75px" width="153.6px" xmlns="http://www.w3.org/2000/svg">
  <g transform="matrix(1.0, 0.0, 0.0, 1.0, -64.05, 193.95)">
    <path d="M210.3 115.25 L202.5 115.25 204.3 105.25 Q205.15 12.65 183.6 -51.0 166.35 -101.95 135.6 -132.2 113.65 -153.75 87.15 -162.85 73.9 -167.4 65.05 -167.6 L110.25 -192.95 Q155.5 -172.35 182.05 -123.0 203.6 -83.0 211.85 -26.05 218.0 16.4 216.25 63.05 214.95 96.5 211.85 109.45 L210.3 115.25" fill="url(#gradient0)" fill-rule="evenodd" stroke="none"/>
    <path d="M210.3 115.25 L211.85 109.45 Q214.95 96.5 216.25 63.05 218.0 16.4 211.85 -26.05 203.6 -83.0 182.05 -123.0 155.5 -172.35 110.25 -192.95 L65.05 -167.6" fill="none" stroke="#ffffff" stroke-linecap="round" stroke-linejoin="round" stroke-width="2.0"/>
    <path d="M184.3 177.8 Q192.5 166.55 200.85 146.1 209.15 125.6 210.35 115.25" fill="none" stroke="#ffffff" stroke-linecap="round" stroke-linejoin="round" stroke-width="2.0"/>
  </g>
  <defs>
    <linearGradient gradientTransform="matrix(-0.0387, -0.0837, 0.182, -0.0841, 137.5, -32.75)" gradientUnits="userSpaceOnUse" id="gradient0" spreadMethod="pad" x1="-819.2" x2="819.2">
      <stop offset="0.0" stop-color="#ffffff" stop-opacity="0.0"/>
      <stop offset="0.7686274509803922" stop-color="#ffffff" stop-opacity="0.7529412"/>
    </linearGradient>
  </defs>
</svg>
