<?xml version="1.0" encoding="UTF-8" standalone="no"?>
<svg xmlns:ffdec="https://www.free-decompiler.com/flash" xmlns:xlink="http://www.w3.org/1999/xlink" ffdec:objectType="shape" height="337.15px" width="479.4px" xmlns="http://www.w3.org/2000/svg">
  <g transform="matrix(1.0, 0.0, 0.0, 1.0, 242.7, 241.4)">
    <path d="M236.65 61.9 L234.0 61.9 236.7 61.0 236.65 61.9 M14.55 -16.3 Q-1.2 -30.3 -5.6 -30.3 L-10.6 -23.3 Q-32.35 -30.05 -59.6 -31.3 -114.05 -33.8 -141.6 -6.3 L-159.6 -4.3 -164.65 4.7 -240.65 -198.35 -240.85 -198.7 Q-220.3 -207.9 -188.1 -217.7 -122.4 -237.7 -61.6 -240.85 23.5 -245.2 86.65 -215.2 165.55 -177.7 205.45 -88.3 L207.85 -83.85 213.9 -71.1 Q223.25 -49.7 225.7 -38.3 228.15 -26.9 229.2 -15.55 230.2 -4.2 228.45 22.4 223.1 84.1 203.1 95.75 204.75 69.0 165.65 42.3 L117.05 17.3 108.25 14.5 Q50.75 -1.4 29.4 -2.3 22.4 -9.3 14.55 -16.3" fill="url(#gradient0)" fill-rule="evenodd" stroke="none"/>
    <path d="M-139.9 -17.25 Q-137.4 -18.05 -133.8 -19.4 -130.15 -20.6 -127.3 -23.55 L-129.55 -30.15 -130.85 -30.3 Q-144.95 -94.65 -191.95 -157.4 -213.05 -185.55 -240.1 -211.75 L-242.7 -211.4 Q-205.05 -124.1 -182.25 -37.4 L-184.05 -37.15 -179.0 -24.65 -164.5 -21.9 -155.05 10.6 Q-156.4 16.75 -148.05 23.1 -143.9 26.25 -139.15 25.5 -135.45 24.85 -133.75 22.5 L-132.35 21.2 -133.5 19.55 Q-130.35 3.05 -149.4 -19.05 L-139.9 -17.25" fill="#ffffff" fill-opacity="0.7019608" fill-rule="evenodd" stroke="none"/>
    <path d="M-95.2 -25.8 L-103.45 -26.75 Q-104.05 -29.05 -105.5 -31.1 -107.3 -33.95 -110.0 -36.0 -112.3 -37.7 -114.75 -38.95 L-113.15 -46.6 -112.0 -46.4 Q-98.5 -160.55 -26.6 -241.15 L-24.35 -239.8 Q-52.4 -141.1 -67.5 -38.15 L-65.95 -37.15 -69.7 -23.0 -82.2 -24.35 Q-85.3 -4.2 -89.5 15.5 -94.35 38.3 -107.9 19.8 L-107.0 18.1 Q-107.6 13.85 -107.5 9.75 -106.85 -10.55 -95.2 -25.8" fill="#ffffff" fill-opacity="0.24705882" fill-rule="evenodd" stroke="none"/>
    <path d="M-30.65 9.1 L-26.55 18.15 Q-19.7 17.8 -14.15 22.35 L-12.35 23.95 -10.5 25.5 -3.8 20.2 Q-4.05 19.55 -4.45 19.0 100.3 -49.15 148.55 -167.55 L146.35 -169.55 Q62.95 -92.45 -29.55 -28.2 L-31.1 -29.55 -43.2 -18.8 -37.05 -5.1 -71.1 19.75 Q-77.1 19.7 -78.85 25.7 L-79.1 26.9 -79.25 28.2 Q-85.75 36.7 -77.25 42.4 -76.0 43.15 -74.4 43.4 L-69.3 44.4 -68.0 42.65 Q-62.1 44.3 -59.2 38.95 L-58.8 37.9 -58.45 36.7 -30.65 9.1" fill="#ffffff" fill-opacity="0.14901961" fill-rule="evenodd" stroke="none"/>
  </g>
  <defs>
    <linearGradient gradientTransform="matrix(-0.045, -0.1199, 0.1749, -0.0656, 291.5, -195.05)" gradientUnits="userSpaceOnUse" id="gradient0" spreadMethod="pad" x1="-819.2" x2="819.2">
      <stop offset="0.0" stop-color="#ffffff" stop-opacity="0.0"/>
      <stop offset="0.35294117647058826" stop-color="#ffffff" stop-opacity="0.2"/>
      <stop offset="0.6745098039215687" stop-color="#ffffff" stop-opacity="0.5019608"/>
    </linearGradient>
  </defs>
</svg>
