<?xml version="1.0" encoding="UTF-8" standalone="no"?>
<svg xmlns:ffdec="https://www.free-decompiler.com/flash" xmlns:xlink="http://www.w3.org/1999/xlink" ffdec:objectType="shape" height="361.8px" width="472.9px" xmlns="http://www.w3.org/2000/svg">
  <g transform="matrix(1.0, 0.0, 0.0, 1.0, 253.15, 253.2)">
    <path d="M164.65 -154.65 Q152.3 -165.45 130.6 -179.25 87.2 -206.85 40.4 -222.0 -25.15 -243.15 -88.15 -236.4 -166.9 -227.9 -237.1 -175.95 L-252.15 -221.0 Q-237.1 -227.45 -211.75 -234.5 -161.1 -248.6 -109.75 -251.5 -37.8 -255.55 25.3 -236.65 104.15 -213.0 164.65 -154.65" fill="url(#gradient0)" fill-rule="evenodd" stroke="none"/>
    <path d="M-237.1 -175.95 L-252.15 -221.0 Q-237.1 -227.45 -211.75 -234.5 -161.1 -248.6 -109.75 -251.5 -37.8 -255.55 25.3 -236.65 104.15 -213.0 164.65 -154.65" fill="none" stroke="#ffffff" stroke-linecap="round" stroke-linejoin="round" stroke-width="2.0"/>
    <path d="M-237.1 -175.95 L-252.15 -221.0 Q-237.1 -227.45 -211.75 -234.5 -161.1 -248.6 -109.75 -251.5 -37.8 -255.55 25.3 -236.65 104.15 -213.0 164.65 -154.65" fill="none" stroke="#ffffff" stroke-linecap="round" stroke-linejoin="round" stroke-width="2.0"/>
    <path d="M212.75 107.6 Q214.05 97.4 216.25 73.5 218.45 49.55 218.75 17.3 219.7 -86.05 164.65 -154.65" fill="none" stroke="#ffffff" stroke-linecap="round" stroke-linejoin="round" stroke-width="2.0"/>
  </g>
  <defs>
    <linearGradient gradientTransform="matrix(-0.1272, -0.2203, 0.0516, -0.0298, -43.75, -203.45)" gradientUnits="userSpaceOnUse" id="gradient0" spreadMethod="pad" x1="-819.2" x2="819.2">
      <stop offset="0.0" stop-color="#ffffff" stop-opacity="0.0"/>
      <stop offset="0.7686274509803922" stop-color="#ffffff" stop-opacity="0.7529412"/>
    </linearGradient>
  </defs>
</svg>
