<?xml version="1.0" encoding="UTF-8" standalone="no"?>
<svg xmlns:ffdec="https://www.free-decompiler.com/flash" xmlns:xlink="http://www.w3.org/1999/xlink" ffdec:objectType="shape" height="336.8px" width="595.8px" xmlns="http://www.w3.org/2000/svg">
  <g transform="matrix(1.0, 0.0, 0.0, 1.0, 393.1, 268.7)">
    <path d="M52.0 -61.55 Q0.45 -65.5 -26.05 -65.9 -52.55 -66.3 -89.15 -56.2 -125.75 -46.15 -150.25 -23.4 -206.55 28.85 -205.05 68.1 L-219.6 62.75 Q-285.45 31.6 -351.35 0.4 L-351.35 -1.25 -354.8 -1.25 -368.45 -7.7 Q-354.7 -113.8 -301.45 -178.35 L-291.75 -189.4 -290.75 -190.5 Q-283.55 -198.15 -275.7 -205.05 -103.0 -332.85 102.5 -204.05 120.8 -192.15 133.4 -175.65 L136.75 -170.15 137.55 -169.55 143.35 -164.3 Q152.6 -154.95 158.2 -142.75 L154.6 -139.25 162.35 -124.75 163.4 -126.0 Q172.65 -106.55 180.25 -84.35 L180.3 -84.2 Q185.1 -70.15 189.0 -55.5 187.25 -54.3 194.8 -17.4 198.6 1.0 202.7 19.15 L200.7 19.3 Q199.5 17.9 197.1 16.0 103.5 -57.65 52.0 -61.55" fill="url(#gradient0)" fill-rule="evenodd" stroke="none"/>
    <path d="M-200.05 34.4 L-195.9 27.7 Q-197.15 26.1 -197.75 24.05 -198.65 21.35 -198.5 18.4 -198.35 15.85 -197.85 13.4 L-204.25 11.0 -204.7 12.0 Q-293.4 -31.1 -392.75 -14.15 L-393.1 -11.75 Q-306.8 13.0 -225.05 49.65 L-225.3 51.25 -213.05 55.05 -206.65 44.9 Q-190.6 51.95 -174.15 58.0 -155.2 64.95 -160.3 46.05 L-162.05 45.95 Q-164.7 43.5 -167.65 41.65 -182.4 32.65 -200.05 34.4" fill="#ffffff" fill-opacity="0.7019608" fill-rule="evenodd" stroke="none"/>
    <path d="M-169.2 -15.85 Q-170.25 -19.25 -169.5 -22.7 -168.7 -26.5 -167.0 -29.8 L-172.2 -34.1 -172.9 -33.35 Q-216.45 -73.35 -268.9 -99.05 -302.1 -115.3 -338.9 -118.85 L-339.95 -116.75 Q-267.35 -65.55 -202.3 -4.8 L-202.95 -3.4 -192.75 4.15 -183.95 -3.2 -159.15 18.9 Q-158.85 20.5 -157.9 21.75 -155.25 24.65 -151.4 23.7 -147.2 26.25 -143.5 23.55 -141.9 22.45 -141.5 20.7 L-141.25 19.6 -141.15 17.1 -141.55 12.85 -143.15 12.2 -143.35 9.9 Q-144.6 6.2 -148.4 5.8 L-149.35 5.75 -174.9 -10.95 -169.2 -15.85" fill="#ffffff" fill-opacity="0.24705882" fill-rule="evenodd" stroke="none"/>
    <path d="M-141.45 -40.85 L-133.25 -40.95 Q-132.15 -45.95 -127.3 -48.5 L-125.65 -49.25 -123.95 -50.1 -126.95 -56.5 -128.0 -56.4 Q-162.45 -152.2 -249.45 -223.4 L-251.5 -222.4 Q-205.4 -139.1 -171.7 -53.25 L-173.15 -52.6 -166.8 -40.6 -154.35 -40.7 -141.0 -8.75 Q-142.25 -4.55 -137.7 -1.35 L-136.8 -0.85 -135.7 -0.35 Q-130.1 6.95 -123.75 2.7 -122.85 2.0 -122.3 1.0 L-120.45 -2.35 -121.6 -3.85 Q-119.1 -7.5 -122.85 -11.25 L-123.65 -11.85 -124.55 -12.45 -141.45 -40.85" fill="#ffffff" fill-opacity="0.14901961" fill-rule="evenodd" stroke="none"/>
  </g>
  <defs>
    <linearGradient gradientTransform="matrix(-0.0684, -0.1095, 0.1598, -0.0998, 223.55, -317.45)" gradientUnits="userSpaceOnUse" id="gradient0" spreadMethod="pad" x1="-819.2" x2="819.2">
      <stop offset="0.0" stop-color="#ffffff" stop-opacity="0.0"/>
      <stop offset="0.35294117647058826" stop-color="#ffffff" stop-opacity="0.2"/>
      <stop offset="0.6745098039215687" stop-color="#ffffff" stop-opacity="0.5019608"/>
    </linearGradient>
  </defs>
</svg>
