<?xml version="1.0" encoding="UTF-8" standalone="no"?>
<svg xmlns:ffdec="https://www.free-decompiler.com/flash" xmlns:xlink="http://www.w3.org/1999/xlink" ffdec:objectType="shape" height="258.3px" width="432.5px" xmlns="http://www.w3.org/2000/svg">
  <g transform="matrix(1.0, 0.0, 0.0, 1.0, 396.45, 261.8)">
    <path d="M-40.05 -242.05 Q-29.65 -239.6 -19.0 -236.55 13.8 -227.15 35.05 -216.95 -4.15 -232.15 -40.05 -242.05" fill="url(#gradient0)" fill-rule="evenodd" stroke="none"/>
    <path d="M-40.05 -242.05 Q-93.9 -254.75 -142.1 -251.5 -222.7 -246.1 -275.85 -196.05 -342.2 -133.55 -361.6 -4.5 L-395.45 -20.0 Q-395.5 -42.75 -388.85 -74.25 -375.5 -137.25 -341.95 -181.1 -294.95 -242.45 -214.2 -256.6 -139.9 -269.65 -40.05 -242.05" fill="url(#gradient1)" fill-rule="evenodd" stroke="none"/>
    <path d="M-40.05 -242.05 Q-4.15 -232.15 35.05 -216.95 13.8 -227.15 -19.0 -236.55 -29.65 -239.6 -40.05 -242.05 -139.9 -269.65 -214.2 -256.6 -294.95 -242.45 -341.95 -181.1 -375.5 -137.25 -388.85 -74.25 -395.5 -42.75 -395.45 -20.0 L-361.6 -4.5" fill="none" stroke="#ffffff" stroke-linecap="round" stroke-linejoin="round" stroke-width="2.0"/>
    <path d="M-40.05 -242.05 Q-29.65 -239.6 -19.0 -236.55 13.8 -227.15 35.05 -216.95 -4.15 -232.15 -40.05 -242.05" fill="url(#gradient2)" fill-rule="evenodd" stroke="none"/>
    <path d="M-40.05 -242.05 Q-4.15 -232.15 35.05 -216.95 13.8 -227.15 -19.0 -236.55 -29.65 -239.6 -40.05 -242.05 -139.9 -269.65 -214.2 -256.6 -294.95 -242.45 -341.95 -181.1 -375.5 -137.25 -388.85 -74.25 -395.5 -42.75 -395.45 -20.0 L-361.6 -4.5" fill="none" stroke="#ffffff" stroke-linecap="round" stroke-linejoin="round" stroke-width="2.0"/>
  </g>
  <defs>
    <linearGradient gradientTransform="matrix(0.0458, 0.0, 0.0, 0.0153, -2.5, -229.5)" gradientUnits="userSpaceOnUse" id="gradient0" spreadMethod="pad" x1="-819.2" x2="819.2">
      <stop offset="0.0" stop-color="#ffffff" stop-opacity="0.0"/>
      <stop offset="0.7686274509803922" stop-color="#ffffff" stop-opacity="0.7529412"/>
    </linearGradient>
    <linearGradient gradientTransform="matrix(-0.1872, -0.1082, 0.078, -0.135, -219.1, -136.25)" gradientUnits="userSpaceOnUse" id="gradient1" spreadMethod="pad" x1="-819.2" x2="819.2">
      <stop offset="0.0" stop-color="#ffffff" stop-opacity="0.0"/>
      <stop offset="0.7686274509803922" stop-color="#ffffff" stop-opacity="0.7529412"/>
    </linearGradient>
    <linearGradient gradientTransform="matrix(0.0458, 0.0, 0.0, 0.0153, -2.5, -229.5)" gradientUnits="userSpaceOnUse" id="gradient2" spreadMethod="pad" x1="-819.2" x2="819.2">
      <stop offset="0.0" stop-color="#ffffff" stop-opacity="0.0"/>
      <stop offset="0.7686274509803922" stop-color="#ffffff" stop-opacity="0.7529412"/>
    </linearGradient>
  </defs>
</svg>
