<?xml version="1.0" encoding="UTF-8" standalone="no"?>
<svg xmlns:ffdec="https://www.free-decompiler.com/flash" xmlns:xlink="http://www.w3.org/1999/xlink" ffdec:objectType="shape" height="495.45px" width="411.75px" xmlns="http://www.w3.org/2000/svg">
  <g transform="matrix(1.0, 0.0, 0.0, 1.0, 410.5, 261.2)">
    <path d="M-362.05 -162.25 Q-340.1 -192.85 -329.6 -199.95 -319.1 -207.05 -305.65 -214.15 -292.25 -221.25 -268.25 -231.4 -244.3 -241.55 -200.85 -252.85 -157.45 -264.2 -101.5 -260.1 -45.55 -256.05 -19.3 -245.0 -9.75 -240.95 -3.7 -236.85 1.6 -233.15 1.2 -231.65 0.85 -230.15 -41.1 -213.45 -86.35 -195.55 -94.25 -190.55 -116.9 -176.35 -146.65 -144.35 -176.4 -112.35 -192.65 -64.5 -200.3 -41.7 -203.65 -16.75 -206.75 5.95 -205.25 21.05 -203.05 41.55 -194.2 69.65 -185.9 95.9 -170.05 134.05 L-342.9 227.15 Q-410.65 110.7 -410.5 20.5 -410.4 -69.7 -403.95 -80.35 -397.55 -91.05 -397.3 -91.7 -393.6 -101.55 -389.15 -110.9 -384.0 -131.7 -362.05 -162.25" fill="url(#gradient0)" fill-rule="evenodd" stroke="none"/>
    <path d="M-184.85 86.25 Q-189.0 86.35 -192.25 83.95 -194.7 82.05 -196.5 79.65 L-202.35 83.8 -201.95 84.75 Q-262.0 119.55 -306.9 177.05 -327.25 203.1 -343.2 232.55 L-341.7 234.25 Q-267.65 173.85 -187.95 124.3 L-186.95 125.4 -176.25 117.05 -179.4 105.6 Q-149.1 86.45 -143.7 74.5 -138.25 62.5 -148.5 66.1 L-149.65 67.55 Q-167.9 73.05 -180.1 89.9 L-182.75 93.75 -184.85 86.25" fill="#ffffff" fill-opacity="0.7019608" fill-rule="evenodd" stroke="none"/>
    <path d="M-200.0 58.3 L-201.95 52.7 Q-207.45 52.4 -211.25 49.35 L-212.5 48.3 -213.7 47.25 -219.85 49.9 -219.55 50.65 Q-313.65 83.85 -369.95 150.6 L-368.5 151.95 Q-290.15 111.95 -206.45 80.3 L-205.4 81.2 -194.1 75.65 -196.95 67.15 -165.95 54.75 Q-161.2 55.2 -158.85 51.7 L-158.5 51.1 -158.15 50.3 Q-151.65 45.7 -157.65 41.8 -158.55 41.25 -159.75 41.0 L-163.8 40.05 -165.05 41.0 Q-169.5 39.65 -172.65 42.6 L-173.1 43.2 -173.55 43.85 -200.0 58.3" fill="#ffffff" fill-opacity="0.24705882" fill-rule="evenodd" stroke="none"/>
    <path d="M-205.2 13.6 Q-209.0 11.8 -211.15 8.6 -212.9 5.95 -213.9 3.1 L-220.7 3.6 -220.7 4.55 Q-288.15 3.7 -348.7 27.55 -375.9 38.25 -400.05 53.75 L-399.2 55.75 Q-310.65 43.15 -220.3 41.6 L-219.7 43.0 -207.0 41.4 -206.3 31.05 -172.55 29.8 Q-165.7 31.9 -160.15 26.8 -157.4 24.25 -158.95 20.65 -160.2 17.8 -163.05 16.05 L-164.7 14.85 -166.3 15.35 Q-184.65 10.1 -205.6 20.4 L-205.2 13.6" fill="#ffffff" fill-opacity="0.14901961" fill-rule="evenodd" stroke="none"/>
  </g>
  <defs>
    <linearGradient gradientTransform="matrix(-0.1182, 0.0511, -0.0745, -0.1725, -433.35, -491.5)" gradientUnits="userSpaceOnUse" id="gradient0" spreadMethod="pad" x1="-819.2" x2="819.2">
      <stop offset="0.0" stop-color="#ffffff" stop-opacity="0.0"/>
      <stop offset="0.35294117647058826" stop-color="#ffffff" stop-opacity="0.2"/>
      <stop offset="0.6745098039215687" stop-color="#ffffff" stop-opacity="0.5019608"/>
    </linearGradient>
  </defs>
</svg>
