<?xml version="1.0" encoding="UTF-8" standalone="no"?>
<svg xmlns:ffdec="https://www.free-decompiler.com/flash" xmlns:xlink="http://www.w3.org/1999/xlink" ffdec:objectType="shape" height="494.8px" width="372.1px" xmlns="http://www.w3.org/2000/svg">
  <g transform="matrix(1.0, 0.0, 0.0, 1.0, 415.3, 265.95)">
    <path d="M-318.55 -208.8 Q-328.45 -201.0 -340.65 -185.15 -365.9 -152.5 -378.35 -110.05 -395.85 -50.55 -385.25 20.15 -372.0 108.55 -315.4 209.5 L-351.25 227.85 Q-361.35 209.6 -373.5 179.95 -397.75 120.65 -407.8 63.7 -421.9 -16.05 -405.5 -79.8 -385.15 -159.0 -318.55 -208.8" fill="url(#gradient0)" fill-rule="evenodd" stroke="none"/>
    <path d="M-315.4 209.5 L-351.25 227.85 Q-361.35 209.6 -373.5 179.95 -397.75 120.65 -407.8 63.7 -421.9 -16.05 -405.5 -79.8 -385.15 -159.0 -318.55 -208.8 L-317.9 -209.3 Q-250.75 -259.35 -140.75 -264.4 -106.4 -266.0 -71.85 -262.9 -54.6 -261.35 -44.2 -259.5" fill="none" stroke="#ffffff" stroke-linecap="round" stroke-linejoin="round" stroke-width="2.0"/>
    <path d="M-315.4 209.5 L-351.25 227.85 Q-361.35 209.6 -373.5 179.95 -397.75 120.65 -407.8 63.7 -421.9 -16.05 -405.5 -79.8 -385.15 -159.0 -318.55 -208.8 L-317.9 -209.3 Q-250.75 -259.35 -140.75 -264.4 -106.4 -266.0 -71.85 -262.9 -54.6 -261.35 -44.2 -259.5" fill="none" stroke="#ffffff" stroke-linecap="round" stroke-linejoin="round" stroke-width="2.0"/>
  </g>
  <defs>
    <linearGradient gradientTransform="matrix(0.0604, 0.0, 0.0, 0.2665, -364.85, 9.5)" gradientUnits="userSpaceOnUse" id="gradient0" spreadMethod="pad" x1="-819.2" x2="819.2">
      <stop offset="0.0" stop-color="#ffffff" stop-opacity="0.0"/>
      <stop offset="0.7686274509803922" stop-color="#ffffff" stop-opacity="0.7529412"/>
    </linearGradient>
  </defs>
</svg>
