<?xml version="1.0" encoding="UTF-8" standalone="no"?>
<svg xmlns:ffdec="https://www.free-decompiler.com/flash" xmlns:xlink="http://www.w3.org/1999/xlink" ffdec:objectType="shape" height="451.9px" width="226.45px" xmlns="http://www.w3.org/2000/svg">
  <g transform="matrix(1.0, 0.0, 0.0, 1.0, 412.75, 110.2)">
    <path d="M-411.05 89.35 Q-403.45 99.05 -398.45 115.55 -388.65 148.45 -370.15 177.8 -344.2 218.8 -304.7 246.8 -255.25 281.7 -187.3 294.05 L-208.45 340.7 Q-221.05 334.95 -239.85 323.9 -277.45 301.75 -308.55 274.9 -352.05 237.25 -376.25 195.7 -406.45 143.75 -411.05 89.35" fill="url(#gradient0)" fill-rule="evenodd" stroke="none"/>
    <path d="M-187.3 294.05 L-208.45 340.7 Q-221.05 334.95 -239.85 323.9 -277.45 301.75 -308.55 274.9 -352.05 237.25 -376.25 195.7 -406.45 143.75 -411.05 89.35" fill="none" stroke="#ffffff" stroke-linecap="round" stroke-linejoin="round" stroke-width="2.0"/>
    <path d="M-187.3 294.05 L-208.45 340.7 Q-221.05 334.95 -239.85 323.9 -277.45 301.75 -308.55 274.9 -352.05 237.25 -376.25 195.7 -406.45 143.75 -411.05 88.5" fill="none" stroke="#ffffff" stroke-linecap="round" stroke-linejoin="round" stroke-width="2.0"/>
    <path d="M-379.45 -109.2 Q-394.95 -82.35 -404.5 -20.25 -414.05 41.85 -411.05 88.5" fill="none" stroke="#ffffff" stroke-linecap="round" stroke-linejoin="round" stroke-width="2.0"/>
  </g>
  <defs>
    <linearGradient gradientTransform="matrix(-0.0501, 0.087, -0.1554, -0.0894, -321.0, 206.9)" gradientUnits="userSpaceOnUse" id="gradient0" spreadMethod="pad" x1="-819.2" x2="819.2">
      <stop offset="0.0" stop-color="#ffffff" stop-opacity="0.0"/>
      <stop offset="0.7686274509803922" stop-color="#ffffff" stop-opacity="0.7529412"/>
    </linearGradient>
  </defs>
</svg>
