<?xml version="1.0" encoding="UTF-8" standalone="no"?>
<svg xmlns:ffdec="https://www.free-decompiler.com/flash" xmlns:xlink="http://www.w3.org/1999/xlink" ffdec:objectType="shape" height="240.6px" width="467.05px" xmlns="http://www.w3.org/2000/svg">
  <g transform="matrix(1.0, 0.0, 0.0, 1.0, 270.65, -118.95)">
    <path d="M89.05 199.65 Q130.75 224.4 185.75 262.05 133.05 302.95 68.35 326.65 3.6 350.35 -29.45 353.95 L-75.4 359.2 Q-88.3 360.85 -155.75 354.3 -223.2 347.7 -245.45 299.65 -267.7 251.55 -270.65 218.95 -241.0 215.75 -205.85 208.65 -186.8 204.85 -176.1 199.05 -165.5 193.3 -157.55 194.15 -149.6 195.0 -94.3 193.35 -39.0 191.65 -15.65 170.9 7.65 150.1 8.85 147.9 47.3 174.85 89.05 199.65" fill="url(#gradient0)" fill-rule="evenodd" stroke="none"/>
    <path d="M-195.45 189.05 L-195.45 189.0 -195.4 189.0 -195.45 189.05" fill="url(#gradient1)" fill-rule="evenodd" stroke="none"/>
    <path d="M-17.2 161.2 Q-15.1 165.3 -15.65 169.6 -16.1 173.0 -17.35 176.15 L-10.65 180.4 -9.9 179.6 Q52.15 226.4 127.25 247.15 161.0 256.55 195.6 259.6 L196.4 257.3 Q104.1 207.65 18.85 147.3 L19.35 145.75 6.35 138.4 -2.45 146.8 -34.75 124.9 Q-39.5 118.4 -48.7 119.0 -53.25 119.3 -54.7 123.55 -55.8 126.85 -54.5 130.2 L-53.95 132.5 -52.05 133.1 Q-39.1 150.2 -11.5 155.6 L-17.2 161.2" fill="#ffffff" fill-opacity="0.7019608" fill-rule="evenodd" stroke="none"/>
    <path d="M-58.65 194.65 L-62.35 198.25 Q-61.65 200.15 -61.45 202.15 -61.1 204.85 -61.5 207.25 -61.9 209.3 -62.55 211.1 L-58.3 216.05 -57.85 215.5 Q0.35 293.0 72.75 325.45 L73.3 323.65 Q14.75 262.5 -39.25 193.65 L-38.85 192.4 -47.1 183.5 -52.85 188.95 Q-63.45 175.5 -74.45 162.75 -87.1 148.1 -85.55 166.3 L-84.35 167.15 -80.85 173.4 Q-71.35 187.8 -58.65 194.65" fill="#ffffff" fill-opacity="0.24705882" fill-rule="evenodd" stroke="none"/>
    <path d="M-129.0 211.15 Q-129.95 213.6 -131.75 215.3 -133.7 217.1 -135.85 218.25 L-135.35 223.05 -134.75 223.0 Q-132.15 265.8 -119.7 304.5 -111.85 329.0 -97.0 347.75 L-95.7 347.0 Q-106.4 284.55 -109.8 219.9 L-108.9 219.4 -110.25 210.4 -117.2 210.65 -118.95 186.6 Q-118.35 185.55 -118.3 184.4 -118.25 181.5 -120.35 180.3 -121.1 176.95 -123.95 176.8 -125.1 176.7 -126.0 177.55 L-126.6 178.05 -127.7 179.45 -129.25 182.1 -128.85 183.2 -129.7 184.6 Q-130.7 187.3 -129.15 189.3 L-128.75 189.7 -124.45 211.0 -129.0 211.15" fill="#ffffff" fill-opacity="0.14901961" fill-rule="evenodd" stroke="none"/>
  </g>
  <defs>
    <linearGradient gradientTransform="matrix(0.2648, 0.0, 0.0, 0.114, -53.7, 241.25)" gradientUnits="userSpaceOnUse" id="gradient0" spreadMethod="pad" x1="-819.2" x2="819.2">
      <stop offset="0.0" stop-color="#ffffff" stop-opacity="0.0"/>
      <stop offset="0.35294117647058826" stop-color="#ffffff" stop-opacity="0.2"/>
      <stop offset="0.6745098039215687" stop-color="#ffffff" stop-opacity="0.5019608"/>
    </linearGradient>
    <linearGradient gradientTransform="matrix(0.0432, 0.0, 0.0, 0.014, -203.55, 179.9)" gradientUnits="userSpaceOnUse" id="gradient1" spreadMethod="pad" x1="-819.2" x2="819.2">
      <stop offset="0.0" stop-color="#ffffff" stop-opacity="0.0"/>
      <stop offset="0.35294117647058826" stop-color="#ffffff" stop-opacity="0.2"/>
      <stop offset="0.6745098039215687" stop-color="#ffffff" stop-opacity="0.5019608"/>
    </linearGradient>
  </defs>
</svg>
