<?xml version="1.0" encoding="UTF-8" standalone="no"?>
<svg xmlns:ffdec="https://www.free-decompiler.com/flash" xmlns:xlink="http://www.w3.org/1999/xlink" ffdec:objectType="shape" height="256.6px" width="611.1px" xmlns="http://www.w3.org/2000/svg">
  <g transform="matrix(1.0, 0.0, 0.0, 1.0, 410.8, -103.25)">
    <path d="M-252.8 315.35 Q-171.6 349.75 -91.65 343.8 -27.65 339.0 32.65 308.7 75.75 287.1 112.65 254.9 131.1 238.8 140.95 227.0 L199.3 261.2 Q116.15 345.15 24.45 354.0 -67.3 362.85 -134.7 355.2 -182.85 349.7 -222.65 332.0 -242.55 323.1 -252.8 315.35" fill="url(#gradient0)" fill-rule="evenodd" stroke="none"/>
    <path d="M-252.8 315.35 Q-242.55 323.1 -222.65 332.0 -182.85 349.7 -134.7 355.2 -67.3 362.85 24.45 354.0 116.15 345.15 199.3 261.2 L140.95 227.0" fill="none" stroke="#ffffff" stroke-linecap="round" stroke-linejoin="round" stroke-width="2.0"/>
    <path d="M-252.8 315.35 Q-242.55 323.1 -222.65 332.0 -182.85 349.7 -134.7 355.2 -67.3 362.85 28.15 354.4 123.6 345.9 199.3 261.2 L140.95 227.0" fill="none" stroke="#ffffff" stroke-linecap="round" stroke-linejoin="round" stroke-width="2.0"/>
    <path d="M-252.8 315.35 Q-271.6 305.5 -290.1 292.8 -308.65 280.1 -333.05 254.6 -357.45 229.1 -380.65 190.3 -403.85 151.5 -409.8 104.25" fill="none" stroke="#ffffff" stroke-linecap="round" stroke-linejoin="round" stroke-width="2.0"/>
  </g>
  <defs>
    <linearGradient gradientTransform="matrix(0.2759, 0.0, 0.0, 0.0797, -26.75, 292.25)" gradientUnits="userSpaceOnUse" id="gradient0" spreadMethod="pad" x1="-819.2" x2="819.2">
      <stop offset="0.0" stop-color="#ffffff" stop-opacity="0.0"/>
      <stop offset="0.7686274509803922" stop-color="#ffffff" stop-opacity="0.7529412"/>
    </linearGradient>
  </defs>
</svg>
