<?xml version="1.0" encoding="UTF-8" standalone="no"?>
<svg xmlns:ffdec="https://www.free-decompiler.com/flash" xmlns:xlink="http://www.w3.org/1999/xlink" ffdec:objectType="shape" height="279.7px" width="236.75px" xmlns="http://www.w3.org/2000/svg">
  <g transform="matrix(1.0, 0.0, 0.0, 1.0, -45.9, -8.35)">
    <path d="M92.2 96.95 L92.65 105.2 Q97.8 106.9 100.65 112.1 L101.5 113.85 102.4 115.6 109.0 113.35 108.85 112.25 Q206.8 89.2 277.3 10.5 L276.2 8.35 Q191.55 44.55 103.9 68.1 L103.15 66.6 90.95 71.45 91.5 84.0 58.95 93.55 Q54.5 91.8 51.4 96.05 L50.85 96.85 50.4 97.85 Q43.05 102.6 47.7 109.5 L49.5 111.15 Q51.25 112.4 53.1 113.4 L54.55 112.35 Q58.5 115.35 62.2 112.05 L62.8 111.3 63.4 110.5 92.2 96.95" fill="#ffffff" fill-opacity="0.29803923" fill-rule="evenodd" stroke="none"/>
    <path d="M281.4 14.85 Q282.0 26.8 281.05 45.95 279.15 84.25 271.55 120.45 260.9 171.05 240.3 210.2 214.55 259.05 174.65 287.05" fill="none" stroke="#ffffff" stroke-linecap="round" stroke-linejoin="round" stroke-width="2.0"/>
  </g>
</svg>
