<?xml version="1.0" encoding="UTF-8" standalone="no"?>
<svg xmlns:ffdec="https://www.free-decompiler.com/flash" xmlns:xlink="http://www.w3.org/1999/xlink" ffdec:objectType="shape" height="314.55px" width="326.0px" xmlns="http://www.w3.org/2000/svg">
  <g transform="matrix(1.0, 0.0, 0.0, 1.0, 70.85, 51.45)">
    <path d="M71.05 -24.95 L83.05 -34.95 211.95 90.0 228.95 106.0 199.0 168.5 192.5 171.0 Q131.8 234.35 27.0 255.0 L24.5 -22.0 43.05 -47.95 71.05 -24.95" fill="url(#gradient0)" fill-rule="evenodd" stroke="none"/>
    <path d="M48.2 -8.05 Q49.2 -3.75 48.2 0.4 47.2 4.85 44.55 8.65 L50.45 14.25 51.75 13.35 Q100.55 69.9 169.45 101.05 209.9 119.3 254.05 126.2 L255.15 123.95 Q190.75 92.3 153.1 32.45 L90.3 -19.25 91.25 -20.95 78.95 -30.6 67.55 -22.25 Q48.4 -54.1 18.95 -51.2 14.5 -50.75 13.95 -44.5 L17.45 -43.35 17.6 -42.35 Q17.95 -38.85 20.9 -36.7 L23.4 -35.1 26.7 -36.5 55.75 -13.55 48.2 -8.05" fill="#ffffff" fill-opacity="0.7019608" fill-rule="evenodd" stroke="none"/>
    <path d="M5.15 26.05 L-3.15 28.8 Q-3.85 35.55 -8.7 40.35 L-10.0 41.6 -11.35 42.9 -7.8 49.8 -6.45 49.3 Q1.8 69.4 12.6 88.25 58.25 168.5 138.5 213.9 L140.1 212.15 Q105.1 156.3 77.35 97.65 L37.35 31.4 38.7 30.1 30.8 17.55 18.15 21.65 Q16.9 4.1 4.4 -7.9 -7.6 -19.55 -22.5 -14.95 L-19.7 -12.8 -19.85 -11.75 Q-20.2 -8.2 -18.45 -5.3 L-17.75 -4.35 -17.0 -3.5 -13.65 -3.75 5.15 26.05" fill="#ffffff" fill-opacity="0.24705882" fill-rule="evenodd" stroke="none"/>
    <path d="M-54.55 -14.15 L-52.7 -14.5 Q-45.4 -15.25 -42.05 -8.65 -40.6 -7.85 -39.65 -6.55 -38.45 -4.85 -38.3 -2.8 -38.05 0.3 -40.7 2.1 L-35.1 40.3 -21.85 41.1 -19.2 55.9 -20.85 56.35 -8.1 132.65 6.5 263.1 Q-10.2 240.6 -23.4 215.85 -63.2 141.3 -68.1 56.9 L-69.55 56.8 -70.85 49.75 Q-61.65 47.9 -57.95 39.15 L-48.8 39.55 -55.35 4.95 -56.85 5.2 Q-60.7 -4.95 -54.55 -14.15" fill="#ffffff" fill-opacity="0.14901961" fill-rule="evenodd" stroke="none"/>
  </g>
  <defs>
    <linearGradient gradientTransform="matrix(0.1297, 0.0, 0.0, 0.1892, 130.7, 107.0)" gradientUnits="userSpaceOnUse" id="gradient0" spreadMethod="pad" x1="-819.2" x2="819.2">
      <stop offset="0.0" stop-color="#ffffff" stop-opacity="0.0"/>
      <stop offset="0.35294117647058826" stop-color="#ffffff" stop-opacity="0.2"/>
      <stop offset="0.6745098039215687" stop-color="#ffffff" stop-opacity="0.5019608"/>
    </linearGradient>
  </defs>
</svg>
