<?xml version="1.0" encoding="UTF-8" standalone="no"?>
<svg xmlns:ffdec="https://www.free-decompiler.com/flash" xmlns:xlink="http://www.w3.org/1999/xlink" ffdec:objectType="shape" height="189.8px" width="508.35px" xmlns="http://www.w3.org/2000/svg">
  <g transform="matrix(1.0, 0.0, 0.0, 1.0, 252.75, -88.95)">
    <path d="M212.0 89.95 L254.6 125.9 249.4 134.35 Q242.4 145.05 233.05 155.85 202.5 191.0 155.95 217.35 90.55 254.3 1.6 268.75 -109.6 286.85 -251.75 268.6 L-192.2 270.8 Q-119.6 270.7 -54.3 259.55 37.1 243.85 100.8 208.15 180.45 163.5 212.0 89.95" fill="url(#gradient0)" fill-rule="evenodd" stroke="none"/>
    <path d="M212.0 89.95 L254.6 125.9 249.4 134.35 Q242.4 145.05 233.05 155.85 202.5 191.0 155.95 217.35 90.55 254.3 1.6 268.75 -109.6 286.85 -251.75 268.6" fill="none" stroke="#ffffff" stroke-linecap="round" stroke-linejoin="round" stroke-width="2.0"/>
    <path d="M212.0 89.95 L254.6 125.9 249.4 134.35 Q242.4 145.05 233.05 155.85 202.5 191.0 155.95 217.35 90.55 254.3 1.6 268.75 -109.6 286.85 -251.75 268.6" fill="none" stroke="#ffffff" stroke-linecap="round" stroke-linejoin="round" stroke-width="2.0"/>
  </g>
  <defs>
    <linearGradient gradientTransform="matrix(0.3091, 0.0, 0.0, 0.1146, 1.4, 183.85)" gradientUnits="userSpaceOnUse" id="gradient0" spreadMethod="pad" x1="-819.2" x2="819.2">
      <stop offset="0.0" stop-color="#ffffff" stop-opacity="0.0"/>
      <stop offset="0.7686274509803922" stop-color="#ffffff" stop-opacity="0.7529412"/>
    </linearGradient>
  </defs>
</svg>
