<?xml version="1.0" encoding="UTF-8" standalone="no"?>
<svg xmlns:ffdec="https://www.free-decompiler.com/flash" xmlns:xlink="http://www.w3.org/1999/xlink" ffdec:objectType="shape" height="400.05px" width="327.35px" xmlns="http://www.w3.org/2000/svg">
  <g transform="matrix(1.0, 0.0, 0.0, 1.0, 109.3, 199.85)">
    <path d="M86.95 -184.0 Q125.5 -173.05 160.35 -134.3 191.1 -100.15 205.9 -52.5 220.65 -4.9 217.35 49.95 214.0 104.8 153.9 154.15 93.8 203.5 64.9 199.95 88.65 122.25 46.95 38.0 L36.95 32.0 -4.05 -31.0 -49.0 -57.0 -61.0 -66.0 -80.0 -97.0 86.95 -184.0" fill="url(#gradient0)" fill-rule="evenodd" stroke="none"/>
    <path d="M-61.6 -68.4 L-58.9 -60.5 Q-52.4 -59.85 -47.75 -55.3 L-46.4 -54.1 -45.2 -52.7 -38.65 -56.2 -39.1 -57.55 Q66.6 -101.2 117.65 -198.3 L115.95 -199.85 Q69.9 -153.65 6.6 -138.5 L-56.7 -99.45 -57.95 -100.7 -69.95 -93.0 -65.85 -80.9 Q-82.95 -71.35 -100.4 -62.6 -102.45 -61.6 -104.3 -59.8 -115.85 -48.4 -100.65 -41.5 L-98.65 -44.15 -97.7 -44.0 Q-94.4 -43.15 -91.75 -45.05 L-91.0 -45.7 -89.75 -46.9 -90.0 -50.1 -61.6 -68.4" fill="#ffffff" fill-opacity="0.7019608" fill-rule="evenodd" stroke="none"/>
    <path d="M-30.2 -41.05 L-29.3 -32.7 Q-23.45 -30.8 -19.95 -25.4 L-18.95 -23.95 -18.15 -22.35 -11.25 -24.45 -11.4 -25.8 Q97.3 -47.15 166.1 -131.75 L164.9 -133.6 Q111.65 -97.75 49.8 -87.05 L-18.95 -70.4 -19.8 -71.85 -32.75 -66.7 -31.5 -54.1 Q-49.6 -48.25 -67.9 -43.25 -70.05 -42.65 -72.15 -41.25 -85.4 -32.45 -72.7 -22.65 L-70.2 -24.8 -69.4 -24.45 -63.5 -24.3 -62.75 -24.75 -61.25 -25.65 -60.85 -28.85 -30.2 -41.05" fill="#ffffff" fill-opacity="0.24705882" fill-rule="evenodd" stroke="none"/>
    <path d="M-10.8 21.75 Q-7.25 23.95 -5.15 27.5 -2.85 31.15 -2.0 35.45 L5.75 35.4 5.95 33.95 Q76.95 40.8 144.25 17.4 183.75 3.65 218.05 -20.25 L217.25 -22.5 87.6 -12.2 Q48.4 -10.45 9.85 -13.15 L9.35 -14.9 -5.4 -13.6 -7.5 -0.45 Q-41.8 -9.75 -59.6 11.3 -62.35 14.5 -58.5 19.1 L-55.3 17.6 -54.6 18.25 Q-52.0 20.35 -48.55 19.95 L-45.8 19.4 -44.5 16.3 -9.55 13.1 -10.8 21.75" fill="#ffffff" fill-opacity="0.14901961" fill-rule="evenodd" stroke="none"/>
  </g>
  <defs>
    <linearGradient gradientTransform="matrix(-0.0027, -0.2004, 0.2348, -0.0031, 86.35, 5.85)" gradientUnits="userSpaceOnUse" id="gradient0" spreadMethod="pad" x1="-819.2" x2="819.2">
      <stop offset="0.0" stop-color="#ffffff" stop-opacity="0.0"/>
      <stop offset="0.35294117647058826" stop-color="#ffffff" stop-opacity="0.2"/>
      <stop offset="0.6745098039215687" stop-color="#ffffff" stop-opacity="0.5019608"/>
    </linearGradient>
  </defs>
</svg>
