<?xml version="1.0" encoding="UTF-8" standalone="no"?>
<svg xmlns:ffdec="https://www.free-decompiler.com/flash" xmlns:xlink="http://www.w3.org/1999/xlink" ffdec:objectType="shape" height="472.25px" width="290.25px" xmlns="http://www.w3.org/2000/svg">
  <g transform="matrix(1.0, 0.0, 0.0, 1.0, 25.65, 197.7)">
    <path d="M75.0 -167.4 L123.45 -196.7 Q137.9 -186.65 157.45 -168.45 196.65 -131.95 222.5 -90.85 258.65 -33.35 263.0 25.1 268.4 98.2 223.4 168.65 230.25 155.95 236.45 134.8 248.9 92.55 245.9 50.45 241.6 -8.55 206.95 -58.85 163.6 -121.75 75.0 -167.4" fill="url(#gradient0)" fill-rule="evenodd" stroke="none"/>
    <path d="M75.0 -167.4 L123.45 -196.7 Q137.9 -186.65 157.45 -168.45 196.65 -131.95 222.5 -90.85 258.65 -33.35 263.0 25.1 268.4 98.2 223.4 168.65" fill="none" stroke="#ffffff" stroke-linecap="round" stroke-linejoin="round" stroke-width="2.0"/>
    <path d="M-24.65 273.55 Q-13.7 272.4 3.85 269.3 39.0 263.15 72.1 253.5 177.9 222.65 223.4 168.65" fill="none" stroke="#ffffff" stroke-linecap="round" stroke-linejoin="round" stroke-width="2.0"/>
  </g>
  <defs>
    <linearGradient gradientTransform="matrix(-0.1069, -0.0407, 0.0789, -0.207, 174.15, -21.85)" gradientUnits="userSpaceOnUse" id="gradient0" spreadMethod="pad" x1="-819.2" x2="819.2">
      <stop offset="0.0" stop-color="#ffffff" stop-opacity="0.0"/>
      <stop offset="0.7686274509803922" stop-color="#ffffff" stop-opacity="0.7529412"/>
    </linearGradient>
  </defs>
</svg>
