<?xml version="1.0" encoding="UTF-8" standalone="no"?>
<svg xmlns:ffdec="https://www.free-decompiler.com/flash" xmlns:xlink="http://www.w3.org/1999/xlink" ffdec:objectType="shape" height="337.15px" width="477.55px" xmlns="http://www.w3.org/2000/svg">
  <g transform="matrix(1.0, 0.0, 0.0, 1.0, 218.2, 264.05)">
    <path d="M256.65 39.25 L259.35 38.35 259.3 39.25 256.65 39.25 M52.05 -24.95 Q45.05 -31.95 37.2 -38.95 21.45 -52.95 17.05 -52.95 L12.05 -45.95 Q-9.7 -52.7 -36.95 -53.95 -91.4 -56.45 -118.95 -28.95 L-136.95 -26.95 -142.0 -17.95 -218.0 -221.0 -218.2 -221.35 Q-197.65 -230.55 -165.45 -240.35 -99.75 -260.35 -38.95 -263.5 46.15 -267.85 109.3 -237.85 188.2 -200.35 228.1 -110.95 L230.5 -106.5 236.55 -93.75 Q245.9 -72.35 248.35 -60.95 250.8 -49.55 251.85 -38.2 252.85 -26.85 251.1 -0.25 245.75 61.45 225.75 73.1 227.4 46.35 188.3 19.65 L139.7 -5.35 130.9 -8.15 Q73.4 -24.05 52.05 -24.95" fill="url(#gradient0)" fill-rule="evenodd" stroke="none"/>
    <path d="M-140.85 -32.45 L-133.0 -33.25 Q-130.75 -39.0 -125.45 -42.35 L-123.95 -43.3 -122.4 -44.05 -123.9 -50.85 -125.25 -50.75 Q-137.7 -157.25 -212.75 -225.25 L-214.55 -224.0 Q-184.45 -171.65 -186.95 -110.3 L-167.8 -43.7 -169.25 -42.85 -165.35 -30.15 -153.35 -31.25 Q-149.05 -13.5 -145.6 4.35 -145.2 6.5 -144.05 8.6 -136.65 21.65 -126.45 9.25 L-128.4 6.8 -127.95 6.0 Q-126.35 3.1 -127.45 0.25 L-127.8 -0.55 -128.55 -2.0 -131.55 -2.45 -140.85 -32.45" fill="#ffffff" fill-opacity="0.7019608" fill-rule="evenodd" stroke="none"/>
    <path d="M-88.65 -53.9 Q-86.2 -57.55 -82.35 -59.65 -79.3 -61.2 -75.9 -61.95 L-75.9 -68.9 -77.2 -69.1 Q-77.2 -124.05 -86.9 -177.7 -93.3 -213.35 -114.25 -243.05 -119.55 -250.6 -125.6 -257.55 L-127.65 -256.85 Q-109.2 -199.45 -116.05 -134.7 L-120.7 -71.8 -122.25 -71.35 -121.15 -58.15 -109.1 -56.55 -107.65 -22.15 Q-111.5 -14.3 -104.8 -8.45 -102.25 -6.25 -98.7 -7.35 -95.65 -8.3 -92.8 -10.1 -92.05 -10.65 -91.45 -11.35 L-92.8 -14.1 -92.2 -14.75 Q-89.7 -17.55 -90.6 -21.05 L-91.05 -22.65 -93.9 -23.7 -96.6 -54.9 -88.65 -53.9" fill="#ffffff" fill-opacity="0.24705882" fill-rule="evenodd" stroke="none"/>
    <path d="M-39.5 -57.6 Q-36.25 -60.45 -31.9 -61.15 L-25.1 -61.45 -23.1 -68.0 -24.3 -68.6 Q0.5 -127.95 -3.15 -191.85 -5.2 -228.05 -16.9 -262.6 L-19.1 -262.5 Q-18.4 -202.65 -46.1 -142.55 L-65.0 -84.3 -66.65 -84.35 -69.35 -71.5 -58.3 -66.25 Q-69.3 -51.2 -68.0 -32.55 -67.55 -26.3 -63.3 -21.5 -59.7 -17.4 -54.3 -17.9 L-54.8 -21.0 -53.7 -21.8 Q-50.65 -24.3 -50.75 -28.6 L-53.1 -30.45 -46.8 -61.0 -39.5 -57.6" fill="#ffffff" fill-opacity="0.14901961" fill-rule="evenodd" stroke="none"/>
  </g>
  <defs>
    <linearGradient gradientTransform="matrix(-0.045, -0.1199, 0.1749, -0.0656, 314.15, -217.7)" gradientUnits="userSpaceOnUse" id="gradient0" spreadMethod="pad" x1="-819.2" x2="819.2">
      <stop offset="0.0" stop-color="#ffffff" stop-opacity="0.0"/>
      <stop offset="0.35294117647058826" stop-color="#ffffff" stop-opacity="0.2"/>
      <stop offset="0.6745098039215687" stop-color="#ffffff" stop-opacity="0.5019608"/>
    </linearGradient>
  </defs>
</svg>
