<?xml version="1.0" encoding="UTF-8" standalone="no"?>
<svg xmlns:ffdec="https://www.free-decompiler.com/flash" xmlns:xlink="http://www.w3.org/1999/xlink" ffdec:objectType="shape" height="396.1px" width="477.2px" xmlns="http://www.w3.org/2000/svg">
  <g transform="matrix(1.0, 0.0, 0.0, 1.0, 223.15, 277.1)">
    <path d="M232.2 -111.75 L232.7 -110.7 Q241.9 -90.9 243.65 -76.55 238.7 -95.0 232.2 -111.75" fill="url(#gradient0)" fill-rule="evenodd" stroke="none"/>
    <path d="M232.2 -111.75 Q213.75 -150.65 176.85 -177.45 124.4 -215.45 41.45 -223.1 -62.2 -232.7 -207.95 -194.1 L-222.15 -244.85 Q-198.2 -253.5 -160.95 -261.7 -86.5 -278.15 -20.15 -275.8 72.75 -272.6 136.1 -232.35 201.5 -190.9 232.2 -111.75" fill="url(#gradient1)" fill-rule="evenodd" stroke="none"/>
    <path d="M232.2 -111.75 Q238.7 -95.0 243.65 -76.55 241.9 -90.9 232.7 -110.7 L232.2 -111.75 Q201.5 -190.9 136.1 -232.35 72.75 -272.6 -20.15 -275.8 -86.5 -278.15 -160.95 -261.7 -198.2 -253.5 -222.15 -244.85 L-207.95 -194.1" fill="none" stroke="#ffffff" stroke-linecap="round" stroke-linejoin="round" stroke-width="2.0"/>
    <path d="M232.2 -111.75 L232.7 -110.7 Q241.9 -90.9 243.65 -76.55 238.7 -95.0 232.2 -111.75" fill="url(#gradient2)" fill-rule="evenodd" stroke="none"/>
    <path d="M232.2 -111.75 Q238.7 -95.0 243.65 -76.55 241.9 -90.9 232.7 -110.7 L232.2 -111.75 Q201.5 -190.9 136.1 -232.35 72.75 -272.6 -20.15 -275.8 -86.5 -278.15 -160.95 -261.7 -198.2 -253.5 -222.15 -244.85 L-207.95 -194.1" fill="none" stroke="#ffffff" stroke-linecap="round" stroke-linejoin="round" stroke-width="2.0"/>
    <path d="M234.9 118.0 Q237.75 108.3 240.2 98.4 264.0 2.45 243.65 -76.55" fill="none" stroke="#ffffff" stroke-linecap="round" stroke-linejoin="round" stroke-width="2.0"/>
  </g>
  <defs>
    <linearGradient gradientTransform="matrix(0.007, 0.0, 0.0, 0.0215, 237.9, -94.15)" gradientUnits="userSpaceOnUse" id="gradient0" spreadMethod="pad" x1="-819.2" x2="819.2">
      <stop offset="0.0" stop-color="#ffffff" stop-opacity="0.0"/>
      <stop offset="0.7686274509803922" stop-color="#ffffff" stop-opacity="0.7529412"/>
    </linearGradient>
    <linearGradient gradientTransform="matrix(-0.2092, 0.1814, -0.0656, -0.0757, 6.35, -195.85)" gradientUnits="userSpaceOnUse" id="gradient1" spreadMethod="pad" x1="-819.2" x2="819.2">
      <stop offset="0.0" stop-color="#ffffff" stop-opacity="0.0"/>
      <stop offset="0.7686274509803922" stop-color="#ffffff" stop-opacity="0.7529412"/>
    </linearGradient>
    <linearGradient gradientTransform="matrix(0.007, 0.0, 0.0, 0.0215, 237.9, -94.15)" gradientUnits="userSpaceOnUse" id="gradient2" spreadMethod="pad" x1="-819.2" x2="819.2">
      <stop offset="0.0" stop-color="#ffffff" stop-opacity="0.0"/>
      <stop offset="0.7686274509803922" stop-color="#ffffff" stop-opacity="0.7529412"/>
    </linearGradient>
  </defs>
</svg>
