<?xml version="1.0" encoding="UTF-8" standalone="no"?>
<svg xmlns:ffdec="https://www.free-decompiler.com/flash" xmlns:xlink="http://www.w3.org/1999/xlink" ffdec:objectType="shape" height="383.5px" width="587.75px" xmlns="http://www.w3.org/2000/svg">
  <g transform="matrix(1.0, 0.0, 0.0, 1.0, 337.7, 288.0)">
    <path d="M99.35 -80.85 Q47.8 -84.8 21.3 -85.2 -5.2 -85.6 -41.8 -75.5 -78.4 -65.45 -102.9 -42.7 -159.2 9.55 -157.7 48.8 L-172.25 43.45 Q-246.65 8.25 -321.1 -27.0 -307.35 -133.1 -254.1 -197.65 L-244.4 -208.7 -243.4 -209.8 Q-236.2 -217.45 -228.35 -224.35 -55.65 -352.15 149.85 -223.35 168.15 -211.45 180.75 -194.95 L184.1 -189.45 184.9 -188.85 Q187.8 -186.55 190.7 -183.6 199.95 -174.25 205.55 -162.05 L201.95 -158.55 209.7 -144.05 210.75 -145.3 Q220.0 -125.85 227.6 -103.65 L227.65 -103.5 Q232.45 -89.45 236.35 -74.8 234.6 -73.6 242.15 -36.7 245.95 -18.3 250.05 -0.15 L248.05 0.0 244.45 -3.3 Q150.85 -76.95 99.35 -80.85" fill="url(#gradient0)" fill-rule="evenodd" stroke="none"/>
    <path d="M-151.15 57.75 Q-152.3 53.95 -151.8 50.0 -151.25 45.9 -149.4 42.2 L-154.8 37.6 -155.8 38.55 Q-201.9 -8.9 -263.0 -31.2 -298.8 -44.3 -336.95 -46.7 L-337.7 -44.55 Q-280.4 -21.35 -243.5 30.0 L-186.0 71.7 -186.65 73.4 -175.45 81.15 -166.35 72.45 Q-147.55 99.9 -122.8 94.65 -119.0 93.85 -119.05 88.05 L-122.15 87.3 -122.3 86.4 Q-122.9 83.25 -125.6 81.55 -126.65 80.8 -127.8 80.3 L-130.5 81.9 -157.05 63.45 -151.15 57.75" fill="#ffffff" fill-opacity="0.7019608" fill-rule="evenodd" stroke="none"/>
    <path d="M-131.45 28.6 L-123.1 24.55 Q-122.9 17.55 -118.4 11.9 L-117.15 10.3 -115.8 8.85 -120.05 2.3 -121.45 2.95 Q-177.0 -104.45 -285.75 -145.75 L-287.25 -143.75 Q-233.8 -100.65 -198.95 -36.8 L-165.25 27.7 -166.5 29.2 -157.25 40.95 -144.55 34.95 Q-132.9 51.95 -122.0 69.45 -120.85 71.5 -118.7 73.2 -105.55 84.05 -99.25 66.8 -100.8 65.85 -102.35 65.0 L-102.15 64.0 Q-101.55 60.3 -103.85 57.7 L-104.55 57.0 -105.95 55.8 -109.35 56.55 -131.45 28.6" fill="#ffffff" fill-opacity="0.24705882" fill-rule="evenodd" stroke="none"/>
    <path d="M-81.15 3.1 Q-79.35 -1.35 -75.5 -4.4 -71.5 -7.75 -66.35 -9.55 L-68.65 -18.15 -70.55 -18.1 Q-82.55 -98.6 -131.75 -168.65 -160.7 -209.8 -200.9 -243.05 L-203.4 -241.7 Q-159.15 -173.95 -145.15 -96.75 L-131.2 -12.75 -133.25 -11.8 -127.25 4.35 -110.1 3.95 Q-111.8 44.1 -80.1 59.55 -75.2 61.95 -70.55 56.7 L-73.35 53.45 -72.8 52.5 Q-70.85 49.15 -72.45 45.45 L-73.85 42.5 -78.1 41.7 -92.4 3.4 -81.15 3.1" fill="#ffffff" fill-opacity="0.14901961" fill-rule="evenodd" stroke="none"/>
  </g>
  <defs>
    <linearGradient gradientTransform="matrix(-0.0684, -0.1095, 0.1598, -0.0998, 270.9, -336.75)" gradientUnits="userSpaceOnUse" id="gradient0" spreadMethod="pad" x1="-819.2" x2="819.2">
      <stop offset="0.0" stop-color="#ffffff" stop-opacity="0.0"/>
      <stop offset="0.35294117647058826" stop-color="#ffffff" stop-opacity="0.2"/>
      <stop offset="0.6745098039215687" stop-color="#ffffff" stop-opacity="0.5019608"/>
    </linearGradient>
  </defs>
</svg>
