<?xml version="1.0" encoding="UTF-8" standalone="no"?>
<svg xmlns:ffdec="https://www.free-decompiler.com/flash" xmlns:xlink="http://www.w3.org/1999/xlink" ffdec:objectType="shape" height="276.65px" width="582.4px" xmlns="http://www.w3.org/2000/svg">
  <g transform="matrix(1.0, 0.0, 0.0, 1.0, 350.55, 289.25)">
    <path d="M-292.8 -13.6 L-349.55 -44.45 Q-318.6 -148.4 -255.75 -209.2 -205.45 -257.85 -137.2 -276.85 -88.45 -290.45 -35.55 -287.85 -9.1 -286.5 7.6 -282.5 -93.65 -287.55 -163.6 -246.65 -219.55 -213.95 -253.05 -153.55 -277.0 -110.4 -287.3 -57.7 -292.45 -31.3 -292.8 -13.6" fill="url(#gradient0)" fill-rule="evenodd" stroke="none"/>
    <path d="M7.6 -282.5 Q-9.1 -286.5 -35.55 -287.85 -88.45 -290.45 -137.2 -276.85 -205.45 -257.85 -255.75 -209.2 -318.6 -148.4 -349.55 -44.45 L-292.8 -13.6" fill="none" stroke="#ffffff" stroke-linecap="round" stroke-linejoin="round" stroke-width="2.0"/>
    <path d="M7.6 -282.5 Q-9.1 -286.5 -35.55 -287.85 -88.45 -290.45 -137.2 -276.85 -205.45 -257.85 -255.75 -209.2 -318.6 -148.4 -349.55 -44.45 L-292.8 -13.6" fill="none" stroke="#ffffff" stroke-linecap="round" stroke-linejoin="round" stroke-width="2.0"/>
    <path d="M230.85 -118.95 Q228.5 -127.5 222.05 -140.75 209.1 -167.3 188.7 -190.75 160.15 -223.65 120.65 -245.75 71.3 -273.35 7.6 -282.5" fill="none" stroke="#ffffff" stroke-linecap="round" stroke-linejoin="round" stroke-width="2.0"/>
  </g>
  <defs>
    <linearGradient gradientTransform="matrix(-0.1541, 0.1541, -0.1185, -0.1185, -171.0, -150.95)" gradientUnits="userSpaceOnUse" id="gradient0" spreadMethod="pad" x1="-819.2" x2="819.2">
      <stop offset="0.0" stop-color="#ffffff" stop-opacity="0.0"/>
      <stop offset="0.7686274509803922" stop-color="#ffffff" stop-opacity="0.7529412"/>
    </linearGradient>
  </defs>
</svg>
