<?xml version="1.0" encoding="UTF-8" standalone="no"?>
<svg xmlns:ffdec="https://www.free-decompiler.com/flash" xmlns:xlink="http://www.w3.org/1999/xlink" ffdec:objectType="shape" height="491.75px" width="399.65px" xmlns="http://www.w3.org/2000/svg">
  <g transform="matrix(1.0, 0.0, 0.0, 1.0, 367.55, 261.2)">
    <path d="M-272.7 -210.6 Q-261.4 -221.25 -237.4 -231.4 -213.45 -241.55 -170.0 -252.85 -126.6 -264.2 -70.65 -260.1 -14.7 -256.05 11.55 -245.0 21.1 -240.95 27.15 -236.85 32.45 -233.15 32.05 -231.65 31.7 -230.15 -10.25 -213.45 -55.5 -195.55 -63.4 -190.55 -86.05 -176.35 -115.8 -144.35 -145.55 -112.35 -161.8 -64.5 -169.45 -41.7 -172.8 -16.75 -175.9 5.95 -174.4 21.05 -172.2 41.55 -163.35 69.65 -155.05 95.9 -139.2 134.05 L-297.85 216.3 Q-376.95 106.35 -366.3 13.0 -355.7 -80.35 -361.2 -85.65 -366.7 -91.05 -366.45 -91.7 -362.75 -101.55 -358.3 -110.9 -353.15 -131.7 -320.1 -166.15 -303.55 -183.3 -288.05 -196.35 -283.95 -199.9 -272.7 -210.6" fill="url(#gradient0)" fill-rule="evenodd" stroke="none"/>
    <path d="M-135.9 109.8 Q-140.15 108.7 -143.4 105.65 -145.9 103.2 -147.75 100.0 L-154.3 102.75 -154.0 104.2 Q-205.95 126.1 -253.4 157.35 -284.95 178.1 -306.15 211.35 -311.55 219.85 -316.15 228.7 L-314.7 230.55 Q-266.6 188.8 -205.75 181.5 L-142.3 149.6 -141.3 151.05 -129.25 144.65 -131.65 131.7 -99.7 116.45 Q-91.0 117.3 -87.7 108.15 -86.45 104.65 -88.6 101.5 -90.55 98.75 -93.2 96.55 L-94.8 95.65 -96.95 98.15 -97.8 97.8 Q-101.25 96.35 -104.2 98.65 L-105.6 99.8 -105.65 103.1 -134.3 118.3 -135.9 109.8" fill="#ffffff" fill-opacity="0.7019608" fill-rule="evenodd" stroke="none"/>
    <path d="M-138.85 92.35 L-136.9 84.25 Q-141.65 80.4 -143.05 74.1 L-143.45 72.45 -143.65 70.7 -150.75 70.2 -151.05 71.55 Q-258.2 53.9 -349.8 109.55 L-349.25 111.7 Q-288.3 96.5 -215.15 107.25 L-159.0 116.05 -158.65 117.8 -145.05 117.4 -141.95 105.1 -104.85 107.45 -100.25 107.1 Q-85.15 103.45 -93.6 89.8 L-96.55 91.0 -97.2 90.4 Q-99.5 87.95 -102.6 88.2 L-103.45 88.3 -105.15 88.65 -106.6 91.55 -138.85 92.35" fill="#ffffff" fill-opacity="0.24705882" fill-rule="evenodd" stroke="none"/>
    <path d="M-132.4 42.15 L-128.3 33.95 Q-132.85 28.65 -132.65 21.55 L-132.6 19.55 -132.5 17.65 -140.05 15.4 -140.8 16.75 Q-251.25 -28.0 -367.2 7.0 L-367.1 9.45 Q-297.15 9.25 -233.5 35.65 L-160.1 62.45 -160.15 64.35 -145.2 67.45 -138.85 55.05 Q-120.6 68.15 -98.0 65.6 -84.0 63.95 -82.3 50.9 L-85.9 51.45 Q-88.15 47.85 -92.35 46.95 L-93.5 46.8 -94.7 46.75 -96.9 49.5 -132.4 42.15" fill="#ffffff" fill-opacity="0.14901961" fill-rule="evenodd" stroke="none"/>
  </g>
  <defs>
    <linearGradient gradientTransform="matrix(-0.1182, 0.0511, -0.0745, -0.1724, -402.5, -491.5)" gradientUnits="userSpaceOnUse" id="gradient0" spreadMethod="pad" x1="-819.2" x2="819.2">
      <stop offset="0.0" stop-color="#ffffff" stop-opacity="0.0"/>
      <stop offset="0.35294117647058826" stop-color="#ffffff" stop-opacity="0.2"/>
      <stop offset="0.6745098039215687" stop-color="#ffffff" stop-opacity="0.5019608"/>
    </linearGradient>
  </defs>
</svg>
