<?xml version="1.0" encoding="UTF-8" standalone="no"?>
<svg xmlns:ffdec="https://www.free-decompiler.com/flash" xmlns:xlink="http://www.w3.org/1999/xlink" ffdec:objectType="shape" height="508.05px" width="314.85px" xmlns="http://www.w3.org/2000/svg">
  <g transform="matrix(1.0, 0.0, 0.0, 1.0, 380.5, 270.55)">
    <path d="M-286.95 -197.35 Q-297.8 -183.0 -310.8 -159.05 -336.85 -111.05 -347.55 -62.75 -362.5 4.9 -344.75 63.45 -322.5 136.7 -250.05 191.6 L-319.65 236.5 Q-329.3 218.3 -340.85 188.75 -363.9 129.7 -373.4 73.05 -386.7 -6.25 -370.95 -69.4 -351.25 -148.35 -286.95 -197.35" fill="url(#gradient0)" fill-rule="evenodd" stroke="none"/>
    <path d="M-250.05 191.6 L-319.65 236.5 Q-329.3 218.3 -340.85 188.75 -363.9 129.7 -373.4 73.05 -386.7 -6.25 -370.95 -69.4 -351.25 -148.35 -286.95 -197.35" fill="none" stroke="#ffffff" stroke-linecap="round" stroke-linejoin="round" stroke-width="2.0"/>
    <path d="M-250.05 191.6 L-319.65 236.5 Q-329.3 218.3 -340.85 188.75 -363.9 129.7 -373.4 73.05 -386.7 -6.25 -370.95 -69.4 -351.25 -148.35 -286.95 -197.35" fill="none" stroke="#ffffff" stroke-linecap="round" stroke-linejoin="round" stroke-width="2.0"/>
    <path d="M-66.65 -269.55 Q-106.75 -264.3 -154.35 -252.65 -249.55 -229.35 -286.95 -197.35" fill="none" stroke="#ffffff" stroke-linecap="round" stroke-linejoin="round" stroke-width="2.0"/>
  </g>
  <defs>
    <linearGradient gradientTransform="matrix(-0.0395, 0.0684, -0.2293, -0.1324, -314.8, 19.6)" gradientUnits="userSpaceOnUse" id="gradient0" spreadMethod="pad" x1="-819.2" x2="819.2">
      <stop offset="0.0" stop-color="#ffffff" stop-opacity="0.0"/>
      <stop offset="0.7686274509803922" stop-color="#ffffff" stop-opacity="0.7529412"/>
    </linearGradient>
  </defs>
</svg>
