<?xml version="1.0" encoding="UTF-8" standalone="no"?>
<svg xmlns:ffdec="https://www.free-decompiler.com/flash" xmlns:xlink="http://www.w3.org/1999/xlink" ffdec:objectType="shape" height="371.3px" width="297.95px" xmlns="http://www.w3.org/2000/svg">
  <g transform="matrix(1.0, 0.0, 0.0, 1.0, 388.15, 89.7)">
    <path d="M-309.0 -16.85 Q-300.55 -7.85 -293.25 -2.15 L-286.9 2.25 -285.1 3.35 Q-274.65 9.35 -269.2 14.4 -263.6 19.4 -228.5 73.0 -193.35 126.5 -167.5 134.3 -141.65 142.15 -117.0 138.2 -142.1 161.55 -199.9 207.75 -237.35 237.65 -271.55 264.0 -272.85 262.7 -280.65 259.3 L-299.55 251.0 Q-310.6 246.05 -329.55 218.8 -348.45 191.6 -358.15 167.95 -367.9 144.3 -382.15 103.9 -396.4 63.45 -376.75 -10.7 -368.7 -41.15 -336.65 -89.7 -344.65 -57.05 -312.4 -37.3 L-312.3 -20.4 -309.0 -16.85" fill="url(#gradient0)" fill-rule="evenodd" stroke="none"/>
    <path d="M-134.1 148.2 L-136.55 140.45 Q-142.05 139.95 -146.25 135.9 L-147.6 134.6 -148.9 133.1 -154.8 136.7 -154.4 137.95 Q-175.95 154.55 -199.05 167.75 -266.25 206.1 -294.3 280.1 L-292.8 281.6 Q-251.8 234.85 -194.85 218.75 L-138.2 178.85 -137.1 180.1 -126.35 172.2 -130.1 160.4 -101.5 141.15 -98.7 140.95 Q-82.65 131.9 -96.95 121.5 -97.35 121.25 -97.95 121.1 L-99.15 120.8 -100.9 123.5 Q-104.0 122.35 -106.75 124.2 L-107.8 125.1 -108.95 126.35 -108.65 129.5 -134.1 148.2" fill="#ffffff" fill-opacity="0.7019608" fill-rule="evenodd" stroke="none"/>
    <path d="M-144.95 126.0 L-144.3 117.8 Q-149.75 114.95 -152.15 109.2 L-152.85 107.55 -153.35 105.9 -160.55 106.75 -160.65 108.15 Q-271.75 110.7 -355.0 181.15 L-354.15 183.15 Q-295.05 157.25 -232.15 155.1 L-161.35 152.55 -160.75 154.1 -147.05 151.3 -146.0 138.85 -108.15 134.3 Q-105.9 134.2 -103.55 133.15 -88.9 126.85 -99.7 115.2 L-102.5 116.95 Q-102.8 116.7 -103.25 116.45 -105.9 114.5 -109.05 115.35 L-109.85 115.65 -111.5 116.3 -112.5 119.25 -144.95 126.0" fill="#ffffff" fill-opacity="0.24705882" fill-rule="evenodd" stroke="none"/>
    <path d="M-146.95 101.4 L-143.2 93.8 Q-147.6 88.7 -147.8 82.05 L-147.9 80.25 -147.8 78.4 -155.3 76.15 -155.9 77.4 Q-267.55 32.6 -377.15 65.35 L-377.0 67.65 Q-308.45 67.8 -243.1 92.5 L-173.4 120.15 -173.35 121.9 -158.7 125.0 -152.85 113.45 Q-133.05 118.9 -113.5 125.2 L-108.45 126.0 Q-91.5 126.15 -97.85 110.25 L-101.3 110.75 -101.85 109.95 Q-103.8 106.9 -107.2 106.4 L-108.1 106.35 -110.0 106.25 -112.1 108.75 -146.95 101.4" fill="#ffffff" fill-opacity="0.14901961" fill-rule="evenodd" stroke="none"/>
  </g>
  <defs>
    <linearGradient gradientTransform="matrix(-0.0184, 0.12, -0.1853, -0.0284, -287.75, 73.0)" gradientUnits="userSpaceOnUse" id="gradient0" spreadMethod="pad" x1="-819.2" x2="819.2">
      <stop offset="0.0" stop-color="#ffffff" stop-opacity="0.0"/>
      <stop offset="0.35294117647058826" stop-color="#ffffff" stop-opacity="0.2"/>
      <stop offset="0.6745098039215687" stop-color="#ffffff" stop-opacity="0.5019608"/>
    </linearGradient>
  </defs>
</svg>
