<?xml version="1.0" encoding="UTF-8" standalone="no"?>
<svg xmlns:ffdec="https://www.free-decompiler.com/flash" xmlns:xlink="http://www.w3.org/1999/xlink" ffdec:objectType="shape" height="559.9px" width="272.45px" xmlns="http://www.w3.org/2000/svg">
  <g transform="matrix(1.0, 0.0, 0.0, 1.0, 392.4, 265.6)">
    <path d="M-345.55 -135.0 Q-352.1 -123.65 -358.9 -103.4 -372.45 -62.9 -373.8 -18.35 -375.7 44.0 -352.85 105.55 -324.25 182.55 -258.4 253.8 L-294.95 293.3 Q-306.05 276.95 -320.75 249.8 -350.1 195.55 -367.95 141.65 -392.9 66.15 -391.3 2.25 -389.25 -77.7 -345.55 -135.0" fill="url(#gradient0)" fill-rule="evenodd" stroke="none"/>
    <path d="M-258.4 253.8 L-294.95 293.3 Q-306.05 276.95 -320.75 249.8 -350.1 195.55 -367.95 141.65 -392.9 66.15 -391.3 2.25 -389.25 -77.7 -345.55 -135.0" fill="none" stroke="#ffffff" stroke-linecap="round" stroke-linejoin="round" stroke-width="2.0"/>
    <path d="M-258.4 253.8 L-294.95 293.3 Q-306.05 276.95 -320.75 249.8 -350.1 195.55 -367.95 141.65 -392.9 66.15 -391.3 2.25 -389.25 -77.7 -345.55 -135.0" fill="none" stroke="#ffffff" stroke-linecap="round" stroke-linejoin="round" stroke-width="2.0"/>
    <path d="M-120.95 -264.6 L-128.35 -263.3 -148.4 -258.95 Q-182.0 -250.85 -243.1 -222.9 -304.25 -194.95 -345.55 -135.0" fill="none" stroke="#ffffff" stroke-linecap="round" stroke-linejoin="round" stroke-width="2.0"/>
  </g>
  <defs>
    <linearGradient gradientTransform="matrix(0.0812, 0.0, 0.0, 0.2614, -324.9, 79.15)" gradientUnits="userSpaceOnUse" id="gradient0" spreadMethod="pad" x1="-819.2" x2="819.2">
      <stop offset="0.0" stop-color="#ffffff" stop-opacity="0.0"/>
      <stop offset="0.7686274509803922" stop-color="#ffffff" stop-opacity="0.7529412"/>
    </linearGradient>
  </defs>
</svg>
