<?xml version="1.0" encoding="UTF-8" standalone="no"?>
<svg xmlns:ffdec="https://www.free-decompiler.com/flash" xmlns:xlink="http://www.w3.org/1999/xlink" ffdec:objectType="shape" height="235.6px" width="459.05px" xmlns="http://www.w3.org/2000/svg">
  <g transform="matrix(1.0, 0.0, 0.0, 1.0, 270.65, 25.85)">
    <path d="M8.85 2.85 Q47.3 29.8 89.05 54.6 130.75 79.35 163.25 106.95 133.05 157.9 68.35 181.6 3.6 205.3 -31.25 207.7 L-72.95 209.7 Q-99.8 208.2 -142.15 195.45 -184.55 182.65 -221.3 142.1 -258.05 101.5 -270.65 73.9 -241.0 70.7 -205.85 63.6 -186.8 59.8 -176.1 54.0 -165.5 48.25 -157.55 49.1 -149.6 49.95 -94.3 48.3 -39.0 46.6 -15.65 25.85 7.65 5.05 8.85 2.85" fill="url(#gradient0)" fill-rule="evenodd" stroke="none"/>
    <path d="M-174.05 37.8 L-174.05 35.6 -168.15 36.0 -174.05 37.8 M-195.45 44.0 L-195.45 43.95 -195.4 43.95 -195.45 44.0" fill="url(#gradient1)" fill-rule="evenodd" stroke="none"/>
    <path d="M-20.95 20.05 Q-21.05 23.15 -22.8 25.7 -24.8 28.45 -27.75 30.4 L-24.7 35.65 -23.5 35.35 Q2.8 74.8 33.45 111.8 49.0 130.7 70.3 144.75 85.2 154.65 101.8 162.1 L103.1 160.8 Q62.6 123.3 48.4 73.6 L13.6 23.05 14.7 22.15 7.85 12.55 -2.85 15.3 Q-9.3 -2.6 -25.9 -14.8 L-30.8 -18.25 Q-32.8 -1.75 -20.95 11.7 -17.8 15.25 -13.9 18.2 L-20.95 20.05" fill="#ffffff" fill-opacity="0.24705882" fill-rule="evenodd" stroke="none"/>
    <path d="M-42.55 22.55 Q-44.1 25.8 -47.25 27.35 -49.75 28.6 -52.3 29.3 L-52.0 35.25 -50.95 35.4 Q-43.55 78.9 -37.1 122.7 -33.3 148.65 -20.55 171.95 -12.95 185.85 -3.05 198.05 L-1.4 197.45 Q-18.6 147.95 -9.2 97.55 L-16.2 38.4 -14.85 38.05 -16.45 26.7 -26.15 25.1 Q-23.85 6.4 -32.15 -11.0 L-34.65 -15.9 Q-43.45 -1.95 -39.2 14.95 -38.1 19.4 -36.15 23.55 L-42.55 22.55" fill="#ffffff" fill-opacity="0.14901961" fill-rule="evenodd" stroke="none"/>
    <path d="M-0.3 32.0 L0.65 31.25 Q44.55 56.1 85.8 84.75 123.2 110.8 170.3 113.65 179.2 114.15 188.4 113.95 L188.1 111.85 Q145.05 82.8 102.65 52.4 69.7 28.8 37.4 4.5 L38.4 3.35 27.3 -4.15 Q22.35 0.65 15.2 0.95 9.1 1.2 3.9 -1.3 -11.25 -8.5 -16.75 -23.85 L-19.9 -23.0 -24.0 -24.85 -26.0 -25.5 -27.4 -25.8 -28.7 -25.85 -30.15 -25.75 -32.55 -22.95 -34.0 -20.6 -34.6 -19.35 -34.9 -17.85 -34.95 -16.35 -34.9 -14.8 -31.2 -12.4 -30.4 -8.75 -24.1 -6.15 -21.7 -7.3 4.95 10.0 -2.45 15.25 -5.85 28.65 -0.3 32.0" fill="#ffffff" fill-opacity="0.7019608" fill-rule="evenodd" stroke="none"/>
  </g>
  <defs>
    <linearGradient gradientTransform="matrix(0.2648, 0.0, 0.0, 0.114, -53.7, 96.2)" gradientUnits="userSpaceOnUse" id="gradient0" spreadMethod="pad" x1="-819.2" x2="819.2">
      <stop offset="0.0" stop-color="#ffffff" stop-opacity="0.0"/>
      <stop offset="0.35294117647058826" stop-color="#ffffff" stop-opacity="0.2"/>
      <stop offset="0.6745098039215687" stop-color="#ffffff" stop-opacity="0.5019608"/>
    </linearGradient>
    <linearGradient gradientTransform="matrix(0.0432, 0.0, 0.0, 0.014, -203.55, 34.85)" gradientUnits="userSpaceOnUse" id="gradient1" spreadMethod="pad" x1="-819.2" x2="819.2">
      <stop offset="0.0" stop-color="#ffffff" stop-opacity="0.0"/>
      <stop offset="0.35294117647058826" stop-color="#ffffff" stop-opacity="0.2"/>
      <stop offset="0.6745098039215687" stop-color="#ffffff" stop-opacity="0.5019608"/>
    </linearGradient>
  </defs>
</svg>
