<?xml version="1.0" encoding="UTF-8" standalone="no"?>
<svg xmlns:ffdec="https://www.free-decompiler.com/flash" xmlns:xlink="http://www.w3.org/1999/xlink" ffdec:objectType="shape" height="131.0px" width="404.8px" xmlns="http://www.w3.org/2000/svg">
  <g transform="matrix(1.0, 0.0, 0.0, 1.0, 209.5, -92.75)">
    <path d="M150.8 93.75 L194.3 114.2 Q182.5 126.7 161.45 143.25 119.35 176.3 73.1 196.4 8.4 224.5 -55.3 222.65 -134.95 220.4 -208.5 171.15 -198.05 177.6 -179.35 184.5 -141.9 198.25 -100.75 200.25 -43.15 203.1 13.75 182.15 84.85 155.9 150.8 93.75" fill="url(#gradient0)" fill-rule="evenodd" stroke="none"/>
    <path d="M150.8 93.75 L194.3 114.2 Q182.5 126.7 161.45 143.25 119.35 176.3 73.1 196.4 8.4 224.5 -55.3 222.65 -134.95 220.4 -208.5 171.15" fill="none" stroke="#ffffff" stroke-linecap="round" stroke-linejoin="round" stroke-opacity="0.29803923" stroke-width="1.0"/>
    <path d="M150.8 93.75 L194.3 114.2 Q182.5 126.7 161.45 143.25 119.35 176.3 73.1 196.4 8.4 224.5 -55.3 222.65 -134.95 220.4 -208.5 171.15" fill="none" stroke="#ffffff" stroke-linecap="round" stroke-linejoin="round" stroke-width="2.0"/>
  </g>
  <defs>
    <linearGradient gradientTransform="matrix(0.2458, 0.0, 0.0, 0.0787, -7.1, 158.25)" gradientUnits="userSpaceOnUse" id="gradient0" spreadMethod="pad" x1="-819.2" x2="819.2">
      <stop offset="0.0" stop-color="#ffffff" stop-opacity="0.0"/>
      <stop offset="0.7686274509803922" stop-color="#ffffff" stop-opacity="0.7529412"/>
    </linearGradient>
  </defs>
</svg>
