<?xml version="1.0" encoding="UTF-8" standalone="no"?>
<svg xmlns:ffdec="https://www.free-decompiler.com/flash" xmlns:xlink="http://www.w3.org/1999/xlink" ffdec:objectType="shape" height="320.25px" width="485.2px" xmlns="http://www.w3.org/2000/svg">
  <g transform="matrix(1.0, 0.0, 0.0, 1.0, 152.55, 96.55)">
    <path d="M125.55 -10.1 L122.5 -3.75 Q124.1 -2.35 124.8 -0.15 125.45 2.0 125.45 4.4 L125.45 7.65 131.05 8.5 131.55 7.45 146.0 7.55 Q167.7 7.65 188.35 10.65 244.65 18.95 297.6 -8.7 L297.6 -10.5 Q246.1 -2.8 202.85 -22.75 L145.95 -27.65 146.05 -29.0 135.05 -29.7 130.35 -20.05 Q111.2 -27.0 89.65 -19.65 91.4 -17.35 93.55 -15.45 106.85 -5.35 125.55 -10.1" fill="#ffffff" fill-opacity="0.24705882" fill-rule="evenodd" stroke="none"/>
    <path d="M288.6 -80.25 L331.65 -95.55 Q327.15 -75.85 317.4 -51.8 297.9 -3.75 271.65 38.7 234.9 98.15 189.95 137.8 134.6 186.7 69.8 202.65 77.65 200.55 89.9 194.55 117.4 181.15 144.9 156.75 183.45 122.55 216.6 71.25 258.05 7.15 288.6 -80.25" fill="url(#gradient0)" fill-rule="evenodd" stroke="none"/>
    <path d="M288.6 -80.25 L331.65 -95.55 Q327.15 -75.85 317.4 -51.8 297.9 -3.75 271.65 38.7 234.9 98.15 189.95 137.8 134.6 186.7 69.8 202.65 L67.9 203.1" fill="none" stroke="#ffffff" stroke-linecap="round" stroke-linejoin="round" stroke-width="2.0"/>
    <path d="M288.6 -80.25 L331.65 -95.55 Q327.15 -75.85 317.4 -51.8 297.9 -3.75 271.65 38.7 234.9 98.15 189.95 137.8 134.6 186.7 69.8 202.65 L67.9 203.1" fill="none" stroke="#ffffff" stroke-linecap="round" stroke-linejoin="round" stroke-width="2.0"/>
    <path d="M-151.55 203.1 Q-143.3 206.55 -128.65 210.55 -99.35 218.6 -67.5 221.35 34.35 230.1 123.6 182.8" fill="none" stroke="#ffffff" stroke-linecap="round" stroke-linejoin="round" stroke-width="2.0"/>
  </g>
  <defs>
    <linearGradient gradientTransform="matrix(0.1598, 0.0, 0.0, 0.1795, 200.7, 55.6)" gradientUnits="userSpaceOnUse" id="gradient0" spreadMethod="pad" x1="-819.2" x2="819.2">
      <stop offset="0.0" stop-color="#ffffff" stop-opacity="0.0"/>
      <stop offset="0.7686274509803922" stop-color="#ffffff" stop-opacity="0.7529412"/>
    </linearGradient>
  </defs>
</svg>
