<?xml version="1.0" encoding="UTF-8" standalone="no"?>
<svg xmlns:ffdec="https://www.free-decompiler.com/flash" xmlns:xlink="http://www.w3.org/1999/xlink" ffdec:objectType="shape" height="107.5px" width="227.1px" xmlns="http://www.w3.org/2000/svg">
  <g transform="matrix(1.0, 0.0, 0.0, 1.0, -87.0, 108.95)">
    <path d="M131.0 -18.45 L131.8 -10.75 Q134.4 -10.25 136.5 -8.5 138.55 -6.8 140.05 -4.5 L142.05 -1.45 148.55 -3.5 148.4 -4.8 163.8 -12.25 Q186.85 -23.5 210.6 -31.45 275.45 -53.05 314.1 -107.3 L312.95 -108.95 Q263.3 -74.65 204.85 -71.1 L141.6 -46.0 140.8 -47.3 128.75 -42.25 129.85 -30.6 Q105.2 -27.2 87.0 -8.9 90.25 -7.55 93.75 -6.85 114.2 -4.1 131.0 -18.45" fill="#ffffff" fill-opacity="0.5019608" fill-rule="evenodd" stroke="none"/>
  </g>
</svg>
