<?xml version="1.0" encoding="UTF-8" standalone="no"?>
<svg xmlns:ffdec="https://www.free-decompiler.com/flash" xmlns:xlink="http://www.w3.org/1999/xlink" ffdec:objectType="shape" height="110.95px" width="217.2px" xmlns="http://www.w3.org/2000/svg">
  <g transform="matrix(1.0, 0.0, 0.0, 1.0, -99.05, 115.05)">
    <path d="M141.0 -20.35 L141.6 -12.85 Q144.1 -12.4 146.0 -10.8 147.95 -9.2 149.3 -7.05 L151.2 -4.1 157.35 -6.4 157.25 -7.65 172.0 -15.45 Q194.0 -27.25 216.75 -35.75 278.55 -59.1 316.25 -113.4 L315.15 -115.05 Q267.45 -79.75 211.95 -74.25 L151.55 -47.5 150.8 -48.8 139.25 -43.45 140.05 -32.1 Q116.65 -28.0 99.05 -9.45 102.2 -8.25 105.5 -7.7 124.8 -5.75 141.0 -20.35" fill="#ffffff" fill-opacity="0.29803923" fill-rule="evenodd" stroke="none"/>
  </g>
</svg>
