<?xml version="1.0" encoding="UTF-8" standalone="no"?>
<svg xmlns:ffdec="https://www.free-decompiler.com/flash" xmlns:xlink="http://www.w3.org/1999/xlink" ffdec:objectType="shape" height="121.35px" width="217.3px" xmlns="http://www.w3.org/2000/svg">
  <g transform="matrix(1.0, 0.0, 0.0, 1.0, -88.55, 76.3)">
    <path d="M117.65 -55.55 Q119.75 -57.35 121.1 -59.8 122.6 -62.55 123.25 -65.3 L127.6 -66.4 127.7 -65.6 Q161.45 -72.65 194.55 -75.85 211.45 -77.5 226.3 -73.25 236.7 -70.15 245.75 -64.85 L245.25 -63.35 Q205.95 -64.9 165.75 -49.8 L127.8 -37.4 127.45 -36.25 119.15 -34.8 118.55 -42.5 Q104.5 -36.1 92.1 -38.8 L88.55 -39.65 Q99.55 -50.15 111.75 -50.85 L118.0 -50.5 117.65 -55.55" fill="#ffffff" fill-opacity="0.14901961" fill-rule="evenodd" stroke="none"/>
    <path d="M301.95 -0.4 Q294.55 -29.05 281.55 -28.6 271.2 -28.25 257.75 -9.45 242.4 12.1 229.7 44.05 L188.75 30.85 197.55 17.0 Q204.1 7.1 210.9 -0.6 230.75 -23.15 259.55 -35.15 287.7 -46.85 297.65 -24.8 302.6 -13.75 301.95 -0.4" fill="url(#gradient0)" fill-rule="evenodd" stroke="none"/>
    <path d="M188.75 30.85 L229.7 44.05 Q242.4 12.1 257.75 -9.45 271.2 -28.25 281.55 -28.6 294.55 -29.05 301.95 -0.4" fill="none" stroke="#ffffff" stroke-linecap="round" stroke-linejoin="round" stroke-width="2.0"/>
    <path d="M188.75 30.85 L229.7 44.05 Q242.4 12.1 257.75 -9.45 271.2 -28.25 281.55 -28.6 294.55 -29.05 301.95 -0.4" fill="none" stroke="#ffffff" stroke-linecap="round" stroke-linejoin="round" stroke-width="2.0"/>
    <path d="M304.7 21.8 Q304.95 19.25 304.75 15.2 304.3 7.05 301.95 -0.4" fill="none" stroke="#ffffff" stroke-linecap="round" stroke-linejoin="round" stroke-width="2.0"/>
  </g>
  <defs>
    <linearGradient gradientTransform="matrix(0.0179, 0.0668, -0.0491, 0.0132, 245.65, 2.85)" gradientUnits="userSpaceOnUse" id="gradient0" spreadMethod="pad" x1="-819.2" x2="819.2">
      <stop offset="0.0" stop-color="#ffffff" stop-opacity="0.0"/>
      <stop offset="0.7686274509803922" stop-color="#ffffff" stop-opacity="0.7529412"/>
    </linearGradient>
  </defs>
</svg>
