<?xml version="1.0" encoding="UTF-8" standalone="no"?>
<svg xmlns:ffdec="https://www.free-decompiler.com/flash" xmlns:xlink="http://www.w3.org/1999/xlink" ffdec:objectType="shape" height="223.35px" width="272.9px" xmlns="http://www.w3.org/2000/svg">
  <g transform="matrix(1.0, 0.0, 0.0, 1.0, -28.75, 126.5)">
    <path d="M171.65 -106.85 Q198.85 -126.15 230.35 -126.5 261.8 -126.85 281.4 -99.65 301.0 -72.5 301.6 -54.7 302.15 -36.95 293.1 -23.65 291.35 -24.65 286.4 -29.25 L277.5 -37.15 Q265.8 -46.5 261.15 -40.3 258.75 -37.1 255.8 -35.35 L250.6 -32.8 Q243.75 -29.25 237.5 -17.4 231.5 -4.15 221.2 5.4 L214.15 11.75 Q210.75 15.1 209.3 18.2 197.5 43.4 191.45 48.55 162.3 73.55 146.4 84.65 130.5 95.7 124.3 96.85 L118.85 95.6 Q111.7 92.85 69.5 67.7 L28.75 43.1 Q85.85 44.55 116.0 -23.3 144.4 -87.55 171.65 -106.85" fill="url(#gradient0)" fill-rule="evenodd" stroke="none"/>
    <path d="M59.55 -3.4 L63.65 -3.5 Q65.65 -4.25 67.5 -5.5 L70.3 -2.75 69.9 -2.15 117.8 60.2 Q125.0 69.45 127.25 81.2 128.4 87.2 128.7 93.3 L127.6 93.9 Q110.95 63.3 81.4 46.4 L55.15 17.15 54.3 17.65 49.4 11.9 53.15 6.25 Q41.15 -1.85 36.65 -15.95 47.95 -15.15 54.65 -3.9 L57.05 0.35 59.55 -3.4" fill="#ffffff" fill-opacity="0.7019608" fill-rule="evenodd" stroke="none"/>
    <path d="M79.85 -25.45 Q82.0 -25.5 83.8 -26.8 85.55 -28.0 87.0 -29.8 L90.55 -27.8 90.3 -27.05 155.3 22.9 Q164.95 30.3 170.6 41.55 173.45 47.4 175.45 53.45 L174.55 54.35 Q149.45 27.9 117.85 14.65 99.6 5.6 81.35 -3.35 L80.7 -2.7 74.2 -7.15 76.3 -13.95 Q62.2 -18.9 53.7 -31.9 65.1 -34.2 74.9 -24.7 L78.45 -21.0 79.85 -25.45" fill="#ffffff" fill-opacity="0.24705882" fill-rule="evenodd" stroke="none"/>
    <path d="M101.9 -59.05 Q103.9 -60.45 104.6 -62.8 L105.45 -66.45 109.4 -66.9 109.6 -66.2 Q139.2 -71.9 162.85 -69.7 186.45 -67.5 203.1 -61.65 213.05 -58.15 222.1 -52.9 L221.8 -51.7 Q187.4 -57.55 148.35 -51.2 L114.9 -43.1 114.75 -42.2 107.1 -41.95 105.15 -48.25 Q93.0 -44.55 80.65 -48.1 L77.15 -49.2 Q85.55 -56.8 97.15 -55.9 L103.15 -54.85 101.9 -59.05" fill="#ffffff" fill-opacity="0.14901961" fill-rule="evenodd" stroke="none"/>
  </g>
  <defs>
    <linearGradient gradientTransform="matrix(-0.8362, 0.5309, 0.5563, 0.8717, 494.3, 374.9)" gradientUnits="userSpaceOnUse" id="gradient0" spreadMethod="pad" x1="-819.2" x2="819.2">
      <stop offset="0.0" stop-color="#ffffff" stop-opacity="0.0"/>
      <stop offset="0.4588235294117647" stop-color="#ffffff" stop-opacity="0.2"/>
      <stop offset="0.6784313725490196" stop-color="#ffffff" stop-opacity="0.5019608"/>
    </linearGradient>
  </defs>
</svg>
