<?xml version="1.0" encoding="UTF-8" standalone="no"?>
<svg xmlns:ffdec="https://www.free-decompiler.com/flash" xmlns:xlink="http://www.w3.org/1999/xlink" ffdec:objectType="shape" height="140.85px" width="189.5px" xmlns="http://www.w3.org/2000/svg">
  <g transform="matrix(1.0, 0.0, 0.0, 1.0, -99.55, 42.65)">
    <path d="M100.55 75.3 Q130.35 74.35 155.6 59.2 175.3 47.35 194.5 25.1 201.15 17.35 209.75 6.05 L223.2 -11.8 Q238.1 -31.15 247.75 -36.5 268.05 -47.8 280.1 -38.4 286.1 -33.75 288.05 -26.8 281.0 -32.75 277.5 -33.15 273.2 -33.7 268.25 -27.6 263.9 -22.2 254.85 -6.0 L231.8 35.7 Q207.05 80.0 163.2 92.8 149.5 96.85 135.55 97.2 L124.3 96.8 100.55 75.3" fill="url(#gradient0)" fill-rule="evenodd" stroke="none"/>
    <path d="M100.55 75.3 L124.3 96.8 135.55 97.2 Q149.5 96.85 163.2 92.8 207.05 80.0 231.8 35.7 L254.85 -6.0 Q263.9 -22.2 268.25 -27.6 273.2 -33.7 277.5 -33.15 281.0 -32.75 288.05 -26.8" fill="none" stroke="#ffffff" stroke-linecap="round" stroke-linejoin="round" stroke-width="2.0"/>
    <path d="M100.55 75.3 L124.3 96.8 135.55 97.2 Q149.5 96.85 163.2 92.8 207.05 80.0 231.8 35.7 L254.85 -6.0 Q263.9 -22.2 268.25 -27.6 273.2 -33.7 277.5 -33.15 281.0 -32.75 288.05 -26.8" fill="none" stroke="#ffffff" stroke-linecap="round" stroke-linejoin="round" stroke-width="2.0"/>
  </g>
  <defs>
    <linearGradient gradientTransform="matrix(0.0296, 0.1105, -0.0824, 0.0221, 194.3, 27.25)" gradientUnits="userSpaceOnUse" id="gradient0" spreadMethod="pad" x1="-819.2" x2="819.2">
      <stop offset="0.0" stop-color="#ffffff" stop-opacity="0.0"/>
      <stop offset="0.7686274509803922" stop-color="#ffffff" stop-opacity="0.7529412"/>
    </linearGradient>
  </defs>
</svg>
