<?xml version="1.0" encoding="UTF-8" standalone="no"?>
<svg xmlns:ffdec="https://www.free-decompiler.com/flash" xmlns:xlink="http://www.w3.org/1999/xlink" ffdec:objectType="shape" height="160.0px" width="517.3px" xmlns="http://www.w3.org/2000/svg">
  <g transform="matrix(1.0, 0.0, 0.0, 1.0, 286.6, 6.4)">
    <path d="M-136.3 14.9 Q-268.05 22.3 -286.6 26.15 -269.65 55.75 -250.6 77.35 -243.8 85.1 -228.6 95.65 -210.75 108.05 -188.6 118.8 -129.9 147.4 -67.55 152.65 -50.6 154.05 -23.7 153.35 4.55 152.65 33.95 149.85 105.7 143.0 141.05 128.7 177.45 113.95 198.3 91.75 224.8 63.7 230.7 20.45 203.7 56.75 160.35 61.3 117.1 65.75 78.0 59.3 39.0 52.75 15.2 38.9 -7.2 25.95 -8.25 8.4 L-136.3 14.9" fill="url(#gradient0)" fill-rule="evenodd" stroke="none"/>
    <path d="M-106.8 10.0 L-111.7 9.55 Q-113.75 9.05 -115.25 8.1 L-119.5 9.9 -119.25 10.4 Q-150.0 24.65 -178.85 40.45 -198.2 51.05 -211.75 64.35 -217.25 69.7 -221.75 75.25 L-220.75 75.7 Q-190.3 59.25 -150.0 44.3 L-109.0 24.75 -108.25 25.15 -100.5 21.35 -102.8 17.1 Q-87.3 12.1 -77.1 3.35 L-75.65 2.15 Q-89.1 2.9 -99.95 9.2 -102.85 10.85 -105.25 12.75 L-106.8 10.0" fill="#ffffff" fill-opacity="0.24705882" fill-rule="evenodd" stroke="none"/>
    <path d="M-79.6 11.35 L-83.25 9.15 Q-87.2 10.4 -91.15 10.0 L-92.45 9.85 -93.7 9.65 -96.95 12.4 -96.3 12.75 Q-101.0 19.8 -106.8 26.6 -112.6 33.35 -120.85 39.05 -161.55 66.8 -158.95 99.15 L-157.55 99.35 Q-140.55 72.2 -104.65 51.95 L-74.9 23.35 -73.8 23.55 -68.25 18.0 -73.85 14.7 Q-68.6 11.15 -64.35 7.2 -57.65 0.85 -55.65 -6.15 -62.65 -7.4 -66.4 -2.9 L-66.6 -2.5 -66.65 -2.05 -79.6 11.35" fill="#ffffff" fill-opacity="0.14901961" fill-rule="evenodd" stroke="none"/>
  </g>
  <defs>
    <linearGradient gradientTransform="matrix(-0.1541, 0.0338, 0.0609, 0.0597, -207.95, 34.2)" gradientUnits="userSpaceOnUse" id="gradient0" spreadMethod="pad" x1="-819.2" x2="819.2">
      <stop offset="0.0" stop-color="#ffffff" stop-opacity="0.0"/>
      <stop offset="0.35294117647058826" stop-color="#ffffff" stop-opacity="0.2"/>
      <stop offset="0.6745098039215687" stop-color="#ffffff" stop-opacity="0.5019608"/>
    </linearGradient>
  </defs>
</svg>
