<?xml version="1.0" encoding="UTF-8" standalone="no"?>
<svg xmlns:ffdec="https://www.free-decompiler.com/flash" xmlns:xlink="http://www.w3.org/1999/xlink" ffdec:objectType="shape" height="194.85px" width="395.65px" xmlns="http://www.w3.org/2000/svg">
  <g transform="matrix(1.0, 0.0, 0.0, 1.0, 302.95, 177.85)">
    <path d="M68.2 -86.0 Q39.45 -110.85 1.2 -108.75 -37.1 -106.65 -83.0 -112.8 -128.95 -118.9 -169.55 -108.25 -210.15 -97.5 -235.95 -71.8 -261.6 -46.1 -245.35 -13.4 -233.5 10.55 -221.75 17.0 -244.2 10.15 -263.95 -3.25 -287.4 -19.1 -294.25 -34.9 -301.1 -50.7 -302.9 -67.55 -304.6 -84.5 -265.9 -115.3 -227.15 -146.2 -185.25 -156.65 -152.45 -164.85 -114.35 -170.45 -76.3 -176.1 -42.5 -177.45 -8.75 -178.8 26.05 -175.8 60.8 -172.85 92.7 -148.0 L68.2 -86.0" fill="url(#gradient0)" fill-rule="evenodd" stroke="none"/>
  </g>
  <defs>
    <linearGradient gradientTransform="matrix(0.0399, -0.117, -0.1352, -0.0536, 39.55, -27.25)" gradientUnits="userSpaceOnUse" id="gradient0" spreadMethod="pad" x1="-819.2" x2="819.2">
      <stop offset="0.0" stop-color="#ffffff" stop-opacity="0.0"/>
      <stop offset="0.35294117647058826" stop-color="#ffffff" stop-opacity="0.2"/>
      <stop offset="0.6745098039215687" stop-color="#ffffff" stop-opacity="0.5019608"/>
    </linearGradient>
  </defs>
</svg>
