<?xml version="1.0" encoding="UTF-8" standalone="no"?>
<svg xmlns:ffdec="https://www.free-decompiler.com/flash" xmlns:xlink="http://www.w3.org/1999/xlink" ffdec:objectType="shape" height="86.05px" width="381.45px" xmlns="http://www.w3.org/2000/svg">
  <g transform="matrix(1.0, 0.0, 0.0, 1.0, 284.35, 188.55)">
    <path d="M-283.35 -103.5 Q-218.0 -156.05 -143.85 -175.9 -84.5 -191.75 -22.3 -186.05 22.1 -181.95 63.55 -167.55 84.25 -160.3 96.1 -153.9 L77.1 -122.5 Q14.55 -158.6 -56.0 -163.85 -112.45 -168.0 -171.35 -152.35 -213.45 -141.2 -252.6 -121.25 -272.2 -111.25 -283.35 -103.5" fill="url(#gradient0)" fill-rule="evenodd" stroke="none"/>
    <path d="M77.1 -122.5 L96.1 -153.9 Q84.25 -160.3 63.55 -167.55 22.1 -181.95 -22.3 -186.05 -84.5 -191.75 -143.85 -175.9 -218.0 -156.05 -283.35 -103.5" fill="none" stroke="#ffffff" stroke-linecap="round" stroke-linejoin="round" stroke-width="2.0"/>
    <path d="M77.1 -122.5 L96.1 -153.9 Q84.25 -160.3 63.55 -167.55 22.1 -181.95 -22.3 -186.05 -84.5 -191.75 -143.85 -175.9 -218.0 -156.05 -283.35 -103.5" fill="none" stroke="#ffffff" stroke-linecap="round" stroke-linejoin="round" stroke-width="2.0"/>
  </g>
  <defs>
    <linearGradient gradientTransform="matrix(0.2316, 0.0, 0.0, 0.0513, -93.65, -145.55)" gradientUnits="userSpaceOnUse" id="gradient0" spreadMethod="pad" x1="-819.2" x2="819.2">
      <stop offset="0.0" stop-color="#ffffff" stop-opacity="0.0"/>
      <stop offset="0.7686274509803922" stop-color="#ffffff" stop-opacity="0.7529412"/>
    </linearGradient>
  </defs>
</svg>
