<?xml version="1.0" encoding="UTF-8" standalone="no"?>
<svg xmlns:ffdec="https://www.free-decompiler.com/flash" xmlns:xlink="http://www.w3.org/1999/xlink" ffdec:objectType="shape" height="150.9px" width="282.3px" xmlns="http://www.w3.org/2000/svg">
  <g transform="matrix(1.0, 0.0, 0.0, 1.0, 145.6, 196.15)">
    <path d="M67.0 -71.3 Q55.65 -84.5 24.05 -86.9 -7.5 -89.3 -33.75 -84.75 -59.95 -80.25 -85.15 -73.35 -110.35 -66.45 -121.65 -48.9 -80.15 -72.0 -45.0 -63.35 -34.05 -62.65 16.85 -53.85 L65.5 -45.25 Q78.4 -58.1 67.0 -71.3" fill="url(#gradient0)" fill-rule="evenodd" stroke="none"/>
    <path d="M-130.75 -180.1 L-144.6 -175.15 Q-139.3 -177.6 -130.75 -180.1" fill="url(#gradient1)" fill-rule="evenodd" stroke="none"/>
    <path d="M-130.75 -180.1 Q-45.8 -208.2 50.15 -183.8 82.55 -175.55 112.35 -162.15 127.3 -155.45 135.7 -150.4 L116.65 -128.9 Q23.15 -190.35 -70.05 -188.9 -99.2 -188.45 -124.8 -181.75 L-130.75 -180.1" fill="url(#gradient2)" fill-rule="evenodd" stroke="none"/>
    <path d="M116.65 -128.9 L135.7 -150.4 Q127.3 -155.45 112.35 -162.15 82.55 -175.55 50.15 -183.8 -45.8 -208.2 -130.75 -180.1 L-144.6 -175.15 Q-139.3 -177.6 -130.75 -180.1" fill="none" stroke="#ffffff" stroke-linecap="round" stroke-linejoin="round" stroke-width="2.0"/>
    <path d="M-130.75 -180.1 L-144.6 -175.15 Q-139.3 -177.6 -130.75 -180.1" fill="url(#gradient3)" fill-rule="evenodd" stroke="none"/>
    <path d="M116.65 -128.9 L135.7 -150.4 Q127.3 -155.45 112.35 -162.15 82.55 -175.55 50.15 -183.8 -45.8 -208.2 -130.75 -180.1 L-144.6 -175.15 Q-139.3 -177.6 -130.75 -180.1" fill="none" stroke="#ffffff" stroke-linecap="round" stroke-linejoin="round" stroke-width="2.0"/>
  </g>
  <defs>
    <linearGradient gradientTransform="matrix(-0.095, 0.0, 0.0, 0.0711, -111.7, -3.75)" gradientUnits="userSpaceOnUse" id="gradient0" spreadMethod="pad" x1="-819.2" x2="819.2">
      <stop offset="0.0" stop-color="#feedb0" stop-opacity="0.0"/>
      <stop offset="0.5215686274509804" stop-color="#feedb0" stop-opacity="0.2"/>
      <stop offset="1.0" stop-color="#fce283" stop-opacity="0.3019608"/>
    </linearGradient>
    <linearGradient gradientTransform="matrix(0.0085, 0.0, 0.0, 0.003, -137.7, -177.65)" gradientUnits="userSpaceOnUse" id="gradient1" spreadMethod="pad" x1="-819.2" x2="819.2">
      <stop offset="0.0" stop-color="#ffffff" stop-opacity="0.0"/>
      <stop offset="0.7686274509803922" stop-color="#ffffff" stop-opacity="0.7529412"/>
    </linearGradient>
    <linearGradient gradientTransform="matrix(0.1626, 0.0, 0.0, 0.0404, 2.45, -162.05)" gradientUnits="userSpaceOnUse" id="gradient2" spreadMethod="pad" x1="-819.2" x2="819.2">
      <stop offset="0.0" stop-color="#ffffff" stop-opacity="0.0"/>
      <stop offset="0.7686274509803922" stop-color="#ffffff" stop-opacity="0.7529412"/>
    </linearGradient>
    <linearGradient gradientTransform="matrix(0.0085, 0.0, 0.0, 0.003, -137.7, -177.65)" gradientUnits="userSpaceOnUse" id="gradient3" spreadMethod="pad" x1="-819.2" x2="819.2">
      <stop offset="0.0" stop-color="#ffffff" stop-opacity="0.0"/>
      <stop offset="0.7686274509803922" stop-color="#ffffff" stop-opacity="0.7529412"/>
    </linearGradient>
  </defs>
</svg>
