<?xml version="1.0" encoding="UTF-8" standalone="no"?>
<svg xmlns:ffdec="https://www.free-decompiler.com/flash" xmlns:xlink="http://www.w3.org/1999/xlink" ffdec:objectType="shape" height="96.9px" width="172.0px" xmlns="http://www.w3.org/2000/svg">
  <g transform="matrix(1.0, 0.0, 0.0, 1.0, -52.25, 147.1)">
    <path d="M53.8 -62.7 L55.9 -63.9 Q55.95 -67.65 59.8 -67.3 L60.65 -67.2 75.75 -78.2 72.6 -81.1 72.25 -89.2 75.4 -91.6 76.0 -91.15 Q117.4 -132.2 176.4 -147.1 L95.55 -70.4 95.9 -69.75 89.55 -64.75 80.45 -74.1 Q71.2 -60.1 55.25 -54.75 L54.5 -55.45 Q50.35 -60.1 53.8 -62.7" fill="#ffffff" fill-opacity="0.24705882" fill-rule="evenodd" stroke="none"/>
    <path d="M54.2 -53.8 Q52.1 -59.6 56.8 -60.9 L59.65 -61.25 60.8 -62.5 Q63.1 -64.6 66.05 -62.7 L87.05 -67.8 85.2 -71.7 88.7 -79.45 93.05 -80.65 93.45 -80.05 Q156.0 -104.4 224.25 -97.55 L103.75 -53.4 103.8 -52.7 94.8 -50.2 89.9 -62.25 Q73.65 -52.35 54.55 -52.8 L54.2 -53.8" fill="#ffffff" fill-opacity="0.14901961" fill-rule="evenodd" stroke="none"/>
  </g>
</svg>
