<?xml version="1.0" encoding="UTF-8" standalone="no"?>
<svg xmlns:ffdec="https://www.free-decompiler.com/flash" xmlns:xlink="http://www.w3.org/1999/xlink" ffdec:objectType="shape" height="158.45px" width="504.85px" xmlns="http://www.w3.org/2000/svg">
  <g transform="matrix(1.0, 0.0, 0.0, 1.0, 270.5, 192.2)">
    <path d="M184.45 -148.75 Q174.15 -154.65 155.1 -161.0 116.9 -173.7 72.85 -175.95 11.2 -179.1 -53.4 -161.0 -134.15 -138.3 -214.9 -83.45 L-269.5 -109.0 Q-253.0 -118.65 -225.3 -131.35 -169.9 -156.75 -113.85 -171.95 -35.3 -193.2 33.3 -191.0 119.1 -188.25 184.45 -148.75" fill="url(#gradient0)" fill-rule="evenodd" stroke="none"/>
    <path d="M-214.9 -83.45 L-269.5 -109.0 Q-253.0 -118.65 -225.3 -131.35 -169.9 -156.75 -113.85 -171.95 -35.3 -193.2 33.3 -191.0 119.1 -188.25 184.45 -148.75" fill="none" stroke="#ffffff" stroke-linecap="round" stroke-linejoin="round" stroke-width="2.0"/>
    <path d="M-214.9 -83.45 L-269.5 -109.0 Q-253.0 -118.65 -225.3 -131.35 -169.9 -156.75 -113.85 -171.95 -35.3 -193.2 33.3 -191.0 119.1 -188.25 184.45 -148.75" fill="none" stroke="#ffffff" stroke-linecap="round" stroke-linejoin="round" stroke-width="2.0"/>
    <path d="M230.8 -49.55 L232.75 -59.45 Q234.25 -71.85 232.1 -84.25 225.25 -123.9 184.45 -148.75" fill="none" stroke="#ffffff" stroke-linecap="round" stroke-linejoin="round" stroke-width="2.0"/>
    <path d="M-75.4 -68.6 L-70.0 -71.9 Q-70.2 -75.0 -68.1 -78.25 -66.8 -80.15 -65.1 -81.9 L-67.8 -85.25 -68.7 -84.75 Q-71.55 -87.85 -74.05 -91.2 -109.55 -141.05 -173.85 -153.8 L-174.9 -152.4 Q-141.05 -132.8 -120.4 -100.05 L-97.4 -65.35 -98.2 -64.35 -92.3 -58.45 -84.0 -63.45 Q-77.0 -48.85 -60.35 -43.8 -60.2 -46.45 -60.45 -48.8 -62.3 -62.85 -75.4 -68.6" fill="#ffffff" fill-opacity="0.24705882" fill-rule="evenodd" stroke="none"/>
    <path d="M-58.25 -59.25 Q-56.75 -61.4 -53.85 -62.45 -51.6 -63.35 -49.3 -63.85 L-49.3 -67.75 -50.2 -67.85 Q-54.45 -96.45 -57.9 -125.3 -59.9 -142.4 -69.95 -157.65 -75.9 -166.7 -84.05 -174.7 L-85.5 -174.25 Q-82.65 -164.7 -83.8 -108.35 L-80.7 -69.4 -81.9 -69.15 -81.05 -61.7 -72.6 -60.75 Q-75.6 -48.4 -69.15 -37.0 L-67.25 -33.75 Q-58.75 -43.05 -61.6 -54.2 -62.35 -57.1 -63.8 -59.85 L-58.25 -59.25" fill="#ffffff" fill-opacity="0.14901961" fill-rule="evenodd" stroke="none"/>
  </g>
  <defs>
    <linearGradient gradientTransform="matrix(-0.0102, 0.2764, -0.0656, -0.0024, -40.8, -132.85)" gradientUnits="userSpaceOnUse" id="gradient0" spreadMethod="pad" x1="-819.2" x2="819.2">
      <stop offset="0.0" stop-color="#ffffff" stop-opacity="0.0"/>
      <stop offset="0.7686274509803922" stop-color="#ffffff" stop-opacity="0.7529412"/>
    </linearGradient>
  </defs>
</svg>
