<?xml version="1.0" encoding="UTF-8" standalone="no"?>
<svg xmlns:ffdec="https://www.free-decompiler.com/flash" xmlns:xlink="http://www.w3.org/1999/xlink" ffdec:objectType="shape" height="270.55px" width="213.0px" xmlns="http://www.w3.org/2000/svg">
  <g transform="matrix(1.0, 0.0, 0.0, 1.0, 259.6, 159.75)">
    <path d="M-47.1 30.4 L-47.15 30.9 -132.3 110.8 Q-214.5 80.25 -234.1 42.85 L-254.7 3.85 Q-262.95 -11.55 -257.35 -71.0 -251.7 -130.45 -202.5 -159.75 -214.1 -125.0 -205.6 -85.6 -196.7 -44.15 -169.25 -17.35 -153.3 -1.9 -113.95 10.85 -102.45 14.6 -85.3 19.2 -69.25 23.5 -66.25 24.5 L-51.95 29.0 -47.1 30.4" fill="url(#gradient0)" fill-rule="evenodd" stroke="none"/>
    <path d="M-47.1 30.4 L-51.95 29.0" fill="none" stroke="#000000" stroke-linecap="round" stroke-linejoin="round" stroke-opacity="0.29803923" stroke-width="1.0"/>
    <path d="M-79.95 2.3 Q-82.65 2.6 -85.1 1.55 -87.0 0.7 -88.65 -0.6 L-92.05 2.15 -91.7 2.85 Q-110.65 27.9 -136.85 46.0 -146.95 52.85 -153.5 63.2 -164.75 80.85 -167.75 101.35 L-166.55 102.0 Q-144.85 70.2 -109.65 54.45 L-77.05 24.85 -76.2 25.45 -70.05 19.65 -73.7 13.2 Q-59.3 5.3 -52.85 -9.55 -58.6 -13.6 -63.25 -8.5 -70.2 -0.85 -77.55 6.55 L-79.95 2.3" fill="#ffffff" fill-opacity="0.7019608" fill-rule="evenodd" stroke="none"/>
    <path d="M-126.0 -27.75 L-127.95 -32.2 Q-129.75 -32.05 -131.35 -32.7 -133.05 -33.4 -134.4 -34.5 L-136.35 -36.0 -140.05 -33.65 -139.75 -32.9 -148.05 -25.85 Q-160.55 -15.2 -174.15 -6.45 -211.3 17.5 -225.4 56.4 L-224.35 57.25 Q-199.35 28.35 -162.8 16.2 L-127.35 -9.55 -126.6 -8.9 -119.9 -13.95 -122.85 -20.8 Q-107.8 -26.95 -99.75 -40.95 -102.1 -41.25 -104.5 -41.0 -118.0 -39.15 -126.0 -27.75" fill="#ffffff" fill-opacity="0.24705882" fill-rule="evenodd" stroke="none"/>
    <path d="M-135.55 -68.25 Q-137.95 -68.95 -139.55 -70.85 -141.2 -72.6 -142.35 -74.85 L-146.7 -73.95 -146.65 -73.15 Q-192.3 -64.45 -217.15 -51.7 -242.0 -39.0 -250.85 -29.4 -255.4 -24.5 -259.0 -19.0 L-258.25 -17.85 Q-224.5 -36.5 -185.2 -41.35 L-142.55 -46.65 -142.0 -45.7 -133.85 -48.15 -134.45 -55.65 Q-117.9 -56.15 -105.45 -66.55 -117.35 -72.45 -130.35 -65.9 L-135.1 -63.35 -135.55 -68.25" fill="#ffffff" fill-opacity="0.14901961" fill-rule="evenodd" stroke="none"/>
  </g>
  <defs>
    <linearGradient gradientTransform="matrix(0.0496, 0.0811, 0.047, -0.0297, -245.95, 17.6)" gradientUnits="userSpaceOnUse" id="gradient0" spreadMethod="pad" x1="-819.2" x2="819.2">
      <stop offset="0.0" stop-color="#ffffff" stop-opacity="0.0"/>
      <stop offset="0.35294117647058826" stop-color="#ffffff" stop-opacity="0.2"/>
      <stop offset="0.6745098039215687" stop-color="#ffffff" stop-opacity="0.5019608"/>
    </linearGradient>
  </defs>
</svg>
