<?xml version="1.0" encoding="UTF-8" standalone="no"?>
<svg xmlns:ffdec="https://www.free-decompiler.com/flash" xmlns:xlink="http://www.w3.org/1999/xlink" ffdec:objectType="shape" height="257.4px" width="148.1px" xmlns="http://www.w3.org/2000/svg">
  <g transform="matrix(1.0, 0.0, 0.0, 1.0, 271.85, 144.75)">
    <path d="M-232.25 -134.65 Q-238.2 -127.05 -243.95 -114.15 -255.45 -88.35 -254.5 -61.8 -253.15 -24.6 -227.05 8.7 -194.4 50.35 -124.75 83.6 L-159.45 111.65 Q-171.4 104.85 -187.45 92.5 -219.55 67.8 -240.15 40.1 -269.0 1.25 -270.75 -38.15 -272.9 -87.35 -232.25 -134.65" fill="url(#gradient0)" fill-rule="evenodd" stroke="none"/>
    <path d="M-124.75 83.6 L-159.45 111.65 Q-171.4 104.85 -187.45 92.5 -219.55 67.8 -240.15 40.1 -269.0 1.25 -270.75 -38.15 -272.9 -87.35 -232.25 -134.65" fill="none" stroke="#ffffff" stroke-linecap="round" stroke-linejoin="round" stroke-width="2.0"/>
    <path d="M-222.75 -143.75 Q-228.05 -139.35 -232.25 -134.6" fill="none" stroke="#ffffff" stroke-linecap="round" stroke-linejoin="round" stroke-width="2.0"/>
  </g>
  <defs>
    <linearGradient gradientTransform="matrix(0.0879, 0.0125, -0.021, 0.1482, -196.9, -11.5)" gradientUnits="userSpaceOnUse" id="gradient0" spreadMethod="pad" x1="-819.2" x2="819.2">
      <stop offset="0.0" stop-color="#ffffff" stop-opacity="0.0"/>
      <stop offset="0.7686274509803922" stop-color="#ffffff" stop-opacity="0.7529412"/>
    </linearGradient>
  </defs>
</svg>
