<?xml version="1.0" encoding="UTF-8" standalone="no"?>
<svg xmlns:ffdec="https://www.free-decompiler.com/flash" xmlns:xlink="http://www.w3.org/1999/xlink" ffdec:objectType="shape" height="123.8px" width="243.4px" xmlns="http://www.w3.org/2000/svg">
  <g transform="matrix(1.0, 0.0, 0.0, 1.0, 211.35, -18.35)">
    <path d="M27.15 43.5 L31.55 41.95 31.9 42.25 -0.5 130.5 Q-67.35 148.3 -98.25 138.9 -129.2 129.45 -142.8 124.7 -156.4 119.85 -189.45 92.85 -222.55 65.85 -205.6 32.5 -191.5 51.65 -159.7 63.95 -126.25 76.85 -88.75 75.75 -67.1 75.1 -30.0 63.15 -19.2 59.7 -3.65 54.05 L13.65 47.95 27.15 43.5" fill="url(#gradient0)" fill-rule="evenodd" stroke="none"/>
    <path d="M31.55 41.95 L27.15 43.5" fill="none" stroke="#000000" stroke-linecap="round" stroke-linejoin="round" stroke-opacity="0.29803923" stroke-width="1.0"/>
    <path d="M0.6 44.1 Q-1.25 45.05 -3.75 44.65 L-7.6 43.85 -8.9 46.6 -8.25 47.1 Q-14.55 69.25 -21.55 91.2 -25.75 104.25 -23.3 119.05 -21.85 127.9 -18.35 136.8 L-17.15 137.05 Q-15.8 108.9 3.45 89.25 L14.05 60.2 15.05 60.5 16.95 54.85 10.85 50.85 Q17.2 43.15 16.2 32.45 L15.85 29.4 Q6.4 32.7 4.8 41.8 4.4 44.15 4.6 46.7 L0.6 44.1" fill="#ffffff" fill-opacity="0.7019608" fill-rule="evenodd" stroke="none"/>
    <path d="M-62.9 49.85 L-65.75 46.0 -68.4 45.85 -71.15 44.5 -72.95 43.35 -74.95 45.85 -74.45 46.5 -78.3 53.75 Q-84.0 64.65 -91.15 73.95 -110.6 99.4 -108.75 136.2 L-107.75 136.85 Q-98.6 108.1 -80.35 88.9 L-58.35 66.55 -57.55 67.1 -54.25 61.8 -58.5 55.95 Q-49.55 48.8 -48.05 35.2 L-51.5 35.65 Q-60.7 38.65 -62.9 49.85" fill="#ffffff" fill-opacity="0.24705882" fill-rule="evenodd" stroke="none"/>
    <path d="M-90.95 28.05 L-90.65 23.6 Q-91.6 23.35 -92.35 22.8 L-93.6 21.35 -93.95 20.7 -94.3 19.95 -94.6 19.2 -94.85 18.35 -98.2 19.7 -98.25 20.4 Q-105.45 25.35 -112.75 29.55 L-115.7 31.15 Q-121.6 34.4 -127.55 36.75 -141.15 42.2 -154.45 49.25 -175.05 60.15 -189.25 82.45 L-188.8 83.45 Q-161.2 62.55 -132.75 55.05 L-98.7 44.1 -98.45 44.9 -92.05 41.8 -91.5 35.0 Q-86.1 34.05 -80.95 31.3 -74.25 27.85 -68.4 21.8 -69.0 20.0 -70.55 20.05 -80.3 19.8 -90.95 28.05" fill="#ffffff" fill-opacity="0.14901961" fill-rule="evenodd" stroke="none"/>
  </g>
  <defs>
    <linearGradient gradientTransform="matrix(0.0889, 0.0113, 0.0151, -0.0325, -122.15, 123.3)" gradientUnits="userSpaceOnUse" id="gradient0" spreadMethod="pad" x1="-819.2" x2="819.2">
      <stop offset="0.0" stop-color="#ffffff" stop-opacity="0.0"/>
      <stop offset="0.35294117647058826" stop-color="#ffffff" stop-opacity="0.2"/>
      <stop offset="0.6745098039215687" stop-color="#ffffff" stop-opacity="0.5019608"/>
    </linearGradient>
  </defs>
</svg>
