<?xml version="1.0" encoding="UTF-8" standalone="no"?>
<svg xmlns:ffdec="https://www.free-decompiler.com/flash" xmlns:xlink="http://www.w3.org/1999/xlink" ffdec:objectType="shape" height="137.55px" width="270.65px" xmlns="http://www.w3.org/2000/svg">
  <g transform="matrix(1.0, 0.0, 0.0, 1.0, 262.15, -9.7)">
    <path d="M7.5 108.75 L-6.55 142.95 Q-18.9 145.2 -38.3 146.0 -77.1 147.5 -112.45 140.0 -161.9 129.5 -197.3 102.45 -240.55 69.35 -260.25 13.2 -256.8 22.05 -249.55 34.0 -232.9 61.25 -207.75 81.0 -172.6 108.65 -125.55 117.35 -66.7 128.25 7.5 108.75" fill="url(#gradient0)" fill-rule="evenodd" stroke="none"/>
    <path d="M7.5 108.75 L-6.55 142.95 Q-18.9 145.2 -38.3 146.0 -77.1 147.5 -112.45 140.0 -161.9 129.5 -197.3 102.45 -240.55 69.35 -260.25 13.2 L-261.15 10.7" fill="none" stroke="#ffffff" stroke-linecap="round" stroke-linejoin="round" stroke-width="2.0"/>
    <path d="M7.5 108.75 L-6.55 142.95 Q-18.9 145.2 -38.3 146.0 -77.1 147.5 -112.45 140.0 -161.9 129.5 -197.3 102.45 -240.55 69.35 -260.25 13.2 L-261.15 10.7" fill="none" stroke="#ffffff" stroke-linecap="round" stroke-linejoin="round" stroke-width="2.0"/>
  </g>
  <defs>
    <linearGradient gradientTransform="matrix(0.1634, 0.0, 0.0, 0.0812, -126.4, 79.7)" gradientUnits="userSpaceOnUse" id="gradient0" spreadMethod="pad" x1="-819.2" x2="819.2">
      <stop offset="0.0" stop-color="#ffffff" stop-opacity="0.0"/>
      <stop offset="0.7686274509803922" stop-color="#ffffff" stop-opacity="0.7529412"/>
    </linearGradient>
  </defs>
</svg>
