<?xml version="1.0" encoding="UTF-8" standalone="no"?>
<svg xmlns:ffdec="https://www.free-decompiler.com/flash" xmlns:xlink="http://www.w3.org/1999/xlink" ffdec:objectType="shape" height="81.65px" width="245.3px" xmlns="http://www.w3.org/2000/svg">
  <g transform="matrix(1.0, 0.0, 0.0, 1.0, -88.95, 81.05)">
    <path d="M135.9 -17.9 L136.2 -10.15 Q138.95 -9.3 141.05 -7.25 143.1 -5.25 144.5 -2.8 L146.5 0.6 153.35 -0.55 153.35 -1.85 170.0 -7.05 Q194.95 -14.8 220.5 -19.2 290.15 -31.2 334.25 -79.25 L333.15 -81.05 Q278.7 -54.3 217.0 -59.2 L148.75 -43.55 148.0 -45.0 135.0 -41.7 135.4 -30.0 Q109.25 -30.25 88.95 -14.75 92.3 -12.95 95.95 -11.8 117.3 -6.1 135.9 -17.9" fill="#ffffff" fill-opacity="0.7019608" fill-rule="evenodd" stroke="none"/>
  </g>
</svg>
