<?xml version="1.0" encoding="UTF-8" standalone="no"?>
<svg xmlns:ffdec="https://www.free-decompiler.com/flash" xmlns:xlink="http://www.w3.org/1999/xlink" ffdec:objectType="shape" height="107.5px" width="227.1px" xmlns="http://www.w3.org/2000/svg">
  <g transform="matrix(1.0, 0.0, 0.0, 1.0, -87.0, 108.95)">
    <path d="M131.8 -10.75 Q135.85 -9.95 138.45 -6.7 140.55 -4.2 142.05 -1.45 L148.55 -3.5 148.4 -4.8 Q194.3 -25.95 240.75 -46.05 268.35 -57.95 290.4 -79.45 303.5 -92.25 314.1 -107.3 L312.95 -108.95 Q263.3 -74.8 204.85 -71.1 L141.6 -46.0 140.8 -47.3 128.75 -42.25 129.85 -30.6 Q108.5 -27.8 91.7 -13.15 L87.0 -8.9 Q104.95 -2.65 122.4 -12.5 127.0 -15.05 131.0 -18.45 L131.8 -10.75" fill="#ffffff" fill-opacity="0.5019608" fill-rule="evenodd" stroke="none"/>
  </g>
</svg>
