<?xml version="1.0" encoding="UTF-8" standalone="no"?>
<svg xmlns:ffdec="https://www.free-decompiler.com/flash" xmlns:xlink="http://www.w3.org/1999/xlink" ffdec:objectType="shape" height="342.3px" width="322.9px" xmlns="http://www.w3.org/2000/svg">
  <g transform="matrix(1.0, 0.0, 0.0, 1.0, -1.6, 120.15)">
    <path d="M133.2 -19.3 Q136.3 -17.85 138.05 -15.05 139.7 -12.3 140.65 -9.05 L146.95 -9.25 147.1 -10.35 271.55 -31.25 Q290.05 -34.2 305.25 -44.95 313.05 -50.5 319.8 -56.95 L319.05 -58.65 Q266.45 -41.5 212.55 -52.55 L149.5 -46.55 149.05 -47.85 137.0 -46.5 135.55 -36.4 Q112.4 -39.4 91.95 -28.4 106.65 -17.95 126.7 -23.6 130.45 -24.65 134.1 -26.0 L133.2 -19.3" fill="#ffffff" fill-opacity="0.29803923" fill-rule="evenodd" stroke="none"/>
    <path d="M283.05 -102.5 L321.95 -119.15 Q322.9 -113.7 323.3 -104.3 324.15 -85.5 321.55 -65.85 313.2 -3.0 273.3 44.75 281.65 19.4 287.05 -11.7 297.8 -73.85 283.05 -102.5" fill="url(#gradient0)" fill-rule="evenodd" stroke="none"/>
    <path d="M283.05 -102.5 L321.95 -119.15 Q322.9 -113.7 323.3 -104.3 324.15 -85.5 321.55 -65.85 313.2 -3.0 273.3 44.75" fill="none" stroke="#ffffff" stroke-linecap="round" stroke-linejoin="round" stroke-width="2.0"/>
    <path d="M283.05 -102.5 L321.95 -119.15 Q322.9 -113.7 323.3 -104.3 324.15 -85.5 321.55 -65.85 313.2 -3.0 273.3 44.75" fill="none" stroke="#ffffff" stroke-linecap="round" stroke-linejoin="round" stroke-width="2.0"/>
    <path d="M2.6 221.15 Q12.65 219.25 29.45 214.1 63.1 203.8 96.8 187.65 204.75 135.9 273.3 44.75" fill="none" stroke="#ffffff" stroke-linecap="round" stroke-linejoin="round" stroke-width="2.0"/>
  </g>
  <defs>
    <linearGradient gradientTransform="matrix(0.0306, 0.0, 0.0, 0.1, 298.4, -37.2)" gradientUnits="userSpaceOnUse" id="gradient0" spreadMethod="pad" x1="-819.2" x2="819.2">
      <stop offset="0.0" stop-color="#ffffff" stop-opacity="0.0"/>
      <stop offset="0.7686274509803922" stop-color="#ffffff" stop-opacity="0.7529412"/>
    </linearGradient>
  </defs>
</svg>
