<?xml version="1.0" encoding="UTF-8" standalone="no"?>
<svg xmlns:ffdec="https://www.free-decompiler.com/flash" xmlns:xlink="http://www.w3.org/1999/xlink" ffdec:objectType="shape" height="223.35px" width="272.9px" xmlns="http://www.w3.org/2000/svg">
  <g transform="matrix(1.0, 0.0, 0.0, 1.0, -28.75, 126.5)">
    <path d="M171.65 -106.85 Q198.85 -126.15 230.35 -126.5 261.8 -126.85 281.4 -99.65 301.0 -72.5 301.6 -54.7 302.15 -36.95 293.1 -23.65 291.35 -24.65 286.4 -29.25 L277.5 -37.15 Q265.8 -46.5 261.15 -40.3 258.75 -37.1 255.8 -35.35 L250.6 -32.8 Q243.75 -29.25 237.5 -17.4 231.5 -4.15 221.2 5.4 L214.15 11.75 Q210.75 15.1 209.3 18.2 197.5 43.4 191.45 48.55 162.3 73.55 146.4 84.65 130.5 95.7 124.3 96.85 L118.85 95.6 Q111.7 92.85 69.5 67.7 L28.75 43.1 Q85.85 44.55 116.0 -23.3 144.4 -87.55 171.65 -106.85" fill="url(#gradient0)" fill-rule="evenodd" stroke="none"/>
    <path d="M57.05 0.35 L59.55 -3.4 62.6 -3.35 Q64.15 -3.65 65.6 -4.4 L67.5 -5.5 70.3 -2.75 69.9 -2.15 75.85 5.7 Q84.9 17.45 95.15 27.65 123.2 55.5 128.7 93.3 L127.6 93.9 Q110.95 63.4 81.4 46.4 L55.15 17.15 54.3 17.65 49.4 11.9 53.15 6.25 Q41.15 -1.85 36.65 -15.95 L40.75 -15.25 Q52.2 -11.35 57.05 0.35" fill="#ffffff" fill-opacity="0.7019608" fill-rule="evenodd" stroke="none"/>
    <path d="M79.85 -25.45 Q82.3 -25.5 84.25 -27.1 L87.0 -29.8 90.55 -27.8 90.3 -27.05 Q114.8 -9.05 139.7 8.4 154.5 18.75 164.85 34.15 171.0 43.3 175.45 53.45 L174.55 54.35 Q149.45 28.15 117.15 14.6 L81.35 -3.35 80.7 -2.7 74.2 -7.15 76.3 -13.95 Q64.1 -18.1 56.0 -28.8 L53.7 -31.9 Q65.05 -33.45 74.1 -25.6 76.45 -23.5 78.45 -21.0 L79.85 -25.45" fill="#ffffff" fill-opacity="0.24705882" fill-rule="evenodd" stroke="none"/>
    <path d="M85.75 -56.95 L84.5 -61.15 Q85.8 -62.1 86.55 -63.5 87.3 -64.85 87.6 -66.4 L88.05 -68.55 92.0 -69.0 92.2 -68.3 Q97.25 -71.7 107.15 -71.55 117.2 -71.35 144.5 -72.65 171.8 -73.9 204.7 -55.0 L204.4 -53.8 Q169.95 -59.7 135.85 -50.45 L97.5 -45.2 97.35 -44.3 89.7 -44.05 87.75 -50.35 Q73.65 -46.15 59.75 -51.3 L62.95 -54.0 Q73.45 -60.4 85.75 -56.95" fill="#ffffff" fill-opacity="0.14901961" fill-rule="evenodd" stroke="none"/>
  </g>
  <defs>
    <linearGradient gradientTransform="matrix(-0.8362, 0.5309, 0.5563, 0.8717, 494.3, 374.9)" gradientUnits="userSpaceOnUse" id="gradient0" spreadMethod="pad" x1="-819.2" x2="819.2">
      <stop offset="0.0" stop-color="#ffffff" stop-opacity="0.0"/>
      <stop offset="0.4588235294117647" stop-color="#ffffff" stop-opacity="0.2"/>
      <stop offset="0.6784313725490196" stop-color="#ffffff" stop-opacity="0.5019608"/>
    </linearGradient>
  </defs>
</svg>
