<?xml version="1.0" encoding="UTF-8" standalone="no"?>
<svg xmlns:ffdec="https://www.free-decompiler.com/flash" xmlns:xlink="http://www.w3.org/1999/xlink" ffdec:objectType="shape" height="169.3px" width="549.7px" xmlns="http://www.w3.org/2000/svg">
  <g transform="matrix(1.0, 0.0, 0.0, 1.0, 290.75, 12.45)">
    <path d="M-247.4 19.05 Q-177.7 95.65 -90.65 121.1 -21.05 141.45 56.45 128.35 111.8 118.95 165.55 93.75 178.3 87.75 188.6 82.25 L188.6 82.9 Q86.3 145.75 -8.2 154.45 -90.95 162.1 -163.95 128.05 -216.1 103.75 -258.15 61.05 -279.15 39.7 -289.75 23.2 L-247.4 19.05" fill="url(#gradient0)" fill-rule="evenodd" stroke="none"/>
    <path d="M-247.4 19.05 L-289.75 23.2 Q-279.15 39.7 -258.15 61.05 -216.1 103.75 -163.95 128.05 -90.95 162.1 -8.2 154.45 86.3 145.75 188.6 82.9" fill="none" stroke="#ffffff" stroke-linecap="round" stroke-linejoin="round" stroke-width="2.0"/>
    <path d="M-247.4 19.05 L-289.75 23.2 Q-279.15 39.7 -258.15 61.05 -216.1 103.75 -163.95 128.05 -90.95 162.1 -8.2 154.45 87.45 145.6 191.1 81.35" fill="none" stroke="#ffffff" stroke-linecap="round" stroke-linejoin="round" stroke-width="2.0"/>
    <path d="M257.95 8.3 Q249.45 21.85 236.85 37.75 211.6 69.55 191.1 81.4" fill="none" stroke="#ffffff" stroke-linecap="round" stroke-linejoin="round" stroke-width="2.0"/>
    <path d="M-76.0 -6.2 L-75.75 -5.15 Q-78.7 -1.15 -83.0 1.25 L-85.1 2.5 Q-89.55 4.9 -94.65 5.8 -106.5 8.05 -118.25 6.0 L-116.75 10.05 -122.45 17.5 -127.95 18.3 -128.35 17.65 Q-143.35 21.15 -158.45 23.65 L-168.55 25.15 Q-229.35 33.55 -290.05 23.5 L-135.8 -10.0 -135.7 -10.75 -124.35 -12.45 -120.65 0.1 Q-99.05 -7.8 -76.0 -6.2" fill="#ffffff" fill-opacity="0.7019608" fill-rule="evenodd" stroke="none"/>
  </g>
  <defs>
    <linearGradient gradientTransform="matrix(-0.1904, 0.2283, -0.0638, -0.0532, -50.8, 75.0)" gradientUnits="userSpaceOnUse" id="gradient0" spreadMethod="pad" x1="-819.2" x2="819.2">
      <stop offset="0.0" stop-color="#ffffff" stop-opacity="0.0"/>
      <stop offset="0.7686274509803922" stop-color="#ffffff" stop-opacity="0.7529412"/>
    </linearGradient>
  </defs>
</svg>
