<?xml version="1.0" encoding="UTF-8" standalone="no"?>
<svg xmlns:ffdec="https://www.free-decompiler.com/flash" xmlns:xlink="http://www.w3.org/1999/xlink" ffdec:objectType="shape" height="259.75px" width="361.75px" xmlns="http://www.w3.org/2000/svg">
  <g transform="matrix(1.0, 0.0, 0.0, 1.0, 310.2, 150.45)">
    <path d="M-120.0 -71.95 Q-86.2 -74.75 -55.45 -70.1 L-172.85 -140.35 Q-200.75 -145.95 -246.7 -120.7 -292.45 -95.4 -304.35 -63.55 -316.2 -31.6 -302.35 3.6 -288.45 38.75 -268.45 51.0 -248.3 63.2 -227.0 64.8 -205.65 66.3 -198.2 71.0 -199.65 68.85 -213.2 58.8 -226.9 48.55 -233.35 39.55 -254.7 9.55 -218.25 -31.25 -186.95 -66.45 -120.0 -71.95" fill="url(#gradient0)" fill-rule="evenodd" stroke="none"/>
    <path d="M-85.6 -58.05 L-90.1 -54.2 Q-94.1 -54.85 -98.3 -53.65 -100.85 -52.9 -103.2 -51.85 L-107.3 -54.5 -106.5 -55.15 Q-110.2 -57.95 -114.35 -60.45 -175.0 -96.5 -186.65 -149.8 L-184.8 -150.4 Q-162.35 -120.4 -117.75 -103.9 L-80.0 -75.1 -78.65 -75.6 -71.55 -69.95 -78.45 -64.1 Q-60.5 -56.25 -55.25 -42.15 L-61.55 -43.0 Q-79.25 -46.65 -85.6 -58.05" fill="#ffffff" fill-opacity="0.7019608" fill-rule="evenodd" stroke="none"/>
    <path d="M-62.4 -67.35 L-62.35 -67.95 Q-61.0 -70.2 -61.4 -73.95 -61.5 -75.85 -61.95 -77.25 L-62.05 -77.55 -62.0 -78.3 -61.75 -78.95 -58.8 -80.4 Q-58.4 -80.6 -58.25 -80.2 L-57.95 -79.65 Q-45.25 -79.55 -31.4 -86.65 -25.05 -89.95 -12.3 -98.55 -1.0 -106.3 5.45 -109.65 16.05 -115.1 25.15 -115.45 38.0 -115.75 50.9 -106.8 51.65 -106.4 51.55 -105.3 51.35 -104.4 50.7 -104.1 L50.0 -103.75 49.75 -103.65 Q38.05 -101.85 24.85 -96.05 L16.2 -91.9 Q10.1 -88.8 7.5 -86.7 5.5 -85.2 2.0 -81.2 L-3.7 -74.95 -4.15 -74.55 -7.2 -71.25 -7.3 -71.0 -7.7 -70.6 -8.1 -70.3 -44.1 -51.8 -43.85 -51.25 -43.85 -50.8 Q-43.85 -50.5 -44.1 -50.45 L-50.5 -47.15 Q-50.8 -47.0 -51.05 -47.35 L-55.2 -54.7 -72.95 -44.9 -72.8 -44.4 Q-72.5 -43.45 -73.0 -42.4 -73.6 -41.3 -74.5 -40.75 L-76.6 -40.55 Q-77.55 -40.9 -77.85 -41.75 L-77.95 -42.05 Q-78.5 -40.4 -79.65 -39.8 -81.1 -39.05 -82.75 -40.3 -84.45 -41.6 -85.3 -44.2 -86.1 -46.7 -85.65 -49.1 -85.2 -51.45 -83.8 -52.15 L-81.25 -52.05 -81.35 -52.4 Q-81.7 -53.35 -81.2 -54.4 -80.7 -55.55 -79.6 -56.05 L-77.65 -56.25 Q-76.65 -55.95 -76.3 -54.95 L-76.1 -54.45 -59.55 -62.45 -62.4 -67.35 M25.95 -113.95 L29.7 -113.75 26.8 -113.95 25.95 -113.95" fill="#ffffff" fill-opacity="0.5019608" fill-rule="evenodd" stroke="none"/>
    <path d="M-129.05 -53.2 Q-132.4 -54.75 -133.95 -58.2 -135.45 -61.2 -135.35 -64.65 L-141.35 -64.65 -141.55 -63.45 Q-201.35 -67.65 -258.35 -45.4 -284.3 -35.35 -308.1 -20.35 L-307.6 -18.5 Q-256.8 -33.4 -206.4 -20.65 L-146.45 -24.55 -146.1 -23.1 -134.6 -24.1 -132.55 -34.95 Q-110.8 -31.0 -90.65 -41.75 -109.2 -53.8 -130.35 -46.1 L-129.05 -53.2" fill="#ffffff" fill-opacity="0.14901961" fill-rule="evenodd" stroke="none"/>
    <path d="M-261.3 55.0 Q-290.2 31.55 -302.4 3.8 -308.5 -10.1 -308.8 -19.3 -311.8 -59.2 -293.45 -88.6 -278.75 -112.15 -251.1 -127.9 -231.35 -139.2 -207.15 -145.45 -199.55 -147.4 -192.45 -148.6 L-186.85 -149.45 -153.8 -129.0 Q-172.1 -131.15 -194.0 -124.75 -215.05 -118.6 -235.05 -105.95 -255.2 -93.2 -269.5 -76.8 -284.65 -59.45 -290.05 -41.4 -299.4 -10.4 -281.3 25.4 -272.25 43.3 -261.3 55.0" fill="url(#gradient1)" fill-rule="evenodd" stroke="none"/>
    <path d="M-153.8 -129.0 L-186.85 -149.45 -192.45 -148.6 Q-199.55 -147.4 -207.15 -145.45 -231.35 -139.2 -251.1 -127.9 -278.75 -112.15 -293.45 -88.6 -311.8 -59.2 -308.8 -19.3 -308.5 -10.1 -302.4 3.8 -290.2 31.55 -261.3 55.0" fill="none" stroke="#ffffff" stroke-linecap="round" stroke-linejoin="round" stroke-width="2.0"/>
    <path d="M-153.8 -129.0 L-186.85 -149.45 -192.45 -148.6 Q-199.55 -147.4 -207.15 -145.45 -231.35 -139.2 -251.1 -127.9 -278.75 -112.15 -293.45 -88.6 -311.8 -59.2 -308.8 -19.3 -308.5 -10.1 -302.4 3.8 -290.2 31.55 -261.3 55.0 -239.75 79.05 -200.85 96.1 -188.65 101.4 -176.2 105.4 L-166.2 108.3" fill="none" stroke="#ffffff" stroke-linecap="round" stroke-linejoin="round" stroke-width="2.0"/>
    <path d="M-118.85 -68.15 Q-120.85 -70.7 -120.7 -74.15 -120.55 -77.05 -119.55 -79.95 L-124.6 -82.05 -125.3 -81.1 Q-169.8 -102.7 -221.5 -105.65 -250.0 -107.25 -279.2 -101.75 L-284.05 -100.75 -284.3 -99.05 Q-235.0 -95.1 -197.75 -66.7 L-145.3 -49.75 -145.6 -48.4 -135.4 -45.35 -129.25 -53.85 Q-112.6 -42.9 -91.0 -45.5 -101.4 -62.65 -122.9 -62.6 L-118.85 -68.15" fill="#ffffff" fill-opacity="0.24705882" fill-rule="evenodd" stroke="none"/>
  </g>
  <defs>
    <linearGradient gradientTransform="matrix(-0.1029, -0.0475, -0.0535, 0.1277, -276.5, -24.45)" gradientUnits="userSpaceOnUse" id="gradient0" spreadMethod="pad" x1="-819.2" x2="819.2">
      <stop offset="0.0" stop-color="#ffffff" stop-opacity="0.0"/>
      <stop offset="0.35294117647058826" stop-color="#ffffff" stop-opacity="0.2"/>
      <stop offset="0.6745098039215687" stop-color="#ffffff" stop-opacity="0.5019608"/>
    </linearGradient>
    <linearGradient gradientTransform="matrix(-0.0242, -0.0914, 0.1202, -0.0319, -223.05, -61.0)" gradientUnits="userSpaceOnUse" id="gradient1" spreadMethod="pad" x1="-819.2" x2="819.2">
      <stop offset="0.0" stop-color="#ffffff" stop-opacity="0.0"/>
      <stop offset="0.7686274509803922" stop-color="#ffffff" stop-opacity="0.7529412"/>
    </linearGradient>
  </defs>
</svg>
