<?xml version="1.0" encoding="UTF-8" standalone="no"?>
<svg xmlns:ffdec="https://www.free-decompiler.com/flash" xmlns:xlink="http://www.w3.org/1999/xlink" ffdec:objectType="shape" height="244.2px" width="179.75px" xmlns="http://www.w3.org/2000/svg">
  <g transform="matrix(1.0, 0.0, 0.0, 1.0, -50.25, 171.25)">
    <path d="M141.8 -133.95 Q154.25 -124.3 169.2 -113.65 187.2 -100.9 196.85 -86.75 209.15 -68.65 210.9 -34.7 212.65 -0.85 204.25 12.5 195.85 25.75 185.9 37.0 175.85 48.25 159.05 55.75 144.9 62.15 132.65 62.5 140.35 60.05 156.15 43.25 177.6 20.45 178.85 -6.25 180.1 -33.05 168.4 -51.0 156.75 -68.95 135.2 -74.55 113.7 -80.05 99.05 -90.5 84.4 -100.9 61.35 -87.35 L76.15 -160.5 Q103.6 -153.75 116.5 -148.7 129.35 -143.65 141.8 -133.95" fill="url(#gradient0)" fill-rule="evenodd" stroke="none"/>
    <path d="M71.5 -137.65 L80.25 -170.25 Q94.4 -170.2 113.95 -167.2 153.1 -161.15 180.2 -146.4 218.15 -125.8 226.6 -90.65 237.2 -46.7 200.8 17.5 205.2 9.0 208.7 -4.05 215.65 -30.1 211.05 -52.85 204.6 -84.65 175.95 -105.25 140.15 -131.0 71.5 -137.65" fill="url(#gradient1)" fill-rule="evenodd" stroke="none"/>
    <path d="M71.5 -137.65 L80.25 -170.25 Q94.4 -170.2 113.95 -167.2 153.1 -161.15 180.2 -146.4 218.15 -125.8 226.6 -90.65 237.2 -46.7 200.8 17.5" fill="none" stroke="#ffffff" stroke-linecap="round" stroke-linejoin="round" stroke-width="2.0"/>
    <path d="M71.5 -137.65 L80.25 -170.25 Q94.4 -170.2 113.95 -167.2 153.1 -161.15 180.2 -146.4 218.15 -125.8 226.6 -90.65 237.2 -46.7 200.8 17.5 205.2 9.0 208.7 -4.05 215.65 -30.1 211.05 -52.85 204.6 -84.65 175.95 -105.25 140.15 -131.0 71.5 -137.65" fill="url(#gradient2)" fill-rule="evenodd" stroke="none"/>
    <path d="M71.5 -137.65 L80.25 -170.25 Q94.4 -170.2 113.95 -167.2 153.1 -161.15 180.2 -146.4 218.15 -125.8 226.6 -90.65 237.2 -46.7 200.8 17.5" fill="none" stroke="#ffffff" stroke-linecap="round" stroke-linejoin="round" stroke-width="2.0"/>
    <path d="M106.8 71.95 Q123.45 67.85 143.5 59.0 183.6 41.3 200.8 17.5" fill="none" stroke="#ffffff" stroke-linecap="round" stroke-linejoin="round" stroke-width="2.0"/>
    <path d="M55.3 -57.15 L54.3 -57.45 Q52.5 -60.3 51.8 -63.1 L51.2 -64.85 Q50.25 -68.35 51.0 -71.45 52.45 -77.95 59.05 -81.9 L54.95 -82.95 50.25 -88.8 51.45 -91.75 52.15 -91.65 Q54.3 -100.05 57.3 -108.1 L59.45 -113.4 Q73.05 -145.1 103.05 -168.75 L79.4 -83.05 80.0 -82.65 77.55 -76.7 65.1 -80.45 Q64.1 -67.25 55.3 -57.15" fill="#ffffff" fill-opacity="0.7019608" fill-rule="evenodd" stroke="none"/>
  </g>
  <defs>
    <linearGradient gradientTransform="matrix(-0.0336, -0.0746, 0.0674, -0.0862, 209.55, -26.5)" gradientUnits="userSpaceOnUse" id="gradient0" spreadMethod="pad" x1="-819.2" x2="819.2">
      <stop offset="0.0" stop-color="#ffffff" stop-opacity="0.0"/>
      <stop offset="0.35294117647058826" stop-color="#ffffff" stop-opacity="0.2"/>
      <stop offset="0.6745098039215687" stop-color="#ffffff" stop-opacity="0.5019608"/>
    </linearGradient>
    <linearGradient gradientTransform="matrix(-0.095, 0.0128, -0.0153, -0.1132, 148.6, -92.2)" gradientUnits="userSpaceOnUse" id="gradient1" spreadMethod="pad" x1="-819.2" x2="819.2">
      <stop offset="0.0" stop-color="#ffffff" stop-opacity="0.0"/>
      <stop offset="0.7686274509803922" stop-color="#ffffff" stop-opacity="0.7529412"/>
    </linearGradient>
    <linearGradient gradientTransform="matrix(-0.095, 0.0128, -0.0153, -0.1132, 148.6, -92.2)" gradientUnits="userSpaceOnUse" id="gradient2" spreadMethod="pad" x1="-819.2" x2="819.2">
      <stop offset="0.0" stop-color="#ffffff" stop-opacity="0.0"/>
      <stop offset="0.7686274509803922" stop-color="#ffffff" stop-opacity="0.7529412"/>
    </linearGradient>
  </defs>
</svg>
