<?xml version="1.0" encoding="UTF-8" standalone="no"?>
<svg xmlns:ffdec="https://www.free-decompiler.com/flash" xmlns:xlink="http://www.w3.org/1999/xlink" ffdec:objectType="shape" height="159.4px" width="460.8px" xmlns="http://www.w3.org/2000/svg">
  <g transform="matrix(1.0, 0.0, 0.0, 1.0, 268.65, 186.85)">
    <path d="M176.4 -101.85 Q156.1 -113.95 133.4 -121.6 60.6 -145.8 -9.4 -116.05 -15.8 -113.3 -27.7 -108.8 -37.4 -104.75 -42.8 -100.0 -55.8 -88.7 -58.15 -73.9 -174.65 -39.05 -268.65 -102.65 -227.95 -139.45 -156.15 -159.2 -84.3 -178.95 -2.05 -185.55 80.25 -192.1 124.85 -165.2 169.5 -138.25 192.15 -91.3 L188.1 -94.25 Q182.65 -98.1 176.4 -101.85" fill="url(#gradient0)" fill-rule="evenodd" stroke="none"/>
    <path d="M-104.45 -50.8 L-99.55 -57.45 Q-100.65 -59.65 -100.6 -62.5 -100.55 -65.3 -99.8 -68.2 L-98.8 -72.05 -103.75 -74.9 -104.5 -73.8 -118.0 -78.55 Q-138.2 -85.75 -156.55 -96.0 -206.55 -124.1 -264.7 -107.95 L-265.25 -105.8 Q-214.75 -98.45 -180.6 -60.5 L-129.05 -36.3 -129.55 -34.65 -119.5 -30.3 -112.05 -40.35 Q-96.4 -25.8 -73.95 -27.65 -74.85 -31.05 -76.25 -34.05 -85.45 -50.45 -104.45 -50.8" fill="#ffffff" fill-opacity="0.7019608" fill-rule="evenodd" stroke="none"/>
  </g>
  <defs>
    <linearGradient gradientTransform="matrix(-0.0457, -0.0757, -0.0783, 0.0404, 19.25, -168.3)" gradientUnits="userSpaceOnUse" id="gradient0" spreadMethod="pad" x1="-819.2" x2="819.2">
      <stop offset="0.0" stop-color="#ffffff" stop-opacity="0.0"/>
      <stop offset="0.35294117647058826" stop-color="#ffffff" stop-opacity="0.2"/>
      <stop offset="0.6745098039215687" stop-color="#ffffff" stop-opacity="0.5019608"/>
    </linearGradient>
  </defs>
</svg>
