<?xml version="1.0" encoding="UTF-8" standalone="no"?>
<svg xmlns:ffdec="https://www.free-decompiler.com/flash" xmlns:xlink="http://www.w3.org/1999/xlink" ffdec:objectType="shape" height="123.8px" width="243.4px" xmlns="http://www.w3.org/2000/svg">
  <g transform="matrix(1.0, 0.0, 0.0, 1.0, 211.35, -18.35)">
    <path d="M31.55 41.95 L31.9 42.25 -0.5 130.5 Q-67.35 148.3 -98.25 138.9 -129.2 129.45 -142.8 124.7 -156.4 119.85 -189.45 92.85 -222.55 65.85 -205.6 32.5 -191.5 51.65 -159.7 63.95 -126.25 76.85 -88.75 75.75 -67.1 75.1 -30.0 63.15 -19.2 59.7 -3.65 54.05 L13.65 47.95 27.15 43.5 31.55 41.95" fill="url(#gradient0)" fill-rule="evenodd" stroke="none"/>
    <path d="M31.55 41.95 L27.15 43.5" fill="none" stroke="#000000" stroke-linecap="round" stroke-linejoin="round" stroke-opacity="0.29803923" stroke-width="1.0"/>
    <path d="M0.6 44.1 Q-1.0 44.9 -3.05 44.8 L-7.6 43.85 -8.9 46.6 -8.25 47.1 Q-16.95 69.35 -22.45 92.9 -25.35 104.95 -23.2 118.15 -21.8 127.45 -18.35 136.8 L-17.15 137.05 Q-15.65 108.95 3.45 89.25 L14.05 60.2 15.05 60.5 16.95 54.85 10.85 50.85 Q17.2 43.15 16.2 32.5 L15.85 29.4 Q6.55 32.95 4.9 41.8 4.45 44.2 4.6 46.7 L0.6 44.1" fill="#ffffff" fill-opacity="0.7019608" fill-rule="evenodd" stroke="none"/>
    <path d="M-65.75 46.0 Q-67.65 46.45 -69.75 45.35 -71.45 44.45 -72.95 43.35 L-74.95 45.85 -74.45 46.5 Q-86.3 67.55 -98.75 88.15 -106.1 100.5 -108.1 116.5 -109.3 126.05 -108.75 136.2 L-107.75 136.85 Q-98.6 108.15 -77.6 89.6 L-58.35 66.55 -57.55 67.1 -54.25 61.8 -58.5 55.95 Q-50.75 49.85 -48.65 38.5 L-48.05 35.2 Q-57.45 35.9 -61.35 44.85 -62.4 47.15 -62.9 49.85 L-65.75 46.0" fill="#ffffff" fill-opacity="0.24705882" fill-rule="evenodd" stroke="none"/>
    <path d="M-90.95 28.05 L-90.65 23.6 Q-91.6 23.4 -92.35 22.8 -93.4 21.95 -94.0 20.7 L-94.85 18.35 -98.2 19.7 -98.25 20.4 Q-113.6 28.55 -129.15 35.0 -163.45 49.2 -189.25 82.45 L-188.8 83.45 Q-161.25 62.9 -131.35 53.65 L-98.7 44.1 -98.45 44.9 -92.05 41.8 -91.5 35.0 Q-79.1 32.65 -68.4 21.8 -70.0 21.15 -71.6 20.9 -81.45 19.6 -90.95 28.05" fill="#ffffff" fill-opacity="0.14901961" fill-rule="evenodd" stroke="none"/>
  </g>
  <defs>
    <linearGradient gradientTransform="matrix(0.0889, 0.0113, 0.0151, -0.0325, -122.15, 123.3)" gradientUnits="userSpaceOnUse" id="gradient0" spreadMethod="pad" x1="-819.2" x2="819.2">
      <stop offset="0.0" stop-color="#ffffff" stop-opacity="0.0"/>
      <stop offset="0.35294117647058826" stop-color="#ffffff" stop-opacity="0.2"/>
      <stop offset="0.6745098039215687" stop-color="#ffffff" stop-opacity="0.5019608"/>
    </linearGradient>
  </defs>
</svg>
