<?xml version="1.0" encoding="UTF-8" standalone="no"?>
<svg xmlns:ffdec="https://www.free-decompiler.com/flash" xmlns:xlink="http://www.w3.org/1999/xlink" ffdec:objectType="shape" height="167.25px" width="421.2px" xmlns="http://www.w3.org/2000/svg">
  <g transform="matrix(1.0, 0.0, 0.0, 1.0, 164.65, 15.2)">
    <path d="M50.65 13.75 L47.7 16.7 48.85 19.9 Q49.25 21.45 49.15 22.85 L49.1 23.95 49.0 25.0 48.85 26.1 48.55 27.1 52.55 31.15 53.0 30.6 Q62.75 37.5 72.15 45.25 L75.85 48.45 Q83.4 54.8 90.35 61.8 106.55 78.05 123.3 92.55 149.3 114.95 175.9 118.85 L176.0 117.45 Q137.55 92.3 108.35 50.9 L67.45 12.85 67.65 11.85 59.75 4.65 55.25 9.1 Q49.6 1.85 43.05 -3.8 34.65 -11.15 25.55 -15.2 25.1 -13.0 26.55 -10.65 35.6 4.15 50.65 13.75" fill="#ffffff" fill-opacity="0.24705882" fill-rule="evenodd" stroke="none"/>
    <path d="M192.75 43.75 L255.55 62.8 Q248.9 71.7 234.0 83.85 204.25 108.15 163.15 124.35 105.6 147.1 33.7 150.45 -56.25 154.65 -163.65 128.2 -145.9 131.55 -118.2 134.45 -62.75 140.15 -12.75 137.75 57.25 134.4 106.35 115.2 167.75 91.2 192.75 43.75" fill="url(#gradient0)" fill-rule="evenodd" stroke="none"/>
    <path d="M192.75 43.75 L255.55 62.8 Q248.9 71.7 234.0 83.85 204.25 108.15 163.15 124.35 105.6 147.1 33.7 150.45 -56.25 154.65 -163.65 128.2" fill="none" stroke="#ffffff" stroke-linecap="round" stroke-linejoin="round" stroke-width="2.0"/>
    <path d="M192.75 43.75 L255.55 62.8 Q248.9 71.7 234.0 83.85 204.25 108.15 163.15 124.35 105.6 147.1 33.7 150.45 -56.25 154.65 -163.65 128.2" fill="none" stroke="#ffffff" stroke-linecap="round" stroke-linejoin="round" stroke-width="2.0"/>
  </g>
  <defs>
    <linearGradient gradientTransform="matrix(0.2559, 0.0, 0.0, 0.0655, 45.95, 97.4)" gradientUnits="userSpaceOnUse" id="gradient0" spreadMethod="pad" x1="-819.2" x2="819.2">
      <stop offset="0.0" stop-color="#ffffff" stop-opacity="0.0"/>
      <stop offset="0.35294117647058826" stop-color="#ffffff" stop-opacity="0.2"/>
      <stop offset="0.6745098039215687" stop-color="#ffffff" stop-opacity="0.5019608"/>
    </linearGradient>
  </defs>
</svg>
