<?xml version="1.0" encoding="UTF-8" standalone="no"?>
<svg xmlns:ffdec="https://www.free-decompiler.com/flash" xmlns:xlink="http://www.w3.org/1999/xlink" ffdec:objectType="shape" height="237.35px" width="459.25px" xmlns="http://www.w3.org/2000/svg">
  <g transform="matrix(1.0, 0.0, 0.0, 1.0, 270.65, 27.6)">
    <path d="M8.85 2.85 Q47.3 29.8 89.05 54.6 130.75 79.35 163.25 106.95 133.05 157.9 68.35 181.6 3.6 205.3 -31.25 207.7 L-72.95 209.7 Q-99.8 208.2 -142.15 195.45 -184.55 182.65 -221.3 142.1 -258.05 101.5 -270.65 73.9 -241.0 70.7 -205.85 63.6 -186.8 59.8 -176.1 54.0 -165.5 48.25 -157.55 49.1 -149.6 49.95 -94.3 48.3 -39.0 46.6 -15.65 25.85 7.65 5.05 8.85 2.85" fill="url(#gradient0)" fill-rule="evenodd" stroke="none"/>
    <path d="M-174.05 37.8 L-174.05 35.6 -168.15 36.0 -174.05 37.8 M-195.45 44.0 L-195.45 43.95 -195.4 43.95 -195.45 44.0" fill="url(#gradient1)" fill-rule="evenodd" stroke="none"/>
    <path d="M-20.95 20.05 Q-21.05 23.15 -22.8 25.7 -24.8 28.45 -27.75 30.4 L-24.7 35.65 -23.5 35.35 Q2.8 74.8 33.45 111.8 49.0 130.7 70.3 144.75 85.2 154.65 101.8 162.1 L103.1 160.8 Q62.6 123.3 48.4 73.6 L13.6 23.05 14.7 22.15 7.85 12.55 -2.85 15.3 Q-9.3 -2.6 -25.9 -14.8 L-30.8 -18.25 Q-32.8 -1.75 -20.95 11.7 -17.8 15.25 -13.9 18.2 L-20.95 20.05" fill="#ffffff" fill-opacity="0.24705882" fill-rule="evenodd" stroke="none"/>
    <path d="M-36.15 23.55 L-42.55 22.55 Q-44.2 26.1 -47.75 27.85 -49.9 28.85 -52.3 29.3 L-52.0 35.25 -50.95 35.4 Q-50.3 41.15 -50.2 46.85 -49.05 130.5 -3.05 198.05 L-1.4 197.45 Q-18.25 147.95 -9.2 97.55 L-16.2 38.4 -14.85 38.05 -16.45 26.7 -26.15 25.1 Q-23.65 3.5 -34.65 -15.9 L-37.35 -10.45 Q-43.8 6.35 -36.15 23.55" fill="#ffffff" fill-opacity="0.14901961" fill-rule="evenodd" stroke="none"/>
    <path d="M-2.45 15.25 Q-0.9 18.55 -3.1 22.85 -4.25 25.05 -5.55 26.5 L-5.85 26.9 -6.0 27.8 Q-6.35 28.3 -5.85 28.65 L-1.2 31.8 Q-0.5 32.2 -0.05 31.8 L0.65 31.25 Q23.75 37.05 45.9 52.1 56.1 59.0 75.7 75.35 92.85 89.8 103.25 96.85 120.25 108.4 136.55 113.05 159.7 119.45 186.8 114.8 188.35 114.65 188.6 113.3 188.6 112.1 187.6 111.4 L186.0 110.5 Q165.55 102.85 144.1 89.7 L130.05 80.7 Q120.35 74.15 116.45 70.4 113.4 67.75 108.8 61.3 L101.05 51.1 100.45 50.5 96.3 45.15 96.15 44.8 95.6 44.05 95.05 43.55 37.4 4.5 38.05 3.95 38.3 3.45 Q38.4 3.15 37.95 2.85 L27.8 -4.0 Q27.35 -4.3 26.7 -4.0 L16.1 2.7 -12.1 -17.25 -11.55 -17.8 Q-10.65 -18.75 -11.15 -20.25 -11.6 -21.85 -13.25 -22.9 -14.85 -24.1 -16.85 -24.15 -18.7 -24.2 -19.65 -23.25 L-19.9 -23.0 Q-20.15 -25.15 -22.1 -26.5 -24.3 -28.1 -27.9 -27.4 -31.55 -26.6 -34.1 -23.9 -36.7 -21.25 -36.9 -18.2 -37.0 -15.2 -34.7 -13.7 -32.75 -12.4 -30.05 -12.6 L-30.4 -12.3 Q-31.4 -11.3 -30.95 -9.75 -30.45 -8.25 -28.8 -7.1 -27.15 -6.0 -25.2 -5.9 -23.35 -5.8 -22.35 -6.85 L-21.7 -7.3 4.95 10.0 -2.2 14.55 Q-2.75 14.75 -2.45 15.25 M145.4 113.15 L140.1 112.05 138.95 111.7 145.4 113.15" fill="#ffffff" fill-opacity="0.7019608" fill-rule="evenodd" stroke="none"/>
  </g>
  <defs>
    <linearGradient gradientTransform="matrix(0.2648, 0.0, 0.0, 0.114, -53.7, 96.2)" gradientUnits="userSpaceOnUse" id="gradient0" spreadMethod="pad" x1="-819.2" x2="819.2">
      <stop offset="0.0" stop-color="#ffffff" stop-opacity="0.0"/>
      <stop offset="0.35294117647058826" stop-color="#ffffff" stop-opacity="0.2"/>
      <stop offset="0.6745098039215687" stop-color="#ffffff" stop-opacity="0.5019608"/>
    </linearGradient>
    <linearGradient gradientTransform="matrix(0.0432, 0.0, 0.0, 0.014, -203.55, 34.85)" gradientUnits="userSpaceOnUse" id="gradient1" spreadMethod="pad" x1="-819.2" x2="819.2">
      <stop offset="0.0" stop-color="#ffffff" stop-opacity="0.0"/>
      <stop offset="0.35294117647058826" stop-color="#ffffff" stop-opacity="0.2"/>
      <stop offset="0.6745098039215687" stop-color="#ffffff" stop-opacity="0.5019608"/>
    </linearGradient>
  </defs>
</svg>
