<?xml version="1.0" encoding="UTF-8" standalone="no"?>
<svg xmlns:ffdec="https://www.free-decompiler.com/flash" xmlns:xlink="http://www.w3.org/1999/xlink" ffdec:objectType="shape" height="110.95px" width="217.2px" xmlns="http://www.w3.org/2000/svg">
  <g transform="matrix(1.0, 0.0, 0.0, 1.0, -99.05, 115.05)">
    <path d="M141.0 -20.35 L141.6 -12.85 Q143.45 -12.55 145.05 -11.55 147.35 -10.15 148.85 -7.95 150.2 -6.15 151.2 -4.1 L157.35 -6.4 157.25 -7.65 Q184.65 -21.5 213.05 -32.55 275.55 -57.05 316.25 -113.4 L315.15 -115.05 Q267.45 -80.1 211.95 -74.25 L151.55 -47.5 150.8 -48.8 139.25 -43.45 140.05 -32.1 Q116.7 -27.9 99.05 -9.45 102.35 -8.4 105.45 -8.0 124.95 -5.9 141.0 -20.35" fill="#ffffff" fill-opacity="0.29803923" fill-rule="evenodd" stroke="none"/>
  </g>
</svg>
