<?xml version="1.0" encoding="UTF-8" standalone="no"?>
<svg xmlns:ffdec="https://www.free-decompiler.com/flash" xmlns:xlink="http://www.w3.org/1999/xlink" ffdec:objectType="shape" height="172.6px" width="245.85px" xmlns="http://www.w3.org/2000/svg">
  <g transform="matrix(1.0, 0.0, 0.0, 1.0, -69.95, 130.85)">
    <path d="M298.25 -25.45 Q307.5 -17.45 305.5 -8.0 312.3 -24.9 315.45 -52.3 319.65 -88.55 270.0 -118.8 220.4 -149.15 168.75 -103.0 117.15 -56.9 119.45 -19.75 L100.35 6.05 99.85 8.2 Q173.5 31.8 220.1 41.75 240.0 -0.3 262.15 -18.8 284.4 -37.4 298.25 -25.45" fill="url(#gradient0)" fill-rule="evenodd" stroke="none"/>
    <path d="M103.65 -21.8 Q106.85 -22.2 109.05 -24.05 L112.25 -27.0 116.95 -25.7 116.75 -24.95 Q149.8 -11.9 183.35 0.55 203.25 7.95 218.2 20.8 227.1 28.4 233.95 37.25 L232.9 38.2 Q198.1 17.55 154.2 14.45 L108.35 -1.2 107.65 -0.45 98.85 -3.55 100.65 -10.35 Q84.75 -12.3 73.15 -21.05 L69.95 -23.65 Q84.05 -26.9 96.5 -20.95 99.7 -19.4 102.5 -17.35 L103.65 -21.8" fill="#ffffff" fill-opacity="0.7019608" fill-rule="evenodd" stroke="none"/>
    <path d="M119.2 -25.6 L120.15 -30.55 Q123.4 -32.05 125.7 -34.85 127.1 -36.6 128.1 -38.5 L132.65 -38.5 132.45 -37.65 Q136.8 -37.4 141.25 -37.6 206.25 -39.95 246.35 -6.35 L245.45 -5.1 Q211.4 -16.45 169.6 -7.3 L125.3 -10.4 124.65 -9.35 116.25 -10.15 117.65 -17.7 Q100.1 -14.9 87.95 -22.8 90.55 -24.2 93.0 -25.15 107.85 -30.95 119.2 -25.6" fill="#ffffff" fill-opacity="0.24705882" fill-rule="evenodd" stroke="none"/>
  </g>
  <defs>
    <linearGradient gradientTransform="matrix(-0.1174, 0.0674, 0.0097, 0.1292, 210.0, -491.9)" gradientUnits="userSpaceOnUse" id="gradient0" spreadMethod="pad" x1="-819.2" x2="819.2">
      <stop offset="0.0" stop-color="#ffffff" stop-opacity="0.0"/>
      <stop offset="0.35294117647058826" stop-color="#ffffff" stop-opacity="0.2"/>
      <stop offset="0.6745098039215687" stop-color="#ffffff" stop-opacity="0.5019608"/>
    </linearGradient>
  </defs>
</svg>
