<?xml version="1.0" encoding="UTF-8" standalone="no"?>
<svg xmlns:ffdec="https://www.free-decompiler.com/flash" xmlns:xlink="http://www.w3.org/1999/xlink" ffdec:objectType="shape" height="120.55px" width="211.75px" xmlns="http://www.w3.org/2000/svg">
  <g transform="matrix(1.0, 0.0, 0.0, 1.0, -94.1, 75.5)">
    <path d="M123.2 -54.85 Q125.65 -56.75 127.05 -59.65 128.25 -62.0 128.8 -64.6 L133.15 -65.7 133.25 -64.9 Q173.35 -78.05 210.3 -74.9 230.7 -73.15 248.4 -65.4 L251.3 -64.15 250.8 -62.65 Q215.05 -64.7 176.95 -45.1 L133.35 -36.7 133.0 -35.55 124.7 -34.1 124.1 -41.8 Q107.85 -34.5 94.1 -38.95 108.7 -52.1 123.55 -49.8 L123.2 -54.85" fill="#ffffff" fill-opacity="0.14901961" fill-rule="evenodd" stroke="none"/>
    <path d="M301.95 -0.4 Q294.55 -29.05 281.55 -28.6 271.2 -28.25 257.75 -9.45 242.4 12.1 229.7 44.05 L188.75 30.85 197.55 17.0 Q204.1 7.1 210.9 -0.6 230.75 -23.15 259.55 -35.15 287.7 -46.85 297.65 -24.8 302.6 -13.75 301.95 -0.4" fill="url(#gradient0)" fill-rule="evenodd" stroke="none"/>
    <path d="M188.75 30.85 L229.7 44.05 Q242.4 12.1 257.75 -9.45 271.2 -28.25 281.55 -28.6 294.55 -29.05 301.95 -0.4" fill="none" stroke="#ffffff" stroke-linecap="round" stroke-linejoin="round" stroke-width="2.0"/>
    <path d="M188.75 30.85 L229.7 44.05 Q242.4 12.1 257.75 -9.45 271.2 -28.25 281.55 -28.6 294.55 -29.05 301.95 -0.4" fill="none" stroke="#ffffff" stroke-linecap="round" stroke-linejoin="round" stroke-width="2.0"/>
    <path d="M304.7 21.8 Q304.95 19.25 304.75 15.2 304.3 7.05 301.95 -0.4" fill="none" stroke="#ffffff" stroke-linecap="round" stroke-linejoin="round" stroke-width="2.0"/>
  </g>
  <defs>
    <linearGradient gradientTransform="matrix(0.0179, 0.0668, -0.0491, 0.0132, 245.65, 2.85)" gradientUnits="userSpaceOnUse" id="gradient0" spreadMethod="pad" x1="-819.2" x2="819.2">
      <stop offset="0.0" stop-color="#ffffff" stop-opacity="0.0"/>
      <stop offset="0.7686274509803922" stop-color="#ffffff" stop-opacity="0.7529412"/>
    </linearGradient>
  </defs>
</svg>
