<?xml version="1.0" encoding="UTF-8" standalone="no"?>
<svg xmlns:ffdec="https://www.free-decompiler.com/flash" xmlns:xlink="http://www.w3.org/1999/xlink" ffdec:objectType="shape" height="223.35px" width="272.9px" xmlns="http://www.w3.org/2000/svg">
  <g transform="matrix(1.0, 0.0, 0.0, 1.0, -28.75, 126.5)">
    <path d="M171.65 -106.85 Q198.85 -126.15 230.35 -126.5 261.8 -126.85 281.4 -99.65 301.0 -72.5 301.6 -54.7 302.15 -36.95 293.1 -23.65 291.35 -24.65 286.4 -29.25 L277.5 -37.15 Q265.8 -46.5 261.15 -40.3 258.75 -37.1 255.8 -35.35 L250.6 -32.8 Q243.75 -29.25 237.5 -17.4 231.5 -4.15 221.2 5.4 L214.15 11.75 Q210.75 15.1 209.3 18.2 197.5 43.4 191.45 48.55 162.3 73.55 146.4 84.65 130.5 95.7 124.3 96.85 L118.85 95.6 Q111.7 92.85 69.5 67.7 L28.75 43.1 Q85.85 44.55 116.0 -23.3 144.4 -87.55 171.65 -106.85" fill="url(#gradient0)" fill-rule="evenodd" stroke="none"/>
    <path d="M59.55 -3.4 Q61.6 -2.9 63.55 -3.45 65.65 -4.1 67.5 -5.5 L70.3 -2.75 69.9 -2.15 Q90.5 20.2 108.8 44.65 118.1 57.1 123.25 71.9 126.95 82.35 128.7 93.3 L127.6 93.9 Q110.8 63.6 81.4 46.4 L55.15 17.15 54.3 17.65 49.4 11.9 53.15 6.25 Q42.8 -0.75 37.95 -12.55 L36.65 -15.95 Q47.65 -14.2 54.15 -4.9 55.9 -2.4 57.05 0.35 L59.55 -3.4" fill="#ffffff" fill-opacity="0.7019608" fill-rule="evenodd" stroke="none"/>
    <path d="M78.45 -21.0 L79.85 -25.45 82.2 -25.9 Q83.8 -26.5 85.05 -27.7 L87.0 -29.8 90.55 -27.8 90.3 -27.05 Q105.55 -15.8 121.8 -6.2 157.6 15.05 175.45 53.45 L174.55 54.35 Q149.45 28.25 115.55 19.0 L81.35 -3.35 80.7 -2.7 74.2 -7.15 76.3 -13.95 Q62.2 -18.9 53.7 -31.9 L57.9 -32.1 Q70.35 -31.4 78.45 -21.0" fill="#ffffff" fill-opacity="0.24705882" fill-rule="evenodd" stroke="none"/>
    <path d="M84.5 -61.15 Q86.45 -62.45 87.25 -64.65 87.95 -66.5 88.05 -68.55 L92.0 -69.0 92.2 -68.3 Q127.95 -74.8 163.7 -68.2 183.4 -64.6 201.7 -56.35 L204.7 -55.0 204.4 -53.8 Q170.05 -59.35 137.4 -47.4 L97.5 -45.2 97.35 -44.3 89.7 -44.05 87.75 -50.35 Q73.65 -46.15 59.75 -51.3 71.2 -60.5 85.75 -56.95 L84.5 -61.15" fill="#ffffff" fill-opacity="0.14901961" fill-rule="evenodd" stroke="none"/>
  </g>
  <defs>
    <linearGradient gradientTransform="matrix(-0.8362, 0.5309, 0.5563, 0.8717, 494.3, 374.9)" gradientUnits="userSpaceOnUse" id="gradient0" spreadMethod="pad" x1="-819.2" x2="819.2">
      <stop offset="0.0" stop-color="#ffffff" stop-opacity="0.0"/>
      <stop offset="0.4588235294117647" stop-color="#ffffff" stop-opacity="0.2"/>
      <stop offset="0.6784313725490196" stop-color="#ffffff" stop-opacity="0.5019608"/>
    </linearGradient>
  </defs>
</svg>
