<?xml version="1.0" encoding="UTF-8" standalone="no"?>
<svg xmlns:ffdec="https://www.free-decompiler.com/flash" xmlns:xlink="http://www.w3.org/1999/xlink" ffdec:objectType="shape" height="159.75px" width="517.3px" xmlns="http://www.w3.org/2000/svg">
  <g transform="matrix(1.0, 0.0, 0.0, 1.0, 286.6, 6.15)">
    <path d="M-136.3 14.9 Q-268.05 22.3 -286.6 26.15 -269.65 55.75 -250.6 77.35 -243.8 85.1 -228.6 95.65 -210.75 108.05 -188.6 118.8 -129.9 147.4 -67.55 152.65 -50.6 154.05 -23.7 153.35 4.55 152.65 33.95 149.85 105.7 143.0 141.05 128.7 177.45 113.95 198.3 91.75 224.8 63.7 230.7 20.45 203.7 56.75 160.35 61.3 117.1 65.75 78.0 59.3 39.0 52.75 15.2 38.9 -7.2 25.95 -8.25 8.4 L-136.3 14.9" fill="url(#gradient0)" fill-rule="evenodd" stroke="none"/>
    <path d="M-105.25 12.75 L-106.8 10.0 -108.2 10.15 -112.05 9.75 Q-113.9 9.2 -115.25 8.1 L-119.5 9.9 -119.25 10.4 -123.55 12.1 Q-185.45 36.65 -221.75 75.25 L-220.75 75.7 -150.0 44.3 -109.0 24.75 -108.25 25.15 -100.5 21.35 -102.8 17.1 Q-86.05 11.85 -75.65 2.15 L-81.0 2.8 Q-95.35 5.2 -105.25 12.75" fill="#ffffff" fill-opacity="0.24705882" fill-rule="evenodd" stroke="none"/>
    <path d="M-83.25 9.15 Q-86.05 10.25 -89.0 10.2 L-93.7 9.65 -96.95 12.4 -96.3 12.75 Q-127.85 37.15 -145.2 65.25 -154.75 80.75 -158.35 96.55 L-158.95 99.15 -157.55 99.35 Q-139.9 72.5 -104.65 51.95 L-74.9 23.35 -73.8 23.55 -68.25 18.0 -73.85 14.7 Q-59.55 5.55 -55.65 -6.15 -73.45 -0.4 -79.6 11.35 L-83.25 9.15" fill="#ffffff" fill-opacity="0.14901961" fill-rule="evenodd" stroke="none"/>
  </g>
  <defs>
    <linearGradient gradientTransform="matrix(-0.1541, 0.0338, 0.0609, 0.0597, -207.95, 34.2)" gradientUnits="userSpaceOnUse" id="gradient0" spreadMethod="pad" x1="-819.2" x2="819.2">
      <stop offset="0.0" stop-color="#ffffff" stop-opacity="0.0"/>
      <stop offset="0.35294117647058826" stop-color="#ffffff" stop-opacity="0.2"/>
      <stop offset="0.6745098039215687" stop-color="#ffffff" stop-opacity="0.5019608"/>
    </linearGradient>
  </defs>
</svg>
