<?xml version="1.0" encoding="UTF-8" standalone="no"?>
<svg xmlns:ffdec="https://www.free-decompiler.com/flash" xmlns:xlink="http://www.w3.org/1999/xlink" ffdec:objectType="shape" height="259.75px" width="254.95px" xmlns="http://www.w3.org/2000/svg">
  <g transform="matrix(1.0, 0.0, 0.0, 1.0, 310.2, 150.45)">
    <path d="M-120.0 -71.95 Q-86.2 -74.75 -55.45 -70.1 L-172.85 -140.35 Q-200.75 -145.95 -246.7 -120.7 -292.45 -95.4 -304.35 -63.55 -316.2 -31.6 -302.35 3.6 -288.45 38.75 -268.45 51.0 -248.3 63.2 -227.0 64.8 -205.65 66.3 -198.2 71.0 -199.65 68.85 -213.2 58.8 -226.9 48.55 -233.35 39.55 -254.7 9.55 -218.25 -31.25 -186.95 -66.45 -120.0 -71.95" fill="url(#gradient0)" fill-rule="evenodd" stroke="none"/>
    <path d="M-85.6 -58.05 L-90.1 -54.2 -92.75 -54.5 Q-95.85 -54.45 -98.8 -53.5 -101.1 -52.85 -103.2 -51.85 L-107.3 -54.5 -106.5 -55.15 -116.15 -61.0 Q-173.4 -96.9 -186.65 -149.8 L-184.8 -150.4 Q-162.1 -120.45 -117.75 -103.9 L-80.0 -75.1 -78.65 -75.6 -71.55 -69.95 -78.45 -64.1 -74.25 -62.0 Q-59.7 -54.4 -55.25 -42.15 L-60.7 -42.95 Q-78.9 -46.55 -85.6 -58.05" fill="#ffffff" fill-opacity="0.7019608" fill-rule="evenodd" stroke="none"/>
    <path d="M-130.35 -46.1 L-129.05 -53.2 Q-130.25 -53.8 -131.2 -54.75 -133.35 -56.9 -134.3 -59.9 -135.05 -62.15 -135.35 -64.65 L-141.35 -64.65 -141.55 -63.45 -155.15 -64.0 Q-236.95 -66.1 -308.1 -20.35 L-307.6 -18.5 Q-256.7 -33.9 -206.4 -20.65 L-146.45 -24.55 -146.1 -23.1 -134.6 -24.1 -132.55 -34.95 -127.1 -34.25 Q-108.1 -32.1 -90.65 -41.75 L-95.35 -44.6 Q-112.2 -53.45 -130.35 -46.1" fill="#ffffff" fill-opacity="0.14901961" fill-rule="evenodd" stroke="none"/>
    <path d="M-261.3 55.0 Q-290.2 31.55 -302.4 3.8 -308.5 -10.1 -308.8 -19.3 -311.8 -59.2 -293.45 -88.6 -278.75 -112.15 -251.1 -127.9 -231.35 -139.2 -207.15 -145.45 -199.55 -147.4 -192.45 -148.6 L-186.85 -149.45 -153.8 -129.0 Q-172.1 -131.15 -194.0 -124.75 -215.05 -118.6 -235.05 -105.95 -255.2 -93.2 -269.5 -76.8 -284.65 -59.45 -290.05 -41.4 -299.4 -10.4 -281.3 25.4 -272.25 43.3 -261.3 55.0" fill="url(#gradient1)" fill-rule="evenodd" stroke="none"/>
    <path d="M-153.8 -129.0 L-186.85 -149.45 -192.45 -148.6 Q-199.55 -147.4 -207.15 -145.45 -231.35 -139.2 -251.1 -127.9 -278.75 -112.15 -293.45 -88.6 -311.8 -59.2 -308.8 -19.3 -308.5 -10.1 -302.4 3.8 -290.2 31.55 -261.3 55.0" fill="none" stroke="#ffffff" stroke-linecap="round" stroke-linejoin="round" stroke-width="2.0"/>
    <path d="M-153.8 -129.0 L-186.85 -149.45 -192.45 -148.6 Q-199.55 -147.4 -207.15 -145.45 -231.35 -139.2 -251.1 -127.9 -278.75 -112.15 -293.45 -88.6 -311.8 -59.2 -308.8 -19.3 -308.5 -10.1 -302.4 3.8 -290.2 31.55 -261.3 55.0 -239.75 79.05 -200.85 96.1 -188.65 101.4 -176.2 105.4 L-166.2 108.3" fill="none" stroke="#ffffff" stroke-linecap="round" stroke-linejoin="round" stroke-width="2.0"/>
    <path d="M-122.9 -62.6 L-118.85 -68.15 Q-120.95 -71.1 -120.65 -75.15 -120.4 -77.55 -119.55 -79.95 L-124.6 -82.05 -125.3 -81.1 Q-130.35 -82.8 -135.15 -85.0 -204.95 -117.1 -284.05 -100.75 L-284.3 -99.05 Q-238.3 -87.55 -197.75 -66.7 L-145.3 -49.75 -145.6 -48.4 -135.4 -45.35 -129.25 -53.85 Q-112.6 -42.9 -91.0 -45.5 -92.5 -48.1 -94.15 -50.2 -104.8 -62.9 -122.9 -62.6" fill="#ffffff" fill-opacity="0.24705882" fill-rule="evenodd" stroke="none"/>
  </g>
  <defs>
    <linearGradient gradientTransform="matrix(-0.1029, -0.0475, -0.0535, 0.1277, -276.5, -24.45)" gradientUnits="userSpaceOnUse" id="gradient0" spreadMethod="pad" x1="-819.2" x2="819.2">
      <stop offset="0.0" stop-color="#ffffff" stop-opacity="0.0"/>
      <stop offset="0.35294117647058826" stop-color="#ffffff" stop-opacity="0.2"/>
      <stop offset="0.6745098039215687" stop-color="#ffffff" stop-opacity="0.5019608"/>
    </linearGradient>
    <linearGradient gradientTransform="matrix(-0.0242, -0.0914, 0.1202, -0.0319, -223.05, -61.0)" gradientUnits="userSpaceOnUse" id="gradient1" spreadMethod="pad" x1="-819.2" x2="819.2">
      <stop offset="0.0" stop-color="#ffffff" stop-opacity="0.0"/>
      <stop offset="0.7686274509803922" stop-color="#ffffff" stop-opacity="0.7529412"/>
    </linearGradient>
  </defs>
</svg>
