<?xml version="1.0" encoding="UTF-8" standalone="no"?>
<svg xmlns:ffdec="https://www.free-decompiler.com/flash" xmlns:xlink="http://www.w3.org/1999/xlink" ffdec:objectType="shape" height="158.45px" width="504.85px" xmlns="http://www.w3.org/2000/svg">
  <g transform="matrix(1.0, 0.0, 0.0, 1.0, 270.5, 192.2)">
    <path d="M184.45 -148.75 Q174.15 -154.65 155.1 -161.0 116.9 -173.7 72.85 -175.95 11.2 -179.1 -53.4 -161.0 -134.15 -138.3 -214.9 -83.45 L-269.5 -109.0 Q-253.0 -118.65 -225.3 -131.35 -169.9 -156.75 -113.85 -171.95 -35.3 -193.2 33.3 -191.0 119.1 -188.25 184.45 -148.75" fill="url(#gradient0)" fill-rule="evenodd" stroke="none"/>
    <path d="M-214.9 -83.45 L-269.5 -109.0 Q-253.0 -118.65 -225.3 -131.35 -169.9 -156.75 -113.85 -171.95 -35.3 -193.2 33.3 -191.0 119.1 -188.25 184.45 -148.75" fill="none" stroke="#ffffff" stroke-linecap="round" stroke-linejoin="round" stroke-width="2.0"/>
    <path d="M-214.9 -83.45 L-269.5 -109.0 Q-253.0 -118.65 -225.3 -131.35 -169.9 -156.75 -113.85 -171.95 -35.3 -193.2 33.3 -191.0 119.1 -188.25 184.45 -148.75" fill="none" stroke="#ffffff" stroke-linecap="round" stroke-linejoin="round" stroke-width="2.0"/>
    <path d="M230.8 -49.55 L232.75 -59.45 Q234.25 -71.85 232.1 -84.25 225.25 -123.9 184.45 -148.75" fill="none" stroke="#ffffff" stroke-linecap="round" stroke-linejoin="round" stroke-width="2.0"/>
    <path d="M-75.4 -68.6 L-70.0 -71.9 Q-70.1 -73.25 -69.65 -74.8 -68.95 -76.9 -67.6 -78.8 L-65.1 -81.9 -67.8 -85.25 -68.7 -84.75 Q-83.6 -98.3 -96.55 -113.65 -125.2 -147.4 -173.85 -153.8 L-174.9 -152.4 Q-148.55 -134.3 -121.8 -98.0 L-97.4 -65.35 -98.2 -64.35 -92.3 -58.45 -84.0 -63.45 Q-77.0 -48.9 -60.35 -43.8 -60.1 -46.45 -60.35 -48.8 -62.1 -63.05 -75.4 -68.6" fill="#ffffff" fill-opacity="0.24705882" fill-rule="evenodd" stroke="none"/>
    <path d="M-63.8 -59.85 L-58.25 -59.25 -57.05 -60.75 Q-55.4 -62.2 -53.05 -62.95 L-49.3 -63.85 -49.3 -67.75 -50.2 -67.85 -49.75 -76.75 Q-48.1 -130.15 -84.05 -174.7 L-85.5 -174.25 Q-73.35 -141.7 -77.3 -108.45 L-80.7 -69.4 -81.9 -69.15 -81.05 -61.7 -72.6 -60.75 -73.15 -57.2 Q-74.85 -44.75 -67.25 -33.75 L-65.0 -36.95 Q-58.05 -48.3 -63.8 -59.85" fill="#ffffff" fill-opacity="0.14901961" fill-rule="evenodd" stroke="none"/>
  </g>
  <defs>
    <linearGradient gradientTransform="matrix(-0.0102, 0.2764, -0.0656, -0.0024, -40.8, -132.85)" gradientUnits="userSpaceOnUse" id="gradient0" spreadMethod="pad" x1="-819.2" x2="819.2">
      <stop offset="0.0" stop-color="#ffffff" stop-opacity="0.0"/>
      <stop offset="0.7686274509803922" stop-color="#ffffff" stop-opacity="0.7529412"/>
    </linearGradient>
  </defs>
</svg>
