<?xml version="1.0" encoding="UTF-8" standalone="no"?>
<svg xmlns:ffdec="https://www.free-decompiler.com/flash" xmlns:xlink="http://www.w3.org/1999/xlink" ffdec:objectType="shape" height="304.6px" width="268.05px" xmlns="http://www.w3.org/2000/svg">
  <g transform="matrix(1.0, 0.0, 0.0, 1.0, 328.15, 5.8)">
    <path d="M-95.3 127.1 Q-98.85 127.9 -102.0 125.8 L-106.7 122.1 -111.15 126.85 -110.65 128.0 Q-140.4 167.85 -170.95 206.85 -189.1 230.05 -199.65 260.35 -205.9 278.35 -209.5 297.65 L-208.0 298.8 Q-179.5 244.6 -133.95 216.8 L-91.6 165.9 -90.5 166.9 -82.5 156.9 -87.2 145.85 Q-71.1 134.35 -62.5 112.9 L-60.1 106.75 Q-76.55 108.0 -87.3 124.9 -90.05 129.3 -92.2 134.35 L-95.3 127.1" fill="#ffffff" fill-opacity="0.7019608" fill-rule="evenodd" stroke="none"/>
    <path d="M-155.2 75.35 L-157.75 67.65 Q-160.1 67.9 -162.2 66.75 -164.4 65.65 -166.15 63.7 L-168.65 61.15 -173.5 65.15 -173.05 66.45 -183.9 78.65 Q-200.15 96.95 -217.85 112.05 -266.15 153.3 -284.4 220.3 L-283.05 221.7 Q-246.45 174.7 -206.0 145.35 L-157.0 106.65 -156.0 107.8 -147.25 99.05 -151.1 87.4 Q-131.55 76.7 -121.1 52.55 -124.2 52.15 -127.25 52.45 -144.85 55.7 -155.2 75.35" fill="#ffffff" fill-opacity="0.24705882" fill-rule="evenodd" stroke="none"/>
    <path d="M-167.05 14.05 L-167.6 5.55 Q-171.4 4.1 -173.95 -0.15 -175.5 -2.75 -176.45 -5.8 L-182.15 -4.25 -182.05 -2.8 Q-187.45 -0.9 -193.0 0.25 -273.7 17.8 -328.15 90.4 L-327.15 92.4 Q-283.2 61.05 -232.2 54.55 L-176.7 42.85 -176.0 44.35 -165.4 40.2 -166.2 27.35 Q-144.65 26.45 -128.45 8.5 -131.55 6.95 -134.45 6.0 -152.25 0.8 -167.05 14.05" fill="#ffffff" fill-opacity="0.14901961" fill-rule="evenodd" stroke="none"/>
  </g>
</svg>
