<?xml version="1.0" encoding="UTF-8" standalone="no"?>
<svg xmlns:ffdec="https://www.free-decompiler.com/flash" xmlns:xlink="http://www.w3.org/1999/xlink" ffdec:objectType="shape" height="426.15px" width="191.95px" xmlns="http://www.w3.org/2000/svg">
  <g transform="matrix(1.0, 0.0, 0.0, 1.0, 344.55, 109.75)">
    <path d="M-293.35 -108.75 Q-301.05 -95.65 -308.55 -73.45 -323.5 -29.0 -322.25 16.7 -320.5 80.75 -286.55 138.1 -244.1 209.85 -153.6 267.1 L-198.7 315.4 Q-214.2 303.7 -235.1 282.4 -276.8 239.9 -303.6 192.2 -341.1 125.3 -343.4 57.45 -346.15 -27.3 -293.35 -108.75" fill="url(#gradient0)" fill-rule="evenodd" stroke="none"/>
    <path d="M-153.6 267.1 L-198.7 315.4 Q-214.2 303.7 -235.1 282.4 -276.8 239.9 -303.6 192.2 -341.1 125.3 -343.4 57.45 -346.15 -27.3 -293.35 -108.75" fill="none" stroke="#ffffff" stroke-linecap="round" stroke-linejoin="round" stroke-width="2.0"/>
  </g>
  <defs>
    <linearGradient gradientTransform="matrix(0.1143, 0.0214, -0.0273, 0.2552, -247.35, 103.3)" gradientUnits="userSpaceOnUse" id="gradient0" spreadMethod="pad" x1="-819.2" x2="819.2">
      <stop offset="0.0" stop-color="#ffffff" stop-opacity="0.0"/>
      <stop offset="0.7686274509803922" stop-color="#ffffff" stop-opacity="0.7529412"/>
    </linearGradient>
  </defs>
</svg>
