<?xml version="1.0" encoding="UTF-8" standalone="no"?>
<svg xmlns:ffdec="https://www.free-decompiler.com/flash" xmlns:xlink="http://www.w3.org/1999/xlink" ffdec:objectType="shape" height="254.5px" width="266.2px" xmlns="http://www.w3.org/2000/svg">
  <g transform="matrix(1.0, 0.0, 0.0, 1.0, -64.9, 42.7)">
    <path d="M113.4 -6.8 L106.65 -0.25 Q109.05 4.7 107.8 10.35 107.0 13.7 105.3 16.9 L112.0 21.65 113.05 20.55 Q119.8 24.8 126.05 29.65 217.0 100.6 330.35 105.5 L331.1 103.1 Q263.0 79.9 216.85 25.8 L147.15 -17.2 147.85 -19.0 134.3 -27.0 124.0 -17.1 Q102.95 -38.7 72.4 -42.7 73.9 -38.5 75.85 -34.8 88.1 -12.75 113.4 -6.8" fill="#ffffff" fill-opacity="0.7019608" fill-rule="evenodd" stroke="none"/>
    <path d="M92.75 52.4 L85.15 56.65 Q85.6 59.0 85.15 61.3 84.5 64.65 82.9 67.5 L79.75 72.05 84.5 78.15 85.8 77.45 Q111.1 102.7 133.8 130.4 183.95 191.45 258.95 211.8 L260.25 209.8 Q204.95 170.95 172.15 116.3 L125.45 51.6 126.5 50.1 116.35 39.25 104.75 45.7 Q91.2 20.4 64.9 8.75 65.1 13.05 65.95 16.95 71.4 40.6 92.75 52.4" fill="#ffffff" fill-opacity="0.24705882" fill-rule="evenodd" stroke="none"/>
  </g>
</svg>
