<?xml version="1.0" encoding="UTF-8" standalone="no"?>
<svg xmlns:ffdec="https://www.free-decompiler.com/flash" xmlns:xlink="http://www.w3.org/1999/xlink" ffdec:objectType="shape" height="129.15px" width="270.55px" xmlns="http://www.w3.org/2000/svg">
  <g transform="matrix(1.0, 0.0, 0.0, 1.0, -71.7, 42.1)">
    <path d="M109.6 -2.85 Q111.9 1.05 111.6 5.5 111.3 9.9 109.8 14.35 L116.8 18.5 117.85 17.3 Q193.6 48.2 269.35 79.35 291.8 88.65 316.65 86.7 329.4 85.65 341.7 82.75 L342.25 80.3 Q271.8 63.8 221.65 13.4 L148.45 -23.3 148.95 -25.2 134.8 -31.95 125.4 -21.15 Q102.5 -40.85 71.7 -42.1 79.65 -19.7 105.9 -12.4 110.8 -11.05 115.75 -10.0 L109.6 -2.85" fill="#ffffff" fill-opacity="0.7019608" fill-rule="evenodd" stroke="none"/>
  </g>
</svg>
