<?xml version="1.0" encoding="UTF-8" standalone="no"?>
<svg xmlns:ffdec="https://www.free-decompiler.com/flash" xmlns:xlink="http://www.w3.org/1999/xlink" ffdec:objectType="shape" height="443.9px" width="421.35px" xmlns="http://www.w3.org/2000/svg">
  <g transform="matrix(1.0, 0.0, 0.0, 1.0, 42.9, 457.3)">
    <path d="M105.4 -454.05 Q154.95 -460.45 214.05 -433.9 266.15 -410.5 306.7 -364.3 347.15 -318.15 370.45 -255.1 393.7 -192.05 349.25 -107.7 304.8 -23.45 269.9 -13.4 258.75 -111.95 169.3 -186.15 L154.85 -188.0 76.7 -238.75 12.35 -246.15 -5.85 -250.4 -42.9 -276.0 105.4 -454.05" fill="url(#gradient0)" fill-rule="evenodd" stroke="none"/>
    <path d="M4.0 -240.2 L10.35 -232.65 Q12.6 -233.6 15.15 -233.65 18.75 -233.65 22.15 -232.35 25.0 -231.35 27.65 -229.85 L32.65 -236.4 31.65 -237.65 Q51.2 -270.7 73.9 -301.45 124.0 -369.35 125.65 -456.35 L123.25 -457.3 Q97.45 -388.35 40.85 -344.95 L-5.25 -276.1 -7.1 -277.0 -15.65 -263.55 -6.0 -252.05 Q-28.6 -231.9 -33.85 -200.55 -29.5 -201.65 -25.65 -203.35 -2.65 -214.15 4.0 -240.2" fill="#ffffff" fill-opacity="0.7019608" fill-rule="evenodd" stroke="none"/>
    <path d="M48.15 -231.65 L52.4 -222.3 Q58.6 -222.85 64.05 -219.35 67.3 -217.25 70.05 -214.4 L77.75 -219.3 77.05 -220.9 Q84.15 -226.15 91.8 -230.65 203.25 -296.3 253.6 -410.05 L251.35 -411.7 Q199.65 -351.1 124.25 -309.9 L50.6 -270.0 48.9 -271.45 35.05 -260.65 41.45 -246.4 Q10.2 -233.15 -6.25 -203.55 L3.5 -204.05 Q31.75 -208.15 48.15 -231.65" fill="#ffffff" fill-opacity="0.24705882" fill-rule="evenodd" stroke="none"/>
  </g>
  <defs>
    <linearGradient gradientTransform="matrix(-0.1022, -0.2232, 0.2675, -0.117, 198.55, -241.2)" gradientUnits="userSpaceOnUse" id="gradient0" spreadMethod="pad" x1="-819.2" x2="819.2">
      <stop offset="0.0" stop-color="#ffffff" stop-opacity="0.0"/>
      <stop offset="0.35294117647058826" stop-color="#ffffff" stop-opacity="0.2"/>
      <stop offset="0.6745098039215687" stop-color="#ffffff" stop-opacity="0.5019608"/>
    </linearGradient>
  </defs>
</svg>
