<?xml version="1.0" encoding="UTF-8" standalone="no"?>
<svg xmlns:ffdec="https://www.free-decompiler.com/flash" xmlns:xlink="http://www.w3.org/1999/xlink" ffdec:objectType="shape" height="299.65px" width="307.15px" xmlns="http://www.w3.org/2000/svg">
  <g transform="matrix(1.0, 0.0, 0.0, 1.0, -77.65, 472.25)">
    <path d="M78.65 -415.0 L107.55 -471.25 Q201.9 -456.2 266.5 -406.3 318.2 -366.35 348.6 -306.0 370.3 -262.95 379.25 -213.95 383.7 -189.45 383.8 -173.6 382.15 -229.6 334.05 -280.05 295.6 -320.4 229.4 -355.4 182.1 -380.4 125.65 -400.2 97.4 -410.1 78.65 -415.0" fill="url(#gradient0)" fill-rule="evenodd" stroke="none"/>
    <path d="M383.8 -173.6 Q383.7 -189.45 379.25 -213.95 370.3 -262.95 348.6 -306.0 318.2 -366.35 266.5 -406.3 201.9 -456.2 107.55 -471.25 L78.65 -415.0" fill="none" stroke="#ffffff" stroke-linecap="round" stroke-linejoin="round" stroke-width="2.0"/>
    <path d="M383.8 -173.6 Q383.7 -189.45 379.25 -213.95 370.3 -262.95 348.6 -306.0 318.2 -366.35 266.5 -406.3 201.9 -456.2 107.55 -471.25 L78.65 -415.0" fill="none" stroke="#ffffff" stroke-linecap="round" stroke-linejoin="round" stroke-width="2.0"/>
  </g>
  <defs>
    <linearGradient gradientTransform="matrix(-0.1799, 0.0482, -0.047, -0.1755, 231.2, -322.35)" gradientUnits="userSpaceOnUse" id="gradient0" spreadMethod="pad" x1="-819.2" x2="819.2">
      <stop offset="0.0" stop-color="#ffffff" stop-opacity="0.0"/>
      <stop offset="0.7686274509803922" stop-color="#ffffff" stop-opacity="0.7529412"/>
    </linearGradient>
  </defs>
</svg>
