<?xml version="1.0" encoding="UTF-8" standalone="no"?>
<svg xmlns:ffdec="https://www.free-decompiler.com/flash" xmlns:xlink="http://www.w3.org/1999/xlink" ffdec:objectType="shape" height="172.6px" width="552.6px" xmlns="http://www.w3.org/2000/svg">
  <g transform="matrix(1.0, 0.0, 0.0, 1.0, 242.3, 474.1)">
    <path d="M223.3 -406.7 Q208.6 -414.2 183.3 -422.4 132.75 -438.7 79.9 -441.95 5.95 -446.5 -62.05 -424.2 -147.0 -396.35 -217.65 -327.95 L-241.3 -401.8 Q-225.3 -411.6 -198.05 -423.95 -143.5 -448.65 -87.2 -461.3 -8.4 -479.0 62.7 -470.1 151.6 -459.0 223.3 -406.7" fill="url(#gradient0)" fill-rule="evenodd" stroke="none"/>
    <path d="M-217.65 -327.95 L-241.3 -401.8 Q-225.3 -411.6 -198.05 -423.95 -143.5 -448.65 -87.2 -461.3 -8.4 -479.0 62.7 -470.1 151.6 -459.0 223.3 -406.7" fill="none" stroke="#ffffff" stroke-linecap="round" stroke-linejoin="round" stroke-width="2.0"/>
    <path d="M309.3 -302.5 Q300.95 -320.6 286.0 -342.7 256.1 -386.9 223.3 -406.7" fill="none" stroke="#ffffff" stroke-linecap="round" stroke-linejoin="round" stroke-width="2.0"/>
  </g>
  <defs>
    <linearGradient gradientTransform="matrix(-0.1256, 0.2533, -0.0791, -0.0392, -8.2, -396.9)" gradientUnits="userSpaceOnUse" id="gradient0" spreadMethod="pad" x1="-819.2" x2="819.2">
      <stop offset="0.0" stop-color="#ffffff" stop-opacity="0.0"/>
      <stop offset="0.7686274509803922" stop-color="#ffffff" stop-opacity="0.7529412"/>
    </linearGradient>
  </defs>
</svg>
