<?xml version="1.0" encoding="UTF-8" standalone="no"?>
<svg xmlns:ffdec="https://www.free-decompiler.com/flash" xmlns:xlink="http://www.w3.org/1999/xlink" ffdec:objectType="shape" height="493.7px" width="401.0px" xmlns="http://www.w3.org/2000/svg">
  <g transform="matrix(1.0, 0.0, 0.0, 1.0, 412.95, 269.45)">
    <path d="M-402.35 -119.15 Q-394.7 -150.1 -362.65 -180.45 -346.6 -195.6 -332.1 -204.6 -328.0 -208.15 -316.75 -218.85 -308.7 -226.45 -294.2 -233.75 -288.35 -236.75 -281.45 -239.65 -257.5 -249.8 -214.05 -261.1 -170.65 -272.45 -114.7 -268.35 -58.75 -264.3 -32.5 -253.25 -22.95 -249.2 -16.9 -245.1 -11.6 -241.4 -12.0 -239.9 -12.35 -238.4 -54.3 -221.7 -99.55 -203.8 -107.45 -198.8 -130.1 -184.6 -159.85 -152.6 -189.6 -120.6 -205.85 -72.75 -213.5 -49.95 -216.85 -25.0 -219.95 -2.3 -218.45 12.8 -216.25 33.3 -207.4 61.4 -199.1 87.65 -183.25 125.8 L-341.9 208.05 Q-359.15 184.15 -371.85 158.85 -385.7 131.4 -394.25 102.35 -406.35 61.2 -410.35 4.75 -413.85 -43.9 -412.65 -62.75 -411.4 -82.35 -402.35 -119.15" fill="url(#gradient0)" fill-rule="evenodd" stroke="none"/>
    <path d="M-182.75 103.45 Q-187.25 102.95 -190.5 99.7 -193.15 97.25 -195.25 94.45 L-201.85 97.25 -201.5 98.6 Q-247.75 125.25 -294.75 150.85 -322.6 166.05 -343.1 190.9 -355.3 205.65 -364.5 222.6 L-363.0 224.25 Q-314.7 183.45 -252.5 174.15 L-188.15 141.7 -187.15 143.1 -174.9 136.55 -177.75 124.25 Q-155.3 119.35 -139.4 102.3 L-134.9 97.3 Q-155.15 92.4 -172.45 104.4 -177.0 107.5 -180.85 111.5 L-182.75 103.45" fill="#ffffff" fill-opacity="0.7019608" fill-rule="evenodd" stroke="none"/>
    <path d="M-182.1 76.65 Q-185.35 74.55 -187.2 71.05 -189.1 67.2 -189.75 63.0 L-196.85 62.6 -197.15 64.0 Q-252.7 64.2 -307.9 70.3 -336.0 73.35 -361.85 85.3 -380.0 93.7 -396.3 105.35 L-395.65 107.55 Q-334.95 91.85 -274.35 102.9 L-202.75 109.2 -202.35 110.9 -188.6 110.4 -186.15 97.85 Q-163.7 103.3 -142.2 94.75 L-136.1 92.15 Q-152.7 79.25 -173.15 82.2 -178.55 83.0 -183.65 84.95 L-182.1 76.65" fill="#ffffff" fill-opacity="0.24705882" fill-rule="evenodd" stroke="none"/>
    <path d="M-182.9 55.8 L-177.85 47.95 Q-181.0 43.15 -180.85 37.05 -180.75 33.4 -179.75 29.85 L-186.85 25.9 -187.65 27.25 Q-194.7 23.9 -201.45 19.8 -299.25 -39.9 -405.75 -27.1 L-405.95 -24.45 Q-338.3 -11.05 -282.45 29.65 -247.4 50.75 -212.35 72.0 L-212.7 74.0 -198.6 80.25 -190.85 68.25 Q-167.3 87.45 -138.05 86.85 -140.25 82.65 -142.75 79.15 -158.3 58.1 -182.9 55.8" fill="#ffffff" fill-opacity="0.14901961" fill-rule="evenodd" stroke="none"/>
  </g>
  <defs>
    <linearGradient gradientTransform="matrix(-0.1182, 0.0511, -0.0745, -0.1725, -446.55, -499.75)" gradientUnits="userSpaceOnUse" id="gradient0" spreadMethod="pad" x1="-819.2" x2="819.2">
      <stop offset="0.0" stop-color="#ffffff" stop-opacity="0.0"/>
      <stop offset="0.35294117647058826" stop-color="#ffffff" stop-opacity="0.2"/>
      <stop offset="0.6745098039215687" stop-color="#ffffff" stop-opacity="0.5019608"/>
    </linearGradient>
  </defs>
</svg>
