<?xml version="1.0" encoding="UTF-8" standalone="no"?>
<svg xmlns:ffdec="https://www.free-decompiler.com/flash" xmlns:xlink="http://www.w3.org/1999/xlink" ffdec:objectType="shape" height="468.85px" width="366.85px" xmlns="http://www.w3.org/2000/svg">
  <g transform="matrix(1.0, 0.0, 0.0, 1.0, 407.8, 101.3)">
    <path d="M-321.85 -11.65 Q-310.35 -1.35 -300.7 4.9 -296.35 7.65 -292.35 9.65 L-290.05 10.75 Q-276.55 16.9 -269.15 22.5 -261.7 28.15 -211.5 91.85 -161.3 155.45 -128.9 161.6 -96.45 167.75 -67.2 158.95 -94.25 192.8 -157.6 261.15 -198.75 305.35 -236.4 344.5 -238.15 343.0 -248.05 339.85 L-272.1 332.0 Q-286.2 327.3 -313.05 295.1 -339.85 262.9 -355.0 233.9 -370.15 204.9 -393.15 155.0 -416.2 105.1 -403.0 6.55 -397.6 -33.9 -365.7 -101.3 -370.75 -58.05 -328.9 -37.45 L-326.35 -15.7 -321.85 -11.65" fill="url(#gradient0)" fill-rule="evenodd" stroke="none"/>
    <path d="M-89.0 193.45 Q-92.95 193.6 -96.2 191.5 -99.8 189.1 -102.35 185.4 L-108.85 189.9 -108.4 191.4 Q-157.35 229.15 -203.15 272.3 -226.5 294.3 -243.55 323.25 -255.5 343.6 -264.3 365.85 L-262.65 367.55 Q-216.6 311.35 -154.3 288.55 L-91.5 238.75 -90.35 240.1 -78.45 230.3 -82.3 216.6 Q-59.9 206.6 -45.05 183.9 L-40.95 177.3 Q-61.8 176.05 -78.45 192.65 -82.8 197.1 -86.4 202.45 L-89.0 193.45" fill="#ffffff" fill-opacity="0.7019608" fill-rule="evenodd" stroke="none"/>
    <path d="M-101.35 171.0 Q-105.5 169.8 -108.2 166.75 -111.1 163.3 -112.5 159.15 L-120.9 160.9 -120.95 162.45 Q-185.45 179.35 -248.5 202.35 -280.65 214.05 -308.65 234.2 -328.35 248.4 -345.4 265.45 L-344.2 267.5 Q-276.3 232.9 -203.45 220.65 L-119.95 211.05 -119.2 212.7 -103.3 208.0 -102.5 194.25 Q-75.55 193.1 -52.05 177.8 L-45.35 173.2 Q-66.8 164.8 -90.05 174.0 -96.2 176.5 -101.8 180.05 L-101.35 171.0" fill="#ffffff" fill-opacity="0.24705882" fill-rule="evenodd" stroke="none"/>
    <path d="M-100.0 132.25 Q-104.0 128.4 -105.0 123.45 -105.85 119.2 -105.25 114.9 L-114.0 111.7 -114.75 113.1 Q-192.85 80.05 -275.8 74.25 -321.6 71.0 -365.9 78.25 L-373.25 79.5 -373.15 82.05 Q-293.5 89.35 -221.55 122.55 -178.55 140.45 -135.5 158.45 L-135.5 160.4 -118.3 165.2 -111.5 152.95 Q-81.25 169.45 -47.95 166.3 -70.35 140.85 -104.45 140.3 L-100.0 132.25" fill="#ffffff" fill-opacity="0.14901961" fill-rule="evenodd" stroke="none"/>
  </g>
  <defs>
    <linearGradient gradientTransform="matrix(-0.0052, 0.1575, -0.2284, -0.0085, -283.3, 100.85)" gradientUnits="userSpaceOnUse" id="gradient0" spreadMethod="pad" x1="-819.2" x2="819.2">
      <stop offset="0.0" stop-color="#ffffff" stop-opacity="0.0"/>
      <stop offset="0.35294117647058826" stop-color="#ffffff" stop-opacity="0.2"/>
      <stop offset="0.6745098039215687" stop-color="#ffffff" stop-opacity="0.5019608"/>
    </linearGradient>
  </defs>
</svg>
