<?xml version="1.0" encoding="UTF-8" standalone="no"?>
<svg xmlns:ffdec="https://www.free-decompiler.com/flash" xmlns:xlink="http://www.w3.org/1999/xlink" ffdec:objectType="shape" height="93.6px" width="75.45px" xmlns="http://www.w3.org/2000/svg">
  <g transform="matrix(1.0, 0.0, 0.0, 1.0, 36.75, 46.7)">
    <path d="M36.3 -1.85 L36.3 -1.65 37.2 3.05 37.65 6.4 38.15 12.7 38.05 19.5 38.05 19.7 37.9 21.25 Q36.1 30.55 29.0 36.65 L28.6 36.9 27.65 37.55 27.6 37.65 Q23.35 40.45 17.6 42.85 L11.15 44.85 Q0.0 47.6 -10.3 45.45 L-12.9 44.8 -14.6 44.3 -15.55 43.95 -16.7 43.6 -19.8 41.85 -23.1 39.15 Q-26.9 35.5 -29.25 30.9 L-30.4 28.15 Q-32.4 23.25 -33.75 17.8 L-34.15 15.95 -34.25 15.55 -35.4 10.15 Q-36.75 1.05 -36.0 -7.25 -35.2 -16.0 -32.05 -23.95 -25.05 -41.85 -10.45 -45.45 1.5 -48.35 12.7 -40.3 L14.95 -38.65 15.6 -38.15 17.8 -36.25 Q26.0 -28.65 31.0 -17.85 34.4 -10.6 36.3 -1.85" fill="#ffffff" fill-rule="evenodd" stroke="none"/>
    <path d="M36.3 -1.85 L36.3 -1.65 37.2 3.05 37.65 6.4 38.15 12.7 38.05 19.5 38.05 19.7 37.9 21.25 Q36.1 30.55 29.0 36.65 L28.6 36.9 27.65 37.55 27.6 37.65 Q23.35 40.45 17.6 42.85 L11.15 44.85 Q0.0 47.6 -10.3 45.45 L-12.9 44.8 -14.6 44.3 -15.55 43.95 -16.7 43.6 -19.8 41.85 -23.1 39.15 Q-26.9 35.5 -29.25 30.9 L-30.4 28.15 Q-32.4 23.25 -33.75 17.8 L-34.15 15.95 -34.25 15.55 -35.4 10.15 Q-36.75 1.05 -36.0 -7.25 -35.2 -16.0 -32.05 -23.95 -25.05 -41.85 -10.45 -45.45 1.5 -48.35 12.7 -40.3 L14.95 -38.65 15.6 -38.15 17.8 -36.25 Q26.0 -28.65 31.0 -17.85 34.4 -10.6 36.3 -1.85 Z" fill="none" stroke="#000000" stroke-linecap="round" stroke-linejoin="round" stroke-width="1.0"/>
  </g>
</svg>
