<?xml version="1.0" encoding="UTF-8" standalone="no"?>
<svg xmlns:ffdec="https://www.free-decompiler.com/flash" xmlns:xlink="http://www.w3.org/1999/xlink" ffdec:objectType="shape" height="524.3px" width="208.9px" xmlns="http://www.w3.org/2000/svg">
  <g transform="matrix(1.0, 0.0, 0.0, 1.0, 407.85, 148.2)">
    <path d="M-405.6 -60.1 Q-406.0 -44.4 -405.0 -23.3 -402.25 37.2 -388.0 92.4 -368.15 169.6 -328.25 225.1 -278.4 294.45 -199.95 325.75 L-252.5 375.1 Q-271.15 361.5 -286.35 347.95 -316.75 320.8 -340.95 279.75 -374.85 222.3 -391.5 145.25 -411.25 53.95 -405.6 -60.1" fill="url(#gradient0)" fill-rule="evenodd" stroke="none"/>
    <path d="M-404.95 -72.75 L-405.4 -64.45 -405.6 -60.1 Q-411.25 53.95 -391.5 145.25 -374.85 222.3 -340.95 279.75 -316.75 320.8 -286.35 347.95 -271.15 361.5 -252.5 375.1 L-199.95 325.75" fill="none" stroke="#ffffff" stroke-linecap="round" stroke-linejoin="round" stroke-width="2.0"/>
    <path d="M-404.95 -72.75 L-405.4 -64.45 -405.6 -60.1 Q-411.25 53.95 -391.5 145.25 -374.85 222.3 -340.95 279.75 -316.75 320.8 -286.35 347.95 -271.15 361.5 -252.5 375.1 L-199.95 325.75" fill="none" stroke="#ffffff" stroke-linecap="round" stroke-linejoin="round" stroke-width="2.0"/>
    <path d="M-389.55 -147.2 L-390.35 -145.2 Q-404.6 -108.95 -404.95 -72.75" fill="none" stroke="#ffffff" stroke-linecap="round" stroke-linejoin="round" stroke-width="2.0"/>
  </g>
  <defs>
    <linearGradient gradientTransform="matrix(0.1263, 0.0, 0.0, 0.2606, -303.4, 153.35)" gradientUnits="userSpaceOnUse" id="gradient0" spreadMethod="pad" x1="-819.2" x2="819.2">
      <stop offset="0.0" stop-color="#ffffff" stop-opacity="0.0"/>
      <stop offset="0.7686274509803922" stop-color="#ffffff" stop-opacity="0.7529412"/>
    </linearGradient>
  </defs>
</svg>
