<?xml version="1.0" encoding="UTF-8" standalone="no"?>
<svg xmlns:ffdec="https://www.free-decompiler.com/flash" xmlns:xlink="http://www.w3.org/1999/xlink" ffdec:objectType="shape" height="317.75px" width="517.8px" xmlns="http://www.w3.org/2000/svg">
  <g transform="matrix(1.0, 0.0, 0.0, 1.0, 356.15, -98.35)">
    <path d="M-15.85 166.95 Q28.25 199.7 76.5 230.45 124.7 261.05 161.65 294.1 121.7 347.95 42.4 368.95 -37.0 389.95 -78.9 389.8 -120.95 389.6 -129.05 388.7 -161.15 384.9 -211.0 367.45 -260.9 349.95 -302.0 302.3 -343.1 254.55 -356.15 223.1 -320.4 221.9 -277.7 216.85 -254.6 214.2 -241.35 208.65 -228.25 203.15 -218.75 204.7 -209.25 206.3 -142.85 208.9 -76.4 211.4 -46.9 190.35 -17.45 169.25 -15.85 166.95" fill="url(#gradient0)" fill-rule="evenodd" stroke="none"/>
    <path d="M-237.7 190.95 L-237.55 188.5 -230.5 189.4 -237.7 190.95 M-263.8 196.1 L-263.8 196.05 -263.75 196.05 -263.8 196.1" fill="url(#gradient1)" fill-rule="evenodd" stroke="none"/>
    <path d="M-49.35 416.1 Q-84.05 379.7 -80.3 329.15 -77.35 289.35 -78.0 249.35 -78.35 226.35 -81.25 203.75 L-82.75 203.25 -82.45 196.25 -67.3 190.0 -58.2 192.9 -57.45 159.0 -60.95 156.0 -60.45 149.8 -57.8 148.45 Q-58.9 143.85 -54.8 141.2 -50.65 138.35 -45.95 140.3 -41.25 142.3 -40.55 147.3 -40.5 147.9 -40.6 148.5 L-40.8 149.75 Q-39.75 151.1 -39.15 152.65 -38.75 153.4 -38.7 154.3 -38.55 155.4 -38.75 156.45 L-39.5 159.95 -42.15 160.3 -44.5 197.4 -30.95 202.3 -31.95 216.25 -33.5 216.25 Q-44.45 315.7 -47.5 415.4 L-49.35 416.1" fill="#ffffff" fill-opacity="0.24705882" fill-rule="evenodd" stroke="none"/>
    <path d="M-110.55 178.8 Q-114.65 181.1 -119.4 180.5 -123.1 180.05 -126.55 179.05 L-130.6 185.35 -129.5 186.3 Q-153.7 236.05 -179.1 285.4 -194.25 314.75 -197.35 347.45 -199.2 366.85 -197.2 386.25 L-194.9 386.75 Q-177.25 324.1 -133.35 273.1 L-92.8 213.3 -91.05 213.75 -84.35 201.05 -94.05 192.75 Q-77.6 175.15 -73.85 151.5 L-72.95 144.75 Q-93.2 153.05 -101.1 173.35 -103.15 178.65 -104.15 184.2 L-110.55 178.8" fill="#ffffff" fill-opacity="0.14901961" fill-rule="evenodd" stroke="none"/>
    <path d="M-22.45 151.65 L-31.8 153.25 -32.15 155.7 Q-33.05 159.25 -35.65 161.9 -38.55 164.9 -42.5 166.65 L-39.6 174.45 -38.05 174.2 -35.45 181.95 Q2.15 294.4 97.85 369.25 L99.85 367.7 Q55.8 309.25 46.65 238.1 L11.85 162.4 13.5 161.3 6.5 146.9 -7.75 149.2 Q-13.65 119.35 -36.95 98.35 -37.85 102.8 -38.2 107.45 -39.45 132.4 -22.45 151.65" fill="#ffffff" fill-opacity="0.7019608" fill-rule="evenodd" stroke="none"/>
  </g>
  <defs>
    <linearGradient gradientTransform="matrix(0.3175, 0.0211, -0.0083, 0.1258, -97.7, 265.0)" gradientUnits="userSpaceOnUse" id="gradient0" spreadMethod="pad" x1="-819.2" x2="819.2">
      <stop offset="0.0" stop-color="#ffffff" stop-opacity="0.0"/>
      <stop offset="0.35294117647058826" stop-color="#ffffff" stop-opacity="0.2"/>
      <stop offset="0.6745098039215687" stop-color="#ffffff" stop-opacity="0.5019608"/>
    </linearGradient>
    <linearGradient gradientTransform="matrix(0.0518, 0.0034, -0.001, 0.0155, -272.85, 185.35)" gradientUnits="userSpaceOnUse" id="gradient1" spreadMethod="pad" x1="-819.2" x2="819.2">
      <stop offset="0.0" stop-color="#ffffff" stop-opacity="0.0"/>
      <stop offset="0.35294117647058826" stop-color="#ffffff" stop-opacity="0.2"/>
      <stop offset="0.6745098039215687" stop-color="#ffffff" stop-opacity="0.5019608"/>
    </linearGradient>
  </defs>
</svg>
