<?xml version="1.0" encoding="UTF-8" standalone="no"?>
<svg xmlns:ffdec="https://www.free-decompiler.com/flash" xmlns:xlink="http://www.w3.org/1999/xlink" ffdec:objectType="shape" height="331.3px" width="496.3px" xmlns="http://www.w3.org/2000/svg">
  <g transform="matrix(1.0, 0.0, 0.0, 1.0, 397.7, -88.2)">
    <path d="M74.55 307.55 L97.6 365.45 Q78.7 376.3 47.95 388.2 -13.5 411.95 -72.5 417.15 -155.15 424.35 -221.2 393.35 -303.05 354.95 -354.5 259.65 -347.3 272.15 -332.65 288.25 -301.35 322.6 -258.85 342.9 -199.3 371.3 -125.8 367.45 -33.95 362.7 74.55 307.55" fill="url(#gradient0)" fill-rule="evenodd" stroke="none"/>
    <path d="M74.55 307.55 L97.6 365.45 Q78.7 376.3 47.95 388.2 -13.5 411.95 -72.5 417.15 -155.15 424.35 -221.2 393.35 -303.05 354.95 -354.5 259.65 L-355.45 257.95" fill="none" stroke="#ffffff" stroke-linecap="round" stroke-linejoin="round" stroke-width="2.0"/>
    <path d="M74.55 307.55 L97.6 365.45 Q78.7 376.3 47.95 388.2 -13.5 411.95 -72.5 417.15 -155.15 424.35 -221.2 393.35 -303.05 354.95 -354.5 259.65 L-355.45 257.95" fill="none" stroke="#ffffff" stroke-linecap="round" stroke-linejoin="round" stroke-width="2.0"/>
    <path d="M-396.7 89.2 Q-393.15 120.5 -386.25 157.25 -372.4 230.7 -355.45 257.95" fill="none" stroke="#ffffff" stroke-linecap="round" stroke-linejoin="round" stroke-width="2.0"/>
  </g>
  <defs>
    <linearGradient gradientTransform="matrix(0.2759, 0.0, 0.0, 0.097, -128.45, 339.05)" gradientUnits="userSpaceOnUse" id="gradient0" spreadMethod="pad" x1="-819.2" x2="819.2">
      <stop offset="0.0" stop-color="#ffffff" stop-opacity="0.0"/>
      <stop offset="0.7686274509803922" stop-color="#ffffff" stop-opacity="0.7529412"/>
    </linearGradient>
  </defs>
</svg>
