<?xml version="1.0" encoding="UTF-8" standalone="no"?>
<svg xmlns:ffdec="https://www.free-decompiler.com/flash" xmlns:xlink="http://www.w3.org/1999/xlink" ffdec:objectType="shape" height="367.15px" width="295.15px" xmlns="http://www.w3.org/2000/svg">
  <g transform="matrix(1.0, 0.0, 0.0, 1.0, -36.5, 51.7)">
    <path d="M96.95 -10.35 L112.55 -21.95 280.0 123.45 302.05 142.05 263.15 214.8 254.7 217.7 Q175.85 291.4 39.7 315.45 L36.5 -6.9 60.6 -37.1 96.95 -10.35" fill="url(#gradient0)" fill-rule="evenodd" stroke="none"/>
    <path d="M144.2 -14.1 L156.2 -24.1 285.1 100.85 302.1 116.85 272.15 179.35 265.65 181.85 Q204.95 245.2 100.15 265.85 L97.65 -11.15 116.2 -37.1 144.2 -14.1" fill="url(#gradient1)" fill-rule="evenodd" stroke="none"/>
    <path d="M122.0 2.8 Q121.45 3.1 121.85 3.65 123.55 8.0 121.35 13.4 120.25 16.15 118.9 18.1 L118.65 18.5 118.35 19.6 Q118.15 20.35 118.6 20.75 L123.8 24.9 Q124.5 25.45 125.0 24.9 L125.7 24.25 Q150.9 32.4 175.4 52.25 186.6 61.3 208.4 82.65 227.45 101.75 239.0 111.1 257.7 126.25 275.5 132.65 300.65 141.55 329.8 136.35 331.4 136.2 331.65 134.5 331.6 133.0 330.45 132.1 L329.25 131.1 328.75 130.8 Q306.35 120.45 282.75 103.1 L267.25 91.15 Q256.55 82.5 252.15 77.55 248.85 74.05 243.55 65.65 L234.8 52.55 234.15 51.7 229.4 44.7 229.3 44.25 228.65 43.35 228.0 42.65 164.3 -8.85 165.05 -9.5 165.25 -10.25 Q165.4 -10.6 164.85 -11.0 L153.65 -20.05 152.45 -20.15 141.35 -11.75 110.15 -38.1 110.7 -38.8 Q111.65 -40.0 111.05 -42.0 110.45 -44.0 108.7 -45.45 106.85 -46.9 104.7 -47.1 102.75 -47.25 101.75 -46.05 L101.5 -45.65 Q101.1 -48.55 99.0 -50.25 96.5 -52.35 92.7 -51.45 88.85 -50.55 86.1 -47.25 83.45 -43.95 83.4 -40.1 83.3 -36.3 85.9 -34.15 88.0 -32.5 90.9 -32.75 L90.6 -32.3 Q89.55 -31.05 90.1 -29.05 90.7 -27.1 92.55 -25.6 94.3 -24.15 96.4 -23.95 98.4 -23.8 99.45 -25.05 L100.05 -25.7 129.5 -2.85 122.0 2.8 M279.25 131.45 L277.65 130.95 285.05 133.1 279.25 131.45" fill="#ffffff" fill-opacity="0.7019608" fill-rule="evenodd" stroke="none"/>
    <path d="M101.5 53.2 L93.4 56.5 Q93.65 61.75 90.6 66.25 88.65 68.9 86.1 71.1 L90.1 77.75 91.45 77.2 Q95.6 83.4 99.2 90.0 151.25 186.15 246.25 232.5 L247.7 230.65 Q198.0 185.0 171.45 121.05 L134.05 56.6 135.3 55.25 126.6 43.2 114.3 48.1 Q104.1 21.3 79.45 6.4 79.2 10.7 79.55 14.65 82.1 38.6 101.5 53.2" fill="#ffffff" fill-opacity="0.24705882" fill-rule="evenodd" stroke="none"/>
  </g>
  <defs>
    <linearGradient gradientTransform="matrix(0.1685, 0.0, 0.0, 0.2202, 174.45, 143.2)" gradientUnits="userSpaceOnUse" id="gradient0" spreadMethod="pad" x1="-819.2" x2="819.2">
      <stop offset="0.0" stop-color="#ffffff" stop-opacity="0.0"/>
      <stop offset="0.35294117647058826" stop-color="#ffffff" stop-opacity="0.2"/>
      <stop offset="0.6745098039215687" stop-color="#ffffff" stop-opacity="0.5019608"/>
    </linearGradient>
    <linearGradient gradientTransform="matrix(0.1297, 0.0, 0.0, 0.1892, 203.85, 117.85)" gradientUnits="userSpaceOnUse" id="gradient1" spreadMethod="pad" x1="-819.2" x2="819.2">
      <stop offset="0.0" stop-color="#ffffff" stop-opacity="0.0"/>
      <stop offset="0.35294117647058826" stop-color="#ffffff" stop-opacity="0.2"/>
      <stop offset="0.6745098039215687" stop-color="#ffffff" stop-opacity="0.5019608"/>
    </linearGradient>
  </defs>
</svg>
