<?xml version="1.0" encoding="UTF-8" standalone="no"?>
<svg xmlns:ffdec="https://www.free-decompiler.com/flash" xmlns:xlink="http://www.w3.org/1999/xlink" ffdec:objectType="shape" height="360.15px" width="323.2px" xmlns="http://www.w3.org/2000/svg">
  <g transform="matrix(1.0, 0.0, 0.0, 1.0, -8.4, 43.7)">
    <path d="M122.0 2.8 Q123.25 6.95 122.3 11.1 121.1 15.7 118.5 19.65 L124.45 25.2 125.7 24.25 Q174.4 64.85 227.15 100.25 254.05 118.3 285.5 127.4 307.6 133.8 330.6 136.15 L331.6 133.85 Q266.85 102.25 228.0 42.65 L164.3 -8.85 165.25 -10.65 152.8 -20.3 141.35 -11.75 Q125.8 -32.65 100.65 -41.4 L93.4 -43.7 Q98.25 -20.9 118.3 -8.3 123.65 -5.0 129.5 -2.85 L122.0 2.8" fill="#ffffff" fill-opacity="0.7019608" fill-rule="evenodd" stroke="none"/>
    <path d="M20.45 97.85 Q18.9 102.45 14.9 105.2 11.75 107.4 8.4 108.95 L9.8 116.55 11.25 116.55 Q28.0 171.3 43.45 226.55 52.7 259.35 73.45 286.65 85.8 302.85 101.05 316.45 L103.1 315.2 Q72.3 255.05 77.0 187.4 L58.35 112.3 60.05 111.5 56.15 97.2 42.9 97.4 Q43.05 72.65 29.1 51.9 L25.1 46.1 Q15.4 66.3 23.75 87.2 25.95 92.7 29.15 97.7 L20.45 97.85" fill="#ffffff" fill-opacity="0.14901961" fill-rule="evenodd" stroke="none"/>
  </g>
</svg>
