<?xml version="1.0" encoding="UTF-8" standalone="no"?>
<svg xmlns:ffdec="https://www.free-decompiler.com/flash" xmlns:xlink="http://www.w3.org/1999/xlink" ffdec:objectType="shape" height="260.5px" width="401.05px" xmlns="http://www.w3.org/2000/svg">
  <g transform="matrix(1.0, 0.0, 0.0, 1.0, 70.35, -96.1)">
    <path d="M275.0 97.1 L329.7 136.4 Q324.4 149.6 311.5 169.5 285.75 209.3 247.95 242.95 195.0 290.0 125.5 317.9 38.6 352.8 -69.35 355.6 -53.4 354.9 -28.05 350.0 22.6 340.2 69.5 319.15 135.1 289.7 183.7 241.9 244.45 182.2 275.0 97.1" fill="url(#gradient0)" fill-rule="evenodd" stroke="none"/>
    <path d="M275.0 97.1 L329.7 136.4 Q324.4 149.6 311.5 169.5 285.75 209.3 247.95 242.95 195.0 290.0 125.5 317.9 38.6 352.8 -69.35 355.6" fill="none" stroke="#ffffff" stroke-linecap="round" stroke-linejoin="round" stroke-width="2.0"/>
    <path d="M275.0 97.1 L329.7 136.4 Q324.4 149.6 311.5 169.5 285.75 209.3 247.95 242.95 195.0 290.0 125.5 317.9 38.6 352.8 -69.35 355.6" fill="none" stroke="#ffffff" stroke-linecap="round" stroke-linejoin="round" stroke-width="2.0"/>
  </g>
  <defs>
    <linearGradient gradientTransform="matrix(0.2436, 0.0, 0.0, 0.1578, 130.15, 226.35)" gradientUnits="userSpaceOnUse" id="gradient0" spreadMethod="pad" x1="-819.2" x2="819.2">
      <stop offset="0.0" stop-color="#ffffff" stop-opacity="0.0"/>
      <stop offset="0.7686274509803922" stop-color="#ffffff" stop-opacity="0.7529412"/>
    </linearGradient>
  </defs>
</svg>
