<?xml version="1.0" encoding="UTF-8" standalone="no"?>
<svg xmlns:ffdec="https://www.free-decompiler.com/flash" xmlns:xlink="http://www.w3.org/1999/xlink" ffdec:objectType="shape" height="443.9px" width="421.35px" xmlns="http://www.w3.org/2000/svg">
  <g transform="matrix(1.0, 0.0, 0.0, 1.0, 42.9, 457.3)">
    <path d="M105.4 -454.05 Q154.95 -460.45 214.05 -433.9 266.15 -410.5 306.7 -364.3 347.15 -318.15 370.45 -255.1 393.7 -192.05 349.25 -107.7 304.8 -23.45 269.9 -13.4 258.75 -111.95 169.3 -186.15 L154.85 -188.0 76.7 -238.75 12.35 -246.15 -5.85 -250.4 -42.9 -276.0 105.4 -454.05" fill="url(#gradient0)" fill-rule="evenodd" stroke="none"/>
    <path d="M4.0 -240.2 L10.35 -232.65 Q15.45 -234.75 21.1 -232.9 24.5 -231.85 27.65 -229.85 L32.65 -236.4 31.65 -237.65 Q36.15 -244.25 41.3 -250.35 116.45 -338.95 125.65 -456.35 L123.25 -457.3 Q97.25 -388.45 40.85 -344.95 L-5.25 -276.1 -7.1 -277.0 -15.65 -263.55 -6.0 -252.05 Q-28.6 -231.95 -33.85 -200.55 -29.55 -201.8 -25.7 -203.5 -3.0 -214.45 4.0 -240.2" fill="#ffffff" fill-opacity="0.7019608" fill-rule="evenodd" stroke="none"/>
    <path d="M48.15 -231.65 L52.4 -222.3 57.95 -221.85 Q61.85 -220.75 64.95 -218.5 L70.05 -214.4 77.75 -219.3 77.05 -220.9 Q109.5 -247.95 144.55 -271.65 221.85 -324.2 253.6 -410.05 L251.35 -411.7 Q199.85 -350.95 127.75 -313.35 L50.6 -270.0 48.9 -271.45 35.05 -260.65 41.45 -246.4 Q10.2 -233.1 -6.25 -203.55 L3.5 -203.9 Q32.0 -207.8 48.15 -231.65" fill="#ffffff" fill-opacity="0.24705882" fill-rule="evenodd" stroke="none"/>
    <path d="M96.05 -175.9 L97.25 -165.35 Q103.6 -163.9 107.9 -158.75 110.45 -155.6 112.25 -151.95 L121.5 -154.35 121.3 -156.15 Q130.2 -159.0 139.3 -161.0 272.0 -190.05 359.7 -285.8 L358.0 -288.2 Q286.5 -245.05 202.9 -229.55 L111.1 -212.8 109.95 -214.7 92.55 -208.55 94.2 -192.5 Q58.75 -189.45 32.6 -165.55 37.6 -163.85 42.45 -163.0 72.0 -158.0 96.05 -175.9" fill="#ffffff" fill-opacity="0.14901961" fill-rule="evenodd" stroke="none"/>
  </g>
  <defs>
    <linearGradient gradientTransform="matrix(-0.1022, -0.2232, 0.2675, -0.117, 198.55, -241.2)" gradientUnits="userSpaceOnUse" id="gradient0" spreadMethod="pad" x1="-819.2" x2="819.2">
      <stop offset="0.0" stop-color="#ffffff" stop-opacity="0.0"/>
      <stop offset="0.35294117647058826" stop-color="#ffffff" stop-opacity="0.2"/>
      <stop offset="0.6745098039215687" stop-color="#ffffff" stop-opacity="0.5019608"/>
    </linearGradient>
  </defs>
</svg>
