<?xml version="1.0" encoding="UTF-8" standalone="no"?>
<svg xmlns:ffdec="https://www.free-decompiler.com/flash" xmlns:xlink="http://www.w3.org/1999/xlink" ffdec:objectType="shape" height="419.55px" width="598.05px" xmlns="http://www.w3.org/2000/svg">
  <g transform="matrix(1.0, 0.0, 0.0, 1.0, 248.9, 472.85)">
    <path d="M346.1 -102.4 L349.05 -103.95 349.15 -102.75 346.1 -102.4 M100.9 -161.2 Q91.7 -169.6 81.5 -177.85 61.1 -194.45 56.05 -193.9 L51.55 -183.9 Q25.5 -190.1 -5.9 -188.15 -68.65 -184.4 -95.4 -144.15 L-115.7 -139.15 -119.95 -126.5 -241.75 -387.0 -242.05 -387.4 Q-220.15 -402.4 -185.0 -419.65 -113.2 -454.8 -44.15 -466.95 52.45 -483.9 129.9 -452.15 226.6 -412.55 287.65 -298.7 L291.1 -293.1 Q295.55 -285.7 300.25 -276.9 314.6 -249.6 319.4 -234.75 324.15 -219.9 327.3 -204.9 330.4 -189.9 332.95 -154.3 337.4 -71.4 316.55 -53.3 313.8 -89.15 264.5 -119.6 L204.6 -146.5 Q199.35 -148.05 194.05 -149.1 125.5 -162.8 100.9 -161.2" fill="url(#gradient0)" fill-rule="evenodd" stroke="none"/>
    <path d="M-123.3 -143.65 L-114.15 -145.0 Q-113.8 -148.55 -111.9 -151.4 -110.1 -154.25 -107.5 -156.35 L-103.95 -159.2 -107.1 -167.75 -108.6 -167.55 -119.0 -187.85 Q-134.7 -218.25 -146.45 -249.8 -178.45 -335.85 -247.05 -385.4 L-248.9 -383.75 Q-203.1 -318.65 -193.25 -240.5 L-157.15 -156.75 -158.7 -155.55 -151.5 -139.6 -137.6 -141.55 Q-131.2 -108.65 -107.55 -85.0 -106.3 -89.5 -105.8 -94.2 -104.5 -121.7 -123.3 -143.65" fill="#ffffff" fill-opacity="0.7019608" fill-rule="evenodd" stroke="none"/>
    <path d="M-74.9 -179.55 L-65.85 -179.5 Q-65.05 -182.05 -63.45 -184.2 -61.2 -187.2 -58.3 -189.1 L-53.1 -191.85 -54.3 -200.8 -55.8 -200.8 Q-65.9 -240.9 -72.4 -282.05 -86.8 -372.6 -144.5 -436.5 L-146.65 -435.15 Q-116.25 -364.1 -111.45 -283.6 L-104.9 -197.6 -106.65 -196.75 -102.95 -179.9 -89.15 -179.7 Q-89.7 -146.4 -71.8 -119.45 -69.85 -123.9 -68.6 -128.25 -61.5 -155.3 -74.9 -179.55" fill="#ffffff" fill-opacity="0.24705882" fill-rule="evenodd" stroke="none"/>
    <path d="M3.05 -194.2 Q6.85 -198.7 12.4 -200.5 17.1 -202.0 21.95 -202.1 L24.55 -211.2 23.0 -211.75 Q51.55 -293.85 49.0 -376.45 47.55 -422.05 34.65 -464.5 L32.45 -471.55 29.55 -471.0 Q30.1 -391.5 -4.05 -303.95 L-30.25 -224.95 -32.45 -224.65 -35.95 -206.95 -21.5 -202.2 Q-36.75 -169.8 -29.55 -137.5 -3.4 -163.6 -6.5 -197.3 L3.05 -194.2" fill="#ffffff" fill-opacity="0.14901961" fill-rule="evenodd" stroke="none"/>
  </g>
  <defs>
    <linearGradient gradientTransform="matrix(-0.1376, -0.0708, 0.0791, -0.2271, 183.8, -647.35)" gradientUnits="userSpaceOnUse" id="gradient0" spreadMethod="pad" x1="-819.2" x2="819.2">
      <stop offset="0.0" stop-color="#ffffff" stop-opacity="0.0"/>
      <stop offset="0.35294117647058826" stop-color="#ffffff" stop-opacity="0.2"/>
      <stop offset="0.6745098039215687" stop-color="#ffffff" stop-opacity="0.5019608"/>
    </linearGradient>
  </defs>
</svg>
