<?xml version="1.0" encoding="UTF-8" standalone="no"?>
<svg xmlns:ffdec="https://www.free-decompiler.com/flash" xmlns:xlink="http://www.w3.org/1999/xlink" ffdec:objectType="shape" height="586.45px" width="281.45px" xmlns="http://www.w3.org/2000/svg">
  <g transform="matrix(1.0, 0.0, 0.0, 1.0, 419.95, 361.45)">
    <path d="M-163.8 23.8 Q-164.9 17.9 -162.3 12.25 -160.35 7.9 -157.85 4.0 L-163.65 -3.1 -165.15 -2.05 Q-214.2 -48.25 -262.3 -95.85 -290.85 -124.05 -328.05 -138.6 -350.2 -147.3 -373.8 -151.2 L-375.25 -148.6 Q-308.55 -106.2 -268.6 -36.95 L-211.3 34.35 -212.5 36.35 -200.2 48.8 -186.65 39.55 Q-172.35 65.65 -146.05 77.95 L-138.5 81.3 Q-140.3 53.55 -161.05 37.2 -166.45 32.95 -172.65 29.9 L-163.8 23.8" fill="#ffffff" fill-opacity="0.14901961" fill-rule="evenodd" stroke="none"/>
    <path d="M-309.05 -302.55 Q-320.2 -289.0 -334.15 -264.25 -362.0 -214.8 -375.85 -158.7 -395.2 -80.25 -383.7 0.15 -369.4 100.65 -307.4 198.45 L-361.3 224.0 Q-371.25 202.25 -382.9 166.85 -406.2 96.0 -414.55 27.7 -426.3 -67.95 -406.5 -144.95 -381.8 -241.15 -309.05 -302.55" fill="url(#gradient0)" fill-rule="evenodd" stroke="none"/>
    <path d="M-307.4 198.45 L-361.3 224.0 Q-371.25 202.25 -382.9 166.85 -406.2 96.0 -414.55 27.7 -426.3 -67.95 -406.5 -144.95 -381.8 -241.15 -309.05 -302.55" fill="none" stroke="#ffffff" stroke-linecap="round" stroke-linejoin="round" stroke-width="2.0"/>
    <path d="M-307.4 198.45 L-361.3 224.0 Q-371.25 202.25 -382.9 166.85 -406.2 96.0 -414.55 27.7 -426.3 -67.95 -406.5 -144.95 -381.8 -241.15 -309.05 -302.55" fill="none" stroke="#ffffff" stroke-linecap="round" stroke-linejoin="round" stroke-width="2.0"/>
    <path d="M-307.4 198.45 L-361.3 224.0 Q-371.25 202.25 -382.9 166.85 -406.2 96.0 -414.55 27.7 -426.3 -67.95 -406.5 -144.95 -381.8 -241.15 -309.05 -302.55" fill="none" stroke="#ffffff" stroke-linecap="round" stroke-linejoin="round" stroke-width="2.0"/>
    <path d="M-180.05 -360.45 Q-197.0 -358.75 -221.65 -350.7 -270.85 -334.55 -309.05 -302.55" fill="none" stroke="#ffffff" stroke-linecap="round" stroke-linejoin="round" stroke-width="2.0"/>
  </g>
  <defs>
    <linearGradient gradientTransform="matrix(0.0657, 0.0178, -0.084, 0.3099, -360.2, -38.05)" gradientUnits="userSpaceOnUse" id="gradient0" spreadMethod="pad" x1="-819.2" x2="819.2">
      <stop offset="0.0" stop-color="#ffffff" stop-opacity="0.0"/>
      <stop offset="0.7686274509803922" stop-color="#ffffff" stop-opacity="0.7529412"/>
    </linearGradient>
  </defs>
</svg>
