<?xml version="1.0" encoding="UTF-8" standalone="no"?>
<svg xmlns:ffdec="https://www.free-decompiler.com/flash" xmlns:xlink="http://www.w3.org/1999/xlink" ffdec:objectType="shape" height="468.85px" width="366.85px" xmlns="http://www.w3.org/2000/svg">
  <g transform="matrix(1.0, 0.0, 0.0, 1.0, 407.8, 101.3)">
    <path d="M-321.85 -11.65 Q-310.35 -1.35 -300.7 4.9 -296.35 7.65 -292.35 9.65 L-290.05 10.75 Q-276.55 16.9 -269.15 22.5 -261.7 28.15 -211.5 91.85 -161.3 155.45 -128.9 161.6 -96.45 167.75 -67.2 158.95 -94.25 192.8 -157.6 261.15 -198.75 305.35 -236.4 344.5 -238.15 343.0 -248.05 339.85 L-272.1 332.0 Q-286.2 327.3 -313.05 295.1 -339.85 262.9 -355.0 233.9 -370.15 204.9 -393.15 155.0 -416.2 105.1 -403.0 6.55 -397.6 -33.9 -365.7 -101.3 -370.75 -58.05 -328.9 -37.45 L-326.35 -15.7 -321.85 -11.65" fill="url(#gradient0)" fill-rule="evenodd" stroke="none"/>
    <path d="M-89.0 193.45 Q-93.6 193.7 -97.2 190.6 -100.0 188.25 -102.35 185.4 L-108.85 189.9 -108.4 191.4 Q-153.3 231.05 -199.0 269.6 -226.15 292.5 -245.0 325.15 -256.3 344.5 -264.3 365.85 L-262.65 367.55 Q-216.75 311.1 -154.3 288.55 L-91.5 238.75 -90.35 240.1 -78.45 230.3 -82.3 216.6 Q-59.9 206.65 -45.05 183.85 L-40.95 177.3 Q-61.85 175.4 -78.5 192.55 -82.8 197.05 -86.4 202.45 L-89.0 193.45" fill="#ffffff" fill-opacity="0.7019608" fill-rule="evenodd" stroke="none"/>
    <path d="M-101.35 171.0 Q-106.25 169.65 -108.95 165.6 -111.05 162.5 -112.5 159.15 L-120.9 160.9 -120.95 162.45 Q-181.85 182.55 -243.2 201.3 -279.6 212.55 -310.8 235.4 -329.4 248.95 -345.4 265.45 L-344.2 267.5 Q-276.35 232.6 -203.4 224.05 L-119.95 211.05 -119.2 212.7 -103.3 208.0 -102.5 194.25 Q-75.55 193.15 -52.0 177.75 -48.7 175.55 -45.35 173.2 -66.6 164.25 -90.05 173.9 -96.2 176.45 -101.8 180.05 L-101.35 171.0" fill="#ffffff" fill-opacity="0.24705882" fill-rule="evenodd" stroke="none"/>
    <path d="M-100.0 132.25 Q-103.4 128.7 -104.6 124.4 -105.75 119.55 -105.25 114.9 L-114.0 111.7 -114.75 113.1 Q-183.35 91.75 -253.4 76.85 -289.05 69.2 -324.55 71.75 -349.5 73.55 -373.25 79.5 L-373.15 82.05 Q-293.35 89.05 -222.95 123.95 L-135.5 158.45 -135.5 160.4 -118.3 165.2 -111.5 152.95 Q-85.4 167.35 -56.3 166.7 L-47.95 166.3 Q-64.55 146.3 -90.65 141.5 -97.6 140.25 -104.45 140.3 L-100.0 132.25" fill="#ffffff" fill-opacity="0.14901961" fill-rule="evenodd" stroke="none"/>
  </g>
  <defs>
    <linearGradient gradientTransform="matrix(-0.0052, 0.1575, -0.2284, -0.0085, -283.3, 100.85)" gradientUnits="userSpaceOnUse" id="gradient0" spreadMethod="pad" x1="-819.2" x2="819.2">
      <stop offset="0.0" stop-color="#ffffff" stop-opacity="0.0"/>
      <stop offset="0.35294117647058826" stop-color="#ffffff" stop-opacity="0.2"/>
      <stop offset="0.6745098039215687" stop-color="#ffffff" stop-opacity="0.5019608"/>
    </linearGradient>
  </defs>
</svg>
