<?xml version="1.0" encoding="UTF-8" standalone="no"?>
<svg xmlns:ffdec="https://www.free-decompiler.com/flash" xmlns:xlink="http://www.w3.org/1999/xlink" ffdec:objectType="shape" height="317.75px" width="456.0px" xmlns="http://www.w3.org/2000/svg">
  <g transform="matrix(1.0, 0.0, 0.0, 1.0, 356.15, -98.35)">
    <path d="M10.8 203.6 Q22.1 223.2 42.65 264.4 66.2 311.6 73.6 325.3 89.4 354.8 97.55 362.05 88.2 374.65 85.1 376.3 L82.35 376.25 Q81.65 375.85 79.85 373.7 75.45 368.55 69.55 367.0 59.75 364.3 42.4 368.95 -37.0 389.95 -78.9 389.8 -120.95 389.6 -129.05 388.7 -161.15 384.9 -211.0 367.45 -260.9 349.95 -302.0 302.3 -343.1 254.55 -356.15 223.1 -320.4 221.9 -277.7 216.85 -254.6 214.2 -241.35 208.65 -228.25 203.15 -218.75 204.7 -209.25 206.3 -142.85 208.9 -76.4 211.4 -46.9 190.35 -17.45 169.25 -15.85 166.95 -5.9 174.3 10.8 203.6" fill="url(#gradient0)" fill-rule="evenodd" stroke="none"/>
    <path d="M-237.7 190.95 L-237.55 188.5 -230.5 189.4 -237.7 190.95 M-263.8 196.1 L-263.8 196.05 -263.75 196.05 -263.8 196.1" fill="url(#gradient1)" fill-rule="evenodd" stroke="none"/>
    <path d="M-47.5 415.4 L-49.35 416.1 Q-72.25 392.55 -79.25 360.45 -82.0 347.8 -81.15 334.95 -79.3 307.45 -77.9 279.9 -75.85 241.65 -81.25 203.75 L-82.75 203.25 -82.45 196.25 -67.3 190.0 -58.2 192.9 -57.45 159.0 -60.95 156.0 -60.45 149.8 -57.8 148.45 Q-58.45 146.1 -57.55 143.75 L-57.05 142.8 -55.5 141.1 Q-53.9 139.65 -51.85 139.05 L-49.25 138.75 -46.6 139.1 -44.0 140.35 -42.1 141.95 Q-41.45 142.7 -40.95 143.7 -40.55 144.7 -40.4 145.85 -40.2 147.8 -40.8 149.75 L-39.45 151.5 -38.9 152.5 -38.45 153.4 -38.2 154.25 -38.25 155.1 -38.5 156.5 -38.85 157.95 -39.5 159.95 -42.15 160.3 -44.5 197.4 -30.95 202.3 -31.95 216.25 -33.5 216.25 -34.85 228.75 Q-39.65 272.2 -42.6 315.8 -46.05 365.55 -47.5 415.4" fill="#ffffff" fill-opacity="0.24705882" fill-rule="evenodd" stroke="none"/>
    <path d="M-104.15 184.2 L-110.55 178.8 Q-113.25 180.35 -116.3 180.5 L-122.4 180.0 -126.55 179.05 -130.6 185.35 -129.5 186.3 -137.35 203.3 Q-148.95 228.7 -163.75 252.15 -204.1 316.0 -197.2 386.25 L-194.9 386.75 Q-177.35 324.0 -129.1 278.75 L-92.8 213.3 -91.05 213.75 -84.35 201.05 -94.05 192.75 Q-75.1 172.25 -72.95 144.75 -76.85 146.15 -80.4 148.15 -100.2 160.85 -104.15 184.2" fill="#ffffff" fill-opacity="0.14901961" fill-rule="evenodd" stroke="none"/>
    <path d="M-22.45 151.65 L-31.8 153.25 Q-32.1 155.7 -33.3 157.9 -35.05 161.0 -37.75 163.2 -40.05 165.2 -42.5 166.65 L-39.6 174.45 -38.05 174.2 Q-20.05 208.3 -5.55 243.9 26.45 322.5 97.85 369.25 L99.85 367.7 Q55.15 309.55 46.65 238.1 L11.85 162.4 13.5 161.3 6.5 146.9 -7.75 149.2 Q-13.5 119.25 -36.95 98.35 -38.2 102.7 -38.6 106.85 -40.8 132.35 -22.45 151.65" fill="#ffffff" fill-opacity="0.7019608" fill-rule="evenodd" stroke="none"/>
  </g>
  <defs>
    <linearGradient gradientTransform="matrix(0.3175, 0.0211, -0.0083, 0.1258, -97.7, 265.0)" gradientUnits="userSpaceOnUse" id="gradient0" spreadMethod="pad" x1="-819.2" x2="819.2">
      <stop offset="0.0" stop-color="#ffffff" stop-opacity="0.0"/>
      <stop offset="0.35294117647058826" stop-color="#ffffff" stop-opacity="0.2"/>
      <stop offset="0.6745098039215687" stop-color="#ffffff" stop-opacity="0.5019608"/>
    </linearGradient>
    <linearGradient gradientTransform="matrix(0.0518, 0.0034, -0.001, 0.0155, -272.85, 185.35)" gradientUnits="userSpaceOnUse" id="gradient1" spreadMethod="pad" x1="-819.2" x2="819.2">
      <stop offset="0.0" stop-color="#ffffff" stop-opacity="0.0"/>
      <stop offset="0.35294117647058826" stop-color="#ffffff" stop-opacity="0.2"/>
      <stop offset="0.6745098039215687" stop-color="#ffffff" stop-opacity="0.5019608"/>
    </linearGradient>
  </defs>
</svg>
