<?xml version="1.0" encoding="UTF-8" standalone="no"?>
<svg xmlns:ffdec="https://www.free-decompiler.com/flash" xmlns:xlink="http://www.w3.org/1999/xlink" ffdec:objectType="shape" height="495.45px" width="411.75px" xmlns="http://www.w3.org/2000/svg">
  <g transform="matrix(1.0, 0.0, 0.0, 1.0, 410.5, 261.2)">
    <path d="M-362.05 -162.25 Q-340.1 -192.85 -329.6 -199.95 -319.1 -207.05 -305.65 -214.15 -292.25 -221.25 -268.25 -231.4 -244.3 -241.55 -200.85 -252.85 -157.45 -264.2 -101.5 -260.1 -45.55 -256.05 -19.3 -245.0 -9.75 -240.95 -3.7 -236.85 1.6 -233.15 1.2 -231.65 0.85 -230.15 -41.1 -213.45 -86.35 -195.55 -94.25 -190.55 -116.9 -176.35 -146.65 -144.35 -176.4 -112.35 -192.65 -64.5 -200.3 -41.7 -203.65 -16.75 -206.75 5.95 -205.25 21.05 -203.05 41.55 -194.2 69.65 -185.9 95.9 -170.05 134.05 L-342.9 227.15 Q-410.65 110.7 -410.5 20.5 -410.4 -69.7 -403.95 -80.35 -397.55 -91.05 -397.3 -91.7 -393.6 -101.55 -389.15 -110.9 -384.0 -131.7 -362.05 -162.25" fill="url(#gradient0)" fill-rule="evenodd" stroke="none"/>
    <path d="M-182.75 93.75 L-184.85 86.25 Q-190.2 86.3 -194.05 82.35 L-195.25 80.95 -196.5 79.65 -202.35 83.8 -201.95 84.75 Q-291.6 137.1 -343.2 232.55 L-341.7 234.25 Q-267.65 173.85 -187.95 124.3 L-186.95 125.4 -176.25 117.05 -179.4 105.6 -149.95 86.4 Q-145.3 86.6 -143.2 81.7 L-142.85 80.75 -142.65 79.7 Q-136.5 72.95 -142.5 68.05 -143.4 67.35 -144.55 67.1 -146.45 66.45 -148.5 66.1 L-149.65 67.55 Q-154.05 65.95 -156.95 70.2 L-157.4 71.1 -157.8 72.1 -182.75 93.75" fill="#ffffff" fill-opacity="0.7019608" fill-rule="evenodd" stroke="none"/>
    <path d="M-201.95 52.7 Q-205.9 52.55 -209.1 50.65 -211.6 49.15 -213.7 47.25 L-219.85 49.9 -219.55 50.65 Q-269.25 75.55 -317.65 101.95 -352.2 120.8 -369.95 150.6 L-368.5 151.95 Q-290.2 111.95 -206.45 80.3 L-205.4 81.2 -194.1 75.65 -196.95 67.15 -165.95 54.75 -163.0 54.65 Q-158.9 53.75 -158.15 50.3 -152.55 47.5 -154.5 43.45 -155.3 41.9 -157.3 41.3 -159.6 40.5 -161.8 40.05 L-163.8 40.05 -165.05 41.0 Q-166.65 40.3 -168.35 40.5 -172.2 40.8 -173.55 43.85 L-200.0 58.3 -201.95 52.7" fill="#ffffff" fill-opacity="0.24705882" fill-rule="evenodd" stroke="none"/>
    <path d="M-205.2 13.6 Q-208.45 12.05 -210.45 9.35 -212.75 6.4 -213.9 3.1 L-220.7 3.6 -220.7 4.55 Q-280.65 6.05 -336.45 22.45 -371.65 32.85 -400.05 53.75 L-399.2 55.75 Q-310.65 43.15 -220.3 41.6 L-219.7 43.0 -207.0 41.4 -206.3 31.05 -172.55 29.8 Q-171.2 30.65 -169.6 30.85 -165.6 31.1 -163.6 28.05 -158.75 27.05 -158.15 22.9 -157.85 21.2 -158.9 19.85 L-159.45 18.95 Q-160.3 18.05 -161.25 17.3 -162.95 15.95 -164.7 14.85 L-166.3 15.35 -168.1 14.05 Q-171.75 12.4 -174.7 14.5 L-175.35 15.1 -205.6 20.4 -205.2 13.6" fill="#ffffff" fill-opacity="0.14901961" fill-rule="evenodd" stroke="none"/>
  </g>
  <defs>
    <linearGradient gradientTransform="matrix(-0.1182, 0.0511, -0.0745, -0.1725, -433.35, -491.5)" gradientUnits="userSpaceOnUse" id="gradient0" spreadMethod="pad" x1="-819.2" x2="819.2">
      <stop offset="0.0" stop-color="#ffffff" stop-opacity="0.0"/>
      <stop offset="0.35294117647058826" stop-color="#ffffff" stop-opacity="0.2"/>
      <stop offset="0.6745098039215687" stop-color="#ffffff" stop-opacity="0.5019608"/>
    </linearGradient>
  </defs>
</svg>
