<?xml version="1.0" encoding="UTF-8" standalone="no"?>
<svg xmlns:ffdec="https://www.free-decompiler.com/flash" xmlns:xlink="http://www.w3.org/1999/xlink" ffdec:objectType="shape" height="335.75px" width="297.95px" xmlns="http://www.w3.org/2000/svg">
  <g transform="matrix(1.0, 0.0, 0.0, 1.0, 405.1, -5.65)">
    <path d="M-347.8 61.15 L-343.4 63.2 Q-332.2 68.45 -323.3 71.1 L-315.7 72.8 -313.7 73.15 Q-301.7 74.85 -294.75 77.5 -287.7 80.15 -235.15 116.95 -182.55 153.8 -155.6 151.45 -128.6 149.15 -107.15 136.35 -121.85 167.35 -158.45 231.85 -182.3 273.6 -204.35 310.8 -206.05 310.05 -214.55 309.8 L-235.2 309.1 Q-247.35 308.55 -275.1 290.25 -302.8 271.9 -320.6 253.5 -338.45 235.05 -366.7 202.75 -394.95 170.4 -404.2 94.05 -407.95 62.7 -396.15 5.65 -391.5 39.0 -354.2 45.45 L-347.8 61.15" fill="url(#gradient0)" fill-rule="evenodd" stroke="none"/>
    <path d="M-158.35 152.7 L-163.85 148.4 Q-167.85 151.35 -172.85 150.55 L-174.5 150.25 -176.1 149.95 -178.4 156.15 -177.6 156.65 Q-218.65 243.5 -208.25 340.95 L-206.2 341.4 Q-181.3 257.15 -146.4 177.75 L-145.05 178.05 -141.25 166.15 -149.65 159.5 -137.2 129.5 Q-133.55 127.15 -134.5 122.45 L-134.7 121.6 -135.1 120.65 Q-134.0 112.45 -141.05 112.1 L-143.15 112.5 Q-144.9 113.1 -146.6 113.95 L-146.8 115.6 Q-150.95 116.9 -150.9 121.55 L-150.8 122.45 -150.6 123.35 -158.35 152.7" fill="#ffffff" fill-opacity="0.7019608" fill-rule="evenodd" stroke="none"/>
    <path d="M-219.55 126.3 Q-219.5 129.3 -218.25 131.7 -217.05 134.4 -215.25 136.3 L-217.45 141.55 -218.05 141.25 Q-235.4 187.95 -261.05 226.85 -277.3 251.5 -298.35 267.5 L-299.4 266.2 Q-267.2 200.3 -241.5 129.7 L-242.15 128.8 -237.75 119.3 -230.95 121.85 -220.95 95.7 Q-221.1 94.35 -220.8 93.05 -219.85 89.8 -217.35 89.2 -215.45 85.7 -212.6 86.4 -211.45 86.7 -210.85 87.95 L-210.5 88.7 Q-210.1 89.6 -209.85 90.6 L-209.25 94.05 -210.05 95.1 -209.65 96.95 Q-209.6 100.3 -211.8 102.0 L-212.35 102.35 -223.95 124.6 -219.55 126.3" fill="#ffffff" fill-opacity="0.24705882" fill-rule="evenodd" stroke="none"/>
    <path d="M-265.7 84.75 Q-266.9 87.15 -266.85 89.6 -266.85 92.25 -266.15 94.6 L-270.0 97.55 -270.4 97.05 Q-303.2 124.85 -339.95 142.6 -363.2 153.75 -387.1 156.0 L-387.5 154.5 Q-334.65 119.1 -285.4 76.85 L-285.65 75.8 -278.15 70.6 -273.55 75.85 -254.85 60.4 Q-254.5 59.25 -253.7 58.45 -251.65 56.4 -249.3 57.15 -246.3 55.35 -244.25 57.25 -243.4 58.05 -243.4 59.25 L-243.35 60.05 -243.65 61.8 -244.45 64.8 -245.55 65.25 -246.0 66.85 Q-247.25 69.45 -249.7 69.7 L-250.3 69.7 -268.8 81.25 -265.7 84.75" fill="#ffffff" fill-opacity="0.14901961" fill-rule="evenodd" stroke="none"/>
  </g>
  <defs>
    <linearGradient gradientTransform="matrix(0.0274, 0.1186, -0.183, 0.0423, -290.3, 138.95)" gradientUnits="userSpaceOnUse" id="gradient0" spreadMethod="pad" x1="-819.2" x2="819.2">
      <stop offset="0.0" stop-color="#ffffff" stop-opacity="0.0"/>
      <stop offset="0.35294117647058826" stop-color="#ffffff" stop-opacity="0.2"/>
      <stop offset="0.6745098039215687" stop-color="#ffffff" stop-opacity="0.5019608"/>
    </linearGradient>
  </defs>
</svg>
