<?xml version="1.0" encoding="UTF-8" standalone="no"?>
<svg xmlns:ffdec="https://www.free-decompiler.com/flash" xmlns:xlink="http://www.w3.org/1999/xlink" ffdec:objectType="shape" height="239.9px" width="467.05px" xmlns="http://www.w3.org/2000/svg">
  <g transform="matrix(1.0, 0.0, 0.0, 1.0, 270.65, -119.65)">
    <path d="M89.05 199.65 Q130.75 224.4 185.75 262.05 133.05 302.95 68.35 326.65 3.6 350.35 -29.45 353.95 L-75.4 359.2 Q-88.3 360.85 -155.75 354.3 -223.2 347.7 -245.45 299.65 -267.7 251.55 -270.65 218.95 -241.0 215.75 -205.85 208.65 -186.8 204.85 -176.1 199.05 -165.5 193.3 -157.55 194.15 -149.6 195.0 -94.3 193.35 -39.0 191.65 -15.65 170.9 7.65 150.1 8.85 147.9 47.3 174.85 89.05 199.65" fill="url(#gradient0)" fill-rule="evenodd" stroke="none"/>
    <path d="M-174.05 182.85 L-174.05 180.65 -168.15 181.05 -174.05 182.85 M-195.45 189.05 L-195.45 189.0 -195.4 189.0 -195.45 189.05" fill="url(#gradient1)" fill-rule="evenodd" stroke="none"/>
    <path d="M-11.5 155.6 L-17.2 161.2 Q-16.1 163.15 -15.75 165.35 -15.15 168.35 -15.8 171.35 -16.4 173.9 -17.35 176.15 L-10.65 180.4 -9.9 179.6 Q82.05 248.45 195.6 259.6 L196.4 257.3 Q104.1 207.65 18.85 147.3 L19.35 145.75 6.35 138.4 -2.45 146.8 Q-19.2 135.1 -36.55 124.3 -56.6 111.9 -53.95 132.5 L-52.05 133.1 Q-49.5 136.3 -46.45 139.05 -31.5 152.3 -11.5 155.6" fill="#ffffff" fill-opacity="0.7019608" fill-rule="evenodd" stroke="none"/>
    <path d="M-58.65 194.65 L-62.35 198.25 Q-60.65 203.55 -61.75 208.15 L-62.2 209.6 -62.55 211.1 -58.3 216.05 -57.85 215.5 Q0.9 293.7 72.75 325.45 L73.3 323.65 Q14.75 262.5 -39.25 193.65 L-38.85 192.4 -47.1 183.5 -52.85 188.95 -73.3 163.65 Q-74.6 159.0 -78.1 157.9 L-78.75 157.75 -79.5 157.75 Q-85.3 153.1 -86.35 159.95 L-86.25 162.2 -85.55 166.3 -84.35 167.15 Q-83.9 171.85 -80.5 173.85 L-79.85 174.1 -79.15 174.35 -58.65 194.65" fill="#ffffff" fill-opacity="0.24705882" fill-rule="evenodd" stroke="none"/>
    <path d="M-124.45 211.0 L-129.0 211.15 Q-130.55 214.95 -133.7 216.95 L-134.8 217.6 -135.85 218.25 -135.35 223.05 -134.75 223.0 Q-132.7 295.1 -97.0 347.75 L-95.7 347.0 Q-106.4 284.55 -109.8 219.9 L-108.9 219.4 -110.25 210.4 -117.2 210.65 -118.95 186.6 Q-117.5 183.4 -119.5 181.05 L-119.85 180.7 -120.35 180.3 Q-122.2 174.85 -126.5 178.2 L-127.6 179.55 -129.25 182.1 -128.85 183.2 Q-130.9 186.05 -129.5 188.8 L-129.15 189.25 -128.75 189.7 -124.45 211.0" fill="#ffffff" fill-opacity="0.14901961" fill-rule="evenodd" stroke="none"/>
  </g>
  <defs>
    <linearGradient gradientTransform="matrix(0.2648, 0.0, 0.0, 0.114, -53.7, 241.25)" gradientUnits="userSpaceOnUse" id="gradient0" spreadMethod="pad" x1="-819.2" x2="819.2">
      <stop offset="0.0" stop-color="#ffffff" stop-opacity="0.0"/>
      <stop offset="0.35294117647058826" stop-color="#ffffff" stop-opacity="0.2"/>
      <stop offset="0.6745098039215687" stop-color="#ffffff" stop-opacity="0.5019608"/>
    </linearGradient>
    <linearGradient gradientTransform="matrix(0.0432, 0.0, 0.0, 0.014, -203.55, 179.9)" gradientUnits="userSpaceOnUse" id="gradient1" spreadMethod="pad" x1="-819.2" x2="819.2">
      <stop offset="0.0" stop-color="#ffffff" stop-opacity="0.0"/>
      <stop offset="0.35294117647058826" stop-color="#ffffff" stop-opacity="0.2"/>
      <stop offset="0.6745098039215687" stop-color="#ffffff" stop-opacity="0.5019608"/>
    </linearGradient>
  </defs>
</svg>
