<?xml version="1.0" encoding="UTF-8" standalone="no"?>
<svg xmlns:ffdec="https://www.free-decompiler.com/flash" xmlns:xlink="http://www.w3.org/1999/xlink" ffdec:objectType="shape" height="102.75px" width="241.25px" xmlns="http://www.w3.org/2000/svg">
  <g transform="matrix(1.0, 0.0, 0.0, 1.0, -52.95, -72.25)">
    <path d="M104.05 94.25 L101.5 101.35 Q105.35 104.6 106.0 110.05 L106.1 111.85 106.3 113.7 112.7 114.15 113.0 113.15 Q205.7 128.8 294.2 87.5 L294.1 85.25 Q208.3 85.55 124.25 74.0 L124.15 72.45 111.9 72.25 108.05 83.05 76.45 79.4 Q73.25 76.35 69.1 78.85 L68.4 79.35 67.6 80.0 Q59.55 81.4 61.2 88.9 61.45 89.95 62.2 90.9 L64.45 94.15 66.1 93.8 Q68.4 97.7 72.8 96.25 L73.6 95.8 74.4 95.4 104.05 94.25" fill="#ffffff" fill-opacity="0.7019608" fill-rule="evenodd" stroke="none"/>
    <path d="M86.15 113.1 L82.25 118.0 Q84.45 122.15 83.55 126.8 L83.15 128.35 82.8 129.9 87.9 132.6 88.35 131.85 Q159.15 177.55 241.8 174.85 L242.3 172.95 Q172.8 142.85 107.95 103.55 L108.25 102.25 98.45 97.7 92.35 105.25 67.85 91.1 Q66.05 87.4 62.05 87.95 L61.3 88.2 60.5 88.45 Q53.65 86.75 52.95 93.55 52.9 94.5 53.2 95.55 53.6 97.25 54.15 98.95 L55.6 99.3 Q56.4 103.35 60.35 103.65 L61.1 103.6 61.9 103.5 86.15 113.1" fill="#ffffff" fill-opacity="0.24705882" fill-rule="evenodd" stroke="none"/>
  </g>
</svg>
