<?xml version="1.0" encoding="UTF-8" standalone="no"?>
<svg xmlns:ffdec="https://www.free-decompiler.com/flash" xmlns:xlink="http://www.w3.org/1999/xlink" ffdec:objectType="shape" height="279.7px" width="237.6px" xmlns="http://www.w3.org/2000/svg">
  <g transform="matrix(1.0, 0.0, 0.0, 1.0, -45.05, -8.35)">
    <path d="M92.65 105.2 Q96.4 106.4 98.9 109.75 100.9 112.4 102.4 115.6 L109.0 113.35 108.85 112.25 Q162.45 89.8 215.2 65.1 252.8 47.45 277.3 10.5 L276.2 8.35 Q191.6 44.6 103.9 68.1 L103.15 66.6 90.95 71.45 91.5 84.0 58.95 93.55 Q57.65 92.8 56.1 93.0 51.9 93.3 50.4 97.85 44.3 100.35 45.15 106.45 45.55 108.75 47.25 110.1 49.25 111.75 51.25 112.9 L53.1 113.4 54.55 112.35 Q55.9 113.8 57.55 113.85 61.35 114.4 63.4 110.5 L92.2 96.95 92.65 105.2" fill="#ffffff" fill-opacity="0.29803923" fill-rule="evenodd" stroke="none"/>
    <path d="M281.4 14.85 Q282.0 26.8 281.05 45.95 279.15 84.25 271.55 120.45 260.9 171.05 240.3 210.2 214.55 259.05 174.65 287.05" fill="none" stroke="#ffffff" stroke-linecap="round" stroke-linejoin="round" stroke-width="2.0"/>
  </g>
</svg>
