<?xml version="1.0" encoding="UTF-8" standalone="no"?>
<svg xmlns:ffdec="https://www.free-decompiler.com/flash" xmlns:xlink="http://www.w3.org/1999/xlink" ffdec:objectType="shape" height="109.8px" width="151.0px" xmlns="http://www.w3.org/2000/svg">
  <g transform="matrix(1.0, 0.0, 0.0, 1.0, 77.25, 45.65)">
    <path d="M73.25 18.65 Q73.25 37.3 51.25 50.45 29.3 63.65 -1.75 63.65 -32.8 63.65 -54.8 50.45 -76.75 37.3 -76.75 18.65 -76.75 0.0 -54.8 -13.2 -32.8 -26.35 -1.75 -26.35 29.3 -26.35 51.25 -13.2 73.25 0.0 73.25 18.65" fill="#ffffff" fill-rule="evenodd" stroke="none"/>
    <path d="M73.25 18.65 Q73.25 37.3 51.25 50.45 29.3 63.65 -1.75 63.65 -32.8 63.65 -54.8 50.45 -76.75 37.3 -76.75 18.65 -76.75 0.0 -54.8 -13.2 -32.8 -26.35 -1.75 -26.35 29.3 -26.35 51.25 -13.2 73.25 0.0 73.25 18.65 Z" fill="none" stroke="#000000" stroke-linecap="round" stroke-linejoin="round" stroke-width="1.0"/>
    <path d="M25.55 -45.15 Q38.25 -45.15 47.25 -37.35 56.25 -29.55 56.25 -18.55 56.25 -7.55 47.25 0.25 38.25 8.05 25.55 8.05 12.85 8.05 3.85 0.25 -5.15 -7.55 -5.15 -18.55 -5.15 -29.55 3.85 -37.35 12.85 -45.15 25.55 -45.15" fill="#ffffff" fill-rule="evenodd" stroke="none"/>
    <path d="M-58.3 -15.85 Q-58.3 -24.9 -52.7 -31.3 -47.1 -37.7 -39.2 -37.7 -31.3 -37.7 -25.7 -31.3 -20.1 -24.9 -20.1 -15.85 -20.1 -6.8 -25.7 -0.4 -31.3 6.0 -39.2 6.0 -47.1 6.0 -52.7 -0.4 -58.3 -6.8 -58.3 -15.85" fill="#ffffff" fill-rule="evenodd" stroke="none"/>
    <path d="M25.55 -45.15 Q38.25 -45.15 47.25 -37.35 56.25 -29.55 56.25 -18.55 56.25 -7.55 47.25 0.25 38.25 8.05 25.55 8.05 12.85 8.05 3.85 0.25 -5.15 -7.55 -5.15 -18.55 -5.15 -29.55 3.85 -37.35 12.85 -45.15 25.55 -45.15 M-52.7 -31.3 Q-47.1 -37.7 -39.2 -37.7 -31.3 -37.7 -25.7 -31.3 -20.1 -24.9 -20.1 -15.85 -20.1 -6.8 -25.7 -0.4 -31.3 6.0 -39.2 6.0 -47.1 6.0 -52.7 -0.4 -58.3 -6.8 -58.3 -15.85 -58.3 -24.9 -52.7 -31.3" fill="#ffffff" fill-rule="evenodd" stroke="none"/>
    <path d="M25.55 -45.15 Q38.25 -45.15 47.25 -37.35 56.25 -29.55 56.25 -18.55 56.25 -7.55 47.25 0.25 38.25 8.05 25.55 8.05 12.85 8.05 3.85 0.25 -5.15 -7.55 -5.15 -18.55 -5.15 -29.55 3.85 -37.35 12.85 -45.15 25.55 -45.15 M-52.7 -31.3 Q-47.1 -37.7 -39.2 -37.7 -31.3 -37.7 -25.7 -31.3 -20.1 -24.9 -20.1 -15.85 -20.1 -6.8 -25.7 -0.4 -31.3 6.0 -39.2 6.0 -47.1 6.0 -52.7 -0.4 -58.3 -6.8 -58.3 -15.85 -58.3 -24.9 -52.7 -31.3 Z" fill="none" stroke="#000000" stroke-linecap="round" stroke-linejoin="round" stroke-width="1.0"/>
  </g>
</svg>
