<?xml version="1.0" encoding="UTF-8" standalone="no"?>
<svg xmlns:ffdec="https://www.free-decompiler.com/flash" xmlns:xlink="http://www.w3.org/1999/xlink" ffdec:objectType="shape" height="96.3px" width="88.35px" xmlns="http://www.w3.org/2000/svg">
  <g transform="matrix(1.0, 0.0, 0.0, 1.0, 44.2, 48.15)">
    <path d="M35.45 -24.4 Q39.0 -12.85 36.95 -3.25 35.0 6.3 28.75 8.35 22.5 10.4 15.55 3.8 8.75 -2.85 5.25 -14.4 1.75 -26.0 3.75 -35.6 5.65 -45.15 11.95 -47.15 18.25 -49.2 25.15 -42.6 31.95 -36.0 35.45 -24.4 M29.15 -22.4 Q26.65 -30.85 22.35 -36.0 18.0 -41.05 14.3 -39.85 10.7 -38.55 9.9 -31.75 9.0 -24.95 11.55 -16.45 14.05 -7.95 18.4 -2.8 22.65 2.25 26.3 1.0 30.05 -0.3 30.85 -7.1 31.65 -13.95 29.15 -22.4" fill="#b8bbc0" fill-rule="evenodd" stroke="none"/>
    <path d="M35.45 -24.4 Q39.0 -12.85 36.95 -3.25 35.0 6.3 28.75 8.35 22.5 10.4 15.55 3.8 8.75 -2.85 5.25 -14.4 1.75 -26.0 3.75 -35.6 5.65 -45.15 11.95 -47.15 18.25 -49.2 25.15 -42.6 31.95 -36.0 35.45 -24.4 M29.15 -22.4 Q31.65 -13.95 30.85 -7.1 30.05 -0.3 26.3 1.0 22.65 2.25 18.4 -2.8 14.05 -7.95 11.55 -16.45 9.0 -24.95 9.9 -31.75 10.7 -38.55 14.3 -39.85 18.0 -41.05 22.35 -36.0 26.65 -30.85 29.15 -22.4 Z" fill="none" stroke="#7b8184" stroke-linecap="round" stroke-linejoin="round" stroke-width="1.0"/>
    <path d="M6.55 -45.1 Q14.3 -32.05 24.8 -4.6 30.05 9.1 33.75 20.2 L43.65 27.3 8.5 47.65 7.25 35.55 -9.95 15.4 Q-28.25 -6.6 -33.6 -15.85 L-43.7 -19.7 5.2 -47.25 6.55 -45.1" fill="#b8bbc0" fill-rule="evenodd" stroke="none"/>
    <path d="M6.55 -45.1 Q14.3 -32.05 24.8 -4.6 30.05 9.1 33.75 20.2 L43.65 27.3 8.5 47.65 7.25 35.55 -9.95 15.4 Q-28.25 -6.6 -33.6 -15.85 L-43.7 -19.7 5.2 -47.25 6.55 -45.1 Z" fill="none" stroke="#242628" stroke-linecap="round" stroke-linejoin="round" stroke-width="1.0"/>
    <path d="M6.55 -45.1 Q14.3 -32.05 24.8 -4.6 30.05 9.1 33.75 20.2 L43.65 27.3 8.5 47.65 7.25 35.55 -9.95 15.4 Q-28.25 -6.6 -33.6 -15.85 L-43.7 -19.7 5.2 -47.25 6.55 -45.1 M29.65 19.7 L29.8 19.6 25.2 5.8 22.1 -1.0 19.45 -8.3 Q12.85 -26.75 9.2 -33.55 5.6 -40.35 3.8 -43.15 L-37.1 -20.5 -30.5 -17.6 Q-21.65 -4.5 -9.9 10.5 1.75 25.45 10.6 33.3 L11.5 42.45 37.3 27.2 30.4 21.85 29.65 19.7" fill="#ffffff" fill-opacity="0.2509804" fill-rule="evenodd" stroke="none"/>
    <path d="M29.65 19.7 L29.45 19.75 6.9 -29.75 Q6.0 -31.65 4.4 -32.45 L1.5 -32.35 0.4 -31.4 0.45 -32.4 Q0.9 -34.3 2.3 -35.15 L5.25 -35.2 Q6.9 -34.45 7.75 -32.55 L22.1 -1.0 25.2 5.8 29.8 19.6 29.65 19.7 M-7.7 -27.75 Q-5.65 -27.2 -4.65 -25.4 L22.65 21.7 Q23.1 22.55 23.2 23.35 L21.35 24.4 -5.75 -22.4 Q-6.8 -24.25 -8.8 -24.75 -10.75 -25.25 -12.55 -24.3 L-13.9 -23.1 -13.75 -24.15 Q-13.2 -26.15 -11.4 -27.15 -9.7 -28.2 -7.7 -27.75 M-27.2 -16.45 Q-27.0 -18.25 -25.6 -19.0 L-22.45 -19.1 Q-20.6 -18.55 -19.4 -16.9 L12.4 27.6 13.25 29.15 11.75 30.05 -19.95 -14.3 Q-21.1 -15.95 -22.95 -16.6 L-26.15 -16.45 -27.1 -15.45 -27.2 -16.45" fill="#000000" fill-opacity="0.14901961" fill-rule="evenodd" stroke="none"/>
    <path d="M6.55 -45.1 Q14.3 -32.05 24.8 -4.6 30.05 9.1 33.75 20.2 L43.65 27.3 8.5 47.65 7.25 35.55 -9.95 15.4 Q-28.25 -6.6 -33.6 -15.85 L-43.7 -19.7 5.2 -47.25 6.55 -45.1 Z" fill="none" stroke="#7b8184" stroke-linecap="round" stroke-linejoin="round" stroke-width="1.0"/>
  </g>
</svg>
