<?xml version="1.0" encoding="UTF-8" standalone="no"?>
<svg xmlns:ffdec="https://www.free-decompiler.com/flash" xmlns:xlink="http://www.w3.org/1999/xlink" ffdec:objectType="shape" height="142.8px" width="207.65px" xmlns="http://www.w3.org/2000/svg">
  <g transform="matrix(1.0, 0.0, 0.0, 1.0, 170.4, 90.45)">
    <path d="M10.95 -12.8 Q17.75 -5.95 25.45 -2.0 33.1 2.0 35.6 9.05 38.0 15.6 35.45 23.2 32.85 30.7 26.2 37.0 19.15 43.7 9.4 46.95 -10.05 53.55 -32.15 51.25 -53.05 49.1 -80.6 38.35 -105.35 28.65 -121.95 17.5 -135.25 8.6 -148.35 -5.0 -161.5 -18.65 -166.8 -34.6 -172.45 -51.45 -167.8 -66.65 -163.85 -79.3 -155.1 -85.25 -147.3 -90.5 -136.55 -89.9 -126.8 -89.35 -116.55 -84.2 -106.75 -79.25 -99.45 -71.65 -95.45 -67.45 -97.3 -63.8 -99.35 -59.9 -107.75 -57.55 -121.0 -66.4 -130.25 -66.85 -138.2 -67.2 -142.0 -61.45 -145.35 -56.35 -144.4 -48.35 -143.45 -40.5 -138.9 -34.4 -126.3 -17.4 -109.6 -7.5 -96.75 0.15 -71.1 8.85 -34.75 21.05 -14.05 8.95 -5.55 3.95 -1.25 -4.55 2.7 -12.4 2.15 -21.35 L10.95 -12.8" fill="#990099" fill-opacity="0.4" fill-rule="evenodd" stroke="none"/>
    <path d="M10.95 -12.8 L2.15 -21.35 Q2.7 -12.4 -1.25 -4.55 -5.55 3.95 -14.05 8.95 -34.75 21.05 -71.1 8.85 -96.75 0.15 -109.6 -7.5 -126.3 -17.4 -138.9 -34.4 -143.45 -40.5 -144.4 -48.35 -145.35 -56.35 -142.0 -61.45 -138.2 -67.2 -130.25 -66.85 -121.0 -66.4 -107.75 -57.55 -99.35 -59.9 -97.3 -63.8 -95.45 -67.45 -99.45 -71.65 -106.75 -79.25 -116.55 -84.2 -126.8 -89.35 -136.55 -89.9 -147.3 -90.5 -155.1 -85.25 -163.85 -79.3 -167.8 -66.65 -172.45 -51.45 -166.8 -34.6 -161.5 -18.65 -148.35 -5.0 -135.25 8.6 -121.95 17.5 -105.35 28.65 -80.6 38.35 -53.05 49.1 -32.15 51.25 -10.05 53.55 9.4 46.95 19.15 43.7 26.2 37.0 32.85 30.7 35.45 23.2 38.0 15.6 35.6 9.05 33.1 2.0 25.45 -2.0 17.75 -5.95 10.95 -12.8 Z" fill="none" stroke="#990066" stroke-linecap="round" stroke-linejoin="round" stroke-opacity="0.69411767" stroke-width="1.0"/>
  </g>
</svg>
