<?xml version="1.0" encoding="UTF-8" standalone="no"?>
<svg xmlns:ffdec="https://www.free-decompiler.com/flash" xmlns:xlink="http://www.w3.org/1999/xlink" ffdec:objectType="shape" height="134.9px" width="180.6px" xmlns="http://www.w3.org/2000/svg">
  <g transform="matrix(1.0, 0.0, 0.0, 1.0, 172.0, 98.75)">
    <path d="M-167.7 -76.0 Q-161.95 -89.0 -151.85 -94.55 -142.8 -99.45 -131.55 -97.85 -121.25 -96.4 -111.45 -89.9 -101.85 -83.5 -96.0 -74.45 -92.8 -69.5 -97.2 -61.85 -101.75 -53.85 -110.15 -51.5 -117.6 -59.6 -125.05 -61.45 -132.25 -63.3 -138.3 -59.05 -151.3 -49.9 -153.4 -20.2 -165.15 -29.7 -169.55 -44.85 -174.25 -61.15 -167.7 -76.0" fill="#990099" fill-opacity="0.4" fill-rule="evenodd" stroke="none"/>
    <path d="M-167.7 -76.0 Q-161.95 -89.0 -151.85 -94.55 -142.8 -99.45 -131.55 -97.85 -121.25 -96.4 -111.45 -89.9 -101.85 -83.5 -96.0 -74.45 -92.8 -69.5 -97.2 -61.85 -101.75 -53.85 -110.15 -51.5 -117.6 -59.6 -125.05 -61.45 -132.25 -63.3 -138.3 -59.05 -151.3 -49.9 -153.4 -20.2 -165.15 -29.7 -169.55 -44.85 -174.25 -61.15 -167.7 -76.0 Z" fill="none" stroke="#990066" stroke-linecap="round" stroke-linejoin="round" stroke-opacity="0.69411767" stroke-width="1.0"/>
    <path d="M-22.7 4.65 Q-17.15 1.3 -7.95 -0.65 L7.25 -3.2 Q8.9 -8.75 7.4 -14.5 6.0 -20.0 2.0 -25.0 -18.55 -25.05 -31.05 -21.25 -47.05 -16.4 -53.7 -4.6 -60.95 8.3 -52.45 20.25 -44.95 30.75 -29.65 35.65 -37.75 13.75 -22.7 4.65" fill="#990099" fill-opacity="0.4" fill-rule="evenodd" stroke="none"/>
    <path d="M-22.7 4.65 Q-37.75 13.75 -29.65 35.65 -44.95 30.75 -52.45 20.25 -60.95 8.3 -53.7 -4.6 -47.05 -16.4 -31.05 -21.25 -18.55 -25.05 2.0 -25.0 6.0 -20.0 7.4 -14.5 8.9 -8.75 7.25 -3.2 L-7.95 -0.65 Q-17.15 1.3 -22.7 4.65 Z" fill="none" stroke="#990066" stroke-linecap="round" stroke-linejoin="round" stroke-opacity="0.69411767" stroke-width="1.0"/>
  </g>
</svg>
