<?xml version="1.0" encoding="UTF-8" standalone="no"?>
<svg xmlns:ffdec="https://www.free-decompiler.com/flash" xmlns:xlink="http://www.w3.org/1999/xlink" ffdec:objectType="shape" height="132.2px" width="196.65px" xmlns="http://www.w3.org/2000/svg">
  <g transform="matrix(1.0, 0.0, 0.0, 1.0, 168.45, 94.5)">
    <path d="M12.65 -27.05 Q16.65 -23.9 20.1 -18.6 24.25 -12.45 26.2 -5.35 29.1 5.25 26.3 12.8 23.75 19.6 16.3 24.25 -3.0 36.2 -30.0 37.15 -59.35 38.15 -89.75 25.55 -115.2 14.95 -134.0 -1.2 -150.1 -15.1 -159.35 -31.25 -168.9 -47.9 -167.85 -64.1 -166.85 -79.85 -156.35 -88.1 -149.55 -93.45 -140.05 -93.95 -131.15 -94.45 -121.65 -90.6 -112.3 -86.85 -104.6 -79.85 -96.65 -72.6 -92.45 -63.55 -90.15 -58.55 -93.95 -53.9 -97.7 -49.35 -102.85 -50.1 -115.95 -65.1 -129.8 -70.1 -136.5 -72.5 -140.8 -71.05 -145.5 -69.5 -146.6 -63.55 -149.7 -46.4 -128.1 -26.5 -110.1 -9.85 -89.1 -2.0 -50.4 12.5 -19.7 2.95 -6.45 -1.15 2.15 -9.2 10.6 -17.15 12.65 -27.05" fill="#990099" fill-opacity="0.4" fill-rule="evenodd" stroke="none"/>
    <path d="M12.65 -27.05 Q16.65 -23.9 20.1 -18.6 24.25 -12.45 26.2 -5.35 29.1 5.25 26.3 12.8 23.75 19.6 16.3 24.25 -3.0 36.2 -30.0 37.15 -59.35 38.15 -89.75 25.55 -115.2 14.95 -134.0 -1.2 -150.1 -15.1 -159.35 -31.25 -168.9 -47.9 -167.85 -64.1 -166.85 -79.85 -156.35 -88.1 -149.55 -93.45 -140.05 -93.95 -131.15 -94.45 -121.65 -90.6 -112.3 -86.85 -104.6 -79.85 -96.65 -72.6 -92.45 -63.55 -90.15 -58.55 -93.95 -53.9 -97.7 -49.35 -102.85 -50.1 -115.95 -65.1 -129.8 -70.1 -136.5 -72.5 -140.8 -71.05 -145.5 -69.5 -146.6 -63.55 -149.7 -46.4 -128.1 -26.5 -110.1 -9.85 -89.1 -2.0 -50.4 12.5 -19.7 2.95 -6.45 -1.15 2.15 -9.2 10.6 -17.15 12.65 -27.05 Z" fill="none" stroke="#990066" stroke-linecap="round" stroke-linejoin="round" stroke-opacity="0.69411767" stroke-width="1.0"/>
  </g>
</svg>
