<?xml version="1.0" encoding="UTF-8" standalone="no"?>
<svg xmlns:ffdec="https://www.free-decompiler.com/flash" xmlns:xlink="http://www.w3.org/1999/xlink" ffdec:objectType="shape" height="133.85px" width="194.75px" xmlns="http://www.w3.org/2000/svg">
  <g transform="matrix(1.0, 0.0, 0.0, 1.0, 175.35, 99.85)">
    <path d="M-166.55 -86.25 Q-157.5 -95.8 -145.5 -98.4 -134.75 -100.75 -123.1 -97.2 -112.3 -93.9 -103.3 -86.35 -94.4 -78.85 -90.1 -69.55 -87.55 -64.0 -91.05 -57.0 -94.9 -49.4 -103.1 -47.1 -111.15 -56.3 -120.5 -59.4 -129.35 -62.4 -137.65 -59.4 -145.9 -56.45 -151.55 -48.35 -157.5 -39.9 -159.25 -27.65 -173.9 -37.4 -174.8 -56.45 -175.55 -73.15 -166.55 -86.25" fill="#990099" fill-opacity="0.4" fill-rule="evenodd" stroke="none"/>
    <path d="M-166.55 -86.25 Q-157.5 -95.8 -145.5 -98.4 -134.75 -100.75 -123.1 -97.2 -112.3 -93.9 -103.3 -86.35 -94.4 -78.85 -90.1 -69.55 -87.55 -64.0 -91.05 -57.0 -94.9 -49.4 -103.1 -47.1 -111.15 -56.3 -120.5 -59.4 -129.35 -62.4 -137.65 -59.4 -145.9 -56.45 -151.55 -48.35 -157.5 -39.9 -159.25 -27.65 -173.9 -37.4 -174.8 -56.45 -175.55 -73.15 -166.55 -86.25 Z" fill="none" stroke="#990066" stroke-linecap="round" stroke-linejoin="round" stroke-opacity="0.69411767" stroke-width="1.0"/>
    <path d="M-53.95 13.2 Q-52.6 24.7 -43.55 33.5 -37.85 7.85 -18.15 -0.65 -5.5 -6.0 18.05 -5.05 19.7 -10.6 18.15 -16.65 16.65 -22.4 12.7 -27.4 -7.35 -29.65 -22.35 -25.7 -39.35 -21.15 -47.85 -9.0 -55.25 1.5 -53.95 13.2" fill="#990099" fill-opacity="0.4" fill-rule="evenodd" stroke="none"/>
    <path d="M-53.95 13.2 Q-52.6 24.7 -43.55 33.5 -37.85 7.85 -18.15 -0.65 -5.5 -6.0 18.05 -5.05 19.7 -10.6 18.15 -16.65 16.65 -22.4 12.7 -27.4 -7.35 -29.65 -22.35 -25.7 -39.35 -21.15 -47.85 -9.0 -55.25 1.5 -53.95 13.2 Z" fill="none" stroke="#990066" stroke-linecap="round" stroke-linejoin="round" stroke-opacity="0.69411767" stroke-width="1.0"/>
  </g>
</svg>
