<?xml version="1.0" encoding="UTF-8" standalone="no"?>
<svg xmlns:ffdec="https://www.free-decompiler.com/flash" xmlns:xlink="http://www.w3.org/1999/xlink" ffdec:objectType="shape" height="120.95px" width="203.25px" xmlns="http://www.w3.org/2000/svg">
  <g transform="matrix(1.0, 0.0, 0.0, 1.0, 175.5, 94.2)">
    <path d="M21.7 -25.95 Q25.2 -21.5 26.5 -15.35 27.95 -8.95 26.6 -2.2 25.1 5.5 20.85 11.2 15.5 18.3 6.3 21.7 -0.9 24.35 -13.35 25.5 -26.6 26.75 -41.65 25.85 -78.3 23.7 -105.8 10.85 -130.65 -0.8 -146.1 -14.25 -159.65 -26.1 -168.1 -41.35 -176.95 -57.4 -174.45 -71.3 -172.1 -84.35 -161.05 -90.15 -143.25 -99.45 -118.6 -84.35 -109.25 -78.6 -100.55 -70.3 -93.05 -63.1 -88.8 -56.85 -89.3 -51.65 -91.75 -47.7 -94.35 -43.65 -97.55 -43.4 -114.35 -58.5 -126.5 -65.7 -147.45 -78.05 -151.3 -64.9 -155.1 -51.9 -135.35 -34.0 -117.4 -17.75 -95.25 -9.6 -78.55 -3.45 -57.45 -1.6 -37.45 0.2 -19.05 -2.25 -0.4 -4.7 10.5 -10.65 22.2 -17.1 21.7 -25.95" fill="#990099" fill-opacity="0.4" fill-rule="evenodd" stroke="none"/>
    <path d="M21.7 -25.95 Q25.2 -21.5 26.5 -15.35 27.95 -8.95 26.6 -2.2 25.1 5.5 20.85 11.2 15.5 18.3 6.3 21.7 -0.9 24.35 -13.35 25.5 -26.6 26.75 -41.65 25.85 -78.3 23.7 -105.8 10.85 -130.65 -0.8 -146.1 -14.25 -159.65 -26.1 -168.1 -41.35 -176.95 -57.4 -174.45 -71.3 -172.1 -84.35 -161.05 -90.15 -143.25 -99.45 -118.6 -84.35 -109.25 -78.6 -100.55 -70.3 -93.05 -63.1 -88.8 -56.85 -89.3 -51.65 -91.75 -47.7 -94.35 -43.65 -97.55 -43.4 -114.35 -58.5 -126.5 -65.7 -147.45 -78.05 -151.3 -64.9 -155.1 -51.9 -135.35 -34.0 -117.4 -17.75 -95.25 -9.6 -78.55 -3.45 -57.45 -1.6 -37.45 0.2 -19.05 -2.25 -0.4 -4.7 10.5 -10.65 22.2 -17.1 21.7 -25.95 Z" fill="none" stroke="#990066" stroke-linecap="round" stroke-linejoin="round" stroke-opacity="0.69411767" stroke-width="1.0"/>
  </g>
</svg>
