<?xml version="1.0" encoding="UTF-8" standalone="no"?>
<svg xmlns:ffdec="https://www.free-decompiler.com/flash" xmlns:xlink="http://www.w3.org/1999/xlink" ffdec:objectType="shape" height="115.3px" width="211.0px" xmlns="http://www.w3.org/2000/svg">
  <g transform="matrix(1.0, 0.0, 0.0, 1.0, 182.7, 101.15)">
    <path d="M-52.45 13.65 Q-36.7 -3.35 -13.35 -6.95 -0.3 -9.0 26.55 -6.65 28.5 -12.05 27.35 -18.2 26.25 -24.05 22.55 -29.25 4.4 -34.15 -14.0 -31.9 -32.35 -29.7 -42.85 -21.35 -51.5 -14.4 -54.0 -5.7 -56.65 3.35 -52.45 13.65" fill="#990099" fill-opacity="0.4" fill-rule="evenodd" stroke="none"/>
    <path d="M-52.45 13.65 Q-36.7 -3.35 -13.35 -6.95 -0.3 -9.0 26.55 -6.65 28.5 -12.05 27.35 -18.2 26.25 -24.05 22.55 -29.25 4.4 -34.15 -14.0 -31.9 -32.35 -29.7 -42.85 -21.35 -51.5 -14.4 -54.0 -5.7 -56.65 3.35 -52.45 13.65 Z" fill="none" stroke="#990066" stroke-linecap="round" stroke-linejoin="round" stroke-opacity="0.69411767" stroke-width="1.0"/>
    <path d="M-181.0 -74.3 Q-177.45 -90.1 -166.25 -99.85 -142.45 -103.4 -120.55 -90.95 -103.6 -81.3 -90.8 -64.2 -87.4 -59.65 -89.9 -51.25 -92.45 -42.75 -98.6 -39.0 -116.7 -55.25 -135.65 -60.0 -162.6 -66.75 -175.75 -42.75 -184.95 -56.7 -181.0 -74.3" fill="#990099" fill-opacity="0.4" fill-rule="evenodd" stroke="none"/>
    <path d="M-181.0 -74.3 Q-177.45 -90.1 -166.25 -99.85 -142.45 -103.4 -120.55 -90.95 -103.6 -81.3 -90.8 -64.2 -87.4 -59.65 -89.9 -51.25 -92.45 -42.75 -98.6 -39.0 -116.7 -55.25 -135.65 -60.0 -162.6 -66.75 -175.75 -42.75 -184.95 -56.7 -181.0 -74.3 Z" fill="none" stroke="#990066" stroke-linecap="round" stroke-linejoin="round" stroke-opacity="0.69411767" stroke-width="1.0"/>
  </g>
</svg>
