<?xml version="1.0" encoding="UTF-8" standalone="no"?>
<svg xmlns:ffdec="https://www.free-decompiler.com/flash" xmlns:xlink="http://www.w3.org/1999/xlink" ffdec:objectType="shape" height="116.75px" width="208.45px" xmlns="http://www.w3.org/2000/svg">
  <g transform="matrix(1.0, 0.0, 0.0, 1.0, 172.35, 94.1)">
    <path d="M35.55 -23.25 Q35.15 -17.75 32.15 -11.3 28.45 -3.35 24.5 1.45 18.6 8.65 8.9 14.15 -7.35 23.15 -40.55 22.05 -76.55 20.9 -107.4 7.65 -129.3 -1.7 -143.95 -14.75 -156.25 -25.65 -165.55 -41.25 -169.75 -48.25 -171.2 -58.0 -172.7 -67.75 -170.75 -75.4 -168.8 -82.9 -163.95 -87.25 -159.65 -91.1 -152.55 -92.8 -136.0 -96.8 -113.15 -80.85 -93.95 -67.4 -82.0 -49.7 -81.2 -41.2 -92.35 -35.8 L-104.4 -47.25 Q-113.5 -55.95 -119.8 -61.05 -139.4 -76.85 -145.6 -69.75 -148.85 -66.05 -146.5 -58.6 -144.25 -51.45 -137.45 -43.0 -121.65 -23.45 -98.1 -14.1 -67.8 -2.15 -33.65 -4.95 5.55 -8.15 34.0 -30.7 35.9 -28.25 35.55 -23.25" fill="#990099" fill-opacity="0.4" fill-rule="evenodd" stroke="none"/>
    <path d="M35.55 -23.25 Q35.15 -17.75 32.15 -11.3 28.45 -3.35 24.5 1.45 18.6 8.65 8.9 14.15 -7.35 23.15 -40.55 22.05 -76.55 20.9 -107.4 7.65 -129.3 -1.7 -143.95 -14.75 -156.25 -25.65 -165.55 -41.25 -169.75 -48.25 -171.2 -58.0 -172.7 -67.75 -170.75 -75.4 -168.8 -82.9 -163.95 -87.25 -159.65 -91.1 -152.55 -92.8 -136.0 -96.8 -113.15 -80.85 -93.95 -67.4 -82.0 -49.7 -81.2 -41.2 -92.35 -35.8 L-104.4 -47.25 Q-113.5 -55.95 -119.8 -61.05 -139.4 -76.85 -145.6 -69.75 -148.85 -66.05 -146.5 -58.6 -144.25 -51.45 -137.45 -43.0 -121.65 -23.45 -98.1 -14.1 -67.8 -2.15 -33.65 -4.95 5.55 -8.15 34.0 -30.7 35.9 -28.25 35.55 -23.25 Z" fill="none" stroke="#990066" stroke-linecap="round" stroke-linejoin="round" stroke-opacity="0.69411767" stroke-width="1.0"/>
  </g>
</svg>
