<?xml version="1.0" encoding="UTF-8" standalone="no"?>
<svg xmlns:ffdec="https://www.free-decompiler.com/flash" xmlns:xlink="http://www.w3.org/1999/xlink" ffdec:objectType="shape" height="105.1px" width="215.95px" xmlns="http://www.w3.org/2000/svg">
  <g transform="matrix(1.0, 0.0, 0.0, 1.0, 180.15, 104.8)">
    <path d="M-172.5 -91.7 Q-164.1 -102.05 -150.25 -104.3 -128.1 -101.5 -108.2 -86.65 -89.05 -72.3 -82.1 -54.55 -82.7 -45.9 -85.35 -41.25 -88.8 -35.25 -96.8 -33.0 L-111.6 -47.8 Q-121.35 -56.95 -130.1 -62.1 -154.35 -76.3 -179.15 -65.05 -181.6 -80.45 -172.5 -91.7" fill="#990099" fill-opacity="0.4" fill-rule="evenodd" stroke="none"/>
    <path d="M-172.5 -91.7 Q-164.1 -102.05 -150.25 -104.3 -128.1 -101.5 -108.2 -86.65 -89.05 -72.3 -82.1 -54.55 -82.7 -45.9 -85.35 -41.25 -88.8 -35.25 -96.8 -33.0 L-111.6 -47.8 Q-121.35 -56.95 -130.1 -62.1 -154.35 -76.3 -179.15 -65.05 -181.6 -80.45 -172.5 -91.7 Z" fill="none" stroke="#990066" stroke-linecap="round" stroke-linejoin="round" stroke-opacity="0.69411767" stroke-width="1.0"/>
    <path d="M-53.2 -0.2 Q-41.55 -14.5 -13.4 -15.9 10.85 -17.2 31.0 -9.7 34.5 -18.85 34.9 -20.85 36.25 -27.15 33.25 -31.65 18.4 -37.95 -2.15 -37.7 -21.15 -37.45 -33.7 -32.1 -43.85 -27.75 -49.05 -19.1 -54.15 -10.6 -53.2 -0.2" fill="#990099" fill-opacity="0.4" fill-rule="evenodd" stroke="none"/>
    <path d="M-53.2 -0.2 Q-54.15 -10.6 -49.05 -19.1 -43.85 -27.75 -33.7 -32.1 -21.15 -37.45 -2.15 -37.7 18.4 -37.95 33.25 -31.65 36.25 -27.15 34.9 -20.85 34.5 -18.85 31.0 -9.7 10.85 -17.2 -13.4 -15.9 -41.55 -14.5 -53.2 -0.2 Z" fill="none" stroke="#990066" stroke-linecap="round" stroke-linejoin="round" stroke-opacity="0.69411767" stroke-width="1.0"/>
  </g>
</svg>
