<?xml version="1.0" encoding="UTF-8" standalone="no"?>
<svg xmlns:ffdec="https://www.free-decompiler.com/flash" xmlns:xlink="http://www.w3.org/1999/xlink" ffdec:objectType="shape" height="107.0px" width="216.75px" xmlns="http://www.w3.org/2000/svg">
  <g transform="matrix(1.0, 0.0, 0.0, 1.0, 169.55, 91.6)">
    <path d="M45.8 -17.8 Q44.05 -10.8 39.95 -5.9 29.65 0.3 20.15 4.0 8.6 8.4 -7.1 11.35 -27.95 15.3 -46.95 14.85 -72.65 14.2 -99.85 5.7 -130.35 -3.85 -149.65 -23.35 -168.85 -42.75 -169.05 -63.95 -169.2 -82.0 -156.4 -88.3 -144.95 -93.95 -129.1 -88.2 -111.3 -81.7 -97.95 -66.35 -84.5 -50.8 -77.3 -28.15 -78.1 -24.85 -81.75 -22.7 -84.2 -21.3 -90.1 -19.5 -100.3 -37.65 -115.95 -52.75 -134.0 -70.15 -142.55 -64.9 -146.2 -62.65 -143.65 -56.05 -141.15 -49.55 -133.85 -41.8 -115.95 -22.7 -91.4 -16.3 -69.95 -10.65 -47.8 -11.8 -35.3 -12.45 -4.9 -17.45 11.85 -20.25 24.4 -23.05 32.25 -24.8 46.15 -28.4 47.4 -24.3 45.8 -17.8" fill="#990099" fill-opacity="0.4" fill-rule="evenodd" stroke="none"/>
    <path d="M45.8 -17.8 Q44.05 -10.8 39.95 -5.9 29.65 0.3 20.15 4.0 8.6 8.4 -7.1 11.35 -27.95 15.3 -46.95 14.85 -72.65 14.2 -99.85 5.7 -130.35 -3.85 -149.65 -23.35 -168.85 -42.75 -169.05 -63.95 -169.2 -82.0 -156.4 -88.3 -144.95 -93.95 -129.1 -88.2 -111.3 -81.7 -97.95 -66.35 -84.5 -50.8 -77.3 -28.15 -78.1 -24.85 -81.75 -22.7 -84.2 -21.3 -90.1 -19.5 -100.3 -37.65 -115.95 -52.75 -134.0 -70.15 -142.55 -64.9 -146.2 -62.65 -143.65 -56.05 -141.15 -49.55 -133.85 -41.8 -115.95 -22.7 -91.4 -16.3 -69.95 -10.65 -47.8 -11.8 -35.3 -12.45 -4.9 -17.45 11.85 -20.25 24.4 -23.05 32.25 -24.8 46.15 -28.4 47.4 -24.3 45.8 -17.8 Z" fill="none" stroke="#990066" stroke-linecap="round" stroke-linejoin="round" stroke-opacity="0.69411767" stroke-width="1.0"/>
  </g>
</svg>
