<?xml version="1.0" encoding="UTF-8" standalone="no"?>
<svg xmlns:ffdec="https://www.free-decompiler.com/flash" xmlns:xlink="http://www.w3.org/1999/xlink" ffdec:objectType="shape" height="95.85px" width="222.05px" xmlns="http://www.w3.org/2000/svg">
  <g transform="matrix(1.0, 0.0, 0.0, 1.0, 174.75, 101.05)">
    <path d="M-107.65 -36.55 Q-116.2 -47.05 -124.5 -54.2 -147.05 -73.6 -174.25 -74.05 -169.7 -87.2 -155.35 -94.7 -143.15 -101.1 -131.5 -100.5 -109.7 -90.85 -93.75 -68.95 -81.65 -52.35 -74.75 -31.65 -76.0 -26.5 -81.7 -22.9 -87.5 -19.2 -94.65 -19.4 L-107.65 -36.55" fill="#990099" fill-opacity="0.4" fill-rule="evenodd" stroke="none"/>
    <path d="M-107.65 -36.55 Q-116.2 -47.05 -124.5 -54.2 -147.05 -73.6 -174.25 -74.05 -169.7 -87.2 -155.35 -94.7 -143.15 -101.1 -131.5 -100.5 -109.7 -90.85 -93.75 -68.95 -81.65 -52.35 -74.75 -31.65 -76.0 -26.5 -81.7 -22.9 -87.5 -19.2 -94.65 -19.4 L-107.65 -36.55 Z" fill="none" stroke="#990066" stroke-linecap="round" stroke-linejoin="round" stroke-opacity="0.69411767" stroke-width="1.0"/>
    <path d="M-48.3 -10.05 Q-34.8 -17.9 -5.05 -15.35 20.75 -13.2 40.2 -5.7 43.6 -11.0 45.35 -16.4 47.5 -23.05 46.45 -28.05 26.45 -38.9 13.4 -42.65 -4.1 -47.6 -19.9 -43.9 -31.2 -41.25 -38.45 -31.85 -44.7 -23.75 -48.3 -10.05" fill="#990099" fill-opacity="0.4" fill-rule="evenodd" stroke="none"/>
    <path d="M-48.3 -10.05 Q-34.8 -17.9 -5.05 -15.35 20.75 -13.2 40.2 -5.7 43.6 -11.0 45.35 -16.4 47.5 -23.05 46.45 -28.05 26.45 -38.9 13.4 -42.65 -4.1 -47.6 -19.9 -43.9 -31.2 -41.25 -38.45 -31.85 -44.7 -23.75 -48.3 -10.05 Z" fill="none" stroke="#990066" stroke-linecap="round" stroke-linejoin="round" stroke-opacity="0.69411767" stroke-width="1.0"/>
  </g>
</svg>
