<?xml version="1.0" encoding="UTF-8" standalone="no"?>
<svg xmlns:ffdec="https://www.free-decompiler.com/flash" xmlns:xlink="http://www.w3.org/1999/xlink" ffdec:objectType="shape" height="99.85px" width="218.8px" xmlns="http://www.w3.org/2000/svg">
  <g transform="matrix(1.0, 0.0, 0.0, 1.0, 160.05, 90.0)">
    <path d="M58.05 -18.0 Q57.5 -14.6 55.8 -11.05 51.35 -1.85 44.75 -1.85 L22.95 -1.05 Q11.2 0.1 -4.2 3.3 -29.9 8.6 -44.5 9.2 -72.05 10.35 -101.4 1.65 -125.55 -5.55 -142.35 -23.65 -156.65 -39.1 -158.9 -53.5 -161.85 -72.4 -151.1 -83.65 -144.2 -90.85 -131.7 -89.2 -119.1 -87.55 -107.05 -77.55 -97.3 -69.45 -87.95 -51.8 -79.05 -34.95 -74.65 -17.55 -59.6 -15.95 -41.9 -17.75 -31.7 -18.8 -6.8 -22.95 16.5 -26.8 27.35 -27.1 43.15 -27.45 57.75 -22.55 58.6 -21.4 58.05 -18.0 M-135.9 -63.1 Q-137.75 -58.6 -135.5 -52.55 -133.25 -46.5 -127.45 -40.3 -114.15 -26.1 -91.65 -19.4 -101.6 -39.75 -116.25 -55.4 -123.35 -63.0 -128.4 -65.25 -133.95 -67.75 -135.9 -63.1" fill="#990099" fill-opacity="0.4" fill-rule="evenodd" stroke="none"/>
    <path d="M58.05 -18.0 Q57.5 -14.6 55.8 -11.05 51.35 -1.85 44.75 -1.85 L22.95 -1.05 Q11.2 0.1 -4.2 3.3 -29.9 8.6 -44.5 9.2 -72.05 10.35 -101.4 1.65 -125.55 -5.55 -142.35 -23.65 -156.65 -39.1 -158.9 -53.5 -161.85 -72.4 -151.1 -83.65 -144.2 -90.85 -131.7 -89.2 -119.1 -87.55 -107.05 -77.55 -97.3 -69.45 -87.95 -51.8 -79.05 -34.95 -74.65 -17.55 -59.6 -15.95 -41.9 -17.75 -31.7 -18.8 -6.8 -22.95 16.5 -26.8 27.35 -27.1 43.15 -27.45 57.75 -22.55 58.6 -21.4 58.05 -18.0 M-135.9 -63.1 Q-137.75 -58.6 -135.5 -52.55 -133.25 -46.5 -127.45 -40.3 -114.15 -26.1 -91.65 -19.4 -101.6 -39.75 -116.25 -55.4 -123.35 -63.0 -128.4 -65.25 -133.95 -67.75 -135.9 -63.1 Z" fill="none" stroke="#990066" stroke-linecap="round" stroke-linejoin="round" stroke-opacity="0.69411767" stroke-width="1.0"/>
  </g>
</svg>
