<?xml version="1.0" encoding="UTF-8" standalone="no"?>
<svg xmlns:ffdec="https://www.free-decompiler.com/flash" xmlns:xlink="http://www.w3.org/1999/xlink" ffdec:objectType="shape" height="87.7px" width="210.75px" xmlns="http://www.w3.org/2000/svg">
  <g transform="matrix(1.0, 0.0, 0.0, 1.0, 151.8, 88.55)">
    <path d="M-103.65 -86.9 Q-90.35 -75.5 -81.05 -52.1 -74.25 -34.85 -70.2 -12.8 -72.0 -8.2 -79.0 -6.15 -85.45 -4.3 -93.05 -5.5 -100.95 -27.7 -114.6 -44.95 -129.9 -64.3 -151.3 -75.75 -141.05 -83.75 -127.4 -86.65 -114.6 -89.35 -103.65 -86.9" fill="#990099" fill-opacity="0.4" fill-rule="evenodd" stroke="none"/>
    <path d="M-103.65 -86.9 Q-90.35 -75.5 -81.05 -52.1 -74.25 -34.85 -70.2 -12.8 -72.0 -8.2 -79.0 -6.15 -85.45 -4.3 -93.05 -5.5 -100.95 -27.7 -114.6 -44.95 -129.9 -64.3 -151.3 -75.75 -141.05 -83.75 -127.4 -86.65 -114.6 -89.35 -103.65 -86.9 Z" fill="none" stroke="#990066" stroke-linecap="round" stroke-linejoin="round" stroke-opacity="0.69411767" stroke-width="1.0"/>
    <path d="M-24.45 -37.5 Q-38.9 -28.3 -39.8 -17.7 -20.9 -23.65 4.9 -17.75 26.3 -12.8 46.8 -1.35 53.85 -2.15 56.8 -9.45 59.2 -15.35 58.15 -22.5 41.75 -34.25 28.25 -39.6 15.05 -44.85 0.7 -45.55 -10.8 -46.15 -24.45 -37.5" fill="#990099" fill-opacity="0.4" fill-rule="evenodd" stroke="none"/>
    <path d="M-24.45 -37.5 Q-38.9 -28.3 -39.8 -17.7 -20.9 -23.65 4.9 -17.75 26.3 -12.8 46.8 -1.35 53.85 -2.15 56.8 -9.45 59.2 -15.35 58.15 -22.5 41.75 -34.25 28.25 -39.6 15.05 -44.85 0.7 -45.55 -10.8 -46.15 -24.45 -37.5 Z" fill="none" stroke="#990066" stroke-linecap="round" stroke-linejoin="round" stroke-opacity="0.69411767" stroke-width="1.0"/>
  </g>
</svg>
