<?xml version="1.0" encoding="UTF-8" standalone="no"?>
<svg xmlns:ffdec="https://www.free-decompiler.com/flash" xmlns:xlink="http://www.w3.org/1999/xlink" ffdec:objectType="shape" height="100.85px" width="216.25px" xmlns="http://www.w3.org/2000/svg">
  <g transform="matrix(1.0, 0.0, 0.0, 1.0, 149.2, 85.2)">
    <path d="M33.5 -2.6 Q18.95 -4.1 5.15 -3.1 L-32.0 0.15 Q-52.45 1.5 -71.0 -0.35 -70.0 9.65 -70.0 12.1 -72.65 14.75 -77.2 15.1 -81.9 15.45 -86.2 13.15 -87.8 6.05 -90.05 -1.05 -96.85 -2.6 -108.05 -9.0 -119.4 -15.45 -127.3 -22.4 -145.75 -38.65 -148.3 -56.2 -149.45 -63.8 -147.15 -70.05 -144.95 -76.1 -140.05 -79.65 -129.25 -87.5 -116.4 -83.1 -104.65 -79.05 -95.9 -66.9 -88.6 -56.85 -83.2 -45.35 -79.4 -37.25 -74.8 -24.15 -58.8 -22.4 -34.9 -24.3 L-0.05 -27.15 Q17.95 -27.65 34.4 -24.6 44.55 -22.75 66.55 -16.55 66.5 -9.75 64.7 -6.5 63.2 -3.8 57.9 0.35 L33.5 -2.6 M-110.25 -47.7 Q-122.0 -63.65 -124.2 -59.65 -126.4 -55.6 -114.65 -42.5 -103.45 -29.95 -96.2 -26.6 -103.1 -38.0 -110.25 -47.7" fill="#990099" fill-opacity="0.4" fill-rule="evenodd" stroke="none"/>
    <path d="M33.5 -2.6 L57.9 0.35 Q63.2 -3.8 64.7 -6.5 66.5 -9.75 66.55 -16.55 44.55 -22.75 34.4 -24.6 17.95 -27.65 -0.05 -27.15 L-34.9 -24.3 Q-58.8 -22.4 -74.8 -24.15 -79.4 -37.25 -83.2 -45.35 -88.6 -56.85 -95.9 -66.9 -104.65 -79.05 -116.4 -83.1 -129.25 -87.5 -140.05 -79.65 -144.95 -76.1 -147.15 -70.05 -149.45 -63.8 -148.3 -56.2 -145.75 -38.65 -127.3 -22.4 -119.4 -15.45 -108.05 -9.0 -96.85 -2.6 -90.05 -1.05 -87.8 6.05 -86.2 13.15 -81.9 15.45 -77.2 15.1 -72.65 14.75 -70.0 12.1 -70.0 9.65 -71.0 -0.35 -52.45 1.5 -32.0 0.15 L5.15 -3.1 Q18.95 -4.1 33.5 -2.6 M-110.25 -47.7 Q-122.0 -63.65 -124.2 -59.65 -126.4 -55.6 -114.65 -42.5 -103.45 -29.95 -96.2 -26.6 -103.1 -38.0 -110.25 -47.7 Z" fill="none" stroke="#990066" stroke-linecap="round" stroke-linejoin="round" stroke-opacity="0.69411767" stroke-width="1.0"/>
  </g>
</svg>
