<?xml version="1.0" encoding="UTF-8" standalone="no"?>
<svg xmlns:ffdec="https://www.free-decompiler.com/flash" xmlns:xlink="http://www.w3.org/1999/xlink" ffdec:objectType="shape" height="93.95px" width="211.0px" xmlns="http://www.w3.org/2000/svg">
  <g transform="matrix(1.0, 0.0, 0.0, 1.0, 143.4, 79.1)">
    <path d="M-90.7 -74.4 Q-76.5 -59.7 -69.55 -32.75 -64.2 -12.05 -64.2 10.1 -68.45 13.35 -75.4 14.15 -82.8 14.95 -91.25 12.8 -97.5 -14.65 -108.5 -33.8 -121.95 -57.25 -142.9 -68.85 -134.15 -77.15 -117.15 -78.4 -101.5 -79.55 -90.7 -74.4" fill="#990099" fill-opacity="0.4" fill-rule="evenodd" stroke="none"/>
    <path d="M-90.7 -74.4 Q-76.5 -59.7 -69.55 -32.75 -64.2 -12.05 -64.2 10.1 -68.45 13.35 -75.4 14.15 -82.8 14.95 -91.25 12.8 -97.5 -14.65 -108.5 -33.8 -121.95 -57.25 -142.9 -68.85 -134.15 -77.15 -117.15 -78.4 -101.5 -79.55 -90.7 -74.4 Z" fill="none" stroke="#990066" stroke-linecap="round" stroke-linejoin="round" stroke-opacity="0.69411767" stroke-width="1.0"/>
    <path d="M-17.25 -37.0 Q-28.9 -31.05 -31.25 -21.8 -10.65 -23.85 15.4 -16.1 38.9 -9.1 55.75 2.1 60.7 -0.9 63.75 -6.3 66.6 -11.55 67.1 -17.9 50.65 -29.2 37.45 -34.95 22.8 -41.45 6.3 -43.9 -7.5 -42.0 -17.25 -37.0" fill="#990099" fill-opacity="0.4" fill-rule="evenodd" stroke="none"/>
    <path d="M-17.25 -37.0 Q-28.9 -31.05 -31.25 -21.8 -10.65 -23.85 15.4 -16.1 38.9 -9.1 55.75 2.1 60.7 -0.9 63.75 -6.3 66.6 -11.55 67.1 -17.9 50.65 -29.2 37.45 -34.95 22.8 -41.45 6.3 -43.9 -7.5 -42.0 -17.25 -37.0 Z" fill="none" stroke="#990066" stroke-linecap="round" stroke-linejoin="round" stroke-opacity="0.69411767" stroke-width="1.0"/>
  </g>
</svg>
