<?xml version="1.0" encoding="UTF-8" standalone="no"?>
<svg xmlns:ffdec="https://www.free-decompiler.com/flash" xmlns:xlink="http://www.w3.org/1999/xlink" ffdec:objectType="shape" height="100.6px" width="230.1px" xmlns="http://www.w3.org/2000/svg">
  <g transform="matrix(1.0, 0.0, 0.0, 1.0, 146.2, 78.5)">
    <path d="M46.65 -12.6 Q71.75 -13.6 82.95 -13.3 84.4 -5.8 81.35 0.45 78.05 7.2 71.65 7.1 64.6 7.0 44.55 7.65 22.35 8.45 9.4 8.45 -37.75 8.6 -69.65 1.05 -67.3 6.35 -60.7 17.25 -63.45 18.9 -66.9 21.25 -70.1 22.4 -76.9 20.0 -81.85 15.45 -85.75 9.55 -88.6 5.25 -94.15 -5.15 -103.35 -9.95 -109.4 -13.55 -119.5 -19.6 -126.25 -25.2 -143.15 -39.3 -145.4 -55.45 -146.45 -62.65 -143.75 -68.05 -140.95 -73.55 -134.85 -75.85 -124.9 -79.55 -114.75 -76.85 -103.6 -73.9 -95.2 -63.8 -88.4 -55.55 -84.15 -45.4 L-76.25 -24.15 Q-46.6 -11.6 5.15 -11.5 18.7 -11.5 46.65 -12.6" fill="#990099" fill-opacity="0.4" fill-rule="evenodd" stroke="none"/>
    <path d="M46.65 -12.6 Q71.75 -13.6 82.95 -13.3 84.4 -5.8 81.35 0.45 78.05 7.2 71.65 7.1 64.6 7.0 44.55 7.65 22.35 8.45 9.4 8.45 -37.75 8.6 -69.65 1.05 -67.3 6.35 -60.7 17.25 -63.45 18.9 -66.9 21.25 -70.1 22.4 -76.9 20.0 -81.85 15.45 -85.75 9.55 -88.6 5.25 -94.15 -5.15 -103.35 -9.95 -109.4 -13.55 -119.5 -19.6 -126.25 -25.2 -143.15 -39.3 -145.4 -55.45 -146.45 -62.65 -143.75 -68.05 -140.95 -73.55 -134.85 -75.85 -124.9 -79.55 -114.75 -76.85 -103.6 -73.9 -95.2 -63.8 -88.4 -55.55 -84.15 -45.4 L-76.25 -24.15 Q-46.6 -11.6 5.15 -11.5 18.7 -11.5 46.65 -12.6 Z" fill="none" stroke="#990066" stroke-linecap="round" stroke-linejoin="round" stroke-opacity="0.69411767" stroke-width="1.0"/>
  </g>
</svg>
