<?xml version="1.0" encoding="UTF-8" standalone="no"?>
<svg xmlns:ffdec="https://www.free-decompiler.com/flash" xmlns:xlink="http://www.w3.org/1999/xlink" ffdec:objectType="shape" height="95.2px" width="226.35px" xmlns="http://www.w3.org/2000/svg">
  <g transform="matrix(1.0, 0.0, 0.0, 1.0, 142.65, 73.85)">
    <path d="M-126.55 -55.6 Q-134.75 -68.4 -142.15 -73.35 L-107.65 -68.65 Q-87.4 -65.65 -81.1 -62.6 -77.15 -56.05 -74.9 -45.6 -74.2 -42.45 -71.45 -25.6 -66.95 2.1 -56.45 18.3 -60.7 20.85 -67.65 20.85 -74.9 21.0 -82.55 18.3 -89.65 11.8 -97.85 -2.25 -102.0 -9.3 -112.2 -29.45 -121.15 -47.1 -126.55 -55.6" fill="#990099" fill-opacity="0.4" fill-rule="evenodd" stroke="none"/>
    <path d="M-126.55 -55.6 Q-134.75 -68.4 -142.15 -73.35 L-107.65 -68.65 Q-87.4 -65.65 -81.1 -62.6 -77.15 -56.05 -74.9 -45.6 -74.2 -42.45 -71.45 -25.6 -66.95 2.1 -56.45 18.3 -60.7 20.85 -67.65 20.85 -74.9 21.0 -82.55 18.3 -89.65 11.8 -97.85 -2.25 -102.0 -9.3 -112.2 -29.45 -121.15 -47.1 -126.55 -55.6 Z" fill="none" stroke="#990066" stroke-linecap="round" stroke-linejoin="round" stroke-opacity="0.69411767" stroke-width="1.0"/>
    <path d="M38.1 -10.5 Q50.6 -3.0 56.25 0.2 65.95 5.65 71.85 7.35 76.8 4.35 79.85 -1.05 82.7 -6.3 83.2 -12.65 62.15 -27.65 55.85 -31.1 41.05 -39.35 24.3 -41.55 15.7 -42.65 6.0 -37.65 -4.2 -32.4 -4.2 -25.6 13.5 -24.7 38.1 -10.5" fill="#990099" fill-opacity="0.4" fill-rule="evenodd" stroke="none"/>
    <path d="M38.1 -10.5 Q13.5 -24.7 -4.2 -25.6 -4.2 -32.4 6.0 -37.65 15.7 -42.65 24.3 -41.55 41.05 -39.35 55.85 -31.1 62.15 -27.65 83.2 -12.65 82.7 -6.3 79.85 -1.05 76.8 4.35 71.85 7.35 65.95 5.65 56.25 0.2 50.6 -3.0 38.1 -10.5 Z" fill="none" stroke="#990066" stroke-linecap="round" stroke-linejoin="round" stroke-opacity="0.69411767" stroke-width="1.0"/>
  </g>
</svg>
