<?xml version="1.0" encoding="UTF-8" standalone="no"?>
<svg xmlns:ffdec="https://www.free-decompiler.com/flash" xmlns:xlink="http://www.w3.org/1999/xlink" ffdec:objectType="shape" height="89.4px" width="235.0px" xmlns="http://www.w3.org/2000/svg">
  <g transform="matrix(1.0, 0.0, 0.0, 1.0, 132.55, 60.85)">
    <path d="M58.4 -10.55 Q80.45 -9.15 101.9 -5.8 102.25 -1.35 100.05 3.75 98.0 8.6 94.5 12.1 L58.75 10.65 Q35.7 10.25 15.85 11.05 -6.3 11.95 -26.3 9.85 -49.35 7.45 -65.85 1.35 L-53.45 22.4 Q-56.95 26.65 -58.95 27.45 L-68.25 27.95 Q-73.8 19.35 -82.2 8.9 -88.85 0.55 -99.6 -11.65 -116.7 -23.4 -123.75 -30.95 -132.35 -40.1 -132.05 -48.5 -131.85 -54.0 -126.5 -57.3 -121.5 -60.35 -114.0 -60.35 -106.4 -60.4 -99.65 -57.25 -92.25 -53.8 -88.5 -47.5 L-83.7 -39.2 -78.35 -33.85 Q-69.95 -26.2 -62.65 -22.75 -47.8 -15.65 -29.2 -12.95 -11.05 -10.4 14.9 -11.3 35.4 -12.1 58.4 -10.55" fill="#990099" fill-opacity="0.4" fill-rule="evenodd" stroke="none"/>
    <path d="M58.4 -10.55 Q80.45 -9.15 101.9 -5.8 102.25 -1.35 100.05 3.75 98.0 8.6 94.5 12.1 L58.75 10.65 Q35.7 10.25 15.85 11.05 -6.3 11.95 -26.3 9.85 -49.35 7.45 -65.85 1.35 L-53.45 22.4 Q-56.95 26.65 -58.95 27.45 L-68.25 27.95 Q-73.8 19.35 -82.2 8.9 -88.85 0.55 -99.6 -11.65 -116.7 -23.4 -123.75 -30.95 -132.35 -40.1 -132.05 -48.5 -131.85 -54.0 -126.5 -57.3 -121.5 -60.35 -114.0 -60.35 -106.4 -60.4 -99.65 -57.25 -92.25 -53.8 -88.5 -47.5 L-83.7 -39.2 -78.35 -33.85 Q-69.95 -26.2 -62.65 -22.75 -47.8 -15.65 -29.2 -12.95 -11.05 -10.4 14.9 -11.3 35.4 -12.1 58.4 -10.55 Z" fill="none" stroke="#990066" stroke-linecap="round" stroke-linejoin="round" stroke-opacity="0.69411767" stroke-width="1.0"/>
  </g>
</svg>
