<?xml version="1.0" encoding="UTF-8" standalone="no"?>
<svg xmlns:ffdec="https://www.free-decompiler.com/flash" xmlns:xlink="http://www.w3.org/1999/xlink" ffdec:objectType="shape" height="86.2px" width="240.45px" xmlns="http://www.w3.org/2000/svg">
  <g transform="matrix(1.0, 0.0, 0.0, 1.0, 138.25, 56.35)">
    <path d="M-111.55 -55.8 Q-92.75 -56.4 -83.15 -50.8 -75.85 -32.65 -67.55 -15.15 -57.45 6.0 -49.1 19.25 -52.65 23.55 -59.75 26.5 -67.3 29.65 -74.3 29.3 -93.95 0.25 -137.75 -48.75 -130.5 -55.2 -111.55 -55.8" fill="#990099" fill-opacity="0.4" fill-rule="evenodd" stroke="none"/>
    <path d="M-111.55 -55.8 Q-92.75 -56.4 -83.15 -50.8 -75.85 -32.65 -67.55 -15.15 -57.45 6.0 -49.1 19.25 -52.65 23.55 -59.75 26.5 -67.3 29.65 -74.3 29.3 -93.95 0.25 -137.75 -48.75 -130.5 -55.2 -111.55 -55.8 Z" fill="none" stroke="#990066" stroke-linecap="round" stroke-linejoin="round" stroke-opacity="0.69411767" stroke-width="1.0"/>
    <path d="M17.35 -29.95 Q12.05 -22.55 13.05 -13.4 28.65 -10.35 52.15 0.1 76.25 10.9 88.4 13.5 93.55 11.1 97.2 5.45 100.5 0.3 101.7 -6.2 88.6 -10.8 63.95 -24.75 41.6 -37.4 31.7 -39.7 22.6 -37.35 17.35 -29.95" fill="#990099" fill-opacity="0.4" fill-rule="evenodd" stroke="none"/>
    <path d="M17.35 -29.95 Q12.05 -22.55 13.05 -13.4 28.65 -10.35 52.15 0.1 76.25 10.9 88.4 13.5 93.55 11.1 97.2 5.45 100.5 0.3 101.7 -6.2 88.6 -10.8 63.95 -24.75 41.6 -37.4 31.7 -39.7 22.6 -37.35 17.35 -29.95 Z" fill="none" stroke="#990066" stroke-linecap="round" stroke-linejoin="round" stroke-opacity="0.69411767" stroke-width="1.0"/>
  </g>
</svg>
