<?xml version="1.0" encoding="UTF-8" standalone="no"?>
<svg xmlns:ffdec="https://www.free-decompiler.com/flash" xmlns:xlink="http://www.w3.org/1999/xlink" ffdec:objectType="shape" height="90.7px" width="241.4px" xmlns="http://www.w3.org/2000/svg">
  <g transform="matrix(1.0, 0.0, 0.0, 1.0, 124.9, 52.3)">
    <path d="M-123.0 -24.8 Q-125.05 -31.25 -124.05 -37.2 -123.05 -43.4 -119.05 -47.25 -114.65 -51.4 -107.6 -51.75 -95.7 -52.35 -79.55 -44.8 -59.0 -33.95 -45.55 -27.55 -9.55 -10.55 43.35 -3.35 78.95 1.45 113.5 1.05 118.35 6.85 113.85 15.85 84.15 20.4 50.95 19.3 4.3 17.7 -40.65 4.85 -58.85 -0.3 -70.7 -6.9 -76.2 -9.95 -65.3 4.75 -54.45 19.3 -46.9 25.5 -47.4 35.2 -57.25 37.9 -57.45 38.5 -79.6 20.2 -104.2 -0.05 -116.2 -13.1 -120.9 -18.2 -123.0 -24.8" fill="#990099" fill-opacity="0.4" fill-rule="evenodd" stroke="none"/>
    <path d="M-123.0 -24.8 Q-120.9 -18.2 -116.2 -13.1 -104.2 -0.05 -79.6 20.2 -57.45 38.5 -57.25 37.9 -47.4 35.2 -46.9 25.5 -54.45 19.3 -65.3 4.75 -76.2 -9.95 -70.7 -6.9 -58.85 -0.3 -40.65 4.85 4.3 17.7 50.95 19.3 84.15 20.4 113.85 15.85 118.35 6.85 113.5 1.05 78.95 1.45 43.35 -3.35 -9.55 -10.55 -45.55 -27.55 -59.0 -33.95 -79.55 -44.8 -95.7 -52.35 -107.6 -51.75 -114.65 -51.4 -119.05 -47.25 -123.05 -43.4 -124.05 -37.2 -125.05 -31.25 -123.0 -24.8 Z" fill="none" stroke="#990066" stroke-linecap="round" stroke-linejoin="round" stroke-opacity="0.69411767" stroke-width="1.0"/>
  </g>
</svg>
