<?xml version="1.0" encoding="UTF-8" standalone="no"?>
<svg xmlns:ffdec="https://www.free-decompiler.com/flash" xmlns:xlink="http://www.w3.org/1999/xlink" ffdec:objectType="shape" height="88.85px" width="240.6px" xmlns="http://www.w3.org/2000/svg">
  <g transform="matrix(1.0, 0.0, 0.0, 1.0, 123.2, 48.5)">
    <path d="M-93.9 -48.0 Q-87.9 -26.2 -73.9 -7.5 -60.95 9.7 -44.45 20.2 -46.3 26.45 -51.3 31.8 -56.6 37.7 -63.25 39.85 L-93.0 12.9 Q-108.05 -1.15 -122.45 -15.95 -123.85 -27.65 -116.55 -36.25 -108.95 -45.2 -93.9 -48.0" fill="#990099" fill-opacity="0.4" fill-rule="evenodd" stroke="none"/>
    <path d="M-93.9 -48.0 Q-87.9 -26.2 -73.9 -7.5 -60.95 9.7 -44.45 20.2 -46.3 26.45 -51.3 31.8 -56.6 37.7 -63.25 39.85 L-93.0 12.9 Q-108.05 -1.15 -122.45 -15.95 -123.85 -27.65 -116.55 -36.25 -108.95 -45.2 -93.9 -48.0 Z" fill="none" stroke="#990066" stroke-linecap="round" stroke-linejoin="round" stroke-opacity="0.69411767" stroke-width="1.0"/>
    <path d="M31.65 -17.65 Q29.0 -9.55 33.8 0.7 43.6 2.65 68.5 9.7 90.45 15.9 103.6 18.05 108.85 15.55 112.4 10.45 115.75 5.55 116.9 -0.7 93.2 -6.85 79.4 -12.6 67.05 -17.65 42.75 -31.0 34.05 -25.05 31.65 -17.65" fill="#990099" fill-opacity="0.4" fill-rule="evenodd" stroke="none"/>
    <path d="M31.65 -17.65 Q29.0 -9.55 33.8 0.7 43.6 2.65 68.5 9.7 90.45 15.9 103.6 18.05 108.85 15.55 112.4 10.45 115.75 5.55 116.9 -0.7 93.2 -6.85 79.4 -12.6 67.05 -17.65 42.75 -31.0 34.05 -25.05 31.65 -17.65 Z" fill="none" stroke="#990066" stroke-linecap="round" stroke-linejoin="round" stroke-opacity="0.69411767" stroke-width="1.0"/>
  </g>
</svg>
