<?xml version="1.0" encoding="UTF-8" standalone="no"?>
<svg xmlns:ffdec="https://www.free-decompiler.com/flash" xmlns:xlink="http://www.w3.org/1999/xlink" ffdec:objectType="shape" height="80.15px" width="245.6px" xmlns="http://www.w3.org/2000/svg">
  <g transform="matrix(1.0, 0.0, 0.0, 1.0, 120.6, 42.75)">
    <path d="M51.75 -5.15 Q71.8 -0.7 87.1 -0.95 103.8 -1.3 112.45 -7.25 123.7 -3.15 124.5 3.45 112.9 15.95 91.75 19.5 73.6 22.5 47.85 19.0 27.25 16.2 -2.7 7.1 L-47.6 -6.9 Q-62.95 -11.25 -72.5 -11.3 -82.55 -11.4 -79.3 -6.55 -74.2 1.05 -64.65 8.1 -56.4 14.25 -43.8 20.7 -42.0 25.4 -42.55 29.2 -43.1 33.05 -46.2 36.9 -69.3 30.15 -86.15 21.65 -104.45 12.45 -114.15 1.75 -121.3 -6.1 -119.85 -18.65 -118.35 -31.75 -108.3 -37.95 -98.75 -43.85 -79.9 -41.7 -69.5 -40.5 -46.8 -34.8 -34.3 -31.65 0.95 -20.05 33.95 -9.15 51.75 -5.15" fill="#990099" fill-opacity="0.4" fill-rule="evenodd" stroke="none"/>
    <path d="M51.75 -5.15 Q71.8 -0.7 87.1 -0.95 103.8 -1.3 112.45 -7.25 123.7 -3.15 124.5 3.45 112.9 15.95 91.75 19.5 73.6 22.5 47.85 19.0 27.25 16.2 -2.7 7.1 L-47.6 -6.9 Q-62.95 -11.25 -72.5 -11.3 -82.55 -11.4 -79.3 -6.55 -74.2 1.05 -64.65 8.1 -56.4 14.25 -43.8 20.7 -42.0 25.4 -42.55 29.2 -43.1 33.05 -46.2 36.9 -69.3 30.15 -86.15 21.65 -104.45 12.45 -114.15 1.75 -121.3 -6.1 -119.85 -18.65 -118.35 -31.75 -108.3 -37.95 -98.75 -43.85 -79.9 -41.7 -69.5 -40.5 -46.8 -34.8 -34.3 -31.65 0.95 -20.05 33.95 -9.15 51.75 -5.15 Z" fill="none" stroke="#990066" stroke-linecap="round" stroke-linejoin="round" stroke-opacity="0.69411767" stroke-width="1.0"/>
  </g>
</svg>
