<?xml version="1.0" encoding="UTF-8" standalone="no"?>
<svg xmlns:ffdec="https://www.free-decompiler.com/flash" xmlns:xlink="http://www.w3.org/1999/xlink" ffdec:objectType="shape" height="77.9px" width="248.05px" xmlns="http://www.w3.org/2000/svg">
  <g transform="matrix(1.0, 0.0, 0.0, 1.0, 122.15, 35.65)">
    <path d="M-104.8 -35.15 Q-95.45 -12.85 -79.35 -0.7 -65.75 9.5 -43.15 15.1 -40.85 22.55 -42.5 29.6 -44.1 36.4 -49.15 41.75 -71.05 38.35 -87.65 29.4 -103.0 21.1 -115.45 7.0 -124.65 -3.4 -120.15 -15.9 -116.4 -26.5 -104.8 -35.15" fill="#990099" fill-opacity="0.4" fill-rule="evenodd" stroke="none"/>
    <path d="M-104.8 -35.15 Q-95.45 -12.85 -79.35 -0.7 -65.75 9.5 -43.15 15.1 -40.85 22.55 -42.5 29.6 -44.1 36.4 -49.15 41.75 -71.05 38.35 -87.65 29.4 -103.0 21.1 -115.45 7.0 -124.65 -3.4 -120.15 -15.9 -116.4 -26.5 -104.8 -35.15 Z" fill="none" stroke="#990066" stroke-linecap="round" stroke-linejoin="round" stroke-opacity="0.69411767" stroke-width="1.0"/>
    <path d="M41.5 8.3 Q63.6 18.65 85.25 18.35 105.9 18.1 125.4 8.3 124.75 1.4 121.45 -4.45 118.0 -10.35 112.7 -13.6 79.85 -0.35 48.5 -25.35 42.85 -19.25 40.55 -10.0 38.05 0.25 41.5 8.3" fill="#990099" fill-opacity="0.4" fill-rule="evenodd" stroke="none"/>
    <path d="M41.5 8.3 Q63.6 18.65 85.25 18.35 105.9 18.1 125.4 8.3 124.75 1.4 121.45 -4.45 118.0 -10.35 112.7 -13.6 79.85 -0.35 48.5 -25.35 42.85 -19.25 40.55 -10.0 38.05 0.25 41.5 8.3 Z" fill="none" stroke="#990066" stroke-linecap="round" stroke-linejoin="round" stroke-opacity="0.69411767" stroke-width="1.0"/>
  </g>
</svg>
