<?xml version="1.0" encoding="UTF-8" standalone="no"?>
<svg xmlns:ffdec="https://www.free-decompiler.com/flash" xmlns:xlink="http://www.w3.org/1999/xlink" ffdec:objectType="shape" height="68.9px" width="249.1px" xmlns="http://www.w3.org/2000/svg">
  <g transform="matrix(1.0, 0.0, 0.0, 1.0, 116.85, 32.15)">
    <path d="M76.25 -4.85 Q91.2 -4.3 101.05 -6.95 112.45 -10.0 118.6 -17.55 123.2 -17.55 126.85 -15.25 130.4 -13.05 131.75 -9.65 125.55 4.05 113.55 10.15 100.55 16.7 76.9 16.6 60.1 16.45 39.65 12.7 26.05 10.2 3.8 4.55 -21.15 -1.8 -29.5 -3.55 -47.05 -7.2 -59.0 -7.2 -72.65 -7.25 -80.15 -3.35 -87.3 0.4 -82.75 4.05 -67.2 16.65 -37.95 17.95 -31.95 23.95 -35.15 34.15 -44.1 37.4 -62.05 35.65 -82.5 33.6 -96.55 25.85 -108.65 19.15 -113.5 10.2 -117.9 2.1 -115.55 -6.2 -111.75 -19.6 -95.4 -26.35 -79.65 -32.85 -56.95 -31.35 -44.3 -30.5 -27.1 -26.4 L4.8 -17.85 Q48.25 -5.85 76.25 -4.85" fill="#990099" fill-opacity="0.4" fill-rule="evenodd" stroke="none"/>
    <path d="M76.25 -4.85 Q91.2 -4.3 101.05 -6.95 112.45 -10.0 118.6 -17.55 123.2 -17.55 126.85 -15.25 130.4 -13.05 131.75 -9.65 125.55 4.05 113.55 10.15 100.55 16.7 76.9 16.6 60.1 16.45 39.65 12.7 26.05 10.2 3.8 4.55 -21.15 -1.8 -29.5 -3.55 -47.05 -7.2 -59.0 -7.2 -72.65 -7.25 -80.15 -3.35 -87.3 0.4 -82.75 4.05 -67.2 16.65 -37.95 17.95 -31.95 23.95 -35.15 34.15 -44.1 37.4 -62.05 35.65 -82.5 33.6 -96.55 25.85 -108.65 19.15 -113.5 10.2 -117.9 2.1 -115.55 -6.2 -111.75 -19.6 -95.4 -26.35 -79.65 -32.85 -56.95 -31.35 -44.3 -30.5 -27.1 -26.4 L4.8 -17.85 Q48.25 -5.85 76.25 -4.85 Z" fill="none" stroke="#990066" stroke-linecap="round" stroke-linejoin="round" stroke-opacity="0.69411767" stroke-width="1.0"/>
  </g>
</svg>
