<?xml version="1.0" encoding="UTF-8" standalone="no"?>
<svg xmlns:ffdec="https://www.free-decompiler.com/flash" xmlns:xlink="http://www.w3.org/1999/xlink" ffdec:objectType="shape" height="67.1px" width="259.75px" xmlns="http://www.w3.org/2000/svg">
  <g transform="matrix(1.0, 0.0, 0.0, 1.0, 122.35, 21.4)">
    <path d="M-115.8 -15.95 Q-105.75 6.05 -80.05 12.95 -60.35 18.2 -39.5 13.8 -36.35 16.85 -35.55 25.35 -34.7 33.2 -36.2 39.9 -50.85 45.2 -68.05 45.2 -88.9 45.2 -103.0 36.7 -118.5 27.2 -121.35 7.35 -122.5 -0.65 -120.9 -7.3 -119.3 -13.85 -115.8 -15.95" fill="#990099" fill-opacity="0.4" fill-rule="evenodd" stroke="none"/>
    <path d="M-115.8 -15.95 Q-105.75 6.05 -80.05 12.95 -60.35 18.2 -39.5 13.8 -36.35 16.85 -35.55 25.35 -34.7 33.2 -36.2 39.9 -50.85 45.2 -68.05 45.2 -88.9 45.2 -103.0 36.7 -118.5 27.2 -121.35 7.35 -122.5 -0.65 -120.9 -7.3 -119.3 -13.85 -115.8 -15.95 Z" fill="none" stroke="#990066" stroke-linecap="round" stroke-linejoin="round" stroke-opacity="0.69411767" stroke-width="1.0"/>
    <path d="M51.7 -1.2 Q51.65 9.85 56.7 19.85 79.2 29.2 103.1 20.35 125.05 12.25 136.9 -6.2 134.65 -11.85 127.05 -16.25 120.0 -20.35 113.0 -20.9 109.8 -15.05 104.25 -10.9 98.25 -6.3 91.05 -4.95 73.6 -1.6 57.0 -17.9 51.75 -12.3 51.7 -1.2" fill="#990099" fill-opacity="0.4" fill-rule="evenodd" stroke="none"/>
    <path d="M51.7 -1.2 Q51.65 9.85 56.7 19.85 79.2 29.2 103.1 20.35 125.05 12.25 136.9 -6.2 134.65 -11.85 127.05 -16.25 120.0 -20.35 113.0 -20.9 109.8 -15.05 104.25 -10.9 98.25 -6.3 91.05 -4.95 73.6 -1.6 57.0 -17.9 51.75 -12.3 51.7 -1.2 Z" fill="none" stroke="#990066" stroke-linecap="round" stroke-linejoin="round" stroke-opacity="0.69411767" stroke-width="1.0"/>
  </g>
</svg>
