<?xml version="1.0" encoding="UTF-8" standalone="no"?>
<svg xmlns:ffdec="https://www.free-decompiler.com/flash" xmlns:xlink="http://www.w3.org/1999/xlink" ffdec:objectType="shape" height="77.0px" width="253.8px" xmlns="http://www.w3.org/2000/svg">
  <g transform="matrix(1.0, 0.0, 0.0, 1.0, 114.65, 31.4)">
    <path d="M47.3 -12.1 Q69.65 -8.5 84.7 -9.0 99.05 -9.45 110.15 -14.95 122.35 -20.95 125.2 -30.65 129.9 -31.45 133.35 -29.65 136.85 -27.9 138.65 -23.75 137.4 -8.75 121.75 1.25 107.1 10.6 86.35 11.75 71.15 12.6 48.2 9.6 L6.5 2.9 Q-19.6 -1.55 -33.5 -2.8 -54.05 -4.65 -66.6 -2.05 -78.25 0.4 -82.0 8.55 -83.55 11.9 -82.65 14.6 -81.75 17.45 -78.65 18.3 -67.2 21.5 -52.9 21.0 -39.75 20.55 -29.3 17.25 -26.7 19.85 -25.75 24.0 -24.8 28.2 -25.85 32.1 -38.3 40.75 -50.45 43.5 -63.75 46.55 -81.75 43.8 -99.8 41.1 -108.6 28.45 -116.55 17.05 -113.15 4.85 -108.65 -11.25 -97.05 -19.2 -87.0 -26.05 -69.0 -28.25 -54.95 -29.95 -33.75 -27.15 -19.75 -25.3 6.45 -19.95 35.95 -13.9 47.3 -12.1" fill="#990099" fill-opacity="0.4" fill-rule="evenodd" stroke="none"/>
    <path d="M47.3 -12.1 Q69.65 -8.5 84.7 -9.0 99.05 -9.45 110.15 -14.95 122.35 -20.95 125.2 -30.65 129.9 -31.45 133.35 -29.65 136.85 -27.9 138.65 -23.75 137.4 -8.75 121.75 1.25 107.1 10.6 86.35 11.75 71.15 12.6 48.2 9.6 L6.5 2.9 Q-19.6 -1.55 -33.5 -2.8 -54.05 -4.65 -66.6 -2.05 -78.25 0.4 -82.0 8.55 -83.55 11.9 -82.65 14.6 -81.75 17.45 -78.65 18.3 -67.2 21.5 -52.9 21.0 -39.75 20.55 -29.3 17.25 -26.7 19.85 -25.75 24.0 -24.8 28.2 -25.85 32.1 -38.3 40.75 -50.45 43.5 -63.75 46.55 -81.75 43.8 -99.8 41.1 -108.6 28.45 -116.55 17.05 -113.15 4.85 -108.65 -11.25 -97.05 -19.2 -87.0 -26.05 -69.0 -28.25 -54.95 -29.95 -33.75 -27.15 -19.75 -25.3 6.45 -19.95 35.95 -13.9 47.3 -12.1 Z" fill="none" stroke="#990066" stroke-linecap="round" stroke-linejoin="round" stroke-opacity="0.69411767" stroke-width="1.0"/>
  </g>
</svg>
