<?xml version="1.0" encoding="UTF-8" standalone="no"?>
<svg xmlns:ffdec="https://www.free-decompiler.com/flash" xmlns:xlink="http://www.w3.org/1999/xlink" ffdec:objectType="shape" height="85.85px" width="258.55px" xmlns="http://www.w3.org/2000/svg">
  <g transform="matrix(1.0, 0.0, 0.0, 1.0, 118.25, 35.35)">
    <path d="M-94.9 42.75 Q-101.55 37.3 -106.85 30.5 -120.15 13.25 -117.25 -1.7 -100.85 17.8 -76.3 20.25 -56.45 22.2 -36.3 13.15 -31.15 18.3 -28.4 23.65 -24.7 30.8 -25.65 37.7 -44.95 44.6 -55.8 47.15 -70.95 50.75 -83.75 49.8 -88.7 47.8 -94.9 42.75" fill="#990099" fill-opacity="0.4" fill-rule="evenodd" stroke="none"/>
    <path d="M-94.9 42.75 Q-101.55 37.3 -106.85 30.5 -120.15 13.25 -117.25 -1.7 -100.85 17.8 -76.3 20.25 -56.45 22.2 -36.3 13.15 -31.15 18.3 -28.4 23.65 -24.7 30.8 -25.65 37.7 -44.95 44.6 -55.8 47.15 -70.95 50.75 -83.75 49.8 -88.7 47.8 -94.9 42.75 Z" fill="none" stroke="#990066" stroke-linecap="round" stroke-linejoin="round" stroke-opacity="0.69411767" stroke-width="1.0"/>
    <path d="M63.45 10.45 Q67.35 20.95 77.05 29.2 104.7 26.1 121.45 12.3 135.6 0.6 139.8 -16.65 139.0 -22.1 135.3 -27.3 131.15 -32.85 125.65 -34.85 113.45 -16.4 97.6 -10.75 83.35 -5.7 63.25 -10.35 59.45 -0.5 63.45 10.45" fill="#990099" fill-opacity="0.4" fill-rule="evenodd" stroke="none"/>
    <path d="M63.45 10.45 Q67.35 20.95 77.05 29.2 104.7 26.1 121.45 12.3 135.6 0.6 139.8 -16.65 139.0 -22.1 135.3 -27.3 131.15 -32.85 125.65 -34.85 113.45 -16.4 97.6 -10.75 83.35 -5.7 63.25 -10.35 59.45 -0.5 63.45 10.45 Z" fill="none" stroke="#990066" stroke-linecap="round" stroke-linejoin="round" stroke-opacity="0.69411767" stroke-width="1.0"/>
  </g>
</svg>
