<?xml version="1.0" encoding="UTF-8" standalone="no"?>
<svg xmlns:ffdec="https://www.free-decompiler.com/flash" xmlns:xlink="http://www.w3.org/1999/xlink" ffdec:objectType="shape" height="103.4px" width="246.9px" xmlns="http://www.w3.org/2000/svg">
  <g transform="matrix(1.0, 0.0, 0.0, 1.0, 106.3, 43.0)">
    <path d="M61.7 -8.6 Q82.7 -7.8 100.1 -12.75 110.9 -15.8 117.5 -23.8 123.3 -30.8 123.85 -38.8 124.1 -42.6 130.4 -42.5 136.5 -42.35 139.95 -39.15 141.1 -25.5 132.85 -11.85 125.45 0.4 115.5 5.35 97.95 14.05 68.9 14.15 40.4 14.25 5.0 6.05 -19.1 0.45 -37.1 0.0 -56.85 -0.45 -66.6 5.35 -79.3 13.0 -78.75 23.85 -78.5 28.25 -75.95 31.15 -73.35 34.1 -69.65 34.15 -59.4 34.25 -51.3 29.3 -42.55 23.95 -38.3 13.9 -33.15 13.8 -28.6 15.6 -24.35 17.25 -21.75 20.1 -24.8 41.65 -40.6 52.05 -55.8 62.1 -78.65 59.25 -96.35 57.1 -102.75 42.5 -108.05 30.55 -104.1 17.05 -100.15 3.5 -92.45 -4.8 -83.85 -14.05 -69.0 -18.75 -53.25 -23.8 -36.05 -23.35 -18.5 -22.95 8.3 -16.65 39.55 -9.4 61.7 -8.6" fill="#990099" fill-opacity="0.4" fill-rule="evenodd" stroke="none"/>
    <path d="M61.7 -8.6 Q82.7 -7.8 100.1 -12.75 110.9 -15.8 117.5 -23.8 123.3 -30.8 123.85 -38.8 124.1 -42.6 130.4 -42.5 136.5 -42.35 139.95 -39.15 141.1 -25.5 132.85 -11.85 125.45 0.4 115.5 5.35 97.95 14.05 68.9 14.15 40.4 14.25 5.0 6.05 -19.1 0.45 -37.1 0.0 -56.85 -0.45 -66.6 5.35 -79.3 13.0 -78.75 23.85 -78.5 28.25 -75.95 31.15 -73.35 34.1 -69.65 34.15 -59.4 34.25 -51.3 29.3 -42.55 23.95 -38.3 13.9 -33.15 13.8 -28.6 15.6 -24.35 17.25 -21.75 20.1 -24.8 41.65 -40.6 52.05 -55.8 62.1 -78.65 59.25 -96.35 57.1 -102.75 42.5 -108.05 30.55 -104.1 17.05 -100.15 3.5 -92.45 -4.8 -83.85 -14.05 -69.0 -18.75 -53.25 -23.8 -36.05 -23.35 -18.5 -22.95 8.3 -16.65 39.55 -9.4 61.7 -8.6 Z" fill="none" stroke="#990066" stroke-linecap="round" stroke-linejoin="round" stroke-opacity="0.69411767" stroke-width="1.0"/>
  </g>
</svg>
