<?xml version="1.0" encoding="UTF-8" standalone="no"?>
<svg xmlns:ffdec="https://www.free-decompiler.com/flash" xmlns:xlink="http://www.w3.org/1999/xlink" ffdec:objectType="shape" height="113.2px" width="256.4px" xmlns="http://www.w3.org/2000/svg">
  <g transform="matrix(1.0, 0.0, 0.0, 1.0, 110.8, 43.3)">
    <path d="M-110.3 21.55 Q-101.55 35.4 -90.8 40.6 -81.0 45.4 -70.85 42.65 -61.45 40.1 -53.75 31.6 -46.2 23.2 -42.6 11.5 -33.9 11.5 -28.7 13.05 -22.35 15.0 -17.45 20.1 -20.65 42.8 -36.25 57.05 -52.55 71.95 -73.35 68.9 -109.05 58.25 -110.3 21.55" fill="#990099" fill-opacity="0.4" fill-rule="evenodd" stroke="none"/>
    <path d="M-110.3 21.55 Q-109.05 58.25 -73.35 68.9 -52.55 71.95 -36.25 57.05 -20.65 42.8 -17.45 20.1 -22.35 15.0 -28.7 13.05 -33.9 11.5 -42.6 11.5 -46.2 23.2 -53.75 31.6 -61.45 40.1 -70.85 42.65 -81.0 45.4 -90.8 40.6 -101.55 35.4 -110.3 21.55 Z" fill="none" stroke="#990066" stroke-linecap="round" stroke-linejoin="round" stroke-opacity="0.69411767" stroke-width="1.0"/>
    <path d="M97.3 25.8 Q124.0 18.65 136.45 0.6 148.35 -16.65 143.9 -38.55 139.75 -41.95 132.45 -42.65 124.7 -43.45 119.0 -40.5 119.5 -20.8 106.1 -11.35 93.35 -2.3 74.25 -6.3 74.3 4.95 79.95 13.1 85.9 21.9 97.3 25.8" fill="#990099" fill-opacity="0.4" fill-rule="evenodd" stroke="none"/>
    <path d="M97.3 25.8 Q124.0 18.65 136.45 0.6 148.35 -16.65 143.9 -38.55 139.75 -41.95 132.45 -42.65 124.7 -43.45 119.0 -40.5 119.5 -20.8 106.1 -11.35 93.35 -2.3 74.25 -6.3 74.3 4.95 79.95 13.1 85.9 21.9 97.3 25.8 Z" fill="none" stroke="#990066" stroke-linecap="round" stroke-linejoin="round" stroke-opacity="0.69411767" stroke-width="1.0"/>
  </g>
</svg>
