<?xml version="1.0" encoding="UTF-8" standalone="no"?>
<svg xmlns:ffdec="https://www.free-decompiler.com/flash" xmlns:xlink="http://www.w3.org/1999/xlink" ffdec:objectType="shape" height="118.5px" width="232.05px" xmlns="http://www.w3.org/2000/svg">
  <g transform="matrix(1.0, 0.0, 0.0, 1.0, 88.65, 56.05)">
    <path d="M69.2 -11.1 Q94.5 -10.05 106.8 -16.75 119.8 -23.85 123.25 -33.9 124.6 -37.75 124.85 -43.0 L124.85 -52.25 Q124.85 -56.1 131.75 -55.45 138.15 -54.85 141.9 -51.95 144.6 -30.5 140.0 -17.6 134.8 -3.05 119.2 4.35 104.5 11.35 77.25 11.55 L26.55 9.3 2.25 8.0 Q-7.15 7.65 -16.05 8.2 L-23.1 8.4 Q-15.45 30.4 -21.05 44.25 -27.05 59.05 -47.5 61.6 -64.25 63.7 -76.45 52.8 -87.3 43.15 -88.05 30.8 -88.8 19.15 -82.85 9.35 -77.0 -0.25 -65.95 -6.0 -53.65 -12.4 -30.55 -14.8 -6.7 -17.2 24.4 -14.9 L46.75 -12.8 69.2 -11.1 M-40.4 34.85 Q-34.1 26.85 -37.85 11.4 L-49.1 13.3 Q-55.3 14.6 -57.9 16.75 -65.9 23.4 -64.2 30.4 -62.6 36.75 -54.9 39.2 -46.0 42.05 -40.4 34.85" fill="#990099" fill-opacity="0.4" fill-rule="evenodd" stroke="none"/>
    <path d="M69.2 -11.1 Q94.5 -10.05 106.8 -16.75 119.8 -23.85 123.25 -33.9 124.6 -37.75 124.85 -43.0 L124.85 -52.25 Q124.85 -56.1 131.75 -55.45 138.15 -54.85 141.9 -51.95 144.6 -30.5 140.0 -17.6 134.8 -3.05 119.2 4.35 104.5 11.35 77.25 11.55 L26.55 9.3 2.25 8.0 Q-7.15 7.65 -16.05 8.2 L-23.1 8.4 Q-15.45 30.4 -21.05 44.25 -27.05 59.05 -47.5 61.6 -64.25 63.7 -76.45 52.8 -87.3 43.15 -88.05 30.8 -88.8 19.15 -82.85 9.35 -77.0 -0.25 -65.95 -6.0 -53.65 -12.4 -30.55 -14.8 -6.7 -17.2 24.4 -14.9 L46.75 -12.8 69.2 -11.1 M-40.4 34.85 Q-46.0 42.05 -54.9 39.2 -62.6 36.75 -64.2 30.4 -65.9 23.4 -57.9 16.75 -55.3 14.6 -49.1 13.3 L-37.85 11.4 Q-34.1 26.85 -40.4 34.85 Z" fill="none" stroke="#990066" stroke-linecap="round" stroke-linejoin="round" stroke-opacity="0.69411767" stroke-width="1.0"/>
  </g>
</svg>
