<?xml version="1.0" encoding="UTF-8" standalone="no"?>
<svg xmlns:ffdec="https://www.free-decompiler.com/flash" xmlns:xlink="http://www.w3.org/1999/xlink" ffdec:objectType="shape" height="124.65px" width="247.8px" xmlns="http://www.w3.org/2000/svg">
  <g transform="matrix(1.0, 0.0, 0.0, 1.0, 96.2, 56.1)">
    <path d="M116.35 18.6 Q140.8 6.1 148.3 -15.45 155.45 -35.85 144.2 -53.85 139.45 -56.2 132.15 -55.4 124.4 -54.55 119.45 -50.45 126.9 -31.15 118.25 -17.0 109.3 -2.35 88.1 -2.05 90.4 8.15 97.25 12.85 103.45 17.05 116.35 18.6" fill="#990099" fill-opacity="0.4" fill-rule="evenodd" stroke="none"/>
    <path d="M116.35 18.6 Q140.8 6.1 148.3 -15.45 155.45 -35.85 144.2 -53.85 139.45 -56.2 132.15 -55.4 124.4 -54.55 119.45 -50.45 126.9 -31.15 118.25 -17.0 109.3 -2.35 88.1 -2.05 90.4 8.15 97.25 12.85 103.45 17.05 116.35 18.6 Z" fill="none" stroke="#990066" stroke-linecap="round" stroke-linejoin="round" stroke-opacity="0.69411767" stroke-width="1.0"/>
    <path d="M-95.7 40.0 Q-67.4 57.95 -52.4 46.3 -45.85 41.3 -43.5 31.3 -41.15 21.6 -43.05 9.2 -43.8 4.9 -31.75 4.6 -19.7 4.3 -16.05 8.25 -8.75 31.15 -12.45 45.25 -16.85 61.95 -36.9 67.5 -59.45 70.0 -75.35 61.35 -88.9 54.1 -95.7 40.0" fill="#990099" fill-opacity="0.4" fill-rule="evenodd" stroke="none"/>
    <path d="M-95.7 40.0 Q-67.4 57.95 -52.4 46.3 -45.85 41.3 -43.5 31.3 -41.15 21.6 -43.05 9.2 -43.8 4.9 -31.75 4.6 -19.7 4.3 -16.05 8.25 -8.75 31.15 -12.45 45.25 -16.85 61.95 -36.9 67.5 -59.45 70.0 -75.35 61.35 -88.9 54.1 -95.7 40.0 Z" fill="none" stroke="#990066" stroke-linecap="round" stroke-linejoin="round" stroke-opacity="0.69411767" stroke-width="1.0"/>
  </g>
</svg>
