<?xml version="1.0" encoding="UTF-8" standalone="no"?>
<svg xmlns:ffdec="https://www.free-decompiler.com/flash" xmlns:xlink="http://www.w3.org/1999/xlink" ffdec:objectType="shape" height="134.9px" width="221.2px" xmlns="http://www.w3.org/2000/svg">
  <g transform="matrix(1.0, 0.0, 0.0, 1.0, 78.1, 69.35)">
    <path d="M76.4 -20.45 Q95.15 -21.3 103.6 -23.9 115.6 -27.5 121.8 -38.0 128.95 -50.05 125.25 -66.95 130.25 -68.75 133.65 -68.85 137.8 -68.95 140.6 -66.6 146.05 -40.85 136.55 -23.45 128.1 -8.05 110.6 -2.85 97.15 1.15 76.2 3.4 L35.8 6.7 Q19.95 7.9 8.8 9.9 -3.75 12.2 -17.75 16.75 -13.45 28.35 -14.5 38.4 -15.7 49.65 -23.45 56.25 -33.65 65.0 -47.85 65.05 -63.75 65.1 -71.95 52.55 -81.1 38.5 -75.45 24.65 -69.45 10.0 -48.2 -0.65 -31.3 -9.1 -9.95 -13.2 5.3 -16.15 31.75 -18.15 L76.4 -20.45 M-32.5 18.75 L-38.9 22.95 Q-46.0 27.8 -49.2 31.15 -53.4 35.6 -50.5 39.35 -47.6 43.05 -41.5 41.5 -35.1 39.85 -33.0 32.85 -31.35 27.3 -32.5 18.75" fill="#990099" fill-opacity="0.4" fill-rule="evenodd" stroke="none"/>
    <path d="M76.4 -20.45 Q95.15 -21.3 103.6 -23.9 115.6 -27.5 121.8 -38.0 128.95 -50.05 125.25 -66.95 130.25 -68.75 133.65 -68.85 137.8 -68.95 140.6 -66.6 146.05 -40.85 136.55 -23.45 128.1 -8.05 110.6 -2.85 97.15 1.15 76.2 3.4 L35.8 6.7 Q19.95 7.9 8.8 9.9 -3.75 12.2 -17.75 16.75 -13.45 28.35 -14.5 38.4 -15.7 49.65 -23.45 56.25 -33.65 65.0 -47.85 65.05 -63.75 65.1 -71.95 52.55 -81.1 38.5 -75.45 24.65 -69.45 10.0 -48.2 -0.65 -31.3 -9.1 -9.95 -13.2 5.3 -16.15 31.75 -18.15 L76.4 -20.45 M-32.5 18.75 Q-31.35 27.3 -33.0 32.85 -35.1 39.85 -41.5 41.5 -47.6 43.05 -50.5 39.35 -53.4 35.6 -49.2 31.15 -46.0 27.8 -38.9 22.95 L-32.5 18.75 Z" fill="none" stroke="#990066" stroke-linecap="round" stroke-linejoin="round" stroke-opacity="0.69411767" stroke-width="1.0"/>
  </g>
</svg>
