<?xml version="1.0" encoding="UTF-8" standalone="no"?>
<svg xmlns:ffdec="https://www.free-decompiler.com/flash" xmlns:xlink="http://www.w3.org/1999/xlink" ffdec:objectType="shape" height="140.9px" width="228.7px" xmlns="http://www.w3.org/2000/svg">
  <g transform="matrix(1.0, 0.0, 0.0, 1.0, 75.3, 71.85)">
    <path d="M141.9 7.15 Q153.4 -10.25 152.9 -32.0 152.65 -46.95 146.05 -67.35 140.6 -70.45 133.1 -71.15 124.85 -72.0 121.2 -69.05 126.2 -46.85 124.2 -34.0 121.5 -16.8 106.2 -5.9 106.9 4.75 118.8 8.85 130.4 12.9 141.9 7.15" fill="#990099" fill-opacity="0.4" fill-rule="evenodd" stroke="none"/>
    <path d="M141.9 7.15 Q153.4 -10.25 152.9 -32.0 152.65 -46.95 146.05 -67.35 140.6 -70.45 133.1 -71.15 124.85 -72.0 121.2 -69.05 126.2 -46.85 124.2 -34.0 121.5 -16.8 106.2 -5.9 106.9 4.75 118.8 8.85 130.4 12.9 141.9 7.15 Z" fill="none" stroke="#990066" stroke-linecap="round" stroke-linejoin="round" stroke-opacity="0.69411767" stroke-width="1.0"/>
    <path d="M-74.8 54.5 Q-56.35 55.25 -46.65 52.55 -37.2 49.9 -34.45 43.45 -31.85 37.7 -34.25 27.35 -36.05 19.45 -42.2 4.1 -43.0 2.2 -39.35 0.3 -36.05 -1.4 -30.75 -2.3 L-21.05 -2.75 Q-16.35 -2.2 -15.15 0.0 -3.7 20.75 -4.4 37.15 -5.1 55.0 -20.1 62.6 -35.55 70.35 -50.75 68.0 -65.8 65.8 -74.8 54.5" fill="#990099" fill-opacity="0.4" fill-rule="evenodd" stroke="none"/>
    <path d="M-74.8 54.5 Q-56.35 55.25 -46.65 52.55 -37.2 49.9 -34.45 43.45 -31.85 37.7 -34.25 27.35 -36.05 19.45 -42.2 4.1 -43.0 2.2 -39.35 0.3 -36.05 -1.4 -30.75 -2.3 L-21.05 -2.75 Q-16.35 -2.2 -15.15 0.0 -3.7 20.75 -4.4 37.15 -5.1 55.0 -20.1 62.6 -35.55 70.35 -50.75 68.0 -65.8 65.8 -74.8 54.5 Z" fill="none" stroke="#990066" stroke-linecap="round" stroke-linejoin="round" stroke-opacity="0.69411767" stroke-width="1.0"/>
  </g>
</svg>
