<?xml version="1.0" encoding="UTF-8" standalone="no"?>
<svg xmlns:ffdec="https://www.free-decompiler.com/flash" xmlns:xlink="http://www.w3.org/1999/xlink" ffdec:objectType="shape" height="147.8px" width="200.4px" xmlns="http://www.w3.org/2000/svg">
  <g transform="matrix(1.0, 0.0, 0.0, 1.0, 64.0, 73.55)">
    <path d="M75.95 -18.55 Q91.25 -23.05 99.95 -28.0 109.2 -33.3 113.9 -40.85 118.5 -48.2 119.3 -55.65 120.05 -63.0 117.2 -71.1 118.65 -73.45 125.3 -72.95 L131.65 -71.95 Q136.1 -63.6 135.9 -53.05 135.75 -42.3 130.85 -32.2 124.7 -19.45 113.1 -11.45 101.95 -3.75 82.55 1.65 70.75 4.95 51.05 6.3 L18.95 9.1 Q7.9 10.8 3.35 11.9 -5.25 14.05 -13.2 18.15 -9.55 25.2 -9.0 33.75 -8.45 42.55 -11.4 50.25 -17.05 65.0 -27.75 70.85 -38.55 76.8 -48.9 70.6 -56.65 66.0 -60.5 56.95 -64.25 48.25 -63.35 38.15 -62.4 27.7 -56.75 19.05 -50.55 9.6 -40.0 4.55 -41.25 1.15 -41.1 -1.25 -38.55 -3.8 -35.2 -5.0 -32.25 -6.0 -27.8 -6.25 -25.75 -4.85 -23.9 -2.1 L-11.8 -6.0 Q1.4 -10.05 12.75 -12.0 21.45 -13.45 46.85 -15.1 69.1 -16.55 75.95 -18.55 M-34.7 48.35 Q-30.6 46.5 -29.3 39.05 -28.0 31.7 -30.55 25.55 -33.9 27.4 -36.35 31.85 -38.55 35.85 -39.25 40.35 -39.95 44.75 -38.85 47.1 -37.65 49.65 -34.7 48.35" fill="#990099" fill-opacity="0.4" fill-rule="evenodd" stroke="none"/>
    <path d="M75.95 -18.55 Q91.25 -23.05 99.95 -28.0 109.2 -33.3 113.9 -40.85 118.5 -48.2 119.3 -55.65 120.05 -63.0 117.2 -71.1 118.65 -73.45 125.3 -72.95 L131.65 -71.95 Q136.1 -63.6 135.9 -53.05 135.75 -42.3 130.85 -32.2 124.7 -19.45 113.1 -11.45 101.95 -3.75 82.55 1.65 70.75 4.95 51.05 6.3 L18.95 9.1 Q7.9 10.8 3.35 11.9 -5.25 14.05 -13.2 18.15 -9.55 25.2 -9.0 33.75 -8.45 42.55 -11.4 50.25 -17.05 65.0 -27.75 70.85 -38.55 76.8 -48.9 70.6 -56.65 66.0 -60.5 56.95 -64.25 48.25 -63.35 38.15 -62.4 27.7 -56.75 19.05 -50.55 9.6 -40.0 4.55 -41.25 1.15 -41.1 -1.25 -38.55 -3.8 -35.2 -5.0 -32.25 -6.0 -27.8 -6.25 -25.75 -4.85 -23.9 -2.1 L-11.8 -6.0 Q1.4 -10.05 12.75 -12.0 21.45 -13.45 46.85 -15.1 69.1 -16.55 75.95 -18.55 M-34.7 48.35 Q-37.65 49.65 -38.85 47.1 -39.95 44.75 -39.25 40.35 -38.55 35.85 -36.35 31.85 -33.9 27.4 -30.55 25.55 -28.0 31.7 -29.3 39.05 -30.6 46.5 -34.7 48.35 Z" fill="none" stroke="#990066" stroke-linecap="round" stroke-linejoin="round" stroke-opacity="0.69411767" stroke-width="1.0"/>
  </g>
</svg>
