<?xml version="1.0" encoding="UTF-8" standalone="no"?>
<svg xmlns:ffdec="https://www.free-decompiler.com/flash" xmlns:xlink="http://www.w3.org/1999/xlink" ffdec:objectType="shape" height="147.15px" width="215.8px" xmlns="http://www.w3.org/2000/svg">
  <g transform="matrix(1.0, 0.0, 0.0, 1.0, 58.4, 78.4)">
    <path d="M132.1 -3.2 Q143.5 -3.9 154.8 -10.05 163.7 -46.4 135.1 -77.45 129.7 -78.85 122.1 -76.0 114.9 -73.35 111.25 -69.05 119.05 -51.1 119.95 -39.3 120.95 -25.3 113.8 -9.2 119.45 -2.4 132.1 -3.2" fill="#990099" fill-opacity="0.4" fill-rule="evenodd" stroke="none"/>
    <path d="M132.1 -3.2 Q143.5 -3.9 154.8 -10.05 163.7 -46.4 135.1 -77.45 129.7 -78.85 122.1 -76.0 114.9 -73.35 111.25 -69.05 119.05 -51.1 119.95 -39.3 120.95 -25.3 113.8 -9.2 119.45 -2.4 132.1 -3.2 Z" fill="none" stroke="#990066" stroke-linecap="round" stroke-linejoin="round" stroke-opacity="0.69411767" stroke-width="1.0"/>
    <path d="M-43.2 0.15 Q-40.35 -2.05 -35.2 -3.95 -22.55 -8.65 -18.8 -5.0 -6.25 7.2 -2.65 22.5 1.35 39.25 -7.95 51.75 -16.4 63.15 -31.05 66.85 -45.85 70.6 -57.9 64.15 -5.2 49.15 -44.95 4.1 -46.3 2.6 -43.2 0.15" fill="#990099" fill-opacity="0.4" fill-rule="evenodd" stroke="none"/>
    <path d="M-43.2 0.15 Q-40.35 -2.05 -35.2 -3.95 -22.55 -8.65 -18.8 -5.0 -6.25 7.2 -2.65 22.5 1.35 39.25 -7.95 51.75 -16.4 63.15 -31.05 66.85 -45.85 70.6 -57.9 64.15 -5.2 49.15 -44.95 4.1 -46.3 2.6 -43.2 0.15 Z" fill="none" stroke="#990066" stroke-linecap="round" stroke-linejoin="round" stroke-opacity="0.69411767" stroke-width="1.0"/>
  </g>
</svg>
