<?xml version="1.0" encoding="UTF-8" standalone="no"?>
<svg xmlns:ffdec="https://www.free-decompiler.com/flash" xmlns:xlink="http://www.w3.org/1999/xlink" ffdec:objectType="shape" height="153.85px" width="190.85px" xmlns="http://www.w3.org/2000/svg">
  <g transform="matrix(1.0, 0.0, 0.0, 1.0, 55.15, 83.4)">
    <path d="M30.6 -13.9 Q37.9 -15.1 60.3 -16.55 78.8 -17.7 86.7 -20.15 94.9 -22.65 101.5 -27.25 108.65 -32.25 112.5 -38.7 121.4 -53.65 106.65 -76.4 108.4 -80.45 113.9 -82.1 118.9 -83.6 122.9 -82.2 131.7 -69.75 134.25 -56.95 137.3 -41.55 130.45 -28.65 125.95 -20.2 116.3 -11.7 106.45 -3.0 96.95 0.6 87.6 4.15 67.85 6.25 L37.2 9.75 Q27.7 11.4 15.55 15.6 L-2.85 22.5 Q-0.1 27.3 -0.25 34.8 -0.4 42.35 -3.35 49.35 -6.9 57.85 -14.05 63.45 -22.3 69.95 -32.55 69.95 -42.15 69.95 -48.6 63.6 -55.2 57.05 -54.6 47.45 -53.95 37.5 -49.2 28.85 -44.05 19.5 -34.4 12.2 -35.3 9.95 -38.2 7.1 L-43.35 1.95 Q-44.7 0.35 -43.65 -1.7 -42.65 -3.6 -40.05 -5.15 -33.9 -8.85 -29.2 -6.4 -26.55 -5.0 -23.75 -2.2 L-19.15 2.5 5.2 -7.05 Q19.35 -12.05 30.6 -13.9" fill="#990099" fill-opacity="0.4" fill-rule="evenodd" stroke="none"/>
    <path d="M30.6 -13.9 Q37.9 -15.1 60.3 -16.55 78.8 -17.7 86.7 -20.15 94.9 -22.65 101.5 -27.25 108.65 -32.25 112.5 -38.7 121.4 -53.65 106.65 -76.4 108.4 -80.45 113.9 -82.1 118.9 -83.6 122.9 -82.2 131.7 -69.75 134.25 -56.95 137.3 -41.55 130.45 -28.65 125.95 -20.2 116.3 -11.7 106.45 -3.0 96.95 0.6 87.6 4.15 67.85 6.25 L37.2 9.75 Q27.7 11.4 15.55 15.6 L-2.85 22.5 Q-0.1 27.3 -0.25 34.8 -0.4 42.35 -3.35 49.35 -6.9 57.85 -14.05 63.45 -22.3 69.95 -32.55 69.95 -42.15 69.95 -48.6 63.6 -55.2 57.05 -54.6 47.45 -53.95 37.5 -49.2 28.85 -44.05 19.5 -34.4 12.2 -35.3 9.95 -38.2 7.1 L-43.35 1.95 Q-44.7 0.35 -43.65 -1.7 -42.65 -3.6 -40.05 -5.15 -33.9 -8.85 -29.2 -6.4 -26.55 -5.0 -23.75 -2.2 L-19.15 2.5 5.2 -7.05 Q19.35 -12.05 30.6 -13.9 Z" fill="none" stroke="#990066" stroke-linecap="round" stroke-linejoin="round" stroke-opacity="0.69411767" stroke-width="1.0"/>
  </g>
</svg>
