<?xml version="1.0" encoding="UTF-8" standalone="no"?>
<svg xmlns:ffdec="https://www.free-decompiler.com/flash" xmlns:xlink="http://www.w3.org/1999/xlink" ffdec:objectType="shape" height="162.15px" width="205.3px" xmlns="http://www.w3.org/2000/svg">
  <g transform="matrix(1.0, 0.0, 0.0, 1.0, 48.85, 89.25)">
    <path d="M-40.15 -4.2 Q-28.85 -10.15 -24.25 -7.75 -9.4 0.1 -2.1 15.25 5.1 30.5 0.35 44.2 -4.4 57.8 -16.4 65.7 -29.0 74.1 -44.1 71.95 -19.8 54.5 -23.7 34.25 -27.05 17.3 -47.65 4.15 -49.4 3.05 -46.9 0.5 -44.65 -1.8 -40.15 -4.2" fill="#990099" fill-opacity="0.4" fill-rule="evenodd" stroke="none"/>
    <path d="M-40.15 -4.2 Q-28.85 -10.15 -24.25 -7.75 -9.4 0.1 -2.1 15.25 5.1 30.5 0.35 44.2 -4.4 57.8 -16.4 65.7 -29.0 74.1 -44.1 71.95 -19.8 54.5 -23.7 34.25 -27.05 17.3 -47.65 4.15 -49.4 3.05 -46.9 0.5 -44.65 -1.8 -40.15 -4.2 Z" fill="none" stroke="#990066" stroke-linecap="round" stroke-linejoin="round" stroke-opacity="0.69411767" stroke-width="1.0"/>
    <path d="M138.9 -18.05 Q147.85 -22.55 155.95 -32.05 153.5 -52.95 145.0 -66.7 137.7 -78.5 123.4 -88.75 118.1 -89.0 111.25 -83.65 105.05 -78.8 102.2 -73.5 113.3 -63.75 117.65 -51.5 122.2 -38.8 121.4 -18.0 128.1 -12.65 138.9 -18.05" fill="#990099" fill-opacity="0.4" fill-rule="evenodd" stroke="none"/>
    <path d="M138.9 -18.05 Q147.85 -22.55 155.95 -32.05 153.5 -52.95 145.0 -66.7 137.7 -78.5 123.4 -88.75 118.1 -89.0 111.25 -83.65 105.05 -78.8 102.2 -73.5 113.3 -63.75 117.65 -51.5 122.2 -38.8 121.4 -18.0 128.1 -12.65 138.9 -18.05 Z" fill="none" stroke="#990066" stroke-linecap="round" stroke-linejoin="round" stroke-opacity="0.69411767" stroke-width="1.0"/>
  </g>
</svg>
