<?xml version="1.0" encoding="UTF-8" standalone="no"?>
<svg xmlns:ffdec="https://www.free-decompiler.com/flash" xmlns:xlink="http://www.w3.org/1999/xlink" ffdec:objectType="shape" height="145.6px" width="177.05px" xmlns="http://www.w3.org/2000/svg">
  <g transform="matrix(1.0, 0.0, 0.0, 1.0, 45.0, 89.4)">
    <path d="M69.25 -5.4 Q90.5 -10.95 97.65 -20.85 106.45 -33.2 106.35 -49.15 106.2 -64.95 97.3 -83.3 98.8 -87.4 103.65 -88.5 108.2 -89.6 112.75 -87.6 127.6 -68.8 130.8 -46.55 134.2 -23.0 122.6 -6.1 113.1 7.9 93.95 15.05 78.75 20.75 50.3 24.1 L32.4 25.35 15.2 26.0 11.6 26.3 Q13.0 36.95 8.8 43.8 4.4 51.0 -6.4 54.55 -17.0 58.05 -26.1 50.7 -35.2 43.35 -34.75 31.7 -34.5 24.95 -31.55 18.35 -28.8 12.3 -25.3 9.45 -28.65 6.9 -33.75 5.45 L-41.65 3.8 Q-43.7 3.4 -44.3 1.1 -44.85 -1.0 -44.05 -3.7 -43.15 -6.4 -41.35 -8.1 -39.3 -9.95 -36.85 -9.6 -14.55 -6.45 -0.85 1.55 9.7 -0.4 22.55 -0.35 49.0 -0.1 69.25 -5.4" fill="#990099" fill-opacity="0.4" fill-rule="evenodd" stroke="none"/>
    <path d="M69.25 -5.4 Q90.5 -10.95 97.65 -20.85 106.45 -33.2 106.35 -49.15 106.2 -64.95 97.3 -83.3 98.8 -87.4 103.65 -88.5 108.2 -89.6 112.75 -87.6 127.6 -68.8 130.8 -46.55 134.2 -23.0 122.6 -6.1 113.1 7.9 93.95 15.05 78.75 20.75 50.3 24.1 L32.4 25.35 15.2 26.0 11.6 26.3 Q13.0 36.95 8.8 43.8 4.4 51.0 -6.4 54.55 -17.0 58.05 -26.1 50.7 -35.2 43.35 -34.75 31.7 -34.5 24.95 -31.55 18.35 -28.8 12.3 -25.3 9.45 -28.65 6.9 -33.75 5.45 L-41.65 3.8 Q-43.7 3.4 -44.3 1.1 -44.85 -1.0 -44.05 -3.7 -43.15 -6.4 -41.35 -8.1 -39.3 -9.95 -36.85 -9.6 -14.55 -6.45 -0.85 1.55 9.7 -0.4 22.55 -0.35 49.0 -0.1 69.25 -5.4 Z" fill="none" stroke="#990066" stroke-linecap="round" stroke-linejoin="round" stroke-opacity="0.69411767" stroke-width="1.0"/>
  </g>
</svg>
