<?xml version="1.0" encoding="UTF-8" standalone="no"?>
<svg xmlns:ffdec="https://www.free-decompiler.com/flash" xmlns:xlink="http://www.w3.org/1999/xlink" ffdec:objectType="shape" height="167.8px" width="202.7px" xmlns="http://www.w3.org/2000/svg">
  <g transform="matrix(1.0, 0.0, 0.0, 1.0, 44.45, 99.6)">
    <path d="M126.75 -30.6 Q135.55 -29.75 144.65 -35.8 153.75 -41.8 157.75 -51.05 152.7 -72.65 136.65 -85.8 124.3 -95.85 108.3 -99.1 104.0 -95.6 101.95 -87.35 100.3 -80.45 100.75 -73.3 111.4 -72.75 117.5 -62.95 123.75 -52.8 126.75 -30.6" fill="#990099" fill-opacity="0.4" fill-rule="evenodd" stroke="none"/>
    <path d="M126.75 -30.6 Q135.55 -29.75 144.65 -35.8 153.75 -41.8 157.75 -51.05 152.7 -72.65 136.65 -85.8 124.3 -95.85 108.3 -99.1 104.0 -95.6 101.95 -87.35 100.3 -80.45 100.75 -73.3 111.4 -72.75 117.5 -62.95 123.75 -52.8 126.75 -30.6 Z" fill="none" stroke="#990066" stroke-linecap="round" stroke-linejoin="round" stroke-opacity="0.69411767" stroke-width="1.0"/>
    <path d="M-31.65 -16.05 Q-13.5 -13.45 0.25 2.8 6.35 10.05 9.4 18.0 12.55 26.2 11.65 33.25 10.0 46.4 1.05 54.5 -3.4 58.5 -19.85 67.7 -8.55 44.65 -17.15 27.5 -20.8 20.2 -27.65 15.25 -34.15 10.7 -42.2 9.2 -44.25 8.8 -43.9 4.7 -43.65 0.85 -41.7 -4.2 -39.65 -9.35 -37.05 -12.7 -34.1 -16.35 -31.65 -16.05" fill="#990099" fill-opacity="0.4" fill-rule="evenodd" stroke="none"/>
    <path d="M-31.65 -16.05 Q-13.5 -13.45 0.25 2.8 6.35 10.05 9.4 18.0 12.55 26.2 11.65 33.25 10.0 46.4 1.05 54.5 -3.4 58.5 -19.85 67.7 -8.55 44.65 -17.15 27.5 -20.8 20.2 -27.65 15.25 -34.15 10.7 -42.2 9.2 -44.25 8.8 -43.9 4.7 -43.65 0.85 -41.7 -4.2 -39.65 -9.35 -37.05 -12.7 -34.1 -16.35 -31.65 -16.05 Z" fill="none" stroke="#990066" stroke-linecap="round" stroke-linejoin="round" stroke-opacity="0.69411767" stroke-width="1.0"/>
  </g>
</svg>
