<?xml version="1.0" encoding="UTF-8" standalone="no"?>
<svg xmlns:ffdec="https://www.free-decompiler.com/flash" xmlns:xlink="http://www.w3.org/1999/xlink" ffdec:objectType="shape" height="141.0px" width="186.5px" xmlns="http://www.w3.org/2000/svg">
  <g transform="matrix(1.0, 0.0, 0.0, 1.0, 51.3, 88.5)">
    <path d="M92.6 -84.8 Q96.5 -88.4 100.9 -87.95 121.3 -68.4 130.15 -41.05 139.0 -13.9 130.6 2.65 120.9 21.8 97.3 32.05 74.6 41.9 50.3 39.0 L32.75 36.5 17.8 35.2 Q17.6 35.9 17.15 38.55 16.55 41.35 15.45 43.4 12.0 49.8 2.65 51.45 -7.6 53.2 -15.3 49.2 -22.3 45.55 -26.5 37.45 -29.0 32.65 -28.1 25.85 -27.05 18.0 -21.6 15.15 -27.5 11.2 -34.15 8.75 -41.45 6.05 -47.3 6.05 -49.35 6.05 -50.25 3.7 -51.1 1.55 -50.6 -1.45 -50.1 -4.55 -48.55 -6.65 -46.75 -9.05 -44.25 -9.1 -30.3 -9.35 -16.15 -4.6 -2.6 0.0 6.4 7.55 13.55 7.7 35.55 10.6 61.95 14.15 79.9 7.3 96.35 1.0 102.95 -12.85 109.3 -26.3 105.4 -44.5 101.4 -63.1 88.7 -76.1 88.65 -81.1 92.6 -84.8" fill="#990099" fill-opacity="0.4" fill-rule="evenodd" stroke="none"/>
    <path d="M92.6 -84.8 Q96.5 -88.4 100.9 -87.95 121.3 -68.4 130.15 -41.05 139.0 -13.9 130.6 2.65 120.9 21.8 97.3 32.05 74.6 41.9 50.3 39.0 L32.75 36.5 17.8 35.2 Q17.6 35.9 17.15 38.55 16.55 41.35 15.45 43.4 12.0 49.8 2.65 51.45 -7.6 53.2 -15.3 49.2 -22.3 45.55 -26.5 37.45 -29.0 32.65 -28.1 25.85 -27.05 18.0 -21.6 15.15 -27.5 11.2 -34.15 8.75 -41.45 6.05 -47.3 6.05 -49.35 6.05 -50.25 3.7 -51.1 1.55 -50.6 -1.45 -50.1 -4.55 -48.55 -6.65 -46.75 -9.05 -44.25 -9.1 -30.3 -9.35 -16.15 -4.6 -2.6 0.0 6.4 7.55 13.55 7.7 35.55 10.6 61.95 14.15 79.9 7.3 96.35 1.0 102.95 -12.85 109.3 -26.3 105.4 -44.5 101.4 -63.1 88.7 -76.1 88.65 -81.1 92.6 -84.8 Z" fill="none" stroke="#990066" stroke-linecap="round" stroke-linejoin="round" stroke-opacity="0.69411767" stroke-width="1.0"/>
  </g>
</svg>
