<?xml version="1.0" encoding="UTF-8" standalone="no"?>
<svg xmlns:ffdec="https://www.free-decompiler.com/flash" xmlns:xlink="http://www.w3.org/1999/xlink" ffdec:objectType="shape" height="159.2px" width="206.55px" xmlns="http://www.w3.org/2000/svg">
  <g transform="matrix(1.0, 0.0, 0.0, 1.0, 50.1, 99.2)">
    <path d="M147.85 -48.45 Q153.75 -56.8 155.95 -67.65 146.25 -88.2 128.95 -95.35 113.2 -101.9 96.1 -95.65 92.5 -91.15 91.75 -82.35 91.05 -74.35 92.9 -67.85 106.7 -72.9 117.65 -66.55 130.65 -59.05 132.95 -38.0 141.2 -38.95 147.85 -48.45" fill="#990099" fill-opacity="0.4" fill-rule="evenodd" stroke="none"/>
    <path d="M147.85 -48.45 Q153.75 -56.8 155.95 -67.65 146.25 -88.2 128.95 -95.35 113.2 -101.9 96.1 -95.65 92.5 -91.15 91.75 -82.35 91.05 -74.35 92.9 -67.85 106.7 -72.9 117.65 -66.55 130.65 -59.05 132.95 -38.0 141.2 -38.95 147.85 -48.45 Z" fill="none" stroke="#990066" stroke-linecap="round" stroke-linejoin="round" stroke-opacity="0.69411767" stroke-width="1.0"/>
    <path d="M-41.1 -13.6 Q-25.6 -13.9 -9.65 -5.9 6.95 2.5 10.55 13.75 14.75 26.8 11.4 38.75 7.9 51.2 -2.95 59.5 -2.4 35.65 -17.1 21.85 -29.65 10.05 -46.95 10.1 -49.0 10.05 -49.45 6.4 -49.9 3.05 -48.8 -1.7 -47.8 -6.55 -45.85 -9.85 -43.6 -13.55 -41.1 -13.6" fill="#990099" fill-opacity="0.4" fill-rule="evenodd" stroke="none"/>
    <path d="M-41.1 -13.6 Q-25.6 -13.9 -9.65 -5.9 6.95 2.5 10.55 13.75 14.75 26.8 11.4 38.75 7.9 51.2 -2.95 59.5 -2.4 35.65 -17.1 21.85 -29.65 10.05 -46.95 10.1 -49.0 10.05 -49.45 6.4 -49.9 3.05 -48.8 -1.7 -47.8 -6.55 -45.85 -9.85 -43.6 -13.55 -41.1 -13.6 Z" fill="none" stroke="#990066" stroke-linecap="round" stroke-linejoin="round" stroke-opacity="0.69411767" stroke-width="1.0"/>
  </g>
</svg>
