<?xml version="1.0" encoding="UTF-8" standalone="no"?>
<svg xmlns:ffdec="https://www.free-decompiler.com/flash" xmlns:xlink="http://www.w3.org/1999/xlink" ffdec:objectType="shape" height="132.0px" width="202.0px" xmlns="http://www.w3.org/2000/svg">
  <g transform="matrix(1.0, 0.0, 0.0, 1.0, 55.25, 85.55)">
    <path d="M54.65 42.85 L40.85 42.4 Q34.8 42.0 28.05 40.5 24.1 43.55 19.2 44.95 13.1 46.7 6.85 45.4 0.75 44.1 -4.5 39.7 -9.65 35.35 -11.5 29.95 -15.3 25.15 -20.05 21.35 -24.6 17.6 -29.15 15.55 -37.4 11.65 -40.9 10.5 -47.5 8.4 -54.5 8.55 -55.25 4.8 -53.8 -0.3 -52.35 -5.55 -49.75 -7.35 L-33.3 -6.45 Q-27.35 -5.65 -20.05 -3.35 -3.0 2.05 8.65 12.05 21.65 14.9 32.55 15.75 41.75 16.5 54.0 16.0 73.55 15.3 88.4 8.25 106.8 -0.45 109.95 -16.15 112.65 -29.6 101.2 -45.95 97.15 -51.75 89.8 -60.15 81.35 -69.45 77.4 -74.15 79.6 -78.7 82.7 -81.25 86.2 -84.2 91.3 -85.05 117.1 -67.45 130.6 -51.75 145.65 -34.2 146.2 -18.3 146.7 -3.85 140.8 6.75 134.0 19.0 117.4 28.9 105.1 36.3 87.95 39.9 71.7 43.4 54.65 42.85" fill="#990099" fill-opacity="0.4" fill-rule="evenodd" stroke="none"/>
    <path d="M54.65 42.85 Q71.7 43.4 87.95 39.9 105.1 36.3 117.4 28.9 134.0 19.0 140.8 6.75 146.7 -3.85 146.2 -18.3 145.65 -34.2 130.6 -51.75 117.1 -67.45 91.3 -85.05 86.2 -84.2 82.7 -81.25 79.6 -78.7 77.4 -74.15 81.35 -69.45 89.8 -60.15 97.15 -51.75 101.2 -45.95 112.65 -29.6 109.95 -16.15 106.8 -0.45 88.4 8.25 73.55 15.3 54.0 16.0 41.75 16.5 32.55 15.75 21.65 14.9 8.65 12.05 -3.0 2.05 -20.05 -3.35 -27.35 -5.65 -33.3 -6.45 L-49.75 -7.35 Q-52.35 -5.55 -53.8 -0.3 -55.25 4.8 -54.5 8.55 -47.5 8.4 -40.9 10.5 -37.4 11.65 -29.15 15.55 -24.6 17.6 -20.05 21.35 -15.3 25.15 -11.5 29.95 -9.65 35.35 -4.5 39.7 0.75 44.1 6.85 45.4 13.1 46.7 19.2 44.95 24.1 43.55 28.05 40.5 34.8 42.0 40.85 42.4 L54.65 42.85 Z" fill="none" stroke="#990066" stroke-linecap="round" stroke-linejoin="round" stroke-opacity="0.69411767" stroke-width="1.0"/>
  </g>
</svg>
