<?xml version="1.0" encoding="UTF-8" standalone="no"?>
<svg xmlns:ffdec="https://www.free-decompiler.com/flash" xmlns:xlink="http://www.w3.org/1999/xlink" ffdec:objectType="shape" height="157.7px" width="197.95px" xmlns="http://www.w3.org/2000/svg">
  <g transform="matrix(1.0, 0.0, 0.0, 1.0, 56.2, 102.35)">
    <path d="M141.2 -66.9 Q141.75 -78.8 136.95 -85.8 126.45 -101.3 111.4 -101.85 99.0 -102.3 82.6 -92.35 79.95 -87.25 80.95 -78.45 81.85 -70.45 84.85 -64.45 99.4 -73.35 110.1 -71.9 125.55 -69.85 135.05 -47.2 140.7 -54.8 141.2 -66.9" fill="#990099" fill-opacity="0.4" fill-rule="evenodd" stroke="none"/>
    <path d="M141.2 -66.9 Q141.75 -78.8 136.95 -85.8 126.45 -101.3 111.4 -101.85 99.0 -102.3 82.6 -92.35 79.95 -87.25 80.95 -78.45 81.85 -70.45 84.85 -64.45 99.4 -73.35 110.1 -71.9 125.55 -69.85 135.05 -47.2 140.7 -54.8 141.2 -66.9 Z" fill="none" stroke="#990066" stroke-linecap="round" stroke-linejoin="round" stroke-opacity="0.69411767" stroke-width="1.0"/>
    <path d="M-50.8 -12.45 Q-32.65 -15.15 -17.15 -10.15 1.1 -4.2 11.7 11.65 24.25 30.45 3.45 54.85 1.05 30.35 -18.75 18.1 -26.75 13.2 -35.9 11.5 -44.45 10.0 -51.15 11.65 -53.15 12.15 -54.4 8.6 -55.6 5.45 -55.7 0.55 -55.75 -4.45 -54.55 -8.05 -53.25 -12.05 -50.8 -12.45" fill="#990099" fill-opacity="0.4" fill-rule="evenodd" stroke="none"/>
    <path d="M-50.8 -12.45 Q-32.65 -15.15 -17.15 -10.15 1.1 -4.2 11.7 11.65 24.25 30.45 3.45 54.85 1.05 30.35 -18.75 18.1 -26.75 13.2 -35.9 11.5 -44.45 10.0 -51.15 11.65 -53.15 12.15 -54.4 8.6 -55.6 5.45 -55.7 0.55 -55.75 -4.45 -54.55 -8.05 -53.25 -12.05 -50.8 -12.45 Z" fill="none" stroke="#990066" stroke-linecap="round" stroke-linejoin="round" stroke-opacity="0.69411767" stroke-width="1.0"/>
  </g>
</svg>
