<?xml version="1.0" encoding="UTF-8" standalone="no"?>
<svg xmlns:ffdec="https://www.free-decompiler.com/flash" xmlns:xlink="http://www.w3.org/1999/xlink" ffdec:objectType="shape" height="125.4px" width="212.6px" xmlns="http://www.w3.org/2000/svg">
  <g transform="matrix(1.0, 0.0, 0.0, 1.0, 59.2, 80.55)">
    <path d="M-58.7 -4.1 Q-35.65 7.45 -6.55 13.0 20.35 18.1 46.5 17.05 75.4 15.9 96.7 3.0 105.85 -2.55 111.45 -9.25 116.85 -15.8 117.75 -21.85 119.7 -36.6 106.05 -51.0 92.7 -64.95 75.6 -67.8 74.85 -73.25 71.15 -76.35 70.0 -77.25 70.25 -77.75 70.5 -78.4 72.9 -80.05 109.15 -78.3 133.05 -56.15 142.95 -46.95 148.25 -36.2 153.35 -26.1 152.85 -17.4 152.3 -5.95 144.4 4.95 136.55 15.85 122.65 24.4 92.15 43.3 47.65 44.3 21.95 44.9 -7.7 34.9 -37.75 24.85 -57.45 8.7 -56.85 4.0 -56.95 2.7 -57.0 1.65 -58.7 -4.1" fill="#990099" fill-opacity="0.4" fill-rule="evenodd" stroke="none"/>
    <path d="M-58.7 -4.1 Q-35.65 7.45 -6.55 13.0 20.35 18.1 46.5 17.05 75.4 15.9 96.7 3.0 105.85 -2.55 111.45 -9.25 116.85 -15.8 117.75 -21.85 119.7 -36.6 106.05 -51.0 92.7 -64.95 75.6 -67.8 74.85 -73.25 71.15 -76.35 70.0 -77.25 70.25 -77.75 70.5 -78.4 72.9 -80.05 109.15 -78.3 133.05 -56.15 142.95 -46.95 148.25 -36.2 153.35 -26.1 152.85 -17.4 152.3 -5.95 144.4 4.95 136.55 15.85 122.65 24.4 92.15 43.3 47.65 44.3 21.95 44.9 -7.7 34.9 -37.75 24.85 -57.45 8.7 -56.85 4.0 -56.95 2.7 -57.0 1.65 -58.7 -4.1 Z" fill="none" stroke="#990066" stroke-linecap="round" stroke-linejoin="round" stroke-opacity="0.69411767" stroke-width="1.0"/>
  </g>
</svg>
