<?xml version="1.0" encoding="UTF-8" standalone="no"?>
<svg xmlns:ffdec="https://www.free-decompiler.com/flash" xmlns:xlink="http://www.w3.org/1999/xlink" ffdec:objectType="shape" height="150.6px" width="195.25px" xmlns="http://www.w3.org/2000/svg">
  <g transform="matrix(1.0, 0.0, 0.0, 1.0, 61.5, 107.5)">
    <path d="M-22.4 13.9 Q-31.65 10.55 -40.95 10.45 -49.9 10.25 -55.9 13.05 -59.6 8.6 -60.65 2.5 -61.6 -3.35 -59.95 -9.55 -44.45 -16.4 -25.45 -13.15 -7.45 -10.05 1.1 -0.6 8.4 7.35 10.75 18.7 13.3 31.35 8.1 42.6 0.1 22.05 -22.4 13.9" fill="#990099" fill-opacity="0.4" fill-rule="evenodd" stroke="none"/>
    <path d="M-22.4 13.9 Q0.1 22.05 8.1 42.6 13.3 31.35 10.75 18.7 8.4 7.35 1.1 -0.6 -7.45 -10.05 -25.45 -13.15 -44.45 -16.4 -59.95 -9.55 -61.6 -3.35 -60.65 2.5 -59.6 8.6 -55.9 13.05 -49.9 10.25 -40.95 10.45 -31.65 10.55 -22.4 13.9 Z" fill="none" stroke="#990066" stroke-linecap="round" stroke-linejoin="round" stroke-opacity="0.69411767" stroke-width="1.0"/>
    <path d="M122.2 -101.35 Q111.3 -109.75 95.7 -105.7 80.15 -101.7 68.8 -87.75 67.5 -82.2 70.65 -73.95 73.5 -66.4 77.95 -61.35 88.6 -74.9 101.05 -76.4 115.6 -78.2 129.65 -62.75 135.2 -70.3 132.15 -83.4 129.3 -95.75 122.2 -101.35" fill="#990099" fill-opacity="0.4" fill-rule="evenodd" stroke="none"/>
    <path d="M122.2 -101.35 Q111.3 -109.75 95.7 -105.7 80.15 -101.7 68.8 -87.75 67.5 -82.2 70.65 -73.95 73.5 -66.4 77.95 -61.35 88.6 -74.9 101.05 -76.4 115.6 -78.2 129.65 -62.75 135.2 -70.3 132.15 -83.4 129.3 -95.75 122.2 -101.35 Z" fill="none" stroke="#990066" stroke-linecap="round" stroke-linejoin="round" stroke-opacity="0.69411767" stroke-width="1.0"/>
  </g>
</svg>
