<?xml version="1.0" encoding="UTF-8" standalone="no"?>
<svg xmlns:ffdec="https://www.free-decompiler.com/flash" xmlns:xlink="http://www.w3.org/1999/xlink" ffdec:objectType="shape" height="106.0px" width="230.95px" xmlns="http://www.w3.org/2000/svg">
  <g transform="matrix(1.0, 0.0, 0.0, 1.0, 71.2, 69.55)">
    <path d="M-8.4 30.15 Q-38.1 23.75 -69.3 9.65 -72.3 0.4 -68.95 -6.95 -12.5 15.55 52.95 11.4 80.7 9.6 102.75 -0.8 123.85 -10.7 124.75 -20.8 125.05 -25.3 120.95 -30.95 116.35 -37.1 108.65 -41.35 88.45 -52.35 61.5 -43.65 58.35 -46.55 56.95 -52.05 55.45 -57.7 57.1 -61.45 103.45 -78.1 134.25 -58.35 145.8 -50.95 152.8 -39.65 158.85 -29.95 159.2 -21.65 159.7 -10.65 151.6 -0.4 143.75 9.5 129.05 17.45 98.1 34.3 54.05 35.8 22.4 36.85 -8.4 30.15" fill="#990099" fill-opacity="0.4" fill-rule="evenodd" stroke="none"/>
    <path d="M-8.4 30.15 Q22.4 36.85 54.05 35.8 98.1 34.3 129.05 17.45 143.75 9.5 151.6 -0.4 159.7 -10.65 159.2 -21.65 158.85 -29.95 152.8 -39.65 145.8 -50.95 134.25 -58.35 103.45 -78.1 57.1 -61.45 55.45 -57.7 56.95 -52.05 58.35 -46.55 61.5 -43.65 88.45 -52.35 108.65 -41.35 116.35 -37.1 120.95 -30.95 125.05 -25.3 124.75 -20.8 123.85 -10.7 102.75 -0.8 80.7 9.6 52.95 11.4 -12.5 15.55 -68.95 -6.95 -72.3 0.4 -69.3 9.65 -38.1 23.75 -8.4 30.15 Z" fill="none" stroke="#990066" stroke-linecap="round" stroke-linejoin="round" stroke-opacity="0.69411767" stroke-width="1.0"/>
  </g>
</svg>
