<?xml version="1.0" encoding="UTF-8" standalone="no"?>
<svg xmlns:ffdec="https://www.free-decompiler.com/flash" xmlns:xlink="http://www.w3.org/1999/xlink" ffdec:objectType="shape" height="131.0px" width="187.05px" xmlns="http://www.w3.org/2000/svg">
  <g transform="matrix(1.0, 0.0, 0.0, 1.0, 71.95, 100.2)">
    <path d="M89.1 -99.65 Q75.05 -98.75 64.15 -88.85 52.4 -78.15 49.6 -61.3 51.25 -55.8 58.15 -50.2 64.35 -45.15 70.75 -42.95 73.45 -63.6 83.35 -72.6 94.3 -82.55 114.5 -79.05 115.4 -88.25 106.55 -94.6 98.4 -100.3 89.1 -99.65" fill="#990099" fill-opacity="0.4" fill-rule="evenodd" stroke="none"/>
    <path d="M89.1 -99.65 Q98.4 -100.3 106.55 -94.6 115.4 -88.25 114.5 -79.05 94.3 -82.55 83.35 -72.6 73.45 -63.6 70.75 -42.95 64.35 -45.15 58.15 -50.2 51.25 -55.8 49.6 -61.3 52.4 -78.15 64.15 -88.85 75.05 -98.75 89.1 -99.65 Z" fill="none" stroke="#990066" stroke-linecap="round" stroke-linejoin="round" stroke-opacity="0.69411767" stroke-width="1.0"/>
    <path d="M4.8 8.25 Q6.45 21.25 0.55 30.3 -11.8 14.6 -32.4 10.15 -52.15 5.85 -67.15 14.0 -70.75 9.8 -71.3 1.9 -71.85 -4.9 -70.1 -11.65 -54.6 -18.5 -35.6 -17.6 -17.7 -16.8 -5.25 -9.9 3.1 -5.25 4.8 8.25" fill="#990099" fill-opacity="0.4" fill-rule="evenodd" stroke="none"/>
    <path d="M4.8 8.25 Q6.45 21.25 0.55 30.3 -11.8 14.6 -32.4 10.15 -52.15 5.85 -67.15 14.0 -70.75 9.8 -71.3 1.9 -71.85 -4.9 -70.1 -11.65 -54.6 -18.5 -35.6 -17.6 -17.7 -16.8 -5.25 -9.9 3.1 -5.25 4.8 8.25 Z" fill="none" stroke="#990066" stroke-linecap="round" stroke-linejoin="round" stroke-opacity="0.69411767" stroke-width="1.0"/>
  </g>
</svg>
