<?xml version="1.0" encoding="UTF-8" standalone="no"?>
<svg xmlns:ffdec="https://www.free-decompiler.com/flash" xmlns:xlink="http://www.w3.org/1999/xlink" ffdec:objectType="shape" height="99.95px" width="249.2px" xmlns="http://www.w3.org/2000/svg">
  <g transform="matrix(1.0, 0.0, 0.0, 1.0, 81.65, 68.75)">
    <path d="M-79.6 -6.8 Q-47.75 -0.3 -13.3 2.95 24.6 6.5 49.55 4.45 84.05 1.65 107.4 -8.7 117.35 -13.05 123.0 -17.95 128.45 -22.75 128.6 -26.85 128.9 -37.65 117.7 -43.45 106.4 -49.25 90.7 -46.4 78.65 -44.2 70.7 -40.5 63.65 -37.2 52.3 -28.9 43.55 -28.7 42.4 -28.8 36.8 -29.4 35.15 -32.75 49.15 -47.25 59.45 -54.15 72.9 -63.05 89.45 -66.35 118.55 -72.3 142.65 -59.85 153.15 -54.4 159.65 -46.55 166.1 -38.7 166.95 -30.25 168.0 -18.55 159.55 -7.5 151.35 3.2 135.45 11.65 101.6 29.7 52.6 30.65 26.4 31.2 -13.65 24.6 -49.2 18.7 -78.7 10.3 -83.1 1.4 -79.6 -6.8" fill="#990099" fill-opacity="0.4" fill-rule="evenodd" stroke="none"/>
    <path d="M-79.6 -6.8 Q-47.75 -0.3 -13.3 2.95 24.6 6.5 49.55 4.45 84.05 1.65 107.4 -8.7 117.35 -13.05 123.0 -17.95 128.45 -22.75 128.6 -26.85 128.9 -37.65 117.7 -43.45 106.4 -49.25 90.7 -46.4 78.65 -44.2 70.7 -40.5 63.65 -37.2 52.3 -28.9 43.55 -28.7 42.4 -28.8 36.8 -29.4 35.15 -32.75 49.15 -47.25 59.45 -54.15 72.9 -63.05 89.45 -66.35 118.55 -72.3 142.65 -59.85 153.15 -54.4 159.65 -46.55 166.1 -38.7 166.95 -30.25 168.0 -18.55 159.55 -7.5 151.35 3.2 135.45 11.65 101.6 29.7 52.6 30.65 26.4 31.2 -13.65 24.6 -49.2 18.7 -78.7 10.3 -83.1 1.4 -79.6 -6.8 Z" fill="none" stroke="#990066" stroke-linecap="round" stroke-linejoin="round" stroke-opacity="0.69411767" stroke-width="1.0"/>
  </g>
</svg>
