<?xml version="1.0" encoding="UTF-8" standalone="no"?>
<svg xmlns:ffdec="https://www.free-decompiler.com/flash" xmlns:xlink="http://www.w3.org/1999/xlink" ffdec:objectType="shape" height="114.5px" width="184.75px" xmlns="http://www.w3.org/2000/svg">
  <g transform="matrix(1.0, 0.0, 0.0, 1.0, 83.65, 92.85)">
    <path d="M100.6 -81.45 Q96.6 -89.75 86.15 -91.75 76.3 -93.6 65.1 -89.5 51.0 -84.4 42.4 -70.0 34.8 -57.45 31.7 -38.35 33.3 -32.95 41.75 -30.2 49.2 -27.7 56.35 -28.6 59.4 -54.0 66.85 -65.85 77.6 -82.85 100.6 -81.45" fill="#990099" fill-opacity="0.4" fill-rule="evenodd" stroke="none"/>
    <path d="M100.6 -81.45 Q96.6 -89.75 86.15 -91.75 76.3 -93.6 65.1 -89.5 51.0 -84.4 42.4 -70.0 34.8 -57.45 31.7 -38.35 33.3 -32.95 41.75 -30.2 49.2 -27.7 56.35 -28.6 59.4 -54.0 66.85 -65.85 77.6 -82.85 100.6 -81.45 Z" fill="none" stroke="#990066" stroke-linecap="round" stroke-linejoin="round" stroke-opacity="0.69411767" stroke-width="1.0"/>
    <path d="M-6.0 21.15 Q-25.0 11.45 -43.25 9.35 -63.2 7.05 -77.05 14.55 -80.9 10.05 -82.35 2.15 -83.95 -5.6 -82.3 -11.65 -67.3 -19.95 -44.95 -21.25 -27.45 -22.25 -10.65 -19.1 -3.5 -14.5 -2.35 -1.35 -1.3 11.1 -6.0 21.15" fill="#990099" fill-opacity="0.4" fill-rule="evenodd" stroke="none"/>
    <path d="M-6.0 21.15 Q-1.3 11.1 -2.35 -1.35 -3.5 -14.5 -10.65 -19.1 -27.45 -22.25 -44.95 -21.25 -67.3 -19.95 -82.3 -11.65 -83.95 -5.6 -82.35 2.15 -80.9 10.05 -77.05 14.55 -63.2 7.05 -43.25 9.35 -25.0 11.45 -6.0 21.15 Z" fill="none" stroke="#990066" stroke-linecap="round" stroke-linejoin="round" stroke-opacity="0.69411767" stroke-width="1.0"/>
  </g>
</svg>
