<?xml version="1.0" encoding="UTF-8" standalone="no"?>
<svg xmlns:ffdec="https://www.free-decompiler.com/flash" xmlns:xlink="http://www.w3.org/1999/xlink" ffdec:objectType="shape" height="96.15px" width="273.05px" xmlns="http://www.w3.org/2000/svg">
  <g transform="matrix(1.0, 0.0, 0.0, 1.0, 92.4, 68.6)">
    <path d="M-91.9 0.15 Q-91.8 -3.7 -90.3 -7.6 -49.75 2.05 -25.9 5.45 6.6 10.05 34.95 7.7 77.7 4.15 112.35 -12.6 126.45 -19.4 133.55 -26.05 140.6 -32.55 137.9 -36.1 134.65 -40.45 125.75 -40.9 114.05 -41.45 94.5 -34.9 75.85 -28.75 63.3 -22.65 49.7 -16.05 31.95 -4.25 28.3 -4.9 26.3 -9.1 24.45 -12.95 25.1 -17.0 37.75 -25.3 54.1 -37.75 68.8 -47.85 89.8 -56.2 123.25 -69.5 146.95 -67.95 166.25 -66.65 175.4 -56.15 183.7 -46.55 177.55 -33.25 171.4 -20.1 152.95 -7.55 133.3 5.75 105.1 14.55 73.85 24.25 37.5 26.45 4.9 28.45 -22.95 23.7 -34.8 21.75 -52.55 17.55 L-89.45 8.55 Q-92.0 5.05 -91.9 0.15" fill="#990099" fill-opacity="0.4" fill-rule="evenodd" stroke="none"/>
    <path d="M-91.9 0.15 Q-91.8 -3.7 -90.3 -7.6 -49.75 2.05 -25.9 5.45 6.6 10.05 34.95 7.7 77.7 4.15 112.35 -12.6 126.45 -19.4 133.55 -26.05 140.6 -32.55 137.9 -36.1 134.65 -40.45 125.75 -40.9 114.05 -41.45 94.5 -34.9 75.85 -28.75 63.3 -22.65 49.7 -16.05 31.95 -4.25 28.3 -4.9 26.3 -9.1 24.45 -12.95 25.1 -17.0 37.75 -25.3 54.1 -37.75 68.8 -47.85 89.8 -56.2 123.25 -69.5 146.95 -67.95 166.25 -66.65 175.4 -56.15 183.7 -46.55 177.55 -33.25 171.4 -20.1 152.95 -7.55 133.3 5.75 105.1 14.55 73.85 24.25 37.5 26.45 4.9 28.45 -22.95 23.7 -34.8 21.75 -52.55 17.55 L-89.45 8.55 Q-92.0 5.05 -91.9 0.15 Z" fill="none" stroke="#990066" stroke-linecap="round" stroke-linejoin="round" stroke-opacity="0.69411767" stroke-width="1.0"/>
  </g>
</svg>
