<?xml version="1.0" encoding="UTF-8" standalone="no"?>
<svg xmlns:ffdec="https://www.free-decompiler.com/flash" xmlns:xlink="http://www.w3.org/1999/xlink" ffdec:objectType="shape" height="108.55px" width="171.65px" xmlns="http://www.w3.org/2000/svg">
  <g transform="matrix(1.0, 0.0, 0.0, 1.0, 90.75, 87.05)">
    <path d="M-11.1 -0.65 Q-10.2 9.75 -15.2 21.0 -33.5 13.3 -52.9 11.15 -71.4 9.15 -85.15 12.7 -88.85 8.25 -89.9 2.15 -90.85 -3.7 -89.2 -9.9 -73.25 -16.95 -54.95 -19.2 -36.9 -21.45 -19.3 -18.75 -12.05 -11.5 -11.1 -0.65" fill="#990099" fill-opacity="0.4" fill-rule="evenodd" stroke="none"/>
    <path d="M-11.1 -0.65 Q-10.2 9.75 -15.2 21.0 -33.5 13.3 -52.9 11.15 -71.4 9.15 -85.15 12.7 -88.85 8.25 -89.9 2.15 -90.85 -3.7 -89.2 -9.9 -73.25 -16.95 -54.95 -19.2 -36.9 -21.45 -19.3 -18.75 -12.05 -11.5 -11.1 -0.65 Z" fill="none" stroke="#990066" stroke-linecap="round" stroke-linejoin="round" stroke-opacity="0.69411767" stroke-width="1.0"/>
    <path d="M69.3 -81.3 Q58.95 -87.5 50.15 -86.35 38.4 -71.5 30.45 -54.6 22.85 -38.45 17.8 -18.45 18.7 -12.6 25.7 -8.2 32.3 -4.0 40.05 -3.5 45.45 -25.75 56.05 -42.4 66.5 -58.8 80.4 -67.5 79.9 -74.9 69.3 -81.3" fill="#990099" fill-opacity="0.4" fill-rule="evenodd" stroke="none"/>
    <path d="M69.3 -81.3 Q58.95 -87.5 50.15 -86.35 38.4 -71.5 30.45 -54.6 22.85 -38.45 17.8 -18.45 18.7 -12.6 25.7 -8.2 32.3 -4.0 40.05 -3.5 45.45 -25.75 56.05 -42.4 66.5 -58.8 80.4 -67.5 79.9 -74.9 69.3 -81.3 Z" fill="none" stroke="#990066" stroke-linecap="round" stroke-linejoin="round" stroke-opacity="0.69411767" stroke-width="1.0"/>
  </g>
</svg>
