<?xml version="1.0" encoding="UTF-8" standalone="no"?>
<svg xmlns:ffdec="https://www.free-decompiler.com/flash" xmlns:xlink="http://www.w3.org/1999/xlink" ffdec:objectType="shape" height="94.2px" width="282.0px" xmlns="http://www.w3.org/2000/svg">
  <g transform="matrix(1.0, 0.0, 0.0, 1.0, 101.65, 68.65)">
    <path d="M-96.25 -11.0 Q-78.8 -10.3 -42.25 -2.55 -2.5 6.0 13.7 7.45 39.55 9.85 64.9 3.95 80.8 0.3 104.75 -9.3 125.0 -17.5 134.35 -26.8 142.5 -34.95 139.2 -40.05 137.1 -43.35 124.2 -41.55 111.5 -39.75 94.5 -34.0 76.0 -27.8 64.8 -21.55 48.0 -12.3 28.1 5.6 L19.05 5.25 Q15.65 4.35 13.2 0.85 33.65 -21.15 50.75 -33.7 67.8 -46.2 88.55 -54.45 119.8 -66.95 144.5 -68.05 167.2 -69.1 175.45 -60.4 180.95 -54.55 179.55 -45.25 178.1 -36.05 170.25 -25.85 152.3 -2.45 116.25 10.65 93.1 19.05 71.35 22.4 44.65 26.5 13.6 24.3 -5.6 22.95 -41.1 14.65 -79.5 5.7 -99.7 3.4 -101.5 -1.2 -101.1 -4.45 -100.55 -8.7 -96.25 -11.0" fill="#990099" fill-opacity="0.4" fill-rule="evenodd" stroke="none"/>
    <path d="M-96.25 -11.0 Q-78.8 -10.3 -42.25 -2.55 -2.5 6.0 13.7 7.45 39.55 9.85 64.9 3.95 80.8 0.3 104.75 -9.3 125.0 -17.5 134.35 -26.8 142.5 -34.95 139.2 -40.05 137.1 -43.35 124.2 -41.55 111.5 -39.75 94.5 -34.0 76.0 -27.8 64.8 -21.55 48.0 -12.3 28.1 5.6 L19.05 5.25 Q15.65 4.35 13.2 0.85 33.65 -21.15 50.75 -33.7 67.8 -46.2 88.55 -54.45 119.8 -66.95 144.5 -68.05 167.2 -69.1 175.45 -60.4 180.95 -54.55 179.55 -45.25 178.1 -36.05 170.25 -25.85 152.3 -2.45 116.25 10.65 93.1 19.05 71.35 22.4 44.65 26.5 13.6 24.3 -5.6 22.95 -41.1 14.65 -79.5 5.7 -99.7 3.4 -101.5 -1.2 -101.1 -4.45 -100.55 -8.7 -96.25 -11.0 Z" fill="none" stroke="#990066" stroke-linecap="round" stroke-linejoin="round" stroke-opacity="0.69411767" stroke-width="1.0"/>
  </g>
</svg>
