<?xml version="1.0" encoding="UTF-8" standalone="no"?>
<svg xmlns:ffdec="https://www.free-decompiler.com/flash" xmlns:xlink="http://www.w3.org/1999/xlink" ffdec:objectType="shape" height="100.45px" width="166.95px" xmlns="http://www.w3.org/2000/svg">
  <g transform="matrix(1.0, 0.0, 0.0, 1.0, 100.0, 77.15)">
    <path d="M-23.15 2.1 Q-24.3 13.1 -32.9 22.8 -54.7 13.6 -63.55 10.75 -80.4 5.5 -94.4 6.2 -98.1 1.75 -99.15 -4.35 -100.1 -10.2 -98.45 -16.4 L-63.2 -18.6 Q-44.95 -18.8 -28.75 -15.7 -22.05 -8.7 -23.15 2.1" fill="#990099" fill-opacity="0.4" fill-rule="evenodd" stroke="none"/>
    <path d="M-23.15 2.1 Q-24.3 13.1 -32.9 22.8 -54.7 13.6 -63.55 10.75 -80.4 5.5 -94.4 6.2 -98.1 1.75 -99.15 -4.35 -100.1 -10.2 -98.45 -16.4 L-63.2 -18.6 Q-44.95 -18.8 -28.75 -15.7 -22.05 -8.7 -23.15 2.1 Z" fill="none" stroke="#990066" stroke-linecap="round" stroke-linejoin="round" stroke-opacity="0.69411767" stroke-width="1.0"/>
    <path d="M35.95 -76.25 Q25.5 -61.4 18.9 -41.1 14.35 -27.25 9.5 -2.7 10.7 3.05 17.9 7.1 24.75 10.95 32.5 11.1 38.2 -10.55 47.45 -29.8 56.1 -47.8 66.45 -60.6 65.6 -67.9 55.0 -73.0 44.8 -77.85 35.95 -76.25" fill="#990099" fill-opacity="0.4" fill-rule="evenodd" stroke="none"/>
    <path d="M35.95 -76.25 Q25.5 -61.4 18.9 -41.1 14.35 -27.25 9.5 -2.7 10.7 3.05 17.9 7.1 24.75 10.95 32.5 11.1 38.2 -10.55 47.45 -29.8 56.1 -47.8 66.45 -60.6 65.6 -67.9 55.0 -73.0 44.8 -77.85 35.95 -76.25 Z" fill="none" stroke="#990066" stroke-linecap="round" stroke-linejoin="round" stroke-opacity="0.69411767" stroke-width="1.0"/>
  </g>
</svg>
