<?xml version="1.0" encoding="UTF-8" standalone="no"?>
<svg xmlns:ffdec="https://www.free-decompiler.com/flash" xmlns:xlink="http://www.w3.org/1999/xlink" ffdec:objectType="shape" height="92.7px" width="285.0px" xmlns="http://www.w3.org/2000/svg">
  <g transform="matrix(1.0, 0.0, 0.0, 1.0, 109.2, 64.05)">
    <path d="M36.15 -17.65 Q51.9 -30.6 75.3 -43.0 107.85 -60.25 137.05 -63.1 149.85 -64.35 158.95 -62.3 167.95 -60.25 171.5 -55.4 177.1 -47.7 174.5 -37.6 171.9 -27.5 161.7 -17.15 138.65 6.2 92.45 18.8 74.5 23.75 55.75 26.15 33.7 29.0 14.35 27.8 -16.85 25.85 -51.75 16.5 -80.2 8.9 -105.95 -2.15 -108.7 -3.35 -108.7 -8.75 -108.7 -14.65 -104.3 -17.2 -61.0 -5.4 -44.35 -1.4 -6.9 7.7 9.65 8.1 26.1 -9.35 36.15 -17.65 M86.05 -25.25 Q68.55 -17.3 58.05 -10.4 53.05 -7.15 32.25 8.6 52.0 6.2 61.2 4.1 75.25 0.9 92.5 -6.45 109.3 -13.6 123.55 -22.9 138.25 -32.5 137.1 -36.0 135.75 -40.1 120.6 -37.0 105.05 -33.85 86.05 -25.25" fill="#990099" fill-opacity="0.4" fill-rule="evenodd" stroke="none"/>
    <path d="M36.15 -17.65 Q26.1 -9.35 9.65 8.1 -6.9 7.7 -44.35 -1.4 -61.0 -5.4 -104.3 -17.2 -108.7 -14.65 -108.7 -8.75 -108.7 -3.35 -105.95 -2.15 -80.2 8.9 -51.75 16.5 -16.85 25.85 14.35 27.8 33.7 29.0 55.75 26.15 74.5 23.75 92.45 18.8 138.65 6.2 161.7 -17.15 171.9 -27.5 174.5 -37.6 177.1 -47.7 171.5 -55.4 167.95 -60.25 158.95 -62.3 149.85 -64.35 137.05 -63.1 107.85 -60.25 75.3 -43.0 51.9 -30.6 36.15 -17.65 M86.05 -25.25 Q68.55 -17.3 58.05 -10.4 53.05 -7.15 32.25 8.6 52.0 6.2 61.2 4.1 75.25 0.9 92.5 -6.45 109.3 -13.6 123.55 -22.9 138.25 -32.5 137.1 -36.0 135.75 -40.1 120.6 -37.0 105.05 -33.85 86.05 -25.25 Z" fill="none" stroke="#990066" stroke-linecap="round" stroke-linejoin="round" stroke-opacity="0.69411767" stroke-width="1.0"/>
  </g>
</svg>
