<?xml version="1.0" encoding="UTF-8" standalone="no"?>
<svg xmlns:ffdec="https://www.free-decompiler.com/flash" xmlns:xlink="http://www.w3.org/1999/xlink" ffdec:objectType="shape" height="89.0px" width="162.95px" xmlns="http://www.w3.org/2000/svg">
  <g transform="matrix(1.0, 0.0, 0.0, 1.0, 108.7, 61.3)">
    <path d="M22.65 -60.25 Q12.85 -45.0 7.05 -24.5 3.0 -10.45 -0.9 14.25 0.5 19.95 7.85 23.75 14.85 27.35 22.55 27.2 27.45 5.3 35.95 -14.25 43.95 -32.55 53.75 -45.8 52.65 -53.05 41.85 -57.7 31.45 -62.15 22.65 -60.25" fill="#990099" fill-opacity="0.4" fill-rule="evenodd" stroke="none"/>
    <path d="M22.65 -60.25 Q12.85 -45.0 7.05 -24.5 3.0 -10.45 -0.9 14.25 0.5 19.95 7.85 23.75 14.85 27.35 22.55 27.2 27.45 5.3 35.95 -14.25 43.95 -32.55 53.75 -45.8 52.65 -53.05 41.85 -57.7 31.45 -62.15 22.65 -60.25 Z" fill="none" stroke="#990066" stroke-linecap="round" stroke-linejoin="round" stroke-opacity="0.69411767" stroke-width="1.0"/>
    <path d="M-35.2 6.45 Q-38.05 18.1 -44.1 24.15 -61.3 16.15 -74.5 11.0 -91.1 4.55 -104.9 1.05 -108.0 -3.8 -108.2 -10.05 -108.35 -16.0 -105.9 -21.9 L-69.55 -16.35 -35.75 -11.2 Q-32.3 -5.4 -35.2 6.45" fill="#990099" fill-opacity="0.4" fill-rule="evenodd" stroke="none"/>
    <path d="M-35.2 6.45 Q-38.05 18.1 -44.1 24.15 -61.3 16.15 -74.5 11.0 -91.1 4.55 -104.9 1.05 -108.0 -3.8 -108.2 -10.05 -108.35 -16.0 -105.9 -21.9 L-69.55 -16.35 -35.75 -11.2 Q-32.3 -5.4 -35.2 6.45 Z" fill="none" stroke="#990066" stroke-linecap="round" stroke-linejoin="round" stroke-opacity="0.69411767" stroke-width="1.0"/>
  </g>
</svg>
