<?xml version="1.0" encoding="UTF-8" standalone="no"?>
<svg xmlns:ffdec="https://www.free-decompiler.com/flash" xmlns:xlink="http://www.w3.org/1999/xlink" ffdec:objectType="shape" height="106.65px" width="288.2px" xmlns="http://www.w3.org/2000/svg">
  <g transform="matrix(1.0, 0.0, 0.0, 1.0, 120.45, 63.7)">
    <path d="M49.9 -8.8 Q37.9 -0.5 30.1 8.05 47.6 6.0 59.8 3.3 77.45 -0.65 93.0 -7.55 112.25 -16.05 122.75 -24.5 134.2 -33.75 129.6 -38.75 125.75 -42.9 107.05 -37.2 90.15 -32.05 73.65 -23.15 59.55 -15.55 49.9 -8.8 M33.75 -19.15 Q45.35 -29.65 62.9 -39.8 89.95 -55.5 118.55 -61.05 149.85 -67.2 161.85 -55.95 168.55 -49.65 166.9 -40.9 165.35 -32.55 156.65 -23.25 138.35 -3.7 102.7 9.15 84.15 15.85 62.4 19.5 45.5 22.35 20.4 24.2 16.75 30.95 14.0 35.1 11.4 39.0 8.65 41.95 L-1.05 42.3 Q-4.4 43.1 -5.85 39.85 -4.9 37.45 -2.1 32.65 1.05 27.25 2.7 23.65 -29.15 21.45 -58.8 13.85 -92.45 5.2 -119.9 -9.7 -120.3 -13.7 -118.2 -17.65 -116.15 -21.5 -112.9 -23.15 -87.9 -11.35 -57.65 -3.25 -19.75 6.85 11.3 6.45 22.9 -9.3 33.75 -19.15" fill="#990099" fill-opacity="0.4" fill-rule="evenodd" stroke="none"/>
    <path d="M49.9 -8.8 Q37.9 -0.5 30.1 8.05 47.6 6.0 59.8 3.3 77.45 -0.65 93.0 -7.55 112.25 -16.05 122.75 -24.5 134.2 -33.75 129.6 -38.75 125.75 -42.9 107.05 -37.2 90.15 -32.05 73.65 -23.15 59.55 -15.55 49.9 -8.8 M33.75 -19.15 Q22.9 -9.3 11.3 6.45 -19.75 6.85 -57.65 -3.25 -87.9 -11.35 -112.9 -23.15 -116.15 -21.5 -118.2 -17.65 -120.3 -13.7 -119.9 -9.7 -92.45 5.2 -58.8 13.85 -29.15 21.45 2.7 23.65 1.05 27.25 -2.1 32.65 -4.9 37.45 -5.85 39.85 -4.4 43.1 -1.05 42.3 L8.65 41.95 Q11.4 39.0 14.0 35.1 16.75 30.95 20.4 24.2 45.5 22.35 62.4 19.5 84.15 15.85 102.7 9.15 138.35 -3.7 156.65 -23.25 165.35 -32.55 166.9 -40.9 168.55 -49.65 161.85 -55.95 149.85 -67.2 118.55 -61.05 89.95 -55.5 62.9 -39.8 45.35 -29.65 33.75 -19.15 Z" fill="none" stroke="#990066" stroke-linecap="round" stroke-linejoin="round" stroke-opacity="0.69411767" stroke-width="1.0"/>
  </g>
</svg>
