<?xml version="1.0" encoding="UTF-8" standalone="no"?>
<svg xmlns:ffdec="https://www.free-decompiler.com/flash" xmlns:xlink="http://www.w3.org/1999/xlink" ffdec:objectType="shape" height="55.9px" width="154.6px" xmlns="http://www.w3.org/2000/svg">
  <g transform="matrix(1.0, 0.0, 0.0, 1.0, 83.35, 5.35)">
    <path d="M-82.25 4.25 L-82.8 -1.5 Q16.0 -9.8 49.9 2.55 70.45 9.9 70.65 22.9 72.05 34.85 51.8 49.9 L49.1 46.85 Q60.55 31.8 60.6 23.6 59.45 16.6 46.5 12.0 13.55 0.35 -82.25 4.25" fill="#999999" fill-rule="evenodd" stroke="none"/>
    <path d="M-82.25 4.25 Q13.55 0.35 46.5 12.0 59.45 16.6 60.6 23.6 60.55 31.8 49.1 46.85 L51.8 49.9 Q72.05 34.85 70.65 22.9 70.45 9.9 49.9 2.55 16.0 -9.8 -82.8 -1.5 L-82.25 4.25 Z" fill="none" stroke="#666666" stroke-linecap="butt" stroke-linejoin="miter-clip" stroke-miterlimit="3.0" stroke-width="1.0"/>
    <path d="M53.9 46.9 Q69.35 34.0 69.75 24.1 69.55 11.05 49.0 3.75 15.6 -8.4 -80.7 -0.6" fill="none" stroke="#cccccc" stroke-linecap="butt" stroke-linejoin="miter-clip" stroke-miterlimit="3.0" stroke-width="1.0"/>
  </g>
</svg>
