<?xml version="1.0" encoding="UTF-8" standalone="no"?>
<svg xmlns:ffdec="https://www.free-decompiler.com/flash" xmlns:xlink="http://www.w3.org/1999/xlink" ffdec:objectType="shape" height="90.3px" width="165.75px" xmlns="http://www.w3.org/2000/svg">
  <g transform="matrix(1.0, 0.0, 0.0, 1.0, 120.9, 46.75)">
    <path d="M-59.8 25.5 Q-82.2 18.55 -95.55 12.05 -109.15 5.5 -120.25 -3.85 -121.1 -10.45 -117.55 -16.75 -114.5 -22.25 -108.55 -27.05 -93.1 -18.95 -75.85 -15.45 -61.4 -12.5 -40.8 -12.05 -40.3 -0.25 -44.65 9.1 -49.5 19.45 -59.8 25.5" fill="#990099" fill-opacity="0.4" fill-rule="evenodd" stroke="none"/>
    <path d="M-59.8 25.5 Q-82.2 18.55 -95.55 12.05 -109.15 5.5 -120.25 -3.85 -121.1 -10.45 -117.55 -16.75 -114.5 -22.25 -108.55 -27.05 -93.1 -18.95 -75.85 -15.45 -61.4 -12.5 -40.8 -12.05 -40.3 -0.25 -44.65 9.1 -49.5 19.45 -59.8 25.5 Z" fill="none" stroke="#990066" stroke-linecap="round" stroke-linejoin="round" stroke-opacity="0.69411767" stroke-width="1.0"/>
    <path d="M29.6 -45.2 Q19.0 -47.5 8.7 -44.7 5.7 -33.3 -0.65 -3.7 -5.15 17.05 -10.7 33.85 -8.35 39.05 -0.9 41.45 5.75 43.5 14.7 42.95 L27.55 5.35 Q36.0 -18.35 44.35 -34.25 41.85 -42.55 29.6 -45.2" fill="#990099" fill-opacity="0.4" fill-rule="evenodd" stroke="none"/>
    <path d="M29.6 -45.2 Q19.0 -47.5 8.7 -44.7 5.7 -33.3 -0.65 -3.7 -5.15 17.05 -10.7 33.85 -8.35 39.05 -0.9 41.45 5.75 43.5 14.7 42.95 L27.55 5.35 Q36.0 -18.35 44.35 -34.25 41.85 -42.55 29.6 -45.2 Z" fill="none" stroke="#990066" stroke-linecap="round" stroke-linejoin="round" stroke-opacity="0.69411767" stroke-width="1.0"/>
  </g>
</svg>
