<?xml version="1.0" encoding="UTF-8" standalone="no"?>
<svg xmlns:ffdec="https://www.free-decompiler.com/flash" xmlns:xlink="http://www.w3.org/1999/xlink" ffdec:objectType="shape" height="94.25px" width="279.5px" xmlns="http://www.w3.org/2000/svg">
  <g transform="matrix(1.0, 0.0, 0.0, 1.0, 124.8, 54.6)">
    <path d="M49.1 -7.15 L28.55 8.4 60.0 2.55 Q74.05 -0.35 83.45 -3.35 104.55 -10.15 116.9 -18.6 129.65 -27.4 123.75 -31.95 119.95 -34.9 105.55 -31.85 90.95 -28.75 73.9 -21.25 61.2 -15.65 49.1 -7.15 M33.9 -15.8 Q48.8 -26.85 67.2 -36.4 94.8 -50.65 116.3 -53.45 139.9 -56.5 150.6 -44.8 155.1 -39.85 154.0 -32.55 152.85 -25.0 145.85 -17.0 129.2 2.0 90.7 12.85 73.75 17.65 54.85 20.85 33.15 24.5 13.45 25.2 L-0.95 39.15 Q-5.7 38.55 -8.55 36.35 -11.4 34.15 -11.95 30.6 L-9.7 27.9 -6.15 23.5 Q-32.0 22.65 -65.05 11.25 -99.85 -0.8 -124.3 -18.45 -124.1 -21.7 -121.15 -26.25 -118.3 -30.6 -115.9 -31.9 -97.3 -18.05 -63.7 -6.7 -28.6 5.15 6.15 8.4 20.2 -5.6 33.9 -15.8" fill="#990099" fill-opacity="0.4" fill-rule="evenodd" stroke="none"/>
    <path d="M49.1 -7.15 L28.55 8.4 60.0 2.55 Q74.05 -0.35 83.45 -3.35 104.55 -10.15 116.9 -18.6 129.65 -27.4 123.75 -31.95 119.95 -34.9 105.55 -31.85 90.95 -28.75 73.9 -21.25 61.2 -15.65 49.1 -7.15 M33.9 -15.8 Q20.2 -5.6 6.15 8.4 -28.6 5.15 -63.7 -6.7 -97.3 -18.05 -115.9 -31.9 -118.3 -30.6 -121.15 -26.25 -124.1 -21.7 -124.3 -18.45 -99.85 -0.8 -65.05 11.25 -32.0 22.65 -6.15 23.5 L-9.7 27.9 -11.95 30.6 Q-11.4 34.15 -8.55 36.35 -5.7 38.55 -0.95 39.15 L13.45 25.2 Q33.15 24.5 54.85 20.85 73.75 17.65 90.7 12.85 129.2 2.0 145.85 -17.0 152.85 -25.0 154.0 -32.55 155.1 -39.85 150.6 -44.8 139.9 -56.5 116.3 -53.45 94.8 -50.65 67.2 -36.4 48.8 -26.85 33.9 -15.8 Z" fill="none" stroke="#990066" stroke-linecap="round" stroke-linejoin="round" stroke-opacity="0.69411767" stroke-width="1.0"/>
  </g>
</svg>
