<?xml version="1.0" encoding="UTF-8" standalone="no"?>
<svg xmlns:ffdec="https://www.free-decompiler.com/flash" xmlns:xlink="http://www.w3.org/1999/xlink" ffdec:objectType="shape" height="84.4px" width="165.5px" xmlns="http://www.w3.org/2000/svg">
  <g transform="matrix(1.0, 0.0, 0.0, 1.0, 124.15, 36.8)">
    <path d="M9.0 -33.4 Q12.5 -23.95 13.1 -13.6 13.8 -3.15 11.35 5.2 8.85 14.15 3.2 18.3 -2.9 22.95 -12.0 20.95 -12.35 28.15 -10.15 34.85 -7.55 42.65 -2.1 47.1 17.35 44.1 29.15 27.35 39.35 12.95 40.8 -6.4 41.5 -15.85 30.2 -25.45 19.0 -35.05 9.0 -33.4" fill="#990099" fill-opacity="0.4" fill-rule="evenodd" stroke="none"/>
    <path d="M9.0 -33.4 Q19.0 -35.05 30.2 -25.45 41.5 -15.85 40.8 -6.4 39.35 12.95 29.15 27.35 17.35 44.1 -2.1 47.1 -7.55 42.65 -10.15 34.85 -12.35 28.15 -12.0 20.95 -2.9 22.95 3.2 18.3 8.85 14.15 11.35 5.2 13.8 -3.15 13.1 -13.6 12.5 -23.95 9.0 -33.4 Z" fill="none" stroke="#990066" stroke-linecap="round" stroke-linejoin="round" stroke-opacity="0.69411767" stroke-width="1.0"/>
    <path d="M-51.2 11.75 Q-56.85 19.8 -67.7 23.7 -88.8 18.15 -102.0 8.85 -112.55 1.4 -123.5 -13.1 -124.35 -19.7 -120.8 -26.0 -117.75 -31.5 -111.8 -36.3 -94.2 -24.4 -81.1 -18.3 -65.15 -10.95 -45.9 -7.35 -45.45 3.65 -51.2 11.75" fill="#990099" fill-opacity="0.4" fill-rule="evenodd" stroke="none"/>
    <path d="M-51.2 11.75 Q-56.85 19.8 -67.7 23.7 -88.8 18.15 -102.0 8.85 -112.55 1.4 -123.5 -13.1 -124.35 -19.7 -120.8 -26.0 -117.75 -31.5 -111.8 -36.3 -94.2 -24.4 -81.1 -18.3 -65.15 -10.95 -45.9 -7.35 -45.45 3.65 -51.2 11.75 Z" fill="none" stroke="#990066" stroke-linecap="round" stroke-linejoin="round" stroke-opacity="0.69411767" stroke-width="1.0"/>
  </g>
</svg>
