<?xml version="1.0" encoding="UTF-8" standalone="no"?>
<svg xmlns:ffdec="https://www.free-decompiler.com/flash" xmlns:xlink="http://www.w3.org/1999/xlink" ffdec:objectType="shape" height="77.2px" width="282.25px" xmlns="http://www.w3.org/2000/svg">
  <g transform="matrix(1.0, 0.0, 0.0, 1.0, 130.4, 40.55)">
    <path d="M43.7 -3.05 Q35.1 0.95 23.45 8.3 L50.8 6.05 Q61.6 4.6 77.7 0.95 95.1 -3.05 109.3 -10.6 115.5 -13.9 117.65 -16.3 119.95 -18.85 116.75 -19.55 111.2 -20.75 99.8 -19.3 85.75 -17.55 68.4 -12.2 53.6 -7.65 43.7 -3.05 M29.05 -12.9 Q43.8 -22.4 61.55 -28.8 88.1 -38.4 110.8 -39.25 133.7 -40.15 146.05 -31.75 152.55 -27.35 151.05 -20.15 149.6 -13.0 140.85 -5.25 120.35 12.8 80.1 20.5 60.6 24.3 42.35 25.05 27.55 25.65 4.9 24.4 L-2.3 30.3 Q-6.95 34.1 -10.25 36.15 -14.95 35.55 -17.7 33.2 -20.45 30.95 -21.0 27.35 L-18.75 25.75 Q-17.25 24.85 -15.15 22.5 -52.15 16.95 -74.75 7.9 -107.55 -5.25 -129.9 -31.25 -129.7 -34.5 -125.9 -37.15 -122.25 -39.65 -117.7 -40.05 -97.35 -18.65 -66.3 -6.95 -39.8 3.05 0.5 7.8 22.9 -8.95 29.05 -12.9" fill="#990099" fill-opacity="0.4" fill-rule="evenodd" stroke="none"/>
    <path d="M43.7 -3.05 Q35.1 0.95 23.45 8.3 L50.8 6.05 Q61.6 4.6 77.7 0.95 95.1 -3.05 109.3 -10.6 115.5 -13.9 117.65 -16.3 119.95 -18.85 116.75 -19.55 111.2 -20.75 99.8 -19.3 85.75 -17.55 68.4 -12.2 53.6 -7.65 43.7 -3.05 M29.05 -12.9 Q22.9 -8.95 0.5 7.8 -39.8 3.05 -66.3 -6.95 -97.35 -18.65 -117.7 -40.05 -122.25 -39.65 -125.9 -37.15 -129.7 -34.5 -129.9 -31.25 -107.55 -5.25 -74.75 7.9 -52.15 16.95 -15.15 22.5 -17.25 24.85 -18.75 25.75 L-21.0 27.35 Q-20.45 30.95 -17.7 33.2 -14.95 35.55 -10.25 36.15 -6.95 34.1 -2.3 30.3 L4.9 24.4 Q27.55 25.65 42.35 25.05 60.6 24.3 80.1 20.5 120.35 12.8 140.85 -5.25 149.6 -13.0 151.05 -20.15 152.55 -27.35 146.05 -31.75 133.7 -40.15 110.8 -39.25 88.1 -38.4 61.55 -28.8 43.8 -22.4 29.05 -12.9 Z" fill="none" stroke="#990066" stroke-linecap="round" stroke-linejoin="round" stroke-opacity="0.69411767" stroke-width="1.0"/>
  </g>
</svg>
