<?xml version="1.0" encoding="UTF-8" standalone="no"?>
<svg xmlns:ffdec="https://www.free-decompiler.com/flash" xmlns:xlink="http://www.w3.org/1999/xlink" ffdec:objectType="shape" height="89.6px" width="175.0px" xmlns="http://www.w3.org/2000/svg">
  <g transform="matrix(1.0, 0.0, 0.0, 1.0, 135.0, 38.55)">
    <path d="M-64.2 10.75 Q-71.4 20.4 -83.45 23.55 -102.25 15.0 -114.2 2.35 -125.0 -9.0 -134.5 -28.35 -131.25 -35.5 -124.8 -37.4 -119.2 -39.0 -110.85 -36.65 -101.1 -24.35 -86.6 -17.85 -74.75 -12.5 -56.05 -9.75 -58.05 2.45 -64.2 10.75" fill="#990099" fill-opacity="0.4" fill-rule="evenodd" stroke="none"/>
    <path d="M-64.2 10.75 Q-71.4 20.4 -83.45 23.55 -102.25 15.0 -114.2 2.35 -125.0 -9.0 -134.5 -28.35 -131.25 -35.5 -124.8 -37.4 -119.2 -39.0 -110.85 -36.65 -101.1 -24.35 -86.6 -17.85 -74.75 -12.5 -56.05 -9.75 -58.05 2.45 -64.2 10.75 Z" fill="none" stroke="#990066" stroke-linecap="round" stroke-linejoin="round" stroke-opacity="0.69411767" stroke-width="1.0"/>
    <path d="M14.2 -4.3 Q17.55 14.45 8.7 18.85 0.55 22.9 -14.05 13.75 -17.9 17.55 -19.7 26.6 -21.55 36.2 -18.85 42.05 1.55 53.4 17.4 49.6 36.25 45.05 39.5 19.25 34.55 8.05 30.15 2.5 22.5 -7.05 14.2 -4.3" fill="#990099" fill-opacity="0.4" fill-rule="evenodd" stroke="none"/>
    <path d="M14.2 -4.3 Q17.55 14.45 8.7 18.85 0.55 22.9 -14.05 13.75 -17.9 17.55 -19.7 26.6 -21.55 36.2 -18.85 42.05 1.55 53.4 17.4 49.6 36.25 45.05 39.5 19.25 34.55 8.05 30.15 2.5 22.5 -7.05 14.2 -4.3 Z" fill="none" stroke="#990066" stroke-linecap="round" stroke-linejoin="round" stroke-opacity="0.69411767" stroke-width="1.0"/>
  </g>
</svg>
