<?xml version="1.0" encoding="UTF-8" standalone="no"?>
<svg xmlns:ffdec="https://www.free-decompiler.com/flash" xmlns:xlink="http://www.w3.org/1999/xlink" ffdec:objectType="shape" height="82.0px" width="253.3px" xmlns="http://www.w3.org/2000/svg">
  <g transform="matrix(1.0, 0.0, 0.0, 1.0, 135.5, 51.25)">
    <path d="M28.8 -12.9 Q42.7 -19.6 60.75 -24.75 79.05 -29.9 93.65 -28.0 108.1 -26.1 114.95 -17.85 119.9 -11.8 114.45 -2.15 109.2 7.1 97.4 14.7 73.1 30.4 28.6 30.25 -17.8 30.15 -67.05 12.5 -88.1 5.0 -101.9 -4.8 -120.2 -17.8 -135.0 -40.35 -134.05 -43.7 -129.9 -46.95 -125.65 -50.25 -121.5 -50.75 -110.5 -33.35 -91.9 -21.35 -78.4 -12.65 -57.95 -5.35 -46.15 -1.1 -32.0 1.95 -18.55 4.85 -5.05 6.25 17.1 -7.25 28.8 -12.9 M71.6 -9.3 Q58.5 -7.5 47.6 -3.45 39.8 -0.55 31.25 3.7 23.15 7.7 21.35 9.35 30.85 9.6 39.4 9.15 L53.55 7.55 Q66.5 5.1 77.75 -0.3 89.55 -5.95 86.45 -9.05 84.4 -11.1 71.6 -9.3" fill="#990099" fill-opacity="0.4" fill-rule="evenodd" stroke="none"/>
    <path d="M71.6 -9.3 Q84.4 -11.1 86.45 -9.05 89.55 -5.95 77.75 -0.3 66.5 5.1 53.55 7.55 L39.4 9.15 Q30.85 9.6 21.35 9.35 23.15 7.7 31.25 3.7 39.8 -0.55 47.6 -3.45 58.5 -7.5 71.6 -9.3 M28.8 -12.9 Q17.1 -7.25 -5.05 6.25 -18.55 4.85 -32.0 1.95 -46.15 -1.1 -57.95 -5.35 -78.4 -12.65 -91.9 -21.35 -110.5 -33.35 -121.5 -50.75 -125.65 -50.25 -129.9 -46.95 -134.05 -43.7 -135.0 -40.35 -120.2 -17.8 -101.9 -4.8 -88.1 5.0 -67.05 12.5 -17.8 30.15 28.6 30.25 73.1 30.4 97.4 14.7 109.2 7.1 114.45 -2.15 119.9 -11.8 114.95 -17.85 108.1 -26.1 93.65 -28.0 79.05 -29.9 60.75 -24.75 42.7 -19.6 28.8 -12.9 Z" fill="none" stroke="#990066" stroke-linecap="round" stroke-linejoin="round" stroke-opacity="0.69411767" stroke-width="1.0"/>
  </g>
</svg>
