<?xml version="1.0" encoding="UTF-8" standalone="no"?>
<svg xmlns:ffdec="https://www.free-decompiler.com/flash" xmlns:xlink="http://www.w3.org/1999/xlink" ffdec:objectType="shape" height="119.5px" width="163.1px" xmlns="http://www.w3.org/2000/svg">
  <g transform="matrix(1.0, 0.0, 0.0, 1.0, 137.6, 53.4)">
    <path d="M-75.85 8.2 Q-83.45 17.5 -92.75 21.75 -114.55 8.2 -123.35 -3.4 -132.1 -14.95 -137.1 -36.75 -135.6 -43.7 -130.75 -47.6 -125.9 -51.55 -116.9 -52.9 -109.6 -35.05 -98.45 -26.35 -88.65 -18.85 -66.8 -12.1 -67.35 -2.1 -75.85 8.2" fill="#990099" fill-opacity="0.4" fill-rule="evenodd" stroke="none"/>
    <path d="M-75.85 8.2 Q-83.45 17.5 -92.75 21.75 -114.55 8.2 -123.35 -3.4 -132.1 -14.95 -137.1 -36.75 -135.6 -43.7 -130.75 -47.6 -125.9 -51.55 -116.9 -52.9 -109.6 -35.05 -98.45 -26.35 -88.65 -18.85 -66.8 -12.1 -67.35 -2.1 -75.85 8.2 Z" fill="none" stroke="#990066" stroke-linecap="round" stroke-linejoin="round" stroke-opacity="0.69411767" stroke-width="1.0"/>
    <path d="M19.25 14.65 Q17.5 22.2 13.05 26.2 8.75 30.1 3.05 29.8 -2.8 29.4 -8.45 24.7 -14.6 19.6 -19.25 10.3 -24.85 11.6 -28.55 20.3 -32.3 29.1 -29.5 35.2 -20.65 54.05 -7.35 61.9 7.6 70.7 19.3 58.7 24.5 45.8 24.95 33.55 25.4 20.05 19.25 14.65" fill="#990099" fill-opacity="0.4" fill-rule="evenodd" stroke="none"/>
    <path d="M19.25 14.65 Q17.5 22.2 13.05 26.2 8.75 30.1 3.05 29.8 -2.8 29.4 -8.45 24.7 -14.6 19.6 -19.25 10.3 -24.85 11.6 -28.55 20.3 -32.3 29.1 -29.5 35.2 -20.65 54.05 -7.35 61.9 7.6 70.7 19.3 58.7 24.5 45.8 24.95 33.55 25.4 20.05 19.25 14.65 Z" fill="none" stroke="#990066" stroke-linecap="round" stroke-linejoin="round" stroke-opacity="0.69411767" stroke-width="1.0"/>
  </g>
</svg>
