<?xml version="1.0" encoding="UTF-8" standalone="no"?>
<svg xmlns:ffdec="https://www.free-decompiler.com/flash" xmlns:xlink="http://www.w3.org/1999/xlink" ffdec:objectType="shape" height="94.5px" width="239.85px" xmlns="http://www.w3.org/2000/svg">
  <g transform="matrix(1.0, 0.0, 0.0, 1.0, 134.45, 55.55)">
    <path d="M9.75 -1.8 Q34.1 -10.5 45.95 -13.65 67.85 -19.55 82.15 -18.7 98.1 -17.7 103.25 -8.3 106.5 -2.35 103.3 5.55 100.1 13.4 91.5 20.55 71.15 37.5 38.8 38.35 10.8 39.0 -11.05 35.95 -42.25 31.6 -72.8 18.95 -99.3 7.95 -113.5 -5.85 -133.1 -24.9 -133.95 -52.2 -133.05 -55.3 -127.0 -55.05 -121.35 -54.8 -117.4 -52.45 -112.85 -34.15 -100.2 -21.2 -88.4 -9.05 -69.2 -1.2 -56.25 4.05 -48.0 6.6 L-31.85 10.75 Q-12.45 6.1 9.75 -1.8 M75.65 -0.6 Q73.2 -3.4 63.45 -1.7 56.7 -0.55 40.7 4.1 L24.05 9.5 Q14.0 12.85 5.2 14.95 L24.7 16.0 43.1 14.9 Q58.05 13.35 68.6 8.05 78.8 3.0 75.65 -0.6" fill="#990099" fill-opacity="0.4" fill-rule="evenodd" stroke="none"/>
    <path d="M75.65 -0.6 Q78.8 3.0 68.6 8.05 58.05 13.35 43.1 14.9 L24.7 16.0 5.2 14.95 Q14.0 12.85 24.05 9.5 L40.7 4.1 Q56.7 -0.55 63.45 -1.7 73.2 -3.4 75.65 -0.6 M9.75 -1.8 Q-12.45 6.1 -31.85 10.75 L-48.0 6.6 Q-56.25 4.05 -69.2 -1.2 -88.4 -9.05 -100.2 -21.2 -112.85 -34.15 -117.4 -52.45 -121.35 -54.8 -127.0 -55.05 -133.05 -55.3 -133.95 -52.2 -133.1 -24.9 -113.5 -5.85 -99.3 7.95 -72.8 18.95 -42.25 31.6 -11.05 35.95 10.8 39.0 38.8 38.35 71.15 37.5 91.5 20.55 100.1 13.4 103.3 5.55 106.5 -2.35 103.25 -8.3 98.1 -17.7 82.15 -18.7 67.85 -19.55 45.95 -13.65 34.1 -10.5 9.75 -1.8 Z" fill="none" stroke="#990066" stroke-linecap="round" stroke-linejoin="round" stroke-opacity="0.69411767" stroke-width="1.0"/>
  </g>
</svg>
