<?xml version="1.0" encoding="UTF-8" standalone="no"?>
<svg xmlns:ffdec="https://www.free-decompiler.com/flash" xmlns:xlink="http://www.w3.org/1999/xlink" ffdec:objectType="shape" height="122.3px" width="154.4px" xmlns="http://www.w3.org/2000/svg">
  <g transform="matrix(1.0, 0.0, 0.0, 1.0, 139.7, 58.85)">
    <path d="M-85.85 6.65 Q-96.6 16.0 -107.1 16.7 -129.0 3.9 -135.6 -13.65 -140.6 -27.1 -138.7 -52.4 -135.05 -58.35 -127.35 -58.35 -120.35 -58.4 -113.65 -53.8 -113.9 -36.6 -105.4 -28.0 -97.1 -19.75 -74.15 -13.45 -74.75 -3.15 -85.85 6.65" fill="#990099" fill-opacity="0.4" fill-rule="evenodd" stroke="none"/>
    <path d="M-85.85 6.65 Q-96.6 16.0 -107.1 16.7 -129.0 3.9 -135.6 -13.65 -140.6 -27.1 -138.7 -52.4 -135.05 -58.35 -127.35 -58.35 -120.35 -58.4 -113.65 -53.8 -113.9 -36.6 -105.4 -28.0 -97.1 -19.75 -74.15 -13.45 -74.75 -3.15 -85.85 6.65 Z" fill="none" stroke="#990066" stroke-linecap="round" stroke-linejoin="round" stroke-opacity="0.69411767" stroke-width="1.0"/>
    <path d="M-12.0 62.95 Q-3.15 60.7 5.7 51.8 14.75 42.75 14.15 36.4 0.95 46.5 -7.6 37.0 -15.85 27.85 -17.15 3.85 -22.45 4.2 -28.15 10.45 -33.9 16.95 -34.25 23.55 -35.0 38.3 -29.9 48.6 -24.1 60.3 -12.0 62.95" fill="#990099" fill-opacity="0.4" fill-rule="evenodd" stroke="none"/>
    <path d="M-12.0 62.95 Q-3.15 60.7 5.7 51.8 14.75 42.75 14.15 36.4 0.95 46.5 -7.6 37.0 -15.85 27.85 -17.15 3.85 -22.45 4.2 -28.15 10.45 -33.9 16.95 -34.25 23.55 -35.0 38.3 -29.9 48.6 -24.1 60.3 -12.0 62.95 Z" fill="none" stroke="#990066" stroke-linecap="round" stroke-linejoin="round" stroke-opacity="0.69411767" stroke-width="1.0"/>
  </g>
</svg>
