<?xml version="1.0" encoding="UTF-8" standalone="no"?>
<svg xmlns:ffdec="https://www.free-decompiler.com/flash" xmlns:xlink="http://www.w3.org/1999/xlink" ffdec:objectType="shape" height="116.25px" width="226.45px" xmlns="http://www.w3.org/2000/svg">
  <g transform="matrix(1.0, 0.0, 0.0, 1.0, 135.95, 64.05)">
    <path d="M-115.2 -59.45 Q-122.55 -25.85 -99.85 -4.0 -83.7 11.55 -55.6 18.85 -33.2 24.7 -16.65 26.35 -1.6 27.75 15.25 26.1 32.8 24.4 45.7 19.7 58.8 15.1 58.25 10.65 58.0 8.7 54.8 9.2 52.6 9.55 46.45 11.8 29.75 17.7 20.65 18.65 8.55 19.9 -2.5 18.5 -10.95 17.4 -24.6 13.75 -26.15 10.8 -26.05 6.5 -25.95 2.25 -24.4 -0.8 -8.3 4.4 5.4 4.35 20.4 4.4 33.55 -1.75 58.95 -13.55 73.65 -11.35 86.05 -9.55 89.2 1.75 93.65 17.65 73.8 31.9 54.45 45.8 24.45 49.6 -2.3 52.9 -19.65 51.05 -39.1 48.95 -67.4 38.75 -104.7 25.3 -122.3 1.95 -143.3 -26.0 -130.75 -62.8 L-122.5 -63.15 Q-117.8 -62.15 -115.2 -59.45" fill="#990099" fill-opacity="0.4" fill-rule="evenodd" stroke="none"/>
    <path d="M-115.2 -59.45 Q-122.55 -25.85 -99.85 -4.0 -83.7 11.55 -55.6 18.85 -33.2 24.7 -16.65 26.35 -1.6 27.75 15.25 26.1 32.8 24.4 45.7 19.7 58.8 15.1 58.25 10.65 58.0 8.7 54.8 9.2 52.6 9.55 46.45 11.8 29.75 17.7 20.65 18.65 8.55 19.9 -2.5 18.5 -10.95 17.4 -24.6 13.75 -26.15 10.8 -26.05 6.5 -25.95 2.25 -24.4 -0.8 -8.3 4.4 5.4 4.35 20.4 4.4 33.55 -1.75 58.95 -13.55 73.65 -11.35 86.05 -9.55 89.2 1.75 93.65 17.65 73.8 31.9 54.45 45.8 24.45 49.6 -2.3 52.9 -19.65 51.05 -39.1 48.95 -67.4 38.75 -104.7 25.3 -122.3 1.95 -143.3 -26.0 -130.75 -62.8 L-122.5 -63.15 Q-117.8 -62.15 -115.2 -59.45 Z" fill="none" stroke="#990066" stroke-linecap="round" stroke-linejoin="round" stroke-opacity="0.69411767" stroke-width="1.0"/>
  </g>
</svg>
