<?xml version="1.0" encoding="UTF-8" standalone="no"?>
<svg xmlns:ffdec="https://www.free-decompiler.com/flash" xmlns:xlink="http://www.w3.org/1999/xlink" ffdec:objectType="shape" height="128.05px" width="148.25px" xmlns="http://www.w3.org/2000/svg">
  <g transform="matrix(1.0, 0.0, 0.0, 1.0, 143.45, 65.3)">
    <path d="M-122.9 8.8 Q-138.2 -7.9 -141.9 -26.55 -145.55 -45.3 -136.8 -62.7 -132.2 -66.3 -123.95 -63.8 -118.45 -62.15 -111.8 -58.0 -116.8 -38.0 -110.15 -26.85 -102.9 -14.85 -82.05 -13.45 -82.6 -3.45 -97.9 4.05 -104.35 7.15 -111.15 8.45 L-122.9 8.8" fill="#990099" fill-opacity="0.4" fill-rule="evenodd" stroke="none"/>
    <path d="M-122.9 8.8 Q-138.2 -7.9 -141.9 -26.55 -145.55 -45.3 -136.8 -62.7 -132.2 -66.3 -123.95 -63.8 -118.45 -62.15 -111.8 -58.0 -116.8 -38.0 -110.15 -26.85 -102.9 -14.85 -82.05 -13.45 -82.6 -3.45 -97.9 4.05 -104.35 7.15 -111.15 8.45 L-122.9 8.8 Z" fill="none" stroke="#990066" stroke-linecap="round" stroke-linejoin="round" stroke-opacity="0.69411767" stroke-width="1.0"/>
    <path d="M-9.85 61.25 Q-0.05 58.9 4.3 51.5 -5.95 48.6 -9.3 34.75 -11.2 27.15 -12.05 4.25 -18.0 0.75 -25.05 1.05 -32.9 1.45 -37.7 6.85 -39.55 22.95 -38.2 35.8 -36.65 51.4 -30.45 60.8 -19.0 63.5 -9.85 61.25" fill="#990099" fill-opacity="0.4" fill-rule="evenodd" stroke="none"/>
    <path d="M-9.85 61.25 Q-0.05 58.9 4.3 51.5 -5.95 48.6 -9.3 34.75 -11.2 27.15 -12.05 4.25 -18.0 0.75 -25.05 1.05 -32.9 1.45 -37.7 6.85 -39.55 22.95 -38.2 35.8 -36.65 51.4 -30.45 60.8 -19.0 63.5 -9.85 61.25 Z" fill="none" stroke="#990066" stroke-linecap="round" stroke-linejoin="round" stroke-opacity="0.69411767" stroke-width="1.0"/>
  </g>
</svg>
