<?xml version="1.0" encoding="UTF-8" standalone="no"?>
<svg xmlns:ffdec="https://www.free-decompiler.com/flash" xmlns:xlink="http://www.w3.org/1999/xlink" ffdec:objectType="shape" height="133.15px" width="221.15px" xmlns="http://www.w3.org/2000/svg">
  <g transform="matrix(1.0, 0.0, 0.0, 1.0, 142.1, 73.45)">
    <path d="M42.0 22.4 Q40.85 18.55 34.25 19.0 L17.7 21.55 -1.75 22.55 Q-12.05 21.95 -19.3 18.65 -25.6 15.75 -28.95 10.85 -31.85 6.65 -32.65 0.35 -30.4 -2.55 -25.65 -5.05 -20.2 -8.0 -18.6 -5.55 -16.55 -2.6 -12.8 -0.7 -9.8 0.9 -4.9 2.0 0.3 3.15 11.05 2.15 L27.3 0.25 Q53.15 -1.75 65.65 2.5 80.75 7.6 78.2 22.3 76.85 29.75 68.9 37.05 61.25 44.15 48.85 49.5 21.45 61.4 -8.95 58.7 -37.1 56.2 -61.4 47.0 -85.6 37.85 -110.2 20.55 -120.1 13.6 -127.75 3.05 -135.85 -8.1 -139.3 -20.45 -147.45 -50.0 -126.9 -72.95 -121.3 -72.1 -118.5 -70.45 -115.5 -68.55 -114.55 -65.0 -125.3 -43.9 -119.65 -26.3 -114.25 -9.25 -93.5 4.2 -58.55 26.95 -7.95 33.7 7.4 35.7 25.35 31.85 43.65 27.95 42.0 22.4" fill="#990099" fill-opacity="0.4" fill-rule="evenodd" stroke="none"/>
    <path d="M42.0 22.4 Q40.85 18.55 34.25 19.0 L17.7 21.55 -1.75 22.55 Q-12.05 21.95 -19.3 18.65 -25.6 15.75 -28.95 10.85 -31.85 6.65 -32.65 0.35 -30.4 -2.55 -25.65 -5.05 -20.2 -8.0 -18.6 -5.55 -16.55 -2.6 -12.8 -0.7 -9.8 0.9 -4.9 2.0 0.3 3.15 11.05 2.15 L27.3 0.25 Q53.15 -1.75 65.65 2.5 80.75 7.6 78.2 22.3 76.85 29.75 68.9 37.05 61.25 44.15 48.85 49.5 21.45 61.4 -8.95 58.7 -37.1 56.2 -61.4 47.0 -85.6 37.85 -110.2 20.55 -120.1 13.6 -127.75 3.05 -135.85 -8.1 -139.3 -20.45 -147.45 -50.0 -126.9 -72.95 -121.3 -72.1 -118.5 -70.45 -115.5 -68.55 -114.55 -65.0 -125.3 -43.9 -119.65 -26.3 -114.25 -9.25 -93.5 4.2 -58.55 26.95 -7.95 33.7 7.4 35.7 25.35 31.85 43.65 27.95 42.0 22.4 Z" fill="none" stroke="#990066" stroke-linecap="round" stroke-linejoin="round" stroke-opacity="0.69411767" stroke-width="1.0"/>
  </g>
</svg>
