<?xml version="1.0" encoding="UTF-8" standalone="no"?>
<svg xmlns:ffdec="https://www.free-decompiler.com/flash" xmlns:xlink="http://www.w3.org/1999/xlink" ffdec:objectType="shape" height="136.4px" width="148.65px" xmlns="http://www.w3.org/2000/svg">
  <g transform="matrix(1.0, 0.0, 0.0, 1.0, 152.45, 75.65)">
    <path d="M-139.6 -5.55 Q-154.7 -26.25 -151.35 -47.15 -148.3 -66.05 -133.15 -75.1 -123.85 -75.5 -118.75 -70.5 -114.15 -66.0 -114.1 -58.45 -127.1 -45.9 -124.45 -32.95 -121.3 -18.2 -97.85 -8.35 -108.15 -1.55 -118.4 -0.9 -128.35 -0.3 -139.6 -5.55" fill="#990099" fill-opacity="0.4" fill-rule="evenodd" stroke="none"/>
    <path d="M-139.6 -5.55 Q-154.7 -26.25 -151.35 -47.15 -148.3 -66.05 -133.15 -75.1 -123.85 -75.5 -118.75 -70.5 -114.15 -66.0 -114.1 -58.45 -127.1 -45.9 -124.45 -32.95 -121.3 -18.2 -97.85 -8.35 -108.15 -1.55 -118.4 -0.9 -128.35 -0.3 -139.6 -5.55 Z" fill="none" stroke="#990066" stroke-linecap="round" stroke-linejoin="round" stroke-opacity="0.69411767" stroke-width="1.0"/>
    <path d="M-40.7 46.7 Q-32.6 56.5 -21.05 59.4 -8.9 62.45 -4.3 54.4 -17.65 39.55 -20.35 29.0 -23.6 16.3 -13.7 4.2 -17.0 -2.2 -22.9 -5.2 -28.95 -8.25 -36.9 -7.25 -45.25 5.25 -45.95 18.6 -46.7 31.15 -40.7 46.7" fill="#990099" fill-opacity="0.4" fill-rule="evenodd" stroke="none"/>
    <path d="M-40.7 46.7 Q-32.6 56.5 -21.05 59.4 -8.9 62.45 -4.3 54.4 -17.65 39.55 -20.35 29.0 -23.6 16.3 -13.7 4.2 -17.0 -2.2 -22.9 -5.2 -28.95 -8.25 -36.9 -7.25 -45.25 5.25 -45.95 18.6 -46.7 31.15 -40.7 46.7 Z" fill="none" stroke="#990066" stroke-linecap="round" stroke-linejoin="round" stroke-opacity="0.69411767" stroke-width="1.0"/>
  </g>
</svg>
