<?xml version="1.0" encoding="UTF-8" standalone="no"?>
<svg xmlns:ffdec="https://www.free-decompiler.com/flash" xmlns:xlink="http://www.w3.org/1999/xlink" ffdec:objectType="shape" height="138.45px" width="216.9px" xmlns="http://www.w3.org/2000/svg">
  <g transform="matrix(1.0, 0.0, 0.0, 1.0, 154.8, 73.75)">
    <path d="M18.4 61.0 Q-1.5 66.4 -29.15 62.65 -58.5 58.65 -84.4 45.7 -112.0 31.9 -133.7 8.85 -143.6 -1.65 -149.0 -13.25 -154.75 -25.55 -154.25 -36.65 -153.15 -62.7 -119.9 -72.95 -117.15 -73.8 -114.5 -72.4 -112.15 -71.15 -110.65 -68.6 -109.15 -66.05 -109.45 -63.7 -109.65 -61.15 -111.95 -59.95 -135.0 -47.65 -131.0 -30.65 -128.25 -18.4 -108.2 1.9 -94.2 16.05 -72.9 26.15 -51.75 36.25 -27.25 40.5 -6.85 44.0 9.55 39.6 23.75 35.75 25.4 29.7 26.15 27.0 17.75 28.8 2.0 32.3 -4.15 32.95 -13.65 34.0 -21.55 29.95 -28.55 26.25 -32.0 19.8 -35.8 12.8 -33.0 4.2 -30.15 -4.7 -21.2 -11.75 -17.4 -14.8 -11.05 -9.6 -8.6 -7.55 -7.45 -5.35 -6.25 -3.0 -7.3 -1.8 -12.2 3.5 -9.9 7.75 -7.9 11.75 -1.8 11.75 3.6 11.7 13.7 8.5 26.05 4.5 33.95 3.3 45.95 1.5 53.1 5.1 59.45 8.25 61.05 15.1 62.6 21.45 59.65 29.05 56.85 36.55 50.8 42.4 36.85 55.95 18.4 61.0" fill="#990099" fill-opacity="0.4" fill-rule="evenodd" stroke="none"/>
    <path d="M18.4 61.0 Q36.85 55.95 50.8 42.4 56.85 36.55 59.65 29.05 62.6 21.45 61.05 15.1 59.45 8.25 53.1 5.1 45.95 1.5 33.95 3.3 26.05 4.5 13.7 8.5 3.6 11.7 -1.8 11.75 -7.9 11.75 -9.9 7.75 -12.2 3.5 -7.3 -1.8 -6.25 -3.0 -7.45 -5.35 -8.6 -7.55 -11.05 -9.6 -17.4 -14.8 -21.2 -11.75 -30.15 -4.7 -33.0 4.2 -35.8 12.8 -32.0 19.8 -28.55 26.25 -21.55 29.95 -13.65 34.0 -4.15 32.95 2.0 32.3 17.75 28.8 26.15 27.0 25.4 29.7 23.75 35.75 9.55 39.6 -6.85 44.0 -27.25 40.5 -51.75 36.25 -72.9 26.15 -94.2 16.05 -108.2 1.9 -128.25 -18.4 -131.0 -30.65 -135.0 -47.65 -111.95 -59.95 -109.65 -61.15 -109.45 -63.7 -109.15 -66.05 -110.65 -68.6 -112.15 -71.15 -114.5 -72.4 -117.15 -73.8 -119.9 -72.95 -153.15 -62.7 -154.25 -36.65 -154.75 -25.55 -149.0 -13.25 -143.6 -1.65 -133.7 8.85 -112.0 31.9 -84.4 45.7 -58.5 58.65 -29.15 62.65 -1.5 66.4 18.4 61.0 Z" fill="none" stroke="#990066" stroke-linecap="round" stroke-linejoin="round" stroke-opacity="0.69411767" stroke-width="1.0"/>
  </g>
</svg>
