<?xml version="1.0" encoding="UTF-8" standalone="no"?>
<svg xmlns:ffdec="https://www.free-decompiler.com/flash" xmlns:xlink="http://www.w3.org/1999/xlink" ffdec:objectType="shape" height="135.5px" width="157.05px" xmlns="http://www.w3.org/2000/svg">
  <g transform="matrix(1.0, 0.0, 0.0, 1.0, 163.1, 78.5)">
    <path d="M-125.4 -35.2 Q-126.5 -27.55 -123.45 -20.2 -120.15 -12.15 -112.3 -5.95 -123.4 -0.9 -137.55 -5.95 -151.0 -10.75 -159.6 -21.65 -167.45 -44.2 -154.65 -58.85 -145.65 -69.15 -122.9 -78.0 -114.65 -75.45 -111.35 -69.35 -108.9 -64.85 -108.5 -56.2 -115.25 -53.95 -119.85 -48.2 -124.35 -42.55 -125.4 -35.2" fill="#990099" fill-opacity="0.4" fill-rule="evenodd" stroke="none"/>
    <path d="M-125.4 -35.2 Q-126.5 -27.55 -123.45 -20.2 -120.15 -12.15 -112.3 -5.95 -123.4 -0.9 -137.55 -5.95 -151.0 -10.75 -159.6 -21.65 -167.45 -44.2 -154.65 -58.85 -145.65 -69.15 -122.9 -78.0 -114.65 -75.45 -111.35 -69.35 -108.9 -64.85 -108.5 -56.2 -115.25 -53.95 -119.85 -48.2 -124.35 -42.55 -125.4 -35.2 Z" fill="none" stroke="#990066" stroke-linecap="round" stroke-linejoin="round" stroke-opacity="0.69411767" stroke-width="1.0"/>
    <path d="M-48.65 40.25 Q-41.0 51.5 -30.25 55.2 -19.05 59.05 -12.0 51.45 -23.35 36.35 -21.75 23.6 -20.2 11.1 -6.55 4.15 -8.05 -6.05 -13.2 -11.45 -18.7 -17.15 -26.0 -14.35 -39.6 -9.1 -45.75 5.65 -52.05 20.6 -48.65 40.25" fill="#990099" fill-opacity="0.4" fill-rule="evenodd" stroke="none"/>
    <path d="M-48.65 40.25 Q-41.0 51.5 -30.25 55.2 -19.05 59.05 -12.0 51.45 -23.35 36.35 -21.75 23.6 -20.2 11.1 -6.55 4.15 -8.05 -6.05 -13.2 -11.45 -18.7 -17.15 -26.0 -14.35 -39.6 -9.1 -45.75 5.65 -52.05 20.6 -48.65 40.25 Z" fill="none" stroke="#990066" stroke-linecap="round" stroke-linejoin="round" stroke-opacity="0.69411767" stroke-width="1.0"/>
  </g>
</svg>
