<?xml version="1.0" encoding="UTF-8" standalone="no"?>
<svg xmlns:ffdec="https://www.free-decompiler.com/flash" xmlns:xlink="http://www.w3.org/1999/xlink" ffdec:objectType="shape" height="131.1px" width="210.95px" xmlns="http://www.w3.org/2000/svg">
  <g transform="matrix(1.0, 0.0, 0.0, 1.0, 161.45, 75.3)">
    <path d="M44.65 20.0 Q48.1 24.25 48.8 29.15 50.6 40.95 36.4 47.55 21.1 54.65 -5.2 55.25 -28.8 55.75 -59.1 51.0 -91.7 45.85 -110.5 36.1 -134.1 23.95 -150.7 -1.5 -158.35 -13.25 -160.3 -26.0 -162.3 -38.95 -157.9 -49.6 -153.2 -61.05 -142.25 -67.55 -130.15 -74.65 -111.95 -74.8 -109.1 -74.8 -107.0 -72.25 -105.1 -69.9 -104.35 -66.45 -103.7 -63.1 -104.6 -60.55 -105.55 -57.8 -108.1 -57.5 -117.05 -56.35 -123.75 -51.8 -130.25 -47.35 -133.25 -40.65 -136.3 -33.75 -134.9 -26.15 -133.4 -17.95 -126.9 -10.35 -116.3 2.05 -99.15 10.0 -85.45 16.35 -64.05 21.1 -48.75 24.6 -41.3 24.65 -33.9 24.8 -36.4 21.45 -40.6 16.05 -41.9 12.0 -43.95 5.45 -40.25 -0.4 -35.2 -8.25 -28.75 -11.6 -21.8 -15.25 -6.95 -17.25 -2.1 -18.0 -0.7 -10.4 -0.15 -7.4 -0.6 -4.85 -1.15 -2.15 -2.65 -1.55 -11.15 1.9 -7.15 6.05 -3.25 9.95 6.5 9.95 18.25 9.95 22.25 10.3 30.5 11.05 36.75 13.8 41.4 15.9 44.65 20.0" fill="#990099" fill-opacity="0.4" fill-rule="evenodd" stroke="none"/>
    <path d="M44.65 20.0 Q41.4 15.9 36.75 13.8 30.5 11.05 22.25 10.3 18.25 9.95 6.5 9.95 -3.25 9.95 -7.15 6.05 -11.15 1.9 -2.65 -1.55 -1.15 -2.15 -0.6 -4.85 -0.15 -7.4 -0.7 -10.4 -2.1 -18.0 -6.95 -17.25 -21.8 -15.25 -28.75 -11.6 -35.2 -8.25 -40.25 -0.4 -43.95 5.45 -41.9 12.0 -40.6 16.05 -36.4 21.45 -33.9 24.8 -41.3 24.65 -48.75 24.6 -64.05 21.1 -85.45 16.35 -99.15 10.0 -116.3 2.05 -126.9 -10.35 -133.4 -17.95 -134.9 -26.15 -136.3 -33.75 -133.25 -40.65 -130.25 -47.35 -123.75 -51.8 -117.05 -56.35 -108.1 -57.5 -105.55 -57.8 -104.6 -60.55 -103.7 -63.1 -104.35 -66.45 -105.1 -69.9 -107.0 -72.25 -109.1 -74.8 -111.95 -74.8 -130.15 -74.65 -142.25 -67.55 -153.2 -61.05 -157.9 -49.6 -162.3 -38.95 -160.3 -26.0 -158.35 -13.25 -150.7 -1.5 -134.1 23.95 -110.5 36.1 -91.7 45.85 -59.1 51.0 -28.8 55.75 -5.2 55.25 21.1 54.65 36.4 47.55 50.6 40.95 48.8 29.15 48.1 24.25 44.65 20.0 Z" fill="none" stroke="#990066" stroke-linecap="round" stroke-linejoin="round" stroke-opacity="0.69411767" stroke-width="1.0"/>
  </g>
</svg>
