<?xml version="1.0" encoding="UTF-8" standalone="no"?>
<svg xmlns:ffdec="https://www.free-decompiler.com/flash" xmlns:xlink="http://www.w3.org/1999/xlink" ffdec:objectType="shape" height="123.95px" width="169.35px" xmlns="http://www.w3.org/2000/svg">
  <g transform="matrix(1.0, 0.0, 0.0, 1.0, 169.75, 81.85)">
    <path d="M-169.25 -38.95 Q-166.3 -63.45 -151.25 -74.25 -137.25 -84.25 -116.45 -80.2 -109.7 -75.55 -107.95 -68.55 -106.4 -62.25 -108.5 -52.4 -114.4 -53.2 -120.35 -49.25 -126.1 -45.4 -130.1 -38.4 -134.3 -31.1 -135.25 -22.8 -136.3 -13.65 -133.2 -5.3 -146.1 -1.85 -157.05 -14.35 -166.2 -24.75 -169.25 -38.95" fill="#990099" fill-opacity="0.4" fill-rule="evenodd" stroke="none"/>
    <path d="M-169.25 -38.95 Q-166.3 -63.45 -151.25 -74.25 -137.25 -84.25 -116.45 -80.2 -109.7 -75.55 -107.95 -68.55 -106.4 -62.25 -108.5 -52.4 -114.4 -53.2 -120.35 -49.25 -126.1 -45.4 -130.1 -38.4 -134.3 -31.1 -135.25 -22.8 -136.3 -13.65 -133.2 -5.3 -146.1 -1.85 -157.05 -14.35 -166.2 -24.75 -169.25 -38.95 Z" fill="none" stroke="#990066" stroke-linecap="round" stroke-linejoin="round" stroke-opacity="0.69411767" stroke-width="1.0"/>
    <path d="M-41.1 36.8 Q-31.15 44.2 -21.25 40.25 -32.6 25.15 -27.25 15.15 -21.95 5.35 -2.3 3.2 -0.65 -7.4 -0.95 -11.9 -1.7 -20.9 -8.3 -24.55 -16.95 -23.65 -25.75 -19.95 -34.8 -16.15 -41.55 -10.4 -57.45 3.05 -53.25 19.0 -50.3 29.95 -41.1 36.8" fill="#990099" fill-opacity="0.4" fill-rule="evenodd" stroke="none"/>
    <path d="M-41.1 36.8 Q-31.15 44.2 -21.25 40.25 -32.6 25.15 -27.25 15.15 -21.95 5.35 -2.3 3.2 -0.65 -7.4 -0.95 -11.9 -1.7 -20.9 -8.3 -24.55 -16.95 -23.65 -25.75 -19.95 -34.8 -16.15 -41.55 -10.4 -57.45 3.05 -53.25 19.0 -50.3 29.95 -41.1 36.8 Z" fill="none" stroke="#990066" stroke-linecap="round" stroke-linejoin="round" stroke-opacity="0.69411767" stroke-width="1.0"/>
  </g>
</svg>
