<?xml version="1.0" encoding="UTF-8" standalone="no"?>
<svg xmlns:ffdec="https://www.free-decompiler.com/flash" xmlns:xlink="http://www.w3.org/1999/xlink" ffdec:objectType="shape" height="103.05px" width="153.35px" xmlns="http://www.w3.org/2000/svg">
  <g transform="matrix(1.0, 0.0, 0.0, 1.0, 76.3, 102.05)">
    <path d="M-60.9 -76.55 Q-46.55 -89.65 -26.2 -89.65 -5.85 -89.65 8.5 -76.55 15.05 -70.55 18.65 -63.45 21.6 -57.5 22.55 -50.8 21.6 -44.05 18.65 -38.1 15.05 -30.95 8.5 -25.0 -5.85 -11.85 -26.2 -11.85 -46.55 -11.85 -60.9 -25.0 -67.45 -30.95 -71.0 -38.1 -74.0 -44.05 -74.9 -50.8 -74.0 -57.5 -71.0 -63.45 -67.45 -70.55 -60.9 -76.55" fill="url(#gradient0)" fill-rule="evenodd" stroke="none"/>
    <path d="M72.9 -56.85 Q77.7 -49.8 72.9 -42.75 49.6 -40.8 26.35 -42.75 L26.35 -56.85 Q49.6 -58.6 72.9 -56.85" fill="#a86053" fill-rule="evenodd" stroke="none"/>
    <path d="M72.9 -56.85 Q77.7 -49.8 72.9 -42.75 49.6 -40.8 26.35 -42.75 L26.35 -56.85 Q49.6 -58.6 72.9 -56.85 Z" fill="none" stroke="#000000" stroke-linecap="round" stroke-linejoin="round" stroke-opacity="0.3019608" stroke-width="1.0"/>
    <path d="M21.3 -63.6 L23.25 -63.85 Q27.45 -63.85 30.4 -59.75 33.35 -55.6 33.35 -49.8 33.35 -43.95 30.4 -39.85 27.45 -35.7 23.25 -35.7 L21.3 -35.95 21.75 -38.0 Q22.7 -42.9 22.7 -49.8 22.7 -56.7 21.75 -61.55 L21.3 -63.6" fill="#a86053" fill-rule="evenodd" stroke="none"/>
    <path d="M21.3 -63.6 L23.25 -63.85 Q27.45 -63.85 30.4 -59.75 33.35 -55.6 33.35 -49.8 33.35 -43.95 30.4 -39.85 27.45 -35.7 23.25 -35.7 L21.3 -35.95 21.75 -38.0 Q22.7 -42.9 22.7 -49.8 22.7 -56.7 21.75 -61.55 L21.3 -63.6 Z" fill="none" stroke="#000000" stroke-linecap="round" stroke-linejoin="round" stroke-opacity="0.3019608" stroke-width="1.0"/>
    <path d="M18.65 -38.1 Q21.6 -44.05 22.55 -50.8 L22.9 -45.95 22.9 -45.2 22.9 -44.85 22.9 -44.75 Q22.85 -26.2 8.5 -13.1 L5.35 -10.4 Q-2.15 -4.6 -11.1 -2.0 -18.2 0.0 -26.2 0.0 -46.55 0.0 -60.9 -13.1 -75.25 -26.2 -75.3 -44.75 L-75.3 -44.85 -75.25 -46.35 -74.9 -50.8 Q-74.0 -44.05 -71.0 -38.1 -67.45 -30.95 -60.9 -25.0 -46.55 -11.85 -26.2 -11.85 L-17.15 -12.55 Q-7.6 -14.05 0.45 -18.9 4.65 -21.5 8.5 -25.0 15.05 -30.95 18.65 -38.1" fill="#45423e" fill-rule="evenodd" stroke="none"/>
    <path d="M18.65 -38.1 Q15.05 -30.95 8.5 -25.0 4.65 -21.5 0.45 -18.9 -7.6 -14.05 -17.15 -12.55 L-26.2 -11.85 Q-46.55 -11.85 -60.9 -25.0 -67.45 -30.95 -71.0 -38.1 -74.0 -44.05 -74.9 -50.8 L-75.25 -46.35 -75.3 -44.85 -75.3 -44.75 Q-75.25 -26.2 -60.9 -13.1 -46.55 0.0 -26.2 0.0 -18.2 0.0 -11.1 -2.0 -2.15 -4.6 5.35 -10.4 L8.5 -13.1 Q22.85 -26.2 22.9 -44.75 L22.9 -44.85 22.9 -45.2 22.9 -45.95 22.55 -50.8 Q21.6 -44.05 18.65 -38.1 Z" fill="none" stroke="#000000" stroke-linecap="round" stroke-linejoin="round" stroke-opacity="0.3019608" stroke-width="1.0"/>
    <path d="M22.9 -54.85 Q26.9 -55.65 33.3 -51.7" fill="none" stroke="#ffffff" stroke-linecap="round" stroke-linejoin="round" stroke-opacity="0.2" stroke-width="4.0"/>
    <path d="M75.05 -52.35 L33.3 -51.7" fill="none" stroke="#ffffff" stroke-linecap="round" stroke-linejoin="round" stroke-opacity="0.2" stroke-width="4.0"/>
    <path d="M-39.5 -88.1 Q-48.65 -85.85 -56.3 -80.3 L-60.95 -88.35 -60.9 -88.45 Q-53.85 -94.9 -45.35 -98.15 L-39.5 -88.1" fill="#ffffff" fill-opacity="0.2" fill-rule="evenodd" stroke="none"/>
    <path d="M0.45 -18.9 L5.35 -10.4 Q-2.15 -4.6 -11.1 -2.0 L-17.15 -12.55 Q-7.6 -14.05 0.45 -18.9" fill="#000000" fill-opacity="0.3019608" fill-rule="evenodd" stroke="none"/>
    <path d="M-39.5 -88.1 Q-48.65 -85.85 -56.3 -80.3 L-60.9 -76.55 Q-67.45 -70.55 -71.0 -63.45 -74.0 -57.5 -74.9 -50.8 L-75.25 -46.35 -75.3 -44.85 -75.3 -44.75 Q-75.25 -26.2 -60.9 -13.1 -46.55 0.0 -26.2 0.0 -18.2 0.0 -11.1 -2.0 -2.15 -4.6 5.35 -10.4 L8.5 -13.1 Q22.85 -26.2 22.9 -44.75 L22.9 -45.95 22.55 -50.8 Q21.6 -57.5 18.65 -63.45 15.05 -70.55 8.5 -76.55 -3.5 -87.5 -19.7 -89.3 L-26.2 -89.65 -32.7 -89.3 -39.5 -88.1 Z" fill="none" stroke="#000000" stroke-linecap="round" stroke-linejoin="round" stroke-opacity="0.3019608" stroke-width="2.0"/>
    <path d="M7.95 -77.05 L4.75 -74.1 Q-9.4 -62.1 -29.15 -62.3 -48.95 -62.45 -62.8 -74.7 L-60.9 -76.55 -56.3 -80.3 Q-48.65 -85.85 -39.5 -88.1 -33.2 -89.65 -26.2 -89.65 -6.25 -89.65 7.95 -77.05" fill="#ffffff" fill-rule="evenodd" stroke="none"/>
    <path d="M-62.8 -74.7 Q-68.0 -69.5 -71.0 -63.45 -74.0 -57.5 -74.9 -50.8 L-75.25 -55.15 -75.3 -56.75 -75.25 -58.65 -75.15 -60.2 -74.8 -63.45 Q-73.4 -72.55 -68.15 -80.15 -65.15 -84.5 -60.95 -88.35 L-60.9 -88.45 Q-53.85 -94.9 -45.35 -98.15 -36.55 -101.55 -26.2 -101.55 -5.85 -101.55 8.5 -88.45 L13.25 -83.5 Q20.7 -74.6 22.4 -63.45 L22.75 -60.45 22.85 -58.75 22.9 -54.85 22.55 -50.8 Q21.6 -57.5 18.65 -63.45 15.05 -70.55 8.5 -76.55 L7.95 -77.05 Q-6.25 -89.65 -26.2 -89.65 -33.2 -89.65 -39.5 -88.1 -48.65 -85.85 -56.3 -80.3 L-60.9 -76.55 -62.8 -74.7" fill="#868179" fill-rule="evenodd" stroke="none"/>
    <path d="M7.95 -77.05 L4.75 -74.1 Q-9.4 -62.1 -29.15 -62.3 -48.95 -62.45 -62.8 -74.7" fill="none" stroke="#000000" stroke-linecap="round" stroke-linejoin="round" stroke-width="1.0"/>
    <path d="M-62.8 -74.7 Q-68.0 -69.5 -71.0 -63.45 -74.0 -57.5 -74.9 -50.8 L-75.25 -55.15 -75.3 -56.75 -75.25 -58.65 -75.15 -60.2 -74.8 -63.45 Q-73.4 -72.55 -68.15 -80.15 -65.15 -84.5 -60.95 -88.35 L-60.9 -88.45 Q-53.85 -94.9 -45.35 -98.15 -36.55 -101.55 -26.2 -101.55 -5.85 -101.55 8.5 -88.45 L13.25 -83.5 Q20.7 -74.6 22.4 -63.45 L22.75 -60.45 22.85 -58.75 22.9 -54.85 22.55 -50.8 Q21.6 -57.5 18.65 -63.45 15.05 -70.55 8.5 -76.55 L7.95 -77.05 Q-6.25 -89.65 -26.2 -89.65 -33.2 -89.65 -39.5 -88.1 -48.65 -85.85 -56.3 -80.3 L-60.9 -76.55 -62.8 -74.7 Z" fill="none" stroke="#000000" stroke-linecap="round" stroke-linejoin="round" stroke-opacity="0.3019608" stroke-width="1.0"/>
    <path d="M-19.25 -82.85 Q-16.3 -78.85 -17.0 -74.05 -17.7 -69.25 -21.65 -66.35 -25.6 -63.4 -30.4 -64.1 -35.2 -64.8 -38.15 -68.75 -41.1 -72.7 -40.4 -77.5 -39.7 -82.3 -35.75 -85.25 -31.8 -88.2 -27.0 -87.5 -22.2 -86.8 -19.25 -82.85" fill="#211f1f" fill-rule="evenodd" stroke="none"/>
    <path d="M-19.25 -82.85 Q-16.3 -78.85 -17.0 -74.05 -17.7 -69.25 -21.65 -66.35 -25.6 -63.4 -30.4 -64.1 -35.2 -64.8 -38.15 -68.75 -41.1 -72.7 -40.4 -77.5 -39.7 -82.3 -35.75 -85.25 -31.8 -88.2 -27.0 -87.5 -22.2 -86.8 -19.25 -82.85 Z" fill="none" stroke="#666666" stroke-linecap="round" stroke-linejoin="round" stroke-width="1.0"/>
  </g>
  <defs>
    <radialGradient cx="0" cy="0" gradientTransform="matrix(0.0602, 0.0, 0.0, 0.0602, -26.15, -50.75)" gradientUnits="userSpaceOnUse" id="gradient0" r="819.2" spreadMethod="pad">
      <stop offset="0.6666666666666666" stop-color="#33ffff" stop-opacity="0.2"/>
      <stop offset="1.0" stop-color="#33ffff" stop-opacity="0.7529412"/>
    </radialGradient>
  </defs>
</svg>
