<?xml version="1.0" encoding="UTF-8" standalone="no"?>
<svg xmlns:ffdec="https://www.free-decompiler.com/flash" xmlns:xlink="http://www.w3.org/1999/xlink" ffdec:objectType="shape" height="70.85px" width="129.45px" xmlns="http://www.w3.org/2000/svg">
  <g transform="matrix(1.0, 0.0, 0.0, 1.0, 100.35, 37.9)">
    <path d="M27.65 3.7 Q27.0 6.35 26.15 6.35 L-96.85 6.15 Q-97.75 6.2 -98.45 4.7 -99.1 3.25 -99.15 1.4 -99.15 -0.3 -98.55 -1.75 -97.9 -3.35 -97.0 -3.4 L25.9 -7.65 Q26.75 -7.65 27.5 -5.0 28.2 -2.6 28.2 -0.7 28.25 1.3 27.65 3.7" fill="#835736" fill-rule="evenodd" stroke="none"/>
    <path d="M27.65 3.7 Q27.0 6.35 26.15 6.35 L-96.85 6.15 Q-97.75 6.2 -98.45 4.7 -99.1 3.25 -99.15 1.4 -99.15 -0.3 -98.55 -1.75 -97.9 -3.35 -97.0 -3.4 L25.9 -7.65 Q26.75 -7.65 27.5 -5.0 28.2 -2.6 28.2 -0.7 28.25 1.3 27.65 3.7 Z" fill="none" stroke="#5e3e26" stroke-linecap="butt" stroke-linejoin="miter-clip" stroke-miterlimit="4.0" stroke-width="1.5"/>
    <path d="M26.3 4.55 L-86.1 4.9 -86.4 0.85 27.05 -1.2 27.1 -0.45 26.95 1.6 26.3 4.55" fill="#000000" fill-opacity="0.2" fill-rule="evenodd" stroke="none"/>
    <path d="M-70.3 31.95 L-94.45 31.8 -94.4 18.4 -90.9 18.45 Q-95.85 -20.65 -68.6 -34.55 -81.9 -13.1 -74.15 19.25 L-70.25 19.25 -70.3 31.95" fill="#999999" fill-rule="evenodd" stroke="none"/>
    <path d="M-68.6 -34.55 L-63.4 -36.9 -61.8 -33.1 Q-75.35 -12.5 -67.55 18.6 L-63.65 18.6 -63.7 31.95 -70.3 31.95 -70.25 19.25 -74.15 19.25 Q-81.9 -13.1 -68.6 -34.55" fill="#808080" fill-rule="evenodd" stroke="none"/>
    <path d="M-68.6 -34.55 L-63.4 -36.9 -61.8 -33.1 Q-75.35 -12.5 -67.55 18.6 L-63.65 18.6 -63.7 31.95 -70.3 31.95 -94.45 31.8 -94.4 18.4 -90.9 18.45 Q-95.85 -20.65 -68.6 -34.55 Z" fill="none" stroke="#666666" stroke-linecap="round" stroke-linejoin="round" stroke-width="2.0"/>
    <path d="M-88.4 18.95 L-70.6 18.8" fill="none" stroke="#666666" stroke-linecap="round" stroke-linejoin="round" stroke-width="1.0"/>
  </g>
</svg>
