<?xml version="1.0" encoding="UTF-8" standalone="no"?>
<svg xmlns:ffdec="https://www.free-decompiler.com/flash" xmlns:xlink="http://www.w3.org/1999/xlink" ffdec:objectType="shape" height="24.7px" width="24.7px" xmlns="http://www.w3.org/2000/svg">
  <g transform="matrix(1.0, 0.0, 0.0, 1.0, 35.7, 71.9)">
    <path d="M-13.9 -66.6 Q-10.95 -62.6 -11.65 -57.8 -12.35 -53.0 -16.3 -50.1 -20.25 -47.15 -25.05 -47.85 -29.85 -48.55 -32.8 -52.5 -35.75 -56.45 -35.05 -61.25 -34.35 -66.05 -30.4 -69.0 -26.45 -71.95 -21.65 -71.25 -16.85 -70.55 -13.9 -66.6" fill="#211f1f" fill-rule="evenodd" stroke="none"/>
    <path d="M-13.9 -66.6 Q-10.95 -62.6 -11.65 -57.8 -12.35 -53.0 -16.3 -50.1 -20.25 -47.15 -25.05 -47.85 -29.85 -48.55 -32.8 -52.5 -35.75 -56.45 -35.05 -61.25 -34.35 -66.05 -30.4 -69.0 -26.45 -71.95 -21.65 -71.25 -16.85 -70.55 -13.9 -66.6 Z" fill="none" stroke="#666666" stroke-linecap="round" stroke-linejoin="round" stroke-width="1.0"/>
  </g>
</svg>
