<?xml version="1.0" encoding="UTF-8" standalone="no"?>
<svg xmlns:ffdec="https://www.free-decompiler.com/flash" xmlns:xlink="http://www.w3.org/1999/xlink" ffdec:objectType="shape" height="8.1px" width="8.1px" xmlns="http://www.w3.org/2000/svg">
  <g transform="matrix(1.0, 0.0, 0.0, 1.0, 35.4, 16.65)">
    <path d="M-28.8 -14.7 Q-28.2 -14.5 -28.3 -14.0 L-28.85 -10.1 Q-28.95 -9.5 -29.5 -9.6 L-33.9 -9.85 -34.3 -10.05 -34.4 -10.45 -33.75 -15.15 -33.55 -15.55 -33.1 -15.6 -28.8 -14.7" fill="#a27147" fill-rule="evenodd" stroke="none"/>
    <path d="M-28.3 -14.0 Q-28.2 -14.5 -28.8 -14.7 L-33.1 -15.6 -33.2 -15.65 -33.55 -15.55 -33.75 -15.15 -34.4 -10.45 -34.3 -10.05 -33.9 -9.85 -29.5 -9.6 -29.45 -9.55 Q-28.95 -9.55 -28.85 -10.1 L-28.3 -14.0 M-28.6 -15.65 Q-27.95 -15.55 -27.6 -15.0 -27.2 -14.5 -27.3 -13.85 L-27.85 -10.0 Q-27.9 -9.4 -28.4 -8.95 -28.85 -8.55 -29.45 -8.55 L-29.5 -8.6 -29.55 -8.6 -33.95 -8.85 Q-34.65 -8.85 -35.05 -9.4 -35.5 -9.9 -35.4 -10.6 L-34.75 -15.3 -34.1 -16.35 -33.2 -16.65 -28.6 -15.65" fill="#5e4229" fill-rule="evenodd" stroke="none"/>
  </g>
</svg>
