<?xml version="1.0" encoding="UTF-8" standalone="no"?>
<svg xmlns:ffdec="https://www.free-decompiler.com/flash" xmlns:xlink="http://www.w3.org/1999/xlink" ffdec:objectType="shape" height="16.0px" width="69.85px" xmlns="http://www.w3.org/2000/svg">
  <g transform="matrix(1.0, 0.0, 0.0, 1.0, 34.4, 15.65)">
    <path d="M34.45 -5.8 L33.8 -1.15 33.6 -0.75 33.15 -0.65 -24.85 -8.95 Q-25.45 -9.05 -25.35 -9.65 L-24.8 -13.5 Q-24.7 -14.1 -24.15 -14.0 L33.95 -6.5 34.35 -6.25 34.45 -5.8" fill="#a27147" fill-rule="evenodd" stroke="none"/>
    <path d="M34.35 -6.25 L33.95 -6.5 -24.15 -14.0 -24.2 -14.05 Q-24.7 -14.05 -24.8 -13.5 L-25.35 -9.65 Q-25.45 -9.05 -24.85 -8.95 L33.15 -0.65 33.25 -0.65 33.6 -0.75 33.8 -1.15 34.45 -5.8 34.35 -6.25 M34.05 -7.45 Q34.75 -7.35 35.1 -6.85 35.55 -6.35 35.45 -5.7 L34.8 -1.0 Q34.75 -0.35 34.15 0.05 L33.25 0.35 33.0 0.35 -25.0 -8.0 Q-25.65 -8.05 -26.0 -8.6 -26.4 -9.1 -26.3 -9.75 L-25.8 -13.65 -25.25 -14.65 Q-24.8 -15.05 -24.2 -15.05 L-24.0 -15.0 34.05 -7.45" fill="#5e4229" fill-rule="evenodd" stroke="none"/>
    <path d="M-32.85 -14.55 L-33.35 -10.8 -29.8 -10.6 -29.35 -13.8 -32.85 -14.55 M-28.8 -14.7 Q-28.2 -14.5 -28.3 -14.0 L-28.85 -10.1 Q-28.95 -9.55 -29.45 -9.55 L-29.5 -9.6 -33.9 -9.85 -34.3 -10.05 -34.4 -10.45 -33.75 -15.15 -33.55 -15.55 -33.2 -15.65 -33.1 -15.6 -28.8 -14.7" fill="#c78e5a" fill-rule="evenodd" stroke="none"/>
    <path d="M32.85 -1.7 L33.4 -5.55 -23.85 -13.0 -24.3 -9.9 32.85 -1.7 M33.95 -6.5 L34.35 -6.25 34.45 -5.8 33.8 -1.15 33.6 -0.75 33.25 -0.65 33.15 -0.65 -24.85 -8.95 Q-25.45 -9.05 -25.35 -9.65 L-24.8 -13.5 Q-24.7 -14.05 -24.2 -14.05 L-24.15 -14.0 33.95 -6.5" fill="#c78e5a" fill-rule="evenodd" stroke="none"/>
  </g>
</svg>
