<?xml version="1.0" encoding="UTF-8" standalone="no"?>
<svg xmlns:ffdec="https://www.free-decompiler.com/flash" xmlns:xlink="http://www.w3.org/1999/xlink" ffdec:objectType="shape" height="47.55px" width="74.55px" xmlns="http://www.w3.org/2000/svg">
  <g transform="matrix(1.0, 0.0, 0.0, 1.0, 37.25, 23.75)">
    <path d="M-23.05 -16.35 L-24.1 -8.4 -24.15 -8.35 -24.65 -4.55 -26.1 -2.95 Q-27.55 -1.25 -27.75 0.05 L-28.8 7.95 Q-28.95 8.9 -28.1 11.55 L-27.3 14.1 -28.2 20.75 -28.3 20.95 -28.5 20.85 -30.85 17.1 Q-32.65 3.45 -32.45 -1.6 L-32.1 -8.8 Q-31.8 -13.3 -30.6 -20.55 -30.5 -20.95 -30.05 -20.95 L-26.55 -20.45 Q-26.15 -20.35 -26.15 -19.9 L-26.5 -17.35 -23.45 -16.9 Q-22.95 -16.9 -23.05 -16.35" fill="#75725e" fill-rule="evenodd" stroke="none"/>
    <path d="M-26.15 -19.9 Q-26.15 -20.35 -26.55 -20.45 L-30.05 -20.95 -30.1 -20.95 -30.6 -20.55 Q-31.8 -13.3 -32.1 -8.8 L-32.45 -1.6 Q-32.65 3.45 -30.85 17.1 L-28.5 20.85 -28.35 21.0 -28.2 20.75 -27.3 14.1 -28.1 11.55 Q-28.95 8.9 -28.8 7.95 L-27.75 0.05 Q-27.55 -1.25 -26.1 -2.95 L-24.65 -4.55 -24.15 -8.35 -24.1 -8.4 -23.05 -16.35 Q-22.95 -16.9 -23.45 -16.9 L-26.5 -17.35 -26.15 -19.9 M-30.1 -21.95 L-29.9 -21.9 -26.45 -21.45 -25.45 -20.85 Q-25.1 -20.35 -25.2 -19.8 L-25.4 -18.2 -23.3 -17.9 Q-22.7 -17.8 -22.35 -17.35 -21.95 -16.85 -22.05 -16.2 L-23.15 -8.3 -23.15 -8.15 -23.65 -4.45 Q-23.7 -4.05 -24.4 -3.3 -26.55 -1.15 -26.75 0.2 L-27.8 8.05 Q-27.95 9.0 -26.65 12.75 -26.25 13.85 -26.3 14.25 L-27.2 20.9 Q-27.35 22.0 -28.35 22.0 -28.95 22.0 -29.35 21.4 L-30.4 19.85 -31.75 17.55 Q-32.05 16.95 -32.8 9.45 -33.55 1.55 -33.45 -1.65 L-33.1 -8.9 Q-32.8 -13.4 -31.6 -20.65 L-31.1 -21.6 -30.1 -21.95" fill="#4a483c" fill-rule="evenodd" stroke="none"/>
    <path d="M-29.75 -20.4 L-31.1 -10.9 -23.9 -9.9 -24.1 -8.4 -24.15 -8.35 -24.2 -7.85 -31.3 -8.8 -31.3 -8.7 -31.65 -1.5 Q-31.85 3.55 -30.05 17.2 L-28.15 20.35 -28.2 20.75 -28.3 20.95 -28.5 20.85 -30.85 17.1 Q-32.65 3.45 -32.45 -1.6 L-32.1 -8.8 -32.05 -9.4 -32.05 -9.45 -32.0 -9.9 -32.0 -9.95 -31.95 -10.4 -31.95 -10.5 -31.9 -11.0 -30.6 -20.55 Q-30.5 -20.95 -30.05 -20.95 L-29.3 -20.8 -29.6 -20.7 -29.75 -20.4" fill="#87836c" fill-rule="evenodd" stroke="none"/>
    <path d="M-26.55 -20.45 Q-26.15 -20.35 -26.15 -19.9 L-26.5 -17.35 -23.45 -16.9 Q-22.95 -16.9 -23.05 -16.35 L-24.1 -8.4 -24.15 -8.35 -24.65 -4.55 -26.1 -2.95 Q-27.55 -1.25 -27.75 0.05 L-28.8 7.95 Q-28.95 8.9 -28.1 11.55 L-27.3 14.1 -28.2 20.75 -28.35 21.0 -28.5 20.85 -30.85 17.1 Q-32.65 3.45 -32.45 -1.6 L-32.1 -8.8 Q-31.8 -13.3 -30.6 -20.55 L-30.1 -20.95 -30.05 -20.95 -26.55 -20.45 M-27.25 -19.55 L-29.7 -19.85 Q-30.9 -11.65 -31.1 -8.75 L-31.45 -1.55 Q-31.6 1.5 -30.85 8.9 L-29.9 16.8 -28.9 18.5 -28.3 14.15 -28.55 13.4 Q-30.0 9.2 -29.8 7.8 L-28.75 -0.05 Q-28.45 -1.95 -25.85 -4.7 L-25.6 -4.95 -25.1 -8.5 -25.1 -8.6 -24.1 -16.0 -27.75 -16.5 -27.5 -17.5 -27.25 -19.55" fill="#87836c" fill-rule="evenodd" stroke="none"/>
    <path d="M-26.15 -19.9 L-26.5 -17.35 -23.45 -16.9 Q-22.95 -16.9 -23.05 -16.35 L-24.1 -8.4 -24.15 -8.35 -24.65 -4.55 -26.1 -2.95 Q-27.55 -1.25 -27.75 0.05 L-28.8 7.95 Q-28.95 8.9 -28.1 11.55 L-27.3 14.1 -28.2 20.75 -28.3 20.95 -28.5 20.85 -28.7 20.6 -27.9 14.65 -28.75 12.1 Q-29.55 9.45 -29.45 8.5 L-28.35 0.65 Q-28.15 -0.7 -26.7 -2.4 L-25.25 -4.0 -24.75 -7.8 -24.75 -7.85 -23.65 -15.8 Q-23.55 -16.25 -24.05 -16.35 L-27.15 -16.8 -26.8 -19.35 Q-26.7 -19.8 -27.2 -19.9 L-30.6 -20.35 -30.6 -20.55 Q-30.5 -20.95 -30.05 -20.95 L-26.55 -20.45 Q-26.15 -20.35 -26.15 -19.9" fill="#696554" fill-rule="evenodd" stroke="none"/>
    <path d="M-27.2 -19.9 L-30.6 -20.35 -30.6 -20.55 Q-30.5 -20.95 -30.05 -20.95 L-26.55 -20.45 Q-26.15 -20.35 -26.15 -19.9 L-26.5 -17.35 -23.45 -16.9 Q-22.95 -16.9 -23.05 -16.35 L-24.1 -8.4 -24.15 -8.35 -24.65 -4.55 -26.1 -2.95 Q-27.55 -1.25 -27.75 0.05 L-28.8 7.95 Q-28.95 8.9 -28.1 11.55 L-27.3 14.1 -28.2 20.75 -28.3 20.95 -28.5 20.85 -28.7 20.6 -27.9 14.65 -28.75 12.1 Q-29.55 9.45 -29.45 8.5 L-28.35 0.65 Q-28.15 -0.7 -26.7 -2.4 L-25.25 -4.0 -24.75 -7.8 -24.75 -7.85 -23.95 -13.75 -30.6 -14.65 -30.4 -16.35 -23.7 -15.45 -23.65 -15.8 Q-23.55 -16.25 -24.05 -16.35 L-27.15 -16.8 -26.8 -19.35 Q-26.7 -19.8 -27.2 -19.9" fill="#696554" fill-rule="evenodd" stroke="none"/>
    <path d="M34.05 -0.05 Q34.55 -0.4 34.65 -1.0 L35.3 -5.7 Q35.4 -6.3 35.0 -6.75 34.6 -7.2 34.05 -7.3 L-22.4 -14.65 -22.2 -16.25 Q-22.1 -16.8 -22.45 -17.2 L-23.3 -17.75 -25.6 -18.05 -25.35 -19.8 Q-25.25 -20.3 -25.6 -20.8 -25.95 -21.25 -26.45 -21.3 L-29.95 -21.75 -30.1 -21.75 Q-30.6 -21.75 -30.95 -21.45 -31.35 -21.15 -31.4 -20.65 L-32.1 -16.25 -32.9 -16.45 -33.2 -16.45 -34.0 -16.2 Q-34.5 -15.9 -34.6 -15.25 L-35.25 -10.6 Q-35.3 -10.05 -34.95 -9.5 -34.6 -9.1 -33.95 -9.0 L-32.95 -8.95 -32.95 -8.9 -33.3 -1.65 Q-33.4 1.55 -32.6 9.5 -31.9 16.95 -31.6 17.5 L-29.2 21.3 Q-28.85 21.8 -28.35 21.8 -27.5 21.8 -27.35 20.9 L-26.45 14.2 -26.8 12.8 Q-28.1 9.05 -28.0 8.05 L-26.9 0.2 Q-26.7 -1.25 -24.5 -3.45 L-23.8 -4.45 -23.35 -7.9 33.0 0.2 33.25 0.2 34.05 -0.05 M34.25 -9.3 Q35.6 -9.15 36.6 -8.0 37.5 -6.8 37.25 -5.45 L36.6 -0.75 Q36.45 0.6 35.25 1.55 34.4 2.2 33.25 2.2 L32.75 2.2 -21.65 -5.65 -21.85 -4.2 Q-21.95 -3.2 -23.1 -2.05 -24.9 -0.2 -24.9 0.45 L-26.0 8.3 -24.9 12.15 Q-24.35 13.85 -24.45 14.5 L-25.4 21.15 Q-25.55 22.3 -26.4 23.05 -27.2 23.8 -28.35 23.8 -29.95 23.8 -30.85 22.5 L-30.85 22.45 -30.9 22.4 -33.4 18.35 Q-33.9 17.4 -34.65 9.35 -35.4 1.25 -35.3 -1.7 L-35.05 -7.2 Q-35.95 -7.5 -36.45 -8.25 -37.45 -9.4 -37.2 -10.85 L-36.55 -15.55 Q-36.4 -17.0 -35.15 -17.85 -34.5 -18.3 -33.8 -18.4 L-33.4 -20.95 Q-33.2 -22.15 -32.25 -22.95 -31.35 -23.75 -30.1 -23.75 L-29.65 -23.75 -26.2 -23.25 Q-24.85 -23.1 -24.0 -22.0 -23.25 -21.05 -23.35 -19.75 L-23.05 -19.75 Q-21.65 -19.5 -20.8 -18.35 -20.2 -17.5 -20.2 -16.35 L34.25 -9.3" fill="#333029" fill-rule="evenodd" stroke="none"/>
  </g>
</svg>
