<?xml version="1.0" encoding="UTF-8" standalone="no"?>
<svg xmlns:ffdec="https://www.free-decompiler.com/flash" xmlns:xlink="http://www.w3.org/1999/xlink" ffdec:objectType="shape" height="118.05px" width="50.4px" xmlns="http://www.w3.org/2000/svg">
  <g transform="matrix(1.0, 0.0, 0.0, 1.0, 0.0, 0.5)">
    <path d="M22.75 113.5 L18.65 113.1 Q16.9 112.5 16.9 110.7 L16.4 95.35 Q15.5 79.7 13.8 78.0 L10.3 74.4 Q8.9 72.65 8.6 71.05 7.3 61.25 3.1 40.15 0.35 21.4 5.0 9.1 5.4 7.8 7.2 6.65 9.2 5.45 11.3 5.45 L39.1 5.45 Q41.2 5.45 43.1 6.65 45.0 7.8 45.4 9.1 49.95 21.4 47.3 40.15 43.1 61.25 41.8 71.05 41.4 73.8 36.6 78.0 35.0 79.3 34.1 95.15 L33.35 110.7 Q33.35 112.5 31.65 113.1 L27.65 113.5 22.75 113.5" fill="#7a573f" fill-rule="evenodd" stroke="none"/>
    <path d="M16.9 110.7 Q16.9 112.5 18.65 113.1 L22.75 113.5 27.65 113.5 31.65 113.1 Q33.35 112.5 33.35 110.7 L34.1 95.15 Q35.0 79.3 36.6 78.0 41.4 73.8 41.8 71.05 43.1 61.25 47.3 40.15 49.95 21.4 45.4 9.1 45.0 7.8 43.1 6.65 41.2 5.45 39.1 5.45 L11.3 5.45 Q9.2 5.45 7.2 6.65 5.4 7.8 5.0 9.1 0.35 21.4 3.1 40.15 7.3 61.25 8.6 71.05 8.9 72.65 10.3 74.4 L13.8 78.0 Q15.5 79.7 16.4 95.35 L16.9 110.7 M22.75 115.5 Q19.55 115.5 17.95 114.9 14.9 113.8 14.9 110.7 14.8 100.15 14.1 90.65 13.3 80.8 12.4 79.3 L10.7 77.6 8.1 74.8 Q6.9 73.2 6.6 71.35 L3.9 55.9 Q0.7 40.15 0.15 31.95 -0.65 18.6 3.1 8.5 3.8 6.45 6.2 4.95 8.6 3.45 11.3 3.45 L39.1 3.45 Q41.8 3.45 44.2 4.95 46.6 6.35 47.3 8.4 51.05 18.6 50.25 31.95 49.7 40.15 46.5 55.9 44.1 69.05 43.8 71.35 43.1 75.0 38.0 79.4 36.2 82.8 35.4 110.7 35.4 113.8 32.45 114.9 30.85 115.5 27.65 115.5 L22.75 115.5" fill="#38281d" fill-rule="evenodd" stroke="none"/>
    <path d="M11.25 70.85 Q11.45 71.55 13.65 73.8 L15.45 75.6 Q19.2 79.7 19.7 109.9 L28.2 109.9 Q28.7 89.55 30.2 81.3 31.15 76.8 32.75 75.3 36.35 72.25 36.65 70.85 37.15 66.55 39.35 55.1 42.35 40.05 42.85 32.55 43.75 20.1 40.45 10.95 39.65 9.85 37.85 9.85 L10.05 9.85 Q8.25 9.85 7.45 10.95 4.15 20.1 4.95 32.55 5.55 40.05 8.55 55.1 10.75 66.55 11.25 70.85 M21.5 113.9 L17.4 113.5 Q15.65 112.9 15.65 111.1 L15.15 95.75 Q14.25 80.1 12.55 78.4 L9.05 74.8 Q7.65 73.1 7.35 71.45 6.05 61.65 1.8 40.55 -0.9 21.8 3.75 9.45 4.15 8.15 5.95 7.05 7.95 5.85 10.05 5.85 L37.85 5.85 Q39.95 5.85 41.85 7.05 43.75 8.15 44.15 9.45 48.7 21.8 46.1 40.55 41.85 61.65 40.55 71.45 40.15 74.2 35.35 78.4 33.75 79.7 32.85 95.55 32.35 103.5 32.15 111.1 32.15 112.9 30.4 113.5 L26.4 113.9 21.5 113.9" fill="#946b50" fill-rule="evenodd" stroke="none"/>
    <path d="M13.35 112.8 Q13.35 111.1 14.15 109.8 15.05 108.6 16.25 108.6 L31.65 108.6 Q32.85 108.6 33.65 109.8 34.55 111.1 34.55 112.8 34.55 114.65 33.65 115.85 32.85 117.05 31.65 117.05 L16.25 117.05 Q15.05 117.05 14.15 115.85 13.35 114.65 13.35 112.8" fill="#7a573f" fill-rule="evenodd" stroke="none"/>
    <path d="M13.35 112.8 Q13.35 111.1 14.15 109.8 15.05 108.6 16.25 108.6 L31.65 108.6 Q32.85 108.6 33.65 109.8 34.55 111.1 34.55 112.8 34.55 114.65 33.65 115.85 32.85 117.05 31.65 117.05 L16.25 117.05 Q15.05 117.05 14.15 115.85 13.35 114.65 13.35 112.8 Z" fill="none" stroke="#38281d" stroke-linecap="butt" stroke-linejoin="miter-clip" stroke-miterlimit="4.0" stroke-width="1.0"/>
    <path d="M1.4 3.35 Q1.4 1.9 2.3 0.9 3.25 0.0 4.55 0.0 L43.35 0.0 Q44.65 0.0 45.6 0.9 46.6 1.9 46.6 3.35 46.6 4.65 45.6 5.65 44.65 6.65 43.35 6.65 L4.55 6.65 Q3.25 6.65 2.3 5.65 1.4 4.65 1.4 3.35" fill="#7a573f" fill-rule="evenodd" stroke="none"/>
    <path d="M1.4 3.35 Q1.4 1.9 2.3 0.9 3.25 0.0 4.55 0.0 L43.35 0.0 Q44.65 0.0 45.6 0.9 46.6 1.9 46.6 3.35 46.6 4.65 45.6 5.65 44.65 6.65 43.35 6.65 L4.55 6.65 Q3.25 6.65 2.3 5.65 1.4 4.65 1.4 3.35 Z" fill="none" stroke="#38281d" stroke-linecap="butt" stroke-linejoin="miter-clip" stroke-miterlimit="4.0" stroke-width="1.0"/>
    <path d="M42.0 69.85 L8.4 69.85 Q7.2 61.85 3.8 45.0 1.2 29.75 2.5 19.5 L47.9 19.5 Q49.2 29.75 46.6 45.0 43.1 61.85 42.0 69.85" fill="#7fb3b8" fill-rule="evenodd" stroke="none"/>
    <path d="M46.6 45.0 Q49.2 29.75 47.9 19.5 L2.5 19.5 Q1.2 29.75 3.8 45.0 7.2 61.85 8.4 69.85 L42.0 69.85 Q43.1 61.85 46.6 45.0 M6.7 71.85 L6.4 70.15 Q5.7 65.05 3.9 56.0 1.5 43.7 0.7 37.55 -0.55 27.25 0.45 19.2 0.55 18.3 0.8 17.5 L49.6 17.5 49.95 19.2 Q50.95 27.25 49.7 37.55 48.9 43.7 46.5 56.0 44.7 65.05 44.0 70.15 L43.7 71.85 6.7 71.85" fill="#333f42" fill-rule="evenodd" stroke="none"/>
    <path d="M8.3 67.15 Q14.3 63.35 20.45 59.65 L43.8 59.65 42.4 67.15 8.3 67.15" fill="#699499" fill-rule="evenodd" stroke="none"/>
    <path d="M48.1 29.55 L43.5 22.0 48.1 22.0 Q48.4 26.25 48.3 29.55 L48.1 29.55" fill="#699499" fill-rule="evenodd" stroke="none"/>
    <path d="M2.1 29.55 Q2.0 26.25 2.3 22.0 L40.0 22.0 27.75 29.55 2.1 29.55" fill="#699499" fill-rule="evenodd" stroke="none"/>
    <path d="M20.45 59.65 L6.6 59.65 3.7 44.4 27.75 29.55 48.1 29.55 48.3 29.85 Q48.0 36.55 46.8 43.4 L20.45 59.65" fill="#c4d49e" fill-rule="evenodd" stroke="none"/>
    <path d="M8.3 67.15 L8.0 67.15 6.6 59.65 20.45 59.65 Q14.3 63.35 8.3 67.15" fill="#699499" fill-rule="evenodd" stroke="none"/>
    <path d="M43.5 22.0 L48.1 29.55 27.75 29.55 40.0 22.0 43.5 22.0" fill="#699499" fill-rule="evenodd" stroke="none"/>
  </g>
</svg>
