<?xml version="1.0" encoding="UTF-8" standalone="no"?>
<svg xmlns:ffdec="https://www.free-decompiler.com/flash" xmlns:xlink="http://www.w3.org/1999/xlink" ffdec:objectType="shape" height="97.65px" width="74.1px" xmlns="http://www.w3.org/2000/svg">
  <g transform="matrix(1.0, 0.0, 0.0, 1.0, 37.05, 54.0)">
    <path d="M-17.6 -0.2 Q-16.3 17.8 -11.55 28.45 -7.4 37.75 -1.65 39.35 3.7 40.8 7.9 35.0 12.25 28.9 12.95 17.85" fill="none" stroke="#999999" stroke-linecap="round" stroke-linejoin="miter-clip" stroke-miterlimit="3.0" stroke-width="8.0"/>
    <path d="M6.45 -21.35 Q6.45 -13.8 1.05 -8.5 -4.3 -3.1 -11.8 -3.1 -19.35 -3.1 -24.75 -8.5 -30.05 -13.8 -30.05 -21.35 -30.05 -28.9 -24.75 -34.25 -19.35 -39.6 -11.8 -39.6 -4.3 -39.6 1.05 -34.25 6.45 -28.9 6.45 -21.35 Z" fill="none" stroke="#43c51d" stroke-linecap="round" stroke-linejoin="miter-clip" stroke-miterlimit="3.0" stroke-width="14.0"/>
    <path d="M1.05 -34.25 Q6.45 -28.9 6.45 -21.35 6.45 -13.8 1.05 -8.5 -4.3 -3.1 -11.8 -3.1 -19.35 -3.1 -24.75 -8.5 -30.05 -13.8 -30.05 -21.35 -30.05 -28.9 -24.75 -34.25 -19.35 -39.6 -11.8 -39.6 -4.3 -39.6 1.05 -34.25 Z" fill="none" stroke="#7ae75a" stroke-linecap="round" stroke-linejoin="miter-clip" stroke-miterlimit="3.0" stroke-width="8.0"/>
    <path d="M24.65 -19.65 Q30.05 -14.3 30.05 -6.75 30.05 0.8 24.65 6.1 19.3 11.5 11.8 11.5 4.25 11.5 -1.15 6.1 -6.45 0.8 -6.45 -6.75 -6.45 -14.3 -1.15 -19.65 4.25 -25.0 11.8 -25.0 19.3 -25.0 24.65 -19.65 Z" fill="none" stroke="#43c51d" stroke-linecap="round" stroke-linejoin="miter-clip" stroke-miterlimit="3.0" stroke-width="14.0"/>
    <path d="M24.65 -19.65 Q30.05 -14.3 30.05 -6.75 30.05 0.8 24.65 6.1 19.3 11.5 11.8 11.5 4.25 11.5 -1.15 6.1 -6.45 0.8 -6.45 -6.75 -6.45 -14.3 -1.15 -19.65 4.25 -25.0 11.8 -25.0 19.3 -25.0 24.65 -19.65 Z" fill="none" stroke="#7ae75a" stroke-linecap="round" stroke-linejoin="miter-clip" stroke-miterlimit="3.0" stroke-width="8.0"/>
  </g>
</svg>
