<?xml version="1.0" encoding="UTF-8" standalone="no"?>
<svg xmlns:ffdec="https://www.free-decompiler.com/flash" xmlns:xlink="http://www.w3.org/1999/xlink" ffdec:objectType="shape" height="7.6px" width="10.75px" xmlns="http://www.w3.org/2000/svg">
  <g transform="matrix(1.0, 0.0, 0.0, 1.0, 5.35, 3.8)">
    <path d="M4.4 2.15 Q4.4 3.05 3.85 3.05 L-3.85 3.05 Q-4.35 3.05 -4.35 2.15 L-4.35 -2.35 Q-4.35 -3.3 -3.85 -3.3 L3.85 -3.3 Q4.4 -3.3 4.4 -2.35 L4.4 2.15" fill="#7fb3b8" fill-rule="evenodd" stroke="none"/>
    <path d="M4.4 2.15 Q4.4 3.05 3.85 3.05 L-3.85 3.05 Q-4.35 3.05 -4.35 2.15 L-4.35 -2.35 Q-4.35 -3.3 -3.85 -3.3 L3.85 -3.3 Q4.4 -3.3 4.4 -2.35 L4.4 2.15 Z" fill="none" stroke="#39464a" stroke-linecap="butt" stroke-linejoin="miter-clip" stroke-miterlimit="4.0" stroke-width="1.0"/>
    <path d="M4.9 3.3 L-4.85 3.3 -4.85 0.6 4.9 0.6 4.9 3.3" fill="#7fb3b8" fill-rule="evenodd" stroke="none"/>
    <path d="M4.9 3.3 L-4.85 3.3 -4.85 0.6 4.9 0.6 4.9 3.3 Z" fill="none" stroke="#39464a" stroke-linecap="butt" stroke-linejoin="miter-clip" stroke-miterlimit="4.0" stroke-width="1.0"/>
    <path d="M3.6 -2.3 Q3.6 -1.8 3.1 -1.8 L-3.3 -1.8 Q-3.8 -1.8 -3.8 -2.3 -3.8 -2.8 -3.3 -2.8 L3.1 -2.8 Q3.6 -2.8 3.6 -2.3" fill="#9bd1d6" fill-rule="evenodd" stroke="none"/>
  </g>
</svg>
