<?xml version="1.0" encoding="UTF-8" standalone="no"?>
<svg xmlns:ffdec="https://www.free-decompiler.com/flash" xmlns:xlink="http://www.w3.org/1999/xlink" ffdec:objectType="shape" height="40.35px" width="40.4px" xmlns="http://www.w3.org/2000/svg">
  <g transform="matrix(1.0, 0.0, 0.0, 1.0, 20.2, 37.15)">
    <path d="M11.25 -31.95 Q16.7 -27.85 18.25 -21.2 19.5 -15.6 17.45 -10.3 15.45 -9.6 14.5 -7.9 13.6 -6.3 13.8 -4.35 9.85 -0.05 4.2 1.25 -3.35 3.0 -9.9 -1.15 -16.45 -5.25 -18.2 -12.8 -19.15 -17.0 -18.15 -21.2 -16.9 -22.8 -16.75 -25.1 -15.15 -28.45 -12.4 -30.95 -9.55 -33.5 -5.95 -34.7 L-3.1 -34.65 Q-1.85 -34.9 -0.9 -35.65 5.8 -36.0 11.25 -31.95" fill="#5c6e6e" fill-rule="evenodd" stroke="none"/>
    <path d="M0.05 -37.15 Q7.15 -37.15 12.6 -32.8 18.1 -28.45 19.7 -21.5 21.05 -15.5 18.85 -9.75 18.65 -9.1 17.95 -8.85 16.15 -8.25 15.55 -6.6 15.15 -5.6 15.3 -4.5 15.4 -3.85 14.9 -3.35 10.7 1.25 4.55 2.7 L0.0 3.2 Q-7.1 3.2 -12.6 -1.15 -18.05 -5.55 -19.65 -12.45 -20.7 -16.95 -19.65 -21.55 L-19.35 -22.1 Q-18.3 -23.45 -18.25 -25.2 L-18.1 -25.75 Q-16.3 -29.45 -13.3 -32.1 -10.25 -34.8 -6.4 -36.1 L-5.95 -36.2 -4.45 -36.0 -3.45 -36.1 Q-2.5 -36.3 -1.75 -36.85 L-0.95 -37.15 0.05 -37.15 M18.25 -21.2 Q16.75 -27.6 11.6 -31.65 6.5 -35.65 0.05 -35.65 L-0.9 -35.65 Q-1.85 -34.9 -3.1 -34.65 L-4.45 -34.5 -5.95 -34.7 Q-9.55 -33.5 -12.4 -30.95 -15.15 -28.45 -16.75 -25.1 -16.9 -22.8 -18.15 -21.2 -19.15 -17.0 -18.2 -12.8 -16.7 -6.35 -11.55 -2.3 -6.45 1.7 0.0 1.7 L4.2 1.25 Q9.85 -0.05 13.8 -4.35 13.6 -6.3 14.5 -7.9 15.45 -9.6 17.45 -10.3 19.5 -15.6 18.25 -21.2" fill="#2a3030" fill-rule="evenodd" stroke="none"/>
    <path d="M0.6 -31.6 L1.45 -31.55 Q2.9 -31.55 3.8 -32.3 5.7 -32.2 7.45 -31.45 9.5 -30.55 10.85 -29.0 10.7 -27.85 11.1 -26.8 11.5 -25.7 12.4 -25.1 12.4 -24.25 12.05 -23.55 11.2 -21.5 8.6 -20.95 5.95 -20.35 3.15 -21.55 0.35 -22.8 -1.05 -25.1 -2.4 -27.45 -1.5 -29.45 -0.9 -30.9 0.6 -31.6" fill="#ffffff" fill-opacity="0.14901961" fill-rule="evenodd" stroke="none"/>
  </g>
</svg>
