<?xml version="1.0" encoding="UTF-8" standalone="no"?>
<svg xmlns:ffdec="https://www.free-decompiler.com/flash" xmlns:xlink="http://www.w3.org/1999/xlink" ffdec:objectType="shape" height="37.35px" width="37.35px" xmlns="http://www.w3.org/2000/svg">
  <g transform="matrix(1.0, 0.0, 0.0, 1.0, 0.0, 0.0)">
    <path d="M35.35 24.6 Q37.05 19.7 35.9 14.7 34.5 8.65 29.7 4.85 24.9 1.0 18.7 1.0 L18.1 1.0 Q17.0 1.75 15.8 2.0 L14.2 2.15 12.75 2.0 Q6.05 4.4 2.9 10.8 2.65 13.2 1.4 14.9 0.55 18.85 1.45 22.65 2.85 28.7 7.65 32.5 12.45 36.35 18.65 36.35 L22.65 35.9 Q27.65 34.8 31.4 30.95 31.3 28.8 32.35 27.1 33.4 25.4 35.35 24.6 M30.25 4.0 Q35.4 8.05 36.9 14.45 38.15 20.05 36.1 25.35 34.1 26.05 33.15 27.75 32.25 29.35 32.45 31.3 28.5 35.6 22.85 36.9 L18.65 37.35 Q12.2 37.35 7.1 33.35 1.95 29.3 0.45 22.85 -0.5 18.65 0.5 14.45 1.75 12.85 1.9 10.55 3.5 7.2 6.25 4.7 9.1 2.15 12.7 0.95 L14.2 1.15 15.55 1.0 Q16.8 0.75 17.75 0.0 L18.7 0.0 Q25.15 0.0 30.25 4.0" fill="#ffffff" fill-rule="evenodd" stroke="none"/>
  </g>
</svg>
