<?xml version="1.0" encoding="UTF-8" standalone="no"?>
<svg xmlns:ffdec="https://www.free-decompiler.com/flash" xmlns:xlink="http://www.w3.org/1999/xlink" ffdec:objectType="shape" height="33.15px" width="32.65px" xmlns="http://www.w3.org/2000/svg">
  <g transform="matrix(1.0, 0.0, 0.0, 1.0, 18.65, 31.4)">
    <path d="M-11.6 -8.5 Q-11.15 -7.95 -10.4 -7.6 -8.9 -6.95 -7.2 -7.9" fill="none" stroke="#000000" stroke-linecap="round" stroke-linejoin="miter-clip" stroke-miterlimit="4.0" stroke-opacity="0.11764706" stroke-width="1.0"/>
    <path d="M-4.75 -3.4 Q-4.05 -2.95 -2.95 -2.75 -0.7 -2.35 1.25 -3.55" fill="none" stroke="#000000" stroke-linecap="round" stroke-linejoin="miter-clip" stroke-miterlimit="4.0" stroke-opacity="0.11764706" stroke-width="1.0"/>
    <path d="M1.15 -8.9 L3.15 -8.8 Q5.25 -8.85 6.0 -9.8" fill="none" stroke="#000000" stroke-linecap="round" stroke-linejoin="miter-clip" stroke-miterlimit="4.0" stroke-opacity="0.11764706" stroke-width="1.0"/>
    <path d="M12.0 -15.35 L13.05 -17.05 Q13.9 -19.15 13.1 -21.05" fill="none" stroke="#000000" stroke-linecap="round" stroke-linejoin="miter-clip" stroke-miterlimit="4.0" stroke-opacity="0.11764706" stroke-width="1.0"/>
    <path d="M-10.3 -28.35 L-8.85 -29.55 Q-7.0 -30.8 -5.05 -30.9" fill="none" stroke="#000000" stroke-linecap="round" stroke-linejoin="miter-clip" stroke-miterlimit="4.0" stroke-opacity="0.11764706" stroke-width="1.0"/>
    <path d="M-18.15 -21.2 Q-16.9 -22.8 -16.75 -25.1 -15.35 -27.95 -12.95 -30.35 -13.1 -28.05 -14.4 -26.5 -15.35 -22.25 -14.4 -18.1 -13.8 -15.65 -12.65 -13.45 -13.5 -11.55 -12.55 -9.7 -11.55 -7.7 -9.2 -7.7 L-8.05 -7.9 Q-6.1 -6.25 -3.95 -5.3 -2.9 -3.4 -0.65 -3.4 L1.1 -3.8 8.0 -4.05 Q11.15 -4.75 13.95 -6.6 13.65 -5.45 13.8 -4.35 9.85 -0.05 4.2 1.25 -3.35 3.0 -9.9 -1.15 -16.45 -5.25 -18.2 -12.8 -19.15 -17.0 -18.15 -21.2" fill="#0c0c0b" fill-opacity="0.11764706" fill-rule="evenodd" stroke="none"/>
    <path d="M2.2 -27.8 Q2.2 -27.4 1.35 -27.1 L-0.65 -26.85 -2.65 -27.1 Q-3.5 -27.4 -3.5 -27.8 L-2.65 -28.45 -0.65 -28.7 1.35 -28.45 2.2 -27.8" fill="#0c0c0b" fill-opacity="0.11764706" fill-rule="evenodd" stroke="none"/>
    <path d="M8.25 -27.8 Q8.15 -27.4 7.25 -27.45 L5.25 -27.85 Q4.15 -28.25 3.45 -28.75 2.75 -29.3 2.9 -29.65 3.0 -30.0 3.9 -30.0 L5.85 -29.6 7.7 -28.7 Q8.4 -28.15 8.25 -27.8" fill="#0c0c0b" fill-opacity="0.11764706" fill-rule="evenodd" stroke="none"/>
    <path d="M-13.5 -18.0 Q-13.4 -17.1 -13.65 -15.95 -13.9 -14.8 -14.3 -14.05 -14.75 -13.25 -15.1 -13.35 -15.45 -13.45 -15.55 -14.3 L-15.45 -16.35 -14.75 -18.25 Q-14.35 -19.0 -13.95 -18.95 -13.55 -18.85 -13.5 -18.0" fill="#0c0c0b" fill-opacity="0.11764706" fill-rule="evenodd" stroke="none"/>
    <path d="M9.1 -14.05 Q9.1 -13.5 8.7 -13.1 8.35 -12.7 7.8 -12.7 7.25 -12.7 6.85 -13.1 6.45 -13.5 6.45 -14.05 6.45 -14.6 6.85 -14.95 7.25 -15.35 7.8 -15.35 8.35 -15.35 8.7 -14.95 L9.1 -14.05" fill="#0c0c0b" fill-opacity="0.11764706" fill-rule="evenodd" stroke="none"/>
    <path d="M3.65 -17.2 Q4.3 -16.55 4.3 -15.65 4.3 -14.75 3.65 -14.1 3.0 -13.5 2.1 -13.5 1.2 -13.5 0.6 -14.1 -0.05 -14.75 -0.05 -15.65 -0.05 -16.55 0.6 -17.2 1.2 -17.85 2.1 -17.85 3.0 -17.85 3.65 -17.2" fill="#0c0c0b" fill-opacity="0.11764706" fill-rule="evenodd" stroke="none"/>
  </g>
</svg>
