<?xml version="1.0" encoding="UTF-8" standalone="no"?>
<svg xmlns:ffdec="https://www.free-decompiler.com/flash" xmlns:xlink="http://www.w3.org/1999/xlink" ffdec:objectType="shape" height="15.6px" width="16.5px" xmlns="http://www.w3.org/2000/svg">
  <g transform="matrix(1.0, 0.0, 0.0, 1.0, -1.0, -2.45)">
    <path d="M17.45 8.35 L17.5 9.3 Q17.5 11.1 16.85 12.7 L15.1 15.5 Q13.95 16.7 12.45 17.35 10.9 18.05 9.25 18.05 7.55 18.05 6.05 17.35 4.55 16.7 3.4 15.5 2.25 14.25 1.65 12.7 1.0 11.1 1.0 9.3 1.0 8.45 1.15 7.6 1.3 9.25 2.0 10.7 2.7 12.1 3.8 13.15 4.95 14.25 6.35 14.8 7.8 15.4 9.35 15.4 12.35 15.4 14.65 13.4 16.9 11.4 17.45 8.35" fill="#ffffff" fill-opacity="0.101960786" fill-rule="evenodd" stroke="none"/>
    <path d="M13.4 3.3 Q14.65 4.2 14.65 5.45 14.65 6.7 13.4 7.55 12.2 8.45 10.5 8.45 8.8 8.45 7.55 7.55 6.35 6.7 6.35 5.45 6.35 4.2 7.55 3.3 8.8 2.45 10.5 2.45 12.2 2.45 13.4 3.3" fill="#ffffff" fill-opacity="0.3019608" fill-rule="evenodd" stroke="none"/>
  </g>
</svg>
