<?xml version="1.0" encoding="UTF-8" standalone="no"?>
<svg xmlns:ffdec="https://www.free-decompiler.com/flash" xmlns:xlink="http://www.w3.org/1999/xlink" ffdec:objectType="shape" height="20.25px" width="20.55px" xmlns="http://www.w3.org/2000/svg">
  <g transform="matrix(1.0, 0.0, 0.0, 1.0, 0.75, 0.75)">
    <path d="M16.0 2.75 Q17.3 4.05 18.0 5.75 18.75 7.5 18.75 9.4 18.75 11.3 18.0 13.05 17.3 14.75 16.0 16.05 14.7 17.35 13.0 18.05 11.3 18.75 9.35 18.75 7.45 18.75 5.7 18.05 4.05 17.35 2.75 16.05 1.45 14.75 0.7 13.05 0.0 11.3 0.0 9.4 0.0 7.5 0.7 5.75 1.45 4.05 2.75 2.75 4.05 1.45 5.7 0.75 7.45 0.0 9.35 0.0 11.3 0.0 13.0 0.75 14.7 1.45 16.0 2.75 Z" fill="none" stroke="#352574" stroke-linecap="butt" stroke-linejoin="miter-clip" stroke-miterlimit="4.0" stroke-width="1.5"/>
  </g>
</svg>
