<?xml version="1.0" encoding="UTF-8" standalone="no"?>
<svg xmlns:ffdec="https://www.free-decompiler.com/flash" xmlns:xlink="http://www.w3.org/1999/xlink" ffdec:objectType="shape" height="80.9px" width="108.2px" xmlns="http://www.w3.org/2000/svg">
  <g transform="matrix(1.0, 0.0, 0.0, 1.0, 2.0, -0.7)">
    <path d="M79.1 33.6 L80.05 34.65 Q81.3 35.85 82.8 36.4 87.7 38.1 93.65 32.7 96.35 29.6 96.4 26.95 96.4 24.45 94.0 20.95 L97.05 18.25 98.3 19.9 Q99.65 22.0 100.35 24.15 102.55 31.15 97.25 36.25 91.95 41.55 86.25 41.85 79.9 42.25 75.0 36.4 L79.1 33.6" fill="#5f604a" fill-rule="evenodd" stroke="none"/>
    <path d="M79.1 33.6 L80.05 34.65 Q81.3 35.85 82.8 36.4 87.7 38.1 93.65 32.7 96.35 29.6 96.4 26.95 96.4 24.45 94.0 20.95 L97.05 18.25 98.3 19.9 Q99.65 22.0 100.35 24.15 102.55 31.15 97.25 36.25 91.95 41.55 86.25 41.85 79.9 42.25 75.0 36.4 L79.1 33.6 Z" fill="none" stroke="#000000" stroke-linecap="round" stroke-linejoin="round" stroke-opacity="0.29803923" stroke-width="1.0"/>
    <path d="M91.7 5.1 L94.2 4.3 Q101.15 8.0 101.35 16.0 L99.85 17.45 46.9 68.95 46.65 69.15 38.9 76.7 38.8 76.65 Q42.25 72.95 42.9 66.85 L42.95 64.45 Q43.1 54.5 36.65 44.7 31.5 36.8 24.4 32.7 22.8 31.7 21.05 31.0 16.2 28.9 12.05 29.2 L19.9 26.85 91.7 5.1 M46.9 68.95 Q47.45 66.3 47.5 63.0 47.2 52.95 40.6 42.8 34.05 32.8 24.95 28.55 22.25 27.35 19.9 26.85 22.25 27.35 24.95 28.55 34.05 32.8 40.6 42.8 47.2 52.95 47.5 63.0 47.45 66.3 46.9 68.95" fill="#787a5f" fill-rule="evenodd" stroke="none"/>
    <path d="M91.7 5.1 Q92.05 3.0 93.7 1.9 L98.8 1.75 Q101.75 2.9 103.75 6.0 105.75 9.1 105.7 12.25 105.6 15.45 103.5 16.8 101.95 17.85 99.85 17.45 L101.35 16.0 Q101.15 8.0 94.2 4.3 L91.7 5.1" fill="#5c5e48" fill-rule="evenodd" stroke="none"/>
    <path d="M24.4 32.7 Q31.5 36.8 36.65 44.7 43.1 54.5 42.95 64.45 L42.9 66.85 Q38.25 69.8 31.85 67.1 27.6 65.35 24.2 61.7 22.5 59.85 21.1 57.65 19.6 55.4 18.65 53.2 16.6 48.55 16.65 43.9 16.85 36.95 21.45 33.95 22.8 33.05 24.4 32.7" fill="#37382c" fill-rule="evenodd" stroke="none"/>
    <path d="M38.8 76.65 Q37.65 77.9 36.2 78.85 29.65 83.15 20.4 79.2 11.25 75.3 4.8 65.5 -1.6 55.75 -1.5 45.75 -1.35 35.8 5.2 31.5 8.35 29.4 12.05 29.2 16.2 28.9 21.05 31.0 22.8 31.7 24.4 32.7 22.8 33.05 21.45 33.95 16.85 36.95 16.65 43.9 16.6 48.55 18.65 53.2 19.6 55.4 21.1 57.65 22.5 59.85 24.2 61.7 27.6 65.35 31.85 67.1 38.25 69.8 42.9 66.85 42.25 72.95 38.8 76.65" fill="url(#gradient0)" fill-rule="evenodd" stroke="none"/>
    <path d="M99.85 17.45 Q101.95 17.85 103.5 16.8 105.6 15.45 105.7 12.25 105.75 9.1 103.75 6.0 101.75 2.9 98.8 1.75 L93.7 1.9 Q92.05 3.0 91.7 5.1 L94.2 4.3 Q101.15 8.0 101.35 16.0 L99.85 17.45 46.9 68.95 46.65 69.15 38.9 76.7 38.8 76.65 Q37.65 77.9 36.2 78.85 29.65 83.15 20.4 79.2 11.25 75.3 4.8 65.5 -1.6 55.75 -1.5 45.75 -1.35 35.8 5.2 31.5 8.35 29.4 12.05 29.2 L19.9 26.85 91.7 5.1 M42.9 66.85 L42.95 64.45 Q43.1 54.5 36.65 44.7 31.5 36.8 24.4 32.7 22.8 31.7 21.05 31.0 16.2 28.9 12.05 29.2 M42.9 66.85 Q42.25 72.95 38.8 76.65 M19.9 26.85 Q22.25 27.35 24.95 28.55 34.05 32.8 40.6 42.8 47.2 52.95 47.5 63.0 47.45 66.3 46.9 68.95" fill="none" stroke="#000000" stroke-linecap="round" stroke-linejoin="round" stroke-opacity="0.29803923" stroke-width="1.0"/>
  </g>
  <defs>
    <linearGradient gradientTransform="matrix(0.0271, 0.0, 0.0, 0.0317, 20.7, 55.1)" gradientUnits="userSpaceOnUse" id="gradient0" spreadMethod="pad" x1="-819.2" x2="819.2">
      <stop offset="0.4549019607843137" stop-color="#525540"/>
      <stop offset="0.9098039215686274" stop-color="#373a27"/>
    </linearGradient>
  </defs>
</svg>
