<?xml version="1.0" encoding="UTF-8" standalone="no"?>
<svg xmlns:ffdec="https://www.free-decompiler.com/flash" xmlns:xlink="http://www.w3.org/1999/xlink" ffdec:objectType="shape" height="81.3px" width="112.75px" xmlns="http://www.w3.org/2000/svg">
  <g transform="matrix(1.0, 0.0, 0.0, 1.0, 56.35, 40.65)">
    <path d="M-38.95 -28.2 L-22.65 -22.6 -25.0 -35.55 -11.9 -26.55 -8.6 -39.4 0.0 -27.9 8.65 -39.4 11.95 -26.55 25.05 -35.55 22.7 -22.6 38.95 -28.2 31.2 -16.4 49.1 -18.1 36.7 -8.65 54.45 -6.25 38.6 0.0 54.45 6.25 36.7 8.6 49.1 18.1 31.2 16.4 38.95 28.2 22.7 22.6 25.05 35.55 11.95 26.55 8.65 39.4 0.0 27.9 -8.6 39.4 -11.9 26.55 -25.0 35.55 -22.65 22.6 -38.95 28.2 -31.2 16.4 -49.05 18.1 -36.65 8.6 -54.4 6.25 -38.55 0.0 -54.4 -6.25 -36.65 -8.65 -49.05 -18.1 -31.2 -16.4 -38.95 -28.2" fill="#ffffff" fill-rule="evenodd" stroke="none"/>
    <path d="M-38.95 -28.2 L-22.65 -22.6 -25.0 -35.55 -11.9 -26.55 -8.6 -39.4 0.0 -27.9 8.65 -39.4 11.95 -26.55 25.05 -35.55 22.7 -22.6 38.95 -28.2 31.2 -16.4 49.1 -18.1 36.7 -8.65 54.45 -6.25 38.6 0.0 54.45 6.25 36.7 8.6 49.1 18.1 31.2 16.4 38.95 28.2 22.7 22.6 25.05 35.55 11.95 26.55 8.65 39.4 0.0 27.9 -8.6 39.4 -11.9 26.55 -25.0 35.55 -22.65 22.6 -38.95 28.2 -31.2 16.4 -49.05 18.1 -36.65 8.6 -54.4 6.25 -38.55 0.0 -54.4 -6.25 -36.65 -8.65 -49.05 -18.1 -31.2 -16.4 -38.95 -28.2 Z" fill="none" stroke="#231f20" stroke-linecap="butt" stroke-linejoin="miter-clip" stroke-miterlimit="10.0" stroke-width="1.0"/>
    <path d="M-7.75 4.85 Q-10.95 5.9 -13.5 5.9 -17.35 5.9 -19.15 3.3 -20.5 1.3 -20.5 -1.05 -20.5 -3.75 -18.5 -5.6 -16.5 -7.5 -13.8 -7.5 -11.15 -7.5 -9.05 -5.4 L-10.8 -3.7 Q-12.1 -5.1 -13.9 -5.1 -15.55 -5.1 -16.85 -3.9 -18.15 -2.65 -18.15 -1.05 L-18.05 -0.3 Q-17.3 3.55 -13.4 3.55 -11.55 3.55 -8.55 2.55 L-7.75 4.85" fill="#000000" fill-rule="evenodd" stroke="none"/>
    <path d="M3.35 -4.15 Q4.35 0.85 4.35 3.05 4.35 6.15 2.35 6.6 L-2.4 7.0 Q-5.3 7.0 -6.3 6.05 -7.3 5.05 -7.3 2.25 L-6.65 -3.9 -6.3 -6.25 -3.9 -6.2 Q-3.9 -5.5 -4.25 -3.55 L-4.7 -0.3 -5.0 3.0 -4.75 4.15 Q-4.3 4.6 -2.6 4.6 L1.75 4.25 1.95 3.05 Q1.95 1.4 1.4 -1.5 L0.55 -5.95 2.95 -6.25 3.35 -4.15" fill="#000000" fill-rule="evenodd" stroke="none"/>
    <path d="M15.65 -4.0 L11.6 -3.5 12.25 6.85 9.8 7.0 9.2 -3.25 5.7 -2.8 5.45 -5.2 15.4 -6.4 15.65 -4.0" fill="#000000" fill-rule="evenodd" stroke="none"/>
    <path d="M20.4 -7.6 L21.25 1.0 18.8 1.25 18.0 -7.35 20.4 -7.6 M21.55 6.1 L19.1 6.1 18.75 3.7 21.2 3.7 21.55 6.1" fill="#000000" fill-rule="evenodd" stroke="none"/>
  </g>
</svg>
