<?xml version="1.0" encoding="UTF-8" standalone="no"?>
<svg xmlns:ffdec="https://www.free-decompiler.com/flash" xmlns:xlink="http://www.w3.org/1999/xlink" ffdec:objectType="shape" height="80.85px" width="148.65px" xmlns="http://www.w3.org/2000/svg">
  <g transform="matrix(1.0, 0.0, 0.0, 1.0, 74.3, 40.45)">
    <path d="M-51.35 -28.2 L-29.85 -22.6 -32.95 -35.55 -15.7 -26.55 -11.35 -39.4 0.0 -27.9 11.4 -39.4 15.75 -26.55 33.0 -35.55 29.9 -22.6 51.35 -28.2 41.15 -16.4 64.75 -18.1 48.35 -8.65 71.75 -6.25 50.85 0.0 71.75 6.25 48.35 8.6 64.75 18.1 41.15 16.4 51.35 28.2 29.9 22.6 33.0 35.55 15.75 26.55 11.4 39.4 0.0 27.9 -11.35 39.4 -15.7 26.55 -32.95 35.55 -29.85 22.6 -51.35 28.2 -41.1 16.4 -64.7 18.1 -48.35 8.6 -71.7 6.25 -50.85 0.0 -71.7 -6.25 -48.35 -8.65 -64.7 -18.1 -41.1 -16.4 -51.35 -28.2" fill="#ffffff" fill-rule="evenodd" stroke="none"/>
    <path d="M-51.35 -28.2 L-29.85 -22.6 -32.95 -35.55 -15.7 -26.55 -11.35 -39.4 0.0 -27.9 11.4 -39.4 15.75 -26.55 33.0 -35.55 29.9 -22.6 51.35 -28.2 41.15 -16.4 64.75 -18.1 48.35 -8.65 71.75 -6.25 50.85 0.0 71.75 6.25 48.35 8.6 64.75 18.1 41.15 16.4 51.35 28.2 29.9 22.6 33.0 35.55 15.75 26.55 11.4 39.4 0.0 27.9 -11.35 39.4 -15.7 26.55 -32.95 35.55 -29.85 22.6 -51.35 28.2 -41.1 16.4 -64.7 18.1 -48.35 8.6 -71.7 6.25 -50.85 0.0 -71.7 -6.25 -48.35 -8.65 -64.7 -18.1 -41.1 -16.4 -51.35 -28.2 Z" fill="none" stroke="#231f20" stroke-linecap="butt" stroke-linejoin="miter-clip" stroke-miterlimit="10.0" stroke-width="1.0"/>
    <path d="M-31.5 -7.85 L-29.35 -1.35 Q-28.0 2.75 -27.6 5.3 L-30.0 5.65 Q-30.3 3.8 -31.05 1.35 L-36.2 2.2 -36.85 5.8 -39.25 5.6 -37.05 -6.75 -31.5 -7.85 M-31.8 -1.0 L-33.15 -5.05 -35.0 -4.65 -35.75 -0.35 -31.8 -1.0" fill="#000000" fill-rule="evenodd" stroke="none"/>
    <path d="M-14.7 4.85 Q-17.9 5.9 -20.45 5.9 -24.3 5.9 -26.1 3.3 -27.45 1.3 -27.45 -1.05 -27.45 -3.7 -25.5 -5.6 -23.45 -7.5 -20.75 -7.5 -18.1 -7.5 -16.0 -5.4 L-17.75 -3.7 Q-19.05 -5.1 -20.85 -5.1 -22.5 -5.1 -23.8 -3.9 -25.1 -2.65 -25.1 -1.05 L-25.0 -0.3 Q-24.25 3.55 -20.35 3.55 -18.5 3.55 -15.5 2.55 L-14.7 4.85" fill="#000000" fill-rule="evenodd" stroke="none"/>
    <path d="M-4.55 -4.0 L-8.6 -3.5 -8.0 6.85 -10.4 7.0 -11.0 -3.25 -14.5 -2.8 -14.75 -5.2 -4.8 -6.4 -4.55 -4.0" fill="#000000" fill-rule="evenodd" stroke="none"/>
    <path d="M2.85 3.7 L5.7 3.4 5.95 5.8 -1.15 6.5 -1.4 4.1 0.45 3.9 -0.2 -4.4 -2.8 -4.15 -3.0 -6.6 4.9 -7.25 5.1 -4.85 2.2 -4.6 2.85 3.1 2.85 3.7" fill="#000000" fill-rule="evenodd" stroke="none"/>
    <path d="M20.0 -6.8 Q21.85 -4.85 21.85 -2.05 21.85 1.25 19.4 3.5 16.95 5.75 13.6 5.75 10.85 5.75 9.05 3.8 7.3 1.8 7.3 -0.9 7.3 -3.95 9.8 -6.4 12.3 -8.75 15.4 -8.75 18.2 -8.75 20.0 -6.8 M19.45 -2.05 Q19.45 -3.8 18.3 -5.1 17.2 -6.3 15.4 -6.3 13.2 -6.3 11.55 -4.7 9.75 -2.95 9.75 -0.9 9.75 0.95 10.8 2.15 11.85 3.35 13.65 3.35 15.85 3.35 17.7 1.75 19.45 0.15 19.45 -2.05" fill="#000000" fill-rule="evenodd" stroke="none"/>
    <path d="M33.1 -5.45 Q33.75 -0.7 33.9 7.0 L31.65 7.6 28.55 3.1 25.4 -1.4 Q25.5 2.4 26.55 6.45 L24.25 7.05 Q23.0 2.5 23.0 -4.1 L23.0 -5.8 25.7 -5.85 Q26.9 -3.55 28.05 -1.75 L31.4 2.85 30.7 -5.15 33.1 -5.45" fill="#000000" fill-rule="evenodd" stroke="none"/>
    <path d="M38.5 -7.6 L39.35 1.0 36.95 1.25 36.1 -7.35 38.5 -7.6 M39.65 6.1 L37.2 6.1 36.85 3.7 39.35 3.7 39.65 6.1" fill="#000000" fill-rule="evenodd" stroke="none"/>
  </g>
</svg>
