<?xml version="1.0" encoding="UTF-8" standalone="no"?>
<svg xmlns:ffdec="https://www.free-decompiler.com/flash" xmlns:xlink="http://www.w3.org/1999/xlink" ffdec:objectType="shape" height="53.15px" width="76.8px" xmlns="http://www.w3.org/2000/svg">
  <g transform="matrix(1.0, 0.0, 0.0, 1.0, 0.5, 0.5)">
    <path d="M0.0 0.0 L0.0 52.15 75.8 52.15 75.8 0.0 0.0 0.0" fill="#000000" fill-rule="evenodd" stroke="none"/>
    <path d="M0.0 0.0 L75.8 0.0 75.8 52.15 0.0 52.15 0.0 0.0 Z" fill="none" stroke="#000000" stroke-linecap="butt" stroke-linejoin="miter-clip" stroke-miterlimit="10.0" stroke-width="1.0"/>
    <path d="M8.15 1.2 L1.25 1.25 8.45 9.05 16.15 9.15 8.15 1.2" fill="#ffffff" fill-rule="evenodd" stroke="none"/>
    <path d="M23.95 9.05 L31.6 9.15 23.65 1.2 16.7 1.25 23.95 9.05" fill="#ffffff" fill-rule="evenodd" stroke="none"/>
    <path d="M39.55 9.05 L47.2 9.15 39.25 1.2 32.3 1.25 39.55 9.05" fill="#ffffff" fill-rule="evenodd" stroke="none"/>
    <path d="M54.9 9.05 L62.55 9.15 54.6 1.2 47.65 1.25 54.9 9.05" fill="#ffffff" fill-rule="evenodd" stroke="none"/>
    <path d="M6.35 27.9 L70.85 27.9 70.85 47.65 6.35 47.65 6.35 27.9 Z" fill="none" stroke="#ffffff" stroke-linecap="butt" stroke-linejoin="miter-clip" stroke-miterlimit="10.0" stroke-opacity="0.49803922" stroke-width="1.0"/>
    <path d="M5.95 13.9 L18.95 13.9 18.95 22.7 5.95 22.7 5.95 13.9 Z" fill="none" stroke="#ffffff" stroke-linecap="butt" stroke-linejoin="miter-clip" stroke-miterlimit="10.0" stroke-opacity="0.49803922" stroke-width="1.0"/>
    <path d="M24.15 13.9 L32.0 13.9 32.0 22.7 24.15 22.7 24.15 13.9 Z" fill="none" stroke="#ffffff" stroke-linecap="butt" stroke-linejoin="miter-clip" stroke-miterlimit="10.0" stroke-opacity="0.49803922" stroke-width="1.0"/>
    <path d="M37.15 13.9 L45.0 13.9 45.0 22.7 37.15 22.7 37.15 13.9 Z" fill="none" stroke="#ffffff" stroke-linecap="butt" stroke-linejoin="miter-clip" stroke-miterlimit="10.0" stroke-opacity="0.49803922" stroke-width="1.0"/>
    <path d="M50.0 13.9 L70.35 13.9 70.35 22.7 50.0 22.7 50.0 13.9 Z" fill="none" stroke="#ffffff" stroke-linecap="butt" stroke-linejoin="miter-clip" stroke-miterlimit="10.0" stroke-opacity="0.49803922" stroke-width="1.0"/>
  </g>
</svg>
