<?xml version="1.0" encoding="UTF-8" standalone="no"?>
<svg xmlns:ffdec="https://www.free-decompiler.com/flash" xmlns:xlink="http://www.w3.org/1999/xlink" ffdec:objectType="shape" height="20.95px" width="126.6px" xmlns="http://www.w3.org/2000/svg">
  <g transform="matrix(1.0, 0.0, 0.0, 1.0, 50.3, 0.5)">
    <path d="M0.1 10.45 L63.05 10.45 66.2 19.95 75.8 19.95 75.8 0.15 0.0 0.0 0.1 10.45" fill="#000000" fill-rule="evenodd" stroke="none"/>
    <path d="M0.1 10.45 L63.05 10.45 66.2 19.95 75.8 19.95 75.8 0.15 0.0 0.0 0.1 10.45 Z" fill="none" stroke="#000000" stroke-linecap="butt" stroke-linejoin="miter-clip" stroke-miterlimit="10.0" stroke-width="1.0"/>
    <path d="M0.95 9.35 L8.8 9.25 16.2 1.45 9.1 1.4 0.95 9.35" fill="#ffffff" fill-rule="evenodd" stroke="none"/>
    <path d="M24.35 1.4 L16.2 9.35 24.0 9.25 31.4 1.45 24.35 1.4" fill="#ffffff" fill-rule="evenodd" stroke="none"/>
    <path d="M39.55 1.4 L31.4 9.35 39.2 9.25 46.6 1.45 39.55 1.4" fill="#ffffff" fill-rule="evenodd" stroke="none"/>
    <path d="M54.75 1.4 L46.6 9.35 54.45 9.25 61.85 1.45 54.75 1.4" fill="#ffffff" fill-rule="evenodd" stroke="none"/>
    <path d="M74.85 1.15 L74.6 1.2 70.85 1.2 63.9 9.1 67.2 18.8 74.8 18.8 74.85 1.15" fill="#ffffff" fill-rule="evenodd" stroke="none"/>
    <path d="M70.6 12.9 Q69.75 12.9 69.15 13.5 68.55 14.1 68.55 15.0 68.55 15.85 69.15 16.45 69.75 17.05 70.6 17.05 71.5 17.05 72.1 16.45 72.7 15.85 72.7 15.0 72.7 14.1 72.1 13.5 71.5 12.9 70.6 12.9" fill="#000000" fill-rule="evenodd" stroke="none"/>
  </g>
</svg>
