<?xml version="1.0" encoding="UTF-8" standalone="no"?>
<svg xmlns:ffdec="https://www.free-decompiler.com/flash" xmlns:xlink="http://www.w3.org/1999/xlink" ffdec:objectType="shape" height="104.5px" width="60.35px" xmlns="http://www.w3.org/2000/svg">
  <g transform="matrix(1.0, 0.0, 0.0, 1.0, -4.55, -5.85)">
    <path d="M62.0 59.15 Q59.6 95.3 60.0 99.85 53.65 105.65 43.65 108.45 23.65 113.85 5.45 98.35 6.2 36.2 5.05 18.15 L14.85 19.1 Q25.35 20.0 29.25 19.45 L48.0 20.3 Q62.3 21.8 64.4 23.85 L62.0 59.15" fill="url(#gradient0)" fill-rule="evenodd" stroke="none"/>
    <path d="M62.0 59.15 Q59.6 95.3 60.0 99.85 53.65 105.65 43.65 108.45 23.65 113.85 5.45 98.35 6.2 36.2 5.05 18.15 L14.85 19.1 Q25.35 20.0 29.25 19.45 L48.0 20.3 Q62.3 21.8 64.4 23.85 L62.0 59.15 Z" fill="none" stroke="#000000" stroke-linecap="round" stroke-linejoin="round" stroke-opacity="0.29803923" stroke-width="1.0"/>
    <path d="M36.5 31.05 L44.35 7.35" fill="none" stroke="#e9b822" stroke-linecap="round" stroke-linejoin="round" stroke-width="3.0"/>
    <path d="M28.15 28.6 Q31.25 29.95 34.15 31.35 41.1 33.8 45.5 31.9" fill="none" stroke="#000000" stroke-linecap="round" stroke-linejoin="round" stroke-opacity="0.29803923" stroke-width="1.0"/>
  </g>
  <defs>
    <linearGradient gradientTransform="matrix(0.012, -0.045, 0.0573, 0.0154, 35.05, 59.95)" gradientUnits="userSpaceOnUse" id="gradient0" spreadMethod="pad" x1="-819.2" x2="819.2">
      <stop offset="0.3607843137254902" stop-color="#c7c7c7"/>
      <stop offset="0.8745098039215686" stop-color="#ededed"/>
    </linearGradient>
  </defs>
</svg>
