<?xml version="1.0" encoding="UTF-8" standalone="no"?>
<svg xmlns:ffdec="https://www.free-decompiler.com/flash" xmlns:xlink="http://www.w3.org/1999/xlink" ffdec:objectType="shape" height="4.95px" width="11.95px" xmlns="http://www.w3.org/2000/svg">
  <g transform="matrix(1.0, 0.0, 0.0, 1.0, 0.35, 0.35)">
    <path d="M11.25 3.5 Q11.25 4.25 10.55 4.25 L0.7 4.25 Q0.0 4.25 0.0 3.5 L0.0 0.7 Q0.0 0.0 0.7 0.0 L10.55 0.0 Q11.25 0.0 11.25 0.7 L11.25 3.5" fill="#050202" fill-rule="evenodd" stroke="none"/>
    <path d="M11.25 3.5 Q11.25 4.25 10.55 4.25 L0.7 4.25 Q0.0 4.25 0.0 3.5 L0.0 0.7 Q0.0 0.0 0.7 0.0 L10.55 0.0 Q11.25 0.0 11.25 0.7 L11.25 3.5 Z" fill="none" stroke="#707070" stroke-linecap="butt" stroke-linejoin="round" stroke-width="0.7000000000000001"/>
    <path d="M10.45 1.6 L0.8 1.6 0.8 0.8 10.45 0.8 10.45 1.6" fill="#9c9c9c" fill-rule="evenodd" stroke="none"/>
  </g>
</svg>
