<?xml version="1.0" encoding="UTF-8" standalone="no"?>
<svg xmlns:ffdec="https://www.free-decompiler.com/flash" xmlns:xlink="http://www.w3.org/1999/xlink" ffdec:objectType="shape" height="53.15px" width="53.15px" xmlns="http://www.w3.org/2000/svg">
  <g transform="matrix(1.0, 0.0, 0.0, 1.0, 0.0, 0.0)">
    <path d="M26.6 26.6 L26.6 49.1" fill="none" stroke="#a14d00" stroke-linecap="butt" stroke-linejoin="round" stroke-width="0.7000000000000001"/>
    <path d="M26.6 26.6 L37.05 46.5" fill="none" stroke="#a14d00" stroke-linecap="butt" stroke-linejoin="round" stroke-width="0.7000000000000001"/>
    <path d="M26.6 26.6 L45.1 39.4" fill="none" stroke="#a14d00" stroke-linecap="butt" stroke-linejoin="round" stroke-width="0.7000000000000001"/>
    <path d="M26.6 26.6 L48.9 29.3" fill="none" stroke="#a14d00" stroke-linecap="butt" stroke-linejoin="round" stroke-width="0.7000000000000001"/>
    <path d="M26.6 26.6 L47.6 18.6" fill="none" stroke="#a14d00" stroke-linecap="butt" stroke-linejoin="round" stroke-width="0.7000000000000001"/>
    <path d="M26.6 26.6 L41.5 9.75" fill="none" stroke="#a14d00" stroke-linecap="butt" stroke-linejoin="round" stroke-width="0.7000000000000001"/>
    <path d="M26.6 26.6 L31.95 4.75" fill="none" stroke="#a14d00" stroke-linecap="butt" stroke-linejoin="round" stroke-width="0.7000000000000001"/>
    <path d="M26.6 26.6 L21.2 4.75" fill="none" stroke="#a14d00" stroke-linecap="butt" stroke-linejoin="round" stroke-width="0.7000000000000001"/>
    <path d="M26.6 26.6 L11.65 9.75" fill="none" stroke="#a14d00" stroke-linecap="butt" stroke-linejoin="round" stroke-width="0.7000000000000001"/>
    <path d="M26.6 26.6 L5.55 18.6" fill="none" stroke="#a14d00" stroke-linecap="butt" stroke-linejoin="round" stroke-width="0.7000000000000001"/>
    <path d="M26.6 26.6 L4.25 29.3" fill="none" stroke="#a14d00" stroke-linecap="butt" stroke-linejoin="round" stroke-width="0.7000000000000001"/>
    <path d="M26.6 26.6 L8.05 39.4" fill="none" stroke="#a14d00" stroke-linecap="butt" stroke-linejoin="round" stroke-width="0.7000000000000001"/>
    <path d="M26.6 26.6 L16.1 46.5" fill="none" stroke="#a14d00" stroke-linecap="butt" stroke-linejoin="round" stroke-width="0.7000000000000001"/>
    <path d="M26.6 3.8 Q36.0 3.8 42.7 10.5 49.35 17.15 49.35 26.6 49.35 36.0 42.7 42.7 36.0 49.35 26.6 49.35 17.15 49.35 10.5 42.7 3.8 36.0 3.8 26.6 3.8 17.15 10.5 10.5 17.15 3.8 26.6 3.8 M12.75 12.8 Q10.05 15.45 8.55 19.0 7.05 22.6 7.05 26.6 7.05 34.7 12.75 40.4 15.45 43.1 19.0 44.6 22.6 46.1 26.6 46.1 34.7 46.1 40.4 40.4 46.1 34.7 46.1 26.6 46.1 22.6 44.6 19.0 43.1 15.45 40.4 12.8 34.65 7.05 26.6 7.05 22.6 7.05 19.0 8.6 15.45 10.1 12.75 12.8" fill="#f1ad00" fill-rule="evenodd" stroke="none"/>
    <path d="M26.6 3.8 Q36.0 3.8 42.7 10.5 49.35 17.15 49.35 26.6 49.35 36.0 42.7 42.7 36.0 49.35 26.6 49.35 17.15 49.35 10.5 42.7 3.8 36.0 3.8 26.6 3.8 17.15 10.5 10.5 17.15 3.8 26.6 3.8 M12.75 12.8 Q10.05 15.45 8.55 19.0 7.05 22.6 7.05 26.6 7.05 34.7 12.75 40.4 15.45 43.1 19.0 44.6 22.6 46.1 26.6 46.1 34.7 46.1 40.4 40.4 46.1 34.7 46.1 26.6 46.1 22.6 44.6 19.0 43.1 15.45 40.4 12.8 34.65 7.05 26.6 7.05 22.6 7.05 19.0 8.6 15.45 10.1 12.75 12.8 Z" fill="none" stroke="#efc700" stroke-linecap="butt" stroke-linejoin="miter-clip" stroke-miterlimit="4.0" stroke-width="0.7000000000000001"/>
    <path d="M26.6 0.7 Q37.3 0.7 44.85 8.3 52.45 15.9 52.45 26.6 52.45 37.3 44.85 44.9 37.3 52.45 26.6 52.45 15.85 52.45 8.3 44.9 0.7 37.3 0.7 26.6 0.7 15.9 8.3 8.3 15.9 0.7 26.6 0.7 M10.9 10.9 Q7.8 13.95 6.15 17.95 4.4 22.05 4.4 26.6 4.4 31.1 6.15 35.2 7.8 39.2 10.9 42.3 13.95 45.35 17.95 47.05 22.1 48.8 26.6 48.8 31.1 48.8 35.2 47.05 39.2 45.35 42.25 42.3 45.35 39.2 47.0 35.2 48.75 31.1 48.75 26.6 48.75 22.05 47.0 17.95 45.35 13.95 42.25 10.9 39.2 7.85 35.2 6.15 31.1 4.4 26.6 4.4 22.1 4.4 17.95 6.15 13.95 7.85 10.9 10.9" fill="#f5cc00" fill-rule="evenodd" stroke="none"/>
    <path d="M26.6 0.7 Q37.3 0.7 44.85 8.3 52.45 15.9 52.45 26.6 52.45 37.3 44.85 44.9 37.3 52.45 26.6 52.45 15.85 52.45 8.3 44.9 0.7 37.3 0.7 26.6 0.7 15.9 8.3 8.3 15.9 0.7 26.6 0.7 M10.9 10.9 Q7.8 13.95 6.15 17.95 4.4 22.05 4.4 26.6 4.4 31.1 6.15 35.2 7.8 39.2 10.9 42.3 13.95 45.35 17.95 47.05 22.1 48.8 26.6 48.8 31.1 48.8 35.2 47.05 39.2 45.35 42.25 42.3 45.35 39.2 47.0 35.2 48.75 31.1 48.75 26.6 48.75 22.05 47.0 17.95 45.35 13.95 42.25 10.9 39.2 7.85 35.2 6.15 31.1 4.4 26.6 4.4 22.1 4.4 17.95 6.15 13.95 7.85 10.9 10.9 Z" fill="none" stroke="#f9cf00" stroke-linecap="butt" stroke-linejoin="miter-clip" stroke-miterlimit="4.0" stroke-width="0.7000000000000001"/>
    <path d="M26.6 0.7 Q15.9 0.7 8.3 8.3 0.7 15.9 0.7 26.6 0.7 37.3 8.3 44.9 15.85 52.45 26.6 52.45 37.3 52.45 44.85 44.9 52.45 37.3 52.45 26.6 52.45 15.9 44.85 8.3 37.3 0.7 26.6 0.7 M7.8 7.8 Q15.6 0.0 26.6 0.0 37.6 0.0 45.35 7.8 53.15 15.6 53.15 26.6 53.15 37.6 45.35 45.35 37.6 53.15 26.6 53.15 15.6 53.15 7.8 45.35 0.0 37.6 0.0 26.6 0.0 15.6 7.8 7.8 M33.8 9.2 Q30.35 7.75 26.6 7.75 18.8 7.75 13.25 13.3 7.75 18.8 7.75 26.6 7.75 30.35 9.15 33.8 10.6 37.25 13.25 39.9 18.85 45.4 26.6 45.4 30.35 45.4 33.8 44.0 37.25 42.55 39.9 39.9 42.55 37.25 44.0 33.8 45.4 30.35 45.4 26.6 45.4 18.8 39.9 13.3 37.25 10.6 33.8 9.2 M12.75 12.8 Q15.45 10.1 19.0 8.6 22.6 7.05 26.6 7.05 34.65 7.05 40.4 12.8 43.1 15.45 44.6 19.0 46.1 22.6 46.1 26.6 46.1 34.7 40.4 40.4 34.7 46.1 26.6 46.1 22.6 46.1 19.0 44.6 15.45 43.1 12.75 40.4 7.05 34.7 7.05 26.6 7.05 22.6 8.55 19.0 10.05 15.45 12.75 12.8" fill="#f47600" fill-rule="evenodd" stroke="none"/>
    <path d="M44.15 8.1 Q51.5 15.15 52.05 25.25 L50.75 28.05 50.8 26.6 Q50.8 21.65 48.9 17.15 47.05 12.8 43.7 9.45 40.3 6.1 36.0 4.25 31.5 2.35 26.6 2.35 21.7 2.35 17.15 4.25 12.85 6.1 9.45 9.45 6.1 12.8 4.25 17.15 2.35 21.65 2.35 26.6 L2.45 28.55 1.1 25.8 Q1.4 15.5 8.8 8.3 16.25 1.05 26.6 1.05 36.75 1.05 44.15 8.1" fill="#fceda8" fill-rule="evenodd" stroke="none"/>
    <path d="M1.05 26.6 L1.1 25.8 2.45 28.55 Q3.2 37.45 9.45 43.7 12.8 47.05 17.15 48.9 21.65 50.8 26.6 50.8 31.5 50.8 36.0 48.9 40.35 47.05 43.7 43.7 50.25 37.15 50.75 28.05 L52.05 25.25 52.1 26.6 Q52.1 37.15 44.6 44.65 37.15 52.1 26.6 52.1 16.0 52.1 8.55 44.65 1.05 37.15 1.05 26.6" fill="#fcd308" fill-rule="evenodd" stroke="none"/>
    <path d="M29.0 11.15 L33.2 12.55 Q37.8 14.5 39.5 17.1 L38.35 18.5 Q36.85 18.4 34.8 17.65 30.75 16.2 28.25 13.15 L29.0 11.15" fill="#e6e6e6" fill-opacity="0.8" fill-rule="evenodd" stroke="none"/>
    <path d="M29.0 11.15 L33.2 12.55 Q37.8 14.5 39.5 17.1 L38.35 18.5 Q36.85 18.4 34.8 17.65 30.75 16.2 28.25 13.15 L29.0 11.15 Z" fill="none" stroke="#ffffff" stroke-linecap="round" stroke-linejoin="round" stroke-width="1.0"/>
  </g>
</svg>
