<?xml version="1.0" encoding="UTF-8" standalone="no"?>
<svg xmlns:ffdec="https://www.free-decompiler.com/flash" xmlns:xlink="http://www.w3.org/1999/xlink" ffdec:objectType="shape" height="65.25px" width="118.15px" xmlns="http://www.w3.org/2000/svg">
  <g transform="matrix(1.0, 0.0, 0.0, 1.0, 0.35, 0.35)">
    <path d="M88.25 28.0 Q95.15 22.95 105.6 22.45 112.3 22.1 117.45 23.35 L116.1 26.1 Q108.75 24.75 100.55 26.75 94.35 28.3 89.95 31.6 L87.65 29.1 87.8 29.0 88.25 28.65 88.3 28.15 88.25 28.0 88.3 28.15 88.25 28.65 87.8 29.0 87.65 29.1 89.95 31.6 104.85 48.05 104.6 48.2 87.45 29.15 87.65 29.1 87.45 29.15 86.55 29.5 81.95 31.15 81.5 31.2 81.95 31.15 86.55 29.5 103.95 48.75 103.85 48.8 Q103.1 49.55 102.8 50.55 L97.15 44.5 Q89.5 36.5 86.6 34.65 82.0 39.65 80.1 47.5 L76.5 47.45 77.6 43.5 69.15 52.75 71.6 52.8 71.1 56.5 27.85 55.8 27.65 55.8 26.15 53.5 26.15 53.4 66.8 53.6 66.95 52.7 67.65 52.75 59.05 36.75 58.15 36.95 66.6 52.7 64.9 52.7 63.9 52.65 64.9 52.7 26.15 52.55 26.1 52.0 25.4 50.45 54.7 34.85 54.0 34.3 24.9 49.8 24.85 49.75 24.2 49.2 26.4 48.05 27.3 47.55 30.25 45.95 52.75 33.75 54.25 32.95 58.3 31.85 58.9 31.65 80.5 29.5 78.75 24.75 78.85 24.25 Q79.0 24.0 79.3 23.9 L81.0 23.3 83.8 22.25 85.1 21.75 Q85.85 21.5 86.1 22.05 L88.25 28.0 M44.05 29.75 L42.65 30.85 47.2 36.15 43.45 37.1 Q33.35 22.55 16.7 26.35 11.5 27.55 6.3 30.4 L2.1 33.05 0.0 30.6 Q1.05 29.8 2.9 28.7 6.55 26.45 10.5 24.95 23.0 20.15 33.05 24.45 37.65 26.35 40.8 29.0 L42.75 27.65 Q43.15 28.9 44.05 29.75 M80.95 30.65 L59.5 32.55 59.55 33.3 81.5 31.35 81.5 31.2 81.35 31.15 Q81.1 31.1 81.0 30.85 L80.95 30.65 80.5 29.5 80.95 30.65 M82.9 34.65 L82.2 34.05 68.4 49.85 69.1 50.45 82.9 34.65 M77.6 43.5 L86.05 34.3 86.6 34.65 86.05 34.3 77.6 43.5 M86.7 28.35 L85.05 23.35 80.95 24.55 85.05 23.35 86.7 28.35 M45.5 22.7 Q44.75 22.6 44.1 23.25 L43.45 23.8 43.55 23.2 Q43.8 22.1 44.55 21.65 L45.65 21.2 47.3 21.55 48.8 22.4 Q50.7 23.65 52.0 23.95 L56.9 24.15 61.35 24.4 Q62.15 24.75 62.25 25.05 61.1 24.85 60.25 25.05 L60.2 25.05 56.05 25.5 51.8 25.4 Q50.55 25.05 48.3 23.65 46.45 22.55 45.8 22.6 L45.5 22.7 M26.55 52.0 L26.1 52.0 26.55 52.0 28.4 52.0 63.9 52.65 59.85 45.35 59.15 44.0 55.45 37.25 39.65 45.3 36.55 46.9 28.25 51.15 26.55 52.0 M69.15 52.75 L67.65 52.75 69.15 52.75 M42.65 30.85 L41.4 29.55 40.8 29.0 41.4 29.55 42.65 30.85 M64.65 43.65 L65.5 44.95 67.75 48.55 80.35 34.15 60.0 36.25 64.65 43.65" fill="#ffffff" fill-rule="evenodd" stroke="none"/>
    <path d="M52.75 33.75 L52.6 32.95 55.4 31.6 57.95 30.35 58.3 31.85 54.25 32.95 52.75 33.75 M52.25 31.4 L52.15 31.0 52.4 30.95 52.25 31.4" fill="#8a8a8a" fill-rule="evenodd" stroke="none"/>
    <path d="M52.6 32.95 L52.3 33.05 Q52.15 32.75 52.15 32.25 L52.25 31.4 52.4 30.95 Q54.95 30.45 57.8 29.4 L58.0 29.35 58.05 30.3 57.95 30.35 55.4 31.6 52.6 32.95" fill="#000000" fill-opacity="0.29803923" fill-rule="evenodd" stroke="none"/>
    <path d="M52.15 31.0 L50.3 31.2 Q47.0 31.45 45.2 30.55 L44.05 29.75 Q43.15 28.9 42.75 27.65 42.45 26.7 42.45 25.55 42.45 22.0 44.65 20.95 46.25 20.15 49.05 21.45 52.65 23.15 53.35 23.2 L56.9 23.3 60.55 23.1 Q62.7 22.85 63.05 24.6 63.4 26.35 61.35 27.6 59.75 28.65 58.0 29.35 L57.8 29.4 Q54.95 30.45 52.4 30.95 L52.15 31.0 M45.5 22.7 L45.8 22.6 Q46.45 22.55 48.3 23.65 50.55 25.05 51.8 25.4 L56.05 25.5 60.2 25.05 60.25 25.05 Q61.1 24.85 62.25 25.05 62.15 24.75 61.35 24.4 L56.9 24.15 52.0 23.95 Q50.7 23.65 48.8 22.4 L47.3 21.55 45.65 21.2 44.55 21.65 Q43.8 22.1 43.55 23.2 L43.45 23.8 44.1 23.25 Q44.75 22.6 45.5 22.7" fill="#f1ad00" fill-rule="evenodd" stroke="none"/>
    <path d="M34.15 60.9 L68.95 61.5 68.9 62.9 34.35 62.3 34.35 61.85 34.15 60.9 M24.15 46.6 L24.15 46.35 30.25 45.95 27.3 47.55 25.95 47.65 Q25.1 46.95 24.15 46.6 M36.55 46.9 L39.65 45.3 59.15 44.0 59.85 45.35 36.55 46.9 M65.5 44.95 L64.65 43.65 66.45 43.5 66.4 44.9 65.5 44.95" fill="#de5d00" fill-rule="evenodd" stroke="none"/>
    <path d="M27.85 55.8 L27.8 55.95 27.65 55.8 27.85 55.8 M26.5 57.75 Q24.5 59.65 21.7 59.65 18.9 59.65 16.95 57.7 14.95 55.7 14.95 52.9 14.95 50.15 16.95 48.15 18.95 46.15 21.7 46.15 L24.15 46.6 Q25.1 46.95 25.95 47.65 L26.4 48.05 24.2 49.2 Q23.1 48.45 21.7 48.45 19.85 48.45 18.55 49.75 17.25 51.05 17.25 52.9 17.25 54.75 18.55 56.05 19.85 57.35 21.7 57.35 23.55 57.35 24.85 56.05 L25.15 55.75 26.5 57.75 M26.55 52.0 L28.25 51.15 28.4 52.0 26.55 52.0" fill="#c4c4c4" fill-rule="evenodd" stroke="none"/>
    <path d="M81.5 31.2 L81.5 31.35 59.55 33.3 59.5 32.55 80.95 30.65 81.0 30.85 Q81.1 31.1 81.35 31.15 L81.5 31.2 M82.9 34.65 L69.1 50.45 68.4 49.85 82.2 34.05 82.9 34.65 M24.9 49.8 L54.0 34.3 54.7 34.85 25.4 50.45 24.9 49.8 M64.9 52.7 L66.6 52.7 58.15 36.95 59.05 36.75 67.65 52.75 66.95 52.7 66.8 53.6 26.15 53.4 26.15 52.9 26.15 52.55 64.9 52.7 M66.6 52.7 L66.95 52.7 66.6 52.7" fill="#e8e8e8" fill-rule="evenodd" stroke="none"/>
    <path d="M86.55 29.5 L87.45 29.15 104.6 48.2 103.95 48.75 86.55 29.5" fill="#9c9c9c" fill-rule="evenodd" stroke="none"/>
    <path d="M81.0 23.3 L80.5 21.85 Q79.35 21.75 78.55 20.95 77.65 20.1 77.65 18.8 77.65 17.55 78.55 16.65 79.45 15.75 80.7 15.75 81.85 15.75 82.7 16.5 L83.0 16.35 85.3 15.1 Q87.4 13.8 89.1 12.05 L88.9 11.85 Q88.4 11.5 88.75 10.95 L89.55 9.7 86.15 7.55 Q82.85 5.6 81.05 4.95 L78.6 4.3 78.4 4.3 Q77.85 4.7 77.05 4.7 76.1 4.7 75.45 4.0 74.75 3.3 74.75 2.35 74.75 1.4 75.45 0.7 76.1 0.0 77.05 0.0 78.0 0.0 78.6 0.6 L83.7 2.35 Q88.3 4.25 91.45 6.6 L91.65 6.3 Q92.0 5.8 92.45 6.15 L95.75 8.95 Q96.2 9.4 95.9 9.9 L93.0 14.55 Q92.65 15.1 92.2 14.65 L91.8 14.3 Q89.6 16.7 86.85 18.45 84.95 19.65 83.45 20.2 L83.2 20.6 83.8 22.25 81.0 23.3 M89.55 9.7 L91.55 11.35 Q92.65 11.4 93.3 10.5 L93.75 9.15 93.65 8.45 91.45 6.6 93.65 8.45 93.75 9.15 93.3 10.5 Q92.65 11.4 91.55 11.35 L89.55 9.7 M83.45 20.2 L83.75 18.8 Q83.75 17.55 82.85 16.65 L82.7 16.5 82.85 16.65 Q83.75 17.55 83.75 18.8 L83.45 20.2 M83.2 20.6 L82.85 20.95 Q82.0 21.85 80.7 21.85 L80.5 21.85 80.7 21.85 Q82.0 21.85 82.85 20.95 L83.2 20.6 M82.4 19.0 Q82.45 17.95 81.25 17.35 L79.7 17.45 Q79.3 17.7 79.05 18.0 79.3 17.7 79.7 17.45 L81.25 17.35 Q82.45 17.95 82.4 19.0 M90.2 14.4 Q88.35 16.25 84.5 18.3 88.35 16.25 90.2 14.4 M91.8 14.3 L89.1 12.05 91.8 14.3 M78.4 4.3 L78.7 4.0 Q79.4 3.35 79.4 2.35 79.4 1.4 78.7 0.7 L78.6 0.6 78.7 0.7 Q79.4 1.4 79.4 2.35 79.4 3.35 78.7 4.0 L78.4 4.3 M78.1 2.65 Q78.15 1.95 77.3 1.5 L76.25 1.6 75.8 1.95 76.25 1.6 77.3 1.5 Q78.15 1.95 78.1 2.65" fill="#bdbdbd" fill-rule="evenodd" stroke="none"/>
    <path d="M104.85 48.05 Q105.8 47.5 107.0 47.5 108.85 47.5 110.15 48.8 111.45 50.1 111.45 51.95 111.45 53.8 110.15 55.1 108.85 56.4 107.0 56.4 105.15 56.4 103.85 55.1 102.55 53.8 102.55 51.95 102.55 51.2 102.8 50.55 103.1 49.55 103.85 48.8 L103.95 48.75 104.6 48.2 104.85 48.05 M107.0 50.0 L106.65 50.05 106.35 50.15 Q105.95 50.25 105.65 50.6 L105.6 50.6 Q105.05 51.15 105.05 51.95 L105.25 52.8 105.6 53.35 Q106.2 53.9 107.0 53.9 107.8 53.9 108.35 53.35 108.95 52.75 108.95 51.95 108.95 51.15 108.35 50.6 107.8 50.0 107.0 50.0 107.8 50.0 108.35 50.6 108.95 51.15 108.95 51.95 108.95 52.75 108.35 53.35 107.8 53.9 107.0 53.9 106.2 53.9 105.6 53.35 L105.25 52.8 105.05 51.95 Q105.05 51.15 105.6 50.6 L105.65 50.6 Q105.95 50.25 106.35 50.15 L106.65 50.05 107.0 50.0 M25.4 50.45 L26.1 52.0 26.15 52.55 26.15 52.9 26.15 53.4 26.15 53.5 Q25.95 54.75 25.15 55.75 L24.85 56.05 Q23.55 57.35 21.7 57.35 19.85 57.35 18.55 56.05 17.25 54.75 17.25 52.9 17.25 51.05 18.55 49.75 19.85 48.45 21.7 48.45 23.1 48.45 24.2 49.2 L24.85 49.75 24.9 49.8 25.4 50.45 M21.55 51.05 Q20.9 51.1 20.45 51.6 19.9 52.15 19.9 52.9 19.9 53.65 20.45 54.2 20.95 54.75 21.7 54.75 22.5 54.75 23.0 54.2 23.55 53.65 23.55 52.9 L23.55 52.8 23.0 51.6 Q22.5 51.05 21.7 51.05 L21.55 51.05 21.7 51.05 Q22.5 51.05 23.0 51.6 L23.55 52.8 23.55 52.9 Q23.55 53.65 23.0 54.2 22.5 54.75 21.7 54.75 20.95 54.75 20.45 54.2 19.9 53.65 19.9 52.9 19.9 52.15 20.45 51.6 20.9 51.1 21.55 51.05" fill="#050202" fill-rule="evenodd" stroke="none"/>
    <path d="M30.25 59.65 Q30.85 59.2 31.65 59.2 32.75 59.2 33.55 60.0 L34.15 60.9 34.35 61.85 34.35 62.3 Q34.2 63.15 33.55 63.75 32.8 64.55 31.65 64.55 30.55 64.55 29.8 63.75 29.0 62.95 29.0 61.85 L29.05 61.55 Q29.1 60.65 29.8 60.0 L30.25 59.65" fill="#8f8f8f" fill-rule="evenodd" stroke="none"/>
    <path d="M27.8 55.95 L30.25 59.65 29.8 60.0 Q29.1 60.65 29.05 61.55 L26.5 57.75 25.15 55.75 Q25.95 54.75 26.15 53.5 L27.65 55.8 27.8 55.95" fill="#b0b0b0" fill-rule="evenodd" stroke="none"/>
    <path d="M89.95 31.6 Q94.35 28.3 100.55 26.75 108.75 24.75 116.1 26.1 L117.45 23.35 Q112.3 22.1 105.6 22.45 95.15 22.95 88.25 28.0 L88.3 28.15 88.25 28.65 87.8 29.0 87.65 29.1 89.95 31.6 104.85 48.05 Q105.8 47.5 107.0 47.5 108.85 47.5 110.15 48.8 111.45 50.1 111.45 51.95 111.45 53.8 110.15 55.1 108.85 56.4 107.0 56.4 105.15 56.4 103.85 55.1 102.55 53.8 102.55 51.95 102.55 51.2 102.8 50.55 L97.15 44.5 Q89.5 36.5 86.6 34.65 82.0 39.65 80.1 47.5 L76.5 47.45 77.6 43.5 69.15 52.75 71.6 52.8 71.1 56.5 27.85 55.8 27.65 55.8 26.15 53.5 Q25.95 54.75 25.15 55.75 L26.5 57.75 29.05 61.55 29.0 61.85 Q29.0 62.95 29.8 63.75 30.55 64.55 31.65 64.55 32.8 64.55 33.55 63.75 34.2 63.15 34.35 62.3 L34.35 61.85 34.15 60.9 33.55 60.0 Q32.75 59.2 31.65 59.2 30.85 59.2 30.25 59.65 L29.8 60.0 Q29.1 60.65 29.05 61.55 M27.8 55.95 L30.25 59.65 M30.25 45.95 L52.75 33.75 54.25 32.95 58.3 31.85 M44.05 29.75 L42.65 30.85 47.2 36.15 43.45 37.1 Q33.35 22.55 16.7 26.35 11.5 27.55 6.3 30.4 L2.1 33.05 0.0 30.6 Q1.05 29.8 2.9 28.7 6.55 26.45 10.5 24.95 23.0 20.15 33.05 24.45 37.65 26.35 40.8 29.0 L42.75 27.65 M87.45 29.15 L87.65 29.1 M86.55 29.5 L87.45 29.15 M104.6 48.2 L104.85 48.05 M80.95 30.65 L80.5 29.5 M81.5 31.2 L81.95 31.15 86.55 29.5 M103.95 48.75 L104.6 48.2 M80.95 30.65 L81.0 30.85 Q81.1 31.1 81.35 31.15 L81.5 31.2 M86.6 34.65 L86.05 34.3 77.6 43.5 M103.95 48.75 L103.85 48.8 Q103.1 49.55 102.8 50.55 M107.0 50.0 Q107.8 50.0 108.35 50.6 108.95 51.15 108.95 51.95 108.95 52.75 108.35 53.35 107.8 53.9 107.0 53.9 106.2 53.9 105.6 53.35 L105.25 52.8 105.05 51.95 Q105.05 51.15 105.6 50.6 L105.65 50.6 Q105.95 50.25 106.35 50.15 L106.65 50.05 107.0 50.0 M78.6 0.6 L78.7 0.7 Q79.4 1.4 79.4 2.35 79.4 3.35 78.7 4.0 L78.4 4.3 M25.4 50.45 L26.1 52.0 26.55 52.0 28.25 51.15 36.55 46.9 39.65 45.3 55.45 37.25 59.15 44.0 59.85 45.35 63.9 52.65 64.9 52.7 66.6 52.7 66.95 52.7 67.65 52.75 69.15 52.75 M40.8 29.0 L41.4 29.55 42.65 30.85 M64.65 43.65 L65.5 44.95 67.75 48.55 80.35 34.15 60.0 36.25 64.65 43.65 M25.15 55.75 L24.85 56.05 Q23.55 57.35 21.7 57.35 19.85 57.35 18.55 56.05 17.25 54.75 17.25 52.9 17.25 51.05 18.55 49.75 19.85 48.45 21.7 48.45 23.1 48.45 24.2 49.2 L26.4 48.05 27.3 47.55 30.25 45.95 M28.4 52.0 L63.9 52.65 M26.1 52.0 L26.15 52.55 26.15 52.9 26.15 53.4 26.15 53.5 M28.4 52.0 L26.55 52.0 M24.9 49.8 L24.85 49.75 24.2 49.2 M21.55 51.05 L21.7 51.05 Q22.5 51.05 23.0 51.6 L23.55 52.8 23.55 52.9 Q23.55 53.65 23.0 54.2 22.5 54.75 21.7 54.75 20.95 54.75 20.45 54.2 19.9 53.65 19.9 52.9 19.9 52.15 20.45 51.6 20.9 51.1 21.55 51.05 M27.8 55.95 L27.65 55.8 M25.4 50.45 L24.9 49.8" fill="none" stroke="#707070" stroke-linecap="butt" stroke-linejoin="round" stroke-width="0.7000000000000001"/>
    <path d="M52.75 33.75 L52.6 32.95 M52.25 31.4 L52.15 31.0 M57.95 30.35 L58.3 31.85" fill="none" stroke="#474747" stroke-linecap="butt" stroke-linejoin="miter-clip" stroke-miterlimit="4.0" stroke-width="0.7000000000000001"/>
    <path d="M52.15 31.0 L50.3 31.2 Q47.0 31.45 45.2 30.55 L44.05 29.75 Q43.15 28.9 42.75 27.65 42.45 26.7 42.45 25.55 42.45 22.0 44.65 20.95 46.25 20.15 49.05 21.45 52.65 23.15 53.35 23.2 L56.9 23.3 60.55 23.1 Q62.7 22.85 63.05 24.6 63.4 26.35 61.35 27.6 59.75 28.65 58.0 29.35 L57.8 29.4 Q54.95 30.45 52.4 30.95 L52.15 31.0" fill="none" stroke="#efc700" stroke-linecap="butt" stroke-linejoin="miter-clip" stroke-miterlimit="4.0" stroke-width="0.7000000000000001"/>
    <path d="M27.85 55.8 L27.8 55.95 M26.5 57.75 Q24.5 59.65 21.7 59.65 18.9 59.65 16.95 57.7 14.95 55.7 14.95 52.9 14.95 50.15 16.95 48.15 18.95 46.15 21.7 46.15 L24.15 46.6 Q25.1 46.95 25.95 47.65 L26.4 48.05 M28.25 51.15 L28.4 52.0" fill="none" stroke="#050202" stroke-linecap="butt" stroke-linejoin="round" stroke-width="0.7000000000000001"/>
    <path d="M84.5 18.3 Q88.35 16.25 90.2 14.4 M79.05 18.0 Q79.3 17.7 79.7 17.45 L81.25 17.35 Q82.45 17.95 82.4 19.0 M75.8 1.95 L76.25 1.6 77.3 1.5 Q78.15 1.95 78.1 2.65" fill="none" stroke="#fafafa" stroke-linecap="butt" stroke-linejoin="miter-clip" stroke-miterlimit="4.0" stroke-width="0.7000000000000001"/>
    <path d="M80.95 24.55 L85.05 23.35 86.7 28.35" fill="none" stroke="#e8e8e8" stroke-linecap="butt" stroke-linejoin="miter-clip" stroke-miterlimit="10.0" stroke-width="1.0"/>
    <path d="M58.3 31.85 L58.9 31.65 80.5 29.5 78.75 24.75 78.85 24.25 Q79.0 24.0 79.3 23.9 L81.0 23.3 80.5 21.85 Q79.35 21.75 78.55 20.95 77.65 20.1 77.65 18.8 77.65 17.55 78.55 16.65 79.45 15.75 80.7 15.75 81.85 15.75 82.7 16.5 L83.0 16.35 85.3 15.1 Q87.4 13.8 89.1 12.05 M82.7 16.5 L82.85 16.65 Q83.75 17.55 83.75 18.8 L83.45 20.2 M80.5 21.85 L80.7 21.85 Q82.0 21.85 82.85 20.95 L83.2 20.6" fill="none" stroke="#707070" stroke-linecap="butt" stroke-linejoin="round" stroke-width="0.7000000000000001"/>
    <path d="M89.1 12.05 L88.9 11.85 Q88.4 11.5 88.75 10.95 L89.55 9.7 86.15 7.55 Q82.85 5.6 81.05 4.95 L78.6 4.3 78.4 4.3 Q77.85 4.7 77.05 4.7 76.1 4.7 75.45 4.0 74.75 3.3 74.75 2.35 74.75 1.4 75.45 0.7 76.1 0.0 77.05 0.0 78.0 0.0 78.6 0.6 L83.7 2.35 Q88.3 4.25 91.45 6.6 L91.65 6.3 Q92.0 5.8 92.45 6.15 L95.75 8.95 Q96.2 9.4 95.9 9.9 L93.0 14.55 Q92.65 15.1 92.2 14.65 L91.8 14.3 Q89.6 16.7 86.85 18.45 84.95 19.65 83.45 20.2 L83.2 20.6 83.8 22.25 M91.45 6.6 L93.65 8.45 93.75 9.15 93.3 10.5 Q92.65 11.4 91.55 11.35 L89.55 9.7 M89.1 12.05 L91.8 14.3" fill="none" stroke="#707070" stroke-linecap="round" stroke-linejoin="round" stroke-width="0.7000000000000001"/>
    <path d="M83.8 22.25 L85.1 21.75 Q85.85 21.5 86.1 22.05 L88.25 28.0 M83.8 22.25 L81.0 23.3" fill="none" stroke="#707070" stroke-linecap="round" stroke-linejoin="round" stroke-width="0.7000000000000001"/>
  </g>
</svg>
