<?xml version="1.0" encoding="UTF-8" standalone="no"?>
<svg xmlns:ffdec="https://www.free-decompiler.com/flash" xmlns:xlink="http://www.w3.org/1999/xlink" ffdec:objectType="shape" height="24.9px" width="24.95px" xmlns="http://www.w3.org/2000/svg">
  <g transform="matrix(1.0, 0.0, 0.0, 1.0, 0.35, 0.35)">
    <path d="M7.35 18.95 Q9.35 20.9 12.1 20.9 14.9 20.9 16.85 18.95 L12.1 14.2 7.35 18.95 M5.25 16.85 L10.0 12.1 5.25 7.35 Q3.3 9.35 3.3 12.1 3.3 14.85 5.25 16.85 M18.95 16.85 Q20.9 14.85 20.9 12.1 20.9 9.35 18.95 7.35 L14.2 12.1 18.95 16.85 M3.55 3.55 Q7.1 0.0 12.1 0.0 17.15 0.0 20.7 3.55 24.25 7.1 24.25 12.1 24.25 17.15 20.7 20.65 17.15 24.2 12.1 24.2 7.1 24.2 3.55 20.65 0.0 17.15 0.0 12.1 0.0 7.1 3.55 3.55 M16.85 5.25 Q14.85 3.3 12.1 3.3 9.35 3.3 7.4 5.25 L12.1 10.0 16.85 5.25" fill="#b0b0b0" fill-rule="evenodd" stroke="none"/>
    <path d="M16.85 5.25 L12.1 10.0 7.4 5.25 Q9.35 3.3 12.1 3.3 14.85 3.3 16.85 5.25 M3.55 3.55 Q0.0 7.1 0.0 12.1 0.0 17.15 3.55 20.65 7.1 24.2 12.1 24.2 17.15 24.2 20.7 20.65 24.25 17.15 24.25 12.1 24.25 7.1 20.7 3.55 17.15 0.0 12.1 0.0 7.1 0.0 3.55 3.55 M18.95 16.85 L14.2 12.1 18.95 7.35 Q20.9 9.35 20.9 12.1 20.9 14.85 18.95 16.85 M5.25 16.85 Q3.3 14.85 3.3 12.1 3.3 9.35 5.25 7.35 L10.0 12.1 5.25 16.85 M7.35 18.95 L12.1 14.2 16.85 18.95 Q14.9 20.9 12.1 20.9 9.35 20.9 7.35 18.95 Z" fill="none" stroke="#707070" stroke-linecap="butt" stroke-linejoin="round" stroke-width="0.7000000000000001"/>
    <path d="M11.65 1.7 L11.8 1.3 Q11.95 1.15 12.15 1.15 L12.55 1.3 12.75 1.65 12.55 2.05 12.15 2.2 11.8 2.05 11.65 1.7" fill="#8a8a8a" fill-rule="evenodd" stroke="none"/>
    <path d="M11.65 1.7 L11.8 2.05 12.15 2.2 12.55 2.05 12.75 1.65 12.55 1.3 12.15 1.15 Q11.95 1.15 11.8 1.3 L11.65 1.7 Z" fill="none" stroke="#474747" stroke-linecap="round" stroke-linejoin="round" stroke-width="1.0"/>
  </g>
</svg>
