<?xml version="1.0" encoding="UTF-8" standalone="no"?>
<svg xmlns:ffdec="https://www.free-decompiler.com/flash" xmlns:xlink="http://www.w3.org/1999/xlink" ffdec:objectType="shape" height="11.9px" width="6.85px" xmlns="http://www.w3.org/2000/svg">
  <g transform="matrix(1.0, 0.0, 0.0, 1.0, 0.35, 0.35)">
    <path d="M4.65 0.1 Q5.1 -0.1 5.5 0.1 L6.1 0.7 6.05 1.55 2.1 10.55 1.5 11.15 0.65 11.15 0.1 10.55 Q-0.1 10.1 0.1 9.7 L4.05 0.65 4.65 0.1" fill="#999999" fill-rule="evenodd" stroke="none"/>
    <path d="M4.65 0.1 Q5.1 -0.1 5.5 0.1 L6.1 0.7 6.05 1.55 2.1 10.55 1.5 11.15 0.65 11.15 0.1 10.55 Q-0.1 10.1 0.1 9.7 L4.05 0.65 4.65 0.1 Z" fill="none" stroke="#666666" stroke-linecap="butt" stroke-linejoin="round" stroke-width="0.7000000000000001"/>
  </g>
</svg>
