<?xml version="1.0" encoding="UTF-8" standalone="no"?>
<svg xmlns:ffdec="https://www.free-decompiler.com/flash" xmlns:xlink="http://www.w3.org/1999/xlink" ffdec:objectType="shape" height="53.15px" width="53.15px" xmlns="http://www.w3.org/2000/svg">
  <g transform="matrix(1.0, 0.0, 0.0, 1.0, 0.15, -0.05)">
    <path d="M26.45 26.6 L26.45 49.1" fill="none" stroke="#000000" stroke-linecap="butt" stroke-linejoin="round" stroke-width="0.7000000000000001"/>
    <path d="M26.45 26.6 L36.9 46.55" fill="none" stroke="#000000" stroke-linecap="butt" stroke-linejoin="round" stroke-width="0.7000000000000001"/>
    <path d="M26.45 26.6 L44.95 39.4" fill="none" stroke="#000000" stroke-linecap="butt" stroke-linejoin="round" stroke-width="0.7000000000000001"/>
    <path d="M26.45 26.6 L48.75 29.3" fill="none" stroke="#000000" stroke-linecap="butt" stroke-linejoin="round" stroke-width="0.7000000000000001"/>
    <path d="M26.45 26.6 L47.5 18.65" fill="none" stroke="#000000" stroke-linecap="butt" stroke-linejoin="round" stroke-width="0.7000000000000001"/>
    <path d="M26.45 26.6 L41.35 9.8" fill="none" stroke="#000000" stroke-linecap="butt" stroke-linejoin="round" stroke-width="0.7000000000000001"/>
    <path d="M26.45 26.6 L31.8 4.8" fill="none" stroke="#000000" stroke-linecap="butt" stroke-linejoin="round" stroke-width="0.7000000000000001"/>
    <path d="M26.45 26.6 L21.05 4.8" fill="none" stroke="#000000" stroke-linecap="butt" stroke-linejoin="round" stroke-width="0.7000000000000001"/>
    <path d="M26.45 26.6 L11.5 9.8" fill="none" stroke="#000000" stroke-linecap="butt" stroke-linejoin="round" stroke-width="0.7000000000000001"/>
    <path d="M26.45 26.6 L5.4 18.65" fill="none" stroke="#000000" stroke-linecap="butt" stroke-linejoin="round" stroke-width="0.7000000000000001"/>
    <path d="M26.45 26.6 L4.1 29.3" fill="none" stroke="#000000" stroke-linecap="butt" stroke-linejoin="round" stroke-width="0.7000000000000001"/>
    <path d="M26.45 26.6 L7.9 39.4" fill="none" stroke="#000000" stroke-linecap="butt" stroke-linejoin="round" stroke-width="0.7000000000000001"/>
    <path d="M26.45 26.6 L16.0 46.55" fill="none" stroke="#000000" stroke-linecap="butt" stroke-linejoin="round" stroke-width="0.7000000000000001"/>
    <path d="M45.95 26.6 Q45.95 18.5 40.25 12.8 34.55 7.1 26.45 7.1 22.45 7.1 18.85 8.6 15.3 10.1 12.6 12.8 6.9 18.6 6.9 26.6 6.9 30.55 8.45 34.2 9.9 37.75 12.6 40.45 15.3 43.15 18.85 44.6 22.5 46.15 26.45 46.15 34.45 46.15 40.25 40.45 42.95 37.75 44.45 34.2 45.95 30.6 45.95 26.6 M42.55 42.75 Q35.85 49.4 26.45 49.4 17.0 49.4 10.35 42.75 3.65 36.05 3.65 26.6 3.65 17.2 10.35 10.5 17.0 3.85 26.45 3.85 35.85 3.85 42.55 10.5 49.2 17.2 49.2 26.6 49.2 36.05 42.55 42.75" fill="#9c0000" fill-rule="evenodd" stroke="none"/>
    <path d="M45.95 26.6 Q45.95 18.5 40.25 12.8 34.55 7.1 26.45 7.1 22.45 7.1 18.85 8.6 15.3 10.1 12.6 12.8 6.9 18.6 6.9 26.6 6.9 30.55 8.45 34.2 9.9 37.75 12.6 40.45 15.3 43.15 18.85 44.6 22.5 46.15 26.45 46.15 34.45 46.15 40.25 40.45 42.95 37.75 44.45 34.2 45.95 30.6 45.95 26.6 M42.55 42.75 Q35.85 49.4 26.45 49.4 17.0 49.4 10.35 42.75 3.65 36.05 3.65 26.6 3.65 17.2 10.35 10.5 17.0 3.85 26.45 3.85 35.85 3.85 42.55 10.5 49.2 17.2 49.2 26.6 49.2 36.05 42.55 42.75 Z" fill="none" stroke="#8f0000" stroke-linecap="butt" stroke-linejoin="miter-clip" stroke-miterlimit="4.0" stroke-width="0.7000000000000001"/>
    <path d="M42.15 10.95 Q39.05 7.85 35.05 6.2 30.95 4.45 26.45 4.45 21.9 4.45 17.8 6.2 13.8 7.85 10.75 10.95 7.7 14.0 6.0 18.0 4.25 22.1 4.25 26.6 4.25 31.15 6.0 35.25 7.7 39.25 10.75 42.3 13.8 45.4 17.8 47.05 21.9 48.8 26.45 48.8 30.95 48.8 35.05 47.05 39.05 45.4 42.15 42.3 45.2 39.25 46.9 35.25 48.65 31.15 48.65 26.6 48.65 22.1 46.9 18.0 45.2 14.0 42.15 10.95 M44.75 44.9 Q37.15 52.5 26.45 52.5 15.75 52.5 8.15 44.9 0.55 37.35 0.55 26.6 0.55 15.9 8.15 8.35 15.75 0.75 26.45 0.75 37.15 0.75 44.75 8.35 52.3 15.9 52.3 26.6 52.3 37.35 44.75 44.9" fill="#b50000" fill-rule="evenodd" stroke="none"/>
    <path d="M42.15 10.95 Q39.05 7.85 35.05 6.2 30.95 4.45 26.45 4.45 21.9 4.45 17.8 6.2 13.8 7.85 10.75 10.95 7.7 14.0 6.0 18.0 4.25 22.1 4.25 26.6 4.25 31.15 6.0 35.25 7.7 39.25 10.75 42.3 13.8 45.4 17.8 47.05 21.9 48.8 26.45 48.8 30.95 48.8 35.05 47.05 39.05 45.4 42.15 42.3 45.2 39.25 46.9 35.25 48.65 31.15 48.65 26.6 48.65 22.1 46.9 18.0 45.2 14.0 42.15 10.95 M44.75 44.9 Q37.15 52.5 26.45 52.5 15.75 52.5 8.15 44.9 0.55 37.35 0.55 26.6 0.55 15.9 8.15 8.35 15.75 0.75 26.45 0.75 37.15 0.75 44.75 8.35 52.3 15.9 52.3 26.6 52.3 37.35 44.75 44.9 Z" fill="none" stroke="#d40000" stroke-linecap="butt" stroke-linejoin="miter-clip" stroke-miterlimit="4.0" stroke-width="0.7000000000000001"/>
    <path d="M44.75 44.9 Q52.3 37.35 52.3 26.6 52.3 15.9 44.75 8.35 37.15 0.75 26.45 0.75 15.75 0.75 8.15 8.35 0.55 15.9 0.55 26.6 0.55 37.35 8.15 44.9 15.75 52.5 26.45 52.5 37.15 52.5 44.75 44.9 M45.95 26.6 Q45.95 30.6 44.45 34.2 42.95 37.75 40.25 40.45 34.45 46.15 26.45 46.15 22.5 46.15 18.85 44.6 15.3 43.15 12.6 40.45 9.9 37.75 8.45 34.2 6.9 30.55 6.9 26.6 6.9 18.6 12.6 12.8 15.3 10.1 18.85 8.6 22.45 7.1 26.45 7.1 34.55 7.1 40.25 12.8 45.95 18.5 45.95 26.6 M45.2 7.85 Q53.0 15.6 53.0 26.6 53.0 37.6 45.2 45.4 37.45 53.2 26.45 53.2 15.45 53.2 7.65 45.4 -0.15 37.6 -0.15 26.6 -0.15 15.6 7.65 7.85 15.45 0.05 26.45 0.05 37.45 0.05 45.2 7.85 M45.25 26.6 Q45.25 22.85 43.85 19.4 42.4 15.95 39.75 13.3 37.1 10.65 33.65 9.2 30.2 7.8 26.45 7.8 18.65 7.8 13.15 13.3 10.45 15.95 9.05 19.4 7.6 22.85 7.6 26.6 7.6 34.4 13.15 39.95 18.65 45.45 26.45 45.45 30.2 45.45 33.65 44.05 37.1 42.6 39.75 39.95 45.25 34.35 45.25 26.6" fill="#ad0000" fill-rule="evenodd" stroke="none"/>
    <path d="M44.05 8.15 Q51.4 15.15 51.9 25.3 L50.6 28.1 50.65 26.6 Q50.65 21.7 48.75 17.2 46.9 12.85 43.55 9.5 40.2 6.15 35.85 4.3 31.35 2.4 26.45 2.4 21.5 2.4 17.0 4.3 12.65 6.15 9.3 9.5 5.95 12.9 4.1 17.2 2.2 21.7 2.2 26.6 L2.3 28.6 0.95 25.85 Q1.25 15.5 8.65 8.3 16.1 1.1 26.45 1.1 36.65 1.1 44.05 8.15" fill="#e89b9b" fill-rule="evenodd" stroke="none"/>
    <path d="M50.6 28.1 L51.9 25.3 51.95 26.6 Q51.95 37.2 44.5 44.65 37.0 52.15 26.45 52.15 15.9 52.15 8.4 44.65 0.9 37.2 0.9 26.6 L0.95 25.85 2.3 28.6 Q3.05 37.5 9.3 43.75 12.7 47.1 17.0 48.95 21.55 50.85 26.45 50.85 31.35 50.85 35.85 48.95 40.15 47.1 43.55 43.75 46.65 40.65 48.45 36.7 50.35 32.6 50.6 28.1" fill="#e80000" fill-rule="evenodd" stroke="none"/>
    <path d="M28.85 11.15 Q30.8 11.6 33.05 12.6 37.65 14.55 39.35 17.15 L38.25 18.55 34.7 17.7 Q30.65 16.2 28.1 13.15 L28.85 11.15" fill="#e6e6e6" fill-opacity="0.8" fill-rule="evenodd" stroke="none"/>
    <path d="M28.85 11.15 Q30.8 11.6 33.05 12.6 37.65 14.55 39.35 17.15 L38.25 18.55 34.7 17.7 Q30.65 16.2 28.1 13.15 L28.85 11.15 Z" fill="none" stroke="#ffffff" stroke-linecap="round" stroke-linejoin="round" stroke-width="1.0"/>
  </g>
</svg>
