<?xml version="1.0" encoding="UTF-8" standalone="no"?>
<svg xmlns:ffdec="https://www.free-decompiler.com/flash" xmlns:xlink="http://www.w3.org/1999/xlink" ffdec:objectType="shape" height="111.85px" width="120.8px" xmlns="http://www.w3.org/2000/svg">
  <g transform="matrix(1.0, 0.0, 0.0, 1.0, 2.65, 46.9)">
    <path d="M14.0 -2.5 Q8.8 -0.6 7.8 -0.8" fill="none" stroke="#231f20" stroke-linecap="butt" stroke-linejoin="miter-clip" stroke-miterlimit="10.0" stroke-width="1.0"/>
    <path d="M10.35 -41.75 Q5.15 -39.85 4.15 -40.05" fill="none" stroke="#231f20" stroke-linecap="butt" stroke-linejoin="miter-clip" stroke-miterlimit="10.0" stroke-width="1.0"/>
    <path d="M3.55 -39.85 L3.1 -39.2 2.3 -39.05 Q1.85 -39.15 1.6 -39.5 1.4 -39.9 1.5 -40.3 L1.95 -40.95 2.75 -41.1 3.4 -40.65 3.55 -39.85" fill="#000000" fill-rule="evenodd" stroke="none"/>
    <path d="M3.55 -39.85 L3.1 -39.2 2.3 -39.05 Q1.85 -39.15 1.6 -39.5 1.4 -39.9 1.5 -40.3 L1.95 -40.95 2.75 -41.1 3.4 -40.65 3.55 -39.85 Z" fill="none" stroke="#231f20" stroke-linecap="butt" stroke-linejoin="miter-clip" stroke-miterlimit="10.0" stroke-width="1.0"/>
    <path d="M6.15 -1.35 Q6.1 -0.95 5.7 -0.7 5.35 -0.45 4.9 -0.55 L4.25 -1.0 4.1 -1.8 Q4.2 -2.25 4.6 -2.5 L5.35 -2.6 6.05 -2.15 6.15 -1.35" fill="#000000" fill-rule="evenodd" stroke="none"/>
    <path d="M6.15 -1.35 Q6.1 -0.95 5.7 -0.7 5.35 -0.45 4.9 -0.55 L4.25 -1.0 4.1 -1.8 Q4.2 -2.25 4.6 -2.5 L5.35 -2.6 6.05 -2.15 6.15 -1.35 Z" fill="none" stroke="#231f20" stroke-linecap="butt" stroke-linejoin="miter-clip" stroke-miterlimit="10.0" stroke-width="1.0"/>
    <path d="M2.5 -41.1 L5.25 -42.85 Q8.45 -44.5 10.8 -43.95" fill="none" stroke="#231f20" stroke-linecap="butt" stroke-linejoin="miter-clip" stroke-miterlimit="10.0" stroke-width="1.0"/>
    <path d="M5.15 -1.85 L7.6 -3.7 Q10.45 -5.4 12.5 -4.95" fill="none" stroke="#231f20" stroke-linecap="butt" stroke-linejoin="miter-clip" stroke-miterlimit="10.0" stroke-width="1.0"/>
    <path d="M9.7 -46.15 Q10.15 -46.6 10.75 -46.6 11.4 -46.6 11.8 -46.15 L12.25 -45.1 13.25 -22.5 Q14.9 2.75 18.45 17.4 22.85 17.1 26.8 18.05 33.35 19.6 35.05 24.3 L35.0 25.4 34.15 26.2 33.6 26.3 Q32.6 26.3 32.2 25.3 30.9 21.6 24.4 20.65 L18.1 20.4 Q17.5 20.5 17.0 20.05 16.0 19.95 15.75 18.95 12.0 4.15 10.25 -21.8 L9.25 -45.1 Q9.25 -45.7 9.7 -46.15" fill="#eb3939" fill-rule="evenodd" stroke="none"/>
    <path d="M9.7 -46.15 Q9.25 -45.7 9.25 -45.1 L10.25 -21.8 Q12.0 4.15 15.75 18.95 16.0 19.95 17.0 20.05 17.5 20.5 18.1 20.4 L24.4 20.65 Q30.9 21.6 32.2 25.3 32.6 26.3 33.6 26.3 L34.15 26.2 35.0 25.4 35.05 24.3 Q33.35 19.6 26.8 18.05 22.85 17.1 18.45 17.4 14.9 2.75 13.25 -22.5 L12.25 -45.1 11.8 -46.15 Q11.4 -46.6 10.75 -46.6 10.15 -46.6 9.7 -46.15 Z" fill="none" stroke="#941313" stroke-linecap="round" stroke-linejoin="round" stroke-width="0.65"/>
    <path d="M11.15 -44.8 L12.65 -18.75 Q14.8 9.15 17.9 18.5 L19.85 18.4 24.4 18.7 Q31.3 19.85 33.5 24.45" fill="none" stroke="#ffa1a1" stroke-linecap="round" stroke-linejoin="round" stroke-width="1.0"/>
    <path d="M78.0 2.75 L77.95 2.35 Q77.8 1.85 77.25 1.6 L76.15 1.7 Q75.85 1.85 75.7 2.05 75.85 1.85 76.15 1.7 L77.25 1.6 Q77.8 1.85 77.95 2.35 L78.0 2.75 M60.75 31.55 L80.4 29.55 78.65 24.85 Q78.5 24.3 79.2 23.95 L80.9 23.35 80.4 21.95 Q79.25 21.85 78.45 21.05 77.55 20.15 77.55 18.9 77.55 17.65 78.45 16.75 79.35 15.85 80.6 15.85 81.45 15.85 82.1 16.25 L84.45 15.2 88.85 12.15 88.6 11.95 88.35 11.5 88.45 11.05 89.4 9.8 85.45 7.6 Q81.55 5.65 79.5 5.05 L77.8 4.6 77.0 4.75 Q76.05 4.75 75.35 4.05 74.65 3.4 74.65 2.45 74.65 1.5 75.35 0.8 76.05 0.1 77.0 0.1 77.95 0.1 78.6 0.8 L78.95 1.25 82.6 2.45 Q87.9 4.35 91.6 6.7 L91.85 6.35 92.8 6.25 96.6 9.05 96.9 9.5 96.8 9.95 93.4 14.65 92.45 14.75 91.95 14.4 Q89.4 16.75 86.25 18.5 L83.5 19.85 83.1 20.65 83.7 22.35 85.0 21.85 Q85.75 21.6 86.0 22.15 L88.2 28.05 Q95.1 22.95 105.75 22.05 110.0 21.7 114.3 22.05 L117.8 22.5 117.15 24.0 111.8 23.65 Q105.35 23.65 99.7 25.1 93.15 26.8 88.55 30.25 L104.75 48.15 Q105.7 47.6 106.9 47.6 108.75 47.6 110.05 48.9 111.35 50.2 111.35 52.05 111.35 53.9 110.05 55.2 108.75 56.5 106.9 56.5 105.05 56.5 103.75 55.2 102.45 53.9 102.45 52.05 102.45 51.1 102.8 50.35 L90.2 40.2 Q89.2 38.6 87.8 37.4 85.05 34.9 83.1 36.7 L81.5 38.55 Q79.35 42.6 78.45 47.75 L76.4 47.55 77.85 42.75 69.0 52.85 71.5 52.9 71.0 56.6 27.8 55.85 27.6 55.85 26.05 53.55 26.05 53.5 26.05 53.55 Q25.9 54.85 25.05 55.85 L24.75 56.15 Q23.45 57.45 21.6 57.45 19.75 57.45 18.5 56.15 17.2 54.85 17.2 53.0 17.2 51.15 18.5 49.85 19.75 48.55 21.6 48.55 23.0 48.55 24.1 49.3 L26.3 48.1 27.15 47.65 30.25 46.0 52.35 34.0 54.15 33.0 56.9 32.3 58.85 31.75 60.75 31.55 M43.9 29.85 L42.6 30.85 47.1 36.2 45.3 37.2 Q35.25 22.0 16.8 24.9 7.55 26.4 0.35 30.9 L-0.85 29.8 Q3.6 26.75 10.0 24.55 22.9 20.15 32.95 24.45 37.55 26.4 40.75 29.1 L42.65 27.75 Q43.0 29.0 43.9 29.85 M77.8 4.6 L78.6 4.05 Q79.3 3.4 79.3 2.45 79.3 1.8 78.95 1.25 79.3 1.8 79.3 2.45 79.3 3.4 78.6 4.05 L77.8 4.6 M42.6 30.85 L41.3 29.6 40.75 29.1 41.3 29.6 42.6 30.85 M25.3 50.55 L54.6 34.95 53.9 34.35 24.75 49.85 24.1 49.3 24.75 49.85 25.3 50.55 Q25.8 51.25 25.95 52.1 L26.4 52.1 25.95 52.1 Q25.8 51.25 25.3 50.55 M28.2 51.2 L26.4 52.1 28.35 52.15 47.65 52.6 26.05 52.6 26.05 53.0 26.05 53.5 66.75 53.65 66.85 52.85 67.55 52.85 58.95 36.85 58.05 37.05 66.55 52.8 65.0 52.8 63.8 52.8 59.75 45.45 59.0 44.05 55.35 37.35 39.65 45.35 36.35 47.05 28.2 51.2 M69.0 52.85 L67.55 52.85 69.0 52.85 M80.85 30.75 L59.4 32.6 59.45 33.35 81.4 31.45 81.4 31.35 80.9 30.9 80.85 30.75 80.4 29.55 80.85 30.75 M64.55 43.7 L65.45 45.05 67.7 48.65 80.25 34.25 60.3 36.3 59.9 36.35 60.75 37.65 64.55 43.7 M82.3 19.1 L82.2 18.5 Q81.95 17.85 81.15 17.45 L79.6 17.55 Q79.2 17.75 78.95 18.05 79.2 17.75 79.6 17.55 L81.15 17.45 Q81.95 17.85 82.2 18.5 L82.3 19.1 M88.85 12.15 L91.95 14.4 88.85 12.15 M91.6 6.7 L94.15 8.55 94.3 9.25 Q94.3 10.05 93.8 10.6 93.0 11.5 91.75 11.45 90.85 10.65 89.4 9.8 90.85 10.65 91.75 11.45 93.0 11.5 93.8 10.6 94.3 10.05 94.3 9.25 L94.15 8.55 91.6 6.7 M83.5 19.85 L83.65 18.9 Q83.65 17.65 82.75 16.75 L82.1 16.25 82.75 16.75 Q83.65 17.65 83.65 18.9 L83.5 19.85 M89.35 13.3 Q87.5 15.1 83.65 16.85 87.5 15.1 89.35 13.3 M88.55 30.25 L87.6 29.15 87.7 29.1 Q88.45 28.85 88.25 28.2 L88.2 28.05 88.25 28.2 Q88.45 28.85 87.7 29.1 L87.6 29.15 88.55 30.25 M81.4 31.35 L81.9 31.25 86.5 29.55 81.9 31.25 81.4 31.35 M83.7 22.35 L80.9 23.35 83.7 22.35 M80.4 21.95 L80.6 21.95 Q81.85 21.95 82.75 21.05 L83.1 20.65 82.75 21.05 Q81.85 21.95 80.6 21.95 L80.4 21.95 M87.35 29.25 L86.5 29.55 103.9 48.8 104.55 48.3 87.35 29.25 87.6 29.15 87.35 29.25 M82.8 34.7 L82.1 34.1 68.3 49.95 69.0 50.55 82.8 34.7 M103.9 48.8 L103.75 48.9 Q103.1 49.55 102.8 50.35 103.1 49.55 103.75 48.9 L103.9 48.8 M104.75 48.15 L104.55 48.3 104.75 48.15 M106.9 50.1 L106.55 50.15 106.3 50.2 Q105.9 50.3 105.55 50.65 L105.5 50.65 105.0 51.55 104.95 52.05 Q104.95 52.85 105.5 53.4 106.1 54.0 106.9 54.0 107.7 54.0 108.3 53.4 108.85 52.85 108.85 52.05 108.85 51.25 108.3 50.65 107.75 50.1 106.9 50.1 107.75 50.1 108.3 50.65 108.85 51.25 108.85 52.05 108.85 52.85 108.3 53.4 107.7 54.0 106.9 54.0 106.1 54.0 105.5 53.4 104.95 52.85 104.95 52.05 L105.0 51.55 105.5 50.65 105.55 50.65 Q105.9 50.3 106.3 50.2 L106.55 50.15 106.9 50.1 M77.85 42.75 L81.5 38.55 77.85 42.75 M21.6 54.8 Q22.4 54.8 22.9 54.3 23.45 53.75 23.45 53.0 L23.45 52.8 22.9 51.7 Q22.4 51.15 21.6 51.15 L21.55 51.15 Q20.85 51.15 20.35 51.7 19.8 52.2 19.8 53.0 19.8 53.75 20.35 54.3 20.85 54.8 21.6 54.8 20.85 54.8 20.35 54.3 19.8 53.75 19.8 53.0 19.8 52.2 20.35 51.7 20.85 51.15 21.55 51.15 L21.6 51.15 Q22.4 51.15 22.9 51.7 L23.45 52.8 23.45 53.0 Q23.45 53.75 22.9 54.3 22.4 54.8 21.6 54.8 M25.95 52.1 L26.0 52.3 26.05 52.6 26.0 52.3 25.95 52.1" fill="#050202" fill-rule="evenodd" stroke="none"/>
    <path d="M57.1 25.2 L54.5 25.4 51.9 25.4 Q50.4 25.25 48.25 23.85 46.4 22.75 45.75 22.85 L45.45 22.9 Q44.7 22.8 44.05 23.45 L44.0 23.45 43.35 24.05 43.5 23.4 Q43.75 22.3 44.5 21.85 45.05 21.45 45.6 21.4 L47.2 21.75 48.7 22.6 Q50.7 23.85 51.95 24.0 L56.95 23.75 Q60.2 23.55 61.3 24.3 L62.2 25.3 60.2 25.25 60.15 25.25 57.1 25.2" fill="#e89b9b" fill-rule="evenodd" stroke="none"/>
    <path d="M51.8 31.2 L50.25 31.4 Q46.95 31.65 45.15 30.75 L43.9 29.85 Q43.0 29.0 42.65 27.75 42.4 26.85 42.4 25.75 42.35 22.2 44.55 21.15 46.2 20.35 49.0 21.65 52.55 23.35 53.25 23.4 54.6 23.55 60.5 23.3 62.6 23.05 62.95 24.8 63.3 26.6 61.3 27.8 L59.95 28.65 57.7 29.65 56.0 30.25 51.8 31.2 M57.1 25.2 L60.15 25.25 60.2 25.25 62.2 25.3 61.3 24.3 Q60.2 23.55 56.95 23.75 L51.95 24.0 Q50.7 23.85 48.7 22.6 L47.2 21.75 45.6 21.4 Q45.05 21.45 44.5 21.85 43.75 22.3 43.5 23.4 L43.35 24.05 44.0 23.45 44.05 23.45 Q44.7 22.8 45.45 22.9 L45.75 22.85 Q46.4 22.75 48.25 23.85 50.4 25.25 51.9 25.4 L54.5 25.4 57.1 25.2" fill="#b50000" fill-rule="evenodd" stroke="none"/>
    <path d="M52.35 34.0 Q51.75 33.3 51.65 32.35 51.6 31.75 51.8 31.2 L56.0 30.25 57.7 29.65 59.95 28.65 60.7 31.4 60.75 31.55 58.85 31.75 56.9 32.3 54.15 33.0 52.35 34.0 M56.9 32.3 L56.85 32.0 Q56.8 30.9 56.0 30.25 56.8 30.9 56.85 32.0 L56.9 32.3 M60.3 36.3 L60.75 37.65 59.9 36.35 60.3 36.3" fill="#8a4552" fill-rule="evenodd" stroke="none"/>
    <path d="M24.75 49.85 L53.9 34.35 54.6 34.95 25.3 50.55 24.75 49.85 M63.8 52.8 L65.0 52.8 66.55 52.8 58.05 37.05 58.95 36.85 67.55 52.85 66.85 52.85 66.75 53.65 26.05 53.5 26.05 53.0 26.05 52.6 47.65 52.6 63.8 52.8 M81.4 31.35 L81.4 31.45 59.45 33.35 59.4 32.6 80.85 30.75 80.9 30.9 81.4 31.35 M86.5 29.55 L87.35 29.25 104.55 48.3 103.9 48.8 86.5 29.55 M82.8 34.7 L69.0 50.55 68.3 49.95 82.1 34.1 82.8 34.7" fill="#9c9c9c" fill-rule="evenodd" stroke="none"/>
    <path d="M34.05 60.95 L68.85 61.6 68.85 63.0 34.25 62.4 34.25 61.95 34.05 60.95 M24.05 46.7 L24.05 46.4 30.25 46.0 27.15 47.65 25.9 47.75 Q25.0 47.05 24.05 46.7 M36.35 47.05 L39.65 45.35 59.0 44.05 59.75 45.45 36.35 47.05 M64.55 43.7 L66.35 43.55 66.3 45.0 65.45 45.05 64.55 43.7" fill="#6b0000" fill-rule="evenodd" stroke="none"/>
    <path d="M27.8 55.85 L27.7 56.05 27.6 55.85 27.8 55.85 M26.4 57.8 Q24.4 59.75 21.6 59.75 18.85 59.75 16.85 57.75 14.85 55.8 14.85 53.0 14.85 50.2 16.85 48.2 18.8 46.25 21.6 46.25 22.9 46.25 24.05 46.7 25.0 47.05 25.9 47.75 L26.3 48.1 24.1 49.3 Q23.0 48.55 21.6 48.55 19.75 48.55 18.5 49.85 17.2 51.15 17.2 53.0 17.2 54.85 18.5 56.15 19.75 57.45 21.6 57.45 23.45 57.45 24.75 56.15 L25.05 55.85 26.4 57.8 M26.4 52.1 L28.2 51.2 28.35 52.15 26.4 52.1" fill="#c4c4c4" fill-rule="evenodd" stroke="none"/>
    <path d="M27.7 56.05 L30.2 59.7 Q30.8 59.3 31.55 59.3 32.65 59.3 33.45 60.1 L34.05 60.95 34.25 61.95 34.25 62.4 33.45 63.85 Q32.7 64.6 31.55 64.6 30.45 64.6 29.7 63.85 28.9 63.05 28.9 61.95 L28.95 61.6 26.4 57.8 25.05 55.85 Q25.9 54.85 26.05 53.55 L27.6 55.85 27.7 56.05 M28.95 61.6 Q29.05 60.7 29.7 60.1 29.9 59.85 30.2 59.7 29.9 59.85 29.7 60.1 29.05 60.7 28.95 61.6" fill="#536e69" fill-rule="evenodd" stroke="none"/>
    <path d="M75.7 2.05 Q75.85 1.85 76.15 1.7 L77.25 1.6 Q77.8 1.85 77.95 2.35 L78.0 2.75 M78.95 18.05 Q79.2 17.75 79.6 17.55 L81.15 17.45 Q81.95 17.85 82.2 18.5 L82.3 19.1 M83.65 16.85 Q87.5 15.1 89.35 13.3" fill="none" stroke="#9c9c9c" stroke-linecap="butt" stroke-linejoin="miter-clip" stroke-miterlimit="4.0" stroke-width="0.7000000000000001"/>
    <path d="M60.75 31.55 L80.4 29.55 78.65 24.85 Q78.5 24.3 79.2 23.95 L80.9 23.35 80.4 21.95 Q79.25 21.85 78.45 21.05 77.55 20.15 77.55 18.9 77.55 17.65 78.45 16.75 79.35 15.85 80.6 15.85 81.45 15.85 82.1 16.25 L84.45 15.2 88.85 12.15 88.6 11.95 88.35 11.5 88.45 11.05 89.4 9.8 85.45 7.6 Q81.55 5.65 79.5 5.05 L77.8 4.6 77.0 4.75 Q76.05 4.75 75.35 4.05 74.65 3.4 74.65 2.45 74.65 1.5 75.35 0.8 76.05 0.1 77.0 0.1 77.95 0.1 78.6 0.8 L78.95 1.25 82.6 2.45 Q87.9 4.35 91.6 6.7 L91.85 6.35 92.8 6.25 96.6 9.05 96.9 9.5 96.8 9.95 93.4 14.65 92.45 14.75 91.95 14.4 Q89.4 16.75 86.25 18.5 L83.5 19.85 83.1 20.65 83.7 22.35 85.0 21.85 Q85.75 21.6 86.0 22.15 L88.2 28.05 Q95.1 22.95 105.75 22.05 110.0 21.7 114.3 22.05 L117.8 22.5 117.15 24.0 111.8 23.65 Q105.35 23.65 99.7 25.1 93.15 26.8 88.55 30.25 L104.75 48.15 Q105.7 47.6 106.9 47.6 108.75 47.6 110.05 48.9 111.35 50.2 111.35 52.05 111.35 53.9 110.05 55.2 108.75 56.5 106.9 56.5 105.05 56.5 103.75 55.2 102.45 53.9 102.45 52.05 102.45 51.1 102.8 50.35 L90.2 40.2 Q89.2 38.6 87.8 37.4 85.05 34.9 83.1 36.7 L81.5 38.55 Q79.35 42.6 78.45 47.75 L76.4 47.55 77.85 42.75 69.0 52.85 71.5 52.9 71.0 56.6 27.8 55.85 27.6 55.85 M30.25 46.0 L52.35 34.0 54.15 33.0 56.9 32.3 58.85 31.75 60.75 31.55 M43.9 29.85 L42.6 30.85 47.1 36.2 45.3 37.2 Q35.25 22.0 16.8 24.9 7.55 26.4 0.35 30.9 L-0.85 29.8 Q3.6 26.75 10.0 24.55 22.9 20.15 32.95 24.45 37.55 26.4 40.75 29.1 L42.65 27.75 M78.95 1.25 Q79.3 1.8 79.3 2.45 79.3 3.4 78.6 4.05 L77.8 4.6 M40.75 29.1 L41.3 29.6 42.6 30.85 M25.3 50.55 Q25.8 51.25 25.95 52.1 L26.4 52.1 28.2 51.2 36.35 47.05 39.65 45.35 55.35 37.35 59.0 44.05 59.75 45.45 63.8 52.8 65.0 52.8 M67.55 52.85 L69.0 52.85 M81.4 31.35 L80.9 30.9 80.85 30.75 80.4 29.55 M64.55 43.7 L65.45 45.05 67.7 48.65 80.25 34.25 60.3 36.3 59.9 36.35 60.75 37.65 64.55 43.7 M82.1 16.25 L82.75 16.75 Q83.65 17.65 83.65 18.9 L83.5 19.85 M89.4 9.8 Q90.85 10.65 91.75 11.45 93.0 11.5 93.8 10.6 94.3 10.05 94.3 9.25 L94.15 8.55 91.6 6.7 M91.95 14.4 L88.85 12.15 M83.1 20.65 L82.75 21.05 Q81.85 21.95 80.6 21.95 L80.4 21.95 M80.9 23.35 L83.7 22.35 M86.5 29.55 L81.9 31.25 81.4 31.35 M88.2 28.05 L88.25 28.2 Q88.45 28.85 87.7 29.1 L87.6 29.15 88.55 30.25 M87.35 29.25 L86.5 29.55 M103.9 48.8 L104.55 48.3 104.75 48.15 M87.35 29.25 L87.6 29.15 M81.5 38.55 L77.85 42.75 M106.9 50.1 Q107.75 50.1 108.3 50.65 108.85 51.25 108.85 52.05 108.85 52.85 108.3 53.4 107.7 54.0 106.9 54.0 106.1 54.0 105.5 53.4 104.95 52.85 104.95 52.05 L105.0 51.55 105.5 50.65 105.55 50.65 Q105.9 50.3 106.3 50.2 L106.55 50.15 106.9 50.1 M102.8 50.35 Q103.1 49.55 103.75 48.9 L103.9 48.8 M67.55 52.85 L66.85 52.85 M26.05 53.5 L26.05 53.55 Q25.9 54.85 25.05 55.85 L24.75 56.15 Q23.45 57.45 21.6 57.45 19.75 57.45 18.5 56.15 17.2 54.85 17.2 53.0 17.2 51.15 18.5 49.85 19.75 48.55 21.6 48.55 23.0 48.55 24.1 49.3 L24.75 49.85 25.3 50.55 M63.8 52.8 L47.65 52.6 28.35 52.15 26.4 52.1 M26.05 52.6 L26.05 53.0 26.05 53.5 M26.3 48.1 L27.15 47.65 30.25 46.0 M26.3 48.1 L24.1 49.3 M21.6 54.8 Q20.85 54.8 20.35 54.3 19.8 53.75 19.8 53.0 19.8 52.2 20.35 51.7 20.85 51.15 21.55 51.15 L21.6 51.15 Q22.4 51.15 22.9 51.7 L23.45 52.8 23.45 53.0 Q23.45 53.75 22.9 54.3 22.4 54.8 21.6 54.8 M26.05 52.6 L26.0 52.3 25.95 52.1" fill="none" stroke="#707070" stroke-linecap="butt" stroke-linejoin="round" stroke-width="0.7000000000000001"/>
    <path d="M51.8 31.2 L50.25 31.4 Q46.95 31.65 45.15 30.75 L43.9 29.85 Q43.0 29.0 42.65 27.75 42.4 26.85 42.4 25.75 42.35 22.2 44.55 21.15 46.2 20.35 49.0 21.65 52.55 23.35 53.25 23.4 54.6 23.55 60.5 23.3 62.6 23.05 62.95 24.8 63.3 26.6 61.3 27.8 L59.95 28.65 57.7 29.65 56.0 30.25 51.8 31.2" fill="none" stroke="#700000" stroke-linecap="butt" stroke-linejoin="miter-clip" stroke-miterlimit="4.0" stroke-width="0.7000000000000001"/>
    <path d="M52.35 34.0 Q51.75 33.3 51.65 32.35 51.6 31.75 51.8 31.2 M59.95 28.65 L60.7 31.4 60.75 31.55 M56.0 30.25 Q56.8 30.9 56.85 32.0 L56.9 32.3 M60.3 36.3 L60.75 37.65" fill="none" stroke="#5c2e37" stroke-linecap="butt" stroke-linejoin="miter-clip" stroke-miterlimit="4.0" stroke-width="0.7000000000000001"/>
    <path d="M27.8 55.85 L27.7 56.05 M26.4 57.8 Q24.4 59.75 21.6 59.75 18.85 59.75 16.85 57.75 14.85 55.8 14.85 53.0 14.85 50.2 16.85 48.2 18.8 46.25 21.6 46.25 22.9 46.25 24.05 46.7 25.0 47.05 25.9 47.75 L26.3 48.1 M28.35 52.15 L28.2 51.2" fill="none" stroke="#050202" stroke-linecap="butt" stroke-linejoin="round" stroke-width="0.7000000000000001"/>
    <path d="M27.7 56.05 L30.2 59.7 Q30.8 59.3 31.55 59.3 32.65 59.3 33.45 60.1 L34.05 60.95 34.25 61.95 34.25 62.4 33.45 63.85 Q32.7 64.6 31.55 64.6 30.45 64.6 29.7 63.85 28.9 63.05 28.9 61.95 L28.95 61.6 26.4 57.8 25.05 55.85 M26.05 53.55 L27.6 55.85 27.7 56.05 M30.2 59.7 Q29.9 59.85 29.7 60.1 29.05 60.7 28.95 61.6" fill="none" stroke="#415450" stroke-linecap="butt" stroke-linejoin="round" stroke-width="0.7000000000000001"/>
  </g>
</svg>
