<?xml version="1.0" encoding="UTF-8" standalone="no"?>
<svg xmlns:ffdec="https://www.free-decompiler.com/flash" xmlns:xlink="http://www.w3.org/1999/xlink" ffdec:objectType="shape" height="53.2px" width="53.2px" xmlns="http://www.w3.org/2000/svg">
  <g transform="matrix(1.0, 0.0, 0.0, 1.0, 0.15, 0.0)">
    <path d="M26.45 26.6 L26.45 49.1" fill="none" stroke="#000000" stroke-linecap="butt" stroke-linejoin="round" stroke-width="0.7000000000000001"/>
    <path d="M26.45 26.6 L36.9 46.55" fill="none" stroke="#000000" stroke-linecap="butt" stroke-linejoin="round" stroke-width="0.7000000000000001"/>
    <path d="M26.45 26.6 L44.95 39.4" fill="none" stroke="#000000" stroke-linecap="butt" stroke-linejoin="round" stroke-width="0.7000000000000001"/>
    <path d="M26.45 26.6 L48.8 29.3" fill="none" stroke="#000000" stroke-linecap="butt" stroke-linejoin="round" stroke-width="0.7000000000000001"/>
    <path d="M26.45 26.6 L47.5 18.65" fill="none" stroke="#000000" stroke-linecap="butt" stroke-linejoin="round" stroke-width="0.7000000000000001"/>
    <path d="M26.45 26.6 L41.35 9.75" fill="none" stroke="#000000" stroke-linecap="butt" stroke-linejoin="round" stroke-width="0.7000000000000001"/>
    <path d="M26.45 26.6 L31.85 4.75" fill="none" stroke="#000000" stroke-linecap="butt" stroke-linejoin="round" stroke-width="0.7000000000000001"/>
    <path d="M26.45 26.6 L21.05 4.75" fill="none" stroke="#000000" stroke-linecap="butt" stroke-linejoin="round" stroke-width="0.7000000000000001"/>
    <path d="M26.45 26.6 L11.5 9.75" fill="none" stroke="#000000" stroke-linecap="butt" stroke-linejoin="round" stroke-width="0.7000000000000001"/>
    <path d="M26.45 26.6 L5.4 18.65" fill="none" stroke="#000000" stroke-linecap="butt" stroke-linejoin="round" stroke-width="0.7000000000000001"/>
    <path d="M26.45 26.6 L4.1 29.3" fill="none" stroke="#000000" stroke-linecap="butt" stroke-linejoin="round" stroke-width="0.7000000000000001"/>
    <path d="M26.45 26.6 L7.95 39.4" fill="none" stroke="#000000" stroke-linecap="butt" stroke-linejoin="round" stroke-width="0.7000000000000001"/>
    <path d="M26.45 26.6 L16.0 46.55" fill="none" stroke="#000000" stroke-linecap="butt" stroke-linejoin="round" stroke-width="0.7000000000000001"/>
    <path d="M12.65 12.8 Q6.9 18.55 6.9 26.6 6.9 30.6 8.45 34.2 9.95 37.75 12.65 40.4 15.35 43.1 18.85 44.6 22.45 46.15 26.45 46.15 34.5 46.15 40.25 40.4 42.95 37.75 44.45 34.2 46.0 30.6 46.0 26.6 46.0 22.65 44.45 19.0 42.95 15.5 40.25 12.8 34.5 7.05 26.45 7.05 22.45 7.05 18.85 8.6 15.35 10.1 12.65 12.8 M26.45 3.85 Q35.9 3.85 42.55 10.5 49.2 17.2 49.2 26.6 49.2 36.05 42.55 42.75 35.9 49.4 26.45 49.4 17.0 49.4 10.35 42.75 3.65 36.05 3.65 26.6 3.65 17.2 10.35 10.5 17.0 3.85 26.45 3.85" fill="#404040" fill-rule="evenodd" stroke="none"/>
    <path d="M12.65 12.8 Q6.9 18.55 6.9 26.6 6.9 30.6 8.45 34.2 9.95 37.75 12.65 40.4 15.35 43.1 18.85 44.6 22.45 46.15 26.45 46.15 34.5 46.15 40.25 40.4 42.95 37.75 44.45 34.2 46.0 30.6 46.0 26.6 46.0 22.65 44.45 19.0 42.95 15.5 40.25 12.8 34.5 7.05 26.45 7.05 22.45 7.05 18.85 8.6 15.35 10.1 12.65 12.8 M26.45 3.85 Q35.9 3.85 42.55 10.5 49.2 17.2 49.2 26.6 49.2 36.05 42.55 42.75 35.9 49.4 26.45 49.4 17.0 49.4 10.35 42.75 3.65 36.05 3.65 26.6 3.65 17.2 10.35 10.5 17.0 3.85 26.45 3.85 Z" fill="none" stroke="#000000" stroke-linecap="butt" stroke-linejoin="miter-clip" stroke-miterlimit="4.0" stroke-width="0.7000000000000001"/>
    <path d="M10.75 10.9 Q7.7 14.0 6.0 17.95 4.25 22.1 4.25 26.6 4.25 31.1 6.0 35.25 7.7 39.2 10.75 42.3 13.85 45.35 17.8 47.05 21.95 48.8 26.45 48.8 30.95 48.8 35.1 47.05 39.05 45.35 42.15 42.3 45.2 39.2 46.9 35.25 48.65 31.1 48.65 26.6 48.65 22.1 46.9 17.95 45.2 14.0 42.15 10.9 39.05 7.85 35.1 6.15 30.95 4.4 26.45 4.4 21.95 4.4 17.8 6.15 13.85 7.85 10.75 10.9 M26.45 0.75 Q37.2 0.75 44.75 8.3 52.3 15.9 52.3 26.6 52.3 37.35 44.75 44.9 37.15 52.5 26.45 52.5 15.75 52.5 8.15 44.9 0.6 37.35 0.55 26.6 0.6 15.85 8.15 8.3 15.75 0.75 26.45 0.75" fill="#000000" fill-rule="evenodd" stroke="none"/>
    <path d="M10.75 10.9 Q7.7 14.0 6.0 17.95 4.25 22.1 4.25 26.6 4.25 31.1 6.0 35.25 7.7 39.2 10.75 42.3 13.85 45.35 17.8 47.05 21.95 48.8 26.45 48.8 30.95 48.8 35.1 47.05 39.05 45.35 42.15 42.3 45.2 39.2 46.9 35.25 48.65 31.1 48.65 26.6 48.65 22.1 46.9 17.95 45.2 14.0 42.15 10.9 39.05 7.85 35.1 6.15 30.95 4.4 26.45 4.4 21.95 4.4 17.8 6.15 13.85 7.85 10.75 10.9 M26.45 0.75 Q37.2 0.75 44.75 8.3 52.3 15.9 52.3 26.6 52.3 37.35 44.75 44.9 37.15 52.5 26.45 52.5 15.75 52.5 8.15 44.9 0.6 37.35 0.55 26.6 0.6 15.85 8.15 8.3 15.75 0.75 26.45 0.75 Z" fill="none" stroke="#858585" stroke-linecap="butt" stroke-linejoin="miter-clip" stroke-miterlimit="4.0" stroke-width="0.7000000000000001"/>
    <path d="M26.45 0.75 Q15.75 0.75 8.15 8.3 0.6 15.85 0.55 26.6 0.6 37.35 8.15 44.9 15.75 52.5 26.45 52.5 37.15 52.5 44.75 44.9 52.3 37.35 52.3 26.6 52.3 15.9 44.75 8.3 37.2 0.75 26.45 0.75 M12.65 12.8 Q15.35 10.1 18.85 8.6 22.45 7.05 26.45 7.05 34.5 7.05 40.25 12.8 42.95 15.5 44.45 19.0 46.0 22.65 46.0 26.6 46.0 30.6 44.45 34.2 42.95 37.75 40.25 40.4 34.5 46.15 26.45 46.15 22.45 46.15 18.85 44.6 15.35 43.1 12.65 40.4 9.95 37.75 8.45 34.2 6.9 30.6 6.9 26.6 6.9 18.55 12.65 12.8 M7.65 7.8 Q15.45 0.0 26.45 0.0 37.45 0.0 45.25 7.8 53.05 15.6 53.05 26.6 53.05 37.6 45.25 45.4 37.45 53.2 26.45 53.2 15.45 53.2 7.65 45.4 -0.15 37.6 -0.15 26.6 -0.15 15.6 7.65 7.8 M26.45 7.8 Q18.65 7.8 13.15 13.3 10.5 15.95 9.05 19.4 7.6 22.85 7.6 26.6 7.6 34.35 13.15 39.9 18.7 45.45 26.45 45.45 30.2 45.45 33.65 44.0 37.1 42.55 39.75 39.9 45.25 34.4 45.25 26.6 45.25 22.85 43.85 19.4 42.4 15.95 39.75 13.3 37.1 10.65 33.65 9.2 30.2 7.8 26.45 7.8" fill="#000000" fill-rule="evenodd" stroke="none"/>
    <path d="M8.65 8.3 Q16.1 1.1 26.45 1.1 36.65 1.1 44.05 8.15 51.45 15.15 51.95 25.25 L50.6 28.1 50.65 26.6 Q50.65 21.65 48.75 17.15 46.9 12.8 43.55 9.5 40.25 6.15 35.9 4.3 31.4 2.4 26.45 2.4 21.5 2.4 17.0 4.3 12.65 6.15 9.3 9.5 5.95 12.85 4.15 17.15 2.25 21.65 2.25 26.6 L2.3 28.6 0.95 25.85 Q1.25 15.5 8.65 8.3" fill="#808080" fill-rule="evenodd" stroke="none"/>
    <path d="M50.6 28.1 L51.95 25.25 51.95 26.6 Q51.95 37.2 44.5 44.65 37.05 52.1 26.45 52.1 15.9 52.1 8.4 44.65 0.95 37.2 0.9 26.6 L0.95 25.85 2.3 28.6 Q3.05 37.4 9.3 43.75 12.65 47.1 17.0 48.9 21.5 50.8 26.45 50.8 31.4 50.8 35.9 48.9 40.2 47.1 43.55 43.75 50.1 37.2 50.6 28.1" fill="#454545" fill-rule="evenodd" stroke="none"/>
    <path d="M28.25 11.15 L32.45 12.55 Q37.05 14.5 38.75 17.1 L37.6 18.5 34.05 17.65 Q30.0 16.2 27.45 13.15 L28.25 11.15" fill="#e6e6e6" fill-opacity="0.8" fill-rule="evenodd" stroke="none"/>
    <path d="M28.25 11.15 L32.45 12.55 Q37.05 14.5 38.75 17.1 L37.6 18.5 34.05 17.65 Q30.0 16.2 27.45 13.15 L28.25 11.15 Z" fill="none" stroke="#ffffff" stroke-linecap="round" stroke-linejoin="round" stroke-width="1.0"/>
  </g>
</svg>
