<?xml version="1.0" encoding="UTF-8" standalone="no"?>
<svg xmlns:ffdec="https://www.free-decompiler.com/flash" xmlns:xlink="http://www.w3.org/1999/xlink" ffdec:objectType="shape" height="112.2px" width="131.7px" xmlns="http://www.w3.org/2000/svg">
  <g transform="matrix(1.0, 0.0, 0.0, 1.0, 4.95, 47.4)">
    <path d="M18.4 -2.9 Q13.2 -1.0 12.2 -1.2" fill="none" stroke="#231f20" stroke-linecap="butt" stroke-linejoin="miter-clip" stroke-miterlimit="10.0" stroke-width="1.0"/>
    <path d="M14.75 -42.15 Q9.55 -40.25 8.55 -40.45" fill="none" stroke="#231f20" stroke-linecap="butt" stroke-linejoin="miter-clip" stroke-miterlimit="10.0" stroke-width="1.0"/>
    <path d="M7.95 -40.25 L7.5 -39.6 Q7.1 -39.35 6.7 -39.45 6.25 -39.55 6.0 -39.9 5.8 -40.3 5.9 -40.7 L6.35 -41.35 7.15 -41.5 7.8 -41.05 7.95 -40.25" fill="#000000" fill-rule="evenodd" stroke="none"/>
    <path d="M7.95 -40.25 L7.5 -39.6 Q7.1 -39.35 6.7 -39.45 6.25 -39.55 6.0 -39.9 5.8 -40.3 5.9 -40.7 L6.35 -41.35 7.15 -41.5 7.8 -41.05 7.95 -40.25 Z" fill="none" stroke="#231f20" stroke-linecap="butt" stroke-linejoin="miter-clip" stroke-miterlimit="10.0" stroke-width="1.0"/>
    <path d="M10.55 -1.75 Q10.5 -1.35 10.1 -1.1 L9.3 -0.95 Q8.9 -1.05 8.65 -1.4 8.45 -1.8 8.5 -2.2 8.6 -2.65 9.0 -2.9 L9.75 -3.0 Q10.2 -2.9 10.45 -2.55 L10.55 -1.75" fill="#000000" fill-rule="evenodd" stroke="none"/>
    <path d="M10.55 -1.75 Q10.5 -1.35 10.1 -1.1 L9.3 -0.95 Q8.9 -1.05 8.65 -1.4 8.45 -1.8 8.5 -2.2 8.6 -2.65 9.0 -2.9 L9.75 -3.0 Q10.2 -2.9 10.45 -2.55 L10.55 -1.75 Z" fill="none" stroke="#231f20" stroke-linecap="butt" stroke-linejoin="miter-clip" stroke-miterlimit="10.0" stroke-width="1.0"/>
    <path d="M6.9 -41.5 Q8.05 -42.45 9.65 -43.25 12.85 -44.9 15.2 -44.35" fill="none" stroke="#231f20" stroke-linecap="butt" stroke-linejoin="miter-clip" stroke-miterlimit="10.0" stroke-width="1.0"/>
    <path d="M9.55 -2.25 L12.0 -4.1 Q14.85 -5.8 16.9 -5.35" fill="none" stroke="#231f20" stroke-linecap="butt" stroke-linejoin="miter-clip" stroke-miterlimit="10.0" stroke-width="1.0"/>
    <path d="M15.15 -47.05 Q15.8 -47.1 16.2 -46.65 16.65 -46.2 16.65 -45.6 L17.55 -20.15 Q19.15 7.9 22.55 22.8 L19.6 23.3 Q16.15 8.15 14.55 -20.05 L13.65 -45.55 Q13.65 -46.2 14.1 -46.6 14.5 -47.05 15.15 -47.05" fill="#82b8dc" fill-rule="evenodd" stroke="none"/>
    <path d="M15.15 -47.05 Q14.5 -47.05 14.1 -46.6 13.65 -46.2 13.65 -45.55 L14.55 -20.05 Q16.15 8.15 19.6 23.3 L22.55 22.8 Q19.15 7.9 17.55 -20.15 L16.65 -45.6 Q16.65 -46.2 16.2 -46.65 15.8 -47.1 15.15 -47.05 Z" fill="none" stroke="#707070" stroke-linecap="butt" stroke-linejoin="round" stroke-width="0.7000000000000001"/>
    <path d="M15.5 -45.25 L16.8 -17.05 Q18.75 13.05 21.85 22.4" fill="none" stroke="#e6e6e6" stroke-linecap="butt" stroke-linejoin="miter-clip" stroke-miterlimit="4.0" stroke-width="0.7000000000000001"/>
    <path d="M74.15 0.5 L73.95 0.05 73.5 -1.5 75.05 -1.05 76.55 -2.25 78.85 -1.05 80.0 -1.9 81.65 -1.1 81.9 -1.0 82.45 -1.1 83.5 -1.35 83.5 -1.2 83.05 1.35 84.55 2.45 83.45 3.3 82.8 3.75 82.95 4.0 83.05 4.45 82.5 4.85 81.9 5.3 81.75 5.4 81.65 5.4 80.65 5.4 80.4 5.4 80.0 6.85 78.7 6.25 76.75 6.85 76.25 5.4 73.95 6.85 73.95 5.8 72.0 5.65 72.95 4.25 72.0 3.5 73.15 2.7 72.4 1.1 73.75 1.1 74.45 1.1 74.15 0.5 M40.4 26.75 L41.9 26.1 41.05 24.85 40.35 23.55 41.75 23.55 41.2 20.7 42.25 21.2 42.8 19.55 Q43.4 17.9 43.55 18.0 L44.95 20.25 46.25 18.0 47.55 19.3 49.65 18.55 48.6 19.3 51.3 18.9 51.3 19.75 53.0 18.55 52.65 20.25 56.3 20.25 58.15 19.4 58.55 20.25 59.9 19.25 Q61.2 18.25 61.2 18.55 L61.2 20.25 63.85 19.85 63.85 21.2 65.25 21.9 65.25 23.15 67.5 24.5 66.05 24.5 66.8 26.9 65.8 26.5 65.45 28.25 64.55 27.75 63.85 28.7 62.9 28.0 61.8 29.2 61.0 28.25 59.45 30.15 58.5 28.95 57.55 30.6 56.65 29.4 55.45 31.0 55.0 30.15 54.15 31.0 52.85 32.3 52.75 32.35 52.25 31.65 50.9 32.3 49.65 32.85 49.3 31.8 46.35 32.85 46.35 31.0 44.4 31.35 44.35 31.3 44.35 29.65 43.65 29.75 43.35 29.0 40.4 26.75" fill="#a4fdca" fill-rule="evenodd" stroke="none"/>
    <path d="M90.55 3.75 L90.65 3.4 91.0 3.1 91.45 3.15 95.55 5.3 Q96.15 5.65 95.9 6.2 L93.7 11.3 Q93.4 11.85 92.85 11.55 L92.35 11.3 Q90.45 14.0 87.85 16.2 L87.6 16.45 87.9 17.75 87.7 18.9 88.3 18.65 88.95 18.65 89.35 19.0 91.8 25.05 Q92.05 25.6 91.2 25.95 89.4 25.3 88.45 25.5 L89.3 25.3 89.3 23.4 86.05 25.9 84.55 24.6 85.1 24.5 86.1 24.4 86.4 23.6 88.35 23.15 89.3 22.8 89.0 22.2 88.15 21.25 Q88.35 21.2 88.5 21.1 L89.3 20.65 87.3 19.95 87.9 19.35 87.6 19.05 86.55 18.0 87.5 17.75 86.1 16.1 86.95 15.65 87.9 14.95 87.2 14.9 86.5 15.0 86.15 15.1 84.9 15.35 85.0 14.75 85.2 13.5 85.55 13.25 Q87.5 11.6 89.0 9.55 L88.75 9.4 Q88.2 9.15 88.4 8.5 L89.0 7.15 86.25 6.1 84.95 5.65 82.8 4.95 82.5 4.85 83.05 4.45 82.95 4.0 82.8 3.75 83.45 3.3 84.55 2.45 83.05 1.35 Q87.3 2.3 90.5 3.8 L93.2 5.2 93.45 5.85 Q93.6 6.65 93.25 7.25 92.7 8.25 91.55 8.4 90.55 7.8 89.0 7.15 90.55 7.8 91.55 8.4 92.7 8.25 93.25 7.25 93.6 6.65 93.45 5.85 L93.2 5.2 90.5 3.8 90.55 3.75 M73.75 1.1 L74.15 0.5 74.45 1.1 73.75 1.1 M92.6 6.85 L89.75 5.45 88.9 5.1 84.2 3.5 83.45 3.3 84.2 3.5 88.9 5.1 89.75 5.45 92.6 6.85 M87.6 16.45 L86.95 15.65 87.6 16.45 M87.6 19.05 L87.7 18.9 87.6 19.05 M90.2 24.6 L88.5 21.1 90.2 24.6 M85.0 14.75 Q85.65 14.8 86.15 15.1 85.65 14.8 85.0 14.75 M89.0 9.55 L92.35 11.3 89.0 9.55 M90.6 11.3 Q89.55 13.0 87.2 14.9 89.55 13.0 90.6 11.3 M85.9 26.05 L84.9 26.75 84.5 26.6 84.55 26.4 85.9 26.05 M83.85 27.45 L83.75 27.75 83.65 27.5 83.85 27.45" fill="#cccccc" fill-rule="evenodd" stroke="none"/>
    <path d="M81.65 -1.1 L81.6 -1.55 82.45 -1.1 81.9 -1.0 81.65 -1.1 M83.5 -1.2 L84.4 -1.7 86.2 -0.25 87.35 -0.8 88.85 0.35 90.3 0.3 89.45 2.6 90.55 3.75 90.5 3.8 Q87.3 2.3 83.05 1.35 L83.5 -1.2 M91.2 25.95 L90.2 26.75 91.4 27.4 92.6 28.05 90.95 28.15 92.35 29.3 92.6 29.5 91.4 29.85 90.5 30.1 89.3 30.4 89.3 32.05 87.6 32.5 86.55 32.75 86.1 30.85 85.15 31.25 83.45 29.5 84.15 29.3 85.1 29.2 84.15 28.3 83.55 27.8 83.75 27.75 83.85 27.45 84.35 27.25 84.5 26.6 84.35 27.25 83.85 27.45 83.65 27.5 82.75 27.8 81.9 28.4 81.35 28.4 79.5 28.4 79.75 27.4 78.85 26.75 78.85 26.15 78.85 25.5 78.35 25.5 78.35 24.75 78.35 24.5 77.2 24.4 78.35 23.15 79.8 23.4 80.8 22.25 81.2 22.15 81.2 21.9 82.55 22.5 83.45 21.75 84.1 23.35 85.55 22.5 85.1 24.5 84.55 24.6 86.05 25.9 89.3 23.4 89.3 25.3 88.45 25.5 Q89.4 25.3 91.2 25.95 M82.6 39.2 L82.9 39.15 82.95 39.2 82.45 39.5 79.8 41.0 80.8 41.55 79.35 42.3 79.15 42.4 Q79.05 41.95 78.6 42.1 78.2 42.25 77.5 40.8 L77.25 40.25 76.55 38.1 75.25 38.55 74.5 36.8 75.25 36.8 75.25 36.2 75.25 34.7 75.25 33.85 76.25 34.8 77.2 32.05 77.2 32.0 78.35 33.15 78.65 33.3 78.85 33.75 78.85 35.4 78.9 35.4 80.45 34.85 80.8 36.8 81.35 37.75 82.25 38.0 Q81.15 38.85 81.75 39.1 L82.6 39.2 M73.95 49.95 L73.95 51.85 72.0 52.25 71.45 53.6 71.35 53.6 70.75 53.6 69.8 54.3 69.75 53.9 69.6 53.1 69.6 52.9 69.55 52.5 69.6 52.25 68.1 52.25 68.8 50.6 68.3 50.55 67.65 50.6 Q67.5 50.7 67.5 49.7 L67.45 48.5 67.85 48.05 68.85 47.95 69.6 44.25 70.75 44.3 71.0 43.3 71.9 44.3 72.4 44.65 72.0 46.9 73.15 46.9 72.65 47.65 72.65 48.9 73.5 48.9 73.5 49.35 73.95 49.95 M-0.85 33.95 L-3.0 33.15 -4.45 32.0 -3.2 31.25 -3.35 28.8 -1.7 28.6 -1.75 27.0 -1.7 25.4 0.05 25.95 1.0 23.45 1.3 22.2 Q1.6 21.05 1.8 21.6 L2.55 23.15 4.65 21.1 5.15 19.4 Q5.75 17.85 6.55 18.6 L8.5 20.6 10.55 20.05 10.55 18.6 13.6 21.1 14.85 19.95 14.85 18.6 17.0 19.95 17.15 19.15 18.4 20.6 21.05 18.0 21.05 19.0 23.75 17.0 23.75 18.6 26.05 17.75 26.55 20.05 30.35 19.15 29.9 19.6 28.85 20.9 30.35 21.1 33.35 20.05 32.25 21.6 34.2 21.25 34.2 21.75 34.9 21.85 Q35.7 22.05 36.0 22.35 L37.0 23.6 38.15 23.15 40.4 26.75 43.35 29.0 43.65 29.75 43.85 30.4 44.35 31.3 44.4 31.35 45.15 33.15 45.55 35.4 44.85 35.75 44.3 36.0 Q42.9 33.15 39.55 30.15 32.95 24.15 23.4 23.6 15.0 23.1 7.45 27.25 2.2 30.15 -0.85 33.95 M63.5 31.3 L63.7 32.0 64.5 30.75 65.5 29.5 66.0 29.95 66.3 30.15 67.2 28.85 68.1 27.8 68.85 28.4 69.9 27.6 69.9 27.8 71.4 27.8 71.25 28.15 70.7 29.5 71.55 29.4 71.65 29.45 72.25 29.5 72.3 29.5 72.25 30.15 74.65 31.1 73.15 31.25 73.05 32.75 72.65 32.75 72.3 33.15 70.8 33.65 70.25 34.4 69.6 34.0 68.3 34.65 68.3 34.4 67.2 35.6 67.2 35.65 66.9 36.55 66.8 36.15 Q66.7 36.1 66.75 35.85 L66.8 35.8 66.8 35.6 65.5 34.4 64.85 34.65 64.8 34.65 65.5 33.65 64.85 33.25 64.0 33.15 63.95 33.2 63.9 33.15 63.75 32.75 63.7 32.65 63.6 32.05 63.6 31.9 63.5 31.3 M86.25 6.1 L85.8 6.85 84.8 6.1 82.95 6.3 82.8 4.95 81.9 5.3 82.5 4.85 82.8 4.95 84.95 5.65 86.25 6.1 M81.65 5.4 L80.55 5.8 80.65 5.4 81.65 5.4 M85.9 26.05 L86.1 25.95 86.05 25.9 86.1 25.95 85.9 26.05 84.55 26.4 84.5 26.6 84.9 26.75 85.9 26.05" fill="#fe45b3" fill-rule="evenodd" stroke="none"/>
    <path d="M91.4 27.4 Q97.55 23.7 106.0 23.35 L106.0 25.95 99.4 26.8 Q95.5 27.65 92.35 29.3 L90.95 28.15 92.6 28.05 91.4 27.4 M108.3 23.3 Q113.25 23.35 117.2 24.45 L115.35 26.75 Q111.8 25.95 108.15 25.9 L108.3 23.3 M102.55 50.75 L98.0 47.15 Q90.15 40.3 87.8 33.0 L87.65 32.55 86.55 33.65 86.1 32.85 86.55 32.75 87.6 32.5 89.3 32.05 89.3 30.4 90.5 30.1 90.6 30.35 90.5 30.1 91.4 29.85 90.6 30.35 91.1 31.9 Q93.2 38.35 100.55 44.7 L104.7 48.0 Q104.15 48.3 103.7 48.75 102.85 49.6 102.55 50.75 M86.4 33.8 L84.8 35.7 83.15 36.15 86.4 33.8 M84.45 36.2 L82.6 39.2 81.75 39.1 Q81.15 38.85 82.25 38.0 L84.45 36.2 M82.45 39.5 Q80.55 43.4 79.65 48.4 L77.6 48.2 79.35 42.3 80.8 41.55 79.8 41.0 82.45 39.5 M27.7 46.0 L30.8 43.9 Q37.4 39.65 43.05 37.25 40.55 33.8 37.6 31.1 30.45 24.7 19.75 25.3 12.45 25.7 5.6 30.6 2.2 33.05 0.25 35.4 L-0.85 33.95 Q2.2 30.15 7.45 27.25 15.0 23.1 23.4 23.6 32.95 24.15 39.55 30.15 42.9 33.15 44.3 36.0 L44.85 35.75 45.2 36.35 Q48.65 35.05 51.75 34.5 L50.9 32.3 52.25 31.65 52.75 32.35 52.85 32.3 54.15 31.0 56.95 38.35 56.35 39.95 58.35 39.2 59.2 39.95 59.5 40.25 61.25 37.8 61.3 37.8 61.9 37.9 62.55 38.1 64.8 36.8 66.8 36.8 66.9 36.55 67.2 35.65 Q70.35 34.55 72.95 34.5 L75.25 34.7 75.25 36.2 75.25 36.8 74.5 36.8 73.95 36.8 73.4 38.4 69.05 39.0 Q64.6 40.15 58.95 43.6 L59.05 43.9 57.4 44.0 52.85 32.3 57.4 44.0 55.45 44.15 53.05 37.85 Q45.45 39.0 34.95 45.5 L30.5 45.8 27.7 46.0 M87.65 32.55 L87.6 32.5 87.65 32.55 M59.5 41.15 Q66.65 37.3 71.95 36.4 L75.25 36.2 71.95 36.4 Q66.65 37.3 59.5 41.15 M43.05 37.25 L45.2 36.35 43.05 37.25 M58.35 41.0 L59.2 39.95 58.35 41.0 M57.95 45.4 L59.6 45.3 62.05 51.65 63.35 51.5 62.6 52.6 62.55 52.6 54.95 52.5 28.3 51.95 28.3 51.8 42.35 52.0 58.35 51.8 56.0 45.55 57.95 45.4 59.95 50.6 57.95 45.4 M50.8 36.3 Q46.25 37.8 41.15 39.95 33.9 43.1 30.5 45.8 33.9 43.1 41.15 39.95 46.25 37.8 50.8 36.3 M25.8 47.55 L32.45 47.1 27.85 50.25 Q27.35 49.05 26.35 48.05 L25.8 47.55" fill="#82b8dc" fill-rule="evenodd" stroke="none"/>
    <path d="M106.0 23.35 L106.0 19.4 106.0 19.35 106.45 19.45 108.45 19.75 108.3 23.3 108.15 25.9 107.1 47.45 106.95 49.9 106.85 51.9 106.0 51.45 106.0 50.1 106.0 47.55 106.0 25.95 106.0 23.35 M34.0 60.8 L68.1 61.4 68.1 62.85 34.2 62.2 34.2 61.8 34.0 60.8 M24.0 46.5 L24.0 46.25 27.7 46.0 30.5 45.8 34.95 45.5 55.45 44.15 57.4 44.0 59.05 43.9 66.3 43.4 66.3 44.85 59.6 45.3 57.95 45.4 56.0 45.55 32.45 47.1 25.8 47.55 Q24.95 46.85 24.0 46.5" fill="#000000" fill-rule="evenodd" stroke="none"/>
    <path d="M86.55 33.65 L86.4 33.8 83.15 36.15 84.8 35.7 85.1 35.6 84.45 36.2 82.25 38.0 81.35 37.75 80.8 36.8 80.45 34.85 78.9 35.4 78.85 35.4 78.85 33.75 78.65 33.3 78.35 33.15 77.2 32.0 77.6 31.7 78.35 31.1 79.6 30.4 81.35 28.4 81.75 29.5 82.55 28.05 83.55 27.8 84.15 28.3 85.1 29.2 84.15 29.3 83.45 29.5 85.15 31.25 86.1 30.85 86.55 32.75 86.1 32.85 86.55 33.65 M79.15 42.4 L77.2 43.4 78.35 43.85 75.25 46.7 77.2 47.45 73.95 49.75 73.95 49.95 73.5 49.35 73.5 48.9 72.65 48.9 72.65 47.65 73.15 46.9 72.0 46.9 72.4 44.65 71.9 44.3 71.0 43.3 71.45 41.55 72.25 41.55 72.5 39.1 73.15 39.1 73.4 38.4 73.95 36.8 74.5 36.8 75.25 38.55 76.55 38.1 77.25 40.25 77.5 40.8 Q78.2 42.25 78.6 42.1 79.05 41.95 79.15 42.4 M56.95 38.35 L57.55 36.8 58.45 36.8 57.95 35.4 59.5 35.9 60.2 34.15 Q60.95 32.45 61.05 32.75 L61.25 33.15 63.4 31.1 63.5 31.3 63.6 31.9 63.6 32.05 63.7 32.65 63.75 32.75 63.85 33.2 63.9 33.15 63.95 33.2 64.0 33.15 64.85 33.25 65.5 33.65 64.8 34.65 64.85 34.65 65.5 34.4 66.8 35.6 66.8 35.8 66.75 35.85 Q66.7 36.1 66.8 36.15 L66.9 36.55 66.8 36.8 64.8 36.8 62.55 38.1 61.9 37.9 61.3 37.8 61.25 37.8 59.5 40.25 59.2 39.95 58.35 39.2 56.35 39.95 56.95 38.35 M69.9 27.6 L71.25 26.5 71.4 26.4 73.15 24.6 74.65 25.3 76.5 23.6 77.2 24.4 78.35 24.5 78.35 24.75 Q73.95 26.6 71.25 28.15 L71.4 27.8 69.9 27.8 69.9 27.6 M81.2 21.9 Q81.05 20.65 80.8 20.65 80.5 20.65 79.15 19.95 L80.8 19.15 79.55 17.0 80.8 15.7 80.8 16.1 82.55 14.35 83.05 14.45 83.5 14.7 84.35 14.1 85.2 13.5 85.0 14.75 84.9 15.35 86.15 15.1 86.5 15.0 87.2 14.9 87.9 14.95 86.95 15.65 86.1 16.1 87.5 17.75 86.55 18.0 87.6 19.05 87.9 19.35 87.3 19.95 89.3 20.65 88.5 21.1 Q88.35 21.2 88.15 21.25 L89.0 22.2 89.3 22.8 88.35 23.15 86.4 23.6 86.1 24.4 85.1 24.5 85.55 22.5 84.1 23.35 83.45 21.75 82.55 22.5 81.2 21.9 M83.5 14.75 L83.25 14.9 83.35 14.85 83.5 14.75 83.5 14.7 83.5 14.75 83.35 14.85 83.25 14.9 83.5 14.75 M62.55 52.6 L62.6 52.6 63.35 51.5 64.0 50.6 66.3 49.6 67.45 48.5 67.5 49.7 Q67.5 50.7 67.65 50.6 L68.3 50.55 68.8 50.6 68.1 52.25 69.6 52.25 69.55 52.5 69.6 52.9 69.6 53.1 69.75 53.9 69.8 54.3 68.85 54.95 63.0 55.3 62.95 53.85 62.85 53.5 62.55 52.6 M78.85 26.15 L78.85 26.75 79.75 27.4 79.5 28.4 79.45 28.8 80.0 29.5 77.6 30.4 77.6 31.7 75.25 31.25 75.85 32.9 73.05 32.75 73.15 31.25 74.65 31.1 72.25 30.15 72.3 29.5 72.25 29.5 Q75.4 27.65 78.85 26.15 M79.5 28.4 L79.15 28.4 79.45 28.8 79.15 28.4 79.5 28.4 M63.85 33.2 L63.95 33.2 63.85 33.2" fill="#86fdb9" fill-rule="evenodd" stroke="none"/>
    <path d="M107.1 47.45 Q108.8 47.55 110.0 48.75 111.3 50.05 111.3 51.9 111.3 53.75 110.0 55.0 108.7 56.3 106.85 56.3 105.0 56.3 103.7 55.0 102.4 53.75 102.4 51.9 L102.55 50.75 Q102.85 49.6 103.7 48.75 104.15 48.3 104.7 48.0 105.3 47.65 106.0 47.55 L106.0 50.1 106.0 51.45 106.85 51.9 106.95 49.9 Q107.65 49.95 108.2 50.45 L108.25 50.5 Q108.8 51.05 108.8 51.9 108.8 52.7 108.25 53.25 107.65 53.85 106.85 53.85 106.05 53.85 105.5 53.25 105.05 52.85 104.95 52.35 L104.9 51.9 Q104.9 51.1 105.5 50.5 L106.0 50.1 105.5 50.5 Q104.9 51.1 104.9 51.9 L104.95 52.35 Q105.05 52.85 105.5 53.25 106.05 53.85 106.85 53.85 107.65 53.85 108.25 53.25 108.8 52.7 108.8 51.9 108.8 51.05 108.25 50.5 L108.2 50.45 Q107.65 49.95 106.95 49.9 L107.1 47.45 M71.35 53.6 L71.0 56.45 27.75 55.7 27.55 55.7 26.0 53.45 Q25.85 54.7 25.05 55.65 L24.75 55.95 Q23.45 57.25 21.6 57.25 19.75 57.25 18.45 55.95 17.15 54.65 17.15 52.8 17.15 50.95 18.45 49.7 19.75 48.4 21.6 48.4 23.45 48.4 24.75 49.7 25.7 50.65 26.0 51.9 L26.05 52.45 26.0 51.9 28.3 51.95 54.95 52.5 26.05 52.45 26.05 52.8 26.05 53.35 26.0 53.45 26.05 53.35 62.85 53.5 62.95 53.85 63.0 55.3 68.85 54.95 69.8 54.3 70.75 53.6 71.35 53.6 M23.4 52.8 Q23.4 52.05 22.9 51.55 22.35 51.0 21.6 51.0 20.8 51.0 20.3 51.55 19.75 52.05 19.75 52.8 19.75 53.6 20.3 54.1 20.8 54.65 21.6 54.65 22.35 54.65 22.9 54.1 23.4 53.6 23.4 52.8 23.4 53.6 22.9 54.1 22.35 54.65 21.6 54.65 20.8 54.65 20.3 54.1 19.75 53.6 19.75 52.8 19.75 52.05 20.3 51.55 20.8 51.0 21.6 51.0 22.35 51.0 22.9 51.55 23.4 52.05 23.4 52.8" fill="#050202" fill-rule="evenodd" stroke="none"/>
    <path d="M54.95 52.5 L62.55 52.6 62.85 53.5 26.05 53.35 26.05 52.8 26.05 52.45 54.95 52.5" fill="#9c9c9c" fill-rule="evenodd" stroke="none"/>
    <path d="M27.75 55.7 L27.65 55.85 27.55 55.7 27.75 55.7 M26.35 57.65 Q24.4 59.6 21.6 59.6 18.8 59.6 16.8 57.6 14.85 55.6 14.85 52.8 14.85 50.0 16.8 48.05 18.8 46.05 21.6 46.05 22.9 46.05 24.0 46.5 24.95 46.85 25.8 47.55 L26.35 48.05 Q27.35 49.05 27.85 50.25 L28.3 51.8 28.3 51.95 26.0 51.9 Q25.7 50.65 24.75 49.7 23.45 48.4 21.6 48.4 19.75 48.4 18.45 49.7 17.15 50.95 17.15 52.8 17.15 54.65 18.45 55.95 19.75 57.25 21.6 57.25 23.45 57.25 24.75 55.95 L25.05 55.65 26.35 57.65" fill="#c4c4c4" fill-rule="evenodd" stroke="none"/>
    <path d="M27.65 55.85 L30.15 59.55 Q30.75 59.1 31.55 59.1 32.65 59.1 33.4 59.9 L34.0 60.8 34.2 61.8 34.2 62.2 Q34.05 63.05 33.4 63.65 32.65 64.45 31.55 64.45 30.45 64.45 29.65 63.65 28.85 62.9 28.85 61.8 L28.9 61.45 26.35 57.65 25.05 55.65 Q25.85 54.7 26.0 53.45 L27.55 55.7 27.65 55.85 M30.15 59.55 L29.65 59.9 Q29.0 60.55 28.9 61.45 29.0 60.55 29.65 59.9 L30.15 59.55" fill="#536e69" fill-rule="evenodd" stroke="none"/>
    <path d="M74.15 0.5 L73.95 0.05 73.5 -1.5 75.05 -1.05 76.55 -2.25 78.85 -1.05 80.0 -1.9 81.65 -1.1 81.9 -1.0 82.45 -1.1 83.5 -1.35 83.5 -1.2 83.05 1.35 84.55 2.45 83.45 3.3 82.8 3.75 82.95 4.0 83.05 4.45 82.5 4.85 81.9 5.3 81.75 5.4 81.65 5.4 80.65 5.4 80.4 5.4 80.0 6.85 78.7 6.25 76.75 6.85 76.25 5.4 73.95 6.85 73.95 5.8 72.0 5.65 72.95 4.25 72.0 3.5 73.15 2.7 72.4 1.1 73.75 1.1 74.45 1.1 74.15 0.5 M86.55 33.65 L86.4 33.8 83.15 36.15 84.8 35.7 85.1 35.6 84.45 36.2 82.25 38.0 M82.9 39.15 L83.15 39.1 82.95 39.2 M79.15 42.4 L77.2 43.4 78.35 43.85 75.25 46.7 77.2 47.45 73.95 49.75 73.95 49.95 M40.4 26.75 L41.9 26.1 41.05 24.85 40.35 23.55 41.75 23.55 41.2 20.7 42.25 21.2 42.8 19.55 Q43.4 17.9 43.55 18.0 L44.95 20.25 46.25 18.0 47.55 19.3 49.65 18.55 48.6 19.3 51.3 18.9 51.3 19.75 53.0 18.55 52.65 20.25 56.3 20.25 58.15 19.4 58.55 20.25 59.9 19.25 Q61.2 18.25 61.2 18.55 L61.2 20.25 63.85 19.85 63.85 21.2 65.25 21.9 65.25 23.15 67.5 24.5 66.05 24.5 66.8 26.9 65.8 26.5 65.45 28.25 64.55 27.75 63.85 28.7 62.9 28.0 61.8 29.2 61.0 28.25 59.45 30.15 58.5 28.95 57.55 30.6 56.65 29.4 55.45 31.0 55.0 30.15 54.15 31.0 52.85 32.3 52.75 32.35 52.25 31.65 50.9 32.3 49.65 32.85 49.3 31.8 46.35 32.85 46.35 31.0 44.4 31.35 M56.95 38.35 L57.55 36.8 58.45 36.8 57.95 35.4 59.5 35.9 60.2 34.15 Q60.95 32.45 61.05 32.75 L61.25 33.15 63.4 31.1 63.5 31.3 63.6 31.9 63.6 32.05 M69.9 27.6 L71.25 26.5 71.4 26.4 73.15 24.6 74.65 25.3 76.5 23.6 77.2 24.4 78.35 24.5 78.35 24.75 78.35 25.5 78.85 25.5 78.85 26.15 78.85 26.75 79.75 27.4 79.5 28.4 79.45 28.8 80.0 29.5 77.6 30.4 77.6 31.7 75.25 31.25 75.85 32.9 73.05 32.75 73.15 31.25 74.65 31.1 72.25 30.15 72.3 29.5 72.25 29.5 71.65 29.45 71.55 29.4 70.7 29.5 71.25 28.15 71.4 27.8 69.9 27.8 69.9 27.6 M81.2 21.9 Q81.05 20.65 80.8 20.65 80.5 20.65 79.15 19.95 L80.8 19.15 79.55 17.0 80.8 15.7 80.8 16.1 82.55 14.35 83.05 14.45 83.5 14.7 83.5 14.75 83.35 14.85 83.25 14.9 83.5 14.75 M84.35 14.1 L85.2 13.5 85.0 14.75 84.9 15.35 86.15 15.1 86.5 15.0 87.2 14.9 87.9 14.95 86.95 15.65 86.1 16.1 87.5 17.75 86.55 18.0 87.6 19.05 87.9 19.35 87.3 19.95 89.3 20.65 88.5 21.1 Q88.35 21.2 88.15 21.25 L89.0 22.2 89.3 22.8 88.35 23.15 86.4 23.6 86.1 24.4 85.1 24.5 85.55 22.5 84.1 23.35 83.45 21.75 82.55 22.5 81.2 21.9 M83.55 27.8 L82.55 28.05 81.75 29.5 81.35 28.4 79.6 30.4 78.35 31.1 77.6 31.7 77.2 32.0 M86.55 33.65 L86.1 32.85 86.55 32.75 M73.4 38.4 L73.95 36.8 74.5 36.8 M44.35 31.3 L44.35 29.65 43.65 29.75 M66.9 36.55 L66.8 36.8 64.8 36.8 62.55 38.1 61.9 37.9 61.3 37.8 61.25 37.8 59.5 40.25 59.2 39.95 58.35 39.2 56.35 39.95 56.95 38.35 M62.55 52.6 L62.6 52.6 63.35 51.5 64.0 50.6 66.3 49.6 67.45 48.5 67.5 49.7 Q67.5 50.7 67.65 50.6 L68.3 50.55 68.8 50.6 68.1 52.25 69.6 52.25 69.55 52.5 69.6 52.9 69.6 53.1 69.75 53.9 69.8 54.3 68.85 54.95 63.0 55.3 62.95 53.85 62.85 53.5 62.55 52.6 M79.45 28.8 L79.15 28.4 79.5 28.4 M63.95 33.2 L64.0 33.15 64.85 33.25 65.5 33.65 64.8 34.65 64.85 34.65 65.5 34.4 66.8 35.6 66.8 35.8 66.75 35.85 Q66.7 36.1 66.8 36.15 L66.9 36.55 M63.95 33.2 L63.85 33.2 63.75 32.75 M73.4 38.4 L73.15 39.1 72.5 39.1 72.25 41.55 71.45 41.55 71.0 43.3" fill="none" stroke="#d6ffe8" stroke-linecap="round" stroke-linejoin="round" stroke-width="1.0"/>
    <path d="M107.1 47.45 Q108.8 47.55 110.0 48.75 111.3 50.05 111.3 51.9 111.3 53.75 110.0 55.0 108.7 56.3 106.85 56.3 105.0 56.3 103.7 55.0 102.4 53.75 102.4 51.9 L102.55 50.75 M71.35 53.6 L71.0 56.45 27.75 55.7 27.55 55.7 M73.75 1.1 L74.15 0.5 M106.0 50.1 L105.5 50.5 Q104.9 51.1 104.9 51.9 L104.95 52.35 Q105.05 52.85 105.5 53.25 106.05 53.85 106.85 53.85 107.65 53.85 108.25 53.25 108.8 52.7 108.8 51.9 108.8 51.05 108.25 50.5 L108.2 50.45 Q107.65 49.95 106.95 49.9 M28.3 51.95 L54.95 52.5 62.55 52.6 M26.05 53.35 L26.05 52.8 26.05 52.45 26.0 51.9 Q25.7 50.65 24.75 49.7 23.45 48.4 21.6 48.4 19.75 48.4 18.45 49.7 17.15 50.95 17.15 52.8 17.15 54.65 18.45 55.95 19.75 57.25 21.6 57.25 23.45 57.25 24.75 55.95 L25.05 55.65 Q25.85 54.7 26.0 53.45 L26.05 53.35 M28.3 51.95 L26.0 51.9 M23.4 52.8 Q23.4 53.6 22.9 54.1 22.35 54.65 21.6 54.65 20.8 54.65 20.3 54.1 19.75 53.6 19.75 52.8 19.75 52.05 20.3 51.55 20.8 51.0 21.6 51.0 22.35 51.0 22.9 51.55 23.4 52.05 23.4 52.8" fill="none" stroke="#707070" stroke-linecap="butt" stroke-linejoin="round" stroke-width="0.7000000000000001"/>
    <path d="M81.65 -1.1 L81.6 -1.55 82.45 -1.1 M83.5 -1.2 L84.4 -1.7 86.2 -0.25 87.35 -0.8 88.85 0.35 90.3 0.3 89.45 2.6 90.55 3.75 M91.2 25.95 L90.2 26.75 91.4 27.4 92.6 28.05 90.95 28.15 92.35 29.3 92.6 29.5 91.4 29.85 90.5 30.1 89.3 30.4 89.3 32.05 87.6 32.5 86.55 32.75 86.1 30.85 85.15 31.25 83.45 29.5 84.15 29.3 85.1 29.2 84.15 28.3 83.55 27.8 83.75 27.75 83.85 27.45 84.35 27.25 84.5 26.6 84.9 26.75 85.9 26.05 84.55 26.4 84.5 26.6 M82.6 39.2 L82.9 39.15 82.95 39.2 82.45 39.5 79.8 41.0 80.8 41.55 79.35 42.3 79.15 42.4 Q79.05 41.95 78.6 42.1 78.2 42.25 77.5 40.8 L77.25 40.25 76.55 38.1 75.25 38.55 74.5 36.8 75.25 36.8 75.25 36.2 75.25 34.7 75.25 33.85 76.25 34.8 77.2 32.05 77.2 32.0 78.35 33.15 78.65 33.3 78.85 33.75 78.85 35.4 78.9 35.4 80.45 34.85 80.8 36.8 81.35 37.75 82.25 38.0 Q81.15 38.85 81.75 39.1 L82.6 39.2 M73.95 49.95 L73.95 51.85 72.0 52.25 71.45 53.6 71.35 53.6 70.75 53.6 69.8 54.3 M-0.85 33.95 L-3.0 33.15 -4.45 32.0 -3.2 31.25 -3.35 28.8 -1.7 28.6 -1.75 27.0 -1.7 25.4 0.05 25.95 1.0 23.45 1.3 22.2 Q1.6 21.05 1.8 21.6 L2.55 23.15 4.65 21.1 5.15 19.4 Q5.75 17.85 6.55 18.6 L8.5 20.6 10.55 20.05 10.55 18.6 13.6 21.1 14.85 19.95 14.85 18.6 17.0 19.95 17.15 19.15 18.4 20.6 21.05 18.0 21.05 19.0 23.75 17.0 23.75 18.6 26.05 17.75 26.55 20.05 30.35 19.15 29.9 19.6 28.85 20.9 30.35 21.1 33.35 20.05 32.25 21.6 34.2 21.25 34.2 21.75 34.9 21.85 Q35.7 22.05 36.0 22.35 L37.0 23.6 38.15 23.15 40.4 26.75 43.35 29.0 43.65 29.75 43.85 30.4 44.35 31.3 44.4 31.35 45.15 33.15 45.55 35.4 44.85 35.75 44.3 36.0 Q42.9 33.15 39.55 30.15 32.95 24.15 23.4 23.6 15.0 23.1 7.45 27.25 2.2 30.15 -0.85 33.95 M63.5 31.3 L63.7 32.0 64.5 30.75 65.5 29.5 66.0 29.95 66.3 30.15 67.2 28.85 68.1 27.8 68.85 28.4 69.9 27.6 M77.2 24.4 L78.35 23.15 79.8 23.4 80.8 22.25 81.2 22.15 81.2 21.9 M86.25 6.1 L85.8 6.85 84.8 6.1 82.95 6.3 82.8 4.95 81.9 5.3 M81.65 5.4 L80.55 5.8 80.65 5.4 M86.05 25.9 L84.55 24.6 85.1 24.5 M91.2 25.95 Q89.4 25.3 88.45 25.5 L89.3 25.3 89.3 23.4 86.05 25.9 86.1 25.95 85.9 26.05 M83.65 27.5 L83.85 27.45 M79.5 28.4 L81.35 28.4 81.9 28.4 82.75 27.8 83.65 27.5 M73.05 32.75 L72.65 32.75 72.3 33.15 70.8 33.65 70.25 34.4 69.6 34.0 68.3 34.65 68.3 34.4 67.2 35.6 67.2 35.65 66.9 36.55 M63.6 32.05 L63.7 32.65 63.75 32.75 63.9 33.15 M71.0 43.3 L70.75 44.3 69.6 44.25 68.85 47.95 67.85 48.05 67.45 48.5 M71.0 43.3 L71.9 44.3 72.4 44.65 72.0 46.9 73.15 46.9 72.65 47.65 72.65 48.9 73.5 48.9 73.5 49.35 73.95 49.95" fill="none" stroke="#ffd6ef" stroke-linecap="round" stroke-linejoin="round" stroke-width="1.0"/>
    <path d="M83.45 3.3 L84.2 3.5 88.9 5.1 89.75 5.45 92.6 6.85" fill="none" stroke="#ffffff" stroke-linecap="butt" stroke-linejoin="miter-clip" stroke-miterlimit="4.0" stroke-width="0.7000000000000001"/>
    <path d="M106.0 19.4 L103.75 19.15 98.4 18.6 98.4 13.75 98.4 7.5 98.4 2.35 97.25 2.25 M126.25 4.25 L121.55 3.95 125.0 4.25 123.55 10.15 120.8 20.9 117.9 20.6 112.65 20.05 108.2 19.6 106.45 19.45 M115.0 2.25 L114.85 3.5 120.45 3.9 120.6 2.7 M114.85 3.5 L114.1 9.15 119.55 9.75 120.45 3.9 121.55 3.95 M109.7 3.1 L104.35 2.75 104.15 8.1 109.2 8.65 109.7 3.1 109.75 2.25 M104.4 1.6 L104.35 2.75 101.6 2.55 98.4 2.35 98.4 2.25 101.6 2.55 M112.65 20.05 L113.3 15.25 108.65 14.8 108.2 19.6 M104.15 8.1 L103.95 14.3 108.65 14.8 109.2 8.65 114.1 9.15 113.3 15.25 118.65 15.8 119.55 9.75 123.55 10.15 M103.75 19.15 L103.95 14.3 98.4 13.75 M117.9 20.6 L118.65 15.8 121.6 16.1 M109.7 3.1 L114.85 3.5 M98.4 7.5 L104.15 8.1" fill="none" stroke="#000000" stroke-linecap="round" stroke-linejoin="round" stroke-width="1.0"/>
    <path d="M91.4 27.4 Q97.55 23.7 106.0 23.35 M108.3 23.3 Q113.25 23.35 117.2 24.45 L115.35 26.75 Q111.8 25.95 108.15 25.9 M102.55 50.75 L98.0 47.15 Q90.15 40.3 87.8 33.0 L87.65 32.55 86.55 33.65 M86.4 33.8 L84.8 35.7 M84.45 36.2 L82.6 39.2 M82.45 39.5 Q80.55 43.4 79.65 48.4 L77.6 48.2 79.35 42.3 M27.7 46.0 L30.8 43.9 Q37.4 39.65 43.05 37.25 40.55 33.8 37.6 31.1 30.45 24.7 19.75 25.3 12.45 25.7 5.6 30.6 2.2 33.05 0.25 35.4 L-0.85 33.95 M54.15 31.0 L56.95 38.35 M106.0 25.95 L99.4 26.8 Q95.5 27.65 92.35 29.3 M91.4 29.85 L90.6 30.35 91.1 31.9 Q93.2 38.35 100.55 44.7 L104.7 48.0 M90.6 30.35 L90.5 30.1 M87.6 32.5 L87.65 32.55 M59.05 43.9 L58.95 43.6 Q64.6 40.15 69.05 39.0 L73.4 38.4 M50.9 32.3 L51.75 34.5 Q48.65 35.05 45.2 36.35 L43.05 37.25 M45.2 36.35 L44.85 35.75 M56.0 45.55 L58.35 51.8 42.35 52.0 28.3 51.8 M63.35 51.5 L62.05 51.65 59.6 45.3 M34.95 45.5 Q45.45 39.0 53.05 37.85 L55.45 44.15 M67.2 35.65 Q70.35 34.55 72.95 34.5 L75.25 34.7 M27.85 50.25 L32.45 47.1" fill="none" stroke="#406e8c" stroke-linecap="round" stroke-linejoin="round" stroke-width="0.65"/>
    <path d="M106.95 49.9 L106.85 51.9 M106.0 51.45 L106.0 50.1 106.0 47.55 M106.95 49.9 L107.1 47.45" fill="none" stroke="#000000" stroke-linecap="butt" stroke-linejoin="miter-clip" stroke-miterlimit="10.0" stroke-width="1.0"/>
    <path d="M88.5 21.1 L90.2 24.6" fill="none" stroke="#ffffff" stroke-linecap="round" stroke-linejoin="round" stroke-width="0.7000000000000001"/>
    <path d="M52.85 32.3 L57.4 44.0 M75.25 36.2 L71.95 36.4 Q66.65 37.3 59.5 41.15 M59.2 39.95 L58.35 41.0 M57.95 45.4 L59.95 50.6 M30.5 45.8 Q33.9 43.1 41.15 39.95 46.25 37.8 50.8 36.3" fill="none" stroke="#bfe0f7" stroke-linecap="round" stroke-linejoin="round" stroke-width="0.65"/>
    <path d="M27.75 55.7 L27.65 55.85 M26.35 57.65 Q24.4 59.6 21.6 59.6 18.8 59.6 16.8 57.6 14.85 55.6 14.85 52.8 14.85 50.0 16.8 48.05 18.8 46.05 21.6 46.05 22.9 46.05 24.0 46.5 24.95 46.85 25.8 47.55 L26.35 48.05 Q27.35 49.05 27.85 50.25 L28.3 51.8 28.3 51.95" fill="none" stroke="#050202" stroke-linecap="butt" stroke-linejoin="round" stroke-width="0.7000000000000001"/>
    <path d="M27.65 55.85 L30.15 59.55 Q30.75 59.1 31.55 59.1 32.65 59.1 33.4 59.9 L34.0 60.8 34.2 61.8 34.2 62.2 Q34.05 63.05 33.4 63.65 32.65 64.45 31.55 64.45 30.45 64.45 29.65 63.65 28.85 62.9 28.85 61.8 L28.9 61.45 26.35 57.65 25.05 55.65 M28.9 61.45 Q29.0 60.55 29.65 59.9 L30.15 59.55 M27.65 55.85 L27.55 55.7 26.0 53.45" fill="none" stroke="#415450" stroke-linecap="butt" stroke-linejoin="round" stroke-width="0.7000000000000001"/>
    <path d="M90.55 3.75 L90.65 3.4 91.0 3.1 91.45 3.15 95.55 5.3 Q96.15 5.65 95.9 6.2 L93.7 11.3 Q93.4 11.85 92.85 11.55 L92.35 11.3 M85.2 13.5 L85.55 13.25 Q87.5 11.6 89.0 9.55" fill="none" stroke="#707070" stroke-linecap="butt" stroke-linejoin="round" stroke-width="0.7000000000000001"/>
    <path d="M92.35 11.3 Q90.45 14.0 87.85 16.2 L87.6 16.45 87.9 17.75 87.7 18.9 88.3 18.65 88.95 18.65 89.35 19.0 91.8 25.05 Q92.05 25.6 91.2 25.95 M89.0 9.55 L88.75 9.4 Q88.2 9.15 88.4 8.5 L89.0 7.15 86.25 6.1 84.95 5.65 82.8 4.95 82.5 4.85 M89.0 7.15 Q90.55 7.8 91.55 8.4 92.7 8.25 93.25 7.25 93.6 6.65 93.45 5.85 L93.2 5.2 90.5 3.8 90.55 3.75 M86.95 15.65 L87.6 16.45 M87.7 18.9 L87.6 19.05 M86.15 15.1 Q85.65 14.8 85.0 14.75 M92.35 11.3 L89.0 9.55 M83.65 27.5 L83.75 27.75" fill="none" stroke="#707070" stroke-linecap="round" stroke-linejoin="round" stroke-width="0.7000000000000001"/>
    <path d="M106.0 23.35 L106.0 19.4 106.0 19.35 106.45 19.45 108.45 19.75 108.3 23.3 108.15 25.9 M106.0 25.95 L106.0 23.35" fill="none" stroke="#000000" stroke-linecap="round" stroke-linejoin="miter-clip" stroke-miterlimit="10.0" stroke-width="1.0"/>
    <path d="M108.15 25.9 L107.1 47.45" fill="none" stroke="#000000" stroke-linecap="round" stroke-linejoin="miter-clip" stroke-miterlimit="10.0" stroke-width="1.0"/>
    <path d="M83.5 14.7 L84.35 14.1 M90.5 3.8 Q87.3 2.3 83.05 1.35 M104.7 48.0 Q105.3 47.65 106.0 47.55 M104.7 48.0 Q104.15 48.3 103.7 48.75 102.85 49.6 102.55 50.75" fill="none" stroke="#707070" stroke-linecap="round" stroke-linejoin="round" stroke-width="0.7000000000000001"/>
    <path d="M87.2 14.9 Q89.55 13.0 90.6 11.3" fill="none" stroke="#ffffff" stroke-linecap="round" stroke-linejoin="miter-clip" stroke-miterlimit="4.0" stroke-width="0.7000000000000001"/>
    <path d="M106.0 47.55 L106.0 25.95" fill="none" stroke="#000000" stroke-linecap="butt" stroke-linejoin="miter-clip" stroke-miterlimit="10.0" stroke-width="1.0"/>
  </g>
</svg>
