<?xml version="1.0" encoding="UTF-8" standalone="no"?>
<svg xmlns:ffdec="https://www.free-decompiler.com/flash" xmlns:xlink="http://www.w3.org/1999/xlink" ffdec:objectType="shape" height="53.15px" width="53.15px" xmlns="http://www.w3.org/2000/svg">
  <g transform="matrix(1.0, 0.0, 0.0, 1.0, 0.2, 0.0)">
    <path d="M28.25 11.15 L32.45 12.55 Q37.05 14.5 38.75 17.1 L37.6 18.5 34.05 17.65 Q30.0 16.2 27.45 13.15 L28.25 11.15" fill="#e6e6e6" fill-opacity="0.8" fill-rule="evenodd" stroke="none"/>
    <path d="M28.25 11.15 L32.45 12.55 Q37.05 14.5 38.75 17.1 L37.6 18.5 34.05 17.65 Q30.0 16.2 27.45 13.15 L28.25 11.15 Z" fill="none" stroke="#ffffff" stroke-linecap="round" stroke-linejoin="round" stroke-width="1.0"/>
    <path d="M26.35 26.55 L26.35 49.05" fill="none" stroke="#75462f" stroke-linecap="butt" stroke-linejoin="round" stroke-width="0.7000000000000001"/>
    <path d="M26.35 26.55 L36.8 46.5" fill="none" stroke="#75462f" stroke-linecap="butt" stroke-linejoin="round" stroke-width="0.7000000000000001"/>
    <path d="M26.35 26.55 L44.9 39.35" fill="none" stroke="#75462f" stroke-linecap="butt" stroke-linejoin="round" stroke-width="0.7000000000000001"/>
    <path d="M26.35 26.55 L48.7 29.25" fill="none" stroke="#75462f" stroke-linecap="butt" stroke-linejoin="round" stroke-width="0.7000000000000001"/>
    <path d="M26.35 26.55 L47.4 18.6" fill="none" stroke="#75462f" stroke-linecap="butt" stroke-linejoin="round" stroke-width="0.7000000000000001"/>
    <path d="M26.35 26.55 L41.3 9.75" fill="none" stroke="#75462f" stroke-linecap="butt" stroke-linejoin="round" stroke-width="0.7000000000000001"/>
    <path d="M26.35 26.55 L31.75 4.75" fill="none" stroke="#75462f" stroke-linecap="butt" stroke-linejoin="round" stroke-width="0.7000000000000001"/>
    <path d="M26.35 26.55 L21.0 4.75" fill="none" stroke="#75462f" stroke-linecap="butt" stroke-linejoin="round" stroke-width="0.7000000000000001"/>
    <path d="M26.35 26.55 L11.45 9.75" fill="none" stroke="#75462f" stroke-linecap="butt" stroke-linejoin="round" stroke-width="0.7000000000000001"/>
    <path d="M26.35 26.55 L5.3 18.6" fill="none" stroke="#75462f" stroke-linecap="butt" stroke-linejoin="round" stroke-width="0.7000000000000001"/>
    <path d="M26.35 26.55 L4.05 29.25" fill="none" stroke="#75462f" stroke-linecap="butt" stroke-linejoin="round" stroke-width="0.7000000000000001"/>
    <path d="M26.35 26.55 L7.85 39.35" fill="none" stroke="#75462f" stroke-linecap="butt" stroke-linejoin="round" stroke-width="0.7000000000000001"/>
    <path d="M26.35 26.55 L15.9 46.5" fill="none" stroke="#75462f" stroke-linecap="butt" stroke-linejoin="round" stroke-width="0.7000000000000001"/>
    <path d="M17.75 6.15 Q13.75 7.8 10.65 10.9 7.6 13.95 5.9 17.95 4.15 22.05 4.15 26.55 4.15 31.1 5.9 35.2 7.6 39.2 10.65 42.25 13.75 45.35 17.75 47.0 21.85 48.75 26.35 48.75 30.9 48.75 35.0 47.0 39.0 45.35 42.05 42.25 45.1 39.2 46.8 35.2 48.55 31.1 48.55 26.55 48.55 22.05 46.8 17.95 45.1 13.95 42.05 10.9 39.0 7.8 35.0 6.15 30.9 4.4 26.35 4.4 21.85 4.4 17.75 6.15 M44.65 8.3 Q52.25 15.85 52.25 26.55 52.25 37.3 44.65 44.85 37.1 52.45 26.35 52.45 15.65 52.45 8.05 44.85 0.5 37.3 0.5 26.55 0.5 15.85 8.05 8.3 15.65 0.7 26.35 0.7 37.05 0.7 44.65 8.3" fill="#d89072" fill-rule="evenodd" stroke="none"/>
    <path d="M17.75 6.15 Q13.75 7.8 10.65 10.9 7.6 13.95 5.9 17.95 4.15 22.05 4.15 26.55 4.15 31.1 5.9 35.2 7.6 39.2 10.65 42.25 13.75 45.35 17.75 47.0 21.85 48.75 26.35 48.75 30.9 48.75 35.0 47.0 39.0 45.35 42.05 42.25 45.1 39.2 46.8 35.2 48.55 31.1 48.55 26.55 48.55 22.05 46.8 17.95 45.1 13.95 42.05 10.9 39.0 7.8 35.0 6.15 30.9 4.4 26.35 4.4 21.85 4.4 17.75 6.15 M44.65 8.3 Q52.25 15.85 52.25 26.55 52.25 37.3 44.65 44.85 37.1 52.45 26.35 52.45 15.65 52.45 8.05 44.85 0.5 37.3 0.5 26.55 0.5 15.85 8.05 8.3 15.65 0.7 26.35 0.7 37.05 0.7 44.65 8.3 Z" fill="none" stroke="#d8551e" stroke-linecap="butt" stroke-linejoin="miter-clip" stroke-miterlimit="4.0" stroke-width="0.7000000000000001"/>
    <path d="M44.65 8.3 Q37.05 0.7 26.35 0.7 15.65 0.7 8.05 8.3 0.5 15.85 0.5 26.55 0.5 37.3 8.05 44.85 15.65 52.45 26.35 52.45 37.1 52.45 44.65 44.85 52.25 37.3 52.25 26.55 52.25 15.85 44.65 8.3 M26.35 0.0 Q37.35 0.0 45.15 7.8 52.95 15.55 52.95 26.55 52.95 37.55 45.15 45.35 37.35 53.15 26.35 53.15 15.35 53.15 7.6 45.35 -0.2 37.55 -0.2 26.55 -0.2 15.55 7.6 7.8 15.35 0.0 26.35 0.0" fill="#282320" fill-rule="evenodd" stroke="none"/>
    <path d="M26.35 1.05 Q36.55 1.05 43.95 8.1 51.35 15.1 51.85 25.25 L50.55 28.05 50.6 26.55 Q50.6 21.65 48.7 17.15 46.85 12.85 43.5 9.45 40.15 6.1 35.8 4.25 31.3 2.35 26.35 2.35 21.4 2.35 16.9 4.25 12.55 6.1 9.25 9.45 5.9 12.8 4.05 17.15 2.15 21.65 2.15 26.55 L2.25 28.55 0.85 25.8 Q1.2 15.45 8.6 8.25 16.0 1.05 26.35 1.05" fill="#fff4d1" fill-rule="evenodd" stroke="none"/>
    <path d="M43.5 43.7 Q46.6 40.6 48.4 36.65 50.25 32.55 50.55 28.05 L51.85 25.25 51.9 26.55 Q51.9 37.15 44.4 44.6 36.95 52.1 26.35 52.1 15.8 52.1 8.3 44.6 0.85 37.15 0.85 26.55 L0.85 25.8 2.25 28.55 Q2.9 37.35 9.25 43.7 12.6 47.05 16.9 48.9 21.45 50.8 26.35 50.8 31.25 50.8 35.8 48.9 40.1 47.05 43.5 43.7" fill="#ffe48b" fill-rule="evenodd" stroke="none"/>
    <path d="M26.5 39.0 Q26.5 38.4 25.9 38.4 25.3 38.4 25.3 39.0 25.3 39.65 25.9 39.65 26.5 39.65 26.5 39.0 M24.75 42.75 Q24.75 42.15 24.15 42.15 23.55 42.15 23.55 42.75 23.55 43.4 24.15 43.4 24.75 43.4 24.75 42.75 M19.25 44.35 Q19.25 45.0 19.85 45.0 20.5 45.0 20.5 44.35 20.5 43.75 19.85 43.75 19.25 43.75 19.25 44.35 M13.75 38.1 Q13.15 38.1 13.15 38.7 13.15 39.3 13.75 39.3 14.4 39.3 14.4 38.7 14.4 38.1 13.75 38.1 M16.0 42.75 Q16.0 42.15 15.4 42.15 14.8 42.15 14.8 42.75 14.8 43.4 15.4 43.4 16.0 43.4 16.0 42.75 M14.15 32.7 Q16.5 30.35 19.85 30.35 23.2 30.35 25.55 32.7 27.95 35.05 27.95 38.4 27.95 41.75 25.55 44.1 23.2 46.45 19.85 46.45 16.5 46.45 14.15 44.1 11.8 41.75 11.8 38.4 11.8 35.05 14.15 32.7 M19.85 31.7 Q19.25 31.7 19.25 32.3 19.25 32.9 19.85 32.9 20.5 32.9 20.5 32.3 20.5 31.7 19.85 31.7 M19.85 34.4 Q18.2 34.4 17.05 35.6 15.9 36.75 15.9 38.4 15.9 40.05 17.05 41.25 18.2 42.4 19.85 42.4 21.5 42.4 22.7 41.25 23.85 40.05 23.85 38.4 23.85 36.75 22.7 35.6 21.5 34.4 19.85 34.4 M15.4 33.8 Q14.8 33.8 14.8 34.4 14.8 35.05 15.4 35.05 16.0 35.05 16.0 34.4 16.0 33.8 15.4 33.8 M24.15 35.05 Q24.75 35.05 24.75 34.4 24.75 33.8 24.15 33.8 23.55 33.8 23.55 34.4 23.55 35.05 24.15 35.05" fill="#efaa88" fill-rule="evenodd" stroke="none"/>
    <path d="M24.15 35.05 Q23.55 35.05 23.55 34.4 23.55 33.8 24.15 33.8 24.75 33.8 24.75 34.4 24.75 35.05 24.15 35.05 M15.4 33.8 Q16.0 33.8 16.0 34.4 16.0 35.05 15.4 35.05 14.8 35.05 14.8 34.4 14.8 33.8 15.4 33.8 M19.85 34.4 Q21.5 34.4 22.7 35.6 23.85 36.75 23.85 38.4 23.85 40.05 22.7 41.25 21.5 42.4 19.85 42.4 18.2 42.4 17.05 41.25 15.9 40.05 15.9 38.4 15.9 36.75 17.05 35.6 18.2 34.4 19.85 34.4 M19.85 31.7 Q20.5 31.7 20.5 32.3 20.5 32.9 19.85 32.9 19.25 32.9 19.25 32.3 19.25 31.7 19.85 31.7 M14.15 32.7 Q11.8 35.05 11.8 38.4 11.8 41.75 14.15 44.1 16.5 46.45 19.85 46.45 23.2 46.45 25.55 44.1 27.95 41.75 27.95 38.4 27.95 35.05 25.55 32.7 23.2 30.35 19.85 30.35 16.5 30.35 14.15 32.7 M16.0 42.75 Q16.0 43.4 15.4 43.4 14.8 43.4 14.8 42.75 14.8 42.15 15.4 42.15 16.0 42.15 16.0 42.75 M13.75 38.1 Q14.4 38.1 14.4 38.7 14.4 39.3 13.75 39.3 13.15 39.3 13.15 38.7 13.15 38.1 13.75 38.1 M19.25 44.35 Q19.25 43.75 19.85 43.75 20.5 43.75 20.5 44.35 20.5 45.0 19.85 45.0 19.25 45.0 19.25 44.35 M24.75 42.75 Q24.75 43.4 24.15 43.4 23.55 43.4 23.55 42.75 23.55 42.15 24.15 42.15 24.75 42.15 24.75 42.75 M26.5 39.0 Q26.5 39.65 25.9 39.65 25.3 39.65 25.3 39.0 25.3 38.4 25.9 38.4 26.5 38.4 26.5 39.0 Z" fill="none" stroke="#b34a17" stroke-linecap="butt" stroke-linejoin="miter-clip" stroke-miterlimit="10.0" stroke-width="0.5"/>
    <path d="M30.9 40.45 Q30.9 41.1 31.5 41.1 32.15 41.1 32.15 40.45 L31.95 40.05 31.5 39.85 31.1 40.05 30.9 40.45 M30.5 36.4 Q30.5 35.8 29.9 35.8 29.25 35.8 29.25 36.4 29.25 37.0 29.9 37.0 30.5 37.0 30.5 36.4 M30.9 32.1 Q30.9 32.75 31.5 32.75 32.15 32.75 32.15 32.1 32.15 31.5 31.5 31.5 30.9 31.5 30.9 32.1 M36.0 42.7 Q36.6 42.7 36.6 42.05 36.6 41.45 36.0 41.45 35.35 41.45 35.35 42.05 35.35 42.7 36.0 42.7 M40.7 40.05 L40.25 39.85 39.85 40.05 39.65 40.45 39.85 40.9 Q40.0 41.1 40.25 41.1 40.9 41.1 40.9 40.45 L40.7 40.05 M36.0 28.05 Q39.35 28.05 41.7 30.4 44.05 32.75 44.05 36.1 44.05 39.45 41.7 41.8 39.35 44.15 36.0 44.15 32.65 44.15 30.3 41.8 27.95 39.45 27.95 36.1 27.95 32.75 30.3 30.4 32.65 28.05 36.0 28.05 M42.0 36.1 L41.6 36.3 41.4 36.7 41.6 37.15 Q41.75 37.35 42.0 37.35 42.65 37.35 42.65 36.7 L42.45 36.3 42.0 36.1 M39.85 32.55 Q40.0 32.75 40.25 32.75 40.9 32.75 40.9 32.1 40.9 31.5 40.25 31.5 39.65 31.5 39.65 32.1 L39.85 32.55 M36.0 32.1 Q34.35 32.1 33.2 33.3 32.0 34.45 32.0 36.1 32.0 37.75 33.2 38.95 34.35 40.1 36.0 40.1 37.65 40.1 38.85 38.95 40.0 37.75 40.0 36.1 40.0 34.45 38.85 33.3 37.65 32.1 36.0 32.1 M36.6 30.0 Q36.6 29.4 36.0 29.4 35.35 29.4 35.35 30.0 35.35 30.65 36.0 30.65 36.6 30.65 36.6 30.0" fill="#efaa88" fill-rule="evenodd" stroke="none"/>
    <path d="M36.6 30.0 Q36.6 30.65 36.0 30.65 35.35 30.65 35.35 30.0 35.35 29.4 36.0 29.4 36.6 29.4 36.6 30.0 M36.0 32.1 Q37.65 32.1 38.85 33.3 40.0 34.45 40.0 36.1 40.0 37.75 38.85 38.95 37.65 40.1 36.0 40.1 34.35 40.1 33.2 38.95 32.0 37.75 32.0 36.1 32.0 34.45 33.2 33.3 34.35 32.1 36.0 32.1 M39.85 32.55 L39.65 32.1 Q39.65 31.5 40.25 31.5 40.9 31.5 40.9 32.1 40.9 32.75 40.25 32.75 40.0 32.75 39.85 32.55 M42.0 36.1 L42.45 36.3 42.65 36.7 Q42.65 37.35 42.0 37.35 41.75 37.35 41.6 37.15 L41.4 36.7 41.6 36.3 42.0 36.1 M36.0 28.05 Q32.65 28.05 30.3 30.4 27.95 32.75 27.95 36.1 27.95 39.45 30.3 41.8 32.65 44.15 36.0 44.15 39.35 44.15 41.7 41.8 44.05 39.45 44.05 36.1 44.05 32.75 41.7 30.4 39.35 28.05 36.0 28.05 M40.7 40.05 L40.9 40.45 Q40.9 41.1 40.25 41.1 40.0 41.1 39.85 40.9 L39.65 40.45 39.85 40.05 40.25 39.85 40.7 40.05 M36.0 42.7 Q35.35 42.7 35.35 42.05 35.35 41.45 36.0 41.45 36.6 41.45 36.6 42.05 36.6 42.7 36.0 42.7 M30.9 32.1 Q30.9 31.5 31.5 31.5 32.15 31.5 32.15 32.1 32.15 32.75 31.5 32.75 30.9 32.75 30.9 32.1 M30.5 36.4 Q30.5 37.0 29.9 37.0 29.25 37.0 29.25 36.4 29.25 35.8 29.9 35.8 30.5 35.8 30.5 36.4 M30.9 40.45 L31.1 40.05 31.5 39.85 31.95 40.05 32.15 40.45 Q32.15 41.1 31.5 41.1 30.9 41.1 30.9 40.45 Z" fill="none" stroke="#b34a17" stroke-linecap="butt" stroke-linejoin="miter-clip" stroke-miterlimit="10.0" stroke-width="0.5"/>
    <path d="M34.0 25.15 Q34.6 25.15 34.6 24.55 34.6 23.9 34.0 23.9 33.4 23.9 33.4 24.55 33.4 25.15 34.0 25.15 M38.45 26.75 Q39.1 26.75 39.1 26.15 39.1 25.5 38.45 25.5 37.85 25.5 37.85 26.15 37.85 26.75 38.45 26.75 M42.75 25.15 Q43.35 25.15 43.35 24.55 43.35 23.9 42.75 23.9 42.15 23.9 42.15 24.55 42.15 25.15 42.75 25.15 M42.75 16.8 Q43.35 16.8 43.35 16.2 43.35 15.55 42.75 15.55 42.15 15.55 42.15 16.2 42.15 16.8 42.75 16.8 M44.5 21.4 Q45.1 21.4 45.1 20.8 45.1 20.15 44.5 20.15 43.9 20.15 43.9 20.8 43.9 21.4 44.5 21.4 M32.75 14.45 Q35.1 12.1 38.45 12.1 41.8 12.1 44.15 14.45 46.55 16.8 46.55 20.15 46.55 23.5 44.15 25.85 41.8 28.25 38.45 28.25 35.1 28.25 32.75 25.85 30.4 23.5 30.4 20.15 30.4 16.8 32.75 14.45 M34.0 15.55 Q33.4 15.55 33.4 16.2 33.4 16.8 34.0 16.8 34.6 16.8 34.6 16.2 34.6 15.55 34.0 15.55 M38.45 13.45 Q37.85 13.45 37.85 14.1 37.85 14.7 38.45 14.7 L38.9 14.5 39.1 14.1 Q39.1 13.45 38.45 13.45 M41.3 17.35 Q40.1 16.2 38.45 16.2 36.8 16.2 35.65 17.35 34.45 18.5 34.45 20.15 34.45 21.8 35.65 23.0 36.8 24.15 38.45 24.15 40.1 24.15 41.3 23.0 42.45 21.8 42.45 20.15 42.45 18.5 41.3 17.35 M31.75 20.45 L31.95 20.9 Q32.1 21.1 32.35 21.1 33.0 21.1 33.0 20.45 33.0 19.85 32.35 19.85 L31.95 20.05 31.75 20.45" fill="#efaa88" fill-rule="evenodd" stroke="none"/>
    <path d="M31.75 20.45 L31.95 20.05 32.35 19.85 Q33.0 19.85 33.0 20.45 33.0 21.1 32.35 21.1 32.1 21.1 31.95 20.9 L31.75 20.45 M41.3 17.35 Q42.45 18.5 42.45 20.15 42.45 21.8 41.3 23.0 40.1 24.15 38.45 24.15 36.8 24.15 35.65 23.0 34.45 21.8 34.45 20.15 34.45 18.5 35.65 17.35 36.8 16.2 38.45 16.2 40.1 16.2 41.3 17.35 M38.45 13.45 Q39.1 13.45 39.1 14.1 L38.9 14.5 38.45 14.7 Q37.85 14.7 37.85 14.1 37.85 13.45 38.45 13.45 M34.0 15.55 Q34.6 15.55 34.6 16.2 34.6 16.8 34.0 16.8 33.4 16.8 33.4 16.2 33.4 15.55 34.0 15.55 M32.75 14.45 Q30.4 16.8 30.4 20.15 30.4 23.5 32.75 25.85 35.1 28.25 38.45 28.25 41.8 28.25 44.15 25.85 46.55 23.5 46.55 20.15 46.55 16.8 44.15 14.45 41.8 12.1 38.45 12.1 35.1 12.1 32.75 14.45 M44.5 21.4 Q43.9 21.4 43.9 20.8 43.9 20.15 44.5 20.15 45.1 20.15 45.1 20.8 45.1 21.4 44.5 21.4 M42.75 16.8 Q42.15 16.8 42.15 16.2 42.15 15.55 42.75 15.55 43.35 15.55 43.35 16.2 43.35 16.8 42.75 16.8 M42.75 25.15 Q42.15 25.15 42.15 24.55 42.15 23.9 42.75 23.9 43.35 23.9 43.35 24.55 43.35 25.15 42.75 25.15 M38.45 26.75 Q37.85 26.75 37.85 26.15 37.85 25.5 38.45 25.5 39.1 25.5 39.1 26.15 39.1 26.75 38.45 26.75 M34.0 25.15 Q33.4 25.15 33.4 24.55 33.4 23.9 34.0 23.9 34.6 23.9 34.6 24.55 34.6 25.15 34.0 25.15 Z" fill="none" stroke="#b34a17" stroke-linecap="butt" stroke-linejoin="miter-clip" stroke-miterlimit="10.0" stroke-width="0.5"/>
    <path d="M24.2 19.5 Q24.8 19.5 24.8 18.9 24.8 18.25 24.2 18.25 23.6 18.25 23.6 18.9 23.6 19.5 24.2 19.5 M28.5 17.9 Q29.1 17.9 29.1 17.3 L28.9 16.85 28.5 16.65 Q27.85 16.65 27.85 17.3 27.85 17.9 28.5 17.9 M30.25 14.15 Q30.85 14.15 30.85 13.55 L30.65 13.1 30.25 12.9 Q29.6 12.9 29.6 13.55 29.6 14.15 30.25 14.15 M19.75 17.9 Q20.35 17.9 20.35 17.3 L20.15 16.85 19.75 16.65 Q19.1 16.65 19.1 17.3 19.1 17.9 19.75 17.9 M18.1 13.85 Q18.7 13.85 18.7 13.2 18.7 12.6 18.1 12.6 17.5 12.6 17.5 13.2 17.5 13.85 18.1 13.85 M19.75 8.3 Q19.1 8.3 19.1 8.95 19.1 9.55 19.75 9.55 20.0 9.55 20.15 9.35 L20.35 8.95 20.15 8.5 19.75 8.3 M24.2 4.85 Q27.55 4.85 29.9 7.2 32.25 9.55 32.25 12.9 32.25 16.25 29.9 18.6 27.55 21.0 24.2 21.0 20.85 21.0 18.5 18.6 16.15 16.25 16.15 12.9 16.15 9.55 18.5 7.2 20.85 4.85 24.2 4.85 M27.85 8.95 Q27.85 9.55 28.5 9.55 L28.9 9.35 29.1 8.95 28.9 8.5 28.5 8.3 Q27.85 8.3 27.85 8.95 M27.05 10.1 Q25.85 8.95 24.2 8.95 22.55 8.95 21.4 10.1 20.2 11.25 20.2 12.9 20.2 14.55 21.4 15.75 22.55 16.9 24.2 16.9 25.85 16.9 27.05 15.75 28.2 14.55 28.2 12.9 28.2 11.25 27.05 10.1 M23.6 6.85 Q23.6 7.45 24.2 7.45 24.8 7.45 24.8 6.85 24.8 6.2 24.2 6.2 23.6 6.2 23.6 6.85" fill="#efaa88" fill-rule="evenodd" stroke="none"/>
    <path d="M23.6 6.85 Q23.6 6.2 24.2 6.2 24.8 6.2 24.8 6.85 24.8 7.45 24.2 7.45 23.6 7.45 23.6 6.85 M27.05 10.1 Q28.2 11.25 28.2 12.9 28.2 14.55 27.05 15.75 25.85 16.9 24.2 16.9 22.55 16.9 21.4 15.75 20.2 14.55 20.2 12.9 20.2 11.25 21.4 10.1 22.55 8.95 24.2 8.95 25.85 8.95 27.05 10.1 M27.85 8.95 Q27.85 8.3 28.5 8.3 L28.9 8.5 29.1 8.95 28.9 9.35 28.5 9.55 Q27.85 9.55 27.85 8.95 M24.2 4.85 Q20.85 4.85 18.5 7.2 16.15 9.55 16.15 12.9 16.15 16.25 18.5 18.6 20.85 21.0 24.2 21.0 27.55 21.0 29.9 18.6 32.25 16.25 32.25 12.9 32.25 9.55 29.9 7.2 27.55 4.85 24.2 4.85 M19.75 8.3 L20.15 8.5 20.35 8.95 20.15 9.35 Q20.0 9.55 19.75 9.55 19.1 9.55 19.1 8.95 19.1 8.3 19.75 8.3 M18.1 13.85 Q17.5 13.85 17.5 13.2 17.5 12.6 18.1 12.6 18.7 12.6 18.7 13.2 18.7 13.85 18.1 13.85 M19.75 17.9 Q19.1 17.9 19.1 17.3 19.1 16.65 19.75 16.65 L20.15 16.85 20.35 17.3 Q20.35 17.9 19.75 17.9 M30.25 14.15 Q29.6 14.15 29.6 13.55 29.6 12.9 30.25 12.9 L30.65 13.1 30.85 13.55 Q30.85 14.15 30.25 14.15 M28.5 17.9 Q27.85 17.9 27.85 17.3 27.85 16.65 28.5 16.65 L28.9 16.85 29.1 17.3 Q29.1 17.9 28.5 17.9 M24.2 19.5 Q23.6 19.5 23.6 18.9 23.6 18.25 24.2 18.25 24.8 18.25 24.8 18.9 24.8 19.5 24.2 19.5 Z" fill="none" stroke="#b34a17" stroke-linecap="butt" stroke-linejoin="miter-clip" stroke-miterlimit="10.0" stroke-width="0.5"/>
    <path d="M7.85 28.7 Q8.45 28.7 8.45 28.1 8.45 27.5 7.85 27.5 7.2 27.5 7.2 28.1 7.2 28.7 7.85 28.7 M7.85 19.15 Q7.2 19.15 7.2 19.75 7.2 20.35 7.85 20.35 8.45 20.35 8.45 19.75 8.45 19.15 7.85 19.15 M6.85 24.05 Q6.85 23.4 6.2 23.4 5.6 23.4 5.6 24.05 5.6 24.65 6.2 24.65 L6.65 24.45 6.85 24.05 M15.95 28.1 Q15.95 28.7 16.6 28.7 17.2 28.7 17.2 28.1 17.2 27.5 16.6 27.5 15.95 27.5 15.95 28.1 M12.3 30.3 Q12.9 30.3 12.9 29.7 12.9 29.1 12.3 29.1 11.7 29.1 11.7 29.7 11.7 30.3 12.3 30.3 M18.35 24.95 Q18.95 24.95 18.95 24.35 18.95 23.75 18.35 23.75 17.7 23.75 17.7 24.35 17.7 24.95 18.35 24.95 M18.0 18.05 Q20.35 20.4 20.35 23.75 20.35 27.1 18.0 29.45 15.65 31.8 12.3 31.8 8.95 31.8 6.6 29.45 4.25 27.1 4.25 23.75 4.25 20.4 6.6 18.05 8.95 15.65 12.3 15.65 15.65 15.65 18.0 18.05 M16.3 23.75 Q16.3 22.1 15.15 20.95 13.95 19.75 12.3 19.75 10.65 19.75 9.5 20.95 8.3 22.1 8.3 23.75 8.3 25.4 9.5 26.6 10.65 27.75 12.3 27.75 13.95 27.75 15.15 26.6 16.3 25.4 16.3 23.75 M16.6 19.15 Q15.95 19.15 15.95 19.75 15.95 20.35 16.6 20.35 17.2 20.35 17.2 19.75 17.2 19.15 16.6 19.15 M12.9 17.65 Q12.9 17.0 12.3 17.0 11.7 17.0 11.7 17.65 11.7 18.25 12.3 18.25 12.9 18.25 12.9 17.65" fill="#efaa88" fill-rule="evenodd" stroke="none"/>
    <path d="M12.9 17.65 Q12.9 18.25 12.3 18.25 11.7 18.25 11.7 17.65 11.7 17.0 12.3 17.0 12.9 17.0 12.9 17.65 M16.6 19.15 Q17.2 19.15 17.2 19.75 17.2 20.35 16.6 20.35 15.95 20.35 15.95 19.75 15.95 19.15 16.6 19.15 M16.3 23.75 Q16.3 25.4 15.15 26.6 13.95 27.75 12.3 27.75 10.65 27.75 9.5 26.6 8.3 25.4 8.3 23.75 8.3 22.1 9.5 20.95 10.65 19.75 12.3 19.75 13.95 19.75 15.15 20.95 16.3 22.1 16.3 23.75 M18.0 18.05 Q15.65 15.65 12.3 15.65 8.95 15.65 6.6 18.05 4.25 20.4 4.25 23.75 4.25 27.1 6.6 29.45 8.95 31.8 12.3 31.8 15.65 31.8 18.0 29.45 20.35 27.1 20.35 23.75 20.35 20.4 18.0 18.05 M18.35 24.95 Q17.7 24.95 17.7 24.35 17.7 23.75 18.35 23.75 18.95 23.75 18.95 24.35 18.95 24.95 18.35 24.95 M12.3 30.3 Q11.7 30.3 11.7 29.7 11.7 29.1 12.3 29.1 12.9 29.1 12.9 29.7 12.9 30.3 12.3 30.3 M15.95 28.1 Q15.95 27.5 16.6 27.5 17.2 27.5 17.2 28.1 17.2 28.7 16.6 28.7 15.95 28.7 15.95 28.1 M6.85 24.05 L6.65 24.45 6.2 24.65 Q5.6 24.65 5.6 24.05 5.6 23.4 6.2 23.4 6.85 23.4 6.85 24.05 M7.85 19.15 Q8.45 19.15 8.45 19.75 8.45 20.35 7.85 20.35 7.2 20.35 7.2 19.75 7.2 19.15 7.85 19.15 M7.85 28.7 Q7.2 28.7 7.2 28.1 7.2 27.5 7.85 27.5 8.45 27.5 8.45 28.1 8.45 28.7 7.85 28.7 Z" fill="none" stroke="#b34a17" stroke-linecap="butt" stroke-linejoin="miter-clip" stroke-miterlimit="10.0" stroke-width="0.5"/>
    <path d="M29.65 23.05 Q30.95 24.35 30.95 26.2 30.95 28.05 29.65 29.35 28.4 30.65 26.55 30.65 24.7 30.65 23.4 29.35 22.1 28.05 22.1 26.2 22.1 24.35 23.4 23.05 24.7 21.75 26.55 21.75 28.4 21.75 29.65 23.05" fill="#db906b" fill-rule="evenodd" stroke="none"/>
    <path d="M29.65 23.05 Q30.95 24.35 30.95 26.2 30.95 28.05 29.65 29.35 28.4 30.65 26.55 30.65 24.7 30.65 23.4 29.35 22.1 28.05 22.1 26.2 22.1 24.35 23.4 23.05 24.7 21.75 26.55 21.75 28.4 21.75 29.65 23.05 Z" fill="none" stroke="#b34a17" stroke-linecap="butt" stroke-linejoin="miter-clip" stroke-miterlimit="10.0" stroke-width="0.5"/>
    <path d="M28.5 26.2 Q28.5 27.0 27.9 27.55 27.35 28.15 26.55 28.15 25.75 28.15 25.15 27.55 24.55 27.0 24.55 26.2 24.55 25.4 25.15 24.8 25.7 24.25 26.55 24.25 27.35 24.25 27.9 24.8 28.5 25.4 28.5 26.2" fill="#efaa88" fill-rule="evenodd" stroke="none"/>
    <path d="M28.5 26.2 Q28.5 27.0 27.9 27.55 27.35 28.15 26.55 28.15 25.75 28.15 25.15 27.55 24.55 27.0 24.55 26.2 24.55 25.4 25.15 24.8 25.7 24.25 26.55 24.25 27.35 24.25 27.9 24.8 28.5 25.4 28.5 26.2 Z" fill="none" stroke="#b34a17" stroke-linecap="butt" stroke-linejoin="miter-clip" stroke-miterlimit="10.0" stroke-width="0.5"/>
  </g>
</svg>
