<?xml version="1.0" encoding="UTF-8" standalone="no"?>
<svg xmlns:ffdec="https://www.free-decompiler.com/flash" xmlns:xlink="http://www.w3.org/1999/xlink" ffdec:objectType="shape" height="112.25px" width="125.05px" xmlns="http://www.w3.org/2000/svg">
  <g transform="matrix(1.0, 0.0, 0.0, 1.0, 10.05, 47.4)">
    <path d="M18.4 -2.9 Q13.2 -1.0 12.2 -1.2" fill="none" stroke="#231f20" stroke-linecap="butt" stroke-linejoin="miter-clip" stroke-miterlimit="10.0" stroke-width="1.0"/>
    <path d="M14.75 -42.15 Q9.55 -40.25 8.55 -40.45" fill="none" stroke="#231f20" stroke-linecap="butt" stroke-linejoin="miter-clip" stroke-miterlimit="10.0" stroke-width="1.0"/>
    <path d="M7.95 -40.25 L7.5 -39.6 Q7.1 -39.35 6.7 -39.45 6.25 -39.55 6.0 -39.9 5.8 -40.3 5.9 -40.7 L6.35 -41.35 7.15 -41.5 7.8 -41.05 7.95 -40.25" fill="#000000" fill-rule="evenodd" stroke="none"/>
    <path d="M7.95 -40.25 L7.5 -39.6 Q7.1 -39.35 6.7 -39.45 6.25 -39.55 6.0 -39.9 5.8 -40.3 5.9 -40.7 L6.35 -41.35 7.15 -41.5 7.8 -41.05 7.95 -40.25 Z" fill="none" stroke="#231f20" stroke-linecap="butt" stroke-linejoin="miter-clip" stroke-miterlimit="10.0" stroke-width="1.0"/>
    <path d="M10.55 -1.75 Q10.5 -1.35 10.1 -1.1 L9.3 -0.95 Q8.9 -1.05 8.65 -1.4 8.45 -1.8 8.5 -2.2 8.6 -2.65 9.0 -2.9 L9.75 -3.0 Q10.2 -2.9 10.45 -2.55 L10.55 -1.75" fill="#000000" fill-rule="evenodd" stroke="none"/>
    <path d="M10.55 -1.75 Q10.5 -1.35 10.1 -1.1 L9.3 -0.95 Q8.9 -1.05 8.65 -1.4 8.45 -1.8 8.5 -2.2 8.6 -2.65 9.0 -2.9 L9.75 -3.0 Q10.2 -2.9 10.45 -2.55 L10.55 -1.75 Z" fill="none" stroke="#231f20" stroke-linecap="butt" stroke-linejoin="miter-clip" stroke-miterlimit="10.0" stroke-width="1.0"/>
    <path d="M6.9 -41.5 Q8.05 -42.45 9.65 -43.25 12.85 -44.9 15.2 -44.35" fill="none" stroke="#231f20" stroke-linecap="butt" stroke-linejoin="miter-clip" stroke-miterlimit="10.0" stroke-width="1.0"/>
    <path d="M9.55 -2.25 L12.0 -4.1 Q14.85 -5.8 16.9 -5.35" fill="none" stroke="#231f20" stroke-linecap="butt" stroke-linejoin="miter-clip" stroke-miterlimit="10.0" stroke-width="1.0"/>
    <path d="M15.15 -47.05 Q15.8 -47.1 16.2 -46.65 16.65 -46.2 16.65 -45.6 L17.55 -20.15 Q19.15 7.9 22.55 22.8 L19.6 23.3 Q16.15 8.15 14.55 -20.05 L13.65 -45.55 Q13.65 -46.2 14.1 -46.6 14.5 -47.05 15.15 -47.05" fill="#ef8f60" fill-rule="evenodd" stroke="none"/>
    <path d="M15.15 -47.05 Q14.5 -47.05 14.1 -46.6 13.65 -46.2 13.65 -45.55 L14.55 -20.05 Q16.15 8.15 19.6 23.3 L22.55 22.8 Q19.15 7.9 17.55 -20.15 L16.65 -45.6 Q16.65 -46.2 16.2 -46.65 15.8 -47.1 15.15 -47.05 Z" fill="none" stroke="#707070" stroke-linecap="butt" stroke-linejoin="round" stroke-width="0.7000000000000001"/>
    <path d="M15.5 -45.25 L16.8 -17.05 Q18.75 13.05 21.85 22.4" fill="none" stroke="#e6e6e6" stroke-linecap="butt" stroke-linejoin="miter-clip" stroke-miterlimit="4.0" stroke-width="0.7000000000000001"/>
    <path d="M87.05 6.8 Q83.65 5.15 81.75 4.6 L79.1 4.0 78.4 3.9 78.15 3.9 78.4 0.5 81.65 1.3 Q85.4 2.4 88.65 3.8 L88.6 3.95 Q88.05 5.95 87.15 6.75 L87.05 6.8" fill="#a1a1a1" fill-rule="evenodd" stroke="none"/>
    <path d="M87.9 7.4 L87.6 7.65 87.1 8.1 86.55 7.8 Q83.25 6.2 81.35 5.65 L78.85 5.05 77.1 4.9 77.05 3.95 77.4 -0.55 78.45 -0.4 81.9 0.5 Q85.7 1.6 88.9 3.0 L89.7 3.35 89.5 4.15 89.45 4.35 Q88.85 6.35 87.9 7.4 M95.0 14.8 Q94.95 16.2 94.0 17.15 93.0 18.15 91.55 18.15 90.15 18.15 89.1 17.15 L88.55 16.4 Q88.1 15.65 88.1 14.7 L88.2 13.95 Q88.35 12.95 89.1 12.2 89.8 11.5 90.75 11.3 L91.55 11.2 Q93.0 11.2 94.0 12.2 L94.15 12.35 94.65 13.15 94.8 13.45 95.0 14.7 95.0 14.8 M87.15 6.75 Q88.05 5.95 88.6 3.95 L88.65 3.8 Q85.4 2.4 81.65 1.3 L78.4 0.5 78.15 3.9 78.4 3.9 79.1 4.0 81.75 4.6 Q83.65 5.15 87.05 6.8 L87.15 6.75 M90.95 13.25 Q90.1 13.25 89.5 13.85 88.9 14.45 88.9 15.3 L89.05 16.1 89.5 16.7 Q90.1 17.3 90.95 17.3 91.8 17.3 92.35 16.7 92.95 16.15 92.95 15.3 92.95 14.45 92.35 13.85 91.75 13.25 90.95 13.25" fill="#5c5c5c" fill-rule="evenodd" stroke="none"/>
    <path d="M89.45 4.35 L90.7 4.95 Q90.25 3.3 91.0 1.8 91.8 0.05 93.6 -0.6 L97.45 -1.95 Q98.4 -2.3 98.75 -1.35 L101.2 5.5 Q101.45 6.45 100.6 6.8 L97.2 8.0 97.55 8.25 Q98.1 8.6 97.7 9.1 L95.4 12.2 101.15 11.45 Q109.4 9.95 110.8 7.55 L112.4 6.1 Q114.1 5.6 114.75 10.65 114.85 14.05 113.4 14.15 112.35 14.2 111.3 13.0 L106.0 12.7 Q101.1 13.15 95.0 14.8 L95.0 14.7 94.8 13.45 94.65 13.15 94.15 12.35 94.0 12.2 Q93.0 11.2 91.55 11.2 L90.75 11.3 Q89.8 11.5 89.1 12.2 88.35 12.95 88.2 13.95 L88.1 14.7 Q88.1 15.65 88.55 16.4 L87.9 16.75 85.4 17.95 85.35 18.05 90.05 28.65 90.45 29.4 91.0 29.15 92.35 31.95 91.4 31.65 91.9 33.0 Q94.0 39.45 101.35 45.8 105.05 49.0 108.35 50.95 109.0 51.3 109.2 52.0 109.4 52.7 109.0 53.3 108.6 53.95 107.95 54.15 L106.6 53.95 Q102.75 51.75 98.8 48.25 90.95 41.35 88.6 34.1 L88.05 32.6 87.95 34.35 87.55 33.25 86.7 31.1 86.7 31.05 86.75 31.05 86.7 31.05 86.7 31.1 86.4 31.5 84.8 33.05 84.3 33.95 71.6 47.7 72.25 48.4 66.7 53.35 66.3 53.65 65.65 54.1 Q64.5 54.95 61.1 55.6 L60.55 55.7 60.5 55.7 43.35 56.65 Q37.15 56.65 27.8 56.25 L25.25 56.15 24.75 56.15 24.7 56.15 24.75 56.15 25.25 56.15 26.35 57.8 Q24.3 59.75 21.55 59.75 18.75 59.75 16.75 57.75 14.8 55.8 14.8 53.0 L14.9 51.75 -8.15 47.5 Q-7.75 47.35 -7.25 46.85 -6.35 45.95 -5.75 44.35 L-5.7 44.05 Q-5.15 42.2 -5.15 40.65 L-5.3 39.45 -5.95 38.55 -9.8 33.4 17.1 47.9 Q19.0 46.25 21.55 46.25 L24.0 46.7 25.85 47.75 26.25 48.1 26.7 47.7 28.5 46.1 48.5 28.55 48.45 28.45 50.15 28.4 51.75 28.2 55.7 27.3 55.95 27.25 57.65 26.65 59.9 25.65 60.35 27.3 60.5 27.8 60.35 27.3 61.5 27.3 61.85 27.6 61.5 27.3 61.85 27.3 63.45 27.3 64.8 27.3 65.65 27.3 66.7 27.3 68.35 27.3 69.8 27.3 70.2 27.65 69.8 27.3 70.1 27.3 70.2 27.65 70.1 27.3 71.05 27.3 72.95 27.3 73.95 27.3 74.05 27.3 74.05 27.4 74.0 28.05 74.05 28.5 74.05 28.7 Q74.2 29.85 74.9 30.8 L74.35 30.8 Q74.15 30.25 73.15 29.75 L71.95 29.7 71.35 28.7 71.95 29.7 71.8 29.75 71.4 30.15 72.75 30.8 72.2 30.8 70.8 30.55 69.45 30.8 68.7 30.8 70.0 30.15 69.6 29.75 Q69.05 29.4 68.25 29.75 L67.9 29.95 Q67.2 30.35 67.1 30.8 L63.1 30.8 62.65 30.3 Q61.7 29.35 60.55 29.0 L58.9 28.7 58.65 28.7 56.8 29.05 56.8 29.0 56.8 28.7 Q56.65 27.85 56.0 27.3 L55.95 27.25 56.0 27.3 Q56.65 27.85 56.8 28.7 L56.8 29.0 56.8 29.05 Q55.7 29.45 54.85 30.3 L54.4 30.8 Q54.0 31.25 53.75 31.8 L53.55 31.75 52.45 31.15 Q51.65 30.45 51.55 29.35 51.5 28.75 51.75 28.2 51.5 28.75 51.55 29.35 51.65 30.45 52.45 31.15 L53.55 31.75 53.65 32.05 Q53.2 33.0 53.2 34.15 L53.2 34.25 Q53.2 36.5 54.8 38.1 L54.85 38.15 56.55 39.35 58.45 44.1 59.05 45.5 61.6 51.95 63.7 51.2 Q66.35 49.4 71.85 43.95 L71.9 43.95 74.2 41.85 74.95 41.15 75.5 41.1 76.0 40.4 76.4 40.45 77.2 39.45 76.9 39.05 79.25 36.3 79.5 36.0 84.25 30.8 82.2 30.8 Q82.9 29.85 83.05 28.7 L83.1 28.05 83.05 27.3 84.4 27.3 85.45 27.3 85.65 27.3 85.45 26.9 85.35 25.45 85.9 25.45 Q86.4 25.7 86.45 27.05 86.5 28.65 87.3 29.55 88.0 30.35 88.8 30.15 L89.5 29.85 90.45 29.4 89.5 29.85 88.8 30.15 87.75 30.6 88.8 30.15 Q88.0 30.35 87.3 29.55 86.5 28.65 86.45 27.05 86.4 25.7 85.9 25.45 L85.35 25.45 85.45 26.9 82.25 19.8 Q81.35 19.65 80.7 19.0 79.85 18.25 79.85 17.1 79.85 15.95 80.7 15.15 81.5 14.35 82.7 14.35 83.5 14.35 84.15 14.75 L84.7 15.15 Q85.5 15.95 85.5 17.1 L85.4 17.95 85.5 17.1 Q85.5 15.95 84.7 15.15 L84.15 14.75 Q85.2 14.35 86.25 13.75 88.5 12.55 90.35 11.0 L90.1 10.85 Q89.6 10.45 89.95 10.05 L90.8 8.95 93.05 10.4 Q94.2 10.45 94.95 9.65 95.4 9.15 95.35 8.45 L95.25 7.8 94.8 7.45 92.1 5.7 90.7 4.95 92.1 5.7 94.8 7.45 95.25 7.8 95.35 8.45 Q95.4 9.15 94.95 9.65 94.2 10.45 93.05 10.4 L90.8 8.95 87.9 7.4 Q88.85 6.35 89.45 4.35 M37.85 24.95 Q38.3 25.6 37.5 26.0 L29.95 25.8 28.4 28.45 Q26.05 31.4 23.1 31.65 L22.55 31.65 20.65 31.35 19.7 31.05 18.55 30.55 17.8 30.35 Q15.2 29.65 13.75 28.0 12.95 27.05 12.25 25.25 L9.45 25.15 9.45 22.45 9.9 22.5 20.45 22.8 20.65 22.5 Q22.25 21.7 27.3 21.8 L27.4 21.8 26.75 19.65 26.3 18.1 26.2 17.85 26.25 17.85 26.05 16.9 25.75 16.7 Q25.5 16.45 25.5 16.05 25.5 15.7 25.75 15.4 26.05 15.15 26.4 15.15 26.8 15.15 27.05 15.4 L27.15 15.5 27.4 15.55 27.45 15.6 27.9 15.75 Q27.7 16.75 26.25 17.85 27.7 16.75 27.9 15.75 L27.9 15.5 28.4 15.85 29.0 16.4 29.05 16.65 29.0 16.65 Q28.1 18.85 26.7 19.35 L26.3 18.1 26.7 19.35 Q28.1 18.85 29.0 16.65 L29.05 16.65 Q30.2 17.8 31.05 20.0 L31.8 22.35 29.75 22.0 27.4 21.8 29.75 22.0 31.8 22.35 32.85 22.75 Q33.35 23.15 33.35 23.7 L33.35 23.8 33.15 24.6 20.05 23.35 20.45 22.8 20.05 23.35 33.15 24.6 33.35 23.8 33.35 23.7 Q36.5 24.1 37.5 24.6 L37.85 24.95 M9.9 19.8 Q9.05 19.8 8.45 18.6 7.85 17.4 7.85 15.7 7.85 13.95 8.45 12.75 9.05 11.55 9.9 11.55 10.75 11.55 11.3 12.75 11.9 14.0 11.9 15.7 11.9 17.4 11.3 18.6 10.75 19.8 9.9 19.8 M112.55 7.3 Q111.15 9.55 109.75 10.05 L101.5 12.15 94.8 13.45 101.5 12.15 109.75 10.05 Q111.15 9.55 112.55 7.3 M92.5 5.35 L98.9 3.6 97.35 -0.7 93.95 0.5 Q92.75 0.9 92.2 2.1 91.6 3.25 92.05 4.5 L92.5 5.35 M95.35 8.45 L96.7 8.15 97.2 8.0 96.7 8.15 95.35 8.45 M95.4 12.2 L94.15 12.35 95.4 12.2 M90.75 11.3 L90.35 11.0 90.75 11.3 M85.35 18.05 L84.7 19.0 84.65 19.05 Q83.8 19.8 82.7 19.8 L82.25 19.8 82.7 19.8 Q83.8 19.8 84.65 19.05 L84.7 19.0 85.35 18.05 M85.5 15.3 L88.2 13.95 85.5 15.3 M84.25 17.25 Q84.3 16.3 83.15 15.8 L83.1 15.8 81.7 15.85 81.15 16.35 81.7 15.85 83.1 15.8 83.15 15.8 Q84.3 16.3 84.25 17.25 M86.75 31.05 L87.75 30.6 87.1 30.55 86.75 31.05 M84.4 27.3 Q84.45 28.2 84.8 28.3 85.4 28.5 85.45 27.3 85.4 28.5 84.8 28.3 84.45 28.2 84.4 27.3 M83.8 28.7 L83.4 28.25 83.1 28.05 83.4 28.25 83.8 28.7 85.5 28.7 83.8 28.7 Q84.55 29.65 84.55 30.55 84.55 29.65 83.8 28.7 L83.05 28.7 83.8 28.7 M60.45 52.05 L54.8 38.1 60.45 52.05 M90.4 32.4 L90.8 32.85 90.8 31.45 91.4 31.65 90.8 31.45 90.8 32.85 90.4 32.4 89.85 31.8 89.3 33.45 88.05 32.6 89.3 33.45 89.85 31.8 90.4 32.4 Q91.75 36.35 94.7 40.6 100.2 48.5 108.25 52.05 100.2 48.5 94.7 40.6 91.75 36.35 90.4 32.4 M84.65 19.05 L89.5 29.85 84.65 19.05 M60.7 28.7 L60.55 29.0 60.7 28.7 Q60.45 28.5 60.5 27.8 60.45 28.5 60.7 28.7 L60.65 28.4 60.5 27.8 60.65 28.4 60.7 28.7 61.2 28.7 Q61.75 28.45 61.85 27.6 61.75 28.45 61.2 28.7 L60.7 28.7 M56.4 30.8 Q57.45 30.05 58.75 30.05 60.05 30.05 61.15 30.8 L56.4 30.8 M55.65 37.05 Q54.65 35.95 54.6 34.45 L55.65 37.05 M52.1 31.45 L53.2 34.15 52.1 31.45 M55.4 45.75 L54.8 44.35 49.85 32.0 34.2 45.75 32.4 47.3 28.05 51.1 26.35 52.6 28.05 51.1 28.3 52.65 26.35 52.6 26.25 52.7 Q45.45 53.6 56.0 52.75 L58.1 52.55 55.4 45.75 M74.05 27.4 L73.95 27.3 74.05 27.4 M71.0 28.35 L71.05 27.6 71.05 27.3 71.05 27.6 71.0 28.35 71.35 28.7 71.0 28.35 70.95 28.25 70.2 27.65 70.95 28.25 71.0 28.35 Q70.9 28.75 70.55 28.25 L70.2 27.65 70.55 28.25 Q70.9 28.75 71.0 28.35 M74.05 28.7 L71.35 28.7 74.05 28.7 M68.4 28.7 Q68.8 28.5 68.35 27.35 L68.35 27.3 68.35 27.35 Q68.8 28.5 68.4 28.7 L71.35 28.7 68.4 28.7 67.9 28.7 67.7 28.65 Q66.75 28.35 66.7 27.3 66.75 28.35 67.7 28.65 L67.9 28.7 68.4 28.7 M72.95 27.3 Q73.1 28.05 73.8 28.4 L74.05 28.5 73.8 28.4 Q73.1 28.05 72.95 27.3 M65.65 27.3 L66.8 28.25 67.2 28.7 66.8 28.25 65.65 27.3 M67.9 29.95 L67.2 28.7 67.9 29.95 M64.8 28.7 L67.2 28.7 67.9 28.7 67.2 28.7 64.8 28.7 Q64.65 29.35 64.05 29.25 63.6 29.15 63.45 28.7 63.6 29.15 64.05 29.25 64.65 29.35 64.8 28.7 L64.8 27.6 64.8 27.3 64.8 27.6 64.8 28.7 63.45 28.7 64.8 28.7 M63.05 28.7 L63.45 28.7 63.05 28.7 Q63.8 29.65 63.8 30.55 63.8 29.65 63.05 28.7 L62.65 28.25 61.85 27.6 62.65 28.25 63.05 28.7 61.2 28.7 63.05 28.7 M63.45 28.7 Q63.25 28.25 63.4 27.45 L63.45 27.3 63.4 27.45 Q63.25 28.25 63.45 28.7 M61.85 27.6 L61.85 27.3 61.85 27.6 M30.45 9.35 Q31.6 9.65 32.15 10.65 32.75 11.7 32.45 12.8 32.15 13.95 31.15 14.5 30.15 15.1 29.0 14.8 L27.65 14.45 26.6 14.15 Q25.95 13.95 26.15 13.4 L26.7 11.45 27.3 9.1 Q27.5 8.5 28.05 8.7 L30.45 9.35 M24.65 4.45 L24.95 4.95 Q25.2 6.65 23.85 11.1 L23.7 11.0 24.15 8.85 24.45 6.55 24.45 6.45 24.65 4.65 24.65 4.45 24.65 4.65 24.45 6.45 24.45 6.55 24.15 8.85 23.7 11.0 23.2 10.75 23.3 8.5 23.4 7.35 23.55 6.25 24.45 6.55 23.55 6.25 Q23.75 4.85 24.05 4.35 24.25 4.05 24.45 4.1 L24.65 4.45 M24.65 4.65 L24.05 4.35 24.65 4.65 M24.15 8.85 Q23.9 8.6 23.3 8.5 23.9 8.6 24.15 8.85 M23.3 12.1 L23.55 12.2 Q23.35 15.1 22.5 16.45 L22.5 16.5 21.7 17.2 Q22.4 17.4 21.5 17.2 21.0 17.1 21.7 14.95 L21.85 14.5 22.45 13.0 22.85 11.95 23.3 12.1 23.05 13.0 22.65 15.25 22.5 16.45 22.65 15.25 23.05 13.0 23.3 12.1 M31.8 12.05 Q31.9 10.55 29.9 9.9 L27.9 9.55 29.9 9.9 Q31.9 10.55 31.8 12.05 M27.3 11.85 L27.0 12.95 Q26.8 13.5 27.45 13.7 L29.1 14.15 30.7 13.95 Q31.5 13.55 31.7 12.7 L31.7 12.65 31.1 12.4 28.05 11.45 Q27.5 11.3 27.3 11.85 M27.15 15.5 L27.3 16.05 27.05 16.7 26.4 16.95 26.05 16.9 26.4 16.95 27.05 16.7 27.3 16.05 27.15 15.5 M22.45 14.9 L21.7 14.95 22.45 14.9 M23.05 13.0 L22.45 13.0 23.05 13.0 M32.55 23.45 Q29.65 22.4 25.6 22.45 L22.1 22.75 25.6 22.45 Q29.65 22.4 32.55 23.45 M30.65 21.15 Q30.6 20.4 29.8 19.2 L29.05 18.1 29.8 19.2 Q30.6 20.4 30.65 21.15 M9.9 22.9 L9.9 22.5 9.9 22.9 M10.0 18.85 Q10.95 17.4 10.6 14.8 L10.0 12.5 10.6 14.8 Q10.95 17.4 10.0 18.85 M18.55 30.55 L16.6 29.0 16.45 28.8 16.6 29.0 18.55 30.55 M18.85 29.6 L21.8 29.25 Q23.2 28.65 24.4 27.3 L25.4 25.65 15.85 25.35 16.05 25.9 Q16.7 27.6 17.4 28.4 L18.85 29.6 20.9 30.4 21.2 30.5 20.9 30.4 18.85 29.6 M26.6 25.7 L25.55 27.45 Q24.05 29.3 22.3 30.1 L21.2 30.5 22.6 30.65 Q25.15 30.6 27.25 28.3 L28.85 25.75 26.6 25.7 25.4 25.65 26.6 25.7 M13.35 25.3 L12.25 25.25 13.35 25.3 14.55 27.4 16.45 28.8 Q15.75 27.9 15.1 26.25 L14.9 25.65 14.75 25.35 14.6 25.35 13.35 25.3 M15.85 25.35 L14.75 25.35 15.85 25.35 M17.1 47.9 L19.35 49.15 17.1 47.9 M29.95 25.8 L28.85 25.75 29.95 25.8 M24.5 49.65 L26.25 48.1 24.5 49.65 Q23.25 48.55 21.55 48.55 20.35 48.55 19.35 49.15 L22.9 51.05 24.5 49.65 M23.25 52.55 L23.65 51.45 22.9 51.05 23.65 51.45 23.25 52.55 49.0 29.55 23.25 52.55 23.0 53.2 20.85 52.8 23.0 53.2 23.25 52.55 M10.45 24.2 L36.6 25.25 10.45 24.2 M20.85 52.8 L20.75 52.9 Q20.15 53.5 20.15 54.2 20.15 53.5 20.75 52.9 L20.85 52.8 19.75 52.6 20.85 52.8 M20.15 54.2 Q19.7 53.65 19.7 53.0 L19.75 52.6 17.2 52.15 17.1 53.0 Q17.1 54.85 18.4 56.15 19.7 57.45 21.55 57.45 23.4 57.45 24.7 56.15 L21.8 56.0 Q20.6 55.9 20.25 54.8 L20.15 54.2 M-4.6 37.65 L16.4 48.6 18.55 49.75 21.4 51.15 22.0 51.45 21.4 51.15 18.55 49.75 16.4 48.6 -4.6 37.65 M14.9 51.75 L17.2 52.15 14.9 51.75 M25.65 53.75 Q35.4 54.6 47.7 54.35 L58.0 53.9 47.7 54.35 Q35.4 54.6 25.65 53.75 M61.85 53.0 Q64.25 52.7 68.8 48.55 L85.6 31.15 68.8 48.55 Q64.25 52.7 61.85 53.0 M-3.8 44.65 L-4.4 46.15 16.9 50.05 -3.3 39.15 Q-2.8 41.55 -3.8 44.65" fill="#ef8f60" fill-rule="evenodd" stroke="none"/>
    <path d="M90.95 13.25 Q91.75 13.25 92.35 13.85 92.95 14.45 92.95 15.3 92.95 16.15 92.35 16.7 91.8 17.3 90.95 17.3 90.1 17.3 89.5 16.7 L89.05 16.1 88.9 15.3 Q88.9 14.45 89.5 13.85 90.1 13.25 90.95 13.25" fill="#919191" fill-rule="evenodd" stroke="none"/>
    <path d="M92.5 5.35 L92.05 4.5 Q91.6 3.25 92.2 2.1 92.75 0.9 93.95 0.5 L97.35 -0.7 98.9 3.6 92.5 5.35 M27.3 11.85 Q27.5 11.3 28.05 11.45 L31.1 12.4 31.7 12.65 31.7 12.7 Q31.5 13.55 30.7 13.95 L29.1 14.15 27.45 13.7 Q26.8 13.5 27.0 12.95 L27.3 11.85 M-3.8 44.65 Q-2.8 41.55 -3.3 39.15 L16.9 50.05 -4.4 46.15 -3.8 44.65" fill="#d16f3f" fill-rule="evenodd" stroke="none"/>
    <path d="M83.05 27.25 L83.05 27.3 83.1 28.05 83.05 28.7 Q82.9 29.85 82.2 30.8 L81.75 31.3 Q80.45 32.6 78.55 32.6 76.65 32.6 75.3 31.3 L74.9 30.8 Q74.2 29.85 74.05 28.7 L74.05 28.5 74.0 28.05 74.05 27.4 74.05 27.3 Q74.25 25.9 75.3 24.85 76.65 23.5 78.55 23.5 80.45 23.5 81.75 24.85 82.8 25.9 83.05 27.25 M81.75 28.7 L81.75 28.2 81.65 27.3 80.8 25.95 80.6 25.8 Q79.7 25.0 78.55 25.0 77.25 25.0 76.3 25.95 L75.95 26.35 Q75.65 26.8 75.5 27.3 L75.35 28.2 75.4 28.55 75.4 28.7 Q75.55 29.65 76.25 30.4 L76.3 30.45 76.55 30.7 76.7 30.8 Q77.5 31.4 78.55 31.4 79.6 31.4 80.4 30.8 L80.8 30.45 Q81.55 29.7 81.75 28.7 M76.9 39.05 L77.2 39.45 76.4 40.45 76.0 40.4 75.5 41.1 74.95 41.15 74.2 41.85 71.9 43.95 71.85 43.95 70.15 42.5 70.85 41.2 70.85 40.85 71.55 39.8 71.8 39.1 71.9 39.05 72.65 38.3 72.45 37.8 73.7 38.4 73.8 38.45 74.05 38.1 75.9 39.45 75.65 39.75 75.9 39.45 74.05 38.1 73.8 38.45 73.7 38.4 72.45 37.8 72.8 37.4 73.55 36.4 73.7 36.55 73.95 36.7 76.9 39.05 M71.95 29.7 L73.15 29.75 Q74.15 30.25 74.35 30.8 L74.35 30.95 74.15 31.5 72.75 30.8 71.4 30.15 71.8 29.75 71.95 29.7 M71.8 33.25 Q71.5 33.25 71.5 33.55 71.5 33.85 71.8 33.85 L72.1 33.55 71.8 33.25 72.1 33.55 71.8 33.85 Q71.5 33.85 71.5 33.55 71.5 33.25 71.8 33.25 M72.35 35.75 Q71.7 36.4 70.8 36.4 69.9 36.4 69.25 35.75 68.6 35.1 68.6 34.2 68.6 33.3 69.25 32.7 69.9 32.05 70.8 32.05 71.7 32.05 72.35 32.7 73.0 33.3 73.0 34.2 73.0 35.1 72.35 35.75 M67.1 30.8 Q67.2 30.35 67.9 29.95 L68.25 29.75 Q69.05 29.4 69.6 29.75 L70.0 30.15 68.7 30.8 67.25 31.5 67.05 30.95 67.1 30.8 M70.6 34.7 Q70.15 34.7 70.15 35.15 70.15 35.6 70.6 35.6 L71.05 35.15 Q71.05 34.7 70.6 34.7 71.05 34.7 71.05 35.15 L70.6 35.6 Q70.15 35.6 70.15 35.15 70.15 34.7 70.6 34.7 M70.4 32.85 Q70.0 32.85 70.0 33.25 L70.4 33.6 Q70.8 33.6 70.8 33.25 70.8 32.85 70.4 32.85 70.8 32.85 70.8 33.25 70.8 33.6 70.4 33.6 L70.0 33.25 Q70.0 32.85 70.4 32.85 M76.4 40.45 L75.8 39.9 75.65 39.75 75.8 39.9 76.4 40.45 M75.65 39.75 L74.65 40.85 74.0 40.4 73.9 40.3 73.8 40.25 73.2 39.8 72.95 39.6 73.8 38.45 72.95 39.6 73.2 39.8 73.8 40.25 73.9 40.3 74.0 40.4 74.65 40.85 75.65 39.75 M74.05 39.7 Q74.05 40.15 74.5 40.15 L74.95 39.7 Q74.95 39.25 74.5 39.25 74.05 39.25 74.05 39.7 M72.95 39.6 L71.9 39.05 72.95 39.6 M74.2 41.85 L74.1 41.7 72.7 40.55 71.55 39.8 72.7 40.55 74.1 41.7 74.2 41.85 M74.0 40.4 L74.75 41.0 74.95 41.15 74.75 41.0 74.0 40.4" fill="#d98b64" fill-rule="evenodd" stroke="none"/>
    <path d="M87.55 33.25 L87.05 33.9 86.5 34.7 85.45 35.1 74.15 47.25 73.2 48.55 72.65 48.9 72.25 48.4 71.6 47.7 84.3 33.95 84.8 33.05 86.4 31.5 86.7 31.1 87.55 33.25 M87.75 30.6 L86.75 31.05 87.1 30.55 87.75 30.6 M85.1 34.95 L84.5 34.4 85.1 34.95 M85.35 32.9 L87.05 33.9 85.35 32.9 M73.2 46.55 L74.15 47.25 73.2 46.55" fill="#c97c54" fill-rule="evenodd" stroke="none"/>
    <path d="M81.75 28.7 Q81.55 29.7 80.8 30.45 L80.4 30.8 Q79.6 31.4 78.55 31.4 77.5 31.4 76.7 30.8 L76.55 30.7 76.3 30.45 76.25 30.4 Q75.55 29.65 75.4 28.7 L75.4 28.55 75.35 28.2 75.5 27.3 Q75.65 26.8 75.95 26.35 L76.3 25.95 Q77.25 25.0 78.55 25.0 79.7 25.0 80.6 25.8 L80.8 25.95 81.65 27.3 81.75 28.2 81.75 28.7 M77.1 29.95 L76.55 30.7 77.1 29.95 M79.6 26.55 L80.6 25.8 79.6 26.55 M79.15 28.15 L79.05 27.8 78.9 27.9 78.05 28.35 79.95 30.65 79.2 28.2 79.15 28.15 M80.8 29.95 L80.15 29.3 80.8 29.95" fill="#ffeee6" fill-rule="evenodd" stroke="none"/>
    <path d="M56.55 39.35 L54.85 38.15 54.8 38.1 Q53.2 36.5 53.2 34.25 L53.2 34.15 Q53.2 33.0 53.65 32.05 L53.75 31.8 Q54.0 31.25 54.4 30.8 L54.85 30.3 Q55.7 29.45 56.8 29.05 L58.65 28.7 58.9 28.7 60.55 29.0 Q61.7 29.35 62.65 30.3 L63.1 30.8 Q64.3 32.3 64.3 34.25 64.3 36.55 62.65 38.15 61.05 39.75 58.75 39.75 L56.55 39.35 M61.15 30.8 Q60.05 30.05 58.75 30.05 57.45 30.05 56.4 30.8 L55.8 31.3 55.6 31.55 Q54.6 32.65 54.6 34.25 L54.6 34.45 Q54.65 35.95 55.65 37.05 L55.8 37.2 56.45 37.7 Q57.45 38.4 58.75 38.4 60.5 38.4 61.7 37.2 L62.2 36.65 Q62.9 35.6 62.9 34.25 62.9 32.5 61.7 31.3 L61.25 30.9 61.15 30.8 M58.75 31.9 Q59.6 31.9 60.2 32.4 L60.4 32.6 Q61.1 33.3 61.1 34.25 L60.75 35.5 60.4 35.85 Q59.7 36.55 58.75 36.55 L57.5 36.2 57.1 35.85 Q56.4 35.2 56.4 34.25 56.4 33.35 57.05 32.65 L57.1 32.6 Q57.8 31.9 58.75 31.9 M59.55 44.0 L59.4 42.95 Q59.4 41.2 60.65 39.95 61.9 38.7 63.65 38.7 65.4 38.7 66.65 39.95 67.85 41.2 67.85 42.95 67.85 44.7 66.65 45.95 65.4 47.2 63.65 47.2 61.9 47.2 60.65 45.95 L60.2 45.45 Q59.7 44.75 59.55 44.0 M66.25 44.8 Q66.8 43.95 66.8 42.95 66.8 41.65 65.9 40.7 L65.6 40.4 Q64.75 39.75 63.65 39.75 62.35 39.75 61.4 40.7 L61.25 40.9 Q60.45 41.8 60.45 42.95 L60.6 43.95 Q60.85 44.65 61.4 45.2 L61.55 45.35 61.85 45.6 Q62.65 46.15 63.65 46.15 64.95 46.15 65.9 45.2 L66.1 45.05 66.25 44.8 M62.1 43.85 L61.85 42.95 Q61.85 42.25 62.35 41.75 L62.4 41.7 Q62.9 41.15 63.65 41.15 64.25 41.15 64.75 41.55 L64.9 41.7 Q65.4 42.2 65.4 42.95 L65.3 43.65 65.15 43.95 64.9 44.25 Q64.35 44.75 63.65 44.75 L62.65 44.45 62.4 44.25 62.1 43.85 M72.35 35.75 Q73.0 35.1 73.0 34.2 73.0 33.3 72.35 32.7 71.7 32.05 70.8 32.05 69.9 32.05 69.25 32.7 68.6 33.3 68.6 34.2 68.6 35.1 69.25 35.75 69.9 36.4 70.8 36.4 71.7 36.4 72.35 35.75 M72.2 30.8 Q72.85 31.05 73.4 31.65 74.5 32.7 74.5 34.25 74.5 35.55 73.7 36.55 L73.55 36.4 72.8 37.4 Q71.95 37.95 70.8 37.95 69.25 37.95 68.2 36.85 67.1 35.8 67.1 34.25 67.1 32.7 68.2 31.65 68.75 31.05 69.45 30.8 L70.8 30.55 72.2 30.8" fill="#efaa88" fill-rule="evenodd" stroke="none"/>
    <path d="M79.15 28.15 L79.2 28.2 79.95 30.65 78.05 28.35 78.9 27.9 79.05 27.8 79.15 28.15" fill="#120702" fill-rule="evenodd" stroke="none"/>
    <path d="M79.5 36.0 L79.25 36.3 76.9 39.05 73.95 36.7 76.4 33.85 Q76.85 33.35 77.6 33.35 78.3 33.35 78.9 33.85 79.45 34.4 79.6 35.1 L79.5 36.0" fill="#fff8f5" fill-opacity="0.49803922" fill-rule="evenodd" stroke="none"/>
    <path d="M74.05 39.7 Q74.05 39.25 74.5 39.25 74.95 39.25 74.95 39.7 L74.5 40.15 Q74.05 40.15 74.05 39.7" fill="#573728" fill-rule="evenodd" stroke="none"/>
    <path d="M48.45 28.45 Q46.35 28.4 45.05 27.75 42.35 26.4 42.3 22.75 42.3 21.9 42.45 21.2 42.8 18.95 44.5 18.15 46.1 17.35 48.95 18.65 52.5 20.35 53.2 20.4 54.5 20.55 60.45 20.3 62.55 20.05 62.9 21.8 63.25 23.6 61.2 24.8 L59.9 25.65 57.65 26.65 55.95 27.25 55.7 27.3 51.75 28.2 50.15 28.4 48.45 28.45 M61.25 21.3 Q60.15 20.55 56.9 20.75 L51.9 21.0 Q50.55 20.85 48.65 19.6 L47.15 18.75 45.5 18.4 Q44.9 18.5 44.4 18.85 43.65 19.3 43.4 20.4 L43.3 21.05 43.45 20.9 43.95 20.5 43.95 20.45 Q44.65 19.85 45.35 19.9 L45.65 19.85 Q46.35 19.75 48.2 20.9 50.45 22.25 51.85 22.4 L54.4 22.4 57.0 22.2 60.1 22.25 62.15 22.3 61.25 21.3" fill="#3d3d3d" fill-rule="evenodd" stroke="none"/>
    <path d="M61.25 21.3 L62.15 22.3 60.1 22.25 57.0 22.2 54.4 22.4 51.85 22.4 Q50.45 22.25 48.2 20.9 46.35 19.75 45.65 19.85 L45.35 19.9 Q44.65 19.85 43.95 20.45 L43.95 20.5 43.45 20.9 43.3 21.05 43.4 20.4 Q43.65 19.3 44.4 18.85 44.9 18.5 45.5 18.4 L47.15 18.75 48.65 19.6 Q50.55 20.85 51.9 21.0 L56.9 20.75 Q60.15 20.55 61.25 21.3" fill="#cccccc" fill-rule="evenodd" stroke="none"/>
    <path d="M33.95 60.9 L68.8 61.6 68.75 63.0 34.15 62.4 34.15 61.95 33.95 60.9 M24.0 46.7 L24.0 46.4 28.5 46.1 26.7 47.7 25.85 47.75 24.0 46.7 M59.05 45.5 L58.45 44.1 59.55 44.0 Q59.7 44.75 60.2 45.45 L59.05 45.5 M54.8 44.35 L55.4 45.75 32.4 47.3 34.2 45.75 54.8 44.35 M66.25 44.8 L66.1 45.05 62.05 45.3 61.55 45.35 61.4 45.2 Q60.85 44.65 60.6 43.95 L62.1 43.85 62.4 44.25 62.65 44.45 63.65 44.75 Q64.35 44.75 64.9 44.25 L65.15 43.95 65.3 43.65 66.3 43.55 66.25 44.8 65.15 43.95 66.25 44.8 M62.05 45.3 L62.65 44.45 62.05 45.3" fill="#6b0000" fill-rule="evenodd" stroke="none"/>
    <path d="M27.8 56.25 L30.1 59.7 31.5 59.3 Q32.6 59.3 33.35 60.1 L33.95 60.9 34.15 61.95 34.15 62.4 Q34.0 63.2 33.35 63.85 32.6 64.6 31.5 64.6 30.4 64.6 29.6 63.85 28.85 63.1 28.85 61.95 L28.9 61.6 26.35 57.8 25.25 56.15 27.8 56.25 M30.1 59.7 Q29.85 59.85 29.6 60.1 29.0 60.7 28.9 61.6 29.0 60.7 29.6 60.1 29.85 59.85 30.1 59.7" fill="#d48c68" fill-rule="evenodd" stroke="none"/>
    <path d="M66.7 53.35 L66.65 53.65 66.3 53.65 66.7 53.35 M56.0 52.75 Q45.45 53.6 26.25 52.7 L26.35 52.6 28.3 52.65 56.0 52.75" fill="#9c9c9c" fill-rule="evenodd" stroke="none"/>
    <path d="M-5.75 44.35 Q-6.3 45.5 -6.95 46.3 -7.85 47.45 -8.45 47.25 -9.0 47.0 -8.95 45.55 -8.85 44.05 -8.15 42.2 -7.5 40.35 -6.55 39.15 L-5.95 38.55 -5.3 39.45 -5.15 40.65 Q-5.15 42.2 -5.7 44.05 L-5.75 44.35" fill="#fcba1a" fill-rule="evenodd" stroke="none"/>
    <path d="M24.5 49.65 L22.9 51.05 19.35 49.15 Q20.35 48.55 21.55 48.55 23.25 48.55 24.5 49.65 M19.75 52.6 L19.7 53.0 Q19.7 53.65 20.15 54.2 L20.25 54.8 Q20.6 55.9 21.8 56.0 L24.7 56.15 Q23.4 57.45 21.55 57.45 19.7 57.45 18.4 56.15 17.1 54.85 17.1 53.0 L17.2 52.15 19.75 52.6" fill="#d67240" fill-rule="evenodd" stroke="none"/>
    <path d="M89.45 4.35 L90.7 4.95 Q90.25 3.3 91.0 1.8 91.8 0.05 93.6 -0.6 L97.45 -1.95 Q98.4 -2.3 98.75 -1.35 L101.2 5.5 Q101.45 6.45 100.6 6.8 L97.2 8.0 97.55 8.25 Q98.1 8.6 97.7 9.1 L95.4 12.2 101.15 11.45 Q109.4 9.95 110.8 7.55 L112.4 6.1 Q114.1 5.6 114.75 10.65 114.85 14.05 113.4 14.15 112.35 14.2 111.3 13.0 L106.0 12.7 Q101.1 13.15 95.0 14.8 M87.55 33.25 L87.05 33.9 86.5 34.7 85.45 35.1 74.15 47.25 73.2 48.55 72.65 48.9 72.25 48.4 71.6 47.7 84.3 33.95 84.8 33.05 86.4 31.5 86.7 31.1 M26.35 57.8 Q24.3 59.75 21.55 59.75 18.75 59.75 16.75 57.75 14.8 55.8 14.8 53.0 L14.9 51.75 M-5.75 44.35 Q-6.3 45.5 -6.95 46.3 -7.85 47.45 -8.45 47.25 -9.0 47.0 -8.95 45.55 -8.85 44.05 -8.15 42.2 -7.5 40.35 -6.55 39.15 L-5.95 38.55 M17.1 47.9 Q19.0 46.25 21.55 46.25 L24.0 46.7 25.85 47.75 26.25 48.1 M37.85 24.95 Q38.3 25.6 37.5 26.0 L29.95 25.8 28.4 28.45 Q26.05 31.4 23.1 31.65 L22.55 31.65 20.65 31.35 19.7 31.05 18.55 30.55 17.8 30.35 Q15.2 29.65 13.75 28.0 12.95 27.05 12.25 25.25 L9.45 25.15 9.45 22.45 9.9 22.5 20.45 22.8 20.65 22.5 Q22.25 21.7 27.3 21.8 L27.4 21.8 29.75 22.0 31.8 22.35 31.05 20.0 Q30.2 17.8 29.05 16.65 M9.9 19.8 Q9.05 19.8 8.45 18.6 7.85 17.4 7.85 15.7 7.85 13.95 8.45 12.75 9.05 11.55 9.9 11.55 10.75 11.55 11.3 12.75 11.9 14.0 11.9 15.7 11.9 17.4 11.3 18.6 10.75 19.8 9.9 19.8 M90.8 8.95 L93.05 10.4 Q94.2 10.45 94.95 9.65 95.4 9.15 95.35 8.45 L95.25 7.8 94.8 7.45 92.1 5.7 90.7 4.95 M94.15 12.35 L95.4 12.2 M97.2 8.0 L96.7 8.15 95.35 8.45 M87.05 6.8 L87.15 6.75 M90.8 8.95 L89.95 10.05 Q89.6 10.45 90.1 10.85 L90.35 11.0 90.75 11.3 M87.9 7.4 L90.8 8.95 M87.75 30.6 L87.1 30.55 86.75 31.05 M84.5 34.4 L85.1 34.95 M87.05 33.9 L85.35 32.9 M60.5 27.8 L60.35 27.3 59.9 25.65 M55.95 27.25 L56.0 27.3 Q56.65 27.85 56.8 28.7 L56.8 29.0 56.8 29.05 M60.55 29.0 L60.7 28.7 60.65 28.4 60.5 27.8 M51.75 28.2 Q51.5 28.75 51.55 29.35 51.65 30.45 52.45 31.15 L53.55 31.75 53.75 31.8 M74.15 47.25 L73.2 46.55 M30.45 9.35 L28.05 8.7 Q27.5 8.5 27.3 9.1 L26.7 11.45 26.15 13.4 Q25.95 13.95 26.6 14.15 L27.65 14.45 29.0 14.8 Q30.15 15.1 31.15 14.5 32.15 13.95 32.45 12.8 32.75 11.7 32.15 10.65 31.6 9.65 30.45 9.35 M24.65 4.45 L24.95 4.95 Q25.2 6.65 23.85 11.1 L23.7 11.0 23.2 10.75 23.3 8.5 23.4 7.35 23.55 6.25 Q23.75 4.85 24.05 4.35 24.25 4.05 24.45 4.1 L24.65 4.45 M23.3 12.1 L23.55 12.2 Q23.35 15.1 22.5 16.45 L22.5 16.5 21.7 17.2 Q22.4 17.4 21.5 17.2 21.0 17.1 21.7 14.95 L21.85 14.5 22.45 13.0 22.85 11.95 23.3 12.1 M26.25 17.85 L26.05 16.9 25.75 16.7 Q25.5 16.45 25.5 16.05 25.5 15.7 25.75 15.4 26.05 15.15 26.4 15.15 26.8 15.15 27.05 15.4 L27.15 15.5 27.4 15.55 27.45 15.6 27.9 15.75 M26.05 16.9 L26.4 16.95 27.05 16.7 27.3 16.05 27.15 15.5 M26.3 18.1 L26.75 19.65 27.4 21.8 M33.35 23.7 L33.35 23.8 33.15 24.6 20.05 23.35 20.45 22.8 M33.35 23.7 Q33.35 23.15 32.85 22.75 L31.8 22.35 M37.85 24.95 L37.5 24.6 Q36.5 24.1 33.35 23.7 M16.45 28.8 L16.6 29.0 18.55 30.55 M18.85 29.6 L21.8 29.25 Q23.2 28.65 24.4 27.3 L25.4 25.65 15.85 25.35 16.05 25.9 Q16.7 27.6 17.4 28.4 L18.85 29.6 20.9 30.4 21.2 30.5 22.3 30.1 Q24.05 29.3 25.55 27.45 L26.6 25.7 25.4 25.65 M12.25 25.25 L13.35 25.3 14.6 25.35 14.75 25.35 15.85 25.35 M14.75 25.35 L14.9 25.65 15.1 26.25 Q15.75 27.9 16.45 28.8 L14.55 27.4 13.35 25.3 M14.9 25.65 L14.6 25.35 M28.85 25.75 L27.25 28.3 Q25.15 30.6 22.6 30.65 L21.2 30.5 M26.6 25.7 L28.85 25.75 29.95 25.8 M22.6 30.65 L22.3 30.1 M19.35 49.15 Q20.35 48.55 21.55 48.55 23.25 48.55 24.5 49.65 M28.05 51.1 L28.3 52.65 M19.75 52.6 L19.7 53.0 Q19.7 53.65 20.15 54.2 M24.7 56.15 Q23.4 57.45 21.55 57.45 19.7 57.45 18.4 56.15 17.1 54.85 17.1 53.0 L17.2 52.15" fill="none" stroke="#a64515" stroke-linecap="butt" stroke-linejoin="miter-clip" stroke-miterlimit="10.0" stroke-width="0.5"/>
    <path d="M87.9 7.4 L87.6 7.65 87.1 8.1 86.55 7.8 Q83.25 6.2 81.35 5.65 L78.85 5.05 77.1 4.9 77.05 3.95 77.4 -0.55 78.45 -0.4 81.9 0.5 Q85.7 1.6 88.9 3.0 L89.7 3.35 89.5 4.15 89.45 4.35 Q88.85 6.35 87.9 7.4 M95.0 14.8 Q94.95 16.2 94.0 17.15 93.0 18.15 91.55 18.15 90.15 18.15 89.1 17.15 L88.55 16.4 Q88.1 15.65 88.1 14.7 L88.2 13.95 Q88.35 12.95 89.1 12.2 89.8 11.5 90.75 11.3 L91.55 11.2 Q93.0 11.2 94.0 12.2 L94.15 12.35 94.65 13.15 94.8 13.45 95.0 14.7 95.0 14.8" fill="none" stroke="#1f1f1f" stroke-linecap="round" stroke-linejoin="round" stroke-width="0.5"/>
    <path d="M88.55 16.4 L87.9 16.75 85.4 17.95 85.35 18.05 90.05 28.65 90.45 29.4 M91.4 31.65 L91.9 33.0 Q94.0 39.45 101.35 45.8 105.05 49.0 108.35 50.95 109.0 51.3 109.2 52.0 109.4 52.7 109.0 53.3 108.6 53.95 107.95 54.15 L106.6 53.95 Q102.75 51.75 98.8 48.25 90.95 41.35 88.6 34.1 L88.05 32.6 M72.25 48.4 L66.7 53.35 66.3 53.65 65.65 54.1 Q64.5 54.95 61.1 55.6 L60.55 55.7 60.5 55.7 43.35 56.65 Q37.15 56.65 27.8 56.25 L25.25 56.15 24.75 56.15 24.7 56.15 21.8 56.0 Q20.6 55.9 20.25 54.8 L20.15 54.2 Q20.15 53.5 20.75 52.9 L20.85 52.8 M28.5 46.1 L48.5 28.55 48.45 28.45 M85.4 17.95 L85.5 17.1 Q85.5 15.95 84.7 15.15 L84.15 14.75 Q83.5 14.35 82.7 14.35 81.5 14.35 80.7 15.15 79.85 15.95 79.85 17.1 79.85 18.25 80.7 19.0 81.35 19.65 82.25 19.8 L82.7 19.8 Q83.8 19.8 84.65 19.05 L84.7 19.0 85.35 18.05 M90.35 11.0 Q88.5 12.55 86.25 13.75 85.2 14.35 84.15 14.75 M83.05 27.3 L84.4 27.3 85.45 27.3 85.65 27.3 85.45 26.9 82.25 19.8 M82.2 30.8 L84.25 30.8 79.5 36.0 M71.85 43.95 Q66.35 49.4 63.7 51.2 L61.6 51.95 59.05 45.5 58.45 44.1 56.55 39.35 M61.5 27.3 L60.35 27.3 M56.4 30.8 L61.15 30.8 M53.55 31.75 L53.65 32.05 M55.65 37.05 L54.6 34.45 M54.8 44.35 L55.4 45.75 58.1 52.55 56.0 52.75 Q45.45 53.6 26.25 52.7 L26.35 52.6 28.05 51.1 32.4 47.3 34.2 45.75 49.85 32.0 54.8 44.35 M74.05 27.3 L73.95 27.3 72.95 27.3 71.05 27.3 70.1 27.3 69.8 27.3 68.35 27.3 66.7 27.3 65.65 27.3 64.8 27.3 63.45 27.3 61.85 27.3 61.5 27.3 M74.35 30.8 L74.9 30.8 M72.2 30.8 L72.75 30.8 M68.7 30.8 L69.45 30.8 M67.1 30.8 L63.1 30.8 M26.7 47.7 L28.5 46.1 M26.25 48.1 L26.7 47.7 M26.25 48.1 L24.5 49.65 22.9 51.05" fill="none" stroke="#a64515" stroke-linecap="butt" stroke-linejoin="miter-clip" stroke-miterlimit="10.0" stroke-width="0.65"/>
    <path d="M81.15 16.35 L81.7 15.85 83.1 15.8 83.15 15.8 Q84.3 16.3 84.25 17.25 M88.2 13.95 L85.5 15.3" fill="none" stroke="#ffcbb3" stroke-linecap="butt" stroke-linejoin="miter-clip" stroke-miterlimit="4.0" stroke-width="0.7000000000000001"/>
    <path d="M94.8 13.45 L101.5 12.15 109.75 10.05 Q111.15 9.55 112.55 7.3 M27.9 9.55 L29.9 9.9 Q31.9 10.55 31.8 12.05 M29.05 18.1 L29.8 19.2 Q30.6 20.4 30.65 21.15 M22.1 22.75 L25.6 22.45 Q29.65 22.4 32.55 23.45 M10.0 12.5 L10.6 14.8 Q10.95 17.4 10.0 18.85 M36.6 25.25 L10.45 24.2 M22.0 51.45 L21.4 51.15 18.55 49.75 16.4 48.6 -4.6 37.65" fill="none" stroke="#ffcbb3" stroke-linecap="round" stroke-linejoin="round" stroke-width="0.7000000000000001"/>
    <path d="M90.45 29.4 L91.0 29.15 92.35 31.95 91.4 31.65 90.8 31.45 90.8 32.85 90.4 32.4 89.85 31.8 89.3 33.45 88.05 32.6 87.95 34.35 87.55 33.25 86.7 31.1 86.7 31.05 86.75 31.05 87.75 30.6 88.8 30.15 89.5 29.85 90.45 29.4 M14.9 51.75 L-8.15 47.5 Q-7.75 47.35 -7.25 46.85 -6.35 45.95 -5.75 44.35 L-5.7 44.05 Q-5.15 42.2 -5.15 40.65 L-5.3 39.45 -5.95 38.55 -9.8 33.4 17.1 47.9 19.35 49.15 22.9 51.05 23.65 51.45 23.25 52.55 23.0 53.2 20.85 52.8 19.75 52.6 17.2 52.15 14.9 51.75 M85.45 26.9 L85.35 25.45 85.9 25.45 Q86.4 25.7 86.45 27.05 86.5 28.65 87.3 29.55 88.0 30.35 88.8 30.15 M84.4 27.3 L84.35 26.7 Q84.35 25.35 83.75 25.45 83.15 25.55 83.05 26.95 L83.05 27.25 M85.45 27.3 L85.45 26.9 M85.45 27.3 Q85.4 28.5 84.8 28.3 84.45 28.2 84.4 27.3 M60.7 28.7 Q60.45 28.5 60.5 27.8 M60.7 28.7 L61.2 28.7 Q61.75 28.45 61.85 27.6 L61.85 27.3 61.85 27.05 Q61.8 25.6 62.75 25.75 63.65 25.95 63.45 27.3 L63.4 27.45 Q63.25 28.25 63.45 28.7 63.6 29.15 64.05 29.25 64.65 29.35 64.8 28.7 L64.8 27.6 64.8 27.3 Q64.7 25.85 65.8 25.5 67.0 25.15 66.75 26.5 L66.7 27.3 Q66.75 28.35 67.7 28.65 L67.9 28.7 68.4 28.7 Q68.8 28.5 68.35 27.35 L68.35 27.3 Q67.75 25.8 68.85 25.5 70.05 25.2 70.0 26.4 L70.1 27.3 70.2 27.65 70.55 28.25 Q70.9 28.75 71.0 28.35 L71.05 27.6 71.05 27.3 Q71.05 26.15 72.0 25.6 73.0 25.0 72.9 26.5 L72.95 27.3 Q73.1 28.05 73.8 28.4 L74.05 28.5 M25.6 11.35 L26.75 5.55 Q26.9 4.4 26.65 3.9 26.25 3.15 24.8 2.85 L24.65 4.45 24.65 4.65 24.45 6.45 24.45 6.55 24.15 8.85 23.7 11.0 23.6 11.15 23.3 12.1 23.05 13.0 22.65 15.25 22.5 16.45 M24.8 2.85 L24.3 2.75 Q22.45 2.5 22.05 3.2 L21.7 4.65 22.65 4.3 24.05 4.35 24.65 4.65 M21.7 4.65 L21.6 5.1 21.25 6.35 22.45 6.15 23.55 6.25 24.45 6.55 M23.3 8.5 Q23.9 8.6 24.15 8.85 M21.25 6.35 L20.75 8.5 22.2 8.4 23.3 8.5 M22.5 16.5 L22.35 17.8 22.3 18.8 Q23.5 18.75 24.1 18.05 L24.5 16.95 25.6 11.35 M20.75 8.5 L20.35 10.8 21.45 10.8 Q22.65 10.9 23.2 11.45 M26.3 18.1 L26.2 17.85 26.25 17.85 Q27.7 16.75 27.9 15.75 L27.9 15.5 28.4 15.85 29.0 16.4 29.05 16.65 29.0 16.65 Q28.1 18.85 26.7 19.35 L26.3 18.1 M22.45 13.0 L21.05 12.5 20.15 11.95 20.1 12.35 19.85 13.95 Q20.85 14.85 21.7 14.95 L22.45 14.9 M22.45 13.0 L23.05 13.0 M22.3 18.8 L21.25 18.7 Q19.35 18.4 19.3 16.65 L19.3 16.25 19.85 13.95 M19.3 16.65 L20.05 17.2 Q21.1 17.75 22.35 17.8 M20.15 11.95 L20.35 10.8" fill="none" stroke="#a64515" stroke-linecap="round" stroke-linejoin="round" stroke-width="0.5"/>
    <path d="M27.8 56.25 L30.1 59.7 31.5 59.3 Q32.6 59.3 33.35 60.1 L33.95 60.9 34.15 61.95 34.15 62.4 Q34.0 63.2 33.35 63.85 32.6 64.6 31.5 64.6 30.4 64.6 29.6 63.85 28.85 63.1 28.85 61.95 L28.9 61.6 26.35 57.8 25.25 56.15 M83.05 27.25 L83.05 27.3 83.1 28.05 83.05 28.7 Q82.9 29.85 82.2 30.8 L81.75 31.3 Q80.45 32.6 78.55 32.6 76.65 32.6 75.3 31.3 L74.9 30.8 Q74.2 29.85 74.05 28.7 L74.05 28.5 74.0 28.05 74.05 27.4 74.05 27.3 Q74.25 25.9 75.3 24.85 76.65 23.5 78.55 23.5 80.45 23.5 81.75 24.85 82.8 25.9 83.05 27.25 M56.55 39.35 L54.85 38.15 54.8 38.1 Q53.2 36.5 53.2 34.25 L53.2 34.15 Q53.2 33.0 53.65 32.05 L53.75 31.8 Q54.0 31.25 54.4 30.8 L54.85 30.3 Q55.7 29.45 56.8 29.05 L58.65 28.7 58.9 28.7 60.55 29.0 Q61.7 29.35 62.65 30.3 L63.1 30.8 Q64.3 32.3 64.3 34.25 64.3 36.55 62.65 38.15 61.05 39.75 58.75 39.75 L56.55 39.35 M56.4 30.8 Q57.45 30.05 58.75 30.05 60.05 30.05 61.15 30.8 L61.25 30.9 61.7 31.3 Q62.9 32.5 62.9 34.25 62.9 35.6 62.2 36.65 L61.7 37.2 Q60.5 38.4 58.75 38.4 57.45 38.4 56.45 37.7 L55.8 37.2 55.65 37.05 Q54.65 35.95 54.6 34.45 L54.6 34.25 Q54.6 32.65 55.6 31.55 L55.8 31.3 56.4 30.8 M58.75 31.9 Q57.8 31.9 57.1 32.6 L57.05 32.65 Q56.4 33.35 56.4 34.25 56.4 35.2 57.1 35.85 L57.5 36.2 58.75 36.55 Q59.7 36.55 60.4 35.85 L60.75 35.5 61.1 34.25 Q61.1 33.3 60.4 32.6 L60.2 32.4 Q59.6 31.9 58.75 31.9 M57.05 32.65 L55.6 31.55 M59.55 44.0 L59.4 42.95 Q59.4 41.2 60.65 39.95 61.9 38.7 63.65 38.7 65.4 38.7 66.65 39.95 67.85 41.2 67.85 42.95 67.85 44.7 66.65 45.95 65.4 47.2 63.65 47.2 61.9 47.2 60.65 45.95 L60.2 45.45 Q59.7 44.75 59.55 44.0 M60.6 43.95 L60.45 42.95 Q60.45 41.8 61.25 40.9 L61.4 40.7 Q62.35 39.75 63.65 39.75 64.75 39.75 65.6 40.4 L65.9 40.7 Q66.8 41.65 66.8 42.95 66.8 43.95 66.25 44.8 L66.1 45.05 65.9 45.2 Q64.95 46.15 63.65 46.15 62.65 46.15 61.85 45.6 L61.55 45.35 61.4 45.2 Q60.85 44.65 60.6 43.95 M62.1 43.85 L61.85 42.95 Q61.85 42.25 62.35 41.75 L61.25 40.9 M57.5 36.2 L56.45 37.7 M73.7 36.55 Q74.5 35.55 74.5 34.25 74.5 32.7 73.4 31.65 72.85 31.05 72.2 30.8 L70.8 30.55 69.45 30.8 Q68.75 31.05 68.2 31.65 67.1 32.7 67.1 34.25 67.1 35.8 68.2 36.85 69.25 37.95 70.8 37.95 71.95 37.95 72.8 37.4 M60.75 35.5 L62.2 36.65 M65.3 43.65 L65.4 42.95 Q65.4 42.2 64.9 41.7 L64.75 41.55 Q64.25 41.15 63.65 41.15 62.9 41.15 62.4 41.7 L62.35 41.75 M64.75 41.55 L65.6 40.4 M62.1 43.85 L62.4 44.25 62.65 44.45 63.65 44.75 Q64.35 44.75 64.9 44.25 L65.15 43.95 65.3 43.65 M66.25 44.8 L65.15 43.95 M62.65 44.45 L62.05 45.3 61.85 45.6 M61.25 30.9 L60.2 32.4 M28.9 61.6 Q29.0 60.7 29.6 60.1 29.85 59.85 30.1 59.7" fill="none" stroke="#b34a17" stroke-linecap="butt" stroke-linejoin="miter-clip" stroke-miterlimit="10.0" stroke-width="0.5"/>
    <path d="M83.1 28.05 L83.4 28.25 83.8 28.7 Q84.55 29.65 84.55 30.55 M61.85 27.6 L61.5 27.3 M73.95 27.3 L74.05 27.4 M71.0 28.35 L71.35 28.7 71.95 29.7 M70.2 27.65 L70.95 28.25 71.0 28.35 M70.2 27.65 L69.8 27.3 M67.2 28.7 L66.8 28.25 65.65 27.3 M67.2 28.7 L67.9 29.95 M63.05 28.7 Q63.8 29.65 63.8 30.55 M61.85 27.6 L62.65 28.25 63.05 28.7" fill="none" stroke="#db6e3a" stroke-linecap="round" stroke-linejoin="round" stroke-width="0.5"/>
    <path d="M83.8 28.7 L85.5 28.7 M83.8 28.7 L83.05 28.7 M54.8 38.1 L60.45 52.05 M53.2 34.15 L52.1 31.45 M71.35 28.7 L74.05 28.7 M68.4 28.7 L71.35 28.7 M67.9 28.7 L67.2 28.7 64.8 28.7 63.45 28.7 63.05 28.7 61.2 28.7 M23.25 52.55 L49.0 29.55 M58.0 53.9 L47.7 54.35 Q35.4 54.6 25.65 53.75 M85.6 31.15 L68.8 48.55 Q64.25 52.7 61.85 53.0" fill="none" stroke="#ffcbb3" stroke-linecap="round" stroke-linejoin="round" stroke-width="0.65"/>
    <path d="M81.75 28.7 Q81.55 29.7 80.8 30.45 L80.4 30.8 Q79.6 31.4 78.55 31.4 77.5 31.4 76.7 30.8 L76.55 30.7 76.3 30.45 76.25 30.4 Q75.55 29.65 75.4 28.7 L75.4 28.55 75.35 28.2 75.5 27.3 Q75.65 26.8 75.95 26.35 L76.3 25.95 Q77.25 25.0 78.55 25.0 79.7 25.0 80.6 25.8 L80.8 25.95 81.65 27.3 81.75 28.2 81.75 28.7 M71.95 29.7 L73.15 29.75 Q74.15 30.25 74.35 30.8 L74.35 30.95 74.15 31.5 72.75 30.8 71.4 30.15 71.8 29.75 71.95 29.7 M71.8 33.25 L72.1 33.55 71.8 33.85 Q71.5 33.85 71.5 33.55 71.5 33.25 71.8 33.25 M72.35 35.75 Q71.7 36.4 70.8 36.4 69.9 36.4 69.25 35.75 68.6 35.1 68.6 34.2 68.6 33.3 69.25 32.7 69.9 32.05 70.8 32.05 71.7 32.05 72.35 32.7 73.0 33.3 73.0 34.2 73.0 35.1 72.35 35.75 M68.7 30.8 L70.0 30.15 69.6 29.75 Q69.05 29.4 68.25 29.75 L67.9 29.95 Q67.2 30.35 67.1 30.8 L67.05 30.95 67.25 31.5 68.7 30.8 M70.4 32.85 Q70.8 32.85 70.8 33.25 70.8 33.6 70.4 33.6 L70.0 33.25 Q70.0 32.85 70.4 32.85 M70.6 34.7 Q71.05 34.7 71.05 35.15 L70.6 35.6 Q70.15 35.6 70.15 35.15 70.15 34.7 70.6 34.7" fill="none" stroke="#b34a17" stroke-linecap="butt" stroke-linejoin="miter-clip" stroke-miterlimit="10.0" stroke-width="0.2"/>
    <path d="M80.6 25.8 L79.6 26.55 M76.55 30.7 L77.1 29.95 M80.15 29.3 L80.8 29.95" fill="none" stroke="#120702" stroke-linecap="round" stroke-linejoin="round" stroke-width="0.65"/>
    <path d="M79.5 36.0 L79.25 36.3 76.9 39.05 M73.95 36.7 L76.4 33.85 Q76.85 33.35 77.6 33.35 78.3 33.35 78.9 33.85 79.45 34.4 79.6 35.1 L79.5 36.0" fill="none" stroke="#ffffff" stroke-linecap="butt" stroke-linejoin="miter-clip" stroke-miterlimit="10.0" stroke-width="0.5"/>
    <path d="M76.9 39.05 L77.2 39.45 76.4 40.45 76.0 40.4 75.5 41.1 74.95 41.15 74.2 41.85 71.9 43.95 71.85 43.95 70.15 42.5 70.85 41.2 70.85 40.85 71.55 39.8 71.8 39.1 71.9 39.05 72.65 38.3 72.45 37.8 72.8 37.4 73.55 36.4 73.7 36.55 73.95 36.7 76.9 39.05 M73.8 38.45 L74.05 38.1 75.9 39.45 75.65 39.75 74.65 40.85 74.0 40.4 73.9 40.3 73.8 40.25 73.2 39.8 72.95 39.6 73.8 38.45" fill="none" stroke="#b34a17" stroke-linecap="round" stroke-linejoin="round" stroke-width="0.5"/>
    <path d="M75.65 39.75 L75.8 39.9 76.4 40.45 M72.45 37.8 L73.7 38.4 73.8 38.45 M74.05 39.7 Q74.05 39.25 74.5 39.25 74.95 39.25 74.95 39.7 L74.5 40.15 Q74.05 40.15 74.05 39.7 M71.9 39.05 L72.95 39.6 M71.55 39.8 L72.7 40.55 74.1 41.7 74.2 41.85 M74.95 41.15 L74.75 41.0 74.0 40.4" fill="none" stroke="#b34a17" stroke-linecap="round" stroke-linejoin="round" stroke-width="0.2"/>
    <path d="M90.4 32.4 Q91.75 36.35 94.7 40.6 100.2 48.5 108.25 52.05 M89.5 29.85 L84.65 19.05" fill="none" stroke="#ffcbb3" stroke-linecap="butt" stroke-linejoin="miter-clip" stroke-miterlimit="4.0" stroke-width="0.65"/>
    <path d="M42.45 21.2 L37.85 24.95 M9.9 22.5 L9.9 19.8 M23.85 11.1 L25.6 11.35 26.7 11.45 M27.45 15.6 L27.65 14.45 M9.9 22.5 L9.9 22.9" fill="none" stroke="#a64515" stroke-linecap="butt" stroke-linejoin="miter-clip" stroke-miterlimit="10.0" stroke-width="1.0"/>
    <path d="M48.45 28.45 Q46.35 28.4 45.05 27.75 42.35 26.4 42.3 22.75 42.3 21.9 42.45 21.2 42.8 18.95 44.5 18.15 46.1 17.35 48.95 18.65 52.5 20.35 53.2 20.4 54.5 20.55 60.45 20.3 62.55 20.05 62.9 21.8 63.25 23.6 61.2 24.8 L59.9 25.65 57.65 26.65 55.95 27.25 55.7 27.3 51.75 28.2 50.15 28.4 48.45 28.45 Z" fill="none" stroke="#d4d4d4" stroke-linecap="butt" stroke-linejoin="miter-clip" stroke-miterlimit="4.0" stroke-width="0.7000000000000001"/>
  </g>
</svg>
