<?xml version="1.0" encoding="UTF-8" standalone="no"?>
<svg xmlns:ffdec="https://www.free-decompiler.com/flash" xmlns:xlink="http://www.w3.org/1999/xlink" ffdec:objectType="shape" height="24.8px" width="24.8px" xmlns="http://www.w3.org/2000/svg">
  <g transform="matrix(1.0, 0.0, 0.0, 1.0, 0.2, 0.3)">
    <path d="M11.65 1.7 L11.8 1.3 Q11.95 1.15 12.15 1.15 L12.55 1.3 12.75 1.65 12.55 2.05 12.15 2.2 11.8 2.05 11.65 1.7" fill="#8a8a8a" fill-rule="evenodd" stroke="none"/>
    <path d="M11.65 1.7 L11.8 2.05 12.15 2.2 12.55 2.05 12.75 1.65 12.55 1.3 12.15 1.15 Q11.95 1.15 11.8 1.3 L11.65 1.7 Z" fill="none" stroke="#474747" stroke-linecap="round" stroke-linejoin="round" stroke-width="1.0"/>
    <path d="M3.4 12.1 Q3.4 14.85 5.35 16.8 L10.1 12.05 5.35 7.35 Q3.4 9.3 3.4 12.1 M16.95 18.95 L16.95 18.9 12.2 14.15 7.45 18.9 7.45 18.95 Q9.4 20.9 12.2 20.9 14.95 20.9 16.95 18.95 M19.05 16.8 Q21.0 14.85 21.0 12.1 21.0 9.3 19.05 7.35 L14.3 12.05 19.05 16.8 M3.65 3.5 Q7.2 0.0 12.2 0.0 17.25 0.0 20.75 3.5 24.3 7.05 24.3 12.1 24.3 17.1 20.75 20.65 17.25 24.2 12.2 24.2 7.2 24.2 3.65 20.65 0.1 17.1 0.1 12.1 0.1 7.05 3.65 3.5 M16.9 5.25 Q14.95 3.3 12.2 3.3 9.45 3.3 7.45 5.25 L12.2 9.95 16.9 5.25" fill="#ef9c73" fill-rule="evenodd" stroke="none"/>
    <path d="M16.9 5.25 L12.2 9.95 7.45 5.25 Q9.45 3.3 12.2 3.3 14.95 3.3 16.9 5.25 M3.65 3.5 Q0.1 7.05 0.1 12.1 0.1 17.1 3.65 20.65 7.2 24.2 12.2 24.2 17.25 24.2 20.75 20.65 24.3 17.1 24.3 12.1 24.3 7.05 20.75 3.5 17.25 0.0 12.2 0.0 7.2 0.0 3.65 3.5 M19.05 16.8 L14.3 12.05 19.05 7.35 Q21.0 9.3 21.0 12.1 21.0 14.85 19.05 16.8 M16.95 18.95 Q14.95 20.9 12.2 20.9 9.4 20.9 7.45 18.95 L7.45 18.9 12.2 14.15 16.95 18.9 16.95 18.95 M3.4 12.1 Q3.4 9.3 5.35 7.35 L10.1 12.05 5.35 16.8 Q3.4 14.85 3.4 12.1 Z" fill="none" stroke="#b34a17" stroke-linecap="butt" stroke-linejoin="miter-clip" stroke-miterlimit="10.0" stroke-width="0.65"/>
  </g>
</svg>
