<?xml version="1.0" encoding="UTF-8" standalone="no"?>
<svg xmlns:ffdec="https://www.free-decompiler.com/flash" xmlns:xlink="http://www.w3.org/1999/xlink" ffdec:objectType="shape" height="53.15px" width="53.2px" xmlns="http://www.w3.org/2000/svg">
  <g transform="matrix(1.0, 0.0, 0.0, 1.0, 0.2, -0.05)">
    <path d="M26.4 26.65 L26.4 49.15" fill="none" stroke="#616161" stroke-linecap="butt" stroke-linejoin="round" stroke-width="0.7000000000000001"/>
    <path d="M26.4 26.65 L36.85 46.55" fill="none" stroke="#616161" stroke-linecap="butt" stroke-linejoin="round" stroke-width="0.7000000000000001"/>
    <path d="M26.4 26.65 L44.9 39.4" fill="none" stroke="#616161" stroke-linecap="butt" stroke-linejoin="round" stroke-width="0.7000000000000001"/>
    <path d="M26.4 26.65 L48.75 29.35" fill="none" stroke="#616161" stroke-linecap="butt" stroke-linejoin="round" stroke-width="0.7000000000000001"/>
    <path d="M26.4 26.65 L47.45 18.65" fill="none" stroke="#616161" stroke-linecap="butt" stroke-linejoin="round" stroke-width="0.7000000000000001"/>
    <path d="M26.4 26.65 L41.3 9.8" fill="none" stroke="#616161" stroke-linecap="butt" stroke-linejoin="round" stroke-width="0.7000000000000001"/>
    <path d="M26.4 26.65 L31.8 4.8" fill="none" stroke="#616161" stroke-linecap="butt" stroke-linejoin="round" stroke-width="0.7000000000000001"/>
    <path d="M26.4 26.65 L21.0 4.8" fill="none" stroke="#616161" stroke-linecap="butt" stroke-linejoin="round" stroke-width="0.7000000000000001"/>
    <path d="M26.4 26.65 L11.45 9.8" fill="none" stroke="#616161" stroke-linecap="butt" stroke-linejoin="round" stroke-width="0.7000000000000001"/>
    <path d="M26.4 26.65 L5.35 18.65" fill="none" stroke="#616161" stroke-linecap="butt" stroke-linejoin="round" stroke-width="0.7000000000000001"/>
    <path d="M26.4 26.65 L4.05 29.35" fill="none" stroke="#616161" stroke-linecap="butt" stroke-linejoin="round" stroke-width="0.7000000000000001"/>
    <path d="M26.4 26.65 L7.9 39.4" fill="none" stroke="#616161" stroke-linecap="butt" stroke-linejoin="round" stroke-width="0.7000000000000001"/>
    <path d="M26.4 26.65 L15.95 46.55" fill="none" stroke="#616161" stroke-linecap="butt" stroke-linejoin="round" stroke-width="0.7000000000000001"/>
    <path d="M5.95 35.25 Q7.65 39.25 10.7 42.3 13.8 45.4 17.75 47.05 21.85 48.8 26.4 48.8 35.6 48.8 42.1 42.3 45.15 39.25 46.85 35.25 48.6 31.15 48.6 26.65 48.6 22.15 46.85 18.0 45.15 14.0 42.1 10.95 39.0 7.85 35.05 6.2 30.95 4.45 26.4 4.45 21.85 4.45 17.75 6.2 13.8 7.85 10.7 10.95 7.65 14.0 5.95 18.0 4.2 22.15 4.2 26.65 4.2 31.15 5.95 35.25 M44.7 8.35 Q52.25 15.9 52.25 26.65 52.25 37.35 44.7 44.9 37.1 52.5 26.4 52.5 15.7 52.5 8.1 44.9 0.5 37.35 0.5 26.65 0.5 15.95 8.1 8.35 15.7 0.75 26.4 0.75 37.1 0.75 44.7 8.35" fill="#ffffff" fill-rule="evenodd" stroke="none"/>
    <path d="M5.95 35.25 Q7.65 39.25 10.7 42.3 13.8 45.4 17.75 47.05 21.85 48.8 26.4 48.8 35.6 48.8 42.1 42.3 45.15 39.25 46.85 35.25 48.6 31.15 48.6 26.65 48.6 22.15 46.85 18.0 45.15 14.0 42.1 10.95 39.0 7.85 35.05 6.2 30.95 4.45 26.4 4.45 21.85 4.45 17.75 6.2 13.8 7.85 10.7 10.95 7.65 14.0 5.95 18.0 4.2 22.15 4.2 26.65 4.2 31.15 5.95 35.25 M44.7 8.35 Q52.25 15.9 52.25 26.65 52.25 37.35 44.7 44.9 37.1 52.5 26.4 52.5 15.7 52.5 8.1 44.9 0.5 37.35 0.5 26.65 0.5 15.95 8.1 8.35 15.7 0.75 26.4 0.75 37.1 0.75 44.7 8.35 Z" fill="none" stroke="#00e686" stroke-linecap="butt" stroke-linejoin="miter-clip" stroke-miterlimit="4.0" stroke-width="1.0"/>
    <path d="M26.4 0.75 Q15.7 0.75 8.1 8.35 0.5 15.95 0.5 26.65 0.5 37.35 8.1 44.9 15.7 52.5 26.4 52.5 37.1 52.5 44.7 44.9 52.25 37.35 52.25 26.65 52.25 15.9 44.7 8.35 37.1 0.75 26.4 0.75 M26.4 0.05 Q37.4 0.05 45.2 7.85 53.0 15.65 53.0 26.65 53.0 37.65 45.2 45.4 37.4 53.2 26.4 53.2 15.4 53.2 7.6 45.4 -0.2 37.65 -0.2 26.65 -0.2 15.65 7.6 7.85 15.4 0.05 26.4 0.05" fill="#282320" fill-rule="evenodd" stroke="none"/>
    <path d="M2.2 26.65 L2.25 28.6 0.9 25.85 Q1.2 15.5 8.6 8.3 16.05 1.1 26.4 1.1 36.6 1.1 44.0 8.15 51.4 15.15 51.9 25.3 L50.55 28.1 50.6 26.65 Q50.6 21.7 48.7 17.2 46.85 12.85 43.5 9.5 40.2 6.15 35.85 4.3 31.35 2.4 26.4 2.4 21.45 2.4 16.95 4.3 12.6 6.15 9.25 9.5 5.9 12.85 4.1 17.2 2.2 21.7 2.2 26.65" fill="#808080" fill-rule="evenodd" stroke="none"/>
    <path d="M0.85 26.65 L0.9 25.85 2.25 28.6 Q3.0 37.4 9.25 43.75 12.6 47.1 16.95 48.95 21.45 50.85 26.4 50.85 31.35 50.85 35.85 48.95 40.2 47.1 43.5 43.75 50.0 37.3 50.55 28.1 L51.9 25.3 51.9 26.65 Q51.9 37.2 44.45 44.65 36.95 52.15 26.4 52.15 15.85 52.15 8.35 44.65 0.9 37.2 0.85 26.65" fill="#454545" fill-rule="evenodd" stroke="none"/>
    <path d="M31.0 26.25 Q31.0 28.1 29.7 29.4 28.4 30.7 26.55 30.7 24.7 30.7 23.4 29.4 22.1 28.1 22.1 26.25 22.1 24.4 23.4 23.1 24.7 21.8 26.55 21.8 28.4 21.8 29.7 23.1 31.0 24.4 31.0 26.25" fill="#a2a2a2" fill-rule="evenodd" stroke="none"/>
    <path d="M31.0 26.25 Q31.0 28.1 29.7 29.4 28.4 30.7 26.55 30.7 24.7 30.7 23.4 29.4 22.1 28.1 22.1 26.25 22.1 24.4 23.4 23.1 24.7 21.8 26.55 21.8 28.4 21.8 29.7 23.1 31.0 24.4 31.0 26.25 Z" fill="none" stroke="#646464" stroke-linecap="butt" stroke-linejoin="miter-clip" stroke-miterlimit="10.0" stroke-width="0.5"/>
    <path d="M28.5 26.25 Q28.5 27.1 27.95 27.65 27.4 28.2 26.55 28.2 25.75 28.2 25.2 27.65 24.6 27.05 24.6 26.25 24.6 25.45 25.2 24.85 25.75 24.3 26.55 24.3 27.4 24.3 27.95 24.85 28.5 25.45 28.5 26.25" fill="#bbbbbb" fill-rule="evenodd" stroke="none"/>
    <path d="M28.5 26.25 Q28.5 27.1 27.95 27.65 27.4 28.2 26.55 28.2 25.75 28.2 25.2 27.65 24.6 27.05 24.6 26.25 24.6 25.45 25.2 24.85 25.75 24.3 26.55 24.3 27.4 24.3 27.95 24.85 28.5 25.45 28.5 26.25 Z" fill="none" stroke="#646464" stroke-linecap="butt" stroke-linejoin="miter-clip" stroke-miterlimit="10.0" stroke-width="0.5"/>
    <path d="M28.65 9.55 L32.85 10.95 Q37.45 12.9 39.15 15.5 L38.0 16.9 34.45 16.05 Q30.4 14.6 27.9 11.55 L28.65 9.55" fill="#e6e6e6" fill-opacity="0.8" fill-rule="evenodd" stroke="none"/>
    <path d="M28.65 9.55 L32.85 10.95 Q37.45 12.9 39.15 15.5 L38.0 16.9 34.45 16.05 Q30.4 14.6 27.9 11.55 L28.65 9.55 Z" fill="none" stroke="#ffffff" stroke-linecap="round" stroke-linejoin="round" stroke-width="1.0"/>
  </g>
</svg>
