<?xml version="1.0" encoding="UTF-8" standalone="no"?>
<svg xmlns:ffdec="https://www.free-decompiler.com/flash" xmlns:xlink="http://www.w3.org/1999/xlink" ffdec:objectType="shape" height="122.4px" width="113.25px" xmlns="http://www.w3.org/2000/svg">
  <g transform="matrix(1.0, 0.0, 0.0, 1.0, 2.65, 57.55)">
    <path d="M14.0 -2.5 Q8.8 -0.6 7.8 -0.8" fill="none" stroke="#231f20" stroke-linecap="butt" stroke-linejoin="miter-clip" stroke-miterlimit="10.0" stroke-width="1.0"/>
    <path d="M10.35 -41.75 Q5.15 -39.85 4.15 -40.05" fill="none" stroke="#231f20" stroke-linecap="butt" stroke-linejoin="miter-clip" stroke-miterlimit="10.0" stroke-width="1.0"/>
    <path d="M3.55 -39.85 L3.1 -39.2 2.3 -39.05 Q1.85 -39.15 1.6 -39.5 1.4 -39.9 1.5 -40.3 L1.95 -40.95 2.75 -41.1 3.4 -40.65 3.55 -39.85" fill="#000000" fill-rule="evenodd" stroke="none"/>
    <path d="M3.55 -39.85 L3.1 -39.2 2.3 -39.05 Q1.85 -39.15 1.6 -39.5 1.4 -39.9 1.5 -40.3 L1.95 -40.95 2.75 -41.1 3.4 -40.65 3.55 -39.85 Z" fill="none" stroke="#231f20" stroke-linecap="butt" stroke-linejoin="miter-clip" stroke-miterlimit="10.0" stroke-width="1.0"/>
    <path d="M6.15 -1.35 Q6.1 -0.95 5.7 -0.7 5.35 -0.45 4.9 -0.55 L4.25 -1.0 4.1 -1.8 Q4.2 -2.25 4.6 -2.5 L5.35 -2.6 6.05 -2.15 6.15 -1.35" fill="#000000" fill-rule="evenodd" stroke="none"/>
    <path d="M6.15 -1.35 Q6.1 -0.95 5.7 -0.7 5.35 -0.45 4.9 -0.55 L4.25 -1.0 4.1 -1.8 Q4.2 -2.25 4.6 -2.5 L5.35 -2.6 6.05 -2.15 6.15 -1.35 Z" fill="none" stroke="#231f20" stroke-linecap="butt" stroke-linejoin="miter-clip" stroke-miterlimit="10.0" stroke-width="1.0"/>
    <path d="M2.5 -41.1 L5.25 -42.85 Q8.45 -44.5 10.8 -43.95" fill="none" stroke="#231f20" stroke-linecap="butt" stroke-linejoin="miter-clip" stroke-miterlimit="10.0" stroke-width="1.0"/>
    <path d="M5.15 -1.85 L7.6 -3.7 Q10.45 -5.4 12.5 -4.95" fill="none" stroke="#231f20" stroke-linecap="butt" stroke-linejoin="miter-clip" stroke-miterlimit="10.0" stroke-width="1.0"/>
    <path d="M9.25 -45.1 Q9.25 -45.7 9.7 -46.15 10.15 -46.6 10.75 -46.6 11.4 -46.6 11.8 -46.15 L12.25 -45.1 13.25 -22.5 Q14.9 2.75 18.45 17.4 22.85 17.1 26.8 18.05 33.35 19.6 35.05 24.3 L35.0 25.4 34.15 26.2 33.6 26.3 Q32.6 26.3 32.2 25.3 30.9 21.6 24.4 20.65 L18.1 20.4 Q17.5 20.5 17.0 20.05 16.0 19.95 15.75 18.95 12.0 4.15 10.25 -21.8 L9.25 -45.1" fill="#39eb5e" fill-rule="evenodd" stroke="none"/>
    <path d="M9.25 -45.1 L10.25 -21.8 Q12.0 4.15 15.75 18.95 16.0 19.95 17.0 20.05 17.5 20.5 18.1 20.4 L24.4 20.65 Q30.9 21.6 32.2 25.3 32.6 26.3 33.6 26.3 L34.15 26.2 35.0 25.4 35.05 24.3 Q33.35 19.6 26.8 18.05 22.85 17.1 18.45 17.4 14.9 2.75 13.25 -22.5 L12.25 -45.1 11.8 -46.15 Q11.4 -46.6 10.75 -46.6 10.15 -46.6 9.7 -46.15 9.25 -45.7 9.25 -45.1 Z" fill="none" stroke="#13944f" stroke-linecap="round" stroke-linejoin="round" stroke-width="0.65"/>
    <path d="M11.15 -44.8 L12.65 -18.75 Q14.8 9.15 17.9 18.5 L19.85 18.4 24.4 18.7 Q31.3 19.85 33.5 24.45" fill="none" stroke="#a1ffcc" stroke-linecap="round" stroke-linejoin="round" stroke-width="1.0"/>
    <path d="M19.2 46.9 Q21.05 44.35 44.7 -13.3" fill="none" stroke="#363636" stroke-linecap="round" stroke-linejoin="round" stroke-width="2.0"/>
    <path d="M60.5 5.35 L33.15 62.4" fill="none" stroke="#363636" stroke-linecap="round" stroke-linejoin="round" stroke-width="2.0"/>
    <path d="M74.95 -39.95 L75.1 -40.05 75.7 -40.55 77.6 -42.6 Q80.7 -46.25 82.05 -50.95 L85.45 -49.25 Q83.8 -43.75 80.35 -39.55 78.6 -37.45 77.05 -36.35 L74.95 -39.95" fill="#c4c4c4" fill-rule="evenodd" stroke="none"/>
    <path d="M74.95 -39.95 L75.1 -40.05 75.7 -40.55 77.6 -42.6 Q80.7 -46.25 82.05 -50.95 L85.45 -49.25 Q83.8 -43.75 80.35 -39.55 78.6 -37.45 77.05 -36.35 L74.95 -39.95 Z" fill="none" stroke="#616161" stroke-linecap="butt" stroke-linejoin="miter-clip" stroke-miterlimit="10.0" stroke-width="0.5"/>
    <path d="M73.65 -34.2 L77.95 -36.25 79.8 -30.2 73.65 -34.2" fill="#39eb5e" fill-rule="evenodd" stroke="none"/>
    <path d="M73.65 -34.2 L77.95 -36.25 79.8 -30.2" fill="none" stroke="#a1ffcc" stroke-linecap="round" stroke-linejoin="round" stroke-width="1.0"/>
    <path d="M27.95 51.25 L28.15 53.0 Q28.15 54.65 27.45 56.05 L25.85 53.6 25.85 53.4 27.95 51.25 M26.15 57.8 Q24.2 59.75 21.4 59.75 18.6 59.75 16.6 57.75 14.65 55.8 14.65 53.0 14.65 50.2 16.6 48.2 18.5 46.35 21.2 46.25 L20.65 46.85 Q19.2 48.2 18.6 49.55 L18.25 49.85 Q16.95 51.15 16.95 53.0 16.95 54.85 18.25 56.15 19.55 57.45 21.4 57.45 23.25 57.45 24.55 56.15 L24.85 55.85 26.15 57.8" fill="#a7a7a7" fill-rule="evenodd" stroke="none"/>
    <path d="M27.45 56.05 L29.95 59.75 Q30.55 59.3 31.35 59.3 32.45 59.3 33.2 60.1 34.0 60.85 34.0 61.95 34.0 63.05 33.2 63.85 32.45 64.6 31.35 64.6 30.2 64.6 29.45 63.85 28.65 63.05 28.65 61.95 L28.7 61.6 26.15 57.8 24.85 55.85 Q25.65 54.85 25.85 53.6 L27.45 56.05 M28.7 61.6 Q28.8 60.7 29.45 60.1 L29.95 59.75 29.45 60.1 Q28.8 60.7 28.7 61.6" fill="#5d5d5d" fill-rule="evenodd" stroke="none"/>
    <path d="M25.85 53.4 L25.85 53.6 Q25.65 54.85 24.85 55.85 L24.55 56.15 Q23.25 57.45 21.4 57.45 19.55 57.45 18.25 56.15 16.95 54.85 16.95 53.0 16.95 51.15 18.25 49.85 L18.6 49.55 Q18.0 50.75 18.05 51.95 18.15 53.65 19.6 54.9 20.55 55.6 21.65 55.6 23.35 55.6 25.45 53.75 L25.85 53.4" fill="#8a8a8a" fill-rule="evenodd" stroke="none"/>
    <path d="M43.8 -26.95 L44.0 -25.8 44.3 -25.8 49.75 -9.8 72.45 -31.45 71.6 -33.55 Q71.45 -33.95 71.6 -34.4 L71.9 -34.8 72.15 -35.0 77.6 -37.7 77.9 -37.9 78.0 -37.95 Q78.4 -38.15 78.8 -37.95 L79.25 -37.4 81.5 -30.3 81.4 -29.45 80.85 -28.85 80.75 -28.8 105.3 40.4 106.25 40.05 110.1 50.85 Q110.6 52.25 109.95 53.55 109.3 54.85 107.95 55.35 L106.8 55.55 Q105.7 55.55 104.8 54.9 103.9 54.25 103.5 53.2 L99.65 42.4 100.6 42.1 78.6 -19.8 59.75 8.05 Q40.25 36.15 32.65 44.5 L33.4 45.15 31.75 46.95 29.3 49.65 27.95 51.25 25.85 53.4 25.45 53.75 Q23.35 55.6 21.65 55.6 20.55 55.6 19.6 54.9 18.15 53.65 18.05 51.95 18.0 50.75 18.6 49.55 19.2 48.2 20.65 46.85 L21.2 46.25 27.1 39.6 27.85 40.25 Q33.0 34.35 34.55 31.55 36.2 28.45 34.1 28.25 L33.8 28.25 Q33.15 28.65 32.35 28.65 31.25 28.65 30.5 27.9 29.75 27.1 29.75 26.05 29.6 25.15 30.25 24.25 L47.8 -0.1 39.15 -25.45 40.6 -25.25 41.8 -25.5 42.15 -25.45 42.3 -25.55 42.5 -25.65 42.65 -25.8 42.9 -26.0 43.8 -26.95 M76.2 -26.75 L75.6 -26.5 Q75.2 -26.35 74.8 -26.5 L74.5 -26.7 74.25 -27.1 73.85 -28.15 72.45 -31.45 73.85 -28.15 74.25 -27.1 74.5 -26.7 51.5 -4.75 55.45 6.95 76.65 -25.4 76.2 -26.75 79.6 -28.25 80.75 -28.8 79.6 -28.25 76.2 -26.75 M44.1 -25.1 L44.0 -25.8 44.1 -25.1 M31.7 43.65 L54.4 12.85 67.8 -6.6 77.1 -20.5 67.8 -6.6 54.4 12.85 31.7 43.65 32.65 44.5 31.7 43.65 27.85 40.25 31.7 43.65 M42.6 -25.4 L49.6 -4.45 73.85 -28.15 49.6 -4.45 53.6 7.65 49.6 -4.45 42.6 -25.4 M106.05 41.75 L102.55 43.0 105.65 51.75 Q106.05 53.0 107.4 53.0 L108.0 52.9 109.05 51.95 Q109.4 51.35 109.15 50.5 L106.05 41.75 M104.0 40.85 L100.6 42.1 104.0 40.85 105.3 40.4 104.0 40.85 79.6 -28.25 104.0 40.85 M51.9 10.55 L49.75 5.7 41.5 15.5 Q33.6 25.25 35.45 24.95 36.75 24.75 38.1 25.8 L39.2 26.85 51.9 10.55 M33.5 23.65 L32.35 23.4 Q31.25 23.4 30.5 24.2 29.75 24.95 29.75 26.05 29.75 24.95 30.5 24.2 31.25 23.4 32.35 23.4 L33.5 23.65 46.9 6.05 33.5 23.65 Q33.85 23.85 34.2 24.2 34.95 24.95 34.95 26.05 L34.95 26.2 34.95 26.05 Q34.95 24.95 34.2 24.2 33.85 23.85 33.5 23.65 M37.5 27.6 Q37.3 27.05 36.65 26.65 35.9 26.2 34.95 26.2 35.9 26.2 36.65 26.65 37.3 27.05 37.5 27.6 M31.9 25.55 Q31.45 25.55 31.15 25.9 30.85 26.2 30.85 26.65 30.85 27.1 31.15 27.45 31.45 27.75 31.9 27.75 L32.7 27.45 33.0 26.65 32.7 25.9 Q32.35 25.55 31.9 25.55 M34.95 26.2 Q34.9 27.15 34.2 27.9 L33.8 28.25 34.2 27.9 Q34.9 27.15 34.95 26.2 M28.3 41.7 L23.4 47.15 Q21.5 49.0 21.55 50.6 21.55 51.6 22.4 52.2 22.8 52.55 23.35 52.55 24.45 52.55 26.1 51.05 L29.1 47.8 31.8 44.8 28.3 41.7" fill="#39eb5e" fill-rule="evenodd" stroke="none"/>
    <path d="M106.05 41.75 L109.15 50.5 Q109.4 51.35 109.05 51.95 L108.0 52.9 107.4 53.0 Q106.05 53.0 105.65 51.75 L102.55 43.0 106.05 41.75 M31.9 25.55 Q32.35 25.55 32.7 25.9 L33.0 26.65 32.7 27.45 31.9 27.75 Q31.45 27.75 31.15 27.45 30.85 27.1 30.85 26.65 30.85 26.2 31.15 25.9 31.45 25.55 31.9 25.55 M28.3 41.7 L31.8 44.8 29.1 47.8 26.1 51.05 Q24.45 52.55 23.35 52.55 22.8 52.55 22.4 52.2 21.55 51.6 21.55 50.6 21.5 49.0 23.4 47.15 L28.3 41.7" fill="#a1ffcc" fill-rule="evenodd" stroke="none"/>
    <path d="M37.35 -28.3 L38.15 -28.2 Q40.9 -27.9 44.2 -28.3 L43.8 -26.95 42.9 -26.0 42.65 -25.8 42.5 -25.65 42.3 -25.55 42.15 -25.45 41.8 -25.5 40.6 -25.25 39.15 -25.45 38.55 -25.8 40.2 -25.8 38.45 -26.1 38.1 -26.5 Q37.45 -27.3 37.35 -28.3" fill="#525252" fill-rule="evenodd" stroke="none"/>
    <path d="M37.35 -28.3 Q34.35 -28.65 32.85 -29.85 30.15 -31.85 30.8 -35.8 31.45 -39.6 34.05 -40.4 35.9 -40.85 38.75 -38.9 42.35 -36.4 43.05 -36.2 L50.85 -34.95 Q53.25 -34.75 53.3 -32.8 53.3 -30.85 50.85 -29.9 48.9 -29.0 46.6 -28.65 L44.2 -28.3 Q40.9 -27.9 38.15 -28.2 L37.35 -28.3 M34.75 -37.25 Q35.55 -37.15 37.25 -35.65 39.35 -33.65 40.75 -33.25 L43.55 -32.75 46.35 -32.5 49.55 -31.8 49.6 -31.8 51.7 -31.4 50.95 -32.65 Q50.3 -33.35 49.0 -33.65 L46.45 -34.1 41.05 -34.8 Q40.0 -35.15 38.0 -36.9 L36.5 -38.1 34.85 -38.8 33.65 -38.55 Q32.75 -38.15 32.25 -37.05 L32.0 -36.35 32.8 -36.9 Q33.65 -37.45 34.45 -37.25 L34.75 -37.25" fill="#ffffff" fill-rule="evenodd" stroke="none"/>
    <path d="M34.75 -37.25 L34.45 -37.25 Q33.65 -37.45 32.8 -36.9 L32.0 -36.35 32.25 -37.05 Q32.75 -38.15 33.65 -38.55 L34.85 -38.8 36.5 -38.1 38.0 -36.9 Q40.0 -35.15 41.05 -34.8 L46.45 -34.1 49.0 -33.65 Q50.3 -33.35 50.95 -32.65 L51.7 -31.4 49.6 -31.8 49.55 -31.8 46.35 -32.5 43.55 -32.75 40.75 -33.25 Q39.35 -33.65 37.25 -35.65 35.55 -37.15 34.75 -37.25" fill="#cccccc" fill-rule="evenodd" stroke="none"/>
    <path d="M78.25 -54.55 L81.25 -53.6 81.35 -54.05 81.6 -54.45 82.1 -54.4 86.45 -52.45 Q87.1 -52.2 86.9 -51.55 L85.4 -45.65 Q85.25 -45.0 84.6 -45.25 L80.3 -47.2 Q79.7 -47.45 79.85 -48.15 L80.25 -49.7 77.8 -50.45 Q78.3 -51.7 78.3 -53.55 L78.25 -54.55 M71.9 -34.8 Q71.2 -35.7 71.2 -36.9 71.2 -38.3 72.2 -39.35 73.25 -40.35 74.65 -40.35 76.05 -40.35 77.05 -39.35 L77.9 -37.9 77.6 -37.7 Q77.1 -38.7 75.8 -39.0 74.75 -39.2 74.05 -38.3 L73.5 -37.35 74.05 -38.3 Q74.75 -39.2 75.8 -39.0 77.1 -38.7 77.6 -37.7 L72.15 -35.0 71.9 -34.8 M81.25 -53.6 L84.1 -52.35 84.45 -51.65 Q84.7 -50.8 84.45 -50.05 84.05 -48.9 82.9 -48.6 81.85 -49.15 80.25 -49.7 81.85 -49.15 82.9 -48.6 84.05 -48.9 84.45 -50.05 84.7 -50.8 84.45 -51.65 L84.1 -52.35 81.25 -53.6 M83.35 -51.5 Q80.5 -53.05 78.3 -53.55 80.5 -53.05 83.35 -51.5" fill="#c4c4c4" fill-rule="evenodd" stroke="none"/>
    <path d="M66.3 -56.15 L67.3 -52.05 67.5 -52.1 68.25 -52.15 71.0 -52.2 76.9 -51.15 Q77.5 -52.35 77.3 -55.2 L69.7 -56.1 66.3 -56.15 M77.8 -50.45 L77.7 -50.3 77.4 -49.65 76.75 -49.8 71.0 -50.85 68.35 -50.8 67.7 -50.75 66.65 -50.55 66.25 -51.6 64.95 -57.1 66.0 -57.25 69.65 -57.2 77.25 -56.25 78.15 -56.05 78.2 -55.0 78.25 -54.55 78.3 -53.55 Q78.3 -51.7 77.8 -50.45" fill="#5c5c5c" fill-rule="evenodd" stroke="none"/>
    <path d="M66.3 -56.15 L69.7 -56.1 77.3 -55.2 Q77.5 -52.35 76.9 -51.15 L71.0 -52.2 68.25 -52.15 67.5 -52.1 67.3 -52.05 66.3 -56.15" fill="#a1a1a1" fill-rule="evenodd" stroke="none"/>
    <path d="M27.95 51.25 L28.15 53.0 Q28.15 54.65 27.45 56.05 M26.15 57.8 Q24.2 59.75 21.4 59.75 18.6 59.75 16.6 57.75 14.65 55.8 14.65 53.0 14.65 50.2 16.6 48.2 18.5 46.35 21.2 46.25 M25.85 53.4 L25.85 53.6 Q25.65 54.85 24.85 55.85 L24.55 56.15 Q23.25 57.45 21.4 57.45 19.55 57.45 18.25 56.15 16.95 54.85 16.95 53.0 16.95 51.15 18.25 49.85 L18.6 49.55" fill="none" stroke="#5d5d5d" stroke-linecap="butt" stroke-linejoin="miter-clip" stroke-miterlimit="10.0" stroke-width="0.5"/>
    <path d="M27.45 56.05 L29.95 59.75 Q30.55 59.3 31.35 59.3 32.45 59.3 33.2 60.1 34.0 60.85 34.0 61.95 34.0 63.05 33.2 63.85 32.45 64.6 31.35 64.6 30.2 64.6 29.45 63.85 28.65 63.05 28.65 61.95 L28.7 61.6 26.15 57.8 24.85 55.85 M25.85 53.6 L27.45 56.05 M29.95 59.75 L29.45 60.1 Q28.8 60.7 28.7 61.6" fill="none" stroke="#3b3b3b" stroke-linecap="butt" stroke-linejoin="miter-clip" stroke-miterlimit="10.0" stroke-width="0.5"/>
    <path d="M43.8 -26.95 L44.0 -25.8 44.1 -25.1 M44.3 -25.8 L49.75 -9.8 72.45 -31.45 M80.75 -28.8 L105.3 40.4 106.25 40.05 110.1 50.85 Q110.6 52.25 109.95 53.55 109.3 54.85 107.95 55.35 L106.8 55.55 Q105.7 55.55 104.8 54.9 103.9 54.25 103.5 53.2 L99.65 42.4 100.6 42.1 78.6 -19.8 59.75 8.05 Q40.25 36.15 32.65 44.5 L33.4 45.15 31.75 46.95 29.3 49.65 27.95 51.25 25.85 53.4 25.45 53.75 Q23.35 55.6 21.65 55.6 20.55 55.6 19.6 54.9 18.15 53.65 18.05 51.95 18.0 50.75 18.6 49.55 19.2 48.2 20.65 46.85 L21.2 46.25 27.1 39.6 27.85 40.25 Q33.0 34.35 34.55 31.55 36.2 28.45 34.1 28.25 L33.8 28.25 M29.75 26.05 Q29.6 25.15 30.25 24.25 L47.8 -0.1 39.15 -25.45 M74.5 -26.7 L51.5 -4.75 55.45 6.95 76.65 -25.4 76.2 -26.75 M31.7 43.65 L32.65 44.5 M104.0 40.85 L105.3 40.4 M100.6 42.1 L104.0 40.85 M51.9 10.55 L39.2 26.85 38.1 25.8 Q36.75 24.75 35.45 24.95 33.6 25.25 41.5 15.5 L49.75 5.7 51.9 10.55 M27.85 40.25 L31.7 43.65" fill="none" stroke="#13944f" stroke-linecap="round" stroke-linejoin="round" stroke-width="0.65"/>
    <path d="M77.1 -20.5 L67.8 -6.6 54.4 12.85 31.7 43.65 M73.85 -28.15 L49.6 -4.45 53.6 7.65 M49.6 -4.45 L42.6 -25.4 M104.0 40.85 L79.6 -28.25 M33.5 23.65 L46.9 6.05 M34.95 26.2 Q35.9 26.2 36.65 26.65 37.3 27.05 37.5 27.6" fill="none" stroke="#a1ffcc" stroke-linecap="round" stroke-linejoin="round" stroke-width="1.0"/>
    <path d="M44.2 -28.3 L43.8 -26.95 42.9 -26.0 42.65 -25.8 42.5 -25.65 42.3 -25.55 42.15 -25.45 M39.15 -25.45 L38.55 -25.8 M38.45 -26.1 L38.1 -26.5 Q37.45 -27.3 37.35 -28.3 M39.15 -25.45 L40.6 -25.25 41.8 -25.5" fill="none" stroke="#000000" stroke-linecap="butt" stroke-linejoin="miter-clip" stroke-miterlimit="10.0" stroke-width="0.5"/>
    <path d="M44.2 -28.3 L46.6 -28.65 Q48.9 -29.0 50.85 -29.9 53.3 -30.85 53.3 -32.8 53.25 -34.75 50.85 -34.95 L43.05 -36.2 Q42.35 -36.4 38.75 -38.9 35.9 -40.85 34.05 -40.4 31.45 -39.6 30.8 -35.8 30.15 -31.85 32.85 -29.85 34.35 -28.65 37.35 -28.3 L38.15 -28.2 Q40.9 -27.9 44.2 -28.3" fill="none" stroke="#5e5e5e" stroke-linecap="butt" stroke-linejoin="miter-clip" stroke-miterlimit="4.0" stroke-width="0.7000000000000001"/>
    <path d="M78.25 -54.55 L81.25 -53.6 81.35 -54.05 81.6 -54.45 82.1 -54.4 86.45 -52.45 Q87.1 -52.2 86.9 -51.55 L85.4 -45.65 Q85.25 -45.0 84.6 -45.25 L80.3 -47.2 Q79.7 -47.45 79.85 -48.15 L80.25 -49.7 77.8 -50.45 M71.9 -34.8 Q71.2 -35.7 71.2 -36.9 71.2 -38.3 72.2 -39.35 73.25 -40.35 74.65 -40.35 76.05 -40.35 77.05 -39.35 L77.9 -37.9 M80.25 -49.7 Q81.85 -49.15 82.9 -48.6 84.05 -48.9 84.45 -50.05 84.7 -50.8 84.45 -51.65 L84.1 -52.35 81.25 -53.6" fill="none" stroke="#616161" stroke-linecap="butt" stroke-linejoin="miter-clip" stroke-miterlimit="10.0" stroke-width="0.5"/>
    <path d="M77.8 -50.45 L77.7 -50.3 77.4 -49.65 76.75 -49.8 71.0 -50.85 68.35 -50.8 67.7 -50.75 66.65 -50.55 66.25 -51.6 64.95 -57.1 66.0 -57.25 69.65 -57.2 77.25 -56.25 78.15 -56.05 78.2 -55.0 78.25 -54.55 78.3 -53.55 Q78.3 -51.7 77.8 -50.45" fill="none" stroke="#1f1f1f" stroke-linecap="round" stroke-linejoin="round" stroke-width="0.5"/>
    <path d="M77.6 -37.7 Q77.1 -38.7 75.8 -39.0 74.75 -39.2 74.05 -38.3 L73.5 -37.35 M77.5 -40.6 Q80.35 -43.5 81.35 -45.95 M78.3 -53.55 Q80.5 -53.05 83.35 -51.5" fill="none" stroke="#ebebeb" stroke-linecap="round" stroke-linejoin="round" stroke-width="0.7000000000000001"/>
    <path d="M72.45 -31.45 L71.6 -33.55 Q71.45 -33.95 71.6 -34.4 L71.9 -34.8 72.15 -35.0 77.6 -37.7 77.9 -37.9 78.0 -37.95 Q78.4 -38.15 78.8 -37.95 L79.25 -37.4 81.5 -30.3 81.4 -29.45 80.85 -28.85 80.75 -28.8 79.6 -28.25 76.2 -26.75 75.6 -26.5 Q75.2 -26.35 74.8 -26.5 L74.5 -26.7 74.25 -27.1 73.85 -28.15 72.45 -31.45 M33.8 28.25 Q33.15 28.65 32.35 28.65 31.25 28.65 30.5 27.9 29.75 27.1 29.75 26.05 29.75 24.95 30.5 24.2 31.25 23.4 32.35 23.4 L33.5 23.65 Q33.85 23.85 34.2 24.2 34.95 24.95 34.95 26.05 L34.95 26.2 Q34.9 27.15 34.2 27.9 L33.8 28.25 Z" fill="none" stroke="#13944f" stroke-linecap="round" stroke-linejoin="round" stroke-width="1.0"/>
  </g>
</svg>
