<?xml version="1.0" encoding="UTF-8" standalone="no"?>
<svg xmlns:ffdec="https://www.free-decompiler.com/flash" xmlns:xlink="http://www.w3.org/1999/xlink" ffdec:objectType="shape" height="55.95px" width="240.5px" xmlns="http://www.w3.org/2000/svg">
  <g transform="matrix(1.0, 0.0, 0.0, 1.0, 166.85, 27.95)">
    <path d="M-131.15 2.35 Q-133.3 0.8 -133.3 -1.4 -133.3 -3.55 -131.15 -5.1 -129.0 -6.65 -126.0 -6.65 L65.85 -6.8 Q68.85 -6.8 71.0 -5.25 73.15 -3.7 73.15 -1.55 73.15 0.65 71.0 2.2 68.85 3.75 65.85 3.75 L-126.0 3.9 Q-129.0 3.9 -131.15 2.35" fill="#865a39" fill-rule="evenodd" stroke="none"/>
    <path d="M-131.15 2.35 Q-129.0 3.9 -126.0 3.9 L65.85 3.75 Q68.85 3.75 71.0 2.2 73.15 0.65 73.15 -1.55 73.15 -3.7 71.0 -5.25 68.85 -6.8 65.85 -6.8 L-126.0 -6.65 Q-129.0 -6.65 -131.15 -5.1 -133.3 -3.55 -133.3 -1.4 -133.3 0.8 -131.15 2.35 Z" fill="none" stroke="#65442c" stroke-linecap="round" stroke-linejoin="round" stroke-width="1.0"/>
    <path d="M68.85 1.3 Q68.85 2.35 66.75 3.1 64.6 3.9 61.65 3.9 L-126.2 4.05 Q-129.1 4.05 -131.2 3.25 -133.3 2.5 -133.3 1.45 -133.3 0.35 -131.2 -0.4 L-126.2 -1.15 61.65 -1.3 Q64.6 -1.3 66.75 -0.55 68.85 0.25 68.85 1.3" fill="#000000" fill-opacity="0.2509804" fill-rule="evenodd" stroke="none"/>
    <path d="M-137.85 -25.9 L-100.1 -27.45 Q-96.35 0.05 -100.1 27.5 L-137.85 25.9 Q-147.5 24.3 -155.55 17.95 -165.15 10.25 -166.35 -0.55 -165.3 -10.6 -155.65 -17.9 -147.75 -23.95 -137.85 -25.9" fill="#b9b7a8" fill-rule="evenodd" stroke="none"/>
    <path d="M-137.85 -25.9 L-100.1 -27.45 Q-96.35 0.05 -100.1 27.5 L-137.85 25.9 Q-147.5 24.3 -155.55 17.95 -165.15 10.25 -166.35 -0.55 -165.3 -10.6 -155.65 -17.9 -147.75 -23.95 -137.85 -25.9 Z" fill="none" stroke="#000000" stroke-linecap="round" stroke-linejoin="round" stroke-opacity="0.29803923" stroke-width="1.0"/>
    <path d="M-102.45 25.0 L-119.35 24.4 -139.7 23.7 Q-142.8 23.7 -148.1 20.6 -152.25 18.2 -155.45 15.35 -160.4 11.05 -163.0 2.7 -129.3 8.05 -102.45 -1.5 -99.7 -0.75 -102.45 25.0" fill="#a6a495" fill-rule="evenodd" stroke="none"/>
    <path d="M-115.95 -6.95 L-74.95 -8.9 -74.95 6.15 -115.95 4.25 Q-121.9 0.5 -121.9 -1.35 -121.9 -3.25 -115.95 -6.95" fill="#b9b7a8" fill-rule="evenodd" stroke="none"/>
    <path d="M-115.95 -6.95 L-74.95 -8.9 -74.95 6.15 -115.95 4.25 Q-121.9 0.5 -121.9 -1.35 -121.9 -3.25 -115.95 -6.95 Z" fill="none" stroke="#000000" stroke-linecap="round" stroke-linejoin="round" stroke-opacity="0.29803923" stroke-width="1.0"/>
    <path d="M-118.3 -1.7 L-78.4 -4.85 Q-76.6 -1.4 -78.4 3.9 L-110.55 3.1 Q-122.05 0.2 -118.3 -1.7" fill="#a6a495" fill-rule="evenodd" stroke="none"/>
  </g>
</svg>
