<?xml version="1.0" encoding="UTF-8" standalone="no"?>
<svg xmlns:ffdec="https://www.free-decompiler.com/flash" xmlns:xlink="http://www.w3.org/1999/xlink" ffdec:objectType="shape" height="69.65px" width="249.7px" xmlns="http://www.w3.org/2000/svg">
  <g transform="matrix(1.0, 0.0, 0.0, 1.0, 170.95, 36.15)">
    <path d="M77.75 -4.3 L77.4 -9.25 Q76.25 -18.05 71.95 -24.2 66.1 -32.4 56.65 -32.25 55.05 -32.2 51.3 -30.7 47.95 -29.35 46.75 -29.65 L42.3 -30.65 38.05 -31.25 Q34.65 -31.2 32.2 -28.55 29.85 -25.7 30.0 -21.9 L30.05 -20.4 Q23.0 -19.55 21.75 -17.75 20.85 -16.65 20.8 -15.45 L20.8 -14.5 Q20.8 -13.6 21.75 -12.9 L19.55 -13.05 Q17.8 -13.05 16.3 -12.45 15.75 -14.25 14.5 -15.65 12.4 -17.85 9.5 -17.8 6.6 -17.75 4.55 -15.45 2.65 -13.35 2.55 -10.5 -45.35 -6.8 -94.8 -8.7 -95.0 -11.65 -96.9 -13.8 -99.0 -15.9 -101.75 -15.95 -100.05 -25.55 -96.15 -35.15 L-138.7 -32.5 Q-149.6 -30.35 -158.45 -22.4 -164.4 -17.05 -167.45 -10.65 L-159.55 -9.3 -169.0 -6.65 -169.95 -2.95 -154.8 1.05 -169.65 4.5 Q-168.55 8.6 -166.4 12.3 L-156.85 13.35 -163.65 16.2 Q-161.15 19.1 -157.95 21.75 -148.85 29.05 -137.65 31.25 L-95.05 32.5 Q-99.4 23.0 -101.35 13.45 -99.1 13.35 -97.45 11.95 L-96.5 11.1 Q-95.75 10.25 -95.35 9.2 -94.55 7.75 -94.55 5.85 -45.55 1.65 2.8 4.5 2.95 6.35 3.8 7.85 4.3 8.75 4.95 9.45 L5.8 10.2 Q7.7 11.65 10.0 11.6 12.9 11.55 14.9 9.25 16.15 7.8 16.6 6.05 L19.85 6.55 22.25 6.15 Q21.25 7.0 21.3 8.1 21.15 9.95 22.25 11.25 22.95 11.95 26.85 12.85 L30.7 13.5 30.6 15.1 Q30.65 18.85 33.1 21.55 35.6 24.25 39.0 24.2 L43.25 23.3 47.65 22.2 Q48.75 21.95 52.25 23.15 56.0 24.5 57.7 24.45 67.15 24.25 72.65 15.85 77.95 7.9 77.75 -4.3" fill="#ff0000" fill-rule="evenodd" stroke="none"/>
    <path d="M77.75 -4.3 Q77.95 7.9 72.65 15.85 67.15 24.25 57.7 24.45 56.0 24.5 52.25 23.15 48.75 21.95 47.65 22.2 L43.25 23.3 39.0 24.2 Q35.6 24.25 33.1 21.55 30.65 18.85 30.6 15.1 L30.7 13.5 26.85 12.85 Q22.95 11.95 22.25 11.25 21.15 9.95 21.3 8.1 21.25 7.0 22.25 6.15 L19.85 6.55 16.6 6.05 Q16.15 7.8 14.9 9.25 12.9 11.55 10.0 11.6 7.7 11.65 5.8 10.2 L4.95 9.45 Q4.3 8.75 3.8 7.85 2.95 6.35 2.8 4.5 -45.55 1.65 -94.55 5.85 -94.55 7.75 -95.35 9.2 -95.75 10.25 -96.5 11.1 L-97.45 11.95 Q-99.1 13.35 -101.35 13.45 -99.4 23.0 -95.05 32.5 L-137.65 31.25 Q-148.85 29.05 -157.95 21.75 -161.15 19.1 -163.65 16.2 L-156.85 13.35 -166.4 12.3 Q-168.55 8.6 -169.65 4.5 L-154.8 1.05 -169.95 -2.95 -169.0 -6.65 -159.55 -9.3 -167.45 -10.65 Q-164.4 -17.05 -158.45 -22.4 -149.6 -30.35 -138.7 -32.5 L-96.15 -35.15 Q-100.05 -25.55 -101.75 -15.95 -99.0 -15.9 -96.9 -13.8 -95.0 -11.65 -94.8 -8.7 -45.35 -6.8 2.55 -10.5 2.65 -13.35 4.55 -15.45 6.6 -17.75 9.5 -17.8 12.4 -17.85 14.5 -15.65 15.75 -14.25 16.3 -12.45 17.8 -13.05 19.55 -13.05 L21.75 -12.9 Q20.8 -13.6 20.8 -14.5 L20.8 -15.45 Q20.85 -16.65 21.75 -17.75 23.0 -19.55 30.05 -20.4 L30.0 -21.9 Q29.85 -25.7 32.2 -28.55 34.65 -31.2 38.05 -31.25 L42.3 -30.65 46.75 -29.65 Q47.95 -29.35 51.3 -30.7 55.05 -32.2 56.65 -32.25 66.1 -32.4 71.95 -24.2 76.25 -18.05 77.4 -9.25 L77.75 -4.3 Z" fill="none" stroke="#000000" stroke-linecap="round" stroke-linejoin="round" stroke-opacity="0.29803923" stroke-width="2.0"/>
    <path d="M-96.15 -35.15 L-138.7 -32.5 Q-149.6 -30.35 -158.45 -22.4 -164.4 -17.05 -167.45 -10.65 L-159.55 -9.3 -169.0 -6.65 -169.95 -2.95 -154.8 1.05 -169.65 4.5 Q-168.55 8.6 -166.4 12.3 L-156.85 13.35 -163.65 16.2 Q-161.15 19.1 -157.95 21.75 -148.85 29.05 -137.65 31.25 L-95.05 32.5 Q-110.2 -0.65 -96.15 -35.15" fill="#fcf9f1" fill-rule="evenodd" stroke="none"/>
    <path d="M-96.15 -35.15 L-138.7 -32.5 Q-149.6 -30.35 -158.45 -22.4 -164.4 -17.05 -167.45 -10.65 L-159.55 -9.3 -169.0 -6.65 -169.95 -2.95 -154.8 1.05 -169.65 4.5 Q-168.55 8.6 -166.4 12.3 L-156.85 13.35 -163.65 16.2 Q-161.15 19.1 -157.95 21.75 -148.85 29.05 -137.65 31.25 L-95.05 32.5 Q-110.2 -0.65 -96.15 -35.15 Z" fill="none" stroke="#000000" stroke-linecap="round" stroke-linejoin="round" stroke-opacity="0.29803923" stroke-width="1.0"/>
    <path d="M-107.3 -3.55 Q-124.5 -17.5 -157.25 -1.75 L-166.9 -3.55 -165.8 -6.3 -154.35 -8.7 -163.7 -12.4 -158.0 -19.45 Q-154.95 -23.2 -147.9 -26.3 -140.8 -29.3 -136.75 -29.35 L-108.75 -30.7 -101.7 -31.15 Q-106.85 -15.0 -107.3 -3.55" fill="#edeade" fill-rule="evenodd" stroke="none"/>
    <path d="M12.7 -10.15 Q9.85 -7.2 9.9 -3.15 10.0 0.9 12.9 3.7 15.8 6.55 19.85 6.5 23.9 6.45 26.7 3.5 29.6 0.6 29.5 -3.45 29.45 -7.5 26.5 -10.35 23.6 -13.15 19.55 -13.1 15.5 -13.05 12.7 -10.15" fill="#edeade" fill-rule="evenodd" stroke="none"/>
    <path d="M12.7 -10.15 Q9.85 -7.2 9.9 -3.15 10.0 0.9 12.9 3.7 15.8 6.55 19.85 6.5 23.9 6.45 26.7 3.5 29.6 0.6 29.5 -3.45 29.45 -7.5 26.5 -10.35 23.6 -13.15 19.55 -13.1 15.5 -13.05 12.7 -10.15 Z" fill="none" stroke="#000000" stroke-linecap="round" stroke-linejoin="round" stroke-opacity="0.29803923" stroke-width="1.0"/>
    <path d="M16.65 -10.4 L16.65 -10.25 Q16.7 -7.05 14.7 -4.75 L12.7 -3.15 14.8 -1.6 Q15.8 -0.5 16.25 0.75 L16.6 1.7 16.85 3.75 Q16.9 6.95 14.95 9.25 12.95 11.55 10.05 11.6 7.75 11.6 5.85 10.25 L5.0 9.4 Q4.3 8.7 3.9 7.85 3.0 6.4 2.85 4.5 -45.55 1.7 -94.55 5.85 -94.55 7.7 -95.35 9.2 -95.7 10.25 -96.5 11.1 L-97.45 11.95 Q-99.15 13.4 -101.45 13.4 -104.35 13.45 -106.45 11.25 -108.55 9.05 -108.6 5.85 L-108.35 3.8 -108.15 2.85 Q-107.6 1.5 -106.6 0.4 L-104.6 -1.25 Q-105.75 -1.75 -106.7 -2.75 -108.75 -4.95 -108.8 -8.15 L-108.8 -8.3 Q-106.9 -9.65 -104.5 -9.7 -101.4 -9.75 -99.2 -7.8 -97.2 -5.95 -97.0 -3.35 -45.15 -1.85 5.0 -5.2 5.1 -7.7 7.1 -9.6 9.2 -11.55 12.3 -11.6 14.7 -11.65 16.65 -10.4" fill="#fcf9f1" fill-rule="evenodd" stroke="none"/>
    <path d="M16.65 -10.4 Q14.7 -11.65 12.3 -11.6 9.2 -11.55 7.1 -9.6 5.1 -7.7 5.0 -5.2 -45.15 -1.85 -97.0 -3.35 -97.2 -5.95 -99.2 -7.8 -101.4 -9.75 -104.5 -9.7 -106.9 -9.65 -108.8 -8.3 -108.8 -11.4 -106.85 -13.65 -104.85 -15.95 -101.95 -16.0 -99.05 -16.05 -96.9 -13.8 -94.9 -11.7 -94.75 -8.75 -45.3 -6.8 2.65 -10.5 2.75 -13.35 4.6 -15.5 6.6 -17.75 9.55 -17.8 12.45 -17.85 14.55 -15.65 16.55 -13.5 16.65 -10.4" fill="#edeade" fill-rule="evenodd" stroke="none"/>
    <path d="M-108.8 -8.3 L-108.8 -8.15 Q-108.75 -4.95 -106.7 -2.75 -105.75 -1.75 -104.6 -1.25 L-106.6 0.4 Q-107.6 1.5 -108.15 2.85 L-108.35 3.8 -108.6 5.85 Q-108.55 9.05 -106.45 11.25 -104.35 13.45 -101.45 13.4 -99.15 13.4 -97.45 11.95 L-96.5 11.1 Q-95.7 10.25 -95.35 9.2 -94.55 7.7 -94.55 5.85 -45.55 1.7 2.85 4.5 3.0 6.4 3.9 7.85 4.3 8.7 5.0 9.4 L5.85 10.25 Q7.75 11.6 10.05 11.6 12.95 11.55 14.95 9.25 16.9 6.95 16.85 3.75 L16.6 1.7 16.25 0.75 Q15.8 -0.5 14.8 -1.6 L12.7 -3.15 14.7 -4.75 Q16.7 -7.05 16.65 -10.25 L16.65 -10.4 Q16.55 -13.5 14.55 -15.65 12.45 -17.85 9.55 -17.8 6.6 -17.75 4.6 -15.5 2.75 -13.35 2.65 -10.5 -45.3 -6.8 -94.75 -8.75 -94.9 -11.7 -96.9 -13.8 -99.05 -16.05 -101.95 -16.0 -104.85 -15.95 -106.85 -13.65 -108.8 -11.4 -108.8 -8.3 Z" fill="none" stroke="#000000" stroke-linecap="round" stroke-linejoin="round" stroke-opacity="0.29803923" stroke-width="1.0"/>
    <path d="M27.3 12.9 L26.9 12.85 Q23.0 11.9 22.3 11.25 21.2 10.0 21.35 8.1 21.3 6.3 24.15 5.25 20.3 4.25 20.3 2.6 L20.25 -0.5 Q20.2 -2.15 24.0 -3.25 20.2 -4.6 20.15 -5.95 L19.95 -9.15 Q19.95 -9.95 21.45 -10.85 22.6 -11.55 23.85 -11.9 20.9 -12.9 20.85 -14.5 L20.85 -15.4 Q20.95 -16.65 21.8 -17.75 23.05 -19.6 30.05 -20.4 L30.0 -21.9 Q29.85 -25.7 32.2 -28.55 34.65 -31.25 38.05 -31.3 L42.3 -30.6 46.75 -29.65 Q48.0 -29.35 51.3 -30.7 55.05 -32.25 56.65 -32.25 66.1 -32.4 72.0 -24.2 76.25 -18.0 77.4 -9.25 75.2 -13.4 70.95 -17.4 62.35 -25.5 53.6 -25.35 L49.5 -24.95 41.95 -25.15 Q39.1 -25.0 37.25 -24.0 34.55 -22.5 34.6 -19.4 34.65 -15.7 33.4 -14.15 32.8 -13.4 30.6 -12.55 26.5 -11.0 26.65 -3.6 26.65 -2.45 27.85 2.1 L29.0 7.35 28.35 9.95 27.45 12.75 27.3 12.9" fill="#edeade" fill-rule="evenodd" stroke="none"/>
    <path d="M77.4 -9.25 L77.75 -4.3 Q77.95 7.9 72.75 15.85 67.15 24.25 57.7 24.45 56.0 24.45 52.25 23.2 48.75 21.95 47.7 22.2 L43.25 23.35 39.0 24.15 Q35.6 24.2 33.15 21.55 30.65 18.85 30.6 15.1 L30.75 13.55 27.3 12.9 27.45 12.75 28.35 9.95 29.0 7.35 27.85 2.1 Q26.65 -2.45 26.65 -3.6 26.5 -11.0 30.6 -12.55 32.8 -13.4 33.4 -14.15 34.65 -15.7 34.6 -19.4 34.55 -22.5 37.25 -24.0 39.1 -25.0 41.95 -25.15 40.85 -24.9 39.9 -24.35 36.35 -22.3 38.8 -14.4 41.35 -6.3 46.3 -6.4 50.55 -6.45 53.7 -9.35 57.1 -12.6 57.5 -17.6 57.95 -22.5 50.6 -24.6 L49.5 -24.95 53.6 -25.35 Q62.35 -25.5 70.95 -17.4 75.2 -13.4 77.4 -9.25 M47.15 17.4 Q50.75 14.95 50.35 9.95 49.75 4.0 48.95 1.9 47.75 -1.25 45.15 -1.25 41.95 -1.35 39.1 7.35 36.2 16.1 39.75 17.95 43.65 19.9 47.15 17.4 M39.95 -3.2 Q40.1 -3.85 36.6 -5.9 33.05 -7.85 32.55 -7.05 32.0 -6.0 32.0 -3.4 31.95 -0.5 32.65 0.6 33.5 1.65 36.7 -0.45 39.7 -2.35 39.95 -3.2" fill="#fcf9f1" fill-rule="evenodd" stroke="none"/>
    <path d="M49.5 -24.95 L50.6 -24.6 Q57.95 -22.5 57.5 -17.6 57.1 -12.6 53.7 -9.35 50.55 -6.45 46.3 -6.4 41.35 -6.3 38.8 -14.4 36.35 -22.3 39.9 -24.35 40.85 -24.9 41.95 -25.15 L49.5 -24.95 M39.95 -3.2 Q39.7 -2.35 36.7 -0.45 33.5 1.65 32.65 0.6 31.95 -0.5 32.0 -3.4 32.0 -6.0 32.55 -7.05 33.05 -7.85 36.6 -5.9 40.1 -3.85 39.95 -3.2 M47.15 17.4 Q43.65 19.9 39.75 17.95 36.2 16.1 39.1 7.35 41.95 -1.35 45.15 -1.25 47.75 -1.25 48.95 1.9 49.75 4.0 50.35 9.95 50.75 14.95 47.15 17.4" fill="#3d3429" fill-rule="evenodd" stroke="none"/>
    <path d="M77.4 -9.25 L77.75 -4.3 Q77.95 7.9 72.75 15.85 67.15 24.25 57.7 24.45 56.0 24.45 52.25 23.2 48.75 21.95 47.7 22.2 L43.25 23.35 39.0 24.15 Q35.6 24.2 33.15 21.55 30.65 18.85 30.6 15.1 L30.75 13.55 27.3 12.9 26.9 12.85 Q23.0 11.9 22.3 11.25 21.2 10.0 21.35 8.1 21.3 6.3 24.15 5.25 20.3 4.25 20.3 2.6 L20.25 -0.5 Q20.2 -2.15 24.0 -3.25 20.2 -4.6 20.15 -5.95 L19.95 -9.15 Q19.95 -9.95 21.45 -10.85 22.6 -11.55 23.85 -11.9 20.9 -12.9 20.85 -14.5 L20.85 -15.4 Q20.95 -16.65 21.8 -17.75 23.05 -19.6 30.05 -20.4 L30.0 -21.9 Q29.85 -25.7 32.2 -28.55 34.65 -31.25 38.05 -31.3 L42.3 -30.6 46.75 -29.65 Q48.0 -29.35 51.3 -30.7 55.05 -32.25 56.65 -32.25 66.1 -32.4 72.0 -24.2 76.25 -18.0 77.4 -9.25 Z" fill="none" stroke="#000000" stroke-linecap="round" stroke-linejoin="round" stroke-opacity="0.29803923" stroke-width="1.0"/>
    <path d="M-134.85 18.5 Q-136.6 20.0 -136.55 22.0 -136.5 24.05 -134.75 25.45 -133.0 26.8 -130.45 26.8 -127.9 26.75 -126.15 25.3 -124.4 23.85 -124.45 21.8 -124.5 19.8 -126.25 18.35 -128.05 17.0 -130.6 17.05 -133.15 17.05 -134.85 18.5 Z" fill="none" stroke="#edeade" stroke-linecap="round" stroke-linejoin="round" stroke-width="1.0"/>
    <path d="M-145.1 12.15 Q-146.45 13.2 -146.4 14.65 -146.4 16.15 -145.0 17.2 -143.75 18.2 -141.95 18.2 -140.1 18.15 -138.8 17.1 -137.6 16.0 -137.6 14.5 -137.65 13.05 -138.9 12.05 -140.2 11.0 -142.05 11.05 -143.85 11.05 -145.1 12.15 Z" fill="none" stroke="#edeade" stroke-linecap="round" stroke-linejoin="round" stroke-width="1.0"/>
    <path d="M60.5 14.9 Q60.35 16.8 61.55 17.7 62.7 18.6 64.5 18.0 66.25 17.45 67.55 15.75 68.85 14.05 69.0 12.2 69.1 10.35 67.95 9.45 66.75 8.55 65.0 9.1 63.2 9.7 61.9 11.4 60.6 13.1 60.5 14.9 Z" fill="none" stroke="#edeade" stroke-linecap="round" stroke-linejoin="round" stroke-width="1.0"/>
    <path d="M63.8 4.8 Q63.7 6.0 64.45 6.6 65.25 7.2 66.45 6.85 67.6 6.5 68.45 5.35 69.35 4.2 69.45 2.95 69.5 1.7 68.7 1.1 L66.8 0.9 Q65.6 1.25 64.7 2.4 63.85 3.55 63.8 4.8 Z" fill="none" stroke="#edeade" stroke-linecap="round" stroke-linejoin="round" stroke-width="1.0"/>
  </g>
</svg>
