<?xml version="1.0" encoding="UTF-8" standalone="no"?>
<svg xmlns:ffdec="https://www.free-decompiler.com/flash" xmlns:xlink="http://www.w3.org/1999/xlink" ffdec:objectType="shape" height="120.95px" width="179.0px" xmlns="http://www.w3.org/2000/svg">
  <g transform="matrix(1.0, 0.0, 0.0, 1.0, 90.7, 59.4)">
    <path d="M73.4 -49.55 Q75.2 -49.45 76.8 -48.6 80.6 -46.6 83.05 -40.15 84.1 -37.15 84.9 -33.25 88.2 -17.3 87.0 1.75 85.8 20.85 83.35 31.45 80.9 42.1 77.1 46.65 73.35 51.15 65.65 56.25 58.35 61.05 54.2 60.3 L52.2 60.55 Q34.05 59.65 -80.75 40.7 -84.15 40.15 -86.7 26.05 -89.0 13.0 -89.55 -4.7 -90.15 -22.95 -88.35 -34.95 -86.8 -45.55 -83.8 -47.65 L-83.85 -48.1 Q-70.15 -57.85 -54.05 -58.35 -38.05 -58.85 13.55 -54.4 L73.4 -49.55" fill="#595959" fill-rule="evenodd" stroke="none"/>
    <path d="M73.4 -49.55 L13.55 -54.4 Q-38.05 -58.85 -54.05 -58.35 -70.15 -57.85 -83.85 -48.1 L-83.8 -47.65 Q-86.8 -45.55 -88.35 -34.95 -90.15 -22.95 -89.55 -4.7 -89.0 13.0 -86.7 26.05 -84.15 40.15 -80.75 40.7 34.05 59.65 52.2 60.55 L54.2 60.3 Q58.35 61.05 65.65 56.25 73.35 51.15 77.1 46.65 80.9 42.1 83.35 31.45 85.8 20.85 87.0 1.75 88.2 -17.3 84.9 -33.25 84.1 -37.15 83.05 -40.15 80.6 -46.6 76.8 -48.6 75.2 -49.45 73.4 -49.55 Z" fill="none" stroke="#595959" stroke-linecap="round" stroke-linejoin="round" stroke-width="2.0"/>
    <path d="M-83.85 -48.1 Q-70.15 -57.85 -54.05 -58.35 -38.05 -58.85 13.55 -54.4 L73.4 -49.55 Q75.2 -49.45 76.8 -48.6 L-35.7 24.4 Q-65.5 21.5 -67.5 12.25 -69.8 2.05 -82.3 -14.7 L-83.85 -48.1" fill="#cccccc" fill-rule="evenodd" stroke="none"/>
    <path d="M-35.7 24.4 L76.8 -48.6 Q80.6 -46.6 83.05 -40.15 L-24.25 25.4 -28.65 24.95 -35.7 24.4" fill="#8c8c8c" fill-rule="evenodd" stroke="none"/>
    <path d="M83.05 -40.15 Q84.1 -37.15 84.9 -33.25 88.2 -17.3 87.0 1.75 85.8 20.85 83.35 31.45 80.9 42.1 77.1 46.65 73.35 51.15 65.65 56.25 57.9 61.35 53.7 60.15 10.65 29.35 -24.25 25.4 L83.05 -40.15" fill="#737373" fill-rule="evenodd" stroke="none"/>
    <path d="M76.8 -48.6 Q75.2 -49.45 73.4 -49.55 L13.55 -54.4 Q-38.05 -58.85 -54.05 -58.35 -70.15 -57.85 -83.85 -48.1 M-82.3 -14.7 Q-69.8 2.05 -67.5 12.25 -65.5 21.5 -35.7 24.4 L-28.65 24.95 -24.25 25.4 Q10.65 29.35 53.7 60.15 57.9 61.35 65.65 56.25 73.35 51.15 77.1 46.65 80.9 42.1 83.35 31.45 85.8 20.85 87.0 1.75 88.2 -17.3 84.9 -33.25 84.1 -37.15 83.05 -40.15 80.6 -46.6 76.8 -48.6" fill="none" stroke="#595959" stroke-linecap="round" stroke-linejoin="round" stroke-width="1.0"/>
    <path d="M56.25 -36.8 Q60.3 -36.3 63.8 -21.5 67.25 -6.7 66.75 13.0 66.2 32.7 62.35 46.8 58.55 60.85 52.2 60.55 34.05 59.65 -80.75 40.7 -84.15 40.15 -86.7 26.05 -89.0 13.0 -89.55 -4.7 -90.15 -22.95 -88.35 -34.95 -86.35 -48.55 -82.05 -48.2 L56.25 -36.8" fill="#999999" fill-rule="evenodd" stroke="none"/>
    <path d="M56.25 -36.8 L-82.05 -48.2 Q-86.35 -48.55 -88.35 -34.95 -90.15 -22.95 -89.55 -4.7 -89.0 13.0 -86.7 26.05 -84.15 40.15 -80.75 40.7 34.05 59.65 52.2 60.55 58.55 60.85 62.35 46.8 66.2 32.7 66.75 13.0 67.25 -6.7 63.8 -21.5 60.3 -36.3 56.25 -36.8 Z" fill="none" stroke="#595959" stroke-linecap="round" stroke-linejoin="round" stroke-width="1.0"/>
    <path d="M53.65 -16.3 Q56.3 -4.7 56.25 11.85 56.2 28.35 53.45 39.6 50.55 52.05 45.6 51.65 36.5 50.9 -9.55 44.4 L-66.15 36.2 Q-76.6 34.6 -78.9 23.45 -81.2 12.25 -81.7 -2.55 -82.15 -17.45 -81.3 -29.7 -80.5 -41.9 -72.35 -40.6 -64.3 -39.35 -12.35 -34.9 L45.6 -29.85 Q50.7 -29.35 53.65 -16.3" fill="#f3ae47" fill-rule="evenodd" stroke="none"/>
    <path d="M53.65 -16.3 Q56.3 -4.7 56.25 11.85 56.2 28.35 53.45 39.6 50.55 52.05 45.6 51.65 36.5 50.9 -9.55 44.4 L-66.15 36.2 Q-76.6 34.6 -78.9 23.45 -81.2 12.25 -81.7 -2.55 -82.15 -17.45 -81.3 -29.7 -80.5 -41.9 -72.35 -40.6 -64.3 -39.35 -12.35 -34.9 L45.6 -29.85 Q50.7 -29.35 53.65 -16.3 Z" fill="none" stroke="#595959" stroke-linecap="round" stroke-linejoin="round" stroke-width="1.0"/>
    <path d="M-80.7 -22.1 L53.4 -8.05 M-79.35 16.2 L53.1 33.1 M-80.85 -2.55 L54.85 13.05" fill="none" stroke="#f5c478" stroke-linecap="round" stroke-linejoin="round" stroke-width="1.0"/>
    <path d="M-80.85 -3.95 L54.85 11.65 M-79.35 14.8 L53.1 31.7 M-80.7 -23.5 L53.4 -9.45" fill="none" stroke="#c77c0e" stroke-linecap="round" stroke-linejoin="round" stroke-width="1.0"/>
    <path d="M-30.3 -28.85 Q-16.9 -27.15 -7.8 -16.15 1.35 -5.1 0.85 8.75 0.35 22.65 -9.5 31.25 -19.3 39.9 -32.7 38.2 -46.05 36.5 -55.2 25.45 -64.3 14.5 -63.8 0.6 -63.3 -13.25 -53.5 -21.95 -43.65 -30.55 -30.3 -28.85" fill="#000000" fill-opacity="0.14509805" fill-rule="evenodd" stroke="none"/>
    <path d="M-34.75 -31.45 Q-21.35 -29.75 -12.25 -18.75 -3.1 -7.7 -3.6 6.15 -4.1 20.05 -13.95 28.65 -23.75 37.3 -37.15 35.6 -50.5 33.9 -59.65 22.85 -68.75 11.9 -68.25 -2.0 -67.75 -15.85 -57.95 -24.55 -48.1 -33.15 -34.75 -31.45" fill="#737373" fill-rule="evenodd" stroke="none"/>
    <path d="M-34.75 -31.45 Q-21.35 -29.75 -12.25 -18.75 -3.1 -7.7 -3.6 6.15 -4.1 20.05 -13.95 28.65 -23.75 37.3 -37.15 35.6 -50.5 33.9 -59.65 22.85 -68.75 11.9 -68.25 -2.0 -67.75 -15.85 -57.95 -24.55 -48.1 -33.15 -34.75 -31.45 Z" fill="none" stroke="#595959" stroke-linecap="round" stroke-linejoin="round" stroke-width="1.0"/>
    <path d="M-50.45 -49.2 L-58.05 -49.7 Q-61.2 -50.35 -61.2 -51.4 -61.2 -52.45 -58.05 -53.3 -54.95 -54.25 -50.45 -54.4 L-42.85 -53.9 Q-39.75 -53.25 -39.75 -52.2 -39.75 -51.15 -42.85 -50.3 -46.0 -49.35 -50.45 -49.2" fill="#a6a6a6" fill-rule="evenodd" stroke="none"/>
    <path d="M-50.45 -49.2 L-58.05 -49.7 Q-61.2 -50.35 -61.2 -51.4 -61.2 -52.45 -58.05 -53.3 -54.95 -54.25 -50.45 -54.4 L-42.85 -53.9 Q-39.75 -53.25 -39.75 -52.2 -39.75 -51.15 -42.85 -50.3 -46.0 -49.35 -50.45 -49.2 Z" fill="none" stroke="#999999" stroke-linecap="round" stroke-linejoin="round" stroke-width="1.0"/>
    <path d="M-38.2 -30.75 Q-24.8 -29.05 -15.7 -18.05 -6.55 -7.0 -7.05 6.85 -7.55 20.75 -17.4 29.35 -27.2 38.0 -40.6 36.3 -53.95 34.6 -63.1 23.55 -72.2 12.6 -71.7 -1.3 -71.2 -15.15 -61.4 -23.85 -51.55 -32.45 -38.2 -30.75" fill="#a6a6a6" fill-rule="evenodd" stroke="none"/>
    <path d="M-38.2 -30.75 Q-24.8 -29.05 -15.7 -18.05 -6.55 -7.0 -7.05 6.85 -7.55 20.75 -17.4 29.35 -27.2 38.0 -40.6 36.3 -53.95 34.6 -63.1 23.55 -72.2 12.6 -71.7 -1.3 -71.2 -15.15 -61.4 -23.85 -51.55 -32.45 -38.2 -30.75 Z" fill="none" stroke="#595959" stroke-linecap="round" stroke-linejoin="round" stroke-width="1.0"/>
    <path d="M-30.6 26.65 L-33.05 26.45 Q-42.9 25.2 -49.65 17.05 -56.35 8.95 -56.0 -1.25 -55.65 -11.5 -48.45 -17.8 -44.95 -20.85 -40.95 -22.15 L-38.55 -21.95 Q-28.7 -20.7 -22.05 -12.65 -15.3 -4.5 -15.65 5.8 -16.0 16.0 -23.25 22.35 -26.65 25.4 -30.6 26.65" fill="#8ac5d2" fill-rule="evenodd" stroke="none"/>
    <path d="M-30.6 26.65 Q-35.15 28.05 -40.3 27.5 -50.15 26.25 -56.85 18.05 -63.55 9.95 -63.2 -0.25 -62.85 -10.5 -55.65 -16.85 -49.3 -22.45 -40.95 -22.15 -44.95 -20.85 -48.45 -17.8 -55.65 -11.5 -56.0 -1.25 -56.35 8.95 -49.65 17.05 -42.9 25.2 -33.05 26.45 L-30.6 26.65" fill="#6497ac" fill-rule="evenodd" stroke="none"/>
    <path d="M-27.05 -3.1 Q-28.1 0.65 -31.55 2.55 -35.0 4.45 -38.8 3.3 -42.55 2.25 -44.45 -1.2 -46.4 -4.65 -45.35 -8.45 -44.3 -12.15 -40.85 -14.05 -37.4 -15.95 -33.6 -14.85 -29.85 -13.75 -27.9 -10.3 -26.0 -6.85 -27.05 -3.1" fill="#ffffff" fill-opacity="0.49803922" fill-rule="evenodd" stroke="none"/>
    <path d="M-25.4 12.1 Q-26.6 13.35 -28.2 13.4 -29.85 13.45 -30.9 12.3 -32.0 11.15 -31.95 9.45 -31.9 7.8 -30.7 6.55 -29.55 5.3 -27.9 5.25 -26.3 5.2 -25.2 6.35 -24.1 7.5 -24.15 9.15 -24.2 10.85 -25.4 12.1" fill="#ffffff" fill-opacity="0.49803922" fill-rule="evenodd" stroke="none"/>
    <path d="M-4.4 38.6 Q-5.45 39.9 -7.1 39.95 -8.7 40.0 -9.95 38.75 -11.15 37.6 -11.25 35.9 -11.35 34.2 -10.25 32.9 -9.2 31.7 -7.6 31.65 -5.95 31.6 -4.7 32.75 -3.5 34.0 -3.4 35.7 -3.3 37.4 -4.4 38.6" fill="#99cc00" fill-rule="evenodd" stroke="none"/>
    <path d="M-4.4 38.6 Q-5.45 39.9 -7.1 39.95 -8.7 40.0 -9.95 38.75 -11.15 37.6 -11.25 35.9 -11.35 34.2 -10.25 32.9 -9.2 31.7 -7.6 31.65 -5.95 31.6 -4.7 32.75 -3.5 34.0 -3.4 35.7 -3.3 37.4 -4.4 38.6 Z" fill="none" stroke="#a7690c" stroke-linecap="round" stroke-linejoin="round" stroke-width="1.0"/>
    <path d="M22.45 -49.55 L63.4 -46.8 54.75 -41.85 13.0 -45.2 22.45 -49.55 Z" fill="none" stroke="#999999" stroke-linecap="round" stroke-linejoin="round" stroke-width="1.0"/>
    <path d="M-63.2 -0.25 Q-63.55 9.95 -56.85 18.05 -50.15 26.25 -40.3 27.5 -35.15 28.05 -30.6 26.65 -26.65 25.4 -23.25 22.35 -16.0 16.0 -15.65 5.8 -15.3 -4.5 -22.05 -12.65 -28.7 -20.7 -38.55 -21.95 L-40.95 -22.15 Q-49.3 -22.45 -55.65 -16.85 -62.85 -10.5 -63.2 -0.25 Z" fill="none" stroke="#595959" stroke-linecap="round" stroke-linejoin="round" stroke-width="1.0"/>
    <path d="M12.7 43.0 L13.15 32.25 17.3 38.85 21.05 33.3 21.8 43.7 31.2 45.05 30.85 39.8 24.4 38.85 24.1 33.9 40.7 36.35 Q43.5 36.7 43.25 39.0 42.85 41.3 36.45 40.5 L41.65 47.4 M33.95 45.5 L33.55 35.65" fill="none" stroke="#c77c0e" stroke-linecap="round" stroke-linejoin="round" stroke-width="2.0"/>
    <path d="M17.0 -26.0 L42.25 -23.6 Q45.55 -15.55 45.6 -6.4 L45.5 -3.7 Q31.25 -3.8 17.4 -7.0 14.85 -17.8 17.0 -26.0 Z" fill="none" stroke="#a7690c" stroke-linecap="round" stroke-linejoin="round" stroke-width="3.0"/>
    <path d="M45.6 -6.4 Q33.3 -6.7 20.15 -9.6 19.05 -18.6 19.85 -25.75 L42.25 -23.6 Q45.55 -15.55 45.6 -6.4" fill="#ffff00" fill-rule="evenodd" stroke="none"/>
    <path d="M19.85 -25.75 Q19.05 -18.6 20.15 -9.6 33.3 -6.7 45.6 -6.4 L45.5 -3.7 Q31.25 -3.8 17.4 -7.0 14.85 -17.8 17.0 -26.0 L19.85 -25.75" fill="#dbdb02" fill-rule="evenodd" stroke="none"/>
    <path d="M45.6 -6.4 Q33.3 -6.7 20.15 -9.6 19.05 -18.6 19.85 -25.75" fill="none" stroke="#cac902" stroke-linecap="round" stroke-linejoin="round" stroke-width="1.0"/>
    <path d="M-6.9 36.35 Q-7.35 36.85 -8.0 36.85 -8.7 36.9 -9.25 36.4 -9.8 35.85 -9.8 35.15 -9.85 34.4 -9.4 33.9 -8.9 33.35 -8.2 33.3 -7.55 33.3 -7.05 33.85 -6.5 34.3 -6.45 35.05 -6.45 35.75 -6.9 36.35" fill="#cefd13" fill-rule="evenodd" stroke="none"/>
    <path d="M59.45 -28.75 Q56.45 -34.85 53.05 -35.2 L-20.0 -41.15 -66.8 -44.95 Q-82.3 -46.1 -83.15 -45.15 -85.75 -42.15 -86.95 -28.85 -88.2 -15.65 -87.95 1.05 -87.7 17.75 -81.5 38.0" fill="none" stroke="#b3b3b3" stroke-linecap="round" stroke-linejoin="round" stroke-width="2.0"/>
    <path d="M-57.8 25.85 L-61.35 22.05 Q-69.8 11.85 -69.35 -0.95 -68.9 -13.85 -59.75 -21.85 -50.65 -29.85 -38.3 -28.3 -25.9 -26.7 -17.45 -16.5 -14.95 -13.5 -13.2 -10.25" fill="none" stroke="#bbbbbb" stroke-linecap="round" stroke-linejoin="round" stroke-width="2.0"/>
    <path d="M29.5 -15.45 L33.65 -17.5 30.65 -20.9 26.65 -19.05 29.5 -15.45 32.45 -11.75 36.8 -13.95 33.65 -17.5 40.75 -21.0 M24.25 -21.95 L26.65 -19.05 22.25 -17.0 M28.85 -22.85 L30.65 -20.9 33.8 -22.35 M29.5 -15.45 L22.75 -12.15 M41.35 -16.3 L36.8 -13.95 40.8 -9.5 M34.95 -8.7 L32.45 -11.75 29.45 -10.3" fill="none" stroke="#dbdb02" stroke-linecap="round" stroke-linejoin="round" stroke-opacity="0.49803922" stroke-width="1.0"/>
  </g>
</svg>
