<?xml version="1.0" encoding="UTF-8" standalone="no"?>
<svg xmlns:ffdec="https://www.free-decompiler.com/flash" xmlns:xlink="http://www.w3.org/1999/xlink" ffdec:objectType="shape" height="26.55px" width="86.35px" xmlns="http://www.w3.org/2000/svg">
  <g transform="matrix(1.0, 0.0, 0.0, 1.0, 43.15, 13.25)">
    <path d="M-16.0 3.25 L-17.3 3.3 -30.7 3.85 Q-37.6 4.65 -41.75 5.6 L-42.2 5.25 Q-38.5 4.3 -31.25 3.45 L-17.35 2.8 Q-14.0 2.75 -12.3 1.9 L-13.55 2.8 -16.0 3.25" fill="#d0d2d3" fill-rule="evenodd" stroke="none"/>
    <path d="M-18.3 7.25 Q-21.65 8.7 -25.9 9.3 -30.55 9.95 -34.6 9.35 -39.25 8.65 -42.2 6.35 -37.95 5.25 -29.15 4.35 -18.5 3.35 -14.1 4.4 -15.0 5.85 -18.3 7.25" fill="#808184" fill-rule="evenodd" stroke="none"/>
    <path d="M-13.25 2.6 L-14.15 3.3 Q-15.0 4.8 -18.35 6.2 -21.7 7.6 -25.9 8.2 -30.55 8.85 -34.6 8.25 -39.25 7.55 -42.2 5.25 -38.5 4.3 -31.25 3.45 L-17.35 2.8 Q-14.0 2.75 -12.3 1.9 L-13.25 2.6" fill="#929497" fill-rule="evenodd" stroke="none"/>
    <path d="M-13.25 2.6 L-12.3 1.9 Q-14.0 2.75 -17.35 2.8 L-31.25 3.45 Q-38.5 4.3 -42.2 5.25 -39.25 7.55 -34.6 8.25 -30.55 8.85 -25.9 8.2 -21.7 7.6 -18.35 6.2 -15.0 4.8 -14.15 3.3 L-13.25 2.6 M-12.55 1.45 L-12.2 1.4 -11.9 1.55 -11.8 1.9 -11.95 2.25 -12.95 3.0 -13.75 3.6 Q-14.6 5.0 -17.5 6.35 -20.35 7.65 -24.2 8.4 L-33.85 8.85 Q-39.2 8.25 -42.5 5.65 L-42.7 5.25 -42.7 5.15 -42.35 4.75 Q-38.7 3.8 -31.45 2.95 L-17.3 2.3 -17.25 2.35 -15.3 2.2 -12.55 1.45" fill="#a6a8ab" fill-rule="evenodd" stroke="none"/>
    <path d="M-13.2 2.6 L-12.3 1.9 Q-14.0 2.8 -17.3 2.85 L-31.25 3.45 Q-38.5 4.3 -42.2 5.25 -39.25 7.55 -34.6 8.25 -30.55 8.9 -25.9 8.2 -21.65 7.6 -18.3 6.2 -15.0 4.8 -14.15 3.3 L-13.2 2.6 M-12.5 1.45 L-12.2 1.4 Q-12.0 1.45 -11.9 1.6 L-11.8 1.9 -11.95 2.3 -12.9 3.0 -13.75 3.6 Q-14.6 5.05 -17.5 6.4 -20.35 7.7 -24.15 8.45 L-33.85 8.9 Q-39.2 8.25 -42.5 5.65 L-42.7 5.25 -42.7 5.15 Q-42.6 4.85 -42.3 4.8 -38.7 3.85 -31.4 3.0 L-17.3 2.35 -17.25 2.35 -15.3 2.2 -12.5 1.45" fill="#231f20" fill-rule="evenodd" stroke="none"/>
    <path d="M42.2 -10.0 Q41.6 -9.1 40.4 -8.55 L34.05 -8.4 25.45 -8.0 Q14.05 -7.2 7.15 -4.65 -0.55 -1.8 -4.75 0.75 -8.2 2.85 -13.15 7.35 -15.55 9.5 -19.1 10.95 -22.8 12.4 -26.8 12.75 -36.3 13.5 -42.5 7.7 L-42.65 6.2 -42.65 5.6 -29.15 6.25 Q-19.4 5.65 -13.65 2.7 -12.4 2.05 -6.9 -1.5 -2.05 -4.65 2.2 -6.55 15.6 -12.55 35.85 -12.75 L40.45 -12.25 Q42.7 -11.8 42.7 -11.3 42.7 -10.65 42.2 -10.0" fill="#d0d2d3" fill-rule="evenodd" stroke="none"/>
    <path d="M42.7 -11.3 Q42.7 -11.8 40.45 -12.25 L35.85 -12.75 Q15.6 -12.55 2.2 -6.55 -2.05 -4.65 -6.9 -1.5 -12.4 2.05 -13.65 2.7 -19.4 5.65 -29.15 6.25 L-42.65 5.6 -42.65 6.2 -42.5 7.7 Q-36.3 13.5 -26.8 12.75 -22.8 12.4 -19.1 10.95 -15.55 9.5 -13.15 7.35 -8.2 2.85 -4.75 0.75 -0.55 -1.8 7.15 -4.65 14.05 -7.2 25.45 -8.0 L34.05 -8.4 40.4 -8.55 Q41.6 -9.1 42.2 -10.0 42.7 -10.65 42.7 -11.3 M43.2 -11.3 Q43.2 -10.55 42.7 -9.8 42.0 -8.75 40.65 -8.1 L40.45 -8.05 36.95 -8.0 22.7 -7.3 Q13.3 -6.4 7.35 -4.2 -0.35 -1.35 -4.55 1.2 -7.95 3.3 -12.85 7.7 -15.3 9.95 -18.95 11.4 -22.75 12.95 -26.85 13.25 -31.3 13.55 -35.25 12.4 -39.6 11.05 -42.85 8.05 L-43.0 7.75 -43.15 6.25 -43.15 5.6 -42.95 5.2 -42.55 5.1 -29.25 5.75 Q-19.55 5.15 -13.9 2.25 L-11.45 0.85 -8.85 -0.85 -2.3 -4.85 Q2.0 -7.25 6.6 -8.85 18.7 -13.1 35.85 -13.25 L40.55 -12.75 Q42.15 -12.45 42.75 -12.0 L43.2 -11.3" fill="#bbbdbf" fill-rule="evenodd" stroke="none"/>
    <path d="M42.7 -11.3 Q42.7 -11.8 40.45 -12.3 L35.85 -12.75 Q15.55 -12.6 2.15 -6.55 -2.05 -4.7 -6.9 -1.55 -12.4 2.0 -13.65 2.65 -19.4 5.6 -29.15 6.25 L-42.65 5.6 -42.65 6.2 -42.5 7.65 Q-36.3 13.45 -26.8 12.7 -22.8 12.4 -19.1 10.9 -15.55 9.5 -13.15 7.35 -8.2 2.85 -4.75 0.75 -0.55 -1.8 7.15 -4.65 14.0 -7.2 25.45 -8.05 L40.4 -8.6 Q41.6 -9.1 42.2 -10.0 42.7 -10.7 42.7 -11.3 M40.6 -8.15 L40.45 -8.1 36.95 -8.0 22.7 -7.3 Q13.3 -6.4 7.35 -4.2 -0.35 -1.35 -4.55 1.2 -7.95 3.3 -12.85 7.7 -15.3 9.95 -19.0 11.4 -22.75 12.9 -26.85 13.2 -31.3 13.55 -35.25 12.35 -39.6 11.05 -42.85 8.05 L-43.0 7.75 -43.15 6.25 -43.15 5.6 -43.0 5.2 -42.55 5.1 -29.25 5.75 Q-19.55 5.15 -13.9 2.2 L-8.85 -0.85 -2.35 -4.85 Q2.0 -7.25 6.6 -8.85 18.7 -13.1 35.85 -13.25 L40.55 -12.75 Q42.15 -12.45 42.75 -12.0 L43.2 -11.3 Q43.2 -10.6 42.7 -9.8 42.0 -8.75 40.6 -8.15" fill="#231f20" fill-rule="evenodd" stroke="none"/>
    <path d="M40.4 -8.55 L34.05 -8.4 25.45 -8.0 Q14.05 -7.2 7.15 -4.65 -0.55 -1.8 -4.75 0.75 -8.2 2.85 -13.15 7.35 -15.55 9.5 -19.1 10.95 -22.8 12.4 -26.8 12.75 -36.3 13.5 -42.5 7.7 L-42.65 6.2 -42.65 5.6 -33.05 6.4 Q-26.35 6.35 -20.75 5.1 L-21.45 6.75 Q-24.85 8.0 -31.45 8.4 -37.85 8.8 -41.1 8.15 -38.95 9.7 -35.65 10.6 -32.15 11.5 -28.3 11.45 -19.05 11.25 -12.2 5.7 -4.8 -0.25 1.7 -3.05 10.9 -7.1 24.15 -8.3 L33.2 -8.8 41.45 -9.1 Q41.2 -8.85 40.4 -8.55" fill="#a6a8ab" fill-rule="evenodd" stroke="none"/>
    <path d="M42.7 -11.3 L42.05 -10.8 27.05 -10.05 Q17.1 -9.3 10.15 -7.4 1.9 -5.2 -4.3 -1.3 L-9.1 1.85 Q-11.85 3.65 -14.25 4.75 -19.55 7.25 -29.0 7.9 L-42.55 7.3 -42.65 6.1 -42.65 5.6 -29.15 6.25 Q-19.4 5.65 -13.65 2.7 L-6.9 -1.55 Q-2.0 -4.75 2.2 -6.65 15.6 -12.75 35.85 -12.75 L40.95 -12.25 Q42.7 -11.85 42.7 -11.3" fill="#f1f1f2" fill-rule="evenodd" stroke="none"/>
    <path d="M39.6 -12.25 Q42.05 -11.95 42.55 -11.4 42.9 -11.05 38.95 -10.9 L35.0 -10.8 Q36.85 -10.95 37.3 -11.25 37.75 -11.45 37.05 -11.7 L31.85 -12.1 24.45 -11.65 14.4 -10.35 Q24.2 -12.4 33.35 -12.55 L39.6 -12.25" fill="#f2f2f2" fill-rule="evenodd" stroke="none"/>
    <path d="M-38.15 8.9 Q-33.2 9.6 -26.75 8.9 -20.4 8.2 -16.35 6.6 -19.4 10.05 -26.6 10.7 L-32.8 10.5 Q-35.95 10.05 -38.15 8.9" fill="#e6e7e8" fill-rule="evenodd" stroke="none"/>
  </g>
</svg>
