<?xml version="1.0" encoding="UTF-8" standalone="no"?>
<svg xmlns:ffdec="https://www.free-decompiler.com/flash" xmlns:xlink="http://www.w3.org/1999/xlink" ffdec:objectType="shape" height="243.5px" width="125.1px" xmlns="http://www.w3.org/2000/svg">
  <g transform="matrix(1.0, 0.0, 0.0, 1.0, 62.55, 121.75)">
    <path d="M-43.45 55.45 Q-42.85 55.45 -42.4 54.75 -41.55 53.25 -41.6 45.15 -41.6 41.1 -41.85 37.3 -39.45 37.7 -33.5 40.25 L-28.05 42.8 -29.25 80.5 -30.35 120.25 Q-30.3 122.05 -32.75 120.55 -34.85 119.1 -36.15 117.4 -38.6 114.0 -47.75 107.5 L-54.6 102.95 Q-57.8 101.0 -58.75 100.85 -61.5 100.45 -61.9 99.35 -62.2 98.8 -61.85 98.35 L-56.95 84.1 -49.0 62.1 Q-46.55 55.95 -44.7 55.45 L-43.45 55.45" fill="#6b2f1d" fill-rule="evenodd" stroke="none"/>
    <path d="M-43.45 55.45 L-44.7 55.45 Q-46.55 55.95 -49.0 62.1 L-56.95 84.1 -61.85 98.35 Q-62.2 98.8 -61.9 99.35 -61.5 100.45 -58.75 100.85 -57.8 101.0 -54.6 102.95 L-47.75 107.5 Q-38.6 114.0 -36.15 117.4 -34.85 119.1 -32.75 120.55 -30.3 122.05 -30.35 120.25 L-29.25 80.5 -28.05 42.8 -33.5 40.25 Q-39.45 37.7 -41.85 37.3 -41.6 41.1 -41.6 45.15 -41.55 53.25 -42.4 54.75 -42.85 55.45 -43.45 55.45 Z" fill="none" stroke="#000000" stroke-linecap="round" stroke-linejoin="round" stroke-opacity="0.3019608" stroke-width="1.0"/>
    <path d="M-42.8 84.7 L-40.8 58.85" fill="none" stroke="#000000" stroke-linecap="round" stroke-linejoin="round" stroke-opacity="0.3019608" stroke-width="1.0"/>
    <path d="M-41.65 20.0 L-41.0 20.25 Q-40.5 20.5 -40.35 20.9 L-40.3 22.1 -40.35 25.0 -40.7 36.4 -42.25 36.3 -43.05 34.5 -43.65 33.85 -44.1 32.75 -44.75 30.25 -44.8 30.2 Q-45.45 26.4 -43.95 24.05 L-44.05 23.9 -44.65 23.0 Q-45.85 21.7 -48.1 21.7 L-48.4 21.75 -49.3 21.15 -49.4 21.05 -49.85 20.35 -49.7 19.65 -49.35 19.3 -49.35 19.25 -46.15 19.35 Q-44.85 19.7 -43.35 20.35 L-42.35 20.5 -41.9 20.45 -41.65 20.0" fill="#232323" fill-rule="evenodd" stroke="none"/>
    <path d="M-41.65 20.0 L-41.0 20.25 Q-40.5 20.5 -40.35 20.9 L-40.3 22.1 -40.35 25.0 -40.7 36.4 -42.25 36.3 -43.05 34.5 -43.65 33.85 -44.1 32.75 -44.75 30.25 -44.8 30.2 Q-45.45 26.4 -43.95 24.05 L-44.05 23.9 -44.65 23.0 Q-45.85 21.7 -48.1 21.7 L-48.4 21.75 -49.3 21.15 -49.4 21.05 -49.85 20.35 -49.7 19.65 -49.35 19.3 -49.35 19.25 -46.15 19.35 Q-44.85 19.7 -43.35 20.35 L-42.35 20.5 -41.9 20.45 -41.65 20.0 Z" fill="none" stroke="#000000" stroke-linecap="round" stroke-linejoin="round" stroke-opacity="0.3019608" stroke-width="1.0"/>
    <path d="M62.05 -112.85 L-10.6 -4.95 -14.4 -7.5 58.25 -115.4 Q61.2 -115.8 62.05 -112.85" fill="#707070" fill-rule="evenodd" stroke="none"/>
    <path d="M62.05 -112.85 L-10.6 -4.95 -14.4 -7.5 58.25 -115.4 Q61.2 -115.8 62.05 -112.85 Z" fill="none" stroke="#000000" stroke-linecap="round" stroke-linejoin="round" stroke-opacity="0.3019608" stroke-width="1.0"/>
    <path d="M-20.45 37.5 L-21.2 37.5 -22.9 37.25 Q-25.65 36.5 -27.2 34.05 L-26.35 30.25 -24.85 33.15 Q-22.85 36.15 -20.4 36.6 L-20.45 37.5" fill="#232323" fill-rule="evenodd" stroke="none"/>
    <path d="M-20.45 37.5 L-21.2 37.5 -22.9 37.25 Q-25.65 36.5 -27.2 34.05 L-26.35 30.25 -24.85 33.15 Q-22.85 36.15 -20.4 36.6 L-20.45 37.5 Z" fill="none" stroke="#000000" stroke-linecap="round" stroke-linejoin="round" stroke-opacity="0.3019608" stroke-width="1.0"/>
    <path d="M-23.0 25.35 L-21.4 24.05 Q-19.8 22.5 -19.95 21.3 L-17.35 22.2 -17.2 24.35 -15.7 26.05 Q-14.05 28.15 -13.4 30.4 -12.6 33.1 -13.3 35.8 -14.1 38.85 -16.8 41.05 L-17.35 41.6 Q-17.85 42.25 -17.8 42.8 L-18.35 42.5 -17.9 43.0 Q-16.45 44.75 -16.6 46.65 L-17.55 58.75 -17.6 58.75 Q-17.75 60.6 -19.4 61.45 L-23.3 61.65 -24.3 61.4 Q-26.45 60.75 -27.95 58.95 -29.4 57.15 -29.25 55.3 L-28.25 43.2 Q-28.1 41.35 -26.4 40.45 L-26.45 40.45 -25.4 40.05 Q-27.45 39.25 -28.1 37.45 -28.85 35.25 -27.85 35.95 L-26.75 37.0 Q-25.55 38.25 -23.95 39.1 -20.6 40.75 -18.1 38.7 -16.55 37.45 -15.8 35.55 -15.15 33.55 -15.55 31.55 -16.1 29.4 -17.8 27.9 -19.75 26.1 -23.0 25.35 M-24.6 42.7 Q-25.45 43.1 -25.5 44.05 L-26.5 56.1 Q-26.55 57.0 -25.85 57.9 -25.15 58.75 -24.1 59.1 L-23.15 59.4 -21.2 59.3 Q-20.4 58.85 -20.35 57.95 L-19.35 45.85 -19.35 45.9 Q-19.25 44.9 -19.95 44.05 -20.65 43.15 -21.75 42.85 L-22.75 42.55 -24.6 42.7" fill="#141414" fill-rule="evenodd" stroke="none"/>
    <path d="M-23.0 25.35 L-21.4 24.05 Q-19.8 22.5 -19.95 21.3 L-17.35 22.2 -17.2 24.35 -15.7 26.05 Q-14.05 28.15 -13.4 30.4 -12.6 33.1 -13.3 35.8 -14.1 38.85 -16.8 41.05 L-17.35 41.6 Q-17.85 42.25 -17.8 42.8 L-18.35 42.5 -17.9 43.0 Q-16.45 44.75 -16.6 46.65 L-17.55 58.75 -17.6 58.75 Q-17.75 60.6 -19.4 61.45 L-23.3 61.65 -24.3 61.4 Q-26.45 60.75 -27.95 58.95 -29.4 57.15 -29.25 55.3 L-28.25 43.2 Q-28.1 41.35 -26.4 40.45 L-26.45 40.45 -25.4 40.05 Q-27.45 39.25 -28.1 37.45 -28.85 35.25 -27.85 35.95 L-26.75 37.0 Q-25.55 38.25 -23.95 39.1 -20.6 40.75 -18.1 38.7 -16.55 37.45 -15.8 35.55 -15.15 33.55 -15.55 31.55 -16.1 29.4 -17.8 27.9 -19.75 26.1 -23.0 25.35 M-24.6 42.7 L-22.75 42.55 -21.75 42.85 Q-20.65 43.15 -19.95 44.05 -19.25 44.9 -19.35 45.9 L-19.35 45.85 -20.35 57.95 Q-20.4 58.85 -21.2 59.3 L-23.15 59.4 -24.1 59.1 Q-25.15 58.75 -25.85 57.9 -26.55 57.0 -26.5 56.1 L-25.5 44.05 Q-25.45 43.1 -24.6 42.7 Z" fill="none" stroke="#000000" stroke-linecap="round" stroke-linejoin="round" stroke-opacity="0.3019608" stroke-width="1.0"/>
    <path d="M58.85 -116.0 L-14.2 -7.4 -22.0 -12.65 51.05 -121.25 Q56.05 -120.25 58.85 -116.0" fill="#4a4a4a" fill-rule="evenodd" stroke="none"/>
    <path d="M58.85 -116.0 L-14.2 -7.4 -22.0 -12.65 51.05 -121.25 Q56.05 -120.25 58.85 -116.0 Z" fill="none" stroke="#000000" stroke-linecap="round" stroke-linejoin="round" stroke-opacity="0.3019608" stroke-width="1.0"/>
    <path d="M45.3 -96.35 Q47.9 -94.95 49.1 -93.15 L49.3 -92.8 47.5 -90.1 47.3 -90.45 Q46.1 -92.25 43.5 -93.65 L45.3 -96.35" fill="#3b3b3b" fill-rule="evenodd" stroke="none"/>
    <path d="M45.3 -96.35 Q47.9 -94.95 49.1 -93.15 L49.3 -92.8 47.5 -90.1 47.3 -90.45 Q46.1 -92.25 43.5 -93.65 L45.3 -96.35 Z" fill="none" stroke="#000000" stroke-linecap="round" stroke-linejoin="round" stroke-opacity="0.3019608" stroke-width="1.0"/>
    <path d="M48.5 -117.7 L47.8 -116.65 46.5 -117.0 Q45.8 -116.95 45.45 -116.45 45.15 -116.0 45.4 -115.35 45.6 -114.7 46.2 -114.3 L45.5 -113.25 Q44.3 -114.05 43.9 -115.3 43.45 -116.5 44.05 -117.4 44.7 -118.35 46.0 -118.45 47.3 -118.5 48.5 -117.7" fill="#999999" fill-rule="evenodd" stroke="none"/>
    <path d="M48.5 -117.7 Q47.3 -118.5 46.0 -118.45 44.7 -118.35 44.05 -117.4 43.45 -116.5 43.9 -115.3 44.3 -114.05 45.5 -113.25 L46.2 -114.3 Q45.6 -114.7 45.4 -115.35 45.15 -116.0 45.45 -116.45 45.8 -116.95 46.5 -117.0 L47.8 -116.65 48.5 -117.7 Z" fill="none" stroke="#000000" stroke-linecap="round" stroke-linejoin="round" stroke-opacity="0.3019608" stroke-width="1.0"/>
    <path d="M22.0 -64.6 Q22.2 -64.25 22.0 -63.95 21.8 -63.7 21.35 -63.65 21.0 -63.65 20.65 -63.9 20.25 -64.15 20.1 -64.55 20.0 -64.9 20.2 -65.15 20.4 -65.45 20.75 -65.5 L21.55 -65.25 22.0 -64.6" fill="#ffffff" fill-rule="evenodd" stroke="none"/>
    <path d="M22.0 -64.6 Q22.2 -64.25 22.0 -63.95 21.8 -63.7 21.35 -63.65 21.0 -63.65 20.65 -63.9 20.25 -64.15 20.1 -64.55 20.0 -64.9 20.2 -65.15 20.4 -65.45 20.75 -65.5 L21.55 -65.25 22.0 -64.6 Z" fill="none" stroke="#000000" stroke-linecap="round" stroke-linejoin="round" stroke-opacity="0.3019608" stroke-width="1.0"/>
    <path d="M16.55 -64.35 L17.65 -66.0 Q18.7 -67.55 20.85 -67.6 23.05 -67.75 25.05 -66.4 L25.25 -66.25 Q27.3 -64.9 28.0 -62.8 28.7 -60.8 27.65 -59.25 L26.55 -57.6 Q22.6 -60.5 18.35 -63.15 L16.55 -64.35 18.35 -63.15 Q22.6 -60.5 26.55 -57.6 L-9.2 -4.45 -19.45 -10.8 16.55 -64.35" fill="#6b2f1d" fill-rule="evenodd" stroke="none"/>
    <path d="M26.55 -57.6 L27.65 -59.25 Q28.7 -60.8 28.0 -62.8 27.3 -64.9 25.25 -66.25 L25.05 -66.4 Q23.05 -67.75 20.85 -67.6 18.7 -67.55 17.65 -66.0 L16.55 -64.35 18.35 -63.15 Q22.6 -60.5 26.55 -57.6 L-9.2 -4.45 -19.45 -10.8 16.55 -64.35" fill="none" stroke="#000000" stroke-linecap="round" stroke-linejoin="round" stroke-opacity="0.3019608" stroke-width="1.0"/>
    <path d="M-10.2 -2.2 Q-10.9 0.3 -9.35 1.4 -12.0 4.65 -14.65 8.6 -19.95 16.45 -19.7 19.8 -19.6 21.65 -20.2 22.9 -20.65 23.75 -21.85 24.9 L-23.9 27.0 Q-25.05 28.5 -25.75 30.4 -26.95 34.05 -27.55 39.1 L-27.9 43.35 -42.15 38.85 -41.45 31.25 Q-40.8 23.45 -41.15 22.15 -41.75 20.05 -41.35 17.3 -40.9 13.7 -38.8 10.6 -35.65 5.9 -22.0 -12.65 L-9.2 -4.5 Q-9.9 -3.4 -10.2 -2.2" fill="#4a4a4a" fill-rule="evenodd" stroke="none"/>
    <path d="M-10.2 -2.2 Q-10.9 0.3 -9.35 1.4 -12.0 4.65 -14.65 8.6 -19.95 16.45 -19.7 19.8 -19.6 21.65 -20.2 22.9 -20.65 23.75 -21.85 24.9 L-23.9 27.0 Q-25.05 28.5 -25.75 30.4 -26.95 34.05 -27.55 39.1 L-27.9 43.35 -42.15 38.85 -41.45 31.25 Q-40.8 23.45 -41.15 22.15 -41.75 20.05 -41.35 17.3 -40.9 13.7 -38.8 10.6 -35.65 5.9 -22.0 -12.65 L-9.2 -4.5 Q-9.9 -3.4 -10.2 -2.2 Z" fill="none" stroke="#000000" stroke-linecap="round" stroke-linejoin="round" stroke-opacity="0.3019608" stroke-width="1.0"/>
    <path d="M-20.85 -7.0 L-20.0 -6.8 -15.6 -3.95 -14.6 -3.3 -14.6 -3.25 Q-15.05 -1.5 -14.8 0.0 L-14.75 0.95 -15.05 1.7 -18.75 6.85 Q-22.2 11.95 -23.45 15.35 -24.35 17.75 -24.2 19.65 -24.1 20.7 -24.45 21.4 L-24.55 21.55 -25.6 22.8 -25.75 22.9 -27.9 25.1 -28.5 26.0 Q-29.5 27.45 -30.05 29.2 -31.35 33.0 -32.0 38.4 L-32.05 39.0 Q-32.1 39.2 -32.4 39.2 L-33.15 39.1 -37.65 37.7 -38.4 37.2 -38.6 36.45 -38.3 33.0 Q-37.9 27.7 -37.85 25.3 -37.9 23.6 -38.1 22.7 -38.55 21.3 -38.25 19.15 -37.8 16.1 -36.0 13.45 L-21.5 -6.7 Q-21.3 -7.0 -20.85 -7.0" fill="#3b3b3b" fill-rule="evenodd" stroke="none"/>
    <path d="M-20.85 -7.0 L-20.0 -6.8 -15.6 -3.95 -14.6 -3.3 -14.6 -3.25 Q-15.05 -1.5 -14.8 0.0 L-14.75 0.95 -15.05 1.7 -18.75 6.85 Q-22.2 11.95 -23.45 15.35 -24.35 17.75 -24.2 19.65 -24.1 20.7 -24.45 21.4 L-24.55 21.55 -25.6 22.8 -25.75 22.9 -27.9 25.1 -28.5 26.0 Q-29.5 27.45 -30.05 29.2 -31.35 33.0 -32.0 38.4 L-32.05 39.0 Q-32.1 39.2 -32.4 39.2 L-33.15 39.1 -37.65 37.7 -38.4 37.2 -38.6 36.45 -38.3 33.0 Q-37.9 27.7 -37.85 25.3 -37.9 23.6 -38.1 22.7 -38.55 21.3 -38.25 19.15 -37.8 16.1 -36.0 13.45 L-21.5 -6.7 Q-21.3 -7.0 -20.85 -7.0 Z" fill="none" stroke="#000000" stroke-linecap="butt" stroke-linejoin="miter-clip" stroke-miterlimit="4.0" stroke-opacity="0.3019608" stroke-width="1.0"/>
    <path d="M-14.4 -9.25 L17.4 -56.55" fill="none" stroke="#ffffff" stroke-linecap="round" stroke-linejoin="round" stroke-opacity="0.3019608" stroke-width="3.0"/>
    <path d="M19.25 -68.45 L51.65 -116.6" fill="none" stroke="#ffffff" stroke-linecap="round" stroke-linejoin="round" stroke-opacity="0.3019608" stroke-width="2.0"/>
    <path d="M-54.35 95.15 Q-54.45 94.15 -52.7 91.25 L-48.5 84.8 Q-42.1 74.45 -41.05 66.65 -40.35 61.8 -40.3 59.15 -37.2 59.4 -34.75 62.15 -32.3 64.9 -32.45 68.0 L-35.25 108.45 Q-35.35 109.7 -36.75 108.75 L-38.8 106.8 Q-39.7 105.55 -47.2 101.0 -54.15 96.85 -54.35 95.15" fill="#ffffff" fill-opacity="0.05882353" fill-rule="evenodd" stroke="none"/>
  </g>
</svg>
