<?xml version="1.0" encoding="UTF-8" standalone="no"?>
<svg xmlns:ffdec="https://www.free-decompiler.com/flash" xmlns:xlink="http://www.w3.org/1999/xlink" ffdec:objectType="shape" height="52.9px" width="405.0px" xmlns="http://www.w3.org/2000/svg">
  <g transform="matrix(1.0, 0.0, 0.0, 1.0, 203.8, 207.7)">
    <path d="M172.45 -204.7 L172.6 -204.9 Q174.75 -207.05 177.5 -207.55 L179.15 -207.7 182.25 -207.2 Q184.15 -206.5 185.7 -204.9 186.85 -203.7 187.55 -202.2 188.8 -202.95 190.25 -203.2 L191.9 -203.35 195.0 -202.85 Q196.9 -202.15 198.45 -200.55 201.2 -197.7 201.2 -193.75 201.2 -189.7 198.45 -186.9 L198.05 -186.45 Q199.75 -184.05 199.75 -180.9 199.75 -176.9 197.0 -174.1 L196.0 -173.15 Q193.6 -171.3 190.45 -171.3 L187.6 -171.75 187.4 -171.55 Q184.75 -168.75 180.9 -168.75 177.05 -168.75 174.35 -171.55 171.65 -174.35 171.65 -178.35 L171.8 -180.15 170.1 -180.0 Q166.3 -180.0 163.55 -182.8 160.9 -185.6 160.9 -189.6 160.9 -193.6 163.55 -196.4 166.25 -199.2 170.0 -199.2 L170.05 -199.85 Q170.3 -201.3 170.95 -202.55 171.5 -203.7 172.45 -204.7" fill="#7d6c93" fill-rule="evenodd" stroke="none"/>
    <path d="M-188.95 -200.6 Q-186.25 -203.35 -182.75 -203.95 L-180.65 -204.15 -176.75 -203.5 Q-174.35 -202.65 -172.35 -200.6 -170.9 -199.05 -170.05 -197.2 -168.45 -198.15 -166.6 -198.45 L-164.5 -198.65 -160.6 -198.0 Q-158.2 -197.15 -156.2 -195.1 -152.75 -191.5 -152.75 -186.45 -152.75 -181.4 -156.2 -177.85 L-156.75 -177.25 Q-154.6 -174.2 -154.6 -170.2 -154.6 -165.15 -158.05 -161.6 L-159.35 -160.35 Q-162.35 -158.05 -166.35 -158.05 -168.25 -158.05 -169.95 -158.6 L-170.2 -158.35 Q-173.6 -154.8 -178.45 -154.8 -183.3 -154.8 -186.75 -158.35 -190.15 -161.9 -190.15 -167.0 L-189.95 -169.25 -192.1 -169.05 Q-196.95 -169.05 -200.4 -172.6 -203.8 -176.15 -203.8 -181.25 -203.8 -186.3 -200.4 -189.85 -197.0 -193.35 -192.25 -193.4 L-192.15 -194.2 Q-191.9 -196.05 -191.05 -197.6 -190.35 -199.05 -189.15 -200.3 L-188.95 -200.6" fill="#7d6c93" fill-rule="evenodd" stroke="none"/>
  </g>
</svg>
