<?xml version="1.0" encoding="UTF-8" standalone="no"?>
<svg xmlns:ffdec="https://www.free-decompiler.com/flash" xmlns:xlink="http://www.w3.org/1999/xlink" ffdec:objectType="shape" height="117.95px" width="464.5px" xmlns="http://www.w3.org/2000/svg">
  <g transform="matrix(1.0, 0.0, 0.0, 1.0, 220.4, 266.2)">
    <path d="M221.05 -260.7 L221.5 -259.95 221.95 -259.0 222.55 -257.3 222.9 -255.35 223.05 -255.4 223.3 -255.45 224.0 -255.6 225.85 -255.75 226.35 -255.75 227.9 -255.6 Q230.65 -255.15 232.9 -253.45 L234.35 -252.2 236.0 -250.25 236.45 -249.5 236.9 -248.55 237.5 -246.85 Q237.9 -245.35 237.9 -243.65 L237.8 -241.85 237.7 -241.4 237.45 -240.15 236.9 -238.7 Q236.0 -236.75 234.35 -235.15 L234.25 -235.05 235.7 -233.8 Q236.95 -232.55 237.8 -231.1 239.25 -228.45 239.25 -225.25 L239.05 -223.0 238.8 -221.75 239.1 -221.5 240.55 -220.25 242.65 -217.55 Q244.1 -214.9 244.1 -211.7 L243.9 -209.45 Q243.3 -205.9 240.55 -203.2 238.6 -201.2 236.15 -200.3 237.15 -198.05 237.15 -195.4 L237.05 -193.6 236.95 -193.15 236.7 -191.9 Q235.85 -189.1 233.6 -186.9 230.9 -184.15 227.3 -183.5 L227.25 -183.5 227.15 -183.5 225.1 -183.35 224.15 -183.35 Q220.85 -183.6 218.2 -185.5 L217.95 -184.25 Q217.1 -181.45 214.85 -179.25 212.15 -176.5 208.55 -175.85 L208.5 -175.85 208.4 -175.85 206.35 -175.7 205.4 -175.7 Q201.0 -176.05 197.8 -179.25 L197.6 -179.45 197.3 -179.75 Q196.15 -181.0 195.45 -182.45 L195.1 -182.45 Q191.15 -182.45 187.9 -184.2 186.7 -183.7 185.35 -183.45 L185.3 -183.45 185.2 -183.45 183.15 -183.3 182.2 -183.3 Q177.8 -183.65 174.6 -186.85 L174.4 -187.05 174.1 -187.35 Q172.95 -188.6 172.25 -190.05 L172.05 -190.5 Q171.5 -191.75 171.25 -193.15 L171.05 -195.35 171.05 -195.7 171.05 -195.85 169.35 -197.3 169.15 -197.5 Q165.8 -200.95 165.8 -205.8 L165.8 -206.15 165.65 -206.3 164.65 -207.45 162.6 -207.3 Q157.6 -207.3 154.05 -210.85 L153.85 -211.05 Q150.5 -214.5 150.5 -219.35 150.5 -224.35 154.05 -227.9 L155.0 -228.75 Q154.0 -230.95 154.0 -233.6 L154.0 -233.95 Q154.05 -236.2 154.8 -238.1 L155.3 -239.15 Q156.15 -240.75 157.55 -242.15 159.75 -244.35 162.55 -245.15 L162.9 -245.2 163.3 -245.35 163.55 -245.4 164.25 -245.55 164.6 -245.6 164.4 -247.8 164.4 -248.15 Q164.45 -250.4 165.2 -252.3 L165.7 -253.35 Q166.55 -254.95 167.95 -256.35 170.15 -258.55 172.95 -259.35 L173.3 -259.4 173.7 -259.55 173.95 -259.6 174.65 -259.75 176.5 -259.9 177.0 -259.9 178.55 -259.75 Q181.3 -259.3 183.55 -257.6 L183.75 -257.45 184.95 -258.8 Q187.15 -261.0 189.95 -261.8 L190.3 -261.85 190.7 -262.0 190.95 -262.05 191.65 -262.2 193.5 -262.35 194.0 -262.35 195.55 -262.2 Q198.2 -261.75 200.4 -260.15 L201.15 -261.3 202.35 -262.65 Q204.55 -264.85 207.35 -265.65 L207.7 -265.7 208.1 -265.85 208.35 -265.9 209.05 -266.05 210.9 -266.2 211.4 -266.2 212.95 -266.05 Q215.7 -265.6 217.95 -263.9 L219.4 -262.65 221.05 -260.7" fill="#7d6c93" fill-opacity="0.8980392" fill-rule="evenodd" stroke="none"/>
    <path d="M208.15 -220.05 L155.85 -148.25 145.75 -155.6 198.05 -227.4 208.15 -220.05" fill="url(#gradient0)" fill-rule="evenodd" stroke="none"/>
    <path d="M-174.8 -238.05 L-174.0 -237.65 -173.15 -237.1 -171.8 -235.95 -170.5 -234.4 -170.35 -234.55 -170.2 -234.7 -169.65 -235.2 -168.15 -236.25 -167.7 -236.5 -166.3 -237.2 Q-163.7 -238.2 -160.9 -237.9 L-159.05 -237.55 -156.6 -236.7 -155.85 -236.3 -155.0 -235.65 -153.6 -234.55 -151.65 -232.0 -150.8 -230.4 -150.65 -229.95 -150.25 -228.75 -150.0 -227.2 Q-149.75 -225.05 -150.4 -222.9 L-150.45 -222.75 -148.55 -222.4 Q-146.8 -221.95 -145.35 -221.15 -142.8 -219.6 -141.15 -216.85 L-140.15 -214.8 -139.75 -213.6 -139.35 -213.55 -137.45 -213.2 Q-135.8 -212.75 -134.3 -211.95 -131.7 -210.45 -130.1 -207.7 L-129.15 -205.65 Q-127.85 -202.25 -128.8 -198.5 -129.5 -195.85 -131.15 -193.85 -129.15 -192.4 -127.8 -190.1 L-126.95 -188.5 -126.8 -188.1 -126.4 -186.85 Q-125.7 -184.05 -126.55 -181.0 -127.45 -177.3 -130.2 -174.9 L-130.25 -174.85 -130.35 -174.8 Q-131.15 -174.15 -132.05 -173.65 L-132.85 -173.15 Q-135.8 -171.65 -139.1 -172.0 L-138.65 -170.8 Q-137.9 -167.9 -138.75 -164.95 -139.7 -161.15 -142.5 -158.8 L-142.5 -158.75 -142.6 -158.7 -144.25 -157.55 -145.1 -157.1 Q-149.05 -155.15 -153.4 -156.25 L-153.7 -156.3 -154.1 -156.4 Q-155.75 -156.95 -157.1 -157.85 L-157.4 -157.65 Q-160.8 -155.65 -164.45 -155.5 -165.2 -154.45 -166.25 -153.55 L-166.3 -153.55 -166.4 -153.45 Q-167.15 -152.8 -168.05 -152.3 L-168.9 -151.8 Q-172.85 -149.85 -177.2 -151.0 L-177.5 -151.1 -177.9 -151.2 Q-179.55 -151.65 -180.9 -152.55 L-181.25 -152.85 -183.3 -154.75 -184.6 -156.5 -184.75 -156.85 -184.85 -156.95 -187.05 -157.35 -187.3 -157.4 Q-191.95 -158.7 -194.45 -162.85 L-194.6 -163.15 -194.8 -163.2 -196.2 -163.7 Q-197.05 -163.05 -197.95 -162.5 -202.25 -159.95 -207.1 -161.2 L-207.35 -161.25 Q-212.0 -162.55 -214.45 -166.7 -217.0 -171.0 -215.75 -175.85 L-215.35 -177.1 Q-217.35 -178.5 -218.7 -180.75 L-218.85 -181.05 Q-219.95 -183.0 -220.3 -185.05 L-220.35 -186.2 Q-220.5 -188.0 -220.0 -189.9 -219.2 -192.9 -217.2 -195.05 L-216.95 -195.25 -216.65 -195.55 -216.45 -195.75 -215.9 -196.25 -215.65 -196.45 -216.95 -198.2 -217.15 -198.55 Q-218.25 -200.5 -218.55 -202.5 L-218.6 -203.65 Q-218.75 -205.45 -218.25 -207.4 -217.45 -210.4 -215.45 -212.5 L-215.2 -212.75 -214.9 -213.1 -214.75 -213.2 -214.15 -213.7 -212.7 -214.8 -212.25 -215.05 -210.8 -215.7 Q-208.25 -216.7 -205.45 -216.4 L-205.2 -216.35 -204.85 -218.15 Q-204.1 -221.1 -202.05 -223.25 L-201.8 -223.45 -201.5 -223.8 -201.35 -224.0 -200.8 -224.45 -199.3 -225.55 -198.9 -225.8 -197.45 -226.45 Q-195.0 -227.35 -192.3 -227.15 L-192.2 -228.5 -191.85 -230.3 Q-191.05 -233.3 -189.05 -235.35 L-188.8 -235.6 -188.5 -235.95 -188.35 -236.15 -187.8 -236.6 -186.3 -237.65 -185.85 -237.95 -184.45 -238.55 Q-181.9 -239.6 -179.1 -239.25 L-177.2 -238.95 -174.8 -238.05" fill="#7d6c93" fill-opacity="0.8980392" fill-rule="evenodd" stroke="none"/>
    <path d="M-199.45 -207.05 L-161.45 -154.9 -151.35 -162.25 -189.35 -214.4 -199.45 -207.05" fill="url(#gradient1)" fill-rule="evenodd" stroke="none"/>
  </g>
  <defs>
    <linearGradient gradientTransform="matrix(0.0319, -0.0438, 0.0062, 0.0045, 176.95, -187.75)" gradientUnits="userSpaceOnUse" id="gradient0" spreadMethod="pad" x1="-819.2" x2="819.2">
      <stop offset="0.0" stop-color="#fd2dfd"/>
      <stop offset="0.5411764705882353" stop-color="#660099" stop-opacity="0.0"/>
    </linearGradient>
    <linearGradient gradientTransform="matrix(-0.0232, -0.0318, -0.0062, 0.0045, -175.4, -184.6)" gradientUnits="userSpaceOnUse" id="gradient1" spreadMethod="pad" x1="-819.2" x2="819.2">
      <stop offset="0.0" stop-color="#fd2dfd"/>
      <stop offset="0.5411764705882353" stop-color="#660099" stop-opacity="0.0"/>
    </linearGradient>
  </defs>
</svg>
