<?xml version="1.0" encoding="UTF-8" standalone="no"?>
<svg xmlns:ffdec="https://www.free-decompiler.com/flash" xmlns:xlink="http://www.w3.org/1999/xlink" ffdec:objectType="shape" height="223.0px" width="727.1px" xmlns="http://www.w3.org/2000/svg">
  <g transform="matrix(1.0, 0.0, 0.0, 1.0, 312.45, 442.8)">
    <path d="M-262.25 -342.75 L-260.45 -341.65 -259.9 -341.2 -259.35 -340.55 -258.45 -339.4 -257.7 -337.95 -257.6 -338.0 -257.4 -338.15 -256.9 -338.4 -255.5 -338.95 -255.1 -339.1 -253.85 -339.35 -251.4 -339.4 -251.25 -339.5 -250.75 -339.8 -249.3 -340.35 -248.9 -340.45 -247.7 -340.75 Q-245.4 -341.1 -243.25 -340.3 L-241.8 -339.7 Q-240.85 -339.2 -240.05 -338.55 L-239.55 -338.1 -238.9 -337.5 -238.0 -336.25 -237.3 -334.85 -237.15 -334.9 -236.95 -335.0 -236.45 -335.3 -235.05 -335.9 -234.7 -336.0 -233.4 -336.25 -228.95 -335.85 -227.55 -335.2 Q-226.6 -334.7 -225.8 -334.1 L-225.25 -333.6 -224.65 -332.95 -223.75 -331.8 Q-223.05 -330.7 -222.65 -329.4 L-222.4 -328.35 -221.4 -327.95 -219.65 -326.8 -219.1 -326.35 -218.5 -325.7 -217.65 -324.5 -216.85 -323.1 -216.8 -323.2 -216.6 -323.25 -216.1 -323.55 -214.65 -324.15 -214.25 -324.25 -213.05 -324.55 -210.55 -324.55 -208.6 -324.05 -207.15 -323.5 -205.35 -322.35 -204.8 -321.85 -204.25 -321.2 -203.35 -320.05 Q-202.7 -318.95 -202.3 -317.65 L-202.1 -317.0 -201.9 -316.25 -201.85 -315.85 -201.75 -314.8 -201.8 -313.5 Q-202.05 -311.8 -202.95 -310.15 L-203.0 -310.0 -201.55 -309.4 -199.25 -307.85 Q-197.5 -306.1 -196.7 -303.6 L-196.3 -301.8 -196.15 -300.75 -195.85 -300.6 Q-195.15 -300.4 -194.4 -300.0 L-192.1 -298.45 Q-190.35 -296.7 -189.55 -294.2 L-189.15 -292.4 Q-188.7 -289.45 -190.2 -286.65 -191.25 -284.65 -192.95 -283.3 -191.55 -281.8 -190.9 -279.7 L-190.55 -278.3 -190.55 -277.9 -190.4 -276.9 Q-190.4 -274.55 -191.5 -272.4 L-191.6 -272.2 Q-193.05 -269.4 -195.7 -268.0 L-195.75 -267.95 -195.85 -267.95 -197.4 -267.35 -198.15 -267.1 -199.4 -266.9 Q-198.75 -265.8 -198.35 -264.55 L-198.0 -263.1 -197.95 -262.7 -197.8 -261.7 Q-197.8 -259.3 -199.05 -257.05 -200.45 -254.2 -203.1 -252.8 L-203.15 -252.75 -203.25 -252.75 Q-203.95 -252.4 -204.8 -252.15 L-205.55 -251.9 -210.75 -252.15 -210.6 -251.05 Q-210.6 -248.65 -211.8 -246.4 -213.2 -243.6 -215.9 -242.2 L-216.0 -242.15 Q-216.75 -241.75 -217.55 -241.5 L-218.3 -241.25 Q-221.85 -240.5 -225.15 -242.2 L-225.35 -242.3 -225.65 -242.45 -225.75 -242.25 Q-227.2 -239.45 -229.85 -238.05 L-229.9 -238.05 -230.0 -238.05 Q-230.7 -237.7 -231.55 -237.4 L-232.3 -237.2 -237.5 -237.4 -237.35 -236.35 Q-237.35 -233.95 -238.55 -231.7 -239.25 -230.3 -240.25 -229.25 -241.3 -228.2 -242.65 -227.5 L-242.75 -227.45 Q-243.45 -227.05 -244.3 -226.8 L-245.05 -226.55 Q-248.6 -225.75 -251.9 -227.5 L-252.1 -227.6 -252.35 -227.75 -254.5 -229.4 -254.8 -229.3 Q-257.9 -228.35 -260.8 -228.9 L-262.6 -227.65 -262.65 -227.65 -262.75 -227.6 -264.35 -227.0 -265.1 -226.8 Q-268.55 -226.0 -271.85 -227.7 L-272.1 -227.8 -272.4 -227.95 Q-273.6 -228.65 -274.5 -229.65 L-274.75 -229.95 -276.05 -231.8 -276.75 -233.5 -276.85 -233.75 -276.9 -233.85 -278.6 -234.55 -278.8 -234.65 Q-282.25 -236.55 -283.45 -240.35 L-283.55 -240.6 -283.65 -240.7 Q-284.25 -240.95 -284.75 -241.35 L-286.3 -240.7 Q-290.2 -239.45 -293.9 -241.4 L-294.1 -241.5 Q-297.55 -243.35 -298.75 -247.15 -299.95 -251.05 -298.1 -254.75 L-297.55 -255.6 Q-298.9 -257.05 -299.55 -259.15 L-299.65 -259.4 -299.9 -260.9 Q-303.2 -260.3 -306.3 -261.95 L-306.5 -262.05 Q-309.95 -263.9 -311.15 -267.7 -312.4 -271.6 -310.5 -275.3 L-310.0 -276.15 Q-311.3 -277.6 -311.95 -279.7 L-312.0 -279.95 Q-312.55 -281.75 -312.45 -283.4 L-312.3 -284.35 Q-312.05 -285.8 -311.3 -287.25 L-310.35 -288.7 Q-309.45 -289.95 -308.15 -290.85 L-307.85 -290.95 -307.6 -291.15 -307.4 -291.25 -306.9 -291.6 -306.65 -291.7 -307.35 -293.4 -307.4 -293.65 Q-307.95 -295.4 -307.8 -297.1 L-307.7 -298.05 -306.65 -300.9 -305.6 -302.5 -306.2 -303.9 -306.3 -304.15 -306.55 -305.65 -306.65 -307.6 -306.55 -308.6 Q-306.3 -310.05 -305.5 -311.5 L-304.6 -312.95 Q-303.7 -314.2 -302.35 -315.1 L-302.1 -315.15 -301.8 -315.4 -301.65 -315.55 -301.1 -315.8 -300.85 -315.95 -301.55 -317.6 -301.65 -317.9 Q-302.15 -319.65 -302.05 -321.3 L-301.95 -322.25 -300.9 -325.15 Q-299.7 -327.4 -297.7 -328.75 L-297.5 -328.85 -297.15 -329.1 -297.05 -329.2 -296.5 -329.45 -295.1 -330.0 -294.7 -330.15 -293.45 -330.45 Q-291.2 -330.75 -289.0 -329.95 L-288.8 -329.9 -288.25 -331.25 Q-287.05 -333.55 -285.0 -334.85 L-284.8 -335.0 -284.5 -335.2 -284.35 -335.3 -283.8 -335.55 -282.4 -336.15 -282.0 -336.3 -280.75 -336.55 Q-278.55 -336.85 -276.45 -336.1 L-276.15 -337.2 -275.55 -338.55 -275.4 -338.8 Q-274.3 -340.95 -272.4 -342.15 L-272.15 -342.3 -271.8 -342.5 -271.7 -342.6 -271.15 -342.85 -269.75 -343.45 -269.35 -343.6 -268.1 -343.8 -263.65 -343.4 -262.25 -342.75" fill="#7d6c93" fill-opacity="0.8980392" fill-rule="evenodd" stroke="none"/>
    <path d="M287.0 -365.85 L288.65 -363.9 289.1 -363.15 289.55 -362.2 290.15 -360.5 290.5 -358.55 290.65 -358.6 290.9 -358.65 291.6 -358.8 293.45 -358.95 293.95 -358.95 295.5 -358.8 298.35 -357.95 298.55 -358.0 299.25 -358.15 301.1 -358.3 301.6 -358.3 303.15 -358.15 Q305.9 -357.7 308.15 -356.0 L309.6 -354.75 311.25 -352.8 311.7 -352.05 312.15 -351.1 312.75 -349.4 313.1 -347.45 313.25 -347.5 313.5 -347.55 314.2 -347.7 316.05 -347.85 316.55 -347.85 318.1 -347.7 Q320.85 -347.25 323.1 -345.55 L324.55 -344.3 326.2 -342.35 326.65 -341.6 327.1 -340.65 327.7 -338.95 Q328.1 -337.45 328.1 -335.75 L328.05 -334.45 329.0 -333.6 330.65 -331.65 331.1 -330.9 331.55 -329.95 332.15 -328.25 332.5 -326.3 332.65 -326.35 332.9 -326.4 333.6 -326.55 335.45 -326.7 335.95 -326.7 337.5 -326.55 340.35 -325.7 342.5 -324.4 343.95 -323.15 345.6 -321.2 346.05 -320.45 346.5 -319.5 347.1 -317.8 Q347.5 -316.3 347.5 -314.6 L347.5 -313.8 347.4 -312.8 347.3 -312.35 347.05 -311.1 346.5 -309.65 Q345.6 -307.7 343.95 -306.1 L343.85 -306.0 345.3 -304.75 Q346.55 -303.5 347.4 -302.05 348.85 -299.4 348.85 -296.2 L348.65 -293.95 348.4 -292.7 348.7 -292.45 350.15 -291.2 352.25 -288.5 Q353.7 -285.85 353.7 -282.65 L353.5 -280.4 Q352.9 -276.85 350.15 -274.15 348.2 -272.15 345.75 -271.25 346.75 -269.0 346.75 -266.35 L346.65 -264.55 346.55 -264.1 346.3 -262.85 Q345.5 -260.15 343.4 -258.0 L343.2 -257.85 Q340.5 -255.1 336.9 -254.45 L336.85 -254.45 336.75 -254.45 334.7 -254.3 333.75 -254.3 332.2 -254.5 Q332.55 -253.05 332.55 -251.4 L332.45 -249.6 332.35 -249.15 332.1 -247.9 Q331.25 -245.1 329.0 -242.9 326.3 -240.15 322.7 -239.5 L322.65 -239.5 322.55 -239.5 320.5 -239.35 319.55 -239.35 Q316.25 -239.6 313.6 -241.5 L313.35 -240.25 Q312.5 -237.45 310.25 -235.25 307.55 -232.5 303.95 -231.85 L303.9 -231.85 303.8 -231.85 301.75 -231.7 300.8 -231.7 Q296.4 -232.05 293.2 -235.25 L293.0 -235.45 292.7 -235.75 292.5 -235.6 Q289.8 -232.85 286.2 -232.2 L286.15 -232.2 286.05 -232.2 284.0 -232.05 283.05 -232.05 Q279.75 -232.3 277.1 -234.2 L276.85 -232.95 Q276.0 -230.15 273.75 -227.95 272.4 -226.6 270.85 -225.7 269.25 -224.9 267.45 -224.55 L267.4 -224.55 267.3 -224.55 265.25 -224.4 264.3 -224.4 Q259.9 -224.75 256.7 -227.95 L256.5 -228.15 256.2 -228.45 Q255.05 -229.7 254.35 -231.15 L254.0 -231.15 Q250.05 -231.15 246.8 -232.9 L244.25 -232.15 244.2 -232.15 244.1 -232.15 242.05 -232.0 241.1 -232.0 Q236.7 -232.35 233.5 -235.55 L233.3 -235.75 233.0 -236.05 Q231.85 -237.3 231.15 -238.75 L230.95 -239.2 Q230.4 -240.45 230.15 -241.85 L229.95 -244.05 229.95 -244.4 229.95 -244.55 228.25 -246.0 228.05 -246.2 Q224.7 -249.65 224.7 -254.5 L224.7 -254.85 224.55 -255.0 223.55 -256.15 221.5 -256.0 Q216.5 -256.0 212.95 -259.55 L212.75 -259.75 Q209.4 -263.2 209.4 -268.05 209.4 -273.05 212.95 -276.6 L213.9 -277.45 Q212.9 -279.65 212.9 -282.3 L212.9 -282.65 213.1 -284.5 Q209.05 -285.0 206.05 -288.0 L205.85 -288.2 Q202.5 -291.65 202.5 -296.5 202.5 -301.5 206.05 -305.05 L207.0 -305.9 Q206.0 -308.1 206.0 -310.75 L206.0 -311.1 Q206.05 -313.35 206.8 -315.25 L207.3 -316.3 Q208.15 -317.9 209.55 -319.3 L211.15 -320.65 Q212.7 -321.8 214.55 -322.3 L214.9 -322.35 215.3 -322.5 215.55 -322.55 216.25 -322.7 216.6 -322.75 216.4 -324.95 216.4 -325.3 Q216.45 -327.55 217.2 -329.45 L217.7 -330.5 Q218.55 -332.1 219.95 -333.5 L221.75 -334.95 221.6 -336.8 221.6 -337.15 221.8 -339.0 222.4 -341.3 222.9 -342.35 Q223.75 -343.95 225.15 -345.35 L226.75 -346.7 Q228.3 -347.85 230.15 -348.35 L230.5 -348.4 230.9 -348.55 231.15 -348.6 231.85 -348.75 232.2 -348.8 232.0 -351.0 232.0 -351.35 Q232.05 -353.6 232.8 -355.5 L233.3 -356.55 Q234.15 -358.15 235.55 -359.55 237.75 -361.75 240.55 -362.55 L240.9 -362.6 241.3 -362.75 241.55 -362.8 242.25 -362.95 244.1 -363.1 244.6 -363.1 246.15 -362.95 Q248.9 -362.5 251.15 -360.8 L251.35 -360.65 252.55 -362.0 Q254.75 -364.2 257.55 -365.0 L257.9 -365.05 258.3 -365.2 258.55 -365.25 259.25 -365.4 261.1 -365.55 261.6 -365.55 263.15 -365.4 Q265.8 -364.95 268.0 -363.35 L268.75 -364.5 269.95 -365.85 270.2 -366.1 Q272.3 -368.1 274.95 -368.85 L275.3 -368.9 275.7 -369.05 275.95 -369.1 276.65 -369.25 278.5 -369.4 279.0 -369.4 280.55 -369.25 Q283.3 -368.8 285.55 -367.1 L287.0 -365.85" fill="#7d6c93" fill-opacity="0.8980392" fill-rule="evenodd" stroke="none"/>
    <path d="M283.1 -300.35 L224.9 -220.45 214.8 -227.8 273.0 -307.7 283.1 -300.35" fill="url(#gradient0)" fill-rule="evenodd" stroke="none"/>
    <path d="M-204.15 -388.95 L-203.2 -388.65 -201.95 -388.0 -201.7 -387.75 -201.15 -387.4 -200.6 -386.7 -199.75 -385.15 -199.6 -384.75 -199.45 -384.25 -199.4 -384.05 -199.3 -383.35 -199.2 -382.55 Q-199.3 -381.4 -199.8 -380.25 L-199.85 -380.2 -198.85 -379.9 Q-198.0 -379.55 -197.3 -378.95 -196.0 -377.95 -195.4 -376.4 L-195.1 -375.25 -194.95 -374.6 -194.8 -374.55 -193.8 -374.2 Q-192.95 -373.85 -192.25 -373.25 -190.95 -372.25 -190.35 -370.7 -190.1 -370.15 -190.0 -369.5 -189.55 -367.7 -190.4 -365.85 -190.95 -364.45 -192.0 -363.5 -191.05 -362.6 -190.5 -361.3 L-190.2 -360.4 -190.15 -360.2 -190.05 -359.45 Q-189.85 -358.0 -190.5 -356.55 L-190.55 -356.4 Q-191.3 -354.55 -193.0 -353.5 -193.55 -353.15 -194.05 -352.95 L-194.5 -352.8 -195.3 -352.65 Q-196.6 -352.35 -197.8 -352.65 L-197.65 -352.0 Q-197.6 -350.45 -198.25 -348.9 -198.65 -348.0 -199.2 -347.25 L-200.65 -346.05 -200.75 -346.0 -201.75 -345.55 -202.2 -345.35 -206.55 -345.55 -206.75 -345.6 -207.0 -345.75 -208.4 -346.65 -208.55 -346.6 Q-210.5 -345.8 -212.45 -345.95 L-213.55 -345.15 -213.6 -345.1 -214.65 -344.6 -215.1 -344.4 -219.55 -344.6 -219.7 -344.7 -219.9 -344.8 -221.3 -345.75 -221.55 -345.95 -222.4 -347.1 -222.95 -348.1 -223.0 -348.3 -223.05 -348.35 -224.2 -348.75 -224.3 -348.85 Q-226.65 -349.8 -227.6 -352.2 L-227.7 -352.4 -227.75 -352.45 -228.5 -352.8 Q-228.95 -352.5 -229.5 -352.3 -231.95 -351.3 -234.4 -352.3 L-234.55 -352.4 Q-236.85 -353.4 -237.8 -355.85 -238.8 -358.25 -237.8 -360.7 L-237.5 -361.3 -238.55 -362.65 -238.95 -363.5 -239.05 -363.7 -239.3 -364.65 -239.45 -365.85 -239.45 -366.45 -238.9 -368.4 -238.4 -369.4 -237.05 -370.85 -236.9 -370.95 -236.75 -371.1 -236.6 -371.2 -236.3 -371.45 -236.1 -371.55 -236.65 -372.5 -236.75 -372.7 -237.2 -374.9 -237.15 -375.6 -236.65 -377.45 Q-235.95 -378.95 -234.8 -379.95 L-234.65 -380.0 -234.4 -380.2 -234.35 -380.25 -234.05 -380.45 -233.15 -380.95 -232.9 -381.05 -232.1 -381.25 -229.25 -381.2 -229.05 -381.15 -228.75 -382.0 Q-228.15 -383.55 -226.85 -384.55 L-226.7 -384.6 -226.6 -384.75 -226.45 -384.8 -226.15 -385.05 -225.3 -385.5 -225.0 -385.65 -224.25 -385.85 -221.45 -385.75 -221.35 -386.5 -221.0 -387.4 -220.9 -387.55 Q-220.3 -389.0 -219.15 -389.9 L-218.95 -390.0 -218.85 -390.1 -218.75 -390.15 -218.35 -390.4 -217.5 -390.9 -217.25 -391.0 -216.45 -391.2 -213.55 -391.15 -213.25 -391.05 -212.6 -390.8 -211.45 -390.15 -211.05 -389.9 -210.65 -389.55 -210.0 -388.8 -209.4 -387.9 -209.35 -387.95 -209.25 -388.05 -209.0 -388.25 -208.05 -388.7 Q-207.95 -388.75 -207.8 -388.85 L-207.05 -389.05 -205.45 -389.2 -204.15 -388.95" fill="#7d6c93" fill-opacity="0.8" fill-rule="evenodd" stroke="none"/>
    <path d="M-261.7 -271.95 L-223.7 -219.8 -213.6 -227.15 -251.6 -279.3 -261.7 -271.95" fill="url(#gradient1)" fill-rule="evenodd" stroke="none"/>
    <path d="M411.05 -366.9 L412.1 -365.35 412.35 -364.8 412.6 -364.05 412.9 -362.85 412.9 -360.55 412.8 -359.95 412.65 -359.25 412.55 -358.95 412.3 -358.05 411.75 -357.05 Q410.95 -355.8 409.6 -354.8 L409.55 -354.75 410.5 -353.7 411.75 -351.6 Q412.55 -349.6 412.25 -347.3 L411.9 -345.75 411.6 -344.85 411.8 -344.7 412.75 -343.65 414.0 -341.6 Q414.85 -339.55 414.55 -337.25 L414.2 -335.75 Q413.5 -333.2 411.3 -331.55 409.7 -330.3 407.95 -329.9 408.45 -328.2 408.25 -326.3 L408.05 -325.0 407.95 -324.7 407.65 -323.85 Q406.85 -322.0 405.15 -320.65 L405.0 -320.55 Q402.85 -318.85 400.2 -318.65 L400.1 -318.65 398.65 -318.7 397.95 -318.8 396.85 -319.1 Q395.2 -319.65 393.95 -320.85 L393.7 -320.0 Q392.8 -318.1 391.0 -316.75 389.95 -315.85 388.75 -315.35 L386.25 -314.85 386.15 -314.85 384.65 -314.9 384.0 -315.0 Q380.9 -315.6 378.9 -318.2 L378.75 -318.3 378.6 -318.6 377.5 -320.6 377.25 -320.6 Q374.5 -320.95 372.3 -322.5 L370.4 -322.2 370.3 -322.2 368.8 -322.3 368.15 -322.35 Q365.1 -323.0 363.05 -325.5 L362.9 -325.7 362.75 -325.95 Q362.0 -326.9 361.65 -328.0 L361.55 -328.4 Q361.25 -329.25 361.25 -330.3 L361.25 -331.85 361.3 -332.1 361.3 -332.2 360.25 -333.4 360.1 -333.55 Q358.0 -336.25 358.4 -339.75 L358.45 -340.0 358.35 -340.1 357.7 -341.0 356.3 -341.1 Q352.7 -341.5 350.45 -344.3 L350.35 -344.45 Q348.3 -347.2 348.7 -350.7 349.15 -354.2 351.9 -356.45 L352.65 -356.95 Q352.35 -358.0 352.3 -359.15 L352.35 -360.5 352.4 -360.75 352.7 -362.05 353.3 -363.65 353.75 -364.3 355.65 -366.25 356.9 -367.1 Q358.1 -367.8 359.45 -368.0 L359.7 -368.0 359.95 -368.05 360.2 -368.1 360.7 -368.15 360.95 -368.15 Q360.9 -368.9 361.0 -369.65 L361.0 -369.9 Q361.2 -371.5 361.9 -372.85 L362.35 -373.55 Q363.1 -374.65 364.25 -375.5 366.0 -376.85 368.0 -377.2 L368.25 -377.15 368.55 -377.25 368.75 -377.25 369.25 -377.3 370.6 -377.25 370.95 -377.2 372.05 -377.0 Q374.0 -376.45 375.4 -375.05 L375.55 -374.9 376.5 -375.8 Q378.25 -377.15 380.35 -377.5 L380.6 -377.45 380.9 -377.6 381.1 -377.55 381.55 -377.6 382.85 -377.6 383.25 -377.55 384.35 -377.3 Q386.2 -376.75 387.65 -375.4 L388.25 -376.2 389.2 -377.05 389.4 -377.2 Q391.1 -378.45 393.05 -378.8 L393.3 -378.8 393.55 -378.85 393.75 -378.85 394.3 -378.95 395.6 -378.85 395.95 -378.85 397.05 -378.6 Q398.95 -378.0 400.45 -376.65 L400.75 -376.3 401.35 -375.6 402.3 -374.05 402.55 -373.5 402.85 -372.8 403.1 -371.5 403.15 -370.1 403.3 -370.15 403.5 -370.2 404.0 -370.2 405.35 -370.15 405.7 -370.1 406.8 -369.9 408.7 -369.05 410.15 -367.9 411.05 -366.9" fill="#7d6c93" fill-opacity="0.6" fill-rule="evenodd" stroke="none"/>
    <path d="M280.65 -441.35 L281.05 -441.0 281.7 -440.25 282.3 -439.35 282.35 -439.4 282.45 -439.5 282.7 -439.7 283.65 -440.15 283.9 -440.3 284.65 -440.5 286.25 -440.65 287.55 -440.4 288.5 -440.1 289.75 -439.45 290.0 -439.2 290.55 -438.85 291.1 -438.15 291.95 -436.6 292.1 -436.2 292.25 -435.7 292.3 -435.5 292.4 -434.8 292.5 -434.0 Q292.4 -432.85 291.9 -431.7 L291.85 -431.65 292.85 -431.35 294.4 -430.4 Q295.7 -429.4 296.3 -427.85 L296.6 -426.7 296.75 -426.05 296.9 -426.0 297.9 -425.65 299.45 -424.7 Q300.75 -423.7 301.35 -422.15 L301.7 -420.95 Q302.15 -419.15 301.3 -417.3 300.75 -415.9 299.7 -414.95 300.65 -414.05 301.2 -412.75 L301.5 -411.85 301.55 -411.65 301.65 -410.9 Q301.85 -409.45 301.2 -408.0 L301.15 -407.85 Q300.4 -406.0 298.7 -404.95 298.15 -404.6 297.65 -404.4 L297.2 -404.25 296.4 -404.1 Q295.1 -403.8 293.9 -404.1 L294.05 -403.45 Q294.1 -401.9 293.45 -400.35 L292.5 -398.7 291.05 -397.5 290.95 -397.45 289.95 -397.0 289.5 -396.8 285.15 -397.0 284.95 -397.05 284.7 -397.2 Q283.9 -397.55 283.3 -398.1 L283.15 -398.05 Q281.2 -397.25 279.25 -397.4 L278.15 -396.6 278.1 -396.55 277.05 -396.05 276.6 -395.85 272.15 -396.05 272.0 -396.15 271.8 -396.25 270.4 -397.2 270.15 -397.4 Q269.65 -397.9 269.3 -398.55 L268.75 -399.55 268.7 -399.75 268.65 -399.8 267.5 -400.2 267.4 -400.3 Q265.05 -401.25 264.1 -403.65 L264.0 -403.85 263.95 -403.9 Q263.55 -404.0 263.2 -404.25 L262.2 -403.75 Q259.75 -402.75 257.3 -403.75 L257.15 -403.85 Q254.85 -404.85 253.9 -407.3 252.9 -409.7 253.9 -412.15 L254.2 -412.75 253.15 -414.1 252.75 -414.95 252.65 -415.15 252.4 -416.1 Q252.25 -416.75 252.25 -417.3 L252.25 -417.9 252.8 -419.85 253.3 -420.85 Q253.85 -421.75 254.65 -422.3 L254.8 -422.4 254.95 -422.55 255.1 -422.65 255.4 -422.9 255.6 -423.0 Q255.25 -423.4 255.05 -423.95 L254.95 -424.15 Q254.5 -425.25 254.5 -426.35 L254.55 -427.05 Q254.65 -427.95 255.05 -428.9 255.75 -430.4 256.9 -431.4 L257.05 -431.45 257.3 -431.65 257.35 -431.7 257.65 -431.9 258.55 -432.4 258.8 -432.5 259.6 -432.7 262.45 -432.65 262.65 -432.6 262.95 -433.45 Q263.55 -435.0 264.85 -436.0 L265.0 -436.05 265.1 -436.2 265.25 -436.25 265.55 -436.5 266.4 -436.95 266.7 -437.1 267.45 -437.3 270.25 -437.2 270.35 -437.95 270.7 -438.85 270.8 -439.0 Q271.4 -440.45 272.55 -441.35 L272.75 -441.45 272.85 -441.55 272.95 -441.6 273.35 -441.85 274.2 -442.35 274.45 -442.45 275.25 -442.65 278.15 -442.6 278.45 -442.5 279.1 -442.25 280.25 -441.6 280.65 -441.35" fill="#7d6c93" fill-opacity="0.8" fill-rule="evenodd" stroke="none"/>
  </g>
  <defs>
    <linearGradient gradientTransform="matrix(0.0355, -0.0488, 0.0062, 0.0045, 248.95, -264.0)" gradientUnits="userSpaceOnUse" id="gradient0" spreadMethod="pad" x1="-819.2" x2="819.2">
      <stop offset="0.0" stop-color="#fe45fe"/>
      <stop offset="0.5411764705882353" stop-color="#660099" stop-opacity="0.0"/>
    </linearGradient>
    <linearGradient gradientTransform="matrix(-0.0232, -0.0318, -0.0062, 0.0045, -237.65, -249.5)" gradientUnits="userSpaceOnUse" id="gradient1" spreadMethod="pad" x1="-819.2" x2="819.2">
      <stop offset="0.0" stop-color="#fe45fe"/>
      <stop offset="0.5411764705882353" stop-color="#660099" stop-opacity="0.0"/>
    </linearGradient>
  </defs>
</svg>
