<?xml version="1.0" encoding="UTF-8" standalone="no"?>
<svg xmlns:ffdec="https://www.free-decompiler.com/flash" xmlns:xlink="http://www.w3.org/1999/xlink" ffdec:objectType="shape" height="263.25px" width="703.2px" xmlns="http://www.w3.org/2000/svg">
  <g transform="matrix(1.0, 0.0, 0.0, 1.0, 310.1, 462.95)">
    <path d="M284.7 -308.9 L205.5 -200.25 195.4 -207.6 274.6 -316.25 284.7 -308.9" fill="url(#gradient0)" fill-rule="evenodd" stroke="none"/>
    <path d="M300.55 -361.15 L301.85 -360.05 303.25 -358.35 303.65 -357.7 304.05 -356.9 304.55 -355.4 304.85 -353.7 305.0 -353.75 305.2 -353.8 305.85 -353.95 307.45 -354.05 307.85 -354.05 309.2 -353.95 Q311.6 -353.55 313.55 -352.05 L314.8 -351.0 316.25 -349.3 316.65 -348.65 317.05 -347.8 317.55 -346.35 Q317.9 -345.05 317.9 -343.55 L317.85 -342.4 318.7 -341.7 320.1 -340.0 320.5 -339.35 320.9 -338.5 321.4 -337.05 321.75 -335.35 321.85 -335.4 322.1 -335.45 322.7 -335.55 324.3 -335.7 324.75 -335.7 326.05 -335.55 Q327.4 -335.35 328.55 -334.8 L330.4 -333.7 331.7 -332.6 333.1 -330.9 333.5 -330.25 333.9 -329.45 334.4 -327.95 Q334.75 -326.65 334.75 -325.15 L334.75 -324.5 334.7 -323.6 334.6 -323.2 334.35 -322.15 333.9 -320.85 Q333.1 -319.2 331.7 -317.8 L331.6 -317.7 332.85 -316.6 334.7 -314.25 Q335.95 -311.95 335.95 -309.2 L335.75 -307.25 335.55 -306.15 335.8 -305.95 337.05 -304.85 338.9 -302.5 Q340.15 -300.2 340.15 -297.4 L340.0 -295.45 Q339.45 -292.35 337.05 -290.0 335.35 -288.3 333.25 -287.5 334.1 -285.55 334.1 -283.25 L334.0 -281.7 333.95 -281.3 333.7 -280.2 Q333.0 -277.85 331.2 -276.0 L331.05 -275.85 Q328.7 -273.45 325.55 -272.9 L325.5 -272.9 325.4 -272.9 323.65 -272.8 322.8 -272.8 321.45 -272.95 321.75 -270.25 321.7 -268.7 321.6 -268.3 321.4 -267.2 Q320.65 -264.8 318.7 -262.85 316.35 -260.5 313.2 -259.9 L313.1 -259.9 311.3 -259.8 310.5 -259.8 Q307.6 -260.0 305.3 -261.65 L305.1 -260.55 Q304.35 -258.15 302.4 -256.2 300.05 -253.85 296.9 -253.25 L296.8 -253.25 295.0 -253.15 294.2 -253.15 Q290.35 -253.45 287.6 -256.2 L287.4 -256.4 287.15 -256.65 286.95 -256.55 Q284.6 -254.15 281.5 -253.55 L281.45 -253.55 281.35 -253.55 279.6 -253.45 278.75 -253.45 Q275.9 -253.65 273.6 -255.3 L273.35 -254.2 Q272.65 -251.8 270.7 -249.9 L268.15 -247.9 Q266.75 -247.25 265.2 -246.9 L265.15 -246.9 265.05 -246.9 263.3 -246.8 262.45 -246.8 Q258.65 -247.1 255.85 -249.9 L255.7 -250.05 255.45 -250.3 Q254.45 -251.4 253.8 -252.65 L253.5 -252.65 Q250.1 -252.65 247.25 -254.2 246.2 -253.75 245.05 -253.55 L245.0 -253.55 244.9 -253.55 243.15 -253.4 242.3 -253.4 Q238.5 -253.7 235.7 -256.5 L235.55 -256.65 235.25 -256.9 Q234.25 -258.0 233.65 -259.25 L233.5 -259.65 Q233.0 -260.75 232.8 -261.95 L232.6 -263.85 232.6 -264.15 232.6 -264.3 231.15 -265.55 230.95 -265.75 Q228.05 -268.75 228.05 -272.95 L228.05 -273.25 227.9 -273.4 227.05 -274.4 225.25 -274.25 Q220.95 -274.25 217.85 -277.35 L217.65 -277.5 Q214.75 -280.5 214.75 -284.7 214.75 -289.05 217.85 -292.15 L218.65 -292.9 Q217.8 -294.8 217.8 -297.1 L217.8 -297.4 Q217.8 -298.3 217.95 -299.0 214.45 -299.45 211.85 -302.05 L211.65 -302.25 Q208.75 -305.25 208.75 -309.45 208.75 -313.8 211.85 -316.9 L212.65 -317.6 Q211.8 -319.55 211.8 -321.85 L211.8 -322.15 Q211.85 -324.1 212.5 -325.75 L212.95 -326.65 Q213.65 -328.05 214.9 -329.25 L216.3 -330.45 Q217.65 -331.45 219.25 -331.85 L219.55 -331.9 219.9 -332.05 220.1 -332.1 220.7 -332.2 221.0 -332.25 Q220.85 -333.15 220.85 -334.15 L220.85 -334.45 Q220.9 -336.45 221.55 -338.1 L221.95 -339.0 Q222.7 -340.4 223.95 -341.6 224.65 -342.35 225.5 -342.85 225.35 -343.65 225.35 -344.45 L225.35 -344.75 225.55 -346.4 226.05 -348.4 226.5 -349.3 Q227.25 -350.7 228.45 -351.9 L229.85 -353.05 Q231.2 -354.05 232.8 -354.5 L233.1 -354.55 233.45 -354.7 233.65 -354.7 234.25 -354.85 234.55 -354.9 Q234.4 -355.8 234.4 -356.8 L234.4 -357.1 Q234.45 -359.05 235.1 -360.7 L235.55 -361.65 Q236.25 -363.0 237.5 -364.25 239.4 -366.15 241.85 -366.85 L242.15 -366.9 242.5 -367.0 242.7 -367.05 243.3 -367.2 244.9 -367.3 245.35 -367.3 246.7 -367.2 Q249.1 -366.8 251.05 -365.3 L251.2 -365.2 252.25 -366.35 Q254.15 -368.25 256.6 -368.95 L256.9 -369.0 257.25 -369.15 257.45 -369.2 258.1 -369.3 259.7 -369.45 260.1 -369.45 261.45 -369.3 Q263.75 -368.95 265.7 -367.55 L266.35 -368.55 267.4 -369.7 267.6 -369.95 Q269.4 -371.65 271.7 -372.3 L272.0 -372.35 272.35 -372.5 272.6 -372.55 273.2 -372.65 274.8 -372.8 275.25 -372.8 276.6 -372.65 Q279.0 -372.25 280.95 -370.8 L282.2 -369.7 283.6 -368.0 284.0 -367.35 284.4 -366.55 284.95 -365.05 285.25 -363.35 285.35 -363.4 285.6 -363.45 286.2 -363.6 287.8 -363.7 288.25 -363.7 289.6 -363.6 292.05 -362.85 292.25 -362.9 292.85 -363.0 294.45 -363.15 294.9 -363.15 296.2 -363.0 Q298.6 -362.65 300.55 -361.15" fill="#7d6c93" fill-opacity="0.6" fill-rule="evenodd" stroke="none"/>
    <path d="M387.95 -372.5 L389.2 -371.5 390.0 -370.6 390.9 -369.25 391.1 -368.8 391.35 -368.15 391.6 -367.1 391.6 -365.1 391.5 -364.6 391.4 -363.95 391.3 -363.7 391.05 -362.95 390.6 -362.05 Q389.9 -361.0 388.75 -360.1 L388.7 -360.05 389.5 -359.15 390.6 -357.35 Q391.3 -355.6 391.05 -353.6 L390.7 -352.25 390.45 -351.45 390.65 -351.35 391.45 -350.4 392.55 -348.65 Q393.3 -346.85 393.05 -344.85 L392.7 -343.55 Q392.1 -341.35 390.2 -339.9 388.8 -338.8 387.3 -338.45 387.75 -337.0 387.55 -335.35 L387.4 -334.2 387.3 -333.95 387.05 -333.2 Q386.35 -331.6 384.85 -330.45 L384.75 -330.35 Q382.85 -328.85 380.55 -328.7 L380.45 -328.7 379.2 -328.75 378.6 -328.8 377.65 -329.1 Q376.2 -329.55 375.15 -330.6 L374.9 -329.85 Q374.15 -328.2 372.55 -327.05 371.65 -326.25 370.6 -325.85 L368.45 -325.4 368.35 -325.4 367.05 -325.45 366.5 -325.5 Q363.8 -326.05 362.05 -328.3 L361.9 -328.4 361.8 -328.65 Q361.15 -329.5 360.85 -330.4 L360.6 -330.4 Q358.2 -330.7 356.3 -332.05 L354.65 -331.8 354.55 -331.8 353.25 -331.85 352.7 -331.9 Q350.05 -332.45 348.3 -334.65 L348.15 -334.8 348.0 -335.05 Q347.35 -335.85 347.05 -336.8 L346.95 -337.15 Q346.7 -337.9 346.7 -338.8 L346.7 -340.15 346.75 -340.4 346.75 -340.45 345.85 -341.5 345.7 -341.65 Q343.9 -344.0 344.25 -347.05 L344.3 -347.25 344.2 -347.35 343.65 -348.1 342.4 -348.2 Q339.3 -348.55 337.35 -351.0 L337.25 -351.1 Q335.45 -353.5 335.8 -356.55 336.2 -359.6 338.6 -361.55 L339.25 -361.95 338.95 -363.9 339.0 -365.05 339.0 -365.3 339.3 -366.4 339.8 -367.8 340.2 -368.35 341.85 -370.05 Q342.3 -370.5 342.95 -370.8 343.95 -371.4 345.15 -371.6 L345.35 -371.6 345.6 -371.6 345.8 -371.65 346.25 -371.7 346.45 -371.7 Q346.4 -372.35 346.5 -373.0 L346.5 -373.25 Q346.65 -374.6 347.3 -375.8 L347.65 -376.4 Q348.3 -377.35 349.3 -378.1 350.85 -379.25 352.6 -379.55 L352.8 -379.55 353.05 -379.6 353.25 -379.6 353.65 -379.65 354.85 -379.6 355.15 -379.55 356.1 -379.4 Q357.8 -378.9 359.0 -377.7 L359.15 -377.55 359.95 -378.35 Q361.5 -379.55 363.3 -379.85 L363.55 -379.8 363.8 -379.9 363.95 -379.85 364.35 -379.9 365.5 -379.9 365.85 -379.85 366.8 -379.65 Q368.4 -379.2 369.65 -378.0 L370.15 -378.7 371.0 -379.45 371.15 -379.55 Q372.65 -380.65 374.35 -380.95 L374.55 -380.95 374.8 -381.0 374.95 -381.0 375.45 -381.1 376.55 -381.0 376.85 -381.0 377.8 -380.8 Q379.45 -380.25 380.75 -379.1 L381.05 -378.8 381.55 -378.2 382.4 -376.85 382.6 -376.35 382.85 -375.75 383.1 -374.6 383.1 -373.4 383.25 -373.45 383.4 -373.5 383.85 -373.5 385.05 -373.45 385.35 -373.4 386.3 -373.25 387.95 -372.5" fill="#7d6c93" fill-opacity="0.49803922" fill-rule="evenodd" stroke="none"/>
    <path d="M301.9 -460.75 L302.4 -460.0 302.45 -460.0 302.55 -460.1 302.75 -460.3 303.6 -460.65 303.8 -460.8 304.45 -461.0 305.85 -461.1 306.95 -460.9 307.8 -460.65 308.9 -460.05 309.1 -459.85 Q309.3 -459.65 309.6 -459.55 L310.05 -458.95 310.8 -457.6 310.9 -457.25 311.05 -456.8 311.1 -456.65 311.2 -456.0 311.25 -455.35 Q311.2 -454.35 310.75 -453.35 L310.7 -453.3 311.55 -453.0 312.9 -452.2 Q314.05 -451.35 314.55 -450.0 L314.85 -449.0 314.95 -448.4 315.1 -448.4 315.95 -448.05 317.3 -447.25 Q318.45 -446.4 318.95 -445.05 L319.25 -444.0 Q319.65 -442.4 318.9 -440.8 318.45 -439.6 317.55 -438.75 318.35 -438.0 318.85 -436.85 L319.1 -436.1 319.15 -435.9 319.2 -435.25 Q319.4 -434.0 318.85 -432.75 L318.8 -432.6 Q318.15 -431.0 316.65 -430.1 316.2 -429.8 315.75 -429.6 L315.35 -429.5 314.65 -429.35 Q313.55 -429.1 312.5 -429.35 L312.6 -428.8 Q312.65 -427.45 312.1 -426.1 L311.25 -424.65 310.0 -423.6 309.9 -423.55 309.05 -423.2 308.65 -423.0 304.9 -423.2 304.7 -423.2 304.5 -423.35 303.3 -424.15 303.15 -424.1 Q301.45 -423.4 299.75 -423.5 L298.8 -422.85 298.75 -422.8 Q298.3 -422.5 297.85 -422.35 L297.45 -422.2 293.6 -422.35 293.45 -422.45 293.3 -422.5 292.05 -423.35 291.85 -423.5 Q291.4 -423.95 291.1 -424.5 L290.65 -425.4 290.6 -425.55 290.55 -425.6 289.55 -425.95 289.45 -426.05 Q287.4 -426.85 286.6 -428.95 L286.5 -429.15 286.45 -429.15 285.8 -429.5 Q285.4 -429.2 284.95 -429.05 282.8 -428.15 280.7 -429.05 L280.55 -429.15 Q278.55 -430.0 277.75 -432.15 276.85 -434.2 277.75 -436.35 L278.0 -436.85 277.1 -438.05 276.75 -438.75 276.65 -438.95 276.4 -439.75 276.3 -440.8 276.3 -441.35 Q276.45 -442.2 276.75 -443.05 L277.2 -443.9 278.4 -445.15 278.5 -445.25 278.65 -445.4 278.75 -445.45 279.05 -445.7 279.2 -445.75 Q278.9 -446.1 278.75 -446.6 L278.65 -446.75 Q278.25 -447.7 278.25 -448.7 L278.3 -449.3 278.75 -450.9 Q279.35 -452.2 280.35 -453.05 L280.45 -453.1 280.7 -453.3 280.75 -453.35 281.0 -453.5 281.75 -453.95 282.0 -454.0 282.7 -454.2 285.15 -454.15 285.35 -454.1 285.6 -454.85 Q286.1 -456.2 287.25 -457.05 L287.35 -457.1 287.45 -457.25 287.6 -457.3 287.85 -457.5 288.6 -457.9 288.85 -458.0 289.5 -458.2 291.95 -458.1 292.0 -458.75 292.35 -459.55 292.4 -459.65 Q292.95 -460.95 293.95 -461.7 L294.1 -461.8 294.2 -461.9 294.3 -461.95 294.65 -462.15 295.35 -462.6 295.6 -462.65 296.3 -462.85 298.8 -462.8 299.05 -462.7 299.65 -462.5 300.65 -461.95 300.95 -461.7 301.3 -461.4 301.9 -460.75" fill="#7d6c93" fill-opacity="0.4" fill-rule="evenodd" stroke="none"/>
    <path d="M-255.2 -285.9 L-203.2 -199.7 -192.6 -206.25 -244.6 -292.45 -255.2 -285.9" fill="url(#gradient1)" fill-rule="evenodd" stroke="none"/>
    <path d="M-229.9 -316.85 L-228.75 -315.85 -227.55 -314.4 -227.2 -313.8 -226.85 -313.1 -226.4 -311.8 -226.15 -310.35 -226.0 -310.35 -225.85 -310.4 -225.25 -310.55 -223.85 -310.65 -223.5 -310.65 -222.35 -310.55 Q-220.25 -310.2 -218.55 -308.9 L-217.45 -307.95 -216.2 -306.5 -215.85 -305.9 -215.5 -305.15 -215.05 -303.9 Q-214.75 -302.75 -214.75 -301.45 L-214.8 -300.45 -214.05 -299.85 -212.8 -298.35 -212.45 -297.8 -212.1 -297.05 -211.7 -295.8 -211.4 -294.3 -211.3 -294.35 -211.05 -294.4 -210.55 -294.45 -209.15 -294.6 -208.75 -294.6 -207.6 -294.45 -205.45 -293.8 -203.8 -292.85 -202.7 -291.9 -201.45 -290.4 -201.1 -289.85 -200.75 -289.15 -200.35 -287.85 Q-200.0 -286.7 -200.0 -285.4 L-200.0 -284.8 -200.05 -284.05 -200.15 -283.7 -200.35 -282.75 -200.75 -281.65 Q-201.45 -280.2 -202.7 -278.95 L-202.8 -278.9 -201.7 -277.9 Q-200.7 -277.0 -200.05 -275.85 -199.0 -273.85 -199.0 -271.45 L-199.15 -269.75 -199.35 -268.8 -199.1 -268.6 -198.0 -267.65 Q-197.05 -266.7 -196.4 -265.6 -195.3 -263.6 -195.3 -261.15 -195.3 -260.3 -195.45 -259.45 -195.9 -256.75 -198.0 -254.7 -199.5 -253.2 -201.35 -252.5 -200.6 -250.8 -200.6 -248.8 L-200.7 -247.45 -200.7 -247.1 -200.95 -246.15 Q-201.55 -244.1 -203.15 -242.45 L-203.25 -242.35 Q-205.3 -240.25 -208.05 -239.75 L-208.1 -239.75 -208.2 -239.75 -209.7 -239.65 -210.45 -239.65 -211.65 -239.8 Q-211.4 -238.7 -211.4 -237.45 L-211.4 -236.1 -211.5 -235.75 -211.7 -234.8 Q-212.35 -232.7 -214.05 -231.0 -216.1 -228.9 -218.85 -228.4 L-218.95 -228.4 -220.5 -228.3 -221.2 -228.3 Q-223.75 -228.5 -225.75 -229.95 L-225.9 -228.95 Q-226.6 -226.85 -228.3 -225.15 -230.35 -223.1 -233.1 -222.6 L-233.15 -222.6 -234.75 -222.5 -235.45 -222.5 Q-238.8 -222.75 -241.2 -225.15 L-241.4 -225.35 -241.6 -225.55 -241.75 -225.45 Q-243.85 -223.4 -246.55 -222.85 L-246.6 -222.85 -246.65 -222.85 -248.2 -222.75 -248.95 -222.75 Q-251.45 -222.95 -253.45 -224.4 L-253.65 -223.4 Q-254.25 -221.35 -255.95 -219.65 -257.0 -218.6 -258.2 -217.9 -259.4 -217.35 -260.75 -217.05 L-260.8 -217.05 -260.9 -217.05 -262.45 -216.95 -263.15 -216.95 Q-266.5 -217.2 -268.95 -219.65 L-269.05 -219.8 -269.3 -220.0 -270.75 -222.05 -271.0 -222.05 Q-273.95 -222.05 -276.45 -223.4 -277.35 -223.05 -278.35 -222.85 L-278.4 -222.85 -278.5 -222.85 -280.05 -222.7 -280.75 -222.7 Q-284.1 -223.0 -286.55 -225.45 L-286.65 -225.55 -286.95 -225.8 -288.35 -227.85 -288.45 -228.2 -289.05 -230.2 -289.25 -231.85 -289.25 -232.1 -289.25 -232.25 -290.5 -233.35 -290.7 -233.5 Q-293.2 -236.15 -293.2 -239.8 L-293.2 -240.05 -293.35 -240.2 -294.1 -241.05 -295.65 -240.95 Q-299.4 -240.95 -302.15 -243.65 L-302.3 -243.75 Q-304.85 -246.4 -304.85 -250.05 -304.85 -253.85 -302.15 -256.55 L-301.45 -257.2 Q-302.15 -258.9 -302.15 -260.9 L-302.15 -261.15 -302.05 -262.55 Q-305.1 -262.95 -307.35 -265.2 L-307.55 -265.4 Q-310.1 -268.0 -310.1 -271.7 -310.1 -275.5 -307.35 -278.2 L-306.65 -278.8 Q-307.4 -280.5 -307.4 -282.5 L-307.4 -282.75 Q-307.35 -284.45 -306.8 -285.9 L-306.4 -286.7 -304.7 -288.95 -303.5 -290.0 Q-302.3 -290.9 -300.9 -291.25 L-300.65 -291.3 -300.35 -291.4 -300.15 -291.45 -299.65 -291.55 -299.4 -291.6 -299.5 -293.25 -299.5 -293.5 Q-299.45 -295.25 -298.9 -296.7 L-298.55 -297.5 -296.8 -299.75 -295.45 -300.85 -295.6 -302.25 -295.6 -302.5 -295.4 -303.95 -294.95 -305.7 -294.55 -306.5 -292.85 -308.75 -291.65 -309.75 Q-290.45 -310.65 -289.05 -311.0 L-288.8 -311.05 -288.5 -311.2 -288.35 -311.2 -287.8 -311.35 -287.55 -311.35 -287.65 -313.05 -287.65 -313.3 Q-287.65 -315.0 -287.05 -316.45 L-286.65 -317.25 Q-286.05 -318.45 -284.95 -319.55 -283.3 -321.2 -281.15 -321.8 L-280.9 -321.85 -280.6 -321.95 -280.4 -322.0 -279.9 -322.1 -278.5 -322.2 -278.1 -322.2 -276.95 -322.1 Q-274.85 -321.75 -273.15 -320.45 L-273.0 -320.35 -272.1 -321.35 Q-270.4 -323.05 -268.3 -323.65 L-268.0 -323.7 -267.7 -323.8 -267.55 -323.85 -266.95 -323.95 -265.55 -324.1 -265.25 -324.1 -264.05 -323.95 Q-262.05 -323.65 -260.35 -322.4 L-259.75 -323.3 -258.85 -324.3 -258.65 -324.5 Q-257.1 -326.0 -255.1 -326.55 L-254.85 -326.6 Q-254.65 -326.7 -254.55 -326.75 L-254.3 -326.8 -253.8 -326.9 -252.4 -327.0 -252.0 -327.0 -250.8 -326.9 Q-248.7 -326.55 -247.0 -325.25 L-245.9 -324.3 -244.7 -322.8 -244.35 -322.25 -244.0 -321.55 -243.5 -320.25 -243.25 -318.75 -243.15 -318.8 -242.95 -318.85 -242.45 -318.95 -241.05 -319.05 -240.65 -319.05 -239.45 -318.95 -237.3 -318.3 -237.15 -318.35 -236.6 -318.45 -235.2 -318.6 -234.85 -318.6 -233.7 -318.45 Q-231.6 -318.15 -229.9 -316.85" fill="#7d6c93" fill-opacity="0.6" fill-rule="evenodd" stroke="none"/>
    <path d="M-203.8 -376.65 Q-203.1 -376.25 -202.55 -375.65 L-201.75 -374.75 -200.85 -373.4 -200.65 -372.95 -200.4 -372.3 -200.15 -371.25 -200.15 -369.25 -200.25 -368.75 -200.35 -368.1 -200.45 -367.85 -200.7 -367.1 -201.15 -366.2 Q-201.85 -365.15 -203.0 -364.25 L-203.05 -364.2 -202.25 -363.3 -201.15 -361.5 Q-200.45 -359.75 -200.7 -357.75 -200.8 -357.05 -201.05 -356.4 L-201.3 -355.6 -201.1 -355.5 -200.3 -354.55 Q-199.6 -353.75 -199.2 -352.8 -198.45 -351.0 -198.7 -349.0 -198.8 -348.3 -199.05 -347.7 -199.65 -345.5 -201.55 -344.05 -202.95 -342.95 -204.45 -342.6 -204.0 -341.15 -204.2 -339.5 L-204.35 -338.35 -204.45 -338.1 -204.7 -337.35 Q-205.4 -335.75 -206.9 -334.6 L-207.0 -334.5 Q-208.9 -333.0 -211.2 -332.85 L-211.3 -332.85 -212.55 -332.9 -213.15 -332.95 -214.1 -333.25 Q-215.55 -333.7 -216.6 -334.75 L-216.85 -334.0 Q-217.6 -332.35 -219.2 -331.2 -220.1 -330.4 -221.15 -330.0 L-223.3 -329.55 -223.4 -329.55 -224.7 -329.6 -225.25 -329.65 Q-227.95 -330.2 -229.7 -332.45 L-229.85 -332.55 -229.95 -332.8 -230.9 -334.55 -231.15 -334.55 Q-233.55 -334.85 -235.45 -336.2 L-237.1 -335.95 -237.2 -335.95 -238.5 -336.0 -239.05 -336.05 Q-241.7 -336.6 -243.45 -338.8 L-243.6 -338.95 -243.75 -339.2 Q-244.4 -340.0 -244.7 -340.95 L-244.8 -341.3 -245.05 -342.95 -245.05 -344.3 -245.0 -344.55 -245.0 -344.6 -245.9 -345.65 -246.05 -345.8 Q-247.85 -348.15 -247.5 -351.2 L-247.45 -351.4 -247.55 -351.5 -248.1 -352.25 -249.35 -352.35 Q-252.45 -352.7 -254.4 -355.15 L-254.5 -355.25 Q-256.3 -357.65 -255.95 -360.7 -255.55 -363.75 -253.15 -365.7 L-252.5 -366.1 -252.8 -368.05 -252.75 -369.2 -252.75 -369.45 -252.45 -370.55 -251.95 -371.95 -251.55 -372.5 -249.9 -374.2 -248.8 -374.95 Q-247.8 -375.55 -246.6 -375.75 L-246.4 -375.75 -246.15 -375.75 -245.95 -375.8 -245.5 -375.85 -245.3 -375.85 -245.25 -377.15 -245.25 -377.4 Q-245.1 -378.75 -244.45 -379.95 L-244.1 -380.55 -242.45 -382.25 Q-240.9 -383.4 -239.15 -383.7 L-238.95 -383.7 -238.7 -383.75 -238.5 -383.75 -238.1 -383.8 -236.9 -383.75 -236.6 -383.7 -235.65 -383.55 Q-233.95 -383.05 -232.75 -381.85 L-232.6 -381.7 -231.8 -382.5 Q-230.25 -383.7 -228.45 -384.0 L-228.2 -383.95 -227.95 -384.05 -227.8 -384.0 -227.4 -384.05 -226.25 -384.05 -225.9 -384.0 -224.95 -383.8 Q-223.35 -383.35 -222.1 -382.15 L-221.6 -382.85 -220.75 -383.6 -220.6 -383.7 Q-219.1 -384.8 -217.4 -385.1 L-217.2 -385.1 -216.95 -385.15 -216.8 -385.15 -216.3 -385.25 -215.2 -385.15 -214.9 -385.15 -213.95 -384.95 Q-212.3 -384.4 -211.0 -383.25 L-210.7 -382.95 -210.2 -382.35 -209.35 -381.0 -209.15 -380.5 -208.9 -379.9 -208.65 -378.75 -208.65 -377.55 -208.5 -377.6 -208.35 -377.65 -207.9 -377.65 -206.7 -377.6 -206.4 -377.55 -205.45 -377.4 -203.8 -376.65" fill="#7d6c93" fill-opacity="0.49803922" fill-rule="evenodd" stroke="none"/>
  </g>
  <defs>
    <linearGradient gradientTransform="matrix(0.0483, -0.0663, 0.0062, 0.0045, 240.0, -258.2)" gradientUnits="userSpaceOnUse" id="gradient0" spreadMethod="pad" x1="-819.2" x2="819.2">
      <stop offset="0.0" stop-color="#fd35fd"/>
      <stop offset="0.5411764705882353" stop-color="#660099" stop-opacity="0.0"/>
    </linearGradient>
    <linearGradient gradientTransform="matrix(-0.0317, -0.0526, -0.0065, 0.004, -223.9, -246.0)" gradientUnits="userSpaceOnUse" id="gradient1" spreadMethod="pad" x1="-819.2" x2="819.2">
      <stop offset="0.0" stop-color="#fd35fd"/>
      <stop offset="0.5411764705882353" stop-color="#660099" stop-opacity="0.0"/>
    </linearGradient>
  </defs>
</svg>
