<?xml version="1.0" encoding="UTF-8" standalone="no"?>
<svg xmlns:ffdec="https://www.free-decompiler.com/flash" xmlns:xlink="http://www.w3.org/1999/xlink" ffdec:objectType="shape" height="212.7px" width="693.55px" xmlns="http://www.w3.org/2000/svg">
  <g transform="matrix(1.0, 0.0, 0.0, 1.0, 300.45, 443.5)">
    <path d="M295.95 -359.2 L296.35 -358.0 296.6 -356.6 296.7 -356.65 296.9 -356.7 297.4 -356.8 298.7 -356.9 299.05 -356.9 300.15 -356.8 Q302.1 -356.5 303.65 -355.25 L304.7 -354.4 305.85 -353.05 306.2 -352.5 306.5 -351.8 306.9 -350.65 307.2 -348.35 307.15 -347.4 307.85 -346.85 309.0 -345.45 309.3 -344.95 309.65 -344.25 310.05 -343.05 310.35 -341.7 310.4 -341.75 310.6 -341.75 311.1 -341.85 312.4 -341.95 312.75 -341.95 313.85 -341.85 315.85 -341.25 317.35 -340.35 318.4 -339.45 319.55 -338.05 319.9 -337.55 320.2 -336.9 320.6 -335.65 320.9 -333.4 320.9 -332.85 320.85 -332.15 320.8 -331.8 320.6 -330.95 320.2 -329.9 Q319.55 -328.55 318.4 -327.45 L318.35 -327.35 319.35 -326.45 320.85 -324.55 Q321.9 -322.65 321.9 -320.45 L321.7 -318.85 321.55 -317.95 321.75 -317.8 322.75 -316.9 324.25 -315.0 Q325.3 -313.1 325.3 -310.85 L325.15 -309.25 Q324.7 -306.75 322.75 -304.85 321.4 -303.45 319.7 -302.8 320.35 -301.2 320.35 -299.35 L320.3 -298.1 320.25 -297.75 320.05 -296.85 Q319.5 -294.95 318.0 -293.45 L317.9 -293.35 Q316.0 -291.4 313.4 -290.95 L313.3 -290.95 311.9 -290.85 311.2 -290.85 310.1 -291.0 310.35 -288.8 310.3 -287.5 310.2 -287.2 310.05 -286.3 Q309.45 -284.35 307.85 -282.75 305.95 -280.85 303.4 -280.35 L303.3 -280.35 301.85 -280.3 301.2 -280.3 Q298.85 -280.45 296.95 -281.8 L296.8 -280.9 Q296.2 -278.95 294.6 -277.35 292.7 -275.45 290.15 -274.95 L290.05 -274.95 288.6 -274.9 287.95 -274.9 Q284.8 -275.15 282.6 -277.35 L282.4 -277.55 282.2 -277.75 282.05 -277.65 Q280.15 -275.7 277.6 -275.2 L277.5 -275.2 276.1 -275.15 275.4 -275.15 Q273.05 -275.3 271.2 -276.65 L271.0 -275.75 Q270.45 -273.8 268.85 -272.25 L266.8 -270.6 264.4 -269.8 264.35 -269.8 264.25 -269.8 262.85 -269.7 262.15 -269.7 Q259.05 -269.95 256.8 -272.25 L256.65 -272.35 256.45 -272.55 Q255.65 -273.45 255.1 -274.5 L254.85 -274.5 Q252.1 -274.5 249.8 -275.75 L248.0 -275.2 247.9 -275.2 246.45 -275.1 245.75 -275.1 Q242.7 -275.35 240.4 -277.6 L240.3 -277.75 240.05 -277.95 Q239.2 -278.85 238.75 -279.85 L238.6 -280.15 Q238.2 -281.05 238.05 -282.05 237.9 -282.75 237.9 -283.6 L237.9 -283.8 237.9 -283.95 236.7 -284.95 236.55 -285.1 Q234.2 -287.55 234.2 -291.0 L234.2 -291.2 234.05 -291.35 233.35 -292.15 231.9 -292.05 Q228.4 -292.05 225.9 -294.55 L225.75 -294.65 Q223.4 -297.1 223.4 -300.55 223.4 -304.05 225.9 -306.6 L226.55 -307.2 Q225.85 -308.75 225.85 -310.6 L225.85 -310.85 Q225.85 -311.6 226.0 -312.15 223.15 -312.5 221.0 -314.65 L220.85 -314.8 Q218.5 -317.25 218.5 -320.65 218.5 -324.15 221.0 -326.7 L221.65 -327.25 Q221.0 -328.85 221.0 -330.7 L221.0 -330.95 Q221.0 -332.55 221.55 -333.9 L221.9 -334.6 Q222.5 -335.75 223.5 -336.75 L224.65 -337.7 Q225.75 -338.5 227.05 -338.85 L227.3 -338.9 227.55 -339.0 227.7 -339.05 228.2 -339.15 228.45 -339.15 228.35 -340.7 228.35 -340.95 Q228.4 -342.6 228.9 -343.9 L229.25 -344.65 Q229.85 -345.8 230.85 -346.75 L232.1 -347.8 232.0 -349.1 232.0 -349.35 232.15 -350.65 232.55 -352.3 232.95 -353.05 234.5 -355.15 235.65 -356.05 Q236.75 -356.9 238.05 -357.25 L238.3 -357.3 238.55 -357.4 238.75 -357.4 239.2 -357.55 239.45 -357.6 239.35 -359.1 239.35 -359.35 Q239.4 -360.95 239.9 -362.3 L240.3 -363.05 241.85 -365.2 Q243.4 -366.7 245.4 -367.3 L245.65 -367.35 245.95 -367.4 246.1 -367.45 246.6 -367.55 247.9 -367.65 248.25 -367.65 249.35 -367.55 Q251.3 -367.25 252.9 -366.05 L253.0 -365.95 253.85 -366.9 Q255.4 -368.45 257.4 -369.0 L257.65 -369.05 257.9 -369.15 258.1 -369.2 258.6 -369.3 259.9 -369.4 260.25 -369.4 261.35 -369.3 Q263.2 -369.0 264.8 -367.85 L265.3 -368.65 266.15 -369.6 266.35 -369.8 Q267.8 -371.2 269.65 -371.7 L269.9 -371.75 270.2 -371.9 270.4 -371.9 270.9 -372.0 272.2 -372.1 272.55 -372.1 273.65 -372.0 Q275.6 -371.7 277.2 -370.5 L278.2 -369.6 279.35 -368.2 279.65 -367.7 280.0 -367.05 280.45 -365.85 280.65 -364.45 280.75 -364.5 280.95 -364.55 281.45 -364.65 282.75 -364.75 283.1 -364.75 284.2 -364.65 286.2 -364.05 286.35 -364.1 286.85 -364.15 288.15 -364.3 288.5 -364.3 289.55 -364.15 Q291.5 -363.9 293.1 -362.65 L294.15 -361.75 295.3 -360.4 295.65 -359.85 295.95 -359.2" fill="#7d6c93" fill-opacity="0.49803922" fill-rule="evenodd" stroke="none"/>
    <path d="M387.95 -372.5 L389.2 -371.5 390.0 -370.6 390.9 -369.25 391.1 -368.8 391.35 -368.15 391.6 -367.1 391.6 -365.1 391.5 -364.6 391.4 -363.95 391.3 -363.7 391.05 -362.95 390.6 -362.05 Q389.9 -361.0 388.75 -360.1 L388.7 -360.05 389.5 -359.15 390.6 -357.35 Q391.3 -355.6 391.05 -353.6 L390.7 -352.25 390.45 -351.45 390.65 -351.35 391.45 -350.4 392.55 -348.65 Q393.3 -346.85 393.05 -344.85 L392.7 -343.55 Q392.1 -341.35 390.2 -339.9 388.8 -338.8 387.3 -338.45 387.75 -337.0 387.55 -335.35 L387.4 -334.2 387.3 -333.95 387.05 -333.2 Q386.35 -331.6 384.85 -330.45 L384.75 -330.35 Q382.85 -328.85 380.55 -328.7 L380.45 -328.7 379.2 -328.75 378.6 -328.8 377.65 -329.1 Q376.2 -329.55 375.15 -330.6 L374.9 -329.85 Q374.15 -328.2 372.55 -327.05 371.65 -326.25 370.6 -325.85 L368.45 -325.4 368.35 -325.4 367.05 -325.45 366.5 -325.5 Q363.8 -326.05 362.05 -328.3 L361.9 -328.4 361.8 -328.65 Q361.15 -329.5 360.85 -330.4 L360.6 -330.4 Q358.2 -330.7 356.3 -332.05 L354.65 -331.8 354.55 -331.8 353.25 -331.85 352.7 -331.9 Q350.05 -332.45 348.3 -334.65 L348.15 -334.8 348.0 -335.05 Q347.35 -335.85 347.05 -336.8 L346.95 -337.15 Q346.7 -337.9 346.7 -338.8 L346.7 -340.15 346.75 -340.4 346.75 -340.45 345.85 -341.5 345.7 -341.65 Q343.9 -344.0 344.25 -347.05 L344.3 -347.25 344.2 -347.35 343.65 -348.1 342.4 -348.2 Q339.3 -348.55 337.35 -351.0 L337.25 -351.1 Q335.45 -353.5 335.8 -356.55 336.2 -359.6 338.6 -361.55 L339.25 -361.95 338.95 -363.9 339.0 -365.05 339.0 -365.3 339.3 -366.4 339.8 -367.8 340.2 -368.35 341.85 -370.05 Q342.3 -370.5 342.95 -370.8 343.95 -371.4 345.15 -371.6 L345.35 -371.6 345.6 -371.6 345.8 -371.65 346.25 -371.7 346.45 -371.7 Q346.4 -372.35 346.5 -373.0 L346.5 -373.25 Q346.65 -374.6 347.3 -375.8 L347.65 -376.4 Q348.3 -377.35 349.3 -378.1 350.85 -379.25 352.6 -379.55 L352.8 -379.55 353.05 -379.6 353.25 -379.6 353.65 -379.65 354.85 -379.6 355.15 -379.55 356.1 -379.4 Q357.8 -378.9 359.0 -377.7 L359.15 -377.55 359.95 -378.35 Q361.5 -379.55 363.3 -379.85 L363.55 -379.8 363.8 -379.9 363.95 -379.85 364.35 -379.9 365.5 -379.9 365.85 -379.85 366.8 -379.65 Q368.4 -379.2 369.65 -378.0 L370.15 -378.7 371.0 -379.45 371.15 -379.55 Q372.65 -380.65 374.35 -380.95 L374.55 -380.95 374.8 -381.0 374.95 -381.0 375.45 -381.1 376.55 -381.0 376.85 -381.0 377.8 -380.8 Q379.45 -380.25 380.75 -379.1 L381.05 -378.8 381.55 -378.2 382.4 -376.85 382.6 -376.35 382.85 -375.75 383.1 -374.6 383.1 -373.4 383.25 -373.45 383.4 -373.5 383.85 -373.5 385.05 -373.45 385.35 -373.4 386.3 -373.25 387.95 -372.5" fill="#7d6c93" fill-opacity="0.34901962" fill-rule="evenodd" stroke="none"/>
    <path d="M280.4 -441.3 L280.9 -440.55 280.95 -440.55 281.05 -440.65 281.25 -440.85 282.1 -441.2 282.3 -441.35 282.95 -441.55 284.35 -441.65 285.45 -441.45 286.3 -441.2 287.4 -440.6 287.6 -440.4 288.1 -440.1 288.55 -439.5 289.3 -438.15 289.4 -437.8 289.55 -437.35 289.6 -437.2 289.7 -436.55 289.75 -435.9 Q289.7 -434.9 289.25 -433.9 L289.2 -433.85 290.05 -433.55 291.4 -432.75 Q292.55 -431.9 293.05 -430.55 L293.35 -429.55 293.45 -428.95 293.6 -428.95 294.45 -428.6 295.8 -427.8 Q296.95 -426.95 297.45 -425.6 L297.75 -424.55 Q298.15 -422.95 297.4 -421.35 296.95 -420.15 296.05 -419.3 L297.35 -417.4 297.6 -416.65 297.65 -416.45 297.7 -415.8 Q297.9 -414.55 297.35 -413.3 L297.3 -413.15 Q296.65 -411.55 295.15 -410.65 294.7 -410.35 294.25 -410.15 L293.85 -410.05 293.15 -409.9 Q292.05 -409.65 291.0 -409.9 L291.1 -409.35 Q291.15 -408.0 290.6 -406.65 L289.75 -405.2 288.5 -404.15 288.4 -404.1 287.55 -403.75 287.15 -403.55 283.4 -403.75 283.2 -403.75 283.0 -403.9 281.8 -404.7 281.65 -404.65 Q279.95 -403.95 278.25 -404.05 L277.3 -403.4 277.25 -403.35 Q276.8 -403.05 276.35 -402.9 L275.95 -402.75 272.1 -402.9 271.95 -403.0 271.8 -403.05 Q271.1 -403.4 270.55 -403.9 L270.35 -404.05 Q269.9 -404.5 269.6 -405.05 L269.15 -405.95 269.1 -406.1 269.05 -406.15 268.05 -406.5 267.95 -406.6 Q265.9 -407.4 265.1 -409.5 L265.0 -409.7 264.95 -409.7 Q264.6 -409.8 264.3 -410.05 L263.45 -409.6 Q261.3 -408.7 259.2 -409.6 L259.05 -409.7 Q257.05 -410.55 256.25 -412.7 255.35 -414.75 256.25 -416.9 L256.5 -417.4 255.6 -418.6 255.25 -419.3 255.15 -419.5 254.9 -420.3 254.8 -421.35 254.8 -421.9 Q254.95 -422.75 255.25 -423.6 L255.7 -424.45 256.9 -425.7 257.0 -425.8 257.15 -425.95 257.25 -426.0 257.55 -426.25 257.7 -426.3 257.25 -427.15 257.15 -427.3 Q256.75 -428.25 256.75 -429.25 L256.8 -429.85 257.25 -431.45 Q257.85 -432.75 258.85 -433.6 L258.95 -433.65 259.2 -433.85 259.25 -433.9 259.5 -434.05 260.25 -434.5 260.5 -434.55 261.2 -434.75 263.65 -434.7 263.85 -434.65 264.1 -435.4 Q264.6 -436.75 265.75 -437.6 L265.85 -437.65 265.95 -437.8 266.1 -437.85 266.35 -438.05 267.1 -438.45 267.35 -438.55 268.0 -438.75 270.45 -438.65 270.5 -439.3 270.85 -440.1 270.9 -440.2 Q271.45 -441.5 272.45 -442.25 L272.6 -442.35 272.7 -442.45 272.8 -442.5 273.15 -442.7 273.85 -443.15 274.1 -443.2 274.8 -443.4 277.3 -443.35 277.55 -443.25 278.15 -443.05 279.15 -442.5 279.45 -442.25 279.8 -441.95 280.4 -441.3" fill="#7d6c93" fill-opacity="0.2" fill-rule="evenodd" stroke="none"/>
    <path d="M-147.15 -320.3 L-146.75 -319.1 -146.5 -317.7 -146.4 -317.75 -146.2 -317.8 -145.7 -317.9 -144.4 -318.0 -144.05 -318.0 -142.95 -317.9 Q-141.0 -317.6 -139.45 -316.35 L-138.4 -315.5 -137.25 -314.15 -136.9 -313.6 -136.6 -312.9 -136.2 -311.75 Q-135.9 -310.65 -135.9 -309.45 L-135.95 -308.5 -135.25 -307.95 -134.1 -306.55 -133.8 -306.05 -133.45 -305.35 -133.05 -304.15 -132.75 -302.8 -132.7 -302.85 -132.5 -302.85 -132.0 -302.95 -130.7 -303.05 -130.35 -303.05 -129.25 -302.95 Q-128.15 -302.8 -127.25 -302.35 -126.45 -302.0 -125.75 -301.45 L-124.7 -300.55 -123.55 -299.15 -123.2 -298.65 -122.9 -298.0 -122.5 -296.75 Q-122.2 -295.7 -122.2 -294.5 L-122.2 -293.95 -122.25 -293.25 -122.3 -292.9 -122.5 -292.05 -122.9 -291.0 Q-123.55 -289.65 -124.7 -288.55 L-124.75 -288.45 -123.75 -287.55 Q-122.85 -286.7 -122.25 -285.65 -121.2 -283.75 -121.2 -281.55 L-121.4 -279.95 -121.55 -279.05 -121.35 -278.9 -120.35 -278.0 -118.85 -276.1 Q-117.8 -274.2 -117.8 -271.95 -117.8 -271.15 -117.95 -270.35 -118.4 -267.85 -120.35 -265.95 -121.7 -264.55 -123.4 -263.9 -122.75 -262.3 -122.75 -260.45 L-122.8 -259.2 -122.85 -258.85 -123.05 -257.95 Q-123.6 -256.05 -125.1 -254.55 L-125.2 -254.45 Q-127.1 -252.5 -129.7 -252.05 L-129.8 -252.05 -131.2 -251.95 -131.9 -251.95 -133.0 -252.1 Q-132.75 -251.05 -132.75 -249.9 L-132.8 -248.6 -132.9 -248.3 -133.05 -247.4 Q-133.65 -245.45 -135.25 -243.85 -137.15 -241.95 -139.7 -241.45 L-139.8 -241.45 -141.25 -241.4 -141.9 -241.4 Q-144.25 -241.55 -146.15 -242.9 L-146.3 -242.0 Q-146.9 -240.05 -148.5 -238.45 -150.4 -236.55 -152.95 -236.05 L-153.05 -236.05 -154.5 -236.0 -155.15 -236.0 Q-158.3 -236.25 -160.5 -238.45 L-160.7 -238.65 -160.9 -238.85 -161.05 -238.75 Q-162.95 -236.8 -165.5 -236.3 L-165.6 -236.3 -167.0 -236.25 -167.7 -236.25 Q-170.05 -236.4 -171.9 -237.75 L-172.1 -236.85 Q-172.65 -234.9 -174.25 -233.35 -175.25 -232.35 -176.3 -231.7 L-178.7 -230.9 -178.75 -230.9 -178.85 -230.9 -180.25 -230.8 -180.95 -230.8 Q-184.05 -231.05 -186.3 -233.35 L-186.45 -233.45 -186.65 -233.65 -188.0 -235.6 -188.25 -235.6 Q-191.0 -235.6 -193.3 -236.85 L-195.1 -236.3 -195.2 -236.3 -196.65 -236.2 -197.35 -236.2 Q-200.4 -236.45 -202.7 -238.7 L-202.8 -238.85 -203.05 -239.05 Q-203.9 -239.95 -204.35 -240.95 L-204.5 -241.25 -205.05 -243.15 -205.2 -244.7 -205.2 -244.9 -205.2 -245.05 -206.4 -246.05 -206.55 -246.2 Q-208.9 -248.65 -208.9 -252.1 L-208.9 -252.3 -209.05 -252.45 -209.75 -253.25 -211.2 -253.15 Q-214.7 -253.15 -217.2 -255.65 L-217.35 -255.75 Q-219.7 -258.2 -219.7 -261.65 -219.7 -265.15 -217.2 -267.7 L-216.55 -268.3 Q-217.25 -269.85 -217.25 -271.7 L-217.25 -271.95 -217.1 -273.25 Q-219.95 -273.6 -222.1 -275.75 L-222.25 -275.9 Q-224.6 -278.35 -224.6 -281.75 -224.6 -285.25 -222.1 -287.8 L-221.45 -288.35 Q-222.1 -289.95 -222.1 -291.8 L-222.1 -292.05 Q-222.1 -293.65 -221.55 -295.0 L-221.2 -295.7 -219.6 -297.85 -218.45 -298.8 Q-217.35 -299.6 -216.05 -299.95 L-215.8 -300.0 -215.55 -300.1 -215.4 -300.15 -214.9 -300.25 -214.65 -300.25 -214.75 -301.8 -214.75 -302.05 Q-214.7 -303.7 -214.2 -305.0 L-213.85 -305.75 Q-213.25 -306.9 -212.25 -307.85 L-211.0 -308.9 -211.1 -310.2 -211.1 -310.45 -210.95 -311.75 -210.55 -313.4 -210.15 -314.15 -208.6 -316.25 -207.45 -317.15 Q-206.35 -318.0 -205.05 -318.35 L-204.8 -318.4 -204.55 -318.5 -204.35 -318.5 -203.9 -318.65 -203.65 -318.7 -203.75 -320.2 -203.75 -320.45 Q-203.7 -322.05 -203.2 -323.4 L-202.8 -324.15 -201.25 -326.3 Q-199.7 -327.8 -197.7 -328.4 L-197.45 -328.45 -197.15 -328.5 -197.0 -328.55 -196.5 -328.65 -195.2 -328.75 -194.85 -328.75 -193.75 -328.65 Q-191.8 -328.35 -190.2 -327.15 L-190.1 -327.05 -189.25 -328.0 Q-187.7 -329.55 -185.7 -330.1 L-185.45 -330.15 -185.2 -330.25 -185.0 -330.3 -184.5 -330.4 -183.2 -330.5 -182.85 -330.5 -181.75 -330.4 Q-179.9 -330.1 -178.3 -328.95 L-177.8 -329.75 -176.95 -330.7 -176.75 -330.9 Q-175.3 -332.3 -173.45 -332.8 L-173.2 -332.85 -172.9 -333.0 -172.7 -333.0 -172.2 -333.1 -170.9 -333.2 -170.55 -333.2 -169.45 -333.1 Q-167.5 -332.8 -165.9 -331.6 L-164.9 -330.7 -163.75 -329.3 -163.45 -328.8 -163.1 -328.15 -162.65 -326.95 -162.45 -325.55 -162.35 -325.6 -162.15 -325.65 -161.65 -325.75 -160.35 -325.85 -160.0 -325.85 -158.9 -325.75 -156.9 -325.15 -156.75 -325.2 -156.25 -325.25 -154.95 -325.4 -154.6 -325.4 -153.55 -325.25 Q-151.6 -325.0 -150.0 -323.75 L-148.95 -322.85 -147.8 -321.5 -147.45 -320.95 -147.15 -320.3" fill="#7d6c93" fill-opacity="0.49803922" fill-rule="evenodd" stroke="none"/>
    <path d="M-248.25 -334.95 L-247.0 -333.95 -246.2 -333.05 -245.3 -331.7 -245.1 -331.25 -244.85 -330.6 -244.6 -329.55 -244.6 -327.55 -244.7 -327.05 -244.8 -326.4 -244.9 -326.15 -245.15 -325.4 -245.6 -324.5 Q-246.3 -323.45 -247.45 -322.55 L-247.5 -322.5 -246.7 -321.6 -245.6 -319.8 Q-244.9 -318.05 -245.15 -316.05 -245.25 -315.35 -245.5 -314.7 L-245.75 -313.9 -245.55 -313.8 -244.75 -312.85 Q-244.05 -312.05 -243.65 -311.1 -242.9 -309.3 -243.15 -307.3 -243.25 -306.6 -243.5 -306.0 -244.1 -303.8 -246.0 -302.35 -247.4 -301.25 -248.9 -300.9 -248.45 -299.45 -248.65 -297.8 L-248.8 -296.65 -248.9 -296.4 -249.15 -295.65 Q-249.85 -294.05 -251.35 -292.9 L-251.45 -292.8 Q-253.35 -291.3 -255.65 -291.15 L-255.75 -291.15 -257.0 -291.2 -257.6 -291.25 -258.55 -291.55 Q-260.0 -292.0 -261.05 -293.05 L-261.3 -292.3 Q-262.05 -290.65 -263.65 -289.5 L-265.6 -288.3 Q-266.65 -287.9 -267.75 -287.85 L-267.85 -287.85 -269.15 -287.9 -269.7 -287.95 Q-272.4 -288.5 -274.15 -290.75 L-274.3 -290.85 -274.4 -291.1 Q-275.05 -291.95 -275.35 -292.85 L-275.6 -292.85 Q-278.0 -293.15 -279.9 -294.5 L-281.55 -294.25 -281.65 -294.25 -282.95 -294.3 -283.5 -294.35 Q-286.15 -294.9 -287.9 -297.1 L-288.05 -297.25 -288.2 -297.5 Q-288.85 -298.3 -289.15 -299.25 L-289.25 -299.6 -289.5 -301.25 -289.5 -302.6 -289.45 -302.85 -289.45 -302.9 -290.35 -303.95 -290.5 -304.1 Q-292.3 -306.45 -291.95 -309.5 L-291.9 -309.7 -292.0 -309.8 -292.55 -310.55 -293.8 -310.65 Q-296.9 -311.0 -298.85 -313.45 L-298.95 -313.55 Q-300.75 -315.95 -300.4 -319.0 -300.0 -322.05 -297.6 -324.0 L-296.95 -324.4 -297.25 -326.35 -297.2 -327.5 -297.2 -327.75 -296.9 -328.85 -296.4 -330.25 -296.0 -330.8 -294.35 -332.5 -293.25 -333.25 Q-292.25 -333.85 -291.05 -334.05 L-290.85 -334.05 -290.6 -334.05 -290.4 -334.1 -289.95 -334.15 -289.75 -334.15 -289.7 -335.45 -289.7 -335.7 Q-289.55 -337.05 -288.9 -338.25 L-288.55 -338.85 -286.9 -340.55 Q-285.35 -341.7 -283.6 -342.0 L-283.4 -342.0 -283.15 -342.05 -282.95 -342.05 -282.55 -342.1 -281.35 -342.05 -281.05 -342.0 -280.1 -341.85 Q-278.4 -341.35 -277.2 -340.15 L-277.05 -340.0 -276.25 -340.8 Q-274.7 -342.0 -272.9 -342.3 L-272.65 -342.25 -272.4 -342.35 -272.25 -342.3 -271.85 -342.35 -270.7 -342.35 -270.35 -342.3 -269.4 -342.1 Q-267.8 -341.65 -266.55 -340.45 L-266.05 -341.15 -265.2 -341.9 -265.05 -342.0 Q-263.55 -343.1 -261.85 -343.4 L-261.65 -343.4 -261.4 -343.45 -261.25 -343.45 -260.75 -343.55 -259.65 -343.45 -259.35 -343.45 -258.4 -343.25 Q-256.75 -342.7 -255.45 -341.55 L-255.15 -341.25 -254.65 -340.65 -253.8 -339.3 -253.6 -338.8 -253.35 -338.2 -253.1 -337.05 -253.1 -335.85 -252.95 -335.9 -252.8 -335.95 -252.35 -335.95 -251.15 -335.9 -250.85 -335.85 -249.9 -335.7 -248.25 -334.95" fill="#7d6c93" fill-opacity="0.34901962" fill-rule="evenodd" stroke="none"/>
    <path d="M-140.45 -380.2 L-139.95 -379.45 -139.9 -379.45 -139.8 -379.55 -139.6 -379.75 -138.75 -380.1 -138.55 -380.25 -137.9 -380.45 -136.5 -380.55 -135.4 -380.35 -134.55 -380.1 -133.45 -379.5 -133.25 -379.3 -132.75 -379.0 -132.3 -378.4 -131.55 -377.05 -131.45 -376.7 -131.3 -376.25 -131.25 -376.1 -131.15 -375.45 -131.1 -374.8 Q-131.15 -373.8 -131.6 -372.8 L-131.65 -372.75 -130.8 -372.45 Q-130.05 -372.15 -129.45 -371.65 -128.3 -370.8 -127.8 -369.45 L-127.5 -368.45 -127.4 -367.85 -127.25 -367.85 -126.4 -367.5 -125.05 -366.7 Q-123.9 -365.85 -123.4 -364.5 L-123.1 -363.45 Q-122.7 -361.85 -123.45 -360.25 -123.9 -359.05 -124.8 -358.2 -124.0 -357.45 -123.5 -356.3 L-123.25 -355.55 -123.2 -355.35 -123.15 -354.7 Q-122.95 -353.45 -123.5 -352.2 L-123.55 -352.05 Q-124.2 -350.45 -125.7 -349.55 L-126.6 -349.05 -127.0 -348.95 -127.7 -348.8 Q-128.8 -348.55 -129.85 -348.8 L-129.75 -348.25 Q-129.7 -346.9 -130.25 -345.55 -130.6 -344.75 -131.1 -344.1 L-132.35 -343.05 -132.45 -343.0 -133.3 -342.65 -133.7 -342.45 -137.45 -342.65 -137.65 -342.65 -137.85 -342.8 -139.05 -343.6 -139.2 -343.55 Q-140.9 -342.85 -142.6 -342.95 L-143.55 -342.3 -143.6 -342.25 Q-144.05 -341.95 -144.5 -341.8 L-144.9 -341.65 -148.75 -341.8 -148.9 -341.9 -149.05 -341.95 Q-149.75 -342.3 -150.3 -342.8 L-150.5 -342.95 -151.25 -343.95 -151.7 -344.85 -151.75 -345.0 -151.8 -345.05 -152.8 -345.4 -152.9 -345.5 Q-154.95 -346.3 -155.75 -348.4 L-155.85 -348.6 -155.9 -348.6 -156.55 -348.95 Q-156.95 -348.65 -157.4 -348.5 -159.55 -347.6 -161.65 -348.5 L-161.8 -348.6 Q-163.8 -349.45 -164.6 -351.6 -165.5 -353.65 -164.6 -355.8 L-164.35 -356.3 -165.25 -357.5 -165.6 -358.2 -165.7 -358.4 -165.95 -359.2 -166.05 -360.25 -166.05 -360.8 -165.6 -362.5 -165.15 -363.35 -163.95 -364.6 -163.85 -364.7 -163.7 -364.85 -163.6 -364.9 -163.3 -365.15 -163.15 -365.2 -163.6 -366.05 -163.7 -366.2 Q-164.1 -367.15 -164.1 -368.15 L-164.05 -368.75 -163.6 -370.35 Q-163.0 -371.65 -162.0 -372.5 L-161.9 -372.55 -161.65 -372.75 -161.6 -372.8 -161.35 -372.95 -160.6 -373.4 -160.35 -373.45 -159.65 -373.65 -157.2 -373.6 -157.0 -373.55 -156.75 -374.3 Q-156.25 -375.65 -155.1 -376.5 L-155.0 -376.55 -154.9 -376.7 -154.75 -376.75 -154.5 -376.95 -153.75 -377.35 -153.5 -377.45 -152.85 -377.65 -150.4 -377.55 -150.35 -378.2 -150.0 -379.0 -149.95 -379.1 Q-149.4 -380.4 -148.4 -381.15 L-148.25 -381.25 -148.15 -381.35 -148.05 -381.4 -147.7 -381.6 -147.0 -382.05 -146.75 -382.1 -146.05 -382.3 -143.55 -382.25 -143.3 -382.15 -142.7 -381.95 -141.7 -381.4 -141.4 -381.15 -141.05 -380.85 -140.45 -380.2" fill="#7d6c93" fill-opacity="0.2" fill-rule="evenodd" stroke="none"/>
  </g>
</svg>
