<?xml version="1.0" encoding="UTF-8" standalone="no"?>
<svg xmlns:ffdec="https://www.free-decompiler.com/flash" xmlns:xlink="http://www.w3.org/1999/xlink" ffdec:objectType="shape" height="152.25px" width="680.3px" xmlns="http://www.w3.org/2000/svg">
  <g transform="matrix(1.0, 0.0, 0.0, 1.0, 263.5, 412.3)">
    <path d="M325.85 -400.6 L326.1 -400.7 326.25 -400.7 326.65 -400.8 327.7 -400.85 327.95 -400.85 328.85 -400.8 Q330.35 -400.55 331.65 -399.6 L332.45 -398.9 333.35 -397.8 333.6 -397.4 333.85 -396.85 334.2 -395.9 334.35 -394.8 334.45 -394.85 334.6 -394.9 335.0 -394.95 336.05 -395.05 336.3 -395.05 337.2 -394.95 338.75 -394.5 338.9 -394.55 339.3 -394.55 340.3 -394.7 340.6 -394.7 341.4 -394.55 Q342.95 -394.35 344.25 -393.4 L345.05 -392.65 346.0 -391.6 346.25 -391.15 346.5 -390.65 346.8 -389.7 347.0 -388.6 347.1 -388.65 347.25 -388.65 347.65 -388.75 348.65 -388.8 348.95 -388.8 349.8 -388.75 Q351.35 -388.5 352.6 -387.5 L353.45 -386.85 354.35 -385.8 354.6 -385.35 354.85 -384.8 355.15 -383.85 355.4 -382.05 355.35 -381.3 355.9 -380.85 356.85 -379.75 357.05 -379.35 357.35 -378.8 357.65 -377.85 357.9 -376.8 357.95 -376.8 358.1 -376.8 358.5 -376.9 359.55 -377.0 359.8 -377.0 360.65 -376.9 362.25 -376.45 363.45 -375.7 364.3 -375.0 365.2 -373.9 365.45 -373.5 365.7 -373.0 366.0 -372.0 366.25 -370.2 366.25 -369.75 366.2 -369.2 366.2 -368.95 366.0 -368.25 365.7 -367.45 Q365.2 -366.35 364.3 -365.5 L364.25 -365.4 365.05 -364.7 366.2 -363.2 Q367.05 -361.7 367.05 -359.95 L366.9 -358.7 366.75 -357.95 366.95 -357.85 367.7 -357.15 368.9 -355.65 Q369.75 -354.15 369.75 -352.35 L369.6 -351.1 Q369.25 -349.1 367.7 -347.6 366.65 -346.5 365.3 -345.95 365.8 -344.7 365.8 -343.25 L365.8 -342.25 365.75 -341.95 365.6 -341.25 Q365.15 -339.75 363.95 -338.55 L363.9 -338.5 Q362.4 -336.95 360.3 -336.6 L360.25 -336.6 359.15 -336.5 358.55 -336.5 357.7 -336.6 357.9 -334.9 357.85 -333.85 357.8 -333.6 357.65 -332.9 Q357.2 -331.35 355.9 -330.1 354.4 -328.6 352.4 -328.2 L352.3 -328.2 351.15 -328.15 350.65 -328.15 Q348.8 -328.25 347.3 -329.35 L347.15 -328.6 Q346.7 -327.1 345.45 -325.8 343.9 -324.3 341.9 -323.9 L341.8 -323.9 340.65 -323.85 340.15 -323.85 Q337.65 -324.05 335.9 -325.8 L335.75 -325.95 335.6 -326.15 335.5 -326.05 Q334.0 -324.5 331.95 -324.1 L331.9 -324.1 330.75 -324.05 330.2 -324.05 Q328.35 -324.2 326.9 -325.25 L326.75 -324.55 Q326.3 -323.0 325.05 -321.75 L323.4 -320.45 321.5 -319.85 321.4 -319.85 320.3 -319.75 319.7 -319.75 Q317.25 -319.95 315.5 -321.75 L315.35 -321.85 315.2 -322.0 Q314.55 -322.7 314.15 -323.55 L313.95 -323.55 Q311.75 -323.55 309.95 -324.55 L308.5 -324.1 308.45 -324.1 307.3 -324.05 306.75 -324.05 Q304.3 -324.25 302.5 -326.0 L302.4 -326.15 302.2 -326.3 Q301.55 -327.0 301.2 -327.8 L301.05 -328.05 300.65 -329.55 Q300.5 -330.1 300.5 -330.75 L300.5 -330.9 300.5 -331.05 299.55 -331.85 299.45 -331.95 Q297.6 -333.9 297.6 -336.6 L297.6 -336.8 297.45 -336.9 296.9 -337.55 295.75 -337.45 Q293.0 -337.45 291.0 -339.45 L290.9 -339.5 Q289.05 -341.45 289.05 -344.2 289.05 -346.95 291.0 -349.0 L291.5 -349.45 Q290.95 -350.7 290.95 -352.15 L290.95 -352.35 Q290.95 -352.95 291.1 -353.4 288.85 -353.65 287.1 -355.35 L287.0 -355.5 Q285.15 -357.4 285.15 -360.1 285.15 -362.9 287.1 -364.9 L287.65 -365.35 Q287.1 -366.6 287.1 -368.05 L287.1 -368.25 Q287.1 -369.55 287.55 -370.6 L287.85 -371.15 Q288.3 -372.05 289.1 -372.85 L290.0 -373.6 Q290.9 -374.25 291.9 -374.55 L292.1 -374.55 292.3 -374.65 292.45 -374.7 292.85 -374.75 293.05 -374.75 292.95 -376.0 292.95 -376.2 Q293.0 -377.5 293.4 -378.55 L293.65 -379.1 Q294.15 -380.05 294.95 -380.8 295.35 -381.3 295.9 -381.6 L295.85 -382.65 295.85 -382.85 295.95 -383.85 296.25 -385.2 296.6 -385.8 297.8 -387.45 298.75 -388.15 Q299.6 -388.8 300.65 -389.1 L300.85 -389.15 301.05 -389.2 301.2 -389.2 301.55 -389.35 301.75 -389.4 301.65 -390.55 301.65 -390.75 Q301.7 -392.05 302.1 -393.1 L302.4 -393.7 303.65 -395.4 Q304.85 -396.6 306.45 -397.05 L306.65 -397.1 306.9 -397.15 307.0 -397.2 307.4 -397.25 308.45 -397.35 308.7 -397.35 309.6 -397.25 Q311.15 -397.0 312.4 -396.05 L312.45 -396.0 313.15 -396.75 Q314.35 -397.95 315.95 -398.4 L316.15 -398.45 316.35 -398.55 316.5 -398.55 316.9 -398.65 317.95 -398.75 318.2 -398.75 319.1 -398.65 Q320.55 -398.4 321.8 -397.5 L322.2 -398.15 322.9 -398.9 323.05 -399.05 Q324.2 -400.15 325.65 -400.55 L325.85 -400.6" fill="#7d6c93" fill-opacity="0.34901962" fill-rule="evenodd" stroke="none"/>
    <path d="M384.1 -405.3 L384.8 -405.75 386.2 -406.25 386.35 -406.25 386.5 -406.25 386.6 -406.3 386.9 -406.35 387.05 -406.35 387.05 -407.15 387.05 -407.3 Q387.15 -408.2 387.6 -408.95 L387.8 -409.35 388.85 -410.4 Q389.85 -411.15 390.95 -411.35 L391.1 -411.35 391.25 -411.35 391.35 -411.35 391.65 -411.4 392.4 -411.35 392.6 -411.35 393.2 -411.25 Q394.25 -410.9 395.05 -410.15 L395.15 -410.05 395.65 -410.55 Q396.65 -411.35 397.8 -411.55 L397.95 -411.5 398.1 -411.55 398.2 -411.55 398.45 -411.55 399.2 -411.55 399.4 -411.55 400.0 -411.4 Q401.05 -411.1 401.8 -410.35 L402.15 -410.8 402.7 -411.25 402.8 -411.35 Q403.75 -412.05 404.8 -412.25 L404.95 -412.25 405.1 -412.25 405.2 -412.25 405.5 -412.3 406.2 -412.25 406.4 -412.25 407.0 -412.15 Q408.05 -411.8 408.9 -411.05 L409.1 -410.85 409.4 -410.45 409.95 -409.6 410.1 -409.3 410.25 -408.9 410.4 -408.2 410.4 -407.4 410.5 -407.45 410.6 -407.5 410.85 -407.5 411.65 -407.45 411.85 -407.4 412.45 -407.3 413.5 -406.85 414.3 -406.2 414.8 -405.65 415.35 -404.75 415.5 -404.5 415.65 -404.05 415.8 -403.4 415.8 -402.1 415.75 -401.8 415.7 -401.4 415.6 -401.25 415.45 -400.75 415.2 -400.2 414.0 -398.95 413.95 -398.9 414.5 -398.35 415.2 -397.2 Q415.6 -396.05 415.45 -394.8 L415.25 -393.95 415.1 -393.45 415.2 -393.35 415.7 -392.75 416.4 -391.65 Q416.9 -390.5 416.75 -389.2 L416.5 -388.4 Q416.15 -387.0 414.9 -386.05 414.05 -385.35 413.05 -385.15 413.35 -384.2 413.25 -383.15 L413.15 -382.45 413.05 -382.25 412.9 -381.8 Q412.45 -380.75 411.5 -380.05 L411.45 -380.0 Q410.25 -379.0 408.75 -378.95 L408.7 -378.95 407.9 -378.95 407.55 -379.0 406.9 -379.2 Q406.0 -379.45 405.35 -380.15 L405.15 -379.65 Q404.7 -378.6 403.65 -377.9 L402.45 -377.1 401.05 -376.8 401.0 -376.8 400.15 -376.85 399.8 -376.9 Q398.1 -377.25 397.0 -378.65 L396.9 -378.75 396.8 -378.9 396.2 -380.0 396.05 -380.0 Q394.55 -380.2 393.3 -381.05 L392.25 -380.9 392.2 -380.9 391.35 -380.95 391.0 -380.95 Q389.35 -381.3 388.2 -382.7 L388.1 -382.8 388.05 -382.95 387.4 -384.1 387.35 -384.3 Q387.2 -384.8 387.2 -385.35 L387.2 -386.2 387.25 -386.4 386.65 -387.1 386.55 -387.2 Q385.4 -388.7 385.65 -390.6 L385.65 -390.75 385.6 -390.8 385.25 -391.3 384.45 -391.35 Q382.5 -391.6 381.25 -393.15 L381.2 -393.2 Q380.05 -394.75 380.25 -396.7 380.5 -398.6 382.05 -399.85 L382.45 -400.1 382.25 -401.35 382.3 -402.1 382.3 -402.25 382.5 -402.95 382.8 -403.85 383.05 -404.2 384.1 -405.3" fill="#7d6c93" fill-opacity="0.2" fill-rule="evenodd" stroke="none"/>
    <path d="M-218.1 -350.2 L-217.8 -350.3 -217.65 -350.3 -217.2 -350.45 -216.05 -350.5 -215.75 -350.5 -214.75 -350.45 Q-213.1 -350.15 -211.65 -349.1 L-210.75 -348.3 -209.75 -347.1 -209.45 -346.65 -209.2 -346.05 -208.8 -344.95 -208.6 -343.75 -208.5 -343.8 -208.35 -343.85 -207.9 -343.9 -206.75 -344.0 -206.45 -344.0 -205.45 -343.9 -203.7 -343.4 -203.55 -343.45 -203.1 -343.45 -202.0 -343.65 -201.65 -343.65 -200.75 -343.45 Q-199.05 -343.25 -197.6 -342.2 L-196.7 -341.35 -195.65 -340.2 -195.35 -339.65 -195.05 -339.1 -194.75 -338.05 Q-194.55 -337.5 -194.5 -336.85 L-194.4 -336.9 -194.25 -336.9 -193.8 -337.0 -192.65 -337.05 -192.35 -337.05 -191.4 -337.0 Q-189.65 -336.7 -188.25 -335.6 L-187.3 -334.9 -186.3 -333.7 -186.05 -333.2 -185.75 -332.6 -185.4 -331.55 -185.15 -329.55 -185.2 -328.7 -184.6 -328.2 -183.55 -326.95 -183.3 -326.5 -182.95 -325.9 -182.65 -324.85 -182.35 -323.65 -182.3 -323.65 -182.15 -323.65 -181.7 -323.8 -180.5 -323.9 -180.25 -323.9 -179.3 -323.8 -177.5 -323.3 -176.15 -322.45 -175.2 -321.65 -174.2 -320.45 -173.95 -320.0 -173.65 -319.45 -173.3 -318.3 Q-173.05 -317.35 -173.05 -316.3 L-173.05 -315.8 -173.1 -315.2 -173.1 -314.9 -173.3 -314.15 -173.65 -313.25 Q-174.2 -312.0 -175.2 -311.05 L-175.3 -310.95 -174.4 -310.2 Q-173.6 -309.45 -173.1 -308.5 -172.15 -306.85 -172.15 -304.9 -172.15 -304.15 -172.3 -303.5 L-172.5 -302.65 -172.25 -302.55 -171.45 -301.75 Q-170.6 -301.0 -170.1 -300.1 -169.15 -298.4 -169.15 -296.4 L-169.3 -295.0 Q-169.7 -292.8 -171.45 -291.1 -172.6 -289.9 -174.1 -289.25 -173.55 -287.85 -173.55 -286.25 L-173.55 -285.15 -173.6 -284.8 -173.75 -284.0 Q-174.25 -282.35 -175.6 -281.0 L-175.65 -280.95 Q-177.35 -279.25 -179.7 -278.85 L-179.75 -278.85 -180.95 -278.75 -181.65 -278.75 -182.6 -278.85 -182.35 -276.95 -182.4 -275.75 -182.45 -275.5 -182.65 -274.7 Q-183.15 -273.0 -184.6 -271.6 -186.25 -269.9 -188.5 -269.45 L-188.6 -269.45 -189.9 -269.4 -190.45 -269.4 Q-192.5 -269.55 -194.2 -270.75 L-194.35 -269.9 Q-194.85 -268.25 -196.25 -266.8 -197.95 -265.1 -200.2 -264.65 L-200.3 -264.65 -201.6 -264.6 -202.15 -264.6 Q-204.95 -264.85 -206.9 -266.8 L-207.05 -266.95 -207.25 -267.2 -207.35 -267.05 Q-209.0 -265.35 -211.3 -264.9 L-211.35 -264.9 -212.65 -264.85 -213.25 -264.85 Q-215.3 -265.0 -216.95 -266.2 L-217.1 -265.4 Q-217.6 -263.65 -219.0 -262.3 -219.9 -261.45 -220.85 -260.85 L-222.95 -260.15 -223.05 -260.15 -224.3 -260.05 -224.95 -260.05 Q-227.7 -260.25 -229.65 -262.3 L-229.8 -262.4 -230.0 -262.55 -231.15 -264.3 -231.35 -264.3 Q-233.85 -264.3 -235.85 -265.4 L-237.45 -264.9 -237.5 -264.9 -238.8 -264.85 -239.4 -264.85 Q-242.15 -265.05 -244.15 -267.0 L-244.25 -267.2 -244.5 -267.35 -245.6 -269.0 -245.75 -269.3 -246.2 -271.0 -246.35 -272.3 -246.35 -272.5 -246.35 -272.65 -247.45 -273.55 -247.55 -273.65 Q-249.6 -275.85 -249.6 -278.85 L-249.6 -279.05 -249.75 -279.15 -250.4 -279.9 -251.65 -279.8 Q-254.75 -279.8 -256.95 -282.0 L-257.1 -282.05 Q-259.15 -284.25 -259.15 -287.3 -259.15 -290.4 -256.95 -292.65 L-256.4 -293.15 Q-257.0 -294.55 -257.0 -296.2 L-257.0 -296.4 -256.85 -297.55 Q-259.35 -297.85 -261.3 -299.75 L-261.45 -299.9 Q-263.5 -302.05 -263.5 -305.05 -263.5 -308.15 -261.3 -310.4 L-260.7 -310.9 Q-261.3 -312.3 -261.3 -313.9 L-261.3 -314.15 Q-261.3 -315.6 -260.8 -316.75 L-260.5 -317.35 -259.1 -319.25 -258.1 -320.1 Q-257.1 -320.85 -255.95 -321.15 L-255.75 -321.15 -255.5 -321.25 -255.35 -321.35 -254.9 -321.4 -254.7 -321.4 -254.8 -322.8 -254.8 -323.0 Q-254.75 -324.45 -254.3 -325.6 L-254.0 -326.25 -252.55 -328.15 -251.5 -329.0 -251.55 -330.2 -251.55 -330.4 -251.45 -331.55 -251.1 -333.05 -250.7 -333.7 -249.4 -335.55 -248.3 -336.35 Q-247.4 -337.05 -246.2 -337.4 L-246.0 -337.45 -245.75 -337.5 -245.6 -337.5 -245.2 -337.65 -245.0 -337.7 -245.1 -339.0 -245.1 -339.25 Q-245.05 -340.7 -244.6 -341.85 L-244.25 -342.5 -242.85 -344.4 Q-241.5 -345.75 -239.75 -346.25 L-239.5 -346.3 -239.25 -346.35 -239.1 -346.4 -238.7 -346.5 -237.5 -346.6 -237.25 -346.6 -236.2 -346.5 Q-234.5 -346.2 -233.1 -345.15 L-233.05 -345.1 -232.25 -345.9 Q-230.95 -347.25 -229.15 -347.75 L-228.9 -347.8 -228.7 -347.95 -228.55 -347.95 -228.1 -348.05 -226.9 -348.15 -226.65 -348.15 -225.65 -348.05 Q-224.0 -347.75 -222.6 -346.75 L-222.15 -347.5 -221.4 -348.3 -221.2 -348.5 Q-219.95 -349.7 -218.3 -350.15 L-218.1 -350.2" fill="#7d6c93" fill-opacity="0.34901962" fill-rule="evenodd" stroke="none"/>
    <path d="M-191.0 -367.8 L-190.3 -368.25 -188.9 -368.75 -188.75 -368.75 -188.6 -368.75 -188.5 -368.8 -188.2 -368.85 -188.05 -368.85 -188.05 -369.65 -188.05 -369.8 Q-187.95 -370.7 -187.5 -371.45 L-187.3 -371.85 -186.25 -372.9 Q-185.25 -373.65 -184.15 -373.85 L-184.0 -373.85 -183.85 -373.85 -183.75 -373.85 -183.45 -373.9 -182.7 -373.85 -182.5 -373.85 -181.9 -373.75 Q-180.85 -373.4 -180.05 -372.65 L-179.95 -372.55 -179.45 -373.05 Q-178.45 -373.85 -177.3 -374.05 L-177.15 -374.0 -177.0 -374.05 -176.9 -374.05 -176.65 -374.05 -175.9 -374.05 -175.7 -374.05 -175.1 -373.9 Q-174.05 -373.6 -173.3 -372.85 L-172.95 -373.3 -172.4 -373.75 -172.3 -373.85 Q-171.35 -374.55 -170.3 -374.75 L-170.15 -374.75 -170.0 -374.75 -169.9 -374.75 -169.6 -374.8 -168.9 -374.75 -168.7 -374.75 -168.1 -374.65 -166.2 -373.55 -166.0 -373.35 -165.7 -372.95 -165.15 -372.1 -165.0 -371.8 -164.85 -371.4 -164.7 -370.7 -164.7 -369.9 -164.6 -369.95 -164.5 -370.0 -164.25 -370.0 -163.45 -369.95 -163.25 -369.9 -162.65 -369.8 -161.6 -369.35 -160.8 -368.7 -160.3 -368.15 -159.75 -367.25 -159.6 -367.0 -159.45 -366.55 -159.3 -365.9 -159.3 -364.6 -159.35 -364.3 -159.4 -363.9 -159.5 -363.75 -159.65 -363.25 -159.9 -362.7 Q-160.35 -362.0 -161.1 -361.45 L-161.15 -361.4 -160.6 -360.85 -159.9 -359.7 Q-159.5 -358.55 -159.65 -357.3 L-159.85 -356.45 -160.0 -355.95 -159.9 -355.85 -159.4 -355.25 -158.7 -354.15 Q-158.2 -353.0 -158.35 -351.7 L-158.6 -350.9 Q-158.95 -349.5 -160.2 -348.55 -161.05 -347.85 -162.05 -347.65 -161.75 -346.7 -161.85 -345.65 L-161.95 -344.95 -162.05 -344.75 -162.2 -344.3 Q-162.65 -343.25 -163.6 -342.55 L-163.65 -342.5 Q-164.85 -341.5 -166.35 -341.45 L-166.4 -341.45 -167.2 -341.45 -167.55 -341.5 -168.2 -341.7 Q-169.1 -341.95 -169.75 -342.65 L-169.95 -342.15 Q-170.4 -341.1 -171.45 -340.4 L-172.65 -339.6 -174.05 -339.3 -174.1 -339.3 -174.95 -339.35 -175.3 -339.4 Q-177.0 -339.75 -178.1 -341.15 L-178.2 -341.25 -178.3 -341.4 -178.9 -342.5 -179.05 -342.5 Q-180.55 -342.7 -181.8 -343.55 L-182.85 -343.4 -182.9 -343.4 -183.75 -343.45 -184.1 -343.45 Q-185.75 -343.8 -186.9 -345.2 L-187.0 -345.3 -187.05 -345.45 -187.7 -346.6 -187.75 -346.8 -187.9 -347.85 -187.9 -348.7 -187.85 -348.9 -188.45 -349.6 -188.55 -349.7 Q-189.7 -351.2 -189.45 -353.1 L-189.45 -353.25 -189.5 -353.3 -189.85 -353.8 -190.65 -353.85 Q-192.6 -354.1 -193.85 -355.65 L-193.9 -355.7 Q-195.05 -357.25 -194.85 -359.2 -194.6 -361.1 -193.05 -362.35 L-192.65 -362.6 -192.85 -363.85 -192.8 -364.6 -192.8 -364.75 -192.6 -365.45 -192.3 -366.35 -192.05 -366.7 -191.0 -367.8" fill="#7d6c93" fill-opacity="0.2" fill-rule="evenodd" stroke="none"/>
  </g>
</svg>
