<?xml version="1.0" encoding="UTF-8" standalone="no"?>
<svg xmlns:ffdec="https://www.free-decompiler.com/flash" xmlns:xlink="http://www.w3.org/1999/xlink" ffdec:objectType="shape" height="68.1px" width="415.1px" xmlns="http://www.w3.org/2000/svg">
  <g transform="matrix(1.0, 0.0, 0.0, 1.0, 200.45, 213.2)">
    <path d="M164.7 -208.35 Q168.4 -212.15 173.2 -212.95 L176.15 -213.2 Q178.95 -213.2 181.5 -212.3 184.85 -211.15 187.55 -208.35 189.6 -206.2 190.8 -203.6 193.0 -204.9 195.55 -205.35 L198.45 -205.6 Q201.3 -205.6 203.8 -204.7 207.15 -203.55 209.9 -200.7 214.65 -195.75 214.65 -188.8 214.65 -181.8 209.9 -176.9 L209.15 -176.1 Q212.1 -171.85 212.1 -166.4 212.1 -159.35 207.35 -154.45 L205.55 -152.8 Q201.4 -149.55 195.9 -149.55 193.25 -149.55 190.9 -150.35 L190.6 -150.0 Q185.9 -145.1 179.15 -145.1 172.5 -145.1 167.7 -150.0 163.05 -154.9 163.05 -161.95 L163.25 -165.05 160.3 -164.75 Q153.65 -164.75 148.85 -169.65 144.15 -174.55 144.15 -181.6 144.15 -188.55 148.85 -193.5 153.55 -198.35 160.1 -198.4 L160.25 -199.5 Q160.6 -202.0 161.8 -204.2 162.8 -206.2 164.4 -207.95 L164.7 -208.35" fill="#7d6c93" fill-rule="evenodd" stroke="none"/>
    <path d="M-196.95 -179.5 Q-198.4 -181.15 -199.2 -183.15 -200.0 -184.95 -200.25 -186.95 L-200.35 -187.35 Q-200.8 -191.95 -198.65 -195.6 L-197.2 -197.65 Q-195.6 -199.55 -193.6 -200.7 -191.0 -202.25 -187.65 -202.45 L-182.75 -201.95 Q-182.35 -204.15 -181.25 -206.05 L-179.8 -208.1 Q-178.2 -210.0 -176.2 -211.15 -173.6 -212.7 -170.15 -212.95 -164.3 -213.35 -159.7 -209.45 -155.1 -205.55 -154.45 -199.7 L-154.4 -198.75 Q-149.95 -198.4 -146.3 -195.35 -141.7 -191.45 -141.1 -185.55 L-141.0 -183.45 Q-141.2 -178.95 -144.25 -175.3 -145.7 -173.55 -147.5 -172.4 L-147.5 -172.05 Q-146.85 -166.2 -150.6 -161.75 -154.3 -157.35 -160.2 -156.95 -166.0 -156.55 -170.65 -160.45 L-172.6 -162.35 Q-173.15 -161.3 -174.05 -160.25 -177.75 -155.85 -183.65 -155.4 -189.45 -155.05 -194.1 -158.95 -198.7 -162.8 -199.35 -168.65 -199.95 -174.45 -196.35 -178.85 L-196.95 -179.5" fill="#7d6c93" fill-rule="evenodd" stroke="none"/>
  </g>
</svg>
