<?xml version="1.0" encoding="UTF-8" standalone="no"?>
<svg xmlns:ffdec="https://www.free-decompiler.com/flash" xmlns:xlink="http://www.w3.org/1999/xlink" ffdec:objectType="shape" height="149.4px" width="507.6px" xmlns="http://www.w3.org/2000/svg">
  <g transform="matrix(1.0, 0.0, 0.0, 1.0, 245.45, 307.65)">
    <path d="M218.75 -265.6 L219.25 -265.75 219.55 -265.85 220.35 -266.0 222.55 -266.2 223.15 -266.2 225.0 -266.0 Q228.3 -265.45 231.0 -263.45 L232.7 -261.95 234.7 -259.6 235.2 -258.75 235.75 -257.6 236.45 -255.55 236.9 -253.25 237.05 -253.3 237.35 -253.35 238.2 -253.55 240.4 -253.7 241.0 -253.7 242.85 -253.55 Q246.15 -253.0 248.8 -251.0 L250.55 -249.5 252.5 -247.15 253.05 -246.25 253.6 -245.15 254.3 -243.1 Q254.8 -241.3 254.8 -239.3 L254.65 -237.15 254.55 -236.6 254.25 -235.1 253.6 -233.4 Q252.5 -231.05 250.55 -229.15 L250.4 -229.05 252.15 -227.55 254.65 -224.3 Q256.4 -221.15 256.4 -217.35 L256.15 -214.65 255.85 -213.15 256.2 -212.85 257.95 -211.35 260.45 -208.15 Q262.15 -205.0 262.15 -201.15 L261.95 -198.5 Q261.2 -194.25 257.95 -191.05 255.6 -188.65 252.7 -187.6 253.9 -184.9 253.9 -181.75 L253.75 -179.6 253.65 -179.05 253.35 -177.55 Q252.35 -174.2 249.65 -171.6 246.45 -168.3 242.15 -167.55 L242.05 -167.55 241.95 -167.55 239.5 -167.35 238.4 -167.35 Q234.45 -167.65 231.3 -169.9 L231.0 -168.45 Q229.95 -165.1 227.3 -162.45 224.05 -159.2 219.75 -158.4 L219.7 -158.4 219.6 -158.4 217.15 -158.25 216.0 -158.25 Q210.75 -158.65 206.95 -162.45 L206.7 -162.7 206.35 -163.05 Q205.0 -164.55 204.15 -166.3 L203.7 -166.3 Q199.0 -166.3 195.15 -168.35 193.7 -167.75 192.1 -167.5 L192.05 -167.5 191.9 -167.5 189.45 -167.3 188.35 -167.3 Q183.1 -167.7 179.25 -171.55 L179.05 -171.75 178.65 -172.15 Q177.3 -173.6 176.45 -175.35 L176.25 -175.9 Q175.55 -177.4 175.25 -179.05 L175.05 -181.65 175.05 -182.1 175.05 -182.25 Q173.95 -183.05 173.0 -184.0 L172.75 -184.25 Q168.75 -188.35 168.75 -194.15 L168.75 -194.55 168.6 -194.75 167.4 -196.1 164.95 -195.95 Q159.0 -195.95 154.75 -200.15 L154.5 -200.4 Q150.5 -204.5 150.5 -210.3 150.5 -216.25 154.75 -220.5 L155.9 -221.5 Q154.7 -224.15 154.7 -227.3 L154.7 -227.7 Q154.75 -230.4 155.65 -232.65 L156.25 -233.9 Q157.25 -235.85 158.95 -237.5 161.55 -240.1 164.9 -241.05 L165.3 -241.15 165.8 -241.3 166.1 -241.35 166.9 -241.55 167.35 -241.6 Q167.1 -242.85 167.1 -244.25 L167.1 -244.65 Q167.15 -247.35 168.05 -249.6 L168.65 -250.85 Q169.65 -252.75 171.35 -254.45 173.95 -257.05 177.3 -258.0 L177.7 -258.05 178.2 -258.25 178.5 -258.3 179.35 -258.5 181.55 -258.65 182.15 -258.65 184.0 -258.5 Q187.25 -257.95 189.95 -255.95 L190.2 -255.75 191.6 -257.35 Q194.25 -260.0 197.6 -260.95 L198.0 -261.0 198.45 -261.15 198.75 -261.25 199.6 -261.4 201.8 -261.6 202.4 -261.6 204.25 -261.4 Q207.4 -260.9 210.05 -258.95 L210.95 -260.35 212.35 -261.95 Q215.0 -264.55 218.35 -265.55 L218.75 -265.6" fill="#7d6c93" fill-opacity="0.8980392" fill-rule="evenodd" stroke="none"/>
    <path d="M214.7 -220.5 L176.7 -168.35 166.6 -175.7 204.6 -227.85 214.7 -220.5" fill="url(#gradient0)" fill-rule="evenodd" stroke="none"/>
    <path d="M202.4 -303.95 L202.9 -304.2 203.1 -304.3 203.5 -304.4 205.15 -304.35 205.25 -304.8 205.45 -305.35 205.5 -305.4 Q205.85 -306.25 206.5 -306.8 L206.65 -306.85 206.7 -306.9 206.75 -306.95 207.0 -307.1 207.5 -307.4 207.65 -307.45 208.1 -307.55 Q208.95 -307.75 209.8 -307.55 L210.0 -307.45 210.4 -307.35 211.05 -306.95 211.3 -306.8 211.5 -306.6 211.9 -306.15 212.25 -305.6 212.3 -305.65 212.35 -305.7 212.5 -305.85 213.05 -306.1 213.2 -306.2 213.65 -306.3 214.6 -306.4 215.35 -306.25 215.9 -306.05 216.65 -305.7 216.8 -305.55 217.1 -305.35 217.45 -304.9 217.95 -304.0 218.0 -303.75 218.1 -303.45 218.15 -303.35 218.2 -302.95 218.25 -302.45 217.9 -301.1 218.45 -300.9 219.4 -300.35 Q220.15 -299.75 220.5 -298.85 L220.65 -298.2 220.75 -297.8 220.85 -297.75 221.45 -297.55 222.35 -297.0 Q223.1 -296.4 223.45 -295.5 L223.65 -294.8 Q223.95 -293.75 223.45 -292.65 L222.5 -291.25 223.4 -289.95 223.55 -289.45 223.6 -289.3 223.65 -288.9 Q223.75 -288.05 223.4 -287.15 L223.35 -287.1 Q222.9 -286.0 221.9 -285.4 L221.3 -285.05 221.05 -284.95 220.55 -284.9 Q219.8 -284.7 219.1 -284.9 L219.15 -284.5 Q219.2 -283.6 218.8 -282.65 L218.25 -281.7 217.4 -281.0 217.35 -280.95 216.75 -280.7 216.5 -280.6 213.95 -280.7 213.8 -280.75 213.65 -280.8 Q213.2 -281.05 212.85 -281.35 L212.75 -281.3 210.45 -280.95 209.8 -280.45 209.15 -280.15 208.9 -280.05 206.3 -280.15 206.2 -280.2 206.1 -280.25 205.25 -280.8 205.1 -280.95 204.6 -281.6 204.3 -282.2 204.25 -282.3 204.25 -282.35 203.55 -282.6 203.5 -282.65 Q202.1 -283.2 201.55 -284.6 L201.5 -284.75 201.45 -284.75 Q201.25 -284.8 201.0 -284.95 L200.45 -284.65 Q199.0 -284.1 197.55 -284.65 L197.45 -284.75 Q196.1 -285.3 195.55 -286.75 194.95 -288.15 195.55 -289.6 L195.75 -289.95 195.1 -290.75 194.85 -291.25 194.8 -291.4 194.65 -291.95 194.6 -292.65 194.6 -293.0 194.9 -294.15 195.2 -294.75 196.0 -295.6 196.1 -295.65 196.15 -295.75 196.25 -295.8 196.45 -295.95 196.55 -296.0 196.25 -296.55 196.15 -296.7 Q195.9 -297.3 195.9 -297.95 L195.95 -298.4 196.25 -299.45 Q196.65 -300.35 197.3 -300.95 L197.4 -300.95 197.55 -301.1 197.6 -301.1 197.75 -301.25 198.3 -301.55 198.45 -301.6 198.9 -301.7 Q199.75 -301.9 200.6 -301.7 200.65 -301.6 200.7 -301.65 L200.85 -302.15 Q201.25 -303.05 202.0 -303.65 L202.1 -303.7 202.15 -303.75 202.25 -303.8 202.4 -303.95" fill="#7d6c93" fill-opacity="0.7490196" fill-rule="evenodd" stroke="none"/>
    <path d="M-220.3 -266.5 L-219.9 -267.0 -218.45 -268.45 Q-215.75 -270.95 -212.15 -271.9 L-209.65 -272.3 -206.3 -272.4 -205.2 -272.25 -203.8 -271.95 -201.6 -271.15 -199.35 -269.95 -199.25 -270.15 -199.05 -270.4 -198.7 -271.25 -197.3 -273.25 -196.85 -273.8 -195.5 -275.3 Q-192.75 -277.75 -189.2 -278.65 L-186.7 -279.1 -183.35 -279.2 -182.2 -279.05 -180.85 -278.8 -178.65 -278.0 Q-176.75 -277.15 -175.0 -275.75 L-173.25 -274.2 -172.85 -273.7 -171.75 -272.45 -170.75 -270.7 Q-169.45 -268.15 -169.2 -265.15 L-169.2 -264.95 -166.7 -265.45 -162.2 -265.35 Q-158.3 -264.7 -155.05 -262.1 -153.8 -261.15 -152.85 -260.0 L-151.75 -258.7 -151.3 -258.8 -148.75 -259.25 Q-146.5 -259.55 -144.3 -259.2 -140.45 -258.55 -137.15 -255.9 L-135.0 -253.9 Q-131.85 -250.3 -131.3 -245.3 -130.85 -241.7 -131.95 -238.45 -128.8 -237.65 -126.1 -235.5 L-124.35 -233.85 -123.95 -233.4 -122.85 -232.1 Q-120.65 -228.95 -120.3 -224.85 -119.6 -219.8 -121.95 -215.6 L-122.0 -215.55 -122.05 -215.45 -123.6 -213.2 -124.35 -212.25 Q-127.3 -209.05 -131.45 -207.9 L-130.4 -206.65 Q-128.2 -203.4 -127.75 -199.35 -127.2 -194.3 -129.45 -190.05 L-129.5 -190.0 -129.55 -189.9 -131.1 -187.7 -131.9 -186.7 Q-135.85 -182.45 -141.7 -181.85 L-142.15 -181.75 -142.65 -181.7 -147.0 -182.0 -147.3 -181.65 Q-150.5 -177.6 -154.9 -175.7 -155.4 -174.0 -156.25 -172.5 L-156.3 -172.45 -156.4 -172.3 -157.9 -170.05 -158.7 -169.1 Q-162.65 -164.9 -168.6 -164.25 L-168.9 -164.15 -169.5 -164.1 -173.8 -164.4 -174.4 -164.6 Q-176.15 -165.05 -177.8 -165.95 L-180.15 -167.5 -180.55 -167.85 -180.65 -167.95 -183.55 -167.4 -184.0 -167.35 Q-190.25 -166.7 -195.25 -170.7 L-195.6 -171.0 -195.85 -170.95 -197.85 -170.9 -199.4 -168.7 Q-203.5 -163.55 -210.0 -162.75 L-210.45 -162.75 Q-216.7 -162.1 -221.7 -166.1 -226.85 -170.2 -227.55 -176.75 L-227.6 -178.45 Q-230.75 -179.2 -233.45 -181.35 L-233.8 -181.65 Q-236.05 -183.55 -237.4 -185.85 L-238.05 -187.25 Q-239.05 -189.45 -239.25 -192.05 -239.75 -196.05 -238.3 -199.6 L-238.05 -200.05 -237.85 -200.55 -237.7 -200.8 -237.3 -201.65 -237.05 -202.1 Q-238.35 -202.75 -239.55 -203.7 L-239.85 -204.0 Q-242.15 -205.85 -243.45 -208.2 L-244.1 -209.55 Q-245.05 -211.7 -245.35 -214.35 -245.8 -218.35 -244.3 -221.9 L-244.1 -222.3 -243.95 -222.9 -243.75 -223.15 -243.35 -224.0 -241.95 -226.0 -241.55 -226.55 -240.15 -228.0 Q-237.45 -230.45 -233.9 -231.4 L-233.55 -231.45 -233.95 -233.75 Q-234.45 -237.9 -232.95 -241.45 L-232.7 -241.75 -232.55 -242.25 -232.4 -242.6 -231.95 -243.45 -230.6 -245.5 -230.2 -246.0 -228.75 -247.45 Q-226.15 -249.8 -222.7 -250.75 L-223.25 -252.45 -223.65 -254.75 Q-224.1 -258.85 -222.6 -262.45 L-222.4 -262.85 -222.2 -263.35 -222.05 -263.65 -221.65 -264.45 -220.3 -266.5" fill="#7d6c93" fill-opacity="0.8980392" fill-rule="evenodd" stroke="none"/>
    <path d="M-218.25 -228.0 L-180.25 -175.85 -170.15 -183.2 -208.15 -235.35 -218.25 -228.0" fill="url(#gradient1)" fill-rule="evenodd" stroke="none"/>
  </g>
  <defs>
    <linearGradient gradientTransform="matrix(0.0232, -0.0318, 0.0062, 0.0045, 190.65, -198.05)" gradientUnits="userSpaceOnUse" id="gradient0" spreadMethod="pad" x1="-819.2" x2="819.2">
      <stop offset="0.0" stop-color="#fd2dfd"/>
      <stop offset="0.5411764705882353" stop-color="#660099" stop-opacity="0.0"/>
    </linearGradient>
    <linearGradient gradientTransform="matrix(-0.0232, -0.0318, -0.0062, 0.0045, -194.2, -205.55)" gradientUnits="userSpaceOnUse" id="gradient1" spreadMethod="pad" x1="-819.2" x2="819.2">
      <stop offset="0.0" stop-color="#fd2dfd"/>
      <stop offset="0.5411764705882353" stop-color="#660099" stop-opacity="0.0"/>
    </linearGradient>
  </defs>
</svg>
