<?xml version="1.0" encoding="UTF-8" standalone="no"?>
<svg xmlns:ffdec="https://www.free-decompiler.com/flash" xmlns:xlink="http://www.w3.org/1999/xlink" ffdec:objectType="shape" height="220.05px" width="648.35px" xmlns="http://www.w3.org/2000/svg">
  <g transform="matrix(1.0, 0.0, 0.0, 1.0, 271.8, 345.05)">
    <path d="M226.95 -289.75 L227.4 -289.0 227.85 -288.05 228.45 -286.35 228.8 -284.4 228.95 -284.45 229.2 -284.5 229.9 -284.65 231.75 -284.8 232.25 -284.8 233.8 -284.65 236.65 -283.8 236.85 -283.85 237.55 -284.0 239.4 -284.15 239.9 -284.15 241.45 -284.0 Q244.2 -283.55 246.45 -281.85 L247.9 -280.6 249.55 -278.65 250.0 -277.9 250.45 -276.95 251.05 -275.25 251.4 -273.3 251.55 -273.35 251.8 -273.4 252.5 -273.55 254.35 -273.7 254.85 -273.7 256.4 -273.55 Q259.15 -273.1 261.4 -271.4 L262.85 -270.15 264.5 -268.2 264.95 -267.45 265.4 -266.5 266.0 -264.8 Q266.4 -263.3 266.4 -261.6 L266.35 -260.3 267.3 -259.45 268.95 -257.5 269.4 -256.75 269.85 -255.8 270.45 -254.1 270.8 -252.15 270.95 -252.2 271.2 -252.25 271.9 -252.4 273.75 -252.55 274.25 -252.55 275.8 -252.4 278.65 -251.55 280.8 -250.25 282.25 -249.0 283.9 -247.05 284.35 -246.3 284.8 -245.35 285.4 -243.65 Q285.8 -242.15 285.8 -240.45 L285.8 -239.65 285.7 -238.65 285.6 -238.2 285.35 -236.95 284.8 -235.5 Q283.9 -233.55 282.25 -231.95 L282.15 -231.85 283.6 -230.6 Q284.85 -229.35 285.7 -227.9 287.15 -225.25 287.15 -222.05 L286.95 -219.8 286.7 -218.55 287.0 -218.3 288.45 -217.05 Q289.7 -215.8 290.55 -214.35 292.0 -211.7 292.0 -208.5 L291.8 -206.25 Q291.2 -202.7 288.45 -200.0 286.5 -198.0 284.05 -197.1 285.05 -194.85 285.05 -192.2 L284.95 -190.4 284.85 -189.95 284.6 -188.7 Q283.8 -186.0 281.7 -183.85 L281.5 -183.7 Q278.8 -180.95 275.2 -180.3 L275.15 -180.3 275.05 -180.3 273.0 -180.15 272.05 -180.15 270.5 -180.35 Q270.85 -178.9 270.85 -177.25 L270.75 -175.45 270.65 -175.0 270.4 -173.75 Q269.55 -170.95 267.3 -168.75 264.6 -166.0 261.0 -165.35 L260.95 -165.35 260.85 -165.35 258.8 -165.2 257.85 -165.2 Q254.55 -165.45 251.9 -167.35 L251.65 -166.1 Q250.8 -163.3 248.55 -161.1 245.85 -158.35 242.25 -157.7 L242.2 -157.7 242.1 -157.7 240.05 -157.55 239.1 -157.55 Q234.7 -157.9 231.5 -161.1 L231.3 -161.3 231.0 -161.6 230.8 -161.45 Q228.1 -158.7 224.5 -158.05 L224.45 -158.05 224.35 -158.05 222.3 -157.9 221.35 -157.9 Q218.05 -158.15 215.4 -160.05 L215.15 -158.8 Q214.3 -156.0 212.05 -153.8 210.7 -152.45 209.15 -151.55 207.55 -150.75 205.75 -150.4 L205.7 -150.4 205.6 -150.4 203.55 -150.25 202.6 -150.25 Q198.2 -150.6 195.0 -153.8 L194.8 -154.0 194.5 -154.3 Q193.35 -155.55 192.65 -157.0 L192.3 -157.0 Q188.35 -157.0 185.1 -158.75 L182.55 -158.0 182.5 -158.0 182.4 -158.0 180.35 -157.85 179.4 -157.85 Q175.0 -158.2 171.8 -161.4 L171.6 -161.6 171.3 -161.9 Q170.15 -163.15 169.45 -164.6 L169.25 -165.05 Q168.7 -166.3 168.45 -167.7 L168.25 -169.9 168.25 -170.25 168.25 -170.4 166.55 -171.85 166.35 -172.05 Q163.0 -175.5 163.0 -180.35 L163.0 -180.7 162.85 -180.85 161.85 -182.0 159.8 -181.85 Q154.8 -181.85 151.25 -185.4 L151.05 -185.6 Q147.7 -189.05 147.7 -193.9 147.7 -198.9 151.25 -202.45 L152.2 -203.3 Q151.2 -205.5 151.2 -208.15 L151.2 -208.5 151.4 -210.35 Q147.35 -210.85 144.35 -213.85 L144.15 -214.05 Q140.8 -217.5 140.8 -222.35 140.8 -227.35 144.35 -230.9 L145.3 -231.75 Q144.3 -233.95 144.3 -236.6 L144.3 -236.95 Q144.35 -239.2 145.1 -241.1 L145.6 -242.15 Q146.45 -243.75 147.85 -245.15 148.6 -245.9 149.45 -246.5 151.0 -247.65 152.85 -248.15 L153.2 -248.2 153.6 -248.35 153.85 -248.4 154.55 -248.55 154.9 -248.6 154.7 -250.8 154.7 -251.15 Q154.75 -253.4 155.5 -255.3 L156.0 -256.35 Q156.85 -257.95 158.25 -259.35 L160.05 -260.8 Q159.9 -261.7 159.9 -262.65 L159.9 -263.0 160.1 -264.85 160.7 -267.15 161.2 -268.2 Q162.05 -269.8 163.45 -271.2 L165.05 -272.55 Q166.6 -273.7 168.45 -274.2 L168.8 -274.25 169.2 -274.4 169.45 -274.45 170.15 -274.6 170.5 -274.65 170.3 -276.85 170.3 -277.2 Q170.35 -279.45 171.1 -281.35 L171.6 -282.4 Q172.45 -284.0 173.85 -285.4 176.05 -287.6 178.85 -288.4 L179.2 -288.45 179.6 -288.6 179.85 -288.65 180.55 -288.8 182.4 -288.95 182.9 -288.95 184.45 -288.8 Q187.2 -288.35 189.45 -286.65 L189.65 -286.5 190.85 -287.85 Q193.05 -290.05 195.85 -290.85 L196.2 -290.9 196.6 -291.05 196.85 -291.1 197.55 -291.25 199.4 -291.4 199.9 -291.4 201.45 -291.25 Q204.1 -290.8 206.3 -289.2 L207.05 -290.35 208.25 -291.7 208.5 -291.95 Q210.6 -293.95 213.25 -294.7 L213.6 -294.75 214.0 -294.9 214.25 -294.95 214.95 -295.1 216.8 -295.25 217.3 -295.25 218.85 -295.1 Q221.6 -294.65 223.85 -292.95 L225.3 -291.7 226.95 -289.75" fill="#7d6c93" fill-opacity="0.8980392" fill-rule="evenodd" stroke="none"/>
    <path d="M275.85 -334.3 L276.8 -334.0 278.05 -333.35 278.3 -333.1 278.85 -332.75 279.4 -332.05 280.25 -330.5 280.4 -330.1 280.55 -329.6 280.6 -329.4 280.7 -328.7 280.8 -327.9 Q280.7 -326.75 280.2 -325.6 L280.15 -325.55 281.15 -325.25 282.7 -324.3 Q284.0 -323.3 284.6 -321.75 L284.9 -320.6 285.05 -319.95 285.2 -319.9 286.2 -319.55 287.75 -318.6 Q289.05 -317.6 289.65 -316.05 L290.0 -314.85 Q290.45 -313.05 289.6 -311.2 289.05 -309.8 288.0 -308.85 288.95 -307.95 289.5 -306.65 L289.8 -305.75 289.85 -305.55 289.95 -304.8 Q290.15 -303.35 289.5 -301.9 L289.45 -301.75 Q288.7 -299.9 287.0 -298.85 L285.95 -298.3 285.5 -298.15 284.7 -298.0 Q283.4 -297.7 282.2 -298.0 L282.35 -297.35 Q282.4 -295.8 281.75 -294.25 L280.8 -292.6 279.35 -291.4 279.25 -291.35 278.25 -290.9 277.8 -290.7 273.45 -290.9 273.25 -290.95 273.0 -291.1 Q272.2 -291.45 271.6 -292.0 L271.45 -291.95 Q269.5 -291.15 267.55 -291.3 L266.45 -290.5 266.4 -290.45 265.35 -289.95 264.9 -289.75 260.45 -289.95 260.3 -290.05 260.1 -290.15 258.7 -291.1 258.45 -291.3 257.6 -292.45 257.05 -293.45 257.0 -293.65 256.95 -293.7 255.8 -294.1 255.7 -294.2 Q253.35 -295.15 252.4 -297.55 L252.3 -297.75 252.25 -297.8 Q251.85 -297.9 251.5 -298.15 L250.5 -297.65 Q248.05 -296.65 245.6 -297.65 L245.45 -297.75 Q243.15 -298.75 242.2 -301.2 241.2 -303.6 242.2 -306.05 L242.5 -306.65 241.45 -308.0 241.05 -308.85 240.95 -309.05 240.7 -310.0 240.55 -311.2 240.55 -311.8 241.1 -313.75 241.6 -314.75 Q242.15 -315.65 242.95 -316.2 L243.1 -316.3 243.25 -316.45 243.4 -316.55 243.7 -316.8 243.9 -316.9 Q243.55 -317.3 243.35 -317.85 L243.25 -318.05 Q242.8 -319.15 242.8 -320.25 L242.85 -320.95 Q242.95 -321.85 243.35 -322.8 244.05 -324.3 245.2 -325.3 L245.35 -325.35 245.6 -325.55 245.65 -325.6 245.95 -325.8 246.85 -326.3 247.1 -326.4 247.9 -326.6 250.75 -326.55 250.95 -326.5 251.25 -327.35 Q251.85 -328.9 253.15 -329.9 L253.3 -329.95 253.4 -330.1 253.55 -330.15 253.85 -330.4 254.7 -330.85 255.0 -331.0 255.75 -331.2 258.55 -331.1 258.65 -331.85 259.0 -332.75 259.1 -332.9 Q259.7 -334.35 260.85 -335.25 L261.05 -335.35 261.15 -335.45 261.25 -335.5 261.65 -335.75 262.5 -336.25 262.75 -336.35 263.55 -336.55 266.45 -336.5 266.75 -336.4 267.4 -336.15 268.55 -335.5 268.95 -335.25 269.35 -334.9 270.0 -334.15 270.6 -333.25 270.65 -333.3 270.75 -333.4 271.0 -333.6 271.95 -334.05 272.2 -334.2 272.95 -334.4 274.55 -334.55 275.85 -334.3" fill="#7d6c93" fill-opacity="0.8" fill-rule="evenodd" stroke="none"/>
    <path d="M322.1 -334.2 L322.6 -334.25 322.85 -334.25 322.9 -335.75 322.9 -336.0 Q323.1 -337.6 323.8 -338.95 L324.25 -339.65 326.15 -341.6 Q327.9 -342.95 329.9 -343.3 L330.15 -343.25 330.45 -343.35 330.65 -343.35 331.15 -343.4 332.5 -343.35 332.85 -343.3 333.95 -343.1 Q335.9 -342.55 337.3 -341.15 L337.45 -341.0 338.4 -341.9 Q340.15 -343.25 342.25 -343.6 L342.5 -343.55 342.8 -343.7 343.0 -343.65 343.45 -343.7 344.75 -343.7 345.15 -343.65 346.25 -343.4 Q348.1 -342.85 349.55 -341.5 L350.15 -342.3 351.1 -343.15 351.3 -343.3 Q353.0 -344.55 354.95 -344.9 L355.2 -344.9 355.45 -344.95 355.65 -344.95 356.2 -345.05 357.5 -344.95 357.85 -344.95 358.95 -344.7 Q360.85 -344.1 362.35 -342.75 L362.65 -342.4 363.25 -341.7 364.2 -340.15 364.45 -339.6 364.75 -338.9 365.0 -337.6 365.05 -336.2 365.2 -336.25 365.4 -336.3 365.9 -336.3 367.25 -336.25 367.6 -336.2 368.7 -336.0 370.6 -335.15 372.05 -334.0 372.95 -333.0 374.0 -331.45 374.25 -330.9 374.5 -330.15 374.8 -328.95 374.8 -326.65 374.7 -326.05 374.55 -325.35 374.45 -325.05 374.2 -324.15 373.65 -323.15 Q372.85 -321.9 371.5 -320.9 L371.45 -320.85 372.4 -319.8 373.65 -317.7 Q374.45 -315.7 374.15 -313.4 L373.8 -311.85 373.5 -310.95 373.7 -310.8 374.65 -309.75 375.9 -307.7 Q376.75 -305.65 376.45 -303.35 L376.1 -301.85 Q375.4 -299.3 373.2 -297.65 371.6 -296.4 369.85 -296.0 370.35 -294.3 370.15 -292.4 L369.95 -291.1 369.85 -290.8 369.55 -289.95 Q368.75 -288.1 367.05 -286.75 L366.9 -286.65 Q364.75 -284.95 362.1 -284.75 L362.0 -284.75 360.55 -284.8 359.85 -284.9 358.75 -285.2 Q357.1 -285.75 355.85 -286.95 L355.6 -286.1 Q354.7 -284.2 352.9 -282.85 351.85 -281.95 350.65 -281.45 L348.15 -280.95 348.05 -280.95 346.55 -281.0 345.9 -281.1 Q342.8 -281.7 340.8 -284.3 L340.65 -284.4 340.5 -284.7 339.4 -286.7 339.15 -286.7 Q336.4 -287.05 334.2 -288.6 L332.3 -288.3 332.2 -288.3 330.7 -288.4 330.05 -288.45 Q327.0 -289.1 324.95 -291.6 L324.8 -291.8 324.65 -292.05 Q323.9 -293.0 323.55 -294.1 L323.45 -294.5 Q323.15 -295.35 323.15 -296.4 L323.15 -297.95 323.2 -298.2 323.2 -298.3 322.15 -299.5 322.0 -299.65 Q319.9 -302.35 320.3 -305.85 L320.35 -306.1 320.25 -306.2 319.6 -307.1 318.2 -307.2 Q314.6 -307.6 312.35 -310.4 L312.25 -310.55 Q310.2 -313.3 310.6 -316.8 311.05 -320.3 313.8 -322.55 L314.55 -323.05 Q314.25 -324.1 314.2 -325.25 L314.25 -326.6 314.3 -326.85 314.6 -328.15 315.2 -329.75 315.65 -330.4 317.55 -332.35 318.8 -333.2 Q320.0 -333.9 321.35 -334.1 L321.6 -334.1 321.85 -334.15 322.1 -334.2" fill="#7d6c93" fill-opacity="0.6" fill-rule="evenodd" stroke="none"/>
    <path d="M-225.55 -274.25 L-224.7 -273.8 -223.7 -273.25 -222.15 -272.1 -220.6 -270.5 -220.55 -270.65 -220.3 -270.85 -219.8 -271.4 -218.2 -272.7 -217.75 -273.0 -216.25 -273.8 -213.2 -274.75 -213.0 -274.85 -212.5 -275.45 -210.9 -276.7 -210.45 -277.0 -209.0 -277.8 Q-206.25 -279.05 -203.15 -278.85 L-201.1 -278.65 -198.5 -277.9 -197.6 -277.45 -196.6 -276.9 -195.1 -275.75 -193.55 -274.15 -193.5 -274.3 -193.25 -274.5 -192.7 -275.1 -191.15 -276.35 -190.7 -276.65 -189.2 -277.45 Q-186.5 -278.7 -183.4 -278.5 L-181.35 -278.3 -178.65 -277.5 -177.8 -277.1 -176.85 -276.55 -175.25 -275.35 Q-174.0 -274.25 -173.0 -272.75 L-172.25 -271.5 -170.9 -271.3 -168.2 -270.55 -167.35 -270.15 -166.35 -269.55 -164.8 -268.4 -163.3 -266.85 -163.2 -267.0 -163.0 -267.2 -162.45 -267.75 -160.9 -268.95 -160.45 -269.25 -158.95 -270.1 Q-157.45 -270.75 -155.85 -271.05 L-153.1 -271.2 -151.05 -270.95 -148.45 -270.15 -147.6 -269.8 -146.55 -269.2 -145.05 -268.0 -142.7 -265.35 -142.2 -264.65 -141.7 -263.7 -141.55 -263.25 -141.05 -261.95 -140.6 -260.3 Q-140.3 -258.0 -140.75 -255.55 L-140.8 -255.45 -138.75 -255.15 Q-136.9 -254.8 -135.2 -254.0 -132.3 -252.5 -130.4 -249.6 L-129.2 -247.45 -128.65 -246.2 -128.25 -246.15 -126.2 -245.9 Q-124.3 -245.5 -122.7 -244.7 -119.8 -243.2 -117.85 -240.35 L-116.65 -238.2 Q-115.05 -234.6 -115.9 -230.55 -116.45 -227.6 -118.1 -225.25 -115.85 -223.85 -114.25 -221.45 L-113.25 -219.8 -113.1 -219.35 -112.55 -218.05 Q-111.6 -215.1 -112.2 -211.95 L-112.3 -211.65 Q-113.1 -207.5 -115.9 -204.8 L-115.95 -204.75 -116.05 -204.7 -117.8 -203.3 -118.65 -202.75 Q-119.45 -202.3 -120.2 -202.0 L-118.0 -199.4 -117.0 -197.7 -116.8 -197.25 -116.3 -196.0 Q-115.35 -192.95 -116.05 -189.6 -116.8 -185.5 -119.65 -182.7 L-119.7 -182.7 -119.8 -182.65 Q-120.65 -181.9 -121.6 -181.3 L-122.45 -180.7 Q-125.55 -178.9 -129.1 -179.0 L-128.55 -177.75 Q-127.65 -174.7 -128.35 -171.4 -129.1 -167.25 -131.95 -164.5 L-132.0 -164.45 -132.1 -164.4 -133.85 -163.05 -134.7 -162.5 Q-138.85 -160.1 -143.7 -161.1 L-143.95 -161.1 -144.45 -161.25 -144.5 -160.95 Q-145.3 -156.85 -148.15 -154.1 L-148.2 -154.1 -148.3 -154.0 -150.05 -152.65 -150.9 -152.05 Q-154.0 -150.3 -157.55 -150.4 L-157.0 -149.1 Q-156.1 -146.1 -156.8 -142.75 -157.2 -140.7 -158.05 -139.0 -159.0 -137.25 -160.45 -135.9 L-160.5 -135.85 -160.55 -135.8 -162.3 -134.4 -163.2 -133.85 Q-167.35 -131.5 -172.15 -132.45 L-172.45 -132.5 -172.9 -132.6 Q-174.7 -133.05 -176.2 -133.9 L-176.5 -133.7 Q-180.05 -131.3 -184.1 -130.9 -184.85 -129.75 -185.95 -128.7 L-186.0 -128.7 -186.05 -128.6 -187.8 -127.25 -188.7 -126.65 Q-192.85 -124.3 -197.65 -125.25 L-197.95 -125.35 -198.4 -125.4 Q-200.2 -125.85 -201.7 -126.75 L-202.15 -127.0 -204.5 -128.95 -205.95 -130.75 -206.2 -131.1 -206.25 -131.2 -208.7 -131.5 -209.0 -131.55 Q-214.1 -132.65 -217.05 -137.05 L-217.25 -137.35 -217.5 -137.4 -219.1 -137.8 -220.85 -136.45 Q-225.35 -133.45 -230.7 -134.5 L-230.95 -134.55 Q-236.1 -135.6 -239.0 -140.0 -242.05 -144.5 -241.0 -149.85 L-240.65 -151.15 Q-242.9 -152.55 -244.5 -154.9 L-244.7 -155.25 -245.6 -157.05 Q-249.55 -155.05 -254.05 -155.95 L-254.4 -156.0 Q-259.5 -157.1 -262.4 -161.45 -265.45 -165.95 -264.4 -171.3 L-264.05 -172.65 Q-266.25 -174.0 -267.85 -176.4 L-268.1 -176.7 Q-269.4 -178.8 -269.9 -180.95 L-270.1 -182.2 Q-270.25 -184.15 -269.85 -186.25 L-269.2 -188.4 Q-268.5 -190.4 -267.15 -191.95 L-266.9 -192.25 -266.55 -192.6 -266.4 -192.8 -265.85 -193.35 -265.55 -193.6 -267.1 -195.5 -267.3 -195.8 Q-268.6 -197.85 -269.05 -200.0 L-269.25 -201.25 Q-269.45 -203.25 -269.05 -205.35 L-268.3 -207.7 -269.55 -209.25 -269.8 -209.6 -270.7 -211.4 -271.55 -213.85 -271.7 -215.05 Q-271.95 -217.0 -271.55 -219.15 L-270.9 -221.35 Q-270.2 -223.3 -268.85 -224.9 L-268.55 -225.1 -268.25 -225.5 -268.1 -225.7 -267.55 -226.25 -267.25 -226.55 -268.8 -228.35 -269.0 -228.7 Q-270.3 -230.75 -270.75 -232.9 L-270.95 -234.15 Q-271.15 -236.1 -270.75 -238.2 -270.1 -241.55 -268.0 -243.95 L-267.75 -244.2 -267.5 -244.6 -267.3 -244.8 -266.75 -245.35 -265.15 -246.55 -264.7 -246.85 -263.25 -247.7 Q-260.5 -248.95 -257.4 -248.8 L-257.2 -248.75 -256.9 -250.75 Q-256.25 -254.0 -254.2 -256.45 L-253.95 -256.65 -253.7 -257.05 -253.45 -257.25 -252.95 -257.85 -251.35 -259.1 -250.9 -259.4 -249.4 -260.2 Q-246.7 -261.4 -243.8 -261.25 L-243.8 -262.75 -243.55 -264.7 -243.45 -265.05 Q-242.8 -268.1 -240.9 -270.4 L-240.55 -270.65 -240.3 -271.05 -240.15 -271.2 -239.55 -271.8 -238.0 -273.05 -237.55 -273.35 -236.05 -274.15 Q-233.3 -275.4 -230.25 -275.2 L-228.2 -275.0 -225.55 -274.25" fill="#7d6c93" fill-opacity="0.8980392" fill-rule="evenodd" stroke="none"/>
    <path d="M-200.3 -209.15 L-162.3 -157.0 -152.2 -164.35 -190.2 -216.5 -200.3 -209.15" fill="url(#gradient0)" fill-rule="evenodd" stroke="none"/>
    <path d="M-184.2 -322.4 L-183.7 -322.45 -183.45 -322.45 -183.4 -323.95 -183.4 -324.2 Q-183.2 -325.8 -182.5 -327.15 L-182.05 -327.85 -180.15 -329.8 Q-178.4 -331.15 -176.4 -331.5 L-176.15 -331.45 -175.85 -331.55 -175.65 -331.55 -175.15 -331.6 -173.8 -331.55 -173.45 -331.5 -172.35 -331.3 Q-170.4 -330.75 -169.0 -329.35 L-168.85 -329.2 -167.9 -330.1 Q-166.15 -331.45 -164.05 -331.8 L-163.8 -331.75 -163.5 -331.9 -163.3 -331.85 -162.85 -331.9 -161.55 -331.9 -161.15 -331.85 -160.05 -331.6 Q-158.2 -331.05 -156.75 -329.7 L-156.15 -330.5 -155.2 -331.35 -155.0 -331.5 Q-153.3 -332.75 -151.35 -333.1 L-151.1 -333.1 -150.85 -333.15 -150.65 -333.15 -150.1 -333.25 -148.8 -333.15 -148.45 -333.15 -147.35 -332.9 Q-145.45 -332.3 -143.95 -330.95 L-143.65 -330.6 -143.05 -329.9 -142.1 -328.35 -141.85 -327.8 -141.55 -327.1 -141.3 -325.8 Q-141.2 -325.15 -141.25 -324.4 L-141.1 -324.45 -140.9 -324.5 -140.4 -324.5 -139.05 -324.45 -138.7 -324.4 -137.6 -324.2 -135.7 -323.35 -134.25 -322.2 -133.35 -321.2 -132.3 -319.65 -132.05 -319.1 -131.8 -318.35 -131.5 -317.15 -131.5 -314.85 -131.6 -314.25 -131.75 -313.55 -131.85 -313.25 -132.1 -312.35 -132.65 -311.35 Q-133.45 -310.1 -134.8 -309.1 L-134.85 -309.05 -133.9 -308.0 Q-133.1 -307.0 -132.65 -305.9 -131.85 -303.9 -132.15 -301.6 -132.25 -300.8 -132.5 -300.05 L-132.8 -299.15 -132.6 -299.0 -131.65 -297.95 Q-130.85 -297.0 -130.4 -295.9 -129.55 -293.85 -129.85 -291.55 -129.95 -290.75 -130.2 -290.05 -130.9 -287.5 -133.1 -285.85 -134.7 -284.6 -136.45 -284.2 -135.95 -282.5 -136.15 -280.6 L-136.35 -279.3 -136.45 -279.0 -136.75 -278.15 Q-137.55 -276.3 -139.25 -274.95 L-139.4 -274.85 Q-141.55 -273.15 -144.2 -272.95 L-144.3 -272.95 -145.75 -273.0 -146.45 -273.1 -147.55 -273.4 Q-149.2 -273.95 -150.45 -275.15 L-150.7 -274.3 Q-151.6 -272.4 -153.4 -271.05 -154.45 -270.15 -155.65 -269.65 -156.85 -269.2 -158.15 -269.15 L-158.25 -269.15 -159.75 -269.2 -160.4 -269.3 Q-163.5 -269.9 -165.5 -272.5 L-165.65 -272.6 -165.8 -272.9 Q-166.55 -273.9 -166.9 -274.9 L-167.15 -274.9 Q-169.9 -275.25 -172.1 -276.8 L-174.0 -276.5 -174.1 -276.5 -175.6 -276.6 -176.25 -276.65 Q-179.3 -277.3 -181.35 -279.8 L-181.5 -280.0 -181.65 -280.25 Q-182.4 -281.2 -182.75 -282.3 L-182.85 -282.7 -183.15 -284.6 -183.15 -286.15 -183.1 -286.4 -183.1 -286.5 -184.15 -287.7 -184.3 -287.85 Q-186.4 -290.55 -186.0 -294.05 L-185.95 -294.3 -186.05 -294.4 -186.7 -295.3 -188.1 -295.4 Q-191.7 -295.8 -193.95 -298.6 L-194.05 -298.75 Q-196.1 -301.5 -195.7 -305.0 -195.25 -308.5 -192.5 -310.75 L-191.75 -311.25 -192.1 -313.45 -192.05 -314.8 -192.0 -315.05 -191.7 -316.35 -191.1 -317.95 -190.65 -318.6 -188.75 -320.55 -187.5 -321.4 Q-186.3 -322.1 -184.95 -322.3 L-184.7 -322.3 -184.45 -322.35 -184.2 -322.4" fill="#7d6c93" fill-opacity="0.6" fill-rule="evenodd" stroke="none"/>
    <path d="M-213.8 -309.3 L-212.85 -309.0 -211.6 -308.35 -211.35 -308.1 -210.8 -307.75 -210.25 -307.05 -209.4 -305.5 -209.25 -305.1 -209.1 -304.6 -209.05 -304.4 -208.95 -303.7 -208.85 -302.9 Q-208.95 -301.75 -209.45 -300.6 L-209.5 -300.55 -208.5 -300.25 Q-207.65 -299.9 -206.95 -299.3 -205.65 -298.3 -205.05 -296.75 L-204.75 -295.6 -204.6 -294.95 -204.45 -294.9 -203.45 -294.55 Q-202.6 -294.2 -201.9 -293.6 -200.6 -292.6 -200.0 -291.05 L-199.65 -289.85 Q-199.2 -288.05 -200.05 -286.2 -200.6 -284.8 -201.65 -283.85 -200.7 -282.95 -200.15 -281.65 L-199.85 -280.75 -199.8 -280.55 -199.7 -279.8 Q-199.5 -278.35 -200.15 -276.9 L-200.2 -276.75 Q-200.95 -274.9 -202.65 -273.85 -203.2 -273.5 -203.7 -273.3 L-204.15 -273.15 -204.95 -273.0 Q-206.25 -272.7 -207.45 -273.0 L-207.3 -272.35 Q-207.25 -270.8 -207.9 -269.25 -208.3 -268.35 -208.85 -267.6 L-210.3 -266.4 -210.4 -266.35 -211.4 -265.9 -211.85 -265.7 -216.2 -265.9 -216.4 -265.95 -216.65 -266.1 Q-217.45 -266.45 -218.05 -267.0 L-218.2 -266.95 Q-220.15 -266.15 -222.1 -266.3 L-223.2 -265.5 -223.25 -265.45 Q-223.8 -265.15 -224.3 -264.95 L-224.75 -264.75 -229.2 -264.95 -229.35 -265.05 -229.55 -265.15 Q-230.35 -265.55 -230.95 -266.1 L-231.2 -266.3 -232.05 -267.45 -232.6 -268.45 -232.65 -268.65 -232.7 -268.7 -233.85 -269.1 -233.95 -269.2 Q-236.3 -270.15 -237.25 -272.55 L-237.35 -272.75 -237.4 -272.8 -238.15 -273.15 Q-238.6 -272.85 -239.15 -272.65 -241.6 -271.65 -244.05 -272.65 L-244.2 -272.75 Q-246.5 -273.75 -247.45 -276.2 -248.45 -278.6 -247.45 -281.05 L-247.15 -281.65 -248.2 -283.0 -248.6 -283.85 -248.7 -284.05 -248.95 -285.0 -249.1 -286.2 -249.1 -286.8 -248.55 -288.75 -248.05 -289.75 -246.7 -291.2 -246.55 -291.3 -246.4 -291.45 -246.25 -291.55 -245.95 -291.8 Q-245.9 -291.8 -245.75 -291.9 L-246.3 -292.85 -246.4 -293.05 Q-246.85 -294.15 -246.85 -295.25 L-246.8 -295.95 -246.3 -297.8 Q-245.6 -299.3 -244.45 -300.3 L-244.3 -300.35 -244.05 -300.55 -244.0 -300.6 -243.7 -300.8 -242.8 -301.3 -242.55 -301.4 -241.75 -301.6 -238.9 -301.55 -238.7 -301.5 -238.4 -302.35 Q-237.8 -303.9 -236.5 -304.9 L-236.35 -304.95 -236.25 -305.1 -236.1 -305.15 -235.8 -305.4 -234.95 -305.85 -234.65 -306.0 -233.9 -306.2 -231.1 -306.1 -231.0 -306.85 -230.65 -307.75 -230.55 -307.9 Q-229.95 -309.35 -228.8 -310.25 L-228.6 -310.35 -228.5 -310.45 -228.4 -310.5 -228.0 -310.75 -227.15 -311.25 -226.9 -311.35 -226.1 -311.55 -223.2 -311.5 -222.9 -311.4 -222.25 -311.15 -221.1 -310.5 -220.7 -310.25 -220.3 -309.9 -219.65 -309.15 -219.05 -308.25 -219.0 -308.3 -218.9 -308.4 -218.65 -308.6 -217.7 -309.05 -217.45 -309.2 -216.7 -309.4 -215.1 -309.55 -213.8 -309.3" fill="#7d6c93" fill-opacity="0.8" fill-rule="evenodd" stroke="none"/>
    <path d="M195.55 -203.05 L157.55 -150.9 147.45 -158.25 185.45 -210.4 195.55 -203.05" fill="url(#gradient1)" fill-rule="evenodd" stroke="none"/>
  </g>
  <defs>
    <linearGradient gradientTransform="matrix(-0.0232, -0.0318, -0.0062, 0.0045, -176.25, -186.7)" gradientUnits="userSpaceOnUse" id="gradient0" spreadMethod="pad" x1="-819.2" x2="819.2">
      <stop offset="0.0" stop-color="#f402f4"/>
      <stop offset="0.5411764705882353" stop-color="#660099" stop-opacity="0.0"/>
    </linearGradient>
    <linearGradient gradientTransform="matrix(0.0232, -0.0318, 0.0062, 0.0045, 171.5, -180.6)" gradientUnits="userSpaceOnUse" id="gradient1" spreadMethod="pad" x1="-819.2" x2="819.2">
      <stop offset="0.0" stop-color="#f402f4"/>
      <stop offset="0.5411764705882353" stop-color="#660099" stop-opacity="0.0"/>
    </linearGradient>
  </defs>
</svg>
