<?xml version="1.0" encoding="UTF-8" standalone="no"?>
<svg xmlns:ffdec="https://www.free-decompiler.com/flash" xmlns:xlink="http://www.w3.org/1999/xlink" ffdec:objectType="shape" height="175.25px" width="717.15px" xmlns="http://www.w3.org/2000/svg">
  <g transform="matrix(1.0, 0.0, 0.0, 1.0, 347.65, 365.8)">
    <path d="M-217.0 -312.75 L-217.35 -312.9 -217.55 -312.95 -218.2 -313.05 -219.8 -313.2 -220.2 -313.2 -221.55 -313.05 Q-223.85 -312.7 -225.8 -311.3 L-226.45 -312.3 -227.5 -313.45 -227.7 -313.7 -228.0 -313.95 -228.15 -313.7 -229.05 -312.5 -228.8 -312.0 Q-227.9 -309.85 -228.8 -307.8 -229.6 -305.65 -231.6 -304.8 L-231.75 -304.7 Q-233.85 -303.8 -236.0 -304.7 L-236.85 -305.15 Q-237.15 -304.9 -237.5 -304.8 L-237.55 -304.8 -237.65 -304.6 Q-238.45 -302.5 -240.5 -301.7 L-240.6 -301.6 -241.6 -301.25 -241.65 -301.2 -241.7 -301.05 -242.15 -300.15 -242.9 -299.15 -243.1 -299.0 Q-243.65 -298.5 -244.35 -298.15 L-244.5 -298.1 -244.65 -298.0 -248.5 -297.85 -248.9 -298.0 Q-249.35 -298.15 -249.8 -298.45 L-249.85 -298.5 -250.8 -299.15 Q-252.5 -299.05 -254.2 -299.75 L-254.35 -299.8 -255.55 -299.0 -255.75 -298.85 -255.95 -298.85 -259.7 -298.65 -260.1 -298.85 -260.95 -299.2 -261.05 -299.25 -262.3 -300.3 -263.15 -301.75 -263.3 -302.15 -263.35 -302.1 -263.75 -301.45 -264.15 -300.65 -264.65 -299.15 -264.95 -297.45 -265.1 -297.5 -265.3 -297.55 -265.95 -297.7 -267.55 -297.8 -267.95 -297.8 -269.3 -297.7 Q-271.7 -297.3 -273.65 -295.8 L-274.9 -294.75 -276.35 -293.05 -276.75 -292.4 -277.15 -291.55 -277.65 -290.1 Q-278.0 -288.8 -278.0 -287.3 L-277.95 -286.15 -278.8 -285.45 -280.2 -283.75 -280.6 -283.1 -281.0 -282.25 -281.5 -280.8 -281.85 -279.1 -281.95 -279.15 -282.2 -279.2 -282.8 -279.3 -284.4 -279.45 -284.85 -279.45 -286.15 -279.3 Q-287.5 -279.1 -288.65 -278.55 L-290.5 -277.45 -291.8 -276.35 -293.2 -274.65 -293.6 -274.0 -294.0 -273.2 -294.5 -271.7 Q-294.85 -270.4 -294.85 -268.9 L-294.85 -268.25 -294.8 -267.35 -294.7 -266.95 -294.45 -265.9 -294.0 -264.6 Q-293.2 -262.95 -291.8 -261.55 L-291.7 -261.45 -292.95 -260.35 -294.8 -258.0 Q-296.05 -255.7 -296.05 -252.95 L-295.85 -251.0 -295.65 -249.9 -295.9 -249.7 -297.15 -248.6 -299.0 -246.25 Q-300.25 -243.95 -300.25 -241.15 L-300.1 -239.2 Q-299.55 -236.1 -297.15 -233.75 -295.45 -232.05 -293.35 -231.25 -294.2 -229.3 -294.2 -227.0 L-294.1 -225.45 -294.05 -225.05 -293.8 -223.95 Q-293.1 -221.6 -291.3 -219.75 L-291.15 -219.6 Q-288.8 -217.2 -285.65 -216.65 L-285.6 -216.65 -285.5 -216.65 -283.75 -216.55 -282.9 -216.55 -281.55 -216.7 -281.85 -214.0 -281.8 -212.45 -281.7 -212.05 -281.5 -210.95 Q-280.75 -208.55 -278.8 -206.6 -276.45 -204.25 -273.3 -203.65 L-273.2 -203.65 -271.4 -203.55 -270.6 -203.55 Q-267.7 -203.75 -265.4 -205.4 L-265.2 -204.3 Q-264.45 -201.9 -262.5 -199.95 -260.15 -197.6 -257.0 -197.0 L-256.9 -197.0 -255.1 -196.9 -254.3 -196.9 Q-250.45 -197.2 -247.7 -199.95 L-247.5 -200.15 -247.25 -200.4 -247.05 -200.3 Q-244.7 -197.9 -241.6 -197.3 L-241.55 -197.3 -241.45 -197.3 -239.7 -197.2 -238.85 -197.2 Q-236.0 -197.4 -233.7 -199.05 L-233.45 -197.95 Q-232.75 -195.55 -230.8 -193.65 -229.6 -192.45 -228.25 -191.65 -226.85 -191.0 -225.3 -190.65 L-225.25 -190.65 -225.15 -190.65 -223.4 -190.55 -222.55 -190.55 Q-218.75 -190.85 -215.95 -193.65 L-215.8 -193.8 -215.55 -194.05 Q-214.55 -195.15 -213.9 -196.4 L-213.6 -196.4 Q-210.2 -196.4 -207.35 -197.95 L-205.15 -197.3 -205.1 -197.3 -205.0 -197.3 -203.25 -197.15 -202.4 -197.15 Q-198.6 -197.45 -195.8 -200.25 L-195.65 -200.4 -195.35 -200.65 Q-194.35 -201.75 -193.75 -203.0 L-193.6 -203.4 Q-193.1 -204.5 -192.9 -205.7 L-192.7 -207.6 -192.7 -207.9 -192.7 -208.05 -191.25 -209.3 -191.05 -209.5 Q-188.15 -212.5 -188.15 -216.7 L-188.15 -217.0 -188.0 -217.15 -187.15 -218.15 -185.35 -218.0 Q-181.05 -218.0 -177.95 -221.1 L-177.75 -221.25 Q-174.85 -224.25 -174.85 -228.45 -174.85 -232.8 -177.95 -235.9 L-178.75 -236.65 Q-177.9 -238.55 -177.9 -240.85 L-177.9 -241.15 Q-177.9 -242.05 -178.05 -242.75 -174.55 -243.2 -171.95 -245.8 L-171.75 -246.0 Q-168.85 -249.0 -168.85 -253.2 -168.85 -257.55 -171.95 -260.65 L-172.75 -261.35 Q-171.9 -263.3 -171.9 -265.6 L-171.9 -265.9 Q-171.95 -267.85 -172.6 -269.5 L-173.05 -270.4 Q-173.75 -271.8 -175.0 -273.0 L-176.4 -274.2 Q-177.75 -275.2 -179.35 -275.6 L-179.65 -275.65 -180.0 -275.8 -180.2 -275.85 -180.8 -275.95 -181.1 -276.0 Q-180.95 -276.9 -180.95 -277.9 L-180.95 -278.2 Q-181.0 -280.2 -181.65 -281.85 L-182.05 -282.75 Q-182.8 -284.15 -184.05 -285.35 L-185.6 -286.6 Q-185.45 -287.4 -185.45 -288.2 L-185.45 -288.5 -185.65 -290.15 -186.15 -292.15 -186.6 -293.05 Q-187.35 -294.45 -188.55 -295.65 L-189.95 -296.8 Q-191.3 -297.8 -192.9 -298.25 L-193.2 -298.3 -193.55 -298.45 -193.75 -298.45 -194.35 -298.6 -194.65 -298.65 Q-194.5 -299.55 -194.5 -300.55 L-194.5 -300.85 Q-194.55 -302.8 -195.2 -304.45 L-195.65 -305.4 Q-196.35 -306.75 -197.6 -308.0 -199.5 -309.9 -201.95 -310.6 L-202.25 -310.65 -202.6 -310.75 -202.8 -310.8 -203.4 -310.95 -205.0 -311.05 -205.45 -311.05 -206.8 -310.95 Q-209.2 -310.55 -211.15 -309.05 L-211.3 -308.95 -212.35 -310.1 Q-214.25 -312.0 -216.7 -312.7 L-217.0 -312.75" fill="#7d6c93" fill-opacity="0.49803922" fill-rule="evenodd" stroke="none"/>
    <path d="M248.6 -323.2 L248.95 -323.35 249.15 -323.4 249.8 -323.5 251.4 -323.65 251.8 -323.65 253.15 -323.5 Q255.45 -323.15 257.4 -321.75 L258.05 -322.75 259.1 -323.9 259.3 -324.15 259.6 -324.4 259.75 -324.15 260.65 -322.95 260.4 -322.45 Q259.5 -320.3 260.4 -318.25 261.2 -316.1 263.2 -315.25 L263.35 -315.15 Q265.45 -314.25 267.6 -315.15 L268.45 -315.6 Q268.75 -315.35 269.1 -315.25 L269.15 -315.25 269.25 -315.05 Q270.05 -312.95 272.1 -312.15 L272.2 -312.05 273.2 -311.7 273.25 -311.65 273.3 -311.5 273.75 -310.6 Q274.05 -310.05 274.5 -309.6 L274.7 -309.45 275.95 -308.6 276.1 -308.55 276.25 -308.45 280.1 -308.3 280.5 -308.45 Q280.95 -308.6 281.4 -308.9 L281.45 -308.95 282.4 -309.6 Q284.1 -309.5 285.8 -310.2 L285.95 -310.25 287.15 -309.45 287.35 -309.3 287.55 -309.3 291.3 -309.1 291.7 -309.3 292.55 -309.65 292.65 -309.7 293.9 -310.75 294.75 -312.2 294.9 -312.6 294.95 -312.55 295.35 -311.9 295.75 -311.1 296.25 -309.6 296.55 -307.9 296.7 -307.95 296.9 -308.0 297.55 -308.15 299.15 -308.25 299.55 -308.25 300.9 -308.15 Q303.3 -307.75 305.25 -306.25 L306.5 -305.2 307.95 -303.5 308.35 -302.85 308.75 -302.0 309.25 -300.55 Q309.6 -299.25 309.6 -297.75 L309.55 -296.6 310.4 -295.9 311.8 -294.2 312.2 -293.55 312.6 -292.7 313.1 -291.25 313.45 -289.55 313.55 -289.6 313.8 -289.65 314.4 -289.75 316.0 -289.9 316.45 -289.9 317.75 -289.75 320.25 -289.0 322.1 -287.9 323.4 -286.8 324.8 -285.1 325.2 -284.45 325.6 -283.65 326.1 -282.15 Q326.45 -280.85 326.45 -279.35 L326.45 -278.7 326.4 -277.8 326.3 -277.4 326.05 -276.35 325.6 -275.05 Q324.8 -273.4 323.4 -272.0 L323.3 -271.9 324.55 -270.8 326.4 -268.45 Q327.65 -266.15 327.65 -263.4 L327.45 -261.45 327.25 -260.35 327.5 -260.15 328.75 -259.05 330.6 -256.7 Q331.85 -254.4 331.85 -251.6 L331.7 -249.65 Q331.15 -246.55 328.75 -244.2 327.05 -242.5 324.95 -241.7 325.8 -239.75 325.8 -237.45 L325.7 -235.9 325.65 -235.5 325.4 -234.4 Q324.7 -232.05 322.9 -230.2 L322.75 -230.05 Q320.4 -227.65 317.25 -227.1 L317.2 -227.1 317.1 -227.1 315.35 -227.0 314.5 -227.0 313.15 -227.15 313.45 -224.45 313.4 -222.9 313.3 -222.5 313.1 -221.4 Q312.35 -219.0 310.4 -217.05 308.05 -214.7 304.9 -214.1 L304.8 -214.1 303.0 -214.0 302.2 -214.0 Q299.3 -214.2 297.0 -215.85 L296.8 -214.75 Q296.05 -212.35 294.1 -210.4 291.75 -208.05 288.6 -207.45 L288.5 -207.45 286.7 -207.35 285.9 -207.35 Q282.05 -207.65 279.3 -210.4 L279.1 -210.6 278.85 -210.85 278.65 -210.75 Q276.3 -208.35 273.2 -207.75 L273.15 -207.75 273.05 -207.75 271.3 -207.65 270.45 -207.65 Q267.6 -207.85 265.3 -209.5 L265.05 -208.4 Q264.35 -206.0 262.4 -204.1 L259.85 -202.1 256.9 -201.1 256.85 -201.1 256.75 -201.1 255.0 -201.0 254.15 -201.0 Q250.35 -201.3 247.55 -204.1 L247.4 -204.25 247.15 -204.5 Q246.15 -205.6 245.5 -206.85 L245.2 -206.85 Q241.8 -206.85 238.95 -208.4 L236.75 -207.75 236.7 -207.75 236.6 -207.75 234.85 -207.6 234.0 -207.6 Q230.2 -207.9 227.4 -210.7 L227.25 -210.85 226.95 -211.1 Q225.95 -212.2 225.35 -213.45 L225.2 -213.85 Q224.7 -214.95 224.5 -216.15 L224.3 -218.05 224.3 -218.35 224.3 -218.5 Q223.55 -219.05 222.85 -219.75 L222.65 -219.95 Q219.75 -222.95 219.75 -227.15 L219.75 -227.45 219.6 -227.6 218.75 -228.6 216.95 -228.45 Q212.65 -228.45 209.55 -231.55 L209.35 -231.7 Q206.45 -234.7 206.45 -238.9 206.45 -243.25 209.55 -246.35 L210.35 -247.1 Q209.5 -249.0 209.5 -251.3 L209.5 -251.6 Q209.5 -252.5 209.65 -253.2 206.15 -253.65 203.55 -256.25 L203.35 -256.45 Q200.45 -259.45 200.45 -263.65 200.45 -268.0 203.55 -271.1 L204.35 -271.8 Q203.5 -273.75 203.5 -276.05 L203.5 -276.35 Q203.55 -278.3 204.2 -279.95 L204.65 -280.85 Q205.35 -282.25 206.6 -283.45 L208.0 -284.65 Q209.35 -285.65 210.95 -286.05 L211.25 -286.1 211.6 -286.25 211.8 -286.3 212.4 -286.4 212.7 -286.45 Q212.55 -287.35 212.55 -288.35 L212.55 -288.65 Q212.6 -290.65 213.25 -292.3 L213.65 -293.2 Q214.4 -294.6 215.65 -295.8 L217.2 -297.05 217.05 -298.65 217.05 -298.95 217.25 -300.6 217.75 -302.6 218.2 -303.5 Q218.95 -304.9 220.15 -306.1 L221.55 -307.25 Q222.9 -308.25 224.5 -308.7 L224.8 -308.75 225.15 -308.9 225.35 -308.9 225.95 -309.05 226.25 -309.1 Q226.1 -310.0 226.1 -311.0 L226.1 -311.3 Q226.15 -313.25 226.8 -314.9 L227.25 -315.85 Q227.95 -317.2 229.2 -318.45 231.1 -320.35 233.55 -321.05 L233.85 -321.1 234.2 -321.2 234.4 -321.25 235.0 -321.4 236.6 -321.5 237.05 -321.5 238.4 -321.4 Q240.8 -321.0 242.75 -319.5 L242.9 -319.4 243.95 -320.55 Q245.85 -322.45 248.3 -323.15 L248.6 -323.2" fill="#7d6c93" fill-opacity="0.49803922" fill-rule="evenodd" stroke="none"/>
    <path d="M284.55 -346.85 L285.05 -346.1 285.1 -346.1 285.2 -346.2 285.4 -346.4 286.25 -346.75 286.45 -346.9 287.1 -347.1 288.5 -347.2 289.6 -347.0 290.45 -346.75 291.55 -346.15 291.75 -345.95 292.25 -345.65 292.7 -345.05 293.45 -343.7 293.55 -343.35 293.7 -342.9 293.75 -342.75 293.85 -342.1 293.9 -341.45 Q293.85 -340.45 293.4 -339.45 L293.35 -339.4 294.2 -339.1 295.55 -338.3 Q296.7 -337.45 297.2 -336.1 L297.5 -335.1 297.6 -334.5 297.75 -334.5 298.6 -334.15 299.95 -333.35 Q301.1 -332.5 301.6 -331.15 L301.9 -330.1 Q302.3 -328.5 301.55 -326.9 301.1 -325.7 300.2 -324.85 L301.5 -322.95 301.75 -322.2 301.8 -322.0 301.85 -321.35 Q302.05 -320.1 301.5 -318.85 L301.45 -318.7 Q300.8 -317.1 299.3 -316.2 L298.4 -315.7 298.0 -315.6 297.3 -315.45 Q296.2 -315.2 295.15 -315.45 L295.25 -314.9 Q295.3 -313.75 294.9 -312.6 L294.75 -312.2 293.9 -310.75 292.65 -309.7 292.55 -309.65 291.7 -309.3 291.3 -309.1 287.55 -309.3 287.35 -309.3 287.15 -309.45 285.95 -310.25 285.8 -310.2 Q284.1 -309.5 282.4 -309.6 L281.45 -308.95 281.4 -308.9 Q280.95 -308.6 280.5 -308.45 L280.1 -308.3 276.25 -308.45 276.1 -308.55 275.95 -308.6 274.7 -309.45 274.5 -309.6 Q274.05 -310.05 273.75 -310.6 L273.3 -311.5 273.25 -311.65 273.2 -311.7 272.2 -312.05 272.1 -312.15 Q270.05 -312.95 269.25 -315.05 L269.15 -315.25 269.1 -315.25 Q268.75 -315.35 268.45 -315.6 L267.6 -315.15 Q265.45 -314.25 263.35 -315.15 L263.2 -315.25 Q261.2 -316.1 260.4 -318.25 259.5 -320.3 260.4 -322.45 L260.65 -322.95 259.75 -324.15 259.6 -324.4 259.4 -324.85 259.3 -325.05 259.05 -325.85 258.95 -326.9 258.95 -327.45 259.4 -329.15 259.85 -330.0 Q260.35 -330.8 261.05 -331.25 L261.15 -331.35 261.3 -331.5 261.4 -331.55 261.7 -331.8 261.85 -331.85 Q261.55 -332.2 261.4 -332.7 L261.3 -332.85 Q260.9 -333.8 260.9 -334.8 L260.95 -335.4 261.4 -337.0 Q262.0 -338.3 263.0 -339.15 L263.1 -339.2 263.35 -339.4 263.4 -339.45 263.65 -339.6 264.4 -340.05 264.65 -340.1 265.35 -340.3 267.8 -340.25 268.0 -340.2 268.25 -340.95 Q268.75 -342.3 269.9 -343.15 L270.0 -343.2 270.1 -343.35 270.25 -343.4 270.5 -343.6 271.25 -344.0 271.5 -344.1 272.15 -344.3 274.6 -344.2 274.65 -344.85 275.0 -345.65 275.05 -345.75 Q275.6 -347.05 276.6 -347.8 L276.75 -347.9 276.85 -348.0 276.95 -348.05 277.3 -348.25 278.0 -348.7 278.25 -348.75 278.95 -348.95 281.45 -348.9 281.7 -348.8 282.3 -348.6 283.3 -348.05 283.6 -347.8 283.95 -347.5 284.55 -346.85" fill="#7d6c93" fill-opacity="0.2" fill-rule="evenodd" stroke="none"/>
    <path d="M321.55 -356.3 L321.75 -356.3 322.0 -356.3 322.2 -356.35 322.65 -356.4 322.85 -356.4 322.9 -357.7 322.9 -357.95 Q323.05 -359.3 323.7 -360.5 L324.05 -361.1 Q324.7 -362.05 325.7 -362.8 327.25 -363.95 329.0 -364.25 L329.2 -364.25 329.45 -364.3 329.65 -364.3 330.05 -364.35 331.25 -364.3 331.55 -364.25 332.5 -364.1 Q334.2 -363.6 335.4 -362.4 L335.55 -362.25 336.35 -363.05 Q337.9 -364.25 339.7 -364.55 L339.95 -364.5 340.2 -364.6 340.35 -364.55 340.75 -364.6 341.9 -364.6 342.25 -364.55 343.2 -364.35 Q344.8 -363.9 346.05 -362.7 L346.55 -363.4 347.4 -364.15 347.55 -364.25 Q349.05 -365.35 350.75 -365.65 L350.95 -365.65 351.2 -365.7 351.35 -365.7 351.85 -365.8 352.95 -365.7 353.25 -365.7 354.2 -365.5 Q355.85 -364.95 357.15 -363.8 L357.45 -363.5 357.95 -362.9 358.8 -361.55 359.0 -361.05 359.25 -360.45 359.5 -359.3 359.5 -358.1 359.65 -358.15 359.8 -358.2 360.25 -358.2 361.45 -358.15 361.75 -358.1 362.7 -357.95 364.35 -357.2 365.6 -356.2 366.4 -355.3 367.3 -353.95 367.5 -353.5 367.75 -352.85 368.0 -351.8 368.0 -349.8 367.9 -349.3 367.8 -348.65 367.7 -348.4 367.45 -347.65 367.0 -346.75 Q366.3 -345.7 365.15 -344.8 L365.1 -344.75 365.9 -343.85 367.0 -342.05 Q367.7 -340.3 367.45 -338.3 L367.1 -336.95 366.85 -336.15 367.05 -336.05 367.85 -335.1 368.95 -333.35 Q369.7 -331.55 369.45 -329.55 L369.1 -328.25 Q368.5 -326.05 366.6 -324.6 365.2 -323.5 363.7 -323.15 364.15 -321.7 363.95 -320.05 L363.8 -318.9 363.7 -318.65 363.45 -317.9 Q362.75 -316.3 361.25 -315.15 L361.15 -315.05 Q359.25 -313.55 356.95 -313.4 L356.85 -313.4 355.6 -313.45 355.0 -313.5 354.05 -313.8 Q352.6 -314.25 351.55 -315.3 L351.3 -314.55 Q350.55 -312.9 348.95 -311.75 348.05 -310.95 347.0 -310.55 L344.85 -310.1 344.75 -310.1 343.45 -310.15 342.9 -310.2 Q340.2 -310.75 338.45 -313.0 L338.3 -313.1 338.2 -313.35 Q337.55 -314.2 337.25 -315.1 L337.0 -315.1 Q334.6 -315.4 332.7 -316.75 L331.05 -316.5 330.95 -316.5 329.65 -316.55 329.1 -316.6 Q326.45 -317.15 324.7 -319.35 L324.55 -319.5 324.4 -319.75 Q323.75 -320.55 323.45 -321.5 L323.35 -321.85 Q323.1 -322.6 323.1 -323.5 L323.1 -324.85 323.15 -325.1 323.15 -325.15 322.25 -326.2 322.1 -326.35 Q320.3 -328.7 320.65 -331.75 L320.7 -331.95 320.6 -332.05 320.05 -332.8 318.8 -332.9 Q315.7 -333.25 313.75 -335.7 L313.65 -335.8 Q311.85 -338.2 312.2 -341.25 312.6 -344.3 315.0 -346.25 L315.65 -346.65 315.35 -348.6 315.4 -349.75 315.4 -350.0 315.7 -351.1 316.2 -352.5 316.6 -353.05 318.25 -354.75 Q318.7 -355.2 319.35 -355.5 320.35 -356.1 321.55 -356.3" fill="#7d6c93" fill-opacity="0.34901962" fill-rule="evenodd" stroke="none"/>
    <path d="M-257.9 -266.15 L-219.9 -214.0 -209.8 -221.35 -247.8 -273.5 -257.9 -266.15" fill="url(#gradient0)" fill-rule="evenodd" stroke="none"/>
    <path d="M-252.9 -335.05 L-253.4 -334.3 -253.45 -334.3 -253.55 -334.4 -253.75 -334.6 -254.6 -334.95 -254.8 -335.1 -255.45 -335.3 -256.85 -335.4 -257.95 -335.2 -258.8 -334.95 -259.9 -334.35 -260.1 -334.15 -260.6 -333.85 -261.05 -333.25 -261.8 -331.9 -261.9 -331.55 -262.05 -331.1 -262.1 -330.95 -262.2 -330.3 -262.25 -329.65 Q-262.2 -328.65 -261.75 -327.65 L-261.7 -327.6 -262.55 -327.3 -263.9 -326.5 Q-265.05 -325.65 -265.55 -324.3 L-265.85 -323.3 -265.95 -322.7 -266.1 -322.7 -266.95 -322.35 Q-267.7 -322.05 -268.3 -321.55 -269.45 -320.7 -269.95 -319.35 L-270.25 -318.3 Q-270.65 -316.7 -269.9 -315.1 -269.45 -313.9 -268.55 -313.05 -269.35 -312.3 -269.85 -311.15 L-270.1 -310.4 -270.15 -310.2 -270.2 -309.55 Q-270.4 -308.3 -269.85 -307.05 L-269.8 -306.9 Q-269.15 -305.3 -267.65 -304.4 L-266.75 -303.9 -266.35 -303.8 -265.65 -303.65 Q-264.55 -303.4 -263.5 -303.65 L-263.6 -303.1 -263.25 -300.8 -263.1 -300.4 -262.25 -298.95 -261.0 -297.9 -260.9 -297.85 -260.05 -297.5 -259.65 -297.3 -255.9 -297.5 -255.7 -297.5 -255.5 -297.65 -254.3 -298.45 -254.15 -298.4 Q-252.45 -297.7 -250.75 -297.8 L-249.8 -297.15 -249.75 -297.1 Q-249.3 -296.8 -248.85 -296.65 L-248.45 -296.5 -244.6 -296.65 -244.45 -296.75 -244.3 -296.8 -243.05 -297.65 -242.85 -297.8 -242.1 -298.8 -241.65 -299.7 -241.6 -299.85 -241.55 -299.9 -240.55 -300.25 -240.45 -300.35 Q-238.4 -301.15 -237.6 -303.25 L-237.5 -303.45 -237.45 -303.45 -236.8 -303.8 Q-236.4 -303.5 -235.95 -303.35 -233.8 -302.45 -231.7 -303.35 L-231.55 -303.45 Q-229.55 -304.3 -228.75 -306.45 -227.85 -308.5 -228.75 -310.65 L-229.0 -311.15 Q-228.5 -311.7 -228.1 -312.35 L-227.95 -312.6 -227.75 -313.05 -227.65 -313.25 -227.4 -314.05 -227.3 -315.1 -227.3 -315.65 -227.75 -317.35 -228.2 -318.2 -229.4 -319.45 -229.5 -319.55 -229.65 -319.7 -229.75 -319.75 -230.05 -320.0 -230.2 -320.05 Q-229.9 -320.4 -229.75 -320.9 L-229.65 -321.05 Q-229.25 -322.0 -229.25 -323.0 L-229.3 -323.6 -229.75 -325.2 Q-230.35 -326.5 -231.35 -327.35 L-231.45 -327.4 -231.7 -327.6 -231.75 -327.65 -232.0 -327.8 -232.75 -328.25 -233.0 -328.3 -233.7 -328.5 -236.15 -328.45 -236.35 -328.4 -236.6 -329.15 Q-237.1 -330.5 -238.25 -331.35 L-238.35 -331.4 -238.45 -331.55 -238.6 -331.6 -238.85 -331.8 -239.6 -332.2 -239.85 -332.3 -240.5 -332.5 -242.95 -332.4 -243.0 -333.05 -243.35 -333.85 -243.4 -333.95 Q-243.95 -335.25 -244.95 -336.0 L-245.1 -336.1 -245.2 -336.2 -245.3 -336.25 -245.65 -336.45 -246.35 -336.9 -246.6 -336.95 -247.3 -337.15 -249.8 -337.1 -250.05 -337.0 -250.65 -336.8 -251.65 -336.25 -251.95 -336.0 -252.3 -335.7 -252.9 -335.05" fill="#7d6c93" fill-opacity="0.34901962" fill-rule="evenodd" stroke="none"/>
    <path d="M-338.25 -328.5 L-338.05 -328.5 -337.8 -328.5 -337.6 -328.55 -337.15 -328.6 -336.95 -328.6 -336.9 -329.9 -336.9 -330.15 Q-336.75 -331.5 -336.1 -332.7 L-335.75 -333.3 -334.1 -335.0 Q-332.55 -336.15 -330.8 -336.45 L-330.6 -336.45 -330.35 -336.5 -330.15 -336.5 -329.75 -336.55 -328.55 -336.5 -328.25 -336.45 -327.3 -336.3 Q-325.6 -335.8 -324.4 -334.6 L-324.25 -334.45 -323.45 -335.25 Q-321.9 -336.45 -320.1 -336.75 L-319.85 -336.7 -319.6 -336.8 -319.45 -336.75 -319.05 -336.8 -317.9 -336.8 -317.55 -336.75 -316.6 -336.55 Q-315.0 -336.1 -313.75 -334.9 L-313.25 -335.6 -312.4 -336.35 -312.25 -336.45 Q-310.75 -337.55 -309.05 -337.85 L-308.85 -337.85 -308.6 -337.9 -308.45 -337.9 -307.95 -338.0 -306.85 -337.9 -306.55 -337.9 -305.6 -337.7 Q-303.95 -337.15 -302.65 -336.0 L-302.35 -335.7 -301.85 -335.1 -301.0 -333.75 -300.8 -333.25 -300.55 -332.65 -300.3 -331.5 -300.3 -330.3 -300.15 -330.35 -300.0 -330.4 -299.55 -330.4 -298.35 -330.35 -298.05 -330.3 -297.1 -330.15 -295.45 -329.4 -294.2 -328.4 -293.4 -327.5 -292.5 -326.15 -292.3 -325.7 -292.05 -325.05 -291.8 -324.0 -291.8 -322.0 -291.9 -321.5 -292.0 -320.85 -292.1 -320.6 -292.35 -319.85 -292.8 -318.95 Q-293.5 -317.9 -294.65 -317.0 L-294.7 -316.95 -293.9 -316.05 Q-293.2 -315.2 -292.8 -314.25 -292.1 -312.5 -292.35 -310.5 L-292.7 -309.15 -292.95 -308.35 -292.75 -308.25 -291.95 -307.3 -290.85 -305.55 Q-290.1 -303.75 -290.35 -301.75 -290.45 -301.05 -290.7 -300.45 -291.3 -298.25 -293.2 -296.8 -294.6 -295.7 -296.1 -295.35 -295.65 -293.9 -295.85 -292.25 L-296.0 -291.1 -296.1 -290.85 -296.35 -290.1 Q-297.05 -288.5 -298.55 -287.35 L-298.65 -287.25 Q-300.55 -285.75 -302.85 -285.6 L-302.95 -285.6 -304.2 -285.65 -304.8 -285.7 -305.75 -286.0 Q-307.2 -286.45 -308.25 -287.5 L-308.5 -286.75 Q-309.25 -285.1 -310.85 -283.95 L-312.8 -282.75 -314.95 -282.3 -315.05 -282.3 -316.35 -282.35 -316.9 -282.4 Q-319.6 -282.95 -321.35 -285.2 L-321.5 -285.3 -321.6 -285.55 -322.55 -287.3 -322.8 -287.3 Q-325.2 -287.6 -327.1 -288.95 L-328.75 -288.7 -328.85 -288.7 -330.15 -288.75 -330.7 -288.8 Q-333.35 -289.35 -335.1 -291.55 L-335.25 -291.7 -335.4 -291.95 Q-336.05 -292.75 -336.35 -293.7 L-336.45 -294.05 -336.7 -295.7 -336.7 -297.05 -336.65 -297.3 -336.65 -297.35 -337.55 -298.4 -337.7 -298.55 Q-339.5 -300.9 -339.15 -303.95 L-339.1 -304.15 -339.2 -304.25 -339.75 -305.0 -341.0 -305.1 Q-344.1 -305.45 -346.05 -307.9 L-346.15 -308.0 Q-347.95 -310.4 -347.6 -313.45 -347.2 -316.5 -344.8 -318.45 L-344.15 -318.85 -344.45 -320.8 -344.4 -321.95 -344.4 -322.2 -344.1 -323.3 -343.6 -324.7 -343.2 -325.25 -341.55 -326.95 -340.45 -327.7 Q-339.45 -328.3 -338.25 -328.5" fill="#7d6c93" fill-opacity="0.2" fill-rule="evenodd" stroke="none"/>
    <path d="M258.25 -267.1 L220.25 -214.95 210.15 -222.3 248.15 -274.45 258.25 -267.1" fill="url(#gradient1)" fill-rule="evenodd" stroke="none"/>
  </g>
  <defs>
    <linearGradient gradientTransform="matrix(-0.0232, -0.0318, -0.0062, 0.0045, -233.85, -243.7)" gradientUnits="userSpaceOnUse" id="gradient0" spreadMethod="pad" x1="-819.2" x2="819.2">
      <stop offset="0.0" stop-color="#fd24fd"/>
      <stop offset="0.5411764705882353" stop-color="#660099" stop-opacity="0.0"/>
    </linearGradient>
    <linearGradient gradientTransform="matrix(0.0232, -0.0318, 0.0062, 0.0045, 234.2, -244.65)" gradientUnits="userSpaceOnUse" id="gradient1" spreadMethod="pad" x1="-819.2" x2="819.2">
      <stop offset="0.0" stop-color="#fd24fd"/>
      <stop offset="0.5411764705882353" stop-color="#660099" stop-opacity="0.0"/>
    </linearGradient>
  </defs>
</svg>
