<?xml version="1.0" encoding="UTF-8" standalone="no"?>
<svg xmlns:ffdec="https://www.free-decompiler.com/flash" xmlns:xlink="http://www.w3.org/1999/xlink" ffdec:objectType="shape" height="147.45px" width="714.35px" xmlns="http://www.w3.org/2000/svg">
  <g transform="matrix(1.0, 0.0, 0.0, 1.0, 321.25, 392.2)">
    <path d="M295.95 -359.2 L296.35 -358.0 296.6 -356.6 296.7 -356.65 296.9 -356.7 297.4 -356.8 298.7 -356.9 299.05 -356.9 300.15 -356.8 Q302.1 -356.5 303.65 -355.25 L304.7 -354.4 305.85 -353.05 306.2 -352.5 306.5 -351.8 306.9 -350.65 307.2 -348.35 307.15 -347.4 307.85 -346.85 309.0 -345.45 309.3 -344.95 309.65 -344.25 310.05 -343.05 310.35 -341.7 310.4 -341.75 310.6 -341.75 311.1 -341.85 312.4 -341.95 312.75 -341.95 313.85 -341.85 315.85 -341.25 317.35 -340.35 318.4 -339.45 319.55 -338.05 319.9 -337.55 320.2 -336.9 320.6 -335.65 320.9 -333.4 320.9 -332.85 320.85 -332.15 320.8 -331.8 320.6 -330.95 320.2 -329.9 Q319.55 -328.55 318.4 -327.45 L318.35 -327.35 319.35 -326.45 320.85 -324.55 Q321.9 -322.65 321.9 -320.45 L321.7 -318.85 321.55 -317.95 321.75 -317.8 322.75 -316.9 324.25 -315.0 Q325.3 -313.1 325.3 -310.85 L325.15 -309.25 Q324.7 -306.75 322.75 -304.85 321.4 -303.45 319.7 -302.8 320.35 -301.2 320.35 -299.35 L320.3 -298.1 320.25 -297.75 320.05 -296.85 Q319.5 -294.95 318.0 -293.45 L317.9 -293.35 Q316.0 -291.4 313.4 -290.95 L313.3 -290.95 311.9 -290.85 311.2 -290.85 310.1 -291.0 310.35 -288.8 310.3 -287.5 310.2 -287.2 310.05 -286.3 Q309.45 -284.35 307.85 -282.75 305.95 -280.85 303.4 -280.35 L303.3 -280.35 301.85 -280.3 301.2 -280.3 Q298.85 -280.45 296.95 -281.8 L296.8 -280.9 Q296.2 -278.95 294.6 -277.35 292.7 -275.45 290.15 -274.95 L290.05 -274.95 288.6 -274.9 287.95 -274.9 Q284.8 -275.15 282.6 -277.35 L282.4 -277.55 282.2 -277.75 282.05 -277.65 Q280.15 -275.7 277.6 -275.2 L277.5 -275.2 276.1 -275.15 275.4 -275.15 Q273.05 -275.3 271.2 -276.65 L271.0 -275.75 Q270.45 -273.8 268.85 -272.25 L266.8 -270.6 264.4 -269.8 264.35 -269.8 264.25 -269.8 262.85 -269.7 262.15 -269.7 Q259.05 -269.95 256.8 -272.25 L256.65 -272.35 256.45 -272.55 Q255.65 -273.45 255.1 -274.5 L254.85 -274.5 Q252.1 -274.5 249.8 -275.75 L248.0 -275.2 247.9 -275.2 246.45 -275.1 245.75 -275.1 Q242.7 -275.35 240.4 -277.6 L240.3 -277.75 240.05 -277.95 Q239.2 -278.85 238.75 -279.85 L238.6 -280.15 Q238.2 -281.05 238.05 -282.05 237.9 -282.75 237.9 -283.6 L237.9 -283.8 237.9 -283.95 236.7 -284.95 236.55 -285.1 Q234.2 -287.55 234.2 -291.0 L234.2 -291.2 234.05 -291.35 233.35 -292.15 231.9 -292.05 Q228.4 -292.05 225.9 -294.55 L225.75 -294.65 Q223.4 -297.1 223.4 -300.55 223.4 -304.05 225.9 -306.6 L226.55 -307.2 Q225.85 -308.75 225.85 -310.6 L225.85 -310.85 Q225.85 -311.6 226.0 -312.15 223.15 -312.5 221.0 -314.65 L220.85 -314.8 Q218.5 -317.25 218.5 -320.65 218.5 -324.15 221.0 -326.7 L221.65 -327.25 Q221.0 -328.85 221.0 -330.7 L221.0 -330.95 Q221.0 -332.55 221.55 -333.9 L221.9 -334.6 Q222.5 -335.75 223.5 -336.75 L224.65 -337.7 Q225.75 -338.5 227.05 -338.85 L227.3 -338.9 227.55 -339.0 227.7 -339.05 228.2 -339.15 228.45 -339.15 228.35 -340.7 228.35 -340.95 Q228.4 -342.6 228.9 -343.9 L229.25 -344.65 Q229.85 -345.8 230.85 -346.75 L232.1 -347.8 232.0 -349.1 232.0 -349.35 232.15 -350.65 232.55 -352.3 232.95 -353.05 234.5 -355.15 235.65 -356.05 Q236.75 -356.9 238.05 -357.25 L238.3 -357.3 238.55 -357.4 238.75 -357.4 239.2 -357.55 239.45 -357.6 239.35 -359.1 239.35 -359.35 Q239.4 -360.95 239.9 -362.3 L240.3 -363.05 241.85 -365.2 Q243.4 -366.7 245.4 -367.3 L245.65 -367.35 245.95 -367.4 246.1 -367.45 246.6 -367.55 247.9 -367.65 248.25 -367.65 249.35 -367.55 Q251.3 -367.25 252.9 -366.05 L253.0 -365.95 253.85 -366.9 Q255.4 -368.45 257.4 -369.0 L257.65 -369.05 257.9 -369.15 258.1 -369.2 258.6 -369.3 259.9 -369.4 260.25 -369.4 261.35 -369.3 Q263.2 -369.0 264.8 -367.85 L265.3 -368.65 266.15 -369.6 266.35 -369.8 Q267.8 -371.2 269.65 -371.7 L269.9 -371.75 270.2 -371.9 270.4 -371.9 270.9 -372.0 272.2 -372.1 272.55 -372.1 273.65 -372.0 Q275.6 -371.7 277.2 -370.5 L278.2 -369.6 279.35 -368.2 279.65 -367.7 280.0 -367.05 280.45 -365.85 280.65 -364.45 280.75 -364.5 280.95 -364.55 281.45 -364.65 282.75 -364.75 283.1 -364.75 284.2 -364.65 286.2 -364.05 286.35 -364.1 286.85 -364.15 288.15 -364.3 288.5 -364.3 289.55 -364.15 Q291.5 -363.9 293.1 -362.65 L294.15 -361.75 295.3 -360.4 295.65 -359.85 295.95 -359.2" fill="#7d6c93" fill-opacity="0.34901962" fill-rule="evenodd" stroke="none"/>
    <path d="M387.95 -372.5 L389.2 -371.5 390.0 -370.6 390.9 -369.25 391.1 -368.8 391.35 -368.15 391.6 -367.1 391.6 -365.1 391.5 -364.6 391.4 -363.95 391.3 -363.7 391.05 -362.95 390.6 -362.05 Q389.9 -361.0 388.75 -360.1 L388.7 -360.05 389.5 -359.15 390.6 -357.35 Q391.3 -355.6 391.05 -353.6 L390.7 -352.25 390.45 -351.45 390.65 -351.35 391.45 -350.4 392.55 -348.65 Q393.3 -346.85 393.05 -344.85 L392.7 -343.55 Q392.1 -341.35 390.2 -339.9 388.8 -338.8 387.3 -338.45 387.75 -337.0 387.55 -335.35 L387.4 -334.2 387.3 -333.95 387.05 -333.2 Q386.35 -331.6 384.85 -330.45 L384.75 -330.35 Q382.85 -328.85 380.55 -328.7 L380.45 -328.7 379.2 -328.75 378.6 -328.8 377.65 -329.1 Q376.2 -329.55 375.15 -330.6 L374.9 -329.85 Q374.15 -328.2 372.55 -327.05 371.65 -326.25 370.6 -325.85 L368.45 -325.4 368.35 -325.4 367.05 -325.45 366.5 -325.5 Q363.8 -326.05 362.05 -328.3 L361.9 -328.4 361.8 -328.65 Q361.15 -329.5 360.85 -330.4 L360.6 -330.4 Q358.2 -330.7 356.3 -332.05 L354.65 -331.8 354.55 -331.8 353.25 -331.85 352.7 -331.9 Q350.05 -332.45 348.3 -334.65 L348.15 -334.8 348.0 -335.05 Q347.35 -335.85 347.05 -336.8 L346.95 -337.15 Q346.7 -337.9 346.7 -338.8 L346.7 -340.15 346.75 -340.4 346.75 -340.45 345.85 -341.5 345.7 -341.65 Q343.9 -344.0 344.25 -347.05 L344.3 -347.25 344.2 -347.35 343.65 -348.1 342.4 -348.2 Q339.3 -348.55 337.35 -351.0 L337.25 -351.1 Q335.45 -353.5 335.8 -356.55 336.2 -359.6 338.6 -361.55 L339.25 -361.95 338.95 -363.9 339.0 -365.05 339.0 -365.3 339.3 -366.4 339.8 -367.8 340.2 -368.35 341.85 -370.05 Q342.3 -370.5 342.95 -370.8 343.95 -371.4 345.15 -371.6 L345.35 -371.6 345.6 -371.6 345.8 -371.65 346.25 -371.7 346.45 -371.7 Q346.4 -372.35 346.5 -373.0 L346.5 -373.25 Q346.65 -374.6 347.3 -375.8 L347.65 -376.4 Q348.3 -377.35 349.3 -378.1 350.85 -379.25 352.6 -379.55 L352.8 -379.55 353.05 -379.6 353.25 -379.6 353.65 -379.65 354.85 -379.6 355.15 -379.55 356.1 -379.4 Q357.8 -378.9 359.0 -377.7 L359.15 -377.55 359.95 -378.35 Q361.5 -379.55 363.3 -379.85 L363.55 -379.8 363.8 -379.9 363.95 -379.85 364.35 -379.9 365.5 -379.9 365.85 -379.85 366.8 -379.65 Q368.4 -379.2 369.65 -378.0 L370.15 -378.7 371.0 -379.45 371.15 -379.55 Q372.65 -380.65 374.35 -380.95 L374.55 -380.95 374.8 -381.0 374.95 -381.0 375.45 -381.1 376.55 -381.0 376.85 -381.0 377.8 -380.8 Q379.45 -380.25 380.75 -379.1 L381.05 -378.8 381.55 -378.2 382.4 -376.85 382.6 -376.35 382.85 -375.75 383.1 -374.6 383.1 -373.4 383.25 -373.45 383.4 -373.5 383.85 -373.5 385.05 -373.45 385.35 -373.4 386.3 -373.25 387.95 -372.5" fill="#7d6c93" fill-opacity="0.2" fill-rule="evenodd" stroke="none"/>
    <path d="M-197.5 -315.4 L-197.15 -314.45 -196.95 -313.35 -196.9 -313.4 -196.75 -313.45 -196.35 -313.5 -195.3 -313.6 -195.05 -313.6 -194.15 -313.5 Q-192.65 -313.25 -191.4 -312.3 L-190.55 -311.6 -189.65 -310.55 -189.4 -310.1 -189.15 -309.55 -188.85 -308.65 -188.6 -306.85 -188.65 -306.1 -188.1 -305.65 -187.2 -304.55 -186.95 -304.15 -186.65 -303.6 -186.35 -302.65 -186.1 -301.6 -186.05 -301.65 -185.9 -301.65 -185.5 -301.7 -184.5 -301.8 -184.2 -301.8 -183.35 -301.7 -181.75 -301.25 -180.6 -300.5 -179.75 -299.8 -178.85 -298.7 -178.55 -298.3 -178.35 -297.8 -178.0 -296.8 -177.8 -295.05 -177.8 -294.6 -177.8 -294.05 -177.85 -293.75 -178.0 -293.1 -178.35 -292.25 Q-178.85 -291.2 -179.75 -290.35 L-179.8 -290.25 -179.0 -289.55 -177.8 -288.05 Q-177.0 -286.55 -177.0 -284.8 -177.0 -284.15 -177.15 -283.55 L-177.25 -282.85 -177.1 -282.7 -176.3 -282.0 -175.15 -280.5 Q-174.3 -279.0 -174.3 -277.25 L-174.45 -275.95 Q-174.8 -274.0 -176.3 -272.5 -177.4 -271.4 -178.75 -270.9 -178.2 -269.6 -178.2 -268.15 L-178.25 -267.15 -178.3 -266.9 -178.45 -266.2 Q-178.9 -264.7 -180.05 -263.5 L-180.15 -263.4 Q-181.65 -261.9 -183.7 -261.5 L-183.8 -261.5 -184.9 -261.45 -185.45 -261.45 -186.3 -261.55 -186.1 -259.8 -186.15 -258.8 -186.25 -258.55 -186.35 -257.85 Q-186.8 -256.3 -188.1 -255.05 -189.6 -253.55 -191.6 -253.15 L-191.7 -253.15 -192.8 -253.1 -193.35 -253.1 Q-195.2 -253.25 -196.7 -254.3 L-196.8 -253.6 Q-197.3 -252.05 -198.55 -250.8 -200.05 -249.3 -202.05 -248.9 L-202.15 -248.9 -203.3 -248.85 -203.8 -248.85 Q-206.3 -249.05 -208.0 -250.8 L-208.2 -250.95 -208.35 -251.1 -208.45 -251.0 Q-209.95 -249.5 -211.95 -249.1 L-212.05 -249.1 -213.15 -249.05 -213.7 -249.05 Q-215.55 -249.15 -217.0 -250.25 L-217.2 -249.5 Q-217.6 -248.0 -218.9 -246.75 L-220.5 -245.45 Q-221.4 -245.05 -222.4 -244.8 L-222.45 -244.8 -222.5 -244.8 -223.6 -244.75 -224.15 -244.75 Q-226.6 -244.95 -228.4 -246.75 L-228.5 -246.85 -228.65 -247.0 -229.75 -248.55 -229.95 -248.55 Q-232.1 -248.55 -233.9 -249.5 L-235.35 -249.1 -235.4 -249.1 -236.55 -249.0 -237.1 -249.0 Q-239.55 -249.2 -241.35 -251.0 L-241.4 -251.1 -241.6 -251.25 -242.65 -252.75 -242.75 -253.0 -243.2 -254.5 -243.3 -255.7 -243.3 -255.85 -243.3 -256.0 -244.25 -256.8 -244.4 -256.9 Q-246.25 -258.85 -246.25 -261.55 L-246.25 -261.7 -246.35 -261.85 -246.9 -262.45 -248.05 -262.4 Q-250.8 -262.4 -252.8 -264.35 L-252.9 -264.45 Q-254.75 -266.4 -254.75 -269.1 -254.75 -271.85 -252.8 -273.9 L-252.3 -274.35 Q-252.85 -275.55 -252.85 -277.05 L-252.85 -277.25 -252.7 -278.25 Q-254.95 -278.55 -256.65 -280.25 L-256.8 -280.35 Q-258.65 -282.3 -258.65 -284.95 -258.65 -287.75 -256.65 -289.75 L-256.15 -290.2 Q-256.65 -291.45 -256.65 -292.9 L-256.65 -293.1 Q-256.65 -294.35 -256.25 -295.45 L-255.95 -296.0 -254.7 -297.7 -253.8 -298.45 Q-252.9 -299.05 -251.9 -299.35 L-251.7 -299.4 -251.5 -299.45 -251.35 -299.5 -250.95 -299.6 -250.8 -299.6 -250.85 -300.8 -250.85 -301.0 Q-250.8 -302.3 -250.4 -303.35 L-250.15 -303.9 -248.9 -305.6 -247.9 -306.4 -247.95 -307.45 -247.95 -307.65 -247.85 -308.65 -247.55 -309.95 -247.2 -310.55 -246.0 -312.2 -245.1 -312.9 Q-244.2 -313.6 -243.2 -313.85 L-243.0 -313.9 -242.8 -314.0 -242.65 -314.0 -242.3 -314.1 -242.1 -314.15 -242.15 -315.35 -242.15 -315.55 Q-242.15 -316.8 -241.75 -317.85 L-241.4 -318.45 -240.2 -320.15 Q-238.95 -321.35 -237.4 -321.8 L-237.2 -321.85 -236.95 -321.9 -236.85 -321.9 -236.45 -322.0 -235.4 -322.1 -235.15 -322.1 -234.3 -322.0 Q-232.75 -321.75 -231.45 -320.8 L-231.4 -320.75 -230.7 -321.5 Q-229.5 -322.7 -227.9 -323.15 L-227.7 -323.2 -227.5 -323.25 -227.35 -323.3 -226.95 -323.4 -225.95 -323.45 -225.65 -323.45 -224.8 -323.4 Q-223.35 -323.15 -222.1 -322.25 L-221.7 -322.85 -221.0 -323.6 -220.85 -323.8 Q-219.7 -324.9 -218.25 -325.3 L-218.05 -325.3 -217.8 -325.45 -217.65 -325.45 -217.25 -325.5 -216.25 -325.6 -215.95 -325.6 -215.1 -325.5 Q-213.55 -325.3 -212.3 -324.35 L-211.5 -323.6 -210.6 -322.5 -210.35 -322.1 -210.1 -321.6 -209.7 -320.65 -209.55 -319.55 -209.5 -319.6 -209.35 -319.65 -208.95 -319.7 -207.9 -319.8 -207.65 -319.8 -206.75 -319.7 -205.2 -319.25 -205.05 -319.3 -204.65 -319.3 -203.65 -319.45 -203.35 -319.45 -202.55 -319.3 Q-201.0 -319.1 -199.75 -318.15 L-198.9 -317.4 -198.0 -316.35 -197.7 -315.9 -197.5 -315.4" fill="#7d6c93" fill-opacity="0.34901962" fill-rule="evenodd" stroke="none"/>
    <path d="M-196.8 -383.6 Q-196.1 -383.2 -195.55 -382.6 L-194.75 -381.7 -193.85 -380.35 -193.65 -379.9 -193.4 -379.25 -193.15 -378.2 -193.15 -376.2 -193.25 -375.7 -193.35 -375.05 -193.45 -374.8 -193.7 -374.05 -194.15 -373.15 Q-194.85 -372.1 -196.0 -371.2 L-196.05 -371.15 -195.25 -370.25 -194.15 -368.45 Q-193.45 -366.7 -193.7 -364.7 -193.8 -364.0 -194.05 -363.35 L-194.3 -362.55 -194.1 -362.45 -193.3 -361.5 Q-192.6 -360.7 -192.2 -359.75 -191.45 -357.95 -191.7 -355.95 -191.8 -355.25 -192.05 -354.65 -192.65 -352.45 -194.55 -351.0 -195.95 -349.9 -197.45 -349.55 -197.0 -348.1 -197.2 -346.45 L-197.35 -345.3 -197.45 -345.05 -197.7 -344.3 Q-198.4 -342.7 -199.9 -341.55 L-200.0 -341.45 Q-201.9 -339.95 -204.2 -339.8 L-204.3 -339.8 -205.55 -339.85 -206.15 -339.9 -207.1 -340.2 Q-208.55 -340.65 -209.6 -341.7 L-209.85 -340.95 Q-210.6 -339.3 -212.2 -338.15 -213.1 -337.35 -214.15 -336.95 -215.2 -336.55 -216.3 -336.5 L-216.4 -336.5 -217.7 -336.55 -218.25 -336.6 Q-220.95 -337.15 -222.7 -339.4 L-222.85 -339.5 -222.95 -339.75 -223.9 -341.5 -224.15 -341.5 Q-226.55 -341.8 -228.45 -343.15 L-230.1 -342.9 -230.2 -342.9 -231.5 -342.95 -232.05 -343.0 Q-234.7 -343.55 -236.45 -345.75 L-236.6 -345.9 -236.75 -346.15 Q-237.4 -346.95 -237.7 -347.9 L-237.8 -348.25 -238.05 -349.9 -238.05 -351.25 -238.0 -351.5 -238.0 -351.55 -238.9 -352.6 -239.05 -352.75 Q-240.85 -355.1 -240.5 -358.15 L-240.45 -358.35 -240.55 -358.45 -241.1 -359.2 -242.35 -359.3 Q-245.45 -359.65 -247.4 -362.1 L-247.5 -362.2 Q-249.3 -364.6 -248.95 -367.65 -248.55 -370.7 -246.15 -372.65 L-245.5 -373.05 -245.8 -375.0 -245.75 -376.15 -245.75 -376.4 -245.45 -377.5 -244.95 -378.9 -244.55 -379.45 -242.9 -381.15 -241.8 -381.9 Q-240.8 -382.5 -239.6 -382.7 L-239.4 -382.7 -239.15 -382.7 -238.95 -382.75 -238.5 -382.8 -238.3 -382.8 -238.25 -384.1 -238.25 -384.35 Q-238.1 -385.7 -237.45 -386.9 L-237.1 -387.5 -235.45 -389.2 Q-233.9 -390.35 -232.15 -390.65 L-231.95 -390.65 -231.7 -390.7 -231.5 -390.7 -231.1 -390.75 -229.9 -390.7 -229.6 -390.65 -228.65 -390.5 Q-226.95 -390.0 -225.75 -388.8 L-225.6 -388.65 -224.8 -389.45 Q-223.25 -390.65 -221.45 -390.95 L-221.2 -390.9 -220.95 -391.0 -220.8 -390.95 -220.4 -391.0 -219.25 -391.0 -218.9 -390.95 -217.95 -390.75 Q-216.35 -390.3 -215.1 -389.1 L-214.6 -389.8 -213.75 -390.55 -213.6 -390.65 Q-212.1 -391.75 -210.4 -392.05 L-210.2 -392.05 -209.95 -392.1 -209.8 -392.1 -209.3 -392.2 -208.2 -392.1 -207.9 -392.1 -206.95 -391.9 Q-205.3 -391.35 -204.0 -390.2 L-203.7 -389.9 -203.2 -389.3 -202.35 -387.95 -202.15 -387.45 -201.9 -386.85 -201.65 -385.7 -201.65 -384.5 -201.5 -384.55 -201.35 -384.6 -200.9 -384.6 -199.7 -384.55 -199.4 -384.5 -198.45 -384.35 -196.8 -383.6" fill="#7d6c93" fill-opacity="0.2" fill-rule="evenodd" stroke="none"/>
    <path d="M-281.7 -360.65 Q-281.15 -360.35 -280.75 -359.9 L-280.1 -359.25 -279.45 -358.2 -279.3 -357.85 -279.1 -357.35 -278.9 -356.6 -278.9 -355.05 -279.0 -354.7 -279.05 -354.2 -279.15 -354.0 -279.35 -353.45 -279.65 -352.75 -281.05 -351.25 -281.1 -351.25 -280.5 -350.55 -279.65 -349.2 Q-279.15 -347.85 -279.35 -346.35 L-279.6 -345.3 -279.8 -344.7 -279.65 -344.65 -279.05 -343.9 -278.2 -342.6 Q-277.6 -341.25 -277.8 -339.7 L-278.1 -338.75 Q-278.55 -337.05 -279.95 -335.95 -281.05 -335.15 -282.15 -334.85 -281.85 -333.75 -282.0 -332.5 L-282.1 -331.65 -282.15 -331.45 -282.35 -330.9 Q-282.9 -329.7 -284.05 -328.8 L-284.1 -328.75 Q-285.55 -327.6 -287.3 -327.5 L-287.35 -327.5 -288.3 -327.5 -288.75 -327.55 -289.5 -327.8 -291.4 -328.9 -291.55 -328.35 Q-292.15 -327.1 -293.35 -326.25 -294.05 -325.65 -294.8 -325.3 L-296.45 -325.0 -296.55 -325.0 -297.5 -325.0 -297.95 -325.05 Q-299.95 -325.5 -301.3 -327.2 L-301.4 -327.25 -301.5 -327.45 -302.2 -328.75 -302.4 -328.75 Q-304.2 -329.0 -305.65 -330.0 L-306.9 -329.85 -307.0 -329.85 -307.95 -329.85 -308.4 -329.9 Q-310.4 -330.3 -311.7 -332.0 L-311.85 -332.1 -311.95 -332.3 -312.65 -333.6 -312.75 -333.9 -312.95 -335.15 -312.95 -336.15 -312.9 -336.35 -312.9 -336.4 -313.55 -337.2 -313.7 -337.3 Q-315.05 -339.05 -314.8 -341.4 L-314.75 -341.55 -314.8 -341.6 -315.25 -342.2 -316.2 -342.25 Q-318.55 -342.5 -320.0 -344.4 L-320.1 -344.45 Q-321.45 -346.25 -321.2 -348.6 -320.9 -350.9 -319.05 -352.35 L-318.55 -352.65 -318.8 -354.15 -318.75 -355.0 -318.75 -355.2 -318.55 -356.05 -318.15 -357.1 -317.85 -357.5 -316.6 -358.8 -315.75 -359.4 Q-315.0 -359.85 -314.1 -360.0 L-313.95 -360.0 -313.75 -360.0 -313.6 -360.0 -313.25 -360.05 -313.1 -360.05 -313.1 -361.05 -313.1 -361.25 -312.5 -363.15 -312.2 -363.6 -310.95 -364.9 Q-309.8 -365.8 -308.45 -366.0 L-308.3 -366.0 -308.1 -366.05 -307.95 -366.05 -307.65 -366.1 -306.75 -366.05 -306.55 -366.0 -305.8 -365.9 Q-304.5 -365.5 -303.6 -364.6 L-303.5 -364.5 -302.9 -365.1 Q-301.7 -366.0 -300.35 -366.25 L-300.15 -366.2 -299.95 -366.25 -299.85 -366.25 -299.55 -366.25 -298.7 -366.25 -298.4 -366.25 -297.7 -366.1 Q-296.5 -365.75 -295.55 -364.85 L-295.15 -365.35 -294.5 -365.95 -294.4 -366.0 Q-293.25 -366.85 -292.0 -367.05 L-291.85 -367.05 -291.65 -367.1 -291.55 -367.1 -291.15 -367.2 -290.3 -367.1 -290.1 -367.1 -289.35 -366.95 Q-288.1 -366.55 -287.15 -365.65 L-286.9 -365.45 -286.55 -365.0 -285.9 -363.95 -285.75 -363.6 -285.55 -363.15 -285.35 -362.25 -285.35 -361.35 -285.25 -361.4 -285.1 -361.4 -284.8 -361.4 -283.85 -361.4 -283.65 -361.35 -282.95 -361.25 -281.7 -360.65" fill="#7d6c93" fill-opacity="0.2" fill-rule="evenodd" stroke="none"/>
  </g>
</svg>
