<?xml version="1.0" encoding="UTF-8" standalone="no"?>
<svg xmlns:ffdec="https://www.free-decompiler.com/flash" xmlns:xlink="http://www.w3.org/1999/xlink" ffdec:objectType="shape" height="158.85px" width="679.05px" xmlns="http://www.w3.org/2000/svg">
  <g transform="matrix(1.0, 0.0, 0.0, 1.0, 262.25, 435.6)">
    <path d="M346.5 -421.6 L347.4 -420.55 347.65 -420.1 347.9 -419.55 348.2 -418.6 348.45 -416.8 348.4 -416.05 348.95 -415.6 349.9 -414.5 350.1 -414.1 350.4 -413.55 350.7 -412.6 350.95 -411.55 351.0 -411.55 351.15 -411.55 351.55 -411.65 352.6 -411.75 352.85 -411.75 353.7 -411.65 355.3 -411.2 356.5 -410.45 357.35 -409.75 358.25 -408.65 358.5 -408.25 358.75 -407.75 359.05 -406.75 359.3 -404.95 359.3 -404.5 359.25 -403.95 359.25 -403.7 359.05 -403.0 358.75 -402.2 Q358.25 -401.1 357.35 -400.25 L357.3 -400.15 358.1 -399.45 359.25 -397.95 Q360.1 -396.45 360.1 -394.7 L359.95 -393.45 359.8 -392.7 360.0 -392.6 360.75 -391.9 361.95 -390.4 Q362.8 -388.9 362.8 -387.1 L362.65 -385.85 Q362.3 -383.85 360.75 -382.35 359.7 -381.25 358.35 -380.7 358.85 -379.45 358.85 -378.0 L358.85 -377.0 358.8 -376.7 358.65 -376.0 Q358.2 -374.5 357.0 -373.3 L356.95 -373.25 Q355.45 -371.7 353.35 -371.35 L353.3 -371.35 352.2 -371.25 351.6 -371.25 350.75 -371.35 350.95 -369.65 350.9 -368.6 350.85 -368.35 350.7 -367.65 Q350.25 -366.1 348.95 -364.85 347.45 -363.35 345.45 -362.95 L345.35 -362.95 344.2 -362.9 343.7 -362.9 Q341.85 -363.0 340.35 -364.1 L340.2 -363.35 Q339.75 -361.85 338.5 -360.55 336.95 -359.05 334.95 -358.65 L334.85 -358.65 333.7 -358.6 333.2 -358.6 Q330.7 -358.8 328.95 -360.55 L328.8 -360.7 328.65 -360.9 328.55 -360.8 Q327.05 -359.25 325.0 -358.85 L324.95 -358.85 323.8 -358.8 323.25 -358.8 Q321.4 -358.95 319.95 -360.0 L319.8 -359.3 Q319.35 -357.75 318.1 -356.5 L316.45 -355.2 314.55 -354.6 314.45 -354.6 313.35 -354.5 312.75 -354.5 Q310.3 -354.7 308.55 -356.5 L308.4 -356.6 308.25 -356.75 Q307.6 -357.45 307.2 -358.3 L307.0 -358.3 Q304.8 -358.3 303.0 -359.3 L301.55 -358.85 301.5 -358.85 300.35 -358.8 299.8 -358.8 Q297.35 -359.0 295.55 -360.75 L295.45 -360.9 295.25 -361.05 Q294.6 -361.75 294.25 -362.55 L294.1 -362.8 293.7 -364.3 Q293.55 -364.85 293.55 -365.5 L293.55 -365.65 293.55 -365.8 292.6 -366.6 292.5 -366.7 Q290.65 -368.65 290.65 -371.35 L290.65 -371.55 290.5 -371.65 289.95 -372.3 288.8 -372.2 Q286.05 -372.2 284.05 -374.2 L283.95 -374.25 Q282.1 -376.2 282.1 -378.95 282.1 -381.7 284.05 -383.75 L284.55 -384.2 Q284.0 -385.45 284.0 -386.9 L284.0 -387.1 284.15 -388.15 Q281.9 -388.4 280.15 -390.1 L280.05 -390.25 Q278.2 -392.15 278.2 -394.85 278.2 -397.65 280.15 -399.65 L280.7 -400.1 Q280.15 -401.35 280.15 -402.8 L280.15 -403.0 Q280.15 -404.3 280.6 -405.35 L280.9 -405.9 282.15 -407.6 283.05 -408.35 Q283.95 -409.0 284.95 -409.3 L285.15 -409.3 285.35 -409.4 285.5 -409.45 285.9 -409.5 286.1 -409.5 286.0 -410.75 286.0 -410.95 Q286.05 -412.25 286.45 -413.3 L286.7 -413.85 288.0 -415.55 Q288.4 -416.05 288.95 -416.35 L288.9 -417.4 288.9 -417.6 289.0 -418.6 289.3 -419.95 289.65 -420.55 290.85 -422.2 291.8 -422.9 Q292.65 -423.55 293.7 -423.85 L293.9 -423.9 294.1 -423.95 294.25 -423.95 294.6 -424.1 294.8 -424.15 294.7 -425.3 294.7 -425.5 Q294.75 -426.8 295.15 -427.85 L295.45 -428.45 296.7 -430.15 Q297.9 -431.35 299.5 -431.8 L299.7 -431.85 299.95 -431.9 300.05 -431.95 300.45 -432.0 301.5 -432.1 301.75 -432.1 302.65 -432.0 Q304.2 -431.75 305.45 -430.8 L305.5 -430.75 306.2 -431.5 Q307.4 -432.7 309.0 -433.15 L309.2 -433.2 309.4 -433.3 309.55 -433.3 309.95 -433.4 311.0 -433.5 311.25 -433.5 312.15 -433.4 Q313.6 -433.15 314.85 -432.25 L315.25 -432.9 315.95 -433.65 316.1 -433.8 Q317.25 -434.9 318.7 -435.3 L318.9 -435.35 319.15 -435.45 319.3 -435.45 319.7 -435.55 320.75 -435.6 321.0 -435.6 321.9 -435.55 Q323.4 -435.3 324.7 -434.35 L325.5 -433.65 326.4 -432.55 326.65 -432.15 326.9 -431.6 327.25 -430.65 327.4 -429.55 327.5 -429.6 327.65 -429.65 328.05 -429.7 329.1 -429.8 329.35 -429.8 330.25 -429.7 331.8 -429.25 331.95 -429.3 332.35 -429.3 333.35 -429.45 333.65 -429.45 334.45 -429.3 Q336.0 -429.1 337.3 -428.15 L338.1 -427.4 339.05 -426.35 339.3 -425.9 339.55 -425.4 339.85 -424.45 340.05 -423.35 340.15 -423.4 340.3 -423.4 340.7 -423.5 341.7 -423.55 342.0 -423.55 342.85 -423.5 Q344.4 -423.25 345.65 -422.25 L346.5 -421.6" fill="#7d6c93" fill-opacity="0.2" fill-rule="evenodd" stroke="none"/>
    <path d="M384.1 -405.3 L384.8 -405.75 386.2 -406.25 386.35 -406.25 386.5 -406.25 386.6 -406.3 386.9 -406.35 387.05 -406.35 387.05 -407.15 387.05 -407.3 Q387.15 -408.2 387.6 -408.95 L387.8 -409.35 388.85 -410.4 Q389.85 -411.15 390.95 -411.35 L391.1 -411.35 391.25 -411.35 391.35 -411.35 391.65 -411.4 392.4 -411.35 392.6 -411.35 393.2 -411.25 Q394.25 -410.9 395.05 -410.15 L395.15 -410.05 395.65 -410.55 Q396.65 -411.35 397.8 -411.55 L397.95 -411.5 398.1 -411.55 398.2 -411.55 398.45 -411.55 399.2 -411.55 399.4 -411.55 400.0 -411.4 Q401.05 -411.1 401.8 -410.35 L402.15 -410.8 402.7 -411.25 402.8 -411.35 Q403.75 -412.05 404.8 -412.25 L404.95 -412.25 405.1 -412.25 405.2 -412.25 405.5 -412.3 406.2 -412.25 406.4 -412.25 407.0 -412.15 Q408.05 -411.8 408.9 -411.05 L409.1 -410.85 409.4 -410.45 409.95 -409.6 410.1 -409.3 410.25 -408.9 410.4 -408.2 410.4 -407.4 410.5 -407.45 410.6 -407.5 410.85 -407.5 411.65 -407.45 411.85 -407.4 412.45 -407.3 413.5 -406.85 414.3 -406.2 414.8 -405.65 415.35 -404.75 415.5 -404.5 415.65 -404.05 415.8 -403.4 415.8 -402.1 415.75 -401.8 415.7 -401.4 415.6 -401.25 415.45 -400.75 415.2 -400.2 414.0 -398.95 413.95 -398.9 414.5 -398.35 415.2 -397.2 Q415.6 -396.05 415.45 -394.8 L415.25 -393.95 415.1 -393.45 415.2 -393.35 415.7 -392.75 416.4 -391.65 Q416.9 -390.5 416.75 -389.2 L416.5 -388.4 Q416.15 -387.0 414.9 -386.05 414.05 -385.35 413.05 -385.15 413.35 -384.2 413.25 -383.15 L413.15 -382.45 413.05 -382.25 412.9 -381.8 Q412.45 -380.75 411.5 -380.05 L411.45 -380.0 Q410.25 -379.0 408.75 -378.95 L408.7 -378.95 407.9 -378.95 407.55 -379.0 406.9 -379.2 Q406.0 -379.45 405.35 -380.15 L405.15 -379.65 Q404.7 -378.6 403.65 -377.9 L402.45 -377.1 401.05 -376.8 401.0 -376.8 400.15 -376.85 399.8 -376.9 Q398.1 -377.25 397.0 -378.65 L396.9 -378.75 396.8 -378.9 396.2 -380.0 396.05 -380.0 Q394.55 -380.2 393.3 -381.05 L392.25 -380.9 392.2 -380.9 391.35 -380.95 391.0 -380.95 Q389.35 -381.3 388.2 -382.7 L388.1 -382.8 388.05 -382.95 387.4 -384.1 387.35 -384.3 Q387.2 -384.8 387.2 -385.35 L387.2 -386.2 387.25 -386.4 386.65 -387.1 386.55 -387.2 Q385.4 -388.7 385.65 -390.6 L385.65 -390.75 385.6 -390.8 385.25 -391.3 384.45 -391.35 Q382.5 -391.6 381.25 -393.15 L381.2 -393.2 Q380.05 -394.75 380.25 -396.7 380.5 -398.6 382.05 -399.85 L382.45 -400.1 382.25 -401.35 382.3 -402.1 382.3 -402.25 382.5 -402.95 382.8 -403.85 383.05 -404.2 384.1 -405.3" fill="#7d6c93" fill-opacity="0.09803922" fill-rule="evenodd" stroke="none"/>
    <path d="M-210.05 -376.7 L-209.45 -376.05 -209.3 -375.75 -209.15 -375.4 -208.95 -374.85 -208.8 -373.7 -208.85 -373.2 -208.5 -372.95 -207.9 -372.25 -207.75 -372.0 -207.6 -371.65 -207.4 -371.05 -207.25 -370.4 -207.2 -370.4 -207.1 -370.4 -206.85 -370.45 -206.2 -370.5 -206.05 -370.5 -205.5 -370.45 -204.5 -370.15 -203.75 -369.7 -203.2 -369.25 -202.65 -368.55 -202.45 -368.3 -202.3 -368.0 -202.15 -367.35 -201.95 -366.2 -201.95 -365.95 -202.0 -365.6 -202.0 -365.45 -202.15 -365.0 -202.3 -364.5 -203.2 -363.25 -203.25 -363.2 -202.75 -362.75 -202.0 -361.8 Q-201.45 -360.85 -201.45 -359.75 L-201.55 -358.95 -201.65 -358.5 -201.55 -358.45 -201.05 -358.0 -200.3 -357.05 Q-199.75 -356.1 -199.75 -354.95 L-199.85 -354.15 Q-200.1 -352.9 -201.05 -351.95 -201.7 -351.25 -202.55 -350.95 -202.25 -350.15 -202.25 -349.2 L-202.25 -348.6 -202.3 -348.4 -202.4 -347.95 Q-202.65 -347.0 -203.4 -346.25 L-203.45 -346.25 Q-204.4 -345.25 -205.7 -345.05 L-205.75 -345.05 -206.45 -344.95 -206.85 -344.95 -207.35 -345.05 -207.25 -343.95 -207.25 -343.3 -207.3 -343.15 -207.4 -342.7 Q-207.7 -341.7 -208.5 -340.95 -209.45 -340.0 -210.7 -339.75 L-210.75 -339.75 -211.5 -339.7 -211.8 -339.7 Q-212.95 -339.75 -213.9 -340.45 L-214.0 -340.0 Q-214.3 -339.05 -215.1 -338.2 -216.05 -337.25 -217.35 -337.0 L-217.4 -337.0 -218.1 -337.0 -218.45 -337.0 Q-220.0 -337.1 -221.1 -338.2 L-221.2 -338.3 -221.3 -338.45 -221.35 -338.4 Q-222.3 -337.4 -223.6 -337.15 L-223.65 -337.15 -224.35 -337.1 -224.7 -337.1 Q-225.85 -337.2 -226.8 -337.85 L-226.9 -337.45 Q-227.15 -336.45 -227.95 -335.65 L-229.0 -334.85 Q-229.55 -334.6 -230.2 -334.45 L-230.25 -334.45 -230.95 -334.4 -231.35 -334.4 Q-232.85 -334.55 -233.95 -335.65 L-234.05 -335.75 -234.15 -335.8 -234.8 -336.8 -234.95 -336.8 Q-236.35 -336.8 -237.45 -337.45 L-238.4 -337.15 -239.15 -337.1 -239.5 -337.1 Q-241.05 -337.25 -242.15 -338.35 L-242.25 -338.45 -242.35 -338.55 -243.0 -339.5 -243.1 -339.65 -243.35 -340.6 -243.45 -341.35 -243.45 -341.45 -243.45 -341.55 -244.05 -342.05 -244.1 -342.1 Q-245.25 -343.35 -245.25 -345.05 L-245.25 -345.15 -245.35 -345.2 -245.7 -345.65 -246.45 -345.55 Q-248.15 -345.55 -249.4 -346.85 L-249.5 -346.85 Q-250.65 -348.1 -250.65 -349.8 -250.65 -351.55 -249.4 -352.85 L-249.1 -353.15 Q-249.45 -353.9 -249.45 -354.85 L-249.45 -354.95 -249.35 -355.6 Q-250.8 -355.8 -251.9 -356.85 L-251.95 -356.95 Q-253.1 -358.15 -253.1 -359.85 -253.1 -361.6 -251.9 -362.9 L-251.55 -363.15 Q-251.9 -363.95 -251.9 -364.85 L-251.9 -365.0 -251.6 -366.45 -251.4 -366.8 -250.6 -367.9 -250.05 -368.35 -248.85 -368.95 -248.75 -368.95 -248.6 -369.0 -248.5 -369.05 -248.25 -369.1 -248.15 -369.1 -248.2 -369.9 -248.2 -370.0 -247.9 -371.5 -247.75 -371.85 -246.95 -372.9 -246.35 -373.4 -246.35 -374.05 -246.35 -374.2 -246.3 -374.85 -246.1 -375.7 -245.9 -376.05 -245.15 -377.1 -244.55 -377.55 -243.35 -378.15 -243.2 -378.15 -243.1 -378.2 -243.0 -378.2 -242.75 -378.3 -242.65 -378.35 -242.7 -379.05 -242.7 -379.2 -242.4 -380.65 -242.25 -381.05 -241.45 -382.1 Q-240.7 -382.85 -239.7 -383.15 L-239.55 -383.2 -239.4 -383.2 -239.35 -383.25 -239.1 -383.3 -238.4 -383.35 -238.25 -383.35 -237.7 -383.3 Q-236.7 -383.1 -235.95 -382.5 L-235.9 -382.5 -235.45 -382.95 Q-234.7 -383.7 -233.7 -384.0 L-233.55 -384.05 -233.45 -384.1 -233.35 -384.1 -233.1 -384.15 -232.45 -384.2 -232.25 -384.2 -231.7 -384.15 Q-230.8 -384.0 -230.0 -383.45 L-229.75 -383.85 -229.3 -384.3 -229.2 -384.4 Q-228.5 -385.1 -227.55 -385.35 L-227.45 -385.4 -227.3 -385.45 -227.2 -385.45 -226.95 -385.5 -226.3 -385.55 -226.1 -385.55 -225.55 -385.5 Q-224.6 -385.35 -223.8 -384.75 L-223.3 -384.3 -222.7 -383.6 -222.55 -383.35 -222.4 -383.0 -222.2 -382.4 -222.1 -381.75 -222.0 -381.75 -221.95 -381.8 -221.7 -381.85 -221.0 -381.9 -220.85 -381.9 -220.3 -381.85 -219.3 -381.55 -219.2 -381.55 -218.95 -381.55 -218.35 -381.65 -218.15 -381.65 -217.65 -381.55 Q-216.65 -381.45 -215.85 -380.85 L-215.35 -380.35 -214.75 -379.7 -214.6 -379.45 -214.4 -379.1 -214.25 -378.5 -214.1 -377.8 -214.05 -377.85 -213.95 -377.85 -213.7 -377.9 -213.05 -377.95 -212.9 -377.95 -212.35 -377.9 Q-211.35 -377.75 -210.6 -377.15 L-210.05 -376.7" fill="#7d6c93" fill-opacity="0.2" fill-rule="evenodd" stroke="none"/>
    <path d="M-258.35 -305.25 L-257.65 -305.7 Q-257.0 -306.1 -256.25 -306.2 L-256.1 -306.2 -255.95 -306.2 -255.85 -306.25 -255.55 -306.3 -255.4 -306.3 -255.4 -307.1 -255.4 -307.25 Q-255.3 -308.15 -254.85 -308.9 L-254.65 -309.3 -253.6 -310.35 Q-252.6 -311.1 -251.5 -311.3 L-251.35 -311.3 -251.2 -311.3 -251.1 -311.3 -250.8 -311.35 -250.05 -311.3 -249.85 -311.3 -249.25 -311.2 Q-248.2 -310.85 -247.4 -310.1 L-247.3 -310.0 -246.8 -310.5 Q-245.8 -311.3 -244.65 -311.5 L-244.5 -311.45 -244.35 -311.5 -244.25 -311.5 -244.0 -311.5 -243.25 -311.5 -243.05 -311.5 -242.45 -311.35 Q-241.4 -311.05 -240.65 -310.3 L-240.3 -310.75 -239.75 -311.2 -239.65 -311.3 Q-238.7 -312.0 -237.65 -312.2 L-237.5 -312.2 -237.35 -312.2 -237.25 -312.2 -236.95 -312.25 -236.25 -312.2 -236.05 -312.2 -235.45 -312.1 Q-234.4 -311.75 -233.55 -311.0 L-233.35 -310.8 -233.05 -310.4 -232.5 -309.55 -232.35 -309.25 -232.2 -308.85 -232.05 -308.15 -232.05 -307.35 -231.95 -307.4 -231.85 -307.45 -231.6 -307.45 -230.8 -307.4 -230.6 -307.35 -230.0 -307.25 -228.95 -306.8 -228.15 -306.15 -227.65 -305.6 -227.1 -304.7 -226.95 -304.45 -226.8 -304.0 -226.65 -303.35 -226.65 -302.05 -226.7 -301.75 -226.75 -301.35 -226.85 -301.2 -227.0 -300.7 -227.25 -300.15 Q-227.7 -299.45 -228.45 -298.9 L-228.5 -298.85 -227.95 -298.3 -227.25 -297.15 Q-226.85 -296.0 -227.0 -294.75 L-227.2 -293.9 -227.35 -293.4 -227.25 -293.3 -226.75 -292.7 -226.05 -291.6 Q-225.55 -290.45 -225.7 -289.15 L-225.95 -288.35 Q-226.3 -286.95 -227.55 -286.0 -228.4 -285.3 -229.4 -285.1 -229.1 -284.15 -229.2 -283.1 L-229.3 -282.4 -229.4 -282.2 -229.55 -281.75 Q-230.0 -280.7 -230.95 -280.0 L-231.0 -279.95 Q-232.2 -278.95 -233.7 -278.9 L-233.75 -278.9 -234.55 -278.9 -234.9 -278.95 -235.55 -279.15 Q-236.45 -279.4 -237.1 -280.1 L-237.3 -279.6 Q-237.75 -278.55 -238.8 -277.85 L-240.0 -277.05 -241.4 -276.75 -241.45 -276.75 -242.3 -276.8 -242.65 -276.85 Q-244.35 -277.2 -245.45 -278.6 L-245.55 -278.7 -245.65 -278.85 -246.25 -279.95 -246.4 -279.95 Q-247.9 -280.15 -249.15 -281.0 L-250.2 -280.85 -250.25 -280.85 -251.1 -280.9 -251.45 -280.9 Q-253.1 -281.25 -254.25 -282.65 L-254.35 -282.75 -254.4 -282.9 -255.05 -284.05 -255.1 -284.25 -255.25 -285.3 -255.25 -286.15 -255.2 -286.35 -255.8 -287.05 -255.9 -287.15 Q-257.05 -288.65 -256.8 -290.55 L-256.8 -290.7 -256.85 -290.75 -257.2 -291.25 -258.0 -291.3 Q-259.95 -291.55 -261.2 -293.1 L-261.25 -293.15 Q-262.4 -294.7 -262.2 -296.65 -261.95 -298.55 -260.4 -299.8 L-260.0 -300.05 -260.2 -301.3 -260.15 -302.05 -260.15 -302.2 -259.95 -302.9 -259.65 -303.8 -259.4 -304.15 -258.35 -305.25" fill="#7d6c93" fill-opacity="0.09803922" fill-rule="evenodd" stroke="none"/>
  </g>
</svg>
