<?xml version="1.0" encoding="UTF-8" standalone="no"?>
<svg xmlns:ffdec="https://www.free-decompiler.com/flash" xmlns:xlink="http://www.w3.org/1999/xlink" ffdec:objectType="shape" height="108.15px" width="642.05px" xmlns="http://www.w3.org/2000/svg">
  <g transform="matrix(1.0, 0.0, 0.0, 1.0, 258.0, 417.5)">
    <path d="M-231.4 -341.65 L-231.0 -341.2 -230.9 -340.95 -230.8 -340.75 -230.65 -340.35 -230.55 -339.85 -230.5 -339.9 -230.45 -339.9 -230.25 -339.9 -229.8 -339.95 -229.7 -339.95 -229.3 -339.9 -228.05 -339.4 -227.7 -339.05 -227.3 -338.6 -227.2 -338.4 -227.05 -338.15 -226.95 -337.75 -226.8 -336.95 -226.85 -336.65 -226.6 -336.4 -226.2 -335.95 -226.1 -335.75 -226.0 -335.5 -225.85 -335.1 -225.75 -334.65 -225.7 -334.65 -225.65 -334.65 -225.5 -334.65 -225.0 -334.7 -224.9 -334.7 -224.5 -334.65 -223.8 -334.45 -223.25 -334.15 -222.9 -333.8 -222.5 -333.35 -222.4 -333.15 -222.25 -332.95 -222.15 -332.5 -222.05 -331.7 -222.05 -331.5 -222.05 -331.25 -222.05 -331.15 -222.15 -330.85 -222.25 -330.45 -222.9 -329.6 -222.9 -329.55 -222.55 -329.25 -222.05 -328.6 Q-221.65 -327.95 -221.65 -327.15 L-221.75 -326.6 -221.8 -326.3 -221.75 -326.2 -221.4 -325.9 -220.85 -325.25 Q-220.45 -324.6 -220.45 -323.8 L-220.55 -323.2 Q-220.7 -322.35 -221.4 -321.7 L-222.45 -320.95 -222.25 -319.75 -222.25 -319.3 -222.25 -319.2 -222.3 -318.85 Q-222.5 -318.2 -223.05 -317.65 -223.75 -316.95 -224.65 -316.8 L-224.7 -316.8 -225.15 -316.75 -225.45 -316.75 -225.8 -316.8 -225.75 -316.05 -225.75 -315.6 -225.75 -315.45 -225.85 -315.15 Q-226.05 -314.45 -226.6 -313.95 -227.3 -313.25 -228.15 -313.1 L-228.2 -313.1 -228.75 -313.05 -228.95 -313.05 Q-229.75 -313.1 -230.4 -313.6 L-230.5 -313.25 Q-230.7 -312.6 -231.25 -312.0 -231.95 -311.35 -232.8 -311.2 L-232.85 -311.2 -233.4 -311.15 -233.6 -311.15 Q-234.7 -311.25 -235.5 -312.0 L-235.55 -312.1 -235.6 -312.2 -235.65 -312.1 Q-236.3 -311.45 -237.25 -311.25 L-237.75 -311.25 -238.0 -311.25 -239.5 -311.75 -239.55 -311.45 Q-239.75 -310.75 -240.3 -310.2 L-241.0 -309.65 -241.85 -309.35 -241.9 -309.35 -242.4 -309.35 -242.65 -309.35 Q-243.75 -309.45 -244.5 -310.2 L-244.6 -310.25 -244.65 -310.35 -245.1 -311.0 -245.2 -311.0 Q-246.15 -311.0 -247.0 -311.45 L-247.65 -311.25 -248.15 -311.25 -248.4 -311.25 Q-249.5 -311.35 -250.3 -312.1 L-250.35 -312.2 -250.4 -312.25 -250.85 -312.9 -250.9 -313.0 -251.1 -313.7 -251.15 -314.2 -251.15 -314.3 -251.15 -314.35 -251.6 -314.7 -251.65 -314.75 Q-252.45 -315.6 -252.45 -316.8 L-252.45 -316.9 -252.5 -316.95 -252.75 -317.2 -253.25 -317.2 Q-254.5 -317.2 -255.4 -318.05 L-255.4 -318.1 Q-256.25 -318.95 -256.25 -320.2 -256.25 -321.4 -255.4 -322.3 L-255.15 -322.5 -255.4 -323.7 -255.4 -323.8 -255.35 -324.25 Q-256.35 -324.35 -257.1 -325.1 L-257.15 -325.2 Q-258.0 -326.05 -258.0 -327.2 -258.0 -328.45 -257.1 -329.35 L-256.85 -329.55 -257.1 -330.75 -257.1 -330.85 -256.9 -331.85 -256.75 -332.1 -256.25 -332.9 -255.85 -333.2 -255.0 -333.65 -254.9 -333.65 -254.8 -333.65 -254.75 -333.7 -254.55 -333.7 -254.5 -333.7 -254.5 -334.25 -254.5 -334.35 -254.35 -335.4 -254.2 -335.65 -253.65 -336.4 -253.2 -336.75 -253.25 -337.2 -253.25 -337.3 -253.15 -337.75 -253.05 -338.35 -252.9 -338.6 -252.35 -339.35 -251.95 -339.65 Q-251.6 -339.95 -251.1 -340.05 L-251.0 -340.1 -250.9 -340.15 -250.85 -340.15 -250.7 -340.2 -250.6 -340.2 -250.65 -340.7 -250.65 -340.8 -250.45 -341.85 -250.35 -342.1 -249.75 -342.9 Q-249.25 -343.4 -248.55 -343.6 L-248.45 -343.65 -248.35 -343.65 -248.3 -343.65 -248.1 -343.7 -247.65 -343.7 -247.55 -343.7 -247.15 -343.7 -245.9 -343.15 -245.6 -343.45 Q-245.05 -344.0 -244.35 -344.2 L-244.25 -344.2 -244.15 -344.25 -244.1 -344.25 -243.9 -344.3 -243.45 -344.35 -243.35 -344.35 -242.9 -344.3 -241.75 -343.8 -241.55 -344.1 -241.25 -344.4 -241.15 -344.45 -240.0 -345.15 -239.9 -345.15 -239.8 -345.2 -239.75 -345.2 -239.55 -345.25 -239.1 -345.3 -239.0 -345.3 -238.6 -345.25 Q-237.95 -345.15 -237.35 -344.7 L-237.0 -344.4 -236.6 -343.95 -236.5 -343.75 -236.4 -343.5 -236.25 -343.1 -236.15 -342.6 -236.15 -342.65 -236.05 -342.65 -235.9 -342.65 -235.4 -342.7 -235.3 -342.7 -234.9 -342.65 -234.25 -342.45 Q-234.15 -342.45 -234.15 -342.5 L-234.0 -342.5 -233.55 -342.55 -233.4 -342.55 -233.05 -342.5 Q-232.35 -342.4 -231.8 -341.95 L-231.4 -341.65" fill="#7d6c93" fill-opacity="0.09803922" fill-rule="evenodd" stroke="none"/>
    <path d="M-217.1 -382.55 L-216.95 -382.35 -216.9 -382.25 -216.85 -382.15 -216.75 -382.0 -216.75 -381.75 -216.7 -381.8 -216.6 -381.8 -216.4 -381.8 -216.35 -381.8 -216.2 -381.8 -215.65 -381.55 -215.5 -381.45 -215.3 -381.2 -215.25 -381.15 -215.2 -381.05 -215.15 -380.85 -215.1 -380.5 -215.1 -380.35 -215.0 -380.25 -214.8 -380.05 -214.8 -379.95 -214.7 -379.85 -214.65 -379.7 -214.6 -379.5 -214.55 -379.5 -214.5 -379.5 -214.3 -379.5 -214.25 -379.5 -214.1 -379.5 -213.75 -379.4 -213.55 -379.25 -213.35 -379.1 -213.2 -378.9 -213.15 -378.85 -213.1 -378.75 -213.05 -378.55 -213.0 -378.2 -213.0 -378.1 -213.0 -378.0 -213.0 -377.95 -213.05 -377.8 -213.1 -377.65 -213.35 -377.3 -213.35 -377.25 -213.2 -377.1 -213.0 -376.8 -212.8 -376.2 -212.85 -375.95 -212.9 -375.8 -212.85 -375.8 -212.7 -375.65 -212.45 -375.35 -212.3 -374.7 -212.35 -374.45 Q-212.4 -374.05 -212.7 -373.8 L-213.15 -373.45 -213.05 -372.95 -213.05 -372.75 -213.1 -372.7 -213.1 -372.55 -213.45 -372.0 Q-213.75 -371.7 -214.15 -371.65 L-214.35 -371.6 -214.5 -371.6 -214.65 -371.65 -214.6 -371.3 -214.65 -371.1 -214.65 -371.05 -214.65 -370.9 -215.0 -370.35 Q-215.3 -370.05 -215.7 -370.0 L-215.95 -370.0 -216.05 -370.0 -216.65 -370.2 -216.7 -370.05 -217.05 -369.55 Q-217.35 -369.25 -217.75 -369.15 L-218.0 -369.15 -218.1 -369.15 Q-218.55 -369.2 -218.9 -369.55 L-218.95 -369.55 -218.95 -369.6 -219.0 -369.55 -219.65 -369.2 -219.7 -369.2 -219.9 -369.2 -220.0 -369.2 -220.65 -369.4 -220.7 -369.3 -221.0 -368.75 -221.35 -368.5 -221.7 -368.35 -221.75 -368.35 -221.95 -368.35 -222.05 -368.35 Q-222.55 -368.4 -222.9 -368.75 L-222.95 -368.8 -223.15 -369.1 -223.2 -369.1 -223.95 -369.3 -224.25 -369.2 -224.5 -369.2 -224.6 -369.2 Q-225.05 -369.25 -225.4 -369.55 L-225.45 -369.6 -225.5 -369.65 -225.65 -369.9 -225.7 -369.95 -225.8 -370.25 -225.8 -370.5 -225.8 -370.55 -226.0 -370.7 -226.0 -370.75 -226.35 -371.65 -226.35 -371.7 -226.4 -371.7 -226.5 -371.8 -226.75 -371.8 Q-227.25 -371.8 -227.65 -372.2 L-227.7 -372.2 Q-228.05 -372.6 -228.05 -373.1 -228.05 -373.65 -227.65 -374.05 L-227.55 -374.15 -227.65 -374.65 -227.65 -374.7 -227.65 -374.9 Q-228.1 -374.95 -228.4 -375.3 L-228.45 -375.3 Q-228.8 -375.7 -228.8 -376.2 -228.8 -376.75 -228.4 -377.15 L-228.3 -377.25 -228.4 -377.75 -228.4 -377.8 -228.35 -378.25 -228.25 -378.4 -228.05 -378.7 -227.85 -378.85 -227.5 -379.05 -227.45 -379.05 -227.4 -379.05 -227.3 -379.1 -227.25 -379.1 -227.3 -379.3 -227.3 -379.35 -227.2 -379.8 -227.15 -379.9 -226.9 -380.25 -226.7 -380.4 -226.7 -380.6 -226.7 -380.65 -226.7 -380.85 -226.65 -381.1 -226.55 -381.2 -226.35 -381.55 -226.15 -381.7 -225.8 -381.85 -225.75 -381.9 -225.7 -381.9 -225.65 -381.9 -225.6 -381.9 -225.55 -381.9 -225.6 -382.15 -225.6 -382.2 -225.5 -382.65 -225.45 -382.75 -225.2 -383.1 -224.65 -383.4 -224.6 -383.45 -224.55 -383.45 -224.45 -383.45 -224.25 -383.5 -224.2 -383.5 -224.05 -383.45 -223.5 -383.25 -223.5 -383.2 -223.35 -383.35 -222.8 -383.7 -222.75 -383.7 -222.7 -383.7 -222.6 -383.75 -222.4 -383.75 -222.35 -383.75 -222.2 -383.75 -221.65 -383.5 -221.55 -383.65 -221.45 -383.8 -221.4 -383.8 -220.9 -384.1 -220.85 -384.1 -220.8 -384.15 -220.7 -384.15 -220.5 -384.15 -220.45 -384.15 -220.3 -384.15 -219.75 -383.9 -219.6 -383.8 -219.4 -383.6 -219.35 -383.5 -219.3 -383.4 -219.25 -383.2 -219.2 -383.0 -219.15 -383.0 -219.1 -383.0 -218.9 -383.05 -218.8 -383.05 -218.65 -383.0 -218.35 -382.95 -218.3 -382.95 -218.25 -382.95 -218.05 -382.95 -218.0 -382.95 -217.85 -382.95 -217.3 -382.7 -217.1 -382.55" fill="#7d6c93" fill-opacity="0.09803922" fill-rule="evenodd" stroke="none"/>
    <path d="M341.4 -414.95 Q342.5 -414.75 343.4 -414.1 L343.4 -414.05 343.9 -414.6 Q344.75 -415.45 345.9 -415.75 L346.05 -415.8 346.2 -415.85 346.3 -415.85 346.6 -415.95 347.3 -416.0 347.5 -416.0 348.15 -415.95 Q349.15 -415.75 350.05 -415.1 L350.35 -415.6 350.85 -416.1 350.95 -416.2 Q351.75 -417.0 352.8 -417.3 L352.95 -417.3 353.1 -417.4 353.2 -417.4 353.5 -417.45 354.25 -417.5 354.4 -417.5 355.05 -417.45 Q356.1 -417.3 357.05 -416.6 L357.6 -416.1 358.25 -415.35 358.4 -415.05 358.6 -414.65 358.85 -414.0 358.95 -413.2 359.0 -413.25 359.15 -413.25 359.4 -413.3 360.15 -413.4 360.35 -413.4 360.95 -413.3 362.05 -413.0 362.2 -413.05 362.45 -413.05 363.15 -413.15 363.4 -413.15 363.95 -413.05 Q365.05 -412.9 365.95 -412.2 L366.55 -411.7 367.2 -410.95 367.4 -410.6 367.55 -410.25 367.8 -409.6 367.9 -408.8 368.0 -408.85 368.1 -408.85 368.4 -408.9 369.1 -408.95 369.3 -408.95 369.9 -408.9 Q371.0 -408.75 371.9 -408.05 L372.5 -407.55 373.15 -406.8 373.3 -406.5 373.5 -406.1 373.7 -405.45 373.9 -404.15 373.85 -403.65 374.25 -403.3 374.9 -402.55 375.05 -402.25 375.25 -401.85 375.45 -401.2 375.65 -400.45 375.7 -400.45 375.8 -400.45 376.05 -400.5 376.8 -400.6 377.0 -400.6 377.6 -400.5 378.75 -400.2 379.6 -399.65 380.2 -399.15 380.8 -398.4 381.0 -398.1 381.2 -397.75 381.4 -397.05 381.55 -395.75 381.55 -395.45 381.55 -395.05 381.55 -394.9 381.4 -394.4 381.2 -393.8 380.2 -392.45 380.15 -392.35 380.7 -391.85 381.55 -390.8 Q382.15 -389.75 382.15 -388.5 L382.05 -387.6 381.9 -387.1 382.05 -387.0 382.6 -386.5 383.45 -385.45 Q384.05 -384.4 384.05 -383.1 L383.95 -382.2 Q383.7 -380.8 382.6 -379.75 381.85 -378.95 380.9 -378.55 381.25 -377.7 381.25 -376.65 L381.25 -375.95 381.2 -375.75 381.1 -375.25 Q380.8 -374.15 379.95 -373.3 L379.9 -373.3 Q378.85 -372.2 377.35 -371.95 L377.3 -371.95 376.55 -371.85 376.1 -371.85 375.5 -371.95 375.65 -370.75 375.6 -370.0 375.6 -369.8 375.45 -369.3 Q375.15 -368.2 374.25 -367.35 373.15 -366.25 371.75 -366.0 L371.7 -366.0 370.85 -365.95 370.5 -365.95 Q369.2 -366.0 368.15 -366.8 L368.05 -366.25 Q367.7 -365.2 366.8 -364.3 365.7 -363.2 364.3 -362.95 L364.25 -362.95 363.4 -362.9 363.05 -362.9 Q361.3 -363.05 360.05 -364.3 L359.95 -364.4 359.85 -364.55 359.75 -364.45 Q358.7 -363.35 357.25 -363.1 L357.2 -363.1 356.4 -363.05 356.0 -363.05 Q354.7 -363.15 353.65 -363.9 L353.55 -363.4 Q353.25 -362.3 352.35 -361.4 L351.2 -360.5 349.85 -360.05 349.75 -360.05 349.0 -360.0 348.55 -360.0 Q346.85 -360.15 345.6 -361.4 L345.5 -361.5 345.35 -361.6 344.65 -362.7 344.5 -362.7 Q342.95 -362.7 341.65 -363.4 L340.6 -363.1 339.75 -363.05 339.4 -363.05 Q337.65 -363.2 336.35 -364.4 L336.3 -364.55 336.15 -364.65 335.45 -365.7 335.35 -365.9 335.05 -366.95 334.95 -367.8 334.95 -367.9 334.95 -368.0 334.3 -368.55 334.2 -368.65 Q332.9 -370.0 332.9 -371.95 L332.9 -372.1 332.8 -372.15 332.4 -372.6 331.6 -372.55 Q329.65 -372.55 328.2 -373.95 L328.15 -374.0 Q326.85 -375.4 326.85 -377.35 326.85 -379.3 328.2 -380.75 L328.55 -381.05 Q328.2 -381.95 328.2 -382.95 L328.2 -383.1 328.3 -383.85 Q326.7 -384.05 325.45 -385.25 L325.4 -385.35 Q324.05 -386.7 324.05 -388.6 324.05 -390.6 325.45 -392.0 L325.85 -392.3 Q325.45 -393.2 325.45 -394.25 L325.45 -394.4 Q325.45 -395.3 325.75 -396.05 L326.0 -396.45 326.85 -397.65 327.5 -398.15 328.85 -398.85 329.0 -398.85 329.15 -398.9 329.25 -398.95 329.55 -399.0 329.65 -399.0 329.6 -399.85 329.6 -400.0 329.9 -401.7 330.1 -402.05 331.0 -403.3 331.7 -403.85 331.65 -404.6 331.65 -404.75 331.75 -405.45 331.95 -406.4 332.2 -406.8 333.05 -408.0 333.7 -408.5 335.05 -409.15 335.2 -409.2 335.35 -409.25 335.45 -409.25 335.7 -409.35 335.85 -409.35 335.75 -410.2 335.75 -410.35 336.1 -412.0 336.3 -412.4 337.2 -413.65 Q338.05 -414.5 339.15 -414.8 L339.3 -414.85 339.5 -414.85 339.55 -414.9 339.85 -414.95 340.6 -415.0 340.75 -415.0 341.4 -414.95" fill="#7d6c93" fill-opacity="0.09803922" fill-rule="evenodd" stroke="none"/>
  </g>
</svg>
