<?xml version="1.0" encoding="UTF-8" standalone="no"?>
<svg xmlns:ffdec="https://www.free-decompiler.com/flash" xmlns:xlink="http://www.w3.org/1999/xlink" ffdec:objectType="shape" height="307.4px" width="309.0px" xmlns="http://www.w3.org/2000/svg">
  <g transform="matrix(1.0, 0.0, 0.0, 1.0, 84.45, -2.35)">
    <path d="M49.05 29.8 L61.05 19.8 189.95 144.75 206.95 160.75 177.0 223.25 170.5 225.75 Q109.8 289.1 5.0 309.75 L2.5 32.75 21.05 6.8 49.05 29.8" fill="url(#gradient0)" fill-rule="evenodd" stroke="none"/>
    <path d="M36.55 45.1 L29.6 50.4 Q30.35 52.65 30.2 55.05 30.15 58.3 28.9 61.45 27.8 64.05 26.35 66.4 L32.25 71.7 33.1 70.95 Q111.3 155.15 223.3 180.25 L224.55 177.95 Q142.05 114.15 68.85 39.75 L69.7 38.15 58.1 28.8 47.5 36.75 Q33.05 22.3 17.85 8.75 0.3 -6.85 -1.3 15.5 L0.4 16.35 Q2.35 20.05 4.85 23.3 17.1 39.25 36.55 45.1" fill="#ffffff" fill-opacity="0.7019608" fill-rule="evenodd" stroke="none"/>
    <path d="M-64.1 93.15 L-72.75 93.65 Q-73.35 95.9 -74.8 97.8 -76.7 100.5 -79.5 102.35 -81.9 103.9 -84.45 105.0 L-82.55 112.7 -81.35 112.5 Q-64.0 228.25 14.35 309.25 L16.75 308.0 Q-15.6 209.25 -34.45 106.85 L-32.8 105.95 -37.15 91.75 -50.4 92.4 Q-54.2 72.35 -59.4 52.7 -65.5 29.4 -78.75 47.5 L-77.75 49.2 Q-78.3 53.3 -78.05 57.45 -76.8 77.45 -64.1 93.15" fill="#ffffff" fill-opacity="0.14901961" fill-rule="evenodd" stroke="none"/>
  </g>
  <defs>
    <linearGradient gradientTransform="matrix(0.1209, 0.0465, -0.0679, 0.1763, 107.45, 161.5)" gradientUnits="userSpaceOnUse" id="gradient0" spreadMethod="pad" x1="-819.2" x2="819.2">
      <stop offset="0.0" stop-color="#ffffff" stop-opacity="0.0"/>
      <stop offset="0.35294117647058826" stop-color="#ffffff" stop-opacity="0.2"/>
      <stop offset="0.6745098039215687" stop-color="#ffffff" stop-opacity="0.5019608"/>
    </linearGradient>
  </defs>
</svg>
