<?xml version="1.0" encoding="UTF-8" standalone="no"?>
<svg xmlns:ffdec="https://www.free-decompiler.com/flash" xmlns:xlink="http://www.w3.org/1999/xlink" ffdec:objectType="shape" height="197.8px" width="43.95px" xmlns="http://www.w3.org/2000/svg">
  <g transform="matrix(1.0, 0.0, 0.0, 1.0, 30.75, 173.35)">
    <path d="M6.05 -160.6 Q12.2 -164.25 13.2 -170.6 L5.7 -105.45 Q4.95 -105.1 4.9 -104.75 4.1 -102.4 3.75 -99.25 3.65 -98.65 4.85 -97.95 L3.15 -83.0 Q0.2 -78.9 -0.35 -73.85 -0.95 -68.85 0.95 -64.1 L-1.6 -41.9 Q-2.95 -40.35 -3.85 -38.05 -8.35 -38.1 -8.55 -36.6 -8.7 -35.35 -5.1 -34.35 L-5.75 -31.8 Q-8.55 -31.5 -8.7 -30.5 -8.85 -28.9 -3.65 -27.85 L-3.4 -26.1 -6.9 4.1 Q-7.7 11.4 -13.6 18.4 -18.75 24.75 -21.35 24.45 -24.0 24.15 -27.5 16.8 -31.4 8.65 -30.6 1.35 L-20.95 -82.6 Q-18.85 -86.6 -16.8 -89.25 L-17.75 -89.95 Q-19.2 -90.55 -19.55 -91.55 -20.35 -93.2 -18.35 -105.15 -15.55 -105.4 -15.4 -106.55 -15.3 -107.55 -17.95 -108.45 L-14.6 -137.6 Q-13.1 -139.6 -12.2 -147.45 -11.3 -155.45 -12.3 -157.75 L-10.5 -173.35 Q-11.0 -166.9 -5.8 -161.95 -3.1 -159.45 -0.25 -158.2 2.8 -158.8 6.05 -160.6" fill="#e4af32" fill-rule="evenodd" stroke="none"/>
  </g>
</svg>
