<?xml version="1.0" encoding="UTF-8" standalone="no"?>
<svg xmlns:ffdec="https://www.free-decompiler.com/flash" xmlns:xlink="http://www.w3.org/1999/xlink" ffdec:objectType="shape" height="73.75px" width="24.65px" xmlns="http://www.w3.org/2000/svg">
  <g transform="matrix(1.0, 0.0, 0.0, 1.0, 4.95, 248.15)">
    <path d="M-3.05 -196.85 L10.4 -187.2" fill="none" stroke="#ffffff" stroke-linecap="round" stroke-linejoin="bevel" stroke-opacity="0.29803923" stroke-width="1.0"/>
    <path d="M-4.45 -184.65 L9.0 -174.9" fill="none" stroke="#ffffff" stroke-linecap="round" stroke-linejoin="bevel" stroke-opacity="0.29803923" stroke-width="1.0"/>
    <path d="M8.9 -238.65 Q6.4 -238.95 4.7 -240.5 3.05 -241.95 3.25 -243.9 3.5 -245.8 5.45 -246.85 7.45 -248.05 9.95 -247.75 12.45 -247.45 14.1 -245.85 15.8 -244.4 15.55 -242.5 15.35 -240.55 13.35 -239.5 11.4 -238.35 8.9 -238.65" fill="#212121" fill-rule="evenodd" stroke="none"/>
    <path d="M8.9 -238.65 Q6.4 -238.95 4.7 -240.5 3.05 -241.95 3.25 -243.9 3.5 -245.8 5.45 -246.85 7.45 -248.05 9.95 -247.75 12.45 -247.45 14.1 -245.85 15.8 -244.4 15.55 -242.5 15.35 -240.55 13.35 -239.5 11.4 -238.35 8.9 -238.65 Z" fill="none" stroke="#000000" stroke-linecap="butt" stroke-linejoin="miter-clip" stroke-miterlimit="4.0" stroke-opacity="0.29803923" stroke-width="0.7000000000000001"/>
    <path d="M14.8 -227.8 L7.6 -229.4 Q5.0 -229.7 0.1 -229.45 -3.0 -229.35 -2.95 -230.05 L-1.65 -241.3 Q-1.5 -242.35 1.6 -242.65 4.8 -243.1 9.1 -242.6 13.35 -242.15 16.3 -241.0 19.35 -240.0 19.2 -238.95 L17.9 -227.7 14.8 -227.8" fill="#3d3d3d" fill-rule="evenodd" stroke="none"/>
    <path d="M14.8 -227.8 L7.6 -229.4 Q5.0 -229.7 0.1 -229.45 -3.0 -229.35 -2.95 -230.05 L-1.65 -241.3 Q-1.5 -242.35 1.6 -242.65 4.8 -243.1 9.1 -242.6 13.35 -242.15 16.3 -241.0 19.35 -240.0 19.2 -238.95 L17.9 -227.7 14.8 -227.8 Z" fill="none" stroke="#000000" stroke-linecap="butt" stroke-linejoin="miter-clip" stroke-miterlimit="4.0" stroke-opacity="0.29803923" stroke-width="0.7000000000000001"/>
    <path d="M15.75 -229.75 L14.2 -229.55 10.6 -230.6 Q9.15 -230.75 9.35 -232.2 L10.15 -239.15 Q10.2 -239.95 10.8 -240.25 11.3 -240.65 12.1 -240.55 L16.25 -239.35 Q17.45 -238.8 17.3 -237.8 L16.55 -230.95 Q16.45 -230.15 15.75 -229.75" fill="#f2f2f2" fill-opacity="0.4" fill-rule="evenodd" stroke="none"/>
  </g>
</svg>
