<?xml version="1.0" encoding="UTF-8" standalone="no"?>
<svg xmlns:ffdec="https://www.free-decompiler.com/flash" xmlns:xlink="http://www.w3.org/1999/xlink" ffdec:objectType="shape" height="11.9px" width="86.35px" xmlns="http://www.w3.org/2000/svg">
  <g transform="matrix(1.0, 0.0, 0.0, 1.0, 0.0, 0.0)">
    <path d="M84.45 4.05 Q79.25 0.5 75.8 0.5 L65.25 0.5 62.15 0.6 Q61.85 0.65 61.6 2.0 61.35 3.0 60.9 3.0 60.6 3.0 60.4 2.5 60.1 1.75 59.6 1.75 59.1 1.65 58.85 2.6 L58.25 3.25 Q57.85 3.25 57.6 2.4 57.3 1.3 56.5 0.95 L52.85 0.5 48.55 0.5 43.85 1.3 41.7 1.55 39.55 1.3 34.85 0.5 33.7 0.5 30.8 0.85 30.5 1.05 28.05 0.8 27.85 0.7 25.05 0.5 1.6 0.5 0.5 0.55 1.5 1.15 Q2.8 1.75 3.95 3.3 4.6 4.25 4.6 5.7 4.55 7.15 3.9 8.1 2.85 9.6 1.5 10.25 L0.5 10.85 1.6 10.9 3.2 10.9 8.6 10.4 Q10.4 10.25 12.15 10.4 L14.85 10.7 17.5 10.9 24.9 10.9 26.85 10.7 Q27.7 10.45 27.8 10.2 28.05 9.7 28.3 9.7 28.65 9.7 28.8 10.2 28.95 10.5 29.8 10.7 L31.75 10.9 32.55 10.9 34.5 10.65 35.45 10.1 35.85 9.45 Q36.25 9.3 36.8 9.7 L37.6 10.35 41.7 10.9 75.8 10.9 Q79.25 10.9 84.45 7.35 85.4 6.7 85.4 5.7 85.4 4.75 84.45 4.05 Z" fill="none" stroke="#000000" stroke-linecap="butt" stroke-linejoin="miter-clip" stroke-miterlimit="4.0" stroke-width="1.0"/>
  </g>
</svg>
