<?xml version="1.0" encoding="UTF-8" standalone="no"?>
<svg xmlns:ffdec="https://www.free-decompiler.com/flash" xmlns:xlink="http://www.w3.org/1999/xlink" ffdec:objectType="shape" height="36.85px" width="60.0px" xmlns="http://www.w3.org/2000/svg">
  <g transform="matrix(1.0, 0.0, 0.0, 1.0, 30.55, 183.6)">
    <path d="M-6.0 -160.0 Q-11.3 -166.65 -10.8 -170.75 L-10.2 -175.95 13.5 -173.2 12.9 -168.0 Q12.4 -163.9 5.85 -158.65 2.5 -156.05 -0.7 -154.35 -3.4 -156.7 -6.0 -160.0" fill="#0f0f0f" fill-rule="evenodd" stroke="none"/>
    <path d="M-6.0 -160.0 Q-3.4 -156.7 -0.7 -154.35 2.5 -156.05 5.85 -158.65 12.4 -163.9 12.9 -168.0 L13.5 -173.2 -10.2 -175.95 -10.8 -170.75 Q-11.3 -166.65 -6.0 -160.0 Z" fill="none" stroke="#ffffff" stroke-linecap="butt" stroke-linejoin="miter-clip" stroke-miterlimit="4.0" stroke-opacity="0.29803923" stroke-width="0.7000000000000001"/>
    <path d="M11.0 -149.55 Q9.4 -151.9 9.85 -155.45 L11.5 -170.1 Q11.65 -171.15 12.4 -171.75 13.15 -172.35 14.2 -172.25 L15.7 -171.4 Q16.35 -170.6 16.2 -169.55 L14.55 -154.9 Q14.25 -152.25 15.4 -151.65 16.3 -151.35 16.75 -150.5 17.1 -149.65 16.9 -148.7 16.55 -147.85 15.75 -147.4 L13.95 -147.25 Q12.2 -147.8 11.0 -149.55" fill="#212121" fill-rule="evenodd" stroke="none"/>
    <path d="M11.0 -149.55 Q9.4 -151.9 9.85 -155.45 L11.5 -170.1 Q11.65 -171.15 12.4 -171.75 13.15 -172.35 14.2 -172.25 L15.7 -171.4 Q16.35 -170.6 16.2 -169.55 L14.55 -154.9 Q14.25 -152.25 15.4 -151.65 16.3 -151.35 16.75 -150.5 17.1 -149.65 16.9 -148.7 16.55 -147.85 15.75 -147.4 L13.95 -147.25 Q12.2 -147.8 11.0 -149.55 Z" fill="none" stroke="#c9c9c9" stroke-linecap="butt" stroke-linejoin="miter-clip" stroke-miterlimit="4.0" stroke-opacity="0.29803923" stroke-width="0.7000000000000001"/>
    <path d="M-13.15 -152.3 Q-14.7 -150.85 -16.55 -150.75 -17.5 -150.6 -18.2 -151.3 -19.05 -151.95 -19.1 -152.85 -19.2 -153.8 -18.55 -154.55 -17.9 -155.3 -16.95 -155.4 -15.6 -155.7 -15.3 -158.35 L-13.65 -173.0 Q-13.5 -174.05 -12.8 -174.65 -12.0 -175.25 -11.1 -175.15 -10.05 -175.0 -9.5 -174.3 -8.85 -173.5 -9.0 -172.45 L-10.65 -157.8 Q-11.1 -154.25 -13.15 -152.3" fill="#212121" fill-rule="evenodd" stroke="none"/>
    <path d="M-13.15 -152.3 Q-11.1 -154.25 -10.65 -157.8 L-9.0 -172.45 Q-8.85 -173.5 -9.5 -174.3 -10.05 -175.0 -11.1 -175.15 -12.0 -175.25 -12.8 -174.65 -13.5 -174.05 -13.65 -173.0 L-15.3 -158.35 Q-15.6 -155.7 -16.95 -155.4 -17.9 -155.3 -18.55 -154.55 -19.2 -153.8 -19.1 -152.85 -19.05 -151.95 -18.2 -151.3 -17.5 -150.6 -16.55 -150.75 -14.7 -150.85 -13.15 -152.3 Z" fill="none" stroke="#c9c9c9" stroke-linecap="butt" stroke-linejoin="miter-clip" stroke-miterlimit="4.0" stroke-opacity="0.29803923" stroke-width="0.7000000000000001"/>
    <path d="M28.9 -151.75 Q28.2 -146.6 26.05 -148.15 24.8 -148.95 20.45 -155.15 9.7 -170.3 1.3 -171.45 -7.1 -172.4 -21.25 -160.15 -26.9 -155.15 -28.2 -154.6 -30.75 -153.65 -30.05 -158.85 -28.65 -170.25 -18.9 -177.45 -9.2 -184.5 2.95 -183.0 15.15 -181.5 22.75 -172.3 30.3 -163.15 28.9 -151.75" fill="#3d3d3d" fill-rule="evenodd" stroke="none"/>
    <path d="M28.9 -151.75 Q30.3 -163.15 22.75 -172.3 15.15 -181.5 2.95 -183.0 -9.2 -184.5 -18.9 -177.45 -28.65 -170.25 -30.05 -158.85 -30.75 -153.65 -28.2 -154.6 -26.9 -155.15 -21.25 -160.15 -7.1 -172.4 1.3 -171.45 9.7 -170.3 20.45 -155.15 24.8 -148.95 26.05 -148.15 28.2 -146.6 28.9 -151.75 Z" fill="none" stroke="#000000" stroke-linecap="butt" stroke-linejoin="miter-clip" stroke-miterlimit="4.0" stroke-opacity="0.29803923" stroke-width="0.7000000000000001"/>
    <path d="M-17.35 -173.8 Q-19.75 -174.05 -23.85 -172.7 -26.6 -171.85 -26.45 -173.1 -26.2 -175.25 -23.3 -177.6 -20.1 -180.1 -16.65 -179.75 L20.7 -175.45 Q24.1 -175.05 26.6 -171.85 28.9 -168.9 28.65 -166.75 28.5 -165.5 26.05 -166.95 22.4 -169.2 20.0 -169.5 L-17.35 -173.8" fill="#212121" fill-rule="evenodd" stroke="none"/>
    <path d="M-17.35 -173.8 Q-19.75 -174.05 -23.85 -172.7 -26.6 -171.85 -26.45 -173.1 -26.2 -175.25 -23.3 -177.6 -20.1 -180.1 -16.65 -179.75 L20.7 -175.45 Q24.1 -175.05 26.6 -171.85 28.9 -168.9 28.65 -166.75 28.5 -165.5 26.05 -166.95 22.4 -169.2 20.0 -169.5 L-17.35 -173.8 Z" fill="none" stroke="#e3e3e3" stroke-linecap="butt" stroke-linejoin="miter-clip" stroke-miterlimit="4.0" stroke-opacity="0.29803923" stroke-width="0.7000000000000001"/>
  </g>
</svg>
