<?xml version="1.0" encoding="UTF-8" standalone="no"?>
<svg xmlns:ffdec="https://www.free-decompiler.com/flash" xmlns:xlink="http://www.w3.org/1999/xlink" ffdec:objectType="shape" height="273.05px" width="90.8px" xmlns="http://www.w3.org/2000/svg">
  <g transform="matrix(1.0, 0.0, 0.0, 1.0, 45.5, 136.45)">
    <path d="M-32.45 102.0 Q-39.1 121.45 -45.0 135.6 -18.8 141.7 -0.4 74.05 15.45 15.95 17.7 -57.9 11.15 -61.1 3.25 -62.2 L-3.5 -62.75 Q-7.45 -8.1 -14.55 35.55 -18.85 62.85 -32.45 102.0" fill="#c8c8c8" fill-rule="evenodd" stroke="none"/>
    <path d="M-32.45 102.0 Q-18.85 62.85 -14.55 35.55 -7.45 -8.1 -3.5 -62.75 L3.25 -62.2 Q11.15 -61.1 17.7 -57.9 15.45 15.95 -0.4 74.05 -18.8 141.7 -45.0 135.6 -39.1 121.45 -32.45 102.0 Z" fill="none" stroke="#000000" stroke-linecap="round" stroke-linejoin="round" stroke-opacity="0.3019608" stroke-width="1.0"/>
    <path d="M18.1 -64.05 L-3.55 -67.9 -5.65 -37.05 -1.85 -44.95 Q4.6 -52.15 17.05 -48.7 L18.1 -64.05" fill="#000000" fill-opacity="0.14901961" fill-rule="evenodd" stroke="none"/>
    <path d="M-3.4 -51.7 L11.0 -49.1 Q7.0 14.0 -5.1 65.65 -20.2 130.5 -38.95 129.0 -19.0 73.25 -13.3 36.15 -7.2 -3.3 -3.4 -51.7" fill="#f7f7f7" fill-opacity="0.84705883" fill-rule="evenodd" stroke="none"/>
    <path d="M10.55 -123.1 Q7.9 -123.5 6.25 -125.6 4.65 -127.75 4.95 -130.45 5.35 -133.1 7.5 -134.75 9.7 -136.4 12.4 -136.0 15.05 -135.6 16.65 -133.45 18.25 -131.3 17.9 -128.6 17.55 -125.95 15.4 -124.35 13.3 -122.7 10.55 -123.1" fill="#d5a45b" fill-rule="evenodd" stroke="none"/>
    <path d="M10.55 -123.1 Q7.9 -123.5 6.25 -125.6 4.65 -127.75 4.95 -130.45 5.35 -133.1 7.5 -134.75 9.7 -136.4 12.4 -136.0 15.05 -135.6 16.65 -133.45 18.25 -131.3 17.9 -128.6 17.55 -125.95 15.4 -124.35 13.3 -122.7 10.55 -123.1 Z" fill="none" stroke="#000000" stroke-linecap="round" stroke-linejoin="round" stroke-opacity="0.3019608" stroke-width="0.7000000000000001"/>
    <path d="M-2.75 -67.75 L16.25 -64.35 19.75 -114.6 Q8.4 -118.8 0.75 -118.3 L-2.75 -67.75" fill="#6d4faf" fill-rule="evenodd" stroke="none"/>
    <path d="M-2.75 -67.75 L0.75 -118.3 Q8.4 -118.8 19.75 -114.6 L16.25 -64.35 -2.75 -67.75 Z" fill="none" stroke="#000000" stroke-linecap="butt" stroke-linejoin="miter-clip" stroke-miterlimit="4.0" stroke-opacity="0.3019608" stroke-width="0.5"/>
    <path d="M17.15 -115.4 L15.5 -114.9" fill="none" stroke="#000000" stroke-linecap="round" stroke-linejoin="round" stroke-opacity="0.09803922" stroke-width="1.0"/>
    <path d="M20.0 -118.75 L0.45 -114.2" fill="none" stroke="#5936a4" stroke-linecap="butt" stroke-linejoin="miter-clip" stroke-miterlimit="4.0" stroke-width="0.5"/>
    <path d="M19.6 -112.8 L0.05 -108.2" fill="none" stroke="#000000" stroke-linecap="butt" stroke-linejoin="miter-clip" stroke-miterlimit="4.0" stroke-opacity="0.3019608" stroke-width="0.5"/>
    <path d="M18.75 -100.65 L-0.8 -96.1" fill="none" stroke="#000000" stroke-linecap="butt" stroke-linejoin="miter-clip" stroke-miterlimit="4.0" stroke-opacity="0.3019608" stroke-width="0.5"/>
    <path d="M17.95 -88.55 L-1.6 -84.0" fill="none" stroke="#000000" stroke-linecap="butt" stroke-linejoin="miter-clip" stroke-miterlimit="4.0" stroke-opacity="0.3019608" stroke-width="0.5"/>
    <path d="M17.1 -76.45 L-2.45 -71.85" fill="none" stroke="#000000" stroke-linecap="butt" stroke-linejoin="miter-clip" stroke-miterlimit="4.0" stroke-opacity="0.3019608" stroke-width="0.5"/>
    <path d="M22.4 -114.3 L23.15 -125.5 Q23.25 -126.45 19.65 -127.85 16.25 -129.05 11.15 -129.95 L2.7 -130.9 Q-1.0 -130.8 -1.1 -129.85 L-1.85 -118.65 Q-1.9 -117.9 1.8 -117.85 L10.3 -117.1 Q13.35 -116.55 18.75 -114.8 22.35 -113.55 22.4 -114.3" fill="#d5a45b" fill-rule="evenodd" stroke="none"/>
    <path d="M22.4 -114.3 L23.15 -125.5 Q23.25 -126.45 19.65 -127.85 16.25 -129.05 11.15 -129.95 L2.7 -130.9 Q-1.0 -130.8 -1.1 -129.85 L-1.85 -118.65 Q-1.9 -117.9 1.8 -117.85 L10.3 -117.1 Q13.35 -116.55 18.75 -114.8 22.35 -113.55 22.4 -114.3 Z" fill="none" stroke="#000000" stroke-linecap="round" stroke-linejoin="round" stroke-opacity="0.3019608" stroke-width="0.7000000000000001"/>
    <path d="M1.05 -120.0 Q1.9 -119.4 2.7 -119.4 L7.0 -119.1 Q8.8 -118.75 8.9 -120.3 L9.35 -127.2 Q9.4 -127.8 8.85 -128.35 8.3 -129.1 7.25 -129.0 L2.35 -129.2 Q0.9 -129.2 0.8 -128.15 L0.35 -121.25 Q0.3 -120.75 1.05 -120.0" fill="#f2f2f2" fill-opacity="0.4" fill-rule="evenodd" stroke="none"/>
    <path d="M-8.8 -67.9 L22.2 -62.35 21.7 -54.85 -9.3 -60.4 -8.8 -67.9" fill="#d5a45b" fill-rule="evenodd" stroke="none"/>
    <path d="M-8.8 -67.9 L-9.3 -60.4 21.7 -54.85 22.2 -62.35 -8.8 -67.9 Z" fill="none" stroke="#000000" stroke-linecap="round" stroke-linejoin="round" stroke-opacity="0.3019608" stroke-width="0.7000000000000001"/>
    <path d="M-7.6 -63.85 L6.35 -61.35 Q21.35 -58.65 31.05 -65.3 40.3 -71.6 41.1 -83.4 41.9 -95.35 33.75 -104.7 25.2 -114.45 10.2 -117.15 -8.4 -120.5 -8.35 -117.85 -8.35 -115.1 9.85 -111.8 21.8 -109.65 28.45 -101.8 34.65 -94.3 34.0 -84.65 33.35 -75.15 26.25 -70.05 18.7 -64.7 6.75 -66.85 L-9.75 -70.3 Q-20.75 -71.95 -23.75 -69.25 -28.0 -67.4 -28.25 -63.7 -28.5 -60.35 -25.4 -57.3 -22.35 -54.25 -17.9 -53.5 -13.45 -52.7 -10.25 -54.6 -6.85 -56.45 -6.6 -59.8 -6.45 -61.8 -7.6 -63.85" fill="#d5a45b" fill-rule="evenodd" stroke="none"/>
    <path d="M-7.6 -63.85 Q-6.45 -61.8 -6.6 -59.8 -6.85 -56.45 -10.25 -54.6 -13.45 -52.7 -17.9 -53.5 -22.35 -54.25 -25.4 -57.3 -28.5 -60.35 -28.25 -63.7 -28.0 -67.4 -23.75 -69.25 -20.75 -71.95 -9.75 -70.3 L6.75 -66.85 Q18.7 -64.7 26.25 -70.05 33.35 -75.15 34.0 -84.65 34.65 -94.3 28.45 -101.8 21.8 -109.65 9.85 -111.8 -8.35 -115.1 -8.35 -117.85 -8.4 -120.5 10.2 -117.15 25.2 -114.45 33.75 -104.7 41.9 -95.35 41.1 -83.4 40.3 -71.6 31.05 -65.3 21.35 -58.65 6.35 -61.35 L-7.6 -63.85 Z" fill="none" stroke="#000000" stroke-linecap="round" stroke-linejoin="round" stroke-opacity="0.3019608" stroke-width="0.7000000000000001"/>
    <path d="M10.75 -73.3 Q11.85 -73.5 13.0 -72.95 14.1 -72.4 14.55 -71.45 15.3 -70.3 14.25 -69.35 13.7 -68.85 13.0 -68.8 L10.65 -68.4 Q9.5 -68.15 8.35 -68.75 7.3 -69.2 6.8 -70.1 6.3 -71.05 6.75 -71.9 7.3 -72.7 8.4 -72.9 L10.75 -73.3" fill="#f2f2f2" fill-opacity="0.49803922" fill-rule="evenodd" stroke="none"/>
    <path d="M11.45 -84.65 L13.7 -84.3 Q14.8 -83.75 15.25 -82.8 16.0 -81.65 14.95 -80.7 14.4 -80.2 13.7 -80.15 L11.35 -79.75 Q10.2 -79.5 9.05 -80.1 8.0 -80.55 7.5 -81.45 7.0 -82.4 7.45 -83.25 8.0 -84.05 9.1 -84.25 L11.45 -84.65" fill="#f2f2f2" fill-opacity="0.49803922" fill-rule="evenodd" stroke="none"/>
    <path d="M12.35 -95.9 Q13.45 -96.1 14.6 -95.55 15.7 -95.0 16.15 -94.05 16.9 -92.9 15.85 -91.95 15.3 -91.45 14.6 -91.4 L12.25 -91.0 Q11.1 -90.75 9.95 -91.35 8.9 -91.8 8.4 -92.7 7.9 -93.65 8.35 -94.5 8.9 -95.3 10.0 -95.5 L12.35 -95.9" fill="#f2f2f2" fill-opacity="0.49803922" fill-rule="evenodd" stroke="none"/>
    <path d="M13.2 -107.3 L15.45 -106.95 Q16.55 -106.4 17.0 -105.45 17.75 -104.3 16.7 -103.35 16.15 -102.85 15.45 -102.8 L13.1 -102.4 Q11.95 -102.15 10.8 -102.75 9.75 -103.2 9.25 -104.1 8.75 -105.05 9.2 -105.9 9.75 -106.7 10.85 -106.9 L13.2 -107.3" fill="#f2f2f2" fill-opacity="0.49803922" fill-rule="evenodd" stroke="none"/>
    <path d="M31.9 -60.85 Q30.35 -61.1 29.45 -62.35 28.5 -63.55 28.7 -65.1 28.9 -66.65 30.15 -67.6 31.4 -68.5 32.95 -68.25 34.5 -68.1 35.4 -66.8 36.35 -65.6 36.15 -64.05 35.9 -62.55 34.7 -61.6 33.45 -60.65 31.9 -60.85" fill="#d5a45b" fill-rule="evenodd" stroke="none"/>
    <path d="M31.9 -60.85 Q30.35 -61.1 29.45 -62.35 28.5 -63.55 28.7 -65.1 28.9 -66.65 30.15 -67.6 31.4 -68.5 32.95 -68.25 34.5 -68.1 35.4 -66.8 36.35 -65.6 36.15 -64.05 35.9 -62.55 34.7 -61.6 33.45 -60.65 31.9 -60.85 Z" fill="none" stroke="#000000" stroke-linecap="round" stroke-linejoin="round" stroke-opacity="0.3019608" stroke-width="0.7000000000000001"/>
    <path d="M40.65 -73.9 Q39.1 -74.15 38.2 -75.4 37.25 -76.6 37.45 -78.15 37.65 -79.7 38.9 -80.65 40.15 -81.55 41.7 -81.3 43.25 -81.15 44.15 -79.85 45.1 -78.65 44.9 -77.1 44.65 -75.6 43.45 -74.65 42.2 -73.7 40.65 -73.9" fill="#d5a45b" fill-rule="evenodd" stroke="none"/>
    <path d="M40.65 -73.9 Q39.1 -74.15 38.2 -75.4 37.25 -76.6 37.45 -78.15 37.65 -79.7 38.9 -80.65 40.15 -81.55 41.7 -81.3 43.25 -81.15 44.15 -79.85 45.1 -78.65 44.9 -77.1 44.65 -75.6 43.45 -74.65 42.2 -73.7 40.65 -73.9 Z" fill="none" stroke="#000000" stroke-linecap="round" stroke-linejoin="round" stroke-opacity="0.3019608" stroke-width="0.7000000000000001"/>
    <path d="M40.6 -88.3 Q39.05 -88.55 38.15 -89.8 37.2 -91.0 37.4 -92.55 37.6 -94.1 38.85 -95.05 40.1 -95.95 41.65 -95.7 43.2 -95.55 44.1 -94.25 45.05 -93.05 44.85 -91.5 44.6 -90.0 43.4 -89.05 42.15 -88.1 40.6 -88.3" fill="#d5a45b" fill-rule="evenodd" stroke="none"/>
    <path d="M40.6 -88.3 Q39.05 -88.55 38.15 -89.8 37.2 -91.0 37.4 -92.55 37.6 -94.1 38.85 -95.05 40.1 -95.95 41.65 -95.7 43.2 -95.55 44.1 -94.25 45.05 -93.05 44.85 -91.5 44.6 -90.0 43.4 -89.05 42.15 -88.1 40.6 -88.3 Z" fill="none" stroke="#000000" stroke-linecap="round" stroke-linejoin="round" stroke-opacity="0.3019608" stroke-width="0.7000000000000001"/>
    <path d="M33.2 -100.95 Q31.65 -101.2 30.75 -102.45 29.8 -103.65 30.0 -105.2 30.2 -106.75 31.45 -107.7 32.7 -108.6 34.25 -108.35 35.8 -108.2 36.7 -106.9 37.65 -105.7 37.45 -104.15 37.2 -102.65 36.0 -101.7 34.75 -100.75 33.2 -100.95" fill="#d5a45b" fill-rule="evenodd" stroke="none"/>
    <path d="M33.2 -100.95 Q31.65 -101.2 30.75 -102.45 29.8 -103.65 30.0 -105.2 30.2 -106.75 31.45 -107.7 32.7 -108.6 34.25 -108.35 35.8 -108.2 36.7 -106.9 37.65 -105.7 37.45 -104.15 37.2 -102.65 36.0 -101.7 34.75 -100.75 33.2 -100.95 Z" fill="none" stroke="#000000" stroke-linecap="round" stroke-linejoin="round" stroke-opacity="0.3019608" stroke-width="0.7000000000000001"/>
    <path d="M-14.3 -53.8 Q-16.95 -54.2 -18.6 -56.3 -20.2 -58.45 -19.9 -61.15 -19.5 -63.8 -17.35 -65.45 -15.15 -67.1 -12.45 -66.7 -9.8 -66.3 -8.2 -64.15 -6.6 -62.0 -6.95 -59.3 -7.3 -56.65 -9.45 -55.05 -11.55 -53.4 -14.3 -53.8" fill="#d5a45b" fill-rule="evenodd" stroke="none"/>
    <path d="M-14.3 -53.8 Q-16.95 -54.2 -18.6 -56.3 -20.2 -58.45 -19.9 -61.15 -19.5 -63.8 -17.35 -65.45 -15.15 -67.1 -12.45 -66.7 -9.8 -66.3 -8.2 -64.15 -6.6 -62.0 -6.95 -59.3 -7.3 -56.65 -9.45 -55.05 -11.55 -53.4 -14.3 -53.8 Z" fill="none" stroke="#000000" stroke-linecap="round" stroke-linejoin="round" stroke-opacity="0.3019608" stroke-width="0.7000000000000001"/>
  </g>
</svg>
