<?xml version="1.0" encoding="UTF-8" standalone="no"?>
<svg xmlns:ffdec="https://www.free-decompiler.com/flash" xmlns:xlink="http://www.w3.org/1999/xlink" ffdec:objectType="shape" height="58.75px" width="39.5px" xmlns="http://www.w3.org/2000/svg">
  <g transform="matrix(1.0, 0.0, 0.0, 1.0, 19.75, 29.25)">
    <path d="M19.75 -29.25 Q18.55 -28.6 18.4 -26.85 L18.5 -24.0 Q18.35 -21.8 17.4 -20.25 16.5 -18.75 16.5 -18.5 L17.5 -15.25 17.25 -14.75 17.5 -14.75 17.15 -13.65 Q16.7 -12.15 13.75 -10.5 L12.05 -9.0 9.25 -6.0 Q8.0 -6.3 6.55 -6.9 5.0 -7.55 4.75 -8.0 6.8 -9.1 9.95 -13.0 L13.5 -17.75 Q13.0 -17.75 13.0 -18.4 13.0 -19.4 14.0 -20.1 14.9 -20.8 14.75 -22.0 14.55 -23.15 15.4 -24.1 L16.75 -25.5 Q16.0 -25.9 16.0 -26.9 16.0 -28.4 19.05 -29.1 L19.75 -29.25 M-9.9 -1.15 L-9.65 -1.0 -6.8 -2.1 -4.2 -3.1 -3.95 -3.15 Q-3.7 -2.4 -4.35 -1.95 L-5.75 -1.75 Q-5.25 -1.25 -5.25 -0.75 -5.25 0.05 -8.55 3.65 L-12.75 8.0 -12.75 7.75 Q-12.25 7.25 -12.25 6.75 L-12.35 6.25 -12.5 6.0 Q-13.25 6.0 -14.25 6.5 L-14.25 6.25 -12.7 4.1 -10.75 1.5 -10.45 0.1 Q-10.35 -0.9 -9.75 -1.5 L-9.9 -1.15 M-12.85 17.75 L-12.65 17.85 -12.25 18.15 Q-11.7 18.6 -11.75 19.25 -13.1 20.5 -14.5 20.75 -14.0 21.25 -14.0 22.5 L-14.75 29.5 Q-16.5 27.95 -16.5 26.0 L-19.75 26.0 Q-19.75 24.5 -18.35 23.65 -17.0 22.75 -17.0 21.75 -17.0 21.45 -17.25 21.45 L-17.5 21.1 Q-17.5 19.55 -13.75 17.75 L-12.85 17.75" fill="#ffffff" fill-rule="evenodd" stroke="none"/>
  </g>
</svg>
