<?xml version="1.0" encoding="UTF-8" standalone="no"?>
<svg xmlns:ffdec="https://www.free-decompiler.com/flash" xmlns:xlink="http://www.w3.org/1999/xlink" ffdec:objectType="shape" height="23.3px" width="165.35px" xmlns="http://www.w3.org/2000/svg">
  <g transform="matrix(1.0, 0.0, 0.0, 1.0, 90.15, 2.35)">
    <path d="M63.7 -2.35 Q68.45 -2.35 71.8 1.05 75.2 4.45 75.2 9.3 75.2 11.65 74.45 13.65 73.55 15.8 71.8 17.55 L70.9 18.4 Q67.85 20.95 63.7 20.95 58.95 20.95 55.55 17.55 L53.85 15.4 Q60.55 7.5 62.3 -2.25 L63.7 -2.35 M-79.15 -1.35 Q-77.25 6.25 -71.7 12.2 L-69.9 14.0 Q-70.7 15.5 -72.0 16.8 -75.1 19.95 -79.5 19.95 -83.25 19.95 -86.05 17.7 L-85.95 17.5 -86.05 17.35 -86.3 17.15 -88.1 14.65 -88.65 14.8 -88.75 14.65 Q-90.15 12.25 -90.15 9.3 -90.15 4.9 -87.05 1.75 -83.9 -1.35 -79.5 -1.35 L-79.15 -1.35" fill="#ff0000" fill-rule="evenodd" stroke="none"/>
  </g>
</svg>
