<?xml version="1.0" encoding="UTF-8" standalone="no"?>
<svg xmlns:ffdec="https://www.free-decompiler.com/flash" xmlns:xlink="http://www.w3.org/1999/xlink" ffdec:objectType="shape" height="99.05px" width="232.0px" xmlns="http://www.w3.org/2000/svg">
  <g transform="matrix(1.0, 0.0, 0.0, 1.0, 0.0, 0.0)">
    <path d="M183.85 48.3 Q182.1 58.05 175.4 65.95 L170.75 70.65 Q157.15 82.8 137.85 82.8 118.55 82.8 104.9 70.65 98.2 64.7 94.8 57.55 93.1 60.3 90.8 62.75 82.35 71.85 70.35 71.85 59.6 71.85 51.65 64.55 L49.85 62.75 Q44.3 56.8 42.4 49.2 41.4 45.25 41.4 40.9 41.4 28.1 49.85 19.0 58.35 9.95 70.35 9.95 82.35 9.95 90.8 19.0 93.3 21.7 95.1 24.7 98.45 17.85 104.9 12.1 118.55 0.0 137.85 0.0 157.15 0.0 170.75 12.1 184.4 24.25 184.4 41.4 184.4 44.95 183.85 48.3 M193.35 68.1 Q195.1 66.35 196.0 64.2 L232.0 69.2 223.05 73.85 230.4 81.4 220.25 83.1 224.65 92.45 214.0 88.9 213.7 98.1 192.45 68.95 193.35 68.1 M18.85 91.7 L12.7 95.35 14.15 86.55 5.8 86.75 8.5 78.45 0.0 75.5 33.45 65.2 35.25 67.7 35.5 67.9 35.6 68.05 20.5 99.05 18.85 91.7" fill="#000000" fill-rule="evenodd" stroke="none"/>
  </g>
</svg>
