<?xml version="1.0" encoding="UTF-8" standalone="no"?>
<svg xmlns:ffdec="https://www.free-decompiler.com/flash" xmlns:xlink="http://www.w3.org/1999/xlink" ffdec:objectType="shape" height="69.95px" width="74.8px" xmlns="http://www.w3.org/2000/svg">
  <g transform="matrix(1.0, 0.0, 0.0, 1.0, 36.55, 45.65)">
    <path d="M-25.9 -35.3 L-22.4 -39.15 Q-19.2 -32.8 -12.65 -25.4 -4.1 -33.8 2.45 -45.55 L7.45 -43.7 Q-0.75 -27.6 -12.5 -14.7 -20.35 -24.05 -25.9 -35.3" fill="#ffffff" fill-rule="evenodd" stroke="none"/>
    <path d="M13.3 -40.15 L15.15 -38.65 15.85 -38.15 18.0 -36.3 Q26.4 -28.6 31.25 -18.35 35.95 -8.3 38.15 6.75 29.1 13.8 20.05 18.0 5.8 7.45 -8.15 -8.8 5.1 -23.25 13.3 -40.15 M13.0 20.85 Q-10.5 28.7 -34.45 18.15 L-35.6 10.45 Q-36.95 1.4 -36.1 -7.0 -35.45 -15.85 -32.25 -23.9 -31.25 -26.75 -29.9 -29.1 -25.4 -19.7 -20.2 -12.5 -15.15 -5.3 -7.45 2.75 0.25 10.6 13.0 20.85" fill="#d95996" fill-rule="evenodd" stroke="none"/>
    <path d="M7.45 -43.7 Q10.3 -42.35 13.0 -40.35 L13.3 -40.15 Q5.1 -23.25 -8.15 -8.8 5.8 7.45 20.05 18.0 L19.5 18.15 16.15 19.65 13.0 20.85 Q0.25 10.6 -7.45 2.75 -15.15 -5.3 -20.2 -12.5 -25.4 -19.7 -29.9 -29.1 -28.1 -32.6 -25.9 -35.3 -20.35 -24.05 -12.5 -14.7 -0.75 -27.6 7.45 -43.7" fill="#7e1d53" fill-rule="evenodd" stroke="none"/>
    <path d="M7.45 -43.7 Q10.3 -42.35 13.0 -40.35 L13.3 -40.15 15.15 -38.65 15.85 -38.15 18.0 -36.3 Q26.4 -28.6 31.25 -18.35 35.95 -8.3 38.15 6.75 29.1 13.8 20.05 18.0 L19.5 18.15 16.15 19.65 13.0 20.85 Q-10.5 28.7 -34.45 18.15 L-35.6 10.45 Q-36.95 1.4 -36.1 -7.0 -35.45 -15.85 -32.25 -23.9 -31.25 -26.75 -29.9 -29.1 -28.1 -32.6 -25.9 -35.3 L-22.4 -39.15 Q-19.2 -32.8 -12.65 -25.4 -4.1 -33.8 2.45 -45.55 L7.45 -43.7 Z" fill="none" stroke="#000000" stroke-linecap="round" stroke-linejoin="round" stroke-opacity="0.2" stroke-width="0.2"/>
  </g>
</svg>
