<?xml version="1.0" encoding="UTF-8" standalone="no"?>
<svg xmlns:ffdec="https://www.free-decompiler.com/flash" xmlns:xlink="http://www.w3.org/1999/xlink" ffdec:objectType="shape" height="68.9px" width="74.8px" xmlns="http://www.w3.org/2000/svg">
  <g transform="matrix(1.0, 0.0, 0.0, 1.0, 36.65, 44.6)">
    <path d="M33.35 -12.85 Q36.2 -6.3 38.05 6.75 29.0 13.8 19.95 18.0 19.65 18.0 19.45 18.15 L16.1 19.65 Q14.45 20.15 12.95 20.8 -10.5 28.7 -34.45 18.15 L-35.65 10.45 Q-37.0 0.55 -36.3 -7.15 -35.65 -15.85 -32.3 -23.9 -31.3 -26.75 -29.95 -29.1 -28.1 -32.6 -25.95 -35.3 L-22.4 -39.15 Q-19.25 -32.75 -12.2 -29.25 -1.15 -30.45 6.4 -42.5 4.9 -44.85 7.4 -43.65 9.75 -42.5 12.25 -40.8 9.75 -35.95 10.6 -30.45 12.4 -19.2 20.8 -15.0 26.15 -12.35 33.35 -12.85" fill="#ffffff" fill-rule="evenodd" stroke="none"/>
    <path d="M12.25 -40.8 L12.95 -40.3 13.25 -40.15 15.1 -38.65 15.75 -38.15 16.3 -37.65 Q14.95 -34.95 14.95 -31.6 14.95 -25.9 19.1 -21.7 23.5 -17.55 29.35 -17.55 L31.35 -17.7 33.35 -12.85 Q26.15 -12.35 20.8 -15.0 12.4 -19.2 10.6 -30.45 9.75 -35.95 12.25 -40.8" fill="#ff6699" fill-rule="evenodd" stroke="none"/>
    <path d="M8.75 -43.0 Q5.05 -36.3 -5.15 -30.75 -15.55 -25.25 -24.95 -36.65 L-22.25 -39.3 Q-14.55 -29.6 -5.65 -35.6 0.85 -40.15 5.2 -44.5 L8.75 -43.0" fill="#ff6699" fill-rule="evenodd" stroke="none"/>
    <path d="M-11.55 -2.45 Q-13.05 -2.45 -13.85 -1.3 -14.7 -0.3 -14.55 1.4 -14.35 3.05 -13.35 3.9 -12.35 4.75 -10.7 4.75 -9.2 4.6 -8.2 3.75 -7.35 2.9 -7.5 1.05 -7.65 -0.6 -8.85 -1.6 -10.0 -2.65 -11.55 -2.45 M-12.7 -13.2 Q-14.35 -13.0 -15.05 -12.15 -15.7 -11.35 -15.55 -9.85 -15.4 -8.3 -14.35 -7.65 -13.55 -7.0 -12.05 -7.15 -10.5 -7.3 -9.7 -8.0 -9.0 -8.8 -9.0 -10.35 -9.35 -11.85 -10.2 -12.5 -11.0 -13.35 -12.7 -13.2 M-21.4 -15.35 Q-20.4 -16.7 -18.55 -17.55 -16.55 -18.7 -13.35 -19.05 L-7.85 -18.85 Q-5.65 -18.35 -4.15 -17.2 -2.8 -16.0 -2.0 -14.7 -1.3 -13.35 -1.15 -12.15 -0.95 -9.85 -1.8 -8.0 -2.65 -6.3 -4.3 -5.3 -2.0 -4.45 -0.65 -2.95 0.7 -1.6 1.05 0.9 1.35 4.05 0.05 6.25 -1.3 8.45 -3.8 9.45 -6.5 10.45 -10.0 10.45 -13.55 10.45 -16.05 9.6 -18.55 8.6 -20.05 6.6 -21.75 4.75 -22.1 1.75 -22.4 -0.6 -21.6 -1.95 -20.75 -3.45 -18.75 -4.45 -20.4 -5.15 -21.4 -6.65 -22.6 -8.15 -22.75 -10.15 -23.1 -11.35 -22.75 -12.65 -22.4 -14.0 -21.4 -15.35" fill="#ff6699" fill-rule="evenodd" stroke="none"/>
    <path d="M6.75 -44.0 Q6.9 -43.85 7.4 -43.65 L8.75 -43.0 12.25 -40.8 12.95 -40.3 13.25 -40.15 15.1 -38.65 15.75 -38.15 16.3 -37.65 Q14.95 -34.95 14.95 -31.6 14.95 -25.9 19.1 -21.7 23.5 -17.55 29.35 -17.55 L31.35 -17.7 33.35 -12.85 Q36.2 -6.3 38.05 6.75 29.0 13.8 19.95 18.0 19.65 18.0 19.45 18.15 L16.1 19.65 Q14.45 20.15 12.95 20.8 -10.5 28.7 -34.45 18.15 L-35.65 10.45 Q-37.0 0.55 -36.3 -7.15 -35.65 -15.85 -32.3 -23.9 -31.3 -26.75 -29.95 -29.1 -28.1 -32.6 -25.95 -35.3 L-24.95 -36.65 -22.4 -39.15 -22.25 -39.3 Q-14.55 -29.6 -5.65 -35.6 0.85 -40.15 5.2 -44.5 L6.75 -44.0 Z" fill="none" stroke="#000000" stroke-linecap="round" stroke-linejoin="round" stroke-opacity="0.2" stroke-width="0.2"/>
  </g>
</svg>
