<?xml version="1.0" encoding="UTF-8" standalone="no"?>
<svg xmlns:ffdec="https://www.free-decompiler.com/flash" xmlns:xlink="http://www.w3.org/1999/xlink" ffdec:objectType="shape" height="118.3px" width="123.45px" xmlns="http://www.w3.org/2000/svg">
  <g transform="matrix(1.0, 0.0, 0.0, 1.0, 61.75, 59.15)">
    <path d="M61.15 -15.4 Q62.45 -13.65 60.65 -2.1 58.9 11.2 54.65 23.5 42.55 59.15 20.5 59.15 -7.15 59.15 -26.25 49.6 -47.05 39.3 -47.05 22.25 -47.05 6.2 -44.3 1.65 -56.1 -14.2 -59.1 -21.2 -64.9 -36.5 -58.1 -43.3 -56.35 -35.8 -49.3 -33.0 -50.35 -34.75 -50.35 -43.3 -50.1 -52.85 -41.55 -59.15 -42.3 -51.6 -40.75 -45.8 -39.3 -40.3 -35.75 -37.8 -36.0 -42.3 -32.25 -48.35 -27.0 -56.35 -20.7 -55.35 -24.45 -51.85 -25.2 -46.1 -25.7 -42.55 -22.7 -39.55 -15.95 -31.25 8.45 -34.0 28.55 -36.5 45.6 -27.75 57.9 -21.45 61.15 -15.4" fill="#000000" fill-rule="evenodd" stroke="none"/>
  </g>
</svg>
