<?xml version="1.0" encoding="UTF-8" standalone="no"?>
<svg xmlns:ffdec="https://www.free-decompiler.com/flash" xmlns:xlink="http://www.w3.org/1999/xlink" ffdec:objectType="shape" height="41.0px" width="72.6px" xmlns="http://www.w3.org/2000/svg">
  <g transform="matrix(1.0, 0.0, 0.0, 1.0, 34.25, -6.15)">
    <path d="M37.25 23.0 Q35.6 30.8 30.95 35.15 26.0 39.8 19.85 42.8 12.7 45.95 2.7 46.95 -5.75 47.75 -12.75 45.6 -20.2 43.1 -24.85 37.65 -29.35 32.5 -31.5 26.65 -33.15 22.2 -34.15 17.85 4.55 28.15 37.95 6.25 38.75 15.05 37.25 23.0" fill="#000000" fill-rule="evenodd" stroke="none"/>
    <path d="M38.1 16.7 Q5.35 38.95 -31.2 27.5 L-31.5 26.65 Q-33.15 22.2 -34.15 17.85 4.55 28.15 37.95 6.25 38.45 11.55 38.1 16.7" fill="#336699" fill-rule="evenodd" stroke="none"/>
    <path d="M38.1 16.7 Q5.35 38.95 -31.2 27.5 L-31.5 26.65 Q-33.15 22.2 -34.15 17.85 4.55 28.15 37.95 6.25 38.45 11.55 38.1 16.7 Z" fill="none" stroke="#000000" stroke-linecap="round" stroke-linejoin="round" stroke-opacity="0.2" stroke-width="0.2"/>
  </g>
</svg>
