<?xml version="1.0" encoding="UTF-8" standalone="no"?>
<svg xmlns:ffdec="https://www.free-decompiler.com/flash" xmlns:xlink="http://www.w3.org/1999/xlink" ffdec:objectType="shape" height="400.0px" width="280.0px" xmlns="http://www.w3.org/2000/svg">
  <g transform="matrix(1.0, 0.0, 0.0, 1.0, 0.0, 0.0)">
    <path d="M280.0 0.0 L280.0 400.0 0.0 400.0 0.0 0.0 280.0 0.0" fill="#ff9900" fill-rule="evenodd" stroke="none"/>
    <path d="M280.0 0.0 L277.5 2.85 2.45 2.85 0.0 0.0 280.0 0.0" fill="#ffffff" fill-opacity="0.34901962" fill-rule="evenodd" stroke="none"/>
    <path d="M277.5 2.85 L280.0 0.0 280.0 400.0 277.5 397.1 277.5 2.85" fill="#ffffff" fill-opacity="0.2509804" fill-rule="evenodd" stroke="none"/>
    <path d="M0.0 0.0 L2.45 2.85 2.45 397.1 0.0 400.0 0.0 0.0" fill="#000000" fill-opacity="0.2509804" fill-rule="evenodd" stroke="none"/>
    <path d="M277.5 397.1 L280.0 400.0 0.0 400.0 2.45 397.1 277.5 397.1" fill="#000000" fill-opacity="0.34901962" fill-rule="evenodd" stroke="none"/>
    <path d="M268.05 45.5 Q255.6 56.45 248.3 57.75 241.5 58.75 239.75 64.1 238.1 69.45 228.7 72.9 230.75 67.55 228.8 61.45 L214.1 58.6 207.05 57.65 Q200.45 56.45 199.65 56.75 198.9 57.05 193.8 62.25 188.75 67.15 182.15 66.25 L186.0 61.3 Q189.05 57.3 188.45 52.5 187.85 47.7 184.45 40.9 182.0 35.4 180.3 34.0 195.8 40.05 198.25 49.1 202.9 47.35 207.2 45.9 211.85 44.5 222.15 42.7 220.5 30.25 215.55 27.8 233.1 28.5 238.6 40.15 L250.1 41.25 Q253.5 41.4 268.05 45.5 M179.45 93.2 L172.4 94.15 157.7 97.0 Q155.75 103.1 157.8 108.45 148.4 105.0 146.75 99.65 145.0 94.3 138.2 93.3 130.9 92.0 118.45 81.05 133.0 76.95 136.4 76.8 L147.9 75.7 Q153.4 64.05 170.95 63.35 166.0 65.8 164.35 78.25 174.65 80.05 179.3 81.45 L188.25 84.65 Q190.7 75.6 206.2 69.55 204.5 70.95 202.05 76.45 198.65 83.25 198.05 88.05 197.45 92.85 200.5 96.85 203.15 100.55 204.35 101.8 197.75 102.7 192.7 97.8 187.6 92.6 186.85 92.3 186.05 92.0 179.45 93.2 M195.25 3.0 Q195.6 6.1 197.7 8.85 200.35 12.55 201.55 13.8 194.95 14.7 189.9 9.8 184.8 4.6 184.05 4.3 183.25 4.0 176.65 5.2 L169.6 6.15 154.9 9.0 Q152.95 15.1 155.0 20.45 145.6 17.0 143.95 11.65 142.2 6.3 135.4 5.3 132.7 4.8 129.25 3.0 L195.25 3.0 M277.0 60.6 L277.0 64.85 Q275.2 68.6 274.35 75.15 L277.0 75.65 277.0 92.05 267.7 93.9 Q265.75 100.0 267.8 105.35 258.4 101.9 256.75 96.55 255.0 91.2 248.2 90.2 240.9 88.9 228.45 77.95 243.0 73.85 246.4 73.7 L257.9 72.6 Q262.75 62.3 277.0 60.6 M248.55 3.0 L277.0 3.0 277.0 3.5 264.9 5.9 Q262.95 12.0 265.0 17.35 255.6 13.9 253.95 8.55 252.65 4.55 248.55 3.0 M241.4 128.15 L252.9 129.25 Q256.3 129.4 270.85 133.5 258.4 144.45 251.1 145.75 244.3 146.75 242.55 152.1 240.9 157.45 231.5 160.9 233.55 155.55 231.6 149.45 L216.9 146.6 209.85 145.65 Q203.25 144.45 202.45 144.75 201.7 145.05 196.6 150.25 191.55 155.15 184.95 154.25 L188.8 149.3 Q191.85 145.3 191.25 140.5 190.65 135.7 187.25 128.9 184.8 123.4 183.1 122.0 198.6 128.05 201.05 137.1 205.7 135.35 210.0 133.9 214.65 132.5 224.95 130.7 223.3 118.25 218.35 115.8 235.9 116.5 241.4 128.15 M277.0 155.45 L277.0 186.95 272.3 187.9 Q270.35 194.0 272.4 199.35 263.0 195.9 261.35 190.55 259.6 185.2 252.8 184.2 245.5 182.9 233.05 171.95 247.6 167.85 251.0 167.7 L262.5 166.6 Q266.5 158.1 277.0 155.45 M177.0 188.15 L162.3 191.0 Q160.35 197.1 162.4 202.45 153.0 199.0 151.35 193.65 149.6 188.3 142.8 187.3 135.5 186.0 123.05 175.05 137.6 170.95 141.0 170.8 L152.5 169.7 Q158.0 158.05 175.55 157.35 170.6 159.8 168.95 172.25 179.25 174.05 183.9 175.45 L192.85 178.65 Q195.3 169.6 210.8 163.55 209.1 164.95 206.65 170.45 203.25 177.25 202.65 182.05 202.05 186.85 205.1 190.85 L208.95 195.8 Q202.35 196.7 197.3 191.8 192.2 186.6 191.45 186.3 190.65 186.0 184.05 187.2 L177.0 188.15 M139.1 37.7 Q142.5 37.85 157.05 41.95 144.6 52.9 137.3 54.2 130.5 55.2 128.75 60.55 127.1 65.9 117.7 69.35 119.75 64.0 117.8 57.9 L103.1 55.05 96.05 54.1 88.65 53.2 Q87.9 53.5 82.8 58.7 77.75 63.6 71.15 62.7 L75.0 57.75 Q78.05 53.75 77.45 48.95 76.85 44.15 73.45 37.35 71.0 31.85 69.3 30.45 84.8 36.5 87.25 45.55 L96.2 42.35 Q100.85 40.95 111.15 39.15 109.5 26.7 104.55 24.25 122.1 24.95 127.6 36.6 L139.1 37.7 M91.05 80.0 Q87.65 86.8 87.05 91.6 86.45 96.4 89.5 100.4 L93.35 105.35 Q86.75 106.25 81.7 101.35 76.6 96.15 75.85 95.85 75.05 95.55 68.45 96.75 L61.4 97.7 46.7 100.55 Q44.75 106.65 46.8 112.0 37.4 108.55 35.75 103.2 34.0 97.85 27.2 96.85 19.9 95.55 7.45 84.6 22.0 80.5 25.4 80.35 L36.9 79.25 Q42.4 67.6 59.95 66.9 55.0 69.35 53.35 81.8 63.65 83.6 68.3 85.0 L77.25 88.2 Q79.7 79.15 95.2 73.1 93.5 74.5 91.05 80.0 M84.35 3.0 L84.25 3.6 Q83.65 8.4 86.7 12.4 L90.55 17.35 Q83.95 18.25 78.9 13.35 73.8 8.15 73.05 7.85 72.25 7.55 65.65 8.75 L58.6 9.7 43.9 12.55 Q41.95 18.65 44.0 24.0 34.6 20.55 32.95 15.2 31.2 9.85 24.4 8.85 19.6 8.0 12.65 3.0 L84.35 3.0 M17.6 33.5 L29.1 34.6 Q32.5 34.75 47.05 38.85 34.6 49.8 27.3 51.1 20.5 52.1 18.75 57.45 17.1 62.8 7.7 66.25 9.75 60.9 7.8 54.8 L3.0 53.85 3.0 22.3 Q13.55 24.95 17.6 33.5 M76.25 125.35 Q73.8 119.85 72.1 118.45 87.6 124.5 90.05 133.55 94.7 131.8 99.0 130.35 103.65 128.95 113.95 127.15 112.3 114.7 107.35 112.25 124.9 112.95 130.4 124.6 L141.9 125.7 Q145.3 125.85 159.85 129.95 147.4 140.9 140.1 142.2 133.3 143.2 131.55 148.55 129.9 153.9 120.5 157.35 122.55 152.0 120.6 145.9 L105.9 143.05 98.85 142.1 Q92.25 140.9 91.45 141.2 90.7 141.5 85.6 146.7 80.55 151.6 73.95 150.7 L77.8 145.75 Q80.85 141.75 80.25 136.95 79.65 132.15 76.25 125.35 M31.9 122.6 Q35.3 122.75 49.85 126.85 37.4 137.8 30.1 139.1 23.3 140.1 21.55 145.45 19.9 150.8 10.5 154.25 12.55 148.9 10.6 142.8 L3.0 141.3 3.0 124.25 3.95 124.05 3.0 118.8 3.0 109.7 Q15.85 111.85 20.4 121.5 L31.9 122.6 M31.8 190.85 Q24.5 189.55 12.05 178.6 26.6 174.5 30.0 174.35 L41.5 173.25 Q47.0 161.6 64.55 160.9 59.6 163.35 57.95 175.8 68.25 177.6 72.9 179.0 77.2 180.45 81.85 182.2 84.3 173.15 99.8 167.1 98.1 168.5 95.65 174.0 92.25 180.8 91.65 185.6 91.05 190.4 94.1 194.4 96.75 198.1 97.95 199.35 91.35 200.25 86.3 195.35 81.2 190.15 80.45 189.85 79.65 189.55 73.05 190.75 L66.0 191.7 51.3 194.55 Q49.35 200.65 51.4 206.0 42.0 202.55 40.35 197.2 38.6 191.85 31.8 190.85 M136.15 242.55 Q134.5 247.9 125.1 251.35 127.15 246.0 125.2 239.9 L110.5 237.05 103.45 236.1 96.05 235.2 Q95.3 235.5 90.2 240.7 85.15 245.6 78.55 244.7 L82.4 239.75 Q85.45 235.75 84.85 230.95 84.25 226.15 80.85 219.35 78.4 213.85 76.7 212.45 92.2 218.5 94.65 227.55 99.3 225.8 103.6 224.35 108.25 222.95 118.55 221.15 116.9 208.7 111.95 206.25 129.5 206.95 135.0 218.6 L146.5 219.7 Q149.9 219.85 164.45 223.95 152.0 234.9 144.7 236.2 137.9 237.2 136.15 242.55 M154.85 291.4 Q145.45 287.95 143.8 282.6 142.05 277.25 135.25 276.25 127.95 274.95 115.5 264.0 130.05 259.9 133.45 259.75 L144.95 258.65 Q150.45 247.0 168.0 246.3 163.05 248.75 161.4 261.2 171.7 263.0 176.35 264.4 L185.3 267.6 Q187.75 258.55 203.25 252.5 201.55 253.9 199.1 259.4 195.7 266.2 195.1 271.0 194.5 275.8 197.55 279.8 200.2 283.5 201.4 284.75 194.8 285.65 189.75 280.75 184.65 275.55 183.9 275.25 L176.5 276.15 169.45 277.1 154.75 279.95 Q152.8 286.05 154.85 291.4 M88.1 262.95 Q84.7 269.75 84.1 274.55 83.5 279.35 86.55 283.35 89.2 287.05 90.4 288.3 83.8 289.2 78.75 284.3 73.65 279.1 72.9 278.8 L65.5 279.7 58.45 280.65 43.75 283.5 Q41.8 289.6 43.85 294.95 34.45 291.5 32.8 286.15 31.05 280.8 24.25 279.8 16.95 278.5 4.5 267.55 19.05 263.45 22.45 263.3 L33.95 262.2 Q39.45 250.55 57.0 249.85 52.05 252.3 50.4 264.75 60.7 266.55 65.35 267.95 L74.3 271.15 Q76.75 262.1 92.25 256.05 90.55 257.45 88.1 262.95 M36.5 216.6 Q39.9 216.75 54.45 220.85 42.0 231.8 34.7 233.1 27.9 234.1 26.15 239.45 24.5 244.8 15.1 248.25 17.15 242.9 15.2 236.8 L3.0 234.4 3.0 219.1 8.55 218.05 Q7.1 206.95 3.0 203.8 L3.0 203.2 Q19.65 204.2 25.0 215.5 L36.5 216.6 M73.3 308.3 Q70.85 302.8 69.15 301.4 84.65 307.45 87.1 316.5 91.75 314.75 96.05 313.3 100.7 311.9 111.0 310.1 109.35 297.65 104.4 295.2 121.95 295.9 127.45 307.55 L138.95 308.65 Q142.35 308.8 156.9 312.9 144.45 323.85 137.15 325.15 130.35 326.15 128.6 331.5 126.95 336.85 117.55 340.3 119.6 334.95 117.65 328.85 L102.95 326.0 95.9 325.05 Q89.3 323.85 88.5 324.15 87.75 324.45 82.65 329.65 77.6 334.55 71.0 333.65 L74.85 328.7 Q77.9 324.7 77.3 319.9 76.7 315.1 73.3 308.3 M3.0 324.85 L3.0 293.3 Q13.45 295.95 17.45 304.45 L28.95 305.55 Q32.35 305.7 46.9 309.8 34.45 320.75 27.15 322.05 20.35 323.05 18.6 328.4 16.95 333.75 7.55 337.2 9.6 331.85 7.65 325.75 L3.0 324.85 M152.75 387.4 Q143.35 383.95 141.7 378.6 139.95 373.25 133.15 372.25 125.85 370.95 113.4 360.0 127.95 355.9 131.35 355.75 L142.85 354.65 Q148.35 343.0 165.9 342.3 160.95 344.75 159.3 357.2 169.6 359.0 174.25 360.4 178.55 361.85 183.2 363.6 185.65 354.55 201.15 348.5 199.45 349.9 197.0 355.4 193.6 362.2 193.0 367.0 192.4 371.8 195.45 375.8 L199.3 380.75 Q192.7 381.65 187.65 376.75 182.55 371.55 181.8 371.25 181.0 370.95 174.4 372.15 L167.35 373.1 152.65 375.95 Q150.7 382.05 152.75 387.4 M3.0 364.1 L3.0 363.4 Q17.0 359.45 20.35 359.3 L31.85 358.2 Q37.35 346.55 54.9 345.85 49.95 348.3 48.3 360.75 58.6 362.55 63.25 363.95 67.55 365.4 72.2 367.15 74.65 358.1 90.15 352.05 88.45 353.45 86.0 358.95 82.6 365.75 82.0 370.55 81.4 375.35 84.45 379.35 87.1 383.05 88.3 384.3 81.7 385.2 76.65 380.3 71.55 375.1 70.8 374.8 70.0 374.5 63.4 375.7 L56.35 376.65 41.65 379.5 Q39.7 385.6 41.75 390.95 32.35 387.5 30.7 382.15 28.95 376.8 22.15 375.8 15.05 374.55 3.0 364.1 M255.7 239.75 Q248.9 240.75 247.15 246.1 245.5 251.45 236.1 254.9 238.15 249.55 236.2 243.45 L221.5 240.6 214.45 239.65 Q207.85 238.45 207.05 238.75 206.3 239.05 201.2 244.25 196.15 249.15 189.55 248.25 L193.4 243.3 Q196.45 239.3 195.85 234.5 195.25 229.7 191.85 222.9 189.4 217.4 187.7 216.0 203.2 222.05 205.65 231.1 210.3 229.35 214.6 227.9 219.25 226.5 229.55 224.7 227.9 212.25 222.95 209.8 240.5 210.5 246.0 222.15 L257.5 223.25 Q260.9 223.4 275.45 227.5 263.0 238.45 255.7 239.75 M277.0 243.25 L277.0 243.85 Q272.9 246.95 271.4 258.1 L277.0 259.15 277.0 274.45 264.75 276.85 Q262.8 282.95 264.85 288.3 255.45 284.85 253.8 279.5 252.05 274.15 245.25 273.15 237.95 271.85 225.5 260.9 240.05 256.8 243.45 256.65 L254.95 255.55 Q260.3 244.25 277.0 243.25 M238.45 311.1 L249.95 312.2 Q253.35 312.35 267.9 316.45 255.45 327.4 248.15 328.7 241.35 329.7 239.6 335.05 237.95 340.4 228.55 343.85 230.6 338.5 228.65 332.4 L213.95 329.55 206.9 328.6 Q200.3 327.4 199.5 327.7 198.75 328.0 193.65 333.2 188.6 338.1 182.0 337.2 L185.85 332.25 Q188.9 328.25 188.3 323.45 187.7 318.65 184.3 311.85 181.85 306.35 180.15 304.95 195.65 311.0 198.1 320.05 202.75 318.3 207.05 316.85 211.7 315.45 222.0 313.65 220.35 301.2 215.4 298.75 232.95 299.45 238.45 311.1 M13.25 396.95 L3.0 396.95 3.0 389.9 Q9.6 392.1 13.25 396.95 M120.3 396.95 L106.75 396.95 Q105.05 392.55 102.3 391.2 113.95 391.65 120.3 396.95 M225.15 396.95 L215.85 396.95 Q214.7 395.45 213.3 394.75 220.1 395.0 225.15 396.95 M223.4 356.9 Q237.95 352.8 241.35 352.65 L252.85 351.55 Q258.35 339.9 275.9 339.2 270.95 341.65 269.3 354.1 L277.0 355.55 277.0 370.05 262.65 372.85 Q260.7 378.95 262.75 384.3 253.35 380.85 251.7 375.5 249.95 370.15 243.15 369.15 235.85 367.85 223.4 356.9" fill="#ffffff" fill-opacity="0.2" fill-rule="evenodd" stroke="none"/>
    <path d="M258.4 74.65 L263.3 72.9 263.3 74.65 258.4 74.65" fill="#ffffff" fill-opacity="0.49803922" fill-rule="evenodd" stroke="none"/>
    <path d="M16.7 74.65 L258.4 74.65 263.3 74.65 263.3 365.15 Q263.3 379.95 249.05 379.95 L30.9 379.95 Q16.7 379.95 16.7 365.15 L16.7 74.65" fill="#ffffff" fill-opacity="0.7019608" fill-rule="evenodd" stroke="none"/>
    <path d="M16.7 74.65 L16.7 35.0 Q16.7 20.2 30.9 20.2 L249.05 20.2 Q263.3 20.2 263.3 35.0 L263.3 72.9 258.4 74.65 16.7 74.65" fill="#ffffff" fill-opacity="0.4" fill-rule="evenodd" stroke="none"/>
    <path d="M263.3 72.9 L263.3 35.0 Q263.3 20.2 249.05 20.2 L30.9 20.2 Q16.7 20.2 16.7 35.0 L16.7 74.65 258.4 74.65 263.3 74.65 263.3 365.15 Q263.3 379.95 249.05 379.95 L30.9 379.95 Q16.7 379.95 16.7 365.15 L16.7 74.65 M263.3 72.9 L263.3 74.65" fill="none" stroke="#000000" stroke-linecap="round" stroke-linejoin="round" stroke-opacity="0.2" stroke-width="2.0"/>
  </g>
</svg>
