<?xml version="1.0" encoding="UTF-8" standalone="no"?>
<svg xmlns:ffdec="https://www.free-decompiler.com/flash" xmlns:xlink="http://www.w3.org/1999/xlink" ffdec:objectType="shape" height="61.9px" width="38.0px" xmlns="http://www.w3.org/2000/svg">
  <g transform="matrix(1.0, 0.0, 0.0, 1.0, -3.4, -8.75)">
    <path d="M12.45 14.65 L21.9 14.65 Q20.2 16.8 18.9 19.95 16.7 25.2 16.65 31.05 L16.55 31.05 16.55 70.65 5.4 70.65 Q4.55 70.65 4.0 70.05 3.4 69.45 3.4 68.6 L3.4 30.55 Q3.4 28.2 7.25 22.15 9.5 18.6 12.45 14.65" fill="url(#gradient0)" fill-rule="evenodd" stroke="none"/>
    <path d="M35.6 8.75 Q36.4 8.75 36.9 9.15 37.5 9.55 37.5 10.15 L37.5 11.8 Q37.5 12.7 36.3 13.15 L34.95 13.15 34.95 12.35 Q34.95 11.75 34.35 11.35 33.75 10.9 32.95 10.9 L7.9 10.9 7.9 10.15 Q7.9 9.55 8.45 9.15 9.0 8.75 9.8 8.75 L35.6 8.75" fill="url(#gradient1)" fill-rule="evenodd" stroke="none"/>
    <path d="M39.2 28.95 Q36.25 30.35 32.8 30.45 28.2 30.65 19.8 27.45 10.75 24.0 8.25 20.25 L12.35 14.9 33.3 14.9 37.55 20.4 Q40.45 24.55 41.4 27.55 L39.2 28.95" fill="url(#gradient2)" fill-rule="evenodd" stroke="none"/>
  </g>
  <defs>
    <linearGradient gradientTransform="matrix(0.0113, 0.0, 0.0, 0.0342, 12.65, 42.65)" gradientUnits="userSpaceOnUse" id="gradient0" spreadMethod="pad" x1="-819.2" x2="819.2">
      <stop offset="0.0" stop-color="#000000" stop-opacity="0.19215687"/>
      <stop offset="1.0" stop-color="#000000" stop-opacity="0.0"/>
    </linearGradient>
    <linearGradient gradientTransform="matrix(0.0181, 0.0, 0.0, 0.0027, 22.7, 10.95)" gradientUnits="userSpaceOnUse" id="gradient1" spreadMethod="pad" x1="-819.2" x2="819.2">
      <stop offset="0.0" stop-color="#ffffff" stop-opacity="0.0"/>
      <stop offset="1.0" stop-color="#ffffff" stop-opacity="0.68235296"/>
    </linearGradient>
    <linearGradient gradientTransform="matrix(-0.0107, 0.0088, -0.006, -0.0073, 24.85, 22.75)" gradientUnits="userSpaceOnUse" id="gradient2" spreadMethod="pad" x1="-819.2" x2="819.2">
      <stop offset="0.0" stop-color="#ffffff"/>
      <stop offset="1.0" stop-color="#ffffff" stop-opacity="0.0"/>
    </linearGradient>
  </defs>
</svg>
