<?xml version="1.0" encoding="UTF-8" standalone="no"?>
<svg xmlns:ffdec="https://www.free-decompiler.com/flash" xmlns:xlink="http://www.w3.org/1999/xlink" ffdec:objectType="shape" height="74.3px" width="44.85px" xmlns="http://www.w3.org/2000/svg">
  <g transform="matrix(1.0, 0.0, 0.0, 1.0, -0.2, 0.5)">
    <path d="M11.35 3.15 L11.2 2.0 Q11.1 1.2 11.6 0.6 12.1 0.0 12.95 0.0 L32.0 0.0 Q32.85 0.0 33.35 0.6 33.85 1.2 33.75 2.0 L31.75 18.8 Q31.7 19.6 31.05 20.2 30.4 20.8 29.55 20.8 L29.05 20.8 28.95 5.1 Q28.95 4.3 28.4 3.75 27.9 3.15 27.15 3.15 L11.35 3.15" fill="#9b7039" fill-rule="evenodd" stroke="none"/>
    <path d="M29.05 20.8 L15.4 20.8 Q14.6 20.8 13.9 20.2 13.25 19.65 13.15 18.8 L11.35 3.15 27.15 3.15 Q27.9 3.15 28.4 3.75 28.95 4.3 28.95 5.1 L29.05 20.8" fill="#8c6433" fill-rule="evenodd" stroke="none"/>
    <path d="M11.35 3.15 L11.2 2.0 Q11.1 1.2 11.6 0.6 12.1 0.0 12.95 0.0 L32.0 0.0 Q32.85 0.0 33.35 0.6 33.85 1.2 33.75 2.0 L31.75 18.8 Q31.7 19.6 31.05 20.2 30.4 20.8 29.55 20.8 L29.05 20.8 15.4 20.8 Q14.6 20.8 13.9 20.2 13.25 19.65 13.15 18.8 L11.35 3.15 Z" fill="none" stroke="#654825" stroke-linecap="round" stroke-linejoin="round" stroke-width="1.0"/>
    <path d="M40.65 21.45 Q44.3 27.3 44.3 31.1 L44.3 69.4 Q44.3 70.4 43.1 71.65 41.95 72.85 40.95 72.85 L4.3 72.85 Q3.3 72.85 2.15 71.65 0.95 70.4 0.95 69.4 L0.95 31.1 Q0.95 27.55 4.6 21.6 6.95 17.8 10.2 13.95 L8.9 13.95 Q8.1 13.95 7.5 13.4 6.9 12.85 6.9 12.1 L6.9 9.9 Q6.9 9.15 7.5 8.6 8.1 8.05 8.9 8.05 L36.35 8.05 Q37.15 8.05 37.75 8.6 38.35 9.15 38.35 9.9 L38.35 12.1 Q38.35 12.85 37.75 13.4 37.15 13.95 36.35 13.95 L35.1 13.95 Q38.3 17.65 40.65 21.45" fill="url(#gradient0)" fill-rule="evenodd" stroke="none"/>
    <path d="M40.65 21.45 Q38.3 17.65 35.1 13.95 L36.35 13.95 Q37.15 13.95 37.75 13.4 38.35 12.85 38.35 12.1 L38.35 9.9 Q38.35 9.15 37.75 8.6 37.15 8.05 36.35 8.05 L8.9 8.05 Q8.1 8.05 7.5 8.6 6.9 9.15 6.9 9.9 L6.9 12.1 Q6.9 12.85 7.5 13.4 8.1 13.95 8.9 13.95 L10.2 13.95 Q6.95 17.8 4.6 21.6 0.95 27.55 0.95 31.1 L0.95 69.4 Q0.95 70.4 2.15 71.65 3.3 72.85 4.3 72.85 L40.95 72.85 Q41.95 72.85 43.1 71.65 44.3 70.4 44.3 69.4 L44.3 31.1 Q44.3 27.3 40.65 21.45 Z" fill="none" stroke="#000000" stroke-linecap="butt" stroke-linejoin="miter-clip" stroke-miterlimit="4.0" stroke-opacity="0.4" stroke-width="1.5"/>
    <path d="M5.55 36.55 L39.6 36.55 39.6 64.9 Q39.6 66.15 38.7 67.0 37.8 67.9 36.55 67.9 L8.6 67.9 Q7.35 67.9 6.45 67.0 5.55 66.15 5.55 64.9 L5.55 36.55" fill="#ffffff" fill-rule="evenodd" stroke="none"/>
    <path d="M5.55 36.55 L5.55 64.9 Q5.55 66.15 6.45 67.0 7.35 67.9 8.6 67.9 L36.55 67.9 Q37.8 67.9 38.7 67.0 39.6 66.15 39.6 64.9 L39.6 36.55 5.55 36.55 Z" fill="none" stroke="#a1d4e3" stroke-linecap="round" stroke-linejoin="round" stroke-opacity="0.49803922" stroke-width="1.0"/>
    <path d="M19.1 59.25 Q19.1 60.85 17.95 61.95 16.85 63.1 15.25 63.1 13.7 63.1 12.55 61.95 11.4 60.85 11.4 59.25 11.4 57.7 12.55 56.55 13.7 55.4 15.25 55.4 16.85 55.4 17.95 56.55 19.1 57.7 19.1 59.25" fill="#ffffff" fill-opacity="0.7019608" fill-rule="evenodd" stroke="none"/>
    <path d="M19.1 59.25 Q19.1 57.7 17.95 56.55 16.85 55.4 15.25 55.4 13.7 55.4 12.55 56.55 11.4 57.7 11.4 59.25 11.4 60.85 12.55 61.95 13.7 63.1 15.25 63.1 16.85 63.1 17.95 61.95 19.1 60.85 19.1 59.25 Z" fill="none" stroke="#a1d4e3" stroke-linecap="butt" stroke-linejoin="miter-clip" stroke-miterlimit="4.0" stroke-opacity="0.49803922" stroke-width="1.0"/>
    <path d="M34.45 36.2 Q34.45 37.8 33.35 38.95 32.2 40.05 30.6 40.05 29.0 40.05 27.9 38.95 26.75 37.8 26.75 36.2 26.75 34.65 27.9 33.5 29.0 32.4 30.6 32.4 32.2 32.4 33.35 33.5 34.45 34.6 34.45 36.2" fill="#ffffff" fill-opacity="0.7019608" fill-rule="evenodd" stroke="none"/>
    <path d="M34.45 36.2 Q34.45 34.6 33.35 33.5 32.2 32.4 30.6 32.4 29.0 32.4 27.9 33.5 26.75 34.65 26.75 36.2 26.75 37.8 27.9 38.95 29.0 40.05 30.6 40.05 32.2 40.05 33.35 38.95 34.45 37.8 34.45 36.2 Z" fill="none" stroke="#a1d4e3" stroke-linecap="butt" stroke-linejoin="miter-clip" stroke-miterlimit="4.0" stroke-opacity="0.49803922" stroke-width="1.0"/>
    <path d="M24.25 47.75 Q25.1 46.9 26.35 46.9 27.6 46.9 28.45 47.75 29.35 48.6 29.35 49.85 29.35 51.1 28.45 51.95 27.6 52.85 26.35 52.85 25.1 52.85 24.25 51.95 23.35 51.1 23.35 49.85 23.35 48.6 24.25 47.75" fill="#ffffff" fill-opacity="0.7019608" fill-rule="evenodd" stroke="none"/>
    <path d="M24.25 47.75 Q23.35 48.6 23.35 49.85 23.35 51.1 24.25 51.95 25.1 52.85 26.35 52.85 27.6 52.85 28.45 51.95 29.35 51.1 29.35 49.85 29.35 48.6 28.45 47.75 27.6 46.9 26.35 46.9 25.1 46.9 24.25 47.75 Z" fill="none" stroke="#a1d4e3" stroke-linecap="butt" stroke-linejoin="miter-clip" stroke-miterlimit="4.0" stroke-opacity="0.49803922" stroke-width="1.0"/>
    <path d="M13.9 36.9 Q13.9 38.15 13.05 39.0 12.2 39.9 10.95 39.9 9.7 39.9 8.85 39.0 7.95 38.15 7.95 36.9 7.95 35.65 8.85 34.8 9.7 33.9 10.95 33.9 12.2 33.9 13.05 34.8 13.9 35.65 13.9 36.9" fill="#ffffff" fill-opacity="0.7019608" fill-rule="evenodd" stroke="none"/>
    <path d="M13.9 36.9 Q13.9 35.65 13.05 34.8 12.2 33.9 10.95 33.9 9.7 33.9 8.85 34.8 7.95 35.65 7.95 36.9 7.95 38.15 8.85 39.0 9.7 39.9 10.95 39.9 12.2 39.9 13.05 39.0 13.9 38.15 13.9 36.9 Z" fill="none" stroke="#a1d4e3" stroke-linecap="butt" stroke-linejoin="miter-clip" stroke-miterlimit="4.0" stroke-opacity="0.49803922" stroke-width="1.0"/>
    <path d="M15.55 46.45 L15.1 47.6 Q14.65 48.05 13.95 48.05 13.3 48.05 12.85 47.6 12.35 47.1 12.35 46.45 12.35 45.8 12.85 45.3 13.3 44.85 13.95 44.85 14.65 44.85 15.1 45.3 15.55 45.8 15.55 46.45" fill="#ffffff" fill-opacity="0.7019608" fill-rule="evenodd" stroke="none"/>
    <path d="M15.55 46.45 Q15.55 45.8 15.1 45.3 14.65 44.85 13.95 44.85 13.3 44.85 12.85 45.3 12.35 45.8 12.35 46.45 12.35 47.1 12.85 47.6 13.3 48.05 13.95 48.05 14.65 48.05 15.1 47.6 L15.55 46.45 Z" fill="none" stroke="#a1d4e3" stroke-linecap="butt" stroke-linejoin="miter-clip" stroke-miterlimit="4.0" stroke-opacity="0.49803922" stroke-width="1.0"/>
    <path d="M35.2 58.95 Q35.2 59.6 34.75 60.05 34.25 60.55 33.6 60.55 32.95 60.55 32.45 60.05 32.0 59.6 32.0 58.95 32.0 58.3 32.45 57.8 32.95 57.35 33.6 57.35 34.3 57.35 34.75 57.8 35.2 58.3 35.2 58.95" fill="#ffffff" fill-opacity="0.7019608" fill-rule="evenodd" stroke="none"/>
    <path d="M35.2 58.95 Q35.2 58.3 34.75 57.8 34.3 57.35 33.6 57.35 32.95 57.35 32.45 57.8 32.0 58.3 32.0 58.95 32.0 59.6 32.45 60.05 32.95 60.55 33.6 60.55 34.25 60.55 34.75 60.05 35.2 59.6 35.2 58.95 Z" fill="none" stroke="#a1d4e3" stroke-linecap="butt" stroke-linejoin="miter-clip" stroke-miterlimit="4.0" stroke-opacity="0.49803922" stroke-width="1.0"/>
  </g>
  <defs>
    <linearGradient gradientTransform="matrix(0.0265, 0.0, 0.0, 0.0396, 22.6, 40.45)" gradientUnits="userSpaceOnUse" id="gradient0" spreadMethod="pad" x1="-819.2" x2="819.2">
      <stop offset="0.0" stop-color="#a2c0ee" stop-opacity="0.5019608"/>
      <stop offset="1.0" stop-color="#c4e1ff" stop-opacity="0.5019608"/>
    </linearGradient>
  </defs>
</svg>
