<?xml version="1.0" encoding="UTF-8" standalone="no"?>
<svg xmlns:ffdec="https://www.free-decompiler.com/flash" xmlns:xlink="http://www.w3.org/1999/xlink" ffdec:objectType="shape" height="162.35px" width="135.8px" xmlns="http://www.w3.org/2000/svg">
  <g transform="matrix(1.0, 0.0, 0.0, 1.0, 65.9, 87.6)">
    <path d="M-46.0 51.1 Q-26.15 47.05 2.0 47.05 30.15 47.05 50.05 51.1 69.9 55.2 69.9 60.9 69.9 66.6 50.05 70.7 30.15 74.75 2.0 74.75 -26.15 74.75 -46.0 70.7 -65.9 66.6 -65.9 60.9 -65.9 55.2 -46.0 51.1" fill="#000000" fill-opacity="0.101960786" fill-rule="evenodd" stroke="none"/>
    <path d="M45.35 -66.55 L49.15 56.9 Q30.3 64.3 11.35 58.1 L10.8 39.6 -4.95 40.0 -4.55 53.35 Q-21.55 59.1 -39.15 54.4 L-39.55 40.85 -45.65 41.0 -56.2 24.25 -55.6 -52.4 Q-52.4 -58.6 -42.9 -62.5 L-42.7 -62.55 -42.8 -64.65 Q-41.55 -73.8 -36.75 -78.8 -33.25 -82.35 -28.7 -83.0 L-26.35 -83.15 Q-20.5 -83.05 -15.6 -78.55 -11.1 -74.4 -8.85 -67.85 L2.15 -67.0 7.7 -66.1 Q9.15 -75.0 14.2 -80.05 16.75 -82.55 19.75 -83.65 22.45 -84.65 25.55 -84.6 31.3 -84.45 36.25 -80.65 L37.35 -79.85 Q42.5 -75.35 44.9 -68.1 L45.35 -66.55 M-39.55 40.85 L-4.95 40.0 -39.55 40.85 M-1.05 -64.65 L-0.8 -65.15 -12.2 -65.15 Q-34.3 -22.95 -12.1 18.05 L-0.2 18.05 Q-3.15 11.1 -5.2 4.3 -14.05 -24.8 -6.45 -50.65 -4.4 -57.75 -1.05 -64.65 -4.4 -57.75 -6.45 -50.65 -14.05 -24.8 -5.2 4.3 -3.15 11.1 -0.2 18.05 L-12.1 18.05 Q-34.3 -22.95 -12.2 -65.15 L-0.8 -65.15 -1.05 -64.65 M-8.85 -67.85 L-13.55 -67.85 Q-23.75 -67.7 -32.2 -65.9 L-39.55 -63.95 -42.7 -62.55 -39.55 -63.95 -32.2 -65.9 Q-23.75 -67.7 -13.55 -67.85 L-8.85 -67.85 M-35.0 -59.9 L-33.5 -63.45 -44.8 -59.3 Q-58.35 -23.75 -44.8 19.75 L-32.9 19.75 Q-36.4 10.6 -38.5 1.8 -44.55 -23.2 -39.5 -45.6 -37.85 -52.9 -35.0 -59.9 -37.85 -52.9 -39.5 -45.6 -44.55 -23.2 -38.5 1.8 -36.4 10.6 -32.9 19.75 L-44.8 19.75 Q-58.35 -23.75 -44.8 -59.3 L-33.5 -63.45 -35.0 -59.9 M-21.5 -77.5 Q-22.8 -77.75 -23.9 -77.05 -24.95 -76.25 -25.2 -74.95 -25.45 -73.6 -24.7 -72.6 -23.9 -71.5 -22.6 -71.25 -21.3 -71.0 -20.25 -71.8 -19.15 -72.5 -18.9 -73.85 -18.65 -75.15 -19.45 -76.25 -20.2 -77.25 -21.5 -77.5 -20.2 -77.25 -19.45 -76.25 -18.65 -75.15 -18.9 -73.85 -19.15 -72.5 -20.25 -71.8 -21.3 -71.0 -22.6 -71.25 -23.9 -71.5 -24.7 -72.6 -25.45 -73.6 -25.2 -74.95 -24.95 -76.25 -23.9 -77.05 -22.8 -77.75 -21.5 -77.5 M41.65 -61.5 L39.1 -61.4 43.85 48.2 46.4 48.1 41.65 -61.5 46.4 48.1 43.85 48.2 39.1 -61.4 41.65 -61.5 M25.95 -50.2 L22.1 -50.05 23.35 -21.4 27.2 -21.55 25.95 -50.2 27.2 -21.55 23.35 -21.4 22.1 -50.05 25.95 -50.2 M10.8 39.6 L33.65 39.0 30.8 -55.0 Q26.5 -60.6 15.6 -64.05 L13.1 -64.75 7.7 -66.1 13.1 -64.75 15.6 -64.05 Q26.5 -60.6 30.8 -55.0 L33.65 39.0 10.8 39.6 M28.75 -78.55 Q27.7 -77.75 27.45 -76.45 27.2 -75.15 27.95 -74.1 28.7 -72.95 30.05 -72.75 31.35 -72.5 32.4 -73.3 33.45 -74.0 33.7 -75.3 33.95 -76.6 33.2 -77.75 32.5 -78.8 31.2 -79.05 29.85 -79.25 28.75 -78.55 29.85 -79.25 31.2 -79.05 32.5 -78.8 33.2 -77.75 33.95 -76.6 33.7 -75.3 33.45 -74.0 32.4 -73.3 31.35 -72.5 30.05 -72.75 28.7 -72.95 27.95 -74.1 27.2 -75.15 27.45 -76.45 27.7 -77.75 28.75 -78.55" fill="#666666" fill-rule="evenodd" stroke="none"/>
    <path d="M45.35 -66.55 L49.15 56.9 Q30.3 64.3 11.35 58.1 L10.8 39.6 -4.95 40.0 -4.55 53.35 Q-21.55 59.1 -39.15 54.4 L-39.55 40.85 -45.65 41.0 -56.2 24.25 -55.6 -52.4 Q-52.4 -58.6 -42.9 -62.5 L-42.7 -62.55 -42.8 -64.65 Q-41.55 -73.8 -36.75 -78.8 -33.25 -82.35 -28.7 -83.0 L-26.35 -83.15 Q-20.5 -83.05 -15.6 -78.55 -11.1 -74.4 -8.85 -67.85 L2.15 -67.0 7.7 -66.1 Q9.15 -75.0 14.2 -80.05 16.75 -82.55 19.75 -83.65 22.45 -84.65 25.55 -84.6 31.3 -84.45 36.25 -80.65 L37.35 -79.85 Q42.5 -75.35 44.9 -68.1 L45.35 -66.55 M28.75 -78.55 Q29.85 -79.25 31.2 -79.05 32.5 -78.8 33.2 -77.75 33.95 -76.6 33.7 -75.3 33.45 -74.0 32.4 -73.3 31.35 -72.5 30.05 -72.75 28.7 -72.95 27.95 -74.1 27.2 -75.15 27.45 -76.45 27.7 -77.75 28.75 -78.55 M7.7 -66.1 L13.1 -64.75 15.6 -64.05 Q26.5 -60.6 30.8 -55.0 L33.65 39.0 10.8 39.6 M25.95 -50.2 L27.2 -21.55 23.35 -21.4 22.1 -50.05 25.95 -50.2 M41.65 -61.5 L46.4 48.1 43.85 48.2 39.1 -61.4 41.65 -61.5 M-21.5 -77.5 Q-20.2 -77.25 -19.45 -76.25 -18.65 -75.15 -18.9 -73.85 -19.15 -72.5 -20.25 -71.8 -21.3 -71.0 -22.6 -71.25 -23.9 -71.5 -24.7 -72.6 -25.45 -73.6 -25.2 -74.95 -24.95 -76.25 -23.9 -77.05 -22.8 -77.75 -21.5 -77.5 M-35.0 -59.9 Q-37.85 -52.9 -39.5 -45.6 -44.55 -23.2 -38.5 1.8 -36.4 10.6 -32.9 19.75 L-44.8 19.75 Q-58.35 -23.75 -44.8 -59.3 L-33.5 -63.45 -35.0 -59.9 M-42.7 -62.55 L-39.55 -63.95 -32.2 -65.9 Q-23.75 -67.7 -13.55 -67.85 L-8.85 -67.85 M-1.05 -64.65 Q-4.4 -57.75 -6.45 -50.65 -14.05 -24.8 -5.2 4.3 -3.15 11.1 -0.2 18.05 L-12.1 18.05 Q-34.3 -22.95 -12.2 -65.15 L-0.8 -65.15 -1.05 -64.65 M-4.95 40.0 L-39.55 40.85" fill="none" stroke="#666666" stroke-linecap="round" stroke-linejoin="round" stroke-width="6.0"/>
  </g>
</svg>
