<?xml version="1.0" encoding="UTF-8" standalone="no"?>
<svg xmlns:ffdec="https://www.free-decompiler.com/flash" xmlns:xlink="http://www.w3.org/1999/xlink" ffdec:objectType="shape" height="73.75px" width="53.65px" xmlns="http://www.w3.org/2000/svg">
  <g transform="matrix(1.0, 0.0, 0.0, 1.0, 54.65, 33.25)">
    <path d="M-40.4 -31.95 L-39.25 -32.05 Q-36.35 -32.0 -33.9 -29.7 -31.25 -27.35 -30.2 -23.3 L-28.85 20.5 -38.8 20.8 Q-45.15 -20.25 -40.4 -31.95 M-28.45 32.85 L-28.35 36.2 Q-36.85 39.1 -45.65 36.7 L-45.75 33.35 Q-37.15 35.05 -28.45 32.85" fill="#cccccc" fill-rule="evenodd" stroke="none"/>
    <path d="M-45.75 33.35 L-47.5 -22.8 Q-46.8 -27.35 -44.45 -29.85 -42.7 -31.65 -40.4 -31.95 -45.15 -20.25 -38.8 20.8 L-28.85 20.5 -28.45 32.85 Q-37.15 35.05 -45.75 33.35" fill="#999999" fill-rule="evenodd" stroke="none"/>
    <path d="M-45.75 33.35 L-47.5 -22.8 Q-46.8 -27.35 -44.45 -29.85 -42.7 -31.65 -40.4 -31.95 L-39.25 -32.05 Q-36.35 -32.0 -33.9 -29.7 -31.25 -27.35 -30.2 -23.3 L-28.85 20.5 -28.45 32.85 -28.35 36.2 Q-36.85 39.1 -45.65 36.7 L-45.75 33.35 Z" fill="none" stroke="#ffffff" stroke-linecap="round" stroke-linejoin="round" stroke-width="1.0"/>
    <path d="M-16.2 -32.3 L-13.3 -32.75 Q-10.45 -32.65 -7.95 -30.8 L-7.4 -30.35 Q-4.85 -28.1 -3.6 -24.5 L-3.4 -23.7 -1.5 38.0 Q-10.95 41.7 -20.4 38.55 L-20.5 35.45 Q-12.8 38.25 -5.95 35.0 L-7.75 -24.4 Q-14.75 -23.35 -16.2 -32.3" fill="#cccccc" fill-rule="evenodd" stroke="none"/>
    <path d="M-20.5 35.45 L-22.3 -23.15 Q-21.6 -27.85 -18.95 -30.5 -17.7 -31.75 -16.2 -32.3 -14.75 -23.35 -7.75 -24.4 L-5.95 35.0 Q-12.8 38.25 -20.5 35.45" fill="#999999" fill-rule="evenodd" stroke="none"/>
    <path d="M-20.5 35.45 L-22.3 -23.15 Q-21.6 -27.85 -18.95 -30.5 -17.7 -31.75 -16.2 -32.3 L-13.3 -32.75 Q-10.45 -32.65 -7.95 -30.8 L-7.4 -30.35 Q-4.85 -28.1 -3.6 -24.5 L-3.4 -23.7 -1.5 38.0 Q-10.95 41.7 -20.4 38.55 L-20.5 35.45 Z" fill="none" stroke="#ffffff" stroke-linecap="round" stroke-linejoin="round" stroke-width="1.0"/>
    <path d="M-9.5 20.3 L-16.75 13.5 -18.25 -22.45 Q-12.8 -20.75 -10.65 -17.95 L-9.5 20.3" fill="#d5d5d5" fill-rule="evenodd" stroke="none"/>
    <path d="M-54.15 21.7 L-20.4 20.0 -9.25 29.05 -48.85 30.05 -54.15 21.7" fill="#919191" fill-rule="evenodd" stroke="none"/>
    <path d="M-18.25 -22.45 L-16.75 13.5 -9.5 20.3 -9.25 29.05 -20.4 20.0 -54.15 21.7 -53.85 -16.65 Q-52.25 -19.75 -47.5 -21.7 L-45.85 -22.4 Q-40.25 -24.25 -32.85 -24.35 L-25.0 -23.95 -19.5 -22.8 -18.25 -22.45" fill="#aeaeae" fill-rule="evenodd" stroke="none"/>
    <path d="M-18.25 -22.45 L-19.5 -22.8 -25.0 -23.95 -32.85 -24.35 Q-40.25 -24.25 -45.85 -22.4 L-47.5 -21.7 Q-52.25 -19.75 -53.85 -16.65 L-54.15 21.7 -48.85 30.05 -9.25 29.05 -9.5 20.3 -10.65 -17.95 Q-12.8 -20.75 -18.25 -22.45 Z" fill="none" stroke="#ffffff" stroke-linecap="round" stroke-linejoin="round" stroke-width="1.0"/>
    <path d="M-36.2 -26.35 Q-36.75 -25.95 -37.4 -26.1 -38.05 -26.2 -38.4 -26.75 -38.75 -27.25 -38.65 -27.9 -38.55 -28.55 -38.0 -29.0 L-36.8 -29.25 -35.8 -28.6 Q-35.45 -28.0 -35.55 -27.35 -35.65 -26.7 -36.2 -26.35" fill="#ffffff" fill-rule="evenodd" stroke="none"/>
    <path d="M-36.2 -26.35 Q-36.75 -25.95 -37.4 -26.1 -38.05 -26.2 -38.4 -26.75 -38.75 -27.25 -38.65 -27.9 -38.55 -28.55 -38.0 -29.0 L-36.8 -29.25 -35.8 -28.6 Q-35.45 -28.0 -35.55 -27.35 -35.65 -26.7 -36.2 -26.35 Z" fill="none" stroke="#ffffff" stroke-linecap="round" stroke-linejoin="round" stroke-width="1.0"/>
    <path d="M-9.85 -27.05 L-11.05 -26.8 Q-11.7 -26.95 -12.1 -27.45 -12.5 -28.0 -12.35 -28.65 L-11.7 -29.7 -10.5 -29.95 -9.45 -29.3 Q-9.1 -28.75 -9.2 -28.1 -9.35 -27.45 -9.85 -27.05" fill="#ffffff" fill-rule="evenodd" stroke="none"/>
    <path d="M-9.85 -27.05 L-11.05 -26.8 Q-11.7 -26.95 -12.1 -27.45 -12.5 -28.0 -12.35 -28.65 L-11.7 -29.7 -10.5 -29.95 -9.45 -29.3 Q-9.1 -28.75 -9.2 -28.1 -9.35 -27.45 -9.85 -27.05 Z" fill="none" stroke="#ffffff" stroke-linecap="round" stroke-linejoin="round" stroke-width="1.0"/>
    <path d="M-13.1 -15.55 L-12.5 -1.25 -14.4 -1.15 -15.0 -15.45 -13.1 -15.55" fill="#ffffff" fill-rule="evenodd" stroke="none"/>
    <path d="M-13.1 -15.55 L-12.5 -1.25 -14.4 -1.15 -15.0 -15.45 -13.1 -15.55 Z" fill="none" stroke="#ffffff" stroke-linecap="round" stroke-linejoin="round" stroke-width="1.0"/>
    <path d="M-5.25 -21.2 L-2.85 33.55 -4.15 33.6 -6.55 -21.15 -5.25 -21.2" fill="#ffffff" fill-rule="evenodd" stroke="none"/>
    <path d="M-5.25 -21.2 L-2.85 33.55 -4.15 33.6 -6.55 -21.15 -5.25 -21.2 Z" fill="none" stroke="#ffffff" stroke-linecap="round" stroke-linejoin="round" stroke-width="1.0"/>
    <path d="M-47.25 -20.4 L-42.8 -20.4 Q-38.6 0.05 -42.8 21.5 L-47.25 21.5 Q-42.2 0.0 -47.25 -20.4" fill="#919191" fill-rule="evenodd" stroke="none"/>
    <path d="M-42.5 19.4 L-48.45 19.4 Q-55.2 -2.3 -48.45 -20.1 L-42.8 -22.15 Q-51.25 -3.4 -42.5 19.4" fill="#a98c56" fill-rule="evenodd" stroke="none"/>
    <path d="M-42.5 19.4 L-48.45 19.4 Q-55.2 -2.3 -48.45 -20.1 L-42.8 -22.15 Q-51.25 -3.4 -42.5 19.4 Z" fill="none" stroke="#866b46" stroke-linecap="round" stroke-linejoin="round" stroke-width="0.05"/>
    <path d="M-31.8 -22.75 L-26.45 -22.75 Q-19.15 -1.15 -26.45 21.5 L-31.8 21.5 Q-22.55 -1.2 -31.8 -22.75" fill="#919191" fill-rule="evenodd" stroke="none"/>
    <path d="M-26.15 18.55 L-32.1 18.55 Q-43.2 -1.9 -32.15 -23.0 L-26.45 -23.0 Q-35.8 -4.1 -26.15 18.55" fill="#a98c56" fill-rule="evenodd" stroke="none"/>
    <path d="M-26.15 18.55 L-32.1 18.55 Q-43.2 -1.9 -32.15 -23.0 L-26.45 -23.0 Q-35.8 -4.1 -26.15 18.55 Z" fill="none" stroke="#866b46" stroke-linecap="round" stroke-linejoin="round" stroke-width="0.05"/>
  </g>
</svg>
