<?xml version="1.0" encoding="UTF-8" standalone="no"?>
<svg xmlns:ffdec="https://www.free-decompiler.com/flash" xmlns:xlink="http://www.w3.org/1999/xlink" ffdec:objectType="shape" height="138.45px" width="219.1px" xmlns="http://www.w3.org/2000/svg">
  <g transform="matrix(1.0, 0.0, 0.0, 1.0, 109.55, 69.25)">
    <path d="M-40.15 -58.2 Q-40.65 -61.1 -39.45 -63.4 -38.1 -65.85 -35.8 -66.2 -33.5 -66.45 -31.55 -64.65 -29.6 -62.8 -29.1 -59.8 L-29.1 -59.05 Q-27.15 -58.8 -25.6 -57.25 -23.9 -55.65 -23.15 -53.1 -22.2 -49.7 -23.4 -47.05 -19.5 -45.2 -18.15 -40.2 -16.85 -35.85 -18.8 -32.1 -15.15 -30.75 -13.05 -26.75 L-12.2 -27.35 Q-15.85 -30.5 -15.25 -36.35 -14.65 -42.15 -10.5 -44.5 -12.35 -47.15 -12.0 -50.8 -11.75 -53.35 -10.3 -55.3 -8.95 -57.25 -7.1 -57.85 -8.1 -60.0 -7.95 -62.55 -7.6 -65.6 -5.8 -67.55 -3.95 -69.35 -1.65 -69.25 0.65 -69.0 2.1 -66.6 3.45 -64.25 3.2 -61.25 L3.1 -60.5 Q4.9 -59.9 6.0 -57.95 7.2 -55.9 7.2 -53.35 7.2 -49.7 5.4 -47.4 8.8 -44.85 8.8 -39.6 8.8 -35.0 6.0 -31.85 8.9 -29.9 10.0 -25.75 11.2 -26.6 12.65 -27.0 9.75 -30.85 11.7 -36.45 12.55 -39.0 14.4 -40.95 16.1 -42.65 18.15 -43.25 16.95 -46.55 18.15 -49.7 19.0 -52.25 20.7 -53.85 22.4 -55.3 24.45 -55.55 23.85 -57.95 24.7 -60.4 25.65 -63.2 28.0 -64.65 30.15 -66.2 32.25 -65.35 34.4 -64.65 35.25 -62.1 36.25 -59.55 35.25 -56.6 L34.9 -55.9 Q36.6 -54.9 37.35 -52.75 37.95 -50.55 37.45 -48.0 36.7 -44.7 34.3 -42.65 36.95 -39.15 35.85 -34.25 34.8 -29.9 31.4 -27.25 32.95 -25.65 33.55 -23.0 L37.55 -23.35 Q36.35 -28.1 40.1 -32.55 43.75 -36.95 48.75 -36.6 48.6 -39.5 50.95 -42.65 52.65 -44.6 54.95 -45.45 L58.95 -45.7 Q59.45 -48.25 61.0 -50.05 62.95 -52.35 65.5 -53.0 68.2 -53.6 69.9 -52.0 71.6 -50.55 71.45 -47.75 71.35 -45.1 69.4 -42.75 L68.9 -42.3 Q70.0 -40.6 69.9 -38.4 69.75 -36.1 68.3 -33.9 66.7 -31.35 63.45 -30.0 64.65 -25.9 61.85 -21.65 59.3 -17.75 55.2 -16.8 L55.3 -16.65 Q60.3 -16.4 62.95 -13.75 65.0 -18.35 70.6 -19.45 76.45 -20.8 79.85 -17.4 81.8 -20.05 85.3 -20.8 L90.15 -20.65 Q92.45 -20.05 93.55 -18.35 95.4 -20.2 97.8 -20.65 100.85 -21.3 103.3 -20.2 105.6 -19.1 106.05 -16.8 106.55 -14.5 104.75 -12.4 103.05 -10.35 100.1 -9.75 L99.4 -9.6 Q99.15 -7.7 97.7 -5.95 96.25 -4.25 93.8 -3.4 90.55 -2.35 87.6 -3.3 86.05 0.7 81.15 2.4 L72.9 2.15 71.7 4.85 72.3 6.9 Q76.7 4.45 81.9 6.65 87.15 8.95 88.2 13.7 91.15 12.75 94.65 14.2 96.95 15.15 98.4 17.1 99.9 18.9 99.9 21.0 102.45 20.6 104.6 21.6 107.4 22.8 108.75 25.1 110.1 27.55 109.1 29.6 108.15 31.7 105.45 32.4 102.9 33.0 100.1 31.8 L99.4 31.45 Q98.2 33.0 96.0 33.5 L91.25 33.25 Q88.2 32.4 86.15 29.75 82.75 32.15 77.65 30.6 L76.55 30.1 Q78.25 33.6 77.15 36.9 80.3 37.5 82.5 40.4 84.1 42.5 84.45 44.9 84.8 47.1 83.85 48.9 86.15 49.65 87.75 51.85 89.55 54.25 89.55 56.95 89.55 59.6 87.75 60.95 85.8 62.3 83.25 61.55 80.7 60.95 78.75 58.5 L78.4 57.9 74.35 58.05 Q72.2 57.4 70.35 55.5 67.95 53.05 67.55 50.0 63.45 50.25 59.8 46.6 56.65 43.2 56.4 39.1 50.95 39.7 46.3 34.95 44.15 32.75 42.9 29.5 35.15 30.45 29.55 24.5 27.35 22.3 26.3 19.65 23.35 18.7 22.05 17.85 L20.55 16.75 13.15 17.1 Q8.9 16.35 5.25 13.6 2.1 15.15 -1.8 15.5 -6.25 15.75 -10.3 13.8 -12.0 14.9 -14.15 15.65 -19.25 17.35 -24.0 16.0 -23.05 24.0 -28.25 30.0 -33.6 36.05 -41.5 35.45 -42.45 38.5 -44.65 41.05 -49.25 46.0 -54.6 45.4 -54.85 49.75 -57.75 53.05 -61.05 56.95 -65.4 56.7 -65.8 59.95 -67.95 62.3 -69.65 64.2 -71.85 64.95 -74.05 65.7 -75.85 64.95 L-76.35 65.7 Q-78.05 68.1 -80.7 68.95 -83.25 69.7 -85.1 68.35 -87.05 67.0 -87.15 64.35 -87.3 61.65 -85.45 59.25 -84.1 57.2 -81.7 56.2 -82.65 54.5 -82.4 52.2 -82.2 49.9 -80.7 47.7 -78.4 44.65 -75.4 44.05 -77.2 39.55 -73.7 34.7 -70.3 30.0 -65.4 30.0 L-65.4 29.75 Q-68.95 29.35 -71.15 27.55 -73.45 30.85 -77.95 32.15 -82.9 33.5 -86.45 30.95 -88.35 33.4 -91.65 34.25 -94.2 34.85 -96.4 34.25 -98.6 33.6 -99.65 32.05 L-100.4 32.3 Q-103.2 33.4 -105.85 32.65 -108.4 31.8 -109.25 29.75 -110.1 27.55 -108.65 25.35 -107.3 23.05 -104.55 21.95 -102.1 21.1 -99.65 21.45 -99.55 19.55 -98.1 17.7 -96.65 15.9 -94.1 14.9 -91.05 13.7 -87.65 14.8 -86.55 10.05 -81.1 8.1 -75.6 6.05 -71.5 8.7 -71.15 6.8 -69.45 4.6 -72.2 5.45 -75.0 4.7 -80.0 3.75 -82.05 0.1 -85.2 1.3 -88.25 0.7 -90.7 0.2 -92.5 -1.25 -94.2 -2.8 -94.55 -4.65 L-95.3 -4.75 Q-98.35 -4.9 -100.4 -6.7 -102.35 -8.65 -102.2 -10.95 -102.0 -13.25 -99.8 -14.6 -97.6 -16.05 -94.55 -15.8 -91.9 -15.55 -89.95 -14.1 -89.0 -15.95 -86.9 -16.9 -84.75 -17.9 -82.2 -17.65 -78.8 -17.5 -76.35 -15.1 -73.2 -18.85 -67.35 -18.25 -61.65 -17.9 -59.1 -13.65 -57.5 -15.45 -55.35 -16.4 L-55.2 -18.1 Q-59.35 -18.5 -62.5 -22.0 -65.9 -25.75 -65.3 -30.0 -68.6 -30.65 -70.65 -33.05 -72.45 -34.9 -72.95 -37.2 -73.45 -39.35 -72.45 -41.2 L-73.05 -41.7 Q-75.4 -43.75 -75.85 -46.4 -76.45 -49.1 -74.9 -50.8 -73.45 -52.5 -70.75 -52.35 -68.1 -52.15 -65.9 -50.2 -63.7 -48.25 -63.25 -46.05 -61.4 -47.05 -59.1 -46.55 -56.8 -46.05 -54.85 -44.25 -52.05 -41.8 -51.7 -38.65 -47.2 -39.85 -42.6 -35.95 L-40.65 -33.8 Q-40.4 -37.55 -37.95 -40.1 -40.4 -42.05 -41.0 -45.7 -41.5 -48.25 -40.65 -50.55 -39.8 -52.75 -38.1 -53.85 -39.8 -55.55 -40.15 -58.2" fill="#5e3b19" fill-rule="evenodd" stroke="none"/>
  </g>
</svg>
