<?xml version="1.0" encoding="UTF-8" standalone="no"?>
<svg xmlns:ffdec="https://www.free-decompiler.com/flash" xmlns:xlink="http://www.w3.org/1999/xlink" ffdec:objectType="shape" height="82.7px" width="157.65px" xmlns="http://www.w3.org/2000/svg">
  <g transform="matrix(1.0, 0.0, 0.0, 1.0, 0.0, 0.9)">
    <path d="M157.65 8.1 Q157.65 11.85 155.0 14.45 152.4 17.1 148.65 17.1 145.95 17.1 143.85 15.75 144.55 17.65 144.55 19.85 144.55 24.6 141.2 27.95 137.85 31.3 133.1 31.3 L132.3 31.3 133.95 34.45 Q136.75 40.65 136.75 48.0 136.75 62.0 126.55 71.9 116.4 81.8 102.05 81.8 87.7 81.8 77.5 71.9 69.45 64.05 67.8 53.65 65.85 56.6 62.75 59.2 54.65 65.95 43.2 65.95 31.75 65.95 23.65 59.2 15.55 52.5 15.55 43.0 15.55 38.25 17.55 34.25 18.4 32.55 19.55 31.05 16.5 30.45 14.15 28.1 11.05 25.0 11.05 20.65 11.05 18.3 12.0 16.3 10.4 17.0 8.5 17.0 5.0 17.0 2.5 14.5 0.0 12.0 0.0 8.5 0.0 5.0 2.5 2.5 5.0 0.0 8.5 0.0 12.0 0.0 14.5 2.5 17.0 5.0 17.0 8.5 17.0 10.05 16.55 11.4 18.8 10.1 21.6 10.1 25.95 10.1 29.05 13.2 32.15 16.3 32.15 20.65 L32.1 21.9 34.4 21.2 Q38.5 20.05 43.2 20.05 L48.8 20.5 Q56.7 21.75 62.75 26.75 65.75 29.25 67.65 32.15 68.8 33.95 69.55 35.85 72.1 29.4 77.5 24.1 87.7 14.2 102.05 14.2 110.85 14.2 118.1 17.95 L121.65 20.1 121.65 19.85 Q121.65 15.1 125.0 11.75 128.35 8.4 133.1 8.4 137.05 8.4 140.0 10.7 139.65 9.45 139.65 8.1 139.65 4.35 142.25 1.7 144.9 -0.9 148.65 -0.9 152.4 -0.9 155.0 1.7 157.65 4.35 157.65 8.1" fill="#000000" fill-rule="evenodd" stroke="none"/>
  </g>
</svg>
