<?xml version="1.0" encoding="UTF-8" standalone="no"?>
<svg xmlns:ffdec="https://www.free-decompiler.com/flash" xmlns:xlink="http://www.w3.org/1999/xlink" ffdec:objectType="shape" height="139.55px" width="194.7px" xmlns="http://www.w3.org/2000/svg">
  <g transform="matrix(1.0, 0.0, 0.0, 1.0, 82.35, 74.45)">
    <path d="M51.95 -51.5 L51.95 -51.45 51.75 -51.25 53.4 -51.3 Q65.15 -51.3 73.45 -42.75 81.75 -34.2 81.75 -22.1 81.75 -10.0 73.45 -1.45 L70.4 1.3 70.4 23.05 Q68.85 61.0 112.35 49.3 99.85 69.7 71.55 63.8 L70.9 63.65 Q53.85 59.2 45.0 44.15 33.3 29.8 17.05 24.5 4.5 31.05 -16.55 54.35 -31.8 70.65 -59.65 59.15 -40.4 58.25 -36.25 49.4 L-36.2 49.35 Q-22.2 25.25 -29.0 -14.35 -36.75 -16.0 -44.05 -18.8 -73.25 -30.15 -82.35 -55.0 -67.85 -53.0 -55.65 -55.55 -47.25 -57.3 -35.75 -62.55 -21.65 -68.9 -16.45 -70.6 -4.55 -74.45 8.5 -74.45 23.65 -74.45 35.75 -67.95 47.55 -61.6 51.95 -51.5" fill="#000000" fill-rule="evenodd" stroke="none"/>
  </g>
</svg>
