<?xml version="1.0" encoding="UTF-8" standalone="no"?>
<svg xmlns:ffdec="https://www.free-decompiler.com/flash" xmlns:xlink="http://www.w3.org/1999/xlink" ffdec:objectType="shape" height="164.6px" width="152.6px" xmlns="http://www.w3.org/2000/svg">
  <g transform="matrix(1.0, 0.0, 0.0, 1.0, 76.3, 82.3)">
    <path d="M-42.75 -67.3 Q-63.45 -56.2 -71.85 -34.7 -78.2 -18.45 -75.45 -11.8 -72.0 -3.85 -68.5 1.75 -66.3 6.65 -62.8 9.95 L-61.1 11.75 Q-57.0 16.2 -52.15 20.05 -43.15 27.85 -35.55 31.55 -39.05 47.05 -46.45 60.1 -50.2 66.6 -53.15 70.1 -47.85 73.0 -37.3 75.95 -16.35 81.85 9.15 82.25 38.75 82.75 60.55 78.0 L76.3 73.3 Q71.2 67.65 67.85 56.65 61.3 34.5 70.35 7.25 82.0 -28.05 62.15 -54.15 47.8 -72.95 26.75 -79.2 13.5 -83.05 -0.75 -82.15 -13.15 -81.4 -24.4 -77.15 -35.05 -73.2 -42.75 -67.3" fill="#050100" fill-rule="evenodd" stroke="none"/>
  </g>
</svg>
