<?xml version="1.0" encoding="UTF-8" standalone="no"?>
<svg xmlns:ffdec="https://www.free-decompiler.com/flash" xmlns:xlink="http://www.w3.org/1999/xlink" ffdec:objectType="shape" height="78.05px" width="142.65px" xmlns="http://www.w3.org/2000/svg">
  <g transform="matrix(1.0, 0.0, 0.0, 1.0, 71.2, 54.45)">
    <path d="M51.3 -36.6 Q68.95 -21.0 70.85 2.15 L70.95 4.7 61.75 6.0 Q60.0 -35.75 14.35 -46.45 3.75 -49.05 -11.1 -47.9 L-24.0 -46.2 Q-38.55 -42.75 -48.9 -33.8 -61.9 -22.55 -65.4 -5.3 -68.75 10.45 -62.75 23.1 -66.35 17.5 -69.85 9.55 -72.65 2.9 -66.2 -13.35 -57.6 -34.85 -36.5 -45.95 -28.8 -49.9 -20.6 -52.1 L-6.95 -53.65 Q9.05 -54.65 20.35 -52.5 37.35 -49.15 51.3 -36.6" fill="#8649c2" fill-rule="evenodd" stroke="none"/>
    <path d="M51.3 -36.6 Q68.95 -21.0 70.85 2.15 L70.95 4.7 61.75 6.0 Q60.0 -35.75 14.35 -46.45 3.75 -49.05 -11.1 -47.9 L-24.0 -46.2 Q-38.55 -42.75 -48.9 -33.8 -61.9 -22.55 -65.4 -5.3 -68.75 10.45 -62.75 23.1 -66.35 17.5 -69.85 9.55 -72.65 2.9 -66.2 -13.35 -57.6 -34.85 -36.5 -45.95 -28.8 -49.9 -20.6 -52.1 L-6.95 -53.65 Q9.05 -54.65 20.35 -52.5 37.35 -49.15 51.3 -36.6 Z" fill="none" stroke="#000000" stroke-linecap="round" stroke-linejoin="round" stroke-opacity="0.2" stroke-width="1.0"/>
  </g>
</svg>
