<?xml version="1.0" encoding="UTF-8" standalone="no"?>
<svg xmlns:ffdec="https://www.free-decompiler.com/flash" xmlns:xlink="http://www.w3.org/1999/xlink" ffdec:objectType="shape" height="70.5px" width="74.55px" xmlns="http://www.w3.org/2000/svg">
  <g transform="matrix(1.0, 0.0, 0.0, 1.0, 36.55, 46.25)">
    <path d="M-24.9 -36.45 Q-19.05 -43.3 -10.55 -45.3 -0.7 -47.8 8.65 -42.8 4.65 -39.8 -4.7 -36.95 -13.9 -34.1 -24.9 -36.45" fill="#ffffff" fill-rule="evenodd" stroke="none"/>
    <path d="M8.65 -42.8 L12.85 -40.15 15.0 -38.45 Q15.35 -38.3 15.7 -37.95 L17.85 -36.1 Q26.2 -28.45 31.4 -17.75 36.4 -7.05 37.9 6.8 2.3 34.35 -34.45 18.15 L-35.6 10.5 Q-36.95 1.45 -36.1 -6.9 -35.45 -15.75 -32.25 -23.75 -29.25 -31.45 -24.9 -36.45 -13.9 -34.1 -4.7 -36.95 4.65 -39.8 8.65 -42.8" fill="#eb4b23" fill-rule="evenodd" stroke="none"/>
    <path d="M8.65 -42.8 L12.85 -40.15 15.0 -38.45 Q15.35 -38.3 15.7 -37.95 L17.85 -36.1 Q26.2 -28.45 31.4 -17.75 36.4 -7.05 37.9 6.8 2.3 34.35 -34.45 18.15 L-35.6 10.5 Q-36.95 1.45 -36.1 -6.9 -35.45 -15.75 -32.25 -23.75 -29.25 -31.45 -24.9 -36.45 -19.05 -43.3 -10.55 -45.3 -0.7 -47.8 8.65 -42.8 4.65 -39.8 -4.7 -36.95 -13.9 -34.1 -24.9 -36.45" fill="none" stroke="#000000" stroke-linecap="round" stroke-linejoin="round" stroke-opacity="0.2" stroke-width="0.2"/>
    <path d="M0.15 -25.95 Q0.15 -36.95 3.45 -45.0 7.85 -43.65 12.15 -40.6 10.35 -34.15 10.35 -25.95 10.0 -7.75 18.55 18.5 13.85 20.5 9.35 21.8 1.8 -0.7 0.5 -17.45 0.0 -21.9 0.15 -25.95 M-28.1 -32.1 L-27.75 -32.6 Q-24.1 -38.3 -19.05 -41.45 -21.9 -34.0 -22.2 -23.95 -22.4 -19.9 -22.05 -15.45 -21.05 1.3 -14.25 23.7 -17.75 23.35 -20.9 22.5 L-21.55 22.3 Q-29.55 -4.55 -28.9 -23.25 -28.75 -27.95 -28.1 -31.95 L-28.1 -32.1" fill="#000000" fill-rule="evenodd" stroke="none"/>
    <path d="M-20.55 -27.6 L-20.5 -18.45 -30.05 -18.6 -29.9 -27.3 -20.55 -27.6" fill="#666666" fill-rule="evenodd" stroke="none"/>
    <path d="M-20.55 -27.6 L-20.5 -18.45 -30.05 -18.6 -29.9 -27.3 -20.55 -27.6 Z" fill="none" stroke="#000000" stroke-linecap="round" stroke-linejoin="round" stroke-opacity="0.2" stroke-width="0.2"/>
    <path d="M10.85 -31.75 L11.3 -21.0 -0.55 -20.5 -1.05 -31.6 10.85 -31.75" fill="#666666" fill-rule="evenodd" stroke="none"/>
    <path d="M10.85 -31.75 L11.3 -21.0 -0.55 -20.5 -1.05 -31.6 10.85 -31.75 Z" fill="none" stroke="#000000" stroke-linecap="round" stroke-linejoin="round" stroke-opacity="0.2" stroke-width="0.2"/>
  </g>
</svg>
