<?xml version="1.0" encoding="UTF-8" standalone="no"?>
<svg xmlns:ffdec="https://www.free-decompiler.com/flash" xmlns:xlink="http://www.w3.org/1999/xlink" ffdec:objectType="shape" height="77.9px" width="150.95px" xmlns="http://www.w3.org/2000/svg">
  <g transform="matrix(1.0, 0.0, 0.0, 1.0, 75.5, 38.95)">
    <path d="M24.95 -18.8 Q34.7 -34.9 63.85 -25.6 53.3 -22.35 51.55 -12.3 60.35 -10.75 68.85 -0.75 77.4 9.55 74.9 32.15 64.85 10.3 53.3 12.85 L-53.2 15.35 Q-69.45 15.6 -72.5 38.95 -79.3 20.6 -70.75 5.3 -65.2 -4.25 -54.9 -5.05 -55.7 -6.8 -59.45 -10.5 -65.7 -16.3 -73.5 -16.55 -62.45 -28.65 -35.6 -18.1 -33.05 -24.35 -42.1 -34.4 -28.8 -40.65 -8.95 -21.05 3.35 -39.45 26.7 -38.95 23.45 -35.4 22.7 -26.6 21.9 -20.6 24.95 -18.8" fill="#000000" fill-rule="evenodd" stroke="none"/>
  </g>
</svg>
