<?xml version="1.0" encoding="UTF-8" standalone="no"?>
<svg xmlns:ffdec="https://www.free-decompiler.com/flash" xmlns:xlink="http://www.w3.org/1999/xlink" ffdec:objectType="shape" height="88.3px" width="130.75px" xmlns="http://www.w3.org/2000/svg">
  <g transform="matrix(1.0, 0.0, 0.0, 1.0, 75.7, 40.3)">
    <path d="M-67.1 -29.25 Q-42.05 -39.8 -14.65 -39.8 25.3 -39.8 43.9 -31.5 45.4 -27.75 54.45 4.9 56.8 52.95 -12.05 46.8 -80.95 40.65 -74.65 7.45 -68.85 -25.5 -67.1 -29.25" fill="#cc3300" fill-rule="evenodd" stroke="none"/>
    <path d="M-67.1 -29.25 Q-68.85 -25.5 -74.65 7.45 -80.95 40.65 -12.05 46.8 56.8 52.95 54.45 4.9 45.4 -27.75 43.9 -31.5 25.3 -39.8 -14.65 -39.8 -42.05 -39.8 -67.1 -29.25 Z" fill="none" stroke="#000000" stroke-linecap="round" stroke-linejoin="round" stroke-opacity="0.2509804" stroke-width="1.0"/>
  </g>
</svg>
