<?xml version="1.0" encoding="UTF-8" standalone="no"?>
<svg xmlns:ffdec="https://www.free-decompiler.com/flash" xmlns:xlink="http://www.w3.org/1999/xlink" ffdec:objectType="shape" height="82.95px" width="198.15px" xmlns="http://www.w3.org/2000/svg">
  <g transform="matrix(1.0, 0.0, 0.0, 1.0, 99.1, 41.5)">
    <path d="M87.45 -18.0 Q92.25 -19.05 96.2 -21.75 L99.05 -24.3 96.1 -13.9 Q90.2 -2.55 75.7 1.55 85.5 6.1 94.5 4.8 L92.5 7.25 Q89.65 10.2 85.85 12.4 75.5 18.0 60.85 16.2 L60.9 17.45 Q60.9 27.4 43.5 34.4 26.15 41.45 1.6 41.45 -22.95 41.45 -40.3 34.4 -53.3 29.15 -56.6 22.25 -73.1 24.9 -84.95 18.95 -92.75 15.1 -95.7 9.95 -93.35 10.85 -89.25 11.1 -81.35 11.35 -73.2 7.5 -93.5 3.9 -97.9 -7.55 -99.4 -11.2 -99.05 -15.05 L-98.4 -18.25 Q-96.45 -13.0 -89.25 -11.7 -75.05 -9.1 -49.7 -28.95 -37.35 -36.4 -24.95 -34.5 L-14.95 -31.15 Q-7.25 -37.05 4.95 -39.9 29.35 -45.7 51.8 -30.6 71.75 -14.9 87.45 -18.0" fill="#cfa206" fill-rule="evenodd" stroke="none"/>
  </g>
</svg>
