<?xml version="1.0" encoding="UTF-8" standalone="no"?>
<svg xmlns:ffdec="https://www.free-decompiler.com/flash" xmlns:xlink="http://www.w3.org/1999/xlink" ffdec:objectType="shape" height="41.5px" width="84.6px" xmlns="http://www.w3.org/2000/svg">
  <g transform="matrix(1.0, 0.0, 0.0, 1.0, 37.5, -5.95)">
    <path d="M38.15 6.05 L47.0 28.0 45.0 30.55 Q19.85 57.7 -37.4 40.95 L-34.05 17.95 -33.85 17.45 Q2.4 33.2 37.95 6.05 L38.15 6.05" fill="#b30e00" fill-rule="evenodd" stroke="none"/>
    <path d="M19.0 20.65 L13.45 19.8 Q16.5 18.45 19.5 17.25 L19.5 17.1 23.85 15.25 23.7 16.6 41.3 18.6 41.65 15.25 45.35 23.8 45.2 23.8 45.2 24.0 44.5 30.7 Q42.15 33.7 39.3 35.55 L40.8 23.3 23.2 21.15 21.7 34.55 38.15 36.4 32.25 40.25 21.2 38.9 20.5 44.8 16.0 45.95 17.0 38.4 -2.15 36.25 -3.65 46.8 -8.0 46.8 -6.35 35.75 -28.3 33.2 -29.5 43.1 -34.05 41.95 -32.7 32.7 -36.05 32.2 -35.55 27.85 -32.0 28.35 -30.65 18.8 -26.8 20.3 -27.8 28.85 -5.85 31.35 -4.65 23.3 -0.3 22.8 -1.45 31.85 17.5 34.05 19.0 20.65" fill="#ffffff" fill-opacity="0.33333334" fill-rule="evenodd" stroke="none"/>
    <path d="M18.5 17.8 L18.65 17.8 18.65 17.6 Q19.0 17.45 19.5 17.25 L19.5 17.1 19.15 19.95 22.7 20.45 23.05 17.25 20.35 16.95 22.35 15.95 22.5 15.95 23.2 15.95 23.2 15.45 24.55 14.75 24.35 16.1 40.65 18.1 41.15 13.4 42.15 15.75 Q42.15 15.1 42.3 14.6 L41.8 18.3 43.15 18.45 43.65 19.6 41.65 19.45 41.3 22.8 44.85 23.3 44.85 23.15 45.2 23.15 45.85 25.0 45.35 30.2 45.0 30.55 44.15 31.55 44.0 31.55 44.65 24.65 41.15 24.3 40.15 35.4 40.15 35.25 39.8 35.4 Q39.65 35.4 39.65 35.55 38.65 36.25 37.65 37.1 L37.45 37.1 22.35 35.25 22.0 39.1 32.6 40.25 30.6 41.45 21.85 40.25 21.35 44.95 20.35 45.15 20.0 45.15 20.5 40.1 17.15 39.6 16.5 45.95 15.65 46.15 15.3 46.15 16.0 39.4 -1.65 37.25 Q-2.15 42.3 -2.8 47.15 L-4.0 47.15 -2.8 37.1 -6.15 36.75 -7.35 46.8 -8.7 46.8 -7.5 36.55 -27.8 34.05 -28.85 43.3 -30.0 42.95 -29.0 33.9 -32.35 33.4 -33.35 42.1 -34.55 41.75 -33.55 33.2 -36.2 32.9 -36.05 31.85 -33.35 32.2 -33.0 28.35 -35.55 28.0 -35.2 26.65 -32.85 27.0 -31.85 18.3 -30.5 18.8 -31.7 27.15 -28.3 27.85 -27.3 19.95 -26.15 20.45 -27.0 28.0 -6.85 30.35 -5.85 23.3 -4.5 23.15 -5.35 30.55 -2.0 30.85 -1.15 23.0 0.05 22.8 Q-0.3 27.0 -0.8 31.2 L16.65 33.2 17.8 21.3 11.1 20.45 14.3 19.3 18.15 19.8 18.5 17.8 M23.85 20.8 L40.15 22.65 40.5 19.3 24.2 17.45 23.85 20.8 M19.0 21.45 L17.65 33.4 21.2 33.9 22.5 21.95 19.0 21.45 M23.7 22.15 L22.5 34.05 38.65 36.05 40.0 24.0 23.7 22.15 M21.0 35.05 L17.65 34.75 17.15 38.4 20.7 38.9 21.0 35.05 M16.5 34.4 L-0.95 32.4 -1.45 36.05 16.15 38.25 16.5 34.4 M-6.85 31.55 L-27.15 29.0 -27.5 32.9 -7.35 35.4 -6.85 31.55 M-2.65 35.9 L-2.15 32.2 -5.5 31.7 -6.0 35.55 -2.65 35.9 M-28.5 28.85 L-31.85 28.5 -32.2 32.4 -28.85 32.7 -28.5 28.85" fill="#6c0900" fill-rule="evenodd" stroke="none"/>
    <path d="M38.15 6.05 L47.0 28.0 45.0 30.55 Q19.85 57.7 -37.4 40.95 L-34.05 17.95 -33.85 17.45 Q2.4 33.2 37.95 6.05 L38.15 6.05 Z" fill="none" stroke="#000000" stroke-linecap="round" stroke-linejoin="round" stroke-opacity="0.2" stroke-width="0.2"/>
  </g>
</svg>
