<?xml version="1.0" encoding="UTF-8" standalone="no"?>
<svg xmlns:ffdec="https://www.free-decompiler.com/flash" xmlns:xlink="http://www.w3.org/1999/xlink" ffdec:objectType="shape" height="51.15px" width="152.4px" xmlns="http://www.w3.org/2000/svg">
  <g transform="matrix(1.0, 0.0, 0.0, 1.0, 84.75, 48.45)">
    <path d="M-43.7 -40.3 Q-50.6 -37.05 -56.65 -32.4 -75.45 -18.35 -76.45 1.3 -80.55 0.25 -84.25 -2.25 -80.8 -31.15 -47.85 -45.9 -45.3 -43.35 -43.7 -40.3 M38.55 -32.4 Q32.55 -36.95 25.85 -40.1 27.4 -44.35 30.5 -47.95 47.05 -40.45 56.85 -27.85 66.9 -14.8 67.15 0.25 62.5 1.95 58.1 2.2 57.45 -18.05 38.55 -32.4" fill="#ff66cc" fill-rule="evenodd" stroke="none"/>
    <path d="M38.55 -32.4 Q57.45 -18.05 58.1 2.2 62.5 1.95 67.15 0.25 66.9 -14.8 56.85 -27.85 47.05 -40.45 30.5 -47.95 27.4 -44.35 25.85 -40.1 32.55 -36.95 38.55 -32.4 M-43.7 -40.3 Q-45.3 -43.35 -47.85 -45.9 -80.8 -31.15 -84.25 -2.25 -80.55 0.25 -76.45 1.3 -75.45 -18.35 -56.65 -32.4 -50.6 -37.05 -43.7 -40.3 Z" fill="none" stroke="#000000" stroke-linecap="round" stroke-linejoin="round" stroke-opacity="0.2" stroke-width="1.0"/>
  </g>
</svg>
