<?xml version="1.0" encoding="UTF-8" standalone="no"?>
<svg xmlns:ffdec="https://www.free-decompiler.com/flash" xmlns:xlink="http://www.w3.org/1999/xlink" ffdec:objectType="shape" height="111.65px" width="178.6px" xmlns="http://www.w3.org/2000/svg">
  <g transform="matrix(1.0, 0.0, 0.0, 1.0, 89.3, 55.8)">
    <path d="M43.8 -31.1 Q62.7 -16.75 63.35 3.5 L63.35 4.85 Q63.35 25.9 43.8 41.0 23.9 55.8 -3.9 55.85 -31.8 55.8 -51.4 41.0 -71.25 25.9 -71.25 4.85 L-71.2 2.6 Q-70.2 -17.05 -51.4 -31.1 -45.35 -35.75 -38.45 -39.0 -23.15 -46.15 -3.9 -46.15 15.55 -46.15 31.1 -38.8 37.8 -35.65 43.8 -31.1 M-89.3 -21.5 Q-89.3 -31.8 -82.8 -40.1 -75.55 -49.45 -64.45 -51.15 -53.4 -53.2 -44.85 -46.65 L-42.6 -44.6 Q-75.55 -29.85 -79.0 -0.95 L-83.3 -4.45 Q-89.3 -11.5 -89.3 -21.5 M59.1 -55.65 Q70.15 -54.7 78.65 -46.9 88.2 -38.1 89.2 -25.8 90.2 -13.5 82.45 -4.95 L80.2 -2.95 Q76.4 0.05 72.4 1.55 72.15 -13.5 62.1 -26.55 52.3 -39.15 35.75 -46.65 L40.0 -50.65 Q48.3 -56.7 59.1 -55.65" fill="#000000" fill-rule="evenodd" stroke="none"/>
  </g>
</svg>
