<?xml version="1.0" encoding="UTF-8" standalone="no"?>
<svg xmlns:ffdec="https://www.free-decompiler.com/flash" xmlns:xlink="http://www.w3.org/1999/xlink" ffdec:objectType="shape" height="84.35px" width="131.05px" xmlns="http://www.w3.org/2000/svg">
  <g transform="matrix(1.0, 0.0, 0.0, 1.0, 65.55, 42.2)">
    <path d="M65.4 13.8 Q66.4 16.05 58.65 27.9 51.05 39.9 51.6 42.15 L24.45 38.15 -5.4 36.65 Q-18.2 36.65 -51.6 40.7 -51.1 38.4 -58.9 26.35 -66.45 14.55 -65.45 12.3 -59.6 9.55 -53.9 7.35 -46.7 -5.85 -37.3 -13.05 -26.0 -21.85 -9.45 -23.65 -11.95 -26.65 -11.95 -30.65 -11.95 -35.4 -8.4 -38.65 -5.15 -42.2 -0.4 -42.2 4.35 -42.2 7.65 -38.65 11.2 -35.4 11.2 -30.65 11.2 -26.65 8.7 -23.65 25.45 -21.8 37.05 -12.8 46.7 -5.1 54.1 8.7 59.75 11.0 65.4 13.8" fill="#33cc00" fill-rule="evenodd" stroke="none"/>
  </g>
</svg>
