<?xml version="1.0" encoding="UTF-8" standalone="no"?>
<svg xmlns:ffdec="https://www.free-decompiler.com/flash" xmlns:xlink="http://www.w3.org/1999/xlink" ffdec:objectType="shape" height="114.5px" width="131.95px" xmlns="http://www.w3.org/2000/svg">
  <g transform="matrix(1.0, 0.0, 0.0, 1.0, 77.95, 84.2)">
    <path d="M-12.4 -83.7 Q-7.65 -83.7 -4.35 -80.15 -0.8 -76.9 -0.8 -72.15 -0.8 -68.15 -3.3 -65.15 L-12.4 -65.65 -21.45 -65.15 Q-23.95 -68.15 -23.95 -72.15 -23.95 -76.9 -20.4 -80.15 -17.15 -83.7 -12.4 -83.7" fill="#000000" fill-opacity="0.49803922" fill-rule="evenodd" stroke="none"/>
    <path d="M53.4 -27.7 Q54.4 -25.45 46.65 -13.6 L32.6 12.65 Q16.7 30.05 -21.8 29.8 L-17.9 29.15 Q-32.75 30.65 -49.6 17.2 L-70.9 -15.15 Q-78.45 -26.95 -77.45 -29.2 -44.05 -44.8 -16.7 -44.8 18.75 -44.8 53.4 -27.7" fill="#000000" fill-opacity="0.49803922" fill-rule="evenodd" stroke="none"/>
    <path d="M42.9 -32.45 L42.1 -32.8 Q34.7 -46.6 25.05 -54.3 13.45 -63.3 -3.3 -65.15 -0.8 -68.15 -0.8 -72.15 -0.8 -76.9 -4.35 -80.15 -7.65 -83.7 -12.4 -83.7 -17.15 -83.7 -20.4 -80.15 -23.95 -76.9 -23.95 -72.15 -23.95 -68.15 -21.45 -65.15 -38.0 -63.35 -49.3 -54.55 -58.65 -47.35 -65.85 -34.2 L-69.25 -32.8 -72.65 -31.35 -77.45 -29.2 -71.35 -15.9 -70.9 -15.15 Q-63.1 -3.1 -63.6 -0.8 L-61.65 -1.0 -49.6 17.2 Q-32.75 30.65 -17.9 29.15 L-21.8 29.8 Q16.7 30.05 32.6 12.65 L39.05 0.6 39.6 0.65 Q39.5 0.15 39.75 -0.75 L46.4 -13.2 46.65 -13.6 47.65 -15.2 52.5 -23.7 Q53.85 -26.7 53.4 -27.7 L45.25 -31.5 42.9 -32.45 Z" fill="none" stroke="#000000" stroke-linecap="round" stroke-linejoin="round" stroke-opacity="0.2509804" stroke-width="1.0"/>
  </g>
</svg>
