<?xml version="1.0" encoding="UTF-8" standalone="no"?>
<svg xmlns:ffdec="https://www.free-decompiler.com/flash" xmlns:xlink="http://www.w3.org/1999/xlink" ffdec:objectType="shape" height="92.35px" width="74.4px" xmlns="http://www.w3.org/2000/svg">
  <g transform="matrix(1.0, 0.0, 0.0, 1.0, 37.2, 46.3)">
    <path d="M30.05 -17.95 Q33.45 -10.7 35.35 -1.95 L36.25 2.95 36.7 6.3 37.2 12.6 Q37.2 16.55 36.8 19.65 35.85 26.7 33.15 30.85 28.5 38.0 17.05 42.75 13.55 44.05 10.2 44.75 4.5 45.9 -0.65 46.05 L-11.25 45.35 -14.3 44.6 -17.6 43.3 Q-19.3 42.6 -21.6 40.9 L-23.85 39.05 Q-27.65 35.4 -30.0 30.8 L-31.35 28.05 Q-33.35 23.15 -34.7 17.7 -35.7 14.35 -36.35 10.05 -37.7 0.95 -36.95 -7.35 -36.15 -16.1 -33.0 -24.05 -26.0 -41.95 -11.4 -45.55 0.55 -48.45 11.75 -40.4 L16.85 -36.35 Q25.05 -28.75 30.05 -17.95" fill="#ffcc66" fill-rule="evenodd" stroke="none"/>
  </g>
</svg>
