<?xml version="1.0" encoding="UTF-8" standalone="no"?>
<svg xmlns:ffdec="https://www.free-decompiler.com/flash" xmlns:xlink="http://www.w3.org/1999/xlink" ffdec:objectType="shape" height="45.75px" width="24.6px" xmlns="http://www.w3.org/2000/svg">
  <g transform="matrix(1.0, 0.0, 0.0, 1.0, 11.55, 20.25)">
    <path d="M3.5 21.35 L-2.55 21.45 -2.65 8.0 3.4 7.9 3.5 21.35" fill="#cfd0d2" fill-rule="evenodd" stroke="none"/>
    <path d="M3.5 21.35 L-2.55 21.45 -2.65 8.0 3.4 7.9 3.5 21.35 Z" fill="none" stroke="#666666" stroke-linecap="round" stroke-linejoin="round" stroke-width="0.2"/>
    <path d="M-1.05 21.55 L-2.25 21.55 -2.35 8.1 -1.15 8.1 -1.05 21.55" fill="#e5e5e5" fill-rule="evenodd" stroke="none"/>
    <path d="M2.65 21.45 L0.35 21.5 0.25 8.05 2.55 8.0 2.65 21.45" fill="#b9babc" fill-rule="evenodd" stroke="none"/>
    <path d="M5.0 8.45 Q4.5 8.95 2.5 9.45 L-1.65 9.7 Q-3.75 9.5 -4.3 9.1 L-4.8 8.3 Q-4.85 7.7 -4.4 7.3 -3.95 6.85 -3.25 6.8 L3.7 6.35 4.9 6.65 Q5.4 7.05 5.45 7.65 L5.0 8.45" fill="#c1bb66" fill-rule="evenodd" stroke="none"/>
    <path d="M5.0 8.45 Q4.5 8.95 2.5 9.45 L-1.65 9.7 Q-3.75 9.5 -4.3 9.1 L-4.8 8.3 Q-4.85 7.7 -4.4 7.3 -3.95 6.85 -3.25 6.8 L3.7 6.35 4.9 6.65 Q5.4 7.05 5.45 7.65 L5.0 8.45 Z" fill="none" stroke="#66643f" stroke-linecap="round" stroke-linejoin="round" stroke-width="0.2"/>
    <path d="M9.0 -11.65 Q10.05 -9.45 10.6 -6.85 L10.6 -6.75 10.85 -5.35 11.0 -4.35 11.15 -2.45 11.15 -0.45 11.15 -0.35 11.1 0.1 Q10.55 2.9 8.4 4.7 L8.3 4.8 8.0 5.0 5.0 6.55 3.05 7.15 -3.35 7.35 -4.15 7.15 -4.65 7.0 -4.95 6.9 -5.3 6.8 -6.2 6.25 -7.2 5.45 -9.05 3.0 -9.4 2.15 -10.4 -0.95 -10.55 -1.5 -10.55 -1.6 -10.9 -3.25 Q-11.3 -5.95 -11.1 -8.45 -10.85 -11.1 -9.9 -13.45 -7.8 -18.85 -3.4 -19.9 0.15 -20.8 3.5 -18.35 L4.2 -17.85 4.4 -17.7 5.05 -17.15 Q7.5 -14.85 9.0 -11.65" fill="#e0da86" fill-rule="evenodd" stroke="none"/>
    <path d="M2.85 -14.55 Q3.3 -13.5 3.35 -12.2 L3.35 -12.15 3.4 -11.45 3.45 -10.95 3.4 -10.0 3.25 -9.0 3.25 -8.95 3.2 -8.75 Q2.75 -7.35 1.5 -6.45 L1.4 -6.4 1.25 -6.3 Q0.5 -5.9 -0.45 -5.55 L-1.55 -5.25 -4.95 -5.15 -5.4 -5.25 -5.6 -5.3 -5.75 -5.35 -5.95 -5.4 -6.35 -5.7 -6.85 -6.1 -7.7 -7.3 -7.8 -7.7 -8.15 -9.25 -8.25 -9.55 -8.2 -9.6 -8.25 -10.4 -8.1 -13.0 -7.1 -15.45 Q-5.6 -18.15 -3.25 -18.65 -1.3 -19.1 0.35 -17.9 L0.65 -17.65 0.75 -17.55 1.1 -17.3 Q2.25 -16.15 2.85 -14.55" fill="#e6e1a1" fill-rule="evenodd" stroke="none"/>
    <path d="M-4.65 -16.2 L-3.65 -16.2 -2.9 -19.5 M-5.6 -7.5 L-4.6 -7.55 -4.3 -12.0 -5.2 -12.0 M-2.75 -16.2 L-3.65 -16.2 -4.3 -12.0 -3.45 -12.05 M-2.45 1.2 L-3.55 1.2 -1.8 5.85 -0.95 5.85 M-3.7 -7.6 L-4.6 -7.55 -4.4 -3.25 -3.35 -3.25 M-4.45 1.15 L-3.55 1.2 Q-4.15 -0.95 -4.4 -3.25 L-5.35 -3.3 M-0.85 7.6 L-1.8 5.85 -2.8 5.85" fill="none" stroke="#b0ae5b" stroke-linecap="round" stroke-linejoin="round" stroke-width="0.2"/>
    <path d="M8.55 -9.85 L8.55 -9.95 Q8.0 -12.55 6.95 -14.75 L6.55 -15.55 Q8.0 -13.8 9.0 -11.65 10.05 -9.45 10.6 -6.85 L10.6 -6.75 10.85 -5.35 11.0 -4.35 11.15 -2.45 11.15 -0.45 11.15 -0.35 11.1 0.1 Q10.55 2.9 8.4 4.7 L8.3 4.8 8.0 5.0 5.0 6.55 3.05 7.15 -3.35 7.35 -4.15 7.15 -4.65 7.0 -4.95 6.9 -5.3 6.8 -6.2 6.25 -7.2 5.45 -9.05 3.0 -9.35 2.25 -9.25 2.35 -8.25 3.15 -7.35 3.7 -7.0 3.8 -6.7 3.9 -6.2 4.05 -5.4 4.25 1.0 4.05 2.95 3.45 Q4.65 2.75 5.95 1.9 L6.25 1.7 6.35 1.6 Q8.5 -0.2 9.05 -3.0 L9.1 -3.45 9.1 -3.55 9.1 -5.55 8.95 -7.45 8.8 -8.45 8.55 -9.85" fill="#000000" fill-opacity="0.09019608" fill-rule="evenodd" stroke="none"/>
    <path d="M4.4 -17.7 L5.05 -17.15 Q7.5 -14.85 9.0 -11.65 10.05 -9.45 10.6 -6.85 L10.6 -6.75 10.85 -5.35 11.0 -4.35 11.15 -2.45 11.15 -0.45 11.15 -0.35 11.1 0.1 Q10.55 2.9 8.4 4.7 L8.3 4.8 8.0 5.0 5.0 6.55 3.05 7.15 -3.35 7.35 -4.15 7.15 -4.65 7.0 -4.95 6.9 -5.3 6.8 -6.2 6.25 -7.2 5.45 -9.05 3.0 -9.4 2.15 -10.4 -0.95 -10.55 -1.5 -10.55 -1.6 -10.9 -3.25 Q-11.3 -5.95 -11.1 -8.45 -10.85 -11.1 -9.9 -13.45 -7.8 -18.85 -3.4 -19.9 0.15 -20.8 3.5 -18.35 L4.2 -17.85 4.4 -17.7 Z" fill="none" stroke="#66643f" stroke-linecap="round" stroke-linejoin="round" stroke-width="0.2"/>
    <path d="M6.0 22.8 Q5.45 23.35 4.6 23.35 L-3.9 23.35 Q-4.7 23.35 -5.3 22.8 -5.85 22.3 -5.85 21.55 -5.85 20.8 -5.3 20.25 -4.7 19.75 -3.9 19.75 L4.6 19.75 Q5.45 19.75 6.0 20.25 6.6 20.8 6.6 21.55 6.6 22.3 6.0 22.8" fill="#cfd0d2" fill-rule="evenodd" stroke="none"/>
    <path d="M6.0 22.8 Q6.6 22.3 6.6 21.55 6.6 20.8 6.0 20.25 5.45 19.75 4.6 19.75 L-3.9 19.75 Q-4.7 19.75 -5.3 20.25 -5.85 20.8 -5.85 21.55 -5.85 22.3 -5.3 22.8 -4.7 23.35 -3.9 23.35 L4.6 23.35 Q5.45 23.35 6.0 22.8 Z" fill="none" stroke="#666666" stroke-linecap="round" stroke-linejoin="round" stroke-width="0.2"/>
    <path d="M5.45 23.4 Q4.95 23.85 4.2 23.85 L-3.4 23.85 Q-4.15 23.85 -4.65 23.4 L-5.15 22.45 Q-5.15 21.85 -4.65 21.4 -4.15 21.05 -3.4 21.05 L4.2 21.05 Q4.95 21.05 5.45 21.4 5.95 21.85 5.95 22.45 5.95 23.0 5.45 23.4" fill="#b9babc" fill-rule="evenodd" stroke="none"/>
    <path d="M12.95 23.9 Q12.95 24.5 12.5 24.9 12.1 25.4 11.55 25.4 L-10.05 25.4 Q-10.6 25.4 -11.1 24.9 -11.45 24.5 -11.45 23.9 L-11.45 23.85 Q-11.45 23.2 -11.1 22.75 -10.6 22.3 -10.05 22.3 L11.55 22.3 Q12.1 22.3 12.5 22.75 12.95 23.2 12.95 23.85 L12.95 23.9" fill="#cfd0d2" fill-rule="evenodd" stroke="none"/>
    <path d="M12.5 24.9 Q12.95 24.5 12.95 23.9 L12.95 23.85 Q12.95 23.2 12.5 22.75 12.1 22.3 11.55 22.3 L-10.05 22.3 Q-10.6 22.3 -11.1 22.75 -11.45 23.2 -11.45 23.85 L-11.45 23.9 Q-11.45 24.5 -11.1 24.9 -10.6 25.4 -10.05 25.4" fill="none" stroke="#666666" stroke-linecap="round" stroke-linejoin="round" stroke-width="0.2"/>
    <path d="M-10.05 25.4 L11.55 25.4 Q12.1 25.4 12.5 24.9" fill="none" stroke="#666666" stroke-linecap="round" stroke-linejoin="round" stroke-width="0.2"/>
    <path d="M12.3 24.8 Q12.3 25.15 10.25 25.15 L-8.75 25.15 -10.8 24.8 -10.8 24.15 Q-10.8 23.75 -8.75 23.75 L10.25 23.75 Q12.3 23.75 12.3 24.15 L12.3 24.8" fill="#b9babc" fill-rule="evenodd" stroke="none"/>
    <path d="M-4.5 20.3 L5.25 20.3" fill="none" stroke="#e5e5e5" stroke-linecap="round" stroke-linejoin="round" stroke-width="0.5"/>
    <path d="M-9.75 22.85 L11.35 22.85" fill="none" stroke="#e5e5e5" stroke-linecap="round" stroke-linejoin="round" stroke-width="0.5"/>
    <path d="M5.05 -17.15 Q7.5 -14.85 9.0 -11.65 10.05 -9.45 10.6 -6.85 L10.6 -6.75 10.85 -5.35 11.0 -4.35 11.15 -2.45 11.15 -0.45 11.15 -0.35 11.1 0.1 Q10.55 2.9 8.4 4.7 L8.3 4.8 8.0 5.0 5.0 6.55 4.85 6.6 4.9 6.65 Q5.4 7.05 5.45 7.65 L5.0 8.45 3.4 9.2 3.5 19.75 4.95 19.75 Q5.6 19.75 6.1 20.2 6.6 20.65 6.6 21.25 L6.6 21.85 6.55 22.3 11.55 22.3 Q12.1 22.3 12.5 22.75 12.95 23.2 12.95 23.85 L12.95 23.9 Q12.95 24.5 12.5 24.9 12.1 25.4 11.55 25.4 L-10.05 25.4 Q-10.6 25.4 -11.1 24.9 -11.45 24.5 -11.45 23.9 L-11.45 23.85 Q-11.45 23.2 -11.1 22.75 -10.6 22.3 -10.05 22.3 L-5.8 22.3 -5.85 21.85 -5.85 21.25 Q-5.85 20.65 -5.45 20.2 -4.95 19.75 -4.2 19.75 L-2.55 19.75 -2.65 9.6 -4.3 9.1 -4.8 8.3 Q-4.85 7.7 -4.4 7.3 L-4.2 7.15 -4.65 7.0 -4.95 6.9 -5.3 6.8 -6.2 6.25 -7.2 5.45 -9.05 3.0 -9.4 2.15 -10.4 -0.95 -10.55 -1.5 -10.55 -1.6 -10.9 -3.25 Q-11.3 -5.95 -11.1 -8.45 -10.85 -11.1 -9.9 -13.45 -7.8 -18.85 -3.4 -19.9 0.15 -20.8 3.5 -18.35 L4.2 -17.85 4.4 -17.7 5.05 -17.15 Z" fill="none" stroke="#000000" stroke-linecap="butt" stroke-linejoin="miter-clip" stroke-miterlimit="4.0" stroke-opacity="0.29803923" stroke-width="0.2"/>
  </g>
</svg>
