<?xml version="1.0" encoding="UTF-8" standalone="no"?>
<svg xmlns:ffdec="https://www.free-decompiler.com/flash" xmlns:xlink="http://www.w3.org/1999/xlink" ffdec:objectType="shape" height="68.45px" width="74.65px" xmlns="http://www.w3.org/2000/svg">
  <g transform="matrix(1.0, 0.0, 0.0, 1.0, 37.3, 34.25)">
    <path d="M5.05 -34.15 Q8.35 -32.5 11.85 -30.3 10.5 -26.5 10.5 -22.35 10.5 -14.85 14.85 -9.7 19.3 -4.4 25.65 -4.4 28.65 -4.4 31.3 -5.55 33.95 0.9 35.75 8.55 L35.75 8.7 36.75 13.55 37.25 16.85 Q1.9 44.1 -34.7 28.35 L-36.0 20.5 Q-37.65 12.05 -37.0 3.75 -36.5 -4.75 -33.0 -12.9 -29.7 -21.2 -25.55 -26.65 -24.2 -24.7 -22.7 -23.35 -17.9 -19.05 -11.25 -19.05 -4.6 -19.05 0.05 -23.35 4.85 -27.65 5.05 -34.15" fill="#ffffff" fill-rule="evenodd" stroke="none"/>
    <path d="M5.05 -34.15 Q4.85 -27.65 0.05 -23.35 -4.6 -19.05 -11.25 -19.05 -17.9 -19.05 -22.7 -23.35 -24.2 -24.7 -25.55 -26.65 -29.7 -21.2 -33.0 -12.9 -36.5 -4.75 -37.0 3.75 -37.65 12.05 -36.0 20.5 L-34.7 28.35 Q1.9 44.1 37.25 16.85 L36.75 13.55 35.75 8.7 35.75 8.55 Q33.95 0.9 31.3 -5.55 28.65 -4.4 25.65 -4.4 19.3 -4.4 14.85 -9.7 10.5 -14.85 10.5 -22.35 10.5 -26.5 11.85 -30.3 8.35 -32.5 5.05 -34.15 Z" fill="none" stroke="#000000" stroke-linecap="round" stroke-linejoin="round" stroke-opacity="0.11764706" stroke-width="0.2"/>
  </g>
</svg>
