<?xml version="1.0" encoding="UTF-8" standalone="no"?>
<svg xmlns:ffdec="https://www.free-decompiler.com/flash" xmlns:xlink="http://www.w3.org/1999/xlink" ffdec:objectType="shape" height="68.45px" width="75.35px" xmlns="http://www.w3.org/2000/svg">
  <g transform="matrix(1.0, 0.0, 0.0, 1.0, 36.75, 44.2)">
    <path d="M6.0 -44.1 Q9.65 -42.95 12.85 -40.25 11.5 -36.45 11.5 -32.3 11.5 -24.8 15.85 -19.65 20.4 -14.35 26.75 -14.35 29.8 -14.35 32.45 -15.5 35.15 -9.05 37.0 -1.4 L37.0 -1.25 38.0 3.6 38.5 6.9 Q2.8 34.15 -34.1 18.35 L-35.4 10.55 Q-37.1 2.1 -36.45 -6.2 -35.9 -14.7 -32.55 -23.0 -29.4 -31.3 -24.85 -36.6 -23.5 -34.6 -22.0 -33.3 -17.15 -29.0 -10.45 -29.0 -3.75 -29.0 0.95 -33.3 5.8 -37.6 6.0 -44.1" fill="#ffffff" fill-rule="evenodd" stroke="none"/>
    <path d="M6.0 -44.1 Q5.8 -37.6 0.95 -33.3 -3.75 -29.0 -10.45 -29.0 -17.15 -29.0 -22.0 -33.3 -23.5 -34.6 -24.85 -36.6 -29.4 -31.3 -32.55 -23.0 -35.9 -14.7 -36.45 -6.2 -37.1 2.1 -35.4 10.55 L-34.1 18.35 Q2.8 34.15 38.5 6.9 L38.0 3.6 37.0 -1.25 37.0 -1.4 Q35.15 -9.05 32.45 -15.5 29.8 -14.35 26.75 -14.35 20.4 -14.35 15.85 -19.65 11.5 -24.8 11.5 -32.3 11.5 -36.45 12.85 -40.25 9.65 -42.95 6.0 -44.1 Z" fill="none" stroke="#000000" stroke-linecap="round" stroke-linejoin="round" stroke-opacity="0.11764706" stroke-width="0.2"/>
  </g>
</svg>
