<?xml version="1.0" encoding="UTF-8" standalone="no"?>
<svg xmlns:ffdec="https://www.free-decompiler.com/flash" xmlns:xlink="http://www.w3.org/1999/xlink" ffdec:objectType="shape" height="171.5px" width="154.75px" xmlns="http://www.w3.org/2000/svg">
  <g transform="matrix(1.0, 0.0, 0.0, 1.0, 76.9, 2.95)">
    <path d="M74.4 68.05 Q74.4 92.85 52.4 110.4 30.4 127.9 -0.7 127.9 -31.8 127.9 -53.9 110.4 -75.9 92.85 -75.9 68.05 L-75.85 66.55 74.4 66.55 74.4 68.05" fill="#a65e15" fill-rule="evenodd" stroke="none"/>
    <path d="M-60.25 139.55 L-53.4 167.3 -76.9 167.3 -70.15 139.55 -60.25 139.55" fill="#a65e15" fill-rule="evenodd" stroke="none"/>
    <path d="M-57.7 81.25 Q-54.6 86.3 -55.0 93.15 -55.4 99.5 -58.65 103.75 L-60.65 105.85 Q-59.7 106.65 -58.8 107.9 -56.1 111.75 -56.4 116.9 -56.7 121.75 -59.5 125.0 -60.7 126.3 -61.95 127.05 -60.75 127.75 -59.7 129.05 -57.3 132.0 -57.55 136.0 -57.75 139.8 -60.25 142.35 -62.65 144.8 -65.95 144.8 -69.25 144.8 -71.65 142.35 -74.15 139.8 -74.35 136.0 -74.6 132.0 -72.2 129.05 -71.15 127.75 -69.9 127.05 -71.25 126.3 -72.35 125.0 -75.2 121.75 -75.45 116.9 -75.8 111.75 -73.05 107.9 -72.25 106.65 -71.2 105.85 L-73.25 103.75 Q-76.5 99.5 -76.85 93.15 -77.3 86.3 -74.2 81.25 -70.95 75.85 -65.95 75.85 -60.95 75.85 -57.7 81.25" fill="#a65e15" fill-rule="evenodd" stroke="none"/>
    <path d="M71.0 140.8 L77.85 168.55 54.35 168.55 61.1 140.8 71.0 140.8" fill="#a65e15" fill-rule="evenodd" stroke="none"/>
    <path d="M73.55 82.5 Q76.65 87.55 76.25 94.4 75.85 100.75 72.6 105.0 L70.6 107.1 72.45 109.15 Q75.15 113.0 74.85 118.15 74.55 123.0 71.75 126.25 L69.3 128.3 Q70.5 129.0 71.55 130.3 73.95 133.25 73.7 137.25 73.5 141.05 71.0 143.6 68.6 146.05 65.3 146.05 62.0 146.05 59.6 143.6 57.1 141.05 56.9 137.25 56.65 133.25 59.05 130.3 60.1 129.0 61.35 128.3 60.0 127.55 58.9 126.25 56.05 123.0 55.8 118.15 55.45 113.0 58.2 109.15 59.0 107.9 60.05 107.1 L58.0 105.0 Q54.75 100.75 54.4 94.4 53.95 87.55 57.05 82.5 60.3 77.1 65.3 77.1 70.3 77.1 73.55 82.5" fill="#a65e15" fill-rule="evenodd" stroke="none"/>
    <path d="M75.1 60.6 Q75.0 88.65 52.9 108.35 30.75 128.05 -0.55 128.05 -31.8 128.05 -53.9 108.35 -76.05 88.65 -76.05 60.65 -76.05 32.6 -53.9 10.65 -31.8 -11.3 -1.3 2.2 33.0 -11.25 54.1 10.65 75.15 32.55 75.1 60.6" fill="#a65e15" fill-rule="evenodd" stroke="none"/>
  </g>
</svg>
