<?xml version="1.0" encoding="UTF-8" standalone="no"?>
<svg xmlns:ffdec="https://www.free-decompiler.com/flash" xmlns:xlink="http://www.w3.org/1999/xlink" ffdec:objectType="shape" height="159.85px" width="123.45px" xmlns="http://www.w3.org/2000/svg">
  <g transform="matrix(1.0, 0.0, 0.0, 1.0, 61.75, 90.35)">
    <path d="M-43.65 48.05 Q-25.6 44.35 0.0 44.35 25.6 44.35 43.65 48.05 61.7 51.7 61.7 56.9 61.7 62.1 43.65 65.8 25.6 69.5 0.0 69.5 -25.6 69.5 -43.65 65.8 -61.75 62.1 -61.75 56.9 -61.75 51.7 -43.65 48.05" fill="#000000" fill-opacity="0.101960786" fill-rule="evenodd" stroke="none"/>
    <path d="M17.25 -71.4 Q23.7 -67.95 27.6 -60.35 29.8 -56.05 30.45 -52.35 31.0 -49.35 30.7 -44.85 29.65 -40.45 26.8 -39.0 22.35 -36.75 15.4 -41.75 8.75 -46.5 3.95 -54.7 0.9 -61.7 1.6 -66.0 2.25 -70.15 6.45 -72.35 11.05 -74.7 17.25 -71.4 M25.75 -28.8 Q25.5 -30.45 26.5 -31.75 27.45 -33.0 29.3 -33.5 31.25 -34.1 32.8 -33.45 34.45 -32.8 34.95 -30.95 35.3 -29.85 35.15 -28.65 34.95 -27.45 34.4 -26.45 33.55 -25.45 32.3 -25.05 30.4 -24.5 28.45 -25.7 26.55 -26.8 25.75 -28.8" fill="#ffffff" fill-rule="evenodd" stroke="none"/>
    <path d="M17.25 -71.4 Q11.05 -74.7 6.45 -72.35 2.25 -70.15 1.6 -66.0 0.9 -61.7 3.95 -54.7 8.75 -46.5 15.4 -41.75 22.35 -36.75 26.8 -39.0 29.65 -40.45 30.7 -44.85 31.0 -49.35 30.45 -52.35 29.8 -56.05 27.6 -60.35 23.7 -67.95 17.25 -71.4 M19.1 -78.75 Q25.9 -74.15 31.55 -65.75 37.0 -57.7 40.4 -47.4 43.9 -37.05 44.7 -26.35 43.25 -8.7 32.75 1.5 22.75 11.2 8.0 11.2 -7.9 11.2 -18.1 0.1 -28.9 -11.65 -28.9 -31.7 -28.9 -43.65 -25.05 -55.5 -21.2 -67.2 -14.65 -75.65 -10.35 -79.5 -5.65 -81.55 -0.8 -83.65 4.2 -83.65 11.85 -83.65 19.1 -78.75 M25.75 -28.8 Q26.55 -26.8 28.45 -25.7 30.4 -24.5 32.3 -25.05 33.55 -25.45 34.4 -26.45 34.95 -27.45 35.15 -28.65 35.3 -29.85 34.95 -30.95 34.45 -32.8 32.8 -33.45 31.25 -34.1 29.3 -33.5 27.45 -33.0 26.5 -31.75 25.5 -30.45 25.75 -28.8" fill="#ffec45" fill-rule="evenodd" stroke="none"/>
    <path d="M36.25 -63.4 Q43.6 -52.8 48.25 -39.35 53.0 -25.75 54.1 -11.65 L54.05 -11.65 54.35 -3.95 Q54.35 10.6 50.05 22.5 46.0 33.7 38.4 41.7 31.1 49.35 21.2 53.45 11.35 57.45 0.0 57.45 -11.35 57.45 -21.2 53.45 -31.1 49.35 -38.4 41.7 -46.0 33.7 -50.0 22.5 -54.35 10.6 -54.35 -3.95 -54.35 -24.9 -46.1 -45.0 -37.95 -64.9 -24.8 -76.25 -19.05 -81.2 -12.9 -83.8 -6.5 -86.5 0.0 -86.5 10.05 -86.45 19.55 -80.2 28.65 -74.25 36.25 -63.4 M19.1 -78.75 Q11.85 -83.65 4.2 -83.65 -0.8 -83.65 -5.65 -81.55 -10.35 -79.5 -14.65 -75.65 -21.2 -67.2 -25.05 -55.5 -28.9 -43.65 -28.9 -31.7 -28.9 -11.65 -18.1 0.1 -7.9 11.2 8.0 11.2 22.75 11.2 32.75 1.5 43.25 -8.7 44.7 -26.35 43.9 -37.05 40.4 -47.4 37.0 -57.7 31.55 -65.75 25.9 -74.15 19.1 -78.75 M-36.85 -47.65 Q-32.05 -61.9 -23.8 -72.2 -36.1 -61.6 -43.75 -43.0 -51.4 -24.35 -51.4 -4.85 -51.4 8.75 -47.35 19.9 -43.5 30.45 -36.35 38.0 -29.4 45.3 -20.0 49.15 -10.7 52.95 0.0 52.95 10.7 52.95 20.0 49.15 29.4 45.3 36.35 38.0 51.4 22.15 51.4 -4.85 L51.15 -12.05 Q49.3 9.45 36.05 21.9 23.45 33.65 4.85 33.65 -4.9 33.65 -13.3 30.25 -21.8 26.75 -28.1 20.15 -41.75 5.8 -41.75 -18.65 -41.75 -33.2 -36.85 -47.65" fill="#ffda21" fill-rule="evenodd" stroke="none"/>
    <path d="M-36.85 -47.65 Q-41.75 -33.2 -41.75 -18.65 -41.75 5.8 -28.1 20.15 -21.8 26.75 -13.3 30.25 -4.9 33.65 4.85 33.65 23.45 33.65 36.05 21.9 49.3 9.45 51.15 -12.05 L51.4 -4.85 Q51.4 22.15 36.35 38.0 29.4 45.3 20.0 49.15 10.7 52.95 0.0 52.95 -10.7 52.95 -20.0 49.15 -29.4 45.3 -36.35 38.0 -43.5 30.45 -47.35 19.9 -51.4 8.75 -51.4 -4.85 -51.4 -24.35 -43.75 -43.0 -36.1 -61.6 -23.8 -72.2 -32.05 -61.9 -36.85 -47.65" fill="#e8c61e" fill-rule="evenodd" stroke="none"/>
    <path d="M36.25 -63.4 Q28.65 -74.25 19.55 -80.2 10.05 -86.45 0.0 -86.5 -6.5 -86.5 -12.9 -83.8 -19.05 -81.2 -24.8 -76.25 -37.95 -64.9 -46.1 -45.0 -54.35 -24.9 -54.35 -3.95 -54.35 10.6 -50.0 22.5 -46.0 33.7 -38.4 41.7 -31.1 49.35 -21.2 53.45 -11.35 57.45 0.0 57.45 11.35 57.45 21.2 53.45 31.1 49.35 38.4 41.7 46.0 33.7 50.05 22.5 54.35 10.6 54.35 -3.95 L54.05 -11.65 54.1 -11.65 Q53.0 -25.75 48.25 -39.35 43.6 -52.8 36.25 -63.4 M21.7 -83.45 Q31.35 -77.1 39.4 -65.6 47.05 -54.55 51.9 -40.6 56.8 -26.5 57.9 -11.95 L58.2 -3.95 Q58.2 11.35 53.7 23.8 49.35 35.8 41.2 44.35 33.3 52.6 22.65 57.0 12.1 61.3 0.0 61.3 -12.1 61.3 -22.65 57.0 -33.3 52.6 -41.2 44.35 -49.3 35.8 -53.65 23.8 -58.2 11.35 -58.2 -3.95 -58.2 -25.65 -49.7 -46.45 -41.1 -67.3 -27.3 -79.15 -21.05 -84.55 -14.4 -87.35 -7.25 -90.35 0.0 -90.35 11.15 -90.35 21.7 -83.45" fill="#a89016" fill-rule="evenodd" stroke="none"/>
  </g>
</svg>
