<?xml version="1.0" encoding="UTF-8" standalone="no"?>
<svg xmlns:ffdec="https://www.free-decompiler.com/flash" xmlns:xlink="http://www.w3.org/1999/xlink" ffdec:objectType="shape" height="72.9px" width="75.35px" xmlns="http://www.w3.org/2000/svg">
  <g transform="matrix(1.0, 0.0, 0.0, 1.0, 0.0, -15.55)">
    <path d="M68.2 23.1 L68.6 22.4 71.2 22.4 Q72.3 22.4 73.05 21.6 73.85 20.8 73.85 19.7 73.85 18.6 73.05 17.85 72.3 17.05 71.2 17.05 L4.15 17.05 Q3.05 17.05 2.3 17.85 1.5 18.6 1.5 19.7 1.5 20.8 2.3 21.6 3.05 22.4 4.15 22.4 L7.0 22.4 Q9.25 25.8 9.25 30.0 9.25 33.4 5.7 43.15 2.1 52.95 2.1 55.3 2.15 61.35 7.05 65.95 11.7 70.3 19.9 72.7 20.5 73.5 20.5 75.1 20.5 76.5 19.95 78.35 L18.55 81.65 16.35 81.65 Q15.25 81.65 14.5 82.45 13.7 83.2 13.7 84.3 13.7 85.4 14.5 86.15 15.25 86.95 16.35 86.95 L59.0 86.95 Q60.1 86.95 60.85 86.15 61.65 85.4 61.65 84.3 61.65 83.2 60.85 82.45 60.1 81.65 59.0 81.65 L56.8 81.65 Q56.0 80.25 55.4 78.35 54.85 76.5 54.85 75.1 54.85 73.7 55.35 72.8 L55.45 72.7 Q63.65 70.3 68.3 65.95 73.2 61.35 73.25 55.3 73.25 52.75 69.65 42.65 66.1 32.55 66.1 30.0 66.1 26.8 68.2 23.1 Z" fill="none" stroke="#615426" stroke-linecap="butt" stroke-linejoin="miter-clip" stroke-miterlimit="4.0" stroke-width="3.0"/>
    <path d="M17.1 83.25 Q18.95 83.05 20.3 78.45 21.25 75.25 20.6 73.3 L19.75 71.95 55.6 71.95 54.75 73.3 Q54.1 75.25 55.05 78.45 55.85 81.2 56.95 82.45 57.6 83.2 58.25 83.25 L17.1 83.25" fill="#947e31" fill-rule="evenodd" stroke="none"/>
    <path d="M17.1 83.25 L58.25 83.25 Q57.6 83.2 56.95 82.45 55.85 81.2 55.05 78.45 54.1 75.25 54.75 73.3 L55.6 71.95 19.75 71.95 20.6 73.3 Q21.25 75.25 20.3 78.45 18.95 83.05 17.1 83.25 Z" fill="none" stroke="#877636" stroke-linecap="butt" stroke-linejoin="miter-clip" stroke-miterlimit="4.0" stroke-width="1.0"/>
  </g>
</svg>
