<?xml version="1.0" encoding="UTF-8" standalone="no"?>
<svg xmlns:ffdec="https://www.free-decompiler.com/flash" xmlns:xlink="http://www.w3.org/1999/xlink" ffdec:objectType="shape" height="67.9px" width="71.35px" xmlns="http://www.w3.org/2000/svg">
  <g transform="matrix(1.0, 0.0, 0.0, 1.0, -2.0, -19.2)">
    <path d="M65.75 30.0 Q65.75 32.65 69.3 42.8 72.85 52.9 72.85 55.3 72.85 64.1 62.55 69.5 52.7 74.65 37.7 74.65 22.65 74.65 12.8 69.5 2.5 64.1 2.5 55.3 2.5 53.05 6.05 43.3 9.6 33.55 9.6 30.0 9.6 25.85 7.45 22.4 L5.3 19.75 70.05 19.75 Q69.0 21.0 67.9 22.9 65.75 26.7 65.75 30.0" fill="#c9ae4c" fill-rule="evenodd" stroke="none"/>
    <path d="M65.75 30.0 Q65.75 26.7 67.9 22.9 69.0 21.0 70.05 19.75 L5.3 19.75 7.45 22.4 Q9.6 25.85 9.6 30.0 9.6 33.55 6.05 43.3 2.5 53.05 2.5 55.3 2.5 64.1 12.8 69.5 22.65 74.65 37.7 74.65 52.7 74.65 62.55 69.5 72.85 64.1 72.85 55.3 72.85 52.9 69.3 42.8 65.75 32.65 65.75 30.0 Z" fill="none" stroke="#806e31" stroke-linecap="butt" stroke-linejoin="miter-clip" stroke-miterlimit="4.0" stroke-width="1.0"/>
    <path d="M69.1 46.95 Q70.9 52.35 70.45 53.6 69.1 57.3 65.75 58.75 62.9 59.95 57.4 59.85 51.75 59.75 46.9 56.9 42.25 54.25 40.55 50.5 37.5 43.9 40.55 38.0 42.35 34.5 46.95 30.75 51.0 27.4 58.25 26.65 61.9 26.3 64.75 26.6 L64.55 30.2 Q64.65 34.7 66.4 39.5 L69.1 46.95" fill="#d9bd57" fill-rule="evenodd" stroke="none"/>
    <path d="M16.35 82.0 L59.0 82.0 Q59.95 82.0 60.6 82.7 61.3 83.35 61.3 84.3 61.3 85.25 60.6 85.9 59.95 86.6 59.0 86.6 L16.35 86.6 Q15.4 86.6 14.75 85.9 14.05 85.25 14.05 84.3 14.05 83.35 14.75 82.7 15.4 82.0 16.35 82.0" fill="#c9ae4c" fill-rule="evenodd" stroke="none"/>
    <path d="M16.35 82.0 L59.0 82.0 Q59.95 82.0 60.6 82.7 61.3 83.35 61.3 84.3 61.3 85.25 60.6 85.9 59.95 86.6 59.0 86.6 L16.35 86.6 Q15.4 86.6 14.75 85.9 14.05 85.25 14.05 84.3 14.05 83.35 14.75 82.7 15.4 82.0 16.35 82.0 Z" fill="none" stroke="#806e31" stroke-linecap="butt" stroke-linejoin="miter-clip" stroke-miterlimit="4.0" stroke-width="1.0"/>
  </g>
</svg>
