<?xml version="1.0" encoding="UTF-8" standalone="no"?>
<svg xmlns:ffdec="https://www.free-decompiler.com/flash" xmlns:xlink="http://www.w3.org/1999/xlink" ffdec:objectType="shape" height="14.25px" width="61.25px" xmlns="http://www.w3.org/2000/svg">
  <g transform="matrix(1.0, 0.0, 0.0, 1.0, 0.0, 0.0)">
    <path d="M44.1 9.95 Q44.1 10.8 44.7 11.45 45.35 12.05 46.2 12.05 47.05 12.05 47.65 11.45 48.25 10.8 48.25 9.95 48.25 9.1 47.65 8.5 47.05 7.9 46.2 7.9 45.35 7.9 44.7 8.5 44.1 9.1 44.1 9.95 M41.9 9.95 Q41.9 8.2 43.15 6.95 44.45 5.7 46.2 5.7 47.95 5.7 49.25 6.95 50.5 8.2 50.5 9.95 50.5 11.75 49.25 13.0 47.95 14.25 46.2 14.25 44.45 14.25 43.15 13.0 41.9 11.75 41.9 9.95" fill="#594d21" fill-rule="evenodd" stroke="none"/>
    <path d="M2.25 5.7 L2.75 5.7 Q4.5 5.7 5.75 6.95 7.0 8.2 7.0 9.95 7.0 11.75 5.75 13.0 4.5 14.25 2.75 14.25 L1.35 14.0 1.9 11.85 2.75 12.05 Q3.6 12.05 4.2 11.45 4.8 10.8 4.8 9.95 4.8 9.1 4.2 8.5 3.6 7.9 2.75 7.9 L2.4 7.95 2.25 5.7" fill="#594d21" fill-rule="evenodd" stroke="none"/>
    <path d="M61.25 0.0 Q60.0 1.95 59.25 4.1 L57.05 3.7 Q55.3 3.7 53.85 4.6 52.4 5.45 51.6 6.95 50.8 5.45 49.35 4.6 47.9 3.7 46.15 3.7 44.4 3.7 42.9 4.6 41.45 5.45 40.65 6.95 39.9 5.55 38.6 4.7 37.25 3.8 35.65 3.7 L35.2 3.7 Q33.45 3.7 32.0 4.6 30.55 5.45 29.75 6.95 28.55 4.75 26.15 3.95 L24.3 3.7 Q22.55 3.7 21.1 4.6 19.65 5.45 18.85 6.95 18.05 5.45 16.6 4.6 15.15 3.7 13.4 3.7 11.65 3.7 10.2 4.6 8.75 5.45 7.95 6.95 7.15 5.45 5.7 4.6 4.2 3.7 2.45 3.7 L1.75 3.75 Q1.15 1.7 0.0 0.0 L61.25 0.0" fill="#594d21" fill-rule="evenodd" stroke="none"/>
    <path d="M57.15 7.05 Q57.85 7.05 58.55 7.4 L58.55 8.05 Q58.55 9.55 59.25 12.05 58.4 12.9 57.15 12.9 55.95 12.9 55.1 12.05 54.2 11.2 54.2 9.95 54.2 8.75 55.1 7.9 55.95 7.05 57.15 7.05" fill="#594d21" fill-rule="evenodd" stroke="none"/>
    <path d="M13.5 12.9 Q12.25 12.9 11.4 12.05 10.55 11.2 10.55 9.95 10.55 8.75 11.4 7.9 12.25 7.05 13.5 7.05 14.7 7.05 15.55 7.9 16.4 8.75 16.4 9.95 16.4 11.2 15.55 12.05 14.7 12.9 13.5 12.9" fill="#594d21" fill-rule="evenodd" stroke="none"/>
    <path d="M35.2 12.9 Q34.0 12.9 33.15 12.05 32.25 11.2 32.25 9.95 32.25 8.75 33.15 7.9 34.0 7.05 35.2 7.05 36.45 7.05 37.3 7.9 38.15 8.75 38.15 9.95 38.15 11.2 37.3 12.05 36.45 12.9 35.2 12.9" fill="#594d21" fill-rule="evenodd" stroke="none"/>
    <path d="M27.5 6.95 Q28.75 8.2 28.75 9.95 28.75 11.75 27.5 13.0 26.25 14.25 24.45 14.25 22.7 14.25 21.45 13.0 20.2 11.75 20.2 9.95 20.2 8.2 21.45 6.95 22.7 5.7 24.45 5.7 26.25 5.7 27.5 6.95 M23.0 11.45 Q23.6 12.05 24.45 12.05 25.3 12.05 25.95 11.45 26.55 10.8 26.55 9.95 26.55 9.1 25.95 8.5 25.3 7.9 24.45 7.9 23.6 7.9 23.0 8.5 22.4 9.1 22.4 9.95 22.4 10.8 23.0 11.45" fill="#594d21" fill-rule="evenodd" stroke="none"/>
  </g>
</svg>
