<?xml version="1.0" encoding="UTF-8" standalone="no"?>
<svg xmlns:ffdec="https://www.free-decompiler.com/flash" xmlns:xlink="http://www.w3.org/1999/xlink" ffdec:objectType="shape" height="5.85px" width="72.55px" xmlns="http://www.w3.org/2000/svg">
  <g transform="matrix(1.0, 0.0, 0.0, 1.0, -1.4, -16.95)">
    <path d="M73.45 19.7 Q73.45 20.65 72.8 21.35 72.15 22.0 71.2 22.0 L4.15 22.0 Q3.2 22.0 2.55 21.35 1.9 20.65 1.9 19.7 1.9 18.75 2.55 18.1 3.2 17.45 4.15 17.45 L71.2 17.45 Q72.15 17.45 72.8 18.1 73.45 18.75 73.45 19.7" fill="#c9ae4c" fill-rule="evenodd" stroke="none"/>
    <path d="M73.45 19.7 Q73.45 20.65 72.8 21.35 72.15 22.0 71.2 22.0 L4.15 22.0 Q3.2 22.0 2.55 21.35 1.9 20.65 1.9 19.7 1.9 18.75 2.55 18.1 3.2 17.45 4.15 17.45 L71.2 17.45 Q72.15 17.45 72.8 18.1 73.45 18.75 73.45 19.7 Z" fill="none" stroke="#806e31" stroke-linecap="butt" stroke-linejoin="miter-clip" stroke-miterlimit="4.0" stroke-width="1.0"/>
  </g>
</svg>
