<?xml version="1.0" encoding="UTF-8" standalone="no"?>
<svg xmlns:ffdec="https://www.free-decompiler.com/flash" xmlns:xlink="http://www.w3.org/1999/xlink" ffdec:objectType="shape" height="72.1px" width="74.55px" xmlns="http://www.w3.org/2000/svg">
  <g transform="matrix(1.0, 0.0, 0.0, 1.0, 0.0, 0.0)">
    <path d="M74.55 3.75 Q74.55 5.3 73.45 6.45 72.35 7.55 70.8 7.55 L68.85 7.55 68.8 7.7 Q66.85 11.1 66.8 14.0 L66.85 14.05 66.8 14.15 Q66.8 16.45 70.3 26.35 L72.8 33.65 Q73.9 37.4 73.95 39.35 73.95 45.85 68.65 50.85 64.05 55.15 55.8 57.7 L55.6 59.15 Q55.6 60.5 56.1 62.1 56.5 63.5 57.05 64.55 L58.6 64.55 Q60.2 64.6 61.25 65.7 62.35 66.8 62.35 68.35 62.35 69.95 61.25 71.0 60.2 72.1 58.6 72.1 L15.95 72.1 Q14.4 72.1 13.3 71.0 12.2 69.95 12.2 68.35 12.2 66.75 13.3 65.65 14.4 64.55 15.95 64.55 L17.5 64.55 18.45 62.1 Q18.95 60.5 18.95 59.15 L18.75 57.7 Q10.5 55.15 5.9 50.85 0.6 45.85 0.6 39.35 0.65 37.4 1.8 33.8 L4.25 26.85 Q7.75 17.15 7.75 14.1 L7.7 14.0 Q7.7 10.5 6.0 7.55 L3.75 7.55 Q2.2 7.55 1.1 6.45 0.0 5.3 0.0 3.75 0.0 2.2 1.1 1.1 2.2 0.0 3.75 0.0 L70.8 0.0 Q72.35 0.0 73.45 1.1 74.55 2.2 74.55 3.75" fill="url(#gradient0)" fill-rule="evenodd" stroke="none"/>
  </g>
  <defs>
    <linearGradient gradientTransform="matrix(0.0455, 0.0, 0.0, -0.0455, 37.25, 36.05)" gradientUnits="userSpaceOnUse" id="gradient0" spreadMethod="pad" x1="-819.2" x2="819.2">
      <stop offset="0.0" stop-color="#000000"/>
      <stop offset="1.0" stop-color="#ffffff"/>
    </linearGradient>
  </defs>
</svg>
