<?xml version="1.0" encoding="UTF-8" standalone="no"?>
<svg xmlns:ffdec="https://www.free-decompiler.com/flash" xmlns:xlink="http://www.w3.org/1999/xlink" ffdec:objectType="shape" height="21.9px" width="59.95px" xmlns="http://www.w3.org/2000/svg">
  <g transform="matrix(1.0, 0.0, 0.0, 1.0, -8.5, -0.25)">
    <path d="M63.95 21.4 L9.4 18.95 Q9.65 17.05 10.25 15.1 11.45 11.15 13.35 10.75 L17.4 11.0 19.15 11.65 Q19.45 10.35 20.2 9.05 21.75 6.45 24.05 6.45 25.55 6.45 26.8 4.35 28.05 2.2 29.2 2.2 30.6 2.2 33.15 3.45 35.75 4.65 36.2 4.65 L38.3 2.85 Q40.05 1.0 42.0 1.0 44.05 1.0 46.6 3.35 L49.6 6.15 51.65 5.75 54.8 5.55 Q56.35 6.05 57.1 8.4 57.7 10.35 58.15 10.15 61.1 8.75 61.75 11.1 62.55 14.0 63.3 14.1 68.15 14.7 67.65 18.1 67.15 21.4 63.95 21.4" fill="#a8d268" fill-rule="evenodd" stroke="none"/>
    <path d="M63.95 21.4 L9.4 18.95 Q9.65 17.05 10.25 15.1 11.45 11.15 13.35 10.75 L17.4 11.0 19.15 11.65 Q19.45 10.35 20.2 9.05 21.75 6.45 24.05 6.45 25.55 6.45 26.8 4.35 28.05 2.2 29.2 2.2 30.6 2.2 33.15 3.45 35.75 4.65 36.2 4.65 L38.3 2.85 Q40.05 1.0 42.0 1.0 44.05 1.0 46.6 3.35 L49.6 6.15 51.65 5.75 54.8 5.55 Q56.35 6.05 57.1 8.4 57.7 10.35 58.15 10.15 61.1 8.75 61.75 11.1 62.55 14.0 63.3 14.1 68.15 14.7 67.65 18.1 67.15 21.4 63.95 21.4 Z" fill="none" stroke="#74973e" stroke-linecap="butt" stroke-linejoin="miter-clip" stroke-miterlimit="4.0" stroke-width="1.5"/>
  </g>
</svg>
