<?xml version="1.0" encoding="UTF-8" standalone="no"?>
<svg xmlns:ffdec="https://www.free-decompiler.com/flash" xmlns:xlink="http://www.w3.org/1999/xlink" ffdec:objectType="shape" height="18.8px" width="40.15px" xmlns="http://www.w3.org/2000/svg">
  <g transform="matrix(1.0, 0.0, 0.0, 1.0, 0.0, 0.0)">
    <path d="M32.6 0.0 Q34.6 0.0 37.15 2.3 L40.15 5.1 39.9 5.2 37.0 4.05 Q34.5 2.9 33.1 2.9 31.95 2.9 30.5 5.35 29.05 7.75 27.55 7.75 25.2 7.75 23.65 11.45 22.9 13.3 22.6 15.15 L22.05 16.65 Q21.1 18.25 19.15 18.8 L16.25 17.95 Q14.25 17.25 13.85 18.6 L0.0 17.95 Q0.25 16.05 0.85 14.1 2.05 10.15 3.95 9.75 L8.0 10.0 9.75 10.65 Q10.05 9.35 10.8 8.05 12.35 5.45 14.65 5.45 16.15 5.45 17.4 3.35 18.65 1.2 19.8 1.2 21.2 1.2 23.75 2.45 26.35 3.65 26.8 3.65 27.15 3.65 28.9 1.85 30.65 0.0 32.6 0.0" fill="#000000" fill-rule="evenodd" stroke="none"/>
  </g>
</svg>
