<?xml version="1.0" encoding="UTF-8" standalone="no"?>
<svg xmlns:ffdec="https://www.free-decompiler.com/flash" xmlns:xlink="http://www.w3.org/1999/xlink" ffdec:objectType="shape" height="301.05px" width="240.65px" xmlns="http://www.w3.org/2000/svg">
  <g transform="matrix(1.0, 0.0, 0.0, 1.0, 120.35, 0.0)">
    <path d="M120.3 1.7 L115.5 1.7 120.3 0.0 120.3 1.7" fill="#ffffff" fill-opacity="0.49803922" fill-rule="evenodd" stroke="none"/>
    <path d="M71.75 1.7 Q88.35 9.95 102.75 22.55 112.45 31.05 120.3 40.75 L120.3 228.8 Q114.05 237.4 106.55 245.7 67.6 284.85 10.7 291.85 -44.65 298.45 -93.8 272.3 -107.85 264.7 -120.35 254.0 L-120.35 201.1 Q-109.1 215.4 -93.8 226.7 -63.2 249.1 -25.2 252.9 11.25 256.5 46.05 241.9 79.7 224.95 98.6 191.2 116.95 157.75 114.1 120.35 108.25 67.95 61.75 40.2 13.95 11.7 -33.35 36.75 -62.8 54.65 -72.5 86.7 -82.65 120.55 -63.6 150.75 -48.65 174.85 -17.65 178.85 14.65 182.8 30.9 158.35 37.35 145.2 38.1 135.55 38.85 123.2 30.9 112.75 13.95 95.65 0.65 108.95 -1.2 112.75 2.55 120.35 6.35 127.95 4.45 131.75 -0.65 136.85 -9.15 136.1 -14.4 135.55 -25.8 131.75 -36.55 123.6 -38.1 110.45 -39.4 98.5 -33.35 86.2 -22.15 69.25 -2.15 63.95 17.5 58.65 34.7 67.15 60.75 78.8 72.15 106.1 83.65 134.25 72.5 162.1 52.65 207.5 0.3 214.9 -52.05 222.15 -86.25 184.9 -108.2 160.05 -112.75 126.95 -116.9 95.85 -105.15 63.4 -87.75 25.6 -52.25 4.1 L-48.1 1.7 71.75 1.7 M-107.5 1.7 Q-114.35 8.85 -120.35 16.85 L-120.35 1.7 -107.5 1.7" fill="#ffffff" fill-opacity="0.0" fill-rule="evenodd" stroke="none"/>
    <path d="M115.5 1.7 L120.3 1.7 120.3 40.75 Q112.45 31.05 102.75 22.55 88.35 9.95 71.75 1.7 L115.5 1.7 M-48.1 1.7 L-52.25 4.1 Q-87.75 25.6 -105.15 63.4 -116.9 95.85 -112.75 126.95 -108.2 160.05 -86.25 184.9 -52.05 222.15 0.3 214.9 52.65 207.5 72.5 162.1 83.65 134.25 72.15 106.1 60.75 78.8 34.7 67.15 17.5 58.65 -2.15 63.95 -22.15 69.25 -33.35 86.2 -39.4 98.5 -38.1 110.45 -36.55 123.6 -25.8 131.75 -14.4 135.55 -9.15 136.1 -0.65 136.85 4.45 131.75 6.35 127.95 2.55 120.35 -1.2 112.75 0.65 108.95 13.95 95.65 30.9 112.75 38.85 123.2 38.1 135.55 37.35 145.2 30.9 158.35 14.65 182.8 -17.65 178.85 -48.65 174.85 -63.6 150.75 -82.65 120.55 -72.5 86.7 -62.8 54.65 -33.35 36.75 13.95 11.7 61.75 40.2 108.25 67.95 114.1 120.35 116.95 157.75 98.6 191.2 79.7 224.95 46.05 241.9 11.25 256.5 -25.2 252.9 -63.2 249.1 -93.8 226.7 -109.1 215.4 -120.35 201.1 L-120.35 16.85 Q-114.35 8.85 -107.5 1.7 L-48.1 1.7 M-120.35 254.0 Q-107.85 264.7 -93.8 272.3 -44.65 298.45 10.7 291.85 67.6 284.85 106.55 245.7 114.05 237.4 120.3 228.8 L120.3 286.55 Q120.3 301.05 106.4 301.05 L-106.5 301.05 Q-120.35 301.05 -120.35 286.55 L-120.35 254.0" fill="#fecb7f" fill-opacity="0.8" fill-rule="evenodd" stroke="none"/>
  </g>
</svg>
