<?xml version="1.0" encoding="UTF-8" standalone="no"?>
<svg xmlns:ffdec="https://www.free-decompiler.com/flash" xmlns:xlink="http://www.w3.org/1999/xlink" ffdec:objectType="shape" height="78.45px" width="70.05px" xmlns="http://www.w3.org/2000/svg">
  <g transform="matrix(1.0, 0.0, 0.0, 1.0, 0.0, 0.0)">
    <path d="M63.0 17.9 Q70.3 30.55 67.35 45.75 64.4 60.95 52.85 69.8 41.3 78.6 27.8 75.9 14.3 73.2 7.05 60.55 -0.2 47.9 2.85 32.75 5.95 17.55 17.5 8.75 29.1 -0.1 42.4 2.6 55.75 5.25 63.0 17.9" fill="url(#gradient0)" fill-rule="evenodd" stroke="none"/>
    <path d="M67.2 45.7 Q70.3 30.55 63.0 17.9 55.75 5.25 42.4 2.6 L36.65 2.0 Q24.8 2.0 15.25 10.6 5.55 19.3 2.85 32.75 -0.2 47.95 7.05 60.55 14.3 73.2 27.65 75.85 L33.4 76.45 Q45.25 76.45 54.8 67.85 64.5 59.15 67.2 45.7 M42.8 0.6 Q49.7 2.0 55.35 6.2 61.0 10.4 64.75 16.9 68.45 23.35 69.6 30.85 70.7 38.45 69.15 46.1 66.35 60.15 56.25 69.3 46.1 78.45 33.4 78.45 L27.25 77.85 Q20.35 76.45 14.7 72.25 9.05 68.05 5.3 61.55 1.6 55.1 0.5 47.6 -0.65 40.0 0.9 32.35 3.7 18.3 13.85 9.15 23.95 0.0 36.65 0.0 L36.7 0.0 42.8 0.6" fill="#614623" fill-rule="evenodd" stroke="none"/>
    <path d="M57.65 12.25 L57.55 12.85 Q57.3 14.45 56.35 15.6 L57.3 16.5 Q57.95 17.5 57.75 18.65 57.55 19.8 56.6 20.5 55.7 21.2 54.6 21.0 53.5 20.8 52.85 19.8 52.3 19.0 52.35 18.05 50.9 18.35 49.3 18.05 L48.2 17.8 Q47.3 19.75 45.6 21.15 43.0 23.35 39.9 22.8 L38.5 22.4 Q37.9 25.6 35.9 27.6 33.9 29.65 31.6 29.25 29.35 28.85 28.15 26.25 27.0 23.7 27.5 20.55 26.2 20.2 25.35 19.25 24.7 18.55 24.6 17.8 L24.2 17.7 Q22.8 17.45 21.65 16.85 L20.65 17.8 Q19.6 18.45 18.3 18.2 17.05 18.0 16.25 17.0 15.5 16.05 15.7 14.95 15.9 13.85 16.95 13.25 17.4 13.0 17.85 12.9 16.95 11.25 16.7 9.4 L17.5 8.75 Q29.1 -0.1 42.4 2.6 52.0 4.5 58.45 11.55 L57.75 12.15 57.65 12.25 M45.0 23.9 Q46.25 24.15 46.95 25.15 47.65 26.25 47.45 27.45 47.25 28.7 46.2 29.45 45.1 30.25 43.85 30.05 42.7 29.8 42.0 28.7 41.25 27.7 41.45 26.45 41.7 25.25 42.75 24.4 43.8 23.7 45.0 23.9 M14.5 19.7 Q15.25 19.2 16.1 19.35 16.95 19.5 17.4 20.2 17.9 20.95 17.75 21.8 17.6 22.65 16.9 23.15 16.2 23.65 15.35 23.5 14.5 23.35 13.95 22.6 13.45 21.9 13.6 21.05 13.75 20.2 14.5 19.7 M30.65 34.55 Q30.05 34.45 29.7 33.85 29.35 33.35 29.45 32.7 29.55 32.05 30.1 31.7 30.6 31.3 31.2 31.45 31.8 31.55 32.1 32.05 L32.35 33.25 Q32.25 33.85 31.75 34.25 31.25 34.65 30.65 34.55" fill="#a8d268" fill-opacity="0.6509804" fill-rule="evenodd" stroke="none"/>
    <path d="M1.65 40.65 Q1.5 30.15 6.35 21.35 10.95 12.8 18.9 8.4 L16.85 12.6 16.6 21.25 17.95 29.8 20.0 38.3 24.75 45.8 32.0 51.25 39.55 56.05 48.55 57.35 57.7 56.4 62.25 53.95 Q58.95 64.1 51.2 70.3 43.3 76.65 33.45 76.6 20.55 76.55 11.2 66.05 1.9 55.5 1.65 40.65" fill="url(#gradient1)" fill-rule="evenodd" stroke="none"/>
    <path d="M55.05 8.4 Q54.2 9.65 52.0 10.5 49.65 11.4 47.7 10.95 45.25 10.4 43.75 8.8 42.2 7.25 42.5 5.55 L43.1 3.95 Q43.6 2.85 44.05 2.5 46.85 3.35 49.85 4.95 52.8 6.55 55.05 8.4 M42.45 18.1 Q40.2 19.15 37.1 18.65 34.0 18.15 31.95 16.35 29.9 14.6 30.1 12.6 30.25 10.55 32.5 9.5 34.8 8.45 37.85 8.95 40.9 9.45 43.0 11.25 45.05 13.0 44.9 15.0 44.75 17.0 42.45 18.1 M36.35 5.85 Q33.85 6.9 30.6 6.2 27.9 5.6 26.15 3.7 28.35 3.0 32.4 2.35 L38.95 1.85 39.05 3.35 Q38.35 4.95 36.35 5.85" fill="#75502d" fill-opacity="0.5019608" fill-rule="evenodd" stroke="none"/>
    <path d="M42.1 17.0 Q40.2 17.9 37.6 17.5 35.0 17.05 33.25 15.55 31.5 14.05 31.65 12.35 31.75 10.65 33.7 9.75 35.6 8.85 38.2 9.25 40.8 9.7 42.55 11.2 44.3 12.7 44.2 14.4 44.05 16.1 42.1 17.0 M38.4 1.75 L38.4 2.7 Q38.05 4.35 36.15 5.2 34.3 6.05 31.95 5.6 29.4 5.05 27.65 3.15 33.15 1.55 38.4 1.75 M48.15 9.7 Q45.85 9.25 44.4 7.75 43.0 6.25 43.35 4.6 43.55 3.6 44.55 2.75 49.85 4.3 54.15 7.9 53.35 9.05 51.7 9.55 L48.15 9.7" fill="#75502d" fill-rule="evenodd" stroke="none"/>
  </g>
  <defs>
    <radialGradient cx="0" cy="0" gradientTransform="matrix(0.0264, 0.0516, -0.0525, 0.0268, 48.05, 26.75)" gradientUnits="userSpaceOnUse" id="gradient0" r="819.2" spreadMethod="pad">
      <stop offset="0.0" stop-color="#bb8543"/>
      <stop offset="0.4235294117647059" stop-color="#a7733f"/>
    </radialGradient>
    <linearGradient gradientTransform="matrix(0.0189, -0.0153, 0.0251, 0.0326, 27.8, 50.75)" gradientUnits="userSpaceOnUse" id="gradient1" spreadMethod="pad" x1="-819.2" x2="819.2">
      <stop offset="0.0" stop-color="#000000" stop-opacity="0.2"/>
      <stop offset="1.0" stop-color="#000000" stop-opacity="0.0"/>
    </linearGradient>
  </defs>
</svg>
