<?xml version="1.0" encoding="UTF-8" standalone="no"?>
<svg xmlns:ffdec="https://www.free-decompiler.com/flash" xmlns:xlink="http://www.w3.org/1999/xlink" ffdec:objectType="shape" height="53.25px" width="133.3px" xmlns="http://www.w3.org/2000/svg">
  <g transform="matrix(1.0, 0.0, 0.0, 1.0, 66.65, 26.6)">
    <path d="M61.45 17.55 Q58.75 23.5 52.15 24.55 L33.4 24.6 -13.25 24.7 Q-22.5 24.7 -33.35 25.1 L-42.45 25.45 Q-45.85 25.75 -52.55 25.6 -62.25 24.5 -63.3 13.9 L-63.3 13.4 -63.35 12.65 -64.65 -0.55 -65.55 -12.3 -65.6 -13.4 Q-65.85 -20.15 -62.9 -22.1 -59.75 -24.2 -53.0 -24.65 -49.15 -24.95 -33.35 -25.1 L-2.95 -25.3 -2.35 -25.3 0.85 -25.35 4.2 -25.4 28.35 -25.6 33.5 -25.5 40.85 -25.15 51.85 -24.0 52.75 -24.0 Q64.05 -22.3 65.45 -13.3 L65.65 -10.9 65.65 -10.65 Q65.65 -8.7 63.2 10.3 L63.0 11.95 62.75 13.45 Q62.25 15.7 61.45 17.55" fill="#ffffff" fill-rule="evenodd" stroke="none"/>
    <path d="M61.45 17.55 Q58.75 23.5 52.15 24.55 L33.4 24.6 -13.25 24.7 Q-22.5 24.7 -33.35 25.1 L-42.45 25.45 Q-45.85 25.75 -52.55 25.6 -62.25 24.5 -63.3 13.9 L-63.3 13.4 -63.35 12.65 -64.65 -0.55 -65.55 -12.3 -65.6 -13.4 Q-65.85 -20.15 -62.9 -22.1 -59.75 -24.2 -53.0 -24.65 -49.15 -24.95 -33.35 -25.1 L-2.95 -25.3 -2.35 -25.3 0.85 -25.35 4.2 -25.4 28.35 -25.6 33.5 -25.5 40.85 -25.15 51.85 -24.0 52.75 -24.0 Q64.05 -22.3 65.45 -13.3 L65.65 -10.9 65.65 -10.65 Q65.65 -8.7 63.2 10.3 L63.0 11.95 62.75 13.45 Q62.25 15.7 61.45 17.55 Z" fill="none" stroke="#000000" stroke-linecap="round" stroke-linejoin="round" stroke-opacity="0.2509804" stroke-width="2.0" vector-effect="non-scaling-stroke"/>
  </g>
</svg>
