<?xml version="1.0" encoding="UTF-8" standalone="no"?>
<svg xmlns:ffdec="https://www.free-decompiler.com/flash" xmlns:xlink="http://www.w3.org/1999/xlink" ffdec:objectType="shape" height="106.95px" width="153.35px" xmlns="http://www.w3.org/2000/svg">
  <g transform="matrix(1.0, 0.0, 0.0, 1.0, 0.0, 0.0)">
    <path d="M0.0 44.0 Q11.2 41.65 17.2 43.75 20.2 44.85 21.3 46.6 16.85 63.2 16.85 72.65 16.85 85.75 23.8 92.85 30.3 99.45 41.4 99.45 47.75 99.45 53.1 95.85 L57.2 96.35 96.25 106.95 142.75 96.0 146.85 92.6 Q150.7 87.65 149.35 79.55 147.25 67.45 142.5 53.1 L138.15 41.15 Q139.5 38.75 146.5 39.0 L153.35 39.65 Q152.6 37.25 150.45 34.15 146.1 27.9 139.0 24.3 131.15 20.45 125.55 19.8 L121.55 19.95 Q120.05 16.2 120.3 12.85 120.55 9.45 122.05 6.75 L123.4 4.75 Q111.7 4.6 104.7 7.85 100.0 10.1 95.5 13.85 L88.9 19.7 77.65 0.0 Q72.8 2.75 67.55 11.35 64.95 15.6 63.35 19.3 54.75 10.6 40.0 9.95 L26.95 10.95 Q34.9 18.3 38.0 24.2 39.5 27.05 39.5 28.4 38.5 27.65 36.05 27.15 L23.45 26.8 Q13.35 27.9 5.6 36.0 1.75 40.15 0.0 44.0" fill="#bd8700" fill-rule="evenodd" stroke="none"/>
  </g>
</svg>
