<?xml version="1.0" encoding="UTF-8" standalone="no"?>
<svg xmlns:ffdec="https://www.free-decompiler.com/flash" xmlns:xlink="http://www.w3.org/1999/xlink" ffdec:objectType="shape" height="131.7px" width="153.0px" xmlns="http://www.w3.org/2000/svg">
  <g transform="matrix(1.0, 0.0, 0.0, 1.0, 74.45, 68.15)">
    <path d="M32.55 -63.55 Q46.85 -59.25 57.7 -49.3 68.5 -39.4 72.9 -25.15 74.5 -19.95 74.9 -15.4 L75.7 -5.6 75.95 2.1 76.25 2.1 77.2 27.45 78.55 63.55 Q57.05 59.65 33.3 63.35 35.3 42.85 35.65 22.35 L-18.2 22.35 Q-18.8 42.2 -18.4 63.35 -36.0 59.9 -55.75 63.15 -53.55 53.05 -52.0 29.55 -50.6 7.35 -51.75 -18.9 L-74.45 -18.9 -74.45 -19.5 Q-74.45 -39.65 -52.55 -53.9 -30.65 -68.15 0.35 -68.15 17.9 -68.15 32.55 -63.55" fill="#000000" fill-rule="evenodd" stroke="none"/>
  </g>
</svg>
