<?xml version="1.0" encoding="UTF-8" standalone="no"?>
<svg xmlns:ffdec="https://www.free-decompiler.com/flash" xmlns:xlink="http://www.w3.org/1999/xlink" ffdec:objectType="shape" height="132.35px" width="180.5px" xmlns="http://www.w3.org/2000/svg">
  <g transform="matrix(1.0, 0.0, 0.0, 1.0, 92.25, 82.45)">
    <path d="M-48.5 26.05 Q-28.4 21.95 0.0 21.95 28.45 21.95 48.5 26.05 68.6 30.15 68.6 35.95 68.6 41.7 48.5 45.8 28.45 49.9 0.0 49.9 -28.4 49.9 -48.5 45.8 -68.6 41.7 -68.6 35.95 -68.6 30.15 -48.5 26.05" fill="#000000" fill-opacity="0.101960786" fill-rule="evenodd" stroke="none"/>
    <path d="M54.4 -54.25 L54.4 -59.9 48.75 -59.9 48.75 -65.5 48.75 -76.8 43.15 -76.8 43.15 -71.15 37.5 -71.15 37.5 -59.9 31.85 -59.9 31.85 -48.6 26.2 -48.6 26.2 -59.9 14.95 -59.9 14.95 -65.5 -35.85 -65.5 -35.85 -59.9 -47.1 -59.9 -47.1 -54.25 -52.75 -54.25 -52.75 -48.6 -58.4 -48.6 -58.4 -31.7 -58.4 -3.45 -64.05 -3.45 -64.05 -26.05 -75.3 -26.05 -75.3 -31.7 -64.05 -31.7 -64.05 -48.6 -58.4 -48.6 -58.4 -54.25 -52.75 -54.25 -52.75 -59.9 -47.1 -59.9 -47.1 -65.5 -35.85 -65.5 -35.85 -71.15 14.95 -71.15 14.95 -65.5 26.2 -65.5 26.2 -59.9 31.85 -59.9 31.85 -71.15 37.5 -71.15 37.5 -76.8 43.15 -76.8 43.15 -82.45 48.75 -82.45 48.75 -76.8 54.4 -76.8 54.4 -59.9 60.05 -59.9 60.05 -54.25 54.4 -54.25 M65.7 -37.3 L54.4 -37.3 54.4 -48.6 60.05 -48.6 60.05 -54.25 65.7 -54.25 65.7 -48.6 82.6 -48.6 82.6 -42.95 65.7 -42.95 65.7 -37.3 M65.7 -9.1 L82.6 -9.1 82.6 -42.95 88.25 -42.95 88.25 -9.1 82.6 -9.1 82.6 -3.45 60.05 -3.45 60.05 2.15 48.75 2.15 48.75 7.8 43.15 7.8 43.15 2.15 48.75 2.15 48.75 -3.45 60.05 -3.45 60.05 -9.1 65.7 -9.1 M77.0 -37.3 L77.0 -20.4 71.35 -20.4 71.35 -37.3 77.0 -37.3 M37.5 7.8 L43.15 7.8 43.15 30.35 37.5 30.35 37.5 36.0 14.95 36.0 14.95 30.35 31.85 30.35 37.5 30.35 37.5 7.8 M9.3 19.1 L14.95 19.1 14.95 30.35 9.3 30.35 9.3 19.1 -13.25 19.1 -13.25 30.35 -18.9 30.35 -18.9 36.0 -41.5 36.0 -41.5 30.35 -47.1 30.35 -47.1 7.8 -52.75 7.8 -52.75 2.15 -58.4 2.15 -58.4 -3.45 -52.75 -3.45 -52.75 2.15 -47.1 2.15 -47.1 7.8 -41.5 7.8 -41.5 30.35 -24.55 30.35 -18.9 30.35 -18.9 19.1 -13.25 19.1 -13.25 13.45 9.3 13.45 9.3 19.1 M-86.6 -59.9 L-86.6 -65.5 -80.95 -65.5 -80.95 -59.9 -86.6 -59.9 -86.6 -48.6 -92.25 -48.6 -92.25 -59.9 -86.6 -59.9 M-86.6 -37.3 L-86.6 -48.6 -80.95 -48.6 -80.95 -37.3 -86.6 -37.3 M-75.3 -48.6 L-69.7 -48.6 -69.7 -37.3 -75.3 -37.3 -75.3 -48.6 -80.95 -48.6 -80.95 -54.25 -75.3 -54.25 -75.3 -48.6 M-80.95 -37.3 L-75.3 -37.3 -75.3 -31.7 -80.95 -31.7 -80.95 -37.3" fill="#000000" fill-rule="evenodd" stroke="none"/>
    <path d="M48.75 -65.5 L43.15 -65.5 43.15 -54.25 37.5 -54.25 37.5 -48.6 43.75 -48.6 43.75 -31.7 43.15 -31.7 43.15 -26.05 48.75 -26.05 48.75 -20.4 60.05 -20.4 60.05 -26.05 65.7 -26.05 65.7 -14.75 48.75 -14.75 48.75 -9.1 20.55 -9.1 20.55 -3.45 -30.2 -3.45 -30.2 -9.1 -41.5 -9.1 -41.5 -14.75 -47.1 -14.75 -47.1 -20.4 -52.75 -20.4 -52.75 -31.7 -58.4 -31.7 -58.4 -48.6 -52.75 -48.6 -52.75 -54.25 -47.1 -54.25 -47.1 -59.9 -35.85 -59.9 -35.85 -65.5 14.95 -65.5 14.95 -59.9 26.2 -59.9 26.2 -48.6 31.85 -48.6 31.85 -59.9 37.5 -59.9 37.5 -71.15 43.15 -71.15 43.15 -76.8 48.75 -76.8 48.75 -65.5 M14.95 -48.6 L9.3 -48.6 9.3 -54.25 3.65 -54.25 3.65 -59.9 -30.2 -59.9 -30.2 -54.25 -41.5 -54.25 -41.5 -48.6 -47.1 -48.6 -47.1 -42.95 -41.5 -42.95 -41.5 -37.3 -35.85 -37.3 -35.85 -31.7 -2.0 -31.7 -2.0 -37.3 9.3 -37.3 9.3 -42.95 14.95 -42.95 14.95 -48.6 M31.85 30.35 L31.85 7.8 37.5 7.8 37.5 30.35 31.85 30.35 M-24.55 30.35 L-24.55 19.1 -18.9 19.1 -18.9 30.35 -24.55 30.35" fill="#f77996" fill-rule="evenodd" stroke="none"/>
    <path d="M43.75 -48.6 L37.5 -48.6 37.5 -54.25 43.15 -54.25 43.15 -65.5 48.75 -65.5 48.75 -59.9 54.4 -59.9 54.4 -54.25 48.75 -54.25 48.75 -48.6 43.75 -48.6 M-58.4 -31.7 L-52.75 -31.7 -52.75 -20.4 -47.1 -20.4 -47.1 -14.75 -41.5 -14.75 -41.5 -9.1 -30.2 -9.1 -30.2 -3.45 20.55 -3.45 20.55 -9.1 48.75 -9.1 48.75 -14.75 65.7 -14.75 65.7 -9.1 60.05 -9.1 60.05 -3.45 48.75 -3.45 48.75 2.15 43.15 2.15 43.15 7.8 37.5 7.8 31.85 7.8 31.85 30.35 14.95 30.35 14.95 19.1 9.3 19.1 9.3 13.45 -13.25 13.45 -13.25 19.1 -18.9 19.1 -24.55 19.1 -24.55 30.35 -41.5 30.35 -41.5 7.8 -47.1 7.8 -47.1 2.15 -52.75 2.15 -52.75 -3.45 -58.4 -3.45 -58.4 -31.7 M65.7 -26.05 L60.05 -26.05 60.05 -20.4 48.75 -20.4 48.75 -26.05 43.15 -26.05 43.15 -31.7 43.75 -31.7 48.75 -31.7 48.75 -26.05 60.05 -26.05 60.05 -31.7 65.7 -31.7 65.7 -26.05" fill="#d96a84" fill-rule="evenodd" stroke="none"/>
    <path d="M43.75 -48.6 L48.75 -48.6 48.75 -54.25 54.4 -54.25 60.05 -54.25 60.05 -48.6 54.4 -48.6 54.4 -37.3 65.7 -37.3 65.7 -31.7 60.05 -31.7 60.05 -26.05 48.75 -26.05 48.75 -31.7 43.75 -31.7 43.75 -48.6" fill="#ffffff" fill-rule="evenodd" stroke="none"/>
    <path d="M65.7 -14.75 L65.7 -26.05 65.7 -31.7 65.7 -37.3 65.7 -42.95 82.6 -42.95 82.6 -9.1 65.7 -9.1 65.7 -14.75 M77.0 -37.3 L71.35 -37.3 71.35 -20.4 77.0 -20.4 77.0 -37.3" fill="#ffa3b8" fill-rule="evenodd" stroke="none"/>
    <path d="M14.95 -48.6 L14.95 -42.95 9.3 -42.95 9.3 -37.3 -2.0 -37.3 -2.0 -31.7 -35.85 -31.7 -35.85 -37.3 -41.5 -37.3 -41.5 -42.95 -47.1 -42.95 -47.1 -48.6 -41.5 -48.6 -41.5 -54.25 -30.2 -54.25 -30.2 -59.9 3.65 -59.9 3.65 -54.25 9.3 -54.25 9.3 -48.6 14.95 -48.6" fill="#ff8ca6" fill-rule="evenodd" stroke="none"/>
  </g>
</svg>
