<?xml version="1.0" encoding="UTF-8" standalone="no"?>
<svg xmlns:ffdec="https://www.free-decompiler.com/flash" xmlns:xlink="http://www.w3.org/1999/xlink" ffdec:objectType="shape" height="84.15px" width="388.0px" xmlns="http://www.w3.org/2000/svg">
  <g transform="matrix(1.0, 0.0, 0.0, 1.0, -12.5, -12.15)">
    <path d="M44.4 32.4 L39.5 45.4 Q38.2 44.65 36.8 44.6 L33.9 44.75 Q32.7 44.95 31.7 45.6 30.6 46.35 30.05 47.1 29.45 47.95 29.15 48.95 28.95 50.0 29.15 51.1 29.35 52.15 30.1 53.05 L31.8 54.25 33.9 54.75 36.2 54.6 37.5 54.2 40.3 53.0 41.5 52.35 49.4 63.3 43.85 66.0 40.9 67.15 38.05 67.95 34.15 68.45 30.3 68.45 Q27.1 68.15 24.3 67.05 21.65 65.95 19.65 64.1 17.7 62.35 16.3 59.8 14.95 57.35 14.2 54.3 L14.1 53.8 Q13.7 51.85 13.6 49.75 13.45 47.75 13.9 45.65 14.6 42.7 16.2 40.35 17.8 38.05 20.2 36.15 22.4 34.45 25.4 33.1 28.4 31.85 31.3 31.2 L34.55 30.8 38.0 30.9 41.4 31.4 44.4 32.4" fill="#ffff00" fill-rule="evenodd" stroke="none"/>
    <path d="M44.4 32.4 L39.5 45.4 Q38.2 44.65 36.8 44.6 L33.9 44.75 Q32.7 44.95 31.7 45.6 30.6 46.35 30.05 47.1 29.45 47.95 29.15 48.95 28.95 50.0 29.15 51.1 29.35 52.15 30.1 53.05 L31.8 54.25 33.9 54.75 36.2 54.6 37.5 54.2 40.3 53.0 41.5 52.35 49.4 63.3 43.85 66.0 40.9 67.15 38.05 67.95 34.15 68.45 30.3 68.45 Q27.1 68.15 24.3 67.05 21.65 65.95 19.65 64.1 17.7 62.35 16.3 59.8 14.95 57.35 14.2 54.3 L14.1 53.8 Q13.7 51.85 13.6 49.75 13.45 47.75 13.9 45.65 14.6 42.7 16.2 40.35 17.8 38.05 20.2 36.15 22.4 34.45 25.4 33.1 28.4 31.85 31.3 31.2 L34.55 30.8 38.0 30.9 41.4 31.4 44.4 32.4 Z" fill="none" stroke="#4d4d4d" stroke-linecap="butt" stroke-linejoin="miter-clip" stroke-miterlimit="4.0" stroke-width="2.0"/>
    <path d="M88.0 57.45 L73.05 60.3 70.5 47.55 63.8 48.65 66.4 60.65 52.45 63.9 44.25 31.75 59.3 28.25 61.9 40.2 68.75 39.0 66.6 27.85 81.75 25.3 88.0 57.45" fill="#ffff00" fill-rule="evenodd" stroke="none"/>
    <path d="M88.0 57.45 L73.05 60.3 70.5 47.55 63.8 48.65 66.4 60.65 52.45 63.9 44.25 31.75 59.3 28.25 61.9 40.2 68.75 39.0 66.6 27.85 81.75 25.3 88.0 57.45 Z" fill="none" stroke="#4d4d4d" stroke-linecap="butt" stroke-linejoin="miter-clip" stroke-miterlimit="4.0" stroke-width="2.0"/>
    <path d="M112.4 18.95 Q119.3 36.0 125.45 52.45 L112.0 54.95 110.35 49.05 102.65 50.0 102.0 55.35 87.55 57.95 Q90.9 41.25 95.15 22.85 L112.4 18.95 M104.85 32.7 L103.85 40.7 107.35 40.1 104.85 32.7" fill="#ffff00" fill-rule="evenodd" stroke="none"/>
    <path d="M112.4 18.95 Q119.3 36.0 125.45 52.45 L112.0 54.95 110.35 49.05 102.65 50.0 102.0 55.35 87.55 57.95 Q90.9 41.25 95.15 22.85 L112.4 18.95 M104.85 32.7 L103.85 40.7 107.35 40.1 104.85 32.7 Z" fill="none" stroke="#4d4d4d" stroke-linecap="butt" stroke-linejoin="miter-clip" stroke-miterlimit="4.0" stroke-width="2.0"/>
    <path d="M151.7 35.1 L151.55 49.8 126.9 52.85 121.6 19.55 135.75 17.8 137.85 37.7 151.7 35.1" fill="#ffff00" fill-rule="evenodd" stroke="none"/>
    <path d="M151.7 35.1 L151.55 49.8 126.9 52.85 121.6 19.55 135.75 17.8 137.85 37.7 151.7 35.1 Z" fill="none" stroke="#4d4d4d" stroke-linecap="butt" stroke-linejoin="miter-clip" stroke-miterlimit="4.0" stroke-width="2.0"/>
    <path d="M179.95 48.4 L155.25 50.6 151.1 17.1 165.25 15.9 166.7 35.85 180.6 33.75 179.95 48.4" fill="#ffff00" fill-rule="evenodd" stroke="none"/>
    <path d="M179.95 48.4 L155.25 50.6 151.1 17.1 165.25 15.9 166.7 35.85 180.6 33.75 179.95 48.4 Z" fill="none" stroke="#4d4d4d" stroke-linecap="butt" stroke-linejoin="miter-clip" stroke-miterlimit="4.0" stroke-width="2.0"/>
    <path d="M203.45 35.05 L194.45 35.85 194.6 38.25 209.65 37.65 209.65 50.25 Q195.55 50.35 183.4 50.75 L180.4 16.4 207.7 13.7 208.45 25.9 193.65 27.2 193.85 29.4 202.8 28.65 203.45 35.05" fill="#ffff00" fill-rule="evenodd" stroke="none"/>
    <path d="M203.45 35.05 L194.45 35.85 194.6 38.25 209.65 37.65 209.65 50.25 Q195.55 50.35 183.4 50.75 L180.4 16.4 207.7 13.7 208.45 25.9 193.65 27.2 193.85 29.4 202.8 28.65 203.45 35.05 Z" fill="none" stroke="#4d4d4d" stroke-linecap="butt" stroke-linejoin="miter-clip" stroke-miterlimit="4.0" stroke-width="2.0"/>
    <path d="M233.55 15.2 L247.85 16.8 242.85 50.05 230.3 49.1 223.35 36.15 223.25 49.25 210.7 49.15 211.05 16.3 224.15 14.2 232.5 29.8 233.55 15.2" fill="#ffff00" fill-rule="evenodd" stroke="none"/>
    <path d="M233.55 15.2 L247.85 16.8 242.85 50.05 230.3 49.1 223.35 36.15 223.25 49.25 210.7 49.15 211.05 16.3 224.15 14.2 232.5 29.8 233.55 15.2 Z" fill="none" stroke="#4d4d4d" stroke-linecap="butt" stroke-linejoin="miter-clip" stroke-miterlimit="4.0" stroke-width="2.0"/>
    <path d="M275.75 16.4 L282.55 17.75 284.1 18.45 280.55 30.4 275.75 28.95 270.75 28.2 267.45 28.45 Q265.75 28.9 264.55 29.75 263.3 30.5 262.4 31.9 261.55 33.3 261.5 34.85 L261.55 36.05 261.8 37.1 Q262.45 39.5 264.25 40.75 266.05 42.05 268.65 42.25 L269.6 42.35 269.75 37.35 266.05 37.3 265.7 31.75 284.0 32.3 283.05 51.6 279.45 52.55 275.35 53.0 271.2 53.1 267.4 52.9 267.3 52.85 261.65 51.95 Q258.8 51.15 256.65 50.05 254.4 48.9 252.4 47.2 250.6 45.6 249.2 43.45 247.95 41.35 247.25 38.8 246.6 36.35 246.75 33.25 247.0 28.75 248.8 25.4 250.7 21.95 253.7 19.85 256.7 17.7 260.9 16.65 264.95 15.7 269.75 15.85 L275.75 16.4" fill="#ffff00" fill-rule="evenodd" stroke="none"/>
    <path d="M275.75 16.4 L282.55 17.75 284.1 18.45 280.55 30.4 275.75 28.95 270.75 28.2 267.45 28.45 Q265.75 28.9 264.55 29.75 263.3 30.5 262.4 31.9 261.55 33.3 261.5 34.85 L261.55 36.05 261.8 37.1 Q262.45 39.5 264.25 40.75 266.05 42.05 268.65 42.25 L269.6 42.35 269.75 37.35 266.05 37.3 265.7 31.75 284.0 32.3 283.05 51.6 279.45 52.55 275.35 53.0 271.2 53.1 267.4 52.9 267.3 52.85 261.65 51.95 Q258.8 51.15 256.65 50.05 254.4 48.9 252.4 47.2 250.6 45.6 249.2 43.45 247.95 41.35 247.25 38.8 246.6 36.35 246.75 33.25 247.0 28.75 248.8 25.4 250.7 21.95 253.7 19.85 256.7 17.7 260.9 16.65 264.95 15.7 269.75 15.85 L275.75 16.4 Z" fill="none" stroke="#4d4d4d" stroke-linecap="butt" stroke-linejoin="miter-clip" stroke-miterlimit="4.0" stroke-width="2.0"/>
    <path d="M298.15 34.6 L307.1 35.0 306.9 41.45 297.9 41.05 297.75 43.5 312.75 44.8 311.15 57.3 285.0 54.45 286.4 20.0 Q298.55 20.15 313.9 20.8 L313.05 33.0 298.2 32.4 298.15 34.6" fill="#ffff00" fill-rule="evenodd" stroke="none"/>
    <path d="M298.15 34.6 L307.1 35.0 306.9 41.45 297.9 41.05 297.75 43.5 312.75 44.8 311.15 57.3 285.0 54.45 286.4 20.0 Q298.55 20.15 313.9 20.8 L313.05 33.0 298.2 32.4 298.15 34.6 Z" fill="none" stroke="#4d4d4d" stroke-linecap="butt" stroke-linejoin="miter-clip" stroke-miterlimit="4.0" stroke-width="2.0"/>
    <path d="M343.4 27.2 L348.35 27.45 Q350.8 27.8 353.15 28.9 355.35 29.9 357.2 31.35 358.95 32.75 360.45 34.65 361.85 36.5 362.65 38.55 363.45 40.55 363.7 42.85 363.95 45.2 363.5 47.35 363.05 49.6 362.0 51.65 360.8 53.75 359.4 55.2 357.95 56.8 356.0 58.05 354.2 59.15 351.9 59.95 L347.4 60.85 342.6 60.6 Q340.1 60.15 338.0 59.2 335.85 58.2 334.05 56.85 332.2 55.4 330.9 53.65 329.55 52.0 328.65 49.9 327.75 47.9 327.45 45.65 327.1 43.4 327.45 41.1 327.85 38.65 328.75 36.8 329.7 34.85 331.2 33.1 332.65 31.4 334.6 30.15 336.35 28.95 338.7 28.15 L343.4 27.2 M342.45 46.6 L343.5 47.9 Q344.15 48.45 345.05 48.6 L346.8 48.45 Q347.55 48.2 348.2 47.6 L349.2 46.25 349.75 44.75 349.75 43.1 349.3 41.55 Q348.9 40.75 348.25 40.25 347.55 39.7 346.65 39.55 L344.9 39.65 343.5 40.5 Q342.85 41.15 342.5 41.85 342.1 42.5 341.95 43.4 341.8 44.15 341.95 45.0 L342.45 46.6" fill="#ffff00" fill-rule="evenodd" stroke="none"/>
    <path d="M343.4 27.2 L348.35 27.45 Q350.8 27.8 353.15 28.9 355.35 29.9 357.2 31.35 358.95 32.75 360.45 34.65 361.85 36.5 362.65 38.55 363.45 40.55 363.7 42.85 363.95 45.2 363.5 47.35 363.05 49.6 362.0 51.65 360.8 53.75 359.4 55.2 357.95 56.8 356.0 58.05 354.2 59.15 351.9 59.95 L347.4 60.85 342.6 60.6 Q340.1 60.15 338.0 59.2 335.85 58.2 334.05 56.85 332.2 55.4 330.9 53.65 329.55 52.0 328.65 49.9 327.75 47.9 327.45 45.65 327.1 43.4 327.45 41.1 327.85 38.65 328.75 36.8 329.7 34.85 331.2 33.1 332.65 31.4 334.6 30.15 336.35 28.95 338.7 28.15 L343.4 27.2 M342.45 46.6 L343.5 47.9 Q344.15 48.45 345.05 48.6 L346.8 48.45 Q347.55 48.2 348.2 47.6 L349.2 46.25 349.75 44.75 349.75 43.1 349.3 41.55 Q348.9 40.75 348.25 40.25 347.55 39.7 346.65 39.55 L344.9 39.65 343.5 40.5 Q342.85 41.15 342.5 41.85 342.1 42.5 341.95 43.4 341.8 44.15 341.95 45.0 L342.45 46.6 Z" fill="none" stroke="#4d4d4d" stroke-linecap="butt" stroke-linejoin="miter-clip" stroke-miterlimit="4.0" stroke-width="2.0"/>
    <path d="M399.3 37.2 L396.1 52.05 378.65 48.0 378.3 50.45 387.2 52.4 385.9 59.55 377.25 57.65 375.75 68.0 362.45 65.5 366.7 32.45 Q382.55 34.45 399.3 37.2" fill="#ffff00" fill-rule="evenodd" stroke="none"/>
    <path d="M399.3 37.2 L396.1 52.05 378.65 48.0 378.3 50.45 387.2 52.4 385.9 59.55 377.25 57.65 375.75 68.0 362.45 65.5 366.7 32.45 Q382.55 34.45 399.3 37.2 Z" fill="none" stroke="#4d4d4d" stroke-linecap="butt" stroke-linejoin="miter-clip" stroke-miterlimit="4.0" stroke-width="2.0"/>
    <path d="M102.9 61.25 L132.8 57.7 134.05 70.35 125.15 70.85 128.65 93.2 115.35 94.65 112.95 71.85 104.7 72.65 102.9 61.25" fill="#ffff00" fill-rule="evenodd" stroke="none"/>
    <path d="M102.9 61.25 L132.8 57.7 134.05 70.35 125.15 70.85 128.65 93.2 115.35 94.65 112.95 71.85 104.7 72.65 102.9 61.25 Z" fill="none" stroke="#4d4d4d" stroke-linecap="butt" stroke-linejoin="miter-clip" stroke-miterlimit="4.0" stroke-width="2.0"/>
    <path d="M171.9 89.65 L157.55 90.9 156.3 77.95 149.9 78.35 151.2 90.5 137.8 92.3 133.0 59.4 147.55 57.55 148.9 69.7 155.5 69.25 154.45 57.9 169.05 57.0 171.9 89.65" fill="#ffff00" fill-rule="evenodd" stroke="none"/>
    <path d="M171.9 89.65 L157.55 90.9 156.3 77.95 149.9 78.35 151.2 90.5 137.8 92.3 133.0 59.4 147.55 57.55 148.9 69.7 155.5 69.25 154.45 57.9 169.05 57.0 171.9 89.65 Z" fill="none" stroke="#4d4d4d" stroke-linecap="butt" stroke-linejoin="miter-clip" stroke-miterlimit="4.0" stroke-width="2.0"/>
    <path d="M197.6 65.9 L183.55 67.4 183.8 69.6 192.25 68.75 192.95 75.15 184.4 76.05 184.6 78.45 198.9 77.65 199.05 90.25 174.1 91.05 170.75 56.75 196.75 53.75 197.6 65.9" fill="#ffff00" fill-rule="evenodd" stroke="none"/>
    <path d="M197.6 65.9 L183.55 67.4 183.8 69.6 192.25 68.75 192.95 75.15 184.4 76.05 184.6 78.45 198.9 77.65 199.05 90.25 174.1 91.05 170.75 56.75 196.75 53.75 197.6 65.9 Z" fill="none" stroke="#4d4d4d" stroke-linecap="butt" stroke-linejoin="miter-clip" stroke-miterlimit="4.0" stroke-width="2.0"/>
    <path d="M245.35 74.55 Q244.65 76.45 243.6 78.05 242.05 80.5 240.0 82.15 237.65 84.1 235.4 85.25 232.9 86.6 230.25 87.5 L224.7 89.0 219.1 89.9 213.75 90.35 211.55 55.75 217.05 55.15 222.6 55.0 229.05 55.6 Q232.15 56.1 235.3 57.35 238.3 58.55 240.7 60.5 243.2 62.55 244.65 65.4 L245.7 67.85 246.2 70.45 246.2 70.75 Q246.05 72.85 245.35 74.55 M225.4 65.6 L226.2 78.25 228.6 77.3 230.7 75.8 232.15 73.8 Q232.65 72.7 232.75 71.3 L232.75 71.2 232.55 70.25 232.2 69.35 Q231.7 68.2 231.05 67.65 L229.45 66.5 Q228.45 66.0 227.5 65.8 L225.4 65.6" fill="#ffff00" fill-rule="evenodd" stroke="none"/>
    <path d="M245.35 74.55 Q244.65 76.45 243.6 78.05 242.05 80.5 240.0 82.15 237.65 84.1 235.4 85.25 232.9 86.6 230.25 87.5 L224.7 89.0 219.1 89.9 213.75 90.35 211.55 55.75 217.05 55.15 222.6 55.0 229.05 55.6 Q232.15 56.1 235.3 57.35 238.3 58.55 240.7 60.5 243.2 62.55 244.65 65.4 L245.7 67.85 246.2 70.45 246.2 70.75 Q246.05 72.85 245.35 74.55 M225.4 65.6 L226.2 78.25 228.6 77.3 230.7 75.8 232.15 73.8 Q232.65 72.7 232.75 71.3 L232.75 71.2 232.55 70.25 232.2 69.35 Q231.7 68.2 231.05 67.65 L229.45 66.5 Q228.45 66.0 227.5 65.8 L225.4 65.6 Z" fill="none" stroke="#4d4d4d" stroke-linecap="butt" stroke-linejoin="miter-clip" stroke-miterlimit="4.0" stroke-width="2.0"/>
    <path d="M258.85 90.65 L244.9 90.4 Q251.95 72.9 258.65 57.45 L275.5 56.95 281.2 92.35 268.2 92.2 267.75 86.1 260.45 85.55 258.85 90.65 M266.7 76.7 L265.8 69.0 263.3 76.65 266.7 76.7" fill="#ffff00" fill-rule="evenodd" stroke="none"/>
    <path d="M258.85 90.65 L244.9 90.4 Q251.95 72.9 258.65 57.45 L275.5 56.95 281.2 92.35 268.2 92.2 267.75 86.1 260.45 85.55 258.85 90.65 M266.7 76.7 L265.8 69.0 263.3 76.65 266.7 76.7 Z" fill="none" stroke="#4d4d4d" stroke-linecap="butt" stroke-linejoin="miter-clip" stroke-miterlimit="4.0" stroke-width="2.0"/>
    <path d="M305.05 83.0 L303.4 95.2 291.7 94.05 293.15 81.15 282.9 64.55 295.05 59.25 300.85 71.75 308.95 61.35 318.9 69.25 305.05 83.0" fill="#ffff00" fill-rule="evenodd" stroke="none"/>
    <path d="M305.05 83.0 L303.4 95.2 291.7 94.05 293.15 81.15 282.9 64.55 295.05 59.25 300.85 71.75 308.95 61.35 318.9 69.25 305.05 83.0 Z" fill="none" stroke="#4d4d4d" stroke-linecap="butt" stroke-linejoin="miter-clip" stroke-miterlimit="4.0" stroke-width="2.0"/>
  </g>
</svg>
