<?xml version="1.0" encoding="UTF-8" standalone="no"?>
<svg xmlns:ffdec="https://www.free-decompiler.com/flash" xmlns:xlink="http://www.w3.org/1999/xlink" ffdec:objectType="shape" height="32.0px" width="117.05px" xmlns="http://www.w3.org/2000/svg">
  <g transform="matrix(1.0, 0.0, 0.0, 1.0, -2.9, -2.35)">
    <path d="M110.8 3.1 Q114.3 3.1 116.75 5.5 119.2 7.9 119.2 11.3 L119.2 25.4 Q119.2 28.8 116.75 31.2 114.3 33.6 110.8 33.6 L12.05 33.6 Q8.6 33.6 6.15 31.2 3.65 28.8 3.65 25.4 L3.65 11.3 Q3.65 7.95 6.15 5.5 8.6 3.1 12.05 3.1 L110.8 3.1" fill="url(#gradient0)" fill-rule="evenodd" stroke="none"/>
    <path d="M110.8 3.1 L12.05 3.1 Q8.6 3.1 6.15 5.5 3.65 7.95 3.65 11.3 L3.65 25.4 Q3.65 28.8 6.15 31.2 8.6 33.6 12.05 33.6 L110.8 33.6 Q114.3 33.6 116.75 31.2 119.2 28.8 119.2 25.4 L119.2 11.3 Q119.2 7.9 116.75 5.5 114.3 3.1 110.8 3.1 Z" fill="none" stroke="#86cbfd" stroke-linecap="butt" stroke-linejoin="miter-clip" stroke-miterlimit="4.0" stroke-width="1.5"/>
    <path d="M110.8 3.1 Q114.3 3.1 116.75 5.5 119.2 7.9 119.2 11.3 L119.2 25.4 Q119.2 28.8 116.75 31.2 114.3 33.6 110.8 33.6 L12.05 33.6 Q8.6 33.6 6.15 31.2 3.65 28.8 3.65 25.4 L3.65 11.3 Q3.65 7.95 6.15 5.5 8.6 3.1 12.05 3.1 L110.8 3.1" fill="url(#gradient1)" fill-rule="evenodd" stroke="none"/>
    <path d="M110.8 3.1 L12.05 3.1 Q8.6 3.1 6.15 5.5 3.65 7.95 3.65 11.3 L3.65 25.4 Q3.65 28.8 6.15 31.2 8.6 33.6 12.05 33.6 L110.8 33.6 Q114.3 33.6 116.75 31.2 119.2 28.8 119.2 25.4 L119.2 11.3 Q119.2 7.9 116.75 5.5 114.3 3.1 110.8 3.1 Z" fill="none" stroke="#86cbfd" stroke-linecap="butt" stroke-linejoin="miter-clip" stroke-miterlimit="4.0" stroke-width="1.5"/>
  </g>
  <defs>
    <linearGradient gradientTransform="matrix(0.0705, 0.0, 0.0, -0.0705, 61.45, 18.35)" gradientUnits="userSpaceOnUse" id="gradient0" spreadMethod="pad" x1="-819.2" x2="819.2">
      <stop offset="0.0" stop-color="#257de2"/>
      <stop offset="0.803921568627451" stop-color="#388ef8"/>
      <stop offset="1.0" stop-color="#257de2"/>
    </linearGradient>
    <linearGradient gradientTransform="matrix(0.0705, 0.0, 0.0, -0.0705, 61.45, 18.35)" gradientUnits="userSpaceOnUse" id="gradient1" spreadMethod="pad" x1="-819.2" x2="819.2">
      <stop offset="0.0" stop-color="#257de2"/>
      <stop offset="0.803921568627451" stop-color="#388ef8"/>
      <stop offset="1.0" stop-color="#257de2"/>
    </linearGradient>
  </defs>
</svg>
