<?xml version="1.0" encoding="UTF-8" standalone="no"?>
<svg xmlns:ffdec="https://www.free-decompiler.com/flash" xmlns:xlink="http://www.w3.org/1999/xlink" ffdec:objectType="shape" height="22.4px" width="50.6px" xmlns="http://www.w3.org/2000/svg">
  <g transform="matrix(1.0, 0.0, 0.0, 1.0, -33.25, -5.1)">
    <path d="M52.65 6.35 L51.4 13.35 48.75 12.8 46.05 12.55 Q45.1 12.55 44.25 12.9 43.35 13.25 42.75 13.75 42.1 14.25 41.7 15.05 41.3 15.85 41.3 16.8 L41.3 16.85 41.55 18.1 Q42.05 19.45 43.05 20.05 44.05 20.75 45.5 20.75 L46.0 20.75 45.9 17.9 43.85 18.0 43.45 14.85 53.3 14.25 53.8 25.35 51.9 26.1 49.65 26.55 45.25 26.9 45.2 26.9 42.05 26.6 39.2 25.7 36.8 24.2 34.9 22.15 Q34.15 20.95 33.7 19.55 33.25 18.15 33.25 16.4 33.25 13.75 34.15 11.8 35.05 9.85 36.6 8.45 38.05 7.2 40.3 6.4 42.3 5.7 44.95 5.55 L50.7 5.8 51.8 6.05 52.65 6.35" fill="#ffffff" fill-rule="evenodd" stroke="none"/>
    <path d="M71.4 9.4 L72.95 11.35 Q73.65 12.45 73.95 13.65 74.3 14.85 74.3 16.25 L73.95 18.8 72.95 21.1 71.4 23.05 69.4 24.55 67.05 25.55 64.45 25.9 61.8 25.55 Q60.45 25.15 59.45 24.55 58.4 24.0 57.45 23.05 L55.9 21.1 54.9 18.8 Q54.55 17.3 54.55 16.25 54.55 15.15 54.9 13.65 L55.9 11.35 Q56.6 10.2 57.45 9.4 L59.45 7.85 Q60.8 7.15 61.8 6.9 L64.45 6.55 67.05 6.9 Q68.2 7.2 69.4 7.85 L71.4 9.4 M66.65 15.3 L66.2 14.45 65.55 13.8 64.65 13.55 63.7 13.8 63.05 14.45 62.65 15.3 62.5 16.2 62.65 17.1 63.05 17.95 63.7 18.6 64.65 18.85 65.55 18.6 66.2 17.95 66.65 17.1 66.75 16.2 66.65 15.3" fill="#ffffff" fill-rule="evenodd" stroke="none"/>
    <path d="M76.45 19.65 L75.2 5.2 83.85 5.1 82.0 19.55 76.45 19.65 M81.6 21.85 L82.35 22.9 82.6 24.2 82.35 25.5 81.6 26.55 80.55 27.25 79.2 27.5 77.9 27.25 76.8 26.55 76.05 25.5 75.8 24.2 76.05 22.9 Q76.35 22.3 76.8 21.85 L77.9 21.15 Q78.5 20.85 79.2 20.85 L80.55 21.15 Q81.1 21.35 81.6 21.85" fill="#ffffff" fill-rule="evenodd" stroke="none"/>
  </g>
</svg>
