<?xml version="1.0" encoding="UTF-8" standalone="no"?>
<svg xmlns:ffdec="https://www.free-decompiler.com/flash" xmlns:xlink="http://www.w3.org/1999/xlink" ffdec:objectType="shape" height="12.7px" width="96.25px" xmlns="http://www.w3.org/2000/svg">
  <g transform="matrix(1.0, 0.0, 0.0, 1.0, -9.6, -5.1)">
    <path d="M34.6 7.55 Q36.25 8.3 36.6 10.2 L36.65 10.75 Q36.65 12.4 34.35 13.45 32.9 14.05 30.5 14.55 L30.75 17.25 28.85 17.4 27.95 7.15 31.15 6.95 Q33.4 6.95 34.6 7.55 M34.75 10.55 Q34.6 8.8 31.35 8.8 L30.0 8.85 30.35 12.65 32.9 12.0 Q34.8 11.3 34.75 10.65 L34.75 10.55" fill="#167007" fill-rule="evenodd" stroke="none"/>
    <path d="M41.3 6.75 Q46.8 6.75 46.8 10.4 46.8 12.45 43.3 13.95 L47.4 15.0 46.95 16.8 40.6 15.2 40.8 17.05 38.9 17.2 37.95 6.95 41.3 6.75 M40.4 13.05 Q44.9 11.55 44.9 10.4 44.9 8.65 41.5 8.65 L40.0 8.7 40.4 13.05" fill="#167007" fill-rule="evenodd" stroke="none"/>
    <path d="M54.7 6.6 L54.75 8.45 50.5 8.65 50.65 11.2 54.85 10.85 55.0 12.75 50.75 13.1 50.85 15.0 51.45 15.0 55.2 14.45 55.55 16.3 53.65 16.7 51.7 16.95 49.1 16.9 48.5 6.9 54.7 6.6" fill="#167007" fill-rule="evenodd" stroke="none"/>
    <path d="M65.1 7.65 Q62.5 13.05 61.45 17.25 L59.7 17.45 Q57.2 13.1 55.8 7.55 L57.7 7.1 Q58.55 10.9 60.3 14.45 61.6 10.4 63.4 6.85 L65.1 7.65" fill="#167007" fill-rule="evenodd" stroke="none"/>
    <path d="M72.05 8.1 L69.75 8.3 70.3 14.7 72.55 14.5 72.7 16.35 67.1 16.85 66.9 15.05 68.4 14.9 67.85 8.45 65.8 8.65 65.6 6.75 71.9 6.25 72.05 8.1" fill="#167007" fill-rule="evenodd" stroke="none"/>
    <path d="M80.2 7.0 Q78.5 7.0 77.15 8.25 75.7 9.55 75.7 11.15 75.7 12.55 76.55 13.55 77.4 14.45 78.85 14.45 80.7 14.45 82.0 13.2 83.4 12.0 83.4 10.3 83.4 8.85 82.5 7.95 81.6 7.0 80.2 7.0 M83.85 6.6 Q85.3 8.05 85.3 10.25 85.3 12.85 83.35 14.55 81.45 16.3 78.75 16.3 76.6 16.3 75.15 14.8 73.8 13.3 73.8 11.15 73.8 8.75 75.75 6.95 77.7 5.1 80.2 5.1 82.45 5.1 83.85 6.6" fill="#167007" fill-rule="evenodd" stroke="none"/>
    <path d="M94.55 7.0 L94.85 8.65 Q95.65 12.3 95.65 14.2 95.65 16.55 94.1 16.95 L90.3 17.3 Q88.1 17.3 87.25 16.55 86.45 15.8 86.45 13.6 86.45 12.35 86.95 8.85 L87.2 7.0 89.15 7.05 88.5 11.65 88.25 14.2 88.45 15.1 90.15 15.4 92.35 15.3 93.6 15.15 93.75 14.25 93.35 10.7 92.65 7.25 94.55 7.0" fill="#167007" fill-rule="evenodd" stroke="none"/>
    <path d="M105.0 6.9 L104.8 8.75 103.75 8.7 Q100.4 8.7 98.65 10.25 L98.2 10.85 98.25 11.0 Q98.5 11.4 99.9 11.4 L102.75 11.5 Q104.45 11.65 105.2 12.4 105.85 13.0 105.85 13.75 105.85 15.6 102.9 16.95 101.55 17.65 99.5 17.8 L99.3 15.95 101.7 15.45 Q103.2 14.9 103.65 14.2 L103.85 13.9 Q103.85 13.45 102.35 13.35 L100.55 13.3 Q96.2 13.3 96.2 11.0 96.2 9.7 97.7 8.55 98.9 7.75 100.5 7.25 L103.65 6.8 105.0 6.9" fill="#167007" fill-rule="evenodd" stroke="none"/>
    <path d="M14.65 11.75 L17.5 15.6 15.95 15.6 13.15 11.75 15.95 7.9 17.5 7.9 14.65 11.75 M13.95 7.9 L11.1 11.75 14.0 15.6 12.45 15.6 9.6 11.75 12.45 7.9 13.95 7.9" fill="#125706" fill-rule="evenodd" stroke="none"/>
  </g>
</svg>
