<?xml version="1.0" encoding="UTF-8" standalone="no"?>
<svg xmlns:ffdec="https://www.free-decompiler.com/flash" xmlns:xlink="http://www.w3.org/1999/xlink" ffdec:objectType="shape" height="23.9px" width="122.0px" xmlns="http://www.w3.org/2000/svg">
  <g transform="matrix(1.0, 0.0, 0.0, 1.0, 0.5, 0.5)">
    <path d="M114.8 0.0 Q117.3 0.05 119.1 1.8 120.9 3.55 120.95 6.0 L120.95 16.9 Q120.9 19.35 119.1 21.1 117.3 22.85 114.8 22.9 L6.2 22.9 Q3.65 22.85 1.85 21.1 0.05 19.35 0.0 16.9 L0.0 6.0 Q0.05 3.55 1.85 1.8 3.65 0.05 6.2 0.0 L114.8 0.0" fill="#f9ff1e" fill-rule="evenodd" stroke="none"/>
    <path d="M119.15 1.8 Q117.3 0.0 114.65 0.0 L6.35 0.0 Q3.7 0.0 1.85 1.8 0.0 3.6 0.0 6.15 L0.0 16.75 Q0.0 19.3 1.85 21.1 3.7 22.9 6.35 22.9 L114.65 22.9 Q117.3 22.9 119.15 21.1 121.0 19.3 121.0 16.75 L121.0 6.15 Q121.0 3.6 119.15 1.8 Z" fill="none" stroke="#195eb3" stroke-linecap="butt" stroke-linejoin="miter-clip" stroke-miterlimit="4.0" stroke-width="1.0"/>
    <path d="M120.25 9.8 L120.25 11.25 Q60.35 17.1 0.4 11.25 L0.4 9.8 Q-0.5 -0.55 11.35 0.75 L23.45 0.75 99.45 0.75 109.3 0.75 Q121.25 -1.15 120.25 9.8" fill="url(#gradient0)" fill-rule="evenodd" stroke="none"/>
  </g>
  <defs>
    <linearGradient gradientTransform="matrix(0.0, 0.0084, -0.0732, 0.0, 60.35, 10.85)" gradientUnits="userSpaceOnUse" id="gradient0" spreadMethod="pad" x1="-819.2" x2="819.2">
      <stop offset="0.0" stop-color="#ffffff" stop-opacity="0.69803923"/>
      <stop offset="0.8470588235294118" stop-color="#ffffff" stop-opacity="0.0"/>
    </linearGradient>
  </defs>
</svg>
