<?xml version="1.0" encoding="UTF-8" standalone="no"?>
<svg xmlns:ffdec="https://www.free-decompiler.com/flash" xmlns:xlink="http://www.w3.org/1999/xlink" ffdec:objectType="shape" height="12.25px" width="54.05px" xmlns="http://www.w3.org/2000/svg">
  <g transform="matrix(1.0, 0.0, 0.0, 1.0, -36.5, -5.1)">
    <path d="M44.5 7.25 Q45.1 11.5 45.15 16.85 L43.35 17.35 40.9 13.85 38.45 10.4 Q38.45 13.4 39.35 16.45 L37.5 16.9 Q36.5 13.2 36.5 8.3 L36.55 6.95 38.65 6.95 40.5 10.1 43.15 13.7 42.6 7.5 44.5 7.25" fill="#167007" fill-rule="evenodd" stroke="none"/>
    <path d="M52.5 6.2 L52.6 8.05 48.35 8.25 48.5 10.8 52.65 10.45 52.8 12.35 48.6 12.7 48.7 14.6 49.25 14.6 53.0 14.05 53.35 15.9 51.45 16.3 49.5 16.55 46.9 16.5 46.3 6.5 52.5 6.2" fill="#167007" fill-rule="evenodd" stroke="none"/>
    <path d="M61.6 16.2 L58.3 11.75 54.75 16.2 53.25 15.1 57.15 10.15 54.25 6.2 55.8 5.1 58.35 8.6 60.7 5.6 62.25 6.75 59.55 10.15 63.15 15.1 61.6 16.2" fill="#167007" fill-rule="evenodd" stroke="none"/>
    <path d="M71.15 6.55 L71.4 8.35 68.15 8.75 68.65 16.75 66.75 16.85 66.25 8.95 63.5 9.3 63.3 7.45 71.15 6.55" fill="#167007" fill-rule="evenodd" stroke="none"/>
    <path d="M90.55 11.75 L87.7 15.6 86.15 15.6 89.05 11.75 86.2 7.9 87.7 7.9 90.55 11.75 M82.65 7.9 L84.2 7.9 87.05 11.75 84.2 15.6 82.65 15.6 85.5 11.75 82.65 7.9" fill="#125706" fill-rule="evenodd" stroke="none"/>
  </g>
</svg>
