<?xml version="1.0" encoding="UTF-8" standalone="no"?>
<svg xmlns:ffdec="https://www.free-decompiler.com/flash" xmlns:xlink="http://www.w3.org/1999/xlink" ffdec:objectType="shape" height="476.45px" width="171.25px" xmlns="http://www.w3.org/2000/svg">
  <g transform="matrix(1.0, 0.0, 0.0, 1.0, 0.75, 0.75)">
    <path d="M169.75 10.8 L169.75 464.15 Q169.75 468.6 166.6 471.8 163.4 474.95 158.95 474.95 L10.75 474.95 Q6.3 474.95 3.15 471.8 0.0 468.6 0.0 464.15 L0.0 10.8 Q0.0 6.35 3.15 3.15 6.3 0.0 10.75 0.0 L158.95 0.0 Q163.4 0.0 166.6 3.15 169.75 6.35 169.75 10.8" fill="url(#gradient0)" fill-rule="evenodd" stroke="none"/>
    <path d="M169.75 10.8 L169.75 11.05 Q96.75 37.1 42.25 27.55 23.9 24.3 9.85 17.35 5.45 15.15 2.05 12.85 L0.0 11.35 0.0 10.8 Q0.0 6.35 3.15 3.15 6.3 0.0 10.75 0.0 L158.95 0.0 Q163.4 0.0 166.6 3.15 169.75 6.35 169.75 10.8" fill="#ffffff" fill-opacity="0.06666667" fill-rule="evenodd" stroke="none"/>
    <path d="M25.7 19.05 L26.25 29.15 20.05 29.15 20.2 18.9 16.5 18.8 16.35 13.65 29.6 13.5 29.65 19.2 25.7 19.05" fill="#f4d22a" fill-rule="evenodd" stroke="none"/>
    <path d="M25.7 19.05 L26.25 29.15 20.05 29.15 20.2 18.9 16.5 18.8 16.35 13.65 29.6 13.5 29.65 19.2 25.7 19.05 Z" fill="none" stroke="#603813" stroke-linecap="butt" stroke-linejoin="miter-clip" stroke-miterlimit="4.0" stroke-width="1.0"/>
    <path d="M39.3 14.05 Q40.4 14.4 41.2 14.85 L42.75 16.0 44.0 17.55 Q44.5 18.3 44.8 19.35 L45.05 21.35 44.8 23.35 44.0 25.15 42.75 26.65 41.2 27.85 39.3 28.6 37.25 28.85 35.15 28.6 33.3 27.85 31.7 26.65 Q30.95 26.0 30.5 25.15 L29.7 23.35 Q29.4 22.4 29.4 21.35 29.4 20.35 29.7 19.35 L30.5 17.55 31.7 16.0 33.3 14.85 Q34.0 14.4 35.15 14.05 L37.25 13.8 39.3 14.05 M38.65 19.95 L38.1 19.45 37.4 19.25 36.65 19.45 36.15 19.95 35.8 20.6 35.7 21.3 35.8 22.05 36.15 22.7 36.65 23.2 37.4 23.4 38.1 23.2 38.65 22.7 38.95 22.05 39.1 21.3 38.95 20.6 38.65 19.95" fill="#f4d22a" fill-rule="evenodd" stroke="none"/>
    <path d="M39.3 14.05 Q40.4 14.4 41.2 14.85 L42.75 16.0 44.0 17.55 Q44.5 18.3 44.8 19.35 L45.05 21.35 44.8 23.35 44.0 25.15 42.75 26.65 41.2 27.85 39.3 28.6 37.25 28.85 35.15 28.6 33.3 27.85 31.7 26.65 Q30.95 26.0 30.5 25.15 L29.7 23.35 Q29.4 22.4 29.4 21.35 29.4 20.35 29.7 19.35 L30.5 17.55 31.7 16.0 33.3 14.85 Q34.0 14.4 35.15 14.05 L37.25 13.8 39.3 14.05 M38.65 19.95 L38.1 19.45 37.4 19.25 36.65 19.45 36.15 19.95 35.8 20.6 35.7 21.3 35.8 22.05 36.15 22.7 36.65 23.2 37.4 23.4 38.1 23.2 38.65 22.7 38.95 22.05 39.1 21.3 38.95 20.6 38.65 19.95 Z" fill="none" stroke="#603813" stroke-linecap="butt" stroke-linejoin="miter-clip" stroke-miterlimit="4.0" stroke-width="1.0"/>
    <path d="M48.9 13.95 L52.35 13.75 53.0 13.75 55.6 14.05 Q56.8 14.35 57.8 14.95 58.75 15.6 59.35 16.65 59.9 17.65 59.9 19.15 L59.75 20.05 59.4 20.95 58.1 22.6 56.25 23.7 54.2 24.3 52.0 24.55 52.3 28.6 46.35 28.95 45.4 14.15 48.9 13.95 M53.35 17.75 L52.65 17.55 51.65 17.5 51.9 21.45 52.85 21.2 53.7 20.8 54.35 20.1 54.6 19.25 54.6 19.2 54.55 18.9 54.4 18.65 53.95 18.1 53.35 17.75" fill="#f4d22a" fill-rule="evenodd" stroke="none"/>
    <path d="M48.9 13.95 L52.35 13.75 53.0 13.75 55.6 14.05 Q56.8 14.35 57.8 14.95 58.75 15.6 59.35 16.65 59.9 17.65 59.9 19.15 L59.75 20.05 59.4 20.95 58.1 22.6 56.25 23.7 54.2 24.3 52.0 24.55 52.3 28.6 46.35 28.95 45.4 14.15 48.9 13.95 M53.35 17.75 L52.65 17.55 51.65 17.5 51.9 21.45 52.85 21.2 53.7 20.8 54.35 20.1 54.6 19.25 54.6 19.2 54.55 18.9 54.4 18.65 53.95 18.1 53.35 17.75 Z" fill="none" stroke="#603813" stroke-linecap="butt" stroke-linejoin="miter-clip" stroke-miterlimit="4.0" stroke-width="1.0"/>
    <path d="M79.3 14.4 L78.25 19.2 76.8 18.65 75.3 18.2 74.15 17.9 73.0 17.75 72.5 17.9 72.3 18.3 72.55 18.75 73.05 19.05 75.65 19.6 77.45 20.15 78.9 21.1 79.9 22.4 Q80.25 23.1 80.25 24.2 L79.95 26.0 Q79.75 26.8 79.2 27.4 L78.05 28.4 76.6 29.05 74.95 29.4 73.15 29.5 71.95 29.4 66.35 28.25 67.5 22.8 70.95 23.65 72.0 23.75 72.55 23.65 72.8 23.15 72.55 22.7 72.0 22.45 71.3 22.3 70.05 22.15 69.35 21.9 68.2 21.3 67.25 20.45 66.6 19.45 66.35 18.2 Q66.35 17.4 66.65 16.65 66.95 15.95 67.45 15.4 L68.55 14.4 69.95 13.7 71.5 13.25 73.05 13.1 74.2 13.25 75.45 13.4 78.15 13.95 79.3 14.4" fill="#f4d22a" fill-rule="evenodd" stroke="none"/>
    <path d="M79.3 14.4 L78.25 19.2 76.8 18.65 75.3 18.2 74.15 17.9 73.0 17.75 72.5 17.9 72.3 18.3 72.55 18.75 73.05 19.05 75.65 19.6 77.45 20.15 78.9 21.1 79.9 22.4 Q80.25 23.1 80.25 24.2 L79.95 26.0 Q79.75 26.8 79.2 27.4 L78.05 28.4 76.6 29.05 74.95 29.4 73.15 29.5 71.95 29.4 66.35 28.25 67.5 22.8 70.95 23.65 72.0 23.75 72.55 23.65 72.8 23.15 72.55 22.7 72.0 22.45 71.3 22.3 70.05 22.15 69.35 21.9 68.2 21.3 67.25 20.45 66.6 19.45 66.35 18.2 Q66.35 17.4 66.65 16.65 66.95 15.95 67.45 15.4 L68.55 14.4 69.95 13.7 71.5 13.25 73.05 13.1 74.2 13.25 75.45 13.4 78.15 13.95 79.3 14.4 Z" fill="none" stroke="#603813" stroke-linecap="butt" stroke-linejoin="miter-clip" stroke-miterlimit="4.0" stroke-width="1.0"/>
    <path d="M95.4 14.6 L92.3 19.9 Q91.85 19.45 91.25 19.3 L90.0 19.1 89.05 19.25 88.2 19.75 87.65 20.5 87.45 21.4 Q87.45 21.95 87.7 22.35 L88.3 23.05 89.15 23.45 90.1 23.6 90.7 23.55 91.95 23.3 92.55 23.1 94.95 28.6 93.7 29.0 91.0 29.55 89.7 29.6 88.0 29.5 86.35 29.1 Q84.95 28.65 83.95 27.9 L82.25 26.15 Q81.65 25.25 81.3 23.95 80.95 22.75 80.95 21.3 L80.95 21.1 81.15 19.25 Q81.35 18.2 81.7 17.55 82.2 16.3 83.15 15.45 83.95 14.65 85.15 14.0 86.45 13.4 87.55 13.2 L90.15 12.9 91.5 13.05 92.9 13.35 94.25 13.9 95.4 14.6" fill="#f4d22a" fill-rule="evenodd" stroke="none"/>
    <path d="M95.4 14.6 L92.3 19.9 Q91.85 19.45 91.25 19.3 L90.0 19.1 89.05 19.25 88.2 19.75 87.65 20.5 87.45 21.4 Q87.45 21.95 87.7 22.35 L88.3 23.05 89.15 23.45 90.1 23.6 90.7 23.55 91.95 23.3 92.55 23.1 94.95 28.6 93.7 29.0 91.0 29.55 89.7 29.6 88.0 29.5 86.35 29.1 Q84.95 28.65 83.95 27.9 L82.25 26.15 Q81.65 25.25 81.3 23.95 80.95 22.75 80.95 21.3 L80.95 21.1 81.15 19.25 Q81.35 18.2 81.7 17.55 82.2 16.3 83.15 15.45 83.95 14.65 85.15 14.0 86.45 13.4 87.55 13.2 L90.15 12.9 91.5 13.05 92.9 13.35 94.25 13.9 95.4 14.6 Z" fill="none" stroke="#603813" stroke-linecap="butt" stroke-linejoin="miter-clip" stroke-miterlimit="4.0" stroke-width="1.0"/>
    <path d="M109.9 21.35 L109.6 23.35 108.8 25.15 107.6 26.65 106.0 27.85 104.1 28.6 102.05 28.85 99.95 28.6 98.1 27.85 96.5 26.65 Q95.85 26.0 95.3 25.15 L94.5 23.35 Q94.25 22.55 94.25 21.35 94.25 20.15 94.5 19.35 L95.3 17.55 96.5 16.0 98.1 14.85 99.95 14.05 102.05 13.8 104.1 14.05 106.0 14.85 Q106.8 15.3 107.6 16.0 L108.8 17.55 Q109.3 18.3 109.6 19.35 L109.9 21.35 M100.65 20.6 L100.5 21.3 100.65 22.05 100.95 22.7 101.5 23.2 102.2 23.4 102.95 23.2 103.45 22.7 103.8 22.05 103.9 21.3 103.8 20.6 103.45 19.95 102.95 19.45 102.2 19.25 101.5 19.45 100.95 19.95 100.65 20.6" fill="#f4d22a" fill-rule="evenodd" stroke="none"/>
    <path d="M109.9 21.35 L109.6 23.35 108.8 25.15 107.6 26.65 106.0 27.85 104.1 28.6 102.05 28.85 99.95 28.6 98.1 27.85 96.5 26.65 Q95.85 26.0 95.3 25.15 L94.5 23.35 Q94.25 22.55 94.25 21.35 94.25 20.15 94.5 19.35 L95.3 17.55 96.5 16.0 98.1 14.85 99.95 14.05 102.05 13.8 104.1 14.05 106.0 14.85 Q106.8 15.3 107.6 16.0 L108.8 17.55 Q109.3 18.3 109.6 19.35 L109.9 21.35 M100.65 20.6 L100.5 21.3 100.65 22.05 100.95 22.7 101.5 23.2 102.2 23.4 102.95 23.2 103.45 22.7 103.8 22.05 103.9 21.3 103.8 20.6 103.45 19.95 102.95 19.45 102.2 19.25 101.5 19.45 100.95 19.95 100.65 20.6 Z" fill="none" stroke="#603813" stroke-linecap="butt" stroke-linejoin="miter-clip" stroke-miterlimit="4.0" stroke-width="1.0"/>
    <path d="M120.75 14.05 L122.3 14.7 Q123.15 15.1 123.6 15.65 L124.5 16.95 124.8 18.7 124.6 20.0 123.95 21.05 123.05 21.95 121.95 22.7 125.5 25.7 121.25 29.4 116.4 24.7 116.65 28.5 111.15 28.95 110.45 13.85 117.3 13.6 119.0 13.7 120.75 14.05 M117.3 17.55 L116.35 17.5 116.05 17.55 116.25 21.1 117.15 20.95 118.1 20.6 118.85 20.05 Q119.2 19.75 119.2 19.25 L119.15 18.95 119.0 18.65 118.6 18.1 118.0 17.75 117.3 17.55" fill="#f4d22a" fill-rule="evenodd" stroke="none"/>
    <path d="M120.75 14.05 L122.3 14.7 Q123.15 15.1 123.6 15.65 L124.5 16.95 124.8 18.7 124.6 20.0 123.95 21.05 123.05 21.95 121.95 22.7 125.5 25.7 121.25 29.4 116.4 24.7 116.65 28.5 111.15 28.95 110.45 13.85 117.3 13.6 119.0 13.7 120.75 14.05 M117.3 17.55 L116.35 17.5 116.05 17.55 116.25 21.1 117.15 20.95 118.1 20.6 118.85 20.05 Q119.2 19.75 119.2 19.25 L119.15 18.95 119.0 18.65 118.6 18.1 118.0 17.75 117.3 17.55 Z" fill="none" stroke="#603813" stroke-linecap="butt" stroke-linejoin="miter-clip" stroke-miterlimit="4.0" stroke-width="1.0"/>
    <path d="M138.15 29.55 L126.6 29.65 125.75 14.2 137.25 13.2 137.55 18.65 131.3 19.2 131.35 20.15 135.15 19.9 135.45 22.75 131.55 23.05 131.6 24.15 138.1 23.9 138.15 29.55" fill="#f4d22a" fill-rule="evenodd" stroke="none"/>
    <path d="M138.15 29.55 L126.6 29.65 125.75 14.2 137.25 13.2 137.55 18.65 131.3 19.2 131.35 20.15 135.15 19.9 135.45 22.75 131.55 23.05 131.6 24.15 138.1 23.9 138.15 29.55 Z" fill="none" stroke="#603813" stroke-linecap="butt" stroke-linejoin="miter-clip" stroke-miterlimit="4.0" stroke-width="1.0"/>
    <path d="M150.5 13.95 L151.65 14.4 150.65 19.2 149.15 18.65 147.65 18.2 146.55 17.9 145.4 17.75 144.9 17.9 144.7 18.3 144.9 18.75 145.45 19.05 148.05 19.6 149.8 20.15 151.25 21.1 152.25 22.4 Q152.6 23.1 152.6 24.2 L152.35 26.0 151.6 27.4 150.45 28.4 148.95 29.05 147.3 29.4 145.5 29.5 144.3 29.4 138.75 28.25 139.9 22.8 143.3 23.65 144.35 23.75 144.9 23.65 145.15 23.15 144.9 22.7 144.35 22.45 143.7 22.3 142.4 22.15 141.7 21.9 140.55 21.3 139.6 20.45 138.95 19.45 138.75 18.2 139.0 16.65 Q139.3 15.95 139.8 15.4 L140.95 14.4 142.35 13.7 143.85 13.25 145.4 13.1 146.55 13.25 147.8 13.4 150.5 13.95" fill="#f4d22a" fill-rule="evenodd" stroke="none"/>
    <path d="M150.5 13.95 L151.65 14.4 150.65 19.2 149.15 18.65 147.65 18.2 146.55 17.9 145.4 17.75 144.9 17.9 144.7 18.3 144.9 18.75 145.45 19.05 148.05 19.6 149.8 20.15 151.25 21.1 152.25 22.4 Q152.6 23.1 152.6 24.2 L152.35 26.0 151.6 27.4 150.45 28.4 148.95 29.05 147.3 29.4 145.5 29.5 144.3 29.4 138.75 28.25 139.9 22.8 143.3 23.65 144.35 23.75 144.9 23.65 145.15 23.15 144.9 22.7 144.35 22.45 143.7 22.3 142.4 22.15 141.7 21.9 140.55 21.3 139.6 20.45 138.95 19.45 138.75 18.2 139.0 16.65 Q139.3 15.95 139.8 15.4 L140.95 14.4 142.35 13.7 143.85 13.25 145.4 13.1 146.55 13.25 147.8 13.4 150.5 13.95 Z" fill="none" stroke="#603813" stroke-linecap="butt" stroke-linejoin="miter-clip" stroke-miterlimit="4.0" stroke-width="1.0"/>
    <path d="M169.75 10.8 L169.75 464.15 Q169.75 468.6 166.6 471.8 163.4 474.95 158.95 474.95 L10.75 474.95 Q6.3 474.95 3.15 471.8 0.0 468.6 0.0 464.15 L0.0 10.8 Q0.0 6.35 3.15 3.15 6.3 0.0 10.75 0.0 L158.95 0.0 Q163.4 0.0 166.6 3.15 169.75 6.35 169.75 10.8 Z" fill="none" stroke="#86cbfd" stroke-linecap="butt" stroke-linejoin="miter-clip" stroke-miterlimit="4.0" stroke-width="1.5"/>
  </g>
  <defs>
    <linearGradient gradientTransform="matrix(0.0, -0.2709, -0.2709, 0.0, 84.85, 237.55)" gradientUnits="userSpaceOnUse" id="gradient0" spreadMethod="pad" x1="-819.2" x2="819.2">
      <stop offset="0.0" stop-color="#257de2"/>
      <stop offset="0.4235294117647059" stop-color="#388ef8"/>
      <stop offset="1.0" stop-color="#257de2"/>
    </linearGradient>
  </defs>
</svg>
