<?xml version="1.0" encoding="UTF-8" standalone="no"?>
<svg xmlns:ffdec="https://www.free-decompiler.com/flash" xmlns:xlink="http://www.w3.org/1999/xlink" ffdec:objectType="shape" height="17.75px" width="66.4px" xmlns="http://www.w3.org/2000/svg">
  <g transform="matrix(1.0, 0.0, 0.0, 1.0, -21.55, 0.3)">
    <path d="M33.0 5.35 L28.9 5.85 29.55 16.2 26.35 16.4 25.75 6.2 22.25 6.6 21.9 3.45 32.6 2.2 33.0 5.35" fill="#ffff00" fill-rule="evenodd" stroke="none"/>
    <path d="M33.0 5.35 L28.9 5.85 29.55 16.2 26.35 16.4 25.75 6.2 22.25 6.6 21.9 3.45 32.6 2.2 33.0 5.35 Z" fill="none" stroke="#0158b8" stroke-linecap="butt" stroke-linejoin="miter-clip" stroke-miterlimit="4.0" stroke-width="0.65"/>
    <path d="M45.55 7.1 Q45.55 5.4 44.55 4.35 43.5 3.2 41.9 3.2 40.0 3.2 38.3 4.75 36.6 6.35 36.6 8.25 36.6 9.95 37.55 11.05 38.55 12.1 40.2 12.1 42.25 12.1 43.95 10.65 45.55 9.2 45.55 7.1 M48.75 7.1 Q48.75 10.55 46.15 12.95 43.65 15.3 40.1 15.3 37.15 15.3 35.3 13.25 33.4 11.2 33.4 8.25 33.4 5.0 36.05 2.5 38.65 0.0 41.9 0.0 44.85 0.0 46.8 2.1 48.75 4.15 48.75 7.1" fill="#ffff00" fill-rule="evenodd" stroke="none"/>
    <path d="M45.55 7.1 Q45.55 5.4 44.55 4.35 43.5 3.2 41.9 3.2 40.0 3.2 38.3 4.75 36.6 6.35 36.6 8.25 36.6 9.95 37.55 11.05 38.55 12.1 40.2 12.1 42.25 12.1 43.95 10.65 45.55 9.2 45.55 7.1 M48.75 7.1 Q48.75 10.55 46.15 12.95 43.65 15.3 40.1 15.3 37.15 15.3 35.3 13.25 33.4 11.2 33.4 8.25 33.4 5.0 36.05 2.5 38.65 0.0 41.9 0.0 44.85 0.0 46.8 2.1 48.75 4.15 48.75 7.1 Z" fill="none" stroke="#0158b8" stroke-linecap="butt" stroke-linejoin="miter-clip" stroke-miterlimit="4.0" stroke-width="0.65"/>
    <path d="M52.65 4.3 L53.25 12.2 53.45 12.2 Q55.35 12.2 56.6 11.6 58.25 10.85 58.25 9.2 58.25 7.25 56.35 5.75 54.6 4.3 52.65 4.3 M58.65 3.5 Q61.45 6.05 61.45 9.2 61.45 12.25 58.85 13.9 56.6 15.4 53.45 15.4 L50.25 15.2 49.1 1.35 52.75 1.05 Q56.0 1.05 58.65 3.5" fill="#ffff00" fill-rule="evenodd" stroke="none"/>
    <path d="M52.65 4.3 L53.25 12.2 53.45 12.2 Q55.35 12.2 56.6 11.6 58.25 10.85 58.25 9.2 58.25 7.25 56.35 5.75 54.6 4.3 52.65 4.3 M58.65 3.5 Q61.45 6.05 61.45 9.2 61.45 12.25 58.85 13.9 56.6 15.4 53.45 15.4 L50.25 15.2 49.1 1.35 52.75 1.05 Q56.0 1.05 58.65 3.5 Z" fill="none" stroke="#0158b8" stroke-linecap="butt" stroke-linejoin="miter-clip" stroke-miterlimit="4.0" stroke-width="0.65"/>
    <path d="M69.55 7.8 L68.45 4.5 67.2 4.8 66.55 8.35 69.55 7.8 M70.65 0.8 L72.9 7.7 Q74.2 11.7 74.75 14.7 L71.6 15.25 70.55 10.9 66.0 11.65 65.35 15.35 62.2 15.1 64.5 2.05 70.65 0.8" fill="#ffff00" fill-rule="evenodd" stroke="none"/>
    <path d="M69.55 7.8 L68.45 4.5 67.2 4.8 66.55 8.35 69.55 7.8 M70.65 0.8 L72.9 7.7 Q74.2 11.7 74.75 14.7 L71.6 15.25 70.55 10.9 66.0 11.65 65.35 15.35 62.2 15.1 64.5 2.05 70.65 0.8 Z" fill="none" stroke="#0158b8" stroke-linecap="butt" stroke-linejoin="miter-clip" stroke-miterlimit="4.0" stroke-width="0.65"/>
    <path d="M87.6 3.9 L83.2 8.0 83.6 17.0 80.4 17.15 80.0 8.05 74.4 4.1 76.25 1.45 81.5 5.2 85.45 1.55 87.6 3.9" fill="#ffff00" fill-rule="evenodd" stroke="none"/>
    <path d="M87.6 3.9 L83.2 8.0 83.6 17.0 80.4 17.15 80.0 8.05 74.4 4.1 76.25 1.45 81.5 5.2 85.45 1.55 87.6 3.9 Z" fill="none" stroke="#0158b8" stroke-linecap="butt" stroke-linejoin="miter-clip" stroke-miterlimit="4.0" stroke-width="0.65"/>
  </g>
</svg>
