<?xml version="1.0" encoding="UTF-8" standalone="no"?>
<svg xmlns:ffdec="https://www.free-decompiler.com/flash" xmlns:xlink="http://www.w3.org/1999/xlink" ffdec:objectType="shape" height="16.75px" width="106.25px" xmlns="http://www.w3.org/2000/svg">
  <g transform="matrix(1.0, 0.0, 0.0, 1.0, 0.3, 0.4)">
    <path d="M11.05 4.3 L7.0 4.8 7.6 15.15 4.4 15.35 3.8 5.15 0.3 5.55 0.0 2.4 10.7 1.15 11.05 4.3" fill="#ffff00" fill-rule="evenodd" stroke="none"/>
    <path d="M11.05 4.3 L7.0 4.8 7.6 15.15 4.4 15.35 3.8 5.15 0.3 5.55 0.0 2.4 10.7 1.15 11.05 4.3 Z" fill="none" stroke="#0158b8" stroke-linecap="butt" stroke-linejoin="miter-clip" stroke-miterlimit="4.0" stroke-width="0.65"/>
    <path d="M23.15 14.7 L19.95 15.0 19.55 10.15 15.2 10.75 15.55 14.75 12.35 15.0 Q11.65 7.6 11.3 1.9 L14.55 1.7 14.95 7.55 19.3 7.0 18.85 1.0 22.05 0.8 23.15 14.7" fill="#ffff00" fill-rule="evenodd" stroke="none"/>
    <path d="M23.15 14.7 L19.95 15.0 19.55 10.15 15.2 10.75 15.55 14.75 12.35 15.0 Q11.65 7.6 11.3 1.9 L14.55 1.7 14.95 7.55 19.3 7.0 18.85 1.0 22.05 0.8 23.15 14.7 Z" fill="none" stroke="#0158b8" stroke-linecap="butt" stroke-linejoin="miter-clip" stroke-miterlimit="4.0" stroke-width="0.65"/>
    <path d="M29.9 3.8 L30.55 11.25 33.35 11.0 33.65 14.2 25.8 14.9 25.5 11.75 27.3 11.55 26.7 4.05 24.1 4.25 23.85 1.05 32.6 0.3 32.85 3.5 29.9 3.8" fill="#ffff00" fill-rule="evenodd" stroke="none"/>
    <path d="M29.9 3.8 L30.55 11.25 33.35 11.0 33.65 14.2 25.8 14.9 25.5 11.75 27.3 11.55 26.7 4.05 24.1 4.25 23.85 1.05 32.6 0.3 32.85 3.5 29.9 3.8 Z" fill="none" stroke="#0158b8" stroke-linecap="butt" stroke-linejoin="miter-clip" stroke-miterlimit="4.0" stroke-width="0.65"/>
    <path d="M45.9 8.3 Q46.85 9.2 46.85 10.35 46.85 13.0 42.9 14.9 40.8 15.85 38.05 16.05 L37.75 12.85 40.9 12.25 Q42.9 11.55 43.5 10.6 43.45 10.25 41.75 10.2 L39.75 10.2 Q33.85 10.2 33.85 6.8 33.85 4.9 35.85 3.4 37.5 2.25 39.55 1.6 L43.65 1.0 45.8 1.1 45.45 4.3 43.7 4.2 Q40.05 4.2 37.6 6.1 L37.15 6.6 39.2 7.0 42.75 7.1 Q44.95 7.4 45.9 8.3" fill="#ffff00" fill-rule="evenodd" stroke="none"/>
    <path d="M45.9 8.3 Q46.85 9.2 46.85 10.35 46.85 13.0 42.9 14.9 40.8 15.85 38.05 16.05 L37.75 12.85 40.9 12.25 Q42.9 11.55 43.5 10.6 43.45 10.25 41.75 10.2 L39.75 10.2 Q33.85 10.2 33.85 6.8 33.85 4.9 35.85 3.4 37.5 2.25 39.55 1.6 L43.65 1.0 45.8 1.1 45.45 4.3 43.7 4.2 Q40.05 4.2 37.6 6.1 L37.15 6.6 39.2 7.0 42.75 7.1 Q44.95 7.4 45.9 8.3 Z" fill="none" stroke="#0158b8" stroke-linecap="butt" stroke-linejoin="miter-clip" stroke-miterlimit="4.0" stroke-width="0.65"/>
    <path d="M71.55 2.15 Q70.65 8.2 67.65 15.75 L64.85 15.7 63.0 11.0 61.0 15.55 58.25 15.35 Q56.05 8.55 53.0 2.95 L55.8 1.45 Q58.0 5.6 59.85 10.3 60.8 8.15 61.0 6.65 L58.75 2.55 61.55 1.0 Q64.4 6.1 66.25 10.4 67.65 6.2 68.45 1.7 L71.55 2.15" fill="#ffff00" fill-rule="evenodd" stroke="none"/>
    <path d="M71.55 2.15 Q70.65 8.2 67.65 15.75 L64.85 15.7 63.0 11.0 61.0 15.55 58.25 15.35 Q56.05 8.55 53.0 2.95 L55.8 1.45 Q58.0 5.6 59.85 10.3 60.8 8.15 61.0 6.65 L58.75 2.55 61.55 1.0 Q64.4 6.1 66.25 10.4 67.65 6.2 68.45 1.7 L71.55 2.15 Z" fill="none" stroke="#0158b8" stroke-linecap="butt" stroke-linejoin="miter-clip" stroke-miterlimit="4.0" stroke-width="0.65"/>
    <path d="M82.15 14.05 L78.95 14.7 75.7 15.05 73.2 14.9 72.35 1.15 81.0 0.75 81.15 3.95 75.75 4.2 75.9 6.7 81.15 6.25 81.4 9.5 76.1 9.95 76.2 11.65 76.55 11.65 81.55 10.85 82.15 14.05" fill="#ffff00" fill-rule="evenodd" stroke="none"/>
    <path d="M82.15 14.05 L78.95 14.7 75.7 15.05 73.2 14.9 72.35 1.15 81.0 0.75 81.15 3.95 75.75 4.2 75.9 6.7 81.15 6.25 81.4 9.5 76.1 9.95 76.2 11.65 76.55 11.65 81.55 10.85 82.15 14.05 Z" fill="none" stroke="#0158b8" stroke-linecap="butt" stroke-linejoin="miter-clip" stroke-miterlimit="4.0" stroke-width="0.65"/>
    <path d="M91.85 9.5 L86.5 9.95 86.6 11.65 86.95 11.65 92.0 10.85 92.6 14.05 89.4 14.7 86.15 15.05 83.65 14.9 82.8 1.15 91.45 0.75 91.6 3.95 86.2 4.2 86.35 6.7 91.6 6.25 91.85 9.5" fill="#ffff00" fill-rule="evenodd" stroke="none"/>
    <path d="M91.85 9.5 L86.5 9.95 86.6 11.65 86.95 11.65 92.0 10.85 92.6 14.05 89.4 14.7 86.15 15.05 83.65 14.9 82.8 1.15 91.45 0.75 91.6 3.95 86.2 4.2 86.35 6.7 91.6 6.25 91.85 9.5 Z" fill="none" stroke="#0158b8" stroke-linecap="butt" stroke-linejoin="miter-clip" stroke-miterlimit="4.0" stroke-width="0.65"/>
    <path d="M104.75 14.8 L96.95 12.7 97.15 15.05 93.95 15.3 92.8 2.05 95.95 1.8 96.45 7.35 101.75 0.0 104.35 1.9 98.6 9.8 105.6 11.75 104.75 14.8" fill="#ffff00" fill-rule="evenodd" stroke="none"/>
    <path d="M104.75 14.8 L96.95 12.7 97.15 15.05 93.95 15.3 92.8 2.05 95.95 1.8 96.45 7.35 101.75 0.0 104.35 1.9 98.6 9.8 105.6 11.75 104.75 14.8 Z" fill="none" stroke="#0158b8" stroke-linecap="butt" stroke-linejoin="miter-clip" stroke-miterlimit="4.0" stroke-width="0.65"/>
  </g>
</svg>
