<?xml version="1.0" encoding="UTF-8" standalone="no"?>
<svg xmlns:ffdec="https://www.free-decompiler.com/flash" xmlns:xlink="http://www.w3.org/1999/xlink" ffdec:objectType="shape" height="17.7px" width="123.2px" xmlns="http://www.w3.org/2000/svg">
  <g transform="matrix(1.0, 0.0, 0.0, 1.0, 8.1, 0.3)">
    <path d="M3.25 5.35 L-0.8 5.85 -0.2 16.2 -3.4 16.4 -4.0 6.2 -7.45 6.6 -7.8 3.45 2.9 2.2 3.25 5.35" fill="#ffff00" fill-rule="evenodd" stroke="none"/>
    <path d="M3.25 5.35 L-0.8 5.85 -0.2 16.2 -3.4 16.4 -4.0 6.2 -7.45 6.6 -7.8 3.45 2.9 2.2 3.25 5.35 Z" fill="none" stroke="#0158b8" stroke-linecap="butt" stroke-linejoin="miter-clip" stroke-miterlimit="4.0" stroke-width="0.65"/>
    <path d="M15.35 15.75 L12.15 16.05 11.75 11.2 7.4 11.8 7.8 15.8 4.6 16.05 Q3.9 9.35 3.5 2.95 L6.75 2.75 7.15 8.6 11.5 8.05 Q11.15 4.55 11.1 2.05 L14.25 1.85 15.35 15.75" fill="#ffff00" fill-rule="evenodd" stroke="none"/>
    <path d="M15.35 15.75 L12.15 16.05 11.75 11.2 7.4 11.8 7.8 15.8 4.6 16.05 Q3.9 9.35 3.5 2.95 L6.75 2.75 7.15 8.6 11.5 8.05 Q11.15 4.55 11.1 2.05 L14.25 1.85 15.35 15.75 Z" fill="none" stroke="#0158b8" stroke-linecap="butt" stroke-linejoin="miter-clip" stroke-miterlimit="4.0" stroke-width="0.65"/>
    <path d="M22.1 4.85 L22.75 12.3 25.55 12.05 25.9 15.25 18.0 15.95 17.7 12.8 19.55 12.6 18.9 5.1 16.3 5.3 16.1 2.1 24.8 1.35 25.05 4.55 22.1 4.85" fill="#ffff00" fill-rule="evenodd" stroke="none"/>
    <path d="M22.1 4.85 L22.75 12.3 25.55 12.05 25.9 15.25 18.0 15.95 17.7 12.8 19.55 12.6 18.9 5.1 16.3 5.3 16.1 2.1 24.8 1.35 25.05 4.55 22.1 4.85 Z" fill="none" stroke="#0158b8" stroke-linecap="butt" stroke-linejoin="miter-clip" stroke-miterlimit="4.0" stroke-width="0.65"/>
    <path d="M38.1 9.35 Q39.05 10.25 39.05 11.4 39.05 14.1 35.1 15.95 33.0 16.9 30.25 17.1 L30.0 13.9 33.1 13.3 Q35.1 12.6 35.7 11.65 35.65 11.35 34.0 11.25 L31.95 11.25 Q26.05 11.25 26.05 7.85 26.05 5.95 28.05 4.45 29.75 3.25 31.8 2.65 L35.85 2.05 38.0 2.15 37.65 5.35 35.9 5.25 Q32.25 5.25 29.8 7.15 L29.35 7.65 Q29.55 7.95 31.4 8.05 L35.0 8.15 Q37.15 8.45 38.1 9.35" fill="#ffff00" fill-rule="evenodd" stroke="none"/>
    <path d="M38.1 9.35 Q39.05 10.25 39.05 11.4 39.05 14.1 35.1 15.95 33.0 16.9 30.25 17.1 L30.0 13.9 33.1 13.3 Q35.1 12.6 35.7 11.65 35.65 11.35 34.0 11.25 L31.95 11.25 Q26.05 11.25 26.05 7.85 26.05 5.95 28.05 4.45 29.75 3.25 31.8 2.65 L35.85 2.05 38.0 2.15 37.65 5.35 35.9 5.25 Q32.25 5.25 29.8 7.15 L29.35 7.65 Q29.55 7.95 31.4 8.05 L35.0 8.15 Q37.15 8.45 38.1 9.35 Z" fill="none" stroke="#0158b8" stroke-linecap="butt" stroke-linejoin="miter-clip" stroke-miterlimit="4.0" stroke-width="0.65"/>
    <path d="M62.7 14.65 L59.85 16.0 Q58.05 12.15 57.15 9.2 L55.1 14.35 52.6 13.85 Q51.1 10.6 50.4 8.3 49.4 11.65 48.95 15.4 L45.8 15.0 Q46.7 8.2 49.2 2.05 L52.1 2.25 Q52.95 5.9 53.9 8.7 54.95 5.3 55.5 1.25 L58.55 1.15 Q59.8 8.35 62.7 14.65" fill="#ffff00" fill-rule="evenodd" stroke="none"/>
    <path d="M62.7 14.65 L59.85 16.0 Q58.05 12.15 57.15 9.2 L55.1 14.35 52.6 13.85 Q51.1 10.6 50.4 8.3 49.4 11.65 48.95 15.4 L45.8 15.0 Q46.7 8.2 49.2 2.05 L52.1 2.25 Q52.95 5.9 53.9 8.7 54.95 5.3 55.5 1.25 L58.55 1.15 Q59.8 8.35 62.7 14.65 Z" fill="none" stroke="#0158b8" stroke-linecap="butt" stroke-linejoin="miter-clip" stroke-miterlimit="4.0" stroke-width="0.65"/>
    <path d="M75.3 7.1 Q75.3 5.5 74.3 4.35 73.25 3.2 71.65 3.2 69.75 3.2 68.05 4.75 66.35 6.3 66.35 8.25 66.35 10.0 67.25 11.05 68.25 12.1 69.95 12.1 71.95 12.1 73.65 10.65 75.3 9.25 75.3 7.1 M78.5 7.1 Q78.5 10.55 75.85 12.95 73.35 15.3 69.85 15.3 66.9 15.3 65.05 13.25 63.15 11.2 63.15 8.25 63.15 5.0 65.8 2.5 68.4 0.0 71.65 0.0 74.6 0.0 76.55 2.1 78.5 4.15 78.5 7.1" fill="#ffff00" fill-rule="evenodd" stroke="none"/>
    <path d="M75.3 7.1 Q75.3 5.5 74.3 4.35 73.25 3.2 71.65 3.2 69.75 3.2 68.05 4.75 66.35 6.3 66.35 8.25 66.35 10.0 67.25 11.05 68.25 12.1 69.95 12.1 71.95 12.1 73.65 10.65 75.3 9.25 75.3 7.1 M78.5 7.1 Q78.5 10.55 75.85 12.95 73.35 15.3 69.85 15.3 66.9 15.3 65.05 13.25 63.15 11.2 63.15 8.25 63.15 5.0 65.8 2.5 68.4 0.0 71.65 0.0 74.6 0.0 76.55 2.1 78.5 4.15 78.5 7.1 Z" fill="none" stroke="#0158b8" stroke-linecap="butt" stroke-linejoin="miter-clip" stroke-miterlimit="4.0" stroke-width="0.65"/>
    <path d="M90.0 3.05 Q90.8 8.65 90.85 16.25 L88.05 17.0 85.25 12.95 82.45 9.0 Q82.65 11.95 83.6 15.7 L80.5 16.5 Q79.2 11.6 79.2 4.5 L79.2 2.75 82.5 2.7 84.9 6.95 87.5 10.55 86.85 3.45 90.0 3.05" fill="#ffff00" fill-rule="evenodd" stroke="none"/>
    <path d="M90.0 3.05 Q90.8 8.65 90.85 16.25 L88.05 17.0 85.25 12.95 82.45 9.0 Q82.65 11.95 83.6 15.7 L80.5 16.5 Q79.2 11.6 79.2 4.5 L79.2 2.75 82.5 2.7 84.9 6.95 87.5 10.55 86.85 3.45 90.0 3.05 Z" fill="none" stroke="#0158b8" stroke-linecap="butt" stroke-linejoin="miter-clip" stroke-miterlimit="4.0" stroke-width="0.65"/>
    <path d="M102.75 5.35 L98.65 5.85 99.3 16.2 96.05 16.4 95.45 6.2 92.0 6.6 91.65 3.45 102.35 2.2 102.75 5.35" fill="#ffff00" fill-rule="evenodd" stroke="none"/>
    <path d="M102.75 5.35 L98.65 5.85 99.3 16.2 96.05 16.4 95.45 6.2 92.0 6.6 91.65 3.45 102.35 2.2 102.75 5.35 Z" fill="none" stroke="#0158b8" stroke-linecap="butt" stroke-linejoin="miter-clip" stroke-miterlimit="4.0" stroke-width="0.65"/>
    <path d="M114.8 15.75 L111.6 16.05 111.2 11.2 106.85 11.8 107.25 15.8 104.05 16.05 Q103.3 8.7 103.0 2.95 L106.2 2.75 106.6 8.6 110.95 8.05 110.55 2.05 113.7 1.85 114.8 15.75" fill="#ffff00" fill-rule="evenodd" stroke="none"/>
    <path d="M114.8 15.75 L111.6 16.05 111.2 11.2 106.85 11.8 107.25 15.8 104.05 16.05 Q103.3 8.7 103.0 2.95 L106.2 2.75 106.6 8.6 110.95 8.05 110.55 2.05 113.7 1.85 114.8 15.75 Z" fill="none" stroke="#0158b8" stroke-linecap="butt" stroke-linejoin="miter-clip" stroke-miterlimit="4.0" stroke-width="0.65"/>
  </g>
</svg>
