<?xml version="1.0" encoding="UTF-8" standalone="no"?>
<svg xmlns:ffdec="https://www.free-decompiler.com/flash" xmlns:xlink="http://www.w3.org/1999/xlink" ffdec:objectType="shape" height="17.05px" width="104.15px" xmlns="http://www.w3.org/2000/svg">
  <g transform="matrix(1.0, 0.0, 0.0, 1.0, -1.2, 0.4)">
    <path d="M12.65 4.55 L8.55 5.05 9.15 15.4 5.95 15.6 5.35 5.4 1.9 5.8 1.55 2.65 12.25 1.4 12.65 4.55" fill="#ffff00" fill-rule="evenodd" stroke="none"/>
    <path d="M12.65 4.55 L8.55 5.05 9.15 15.4 5.95 15.6 5.35 5.4 1.9 5.8 1.55 2.65 12.25 1.4 12.65 4.55 Z" fill="none" stroke="#0158b8" stroke-linecap="butt" stroke-linejoin="miter-clip" stroke-miterlimit="4.0" stroke-width="0.65"/>
    <path d="M24.7 14.95 L21.5 15.25 21.1 10.4 16.75 11.0 17.15 15.0 13.95 15.25 Q13.2 7.9 12.9 2.15 L16.1 1.95 16.5 7.8 20.85 7.25 20.45 1.25 23.6 1.05 24.7 14.95" fill="#ffff00" fill-rule="evenodd" stroke="none"/>
    <path d="M24.7 14.95 L21.5 15.25 21.1 10.4 16.75 11.0 17.15 15.0 13.95 15.25 Q13.2 7.9 12.9 2.15 L16.1 1.95 16.5 7.8 20.85 7.25 20.45 1.25 23.6 1.05 24.7 14.95 Z" fill="none" stroke="#0158b8" stroke-linecap="butt" stroke-linejoin="miter-clip" stroke-miterlimit="4.0" stroke-width="0.65"/>
    <path d="M31.45 4.05 L32.1 11.5 34.9 11.25 35.25 14.45 27.35 15.15 27.05 12.0 28.9 11.8 28.25 4.3 25.65 4.5 25.45 1.3 34.15 0.55 34.4 3.75 31.45 4.05" fill="#ffff00" fill-rule="evenodd" stroke="none"/>
    <path d="M31.45 4.05 L32.1 11.5 34.9 11.25 35.25 14.45 27.35 15.15 27.05 12.0 28.9 11.8 28.25 4.3 25.65 4.5 25.45 1.3 34.15 0.55 34.4 3.75 31.45 4.05 Z" fill="none" stroke="#0158b8" stroke-linecap="butt" stroke-linejoin="miter-clip" stroke-miterlimit="4.0" stroke-width="0.65"/>
    <path d="M47.5 8.55 Q48.4 9.45 48.4 10.6 48.4 13.3 44.45 15.15 42.35 16.1 39.65 16.3 L39.35 13.1 42.45 12.5 Q44.45 11.8 45.05 10.85 45.0 10.55 43.35 10.45 L41.3 10.45 Q35.4 10.45 35.4 7.05 35.4 5.2 37.4 3.65 39.1 2.45 41.15 1.85 L45.2 1.25 47.35 1.35 47.0 4.55 45.25 4.45 Q41.6 4.45 39.15 6.35 L38.75 6.85 Q38.9 7.15 40.75 7.25 L44.35 7.35 Q46.55 7.65 47.5 8.55" fill="#ffff00" fill-rule="evenodd" stroke="none"/>
    <path d="M47.5 8.55 Q48.4 9.45 48.4 10.6 48.4 13.3 44.45 15.15 42.35 16.1 39.65 16.3 L39.35 13.1 42.45 12.5 Q44.45 11.8 45.05 10.85 45.0 10.55 43.35 10.45 L41.3 10.45 Q35.4 10.45 35.4 7.05 35.4 5.2 37.4 3.65 39.1 2.45 41.15 1.85 L45.2 1.25 47.35 1.35 47.0 4.55 45.25 4.45 Q41.6 4.45 39.15 6.35 L38.75 6.85 Q38.9 7.15 40.75 7.25 L44.35 7.35 Q46.55 7.65 47.5 8.55 Z" fill="none" stroke="#0158b8" stroke-linecap="butt" stroke-linejoin="miter-clip" stroke-miterlimit="4.0" stroke-width="0.65"/>
    <path d="M63.9 16.2 L60.65 16.35 60.25 7.25 54.65 3.3 56.5 0.65 61.75 4.4 65.7 0.75 67.9 3.1 63.45 7.2 63.9 16.2" fill="#ffff00" fill-rule="evenodd" stroke="none"/>
    <path d="M63.9 16.2 L60.65 16.35 60.25 7.25 54.65 3.3 56.5 0.65 61.75 4.4 65.7 0.75 67.9 3.1 63.45 7.2 63.9 16.2 Z" fill="none" stroke="#0158b8" stroke-linecap="butt" stroke-linejoin="miter-clip" stroke-miterlimit="4.0" stroke-width="0.65"/>
    <path d="M77.2 9.75 L71.85 10.2 71.95 11.9 72.3 11.9 77.35 11.1 77.95 14.3 74.75 14.95 71.5 15.3 69.0 15.15 68.15 1.4 76.75 1.0 76.9 4.2 71.55 4.45 71.7 6.95 76.95 6.5 77.2 9.75" fill="#ffff00" fill-rule="evenodd" stroke="none"/>
    <path d="M77.2 9.75 L71.85 10.2 71.95 11.9 72.3 11.9 77.35 11.1 77.95 14.3 74.75 14.95 71.5 15.3 69.0 15.15 68.15 1.4 76.75 1.0 76.9 4.2 71.55 4.45 71.7 6.95 76.95 6.5 77.2 9.75 Z" fill="none" stroke="#0158b8" stroke-linecap="butt" stroke-linejoin="miter-clip" stroke-miterlimit="4.0" stroke-width="0.65"/>
    <path d="M86.1 7.0 L85.0 3.7 83.7 4.0 83.1 7.55 86.1 7.0 M89.45 6.9 Q90.9 11.55 91.25 13.9 L88.1 14.45 87.05 10.1 82.55 10.85 81.9 14.55 78.7 14.3 79.8 7.75 81.05 1.25 87.15 0.0 89.45 6.9" fill="#ffff00" fill-rule="evenodd" stroke="none"/>
    <path d="M86.1 7.0 L85.0 3.7 83.7 4.0 83.1 7.55 86.1 7.0 M89.45 6.9 Q90.9 11.55 91.25 13.9 L88.1 14.45 87.05 10.1 82.55 10.85 81.9 14.55 78.7 14.3 79.8 7.75 81.05 1.25 87.15 0.0 89.45 6.9 Z" fill="none" stroke="#0158b8" stroke-linecap="butt" stroke-linejoin="miter-clip" stroke-miterlimit="4.0" stroke-width="0.65"/>
    <path d="M104.2 15.1 L96.35 13.05 96.55 15.25 93.35 15.55 92.1 1.55 96.65 1.25 Q104.1 1.25 104.1 6.3 104.1 9.0 100.45 10.8 L105.0 12.0 104.2 15.1 M97.15 4.4 L95.55 4.45 96.0 9.2 Q100.9 7.5 100.9 6.3 100.9 4.4 97.15 4.4" fill="#ffff00" fill-rule="evenodd" stroke="none"/>
    <path d="M104.2 15.1 L96.35 13.05 96.55 15.25 93.35 15.55 92.1 1.55 96.65 1.25 Q104.1 1.25 104.1 6.3 104.1 9.0 100.45 10.8 L105.0 12.0 104.2 15.1 M97.15 4.4 L95.55 4.45 96.0 9.2 Q100.9 7.5 100.9 6.3 100.9 4.4 97.15 4.4 Z" fill="none" stroke="#0158b8" stroke-linecap="butt" stroke-linejoin="miter-clip" stroke-miterlimit="4.0" stroke-width="0.65"/>
  </g>
</svg>
