<?xml version="1.0" encoding="UTF-8" standalone="no"?>
<svg xmlns:ffdec="https://www.free-decompiler.com/flash" xmlns:xlink="http://www.w3.org/1999/xlink" ffdec:objectType="shape" height="472.65px" width="736.85px" xmlns="http://www.w3.org/2000/svg">
  <g transform="matrix(1.0, 0.0, 0.0, 1.0, 1.5, 1.5)">
    <path d="M733.85 0.0 L733.85 469.65 5.85 469.65 0.0 463.8 0.0 5.9 5.85 0.0 733.85 0.0" fill="url(#gradient0)" fill-rule="evenodd" stroke="none"/>
    <path d="M733.85 0.0 L733.85 469.65 5.85 469.65 0.0 463.8 0.0 5.9 5.85 0.0 733.85 0.0" fill="url(#gradient1)" fill-rule="evenodd" stroke="none"/>
    <path d="M733.85 0.0 L5.85 0.0 0.0 5.9 0.0 463.8 5.85 469.65 733.85 469.65 733.85 0.0 Z" fill="none" stroke="#0000ff" stroke-linecap="butt" stroke-linejoin="miter-clip" stroke-miterlimit="10.0" stroke-width="3.0"/>
    <path d="M733.85 0.0 L5.85 0.0 0.0 5.9 0.0 463.8 5.85 469.65 733.85 469.65 733.85 0.0 Z" fill="none" stroke="#0000ff" stroke-linecap="butt" stroke-linejoin="miter-clip" stroke-miterlimit="10.0" stroke-width="3.0"/>
  </g>
  <defs>
    <linearGradient gradientTransform="matrix(0.4479, 0.0, 0.0, -0.4479, 366.9, 234.8)" gradientUnits="userSpaceOnUse" id="gradient0" spreadMethod="pad" x1="-819.2" x2="819.2">
      <stop offset="0.0" stop-color="#257de2"/>
      <stop offset="0.08627450980392157" stop-color="#ffffff"/>
      <stop offset="0.09019607843137255" stop-color="#ffffff"/>
      <stop offset="0.5294117647058824" stop-color="#ffffff"/>
      <stop offset="0.9215686274509803" stop-color="#ffffff"/>
      <stop offset="1.0" stop-color="#257de2"/>
    </linearGradient>
    <linearGradient gradientTransform="matrix(0.4479, 0.0, 0.0, -0.4479, 366.9, 234.8)" gradientUnits="userSpaceOnUse" id="gradient1" spreadMethod="pad" x1="-819.2" x2="819.2">
      <stop offset="0.0" stop-color="#257de2"/>
      <stop offset="0.08627450980392157" stop-color="#ffffff"/>
      <stop offset="0.09019607843137255" stop-color="#ffffff"/>
      <stop offset="0.5294117647058824" stop-color="#ffffff"/>
      <stop offset="0.9215686274509803" stop-color="#ffffff"/>
      <stop offset="1.0" stop-color="#257de2"/>
    </linearGradient>
  </defs>
</svg>
