<?xml version="1.0" encoding="UTF-8" standalone="no"?>
<svg xmlns:ffdec="https://www.free-decompiler.com/flash" xmlns:xlink="http://www.w3.org/1999/xlink" ffdec:objectType="shape" height="413.35px" width="166.25px" xmlns="http://www.w3.org/2000/svg">
  <g transform="matrix(1.0, 0.0, 0.0, 1.0, 0.75, 0.75)">
    <path d="M162.75 12.75 L162.75 398.1 Q162.75 402.55 159.6 405.7 156.4 408.85 151.95 408.85 L12.75 408.85 Q8.3 408.85 5.15 405.7 2.0 402.55 2.0 398.1 L2.0 12.75 Q2.0 8.3 5.15 5.15 8.3 2.0 12.75 2.0 L151.95 2.0 Q156.4 2.0 159.6 5.15 162.75 8.3 162.75 12.75" fill="url(#gradient0)" fill-rule="evenodd" stroke="none"/>
    <path d="M162.75 12.75 L162.75 398.1 Q162.75 402.55 159.6 405.7 156.4 408.85 151.95 408.85 L12.75 408.85 Q8.3 408.85 5.15 405.7 2.0 402.55 2.0 398.1 L2.0 12.75 Q2.0 8.3 5.15 5.15 8.3 2.0 12.75 2.0 L151.95 2.0 Q156.4 2.0 159.6 5.15 162.75 8.3 162.75 12.75 Z" fill="none" stroke="#86cbfd" stroke-linecap="butt" stroke-linejoin="miter-clip" stroke-miterlimit="4.0" stroke-width="1.5"/>
    <path d="M161.6 3.15 Q164.75 6.3 164.75 10.75 L164.75 401.1 Q164.75 405.55 161.6 408.7 158.4 411.85 153.95 411.85 L10.75 411.85 Q6.35 411.85 3.15 408.2 0.0 404.65 0.0 400.1 L0.0 10.75 Q0.0 6.3 3.15 3.15 6.3 0.0 10.75 0.0 L153.95 0.0 Q158.4 0.0 161.6 3.15 Z" fill="none" stroke="#015377" stroke-linecap="butt" stroke-linejoin="miter-clip" stroke-miterlimit="4.0" stroke-width="1.5"/>
    <path d="M163.05 12.75 L163.05 398.1 Q163.05 402.55 159.9 405.7 156.75 408.85 152.3 408.85 L13.1 408.85 Q8.65 408.85 5.45 405.7 2.3 402.55 2.3 398.1 L2.3 12.75 Q2.3 8.3 5.45 5.15 8.65 2.0 13.1 2.0 L152.3 2.0 Q156.75 2.0 159.9 5.15 163.05 8.3 163.05 12.75" fill="url(#gradient1)" fill-rule="evenodd" stroke="none"/>
    <path d="M163.05 12.75 L163.05 398.1 Q163.05 402.55 159.9 405.7 156.75 408.85 152.3 408.85 L13.1 408.85 Q8.65 408.85 5.45 405.7 2.3 402.55 2.3 398.1 L2.3 12.75 Q2.3 8.3 5.45 5.15 8.65 2.0 13.1 2.0 L152.3 2.0 Q156.75 2.0 159.9 5.15 163.05 8.3 163.05 12.75 Z" fill="none" stroke="#86cbfd" stroke-linecap="butt" stroke-linejoin="miter-clip" stroke-miterlimit="4.0" stroke-width="1.5"/>
  </g>
  <defs>
    <linearGradient gradientTransform="matrix(0.0, -0.2321, -0.2321, 0.0, 82.35, 205.45)" gradientUnits="userSpaceOnUse" id="gradient0" spreadMethod="pad" x1="-819.2" x2="819.2">
      <stop offset="0.0" stop-color="#257de2"/>
      <stop offset="0.4235294117647059" stop-color="#388ef8"/>
      <stop offset="1.0" stop-color="#257de2"/>
    </linearGradient>
    <linearGradient gradientTransform="matrix(0.0, -0.2321, -0.2321, 0.0, 82.7, 205.45)" gradientUnits="userSpaceOnUse" id="gradient1" spreadMethod="pad" x1="-819.2" x2="819.2">
      <stop offset="0.0" stop-color="#257de2"/>
      <stop offset="0.4235294117647059" stop-color="#388ef8"/>
      <stop offset="1.0" stop-color="#257de2"/>
    </linearGradient>
  </defs>
</svg>
