<?xml version="1.0" encoding="UTF-8" standalone="no"?>
<svg xmlns:ffdec="https://www.free-decompiler.com/flash" xmlns:xlink="http://www.w3.org/1999/xlink" ffdec:objectType="shape" height="408.4px" width="485.25px" xmlns="http://www.w3.org/2000/svg">
  <g transform="matrix(1.0, 0.0, 0.0, 1.0, -0.25, -0.25)">
    <path d="M484.75 11.75 L484.75 397.15 Q484.75 401.6 481.6 404.75 478.45 407.9 474.0 407.9 L11.8 407.9 Q7.35 407.9 4.15 404.75 1.0 401.6 1.0 397.15 L1.0 11.75 Q1.0 7.3 4.15 4.15 7.35 1.0 11.8 1.0 L474.0 1.0 Q478.45 1.0 481.6 4.15 484.75 7.3 484.75 11.75" fill="#61befc" fill-rule="evenodd" stroke="none"/>
    <path d="M484.75 11.75 L484.75 397.15 Q484.75 401.6 481.6 404.75 478.45 407.9 474.0 407.9 L11.8 407.9 Q7.35 407.9 4.15 404.75 1.0 401.6 1.0 397.15 L1.0 11.75 Q1.0 7.3 4.15 4.15 7.35 1.0 11.8 1.0 L474.0 1.0 Q478.45 1.0 481.6 4.15 484.75 7.3 484.75 11.75 Z" fill="none" stroke="#86cbfd" stroke-linecap="butt" stroke-linejoin="miter-clip" stroke-miterlimit="4.0" stroke-width="1.5"/>
  </g>
</svg>
