<?xml version="1.0" encoding="UTF-8" standalone="no"?>
<svg xmlns:ffdec="https://www.free-decompiler.com/flash" xmlns:xlink="http://www.w3.org/1999/xlink" ffdec:objectType="shape" height="70.3px" width="74.55px" xmlns="http://www.w3.org/2000/svg">
  <g transform="matrix(1.0, 0.0, 0.0, 1.0, 36.55, 46.1)">
    <path d="M31.55 -16.9 Q36.9 -5.55 37.9 6.8 17.0 23.0 -4.2 24.0 -19.4 24.85 -34.45 18.15 L-35.6 10.5 Q-36.95 1.45 -36.1 -6.9 -35.45 -15.75 -32.25 -23.75 -27.4 -36.1 -19.05 -41.65 -16.7 -34.95 -10.55 -31.8 -1.7 -36.45 3.65 -44.8 9.15 -42.65 12.85 -40.15 L15.0 -38.45 Q15.35 -38.3 15.7 -37.95 L17.85 -36.1 Q26.2 -28.45 31.55 -16.9" fill="#ffffff" fill-rule="evenodd" stroke="none"/>
    <path d="M31.55 -16.9 Q36.9 -5.55 37.9 6.8 17.0 23.0 -4.2 24.0 -19.4 24.85 -34.45 18.15 L-35.6 10.5 Q-36.95 1.45 -36.1 -6.9 -35.45 -15.75 -32.25 -23.75 -27.4 -36.1 -19.05 -41.65 -16.7 -34.95 -10.55 -31.8 -1.7 -36.45 3.65 -44.8 9.15 -42.65 12.85 -40.15 L15.0 -38.45 Q15.35 -38.3 15.7 -37.95 L17.85 -36.1 Q26.2 -28.45 31.55 -16.9 Z" fill="none" stroke="#000000" stroke-linecap="round" stroke-linejoin="round" stroke-opacity="0.2" stroke-width="0.2"/>
    <path d="M-10.05 -31.45 Q-10.55 -18.45 -8.55 -4.9 -6.55 9.65 -2.65 23.7" fill="none" stroke="#cccccc" stroke-linecap="round" stroke-linejoin="round" stroke-width="0.2"/>
    <path d="M-12.2 -25.8 Q-12.55 -25.3 -13.05 -25.3 -13.55 -25.3 -13.85 -25.8 -14.2 -26.15 -14.2 -26.7 L-13.85 -27.6 Q-13.55 -27.95 -13.05 -27.95 -12.55 -27.95 -12.2 -27.6 -11.7 -27.2 -11.7 -26.7 -11.7 -26.15 -12.2 -25.8" fill="#999999" fill-rule="evenodd" stroke="none"/>
    <path d="M-11.35 -10.25 Q-11.7 -9.75 -12.2 -9.75 -12.7 -9.75 -13.0 -10.25 -13.35 -10.6 -13.35 -11.15 L-13.0 -12.05 Q-12.7 -12.4 -12.2 -12.4 L-11.35 -12.05 Q-10.85 -11.65 -10.85 -11.15 -10.85 -10.6 -11.35 -10.25" fill="#999999" fill-rule="evenodd" stroke="none"/>
    <path d="M-9.05 5.25 L-9.9 5.75 -10.7 5.25 Q-11.05 4.9 -11.05 4.35 -11.05 3.85 -10.7 3.45 -10.4 3.1 -9.9 3.1 -9.4 3.1 -9.05 3.45 -8.55 3.85 -8.55 4.35 -8.55 4.9 -9.05 5.25" fill="#999999" fill-rule="evenodd" stroke="none"/>
    <path d="M-6.05 20.8 L-6.9 21.3 -7.7 20.8 Q-8.05 20.45 -8.05 19.9 -8.05 19.4 -7.7 19.0 -7.4 18.65 -6.9 18.65 -6.4 18.65 -6.05 19.0 -5.55 19.4 -5.55 19.9 -5.55 20.45 -6.05 20.8" fill="#999999" fill-rule="evenodd" stroke="none"/>
    <path d="M10.35 -25.95 Q10.0 -7.05 18.5 18.5 13.0 21.35 9.0 21.85 4.85 8.8 2.3 -4.55 L-20.4 -1.7 Q-18.05 11.8 -14.4 23.85 -16.55 24.0 -21.55 22.7 L-21.75 22.5 Q-29.75 -4.2 -28.9 -23.25 -28.75 -26.45 -27.6 -33.6 -22.4 -40.3 -19.05 -42.45 -21.9 -34.45 -22.25 -23.95 -22.4 -19.9 -22.05 -15.4 L-21.9 -12.75 0.65 -15.25 Q0.5 -16.25 0.5 -17.4 0.0 -21.95 0.15 -25.95 0.15 -36.45 4.0 -46.0 8.35 -44.65 12.7 -41.65 10.35 -32.95 10.35 -25.95" fill="#6d4b29" fill-rule="evenodd" stroke="none"/>
    <path d="M10.35 -25.95 Q10.0 -7.05 18.5 18.5 13.0 21.35 9.0 21.85 4.85 8.8 2.3 -4.55 L-20.4 -1.7 Q-18.05 11.8 -14.4 23.85 -16.55 24.0 -21.55 22.7 L-21.75 22.5 Q-29.75 -4.2 -28.9 -23.25 -28.75 -26.45 -27.6 -33.6 -22.4 -40.3 -19.05 -42.45 -21.9 -34.45 -22.25 -23.95 -22.4 -19.9 -22.05 -15.4 L-21.9 -12.75 0.65 -15.25 Q0.5 -16.25 0.5 -17.4 0.0 -21.95 0.15 -25.95 0.15 -36.45 4.0 -46.0 8.35 -44.65 12.7 -41.65 10.35 -32.95 10.35 -25.95 Z" fill="none" stroke="#000000" stroke-linecap="round" stroke-linejoin="round" stroke-opacity="0.2" stroke-width="0.2"/>
    <path d="M-20.75 -4.4 L-21.4 -10.4 -14.7 -5.05 -20.75 -4.4" fill="#442f1a" fill-rule="evenodd" stroke="none"/>
    <path d="M-4.55 -12.25 L-10.0 -5.7 -16.6 -11.15 -4.55 -12.25" fill="#442f1a" fill-rule="evenodd" stroke="none"/>
    <path d="M0.5 -13.25 L1.15 -7.05 -5.05 -6.4 -5.05 -6.55 0.3 -13.25 0.5 -13.25" fill="#442f1a" fill-rule="evenodd" stroke="none"/>
  </g>
</svg>
