<?xml version="1.0" encoding="UTF-8" standalone="no"?>
<svg xmlns:ffdec="https://www.free-decompiler.com/flash" xmlns:xlink="http://www.w3.org/1999/xlink" ffdec:objectType="shape" height="77.5px" width="144.25px" xmlns="http://www.w3.org/2000/svg">
  <g transform="matrix(1.0, 0.0, 0.0, 1.0, 0.0, 0.0)">
    <path d="M126.7 3.3 L126.45 3.75 Q123.6 4.8 120.3 11.35 117.1 17.7 117.35 21.2 117.4 22.5 117.65 22.8 118.15 21.15 130.85 14.15 133.3 12.7 137.6 11.6 L144.25 10.0 Q136.95 14.2 133.25 28.0 127.6 44.7 125.7 55.0 123.7 66.0 107.0 72.15 91.95 77.7 71.0 77.5 50.2 77.3 35.0 71.6 18.35 65.35 16.3 55.0 L14.55 42.4 12.2 29.1 Q11.3 23.65 8.35 20.35 L7.7 19.65 Q4.1 16.25 0.0 13.6 6.55 14.75 12.35 17.9 L15.7 19.8 20.35 22.55 23.0 24.2 22.55 19.2 Q22.1 14.1 20.15 9.65 18.95 6.85 16.2 5.25 22.7 5.9 28.4 9.25 33.6 12.2 38.3 16.05 42.0 19.15 43.65 22.1 L44.05 21.65 Q44.25 19.5 45.5 12.7 46.5 6.25 45.85 3.35 L46.05 3.35 Q50.65 7.3 53.15 9.75 57.4 14.05 59.9 19.4 61.5 13.85 64.75 9.05 67.55 4.95 71.95 2.55 L71.4 5.8 Q70.45 12.55 72.1 19.45 L72.1 19.55 Q74.0 13.9 78.05 9.2 83.45 3.0 91.1 0.0 89.9 2.65 89.05 5.45 87.05 12.05 90.8 18.0 L90.85 18.05 91.9 15.65 91.95 15.7 Q93.0 12.65 96.75 7.35 100.35 2.15 102.4 0.45 L102.4 1.45 Q101.05 9.7 103.5 15.5 108.75 9.7 112.95 7.25 119.4 3.4 126.7 3.3" fill="#000000" fill-rule="evenodd" stroke="none"/>
  </g>
</svg>
