<?xml version="1.0" encoding="UTF-8" standalone="no"?>
<svg xmlns:ffdec="https://www.free-decompiler.com/flash" xmlns:xlink="http://www.w3.org/1999/xlink" ffdec:objectType="shape" height="162.45px" width="175.8px" xmlns="http://www.w3.org/2000/svg">
  <g transform="matrix(1.0, 0.0, 0.0, 1.0, 85.9, 98.05)">
    <path d="M84.85 -88.0 L89.9 -88.0 89.9 -77.95 84.85 -77.95 84.85 -88.0 79.9 -88.0 79.9 -93.05 74.85 -93.05 74.85 -88.0 69.85 -88.0 69.85 -77.95 74.85 -77.95 74.85 -67.9 74.85 64.4 69.85 64.4 69.85 37.55 59.8 37.55 59.8 47.6 39.7 47.6 39.7 42.6 24.6 42.6 24.6 37.55 -5.55 37.55 -5.55 42.6 -20.55 42.6 -20.55 47.6 -50.7 47.6 -50.7 42.6 -70.8 42.6 -70.8 37.55 -85.9 37.55 -85.9 -83.0 -70.8 -83.0 -70.8 -77.95 -50.7 -77.95 -50.7 -72.95 -20.55 -72.95 -20.55 -77.95 -5.55 -77.95 -5.55 -83.0 24.6 -83.0 24.6 -77.95 39.7 -77.95 39.7 -72.95 59.8 -72.95 59.8 -62.9 69.85 -62.9 69.85 -77.95 64.8 -77.95 64.8 -88.0 69.85 -88.0 69.85 -93.05 74.85 -93.05 74.85 -98.05 79.9 -98.05 79.9 -93.05 84.85 -93.05 84.85 -88.0 M84.85 -77.95 L84.85 64.4 79.9 64.4 79.9 -67.9 79.9 -77.95 84.85 -77.95 M69.3 -57.85 L60.35 -57.85 60.35 32.55 69.3 32.55 69.3 -57.85 M39.7 -67.9 L39.7 -72.95 24.6 -72.95 24.6 -77.95 14.55 -77.95 4.5 -77.95 -5.55 -77.95 -5.55 -72.95 -20.55 -72.95 -20.55 -67.9 -35.65 -67.9 -50.7 -67.9 -50.7 -72.95 -65.8 -72.95 -70.8 -72.95 -70.8 -77.95 -80.85 -77.95 -80.85 32.55 -70.8 32.55 -70.8 37.55 -65.8 37.55 -50.7 37.55 -50.7 42.6 -35.65 42.6 -20.55 42.6 -20.55 37.55 -5.55 37.55 -5.55 32.55 4.5 32.55 14.55 32.55 24.6 32.55 24.6 37.55 39.7 37.55 39.7 42.6 54.75 42.6 54.75 -67.9 39.7 -67.9" fill="#000000" fill-rule="evenodd" stroke="none"/>
    <path d="M84.85 -88.0 L84.85 -77.95 79.9 -77.95 74.85 -77.95 69.85 -77.95 69.85 -88.0 74.85 -88.0 74.85 -93.05 79.9 -93.05 79.9 -88.0 84.85 -88.0 M79.9 64.4 L74.85 64.4 74.85 -67.9 79.9 -67.9 79.9 64.4 M-45.7 -2.65 L-45.7 -17.7 -15.55 -17.7 -15.55 12.45 -20.55 12.45 -20.55 7.4 -30.6 7.4 -30.6 2.4 -40.65 2.4 -40.65 -2.65 -45.7 -2.65 M19.6 -47.8 L19.6 -22.7 -10.55 -22.7 -10.55 -47.8 19.6 -47.8 M9.55 -37.75 L9.55 -42.8 -0.5 -42.8 -0.5 -37.75 -5.55 -37.75 -5.55 -32.75 -0.5 -32.75 -0.5 -27.7 9.55 -27.7 9.55 -32.75 14.55 -32.75 14.55 -37.75 9.55 -37.75 9.55 -32.75 -0.5 -32.75 -0.5 -37.75 9.55 -37.75 M-20.55 -12.7 L-25.6 -12.7 -25.6 2.4 -20.55 2.4 -20.55 -12.7 M-40.65 -12.7 L-40.65 -7.65 -35.65 -7.65 -35.65 -2.65 -30.6 -2.65 -30.6 -12.7 -40.65 -12.7" fill="#ffc021" fill-rule="evenodd" stroke="none"/>
    <path d="M74.85 -77.95 L79.9 -77.95 79.9 -67.9 74.85 -67.9 74.85 -77.95" fill="#bd8e18" fill-rule="evenodd" stroke="none"/>
    <path d="M39.7 -72.95 L39.7 -67.9 39.7 37.55 24.6 37.55 24.6 32.55 14.55 32.55 14.55 7.4 14.55 2.4 19.6 2.4 19.6 -2.65 24.6 -2.65 24.6 -47.8 19.6 -47.8 19.6 -52.85 14.55 -52.85 14.55 -77.95 24.6 -77.95 24.6 -72.95 39.7 -72.95 M-65.8 37.55 L-70.8 37.55 -70.8 32.55 -80.85 32.55 -80.85 -77.95 -70.8 -77.95 -70.8 -72.95 -65.8 -72.95 -65.8 37.55" fill="#68bd1c" fill-rule="evenodd" stroke="none"/>
    <path d="M39.7 -67.9 L54.75 -67.9 54.75 42.6 39.7 42.6 39.7 37.55 39.7 -67.9 M14.55 32.55 L4.5 32.55 4.5 12.45 4.5 7.4 14.55 7.4 14.55 32.55 M-35.65 42.6 L-50.7 42.6 -50.7 37.55 -65.8 37.55 -65.8 -72.95 -50.7 -72.95 -50.7 -67.9 -35.65 -67.9 -35.65 -52.85 -45.7 -52.85 -45.7 -47.8 -45.65 -47.8 -45.65 -22.7 -45.7 -22.7 -45.7 -47.8 -50.7 -47.8 -50.7 -2.65 -45.7 -2.65 -45.7 2.4 -40.65 2.4 -40.65 7.4 -35.65 7.4 -35.65 42.6 M4.5 -77.95 L14.55 -77.95 14.55 -52.85 4.5 -52.85 4.5 -77.95" fill="#5ca619" fill-rule="evenodd" stroke="none"/>
    <path d="M4.5 32.55 L-5.55 32.55 -5.55 37.55 -20.55 37.55 -20.55 42.6 -35.65 42.6 -35.65 7.4 -30.6 7.4 -30.6 12.45 -20.55 12.45 -20.55 17.45 -5.55 17.45 -5.55 12.45 4.5 12.45 4.5 32.55 M-35.65 -67.9 L-20.55 -67.9 -20.55 -72.95 -5.55 -72.95 -5.55 -77.95 4.5 -77.95 4.5 -52.85 -35.65 -52.85 -35.65 -67.9" fill="#539617" fill-rule="evenodd" stroke="none"/>
    <path d="M-45.65 -47.8 L-15.55 -47.8 -15.55 -22.7 -45.65 -22.7 -45.65 -47.8 M-5.55 12.45 L-10.55 12.45 -10.55 -17.7 19.6 -17.7 19.6 -2.65 14.55 -2.65 14.55 2.4 4.5 2.4 4.5 7.4 -5.55 7.4 -5.55 12.45 M14.55 -12.7 L9.55 -12.7 9.55 -7.65 4.5 -7.65 4.5 -12.7 -0.5 -12.7 -0.5 -7.65 -5.55 -7.65 -5.55 -2.65 -0.5 -2.65 -0.5 -7.65 4.5 -7.65 4.5 -2.65 9.55 -2.65 9.55 -7.65 14.55 -7.65 14.55 -12.7 M-20.55 -42.8 L-25.6 -42.8 -25.6 -27.7 -20.55 -27.7 -20.55 -42.8 M-35.65 -37.75 L-35.65 -42.8 -40.65 -42.8 -40.65 -27.7 -35.65 -27.7 -35.65 -32.75 -30.6 -32.75 -30.6 -37.75 -35.65 -37.75" fill="#ff1c1c" fill-rule="evenodd" stroke="none"/>
    <path d="M14.55 -52.85 L19.6 -52.85 19.6 -47.8 24.6 -47.8 24.6 -2.65 19.6 -2.65 19.6 -17.7 -10.55 -17.7 -10.55 12.45 -5.55 12.45 -5.55 17.45 -20.55 17.45 -20.55 12.45 -15.55 12.45 -15.55 -17.7 -45.7 -17.7 -45.7 -2.65 -50.7 -2.65 -50.7 -47.8 -45.7 -47.8 -45.7 -22.7 -45.65 -22.7 -15.55 -22.7 -15.55 -47.8 -45.65 -47.8 -45.7 -47.8 -45.7 -52.85 -35.65 -52.85 4.5 -52.85 14.55 -52.85 M19.6 -47.8 L-10.55 -47.8 -10.55 -22.7 19.6 -22.7 19.6 -47.8 M14.55 2.4 L14.55 -2.65 19.6 -2.65 19.6 2.4 14.55 2.4 14.55 7.4 4.5 7.4 4.5 12.45 -5.55 12.45 -5.55 7.4 4.5 7.4 4.5 2.4 14.55 2.4 M-45.7 -2.65 L-40.65 -2.65 -40.65 2.4 -45.7 2.4 -45.7 -2.65 M-40.65 2.4 L-30.6 2.4 -30.6 7.4 -20.55 7.4 -20.55 12.45 -30.6 12.45 -30.6 7.4 -35.65 7.4 -40.65 7.4 -40.65 2.4" fill="#31590d" fill-rule="evenodd" stroke="none"/>
    <path d="M14.55 -12.7 L14.55 -7.65 9.55 -7.65 9.55 -2.65 4.5 -2.65 4.5 -7.65 -0.5 -7.65 -0.5 -2.65 -5.55 -2.65 -5.55 -7.65 -0.5 -7.65 -0.5 -12.7 4.5 -12.7 4.5 -7.65 9.55 -7.65 9.55 -12.7 14.55 -12.7 M-35.65 -37.75 L-30.6 -37.75 -30.6 -32.75 -35.65 -32.75 -35.65 -27.7 -40.65 -27.7 -40.65 -42.8 -35.65 -42.8 -35.65 -37.75 M-20.55 -42.8 L-20.55 -27.7 -25.6 -27.7 -25.6 -42.8 -20.55 -42.8" fill="#960505" fill-rule="evenodd" stroke="none"/>
    <path d="M9.55 -37.75 L14.55 -37.75 14.55 -32.75 9.55 -32.75 9.55 -27.7 -0.5 -27.7 -0.5 -32.75 -5.55 -32.75 -5.55 -37.75 -0.5 -37.75 -0.5 -42.8 9.55 -42.8 9.55 -37.75 -0.5 -37.75 -0.5 -32.75 9.55 -32.75 9.55 -37.75 M-40.65 -12.7 L-30.6 -12.7 -30.6 -2.65 -35.65 -2.65 -35.65 -7.65 -40.65 -7.65 -40.65 -12.7 M-20.55 -12.7 L-20.55 2.4 -25.6 2.4 -25.6 -12.7 -20.55 -12.7" fill="#b07e00" fill-rule="evenodd" stroke="none"/>
  </g>
</svg>
