<?xml version="1.0" encoding="UTF-8" standalone="no"?>
<svg xmlns:ffdec="https://www.free-decompiler.com/flash" xmlns:xlink="http://www.w3.org/1999/xlink" ffdec:objectType="shape" height="94.25px" width="143.15px" xmlns="http://www.w3.org/2000/svg">
  <g transform="matrix(1.0, 0.0, 0.0, 1.0, 79.55, 78.1)">
    <path d="M52.6 -50.1 Q54.9 -49.35 56.75 -47.5 59.8 -44.45 59.8 -40.1 59.8 -37.6 58.8 -35.5 L60.4 -34.2 Q63.6 -31.05 63.6 -26.6 63.6 -22.15 60.4 -19.05 57.75 -16.4 54.25 -15.95 53.25 -3.05 36.65 6.25 19.0 16.15 -5.95 16.15 -30.9 16.15 -48.55 6.25 -62.35 -1.45 -65.35 -11.65 L-67.65 -11.5 Q-72.6 -11.5 -76.1 -14.6 -79.55 -17.7 -79.55 -22.05 -79.55 -26.4 -76.1 -29.5 L-73.55 -31.25 Q-75.6 -33.7 -75.6 -36.95 -75.6 -40.7 -72.9 -43.35 -70.15 -46.0 -66.3 -46.0 L-64.95 -45.9 -65.15 -47.9 Q-65.15 -52.05 -62.0 -55.0 -58.8 -57.9 -54.35 -57.9 L-52.75 -57.8 -52.95 -59.85 Q-52.95 -64.05 -49.85 -67.0 -46.75 -69.95 -42.4 -69.95 -38.7 -69.95 -35.85 -67.8 -35.2 -71.2 -32.5 -73.75 -28.85 -77.1 -23.75 -77.1 -18.65 -77.1 -15.05 -73.75 -13.65 -72.45 -12.8 -70.95 -12.0 -73.15 -10.1 -74.95 -6.7 -78.1 -1.9 -78.1 2.9 -78.1 6.25 -74.95 L8.05 -72.85 Q11.05 -75.45 15.2 -75.45 19.65 -75.45 22.75 -72.45 24.6 -70.7 25.35 -68.5 27.75 -69.95 30.75 -69.95 35.0 -69.95 38.0 -67.05 40.25 -64.9 40.85 -62.05 L42.5 -62.2 Q46.75 -62.2 49.7 -59.15 52.7 -56.05 52.7 -51.7 L52.6 -50.1" fill="#000000" fill-rule="evenodd" stroke="none"/>
  </g>
</svg>
