<?xml version="1.0" encoding="UTF-8" standalone="no"?>
<svg xmlns:ffdec="https://www.free-decompiler.com/flash" xmlns:xlink="http://www.w3.org/1999/xlink" ffdec:objectType="shape" height="46.65px" width="211.1px" xmlns="http://www.w3.org/2000/svg">
  <g transform="matrix(1.0, 0.0, 0.0, 1.0, 105.55, 23.3)">
    <path d="M104.55 -7.35 L104.55 7.4 Q104.55 22.35 90.2 22.35 L-90.2 22.35 Q-104.55 22.35 -104.55 7.4 L-104.55 -7.35 Q-104.55 -22.3 -90.2 -22.3 L90.2 -22.3 Q104.55 -22.3 104.55 -7.35" fill="#ffcf11" fill-rule="evenodd" stroke="none"/>
    <path d="M104.55 -7.35 Q104.55 -22.3 90.2 -22.3 L-90.2 -22.3 Q-104.55 -22.3 -104.55 -7.35 L-104.55 7.4 Q-104.55 22.35 -90.2 22.35 L90.2 22.35 Q104.55 22.35 104.55 7.4 L104.55 -7.35 Z" fill="none" stroke="#000000" stroke-linecap="round" stroke-linejoin="round" stroke-opacity="0.2" stroke-width="2.0"/>
  </g>
</svg>
