<?xml version="1.0" encoding="UTF-8" standalone="no"?>
<svg xmlns:ffdec="https://www.free-decompiler.com/flash" xmlns:xlink="http://www.w3.org/1999/xlink" ffdec:objectType="shape" height="27.3px" width="30.8px" xmlns="http://www.w3.org/2000/svg">
  <g transform="matrix(1.0, 0.0, 0.0, 1.0, 15.25, 0.55)">
    <path d="M13.25 2.25 Q11.45 4.65 10.2 7.95 6.6 17.2 11.25 26.25 L-14.75 25.1 Q-14.6 21.35 -13.15 16.85 -10.15 7.8 -3.65 3.95 2.8 0.15 9.45 0.0 12.75 -0.15 14.7 0.6 L13.25 2.25" fill="#7c7c7c" fill-rule="evenodd" stroke="none"/>
    <path d="M13.25 2.25 Q11.45 4.65 10.2 7.95 6.6 17.2 11.25 26.25 L-14.75 25.1 Q-14.6 21.35 -13.15 16.85 -10.15 7.8 -3.65 3.95 2.8 0.15 9.45 0.0 12.75 -0.15 14.7 0.6 L13.25 2.25 Z" fill="none" stroke="#5d5d5d" stroke-linecap="butt" stroke-linejoin="miter-clip" stroke-miterlimit="4.0" stroke-width="1.0"/>
    <path d="M13.25 2.25 Q7.75 2.9 2.95 6.25 -1.9 9.55 -3.6 15.75 -5.4 21.95 -5.2 25.3 L-14.75 25.1 Q-14.6 21.35 -13.15 16.85 -10.15 7.8 -3.65 3.95 2.8 0.15 9.45 0.0 12.75 -0.15 14.7 0.6 L13.25 2.25" fill="#858585" fill-rule="evenodd" stroke="none"/>
    <path d="M-5.2 25.3 Q-5.4 21.95 -3.6 15.75 -1.9 9.55 2.95 6.25 7.75 2.9 13.25 2.25 11.45 4.65 10.2 7.95 6.6 17.2 11.25 26.25 L-5.2 25.3" fill="#7c7c7c" fill-rule="evenodd" stroke="none"/>
  </g>
</svg>
