<?xml version="1.0" encoding="UTF-8" standalone="no"?>
<svg xmlns:ffdec="https://www.free-decompiler.com/flash" xmlns:xlink="http://www.w3.org/1999/xlink" ffdec:objectType="shape" height="81.6px" width="227.5px" xmlns="http://www.w3.org/2000/svg">
  <g transform="matrix(1.0, 0.0, 0.0, 1.0, 113.75, 40.8)">
    <path d="M-107.25 -6.2 Q-103.45 -2.15 -96.45 -0.15 -89.65 1.85 -90.4 0.6 -91.9 -10.95 -83.4 -23.5 -82.1 -14.0 -78.35 -8.95 -68.55 4.15 -62.3 8.4 -54.25 6.15 -44.45 5.1 L-44.45 24.95 Q-68.8 23.2 -79.6 25.95 -107.5 33.0 -113.75 17.45 -111.0 17.65 -108.2 16.65 -105.7 15.65 -103.45 13.4 -107.95 10.65 -109.0 4.35 -109.75 -1.65 -107.25 -6.2" fill="#000000" fill-rule="evenodd" stroke="none"/>
    <path d="M76.6 -32.05 Q87.15 -18.25 85.1 -5.2 84.35 -3.65 92.65 -5.95 101.15 -8.45 105.7 -12.95 108.95 -7.7 107.7 -0.95 106.7 6.15 101.15 9.15 103.95 11.9 107.2 12.9 110.25 13.9 113.75 13.65 106.25 31.2 72.05 23.2 56.75 19.95 28.9 22.45 L28.9 -0.15 50.7 3.6 Q58.25 -0.95 70.55 -15.75 75.3 -21.5 76.6 -32.05" fill="#000000" fill-rule="evenodd" stroke="none"/>
    <path d="M17.3 -40.8 Q36.15 -40.8 49.45 -28.8 62.75 -16.7 62.75 0.1 62.75 16.95 49.45 28.75 36.15 40.8 17.3 40.8 -1.25 40.8 -14.6 28.75 -27.9 16.95 -27.9 0.1 -27.9 -16.7 -14.6 -28.8 -1.25 -40.8 17.3 -40.8" fill="#000000" fill-rule="evenodd" stroke="none"/>
    <path d="M-71.05 -0.95 Q-71.05 -13.75 -60.5 -22.75 -49.95 -31.8 -34.9 -31.8 -19.85 -31.8 -9.05 -22.75 1.5 -13.75 1.5 -0.95 1.5 11.65 -9.05 20.65 -19.85 29.75 -34.9 29.75 -49.95 29.75 -60.5 20.65 -71.05 11.65 -71.05 -0.95" fill="#000000" fill-rule="evenodd" stroke="none"/>
  </g>
</svg>
