<?xml version="1.0" encoding="UTF-8" standalone="no"?>
<svg xmlns:ffdec="https://www.free-decompiler.com/flash" xmlns:xlink="http://www.w3.org/1999/xlink" ffdec:objectType="shape" height="41.1px" width="72.6px" xmlns="http://www.w3.org/2000/svg">
  <g transform="matrix(1.0, 0.0, 0.0, 1.0, 34.25, -6.15)">
    <path d="M37.25 23.0 Q35.6 30.8 30.95 35.15 26.0 39.8 19.85 42.8 12.7 45.95 2.7 46.95 -5.75 47.75 -12.75 45.6 -20.2 43.1 -24.85 37.65 -29.35 32.5 -31.5 26.65 -33.15 22.2 -34.15 17.85 4.55 28.15 37.95 6.25 38.75 15.05 37.25 23.0" fill="#a7651d" fill-rule="evenodd" stroke="none"/>
    <path d="M37.25 23.0 Q35.6 30.8 30.95 35.15 26.0 39.8 19.85 42.8 12.7 45.95 2.7 46.95 -5.75 47.75 -12.75 45.6 -20.2 43.1 -24.85 37.65 -29.35 32.5 -31.5 26.65 -33.15 22.2 -34.15 17.85 4.55 28.15 37.95 6.25 38.75 15.05 37.25 23.0 Z" fill="none" stroke="#000000" stroke-linecap="round" stroke-linejoin="round" stroke-opacity="0.2" stroke-width="0.2"/>
    <path d="M38.1 16.7 Q5.35 38.95 -31.2 27.5 L-31.5 26.65 Q-33.15 22.2 -34.15 17.85 4.55 28.15 37.95 6.25 38.45 11.55 38.1 16.7" fill="#4f3104" fill-rule="evenodd" stroke="none"/>
    <path d="M38.1 16.7 Q5.35 38.95 -31.2 27.5 L-31.5 26.65 Q-33.15 22.2 -34.15 17.85 4.55 28.15 37.95 6.25 38.45 11.55 38.1 16.7 Z" fill="none" stroke="#000000" stroke-linecap="round" stroke-linejoin="round" stroke-opacity="0.2" stroke-width="0.2"/>
    <path d="M-6.4 20.55 Q-0.35 20.55 3.8 23.15 8.15 25.7 8.15 29.3 8.15 32.9 3.8 35.3 -0.35 37.85 -6.4 37.85 -12.3 37.85 -16.45 35.3 -20.6 32.9 -20.6 29.3 -20.6 25.7 -16.45 23.15 -12.3 20.55 -6.4 20.55" fill="#ffce0d" fill-rule="evenodd" stroke="none"/>
    <path d="M-6.4 20.55 Q-0.35 20.55 3.8 23.15 8.15 25.7 8.15 29.3 8.15 32.9 3.8 35.3 -0.35 37.85 -6.4 37.85 -12.3 37.85 -16.45 35.3 -20.6 32.9 -20.6 29.3 -20.6 25.7 -16.45 23.15 -12.3 20.55 -6.4 20.55 Z" fill="none" stroke="#000000" stroke-linecap="round" stroke-linejoin="round" stroke-opacity="0.2" stroke-width="0.2"/>
    <path d="M-6.5 24.6 Q-3.25 24.6 -1.0 26.0 1.3 27.35 1.3 29.25 1.3 31.2 -1.0 32.45 -3.25 33.85 -6.5 33.85 -9.6 33.85 -11.85 32.45 -14.05 31.2 -14.05 29.25 -14.05 27.35 -11.85 26.0 -9.6 24.6 -6.5 24.6" fill="#caa200" fill-rule="evenodd" stroke="none"/>
  </g>
</svg>
