<?xml version="1.0" encoding="UTF-8" standalone="no"?>
<svg xmlns:ffdec="https://www.free-decompiler.com/flash" xmlns:xlink="http://www.w3.org/1999/xlink" ffdec:objectType="shape" height="48.35px" width="74.45px" xmlns="http://www.w3.org/2000/svg">
  <g transform="matrix(1.0, 0.0, 0.0, 1.0, 34.25, -6.15)">
    <path d="M4.55 48.45 L-1.75 54.4 -8.1 49.25 -12.75 53.4 -18.9 44.6 -23.55 46.6 -27.5 37.15 -31.5 39.15 Q-31.85 27.85 -34.15 17.85 4.55 28.15 37.95 6.25 38.1 18.2 40.1 30.15 L35.8 28.15 35.45 29.0 32.1 41.6 26.8 38.8 20.8 49.95 15.35 45.95 9.7 53.6 4.55 48.45" fill="#7d4e32" fill-rule="evenodd" stroke="none"/>
    <path d="M4.55 48.45 L-1.75 54.4 -8.1 49.25 -12.75 53.4 -18.9 44.6 -23.55 46.6 -27.5 37.15 -31.5 39.15 Q-31.85 27.85 -34.15 17.85 4.55 28.15 37.95 6.25 38.1 18.2 40.1 30.15 L35.8 28.15 35.45 29.0 32.1 41.6 26.8 38.8 20.8 49.95 15.35 45.95 9.7 53.6 4.55 48.45 Z" fill="none" stroke="#000000" stroke-linecap="round" stroke-linejoin="round" stroke-opacity="0.13333334" stroke-width="0.2"/>
  </g>
</svg>
