<?xml version="1.0" encoding="UTF-8" standalone="no"?>
<svg xmlns:ffdec="https://www.free-decompiler.com/flash" xmlns:xlink="http://www.w3.org/1999/xlink" ffdec:objectType="shape" height="70.65px" width="74.75px" xmlns="http://www.w3.org/2000/svg">
  <g transform="matrix(1.0, 0.0, 0.0, 1.0, 36.55, 46.4)">
    <path d="M27.4 -25.05 L31.4 -17.7 Q33.75 -12.65 35.4 -6.8 1.9 15.3 -36.1 5.9 -36.75 -0.8 -36.1 -7.0 -35.95 -9.85 -35.45 -12.5 L-35.25 -13.2 Q-6.1 -6.3 27.4 -25.05 M-28.9 -30.95 Q-22.05 -42.65 -10.45 -45.5 1.6 -48.5 13.0 -40.3 L14.5 -39.15 Q-7.1 -26.6 -28.9 -30.95" fill="#ffcc00" fill-rule="evenodd" stroke="none"/>
    <path d="M14.5 -39.15 L15.15 -38.65 15.8 -38.15 18.0 -36.3 Q23.35 -31.25 27.4 -25.05 -6.1 -6.3 -35.25 -13.2 -34.25 -18.7 -32.25 -23.9 -30.75 -27.75 -28.9 -30.95 -7.1 -26.6 14.5 -39.15 M35.4 -6.8 Q37.6 0.2 38.1 6.75 2.4 34.4 -34.4 18.15 L-35.6 10.45 -36.1 5.9 Q1.9 15.3 35.4 -6.8" fill="#ffff00" fill-rule="evenodd" stroke="none"/>
    <path d="M14.5 -39.15 L15.15 -38.65 15.8 -38.15 18.0 -36.3 Q23.35 -31.25 27.4 -25.05 L31.4 -17.7 Q33.75 -12.65 35.4 -6.8 37.6 0.2 38.1 6.75 2.4 34.4 -34.4 18.15 L-35.6 10.45 -36.1 5.9 Q-36.75 -0.8 -36.1 -7.0 -35.95 -9.85 -35.45 -12.5 L-35.25 -13.2 Q-34.25 -18.7 -32.25 -23.9 -30.75 -27.75 -28.9 -30.95 -22.05 -42.65 -10.45 -45.5 1.6 -48.5 13.0 -40.3 L14.5 -39.15 Z" fill="none" stroke="#000000" stroke-linecap="round" stroke-linejoin="round" stroke-opacity="0.2" stroke-width="0.2"/>
  </g>
</svg>
