<?xml version="1.0" encoding="UTF-8" standalone="no"?>
<svg xmlns:ffdec="https://www.free-decompiler.com/flash" xmlns:xlink="http://www.w3.org/1999/xlink" ffdec:objectType="shape" height="110.65px" width="130.4px" xmlns="http://www.w3.org/2000/svg">
  <g transform="matrix(1.0, 0.0, 0.0, 1.0, 65.2, 55.35)">
    <path d="M12.85 -40.3 Q26.55 -34.95 38.5 -27.5 50.6 -20.05 58.05 -10.15 65.5 -0.2 65.2 12.2 64.85 24.75 53.8 40.05 L52.05 42.4 Q50.3 44.7 46.85 47.75 43.3 50.65 37.95 52.95 32.5 55.15 25.1 55.3 L19.05 54.9 Q11.6 53.6 3.2 47.9 -5.45 42.2 -13.75 34.5 -22.2 26.75 -29.0 19.15 L-40.25 6.75 -44.45 1.55 -65.2 -43.1 -41.25 -55.35 -33.3 -53.75 Q-25.55 -52.3 -13.15 -48.95 -0.9 -45.6 12.85 -40.3" fill="#ce3095" fill-rule="evenodd" stroke="none"/>
  </g>
</svg>
