<?xml version="1.0" encoding="UTF-8" standalone="no"?>
<svg xmlns:ffdec="https://www.free-decompiler.com/flash" xmlns:xlink="http://www.w3.org/1999/xlink" ffdec:objectType="shape" height="110.65px" width="130.4px" xmlns="http://www.w3.org/2000/svg">
  <g transform="matrix(1.0, 0.0, 0.0, 1.0, 77.45, 70.5)">
    <path d="M45.8 -25.3 Q53.25 -15.35 52.95 -2.95 52.6 9.6 41.55 24.9 L39.8 27.25 Q38.05 29.55 34.6 32.6 31.05 35.5 25.7 37.8 20.25 40.0 12.85 40.15 L6.8 39.75 Q-0.65 38.45 -9.05 32.75 -17.7 27.05 -26.0 19.35 -34.45 11.6 -41.25 4.0 L-52.5 -8.4 -56.7 -13.6 -77.45 -58.25 -53.5 -70.5 -45.55 -68.9 Q-37.8 -67.45 -25.4 -64.1 -13.15 -60.75 0.6 -55.45 14.3 -50.1 26.25 -42.65 38.35 -35.2 45.8 -25.3 M-73.9 -56.75 L-55.1 -16.6 -37.4 -18.65 -52.7 -67.8 -73.9 -56.75" fill="#000000" fill-opacity="0.2509804" fill-rule="evenodd" stroke="none"/>
  </g>
</svg>
