<?xml version="1.0" encoding="UTF-8" standalone="no"?>
<svg xmlns:ffdec="https://www.free-decompiler.com/flash" xmlns:xlink="http://www.w3.org/1999/xlink" ffdec:objectType="morphshape" height="12.65px" width="42.35px" xmlns="http://www.w3.org/2000/svg">
  <g transform="matrix(1.0, 0.0, 0.0, 1.0, 37.15, 10.65)">
    <path d="M-34.3 -0.25 Q-31.95 0.4 -26.0 -3.85 -20.05 -8.1 -9.25 -4.55 1.6 -1.0 2.85 -1.2 4.15 -1.45 -0.55 -4.05 -5.3 -6.65 -10.2 -7.8 L-21.85 -8.55 Q-28.7 -8.15 -32.65 -4.55 -36.65 -0.95 -34.3 -0.25" fill="#000000" fill-opacity="0.49803922" fill-rule="evenodd" stroke="none">
      <animate attributeName="fill" dur="2s" repeatCount="indefinite" values="#000000;#000001"/>
      <animate attributeName="fill-opacity" dur="2s" repeatCount="indefinite" values="0.49803922;0.49803922"/>
      <animate attributeName="d" dur="2s" repeatCount="indefinite" values="M-34.3 -0.25 Q-31.95 0.4 -26.0 -3.85 -20.05 -8.1 -9.25 -4.55 1.6 -1.0 2.85 -1.2 4.15 -1.45 -0.55 -4.05 -5.3 -6.65 -10.2 -7.8 L-21.85 -8.55 Q-28.7 -8.15 -32.65 -4.55 -36.65 -0.95 -34.3 -0.25;M-34.3 -0.25 Q-31.95 0.4 -25.65 -1.15 -19.3 -2.8 -8.75 -1.05 1.85 0.65 2.95 -0.4 4.15 -1.45 -0.55 -4.05 -5.3 -6.65 -10.2 -7.8 L-21.85 -8.55 Q-28.7 -8.15 -32.65 -4.55 -36.65 -0.95 -34.3 -0.25"/>
    </path>
    <path d="M-34.3 -0.25 Q-36.65 -0.95 -32.65 -4.55 -28.7 -8.15 -21.85 -8.55 L-10.2 -7.8 Q-5.3 -6.65 -0.55 -4.05 4.15 -1.45 2.85 -1.2 1.6 -1.0 -9.25 -4.55 -20.05 -8.1 -26.0 -3.85 -31.95 0.4 -34.3 -0.25 -36.65 -0.95 -32.65 -4.55 -28.7 -8.15 -21.85 -8.55 L-10.2 -7.8 Q-5.3 -6.65 -0.55 -4.05 4.15 -1.45 2.85 -1.2 1.6 -1.0 -9.25 -4.55 -20.05 -8.1 -26.0 -3.85 -31.95 0.4 -34.3 -0.25 Z" fill="none" stroke="#000000" stroke-linecap="round" stroke-linejoin="miter" stroke-miterlimit="3.0" stroke-opacity="0.49803922" stroke-width="2.0">
      <animate attributeName="stroke" dur="2s" repeatCount="indefinite" values="#000000;#000001"/>
      <animate attributeName="stroke-width" dur="2s" repeatCount="indefinite" values="2.0;2.0"/>
      <animate attributeName="fill-opacity" dur="2s" repeatCount="indefinite" values="0.49803922;0.49803922"/>
      <animate attributeName="d" dur="2s" repeatCount="indefinite" values="M-34.3 -0.25 Q-36.65 -0.95 -32.65 -4.55 -28.7 -8.15 -21.85 -8.55 L-10.2 -7.8 Q-5.3 -6.65 -0.55 -4.05 4.15 -1.45 2.85 -1.2 1.6 -1.0 -9.25 -4.55 -20.05 -8.1 -26.0 -3.85 -31.95 0.4 -34.3 -0.25 -36.65 -0.95 -32.65 -4.55 -28.7 -8.15 -21.85 -8.55 L-10.2 -7.8 Q-5.3 -6.65 -0.55 -4.05 4.15 -1.45 2.85 -1.2 1.6 -1.0 -9.25 -4.55 -20.05 -8.1 -26.0 -3.85 -31.95 0.4 -34.3 -0.25 Z;M-34.3 -0.25 Q-36.65 -0.95 -32.65 -4.55 -28.7 -8.15 -21.85 -8.55 L-10.2 -7.8 Q-5.3 -6.65 -0.55 -4.05 4.15 -1.45 2.95 -0.4 1.85 0.65 -8.75 -1.05 -19.3 -2.8 -25.65 -1.15 -31.95 0.4 -34.3 -0.25 -36.65 -0.95 -32.65 -4.55 -28.7 -8.15 -21.85 -8.55 L-10.2 -7.8 Q-5.3 -6.65 -0.55 -4.05 4.15 -1.45 2.95 -0.4 1.85 0.65 -8.75 -1.05 -19.3 -2.8 -25.65 -1.15 -31.95 0.4 -34.3 -0.25 Z"/>
    </path>
  </g>
</svg>
