<?xml version="1.0" encoding="UTF-8" standalone="no"?>
<svg xmlns:ffdec="https://www.free-decompiler.com/flash" xmlns:xlink="http://www.w3.org/1999/xlink" ffdec:objectType="morphshape" height="20.55px" width="75.45px" xmlns="http://www.w3.org/2000/svg">
  <g transform="matrix(1.0, 0.0, 0.0, 1.0, 50.5, 11.65)">
    <path d="M-34.75 2.4 Q-33.75 4.25 -29.65 3.9 -24.15 3.6 -18.7 3.35 -11.8 3.25 -6.6 3.55 -1.4 3.8 -1.0 1.05 -0.6 -1.7 -5.2 -5.45 -9.8 -9.25 -18.05 -8.85 -26.3 -8.5 -29.6 -6.5 -32.9 -4.45 -34.35 -1.95 -35.7 0.5 -34.75 2.4" fill="#000000" fill-opacity="0.49803922" fill-rule="evenodd" stroke="none">
      <animate attributeName="fill" dur="2s" repeatCount="indefinite" values="#000000;#000001"/>
      <animate attributeName="fill-opacity" dur="2s" repeatCount="indefinite" values="0.49803922;0.49803922"/>
      <animate attributeName="d" dur="2s" repeatCount="indefinite" values="M-34.75 2.4 Q-33.75 4.25 -29.65 3.9 -24.15 3.6 -18.7 3.35 -11.8 3.25 -6.6 3.55 -1.4 3.8 -1.0 1.05 -0.6 -1.7 -5.2 -5.45 -9.8 -9.25 -18.05 -8.85 -26.3 -8.5 -29.6 -6.5 -32.9 -4.45 -34.35 -1.95 -35.7 0.5 -34.75 2.4;M-48.15 5.35 Q-46.1 7.9 -37.4 7.3 -28.75 6.75 -14.15 6.65 0.45 6.5 11.5 6.9 22.55 7.3 23.4 3.5 24.2 -0.3 14.4 -5.45 4.65 -10.6 -12.85 -10.1 -30.3 -9.65 -37.3 -6.8 -44.3 -4.05 -47.25 -0.6 -50.2 2.75 -48.15 5.35"/>
    </path>
    <path d="M-34.75 2.4 Q-35.7 0.5 -34.35 -1.95 -32.9 -4.45 -29.6 -6.5 -26.3 -8.5 -18.05 -8.85 -9.8 -9.25 -5.2 -5.45 -0.6 -1.7 -1.0 1.05 -1.4 3.8 -6.6 3.55 -11.8 3.25 -18.7 3.35 -24.15 3.6 -29.65 3.9 -33.75 4.25 -34.75 2.4 -35.7 0.5 -34.35 -1.95 -32.9 -4.45 -29.6 -6.5 -26.3 -8.5 -18.05 -8.85 -9.8 -9.25 -5.2 -5.45 -0.6 -1.7 -1.0 1.05 -1.4 3.8 -6.6 3.55 -11.8 3.25 -18.7 3.35 -24.15 3.6 -29.65 3.9 -33.75 4.25 -34.75 2.4 Z" fill="none" stroke="#000000" stroke-linecap="round" stroke-linejoin="round" stroke-opacity="0.49803922" stroke-width="3.0">
      <animate attributeName="stroke" dur="2s" repeatCount="indefinite" values="#000000;#000001"/>
      <animate attributeName="stroke-width" dur="2s" repeatCount="indefinite" values="3.0;3.0"/>
      <animate attributeName="fill-opacity" dur="2s" repeatCount="indefinite" values="0.49803922;0.49803922"/>
      <animate attributeName="d" dur="2s" repeatCount="indefinite" values="M-34.75 2.4 Q-35.7 0.5 -34.35 -1.95 -32.9 -4.45 -29.6 -6.5 -26.3 -8.5 -18.05 -8.85 -9.8 -9.25 -5.2 -5.45 -0.6 -1.7 -1.0 1.05 -1.4 3.8 -6.6 3.55 -11.8 3.25 -18.7 3.35 -24.15 3.6 -29.65 3.9 -33.75 4.25 -34.75 2.4 -35.7 0.5 -34.35 -1.95 -32.9 -4.45 -29.6 -6.5 -26.3 -8.5 -18.05 -8.85 -9.8 -9.25 -5.2 -5.45 -0.6 -1.7 -1.0 1.05 -1.4 3.8 -6.6 3.55 -11.8 3.25 -18.7 3.35 -24.15 3.6 -29.65 3.9 -33.75 4.25 -34.75 2.4 Z;M-48.15 5.35 Q-50.2 2.75 -47.25 -0.6 -44.3 -4.05 -37.3 -6.8 -30.3 -9.65 -12.85 -10.1 4.65 -10.6 14.4 -5.45 24.2 -0.3 23.4 3.5 22.55 7.3 11.5 6.9 0.45 6.5 -14.15 6.65 -28.75 6.75 -37.4 7.3 -46.1 7.9 -48.15 5.35 -50.2 2.75 -47.25 -0.6 -44.3 -4.05 -37.3 -6.8 -30.3 -9.65 -12.85 -10.1 4.65 -10.6 14.4 -5.45 24.2 -0.3 23.4 3.5 22.55 7.3 11.5 6.9 0.45 6.5 -14.15 6.65 -28.75 6.75 -37.4 7.3 -46.1 7.9 -48.15 5.35 Z"/>
    </path>
  </g>
</svg>
