<?xml version="1.0" encoding="UTF-8" standalone="no"?>
<svg xmlns:ffdec="https://www.free-decompiler.com/flash" xmlns:xlink="http://www.w3.org/1999/xlink" ffdec:objectType="morphshape" height="16.1px" width="42.3px" xmlns="http://www.w3.org/2000/svg">
  <g transform="matrix(1.0, 0.0, 0.0, 1.0, 37.15, 10.65)">
    <path d="M-34.75 2.4 L-34.75 2.4 Q-33.75 4.25 -29.65 3.9 L-26.55 3.65 Q-22.6 3.5 -18.7 3.35 -13.95 3.3 -9.95 3.4 L-6.6 3.55 Q-1.4 3.8 -1.0 1.05 -1.0 0.65 -1.0 0.3 -1.15 -1.75 -5.2 -5.45 -8.2 -7.95 -12.8 -8.65 L-18.05 -8.85 -24.3 -8.2 Q-27.75 -7.6 -29.6 -6.5 -32.45 -4.75 -34.35 -1.95 -35.7 0.5 -34.75 2.4" fill="#000000" fill-opacity="0.49803922" fill-rule="evenodd" stroke="none">
      <animate attributeName="fill" dur="2s" repeatCount="indefinite" values="#000000;#000001"/>
      <animate attributeName="fill-opacity" dur="2s" repeatCount="indefinite" values="0.49803922;0.49803922"/>
      <animate attributeName="d" dur="2s" repeatCount="indefinite" values="M-34.75 2.4 L-34.75 2.4 Q-33.75 4.25 -29.65 3.9 L-26.55 3.65 Q-22.6 3.5 -18.7 3.35 -13.95 3.3 -9.95 3.4 L-6.6 3.55 Q-1.4 3.8 -1.0 1.05 -1.0 0.65 -1.0 0.3 -1.15 -1.75 -5.2 -5.45 -8.2 -7.95 -12.8 -8.65 L-18.05 -8.85 -24.3 -8.2 Q-27.75 -7.6 -29.6 -6.5 -32.45 -4.75 -34.35 -1.95 -35.7 0.5 -34.75 2.4;M-34.3 -0.25 L-34.1 -0.2 Q-31.4 -0.35 -28.75 -0.5 L-25.65 -1.15 Q-22.15 -2.05 -17.4 -1.95 -13.05 -1.5 -8.75 -1.05 L-5.15 -0.5 Q-1.65 -0.25 1.85 -0.05 2.7 -0.15 2.95 -0.4 4.15 -1.45 -2.05 -4.85 -6.1 -6.85 -10.2 -7.8 L-15.6 -8.6 -21.85 -8.55 Q-24.9 -8.35 -27.4 -7.55 -30.45 -6.55 -33.3 -3.9 -36.45 -0.9 -34.3 -0.25"/>
    </path>
    <path d="M-34.75 2.4 Q-35.7 0.5 -34.35 -1.95 -32.45 -4.75 -29.6 -6.5 -27.75 -7.6 -24.3 -8.2 L-18.05 -8.85 -12.8 -8.65 Q-8.2 -7.95 -5.2 -5.45 -1.15 -1.75 -1.0 0.3 -1.0 0.65 -1.0 1.05 -1.4 3.8 -6.6 3.55 L-9.95 3.4 Q-13.95 3.3 -18.7 3.35 -22.6 3.5 -26.55 3.65 L-29.65 3.9 Q-33.75 4.25 -34.75 2.4 -35.7 0.5 -34.35 -1.95 -32.45 -4.75 -29.6 -6.5 -27.75 -7.6 -24.3 -8.2 L-18.05 -8.85 -12.8 -8.65 Q-8.2 -7.95 -5.2 -5.45 -1.15 -1.75 -1.0 0.3 -1.0 0.65 -1.0 1.05 -1.4 3.8 -6.6 3.55 L-9.95 3.4 Q-13.95 3.3 -18.7 3.35 -22.6 3.5 -26.55 3.65 L-29.65 3.9 Q-33.75 4.25 -34.75 2.4 L-34.75 2.4 Z" fill="none" stroke="#000000" stroke-linecap="round" stroke-linejoin="round" stroke-opacity="0.49803922" stroke-width="3.0">
      <animate attributeName="stroke" dur="2s" repeatCount="indefinite" values="#000000;#000001"/>
      <animate attributeName="stroke-width" dur="2s" repeatCount="indefinite" values="3.0;2.0"/>
      <animate attributeName="fill-opacity" dur="2s" repeatCount="indefinite" values="0.49803922;0.49803922"/>
      <animate attributeName="d" dur="2s" repeatCount="indefinite" values="M-34.75 2.4 Q-35.7 0.5 -34.35 -1.95 -32.45 -4.75 -29.6 -6.5 -27.75 -7.6 -24.3 -8.2 L-18.05 -8.85 -12.8 -8.65 Q-8.2 -7.95 -5.2 -5.45 -1.15 -1.75 -1.0 0.3 -1.0 0.65 -1.0 1.05 -1.4 3.8 -6.6 3.55 L-9.95 3.4 Q-13.95 3.3 -18.7 3.35 -22.6 3.5 -26.55 3.65 L-29.65 3.9 Q-33.75 4.25 -34.75 2.4 -35.7 0.5 -34.35 -1.95 -32.45 -4.75 -29.6 -6.5 -27.75 -7.6 -24.3 -8.2 L-18.05 -8.85 -12.8 -8.65 Q-8.2 -7.95 -5.2 -5.45 -1.15 -1.75 -1.0 0.3 -1.0 0.65 -1.0 1.05 -1.4 3.8 -6.6 3.55 L-9.95 3.4 Q-13.95 3.3 -18.7 3.35 -22.6 3.5 -26.55 3.65 L-29.65 3.9 Q-33.75 4.25 -34.75 2.4 L-34.75 2.4 Z;M-34.3 -0.25 Q-36.45 -0.9 -33.3 -3.9 -30.45 -6.55 -27.4 -7.55 -24.9 -8.35 -21.85 -8.55 L-15.6 -8.6 -10.2 -7.8 Q-6.1 -6.85 -2.05 -4.85 4.15 -1.45 2.95 -0.4 2.7 -0.15 1.85 -0.05 -1.65 -0.25 -5.15 -0.5 L-8.75 -1.05 Q-13.05 -1.5 -17.4 -1.95 -22.15 -2.05 -25.65 -1.15 L-28.75 -0.5 Q-31.4 -0.35 -34.1 -0.2 -36.45 -0.9 -33.3 -3.9 -30.45 -6.55 -27.4 -7.55 -24.9 -8.35 -21.85 -8.55 L-15.6 -8.6 -10.2 -7.8 Q-6.1 -6.85 -2.05 -4.85 4.15 -1.45 2.95 -0.4 2.7 -0.15 1.85 -0.05 -1.65 -0.25 -5.15 -0.5 L-8.75 -1.05 Q-13.05 -1.5 -17.4 -1.95 -22.15 -2.05 -25.65 -1.15 L-28.75 -0.5 Q-31.4 -0.35 -34.1 -0.2 L-34.3 -0.25 Z"/>
    </path>
  </g>
</svg>
