<?xml version="1.0" encoding="UTF-8" standalone="no"?>
<svg xmlns:ffdec="https://www.free-decompiler.com/flash" xmlns:xlink="http://www.w3.org/1999/xlink" ffdec:objectType="morphshape" height="12.65px" width="42.9px" xmlns="http://www.w3.org/2000/svg">
  <g transform="matrix(1.0, 0.0, 0.0, 1.0, 37.7, 10.65)">
    <path d="M-34.3 -0.25 Q-31.95 0.4 -25.65 -1.15 -19.3 -2.8 -8.75 -1.05 1.85 0.65 2.95 -0.4 4.15 -1.45 -0.55 -4.05 -5.3 -6.65 -10.2 -7.8 L-21.85 -8.55 Q-28.7 -8.15 -32.65 -4.55 -36.65 -0.95 -34.3 -0.25" fill="#000000" fill-opacity="0.49803922" fill-rule="evenodd" stroke="none">
      <animate attributeName="fill" dur="2s" repeatCount="indefinite" values="#000000;#000001"/>
      <animate attributeName="fill-opacity" dur="2s" repeatCount="indefinite" values="0.49803922;0.49803922"/>
      <animate attributeName="d" dur="2s" repeatCount="indefinite" values="M-34.3 -0.25 Q-31.95 0.4 -25.65 -1.15 -19.3 -2.8 -8.75 -1.05 1.85 0.65 2.95 -0.4 4.15 -1.45 -0.55 -4.05 -5.3 -6.65 -10.2 -7.8 L-21.85 -8.55 Q-28.7 -8.15 -32.65 -4.55 -36.65 -0.95 -34.3 -0.25;M-35.35 -4.05 Q-34.35 -4.15 -32.0 -5.75 -28.0 -5.65 -24.05 -5.55 -18.4 -3.8 -17.2 -4.0 -16.0 -4.25 -18.35 -5.5 -20.75 -6.8 -23.15 -7.4 L-29.0 -7.8 Q-32.4 -7.6 -34.4 -5.8 -36.4 -4.0 -35.35 -4.05"/>
    </path>
    <path d="M-34.3 -0.25 Q-36.65 -0.95 -32.65 -4.55 -28.7 -8.15 -21.85 -8.55 L-10.2 -7.8 Q-5.3 -6.65 -0.55 -4.05 4.15 -1.45 2.95 -0.4 1.85 0.65 -8.75 -1.05 -19.3 -2.8 -25.65 -1.15 -31.95 0.4 -34.3 -0.25 -36.65 -0.95 -32.65 -4.55 -28.7 -8.15 -21.85 -8.55 L-10.2 -7.8 Q-5.3 -6.65 -0.55 -4.05 4.15 -1.45 2.95 -0.4 1.85 0.65 -8.75 -1.05 -19.3 -2.8 -25.65 -1.15 -31.95 0.4 -34.3 -0.25 Z" fill="none" stroke="#000000" stroke-linecap="round" stroke-linejoin="miter" stroke-miterlimit="3.0" stroke-opacity="0.49803922" stroke-width="2.0">
      <animate attributeName="stroke" dur="2s" repeatCount="indefinite" values="#000000;#000001"/>
      <animate attributeName="stroke-width" dur="2s" repeatCount="indefinite" values="2.0;2.0"/>
      <animate attributeName="fill-opacity" dur="2s" repeatCount="indefinite" values="0.49803922;0.49803922"/>
      <animate attributeName="d" dur="2s" repeatCount="indefinite" values="M-34.3 -0.25 Q-36.65 -0.95 -32.65 -4.55 -28.7 -8.15 -21.85 -8.55 L-10.2 -7.8 Q-5.3 -6.65 -0.55 -4.05 4.15 -1.45 2.95 -0.4 1.85 0.65 -8.75 -1.05 -19.3 -2.8 -25.65 -1.15 -31.95 0.4 -34.3 -0.25 -36.65 -0.95 -32.65 -4.55 -28.7 -8.15 -21.85 -8.55 L-10.2 -7.8 Q-5.3 -6.65 -0.55 -4.05 4.15 -1.45 2.95 -0.4 1.85 0.65 -8.75 -1.05 -19.3 -2.8 -25.65 -1.15 -31.95 0.4 -34.3 -0.25 Z;M-35.35 -4.05 Q-36.4 -4.0 -34.4 -5.8 -32.4 -7.6 -29.0 -7.8 L-23.15 -7.4 Q-20.75 -6.8 -18.35 -5.5 -16.0 -4.25 -17.2 -4.0 -18.4 -3.8 -24.05 -5.55 -28.0 -5.65 -32.0 -5.75 -34.35 -4.15 -35.35 -4.05 -36.4 -4.0 -34.4 -5.8 -32.4 -7.6 -29.0 -7.8 L-23.15 -7.4 Q-20.75 -6.8 -18.35 -5.5 -16.0 -4.25 -17.2 -4.0 -18.4 -3.8 -24.05 -5.55 -28.0 -5.65 -32.0 -5.75 -34.35 -4.15 -35.35 -4.05 Z"/>
    </path>
  </g>
</svg>
