<?xml version="1.0" encoding="UTF-8" standalone="no"?>
<svg xmlns:ffdec="https://www.free-decompiler.com/flash" xmlns:xlink="http://www.w3.org/1999/xlink" ffdec:objectType="morphshape" height="22.4px" width="22.35px" xmlns="http://www.w3.org/2000/svg">
  <g transform="matrix(1.0, 0.0, 0.0, 1.0, 38.85, 17.05)">
    <path d="M-34.5 -3.35 Q-34.5 -1.65 -33.55 -3.65 -32.6 -5.65 -30.9 -6.0 -29.25 -6.4 -25.9 -5.0 -22.6 -3.65 -22.6 -5.35 -22.6 -7.05 -25.65 -7.25 -28.05 -7.35 -30.4 -7.45 -32.1 -7.45 -33.3 -6.3 -34.5 -5.05 -34.5 -3.35" fill="#000000" fill-opacity="0.49803922" fill-rule="evenodd" stroke="none">
      <animate attributeName="fill" dur="2s" repeatCount="indefinite" values="#000000;#000001"/>
      <animate attributeName="fill-opacity" dur="2s" repeatCount="indefinite" values="0.49803922;0.49803922"/>
      <animate attributeName="d" dur="2s" repeatCount="indefinite" values="M-34.5 -3.35 Q-34.5 -1.65 -33.55 -3.65 -32.6 -5.65 -30.9 -6.0 -29.25 -6.4 -25.9 -5.0 -22.6 -3.65 -22.6 -5.35 -22.6 -7.05 -25.65 -7.25 -28.05 -7.35 -30.4 -7.45 -32.1 -7.45 -33.3 -6.3 -34.5 -5.05 -34.5 -3.35;M-35.85 -5.85 Q-35.85 -2.45 -33.4 -0.1 -31.05 2.35 -27.65 2.35 -24.3 2.35 -21.85 -0.1 -19.5 -2.45 -19.5 -5.85 -19.5 -9.25 -21.85 -11.7 -24.3 -14.05 -27.65 -14.05 -31.05 -14.05 -33.4 -11.7 -35.85 -9.25 -35.85 -5.85"/>
    </path>
    <path d="M-34.5 -3.35 Q-34.5 -5.05 -33.3 -6.3 -32.1 -7.45 -30.4 -7.45 -28.05 -7.35 -25.65 -7.25 -22.6 -7.05 -22.6 -5.35 -22.6 -3.65 -25.9 -5.0 -29.25 -6.4 -30.9 -6.0 -32.6 -5.65 -33.55 -3.65 -34.5 -1.65 -34.5 -3.35 -34.5 -5.05 -33.3 -6.3 -32.1 -7.45 -30.4 -7.45 -28.05 -7.35 -25.65 -7.25 -22.6 -7.05 -22.6 -5.35 -22.6 -3.65 -25.9 -5.0 -29.25 -6.4 -30.9 -6.0 -32.6 -5.65 -33.55 -3.65 -34.5 -1.65 -34.5 -3.35 Z" fill="none" stroke="#000000" stroke-linecap="round" stroke-linejoin="miter" stroke-miterlimit="3.0" stroke-opacity="0.49803922" stroke-width="3.0">
      <animate attributeName="stroke" dur="2s" repeatCount="indefinite" values="#000000;#000001"/>
      <animate attributeName="stroke-width" dur="2s" repeatCount="indefinite" values="3.0;3.0"/>
      <animate attributeName="fill-opacity" dur="2s" repeatCount="indefinite" values="0.49803922;0.49803922"/>
      <animate attributeName="d" dur="2s" repeatCount="indefinite" values="M-34.5 -3.35 Q-34.5 -5.05 -33.3 -6.3 -32.1 -7.45 -30.4 -7.45 -28.05 -7.35 -25.65 -7.25 -22.6 -7.05 -22.6 -5.35 -22.6 -3.65 -25.9 -5.0 -29.25 -6.4 -30.9 -6.0 -32.6 -5.65 -33.55 -3.65 -34.5 -1.65 -34.5 -3.35 -34.5 -5.05 -33.3 -6.3 -32.1 -7.45 -30.4 -7.45 -28.05 -7.35 -25.65 -7.25 -22.6 -7.05 -22.6 -5.35 -22.6 -3.65 -25.9 -5.0 -29.25 -6.4 -30.9 -6.0 -32.6 -5.65 -33.55 -3.65 -34.5 -1.65 -34.5 -3.35 Z;M-35.85 -5.85 Q-35.85 -9.25 -33.4 -11.7 -31.05 -14.05 -27.65 -14.05 -24.3 -14.05 -21.85 -11.7 -19.5 -9.25 -19.5 -5.85 -19.5 -2.45 -21.85 -0.1 -24.3 2.35 -27.65 2.35 -31.05 2.35 -33.4 -0.1 -35.85 -2.45 -35.85 -5.85 -35.85 -9.25 -33.4 -11.7 -31.05 -14.05 -27.65 -14.05 -24.3 -14.05 -21.85 -11.7 -19.5 -9.25 -19.5 -5.85 -19.5 -2.45 -21.85 -0.1 -24.3 2.35 -27.65 2.35 -31.05 2.35 -33.4 -0.1 -35.85 -2.45 -35.85 -5.85 Z"/>
    </path>
  </g>
</svg>
