<?xml version="1.0" encoding="UTF-8" standalone="no"?>
<svg xmlns:ffdec="https://www.free-decompiler.com/flash" xmlns:xlink="http://www.w3.org/1999/xlink" ffdec:objectType="morphshape" height="23.35px" width="15.5px" xmlns="http://www.w3.org/2000/svg">
  <g transform="matrix(1.0, 0.0, 0.0, 1.0, 45.1, 14.85)">
    <path d="M-41.6 2.5 Q-41.6 5.0 -39.85 6.75 -38.1 8.5 -35.6 8.5 -33.1 8.5 -31.35 6.75 -29.6 5.0 -29.6 2.5 -29.6 0.0 -31.35 -1.75 -33.1 -3.5 -35.6 -3.5 -38.1 -3.5 -39.85 -1.75 -41.6 0.0 -41.6 2.5" fill="#000000" fill-rule="evenodd" stroke="none">
      <animate attributeName="fill" dur="2s" repeatCount="indefinite" values="#000000;#000001"/>
      <animate attributeName="fill-opacity" dur="2s" repeatCount="indefinite" values="1.0;1.0"/>
      <animate attributeName="d" dur="2s" repeatCount="indefinite" values="M-41.6 2.5 Q-41.6 5.0 -39.85 6.75 -38.1 8.5 -35.6 8.5 -33.1 8.5 -31.35 6.75 -29.6 5.0 -29.6 2.5 -29.6 0.0 -31.35 -1.75 -33.1 -3.5 -35.6 -3.5 -38.1 -3.5 -39.85 -1.75 -41.6 0.0 -41.6 2.5;M-45.1 -8.85 Q-45.1 -6.35 -43.35 -4.6 -41.6 -2.85 -39.1 -2.85 -36.6 -2.85 -34.85 -4.6 -33.1 -6.35 -33.1 -8.85 -33.1 -11.35 -34.85 -13.1 -36.6 -14.85 -39.1 -14.85 -41.6 -14.85 -43.35 -13.1 -45.1 -11.35 -45.1 -8.85"/>
    </path>
    <path d="M-41.6 2.5 Q-41.6 0.0 -39.85 -1.75 -38.1 -3.5 -35.6 -3.5 -33.1 -3.5 -31.35 -1.75 -29.6 0.0 -29.6 2.5 -29.6 5.0 -31.35 6.75 -33.1 8.5 -35.6 8.5 -38.1 8.5 -39.85 6.75 -41.6 5.0 -41.6 2.5 Z" fill="none" stroke="#000000" stroke-linecap="round" stroke-linejoin="round" stroke-opacity="0.0" stroke-width="0.0">
      <animate attributeName="stroke" dur="2s" repeatCount="indefinite" values="#000000;#000001"/>
      <animate attributeName="stroke-width" dur="2s" repeatCount="indefinite" values="0.0;0.0"/>
      <animate attributeName="fill-opacity" dur="2s" repeatCount="indefinite" values="0.0;0.0"/>
      <animate attributeName="d" dur="2s" repeatCount="indefinite" values="M-41.6 2.5 Q-41.6 0.0 -39.85 -1.75 -38.1 -3.5 -35.6 -3.5 -33.1 -3.5 -31.35 -1.75 -29.6 0.0 -29.6 2.5 -29.6 5.0 -31.35 6.75 -33.1 8.5 -35.6 8.5 -38.1 8.5 -39.85 6.75 -41.6 5.0 -41.6 2.5 Z;M-45.1 -8.85 Q-45.1 -11.35 -43.35 -13.1 -41.6 -14.85 -39.1 -14.85 -36.6 -14.85 -34.85 -13.1 -33.1 -11.35 -33.1 -8.85 -33.1 -6.35 -34.85 -4.6 -36.6 -2.85 -39.1 -2.85 -41.6 -2.85 -43.35 -4.6 -45.1 -6.35 -45.1 -8.85 Z"/>
    </path>
  </g>
</svg>
