<?xml version="1.0" encoding="UTF-8" standalone="no"?>
<svg xmlns:ffdec="https://www.free-decompiler.com/flash" xmlns:xlink="http://www.w3.org/1999/xlink" ffdec:objectType="morphshape" height="21.4px" width="18.5px" xmlns="http://www.w3.org/2000/svg">
  <g transform="matrix(1.0, 0.0, 0.0, 1.0, 45.1, 24.25)">
    <path d="M-45.1 -8.85 Q-45.1 -6.35 -43.35 -4.6 -41.6 -2.85 -39.1 -2.85 -36.6 -2.85 -34.85 -4.6 -33.1 -6.35 -33.1 -8.85 -33.1 -11.35 -34.85 -13.1 -36.6 -14.85 -39.1 -14.85 -41.6 -14.85 -43.35 -13.1 -45.1 -11.35 -45.1 -8.85" fill="#000000" fill-rule="evenodd" stroke="none">
      <animate attributeName="fill" dur="2s" repeatCount="indefinite" values="#000000;#000001"/>
      <animate attributeName="fill-opacity" dur="2s" repeatCount="indefinite" values="1.0;1.0"/>
      <animate attributeName="d" dur="2s" repeatCount="indefinite" values="M-45.1 -8.85 Q-45.1 -6.35 -43.35 -4.6 -41.6 -2.85 -39.1 -2.85 -36.6 -2.85 -34.85 -4.6 -33.1 -6.35 -33.1 -8.85 -33.1 -11.35 -34.85 -13.1 -36.6 -14.85 -39.1 -14.85 -41.6 -14.85 -43.35 -13.1 -45.1 -11.35 -45.1 -8.85;M-38.6 -18.25 Q-38.6 -15.75 -36.85 -14.0 -35.1 -12.25 -32.6 -12.25 -30.1 -12.25 -28.35 -14.0 -26.6 -15.75 -26.6 -18.25 -26.6 -20.75 -28.35 -22.5 -30.1 -24.25 -32.6 -24.25 -35.1 -24.25 -36.85 -22.5 -38.6 -20.75 -38.6 -18.25"/>
    </path>
    <path d="M-45.1 -8.85 Q-45.1 -11.35 -43.35 -13.1 -41.6 -14.85 -39.1 -14.85 -36.6 -14.85 -34.85 -13.1 -33.1 -11.35 -33.1 -8.85 -33.1 -6.35 -34.85 -4.6 -36.6 -2.85 -39.1 -2.85 -41.6 -2.85 -43.35 -4.6 -45.1 -6.35 -45.1 -8.85 Z" fill="none" stroke="#000000" stroke-linecap="round" stroke-linejoin="round" stroke-opacity="0.0" stroke-width="0.0">
      <animate attributeName="stroke" dur="2s" repeatCount="indefinite" values="#000000;#000001"/>
      <animate attributeName="stroke-width" dur="2s" repeatCount="indefinite" values="0.0;0.0"/>
      <animate attributeName="fill-opacity" dur="2s" repeatCount="indefinite" values="0.0;0.0"/>
      <animate attributeName="d" dur="2s" repeatCount="indefinite" values="M-45.1 -8.85 Q-45.1 -11.35 -43.35 -13.1 -41.6 -14.85 -39.1 -14.85 -36.6 -14.85 -34.85 -13.1 -33.1 -11.35 -33.1 -8.85 -33.1 -6.35 -34.85 -4.6 -36.6 -2.85 -39.1 -2.85 -41.6 -2.85 -43.35 -4.6 -45.1 -6.35 -45.1 -8.85 Z;M-38.6 -18.25 Q-38.6 -20.75 -36.85 -22.5 -35.1 -24.25 -32.6 -24.25 -30.1 -24.25 -28.35 -22.5 -26.6 -20.75 -26.6 -18.25 -26.6 -15.75 -28.35 -14.0 -30.1 -12.25 -32.6 -12.25 -35.1 -12.25 -36.85 -14.0 -38.6 -15.75 -38.6 -18.25 Z"/>
    </path>
  </g>
</svg>
