<?xml version="1.0" encoding="UTF-8" standalone="no"?>
<svg xmlns:ffdec="https://www.free-decompiler.com/flash" xmlns:xlink="http://www.w3.org/1999/xlink" ffdec:objectType="morphshape" height="27.0px" width="24.75px" xmlns="http://www.w3.org/2000/svg">
  <g transform="matrix(1.0, 0.0, 0.0, 1.0, -31.1, 33.0)">
    <path d="M41.85 -13.0 Q41.85 -10.1 43.9 -8.05 45.95 -6.0 48.85 -6.0 51.75 -6.0 53.8 -8.05 55.85 -10.1 55.85 -13.0 55.85 -15.9 53.8 -17.95 51.75 -20.0 48.85 -20.0 45.95 -20.0 43.9 -17.95 41.85 -15.9 41.85 -13.0" fill="#000000" fill-rule="evenodd" stroke="none">
      <animate attributeName="fill" dur="2s" repeatCount="indefinite" values="#000000;#000001"/>
      <animate attributeName="fill-opacity" dur="2s" repeatCount="indefinite" values="1.0;1.0"/>
      <animate attributeName="d" dur="2s" repeatCount="indefinite" values="M41.85 -13.0 Q41.85 -10.1 43.9 -8.05 45.95 -6.0 48.85 -6.0 51.75 -6.0 53.8 -8.05 55.85 -10.1 55.85 -13.0 55.85 -15.9 53.8 -17.95 51.75 -20.0 48.85 -20.0 45.95 -20.0 43.9 -17.95 41.85 -15.9 41.85 -13.0;M31.1 -26.0 Q31.1 -23.1 33.15 -21.05 35.2 -19.0 38.1 -19.0 41.0 -19.0 43.05 -21.05 45.1 -23.1 45.1 -26.0 45.1 -28.9 43.05 -30.95 41.0 -33.0 38.1 -33.0 35.2 -33.0 33.15 -30.95 31.1 -28.9 31.1 -26.0"/>
    </path>
    <path d="M41.85 -13.0 Q41.85 -15.9 43.9 -17.95 45.95 -20.0 48.85 -20.0 51.75 -20.0 53.8 -17.95 55.85 -15.9 55.85 -13.0 55.85 -10.1 53.8 -8.05 51.75 -6.0 48.85 -6.0 45.95 -6.0 43.9 -8.05 41.85 -10.1 41.85 -13.0 Z" fill="none" stroke="#000000" stroke-linecap="round" stroke-linejoin="round" stroke-opacity="0.0" stroke-width="0.0">
      <animate attributeName="stroke" dur="2s" repeatCount="indefinite" values="#000000;#000001"/>
      <animate attributeName="stroke-width" dur="2s" repeatCount="indefinite" values="0.0;0.0"/>
      <animate attributeName="fill-opacity" dur="2s" repeatCount="indefinite" values="0.0;0.0"/>
      <animate attributeName="d" dur="2s" repeatCount="indefinite" values="M41.85 -13.0 Q41.85 -15.9 43.9 -17.95 45.95 -20.0 48.85 -20.0 51.75 -20.0 53.8 -17.95 55.85 -15.9 55.85 -13.0 55.85 -10.1 53.8 -8.05 51.75 -6.0 48.85 -6.0 45.95 -6.0 43.9 -8.05 41.85 -10.1 41.85 -13.0 Z;M31.1 -26.0 Q31.1 -28.9 33.15 -30.95 35.2 -33.0 38.1 -33.0 41.0 -33.0 43.05 -30.95 45.1 -28.9 45.1 -26.0 45.1 -23.1 43.05 -21.05 41.0 -19.0 38.1 -19.0 35.2 -19.0 33.15 -21.05 31.1 -23.1 31.1 -26.0 Z"/>
    </path>
  </g>
</svg>
