<?xml version="1.0" encoding="UTF-8" standalone="no"?>
<svg xmlns:ffdec="https://www.free-decompiler.com/flash" xmlns:xlink="http://www.w3.org/1999/xlink" ffdec:objectType="morphshape" height="17.0px" width="20.0px" xmlns="http://www.w3.org/2000/svg">
  <g transform="matrix(1.0, 0.0, 0.0, 1.0, 38.6, 24.25)">
    <path d="M-38.6 -18.25 Q-38.6 -15.75 -36.85 -14.0 -35.1 -12.25 -32.6 -12.25 -30.1 -12.25 -28.35 -14.0 -26.6 -15.75 -26.6 -18.25 -26.6 -20.75 -28.35 -22.5 -30.1 -24.25 -32.6 -24.25 -35.1 -24.25 -36.85 -22.5 -38.6 -20.75 -38.6 -18.25" fill="#000000" fill-rule="evenodd" stroke="none">
      <animate attributeName="fill" dur="2s" repeatCount="indefinite" values="#000000;#000001"/>
      <animate attributeName="fill-opacity" dur="2s" repeatCount="indefinite" values="1.0;1.0"/>
      <animate attributeName="d" dur="2s" repeatCount="indefinite" values="M-38.6 -18.25 Q-38.6 -15.75 -36.85 -14.0 -35.1 -12.25 -32.6 -12.25 -30.1 -12.25 -28.35 -14.0 -26.6 -15.75 -26.6 -18.25 -26.6 -20.75 -28.35 -22.5 -30.1 -24.25 -32.6 -24.25 -35.1 -24.25 -36.85 -22.5 -38.6 -20.75 -38.6 -18.25;M-30.6 -13.25 Q-30.6 -10.75 -28.85 -9.0 -27.1 -7.25 -24.6 -7.25 -22.1 -7.25 -20.35 -9.0 -18.6 -10.75 -18.6 -13.25 -18.6 -15.75 -20.35 -17.5 -22.1 -19.25 -24.6 -19.25 -27.1 -19.25 -28.85 -17.5 -30.6 -15.75 -30.6 -13.25"/>
    </path>
    <path d="M-38.6 -18.25 Q-38.6 -20.75 -36.85 -22.5 -35.1 -24.25 -32.6 -24.25 -30.1 -24.25 -28.35 -22.5 -26.6 -20.75 -26.6 -18.25 -26.6 -15.75 -28.35 -14.0 -30.1 -12.25 -32.6 -12.25 -35.1 -12.25 -36.85 -14.0 -38.6 -15.75 -38.6 -18.25 Z" fill="none" stroke="#000000" stroke-linecap="round" stroke-linejoin="round" stroke-opacity="0.0" stroke-width="0.0">
      <animate attributeName="stroke" dur="2s" repeatCount="indefinite" values="#000000;#000001"/>
      <animate attributeName="stroke-width" dur="2s" repeatCount="indefinite" values="0.0;0.0"/>
      <animate attributeName="fill-opacity" dur="2s" repeatCount="indefinite" values="0.0;0.0"/>
      <animate attributeName="d" dur="2s" repeatCount="indefinite" values="M-38.6 -18.25 Q-38.6 -20.75 -36.85 -22.5 -35.1 -24.25 -32.6 -24.25 -30.1 -24.25 -28.35 -22.5 -26.6 -20.75 -26.6 -18.25 -26.6 -15.75 -28.35 -14.0 -30.1 -12.25 -32.6 -12.25 -35.1 -12.25 -36.85 -14.0 -38.6 -15.75 -38.6 -18.25 Z;M-30.6 -13.25 Q-30.6 -15.75 -28.85 -17.5 -27.1 -19.25 -24.6 -19.25 -22.1 -19.25 -20.35 -17.5 -18.6 -15.75 -18.6 -13.25 -18.6 -10.75 -20.35 -9.0 -22.1 -7.25 -24.6 -7.25 -27.1 -7.25 -28.85 -9.0 -30.6 -10.75 -30.6 -13.25 Z"/>
    </path>
  </g>
</svg>
