<?xml version="1.0" encoding="UTF-8" standalone="no"?>
<svg xmlns:ffdec="https://www.free-decompiler.com/flash" xmlns:xlink="http://www.w3.org/1999/xlink" ffdec:objectType="morphshape" height="23.25px" width="34.75px" xmlns="http://www.w3.org/2000/svg">
  <g transform="matrix(1.0, 0.0, 0.0, 1.0, -10.35, 33.0)">
    <path d="M31.1 -26.0 Q31.1 -23.1 33.15 -21.05 35.2 -19.0 38.1 -19.0 41.0 -19.0 43.05 -21.05 45.1 -23.1 45.1 -26.0 45.1 -28.9 43.05 -30.95 41.0 -33.0 38.1 -33.0 35.2 -33.0 33.15 -30.95 31.1 -28.9 31.1 -26.0" fill="#000000" fill-rule="evenodd" stroke="none">
      <animate attributeName="fill" dur="2s" repeatCount="indefinite" values="#000000;#000001"/>
      <animate attributeName="fill-opacity" dur="2s" repeatCount="indefinite" values="1.0;1.0"/>
      <animate attributeName="d" dur="2s" repeatCount="indefinite" values="M31.1 -26.0 Q31.1 -23.1 33.15 -21.05 35.2 -19.0 38.1 -19.0 41.0 -19.0 43.05 -21.05 45.1 -23.1 45.1 -26.0 45.1 -28.9 43.05 -30.95 41.0 -33.0 38.1 -33.0 35.2 -33.0 33.15 -30.95 31.1 -28.9 31.1 -26.0;M10.35 -16.75 Q10.35 -13.85 12.4 -11.8 14.45 -9.75 17.35 -9.75 20.25 -9.75 22.3 -11.8 24.35 -13.85 24.35 -16.75 24.35 -19.65 22.3 -21.7 20.25 -23.75 17.35 -23.75 14.45 -23.75 12.4 -21.7 10.35 -19.65 10.35 -16.75"/>
    </path>
    <path d="M31.1 -26.0 Q31.1 -28.9 33.15 -30.95 35.2 -33.0 38.1 -33.0 41.0 -33.0 43.05 -30.95 45.1 -28.9 45.1 -26.0 45.1 -23.1 43.05 -21.05 41.0 -19.0 38.1 -19.0 35.2 -19.0 33.15 -21.05 31.1 -23.1 31.1 -26.0 Z" fill="none" stroke="#000000" stroke-linecap="round" stroke-linejoin="round" stroke-opacity="0.0" stroke-width="0.0">
      <animate attributeName="stroke" dur="2s" repeatCount="indefinite" values="#000000;#000001"/>
      <animate attributeName="stroke-width" dur="2s" repeatCount="indefinite" values="0.0;0.0"/>
      <animate attributeName="fill-opacity" dur="2s" repeatCount="indefinite" values="0.0;0.0"/>
      <animate attributeName="d" dur="2s" repeatCount="indefinite" values="M31.1 -26.0 Q31.1 -28.9 33.15 -30.95 35.2 -33.0 38.1 -33.0 41.0 -33.0 43.05 -30.95 45.1 -28.9 45.1 -26.0 45.1 -23.1 43.05 -21.05 41.0 -19.0 38.1 -19.0 35.2 -19.0 33.15 -21.05 31.1 -23.1 31.1 -26.0 Z;M10.35 -16.75 Q10.35 -19.65 12.4 -21.7 14.45 -23.75 17.35 -23.75 20.25 -23.75 22.3 -21.7 24.35 -19.65 24.35 -16.75 24.35 -13.85 22.3 -11.8 20.25 -9.75 17.35 -9.75 14.45 -9.75 12.4 -11.8 10.35 -13.85 10.35 -16.75 Z"/>
    </path>
  </g>
</svg>
