<?xml version="1.0" encoding="UTF-8" standalone="no"?>
<svg xmlns:ffdec="https://www.free-decompiler.com/flash" xmlns:xlink="http://www.w3.org/1999/xlink" ffdec:objectType="morphshape" height="27.5px" width="23.0px" xmlns="http://www.w3.org/2000/svg">
  <g transform="matrix(1.0, 0.0, 0.0, 1.0, 41.6, 19.25)">
    <path d="M-30.6 -13.25 Q-30.6 -10.75 -28.85 -9.0 -27.1 -7.25 -24.6 -7.25 -22.1 -7.25 -20.35 -9.0 -18.6 -10.75 -18.6 -13.25 -18.6 -15.75 -20.35 -17.5 -22.1 -19.25 -24.6 -19.25 -27.1 -19.25 -28.85 -17.5 -30.6 -15.75 -30.6 -13.25" fill="#000000" fill-rule="evenodd" stroke="none">
      <animate attributeName="fill" dur="2s" repeatCount="indefinite" values="#000000;#000001"/>
      <animate attributeName="fill-opacity" dur="2s" repeatCount="indefinite" values="1.0;1.0"/>
      <animate attributeName="d" dur="2s" repeatCount="indefinite" values="M-30.6 -13.25 Q-30.6 -10.75 -28.85 -9.0 -27.1 -7.25 -24.6 -7.25 -22.1 -7.25 -20.35 -9.0 -18.6 -10.75 -18.6 -13.25 -18.6 -15.75 -20.35 -17.5 -22.1 -19.25 -24.6 -19.25 -27.1 -19.25 -28.85 -17.5 -30.6 -15.75 -30.6 -13.25;M-41.6 2.25 Q-41.6 4.75 -39.85 6.5 -38.1 8.25 -35.6 8.25 -33.1 8.25 -31.35 6.5 -29.6 4.75 -29.6 2.25 -29.6 -0.25 -31.35 -2.0 -33.1 -3.75 -35.6 -3.75 -38.1 -3.75 -39.85 -2.0 -41.6 -0.25 -41.6 2.25"/>
    </path>
    <path d="M-30.6 -13.25 Q-30.6 -15.75 -28.85 -17.5 -27.1 -19.25 -24.6 -19.25 -22.1 -19.25 -20.35 -17.5 -18.6 -15.75 -18.6 -13.25 -18.6 -10.75 -20.35 -9.0 -22.1 -7.25 -24.6 -7.25 -27.1 -7.25 -28.85 -9.0 -30.6 -10.75 -30.6 -13.25 Z" fill="none" stroke="#000000" stroke-linecap="round" stroke-linejoin="round" stroke-opacity="0.0" stroke-width="0.0">
      <animate attributeName="stroke" dur="2s" repeatCount="indefinite" values="#000000;#000001"/>
      <animate attributeName="stroke-width" dur="2s" repeatCount="indefinite" values="0.0;0.0"/>
      <animate attributeName="fill-opacity" dur="2s" repeatCount="indefinite" values="0.0;0.0"/>
      <animate attributeName="d" dur="2s" repeatCount="indefinite" values="M-30.6 -13.25 Q-30.6 -15.75 -28.85 -17.5 -27.1 -19.25 -24.6 -19.25 -22.1 -19.25 -20.35 -17.5 -18.6 -15.75 -18.6 -13.25 -18.6 -10.75 -20.35 -9.0 -22.1 -7.25 -24.6 -7.25 -27.1 -7.25 -28.85 -9.0 -30.6 -10.75 -30.6 -13.25 Z;M-41.6 2.25 Q-41.6 -0.25 -39.85 -2.0 -38.1 -3.75 -35.6 -3.75 -33.1 -3.75 -31.35 -2.0 -29.6 -0.25 -29.6 2.25 -29.6 4.75 -31.35 6.5 -33.1 8.25 -35.6 8.25 -38.1 8.25 -39.85 6.5 -41.6 4.75 -41.6 2.25 Z"/>
    </path>
  </g>
</svg>
