<?xml version="1.0" encoding="UTF-8" standalone="no"?>
<svg xmlns:ffdec="https://www.free-decompiler.com/flash" xmlns:xlink="http://www.w3.org/1999/xlink" ffdec:objectType="morphshape" height="34.5px" width="23.5px" xmlns="http://www.w3.org/2000/svg">
  <g transform="matrix(1.0, 0.0, 0.0, 1.0, -10.35, 23.75)">
    <path d="M10.35 -16.75 Q10.35 -13.85 12.4 -11.8 14.45 -9.75 17.35 -9.75 20.25 -9.75 22.3 -11.8 24.35 -13.85 24.35 -16.75 24.35 -19.65 22.3 -21.7 20.25 -23.75 17.35 -23.75 14.45 -23.75 12.4 -21.7 10.35 -19.65 10.35 -16.75" fill="#000000" fill-rule="evenodd" stroke="none">
      <animate attributeName="fill" dur="2s" repeatCount="indefinite" values="#000000;#000001"/>
      <animate attributeName="fill-opacity" dur="2s" repeatCount="indefinite" values="1.0;1.0"/>
      <animate attributeName="d" dur="2s" repeatCount="indefinite" values="M10.35 -16.75 Q10.35 -13.85 12.4 -11.8 14.45 -9.75 17.35 -9.75 20.25 -9.75 22.3 -11.8 24.35 -13.85 24.35 -16.75 24.35 -19.65 22.3 -21.7 20.25 -23.75 17.35 -23.75 14.45 -23.75 12.4 -21.7 10.35 -19.65 10.35 -16.75;M19.85 3.75 Q19.85 6.65 21.9 8.7 23.95 10.75 26.85 10.75 29.75 10.75 31.8 8.7 33.85 6.65 33.85 3.75 33.85 0.85 31.8 -1.2 29.75 -3.25 26.85 -3.25 23.95 -3.25 21.9 -1.2 19.85 0.85 19.85 3.75"/>
    </path>
    <path d="M10.35 -16.75 Q10.35 -19.65 12.4 -21.7 14.45 -23.75 17.35 -23.75 20.25 -23.75 22.3 -21.7 24.35 -19.65 24.35 -16.75 24.35 -13.85 22.3 -11.8 20.25 -9.75 17.35 -9.75 14.45 -9.75 12.4 -11.8 10.35 -13.85 10.35 -16.75 Z" fill="none" stroke="#000000" stroke-linecap="round" stroke-linejoin="round" stroke-opacity="0.0" stroke-width="0.0">
      <animate attributeName="stroke" dur="2s" repeatCount="indefinite" values="#000000;#000001"/>
      <animate attributeName="stroke-width" dur="2s" repeatCount="indefinite" values="0.0;0.0"/>
      <animate attributeName="fill-opacity" dur="2s" repeatCount="indefinite" values="0.0;0.0"/>
      <animate attributeName="d" dur="2s" repeatCount="indefinite" values="M10.35 -16.75 Q10.35 -19.65 12.4 -21.7 14.45 -23.75 17.35 -23.75 20.25 -23.75 22.3 -21.7 24.35 -19.65 24.35 -16.75 24.35 -13.85 22.3 -11.8 20.25 -9.75 17.35 -9.75 14.45 -9.75 12.4 -11.8 10.35 -13.85 10.35 -16.75 Z;M19.85 3.75 Q19.85 0.85 21.9 -1.2 23.95 -3.25 26.85 -3.25 29.75 -3.25 31.8 -1.2 33.85 0.85 33.85 3.75 33.85 6.65 31.8 8.7 29.75 10.75 26.85 10.75 23.95 10.75 21.9 8.7 19.85 6.65 19.85 3.75 Z"/>
    </path>
  </g>
</svg>
