<?xml version="1.0" encoding="UTF-8" standalone="no"?>
<svg xmlns:ffdec="https://www.free-decompiler.com/flash" xmlns:xlink="http://www.w3.org/1999/xlink" ffdec:objectType="morphshape" height="23.75px" width="14.5px" xmlns="http://www.w3.org/2000/svg">
  <g transform="matrix(1.0, 0.0, 0.0, 1.0, 44.1, 15.5)">
    <path d="M-41.6 2.25 Q-41.6 4.75 -39.85 6.5 -38.1 8.25 -35.6 8.25 -33.1 8.25 -31.35 6.5 -29.6 4.75 -29.6 2.25 -29.6 -0.25 -31.35 -2.0 -33.1 -3.75 -35.6 -3.75 -38.1 -3.75 -39.85 -2.0 -41.6 -0.25 -41.6 2.25" fill="#000000" fill-rule="evenodd" stroke="none">
      <animate attributeName="fill" dur="2s" repeatCount="indefinite" values="#000000;#000001"/>
      <animate attributeName="fill-opacity" dur="2s" repeatCount="indefinite" values="1.0;1.0"/>
      <animate attributeName="d" dur="2s" repeatCount="indefinite" values="M-41.6 2.25 Q-41.6 4.75 -39.85 6.5 -38.1 8.25 -35.6 8.25 -33.1 8.25 -31.35 6.5 -29.6 4.75 -29.6 2.25 -29.6 -0.25 -31.35 -2.0 -33.1 -3.75 -35.6 -3.75 -38.1 -3.75 -39.85 -2.0 -41.6 -0.25 -41.6 2.25;M-44.1 -9.5 Q-44.1 -7.0 -42.35 -5.25 -40.6 -3.5 -38.1 -3.5 -35.6 -3.5 -33.85 -5.25 -32.1 -7.0 -32.1 -9.5 -32.1 -12.0 -33.85 -13.75 -35.6 -15.5 -38.1 -15.5 -40.6 -15.5 -42.35 -13.75 -44.1 -12.0 -44.1 -9.5"/>
    </path>
    <path d="M-41.6 2.25 Q-41.6 -0.25 -39.85 -2.0 -38.1 -3.75 -35.6 -3.75 -33.1 -3.75 -31.35 -2.0 -29.6 -0.25 -29.6 2.25 -29.6 4.75 -31.35 6.5 -33.1 8.25 -35.6 8.25 -38.1 8.25 -39.85 6.5 -41.6 4.75 -41.6 2.25 Z" fill="none" stroke="#000000" stroke-linecap="round" stroke-linejoin="round" stroke-opacity="0.0" stroke-width="0.0">
      <animate attributeName="stroke" dur="2s" repeatCount="indefinite" values="#000000;#000001"/>
      <animate attributeName="stroke-width" dur="2s" repeatCount="indefinite" values="0.0;0.0"/>
      <animate attributeName="fill-opacity" dur="2s" repeatCount="indefinite" values="0.0;0.0"/>
      <animate attributeName="d" dur="2s" repeatCount="indefinite" values="M-41.6 2.25 Q-41.6 -0.25 -39.85 -2.0 -38.1 -3.75 -35.6 -3.75 -33.1 -3.75 -31.35 -2.0 -29.6 -0.25 -29.6 2.25 -29.6 4.75 -31.35 6.5 -33.1 8.25 -35.6 8.25 -38.1 8.25 -39.85 6.5 -41.6 4.75 -41.6 2.25 Z;M-44.1 -9.5 Q-44.1 -12.0 -42.35 -13.75 -40.6 -15.5 -38.1 -15.5 -35.6 -15.5 -33.85 -13.75 -32.1 -12.0 -32.1 -9.5 -32.1 -7.0 -33.85 -5.25 -35.6 -3.5 -38.1 -3.5 -40.6 -3.5 -42.35 -5.25 -44.1 -7.0 -44.1 -9.5 Z"/>
    </path>
  </g>
</svg>
