<?xml version="1.0" encoding="UTF-8" standalone="no"?>
<svg xmlns:ffdec="https://www.free-decompiler.com/flash" xmlns:xlink="http://www.w3.org/1999/xlink" ffdec:objectType="morphshape" height="16.5px" width="31.5px" xmlns="http://www.w3.org/2000/svg">
  <g transform="matrix(1.0, 0.0, 0.0, 1.0, -15.1, 19.5)">
    <path d="M32.6 -10.0 Q32.6 -7.1 34.65 -5.05 36.7 -3.0 39.6 -3.0 42.5 -3.0 44.55 -5.05 46.6 -7.1 46.6 -10.0 46.6 -12.9 44.55 -14.95 42.5 -17.0 39.6 -17.0 36.7 -17.0 34.65 -14.95 32.6 -12.9 32.6 -10.0" fill="#000000" fill-rule="evenodd" stroke="none">
      <animate attributeName="fill" dur="2s" repeatCount="indefinite" values="#000000;#000001"/>
      <animate attributeName="fill-opacity" dur="2s" repeatCount="indefinite" values="1.0;1.0"/>
      <animate attributeName="d" dur="2s" repeatCount="indefinite" values="M32.6 -10.0 Q32.6 -7.1 34.65 -5.05 36.7 -3.0 39.6 -3.0 42.5 -3.0 44.55 -5.05 46.6 -7.1 46.6 -10.0 46.6 -12.9 44.55 -14.95 42.5 -17.0 39.6 -17.0 36.7 -17.0 34.65 -14.95 32.6 -12.9 32.6 -10.0;M15.1 -12.5 Q15.1 -9.6 17.15 -7.55 19.2 -5.5 22.1 -5.5 25.0 -5.5 27.05 -7.55 29.1 -9.6 29.1 -12.5 29.1 -15.4 27.05 -17.45 25.0 -19.5 22.1 -19.5 19.2 -19.5 17.15 -17.45 15.1 -15.4 15.1 -12.5"/>
    </path>
    <path d="M32.6 -10.0 Q32.6 -12.9 34.65 -14.95 36.7 -17.0 39.6 -17.0 42.5 -17.0 44.55 -14.95 46.6 -12.9 46.6 -10.0 46.6 -7.1 44.55 -5.05 42.5 -3.0 39.6 -3.0 36.7 -3.0 34.65 -5.05 32.6 -7.1 32.6 -10.0 Z" fill="none" stroke="#000000" stroke-linecap="round" stroke-linejoin="round" stroke-opacity="0.0" stroke-width="0.0">
      <animate attributeName="stroke" dur="2s" repeatCount="indefinite" values="#000000;#000001"/>
      <animate attributeName="stroke-width" dur="2s" repeatCount="indefinite" values="0.0;0.0"/>
      <animate attributeName="fill-opacity" dur="2s" repeatCount="indefinite" values="0.0;0.0"/>
      <animate attributeName="d" dur="2s" repeatCount="indefinite" values="M32.6 -10.0 Q32.6 -12.9 34.65 -14.95 36.7 -17.0 39.6 -17.0 42.5 -17.0 44.55 -14.95 46.6 -12.9 46.6 -10.0 46.6 -7.1 44.55 -5.05 42.5 -3.0 39.6 -3.0 36.7 -3.0 34.65 -5.05 32.6 -7.1 32.6 -10.0 Z;M15.1 -12.5 Q15.1 -15.4 17.15 -17.45 19.2 -19.5 22.1 -19.5 25.0 -19.5 27.05 -17.45 29.1 -15.4 29.1 -12.5 29.1 -9.6 27.05 -7.55 25.0 -5.5 22.1 -5.5 19.2 -5.5 17.15 -7.55 15.1 -9.6 15.1 -12.5 Z"/>
    </path>
  </g>
</svg>
