<?xml version="1.0" encoding="UTF-8" standalone="no"?>
<svg xmlns:ffdec="https://www.free-decompiler.com/flash" xmlns:xlink="http://www.w3.org/1999/xlink" ffdec:objectType="morphshape" height="19.5px" width="27.0px" xmlns="http://www.w3.org/2000/svg">
  <g transform="matrix(1.0, 0.0, 0.0, 1.0, 46.6, 18.0)">
    <path d="M-31.6 -4.5 Q-31.6 -2.0 -29.85 -0.25 -28.1 1.5 -25.6 1.5 -23.1 1.5 -21.35 -0.25 -19.6 -2.0 -19.6 -4.5 -19.6 -7.0 -21.35 -8.75 -23.1 -10.5 -25.6 -10.5 -28.1 -10.5 -29.85 -8.75 -31.6 -7.0 -31.6 -4.5" fill="#000000" fill-rule="evenodd" stroke="none">
      <animate attributeName="fill" dur="2s" repeatCount="indefinite" values="#000000;#000001"/>
      <animate attributeName="fill-opacity" dur="2s" repeatCount="indefinite" values="1.0;1.0"/>
      <animate attributeName="d" dur="2s" repeatCount="indefinite" values="M-31.6 -4.5 Q-31.6 -2.0 -29.85 -0.25 -28.1 1.5 -25.6 1.5 -23.1 1.5 -21.35 -0.25 -19.6 -2.0 -19.6 -4.5 -19.6 -7.0 -21.35 -8.75 -23.1 -10.5 -25.6 -10.5 -28.1 -10.5 -29.85 -8.75 -31.6 -7.0 -31.6 -4.5;M-46.6 -12.0 Q-46.6 -9.5 -44.85 -7.75 -43.1 -6.0 -40.6 -6.0 -38.1 -6.0 -36.35 -7.75 -34.6 -9.5 -34.6 -12.0 -34.6 -14.5 -36.35 -16.25 -38.1 -18.0 -40.6 -18.0 -43.1 -18.0 -44.85 -16.25 -46.6 -14.5 -46.6 -12.0"/>
    </path>
    <path d="M-31.6 -4.5 Q-31.6 -7.0 -29.85 -8.75 -28.1 -10.5 -25.6 -10.5 -23.1 -10.5 -21.35 -8.75 -19.6 -7.0 -19.6 -4.5 -19.6 -2.0 -21.35 -0.25 -23.1 1.5 -25.6 1.5 -28.1 1.5 -29.85 -0.25 -31.6 -2.0 -31.6 -4.5 Z" fill="none" stroke="#000000" stroke-linecap="round" stroke-linejoin="round" stroke-opacity="0.0" stroke-width="0.0">
      <animate attributeName="stroke" dur="2s" repeatCount="indefinite" values="#000000;#000001"/>
      <animate attributeName="stroke-width" dur="2s" repeatCount="indefinite" values="0.0;0.0"/>
      <animate attributeName="fill-opacity" dur="2s" repeatCount="indefinite" values="0.0;0.0"/>
      <animate attributeName="d" dur="2s" repeatCount="indefinite" values="M-31.6 -4.5 Q-31.6 -7.0 -29.85 -8.75 -28.1 -10.5 -25.6 -10.5 -23.1 -10.5 -21.35 -8.75 -19.6 -7.0 -19.6 -4.5 -19.6 -2.0 -21.35 -0.25 -23.1 1.5 -25.6 1.5 -28.1 1.5 -29.85 -0.25 -31.6 -2.0 -31.6 -4.5 Z;M-46.6 -12.0 Q-46.6 -14.5 -44.85 -16.25 -43.1 -18.0 -40.6 -18.0 -38.1 -18.0 -36.35 -16.25 -34.6 -14.5 -34.6 -12.0 -34.6 -9.5 -36.35 -7.75 -38.1 -6.0 -40.6 -6.0 -43.1 -6.0 -44.85 -7.75 -46.6 -9.5 -46.6 -12.0 Z"/>
    </path>
  </g>
</svg>
