<?xml version="1.0" encoding="UTF-8" standalone="no"?>
<svg xmlns:ffdec="https://www.free-decompiler.com/flash" xmlns:xlink="http://www.w3.org/1999/xlink" ffdec:objectType="morphshape" height="21.5px" width="39.0px" xmlns="http://www.w3.org/2000/svg">
  <g transform="matrix(1.0, 0.0, 0.0, 1.0, -15.1, 19.5)">
    <path d="M15.1 -12.5 Q15.1 -9.6 17.15 -7.55 19.2 -5.5 22.1 -5.5 25.0 -5.5 27.05 -7.55 29.1 -9.6 29.1 -12.5 29.1 -15.4 27.05 -17.45 25.0 -19.5 22.1 -19.5 19.2 -19.5 17.15 -17.45 15.1 -15.4 15.1 -12.5" fill="#000000" fill-rule="evenodd" stroke="none">
      <animate attributeName="fill" dur="2s" repeatCount="indefinite" values="#000000;#000001"/>
      <animate attributeName="fill-opacity" dur="2s" repeatCount="indefinite" values="1.0;1.0"/>
      <animate attributeName="d" dur="2s" repeatCount="indefinite" values="M15.1 -12.5 Q15.1 -9.6 17.15 -7.55 19.2 -5.5 22.1 -5.5 25.0 -5.5 27.05 -7.55 29.1 -9.6 29.1 -12.5 29.1 -15.4 27.05 -17.45 25.0 -19.5 22.1 -19.5 19.2 -19.5 17.15 -17.45 15.1 -15.4 15.1 -12.5;M40.1 -5.0 Q40.1 -2.1 42.15 -0.05 44.2 2.0 47.1 2.0 50.0 2.0 52.05 -0.05 54.1 -2.1 54.1 -5.0 54.1 -7.9 52.05 -9.95 50.0 -12.0 47.1 -12.0 44.2 -12.0 42.15 -9.95 40.1 -7.9 40.1 -5.0"/>
    </path>
    <path d="M15.1 -12.5 Q15.1 -15.4 17.15 -17.45 19.2 -19.5 22.1 -19.5 25.0 -19.5 27.05 -17.45 29.1 -15.4 29.1 -12.5 29.1 -9.6 27.05 -7.55 25.0 -5.5 22.1 -5.5 19.2 -5.5 17.15 -7.55 15.1 -9.6 15.1 -12.5 Z" fill="none" stroke="#000000" stroke-linecap="round" stroke-linejoin="round" stroke-opacity="0.0" stroke-width="0.0">
      <animate attributeName="stroke" dur="2s" repeatCount="indefinite" values="#000000;#000001"/>
      <animate attributeName="stroke-width" dur="2s" repeatCount="indefinite" values="0.0;0.0"/>
      <animate attributeName="fill-opacity" dur="2s" repeatCount="indefinite" values="0.0;0.0"/>
      <animate attributeName="d" dur="2s" repeatCount="indefinite" values="M15.1 -12.5 Q15.1 -15.4 17.15 -17.45 19.2 -19.5 22.1 -19.5 25.0 -19.5 27.05 -17.45 29.1 -15.4 29.1 -12.5 29.1 -9.6 27.05 -7.55 25.0 -5.5 22.1 -5.5 19.2 -5.5 17.15 -7.55 15.1 -9.6 15.1 -12.5 Z;M40.1 -5.0 Q40.1 -7.9 42.15 -9.95 44.2 -12.0 47.1 -12.0 50.0 -12.0 52.05 -9.95 54.1 -7.9 54.1 -5.0 54.1 -2.1 52.05 -0.05 50.0 2.0 47.1 2.0 44.2 2.0 42.15 -0.05 40.1 -2.1 40.1 -5.0 Z"/>
    </path>
  </g>
</svg>
