<?xml version="1.0" encoding="UTF-8" standalone="no"?>
<svg xmlns:ffdec="https://www.free-decompiler.com/flash" xmlns:xlink="http://www.w3.org/1999/xlink" ffdec:objectType="morphshape" height="26.25px" width="17.0px" xmlns="http://www.w3.org/2000/svg">
  <g transform="matrix(1.0, 0.0, 0.0, 1.0, 46.6, 18.0)">
    <path d="M-46.6 -12.0 Q-46.6 -9.5 -44.85 -7.75 -43.1 -6.0 -40.6 -6.0 -38.1 -6.0 -36.35 -7.75 -34.6 -9.5 -34.6 -12.0 -34.6 -14.5 -36.35 -16.25 -38.1 -18.0 -40.6 -18.0 -43.1 -18.0 -44.85 -16.25 -46.6 -14.5 -46.6 -12.0" fill="#000000" fill-rule="evenodd" stroke="none">
      <animate attributeName="fill" dur="2s" repeatCount="indefinite" values="#000000;#000001"/>
      <animate attributeName="fill-opacity" dur="2s" repeatCount="indefinite" values="1.0;1.0"/>
      <animate attributeName="d" dur="2s" repeatCount="indefinite" values="M-46.6 -12.0 Q-46.6 -9.5 -44.85 -7.75 -43.1 -6.0 -40.6 -6.0 -38.1 -6.0 -36.35 -7.75 -34.6 -9.5 -34.6 -12.0 -34.6 -14.5 -36.35 -16.25 -38.1 -18.0 -40.6 -18.0 -43.1 -18.0 -44.85 -16.25 -46.6 -14.5 -46.6 -12.0;M-41.6 2.25 Q-41.6 4.75 -39.85 6.5 -38.1 8.25 -35.6 8.25 -33.1 8.25 -31.35 6.5 -29.6 4.75 -29.6 2.25 -29.6 -0.25 -31.35 -2.0 -33.1 -3.75 -35.6 -3.75 -38.1 -3.75 -39.85 -2.0 -41.6 -0.25 -41.6 2.25"/>
    </path>
    <path d="M-46.6 -12.0 Q-46.6 -14.5 -44.85 -16.25 -43.1 -18.0 -40.6 -18.0 -38.1 -18.0 -36.35 -16.25 -34.6 -14.5 -34.6 -12.0 -34.6 -9.5 -36.35 -7.75 -38.1 -6.0 -40.6 -6.0 -43.1 -6.0 -44.85 -7.75 -46.6 -9.5 -46.6 -12.0 Z" fill="none" stroke="#000000" stroke-linecap="round" stroke-linejoin="round" stroke-opacity="0.0" stroke-width="0.0">
      <animate attributeName="stroke" dur="2s" repeatCount="indefinite" values="#000000;#000001"/>
      <animate attributeName="stroke-width" dur="2s" repeatCount="indefinite" values="0.0;0.0"/>
      <animate attributeName="fill-opacity" dur="2s" repeatCount="indefinite" values="0.0;0.0"/>
      <animate attributeName="d" dur="2s" repeatCount="indefinite" values="M-46.6 -12.0 Q-46.6 -14.5 -44.85 -16.25 -43.1 -18.0 -40.6 -18.0 -38.1 -18.0 -36.35 -16.25 -34.6 -14.5 -34.6 -12.0 -34.6 -9.5 -36.35 -7.75 -38.1 -6.0 -40.6 -6.0 -43.1 -6.0 -44.85 -7.75 -46.6 -9.5 -46.6 -12.0 Z;M-41.6 2.25 Q-41.6 -0.25 -39.85 -2.0 -38.1 -3.75 -35.6 -3.75 -33.1 -3.75 -31.35 -2.0 -29.6 -0.25 -29.6 2.25 -29.6 4.75 -31.35 6.5 -33.1 8.25 -35.6 8.25 -38.1 8.25 -39.85 6.5 -41.6 4.75 -41.6 2.25 Z"/>
    </path>
  </g>
</svg>
