<?xml version="1.0" encoding="UTF-8" standalone="no"?>
<svg xmlns:ffdec="https://www.free-decompiler.com/flash" xmlns:xlink="http://www.w3.org/1999/xlink" ffdec:objectType="morphshape" height="22.75px" width="34.25px" xmlns="http://www.w3.org/2000/svg">
  <g transform="matrix(1.0, 0.0, 0.0, 1.0, -19.85, 12.0)">
    <path d="M40.1 -5.0 Q40.1 -2.1 42.15 -0.05 44.2 2.0 47.1 2.0 50.0 2.0 52.05 -0.05 54.1 -2.1 54.1 -5.0 54.1 -7.9 52.05 -9.95 50.0 -12.0 47.1 -12.0 44.2 -12.0 42.15 -9.95 40.1 -7.9 40.1 -5.0" fill="#000000" fill-rule="evenodd" stroke="none">
      <animate attributeName="fill" dur="2s" repeatCount="indefinite" values="#000000;#000001"/>
      <animate attributeName="fill-opacity" dur="2s" repeatCount="indefinite" values="1.0;1.0"/>
      <animate attributeName="d" dur="2s" repeatCount="indefinite" values="M40.1 -5.0 Q40.1 -2.1 42.15 -0.05 44.2 2.0 47.1 2.0 50.0 2.0 52.05 -0.05 54.1 -2.1 54.1 -5.0 54.1 -7.9 52.05 -9.95 50.0 -12.0 47.1 -12.0 44.2 -12.0 42.15 -9.95 40.1 -7.9 40.1 -5.0;M19.85 3.75 Q19.85 6.65 21.9 8.7 23.95 10.75 26.85 10.75 29.75 10.75 31.8 8.7 33.85 6.65 33.85 3.75 33.85 0.85 31.8 -1.2 29.75 -3.25 26.85 -3.25 23.95 -3.25 21.9 -1.2 19.85 0.85 19.85 3.75"/>
    </path>
    <path d="M40.1 -5.0 Q40.1 -7.9 42.15 -9.95 44.2 -12.0 47.1 -12.0 50.0 -12.0 52.05 -9.95 54.1 -7.9 54.1 -5.0 54.1 -2.1 52.05 -0.05 50.0 2.0 47.1 2.0 44.2 2.0 42.15 -0.05 40.1 -2.1 40.1 -5.0 Z" fill="none" stroke="#000000" stroke-linecap="round" stroke-linejoin="round" stroke-opacity="0.0" stroke-width="0.0">
      <animate attributeName="stroke" dur="2s" repeatCount="indefinite" values="#000000;#000001"/>
      <animate attributeName="stroke-width" dur="2s" repeatCount="indefinite" values="0.0;0.0"/>
      <animate attributeName="fill-opacity" dur="2s" repeatCount="indefinite" values="0.0;0.0"/>
      <animate attributeName="d" dur="2s" repeatCount="indefinite" values="M40.1 -5.0 Q40.1 -7.9 42.15 -9.95 44.2 -12.0 47.1 -12.0 50.0 -12.0 52.05 -9.95 54.1 -7.9 54.1 -5.0 54.1 -2.1 52.05 -0.05 50.0 2.0 47.1 2.0 44.2 2.0 42.15 -0.05 40.1 -2.1 40.1 -5.0 Z;M19.85 3.75 Q19.85 0.85 21.9 -1.2 23.95 -3.25 26.85 -3.25 29.75 -3.25 31.8 -1.2 33.85 0.85 33.85 3.75 33.85 6.65 31.8 8.7 29.75 10.75 26.85 10.75 23.95 10.75 21.9 8.7 19.85 6.65 19.85 3.75 Z"/>
    </path>
  </g>
</svg>
