<?xml version="1.0" encoding="UTF-8" standalone="no"?>
<svg xmlns:ffdec="https://www.free-decompiler.com/flash" xmlns:xlink="http://www.w3.org/1999/xlink" ffdec:objectType="morphshape" height="33.75px" width="25.25px" xmlns="http://www.w3.org/2000/svg">
  <g transform="matrix(1.0, 0.0, 0.0, 1.0, -8.6, 23.0)">
    <path d="M19.85 3.75 Q19.85 6.65 21.9 8.7 23.95 10.75 26.85 10.75 29.75 10.75 31.8 8.7 33.85 6.65 33.85 3.75 33.85 0.85 31.8 -1.2 29.75 -3.25 26.85 -3.25 23.95 -3.25 21.9 -1.2 19.85 0.85 19.85 3.75" fill="#000000" fill-rule="evenodd" stroke="none">
      <animate attributeName="fill" dur="2s" repeatCount="indefinite" values="#000000;#000001"/>
      <animate attributeName="fill-opacity" dur="2s" repeatCount="indefinite" values="1.0;1.0"/>
      <animate attributeName="d" dur="2s" repeatCount="indefinite" values="M19.85 3.75 Q19.85 6.65 21.9 8.7 23.95 10.75 26.85 10.75 29.75 10.75 31.8 8.7 33.85 6.65 33.85 3.75 33.85 0.85 31.8 -1.2 29.75 -3.25 26.85 -3.25 23.95 -3.25 21.9 -1.2 19.85 0.85 19.85 3.75;M8.6 -16.0 Q8.6 -13.1 10.65 -11.05 12.7 -9.0 15.6 -9.0 18.5 -9.0 20.55 -11.05 22.6 -13.1 22.6 -16.0 22.6 -18.9 20.55 -20.95 18.5 -23.0 15.6 -23.0 12.7 -23.0 10.65 -20.95 8.6 -18.9 8.6 -16.0"/>
    </path>
    <path d="M19.85 3.75 Q19.85 0.85 21.9 -1.2 23.95 -3.25 26.85 -3.25 29.75 -3.25 31.8 -1.2 33.85 0.85 33.85 3.75 33.85 6.65 31.8 8.7 29.75 10.75 26.85 10.75 23.95 10.75 21.9 8.7 19.85 6.65 19.85 3.75 Z" fill="none" stroke="#000000" stroke-linecap="round" stroke-linejoin="round" stroke-opacity="0.0" stroke-width="0.0">
      <animate attributeName="stroke" dur="2s" repeatCount="indefinite" values="#000000;#000001"/>
      <animate attributeName="stroke-width" dur="2s" repeatCount="indefinite" values="0.0;0.0"/>
      <animate attributeName="fill-opacity" dur="2s" repeatCount="indefinite" values="0.0;0.0"/>
      <animate attributeName="d" dur="2s" repeatCount="indefinite" values="M19.85 3.75 Q19.85 0.85 21.9 -1.2 23.95 -3.25 26.85 -3.25 29.75 -3.25 31.8 -1.2 33.85 0.85 33.85 3.75 33.85 6.65 31.8 8.7 29.75 10.75 26.85 10.75 23.95 10.75 21.9 8.7 19.85 6.65 19.85 3.75 Z;M8.6 -16.0 Q8.6 -18.9 10.65 -20.95 12.7 -23.0 15.6 -23.0 18.5 -23.0 20.55 -20.95 22.6 -18.9 22.6 -16.0 22.6 -13.1 20.55 -11.05 18.5 -9.0 15.6 -9.0 12.7 -9.0 10.65 -11.05 8.6 -13.1 8.6 -16.0 Z"/>
    </path>
  </g>
</svg>
