<?xml version="1.0" encoding="UTF-8" standalone="no"?>
<svg xmlns:ffdec="https://www.free-decompiler.com/flash" xmlns:xlink="http://www.w3.org/1999/xlink" ffdec:objectType="morphshape" height="25.0px" width="16.5px" xmlns="http://www.w3.org/2000/svg">
  <g transform="matrix(1.0, 0.0, 0.0, 1.0, 46.1, 16.75)">
    <path d="M-46.1 -10.75 Q-46.1 -8.25 -44.35 -6.5 -42.6 -4.75 -40.1 -4.75 -37.6 -4.75 -35.85 -6.5 -34.1 -8.25 -34.1 -10.75 -34.1 -13.25 -35.85 -15.0 -37.6 -16.75 -40.1 -16.75 -42.6 -16.75 -44.35 -15.0 -46.1 -13.25 -46.1 -10.75" fill="#000000" fill-rule="evenodd" stroke="none">
      <animate attributeName="fill" dur="2s" repeatCount="indefinite" values="#000000;#000001"/>
      <animate attributeName="fill-opacity" dur="2s" repeatCount="indefinite" values="1.0;1.0"/>
      <animate attributeName="d" dur="2s" repeatCount="indefinite" values="M-46.1 -10.75 Q-46.1 -8.25 -44.35 -6.5 -42.6 -4.75 -40.1 -4.75 -37.6 -4.75 -35.85 -6.5 -34.1 -8.25 -34.1 -10.75 -34.1 -13.25 -35.85 -15.0 -37.6 -16.75 -40.1 -16.75 -42.6 -16.75 -44.35 -15.0 -46.1 -13.25 -46.1 -10.75;M-41.6 2.25 Q-41.6 4.75 -39.85 6.5 -38.1 8.25 -35.6 8.25 -33.1 8.25 -31.35 6.5 -29.6 4.75 -29.6 2.25 -29.6 -0.25 -31.35 -2.0 -33.1 -3.75 -35.6 -3.75 -38.1 -3.75 -39.85 -2.0 -41.6 -0.25 -41.6 2.25"/>
    </path>
    <path d="M-46.1 -10.75 Q-46.1 -13.25 -44.35 -15.0 -42.6 -16.75 -40.1 -16.75 -37.6 -16.75 -35.85 -15.0 -34.1 -13.25 -34.1 -10.75 -34.1 -8.25 -35.85 -6.5 -37.6 -4.75 -40.1 -4.75 -42.6 -4.75 -44.35 -6.5 -46.1 -8.25 -46.1 -10.75 Z" fill="none" stroke="#000000" stroke-linecap="round" stroke-linejoin="round" stroke-opacity="0.0" stroke-width="0.0">
      <animate attributeName="stroke" dur="2s" repeatCount="indefinite" values="#000000;#000001"/>
      <animate attributeName="stroke-width" dur="2s" repeatCount="indefinite" values="0.0;0.0"/>
      <animate attributeName="fill-opacity" dur="2s" repeatCount="indefinite" values="0.0;0.0"/>
      <animate attributeName="d" dur="2s" repeatCount="indefinite" values="M-46.1 -10.75 Q-46.1 -13.25 -44.35 -15.0 -42.6 -16.75 -40.1 -16.75 -37.6 -16.75 -35.85 -15.0 -34.1 -13.25 -34.1 -10.75 -34.1 -8.25 -35.85 -6.5 -37.6 -4.75 -40.1 -4.75 -42.6 -4.75 -44.35 -6.5 -46.1 -8.25 -46.1 -10.75 Z;M-41.6 2.25 Q-41.6 -0.25 -39.85 -2.0 -38.1 -3.75 -35.6 -3.75 -33.1 -3.75 -31.35 -2.0 -29.6 -0.25 -29.6 2.25 -29.6 4.75 -31.35 6.5 -33.1 8.25 -35.6 8.25 -38.1 8.25 -39.85 6.5 -41.6 4.75 -41.6 2.25 Z"/>
    </path>
  </g>
</svg>
