<?xml version="1.0" encoding="UTF-8" standalone="no"?>
<svg xmlns:ffdec="https://www.free-decompiler.com/flash" xmlns:xlink="http://www.w3.org/1999/xlink" ffdec:objectType="morphshape" height="35.0px" width="35.0px" xmlns="http://www.w3.org/2000/svg">
  <g transform="matrix(1.0, 0.0, 0.0, 1.0, -19.85, 24.25)">
    <path d="M19.85 3.75 Q19.85 6.65 21.9 8.7 23.95 10.75 26.85 10.75 29.75 10.75 31.8 8.7 33.85 6.65 33.85 3.75 33.85 0.85 31.8 -1.2 29.75 -3.25 26.85 -3.25 23.95 -3.25 21.9 -1.2 19.85 0.85 19.85 3.75" fill="#000000" fill-rule="evenodd" stroke="none">
      <animate attributeName="fill" dur="2s" repeatCount="indefinite" values="#000000;#000001"/>
      <animate attributeName="fill-opacity" dur="2s" repeatCount="indefinite" values="1.0;1.0"/>
      <animate attributeName="d" dur="2s" repeatCount="indefinite" values="M19.85 3.75 Q19.85 6.65 21.9 8.7 23.95 10.75 26.85 10.75 29.75 10.75 31.8 8.7 33.85 6.65 33.85 3.75 33.85 0.85 31.8 -1.2 29.75 -3.25 26.85 -3.25 23.95 -3.25 21.9 -1.2 19.85 0.85 19.85 3.75;M40.85 -17.25 Q40.85 -14.35 42.9 -12.3 44.95 -10.25 47.85 -10.25 50.75 -10.25 52.8 -12.3 54.85 -14.35 54.85 -17.25 54.85 -20.15 52.8 -22.2 50.75 -24.25 47.85 -24.25 44.95 -24.25 42.9 -22.2 40.85 -20.15 40.85 -17.25"/>
    </path>
    <path d="M19.85 3.75 Q19.85 0.85 21.9 -1.2 23.95 -3.25 26.85 -3.25 29.75 -3.25 31.8 -1.2 33.85 0.85 33.85 3.75 33.85 6.65 31.8 8.7 29.75 10.75 26.85 10.75 23.95 10.75 21.9 8.7 19.85 6.65 19.85 3.75 Z" fill="none" stroke="#000000" stroke-linecap="round" stroke-linejoin="round" stroke-opacity="0.0" stroke-width="0.0">
      <animate attributeName="stroke" dur="2s" repeatCount="indefinite" values="#000000;#000001"/>
      <animate attributeName="stroke-width" dur="2s" repeatCount="indefinite" values="0.0;0.0"/>
      <animate attributeName="fill-opacity" dur="2s" repeatCount="indefinite" values="0.0;0.0"/>
      <animate attributeName="d" dur="2s" repeatCount="indefinite" values="M19.85 3.75 Q19.85 0.85 21.9 -1.2 23.95 -3.25 26.85 -3.25 29.75 -3.25 31.8 -1.2 33.85 0.85 33.85 3.75 33.85 6.65 31.8 8.7 29.75 10.75 26.85 10.75 23.95 10.75 21.9 8.7 19.85 6.65 19.85 3.75 Z;M40.85 -17.25 Q40.85 -20.15 42.9 -22.2 44.95 -24.25 47.85 -24.25 50.75 -24.25 52.8 -22.2 54.85 -20.15 54.85 -17.25 54.85 -14.35 52.8 -12.3 50.75 -10.25 47.85 -10.25 44.95 -10.25 42.9 -12.3 40.85 -14.35 40.85 -17.25 Z"/>
    </path>
  </g>
</svg>
