<?xml version="1.0" encoding="UTF-8" standalone="no"?>
<svg xmlns:ffdec="https://www.free-decompiler.com/flash" xmlns:xlink="http://www.w3.org/1999/xlink" ffdec:objectType="shape" height="118.4px" width="145.05px" xmlns="http://www.w3.org/2000/svg">
  <g transform="matrix(1.0, 0.0, 0.0, 1.0, 72.55, 0.0)">
    <path d="M31.45 7.6 Q33.0 9.9 34.1 12.45 L39.7 12.65 Q57.0 14.7 63.55 25.1 70.1 35.45 72.3 68.25 74.5 101.05 50.9 112.15 27.3 123.2 20.75 114.7 14.2 106.2 4.75 89.4 L2.6 85.3 Q-6.0 94.0 -16.45 101.35 -35.0 114.45 -55.7 94.55 -76.4 74.65 -71.65 47.65 -66.9 20.65 -45.7 15.3 -24.55 9.9 -0.65 2.7 23.2 -4.5 31.45 7.6" fill="#55402d" fill-rule="evenodd" stroke="none"/>
  </g>
</svg>
