<?xml version="1.0" encoding="UTF-8" standalone="no"?>
<svg xmlns:ffdec="https://www.free-decompiler.com/flash" xmlns:xlink="http://www.w3.org/1999/xlink" ffdec:objectType="shape" height="75.45px" width="178.3px" xmlns="http://www.w3.org/2000/svg">
  <g transform="matrix(1.0, 0.0, 0.0, 1.0, 92.0, 51.1)">
    <path d="M21.0 -43.5 L21.0 -38.2 Q20.9 -34.1 18.1 -31.45 15.2 -28.8 14.45 -27.3 12.8 -24.45 14.85 -19.15 16.5 -14.6 16.55 -12.05 16.55 -8.5 13.95 -4.8 8.55 2.6 11.5 10.25 5.25 7.55 -1.75 7.1 -1.6 3.55 0.95 0.3 2.65 -1.9 6.7 -5.75 9.2 -8.45 8.85 -13.05 8.65 -15.65 7.05 -20.7 5.65 -24.8 8.15 -28.9 9.7 -31.55 13.95 -35.4 19.15 -40.35 20.35 -48.0 20.35 -47.1 20.65 -45.9 L21.0 -43.5 M37.75 -11.9 Q34.35 -8.8 34.35 -5.1 34.65 0.45 34.4 3.25 34.05 7.35 31.75 10.0 26.35 5.55 19.95 3.3 27.25 -0.3 28.4 -9.35 29.0 -13.85 31.5 -16.4 33.2 -18.25 37.55 -20.4 42.65 -22.9 43.4 -26.05 43.85 -27.7 43.6 -31.6 43.3 -35.45 46.1 -38.5 L49.65 -42.35 51.55 -43.85 53.2 -45.2 Q48.85 -38.8 49.3 -31.65 49.7 -25.95 49.1 -22.95 48.05 -18.3 44.3 -16.2 39.65 -13.65 37.75 -11.9 M67.85 -13.1 Q70.3 -14.9 75.6 -16.9 82.3 -19.5 86.3 -26.1 85.95 -25.3 85.75 -24.05 L85.2 -21.75 83.2 -16.85 Q81.6 -13.1 78.0 -11.7 74.35 -10.35 73.05 -9.25 70.45 -7.25 70.35 -1.55 70.2 3.25 69.3 5.6 67.95 8.9 64.15 11.35 56.4 16.2 56.2 24.35 51.45 19.45 45.2 16.4 46.6 13.2 50.2 11.15 52.6 9.75 57.8 7.75 61.15 6.15 62.55 1.8 63.35 -0.7 63.75 -5.9 64.0 -10.2 67.85 -13.1 M-87.95 -24.75 L-83.6 -21.7 Q-80.25 -19.3 -79.7 -15.45 -79.2 -11.6 -78.4 -10.05 -76.95 -7.1 -71.4 -5.75 -66.75 -4.55 -64.65 -3.1 -61.7 -1.05 -60.1 3.2 -57.1 11.85 -49.15 13.85 -54.95 17.4 -59.3 22.9 -62.15 20.75 -63.4 16.85 -64.2 14.15 -65.05 8.6 -65.85 5.0 -69.8 2.65 -72.1 1.35 -77.15 -0.2 -81.3 -1.45 -83.3 -5.8 -84.55 -8.6 -85.3 -14.25 -86.4 -21.4 -92.0 -26.75 -91.3 -26.25 -90.1 -25.8 -88.95 -25.35 -87.95 -24.75 M-50.4 -43.65 L-47.6 -39.15 Q-45.5 -35.6 -46.5 -31.85 -47.5 -28.1 -47.35 -26.35 -47.2 -23.1 -42.65 -19.65 -38.8 -16.7 -37.45 -14.6 -35.5 -11.55 -35.75 -7.0 -36.35 2.15 -29.85 7.05 -36.55 8.05 -42.7 11.4 -44.5 8.35 -44.1 4.25 -43.8 1.45 -42.4 -3.95 -41.75 -7.6 -44.45 -11.3 -46.05 -13.4 -50.1 -16.8 -53.45 -19.6 -53.55 -24.4 -53.6 -27.45 -52.05 -32.95 -50.3 -39.95 -53.35 -47.1 L-52.0 -45.45 -50.4 -43.65 M-16.25 -37.7 Q-12.6 -33.35 -11.35 -30.5 -9.5 -26.1 -11.4 -22.2 -13.7 -17.45 -14.25 -14.9 -15.2 -10.4 -13.1 -7.35 -9.6 -3.0 -8.2 -0.6 -6.15 3.0 -6.45 6.5 -13.45 6.0 -20.0 7.85 -16.1 0.7 -20.4 -7.4 -22.5 -11.4 -22.0 -14.95 -21.65 -17.45 -19.35 -21.75 -16.6 -26.7 -17.8 -29.75 -18.4 -31.4 -20.85 -34.4 -23.35 -37.4 -22.85 -41.5 L-22.15 -46.75 -21.45 -49.05 Q-21.0 -50.2 -20.9 -51.1 -20.75 -43.35 -16.25 -37.7" fill="#000000" fill-rule="evenodd" stroke="none"/>
  </g>
</svg>
