<?xml version="1.0" encoding="UTF-8" standalone="no"?>
<svg xmlns:ffdec="https://www.free-decompiler.com/flash" xmlns:xlink="http://www.w3.org/1999/xlink" ffdec:objectType="shape" height="65.3px" width="133.6px" xmlns="http://www.w3.org/2000/svg">
  <g transform="matrix(1.0, 0.0, 0.0, 1.0, 78.95, 66.15)">
    <path d="M43.8 -28.95 L47.6 -27.2 54.15 -1.35 Q20.5 -6.35 -16.95 -6.35 -49.8 -6.35 -78.45 -2.55 L-71.9 -28.7 -68.2 -30.35 Q-41.3 -41.8 -16.4 -41.75 15.35 -41.8 43.8 -28.95" fill="#535353" fill-rule="evenodd" stroke="none"/>
    <path d="M43.8 -28.95 Q15.35 -41.8 -16.4 -41.75 -41.3 -41.8 -68.2 -30.35 -60.05 -46.5 -49.55 -54.55 -35.0 -65.65 -12.4 -65.65 26.45 -65.65 43.8 -28.95" fill="#898989" fill-rule="evenodd" stroke="none"/>
    <path d="M43.8 -28.95 Q26.45 -65.65 -12.4 -65.65 -35.0 -65.65 -49.55 -54.55 -60.05 -46.5 -68.2 -30.35 L-71.9 -28.7 -78.45 -2.55 Q-49.8 -6.35 -16.95 -6.35 20.5 -6.35 54.15 -1.35 L47.6 -27.2 43.8 -28.95 Z" fill="none" stroke="#000000" stroke-linecap="round" stroke-linejoin="round" stroke-opacity="0.2509804" stroke-width="1.0"/>
  </g>
</svg>
