<?xml version="1.0" encoding="UTF-8" standalone="no"?>
<svg xmlns:ffdec="https://www.free-decompiler.com/flash" xmlns:xlink="http://www.w3.org/1999/xlink" ffdec:objectType="shape" height="98.95px" width="182.8px" xmlns="http://www.w3.org/2000/svg">
  <g transform="matrix(1.0, 0.0, 0.0, 1.0, 91.4, 49.45)">
    <path d="M23.6 -18.55 Q39.95 -17.85 48.75 -14.05 L59.3 -15.05 Q69.55 -18.55 77.85 -15.5 87.9 -11.8 88.15 -5.75 85.15 -7.75 77.1 -6.25 L80.85 -3.75 Q86.9 1.0 91.4 12.85 81.1 5.3 76.85 3.55 L72.35 2.8 Q77.85 10.35 77.85 18.65 77.85 49.5 -0.75 49.5 -79.35 49.5 -79.35 18.65 -79.35 9.8 -73.1 2.05 L-77.6 2.8 Q-81.6 4.3 -91.4 11.85 -87.15 0.3 -81.35 -4.0 L-77.85 -6.5 Q-84.85 -8.0 -88.4 -6.25 -88.15 -11.8 -78.35 -15.25 -70.6 -18.3 -60.75 -14.8 L-50.2 -14.05 Q-41.45 -18.05 -29.65 -18.55 L-29.35 -18.55 Q-30.05 -20.95 -31.65 -24.6 -35.15 -32.1 -42.95 -36.4 -38.7 -39.1 -30.4 -34.85 -24.1 -31.35 -22.1 -28.55 -21.6 -34.85 -22.6 -37.9 -23.85 -41.2 -29.1 -49.45 -17.8 -46.45 -13.8 -38.9 -10.8 -32.6 -10.55 -30.85 -6.8 -37.15 -8.3 -44.2 0.5 -41.7 4.25 -25.8 L5.75 -18.7 23.6 -18.55" fill="#000000" fill-rule="evenodd" stroke="none"/>
  </g>
</svg>
