<?xml version="1.0" encoding="UTF-8" standalone="no"?>
<svg xmlns:ffdec="https://www.free-decompiler.com/flash" xmlns:xlink="http://www.w3.org/1999/xlink" ffdec:objectType="shape" height="68.9px" width="74.8px" xmlns="http://www.w3.org/2000/svg">
  <g transform="matrix(1.0, 0.0, 0.0, 1.0, 36.6, 44.6)">
    <path d="M33.4 -12.85 Q37.1 -2.95 38.1 6.75 29.05 13.8 20.0 18.0 L19.5 18.15 16.15 19.65 Q14.5 20.15 13.0 20.8 -10.45 28.7 -34.4 18.15 L-35.6 10.45 Q-36.95 0.55 -36.25 -7.15 -35.6 -15.85 -32.25 -23.9 -31.25 -26.75 -29.9 -29.1 -28.05 -32.6 -25.9 -35.3 L-22.35 -39.15 Q-19.2 -32.75 -12.15 -29.25 -1.1 -30.45 6.45 -42.5 4.95 -44.85 7.45 -43.65 L12.3 -40.8 Q9.8 -35.95 10.65 -30.45 12.45 -19.2 20.85 -15.0 26.2 -12.35 33.4 -12.85" fill="#ffffff" fill-rule="evenodd" stroke="none"/>
    <path d="M12.3 -40.8 L16.35 -37.65 Q15.0 -34.95 15.0 -31.6 15.0 -25.9 19.15 -21.7 23.55 -17.55 29.4 -17.55 L31.4 -17.7 33.4 -12.85 Q26.2 -12.35 20.85 -15.0 12.45 -19.2 10.65 -30.45 9.8 -35.95 12.3 -40.8" fill="#003399" fill-rule="evenodd" stroke="none"/>
    <path d="M8.8 -43.0 Q5.1 -36.3 -5.1 -30.75 -15.5 -25.25 -24.9 -36.65 L-22.2 -39.3 Q-14.85 -29.95 -5.6 -35.6 -0.25 -38.95 5.25 -44.5 6.95 -44.0 8.8 -43.0" fill="#003399" fill-rule="evenodd" stroke="none"/>
    <path d="M-11.5 -2.45 Q-13.0 -2.45 -13.8 -1.3 -14.65 -0.3 -14.5 1.4 -14.3 3.05 -13.3 3.9 -12.3 4.75 -10.65 4.75 -9.15 4.6 -8.15 3.75 -7.3 2.9 -7.45 1.05 -7.6 -0.6 -8.8 -1.6 -9.95 -2.65 -11.5 -2.45 M-12.65 -13.2 Q-14.3 -13.0 -15.0 -12.15 -15.65 -11.35 -15.5 -9.85 -15.35 -8.3 -14.3 -7.65 -13.5 -7.0 -12.0 -7.15 -10.45 -7.3 -9.65 -8.0 -8.95 -8.8 -8.95 -10.35 -9.3 -11.85 -10.15 -12.5 -10.95 -13.35 -12.65 -13.2 M-21.35 -15.35 Q-20.35 -16.7 -18.5 -17.55 -16.5 -18.7 -13.3 -19.05 L-7.8 -18.85 Q-5.6 -18.35 -4.1 -17.2 -2.75 -16.0 -1.95 -14.7 -1.25 -13.35 -1.1 -12.15 -0.9 -9.85 -1.75 -8.0 -2.6 -6.3 -4.25 -5.3 -1.95 -4.45 -0.6 -2.95 0.75 -1.6 1.1 0.9 1.4 4.05 0.1 6.25 -1.25 8.45 -3.75 9.45 -6.45 10.45 -9.95 10.45 -13.5 10.45 -16.0 9.6 -18.5 8.6 -20.0 6.6 -21.7 4.75 -22.05 1.75 -22.35 -0.6 -21.55 -1.95 -20.7 -3.45 -18.7 -4.45 -20.35 -5.15 -21.35 -6.65 -22.55 -8.15 -22.7 -10.15 -23.05 -11.35 -22.7 -12.65 -22.35 -14.0 -21.35 -15.35" fill="#003399" fill-rule="evenodd" stroke="none"/>
    <path d="M6.8 -44.0 Q6.95 -43.85 7.45 -43.65 L8.8 -43.0 12.3 -40.8 16.35 -37.65 Q15.0 -34.95 15.0 -31.6 15.0 -25.9 19.15 -21.7 23.55 -17.55 29.4 -17.55 L31.4 -17.7 33.4 -12.85 Q37.1 -2.95 38.1 6.75 29.05 13.8 20.0 18.0 L19.5 18.15 16.15 19.65 Q14.5 20.15 13.0 20.8 -10.45 28.7 -34.4 18.15 L-35.6 10.45 Q-36.95 0.55 -36.25 -7.15 -35.6 -15.85 -32.25 -23.9 -31.25 -26.75 -29.9 -29.1 -28.05 -32.6 -25.9 -35.3 L-24.9 -36.65 -22.35 -39.15 -22.2 -39.3 Q-14.85 -29.95 -5.6 -35.6 -0.25 -38.95 5.25 -44.5 L6.8 -44.0 Z" fill="none" stroke="#000000" stroke-linecap="round" stroke-linejoin="round" stroke-opacity="0.2" stroke-width="0.2"/>
  </g>
</svg>
