<?xml version="1.0" encoding="UTF-8" standalone="no"?>
<svg xmlns:ffdec="https://www.free-decompiler.com/flash" xmlns:xlink="http://www.w3.org/1999/xlink" ffdec:objectType="shape" height="40.9px" width="72.4px" xmlns="http://www.w3.org/2000/svg">
  <g transform="matrix(1.0, 0.0, 0.0, 1.0, 34.15, -6.25)">
    <path d="M37.25 23.0 Q35.6 30.8 30.95 35.15 26.0 39.8 19.85 42.8 12.7 45.95 2.7 46.95 -5.75 47.75 -12.75 45.6 -20.2 43.1 -24.85 37.65 -29.35 32.5 -31.5 26.65 -33.15 22.2 -34.15 17.85 4.55 28.15 37.95 6.25 38.75 15.05 37.25 23.0" fill="#0e568b" fill-rule="evenodd" stroke="none"/>
    <path d="M38.1 16.7 Q5.35 38.95 -31.2 27.5 L-31.5 26.65 Q-33.15 22.2 -34.15 17.85 4.55 28.15 37.95 6.25 38.45 11.55 38.1 16.7" fill="#000000" fill-rule="evenodd" stroke="none"/>
    <path d="M-17.85 25.25 Q-12.55 26.65 -3.75 26.2 L-3.0 30.7 -16.9 30.05 -17.85 25.25 M1.05 21.35 Q-11.1 22.85 -24.1 20.35 L-21.2 33.2 Q-10.8 36.2 3.25 34.65 L1.05 21.35" fill="#ffcc00" fill-rule="evenodd" stroke="none"/>
  </g>
</svg>
