<?xml version="1.0" encoding="UTF-8" standalone="no"?>
<svg xmlns:ffdec="https://www.free-decompiler.com/flash" xmlns:xlink="http://www.w3.org/1999/xlink" ffdec:objectType="shape" height="114.8px" width="170.55px" xmlns="http://www.w3.org/2000/svg">
  <g transform="matrix(1.0, 0.0, 0.0, 1.0, 0.85, 0.4)">
    <path d="M56.6 4.8 Q70.75 -1.5 90.05 -0.15 109.3 1.2 122.4 9.45 129.75 14.05 132.8 19.35 L129.15 71.2 Q138.05 73.4 145.9 76.3 170.4 85.3 169.7 95.55 169.15 103.15 154.9 108.1 L154.9 107.5 155.8 107.15 Q150.0 109.4 141.0 111.15 116.5 115.9 82.4 113.7 51.95 111.75 29.8 105.25 L28.5 104.85 22.15 102.65 Q11.5 98.65 5.6 94.45 L3.7 92.65 Q-1.2 88.2 -0.85 83.55 -0.15 73.35 25.35 67.8 32.9 66.2 41.3 65.3 L44.95 13.25 Q48.65 8.4 56.6 4.8" fill="#669900" fill-rule="evenodd" stroke="none"/>
  </g>
</svg>
