<?xml version="1.0" encoding="UTF-8" standalone="no"?>
<svg xmlns:ffdec="https://www.free-decompiler.com/flash" xmlns:xlink="http://www.w3.org/1999/xlink" ffdec:objectType="shape" height="115.8px" width="171.55px" xmlns="http://www.w3.org/2000/svg">
  <g transform="matrix(1.0, 0.0, 0.0, 1.0, 96.7, 86.9)">
    <path d="M-9.3 -14.75 Q24.75 -12.55 48.45 -4.75 72.15 3.1 71.6 12.0 71.05 20.85 46.55 25.55 22.05 30.3 -12.05 28.1 -42.5 26.15 -64.65 19.65 L-65.95 19.25 -72.3 17.05 Q-82.95 13.05 -88.85 8.85 -93.2 5.2 -92.95 1.35 -92.4 -7.5 -67.95 -12.25 -43.45 -16.95 -9.3 -14.75" fill="#000000" fill-opacity="0.49803922" fill-rule="evenodd" stroke="none"/>
    <path d="M-38.75 -81.2 Q-24.6 -87.5 -5.3 -86.15 13.95 -84.8 27.05 -76.55 34.4 -71.95 37.45 -66.65 L33.8 -14.8 Q42.7 -12.6 50.55 -9.7 75.05 -0.7 74.35 9.55 73.8 17.15 59.55 22.1 L59.55 21.5 60.45 21.15 Q54.65 23.4 45.65 25.15 21.15 29.9 -12.95 27.7 -43.4 25.75 -65.55 19.25 L-66.85 18.85 -73.2 16.65 Q-83.85 12.65 -89.75 8.45 L-91.65 6.65 Q-96.55 2.2 -96.2 -2.45 -95.5 -12.65 -70.0 -18.2 -62.45 -19.8 -54.05 -20.7 L-50.4 -72.75 Q-46.7 -77.6 -38.75 -81.2 Z" fill="none" stroke="#000000" stroke-linecap="round" stroke-linejoin="round" stroke-opacity="0.2" stroke-width="1.0"/>
  </g>
</svg>
