<?xml version="1.0" encoding="UTF-8" standalone="no"?>
<svg xmlns:ffdec="https://www.free-decompiler.com/flash" xmlns:xlink="http://www.w3.org/1999/xlink" ffdec:objectType="shape" height="142.4px" width="161.15px" xmlns="http://www.w3.org/2000/svg">
  <g transform="matrix(1.0, 0.0, 0.0, 1.0, -27.3, 11.6)">
    <path d="M135.75 -5.95 Q162.85 3.95 170.05 25.65 177.25 47.35 172.95 61.6 168.65 75.85 169.05 78.75 167.15 87.6 170.4 92.7 173.6 97.75 181.65 95.1 L188.45 91.65 188.0 95.35 Q183.8 109.15 177.95 115.4 172.1 121.65 158.4 127.25 144.65 132.8 128.1 129.7 111.5 126.6 91.0 119.5 L67.1 111.35 36.75 88.85 27.9 58.1 Q26.2 52.15 29.15 44.0 32.05 35.85 42.3 28.6 L47.3 26.55 Q58.6 -0.8 83.65 -8.35 108.65 -15.9 135.75 -5.95 M130.3 29.2 L130.45 29.3 130.4 29.25 130.3 29.2 M82.3 19.1 L82.85 19.1 Q100.25 17.25 82.3 19.1 M67.85 20.65 L68.3 20.6 67.95 20.6 67.85 20.65 M47.3 26.55 L47.45 26.5 Q47.9 25.75 47.3 26.55" fill="#c27d15" fill-rule="evenodd" stroke="none"/>
  </g>
</svg>
