<?xml version="1.0" encoding="UTF-8" standalone="no"?>
<svg xmlns:ffdec="https://www.free-decompiler.com/flash" xmlns:xlink="http://www.w3.org/1999/xlink" ffdec:objectType="shape" height="86.35px" width="122.1px" xmlns="http://www.w3.org/2000/svg">
  <g transform="matrix(1.0, 0.0, 0.0, 1.0, 55.45, 52.05)">
    <path d="M58.1 -25.9 Q67.3 -10.45 66.0 7.25 64.65 24.9 60.35 33.8 L48.25 33.8 Q56.9 16.85 55.6 -0.95 54.25 -18.8 40.65 -29.55 27.0 -40.3 13.15 -41.95 -0.7 -43.6 -20.8 -42.25 -40.9 -40.9 -54.95 -35.75 L-53.5 -38.85 Q-44.5 -46.45 -31.85 -48.5 -19.25 -50.5 -3.3 -51.4 12.65 -52.4 30.8 -46.9 48.9 -41.35 58.1 -25.9" fill="#157ac2" fill-rule="evenodd" stroke="none"/>
    <path d="M58.1 -25.9 Q67.3 -10.45 66.0 7.25 64.65 24.9 60.35 33.8 L48.25 33.8 Q56.9 16.85 55.6 -0.95 54.25 -18.8 40.65 -29.55 27.0 -40.3 13.15 -41.95 -0.7 -43.6 -20.8 -42.25 -40.9 -40.9 -54.95 -35.75 L-53.5 -38.85 Q-44.5 -46.45 -31.85 -48.5 -19.25 -50.5 -3.3 -51.4 12.65 -52.4 30.8 -46.9 48.9 -41.35 58.1 -25.9 Z" fill="none" stroke="#000000" stroke-linecap="round" stroke-linejoin="round" stroke-opacity="0.2" stroke-width="1.0"/>
  </g>
</svg>
