<?xml version="1.0" encoding="UTF-8" standalone="no"?>
<svg xmlns:ffdec="https://www.free-decompiler.com/flash" xmlns:xlink="http://www.w3.org/1999/xlink" ffdec:objectType="shape" height="136.35px" width="127.35px" xmlns="http://www.w3.org/2000/svg">
  <g transform="matrix(1.0, 0.0, 0.0, 1.0, 62.8, 75.85)">
    <path d="M-42.7 41.0 Q-36.8 46.25 -34.2 51.6 -31.55 56.85 -33.5 59.15 L-33.6 59.25 Q-35.7 61.6 -41.3 59.5 -45.7 57.85 -50.35 54.2 L-52.75 52.2 Q-55.7 49.55 -57.8 46.9 -59.95 44.2 -61.3 41.55 -63.9 36.45 -62.05 34.1 L-61.9 33.9 -61.8 33.8 Q-59.65 31.65 -54.2 33.65 -48.55 35.7 -42.7 41.0" fill="#9fc4ab" fill-rule="evenodd" stroke="none"/>
    <path d="M-54.65 43.25 Q-57.05 40.3 -58.4 37.25 L-59.5 34.3 39.25 -75.85 46.4 -69.45 -54.65 43.25" fill="#b1ff97" fill-rule="evenodd" stroke="none"/>
    <path d="M-42.55 53.8 Q-46.0 51.8 -49.55 48.6 -52.5 46.0 -54.65 43.25 L46.4 -69.45 58.35 -58.75 -42.55 53.8" fill="#93ff6f" fill-rule="evenodd" stroke="none"/>
    <path d="M58.35 -58.75 L64.55 -53.2 -34.2 56.95 -37.25 56.2 Q-39.9 55.3 -42.55 53.8 L58.35 -58.75" fill="#c0ffa8" fill-rule="evenodd" stroke="none"/>
  </g>
</svg>
