<?xml version="1.0" encoding="UTF-8" standalone="no"?>
<svg xmlns:ffdec="https://www.free-decompiler.com/flash" xmlns:xlink="http://www.w3.org/1999/xlink" ffdec:objectType="shape" height="22.35px" width="60.3px" xmlns="http://www.w3.org/2000/svg">
  <g transform="matrix(1.0, 0.0, 0.0, 1.0, 40.6, 6.2)">
    <path d="M-31.25 3.75 Q-29.6 -3.35 -26.8 -4.25 -24.0 -5.15 -21.9 -4.2 -19.8 -3.25 -18.55 -0.35 -18.25 -2.8 -15.3 -4.35 L-9.85 -4.5 Q-7.35 -3.15 -6.15 -1.55 -5.0 -0.05 -3.55 3.05 -17.4 4.5 -31.25 3.75" fill="#ff5555" fill-rule="evenodd" stroke="none"/>
    <path d="M-3.55 3.05 Q-5.0 -0.05 -6.15 -1.55 -7.35 -3.15 -9.85 -4.5 L-15.3 -4.35 Q-18.25 -2.8 -18.55 -0.35 -19.8 -3.25 -21.9 -4.2 -24.0 -5.15 -26.8 -4.25 -29.6 -3.35 -31.25 3.75" fill="none" stroke="#cc4444" stroke-linecap="round" stroke-linejoin="round" stroke-width="2.0"/>
    <path d="M-28.85 4.75 L-5.4 3.8 Q-2.8 8.2 -6.4 11.25 -10.05 14.25 -15.55 15.05 -21.15 15.7 -26.5 12.7 -31.75 9.65 -28.85 4.75" fill="#ff5555" fill-rule="evenodd" stroke="none"/>
    <path d="M-5.4 3.8 Q-2.8 8.2 -6.4 11.25 -10.05 14.25 -15.55 15.05 -21.15 15.7 -26.5 12.7 -31.75 9.65 -28.85 4.75" fill="none" stroke="#cc4444" stroke-linecap="round" stroke-linejoin="round" stroke-width="2.0"/>
    <path d="M-39.6 3.55 Q-16.2 6.15 5.05 1.75" fill="none" stroke="#cc4444" stroke-linecap="round" stroke-linejoin="round" stroke-width="2.0"/>
    <path d="M-18.45 10.6 L-21.8 11.0 Q-23.8 10.95 -25.2 10.25 -26.65 9.65 -26.65 8.8 -26.7 7.95 -25.3 7.4 L-21.95 7.0 Q-20.0 7.1 -18.55 7.75 -17.15 8.4 -17.1 9.25 -17.1 10.1 -18.45 10.6" fill="#ff7f7f" fill-rule="evenodd" stroke="none"/>
    <path d="M15.9 -4.55 Q17.45 -4.6 18.5 -3.6 19.65 -2.55 19.7 -1.05 19.75 0.45 18.7 1.55 17.75 2.65 16.2 2.7 14.7 2.75 13.55 1.75 12.5 0.75 12.45 -0.75 12.4 -2.25 13.35 -3.4 14.4 -4.5 15.9 -4.55" fill="#000000" fill-opacity="0.49803922" fill-rule="evenodd" stroke="none"/>
  </g>
</svg>
