<?xml version="1.0" encoding="UTF-8" standalone="no"?>
<svg xmlns:ffdec="https://www.free-decompiler.com/flash" xmlns:xlink="http://www.w3.org/1999/xlink" ffdec:objectType="shape" height="21.3px" width="61.75px" xmlns="http://www.w3.org/2000/svg">
  <g transform="matrix(1.0, 0.0, 0.0, 1.0, 55.85, 5.5)">
    <path d="M-34.25 2.55 Q-31.9 -3.6 -28.45 -4.25 L-22.5 -4.0 Q-20.0 -3.15 -18.7 -0.5 -18.2 -2.65 -14.5 -3.85 -10.8 -5.1 -7.9 -3.8 -5.0 -2.5 -3.6 -1.1 -2.25 0.3 -0.7 3.05 -17.55 3.75 -34.25 2.55" fill="#ff353a" fill-rule="evenodd" stroke="none"/>
    <path d="M-0.7 3.05 Q-2.25 0.3 -3.6 -1.1 -5.0 -2.5 -7.9 -3.8 -10.8 -5.1 -14.5 -3.85 -18.2 -2.65 -18.7 -0.5 -20.0 -3.15 -22.5 -4.0 L-28.45 -4.25 Q-31.9 -3.6 -34.25 2.55" fill="none" stroke="#cc0005" stroke-linecap="round" stroke-linejoin="round" stroke-width="2.0"/>
    <path d="M-5.6 4.0 Q-3.2 8.45 -6.95 11.35 -10.7 14.2 -16.25 14.75 -21.85 15.2 -27.05 12.0 -32.2 8.7 -29.1 3.9 -16.45 3.55 -5.6 4.0" fill="#ff353a" fill-rule="evenodd" stroke="none"/>
    <path d="M-5.6 4.0 Q-3.2 8.45 -6.95 11.35 -10.7 14.2 -16.25 14.75 -21.85 15.2 -27.05 12.0 -32.2 8.7 -29.1 3.9" fill="none" stroke="#cc0005" stroke-linecap="round" stroke-linejoin="round" stroke-width="2.0"/>
    <path d="M-39.8 2.25 Q-16.55 5.85 4.9 2.35" fill="none" stroke="#cc0005" stroke-linecap="round" stroke-linejoin="round" stroke-width="2.0"/>
    <path d="M-18.9 10.2 L-22.25 10.5 Q-24.2 10.3 -25.6 9.6 -27.0 8.9 -27.0 8.05 -27.0 7.2 -25.6 6.75 L-22.25 6.5 Q-20.3 6.65 -18.9 7.35 -17.5 8.05 -17.5 8.9 -17.5 9.75 -18.9 10.2" fill="#ffffff" fill-opacity="0.4" fill-rule="evenodd" stroke="none"/>
    <path d="M-52.25 -4.75 Q-50.7 -4.75 -49.7 -3.7 -48.6 -2.6 -48.6 -1.1 -48.6 0.4 -49.7 1.45 -50.7 2.5 -52.25 2.5 -53.75 2.5 -54.85 1.45 -55.85 0.4 -55.85 -1.1 -55.85 -2.6 -54.85 -3.7 -53.75 -4.75 -52.25 -4.75" fill="#000000" fill-opacity="0.49803922" fill-rule="evenodd" stroke="none"/>
  </g>
</svg>
