<?xml version="1.0" encoding="UTF-8" standalone="no"?>
<svg xmlns:ffdec="https://www.free-decompiler.com/flash" xmlns:xlink="http://www.w3.org/1999/xlink" ffdec:objectType="shape" height="22.3px" width="53.9px" xmlns="http://www.w3.org/2000/svg">
  <g transform="matrix(1.0, 0.0, 0.0, 1.0, 43.45, 7.5)">
    <path d="M-27.45 -5.65 Q-24.2 -6.55 -21.7 -5.55 -19.3 -4.65 -17.95 -1.65 -17.6 -4.15 -14.05 -5.7 -10.55 -7.25 -7.7 -5.8 -4.9 -4.4 -3.5 -2.8 -2.2 -1.3 -0.6 1.8 L-3.85 2.05 -2.7 2.6 Q0.25 6.95 -4.05 9.95 -8.3 12.95 -14.75 13.7 -21.2 14.35 -27.35 11.35 -33.45 8.2 -30.0 3.3 L-28.25 2.55 -32.75 2.35 Q-30.7 -4.8 -27.45 -5.65" fill="#ffffff" fill-opacity="0.33333334" fill-rule="evenodd" stroke="none"/>
    <path d="M-42.45 2.05 Q-20.75 4.25 -0.5 2.0 -2.2 -1.3 -3.5 -2.8 -4.9 -4.4 -7.7 -5.8 -10.55 -7.25 -14.05 -5.7 -17.6 -4.15 -17.95 -1.65 -19.3 -4.65 -21.7 -5.55 -24.2 -6.55 -27.45 -5.65 -30.7 -4.8 -32.75 2.35 M-30.0 3.3 Q-33.45 8.2 -27.35 11.35 -21.2 14.35 -14.75 13.7 -8.3 12.95 -4.05 9.95 0.25 6.95 -2.7 2.6 M9.45 0.55 L-0.5 2.0" fill="none" stroke="#000000" stroke-linecap="round" stroke-linejoin="round" stroke-opacity="0.33333334" stroke-width="2.0"/>
  </g>
</svg>
