<?xml version="1.0" encoding="UTF-8" standalone="no"?>
<svg xmlns:ffdec="https://www.free-decompiler.com/flash" xmlns:xlink="http://www.w3.org/1999/xlink" ffdec:objectType="shape" height="17.65px" width="25.7px" xmlns="http://www.w3.org/2000/svg">
  <g transform="matrix(1.0, 0.0, 0.0, 1.0, 12.85, 0.0)">
    <path d="M2.25 0.65 Q5.1 -0.65 7.3 0.7 9.55 2.0 10.6 3.45 11.6 4.8 12.85 7.55 L10.25 7.7 11.1 8.2 Q13.35 12.1 9.85 14.65 6.4 17.15 1.25 17.6 -3.95 18.0 -8.75 15.2 -13.55 12.3 -10.65 8.1 L-9.25 7.5 -12.85 7.15 Q-11.05 1.0 -8.4 0.35 L-3.85 0.55 Q-1.95 1.4 -0.95 4.05 -0.55 1.9 2.25 0.65" fill="#ff80b6" fill-rule="evenodd" stroke="none"/>
  </g>
</svg>
