<?xml version="1.0" encoding="UTF-8" standalone="no"?>
<svg xmlns:ffdec="https://www.free-decompiler.com/flash" xmlns:xlink="http://www.w3.org/1999/xlink" ffdec:objectType="shape" height="19.65px" width="53.9px" xmlns="http://www.w3.org/2000/svg">
  <g transform="matrix(1.0, 0.0, 0.0, 1.0, 43.8, 6.1)">
    <path d="M-14.85 -4.45 Q-12.0 -5.75 -9.8 -4.4 -7.55 -3.1 -6.5 -1.65 -5.5 -0.3 -4.25 2.45 L-6.85 2.6 -6.0 3.1 Q-3.75 7.0 -7.25 9.55 -10.7 12.05 -15.85 12.5 -21.05 12.9 -25.85 10.1 -30.65 7.2 -27.75 3.0 L-26.35 2.4 -29.95 2.05 Q-28.15 -4.1 -25.5 -4.75 L-20.95 -4.55 Q-19.05 -3.7 -18.05 -1.05 -17.65 -3.2 -14.85 -4.45" fill="#ffffff" fill-opacity="0.2" fill-rule="evenodd" stroke="none"/>
    <path d="M-4.25 2.45 Q-5.5 -0.3 -6.5 -1.65 -7.55 -3.1 -9.8 -4.4 -12.0 -5.75 -14.85 -4.45 -17.65 -3.2 -18.05 -1.05 -19.05 -3.7 -20.95 -4.55 L-25.5 -4.75 Q-28.15 -4.1 -29.95 2.05 M-27.75 3.0 Q-30.65 7.2 -25.85 10.1 -21.05 12.9 -15.85 12.5 -10.7 12.05 -7.25 9.55 -3.75 7.0 -6.0 3.1 M9.1 4.1 Q-17.9 0.5 -42.8 4.0" fill="none" stroke="#000000" stroke-linecap="round" stroke-linejoin="round" stroke-opacity="0.4" stroke-width="2.0"/>
  </g>
</svg>
