<?xml version="1.0" encoding="UTF-8" standalone="no"?>
<svg xmlns:ffdec="https://www.free-decompiler.com/flash" xmlns:xlink="http://www.w3.org/1999/xlink" ffdec:objectType="shape" height="32.65px" width="85.1px" xmlns="http://www.w3.org/2000/svg">
  <g transform="matrix(1.0, 0.0, 0.0, 1.0, 61.8, 13.95)">
    <path d="M-38.2 -8.4 Q-23.5 -6.25 -5.85 -8.7 L-8.3 16.55 Q-22.0 18.95 -34.9 16.4 L-38.2 -8.4" fill="#ffffff" fill-rule="evenodd" stroke="none"/>
    <path d="M-38.2 -8.4 L-34.9 16.4 Q-22.0 18.95 -8.3 16.55 L-5.85 -8.7" fill="none" stroke="#000000" stroke-linecap="round" stroke-linejoin="round" stroke-opacity="0.4" stroke-width="2.0"/>
    <path d="M-21.9 14.65 Q-23.25 4.05 -23.4 -7.2" fill="none" stroke="#000000" stroke-linecap="round" stroke-linejoin="round" stroke-opacity="0.29803923" stroke-width="2.0"/>
    <path d="M-60.8 -1.35 Q-56.3 -11.0 -50.4 -11.85 -38.15 -7.5 -22.8 -8.05 -7.5 -8.6 -1.3 -10.0 4.85 -11.4 7.0 -12.95 16.9 -13.0 22.3 -4.35" fill="none" stroke="#000000" stroke-linecap="round" stroke-linejoin="round" stroke-opacity="0.4" stroke-width="2.0"/>
  </g>
</svg>
