<?xml version="1.0" encoding="UTF-8" standalone="no"?>
<svg xmlns:ffdec="https://www.free-decompiler.com/flash" xmlns:xlink="http://www.w3.org/1999/xlink" ffdec:objectType="shape" height="36.25px" width="55.15px" xmlns="http://www.w3.org/2000/svg">
  <g transform="matrix(1.0, 0.0, 0.0, 1.0, 48.7, 9.85)">
    <path d="M-32.05 -5.7 Q-22.15 -4.3 -12.25 -5.65 -16.9 4.35 -16.7 12.0 -16.55 19.6 -18.1 22.35 -19.7 25.1 -25.1 25.8 -30.55 26.45 -34.25 23.7 -37.95 20.95 -38.6 17.05 -42.0 5.35 -32.05 -5.7" fill="#df4448" fill-rule="evenodd" stroke="none"/>
    <path d="M-32.05 -5.7 Q-42.0 5.35 -38.6 17.05 -37.95 20.95 -34.25 23.7 -30.55 26.45 -25.1 25.8 -19.7 25.1 -18.1 22.35 -16.55 19.6 -16.7 12.0 -16.9 4.35 -12.25 -5.65" fill="none" stroke="#000000" stroke-linecap="round" stroke-linejoin="round" stroke-opacity="0.29803923" stroke-width="1.0"/>
    <path d="M-47.7 -8.85 Q-37.0 -4.95 -20.5 -5.1 -4.05 -5.3 5.45 -6.75" fill="none" stroke="#000000" stroke-linecap="round" stroke-linejoin="round" stroke-opacity="0.4" stroke-width="2.0"/>
    <path d="M-23.2 -4.8 Q-29.65 0.25 -28.4 15.4" fill="none" stroke="#000000" stroke-linecap="round" stroke-linejoin="round" stroke-opacity="0.2" stroke-width="1.0"/>
  </g>
</svg>
