<?xml version="1.0" encoding="UTF-8" standalone="no"?>
<svg xmlns:ffdec="https://www.free-decompiler.com/flash" xmlns:xlink="http://www.w3.org/1999/xlink" ffdec:objectType="shape" height="21.3px" width="52.5px" xmlns="http://www.w3.org/2000/svg">
  <g transform="matrix(1.0, 0.0, 0.0, 1.0, 42.1, 5.5)">
    <path d="M-27.95 -4.25 L-22.0 -4.0 Q-19.5 -3.15 -18.2 -0.5 -17.7 -2.65 -14.0 -3.85 -10.3 -5.1 -7.4 -3.8 -4.5 -2.5 -3.1 -1.1 -1.75 0.3 -0.2 3.05 -3.65 3.2 -5.1 4.0 -2.7 8.45 -6.45 11.35 -10.2 14.2 -15.75 14.75 -21.35 15.2 -26.55 12.0 -31.7 8.7 -28.6 3.9 -29.95 2.8 -33.75 2.55 -31.4 -3.6 -27.95 -4.25" fill="#ffffff" fill-opacity="0.49803922" fill-rule="evenodd" stroke="none"/>
    <path d="M-18.4 10.2 L-21.75 10.5 Q-23.7 10.3 -25.1 9.6 -26.5 8.9 -26.5 8.05 -26.5 7.2 -25.1 6.75 L-21.75 6.5 Q-19.8 6.65 -18.4 7.35 -17.0 8.05 -17.0 8.9 -17.0 9.75 -18.4 10.2" fill="#ffffff" fill-opacity="0.6" fill-rule="evenodd" stroke="none"/>
    <path d="M-41.1 0.9 Q-34.8 2.85 -28.6 3.85 -16.65 5.75 -5.1 3.95 L-0.2 3.0 Q-1.75 0.3 -3.1 -1.1 -4.5 -2.5 -7.4 -3.8 -10.3 -5.1 -14.0 -3.85 -17.7 -2.65 -18.2 -0.5 -19.5 -3.15 -22.0 -4.0 L-27.95 -4.25 Q-31.4 -3.6 -33.75 2.55 M-28.6 3.85 Q-31.7 8.7 -26.55 12.0 -21.35 15.2 -15.75 14.75 -10.2 14.2 -6.45 11.35 -2.7 8.45 -5.1 3.95 M9.4 0.1 Q4.6 1.9 -0.2 3.0" fill="none" stroke="#000000" stroke-linecap="round" stroke-linejoin="round" stroke-opacity="0.33333334" stroke-width="2.0"/>
  </g>
</svg>
