<?xml version="1.0" encoding="UTF-8" standalone="no"?>
<svg xmlns:ffdec="https://www.free-decompiler.com/flash" xmlns:xlink="http://www.w3.org/1999/xlink" ffdec:objectType="shape" height="19.3px" width="29.9px" xmlns="http://www.w3.org/2000/svg">
  <g transform="matrix(1.0, 0.0, 0.0, 1.0, 14.95, 0.0)">
    <path d="M-9.8 0.25 L-4.5 0.5 Q-2.25 1.35 -1.1 4.0 -0.65 1.85 2.65 0.65 5.95 -0.6 8.5 0.7 11.1 2.0 12.35 3.4 13.55 4.8 14.95 7.55 11.85 7.7 10.55 8.5 12.7 12.95 9.35 15.85 6.0 18.7 1.1 19.25 -3.9 19.7 -8.55 16.5 -13.1 13.2 -10.35 8.4 -11.55 7.3 -14.95 7.05 -12.85 0.9 -9.8 0.25" fill="#cbce4c" fill-rule="evenodd" stroke="none"/>
  </g>
</svg>
