<?xml version="1.0" encoding="UTF-8" standalone="no"?>
<svg xmlns:ffdec="https://www.free-decompiler.com/flash" xmlns:xlink="http://www.w3.org/1999/xlink" ffdec:objectType="shape" height="21.3px" width="52.5px" xmlns="http://www.w3.org/2000/svg">
  <g transform="matrix(1.0, 0.0, 0.0, 1.0, 42.1, 5.5)">
    <path d="M-26.75 -4.25 L-21.45 -4.0 Q-19.2 -3.15 -18.05 -0.5 -17.6 -2.65 -14.3 -3.85 -11.0 -5.1 -8.45 -3.8 -5.85 -2.5 -4.6 -1.1 -3.4 0.3 -2.0 3.05 -5.1 3.2 -6.4 4.0 -4.25 8.45 -7.6 11.35 -10.95 14.2 -15.85 14.75 -20.85 15.2 -25.5 12.0 -30.05 8.7 -27.3 3.9 -28.5 2.8 -31.9 2.55 -29.8 -3.6 -26.75 -4.25" fill="#ffffff" fill-opacity="0.2" fill-rule="evenodd" stroke="none"/>
    <path d="M-17.75 10.45 L-20.75 10.8 Q-22.5 10.65 -23.75 9.9 -25.0 9.25 -25.0 8.4 -25.0 7.55 -23.75 7.05 L-20.75 6.8 Q-19.0 6.95 -17.75 7.6 -16.5 8.3 -16.5 9.15 -16.5 10.0 -17.75 10.45" fill="#ffffff" fill-opacity="0.49803922" fill-rule="evenodd" stroke="none"/>
    <path d="M-2.0 3.05 Q-3.4 0.3 -4.6 -1.1 -5.85 -2.5 -8.45 -3.8 -11.0 -5.1 -14.3 -3.85 -17.6 -2.65 -18.05 -0.5 -19.2 -3.15 -21.45 -4.0 L-26.75 -4.25 Q-29.8 -3.6 -31.9 2.55 M-27.35 4.05 Q-30.0 8.75 -25.5 12.0 -20.85 15.2 -15.85 14.75 -10.95 14.2 -7.6 11.35 -4.3 8.5 -6.35 4.15 -16.7 5.55 -27.35 4.05 -34.15 3.05 -41.1 0.9 M9.4 0.1 Q1.65 3.0 -6.35 4.15" fill="none" stroke="#000000" stroke-linecap="round" stroke-linejoin="round" stroke-opacity="0.33333334" stroke-width="2.0"/>
  </g>
</svg>
