<?xml version="1.0" encoding="UTF-8" standalone="no"?>
<svg xmlns:ffdec="https://www.free-decompiler.com/flash" xmlns:xlink="http://www.w3.org/1999/xlink" ffdec:objectType="shape" height="21.3px" width="45.5px" xmlns="http://www.w3.org/2000/svg">
  <g transform="matrix(1.0, 0.0, 0.0, 1.0, 38.6, 5.5)">
    <path d="M-26.25 -4.25 L-21.15 -4.0 Q-19.0 -3.15 -17.85 -0.5 -17.45 -2.65 -14.25 -3.85 -11.05 -5.1 -8.55 -3.8 -6.05 -2.5 -4.85 -1.1 -3.7 0.3 -2.35 3.05 -5.3 3.2 -6.55 4.0 -4.5 8.45 -7.75 11.35 -10.95 14.2 -15.75 14.75 -20.55 15.2 -25.05 12.0 -29.5 8.7 -26.8 3.9 -28.0 2.8 -31.25 2.55 -29.25 -3.6 -26.25 -4.25" fill="#ffa5cc" fill-rule="evenodd" stroke="none"/>
    <path d="M-18.05 10.2 L-20.95 10.5 Q-22.6 10.3 -23.8 9.6 -25.05 8.9 -25.05 8.05 -25.05 7.2 -23.8 6.75 L-20.95 6.5 Q-19.25 6.65 -18.05 7.35 -16.85 8.05 -16.85 8.9 -16.85 9.75 -18.05 10.2" fill="#ffffff" fill-opacity="0.4" fill-rule="evenodd" stroke="none"/>
    <path d="M-37.6 0.9 Q-32.15 2.85 -26.8 3.85 -16.5 5.75 -6.55 3.95 L-2.35 3.0 Q-3.7 0.3 -4.85 -1.1 -6.05 -2.5 -8.55 -3.8 -11.05 -5.1 -14.25 -3.85 -17.45 -2.65 -17.85 -0.5 -19.0 -3.15 -21.15 -4.0 L-26.25 -4.25 Q-29.25 -3.6 -31.25 2.55 M-26.8 3.85 Q-29.5 8.7 -25.05 12.0 -20.55 15.2 -15.75 14.75 -10.95 14.2 -7.75 11.35 -4.5 8.45 -6.55 3.95 M5.9 0.1 Q1.8 1.9 -2.35 3.0" fill="none" stroke="#000000" stroke-linecap="round" stroke-linejoin="round" stroke-opacity="0.33333334" stroke-width="2.0"/>
  </g>
</svg>
