<?xml version="1.0" encoding="UTF-8" standalone="no"?>
<svg xmlns:ffdec="https://www.free-decompiler.com/flash" xmlns:xlink="http://www.w3.org/1999/xlink" ffdec:objectType="shape" height="21.3px" width="53.5px" xmlns="http://www.w3.org/2000/svg">
  <g transform="matrix(1.0, 0.0, 0.0, 1.0, 43.1, 8.5)">
    <path d="M-27.25 -7.25 L-22.15 -7.0 Q-20.0 -6.15 -18.85 -3.5 -18.45 -5.65 -15.25 -6.85 -12.05 -8.1 -9.55 -6.8 -7.05 -5.5 -5.85 -4.1 -4.7 -2.7 -3.35 0.05 -6.3 0.2 -7.55 1.0 -5.5 5.45 -8.75 8.35 -11.95 11.2 -16.75 11.75 -21.55 12.2 -26.05 9.0 -30.5 5.7 -27.8 0.9 -29.0 -0.2 -32.25 -0.45 -30.25 -6.6 -27.25 -7.25" fill="#ffa5cc" fill-rule="evenodd" stroke="none"/>
    <path d="M-18.3 8.2 Q-19.5 8.9 -21.2 8.75 -22.85 8.55 -24.05 7.6 -25.3 6.7 -25.3 5.55 -25.3 4.35 -24.05 3.7 -22.85 3.05 -21.2 3.25 -19.5 3.4 -18.3 4.3 -17.1 5.2 -17.1 6.4 -17.1 7.55 -18.3 8.2" fill="#ffffff" fill-opacity="0.4" fill-rule="evenodd" stroke="none"/>
    <path d="M-42.1 2.9 Q-34.75 -1.75 -27.8 0.85 -17.5 2.75 -7.55 0.95 L-3.35 0.0 Q-4.7 -2.7 -5.85 -4.1 -7.05 -5.5 -9.55 -6.8 -12.05 -8.1 -15.25 -6.85 -18.45 -5.65 -18.85 -3.5 -20.0 -6.15 -22.15 -7.0 L-27.25 -7.25 Q-30.25 -6.6 -32.25 -0.45 M-27.8 0.85 Q-30.5 5.7 -26.05 9.0 -21.55 12.2 -16.75 11.75 -11.95 11.2 -8.75 8.35 -5.5 5.45 -7.55 0.95 M9.4 4.35 Q2.8 -2.3 -3.35 0.0" fill="none" stroke="#000000" stroke-linecap="round" stroke-linejoin="round" stroke-opacity="0.33333334" stroke-width="2.0"/>
  </g>
</svg>
