<?xml version="1.0" encoding="UTF-8" standalone="no"?>
<svg xmlns:ffdec="https://www.free-decompiler.com/flash" xmlns:xlink="http://www.w3.org/1999/xlink" ffdec:objectType="shape" height="109.8px" width="151.0px" xmlns="http://www.w3.org/2000/svg">
  <g transform="matrix(1.0, 0.0, 0.0, 1.0, 75.75, 64.3)">
    <path d="M74.8 0.0 Q74.8 18.65 52.8 31.8 30.85 45.0 -0.2 45.0 -31.25 45.0 -53.25 31.8 -75.2 18.65 -75.2 0.0 -75.2 -18.65 -53.25 -31.85 -31.25 -45.0 -0.2 -45.0 30.85 -45.0 52.8 -31.85 74.8 -18.65 74.8 0.0" fill="#e0da86" fill-rule="evenodd" stroke="none"/>
    <path d="M-3.45 -40.85 Q23.0 -42.95 29.9 -34.4 36.7 -25.85 35.7 -16.55 34.7 -7.3 20.2 -0.75 5.8 5.75 -13.85 5.75 -33.55 5.75 -47.0 -0.75 -60.4 -7.3 -59.6 -16.5 -58.8 -25.75 -44.35 -32.25 -29.9 -38.8 -3.45 -40.85" fill="#e6e1a1" fill-rule="evenodd" stroke="none"/>
    <path d="M52.8 -31.85 Q74.8 -18.65 74.8 0.0 74.8 18.65 52.8 31.8 30.85 45.0 -0.2 45.0 -31.25 45.0 -53.25 31.8 -75.2 18.65 -75.2 0.0 -75.2 -18.65 -53.25 -31.85 -31.25 -45.0 -0.2 -45.0 30.85 -45.0 52.8 -31.85 M50.85 -29.9 Q29.7 -42.25 -0.2 -42.25 -30.1 -42.25 -51.25 -29.9 -72.4 -17.5 -72.4 0.0 -72.4 17.5 -51.25 29.85 -30.1 42.25 -0.2 42.25 29.7 42.25 50.85 29.85 72.0 17.5 72.0 0.0 72.0 -17.5 50.85 -29.9" fill="#66643f" fill-rule="evenodd" stroke="none"/>
    <path d="M-11.45 41.05 Q-23.35 11.55 -8.15 -41.35" fill="none" stroke="#b0ae5b" stroke-linecap="round" stroke-linejoin="round" stroke-width="2.0"/>
    <path d="M-17.4 34.2 L-9.8 34.2" fill="none" stroke="#b0ae5b" stroke-linecap="round" stroke-linejoin="round" stroke-width="2.0"/>
    <path d="M-20.75 21.65 L-12.05 21.65" fill="none" stroke="#b0ae5b" stroke-linecap="round" stroke-linejoin="round" stroke-width="2.0"/>
    <path d="M-21.4 4.25 L-12.7 4.25" fill="none" stroke="#b0ae5b" stroke-linecap="round" stroke-linejoin="round" stroke-width="2.0"/>
    <path d="M-18.7 -13.75 L-10.0 -13.75" fill="none" stroke="#b0ae5b" stroke-linecap="round" stroke-linejoin="round" stroke-width="2.0"/>
    <path d="M-13.85 -33.0 L-7.15 -33.0" fill="none" stroke="#b0ae5b" stroke-linecap="round" stroke-linejoin="round" stroke-width="2.0"/>
    <path d="M45.3 15.25 Q67.3 2.1 67.3 -16.55 L67.1 -20.15 Q74.8 -11.05 74.8 0.0 74.8 18.65 52.8 31.8 30.85 45.0 -0.2 45.0 -31.25 45.0 -53.25 31.8 -73.05 19.95 -74.95 3.65 -69.7 9.9 -60.75 15.25 -38.75 28.45 -7.7 28.45 23.35 28.45 45.3 15.25" fill="#000000" fill-opacity="0.08627451" fill-rule="evenodd" stroke="none"/>
    <path d="M-11.45 41.05 Q-23.35 11.55 -8.15 -41.35" fill="none" stroke="#b0ae5b" stroke-linecap="round" stroke-linejoin="round" stroke-width="2.0"/>
    <path d="M-17.4 34.2 L-9.8 34.2" fill="none" stroke="#b0ae5b" stroke-linecap="round" stroke-linejoin="round" stroke-width="2.0"/>
    <path d="M-20.75 21.65 L-12.05 21.65" fill="none" stroke="#b0ae5b" stroke-linecap="round" stroke-linejoin="round" stroke-width="2.0"/>
    <path d="M-21.4 4.25 L-12.7 4.25" fill="none" stroke="#b0ae5b" stroke-linecap="round" stroke-linejoin="round" stroke-width="2.0"/>
    <path d="M-18.7 -13.75 L-10.0 -13.75" fill="none" stroke="#b0ae5b" stroke-linecap="round" stroke-linejoin="round" stroke-width="2.0"/>
    <path d="M-13.85 -33.0 L-7.15 -33.0" fill="none" stroke="#b0ae5b" stroke-linecap="round" stroke-linejoin="round" stroke-width="2.0"/>
    <path d="M27.05 -63.8 Q39.75 -63.8 48.75 -56.0 57.75 -48.2 57.75 -37.2 57.75 -33.1 56.5 -29.45 74.75 -17.0 74.75 0.0 74.75 18.65 52.75 31.8 30.8 45.0 -0.25 45.0 -31.3 45.0 -53.3 31.8 -75.25 18.65 -75.25 0.0 -75.25 -17.3 -56.4 -29.85 -56.8 -32.1 -56.8 -34.5 -56.8 -43.55 -51.2 -49.95 -45.6 -56.35 -37.7 -56.35 -29.8 -56.35 -24.2 -49.95 -21.6 -47.0 -20.2 -43.5 -11.75 -44.85 -2.4 -44.95 -0.3 -51.1 5.35 -56.0 14.35 -63.8 27.05 -63.8 Z" fill="none" stroke="#000000" stroke-linecap="round" stroke-linejoin="round" stroke-opacity="0.29803923" stroke-width="1.0"/>
  </g>
</svg>
