<?xml version="1.0" encoding="UTF-8" standalone="no"?>
<svg xmlns:ffdec="https://www.free-decompiler.com/flash" xmlns:xlink="http://www.w3.org/1999/xlink" ffdec:objectType="shape" height="21.3px" width="53.5px" xmlns="http://www.w3.org/2000/svg">
  <g transform="matrix(1.0, 0.0, 0.0, 1.0, 43.35, 8.5)">
    <path d="M-27.5 -7.25 L-22.4 -7.0 Q-20.25 -6.15 -19.1 -3.5 -18.7 -5.65 -15.5 -6.85 -12.3 -8.1 -9.8 -6.8 -7.3 -5.5 -6.1 -4.1 -4.95 -2.7 -3.6 0.05 -6.55 0.2 -7.8 1.0 -5.75 5.45 -9.0 8.35 -12.2 11.2 -17.0 11.75 -21.8 12.2 -26.3 9.0 -30.75 5.7 -28.05 0.9 -29.25 -0.2 -32.5 -0.45 -30.5 -6.6 -27.5 -7.25" fill="#9966cc" fill-opacity="0.8" fill-rule="evenodd" stroke="none"/>
    <path d="M-18.55 8.2 Q-19.75 8.9 -21.45 8.75 -23.1 8.55 -24.3 7.6 -25.55 6.7 -25.55 5.55 -25.55 4.35 -24.3 3.7 -23.1 3.05 -21.45 3.25 -19.75 3.4 -18.55 4.3 -17.35 5.2 -17.35 6.4 -17.35 7.55 -18.55 8.2" fill="#ffffff" fill-opacity="0.4" fill-rule="evenodd" stroke="none"/>
    <path d="M-42.35 2.9 Q-35.0 -1.75 -28.05 0.85 -17.75 2.75 -7.8 0.95 L-3.6 0.0 Q-4.95 -2.7 -6.1 -4.1 -7.3 -5.5 -9.8 -6.8 -12.3 -8.1 -15.5 -6.85 -18.7 -5.65 -19.1 -3.5 -20.25 -6.15 -22.4 -7.0 L-27.5 -7.25 Q-30.5 -6.6 -32.5 -0.45 M-28.05 0.85 Q-30.75 5.7 -26.3 9.0 -21.8 12.2 -17.0 11.75 -12.2 11.2 -9.0 8.35 -5.75 5.45 -7.8 0.95 M9.15 4.35 Q2.55 -2.3 -3.6 0.0" fill="none" stroke="#000000" stroke-linecap="round" stroke-linejoin="round" stroke-opacity="0.33333334" stroke-width="2.0"/>
  </g>
</svg>
