<?xml version="1.0" encoding="UTF-8" standalone="no"?>
<svg xmlns:ffdec="https://www.free-decompiler.com/flash" xmlns:xlink="http://www.w3.org/1999/xlink" ffdec:objectType="shape" height="23.3px" width="53.35px" xmlns="http://www.w3.org/2000/svg">
  <g transform="matrix(1.0, 0.0, 0.0, 1.0, 38.95, 6.85)">
    <path d="M-26.35 -4.25 Q-24.3 -5.5 -21.15 -4.0 -18.0 -2.55 -16.8 -1.35 -15.85 -3.15 -13.7 -4.7 -11.55 -6.25 -8.7 -5.75 -5.85 -5.25 -4.8 -3.15 -3.85 -1.1 -5.1 1.9 -1.6 6.55 -4.3 10.5 -7.1 14.65 -13.2 15.3 -19.2 15.95 -23.8 12.85 -28.15 9.9 -25.35 3.8 -26.4 2.7 -27.4 -0.15 -28.4 -3.05 -26.35 -4.25" fill="#ee9782" fill-rule="evenodd" stroke="none"/>
    <path d="M-16.9 9.6 Q-16.9 10.75 -17.9 11.45 -18.85 12.15 -20.15 12.0 -21.5 11.85 -22.45 10.95 -23.35 10.05 -23.35 8.9 -23.3 7.7 -22.35 6.95 -21.35 6.3 -20.0 6.45 -18.7 6.6 -17.8 7.45 -16.85 8.4 -16.9 9.6" fill="#ffffff" fill-opacity="0.4" fill-rule="evenodd" stroke="none"/>
    <path d="M-4.8 2.35 L-5.1 1.9 Q-3.85 -1.1 -4.8 -3.15 -5.85 -5.25 -8.7 -5.75 -11.55 -6.25 -13.7 -4.7 -15.85 -3.15 -16.8 -1.35 -18.0 -2.55 -21.1 -3.95 L-26.25 -4.15 Q-28.3 -2.95 -27.35 -0.1 -26.4 2.7 -25.35 3.8 L-25.5 4.25 Q-28.0 10.05 -23.8 12.85 -19.15 16.0 -13.2 15.35 -7.15 14.7 -4.3 10.5 -1.65 6.75 -4.8 2.35" fill="none" stroke="#000000" stroke-linecap="round" stroke-linejoin="round" stroke-opacity="0.33333334" stroke-width="2.0"/>
    <path d="M-25.5 4.25 L-18.35 4.6 Q-11.95 4.5 -4.8 2.35 L-1.15 1.15 Q7.9 -2.2 13.4 5.55 M-25.5 4.25 L-37.95 2.95" fill="none" stroke="#000000" stroke-linecap="round" stroke-linejoin="miter-clip" stroke-miterlimit="4.0" stroke-opacity="0.33333334" stroke-width="2.0"/>
  </g>
</svg>
