<?xml version="1.0" encoding="UTF-8" standalone="no"?>
<svg xmlns:ffdec="https://www.free-decompiler.com/flash" xmlns:xlink="http://www.w3.org/1999/xlink" ffdec:objectType="shape" height="22.7px" width="60.35px" xmlns="http://www.w3.org/2000/svg">
  <g transform="matrix(1.0, 0.0, 0.0, 1.0, 34.4, 6.85)">
    <path d="M-24.0 6.25 Q-23.25 2.05 -20.9 -0.8 -18.55 -3.55 -11.0 -3.1 -3.65 -2.55 0.8 0.6 5.3 3.75 7.3 5.65 L5.85 5.95 Q5.25 8.25 1.7 11.35 -2.25 14.7 -9.6 14.85 -16.95 15.05 -19.2 11.55 -21.05 8.55 -21.25 6.3 L-24.0 6.25" fill="#498d38" fill-opacity="0.8" fill-rule="evenodd" stroke="none"/>
    <path d="M7.3 5.65 Q5.3 3.75 0.8 0.6 -3.65 -2.55 -11.0 -3.1 -18.55 -3.55 -20.9 -0.8 -23.25 2.05 -24.0 6.25 M-21.25 6.3 Q-21.05 8.55 -19.2 11.55 -16.95 15.05 -9.6 14.85 -2.25 14.7 1.7 11.35 5.25 8.25 5.85 5.95" fill="none" stroke="#000000" stroke-linecap="round" stroke-linejoin="round" stroke-opacity="0.29803923" stroke-width="2.0"/>
    <path d="M-33.4 6.8 L-22.6 6.35 Q-18.95 5.7 -4.85 6.15 9.2 6.6 15.35 3.85 21.4 1.0 24.95 -5.85" fill="none" stroke="#000000" stroke-linecap="round" stroke-linejoin="miter-clip" stroke-miterlimit="4.0" stroke-opacity="0.29803923" stroke-width="2.0"/>
  </g>
</svg>
