<?xml version="1.0" encoding="UTF-8" standalone="no"?>
<svg xmlns:ffdec="https://www.free-decompiler.com/flash" xmlns:xlink="http://www.w3.org/1999/xlink" ffdec:objectType="shape" height="23.3px" width="58.75px" xmlns="http://www.w3.org/2000/svg">
  <g transform="matrix(1.0, 0.0, 0.0, 1.0, 45.2, 6.5)">
    <path d="M-27.85 -5.2 L-22.2 -4.9 Q-19.85 -3.95 -18.6 -1.05 -18.15 -3.4 -14.6 -4.75 -11.1 -6.1 -8.35 -4.7 -5.6 -3.25 -4.25 -1.7 -3.0 -0.15 -1.5 2.85 -4.8 3.05 -6.15 3.9 -3.9 8.8 -7.45 12.0 -11.0 15.15 -16.3 15.75 -21.6 16.25 -26.55 12.75 -31.45 9.1 -28.5 3.8 -29.75 2.6 -33.4 2.3 -31.15 -4.45 -27.85 -5.2" fill="#498d38" fill-opacity="0.8" fill-rule="evenodd" stroke="none"/>
    <path d="M-44.2 6.0 Q-36.1 0.9 -28.45 3.75 -17.1 5.85 -6.1 3.85 L-1.5 2.8 Q-3.0 -0.15 -4.25 -1.7 -5.55 -3.25 -8.35 -4.7 -11.1 -6.1 -14.6 -4.75 -18.15 -3.4 -18.6 -1.05 -19.85 -3.95 -22.2 -4.9 L-27.85 -5.2 Q-31.15 -4.45 -33.35 2.3 M-28.45 3.75 Q-31.4 9.1 -26.5 12.75 -21.55 16.25 -16.25 15.75 -10.95 15.15 -7.45 12.0 -3.85 8.8 -6.1 3.85 M12.55 7.6 Q5.3 0.25 -1.5 2.8" fill="none" stroke="#000000" stroke-linecap="round" stroke-linejoin="round" stroke-opacity="0.33333334" stroke-width="2.0"/>
  </g>
</svg>
