<?xml version="1.0" encoding="UTF-8" standalone="no"?>
<svg xmlns:ffdec="https://www.free-decompiler.com/flash" xmlns:xlink="http://www.w3.org/1999/xlink" ffdec:objectType="shape" height="27.4px" width="79.15px" xmlns="http://www.w3.org/2000/svg">
  <g transform="matrix(1.0, 0.0, 0.0, 1.0, 44.2, 18.25)">
    <path d="M32.05 -10.55 Q35.55 -4.6 31.45 3.1 27.35 10.75 11.55 7.3 -4.35 3.9 -22.35 5.5 -15.3 3.0 -0.65 -7.45 14.0 -17.9 21.3 -17.2 28.55 -16.5 32.05 -10.55" fill="#ffffff" fill-rule="evenodd" stroke="none"/>
    <path d="M-43.2 6.25 Q-39.85 8.0 -33.55 7.85 -28.9 7.75 -22.35 5.5 -15.3 3.0 -0.65 -7.45 14.0 -17.9 21.3 -17.2 28.55 -16.5 32.3 -10.75 36.05 -5.0 31.4 2.8" fill="none" stroke="#000000" stroke-linecap="round" stroke-linejoin="miter-clip" stroke-miterlimit="4.0" stroke-opacity="0.49803922" stroke-width="2.0"/>
    <path d="M31.4 2.8 Q26.75 10.55 10.5 7.1 -5.8 3.65 -22.35 5.5" fill="none" stroke="#000000" stroke-linecap="round" stroke-linejoin="round" stroke-opacity="0.49803922" stroke-width="2.0"/>
    <path d="M19.1 -16.6 Q21.9 -9.75 22.1 -3.5 27.7 -4.8 33.2 -5.4 M6.65 -11.45 Q7.7 -6.5 7.65 -1.55 L22.1 -3.5 Q22.3 1.15 21.05 7.5 M7.2 5.05 L7.65 -1.55 -4.4 0.45 Q-4.35 2.2 -4.65 3.95 M-4.4 0.45 L-12.25 1.7 M-4.4 0.45 Q-4.45 -1.55 -4.95 -3.55" fill="none" stroke="#000000" stroke-linecap="round" stroke-linejoin="round" stroke-opacity="0.49803922" stroke-width="2.0"/>
  </g>
</svg>
