<?xml version="1.0" encoding="UTF-8" standalone="no"?>
<svg xmlns:ffdec="https://www.free-decompiler.com/flash" xmlns:xlink="http://www.w3.org/1999/xlink" ffdec:objectType="shape" height="41.35px" width="75.7px" xmlns="http://www.w3.org/2000/svg">
  <g transform="matrix(1.0, 0.0, 0.0, 1.0, 49.85, 22.1)">
    <path d="M17.1 6.15 Q12.95 11.3 5.15 14.75 -2.65 18.05 -10.7 18.25 -18.8 18.4 -27.6 15.25 -36.3 11.95 -41.2 6.25 -43.25 3.95 -44.8 1.15 -8.65 -0.8 23.25 -7.2 20.85 1.5 17.1 6.15" fill="#000000" fill-opacity="0.49803922" fill-rule="evenodd" stroke="none"/>
    <path d="M23.75 -9.15 L23.25 -7.2 Q-10.3 13.6 -44.8 1.15 -47.25 -2.9 -48.8 -8.05 -46.35 -6.8 -34.5 -5.3 -22.6 -3.75 -11.45 -6.2 -0.35 -8.75 10.9 -15.3 22.05 -21.9 23.55 -20.95 26.15 -19.3 23.75 -9.15" fill="#ffffff" fill-rule="evenodd" stroke="none"/>
    <path d="M0.25 16.6 Q-5.5 18.0 -8.8 18.2 L-20.05 17.5 Q-19.25 14.9 -15.85 12.75 -11.6 10.05 -5.7 10.85 0.15 11.65 3.7 13.0 L6.6 14.2 Q4.25 15.65 0.25 16.6" fill="#ed6f58" fill-rule="evenodd" stroke="none"/>
    <path d="M10.85 -15.3 Q22.0 -21.95 23.5 -20.95 26.1 -19.3 23.65 -9.1 L23.15 -7.2 Q20.8 1.5 17.05 6.15 12.9 11.3 5.1 14.7 -2.65 18.1 -10.75 18.25 -18.85 18.4 -27.65 15.2 -36.4 12.0 -41.3 6.25 -43.3 3.9 -44.9 1.15 -47.3 -2.9 -48.85 -8.0 -46.4 -6.8 -34.55 -5.25 -22.65 -3.75 -11.55 -6.2 -0.4 -8.75 10.85 -15.3 Z" fill="none" stroke="#000000" stroke-linecap="round" stroke-linejoin="round" stroke-opacity="0.49803922" stroke-width="2.0"/>
    <path d="M3.05 1.65 Q4.9 -4.65 4.95 -10.95 M15.7 -3.15 Q18.3 -10.8 17.75 -17.05 M-10.9 4.9 Q-9.6 -1.15 -10.55 -5.25 M-25.05 4.9 Q-26.4 0.8 -26.0 -3.4 M-37.8 3.25 Q-39.7 -0.65 -39.85 -4.9" fill="none" stroke="#000000" stroke-linecap="round" stroke-linejoin="round" stroke-opacity="0.2" stroke-width="1.0"/>
  </g>
</svg>
