<?xml version="1.0" encoding="UTF-8" standalone="no"?>
<svg xmlns:ffdec="https://www.free-decompiler.com/flash" xmlns:xlink="http://www.w3.org/1999/xlink" ffdec:objectType="shape" height="28.4px" width="65.9px" xmlns="http://www.w3.org/2000/svg">
  <g transform="matrix(1.0, 0.0, 0.0, 1.0, 49.7, 12.2)">
    <path d="M-13.35 7.1 Q-33.95 9.05 -45.4 -5.25 -17.9 -2.45 14.2 -9.95 7.15 5.05 -13.35 7.1" fill="#ffffff" fill-rule="evenodd" stroke="none"/>
    <path d="M-10.95 7.2 Q-9.5 0.6 -10.15 -4.95 M-34.55 2.9 Q-35.75 -0.45 -35.2 -4.0 M-22.55 6.2 Q-23.75 1.4 -23.15 -3.4 M0.0 3.25 Q1.75 -1.4 1.75 -5.8" fill="none" stroke="#000000" stroke-linecap="round" stroke-linejoin="round" stroke-opacity="0.13333334" stroke-width="1.0"/>
    <path d="M5.85 -9.35 Q10.55 -9.45 15.2 -11.2 15.4 -8.2 13.05 -4.25 10.7 -0.25 8.2 2.75 5.75 5.7 -0.15 9.55 -6.05 13.35 -14.85 14.8 -23.75 16.15 -30.05 13.1 -36.45 10.0 -39.5 6.65 L-44.65 0.2 Q-46.85 -2.9 -48.7 -7.55 -44.3 -6.8 -38.0 -8.15 L-27.15 -10.1 -18.55 -10.7 -4.6 -10.1 0.85 -9.6 5.85 -9.35 M-15.2 6.25 Q4.7 3.45 13.75 -9.1 -10.25 1.1 -46.95 -6.05 -35.15 9.05 -15.2 6.25" fill="#ffaaaa" fill-rule="evenodd" stroke="none"/>
    <path d="M5.85 -9.35 Q10.55 -9.45 15.2 -11.2 15.4 -8.2 13.05 -4.25 10.7 -0.25 8.2 2.75 5.75 5.7 -0.15 9.55 -6.05 13.35 -14.85 14.8 -23.75 16.15 -30.05 13.1 -36.45 10.0 -39.5 6.65 L-44.65 0.2 Q-46.85 -2.9 -48.7 -7.55 -44.3 -6.8 -38.0 -8.15 L-27.15 -10.1 -18.55 -10.7 -4.6 -10.1 0.85 -9.6 5.85 -9.35 M-15.2 6.25 Q4.7 3.45 13.75 -9.1 -10.25 1.1 -46.95 -6.05 -35.15 9.05 -15.2 6.25 Z" fill="none" stroke="#000000" stroke-linecap="round" stroke-linejoin="round" stroke-opacity="0.29803923" stroke-width="2.0"/>
    <path d="M-31.05 8.6 Q-21.7 10.95 -11.45 8.5" fill="none" stroke="#ffffff" stroke-linecap="round" stroke-linejoin="round" stroke-opacity="0.4" stroke-width="2.0"/>
  </g>
</svg>
