<?xml version="1.0" encoding="UTF-8" standalone="no"?>
<svg xmlns:ffdec="https://www.free-decompiler.com/flash" xmlns:xlink="http://www.w3.org/1999/xlink" ffdec:objectType="shape" height="24.35px" width="68.65px" xmlns="http://www.w3.org/2000/svg">
  <g transform="matrix(1.0, 0.0, 0.0, 1.0, 50.2, 8.1)">
    <path d="M-33.3 -3.0 Q-30.45 -5.55 -29.1 -6.2 -26.1 -7.75 -23.0 -5.8 -19.95 -3.85 -19.3 -0.95 -18.45 -5.35 -14.55 -6.65 -10.7 -8.0 -6.3 -5.15 L2.1 0.95 -3.65 1.8 Q-1.65 8.85 -6.05 11.85 -10.45 14.8 -17.1 15.2 -23.8 15.55 -27.65 12.9 L-30.6 10.4 Q-31.7 9.2 -32.5 7.4 -33.15 5.9 -32.85 3.6 L-32.4 1.55 -37.1 0.65 -33.3 -3.0" fill="#f4473e" fill-rule="evenodd" stroke="none"/>
    <path d="M-33.3 -3.0 L-37.1 0.65 -32.4 1.55 -32.85 3.6 Q-33.15 5.9 -32.5 7.4 -31.7 9.2 -30.6 10.4 L-27.65 12.9 Q-23.8 15.55 -17.1 15.2 -10.45 14.8 -6.05 11.85 -1.65 8.85 -3.65 1.8 L2.1 0.95 -6.3 -5.15 Q-10.7 -8.0 -14.55 -6.65 -18.45 -5.35 -19.3 -0.95 -19.95 -3.85 -23.0 -5.8 -26.1 -7.75 -29.1 -6.2 -30.45 -5.55 -33.3 -3.0 Z" fill="none" stroke="#000000" stroke-linecap="round" stroke-linejoin="round" stroke-opacity="0.29803923" stroke-width="2.0"/>
    <path d="M-20.9 6.6 Q-18.45 7.7 -18.45 9.15 -18.45 10.6 -20.1 11.3 -21.75 12.15 -24.0 11.7 -26.25 11.35 -27.9 10.05 -29.55 8.85 -29.55 7.4 -29.55 5.95 -28.65 5.35 L-25.55 5.15 Q-23.35 5.5 -20.9 6.6" fill="#ffffff" fill-opacity="0.4" fill-rule="evenodd" stroke="none"/>
    <path d="M17.45 1.6 Q15.5 -2.05 12.45 -3.35 9.25 -0.9 5.1 0.3 L-2.85 2.05 -15.0 2.85 -30.45 1.9 Q-37.75 0.75 -40.7 -0.4 -43.7 -1.6 -45.45 -3.55 -48.0 -1.3 -49.2 0.95" fill="none" stroke="#000000" stroke-linecap="round" stroke-linejoin="round" stroke-opacity="0.4" stroke-width="2.0"/>
  </g>
</svg>
