<?xml version="1.0" encoding="UTF-8" standalone="no"?>
<svg xmlns:ffdec="https://www.free-decompiler.com/flash" xmlns:xlink="http://www.w3.org/1999/xlink" ffdec:objectType="shape" height="29.85px" width="100.8px" xmlns="http://www.w3.org/2000/svg">
  <g transform="matrix(1.0, 0.0, 0.0, 1.0, 65.65, 13.55)">
    <path d="M3.1 -11.35 L23.55 -7.0 Q17.8 5.85 7.55 15.3 9.95 2.25 3.1 -11.35 M-42.05 -11.0 Q-48.35 -1.25 -44.9 12.85 -55.05 5.4 -59.3 -7.35 L-42.05 -11.0" fill="#ffffff" fill-rule="evenodd" stroke="none"/>
    <path d="M3.1 -11.35 L23.55 -7.0 34.15 -3.8 M23.55 -7.0 Q17.8 5.85 7.55 15.3 9.95 2.25 3.1 -11.35 -17.9 -13.9 -42.05 -11.0 -48.35 -1.25 -44.9 12.85 -55.05 5.4 -59.3 -7.35 L-64.65 -5.9 M-42.05 -11.0 L-59.3 -7.35" fill="none" stroke="#000000" stroke-linecap="round" stroke-linejoin="round" stroke-opacity="0.49803922" stroke-width="2.0"/>
  </g>
</svg>
