<?xml version="1.0" encoding="UTF-8" standalone="no"?>
<svg xmlns:ffdec="https://www.free-decompiler.com/flash" xmlns:xlink="http://www.w3.org/1999/xlink" ffdec:objectType="shape" height="24.5px" width="66.1px" xmlns="http://www.w3.org/2000/svg">
  <g transform="matrix(1.0, 0.0, 0.0, 1.0, 49.95, 8.25)">
    <path d="M-35.8 -0.9 Q-34.25 -0.95 -32.15 -3.0 -29.65 -5.55 -28.45 -6.2 -25.75 -7.75 -23.0 -5.8 -20.3 -3.85 -19.7 -0.95 -18.95 -5.35 -15.5 -6.65 -12.05 -8.0 -8.15 -5.15 -5.55 -3.25 0.35 -0.15 L-5.8 1.8 Q-4.0 8.85 -7.9 11.85 -11.85 14.8 -17.75 15.2 -23.75 15.55 -27.15 12.9 L-29.8 10.4 Q-30.75 9.2 -31.45 7.4 -32.05 5.9 -31.8 3.6 -31.6 2.4 -31.0 1.05 L-35.8 -0.9" fill="#f8908b" fill-rule="evenodd" stroke="none"/>
    <path d="M0.35 -0.15 Q-5.55 -3.25 -8.15 -5.15 -12.05 -8.0 -15.5 -6.65 -18.95 -5.35 -19.7 -0.95 -20.3 -3.85 -23.0 -5.8 -25.75 -7.75 -28.45 -6.2 -29.65 -5.55 -32.15 -3.0 -34.25 -0.95 -35.8 -0.9 M-31.0 1.05 Q-31.6 2.4 -31.8 3.6 -32.05 5.9 -31.45 7.4 -30.75 9.2 -29.8 10.4 L-27.15 12.9 Q-23.75 15.55 -17.75 15.2 -11.85 14.8 -7.9 11.85 -4.0 8.85 -5.8 1.8" fill="none" stroke="#000000" stroke-linecap="round" stroke-linejoin="round" stroke-opacity="0.29803923" stroke-width="2.0"/>
    <path d="M-21.1 6.6 Q-18.95 7.7 -18.95 9.15 -18.95 10.6 -20.4 11.3 -21.85 12.15 -23.9 11.7 -25.9 11.35 -27.35 10.05 -28.8 8.85 -28.8 7.4 -28.8 5.95 -28.0 5.35 L-25.25 5.15 Q-23.3 5.5 -21.1 6.6" fill="#ffffff" fill-opacity="0.4" fill-rule="evenodd" stroke="none"/>
    <path d="M15.15 -2.9 Q12.35 -6.3 8.6 -6.95 5.7 -3.05 2.05 -1.15 -1.65 0.7 -5.05 1.65 -8.5 2.6 -15.85 2.95 -23.2 3.2 -29.65 1.4 -36.1 -0.4 -38.75 -2.25 -41.45 -4.15 -43.0 -7.25 -46.1 -7.1 -48.95 -5.0" fill="none" stroke="#000000" stroke-linecap="round" stroke-linejoin="round" stroke-opacity="0.4" stroke-width="2.0"/>
  </g>
</svg>
