<?xml version="1.0" encoding="UTF-8" standalone="no"?>
<svg xmlns:ffdec="https://www.free-decompiler.com/flash" xmlns:xlink="http://www.w3.org/1999/xlink" ffdec:objectType="shape" height="22.35px" width="50.75px" xmlns="http://www.w3.org/2000/svg">
  <g transform="matrix(1.0, 0.0, 0.0, 1.0, 44.35, 8.1)">
    <path d="M-37.3 -1.45 Q-35.75 -1.5 -33.65 -3.4 -31.15 -5.7 -29.95 -6.3 -27.25 -7.7 -24.5 -5.95 -21.8 -4.15 -21.2 -1.5 -20.45 -5.5 -17.0 -6.7 -13.55 -7.95 -9.65 -5.35 -7.05 -3.6 -1.15 -0.8 L-7.3 1.0 Q-5.5 7.4 -9.4 10.15 -13.35 12.85 -19.25 13.2 -25.25 13.5 -28.65 11.1 L-31.3 8.8 Q-32.25 7.75 -32.95 6.1 -33.55 4.7 -33.3 2.65 -33.1 1.55 -32.5 0.3 L-37.3 -1.45" fill="#f8908b" fill-rule="evenodd" stroke="none"/>
    <path d="M-1.15 -0.8 Q-7.05 -3.6 -9.65 -5.35 -13.55 -7.95 -17.0 -6.7 -20.45 -5.5 -21.2 -1.5 -21.8 -4.15 -24.5 -5.95 -27.25 -7.7 -29.95 -6.3 -31.15 -5.7 -33.65 -3.4 -35.75 -1.5 -37.3 -1.45 M-32.5 0.3 Q-33.1 1.55 -33.3 2.65 -33.55 4.7 -32.95 6.1 -32.25 7.75 -31.3 8.8 L-28.65 11.1 Q-25.25 13.5 -19.25 13.2 -13.35 12.85 -9.4 10.15 -5.5 7.4 -7.3 1.0" fill="none" stroke="#000000" stroke-linecap="round" stroke-linejoin="round" stroke-opacity="0.29803923" stroke-width="2.0"/>
    <path d="M-22.6 5.35 Q-20.45 6.35 -20.45 7.65 -20.45 9.0 -21.9 9.65 L-25.4 10.0 Q-27.4 9.65 -28.85 8.5 -30.3 7.4 -30.3 6.1 -30.3 4.8 -29.5 4.2 L-26.75 4.0 Q-24.8 4.35 -22.6 5.35" fill="#ffffff" fill-opacity="0.4" fill-rule="evenodd" stroke="none"/>
    <path d="M5.4 -5.1 Q3.15 -2.95 0.55 -1.7 -3.15 0.0 -6.55 0.85 -10.0 1.7 -17.35 2.05 -24.7 2.25 -31.15 0.6 -37.6 -1.0 -40.25 -2.7 -42.05 -3.85 -43.35 -5.5" fill="none" stroke="#000000" stroke-linecap="round" stroke-linejoin="round" stroke-opacity="0.4" stroke-width="2.0"/>
  </g>
</svg>
