<?xml version="1.0" encoding="UTF-8" standalone="no"?>
<svg xmlns:ffdec="https://www.free-decompiler.com/flash" xmlns:xlink="http://www.w3.org/1999/xlink" ffdec:objectType="shape" height="23.3px" width="75.75px" xmlns="http://www.w3.org/2000/svg">
  <g transform="matrix(1.0, 0.0, 0.0, 1.0, 54.95, 9.5)">
    <path d="M-29.85 -8.2 L-24.2 -7.9 Q-21.85 -6.95 -20.6 -4.05 -20.15 -6.4 -16.6 -7.75 -13.1 -9.1 -10.35 -7.7 -7.6 -6.25 -6.25 -4.7 -5.0 -3.15 -3.5 -0.15 -6.8 0.05 -8.15 0.9 -5.9 5.8 -9.45 9.0 -13.0 12.15 -18.3 12.75 -23.6 13.25 -28.55 9.75 -33.45 6.1 -30.5 0.8 -31.75 -0.4 -35.4 -0.7 -33.15 -7.45 -29.85 -8.2" fill="#333333" fill-opacity="0.29803923" fill-rule="evenodd" stroke="none"/>
    <path d="M-3.5 -0.2 Q-5.0 -3.15 -6.25 -4.7 -7.55 -6.25 -10.35 -7.7 -13.1 -9.1 -16.6 -7.75 -20.15 -6.4 -20.6 -4.05 -21.85 -6.95 -24.2 -7.9 L-29.85 -8.2 Q-33.15 -7.45 -35.35 -0.7 M-30.45 0.75 Q-33.4 6.1 -28.5 9.75 -23.55 13.25 -18.25 12.75 -12.95 12.15 -9.45 9.0 -5.85 5.8 -8.1 0.85" fill="none" stroke="#000000" stroke-linecap="round" stroke-linejoin="round" stroke-opacity="0.33333334" stroke-width="2.0"/>
    <path d="M-20.15 5.1 Q-17.7 6.2 -17.7 7.65 -17.7 9.1 -19.35 9.8 -21.0 10.65 -23.25 10.2 -25.5 9.85 -27.15 8.55 -28.8 7.35 -28.8 5.9 -28.8 4.45 -27.9 3.85 L-24.8 3.65 Q-22.6 4.0 -20.15 5.1" fill="#ffffff" fill-opacity="0.49803922" fill-rule="evenodd" stroke="none"/>
    <path d="M2.85 3.8 L5.25 -3.6" fill="none" stroke="#000000" stroke-linecap="round" stroke-linejoin="round" stroke-opacity="0.2" stroke-width="2.0"/>
    <path d="M-40.55 4.6 L-43.05 -2.65" fill="none" stroke="#000000" stroke-linecap="round" stroke-linejoin="round" stroke-opacity="0.2" stroke-width="2.0"/>
    <path d="M11.5 6.8 L15.15 -0.35" fill="none" stroke="#000000" stroke-linecap="round" stroke-linejoin="round" stroke-opacity="0.2" stroke-width="2.0"/>
    <path d="M-48.0 6.3 L-50.75 0.7" fill="none" stroke="#000000" stroke-linecap="round" stroke-linejoin="round" stroke-opacity="0.2" stroke-width="2.0"/>
    <path d="M-53.95 5.75 Q-38.1 -2.1 -30.45 0.75 -19.1 2.85 -8.1 0.85 L-3.5 -0.2 Q3.3 -2.75 19.8 7.1" fill="none" stroke="#000000" stroke-linecap="round" stroke-linejoin="round" stroke-opacity="0.29803923" stroke-width="2.0"/>
  </g>
</svg>
