<?xml version="1.0" encoding="UTF-8" standalone="no"?>
<svg xmlns:ffdec="https://www.free-decompiler.com/flash" xmlns:xlink="http://www.w3.org/1999/xlink" ffdec:objectType="shape" height="27.85px" width="97.05px" xmlns="http://www.w3.org/2000/svg">
  <g transform="matrix(1.0, 0.0, 0.0, 1.0, 61.55, 21.25)">
    <path d="M32.6 -13.3 Q36.05 -7.3 31.8 0.3 27.55 7.85 11.8 4.15 -4.0 0.45 -20.5 2.3 -13.65 -0.15 0.1 -10.7 13.85 -21.25 21.5 -20.3 29.1 -19.4 32.6 -13.3" fill="#ffffff" fill-rule="evenodd" stroke="none"/>
    <path d="M31.75 0.0 Q36.55 -7.7 32.9 -13.5 29.25 -19.35 22.0 -20.15 14.7 -20.95 5.05 -13.7 -4.7 -6.5 -10.6 -2.5 -15.65 0.8 -20.05 2.35 -25.75 3.95 -29.95 3.8 -34.2 3.55 -37.6 2.3 -40.95 1.1 -45.4 -2.2 -47.35 -3.65 -51.25 -7.2 -53.3 -9.1 -55.85 -9.15 -58.3 -9.1 -60.55 -7.3" fill="none" stroke="#000000" stroke-linecap="round" stroke-linejoin="miter-clip" stroke-miterlimit="4.0" stroke-opacity="0.49803922" stroke-width="2.0"/>
    <path d="M-20.05 2.35 Q-14.2 0.75 -5.7 1.25 4.15 1.85 15.5 4.8 26.95 7.7 31.75 0.0" fill="none" stroke="#000000" stroke-linecap="round" stroke-linejoin="round" stroke-opacity="0.49803922" stroke-width="2.0"/>
    <path d="M19.8 -19.6 Q22.45 -12.7 22.55 -6.45 28.25 -7.65 33.7 -8.15 M7.25 -14.7 Q8.2 -9.7 8.1 -4.75 L22.55 -6.45 Q22.7 -1.8 21.35 4.55 M7.5 1.85 Q8.0 -1.85 8.1 -4.75 L-3.95 -3.0 Q-4.0 -1.25 -4.3 0.55 M-11.85 -1.9 L-3.95 -3.0 Q-4.0 -5.0 -4.45 -6.95" fill="none" stroke="#000000" stroke-linecap="round" stroke-linejoin="round" stroke-opacity="0.49803922" stroke-width="2.0"/>
  </g>
</svg>
