<?xml version="1.0" encoding="UTF-8" standalone="no"?>
<svg xmlns:ffdec="https://www.free-decompiler.com/flash" xmlns:xlink="http://www.w3.org/1999/xlink" ffdec:objectType="shape" height="21.5px" width="60.95px" xmlns="http://www.w3.org/2000/svg">
  <g transform="matrix(1.0, 0.0, 0.0, 1.0, 43.45, 6.65)">
    <path d="M-26.25 -5.4 Q-23.35 -6.0 -21.15 -5.05 -19.0 -4.15 -17.85 -1.5 -17.45 -3.65 -14.25 -4.75 L-8.55 -4.6 Q-6.05 -3.25 -4.85 -1.8 -3.7 -0.4 -2.35 2.4 -5.3 2.45 -6.55 3.25 -4.5 7.75 -7.75 10.55 -10.95 13.35 -15.75 13.8 -20.55 14.15 -25.05 10.85 -29.5 7.45 -26.8 2.7 -28.0 1.6 -31.25 1.25 -29.25 -4.85 -26.25 -5.4" fill="#ad7fc7" fill-rule="evenodd" stroke="none"/>
    <path d="M-18.05 9.2 L-20.95 9.45 Q-22.6 9.25 -23.8 8.5 -25.05 7.8 -25.05 6.95 -25.05 6.1 -23.8 5.65 L-20.95 5.45 Q-19.25 5.65 -18.05 6.35 -16.85 7.1 -16.85 7.95 -16.85 8.8 -18.05 9.2" fill="#ffffff" fill-opacity="0.4" fill-rule="evenodd" stroke="none"/>
    <path d="M-2.35 2.35 Q-3.7 -0.4 -4.85 -1.8 -6.05 -3.25 -8.55 -4.6 L-14.25 -4.75 Q-17.45 -3.65 -17.85 -1.5 -19.0 -4.15 -21.15 -5.05 -23.35 -6.0 -26.25 -5.4 -29.25 -4.85 -31.25 1.3 M-26.8 2.65 Q-29.5 7.45 -25.05 10.85 -20.55 14.15 -15.75 13.8 -10.95 13.35 -7.75 10.6 -4.5 7.75 -6.55 3.2" fill="none" stroke="#000000" stroke-linecap="round" stroke-linejoin="round" stroke-opacity="0.29803923" stroke-width="2.0"/>
    <path d="M-42.45 -0.15 Q-5.05 8.15 12.4 -3.6 L16.5 1.6" fill="none" stroke="#000000" stroke-linecap="round" stroke-linejoin="round" stroke-opacity="0.29803923" stroke-width="2.0"/>
  </g>
</svg>
