<?xml version="1.0" encoding="UTF-8" standalone="no"?>
<svg xmlns:ffdec="https://www.free-decompiler.com/flash" xmlns:xlink="http://www.w3.org/1999/xlink" ffdec:objectType="shape" height="28.65px" width="100.0px" xmlns="http://www.w3.org/2000/svg">
  <g transform="matrix(1.0, 0.0, 0.0, 1.0, 64.75, 11.8)">
    <path d="M2.9 -1.75 Q11.5 -3.8 19.5 -7.55 21.05 8.35 10.1 16.35 11.4 3.95 2.9 -1.75" fill="#ffffff" fill-rule="evenodd" stroke="none"/>
    <path d="M19.5 -7.55 Q21.05 8.35 10.1 16.35 11.4 3.95 2.9 -1.75" fill="none" stroke="#000000" stroke-linecap="round" stroke-linejoin="round" stroke-opacity="0.33333334" stroke-width="1.0"/>
    <path d="M-36.85 -1.9 Q-44.4 -3.8 -51.45 -7.2 -52.8 6.7 -43.15 13.85 -44.3 3.0 -36.85 -1.9" fill="#ffffff" fill-rule="evenodd" stroke="none"/>
    <path d="M-51.45 -7.2 Q-52.8 6.7 -43.15 13.85 -44.3 3.0 -36.85 -1.9" fill="none" stroke="#000000" stroke-linecap="round" stroke-linejoin="round" stroke-opacity="0.33333334" stroke-width="1.0"/>
    <path d="M-63.75 -5.9 Q-62.0 -10.35 -56.55 -8.75 L-55.2 -8.3 -52.75 -7.25 -50.95 -6.55 Q-12.8 7.7 25.75 -9.9 32.3 -12.55 34.25 -7.55" fill="none" stroke="#000000" stroke-linecap="round" stroke-linejoin="round" stroke-opacity="0.49803922" stroke-width="2.0"/>
  </g>
</svg>
