<?xml version="1.0" encoding="UTF-8" standalone="no"?>
<svg xmlns:ffdec="https://www.free-decompiler.com/flash" xmlns:xlink="http://www.w3.org/1999/xlink" ffdec:objectType="shape" height="21.3px" width="60.95px" xmlns="http://www.w3.org/2000/svg">
  <g transform="matrix(1.0, 0.0, 0.0, 1.0, 43.7, 5.5)">
    <path d="M-26.5 -4.25 L-21.4 -4.0 Q-19.25 -3.15 -18.1 -0.5 -17.7 -2.65 -14.5 -3.85 -11.3 -5.1 -8.8 -3.8 -6.3 -2.5 -5.1 -1.1 -3.95 0.3 -2.6 3.05 -5.55 3.2 -6.8 4.0 -4.75 8.45 -8.0 11.35 -11.2 14.2 -16.0 14.75 -20.8 15.2 -25.3 12.0 -29.75 8.7 -27.05 3.9 -28.25 2.8 -31.5 2.55 -29.5 -3.6 -26.5 -4.25" fill="#84c2e1" fill-rule="evenodd" stroke="none"/>
    <path d="M-18.3 10.2 L-21.2 10.5 Q-22.85 10.3 -24.05 9.6 -25.3 8.9 -25.3 8.05 -25.3 7.2 -24.05 6.75 L-21.2 6.5 Q-19.5 6.65 -18.3 7.35 -17.1 8.05 -17.1 8.9 -17.1 9.75 -18.3 10.2" fill="#ffffff" fill-opacity="0.4" fill-rule="evenodd" stroke="none"/>
    <path d="M-2.6 3.0 Q-3.95 0.3 -5.1 -1.1 -6.3 -2.5 -8.8 -3.8 -11.3 -5.1 -14.5 -3.85 -17.7 -2.65 -18.1 -0.5 -19.25 -3.15 -21.4 -4.0 L-26.5 -4.25 Q-29.5 -3.6 -31.5 2.55 M-27.05 3.85 Q-29.75 8.7 -25.3 12.0 -20.8 15.2 -16.0 14.75 -11.2 14.2 -8.0 11.35 -4.75 8.45 -6.8 3.95" fill="none" stroke="#000000" stroke-linecap="round" stroke-linejoin="round" stroke-opacity="0.29803923" stroke-width="2.0"/>
    <path d="M-42.7 1.4 Q-5.3 8.9 12.15 -3.25 L16.25 1.9" fill="none" stroke="#000000" stroke-linecap="round" stroke-linejoin="round" stroke-opacity="0.29803923" stroke-width="2.0"/>
  </g>
</svg>
