<?xml version="1.0" encoding="UTF-8" standalone="no"?>
<svg xmlns:ffdec="https://www.free-decompiler.com/flash" xmlns:xlink="http://www.w3.org/1999/xlink" ffdec:objectType="shape" height="35.35px" width="106.65px" xmlns="http://www.w3.org/2000/svg">
  <g transform="matrix(1.0, 0.0, 0.0, 1.0, 70.55, 21.3)">
    <path d="M-53.7 5.6 L-62.65 5.35 Q-67.0 3.7 -68.75 -0.15 -70.45 -4.0 -68.55 -7.8 -66.5 -11.55 -62.05 -13.0 -15.45 -28.2 28.15 -11.7 32.5 -10.0 34.3 -6.15 36.05 -2.3 34.05 1.45 32.1 5.2 27.6 6.7 23.1 8.25 18.65 6.55 -16.3 -6.6 -53.7 5.6" fill="#ffffff" fill-opacity="0.29803923" fill-rule="evenodd" stroke="none"/>
    <path d="M-53.7 5.6 Q-16.3 -6.6 18.65 6.55 23.1 8.25 27.6 6.7 32.1 5.2 34.05 1.45 36.05 -2.3 34.3 -6.15 32.5 -10.0 28.15 -11.7 -15.45 -28.2 -62.05 -13.0 -66.5 -11.55 -68.55 -7.8 -70.45 -4.0 -68.75 -0.15 -67.0 3.7 -62.65 5.35 L-53.7 5.6 Z" fill="none" stroke="#000000" stroke-linecap="round" stroke-linejoin="round" stroke-opacity="0.29803923" stroke-width="2.0"/>
    <path d="M-52.45 -5.8 Q-51.15 4.5 -41.55 12.0 -41.2 -1.65 -34.05 -9.9 -43.4 -8.85 -52.45 -5.8" fill="#ffffff" fill-rule="evenodd" stroke="none"/>
    <path d="M-34.05 -9.9 Q-41.2 -1.65 -41.55 12.0 -51.15 4.5 -52.45 -5.8" fill="none" stroke="#000000" stroke-linecap="round" stroke-linejoin="round" stroke-opacity="0.4" stroke-width="2.0"/>
    <path d="M-5.9 -10.4 Q3.45 -9.3 12.5 -6.05 11.2 5.0 1.6 13.05 1.25 -1.6 -5.9 -10.4" fill="#ffffff" fill-rule="evenodd" stroke="none"/>
    <path d="M-5.9 -10.4 Q1.25 -1.6 1.6 13.05 11.2 5.0 12.5 -6.05" fill="none" stroke="#000000" stroke-linecap="round" stroke-linejoin="round" stroke-opacity="0.4" stroke-width="2.0"/>
    <path d="M19.55 -5.05 Q-15.5 -18.2 -57.5 -4.85" fill="none" stroke="#000000" stroke-linecap="round" stroke-linejoin="round" stroke-opacity="0.4509804" stroke-width="2.0"/>
  </g>
</svg>
