<?xml version="1.0" encoding="UTF-8" standalone="no"?>
<svg xmlns:ffdec="https://www.free-decompiler.com/flash" xmlns:xlink="http://www.w3.org/1999/xlink" ffdec:objectType="shape" height="39.5px" width="75.6px" xmlns="http://www.w3.org/2000/svg">
  <g transform="matrix(1.0, 0.0, 0.0, 1.0, 37.8, 19.75)">
    <path d="M28.85 -18.9 Q32.1 -19.6 34.55 -18.9 36.7 -18.25 37.3 -16.8 L-14.55 17.95 -21.3 9.3 28.85 -18.9" fill="#724f1f" fill-rule="evenodd" stroke="none"/>
    <path d="M28.85 -18.9 L-21.3 9.3 -14.55 17.95 37.3 -16.8 Q36.7 -18.25 34.55 -18.9 32.1 -19.6 28.85 -18.9 Z" fill="none" stroke="#000000" stroke-linecap="round" stroke-linejoin="round" stroke-opacity="0.29803923" stroke-width="1.0"/>
    <path d="M-2.35 -5.7 Q1.3 -0.75 0.55 5.8 -0.2 12.35 -7.5 16.5 -13.8 20.05 -18.95 19.05 -23.9 18.15 -28.2 13.55 -33.5 7.9 -37.05 -2.55 L-11.65 -17.45 Q-6.05 -10.75 -2.35 -5.7" fill="#724f1f" fill-rule="evenodd" stroke="none"/>
    <path d="M-2.35 -5.7 Q1.3 -0.75 0.55 5.8 -0.2 12.35 -7.5 16.5 -13.8 20.05 -18.95 19.05 -23.9 18.15 -28.2 13.55 -33.5 7.9 -37.05 -2.55 L-11.65 -17.45 Q-6.05 -10.75 -2.35 -5.7 Z" fill="none" stroke="#000000" stroke-linecap="round" stroke-linejoin="round" stroke-opacity="0.29803923" stroke-width="1.0"/>
    <path d="M-14.5 -13.3 Q-17.75 -10.35 -23.0 -7.3 -28.25 -4.3 -32.45 -2.95 -36.6 -1.5 -37.2 -2.6 -37.8 -3.7 -34.55 -6.7 -31.2 -9.65 -25.95 -12.65 -20.7 -15.7 -16.6 -17.05 -12.4 -18.4 -11.8 -17.3 -11.2 -16.2 -14.5 -13.3" fill="#492f14" fill-rule="evenodd" stroke="none"/>
    <path d="M-14.5 -13.3 Q-17.75 -10.35 -23.0 -7.3 -28.25 -4.3 -32.45 -2.95 -36.6 -1.5 -37.2 -2.6 -37.8 -3.7 -34.55 -6.7 -31.2 -9.65 -25.95 -12.65 -20.7 -15.7 -16.6 -17.05 -12.4 -18.4 -11.8 -17.3 -11.2 -16.2 -14.5 -13.3 Z" fill="none" stroke="#000000" stroke-linecap="round" stroke-linejoin="round" stroke-opacity="0.29803923" stroke-width="1.0"/>
    <path d="M-17.85 -5.8 Q-12.7 -9.3 -10.25 -13.1 -8.2 -10.95 -3.75 -4.4 0.65 2.1 -3.55 10.0 -7.9 -1.45 -17.85 -5.8" fill="#ffffff" fill-opacity="0.08627451" fill-rule="evenodd" stroke="none"/>
    <path d="M2.05 -1.05 L29.55 -16.45" fill="none" stroke="#ffffff" stroke-linecap="round" stroke-linejoin="round" stroke-opacity="0.2" stroke-width="2.0"/>
  </g>
</svg>
