<?xml version="1.0" encoding="UTF-8" standalone="no"?>
<svg xmlns:ffdec="https://www.free-decompiler.com/flash" xmlns:xlink="http://www.w3.org/1999/xlink" ffdec:objectType="shape" height="17.85px" width="54.25px" xmlns="http://www.w3.org/2000/svg">
  <g transform="matrix(1.0, 0.0, 0.0, 1.0, 46.05, 4.05)">
    <path d="M-31.4 -2.85 L-25.55 -2.6 Q-23.1 -1.95 -21.7 0.25 -21.3 -1.5 -17.7 -2.5 -14.1 -3.5 -11.2 -2.45 -8.3 -1.4 -6.95 -0.25 -5.55 0.9 -3.9 3.15 -7.35 3.25 -8.75 3.9 -6.25 7.55 -9.9 9.95 -13.5 12.25 -18.9 12.7 -24.35 13.1 -29.6 10.45 -34.7 7.75 -31.8 3.85 -33.15 2.95 -36.95 2.75 -34.75 -2.3 -31.4 -2.85" fill="#ff9999" fill-opacity="0.8" fill-rule="evenodd" stroke="none"/>
    <path d="M-20.95 9.2 L-24.3 9.5 -27.65 8.75 Q-29.05 8.2 -29.1 7.5 -29.1 6.8 -27.75 6.4 L-24.4 6.2 Q-22.45 6.3 -21.05 6.85 -19.6 7.45 -19.6 8.15 -19.55 8.85 -20.95 9.2" fill="#ffffff" fill-opacity="0.49803922" fill-rule="evenodd" stroke="none"/>
    <path d="M-3.65 3.15 Q-5.3 0.9 -6.65 -0.25 -8.1 -1.4 -11.05 -2.45 -13.9 -3.55 -17.55 -2.5 -21.15 -1.5 -21.65 0.25 -22.95 -1.95 -25.5 -2.6 L-31.4 -2.85 Q-34.8 -2.3 -36.95 2.7 M7.2 2.4 L-8.45 3.75 Q-19.95 4.2 -31.85 3.65 L-45.05 2.6 M-31.85 3.95 Q-34.65 7.8 -29.55 10.45 -24.3 13.1 -18.75 12.75 -13.3 12.25 -9.65 10.0 -6.05 7.6 -8.45 4.1" fill="none" stroke="#000000" stroke-linecap="round" stroke-linejoin="round" stroke-opacity="0.33333334" stroke-width="2.0"/>
  </g>
</svg>
