<?xml version="1.0" encoding="UTF-8" standalone="no"?>
<svg xmlns:ffdec="https://www.free-decompiler.com/flash" xmlns:xlink="http://www.w3.org/1999/xlink" ffdec:objectType="shape" height="20.25px" width="64.8px" xmlns="http://www.w3.org/2000/svg">
  <g transform="matrix(1.0, 0.0, 0.0, 1.0, 46.45, 8.35)">
    <path d="M-34.4 1.2 L-34.65 0.35 Q-34.75 -0.75 -34.05 -1.8 -32.4 -4.4 -29.6 -5.6 -26.8 -6.85 -20.2 -7.3 -13.65 -7.75 -6.5 -4.2 -3.55 -2.75 -1.9 -1.15 L-0.85 0.15 -3.15 0.95 Q-3.5 3.15 -5.5 6.0 -8.05 9.5 -15.4 10.65 L-22.7 10.45 Q-25.8 9.7 -27.65 7.9 -31.15 4.55 -31.3 1.2 L-34.4 1.2" fill="#ff6633" fill-rule="evenodd" stroke="none"/>
    <path d="M-0.85 0.15 L-1.9 -1.15 Q-3.55 -2.75 -6.5 -4.2 -13.65 -7.75 -20.2 -7.3 -26.8 -6.85 -29.6 -5.6 -32.4 -4.4 -34.05 -1.8 -34.75 -0.75 -34.65 0.35 L-34.4 1.2 M-31.3 1.2 Q-31.15 4.55 -27.65 7.9 -25.8 9.7 -22.7 10.45 L-15.4 10.65 Q-8.05 9.5 -5.5 6.0 -3.5 3.15 -3.15 0.95" fill="none" stroke="#000000" stroke-linecap="round" stroke-linejoin="round" stroke-opacity="0.29803923" stroke-width="2.0"/>
    <path d="M17.35 6.4 Q7.9 -1.35 -8.2 0.9 -24.35 3.1 -31.9 1.4 -39.5 -0.3 -45.45 4.75" fill="none" stroke="#000000" stroke-linecap="round" stroke-linejoin="miter-clip" stroke-miterlimit="4.0" stroke-opacity="0.29803923" stroke-width="2.0"/>
  </g>
</svg>
