<?xml version="1.0" encoding="UTF-8" standalone="no"?>
<svg xmlns:ffdec="https://www.free-decompiler.com/flash" xmlns:xlink="http://www.w3.org/1999/xlink" ffdec:objectType="shape" height="24.3px" width="77.4px" xmlns="http://www.w3.org/2000/svg">
  <g transform="matrix(1.0, 0.0, 0.0, 1.0, 45.45, 9.55)">
    <path d="M-16.95 -3.9 Q-13.8 -5.05 -10.8 -4.55 -7.85 -4.1 -5.8 -2.9 L0.1 0.75 -3.5 1.7 -2.15 1.85 Q-2.55 7.3 -6.3 9.95 -10.05 12.55 -17.0 13.4 -24.0 14.2 -28.75 11.6 -33.5 8.95 -31.1 2.5 L-36.2 1.7 Q-33.85 -3.75 -30.4 -4.4 L-24.45 -4.15 Q-21.95 -3.3 -20.65 -0.65 -20.15 -2.8 -16.95 -3.9" fill="#ffffff" fill-opacity="0.29803923" fill-rule="evenodd" stroke="none"/>
    <path d="M-0.2 0.9 L-6.1 -2.75 Q-8.15 -3.95 -11.1 -4.4 -14.1 -4.9 -17.25 -3.75 -20.45 -2.65 -20.95 -0.5 -22.25 -3.15 -24.75 -4.0 L-30.7 -4.25 Q-34.15 -3.6 -36.5 1.85 M-31.4 2.65 Q-33.8 9.1 -29.05 11.75 -24.3 14.35 -17.3 13.55 -10.35 12.7 -6.6 10.1 -2.85 7.45 -2.45 2.0" fill="none" stroke="#000000" stroke-linecap="round" stroke-linejoin="round" stroke-opacity="0.29803923" stroke-width="2.0"/>
    <path d="M-21.15 10.9 Q-22.55 11.5 -24.5 11.35 -26.45 11.15 -27.85 10.3 -29.25 9.5 -29.25 8.5 -29.25 7.45 -27.85 6.85 L-24.5 6.5 Q-22.55 6.65 -21.15 7.45 -19.75 8.3 -19.75 9.35 -19.75 10.35 -21.15 10.9" fill="#ffffff" fill-opacity="0.4" fill-rule="evenodd" stroke="none"/>
    <path d="M28.3 -9.55 Q29.85 -9.55 30.85 -8.5 31.95 -7.4 31.95 -5.9 31.95 -4.4 30.85 -3.35 29.85 -2.3 28.3 -2.3 26.8 -2.3 25.7 -3.35 24.7 -4.4 24.7 -5.9 24.7 -7.4 25.7 -8.5 26.8 -9.55 28.3 -9.55" fill="#000000" fill-opacity="0.49803922" fill-rule="evenodd" stroke="none"/>
    <path d="M-44.45 -0.2 Q-15.5 8.85 10.65 -2.0" fill="none" stroke="#000000" stroke-linecap="round" stroke-linejoin="round" stroke-opacity="0.29803923" stroke-width="2.0"/>
  </g>
</svg>
