<?xml version="1.0" encoding="UTF-8" standalone="no"?>
<svg xmlns:ffdec="https://www.free-decompiler.com/flash" xmlns:xlink="http://www.w3.org/1999/xlink" ffdec:objectType="shape" height="26.25px" width="75.95px" xmlns="http://www.w3.org/2000/svg">
  <g transform="matrix(1.0, 0.0, 0.0, 1.0, 45.2, 13.1)">
    <path d="M-14.0 -1.35 L-13.8 -1.35 Q-7.65 -2.2 0.9 -4.0 L10.05 -6.3 13.8 -7.55 Q19.15 -9.5 23.1 -11.9 L23.55 -11.15 Q21.2 -7.2 14.85 -0.55 8.45 6.05 -1.4 8.45 -11.3 10.85 -21.6 9.95 -31.95 9.05 -36.2 6.35 L-37.75 5.45 Q-39.55 4.3 -40.7 2.8 -41.9 1.3 -42.7 -0.45 L-44.2 -4.35 -40.15 -2.95 Q-37.8 -2.1 -33.2 -1.25 L-23.5 -0.6 -14.75 -1.25 -14.0 -1.35" fill="#000000" fill-opacity="0.49803922" fill-rule="evenodd" stroke="none"/>
    <path d="M-14.0 -1.35 L-13.8 -1.35 Q-7.65 -2.2 0.9 -4.0 L10.05 -6.3 13.8 -7.55 Q19.15 -9.5 23.1 -11.9 L23.4 -12.1 23.95 -11.75 24.0 -11.7 Q28.5 -8.75 29.75 -6.55 M23.55 -11.15 Q21.2 -7.2 14.85 -0.55 8.45 6.05 -1.4 8.45 -11.3 10.85 -21.6 9.95 -31.95 9.05 -36.2 6.35 L-37.75 5.45 Q-39.55 4.3 -40.7 2.8 -41.9 1.3 -42.7 -0.45 L-44.2 -4.35 -40.15 -2.95 Q-37.8 -2.1 -33.2 -1.25 L-23.5 -0.6 -14.75 -1.25" fill="none" stroke="#000000" stroke-linecap="round" stroke-linejoin="round" stroke-opacity="0.49803922" stroke-width="2.0"/>
    <path d="M-29.65 0.4 Q-15.0 1.05 0.15 -2.5 L-0.85 11.05 Q-16.0 12.85 -27.55 11.7 L-29.65 0.4" fill="#ffffff" fill-rule="evenodd" stroke="none"/>
    <path d="M-29.65 0.4 L-27.55 11.7 Q-16.0 12.85 -0.85 11.05 L0.15 -2.5" fill="none" stroke="#000000" stroke-linecap="round" stroke-linejoin="round" stroke-opacity="0.49803922" stroke-width="2.0"/>
    <path d="M-14.8 11.5 Q-15.9 5.95 -15.55 0.0" fill="none" stroke="#000000" stroke-linecap="round" stroke-linejoin="round" stroke-opacity="0.49803922" stroke-width="2.0"/>
  </g>
</svg>
