<?xml version="1.0" encoding="UTF-8" standalone="no"?>
<svg xmlns:ffdec="https://www.free-decompiler.com/flash" xmlns:xlink="http://www.w3.org/1999/xlink" ffdec:objectType="shape" height="33.45px" width="85.75px" xmlns="http://www.w3.org/2000/svg">
  <g transform="matrix(1.0, 0.0, 0.0, 1.0, 56.05, 20.5)">
    <path d="M16.05 -0.45 Q12.25 6.15 5.05 8.65 -7.45 13.0 -18.05 11.6 -28.75 10.2 -34.5 6.65 -40.3 3.0 -42.55 -4.05 -40.5 -3.05 -35.1 -2.9 L-23.55 -3.65 Q-1.65 -6.65 18.2 -17.15 21.05 -9.05 16.05 -0.45" fill="#ffffff" fill-rule="evenodd" stroke="none"/>
    <path d="M28.7 -16.0 Q28.2 -17.45 27.35 -18.15 26.45 -19.0 24.85 -19.4 L21.35 -19.1 Q19.6 -18.5 16.25 -16.6 5.75 -10.65 -10.95 -6.2 L-12.75 -5.75 Q-11.8 -1.5 -11.8 2.95 -3.15 2.25 4.5 -0.35 5.35 -5.4 4.55 -10.5 M17.6 -6.85 Q11.45 -2.8 4.5 -0.35 3.6 4.8 1.0 9.95 L5.05 8.65 Q12.25 6.15 16.05 -0.45 21.05 -9.05 18.2 -17.15 M-12.75 -5.75 Q-29.5 -1.7 -40.15 -3.4 L-42.45 -3.85 Q-41.75 -1.65 -40.65 0.25 -34.05 1.85 -27.8 2.55 L-28.65 -2.05 M-55.05 -10.9 Q-54.45 -9.4 -52.45 -7.85 -48.9 -5.25 -42.45 -3.85 M-12.6 11.6 Q-11.8 7.15 -11.8 2.95 -19.45 3.5 -27.8 2.55 -27.1 5.65 -25.9 8.9 M-40.65 0.25 Q-38.4 4.2 -34.5 6.65 -28.75 10.2 -18.05 11.6 -9.2 12.75 1.0 9.95" fill="none" stroke="#000000" stroke-linecap="round" stroke-linejoin="round" stroke-opacity="0.49803922" stroke-width="2.0"/>
  </g>
</svg>
