<?xml version="1.0" encoding="UTF-8" standalone="no"?>
<svg xmlns:ffdec="https://www.free-decompiler.com/flash" xmlns:xlink="http://www.w3.org/1999/xlink" ffdec:objectType="shape" height="19.1px" width="58.95px" xmlns="http://www.w3.org/2000/svg">
  <g transform="matrix(1.0, 0.0, 0.0, 1.0, 41.05, 7.65)">
    <path d="M-25.9 -5.5 Q-23.7 -6.05 -20.85 -3.95 L-19.9 -5.0 Q-18.55 -6.35 -16.9 -6.55 L-11.8 -6.3 Q-8.9 -5.75 -5.1 -3.75 L1.1 0.1 -1.05 0.4 Q-1.05 2.6 -2.35 4.8 -4.8 9.45 -11.2 10.15 -21.8 11.4 -26.2 7.4 -28.2 5.5 -28.35 2.8 L-31.85 2.8 Q-31.4 0.9 -29.75 -2.05 -28.1 -5.0 -25.9 -5.5" fill="#ff6633" fill-opacity="0.8" fill-rule="evenodd" stroke="none"/>
    <path d="M-25.9 -5.5 Q-28.1 -5.0 -29.75 -2.05 -31.4 0.9 -31.85 2.8 L-28.35 2.8 Q-28.2 5.5 -26.2 7.4 -21.8 11.4 -11.2 10.15 -4.8 9.45 -2.35 4.8 -1.05 2.6 -1.05 0.4 L1.1 0.1 -5.1 -3.75 Q-8.9 -5.75 -11.8 -6.3 L-16.9 -6.55 Q-18.55 -6.35 -19.9 -5.0 L-20.85 -3.95 Q-23.7 -6.05 -25.9 -5.5 Z" fill="none" stroke="#000000" stroke-linecap="butt" stroke-linejoin="round" stroke-opacity="0.29803923" stroke-width="2.0"/>
    <path d="M-16.3 8.15 L-19.3 8.45 Q-21.0 8.35 -22.25 7.65 -23.5 7.0 -23.5 6.15 -23.5 5.35 -22.25 4.85 L-19.3 4.6 Q-17.55 4.75 -16.3 5.35 -15.05 6.05 -15.05 6.85 -15.05 7.7 -16.3 8.15" fill="#ffffff" fill-opacity="0.4" fill-rule="evenodd" stroke="none"/>
    <path d="M16.9 3.65 Q15.8 2.3 12.4 1.0 5.25 -1.25 -7.9 1.05 -21.15 3.4 -40.05 3.2" fill="none" stroke="#000000" stroke-linecap="round" stroke-linejoin="miter-clip" stroke-miterlimit="4.0" stroke-opacity="0.29803923" stroke-width="2.0"/>
  </g>
</svg>
