<?xml version="1.0" encoding="UTF-8" standalone="no"?>
<svg xmlns:ffdec="https://www.free-decompiler.com/flash" xmlns:xlink="http://www.w3.org/1999/xlink" ffdec:objectType="shape" height="26.5px" width="80.9px" xmlns="http://www.w3.org/2000/svg">
  <g transform="matrix(1.0, 0.0, 0.0, 1.0, 50.25, 11.3)">
    <path d="M-27.65 -6.75 Q-25.7 -7.65 -23.0 -5.8 -20.3 -4.0 -19.55 -1.9 -19.0 -5.4 -15.75 -6.7 -12.5 -8.05 -8.55 -5.35 L-1.1 0.4 -6.05 1.25 Q-5.55 2.1 -5.05 5.15 -4.65 8.15 -7.75 10.8 -11.3 13.85 -17.15 14.15 -22.7 14.45 -26.1 12.7 -29.05 11.2 -30.0 9.45 -30.85 8.0 -31.05 6.5 -31.35 5.15 -31.15 3.6 L-30.75 1.3 -35.45 0.4 -31.65 -3.65 Q-29.65 -5.95 -27.65 -6.75" fill="#f46868" fill-rule="evenodd" stroke="none"/>
    <path d="M-27.65 -6.75 Q-29.65 -5.95 -31.65 -3.65 L-35.45 0.4 -30.75 1.3 -31.15 3.6 Q-31.35 5.15 -31.05 6.5 -30.85 8.0 -30.0 9.45 -29.05 11.2 -26.1 12.7 -22.7 14.45 -17.15 14.15 -11.3 13.85 -7.75 10.8 -4.65 8.15 -5.05 5.15 -5.55 2.1 -6.05 1.25 L-1.1 0.4 -8.55 -5.35 Q-12.5 -8.05 -15.75 -6.7 -19.0 -5.4 -19.55 -1.9 -20.3 -4.0 -23.0 -5.8 -25.7 -7.65 -27.65 -6.75 Z" fill="none" stroke="#000000" stroke-linecap="round" stroke-linejoin="round" stroke-opacity="0.29803923" stroke-width="2.0"/>
    <path d="M-21.1 6.35 Q-18.95 7.4 -18.85 8.8 -18.8 10.15 -20.15 10.85 -21.55 11.65 -23.55 11.25 -25.45 10.95 -26.95 9.75 -28.4 8.65 -28.5 7.25 -28.55 5.85 -27.8 5.25 -27.1 4.6 -25.15 5.0 -23.25 5.3 -21.1 6.35" fill="#ffffff" fill-opacity="0.4" fill-rule="evenodd" stroke="none"/>
    <path d="M16.45 -1.35 Q13.15 -1.9 9.95 -4.05 7.0 -1.65 3.15 -0.45 L-4.25 1.35 -15.65 2.5 -30.0 1.65 Q-36.6 0.35 -39.15 -0.8 -41.8 -1.9 -44.05 -3.85 -46.25 -1.0 -49.25 -0.45" fill="none" stroke="#000000" stroke-linecap="round" stroke-linejoin="round" stroke-opacity="0.29803923" stroke-width="2.0"/>
    <path d="M26.9 -11.3 Q28.4 -11.35 29.45 -10.35 30.6 -9.3 30.65 -7.8 30.7 -6.3 29.6 -5.2 28.65 -4.1 27.15 -4.05 25.6 -4.0 24.5 -5.0 23.45 -6.05 23.4 -7.55 23.35 -9.05 24.35 -10.15 25.35 -11.25 26.9 -11.3" fill="#000000" fill-opacity="0.49803922" fill-rule="evenodd" stroke="none"/>
  </g>
</svg>
