<?xml version="1.0" encoding="UTF-8" standalone="no"?>
<svg xmlns:ffdec="https://www.free-decompiler.com/flash" xmlns:xlink="http://www.w3.org/1999/xlink" ffdec:objectType="shape" height="21.3px" width="55.0px" xmlns="http://www.w3.org/2000/svg">
  <g transform="matrix(1.0, 0.0, 0.0, 1.0, 43.85, 5.5)">
    <path d="M-28.05 -4.25 L-22.35 -4.0 Q-19.95 -3.15 -18.65 -0.5 -18.2 -2.65 -14.6 -3.85 -11.05 -5.1 -8.25 -3.8 -5.45 -2.5 -4.1 -1.1 -2.8 0.3 -1.3 3.05 -4.65 3.2 -6.05 4.0 -3.75 8.45 -7.35 11.35 -10.95 14.2 -16.3 14.75 -21.7 15.2 -26.7 12.0 -31.7 8.7 -28.7 3.9 -30.0 2.8 -33.65 2.55 -31.4 -3.6 -28.05 -4.25" fill="#ffffff" fill-opacity="0.29803923" fill-rule="evenodd" stroke="none"/>
    <path d="M-18.9 10.2 L-22.15 10.5 Q-24.05 10.3 -25.4 9.6 -26.75 8.9 -26.75 8.05 -26.75 7.2 -25.4 6.75 L-22.15 6.5 Q-20.25 6.65 -18.9 7.35 -17.55 8.05 -17.55 8.9 -17.55 9.75 -18.9 10.2" fill="#ffffff" fill-opacity="0.4" fill-rule="evenodd" stroke="none"/>
    <path d="M-1.35 3.0 Q-2.85 0.3 -4.15 -1.1 -5.5 -2.5 -8.3 -3.8 -11.05 -5.1 -14.65 -3.85 -18.25 -2.65 -18.7 -0.5 -19.95 -3.15 -22.35 -4.0 L-28.1 -4.25 Q-31.45 -3.6 -33.65 2.55 M-28.7 3.85 Q-31.7 8.7 -26.75 12.0 -21.7 15.2 -16.35 14.75 -10.95 14.2 -7.4 11.35 -3.75 8.45 -6.05 3.95" fill="none" stroke="#000000" stroke-linecap="round" stroke-linejoin="round" stroke-opacity="0.29803923" stroke-width="2.0"/>
    <path d="M-42.85 -0.35 Q-15.75 10.3 10.15 -0.75" fill="none" stroke="#000000" stroke-linecap="round" stroke-linejoin="round" stroke-opacity="0.29803923" stroke-width="2.0"/>
  </g>
</svg>
