<?xml version="1.0" encoding="UTF-8" standalone="no"?>
<svg xmlns:ffdec="https://www.free-decompiler.com/flash" xmlns:xlink="http://www.w3.org/1999/xlink" ffdec:objectType="shape" height="20.35px" width="64.65px" xmlns="http://www.w3.org/2000/svg">
  <g transform="matrix(1.0, 0.0, 0.0, 1.0, 47.3, 5.6)">
    <path d="M-33.55 0.85 Q-31.65 -3.6 -28.2 -4.25 L-22.25 -4.0 Q-19.75 -3.15 -18.45 -0.5 -17.95 -2.65 -14.75 -3.75 -11.6 -4.9 -8.55 -4.5 -5.55 -4.1 -3.4 -3.05 L2.75 -0.1 -0.15 1.5 Q-0.35 7.45 -4.1 10.1 -7.85 12.7 -14.8 13.55 -21.8 14.35 -26.55 11.75 -31.3 9.1 -28.9 2.65 -31.4 2.3 -33.55 0.85" fill="#cc99cc" fill-rule="evenodd" stroke="none"/>
    <path d="M2.75 -0.1 L-3.4 -3.05 Q-5.55 -4.1 -8.55 -4.5 -11.6 -4.9 -14.75 -3.75 -17.95 -2.65 -18.45 -0.5 -19.75 -3.15 -22.25 -4.0 L-28.2 -4.25 Q-31.65 -3.6 -33.55 0.85 M-28.9 2.65 Q-31.3 9.1 -26.55 11.75 -21.8 14.35 -14.8 13.55 -7.85 12.7 -4.1 10.1 -0.35 7.45 -0.15 1.5" fill="none" stroke="#000000" stroke-linecap="round" stroke-linejoin="round" stroke-opacity="0.29803923" stroke-width="2.0"/>
    <path d="M-18.65 10.9 L-22.0 11.35 Q-23.95 11.15 -25.35 10.3 -26.75 9.5 -26.75 8.5 -26.75 7.45 -25.35 6.85 L-22.0 6.5 Q-20.05 6.65 -18.65 7.45 -17.25 8.3 -17.25 9.35 -17.25 10.35 -18.65 10.9" fill="#ffffff" fill-opacity="0.4" fill-rule="evenodd" stroke="none"/>
    <path d="M16.35 1.05 Q14.2 -1.9 11.15 -4.0 -14.9 10.7 -41.9 -2.3 -44.25 -1.05 -46.3 2.8" fill="none" stroke="#000000" stroke-linecap="round" stroke-linejoin="round" stroke-opacity="0.29803923" stroke-width="2.0"/>
  </g>
</svg>
