<?xml version="1.0" encoding="UTF-8" standalone="no"?>
<svg xmlns:ffdec="https://www.free-decompiler.com/flash" xmlns:xlink="http://www.w3.org/1999/xlink" ffdec:objectType="shape" height="44.0px" width="78.45px" xmlns="http://www.w3.org/2000/svg">
  <g transform="matrix(1.0, 0.0, 0.0, 1.0, 55.3, 22.6)">
    <path d="M-45.1 -17.4 Q-38.75 -14.35 -31.75 -13.05 -23.3 -11.6 -14.65 -12.15 -6.05 -12.8 1.3 -15.15 7.5 -17.3 11.4 -19.35 9.5 -13.25 3.4 -4.1 -2.8 5.0 -15.95 5.95 -29.2 6.85 -36.1 -1.65 -43.05 -10.15 -45.1 -17.4" fill="#ffffff" fill-rule="evenodd" stroke="none"/>
    <path d="M11.4 -19.35 L12.7 -20.05 Q16.8 -22.45 19.25 -21.15 21.65 -19.95 22.15 -18.55 M-45.1 -17.4 Q-38.75 -14.35 -31.75 -13.05 -23.3 -11.6 -14.65 -12.15 -6.05 -12.8 1.3 -15.15 7.5 -17.3 11.4 -19.35 9.5 -13.25 3.4 -4.1 -2.8 5.0 -15.95 5.95 -29.2 6.85 -36.1 -1.65 -43.05 -10.15 -45.1 -17.4 -52.0 -21.15 -54.3 -16.7" fill="none" stroke="#000000" stroke-linecap="round" stroke-linejoin="round" stroke-opacity="0.49803922" stroke-width="2.0"/>
    <path d="M-20.1 20.75 Q-17.55 21.25 -14.0 20.25 -12.1 19.65 -11.5 18.4 -10.85 17.05 -11.9 15.2 -12.95 13.35 -15.05 12.65 L-19.45 12.35 Q-21.3 12.65 -22.4 13.5 -23.55 14.4 -23.1 15.85 -22.65 17.3 -19.6 17.7 -16.55 18.05 -16.25 16.9 -16.0 15.7 -17.0 15.35" fill="none" stroke="#000000" stroke-linecap="round" stroke-linejoin="round" stroke-opacity="0.2" stroke-width="1.0"/>
    <path d="M-41.05 -8.7 Q-29.95 -2.6 -16.05 -3.65 M-4.75 -5.6 Q-0.2 -6.75 4.55 -8.55" fill="none" stroke="#000000" stroke-linecap="round" stroke-linejoin="round" stroke-opacity="0.2509804" stroke-width="1.0"/>
  </g>
</svg>
