<?xml version="1.0" encoding="UTF-8" standalone="no"?>
<svg xmlns:ffdec="https://www.free-decompiler.com/flash" xmlns:xlink="http://www.w3.org/1999/xlink" ffdec:objectType="shape" height="24.55px" width="75.75px" xmlns="http://www.w3.org/2000/svg">
  <g transform="matrix(1.0, 0.0, 0.0, 1.0, 55.0, 13.1)">
    <path d="M-17.85 10.4 Q-27.35 11.0 -33.55 6.1 -39.8 1.05 -42.2 -3.75 -41.05 -2.7 -24.0 -3.25 -6.95 -3.9 6.0 -6.45 3.8 -1.7 -2.25 4.0 -8.35 9.75 -17.85 10.4" fill="#ffcccc" fill-rule="evenodd" stroke="none"/>
    <path d="M-17.85 10.4 Q-8.35 9.75 -2.25 4.0 3.8 -1.7 6.0 -6.45 -6.95 -3.9 -24.0 -3.25 -41.05 -2.7 -42.2 -3.75 -39.8 1.05 -33.55 6.1 -27.35 11.0 -17.85 10.4 Z" fill="none" stroke="#000000" stroke-linecap="round" stroke-linejoin="round" stroke-opacity="0.2509804" stroke-width="2.0"/>
    <path d="M19.75 -9.45 Q15.25 -8.8 12.45 -12.1 10.15 -9.0 5.25 -5.7 -4.75 0.8 -18.7 1.5 -32.65 2.3 -41.8 -3.4 -46.35 -6.2 -48.2 -9.3 -50.35 -5.2 -54.0 -5.35" fill="none" stroke="#000000" stroke-linecap="round" stroke-linejoin="round" stroke-opacity="0.4" stroke-width="2.0"/>
  </g>
</svg>
