<?xml version="1.0" encoding="UTF-8" standalone="no"?>
<svg xmlns:ffdec="https://www.free-decompiler.com/flash" xmlns:xlink="http://www.w3.org/1999/xlink" ffdec:objectType="shape" height="22.7px" width="55.85px" xmlns="http://www.w3.org/2000/svg">
  <g transform="matrix(1.0, 0.0, 0.0, 1.0, 44.7, 12.2)">
    <path d="M-16.1 -10.45 Q-12.5 -11.75 -9.1 -11.2 -5.8 -10.7 -3.45 -9.35 L3.2 -5.2 -0.85 -4.15 0.65 -3.95 Q0.2 2.2 -4.05 5.2 -8.25 8.15 -16.15 9.1 -24.05 10.0 -29.45 7.1 -34.8 4.1 -32.1 -3.2 L-37.85 -4.15 Q-35.2 -10.3 -31.3 -11.05 L-24.55 -10.75 Q-21.75 -9.8 -20.25 -6.8 -19.7 -9.2 -16.1 -10.45" fill="#ffffff" fill-opacity="0.49803922" fill-rule="evenodd" stroke="none"/>
    <path d="M2.85 -5.05 L-3.8 -9.15 Q-6.15 -10.5 -9.45 -11.05 -12.85 -11.6 -16.4 -10.3 -20.05 -9.05 -20.6 -6.6 -22.1 -9.6 -24.9 -10.6 L-31.65 -10.85 Q-35.55 -10.1 -38.2 -3.95 M-32.45 -3.05 Q-35.15 4.25 -29.8 7.25 -24.4 10.2 -16.5 9.3 -8.6 8.3 -4.35 5.4 -0.15 2.4 0.3 -3.8" fill="none" stroke="#000000" stroke-linecap="round" stroke-linejoin="round" stroke-opacity="0.29803923" stroke-width="2.0"/>
    <path d="M-20.85 6.3 L-24.65 6.75 Q-26.85 6.55 -28.45 5.6 -30.0 4.7 -30.0 3.5 -30.0 2.35 -28.45 1.65 L-24.65 1.25 Q-22.45 1.45 -20.85 2.35 -19.25 3.3 -19.25 4.45 -19.25 5.65 -20.85 6.3" fill="#ffffff" fill-opacity="0.4" fill-rule="evenodd" stroke="none"/>
    <path d="M-43.7 -3.3 L-29.1 -2.7 Q-16.3 -1.6 -4.05 -4.4 8.2 -7.2 10.15 -3.8" fill="none" stroke="#000000" stroke-linecap="round" stroke-linejoin="round" stroke-opacity="0.29803923" stroke-width="2.0"/>
  </g>
</svg>
