<?xml version="1.0" encoding="UTF-8" standalone="no"?>
<svg xmlns:ffdec="https://www.free-decompiler.com/flash" xmlns:xlink="http://www.w3.org/1999/xlink" ffdec:objectType="shape" height="41.05px" width="88.1px" xmlns="http://www.w3.org/2000/svg">
  <g transform="matrix(1.0, 0.0, 0.0, 1.0, 51.1, 22.8)">
    <path d="M25.85 -7.65 Q17.55 -3.2 9.75 -0.55 1.15 2.3 -7.7 3.65 L-24.2 4.5 Q-31.9 3.95 -38.9 1.7 L-42.15 -4.6 -40.85 -4.25 -42.15 -4.6 -42.2 -4.6 -42.25 -4.75 -40.85 -4.25 -34.05 -3.5 -33.55 -3.5 -22.15 -4.15 -21.2 -4.25 -15.4 -5.15 Q5.9 -8.85 25.75 -18.95 27.5 -13.4 25.85 -7.65" fill="#ffffff" fill-rule="evenodd" stroke="none"/>
    <path d="M-38.9 1.7 Q-31.9 3.95 -24.2 4.5 L-7.7 3.65 Q1.15 2.3 9.75 -0.55 17.55 -3.2 25.85 -7.65 25.65 -4.45 22.4 2.65 19.1 9.8 8.6 13.85 3.55 15.85 1.15 16.3 L-7.0 17.15 Q-12.75 17.55 -18.5 16.0 -24.3 14.45 -29.35 11.55 -34.45 8.65 -36.15 6.05 L-38.9 1.7" fill="#000000" fill-opacity="0.49803922" fill-rule="evenodd" stroke="none"/>
    <path d="M-38.9 1.7 Q-31.9 3.95 -24.2 4.5 L-7.7 3.65 Q1.15 2.3 9.75 -0.55 17.55 -3.2 25.85 -7.65 27.5 -13.4 25.75 -18.95 M-15.4 -5.15 L-21.2 -4.25 -22.15 -4.15 -33.55 -3.5 -39.6 -4.05 -40.85 -4.25 -42.15 -4.6 -38.9 1.7 -36.15 6.05 Q-34.45 8.65 -29.35 11.55 -24.3 14.45 -18.5 16.0 -12.75 17.55 -7.0 17.15 L1.15 16.3 Q3.55 15.85 8.6 13.85 19.1 9.8 22.4 2.65 25.65 -4.45 25.85 -7.65 M-15.4 -5.15 L-9.2 -6.6 -7.1 -7.1 Q11.65 -11.85 23.55 -18.35 27.4 -20.45 30.45 -21.45 33.5 -22.5 36.0 -20.5 M-42.15 -4.6 L-42.2 -4.6 Q-46.85 -5.65 -50.1 -7.25" fill="none" stroke="#000000" stroke-linecap="round" stroke-linejoin="round" stroke-opacity="0.49803922" stroke-width="2.0"/>
    <path d="M10.65 -1.5 Q12.5 -8.15 11.3 -13.25" fill="none" stroke="#000000" stroke-linecap="butt" stroke-linejoin="miter-clip" stroke-miterlimit="4.0" stroke-opacity="0.29803923" stroke-width="1.0"/>
    <path d="M-6.7 2.95 Q-5.95 -1.75 -6.7 -6.7" fill="none" stroke="#000000" stroke-linecap="butt" stroke-linejoin="miter-clip" stroke-miterlimit="4.0" stroke-opacity="0.29803923" stroke-width="1.0"/>
    <path d="M-24.2 3.6 L-25.45 -3.2" fill="none" stroke="#000000" stroke-linecap="butt" stroke-linejoin="miter-clip" stroke-miterlimit="4.0" stroke-opacity="0.29803923" stroke-width="1.0"/>
    <path d="M14.5 9.75 Q10.0 12.6 4.6 14.15 -0.85 15.7 -4.45 16.0 L-8.5 15.9 Q-5.9 12.5 -3.35 11.15 1.75 8.45 7.05 7.6 L15.5 6.9 17.7 7.25 14.5 9.75" fill="#ed6f58" fill-rule="evenodd" stroke="none"/>
  </g>
</svg>
