<?xml version="1.0" encoding="UTF-8" standalone="no"?>
<svg xmlns:ffdec="https://www.free-decompiler.com/flash" xmlns:xlink="http://www.w3.org/1999/xlink" ffdec:objectType="shape" height="18.8px" width="58.55px" xmlns="http://www.w3.org/2000/svg">
  <g transform="matrix(1.0, 0.0, 0.0, 1.0, 45.0, 11.65)">
    <path d="M10.4 -1.1 L7.3 -1.45 8.15 -1.3 Q7.6 0.6 0.95 3.35 -5.6 6.0 -18.05 6.15 -30.25 6.35 -34.05 3.55 -37.55 1.0 -38.05 -1.6 L-41.35 -1.35 Q-40.25 -4.55 -38.85 -6.35 -37.3 -8.45 -32.0 -9.2 L-20.4 -10.65 -9.15 -9.8 Q-4.25 -9.1 2.05 -6.1 7.75 -3.4 10.4 -1.1" fill="#e8bf84" fill-rule="evenodd" stroke="none"/>
    <path d="M10.4 -1.1 Q7.75 -3.4 2.05 -6.1 -4.25 -9.1 -9.15 -9.8 L-20.4 -10.65 -32.0 -9.2 Q-37.3 -8.45 -38.85 -6.35 -40.25 -4.55 -41.35 -1.35 L-38.05 -1.6 Q-37.55 1.0 -34.05 3.55 -30.25 6.35 -18.05 6.15 -5.6 6.0 0.95 3.35 7.6 0.6 8.15 -1.3 L7.3 -1.45 10.4 -1.1 Z" fill="none" stroke="#000000" stroke-linecap="round" stroke-linejoin="round" stroke-opacity="0.4" stroke-width="2.0"/>
    <path d="M-44.0 0.05 Q-40.5 -2.1 -33.9 -3.8 -30.2 -4.85 -25.45 -4.9 L-9.9 -4.3 4.45 -2.75 Q8.1 -1.9 12.55 0.95" fill="none" stroke="#000000" stroke-linecap="round" stroke-linejoin="miter-clip" stroke-miterlimit="4.0" stroke-opacity="0.4" stroke-width="2.0"/>
  </g>
</svg>
