<?xml version="1.0" encoding="UTF-8" standalone="no"?>
<svg xmlns:ffdec="https://www.free-decompiler.com/flash" xmlns:xlink="http://www.w3.org/1999/xlink" ffdec:objectType="shape" height="20.85px" width="58.6px" xmlns="http://www.w3.org/2000/svg">
  <g transform="matrix(1.0, 0.0, 0.0, 1.0, 45.25, 12.1)">
    <path d="M10.15 -0.85 L7.0 -1.2 7.85 -1.1 Q7.4 1.1 0.8 4.25 -5.7 7.35 -18.1 7.7 -30.35 8.1 -34.2 5.1 -37.7 2.2 -38.25 -0.75 L-41.55 -0.3 Q-40.55 -3.95 -39.2 -5.95 -37.75 -8.3 -32.4 -9.3 L-20.85 -11.1 -9.6 -10.35 Q-4.7 -9.6 1.7 -6.35 7.45 -3.45 10.15 -0.85" fill="#e085a3" fill-rule="evenodd" stroke="none"/>
    <path d="M10.15 -0.85 Q7.45 -3.45 1.7 -6.35 -4.7 -9.6 -9.6 -10.35 L-20.85 -11.1 -32.4 -9.3 Q-37.75 -8.3 -39.2 -5.95 -40.55 -3.95 -41.55 -0.3 L-38.25 -0.75 Q-37.7 2.2 -34.2 5.1 -30.35 8.1 -18.1 7.7 -5.7 7.35 0.8 4.25 7.4 1.1 7.85 -1.1 L7.0 -1.2 10.15 -0.85 Z" fill="none" stroke="#000000" stroke-linecap="round" stroke-linejoin="round" stroke-opacity="0.4" stroke-width="2.0"/>
    <path d="M-44.25 1.35 Q-40.75 -1.1 -34.2 -3.15 -30.5 -4.35 -25.75 -4.55 L-10.2 -4.1 4.2 -2.55 Q7.85 -1.65 12.35 1.45" fill="none" stroke="#000000" stroke-linecap="round" stroke-linejoin="miter-clip" stroke-miterlimit="4.0" stroke-opacity="0.4" stroke-width="2.0"/>
  </g>
</svg>
