<?xml version="1.0" encoding="UTF-8" standalone="no"?>
<svg xmlns:ffdec="https://www.free-decompiler.com/flash" xmlns:xlink="http://www.w3.org/1999/xlink" ffdec:objectType="shape" height="36.0px" width="64.65px" xmlns="http://www.w3.org/2000/svg">
  <g transform="matrix(1.0, 0.0, 0.0, 1.0, 30.75, 18.6)">
    <path d="M33.4 5.05 L-13.9 6.8 -11.65 -0.7 29.05 -0.7 33.4 5.05" fill="#7d6224" fill-rule="evenodd" stroke="none"/>
    <path d="M33.4 5.05 L-13.9 6.8 -11.65 -0.7 29.05 -0.7" fill="none" stroke="#000000" stroke-linecap="round" stroke-linejoin="round" stroke-opacity="0.29803923" stroke-width="1.0"/>
    <path d="M-7.45 1.35 L28.05 0.95" fill="none" stroke="#9c7b31" stroke-linecap="round" stroke-linejoin="round" stroke-width="2.0"/>
    <path d="M-30.15 -13.65 Q-29.65 -12.45 -26.05 -11.4 -21.85 -10.15 -15.95 -9.9 -10.1 -9.65 -5.9 -11.15 -3.1 -12.15 -1.75 -14.05 -4.95 0.15 -5.4 14.25 -15.65 19.55 -27.2 14.25 -27.0 0.55 -30.15 -13.65" fill="#8a6c28" fill-rule="evenodd" stroke="none"/>
    <path d="M-1.75 -14.05 Q-3.1 -12.15 -5.9 -11.15 -10.1 -9.65 -15.95 -9.9 -21.85 -10.15 -26.05 -11.4 -29.65 -12.45 -30.15 -13.65 L-30.25 -14.05 -30.1 -14.55 Q-29.5 -15.6 -25.85 -16.85 -22.2 -18.1 -16.3 -18.1 -10.45 -18.1 -6.45 -16.85 -2.5 -15.6 -1.75 -14.05" fill="#caa346" fill-rule="evenodd" stroke="none"/>
    <path d="M-1.75 -14.05 Q-3.1 -12.15 -5.9 -11.15 -10.1 -9.65 -15.95 -9.9 -21.85 -10.15 -26.05 -11.4 -29.65 -12.45 -30.15 -13.65 -27.0 0.55 -27.2 14.25 -15.65 19.55 -5.4 14.25 -4.95 0.15 -1.75 -14.05 -2.5 -15.6 -6.45 -16.85 -10.45 -18.1 -16.3 -18.1 -22.2 -18.1 -25.85 -16.85 -29.5 -15.6 -30.1 -14.55 L-30.25 -14.05 -30.15 -13.65" fill="none" stroke="#000000" stroke-linecap="round" stroke-linejoin="round" stroke-opacity="0.29803923" stroke-width="1.0"/>
    <path d="M-25.35 12.7 Q-25.0 0.75 -27.5 -10.1" fill="none" stroke="#9c7b31" stroke-linecap="round" stroke-linejoin="round" stroke-width="2.0"/>
    <path d="M-9.1 -12.6 L-16.05 -12.05 -22.95 -12.6 Q-25.85 -13.2 -25.85 -14.0 -25.85 -14.85 -22.95 -15.4 L-16.05 -16.0 -9.1 -15.4 Q-6.25 -14.85 -6.25 -14.0 -6.25 -13.2 -9.1 -12.6" fill="#4f3e17" fill-rule="evenodd" stroke="none"/>
    <path d="M-18.65 -9.5 L-18.45 -3.6 M-16.3 16.2 L-16.3 8.0 M-25.7 -11.35 Q-23.75 -6.35 -24.05 1.1 M-10.75 15.7 Q-11.3 7.1 -9.55 -1.95" fill="none" stroke="#000000" stroke-linecap="round" stroke-linejoin="round" stroke-opacity="0.13333334" stroke-width="1.0"/>
  </g>
</svg>
