<?xml version="1.0" encoding="UTF-8" standalone="no"?>
<svg xmlns:ffdec="https://www.free-decompiler.com/flash" xmlns:xlink="http://www.w3.org/1999/xlink" ffdec:objectType="shape" height="42.8px" width="62.35px" xmlns="http://www.w3.org/2000/svg">
  <g transform="matrix(1.0, 0.0, 0.0, 1.0, 26.85, 11.65)">
    <path d="M24.8 -0.1 L25.5 1.0 Q29.6 7.7 31.9 15.2 L32.1 15.95 Q34.1 22.75 34.5 30.15 30.45 24.15 25.2 19.05 L24.7 18.65 Q18.45 12.75 10.5 8.1 L10.15 7.85 Q17.35 5.45 22.85 1.45 L24.8 -0.1" fill="#fb0f0c" fill-rule="evenodd" stroke="none"/>
    <path d="M10.15 7.85 L10.5 8.1 Q18.45 12.75 24.7 18.65 L25.2 19.05 Q30.45 24.15 34.5 30.15 34.1 22.75 32.1 15.95 L31.9 15.2 Q29.6 7.7 25.5 1.0 L24.8 -0.1" fill="none" stroke="#ad0703" stroke-linecap="round" stroke-linejoin="round" stroke-width="2.0"/>
    <path d="M24.8 -0.1 L22.85 1.45 Q17.35 5.45 10.15 7.85 L9.15 8.15 7.9 8.55 Q-6.05 12.45 -25.85 10.65 M24.8 -0.1 Q30.05 -4.55 33.6 -10.65" fill="none" stroke="#000000" stroke-linecap="round" stroke-linejoin="round" stroke-opacity="0.49803922" stroke-width="2.0"/>
  </g>
</svg>
