<?xml version="1.0" encoding="UTF-8" standalone="no"?>
<svg xmlns:ffdec="https://www.free-decompiler.com/flash" xmlns:xlink="http://www.w3.org/1999/xlink" ffdec:objectType="shape" height="30.85px" width="80.05px" xmlns="http://www.w3.org/2000/svg">
  <g transform="matrix(1.0, 0.0, 0.0, 1.0, 51.95, 12.3)">
    <path d="M25.75 -3.25 Q28.5 3.0 23.55 10.2 18.6 17.3 3.3 12.15 -12.1 6.9 -30.15 6.45 -22.85 4.8 -7.15 -3.95 8.6 -12.6 15.8 -11.1 22.9 -9.6 25.75 -3.25" fill="#ffffff" fill-rule="evenodd" stroke="none"/>
    <path d="M-50.95 4.8 Q-47.85 6.95 -41.55 7.55 -36.9 7.95 -30.15 6.45 -22.85 4.8 -7.15 -3.95 8.6 -12.6 15.8 -11.1 22.9 -9.6 26.0 -3.45 29.1 2.65 23.55 9.9" fill="none" stroke="#000000" stroke-linecap="round" stroke-linejoin="miter-clip" stroke-miterlimit="4.0" stroke-opacity="0.49803922" stroke-width="2.0"/>
    <path d="M23.55 9.9 Q18.05 17.05 2.25 11.8 -13.5 6.5 -30.15 6.45" fill="none" stroke="#000000" stroke-linecap="round" stroke-linejoin="round" stroke-opacity="0.49803922" stroke-width="2.0"/>
    <path d="M0.9 -6.8 Q8.7 -10.4 13.75 -10.25 15.85 -4.75 14.9 2.4 7.6 3.95 0.75 2.7 1.55 -2.0 0.9 -6.8" fill="#f9d239" fill-rule="evenodd" stroke="none"/>
    <path d="M0.55 -7.1 Q1.05 -2.0 0.45 2.9 7.8 4.1 15.05 2.55 15.5 -3.6 13.5 -10.7 M26.3 1.95 L15.05 2.55 Q14.7 7.2 12.8 13.35 M-12.35 7.0 Q-11.9 5.25 -11.75 3.5 L-19.7 3.85 M-11.75 3.5 Q-11.6 1.5 -11.8 -0.55 M-0.75 9.4 Q0.1 5.8 0.45 2.9 -6.1 4.2 -11.75 3.5" fill="none" stroke="#000000" stroke-linecap="round" stroke-linejoin="round" stroke-opacity="0.49803922" stroke-width="2.0"/>
    <path d="M-15.95 17.05 Q-22.25 14.55 -27.95 15.7" fill="none" stroke="#000000" stroke-linecap="round" stroke-linejoin="round" stroke-opacity="0.2" stroke-width="3.0"/>
  </g>
</svg>
