<?xml version="1.0" encoding="UTF-8" standalone="no"?>
<svg xmlns:ffdec="https://www.free-decompiler.com/flash" xmlns:xlink="http://www.w3.org/1999/xlink" ffdec:objectType="shape" height="37.4px" width="97.0px" xmlns="http://www.w3.org/2000/svg">
  <g transform="matrix(1.0, 0.0, 0.0, 1.0, 62.1, 16.9)">
    <path d="M32.1 -8.9 Q35.45 -2.85 31.2 4.75 26.85 12.25 11.15 8.4 -4.65 4.6 -21.15 6.25 -14.3 3.9 -0.4 -6.55 13.4 -17.0 21.05 -15.95 28.65 -15.0 32.1 -8.9" fill="#ffffff" fill-rule="evenodd" stroke="none"/>
    <path d="M6.65 -11.1 Q14.8 -15.95 19.45 -15.75 22.35 -9.2 22.05 -2.1 L7.3 -0.4 Q8.0 -6.7 6.65 -11.1" fill="#f9d239" fill-rule="evenodd" stroke="none"/>
    <path d="M31.1 4.45 Q36.0 -3.25 32.4 -9.1 28.8 -14.95 21.55 -15.8 14.25 -16.7 4.55 -9.55 -5.25 -2.4 -11.2 1.55 -16.3 4.8 -20.7 6.35 -26.4 7.9 -30.6 7.65 -34.85 7.4 -38.2 6.15 -41.6 4.9 -46.0 1.55 L-51.8 -3.5 Q-53.85 -5.4 -56.35 -5.45 -58.8 -5.5 -61.1 -3.7" fill="none" stroke="#000000" stroke-linecap="round" stroke-linejoin="miter-clip" stroke-miterlimit="4.0" stroke-opacity="0.49803922" stroke-width="2.0"/>
    <path d="M-20.7 6.35 Q-14.85 4.75 -6.3 5.35 3.5 6.05 14.85 9.05 26.25 12.05 31.1 4.45" fill="none" stroke="#000000" stroke-linecap="round" stroke-linejoin="round" stroke-opacity="0.49803922" stroke-width="2.0"/>
    <path d="M19.3 -15.25 Q21.9 -8.35 21.95 -2.1 L33.15 -3.7 M6.75 -10.45 Q7.65 -5.5 7.5 -0.55 L21.95 -2.1 Q22.05 2.55 20.65 8.85 M6.85 6.05 L7.5 -0.55 -4.6 1.15 Q-4.6 2.9 -4.9 4.65 M-4.6 1.15 L-12.45 2.15 M-4.6 1.15 Q-4.6 -0.85 -5.05 -2.85" fill="none" stroke="#000000" stroke-linecap="round" stroke-linejoin="round" stroke-opacity="0.49803922" stroke-width="2.0"/>
    <path d="M-16.1 19.0 Q-22.4 16.4 -28.0 17.5" fill="none" stroke="#000000" stroke-linecap="round" stroke-linejoin="round" stroke-opacity="0.2" stroke-width="3.0"/>
  </g>
</svg>
