<?xml version="1.0" encoding="UTF-8" standalone="no"?>
<svg xmlns:ffdec="https://www.free-decompiler.com/flash" xmlns:xlink="http://www.w3.org/1999/xlink" ffdec:objectType="shape" height="31.45px" width="89.05px" xmlns="http://www.w3.org/2000/svg">
  <g transform="matrix(1.0, 0.0, 0.0, 1.0, 57.4, 14.0)">
    <path d="M14.25 -12.9 Q24.25 -13.75 28.45 -5.6 32.65 2.6 28.9 6.2 25.2 9.85 14.2 10.4 3.2 10.8 -7.4 8.8 -18.0 6.7 -29.2 7.15 -40.4 7.55 -48.55 10.4 -45.25 2.55 -51.4 -9.35 L-41.15 -7.3 Q-34.6 -6.1 -24.9 -5.7 -15.15 -5.35 -5.5 -8.65 4.2 -12.0 14.25 -12.9" fill="#ffffff" fill-rule="evenodd" stroke="none"/>
    <path d="M14.25 -12.9 Q4.2 -12.0 -5.5 -8.65 -15.15 -5.35 -24.9 -5.7 -34.6 -6.1 -41.15 -7.3 L-51.4 -9.35 Q-45.25 2.55 -48.55 10.4 -40.4 7.55 -29.2 7.15 -18.0 6.7 -7.4 8.8 3.2 10.8 14.2 10.4 25.2 9.85 28.9 6.2 32.65 2.6 28.45 -5.6 24.25 -13.75 14.25 -12.9 M-51.4 -9.35 Q-54.75 -10.05 -56.4 -8.75" fill="none" stroke="#000000" stroke-linecap="round" stroke-linejoin="round" stroke-opacity="0.49803922" stroke-width="2.0"/>
    <path d="M14.05 -11.7 Q16.35 -7.85 16.3 -1.85 5.45 0.25 -1.4 0.3 -1.45 -5.15 -2.6 -8.6 5.7 -11.95 14.05 -11.7" fill="#f9d239" fill-rule="evenodd" stroke="none"/>
    <path d="M-38.05 -5.55 Q-36.7 0.75 -37.6 7.0" fill="none" stroke="#000000" stroke-linecap="round" stroke-linejoin="round" stroke-opacity="0.49803922" stroke-width="2.0"/>
    <path d="M-20.2 -4.6 Q-19.25 0.85 -19.9 6.25" fill="none" stroke="#000000" stroke-linecap="round" stroke-linejoin="round" stroke-opacity="0.49803922" stroke-width="2.0"/>
    <path d="M-2.75 -8.4 Q-1.25 -0.45 -1.5 8.35" fill="none" stroke="#000000" stroke-linecap="round" stroke-linejoin="round" stroke-opacity="0.49803922" stroke-width="2.0"/>
    <path d="M14.25 -11.3 Q17.3 -4.8 16.85 9.65" fill="none" stroke="#000000" stroke-linecap="round" stroke-linejoin="round" stroke-opacity="0.49803922" stroke-width="2.0"/>
    <path d="M-47.05 0.6 Q-9.55 4.2 28.55 -4.45" fill="none" stroke="#000000" stroke-linecap="round" stroke-linejoin="round" stroke-opacity="0.49803922" stroke-width="2.0"/>
    <path d="M-12.75 16.45 Q-21.25 13.5 -29.65 15.3" fill="none" stroke="#000000" stroke-linecap="round" stroke-linejoin="miter-clip" stroke-miterlimit="4.0" stroke-opacity="0.2" stroke-width="2.0"/>
  </g>
</svg>
