<?xml version="1.0" encoding="UTF-8" standalone="no"?>
<svg xmlns:ffdec="https://www.free-decompiler.com/flash" xmlns:xlink="http://www.w3.org/1999/xlink" ffdec:objectType="shape" height="21.65px" width="67.0px" xmlns="http://www.w3.org/2000/svg">
  <g transform="matrix(1.0, 0.0, 0.0, 1.0, 47.35, 9.55)">
    <path d="M-17.25 -8.45 L-12.45 -8.2 Q-9.45 -7.7 -4.85 -5.7 -0.25 -3.7 2.0 -3.2 L-2.5 -1.9 Q-1.85 1.6 -3.45 5.6 -5.05 9.6 -14.55 10.8 -24.15 12.0 -27.65 8.35 -31.2 4.7 -31.3 1.9 L-35.1 1.9 Q-34.65 -0.2 -32.8 -3.45 -31.05 -6.7 -28.6 -7.25 -27.55 -7.5 -24.9 -6.45 L-22.4 -5.35 Q-19.0 -8.25 -17.25 -8.45" fill="#e08430" fill-opacity="0.69411767" fill-rule="evenodd" stroke="none"/>
    <path d="M-17.25 -8.45 L-12.45 -8.2 Q-9.45 -7.7 -4.85 -5.7 -0.25 -3.7 2.0 -3.2 L-2.5 -1.9 Q-1.85 1.6 -3.45 5.6 -5.05 9.6 -14.55 10.8 -24.15 12.0 -27.65 8.35 -31.2 4.7 -31.3 1.9 L-35.1 1.9 Q-34.65 -0.2 -32.8 -3.45 -31.05 -6.7 -28.6 -7.25 -27.55 -7.5 -24.9 -6.45 L-22.4 -5.35 Q-19.0 -8.25 -17.25 -8.45 Z" fill="none" stroke="#000000" stroke-linecap="butt" stroke-linejoin="round" stroke-opacity="0.29803923" stroke-width="2.0"/>
    <path d="M-18.45 7.35 L-21.7 7.7 Q-23.6 7.55 -24.95 6.8 -26.35 6.15 -26.35 5.2 -26.35 4.3 -24.95 3.8 L-21.7 3.45 Q-19.8 3.6 -18.45 4.35 -17.05 5.05 -17.05 5.95 -17.05 6.9 -18.45 7.35" fill="#ffffff" fill-opacity="0.29803923" fill-rule="evenodd" stroke="none"/>
    <path d="M18.65 -1.1 Q15.3 -5.35 10.7 -5.3 6.1 -5.25 -5.85 -1.05 -17.8 3.1 -46.35 1.85" fill="none" stroke="#000000" stroke-linecap="round" stroke-linejoin="miter-clip" stroke-miterlimit="4.0" stroke-opacity="0.29803923" stroke-width="2.0"/>
  </g>
</svg>
