<?xml version="1.0" encoding="UTF-8" standalone="no"?>
<svg xmlns:ffdec="https://www.free-decompiler.com/flash" xmlns:xlink="http://www.w3.org/1999/xlink" ffdec:objectType="shape" height="23.4px" width="73.0px" xmlns="http://www.w3.org/2000/svg">
  <g transform="matrix(1.0, 0.0, 0.0, 1.0, 45.7, 11.3)">
    <path d="M23.55 -8.2 Q25.05 -8.25 26.1 -7.2 27.25 -6.15 27.3 -4.65 27.35 -3.15 26.3 -2.05 25.3 -1.0 23.8 -0.95 22.25 -0.9 21.2 -1.9 20.1 -2.9 20.05 -4.4 20.0 -5.9 21.0 -7.05 22.0 -8.15 23.55 -8.2" fill="#000000" fill-opacity="0.49803922" fill-rule="evenodd" stroke="none"/>
    <path d="M-28.7 -9.5 Q-25.5 -10.35 -23.05 -9.4 -20.65 -8.55 -19.3 -5.7 -18.9 -8.05 -15.45 -9.55 L-9.2 -9.7 Q-6.4 -8.35 -5.0 -6.85 -3.7 -5.35 -2.1 -2.4 -5.4 -2.05 -6.7 -1.15 -4.3 3.65 -7.7 7.0 -11.15 10.25 -16.4 11.05 -21.7 11.7 -26.75 8.35 -31.75 4.9 -29.0 -0.5 -30.35 -1.65 -33.95 -1.85 -32.0 -8.65 -28.7 -9.5" fill="#d36145" fill-opacity="0.8" fill-rule="evenodd" stroke="none"/>
    <path d="M-44.7 2.25 Q-36.75 -3.15 -29.0 -0.55 -17.6 1.15 -6.65 -1.25 L-2.1 -2.45 Q-3.7 -5.35 -5.0 -6.85 -6.35 -8.35 -9.15 -9.7 L-15.45 -9.55 Q-18.95 -8.05 -19.25 -5.7 -20.65 -8.55 -23.05 -9.45 -25.55 -10.35 -28.65 -9.55 -32.0 -8.65 -33.95 -1.85 M-29.0 -0.55 Q-31.75 4.9 -26.75 8.3 -21.65 11.7 -16.4 11.0 -11.1 10.25 -7.7 6.95 -4.25 3.65 -6.65 -1.25 M12.15 1.85 Q4.65 -5.25 -2.1 -2.45" fill="none" stroke="#000000" stroke-linecap="round" stroke-linejoin="round" stroke-opacity="0.33333334" stroke-width="2.0"/>
    <path d="M-19.25 5.95 L-22.55 6.45 Q-24.45 6.35 -25.85 5.6 -27.25 4.95 -27.25 4.05 -27.3 3.15 -25.95 2.55 L-22.7 2.2 Q-20.8 2.25 -19.35 2.9 -18.0 3.6 -17.95 4.5 -17.95 5.4 -19.25 5.95" fill="#ffffff" fill-opacity="0.29803923" fill-rule="evenodd" stroke="none"/>
  </g>
</svg>
