<?xml version="1.0" encoding="UTF-8" standalone="no"?>
<svg xmlns:ffdec="https://www.free-decompiler.com/flash" xmlns:xlink="http://www.w3.org/1999/xlink" ffdec:objectType="shape" height="23.0px" width="75.8px" xmlns="http://www.w3.org/2000/svg">
  <g transform="matrix(1.0, 0.0, 0.0, 1.0, 59.3, 8.25)">
    <path d="M-33.75 1.85 Q-31.4 -3.6 -27.95 -4.25 L-22.0 -4.0 Q-19.5 -3.15 -18.2 -0.5 -17.7 -2.65 -14.5 -3.75 -11.35 -4.9 -8.35 -4.4 -5.4 -3.95 -3.35 -2.75 L2.55 0.9 -1.05 1.85 0.3 2.0 Q-0.1 7.45 -3.85 10.1 -7.6 12.7 -14.55 13.55 -21.55 14.35 -26.3 11.75 -31.05 9.1 -28.65 2.65 L-33.75 1.85" fill="#d05f2f" fill-rule="evenodd" stroke="none"/>
    <path d="M2.55 0.9 L-3.35 -2.75 Q-5.4 -3.95 -8.35 -4.4 -11.35 -4.9 -14.5 -3.75 -17.7 -2.65 -18.2 -0.5 -19.5 -3.15 -22.0 -4.0 L-27.95 -4.25 Q-31.4 -3.6 -33.75 1.85 M-28.65 2.65 Q-31.05 9.1 -26.3 11.75 -21.55 14.35 -14.55 13.55 -7.6 12.7 -3.85 10.1 -0.1 7.45 0.3 2.0" fill="none" stroke="#000000" stroke-linecap="round" stroke-linejoin="round" stroke-opacity="0.29803923" stroke-width="2.0"/>
    <path d="M-18.4 10.9 L-21.75 11.35 Q-23.7 11.15 -25.1 10.3 -26.5 9.5 -26.5 8.5 -26.5 7.45 -25.1 6.85 -23.7 6.3 -21.75 6.5 -19.8 6.65 -18.4 7.45 -17.0 8.3 -17.0 9.35 -17.0 10.35 -18.4 10.9" fill="#ffffff" fill-opacity="0.4" fill-rule="evenodd" stroke="none"/>
    <path d="M-43.45 0.65 Q-0.6 8.15 11.4 -4.0 L15.5 1.15" fill="none" stroke="#000000" stroke-linecap="round" stroke-linejoin="round" stroke-opacity="0.29803923" stroke-width="2.0"/>
    <path d="M-55.7 -8.25 Q-54.15 -8.25 -53.15 -7.2 -52.05 -6.1 -52.05 -4.6 -52.05 -3.1 -53.15 -2.05 -54.15 -1.0 -55.7 -1.0 -57.2 -1.0 -58.3 -2.05 -59.3 -3.1 -59.3 -4.6 -59.3 -6.1 -58.3 -7.2 -57.2 -8.25 -55.7 -8.25" fill="#000000" fill-opacity="0.49803922" fill-rule="evenodd" stroke="none"/>
  </g>
</svg>
