<?xml version="1.0" encoding="UTF-8" standalone="no"?>
<svg xmlns:ffdec="https://www.free-decompiler.com/flash" xmlns:xlink="http://www.w3.org/1999/xlink" ffdec:objectType="shape" height="39.2px" width="130.1px" xmlns="http://www.w3.org/2000/svg">
  <g transform="matrix(1.0, 0.0, 0.0, 1.0, 77.9, 6.1)">
    <path d="M14.2 -3.8 L23.5 -2.9 31.4 -1.9 Q32.9 0.1 34.3 2.6 36.45 6.6 36.8 12.8 L36.85 14.5 Q37.0 19.65 36.35 24.8 35.55 30.8 30.7 31.85 L28.6 32.1 Q25.3 32.0 23.45 29.35 22.4 27.95 21.75 26.45 20.8 24.35 20.65 22.2 20.5 20.05 20.75 17.7 L20.75 17.55 Q21.3 11.6 19.95 6.15 18.4 0.25 14.2 -3.8 M23.5 -2.9 Q32.1 10.05 28.6 32.1 32.1 10.05 23.5 -2.9" fill="#ff0000" fill-rule="evenodd" stroke="none"/>
    <path d="M31.4 -1.9 Q32.9 0.1 34.3 2.6 36.45 6.6 36.8 12.8 L36.85 14.5 Q37.0 19.65 36.35 24.8 35.55 30.8 30.7 31.85 L28.6 32.1 Q25.3 32.0 23.45 29.35 22.4 27.95 21.75 26.45 20.8 24.35 20.65 22.2 20.5 20.05 20.75 17.7 L20.75 17.55 Q21.3 11.6 19.95 6.15 18.4 0.25 14.2 -3.8 M28.6 32.1 Q32.1 10.05 23.5 -2.9" fill="none" stroke="#ca0000" stroke-linecap="round" stroke-linejoin="round" stroke-width="2.0"/>
    <path d="M14.2 -3.8 L23.5 -2.9 31.4 -1.9 51.2 1.45 M14.2 -3.8 Q-11.05 -6.05 -36.0 -4.35 L-51.95 -2.8 Q-64.45 -1.35 -76.9 1.15" fill="none" stroke="#000000" stroke-linecap="round" stroke-linejoin="round" stroke-opacity="0.49803922" stroke-width="2.0"/>
  </g>
</svg>
