<?xml version="1.0" encoding="UTF-8" standalone="no"?>
<svg xmlns:ffdec="https://www.free-decompiler.com/flash" xmlns:xlink="http://www.w3.org/1999/xlink" ffdec:objectType="shape" height="30.75px" width="80.1px" xmlns="http://www.w3.org/2000/svg">
  <g transform="matrix(1.0, 0.0, 0.0, 1.0, 51.95, 15.95)">
    <path d="M25.75 -6.8 Q28.5 -0.55 23.55 6.65 18.55 13.7 3.25 8.45 -12.1 3.2 -30.15 2.65 -22.85 1.05 -7.1 -7.65 8.7 -16.25 15.85 -14.7 23.0 -13.15 25.75 -6.8" fill="#ffffff" fill-rule="evenodd" stroke="none"/>
    <path d="M-50.95 0.95 Q-47.85 3.05 -41.6 3.7 -36.95 4.15 -30.15 2.65 -22.85 1.05 -7.1 -7.65 8.7 -16.25 15.85 -14.7 23.0 -13.15 26.05 -7.0 29.1 -0.9 23.5 6.35" fill="none" stroke="#000000" stroke-linecap="round" stroke-linejoin="miter-clip" stroke-miterlimit="4.0" stroke-opacity="0.49803922" stroke-width="2.0"/>
    <path d="M23.5 6.35 Q17.95 13.45 2.2 8.15 -13.5 2.8 -30.15 2.65" fill="none" stroke="#000000" stroke-linecap="round" stroke-linejoin="round" stroke-opacity="0.49803922" stroke-width="2.0"/>
    <path d="M0.85 -10.5 Q8.7 -14.1 13.75 -13.85 15.85 -8.35 14.85 -1.25 7.55 0.3 0.7 -1.0 1.5 -5.7 0.85 -10.5" fill="#f9d239" fill-rule="evenodd" stroke="none"/>
    <path d="M0.55 -10.75 Q1.05 -5.7 0.45 -0.8 7.75 0.45 15.05 -1.1 15.5 -7.25 13.55 -14.35 M26.3 -1.65 L15.05 -1.1 Q14.65 3.55 12.7 9.75 M-19.7 0.05 L-11.75 -0.25 Q-11.6 -2.25 -11.8 -4.3 M-0.8 5.65 Q0.05 2.1 0.45 -0.8 L-11.75 -0.25 Q-11.9 1.5 -12.35 3.2" fill="none" stroke="#000000" stroke-linecap="round" stroke-linejoin="round" stroke-opacity="0.49803922" stroke-width="2.0"/>
    <path d="M-16.0 13.3 Q-22.3 10.8 -27.95 11.9" fill="none" stroke="#000000" stroke-linecap="round" stroke-linejoin="round" stroke-opacity="0.2" stroke-width="3.0"/>
  </g>
</svg>
