<?xml version="1.0" encoding="UTF-8" standalone="no"?>
<svg xmlns:ffdec="https://www.free-decompiler.com/flash" xmlns:xlink="http://www.w3.org/1999/xlink" ffdec:objectType="shape" height="25.45px" width="67.45px" xmlns="http://www.w3.org/2000/svg">
  <g transform="matrix(1.0, 0.0, 0.0, 1.0, 42.6, 11.45)">
    <path d="M6.3 -2.15 L2.3 -1.0 3.8 -0.85 Q3.45 5.35 -0.75 8.5 -4.95 11.55 -12.9 12.7 -20.85 13.8 -26.35 10.95 -31.85 8.05 -29.25 1.5 -32.1 0.25 -35.05 -0.2 -32.5 -6.4 -28.6 -7.25 -24.75 -8.1 -21.8 -7.15 -18.95 -6.2 -17.4 -3.25 -16.85 -5.7 -13.25 -7.05 -9.7 -8.4 -6.25 -7.95 -2.85 -7.5 -0.5 -6.2 L6.3 -2.15" fill="#b70000" fill-rule="evenodd" stroke="none"/>
    <path d="M6.3 -2.15 L-0.5 -6.2 Q-2.85 -7.5 -6.25 -7.95 -9.7 -8.4 -13.25 -7.05 -16.85 -5.7 -17.4 -3.25 -18.95 -6.2 -21.8 -7.15 -24.75 -8.1 -28.6 -7.25 -32.5 -6.4 -35.05 -0.2 M-29.25 1.5 Q-31.85 8.05 -26.35 10.95 -20.85 13.8 -12.9 12.7 -4.95 11.55 -0.75 8.5 3.45 5.35 3.8 -0.85" fill="none" stroke="#000000" stroke-linecap="round" stroke-linejoin="round" stroke-opacity="0.29803923" stroke-width="2.0"/>
    <path d="M-17.3 9.8 Q-18.85 10.55 -21.1 10.4 -23.35 10.25 -25.0 9.25 -26.6 8.4 -26.6 7.2 -26.65 6.05 -25.05 5.3 -23.5 4.7 -21.25 4.85 -19.0 5.0 -17.35 5.85 -15.75 6.8 -15.7 7.95 -15.7 9.15 -17.3 9.8" fill="#ffffff" fill-opacity="0.4" fill-rule="evenodd" stroke="none"/>
    <path d="M-41.6 -1.75 Q0.7 11.0 14.2 -10.45 L23.85 -6.7" fill="none" stroke="#000000" stroke-linecap="round" stroke-linejoin="round" stroke-opacity="0.29803923" stroke-width="2.0"/>
  </g>
</svg>
