<?xml version="1.0" encoding="UTF-8" standalone="no"?>
<svg xmlns:ffdec="https://www.free-decompiler.com/flash" xmlns:xlink="http://www.w3.org/1999/xlink" ffdec:objectType="shape" height="40.1px" width="91.5px" xmlns="http://www.w3.org/2000/svg">
  <g transform="matrix(1.0, 0.0, 0.0, 1.0, 52.6, 24.35)">
    <path d="M18.9 0.95 Q14.5 8.9 6.6 11.55 -7.2 16.3 -18.6 13.95 -30.15 11.7 -36.2 7.0 -42.3 2.25 -44.45 -6.55 -42.25 -5.2 -36.45 -4.8 -30.65 -4.3 -23.85 -5.05 0.0 -7.6 22.05 -19.5 24.75 -9.35 18.9 0.95" fill="#ffffff" fill-rule="evenodd" stroke="none"/>
    <path d="M37.9 -19.35 Q33.3 -24.7 28.5 -22.85 23.65 -21.0 19.9 -18.9 8.25 -12.15 -10.1 -7.55 L-12.1 -7.05 Q-11.2 -1.8 -11.45 3.65 -2.0 3.3 6.4 0.5 7.55 -5.7 6.9 -12.0 M20.9 -6.8 Q14.05 -2.1 6.4 0.5 5.2 6.75 2.15 13.0 L6.6 11.6 Q14.55 8.95 18.95 1.0 24.75 -9.35 22.1 -19.45 M2.15 13.0 Q-9.05 15.9 -18.65 14.0 -30.1 11.75 -36.1 7.1 -40.3 3.8 -42.5 -1.15 -43.65 -3.5 -44.3 -6.25 -48.15 -7.45 -51.6 -11.6 M-12.1 -7.05 Q-30.35 -2.95 -41.8 -5.65 L-44.3 -6.25 M-12.75 14.25 Q-11.6 8.8 -11.45 3.65 -19.75 3.95 -28.7 2.4 -28.1 6.2 -26.9 10.3 M-42.5 -1.15 Q-35.45 1.15 -28.7 2.4 L-29.45 -3.3" fill="none" stroke="#000000" stroke-linecap="round" stroke-linejoin="round" stroke-opacity="0.49803922" stroke-width="2.0"/>
  </g>
</svg>
