<?xml version="1.0" encoding="UTF-8" standalone="no"?>
<svg xmlns:ffdec="https://www.free-decompiler.com/flash" xmlns:xlink="http://www.w3.org/1999/xlink" ffdec:objectType="shape" height="24.05px" width="65.5px" xmlns="http://www.w3.org/2000/svg">
  <g transform="matrix(1.0, 0.0, 0.0, 1.0, 41.55, 10.05)">
    <path d="M-34.25 -0.15 Q-31.65 -6.15 -27.8 -6.85 L-21.25 -6.6 Q-18.5 -5.65 -17.05 -2.7 -16.45 -5.1 -12.95 -6.3 -9.45 -7.6 -6.15 -7.05 -2.9 -6.55 -0.65 -5.25 L5.9 -1.2 1.95 -0.15 3.4 0.0 Q2.95 6.05 -1.15 8.95 -5.3 11.85 -13.0 12.8 -20.75 13.7 -26.0 10.8 -31.25 7.9 -28.6 1.65 -31.35 0.4 -34.25 -0.15" fill="#e99696" fill-rule="evenodd" stroke="none"/>
    <path d="M5.9 -1.2 L-0.65 -5.25 Q-2.9 -6.55 -6.15 -7.05 -9.45 -7.6 -12.95 -6.3 -16.45 -5.1 -17.05 -2.7 -18.5 -5.65 -21.25 -6.6 L-27.8 -6.85 Q-31.65 -6.15 -34.25 -0.15 M-28.6 1.65 Q-31.25 7.9 -26.0 10.8 -20.75 13.7 -13.0 12.8 -5.3 11.85 -1.15 8.95 2.95 6.05 3.4 0.0" fill="none" stroke="#000000" stroke-linecap="round" stroke-linejoin="round" stroke-opacity="0.29803923" stroke-width="2.0"/>
    <path d="M-17.25 9.85 Q-18.8 10.55 -20.95 10.35 -23.1 10.15 -24.65 9.2 -26.2 8.3 -26.2 7.15 -26.2 6.05 -24.65 5.4 L-20.95 5.0 Q-18.8 5.2 -17.25 6.05 -15.7 7.0 -15.7 8.1 -15.7 9.25 -17.25 9.85" fill="#ffffff" fill-opacity="0.4" fill-rule="evenodd" stroke="none"/>
    <path d="M-40.55 -1.8 Q0.15 11.4 13.65 -9.05 L22.95 -5.2" fill="none" stroke="#000000" stroke-linecap="round" stroke-linejoin="round" stroke-opacity="0.29803923" stroke-width="2.0"/>
  </g>
</svg>
