<?xml version="1.0" encoding="UTF-8" standalone="no"?>
<svg xmlns:ffdec="https://www.free-decompiler.com/flash" xmlns:xlink="http://www.w3.org/1999/xlink" ffdec:objectType="shape" height="25.5px" width="75.25px" xmlns="http://www.w3.org/2000/svg">
  <g transform="matrix(1.0, 0.0, 0.0, 1.0, 50.5, 11.25)">
    <path d="M6.9 -1.95 Q5.0 -1.3 2.95 -0.8 L4.45 -0.65 Q4.05 5.7 -0.05 8.85 -4.1 11.9 -11.8 13.0 -19.4 14.0 -24.65 11.1 -29.85 8.0 -27.3 1.45 -30.0 0.1 -32.9 -0.4 -30.3 -6.75 -26.55 -7.55 L-20.05 -7.3 Q-17.3 -6.3 -15.9 -3.3 -15.25 -5.8 -11.8 -7.15 -8.3 -8.5 -5.1 -8.0 -1.85 -7.45 0.35 -6.1 L6.9 -1.95" fill="#f0939c" fill-rule="evenodd" stroke="none"/>
    <path d="M6.9 -1.95 L0.35 -6.1 Q-1.85 -7.45 -5.1 -8.0 -8.3 -8.5 -11.8 -7.15 -15.25 -5.8 -15.9 -3.3 -17.3 -6.3 -20.05 -7.3 L-26.55 -7.55 Q-30.3 -6.75 -32.9 -0.4 M-27.3 1.45 Q-29.85 8.0 -24.65 11.1 -19.4 14.0 -11.8 13.0 -4.1 11.9 -0.05 8.85 4.05 5.7 4.45 -0.65" fill="none" stroke="#000000" stroke-linecap="round" stroke-linejoin="round" stroke-opacity="0.29803923" stroke-width="2.0"/>
    <path d="M-15.9 9.95 Q-17.45 10.65 -19.6 10.5 -21.75 10.3 -23.25 9.3 -24.8 8.4 -24.8 7.2 -24.8 6.0 -23.3 5.25 L-19.65 4.85 Q-17.5 5.0 -15.95 5.9 -14.4 6.85 -14.4 8.05 -14.4 9.25 -15.9 9.95" fill="#ffffff" fill-opacity="0.4" fill-rule="evenodd" stroke="none"/>
    <path d="M-41.7 -5.3 Q-38.5 -1.35 -30.5 0.5 -22.9 2.25 -13.65 1.7 -4.2 1.05 3.25 -1.85 11.35 -5.05 14.5 -10.25 L23.75 -6.3 M-49.5 -1.75 L-42.2 -5.0" fill="none" stroke="#000000" stroke-linecap="round" stroke-linejoin="round" stroke-opacity="0.29803923" stroke-width="2.0"/>
  </g>
</svg>
