<?xml version="1.0" encoding="UTF-8" standalone="no"?>
<svg xmlns:ffdec="https://www.free-decompiler.com/flash" xmlns:xlink="http://www.w3.org/1999/xlink" ffdec:objectType="shape" height="20.3px" width="60.95px" xmlns="http://www.w3.org/2000/svg">
  <g transform="matrix(1.0, 0.0, 0.0, 1.0, 44.2, 5.55)">
    <path d="M-33.5 1.85 Q-31.15 -3.6 -27.7 -4.25 L-21.75 -4.0 Q-19.25 -3.15 -17.95 -0.5 -17.45 -2.65 -14.25 -3.75 -11.1 -4.9 -8.1 -4.4 -5.15 -3.95 -3.1 -2.75 L2.8 0.9 -0.8 1.85 0.55 2.0 Q0.15 7.45 -3.6 10.1 -7.35 12.7 -14.3 13.55 -21.3 14.35 -26.05 11.75 -30.8 9.1 -28.4 2.65 L-33.5 1.85" fill="#ff7755" fill-rule="evenodd" stroke="none"/>
    <path d="M2.8 0.9 L-3.1 -2.75 Q-5.15 -3.95 -8.1 -4.4 -11.1 -4.9 -14.25 -3.75 -17.45 -2.65 -17.95 -0.5 -19.25 -3.15 -21.75 -4.0 L-27.7 -4.25 Q-31.15 -3.6 -33.5 1.85 M-28.4 2.65 Q-30.8 9.1 -26.05 11.75 -21.3 14.35 -14.3 13.55 -7.35 12.7 -3.6 10.1 0.15 7.45 0.55 2.0" fill="none" stroke="#000000" stroke-linecap="round" stroke-linejoin="round" stroke-opacity="0.29803923" stroke-width="2.0"/>
    <path d="M-16.75 9.35 Q-16.75 10.35 -18.15 10.9 -19.55 11.5 -21.5 11.35 -23.45 11.15 -24.85 10.3 -26.25 9.5 -26.25 8.5 -26.25 7.45 -24.85 6.85 -23.45 6.3 -21.5 6.5 -19.55 6.65 -18.15 7.45 -16.75 8.3 -16.75 9.35" fill="#ffffff" fill-opacity="0.4" fill-rule="evenodd" stroke="none"/>
    <path d="M-43.2 0.65 Q-0.35 8.15 11.65 -4.0 L15.75 1.15" fill="none" stroke="#000000" stroke-linecap="round" stroke-linejoin="round" stroke-opacity="0.29803923" stroke-width="2.0"/>
  </g>
</svg>
