<?xml version="1.0" encoding="UTF-8" standalone="no"?>
<svg xmlns:ffdec="https://www.free-decompiler.com/flash" xmlns:xlink="http://www.w3.org/1999/xlink" ffdec:objectType="shape" height="23.65px" width="75.55px" xmlns="http://www.w3.org/2000/svg">
  <g transform="matrix(1.0, 0.0, 0.0, 1.0, 50.8, 10.3)">
    <path d="M6.25 -3.55 L2.35 -2.25 3.85 -2.15 Q3.65 4.2 -0.35 7.45 -4.3 10.65 -11.95 11.95 -19.55 13.2 -24.85 10.45 -30.15 7.55 -27.8 0.9 -30.55 -0.35 -33.45 -0.75 -31.05 -7.2 -27.35 -8.1 -23.65 -9.0 -20.85 -8.05 -18.05 -7.15 -16.55 -4.2 -16.0 -6.7 -12.6 -8.15 -9.15 -9.6 -5.9 -9.2 -2.65 -8.75 -0.4 -7.5 L6.25 -3.55" fill="#428dff" fill-rule="evenodd" stroke="none"/>
    <path d="M6.25 -3.55 L-0.4 -7.5 Q-2.65 -8.75 -5.9 -9.2 -9.15 -9.6 -12.6 -8.15 -16.0 -6.7 -16.55 -4.2 -18.05 -7.15 -20.85 -8.05 -23.65 -9.0 -27.35 -8.1 -31.05 -7.2 -33.45 -0.75 M-27.8 0.9 Q-30.15 7.55 -24.85 10.45 -19.55 13.2 -11.95 11.95 -4.3 10.65 -0.35 7.45 3.65 4.2 3.85 -2.15" fill="none" stroke="#000000" stroke-linecap="round" stroke-linejoin="round" stroke-opacity="0.29803923" stroke-width="2.0"/>
    <path d="M-16.15 9.0 Q-17.65 9.75 -19.8 9.65 -21.95 9.55 -23.5 8.6 -25.05 7.75 -25.1 6.55 -25.15 5.35 -23.65 4.6 -22.15 3.95 -20.0 4.05 -17.85 4.15 -16.3 5.0 -14.7 5.95 -14.65 7.15 -14.6 8.35 -16.15 9.0" fill="#ffffff" fill-opacity="0.4" fill-rule="evenodd" stroke="none"/>
    <path d="M-42.1 -2.05 L-31.0 0.0 -14.15 0.7 Q-4.7 -0.25 2.65 -3.4 10.65 -6.85 14.15 -5.85 L23.75 -1.6 M-49.8 0.65 L-42.35 -2.4" fill="none" stroke="#000000" stroke-linecap="round" stroke-linejoin="round" stroke-opacity="0.29803923" stroke-width="2.0"/>
  </g>
</svg>
