<?xml version="1.0" encoding="UTF-8" standalone="no"?>
<svg xmlns:ffdec="https://www.free-decompiler.com/flash" xmlns:xlink="http://www.w3.org/1999/xlink" ffdec:objectType="shape" height="34.15px" width="101.55px" xmlns="http://www.w3.org/2000/svg">
  <g transform="matrix(1.0, 0.0, 0.0, 1.0, 63.55, 19.3)">
    <path d="M24.2 -18.3 L27.15 -18.0 Q30.5 -17.25 33.15 -14.6 35.45 -12.3 36.4 -9.5 37.0 -7.6 37.0 -5.5 37.0 -0.25 32.0 2.8 L28.85 4.55 22.3 7.85 Q19.25 9.2 10.55 10.8 L6.0 11.6 -1.8 12.75 -12.55 13.75 Q-23.65 14.3 -32.75 12.35 L-35.2 11.75 Q-45.75 9.0 -49.65 7.55 L-51.5 6.8 -52.35 6.25 -58.05 2.6 Q-62.55 -0.25 -62.55 -5.0 -62.55 -6.75 -62.1 -8.25 -61.2 -11.1 -58.7 -13.35 -54.85 -16.75 -49.25 -16.75 L-45.25 -16.2 -44.1 -15.8 -43.3 -15.6 -42.55 -15.35 Q-35.45 -13.4 -28.2 -12.5 L-12.85 -11.75 Q-4.65 -11.95 3.75 -13.45 10.95 -14.7 18.25 -16.9 L19.75 -17.5 22.45 -18.2 24.2 -18.3 M-44.1 -15.8 L-49.65 7.55 -44.1 -15.8 M-32.75 12.35 L-28.2 -12.5 -32.75 12.35 M-12.85 -11.75 Q-13.4 -5.85 -13.35 0.3 -13.3 6.9 -12.55 13.75 -13.3 6.9 -13.35 0.3 -13.4 -5.85 -12.85 -11.75 M10.55 10.8 L3.75 -13.45 10.55 10.8 M19.75 -17.5 L28.85 4.55 19.75 -17.5" fill="#ffffff" fill-rule="evenodd" stroke="none"/>
    <path d="M24.2 -18.3 L27.15 -18.0 Q30.5 -17.25 33.15 -14.6 35.45 -12.3 36.4 -9.5 37.0 -7.6 37.0 -5.5 37.0 -0.25 32.0 2.8 L28.85 4.55 22.3 7.85 Q19.25 9.2 10.55 10.8 L6.0 11.6 -1.8 12.75 -12.55 13.75 Q-23.65 14.3 -32.75 12.35 L-35.2 11.75 Q-45.75 9.0 -49.65 7.55 L-51.5 6.8 -52.35 6.25 -58.05 2.6 Q-62.55 -0.25 -62.55 -5.0 -62.55 -6.75 -62.1 -8.25 -61.2 -11.1 -58.7 -13.35 -54.85 -16.75 -49.25 -16.75 L-45.25 -16.2 -44.1 -15.8 -43.3 -15.6 -42.55 -15.35 Q-35.45 -13.4 -28.2 -12.5 L-12.85 -11.75 Q-4.65 -11.95 3.75 -13.45 10.95 -14.7 18.25 -16.9 L19.75 -17.5 22.45 -18.2 24.2 -18.3 M28.85 4.55 L19.75 -17.5 M3.75 -13.45 L10.55 10.8 M-12.55 13.75 Q-13.3 6.9 -13.35 0.3 -13.4 -5.85 -12.85 -11.75 M-28.2 -12.5 L-32.75 12.35 M-49.65 7.55 L-44.1 -15.8" fill="none" stroke="#000000" stroke-linecap="round" stroke-linejoin="round" stroke-opacity="0.49803922" stroke-width="2.0"/>
    <path d="M-61.7 -3.95 Q-66.4 -2.5 -35.3 5.15 -4.25 12.8 36.85 -3.4" fill="none" stroke="#000000" stroke-linecap="round" stroke-linejoin="round" stroke-opacity="0.49803922" stroke-width="2.0"/>
    <path d="M-20.9 5.1 L-23.35 4.9 Q-25.35 4.8 -25.2 2.8 L-25.0 -0.8 Q-24.85 -2.85 -22.85 -2.75 L-20.4 -2.55 Q-18.4 -2.45 -18.55 -0.4 L-18.75 3.2 Q-18.9 5.2 -20.9 5.1" fill="#999999" fill-rule="evenodd" stroke="none"/>
    <path d="M-20.9 5.1 Q-18.9 5.2 -18.75 3.2 L-18.55 -0.4 Q-18.4 -2.45 -20.4 -2.55 L-22.85 -2.75 Q-24.85 -2.85 -25.0 -0.8 L-25.2 2.8 Q-25.35 4.8 -23.35 4.9 L-20.9 5.1 Z" fill="none" stroke="#000000" stroke-linecap="round" stroke-linejoin="round" stroke-opacity="0.2" stroke-width="1.0"/>
    <path d="M-38.45 2.4 L-40.8 1.8 Q-42.75 1.25 -42.25 -0.7 L-41.3 -4.15 Q-40.75 -6.1 -38.8 -5.55 L-36.45 -4.95 Q-34.5 -4.4 -35.05 -2.45 L-36.0 1.0 Q-36.5 2.95 -38.45 2.4" fill="#999999" fill-rule="evenodd" stroke="none"/>
    <path d="M-38.45 2.4 Q-36.5 2.95 -36.0 1.0 L-35.05 -2.45 Q-34.5 -4.4 -36.45 -4.95 L-38.8 -5.55 Q-40.75 -6.1 -41.3 -4.15 L-42.25 -0.7 Q-42.75 1.25 -40.8 1.8 L-38.45 2.4 Z" fill="none" stroke="#000000" stroke-linecap="round" stroke-linejoin="round" stroke-opacity="0.2" stroke-width="1.0"/>
    <path d="M-54.1 -2.0 L-56.45 -2.75 Q-58.35 -3.35 -57.75 -5.3 L-56.7 -8.75 Q-56.1 -10.65 -54.2 -10.05 L-51.85 -9.3 Q-49.95 -8.7 -50.55 -6.8 L-51.6 -3.35 Q-52.2 -1.4 -54.1 -2.0" fill="#999999" fill-rule="evenodd" stroke="none"/>
    <path d="M-54.1 -2.0 Q-52.2 -1.4 -51.6 -3.35 L-50.55 -6.8 Q-49.95 -8.7 -51.85 -9.3 L-54.2 -10.05 Q-56.1 -10.65 -56.7 -8.75 L-57.75 -5.3 Q-58.35 -3.35 -56.45 -2.75 L-54.1 -2.0 Z" fill="none" stroke="#000000" stroke-linecap="round" stroke-linejoin="round" stroke-opacity="0.2" stroke-width="1.0"/>
    <path d="M-2.45 4.7 L-4.9 4.8 Q-6.9 4.9 -7.0 2.9 L-7.15 -0.7 Q-7.2 -2.75 -5.2 -2.85 L-2.75 -2.95 Q-0.75 -3.0 -0.7 -0.95 L-0.55 2.65 Q-0.45 4.65 -2.45 4.7" fill="#999999" fill-rule="evenodd" stroke="none"/>
    <path d="M-2.45 4.7 Q-0.45 4.65 -0.55 2.65 L-0.7 -0.95 Q-0.75 -3.0 -2.75 -2.95 L-5.2 -2.85 Q-7.2 -2.75 -7.15 -0.7 L-7.0 2.9 Q-6.9 4.9 -4.9 4.8 L-2.45 4.7 Z" fill="none" stroke="#000000" stroke-linecap="round" stroke-linejoin="round" stroke-opacity="0.2" stroke-width="1.0"/>
    <path d="M17.2 0.35 L14.9 1.15 Q13.0 1.75 12.35 -0.15 L11.25 -3.55 Q10.6 -5.45 12.5 -6.05 L14.8 -6.85 Q16.75 -7.45 17.4 -5.55 L18.5 -2.15 Q19.15 -0.25 17.2 0.35" fill="#999999" fill-rule="evenodd" stroke="none"/>
    <path d="M17.2 0.35 Q19.15 -0.25 18.5 -2.15 L17.4 -5.55 Q16.75 -7.45 14.8 -6.85 L12.5 -6.05 Q10.6 -5.45 11.25 -3.55 L12.35 -0.15 Q13.0 1.75 14.9 1.15 L17.2 0.35 Z" fill="none" stroke="#000000" stroke-linecap="round" stroke-linejoin="round" stroke-opacity="0.2" stroke-width="1.0"/>
    <path d="M32.2 -4.65 L29.9 -3.85 Q28.0 -3.25 27.35 -5.15 L26.25 -8.55 Q25.6 -10.45 27.5 -11.05 L29.8 -11.85 Q31.75 -12.45 32.4 -10.55 L33.5 -7.15 Q34.15 -5.25 32.2 -4.65" fill="#999999" fill-rule="evenodd" stroke="none"/>
    <path d="M32.2 -4.65 Q34.15 -5.25 33.5 -7.15 L32.4 -10.55 Q31.75 -12.45 29.8 -11.85 L27.5 -11.05 Q25.6 -10.45 26.25 -8.55 L27.35 -5.15 Q28.0 -3.25 29.9 -3.85 L32.2 -4.65 Z" fill="none" stroke="#000000" stroke-linecap="round" stroke-linejoin="round" stroke-opacity="0.2" stroke-width="1.0"/>
    <path d="M-61.95 -11.35 Q-66.65 -9.9 -35.35 -1.0 -4.1 7.9 36.6 -10.8" fill="none" stroke="#000000" stroke-linecap="round" stroke-linejoin="round" stroke-opacity="0.2" stroke-width="1.0"/>
  </g>
</svg>
