<?xml version="1.0" encoding="UTF-8" standalone="no"?>
<svg xmlns:ffdec="https://www.free-decompiler.com/flash" xmlns:xlink="http://www.w3.org/1999/xlink" ffdec:objectType="shape" height="18.75px" width="74.9px" xmlns="http://www.w3.org/2000/svg">
  <g transform="matrix(1.0, 0.0, 0.0, 1.0, 49.25, 8.1)">
    <path d="M24.65 -5.6 L17.35 -6.7 7.2 -6.4 Q3.15 -4.2 0.15 -3.35 -4.6 -2.0 -7.9 -3.45 -12.65 -5.55 -17.6 -4.65 L-27.0 -2.25 -30.35 -2.15 -36.05 -3.6 -43.8 -4.15 Q-46.45 -3.75 -48.25 -1.6" fill="none" stroke="#000000" stroke-linecap="round" stroke-linejoin="miter-clip" stroke-miterlimit="4.0" stroke-opacity="0.49803922" stroke-width="2.0"/>
    <path d="M-27.25 -1.9 L-39.35 -2.7 Q-37.85 6.65 -32.05 9.65 -31.7 3.0 -27.25 -1.9" fill="#ffffff" fill-rule="evenodd" stroke="none"/>
    <path d="M-27.25 -1.9 Q-31.7 3.0 -32.05 9.65 -37.85 6.65 -39.35 -2.7" fill="none" stroke="#000000" stroke-linecap="round" stroke-linejoin="round" stroke-opacity="0.4" stroke-width="2.0"/>
    <path d="M12.0 -5.7 Q11.05 5.9 7.25 8.65 4.95 2.25 0.45 -2.65 5.75 -4.8 12.0 -5.7" fill="#ffffff" fill-rule="evenodd" stroke="none"/>
    <path d="M0.45 -2.65 Q4.95 2.25 7.25 8.65 11.05 5.9 12.0 -5.7" fill="none" stroke="#000000" stroke-linecap="round" stroke-linejoin="round" stroke-opacity="0.4" stroke-width="2.0"/>
  </g>
</svg>
