<?xml version="1.0" encoding="UTF-8" standalone="no"?>
<svg xmlns:ffdec="https://www.free-decompiler.com/flash" xmlns:xlink="http://www.w3.org/1999/xlink" ffdec:objectType="shape" height="26.15px" width="60.75px" xmlns="http://www.w3.org/2000/svg">
  <g transform="matrix(1.0, 0.0, 0.0, 1.0, 46.85, 16.2)">
    <path d="M-34.0 1.2 Q-34.1 -0.4 -37.55 -0.5 L-39.55 -2.6 Q-38.6 -11.65 -33.25 -12.75 -27.9 -14.0 -24.45 -12.65 -21.1 -11.45 -13.65 -14.1 -6.25 -16.8 -0.25 -12.75 5.7 -8.8 5.7 -5.05 L5.4 -2.1 Q4.75 -1.0 1.7 3.15 0.45 7.4 -11.15 8.65 -22.9 9.85 -28.45 6.35 -34.0 2.8 -34.0 1.2" fill="#bb0452" fill-opacity="0.33333334" fill-rule="evenodd" stroke="none"/>
    <path d="M-34.0 1.2 Q-34.0 2.8 -28.45 6.35 -22.9 9.85 -11.15 8.65 0.45 7.4 1.7 3.15 4.75 -1.0 5.4 -2.1 L5.7 -5.05 Q5.7 -8.8 -0.25 -12.75 -6.25 -16.8 -13.65 -14.1 -21.1 -11.45 -24.45 -12.65 -27.9 -14.0 -33.25 -12.75 -38.6 -11.65 -39.55 -2.6 L-37.55 -0.5 Q-34.1 -0.4 -34.0 1.2 Z" fill="none" stroke="#000000" stroke-linecap="round" stroke-linejoin="round" stroke-opacity="0.2" stroke-width="2.0"/>
    <path d="M-16.1 2.3 Q-17.5 3.4 -19.65 3.55 -21.85 3.65 -23.55 2.75 -25.3 1.95 -25.55 0.55 -25.8 -0.85 -24.35 -1.95 -22.95 -3.0 -20.75 -3.1 -18.6 -3.25 -16.9 -2.4 -15.15 -1.5 -14.9 -0.1 -14.65 1.3 -16.1 2.3" fill="#ffffff" fill-opacity="0.4" fill-rule="evenodd" stroke="none"/>
    <path d="M-36.45 -0.75 Q-33.45 6.5 -28.8 7.45 -29.95 1.95 -27.95 -3.1 L-36.45 -0.75" fill="#ffffff" fill-rule="evenodd" stroke="none"/>
    <path d="M-27.95 -3.1 Q-29.95 1.95 -28.8 7.45 -33.45 6.5 -36.45 -0.75" fill="none" stroke="#000000" stroke-linecap="round" stroke-linejoin="round" stroke-opacity="0.4" stroke-width="2.0"/>
    <path d="M-4.9 -3.1 Q-0.6 -3.1 4.0 -1.85 0.2 7.35 -3.25 8.3 -3.1 2.35 -4.9 -3.1" fill="#ffffff" fill-rule="evenodd" stroke="none"/>
    <path d="M-4.9 -3.1 Q-3.1 2.35 -3.25 8.3 0.2 7.35 4.0 -1.85" fill="none" stroke="#000000" stroke-linecap="round" stroke-linejoin="round" stroke-opacity="0.4" stroke-width="2.0"/>
    <path d="M12.9 -2.7 Q-0.85 -3.0 -8.4 -5.3 -15.95 -7.6 -22.35 -5.75 -28.8 -3.85 -28.8 -3.55 -28.8 -3.35 -34.65 -1.35 -41.25 0.75 -45.85 0.6" fill="none" stroke="#333333" stroke-linecap="round" stroke-linejoin="miter-clip" stroke-miterlimit="4.0" stroke-opacity="0.4" stroke-width="2.0"/>
  </g>
</svg>
