<?xml version="1.0" encoding="UTF-8" standalone="no"?>
<svg xmlns:ffdec="https://www.free-decompiler.com/flash" xmlns:xlink="http://www.w3.org/1999/xlink" ffdec:objectType="shape" height="26.15px" width="60.75px" xmlns="http://www.w3.org/2000/svg">
  <g transform="matrix(1.0, 0.0, 0.0, 1.0, 46.35, 13.2)">
    <path d="M-27.95 9.35 Q-33.5 5.8 -33.5 4.2 -33.6 2.6 -37.05 2.5 L-39.05 0.4 Q-38.1 -8.65 -32.75 -9.75 -27.4 -11.0 -23.95 -9.65 -20.6 -8.45 -13.15 -11.1 -5.75 -13.8 0.25 -9.75 6.2 -5.8 6.2 -2.05 L5.9 0.9 2.2 6.15 Q0.95 10.4 -10.65 11.65 -22.4 12.85 -27.95 9.35" fill="#9d0221" fill-opacity="0.69411767" fill-rule="evenodd" stroke="none"/>
    <path d="M-27.95 9.35 Q-22.4 12.85 -10.65 11.65 0.95 10.4 2.2 6.15 L5.9 0.9 6.2 -2.05 Q6.2 -5.8 0.25 -9.75 -5.75 -13.8 -13.15 -11.1 -20.6 -8.45 -23.95 -9.65 -27.4 -11.0 -32.75 -9.75 -38.1 -8.65 -39.05 0.4 L-37.05 2.5 Q-33.6 2.6 -33.5 4.2 -33.5 5.8 -27.95 9.35 Z" fill="none" stroke="#000000" stroke-linecap="round" stroke-linejoin="round" stroke-opacity="0.2" stroke-width="2.0"/>
    <path d="M-15.6 5.3 Q-17.0 6.4 -19.15 6.55 -21.35 6.65 -23.05 5.75 -24.8 4.95 -25.05 3.55 -25.3 2.15 -23.85 1.05 -22.45 0.0 -20.25 -0.1 -18.1 -0.25 -16.4 0.6 -14.65 1.5 -14.4 2.9 -14.15 4.3 -15.6 5.3" fill="#ffffff" fill-opacity="0.4" fill-rule="evenodd" stroke="none"/>
    <path d="M-27.45 -0.1 L-35.95 2.25 Q-32.95 9.5 -28.3 10.45 -29.45 4.95 -27.45 -0.1" fill="#ffffff" fill-rule="evenodd" stroke="none"/>
    <path d="M-27.45 -0.1 Q-29.45 4.95 -28.3 10.45 -32.95 9.5 -35.95 2.25" fill="none" stroke="#000000" stroke-linecap="round" stroke-linejoin="round" stroke-opacity="0.4" stroke-width="2.0"/>
    <path d="M4.5 1.15 Q0.7 10.35 -2.75 11.3 -2.6 5.35 -4.4 -0.1 -0.1 -0.1 4.5 1.15" fill="#ffffff" fill-rule="evenodd" stroke="none"/>
    <path d="M-4.4 -0.1 Q-2.6 5.35 -2.75 11.3 0.7 10.35 4.5 1.15" fill="none" stroke="#000000" stroke-linecap="round" stroke-linejoin="round" stroke-opacity="0.4" stroke-width="2.0"/>
    <path d="M13.4 0.3 Q-0.35 0.0 -7.9 -2.3 -15.45 -4.6 -21.85 -2.75 -28.3 -0.85 -28.3 -0.55 -28.3 -0.35 -34.15 1.65 -40.75 3.75 -45.35 3.6" fill="none" stroke="#333333" stroke-linecap="round" stroke-linejoin="miter-clip" stroke-miterlimit="4.0" stroke-opacity="0.4" stroke-width="2.0"/>
  </g>
</svg>
