<?xml version="1.0" encoding="UTF-8" standalone="no"?>
<svg xmlns:ffdec="https://www.free-decompiler.com/flash" xmlns:xlink="http://www.w3.org/1999/xlink" ffdec:objectType="shape" height="26.15px" width="60.75px" xmlns="http://www.w3.org/2000/svg">
  <g transform="matrix(1.0, 0.0, 0.0, 1.0, 46.6, 13.45)">
    <path d="M-10.9 11.4 Q-22.65 12.6 -28.2 9.1 -33.75 5.55 -33.75 3.95 -33.85 2.35 -37.3 2.25 L-39.3 0.15 Q-38.35 -8.9 -33.0 -10.0 -27.65 -11.25 -24.2 -9.9 -20.85 -8.7 -13.4 -11.35 -6.0 -14.05 0.0 -10.0 5.95 -6.05 5.95 -2.3 L5.65 0.65 1.95 5.9 Q0.7 10.15 -10.9 11.4" fill="#760118" fill-opacity="0.9019608" fill-rule="evenodd" stroke="none"/>
    <path d="M-10.9 11.4 Q0.7 10.15 1.95 5.9 L5.65 0.65 5.95 -2.3 Q5.95 -6.05 0.0 -10.0 -6.0 -14.05 -13.4 -11.35 -20.85 -8.7 -24.2 -9.9 -27.65 -11.25 -33.0 -10.0 -38.35 -8.9 -39.3 0.15 L-37.3 2.25 Q-33.85 2.35 -33.75 3.95 -33.75 5.55 -28.2 9.1 -22.65 12.6 -10.9 11.4 Z" fill="none" stroke="#000000" stroke-linecap="round" stroke-linejoin="round" stroke-opacity="0.2" stroke-width="2.0"/>
    <path d="M-15.85 5.05 Q-17.25 6.15 -19.4 6.3 -21.6 6.4 -23.3 5.5 -25.05 4.7 -25.3 3.3 -25.55 1.9 -24.1 0.8 -22.7 -0.25 -20.5 -0.35 -18.35 -0.5 -16.65 0.35 -14.9 1.25 -14.65 2.65 -14.4 4.05 -15.85 5.05" fill="#ffffff" fill-opacity="0.4" fill-rule="evenodd" stroke="none"/>
    <path d="M-36.2 2.0 Q-33.2 9.25 -28.55 10.2 -29.7 4.7 -27.7 -0.35 L-36.2 2.0" fill="#ffffff" fill-rule="evenodd" stroke="none"/>
    <path d="M-27.7 -0.35 Q-29.7 4.7 -28.55 10.2 -33.2 9.25 -36.2 2.0" fill="none" stroke="#000000" stroke-linecap="round" stroke-linejoin="round" stroke-opacity="0.4" stroke-width="2.0"/>
    <path d="M-4.65 -0.35 Q-0.35 -0.35 4.25 0.9 0.45 10.1 -3.0 11.05 -2.85 5.1 -4.65 -0.35" fill="#ffffff" fill-rule="evenodd" stroke="none"/>
    <path d="M-4.65 -0.35 Q-2.85 5.1 -3.0 11.05 0.45 10.1 4.25 0.9" fill="none" stroke="#000000" stroke-linecap="round" stroke-linejoin="round" stroke-opacity="0.4" stroke-width="2.0"/>
    <path d="M13.15 0.05 Q-0.6 -0.25 -8.15 -2.55 -15.7 -4.85 -22.1 -3.0 -28.55 -1.1 -28.55 -0.8 -28.55 -0.6 -34.4 1.4 -41.0 3.5 -45.6 3.35" fill="none" stroke="#333333" stroke-linecap="round" stroke-linejoin="miter-clip" stroke-miterlimit="4.0" stroke-opacity="0.4" stroke-width="2.0"/>
  </g>
</svg>
