<?xml version="1.0" encoding="UTF-8" standalone="no"?>
<svg xmlns:ffdec="https://www.free-decompiler.com/flash" xmlns:xlink="http://www.w3.org/1999/xlink" ffdec:objectType="shape" height="46.45px" width="102.1px" xmlns="http://www.w3.org/2000/svg">
  <g transform="matrix(1.0, 0.0, 0.0, 1.0, 63.8, 20.6)">
    <path d="M-43.5 11.15 L-45.0 11.75 Q-46.25 12.3 -47.7 12.45 L-49.45 12.55 -52.4 12.25 Q-55.75 11.5 -58.4 8.85 -60.7 6.55 -61.65 3.75 -62.25 1.85 -62.25 -0.25 -62.25 -5.5 -57.25 -8.55 L-54.1 -10.3 -47.55 -13.6 Q-44.5 -14.95 -35.8 -16.55 L-31.25 -17.35 -23.45 -18.5 -12.7 -19.5 Q-1.6 -20.05 7.5 -18.1 L9.95 -17.5 Q20.5 -14.75 24.4 -13.3 L26.25 -12.55 27.1 -12.0 32.8 -8.35 Q37.3 -5.5 37.3 -0.75 L36.85 2.5 Q35.95 5.35 33.45 7.6 29.6 11.0 24.0 11.0 L20.0 10.45 18.85 10.05 18.05 9.85 17.3 9.6 Q10.2 7.65 2.95 6.75 L-12.4 6.0 Q-20.6 6.2 -29.0 7.7 -36.2 8.95 -43.5 11.15 M-11.9 -6.05 Q-11.85 0.1 -12.4 6.0 -11.85 0.1 -11.9 -6.05 L-12.55 -6.05 Q-22.65 -6.05 -32.5 -4.5 L-29.0 7.7 -32.5 -4.5 Q-22.65 -6.05 -12.55 -6.05 L-11.9 -6.05 Q-11.95 -12.65 -12.7 -19.5 -11.95 -12.65 -11.9 -6.05 L5.1 -5.0 7.5 -18.1 5.1 -5.0 -11.9 -6.05 M24.4 -13.3 L21.6 -1.9 Q29.2 -0.1 36.85 2.5 29.2 -0.1 21.6 -1.9 L24.4 -13.3 M2.95 6.75 L5.1 -5.0 Q13.3 -3.9 21.6 -1.9 L18.85 10.05 21.6 -1.9 Q13.3 -3.9 5.1 -5.0 L2.95 6.75 M-35.8 -16.55 L-32.5 -4.5 Q-41.3 -3.1 -50.0 -0.45 L-45.0 11.75 -50.0 -0.45 Q-41.3 -3.1 -32.5 -4.5 L-35.8 -16.55 M-54.1 -10.3 L-50.0 -0.45 -59.2 2.75 -61.65 3.75 -59.2 2.75 -50.0 -0.45 -54.1 -10.3" fill="#ffffff" fill-rule="evenodd" stroke="none"/>
    <path d="M-43.5 11.15 L-45.0 11.75 Q-46.25 12.3 -47.7 12.45 L-49.45 12.55 -52.4 12.25 Q-55.75 11.5 -58.4 8.85 -60.7 6.55 -61.65 3.75 -62.25 1.85 -62.25 -0.25 -62.25 -5.5 -57.25 -8.55 L-54.1 -10.3 -47.55 -13.6 Q-44.5 -14.95 -35.8 -16.55 L-31.25 -17.35 -23.45 -18.5 -12.7 -19.5 Q-1.6 -20.05 7.5 -18.1 L9.95 -17.5 Q20.5 -14.75 24.4 -13.3 L26.25 -12.55 27.1 -12.0 32.8 -8.35 Q37.3 -5.5 37.3 -0.75 L36.85 2.5 Q35.95 5.35 33.45 7.6 29.6 11.0 24.0 11.0 L20.0 10.45 18.85 10.05 18.05 9.85 17.3 9.6 Q10.2 7.65 2.95 6.75 L-12.4 6.0 Q-20.6 6.2 -29.0 7.7 -36.2 8.95 -43.5 11.15 M-61.65 3.75 L-59.2 2.75 -50.0 -0.45 -54.1 -10.3 M-45.0 11.75 L-50.0 -0.45 Q-41.3 -3.1 -32.5 -4.5 L-35.8 -16.55 M-29.0 7.7 L-32.5 -4.5 Q-22.65 -6.05 -12.55 -6.05 L-11.9 -6.05 Q-11.95 -12.65 -12.7 -19.5 M18.85 10.05 L21.6 -1.9 Q13.3 -3.9 5.1 -5.0 L2.95 6.75 M36.85 2.5 Q29.2 -0.1 21.6 -1.9 L24.4 -13.3 M-11.9 -6.05 L5.1 -5.0 7.5 -18.1 M-12.4 6.0 Q-11.85 0.1 -11.9 -6.05" fill="none" stroke="#000000" stroke-linecap="round" stroke-linejoin="round" stroke-opacity="0.49803922" stroke-width="2.0"/>
    <path d="M-36.35 -16.55 L-31.8 -17.35 -24.0 -18.5 -13.25 -19.5 Q-2.15 -20.05 6.95 -18.1 L9.4 -17.5 Q19.95 -14.75 23.85 -13.3 L25.7 -12.55 26.55 -12.0 32.25 -8.35 Q36.75 -5.5 36.75 -0.75 36.75 1.0 36.3 2.5 35.4 5.35 32.9 7.6 29.05 11.0 23.45 11.0 L19.45 10.45 18.3 10.05 17.5 9.85 16.75 9.6 Q9.65 7.65 2.4 6.75 L-12.95 6.0 Q-21.15 6.2 -29.55 7.7 -36.75 8.95 -44.05 11.15 -44.75 11.55 -45.55 11.75 L-48.25 12.45 -50.0 12.55 -52.95 12.25 Q-56.3 11.5 -58.95 8.85 -61.25 6.55 -62.2 3.75 -62.8 1.85 -62.8 -0.25 -62.8 -5.5 -57.8 -8.55 L-54.65 -10.3 Q-51.3 -12.15 -48.1 -13.6 -45.05 -14.95 -36.35 -16.55 Z" fill="none" stroke="#000000" stroke-linecap="round" stroke-linejoin="round" stroke-opacity="0.29803923" stroke-width="2.0"/>
    <path d="M7.05 23.7 Q-12.4 27.7 -31.45 24.2 -33.7 15.9 -31.45 8.65 -14.05 5.45 6.05 8.15 5.25 15.5 7.05 23.7" fill="#e2e1db" fill-opacity="0.69411767" fill-rule="evenodd" stroke="none"/>
  </g>
</svg>
