<?xml version="1.0" encoding="UTF-8" standalone="no"?>
<svg xmlns:ffdec="https://www.free-decompiler.com/flash" xmlns:xlink="http://www.w3.org/1999/xlink" ffdec:objectType="shape" height="19.5px" width="41.75px" xmlns="http://www.w3.org/2000/svg">
  <g transform="matrix(1.0, 0.0, 0.0, 1.0, 37.85, 5.6)">
    <path d="M-18.15 -1.35 Q-12.25 -5.95 -6.15 -4.0 L-1.6 -2.2 Q0.95 -1.25 2.9 -1.65 2.05 0.4 0.1 2.55 L-4.3 7.05 Q-9.55 12.65 -17.35 12.9 -25.2 13.05 -30.15 7.7 L-34.35 3.3 Q-36.15 1.15 -36.85 -1.0 L-33.95 -2.3 Q-30.6 -3.8 -28.05 -3.6 L-21.55 -2.2 Q-18.35 -1.2 -18.15 -1.35" fill="#ffcccc" fill-rule="evenodd" stroke="none"/>
    <path d="M-18.15 -1.35 Q-18.35 -1.2 -21.55 -2.2 L-28.05 -3.6 Q-30.6 -3.8 -33.95 -2.3 L-36.85 -1.0 Q-36.15 1.15 -34.35 3.3 L-30.15 7.7 Q-25.2 13.05 -17.35 12.9 -9.55 12.65 -4.3 7.05 L0.1 2.55 Q2.05 0.4 2.9 -1.65 0.95 -1.25 -1.6 -2.2 L-6.15 -4.0 Q-12.25 -5.95 -18.15 -1.35 Z" fill="none" stroke="#000000" stroke-linecap="round" stroke-linejoin="round" stroke-opacity="0.2509804" stroke-width="2.0"/>
    <path d="M2.15 -1.3 Q-1.8 1.6 -7.1 2.75 L-17.75 3.7 -28.25 3.35 Q-33.3 2.5 -36.65 -0.3" fill="none" stroke="#000000" stroke-linecap="round" stroke-linejoin="round" stroke-opacity="0.4" stroke-width="2.0"/>
    <path d="M-18.9 5.75 Q-16.7 5.75 -15.2 6.35 -13.65 7.0 -13.65 7.9 -13.65 8.8 -15.2 9.4 L-18.9 10.05 -22.65 9.4 Q-24.15 8.8 -24.15 7.9 -24.15 7.0 -22.65 6.35 -21.1 5.75 -18.9 5.75" fill="#ffffff" fill-opacity="0.5372549" fill-rule="evenodd" stroke="none"/>
  </g>
</svg>
