<?xml version="1.0" encoding="UTF-8" standalone="no"?>
<svg xmlns:ffdec="https://www.free-decompiler.com/flash" xmlns:xlink="http://www.w3.org/1999/xlink" ffdec:objectType="shape" height="17.05px" width="94.75px" xmlns="http://www.w3.org/2000/svg">
  <g transform="matrix(1.0, 0.0, 0.0, 1.0, 60.0, 9.25)">
    <path d="M11.0 -6.6 L24.4 -5.35 Q24.7 0.15 22.7 5.7 16.6 6.25 10.5 4.3 9.8 -1.15 11.0 -6.6 M3.55 -7.6 Q3.85 -0.55 1.9 6.55 L-11.5 6.1 Q-12.65 -1.05 -11.95 -8.2 L3.55 -7.6 M-33.05 -7.6 L-18.6 -8.25 Q-17.85 -1.5 -19.0 6.1 -25.9 7.05 -32.3 6.1 -33.55 -0.95 -33.05 -7.6 M-52.85 -5.0 L-40.25 -6.45 Q-39.75 -1.85 -40.25 4.15 -45.55 5.3 -50.9 4.9 -52.8 -0.25 -52.85 -5.0" fill="#ffffff" fill-rule="evenodd" stroke="none"/>
    <path d="M11.0 -6.6 Q9.8 -1.15 10.5 4.3 16.6 6.25 22.7 5.7 24.7 0.15 24.4 -5.35 M-11.95 -8.2 Q-12.65 -1.05 -11.5 6.1 L1.9 6.55 Q3.85 -0.55 3.55 -7.6 M-18.6 -8.25 Q-17.85 -1.5 -19.0 6.1 -25.9 7.05 -32.3 6.1 -33.55 -0.95 -33.05 -7.6 M-52.85 -5.0 Q-52.8 -0.25 -50.9 4.9 -45.55 5.3 -40.25 4.15 -39.75 -1.85 -40.25 -6.45" fill="none" stroke="#000000" stroke-linecap="round" stroke-linejoin="round" stroke-opacity="0.49803922" stroke-width="2.0"/>
    <path d="M33.75 -4.8 Q6.7 -8.2 -12.35 -8.2 L-43.0 -6.65 -59.0 -4.2" fill="none" stroke="#000000" stroke-linecap="round" stroke-linejoin="round" stroke-opacity="0.49803922" stroke-width="2.0"/>
  </g>
</svg>
