<?xml version="1.0" encoding="UTF-8" standalone="no"?>
<svg xmlns:ffdec="https://www.free-decompiler.com/flash" xmlns:xlink="http://www.w3.org/1999/xlink" ffdec:objectType="shape" height="19.5px" width="42.05px" xmlns="http://www.w3.org/2000/svg">
  <g transform="matrix(1.0, 0.0, 0.0, 1.0, 39.7, 9.85)">
    <path d="M-19.85 -5.6 Q-13.9 -10.2 -7.8 -8.25 L-3.2 -6.45 Q-0.6 -5.5 1.35 -5.9 0.5 -3.85 -1.45 -1.7 L-5.9 2.8 Q-11.15 8.4 -19.05 8.65 -27.0 8.8 -31.95 3.45 L-36.15 -0.95 Q-37.95 -3.1 -38.7 -5.25 L-35.8 -6.55 Q-32.4 -8.05 -29.8 -7.85 L-23.25 -6.45 Q-20.05 -5.45 -19.85 -5.6" fill="#b70000" fill-rule="evenodd" stroke="none"/>
    <path d="M-19.85 -5.6 Q-20.05 -5.45 -23.25 -6.45 L-29.8 -7.85 Q-32.4 -8.05 -35.8 -6.55 L-38.7 -5.25 Q-37.95 -3.1 -36.15 -0.95 L-31.95 3.45 Q-27.0 8.8 -19.05 8.65 -11.15 8.4 -5.9 2.8 L-1.45 -1.7 Q0.5 -3.85 1.35 -5.9 -0.6 -5.5 -3.2 -6.45 L-7.8 -8.25 Q-13.9 -10.2 -19.85 -5.6 Z" fill="none" stroke="#000000" stroke-linecap="round" stroke-linejoin="round" stroke-opacity="0.2509804" stroke-width="2.0"/>
    <path d="M0.6 -5.55 Q-3.4 -2.65 -8.7 -1.5 L-19.45 -0.55 -30.0 -0.9 Q-35.15 -1.75 -38.45 -4.55" fill="none" stroke="#000000" stroke-linecap="round" stroke-linejoin="round" stroke-opacity="0.4" stroke-width="2.0"/>
    <path d="M-20.6 1.5 Q-18.4 1.5 -16.9 2.1 -15.3 2.75 -15.3 3.65 -15.3 4.55 -16.9 5.15 -18.4 5.8 -20.6 5.8 -22.8 5.8 -24.4 5.15 -25.9 4.55 -25.9 3.65 -25.9 2.75 -24.4 2.1 -22.8 1.5 -20.6 1.5" fill="#ffffff" fill-opacity="0.5372549" fill-rule="evenodd" stroke="none"/>
    <path d="M-35.75 -1.75 Q-34.7 4.25 -30.9 6.2 -30.75 2.0 -27.95 -1.0 L-35.75 -1.75" fill="#ffffff" fill-rule="evenodd" stroke="none"/>
    <path d="M-27.95 -1.0 Q-30.75 2.0 -30.9 6.2 -34.7 4.25 -35.75 -1.75" fill="none" stroke="#000000" stroke-linecap="round" stroke-linejoin="round" stroke-opacity="0.4" stroke-width="2.0"/>
    <path d="M-10.6 -0.55 Q-7.15 -2.25 -3.1 -3.15 -3.55 4.55 -6.0 6.5 -7.65 2.4 -10.6 -0.55" fill="#ffffff" fill-rule="evenodd" stroke="none"/>
    <path d="M-10.6 -0.55 Q-7.65 2.4 -6.0 6.5 -3.55 4.55 -3.1 -3.15" fill="none" stroke="#000000" stroke-linecap="round" stroke-linejoin="round" stroke-opacity="0.4" stroke-width="2.0"/>
  </g>
</svg>
