<?xml version="1.0" encoding="UTF-8" standalone="no"?>
<svg xmlns:ffdec="https://www.free-decompiler.com/flash" xmlns:xlink="http://www.w3.org/1999/xlink" ffdec:objectType="shape" height="22.1px" width="43.05px" xmlns="http://www.w3.org/2000/svg">
  <g transform="matrix(1.0, 0.0, 0.0, 1.0, 38.45, 9.85)">
    <path d="M1.1 1.0 Q-0.75 4.35 -4.2 7.4 -7.75 10.45 -16.35 11.1 -24.95 11.75 -29.15 9.2 -33.3 6.65 -35.5 2.45 -37.75 -0.9 -37.4 -3.15 L-32.45 -5.9 Q-29.15 -7.85 -26.6 -7.55 -24.15 -7.25 -20.3 -5.75 -17.2 -4.45 -17.0 -4.7 -11.2 -10.65 -5.3 -8.1 -2.25 -6.4 -0.85 -5.75 1.65 -4.5 3.6 -5.05 2.9 -2.35 1.1 1.0" fill="#b70000" fill-rule="evenodd" stroke="none"/>
    <path d="M1.1 1.0 Q2.9 -2.35 3.6 -5.05 1.65 -4.5 -0.85 -5.75 -2.25 -6.4 -5.3 -8.1 -11.2 -10.65 -17.0 -4.7 -17.2 -4.45 -20.3 -5.75 -24.15 -7.25 -26.6 -7.55 -29.15 -7.85 -32.45 -5.9 L-37.4 -3.15 Q-37.75 -0.9 -35.5 2.45 -33.3 6.65 -29.15 9.2 -24.95 11.75 -16.35 11.1 -7.75 10.45 -4.2 7.4 -0.75 4.35 1.1 1.0 Z" fill="none" stroke="#000000" stroke-linecap="round" stroke-linejoin="round" stroke-opacity="0.2509804" stroke-width="2.0"/>
    <path d="M2.9 -4.55 Q-1.0 -2.35 -6.0 -0.45 -11.1 1.4 -17.75 1.55 L-28.05 0.8 Q-31.8 -0.05 -37.15 -3.0" fill="none" stroke="#000000" stroke-linecap="round" stroke-linejoin="round" stroke-opacity="0.4" stroke-width="2.0"/>
    <path d="M-17.7 3.1 Q-15.55 3.1 -14.1 3.9 -12.55 4.7 -12.55 5.9 -12.55 7.05 -14.1 7.8 -15.55 8.65 -17.7 8.65 -19.85 8.65 -21.35 7.8 -22.85 7.05 -22.85 5.9 -22.85 4.7 -21.35 3.9 -19.85 3.1 -17.7 3.1" fill="#ffffff" fill-opacity="0.5372549" fill-rule="evenodd" stroke="none"/>
  </g>
</svg>
