<?xml version="1.0" encoding="UTF-8" standalone="no"?>
<svg xmlns:ffdec="https://www.free-decompiler.com/flash" xmlns:xlink="http://www.w3.org/1999/xlink" ffdec:objectType="shape" height="18.3px" width="44.75px" xmlns="http://www.w3.org/2000/svg">
  <g transform="matrix(1.0, 0.0, 0.0, 1.0, 40.65, 9.35)">
    <path d="M0.45 -0.35 Q-1.45 2.4 -5.05 4.85 -8.75 7.35 -17.7 7.85 -26.65 8.4 -31.0 6.3 -35.4 4.25 -37.65 0.85 -40.0 -1.9 -39.6 -3.7 L-34.5 -5.95 Q-31.0 -7.55 -28.4 -7.3 -25.85 -7.05 -21.8 -5.85 -18.55 -4.8 -18.35 -5.0 -12.3 -9.8 -6.15 -7.75 L-1.55 -5.85 Q1.1 -4.8 3.1 -5.25 2.35 -3.05 0.45 -0.35" fill="#b70000" fill-rule="evenodd" stroke="none"/>
    <path d="M0.45 -0.35 Q2.35 -3.05 3.1 -5.25 1.1 -4.8 -1.55 -5.85 L-6.15 -7.75 Q-12.3 -9.8 -18.35 -5.0 -18.55 -4.8 -21.8 -5.85 -25.85 -7.05 -28.4 -7.3 -31.0 -7.55 -34.5 -5.95 L-39.6 -3.7 Q-40.0 -1.9 -37.65 0.85 -35.4 4.25 -31.0 6.3 -26.65 8.4 -17.7 7.85 -8.75 7.35 -5.05 4.85 -1.45 2.4 0.45 -0.35 Z" fill="none" stroke="#000000" stroke-linecap="round" stroke-linejoin="round" stroke-opacity="0.2509804" stroke-width="2.0"/>
    <path d="M2.35 -4.8 Q-1.7 -3.0 -6.95 -1.5 -12.2 0.05 -19.15 0.15 L-29.9 -0.45 Q-33.8 -1.15 -39.35 -3.55" fill="none" stroke="#000000" stroke-linecap="round" stroke-linejoin="round" stroke-opacity="0.4" stroke-width="2.0"/>
    <path d="M-19.15 1.35 Q-16.9 1.35 -15.35 2.0 -13.75 2.65 -13.75 3.6 -13.75 4.55 -15.35 5.2 -16.9 5.85 -19.15 5.85 L-22.95 5.2 Q-24.5 4.55 -24.5 3.6 -24.5 2.65 -22.95 2.0 -21.35 1.35 -19.15 1.35" fill="#ffffff" fill-opacity="0.5372549" fill-rule="evenodd" stroke="none"/>
  </g>
</svg>
