<?xml version="1.0" encoding="UTF-8" standalone="no"?>
<svg xmlns:ffdec="https://www.free-decompiler.com/flash" xmlns:xlink="http://www.w3.org/1999/xlink" ffdec:objectType="shape" height="19.5px" width="40.3px" xmlns="http://www.w3.org/2000/svg">
  <g transform="matrix(1.0, 0.0, 0.0, 1.0, 37.45, 8.6)">
    <path d="M-18.4 -4.35 Q-12.75 -8.95 -6.9 -7.0 L-2.5 -5.2 Q-0.05 -4.25 1.85 -4.65 1.05 -2.6 -0.85 -0.45 L-5.1 4.05 Q-10.15 9.65 -17.65 9.9 -25.25 10.05 -29.95 4.7 L-34.0 0.3 Q-35.75 -1.85 -36.45 -4.0 L-33.65 -5.3 Q-30.4 -6.8 -27.95 -6.6 -25.5 -6.35 -21.7 -5.2 -18.65 -4.2 -18.4 -4.35" fill="#fd80de" fill-rule="evenodd" stroke="none"/>
    <path d="M-18.4 -4.35 Q-18.65 -4.2 -21.7 -5.2 -25.5 -6.35 -27.95 -6.6 -30.4 -6.8 -33.65 -5.3 L-36.45 -4.0 Q-35.75 -1.85 -34.0 0.3 L-29.95 4.7 Q-25.25 10.05 -17.65 9.9 -10.15 9.65 -5.1 4.05 L-0.85 -0.45 Q1.05 -2.6 1.85 -4.65 -0.05 -4.25 -2.5 -5.2 L-6.9 -7.0 Q-12.75 -8.95 -18.4 -4.35 Z" fill="none" stroke="#000000" stroke-linecap="round" stroke-linejoin="round" stroke-opacity="0.2509804" stroke-width="2.0"/>
    <path d="M1.15 -4.3 Q-2.65 -1.4 -7.75 -0.25 L-18.0 0.7 -28.1 0.35 Q-32.95 -0.5 -36.15 -3.3" fill="none" stroke="#000000" stroke-linecap="round" stroke-linejoin="round" stroke-opacity="0.4" stroke-width="2.0"/>
    <path d="M-19.15 2.75 Q-17.05 2.75 -15.6 3.35 -14.1 4.0 -14.1 4.9 -14.1 5.8 -15.6 6.4 -17.05 7.05 -19.15 7.05 -21.25 7.05 -22.75 6.4 -24.2 5.8 -24.2 4.9 -24.2 4.0 -22.75 3.35 -21.25 2.75 -19.15 2.75" fill="#ffffff" fill-opacity="0.5372549" fill-rule="evenodd" stroke="none"/>
  </g>
</svg>
