<?xml version="1.0" encoding="UTF-8" standalone="no"?>
<svg xmlns:ffdec="https://www.free-decompiler.com/flash" xmlns:xlink="http://www.w3.org/1999/xlink" ffdec:objectType="shape" height="19.7px" width="40.25px" xmlns="http://www.w3.org/2000/svg">
  <g transform="matrix(1.0, 0.0, 0.0, 1.0, 39.05, 9.6)">
    <path d="M-20.15 -5.05 Q-14.8 -10.15 -8.7 -7.95 L-4.1 -5.95 Q-1.55 -4.95 0.2 -5.35 -0.45 -3.05 -2.15 -0.25 -3.85 2.6 -7.1 5.2 -11.3 8.5 -18.4 9.0 -25.3 9.5 -30.3 6.7 -34.2 4.55 -36.25 1.0 -38.35 -1.85 -38.0 -3.75 L-33.4 -6.1 Q-30.3 -7.75 -27.95 -7.5 -25.6 -7.2 -22.65 -5.9 -20.35 -4.9 -20.15 -5.05" fill="#fd80de" fill-rule="evenodd" stroke="none"/>
    <path d="M-20.15 -5.05 Q-14.8 -10.15 -8.7 -7.95 L-4.1 -5.95 Q-1.55 -4.95 0.2 -5.35 -0.45 -3.05 -2.15 -0.25 -3.85 2.6 -7.1 5.2 -11.3 8.5 -18.4 9.0 -25.3 9.5 -30.3 6.7 -34.2 4.55 -36.25 1.0 -38.35 -1.85 -38.0 -3.75 L-33.4 -6.1 Q-30.3 -7.75 -27.95 -7.5 -25.6 -7.2 -22.65 -5.9 -20.35 -4.9 -20.15 -5.05 Z" fill="none" stroke="#000000" stroke-linecap="round" stroke-linejoin="round" stroke-opacity="0.2509804" stroke-width="2.0"/>
    <path d="M-0.5 -4.9 Q-4.15 -3.0 -8.8 -1.45 -13.55 0.15 -19.7 0.25 L-29.35 -0.35 Q-32.8 -1.1 -37.8 -3.6" fill="none" stroke="#000000" stroke-linecap="round" stroke-linejoin="round" stroke-opacity="0.4" stroke-width="2.0"/>
    <path d="M-19.65 1.55 Q-17.65 1.55 -16.3 2.2 -14.85 2.9 -14.85 3.9 -14.85 4.85 -16.3 5.5 -17.65 6.25 -19.65 6.25 -21.65 6.25 -23.1 5.5 -24.45 4.85 -24.45 3.9 -24.45 2.9 -23.1 2.2 -21.65 1.55 -19.65 1.55" fill="#ffffff" fill-opacity="0.5372549" fill-rule="evenodd" stroke="none"/>
  </g>
</svg>
