<?xml version="1.0" encoding="UTF-8" standalone="no"?>
<svg xmlns:ffdec="https://www.free-decompiler.com/flash" xmlns:xlink="http://www.w3.org/1999/xlink" ffdec:objectType="shape" height="26.8px" width="80.9px" xmlns="http://www.w3.org/2000/svg">
  <g transform="matrix(1.0, 0.0, 0.0, 1.0, 59.25, 11.9)">
    <path d="M-33.1 1.25 Q-26.75 -1.85 -24.05 -10.9 L-23.6 -9.9 Q-20.1 -2.15 -13.7 1.65 -14.3 14.25 -22.9 14.4 -31.55 14.4 -33.1 1.25 M-23.35 6.05 L-23.6 -9.9 -23.35 6.05" fill="#ff6666" fill-rule="evenodd" stroke="none"/>
    <path d="M-13.7 1.65 Q-14.3 14.25 -22.9 14.4 -31.55 14.4 -33.1 1.25" fill="none" stroke="#000000" stroke-linecap="round" stroke-linejoin="round" stroke-opacity="0.29803923" stroke-width="1.0"/>
    <path d="M-23.6 -9.9 L-23.35 6.05" fill="none" stroke="#ba4a4a" stroke-linecap="round" stroke-linejoin="round" stroke-width="1.0"/>
    <path d="M20.65 -2.85 L14.85 -10.9 M17.95 -5.8 Q10.75 5.9 -3.7 4.65 -18.4 3.25 -24.05 -10.9 -27.6 0.7 -37.2 2.5 -47.1 4.2 -54.6 -6.25 M-58.25 -4.55 L-51.9 -10.05" fill="none" stroke="#000000" stroke-linecap="round" stroke-linejoin="round" stroke-opacity="0.49803922" stroke-width="2.0"/>
  </g>
</svg>
