<?xml version="1.0" encoding="UTF-8" standalone="no"?>
<svg xmlns:ffdec="https://www.free-decompiler.com/flash" xmlns:xlink="http://www.w3.org/1999/xlink" ffdec:objectType="shape" height="27.6px" width="80.9px" xmlns="http://www.w3.org/2000/svg">
  <g transform="matrix(1.0, 0.0, 0.0, 1.0, 59.25, 21.85)">
    <path d="M17.1 -7.45 Q15.7 -13.7 9.6 -17.75 3.55 -21.85 -4.35 -21.85 -12.2 -21.85 -17.7 -18.05 -23.2 -14.25 -23.35 -9.05 L-23.35 -8.9 Q-23.35 -3.55 -17.7 0.3 -14.2 2.65 -9.7 3.65 L-4.35 4.1 Q3.55 4.1 11.05 1.4 L11.6 1.25 Q16.8 -0.85 17.25 -4.8 L17.25 -5.65 Q17.35 -6.5 17.1 -7.35 L17.1 -7.45 M-53.8 -7.75 Q-53.8 -5.2 -52.25 -3.1 L-50.7 -1.7 -49.55 -0.85 Q-45.35 1.95 -39.4 1.95 -34.9 1.95 -31.4 0.4 -30.25 -0.15 -29.3 -0.85 -25.05 -3.65 -25.05 -7.75 L-25.05 -7.9 Q-25.2 -12.0 -28.45 -16.35 -31.8 -20.85 -38.0 -20.3 -44.2 -19.75 -49.0 -15.8 -53.5 -12.0 -53.8 -8.2 L-53.8 -7.75" fill="#ffffff" fill-opacity="0.49803922" fill-rule="evenodd" stroke="none"/>
    <path d="M20.65 -2.85 L14.85 -10.9 M17.95 -5.8 Q10.75 5.9 -3.7 4.65 -18.4 3.25 -24.05 -10.9 -27.6 0.7 -37.2 2.5 -47.1 4.2 -54.6 -6.25 M-58.25 -4.55 L-51.9 -10.05" fill="none" stroke="#000000" stroke-linecap="round" stroke-linejoin="round" stroke-opacity="0.49803922" stroke-width="2.0"/>
  </g>
</svg>
