<?xml version="1.0" encoding="UTF-8" standalone="no"?>
<svg xmlns:ffdec="https://www.free-decompiler.com/flash" xmlns:xlink="http://www.w3.org/1999/xlink" ffdec:objectType="shape" height="15.85px" width="40.7px" xmlns="http://www.w3.org/2000/svg">
  <g transform="matrix(1.0, 0.0, 0.0, 1.0, 35.65, 8.4)">
    <path d="M-1.15 -3.45 Q3.9 0.3 3.55 3.05 3.05 5.8 -2.7 5.55 -8.4 5.25 -16.05 5.35 L-28.1 5.9 Q-32.6 6.25 -33.7 4.4 -34.8 2.5 -33.2 0.05 -31.65 -2.45 -28.05 -4.5 -24.4 -6.5 -15.35 -6.85 -6.25 -7.25 -1.15 -3.45" fill="#000000" fill-opacity="0.49803922" fill-rule="evenodd" stroke="none"/>
    <path d="M-1.15 -3.45 Q3.9 0.3 3.55 3.05 3.05 5.8 -2.7 5.55 -8.4 5.25 -16.05 5.35 L-28.1 5.9 Q-32.6 6.25 -33.7 4.4 -34.8 2.5 -33.2 0.05 -31.65 -2.45 -28.05 -4.5 -24.4 -6.5 -15.35 -6.85 -6.25 -7.25 -1.15 -3.45 Z" fill="none" stroke="#000000" stroke-linecap="round" stroke-linejoin="round" stroke-opacity="0.49803922" stroke-width="3.0"/>
    <path d="M-3.75 3.2 Q-2.65 4.3 -2.4 5.0 -7.85 4.65 -15.45 4.75 -15.0 3.5 -13.45 2.35 -11.9 1.15 -8.4 1.6 -4.85 2.0 -3.75 3.2" fill="#ec4646" fill-rule="evenodd" stroke="none"/>
  </g>
</svg>
