<?xml version="1.0" encoding="UTF-8" standalone="no"?>
<svg xmlns:ffdec="https://www.free-decompiler.com/flash" xmlns:xlink="http://www.w3.org/1999/xlink" ffdec:objectType="shape" height="39.35px" width="71.05px" xmlns="http://www.w3.org/2000/svg">
  <g transform="matrix(1.0, 0.0, 0.0, 1.0, 40.35, 19.4)">
    <path d="M6.45 -3.2 Q11.3 -3.05 14.65 -3.35 L18.1 -3.85 Q16.85 -1.45 15.1 0.3 12.6 2.9 9.5 4.65 4.55 2.7 -2.25 1.85 -17.45 -0.1 -30.35 6.3 -32.8 4.6 -34.5 2.05 L-36.6 -1.8 -26.4 -2.7 -22.25 -3.0 -9.05 -3.65 -1.75 -3.6 6.45 -3.2" fill="#000000" fill-opacity="0.49803922" fill-rule="evenodd" stroke="none"/>
    <path d="M9.5 4.65 L5.8 6.35 Q-1.8 9.1 -16.0 9.6 -25.05 10.0 -30.35 6.3 -17.45 -0.1 -2.25 1.85 4.55 2.7 9.5 4.65" fill="#c65140" fill-rule="evenodd" stroke="none"/>
    <path d="M6.35 -10.1 Q10.5 -9.8 14.9 -11.25 18.4 -12.45 20.6 -14.05 20.75 -11.2 19.55 -7.5 L18.1 -3.85 14.65 -3.35 Q11.3 -3.05 6.45 -3.2 L6.35 -10.1 6.45 -3.2 -1.75 -3.6 -9.05 -3.65 -22.25 -3.0 -23.5 -12.05 -22.25 -3.0 -26.4 -2.7 -36.6 -1.8 -39.35 -7.25 Q-31.8 -10.6 -23.5 -12.05 L-17.35 -12.95 Q-13.15 -13.35 -9.3 -13.15 -3.55 -12.85 1.45 -11.1 3.85 -10.3 6.35 -10.1 M-9.3 -13.15 L-9.05 -3.65 -9.3 -13.15" fill="#ffffff" fill-rule="evenodd" stroke="none"/>
    <path d="M18.1 -3.85 L19.55 -7.5 Q20.75 -11.2 20.6 -14.05 18.4 -12.45 14.9 -11.25 10.5 -9.8 6.35 -10.1 L6.45 -3.2 Q11.3 -3.05 14.65 -3.35 L18.1 -3.85 Q16.85 -1.45 15.1 0.3 12.6 2.9 9.5 4.65 L5.8 6.35 Q-1.8 9.1 -16.0 9.6 -25.05 10.0 -30.35 6.3 -32.8 4.6 -34.5 2.05 L-36.6 -1.8 -39.35 -7.25 Q-31.8 -10.6 -23.5 -12.05 L-17.35 -12.95 Q-13.15 -13.35 -9.3 -13.15 -3.55 -12.85 1.45 -11.1 3.85 -10.3 6.35 -10.1 M16.5 -18.4 L21.5 -17.5 23.35 -16.8 Q26.05 -16.45 29.7 -12.45 M20.6 -14.05 L22.65 -15.95 23.35 -16.8 M-23.5 -12.05 L-22.25 -3.0 -9.05 -3.65 -9.3 -13.15 M-22.25 -3.0 L-26.4 -2.7 -36.6 -1.8 M6.45 -3.2 L-1.75 -3.6 -9.05 -3.65 M-30.35 6.3 Q-17.45 -0.1 -2.25 1.85 4.55 2.7 9.5 4.65" fill="none" stroke="#000000" stroke-linecap="round" stroke-linejoin="round" stroke-opacity="0.49803922" stroke-width="2.0"/>
    <path d="M6.9 15.2 Q-2.5 19.1 -15.6 18.3" fill="none" stroke="#000000" stroke-linecap="round" stroke-linejoin="miter-clip" stroke-miterlimit="4.0" stroke-opacity="0.2" stroke-width="3.0"/>
  </g>
</svg>
