<?xml version="1.0" encoding="UTF-8" standalone="no"?>
<svg xmlns:ffdec="https://www.free-decompiler.com/flash" xmlns:xlink="http://www.w3.org/1999/xlink" ffdec:objectType="shape" height="22.4px" width="53.9px" xmlns="http://www.w3.org/2000/svg">
  <g transform="matrix(1.0, 0.0, 0.0, 1.0, 41.1, 9.1)">
    <path d="M-11.75 5.95 Q-28.5 7.3 -37.5 -4.15 -15.25 -1.55 10.95 -7.1 4.95 4.6 -11.75 5.95" fill="#ffffff" fill-rule="evenodd" stroke="none"/>
    <path d="M4.15 -6.7 Q8.0 -6.75 11.8 -8.1 11.9 -5.75 9.9 -2.6 L5.85 2.8 Q3.75 5.15 -1.05 8.1 -5.95 11.05 -13.15 12.0 -20.35 13.0 -25.45 10.5 -30.55 7.95 -32.95 5.35 L-37.0 0.2 Q-38.7 -2.3 -40.1 -6.0 L-31.45 -6.3 -22.6 -7.75 -15.6 -8.05 -4.3 -7.45 0.1 -6.95 4.15 -6.7 M-13.25 5.3 Q3.0 3.35 10.6 -6.4 -9.1 1.3 -38.75 -4.75 -29.5 7.25 -13.25 5.3" fill="#ffaaaa" fill-rule="evenodd" stroke="none"/>
    <path d="M4.15 -6.7 Q8.0 -6.75 11.8 -8.1 11.9 -5.75 9.9 -2.6 L5.85 2.8 Q3.75 5.15 -1.05 8.1 -5.95 11.05 -13.15 12.0 -20.35 13.0 -25.45 10.5 -30.55 7.95 -32.95 5.35 L-37.0 0.2 Q-38.7 -2.3 -40.1 -6.0 L-31.45 -6.3 -22.6 -7.75 -15.6 -8.05 -4.3 -7.45 0.1 -6.95 4.15 -6.7 M-13.25 5.3 Q3.0 3.35 10.6 -6.4 -9.1 1.3 -38.75 -4.75 -29.5 7.25 -13.25 5.3 Z" fill="none" stroke="#000000" stroke-linecap="round" stroke-linejoin="round" stroke-opacity="0.29803923" stroke-width="2.0"/>
    <path d="M-26.15 7.0 Q-18.6 8.95 -10.25 7.15" fill="none" stroke="#ffffff" stroke-linecap="round" stroke-linejoin="round" stroke-opacity="0.4" stroke-width="2.0"/>
  </g>
</svg>
