<?xml version="1.0" encoding="UTF-8" standalone="no"?>
<svg xmlns:ffdec="https://www.free-decompiler.com/flash" xmlns:xlink="http://www.w3.org/1999/xlink" ffdec:objectType="shape" height="23.2px" width="62.85px" xmlns="http://www.w3.org/2000/svg">
  <g transform="matrix(1.0, 0.0, 0.0, 1.0, 38.65, 6.4)">
    <path d="M3.15 6.45 Q2.85 9.0 -1.3 12.65 -5.45 16.15 -13.15 16.3 -20.9 16.55 -23.25 12.85 -25.65 9.0 -25.5 6.4 L-19.05 6.9 3.15 6.45" fill="#b4657b" fill-rule="evenodd" stroke="none"/>
    <path d="M3.15 6.45 L-19.05 6.9 -25.5 6.4 Q-25.65 9.0 -23.25 12.85 -20.9 16.55 -13.15 16.3 -5.45 16.15 -1.3 12.65 2.85 9.0 3.15 6.45 Z" fill="none" stroke="#000000" stroke-linecap="round" stroke-linejoin="round" stroke-opacity="0.29803923" stroke-width="1.0"/>
    <path d="M-19.4 -1.3 L-16.5 -0.2 Q-14.1 -2.25 -11.0 -3.3 -4.75 -5.5 -0.8 -2.7 2.85 -0.15 3.55 2.95 L4.1 5.45 Q4.3 6.35 4.6 6.65 L-4.3 6.35 -28.3 7.25 Q-28.7 1.7 -25.8 -0.15 -22.95 -2.05 -19.4 -1.3" fill="#b4657b" fill-rule="evenodd" stroke="none"/>
    <path d="M-19.4 -1.3 L-16.5 -0.2 Q-14.1 -2.25 -11.0 -3.3 -4.75 -5.5 -0.8 -2.7 2.85 -0.15 3.55 2.95 L4.1 5.45 Q4.3 6.35 4.6 6.65 L-4.3 6.35 -28.3 7.25 Q-28.7 1.7 -25.8 -0.15 -22.95 -2.05 -19.4 -1.3 Z" fill="none" stroke="#000000" stroke-linecap="round" stroke-linejoin="round" stroke-opacity="0.29803923" stroke-width="1.0"/>
    <path d="M-37.65 9.7 Q-33.9 8.1 -29.2 7.4 -24.55 6.7 -8.95 7.2 6.6 7.7 13.05 4.75 19.45 1.75 23.2 -5.4" fill="none" stroke="#000000" stroke-linecap="round" stroke-linejoin="miter-clip" stroke-miterlimit="4.0" stroke-opacity="0.29803923" stroke-width="2.0"/>
    <path d="M-6.95 13.3 Q-8.3 14.15 -10.35 14.35 -12.4 14.5 -14.0 13.85 -15.55 13.35 -15.75 12.25 -15.9 11.2 -14.6 10.3 -13.25 9.5 -11.2 9.35 L-7.55 9.75 Q-5.95 10.4 -5.8 11.45 -5.6 12.55 -6.95 13.3" fill="#ffffff" fill-opacity="0.4" fill-rule="evenodd" stroke="none"/>
  </g>
</svg>
