<?xml version="1.0" encoding="UTF-8" standalone="no"?>
<svg xmlns:ffdec="https://www.free-decompiler.com/flash" xmlns:xlink="http://www.w3.org/1999/xlink" ffdec:objectType="shape" height="10.65px" width="40.35px" xmlns="http://www.w3.org/2000/svg">
  <g transform="matrix(1.0, 0.0, 0.0, 1.0, 35.15, 6.9)">
    <path d="M-9.2 -5.05 Q-4.3 -3.9 0.45 -1.3 5.15 1.3 3.95 2.35 2.85 3.4 -7.75 1.7 -18.3 -0.05 -24.65 1.6 -30.95 3.15 -33.3 2.5 -35.65 1.8 -31.65 -1.8 -27.7 -5.4 -20.85 -5.8 -14.05 -6.25 -9.2 -5.05" fill="#000000" fill-opacity="0.49803922" fill-rule="evenodd" stroke="none"/>
    <path d="M-9.2 -5.05 Q-4.3 -3.9 0.45 -1.3 5.15 1.3 3.95 2.35 2.85 3.4 -7.75 1.7 -18.3 -0.05 -24.65 1.6 -30.95 3.15 -33.3 2.5 -35.65 1.8 -31.65 -1.8 -27.7 -5.4 -20.85 -5.8 -14.05 -6.25 -9.2 -5.05 Z" fill="none" stroke="#000000" stroke-linecap="round" stroke-linejoin="miter-clip" stroke-miterlimit="3.0" stroke-opacity="0.49803922" stroke-width="2.0"/>
  </g>
</svg>
