<?xml version="1.0" encoding="UTF-8" standalone="no"?>
<svg xmlns:ffdec="https://www.free-decompiler.com/flash" xmlns:xlink="http://www.w3.org/1999/xlink" ffdec:objectType="shape" height="33.95px" width="101.55px" xmlns="http://www.w3.org/2000/svg">
  <g transform="matrix(1.0, 0.0, 0.0, 1.0, 62.7, 15.55)">
    <path d="M-61.25 -4.5 Q-60.35 -7.35 -57.85 -9.6 -54.0 -13.0 -48.4 -13.0 L-44.4 -12.45 -43.25 -12.05 -42.45 -11.85 -41.7 -11.6 Q-37.3 -9.7 -23.8 -8.75 L-11.85 -8.1 -4.75 -8.4 4.6 -9.7 Q11.8 -10.95 19.1 -13.15 19.8 -13.55 20.6 -13.75 L25.6 -1.55 Q30.2 -3.0 34.8 -4.75 L37.25 -5.75 Q37.85 -3.85 37.85 -1.75 37.85 3.5 32.85 6.55 L29.7 8.3 Q26.35 10.15 23.15 11.6 L21.55 12.2 16.5 13.55 15.35 13.8 18.15 12.95 14.85 1.9 14.5 2.0 Q6.8 3.9 -1.0 4.55 L-1.0 4.7 Q-0.6 10.5 -0.5 16.4 L-11.55 17.35 -11.7 17.35 -18.3 17.4 Q-25.65 17.4 -31.9 16.1 L-29.5 3.0 Q-37.7 1.9 -46.0 -0.1 -53.6 -1.9 -61.25 -4.5 M-11.85 -7.85 L-11.85 -8.0 -11.85 -8.1 -11.85 -8.0 -11.85 -7.85 -14.85 -7.7 -19.75 -8.05 -21.35 1.6 -11.4 2.5 -7.6 2.55 -7.3 2.55 -7.25 2.55 Q-7.3 -2.6 -7.7 -7.85 L-11.85 -7.7 -11.85 -7.85" fill="#000000" fill-opacity="0.49803922" fill-rule="evenodd" stroke="none"/>
    <path d="M20.6 -13.75 L23.3 -14.45 25.05 -14.55 28.0 -14.25 Q31.35 -13.5 34.0 -10.85 36.3 -8.55 37.25 -5.75 L34.8 -4.75 Q30.2 -3.0 25.6 -1.55 L20.6 -13.75 M14.5 14.0 L12.6 14.5 8.2 15.55 -0.5 17.2 -0.5 16.4 Q-0.6 10.5 -1.0 4.7 L-1.0 4.55 Q6.8 3.9 14.5 2.0 L14.85 1.9 18.15 12.95 15.35 13.8 14.5 14.0 Q7.9 15.45 -0.5 16.4 7.9 15.45 14.5 14.0 M-31.9 16.1 L-34.35 15.5 -48.8 11.3 -50.65 10.55 -51.5 10.0 -57.2 6.35 Q-61.7 3.5 -61.7 -1.25 -61.7 -3.0 -61.25 -4.5 -53.6 -1.9 -46.0 -0.1 -37.7 1.9 -29.5 3.0 L-31.9 16.1 M-11.85 -7.7 L-7.7 -7.85 Q-7.3 -2.6 -7.25 2.55 L-7.3 2.55 -7.6 2.55 -11.4 2.5 -21.35 1.6 -19.75 -8.05 -14.85 -7.7 -11.85 -7.7 M-48.8 11.3 L-46.0 -0.1 -48.8 11.3" fill="#f5eecf" fill-rule="evenodd" stroke="none"/>
    <path d="M-61.25 -4.5 Q-60.35 -7.35 -57.85 -9.6 -54.0 -13.0 -48.4 -13.0 L-44.4 -12.45 -43.25 -12.05 -42.45 -11.85 -41.7 -11.6 Q-37.3 -9.7 -23.8 -8.75 L-11.85 -8.1 -4.75 -8.4 4.6 -9.7 Q11.8 -10.95 19.1 -13.15 19.8 -13.55 20.6 -13.75 L23.3 -14.45 25.05 -14.55 28.0 -14.25 Q31.35 -13.5 34.0 -10.85 36.3 -8.55 37.25 -5.75 37.85 -3.85 37.85 -1.75 37.85 3.5 32.85 6.55 L29.7 8.3 Q26.35 10.15 23.15 11.6 L21.55 12.2 16.5 13.55 14.5 14.0 15.35 13.8 16.5 13.55 M-0.5 16.4 L-11.55 17.35 -11.7 17.35 -18.3 17.4 Q-25.65 17.4 -31.9 16.1 L-34.35 15.5 -48.8 11.3 -50.65 10.55 -51.5 10.0 -57.2 6.35 Q-61.7 3.5 -61.7 -1.25 -61.7 -3.0 -61.25 -4.5 -53.6 -1.9 -46.0 -0.1 -37.7 1.9 -29.5 3.0 L-31.9 16.1 M20.6 -13.75 L25.6 -1.55 Q30.2 -3.0 34.8 -4.75 L37.25 -5.75 M-11.85 -8.1 L-11.85 -8.0 -11.85 -7.85 M-11.85 -7.7 L-7.7 -7.85 Q-7.3 -2.6 -7.25 2.55 L-7.3 2.55 -7.6 2.55 -11.4 2.5 -21.35 1.6 -19.75 -8.05 -14.85 -7.7 -11.85 -7.7 M-0.5 16.4 Q-0.6 10.5 -1.0 4.7 L-1.0 4.55 Q6.8 3.9 14.5 2.0 L14.85 1.9 18.15 12.95 15.35 13.8 M-0.5 16.4 Q7.9 15.45 14.5 14.0 M-46.0 -0.1 L-48.8 11.3" fill="none" stroke="#000000" stroke-linecap="round" stroke-linejoin="round" stroke-opacity="0.49803922" stroke-width="2.0"/>
  </g>
</svg>
