<?xml version="1.0" encoding="UTF-8" standalone="no"?>
<svg xmlns:ffdec="https://www.free-decompiler.com/flash" xmlns:xlink="http://www.w3.org/1999/xlink" ffdec:objectType="shape" height="20.25px" width="47.65px" xmlns="http://www.w3.org/2000/svg">
  <g transform="matrix(1.0, 0.0, 0.0, 1.0, 38.6, 9.85)">
    <path d="M-7.45 -6.1 Q-5.75 -4.45 -4.35 -2.0 L-3.3 0.15 -4.35 2.15 Q-6.15 4.7 -10.05 7.15 -15.5 10.55 -22.9 8.85 -31.0 6.85 -30.25 -0.45 -29.55 -7.05 -24.1 -7.4 L-18.8 -6.45 Q-12.75 -11.4 -7.45 -6.1" fill="#be7965" fill-rule="evenodd" stroke="none"/>
    <path d="M-7.45 -6.1 Q-12.75 -11.4 -18.8 -6.45 L-24.1 -7.4 Q-29.55 -7.05 -30.25 -0.45 -31.0 6.85 -22.9 8.85 -15.5 10.55 -10.05 7.15 -6.15 4.7 -4.35 2.15 L-3.3 0.15 -4.35 -2.0 Q-5.75 -4.45 -7.45 -6.1 Z" fill="none" stroke="#000000" stroke-linecap="round" stroke-linejoin="miter-clip" stroke-miterlimit="4.0" stroke-opacity="0.29803923" stroke-width="2.0"/>
    <path d="M8.05 3.85 Q3.45 2.2 -1.95 1.3 -19.0 -1.6 -37.6 3.55" fill="none" stroke="#000000" stroke-linecap="round" stroke-linejoin="miter-clip" stroke-miterlimit="4.0" stroke-opacity="0.29803923" stroke-width="2.0"/>
    <path d="M-13.55 6.25 Q-14.85 7.2 -16.9 7.5 L-20.5 7.25 Q-22.2 6.75 -22.45 5.7 -22.7 4.65 -21.35 3.7 -20.05 2.8 -18.05 2.55 L-14.4 2.7 Q-12.75 3.25 -12.5 4.3 -12.25 5.35 -13.55 6.25" fill="#ffffff" fill-opacity="0.4" fill-rule="evenodd" stroke="none"/>
  </g>
</svg>
