<?xml version="1.0" encoding="UTF-8" standalone="no"?>
<svg xmlns:ffdec="https://www.free-decompiler.com/flash" xmlns:xlink="http://www.w3.org/1999/xlink" ffdec:objectType="shape" height="24.0px" width="56.75px" xmlns="http://www.w3.org/2000/svg">
  <g transform="matrix(1.0, 0.0, 0.0, 1.0, 25.2, 8.35)">
    <path d="M-9.2 8.55 Q-9.6 4.1 -7.2 1.9 -5.15 -0.25 -1.45 -0.25 2.2 -0.45 3.1 2.45 2.7 -0.25 5.6 -1.4 7.8 -2.45 10.65 -1.95 13.85 -1.3 15.9 1.45 L16.85 3.45 Q6.15 8.4 -9.2 8.55 6.15 8.4 16.85 3.45 L17.15 3.3 Q18.75 5.45 17.4 8.0 16.1 10.65 13.2 11.95 10.3 13.3 7.6 14.0 L1.35 14.65 Q-2.35 14.6 -5.45 13.15 -8.55 11.7 -9.2 8.55" fill="#ff3300" fill-rule="evenodd" stroke="none"/>
    <path d="M16.85 3.45 L15.9 1.45 Q13.85 -1.3 10.65 -1.95 7.8 -2.45 5.6 -1.4 2.7 -0.25 3.1 2.45 2.2 -0.45 -1.45 -0.25 -5.15 -0.25 -7.2 1.9 -9.6 4.1 -9.2 8.55 6.15 8.4 16.85 3.45 M17.15 3.3 Q25.2 -0.65 30.55 -7.35 M17.15 3.3 Q18.75 5.45 17.4 8.0 16.1 10.65 13.2 11.95 10.3 13.3 7.6 14.0 L1.35 14.65 Q-2.35 14.6 -5.45 13.15 -8.55 11.7 -9.2 8.55 L-21.35 7.9 -24.2 7.55" fill="none" stroke="#cc2800" stroke-linecap="round" stroke-linejoin="round" stroke-width="2.0"/>
    <path d="M16.85 3.45 L17.15 3.3" fill="none" stroke="#b87c0e" stroke-linecap="round" stroke-linejoin="round" stroke-width="2.0"/>
  </g>
</svg>
