<?xml version="1.0" encoding="UTF-8" standalone="no"?>
<svg xmlns:ffdec="https://www.free-decompiler.com/flash" xmlns:xlink="http://www.w3.org/1999/xlink" ffdec:objectType="shape" height="35.85px" width="117.25px" xmlns="http://www.w3.org/2000/svg">
  <g transform="matrix(1.0, 0.0, 0.0, 1.0, 89.1, 19.15)">
    <path d="M14.5 -17.85 Q23.5 -19.6 26.15 -11.8 28.75 -4.0 24.45 1.9 20.1 7.8 10.45 11.5 0.8 15.15 -21.15 14.4 -43.1 13.65 -48.6 -1.15 -24.1 -0.1 -9.3 -8.15 5.45 -16.2 14.5 -17.85" fill="#ffffff" fill-rule="evenodd" stroke="none"/>
    <path d="M14.5 -17.85 Q5.45 -16.2 -9.3 -8.15 -24.1 -0.1 -48.6 -1.15 -43.1 13.65 -21.15 14.4 0.8 15.15 10.45 11.5 20.1 7.8 24.45 1.9 28.75 -4.0 26.15 -11.8 23.5 -19.6 14.5 -17.85 Z" fill="none" stroke="#000000" stroke-linecap="butt" stroke-linejoin="miter-clip" stroke-miterlimit="4.0" stroke-opacity="0.49803922" stroke-width="2.0"/>
    <path d="M-9.2 12.4 L-11.35 -5.45" fill="none" stroke="#000000" stroke-linecap="round" stroke-linejoin="round" stroke-opacity="0.49803922" stroke-width="2.0"/>
    <path d="M10.75 10.05 L7.75 -14.85" fill="none" stroke="#000000" stroke-linecap="round" stroke-linejoin="round" stroke-opacity="0.49803922" stroke-width="2.0"/>
    <path d="M-28.85 12.05 L-30.35 -0.7" fill="none" stroke="#000000" stroke-linecap="round" stroke-linejoin="round" stroke-opacity="0.49803922" stroke-width="2.0"/>
    <path d="M-47.0 2.4 Q-9.5 6.9 26.45 -7.8" fill="none" stroke="#000000" stroke-linecap="round" stroke-linejoin="round" stroke-opacity="0.49803922" stroke-width="2.0"/>
    <path d="M-62.05 6.4 L-49.95 4.0 -44.85 3.15 Q-52.75 6.95 -71.7 12.15 -81.1 14.8 -89.0 16.6 -80.85 10.8 -62.05 6.4" fill="#be9e81" fill-rule="evenodd" stroke="none"/>
    <path d="M-62.05 6.4 Q-80.85 10.8 -89.0 16.6 -81.1 14.8 -71.7 12.15 -52.75 6.95 -44.85 3.15 L-49.95 4.0 -62.05 6.4 Z" fill="none" stroke="#000000" stroke-linecap="round" stroke-linejoin="round" stroke-opacity="0.29803923" stroke-width="0.2"/>
  </g>
</svg>
