<?xml version="1.0" encoding="UTF-8" standalone="no"?>
<svg xmlns:ffdec="https://www.free-decompiler.com/flash" xmlns:xlink="http://www.w3.org/1999/xlink" ffdec:objectType="shape" height="20.55px" width="75.45px" xmlns="http://www.w3.org/2000/svg">
  <g transform="matrix(1.0, 0.0, 0.0, 1.0, 49.25, 9.65)">
    <path d="M15.65 -3.45 Q25.45 1.7 24.65 5.5 23.8 9.3 12.75 8.9 1.7 8.5 -12.9 8.65 -27.5 8.75 -36.15 9.3 -44.85 9.9 -46.9 7.35 -48.95 4.75 -46.0 1.4 -43.05 -2.05 -36.05 -4.8 -29.05 -7.65 -11.6 -8.1 5.9 -8.6 15.65 -3.45" fill="#000000" fill-opacity="0.49803922" fill-rule="evenodd" stroke="none"/>
    <path d="M15.65 -3.45 Q25.45 1.7 24.65 5.5 23.8 9.3 12.75 8.9 1.7 8.5 -12.9 8.65 -27.5 8.75 -36.15 9.3 -44.85 9.9 -46.9 7.35 -48.95 4.75 -46.0 1.4 -43.05 -2.05 -36.05 -4.8 -29.05 -7.65 -11.6 -8.1 5.9 -8.6 15.65 -3.45 Z" fill="none" stroke="#000000" stroke-linecap="round" stroke-linejoin="round" stroke-opacity="0.49803922" stroke-width="3.0"/>
    <path d="M10.75 5.7 Q12.75 7.3 13.25 8.2 2.8 7.7 -11.8 7.85 -10.95 6.15 -7.95 4.55 -5.05 3.0 1.85 3.55 8.6 4.1 10.75 5.7" fill="#bd3222" fill-rule="evenodd" stroke="none"/>
  </g>
</svg>
