<?xml version="1.0" encoding="UTF-8" standalone="no"?>
<svg xmlns:ffdec="https://www.free-decompiler.com/flash" xmlns:xlink="http://www.w3.org/1999/xlink" ffdec:objectType="shape" height="42.9px" width="95.5px" xmlns="http://www.w3.org/2000/svg">
  <g transform="matrix(1.0, 0.0, 0.0, 1.0, 51.1, 26.1)">
    <path d="M33.75 -6.65 Q22.65 -2.8 14.2 -0.65 L12.1 -14.6 14.2 -0.65 Q22.65 -2.8 33.75 -6.65 34.45 -1.25 30.95 3.15 26.3 8.9 16.15 12.55 L15.5 12.75 Q7.95 15.3 -6.3 15.75 L-7.6 3.45 -29.05 4.75 -29.05 -0.65 -29.05 4.75 -7.6 3.45 -6.3 15.75 Q-12.25 15.9 -19.35 15.65 L-27.8 14.9 Q-41.95 12.55 -47.7 3.75 L-49.6 0.1 -29.05 -0.65 Q-17.55 -2.0 -8.85 -5.65 L-6.3 -6.9 Q4.2 -12.1 12.1 -14.6 16.45 -16.0 19.95 -16.6 29.9 -18.3 32.8 -10.5 L33.75 -6.65 M16.15 12.55 L14.2 -0.65 Q3.35 2.15 -7.6 3.45 L-8.85 -5.65 -7.6 3.45 Q3.35 2.15 14.2 -0.65 L16.15 12.55 M-29.05 4.75 L-47.7 3.75 -29.05 4.75 -27.8 14.9 -29.05 4.75" fill="#ffffff" fill-rule="evenodd" stroke="none"/>
    <path d="M12.1 -14.6 L14.2 -0.65 Q22.65 -2.8 33.75 -6.65 M-8.85 -5.65 L-7.6 3.45 Q3.35 2.15 14.2 -0.65 L16.15 12.55 M-29.05 -0.65 L-29.05 4.75 -7.6 3.45 -6.3 15.75 M-29.05 4.75 L-27.8 14.9 M-47.7 3.75 L-29.05 4.75" fill="none" stroke="#000000" stroke-linecap="round" stroke-linejoin="round" stroke-opacity="0.49803922" stroke-width="2.0"/>
    <path d="M33.75 -6.65 L32.8 -10.5 Q29.9 -18.3 19.95 -16.6 16.45 -16.0 12.1 -14.6" fill="none" stroke="#000000" stroke-linecap="butt" stroke-linejoin="miter-clip" stroke-miterlimit="4.0" stroke-opacity="0.49803922" stroke-width="2.0"/>
    <path d="M12.1 -14.6 Q4.2 -12.1 -6.3 -6.9 L-8.85 -5.65 Q-17.55 -2.0 -29.05 -0.65 L-49.6 0.1 -47.7 3.75 Q-41.95 12.55 -27.8 14.9 L-19.35 15.65 Q-12.25 15.9 -6.3 15.75 7.95 15.3 15.5 12.75 L16.15 12.55 Q26.3 8.9 30.95 3.15 34.45 -1.25 33.75 -6.65" fill="none" stroke="#000000" stroke-linecap="round" stroke-linejoin="miter-clip" stroke-miterlimit="4.0" stroke-opacity="0.49803922" stroke-width="2.0"/>
    <path d="M42.6 -1.3 Q44.65 -15.8 33.05 -24.6" fill="none" stroke="#000000" stroke-linecap="round" stroke-linejoin="miter-clip" stroke-miterlimit="4.0" stroke-opacity="0.29803923" stroke-width="3.0"/>
    <path d="M-26.85 -17.0 Q-27.8 -8.95 -22.05 -2.65" fill="none" stroke="#000000" stroke-linecap="round" stroke-linejoin="miter-clip" stroke-miterlimit="4.0" stroke-opacity="0.2" stroke-width="1.5"/>
    <path d="M-38.05 -11.4 Q-38.6 -5.9 -33.8 0.1" fill="none" stroke="#000000" stroke-linecap="round" stroke-linejoin="miter-clip" stroke-miterlimit="4.0" stroke-opacity="0.2" stroke-width="1.5"/>
    <path d="M-10.9 -17.05 Q-12.25 -12.35 -6.4 -6.85" fill="none" stroke="#000000" stroke-linecap="round" stroke-linejoin="miter-clip" stroke-miterlimit="4.0" stroke-opacity="0.2" stroke-width="1.5"/>
  </g>
</svg>
