<?xml version="1.0" encoding="UTF-8" standalone="no"?>
<svg xmlns:ffdec="https://www.free-decompiler.com/flash" xmlns:xlink="http://www.w3.org/1999/xlink" ffdec:objectType="shape" height="39.15px" width="83.7px" xmlns="http://www.w3.org/2000/svg">
  <g transform="matrix(1.0, 0.0, 0.0, 1.0, 54.45, 22.05)">
    <path d="M25.45 -5.85 Q15.7 -0.75 8.1 1.85 -1.35 5.15 -12.15 6.0 -21.6 6.75 -31.9 5.7 -39.75 4.8 -47.9 2.9 -49.4 0.55 -50.35 -2.4 -47.8 -1.2 -41.1 -1.1 -34.45 -0.9 -26.8 -2.05 0.4 -5.9 25.0 -19.0 27.55 -11.8 25.5 -6.05 L25.45 -5.85" fill="#ffffff" fill-rule="evenodd" stroke="none"/>
    <path d="M-12.15 6.0 Q-1.35 5.15 8.1 1.85 15.8 -0.8 25.7 -6.0 24.7 -2.2 21.25 3.05 17.8 8.25 11.9 11.15 6.0 14.1 -1.65 15.3 -9.3 16.55 -21.2 15.85 -33.1 15.1 -40.2 10.8 -45.15 7.7 -47.9 2.9 -39.75 4.8 -31.9 5.7 -21.6 6.75 -12.15 6.0" fill="#000000" fill-opacity="0.69411767" fill-rule="evenodd" stroke="none"/>
    <path d="M25.7 -6.0 Q27.3 -12.6 25.1 -18.95 M28.25 -21.05 L22.65 -18.25 Q9.65 -10.9 -11.1 -5.3 L-13.4 -4.65 Q-12.15 0.55 -12.15 6.0 -1.35 5.15 8.1 1.85 9.15 -4.4 8.1 -10.65 M-12.15 6.0 Q-21.6 6.75 -31.9 5.7 -39.75 4.8 -47.9 2.9 -45.15 7.7 -40.2 10.8 -33.1 15.1 -21.2 15.85 -9.3 16.55 -1.65 15.3 6.0 14.1 11.9 11.15 17.8 8.25 21.25 3.05 24.7 -2.2 25.7 -6.0 15.8 -0.8 8.1 1.85 M-47.9 2.9 Q-49.35 0.6 -50.2 -2.1 -51.9 -2.5 -53.45 -3.25 M-13.4 -4.65 Q-34.1 0.4 -47.35 -1.65 L-50.2 -2.1 M-31.9 5.7 L-33.05 0.0" fill="none" stroke="#000000" stroke-linecap="round" stroke-linejoin="round" stroke-opacity="0.49803922" stroke-width="2.0"/>
    <path d="M13.5 9.1 Q4.4 14.3 -11.9 15.1 -11.1 11.6 -8.5 9.45 -5.95 7.3 0.85 6.45 L10.0 6.7 Q12.3 7.8 13.5 9.1" fill="#bd3222" fill-opacity="0.69411767" fill-rule="evenodd" stroke="none"/>
  </g>
</svg>
