<?xml version="1.0" encoding="UTF-8" standalone="no"?>
<svg xmlns:ffdec="https://www.free-decompiler.com/flash" xmlns:xlink="http://www.w3.org/1999/xlink" ffdec:objectType="shape" height="19.65px" width="75.55px" xmlns="http://www.w3.org/2000/svg">
  <g transform="matrix(1.0, 0.0, 0.0, 1.0, 51.3, 8.55)">
    <path d="M5.75 -2.85 L1.85 -1.8 3.35 -1.7 Q3.15 3.45 -0.85 6.1 -4.8 8.7 -12.45 9.75 -20.05 10.8 -25.35 8.55 -30.65 6.2 -28.3 0.75 -31.05 -0.25 -33.95 -0.6 -31.55 -5.85 -27.85 -6.55 -24.15 -7.3 -21.35 -6.55 -18.55 -5.8 -17.05 -3.4 -16.5 -5.45 -13.1 -6.6 -9.65 -7.8 -6.4 -7.45 -3.15 -7.1 -0.9 -6.1 L5.75 -2.85" fill="#713835" fill-rule="evenodd" stroke="none"/>
    <path d="M5.75 -2.85 L-0.9 -6.1 Q-3.15 -7.1 -6.4 -7.45 -9.65 -7.8 -13.1 -6.6 -16.5 -5.45 -17.05 -3.4 -18.55 -5.8 -21.35 -6.55 -24.15 -7.3 -27.85 -6.55 -31.55 -5.85 -33.95 -0.6 M-28.3 0.75 Q-30.65 6.2 -25.35 8.55 -20.05 10.8 -12.45 9.75 -4.8 8.7 -0.85 6.1 3.15 3.45 3.35 -1.7" fill="none" stroke="#000000" stroke-linecap="round" stroke-linejoin="round" stroke-opacity="0.29803923" stroke-width="2.0"/>
    <path d="M-16.65 7.4 L-20.3 7.95 Q-22.45 7.85 -24.0 7.05 -25.55 6.35 -25.6 5.4 -25.65 4.4 -24.15 3.75 L-20.5 3.35 Q-18.35 3.4 -16.8 4.1 -15.2 4.85 -15.15 5.85 -15.1 6.8 -16.65 7.4" fill="#ffffff" fill-opacity="0.4" fill-rule="evenodd" stroke="none"/>
    <path d="M-42.6 -1.7 L-31.5 0.05 -14.65 0.6 Q-5.2 -0.15 2.15 -2.7 10.15 -5.55 13.65 -4.7 L23.25 -1.3 M-50.3 0.55 L-42.85 -1.95" fill="none" stroke="#000000" stroke-linecap="round" stroke-linejoin="round" stroke-opacity="0.29803923" stroke-width="2.0"/>
  </g>
</svg>
