<?xml version="1.0" encoding="UTF-8" standalone="no"?>
<svg xmlns:ffdec="https://www.free-decompiler.com/flash" xmlns:xlink="http://www.w3.org/1999/xlink" ffdec:objectType="shape" height="19.0px" width="53.35px" xmlns="http://www.w3.org/2000/svg">
  <g transform="matrix(1.0, 0.0, 0.0, 1.0, 33.05, 4.35)">
    <path d="M-15.5 -3.3 Q-8.45 -3.75 -1.0 -0.25 2.65 1.5 5.05 3.3 L-2.7 4.5 Q-13.2 6.05 -24.65 6.0 -25.15 3.85 -24.15 1.6 -22.4 -2.85 -15.5 -3.3" fill="#ff3300" fill-rule="evenodd" stroke="none"/>
    <path d="M-15.5 -3.3 Q-22.4 -2.85 -24.15 1.6 -25.15 3.85 -24.65 6.0 -13.2 6.05 -2.7 4.5 L5.05 3.3 Q2.65 1.5 -1.0 -0.25 -8.45 -3.75 -15.5 -3.3 Z" fill="none" stroke="#cc2800" stroke-linecap="round" stroke-linejoin="round" stroke-width="2.0"/>
    <path d="M-21.55 6.3 Q-21.45 8.55 -19.55 10.6 -15.6 14.6 -6.05 13.35 -0.25 12.65 1.95 8.0 3.15 5.75 3.1 3.5 L-16.0 6.1 -21.55 6.3" fill="#ff3300" fill-rule="evenodd" stroke="none"/>
    <path d="M-21.55 6.3 Q-21.45 8.55 -19.55 10.6 -15.6 14.6 -6.05 13.35 -0.25 12.65 1.95 8.0 3.15 5.75 3.1 3.5 L-16.0 6.1 -21.55 6.3 Z" fill="none" stroke="#cc2800" stroke-linecap="round" stroke-linejoin="round" stroke-width="2.0"/>
    <path d="M19.3 7.05 Q18.3 5.7 15.25 4.4 8.8 2.15 -3.05 4.45 -15.0 6.8 -32.05 6.6" fill="none" stroke="#cc2800" stroke-linecap="butt" stroke-linejoin="miter-clip" stroke-miterlimit="4.0" stroke-width="2.0"/>
  </g>
</svg>
