<?xml version="1.0" encoding="UTF-8" standalone="no"?>
<svg xmlns:ffdec="https://www.free-decompiler.com/flash" xmlns:xlink="http://www.w3.org/1999/xlink" ffdec:objectType="shape" height="35.9px" width="73.35px" xmlns="http://www.w3.org/2000/svg">
  <g transform="matrix(1.0, 0.0, 0.0, 1.0, 47.9, 17.25)">
    <path d="M13.75 -0.65 Q10.55 4.75 4.4 6.8 -6.25 10.45 -15.25 9.4 -24.4 8.4 -29.3 5.55 -34.3 2.6 -36.25 -3.05 -34.45 -2.3 -29.85 -2.25 L-20.05 -2.95 Q-1.4 -5.55 15.45 -14.3 17.95 -7.7 13.75 -0.65" fill="#ffffff" fill-rule="evenodd" stroke="none"/>
    <path d="M24.45 -13.45 Q24.0 -14.65 23.25 -15.2 22.5 -15.9 21.15 -16.2 L18.15 -15.95 13.85 -13.8 Q4.9 -8.9 -9.35 -5.15 L-10.85 -4.75 Q-10.0 -1.3 -10.0 2.3 -2.65 1.7 3.9 -0.55 4.55 -4.65 3.85 -8.8 M15.0 -5.95 Q9.8 -2.55 3.9 -0.55 3.15 3.65 1.0 7.9 L4.4 6.8 Q10.55 4.75 13.75 -0.65 17.95 -7.7 15.45 -14.3 M-10.85 -4.75 Q-25.1 -1.25 -34.15 -2.6 L-36.15 -2.9 Q-35.55 -1.1 -34.6 0.4 L-23.65 2.15 -24.35 -1.55 M-46.9 -8.6 Q-46.4 -7.35 -44.7 -6.1 -41.65 -4.0 -36.15 -2.9 M-10.65 9.35 Q-9.95 5.75 -10.0 2.3 -16.45 2.85 -23.65 2.15 L-21.95 7.3 M-34.6 0.4 Q-32.6 3.6 -29.3 5.55 -24.4 8.4 -15.25 9.4 -7.75 10.25 1.0 7.9" fill="none" stroke="#000000" stroke-linecap="round" stroke-linejoin="round" stroke-opacity="0.49803922" stroke-width="2.0"/>
    <path d="M12.7 -13.4 Q3.95 -8.75 -9.55 -5.2 L-11.1 -4.8 -17.9 -3.35 -20.25 -2.95 -21.0 -2.85 -29.3 -2.25 -34.4 -2.6 -35.4 -2.75 -36.45 -3.15 -36.4 -2.95 -38.8 -3.45 Q-42.35 -4.45 -44.6 -5.95 L-42.9 -6.55 Q-35.8 -9.25 -23.75 -8.55 -17.65 -8.15 -15.6 -7.15 -10.15 -13.15 2.3 -13.8 L12.7 -13.4" fill="#b4657b" fill-rule="evenodd" stroke="none"/>
    <path d="M12.7 -13.4 Q3.95 -8.75 -9.55 -5.2 L-11.1 -4.8 -17.9 -3.35 -20.25 -2.95 -21.0 -2.85 -29.3 -2.25 -34.4 -2.6 -35.4 -2.75 -36.45 -3.15 -36.4 -2.95 -38.8 -3.45 Q-42.35 -4.45 -44.6 -5.95 L-42.9 -6.55 Q-35.8 -9.25 -23.75 -8.55 -17.65 -8.15 -15.6 -7.15 -10.15 -13.15 2.3 -13.8 L12.7 -13.4 Z" fill="none" stroke="#000000" stroke-linecap="round" stroke-linejoin="round" stroke-opacity="0.29803923" stroke-width="2.0"/>
    <path d="M17.4 -15.75 Q18.05 -12.45 17.95 -8.1 17.8 0.7 12.4 9.15 7.0 17.6 -11.35 17.65 -29.7 17.75 -33.9 9.4 -38.15 1.05 -38.8 -3.45 L-36.4 -2.95 Q-35.45 -0.3 -33.8 1.75 L-29.95 5.2 -29.85 5.25 -29.75 5.35 -29.6 5.45 -29.5 5.45 Q-24.6 8.4 -15.5 9.4 L-14.25 9.55 -13.95 9.6 -1.2 8.35 0.75 7.85 2.5 7.35 4.2 6.75 Q10.35 4.65 13.55 -0.7 17.25 -6.9 15.8 -12.7 L15.3 -14.35 17.4 -15.75" fill="#b4657b" fill-rule="evenodd" stroke="none"/>
    <path d="M17.4 -15.75 Q18.05 -12.45 17.95 -8.1 17.8 0.7 12.4 9.15 7.0 17.6 -11.35 17.65 -29.7 17.75 -33.9 9.4 -38.15 1.05 -38.8 -3.45 L-36.4 -2.95 Q-35.45 -0.3 -33.8 1.75 L-29.95 5.2 -29.85 5.25 -29.75 5.35 -29.6 5.45 -29.5 5.45 Q-24.6 8.4 -15.5 9.4 L-14.25 9.55 -13.95 9.6 -1.2 8.35 0.75 7.85 2.5 7.35 4.2 6.75 Q10.35 4.65 13.55 -0.7 17.25 -6.9 15.8 -12.7 L15.3 -14.35 17.4 -15.75 17.9 -15.95" fill="none" stroke="#000000" stroke-linecap="round" stroke-linejoin="round" stroke-opacity="0.29803923" stroke-width="2.0"/>
    <path d="M-8.8 14.45 Q-10.15 15.1 -12.05 15.1 L-15.4 14.55 Q-16.85 14.0 -16.95 13.15 -17.0 12.35 -15.7 11.75 -14.4 11.15 -12.45 11.15 L-9.1 11.65 Q-7.6 12.25 -7.55 13.05 -7.45 13.9 -8.8 14.45" fill="#ffffff" fill-opacity="0.4" fill-rule="evenodd" stroke="none"/>
  </g>
</svg>
