<?xml version="1.0" encoding="UTF-8" standalone="no"?>
<svg xmlns:ffdec="https://www.free-decompiler.com/flash" xmlns:xlink="http://www.w3.org/1999/xlink" ffdec:objectType="shape" height="23.0px" width="75.8px" xmlns="http://www.w3.org/2000/svg">
  <g transform="matrix(1.0, 0.0, 0.0, 1.0, 57.3, 8.25)">
    <path d="M-31.75 1.85 Q-29.4 -3.6 -25.95 -4.25 L-20.0 -4.0 Q-17.5 -3.15 -16.2 -0.5 -15.7 -2.65 -12.5 -3.75 -9.35 -4.9 -6.35 -4.4 -3.4 -3.95 -1.35 -2.75 L4.55 0.9 0.95 1.85 2.3 2.0 Q1.9 7.45 -1.85 10.1 -5.6 12.7 -12.55 13.55 -19.55 14.35 -24.3 11.75 -29.05 9.1 -26.65 2.65 L-31.75 1.85" fill="#f13871" fill-rule="evenodd" stroke="none"/>
    <path d="M4.55 0.9 L-1.35 -2.75 Q-3.4 -3.95 -6.35 -4.4 -9.35 -4.9 -12.5 -3.75 -15.7 -2.65 -16.2 -0.5 -17.5 -3.15 -20.0 -4.0 L-25.95 -4.25 Q-29.4 -3.6 -31.75 1.85 M-26.65 2.65 Q-29.05 9.1 -24.3 11.75 -19.55 14.35 -12.55 13.55 -5.6 12.7 -1.85 10.1 1.9 7.45 2.3 2.0" fill="none" stroke="#000000" stroke-linecap="round" stroke-linejoin="round" stroke-opacity="0.29803923" stroke-width="2.0"/>
    <path d="M-16.4 10.9 Q-17.8 11.5 -19.75 11.35 -21.7 11.15 -23.1 10.3 -24.5 9.5 -24.5 8.5 -24.5 7.45 -23.1 6.85 -21.7 6.3 -19.75 6.5 -17.8 6.65 -16.4 7.45 -15.0 8.3 -15.0 9.35 -15.0 10.35 -16.4 10.9" fill="#ffffff" fill-opacity="0.4" fill-rule="evenodd" stroke="none"/>
    <path d="M-53.7 -8.25 Q-52.15 -8.25 -51.15 -7.2 -50.05 -6.1 -50.05 -4.6 -50.05 -3.1 -51.15 -2.05 -52.15 -1.0 -53.7 -1.0 -55.2 -1.0 -56.3 -2.05 -57.3 -3.1 -57.3 -4.6 -57.3 -6.1 -56.3 -7.2 -55.2 -8.25 -53.7 -8.25" fill="#000000" fill-opacity="0.49803922" fill-rule="evenodd" stroke="none"/>
    <path d="M-41.45 0.65 Q1.4 8.15 13.4 -4.0 L17.5 1.15" fill="none" stroke="#000000" stroke-linecap="round" stroke-linejoin="round" stroke-opacity="0.29803923" stroke-width="2.0"/>
  </g>
</svg>
