<?xml version="1.0" encoding="UTF-8" standalone="no"?>
<svg xmlns:ffdec="https://www.free-decompiler.com/flash" xmlns:xlink="http://www.w3.org/1999/xlink" ffdec:objectType="shape" height="21.3px" width="69.05px" xmlns="http://www.w3.org/2000/svg">
  <g transform="matrix(1.0, 0.0, 0.0, 1.0, 42.85, 9.0)">
    <path d="M22.55 -8.25 Q24.1 -8.25 25.1 -7.2 26.2 -6.1 26.2 -4.6 26.2 -3.1 25.1 -2.05 24.1 -1.0 22.55 -1.0 21.05 -1.0 19.95 -2.05 18.95 -3.1 18.95 -4.6 18.95 -6.1 19.95 -7.2 21.05 -8.25 22.55 -8.25" fill="#000000" fill-opacity="0.49803922" fill-rule="evenodd" stroke="none"/>
    <path d="M-28.7 -7.75 L-22.75 -7.5 Q-20.25 -6.65 -18.95 -4.0 -18.45 -6.15 -14.75 -7.35 -11.05 -8.6 -8.15 -7.3 -5.25 -6.0 -3.85 -4.6 -2.5 -3.2 -0.95 -0.45 -4.4 -0.3 -5.85 0.5 -3.45 4.95 -7.2 7.85 -10.95 10.7 -16.5 11.25 -22.1 11.7 -27.3 8.5 -32.45 5.2 -29.35 0.4 -30.7 -0.7 -34.5 -0.95 -32.15 -7.1 -28.7 -7.75" fill="#e49ecf" fill-rule="evenodd" stroke="none"/>
    <path d="M-19.15 6.7 L-22.5 7.0 Q-24.45 6.8 -25.85 6.1 -27.25 5.4 -27.25 4.55 -27.25 3.7 -25.85 3.25 L-22.5 3.0 Q-20.55 3.15 -19.15 3.85 -17.75 4.55 -17.75 5.4 -17.75 6.25 -19.15 6.7" fill="#ffffff" fill-opacity="0.4" fill-rule="evenodd" stroke="none"/>
    <path d="M-41.85 -2.6 Q-35.55 -0.65 -29.35 0.35 -17.4 2.25 -5.85 0.45 L-0.95 -0.5 Q-2.5 -3.2 -3.85 -4.6 -5.25 -6.0 -8.15 -7.3 -11.05 -8.6 -14.75 -7.35 -18.45 -6.15 -18.95 -4.0 -20.25 -6.65 -22.75 -7.5 L-28.7 -7.75 Q-32.15 -7.1 -34.5 -0.95 M-29.35 0.35 Q-32.45 5.2 -27.3 8.5 -22.1 11.7 -16.5 11.25 -10.95 10.7 -7.2 7.85 -3.45 4.95 -5.85 0.45 M8.65 -3.4 Q3.85 -1.6 -0.95 -0.5" fill="none" stroke="#000000" stroke-linecap="round" stroke-linejoin="round" stroke-opacity="0.33333334" stroke-width="2.0"/>
  </g>
</svg>
