<?xml version="1.0" encoding="UTF-8" standalone="no"?>
<svg xmlns:ffdec="https://www.free-decompiler.com/flash" xmlns:xlink="http://www.w3.org/1999/xlink" ffdec:objectType="shape" height="32.3px" width="70.75px" xmlns="http://www.w3.org/2000/svg">
  <g transform="matrix(1.0, 0.0, 0.0, 1.0, 47.35, 11.7)">
    <path d="M-26.85 16.5 L-20.7 18.25 Q-10.9 20.25 -1.2 17.55" fill="none" stroke="#000000" stroke-linecap="round" stroke-linejoin="miter-clip" stroke-miterlimit="4.0" stroke-opacity="0.29803923" stroke-width="3.0"/>
    <path d="M15.95 -10.7 L19.4 -9.3 Q22.8 -7.4 22.35 -4.3" fill="none" stroke="#000000" stroke-linecap="butt" stroke-linejoin="miter-clip" stroke-miterlimit="4.0" stroke-opacity="0.29803923" stroke-width="2.0"/>
    <path d="M16.15 -5.35 Q13.4 -0.4 7.65 2.9 -1.1 7.95 -15.0 7.75 -20.05 7.7 -25.65 6.35 -36.9 3.7 -40.25 -2.9 L-31.3 -3.65 Q-25.05 -3.85 -22.25 -2.9 -19.5 -2.0 -16.5 -2.2 -13.5 -2.4 -9.75 -3.45 -6.0 -4.55 1.0 -4.85 7.95 -5.15 10.75 -4.7 13.5 -4.3 16.15 -5.35" fill="#ffffff" fill-rule="evenodd" stroke="none"/>
    <path d="M20.65 -7.15 L17.15 -5.75 16.15 -5.35" fill="none" stroke="#000000" stroke-linecap="butt" stroke-linejoin="miter-clip" stroke-miterlimit="4.0" stroke-opacity="0.29803923" stroke-width="2.0"/>
    <path d="M16.15 -5.35 Q13.4 -0.4 7.65 2.9 -1.1 7.95 -15.0 7.75 -20.05 7.7 -25.65 6.35 -36.9 3.7 -40.25 -2.9 L-31.3 -3.65 Q-25.05 -3.85 -22.25 -2.9 -19.5 -2.0 -16.5 -2.2 -13.5 -2.4 -9.75 -3.45 -6.0 -4.55 1.0 -4.85 7.95 -5.15 10.75 -4.7 13.5 -4.3 16.15 -5.35" fill="none" stroke="#000000" stroke-linecap="round" stroke-linejoin="miter-clip" stroke-miterlimit="4.0" stroke-opacity="0.29803923" stroke-width="2.0"/>
    <path d="M-40.25 -2.9 L-46.35 -2.4" fill="none" stroke="#000000" stroke-linecap="round" stroke-linejoin="miter-clip" stroke-miterlimit="4.0" stroke-opacity="0.29803923" stroke-width="2.0"/>
  </g>
</svg>
