<?xml version="1.0" encoding="UTF-8" standalone="no"?>
<svg xmlns:ffdec="https://www.free-decompiler.com/flash" xmlns:xlink="http://www.w3.org/1999/xlink" ffdec:objectType="shape" height="31.55px" width="35.35px" xmlns="http://www.w3.org/2000/svg">
  <g transform="matrix(1.0, 0.0, 0.0, 1.0, 35.3, 12.5)">
    <path d="M-27.5 17.3 L-29.5 16.55 Q-36.25 12.25 -33.55 6.65 -32.65 4.85 -31.0 3.15 L-29.5 1.8 Q-30.85 1.1 -31.5 -1.65 L-32.0 -4.3 Q-31.5 -9.95 -26.4 -10.65 -23.85 -11.0 -21.45 -10.2 -14.05 -13.75 -7.1 -7.45 -3.6 -4.3 -1.6 -0.45 -0.15 3.25 -1.9 7.0 -2.8 9.0 -3.95 10.2 -12.65 17.95 -21.95 18.05 -24.85 18.05 -27.5 17.3" fill="#ff9900" fill-rule="evenodd" stroke="none"/>
    <path d="M-27.5 17.3 Q-24.85 18.05 -21.95 18.05 -12.65 17.95 -3.95 10.2 -2.8 9.0 -1.9 7.0 -0.15 3.25 -1.6 -0.45 -3.6 -4.3 -7.1 -7.45 -14.05 -13.75 -21.45 -10.2 -23.85 -11.0 -26.4 -10.65 -31.5 -9.95 -32.0 -4.3 L-31.5 -1.65 Q-30.85 1.1 -29.5 1.8 L-31.0 3.15 Q-32.65 4.85 -33.55 6.65 -36.25 12.25 -29.5 16.55 L-27.5 17.3 Z" fill="none" stroke="#000000" stroke-linecap="round" stroke-linejoin="round" stroke-opacity="0.29803923" stroke-width="2.0"/>
    <path d="M-10.1 2.25 Q-14.15 4.9 -18.7 4.9 -22.35 4.9 -23.85 3.55 -25.35 2.25 -24.1 0.5 -22.65 -1.6 -17.8 -1.9 -13.25 -2.25 -11.25 0.0 -10.2 1.1 -10.1 2.25" fill="#000000" fill-opacity="0.8" fill-rule="evenodd" stroke="none"/>
    <path d="M-10.1 2.25 Q-10.2 1.1 -11.25 0.0 -13.25 -2.25 -17.8 -1.9 -22.65 -1.6 -24.1 0.5 -25.35 2.25 -23.85 3.55 -22.35 4.9 -18.7 4.9 -14.15 4.9 -10.1 2.25 Z" fill="none" stroke="#000000" stroke-linecap="round" stroke-linejoin="round" stroke-opacity="0.29803923" stroke-width="1.0"/>
    <path d="M-18.4 13.0 Q-20.05 13.9 -22.35 13.8 -24.65 13.75 -26.35 12.75 -28.05 11.8 -28.15 10.45 -28.25 9.1 -26.65 8.2 -25.1 7.35 -22.8 7.4 -20.5 7.5 -18.7 8.45 -17.0 9.45 -16.9 10.8 -16.8 12.15 -18.4 13.0" fill="#ffffff" fill-opacity="0.4" fill-rule="evenodd" stroke="none"/>
  </g>
</svg>
