<?xml version="1.0" encoding="UTF-8" standalone="no"?>
<svg xmlns:ffdec="https://www.free-decompiler.com/flash" xmlns:xlink="http://www.w3.org/1999/xlink" ffdec:objectType="shape" height="18.8px" width="53.15px" xmlns="http://www.w3.org/2000/svg">
  <g transform="matrix(1.0, 0.0, 0.0, 1.0, 32.8, 3.65)">
    <path d="M19.35 4.4 Q18.2 3.15 15.0 2.2 8.35 0.65 -3.2 4.15 -14.8 7.7 -31.8 9.3" fill="none" stroke="#000000" stroke-linecap="butt" stroke-linejoin="miter-clip" stroke-miterlimit="4.0" stroke-opacity="0.29803923" stroke-width="2.0"/>
    <path d="M-24.5 7.9 Q-25.2 5.85 -24.45 3.5 -23.2 -1.1 -16.35 -2.3 -9.4 -3.45 -1.65 -0.75 2.2 0.6 4.75 2.2 L2.85 2.7 Q3.1 4.85 2.2 7.15 0.45 12.05 -5.2 13.35 -14.6 15.5 -18.95 12.0 -21.05 10.15 -21.4 7.9 L-21.2 7.55 -24.5 7.9" fill="#970202" fill-opacity="0.4" fill-rule="evenodd" stroke="none"/>
    <path d="M4.75 2.2 Q2.2 0.6 -1.65 -0.75 -9.4 -3.45 -16.35 -2.3 -23.2 -1.1 -24.45 3.5 -25.2 5.85 -24.5 7.9 M-21.4 7.9 Q-21.05 10.15 -18.95 12.0 -14.6 15.5 -5.2 13.35 0.45 12.05 2.2 7.15 3.1 4.85 2.85 2.7" fill="none" stroke="#000000" stroke-linecap="round" stroke-linejoin="round" stroke-opacity="0.29803923" stroke-width="2.0"/>
    <path d="M-8.5 11.8 Q-9.9 12.5 -11.95 12.55 L-15.45 12.05 Q-17.0 11.5 -17.05 10.6 -17.15 9.7 -15.8 9.0 -14.4 8.4 -12.4 8.3 L-8.85 8.75 Q-7.3 9.35 -7.2 10.25 -7.15 11.15 -8.5 11.8" fill="#ffffff" fill-opacity="0.4" fill-rule="evenodd" stroke="none"/>
  </g>
</svg>
