<?xml version="1.0" encoding="UTF-8" standalone="no"?>
<svg xmlns:ffdec="https://www.free-decompiler.com/flash" xmlns:xlink="http://www.w3.org/1999/xlink" ffdec:objectType="shape" height="22.7px" width="59.85px" xmlns="http://www.w3.org/2000/svg">
  <g transform="matrix(1.0, 0.0, 0.0, 1.0, 33.4, 6.85)">
    <path d="M6.4 5.45 Q6.15 7.9 2.2 11.35 -1.75 14.7 -9.1 14.85 -16.45 15.05 -18.7 11.55 -20.95 7.9 -20.8 5.4 L-14.7 5.9 6.4 5.45" fill="#ff3300" fill-rule="evenodd" stroke="none"/>
    <path d="M-20.8 5.4 Q-20.95 7.9 -18.7 11.55 -16.45 15.05 -9.1 14.85 -1.75 14.7 2.2 11.35 6.15 7.9 6.4 5.45" fill="none" stroke="#cc2800" stroke-linecap="round" stroke-linejoin="round" stroke-width="2.0"/>
    <path d="M-23.5 6.25 Q-22.75 2.05 -20.4 -0.8 -18.05 -3.55 -10.5 -3.1 -3.15 -2.55 1.3 0.6 5.8 3.75 7.8 5.65 L-0.65 5.35 -23.5 6.25" fill="#ff3300" fill-rule="evenodd" stroke="none"/>
    <path d="M7.8 5.65 Q5.8 3.75 1.3 0.6 -3.15 -2.55 -10.5 -3.1 -18.05 -3.55 -20.4 -0.8 -22.75 2.05 -23.5 6.25" fill="none" stroke="#cc2800" stroke-linecap="round" stroke-linejoin="round" stroke-width="2.0"/>
    <path d="M-32.4 8.55 Q-28.8 6.95 -24.4 6.35 -19.9 5.7 -5.1 6.15 9.7 6.6 15.85 3.85 21.9 1.0 25.45 -5.85" fill="none" stroke="#cc2800" stroke-linecap="round" stroke-linejoin="miter-clip" stroke-miterlimit="4.0" stroke-width="2.0"/>
  </g>
</svg>
