<?xml version="1.0" encoding="UTF-8" standalone="no"?>
<svg xmlns:ffdec="https://www.free-decompiler.com/flash" xmlns:xlink="http://www.w3.org/1999/xlink" ffdec:objectType="shape" height="24.75px" width="74.5px" xmlns="http://www.w3.org/2000/svg">
  <g transform="matrix(1.0, 0.0, 0.0, 1.0, 56.55, 11.3)">
    <path d="M-27.15 -6.4 Q-23.65 -7.15 -21.0 -6.3 -18.4 -5.5 -17.05 -2.85 -16.5 -5.0 -12.7 -6.3 -8.85 -7.6 -5.85 -6.4 -2.85 -5.15 -1.4 -3.75 0.0 -2.4 1.6 0.3 -1.95 0.55 -3.45 1.35 -0.95 5.75 -4.85 8.75 -8.75 11.65 -14.5 12.35 -20.3 12.9 -25.7 9.8 -31.05 6.6 -27.85 1.75 -29.25 0.7 -33.15 0.5 -30.75 -5.7 -27.15 -6.4" fill="#773cb3" fill-opacity="0.49803922" fill-rule="evenodd" stroke="none"/>
    <path d="M-16.35 8.8 Q-17.8 9.55 -19.85 9.45 -21.85 9.3 -23.3 8.35 -24.75 7.5 -24.75 6.35 -24.75 5.15 -23.3 4.45 L-19.85 3.95 Q-17.8 4.05 -16.35 4.9 -14.9 5.8 -14.9 7.0 -14.9 8.15 -16.35 8.8" fill="#ffffff" fill-opacity="0.4" fill-rule="evenodd" stroke="none"/>
    <path d="M-40.35 2.05 Q-33.95 -0.05 -27.8 1.7 -15.4 3.35 -3.45 1.3 L1.6 0.25 Q0.0 -2.4 -1.4 -3.75 -2.85 -5.15 -5.85 -6.4 -8.85 -7.6 -12.7 -6.3 -16.55 -5.0 -17.05 -2.85 -18.45 -5.5 -21.0 -6.25 L-27.15 -6.4 Q-30.75 -5.7 -33.15 0.5 M-27.8 1.7 Q-31.05 6.65 -25.7 9.8 -20.3 12.9 -14.5 12.35 -8.75 11.7 -4.9 8.75 -0.95 5.75 -3.45 1.3 M16.95 4.3 Q9.0 -2.2 1.6 0.25" fill="none" stroke="#000000" stroke-linecap="round" stroke-linejoin="round" stroke-opacity="0.33333334" stroke-width="2.0"/>
    <path d="M-52.95 -11.3 Q-51.4 -11.3 -50.4 -10.25 -49.3 -9.15 -49.3 -7.65 -49.3 -6.15 -50.4 -5.1 -51.4 -4.05 -52.95 -4.05 -54.45 -4.05 -55.55 -5.1 -56.55 -6.15 -56.55 -7.65 -56.55 -9.15 -55.55 -10.25 -54.45 -11.3 -52.95 -11.3" fill="#000000" fill-opacity="0.49803922" fill-rule="evenodd" stroke="none"/>
  </g>
</svg>
