<?xml version="1.0" encoding="UTF-8" standalone="no"?>
<svg xmlns:ffdec="https://www.free-decompiler.com/flash" xmlns:xlink="http://www.w3.org/1999/xlink" ffdec:objectType="shape" height="28.65px" width="77.15px" xmlns="http://www.w3.org/2000/svg">
  <g transform="matrix(1.0, 0.0, 0.0, 1.0, 51.45, 13.0)">
    <path d="M-0.85 -8.4 Q18.95 -15.6 22.95 -8.4 26.9 -1.3 22.0 4.35 16.9 10.0 5.45 12.3 -6.0 14.55 -16.0 14.65 -26.0 14.75 -33.0 10.3 -40.0 5.85 -40.35 -4.15 -20.75 -1.05 -0.85 -8.4" fill="#ffffff" fill-rule="evenodd" stroke="none"/>
    <path d="M-0.85 -8.4 Q-20.75 -1.05 -40.35 -4.15 -40.0 5.85 -33.0 10.3 -26.0 14.75 -16.0 14.65 -6.0 14.55 5.45 12.3 16.9 10.0 22.0 4.35 26.9 -1.3 22.95 -8.4 18.95 -15.6 -0.85 -8.4 Z" fill="none" stroke="#000000" stroke-linecap="round" stroke-linejoin="round" stroke-opacity="0.49803922" stroke-width="2.0"/>
    <path d="M-50.45 -6.85 Q-46.15 -5.1 -41.35 -4.3" fill="none" stroke="#000000" stroke-linecap="round" stroke-linejoin="round" stroke-opacity="0.49803922" stroke-width="2.0"/>
    <path d="M8.2 -10.05 Q10.1 -4.9 10.6 0.3 17.6 -2.05 23.85 -5.45 M-6.2 12.6 Q-5.8 8.3 -6.1 4.0 L-24.85 4.85 -24.0 12.8 M10.65 9.7 Q11.2 5.0 10.6 0.3 2.7 2.9 -6.1 4.0 -6.45 -0.45 -7.55 -4.9 M-37.3 3.8 Q-32.8 5.0 -24.85 4.85 L-25.65 -2.45" fill="none" stroke="#000000" stroke-linecap="round" stroke-linejoin="round" stroke-opacity="0.49803922" stroke-width="2.0"/>
  </g>
</svg>
