<?xml version="1.0" encoding="UTF-8" standalone="no"?>
<svg xmlns:ffdec="https://www.free-decompiler.com/flash" xmlns:xlink="http://www.w3.org/1999/xlink" ffdec:objectType="shape" height="33.3px" width="84.7px" xmlns="http://www.w3.org/2000/svg">
  <g transform="matrix(1.0, 0.0, 0.0, 1.0, 41.2, 15.15)">
    <path d="M-12.6 4.05 L-13.8 16.85 Q-21.4 17.55 -29.0 16.7 L-30.1 3.6 Q-21.05 4.6 -12.6 4.05" fill="#ffffff" fill-rule="evenodd" stroke="none"/>
    <path d="M-12.6 4.05 L-13.8 16.85 Q-21.4 17.55 -29.0 16.7 L-30.1 3.6" fill="none" stroke="#000000" stroke-linecap="round" stroke-linejoin="round" stroke-opacity="0.49803922" stroke-width="2.0"/>
    <path d="M9.8 -0.45 L9.6 15.2 -5.8 16.25 -7.0 3.2 Q1.7 2.35 9.8 -0.45" fill="#ffffff" fill-rule="evenodd" stroke="none"/>
    <path d="M-7.0 3.2 L-5.8 16.25 9.6 15.2 9.8 -0.45" fill="none" stroke="#000000" stroke-linecap="round" stroke-linejoin="round" stroke-opacity="0.49803922" stroke-width="2.0"/>
    <path d="M-40.2 1.15 Q-35.7 2.5 -28.3 3.2 -13.4 4.75 1.25 1.5 16.9 -2.0 25.15 -8.4 29.3 -11.55 31.05 -13.9 36.85 -10.65 42.5 -10.25" fill="none" stroke="#000000" stroke-linecap="round" stroke-linejoin="miter-clip" stroke-miterlimit="4.0" stroke-opacity="0.49803922" stroke-width="2.0"/>
  </g>
</svg>
