<?xml version="1.0" encoding="UTF-8" standalone="no"?>
<svg xmlns:ffdec="https://www.free-decompiler.com/flash" xmlns:xlink="http://www.w3.org/1999/xlink" ffdec:objectType="shape" height="20.55px" width="75.45px" xmlns="http://www.w3.org/2000/svg">
  <g transform="matrix(1.0, 0.0, 0.0, 1.0, 50.5, 11.65)">
    <path d="M14.4 -5.45 Q24.2 -0.3 23.4 3.5 22.55 7.3 11.5 6.9 0.45 6.5 -14.15 6.65 -28.75 6.75 -37.4 7.3 -46.1 7.9 -48.15 5.35 -50.2 2.75 -47.25 -0.6 -44.3 -4.05 -37.3 -6.8 -30.3 -9.65 -12.85 -10.1 4.65 -10.6 14.4 -5.45" fill="#000000" fill-opacity="0.49803922" fill-rule="evenodd" stroke="none"/>
    <path d="M14.4 -5.45 Q24.2 -0.3 23.4 3.5 22.55 7.3 11.5 6.9 0.45 6.5 -14.15 6.65 -28.75 6.75 -37.4 7.3 -46.1 7.9 -48.15 5.35 -50.2 2.75 -47.25 -0.6 -44.3 -4.05 -37.3 -6.8 -30.3 -9.65 -12.85 -10.1 4.65 -10.6 14.4 -5.45 Z" fill="none" stroke="#000000" stroke-linecap="round" stroke-linejoin="round" stroke-opacity="0.49803922" stroke-width="3.0"/>
    <path d="M9.5 3.7 Q11.5 5.3 12.0 6.2 1.55 5.7 -13.05 5.85 -12.2 4.15 -9.2 2.55 -6.3 1.0 0.6 1.55 7.35 2.1 9.5 3.7" fill="#bd3222" fill-rule="evenodd" stroke="none"/>
  </g>
</svg>
