<?xml version="1.0" encoding="UTF-8" standalone="no"?>
<svg xmlns:ffdec="https://www.free-decompiler.com/flash" xmlns:xlink="http://www.w3.org/1999/xlink" ffdec:objectType="shape" height="35.5px" width="46.6px" xmlns="http://www.w3.org/2000/svg">
  <g transform="matrix(1.0, 0.0, 0.0, 1.0, 36.7, 23.55)">
    <path d="M-23.15 -7.4 Q-20.75 -6.8 -18.35 -5.5 -16.0 -4.25 -17.2 -4.0 -18.4 -3.8 -24.05 -5.55 L-32.0 -5.75 Q-34.35 -4.15 -35.35 -4.05 -36.4 -4.0 -34.4 -5.8 -32.4 -7.6 -29.0 -7.8 L-23.15 -7.4" fill="#000000" fill-opacity="0.49803922" fill-rule="evenodd" stroke="none"/>
    <path d="M-23.15 -7.4 Q-20.75 -6.8 -18.35 -5.5 -16.0 -4.25 -17.2 -4.0 -18.4 -3.8 -24.05 -5.55 L-32.0 -5.75 Q-34.35 -4.15 -35.35 -4.05 -36.4 -4.0 -34.4 -5.8 -32.4 -7.6 -29.0 -7.8 L-23.15 -7.4 Z" fill="none" stroke="#000000" stroke-linecap="round" stroke-linejoin="miter-clip" stroke-miterlimit="3.0" stroke-opacity="0.49803922" stroke-width="2.0"/>
    <path d="M-5.65 10.95 Q-12.65 5.25 -12.65 -2.75 -12.65 -11.05 -5.1 -17.0 0.9 -21.65 8.9 -22.55" fill="none" stroke="#000000" stroke-linecap="round" stroke-linejoin="round" stroke-opacity="0.105882354" stroke-width="2.0"/>
  </g>
</svg>
