<?xml version="1.0" encoding="UTF-8" standalone="no"?>
<svg xmlns:ffdec="https://www.free-decompiler.com/flash" xmlns:xlink="http://www.w3.org/1999/xlink" ffdec:objectType="shape" height="34.1px" width="51.65px" xmlns="http://www.w3.org/2000/svg">
  <g transform="matrix(1.0, 0.0, 0.0, 1.0, 37.35, 22.45)">
    <path d="M-18.9 6.55 Q-27.6 14.8 -36.25 6.55" fill="none" stroke="#000000" stroke-linecap="round" stroke-linejoin="round" stroke-opacity="0.29803923" stroke-width="2.0"/>
    <path d="M-21.85 -11.7 Q-19.5 -9.25 -19.5 -5.85 -19.5 -2.45 -21.85 -0.1 -24.3 2.35 -27.65 2.35 -31.05 2.35 -33.4 -0.1 -35.85 -2.45 -35.85 -5.85 -35.85 -9.25 -33.4 -11.7 -31.05 -14.05 -27.65 -14.05 -24.3 -14.05 -21.85 -11.7" fill="#000000" fill-opacity="0.49803922" fill-rule="evenodd" stroke="none"/>
    <path d="M-21.85 -11.7 Q-24.3 -14.05 -27.65 -14.05 -31.05 -14.05 -33.4 -11.7 -35.85 -9.25 -35.85 -5.85 -35.85 -2.45 -33.4 -0.1 -31.05 2.35 -27.65 2.35 -24.3 2.35 -21.85 -0.1 -19.5 -2.45 -19.5 -5.85 -19.5 -9.25 -21.85 -11.7 Z" fill="none" stroke="#000000" stroke-linecap="round" stroke-linejoin="miter-clip" stroke-miterlimit="3.0" stroke-opacity="0.49803922" stroke-width="3.0"/>
    <path d="M0.6 7.85 Q-5.5 2.85 -5.5 -4.1 -5.5 -11.4 1.1 -16.55 6.3 -20.65 13.3 -21.45" fill="none" stroke="#000000" stroke-linecap="round" stroke-linejoin="round" stroke-opacity="0.10980392" stroke-width="2.0"/>
  </g>
</svg>
