<?xml version="1.0" encoding="UTF-8" standalone="no"?>
<svg xmlns:ffdec="https://www.free-decompiler.com/flash" xmlns:xlink="http://www.w3.org/1999/xlink" ffdec:objectType="shape" height="33.85px" width="103.8px" xmlns="http://www.w3.org/2000/svg">
  <g transform="matrix(1.0, 0.0, 0.0, 1.0, 65.05, 17.9)">
    <path d="M-49.85 -15.65 Q-46.25 -15.5 -39.25 -13.4 L-36.85 -12.75 -36.3 -12.55 Q-27.1 -9.8 -20.65 -9.6 L-18.25 -9.65 -17.6 -9.7 Q-11.45 -10.1 -3.4 -11.85 L-1.25 -12.3 3.45 -13.45 Q5.55 -14.0 7.35 -14.65 10.3 -15.65 13.4 -16.2 L14.7 -16.45 22.6 -16.75 22.65 -16.75 Q35.2 -14.95 37.35 -8.8 L37.7 -7.2 Q38.5 -0.65 29.35 4.7 L26.55 6.2 26.5 6.2 Q19.1 9.85 10.15 12.0 L3.7 13.25 -8.05 14.65 -14.75 14.95 -21.75 14.85 Q-29.7 14.45 -36.75 12.75 -42.5 11.4 -47.55 9.25 L-49.7 8.3 Q-53.7 6.4 -56.6 4.45 -59.6 2.5 -61.45 0.4 -65.05 -3.75 -63.7 -8.0 L-63.65 -8.15 Q-62.6 -11.15 -59.25 -13.0 -56.0 -14.85 -52.3 -15.5 L-52.15 -15.55 -52.0 -15.6 -49.85 -15.65 -55.15 -9.1 -58.0 -5.1 -56.0 -4.2 Q-50.0 -1.65 -43.05 0.0 L-41.65 -2.7 -36.3 -12.55 -41.65 -2.7 -43.05 0.0 Q-50.0 -1.65 -56.0 -4.2 L-58.0 -5.1 -55.15 -9.1 -49.85 -15.65 M-61.45 0.4 Q-60.2 -1.95 -58.0 -5.1 -60.3 -6.1 -62.4 -7.3 L-63.65 -8.15 -62.4 -7.3 Q-60.3 -6.1 -58.0 -5.1 -60.2 -1.95 -61.45 0.4 M-47.55 9.25 L-43.05 0.0 -41.8 0.3 -38.65 0.85 Q-30.35 2.45 -21.35 2.6 L-20.65 -9.6 -21.35 2.6 Q-30.35 2.45 -38.65 0.85 L-41.8 0.3 -43.05 0.0 -47.55 9.25 M26.55 6.2 Q25.1 2.7 21.7 -3.6 L26.05 -4.95 37.35 -8.8 26.05 -4.95 21.7 -3.6 Q25.1 2.7 26.55 6.2 M-21.75 14.85 L-21.35 2.6 -16.95 2.6 0.4 1.05 3.7 13.25 0.4 1.05 -16.95 2.6 -21.35 2.6 -21.75 14.85 M14.7 -16.45 L20.35 -6.2 21.7 -3.6 Q13.9 -1.45 6.5 0.1 L0.4 1.05 -0.05 -0.3 -3.4 -11.85 -0.05 -0.3 0.4 1.05 6.5 0.1 Q13.9 -1.45 21.7 -3.6 L20.35 -6.2 14.7 -16.45" fill="#ffffff" fill-rule="evenodd" stroke="none"/>
    <path d="M-49.85 -15.65 Q-46.25 -15.5 -39.25 -13.4 L-36.85 -12.75 -36.3 -12.55 Q-27.1 -9.8 -20.65 -9.6 L-18.25 -9.65 -17.6 -9.7 Q-11.45 -10.1 -3.4 -11.85 L-1.25 -12.3 3.45 -13.45 Q5.55 -14.0 7.35 -14.65 10.3 -15.65 13.4 -16.2 L14.7 -16.45 22.6 -16.75 22.65 -16.75 Q35.2 -14.95 37.35 -8.8 L37.7 -7.2 Q38.5 -0.65 29.35 4.7 L26.55 6.2 26.5 6.2 Q19.1 9.85 10.15 12.0 L3.7 13.25 -8.05 14.65 -14.75 14.95 -21.75 14.85 Q-29.7 14.45 -36.75 12.75 -42.5 11.4 -47.55 9.25 L-49.7 8.3 Q-53.7 6.4 -56.6 4.45 -59.6 2.5 -61.45 0.4 -65.05 -3.75 -63.7 -8.0 L-63.65 -8.15 Q-62.6 -11.15 -59.25 -13.0 -56.0 -14.85 -52.3 -15.5 L-52.15 -15.55 -52.0 -15.6 -49.85 -15.65 -55.15 -9.1 -58.0 -5.1 -56.0 -4.2 Q-50.0 -1.65 -43.05 0.0 L-41.65 -2.7 -36.3 -12.55 M-3.4 -11.85 L-0.05 -0.3 0.4 1.05 6.5 0.1 Q13.9 -1.45 21.7 -3.6 L20.35 -6.2 14.7 -16.45 M3.7 13.25 L0.4 1.05 -16.95 2.6 -21.35 2.6 -21.75 14.85 M37.35 -8.8 L26.05 -4.95 21.7 -3.6 Q25.1 2.7 26.55 6.2 M-20.65 -9.6 L-21.35 2.6 Q-30.35 2.45 -38.65 0.85 L-41.8 0.3 -43.05 0.0 -47.55 9.25 M-63.65 -8.15 L-62.4 -7.3 Q-60.3 -6.1 -58.0 -5.1 -60.2 -1.95 -61.45 0.4" fill="none" stroke="#000000" stroke-linecap="round" stroke-linejoin="round" stroke-opacity="0.49803922" stroke-width="2.0"/>
  </g>
</svg>
