<?xml version="1.0" encoding="UTF-8" standalone="no"?>
<svg xmlns:ffdec="https://www.free-decompiler.com/flash" xmlns:xlink="http://www.w3.org/1999/xlink" ffdec:objectType="shape" height="21.65px" width="46.15px" xmlns="http://www.w3.org/2000/svg">
  <g transform="matrix(1.0, 0.0, 0.0, 1.0, 35.25, 8.95)">
    <path d="M4.25 -1.15 Q4.55 0.65 2.95 2.9 L1.3 4.9 Q-2.1 7.9 -6.3 9.75 -10.7 11.6 -14.75 11.7 -24.5 12.0 -29.9 8.35 -32.6 6.55 -33.4 4.65 -34.4 2.65 -34.25 0.95 L-31.4 1.6 Q-20.15 3.95 -1.3 -0.2 L4.25 -1.15 -1.3 -0.2 Q-20.15 3.95 -31.4 1.6 L-34.25 0.95 Q-34.0 -1.6 -31.15 -3.5 -29.3 -4.7 -27.05 -5.15 L-23.7 -5.05 Q-21.4 -4.0 -20.2 -4.3 -19.2 -4.5 -14.1 -6.85 -11.8 -7.95 -9.05 -7.95 L-3.8 -7.15 Q0.85 -5.9 4.25 -1.15" fill="#790000" fill-opacity="0.69411767" fill-rule="evenodd" stroke="none"/>
    <path d="M-34.25 0.95 Q-34.4 2.65 -33.4 4.65 -32.6 6.55 -29.9 8.35 -24.5 12.0 -14.75 11.7 -10.7 11.6 -6.3 9.75 -2.1 7.9 1.3 4.9 L2.95 2.9 Q4.55 0.65 4.25 -1.15 L-1.3 -0.2 Q-20.15 3.95 -31.4 1.6 L-34.25 0.95 Q-34.0 -1.6 -31.15 -3.5 -29.3 -4.7 -27.05 -5.15 L-23.7 -5.05 Q-21.4 -4.0 -20.2 -4.3 -19.2 -4.5 -14.1 -6.85 -11.8 -7.95 -9.05 -7.95 L-3.8 -7.15 Q0.85 -5.9 4.25 -1.15 L6.75 -1.15 Q9.1 -0.85 9.9 1.95" fill="none" stroke="#000000" stroke-linecap="round" stroke-linejoin="round" stroke-opacity="0.33333334" stroke-width="2.0"/>
    <path d="M-14.05 8.65 Q-15.3 9.5 -17.3 9.75 L-20.8 9.5 Q-22.4 9.05 -22.65 8.05 -22.9 7.05 -21.65 6.1 -20.4 5.25 -18.45 5.0 L-14.9 5.25 Q-13.3 5.8 -13.05 6.8 -12.8 7.8 -14.05 8.65" fill="#ffffff" fill-opacity="0.4" fill-rule="evenodd" stroke="none"/>
  </g>
</svg>
