<?xml version="1.0" encoding="UTF-8" standalone="no"?>
<svg xmlns:ffdec="https://www.free-decompiler.com/flash" xmlns:xlink="http://www.w3.org/1999/xlink" ffdec:objectType="shape" height="22.6px" width="61.9px" xmlns="http://www.w3.org/2000/svg">
  <g transform="matrix(1.0, 0.0, 0.0, 1.0, 32.25, 11.1)">
    <path d="M-10.15 -8.1 Q-6.1 -9.35 -2.05 -9.1 1.85 -8.85 7.5 -2.45 8.45 -2.1 8.3 -0.65 8.2 0.75 5.75 3.65 3.3 6.55 -2.05 8.55 -7.45 10.5 -16.95 10.5 -26.5 10.5 -29.4 4.05 -30.5 1.65 -30.35 -1.15 -30.15 -3.75 -29.05 -5.25 -27.4 -7.55 -23.55 -7.6 L-16.75 -6.85 Q-15.15 -6.6 -10.15 -8.1" fill="#b02b1c" fill-opacity="0.69411767" fill-rule="evenodd" stroke="none"/>
    <path d="M-10.15 -8.1 Q-15.15 -6.6 -16.75 -6.85 L-23.55 -7.6 Q-27.4 -7.55 -29.05 -5.25 -30.15 -3.75 -30.35 -1.15 -30.5 1.65 -29.4 4.05 -26.5 10.5 -16.95 10.5 -7.45 10.5 -2.05 8.55 3.3 6.55 5.75 3.65 8.2 0.75 8.3 -0.65 8.45 -2.1 7.5 -2.45 1.85 -8.85 -2.05 -9.1 -6.1 -9.35 -10.15 -8.1 Z" fill="none" stroke="#000000" stroke-linecap="round" stroke-linejoin="round" stroke-opacity="0.33333334" stroke-width="2.0"/>
    <path d="M-31.25 1.95 Q-27.0 1.8 -20.8 0.05 -14.4 -1.8 -7.4 -0.75 1.75 0.8 14.85 -2.95 21.4 -4.85 26.15 -7.05" fill="none" stroke="#000000" stroke-linecap="round" stroke-linejoin="miter-clip" stroke-miterlimit="4.0" stroke-opacity="0.29803923" stroke-width="2.0"/>
    <path d="M19.65 -10.1 Q21.45 -9.95 23.45 -9.25 27.4 -7.85 28.65 -5.45" fill="none" stroke="#000000" stroke-linecap="round" stroke-linejoin="miter-clip" stroke-miterlimit="4.0" stroke-opacity="0.29803923" stroke-width="2.0"/>
    <path d="M-9.5 6.45 Q-10.85 7.25 -12.8 7.15 -14.75 7.1 -16.15 6.25 -17.55 5.55 -17.6 4.4 -17.65 3.25 -16.3 2.45 -14.95 1.8 -13.0 1.85 -11.05 1.95 -9.65 2.65 -8.2 3.5 -8.15 4.65 -8.1 5.8 -9.5 6.45" fill="#ffffff" fill-opacity="0.4" fill-rule="evenodd" stroke="none"/>
  </g>
</svg>
