<?xml version="1.0" encoding="UTF-8" standalone="no"?>
<svg xmlns:ffdec="https://www.free-decompiler.com/flash" xmlns:xlink="http://www.w3.org/1999/xlink" ffdec:objectType="shape" height="17.5px" width="73.85px" xmlns="http://www.w3.org/2000/svg">
  <g transform="matrix(1.0, 0.0, 0.0, 1.0, 48.6, 10.5)">
    <path d="M13.15 0.8 L11.95 -5.55 13.15 0.8 Q9.0 2.75 2.75 4.0 L1.3 -4.1 2.75 4.0 Q-1.25 4.95 -6.45 5.4 L-17.2 6.0 -18.0 -2.85 -17.2 6.0 -28.35 5.8 -28.6 -2.6 -28.35 5.8 -42.3 4.7 -41.3 -1.5 -47.6 -2.95 -42.25 -2.75 -28.6 -2.6 Q-22.75 -2.65 -18.0 -2.85 L-7.75 -3.35 1.3 -4.1 11.95 -5.55 Q20.35 -7.15 24.25 -9.5 24.1 -8.0 22.55 -5.95 19.5 -2.05 13.15 0.8 M-7.75 -3.35 L-6.45 5.4 -7.75 -3.35" fill="#ffffff" fill-rule="evenodd" stroke="none"/>
    <path d="M11.95 -5.55 L13.15 0.8 Q19.5 -2.05 22.55 -5.95 24.1 -8.0 24.25 -9.5 20.35 -7.15 11.95 -5.55 L1.3 -4.1 2.75 4.0 Q9.0 2.75 13.15 0.8 M-18.0 -2.85 L-17.2 6.0 -6.45 5.4 -7.75 -3.35 -18.0 -2.85 Q-22.75 -2.65 -28.6 -2.6 L-28.35 5.8 -17.2 6.0 M-6.45 5.4 Q-1.25 4.95 2.75 4.0 M1.3 -4.1 L-7.75 -3.35 M-28.6 -2.6 L-42.25 -2.75 -47.6 -2.95 -41.3 -1.5 -42.3 4.7 -28.35 5.8" fill="none" stroke="#000000" stroke-linecap="round" stroke-linejoin="round" stroke-opacity="0.49803922" stroke-width="2.0"/>
  </g>
</svg>
