<?xml version="1.0" encoding="UTF-8" standalone="no"?>
<svg xmlns:ffdec="https://www.free-decompiler.com/flash" xmlns:xlink="http://www.w3.org/1999/xlink" ffdec:objectType="shape" height="59.25px" width="92.05px" xmlns="http://www.w3.org/2000/svg">
  <g transform="matrix(1.0, 0.0, 0.0, 1.0, 66.1, 45.45)">
    <path d="M6.95 -15.25 Q25.95 -6.0 24.9 3.4 24.15 10.25 17.9 12.0 11.6 13.8 5.5 11.55 -0.75 9.3 -8.45 2.8 -16.15 -3.75 -23.1 -5.25 -31.2 -7.15 -38.4 -6.0 -48.05 -4.45 -54.7 2.4 -57.55 5.25 -60.45 3.35 -63.5 1.35 -61.7 -3.15 -57.45 -13.8 -44.25 -19.35 -34.9 -23.2 -25.25 -23.55 -18.75 -23.7 -9.8 -21.35 -1.0 -19.15 6.95 -15.25" fill="#ffffff" fill-rule="evenodd" stroke="none"/>
    <path d="M6.95 -15.25 Q-1.0 -19.15 -9.8 -21.35 -18.75 -23.7 -25.25 -23.55 -34.9 -23.2 -44.25 -19.35 -57.45 -13.8 -61.7 -3.15 -63.5 1.35 -60.45 3.35 -57.55 5.25 -54.7 2.4 -48.05 -4.45 -38.4 -6.0 -31.2 -7.15 -23.1 -5.25 -16.15 -3.75 -8.45 2.8 -0.75 9.3 5.5 11.55 11.6 13.8 17.9 12.0 24.15 10.25 24.9 3.4 25.95 -6.0 6.95 -15.25 Z" fill="none" stroke="#000000" stroke-linecap="round" stroke-linejoin="round" stroke-opacity="0.49803922" stroke-width="2.0"/>
    <path d="M17.85 -8.45 L5.3 10.85 M-44.15 -18.85 L-41.3 -5.9 M-12.55 -21.2 L-17.55 -4.35 M-29.05 -22.6 L-28.45 -6.45 M-33.85 3.5 Q-30.65 2.4 -26.8 2.9 -22.35 3.6 -19.5 6.45 M-56.75 -11.0 L-52.3 -0.05 M2.75 -16.6 L-5.5 3.8" fill="none" stroke="#000000" stroke-linecap="round" stroke-linejoin="round" stroke-opacity="0.29803923" stroke-width="2.0"/>
    <path d="M-12.25 -43.2 Q-10.3 -36.3 5.3 -30.65 20.85 -25.0 24.9 -17.55 M-31.0 -44.45 Q-32.4 -41.15 -47.3 -34.2 -62.25 -27.25 -65.1 -20.2" fill="none" stroke="#000000" stroke-linecap="round" stroke-linejoin="round" stroke-opacity="0.29803923" stroke-width="2.0"/>
  </g>
</svg>
