<?xml version="1.0" encoding="UTF-8" standalone="no"?>
<svg xmlns:ffdec="https://www.free-decompiler.com/flash" xmlns:xlink="http://www.w3.org/1999/xlink" ffdec:objectType="shape" height="27.8px" width="57.85px" xmlns="http://www.w3.org/2000/svg">
  <g transform="matrix(1.0, 0.0, 0.0, 1.0, 46.4, 15.1)">
    <path d="M-43.9 -8.4 Q-34.5 -0.3 -21.75 0.25 L-21.6 0.25 Q-13.55 0.55 -6.0 -2.4 0.4 -4.95 6.5 -9.9" fill="none" stroke="#000000" stroke-linecap="round" stroke-linejoin="round" stroke-opacity="0.49803922" stroke-width="2.0"/>
    <path d="M-41.65 -11.1 Q-43.9 -9.0 -44.9 -5.15 -46.9 2.65 -40.5 11.7" fill="none" stroke="#000000" stroke-linecap="round" stroke-linejoin="round" stroke-opacity="0.08627451" stroke-width="2.0"/>
    <path d="M3.05 -14.1 Q5.2 -12.65 7.2 -9.05 11.15 -1.85 10.3 8.95" fill="none" stroke="#000000" stroke-linecap="round" stroke-linejoin="round" stroke-opacity="0.08627451" stroke-width="2.0"/>
    <path d="M-32.4 -8.95 Q-32.5 -7.45 -32.2 -5.7 -31.55 -2.1 -29.35 -0.65" fill="none" stroke="#000000" stroke-linecap="round" stroke-linejoin="round" stroke-opacity="0.08235294" stroke-width="2.0"/>
    <path d="M-17.75 -7.2 L-16.85 -4.0 Q-15.7 -0.7 -14.5 -0.1" fill="none" stroke="#000000" stroke-linecap="round" stroke-linejoin="round" stroke-opacity="0.08235294" stroke-width="2.0"/>
    <path d="M-21.6 0.25 L-22.25 7.3" fill="none" stroke="#000000" stroke-linecap="round" stroke-linejoin="round" stroke-opacity="0.08235294" stroke-width="2.0"/>
    <path d="M-6.3 -2.6 L-4.2 3.75" fill="none" stroke="#000000" stroke-linecap="round" stroke-linejoin="round" stroke-opacity="0.08235294" stroke-width="2.0"/>
  </g>
</svg>
