<?xml version="1.0" encoding="UTF-8" standalone="no"?>
<svg xmlns:ffdec="https://www.free-decompiler.com/flash" xmlns:xlink="http://www.w3.org/1999/xlink" ffdec:objectType="shape" height="18.55px" width="43.0px" xmlns="http://www.w3.org/2000/svg">
  <g transform="matrix(1.0, 0.0, 0.0, 1.0, 39.2, 5.25)">
    <path d="M-31.75 -2.5 Q-27.3 -3.85 -18.45 -4.0 L-6.6 -3.5 -9.6 -1.2 Q-15.8 4.15 -17.95 4.25 -21.2 4.4 -23.0 3.4 L-26.95 0.25 Q-28.95 -1.3 -31.75 -2.5" fill="#000000" fill-opacity="0.49803922" fill-rule="evenodd" stroke="none"/>
    <path d="M-37.95 1.0 Q-35.0 -1.5 -32.05 -2.45 L-31.75 -2.5 Q-27.3 -3.85 -18.45 -4.0 L-6.6 -3.5 -4.1 -3.1 Q-0.1 -2.25 2.55 0.0 M-31.75 -2.5 Q-28.95 -1.3 -26.95 0.25 L-23.0 3.4 Q-21.2 4.4 -17.95 4.25 -15.8 4.15 -9.6 -1.2 L-6.6 -3.5" fill="none" stroke="#000000" stroke-linecap="round" stroke-linejoin="round" stroke-opacity="0.49803922" stroke-width="2.5"/>
    <path d="M-23.95 10.0 Q-20.4 12.05 -16.6 12.05 -12.8 12.05 -10.2 10.0" fill="none" stroke="#000000" stroke-linecap="round" stroke-linejoin="round" stroke-opacity="0.49803922" stroke-width="2.5"/>
  </g>
</svg>
