<?xml version="1.0" encoding="UTF-8" standalone="no"?>
<svg xmlns:ffdec="https://www.free-decompiler.com/flash" xmlns:xlink="http://www.w3.org/1999/xlink" ffdec:objectType="shape" height="34.7px" width="78.2px" xmlns="http://www.w3.org/2000/svg">
  <g transform="matrix(1.0, 0.0, 0.0, 1.0, 45.05, 19.15)">
    <path d="M19.5 -17.85 Q28.5 -19.6 31.15 -11.8 33.75 -4.0 29.45 1.9 25.1 7.8 15.45 11.5 5.8 15.15 -16.15 14.4 -38.1 13.65 -43.6 -1.15 -19.1 -0.1 -4.3 -8.15 10.45 -16.2 19.5 -17.85" fill="#ffffff" fill-rule="evenodd" stroke="none"/>
    <path d="M19.5 -17.85 Q10.45 -16.2 -4.3 -8.15 -19.1 -0.1 -43.6 -1.15 -38.1 13.65 -16.15 14.4 5.8 15.15 15.45 11.5 25.1 7.8 29.45 1.9 33.75 -4.0 31.15 -11.8 28.5 -19.6 19.5 -17.85 Z" fill="none" stroke="#000000" stroke-linecap="butt" stroke-linejoin="miter-clip" stroke-miterlimit="4.0" stroke-opacity="0.49803922" stroke-width="2.0"/>
    <path d="M-4.2 12.4 L-6.35 -5.45" fill="none" stroke="#000000" stroke-linecap="round" stroke-linejoin="round" stroke-opacity="0.49803922" stroke-width="2.0"/>
    <path d="M15.75 10.05 L12.75 -14.85" fill="none" stroke="#000000" stroke-linecap="round" stroke-linejoin="round" stroke-opacity="0.49803922" stroke-width="2.0"/>
    <path d="M-23.85 12.05 L-25.35 -0.7" fill="none" stroke="#000000" stroke-linecap="round" stroke-linejoin="round" stroke-opacity="0.49803922" stroke-width="2.0"/>
    <path d="M-42.0 2.4 Q-4.5 6.9 31.45 -7.8" fill="none" stroke="#000000" stroke-linecap="round" stroke-linejoin="round" stroke-opacity="0.49803922" stroke-width="2.0"/>
  </g>
</svg>
