<?xml version="1.0" encoding="UTF-8" standalone="no"?>
<svg xmlns:ffdec="https://www.free-decompiler.com/flash" xmlns:xlink="http://www.w3.org/1999/xlink" ffdec:objectType="shape" height="20.35px" width="64.65px" xmlns="http://www.w3.org/2000/svg">
  <g transform="matrix(1.0, 0.0, 0.0, 1.0, 48.8, 6.6)">
    <path d="M-35.05 -0.15 Q-33.15 -4.6 -29.7 -5.25 L-23.75 -5.0 Q-21.25 -4.15 -19.95 -1.5 -19.45 -3.65 -16.25 -4.75 -13.1 -5.9 -10.05 -5.5 -7.05 -5.1 -4.9 -4.05 L1.25 -1.1 Q-0.3 -0.05 -1.65 0.5 -1.85 6.45 -5.6 9.1 -9.35 11.7 -16.3 12.55 -23.3 13.35 -28.05 10.75 -32.8 8.1 -30.4 1.65 -32.9 1.3 -35.05 -0.15" fill="#f87549" fill-rule="evenodd" stroke="none"/>
    <path d="M1.25 -1.1 L-4.9 -4.05 Q-7.05 -5.1 -10.05 -5.5 -13.1 -5.9 -16.25 -4.75 -19.45 -3.65 -19.95 -1.5 -21.25 -4.15 -23.75 -5.0 L-29.7 -5.25 Q-33.15 -4.6 -35.05 -0.15 M-30.4 1.65 Q-32.8 8.1 -28.05 10.75 -23.3 13.35 -16.3 12.55 -9.35 11.7 -5.6 9.1 -1.85 6.45 -1.65 0.5" fill="none" stroke="#000000" stroke-linecap="round" stroke-linejoin="round" stroke-opacity="0.29803923" stroke-width="2.0"/>
    <path d="M-16.3 12.55 Q-23.3 13.35 -28.05 10.75 -32.8 8.1 -30.4 1.65 -32.5 1.35 -34.35 0.3 -16.55 5.8 0.9 -0.85 -0.45 0.05 -1.65 0.5 -1.85 6.45 -5.6 9.1 -9.35 11.7 -16.3 12.55" fill="#ffffff" fill-opacity="0.44313726" fill-rule="evenodd" stroke="none"/>
    <path d="M-29.7 -5.25 L-23.75 -5.0 Q-21.25 -4.15 -19.95 -1.5 -19.45 -3.65 -16.25 -4.75 -13.1 -5.9 -10.05 -5.5 -7.05 -5.1 -4.9 -4.05 L1.25 -1.1 0.9 -0.85 Q-16.55 5.8 -34.35 0.3 L-35.05 -0.15 Q-33.15 -4.6 -29.7 -5.25" fill="#990000" fill-rule="evenodd" stroke="none"/>
    <path d="M-13.0 5.55 Q-13.0 8.4 -14.9 10.4 -16.8 12.45 -19.5 12.45 -22.15 12.45 -24.1 10.4 -26.0 8.4 -26.0 5.55 -26.0 3.6 -25.05 2.05 L-13.65 2.5 Q-13.0 3.85 -13.0 5.55" fill="#990000" fill-rule="evenodd" stroke="none"/>
    <path d="M-20.15 9.9 L-23.5 10.35 Q-25.45 10.15 -26.85 9.3 -28.25 8.5 -28.25 7.5 -28.25 6.45 -26.85 5.85 -25.45 5.3 -23.5 5.5 -21.55 5.65 -20.15 6.45 -18.75 7.3 -18.75 8.35 -18.75 9.35 -20.15 9.9" fill="#ffffff" fill-opacity="0.4" fill-rule="evenodd" stroke="none"/>
    <path d="M14.85 0.05 Q12.7 -2.9 9.65 -5.0 -16.4 9.7 -43.4 -3.3 -45.75 -2.05 -47.8 1.8" fill="none" stroke="#000000" stroke-linecap="round" stroke-linejoin="round" stroke-opacity="0.29803923" stroke-width="2.0"/>
  </g>
</svg>
