<?xml version="1.0" encoding="UTF-8" standalone="no"?>
<svg xmlns:ffdec="https://www.free-decompiler.com/flash" xmlns:xlink="http://www.w3.org/1999/xlink" ffdec:objectType="shape" height="23.65px" width="71.4px" xmlns="http://www.w3.org/2000/svg">
  <g transform="matrix(1.0, 0.0, 0.0, 1.0, 50.2, 11.1)">
    <path d="M7.2 -4.1 Q5.1 -0.7 2.85 -0.35 L4.55 -0.25 Q4.3 3.65 -0.85 7.7 -6.1 11.8 -16.15 11.55 -26.15 11.35 -30.25 8.7 -34.3 6.0 -30.75 1.6 -33.8 0.85 -37.05 0.6 -34.35 -3.4 -30.25 -3.95 -26.1 -4.5 -23.0 -3.9 -19.85 -3.35 -18.2 -1.55 -17.6 -3.1 -13.8 -4.0 L-6.35 -4.65 Q-2.7 -4.35 -0.2 -3.6 2.35 -2.75 7.2 -4.1" fill="#ff6699" fill-opacity="0.6" fill-rule="evenodd" stroke="none"/>
    <path d="M7.2 -4.1 Q2.35 -2.75 -0.2 -3.6 -2.7 -4.35 -6.35 -4.65 L-13.8 -4.0 Q-17.6 -3.1 -18.2 -1.55 -19.85 -3.35 -23.0 -3.9 -26.1 -4.5 -30.25 -3.95 -34.35 -3.4 -37.05 0.6 M-30.75 1.6 Q-34.3 6.0 -30.25 8.7 -26.15 11.35 -16.15 11.55 -6.1 11.8 -0.85 7.7 4.3 3.65 4.55 -0.25" fill="none" stroke="#000000" stroke-linecap="round" stroke-linejoin="round" stroke-opacity="0.29803923" stroke-width="2.0"/>
    <path d="M-13.8 8.25 Q-15.25 9.0 -17.3 8.9 -19.35 8.8 -20.8 7.85 -22.3 7.0 -22.35 5.8 -22.4 4.6 -20.95 3.85 -19.55 3.2 -17.5 3.3 -15.45 3.4 -13.95 4.25 -12.5 5.2 -12.45 6.4 -12.4 7.6 -13.8 8.25" fill="#ffffff" fill-opacity="0.4" fill-rule="evenodd" stroke="none"/>
    <path d="M-41.8 -3.35 Q-40.9 -0.5 -32.3 1.6 -23.8 3.55 -15.05 2.7 -6.1 1.75 0.85 -1.4 8.5 -4.85 11.3 -10.1 L20.2 -6.45 M-49.2 0.35 L-42.3 -3.15" fill="none" stroke="#000000" stroke-linecap="round" stroke-linejoin="round" stroke-opacity="0.29803923" stroke-width="2.0"/>
  </g>
</svg>
