<?xml version="1.0" encoding="UTF-8" standalone="no"?>
<svg xmlns:ffdec="https://www.free-decompiler.com/flash" xmlns:xlink="http://www.w3.org/1999/xlink" ffdec:objectType="shape" height="21.2px" width="64.7px" xmlns="http://www.w3.org/2000/svg">
  <g transform="matrix(1.0, 0.0, 0.0, 1.0, 41.55, 8.75)">
    <path d="M-11.55 -5.85 Q-8.05 -7.0 -4.5 -6.7 -1.1 -6.5 3.8 -0.55 4.6 -0.25 4.5 1.1 4.4 2.4 2.3 5.05 0.2 7.75 -4.5 9.65 -9.2 11.45 -17.45 11.45 -25.75 11.45 -28.25 5.45 -29.25 3.25 -29.05 0.55 -28.9 -1.75 -27.95 -3.2 -26.55 -5.3 -23.2 -5.35 L-17.25 -4.65 Q-15.85 -4.4 -11.55 -5.85" fill="#f977ae" fill-opacity="0.4" fill-rule="evenodd" stroke="none"/>
    <path d="M-11.55 -5.85 Q-15.85 -4.4 -17.25 -4.65 L-23.2 -5.35 Q-26.55 -5.3 -27.95 -3.2 -28.9 -1.75 -29.05 0.55 -29.25 3.25 -28.25 5.45 -25.75 11.45 -17.45 11.45 -9.2 11.45 -4.5 9.65 0.2 7.75 2.3 5.05 4.4 2.4 4.5 1.1 4.6 -0.25 3.8 -0.55 -1.1 -6.5 -4.5 -6.7 -8.05 -7.0 -11.55 -5.85 Z" fill="none" stroke="#000000" stroke-linecap="round" stroke-linejoin="round" stroke-opacity="0.33333334" stroke-width="2.0"/>
    <path d="M-29.85 3.6 Q-26.2 3.45 -20.8 1.75 -15.25 0.0 -9.15 1.05 -1.2 2.5 10.2 -1.05 15.9 -2.8 20.0 -4.8" fill="none" stroke="#000000" stroke-linecap="round" stroke-linejoin="miter-clip" stroke-miterlimit="4.0" stroke-opacity="0.29803923" stroke-width="2.0"/>
    <path d="M14.4 -7.75 L17.65 -6.9 Q21.1 -5.6 22.15 -3.4" fill="none" stroke="#000000" stroke-linecap="round" stroke-linejoin="miter-clip" stroke-miterlimit="4.0" stroke-opacity="0.29803923" stroke-width="2.0"/>
    <path d="M-11.0 7.7 Q-12.2 8.4 -13.9 8.35 -15.55 8.3 -16.8 7.5 -18.05 6.85 -18.1 5.8 -18.1 4.75 -16.95 4.0 -15.75 3.35 -14.1 3.4 -12.4 3.45 -11.15 4.2 -9.9 5.0 -9.9 6.05 -9.85 7.1 -11.0 7.7" fill="#ffffff" fill-opacity="0.4" fill-rule="evenodd" stroke="none"/>
    <path d="M-40.55 1.8 L-35.55 3.35 -29.3 3.9" fill="none" stroke="#000000" stroke-linecap="round" stroke-linejoin="miter-clip" stroke-miterlimit="4.0" stroke-opacity="0.29803923" stroke-width="2.0"/>
  </g>
</svg>
