<?xml version="1.0" encoding="UTF-8" standalone="no"?>
<svg xmlns:ffdec="https://www.free-decompiler.com/flash" xmlns:xlink="http://www.w3.org/1999/xlink" ffdec:objectType="shape" height="20.25px" width="53.4px" xmlns="http://www.w3.org/2000/svg">
  <g transform="matrix(1.0, 0.0, 0.0, 1.0, 43.45, 9.6)">
    <path d="M-15.35 -7.6 Q-12.65 -9.25 -10.35 -8.15 -7.95 -7.15 -6.75 -5.8 -5.6 -4.6 -4.0 -2.0 L-6.6 -1.55 -5.7 -1.15 Q-3.0 2.45 -6.2 5.4 -9.3 8.25 -14.4 9.3 -19.5 10.35 -24.55 8.15 -29.7 5.8 -27.3 1.3 L-25.95 0.55 -29.6 0.6 Q-28.55 -5.7 -25.95 -6.65 -23.5 -7.7 -21.45 -7.0 -19.45 -6.35 -18.1 -3.85 -17.95 -6.05 -15.35 -7.6" fill="#b81d1d" fill-opacity="0.67058825" fill-rule="evenodd" stroke="none"/>
    <path d="M-4.0 -2.0 Q-5.6 -4.6 -6.75 -5.8 -7.95 -7.15 -10.35 -8.15 -12.65 -9.25 -15.35 -7.6 -17.95 -6.05 -18.1 -3.85 -19.45 -6.35 -21.45 -7.0 -23.5 -7.7 -25.95 -6.65 -28.55 -5.7 -29.6 0.6 M-27.3 1.3 Q-29.7 5.8 -24.55 8.15 -19.5 10.35 -14.4 9.3 -9.3 8.25 -6.2 5.4 -3.0 2.45 -5.7 -1.15 M8.95 -0.1 Q6.1 -1.2 3.35 -1.6 L-2.15 -1.75 Q-16.2 -1.25 -30.05 1.25 -36.65 2.55 -42.45 1.55" fill="none" stroke="#000000" stroke-linecap="round" stroke-linejoin="round" stroke-opacity="0.4" stroke-width="2.0"/>
  </g>
</svg>
