<?xml version="1.0" encoding="UTF-8" standalone="no"?>
<svg xmlns:ffdec="https://www.free-decompiler.com/flash" xmlns:xlink="http://www.w3.org/1999/xlink" ffdec:objectType="shape" height="41.35px" width="75.7px" xmlns="http://www.w3.org/2000/svg">
  <g transform="matrix(1.0, 0.0, 0.0, 1.0, 50.1, 22.35)">
    <path d="M16.85 5.9 Q12.7 11.05 4.9 14.5 -2.9 17.8 -10.95 18.0 -19.05 18.15 -27.85 15.0 -36.55 11.7 -41.45 6.0 -43.5 3.7 -45.05 0.9 -8.9 -1.05 23.0 -7.45 20.6 1.25 16.85 5.9" fill="#000000" fill-opacity="0.49803922" fill-rule="evenodd" stroke="none"/>
    <path d="M23.5 -9.4 L23.0 -7.45 Q-10.55 13.35 -45.05 0.9 -47.5 -3.15 -49.05 -8.3 -46.6 -7.05 -34.75 -5.55 -22.85 -4.0 -11.7 -6.45 -0.6 -9.0 10.65 -15.55 21.8 -22.15 23.3 -21.2 25.9 -19.55 23.5 -9.4" fill="#ffffff" fill-rule="evenodd" stroke="none"/>
    <path d="M0.0 16.35 Q-5.75 17.75 -9.05 17.95 L-20.3 17.25 Q-19.5 14.65 -16.1 12.5 -11.85 9.8 -5.95 10.6 -0.1 11.4 3.45 12.75 L6.35 13.95 Q4.0 15.4 0.0 16.35" fill="#ed6f58" fill-rule="evenodd" stroke="none"/>
    <path d="M10.6 -15.55 Q21.75 -22.2 23.25 -21.2 25.85 -19.55 23.4 -9.35 L22.9 -7.45 Q20.55 1.25 16.8 5.9 12.65 11.05 4.85 14.45 -2.9 17.85 -11.0 18.0 -19.1 18.15 -27.9 14.95 -36.65 11.75 -41.55 6.0 -43.55 3.65 -45.15 0.9 -47.55 -3.15 -49.1 -8.25 -46.65 -7.05 -34.8 -5.5 -22.9 -4.0 -11.8 -6.45 -0.65 -9.0 10.6 -15.55 Z" fill="none" stroke="#000000" stroke-linecap="round" stroke-linejoin="round" stroke-opacity="0.49803922" stroke-width="2.0"/>
    <path d="M15.45 -3.4 Q18.05 -11.05 17.5 -17.3 M2.8 1.4 Q4.65 -4.9 4.7 -11.2 M-38.05 3.0 Q-39.95 -0.9 -40.1 -5.15 M-25.3 4.65 Q-26.65 0.55 -26.25 -3.65 M-11.15 4.65 Q-9.85 -1.4 -10.8 -5.5" fill="none" stroke="#000000" stroke-linecap="round" stroke-linejoin="round" stroke-opacity="0.2" stroke-width="1.0"/>
  </g>
</svg>
