<?xml version="1.0" encoding="UTF-8" standalone="no"?>
<svg xmlns:ffdec="https://www.free-decompiler.com/flash" xmlns:xlink="http://www.w3.org/1999/xlink" ffdec:objectType="shape" height="34.1px" width="85.65px" xmlns="http://www.w3.org/2000/svg">
  <g transform="matrix(1.0, 0.0, 0.0, 1.0, 56.15, 19.1)">
    <path d="M16.1 1.1 Q12.45 7.75 5.3 10.35 -7.2 14.95 -17.8 13.75 -28.55 12.55 -34.3 9.1 -40.2 5.55 -42.6 -1.45 -40.5 -0.5 -35.1 -0.45 -29.75 -0.35 -23.55 -1.4 -1.75 -4.8 17.95 -15.65 20.9 -7.6 16.1 1.1" fill="#ffffff" fill-rule="evenodd" stroke="none"/>
    <path d="M17.5 -5.35 Q11.45 -1.15 4.55 1.4 3.75 6.55 1.25 11.75 L5.3 10.35 Q12.45 7.75 16.1 1.1 20.9 -7.6 17.95 -15.65 M28.5 -14.7 Q27.95 -16.15 27.1 -16.85 26.15 -17.65 24.55 -18.05 L21.05 -17.65 Q19.35 -17.05 16.0 -15.05 5.65 -8.95 -11.0 -4.2 L-12.8 -3.7 Q-11.8 0.5 -11.7 4.95 -3.05 4.15 4.55 1.4 5.3 -3.7 4.4 -8.75 M1.25 11.75 Q-8.95 14.75 -17.8 13.75 -28.55 12.55 -34.3 9.1 -38.25 6.7 -40.6 2.8 -41.75 0.9 -42.5 -1.25 -48.95 -2.55 -52.55 -5.1 -54.6 -6.6 -55.15 -8.1 M-12.8 -3.7 Q-29.5 0.65 -40.15 -0.85 L-42.5 -1.25 M-25.65 11.2 Q-26.95 7.95 -27.7 4.9 -33.95 4.25 -40.6 2.8 M-12.35 13.65 Q-11.6 9.15 -11.7 4.95 -19.3 5.65 -27.7 4.9 L-28.65 0.3" fill="none" stroke="#000000" stroke-linecap="round" stroke-linejoin="round" stroke-opacity="0.49803922" stroke-width="2.0"/>
  </g>
</svg>
