<?xml version="1.0" encoding="UTF-8" standalone="no"?>
<svg xmlns:ffdec="https://www.free-decompiler.com/flash" xmlns:xlink="http://www.w3.org/1999/xlink" ffdec:objectType="shape" height="22.9px" width="65.8px" xmlns="http://www.w3.org/2000/svg">
  <g transform="matrix(1.0, 0.0, 0.0, 1.0, 47.7, 8.1)">
    <path d="M-46.7 -1.9 Q-42.35 -1.2 -36.05 -2.7 L-25.2 -4.95 -16.7 -5.75 -2.7 -5.45 2.75 -5.05 7.75 -4.9 Q12.45 -5.1 17.1 -7.0 -12.85 11.4 -46.7 -1.9" fill="#cc5151" fill-opacity="0.4" fill-rule="evenodd" stroke="none"/>
    <path d="M-46.7 -1.9 Q-42.35 -1.2 -36.05 -2.7 L-25.2 -4.95 -16.7 -5.75 -2.7 -5.45 2.75 -5.05 7.75 -4.9 Q12.45 -5.1 17.1 -7.0" fill="none" stroke="#000000" stroke-linecap="round" stroke-linejoin="round" stroke-opacity="0.29803923" stroke-width="2.0"/>
    <path d="M-45.65 -2.0 Q-32.25 6.1 -11.5 3.8 -2.45 2.75 4.95 -0.15 12.55 -3.1 16.35 -7.1 16.5 -4.9 14.3 -1.85 12.1 1.2 9.7 3.6 7.3 5.9 1.65 8.95 -4.05 12.0 -12.7 13.3 -21.35 14.6 -27.55 12.45 -33.8 10.25 -36.85 7.85 L-41.95 3.1 Q-43.95 1.0 -45.65 -2.0" fill="#cc5151" fill-opacity="0.4" fill-rule="evenodd" stroke="none"/>
    <path d="M-45.65 -2.0 Q-32.25 6.1 -11.5 3.8 -2.45 2.75 4.95 -0.15 12.55 -3.1 16.35 -7.1 16.5 -4.9 14.3 -1.85 12.1 1.2 9.7 3.6 7.3 5.9 1.65 8.95 -4.05 12.0 -12.7 13.3 -21.35 14.6 -27.55 12.45 -33.8 10.25 -36.85 7.85 L-41.95 3.1 Q-43.95 1.0 -45.65 -2.0 L-45.85 -2.4 -46.0 -2.7" fill="none" stroke="#000000" stroke-linecap="round" stroke-linejoin="round" stroke-opacity="0.29803923" stroke-width="2.0"/>
    <path d="M-27.25 7.4 Q-17.85 9.6 -7.65 6.9" fill="none" stroke="#ffffff" stroke-linecap="round" stroke-linejoin="round" stroke-opacity="0.4" stroke-width="2.0"/>
  </g>
</svg>
