<?xml version="1.0" encoding="UTF-8" standalone="no"?>
<svg xmlns:ffdec="https://www.free-decompiler.com/flash" xmlns:xlink="http://www.w3.org/1999/xlink" ffdec:objectType="shape" height="21.35px" width="47.25px" xmlns="http://www.w3.org/2000/svg">
  <g transform="matrix(1.0, 0.0, 0.0, 1.0, 40.55, 6.55)">
    <path d="M-31.45 2.6 Q-29.5 -4.45 -26.65 -5.2 L-21.75 -4.95 Q-19.7 -3.95 -18.6 -0.95 -18.2 -3.4 -15.15 -4.85 -12.1 -6.3 -9.7 -4.75 -7.3 -3.3 -6.15 -1.65 -5.05 -0.1 -3.75 3.05 -17.65 3.9 -31.45 2.6" fill="#ff5555" fill-rule="evenodd" stroke="none"/>
    <path d="M-3.75 3.05 Q-5.05 -0.1 -6.15 -1.65 -7.3 -3.3 -9.7 -4.75 -12.1 -6.3 -15.15 -4.85 -18.2 -3.4 -18.6 -0.95 -19.7 -3.95 -21.75 -4.95 L-26.65 -5.2 Q-29.5 -4.45 -31.45 2.6" fill="none" stroke="#000000" stroke-linecap="round" stroke-linejoin="round" stroke-opacity="0.29803923" stroke-width="2.0"/>
    <path d="M-29.1 2.9 Q-16.45 2.55 -5.6 3.0 -3.2 7.45 -6.95 10.35 -10.7 13.2 -16.25 13.75 -21.85 14.2 -27.05 11.0 -32.2 7.7 -29.1 2.9" fill="#ff5555" fill-rule="evenodd" stroke="none"/>
    <path d="M-5.6 3.0 Q-3.2 7.45 -6.95 10.35 -10.7 13.2 -16.25 13.75 -21.85 14.2 -27.05 11.0 -32.2 7.7 -29.1 2.9" fill="none" stroke="#000000" stroke-linecap="round" stroke-linejoin="round" stroke-opacity="0.29803923" stroke-width="2.0"/>
    <path d="M-39.55 -2.0 Q-34.85 3.9 -17.55 3.55 -0.35 3.25 5.7 -2.4" fill="none" stroke="#000000" stroke-linecap="round" stroke-linejoin="round" stroke-opacity="0.29803923" stroke-width="2.0"/>
    <path d="M-18.9 9.2 L-22.25 9.5 Q-24.2 9.3 -25.6 8.6 -27.0 7.9 -27.0 7.05 -27.0 6.2 -25.6 5.75 L-22.25 5.5 Q-20.3 5.65 -18.9 6.35 -17.5 7.05 -17.5 7.9 -17.5 8.75 -18.9 9.2" fill="#ff7f7f" fill-rule="evenodd" stroke="none"/>
  </g>
</svg>
