<?xml version="1.0" encoding="UTF-8" standalone="no"?>
<svg xmlns:ffdec="https://www.free-decompiler.com/flash" xmlns:xlink="http://www.w3.org/1999/xlink" ffdec:objectType="shape" height="21.3px" width="69.05px" xmlns="http://www.w3.org/2000/svg">
  <g transform="matrix(1.0, 0.0, 0.0, 1.0, 44.1, 9.0)">
    <path d="M21.3 -8.25 Q22.85 -8.25 23.85 -7.2 24.95 -6.1 24.95 -4.6 24.95 -3.1 23.85 -2.05 22.85 -1.0 21.3 -1.0 19.8 -1.0 18.7 -2.05 17.7 -3.1 17.7 -4.6 17.7 -6.1 18.7 -7.2 19.8 -8.25 21.3 -8.25" fill="#000000" fill-opacity="0.49803922" fill-rule="evenodd" stroke="none"/>
    <path d="M-29.95 -7.75 L-24.0 -7.5 Q-21.5 -6.65 -20.2 -4.0 -19.7 -6.15 -16.0 -7.35 -12.3 -8.6 -9.4 -7.3 -6.5 -6.0 -5.1 -4.6 -3.75 -3.2 -2.2 -0.45 -5.65 -0.3 -7.1 0.5 -4.7 4.95 -8.45 7.85 -12.2 10.7 -17.75 11.25 -23.35 11.7 -28.55 8.5 -33.7 5.2 -30.6 0.4 -31.95 -0.7 -35.75 -0.95 -33.4 -7.1 -29.95 -7.75" fill="#fe8181" fill-rule="evenodd" stroke="none"/>
    <path d="M-20.4 6.7 L-23.75 7.0 Q-25.7 6.8 -27.1 6.1 -28.5 5.4 -28.5 4.55 -28.5 3.7 -27.1 3.25 L-23.75 3.0 Q-21.8 3.15 -20.4 3.85 -19.0 4.55 -19.0 5.4 -19.0 6.25 -20.4 6.7" fill="#ffffff" fill-opacity="0.4" fill-rule="evenodd" stroke="none"/>
    <path d="M-43.1 -2.6 Q-36.8 -0.65 -30.6 0.35 -18.65 2.25 -7.1 0.45 L-2.2 -0.5 Q-3.75 -3.2 -5.1 -4.6 -6.5 -6.0 -9.4 -7.3 -12.3 -8.6 -16.0 -7.35 -19.7 -6.15 -20.2 -4.0 -21.5 -6.65 -24.0 -7.5 L-29.95 -7.75 Q-33.4 -7.1 -35.75 -0.95 M-30.6 0.35 Q-33.7 5.2 -28.55 8.5 -23.35 11.7 -17.75 11.25 -12.2 10.7 -8.45 7.85 -4.7 4.95 -7.1 0.45 M7.4 -3.4 Q2.6 -1.6 -2.2 -0.5" fill="none" stroke="#000000" stroke-linecap="round" stroke-linejoin="round" stroke-opacity="0.33333334" stroke-width="2.0"/>
  </g>
</svg>
