<?xml version="1.0" encoding="UTF-8" standalone="no"?>
<svg xmlns:ffdec="https://www.free-decompiler.com/flash" xmlns:xlink="http://www.w3.org/1999/xlink" ffdec:objectType="shape" height="28.95px" width="65.7px" xmlns="http://www.w3.org/2000/svg">
  <g transform="matrix(1.0, 0.0, 0.0, 1.0, 48.0, 13.65)">
    <path d="M-10.95 5.95 Q-31.4 8.05 -43.55 -6.55 -15.95 -3.75 15.75 -11.45 9.5 3.85 -10.95 5.95" fill="#ffffff" fill-rule="evenodd" stroke="none"/>
    <path d="M2.25 2.05 Q3.7 -2.65 3.5 -7.15 M-20.15 5.15 Q-21.65 0.25 -21.3 -4.65 M-32.3 1.8 Q-33.75 -1.6 -33.3 -5.25 M-8.5 6.1 Q-7.45 -0.6 -8.35 -6.2" fill="none" stroke="#000000" stroke-linecap="round" stroke-linejoin="round" stroke-opacity="0.13333334" stroke-width="1.0"/>
    <path d="M7.4 -10.75 Q12.05 -10.9 16.65 -12.65 17.0 -9.65 14.85 -5.55 12.7 -1.55 10.4 1.6 8.1 4.6 2.4 8.5 -3.3 12.4 -12.0 13.85 -20.8 15.3 -27.3 12.2 -33.85 9.0 -37.05 5.65 L-42.55 -1.0 Q-44.9 -4.1 -47.0 -8.85 -42.6 -8.1 -36.35 -9.45 L-25.6 -11.5 -17.05 -12.1 -3.05 -11.55 2.4 -11.05 7.4 -10.75 M-12.8 5.15 Q6.95 2.25 15.3 -10.55 -8.15 -0.05 -45.2 -7.3 -32.65 8.05 -12.8 5.15" fill="#d15743" fill-rule="evenodd" stroke="none"/>
    <path d="M7.4 -10.75 Q12.05 -10.9 16.65 -12.65 17.0 -9.65 14.85 -5.55 12.7 -1.55 10.4 1.6 8.1 4.6 2.4 8.5 -3.3 12.4 -12.0 13.85 -20.8 15.3 -27.3 12.2 -33.85 9.0 -37.05 5.65 L-42.55 -1.0 Q-44.9 -4.1 -47.0 -8.85 -42.6 -8.1 -36.35 -9.45 L-25.6 -11.5 -17.05 -12.1 -3.05 -11.55 2.4 -11.05 7.4 -10.75 M-12.8 5.15 Q6.95 2.25 15.3 -10.55 -8.15 -0.05 -45.2 -7.3 -32.65 8.05 -12.8 5.15 Z" fill="none" stroke="#000000" stroke-linecap="round" stroke-linejoin="round" stroke-opacity="0.29803923" stroke-width="2.0"/>
    <path d="M-28.55 7.6 Q-19.05 10.0 -8.9 7.45" fill="none" stroke="#ffffff" stroke-linecap="round" stroke-linejoin="round" stroke-opacity="0.4" stroke-width="2.0"/>
  </g>
</svg>
