<?xml version="1.0" encoding="UTF-8" standalone="no"?>
<svg xmlns:ffdec="https://www.free-decompiler.com/flash" xmlns:xlink="http://www.w3.org/1999/xlink" ffdec:objectType="shape" height="22.3px" width="58.0px" xmlns="http://www.w3.org/2000/svg">
  <g transform="matrix(1.0, 0.0, 0.0, 1.0, 41.1, 11.7)">
    <path d="M10.65 -10.7 L12.25 -10.1 Q14.2 -9.05 15.9 -6.7" fill="none" stroke="#000000" stroke-linecap="round" stroke-linejoin="round" stroke-opacity="0.29803923" stroke-width="2.0"/>
    <path d="M8.0 -5.2 Q4.35 -2.65 2.35 -2.15 L3.85 -2.05 Q2.85 2.9 -0.35 5.4 -3.55 7.9 -10.35 9.15 -17.2 10.4 -24.3 8.3 -31.45 6.15 -31.8 0.15 -30.95 -0.5 -35.15 -1.4 -32.8 -1.35 -29.4 -3.55 -25.05 -6.45 -21.55 -6.25 -18.05 -6.1 -16.55 -3.7 -16.0 -5.75 -12.6 -6.95 -9.15 -8.05 -6.15 -7.35 -3.15 -6.65 -0.85 -5.6 L8.0 -5.2" fill="#ec97d7" fill-rule="evenodd" stroke="none"/>
    <path d="M8.0 -5.2 L-0.85 -5.6 Q-3.15 -6.65 -6.15 -7.35 -9.15 -8.05 -12.6 -6.95 -16.0 -5.75 -16.55 -3.7 -18.05 -6.1 -21.55 -6.25 -25.05 -6.45 -29.4 -3.55 -32.8 -1.35 -35.15 -1.4 L-36.45 -1.7 M-31.8 0.15 Q-31.45 6.15 -24.3 8.3 -17.2 10.4 -10.35 9.15 -3.55 7.9 -0.35 5.4 2.85 2.9 3.85 -2.05" fill="none" stroke="#000000" stroke-linecap="round" stroke-linejoin="round" stroke-opacity="0.29803923" stroke-width="2.0"/>
    <path d="M-16.15 6.9 Q-17.65 7.55 -19.8 7.45 -21.95 7.35 -23.5 6.6 -25.05 5.85 -25.1 4.9 -25.15 3.95 -23.65 3.35 L-20.0 2.9 Q-17.85 3.0 -16.3 3.65 -14.7 4.4 -14.65 5.35 -14.6 6.3 -16.15 6.9" fill="#ffffff" fill-opacity="0.4" fill-rule="evenodd" stroke="none"/>
    <path d="M-40.1 -3.4 Q-39.1 -1.6 -31.0 -0.35 L-14.15 0.2 Q-4.7 -0.5 2.65 -3.05 9.15 -5.3 13.15 -8.35" fill="none" stroke="#000000" stroke-linecap="round" stroke-linejoin="round" stroke-opacity="0.29803923" stroke-width="2.0"/>
  </g>
</svg>
