<?xml version="1.0" encoding="UTF-8" standalone="no"?>
<svg xmlns:ffdec="https://www.free-decompiler.com/flash" xmlns:xlink="http://www.w3.org/1999/xlink" ffdec:objectType="shape" height="20.65px" width="60.75px" xmlns="http://www.w3.org/2000/svg">
  <g transform="matrix(1.0, 0.0, 0.0, 1.0, 45.1, 8.45)">
    <path d="M-9.4 10.95 Q-21.15 11.9 -26.7 9.2 -32.25 6.45 -32.25 5.2 -32.35 3.95 -35.8 3.9 L-37.8 2.3 Q-36.85 -4.7 -31.5 -5.55 -26.15 -6.5 -22.7 -5.5 -19.35 -4.55 -11.9 -6.6 -4.5 -8.7 1.5 -5.55 7.45 -2.5 7.45 0.4 L7.15 2.65 3.45 6.75 Q2.2 10.0 -9.4 10.95" fill="#c80229" fill-opacity="0.49803922" fill-rule="evenodd" stroke="none"/>
    <path d="M-9.4 10.95 Q2.2 10.0 3.45 6.75 L7.15 2.65 7.45 0.4 Q7.45 -2.5 1.5 -5.55 -4.5 -8.7 -11.9 -6.6 -19.35 -4.55 -22.7 -5.5 -26.15 -6.5 -31.5 -5.55 -36.85 -4.7 -37.8 2.3 L-35.8 3.9 Q-32.35 3.95 -32.25 5.2 -32.25 6.45 -26.7 9.2 -21.15 11.9 -9.4 10.95 Z" fill="none" stroke="#000000" stroke-linecap="round" stroke-linejoin="round" stroke-opacity="0.2" stroke-width="2.0"/>
    <path d="M-14.35 6.05 Q-15.75 6.9 -17.9 7.0 -20.1 7.1 -21.8 6.4 -23.55 5.75 -23.8 4.65 -24.05 3.6 -22.6 2.75 -21.2 1.95 -19.0 1.85 -16.85 1.75 -15.15 2.4 -13.4 3.15 -13.15 4.2 -12.9 5.3 -14.35 6.05" fill="#ffffff" fill-opacity="0.4" fill-rule="evenodd" stroke="none"/>
    <path d="M14.65 2.15 Q0.9 1.95 -6.65 0.15 -14.2 -1.6 -20.6 -0.15 -27.05 1.3 -27.05 1.55 L-32.9 3.2 Q-39.5 4.85 -44.1 4.75" fill="none" stroke="#333333" stroke-linecap="round" stroke-linejoin="miter-clip" stroke-miterlimit="4.0" stroke-opacity="0.4" stroke-width="2.0"/>
  </g>
</svg>
