<?xml version="1.0" encoding="UTF-8" standalone="no"?>
<svg xmlns:ffdec="https://www.free-decompiler.com/flash" xmlns:xlink="http://www.w3.org/1999/xlink" ffdec:objectType="shape" height="20.55px" width="75.45px" xmlns="http://www.w3.org/2000/svg">
  <g transform="matrix(1.0, 0.0, 0.0, 1.0, 49.5, 3.65)">
    <path d="M15.4 2.55 Q25.2 7.7 24.4 11.5 23.55 15.3 12.5 14.9 1.45 14.5 -13.15 14.65 -27.75 14.75 -36.4 15.3 -45.1 15.9 -47.15 13.35 -49.2 10.75 -46.25 7.4 -43.3 3.95 -36.3 1.2 -29.3 -1.65 -11.85 -2.1 5.65 -2.6 15.4 2.55" fill="#000000" fill-opacity="0.49803922" fill-rule="evenodd" stroke="none"/>
    <path d="M15.4 2.55 Q25.2 7.7 24.4 11.5 23.55 15.3 12.5 14.9 1.45 14.5 -13.15 14.65 -27.75 14.75 -36.4 15.3 -45.1 15.9 -47.15 13.35 -49.2 10.75 -46.25 7.4 -43.3 3.95 -36.3 1.2 -29.3 -1.65 -11.85 -2.1 5.65 -2.6 15.4 2.55 Z" fill="none" stroke="#000000" stroke-linecap="round" stroke-linejoin="round" stroke-opacity="0.49803922" stroke-width="3.0"/>
    <path d="M10.5 11.7 Q12.5 13.3 13.0 14.2 2.55 13.7 -12.05 13.85 -11.2 12.15 -8.2 10.55 -5.3 9.0 1.6 9.55 8.35 10.1 10.5 11.7" fill="#bd3222" fill-rule="evenodd" stroke="none"/>
  </g>
</svg>
