<?xml version="1.0" encoding="UTF-8" standalone="no"?>
<svg xmlns:ffdec="https://www.free-decompiler.com/flash" xmlns:xlink="http://www.w3.org/1999/xlink" ffdec:objectType="shape" height="35.95px" width="48.5px" xmlns="http://www.w3.org/2000/svg">
  <g transform="matrix(1.0, 0.0, 0.0, 1.0, 0.25, 0.25)">
    <path d="M47.95 0.0 Q48.15 0.6 46.95 2.05 L44.65 3.95 Q39.25 6.75 35.75 10.45 31.35 14.9 31.35 19.4 31.35 22.15 33.0 29.5 33.85 35.45 29.85 35.45 25.75 35.45 26.55 29.5 28.25 22.15 28.25 19.4 28.25 16.35 26.35 11.9 24.5 7.25 23.15 7.25 21.9 7.25 20.75 10.45 19.7 13.35 19.7 16.05 19.7 18.75 21.4 24.45 22.15 28.7 18.15 28.7 14.15 28.7 14.9 24.45 16.6 18.75 16.6 16.05 16.6 8.4 3.7 3.65 2.35 3.1 1.15 2.1 -0.2 0.85 0.05 0.0 L47.95 0.0" fill="#78a022" fill-rule="evenodd" stroke="none"/>
    <path d="M47.95 0.0 L0.05 0.0 Q-0.2 0.85 1.15 2.1 2.35 3.1 3.7 3.65 16.6 8.4 16.6 16.05 16.6 18.75 14.9 24.45 14.15 28.7 18.15 28.7 22.15 28.7 21.4 24.45 19.7 18.75 19.7 16.05 19.7 13.35 20.75 10.45 21.9 7.25 23.15 7.25 24.5 7.25 26.35 11.9 28.25 16.35 28.25 19.4 28.25 22.15 26.55 29.5 25.75 35.45 29.85 35.45 33.85 35.45 33.0 29.5 31.35 22.15 31.35 19.4 31.35 14.9 35.75 10.45 39.25 6.75 44.65 3.95 L46.95 2.05 Q48.15 0.6 47.95 0.0 Z" fill="none" stroke="#606060" stroke-linecap="round" stroke-linejoin="round" stroke-opacity="0.49803922" stroke-width="0.5"/>
  </g>
</svg>
