<?xml version="1.0" encoding="UTF-8" standalone="no"?>
<svg xmlns:ffdec="https://www.free-decompiler.com/flash" xmlns:xlink="http://www.w3.org/1999/xlink" ffdec:objectType="shape" height="15.8px" width="41.1px" xmlns="http://www.w3.org/2000/svg">
  <g transform="matrix(1.0, 0.0, 0.0, 1.0, 36.05, 1.9)">
    <path d="M-4.25 -1.9 L-4.3 4.5 Q-4.3 6.45 0.35 6.55 5.0 6.65 5.0 4.55 L5.05 -1.85 -4.25 -1.9" fill="#e8e26f" fill-rule="evenodd" stroke="none"/>
    <path d="M-19.05 -1.55 L-19.1 2.1 Q-19.1 4.1 -14.55 4.75 -9.95 5.35 -10.25 2.9 -10.55 -0.5 -10.2 -1.5 L-19.05 -1.55" fill="#e8e26f" fill-rule="evenodd" stroke="none"/>
    <path d="M-22.05 13.9 L-22.05 8.75 Q-22.05 7.15 -18.3 7.1 -14.5 7.05 -14.5 8.75 L-14.5 13.9 -22.05 13.9" fill="#e8e26f" fill-rule="evenodd" stroke="none"/>
    <path d="M-36.05 13.9 L-36.05 8.75 Q-36.05 7.15 -32.3 7.1 -28.5 7.05 -28.5 8.75 L-28.5 13.9 -36.05 13.9" fill="#e8e26f" fill-rule="evenodd" stroke="none"/>
    <path d="M-30.55 -0.6 L-30.6 2.35 Q-30.6 3.95 -26.95 4.45 -23.3 4.95 -23.5 3.0 -23.75 0.3 -23.45 -0.55 L-30.55 -0.6" fill="#e8e26f" fill-rule="evenodd" stroke="none"/>
  </g>
</svg>
