<?xml version="1.0" encoding="UTF-8" standalone="no"?>
<svg xmlns:ffdec="https://www.free-decompiler.com/flash" xmlns:xlink="http://www.w3.org/1999/xlink" ffdec:objectType="shape" height="19.1px" width="50.0px" xmlns="http://www.w3.org/2000/svg">
  <g transform="matrix(1.0, 0.0, 0.0, 1.0, 42.05, 6.05)">
    <path d="M-29.8 -3.3 Q-26.05 -4.55 -21.95 -3.8 L-12.35 -1.65 Q-12.4 0.65 -14.85 2.25 -17.35 3.95 -20.85 3.95 -24.35 3.95 -27.2 2.15 -30.1 0.35 -30.1 -1.35 -30.1 -3.1 -29.8 -3.3" fill="#000000" fill-opacity="0.49803922" fill-rule="evenodd" stroke="none"/>
    <path d="M-12.35 -1.65 L-11.35 -1.4 Q-6.35 -0.3 -2.85 -0.8 1.35 -1.35 3.4 -2.3 5.2 -3.15 6.95 -5.05 M-29.8 -3.3 L-31.2 -2.8 Q-32.85 -2.05 -35.45 -2.3 -38.1 -2.6 -39.3 -3.2 -40.6 -3.85 -41.05 -4.75 M-29.8 -3.3 Q-26.05 -4.55 -21.95 -3.8 L-12.35 -1.65 Q-12.4 0.65 -14.85 2.25 -17.35 3.95 -20.85 3.95 -24.35 3.95 -27.2 2.15 -30.1 0.35 -30.1 -1.35 -30.1 -3.1 -29.8 -3.3 Z" fill="none" stroke="#000000" stroke-linecap="round" stroke-linejoin="round" stroke-opacity="0.49803922" stroke-width="2.0"/>
    <path d="M-28.6 9.55 L-26.6 10.65 Q-23.9 11.95 -17.55 11.35" fill="none" stroke="#000000" stroke-linecap="round" stroke-linejoin="round" stroke-opacity="0.29803923" stroke-width="3.0"/>
  </g>
</svg>
