<?xml version="1.0" encoding="UTF-8" standalone="no"?>
<svg xmlns:ffdec="https://www.free-decompiler.com/flash" xmlns:xlink="http://www.w3.org/1999/xlink" ffdec:objectType="shape" height="25.05px" width="52.0px" xmlns="http://www.w3.org/2000/svg">
  <g transform="matrix(1.0, 0.0, 0.0, 1.0, 43.8, 12.65)">
    <path d="M4.8 -5.95 Q-12.1 5.4 -20.05 6.05 -27.45 5.75 -40.75 -6.2 L4.8 -5.95" fill="#ffffff" fill-rule="evenodd" stroke="none"/>
    <path d="M4.8 -5.95 Q-12.1 5.4 -20.05 6.05 -27.45 5.75 -40.75 -6.2 L4.8 -5.95 Z" fill="none" stroke="#000000" stroke-linecap="round" stroke-linejoin="round" stroke-opacity="0.29803923" stroke-width="2.0"/>
    <path d="M-40.2 -6.3 L-38.55 -7.7 Q-36.4 -9.3 -34.2 -10.1 -27.1 -12.7 -21.9 -5.55 -18.4 -11.25 -9.7 -10.55 -0.95 -9.9 4.05 -6.3 -20.4 -2.5 -40.2 -6.3" fill="#990000" fill-rule="evenodd" stroke="none"/>
    <path d="M-40.55 -6.3 L-40.2 -6.3 -38.55 -7.7 Q-36.4 -9.3 -34.2 -10.1 -27.1 -12.7 -21.9 -5.55 -18.4 -11.25 -9.7 -10.55 -0.95 -9.9 4.05 -6.3 L4.55 -6.3 M4.05 -6.3 Q-20.4 -2.5 -40.2 -6.3" fill="none" stroke="#000000" stroke-linecap="round" stroke-linejoin="round" stroke-opacity="0.29803923" stroke-width="2.0"/>
    <path d="M-18.55 11.4 Q-26.35 11.2 -30.25 6.95 -34.25 2.65 -39.95 -5.9 -26.75 2.8 -21.5 3.7 -12.6 3.6 4.4 -5.8 -4.45 3.55 -7.65 7.55 -10.8 11.55 -18.55 11.4" fill="#990000" fill-rule="evenodd" stroke="none"/>
    <path d="M-18.55 11.4 Q-10.8 11.55 -7.65 7.55 -4.45 3.55 4.4 -5.8 -12.6 3.6 -21.5 3.7 -26.75 2.8 -39.95 -5.9 -34.25 2.65 -30.25 6.95 -26.35 11.2 -18.55 11.4 Z" fill="none" stroke="#000000" stroke-linecap="round" stroke-linejoin="round" stroke-opacity="0.29803923" stroke-width="2.0"/>
    <path d="M-42.35 -11.65 Q-40.4 -7.2 -42.8 -4.65" fill="none" stroke="#000000" stroke-linecap="round" stroke-linejoin="round" stroke-opacity="0.29803923" stroke-width="2.0"/>
    <path d="M5.6 -11.65 Q4.9 -6.9 7.2 -4.3" fill="none" stroke="#000000" stroke-linecap="round" stroke-linejoin="round" stroke-opacity="0.29803923" stroke-width="2.0"/>
  </g>
</svg>
