<?xml version="1.0" encoding="UTF-8" standalone="no"?>
<svg xmlns:ffdec="https://www.free-decompiler.com/flash" xmlns:xlink="http://www.w3.org/1999/xlink" ffdec:objectType="shape" height="22.7px" width="60.35px" xmlns="http://www.w3.org/2000/svg">
  <g transform="matrix(1.0, 0.0, 0.0, 1.0, 33.9, 6.85)">
    <path d="M-32.9 6.8 L-22.1 6.35 Q-18.45 5.7 -4.35 6.15 9.7 6.6 15.85 3.85 21.9 1.0 25.45 -5.85" fill="none" stroke="#000000" stroke-linecap="round" stroke-linejoin="miter-clip" stroke-miterlimit="4.0" stroke-opacity="0.29803923" stroke-width="2.0"/>
    <path d="M-23.5 6.25 Q-22.75 2.05 -20.4 -0.8 -18.05 -3.55 -10.5 -3.1 -3.15 -2.55 1.3 0.6 5.8 3.75 7.8 5.65 L6.35 5.95 Q5.75 8.25 2.2 11.35 -1.75 14.7 -9.1 14.85 -16.45 15.05 -18.7 11.55 -20.55 8.55 -20.75 6.3 L-23.5 6.25" fill="#000000" fill-opacity="0.4" fill-rule="evenodd" stroke="none"/>
    <path d="M7.8 5.65 Q5.8 3.75 1.3 0.6 -3.15 -2.55 -10.5 -3.1 -18.05 -3.55 -20.4 -0.8 -22.75 2.05 -23.5 6.25 M-20.75 6.3 Q-20.55 8.55 -18.7 11.55 -16.45 15.05 -9.1 14.85 -1.75 14.7 2.2 11.35 5.75 8.25 6.35 5.95" fill="none" stroke="#000000" stroke-linecap="round" stroke-linejoin="round" stroke-opacity="0.29803923" stroke-width="2.0"/>
  </g>
</svg>
