<?xml version="1.0" encoding="UTF-8" standalone="no"?>
<svg xmlns:ffdec="https://www.free-decompiler.com/flash" xmlns:xlink="http://www.w3.org/1999/xlink" ffdec:objectType="shape" height="21.4px" width="67.75px" xmlns="http://www.w3.org/2000/svg">
  <g transform="matrix(1.0, 0.0, 0.0, 1.0, 49.85, 8.3)">
    <path d="M-29.95 -6.7 Q-26.2 -7.4 -23.4 -6.6 -20.65 -5.8 -19.2 -3.2 -18.65 -5.35 -14.6 -6.65 -10.55 -8.0 -7.35 -6.75 -4.15 -5.5 -2.6 -4.15 -1.1 -2.8 0.6 -0.1 -3.2 0.15 -4.8 1.0 -2.15 5.4 -6.3 8.35 -10.4 11.3 -16.5 12.0 -22.7 12.6 -28.4 9.55 -34.05 6.35 -30.65 1.5 -32.15 0.4 -36.3 0.25 -33.75 -5.95 -29.95 -6.7" fill="#333333" fill-opacity="0.49803922" fill-rule="evenodd" stroke="none"/>
    <path d="M-18.5 8.5 Q-20.0 9.25 -22.15 9.1 -24.3 9.0 -25.85 8.05 -27.4 7.2 -27.4 6.05 -27.4 4.85 -25.85 4.15 -24.3 3.5 -22.15 3.6 -20.0 3.75 -18.5 4.6 -16.95 5.5 -16.95 6.7 -16.95 7.85 -18.5 8.5" fill="#ffffff" fill-opacity="0.4" fill-rule="evenodd" stroke="none"/>
    <path d="M-48.85 3.9 Q-39.5 -0.95 -30.6 1.45 -17.45 3.05 -4.75 0.95 L0.6 -0.1 Q-1.1 -2.8 -2.6 -4.15 -4.1 -5.5 -7.3 -6.75 -10.5 -7.95 -14.6 -6.6 -18.65 -5.35 -19.2 -3.15 -20.65 -5.8 -23.4 -6.55 -26.2 -7.4 -29.9 -6.65 -33.75 -5.95 -36.3 0.25 M-30.6 1.45 Q-34.05 6.35 -28.35 9.55 -22.6 12.6 -16.5 12.0 -10.35 11.35 -6.3 8.4 -2.15 5.4 -4.75 0.95 M16.9 3.85 Q8.45 -2.6 0.6 -0.1" fill="none" stroke="#000000" stroke-linecap="round" stroke-linejoin="round" stroke-opacity="0.33333334" stroke-width="2.0"/>
  </g>
</svg>
