<?xml version="1.0" encoding="UTF-8" standalone="no"?>
<svg xmlns:ffdec="https://www.free-decompiler.com/flash" xmlns:xlink="http://www.w3.org/1999/xlink" ffdec:objectType="shape" height="25.5px" width="81.1px" xmlns="http://www.w3.org/2000/svg">
  <g transform="matrix(1.0, 0.0, 0.0, 1.0, 56.3, 7.25)">
    <path d="M15.95 -5.55 Q21.8 -4.7 23.5 1.7 16.55 -2.35 10.55 0.3 5.5 13.85 -2.4 18.25 0.05 8.7 -2.15 1.05 -20.15 6.85 -32.7 1.1 -34.6 8.7 -31.45 17.65 -41.85 14.2 -45.95 -1.15 -51.8 -2.3 -54.15 -1.0 -56.55 0.25 -53.75 -3.45 -50.95 -7.2 -44.2 -5.65 -25.15 -1.65 -17.7 -1.45 -10.25 -1.3 9.15 -5.85 L15.95 -5.55" fill="#000000" fill-opacity="0.13333334" fill-rule="evenodd" stroke="none"/>
    <path d="M3.1 -3.45 Q10.7 -5.2 13.5 -5.2 13.3 11.25 1.3 15.9 6.8 7.05 3.1 -3.45 M-47.25 -5.6 Q-47.15 -6.15 -37.5 -4.15 -41.7 6.4 -35.8 15.55 -46.8 10.15 -47.25 -5.6" fill="#ffffff" fill-rule="evenodd" stroke="none"/>
    <path d="M3.1 -3.45 Q6.8 7.05 1.3 15.9 13.3 11.25 13.5 -5.2 M-47.25 -5.6 Q-46.8 10.15 -35.8 15.55 -41.7 6.4 -37.5 -4.15" fill="none" stroke="#000000" stroke-linecap="round" stroke-linejoin="round" stroke-opacity="0.4" stroke-width="2.0"/>
    <path d="M-55.3 1.2 Q-55.1 -3.05 -53.25 -4.7 -51.5 -6.4 -48.15 -6.25 L-42.95 -5.6 -28.95 -2.35 Q-18.35 0.2 -9.05 -1.65 L4.1 -4.2 12.6 -5.55 Q17.1 -6.25 19.55 -4.4 21.95 -2.6 22.75 -0.55 L23.8 3.6" fill="none" stroke="#000000" stroke-linecap="round" stroke-linejoin="round" stroke-opacity="0.49803922" stroke-width="2.0"/>
  </g>
</svg>
