<?xml version="1.0" encoding="UTF-8" standalone="no"?>
<svg xmlns:ffdec="https://www.free-decompiler.com/flash" xmlns:xlink="http://www.w3.org/1999/xlink" ffdec:objectType="shape" height="26.85px" width="52.1px" xmlns="http://www.w3.org/2000/svg">
  <g transform="matrix(1.0, 0.0, 0.0, 1.0, 43.95, 10.7)">
    <path d="M5.15 0.55 Q-3.75 -1.9 -15.7 -2.55 L-15.85 -2.55 Q-23.3 -2.95 -30.25 -2.4 L-41.75 -0.9" fill="none" stroke="#000000" stroke-linecap="round" stroke-linejoin="round" stroke-opacity="0.49803922" stroke-width="2.0"/>
    <path d="M-40.35 -7.7 Q-42.25 -5.7 -42.8 -1.85 -43.95 5.85 -37.15 15.15" fill="none" stroke="#000000" stroke-linecap="round" stroke-linejoin="round" stroke-opacity="0.13333334" stroke-width="2.0"/>
    <path d="M2.3 -9.15 Q4.1 -7.45 5.55 -3.65 8.35 3.85 6.2 14.3" fill="none" stroke="#000000" stroke-linecap="round" stroke-linejoin="round" stroke-opacity="0.13333334" stroke-width="2.0"/>
    <path d="M-32.1 -9.7 Q-32.05 -8.2 -31.6 -6.45 -30.7 -2.85 -28.5 -1.3" fill="none" stroke="#000000" stroke-linecap="round" stroke-linejoin="round" stroke-opacity="0.08235294" stroke-width="2.0"/>
    <path d="M-6.3 -8.55 Q-6.3 -7.0 -6.55 -5.35 -6.95 -2.05 -7.95 -1.45" fill="none" stroke="#000000" stroke-linecap="round" stroke-linejoin="round" stroke-opacity="0.08235294" stroke-width="2.0"/>
    <path d="M-24.4 -3.15 Q-24.6 -0.15 -24.4 3.85" fill="none" stroke="#000000" stroke-linecap="round" stroke-linejoin="round" stroke-opacity="0.08235294" stroke-width="2.0"/>
    <path d="M-13.3 -2.15 L-10.75 4.25" fill="none" stroke="#000000" stroke-linecap="round" stroke-linejoin="round" stroke-opacity="0.08235294" stroke-width="2.0"/>
  </g>
</svg>
