<?xml version="1.0" encoding="UTF-8" standalone="no"?>
<svg xmlns:ffdec="https://www.free-decompiler.com/flash" xmlns:xlink="http://www.w3.org/1999/xlink" ffdec:objectType="shape" height="34.3px" width="54.1px" xmlns="http://www.w3.org/2000/svg">
  <g transform="matrix(1.0, 0.0, 0.0, 1.0, 84.5, 19.2)">
    <path d="M-80.7 -2.5 Q-83.85 -5.3 -83.45 -8.15 -83.0 -10.9 -80.75 -11.45 -78.5 -12.0 -76.85 -10.7 -75.25 -9.5 -74.2 -6.5 -74.05 -8.95 -72.2 -10.4 -70.4 -11.95 -68.2 -11.25 -65.75 -10.45 -64.8 -8.25 -64.15 -6.85 -64.2 -5.2 -64.35 -3.3 -66.5 -1.85 L-80.7 -2.5" fill="#b2a17d" fill-rule="evenodd" stroke="none"/>
    <path d="M-66.5 -1.85 Q-64.35 -3.3 -64.2 -5.2 -64.15 -6.85 -64.8 -8.25 -65.75 -10.45 -68.2 -11.25 -70.4 -11.95 -72.2 -10.4 -74.05 -8.95 -74.2 -6.5 -75.25 -9.5 -76.85 -10.7 -78.5 -12.0 -80.75 -11.45 -83.0 -10.9 -83.45 -8.15 -83.85 -5.3 -80.7 -2.5" fill="none" stroke="#756a52" stroke-linecap="round" stroke-linejoin="round" stroke-width="2.0"/>
    <path d="M-66.5 -1.0 Q-62.2 3.15 -65.2 5.95 -68.2 8.7 -73.1 9.35 -78.0 10.0 -81.85 6.45 -85.7 2.85 -79.55 -1.55 L-66.5 -1.0" fill="#b2a17d" fill-rule="evenodd" stroke="none"/>
    <path d="M-66.5 -1.0 Q-62.2 3.15 -65.2 5.95 -68.2 8.7 -73.1 9.35 -78.0 10.0 -81.85 6.45 -85.7 2.85 -79.55 -1.55" fill="none" stroke="#756a52" stroke-linecap="round" stroke-linejoin="round" stroke-width="2.0"/>
    <path d="M-81.0 -2.0 Q-64.6 -0.2 -65.95 -1.7" fill="none" stroke="#756a52" stroke-linecap="round" stroke-linejoin="round" stroke-width="2.0"/>
    <path d="M-74.75 4.2 Q-75.65 4.9 -76.95 5.0 -78.25 5.1 -79.2 4.5 -80.1 3.95 -80.1 3.0 -80.1 2.05 -79.2 1.35 -78.25 0.7 -76.95 0.6 -75.65 0.5 -74.75 1.05 -73.8 1.65 -73.8 2.6 -73.8 3.55 -74.75 4.2" fill="#d7cebb" fill-rule="evenodd" stroke="none"/>
    <path d="M-48.85 14.1 Q-57.15 8.6 -57.15 0.9 -57.15 -7.1 -48.15 -12.8 -41.0 -17.35 -31.4 -18.2" fill="none" stroke="#000000" stroke-linecap="round" stroke-linejoin="round" stroke-opacity="0.49803922" stroke-width="2.0"/>
  </g>
</svg>
