<?xml version="1.0" encoding="UTF-8" standalone="no"?>
<svg xmlns:ffdec="https://www.free-decompiler.com/flash" xmlns:xlink="http://www.w3.org/1999/xlink" ffdec:objectType="shape" height="23.45px" width="67.55px" xmlns="http://www.w3.org/2000/svg">
  <g transform="matrix(1.0, 0.0, 0.0, 1.0, 54.0, 21.3)">
    <path d="M-32.4 -9.5 Q-27.35 -12.1 -25.2 -19.8 L-24.85 -18.95 Q-22.1 -12.35 -17.05 -9.15 -17.5 1.55 -24.3 1.65 -31.15 1.65 -32.4 -9.5 M-24.65 -5.4 L-24.85 -18.95 -24.65 -5.4" fill="#ff6666" fill-rule="evenodd" stroke="none"/>
    <path d="M-24.85 -18.95 L-24.65 -5.4" fill="none" stroke="#ba4a4a" stroke-linecap="round" stroke-linejoin="round" stroke-width="1.0"/>
    <path d="M-17.05 -9.15 Q-17.5 1.55 -24.3 1.65 -31.15 1.65 -32.4 -9.5" fill="none" stroke="#000000" stroke-linecap="round" stroke-linejoin="round" stroke-opacity="0.29803923" stroke-width="1.0"/>
    <path d="M12.4 -13.45 Q13.35 -19.15 7.8 -20.3 M-53.0 -15.15 Q-52.4 -19.85 -48.0 -19.8 M11.0 -17.95 Q1.35 -7.85 -10.2 -8.65 -21.75 -9.5 -25.2 -19.05 -28.8 -10.3 -36.45 -9.95 -44.15 -9.65 -50.6 -17.85" fill="none" stroke="#000000" stroke-linecap="round" stroke-linejoin="round" stroke-opacity="0.49803922" stroke-width="2.0"/>
  </g>
</svg>
