<?xml version="1.0" encoding="UTF-8" standalone="no"?>
<svg xmlns:ffdec="https://www.free-decompiler.com/flash" xmlns:xlink="http://www.w3.org/1999/xlink" ffdec:objectType="shape" height="21.0px" width="48.2px" xmlns="http://www.w3.org/2000/svg">
  <g transform="matrix(1.0, 0.0, 0.0, 1.0, 41.3, 10.3)">
    <path d="M5.9 -1.3 L5.55 1.0 1.85 5.15 Q0.55 8.5 -11.35 9.45 -23.25 10.4 -28.9 7.65 -34.6 4.85 -34.6 3.6 -34.7 2.3 -38.25 2.3 L-40.3 0.6 Q-39.3 -6.5 -33.85 -7.4 -28.4 -8.35 -24.9 -7.3 -21.45 -6.35 -13.85 -8.45 -6.3 -10.6 -0.2 -7.4 5.9 -4.3 5.9 -1.3" fill="#660066" fill-rule="evenodd" stroke="none"/>
    <path d="M5.9 -1.3 Q5.9 -4.3 -0.2 -7.4 -6.3 -10.6 -13.85 -8.45 -21.45 -6.35 -24.9 -7.3 -28.4 -8.35 -33.85 -7.4 -39.3 -6.5 -40.3 0.6 L-38.25 2.3 Q-34.7 2.3 -34.6 3.6 -34.6 4.85 -28.9 7.65 -23.25 10.4 -11.35 9.45 0.55 8.5 1.85 5.15 L5.55 1.0 5.9 -1.3 Z" fill="none" stroke="#000000" stroke-linecap="round" stroke-linejoin="round" stroke-opacity="0.2" stroke-width="2.0"/>
    <path d="M-16.35 4.4 Q-17.8 5.3 -20.0 5.4 -22.2 5.5 -23.95 4.75 -25.7 4.15 -25.95 3.0 -26.2 1.9 -24.75 1.0 -23.3 0.25 -21.1 0.15 L-17.15 0.65 Q-15.4 1.4 -15.15 2.5 -14.9 3.65 -16.35 4.4" fill="#ffffff" fill-opacity="0.4" fill-rule="evenodd" stroke="none"/>
  </g>
</svg>
