<?xml version="1.0" encoding="UTF-8" standalone="no"?>
<svg xmlns:ffdec="https://www.free-decompiler.com/flash" xmlns:xlink="http://www.w3.org/1999/xlink" ffdec:objectType="shape" height="15.0px" width="59.65px" xmlns="http://www.w3.org/2000/svg">
  <g transform="matrix(1.0, 0.0, 0.0, 1.0, -8.75, 0.55)">
    <path d="M54.0 4.7 L61.9 4.7 Q57.8 11.6 52.6 14.45 54.05 9.2 54.0 4.7" fill="#000000" fill-opacity="0.13333334" fill-rule="evenodd" stroke="none"/>
    <path d="M12.4 3.8 L21.75 3.8 Q21.7 8.8 23.55 14.35 16.4 11.9 12.4 3.8" fill="#000000" fill-opacity="0.13333334" fill-rule="evenodd" stroke="none"/>
    <path d="M59.65 2.6 L67.4 1.45 Q64.55 10.05 56.35 13.15 60.3 6.95 59.65 2.6 M9.75 0.45 L15.85 0.95 Q15.45 6.3 19.25 12.3 12.3 8.8 9.75 0.45" fill="#ffffff" fill-rule="evenodd" stroke="none"/>
    <path d="M59.65 2.6 Q60.3 6.95 56.35 13.15 64.55 10.05 67.4 1.45 M9.75 0.45 Q12.3 8.8 19.25 12.3 15.45 6.3 15.85 0.95" fill="none" stroke="#000000" stroke-linecap="round" stroke-linejoin="round" stroke-opacity="0.4" stroke-width="2.0"/>
  </g>
</svg>
