<?xml version="1.0" encoding="UTF-8" standalone="no"?>
<svg xmlns:ffdec="https://www.free-decompiler.com/flash" xmlns:xlink="http://www.w3.org/1999/xlink" ffdec:objectType="shape" height="48.0px" width="111.5px" xmlns="http://www.w3.org/2000/svg">
  <g transform="matrix(1.0, 0.0, 0.0, 1.0, 57.15, 16.8)">
    <path d="M35.9 16.55 Q24.6 28.9 1.9 29.65 -20.65 30.35 -36.2 18.5 -51.7 6.65 -55.65 -14.8 -1.95 7.7 52.85 -15.3 47.15 4.2 35.9 16.55" fill="#000000" fill-opacity="0.49803922" fill-rule="evenodd" stroke="none"/>
    <path d="M35.9 16.55 Q47.15 4.2 52.85 -15.3 -1.95 7.7 -55.65 -14.8 -51.7 6.65 -36.2 18.5 -20.65 30.35 1.9 29.65 24.6 28.9 35.9 16.55 Z" fill="none" stroke="#000000" stroke-linecap="round" stroke-linejoin="round" stroke-opacity="0.49803922" stroke-width="3.0"/>
    <path d="M50.65 -12.6 Q48.7 -6.2 47.75 -4.7 1.45 18.95 -51.5 -4.5 -52.7 -7.1 -53.9 -12.45 -1.9 8.2 50.65 -12.6" fill="#ffffff" fill-rule="evenodd" stroke="none"/>
    <path d="M23.75 23.35 Q10.35 29.15 -2.0 27.65 -0.45 21.9 3.3 20.35 7.0 18.75 11.4 18.9 15.85 19.2 18.85 20.55 21.85 22.0 23.75 23.35" fill="#ec4646" fill-rule="evenodd" stroke="none"/>
  </g>
</svg>
