<?xml version="1.0" encoding="UTF-8" standalone="no"?>
<svg xmlns:ffdec="https://www.free-decompiler.com/flash" xmlns:xlink="http://www.w3.org/1999/xlink" ffdec:objectType="shape" height="22.15px" width="62.3px" xmlns="http://www.w3.org/2000/svg">
  <g transform="matrix(1.0, 0.0, 0.0, 1.0, -7.4, 1.2)">
    <path d="M53.1 5.2 L64.9 5.2 Q59.8 17.05 52.6 20.95 55.1 11.9 53.1 5.2" fill="#000000" fill-opacity="0.13333334" fill-rule="evenodd" stroke="none"/>
    <path d="M9.65 3.05 L22.4 3.05 22.4 4.9 Q20.65 12.2 23.55 20.85 13.6 17.4 9.65 3.05" fill="#000000" fill-opacity="0.13333334" fill-rule="evenodd" stroke="none"/>
    <path d="M58.85 2.6 L68.7 1.2 Q67.45 15.5 56.35 19.65 61.7 11.25 58.85 2.6 M17.05 1.05 Q14.0 10.45 19.25 18.8 9.6 13.9 8.4 -0.2 L17.05 1.05" fill="#ffffff" fill-rule="evenodd" stroke="none"/>
    <path d="M58.85 2.6 Q61.7 11.25 56.35 19.65 67.45 15.5 68.7 1.2 M8.4 -0.2 Q9.6 13.9 19.25 18.8 14.0 10.45 17.05 1.05" fill="none" stroke="#000000" stroke-linecap="round" stroke-linejoin="round" stroke-opacity="0.4" stroke-width="2.0"/>
  </g>
</svg>
