<?xml version="1.0" encoding="UTF-8" standalone="no"?>
<svg xmlns:ffdec="https://www.free-decompiler.com/flash" xmlns:xlink="http://www.w3.org/1999/xlink" ffdec:objectType="shape" height="26.75px" width="62.7px" xmlns="http://www.w3.org/2000/svg">
  <g transform="matrix(1.0, 0.0, 0.0, 1.0, -7.1, 0.45)">
    <path d="M52.9 8.4 Q59.75 6.8 65.65 7.05 60.35 21.7 52.6 26.3 55.2 15.95 52.9 8.4" fill="#000000" fill-opacity="0.13333334" fill-rule="evenodd" stroke="none"/>
    <path d="M9.3 0.05 L11.15 0.45 22.4 3.05 22.4 8.7 Q20.65 16.7 23.55 26.2 13.2 22.25 9.3 5.35 L9.3 0.05" fill="#000000" fill-opacity="0.13333334" fill-rule="evenodd" stroke="none"/>
    <path d="M58.4 3.65 Q66.0 1.9 68.8 1.9 68.4 19.95 56.35 24.9 61.95 15.2 58.4 3.65 M8.1 0.55 Q8.2 -0.05 17.8 2.25 13.45 13.8 19.25 23.95 8.3 17.85 8.1 0.55" fill="#ffffff" fill-rule="evenodd" stroke="none"/>
    <path d="M58.4 3.65 Q61.95 15.2 56.35 24.9 68.4 19.95 68.8 1.9 M8.1 0.55 Q8.3 17.85 19.25 23.95 13.45 13.8 17.8 2.25" fill="none" stroke="#000000" stroke-linecap="round" stroke-linejoin="round" stroke-opacity="0.4" stroke-width="2.0"/>
  </g>
</svg>
