<?xml version="1.0" encoding="UTF-8" standalone="no"?>
<svg xmlns:ffdec="https://www.free-decompiler.com/flash" xmlns:xlink="http://www.w3.org/1999/xlink" ffdec:objectType="shape" height="24.45px" width="62.7px" xmlns="http://www.w3.org/2000/svg">
  <g transform="matrix(1.0, 0.0, 0.0, 1.0, -7.1, 0.5)">
    <path d="M52.9 7.65 Q59.75 6.2 65.65 6.4 60.35 19.75 52.6 23.95 55.2 14.5 52.9 7.65" fill="#000000" fill-opacity="0.13333334" fill-rule="evenodd" stroke="none"/>
    <path d="M9.3 0.05 L11.15 0.4 22.4 2.8 22.4 7.9 Q20.65 15.2 23.55 23.85 13.2 20.25 9.3 4.85 L9.3 0.05" fill="#000000" fill-opacity="0.13333334" fill-rule="evenodd" stroke="none"/>
    <path d="M58.4 3.3 Q66.0 1.7 68.8 1.7 68.4 18.15 56.35 22.65 61.95 13.85 58.4 3.3 M8.1 0.5 Q8.2 -0.05 17.8 2.05 13.45 12.55 19.25 21.8 8.3 16.25 8.1 0.5" fill="#ffffff" fill-rule="evenodd" stroke="none"/>
    <path d="M58.4 3.3 Q61.95 13.85 56.35 22.65 68.4 18.15 68.8 1.7 M8.1 0.5 Q8.3 16.25 19.25 21.8 13.45 12.55 17.8 2.05" fill="none" stroke="#000000" stroke-linecap="round" stroke-linejoin="round" stroke-opacity="0.4" stroke-width="2.0"/>
  </g>
</svg>
