<?xml version="1.0" encoding="UTF-8" standalone="no"?>
<svg xmlns:ffdec="https://www.free-decompiler.com/flash" xmlns:xlink="http://www.w3.org/1999/xlink" ffdec:objectType="shape" height="11.6px" width="81.1px" xmlns="http://www.w3.org/2000/svg">
  <g transform="matrix(1.0, 0.0, 0.0, 1.0, 55.05, 5.25)">
    <path d="M13.2 1.25 Q6.3 1.4 -1.45 3.1 L-15.05 5.85 Q-22.15 6.85 -27.0 5.8 L-27.0 5.7 -27.25 5.7 -45.3 2.35 Q-51.15 1.45 -53.5 2.8 -55.85 4.1 -53.2 0.35 -50.5 -3.5 -43.7 -2.2 -24.55 1.15 -17.1 1.1 -9.65 1.0 9.6 -4.2 10.5 -4.85 16.35 -4.15 22.25 -3.45 24.15 2.85 20.8 1.05 13.2 1.25" fill="#000000" fill-opacity="0.13333334" fill-rule="evenodd" stroke="none"/>
    <path d="M-54.05 5.1 Q-54.0 0.85 -52.25 -0.9 -50.55 -2.65 -47.15 -2.6 L-41.95 -2.15 -27.8 0.65 Q-17.2 2.85 -7.95 0.65 L5.1 -2.35 13.55 -4.0 Q18.05 -4.85 20.55 -3.05 23.05 -1.35 23.9 0.7 L25.05 4.8" fill="none" stroke="#000000" stroke-linecap="round" stroke-linejoin="round" stroke-opacity="0.49803922" stroke-width="2.0"/>
  </g>
</svg>
