<?xml version="1.0" encoding="UTF-8" standalone="no"?>
<svg xmlns:ffdec="https://www.free-decompiler.com/flash" xmlns:xlink="http://www.w3.org/1999/xlink" ffdec:objectType="shape" height="22.2px" width="64.55px" xmlns="http://www.w3.org/2000/svg">
  <g transform="matrix(1.0, 0.0, 0.0, 1.0, 47.9, 8.95)">
    <path d="M0.6 3.2 L1.25 3.35 Q0.85 5.8 -4.45 9.1 -9.65 12.35 -19.4 12.25 -29.05 12.25 -31.95 8.65 -34.65 5.25 -35.0 1.95 L-37.6 2.25 Q-36.7 -1.8 -35.6 -4.05 -34.35 -6.65 -30.2 -7.55 -26.0 -8.45 -21.25 -3.4 -16.0 -8.85 -12.2 -7.8 -8.4 -6.8 -3.45 -2.85 1.0 0.7 3.05 3.7 L0.6 3.2" fill="#3c610c" fill-opacity="0.8" fill-rule="evenodd" stroke="none"/>
    <path d="M0.6 3.2 L3.05 3.7 Q1.0 0.7 -3.45 -2.85 -8.4 -6.8 -12.2 -7.8 -16.0 -8.85 -21.25 -3.4 -26.0 -8.45 -30.2 -7.55 -34.35 -6.65 -35.6 -4.05 -36.7 -1.8 -37.6 2.25 L-35.0 1.95 Q-34.65 5.25 -31.95 8.65 -29.05 12.25 -19.4 12.25 -9.65 12.35 -4.45 9.1 0.85 5.8 1.25 3.35 L0.6 3.2 Z" fill="none" stroke="#000000" stroke-linecap="round" stroke-linejoin="round" stroke-opacity="0.29803923" stroke-width="2.0"/>
    <path d="M-46.9 6.3 Q-42.95 4.0 -35.65 2.15 -31.55 1.1 -26.25 1.1 L-9.05 2.1 Q2.75 3.1 6.75 4.15 10.8 5.15 15.65 8.4" fill="none" stroke="#000000" stroke-linecap="round" stroke-linejoin="miter-clip" stroke-miterlimit="4.0" stroke-opacity="0.29803923" stroke-width="2.0"/>
    <path d="M-21.6 3.3 L-17.05 4.05 Q-15.8 4.5 -16.15 6.05 -16.5 7.6 -18.35 8.55 -20.2 9.5 -22.65 9.35 -25.1 9.15 -26.85 7.9 -28.5 6.75 -28.5 5.3 -28.55 3.8 -26.75 3.45 L-21.6 3.3" fill="#ffffff" fill-opacity="0.3019608" fill-rule="evenodd" stroke="none"/>
  </g>
</svg>
