<?xml version="1.0" encoding="UTF-8" standalone="no"?>
<svg xmlns:ffdec="https://www.free-decompiler.com/flash" xmlns:xlink="http://www.w3.org/1999/xlink" ffdec:objectType="shape" height="21.4px" width="64.9px" xmlns="http://www.w3.org/2000/svg">
  <g transform="matrix(1.0, 0.0, 0.0, 1.0, 49.3, 9.65)">
    <path d="M-30.6 -8.05 Q-26.85 -8.75 -24.05 -7.95 -21.3 -7.15 -19.85 -4.55 -19.3 -6.7 -15.25 -8.0 -11.2 -9.35 -8.0 -8.1 -4.8 -6.85 -3.25 -5.5 -1.75 -4.15 -0.05 -1.45 -3.85 -1.2 -5.45 -0.35 -2.8 4.05 -6.95 7.0 -11.05 9.95 -17.15 10.65 -23.35 11.25 -29.05 8.2 -34.7 5.0 -31.3 0.15 -32.8 -0.95 -36.95 -1.1 -34.4 -7.3 -30.6 -8.05" fill="#d0de3d" fill-rule="evenodd" stroke="none"/>
    <path d="M-16.9 5.35 Q-16.9 6.5 -18.45 7.15 -19.95 7.9 -22.1 7.75 -24.25 7.65 -26.3 6.65 -28.35 5.65 -28.75 4.4 -29.15 3.1 -27.35 2.75 L-23.7 2.6 Q-21.85 2.75 -19.35 3.45 -16.9 4.15 -16.9 5.35" fill="#ffffff" fill-opacity="0.8" fill-rule="evenodd" stroke="none"/>
    <path d="M-30.55 -8.0 Q-34.4 -7.3 -36.95 -0.9 -34.25 -0.75 -31.25 0.1 -18.1 1.7 -5.4 -0.4 L-0.05 -1.45 Q-1.75 -4.15 -3.25 -5.5 -4.75 -6.85 -7.95 -8.1 -11.15 -9.3 -15.25 -7.95 -19.3 -6.7 -19.85 -4.5 -21.3 -7.15 -24.05 -7.9 -26.85 -8.75 -30.55 -8.0 M-31.25 0.1 Q-34.7 5.0 -29.0 8.2 -23.25 11.25 -17.15 10.65 -11.0 10.0 -6.95 7.05 -2.8 4.05 -5.4 -0.4 M-36.95 -0.9 L-48.3 -1.8 M14.6 -1.55 Q10.1 -2.35 -0.05 -1.45" fill="none" stroke="#000000" stroke-linecap="round" stroke-linejoin="round" stroke-opacity="0.33333334" stroke-width="2.0"/>
  </g>
</svg>
