<?xml version="1.0" encoding="UTF-8" standalone="no"?>
<svg xmlns:ffdec="https://www.free-decompiler.com/flash" xmlns:xlink="http://www.w3.org/1999/xlink" ffdec:objectType="shape" height="40.0px" width="74.85px" xmlns="http://www.w3.org/2000/svg">
  <g transform="matrix(1.0, 0.0, 0.0, 1.0, 55.95, 22.5)">
    <path d="M-13.55 -7.7 L-18.6 -8.4 -18.85 -11.35 -19.9 -20.55 Q-15.6 -14.0 -13.55 -7.7 M0.55 -22.5 L4.35 -21.35 Q11.25 -11.9 6.0 -2.6 L4.1 0.4 Q-0.35 -2.65 -4.6 -4.6 -0.9 -8.6 0.35 -13.65 1.35 -17.95 0.55 -22.5 M-40.85 -12.95 Q-43.3 -2.35 -43.3 0.95 -46.75 4.2 -49.3 8.35 -49.75 4.65 -49.1 -0.4 -47.6 -11.9 -40.25 -20.85 -38.65 -22.8 -40.85 -12.95" fill="#693f1d" fill-opacity="0.29803923" fill-rule="evenodd" stroke="none"/>
    <path d="M1.3 -1.4 L2.85 -5.0 Q6.25 -12.1 8.15 -12.1 11.15 -12.1 14.6 -10.35 18.75 -8.2 18.35 -5.5 17.95 -1.85 12.6 7.0 6.8 1.95 1.3 -1.4 M1.4 -8.65 Q0.7 -6.1 -1.75 -3.15 -7.85 -6.45 -13.6 -7.7 L-12.55 -10.3 Q-9.7 -16.9 -7.85 -16.65 -4.9 -16.2 -1.65 -13.95 2.1 -11.35 1.4 -8.65 M-23.4 -8.35 Q-28.7 -7.9 -33.65 -5.55 L-36.25 -4.2 -37.05 -7.0 Q-38.7 -13.5 -37.1 -14.5 -34.55 -16.1 -30.65 -16.5 -26.05 -16.9 -24.9 -14.35 -24.05 -12.4 -23.4 -8.35 M-38.15 -3.05 L-38.1 -3.0 -46.75 4.7 -47.15 5.05 -51.75 1.45 Q-56.2 -2.55 -55.3 -4.3 -54.0 -6.95 -50.8 -9.15 -47.0 -11.85 -44.7 -10.3 -42.55 -8.85 -40.1 -5.8 L-38.15 -3.05 Q-43.15 0.15 -46.75 4.7 -43.15 0.15 -38.15 -3.05" fill="#bcb834" fill-rule="evenodd" stroke="none"/>
    <path d="M1.3 -1.4 L2.85 -5.0 Q6.25 -12.1 8.15 -12.1 11.15 -12.1 14.6 -10.35 18.75 -8.2 18.35 -5.5 17.95 -1.85 12.6 7.0 L17.4 11.4 M1.4 -8.65 Q2.1 -11.35 -1.65 -13.95 -4.9 -16.2 -7.85 -16.65 -9.7 -16.9 -12.55 -10.3 L-13.6 -7.7 Q-7.85 -6.45 -1.75 -3.15 0.7 -6.1 1.4 -8.65 M-13.6 -7.7 Q-18.65 -8.8 -23.4 -8.35 -28.7 -7.9 -33.65 -5.55 L-36.25 -4.2 -38.15 -3.05 -38.1 -3.0 M-46.75 4.7 Q-48.85 7.35 -50.5 10.5 M12.6 7.0 Q6.8 1.95 1.3 -1.4 L-1.75 -3.15 M-23.4 -8.35 Q-24.05 -12.4 -24.9 -14.35 -26.05 -16.9 -30.65 -16.5 -34.55 -16.1 -37.1 -14.5 -38.7 -13.5 -37.05 -7.0 L-36.25 -4.2 M-46.75 4.7 L-47.15 5.05 -51.75 1.45 Q-56.2 -2.55 -55.3 -4.3 -54.0 -6.95 -50.8 -9.15 -47.0 -11.85 -44.7 -10.3 -42.55 -8.85 -40.1 -5.8 L-38.15 -3.05 Q-43.15 0.15 -46.75 4.7 Z" fill="none" stroke="#000000" stroke-linecap="round" stroke-linejoin="round" stroke-opacity="0.29803923" stroke-width="1.0"/>
    <path d="M3.55 -0.6 Q4.35 -2.85 5.95 -5.9 7.55 -9.15 8.45 -9.8 10.1 -9.75 12.3 -8.9 14.6 -8.0 15.7 -6.85 16.3 -6.05 16.05 -5.85 15.75 -2.9 11.15 3.9" fill="none" stroke="#ffffff" stroke-linecap="round" stroke-linejoin="miter-clip" stroke-miterlimit="10.0" stroke-opacity="0.14901961" stroke-width="1.5"/>
    <path d="M-47.0 2.1 Q-51.95 -1.6 -52.8 -3.6 -51.8 -5.2 -49.8 -6.8 -47.65 -8.6 -46.25 -8.6 L-45.7 -8.45 Q-43.8 -7.15 -41.25 -3.9" fill="none" stroke="#ffffff" stroke-linecap="round" stroke-linejoin="miter-clip" stroke-miterlimit="10.0" stroke-opacity="0.2" stroke-width="1.5"/>
    <path d="M-34.35 -6.05 L-35.1 -8.9 Q-35.75 -11.65 -35.55 -12.75 -32.8 -14.2 -29.5 -14.2 -27.45 -14.2 -27.0 -13.35 -25.65 -10.6 -25.9 -8.1" fill="none" stroke="#ffffff" stroke-linecap="round" stroke-linejoin="miter-clip" stroke-miterlimit="10.0" stroke-opacity="0.14901961" stroke-width="1.5"/>
    <path d="M-11.1 -8.35 Q-9.55 -12.6 -7.7 -14.25 -6.05 -13.9 -4.1 -12.8 -1.95 -11.6 -1.1 -10.35 -0.8 -9.8 -0.8 -9.3 -1.5 -6.85 -3.3 -5.05" fill="none" stroke="#ffffff" stroke-linecap="round" stroke-linejoin="miter-clip" stroke-miterlimit="10.0" stroke-opacity="0.14901961" stroke-width="1.5"/>
    <path d="M-36.1 4.75 L-33.25 5.75 Q-28.35 4.45 -23.0 3.4 -12.25 1.3 -10.0 2.9 L-8.05 3.0 Q-7.4 2.15 -8.2 0.55 -10.55 -4.0 -19.45 -5.0 L-29.2 -3.7 Q-38.85 -1.9 -38.85 0.6 -38.85 3.25 -36.1 4.75" fill="#ffffff" fill-opacity="0.09803922" fill-rule="evenodd" stroke="none"/>
    <path d="M-30.75 10.35 Q-27.2 11.65 -25.75 14.75 L-25.05 17.5 -10.8 14.95 Q-9.4 13.8 -8.85 12.3 -7.8 9.2 -12.3 7.3 -16.75 5.35 -24.2 7.7 -27.9 8.85 -30.75 10.35" fill="#000000" fill-opacity="0.14901961" fill-rule="evenodd" stroke="none"/>
  </g>
</svg>
