<?xml version="1.0" encoding="UTF-8" standalone="no"?>
<svg xmlns:ffdec="https://www.free-decompiler.com/flash" xmlns:xlink="http://www.w3.org/1999/xlink" ffdec:objectType="shape" height="41.15px" width="83.5px" xmlns="http://www.w3.org/2000/svg">
  <g transform="matrix(1.0, 0.0, 0.0, 1.0, 45.05, 24.6)">
    <path d="M19.5 -16.85 Q28.5 -18.6 31.15 -10.8 33.75 -3.0 29.45 2.9 25.1 8.8 15.45 12.5 5.8 16.15 -16.15 15.4 -38.1 14.65 -43.6 -0.15 -19.1 0.9 -4.3 -7.15 10.45 -15.2 19.5 -16.85" fill="#ffffff" fill-rule="evenodd" stroke="none"/>
    <path d="M19.5 -16.85 Q10.45 -15.2 -4.3 -7.15 -19.1 0.9 -43.6 -0.15 -38.1 14.65 -16.15 15.4 5.8 16.15 15.45 12.5 25.1 8.8 29.45 2.9 33.75 -3.0 31.15 -10.8 28.5 -18.6 19.5 -16.85 Z" fill="none" stroke="#000000" stroke-linecap="butt" stroke-linejoin="miter-clip" stroke-miterlimit="4.0" stroke-opacity="0.49803922" stroke-width="2.0"/>
    <path d="M-4.2 13.4 L-6.35 -4.45" fill="none" stroke="#000000" stroke-linecap="round" stroke-linejoin="round" stroke-opacity="0.49803922" stroke-width="2.0"/>
    <path d="M15.75 11.05 L12.75 -13.85" fill="none" stroke="#000000" stroke-linecap="round" stroke-linejoin="round" stroke-opacity="0.49803922" stroke-width="2.0"/>
    <path d="M-23.85 13.05 L-25.35 0.3" fill="none" stroke="#000000" stroke-linecap="round" stroke-linejoin="round" stroke-opacity="0.49803922" stroke-width="2.0"/>
    <path d="M-42.0 3.4 Q-4.5 7.9 31.45 -6.8" fill="none" stroke="#000000" stroke-linecap="round" stroke-linejoin="round" stroke-opacity="0.49803922" stroke-width="2.0"/>
    <path d="M30.8 -23.6 Q32.2 -23.0 33.7 -21.7 36.8 -19.2 37.45 -15.8" fill="none" stroke="#000000" stroke-linecap="round" stroke-linejoin="round" stroke-opacity="0.29803923" stroke-width="2.0"/>
  </g>
</svg>
