<?xml version="1.0" encoding="UTF-8" standalone="no"?>
<svg xmlns:ffdec="https://www.free-decompiler.com/flash" xmlns:xlink="http://www.w3.org/1999/xlink" ffdec:objectType="shape" height="27.65px" width="66.1px" xmlns="http://www.w3.org/2000/svg">
  <g transform="matrix(1.0, 0.0, 0.0, 1.0, 36.65, 16.6)">
    <path d="M21.8 -15.6 L24.7 -13.7 Q27.8 -11.2 28.45 -7.8" fill="none" stroke="#000000" stroke-linecap="round" stroke-linejoin="round" stroke-opacity="0.29803923" stroke-width="2.0"/>
    <path d="M5.15 0.7 Q4.85 3.25 0.7 6.9 -3.45 10.4 -11.15 10.55 -18.9 10.8 -21.25 7.1 -23.65 3.25 -23.5 0.65 L-17.05 1.15 5.15 0.7" fill="#b4657b" fill-rule="evenodd" stroke="none"/>
    <path d="M5.15 0.7 L-17.05 1.15 -23.5 0.65 Q-23.65 3.25 -21.25 7.1 -18.9 10.8 -11.15 10.55 -3.45 10.4 0.7 6.9 4.85 3.25 5.15 0.7 Z" fill="none" stroke="#000000" stroke-linecap="round" stroke-linejoin="round" stroke-opacity="0.29803923" stroke-width="1.0"/>
    <path d="M-17.4 -7.05 L-14.5 -5.95 Q-12.1 -8.0 -9.0 -9.05 -2.75 -11.25 1.2 -8.45 4.85 -5.9 5.55 -2.8 L6.1 -0.3 Q6.3 0.6 6.6 0.9 L-2.3 0.6 -26.3 1.5 Q-26.7 -4.05 -23.8 -5.9 -20.95 -7.8 -17.4 -7.05" fill="#b4657b" fill-rule="evenodd" stroke="none"/>
    <path d="M-17.4 -7.05 L-14.5 -5.95 Q-12.1 -8.0 -9.0 -9.05 -2.75 -11.25 1.2 -8.45 4.85 -5.9 5.55 -2.8 L6.1 -0.3 Q6.3 0.6 6.6 0.9 L-2.3 0.6 -26.3 1.5 Q-26.7 -4.05 -23.8 -5.9 -20.95 -7.8 -17.4 -7.05 Z" fill="none" stroke="#000000" stroke-linecap="round" stroke-linejoin="round" stroke-opacity="0.29803923" stroke-width="1.0"/>
    <path d="M-35.65 3.95 Q-31.9 2.35 -27.2 1.65 -22.55 0.95 -6.95 1.45 8.6 1.95 15.05 -1.0 21.45 -4.0 25.2 -11.15" fill="none" stroke="#000000" stroke-linecap="round" stroke-linejoin="miter-clip" stroke-miterlimit="4.0" stroke-opacity="0.29803923" stroke-width="2.0"/>
    <path d="M-4.95 7.55 Q-6.3 8.4 -8.35 8.6 L-12.0 8.1 Q-13.55 7.6 -13.75 6.5 -13.9 5.45 -12.6 4.55 -11.25 3.75 -9.2 3.6 L-5.55 4.0 Q-3.95 4.65 -3.8 5.7 -3.6 6.8 -4.95 7.55" fill="#ffffff" fill-opacity="0.4" fill-rule="evenodd" stroke="none"/>
  </g>
</svg>
