<?xml version="1.0" encoding="UTF-8" standalone="no"?>
<svg xmlns:ffdec="https://www.free-decompiler.com/flash" xmlns:xlink="http://www.w3.org/1999/xlink" ffdec:objectType="shape" height="23.05px" width="73.15px" xmlns="http://www.w3.org/2000/svg">
  <g transform="matrix(1.0, 0.0, 0.0, 1.0, 51.1, 13.0)">
    <path d="M7.7 -6.2 Q5.5 -2.9 3.25 -2.5 L4.95 -2.45 Q4.7 1.35 -0.6 5.3 -5.95 9.25 -16.25 9.05 -26.55 8.85 -30.7 6.25 -34.85 3.65 -31.2 -0.6 L-37.65 -1.6 Q-34.95 -5.5 -30.7 -6.05 -26.45 -6.6 -23.25 -6.0 -20.05 -5.45 -18.35 -3.7 -17.75 -5.2 -13.85 -6.05 L-6.2 -6.7 Q-2.5 -6.45 0.1 -5.7 2.7 -4.85 7.7 -6.2" fill="#ff3399" fill-opacity="0.44705883" fill-rule="evenodd" stroke="none"/>
    <path d="M7.7 -6.2 Q2.7 -4.85 0.1 -5.7 -2.5 -6.45 -6.2 -6.7 L-13.85 -6.05 Q-17.75 -5.2 -18.35 -3.7 -20.05 -5.45 -23.25 -6.0 -26.45 -6.6 -30.7 -6.05 -34.95 -5.5 -37.65 -1.6 M-31.2 -0.6 Q-34.85 3.65 -30.7 6.25 -26.55 8.85 -16.25 9.05 -5.95 9.25 -0.6 5.3 4.7 1.35 4.95 -2.45" fill="none" stroke="#000000" stroke-linecap="round" stroke-linejoin="round" stroke-opacity="0.29803923" stroke-width="2.0"/>
    <path d="M-13.85 5.85 Q-15.3 6.65 -17.4 6.55 -19.5 6.4 -21.05 5.5 -22.6 4.65 -22.65 3.5 -22.65 2.35 -21.2 1.6 -19.75 0.9 -17.65 1.05 -15.55 1.15 -14.0 1.95 -12.5 2.9 -12.5 4.05 -12.45 5.2 -13.85 5.85" fill="#ffffff" fill-opacity="0.4" fill-rule="evenodd" stroke="none"/>
    <path d="M-42.55 -5.45 Q-41.6 -2.65 -32.8 -0.65 -24.1 1.3 -15.1 0.45 -5.9 -0.5 1.2 -3.55 9.0 -6.85 11.95 -12.0 L21.05 -8.45 M-50.1 -1.85 L-43.0 -5.25" fill="none" stroke="#000000" stroke-linecap="round" stroke-linejoin="round" stroke-opacity="0.29803923" stroke-width="2.0"/>
  </g>
</svg>
