<?xml version="1.0" encoding="UTF-8" standalone="no"?>
<svg xmlns:ffdec="https://www.free-decompiler.com/flash" xmlns:xlink="http://www.w3.org/1999/xlink" ffdec:objectType="shape" height="36.1px" width="64.1px" xmlns="http://www.w3.org/2000/svg">
  <g transform="matrix(1.0, 0.0, 0.0, 1.0, 44.25, 17.5)">
    <path d="M7.9 -12.25 L1.0 -10.75 Q-8.25 -9.3 -20.2 -11.35 -27.9 -12.6 -31.45 -11.45 -33.2 -10.95 -33.35 -10.1 L-31.45 -6.15 Q-31.6 -1.45 -29.65 3.3 -25.6 12.75 -15.2 13.35 -4.8 13.95 2.3 4.35 L7.45 -5.55 7.9 -12.25" fill="#f6b1be" fill-rule="evenodd" stroke="none"/>
    <path d="M6.9 -6.05 Q9.75 -10.35 12.9 -14.65 L10.5 -14.8 4.75 -10.95 Q-2.75 -7.3 -12.65 -7.05 -28.5 -6.9 -37.15 -11.35 -32.9 -8.05 -29.6 -2.85 -26.75 1.95 -23.75 4.1 -19.8 6.9 -13.55 7.1 -7.85 7.4 -0.85 1.95 3.35 -1.6 6.9 -6.05" fill="#000000" fill-opacity="0.29803923" fill-rule="evenodd" stroke="none"/>
    <path d="M2.9 -1.5 L-5.8 -3.15 Q-15.25 -2.9 -17.65 6.15 L-13.5 6.75 Q-8.4 6.75 -4.4 4.2 -0.4 1.7 1.6 -0.05 L2.9 -1.5" fill="#e99899" fill-rule="evenodd" stroke="none"/>
    <path d="M1.45 -3.25 L-3.55 0.4 Q-8.8 3.6 -13.65 3.35 -19.05 3.1 -22.5 1.05 L-25.5 -0.85 Q-26.5 -1.0 -27.45 0.7 -26.65 2.2 -24.5 3.6 -20.25 6.65 -13.65 6.6 -7.2 6.5 -0.95 2.2 L4.05 -2.2 3.05 -3.1 Q2.2 -3.85 1.45 -3.25" fill="#ffffff" fill-rule="evenodd" stroke="none"/>
    <path d="M5.3 -10.95 Q-2.25 -7.3 -12.25 -7.05 -24.35 -6.9 -34.05 -10.2 L-30.9 -8.95 Q-29.9 -7.25 -27.5 -5.4 -22.75 -1.7 -16.05 -1.35 -9.55 -0.85 -4.65 -2.85 L-0.95 -4.9 Q4.6 -5.8 7.9 -12.25 8.0 -12.65 11.55 -14.8 L11.0 -14.8 5.3 -10.95" fill="#ffffff" fill-rule="evenodd" stroke="none"/>
    <path d="M-27.9 -7.7 Q-15.7 -5.15 -6.7 -6.3 3.35 -7.95 10.95 -13.4 L13.05 -14.8 11.35 -16.3 Q0.1 -7.3 -16.7 -7.55 -33.55 -7.95 -44.25 -17.45 -42.7 -10.7 -27.9 -7.7" fill="#000000" fill-opacity="0.29803923" fill-rule="evenodd" stroke="none"/>
    <path d="M13.6 -14.0 L12.05 -15.7 Q-0.2 5.4 -13.4 6.0 -22.9 6.35 -28.2 -1.85 -31.6 -7.4 -35.0 -10.45 -37.0 -12.5 -37.85 -12.75 L-39.85 -12.5 Q-37.85 -11.45 -34.45 -7.4 -31.3 -3.65 -30.3 -1.75 -25.5 8.15 -14.0 7.8 0.8 7.3 13.6 -14.0" fill="#000000" fill-opacity="0.29803923" fill-rule="evenodd" stroke="none"/>
    <path d="M19.85 -12.75 L17.3 -14.5 Q13.9 -16.55 10.6 -17.2 6.8 -18.1 6.65 -16.2 6.45 -14.25 10.3 -14.15 L17.0 -13.25 19.85 -12.75" fill="#000000" fill-opacity="0.29803923" fill-rule="evenodd" stroke="none"/>
    <path d="M-24.0 13.55 Q-21.45 18.4 -14.35 18.6 -6.8 18.95 -1.0 13.55 -15.2 21.15 -24.0 13.55" fill="#c96e6b" fill-rule="evenodd" stroke="none"/>
  </g>
</svg>
