<?xml version="1.0" encoding="UTF-8" standalone="no"?>
<svg xmlns:ffdec="https://www.free-decompiler.com/flash" xmlns:xlink="http://www.w3.org/1999/xlink" ffdec:objectType="shape" height="20.3px" width="60.95px" xmlns="http://www.w3.org/2000/svg">
  <g transform="matrix(1.0, 0.0, 0.0, 1.0, 44.95, 5.55)">
    <path d="M-34.25 1.85 Q-31.9 -3.6 -28.45 -4.25 L-22.5 -4.0 Q-20.0 -3.15 -18.7 -0.5 -18.2 -2.65 -15.0 -3.75 -11.85 -4.9 -8.85 -4.4 -5.9 -3.95 -3.85 -2.75 L2.05 0.9 -1.55 1.85 -0.2 2.0 Q-0.6 7.45 -4.35 10.1 -8.1 12.7 -15.05 13.55 -22.05 14.35 -26.8 11.75 -31.55 9.1 -29.15 2.65 L-34.25 1.85" fill="#e60000" fill-rule="evenodd" stroke="none"/>
    <path d="M2.05 0.9 L-3.85 -2.75 Q-5.9 -3.95 -8.85 -4.4 -11.85 -4.9 -15.0 -3.75 -18.2 -2.65 -18.7 -0.5 -20.0 -3.15 -22.5 -4.0 L-28.45 -4.25 Q-31.9 -3.6 -34.25 1.85 M-29.15 2.65 Q-31.55 9.1 -26.8 11.75 -22.05 14.35 -15.05 13.55 -8.1 12.7 -4.35 10.1 -0.6 7.45 -0.2 2.0" fill="none" stroke="#000000" stroke-linecap="round" stroke-linejoin="round" stroke-opacity="0.29803923" stroke-width="2.0"/>
    <path d="M-17.5 9.35 Q-17.5 10.35 -18.9 10.9 -20.3 11.5 -22.25 11.35 -24.2 11.15 -25.6 10.3 -27.0 9.5 -27.0 8.5 -27.0 7.45 -25.6 6.85 -24.2 6.3 -22.25 6.5 -20.3 6.65 -18.9 7.45 -17.5 8.3 -17.5 9.35" fill="#ffffff" fill-opacity="0.4" fill-rule="evenodd" stroke="none"/>
    <path d="M-43.95 0.65 Q-1.1 8.15 10.9 -4.0 L15.0 1.15" fill="none" stroke="#000000" stroke-linecap="round" stroke-linejoin="round" stroke-opacity="0.29803923" stroke-width="2.0"/>
  </g>
</svg>
