<?xml version="1.0" encoding="UTF-8" standalone="no"?>
<svg xmlns:ffdec="https://www.free-decompiler.com/flash" xmlns:xlink="http://www.w3.org/1999/xlink" ffdec:objectType="shape" height="28.0px" width="61.5px" xmlns="http://www.w3.org/2000/svg">
  <g transform="matrix(1.0, 0.0, 0.0, 1.0, 43.1, 16.7)">
    <path d="M-37.75 -2.15 Q-13.7 9.25 10.0 -5.2" fill="none" stroke="#000000" stroke-linecap="butt" stroke-linejoin="miter-clip" stroke-miterlimit="4.0" stroke-opacity="0.4" stroke-width="2.0"/>
    <path d="M9.8 -15.7 Q5.7 -3.05 17.4 5.8" fill="none" stroke="#000000" stroke-linecap="butt" stroke-linejoin="miter-clip" stroke-miterlimit="4.0" stroke-opacity="0.2" stroke-width="2.0"/>
    <path d="M-42.1 5.55 Q-37.95 -2.05 -42.05 -10.65" fill="none" stroke="#000000" stroke-linecap="butt" stroke-linejoin="miter-clip" stroke-miterlimit="4.0" stroke-opacity="0.2" stroke-width="2.0"/>
    <path d="M-2.6 0.95 Q-2.9 3.5 -7.05 7.15 -11.2 10.65 -18.9 10.8 -26.65 11.05 -29.0 7.35 -31.4 3.5 -31.25 0.9 L-24.8 1.4 -2.6 0.95" fill="#b46565" fill-rule="evenodd" stroke="none"/>
    <path d="M-2.6 0.95 L-24.8 1.4 -31.25 0.9 Q-31.4 3.5 -29.0 7.35 -26.65 11.05 -18.9 10.8 -11.2 10.65 -7.05 7.15 -2.9 3.5 -2.6 0.95 Z" fill="none" stroke="#000000" stroke-linecap="round" stroke-linejoin="round" stroke-opacity="0.29803923" stroke-width="1.0"/>
    <path d="M-25.15 -8.6 L-22.25 -7.5 Q-19.85 -9.55 -16.75 -10.6 -10.5 -12.8 -6.55 -10.0 -2.9 -7.45 -2.2 -4.35 L-1.65 -1.85 -1.15 -0.65 Q-3.95 0.9 -13.05 2.35 -22.2 3.7 -34.05 -0.05 -34.45 -5.6 -31.55 -7.45 -28.7 -9.35 -25.15 -8.6" fill="#b46565" fill-rule="evenodd" stroke="none"/>
    <path d="M-25.15 -8.6 L-22.25 -7.5 Q-19.85 -9.55 -16.75 -10.6 -10.5 -12.8 -6.55 -10.0 -2.9 -7.45 -2.2 -4.35 L-1.65 -1.85 -1.15 -0.65 Q-3.95 0.9 -13.05 2.35 -22.2 3.7 -34.05 -0.05 -34.45 -5.6 -31.55 -7.45 -28.7 -9.35 -25.15 -8.6 Z" fill="none" stroke="#000000" stroke-linecap="round" stroke-linejoin="round" stroke-opacity="0.29803923" stroke-width="1.0"/>
    <path d="M-12.7 7.8 Q-14.05 8.65 -16.1 8.85 -18.15 9.0 -19.75 8.35 -21.3 7.85 -21.5 6.75 -21.65 5.7 -20.35 4.8 -19.0 4.0 -16.95 3.85 L-13.3 4.25 Q-11.7 4.9 -11.55 5.95 -11.35 7.05 -12.7 7.8" fill="#ffffff" fill-opacity="0.4" fill-rule="evenodd" stroke="none"/>
  </g>
</svg>
