<?xml version="1.0" encoding="UTF-8" standalone="no"?>
<svg xmlns:ffdec="https://www.free-decompiler.com/flash" xmlns:xlink="http://www.w3.org/1999/xlink" ffdec:objectType="shape" height="14.5px" width="14.5px" xmlns="http://www.w3.org/2000/svg">
  <g transform="matrix(1.0, 0.0, 0.0, 1.0, 7.25, 7.25)">
    <path d="M4.45 -4.45 Q6.25 -2.6 6.25 0.0 6.25 2.65 4.45 4.45 2.65 6.25 0.0 6.25 -2.6 6.25 -4.45 4.45 -6.25 2.65 -6.25 0.0 -6.25 -2.6 -4.45 -4.45 -2.6 -6.25 0.0 -6.25 2.65 -6.25 4.45 -4.45" fill="#000000" fill-opacity="0.49803922" fill-rule="evenodd" stroke="none"/>
    <path d="M4.45 -4.45 Q6.25 -2.6 6.25 0.0 6.25 2.65 4.45 4.45 2.65 6.25 0.0 6.25 -2.6 6.25 -4.45 4.45 -6.25 2.65 -6.25 0.0 -6.25 -2.6 -4.45 -4.45 -2.6 -6.25 0.0 -6.25 2.65 -6.25 4.45 -4.45 Z" fill="none" stroke="#000000" stroke-linecap="round" stroke-linejoin="round" stroke-opacity="0.49803922" stroke-width="2.0"/>
  </g>
</svg>
