<?xml version="1.0" encoding="UTF-8" standalone="no"?>
<svg xmlns:ffdec="https://www.free-decompiler.com/flash" xmlns:xlink="http://www.w3.org/1999/xlink" ffdec:objectType="shape" height="32.05px" width="83.5px" xmlns="http://www.w3.org/2000/svg">
  <g transform="matrix(1.0, 0.0, 0.0, 1.0, 51.45, 19.7)">
    <path d="M-50.45 -8.3 Q-18.95 -0.1 24.55 -11.6 21.5 -6.1 15.25 -0.45 2.65 10.8 -13.6 11.3 -29.9 11.85 -41.75 1.95 -45.55 -1.15 -48.3 -4.95 -50.45 -7.8 -50.45 -8.3" fill="#ffffff" fill-rule="evenodd" stroke="none"/>
    <path d="M-50.45 -8.3 Q-18.95 -0.1 24.55 -11.6 21.5 -6.1 15.25 -0.45 2.65 10.8 -13.6 11.3 -29.9 11.85 -41.75 1.95 -45.55 -1.15 -48.3 -4.95 -50.45 -7.8 -50.45 -8.3 Z" fill="none" stroke="#000000" stroke-linecap="round" stroke-linejoin="round" stroke-opacity="0.29803923" stroke-width="2.0"/>
    <path d="M22.65 -18.7 Q22.15 -9.15 31.05 -10.7" fill="none" stroke="#000000" stroke-linecap="round" stroke-linejoin="round" stroke-opacity="0.29803923" stroke-width="2.0"/>
    <path d="M-16.7 -4.75 L-14.6 11.1" fill="none" stroke="#000000" stroke-linecap="butt" stroke-linejoin="miter-clip" stroke-miterlimit="4.0" stroke-opacity="0.4" stroke-width="2.0"/>
    <path d="M-31.7 -5.15 L-30.05 8.8" fill="none" stroke="#000000" stroke-linecap="butt" stroke-linejoin="miter-clip" stroke-miterlimit="4.0" stroke-opacity="0.4" stroke-width="2.0"/>
    <path d="M0.55 -6.6 L2.45 7.55" fill="none" stroke="#000000" stroke-linecap="butt" stroke-linejoin="miter-clip" stroke-miterlimit="4.0" stroke-opacity="0.4" stroke-width="2.0"/>
    <path d="M12.55 -8.5 L13.5 0.05" fill="none" stroke="#000000" stroke-linecap="butt" stroke-linejoin="miter-clip" stroke-miterlimit="4.0" stroke-opacity="0.4" stroke-width="2.0"/>
    <path d="M-41.7 -6.2 L-41.5 0.9" fill="none" stroke="#000000" stroke-linecap="butt" stroke-linejoin="miter-clip" stroke-miterlimit="4.0" stroke-opacity="0.4" stroke-width="2.0"/>
  </g>
</svg>
