<?xml version="1.0" encoding="UTF-8" standalone="no"?>
<svg xmlns:ffdec="https://www.free-decompiler.com/flash" xmlns:xlink="http://www.w3.org/1999/xlink" ffdec:objectType="shape" height="26.45px" width="71.3px" xmlns="http://www.w3.org/2000/svg">
  <g transform="matrix(1.0, 0.0, 0.0, 1.0, 51.05, 10.95)">
    <path d="M-33.6 10.2 Q-34.35 8.85 -39.2 3.0 -32.0 7.3 -23.15 8.2 -14.3 9.15 6.85 3.3 -0.35 10.75 -2.15 12.1 -5.8 14.9 -15.75 15.0 -25.75 15.1 -29.3 13.3 -32.9 11.5 -33.6 10.2" fill="#bf2f4f" fill-rule="evenodd" stroke="none"/>
    <path d="M-33.6 10.2 Q-34.35 8.85 -39.2 3.0 -32.0 7.3 -23.15 8.2 -14.3 9.15 6.85 3.3 -0.35 10.75 -2.15 12.1 -5.8 14.9 -15.75 15.0 -25.75 15.1 -29.3 13.3 -32.9 11.5 -33.6 10.2 Z" fill="none" stroke="#000000" stroke-linecap="round" stroke-linejoin="round" stroke-opacity="0.29803923" stroke-width="1.0"/>
    <path d="M-17.25 -3.6 L-28.65 -4.05 -50.55 -7.35 Q-27.3 -13.6 -17.35 -7.3 -6.55 -12.9 19.65 -7.85 L-6.95 -4.45 -17.25 -3.6" fill="#bf2f4f" fill-rule="evenodd" stroke="none"/>
    <path d="M-17.25 -3.6 L-28.65 -4.05 -50.55 -7.35 Q-27.3 -13.6 -17.35 -7.3 -6.55 -12.9 19.65 -7.85 L-6.95 -4.45 -17.25 -3.6 Z" fill="none" stroke="#000000" stroke-linecap="round" stroke-linejoin="round" stroke-opacity="0.29803923" stroke-width="1.0"/>
    <path d="M-50.05 -6.75 Q-21.45 -0.2 19.25 -7.2 16.15 -3.35 10.1 0.4 -2.0 7.9 -17.05 7.85 -32.1 7.8 -42.55 0.6 -45.9 -1.7 -48.3 -4.4 -50.1 -6.4 -50.05 -6.75" fill="#ffffff" fill-rule="evenodd" stroke="none"/>
    <path d="M-50.05 -6.75 Q-21.45 -0.2 19.25 -7.2 16.15 -3.35 10.1 0.4 -2.0 7.9 -17.05 7.85 -32.1 7.8 -42.55 0.6 -45.9 -1.7 -48.3 -4.4 -50.1 -6.4 -50.05 -6.75 Z" fill="none" stroke="#000000" stroke-linecap="round" stroke-linejoin="round" stroke-opacity="0.29803923" stroke-width="2.0"/>
    <path d="M-18.25 -3.5 L-17.1 7.75" fill="none" stroke="#000000" stroke-linecap="butt" stroke-linejoin="miter-clip" stroke-miterlimit="4.0" stroke-opacity="0.4" stroke-width="2.0"/>
    <path d="M-30.55 -3.75 L-30.95 5.9" fill="none" stroke="#000000" stroke-linecap="butt" stroke-linejoin="miter-clip" stroke-miterlimit="4.0" stroke-opacity="0.4" stroke-width="2.0"/>
    <path d="M-39.85 -4.8 L-40.45 1.85" fill="none" stroke="#000000" stroke-linecap="butt" stroke-linejoin="miter-clip" stroke-miterlimit="4.0" stroke-opacity="0.4" stroke-width="2.0"/>
    <path d="M-5.5 -3.75 L-3.7 6.05" fill="none" stroke="#000000" stroke-linecap="butt" stroke-linejoin="miter-clip" stroke-miterlimit="4.0" stroke-opacity="0.4" stroke-width="2.0"/>
    <path d="M5.8 -5.2 L7.4 1.5" fill="none" stroke="#000000" stroke-linecap="butt" stroke-linejoin="miter-clip" stroke-miterlimit="4.0" stroke-opacity="0.4" stroke-width="2.0"/>
  </g>
</svg>
