<?xml version="1.0" encoding="UTF-8" standalone="no"?>
<svg xmlns:ffdec="https://www.free-decompiler.com/flash" xmlns:xlink="http://www.w3.org/1999/xlink" ffdec:objectType="shape" height="12.25px" width="53.8px" xmlns="http://www.w3.org/2000/svg">
  <g transform="matrix(1.0, 0.0, 0.0, 1.0, 46.9, 14.3)">
    <path d="M-46.4 -12.85 Q-41.45 -9.85 -33.0 -10.6 -28.75 -11.0 -25.55 -11.95 -24.0 -9.2 -20.65 -10.5 -19.0 -11.1 -17.6 -12.25 -14.75 -9.6 -3.9 -11.45 1.55 -12.3 6.4 -13.8 -15.55 -4.05 -33.2 -7.45 -42.05 -9.2 -46.4 -12.85" fill="#604f64" fill-rule="evenodd" stroke="none"/>
    <path d="M-46.4 -12.85 Q-42.05 -9.2 -33.2 -7.45 -15.55 -4.05 6.4 -13.8 1.55 -12.3 -3.9 -11.45 -14.75 -9.6 -17.6 -12.25 -19.0 -11.1 -20.65 -10.5 -24.0 -9.2 -25.55 -11.95 -28.75 -11.0 -33.0 -10.6 -41.45 -9.85 -46.4 -12.85 Z" fill="none" stroke="#000000" stroke-linecap="butt" stroke-linejoin="round" stroke-opacity="0.29803923" stroke-width="1.0"/>
    <path d="M-31.75 -7.75 Q-13.15 -4.55 6.4 -13.8 2.45 -10.8 -3.15 -7.9 -14.4 -2.15 -22.65 -2.6 -31.9 -3.15 -37.4 -5.7 -42.0 -7.85 -46.4 -12.85 -41.0 -9.4 -31.75 -7.75" fill="#604f64" fill-rule="evenodd" stroke="none"/>
    <path d="M-31.75 -7.75 Q-13.15 -4.55 6.4 -13.8 2.45 -10.8 -3.15 -7.9 -14.4 -2.15 -22.65 -2.6 -31.9 -3.15 -37.4 -5.7 -42.0 -7.85 -46.4 -12.85 -41.0 -9.4 -31.75 -7.75 Z" fill="none" stroke="#000000" stroke-linecap="butt" stroke-linejoin="round" stroke-opacity="0.29803923" stroke-width="1.0"/>
  </g>
</svg>
