<?xml version="1.0" encoding="UTF-8" standalone="no"?>
<svg xmlns:ffdec="https://www.free-decompiler.com/flash" xmlns:xlink="http://www.w3.org/1999/xlink" ffdec:objectType="shape" height="26.5px" width="126.8px" xmlns="http://www.w3.org/2000/svg">
  <g transform="matrix(1.0, 0.0, 0.0, 1.0, 76.65, 18.3)">
    <path d="M-35.0 6.35 Q-22.4 10.35 -2.0 2.35 4.1 -1.0 11.95 -4.25 27.75 -10.9 36.35 -10.65 36.35 -12.65 34.75 -14.5 31.6 -18.3 23.45 -17.75 L12.15 -14.5 Q-0.75 -10.25 -8.5 -6.0 L-18.8 -3.2 Q-30.6 -1.15 -38.2 -4.8 L-46.8 -8.3 Q-56.15 -11.65 -60.25 -11.35 -57.65 -5.3 -54.75 -3.35 -47.55 2.3 -35.0 6.35" fill="#990000" fill-opacity="0.49803922" fill-rule="evenodd" stroke="none"/>
    <path d="M-35.0 6.35 Q-22.4 10.35 -2.0 2.35 4.1 -1.0 11.95 -4.25 27.75 -10.9 36.35 -10.65 36.35 -12.65 34.75 -14.5 31.6 -18.3 23.45 -17.75 L12.15 -14.5 Q-0.75 -10.25 -8.5 -6.0 L-18.8 -3.2 Q-30.6 -1.15 -38.2 -4.8 L-46.8 -8.3 Q-56.15 -11.65 -60.25 -11.35 -57.65 -5.3 -54.75 -3.35 -47.55 2.3 -35.0 6.35 Z" fill="none" stroke="#000000" stroke-linecap="butt" stroke-linejoin="round" stroke-opacity="0.29803923" stroke-width="1.0"/>
    <path d="M-61.1 -10.5 Q-51.0 -4.0 -36.3 0.7 -21.65 5.3 -7.7 -1.15 6.2 -7.65 13.7 -10.2 28.55 -15.4 35.3 -13.55" fill="none" stroke="#000000" stroke-linecap="round" stroke-linejoin="miter-clip" stroke-miterlimit="10.0" stroke-opacity="0.29803923" stroke-width="2.0"/>
    <path d="M49.4 2.8 Q48.2 -1.15 46.45 -3.5 42.85 -8.15 35.4 -11.2" fill="none" stroke="#000000" stroke-linecap="butt" stroke-linejoin="round" stroke-opacity="0.29803923" stroke-width="1.0"/>
    <path d="M45.9 -9.2 Q45.75 -7.05 43.9 -5.2 42.0 -3.4 39.9 -2.95" fill="none" stroke="#000000" stroke-linecap="butt" stroke-linejoin="round" stroke-opacity="0.29803923" stroke-width="1.0"/>
    <path d="M49.65 -5.45 Q48.75 -3.65 46.65 -1.7 L43.65 0.8" fill="none" stroke="#000000" stroke-linecap="butt" stroke-linejoin="round" stroke-opacity="0.29803923" stroke-width="1.0"/>
    <path d="M-75.9 3.55 Q-74.7 -0.4 -72.95 -2.75 -69.35 -7.4 -61.9 -10.45" fill="none" stroke="#000000" stroke-linecap="butt" stroke-linejoin="round" stroke-opacity="0.29803923" stroke-width="1.0"/>
    <path d="M-72.4 -8.45 Q-72.25 -6.3 -70.4 -4.45 -68.5 -2.65 -66.4 -2.2" fill="none" stroke="#000000" stroke-linecap="butt" stroke-linejoin="round" stroke-opacity="0.29803923" stroke-width="1.0"/>
    <path d="M-76.15 -4.7 Q-75.25 -2.9 -73.15 -0.95 L-70.15 1.55" fill="none" stroke="#000000" stroke-linecap="butt" stroke-linejoin="round" stroke-opacity="0.29803923" stroke-width="1.0"/>
  </g>
</svg>
