<?xml version="1.0" encoding="UTF-8" standalone="no"?>
<svg xmlns:ffdec="https://www.free-decompiler.com/flash" xmlns:xlink="http://www.w3.org/1999/xlink" ffdec:objectType="shape" height="37.45px" width="77.35px" xmlns="http://www.w3.org/2000/svg">
  <g transform="matrix(1.0, 0.0, 0.0, 1.0, 46.05, 18.85)">
    <path d="M-0.65 -11.55 L-2.35 -10.8 Q-16.75 -5.55 -31.35 -6.0 L-35.95 -6.25 -35.9 -5.85 -36.55 -5.9 Q-34.9 -11.65 -31.55 -12.7 -28.3 -13.8 -25.65 -13.2 -23.0 -12.75 -21.45 -10.25 -21.2 -12.45 -18.15 -14.0 -15.2 -15.5 -12.15 -15.4 -9.2 -15.3 -6.95 -14.4 L-0.65 -11.55" fill="#f53c1b" fill-rule="evenodd" stroke="none"/>
    <path d="M-36.55 -5.9 Q-34.9 -11.65 -31.55 -12.7 -28.3 -13.8 -25.65 -13.2 -23.0 -12.75 -21.45 -10.25 -21.2 -12.45 -18.15 -14.0 -15.2 -15.5 -12.15 -15.4 -9.2 -15.3 -6.95 -14.4 L-0.65 -11.55" fill="none" stroke="#000000" stroke-linecap="round" stroke-linejoin="round" stroke-opacity="0.29803923" stroke-width="2.0"/>
    <path d="M9.05 7.75 L8.95 9.0 Q8.35 12.15 5.3 14.0 1.7 16.15 -5.2 17.2 -12.15 18.25 -17.0 16.65 -21.45 15.15 -20.05 10.85 L-19.85 10.2 Q-16.65 11.25 -6.05 10.25 4.5 9.3 6.75 8.5 L9.05 7.75" fill="#f53c1b" fill-rule="evenodd" stroke="none"/>
    <path d="M-19.85 10.2 L-20.05 10.85 Q-21.45 15.15 -17.0 16.65 -12.15 18.25 -5.2 17.2 1.7 16.15 5.3 14.0 8.35 12.15 8.95 9.0 L9.05 7.75" fill="none" stroke="#000000" stroke-linecap="round" stroke-linejoin="round" stroke-opacity="0.29803923" stroke-width="2.0"/>
    <path d="M4.35 -13.15 Q23.65 -21.65 28.1 -14.75 32.55 -7.9 27.95 -1.95 23.25 4.0 12.0 7.05 0.7 10.1 -9.25 10.85 -19.25 11.6 -26.5 7.6 -33.8 3.6 -34.8 -6.35 -15.05 -4.55 4.35 -13.15" fill="#ffffff" fill-rule="evenodd" stroke="none"/>
    <path d="M4.35 -13.15 Q-15.05 -4.55 -34.8 -6.35 -33.8 3.6 -26.5 7.6 -19.25 11.6 -9.25 10.85 0.7 10.1 12.0 7.05 23.25 4.0 27.95 -1.95 32.55 -7.9 28.1 -14.75 23.65 -21.65 4.35 -13.15 Z" fill="none" stroke="#000000" stroke-linecap="round" stroke-linejoin="round" stroke-opacity="0.49803922" stroke-width="2.0"/>
    <path d="M-45.05 -8.35 Q-40.65 -6.9 -35.8 -6.4" fill="none" stroke="#000000" stroke-linecap="round" stroke-linejoin="round" stroke-opacity="0.49803922" stroke-width="2.0"/>
    <path d="M13.3 -15.45 Q15.5 -10.4 16.35 -5.25 23.15 -8.05 29.15 -11.85 M0.4 8.15 Q0.5 3.8 -0.1 -0.45 -8.95 1.35 -18.75 1.6 L-17.4 9.55 M17.0 4.1 Q17.25 -0.6 16.35 -5.25 8.6 -2.15 -0.1 -0.45 -0.7 -4.85 -2.1 -9.25 M-31.2 1.4 Q-26.65 2.3 -18.75 1.6 L-20.0 -5.6" fill="none" stroke="#000000" stroke-linecap="round" stroke-linejoin="round" stroke-opacity="0.49803922" stroke-width="2.0"/>
  </g>
</svg>
