<?xml version="1.0" encoding="UTF-8" standalone="no"?>
<svg xmlns:ffdec="https://www.free-decompiler.com/flash" xmlns:xlink="http://www.w3.org/1999/xlink" ffdec:objectType="shape" height="29.35px" width="85.95px" xmlns="http://www.w3.org/2000/svg">
  <g transform="matrix(1.0, 0.0, 0.0, 1.0, 55.25, 13.8)">
    <path d="M29.65 -9.05 Q31.9 -4.15 24.8 2.4 17.65 8.95 10.25 6.0 0.6 2.25 -3.85 1.05 -10.85 -1.0 -16.5 -0.7 -17.7 -0.55 -31.3 4.65 -42.45 8.85 -47.4 6.3 -53.85 2.8 -54.65 -4.45 -55.5 -11.75 -50.45 -11.6 L-34.8 -10.1 Q-24.15 -8.8 -16.5 -9.6 L17.7 -13.2 Q27.4 -14.0 29.65 -9.05" fill="#000000" fill-opacity="0.49803922" fill-rule="evenodd" stroke="none"/>
    <path d="M29.65 -9.05 Q31.9 -4.15 24.8 2.4 17.65 8.95 10.25 6.0 0.6 2.25 -3.85 1.05 -10.85 -1.0 -16.5 -0.7 -17.7 -0.55 -31.3 4.65 -42.45 8.85 -47.4 6.3 -53.85 2.8 -54.65 -4.45 -55.5 -11.75 -50.45 -11.6 L-34.8 -10.1 Q-24.15 -8.8 -16.5 -9.6 L17.7 -13.2 Q27.4 -14.0 29.65 -9.05 Z" fill="none" stroke="#000000" stroke-linecap="round" stroke-linejoin="round" stroke-opacity="0.5019608" stroke-width="1.0"/>
    <path d="M-5.8 0.25 Q3.95 -7.1 15.1 -6.8 22.5 -6.4 29.25 -4.1 26.6 1.8 20.95 4.65 15.25 7.45 10.25 5.4 -1.85 0.85 -5.8 0.25" fill="#ffffff" fill-opacity="0.14901961" fill-rule="evenodd" stroke="none"/>
    <path d="M29.25 -4.1 Q22.5 -6.4 15.1 -6.8 3.95 -7.1 -5.8 0.25" fill="none" stroke="#000000" stroke-linecap="round" stroke-linejoin="round" stroke-opacity="0.36078432" stroke-width="1.0"/>
    <path d="M-23.2 15.55 Q-22.25 13.4 -20.5 11.4 -17.3 7.1 -13.95 7.1 -10.55 7.1 -6.8 10.05 -4.95 11.4 -3.7 12.85 -11.5 10.85 -14.6 11.8 -16.6 12.35 -20.1 13.95 L-23.2 15.55" fill="#000000" fill-opacity="0.29803923" fill-rule="evenodd" stroke="none"/>
    <path d="M24.05 -3.4 L26.9 -3.1 Q24.25 1.5 19.45 3.9 13.75 6.7 8.75 4.65 L7.25 4.1 8.0 3.0 Q10.75 -0.45 14.5 -2.1 18.25 -3.75 24.05 -3.4" fill="#000000" fill-opacity="0.14901961" fill-rule="evenodd" stroke="none"/>
  </g>
</svg>
