<?xml version="1.0" encoding="UTF-8" standalone="no"?>
<svg xmlns:ffdec="https://www.free-decompiler.com/flash" xmlns:xlink="http://www.w3.org/1999/xlink" ffdec:objectType="shape" height="23.05px" width="73.15px" xmlns="http://www.w3.org/2000/svg">
  <g transform="matrix(1.0, 0.0, 0.0, 1.0, 50.6, 12.75)">
    <path d="M8.2 -5.95 Q6.0 -2.65 3.75 -2.25 L5.45 -2.2 Q5.2 1.6 -0.1 5.55 -5.45 9.5 -15.75 9.3 -26.05 9.1 -30.2 6.5 -34.35 3.9 -30.7 -0.35 L-37.15 -1.35 Q-34.45 -5.25 -30.2 -5.8 -25.95 -6.35 -22.75 -5.75 -19.55 -5.2 -17.85 -3.45 -17.25 -4.95 -13.35 -5.8 L-5.7 -6.45 Q-2.0 -6.2 0.6 -5.45 3.2 -4.6 8.2 -5.95" fill="#ff3399" fill-opacity="0.44705883" fill-rule="evenodd" stroke="none"/>
    <path d="M8.2 -5.95 Q3.2 -4.6 0.6 -5.45 -2.0 -6.2 -5.7 -6.45 L-13.35 -5.8 Q-17.25 -4.95 -17.85 -3.45 -19.55 -5.2 -22.75 -5.75 -25.95 -6.35 -30.2 -5.8 -34.45 -5.25 -37.15 -1.35 M-30.7 -0.35 Q-34.35 3.9 -30.2 6.5 -26.05 9.1 -15.75 9.3 -5.45 9.5 -0.1 5.55 5.2 1.6 5.45 -2.2" fill="none" stroke="#000000" stroke-linecap="round" stroke-linejoin="round" stroke-opacity="0.29803923" stroke-width="2.0"/>
    <path d="M-13.35 6.1 Q-14.8 6.9 -16.9 6.8 -19.0 6.65 -20.55 5.75 -22.1 4.9 -22.15 3.75 -22.15 2.6 -20.7 1.85 -19.25 1.15 -17.15 1.3 -15.05 1.4 -13.5 2.2 -12.0 3.15 -12.0 4.3 -11.95 5.45 -13.35 6.1" fill="#ffffff" fill-opacity="0.4" fill-rule="evenodd" stroke="none"/>
    <path d="M-42.05 -5.2 Q-41.1 -2.4 -32.3 -0.4 -23.6 1.55 -14.6 0.7 -5.4 -0.25 1.7 -3.3 9.5 -6.6 12.45 -11.75 L21.55 -8.2 M-49.6 -1.6 L-42.5 -5.0" fill="none" stroke="#000000" stroke-linecap="round" stroke-linejoin="round" stroke-opacity="0.29803923" stroke-width="2.0"/>
  </g>
</svg>
