<?xml version="1.0" encoding="UTF-8" standalone="no"?>
<svg xmlns:ffdec="https://www.free-decompiler.com/flash" xmlns:xlink="http://www.w3.org/1999/xlink" ffdec:objectType="shape" height="32.05px" width="94.95px" xmlns="http://www.w3.org/2000/svg">
  <g transform="matrix(1.0, 0.0, 0.0, 1.0, 60.65, 15.95)">
    <path d="M-53.7 -11.9 Q-57.5 -10.6 -59.6 -6.95 -61.45 -3.2 -60.05 0.85 -58.55 4.65 -54.95 6.55 -35.3 16.0 -15.6 16.1 L-15.45 16.1 Q1.85 16.2 17.4 9.55 25.3 5.95 30.3 2.2 33.65 -0.35 34.25 -4.55 L34.25 -4.65 Q34.65 -8.95 32.0 -11.95 L32.15 -11.95 Q29.55 -15.35 25.25 -15.9 21.2 -16.3 17.85 -13.8 L17.95 -13.8 15.95 -12.45 15.8 -12.3 Q12.85 -10.45 9.4 -9.0 -2.2 -3.9 -15.3 -4.0 -30.8 -4.1 -46.15 -11.6 L-46.05 -11.6 Q-49.8 -13.55 -53.7 -11.9" fill="#f1534b" fill-rule="evenodd" stroke="none"/>
    <path d="M24.1 -5.65 Q16.4 0.5 3.15 4.0 -23.25 10.8 -50.4 -2.45" fill="none" stroke="#000000" stroke-linecap="round" stroke-linejoin="miter-clip" stroke-miterlimit="4.0" stroke-opacity="0.5019608" stroke-width="5.0"/>
  </g>
</svg>
