<?xml version="1.0" encoding="UTF-8" standalone="no"?>
<svg xmlns:ffdec="https://www.free-decompiler.com/flash" xmlns:xlink="http://www.w3.org/1999/xlink" ffdec:objectType="shape" height="32.95px" width="67.65px" xmlns="http://www.w3.org/2000/svg">
  <g transform="matrix(1.0, 0.0, 0.0, 1.0, 35.75, 19.45)">
    <path d="M-8.45 -1.05 Q17.55 -6.55 30.65 -17.2 33.25 11.3 8.8 12.45 -7.75 13.2 -31.85 2.3 -21.45 1.7 -8.45 -1.05" fill="#000000" fill-opacity="0.4" fill-rule="evenodd" stroke="none"/>
    <path d="M-8.45 -1.05 Q17.55 -6.55 30.65 -17.2 33.25 11.3 8.8 12.45 -7.75 13.2 -31.85 2.3 -21.45 1.7 -8.45 -1.05 Z" fill="none" stroke="#000000" stroke-linecap="butt" stroke-linejoin="miter-clip" stroke-miterlimit="4.0" stroke-opacity="0.4" stroke-width="2.0"/>
    <path d="M24.0 2.15 Q26.25 1.95 27.6 3.65 23.3 9.8 16.1 11.4 8.8 13.0 2.25 12.4 L2.05 11.5 Q1.35 7.55 6.4 6.7 11.45 5.9 16.55 4.05 21.65 2.35 24.0 2.15" fill="#bd3222" fill-rule="evenodd" stroke="none"/>
    <path d="M27.35 1.7 L28.0 2.1 Q24.1 9.45 15.05 11.6 13.95 7.7 14.1 3.05 14.25 -2.05 16.0 -2.5 17.15 -3.65 20.55 -2.2 L27.35 1.7" fill="#ffffff" fill-opacity="0.9882353" fill-rule="evenodd" stroke="none"/>
    <path d="M27.35 1.7 L28.0 2.1 Q24.1 9.45 15.05 11.6 13.95 7.7 14.1 3.05 14.25 -2.05 16.0 -2.5 17.15 -3.65 20.55 -2.2 L27.35 1.7 Z" fill="none" stroke="#000000" stroke-linecap="butt" stroke-linejoin="miter-clip" stroke-miterlimit="4.0" stroke-opacity="0.4" stroke-width="2.0"/>
  </g>
</svg>
