<?xml version="1.0" encoding="UTF-8" standalone="no"?>
<svg xmlns:ffdec="https://www.free-decompiler.com/flash" xmlns:xlink="http://www.w3.org/1999/xlink" ffdec:objectType="shape" height="41.1px" width="87.15px" xmlns="http://www.w3.org/2000/svg">
  <g transform="matrix(1.0, 0.0, 0.0, 1.0, 42.75, 3.8)">
    <path d="M15.6 34.65 Q1.05 36.65 -14.05 35.15 -29.2 33.6 -36.5 28.9 -43.8 24.1 -39.9 10.5 -36.0 -3.15 -18.5 -1.65 -1.0 -0.15 15.85 -2.0 32.7 -3.85 39.7 6.65 46.7 17.1 38.45 24.85 30.15 32.6 15.6 34.65" fill="#000000" fill-opacity="0.49803922" fill-rule="evenodd" stroke="none"/>
    <path d="M15.6 34.65 Q1.05 36.65 -14.05 35.15 -29.2 33.6 -36.5 28.9 -43.8 24.1 -39.9 10.5 -36.0 -3.15 -18.5 -1.65 -1.0 -0.15 15.85 -2.0 32.7 -3.85 39.7 6.65 46.7 17.1 38.45 24.85 30.15 32.6 15.6 34.65 Z" fill="none" stroke="#000000" stroke-linecap="round" stroke-linejoin="round" stroke-opacity="0.49803922" stroke-width="3.0"/>
  </g>
</svg>
