<?xml version="1.0" encoding="UTF-8" standalone="no"?>
<svg xmlns:ffdec="https://www.free-decompiler.com/flash" xmlns:xlink="http://www.w3.org/1999/xlink" ffdec:objectType="shape" height="23.3px" width="58.75px" xmlns="http://www.w3.org/2000/svg">
  <g transform="matrix(1.0, 0.0, 0.0, 1.0, 45.95, 7.25)">
    <path d="M-28.6 -5.95 L-22.95 -5.65 Q-20.6 -4.7 -19.35 -1.8 -18.9 -4.15 -15.35 -5.5 -11.85 -6.85 -9.1 -5.45 -6.35 -4.0 -5.0 -2.45 -3.75 -0.9 -2.25 2.1 -5.55 2.3 -6.9 3.15 -4.65 8.05 -8.2 11.25 -11.75 14.4 -17.05 15.0 -22.35 15.5 -27.3 12.0 -32.2 8.35 -29.25 3.05 -30.5 1.85 -34.15 1.55 -31.9 -5.2 -28.6 -5.95" fill="#000000" fill-opacity="0.6" fill-rule="evenodd" stroke="none"/>
    <path d="M-44.95 5.25 Q-36.85 0.15 -29.2 3.0 -17.85 5.1 -6.85 3.1 L-2.25 2.05 Q-3.75 -0.9 -5.0 -2.45 -6.3 -4.0 -9.1 -5.45 -11.85 -6.85 -15.35 -5.5 -18.9 -4.15 -19.35 -1.8 -20.6 -4.7 -22.95 -5.65 L-28.6 -5.95 Q-31.9 -5.2 -34.1 1.55 M-29.2 3.0 Q-32.15 8.35 -27.25 12.0 -22.3 15.5 -17.0 15.0 -11.7 14.4 -8.2 11.25 -4.6 8.05 -6.85 3.1 M11.8 6.85 Q4.55 -0.5 -2.25 2.05" fill="none" stroke="#000000" stroke-linecap="round" stroke-linejoin="round" stroke-opacity="0.4" stroke-width="2.0"/>
  </g>
</svg>
