<?xml version="1.0" encoding="UTF-8" standalone="no"?>
<svg xmlns:ffdec="https://www.free-decompiler.com/flash" xmlns:xlink="http://www.w3.org/1999/xlink" ffdec:objectType="shape" height="19.0px" width="53.35px" xmlns="http://www.w3.org/2000/svg">
  <g transform="matrix(1.0, 0.0, 0.0, 1.0, 33.05, 4.35)">
    <path d="M19.3 7.05 Q18.3 5.7 15.25 4.4 8.8 2.15 -3.05 4.45 -15.0 6.8 -32.05 6.6" fill="none" stroke="#000000" stroke-linecap="butt" stroke-linejoin="miter-clip" stroke-miterlimit="4.0" stroke-opacity="0.29803923" stroke-width="2.0"/>
    <path d="M-24.65 6.0 Q-25.15 3.85 -24.15 1.6 -22.4 -2.85 -15.5 -3.3 -8.45 -3.75 -1.0 -0.25 2.65 1.5 5.05 3.3 L3.1 3.6 Q3.1 5.8 1.95 8.0 -0.25 12.65 -6.05 13.35 -15.6 14.6 -19.55 10.6 -21.45 8.55 -21.55 6.3 L-21.3 6.0 -24.65 6.0" fill="#cc0000" fill-opacity="0.4" fill-rule="evenodd" stroke="none"/>
    <path d="M5.05 3.3 Q2.65 1.5 -1.0 -0.25 -8.45 -3.75 -15.5 -3.3 -22.4 -2.85 -24.15 1.6 -25.15 3.85 -24.65 6.0 M-21.55 6.3 Q-21.45 8.55 -19.55 10.6 -15.6 14.6 -6.05 13.35 -0.25 12.65 1.95 8.0 3.1 5.8 3.1 3.6" fill="none" stroke="#000000" stroke-linecap="round" stroke-linejoin="round" stroke-opacity="0.29803923" stroke-width="2.0"/>
  </g>
</svg>
