<?xml version="1.0" encoding="UTF-8" standalone="no"?>
<svg xmlns:ffdec="https://www.free-decompiler.com/flash" xmlns:xlink="http://www.w3.org/1999/xlink" ffdec:objectType="shape" height="20.3px" width="58.35px" xmlns="http://www.w3.org/2000/svg">
  <g transform="matrix(1.0, 0.0, 0.0, 1.0, 41.2, 5.55)">
    <path d="M-29.3 1.85 Q-28.95 -3.6 -25.75 -4.25 L-20.2 -4.0 Q-17.9 -3.15 -16.65 -0.5 -16.2 -2.65 -13.2 -3.75 -10.3 -4.9 -7.5 -4.4 -4.75 -3.95 -2.85 -2.75 L2.65 0.9 -0.7 1.85 0.55 2.0 Q0.2 7.45 -3.3 10.1 -6.8 12.7 -13.25 13.55 -19.8 14.35 -24.2 11.75 -28.65 9.1 -26.4 2.65 L-29.3 1.85" fill="#ff33cc" fill-rule="evenodd" stroke="none"/>
    <path d="M2.65 0.9 L-2.85 -2.75 Q-4.75 -3.95 -7.5 -4.4 -10.3 -4.9 -13.2 -3.75 -16.2 -2.65 -16.65 -0.5 -17.9 -3.15 -20.2 -4.0 L-25.75 -4.25 Q-28.95 -3.6 -29.3 1.85 M-26.4 2.65 Q-28.65 9.1 -24.2 11.75 -19.8 14.35 -13.25 13.55 -6.8 12.7 -3.3 10.1 0.2 7.45 0.55 2.0" fill="none" stroke="#000000" stroke-linecap="round" stroke-linejoin="round" stroke-opacity="0.29803923" stroke-width="2.0"/>
    <path d="M-16.9 10.9 Q-18.2 11.5 -20.0 11.35 -21.85 11.15 -23.15 10.3 -24.45 9.5 -24.45 8.5 -24.45 7.45 -23.15 6.85 -21.85 6.3 -20.0 6.5 -18.2 6.65 -16.9 7.45 -15.6 8.3 -15.6 9.35 -15.6 10.35 -16.9 10.9" fill="#ffffff" fill-opacity="0.4" fill-rule="evenodd" stroke="none"/>
    <path d="M-40.2 0.65 Q-5.4 7.0 8.1 -0.75 10.5 -2.15 12.25 -4.0 L16.15 1.15" fill="none" stroke="#000000" stroke-linecap="round" stroke-linejoin="round" stroke-opacity="0.29803923" stroke-width="2.0"/>
  </g>
</svg>
