<?xml version="1.0" encoding="UTF-8" standalone="no"?>
<svg xmlns:ffdec="https://www.free-decompiler.com/flash" xmlns:xlink="http://www.w3.org/1999/xlink" ffdec:objectType="shape" height="10.15px" width="13.25px" xmlns="http://www.w3.org/2000/svg">
  <g transform="matrix(1.0, 0.0, 0.0, 1.0, 6.6, 5.05)">
    <path d="M-3.65 -4.05 Q-1.8 -5.1 -0.25 -5.05 1.3 -5.0 3.95 -3.5 6.65 -2.05 6.65 0.1 6.65 2.25 3.95 3.7 1.3 5.2 -0.7 5.1 -2.7 5.0 -4.95 3.2 -7.2 1.35 -6.35 -0.85 -5.5 -3.05 -3.65 -4.05" fill="#b7ff41" fill-opacity="0.7019608" fill-rule="evenodd" stroke="none"/>
    <path d="M-2.6 -2.85 L-1.05 -3.3 Q-0.35 -3.3 0.85 -2.6 2.05 -1.95 2.05 -1.0 2.05 -0.05 0.85 0.6 -0.35 1.3 -1.25 1.25 -2.15 1.2 -3.2 0.4 -4.2 -0.45 -3.8 -1.45 -3.4 -2.4 -2.6 -2.85" fill="#deffa8" fill-opacity="0.6" fill-rule="evenodd" stroke="none"/>
  </g>
</svg>
