<?xml version="1.0" encoding="UTF-8" standalone="no"?>
<svg xmlns:ffdec="https://www.free-decompiler.com/flash" xmlns:xlink="http://www.w3.org/1999/xlink" ffdec:objectType="shape" height="71.35px" width="145.35px" xmlns="http://www.w3.org/2000/svg">
  <g transform="matrix(1.0, 0.0, 0.0, 1.0, 86.25, 15.55)">
    <path d="M39.4 12.45 Q17.45 25.55 -13.6 25.55 -44.65 25.55 -66.65 12.45 -81.45 3.6 -86.25 -7.7 L59.1 -7.7 Q54.25 3.6 39.4 12.45" fill="#010101" fill-opacity="0.0" fill-rule="evenodd" stroke="none"/>
    <path d="M19.1 -13.15 Q19.8 -13.55 20.6 -13.75 L23.3 -14.45 25.05 -14.55 28.0 -14.25 Q31.35 -13.5 34.0 -10.85 36.3 -8.55 37.25 -5.75 37.85 -3.85 37.85 -1.75 37.85 3.5 32.85 6.55 L29.7 8.3 Q26.35 10.15 23.15 11.6 20.1 12.95 11.4 14.55 L6.85 15.35 -0.95 16.5 -11.7 17.5 Q-22.8 18.05 -31.9 16.1 L-34.35 15.5 -48.8 11.3 -50.65 10.55 -51.5 10.0 -57.2 6.35 Q-61.7 3.5 -61.7 -1.25 -61.7 -3.0 -61.25 -4.5 -60.35 -7.35 -57.85 -9.6 -54.0 -13.0 -48.4 -13.0 L-44.4 -12.45 -43.25 -12.05 -42.45 -11.85 -41.7 -11.6 Q-34.6 -9.65 -27.35 -8.75 L-12.0 -8.0 Q-3.8 -8.2 4.6 -9.7 11.8 -10.95 19.1 -13.15 M-48.8 11.3 L-46.0 -0.1 Q-37.7 1.9 -29.5 3.0 L-27.35 -8.75 -29.5 3.0 Q-37.7 1.9 -46.0 -0.1 L-48.8 11.3 M-31.9 16.1 L-29.5 3.0 -11.85 4.05 -11.4 4.05 Q-11.3 10.8 -11.7 17.5 -11.3 10.8 -11.4 4.05 L-11.85 4.05 -29.5 3.0 -31.9 16.1 M-43.25 -12.05 L-46.0 -0.1 Q-53.6 -1.9 -61.25 -4.5 -53.6 -1.9 -46.0 -0.1 L-43.25 -12.05 M4.6 -9.7 L8.1 2.5 Q-1.55 4.0 -11.4 4.05 -11.5 -1.95 -12.0 -8.0 -11.5 -1.95 -11.4 4.05 -1.55 4.0 8.1 2.5 L4.6 -9.7 M11.4 14.55 L8.1 2.5 Q16.9 1.1 25.6 -1.55 L29.7 8.3 25.6 -1.55 Q16.9 1.1 8.1 2.5 L11.4 14.55 M37.25 -5.75 L34.8 -4.75 Q30.2 -3.0 25.6 -1.55 L20.6 -13.75 25.6 -1.55 Q30.2 -3.0 34.8 -4.75 L37.25 -5.75" fill="#ffffff" fill-rule="evenodd" stroke="none"/>
    <path d="M19.1 -13.15 Q19.8 -13.55 20.6 -13.75 L23.3 -14.45 25.05 -14.55 28.0 -14.25 Q31.35 -13.5 34.0 -10.85 36.3 -8.55 37.25 -5.75 37.85 -3.85 37.85 -1.75 37.85 3.5 32.85 6.55 L29.7 8.3 Q26.35 10.15 23.15 11.6 20.1 12.95 11.4 14.55 L6.85 15.35 -0.95 16.5 -11.7 17.5 Q-22.8 18.05 -31.9 16.1 L-34.35 15.5 -48.8 11.3 -50.65 10.55 -51.5 10.0 -57.2 6.35 Q-61.7 3.5 -61.7 -1.25 -61.7 -3.0 -61.25 -4.5 -60.35 -7.35 -57.85 -9.6 -54.0 -13.0 -48.4 -13.0 L-44.4 -12.45 -43.25 -12.05 -42.45 -11.85 -41.7 -11.6 Q-34.6 -9.65 -27.35 -8.75 L-12.0 -8.0 Q-3.8 -8.2 4.6 -9.7 11.8 -10.95 19.1 -13.15 M20.6 -13.75 L25.6 -1.55 Q30.2 -3.0 34.8 -4.75 L37.25 -5.75 M29.7 8.3 L25.6 -1.55 Q16.9 1.1 8.1 2.5 L11.4 14.55 M-12.0 -8.0 Q-11.5 -1.95 -11.4 4.05 -1.55 4.0 8.1 2.5 L4.6 -9.7 M-61.25 -4.5 Q-53.6 -1.9 -46.0 -0.1 L-43.25 -12.05 M-11.7 17.5 Q-11.3 10.8 -11.4 4.05 L-11.85 4.05 -29.5 3.0 -31.9 16.1 M-27.35 -8.75 L-29.5 3.0 Q-37.7 1.9 -46.0 -0.1 L-48.8 11.3" fill="none" stroke="#000000" stroke-linecap="round" stroke-linejoin="round" stroke-opacity="0.49803922" stroke-width="2.0"/>
    <path d="M-40.05 8.35 L-42.8 9.3 -41.0 8.2 -40.2 7.7 -40.05 8.35" fill="#45a754" fill-rule="evenodd" stroke="none"/>
    <path d="M-46.05 16.25 Q-41.05 18.5 -39.45 19.8 L-38.2 20.95 Q-36.35 22.05 -34.45 24.55 -30.85 29.35 -32.3 34.25 -33.7 38.7 -36.65 39.85 L-39.35 40.1 -42.3 42.0 Q-43.4 40.65 -45.05 39.3 -48.35 36.65 -52.15 34.95 L-53.5 33.95 Q-54.7 33.15 -55.5 32.95 -57.1 32.6 -58.25 30.3 -59.45 27.75 -60.75 27.15 -64.25 25.55 -71.75 28.8 L-72.0 28.9 Q-71.15 27.85 -70.65 26.4 -68.5 20.35 -64.7 16.35 -59.25 10.75 -52.85 13.35 -48.9 14.95 -46.05 16.25 M-38.2 20.95 Q-39.5 20.15 -40.8 20.05 -44.65 20.25 -48.05 24.25 -49.8 26.35 -52.75 31.6 -53.45 32.85 -53.5 33.95 -53.45 32.85 -52.75 31.6 -49.8 26.35 -48.05 24.25 -44.65 20.25 -40.8 20.05 -39.5 20.15 -38.2 20.95 M-66.2 34.9 L-66.05 34.9 -66.25 35.1 Q-68.2 37.25 -67.25 39.7 -66.45 41.75 -63.8 43.45 -61.35 45.0 -58.8 45.25 -56.35 45.55 -55.25 44.35 L-55.05 44.15 Q-54.7 43.1 -55.55 40.9 -56.4 38.45 -58.1 36.35 L-58.25 36.2 Q-54.65 37.6 -53.1 39.95 -51.1 42.95 -53.05 46.45 -55.05 49.95 -58.4 49.8 L-58.6 49.8 Q-61.4 49.65 -64.55 47.2 -67.4 44.85 -69.35 41.85 -70.75 39.7 -70.9 38.25 L-70.95 37.5 -70.8 37.25 Q-69.65 35.3 -66.2 34.9" fill="#b53b3b" fill-rule="evenodd" stroke="none"/>
    <path d="M-42.3 42.0 Q-38.65 46.4 -40.75 51.05 -43.55 57.1 -51.25 54.5 -53.9 53.65 -56.2 52.15 L-58.75 50.95 Q-59.2 52.75 -60.65 53.95 -63.9 56.65 -70.2 52.1 -76.5 47.5 -76.45 44.7 -76.4 43.45 -75.3 41.9 L-75.2 41.75 Q-85.05 35.1 -82.85 31.3 -80.15 26.7 -76.8 27.7 L-74.3 28.75 -72.0 28.9 -71.75 28.8 Q-64.25 25.55 -60.75 27.15 -59.45 27.75 -58.25 30.3 -57.1 32.6 -55.5 32.95 -54.7 33.15 -53.5 33.95 L-52.15 34.95 Q-48.35 36.65 -45.05 39.3 -43.4 40.65 -42.3 42.0 M-66.2 34.9 Q-69.65 35.3 -70.8 37.25 L-70.95 37.5 -70.9 38.25 Q-70.75 39.7 -69.35 41.85 -67.4 44.85 -64.55 47.2 -61.4 49.65 -58.6 49.8 L-58.4 49.8 Q-55.05 49.95 -53.05 46.45 -51.1 42.95 -53.1 39.95 -54.65 37.6 -58.25 36.2 L-58.1 36.35 Q-56.4 38.45 -55.55 40.9 -54.7 43.1 -55.05 44.15 L-55.25 44.35 Q-56.35 45.55 -58.8 45.25 -61.35 45.0 -63.8 43.45 -66.45 41.75 -67.25 39.7 -68.2 37.25 -66.25 35.1 L-66.05 34.9 -66.2 34.9 M-66.05 34.9 Q-64.2 33.0 -61.95 33.55 -60.0 34.05 -58.25 36.2 -60.0 34.05 -61.95 33.55 -64.2 33.0 -66.05 34.9 M-58.75 50.95 L-58.6 49.8 -58.75 50.95 M-52.15 34.95 L-52.55 34.8 -50.05 38.55 Q-47.55 43.0 -47.5 46.5 -47.35 50.0 -52.9 50.65 -55.65 50.95 -58.35 50.6 L-56.2 52.15 -58.35 50.6 Q-55.65 50.95 -52.9 50.65 -47.35 50.0 -47.5 46.5 -47.55 43.0 -50.05 38.55 L-52.55 34.8 -52.15 34.95 M-70.9 38.25 L-72.7 38.45 -75.2 41.75 -72.7 38.45 -70.9 38.25" fill="#d64646" fill-rule="evenodd" stroke="none"/>
    <path d="M4.2 4.15 Q18.15 6.25 35.8 11.15 M-46.05 16.25 Q-42.0 8.0 -31.4 4.75" fill="none" stroke="#45a754" stroke-linecap="round" stroke-linejoin="round" stroke-width="3.0"/>
    <path d="M-46.05 16.25 Q-41.05 18.5 -39.45 19.8 L-38.2 20.95 Q-36.35 22.05 -34.45 24.55 -30.85 29.35 -32.3 34.25 -33.7 38.7 -36.65 39.85 L-39.35 40.1 -42.3 42.0 Q-38.65 46.4 -40.75 51.05 -43.55 57.1 -51.25 54.5 -53.9 53.65 -56.2 52.15 L-58.75 50.95 Q-59.2 52.75 -60.65 53.95 -63.9 56.65 -70.2 52.1 -76.5 47.5 -76.45 44.7 -76.4 43.45 -75.3 41.9 L-75.2 41.75 Q-85.05 35.1 -82.85 31.3 -80.15 26.7 -76.8 27.7 L-74.3 28.75 -72.0 28.9 Q-71.15 27.85 -70.65 26.4 -68.5 20.35 -64.7 16.35 -59.25 10.75 -52.85 13.35 -48.9 14.95 -46.05 16.25 M-53.5 33.95 Q-53.45 32.85 -52.75 31.6 -49.8 26.35 -48.05 24.25 -44.65 20.25 -40.8 20.05 -39.5 20.15 -38.2 20.95 M-66.2 34.9 Q-69.65 35.3 -70.8 37.25 L-70.95 37.5 -70.9 38.25 Q-70.75 39.7 -69.35 41.85 -67.4 44.85 -64.55 47.2 -61.4 49.65 -58.6 49.8 L-58.4 49.8 Q-55.05 49.95 -53.05 46.45 -51.1 42.95 -53.1 39.95 -54.65 37.6 -58.25 36.2 L-58.1 36.35 Q-56.4 38.45 -55.55 40.9 -54.7 43.1 -55.05 44.15 L-55.25 44.35 Q-56.35 45.55 -58.8 45.25 -61.35 45.0 -63.8 43.45 -66.45 41.75 -67.25 39.7 -68.2 37.25 -66.25 35.1 L-66.05 34.9 -66.2 34.9 M-58.25 36.2 Q-60.0 34.05 -61.95 33.55 -64.2 33.0 -66.05 34.9 M-72.0 28.9 L-71.75 28.8 Q-64.25 25.55 -60.75 27.15 -59.45 27.75 -58.25 30.3 -57.1 32.6 -55.5 32.95 -54.7 33.15 -53.5 33.95 L-52.15 34.95 Q-48.35 36.65 -45.05 39.3 -43.4 40.65 -42.3 42.0 M-75.2 41.75 L-72.7 38.45 -70.9 38.25 M-56.2 52.15 L-58.35 50.6 Q-55.65 50.95 -52.9 50.65 -47.35 50.0 -47.5 46.5 -47.55 43.0 -50.05 38.55 L-52.55 34.8 -52.15 34.95 M-58.6 49.8 L-58.75 50.95" fill="none" stroke="#851d1d" stroke-linecap="round" stroke-linejoin="round" stroke-width="1.0"/>
  </g>
</svg>
