<?xml version="1.0" encoding="UTF-8" standalone="no"?>
<svg xmlns:ffdec="https://www.free-decompiler.com/flash" xmlns:xlink="http://www.w3.org/1999/xlink" ffdec:objectType="shape" height="22.75px" width="55.4px" xmlns="http://www.w3.org/2000/svg">
  <g transform="matrix(1.0, 0.0, 0.0, 1.0, 41.5, 12.85)">
    <path d="M-2.85 -6.3 L1.65 -3.9 Q4.1 -2.6 6.25 -1.75 1.75 2.9 -3.15 5.5 L-3.0 2.55 -2.85 -6.3 -3.0 2.55 2.2 1.6 -3.0 2.55 -3.15 5.5 Q-10.1 9.3 -18.1 8.85 L-19.0 8.8 Q-28.45 8.0 -34.45 1.95 L-34.65 1.7 Q-36.4 -0.1 -37.85 -2.25 L-33.7 -5.85 -33.55 -5.95 Q-28.55 -9.9 -23.7 -11.2 L-20.5 -11.75 Q-15.5 -12.2 -10.1 -10.05 L-2.85 -6.3 M-33.45 2.15 L-34.45 1.95 -33.45 2.15 -33.7 -5.85 -33.45 2.15 -33.35 2.15 Q-26.5 3.45 -19.4 3.65 L-20.5 -11.75 -19.4 3.65 Q-26.5 3.45 -33.35 2.15 L-33.45 2.15 M-19.0 8.8 L-19.4 3.65 -3.0 2.55 -19.4 3.65 -19.0 8.8" fill="#ffffff" fill-rule="evenodd" stroke="none"/>
    <path d="M6.25 -1.75 Q10.0 -0.3 12.9 -0.4 M-2.85 -6.3 L1.65 -3.9 Q4.1 -2.6 6.25 -1.75 1.75 2.9 -3.15 5.5 L-3.15 6.0 M-40.5 0.5 L-37.85 -2.25 -38.05 -2.5 M-2.85 -6.3 L-2.85 -6.75 M-37.85 -2.25 L-33.7 -5.85 -33.55 -5.95 Q-28.55 -9.9 -23.7 -11.2 L-20.5 -11.75 Q-15.5 -12.2 -10.1 -10.05 L-2.85 -6.3 -3.0 2.55 2.2 1.6 M-3.0 2.55 L-3.15 5.5 Q-10.1 9.3 -18.1 8.85 L-19.0 8.8 Q-28.45 8.0 -34.45 1.95 L-34.65 1.7 Q-36.4 -0.1 -37.85 -2.25 M-3.0 2.55 L-19.4 3.65 -19.0 8.8 M-33.7 -5.85 L-33.45 2.15 -33.35 2.15 Q-26.5 3.45 -19.4 3.65 L-20.5 -11.75 M-34.45 1.95 L-33.45 2.15" fill="none" stroke="#000000" stroke-linecap="round" stroke-linejoin="round" stroke-opacity="0.49803922" stroke-width="2.0"/>
  </g>
</svg>
