<?xml version="1.0" encoding="UTF-8" standalone="no"?>
<svg xmlns:ffdec="https://www.free-decompiler.com/flash" xmlns:xlink="http://www.w3.org/1999/xlink" ffdec:objectType="shape" height="21.65px" width="67.0px" xmlns="http://www.w3.org/2000/svg">
  <g transform="matrix(1.0, 0.0, 0.0, 1.0, 47.35, 9.3)">
    <path d="M-17.25 -8.2 L-12.45 -7.95 Q-9.45 -7.45 -4.85 -5.45 -0.25 -3.45 2.0 -2.95 L-2.5 -1.65 Q-1.85 1.85 -3.45 5.85 -5.05 9.85 -14.55 11.05 -24.15 12.25 -27.65 8.6 -31.2 4.95 -31.3 2.15 L-35.1 2.15 Q-34.65 0.05 -32.8 -3.2 -31.05 -6.45 -28.6 -7.0 -27.55 -7.25 -24.9 -6.2 L-22.4 -5.1 Q-19.0 -8.0 -17.25 -8.2" fill="#a8a8a8" fill-opacity="0.8" fill-rule="evenodd" stroke="none"/>
    <path d="M-17.25 -8.2 L-12.45 -7.95 Q-9.45 -7.45 -4.85 -5.45 -0.25 -3.45 2.0 -2.95 L-2.5 -1.65 Q-1.85 1.85 -3.45 5.85 -5.05 9.85 -14.55 11.05 -24.15 12.25 -27.65 8.6 -31.2 4.95 -31.3 2.15 L-35.1 2.15 Q-34.65 0.05 -32.8 -3.2 -31.05 -6.45 -28.6 -7.0 -27.55 -7.25 -24.9 -6.2 L-22.4 -5.1 Q-19.0 -8.0 -17.25 -8.2 Z" fill="none" stroke="#000000" stroke-linecap="butt" stroke-linejoin="round" stroke-opacity="0.29803923" stroke-width="2.0"/>
    <path d="M-18.45 7.6 L-21.7 7.95 Q-23.6 7.8 -24.95 7.05 -26.35 6.4 -26.35 5.45 -26.35 4.55 -24.95 4.05 L-21.7 3.7 Q-19.8 3.85 -18.45 4.6 -17.05 5.3 -17.05 6.2 -17.05 7.15 -18.45 7.6" fill="#ffffff" fill-opacity="0.29803923" fill-rule="evenodd" stroke="none"/>
    <path d="M18.65 -0.85 Q15.3 -5.1 10.7 -5.05 6.1 -5.0 -5.85 -0.8 -17.8 3.35 -46.35 2.1" fill="none" stroke="#000000" stroke-linecap="round" stroke-linejoin="miter-clip" stroke-miterlimit="4.0" stroke-opacity="0.29803923" stroke-width="2.0"/>
  </g>
</svg>
