<?xml version="1.0" encoding="UTF-8" standalone="no"?>
<svg xmlns:ffdec="https://www.free-decompiler.com/flash" xmlns:xlink="http://www.w3.org/1999/xlink" ffdec:objectType="shape" height="21.55px" width="63.15px" xmlns="http://www.w3.org/2000/svg">
  <g transform="matrix(1.0, 0.0, 0.0, 1.0, 47.4, 9.35)">
    <path d="M-16.7 -8.3 L-11.95 -7.75 Q-9.0 -7.1 -4.5 -4.85 0.0 -2.6 2.2 -1.95 L-2.35 -0.9 Q-1.9 2.65 -3.75 6.55 -5.55 10.45 -15.15 11.1 -24.75 11.8 -28.05 7.95 -31.4 4.1 -31.35 1.3 L-35.15 1.05 Q-34.55 -1.0 -32.55 -4.15 -30.6 -7.3 -28.1 -7.7 -27.05 -7.9 -24.45 -6.7 L-22.0 -5.45 Q-18.45 -8.2 -16.7 -8.3" fill="#a8a8a8" fill-opacity="0.8" fill-rule="evenodd" stroke="none"/>
    <path d="M-16.7 -8.3 L-11.95 -7.75 Q-9.0 -7.1 -4.5 -4.85 0.0 -2.6 2.2 -1.95 L-2.35 -0.9 Q-1.9 2.65 -3.75 6.55 -5.55 10.45 -15.15 11.1 -24.75 11.8 -28.05 7.95 -31.4 4.1 -31.35 1.3 L-35.15 1.05 Q-34.55 -1.0 -32.55 -4.15 -30.6 -7.3 -28.1 -7.7 -27.05 -7.9 -24.45 -6.7 L-22.0 -5.45 Q-18.45 -8.2 -16.7 -8.3 Z" fill="none" stroke="#000000" stroke-linecap="butt" stroke-linejoin="round" stroke-opacity="0.29803923" stroke-width="2.0"/>
    <path d="M-18.8 7.45 L-22.1 7.65 Q-23.95 7.4 -25.3 6.55 -26.6 5.75 -26.55 4.85 -26.5 3.95 -25.1 3.5 L-21.85 3.4 Q-19.95 3.7 -18.6 4.4 -17.25 5.25 -17.3 6.15 -17.35 7.05 -18.8 7.45" fill="#ffffff" fill-opacity="0.29803923" fill-rule="evenodd" stroke="none"/>
    <path d="M14.75 -4.2 Q13.15 -3.55 6.2 -2.6 -1.5 -1.5 -5.75 -0.25 -17.9 3.25 -46.4 0.4" fill="none" stroke="#000000" stroke-linecap="round" stroke-linejoin="miter-clip" stroke-miterlimit="4.0" stroke-opacity="0.29803923" stroke-width="2.0"/>
  </g>
</svg>
