<?xml version="1.0" encoding="UTF-8" standalone="no"?>
<svg xmlns:ffdec="https://www.free-decompiler.com/flash" xmlns:xlink="http://www.w3.org/1999/xlink" ffdec:objectType="shape" height="32.65px" width="72.5px" xmlns="http://www.w3.org/2000/svg">
  <g transform="matrix(1.0, 0.0, 0.0, 1.0, 36.25, 16.35)">
    <path d="M-35.25 -7.0 Q-2.55 -10.35 33.9 -8.65 L33.95 -8.5 Q36.05 -4.05 34.7 0.8 33.35 5.75 30.25 8.35 27.35 10.7 21.1 12.45 14.25 14.3 5.6 15.1 -3.05 15.85 -12.2 14.1 -21.4 12.4 -25.6 9.3 -29.8 6.2 -32.45 1.65 -35.05 -2.8 -35.25 -7.0" fill="#000000" fill-opacity="0.49803922" fill-rule="evenodd" stroke="none"/>
    <path d="M-35.25 -7.0 L-35.25 -7.2 Q-35.35 -11.55 -29.1 -13.15 -22.9 -14.75 -0.55 -15.2 L26.85 -14.35 Q31.75 -13.0 33.9 -8.65 -2.55 -10.35 -35.25 -7.0" fill="#ffffff" fill-rule="evenodd" stroke="none"/>
    <path d="M33.9 -8.65 Q31.75 -13.0 26.85 -14.35 L-0.55 -15.2 Q-22.9 -14.75 -29.1 -13.15 -35.35 -11.55 -35.25 -7.2 L-35.25 -7.0 Q-2.55 -10.35 33.9 -8.65 L33.95 -8.5 Q36.05 -4.05 34.7 0.8 33.35 5.75 30.25 8.35 27.35 10.7 21.1 12.45 14.25 14.3 5.6 15.1 -3.05 15.85 -12.2 14.1 -21.4 12.4 -25.6 9.3 -29.8 6.2 -32.45 1.65 -35.05 -2.8 -35.25 -7.0" fill="none" stroke="#000000" stroke-linecap="round" stroke-linejoin="round" stroke-opacity="0.5019608" stroke-width="2.0"/>
    <path d="M29.8 7.05 L29.05 7.75 Q26.15 10.1 19.9 11.85 13.8 13.5 6.35 14.3 5.25 11.1 7.75 7.9 10.35 4.6 15.3 3.25 20.2 1.85 24.6 3.25 28.35 4.45 29.8 7.05" fill="#ec4646" fill-rule="evenodd" stroke="none"/>
  </g>
</svg>
