<?xml version="1.0" encoding="UTF-8" standalone="no"?>
<svg xmlns:ffdec="https://www.free-decompiler.com/flash" xmlns:xlink="http://www.w3.org/1999/xlink" ffdec:objectType="shape" height="22.4px" width="65.6px" xmlns="http://www.w3.org/2000/svg">
  <g transform="matrix(1.0, 0.0, 0.0, 1.0, 32.8, 11.2)">
    <path d="M-30.6 -1.15 Q-31.65 -3.0 -31.8 -4.8 -32.1 -7.7 -26.5 -8.75 L-0.8 -10.1 Q19.35 -10.45 23.9 -9.55 28.4 -8.6 30.45 -5.65 31.65 -3.85 31.8 -1.95 -9.4 0.5 -30.6 -1.15 -9.4 0.5 31.8 -1.95 L31.45 0.5 Q30.4 3.85 27.65 5.55 25.15 7.15 19.55 8.3 13.45 9.55 5.75 10.05 L-10.35 9.4 Q-18.7 8.25 -22.6 6.2 -26.5 4.15 -29.0 1.1 L-30.6 -1.15" fill="#ffffff" fill-rule="evenodd" stroke="none"/>
    <path d="M31.8 -1.95 Q31.65 -3.85 30.45 -5.65 28.4 -8.6 23.9 -9.55 19.35 -10.45 -0.8 -10.1 L-26.5 -8.75 Q-32.1 -7.7 -31.8 -4.8 -31.65 -3.0 -30.6 -1.15 -9.4 0.5 31.8 -1.95 L31.45 0.5 Q30.4 3.85 27.65 5.55 25.15 7.15 19.55 8.3 13.45 9.55 5.75 10.05 L-10.35 9.4 Q-18.7 8.25 -22.6 6.2 -26.5 4.15 -29.0 1.1 L-30.6 -1.15" fill="none" stroke="#000000" stroke-linecap="round" stroke-linejoin="round" stroke-opacity="0.5019608" stroke-width="2.0"/>
  </g>
</svg>
