<?xml version="1.0" encoding="UTF-8" standalone="no"?>
<svg xmlns:ffdec="https://www.free-decompiler.com/flash" xmlns:xlink="http://www.w3.org/1999/xlink" ffdec:objectType="shape" height="31.95px" width="69.25px" xmlns="http://www.w3.org/2000/svg">
  <g transform="matrix(1.0, 0.0, 0.0, 1.0, 57.25, 18.2)">
    <path d="M9.45 -0.55 Q6.45 3.9 1.25 6.4 -3.95 8.9 -11.5 11.1 -19.1 13.25 -27.4 12.6 -35.7 11.9 -41.2 9.85 -46.75 7.8 -50.4 5.45 -54.05 3.05 -55.7 -2.05 -57.4 -7.15 -53.95 -11.1 -50.5 -15.05 -45.95 -14.75 L-32.15 -14.1 Q-23.0 -13.75 -15.9 -15.25 -8.85 -16.75 -1.05 -17.15 6.8 -17.6 9.65 -11.3 12.45 -5.05 9.45 -0.55" fill="#000000" fill-opacity="0.49803922" fill-rule="evenodd" stroke="none"/>
    <path d="M9.45 -0.55 Q6.45 3.9 1.25 6.4 -3.95 8.9 -11.5 11.1 -19.1 13.25 -27.4 12.6 -35.7 11.9 -41.2 9.85 -46.75 7.8 -50.4 5.45 -54.05 3.05 -55.7 -2.05 -57.4 -7.15 -53.95 -11.1 -50.5 -15.05 -45.95 -14.75 L-32.15 -14.1 Q-23.0 -13.75 -15.9 -15.25 -8.85 -16.75 -1.05 -17.15 6.8 -17.6 9.65 -11.3 12.45 -5.05 9.45 -0.55 Z" fill="none" stroke="#000000" stroke-linecap="round" stroke-linejoin="round" stroke-opacity="0.5019608" stroke-width="2.0"/>
  </g>
</svg>
