<?xml version="1.0" encoding="UTF-8" standalone="no"?>
<svg xmlns:ffdec="https://www.free-decompiler.com/flash" xmlns:xlink="http://www.w3.org/1999/xlink" ffdec:objectType="shape" height="11.15px" width="30.25px" xmlns="http://www.w3.org/2000/svg">
  <g transform="matrix(1.0, 0.0, 0.0, 1.0, 39.5, -2.6)">
    <path d="M-19.55 12.35 L-30.55 13.25 Q-36.4 13.15 -38.3 10.55 -40.25 7.9 -35.6 5.85 -31.0 3.75 -25.5 3.25 -20.0 2.75 -15.7 4.0 -11.45 5.25 -9.9 9.05 -14.35 11.4 -19.55 12.35" fill="#ec4646" fill-rule="evenodd" stroke="none"/>
    <path d="M-19.55 12.35 Q-14.35 11.4 -9.9 9.05 -11.45 5.25 -15.7 4.0 -20.0 2.75 -25.5 3.25 -31.0 3.75 -35.6 5.85 -40.25 7.9 -38.3 10.55 -36.4 13.15 -30.55 13.25 L-19.55 12.35 Z" fill="none" stroke="#000000" stroke-linecap="butt" stroke-linejoin="miter-clip" stroke-miterlimit="4.0" stroke-opacity="0.29803923" stroke-width="1.0"/>
  </g>
</svg>
