<?xml version="1.0" encoding="UTF-8" standalone="no"?>
<svg xmlns:ffdec="https://www.free-decompiler.com/flash" xmlns:xlink="http://www.w3.org/1999/xlink" ffdec:objectType="shape" height="25.1px" width="33.65px" xmlns="http://www.w3.org/2000/svg">
  <g transform="matrix(1.0, 0.0, 0.0, 1.0, 44.35, -2.6)">
    <path d="M-11.45 9.6 Q-14.6 11.2 -15.9 11.4 -17.25 11.55 -19.95 12.85 -22.7 14.1 -25.4 20.75 -28.15 27.4 -34.9 27.2 -41.7 26.95 -43.1 23.1 -44.55 19.25 -43.1 15.05 -41.7 10.8 -36.8 7.3 -31.95 3.8 -26.65 3.2 -21.35 2.6 -17.1 4.95 -12.85 7.25 -11.45 9.6" fill="#ec4646" fill-rule="evenodd" stroke="none"/>
    <path d="M-11.45 9.6 Q-12.85 7.25 -17.1 4.95 -21.35 2.6 -26.65 3.2 -31.95 3.8 -36.8 7.3 -41.7 10.8 -43.1 15.05 -44.55 19.25 -43.1 23.1 -41.7 26.95 -34.9 27.2 -28.15 27.4 -25.4 20.75 -22.7 14.1 -19.95 12.85 -17.25 11.55 -15.9 11.4 -14.6 11.2 -11.45 9.6 Z" fill="none" stroke="#000000" stroke-linecap="butt" stroke-linejoin="miter-clip" stroke-miterlimit="4.0" stroke-opacity="0.29803923" stroke-width="1.0"/>
  </g>
</svg>
