<?xml version="1.0" encoding="UTF-8" standalone="no"?>
<svg xmlns:ffdec="https://www.free-decompiler.com/flash" xmlns:xlink="http://www.w3.org/1999/xlink" ffdec:objectType="shape" height="27.8px" width="29.65px" xmlns="http://www.w3.org/2000/svg">
  <g transform="matrix(1.0, 0.0, 0.0, 1.0, 40.25, -3.2)">
    <path d="M-21.6 21.9 Q-21.0 27.85 -25.1 29.6 -29.2 31.35 -33.9 29.7 -38.6 28.05 -39.55 22.15 -40.55 16.2 -36.35 11.0 -32.15 5.75 -28.1 4.4 -24.1 3.0 -19.0 4.4 -13.9 5.75 -11.4 9.8 L-15.9 11.1 Q-20.45 13.2 -21.3 14.55 -22.2 15.9 -21.6 21.9" fill="#ec4646" fill-rule="evenodd" stroke="none"/>
    <path d="M-21.6 21.9 Q-21.0 27.85 -25.1 29.6 -29.2 31.35 -33.9 29.7 -38.6 28.05 -39.55 22.15 -40.55 16.2 -36.35 11.0 -32.15 5.75 -28.1 4.4 -24.1 3.0 -19.0 4.4 -13.9 5.75 -11.4 9.8 L-15.9 11.1 Q-20.45 13.2 -21.3 14.55 -22.2 15.9 -21.6 21.9 Z" fill="none" stroke="#000000" stroke-linecap="butt" stroke-linejoin="miter-clip" stroke-miterlimit="4.0" stroke-opacity="0.29803923" stroke-width="1.0"/>
  </g>
</svg>
