<?xml version="1.0" encoding="UTF-8" standalone="no"?>
<svg xmlns:ffdec="https://www.free-decompiler.com/flash" xmlns:xlink="http://www.w3.org/1999/xlink" ffdec:objectType="shape" height="27.5px" width="28.65px" xmlns="http://www.w3.org/2000/svg">
  <g transform="matrix(1.0, 0.0, 0.0, 1.0, 38.8, -3.9)">
    <path d="M-19.9 22.0 Q-19.45 27.55 -22.35 29.5 -25.3 31.45 -30.0 30.65 -34.75 29.85 -37.3 24.6 -39.85 19.35 -36.0 13.3 -32.15 7.2 -28.3 5.5 -24.5 3.8 -19.3 4.75 -14.05 5.7 -11.0 9.55 L-15.3 11.2 Q-19.5 13.65 -19.95 15.05 -20.4 16.45 -19.9 22.0" fill="#ec4646" fill-rule="evenodd" stroke="none"/>
    <path d="M-19.9 22.0 Q-19.45 27.55 -22.35 29.5 -25.3 31.45 -30.0 30.65 -34.75 29.85 -37.3 24.6 -39.85 19.35 -36.0 13.3 -32.15 7.2 -28.3 5.5 -24.5 3.8 -19.3 4.75 -14.05 5.7 -11.0 9.55 L-15.3 11.2 Q-19.5 13.65 -19.95 15.05 -20.4 16.45 -19.9 22.0 Z" fill="none" stroke="#000000" stroke-linecap="butt" stroke-linejoin="miter-clip" stroke-miterlimit="4.0" stroke-opacity="0.29803923" stroke-width="1.0"/>
  </g>
</svg>
