<?xml version="1.0" encoding="UTF-8" standalone="no"?>
<svg xmlns:ffdec="https://www.free-decompiler.com/flash" xmlns:xlink="http://www.w3.org/1999/xlink" ffdec:objectType="shape" height="20.35px" width="41.55px" xmlns="http://www.w3.org/2000/svg">
  <g transform="matrix(1.0, 0.0, 0.0, 1.0, 52.4, -2.45)">
    <path d="M-41.65 5.4 Q-33.35 2.4 -26.55 3.05 -19.75 3.75 -16.15 5.95 -12.55 8.1 -11.6 9.95 -16.25 11.8 -22.3 13.05 -28.4 14.3 -33.95 18.2 -39.5 22.05 -43.55 22.3 -47.65 22.5 -50.25 19.15 -52.85 15.8 -51.4 12.1 -49.95 8.35 -41.65 5.4" fill="#ec4646" fill-rule="evenodd" stroke="none"/>
    <path d="M-41.65 5.4 Q-49.95 8.35 -51.4 12.1 -52.85 15.8 -50.25 19.15 -47.65 22.5 -43.55 22.3 -39.5 22.05 -33.95 18.2 -28.4 14.3 -22.3 13.05 -16.25 11.8 -11.6 9.95 -12.55 8.1 -16.15 5.95 -19.75 3.75 -26.55 3.05 -33.35 2.4 -41.65 5.4 Z" fill="none" stroke="#000000" stroke-linecap="butt" stroke-linejoin="miter-clip" stroke-miterlimit="4.0" stroke-opacity="0.29803923" stroke-width="1.0"/>
  </g>
</svg>
