<?xml version="1.0" encoding="UTF-8" standalone="no"?>
<svg xmlns:ffdec="https://www.free-decompiler.com/flash" xmlns:xlink="http://www.w3.org/1999/xlink" ffdec:objectType="shape" height="19.45px" width="46.95px" xmlns="http://www.w3.org/2000/svg">
  <g transform="matrix(1.0, 0.0, 0.0, 1.0, 58.25, 3.9)">
    <path d="M-53.7 -3.1 Q-49.55 -4.3 -44.05 -0.9 -38.6 2.45 -30.65 2.8 -22.75 3.05 -17.45 5.7 -12.2 8.35 -11.9 10.25 L-17.95 11.8 -33.3 14.7 Q-40.8 15.9 -49.2 13.25 -57.65 10.55 -57.75 4.35 -57.9 -1.9 -53.7 -3.1" fill="#ec4646" fill-rule="evenodd" stroke="none"/>
    <path d="M-53.7 -3.1 Q-57.9 -1.9 -57.75 4.35 -57.65 10.55 -49.2 13.25 -40.8 15.9 -33.3 14.7 L-17.95 11.8 -11.9 10.25 Q-12.2 8.35 -17.45 5.7 -22.75 3.05 -30.65 2.8 -38.6 2.45 -44.05 -0.9 -49.55 -4.3 -53.7 -3.1 Z" fill="none" stroke="#000000" stroke-linecap="butt" stroke-linejoin="miter-clip" stroke-miterlimit="4.0" stroke-opacity="0.29803923" stroke-width="1.0"/>
  </g>
</svg>
