<?xml version="1.0" encoding="UTF-8" standalone="no"?>
<svg xmlns:ffdec="https://www.free-decompiler.com/flash" xmlns:xlink="http://www.w3.org/1999/xlink" ffdec:objectType="shape" height="29.85px" width="36.9px" xmlns="http://www.w3.org/2000/svg">
  <g transform="matrix(1.0, 0.0, 0.0, 1.0, 47.6, 16.0)">
    <path d="M-40.0 -15.5 Q-34.15 -15.05 -33.4 -11.7 -32.7 -8.35 -30.1 -3.35 -27.5 1.6 -23.45 2.2 -19.45 2.8 -15.05 6.25 -12.8 7.95 -11.5 9.55 -13.6 10.8 -16.9 11.85 -23.5 14.0 -29.6 13.05 -36.85 11.95 -42.4 6.8 -48.0 1.65 -46.9 -7.15 -45.85 -15.95 -40.0 -15.5" fill="#ec4646" fill-rule="evenodd" stroke="none"/>
    <path d="M-40.0 -15.5 Q-45.85 -15.95 -46.9 -7.15 -48.0 1.65 -42.4 6.8 -36.85 11.95 -29.6 13.05 -23.5 14.0 -16.9 11.85 -13.6 10.8 -11.5 9.55 -12.8 7.95 -15.05 6.25 -19.45 2.8 -23.45 2.2 -27.5 1.6 -30.1 -3.35 -32.7 -8.35 -33.4 -11.7 -34.15 -15.05 -40.0 -15.5 Z" fill="none" stroke="#000000" stroke-linecap="butt" stroke-linejoin="miter-clip" stroke-miterlimit="4.0" stroke-opacity="0.29803923" stroke-width="1.0"/>
  </g>
</svg>
