<?xml version="1.0" encoding="UTF-8" standalone="no"?>
<svg xmlns:ffdec="https://www.free-decompiler.com/flash" xmlns:xlink="http://www.w3.org/1999/xlink" ffdec:objectType="shape" height="30.25px" width="35.05px" xmlns="http://www.w3.org/2000/svg">
  <g transform="matrix(1.0, 0.0, 0.0, 1.0, 45.15, 17.1)">
    <path d="M-36.0 -16.4 Q-30.6 -15.1 -30.3 -12.25 -30.0 -9.4 -27.9 -4.3 -25.7 0.8 -22.0 1.55 -17.6 2.45 -13.8 6.1 -11.85 7.85 -10.85 9.55 -13.15 10.65 -16.65 11.55 -23.55 13.4 -29.5 12.1 -36.5 10.65 -41.4 5.2 -46.3 -0.25 -43.85 -9.0 -41.45 -17.75 -36.0 -16.4" fill="#ec4646" fill-rule="evenodd" stroke="none"/>
    <path d="M-36.0 -16.4 Q-41.45 -17.75 -43.85 -9.0 -46.3 -0.25 -41.4 5.2 -36.5 10.65 -29.5 12.1 -23.55 13.4 -16.65 11.55 -13.15 10.65 -10.85 9.55 -11.85 7.85 -13.8 6.1 -17.6 2.45 -22.0 1.55 -25.7 0.8 -27.9 -4.3 -30.0 -9.4 -30.3 -12.25 -30.6 -15.1 -36.0 -16.4 Z" fill="none" stroke="#000000" stroke-linecap="butt" stroke-linejoin="miter-clip" stroke-miterlimit="4.0" stroke-opacity="0.29803923" stroke-width="1.0"/>
  </g>
</svg>
