<?xml version="1.0" encoding="UTF-8" standalone="no"?>
<svg xmlns:ffdec="https://www.free-decompiler.com/flash" xmlns:xlink="http://www.w3.org/1999/xlink" ffdec:objectType="shape" height="27.35px" width="36.4px" xmlns="http://www.w3.org/2000/svg">
  <g transform="matrix(1.0, 0.0, 0.0, 1.0, 47.1, 13.5)">
    <path d="M-41.1 -12.9 Q-36.15 -11.95 -35.0 -10.15 L-30.85 -3.35 Q-27.8 1.6 -24.0 2.15 -19.45 2.8 -15.05 6.25 -12.8 7.95 -11.5 9.55 -13.6 10.8 -16.9 11.85 -23.5 14.0 -29.6 13.05 -36.85 11.95 -41.95 7.15 -47.1 2.3 -46.55 -5.8 -46.05 -13.9 -41.1 -12.9" fill="#ec4646" fill-rule="evenodd" stroke="none"/>
    <path d="M-41.1 -12.9 Q-46.05 -13.9 -46.55 -5.8 -47.1 2.3 -41.95 7.15 -36.85 11.95 -29.6 13.05 -23.5 14.0 -16.9 11.85 -13.6 10.8 -11.5 9.55 -12.8 7.95 -15.05 6.25 -19.45 2.8 -24.0 2.15 -27.8 1.6 -30.85 -3.35 L-35.0 -10.15 Q-36.15 -11.95 -41.1 -12.9 Z" fill="none" stroke="#000000" stroke-linecap="butt" stroke-linejoin="miter-clip" stroke-miterlimit="4.0" stroke-opacity="0.29803923" stroke-width="1.0"/>
  </g>
</svg>
