<?xml version="1.0" encoding="UTF-8" standalone="no"?>
<svg xmlns:ffdec="https://www.free-decompiler.com/flash" xmlns:xlink="http://www.w3.org/1999/xlink" ffdec:objectType="shape" height="17.7px" width="35.95px" xmlns="http://www.w3.org/2000/svg">
  <g transform="matrix(1.0, 0.0, 0.0, 1.0, 46.8, 3.85)">
    <path d="M-40.2 -3.35 Q-36.1 -3.45 -27.45 -1.0 -18.85 1.4 -15.35 4.8 -11.9 8.15 -11.5 9.55 -13.6 10.8 -16.9 11.85 -23.5 14.0 -29.6 13.05 -36.85 11.95 -41.8 9.05 -46.8 6.15 -46.25 1.5 -45.75 -3.2 -40.2 -3.35" fill="#ec4646" fill-rule="evenodd" stroke="none"/>
    <path d="M-40.2 -3.35 Q-45.75 -3.2 -46.25 1.5 -46.8 6.15 -41.8 9.05 -36.85 11.95 -29.6 13.05 -23.5 14.0 -16.9 11.85 -13.6 10.8 -11.5 9.55 -11.9 8.15 -15.35 4.8 -18.85 1.4 -27.45 -1.0 -36.1 -3.45 -40.2 -3.35 Z" fill="none" stroke="#000000" stroke-linecap="butt" stroke-linejoin="miter-clip" stroke-miterlimit="4.0" stroke-opacity="0.29803923" stroke-width="1.0"/>
  </g>
</svg>
