<?xml version="1.0" encoding="UTF-8" standalone="no"?>
<svg xmlns:ffdec="https://www.free-decompiler.com/flash" xmlns:xlink="http://www.w3.org/1999/xlink" ffdec:objectType="shape" height="10.4px" width="30.1px" xmlns="http://www.w3.org/2000/svg">
  <g transform="matrix(1.0, 0.0, 0.0, 1.0, 39.35, -2.6)">
    <path d="M-15.7 4.0 Q-11.45 5.25 -9.9 9.05 -14.35 11.4 -19.15 11.95 L-29.8 12.5 Q-35.65 12.45 -37.95 10.2 -40.25 7.9 -35.6 5.85 -31.0 3.75 -25.5 3.25 -20.0 2.75 -15.7 4.0" fill="#ec4646" fill-rule="evenodd" stroke="none"/>
    <path d="M-15.7 4.0 Q-20.0 2.75 -25.5 3.25 -31.0 3.75 -35.6 5.85 -40.25 7.9 -37.95 10.2 -35.65 12.45 -29.8 12.5 L-19.15 11.95 Q-14.35 11.4 -9.9 9.05 -11.45 5.25 -15.7 4.0 Z" fill="none" stroke="#000000" stroke-linecap="butt" stroke-linejoin="miter-clip" stroke-miterlimit="4.0" stroke-opacity="0.29803923" stroke-width="1.0"/>
  </g>
</svg>
