<?xml version="1.0" encoding="UTF-8" standalone="no"?>
<svg xmlns:ffdec="https://www.free-decompiler.com/flash" xmlns:xlink="http://www.w3.org/1999/xlink" ffdec:objectType="shape" height="21.4px" width="57.95px" xmlns="http://www.w3.org/2000/svg">
  <g transform="matrix(1.0, 0.0, 0.0, 1.0, 35.1, 10.7)">
    <path d="M-28.3 2.65 L-34.05 2.3 Q-34.5 1.35 -28.75 -1.9 -23.0 -5.15 -8.25 -0.8 6.55 3.5 20.85 -7.2 17.55 -2.9 5.35 0.65 L0.1 1.8 -18.9 2.8 -28.3 2.65 -18.9 2.8 0.1 1.8 Q-1.4 4.9 -6.3 7.65 -11.2 10.4 -17.9 9.45 -24.6 8.45 -27.0 5.45 -28.2 3.95 -28.3 2.65" fill="#000000" fill-opacity="0.3019608" fill-rule="evenodd" stroke="none"/>
    <path d="M0.1 1.8 L5.35 0.65 Q17.55 -2.9 20.85 -7.2 6.55 3.5 -8.25 -0.8 -23.0 -5.15 -28.75 -1.9 -34.5 1.35 -34.05 2.3 L-28.3 2.65 -18.9 2.8 0.1 1.8 Q-1.4 4.9 -6.3 7.65 -11.2 10.4 -17.9 9.45 -24.6 8.45 -27.0 5.45 -28.2 3.95 -28.3 2.65" fill="none" stroke="#000000" stroke-linecap="round" stroke-linejoin="round" stroke-opacity="0.3019608" stroke-width="2.0"/>
    <path d="M22.15 -3.2 Q23.35 -7.15 17.15 -10.2" fill="none" stroke="#000000" stroke-linecap="round" stroke-linejoin="round" stroke-opacity="0.3019608" stroke-width="1.0"/>
  </g>
</svg>
