<?xml version="1.0" encoding="UTF-8" standalone="no"?>
<svg xmlns:ffdec="https://www.free-decompiler.com/flash" xmlns:xlink="http://www.w3.org/1999/xlink" ffdec:objectType="shape" height="36.5px" width="85.85px" xmlns="http://www.w3.org/2000/svg">
  <g transform="matrix(1.0, 0.0, 0.0, 1.0, 59.2, 20.85)">
    <path d="M25.45 -9.3 Q24.6 -4.35 20.15 0.2 9.2 11.5 -16.1 14.55 -31.75 15.35 -45.05 8.7 -59.25 1.6 -58.1 -8.7 -57.55 -13.6 -53.95 -13.75 -51.55 -13.85 -45.0 -11.15 -36.6 -7.65 -32.55 -6.6 -24.65 -4.55 -18.1 -5.95 -11.7 -7.3 -4.0 -10.7 L7.95 -16.4 Q14.15 -19.3 17.35 -19.75 21.55 -20.3 23.65 -17.45 26.25 -13.95 25.45 -9.3" fill="#ffffff" fill-rule="evenodd" stroke="none"/>
    <path d="M25.45 -9.3 Q24.6 -4.35 20.15 0.2 9.2 11.5 -16.1 14.55 -31.75 15.35 -45.05 8.7 -59.25 1.6 -58.1 -8.7 -57.55 -13.6 -53.95 -13.75 -51.55 -13.85 -45.0 -11.15 -36.6 -7.65 -32.55 -6.6 -24.65 -4.55 -18.1 -5.95 -11.7 -7.3 -4.0 -10.7 L7.95 -16.4 Q14.15 -19.3 17.35 -19.75 21.55 -20.3 23.65 -17.45 26.25 -13.95 25.45 -9.3 Z" fill="none" stroke="#000000" stroke-linecap="round" stroke-linejoin="round" stroke-opacity="0.5019608" stroke-width="2.0"/>
    <path d="M-48.35 -12.45 Q-48.95 -3.45 -46.6 7.55" fill="none" stroke="#000000" stroke-linecap="round" stroke-linejoin="round" stroke-opacity="0.5019608" stroke-width="2.0"/>
    <path d="M-31.35 -6.2 Q-31.6 3.8 -27.85 13.8" fill="none" stroke="#000000" stroke-linecap="round" stroke-linejoin="round" stroke-opacity="0.5019608" stroke-width="2.0"/>
    <path d="M-10.35 -8.45 Q-9.65 3.65 -4.1 11.8" fill="none" stroke="#000000" stroke-linecap="round" stroke-linejoin="round" stroke-opacity="0.5019608" stroke-width="2.0"/>
    <path d="M7.15 -15.95 Q10.05 -4.85 16.9 2.3" fill="none" stroke="#000000" stroke-linecap="round" stroke-linejoin="round" stroke-opacity="0.5019608" stroke-width="2.0"/>
  </g>
</svg>
