<?xml version="1.0" encoding="UTF-8" standalone="no"?>
<svg xmlns:ffdec="https://www.free-decompiler.com/flash" xmlns:xlink="http://www.w3.org/1999/xlink" ffdec:objectType="shape" height="18.55px" width="26.75px" xmlns="http://www.w3.org/2000/svg">
  <g transform="matrix(1.0, 0.0, 0.0, 1.0, 13.4, 9.25)">
    <path d="M0.0 -7.75 Q4.9 -7.75 8.35 -5.5 11.85 -3.2 11.85 0.0 11.85 3.25 8.35 5.5 4.9 7.8 0.0 7.8 -4.9 7.8 -8.4 5.5 -11.9 3.25 -11.9 0.0 -11.9 -3.2 -8.4 -5.5 -4.9 -7.75 0.0 -7.75" fill="#000000" fill-opacity="0.49803922" fill-rule="evenodd" stroke="none"/>
    <path d="M0.0 -7.75 Q4.9 -7.75 8.35 -5.5 11.85 -3.2 11.85 0.0 11.85 3.25 8.35 5.5 4.9 7.8 0.0 7.8 -4.9 7.8 -8.4 5.5 -11.9 3.25 -11.9 0.0 -11.9 -3.2 -8.4 -5.5 -4.9 -7.75 0.0 -7.75 Z" fill="none" stroke="#000000" stroke-linecap="round" stroke-linejoin="round" stroke-opacity="0.49803922" stroke-width="3.0"/>
  </g>
</svg>
