<?xml version="1.0" encoding="UTF-8" standalone="no"?>
<svg xmlns:ffdec="https://www.free-decompiler.com/flash" xmlns:xlink="http://www.w3.org/1999/xlink" ffdec:objectType="shape" height="28.4px" width="49.0px" xmlns="http://www.w3.org/2000/svg">
  <g transform="matrix(1.0, 0.0, 0.0, 1.0, -0.05, 0.0)">
    <path d="M37.3 7.9 L32.1 12.5 32.75 24.85 43.8 18.35 37.3 7.9 M26.55 20.2 L29.9 20.2 29.55 14.2 25.6 16.45 26.55 20.2 M23.8 20.05 L23.15 17.5 Q19.9 18.85 16.85 19.5 L23.8 20.05 M46.15 10.05 L40.55 3.75 39.1 5.8 44.25 14.05 46.15 10.05 M48.65 9.0 Q49.3 9.65 48.85 10.4 L45.9 16.7 46.75 18.1 Q47.05 18.55 46.9 19.1 L46.3 19.9 32.25 28.2 31.35 28.35 30.95 28.2 Q30.25 27.85 30.25 27.15 L30.0 22.75 Q21.6 23.0 8.5 21.1 L1.1 20.0 0.3 19.5 Q0.0 19.05 0.05 18.5 0.15 18.0 0.55 17.65 1.0 17.35 1.5 17.4 17.05 19.6 29.1 11.5 33.1 8.75 36.1 5.25 38.4 2.6 38.8 1.35 38.8 0.5 39.6 0.1 L40.3 0.05 40.3 0.0 40.35 0.05 40.8 0.3 41.1 0.4 48.65 9.0" fill="#000000" fill-opacity="0.49803922" fill-rule="evenodd" stroke="none"/>
  </g>
</svg>
