<?xml version="1.0" encoding="UTF-8" standalone="no"?>
<svg xmlns:ffdec="https://www.free-decompiler.com/flash" xmlns:xlink="http://www.w3.org/1999/xlink" ffdec:objectType="shape" height="17.4px" width="75.55px" xmlns="http://www.w3.org/2000/svg">
  <g transform="matrix(1.0, 0.0, 0.0, 1.0, 32.55, 20.6)">
    <path d="M-22.3 -4.95 Q-24.05 -3.2 -26.55 -3.2 -29.05 -3.2 -30.8 -4.95 -32.55 -6.7 -32.55 -9.2 -32.55 -11.7 -30.8 -13.45 -29.05 -15.2 -26.55 -15.2 -24.05 -15.2 -22.3 -13.45 -20.55 -11.7 -20.55 -9.2 -20.55 -6.7 -22.3 -4.95" fill="#000000" fill-rule="evenodd" stroke="none"/>
    <path d="M40.95 -8.65 Q38.9 -6.6 36.0 -6.6 33.1 -6.6 31.05 -8.65 29.0 -10.7 29.0 -13.6 29.0 -16.5 31.05 -18.55 33.1 -20.6 36.0 -20.6 38.9 -20.6 40.95 -18.55 43.0 -16.5 43.0 -13.6 43.0 -10.7 40.95 -8.65" fill="#000000" fill-rule="evenodd" stroke="none"/>
  </g>
</svg>
