<?xml version="1.0" encoding="UTF-8" standalone="no"?>
<svg xmlns:ffdec="https://www.free-decompiler.com/flash" xmlns:xlink="http://www.w3.org/1999/xlink" ffdec:objectType="shape" height="22.25px" width="73.4px" xmlns="http://www.w3.org/2000/svg">
  <g transform="matrix(1.0, 0.0, 0.0, 1.0, 37.0, -0.85)">
    <path d="M34.85 11.0 Q35.6 15.9 25.7 18.85 15.75 21.8 -1.9 21.6 -19.55 21.4 -27.45 18.9 -35.35 16.35 -35.0 13.1 -36.45 12.45 -33.55 8.45 -30.7 4.35 -19.15 3.7 L5.2 2.45 Q17.95 1.9 26.0 3.9 34.05 5.9 34.8 10.85 L34.85 11.0 Q-0.7 14.45 -35.0 13.1 -0.7 14.45 34.85 11.0" fill="#ffffff" fill-rule="evenodd" stroke="none"/>
    <path d="M34.85 11.0 Q35.6 15.9 25.7 18.85 15.75 21.8 -1.9 21.6 -19.55 21.4 -27.45 18.9 -35.35 16.35 -35.0 13.1 -36.45 12.45 -33.55 8.45 -30.7 4.35 -19.15 3.7 L5.2 2.45 Q17.95 1.9 26.0 3.9 34.05 5.9 34.8 10.85 L34.85 11.0" fill="none" stroke="#000000" stroke-linecap="round" stroke-linejoin="round" stroke-opacity="0.49803922" stroke-width="3.0"/>
    <path d="M34.85 11.0 Q-0.7 14.45 -35.0 13.1" fill="none" stroke="#000000" stroke-linecap="round" stroke-linejoin="round" stroke-opacity="0.29803923" stroke-width="2.0"/>
  </g>
</svg>
