<?xml version="1.0" encoding="UTF-8" standalone="no"?>
<svg xmlns:ffdec="https://www.free-decompiler.com/flash" xmlns:xlink="http://www.w3.org/1999/xlink" ffdec:objectType="shape" height="14.5px" width="75.45px" xmlns="http://www.w3.org/2000/svg">
  <g transform="matrix(1.0, 0.0, 0.0, 1.0, 41.6, 3.75)">
    <path d="M-31.35 6.5 Q-33.1 8.25 -35.6 8.25 -38.1 8.25 -39.85 6.5 -41.6 4.75 -41.6 2.25 -41.6 -0.25 -39.85 -2.0 -38.1 -3.75 -35.6 -3.75 -33.1 -3.75 -31.35 -2.0 -29.6 -0.25 -29.6 2.25 -29.6 4.75 -31.35 6.5" fill="#000000" fill-rule="evenodd" stroke="none"/>
    <path d="M31.8 8.7 Q29.75 10.75 26.85 10.75 23.95 10.75 21.9 8.7 19.85 6.65 19.85 3.75 19.85 0.85 21.9 -1.2 23.95 -3.25 26.85 -3.25 29.75 -3.25 31.8 -1.2 33.85 0.85 33.85 3.75 33.85 6.65 31.8 8.7" fill="#000000" fill-rule="evenodd" stroke="none"/>
  </g>
</svg>
