<?xml version="1.0" encoding="UTF-8" standalone="no"?>
<svg xmlns:ffdec="https://www.free-decompiler.com/flash" xmlns:xlink="http://www.w3.org/1999/xlink" ffdec:objectType="shape" height="14.0px" width="69.7px" xmlns="http://www.w3.org/2000/svg">
  <g transform="matrix(1.0, 0.0, 0.0, 1.0, 34.5, 7.0)">
    <path d="M-24.25 4.75 Q-26.0 6.5 -28.5 6.5 -31.0 6.5 -32.75 4.75 -34.5 3.0 -34.5 0.5 -34.5 -2.0 -32.75 -3.75 -31.0 -5.5 -28.5 -5.5 -26.0 -5.5 -24.25 -3.75 -22.5 -2.0 -22.5 0.5 -22.5 3.0 -24.25 4.75" fill="#000000" fill-rule="evenodd" stroke="none"/>
    <path d="M33.15 4.95 Q31.1 7.0 28.2 7.0 25.3 7.0 23.25 4.95 21.2 2.9 21.2 0.0 21.2 -2.9 23.25 -4.95 25.3 -7.0 28.2 -7.0 31.1 -7.0 33.15 -4.95 35.2 -2.9 35.2 0.0 35.2 2.9 33.15 4.95" fill="#000000" fill-rule="evenodd" stroke="none"/>
  </g>
</svg>
