<?xml version="1.0" encoding="UTF-8" standalone="no"?>
<svg xmlns:ffdec="https://www.free-decompiler.com/flash" xmlns:xlink="http://www.w3.org/1999/xlink" ffdec:objectType="shape" height="14.3px" width="84.95px" xmlns="http://www.w3.org/2000/svg">
  <g transform="matrix(1.0, 0.0, 0.0, 1.0, 24.4, 6.7)">
    <path d="M-14.15 3.55 Q-15.9 5.3 -18.4 5.3 -20.9 5.3 -22.65 3.55 -24.4 1.8 -24.4 -0.7 -24.4 -3.2 -22.65 -4.95 -20.9 -6.7 -18.4 -6.7 -15.9 -6.7 -14.15 -4.95 -12.4 -3.2 -12.4 -0.7 -12.4 1.8 -14.15 3.55" fill="#000000" fill-rule="evenodd" stroke="none"/>
    <path d="M58.5 5.55 Q56.45 7.6 53.55 7.6 50.65 7.6 48.6 5.55 46.55 3.5 46.55 0.6 46.55 -2.3 48.6 -4.35 50.65 -6.4 53.55 -6.4 56.45 -6.4 58.5 -4.35 60.55 -2.3 60.55 0.6 60.55 3.5 58.5 5.55" fill="#000000" fill-rule="evenodd" stroke="none"/>
  </g>
</svg>
