<?xml version="1.0" encoding="UTF-8" standalone="no"?>
<svg xmlns:ffdec="https://www.free-decompiler.com/flash" xmlns:xlink="http://www.w3.org/1999/xlink" ffdec:objectType="shape" height="14.3px" width="86.45px" xmlns="http://www.w3.org/2000/svg">
  <g transform="matrix(1.0, 0.0, 0.0, 1.0, 21.4, 6.7)">
    <path d="M-11.15 3.55 Q-12.9 5.3 -15.4 5.3 -17.9 5.3 -19.65 3.55 -21.4 1.8 -21.4 -0.7 -21.4 -3.2 -19.65 -4.95 -17.9 -6.7 -15.4 -6.7 -12.9 -6.7 -11.15 -4.95 -9.4 -3.2 -9.4 -0.7 -9.4 1.8 -11.15 3.55" fill="#000000" fill-rule="evenodd" stroke="none"/>
    <path d="M63.0 5.55 Q60.95 7.6 58.05 7.6 55.15 7.6 53.1 5.55 51.05 3.5 51.05 0.6 51.05 -2.3 53.1 -4.35 55.15 -6.4 58.05 -6.4 60.95 -6.4 63.0 -4.35 65.05 -2.3 65.05 0.6 65.05 3.5 63.0 5.55" fill="#000000" fill-rule="evenodd" stroke="none"/>
  </g>
</svg>
