<?xml version="1.0" encoding="UTF-8" standalone="no"?>
<svg xmlns:ffdec="https://www.free-decompiler.com/flash" xmlns:xlink="http://www.w3.org/1999/xlink" ffdec:objectType="shape" height="14.3px" width="72.05px" xmlns="http://www.w3.org/2000/svg">
  <g transform="matrix(1.0, 0.0, 0.0, 1.0, 33.2, 3.2)">
    <path d="M-22.95 7.05 Q-24.7 8.8 -27.2 8.8 -29.7 8.8 -31.45 7.05 -33.2 5.3 -33.2 2.8 -33.2 0.3 -31.45 -1.45 -29.7 -3.2 -27.2 -3.2 -24.7 -3.2 -22.95 -1.45 -21.2 0.3 -21.2 2.8 -21.2 5.3 -22.95 7.05" fill="#000000" fill-rule="evenodd" stroke="none"/>
    <path d="M36.8 9.05 Q34.75 11.1 31.85 11.1 28.95 11.1 26.9 9.05 24.85 7.0 24.85 4.1 24.85 1.2 26.9 -0.85 28.95 -2.9 31.85 -2.9 34.75 -2.9 36.8 -0.85 38.85 1.2 38.85 4.1 38.85 7.0 36.8 9.05" fill="#000000" fill-rule="evenodd" stroke="none"/>
  </g>
</svg>
