<?xml version="1.0" encoding="UTF-8" standalone="no"?>
<svg xmlns:ffdec="https://www.free-decompiler.com/flash" xmlns:xlink="http://www.w3.org/1999/xlink" ffdec:objectType="shape" height="14.6px" width="78.0px" xmlns="http://www.w3.org/2000/svg">
  <g transform="matrix(1.0, 0.0, 0.0, 1.0, 29.8, -4.25)">
    <path d="M-19.55 14.5 Q-21.3 16.25 -23.8 16.25 -26.3 16.25 -28.05 14.5 -29.8 12.75 -29.8 10.25 -29.8 7.75 -28.05 6.0 -26.3 4.25 -23.8 4.25 -21.3 4.25 -19.55 6.0 -17.8 7.75 -17.8 10.25 -17.8 12.75 -19.55 14.5" fill="#000000" fill-rule="evenodd" stroke="none"/>
    <path d="M46.15 16.8 Q44.1 18.85 41.2 18.85 38.3 18.85 36.25 16.8 34.2 14.75 34.2 11.85 34.2 8.95 36.25 6.9 38.3 4.85 41.2 4.85 44.1 4.85 46.15 6.9 48.2 8.95 48.2 11.85 48.2 14.75 46.15 16.8" fill="#000000" fill-rule="evenodd" stroke="none"/>
  </g>
</svg>
