<?xml version="1.0" encoding="UTF-8" standalone="no"?>
<svg xmlns:ffdec="https://www.free-decompiler.com/flash" xmlns:xlink="http://www.w3.org/1999/xlink" ffdec:objectType="shape" height="14.0px" width="73.2px" xmlns="http://www.w3.org/2000/svg">
  <g transform="matrix(1.0, 0.0, 0.0, 1.0, 27.5, 1.0)">
    <path d="M-17.25 10.75 Q-19.0 12.5 -21.5 12.5 -24.0 12.5 -25.75 10.75 -27.5 9.0 -27.5 6.5 -27.5 4.0 -25.75 2.25 -24.0 0.5 -21.5 0.5 -19.0 0.5 -17.25 2.25 -15.5 4.0 -15.5 6.5 -15.5 9.0 -17.25 10.75" fill="#000000" fill-rule="evenodd" stroke="none"/>
    <path d="M43.65 10.95 Q41.6 13.0 38.7 13.0 35.8 13.0 33.75 10.95 31.7 8.9 31.7 6.0 31.7 3.1 33.75 1.05 35.8 -1.0 38.7 -1.0 41.6 -1.0 43.65 1.05 45.7 3.1 45.7 6.0 45.7 8.9 43.65 10.95" fill="#000000" fill-rule="evenodd" stroke="none"/>
  </g>
</svg>
