<?xml version="1.0" encoding="UTF-8" standalone="no"?>
<svg xmlns:ffdec="https://www.free-decompiler.com/flash" xmlns:xlink="http://www.w3.org/1999/xlink" ffdec:objectType="shape" height="25.15px" width="70.35px" xmlns="http://www.w3.org/2000/svg">
  <g transform="matrix(1.0, 0.0, 0.0, 1.0, 35.2, 1.5)">
    <path d="M33.3 6.55 Q35.4 15.25 24.6 18.15 13.75 21.05 1.35 21.95 -11.05 22.8 -22.85 20.35 -34.65 17.9 -33.6 12.0 -32.55 6.1 -27.45 4.85 -22.35 3.6 -14.65 3.6 -6.95 3.55 12.05 0.7 31.1 -2.2 33.3 6.55" fill="#000000" fill-opacity="0.49803922" fill-rule="evenodd" stroke="none"/>
    <path d="M33.3 6.55 Q35.4 15.25 24.6 18.15 13.75 21.05 1.35 21.95 -11.05 22.8 -22.85 20.35 -34.65 17.9 -33.6 12.0 -32.55 6.1 -27.45 4.85 -22.35 3.6 -14.65 3.6 -6.95 3.55 12.05 0.7 31.1 -2.2 33.3 6.55 Z" fill="none" stroke="#000000" stroke-linecap="round" stroke-linejoin="round" stroke-opacity="0.49803922" stroke-width="3.0"/>
  </g>
</svg>
