<?xml version="1.0" encoding="UTF-8" standalone="no"?>
<svg xmlns:ffdec="https://www.free-decompiler.com/flash" xmlns:xlink="http://www.w3.org/1999/xlink" ffdec:objectType="shape" height="53.4px" width="115.15px" xmlns="http://www.w3.org/2000/svg">
  <g transform="matrix(1.0, 0.0, 0.0, 1.0, 57.85, 26.8)">
    <path d="M-24.8 -12.85 Q-19.15 -6.45 -19.15 2.55 -19.15 11.6 -24.8 17.95 L-24.8 17.9 Q-30.45 24.3 -38.4 24.3 -46.3 24.3 -52.0 17.95 L-52.0 17.9 -52.75 17.0 -52.95 16.75 Q-57.6 10.75 -57.6 2.55 -57.6 -6.45 -52.0 -12.85 -46.3 -19.2 -38.4 -19.2 -30.45 -19.2 -24.8 -12.85" fill="#e0da86" fill-rule="evenodd" stroke="none"/>
    <path d="M-52.75 17.0 L-52.95 16.75 Q-54.7 14.5 -55.8 11.95 -50.65 16.55 -43.9 16.55 -35.95 16.55 -30.3 10.15 L-30.3 10.2 Q-24.65 3.85 -24.65 -5.2 -24.65 -10.25 -26.45 -14.5 L-24.8 -12.85 Q-19.15 -6.45 -19.15 2.55 -19.15 11.6 -24.8 17.95 L-24.8 17.9 Q-30.45 24.3 -38.4 24.3 -46.3 24.3 -52.0 17.95 L-52.0 17.9 -52.75 17.0" fill="#000000" fill-opacity="0.08627451" fill-rule="evenodd" stroke="none"/>
    <path d="M48.2 -18.85 Q57.25 -11.05 57.25 -0.1 57.25 10.9 48.2 18.65 L48.2 18.6 Q39.15 26.4 26.4 26.4 13.7 26.4 4.6 18.65 L4.6 18.6 3.4 17.5 3.05 17.2 Q-4.4 9.9 -4.4 -0.1 -4.4 -11.05 4.6 -18.85 13.7 -26.6 26.4 -26.6 39.15 -26.6 48.2 -18.85" fill="#e0da86" fill-rule="evenodd" stroke="none"/>
    <path d="M34.1 -19.0 Q39.15 -15.6 39.15 -10.25 39.15 -4.9 34.1 -0.7 29.05 3.55 21.9 4.1 14.8 4.65 9.7 1.3 L9.0 0.75 8.85 0.65 Q4.65 -2.55 4.65 -7.45 4.65 -12.8 9.7 -17.0 14.8 -21.25 21.9 -21.8 29.05 -22.35 34.1 -19.0" fill="#e6e1a1" fill-rule="evenodd" stroke="none"/>
    <path d="M40.45 9.35 L40.45 9.4 Q49.5 1.65 49.5 -9.35 49.5 -14.95 47.15 -19.7 L48.2 -18.85 Q57.25 -11.05 57.25 -0.1 57.25 10.9 48.2 18.65 L48.2 18.6 Q39.15 26.4 26.4 26.4 13.7 26.4 4.6 18.65 L4.6 18.6 3.4 17.5 3.05 17.2 Q-0.2 14.0 -2.0 10.3 6.7 17.15 18.65 17.15 31.4 17.15 40.45 9.35" fill="#000000" fill-opacity="0.08627451" fill-rule="evenodd" stroke="none"/>
    <path d="M47.55 -18.3 Q38.75 -25.8 26.4 -25.8 14.1 -25.8 5.25 -18.3 -3.45 -10.75 -3.45 -0.1 -3.45 9.6 3.75 16.65 L4.1 16.95 5.25 18.05 5.25 18.1 Q14.1 25.6 26.4 25.6 38.75 25.6 47.55 18.05 L47.55 18.1 Q56.3 10.6 56.3 -0.1 56.3 -10.75 47.55 -18.3 Z" fill="none" stroke="#66643f" stroke-linecap="round" stroke-linejoin="round" stroke-width="2.0"/>
    <path d="M-25.35 -12.25 Q-30.75 -18.35 -38.4 -18.35 -46.0 -18.35 -51.45 -12.25 -56.85 -6.1 -56.85 2.55 -56.85 10.45 -52.4 16.15 L-52.2 16.4 -51.45 17.3 -51.45 17.35 Q-46.0 23.45 -38.4 23.45 -30.75 23.45 -25.35 17.3 L-25.35 17.35 Q-19.95 11.25 -19.95 2.55 -19.95 -6.1 -25.35 -12.25 Z" fill="none" stroke="#66643f" stroke-linecap="round" stroke-linejoin="round" stroke-width="2.0"/>
    <path d="M-34.4 -12.05 Q-32.0 -9.4 -32.3 -5.65 -32.6 -1.9 -35.5 0.75 -38.4 3.4 -42.2 3.4 -45.95 3.4 -48.5 0.75 L-48.8 0.35 -48.9 0.25 Q-50.9 -2.25 -50.6 -5.65 -50.3 -9.4 -47.4 -12.05 -44.45 -14.7 -40.7 -14.7 -36.9 -14.7 -34.4 -12.05" fill="#e6e1a1" fill-rule="evenodd" stroke="none"/>
    <path d="M25.55 24.05 Q23.35 22.35 21.5 19.35 L21.0 18.5 21.0 18.55 Q18.65 14.35 17.7 9.25 16.8 4.85 16.95 -0.2 17.05 -3.4 17.6 -6.35 18.7 -13.0 21.7 -18.25 L22.1 -18.95 Q24.0 -22.0 26.15 -23.85" fill="none" stroke="#b0ae5b" stroke-linecap="round" stroke-linejoin="round" stroke-width="1.5"/>
    <path d="M25.95 -18.05 L21.45 -17.85 17.4 -17.4" fill="none" stroke="#b0ae5b" stroke-linecap="round" stroke-linejoin="round" stroke-width="1.5"/>
    <path d="M22.05 -6.2 L17.15 -6.35 12.6 -5.85" fill="none" stroke="#b0ae5b" stroke-linecap="round" stroke-linejoin="round" stroke-width="1.5"/>
    <path d="M22.65 9.3 Q19.8 9.5 17.3 9.25 14.75 9.0 12.4 8.35" fill="none" stroke="#b0ae5b" stroke-linecap="round" stroke-linejoin="round" stroke-width="1.5"/>
    <path d="M26.6 19.7 Q24.45 19.95 21.85 19.75 L17.1 18.95" fill="none" stroke="#b0ae5b" stroke-linecap="round" stroke-linejoin="round" stroke-width="1.5"/>
    <path d="M-39.4 21.8 Q-40.5 20.3 -41.4 18.35 -45.75 10.3 -44.45 -1.1 -43.3 -10.0 -39.3 -16.9" fill="none" stroke="#b0ae5b" stroke-linecap="round" stroke-linejoin="round" stroke-width="1.5"/>
    <path d="M-38.4 -10.45 Q-42.85 -10.4 -46.2 -9.25" fill="none" stroke="#b0ae5b" stroke-linecap="round" stroke-linejoin="round" stroke-width="1.5"/>
    <path d="M-40.95 4.0 L-48.75 3.5" fill="none" stroke="#b0ae5b" stroke-linecap="round" stroke-linejoin="round" stroke-width="1.5"/>
    <path d="M-38.05 17.1 Q-41.1 17.6 -45.75 16.55" fill="none" stroke="#b0ae5b" stroke-linecap="round" stroke-linejoin="round" stroke-width="1.5"/>
  </g>
</svg>
