<?xml version="1.0" encoding="UTF-8" standalone="no"?>
<svg xmlns:ffdec="https://www.free-decompiler.com/flash" xmlns:xlink="http://www.w3.org/1999/xlink" ffdec:objectType="shape" height="53.65px" width="115.4px" xmlns="http://www.w3.org/2000/svg">
  <g transform="matrix(1.0, 0.0, 0.0, 1.0, 58.1, 26.8)">
    <path d="M-24.8 -12.85 Q-19.15 -6.45 -19.15 2.55 -19.15 11.6 -24.8 17.95 L-24.8 17.9 Q-30.45 24.3 -38.4 24.3 -46.3 24.3 -52.0 17.95 L-52.0 17.9 -52.75 17.0 -52.95 16.75 Q-57.6 10.75 -57.6 2.55 -57.6 -6.45 -52.0 -12.85 -46.3 -19.2 -38.4 -19.2 -30.45 -19.2 -24.8 -12.85" fill="#fee5a6" fill-rule="evenodd" stroke="none"/>
    <path d="M48.2 -18.85 Q57.25 -11.05 57.25 -0.1 57.25 10.9 48.2 18.65 L48.2 18.6 Q39.15 26.4 26.4 26.4 13.7 26.4 4.6 18.65 L4.6 18.6 3.4 17.5 3.05 17.2 Q-4.4 9.9 -4.4 -0.1 -4.4 -11.05 4.6 -18.85 13.7 -26.6 26.4 -26.6 39.15 -26.6 48.2 -18.85" fill="#fee5a6" fill-rule="evenodd" stroke="none"/>
    <path d="M47.55 -18.3 Q38.75 -25.8 26.4 -25.8 14.1 -25.8 5.25 -18.3 -3.45 -10.75 -3.45 -0.1 -3.45 9.6 3.75 16.65 L4.1 16.95 5.25 18.05 5.25 18.1 Q14.1 25.6 26.4 25.6 38.75 25.6 47.55 18.05 L47.55 18.1 Q56.3 10.6 56.3 -0.1 56.3 -10.75 47.55 -18.3 Z" fill="none" stroke="#5b513b" stroke-linecap="round" stroke-linejoin="round" stroke-width="2.0"/>
    <path d="M-25.35 -12.25 Q-30.75 -18.35 -38.4 -18.35 -46.0 -18.35 -51.45 -12.25 -56.85 -6.1 -56.85 2.55 -56.85 10.45 -52.4 16.15 L-52.2 16.4 -51.45 17.3 -51.45 17.35 Q-46.0 23.45 -38.4 23.45 -30.75 23.45 -25.35 17.3 L-25.35 17.35 Q-19.95 11.25 -19.95 2.55 -19.95 -6.1 -25.35 -12.25 Z" fill="none" stroke="#5b513b" stroke-linecap="round" stroke-linejoin="round" stroke-width="2.0"/>
    <path d="M-45.3 -5.25 Q-43.15 -4.8 -42.45 -3.25 -41.45 -1.55 -41.9 -0.1 -42.3 1.85 -43.75 2.7 -45.0 3.7 -47.15 3.4 -49.15 3.0 -49.85 1.45 -50.85 -0.25 -50.4 -1.95 -49.85 -3.65 -48.55 -4.65 -46.7 -5.5 -45.3 -5.25" fill="#000000" fill-rule="evenodd" stroke="none"/>
    <path d="M34.15 17.9 Q45.8 17.9 54.45 11.4 52.45 15.35 48.35 19.05 39.1 26.85 26.35 26.85 13.15 26.85 4.35 19.05 -4.85 11.1 -4.85 0.05 -4.85 -11.0 4.35 -19.1 L5.8 -20.25 Q2.95 -14.85 2.95 -9.05 2.95 2.2 12.2 10.1 20.95 17.9 34.15 17.9" fill="#000000" fill-opacity="0.09803922" fill-rule="evenodd" stroke="none"/>
    <path d="M38.1 -5.4 Q39.25 -3.3 38.7 -1.55 38.25 0.55 36.55 1.55 34.55 2.8 32.75 2.1 30.75 1.7 29.75 -0.15 28.35 -1.7 29.05 -3.85 29.75 -5.95 31.3 -6.95 33.15 -8.1 35.0 -7.55 37.15 -6.8 38.1 -5.4" fill="#000000" fill-rule="evenodd" stroke="none"/>
    <path d="M-20.65 -6.35 Q-19.5 -2.25 -19.5 1.75 -19.5 10.95 -25.05 17.35 -30.85 23.85 -38.65 23.85 -46.6 23.85 -52.3 17.35 -58.1 11.1 -58.1 1.75 -57.95 0.75 -57.95 -0.4 -56.7 3.75 -53.4 7.3 -47.9 13.65 -39.8 13.65 -31.85 13.65 -26.2 7.3 -21.2 1.6 -20.65 -6.35" fill="#000000" fill-opacity="0.09803922" fill-rule="evenodd" stroke="none"/>
  </g>
</svg>
