<?xml version="1.0" encoding="UTF-8" standalone="no"?>
<svg xmlns:ffdec="https://www.free-decompiler.com/flash" xmlns:xlink="http://www.w3.org/1999/xlink" ffdec:objectType="shape" height="36.3px" width="86.8px" xmlns="http://www.w3.org/2000/svg">
  <g transform="matrix(1.0, 0.0, 0.0, 1.0, 43.0, -0.9)">
    <path d="M39.6 9.15 Q45.7 17.1 37.9 24.85 30.05 32.6 15.55 34.65 1.05 36.65 -14.4 34.75 -29.9 32.8 -36.85 27.6 -43.85 22.35 -40.3 13.95 -36.75 5.55 -19.3 4.8 L15.85 2.6 Q33.5 1.15 39.6 9.15" fill="#000000" fill-opacity="0.49803922" fill-rule="evenodd" stroke="none"/>
    <path d="M39.6 9.15 Q45.7 17.1 37.9 24.85 30.05 32.6 15.55 34.65 1.05 36.65 -14.4 34.75 -29.9 32.8 -36.85 27.6 -43.85 22.35 -40.3 13.95 -36.75 5.55 -19.3 4.8 L15.85 2.6 Q33.5 1.15 39.6 9.15 Z" fill="none" stroke="#000000" stroke-linecap="round" stroke-linejoin="round" stroke-opacity="0.49803922" stroke-width="3.0"/>
    <path d="M30.7 27.15 Q26.7 31.95 7.2 33.7 -5.95 29.85 -10.8 20.9 -15.65 11.95 3.15 18.25 21.95 24.5 25.75 25.4 29.5 26.25 30.7 27.15" fill="#ec4646" fill-rule="evenodd" stroke="none"/>
    <path d="M38.15 10.65 Q1.85 19.45 -39.15 15.3 -36.05 6.9 -18.25 6.05 L15.8 4.2 Q32.0 3.25 38.15 10.65" fill="#ffffff" fill-rule="evenodd" stroke="none"/>
  </g>
</svg>
