<?xml version="1.0" encoding="UTF-8" standalone="no"?>
<svg xmlns:ffdec="https://www.free-decompiler.com/flash" xmlns:xlink="http://www.w3.org/1999/xlink" ffdec:objectType="shape" height="41.35px" width="86.3px" xmlns="http://www.w3.org/2000/svg">
  <g transform="matrix(1.0, 0.0, 0.0, 1.0, 39.95, 16.5)">
    <path d="M34.5 -4.75 Q45.75 6.4 44.8 14.75 43.85 23.0 31.1 22.15 18.45 21.3 1.65 21.55 L-25.1 23.15 Q-35.05 24.35 -37.45 18.75 -39.85 13.1 -36.45 5.7 -33.0 -1.75 -24.95 -7.85 -16.95 -13.9 3.15 -14.9 23.2 -16.0 34.5 -4.75" fill="#000000" fill-opacity="0.49803922" fill-rule="evenodd" stroke="none"/>
    <path d="M34.5 -4.75 Q45.75 6.4 44.8 14.75 43.85 23.0 31.1 22.15 18.45 21.3 1.65 21.55 L-25.1 23.15 Q-35.05 24.35 -37.45 18.75 -39.85 13.1 -36.45 5.7 -33.0 -1.75 -24.95 -7.85 -16.95 -13.9 3.15 -14.9 23.2 -16.0 34.5 -4.75 Z" fill="none" stroke="#000000" stroke-linecap="round" stroke-linejoin="round" stroke-opacity="0.49803922" stroke-width="3.0"/>
    <path d="M28.75 15.15 Q31.1 18.6 31.7 20.6 19.65 19.6 2.9 19.9 3.9 16.1 7.3 12.65 10.7 9.2 18.55 10.4 26.35 11.65 28.75 15.15" fill="#ec4646" fill-rule="evenodd" stroke="none"/>
  </g>
</svg>
