<?xml version="1.0" encoding="UTF-8" standalone="no"?>
<svg xmlns:ffdec="https://www.free-decompiler.com/flash" xmlns:xlink="http://www.w3.org/1999/xlink" ffdec:objectType="shape" height="33.5px" width="101.55px" xmlns="http://www.w3.org/2000/svg">
  <g transform="matrix(1.0, 0.0, 0.0, 1.0, 64.25, 22.15)">
    <path d="M17.85 8.75 L19.35 9.3 22.05 9.95 23.85 10.0 26.75 9.6 Q30.1 8.8 32.7 6.05 34.9 3.7 35.8 0.9 36.35 -1.05 36.3 -3.15 36.15 -8.4 31.1 -11.3 L27.9 -12.95 Q24.5 -14.75 21.25 -16.1 18.15 -17.35 9.4 -18.75 L4.85 -19.45 -3.0 -20.4 -13.75 -21.1 Q-24.85 -21.35 -33.9 -19.15 L-36.35 -18.5 Q-46.85 -15.5 -50.7 -13.95 L-52.5 -13.15 -53.35 -12.55 -58.95 -8.75 Q-63.4 -5.8 -63.25 -1.05 -63.2 0.7 -62.75 2.2 -61.75 5.0 -59.2 7.2 -55.25 10.5 -49.65 10.35 L-45.7 9.7 -44.55 9.25 -43.75 9.05 -43.0 8.8 Q-35.95 6.65 -28.7 5.55 -21.15 4.4 -13.4 4.4 -5.2 4.4 3.25 5.7 10.5 6.75 17.85 8.75 M-14.2 -7.65 Q-14.1 -1.5 -13.4 4.4 -14.1 -1.5 -14.2 -7.65 L-13.55 -7.65 6.45 -6.6 3.25 5.7 6.45 -6.6 -13.55 -7.65 -14.2 -7.65 Q-14.35 -14.25 -13.75 -21.1 -14.35 -14.25 -14.2 -7.65 L-31.2 -6.15 -33.9 -19.15 -31.2 -6.15 -14.2 -7.65 M-50.7 -13.95 L-47.6 -2.6 Q-55.15 -0.6 -62.75 2.2 -55.15 -0.6 -47.6 -2.6 L-50.7 -13.95 M-28.7 5.55 L-31.2 -6.15 Q-39.35 -4.8 -47.6 -2.6 L-44.55 9.25 -47.6 -2.6 Q-39.35 -4.8 -31.2 -6.15 L-28.7 5.55 M9.4 -18.75 L6.45 -6.6 Q15.25 -5.45 24.05 -3.0 L19.35 9.3 24.05 -3.0 Q15.25 -5.45 6.45 -6.6 L9.4 -18.75 M27.9 -12.95 L24.05 -3.0 33.3 -0.05 35.8 0.9 33.3 -0.05 24.05 -3.0 27.9 -12.95" fill="#ffffff" fill-rule="evenodd" stroke="none"/>
    <path d="M17.85 8.75 L19.35 9.3 22.05 9.95 23.85 10.0 26.75 9.6 Q30.1 8.8 32.7 6.05 34.9 3.7 35.8 0.9 36.35 -1.05 36.3 -3.15 36.15 -8.4 31.1 -11.3 L27.9 -12.95 Q24.5 -14.75 21.25 -16.1 18.15 -17.35 9.4 -18.75 L4.85 -19.45 -3.0 -20.4 -13.75 -21.1 Q-24.85 -21.35 -33.9 -19.15 L-36.35 -18.5 Q-46.85 -15.5 -50.7 -13.95 L-52.5 -13.15 -53.35 -12.55 -58.95 -8.75 Q-63.4 -5.8 -63.25 -1.05 -63.2 0.7 -62.75 2.2 -61.75 5.0 -59.2 7.2 -55.25 10.5 -49.65 10.35 L-45.7 9.7 -44.55 9.25 -43.75 9.05 -43.0 8.8 Q-35.95 6.65 -28.7 5.55 -21.15 4.4 -13.4 4.4 -5.2 4.4 3.25 5.7 10.5 6.75 17.85 8.75 M35.8 0.9 L33.3 -0.05 24.05 -3.0 27.9 -12.95 M19.35 9.3 L24.05 -3.0 Q15.25 -5.45 6.45 -6.6 L9.4 -18.75 M3.25 5.7 L6.45 -6.6 -13.55 -7.65 -14.2 -7.65 Q-14.35 -14.25 -13.75 -21.1 M-44.55 9.25 L-47.6 -2.6 Q-39.35 -4.8 -31.2 -6.15 L-28.7 5.55 M-62.75 2.2 Q-55.15 -0.6 -47.6 -2.6 L-50.7 -13.95 M-14.2 -7.65 L-31.2 -6.15 -33.9 -19.15 M-13.4 4.4 Q-14.1 -1.5 -14.2 -7.65" fill="none" stroke="#000000" stroke-linecap="round" stroke-linejoin="round" stroke-opacity="0.49803922" stroke-width="2.0"/>
  </g>
</svg>
