<?xml version="1.0" encoding="UTF-8" standalone="no"?>
<svg xmlns:ffdec="https://www.free-decompiler.com/flash" xmlns:xlink="http://www.w3.org/1999/xlink" ffdec:objectType="shape" height="12.0px" width="47.1px" xmlns="http://www.w3.org/2000/svg">
  <g transform="matrix(1.0, 0.0, 0.0, 1.0, 37.55, 9.05)">
    <path d="M-7.8 -7.05 Q-2.15 -5.7 3.25 -2.7 8.7 0.25 7.35 1.5 6.05 2.7 -6.15 0.75 -18.3 -1.25 -25.55 0.6 -32.8 2.4 -35.55 1.65 -38.25 0.85 -33.65 -3.3 -29.05 -7.45 -21.25 -7.9 -13.4 -8.4 -7.8 -7.05" fill="#000000" fill-opacity="0.49803922" fill-rule="evenodd" stroke="none"/>
    <path d="M-7.8 -7.05 Q-2.15 -5.7 3.25 -2.7 8.7 0.25 7.35 1.5 6.05 2.7 -6.15 0.75 -18.3 -1.25 -25.55 0.6 -32.8 2.4 -35.55 1.65 -38.25 0.85 -33.65 -3.3 -29.05 -7.45 -21.25 -7.9 -13.4 -8.4 -7.8 -7.05 Z" fill="none" stroke="#000000" stroke-linecap="round" stroke-linejoin="miter-clip" stroke-miterlimit="3.0" stroke-opacity="0.49803922" stroke-width="2.0"/>
  </g>
</svg>
