<?xml version="1.0" encoding="UTF-8" standalone="no"?>
<svg xmlns:ffdec="https://www.free-decompiler.com/flash" xmlns:xlink="http://www.w3.org/1999/xlink" ffdec:objectType="shape" height="22.2px" width="58.55px" xmlns="http://www.w3.org/2000/svg">
  <g transform="matrix(1.0, 0.0, 0.0, 1.0, 45.55, 11.45)">
    <path d="M-44.55 3.8 Q-41.0 1.5 -34.4 -0.35 -30.65 -1.4 -25.9 -1.4 L-10.35 -0.4 Q0.35 0.6 3.95 1.65 7.6 2.65 12.0 5.9" fill="none" stroke="#000000" stroke-linecap="round" stroke-linejoin="miter-clip" stroke-miterlimit="4.0" stroke-opacity="0.29803923" stroke-width="2.0"/>
    <path d="M-30.65 -10.05 Q-26.45 -10.95 -21.7 -5.9 -16.45 -11.35 -12.65 -10.3 -8.8 -9.3 -3.85 -5.35 0.6 -1.8 2.65 1.2 L0.2 0.7 0.85 0.85 Q0.45 3.3 -4.85 6.6 -10.05 9.85 -19.85 9.75 -29.5 9.75 -32.45 6.15 -35.15 2.75 -35.5 -0.55 L-38.1 -0.25 Q-37.2 -4.3 -36.1 -6.55 -34.85 -9.15 -30.65 -10.05" fill="#000000" fill-opacity="0.4" fill-rule="evenodd" stroke="none"/>
    <path d="M-30.65 -10.05 Q-34.85 -9.15 -36.1 -6.55 -37.2 -4.3 -38.1 -0.25 L-35.5 -0.55 Q-35.15 2.75 -32.45 6.15 -29.5 9.75 -19.85 9.75 -10.05 9.85 -4.85 6.6 0.45 3.3 0.85 0.85 L0.2 0.7 2.65 1.2 Q0.6 -1.8 -3.85 -5.35 -8.8 -9.3 -12.65 -10.3 -16.45 -11.35 -21.7 -5.9 -26.45 -10.95 -30.65 -10.05 Z" fill="none" stroke="#000000" stroke-linecap="round" stroke-linejoin="round" stroke-opacity="0.29803923" stroke-width="2.0"/>
  </g>
</svg>
