<?xml version="1.0" encoding="UTF-8" standalone="no"?>
<svg xmlns:ffdec="https://www.free-decompiler.com/flash" xmlns:xlink="http://www.w3.org/1999/xlink" ffdec:objectType="shape" height="22.2px" width="58.55px" xmlns="http://www.w3.org/2000/svg">
  <g transform="matrix(1.0, 0.0, 0.0, 1.0, 45.05, 10.45)">
    <path d="M-35.6 -5.55 Q-34.35 -8.15 -30.15 -9.05 -25.95 -9.95 -21.2 -4.9 -15.95 -10.35 -12.15 -9.3 -8.3 -8.3 -3.35 -4.35 1.1 -0.8 3.15 2.2 L0.7 1.7 1.35 1.85 Q0.95 4.3 -4.35 7.6 -9.55 10.85 -19.35 10.75 -29.0 10.75 -31.95 7.15 -34.65 3.75 -35.0 0.45 L-37.6 0.75 Q-36.7 -3.3 -35.6 -5.55" fill="#ff99cc" fill-rule="evenodd" stroke="none"/>
    <path d="M-35.6 -5.55 Q-36.7 -3.3 -37.6 0.75 L-35.0 0.45 Q-34.65 3.75 -31.95 7.15 -29.0 10.75 -19.35 10.75 -9.55 10.85 -4.35 7.6 0.95 4.3 1.35 1.85 L0.7 1.7 3.15 2.2 Q1.1 -0.8 -3.35 -4.35 -8.3 -8.3 -12.15 -9.3 -15.95 -10.35 -21.2 -4.9 -25.95 -9.95 -30.15 -9.05 -34.35 -8.15 -35.6 -5.55 Z" fill="none" stroke="#000000" stroke-linecap="round" stroke-linejoin="round" stroke-opacity="0.4" stroke-width="2.0"/>
    <path d="M-44.05 4.8 Q-40.5 2.5 -33.9 0.65 -30.15 -0.4 -25.4 -0.4 L-9.85 0.6 Q0.85 1.6 4.45 2.65 8.1 3.65 12.5 6.9" fill="none" stroke="#000000" stroke-linecap="round" stroke-linejoin="miter-clip" stroke-miterlimit="4.0" stroke-opacity="0.4" stroke-width="2.0"/>
  </g>
</svg>
