<?xml version="1.0" encoding="UTF-8" standalone="no"?>
<svg xmlns:ffdec="https://www.free-decompiler.com/flash" xmlns:xlink="http://www.w3.org/1999/xlink" ffdec:objectType="shape" height="31.45px" width="89.05px" xmlns="http://www.w3.org/2000/svg">
  <g transform="matrix(1.0, 0.0, 0.0, 1.0, 56.65, 13.95)">
    <path d="M15.0 -12.85 Q25.0 -13.7 29.2 -5.55 33.4 2.65 29.65 6.25 25.95 9.9 14.95 10.45 3.95 10.85 -6.65 8.85 -17.25 6.75 -28.45 7.2 -39.65 7.6 -47.8 10.45 -44.5 2.6 -50.65 -9.3 L-40.4 -7.25 Q-33.85 -6.05 -24.15 -5.65 -14.4 -5.3 -4.75 -8.6 4.95 -11.95 15.0 -12.85" fill="#ffffff" fill-rule="evenodd" stroke="none"/>
    <path d="M15.0 -12.85 Q4.95 -11.95 -4.75 -8.6 -14.4 -5.3 -24.15 -5.65 -33.85 -6.05 -40.4 -7.25 L-50.65 -9.3 Q-44.5 2.6 -47.8 10.45 -39.65 7.6 -28.45 7.2 -17.25 6.75 -6.65 8.85 3.95 10.85 14.95 10.45 25.95 9.9 29.65 6.25 33.4 2.65 29.2 -5.55 25.0 -13.7 15.0 -12.85 M-50.65 -9.3 Q-54.0 -10.0 -55.65 -8.7" fill="none" stroke="#000000" stroke-linecap="round" stroke-linejoin="round" stroke-opacity="0.49803922" stroke-width="2.0"/>
    <path d="M-37.3 -5.5 Q-35.95 0.8 -36.85 7.05" fill="none" stroke="#000000" stroke-linecap="round" stroke-linejoin="round" stroke-opacity="0.49803922" stroke-width="2.0"/>
    <path d="M-19.45 -4.55 Q-18.5 0.9 -19.15 6.3" fill="none" stroke="#000000" stroke-linecap="round" stroke-linejoin="round" stroke-opacity="0.49803922" stroke-width="2.0"/>
    <path d="M-2.0 -8.4 Q-0.5 -0.45 -0.75 8.35" fill="none" stroke="#000000" stroke-linecap="round" stroke-linejoin="round" stroke-opacity="0.49803922" stroke-width="2.0"/>
    <path d="M15.0 -11.3 Q18.05 -4.8 17.6 9.65" fill="none" stroke="#000000" stroke-linecap="round" stroke-linejoin="round" stroke-opacity="0.49803922" stroke-width="2.0"/>
    <path d="M-46.3 0.65 Q-8.8 4.25 29.3 -4.4" fill="none" stroke="#000000" stroke-linecap="round" stroke-linejoin="round" stroke-opacity="0.49803922" stroke-width="2.0"/>
    <path d="M-12.0 16.5 Q-20.5 13.55 -28.9 15.35" fill="none" stroke="#000000" stroke-linecap="round" stroke-linejoin="miter-clip" stroke-miterlimit="4.0" stroke-opacity="0.2" stroke-width="2.0"/>
  </g>
</svg>
