<?xml version="1.0" encoding="UTF-8" standalone="no"?>
<svg xmlns:ffdec="https://www.free-decompiler.com/flash" xmlns:xlink="http://www.w3.org/1999/xlink" ffdec:objectType="shape" height="19.15px" width="70.8px" xmlns="http://www.w3.org/2000/svg">
  <g transform="matrix(1.0, 0.0, 0.0, 1.0, 48.9, 6.9)">
    <path d="M-34.75 -1.1 Q-20.1 -0.35 -2.95 -4.2 L-4.45 10.0 Q-19.3 12.3 -32.15 10.35 L-34.75 -1.1" fill="#ffffff" fill-rule="evenodd" stroke="none"/>
    <path d="M-34.75 -1.1 L-32.15 10.35 Q-19.3 12.3 -4.45 10.0 L-2.95 -4.2" fill="none" stroke="#000000" stroke-linecap="round" stroke-linejoin="round" stroke-opacity="0.49803922" stroke-width="2.0"/>
    <path d="M-47.9 -4.1 Q-47.0 -3.5 -43.8 -1.95 -40.6 -0.45 -28.8 -0.85 -17.0 -1.25 -7.45 -3.55 2.05 -5.9 6.05 -5.9 10.15 -6.0 14.25 -4.8 18.3 -3.65 20.9 0.05" fill="none" stroke="#000000" stroke-linecap="round" stroke-linejoin="round" stroke-opacity="0.49803922" stroke-width="2.0"/>
    <path d="M-19.55 9.6 L-20.35 -0.2" fill="none" stroke="#000000" stroke-linecap="round" stroke-linejoin="round" stroke-opacity="0.49803922" stroke-width="2.0"/>
  </g>
</svg>
