<?xml version="1.0" encoding="UTF-8" standalone="no"?>
<svg xmlns:ffdec="https://www.free-decompiler.com/flash" xmlns:xlink="http://www.w3.org/1999/xlink" ffdec:objectType="shape" height="44.5px" width="101.55px" xmlns="http://www.w3.org/2000/svg">
  <g transform="matrix(1.0, 0.0, 0.0, 1.0, 63.7, 20.55)">
    <path d="M3.6 -14.7 L7.1 -2.5 Q-2.75 -0.95 -12.85 -0.95 L-13.5 -0.95 -30.5 -2.0 Q-38.7 -3.1 -47.0 -5.1 L-44.25 -17.05 -47.0 -5.1 Q-38.7 -3.1 -30.5 -2.0 L-13.5 -0.95 -12.85 -0.95 Q-2.75 -0.95 7.1 -2.5 L3.6 -14.7 Q10.8 -15.95 18.1 -18.15 18.8 -18.55 19.6 -18.75 20.85 -19.3 22.3 -19.45 L24.05 -19.55 27.0 -19.25 Q30.35 -18.5 33.0 -15.85 35.3 -13.55 36.25 -10.75 36.85 -8.85 36.85 -6.75 36.85 -1.5 31.85 1.55 L28.7 3.3 Q25.35 5.15 22.15 6.6 19.1 7.95 10.4 9.55 L5.85 10.35 -1.95 11.5 -12.7 12.5 Q-23.8 13.05 -32.9 11.1 L-35.35 10.5 Q-45.9 7.75 -49.8 6.3 L-47.0 -5.1 Q-54.6 -6.9 -62.25 -9.5 -54.6 -6.9 -47.0 -5.1 L-49.8 6.3 -51.65 5.55 -52.5 5.0 -58.2 1.35 Q-62.7 -1.5 -62.7 -6.25 -62.7 -8.0 -62.25 -9.5 -61.35 -12.35 -58.85 -14.6 -55.0 -18.0 -49.4 -18.0 L-45.4 -17.45 -44.25 -17.05 -43.45 -16.85 -42.7 -16.6 Q-35.6 -14.65 -28.35 -13.75 L-13.0 -13.0 Q-4.8 -13.2 3.6 -14.7 M-13.5 -0.95 Q-13.45 5.65 -12.7 12.5 -13.45 5.65 -13.5 -0.95 M10.4 9.55 L7.1 -2.5 Q15.9 -3.9 24.6 -6.55 L19.6 -18.75 24.6 -6.55 Q15.9 -3.9 7.1 -2.5 L10.4 9.55 M28.7 3.3 L24.6 -6.55 Q29.2 -8.0 33.8 -9.75 L36.25 -10.75 33.8 -9.75 Q29.2 -8.0 24.6 -6.55 L28.7 3.3" fill="#ffffff" fill-rule="evenodd" stroke="none"/>
    <path d="M-44.25 -17.05 L-47.0 -5.1 Q-38.7 -3.1 -30.5 -2.0 L-13.5 -0.95 -12.85 -0.95 Q-2.75 -0.95 7.1 -2.5 L3.6 -14.7 Q-4.8 -13.2 -13.0 -13.0 L-28.35 -13.75 Q-35.6 -14.65 -42.7 -16.6 L-43.45 -16.85 -44.25 -17.05 -45.4 -17.45 -49.4 -18.0 Q-55.0 -18.0 -58.85 -14.6 -61.35 -12.35 -62.25 -9.5 -54.6 -6.9 -47.0 -5.1 L-49.8 6.3 Q-45.9 7.75 -35.35 10.5 L-32.9 11.1 Q-23.8 13.05 -12.7 12.5 -13.45 5.65 -13.5 -0.95 M3.6 -14.7 Q10.8 -15.95 18.1 -18.15 18.8 -18.55 19.6 -18.75 20.85 -19.3 22.3 -19.45 L24.05 -19.55 27.0 -19.25 Q30.35 -18.5 33.0 -15.85 35.3 -13.55 36.25 -10.75 36.85 -8.85 36.85 -6.75 36.85 -1.5 31.85 1.55 L28.7 3.3 Q25.35 5.15 22.15 6.6 19.1 7.95 10.4 9.55 L5.85 10.35 -1.95 11.5 -12.7 12.5 M36.25 -10.75 L33.8 -9.75 Q29.2 -8.0 24.6 -6.55 L28.7 3.3 M19.6 -18.75 L24.6 -6.55 Q15.9 -3.9 7.1 -2.5 L10.4 9.55 M-49.8 6.3 L-51.65 5.55 -52.5 5.0 -58.2 1.35 Q-62.7 -1.5 -62.7 -6.25 -62.7 -8.0 -62.25 -9.5" fill="none" stroke="#000000" stroke-linecap="round" stroke-linejoin="round" stroke-opacity="0.49803922" stroke-width="2.0"/>
    <path d="M-33.85 -12.95 Q-18.2 -10.25 -2.75 -12.55 -5.9 3.1 -6.1 21.15 -18.45 24.8 -30.85 21.15 -34.35 4.0 -33.85 -12.95" fill="#ffffff" fill-rule="evenodd" stroke="none"/>
    <path d="M-2.75 -12.55 Q-5.9 3.1 -6.1 21.15 -18.45 24.8 -30.85 21.15 -34.35 4.0 -33.85 -12.95" fill="none" stroke="#000000" stroke-linecap="round" stroke-linejoin="round" stroke-opacity="0.49803922" stroke-width="2.0"/>
    <path d="M-19.15 -11.25 Q-20.35 2.05 -19.0 17.75" fill="none" stroke="#000000" stroke-linecap="round" stroke-linejoin="round" stroke-opacity="0.49803922" stroke-width="2.0"/>
  </g>
</svg>
