<?xml version="1.0" encoding="UTF-8" standalone="no"?>
<svg xmlns:ffdec="https://www.free-decompiler.com/flash" xmlns:xlink="http://www.w3.org/1999/xlink" ffdec:objectType="shape" height="22.35px" width="45.6px" xmlns="http://www.w3.org/2000/svg">
  <g transform="matrix(1.0, 0.0, 0.0, 1.0, 44.45, 12.25)">
    <path d="M-38.0 -4.55 Q-31.65 -10.75 -24.2 -11.2 L-21.45 -11.2 Q-13.65 -10.65 -6.0 -3.6 L-8.05 7.45 -22.75 9.1 -35.1 7.3 -38.0 -4.55 M-24.2 -11.2 Q-24.75 -1.05 -22.75 9.1 -24.75 -1.05 -24.2 -11.2" fill="#ffffff" fill-rule="evenodd" stroke="none"/>
    <path d="M-6.0 -3.6 L-8.05 7.45 -22.75 9.1 -35.1 7.3 -38.0 -4.55" fill="none" stroke="#000000" stroke-linecap="round" stroke-linejoin="round" stroke-opacity="0.49803922" stroke-width="2.0"/>
    <path d="M-22.75 9.1 Q-24.75 -1.05 -24.2 -11.2" fill="none" stroke="#000000" stroke-linecap="round" stroke-linejoin="round" stroke-opacity="0.49803922" stroke-width="1.0"/>
    <path d="M-43.45 1.15 Q-42.15 -0.05 -39.4 -3.1 -31.3 -12.0 -21.45 -11.2 -12.6 -10.55 -4.0 -1.65 L0.15 2.0" fill="none" stroke="#000000" stroke-linecap="round" stroke-linejoin="round" stroke-opacity="0.49803922" stroke-width="2.0"/>
  </g>
</svg>
