<?xml version="1.0" encoding="UTF-8" standalone="no"?>
<svg xmlns:ffdec="https://www.free-decompiler.com/flash" xmlns:xlink="http://www.w3.org/1999/xlink" ffdec:objectType="shape" height="39.7px" width="56.05px" xmlns="http://www.w3.org/2000/svg">
  <g transform="matrix(1.0, 0.0, 0.0, 1.0, 56.25, 8.1)">
    <path d="M-10.35 -3.4 Q-3.95 -0.25 -1.35 5.65 L-16.1 28.65 Q-19.65 6.4 -29.25 2.35 -37.15 3.85 -41.25 26.0 L-55.2 5.2 Q-53.8 0.3 -48.85 -2.7 -42.05 -6.85 -30.2 -7.1 -18.45 -7.35 -10.35 -3.4" fill="#ffffff" fill-rule="evenodd" stroke="none"/>
    <path d="M-10.35 -3.4 Q-3.95 -0.25 -1.35 5.65 L-16.1 28.65 Q-19.65 6.4 -29.25 2.35 -37.15 3.85 -41.25 26.0 L-55.2 5.2 Q-53.8 0.3 -48.85 -2.7 -42.05 -6.85 -30.2 -7.1 -18.45 -7.35 -10.35 -3.4 Z" fill="none" stroke="#000000" stroke-linecap="round" stroke-linejoin="miter-clip" stroke-miterlimit="3.0" stroke-opacity="0.49803922" stroke-width="2.0"/>
  </g>
</svg>
