<?xml version="1.0" encoding="UTF-8" standalone="no"?>
<svg xmlns:ffdec="https://www.free-decompiler.com/flash" xmlns:xlink="http://www.w3.org/1999/xlink" ffdec:objectType="shape" height="52.2px" width="81.65px" xmlns="http://www.w3.org/2000/svg">
  <g transform="matrix(1.0, 0.0, 0.0, 1.0, 56.65, 17.05)">
    <path d="M12.3 26.8 Q0.7 34.15 -15.85 34.15 -32.35 34.15 -44.05 26.8 -55.65 19.45 -55.65 9.05 -55.65 -1.35 -44.05 -8.7 -32.35 -16.05 -15.85 -16.05 0.7 -16.05 12.3 -8.7 24.0 -1.35 24.0 9.05 24.0 19.45 12.3 26.8" fill="#431212" fill-rule="evenodd" stroke="none"/>
    <path d="M12.3 26.8 Q0.7 34.15 -15.85 34.15 -32.35 34.15 -44.05 26.8 -55.65 19.45 -55.65 9.05 -55.65 -1.35 -44.05 -8.7 -32.35 -16.05 -15.85 -16.05 0.7 -16.05 12.3 -8.7 24.0 -1.35 24.0 9.05 24.0 19.45 12.3 26.8 Z" fill="none" stroke="#000000" stroke-linecap="round" stroke-linejoin="miter-clip" stroke-miterlimit="3.0" stroke-opacity="0.49803922" stroke-width="2.0"/>
    <path d="M-10.35 -8.4 Q-3.95 -5.25 -1.35 0.65 L-16.1 23.65 Q-19.65 1.4 -29.25 -2.65 -37.15 -1.15 -41.25 21.0 L-55.2 0.2 Q-53.8 -4.7 -48.85 -7.7 -42.05 -11.85 -30.2 -12.1 -18.45 -12.35 -10.35 -8.4" fill="#ffffff" fill-rule="evenodd" stroke="none"/>
    <path d="M-10.35 -8.4 Q-3.95 -5.25 -1.35 0.65 L-16.1 23.65 Q-19.65 1.4 -29.25 -2.65 -37.15 -1.15 -41.25 21.0 L-55.2 0.2 Q-53.8 -4.7 -48.85 -7.7 -42.05 -11.85 -30.2 -12.1 -18.45 -12.35 -10.35 -8.4 Z" fill="none" stroke="#000000" stroke-linecap="round" stroke-linejoin="miter-clip" stroke-miterlimit="3.0" stroke-opacity="0.49803922" stroke-width="2.0"/>
    <path d="M-12.1 31.95 Q-19.85 33.05 -28.0 31.7 L-19.05 18.95 -12.1 31.95" fill="#ffffff" fill-rule="evenodd" stroke="none"/>
    <path d="M-12.1 31.95 Q-19.85 33.05 -28.0 31.7 L-19.05 18.95 -12.1 31.95 Z" fill="none" stroke="#000000" stroke-linecap="round" stroke-linejoin="miter-clip" stroke-miterlimit="3.0" stroke-opacity="0.49803922" stroke-width="2.0"/>
    <path d="M-28.75 31.45 Q-36.75 30.9 -43.7 26.65 L-33.35 17.75 -28.75 31.45" fill="#ffffff" fill-rule="evenodd" stroke="none"/>
    <path d="M-28.75 31.45 Q-36.75 30.9 -43.7 26.65 L-33.35 17.75 -28.75 31.45 Z" fill="none" stroke="#000000" stroke-linecap="round" stroke-linejoin="miter-clip" stroke-miterlimit="3.0" stroke-opacity="0.49803922" stroke-width="2.0"/>
    <path d="M4.9 28.3 Q-2.35 31.15 -10.65 31.65 L-4.8 17.2 4.9 28.3" fill="#ffffff" fill-rule="evenodd" stroke="none"/>
    <path d="M4.9 28.3 Q-2.35 31.15 -10.65 31.65 L-4.8 17.2 4.9 28.3 Z" fill="none" stroke="#000000" stroke-linecap="round" stroke-linejoin="miter-clip" stroke-miterlimit="3.0" stroke-opacity="0.49803922" stroke-width="2.0"/>
  </g>
</svg>
