<?xml version="1.0" encoding="UTF-8" standalone="no"?>
<svg xmlns:ffdec="https://www.free-decompiler.com/flash" xmlns:xlink="http://www.w3.org/1999/xlink" ffdec:objectType="shape" height="21.8px" width="106.55px" xmlns="http://www.w3.org/2000/svg">
  <g transform="matrix(1.0, 0.0, 0.0, 1.0, 65.25, 21.05)">
    <path d="M-62.55 -0.45 L-55.35 -14.25 -49.9 -0.75 -62.55 -0.45" fill="#ffffff" fill-rule="evenodd" stroke="none"/>
    <path d="M-62.55 -0.45 L-55.35 -14.25 -49.9 -0.75" fill="none" stroke="#000000" stroke-linecap="butt" stroke-linejoin="miter-clip" stroke-miterlimit="4.0" stroke-opacity="0.29803923" stroke-width="2.0"/>
    <path d="M-46.7 -0.25 L-39.6 -14.05 -34.05 -0.55 -46.7 -0.25" fill="#ffffff" fill-rule="evenodd" stroke="none"/>
    <path d="M-46.7 -0.25 L-39.6 -14.05 -34.05 -0.55" fill="none" stroke="#000000" stroke-linecap="butt" stroke-linejoin="miter-clip" stroke-miterlimit="4.0" stroke-opacity="0.29803923" stroke-width="2.0"/>
    <path d="M-18.4 -0.55 L-30.95 -0.25 -23.75 -14.05 -18.4 -0.55" fill="#ffffff" fill-rule="evenodd" stroke="none"/>
    <path d="M-30.95 -0.25 L-23.75 -14.05 -18.4 -0.55" fill="none" stroke="#000000" stroke-linecap="butt" stroke-linejoin="miter-clip" stroke-miterlimit="4.0" stroke-opacity="0.29803923" stroke-width="2.0"/>
    <path d="M-64.25 -1.0 Q-19.95 0.4 25.0 -1.0 34.2 -7.75 40.3 -20.05" fill="none" stroke="#000000" stroke-linecap="round" stroke-linejoin="miter-clip" stroke-miterlimit="4.0" stroke-opacity="0.49803922" stroke-width="2.0"/>
  </g>
</svg>
