<?xml version="1.0" encoding="UTF-8" standalone="no"?>
<svg xmlns:ffdec="https://www.free-decompiler.com/flash" xmlns:xlink="http://www.w3.org/1999/xlink" ffdec:objectType="shape" height="33.65px" width="111.55px" xmlns="http://www.w3.org/2000/svg">
  <g transform="matrix(1.0, 0.0, 0.0, 1.0, 69.15, 18.15)">
    <path d="M8.7 -4.15 Q20.05 -6.95 28.35 -12.7 L24.9 6.2 8.7 -4.15" fill="#ffffff" fill-rule="evenodd" stroke="none"/>
    <path d="M8.7 -4.15 L24.9 6.2 28.35 -12.7" fill="none" stroke="#000000" stroke-linecap="round" stroke-linejoin="round" stroke-opacity="0.49803922" stroke-width="2.0"/>
    <path d="M8.2 -4.0 L0.65 13.7 -12.9 0.05 Q-1.2 0.25 8.2 -4.0" fill="#ffffff" fill-rule="evenodd" stroke="none"/>
    <path d="M8.2 -4.0 L0.65 13.7 -12.9 0.05" fill="none" stroke="#000000" stroke-linecap="round" stroke-linejoin="round" stroke-opacity="0.49803922" stroke-width="2.0"/>
    <path d="M-34.1 -2.6 Q-23.8 0.25 -12.8 -0.05 L-25.35 14.5 -34.1 -2.6" fill="#ffffff" fill-rule="evenodd" stroke="none"/>
    <path d="M-12.8 -0.05 L-25.35 14.5 -34.1 -2.6" fill="none" stroke="#000000" stroke-linecap="round" stroke-linejoin="round" stroke-opacity="0.49803922" stroke-width="2.0"/>
    <path d="M-54.7 -11.25 Q-45.9 -5.15 -35.0 -2.8 L-51.1 7.55 -54.7 -11.25" fill="#ffffff" fill-rule="evenodd" stroke="none"/>
    <path d="M-35.0 -2.8 L-51.1 7.55 -54.7 -11.25" fill="none" stroke="#000000" stroke-linecap="round" stroke-linejoin="round" stroke-opacity="0.49803922" stroke-width="2.0"/>
    <path d="M-68.15 -8.6 Q-67.1 -13.2 -62.9 -15.6 -13.6 15.55 34.5 -17.15 39.85 -13.3 41.4 -10.75" fill="none" stroke="#000000" stroke-linecap="round" stroke-linejoin="round" stroke-opacity="0.49803922" stroke-width="2.0"/>
  </g>
</svg>
