<?xml version="1.0" encoding="UTF-8" standalone="no"?>
<svg xmlns:ffdec="https://www.free-decompiler.com/flash" xmlns:xlink="http://www.w3.org/1999/xlink" ffdec:objectType="shape" height="20.6px" width="94.8px" xmlns="http://www.w3.org/2000/svg">
  <g transform="matrix(1.0, 0.0, 0.0, 1.0, 63.15, 10.85)">
    <path d="M-4.25 -8.85 L-4.05 -6.3 Q-3.7 -3.15 -2.95 -0.55 -0.35 8.05 5.55 8.7 11.5 9.45 15.8 1.75 17.95 -2.15 18.95 -6.1 8.95 -8.1 -4.25 -8.85" fill="#ffffff" fill-rule="evenodd" stroke="none"/>
    <path d="M-4.25 -8.85 L-4.05 -6.3 Q-3.7 -3.15 -2.95 -0.55 -0.35 8.05 5.55 8.7 11.5 9.45 15.8 1.75 17.95 -2.15 18.95 -6.1" fill="none" stroke="#000000" stroke-linecap="round" stroke-linejoin="round" stroke-opacity="0.49803922" stroke-width="2.0"/>
    <path d="M-30.05 -8.85 L-30.25 -6.3 Q-30.6 -3.15 -31.35 -0.55 -33.95 8.05 -39.85 8.7 -45.8 9.45 -50.1 1.75 -52.25 -2.15 -53.25 -6.1 -43.25 -8.1 -30.05 -8.85" fill="#ffffff" fill-rule="evenodd" stroke="none"/>
    <path d="M-30.05 -8.85 L-30.25 -6.3 Q-30.6 -3.15 -31.35 -0.55 -33.95 8.05 -39.85 8.7 -45.8 9.45 -50.1 1.75 -52.25 -2.15 -53.25 -6.1" fill="none" stroke="#000000" stroke-linecap="round" stroke-linejoin="round" stroke-opacity="0.49803922" stroke-width="2.0"/>
    <path d="M-62.15 -4.5 Q-18.2 -15.5 30.65 -3.9" fill="none" stroke="#000000" stroke-linecap="round" stroke-linejoin="round" stroke-opacity="0.49803922" stroke-width="2.0"/>
  </g>
</svg>
