<?xml version="1.0" encoding="UTF-8" standalone="no"?>
<svg xmlns:ffdec="https://www.free-decompiler.com/flash" xmlns:xlink="http://www.w3.org/1999/xlink" ffdec:objectType="shape" height="31.35px" width="100.8px" xmlns="http://www.w3.org/2000/svg">
  <g transform="matrix(1.0, 0.0, 0.0, 1.0, 64.4, 13.05)">
    <path d="M4.35 -10.85 L24.8 -6.5 Q19.05 6.35 11.3 17.3 L4.35 -10.85 M-40.8 -10.5 Q-43.75 0.7 -45.4 15.6 -53.8 5.9 -58.05 -6.85 L-40.8 -10.5" fill="#ffffff" fill-rule="evenodd" stroke="none"/>
    <path d="M24.8 -6.5 L35.4 -3.3 M4.35 -10.85 L24.8 -6.5 Q19.05 6.35 11.3 17.3 L4.35 -10.85 Q-16.65 -13.4 -40.8 -10.5 -43.75 0.7 -45.4 15.6 -53.8 5.9 -58.05 -6.85 L-63.4 -5.4 M-40.8 -10.5 L-58.05 -6.85" fill="none" stroke="#000000" stroke-linecap="round" stroke-linejoin="round" stroke-opacity="0.49803922" stroke-width="2.0"/>
  </g>
</svg>
