<?xml version="1.0" encoding="UTF-8" standalone="no"?>
<svg xmlns:ffdec="https://www.free-decompiler.com/flash" xmlns:xlink="http://www.w3.org/1999/xlink" ffdec:objectType="shape" height="23.55px" width="95.75px" xmlns="http://www.w3.org/2000/svg">
  <g transform="matrix(1.0, 0.0, 0.0, 1.0, 59.05, 11.2)">
    <path d="M-44.5 -6.15 Q-34.9 -6.7 -24.0 -6.7 L-25.05 9.8 Q-35.5 11.4 -42.55 9.3 L-44.5 -6.15 M-19.25 -6.4 L3.1 -5.0 -0.55 10.9 Q-10.45 12.05 -17.9 10.2 L-19.25 -6.4" fill="#ffffff" fill-rule="evenodd" stroke="none"/>
    <path d="M3.1 -5.0 L10.95 -4.05 25.0 -2.3 Q31.55 -1.6 35.7 -10.2 M-58.05 -4.85 L-50.2 -5.6 -44.5 -6.15 Q-34.9 -6.7 -24.0 -6.7 L-19.25 -6.4 3.1 -5.0 -0.55 10.9 Q-10.45 12.05 -17.9 10.2 L-19.25 -6.4 M-44.5 -6.15 L-42.55 9.3 Q-35.5 11.4 -25.05 9.8 L-24.0 -6.7" fill="none" stroke="#000000" stroke-linecap="round" stroke-linejoin="round" stroke-opacity="0.49803922" stroke-width="2.0"/>
  </g>
</svg>
