<?xml version="1.0" encoding="UTF-8" standalone="no"?>
<svg xmlns:ffdec="https://www.free-decompiler.com/flash" xmlns:xlink="http://www.w3.org/1999/xlink" ffdec:objectType="shape" height="52.45px" width="84.5px" xmlns="http://www.w3.org/2000/svg">
  <g transform="matrix(1.0, 0.0, 0.0, 1.0, 38.1, 22.5)">
    <path d="M10.5 2.0 Q18.05 -0.15 23.9 -3.95 L25.95 -5.45 29.65 -1.7 Q32.95 1.55 33.75 6.05 34.5 10.55 34.5 14.55 34.5 18.5 29.95 28.95 27.85 18.85 25.35 15.35 22.9 11.8 20.85 9.65 18.85 7.45 10.85 2.35 L10.5 2.0" fill="#fb0f0c" fill-rule="evenodd" stroke="none"/>
    <path d="M10.5 2.0 L10.85 2.35 Q18.85 7.45 20.85 9.65 22.9 11.8 25.35 15.35 27.85 18.85 29.95 28.95 34.5 18.5 34.5 14.55 34.5 10.55 33.75 6.05 32.95 1.55 29.65 -1.7 L25.95 -5.45" fill="none" stroke="#000000" stroke-linecap="round" stroke-linejoin="round" stroke-opacity="0.29803923" stroke-width="2.0"/>
    <path d="M29.3 -21.5 Q37.9 -20.7 45.4 -12.25" fill="none" stroke="#000000" stroke-linecap="round" stroke-linejoin="round" stroke-opacity="0.49803922" stroke-width="2.0"/>
    <path d="M-37.1 4.8 Q-13.2 8.05 3.95 4.05 L5.45 3.6 6.7 3.3 Q15.55 0.8 22.45 -3.75 L24.9 -5.55 Q31.5 -10.7 36.1 -17.9" fill="none" stroke="#000000" stroke-linecap="round" stroke-linejoin="round" stroke-opacity="0.49803922" stroke-width="2.0"/>
    <path d="M19.95 -1.9 Q24.95 2.25 28.35 10.05" fill="none" stroke="#000000" stroke-linecap="round" stroke-linejoin="round" stroke-opacity="0.2" stroke-width="2.0"/>
  </g>
</svg>
