<?xml version="1.0" encoding="UTF-8" standalone="no"?>
<svg xmlns:ffdec="https://www.free-decompiler.com/flash" xmlns:xlink="http://www.w3.org/1999/xlink" ffdec:objectType="shape" height="30.8px" width="77.35px" xmlns="http://www.w3.org/2000/svg">
  <g transform="matrix(1.0, 0.0, 0.0, 1.0, 45.05, 15.85)">
    <path d="M5.35 -10.15 Q24.65 -18.65 29.1 -11.75 33.55 -4.9 28.95 1.05 24.25 7.0 13.0 10.05 1.7 13.1 -8.25 13.85 -18.25 14.6 -25.5 10.6 -32.8 6.6 -33.8 -3.35 -14.05 -1.55 5.35 -10.15" fill="#ffffff" fill-rule="evenodd" stroke="none"/>
    <path d="M5.35 -10.15 Q-14.05 -1.55 -33.8 -3.35 -32.8 6.6 -25.5 10.6 -18.25 14.6 -8.25 13.85 1.7 13.1 13.0 10.05 24.25 7.0 28.95 1.05 33.55 -4.9 29.1 -11.75 24.65 -18.65 5.35 -10.15 Z" fill="none" stroke="#000000" stroke-linecap="round" stroke-linejoin="round" stroke-opacity="0.49803922" stroke-width="2.0"/>
    <path d="M-44.05 -5.35 Q-39.65 -3.9 -34.8 -3.4" fill="none" stroke="#000000" stroke-linecap="round" stroke-linejoin="round" stroke-opacity="0.49803922" stroke-width="2.0"/>
    <path d="M14.3 -12.45 Q16.5 -7.4 17.35 -2.25 24.15 -5.05 30.15 -8.85 M1.4 11.15 Q1.5 6.8 0.9 2.55 -7.95 4.35 -17.75 4.6 L-16.4 12.55 M18.0 7.1 Q18.25 2.4 17.35 -2.25 9.6 0.85 0.9 2.55 0.3 -1.85 -1.1 -6.25 M-30.2 4.4 Q-25.65 5.3 -17.75 4.6 L-19.0 -2.6" fill="none" stroke="#000000" stroke-linecap="round" stroke-linejoin="round" stroke-opacity="0.49803922" stroke-width="2.0"/>
  </g>
</svg>
