<?xml version="1.0" encoding="UTF-8" standalone="no"?>
<svg xmlns:ffdec="https://www.free-decompiler.com/flash" xmlns:xlink="http://www.w3.org/1999/xlink" ffdec:objectType="shape" height="32.25px" width="73.65px" xmlns="http://www.w3.org/2000/svg">
  <g transform="matrix(1.0, 0.0, 0.0, 1.0, 38.55, 16.5)">
    <path d="M-37.55 -7.95 L-29.65 -6.7" fill="none" stroke="#000000" stroke-linecap="round" stroke-linejoin="round" stroke-opacity="0.49803922" stroke-width="2.0"/>
    <path d="M26.5 -14.2 Q27.7 -0.05 16.4 8.25 5.05 16.5 -24.05 13.3 -23.95 3.25 -29.15 -6.7 -2.2 -2.7 26.5 -14.2" fill="#ffffff" fill-rule="evenodd" stroke="none"/>
    <path d="M26.5 -14.2 Q27.7 -0.05 16.4 8.25 5.05 16.5 -24.05 13.3 -23.95 3.25 -29.15 -6.7 -2.2 -2.7 26.5 -14.2 Z" fill="none" stroke="#000000" stroke-linecap="round" stroke-linejoin="round" stroke-opacity="0.49803922" stroke-width="2.0"/>
    <path d="M-0.8 -5.55 Q0.5 -2.35 0.9 2.4 8.0 1.35 13.8 -0.7 13.55 -5.0 12.2 -8.4 M23.5 -5.2 Q19.1 -2.6 13.8 -0.7 14.7 3.65 14.0 8.7 M-13.05 12.55 Q-13.0 7.65 -13.35 3.45 L-24.0 3.2 M-13.35 3.45 Q-13.8 -1.5 -14.75 -5.45 M0.95 11.8 Q1.25 6.5 0.9 2.4 L-13.35 3.45" fill="none" stroke="#000000" stroke-linecap="round" stroke-linejoin="round" stroke-opacity="0.49803922" stroke-width="2.0"/>
    <path d="M-28.6 14.75 Q-26.75 13.5 -24.95 13.25" fill="none" stroke="#000000" stroke-linecap="round" stroke-linejoin="round" stroke-opacity="0.49803922" stroke-width="2.0"/>
    <path d="M27.5 -14.85 Q32.05 -16.5 34.1 -13.95" fill="none" stroke="#000000" stroke-linecap="round" stroke-linejoin="round" stroke-opacity="0.49803922" stroke-width="2.0"/>
  </g>
</svg>
