<?xml version="1.0" encoding="UTF-8" standalone="no"?>
<svg xmlns:ffdec="https://www.free-decompiler.com/flash" xmlns:xlink="http://www.w3.org/1999/xlink" ffdec:objectType="shape" height="25.55px" width="76.05px" xmlns="http://www.w3.org/2000/svg">
  <g transform="matrix(1.0, 0.0, 0.0, 1.0, 44.8, 13.1)">
    <path d="M1.05 -3.2 L0.05 10.35 Q-15.1 12.15 -26.65 11.0 L-28.75 -0.3 Q-14.1 0.35 1.05 -3.2" fill="#ffffff" fill-rule="evenodd" stroke="none"/>
    <path d="M-28.75 -0.3 L-26.65 11.0 Q-15.1 12.15 0.05 10.35 L1.05 -3.2" fill="none" stroke="#000000" stroke-linecap="round" stroke-linejoin="round" stroke-opacity="0.49803922" stroke-width="2.0"/>
    <path d="M-43.8 -4.95 Q-38.85 -1.75 -33.55 -1.0 -28.3 -0.3 -20.65 -0.65 -13.0 -1.0 1.4 -4.0 15.75 -7.0 23.9 -12.1 28.9 -8.9 30.25 -6.55" fill="none" stroke="#000000" stroke-linecap="round" stroke-linejoin="round" stroke-opacity="0.49803922" stroke-width="2.0"/>
    <path d="M-13.9 10.8 Q-15.0 5.25 -14.65 -0.7" fill="none" stroke="#000000" stroke-linecap="round" stroke-linejoin="round" stroke-opacity="0.49803922" stroke-width="2.0"/>
  </g>
</svg>
