<?xml version="1.0" encoding="UTF-8" standalone="no"?>
<svg xmlns:ffdec="https://www.free-decompiler.com/flash" xmlns:xlink="http://www.w3.org/1999/xlink" ffdec:objectType="shape" height="34.15px" width="101.55px" xmlns="http://www.w3.org/2000/svg">
  <g transform="matrix(1.0, 0.0, 0.0, 1.0, 62.7, 15.55)">
    <path d="M19.1 -13.15 Q19.8 -13.55 20.6 -13.75 L23.3 -14.45 25.05 -14.55 28.0 -14.25 Q31.35 -13.5 34.0 -10.85 36.3 -8.55 37.25 -5.75 37.85 -3.85 37.85 -1.75 37.85 3.5 32.85 6.55 L29.7 8.3 Q26.35 10.15 23.15 11.6 20.1 12.95 11.4 14.55 L6.85 15.35 -0.95 16.5 -11.7 17.5 Q-22.8 18.05 -31.9 16.1 L-34.35 15.5 -48.8 11.3 -50.65 10.55 -51.5 10.0 -57.2 6.35 Q-61.7 3.5 -61.7 -1.25 -61.7 -3.0 -61.25 -4.5 -60.35 -7.35 -57.85 -9.6 -54.0 -13.0 -48.4 -13.0 L-44.4 -12.45 -43.25 -12.05 -42.45 -11.85 -41.7 -11.6 Q-34.6 -9.65 -27.35 -8.75 L-12.0 -8.0 Q-3.8 -8.2 4.6 -9.7 11.8 -10.95 19.1 -13.15 M-11.4 4.05 Q-11.5 -1.95 -12.0 -8.0 -11.5 -1.95 -11.4 4.05 -1.55 4.0 8.1 2.5 L4.6 -9.7 8.1 2.5 Q-1.55 4.0 -11.4 4.05 -11.3 10.8 -11.7 17.5 -11.3 10.8 -11.4 4.05 L-11.85 4.05 -29.5 3.0 -31.9 16.1 -29.5 3.0 -11.85 4.05 -11.4 4.05 M-48.8 11.3 L-46.0 -0.1 Q-53.6 -1.9 -61.25 -4.5 -53.6 -1.9 -46.0 -0.1 L-48.8 11.3 M-27.35 -8.75 L-29.5 3.0 Q-37.7 1.9 -46.0 -0.1 L-43.25 -12.05 -46.0 -0.1 Q-37.7 1.9 -29.5 3.0 L-27.35 -8.75 M11.4 14.55 L8.1 2.5 Q16.9 1.1 25.6 -1.55 L20.6 -13.75 25.6 -1.55 Q16.9 1.1 8.1 2.5 L11.4 14.55 M29.7 8.3 L25.6 -1.55 Q30.2 -3.0 34.8 -4.75 L37.25 -5.75 34.8 -4.75 Q30.2 -3.0 25.6 -1.55 L29.7 8.3" fill="#ffffff" fill-rule="evenodd" stroke="none"/>
    <path d="M19.1 -13.15 Q19.8 -13.55 20.6 -13.75 L23.3 -14.45 25.05 -14.55 28.0 -14.25 Q31.35 -13.5 34.0 -10.85 36.3 -8.55 37.25 -5.75 37.85 -3.85 37.85 -1.75 37.85 3.5 32.85 6.55 L29.7 8.3 Q26.35 10.15 23.15 11.6 20.1 12.95 11.4 14.55 L6.85 15.35 -0.95 16.5 -11.7 17.5 Q-22.8 18.05 -31.9 16.1 L-34.35 15.5 -48.8 11.3 -50.65 10.55 -51.5 10.0 -57.2 6.35 Q-61.7 3.5 -61.7 -1.25 -61.7 -3.0 -61.25 -4.5 -60.35 -7.35 -57.85 -9.6 -54.0 -13.0 -48.4 -13.0 L-44.4 -12.45 -43.25 -12.05 -42.45 -11.85 -41.7 -11.6 Q-34.6 -9.65 -27.35 -8.75 L-12.0 -8.0 Q-3.8 -8.2 4.6 -9.7 11.8 -10.95 19.1 -13.15 M37.25 -5.75 L34.8 -4.75 Q30.2 -3.0 25.6 -1.55 L29.7 8.3 M20.6 -13.75 L25.6 -1.55 Q16.9 1.1 8.1 2.5 L11.4 14.55 M4.6 -9.7 L8.1 2.5 Q-1.55 4.0 -11.4 4.05 -11.3 10.8 -11.7 17.5 M-43.25 -12.05 L-46.0 -0.1 Q-37.7 1.9 -29.5 3.0 L-27.35 -8.75 M-61.25 -4.5 Q-53.6 -1.9 -46.0 -0.1 L-48.8 11.3 M-11.4 4.05 L-11.85 4.05 -29.5 3.0 -31.9 16.1 M-12.0 -8.0 Q-11.5 -1.95 -11.4 4.05" fill="none" stroke="#000000" stroke-linecap="round" stroke-linejoin="round" stroke-opacity="0.49803922" stroke-width="2.0"/>
    <path d="M5.75 -8.95 Q7.15 -9.0 11.4 -10.3 16.4 -11.85 20.0 -12.45 23.2 -6.4 24.1 -2.25 L8.75 1.35 5.75 -8.95" fill="#ffcc00" fill-rule="evenodd" stroke="none"/>
  </g>
</svg>
