<?xml version="1.0" encoding="UTF-8" standalone="no"?>
<svg xmlns:ffdec="https://www.free-decompiler.com/flash" xmlns:xlink="http://www.w3.org/1999/xlink" ffdec:objectType="shape" height="27.2px" width="19.45px" xmlns="http://www.w3.org/2000/svg">
  <g transform="matrix(1.0, 0.0, 0.0, 1.0, 35.6, 13.55)">
    <path d="M-20.1 -9.7 Q-22.55 -12.05 -25.9 -12.05 -29.3 -12.05 -31.65 -9.7 -34.1 -7.25 -34.1 -3.85 -34.1 -0.45 -31.65 1.9 -29.3 4.35 -25.9 4.35 -22.55 4.35 -20.1 1.9 -17.75 -0.45 -17.75 -3.85 -17.75 -7.25 -20.1 -9.7" fill="#000000" fill-opacity="0.49803922" fill-rule="evenodd" stroke="none"/>
    <path d="M-20.1 -9.7 Q-22.55 -12.05 -25.9 -12.05 -29.3 -12.05 -31.65 -9.7 -34.1 -7.25 -34.1 -3.85 -34.1 -0.45 -31.65 1.9 -29.3 4.35 -25.9 4.35 -22.55 4.35 -20.1 1.9 -17.75 -0.45 -17.75 -3.85 -17.75 -7.25 -20.1 -9.7 Z" fill="none" stroke="#000000" stroke-linecap="round" stroke-linejoin="miter-clip" stroke-miterlimit="3.0" stroke-opacity="0.49803922" stroke-width="3.0"/>
    <path d="M-17.15 8.55 Q-25.85 16.8 -34.5 8.55" fill="none" stroke="#000000" stroke-linecap="round" stroke-linejoin="round" stroke-opacity="0.29803923" stroke-width="2.0"/>
  </g>
</svg>
