<?xml version="1.0" encoding="UTF-8" standalone="no"?>
<svg xmlns:ffdec="https://www.free-decompiler.com/flash" xmlns:xlink="http://www.w3.org/1999/xlink" ffdec:objectType="shape" height="23.05px" width="43.15px" xmlns="http://www.w3.org/2000/svg">
  <g transform="matrix(1.0, 0.0, 0.0, 1.0, 38.35, 7.05)">
    <path d="M-25.45 3.15 Q-28.65 0.4 -28.35 -2.4 -28.0 -5.15 -25.7 -5.75 -23.5 -6.35 -21.85 -5.1 -20.15 -3.95 -19.1 -0.95 -18.95 -3.4 -17.2 -4.9 -15.4 -6.5 -13.2 -5.85 -10.7 -5.15 -9.75 -2.95 -9.0 -1.6 -9.0 0.05 -9.15 1.95 -11.25 3.5 -18.3 3.9 -25.45 3.15" fill="#fa3732" fill-rule="evenodd" stroke="none"/>
    <path d="M-11.25 3.5 Q-9.15 1.95 -9.0 0.05 -9.0 -1.6 -9.75 -2.95 -10.7 -5.15 -13.2 -5.85 -15.4 -6.5 -17.2 -4.9 -18.95 -3.4 -19.1 -0.95 -20.15 -3.95 -21.85 -5.1 -23.5 -6.35 -25.7 -5.75 -28.0 -5.15 -28.35 -2.4 -28.65 0.4 -25.45 3.15" fill="none" stroke="#bf1e1e" stroke-linecap="round" stroke-linejoin="round" stroke-width="2.0"/>
    <path d="M-11.25 4.35 Q-6.85 8.4 -9.75 11.25 -12.7 14.1 -17.55 14.85 -22.45 15.65 -26.4 12.2 -30.35 8.7 -24.3 4.1 L-11.25 4.35" fill="#fa3732" fill-rule="evenodd" stroke="none"/>
    <path d="M-11.25 4.35 Q-6.85 8.4 -9.75 11.25 -12.7 14.1 -17.55 14.85 -22.45 15.65 -26.4 12.2 -30.35 8.7 -24.3 4.1" fill="none" stroke="#bf1e1e" stroke-linecap="round" stroke-linejoin="round" stroke-width="2.0"/>
    <path d="M-37.35 1.3 Q-15.85 6.8 3.8 1.2" fill="none" stroke="#bf1e1e" stroke-linecap="round" stroke-linejoin="round" stroke-width="2.0"/>
    <path d="M-19.35 9.75 Q-20.3 10.5 -21.6 10.6 -22.85 10.7 -23.8 10.15 -24.7 9.65 -24.75 8.7 -24.75 7.75 -23.9 7.0 -22.95 6.3 -21.7 6.2 -20.4 6.1 -19.45 6.6 -18.5 7.15 -18.5 8.1 -18.45 9.05 -19.35 9.75" fill="#fc807c" fill-rule="evenodd" stroke="none"/>
  </g>
</svg>
