<?xml version="1.0" encoding="UTF-8" standalone="no"?>
<svg xmlns:ffdec="https://www.free-decompiler.com/flash" xmlns:xlink="http://www.w3.org/1999/xlink" ffdec:objectType="shape" height="100.45px" width="170.4px" xmlns="http://www.w3.org/2000/svg">
  <g transform="matrix(1.0, 0.0, 0.0, 1.0, 85.2, 50.25)">
    <path d="M-28.05 -37.15 Q-30.4 -42.05 -34.6 -41.95 L-34.85 -42.65 Q-35.85 -45.45 -38.0 -46.85 -40.15 -48.4 -42.3 -47.7 -44.35 -46.95 -45.35 -44.55 -46.2 -42.1 -45.2 -39.35 -44.55 -37.2 -42.55 -35.45 -44.05 -34.05 -44.4 -31.85 -44.9 -29.65 -44.05 -27.25 -42.85 -23.95 -40.25 -22.3 -43.05 -18.65 -41.2 -13.25 -39.25 -7.8 -34.85 -6.4 -35.9 -5.15 -36.35 -3.55 L-38.3 -5.65 Q-40.7 -7.9 -43.7 -8.65 L-49.0 -8.85 Q-48.5 -13.55 -52.8 -17.35 -57.05 -21.1 -61.65 -19.95 -62.0 -23.2 -64.65 -25.45 -66.55 -27.1 -68.9 -27.6 -71.05 -28.05 -72.75 -27.2 -73.5 -29.6 -75.4 -31.25 -77.65 -33.15 -80.1 -33.3 -82.7 -33.55 -84.2 -31.85 -85.6 -30.2 -85.05 -27.55 -84.5 -24.9 -82.35 -23.05 L-81.8 -22.5 Q-82.7 -20.9 -82.2 -18.65 -81.8 -16.45 -80.1 -14.6 -77.8 -12.15 -74.85 -11.6 -75.45 -7.5 -72.1 -3.8 -68.95 -0.5 -64.95 -0.1 -66.2 5.05 -61.75 10.05 -59.9 12.15 -56.75 13.6 -58.05 21.35 -52.8 26.95 -48.1 32.05 -40.95 32.45 -33.75 33.0 -28.3 28.45 -26.6 27.1 -25.8 26.0 -22.45 28.55 -18.2 29.05 -13.85 29.65 -9.75 27.85 -5.45 31.5 0.05 31.9 5.95 32.5 10.45 29.55 13.45 34.95 19.25 37.0 20.35 41.0 22.65 44.0 27.05 49.55 33.8 50.1 40.55 50.75 45.7 46.2 48.9 43.3 50.6 38.6 54.05 37.45 57.0 34.45 59.25 32.1 60.1 29.1 60.95 26.25 60.3 23.8 65.0 24.25 68.9 20.1 72.7 15.85 71.65 11.25 74.45 11.1 77.1 8.4 78.85 6.5 79.35 4.3 79.85 1.95 79.0 0.25 81.25 -0.3 83.05 -2.25 85.0 -4.35 85.15 -6.95 85.45 -9.55 83.75 -11.05 82.05 -12.55 79.4 -12.1 76.95 -11.55 74.9 -9.45 L74.4 -8.9 70.55 -9.2 Q68.4 -8.85 66.5 -7.15 64.15 -5.1 63.4 -2.05 59.45 -2.6 55.6 0.6 52.2 3.55 51.7 7.7 46.6 6.45 41.5 10.8 L40.75 11.55 Q42.55 9.45 43.4 6.75 45.4 0.45 42.15 -3.85 45.65 -5.9 46.95 -10.2 48.55 -15.05 46.2 -18.5 48.75 -20.25 49.7 -23.35 50.45 -25.85 49.95 -27.95 49.5 -30.1 48.05 -31.3 L48.3 -31.95 Q49.55 -34.6 48.85 -37.25 48.25 -39.75 46.2 -40.7 44.25 -41.65 41.95 -40.35 39.6 -39.05 38.5 -36.4 37.6 -34.25 37.8 -31.7 35.9 -31.8 34.05 -30.5 32.15 -29.05 31.25 -26.75 29.75 -23.45 30.8 -20.5 26.1 -19.65 23.85 -14.45 21.35 -9.15 24.0 -5.2 19.6 -4.3 16.85 -0.2 16.05 -6.6 11.5 -9.2 15.05 -12.05 14.8 -17.9 14.4 -23.45 10.3 -25.95 12.25 -28.55 12.05 -32.0 11.8 -34.5 10.5 -36.45 9.3 -38.3 7.5 -39.0 8.5 -40.95 8.45 -43.55 8.3 -46.5 6.45 -48.35 4.85 -50.3 2.55 -50.25 0.3 -50.0 -1.15 -47.85 -2.55 -45.65 -2.35 -42.7 L-2.25 -42.0 Q-6.5 -40.35 -6.55 -35.05 -6.75 -31.85 -5.0 -29.3 -8.2 -26.75 -8.45 -21.85 -8.7 -17.45 -6.1 -14.1 -10.5 -11.3 -10.9 -4.7 L-11.1 -4.7 Q-11.15 -7.7 -12.55 -10.8 -15.35 -16.65 -20.55 -17.75 -19.35 -21.6 -21.25 -25.7 -23.4 -30.35 -27.35 -31.25 -26.8 -34.55 -28.05 -37.15" fill="#5e3b19" fill-rule="evenodd" stroke="none"/>
  </g>
</svg>
