<?xml version="1.0" encoding="UTF-8" standalone="no"?>
<svg xmlns:ffdec="https://www.free-decompiler.com/flash" xmlns:xlink="http://www.w3.org/1999/xlink" ffdec:objectType="shape" height="37.45px" width="40.85px" xmlns="http://www.w3.org/2000/svg">
  <g transform="matrix(1.0, 0.0, 0.0, 1.0, 20.4, 0.5)">
    <path d="M3.9 14.15 Q6.55 12.25 10.45 11.35 9.95 15.4 8.1 18.3 L8.75 19.25 Q11.4 17.55 15.3 16.85 14.3 21.85 11.25 24.75 L11.05 24.95 11.1 26.05 Q14.7 24.2 19.95 24.75 17.75 29.25 14.0 31.3 11.25 32.7 9.4 33.05 L8.95 34.0 8.25 35.35 7.7 36.35 7.7 36.3 7.55 36.45 6.1 33.1 Q-0.15 22.15 -12.8 18.0 -16.1 17.0 -19.85 16.55 L-19.65 16.3 -19.9 16.25 -19.75 16.15 -19.2 15.45 -18.5 14.75 -18.25 14.45 -18.1 14.5 -17.9 14.25 -17.65 14.05 Q-18.2 12.2 -17.6 8.5 -17.0 4.2 -13.2 0.0 -10.85 4.55 -11.5 8.75 L-11.7 9.95 -10.95 9.75 Q-9.45 5.7 -5.0 2.3 -3.8 6.35 -4.6 9.9 L-3.6 10.2 Q-1.55 7.4 2.2 5.15 3.0 9.35 1.95 12.8 L3.9 14.15 Z" fill="none" stroke="#376d16" stroke-linecap="round" stroke-linejoin="round" stroke-width="1.0"/>
    <path d="M-17.9 14.25 L-17.15 13.55 -16.9 13.25 -15.55 12.05 -15.5 12.0 -14.95 11.6 -14.3 11.15 Q-10.95 9.1 -6.95 9.4 L-6.75 9.5 -6.2 9.55 -6.1 9.55 Q-3.85 9.95 -1.1 11.15 L-1.3 11.4 -1.0 11.15 1.7 12.65 Q6.85 15.75 9.6 20.6 L10.05 21.35 10.2 21.7 10.5 22.25 10.9 23.9 Q11.45 27.4 10.4 30.65 L9.95 31.9 9.6 32.6 9.45 32.9 8.95 34.0 7.55 36.45 Q6.0 32.35 3.65 29.1 0.95 25.45 -2.65 22.8 -9.5 17.85 -19.85 16.55 L-17.9 14.25" fill="#376d16" fill-rule="evenodd" stroke="none"/>
    <path d="M-14.55 8.4 L-15.95 15.7 -14.55 8.4 M-15.95 15.7 Q-18.7 15.25 -17.6 8.5 -17.0 4.2 -13.2 0.0 -10.85 4.55 -11.5 8.75 -12.65 15.9 -15.6 15.75 L-15.95 15.7" fill="#58af23" fill-rule="evenodd" stroke="none"/>
    <path d="M-15.95 15.7 L-14.55 8.4" fill="none" stroke="#4d8e1c" stroke-linecap="round" stroke-linejoin="round" stroke-width="0.4"/>
    <path d="M-10.7 17.3 Q-13.25 16.3 -11.0 9.8 -9.5 5.75 -5.0 2.3 -3.55 7.2 -5.0 11.3 -7.45 18.1 -10.35 17.35 L-10.7 17.3 -7.9 10.3 -10.7 17.3" fill="#58af23" fill-rule="evenodd" stroke="none"/>
    <path d="M-10.7 17.3 L-7.9 10.3" fill="none" stroke="#4d8e1c" stroke-linecap="round" stroke-linejoin="round" stroke-width="0.4"/>
    <path d="M-1.7 13.2 L-5.3 20.2 -1.7 13.2 M-5.3 20.2 Q-7.9 18.85 -4.85 12.3 -2.9 8.2 2.2 5.15 3.2 10.45 1.25 14.55 -2.05 21.45 -4.95 20.3 L-5.3 20.2" fill="#58af23" fill-rule="evenodd" stroke="none"/>
    <path d="M-5.3 20.2 L-1.7 13.2" fill="none" stroke="#4d8e1c" stroke-linecap="round" stroke-linejoin="round" stroke-width="0.4"/>
    <path d="M6.0 31.8 Q4.8 29.4 10.75 26.2 14.45 24.2 19.95 24.75 17.75 29.25 14.0 31.3 7.7 34.55 6.1 32.15 L6.0 31.8 Q9.25 30.2 12.55 28.55 9.25 30.2 6.0 31.8" fill="#58af23" fill-rule="evenodd" stroke="none"/>
    <path d="M6.0 31.8 Q9.25 30.2 12.55 28.55" fill="none" stroke="#4d8e1c" stroke-linecap="round" stroke-linejoin="round" stroke-width="0.4"/>
    <path d="M9.2 22.55 L3.65 27.4 9.2 22.55 M3.65 27.4 Q1.85 25.35 6.75 20.75 9.8 17.85 15.3 16.85 14.3 21.85 11.25 24.75 6.1 29.6 3.9 27.65 L3.65 27.4" fill="#58af23" fill-rule="evenodd" stroke="none"/>
    <path d="M3.65 27.4 L9.2 22.55" fill="none" stroke="#4d8e1c" stroke-linecap="round" stroke-linejoin="round" stroke-width="0.4"/>
    <path d="M-1.1 23.4 Q-3.2 21.3 1.6 16.05 4.75 12.7 10.45 11.35 9.8 16.65 6.8 19.9 1.65 25.6 -0.85 23.7 L-1.1 23.4 4.4 17.8 -1.1 23.4" fill="#58af23" fill-rule="evenodd" stroke="none"/>
    <path d="M-1.1 23.4 L4.4 17.8" fill="none" stroke="#4d8e1c" stroke-linecap="round" stroke-linejoin="round" stroke-width="0.4"/>
    <path d="M-18.25 14.45 Q1.8 17.5 8.7 34.2 L8.6 34.55 7.7 36.35 Q0.3 19.6 -19.9 16.25 L-19.75 16.15 -19.2 15.45 -18.5 14.75 -18.25 14.45" fill="#4f961d" fill-rule="evenodd" stroke="none"/>
  </g>
</svg>
