<?xml version="1.0" encoding="UTF-8" standalone="no"?>
<svg xmlns:ffdec="https://www.free-decompiler.com/flash" xmlns:xlink="http://www.w3.org/1999/xlink" ffdec:objectType="shape" height="70.9px" width="75.05px" xmlns="http://www.w3.org/2000/svg">
  <g transform="matrix(1.0, 0.0, 0.0, 1.0, 36.6, 46.65)">
    <path d="M31.6 -18.4 Q36.65 -8.1 38.35 6.65 2.55 34.4 -34.45 18.1 -34.95 14.25 -35.6 10.35 -36.95 0.45 -36.3 -7.1 -35.45 -16.0 -32.25 -24.1 -25.2 -42.25 -10.4 -45.75 1.7 -48.8 13.1 -40.55 L15.3 -38.9 16.0 -38.4 18.15 -36.55 Q26.55 -28.8 31.6 -18.4" fill="#333399" fill-rule="evenodd" stroke="none"/>
    <path d="M31.6 -18.4 Q36.65 -8.1 38.35 6.65 2.55 34.4 -34.45 18.1 -34.95 14.25 -35.6 10.35 -36.95 0.45 -36.3 -7.1 -35.45 -16.0 -32.25 -24.1 -25.2 -42.25 -10.4 -45.75 1.7 -48.8 13.1 -40.55 L15.3 -38.9 16.0 -38.4 18.15 -36.55 Q26.55 -28.8 31.6 -18.4 Z" fill="none" stroke="#000000" stroke-linecap="round" stroke-linejoin="round" stroke-opacity="0.2" stroke-width="0.2"/>
    <path d="M6.55 -28.45 L10.25 -16.7 -8.4 8.35 -29.4 -16.7 -24.7 -27.8 6.55 -28.45" fill="#a82b00" fill-rule="evenodd" stroke="none"/>
    <path d="M6.55 -28.45 L-24.7 -27.8 -29.4 -16.7 -8.4 8.35 10.25 -16.7 6.55 -28.45 Z" fill="none" stroke="#f8da07" stroke-linecap="round" stroke-linejoin="round" stroke-width="0.75"/>
    <path d="M2.05 -22.1 Q2.85 -21.25 2.85 -19.85 L2.55 -18.45 1.2 -17.25 -9.4 -9.55 -0.5 -9.55 Q1.2 -9.75 2.2 -9.05 3.2 -8.5 3.2 -7.1 3.2 -5.7 2.2 -5.0 1.2 -4.5 -0.5 -4.5 L-18.8 -4.5 -20.85 -5.0 Q-21.5 -5.35 -21.85 -5.9 L-22.15 -7.3 Q-22.35 -8.15 -21.85 -8.7 -21.35 -9.55 -20.0 -10.45 L-9.4 -17.95 -17.3 -17.95 -20.15 -18.45 Q-21.15 -18.95 -21.15 -20.35 -21.15 -21.75 -20.15 -22.45 -19.15 -23.0 -16.8 -23.0 L-0.85 -23.0 Q1.0 -23.0 2.05 -22.1" fill="#f8da07" fill-rule="evenodd" stroke="none"/>
  </g>
</svg>
