<?xml version="1.0" encoding="UTF-8" standalone="no"?>
<svg xmlns:ffdec="https://www.free-decompiler.com/flash" xmlns:xlink="http://www.w3.org/1999/xlink" ffdec:objectType="shape" height="92.5px" width="150.3px" xmlns="http://www.w3.org/2000/svg">
  <g transform="matrix(1.0, 0.0, 0.0, 1.0, 75.35, 74.3)">
    <path d="M3.7 -73.65 Q18.2 -72.25 31.15 -65.5 43.15 -59.35 50.9 -48.25 L51.0 -48.1 59.75 -58.8 55.9 -45.2 74.95 -45.15 59.4 -39.25 Q63.6 -37.6 66.95 -33.85 72.9 -27.2 72.9 -17.85 72.9 -10.15 68.85 -4.3 65.15 5.4 51.25 11.75 33.6 19.85 9.75 17.75 -14.1 15.65 -30.1 4.65 -46.1 -6.4 -44.9 -19.9 L-44.4 -22.9 Q-58.8 -29.1 -68.3 -34.0 L-75.35 -37.8 -54.45 -41.6 -58.15 -41.95 -61.8 -42.75 -69.15 -44.45 -73.7 -45.75 -74.35 -45.95 Q-63.25 -55.75 -50.2 -62.85 -38.55 -69.3 -25.6 -72.15 -11.05 -75.5 3.7 -73.65" fill="#000000" fill-rule="evenodd" stroke="none"/>
  </g>
</svg>
