<?xml version="1.0" encoding="UTF-8" standalone="no"?>
<svg xmlns:ffdec="https://www.free-decompiler.com/flash" xmlns:xlink="http://www.w3.org/1999/xlink" ffdec:objectType="shape" height="70.55px" width="74.65px" xmlns="http://www.w3.org/2000/svg">
  <g transform="matrix(1.0, 0.0, 0.0, 1.0, 36.55, 46.25)">
    <path d="M31.5 -17.4 Q36.65 -6.55 38.0 6.85 2.35 34.45 -34.45 18.2 L-35.6 10.5 Q-36.95 1.5 -36.1 -6.9 -35.45 -15.75 -32.25 -23.8 -25.25 -41.85 -10.5 -45.35 1.55 -48.35 12.9 -40.15 L15.1 -38.5 15.75 -38.0 17.95 -36.15 Q26.3 -28.45 31.5 -17.4" fill="#b971f4" fill-rule="evenodd" stroke="none"/>
    <path d="M31.5 -17.4 Q36.65 -6.55 38.0 6.85 2.35 34.45 -34.45 18.2 L-35.6 10.5 Q-36.95 1.5 -36.1 -6.9 -35.45 -15.75 -32.25 -23.8 -25.25 -41.85 -10.5 -45.35 1.55 -48.35 12.9 -40.15 L15.1 -38.5 15.75 -38.0 17.95 -36.15 Q26.3 -28.45 31.5 -17.4 Z" fill="none" stroke="#000000" stroke-linecap="round" stroke-linejoin="round" stroke-opacity="0.2" stroke-width="0.2"/>
    <path d="M2.35 -26.8 Q9.3 -21.7 10.3 -12.8 11.25 -4.15 5.75 2.75 0.3 8.95 -7.85 9.25 -15.6 9.5 -21.35 4.3 -27.05 -1.1 -27.85 -8.6 -28.7 -16.2 -24.3 -22.25 -19.95 -28.75 -12.35 -30.05 -4.45 -31.65 2.35 -26.8 M6.9 -12.45 Q5.95 -19.85 0.1 -24.15 -4.6 -27.75 -10.2 -27.25 L-8.55 -13.4 5.0 -2.3 Q7.35 -6.85 6.9 -12.45 M-11.55 -8.2 L-19.4 2.05 Q-15.4 5.75 -10.0 6.2 L-11.55 -8.2 M-6.4 6.1 Q-1.0 5.2 2.85 0.75 L-7.95 -8.2 -6.4 6.1 M-22.3 -20.65 Q-26.05 -15.4 -25.2 -8.9 -24.85 -4.2 -21.9 -0.35 L-12.15 -13.3 -13.6 -26.75 Q-18.95 -25.15 -22.3 -20.65" fill="#ffffff" fill-rule="evenodd" stroke="none"/>
  </g>
</svg>
