<?xml version="1.0" encoding="UTF-8" standalone="no"?>
<svg xmlns:ffdec="https://www.free-decompiler.com/flash" xmlns:xlink="http://www.w3.org/1999/xlink" ffdec:objectType="shape" height="70.75px" width="74.35px" xmlns="http://www.w3.org/2000/svg">
  <g transform="matrix(1.0, 0.0, 0.0, 1.0, 36.55, 46.45)">
    <path d="M14.9 -38.65 L15.55 -38.1 17.7 -36.3 Q26.0 -28.6 31.05 -18.2 35.85 -7.95 37.7 6.75 2.2 34.45 -34.45 18.15 L-35.6 10.45 Q-36.95 1.4 -36.1 -6.95 -35.45 -15.85 -32.3 -23.9 -25.25 -42.0 -10.65 -45.55 1.4 -48.5 12.75 -40.35 L14.9 -38.65 M1.05 -11.35 L9.2 -21.9 -4.25 -19.35 -11.8 -33.45 -15.8 -16.85 -28.15 -14.3 -18.1 -8.3 -20.45 5.75 -7.9 -5.45 11.4 0.25 1.05 -11.35" fill="#ffff00" fill-rule="evenodd" stroke="none"/>
    <path d="M1.05 -11.35 L11.4 0.25 -7.9 -5.45 -20.45 5.75 -18.1 -8.3 -28.15 -14.3 -15.8 -16.85 -11.8 -33.45 -4.25 -19.35 9.2 -21.9 1.05 -11.35" fill="#ff9900" fill-rule="evenodd" stroke="none"/>
    <path d="M14.9 -38.65 L15.55 -38.1 17.7 -36.3 Q26.0 -28.6 31.05 -18.2 35.85 -7.95 37.7 6.75 2.2 34.45 -34.45 18.15 L-35.6 10.45 Q-36.95 1.4 -36.1 -6.95 -35.45 -15.85 -32.3 -23.9 -25.25 -42.0 -10.65 -45.55 1.4 -48.5 12.75 -40.35 L14.9 -38.65 Z" fill="none" stroke="#000000" stroke-linecap="round" stroke-linejoin="round" stroke-opacity="0.2" stroke-width="0.2"/>
  </g>
</svg>
