<?xml version="1.0" encoding="UTF-8" standalone="no"?>
<svg xmlns:ffdec="https://www.free-decompiler.com/flash" xmlns:xlink="http://www.w3.org/1999/xlink" ffdec:objectType="shape" height="139.1px" width="147.8px" xmlns="http://www.w3.org/2000/svg">
  <g transform="matrix(1.0, 0.0, 0.0, 1.0, 69.05, 75.0)">
    <path d="M51.0 -59.7 Q53.35 -58.1 54.5 -58.0 55.65 -57.95 56.65 -58.7 57.65 -59.45 60.05 -62.85 62.45 -66.4 65.2 -64.7 L65.65 -64.45" fill="none" stroke="#000000" stroke-linecap="round" stroke-linejoin="round" stroke-width="2.0"/>
    <path d="M53.05 -74.0 Q55.25 -69.95 55.15 -67.85 55.05 -65.75 53.8 -64.6 52.55 -63.5 51.55 -60.85 50.55 -58.25 53.75 -55.3" fill="none" stroke="#000000" stroke-linecap="round" stroke-linejoin="round" stroke-width="2.0"/>
    <path d="M10.55 -50.15 Q15.55 -58.95 26.1 -62.5 36.65 -65.95 47.45 -61.95 59.8 -57.65 65.5 -46.9 71.3 -36.1 67.55 -25.05 L66.3 -22.3 Q65.05 -19.55 61.0 -15.0 54.7 -28.8 40.45 -36.85 26.35 -44.6 8.3 -44.85 L8.55 -45.9 10.55 -50.15" fill="#000000" fill-rule="evenodd" stroke="none"/>
    <path d="M-2.8 -37.85 Q24.6 -37.85 44.15 -22.8 63.5 -7.95 63.5 13.15 63.5 34.2 44.15 49.3 24.6 64.1 -2.8 64.1 -30.15 64.1 -49.7 49.3 -69.05 34.2 -69.05 13.15 -69.05 -7.95 -49.7 -22.8 -30.15 -37.85 -2.8 -37.85" fill="#000000" fill-rule="evenodd" stroke="none"/>
    <path d="M-29.7 -32.15 Q-31.1 -33.85 -32.85 -35.1 -34.25 -36.1 -34.75 -37.0 -35.6 -38.45 -34.95 -39.5 L-33.1 -41.25 Q-31.2 -43.4 -32.8 -47.5" fill="none" stroke="#000000" stroke-linecap="round" stroke-linejoin="round" stroke-width="2.0"/>
    <path d="M77.75 2.2 L75.9 4.15 Q74.35 5.9 72.1 5.9 L66.8 5.7 Q64.0 5.6 61.6 9.8" fill="none" stroke="#000000" stroke-linecap="round" stroke-linejoin="round" stroke-width="2.0"/>
    <path d="M-32.0 -31.45 Q-37.45 -30.3 -39.05 -32.8 L-42.0 -37.65 Q-43.2 -40.15 -47.05 -39.6 L-49.95 -38.95" fill="none" stroke="#000000" stroke-linecap="round" stroke-linejoin="round" stroke-width="2.0"/>
    <path d="M75.1 18.0 Q74.9 13.65 71.05 11.8 67.15 9.9 64.4 11.55 61.65 13.15 59.7 10.15 57.75 7.15 58.55 5.8" fill="none" stroke="#000000" stroke-linecap="round" stroke-linejoin="round" stroke-width="2.0"/>
  </g>
</svg>
