<?xml version="1.0" encoding="UTF-8" standalone="no"?>
<svg xmlns:ffdec="https://www.free-decompiler.com/flash" xmlns:xlink="http://www.w3.org/1999/xlink" ffdec:objectType="shape" height="70.65px" width="75.25px" xmlns="http://www.w3.org/2000/svg">
  <g transform="matrix(1.0, 0.0, 0.0, 1.0, 36.55, 46.45)">
    <path d="M3.95 -45.0 Q8.45 -43.65 13.0 -40.3 L15.15 -38.6 15.8 -38.1 18.0 -36.3 Q26.35 -28.6 31.05 -19.05 35.6 -9.65 38.6 6.75 24.55 17.5 9.6 21.85 -5.8 -24.7 3.95 -45.0" fill="#00cc00" fill-rule="evenodd" stroke="none"/>
    <path d="M-18.85 -41.8 Q-15.15 -44.5 -10.5 -45.5 -3.45 -47.35 3.6 -45.15 L3.95 -45.0 Q-5.8 -24.7 9.6 21.85 -2.05 25.0 -13.8 23.7 L-13.95 23.7 Q-28.6 -16.85 -18.85 -41.8" fill="#ffff00" fill-rule="evenodd" stroke="none"/>
    <path d="M-13.95 23.7 Q-24.55 22.35 -34.45 18.15 L-35.6 10.45 Q-36.95 1.4 -36.1 -6.95 -35.45 -15.8 -32.25 -23.9 -27.35 -36.3 -18.85 -41.8 -28.6 -16.85 -13.95 23.7" fill="#ff0000" fill-rule="evenodd" stroke="none"/>
    <path d="M-18.85 -41.8 Q-15.15 -44.5 -10.5 -45.5 -3.45 -47.35 3.6 -45.15 L3.95 -45.0 Q8.45 -43.65 13.0 -40.3 L15.15 -38.6 15.8 -38.1 18.0 -36.3 Q26.35 -28.6 31.05 -19.05 35.6 -9.65 38.6 6.75 24.55 17.5 9.6 21.85 -2.05 25.0 -13.8 23.7 L-13.95 23.7 Q-24.55 22.35 -34.45 18.15 L-35.6 10.45 Q-36.95 1.4 -36.1 -6.95 -35.45 -15.8 -32.25 -23.9 -27.35 -36.3 -18.85 -41.8 Z" fill="none" stroke="#000000" stroke-linecap="round" stroke-linejoin="round" stroke-opacity="0.2" stroke-width="0.2"/>
  </g>
</svg>
