<?xml version="1.0" encoding="UTF-8" standalone="no"?>
<svg xmlns:ffdec="https://www.free-decompiler.com/flash" xmlns:xlink="http://www.w3.org/1999/xlink" ffdec:objectType="shape" height="70.7px" width="74.8px" xmlns="http://www.w3.org/2000/svg">
  <g transform="matrix(1.0, 0.0, 0.0, 1.0, 36.55, 46.45)">
    <path d="M-28.9 -30.95 Q-22.05 -42.7 -10.5 -45.55 1.6 -48.55 13.0 -40.35 L14.5 -39.15 Q-7.15 -26.6 -28.9 -30.95 M27.4 -25.1 Q29.6 -21.55 31.4 -17.7 33.75 -12.7 35.45 -6.8 1.9 15.3 -36.1 5.95 -36.8 -0.8 -36.1 -7.0 -35.95 -9.85 -35.45 -12.5 L-35.3 -13.2 Q-6.1 -6.3 27.4 -25.1" fill="#000000" fill-rule="evenodd" stroke="none"/>
    <path d="M14.5 -39.15 L15.15 -38.65 15.85 -38.15 18.0 -36.3 Q23.4 -31.3 27.4 -25.1 -6.1 -6.3 -35.3 -13.2 -34.3 -18.7 -32.25 -23.9 -30.75 -27.75 -28.9 -30.95 -7.15 -26.6 14.5 -39.15 M35.45 -6.8 Q37.6 1.25 38.15 6.75 2.45 34.4 -34.45 18.15 L-35.6 10.45 -36.1 5.95 Q1.9 15.3 35.45 -6.8" fill="#ffffff" fill-rule="evenodd" stroke="none"/>
    <path d="M14.5 -39.15 L15.15 -38.65 15.85 -38.15 18.0 -36.3 Q23.4 -31.3 27.4 -25.1 29.6 -21.55 31.4 -17.7 33.75 -12.7 35.45 -6.8 37.6 1.25 38.15 6.75 2.45 34.4 -34.45 18.15 L-35.6 10.45 -36.1 5.95 Q-36.8 -0.8 -36.1 -7.0 -35.95 -9.85 -35.45 -12.5 L-35.3 -13.2 Q-34.3 -18.7 -32.25 -23.9 -30.75 -27.75 -28.9 -30.95 -22.05 -42.7 -10.5 -45.55 1.6 -48.55 13.0 -40.35 L14.5 -39.15 Z" fill="none" stroke="#000000" stroke-linecap="round" stroke-linejoin="round" stroke-opacity="0.2" stroke-width="0.2"/>
  </g>
</svg>
