<?xml version="1.0" encoding="UTF-8" standalone="no"?>
<svg
   ffdec:objectType="shape"
   height="70.8px"
   width="74.95px"
   version="1.1"
   id="svg190"
   sodipodi:docname="1.svg"
   inkscape:version="1.2.2 (b0a8486, 2022-12-01)"
   xmlns:inkscape="http://www.inkscape.org/namespaces/inkscape"
   xmlns:sodipodi="http://sodipodi.sourceforge.net/DTD/sodipodi-0.dtd"
   xmlns="http://www.w3.org/2000/svg"
   xmlns:svg="http://www.w3.org/2000/svg"
   xmlns:ffdec="https://www.free-decompiler.com/flash">
  <defs
     id="defs194" />
  <sodipodi:namedview
     id="namedview192"
     pagecolor="#ffffff"
     bordercolor="#000000"
     borderopacity="0.25"
     inkscape:showpageshadow="2"
     inkscape:pageopacity="0.0"
     inkscape:pagecheckerboard="0"
     inkscape:deskcolor="#d1d1d1"
     showgrid="false"
     inkscape:zoom="3.3333332"
     inkscape:cx="-7.9500003"
     inkscape:cy="35.400002"
     inkscape:window-width="1309"
     inkscape:window-height="456"
     inkscape:window-x="0"
     inkscape:window-y="25"
     inkscape:window-maximized="0"
     inkscape:current-layer="svg190" />
  <g
     transform="matrix(1.0, 0.0, 0.0, 1.0, 36.6, 46.5)"
     id="g188">
    <path
       d="M31.5 -18.25 Q36.55 -8.05 38.25 6.75 2.5 34.45 -34.45 18.15 L-35.6 10.45 Q-36.95 0.55 -36.3 -7.0 -35.45 -15.9 -32.25 -23.95 -25.2 -42.1 -10.45 -45.6 1.65 -48.65 13.05 -40.4 L15.25 -38.75 15.9 -38.25 Q17.1 -37.4 18.1 -36.4 26.5 -28.65 31.5 -18.25"
       fill="#993300"
       fill-rule="evenodd"
       stroke="none"
       id="path182"
       style="fill:#ffffff" />
    <path
       d="M31.5 -18.25 Q36.55 -8.05 38.25 6.75 2.5 34.45 -34.45 18.15 L-35.6 10.45 Q-36.95 0.55 -36.3 -7.0 -35.45 -15.9 -32.25 -23.95 -25.2 -42.1 -10.45 -45.6 1.65 -48.65 13.05 -40.4 L15.25 -38.75 15.9 -38.25 Q17.1 -37.4 18.1 -36.4 26.5 -28.65 31.5 -18.25 Z"
       fill="none"
       stroke="#000000"
       stroke-linecap="round"
       stroke-linejoin="round"
       stroke-opacity="0.2"
       stroke-width="0.2"
       id="path184" />
    <path
       d="M-10.45 -17.1 L-0.9 -10.55 -10.95 -0.65 -0.9 6.05 -10.45 17.5 -9.75 6.75 -21.85 -1.65 -17.5 -5.5 Q-12.95 -9.55 -13.15 -9.9 -13.3 -10.4 -18.65 -13.25 L-24.05 -16.1 Q-22.2 -21.45 -20.5 -27.0 L-3.25 -28.5 -10.45 -17.1"
       fill="#ffd83c"
       fill-rule="evenodd"
       stroke="none"
       id="path186" />
  </g>
</svg>
