<?xml version="1.0" encoding="UTF-8" standalone="no"?>
<svg xmlns:ffdec="https://www.free-decompiler.com/flash" xmlns:xlink="http://www.w3.org/1999/xlink" ffdec:objectType="shape" height="164.0px" width="254.8px" xmlns="http://www.w3.org/2000/svg">
  <g transform="matrix(1.0, 0.0, 0.0, 1.0, 22.55, -1.6)">
    <path d="M226.7 20.5 L226.7 151.1 Q226.7 157.1 222.45 161.4 218.2 165.6 212.15 165.6 L-8.05 165.6 Q-14.05 165.6 -18.3 161.4 -22.55 157.1 -22.55 151.1 L-22.55 20.5 Q-22.55 14.45 -18.3 10.2 -14.05 5.95 -8.05 5.95 L212.15 5.95 Q218.2 5.95 222.45 10.2 226.7 14.45 226.7 20.5" fill="#000000" fill-opacity="0.14901961" fill-rule="evenodd" stroke="none"/>
    <path d="M231.5 16.85 L231.5 147.45 Q231.5 153.45 227.3 157.75 223.05 162.0 217.0 162.0 L-3.2 162.0 Q-9.2 162.0 -13.45 157.75 -17.75 153.45 -17.75 147.45 L-17.75 16.85 Q-17.75 10.8 -13.45 6.55 -9.2 2.35 -3.2 2.35 L217.0 2.35 Q223.05 2.35 227.3 6.55 231.5 10.8 231.5 16.85" fill="#3398fb" fill-rule="evenodd" stroke="none"/>
    <path d="M231.5 16.85 L231.5 147.45 Q231.5 153.45 227.3 157.75 223.05 162.0 217.0 162.0 L-3.2 162.0 Q-9.2 162.0 -13.45 157.75 -17.75 153.45 -17.75 147.45 L-17.75 16.85 Q-17.75 10.8 -13.45 6.55 -9.2 2.35 -3.2 2.35 L217.0 2.35 Q223.05 2.35 227.3 6.55 231.5 10.8 231.5 16.85 Z" fill="none" stroke="#3349a6" stroke-linecap="butt" stroke-linejoin="miter-clip" stroke-miterlimit="4.0" stroke-width="1.5"/>
    <path d="M229.1 16.85 L229.1 147.45 Q229.1 152.5 225.6 156.0 222.0 159.55 217.0 159.55 L-3.2 159.55 Q-8.15 159.55 -11.75 156.0 -15.3 152.5 -15.3 147.45 L-15.3 16.85 Q-15.3 11.85 -11.75 8.25 -8.25 4.75 -3.2 4.75 L217.0 4.75 Q222.0 4.75 225.6 8.25 229.1 11.85 229.1 16.85 Z" fill="none" stroke="#fefefe" stroke-linecap="butt" stroke-linejoin="miter-clip" stroke-miterlimit="4.0" stroke-opacity="0.2" stroke-width="2.0"/>
    <path d="M217.0 3.55 Q222.55 3.55 226.45 7.4 230.3 11.35 230.3 16.85 L230.3 27.75 -16.5 27.75 -16.5 16.85 Q-16.5 11.35 -12.6 7.4 -8.7 3.55 -3.2 3.55 L217.0 3.55" fill="url(#gradient0)" fill-rule="evenodd" stroke="none"/>
    <path d="M-17.75 146.6 L-17.75 143.0 231.5 143.0 231.5 146.6 Q231.5 152.2 227.65 156.05 223.8 159.95 218.2 159.95 L-4.4 159.95 Q-9.95 159.95 -13.8 156.05 -17.75 152.1 -17.75 146.6" fill="url(#gradient1)" fill-rule="evenodd" stroke="none"/>
  </g>
  <defs>
    <linearGradient gradientTransform="matrix(0.0, 0.0227, 0.0227, 0.0, 106.9, 15.65)" gradientUnits="userSpaceOnUse" id="gradient0" spreadMethod="pad" x1="-819.2" x2="819.2">
      <stop offset="0.0" stop-color="#fefefe" stop-opacity="0.4"/>
      <stop offset="1.0" stop-color="#fefefe" stop-opacity="0.0"/>
    </linearGradient>
    <linearGradient gradientTransform="matrix(0.0, -0.0159, -0.0159, 0.0, 106.9, 151.45)" gradientUnits="userSpaceOnUse" id="gradient1" spreadMethod="pad" x1="-819.2" x2="819.2">
      <stop offset="0.0" stop-color="#fefefe" stop-opacity="0.2"/>
      <stop offset="1.0" stop-color="#fefefe" stop-opacity="0.0"/>
    </linearGradient>
  </defs>
</svg>
