<?xml version="1.0" encoding="UTF-8" standalone="no"?>
<svg xmlns:ffdec="https://www.free-decompiler.com/flash" xmlns:xlink="http://www.w3.org/1999/xlink" ffdec:objectType="shape" height="30.1px" width="69.7px" xmlns="http://www.w3.org/2000/svg">
  <g transform="matrix(1.0, 0.0, 0.0, 1.0, 34.8, 15.05)">
    <path d="M33.15 -13.45 Q34.3 -12.3 34.3 -10.75 L34.3 10.65 Q34.3 12.25 33.15 13.4 32.0 14.55 30.4 14.55 L-30.45 14.55 Q-32.05 14.55 -33.2 13.4 -34.3 12.25 -34.3 10.65 L-34.3 -10.75 Q-34.3 -12.35 -33.2 -13.45 -32.05 -14.55 -30.45 -14.55 L30.4 -14.55 Q32.0 -14.55 33.15 -13.45" fill="#ea6051" fill-rule="evenodd" stroke="none"/>
    <path d="M33.15 -13.45 Q34.3 -12.3 34.3 -10.75 L34.3 10.65 Q34.3 12.25 33.15 13.4 32.0 14.55 30.4 14.55 L-30.45 14.55 Q-32.05 14.55 -33.2 13.4 -34.3 12.25 -34.3 10.65 L-34.3 -10.75 Q-34.3 -12.35 -33.2 -13.45 -32.05 -14.55 -30.45 -14.55 L30.4 -14.55 Q32.0 -14.55 33.15 -13.45 Z" fill="none" stroke="#28609c" stroke-linecap="butt" stroke-linejoin="miter-clip" stroke-miterlimit="4.0" stroke-width="1.0"/>
    <path d="M30.4 -13.55 Q31.6 -13.55 32.45 -12.7 33.3 -11.9 33.3 -10.75 L33.3 -5.9 -33.3 -5.9 -33.3 -10.75 Q-33.3 -11.9 -32.45 -12.7 -31.65 -13.55 -30.45 -13.55 L30.4 -13.55" fill="url(#gradient0)" fill-rule="evenodd" stroke="none"/>
  </g>
  <defs>
    <linearGradient gradientTransform="matrix(0.0, 0.0079, 0.0079, 0.0, 0.0, -7.85)" gradientUnits="userSpaceOnUse" id="gradient0" spreadMethod="pad" x1="-819.2" x2="819.2">
      <stop offset="0.0" stop-color="#fefefe" stop-opacity="0.49803922"/>
      <stop offset="1.0" stop-color="#fefefe" stop-opacity="0.047058824"/>
    </linearGradient>
  </defs>
</svg>
