<?xml version="1.0" encoding="UTF-8" standalone="no"?>
<svg xmlns:ffdec="https://www.free-decompiler.com/flash" xmlns:xlink="http://www.w3.org/1999/xlink" ffdec:objectType="shape" height="37.95px" width="37.95px" xmlns="http://www.w3.org/2000/svg">
  <g transform="matrix(1.0, 0.0, 0.0, 1.0, 18.95, -0.05)">
    <path d="M12.75 6.3 Q18.0 11.55 18.0 19.0 18.0 26.45 12.75 31.7 7.5 37.0 0.05 37.0 -7.4 37.0 -12.7 31.7 -17.95 26.45 -17.95 19.0 -17.95 11.55 -12.7 6.3 -7.4 1.05 0.05 1.05 7.5 1.05 12.75 6.3" fill="#0083f2" fill-rule="evenodd" stroke="none"/>
    <path d="M12.75 6.3 Q18.0 11.55 18.0 19.0 18.0 26.45 12.75 31.7 7.5 37.0 0.05 37.0 -7.4 37.0 -12.7 31.7 -17.95 26.45 -17.95 19.0 -17.95 11.55 -12.7 6.3 -7.4 1.05 0.05 1.05 7.5 1.05 12.75 6.3 Z" fill="none" stroke="#ffffff" stroke-linecap="round" stroke-linejoin="round" stroke-opacity="0.49803922" stroke-width="2.0"/>
  </g>
</svg>
