<?xml version="1.0" encoding="UTF-8" standalone="no"?>
<svg xmlns:ffdec="https://www.free-decompiler.com/flash" xmlns:xlink="http://www.w3.org/1999/xlink" ffdec:objectType="shape" height="23.5px" width="18.5px" xmlns="http://www.w3.org/2000/svg">
  <g transform="matrix(1.0, 0.0, 0.0, 1.0, 58.0, 108.0)">
    <path d="M-51.0 -107.0 Q-48.5 -107.0 -46.75 -105.25 -45.0 -103.5 -45.0 -101.0 -45.0 -98.5 -46.75 -96.75 -48.5 -95.0 -51.0 -95.0 -53.5 -95.0 -55.25 -96.75 -57.0 -98.5 -57.0 -101.0 -57.0 -103.5 -55.25 -105.25 -53.5 -107.0 -51.0 -107.0" fill="#ffffff" fill-rule="evenodd" stroke="none"/>
    <path d="M-51.0 -107.0 Q-48.5 -107.0 -46.75 -105.25 -45.0 -103.5 -45.0 -101.0 -45.0 -98.5 -46.75 -96.75 -48.5 -95.0 -51.0 -95.0 -53.5 -95.0 -55.25 -96.75 -57.0 -98.5 -57.0 -101.0 -57.0 -103.5 -55.25 -105.25 -53.5 -107.0 -51.0 -107.0 Z" fill="none" stroke="#000000" stroke-linecap="round" stroke-linejoin="round" stroke-opacity="0.2509804" stroke-width="2.0"/>
    <path d="M-41.7 -86.7 Q-42.85 -85.5 -44.5 -85.5 -46.15 -85.5 -47.35 -86.7 -48.5 -87.85 -48.5 -89.5 -48.5 -91.15 -47.35 -92.35 -46.15 -93.5 -44.5 -93.5 -42.85 -93.5 -41.7 -92.35 -40.5 -91.15 -40.5 -89.5 -40.5 -87.85 -41.7 -86.7" fill="#ffffff" fill-rule="evenodd" stroke="none"/>
    <path d="M-41.7 -86.7 Q-42.85 -85.5 -44.5 -85.5 -46.15 -85.5 -47.35 -86.7 -48.5 -87.85 -48.5 -89.5 -48.5 -91.15 -47.35 -92.35 -46.15 -93.5 -44.5 -93.5 -42.85 -93.5 -41.7 -92.35 -40.5 -91.15 -40.5 -89.5 -40.5 -87.85 -41.7 -86.7 Z" fill="none" stroke="#000000" stroke-linecap="round" stroke-linejoin="round" stroke-opacity="0.2509804" stroke-width="2.0"/>
  </g>
</svg>
