<?xml version="1.0" encoding="UTF-8" standalone="no"?>
<svg xmlns:ffdec="https://www.free-decompiler.com/flash" xmlns:xlink="http://www.w3.org/1999/xlink" ffdec:objectType="shape" height="62.0px" width="62.0px" xmlns="http://www.w3.org/2000/svg">
  <g transform="matrix(1.0, 0.0, 0.0, 1.0, 31.0, 31.0)">
    <path d="M-30.0 -13.0 L-30.0 -13.55 Q-29.7 -30.0 -13.0 -30.0 L-11.8 -30.0 12.3 -30.0 13.0 -30.0 Q29.7 -30.0 30.0 -13.55 L30.0 -13.0 30.0 13.0 Q30.0 30.0 13.0 30.0 L12.3 30.0 -11.8 30.0 -13.0 30.0 Q-30.0 30.0 -30.0 13.0 L-30.0 -13.0" fill="#ffffff" fill-rule="evenodd" stroke="none"/>
    <path d="M-30.0 -13.0 L-30.0 13.0 Q-30.0 30.0 -13.0 30.0 L-11.8 30.0 12.3 30.0 13.0 30.0 Q30.0 30.0 30.0 13.0 L30.0 -13.0 30.0 -13.55 Q29.7 -30.0 13.0 -30.0 L12.3 -30.0 -11.8 -30.0 -13.0 -30.0 Q-29.7 -30.0 -30.0 -13.55 L-30.0 -13.0 Z" fill="none" stroke="#000000" stroke-linecap="round" stroke-linejoin="round" stroke-opacity="0.2509804" stroke-width="2.0" vector-effect="non-scaling-stroke"/>
  </g>
</svg>
