<?xml version="1.0" encoding="UTF-8" standalone="no"?>
<svg xmlns:ffdec="https://www.free-decompiler.com/flash" xmlns:xlink="http://www.w3.org/1999/xlink" ffdec:objectType="shape" height="104.75px" width="93.2px" xmlns="http://www.w3.org/2000/svg">
  <g transform="matrix(1.0, 0.0, 0.0, 1.0, 46.6, 103.3)">
    <path d="M31.5 -21.0 Q34.0 -21.0 35.75 -19.25 37.5 -17.5 37.5 -15.05 37.5 -12.55 35.75 -10.8 34.0 -9.05 31.5 -9.05 29.0 -9.05 27.25 -10.8 25.5 -12.55 25.5 -15.05 25.5 -17.5 27.25 -19.25 29.0 -21.0 31.5 -21.0" fill="#ffffff" fill-rule="evenodd" stroke="none"/>
    <path d="M31.5 -21.0 Q34.0 -21.0 35.75 -19.25 37.5 -17.5 37.5 -15.05 37.5 -12.55 35.75 -10.8 34.0 -9.05 31.5 -9.05 29.0 -9.05 27.25 -10.8 25.5 -12.55 25.5 -15.05 25.5 -17.5 27.25 -19.25 29.0 -21.0 31.5 -21.0 Z" fill="none" stroke="#000000" stroke-linecap="round" stroke-linejoin="round" stroke-opacity="0.2509804" stroke-width="2.0"/>
    <path d="M40.8 -0.75 Q39.65 0.45 38.0 0.45 36.35 0.45 35.15 -0.75 34.0 -1.9 34.0 -3.55 34.0 -5.2 35.15 -6.4 36.35 -7.55 38.0 -7.55 39.65 -7.55 40.8 -6.4 42.0 -5.2 42.0 -3.55 42.0 -1.9 40.8 -0.75" fill="#ffffff" fill-rule="evenodd" stroke="none"/>
    <path d="M40.8 -0.75 Q39.65 0.45 38.0 0.45 36.35 0.45 35.15 -0.75 34.0 -1.9 34.0 -3.55 34.0 -5.2 35.15 -6.4 36.35 -7.55 38.0 -7.55 39.65 -7.55 40.8 -6.4 42.0 -5.2 42.0 -3.55 42.0 -1.9 40.8 -0.75 Z" fill="none" stroke="#000000" stroke-linecap="round" stroke-linejoin="round" stroke-opacity="0.2509804" stroke-width="2.0"/>
    <path d="M-33.0 -21.0 Q-35.5 -21.0 -37.25 -19.25 -39.0 -17.5 -39.0 -15.05 -39.0 -12.55 -37.25 -10.8 -35.5 -9.05 -33.0 -9.05 -30.5 -9.05 -28.75 -10.8 -27.0 -12.55 -27.0 -15.05 -27.0 -17.5 -28.75 -19.25 -30.5 -21.0 -33.0 -21.0" fill="#ffffff" fill-rule="evenodd" stroke="none"/>
    <path d="M-33.0 -21.0 Q-35.5 -21.0 -37.25 -19.25 -39.0 -17.5 -39.0 -15.05 -39.0 -12.55 -37.25 -10.8 -35.5 -9.05 -33.0 -9.05 -30.5 -9.05 -28.75 -10.8 -27.0 -12.55 -27.0 -15.05 -27.0 -17.5 -28.75 -19.25 -30.5 -21.0 -33.0 -21.0 Z" fill="none" stroke="#000000" stroke-linecap="round" stroke-linejoin="round" stroke-opacity="0.2509804" stroke-width="2.0"/>
    <path d="M-42.3 -0.75 Q-41.15 0.45 -39.5 0.45 -37.85 0.45 -36.65 -0.75 -35.5 -1.9 -35.5 -3.55 -35.5 -5.2 -36.65 -6.4 -37.85 -7.55 -39.5 -7.55 -41.15 -7.55 -42.3 -6.4 -43.5 -5.2 -43.5 -3.55 -43.5 -1.9 -42.3 -0.75" fill="#ffffff" fill-rule="evenodd" stroke="none"/>
    <path d="M-42.3 -0.75 Q-41.15 0.45 -39.5 0.45 -37.85 0.45 -36.65 -0.75 -35.5 -1.9 -35.5 -3.55 -35.5 -5.2 -36.65 -6.4 -37.85 -7.55 -39.5 -7.55 -41.15 -7.55 -42.3 -6.4 -43.5 -5.2 -43.5 -3.55 -43.5 -1.9 -42.3 -0.75 Z" fill="none" stroke="#000000" stroke-linecap="round" stroke-linejoin="round" stroke-opacity="0.2509804" stroke-width="2.0"/>
    <path d="M36.95 -99.55 Q45.8 -96.45 45.6 -79.2 L45.6 -78.8 43.45 -46.55 43.3 -44.0 Q42.9 -39.15 42.1 -35.4 40.1 -26.3 35.45 -24.7 L-10.0 -25.15 -30.3 -24.25 Q-32.7 -23.8 -37.35 -24.1 -44.1 -25.9 -44.55 -42.25 L-44.6 -44.15 -45.2 -64.5 -45.6 -82.65 Q-45.8 -94.5 -43.55 -97.7 -41.3 -100.95 -36.6 -101.6 -31.9 -102.2 -1.75 -102.1 L-1.35 -102.1 0.9 -102.1 3.2 -102.15 Q15.05 -102.4 20.0 -102.25 L28.7 -101.4 Q33.1 -100.75 36.3 -99.55 L36.95 -99.55" fill="#ffffff" fill-rule="evenodd" stroke="none"/>
    <path d="M36.95 -99.55 Q45.8 -96.45 45.6 -79.2 L45.6 -78.8 43.45 -46.55 43.3 -44.0 Q42.9 -39.15 42.1 -35.4 40.1 -26.3 35.45 -24.7 L-10.0 -25.15 -30.3 -24.25 Q-32.7 -23.8 -37.35 -24.1 -44.1 -25.9 -44.55 -42.25 L-44.6 -44.15 -45.2 -64.5 -45.6 -82.65 Q-45.8 -94.5 -43.55 -97.7 -41.3 -100.95 -36.6 -101.6 -31.9 -102.2 -1.75 -102.1 L-1.35 -102.1 0.9 -102.1 3.2 -102.15 Q15.05 -102.4 20.0 -102.25 L28.7 -101.4 Q33.1 -100.75 36.3 -99.55 L36.95 -99.55 Z" fill="none" stroke="#000000" stroke-linecap="round" stroke-linejoin="round" stroke-opacity="0.2509804" stroke-width="2.0" vector-effect="non-scaling-stroke"/>
  </g>
</svg>
