<?xml version="1.0" encoding="UTF-8" standalone="no"?>
<svg xmlns:ffdec="https://www.free-decompiler.com/flash" xmlns:xlink="http://www.w3.org/1999/xlink" ffdec:objectType="shape" height="75.2px" width="60.2px" xmlns="http://www.w3.org/2000/svg">
  <g transform="matrix(1.0, 0.0, 0.0, 1.0, 37.1, 74.7)">
    <path d="M23.1 -36.35 Q23.15 -25.4 18.7 -16.6 14.0 -7.35 1.35 0.4 L1.3 0.5 Q-9.0 -0.35 -15.9 -4.7 -25.75 -10.95 -26.3 -23.3 -26.45 -26.0 -26.0 -36.5 -25.65 -45.75 -26.3 -52.05 -26.75 -56.25 -31.85 -65.7 -34.5 -70.55 -37.1 -74.7 -33.7 -73.75 -29.5 -73.05 L-19.9 -72.05 Q-12.4 -71.3 -2.9 -67.9 6.55 -64.5 14.8 -55.9 23.0 -47.3 23.1 -36.35" fill="#666666" fill-rule="evenodd" stroke="none"/>
  </g>
</svg>
