<?xml version="1.0" encoding="UTF-8" standalone="no"?>
<svg xmlns:ffdec="https://www.free-decompiler.com/flash" xmlns:xlink="http://www.w3.org/1999/xlink" ffdec:objectType="shape" height="95.75px" width="209.75px" xmlns="http://www.w3.org/2000/svg">
  <g transform="matrix(1.0, 0.0, 0.0, 1.0, 105.0, 44.75)">
    <path d="M101.0 -29.0 L101.0 39.0 Q101.0 43.95 97.5 47.5 94.0 51.0 89.0 51.0 L-93.0 51.0 Q-97.95 51.0 -101.45 47.5 -105.0 43.95 -105.0 39.0 L-105.0 -29.0 Q-105.0 -34.0 -101.45 -37.5 -97.95 -41.0 -93.0 -41.0 L89.0 -41.0 Q94.0 -41.0 97.5 -37.5 101.0 -34.0 101.0 -29.0" fill="#000000" fill-opacity="0.14901961" fill-rule="evenodd" stroke="none"/>
    <path d="M104.0 -32.0 L104.0 36.0 Q104.0 40.95 100.5 44.5 97.0 48.0 92.0 48.0 L-90.0 48.0 Q-94.95 48.0 -98.45 44.5 -102.0 40.95 -102.0 36.0 L-102.0 -32.0 Q-102.0 -37.0 -98.45 -40.5 -94.95 -44.0 -90.0 -44.0 L92.0 -44.0 Q97.0 -44.0 100.5 -40.5 104.0 -37.0 104.0 -32.0" fill="#139ffd" fill-rule="evenodd" stroke="none"/>
    <path d="M104.0 -32.0 L104.0 36.0 Q104.0 40.95 100.5 44.5 97.0 48.0 92.0 48.0 L-90.0 48.0 Q-94.95 48.0 -98.45 44.5 -102.0 40.95 -102.0 36.0 L-102.0 -32.0 Q-102.0 -37.0 -98.45 -40.5 -94.95 -44.0 -90.0 -44.0 L92.0 -44.0 Q97.0 -44.0 100.5 -40.5 104.0 -37.0 104.0 -32.0 Z" fill="none" stroke="#234da9" stroke-linecap="butt" stroke-linejoin="miter-clip" stroke-miterlimit="4.0" stroke-width="1.5"/>
    <path d="M102.0 -32.0 L102.0 36.0 Q102.0 40.15 99.1 43.05 96.15 46.0 92.0 46.0 L-90.0 46.0 Q-94.1 46.0 -97.05 43.05 -100.0 40.15 -100.0 36.0 L-100.0 -32.0 Q-100.0 -36.15 -97.05 -39.1 -94.15 -42.0 -90.0 -42.0 L92.0 -42.0 Q96.15 -42.0 99.1 -39.1 102.0 -36.15 102.0 -32.0 Z" fill="none" stroke="#ffffff" stroke-linecap="butt" stroke-linejoin="miter-clip" stroke-miterlimit="4.0" stroke-opacity="0.2" stroke-width="2.0"/>
    <path d="M92.0 -43.0 Q96.6 -43.0 99.8 -39.8 103.0 -36.55 103.0 -32.0 L103.0 -23.0 -101.0 -23.0 -101.0 -32.0 Q-101.0 -36.55 -97.75 -39.8 -94.55 -43.0 -90.0 -43.0 L92.0 -43.0" fill="url(#gradient0)" fill-rule="evenodd" stroke="none"/>
    <path d="M104.0 32.3 L104.0 35.3 Q104.0 39.9 100.8 43.1 97.6 46.3 93.0 46.3 L-91.0 46.3 Q-95.55 46.3 -98.75 43.1 -102.0 39.85 -102.0 35.3 L-102.0 32.3 104.0 32.3" fill="url(#gradient1)" fill-rule="evenodd" stroke="none"/>
  </g>
  <defs>
    <linearGradient gradientTransform="matrix(0.0, 0.0187, 0.0187, 0.0, 1.0, -33.0)" gradientUnits="userSpaceOnUse" id="gradient0" spreadMethod="pad" x1="-819.2" x2="819.2">
      <stop offset="0.0" stop-color="#ffffff" stop-opacity="0.4"/>
      <stop offset="1.0" stop-color="#ffffff" stop-opacity="0.0"/>
    </linearGradient>
    <linearGradient gradientTransform="matrix(0.0, -0.0131, -0.0131, 0.0, 1.0, 39.3)" gradientUnits="userSpaceOnUse" id="gradient1" spreadMethod="pad" x1="-819.2" x2="819.2">
      <stop offset="0.0" stop-color="#ffffff" stop-opacity="0.2"/>
      <stop offset="1.0" stop-color="#ffffff" stop-opacity="0.0"/>
    </linearGradient>
  </defs>
</svg>
