<?xml version="1.0" encoding="UTF-8" standalone="no"?>
<svg xmlns:ffdec="https://www.free-decompiler.com/flash" xmlns:xlink="http://www.w3.org/1999/xlink" ffdec:objectType="shape" height="186.6px" width="274.5px" xmlns="http://www.w3.org/2000/svg">
  <g transform="matrix(1.0, 0.0, 0.0, 1.0, 136.9, 90.5)">
    <path d="M-119.35 -90.5 L120.05 -90.5 Q127.35 -90.5 132.55 -85.35 137.6 -80.25 137.6 -73.0 L137.6 78.55 Q137.6 85.85 132.55 91.0 127.35 96.1 120.05 96.1 L-119.35 96.1 Q-126.65 96.1 -131.7 91.0 -136.9 85.85 -136.9 78.55 L-136.9 -73.0 Q-136.9 -80.25 -131.7 -85.35 -126.65 -90.5 -119.35 -90.5" fill="#1c5283" fill-opacity="0.69803923" fill-rule="evenodd" stroke="none"/>
    <path d="M-121.45 -67.05 Q-121.45 -76.25 -112.2 -76.25 L112.7 -76.25 Q121.95 -76.25 121.95 -67.05 L121.95 72.5 Q121.95 81.75 112.7 81.75 L-112.2 81.75 Q-121.45 81.75 -121.45 72.5 L-121.45 -67.05" fill="#ffffff" fill-rule="evenodd" stroke="none"/>
  </g>
</svg>
