<?xml version="1.0" encoding="UTF-8" standalone="no"?>
<svg xmlns:ffdec="https://www.free-decompiler.com/flash" xmlns:xlink="http://www.w3.org/1999/xlink" ffdec:objectType="shape" height="10.35px" width="75.95px" xmlns="http://www.w3.org/2000/svg">
  <g transform="matrix(1.0, 0.0, 0.0, 1.0, 37.95, -31.65)">
    <path d="M-23.55 37.0 Q-23.55 37.5 -23.15 37.8 -22.7 38.15 -22.1 38.15 -21.45 38.15 -21.05 37.8 -20.65 37.5 -20.6 37.0 -20.65 36.5 -21.05 36.2 -21.45 35.85 -22.1 35.85 -22.7 35.85 -23.15 36.2 -23.55 36.5 -23.55 37.0 M2.0 35.85 L0.85 35.8 0.85 36.15 0.85 36.9 0.9 37.8 2.25 37.5 2.8 36.95 2.7 36.3 Q2.5 36.0 2.0 35.85 M-10.3 37.6 L-10.55 36.65 -10.85 35.7 -11.1 36.7 -11.4 37.75 -10.8 37.65 -10.3 37.6 M-16.55 36.65 Q-16.5 37.6 -16.85 38.5 -17.2 39.35 -17.95 40.05 -18.7 40.75 -19.8 41.2 L-22.35 41.6 -24.55 41.3 -26.4 40.35 -27.6 38.8 Q-28.05 37.9 -28.05 36.7 -28.05 35.5 -27.5 34.6 L-26.2 33.05 Q-25.35 32.45 -24.3 32.15 L-22.2 31.85 Q-20.55 31.85 -19.3 32.5 -18.05 33.15 -17.35 34.2 -16.6 35.3 -16.55 36.65 M-8.25 31.95 L-7.4 33.75 -6.35 36.0 -5.35 38.35 -4.45 40.55 -6.5 41.2 -9.1 41.8 -9.45 40.65 -9.75 39.55 -11.0 39.75 -11.95 39.95 -12.25 40.95 -12.55 42.0 -14.2 41.65 -15.65 41.25 -16.7 40.9 -17.1 40.75 -16.3 38.95 -15.25 36.75 -14.1 34.35 -13.0 32.1 -11.35 32.0 -9.8 32.0 -8.7 31.95 -8.25 31.95 M-37.7 34.8 L-37.95 31.9 -36.5 31.75 -35.1 31.7 -34.05 31.65 -33.6 31.65 -33.3 34.6 -33.0 37.6 -31.9 37.4 -30.8 37.15 -29.95 36.9 -29.6 36.8 -29.3 38.25 -29.1 39.55 -28.95 40.5 -28.9 40.9 -32.2 41.25 -36.95 41.6 -37.2 39.3 -37.45 37.15 -37.7 34.8 M4.35 32.5 Q5.7 33.1 6.4 34.05 7.05 35.05 7.1 36.25 7.15 37.45 6.7 38.45 6.2 39.45 5.0 40.2 3.85 40.9 1.9 41.25 L-2.9 41.45 -3.0 39.25 -3.05 37.1 -3.1 34.75 -3.05 31.95 1.2 31.75 Q3.05 31.9 4.35 32.5 M12.1 32.1 L12.55 32.15 12.55 36.6 12.45 41.25 11.05 41.45 9.65 41.6 8.55 41.65 8.15 41.7 8.1 39.35 8.1 37.2 8.1 34.85 8.15 31.9 9.65 31.95 11.05 32.0 12.1 32.1 M24.0 32.05 L25.0 32.15 25.35 32.2 25.2 34.95 25.05 37.95 24.8 41.1 23.3 41.35 21.85 41.55 20.75 41.65 20.3 41.7 19.55 40.3 18.9 39.1 18.4 38.2 18.2 37.85 18.2 39.35 18.15 40.5 18.15 41.6 16.8 41.5 15.5 41.4 14.5 41.3 14.1 41.25 14.15 36.65 14.25 31.8 15.75 31.85 17.1 31.9 18.05 32.0 18.4 32.05 19.25 33.7 20.05 35.2 20.6 36.3 20.85 36.7 20.9 34.95 20.95 33.4 21.0 32.2 21.0 31.75 22.6 31.9 24.0 32.05 M28.5 33.05 L30.3 32.05 32.35 31.7 34.75 32.1 Q35.85 32.5 36.65 33.15 L37.8 34.75 35.7 35.45 34.2 36.0 33.6 36.2 32.9 35.6 31.95 35.55 Q31.45 35.7 31.1 36.1 30.75 36.5 30.75 37.25 30.75 37.9 31.1 38.3 31.4 38.7 31.9 38.75 L32.45 38.7 32.9 38.35 32.4 38.25 31.95 38.25 31.75 38.2 31.75 37.55 31.75 37.0 31.75 36.75 33.3 36.7 35.3 36.65 38.0 36.6 Q37.95 37.85 37.5 38.8 L36.2 40.35 Q35.45 41.0 34.4 41.35 L32.2 41.65 29.4 41.1 Q28.15 40.5 27.45 39.4 26.75 38.35 26.75 36.8 26.8 35.6 27.25 34.65 27.7 33.7 28.5 33.05" fill="#ffffff" fill-opacity="0.49803922" fill-rule="evenodd" stroke="none"/>
  </g>
</svg>
