<?xml version="1.0" encoding="UTF-8" standalone="no"?>
<svg xmlns:ffdec="https://www.free-decompiler.com/flash" xmlns:xlink="http://www.w3.org/1999/xlink" ffdec:objectType="shape" height="115.25px" width="512.2px" xmlns="http://www.w3.org/2000/svg">
  <g transform="matrix(1.0, 0.0, 0.0, 1.0, 258.15, 58.85)">
    <path d="M39.7 -23.95 Q39.7 -24.6 40.2 -25.1 40.7 -25.6 41.35 -25.6 L62.3 -25.6 63.45 -25.15 Q63.95 -24.65 63.95 -24.0 L64.0 -23.05 64.3 -23.2 67.05 -24.3 70.0 -25.2 73.2 -25.6 74.25 -25.6 78.5 -25.15 Q80.95 -24.6 83.3 -23.55 87.0 -22.0 89.55 -19.6 92.15 -17.15 93.8 -14.15 95.5 -11.05 96.35 -7.6 97.0 -4.9 97.25 -2.2 L97.35 -16.0 Q97.35 -16.8 98.0 -17.3 98.4 -17.65 99.0 -17.65 L99.4 -17.6 124.2 -11.5 Q124.8 -11.35 125.15 -10.8 125.55 -10.3 125.45 -9.65 L120.4 29.45 Q120.35 30.05 119.85 30.45 119.4 30.85 118.75 30.85 L118.65 30.85 98.55 29.75 Q97.9 29.7 97.45 29.25 97.0 28.75 97.0 28.1 L97.2 5.6 96.3 10.6 Q95.05 15.7 92.0 19.4 89.1 23.1 84.35 25.25 79.7 27.35 73.45 27.65 L72.25 27.7 67.95 27.3 65.05 26.6 65.65 45.25 Q65.65 46.0 65.2 46.45 64.7 46.95 64.0 46.95 L40.95 46.85 Q40.25 46.85 39.75 46.35 39.3 45.9 39.3 45.2 L39.4 29.6 Q37.9 31.65 36.05 33.35 32.2 36.95 27.2 38.9 22.1 40.95 16.6 40.95 11.1 40.95 5.95 38.95 0.85 36.95 -2.95 33.35 -6.75 29.8 -9.1 24.9 -11.4 19.85 -11.4 14.25 L-11.4 13.95 -29.2 14.55 Q-29.95 14.55 -30.4 14.0 -30.95 13.45 -30.85 12.7 L-30.45 10.0 -30.25 7.6 Q-30.25 5.95 -31.2 4.95 L-32.1 4.25 -33.35 4.05 -34.8 4.3 -34.25 36.55 Q-34.25 37.2 -34.75 37.7 -35.2 38.2 -35.9 38.2 L-57.1 38.4 Q-57.8 38.4 -58.25 37.95 -58.75 37.45 -58.75 36.8 L-60.0 -6.35 -65.5 -6.2 -65.2 26.4 Q-65.2 27.1 -65.7 27.55 -66.15 28.05 -66.85 28.05 L-89.6 28.35 Q-90.3 28.35 -90.75 27.9 -91.25 27.4 -91.25 26.75 L-91.95 -5.4 -97.6 -5.2 Q-96.3 -2.8 -95.4 0.3 -94.45 3.7 -94.15 7.4 -93.7 13.35 -94.85 18.5 -96.05 23.7 -98.9 27.45 -101.8 31.3 -106.4 33.55 -110.95 35.8 -117.2 36.25 L-119.3 36.35 -122.7 36.1 -125.65 35.5 -124.45 54.1 Q-124.45 54.8 -124.9 55.3 -125.3 55.75 -126.1 55.85 L-149.2 56.4 -150.35 55.95 -150.85 54.8 -151.35 34.15 Q-153.25 37.25 -155.95 39.75 -159.9 43.4 -164.8 45.3 -169.9 47.35 -175.4 47.35 -180.95 47.35 -186.05 45.3 -191.0 43.35 -194.95 39.75 -198.75 36.15 -201.1 31.25 -203.4 26.25 -203.4 20.65 -203.4 17.95 -202.85 15.4 -205.75 17.0 -208.85 18.1 -212.3 19.4 -216.3 20.35 L-209.7 47.6 Q-209.5 48.25 -209.85 48.85 -210.2 49.45 -210.9 49.6 L-235.8 55.5 -236.2 55.55 -237.05 55.3 Q-237.65 54.95 -237.8 54.25 L-255.1 -21.2 Q-255.25 -21.9 -254.9 -22.45 L-253.85 -23.2 -225.0 -29.75 -223.55 -30.05 -222.25 -30.3 -213.2 -30.95 -210.8 -30.85 Q-205.15 -30.5 -200.3 -28.2 -195.5 -25.95 -192.1 -21.55 -188.75 -17.2 -187.6 -10.3 L-187.4 -8.05 -187.5 -5.75 -188.0 -3.3 -186.05 -4.15 Q-180.95 -6.2 -175.4 -6.2 -169.9 -6.2 -164.8 -4.15 -159.6 -2.05 -155.95 1.45 -153.75 3.45 -152.0 6.0 L-152.5 -14.35 Q-152.5 -15.05 -152.05 -15.5 -151.55 -16.0 -150.9 -16.0 L-129.85 -16.65 Q-129.2 -16.65 -128.7 -16.2 -128.25 -15.7 -128.2 -15.05 L-128.2 -14.15 -125.15 -15.5 -122.25 -16.45 -119.05 -16.95 -117.4 -17.0 -113.75 -16.7 Q-111.3 -16.2 -108.9 -15.25 -105.1 -13.75 -102.55 -11.45 L-102.0 -10.95 -102.3 -24.3 Q-102.3 -25.0 -101.85 -25.5 -101.35 -26.0 -100.65 -26.0 L-92.45 -26.25 -92.9 -48.9 Q-92.9 -49.55 -92.4 -50.05 -91.95 -50.55 -91.25 -50.6 L-67.4 -51.05 Q-66.7 -51.05 -66.25 -50.6 -65.75 -50.1 -65.75 -49.4 L-65.6 -27.1 -56.2 -27.35 Q-55.6 -27.35 -55.0 -26.85 -54.55 -26.3 -54.55 -25.65 L-54.85 -13.5 -36.65 -14.7 Q-36.0 -14.7 -35.55 -14.25 -35.0 -13.8 -35.0 -13.05 L-34.95 -10.55 -31.0 -12.25 Q-27.3 -13.4 -23.6 -13.4 -15.95 -13.4 -11.55 -9.35 -7.8 -5.95 -7.15 0.1 -5.4 -2.65 -3.0 -4.95 1.0 -8.6 5.9 -10.55 11.05 -12.6 16.6 -12.6 22.1 -12.6 27.2 -10.55 32.25 -8.5 36.05 -4.95 L39.6 -0.95 39.7 -23.95 M70.2 -4.15 Q68.4 -5.0 66.7 -5.2 L64.3 -5.4 64.6 6.2 65.2 6.25 67.3 6.25 70.05 5.8 Q71.2 5.5 72.05 4.9 72.75 4.45 73.25 3.45 73.7 2.6 73.6 1.1 73.5 -1.0 72.65 -2.15 71.6 -3.5 70.2 -4.15 M130.8 -45.1 Q132.85 -42.9 133.75 -39.85 134.65 -36.85 134.2 -33.0 133.75 -29.55 131.75 -27.1 129.95 -24.75 127.2 -23.25 124.55 -21.9 121.5 -21.35 L117.9 -21.0 115.55 -21.15 Q112.5 -21.5 109.7 -22.75 106.95 -23.95 105.05 -25.95 103.1 -27.95 102.2 -30.85 101.25 -33.75 101.7 -37.1 102.15 -40.65 103.7 -43.2 105.4 -45.85 107.75 -47.5 110.15 -49.2 113.2 -49.9 L117.1 -50.3 119.45 -50.2 Q123.1 -49.75 125.85 -48.5 128.75 -47.25 130.8 -45.1 M135.15 -7.35 Q139.75 -10.55 145.5 -11.9 L152.1 -12.7 157.15 -12.25 Q159.45 -11.9 162.4 -10.9 L167.65 -8.6 Q170.3 -7.15 172.4 -5.45 174.45 -3.85 176.2 -1.55 176.9 -0.6 176.25 0.4 L165.95 14.85 Q165.55 15.45 164.8 15.55 L164.6 15.55 Q164.0 15.55 163.5 15.15 162.05 13.85 160.15 12.85 158.15 11.9 156.3 11.6 L154.85 11.45 153.8 11.55 Q152.75 11.6 151.6 12.2 150.8 12.6 150.05 13.5 149.4 14.3 149.25 15.4 149.0 16.75 149.4 17.75 149.7 18.8 150.5 19.6 151.3 20.45 152.45 21.0 153.5 21.55 154.9 21.8 L159.55 22.0 162.0 21.85 164.45 21.45 165.45 21.75 Q166.05 22.25 166.1 22.9 L168.55 40.95 Q168.65 41.55 168.3 42.05 L167.4 42.75 Q163.0 44.3 158.0 44.45 L156.55 44.45 148.7 43.8 Q142.8 42.9 137.75 40.1 132.45 37.25 129.05 33.15 125.5 29.0 123.8 23.5 122.1 17.9 123.15 11.75 124.15 5.6 127.35 0.75 130.55 -4.15 135.15 -7.35 M196.15 -1.8 L196.7 -1.7 Q199.65 -1.0 201.9 -0.1 L204.7 1.15 204.85 0.0 Q204.95 -0.7 205.5 -1.1 L206.45 -1.4 206.8 -1.4 227.15 2.1 Q227.85 2.2 228.2 2.75 228.6 3.35 228.5 4.0 L220.65 54.1 Q220.55 54.8 220.0 55.2 L219.1 55.5 218.7 55.45 198.65 51.25 Q198.1 51.15 197.7 50.7 197.35 50.2 197.35 49.65 L194.75 49.9 193.7 49.9 187.65 49.25 Q185.6 48.85 183.45 47.95 L179.55 46.1 Q172.2 42.2 169.1 35.9 166.05 29.7 167.0 21.35 L167.4 18.65 Q168.25 14.65 169.7 11.55 171.4 8.05 173.55 5.65 176.0 2.95 179.05 1.25 182.05 -0.5 186.05 -1.45 L191.05 -2.1 191.5 -2.1 196.15 -1.8 M191.5 24.3 Q191.2 25.7 191.55 26.7 191.95 27.7 192.65 28.35 L194.7 29.55 197.45 30.35 200.2 30.75 201.85 19.9 198.85 19.65 198.1 19.65 195.45 20.05 Q193.95 20.5 192.9 21.55 191.9 22.5 191.5 24.3 M21.3 10.4 Q20.6 9.7 19.45 9.2 L17.3 8.8 15.1 9.2 Q14.0 9.65 13.2 10.4 12.4 11.2 12.0 12.15 11.55 13.05 11.55 14.25 11.55 15.35 12.0 16.3 L13.2 18.05 Q14.05 18.85 15.1 19.2 L17.3 19.65 19.45 19.2 21.3 18.05 22.55 16.3 Q23.0 15.35 23.0 14.25 23.0 13.15 22.55 12.15 22.1 11.15 21.3 10.4 M-218.05 -9.9 L-220.4 -10.15 -220.7 -10.2 -222.95 -10.0 -219.8 3.35 -218.0 2.45 Q-216.35 1.55 -215.05 0.25 -213.95 -0.85 -213.2 -2.5 -212.7 -3.85 -213.0 -5.6 L-213.3 -6.45 -213.85 -7.2 Q-214.75 -8.4 -215.75 -9.0 -216.9 -9.6 -218.05 -9.9 M-127.3 3.5 L-126.7 15.1 -124.0 15.05 -121.25 14.55 Q-120.0 14.15 -119.25 13.55 L-118.15 12.1 Q-117.7 11.15 -117.85 9.7 -118.0 7.6 -118.9 6.5 -120.0 5.2 -121.4 4.55 -122.95 3.8 -124.9 3.65 L-127.3 3.5 M-178.8 16.8 L-180.0 18.5 Q-180.45 19.5 -180.45 20.65 L-180.0 22.7 -178.8 24.4 -176.9 25.6 -174.7 26.05 -172.5 25.6 -170.7 24.45 Q-169.95 23.75 -169.45 22.7 -169.0 21.75 -169.0 20.65 -169.0 19.55 -169.45 18.55 -169.9 17.55 -170.7 16.8 -171.45 16.05 -172.5 15.6 -173.55 15.15 -174.7 15.15 L-176.9 15.6 -178.8 16.8" fill="#000000" fill-opacity="0.14901961" fill-rule="evenodd" stroke="none"/>
    <path d="M-213.3 -11.7 L-213.85 -12.45 Q-214.75 -13.65 -215.75 -14.25 -216.9 -14.85 -218.05 -15.15 L-220.4 -15.4 -220.7 -15.45 -222.95 -15.25 -219.8 -1.9 -218.0 -2.8 Q-216.35 -3.7 -215.05 -5.0 -213.95 -6.1 -213.2 -7.75 -212.7 -9.1 -213.0 -10.85 L-213.3 -11.7 M-210.8 -36.1 Q-205.15 -35.75 -200.3 -33.45 -195.5 -31.2 -192.1 -26.8 -188.75 -22.45 -187.6 -15.55 L-187.4 -13.3 -187.5 -11.0 -188.4 -6.65 Q-189.85 -1.7 -193.05 2.2 -196.2 5.95 -200.2 8.55 -204.3 11.2 -208.85 12.85 -212.3 14.15 -216.3 15.1 L-209.7 42.35 Q-209.5 43.0 -209.85 43.6 -210.2 44.2 -210.9 44.35 L-235.8 50.25 -236.2 50.3 -237.05 50.05 Q-237.65 49.7 -237.8 49.0 L-255.1 -26.45 Q-255.25 -27.15 -254.9 -27.7 L-253.85 -28.45 -225.0 -35.0 -223.55 -35.3 -222.25 -35.55 -213.2 -36.2 -210.8 -36.1" fill="url(#gradient0)" fill-rule="evenodd" stroke="none"/>
    <path d="M-213.3 -11.7 L-213.85 -12.45 Q-214.75 -13.65 -215.75 -14.25 -216.9 -14.85 -218.05 -15.15 L-220.4 -15.4 -220.7 -15.45 -222.95 -15.25 -219.8 -1.9 -218.0 -2.8 Q-216.35 -3.7 -215.05 -5.0 -213.95 -6.1 -213.2 -7.75 -212.7 -9.1 -213.0 -10.85 L-213.3 -11.7 M-210.8 -36.1 Q-205.15 -35.75 -200.3 -33.45 -195.5 -31.2 -192.1 -26.8 -188.75 -22.45 -187.6 -15.55 L-187.4 -13.3 -187.5 -11.0 -188.4 -6.65 Q-189.85 -1.7 -193.05 2.2 -196.2 5.95 -200.2 8.55 -204.3 11.2 -208.85 12.85 -212.3 14.15 -216.3 15.1 L-209.7 42.35 Q-209.5 43.0 -209.85 43.6 -210.2 44.2 -210.9 44.35 L-235.8 50.25 -236.2 50.3 -237.05 50.05 Q-237.65 49.7 -237.8 49.0 L-255.1 -26.45 Q-255.25 -27.15 -254.9 -27.7 L-253.85 -28.45 -225.0 -35.0 -223.55 -35.3 -222.25 -35.55 -213.2 -36.2 -210.8 -36.1 Z" fill="none" stroke="#6eb2ff" stroke-linecap="butt" stroke-linejoin="miter-clip" stroke-miterlimit="4.0" stroke-width="2.1"/>
    <path d="M-147.5 15.4 Q-147.5 21.0 -149.8 26.0 -152.05 30.9 -155.95 34.5 -159.9 38.15 -164.8 40.05 -169.9 42.1 -175.4 42.1 -180.95 42.1 -186.05 40.05 -191.0 38.1 -194.95 34.5 -198.75 30.9 -201.1 26.0 -203.4 21.0 -203.4 15.4 -203.4 9.7 -201.1 4.65 -198.85 -0.1 -194.95 -3.8 -191.3 -7.3 -186.05 -9.4 -180.95 -11.45 -175.4 -11.45 -169.9 -11.45 -164.8 -9.4 -159.6 -7.3 -155.95 -3.8 -152.15 -0.35 -149.8 4.7 -147.5 9.7 -147.5 15.4 M-169.45 13.3 Q-169.9 12.3 -170.7 11.55 -171.45 10.8 -172.5 10.35 -173.55 9.9 -174.7 9.9 L-176.9 10.35 -178.8 11.55 -180.0 13.25 Q-180.45 14.25 -180.45 15.4 L-180.0 17.45 -178.8 19.15 -176.9 20.35 -174.7 20.8 -172.5 20.35 -170.7 19.2 Q-169.95 18.5 -169.45 17.45 -169.0 16.5 -169.0 15.4 -169.0 14.3 -169.45 13.3" fill="url(#gradient1)" fill-rule="evenodd" stroke="none"/>
    <path d="M-147.5 15.4 Q-147.5 21.0 -149.8 26.0 -152.05 30.9 -155.95 34.5 -159.9 38.15 -164.8 40.05 -169.9 42.1 -175.4 42.1 -180.95 42.1 -186.05 40.05 -191.0 38.1 -194.95 34.5 -198.75 30.9 -201.1 26.0 -203.4 21.0 -203.4 15.4 -203.4 9.7 -201.1 4.65 -198.85 -0.1 -194.95 -3.8 -191.3 -7.3 -186.05 -9.4 -180.95 -11.45 -175.4 -11.45 -169.9 -11.45 -164.8 -9.4 -159.6 -7.3 -155.95 -3.8 -152.15 -0.35 -149.8 4.7 -147.5 9.7 -147.5 15.4 M-169.45 13.3 Q-169.9 12.3 -170.7 11.55 -171.45 10.8 -172.5 10.35 -173.55 9.9 -174.7 9.9 L-176.9 10.35 -178.8 11.55 -180.0 13.25 Q-180.45 14.25 -180.45 15.4 L-180.0 17.45 -178.8 19.15 -176.9 20.35 -174.7 20.8 -172.5 20.35 -170.7 19.2 Q-169.95 18.5 -169.45 17.45 -169.0 16.5 -169.0 15.4 -169.0 14.3 -169.45 13.3 Z" fill="none" stroke="#6eb2ff" stroke-linecap="butt" stroke-linejoin="miter-clip" stroke-miterlimit="4.0" stroke-width="2.1"/>
    <path d="M-117.4 -22.25 L-113.75 -21.95 Q-111.3 -21.45 -108.9 -20.5 -105.1 -19.0 -102.55 -16.7 -99.8 -14.25 -98.1 -11.35 -96.45 -8.6 -95.4 -4.95 -94.45 -1.55 -94.15 2.15 -93.7 8.1 -94.85 13.25 -96.05 18.45 -98.9 22.2 -101.8 26.05 -106.4 28.3 -110.95 30.55 -117.2 31.0 L-119.3 31.1 -122.7 30.85 -125.65 30.25 -124.45 48.85 Q-124.45 49.55 -124.9 50.05 -125.3 50.5 -126.1 50.6 L-149.2 51.15 -150.35 50.7 -150.85 49.55 -152.5 -19.6 Q-152.5 -20.3 -152.05 -20.75 -151.55 -21.25 -150.9 -21.25 L-129.85 -21.9 Q-129.2 -21.9 -128.7 -21.45 -128.25 -20.95 -128.2 -20.3 L-128.2 -19.4 -125.15 -20.75 -122.25 -21.7 -119.05 -22.2 -117.4 -22.25 M-121.4 -0.7 Q-122.95 -1.45 -124.9 -1.6 L-127.3 -1.75 -126.7 9.85 -124.0 9.8 -121.25 9.3 Q-120.0 8.9 -119.25 8.3 L-118.15 6.85 Q-117.7 5.9 -117.85 4.45 -118.0 2.35 -118.9 1.25 -120.0 -0.05 -121.4 -0.7" fill="url(#gradient2)" fill-rule="evenodd" stroke="none"/>
    <path d="M-117.4 -22.25 L-113.75 -21.95 Q-111.3 -21.45 -108.9 -20.5 -105.1 -19.0 -102.55 -16.7 -99.8 -14.25 -98.1 -11.35 -96.45 -8.6 -95.4 -4.95 -94.45 -1.55 -94.15 2.15 -93.7 8.1 -94.85 13.25 -96.05 18.45 -98.9 22.2 -101.8 26.05 -106.4 28.3 -110.95 30.55 -117.2 31.0 L-119.3 31.1 -122.7 30.85 -125.65 30.25 -124.45 48.85 Q-124.45 49.55 -124.9 50.05 -125.3 50.5 -126.1 50.6 L-149.2 51.15 -150.35 50.7 -150.85 49.55 -152.5 -19.6 Q-152.5 -20.3 -152.05 -20.75 -151.55 -21.25 -150.9 -21.25 L-129.85 -21.9 Q-129.2 -21.9 -128.7 -21.45 -128.25 -20.95 -128.2 -20.3 L-128.2 -19.4 -125.15 -20.75 -122.25 -21.7 -119.05 -22.2 -117.4 -22.25 M-121.4 -0.7 Q-122.95 -1.45 -124.9 -1.6 L-127.3 -1.75 -126.7 9.85 -124.0 9.8 -121.25 9.3 Q-120.0 8.9 -119.25 8.3 L-118.15 6.85 Q-117.7 5.9 -117.85 4.45 -118.0 2.35 -118.9 1.25 -120.0 -0.05 -121.4 -0.7 Z" fill="none" stroke="#6eb2ff" stroke-linecap="butt" stroke-linejoin="miter-clip" stroke-miterlimit="4.0" stroke-width="2.1"/>
    <path d="M-66.25 -55.85 Q-65.75 -55.35 -65.75 -54.65 L-65.6 -32.35 -56.2 -32.6 Q-55.6 -32.6 -55.0 -32.1 -54.55 -31.55 -54.55 -30.9 L-55.0 -13.3 Q-55.05 -12.6 -55.5 -12.15 -56.0 -11.7 -56.65 -11.7 L-65.5 -11.45 -65.2 21.15 Q-65.2 21.85 -65.7 22.3 -66.15 22.8 -66.85 22.8 L-89.6 23.1 Q-90.3 23.1 -90.75 22.65 -91.25 22.15 -91.25 21.5 L-91.95 -10.65 -100.3 -10.4 Q-100.8 -10.4 -101.45 -10.85 -101.95 -11.45 -101.95 -12.05 L-102.3 -29.55 Q-102.3 -30.25 -101.85 -30.75 -101.35 -31.25 -100.65 -31.25 L-92.45 -31.5 -92.9 -54.15 Q-92.9 -54.8 -92.4 -55.3 -91.95 -55.8 -91.25 -55.85 L-67.4 -56.3 Q-66.7 -56.3 -66.25 -55.85" fill="url(#gradient3)" fill-rule="evenodd" stroke="none"/>
    <path d="M-66.25 -55.85 Q-65.75 -55.35 -65.75 -54.65 L-65.6 -32.35 -56.2 -32.6 Q-55.6 -32.6 -55.0 -32.1 -54.55 -31.55 -54.55 -30.9 L-55.0 -13.3 Q-55.05 -12.6 -55.5 -12.15 -56.0 -11.7 -56.65 -11.7 L-65.5 -11.45 -65.2 21.15 Q-65.2 21.85 -65.7 22.3 -66.15 22.8 -66.85 22.8 L-89.6 23.1 Q-90.3 23.1 -90.75 22.65 -91.25 22.15 -91.25 21.5 L-91.95 -10.65 -100.3 -10.4 Q-100.8 -10.4 -101.45 -10.85 -101.95 -11.45 -101.95 -12.05 L-102.3 -29.55 Q-102.3 -30.25 -101.85 -30.75 -101.35 -31.25 -100.65 -31.25 L-92.45 -31.5 -92.9 -54.15 Q-92.9 -54.8 -92.4 -55.3 -91.95 -55.8 -91.25 -55.85 L-67.4 -56.3 Q-66.7 -56.3 -66.25 -55.85 Z" fill="none" stroke="#6eb2ff" stroke-linecap="butt" stroke-linejoin="miter-clip" stroke-miterlimit="4.0" stroke-width="2.1"/>
    <path d="M-7.35 6.85 Q-7.4 7.5 -7.85 8.05 -8.3 8.55 -8.95 8.6 L-29.2 9.3 Q-29.95 9.3 -30.4 8.75 -30.95 8.2 -30.85 7.45 L-30.45 4.75 -30.25 2.35 Q-30.25 0.7 -31.2 -0.3 L-32.1 -1.0 -33.35 -1.2 -34.8 -0.95 -34.25 31.3 Q-34.25 31.95 -34.75 32.45 -35.2 32.95 -35.9 32.95 L-57.1 33.15 Q-57.8 33.15 -58.25 32.7 -58.75 32.2 -58.75 31.55 L-60.15 -16.8 -59.7 -17.95 Q-59.25 -18.45 -58.6 -18.5 L-36.65 -19.95 Q-36.0 -19.95 -35.55 -19.5 -35.0 -19.05 -35.0 -18.3 L-34.95 -15.8 -31.0 -17.5 Q-27.3 -18.65 -23.6 -18.65 -15.95 -18.65 -11.55 -14.6 -7.05 -10.5 -7.05 -2.65 L-7.35 6.85" fill="url(#gradient4)" fill-rule="evenodd" stroke="none"/>
    <path d="M-7.35 6.85 Q-7.4 7.5 -7.85 8.05 -8.3 8.55 -8.95 8.6 L-29.2 9.3 Q-29.95 9.3 -30.4 8.75 -30.95 8.2 -30.85 7.45 L-30.45 4.75 -30.25 2.35 Q-30.25 0.7 -31.2 -0.3 L-32.1 -1.0 -33.35 -1.2 -34.8 -0.95 -34.25 31.3 Q-34.25 31.95 -34.75 32.45 -35.2 32.95 -35.9 32.95 L-57.1 33.15 Q-57.8 33.15 -58.25 32.7 -58.75 32.2 -58.75 31.55 L-60.15 -16.8 -59.7 -17.95 Q-59.25 -18.45 -58.6 -18.5 L-36.65 -19.95 Q-36.0 -19.95 -35.55 -19.5 -35.0 -19.05 -35.0 -18.3 L-34.95 -15.8 -31.0 -17.5 Q-27.3 -18.65 -23.6 -18.65 -15.95 -18.65 -11.55 -14.6 -7.05 -10.5 -7.05 -2.65 L-7.35 6.85 Z" fill="none" stroke="#6eb2ff" stroke-linecap="butt" stroke-linejoin="miter-clip" stroke-miterlimit="4.0" stroke-width="2.1"/>
    <path d="M27.2 -15.8 Q32.25 -13.75 36.05 -10.2 40.0 -6.5 42.2 -1.7 44.5 3.3 44.5 9.0 44.5 14.65 42.2 19.65 39.85 24.55 36.05 28.1 32.2 31.7 27.2 33.65 22.1 35.7 16.6 35.7 11.1 35.7 5.95 33.7 0.85 31.7 -2.95 28.1 -6.75 24.55 -9.1 19.65 -11.4 14.6 -11.4 9.0 -11.4 3.3 -9.1 -1.7 -6.9 -6.45 -3.0 -10.2 1.0 -13.85 5.9 -15.8 11.05 -17.85 16.6 -17.85 22.1 -17.85 27.2 -15.8 M17.3 3.55 L15.1 3.95 Q14.0 4.4 13.2 5.15 12.4 5.95 12.0 6.9 11.55 7.8 11.55 9.0 11.55 10.1 12.0 11.05 L13.2 12.8 Q14.05 13.6 15.1 13.95 L17.3 14.4 19.45 13.95 21.3 12.8 22.55 11.05 Q23.0 10.1 23.0 9.0 23.0 7.9 22.55 6.9 22.1 5.9 21.3 5.15 20.6 4.45 19.45 3.95 L17.3 3.55" fill="url(#gradient5)" fill-rule="evenodd" stroke="none"/>
    <path d="M27.2 -15.8 Q32.25 -13.75 36.05 -10.2 40.0 -6.5 42.2 -1.7 44.5 3.3 44.5 9.0 44.5 14.65 42.2 19.65 39.85 24.55 36.05 28.1 32.2 31.7 27.2 33.65 22.1 35.7 16.6 35.7 11.1 35.7 5.95 33.7 0.85 31.7 -2.95 28.1 -6.75 24.55 -9.1 19.65 -11.4 14.6 -11.4 9.0 -11.4 3.3 -9.1 -1.7 -6.9 -6.45 -3.0 -10.2 1.0 -13.85 5.9 -15.8 11.05 -17.85 16.6 -17.85 22.1 -17.85 27.2 -15.8 M17.3 3.55 L15.1 3.95 Q14.0 4.4 13.2 5.15 12.4 5.95 12.0 6.9 11.55 7.8 11.55 9.0 11.55 10.1 12.0 11.05 L13.2 12.8 Q14.05 13.6 15.1 13.95 L17.3 14.4 19.45 13.95 21.3 12.8 22.55 11.05 Q23.0 10.1 23.0 9.0 23.0 7.9 22.55 6.9 22.1 5.9 21.3 5.15 20.6 4.45 19.45 3.95 L17.3 3.55 Z" fill="none" stroke="#6eb2ff" stroke-linecap="butt" stroke-linejoin="miter-clip" stroke-miterlimit="4.0" stroke-width="2.1"/>
    <path d="M96.35 -12.85 Q97.2 -9.35 97.35 -5.75 97.6 0.3 96.3 5.35 95.05 10.45 92.0 14.15 89.1 17.85 84.35 20.0 79.7 22.1 73.45 22.4 L72.25 22.45 67.95 22.05 65.05 21.35 65.65 40.0 Q65.65 40.75 65.2 41.2 64.7 41.7 64.0 41.7 L40.95 41.6 Q40.25 41.6 39.75 41.1 39.3 40.65 39.3 39.95 L39.7 -29.2 Q39.7 -29.85 40.2 -30.35 40.7 -30.85 41.35 -30.85 L62.3 -30.85 63.45 -30.4 Q63.95 -29.9 63.95 -29.25 L64.0 -28.3 64.3 -28.45 67.05 -29.55 70.0 -30.45 73.2 -30.85 74.25 -30.85 78.5 -30.4 Q80.95 -29.85 83.3 -28.8 87.0 -27.25 89.55 -24.85 92.15 -22.4 93.8 -19.4 95.5 -16.3 96.35 -12.85 M72.65 -7.4 Q71.6 -8.75 70.2 -9.4 68.4 -10.25 66.7 -10.45 L64.3 -10.65 64.6 0.95 65.2 1.0 67.3 1.0 70.05 0.55 Q71.2 0.25 72.05 -0.35 72.75 -0.8 73.25 -1.8 73.7 -2.65 73.6 -4.15 73.5 -6.25 72.65 -7.4" fill="url(#gradient6)" fill-rule="evenodd" stroke="none"/>
    <path d="M96.35 -12.85 Q97.2 -9.35 97.35 -5.75 97.6 0.3 96.3 5.35 95.05 10.45 92.0 14.15 89.1 17.85 84.35 20.0 79.7 22.1 73.45 22.4 L72.25 22.45 67.95 22.05 65.05 21.35 65.65 40.0 Q65.65 40.75 65.2 41.2 64.7 41.7 64.0 41.7 L40.95 41.6 Q40.25 41.6 39.75 41.1 39.3 40.65 39.3 39.95 L39.7 -29.2 Q39.7 -29.85 40.2 -30.35 40.7 -30.85 41.35 -30.85 L62.3 -30.85 63.45 -30.4 Q63.95 -29.9 63.95 -29.25 L64.0 -28.3 64.3 -28.45 67.05 -29.55 70.0 -30.45 73.2 -30.85 74.25 -30.85 78.5 -30.4 Q80.95 -29.85 83.3 -28.8 87.0 -27.25 89.55 -24.85 92.15 -22.4 93.8 -19.4 95.5 -16.3 96.35 -12.85 M72.65 -7.4 Q71.6 -8.75 70.2 -9.4 68.4 -10.25 66.7 -10.45 L64.3 -10.65 64.6 0.95 65.2 1.0 67.3 1.0 70.05 0.55 Q71.2 0.25 72.05 -0.35 72.75 -0.8 73.25 -1.8 73.7 -2.65 73.6 -4.15 73.5 -6.25 72.65 -7.4 Z" fill="none" stroke="#6eb2ff" stroke-linecap="butt" stroke-linejoin="miter-clip" stroke-miterlimit="4.0" stroke-width="2.1"/>
    <path d="M134.2 -38.25 Q133.75 -34.8 131.75 -32.35 129.95 -30.0 127.2 -28.5 124.55 -27.15 121.5 -26.6 L117.9 -26.25 115.55 -26.4 Q112.5 -26.75 109.7 -28.0 106.95 -29.2 105.05 -31.2 103.1 -33.2 102.2 -36.1 101.25 -39.0 101.7 -42.35 102.15 -45.9 103.7 -48.45 105.4 -51.1 107.75 -52.75 110.15 -54.45 113.2 -55.15 L117.1 -55.55 119.45 -55.45 Q123.1 -55.0 125.85 -53.75 128.75 -52.5 130.8 -50.35 132.85 -48.15 133.75 -45.1 134.65 -42.1 134.2 -38.25" fill="url(#gradient7)" fill-rule="evenodd" stroke="none"/>
    <path d="M134.2 -38.25 Q133.75 -34.8 131.75 -32.35 129.95 -30.0 127.2 -28.5 124.55 -27.15 121.5 -26.6 L117.9 -26.25 115.55 -26.4 Q112.5 -26.75 109.7 -28.0 106.95 -29.2 105.05 -31.2 103.1 -33.2 102.2 -36.1 101.25 -39.0 101.7 -42.35 102.15 -45.9 103.7 -48.45 105.4 -51.1 107.75 -52.75 110.15 -54.45 113.2 -55.15 L117.1 -55.55 119.45 -55.45 Q123.1 -55.0 125.85 -53.75 128.75 -52.5 130.8 -50.35 132.85 -48.15 133.75 -45.1 134.65 -42.1 134.2 -38.25 Z" fill="none" stroke="#6eb2ff" stroke-linecap="butt" stroke-linejoin="miter-clip" stroke-miterlimit="4.0" stroke-width="2.1"/>
    <path d="M125.45 -14.9 L120.4 24.2 Q120.35 24.8 119.85 25.2 119.4 25.6 118.75 25.6 L118.65 25.6 98.55 24.5 Q97.9 24.45 97.45 24.0 97.0 23.5 97.0 22.85 L97.35 -21.25 Q97.35 -22.05 98.0 -22.55 98.4 -22.9 99.0 -22.9 L99.4 -22.85 124.2 -16.75 Q124.8 -16.6 125.15 -16.05 125.55 -15.55 125.45 -14.9" fill="url(#gradient8)" fill-rule="evenodd" stroke="none"/>
    <path d="M125.45 -14.9 L120.4 24.2 Q120.35 24.8 119.85 25.2 119.4 25.6 118.75 25.6 L118.65 25.6 98.55 24.5 Q97.9 24.45 97.45 24.0 97.0 23.5 97.0 22.85 L97.35 -21.25 Q97.35 -22.05 98.0 -22.55 98.4 -22.9 99.0 -22.9 L99.4 -22.85 124.2 -16.75 Q124.8 -16.6 125.15 -16.05 125.55 -15.55 125.45 -14.9 Z" fill="none" stroke="#6eb2ff" stroke-linecap="butt" stroke-linejoin="miter-clip" stroke-miterlimit="4.0" stroke-width="2.1"/>
    <path d="M172.4 -10.7 Q174.45 -9.1 176.2 -6.8 176.9 -5.85 176.25 -4.85 L165.95 9.6 Q165.55 10.2 164.8 10.3 L164.6 10.3 Q164.0 10.3 163.5 9.9 162.05 8.6 160.15 7.6 158.15 6.65 156.3 6.35 L154.85 6.2 153.8 6.3 Q152.75 6.35 151.6 6.95 150.8 7.35 150.05 8.25 149.4 9.05 149.25 10.15 149.0 11.5 149.4 12.5 149.7 13.55 150.5 14.35 151.3 15.2 152.45 15.75 153.5 16.3 154.9 16.55 L159.55 16.75 162.0 16.6 164.45 16.2 165.45 16.5 Q166.05 17.0 166.1 17.65 L168.55 35.7 Q168.65 36.3 168.3 36.8 L167.4 37.5 Q163.0 39.05 158.0 39.2 L156.55 39.2 148.7 38.55 Q142.8 37.65 137.75 34.85 132.45 32.0 129.05 27.9 125.5 23.75 123.8 18.25 122.1 12.65 123.15 6.5 124.15 0.35 127.35 -4.5 130.55 -9.4 135.15 -12.6 139.75 -15.8 145.5 -17.15 L152.1 -17.95 157.15 -17.5 Q159.45 -17.15 162.4 -16.15 L167.65 -13.85 Q170.3 -12.4 172.4 -10.7" fill="url(#gradient9)" fill-rule="evenodd" stroke="none"/>
    <path d="M172.4 -10.7 Q174.45 -9.1 176.2 -6.8 176.9 -5.85 176.25 -4.85 L165.95 9.6 Q165.55 10.2 164.8 10.3 L164.6 10.3 Q164.0 10.3 163.5 9.9 162.05 8.6 160.15 7.6 158.15 6.65 156.3 6.35 L154.85 6.2 153.8 6.3 Q152.75 6.35 151.6 6.95 150.8 7.35 150.05 8.25 149.4 9.05 149.25 10.15 149.0 11.5 149.4 12.5 149.7 13.55 150.5 14.35 151.3 15.2 152.45 15.75 153.5 16.3 154.9 16.55 L159.55 16.75 162.0 16.6 164.45 16.2 165.45 16.5 Q166.05 17.0 166.1 17.65 L168.55 35.7 Q168.65 36.3 168.3 36.8 L167.4 37.5 Q163.0 39.05 158.0 39.2 L156.55 39.2 148.7 38.55 Q142.8 37.65 137.75 34.85 132.45 32.0 129.05 27.9 125.5 23.75 123.8 18.25 122.1 12.65 123.15 6.5 124.15 0.35 127.35 -4.5 130.55 -9.4 135.15 -12.6 139.75 -15.8 145.5 -17.15 L152.1 -17.95 157.15 -17.5 Q159.45 -17.15 162.4 -16.15 L167.65 -13.85 Q170.3 -12.4 172.4 -10.7 Z" fill="none" stroke="#6eb2ff" stroke-linecap="butt" stroke-linejoin="miter-clip" stroke-miterlimit="4.0" stroke-width="2.1"/>
    <path d="M186.05 -6.7 L191.05 -7.35 191.5 -7.35 196.15 -7.05 196.7 -6.95 Q199.65 -6.25 201.9 -5.35 L204.7 -4.1 204.85 -5.25 Q204.95 -5.95 205.5 -6.35 L206.45 -6.65 206.8 -6.65 227.15 -3.15 Q227.85 -3.05 228.2 -2.5 228.6 -1.9 228.5 -1.25 L220.65 48.85 Q220.55 49.55 220.0 49.95 L219.1 50.25 218.7 50.2 198.65 46.0 Q198.1 45.9 197.7 45.45 197.35 44.95 197.35 44.4 L194.75 44.65 193.7 44.65 187.65 44.0 Q185.6 43.6 183.45 42.7 L179.55 40.85 Q172.2 36.95 169.1 30.65 166.05 24.45 167.0 16.1 L167.4 13.4 Q168.25 9.4 169.7 6.3 171.4 2.8 173.55 0.4 176.0 -2.3 179.05 -4.0 182.05 -5.75 186.05 -6.7 M191.55 21.45 Q191.95 22.45 192.65 23.1 L194.7 24.3 197.45 25.1 200.2 25.5 201.85 14.65 198.85 14.4 198.1 14.4 195.45 14.8 Q193.95 15.25 192.9 16.3 191.9 17.25 191.5 19.05 191.2 20.45 191.55 21.45" fill="url(#gradient10)" fill-rule="evenodd" stroke="none"/>
    <path d="M186.05 -6.7 L191.05 -7.35 191.5 -7.35 196.15 -7.05 196.7 -6.95 Q199.65 -6.25 201.9 -5.35 L204.7 -4.1 204.85 -5.25 Q204.95 -5.95 205.5 -6.35 L206.45 -6.65 206.8 -6.65 227.15 -3.15 Q227.85 -3.05 228.2 -2.5 228.6 -1.9 228.5 -1.25 L220.65 48.85 Q220.55 49.55 220.0 49.95 L219.1 50.25 218.7 50.2 198.65 46.0 Q198.1 45.9 197.7 45.45 197.35 44.95 197.35 44.4 L194.75 44.65 193.7 44.65 187.65 44.0 Q185.6 43.6 183.45 42.7 L179.55 40.85 Q172.2 36.95 169.1 30.65 166.05 24.45 167.0 16.1 L167.4 13.4 Q168.25 9.4 169.7 6.3 171.4 2.8 173.55 0.4 176.0 -2.3 179.05 -4.0 182.05 -5.75 186.05 -6.7 M191.55 21.45 Q191.95 22.45 192.65 23.1 L194.7 24.3 197.45 25.1 200.2 25.5 201.85 14.65 198.85 14.4 198.1 14.4 195.45 14.8 Q193.95 15.25 192.9 16.3 191.9 17.25 191.5 19.05 191.2 20.45 191.55 21.45 Z" fill="none" stroke="#6eb2ff" stroke-linecap="butt" stroke-linejoin="miter-clip" stroke-miterlimit="4.0" stroke-width="2.1"/>
    <path d="M244.55 1.65 Q242.55 1.65 240.65 2.7 238.75 3.75 237.7 5.65 236.65 7.5 236.65 9.65 236.65 11.6 237.7 13.6 238.75 15.5 240.65 16.55 242.55 17.6 244.55 17.6 246.65 17.6 248.5 16.55 250.4 15.5 251.45 13.6 252.5 11.6 252.5 9.65 252.5 7.5 251.45 5.65 250.4 3.75 248.5 2.7 246.5 1.65 244.55 1.65 M249.2 1.3 Q251.55 2.6 252.85 4.8 254.05 7.15 254.05 9.65 254.05 12.1 252.85 14.3 251.55 16.65 249.35 17.85 247.0 19.15 244.55 19.15 242.05 19.15 239.85 17.85 237.6 16.65 236.3 14.3 235.0 12.1 235.0 9.65 235.0 7.15 236.3 4.8 237.6 2.6 239.95 1.3 242.2 0.1 244.55 0.1 247.0 0.1 249.2 1.3 M245.95 5.85 L244.3 5.65 242.4 5.65 242.4 8.8 244.4 8.8 246.4 8.35 Q246.85 7.85 246.85 7.15 L246.65 6.35 245.95 5.85 M246.85 4.6 Q247.7 4.8 248.15 5.5 248.65 6.2 248.65 7.05 248.65 8.2 247.8 9.05 247.0 9.85 245.7 10.0 L246.65 10.45 248.05 12.55 249.35 14.55 247.35 14.55 246.4 12.9 Q245.35 11.05 244.65 10.55 244.3 10.2 243.35 10.2 L242.4 10.2 242.4 14.55 240.75 14.55 240.75 4.35 244.3 4.35 246.85 4.6" fill="#ffffff" fill-opacity="0.7490196" fill-rule="evenodd" stroke="none"/>
  </g>
  <defs>
    <linearGradient gradientTransform="matrix(-0.0196, -0.0196, -0.0196, 0.0196, -212.45, 13.65)" gradientUnits="userSpaceOnUse" id="gradient0" spreadMethod="pad" x1="-819.2" x2="819.2">
      <stop offset="0.0" stop-color="#eaecf6"/>
      <stop offset="1.0" stop-color="#ffffff"/>
    </linearGradient>
    <linearGradient gradientTransform="matrix(-0.0129, -0.013, -0.013, 0.0129, -168.3, 22.45)" gradientUnits="userSpaceOnUse" id="gradient1" spreadMethod="pad" x1="-819.2" x2="819.2">
      <stop offset="0.0" stop-color="#eaecf6"/>
      <stop offset="1.0" stop-color="#ffffff"/>
    </linearGradient>
    <linearGradient gradientTransform="matrix(-0.0139, -0.0139, -0.0139, 0.0139, -120.85, 22.55)" gradientUnits="userSpaceOnUse" id="gradient2" spreadMethod="pad" x1="-819.2" x2="819.2">
      <stop offset="0.0" stop-color="#eaecf6"/>
      <stop offset="1.0" stop-color="#ffffff"/>
    </linearGradient>
    <linearGradient gradientTransform="matrix(-0.0142, -0.0142, -0.0142, 0.0142, -67.0, -5.1)" gradientUnits="userSpaceOnUse" id="gradient3" spreadMethod="pad" x1="-819.2" x2="819.2">
      <stop offset="0.0" stop-color="#eaecf6"/>
      <stop offset="1.0" stop-color="#ffffff"/>
    </linearGradient>
    <linearGradient gradientTransform="matrix(-0.0127, -0.0127, -0.0127, 0.0127, -33.3, 10.6)" gradientUnits="userSpaceOnUse" id="gradient4" spreadMethod="pad" x1="-819.2" x2="819.2">
      <stop offset="0.0" stop-color="#eaecf6"/>
      <stop offset="1.0" stop-color="#ffffff"/>
    </linearGradient>
    <linearGradient gradientTransform="matrix(-0.0142, -0.0142, -0.0142, 0.0142, 23.5, 15.9)" gradientUnits="userSpaceOnUse" id="gradient5" spreadMethod="pad" x1="-819.2" x2="819.2">
      <stop offset="0.0" stop-color="#eaecf6"/>
      <stop offset="1.0" stop-color="#ffffff"/>
    </linearGradient>
    <linearGradient gradientTransform="matrix(-0.0137, -0.0137, -0.0137, 0.0137, 70.95, 14.4)" gradientUnits="userSpaceOnUse" id="gradient6" spreadMethod="pad" x1="-819.2" x2="819.2">
      <stop offset="0.0" stop-color="#eaecf6"/>
      <stop offset="1.0" stop-color="#ffffff"/>
    </linearGradient>
    <linearGradient gradientTransform="matrix(-0.0111, -0.0111, -0.0111, 0.0111, 124.4, -34.3)" gradientUnits="userSpaceOnUse" id="gradient7" spreadMethod="pad" x1="-819.2" x2="819.2">
      <stop offset="0.0" stop-color="#eaecf6"/>
      <stop offset="1.0" stop-color="#ffffff"/>
    </linearGradient>
    <linearGradient gradientTransform="matrix(-0.011, -0.011, -0.011, 0.011, 116.9, 9.55)" gradientUnits="userSpaceOnUse" id="gradient8" spreadMethod="pad" x1="-819.2" x2="819.2">
      <stop offset="0.0" stop-color="#eaecf6"/>
      <stop offset="1.0" stop-color="#ffffff"/>
    </linearGradient>
    <linearGradient gradientTransform="matrix(-0.0173, -0.0172, -0.0172, 0.0173, 159.4, 17.25)" gradientUnits="userSpaceOnUse" id="gradient9" spreadMethod="pad" x1="-819.2" x2="819.2">
      <stop offset="0.0" stop-color="#eaecf6"/>
      <stop offset="1.0" stop-color="#ffffff"/>
    </linearGradient>
    <linearGradient gradientTransform="matrix(-0.0168, -0.0161, -0.0161, 0.0168, 211.3, 27.0)" gradientUnits="userSpaceOnUse" id="gradient10" spreadMethod="pad" x1="-819.2" x2="819.2">
      <stop offset="0.0" stop-color="#eaecf6"/>
      <stop offset="1.0" stop-color="#ffffff"/>
    </linearGradient>
  </defs>
</svg>
