<?xml version="1.0" encoding="UTF-8" standalone="no"?>
<svg xmlns:ffdec="https://www.free-decompiler.com/flash" xmlns:xlink="http://www.w3.org/1999/xlink" ffdec:objectType="shape" height="30.75px" width="30.75px" xmlns="http://www.w3.org/2000/svg">
  <g transform="matrix(1.0, 0.0, 0.0, 1.0, 14.85, 14.95)">
    <path d="M1.2 -14.95 Q7.1 -14.7 11.35 -10.45 15.85 -5.95 15.9 0.45 15.85 6.8 11.35 11.3 6.85 15.8 0.5 15.8 -5.85 15.8 -10.35 11.3 -14.85 6.8 -14.85 0.45 -14.85 -5.95 -10.35 -10.45 -6.0 -14.8 0.05 -14.95 -3.25 -14.8 -5.6 -12.4 -8.15 -9.85 -8.15 -6.2 -8.15 -2.6 -5.6 -0.05 -3.05 2.5 0.55 2.55 4.2 2.5 6.75 -0.05 9.3 -2.6 9.3 -6.2 9.3 -9.85 6.75 -12.4 4.4 -14.75 1.2 -14.95" fill="url(#gradient0)" fill-rule="evenodd" stroke="none"/>
    <path d="M0.05 -14.95 L0.5 -14.95 0.55 -14.95 0.75 -14.95 1.2 -14.95 Q4.4 -14.75 6.75 -12.4 9.3 -9.85 9.3 -6.2 9.3 -2.6 6.75 -0.05 4.2 2.5 0.55 2.55 -3.05 2.5 -5.6 -0.05 -8.15 -2.6 -8.15 -6.2 -8.15 -9.85 -5.6 -12.4 -3.25 -14.8 0.05 -14.95" fill="url(#gradient1)" fill-rule="evenodd" stroke="none"/>
  </g>
  <defs>
    <radialGradient cx="0" cy="0" gradientTransform="matrix(0.0377, 0.0, 0.0, 0.0377, 0.5, -14.95)" gradientUnits="userSpaceOnUse" id="gradient0" r="819.2" spreadMethod="pad">
      <stop offset="0.0" stop-color="#028ae3" stop-opacity="0.7529412"/>
      <stop offset="1.0" stop-color="#9fdef9" stop-opacity="0.7529412"/>
    </radialGradient>
    <linearGradient gradientTransform="matrix(0.0, 0.0499, -0.0107, 0.0, 0.55, 27.35)" gradientUnits="userSpaceOnUse" id="gradient1" spreadMethod="pad" x1="-819.2" x2="819.2">
      <stop offset="0.0" stop-color="#78d0f5" stop-opacity="0.7529412"/>
      <stop offset="0.6627450980392157" stop-color="#028ae3" stop-opacity="0.7529412"/>
    </linearGradient>
  </defs>
</svg>
