<?xml version="1.0" encoding="UTF-8" standalone="no"?>
<svg xmlns:ffdec="https://www.free-decompiler.com/flash" xmlns:xlink="http://www.w3.org/1999/xlink" ffdec:objectType="shape" height="18.0px" width="18.0px" xmlns="http://www.w3.org/2000/svg">
  <g transform="matrix(1.0, 0.0, 0.0, 1.0, 9.0, 9.0)">
    <path d="M3.5 8.5 L-3.5 8.5 Q-8.5 8.5 -8.5 3.5 L-8.5 -3.5 Q-8.5 -8.5 -3.5 -8.5 L3.5 -8.5 Q8.5 -8.5 8.5 -3.5 L8.5 3.5 Q8.5 8.5 3.5 8.5" fill="#ffffff" fill-opacity="0.0" fill-rule="evenodd" stroke="none"/>
    <path d="M3.5 8.5 Q8.5 8.5 8.5 3.5 L8.5 -3.5 Q8.5 -8.5 3.5 -8.5 L-3.5 -8.5 Q-8.5 -8.5 -8.5 -3.5 L-8.5 3.5 Q-8.5 8.5 -3.5 8.5 L3.5 8.5 Z" fill="none" stroke="#ffffff" stroke-linecap="round" stroke-linejoin="round" stroke-width="1.0"/>
    <path d="M-3.75 5.8 L-3.75 -6.15 5.75 -0.2 -3.75 5.8" fill="#ffffff" fill-rule="evenodd" stroke="none"/>
  </g>
</svg>
