<?xml version="1.0" encoding="UTF-8" standalone="no"?>
<svg xmlns:ffdec="https://www.free-decompiler.com/flash" xmlns:xlink="http://www.w3.org/1999/xlink" ffdec:objectType="shape" height="65.0px" width="64.75px" xmlns="http://www.w3.org/2000/svg">
  <g transform="matrix(1.0, 0.0, 0.0, 1.0, 0.0, 0.0)">
    <path d="M64.75 7.25 L64.75 14.5 64.75 21.5 64.75 29.0 64.75 36.25 64.75 43.25 64.75 50.75 64.75 57.75 64.75 65.0 57.75 65.0 50.5 65.0 43.25 65.0 36.25 65.0 29.0 65.0 21.75 65.0 14.25 65.0 7.5 65.0 0.0 65.0 0.0 57.75 0.0 50.75 0.0 43.25 0.0 36.25 0.0 29.0 0.0 21.5 0.0 14.5 0.0 7.25 0.0 0.0 7.5 0.0 14.25 0.0 21.75 0.0 29.0 0.0 36.25 0.0 43.25 0.0 50.5 0.0 57.75 0.0 64.75 0.0 64.75 7.25 57.75 7.25 57.75 14.5 64.75 14.5 57.75 14.5 57.75 7.25 64.75 7.25 M57.75 0.0 L57.75 7.25 50.5 7.25 50.5 0.0 50.5 7.25 57.75 7.25 57.75 0.0 M43.25 0.0 L43.25 7.25 43.25 0.0 M43.25 7.25 L50.5 7.25 50.5 14.5 43.25 14.5 50.5 14.5 50.5 7.25 43.25 7.25 43.25 14.5 43.25 21.5 50.5 21.5 43.25 21.5 43.25 14.5 43.25 7.25 36.25 7.25 36.25 0.0 36.25 7.25 43.25 7.25 M57.75 21.5 L57.75 14.5 50.5 14.5 50.5 21.5 50.5 14.5 57.75 14.5 57.75 21.5 50.5 21.5 57.75 21.5 64.75 21.5 57.75 21.5 57.75 29.0 64.75 29.0 57.75 29.0 57.75 21.5 M64.75 36.25 L57.75 36.25 57.75 29.0 57.75 36.25 64.75 36.25 M43.25 36.25 L43.25 29.0 43.25 36.25 50.5 36.25 50.5 29.0 43.25 29.0 50.5 29.0 50.5 36.25 43.25 36.25 43.25 43.25 50.5 43.25 43.25 43.25 43.25 36.25 36.25 36.25 36.25 29.0 29.0 29.0 29.0 21.5 29.0 29.0 36.25 29.0 36.25 36.25 43.25 36.25 M36.25 21.5 L43.25 21.5 43.25 29.0 43.25 21.5 36.25 21.5 36.25 29.0 43.25 29.0 36.25 29.0 36.25 21.5 36.25 14.5 36.25 21.5 29.0 21.5 21.75 21.5 21.75 14.5 21.75 21.5 29.0 21.5 29.0 14.5 36.25 14.5 36.25 7.25 29.0 7.25 29.0 14.5 21.75 14.5 29.0 14.5 29.0 7.25 36.25 7.25 36.25 14.5 43.25 14.5 36.25 14.5 29.0 14.5 29.0 21.5 36.25 21.5 M57.75 43.25 L57.75 36.25 50.5 36.25 50.5 43.25 50.5 36.25 57.75 36.25 57.75 43.25 64.75 43.25 57.75 43.25 50.5 43.25 57.75 43.25 57.75 50.75 50.5 50.75 50.5 43.25 50.5 50.75 57.75 50.75 57.75 43.25 M50.5 21.5 L50.5 29.0 57.75 29.0 50.5 29.0 50.5 21.5 M29.0 0.0 L29.0 7.25 21.75 7.25 29.0 7.25 29.0 0.0 M21.75 14.5 L21.75 7.25 21.75 0.0 21.75 7.25 21.75 14.5 14.25 14.5 14.25 7.25 7.5 7.25 7.5 14.5 14.25 14.5 14.25 21.5 14.25 14.5 7.5 14.5 7.5 7.25 14.25 7.25 14.25 14.5 21.75 14.5 M0.0 14.5 L7.5 14.5 7.5 21.5 7.5 14.5 0.0 14.5 M7.5 0.0 L7.5 7.25 0.0 7.25 7.5 7.25 7.5 0.0 M21.75 7.25 L14.25 7.25 14.25 0.0 14.25 7.25 21.75 7.25 M14.25 21.5 L7.5 21.5 0.0 21.5 7.5 21.5 14.25 21.5 21.75 21.5 21.75 29.0 21.75 36.25 21.75 29.0 21.75 21.5 14.25 21.5 14.25 29.0 7.5 29.0 7.5 36.25 14.25 36.25 14.25 43.25 14.25 36.25 7.5 36.25 7.5 29.0 14.25 29.0 14.25 21.5 M21.75 36.25 L14.25 36.25 14.25 29.0 21.75 29.0 14.25 29.0 14.25 36.25 21.75 36.25 21.75 43.25 14.25 43.25 21.75 43.25 21.75 36.25 29.0 36.25 29.0 29.0 21.75 29.0 29.0 29.0 29.0 36.25 21.75 36.25 M7.5 43.25 L7.5 36.25 0.0 36.25 7.5 36.25 7.5 43.25 14.25 43.25 7.5 43.25 0.0 43.25 7.5 43.25 7.5 50.75 0.0 50.75 7.5 50.75 7.5 43.25 M0.0 29.0 L7.5 29.0 0.0 29.0 M21.75 50.75 L14.25 50.75 14.25 43.25 14.25 50.75 21.75 50.75 21.75 43.25 29.0 43.25 21.75 43.25 21.75 50.75 21.75 57.75 21.75 65.0 21.75 57.75 21.75 50.75 29.0 50.75 21.75 50.75 M36.25 43.25 L36.25 36.25 29.0 36.25 29.0 43.25 29.0 36.25 36.25 36.25 36.25 43.25 43.25 43.25 43.25 50.75 43.25 43.25 36.25 43.25 29.0 43.25 36.25 43.25 36.25 50.75 29.0 50.75 29.0 43.25 29.0 50.75 36.25 50.75 36.25 43.25 M64.75 50.75 L57.75 50.75 57.75 57.75 50.5 57.75 50.5 50.75 43.25 50.75 50.5 50.75 50.5 57.75 57.75 57.75 57.75 50.75 64.75 50.75 M43.25 50.75 L36.25 50.75 36.25 57.75 29.0 57.75 29.0 50.75 29.0 57.75 36.25 57.75 36.25 50.75 43.25 50.75 43.25 57.75 43.25 50.75 M7.5 21.5 L7.5 29.0 7.5 21.5 M29.0 65.0 L29.0 57.75 21.75 57.75 29.0 57.75 29.0 65.0 M50.5 65.0 L50.5 57.75 43.25 57.75 50.5 57.75 50.5 65.0 M43.25 57.75 L36.25 57.75 36.25 65.0 36.25 57.75 43.25 57.75 43.25 65.0 43.25 57.75 M57.75 65.0 L57.75 57.75 64.75 57.75 57.75 57.75 57.75 65.0 M21.75 57.75 L14.25 57.75 14.25 65.0 14.25 57.75 21.75 57.75 M7.5 65.0 L7.5 57.75 0.0 57.75 7.5 57.75 7.5 65.0 M14.25 50.75 L14.25 57.75 7.5 57.75 7.5 50.75 14.25 50.75 7.5 50.75 7.5 57.75 14.25 57.75 14.25 50.75" fill="#ffffff" fill-rule="evenodd" stroke="none"/>
    <path d="M64.75 7.25 L64.75 14.5 64.75 21.5 64.75 29.0 64.75 36.25 64.75 43.25 64.75 50.75 64.75 57.75 64.75 65.0 57.75 65.0 50.5 65.0 43.25 65.0 36.25 65.0 29.0 65.0 21.75 65.0 14.25 65.0 7.5 65.0 0.0 65.0 0.0 57.75 0.0 50.75 0.0 43.25 0.0 36.25 0.0 29.0 0.0 21.5 0.0 14.5 0.0 7.25 0.0 0.0 7.5 0.0 14.25 0.0 21.75 0.0 29.0 0.0 36.25 0.0 43.25 0.0 50.5 0.0 57.75 0.0 64.75 0.0 64.75 7.25 M43.25 7.25 L43.25 0.0 M43.25 7.25 L43.25 14.5 43.25 21.5 50.5 21.5 57.75 21.5 64.75 21.5 M43.25 29.0 L43.25 36.25 43.25 43.25 50.5 43.25 57.75 43.25 64.75 43.25 M43.25 29.0 L43.25 21.5 36.25 21.5 29.0 21.5 21.75 21.5 14.25 21.5 7.5 21.5 0.0 21.5 M21.75 0.0 L21.75 7.25 21.75 14.5 21.75 21.5 21.75 29.0 21.75 36.25 21.75 43.25 29.0 43.25 36.25 43.25 43.25 43.25 43.25 50.75 43.25 57.75 43.25 65.0 M14.25 43.25 L21.75 43.25 21.75 50.75 21.75 57.75 21.75 65.0 M7.5 43.25 L14.25 43.25 M7.5 43.25 L0.0 43.25" fill="none" stroke="#000000" stroke-linecap="round" stroke-linejoin="round" stroke-width="0.05"/>
    <path d="M64.75 7.25 L57.75 7.25 57.75 14.5 64.75 14.5 M50.5 0.0 L50.5 7.25 57.75 7.25 57.75 0.0 M43.25 14.5 L50.5 14.5 50.5 7.25 43.25 7.25 36.25 7.25 36.25 14.5 43.25 14.5 M50.5 21.5 L50.5 14.5 57.75 14.5 57.75 21.5 57.75 29.0 64.75 29.0 M57.75 29.0 L57.75 36.25 64.75 36.25 M43.25 36.25 L50.5 36.25 50.5 29.0 43.25 29.0 36.25 29.0 36.25 36.25 43.25 36.25 M36.25 21.5 L36.25 29.0 29.0 29.0 21.75 29.0 14.25 29.0 14.25 36.25 21.75 36.25 29.0 36.25 29.0 29.0 29.0 21.5 29.0 14.5 36.25 14.5 36.25 21.5 M50.5 43.25 L50.5 36.25 57.75 36.25 57.75 43.25 57.75 50.75 64.75 50.75 M57.75 29.0 L50.5 29.0 50.5 21.5 M50.5 43.25 L50.5 50.75 57.75 50.75 57.75 57.75 57.75 65.0 M36.25 0.0 L36.25 7.25 29.0 7.25 29.0 0.0 M21.75 7.25 L29.0 7.25 29.0 14.5 21.75 14.5 14.25 14.5 7.5 14.5 7.5 7.25 14.25 7.25 14.25 14.5 14.25 21.5 14.25 29.0 7.5 29.0 7.5 36.25 14.25 36.25 14.25 43.25 14.25 50.75 21.75 50.75 29.0 50.75 36.25 50.75 36.25 43.25 36.25 36.25 29.0 36.25 29.0 43.25 29.0 50.75 29.0 57.75 36.25 57.75 36.25 50.75 43.25 50.75 50.5 50.75 50.5 57.75 57.75 57.75 64.75 57.75 M14.25 0.0 L14.25 7.25 21.75 7.25 M0.0 7.25 L7.5 7.25 7.5 0.0 M7.5 21.5 L7.5 14.5 0.0 14.5 M7.5 29.0 L0.0 29.0 M0.0 36.25 L7.5 36.25 7.5 43.25 7.5 50.75 7.5 57.75 14.25 57.75 14.25 50.75 7.5 50.75 0.0 50.75 M7.5 29.0 L7.5 21.5 M43.25 57.75 L50.5 57.75 50.5 65.0 M21.75 57.75 L29.0 57.75 29.0 65.0 M36.25 65.0 L36.25 57.75 43.25 57.75 M0.0 57.75 L7.5 57.75 7.5 65.0 M14.25 65.0 L14.25 57.75 21.75 57.75" fill="none" stroke="#999999" stroke-linecap="round" stroke-linejoin="round" stroke-width="0.05"/>
    <path d="M47.75 62.35 L47.75 62.25 47.7 62.15 47.6 62.1 47.45 62.05 47.4 62.05 47.35 62.0 47.25 62.0 47.1 62.05 46.95 62.1 46.85 62.2 46.8 62.35 46.85 62.5 46.9 62.6 47.0 62.6 47.05 62.65 47.1 62.65 47.25 62.7 47.35 62.7 47.5 62.65 47.6 62.6 47.75 62.5 47.75 62.35 M47.65 60.7 L47.55 60.65 47.45 60.6 47.4 60.6 47.25 60.6 47.15 60.55 46.95 60.65 46.85 60.85 46.9 61.0 47.05 61.1 47.15 61.1 47.25 61.15 47.3 61.15 47.45 61.15 47.55 61.1 47.65 61.0 47.7 60.85 47.65 60.7 M47.5 59.5 L47.55 59.55 47.6 59.55 47.7 59.55 47.85 59.55 47.95 59.55 48.05 59.6 48.15 59.65 48.3 59.7 48.4 59.75 48.55 59.85 48.65 59.95 48.7 60.05 48.75 60.1 48.85 60.25 48.9 60.3 48.9 60.4 48.95 60.6 48.95 60.7 48.95 60.85 48.9 60.95 48.8 61.15 48.65 61.3 48.65 61.35 48.6 61.35 48.55 61.4 48.55 61.5 48.65 61.55 48.75 61.6 48.8 61.6 48.85 61.7 48.95 61.8 49.0 61.8 49.0 61.85 49.1 62.0 49.15 62.15 49.2 62.2 49.2 62.3 49.2 62.4 49.2 62.5 49.2 62.55 49.2 62.7 49.15 62.75 49.15 62.9 49.05 63.1 49.0 63.2 48.95 63.25 48.85 63.4 48.75 63.45 48.7 63.5 48.65 63.55 48.55 63.6 48.5 63.65 48.4 63.7 48.35 63.75 48.25 63.75 48.15 63.8 48.05 63.85 47.95 63.9 47.85 63.9 47.7 63.9 47.5 63.95 47.4 63.95 47.3 63.95 47.2 63.9 47.1 63.9 47.0 63.9 46.75 63.9 46.55 63.85 46.4 63.8 46.2 63.7 46.1 63.65 46.0 63.6 45.85 63.45 45.8 63.4 45.7 63.35 45.55 63.15 45.45 62.95 45.45 62.9 45.4 62.8 45.4 62.65 45.35 62.55 45.35 62.5 45.35 62.4 45.4 62.35 45.4 62.25 45.45 62.05 45.5 61.95 45.65 61.75 Q45.75 61.65 45.8 61.65 L45.9 61.6 46.0 61.55 46.05 61.5 46.05 61.45 45.95 61.35 45.9 61.35 45.85 61.25 45.75 61.1 45.7 61.05 45.7 61.0 45.65 60.85 45.65 60.8 45.6 60.7 45.65 60.5 45.65 60.4 45.7 60.25 45.75 60.2 45.85 60.1 45.9 60.0 45.9 59.95 45.95 59.95 46.0 59.9 46.05 59.8 46.1 59.75 46.2 59.7 46.25 59.65 46.45 59.6 46.75 59.55 47.0 59.5 47.2 59.5 47.4 59.5 47.5 59.5 M55.95 54.65 L55.95 54.8 56.0 54.85 56.0 54.95 56.0 55.05 56.0 55.1 56.0 55.2 56.0 55.25 56.0 55.35 55.95 55.45 55.95 55.55 55.9 55.6 55.85 55.7 55.8 55.8 55.8 55.9 55.7 56.0 55.65 56.05 55.5 56.2 55.45 56.25 55.4 56.25 55.3 56.3 55.25 56.35 55.15 56.4 55.05 56.45 54.9 56.5 54.7 56.55 54.6 56.6 54.45 56.6 54.35 56.6 54.25 56.6 53.8 56.6 53.65 56.6 53.55 56.55 53.45 56.55 53.4 56.55 53.3 56.55 53.2 56.5 52.95 56.45 52.85 56.4 52.7 56.3 52.7 56.15 52.7 56.0 52.7 55.75 52.7 55.6 52.7 55.5 52.7 55.4 52.75 55.25 52.85 55.15 53.0 55.2 53.15 55.2 53.2 55.25 53.25 55.25 53.3 55.3 53.4 55.3 53.5 55.3 53.55 55.3 53.6 55.35 53.7 55.35 53.8 55.35 53.95 55.35 54.05 55.35 54.15 55.3 54.25 55.2 54.3 55.05 54.3 54.95 54.2 54.85 54.05 54.8 53.95 54.8 53.9 54.8 53.8 54.8 53.75 54.8 53.6 54.75 53.5 54.75 53.45 54.75 53.35 54.75 53.25 54.8 53.2 54.75 53.05 54.75 52.9 54.7 52.85 54.55 52.85 54.45 52.85 54.3 52.9 54.2 52.9 54.1 52.9 54.05 52.9 53.85 52.9 53.65 52.9 53.45 52.9 53.35 52.85 53.2 52.85 53.1 52.85 53.05 52.85 52.95 52.85 52.8 52.85 52.65 52.85 52.6 52.9 52.4 53.15 52.3 53.25 52.3 53.35 52.3 53.5 52.3 53.65 52.3 53.75 52.3 53.85 52.3 54.0 52.3 54.1 52.3 54.2 52.3 54.35 52.3 54.45 52.3 54.7 52.3 54.8 52.3 54.9 52.3 55.0 52.3 55.15 52.3 55.25 52.3 55.3 52.3 55.5 52.35 55.55 52.6 55.55 52.65 55.55 52.75 55.55 52.8 55.55 52.9 55.55 53.0 55.55 53.15 55.5 53.25 55.5 53.3 55.4 53.4 55.25 53.45 55.2 53.45 55.05 53.45 54.95 53.45 54.9 53.45 54.8 53.45 54.7 53.45 54.6 53.45 54.5 53.45 54.4 53.45 54.3 53.45 54.25 53.45 54.15 53.45 54.15 53.65 54.25 53.7 54.35 53.7 54.45 53.7 54.55 53.7 54.75 53.75 55.0 53.8 55.15 53.8 55.3 53.9 55.5 54.0 55.6 54.1 55.7 54.2 55.8 54.3 55.9 54.5 55.95 54.65 M11.5 59.5 L11.75 59.55 11.85 59.6 11.95 59.65 12.0 59.7 12.1 59.7 12.15 59.75 12.25 59.8 12.35 59.85 12.4 59.95 12.5 60.05 12.6 60.15 12.65 60.2 12.7 60.25 12.7 60.3 12.75 60.3 12.9 60.6 12.95 60.85 12.95 61.15 12.95 61.25 12.9 61.3 12.9 61.45 12.85 61.6 12.8 61.7 12.75 61.75 12.65 61.85 12.6 61.9 12.6 61.95 12.55 62.0 12.5 62.05 12.4 62.1 12.3 62.2 12.25 62.25 12.15 62.3 12.1 62.35 12.05 62.4 12.0 62.45 12.05 62.5 12.2 62.5 12.3 62.5 12.4 62.5 12.5 62.5 12.6 62.5 12.65 62.5 12.75 62.45 13.0 62.5 13.1 62.65 13.1 62.75 13.1 62.85 13.1 62.95 13.1 63.15 13.1 63.25 13.1 63.35 13.1 63.45 13.1 63.55 13.05 63.75 12.95 63.8 12.9 63.8 12.75 63.8 12.6 63.8 12.35 63.8 12.15 63.8 12.1 63.8 12.0 63.8 11.9 63.8 11.75 63.8 11.65 63.8 11.6 63.8 11.5 63.8 11.3 63.8 11.2 63.8 11.15 63.8 10.95 63.8 10.75 63.8 10.6 63.8 10.55 63.8 10.4 63.8 10.3 63.8 10.15 63.8 9.95 63.8 9.8 63.8 9.7 63.8 9.6 63.75 9.5 63.6 9.55 63.55 9.55 63.45 9.55 63.35 9.55 63.25 9.55 63.2 9.5 63.1 9.5 63.0 9.5 62.95 9.55 62.9 9.65 62.8 9.8 62.7 9.85 62.7 9.95 62.65 10.05 62.6 10.1 62.6 10.15 62.55 10.25 62.45 10.3 62.45 10.35 62.4 10.45 62.35 10.5 62.3 10.6 62.2 10.65 62.15 10.7 62.1 10.8 62.05 10.9 61.95 11.0 61.9 11.2 61.65 11.3 61.4 11.35 61.3 11.3 61.2 11.3 61.1 11.15 60.95 10.95 60.9 10.9 60.9 10.8 60.95 10.7 61.0 10.6 61.1 10.55 61.15 10.55 61.2 10.5 61.3 10.5 61.35 10.45 61.45 10.35 61.5 10.25 61.5 10.15 61.45 10.05 61.45 9.85 61.45 9.75 61.45 9.65 61.5 9.5 61.45 9.4 61.35 9.3 61.15 9.35 61.05 9.35 60.9 9.35 60.75 9.35 60.7 9.4 60.55 9.45 60.4 9.5 60.35 9.55 60.25 9.6 60.25 9.6 60.2 9.65 60.15 9.7 60.05 9.75 60.0 9.85 59.95 9.9 59.85 10.05 59.75 10.15 59.7 10.25 59.65 10.35 59.6 10.5 59.55 10.65 59.55 10.75 59.5 10.85 59.5 11.0 59.5 11.1 59.5 11.25 59.5 11.4 59.5 11.5 59.5 M12.7 52.4 L12.75 52.5 12.75 52.7 12.75 52.75 12.75 52.9 12.75 52.95 12.75 53.1 12.7 53.2 12.7 53.4 12.75 53.5 12.75 53.6 12.75 53.75 12.75 53.9 12.75 54.0 12.75 54.05 12.75 54.15 12.75 54.3 12.75 54.4 12.75 54.85 12.75 54.95 12.75 55.0 12.75 55.1 12.75 55.15 12.75 55.25 12.75 55.35 12.7 55.45 12.7 55.6 12.7 55.7 12.7 55.8 12.75 56.0 12.75 56.1 12.75 56.25 12.75 56.35 12.7 56.5 12.5 56.55 12.4 56.55 12.35 56.55 12.25 56.55 12.1 56.55 12.0 56.55 11.9 56.55 11.8 56.55 11.7 56.55 11.55 56.55 11.45 56.55 11.25 56.5 11.15 56.3 11.15 56.2 11.2 56.1 11.2 56.0 11.2 55.9 11.2 55.75 11.2 55.55 11.2 55.4 11.2 55.2 11.2 54.9 11.2 54.7 11.2 54.6 11.2 54.5 11.2 54.4 11.2 54.3 11.2 54.2 11.2 54.1 11.2 54.0 11.1 53.95 11.0 54.0 10.9 54.05 10.85 54.1 10.8 54.15 10.7 54.2 10.65 54.2 10.55 54.2 10.45 54.1 10.4 54.05 10.35 54.0 10.3 53.9 10.2 53.85 10.05 53.7 10.0 53.5 10.0 53.45 10.05 53.4 10.1 53.3 10.25 53.2 10.3 53.2 10.4 53.15 10.45 53.1 10.55 53.0 10.6 52.95 10.7 52.9 10.85 52.8 10.9 52.7 10.95 52.65 11.1 52.5 11.3 52.35 11.4 52.3 11.45 52.3 11.55 52.3 11.65 52.3 11.7 52.3 11.8 52.3 11.95 52.3 12.05 52.3 12.15 52.3 12.3 52.3 12.4 52.3 12.6 52.3 12.7 52.4 M18.75 54.85 L18.65 54.8 18.5 54.75 18.45 54.75 18.4 54.7 18.3 54.7 18.15 54.75 18.0 54.8 17.9 54.9 17.85 55.05 17.9 55.2 17.95 55.3 18.05 55.3 18.1 55.35 18.15 55.35 18.3 55.4 18.4 55.4 18.55 55.35 18.65 55.3 18.8 55.2 18.8 55.05 18.8 54.95 18.75 54.85 M18.5 53.3 L18.45 53.3 18.3 53.3 18.2 53.25 18.0 53.35 17.9 53.55 17.95 53.7 18.1 53.8 18.2 53.8 18.3 53.85 18.35 53.85 18.5 53.85 18.6 53.8 18.7 53.7 18.75 53.55 18.7 53.4 18.6 53.35 18.5 53.3 M24.85 59.55 L25.0 59.55 25.15 59.55 25.25 59.55 25.35 59.55 25.5 59.55 25.6 59.55 25.7 59.55 25.85 59.55 25.95 59.55 26.2 59.55 26.3 59.55 26.4 59.55 26.5 59.55 26.65 59.55 26.75 59.55 26.8 59.55 27.0 59.6 27.05 59.85 27.05 59.9 27.05 60.0 27.05 60.05 27.05 60.15 27.05 60.25 27.05 60.4 27.0 60.5 27.0 60.55 26.9 60.65 26.75 60.7 26.7 60.7 26.55 60.7 26.45 60.7 26.4 60.7 26.3 60.7 26.2 60.7 26.1 60.7 26.0 60.7 25.9 60.7 25.8 60.7 25.75 60.7 25.65 60.7 25.65 60.9 25.75 60.95 25.85 60.95 25.95 60.95 26.05 60.95 26.25 61.0 26.5 61.05 26.65 61.05 26.8 61.15 27.0 61.25 27.1 61.35 27.2 61.45 27.3 61.55 27.4 61.75 27.45 61.9 27.45 62.05 27.5 62.1 27.5 62.2 27.5 62.3 27.5 62.35 27.5 62.45 27.5 62.5 27.5 62.6 27.45 62.7 27.45 62.8 27.4 62.85 27.35 62.95 27.3 63.05 27.3 63.15 27.2 63.25 27.15 63.3 27.0 63.45 26.95 63.5 26.9 63.5 26.8 63.55 26.75 63.6 26.65 63.65 26.55 63.7 26.4 63.75 26.2 63.8 26.1 63.85 25.95 63.85 25.85 63.85 25.75 63.85 25.3 63.85 25.15 63.85 25.05 63.8 24.95 63.8 24.9 63.8 24.8 63.8 24.7 63.75 24.45 63.7 24.35 63.65 24.2 63.55 24.2 63.4 24.2 63.25 24.2 63.0 24.2 62.85 24.2 62.75 24.2 62.65 24.25 62.5 24.35 62.4 24.5 62.45 24.65 62.45 24.7 62.5 24.75 62.5 24.8 62.55 24.9 62.55 25.0 62.55 25.05 62.55 25.1 62.6 25.2 62.6 25.3 62.6 25.45 62.6 25.55 62.6 25.65 62.55 25.75 62.45 25.8 62.3 25.8 62.2 25.7 62.1 25.55 62.05 25.45 62.05 25.4 62.05 25.3 62.05 25.25 62.05 25.1 62.0 25.0 62.0 24.95 62.0 24.85 62.0 24.75 62.05 24.7 62.0 24.55 62.0 24.4 61.95 24.35 61.8 24.35 61.7 24.35 61.55 24.4 61.45 24.4 61.35 24.4 61.3 24.4 61.1 24.4 60.9 24.4 60.7 24.4 60.6 24.35 60.45 24.35 60.35 24.35 60.3 24.35 60.2 24.35 60.05 24.35 59.9 24.35 59.85 24.4 59.65 24.65 59.55 24.75 59.55 24.85 59.55 M20.25 54.9 L20.25 55.0 20.25 55.1 20.25 55.2 20.25 55.25 20.25 55.4 20.2 55.45 20.2 55.6 20.1 55.8 20.05 55.9 20.0 55.95 19.9 56.1 19.8 56.15 19.75 56.2 19.7 56.25 19.6 56.3 19.55 56.35 19.45 56.4 19.4 56.45 19.3 56.45 19.2 56.5 19.1 56.55 19.0 56.6 18.9 56.6 18.75 56.6 18.55 56.65 18.45 56.65 18.35 56.65 18.25 56.6 18.15 56.6 18.05 56.6 17.8 56.6 17.6 56.55 17.45 56.5 17.25 56.4 17.15 56.35 17.05 56.3 16.9 56.15 16.85 56.1 16.75 56.05 16.6 55.85 16.5 55.65 16.5 55.6 16.45 55.5 16.45 55.35 16.4 55.25 16.4 55.2 16.4 55.1 16.45 55.05 16.45 54.95 16.5 54.75 16.55 54.65 16.7 54.45 Q16.8 54.35 16.85 54.35 L16.95 54.3 17.05 54.25 17.1 54.2 17.1 54.15 17.0 54.05 16.95 54.05 16.9 53.95 16.8 53.8 16.75 53.75 16.75 53.7 16.7 53.55 16.7 53.5 16.65 53.4 16.7 53.2 16.7 53.1 16.75 52.95 16.8 52.9 16.9 52.8 16.95 52.7 16.95 52.65 17.0 52.65 17.05 52.6 17.1 52.5 17.15 52.45 17.25 52.4 17.3 52.35 17.5 52.3 17.8 52.25 18.05 52.2 18.25 52.2 18.45 52.2 18.55 52.2 18.6 52.25 18.65 52.25 18.75 52.25 18.9 52.25 19.0 52.25 19.1 52.3 19.2 52.35 19.35 52.4 19.45 52.45 19.6 52.55 19.7 52.65 19.75 52.75 19.8 52.8 19.9 52.95 19.95 53.0 19.95 53.1 20.0 53.3 20.0 53.4 20.0 53.55 19.95 53.65 19.85 53.85 19.7 54.0 19.7 54.05 19.65 54.05 19.6 54.1 19.6 54.2 19.7 54.25 19.8 54.3 19.85 54.3 19.9 54.4 20.0 54.5 20.05 54.5 20.05 54.55 20.15 54.7 20.2 54.85 20.25 54.9 M33.1 52.35 L33.2 52.35 33.3 52.3 33.4 52.3 33.5 52.3 33.65 52.3 33.85 52.3 34.0 52.3 34.1 52.3 34.25 52.3 34.35 52.3 34.55 52.35 34.6 52.45 34.6 52.55 34.6 52.65 34.6 52.8 34.6 52.9 34.6 52.95 34.6 53.05 34.6 53.2 34.55 53.3 34.5 53.5 34.45 53.55 34.4 53.65 34.35 53.75 34.3 53.85 34.3 53.9 34.25 53.95 34.25 54.05 34.2 54.1 34.15 54.2 34.15 54.25 34.1 54.35 34.05 54.45 33.95 54.6 33.85 54.85 33.8 55.0 33.75 55.2 33.7 55.35 33.65 55.4 33.65 55.5 33.6 55.65 33.55 55.8 33.5 55.95 33.5 56.05 33.5 56.2 33.45 56.35 33.4 56.45 33.3 56.55 33.05 56.55 32.95 56.55 32.8 56.55 32.45 56.55 32.35 56.55 32.3 56.55 32.2 56.55 32.0 56.55 31.85 56.5 31.75 56.35 31.7 56.15 31.75 56.1 31.75 56.0 31.9 55.8 32.05 55.5 32.15 55.3 32.2 55.2 32.2 55.1 32.25 55.0 32.3 54.85 32.4 54.7 32.4 54.65 32.45 54.55 32.5 54.45 32.55 54.35 32.6 54.3 32.6 54.2 32.65 54.1 32.7 54.0 32.75 53.9 32.75 53.8 32.75 53.7 32.65 53.7 32.55 53.7 32.4 53.7 32.3 53.7 32.25 53.7 32.15 53.7 32.1 53.7 32.05 53.75 31.75 53.75 31.65 53.7 31.6 53.65 31.55 53.55 31.55 53.5 31.5 53.5 31.5 53.4 31.5 53.3 31.5 53.2 31.5 53.1 31.5 52.95 31.5 52.85 31.5 52.8 31.45 52.7 31.45 52.6 31.45 52.55 31.5 52.5 31.5 52.45 31.55 52.4 31.6 52.3 31.75 52.3 31.8 52.3 31.95 52.3 32.0 52.3 32.15 52.3 32.35 52.3 32.5 52.3 32.6 52.3 32.7 52.3 32.85 52.3 32.95 52.35 33.1 52.35 M32.8 47.45 L32.7 47.45 32.55 47.5 32.4 47.55 32.3 47.65 32.25 47.8 32.3 47.95 32.35 48.05 32.45 48.05 32.5 48.1 32.55 48.1 32.7 48.15 32.8 48.15 32.95 48.1 33.05 48.05 33.2 47.95 33.2 47.8 33.2 47.7 33.15 47.6 33.05 47.55 32.9 47.5 32.85 47.5 32.8 47.45 M33.15 46.3 L33.1 46.15 33.0 46.1 32.9 46.05 32.85 46.05 32.7 46.05 32.6 46.0 32.4 46.1 32.3 46.3 32.35 46.45 32.5 46.55 32.6 46.55 32.7 46.6 32.75 46.6 32.9 46.6 33.0 46.55 33.1 46.45 33.15 46.3 M34.1 45.4 L34.15 45.5 34.2 45.55 34.3 45.7 34.35 45.75 34.35 45.85 34.4 46.05 34.4 46.15 34.4 46.3 34.35 46.4 34.25 46.6 34.1 46.75 34.1 46.8 34.05 46.8 34.0 46.85 34.0 46.95 34.1 47.0 34.2 47.05 34.25 47.05 34.3 47.15 34.4 47.25 34.45 47.25 34.45 47.3 34.55 47.45 34.6 47.6 34.65 47.65 34.65 47.75 34.65 47.85 34.65 47.95 34.65 48.0 34.65 48.15 34.6 48.2 34.6 48.35 34.5 48.55 34.45 48.65 34.4 48.7 34.3 48.85 34.2 48.9 34.15 48.95 34.1 49.0 34.0 49.05 33.95 49.1 33.85 49.15 33.8 49.2 33.7 49.2 33.6 49.25 33.5 49.3 33.4 49.35 33.3 49.35 33.15 49.35 32.95 49.4 32.85 49.4 32.75 49.4 32.65 49.35 32.55 49.35 32.45 49.35 32.2 49.35 32.0 49.3 31.85 49.25 31.65 49.15 31.55 49.1 31.45 49.05 31.3 48.9 31.25 48.85 31.15 48.8 31.0 48.6 30.9 48.4 30.9 48.35 30.85 48.25 30.85 48.1 30.8 48.0 30.8 47.95 30.8 47.85 30.85 47.8 30.85 47.7 30.9 47.5 30.95 47.4 31.1 47.2 Q31.2 47.1 31.25 47.1 L31.35 47.05 31.45 47.0 31.5 46.95 31.5 46.9 31.4 46.8 31.35 46.8 31.3 46.7 31.2 46.55 31.15 46.5 31.15 46.45 31.1 46.3 31.1 46.25 31.05 46.15 31.1 45.95 31.1 45.85 31.15 45.7 31.2 45.65 31.3 45.55 31.35 45.45 31.35 45.4 31.4 45.4 31.45 45.35 31.5 45.25 31.55 45.2 31.65 45.15 31.7 45.1 31.9 45.05 32.2 45.0 32.45 44.95 32.65 44.95 32.85 44.95 32.95 44.95 33.0 45.0 33.05 45.0 33.15 45.0 33.3 45.0 33.4 45.0 33.5 45.05 33.6 45.1 33.75 45.15 33.85 45.2 34.0 45.3 34.1 45.4 M34.2 38.5 L34.25 38.6 34.35 38.8 34.4 38.85 34.4 38.95 34.45 39.05 34.45 39.2 34.45 39.35 34.45 39.4 34.35 39.6 34.3 39.7 34.2 39.8 34.15 39.85 34.1 39.85 34.05 39.9 34.05 39.95 34.1 40.0 34.15 40.05 34.2 40.1 34.25 40.15 34.3 40.15 34.45 40.3 34.55 40.5 34.6 40.65 34.6 40.75 34.6 40.85 34.65 40.9 34.65 41.0 34.65 41.1 34.65 41.2 34.6 41.25 34.6 41.4 34.5 41.6 34.35 41.8 34.2 41.95 34.1 42.0 33.95 42.1 33.9 42.1 33.85 42.15 33.75 42.2 33.6 42.25 33.5 42.3 33.4 42.3 33.25 42.35 33.15 42.35 33.05 42.35 32.95 42.35 32.8 42.35 32.65 42.35 32.5 42.35 32.3 42.35 32.2 42.35 32.1 42.3 31.95 42.3 31.85 42.3 31.65 42.25 31.5 42.2 31.4 42.15 31.35 42.05 31.35 42.0 31.35 41.9 31.35 41.85 31.35 41.75 31.35 41.7 31.4 41.55 31.4 41.45 31.4 41.4 31.35 41.35 31.35 41.25 31.35 41.15 31.35 41.1 31.4 41.0 31.55 40.95 31.65 40.95 31.8 41.0 31.9 41.05 32.0 41.05 32.1 41.05 32.25 41.05 32.4 41.1 32.5 41.1 32.6 41.1 32.7 41.1 32.85 41.05 32.95 41.0 33.0 40.95 33.05 40.85 33.0 40.7 32.85 40.6 32.75 40.6 32.65 40.6 32.55 40.6 32.5 40.6 32.4 40.6 32.3 40.6 32.15 40.55 32.1 40.45 32.1 40.35 32.1 40.0 32.05 39.95 32.05 39.85 32.05 39.8 32.1 39.7 32.15 39.6 32.2 39.55 32.35 39.55 32.45 39.55 32.55 39.55 32.6 39.55 32.7 39.55 32.75 39.55 32.85 39.5 32.95 39.35 32.85 39.25 32.7 39.2 32.55 39.2 32.5 39.15 32.3 39.15 32.2 39.2 32.1 39.2 32.05 39.2 31.9 39.2 31.8 39.25 31.7 39.25 31.5 39.2 31.45 39.05 31.45 38.85 31.45 38.8 31.45 38.65 31.45 38.6 31.45 38.5 31.45 38.4 31.5 38.15 31.7 38.05 31.8 38.05 31.95 38.0 32.05 38.0 32.1 38.0 32.2 38.0 32.25 38.0 32.4 38.0 32.55 38.0 32.7 38.0 32.85 38.05 33.0 38.05 33.2 38.05 33.3 38.05 33.45 38.1 33.6 38.15 33.7 38.15 33.8 38.25 34.0 38.35 34.1 38.4 34.2 38.5 M33.35 25.95 L33.25 25.95 33.2 25.9 33.15 25.9 33.05 25.95 32.95 25.95 32.85 25.95 32.75 26.1 32.7 26.25 32.7 26.3 32.75 26.4 32.9 26.45 33.05 26.5 33.15 26.55 33.25 26.5 33.4 26.45 33.55 26.4 33.6 26.25 33.55 26.05 33.4 26.0 33.35 25.95 M11.35 46.4 L11.25 46.4 11.2 46.5 11.15 46.6 11.1 46.65 11.05 46.75 11.0 46.85 10.95 46.9 10.9 47.0 10.8 47.1 10.75 47.25 10.85 47.4 11.05 47.4 11.15 47.4 11.3 47.4 11.35 47.3 11.35 47.25 11.35 47.1 11.35 47.0 11.35 46.95 11.35 46.85 11.35 46.75 11.35 46.65 11.35 46.55 11.35 46.4 M18.25 39.5 L18.2 39.6 18.15 39.65 18.1 39.75 18.05 39.85 18.0 39.9 17.95 40.0 17.85 40.1 17.8 40.25 17.9 40.4 18.1 40.4 18.2 40.4 18.35 40.4 18.4 40.3 18.4 40.25 18.4 40.1 18.4 40.0 18.4 39.95 18.4 39.85 18.4 39.75 18.4 39.65 18.4 39.55 18.4 39.4 18.3 39.4 18.25 39.5 M19.15 38.05 L19.25 38.05 19.3 38.05 19.4 38.05 19.5 38.05 19.65 38.1 19.75 38.15 19.85 38.35 19.85 38.55 19.85 38.6 19.85 38.7 19.85 38.75 19.85 38.9 19.9 39.05 19.9 39.2 19.9 39.25 19.9 39.35 19.9 39.4 19.9 39.5 19.9 39.6 19.9 39.7 19.9 39.8 19.9 39.9 19.9 39.95 19.85 40.05 19.85 40.1 19.9 40.4 20.0 40.45 20.1 40.45 20.2 40.5 20.2 40.65 20.2 40.75 20.2 40.85 20.2 41.0 20.2 41.2 20.25 41.35 20.15 41.55 19.95 41.6 19.9 41.6 19.9 41.75 19.9 41.85 19.9 41.9 19.9 42.0 19.9 42.05 19.9 42.15 19.8 42.2 19.75 42.3 19.65 42.3 19.45 42.3 19.3 42.3 19.2 42.3 19.1 42.3 18.8 42.3 18.7 42.3 18.6 42.3 18.4 42.25 18.35 42.15 18.35 42.1 18.35 42.0 18.3 41.95 18.35 41.85 18.35 41.75 18.3 41.6 18.25 41.55 18.2 41.55 18.05 41.55 17.9 41.55 17.8 41.55 17.75 41.55 17.65 41.55 17.6 41.55 17.5 41.55 17.4 41.55 17.2 41.55 17.05 41.55 16.95 41.55 16.85 41.55 16.8 41.55 16.7 41.55 16.55 41.5 16.45 41.4 16.45 41.35 16.45 41.25 16.45 41.05 16.45 40.9 16.4 40.8 16.4 40.65 16.4 40.5 16.4 40.4 16.45 40.35 16.45 40.3 16.5 40.25 16.6 40.15 16.65 40.05 16.75 39.95 16.8 39.9 16.85 39.85 16.95 39.7 17.05 39.55 17.05 39.5 17.1 39.45 17.1 39.4 17.15 39.35 17.15 39.3 17.25 39.25 17.25 39.2 17.3 39.15 17.3 39.1 17.35 39.1 17.4 39.0 17.45 38.9 17.55 38.8 17.65 38.65 17.7 38.55 17.75 38.4 17.8 38.35 17.85 38.3 18.0 38.15 18.1 38.1 18.2 38.05 18.3 38.05 18.5 38.05 18.55 38.05 18.7 38.05 18.8 38.05 18.85 38.05 18.95 38.05 19.15 38.05 M10.1 46.35 L10.1 46.3 10.2 46.25 10.2 46.2 10.25 46.15 10.25 46.1 10.3 46.1 10.35 46.0 10.4 45.9 10.5 45.8 10.6 45.65 10.65 45.55 10.7 45.4 10.75 45.35 10.8 45.3 10.95 45.15 11.05 45.1 11.15 45.05 11.25 45.05 11.45 45.05 11.5 45.05 11.65 45.05 11.75 45.05 11.8 45.05 11.9 45.05 12.1 45.05 12.2 45.05 12.25 45.05 12.35 45.05 12.45 45.05 12.6 45.1 12.7 45.15 12.8 45.35 12.8 45.55 12.8 45.6 12.8 45.7 12.8 45.75 12.8 45.9 12.85 46.05 12.85 46.2 12.85 46.25 12.85 46.35 12.85 46.4 12.85 46.5 12.85 46.6 12.85 46.7 12.85 46.8 12.85 46.9 12.85 46.95 12.8 47.05 12.8 47.1 12.85 47.4 12.95 47.45 13.05 47.45 13.15 47.5 13.15 47.65 13.15 47.75 13.15 47.85 13.15 48.0 13.15 48.2 13.2 48.35 13.1 48.55 12.9 48.6 12.85 48.6 12.85 48.75 12.85 48.85 12.85 48.9 12.85 49.0 12.85 49.05 12.85 49.15 12.75 49.2 12.7 49.3 12.6 49.3 12.4 49.3 12.25 49.3 12.15 49.3 12.05 49.3 11.75 49.3 11.65 49.3 11.55 49.3 11.35 49.25 11.3 49.15 11.3 49.1 11.3 49.0 11.25 48.95 11.3 48.85 11.3 48.75 11.25 48.6 11.2 48.55 11.15 48.55 11.0 48.55 10.85 48.55 10.75 48.55 10.7 48.55 10.6 48.55 10.55 48.55 10.45 48.55 10.35 48.55 10.15 48.55 10.0 48.55 9.9 48.55 9.8 48.55 9.75 48.55 9.65 48.55 9.5 48.5 9.4 48.4 9.4 48.35 9.4 48.25 9.4 48.05 9.4 47.9 9.35 47.8 9.35 47.65 9.35 47.5 9.35 47.4 9.4 47.35 9.4 47.3 9.45 47.25 9.55 47.15 9.6 47.05 9.7 46.95 9.75 46.9 9.8 46.85 9.9 46.7 10.0 46.55 10.0 46.5 10.05 46.45 10.05 46.4 10.1 46.35 M5.25 38.0 L5.35 38.05 5.45 38.1 5.5 38.2 5.6 38.3 5.7 38.4 5.75 38.45 5.8 38.5 5.8 38.55 5.85 38.55 6.0 38.85 6.05 39.1 6.05 39.4 6.05 39.5 6.0 39.55 6.0 39.7 5.95 39.85 5.9 39.95 5.85 40.0 5.75 40.1 5.7 40.15 5.7 40.2 5.65 40.25 5.6 40.3 5.5 40.35 5.4 40.45 5.35 40.5 5.25 40.55 5.2 40.6 5.15 40.65 5.1 40.7 5.15 40.75 5.3 40.75 5.4 40.75 5.5 40.75 5.6 40.75 5.7 40.75 5.75 40.75 5.85 40.7 6.1 40.75 6.2 40.9 6.2 41.0 6.2 41.1 6.2 41.2 6.2 41.4 6.2 41.5 6.2 41.6 6.2 41.7 6.2 41.8 6.15 42.0 6.05 42.05 6.0 42.05 5.85 42.05 5.7 42.05 5.45 42.05 5.25 42.05 5.2 42.05 5.1 42.05 5.0 42.05 4.85 42.05 4.75 42.05 4.7 42.05 4.6 42.05 4.4 42.05 4.3 42.05 4.25 42.05 4.05 42.05 3.85 42.05 3.7 42.05 3.65 42.05 3.5 42.05 3.4 42.05 3.25 42.05 3.05 42.05 2.9 42.05 2.8 42.05 2.7 42.0 2.6 41.85 2.65 41.8 2.65 41.7 2.65 41.6 2.65 41.5 2.65 41.45 2.6 41.35 2.6 41.25 2.6 41.2 2.65 41.15 2.75 41.05 2.9 40.95 2.95 40.95 3.05 40.9 3.15 40.85 3.2 40.85 3.25 40.8 3.35 40.7 3.4 40.7 3.45 40.65 3.55 40.6 3.6 40.55 3.7 40.45 3.75 40.4 3.8 40.35 3.9 40.3 4.0 40.2 4.1 40.15 4.3 39.9 4.4 39.65 4.45 39.55 4.4 39.45 4.4 39.35 4.25 39.2 4.05 39.15 4.0 39.15 3.9 39.2 3.8 39.25 3.7 39.35 3.65 39.4 3.65 39.45 3.6 39.55 3.6 39.6 3.55 39.7 3.45 39.75 3.35 39.75 3.25 39.7 3.15 39.7 2.95 39.7 2.85 39.7 2.75 39.75 2.6 39.7 2.5 39.6 2.4 39.4 2.45 39.3 2.45 39.15 2.45 39.0 2.45 38.95 2.5 38.8 2.55 38.65 2.6 38.6 2.65 38.5 2.7 38.5 2.7 38.45 2.75 38.4 2.8 38.3 2.85 38.25 2.95 38.2 3.0 38.1 3.15 38.0 3.25 37.95 3.35 37.9 3.45 37.85 3.6 37.8 3.75 37.8 3.85 37.75 3.95 37.75 4.1 37.75 4.2 37.75 4.35 37.75 4.5 37.75 4.6 37.75 4.85 37.8 4.95 37.85 5.05 37.9 5.1 37.95 5.2 37.95 5.25 38.0 M3.7 33.65 L3.75 33.75 3.85 33.75 3.9 33.8 3.95 33.8 4.1 33.85 4.2 33.85 4.35 33.8 4.45 33.75 4.6 33.65 4.6 33.5 4.6 33.4 4.55 33.3 4.45 33.25 4.3 33.2 4.25 33.2 4.2 33.15 4.1 33.15 3.95 33.2 3.8 33.25 3.7 33.35 3.65 33.5 3.7 33.65 M4.4 31.8 L4.3 31.75 4.25 31.75 4.1 31.75 4.0 31.7 3.8 31.8 3.7 32.0 3.75 32.15 3.9 32.25 4.0 32.25 4.1 32.3 4.15 32.3 4.3 32.3 4.4 32.25 4.5 32.15 4.55 32.0 4.5 31.85 4.4 31.8 M5.15 30.85 L5.25 30.9 5.4 31.0 5.5 31.1 5.55 31.2 5.6 31.25 5.7 31.4 5.75 31.45 5.75 31.55 5.8 31.75 5.8 31.85 5.8 32.0 5.75 32.1 5.65 32.3 5.5 32.45 5.5 32.5 5.45 32.5 5.4 32.55 5.4 32.65 5.5 32.7 5.6 32.75 5.65 32.75 5.7 32.85 5.8 32.95 5.85 32.95 5.85 33.0 5.95 33.15 6.0 33.3 6.05 33.35 6.05 33.45 6.05 33.55 6.05 33.65 6.05 33.7 6.05 33.85 6.0 33.9 6.0 34.05 5.9 34.25 5.85 34.35 5.8 34.4 5.7 34.55 5.6 34.6 5.55 34.65 5.5 34.7 5.4 34.75 5.35 34.8 5.25 34.85 5.2 34.9 5.1 34.9 5.0 34.95 4.9 35.0 4.8 35.05 4.7 35.05 4.55 35.05 4.35 35.1 4.25 35.1 4.15 35.1 4.05 35.05 3.95 35.05 3.85 35.05 3.6 35.05 3.4 35.0 3.25 34.95 3.05 34.85 2.95 34.8 2.85 34.75 2.7 34.6 2.65 34.55 2.55 34.5 2.4 34.3 2.3 34.1 2.3 34.05 2.25 33.95 2.25 33.8 2.2 33.7 2.2 33.65 2.2 33.55 2.25 33.5 2.25 33.4 2.3 33.2 2.35 33.1 2.5 32.9 2.65 32.8 2.75 32.75 2.85 32.7 2.9 32.65 2.9 32.6 2.8 32.5 2.75 32.5 2.7 32.4 2.6 32.25 2.55 32.2 2.55 32.15 2.5 32.0 2.5 31.95 2.45 31.85 2.5 31.65 2.5 31.55 2.55 31.4 2.6 31.35 2.7 31.25 2.75 31.15 2.75 31.1 2.8 31.1 2.85 31.05 2.9 30.95 2.95 30.9 3.05 30.85 3.1 30.8 3.3 30.75 3.6 30.7 3.85 30.65 4.05 30.65 4.25 30.65 4.35 30.65 4.4 30.7 4.45 30.7 4.55 30.7 4.7 30.7 4.8 30.7 4.9 30.75 5.0 30.8 5.15 30.85 M18.3 32.0 L18.2 32.05 18.15 32.05 18.05 32.15 18.0 32.3 18.0 32.4 18.1 32.55 18.25 32.6 18.4 32.6 18.55 32.6 18.65 32.55 18.8 32.45 18.85 32.3 18.85 32.25 18.8 32.15 18.7 32.1 18.65 32.05 18.6 32.05 18.5 32.0 18.4 32.0 18.3 32.0 M17.5 30.9 L17.6 30.9 17.75 30.85 17.8 30.85 17.85 30.8 17.95 30.8 18.1 30.75 18.25 30.75 18.3 30.75 18.4 30.75 18.5 30.75 18.6 30.75 18.7 30.75 18.85 30.75 19.0 30.8 19.1 30.8 19.2 30.85 19.35 30.9 19.45 31.0 19.6 31.05 19.65 31.1 19.7 31.15 19.75 31.2 19.8 31.2 19.95 31.4 20.0 31.5 20.1 31.65 20.1 31.75 20.15 31.8 20.2 31.95 20.25 32.1 20.3 32.2 20.3 32.3 20.35 32.45 20.4 32.55 20.4 32.7 20.4 32.8 20.35 32.9 20.4 33.0 20.4 33.1 20.4 33.2 20.35 33.4 20.35 33.5 20.3 33.65 20.25 33.75 20.25 33.8 20.2 33.85 20.15 33.95 20.15 34.0 20.1 34.1 20.05 34.15 20.0 34.25 19.95 34.35 19.9 34.4 19.85 34.45 19.85 34.5 19.8 34.5 19.8 34.55 19.75 34.6 19.7 34.65 19.6 34.65 19.55 34.7 19.5 34.75 19.35 34.85 19.25 34.9 19.2 34.95 19.05 35.0 18.95 35.05 18.85 35.05 18.8 35.1 18.55 35.1 18.25 35.1 17.95 35.1 17.8 35.1 17.7 35.1 17.5 35.05 17.45 35.05 17.35 35.0 17.1 34.95 17.0 34.8 17.0 34.7 17.0 34.6 17.0 34.5 17.0 34.4 17.0 34.35 17.0 34.25 17.0 34.15 17.05 33.95 17.25 33.85 17.3 33.85 17.4 33.9 17.55 33.95 17.65 34.0 17.75 34.0 17.95 34.0 18.05 34.0 18.15 34.0 18.2 34.0 18.3 34.0 18.4 34.0 18.5 33.95 18.6 33.95 18.75 33.85 18.8 33.7 18.75 33.6 18.65 33.6 18.5 33.65 18.45 33.7 18.15 33.7 18.05 33.7 17.8 33.7 17.5 33.6 17.25 33.5 17.2 33.5 17.15 33.45 17.1 33.4 17.05 33.4 17.05 33.35 17.0 33.35 17.0 33.3 16.95 33.25 16.85 33.15 16.8 33.1 16.75 33.0 16.7 32.9 16.65 32.8 16.6 32.75 16.55 32.5 16.55 32.35 16.55 32.25 16.6 32.05 16.6 31.95 16.6 31.85 16.65 31.7 16.7 31.65 16.75 31.6 16.8 31.5 16.85 31.4 16.95 31.25 17.05 31.2 17.15 31.15 17.2 31.1 17.35 31.0 17.5 30.9 M17.65 23.45 L17.7 23.45 17.85 23.45 18.0 23.45 18.15 23.45 18.3 23.5 18.45 23.5 18.65 23.5 18.75 23.5 18.9 23.55 19.05 23.6 19.15 23.6 19.25 23.7 19.45 23.8 19.55 23.85 19.65 23.95 19.7 24.05 19.8 24.25 19.85 24.3 19.85 24.4 19.9 24.5 19.9 24.65 19.9 24.8 19.9 24.85 19.8 25.05 19.75 25.15 19.65 25.25 19.6 25.3 19.55 25.3 19.5 25.35 19.5 25.4 19.55 25.45 19.6 25.5 19.65 25.55 19.7 25.6 19.75 25.6 19.9 25.75 20.0 25.95 20.05 26.1 20.05 26.2 20.05 26.3 20.1 26.35 20.1 26.45 20.1 26.55 20.1 26.65 20.05 26.7 20.05 26.85 19.95 27.05 19.8 27.25 19.65 27.4 19.55 27.45 19.4 27.55 19.35 27.55 19.3 27.6 19.2 27.65 19.05 27.7 18.95 27.75 18.85 27.75 18.7 27.8 18.6 27.8 18.5 27.8 18.4 27.8 18.25 27.8 18.1 27.8 17.95 27.8 17.75 27.8 17.65 27.8 17.55 27.75 17.4 27.75 17.3 27.75 17.1 27.7 16.95 27.65 16.85 27.6 16.8 27.5 16.8 27.45 16.8 27.35 16.8 27.3 16.8 27.2 16.8 27.15 16.85 27.0 16.85 26.9 16.85 26.85 16.8 26.8 16.8 26.7 16.8 26.6 16.8 26.55 16.85 26.45 17.0 26.4 17.1 26.4 17.25 26.45 17.35 26.5 17.45 26.5 17.55 26.5 17.7 26.5 17.85 26.55 17.95 26.55 18.05 26.55 18.15 26.55 18.3 26.5 18.4 26.45 18.45 26.4 18.5 26.3 18.45 26.15 18.3 26.05 18.2 26.05 18.1 26.05 18.0 26.05 17.95 26.05 17.85 26.05 17.75 26.05 17.6 26.0 17.55 25.9 17.55 25.8 17.55 25.45 17.5 25.4 17.5 25.3 17.5 25.25 17.55 25.15 17.6 25.05 17.65 25.0 17.8 25.0 17.9 25.0 18.0 25.0 18.05 25.0 18.15 25.0 18.2 25.0 18.3 24.95 18.4 24.8 18.3 24.7 18.15 24.65 18.0 24.65 17.95 24.6 17.75 24.6 17.65 24.65 17.55 24.65 17.5 24.65 17.35 24.65 17.25 24.7 17.15 24.7 16.95 24.65 16.9 24.5 16.9 24.3 16.9 24.25 16.9 24.1 16.9 24.05 16.9 23.95 16.9 23.85 16.95 23.6 17.15 23.5 17.25 23.5 17.4 23.45 17.5 23.45 17.55 23.45 17.65 23.45 M9.8 17.0 L9.8 16.85 9.8 16.8 9.8 16.7 9.8 16.6 9.85 16.35 10.05 16.25 10.15 16.25 10.3 16.2 10.4 16.2 10.45 16.2 10.55 16.2 10.6 16.2 10.75 16.2 10.9 16.2 11.05 16.2 11.2 16.25 11.35 16.25 11.55 16.25 11.65 16.25 11.8 16.3 11.95 16.35 12.05 16.35 12.15 16.45 12.35 16.55 12.45 16.6 12.55 16.7 12.6 16.8 12.7 17.0 12.75 17.05 12.75 17.15 12.8 17.25 12.8 17.4 12.8 17.55 12.8 17.6 12.7 17.8 12.65 17.9 12.55 18.0 12.5 18.05 12.45 18.05 12.4 18.1 12.4 18.15 12.45 18.2 12.5 18.25 12.55 18.3 12.6 18.35 12.65 18.35 12.8 18.5 12.9 18.7 12.95 18.85 12.95 18.95 12.95 19.05 13.0 19.1 13.0 19.2 13.0 19.3 13.0 19.4 12.95 19.45 12.95 19.6 12.85 19.8 12.7 20.0 12.55 20.15 12.45 20.2 12.3 20.3 12.25 20.3 12.2 20.35 12.1 20.4 11.95 20.45 11.85 20.5 11.75 20.5 11.6 20.55 11.5 20.55 11.4 20.55 11.3 20.55 11.15 20.55 11.0 20.55 10.85 20.55 10.65 20.55 10.55 20.55 10.45 20.5 10.3 20.5 10.2 20.5 10.0 20.45 9.85 20.4 9.75 20.35 9.7 20.25 9.7 20.2 9.7 20.1 9.7 20.05 9.7 19.95 9.7 19.9 9.75 19.75 9.75 19.65 9.75 19.6 9.7 19.55 9.7 19.45 9.7 19.35 9.7 19.3 9.75 19.2 9.9 19.15 10.0 19.15 10.15 19.2 10.25 19.25 10.35 19.25 10.45 19.25 10.6 19.25 10.75 19.3 10.85 19.3 10.95 19.3 11.05 19.3 11.2 19.25 11.3 19.2 11.35 19.15 11.4 19.05 11.35 18.9 11.2 18.8 11.1 18.8 11.0 18.8 10.9 18.8 10.85 18.8 10.75 18.8 10.65 18.8 10.5 18.75 10.45 18.65 10.45 18.55 10.45 18.2 10.4 18.15 10.4 18.05 10.4 18.0 10.45 17.9 10.5 17.8 10.55 17.75 10.7 17.75 10.8 17.75 10.9 17.75 10.95 17.75 11.05 17.75 11.1 17.75 11.2 17.7 11.3 17.55 11.2 17.45 11.05 17.4 10.9 17.4 10.85 17.35 10.65 17.35 10.55 17.4 10.45 17.4 10.4 17.4 10.25 17.4 10.15 17.45 10.05 17.45 9.85 17.4 9.8 17.25 9.8 17.05 9.8 17.0 M11.7 10.35 L11.6 10.3 11.55 10.25 11.5 10.25 11.4 10.2 11.3 10.2 11.2 10.2 11.1 10.25 11.05 10.25 10.95 10.35 10.9 10.5 10.9 10.6 11.0 10.75 11.15 10.8 11.3 10.8 11.45 10.8 11.55 10.75 11.7 10.65 11.75 10.5 11.75 10.45 11.7 10.35 M10.25 9.2 L10.4 9.1 10.5 9.1 10.65 9.05 10.7 9.05 10.75 9.0 10.85 9.0 11.0 8.95 11.15 8.95 11.2 8.95 11.3 8.95 11.4 8.95 11.5 8.95 11.6 8.95 11.75 8.95 11.9 9.0 12.0 9.0 12.1 9.05 12.25 9.1 12.35 9.2 12.5 9.25 12.55 9.3 12.6 9.35 12.65 9.4 12.7 9.4 12.85 9.6 12.9 9.7 13.0 9.85 13.0 9.95 13.05 10.0 13.1 10.15 13.15 10.3 13.2 10.4 13.2 10.5 13.25 10.65 13.3 10.75 13.3 10.9 13.3 11.0 13.25 11.1 13.3 11.2 13.3 11.3 13.3 11.4 13.25 11.6 13.25 11.7 13.2 11.85 13.15 11.95 13.15 12.0 13.1 12.05 13.05 12.15 13.05 12.2 13.0 12.3 12.95 12.35 12.9 12.45 12.85 12.55 12.8 12.6 12.75 12.65 12.75 12.7 12.7 12.7 12.7 12.75 12.65 12.8 12.6 12.85 12.5 12.85 12.45 12.9 12.4 12.95 12.25 13.05 12.15 13.1 12.1 13.15 11.95 13.2 11.85 13.25 11.75 13.25 11.7 13.3 11.45 13.3 11.15 13.3 10.85 13.3 10.7 13.3 10.6 13.3 10.4 13.25 10.35 13.25 10.25 13.2 10.0 13.15 9.9 13.0 9.9 12.9 9.9 12.8 9.9 12.7 9.9 12.6 9.9 12.55 9.9 12.45 9.9 12.35 9.95 12.15 10.15 12.05 10.2 12.05 10.3 12.1 10.45 12.15 10.55 12.2 10.65 12.2 10.85 12.2 10.95 12.2 11.05 12.2 11.1 12.2 11.2 12.2 11.3 12.2 11.4 12.15 11.5 12.15 11.65 12.05 11.7 11.9 11.65 11.8 11.55 11.8 11.4 11.85 11.35 11.9 11.05 11.9 10.95 11.9 10.7 11.9 10.4 11.8 10.15 11.7 10.1 11.7 10.05 11.65 10.0 11.6 9.95 11.6 9.95 11.55 9.9 11.55 9.9 11.5 9.85 11.45 9.75 11.35 9.7 11.3 9.65 11.2 9.6 11.1 9.55 11.0 9.5 10.95 9.45 10.7 9.45 10.55 9.45 10.45 9.5 10.25 9.5 10.15 9.5 10.05 9.55 9.9 9.6 9.85 9.65 9.8 9.7 9.7 9.75 9.6 9.85 9.45 9.95 9.4 10.05 9.35 10.1 9.3 10.25 9.2 M18.55 1.8 L18.65 1.8 18.75 1.75 18.85 1.75 18.95 1.75 19.1 1.75 19.3 1.75 19.45 1.75 19.55 1.75 19.7 1.75 19.8 1.75 20.0 1.8 20.05 1.9 20.05 2.0 20.05 2.1 20.05 2.25 20.05 2.35 20.05 2.4 20.05 2.5 20.05 2.65 20.0 2.75 19.95 2.95 19.9 3.0 19.85 3.1 19.8 3.2 19.75 3.3 19.75 3.35 19.7 3.4 19.7 3.5 19.65 3.55 19.6 3.65 19.6 3.7 19.55 3.8 19.5 3.9 19.4 4.05 19.3 4.3 19.25 4.45 19.2 4.65 19.15 4.8 19.1 4.85 19.1 4.95 19.05 5.1 19.0 5.25 18.95 5.4 18.95 5.5 18.95 5.65 18.9 5.8 18.85 5.9 18.75 6.0 18.5 6.0 18.4 6.0 18.25 6.0 17.9 6.0 17.8 6.0 17.75 6.0 17.65 6.0 17.45 6.0 17.3 5.95 17.2 5.8 17.15 5.6 17.2 5.55 17.2 5.45 17.35 5.25 17.5 4.95 17.6 4.75 17.65 4.65 17.65 4.55 17.7 4.45 17.75 4.3 17.85 4.15 17.85 4.1 17.9 4.0 17.95 3.9 18.0 3.8 18.05 3.75 18.05 3.65 18.1 3.55 18.15 3.45 18.2 3.35 18.2 3.25 18.2 3.15 18.1 3.15 18.0 3.15 17.85 3.15 17.75 3.15 17.7 3.15 17.6 3.15 17.55 3.15 17.5 3.2 17.2 3.2 17.1 3.15 17.05 3.1 17.0 3.0 17.0 2.95 16.95 2.95 16.95 2.85 16.95 2.75 16.95 2.65 16.95 2.55 16.95 2.4 16.95 2.3 16.95 2.25 16.9 2.15 16.9 2.05 16.9 2.0 16.95 1.95 16.95 1.9 17.0 1.85 17.05 1.75 17.2 1.75 17.25 1.75 17.4 1.75 17.45 1.75 17.6 1.75 17.8 1.75 17.95 1.75 18.05 1.75 18.15 1.75 18.3 1.75 18.4 1.8 18.55 1.8 M31.55 24.3 L31.6 24.2 31.75 24.05 31.85 23.95 31.9 23.9 31.95 23.9 32.05 23.8 32.15 23.75 32.2 23.7 32.25 23.65 32.3 23.65 32.3 23.6 32.55 23.55 32.8 23.45 33.05 23.45 33.2 23.45 33.45 23.4 33.5 23.45 33.65 23.45 33.7 23.45 33.8 23.45 33.9 23.45 34.0 23.5 34.05 23.5 34.15 23.55 34.25 23.55 34.5 23.65 34.55 23.7 34.6 23.8 34.6 23.95 34.6 24.05 34.6 24.15 34.6 24.25 34.6 24.35 34.6 24.4 34.6 24.5 34.5 24.65 34.4 24.7 34.3 24.7 34.2 24.7 34.15 24.65 34.05 24.6 33.95 24.6 33.8 24.55 33.65 24.55 33.55 24.55 33.45 24.55 33.4 24.55 33.1 24.55 32.95 24.65 32.8 24.75 32.75 24.85 32.8 24.9 32.95 24.9 33.05 24.85 33.25 24.85 33.45 24.85 33.55 24.85 33.65 24.85 33.75 24.85 33.8 24.85 33.9 24.9 33.95 24.9 34.05 24.95 34.3 25.05 34.35 25.05 34.4 25.1 34.45 25.15 34.55 25.2 34.6 25.25 34.65 25.3 34.65 25.35 34.75 25.45 34.8 25.6 34.9 25.75 34.95 26.0 35.0 26.15 35.0 26.25 34.95 26.4 34.95 26.5 34.95 26.65 34.9 26.85 34.8 27.0 34.7 27.1 34.65 27.15 34.5 27.35 34.35 27.5 34.3 27.5 34.25 27.55 34.2 27.6 34.15 27.6 34.1 27.65 34.0 27.7 33.85 27.7 33.7 27.75 33.6 27.75 33.55 27.75 33.45 27.8 33.35 27.8 33.2 27.85 32.95 27.85 32.7 27.8 32.55 27.75 32.4 27.7 32.3 27.65 32.15 27.6 32.05 27.55 32.0 27.5 31.9 27.45 31.8 27.4 31.7 27.35 31.65 27.25 31.6 27.2 31.6 27.15 31.45 27.0 31.4 26.85 31.35 26.75 31.3 26.65 31.3 26.55 31.25 26.5 31.25 26.4 31.15 26.2 31.15 25.8 31.15 25.7 31.15 25.6 31.15 25.35 31.15 25.25 31.2 25.15 31.2 25.05 31.2 25.0 31.25 24.85 31.3 24.75 31.4 24.6 31.45 24.4 31.55 24.3 M32.1 16.85 L32.25 16.75 32.3 16.65 32.35 16.6 32.5 16.45 32.7 16.3 32.8 16.25 32.85 16.25 32.95 16.25 33.05 16.25 33.1 16.25 33.2 16.25 33.35 16.25 33.45 16.25 33.55 16.25 33.7 16.25 33.8 16.25 34.0 16.25 34.1 16.35 34.15 16.45 34.15 16.65 34.15 16.7 34.15 16.85 34.15 16.9 34.15 17.05 34.1 17.15 34.1 17.35 34.15 17.45 34.15 17.55 34.15 17.7 34.15 17.85 34.15 17.95 34.15 18.0 34.15 18.1 34.15 18.25 34.15 18.35 34.15 18.8 34.15 18.9 34.15 18.95 34.15 19.05 34.15 19.1 34.15 19.2 34.15 19.3 34.1 19.4 34.1 19.55 34.1 19.65 34.1 19.75 34.15 19.95 34.15 20.05 34.15 20.2 34.15 20.3 34.1 20.45 33.9 20.5 33.8 20.5 33.75 20.5 33.65 20.5 33.5 20.5 33.4 20.5 33.3 20.5 33.2 20.5 33.1 20.5 32.95 20.5 32.85 20.5 32.65 20.45 32.55 20.25 32.55 20.15 32.6 20.05 32.6 19.95 32.6 19.85 32.6 19.7 32.6 19.5 32.6 19.35 32.6 19.15 32.6 18.85 32.6 18.65 32.6 18.55 32.6 18.45 32.6 18.35 32.6 18.25 32.6 18.15 32.6 18.05 32.6 17.95 32.5 17.9 32.4 17.95 32.3 18.0 32.25 18.05 32.2 18.1 32.1 18.15 32.05 18.15 31.95 18.15 31.85 18.05 31.8 18.0 31.75 17.95 31.7 17.85 31.6 17.8 31.45 17.65 31.4 17.45 31.4 17.4 31.45 17.35 31.5 17.25 31.65 17.15 31.7 17.15 31.8 17.1 31.85 17.05 31.95 16.95 32.0 16.9 32.1 16.85 M33.05 9.2 L33.2 9.2 33.3 9.2 33.55 9.25 33.65 9.3 33.75 9.35 33.8 9.4 33.9 9.4 33.95 9.45 34.05 9.5 34.15 9.55 34.2 9.65 34.3 9.75 34.4 9.85 34.45 9.9 34.5 9.95 34.5 10.0 34.55 10.0 34.7 10.3 34.75 10.55 34.75 10.85 34.75 10.95 34.7 11.0 34.7 11.15 34.65 11.3 34.6 11.4 34.55 11.45 34.45 11.55 34.4 11.6 34.4 11.65 34.35 11.7 34.3 11.75 34.2 11.8 34.1 11.9 34.05 11.95 33.95 12.0 33.9 12.05 33.85 12.1 33.8 12.15 33.85 12.2 34.0 12.2 34.1 12.2 34.2 12.2 34.3 12.2 34.4 12.2 34.45 12.2 34.55 12.15 34.8 12.2 34.9 12.35 34.9 12.45 34.9 12.55 34.9 12.65 34.9 12.85 34.9 12.95 34.9 13.05 34.9 13.15 34.9 13.25 34.85 13.45 34.75 13.5 34.7 13.5 34.55 13.5 34.4 13.5 34.15 13.5 33.95 13.5 33.9 13.5 33.8 13.5 33.7 13.5 33.55 13.5 33.45 13.5 33.4 13.5 33.3 13.5 33.1 13.5 33.0 13.5 32.95 13.5 32.75 13.5 32.55 13.5 32.4 13.5 32.35 13.5 32.2 13.5 32.1 13.5 31.95 13.5 31.75 13.5 31.6 13.5 31.5 13.5 31.4 13.45 31.3 13.3 31.35 13.25 31.35 13.15 31.35 13.05 31.35 12.95 31.35 12.9 31.3 12.8 31.3 12.7 31.3 12.65 31.35 12.6 31.45 12.5 31.6 12.4 31.65 12.4 31.75 12.35 31.85 12.3 31.9 12.3 31.95 12.25 32.05 12.15 32.1 12.15 32.15 12.1 32.25 12.05 32.3 12.0 32.4 11.9 32.45 11.85 32.5 11.8 32.6 11.75 32.7 11.65 32.8 11.6 33.0 11.35 33.1 11.1 33.15 11.0 33.1 10.9 33.1 10.8 32.95 10.65 32.75 10.6 32.7 10.6 32.6 10.65 32.5 10.7 32.4 10.8 32.35 10.85 32.35 10.9 32.3 11.0 32.3 11.05 32.25 11.15 32.15 11.2 32.05 11.2 31.95 11.15 31.85 11.15 31.65 11.15 31.55 11.15 31.45 11.2 31.3 11.15 31.2 11.05 31.1 10.85 31.15 10.75 31.15 10.6 31.15 10.45 31.15 10.4 31.2 10.25 31.25 10.1 31.3 10.05 31.35 9.95 31.4 9.95 31.4 9.9 31.45 9.85 31.5 9.75 31.55 9.7 31.65 9.65 31.7 9.55 31.85 9.45 31.95 9.4 32.05 9.35 32.15 9.3 32.3 9.25 32.45 9.25 32.55 9.2 32.65 9.2 32.8 9.2 32.9 9.2 33.05 9.2 M54.25 45.0 L54.4 45.0 54.55 45.05 54.7 45.05 54.9 45.05 55.0 45.05 55.15 45.1 55.3 45.15 55.4 45.15 55.5 45.25 55.7 45.35 55.8 45.4 55.9 45.5 55.95 45.6 56.05 45.8 56.1 45.85 56.1 45.95 56.15 46.05 56.15 46.2 56.15 46.35 56.15 46.4 56.05 46.6 56.0 46.7 55.9 46.8 55.85 46.85 55.8 46.85 55.75 46.9 55.75 46.95 55.8 47.0 55.85 47.05 55.9 47.1 55.95 47.15 56.0 47.15 56.15 47.3 56.25 47.5 56.3 47.65 56.3 47.75 56.3 47.85 56.35 47.9 56.35 48.0 56.35 48.1 56.35 48.2 56.3 48.25 56.3 48.4 56.2 48.6 56.05 48.8 55.9 48.95 55.8 49.0 55.65 49.1 55.6 49.1 55.55 49.15 55.45 49.2 55.3 49.25 55.2 49.3 55.1 49.3 54.95 49.35 54.85 49.35 54.75 49.35 54.65 49.35 54.5 49.35 54.35 49.35 54.2 49.35 54.0 49.35 53.9 49.35 53.8 49.3 53.65 49.3 53.55 49.3 53.35 49.25 53.2 49.2 53.1 49.15 53.05 49.05 53.05 49.0 53.05 48.9 53.05 48.85 53.05 48.75 53.05 48.7 53.1 48.55 53.1 48.45 53.1 48.4 53.05 48.35 53.05 48.25 53.05 48.15 53.05 48.1 53.1 48.0 53.25 47.95 53.35 47.95 53.5 48.0 53.6 48.05 53.7 48.05 53.8 48.05 53.95 48.05 54.1 48.1 54.2 48.1 54.3 48.1 54.4 48.1 54.55 48.05 54.65 48.0 54.7 47.95 54.75 47.85 54.7 47.7 54.55 47.6 54.45 47.6 54.35 47.6 54.25 47.6 54.2 47.6 54.1 47.6 54.0 47.6 53.85 47.55 53.8 47.45 53.8 47.35 53.8 47.0 53.75 46.95 53.75 46.85 53.75 46.8 53.8 46.7 53.85 46.6 53.9 46.55 54.05 46.55 54.15 46.55 54.25 46.55 54.3 46.55 54.4 46.55 54.45 46.55 54.55 46.5 54.65 46.35 54.55 46.25 54.4 46.2 54.25 46.2 54.2 46.15 54.0 46.15 53.9 46.2 53.8 46.2 53.75 46.2 53.6 46.2 53.5 46.25 53.4 46.25 53.2 46.2 53.15 46.05 53.15 45.85 53.15 45.8 53.15 45.65 53.15 45.6 53.15 45.5 53.15 45.4 53.2 45.15 53.4 45.05 53.5 45.05 53.65 45.0 53.75 45.0 53.8 45.0 53.9 45.0 53.95 45.0 54.1 45.0 54.25 45.0 M48.1 37.8 L48.2 37.8 48.25 37.8 48.45 37.85 48.5 38.1 48.5 38.15 48.5 38.25 48.5 38.3 48.5 38.4 48.5 38.5 48.5 38.65 48.45 38.75 48.45 38.8 48.35 38.9 48.2 38.95 48.15 38.95 48.0 38.95 47.9 38.95 47.85 38.95 47.75 38.95 47.65 38.95 47.55 38.95 47.45 38.95 47.35 38.95 47.25 38.95 47.2 38.95 47.1 38.95 47.1 39.15 47.2 39.2 47.3 39.2 47.4 39.2 47.5 39.2 47.7 39.25 47.95 39.3 48.1 39.3 48.25 39.4 48.45 39.5 48.55 39.6 48.65 39.7 48.75 39.8 48.85 40.0 48.9 40.15 48.9 40.3 48.95 40.35 48.95 40.45 48.95 40.55 48.95 40.6 48.95 40.7 48.95 40.75 48.95 40.85 48.9 40.95 48.9 41.05 48.85 41.1 48.8 41.2 48.75 41.3 48.75 41.4 48.65 41.5 48.6 41.55 48.45 41.7 48.4 41.75 48.35 41.75 48.25 41.8 48.2 41.85 48.1 41.9 48.0 41.95 47.85 42.0 47.65 42.05 47.55 42.1 47.4 42.1 47.3 42.1 47.2 42.1 46.75 42.1 46.6 42.1 46.5 42.05 46.4 42.05 46.35 42.05 46.25 42.05 46.15 42.0 45.9 41.95 45.8 41.9 45.65 41.8 45.65 41.65 45.65 41.5 45.65 41.25 45.65 41.1 45.65 41.0 45.65 40.9 45.7 40.75 45.8 40.65 45.95 40.7 46.1 40.7 46.15 40.75 46.2 40.75 46.25 40.8 46.35 40.8 46.45 40.8 46.5 40.8 46.55 40.85 46.65 40.85 46.75 40.85 46.9 40.85 47.0 40.85 47.1 40.8 47.2 40.7 47.25 40.55 47.25 40.45 47.15 40.35 47.0 40.3 46.9 40.3 46.85 40.3 46.75 40.3 46.7 40.3 46.55 40.25 46.45 40.25 46.4 40.25 46.3 40.25 46.2 40.3 46.15 40.25 46.0 40.25 45.85 40.2 45.8 40.05 45.8 39.95 45.8 39.8 45.85 39.7 45.85 39.6 45.85 39.55 45.85 39.35 45.85 39.15 45.85 38.95 45.85 38.85 45.8 38.7 45.8 38.6 45.8 38.55 45.8 38.45 45.8 38.3 45.8 38.15 45.8 38.1 45.85 37.9 46.1 37.8 46.2 37.8 46.3 37.8 46.45 37.8 46.6 37.8 46.7 37.8 46.8 37.8 46.95 37.8 47.05 37.8 47.15 37.8 47.3 37.8 47.4 37.8 47.65 37.8 47.75 37.8 47.85 37.8 47.95 37.8 48.1 37.8 M45.9 30.9 L45.95 30.8 46.1 30.8 46.15 30.8 46.3 30.8 46.35 30.8 46.5 30.8 46.7 30.8 46.85 30.8 46.95 30.8 47.05 30.8 47.2 30.8 47.3 30.85 47.45 30.85 47.55 30.85 47.65 30.8 47.75 30.8 47.85 30.8 48.0 30.8 48.2 30.8 48.35 30.8 48.45 30.8 48.6 30.8 48.7 30.8 48.9 30.85 48.95 30.95 48.95 31.05 48.95 31.15 48.95 31.3 48.95 31.4 48.95 31.45 48.95 31.55 48.95 31.7 48.9 31.8 48.85 32.0 48.8 32.05 48.75 32.15 48.7 32.25 48.65 32.35 48.65 32.4 48.6 32.45 48.6 32.55 48.55 32.6 48.5 32.7 48.5 32.75 48.45 32.85 48.4 32.95 48.3 33.1 48.2 33.35 48.15 33.5 48.1 33.7 48.05 33.85 48.0 33.9 48.0 34.0 47.95 34.15 47.9 34.3 47.85 34.45 47.85 34.55 47.85 34.7 47.8 34.85 47.75 34.95 47.65 35.05 47.4 35.05 47.3 35.05 47.15 35.05 46.8 35.05 46.7 35.05 46.65 35.05 46.55 35.05 46.35 35.05 46.2 35.0 46.1 34.85 46.05 34.65 46.1 34.6 46.1 34.5 46.25 34.3 46.4 34.0 46.5 33.8 46.55 33.7 46.55 33.6 46.6 33.5 46.65 33.35 46.75 33.2 46.75 33.15 46.8 33.05 46.85 32.95 46.9 32.85 46.95 32.8 46.95 32.7 47.0 32.6 47.05 32.5 47.1 32.4 47.1 32.3 47.1 32.2 47.0 32.2 46.9 32.2 46.75 32.2 46.65 32.2 46.6 32.2 46.5 32.2 46.45 32.2 46.4 32.25 46.1 32.25 46.0 32.2 45.95 32.15 45.9 32.05 45.9 32.0 45.85 32.0 45.85 31.9 45.85 31.8 45.85 31.7 45.85 31.6 45.85 31.45 45.85 31.35 45.85 31.3 45.8 31.2 45.8 31.1 45.8 31.05 45.85 31.0 45.85 30.95 45.9 30.9 M47.35 24.85 L47.25 24.85 47.2 24.95 47.15 25.05 47.1 25.1 47.05 25.2 47.0 25.3 46.95 25.35 46.9 25.45 46.8 25.55 46.75 25.7 46.85 25.85 47.05 25.85 47.15 25.85 47.3 25.85 47.35 25.75 47.35 25.7 47.35 25.55 47.35 25.45 47.35 25.4 47.35 25.3 47.35 25.2 47.35 25.1 47.35 25.0 47.35 24.85 M60.55 30.8 L60.7 30.75 60.8 30.75 60.85 30.75 60.95 30.75 61.0 30.75 61.15 30.75 61.3 30.75 61.45 30.75 61.6 30.8 61.75 30.8 61.95 30.8 62.05 30.8 62.2 30.85 62.35 30.9 62.45 30.9 62.55 31.0 62.75 31.1 62.85 31.15 62.95 31.25 63.0 31.35 63.1 31.55 63.15 31.6 63.15 31.7 63.2 31.8 63.2 31.95 63.2 32.1 63.2 32.15 63.1 32.35 63.05 32.45 62.95 32.55 62.9 32.6 62.85 32.6 62.8 32.65 62.8 32.7 62.85 32.75 62.9 32.8 62.95 32.85 63.0 32.9 63.05 32.9 63.2 33.05 63.3 33.25 63.35 33.4 63.35 33.5 63.35 33.6 63.4 33.65 63.4 33.75 63.4 33.85 63.4 33.95 63.35 34.0 63.35 34.15 63.25 34.35 63.1 34.55 62.95 34.7 62.85 34.75 62.7 34.85 62.65 34.85 62.6 34.9 62.5 34.95 62.35 35.0 62.25 35.05 62.15 35.05 62.0 35.1 61.9 35.1 61.8 35.1 61.7 35.1 61.55 35.1 61.4 35.1 61.25 35.1 61.05 35.1 60.95 35.1 60.85 35.05 60.7 35.05 60.6 35.05 60.4 35.0 60.25 34.95 60.15 34.9 60.1 34.8 60.1 34.75 60.1 34.65 60.1 34.6 60.1 34.5 60.1 34.45 60.15 34.3 60.15 34.2 60.15 34.15 60.1 34.1 60.1 34.0 60.1 33.9 60.1 33.85 60.15 33.75 60.3 33.7 60.4 33.7 60.55 33.75 60.65 33.8 60.75 33.8 60.85 33.8 61.0 33.8 61.15 33.85 61.25 33.85 61.35 33.85 61.45 33.85 61.6 33.8 61.7 33.75 61.75 33.7 61.8 33.6 61.75 33.45 61.6 33.35 61.5 33.35 61.4 33.35 61.3 33.35 61.25 33.35 61.15 33.35 61.05 33.35 60.9 33.3 60.85 33.2 60.85 33.1 60.85 32.75 60.8 32.7 60.8 32.6 60.8 32.55 60.85 32.45 60.9 32.35 60.95 32.3 61.1 32.3 61.2 32.3 61.3 32.3 61.35 32.3 61.45 32.3 61.5 32.3 61.6 32.25 61.7 32.1 61.6 32.0 61.45 31.95 61.3 31.95 61.25 31.9 61.05 31.9 60.95 31.95 60.85 31.95 60.8 31.95 60.65 31.95 60.55 32.0 60.45 32.0 60.25 31.95 60.2 31.8 60.2 31.6 60.2 31.55 60.2 31.4 60.2 31.35 60.2 31.25 60.2 31.15 60.25 30.9 60.45 30.8 60.55 30.8 M54.95 18.9 L54.9 18.8 54.8 18.75 54.65 18.7 54.6 18.7 54.55 18.65 54.45 18.65 54.3 18.7 54.15 18.75 54.05 18.85 54.0 19.0 54.05 19.15 54.1 19.25 54.2 19.25 54.25 19.3 54.3 19.3 54.45 19.35 54.55 19.35 54.7 19.3 54.8 19.25 54.95 19.15 54.95 19.0 54.95 18.9 M54.25 17.75 L54.35 17.75 54.45 17.8 54.5 17.8 54.65 17.8 54.75 17.75 54.85 17.65 54.9 17.5 54.85 17.35 54.75 17.3 54.65 17.25 54.6 17.25 54.45 17.25 54.35 17.2 54.15 17.3 54.05 17.5 54.1 17.65 54.25 17.75 M56.05 16.9 L56.1 16.95 56.1 17.05 56.15 17.25 56.15 17.35 56.15 17.5 56.1 17.6 56.0 17.8 55.85 17.95 55.85 18.0 55.8 18.0 55.75 18.05 55.75 18.15 55.85 18.2 55.95 18.25 56.0 18.25 56.05 18.35 56.15 18.45 56.2 18.45 56.2 18.5 56.3 18.65 56.35 18.8 56.4 18.85 56.4 18.95 56.4 19.05 56.4 19.15 56.4 19.2 56.4 19.35 56.35 19.4 56.35 19.55 56.25 19.75 56.2 19.85 56.15 19.9 56.05 20.05 55.95 20.1 55.9 20.15 55.85 20.2 55.75 20.25 55.7 20.3 55.6 20.35 55.55 20.4 55.45 20.4 55.35 20.45 55.25 20.5 55.15 20.55 55.05 20.55 54.9 20.55 54.7 20.6 54.6 20.6 54.5 20.6 54.4 20.55 54.3 20.55 54.2 20.55 53.95 20.55 53.75 20.5 53.6 20.45 53.4 20.35 53.3 20.3 53.2 20.25 53.05 20.1 53.0 20.05 52.9 20.0 52.75 19.8 52.65 19.6 52.65 19.55 52.6 19.45 52.6 19.3 52.55 19.2 52.55 19.15 52.55 19.05 52.6 19.0 52.6 18.9 52.65 18.7 52.7 18.6 52.85 18.4 Q52.95 18.3 53.0 18.3 L53.1 18.25 53.2 18.2 53.25 18.15 53.25 18.1 53.15 18.0 53.1 18.0 53.05 17.9 52.95 17.75 52.9 17.7 52.9 17.65 52.85 17.5 52.85 17.45 52.8 17.35 52.85 17.15 52.85 17.05 52.9 16.9 52.95 16.85 53.05 16.75 53.1 16.65 53.1 16.6 53.15 16.6 53.2 16.55 53.25 16.45 53.3 16.4 53.4 16.35 53.45 16.3 53.65 16.25 53.95 16.2 54.2 16.15 54.4 16.15 54.6 16.15 54.7 16.15 54.75 16.2 54.8 16.2 54.9 16.2 55.05 16.2 55.15 16.2 55.25 16.25 55.35 16.3 55.5 16.35 55.6 16.4 55.75 16.5 55.85 16.6 55.9 16.7 55.95 16.75 56.05 16.9 M46.75 23.8 L46.8 23.75 46.95 23.6 47.05 23.55 47.15 23.5 47.25 23.5 47.45 23.5 47.5 23.5 47.65 23.5 47.75 23.5 47.8 23.5 47.9 23.5 48.1 23.5 48.2 23.5 48.25 23.5 48.35 23.5 48.45 23.5 48.6 23.55 48.7 23.6 48.8 23.8 48.8 24.0 48.8 24.05 48.8 24.15 48.8 24.2 48.8 24.35 48.85 24.5 48.85 24.65 48.85 24.7 48.85 24.8 48.85 24.85 48.85 24.95 48.85 25.05 48.85 25.15 48.85 25.25 48.85 25.35 48.85 25.4 48.8 25.5 48.8 25.55 48.85 25.85 48.95 25.9 49.05 25.9 49.15 25.95 49.15 26.1 49.15 26.2 49.15 26.3 49.15 26.45 49.15 26.65 49.2 26.8 49.1 27.0 48.9 27.05 48.85 27.05 48.85 27.2 48.85 27.3 48.85 27.35 48.85 27.45 48.85 27.5 48.85 27.6 48.75 27.65 48.7 27.75 48.6 27.75 48.4 27.75 48.25 27.75 48.15 27.75 48.05 27.75 47.75 27.75 47.65 27.75 47.55 27.75 47.35 27.7 47.3 27.6 47.3 27.55 47.3 27.45 47.25 27.4 47.3 27.3 47.3 27.2 47.25 27.05 47.2 27.0 47.15 27.0 47.0 27.0 46.85 27.0 46.75 27.0 46.7 27.0 46.6 27.0 46.55 27.0 46.45 27.0 46.35 27.0 46.15 27.0 46.0 27.0 45.9 27.0 45.8 27.0 45.75 27.0 45.65 27.0 45.5 26.95 45.4 26.85 45.4 26.8 45.4 26.7 45.4 26.5 45.4 26.35 45.35 26.25 45.35 26.1 45.35 25.95 45.35 25.85 45.4 25.8 45.4 25.75 45.45 25.7 45.55 25.6 45.6 25.5 45.7 25.4 45.75 25.35 45.8 25.3 45.9 25.15 46.0 25.0 46.0 24.95 46.05 24.9 46.05 24.85 46.1 24.8 46.1 24.75 46.2 24.7 46.2 24.65 46.25 24.6 46.25 24.55 46.3 24.55 46.35 24.45 46.4 24.35 46.5 24.25 46.6 24.1 46.65 24.0 46.7 23.85 46.75 23.8 M47.55 11.5 L47.5 11.45 47.4 11.45 47.35 11.4 47.3 11.4 47.2 11.45 47.1 11.45 47.0 11.45 46.9 11.6 46.85 11.75 46.85 11.8 46.9 11.9 47.05 11.95 47.2 12.0 47.3 12.05 47.4 12.0 47.55 11.95 47.7 11.9 47.75 11.75 47.7 11.55 47.55 11.5 M45.3 10.75 L45.35 10.65 45.35 10.55 45.35 10.5 45.4 10.35 45.45 10.25 45.55 10.1 45.6 9.9 45.7 9.8 45.75 9.7 45.9 9.55 46.0 9.45 46.05 9.4 46.1 9.4 46.2 9.3 46.3 9.25 46.35 9.2 46.4 9.15 46.45 9.15 46.45 9.1 46.7 9.05 46.95 8.95 47.2 8.95 47.35 8.95 47.6 8.9 47.65 8.95 47.8 8.95 47.85 8.95 47.95 8.95 48.05 8.95 48.15 9.0 48.2 9.0 48.3 9.05 48.4 9.05 48.65 9.15 48.7 9.2 48.75 9.3 48.75 9.45 48.75 9.55 48.75 9.65 48.75 9.75 48.75 9.85 48.75 9.9 48.75 10.0 48.65 10.15 48.55 10.2 48.45 10.2 48.35 10.2 48.3 10.15 48.2 10.1 48.1 10.1 47.95 10.05 47.8 10.05 47.7 10.05 47.6 10.05 47.55 10.05 47.25 10.05 47.1 10.15 Q47.0 10.15 46.95 10.25 L46.9 10.35 46.95 10.4 47.1 10.4 47.2 10.35 47.4 10.35 47.6 10.35 47.7 10.35 47.8 10.35 47.9 10.35 47.95 10.35 48.05 10.4 48.1 10.4 48.2 10.45 48.45 10.55 48.5 10.55 48.55 10.6 48.6 10.65 48.7 10.7 48.75 10.75 48.8 10.8 48.8 10.85 48.9 10.95 48.95 11.1 49.05 11.25 49.1 11.5 49.15 11.65 49.15 11.75 49.1 11.9 49.1 12.0 49.1 12.15 49.05 12.35 48.95 12.5 48.85 12.6 48.8 12.65 48.65 12.85 48.5 13.0 48.45 13.0 48.4 13.05 48.35 13.1 48.3 13.1 48.25 13.15 48.15 13.2 48.0 13.2 47.85 13.25 47.75 13.25 47.7 13.25 47.6 13.3 47.5 13.3 47.35 13.35 47.1 13.35 46.85 13.3 46.7 13.25 46.55 13.2 46.45 13.15 46.3 13.1 46.2 13.05 46.15 13.0 46.05 12.95 45.95 12.9 45.85 12.85 45.8 12.75 45.75 12.7 45.75 12.65 45.6 12.5 45.55 12.35 45.5 12.25 45.45 12.15 45.45 12.05 45.4 12.0 45.4 11.9 45.3 11.7 45.3 11.3 45.3 11.2 45.3 11.1 45.3 10.85 45.3 10.75 M40.55 3.05 L40.5 3.0 40.45 3.0 40.35 2.95 40.25 2.95 40.15 2.95 40.05 3.0 40.0 3.0 39.9 3.1 39.85 3.25 39.85 3.35 39.95 3.5 40.1 3.55 40.25 3.55 40.4 3.55 40.5 3.5 40.65 3.4 40.7 3.25 40.7 3.2 40.65 3.1 40.55 3.05 M41.2 1.85 L41.3 1.95 41.45 2.0 41.5 2.05 41.55 2.1 41.6 2.15 41.65 2.15 41.8 2.35 41.85 2.45 41.95 2.6 41.95 2.7 42.0 2.75 42.05 2.9 42.1 3.05 42.15 3.15 42.15 3.25 42.2 3.4 42.25 3.5 42.25 3.65 42.25 3.75 42.2 3.85 42.25 3.95 42.25 4.05 42.25 4.15 42.2 4.35 42.2 4.45 42.15 4.6 42.1 4.7 42.1 4.75 42.05 4.8 42.0 4.9 42.0 4.95 41.95 5.05 41.9 5.1 41.85 5.2 41.8 5.3 41.75 5.35 41.7 5.4 41.7 5.45 41.65 5.45 41.65 5.5 41.6 5.55 41.55 5.6 41.45 5.6 41.4 5.65 41.35 5.7 41.2 5.8 41.1 5.85 41.05 5.9 40.9 5.95 40.8 6.0 40.7 6.0 40.65 6.05 40.4 6.05 40.1 6.05 39.8 6.05 39.65 6.05 39.55 6.05 39.35 6.0 39.3 6.0 39.2 5.95 38.95 5.9 38.85 5.75 38.85 5.65 38.85 5.55 38.85 5.45 38.85 5.35 38.85 5.3 38.85 5.2 38.85 5.1 38.9 4.9 Q38.95 4.8 39.1 4.8 L39.15 4.8 39.25 4.85 39.4 4.9 39.5 4.95 39.6 4.95 39.8 4.95 39.9 4.95 40.0 4.95 40.05 4.95 40.15 4.95 40.25 4.95 40.35 4.9 40.45 4.9 40.6 4.8 40.65 4.65 40.6 4.55 40.5 4.55 40.35 4.6 40.3 4.65 40.0 4.65 39.9 4.65 39.65 4.65 39.35 4.55 39.1 4.45 39.05 4.45 39.0 4.4 38.95 4.35 38.9 4.35 38.9 4.3 38.85 4.3 38.85 4.25 38.8 4.2 38.7 4.1 38.65 4.05 38.6 3.95 38.55 3.85 38.5 3.75 38.45 3.7 38.4 3.45 38.4 3.3 38.4 3.2 38.45 3.0 38.45 2.9 38.45 2.8 38.5 2.65 38.55 2.6 38.6 2.55 38.65 2.45 38.7 2.35 38.8 2.2 38.9 2.15 39.0 2.1 39.05 2.05 39.2 1.95 39.35 1.85 39.45 1.85 39.6 1.8 39.65 1.8 39.7 1.75 39.8 1.75 39.95 1.7 40.1 1.7 40.15 1.7 40.25 1.7 40.35 1.7 40.45 1.7 40.55 1.7 40.7 1.7 40.85 1.75 40.95 1.75 41.05 1.8 41.2 1.85 M54.5 10.75 L54.5 10.6 54.4 10.6 54.35 10.7 54.3 10.8 54.25 10.85 54.2 10.95 54.15 11.05 54.1 11.1 54.05 11.2 53.95 11.3 53.9 11.45 54.0 11.6 54.2 11.6 54.3 11.6 54.45 11.6 54.5 11.5 54.5 11.45 54.5 11.3 54.5 11.2 54.5 11.15 54.5 11.05 54.5 10.95 54.5 10.85 54.5 10.75 M54.3 9.25 L54.4 9.25 54.6 9.25 54.65 9.25 54.8 9.25 54.9 9.25 54.95 9.25 55.05 9.25 55.25 9.25 55.35 9.25 55.4 9.25 55.5 9.25 55.6 9.25 55.75 9.3 55.85 9.35 55.95 9.55 55.95 9.75 55.95 9.8 55.95 9.9 55.95 9.95 55.95 10.1 56.0 10.25 56.0 10.4 56.0 10.45 56.0 10.55 56.0 10.6 56.0 10.7 56.0 10.8 56.0 10.9 56.0 11.0 56.0 11.1 56.0 11.15 55.95 11.25 55.95 11.3 56.0 11.6 56.1 11.65 56.2 11.65 56.3 11.7 56.3 11.85 56.3 11.95 56.3 12.05 56.3 12.2 56.3 12.4 56.35 12.55 56.25 12.75 56.05 12.8 56.0 12.8 56.0 12.95 56.0 13.05 56.0 13.1 56.0 13.2 56.0 13.25 56.0 13.35 55.9 13.4 55.85 13.5 55.75 13.5 55.55 13.5 55.4 13.5 55.3 13.5 55.2 13.5 54.9 13.5 54.8 13.5 54.7 13.5 54.5 13.45 54.45 13.35 54.45 13.3 54.45 13.2 54.4 13.15 54.45 13.05 54.45 12.95 54.4 12.8 54.35 12.75 54.3 12.75 54.15 12.75 54.0 12.75 53.9 12.75 53.85 12.75 53.75 12.75 53.7 12.75 53.6 12.75 53.5 12.75 53.3 12.75 53.15 12.75 53.05 12.75 52.95 12.75 52.9 12.75 52.8 12.75 52.65 12.7 52.55 12.6 52.55 12.55 52.55 12.45 52.55 12.25 52.55 12.1 52.5 12.0 52.5 11.85 52.5 11.7 52.5 11.6 52.55 11.55 52.55 11.5 52.6 11.45 52.7 11.35 52.75 11.25 52.85 11.15 52.9 11.1 52.95 11.05 53.05 10.9 53.15 10.75 53.15 10.7 53.2 10.65 53.2 10.6 53.25 10.55 53.25 10.5 53.35 10.45 53.35 10.4 53.4 10.35 53.4 10.3 53.45 10.3 53.5 10.2 53.55 10.1 53.65 10.0 53.75 9.85 53.8 9.75 53.85 9.6 53.9 9.55 53.95 9.5 54.1 9.35 54.2 9.3 54.3 9.25 M56.15 2.8 L56.2 3.05 56.2 3.35 56.2 3.45 56.15 3.5 56.15 3.65 56.1 3.8 56.05 3.9 56.0 3.95 55.9 4.05 55.85 4.1 55.85 4.15 55.8 4.2 55.75 4.25 55.65 4.3 55.55 4.4 55.5 4.45 55.4 4.5 55.35 4.55 55.3 4.6 55.25 4.65 55.3 4.7 55.45 4.7 55.55 4.7 55.65 4.7 55.75 4.7 55.85 4.7 55.9 4.7 56.0 4.65 56.25 4.7 56.35 4.85 56.35 4.95 56.35 5.05 56.35 5.15 56.35 5.35 56.35 5.45 56.35 5.55 56.35 5.65 56.35 5.75 56.3 5.95 56.2 6.0 56.15 6.0 56.0 6.0 55.85 6.0 55.6 6.0 55.4 6.0 55.35 6.0 55.25 6.0 55.15 6.0 55.0 6.0 54.9 6.0 54.85 6.0 54.75 6.0 54.55 6.0 54.45 6.0 54.4 6.0 54.2 6.0 54.0 6.0 53.85 6.0 53.8 6.0 53.65 6.0 53.55 6.0 53.4 6.0 53.2 6.0 53.05 6.0 52.95 6.0 52.85 5.95 52.75 5.8 52.8 5.75 52.8 5.65 52.8 5.55 52.8 5.45 52.8 5.4 52.75 5.3 52.75 5.2 52.75 5.15 52.8 5.1 52.9 5.0 53.05 4.9 53.1 4.9 53.2 4.85 53.3 4.8 53.35 4.8 53.4 4.75 53.5 4.65 53.55 4.65 53.6 4.6 53.7 4.55 53.75 4.5 53.85 4.4 53.9 4.35 53.95 4.3 54.05 4.25 54.15 4.15 54.25 4.1 54.45 3.85 54.55 3.6 54.6 3.5 54.55 3.4 54.55 3.3 54.4 3.15 54.2 3.1 54.15 3.1 54.05 3.15 53.95 3.2 53.85 3.3 53.8 3.35 53.8 3.4 53.75 3.5 53.75 3.55 53.7 3.65 53.6 3.7 53.5 3.7 53.4 3.65 53.3 3.65 53.1 3.65 53.0 3.65 52.9 3.7 52.75 3.65 52.65 3.55 52.55 3.35 52.6 3.25 52.6 3.1 52.6 2.95 52.6 2.9 52.65 2.75 52.7 2.6 52.75 2.55 52.8 2.45 52.85 2.45 52.85 2.4 52.9 2.35 52.95 2.25 53.0 2.2 53.1 2.15 53.15 2.05 53.3 1.95 53.4 1.9 53.5 1.85 53.6 1.8 53.75 1.75 53.9 1.75 54.0 1.7 54.1 1.7 54.25 1.7 54.35 1.7 54.5 1.7 54.65 1.7 54.75 1.7 55.0 1.75 55.1 1.8 55.2 1.85 55.25 1.9 55.35 1.9 55.4 1.95 55.5 2.0 55.6 2.05 55.65 2.15 55.75 2.25 55.85 2.35 55.9 2.4 55.95 2.45 55.95 2.5 56.0 2.5 56.15 2.8 M61.45 23.45 L61.55 23.45 61.7 23.45 61.85 23.45 61.95 23.45 62.2 23.5 62.3 23.55 62.4 23.6 62.45 23.65 62.55 23.65 62.6 23.7 62.7 23.75 62.8 23.8 62.85 23.9 62.95 24.0 63.05 24.1 63.1 24.15 63.15 24.2 63.15 24.25 63.2 24.25 63.35 24.55 63.4 24.8 63.4 25.1 63.4 25.2 63.35 25.25 63.35 25.4 63.3 25.55 63.25 25.65 63.2 25.7 63.1 25.8 63.05 25.85 63.05 25.9 63.0 25.95 62.95 26.0 62.85 26.05 62.75 26.15 62.7 26.2 62.6 26.25 62.55 26.3 62.5 26.35 62.45 26.4 62.5 26.45 62.65 26.45 62.75 26.45 62.85 26.45 62.95 26.45 63.05 26.45 63.1 26.45 63.2 26.4 63.45 26.45 63.55 26.6 63.55 26.7 63.55 26.8 63.55 26.9 63.55 27.1 63.55 27.2 63.55 27.3 63.55 27.4 63.55 27.5 63.5 27.7 63.4 27.75 63.35 27.75 63.2 27.75 63.05 27.75 62.8 27.75 62.6 27.75 62.55 27.75 62.45 27.75 62.35 27.75 62.2 27.75 62.1 27.75 62.05 27.75 61.95 27.75 61.75 27.75 61.65 27.75 61.6 27.75 61.4 27.75 61.2 27.75 61.05 27.75 61.0 27.75 60.85 27.75 60.75 27.75 60.6 27.75 60.4 27.75 60.25 27.75 60.15 27.75 60.05 27.7 59.95 27.55 60.0 27.5 60.0 27.4 60.0 27.3 60.0 27.2 60.0 27.15 59.95 27.05 59.95 26.95 59.95 26.9 60.0 26.85 60.1 26.75 60.25 26.65 60.3 26.65 60.4 26.6 60.5 26.55 60.55 26.55 60.6 26.5 60.7 26.4 60.75 26.4 60.8 26.35 60.9 26.3 60.95 26.25 61.05 26.15 61.1 26.1 61.15 26.05 61.25 26.0 61.35 25.9 61.45 25.85 61.65 25.6 61.75 25.35 61.8 25.25 61.75 25.15 61.75 25.05 61.6 24.9 61.4 24.85 61.35 24.85 61.25 24.9 61.15 24.95 61.05 25.05 61.0 25.1 61.0 25.15 60.95 25.25 60.95 25.3 60.9 25.4 60.8 25.45 60.7 25.45 60.6 25.4 60.5 25.4 60.3 25.4 60.2 25.4 60.1 25.45 59.95 25.4 59.85 25.3 59.75 25.1 59.8 25.0 59.8 24.85 59.8 24.7 59.8 24.65 59.85 24.5 59.9 24.35 59.95 24.3 60.0 24.2 60.05 24.2 60.05 24.15 60.1 24.1 60.15 24.0 60.2 23.95 60.3 23.9 60.35 23.8 60.5 23.7 60.6 23.65 60.7 23.6 60.8 23.55 60.95 23.5 61.1 23.5 61.2 23.45 61.3 23.45 61.45 23.45" fill="#000000" fill-rule="evenodd" stroke="none"/>
  </g>
</svg>
