<?xml version="1.0" encoding="UTF-8" standalone="no"?>
<svg xmlns:ffdec="https://www.free-decompiler.com/flash" xmlns:xlink="http://www.w3.org/1999/xlink" ffdec:objectType="shape" height="61.35px" width="60.55px" xmlns="http://www.w3.org/2000/svg">
  <g transform="matrix(1.0, 0.0, 0.0, 1.0, -2.05, -1.4)">
    <path d="M35.05 16.05 Q41.55 16.65 45.95 21.5 50.4 26.4 50.4 33.0 50.4 36.8 48.8 40.25 47.25 43.55 44.45 45.95 42.15 47.9 39.4 48.95 36.5 50.05 33.35 50.05 26.25 50.05 21.3 45.05 16.3 40.05 16.3 33.0 16.3 25.95 21.3 20.95 26.25 15.95 33.35 15.95 L35.05 16.05" fill="#59aeeb" fill-rule="evenodd" stroke="none"/>
    <path d="M33.35 15.95 L35.05 16.05 Q30.25 17.6 27.25 21.65 24.2 25.8 24.2 30.9 24.2 37.45 28.8 42.05 33.4 46.6 39.9 46.6 L44.45 45.95 Q42.15 47.9 39.4 48.95 36.5 50.05 33.35 50.05 26.25 50.05 21.3 45.05 16.3 40.05 16.3 33.0 16.3 25.95 21.3 20.95 26.25 15.95 33.35 15.95" fill="#409cde" fill-rule="evenodd" stroke="none"/>
    <path d="M50.75 33.0 L50.7 34.3 49.1 34.3 44.4 35.55 41.2 36.6 Q40.0 36.95 37.05 35.8 L32.9 34.4 27.55 35.0 20.6 36.2 16.95 35.95 Q16.65 34.45 16.65 33.0 L16.8 30.8 Q18.8 29.85 19.6 30.5 21.65 32.15 26.25 32.4 L32.15 31.95 Q36.95 30.7 39.05 30.9 40.05 31.0 42.8 32.25 L50.75 31.9 50.75 33.0 M50.45 36.4 L49.75 38.85 Q48.8 38.75 48.2 39.4 44.05 43.5 37.2 41.15 34.7 40.3 32.3 40.1 28.8 39.75 26.4 40.9 23.1 42.35 19.25 42.05 18.25 40.45 17.65 38.7 L22.2 39.0 Q24.75 38.8 26.95 37.8 29.05 36.85 32.55 37.25 35.6 37.65 38.0 38.75 40.25 39.8 42.3 39.5 44.55 39.1 47.0 37.1 48.4 35.95 50.45 36.4 M49.75 27.15 L50.55 30.15 Q45.7 30.95 41.85 29.15 39.4 28.0 35.95 28.35 33.5 28.6 31.0 29.45 24.1 31.75 20.05 27.65 19.15 26.75 17.65 27.25 L18.9 24.55 Q20.25 24.55 21.2 25.35 23.7 27.35 25.9 27.75 27.95 28.1 30.2 27.05 32.6 25.9 35.65 25.55 39.15 25.1 41.25 26.05 45.2 27.9 49.75 27.15" fill="#ffffff" fill-opacity="0.2" fill-rule="evenodd" stroke="none"/>
    <path d="M35.05 16.05 L33.35 15.95 Q26.25 15.95 21.3 20.95 16.3 25.95 16.3 33.0 16.3 40.05 21.3 45.05 26.25 50.05 33.35 50.05 36.5 50.05 39.4 48.95 42.15 47.9 44.45 45.95 47.25 43.55 48.8 40.25 50.4 36.8 50.4 33.0 50.4 26.4 45.95 21.5 41.55 16.65 35.05 16.05 Z" fill="none" stroke="#85ccff" stroke-linecap="butt" stroke-linejoin="miter-clip" stroke-miterlimit="4.0" stroke-width="2.0"/>
    <path d="M13.75 1.4 L16.65 6.75 22.6 7.8 18.4 12.15 19.25 18.15 13.75 15.55 8.35 18.15 9.15 12.15 4.95 7.8 10.9 6.75 13.75 1.4 M19.6 8.8 L15.65 8.1 13.75 4.6 11.95 8.1 8.0 8.8 10.75 11.65 10.2 15.6 Q12.0 14.7 13.75 13.85 L17.35 15.6 16.8 11.65 19.6 8.8" fill="#fdd124" fill-rule="evenodd" stroke="none"/>
    <path d="M15.9 7.8 L20.35 8.6 17.2 11.8 17.85 16.25 13.75 14.3 9.75 16.25 10.35 11.8 7.25 8.6 11.7 7.8 13.75 3.85 15.9 7.8" fill="url(#gradient0)" fill-rule="evenodd" stroke="none"/>
    <path d="M60.3 17.25 L57.35 16.7 55.95 14.1 54.6 16.7 51.65 17.25 53.7 19.4 53.3 22.35 55.95 21.05 58.65 22.35 58.25 19.4 60.3 17.25 M55.95 11.7 L58.15 15.7 62.6 16.5 59.45 19.75 60.05 24.25 55.95 22.3 51.9 24.25 52.5 19.75 49.35 16.5 53.8 15.7 55.95 11.7" fill="#fdd124" fill-rule="evenodd" stroke="none"/>
    <path d="M57.55 16.5 L60.9 17.1 58.55 19.55 59.0 22.85 55.95 21.4 52.95 22.85 53.45 19.55 51.05 17.1 54.4 16.5 55.95 13.55 57.55 16.5" fill="url(#gradient1)" fill-rule="evenodd" stroke="none"/>
    <path d="M18.95 50.2 L21.15 54.2 25.6 55.0 22.45 58.25 23.05 62.75 18.95 60.8 14.9 62.75 15.5 58.25 12.35 55.0 16.8 54.2 18.95 50.2 M23.3 55.75 L20.35 55.2 18.95 52.6 17.6 55.2 14.65 55.75 16.7 57.9 16.3 60.85 18.95 59.55 21.65 60.85 21.25 57.9 23.3 55.75" fill="#fdd124" fill-rule="evenodd" stroke="none"/>
    <path d="M20.55 55.0 L23.9 55.6 21.55 58.05 22.0 61.35 18.95 59.9 15.95 61.35 16.45 58.05 14.05 55.6 17.4 55.0 18.95 52.05 20.55 55.0" fill="url(#gradient2)" fill-rule="evenodd" stroke="none"/>
    <path d="M57.25 51.0 L55.25 50.65 54.3 48.9 53.35 50.65 51.35 51.0 52.75 52.45 52.5 54.5 54.3 53.6 56.15 54.5 55.85 52.45 57.25 51.0 M54.3 47.25 L55.75 49.95 58.8 50.5 56.65 52.75 57.1 55.8 54.3 54.45 51.5 55.8 51.95 52.75 49.8 50.5 52.85 49.95 54.3 47.25" fill="#fdd124" fill-rule="evenodd" stroke="none"/>
    <path d="M55.35 50.5 L57.65 50.9 56.05 52.55 56.35 54.8 54.3 53.85 52.25 54.8 52.55 52.55 50.95 50.9 53.2 50.5 54.3 48.5 55.35 50.5" fill="url(#gradient3)" fill-rule="evenodd" stroke="none"/>
    <path d="M6.55 25.75 L8.0 28.45 11.05 29.0 8.9 31.25 9.35 34.3 6.55 32.95 3.75 34.3 4.2 31.25 2.05 29.0 5.1 28.45 6.55 25.75 M9.5 29.5 L7.5 29.15 6.55 27.4 5.6 29.15 3.6 29.5 5.0 30.95 4.75 33.0 6.55 32.1 8.4 33.0 8.1 30.95 9.5 29.5" fill="#fdd124" fill-rule="evenodd" stroke="none"/>
    <path d="M7.6 29.0 L9.9 29.4 8.3 31.05 8.6 33.3 6.55 32.35 4.5 33.3 4.8 31.05 3.2 29.4 5.45 29.0 6.55 27.0 7.6 29.0" fill="url(#gradient4)" fill-rule="evenodd" stroke="none"/>
  </g>
  <defs>
    <linearGradient gradientTransform="matrix(0.008, 0.0, 0.0, 0.0076, 13.75, 10.05)" gradientUnits="userSpaceOnUse" id="gradient0" spreadMethod="pad" x1="-819.2" x2="819.2">
      <stop offset="0.0" stop-color="#edbd0c"/>
      <stop offset="1.0" stop-color="#e4a510"/>
    </linearGradient>
    <linearGradient gradientTransform="matrix(0.006, 0.0, 0.0, 0.0057, 55.95, 18.2)" gradientUnits="userSpaceOnUse" id="gradient1" spreadMethod="pad" x1="-819.2" x2="819.2">
      <stop offset="0.0" stop-color="#edbd0c"/>
      <stop offset="1.0" stop-color="#e4a510"/>
    </linearGradient>
    <linearGradient gradientTransform="matrix(0.006, 0.0, 0.0, 0.0057, 18.95, 56.7)" gradientUnits="userSpaceOnUse" id="gradient2" spreadMethod="pad" x1="-819.2" x2="819.2">
      <stop offset="0.0" stop-color="#edbd0c"/>
      <stop offset="1.0" stop-color="#e4a510"/>
    </linearGradient>
    <linearGradient gradientTransform="matrix(0.0041, 0.0, 0.0, 0.0039, 54.3, 51.65)" gradientUnits="userSpaceOnUse" id="gradient3" spreadMethod="pad" x1="-819.2" x2="819.2">
      <stop offset="0.0" stop-color="#edbd0c"/>
      <stop offset="1.0" stop-color="#e4a510"/>
    </linearGradient>
    <linearGradient gradientTransform="matrix(0.0041, 0.0, 0.0, 0.0039, 6.55, 30.15)" gradientUnits="userSpaceOnUse" id="gradient4" spreadMethod="pad" x1="-819.2" x2="819.2">
      <stop offset="0.0" stop-color="#edbd0c"/>
      <stop offset="1.0" stop-color="#e4a510"/>
    </linearGradient>
  </defs>
</svg>
