<?xml version="1.0" encoding="UTF-8" standalone="no"?>
<svg xmlns:ffdec="https://www.free-decompiler.com/flash" xmlns:xlink="http://www.w3.org/1999/xlink" ffdec:objectType="shape" height="64.1px" width="65.0px" xmlns="http://www.w3.org/2000/svg">
  <g transform="matrix(1.0, 0.0, 0.0, 1.0, 0.0, 0.0)">
    <path d="M4.3 22.5 Q4.4 21.95 5.45 21.7 L9.25 21.9 13.05 22.9 17.05 23.55 21.35 24.05 25.45 24.35 29.6 24.55 Q31.75 24.6 33.45 25.45 35.15 26.25 35.3 27.2 35.35 28.15 33.75 28.55 L30.2 28.65 26.25 27.75 22.25 26.55 18.25 25.7 14.15 25.05 10.15 24.85 6.1 24.2 Q4.15 23.45 4.3 22.5" fill="#ff6600" fill-rule="evenodd" stroke="none"/>
    <path d="M29.35 8.8 Q30.3 8.65 31.1 9.2 32.3 10.15 32.1 11.75 L31.9 14.4 32.2 17.2 32.95 20.05 33.95 22.75 35.15 25.45 Q35.75 26.85 35.05 28.2 34.35 29.55 32.9 29.95 31.4 30.35 30.2 29.5 29.0 28.65 28.75 27.25 28.55 25.85 28.9 24.5 L29.3 21.55 29.3 18.75 28.8 15.9 Q28.45 14.55 27.75 13.35 27.05 11.95 27.45 10.5 27.8 9.0 29.35 8.8" fill="#ff6600" fill-rule="evenodd" stroke="none"/>
    <path d="M52.05 11.1 Q52.5 11.65 52.15 12.65 51.45 14.25 49.7 15.2 48.1 16.05 46.6 17.05 L43.65 19.3 Q42.1 20.5 40.75 21.85 L38.05 24.55 35.45 27.35 Q34.1 28.85 32.35 29.3 30.65 29.8 29.75 29.05 28.85 28.2 29.45 26.7 29.95 25.3 31.45 24.05 32.95 22.85 34.55 22.1 L37.9 20.3 41.1 18.25 44.0 15.85 46.55 13.2 Q47.8 11.7 49.5 10.9 51.3 10.15 52.05 11.1" fill="#ff6600" fill-rule="evenodd" stroke="none"/>
    <path d="M60.5 41.1 Q60.25 41.6 59.1 41.45 57.15 41.15 55.15 39.85 L51.4 37.6 47.35 35.5 43.0 33.55 38.8 31.8 34.45 30.15 Q32.2 29.3 30.6 27.95 28.95 26.55 29.15 25.6 29.35 24.75 31.15 24.9 32.85 25.1 34.9 26.1 L38.85 28.35 42.7 30.9 46.7 33.1 50.85 35.15 54.95 36.8 Q57.2 37.6 59.05 38.85 60.95 40.25 60.5 41.1" fill="#ff6600" fill-rule="evenodd" stroke="none"/>
    <path d="M37.55 47.6 Q36.8 47.8 36.1 47.15 34.95 46.1 34.85 44.4 L34.5 41.3 33.8 38.2 32.7 35.0 31.4 32.0 30.05 29.0 Q29.3 27.5 29.55 25.9 29.9 24.35 31.0 23.8 32.1 23.4 33.25 24.35 34.35 25.15 34.8 26.75 35.2 28.3 35.2 29.95 L35.35 33.2 35.8 36.4 36.7 39.55 38.0 42.45 Q38.8 43.95 38.75 45.6 38.75 47.25 37.55 47.6" fill="#ff6600" fill-rule="evenodd" stroke="none"/>
    <path d="M19.0 39.5 Q18.4 38.8 18.35 37.8 18.4 36.25 19.8 35.6 21.05 35.0 22.1 34.2 L24.2 32.35 26.1 30.1 27.7 27.7 29.2 25.25 Q30.0 23.9 31.5 23.7 33.0 23.45 34.2 24.45 35.35 25.4 35.35 26.95 35.35 28.3 34.35 29.3 L32.05 30.9 Q30.65 31.45 29.4 32.2 28.15 32.95 27.1 33.85 L25.1 35.8 Q24.2 36.95 23.6 38.15 22.95 39.55 21.5 40.05 20.1 40.6 19.0 39.5" fill="#ff6600" fill-rule="evenodd" stroke="none"/>
    <path d="M25.7 21.8 Q27.3 20.2 29.5 20.2 31.75 20.2 33.3 21.8 34.9 23.35 34.9 25.6 34.9 27.8 33.3 29.4 31.75 30.95 29.5 30.95 27.3 30.95 25.7 29.4 24.15 27.8 24.15 25.6 24.15 23.35 25.7 21.8" fill="#ff6600" fill-rule="evenodd" stroke="none"/>
    <path d="M17.1 13.15 Q17.85 12.4 19.0 12.4 20.1 12.4 20.9 13.15 21.65 13.95 21.65 15.05 21.65 16.2 20.9 16.95 20.1 17.75 19.0 17.75 17.85 17.75 17.1 16.95 16.3 16.2 16.3 15.05 16.3 13.95 17.1 13.15" fill="#ff6600" fill-rule="evenodd" stroke="none"/>
    <path d="M37.05 24.5 Q37.8 23.75 38.95 23.75 40.05 23.75 40.85 24.5 41.6 25.3 41.6 26.4 41.6 27.55 40.85 28.3 40.05 29.1 38.95 29.1 37.8 29.1 37.05 28.3 36.25 27.55 36.25 26.4 36.25 25.3 37.05 24.5" fill="#ff6600" fill-rule="evenodd" stroke="none"/>
    <path d="M33.6 19.35 Q34.35 18.6 35.5 18.6 36.6 18.6 37.4 19.35 38.15 20.15 38.15 21.25 38.15 22.4 37.4 23.15 36.6 23.95 35.5 23.95 34.35 23.95 33.6 23.15 32.8 22.4 32.8 21.25 32.8 20.15 33.6 19.35" fill="#ff6600" fill-rule="evenodd" stroke="none"/>
    <path d="M38.35 5.85 Q38.95 5.3 39.8 5.3 40.65 5.3 41.2 5.85 41.8 6.45 41.8 7.3 41.8 8.15 41.2 8.7 40.65 9.3 39.8 9.3 38.95 9.3 38.35 8.7 37.8 8.15 37.8 7.3 37.8 6.45 38.35 5.85" fill="#ff6600" fill-rule="evenodd" stroke="none"/>
    <path d="M28.7 30.95 Q29.45 30.2 30.6 30.2 31.7 30.2 32.5 30.95 33.25 31.75 33.25 32.85 33.25 34.0 32.5 34.75 31.7 35.55 30.6 35.55 29.45 35.55 28.7 34.75 27.9 34.0 27.9 32.85 27.9 31.75 28.7 30.95" fill="#ff6600" fill-rule="evenodd" stroke="none"/>
    <path d="M24.6 41.95 Q25.35 41.2 26.5 41.2 27.6 41.2 28.4 41.95 29.15 42.75 29.15 43.85 29.15 45.0 28.4 45.75 27.6 46.55 26.5 46.55 25.35 46.55 24.6 45.75 23.8 45.0 23.8 43.85 23.8 42.75 24.6 41.95" fill="#ff6600" fill-rule="evenodd" stroke="none"/>
    <path d="M9.25 32.0 Q9.55 31.7 9.95 31.7 10.3 31.7 10.6 32.0 L10.85 32.65 10.6 33.3 9.95 33.6 Q9.55 33.6 9.25 33.3 9.0 33.05 9.0 32.65 9.0 32.25 9.25 32.0" fill="#ff6600" fill-rule="evenodd" stroke="none"/>
    <path d="M9.15 12.55 Q9.75 12.0 10.6 12.0 11.45 12.0 12.0 12.55 12.6 13.15 12.6 14.0 12.6 14.85 12.0 15.4 11.45 16.0 10.6 16.0 9.75 16.0 9.15 15.4 8.6 14.85 8.6 14.0 8.6 13.15 9.15 12.55" fill="#ff6600" fill-rule="evenodd" stroke="none"/>
    <path d="M50.2 26.25 Q50.95 25.5 52.1 25.5 53.2 25.5 54.0 26.25 54.75 27.05 54.75 28.15 54.75 29.3 54.0 30.05 53.2 30.85 52.1 30.85 50.95 30.85 50.2 30.05 49.4 29.3 49.4 28.15 49.4 27.05 50.2 26.25" fill="#ff6600" fill-rule="evenodd" stroke="none"/>
    <path d="M47.35 46.7 Q47.95 46.15 48.8 46.15 49.65 46.15 50.2 46.7 50.8 47.3 50.8 48.15 50.8 49.0 50.2 49.55 49.65 50.15 48.8 50.15 47.95 50.15 47.35 49.55 46.8 49.0 46.8 48.15 46.8 47.3 47.35 46.7" fill="#ff6600" fill-rule="evenodd" stroke="none"/>
    <path d="M30.25 59.9 Q30.65 59.5 31.2 59.5 31.75 59.5 32.15 59.9 32.55 60.3 32.55 60.85 32.55 61.4 32.15 61.8 31.75 62.2 31.2 62.2 30.65 62.2 30.25 61.8 29.85 61.4 29.85 60.85 29.85 60.3 30.25 59.9" fill="#ff6600" fill-rule="evenodd" stroke="none"/>
    <path d="M22.3 44.65 Q22.7 44.25 23.25 44.25 23.8 44.25 24.2 44.65 24.6 45.05 24.6 45.6 24.6 46.15 24.2 46.55 23.8 46.95 23.25 46.95 22.7 46.95 22.3 46.55 21.9 46.15 21.9 45.6 21.9 45.05 22.3 44.65" fill="#ff6600" fill-rule="evenodd" stroke="none"/>
    <path d="M8.55 38.85 Q8.95 38.45 9.5 38.45 10.05 38.45 10.45 38.85 10.85 39.25 10.85 39.8 10.85 40.35 10.45 40.75 10.05 41.15 9.5 41.15 8.95 41.15 8.55 40.75 8.15 40.35 8.15 39.8 8.15 39.25 8.55 38.85" fill="#ff6600" fill-rule="evenodd" stroke="none"/>
    <path d="M5.75 15.65 Q6.15 15.25 6.7 15.25 7.25 15.25 7.65 15.65 8.05 16.05 8.05 16.6 8.05 17.15 7.65 17.55 7.25 17.95 6.7 17.95 6.15 17.95 5.75 17.55 5.35 17.15 5.35 16.6 5.35 16.05 5.75 15.65" fill="#ff6600" fill-rule="evenodd" stroke="none"/>
    <path d="M24.45 5.3 Q24.85 4.9 25.4 4.9 25.95 4.9 26.35 5.3 26.75 5.7 26.75 6.25 26.75 6.8 26.35 7.2 25.95 7.6 25.4 7.6 24.85 7.6 24.45 7.2 24.05 6.8 24.05 6.25 24.05 5.7 24.45 5.3" fill="#ff6600" fill-rule="evenodd" stroke="none"/>
    <path d="M34.3 13.25 Q34.7 12.85 35.25 12.85 35.8 12.85 36.2 13.25 36.6 13.65 36.6 14.2 36.6 14.75 36.2 15.15 35.8 15.55 35.25 15.55 34.7 15.55 34.3 15.15 33.9 14.75 33.9 14.2 33.9 13.65 34.3 13.25" fill="#ff6600" fill-rule="evenodd" stroke="none"/>
    <path d="M56.05 20.8 Q56.45 20.4 57.0 20.4 57.55 20.4 57.95 20.8 58.35 21.2 58.35 21.75 58.35 22.3 57.95 22.7 57.55 23.1 57.0 23.1 56.45 23.1 56.05 22.7 55.65 22.3 55.65 21.75 55.65 21.2 56.05 20.8" fill="#ff6600" fill-rule="evenodd" stroke="none"/>
    <path d="M57.95 48.1 Q58.35 47.7 58.9 47.7 59.45 47.7 59.85 48.1 60.25 48.5 60.25 49.05 60.25 49.6 59.85 50.0 59.45 50.4 58.9 50.4 58.35 50.4 57.95 50.0 57.55 49.6 57.55 49.05 57.55 48.5 57.95 48.1" fill="#ff6600" fill-rule="evenodd" stroke="none"/>
    <path d="M14.15 50.45 Q14.55 50.05 15.1 50.05 15.65 50.05 16.05 50.45 16.45 50.85 16.45 51.4 16.45 51.95 16.05 52.35 15.65 52.75 15.1 52.75 14.55 52.75 14.15 52.35 13.75 51.95 13.75 51.4 13.75 50.85 14.15 50.45" fill="#ff6600" fill-rule="evenodd" stroke="none"/>
    <path d="M5.35 44.9 L5.85 44.7 6.3 44.9 6.5 45.35 6.3 45.85 5.85 46.05 Q5.55 46.05 5.35 45.85 L5.15 45.35 5.35 44.9" fill="#ff6600" fill-rule="evenodd" stroke="none"/>
    <path d="M0.2 24.05 Q0.4 23.85 0.7 23.85 L1.15 24.05 1.35 24.5 1.15 25.0 Q0.95 25.2 0.7 25.2 0.4 25.2 0.2 25.0 L0.0 24.5 0.2 24.05" fill="#ff6600" fill-rule="evenodd" stroke="none"/>
    <path d="M6.25 3.85 L6.75 3.65 7.2 3.85 7.4 4.3 7.2 4.8 6.75 5.0 Q6.45 5.0 6.25 4.8 L6.05 4.3 6.25 3.85" fill="#ff6600" fill-rule="evenodd" stroke="none"/>
    <path d="M27.95 0.2 L28.45 0.0 28.9 0.2 29.1 0.65 28.9 1.15 28.45 1.35 Q28.15 1.35 27.95 1.15 L27.75 0.65 27.95 0.2" fill="#ff6600" fill-rule="evenodd" stroke="none"/>
    <path d="M61.05 16.1 L61.55 15.9 62.0 16.1 62.2 16.55 62.0 17.05 61.55 17.25 Q61.25 17.25 61.05 17.05 L60.85 16.55 61.05 16.1" fill="#ff6600" fill-rule="evenodd" stroke="none"/>
    <path d="M63.85 45.35 L64.35 45.15 64.8 45.35 65.0 45.8 64.8 46.3 64.35 46.5 Q64.05 46.5 63.85 46.3 L63.65 45.8 63.85 45.35" fill="#ff6600" fill-rule="evenodd" stroke="none"/>
    <path d="M20.4 62.95 L20.9 62.75 21.35 62.95 21.55 63.4 21.35 63.9 20.9 64.1 20.4 63.9 20.2 63.4 20.4 62.95" fill="#ff6600" fill-rule="evenodd" stroke="none"/>
    <path d="M24.3 50.5 L24.8 50.3 25.25 50.5 25.45 50.95 25.25 51.45 24.8 51.65 24.3 51.45 24.1 50.95 24.3 50.5" fill="#ff6600" fill-rule="evenodd" stroke="none"/>
    <path d="M15.9 3.85 L16.4 3.65 16.85 3.85 17.05 4.3 16.85 4.8 16.4 5.0 15.9 4.8 15.7 4.3 15.9 3.85" fill="#ff6600" fill-rule="evenodd" stroke="none"/>
    <path d="M33.0 27.2 Q34.6 25.6 36.8 25.6 39.05 25.6 40.6 27.2 42.2 28.75 42.2 31.0 42.2 33.2 40.6 34.8 39.05 36.35 36.8 36.35 34.6 36.35 33.0 34.8 31.45 33.2 31.45 31.0 31.45 28.75 33.0 27.2" fill="#ff6600" fill-rule="evenodd" stroke="none"/>
    <path d="M14.85 31.8 Q14.7 31.45 15.25 31.0 16.1 30.3 17.4 30.05 L19.8 29.5 22.2 28.75 24.7 27.85 27.05 26.85 29.45 25.75 Q30.65 25.2 31.9 25.15 33.05 25.15 33.35 25.65 33.65 26.15 32.85 26.8 32.2 27.5 30.95 27.9 L28.5 28.45 25.95 29.0 23.5 29.65 21.05 30.45 18.75 31.4 Q17.55 32.05 16.3 32.2 15.0 32.35 14.85 31.8" fill="#ff6600" fill-rule="evenodd" stroke="none"/>
    <path d="M22.0 7.15 Q22.35 7.0 22.85 7.55 23.8 8.6 24.3 10.2 L25.3 13.0 26.55 15.95 28.0 18.95 29.5 21.7 31.05 24.55 Q31.85 26.0 32.15 27.45 32.45 28.85 31.95 29.25 31.5 29.65 30.65 28.75 29.85 27.9 29.2 26.4 28.5 24.95 28.1 23.5 L27.1 20.45 25.95 17.5 24.65 14.55 23.15 11.85 Q22.35 10.4 21.9 8.9 21.45 7.35 22.0 7.15" fill="#ff6600" fill-rule="evenodd" stroke="none"/>
    <path d="M47.0 29.35 Q46.95 29.7 46.3 29.85 L43.9 29.7 41.55 29.1 39.05 28.65 36.4 28.3 33.85 28.15 31.25 28.0 Q29.9 27.95 28.85 27.4 27.75 26.95 27.75 26.3 27.65 25.75 28.7 25.5 L30.9 25.45 33.3 26.05 35.8 26.8 38.35 27.35 40.9 27.75 43.35 27.9 45.85 28.35 Q47.1 28.75 47.0 29.35" fill="#ff6600" fill-rule="evenodd" stroke="none"/>
    <path d="M20.35 16.25 Q20.75 15.85 21.3 15.85 21.85 15.85 22.25 16.25 22.65 16.65 22.65 17.2 22.65 17.75 22.25 18.15 21.85 18.55 21.3 18.55 20.75 18.55 20.35 18.15 19.95 17.75 19.95 17.2 19.95 16.65 20.35 16.25" fill="#ff6600" fill-rule="evenodd" stroke="none"/>
    <path d="M45.95 28.1 Q46.35 27.7 46.9 27.7 47.45 27.7 47.85 28.1 48.25 28.5 48.25 29.05 48.25 29.6 47.85 30.0 47.45 30.4 46.9 30.4 46.35 30.4 45.95 30.0 45.55 29.6 45.55 29.05 45.55 28.5 45.95 28.1" fill="#ff6600" fill-rule="evenodd" stroke="none"/>
    <path d="M24.0 20.55 Q24.4 20.15 24.95 20.15 25.5 20.15 25.9 20.55 26.3 20.95 26.3 21.5 26.3 22.05 25.9 22.45 25.5 22.85 24.95 22.85 24.4 22.85 24.0 22.45 23.6 22.05 23.6 21.5 23.6 20.95 24.0 20.55" fill="#ff6600" fill-rule="evenodd" stroke="none"/>
  </g>
</svg>
