<?xml version="1.0" encoding="UTF-8" standalone="no"?>
<svg xmlns:ffdec="https://www.free-decompiler.com/flash" xmlns:xlink="http://www.w3.org/1999/xlink" ffdec:objectType="shape" height="64.0px" width="54.1px" xmlns="http://www.w3.org/2000/svg">
  <g transform="matrix(1.0, 0.0, 0.0, 1.0, -5.95, -1.35)">
    <path d="M24.55 34.5 Q18.45 31.2 16.45 24.55 14.25 17.7 17.6 11.25 L17.85 10.8 Q21.3 4.7 28.1 2.65 34.85 0.6 41.1 3.9 L40.55 3.7 33.0 18.2 Q29.1 16.0 26.75 12.3 24.5 8.65 24.1 4.4 L23.3 4.95 Q23.8 9.25 26.2 12.9 28.65 16.65 32.65 18.9 L31.65 20.7 Q27.8 18.85 23.55 18.9 21.15 18.95 18.9 19.55 17.25 19.95 15.7 20.7 L15.8 21.6 Q17.45 20.7 19.25 20.3 L23.4 19.65 Q27.5 19.6 31.3 21.45 L24.55 34.5 M41.1 3.9 Q46.1 6.45 48.5 11.5 51.0 16.35 50.3 21.75 49.9 24.6 48.45 27.35 45.1 33.85 38.3 35.95 31.5 38.05 25.2 34.9 L31.95 21.8 Q35.75 23.8 38.2 27.35 L39.7 30.0 Q40.7 32.25 41.1 34.8 L41.85 34.35 Q41.5 31.9 40.5 29.7 L38.75 26.7 Q36.25 23.15 32.35 21.05 L33.3 19.25 Q37.4 21.4 42.05 21.3 46.45 21.2 50.4 19.05 L50.4 18.15 Q46.6 20.3 42.25 20.45 37.7 20.65 33.7 18.5 L41.25 4.0 41.1 3.9" fill="#d97500" fill-rule="evenodd" stroke="none"/>
    <path d="M24.55 34.5 L31.3 21.45 Q27.5 19.6 23.4 19.65 L19.25 20.3 Q17.45 20.7 15.8 21.6 L15.7 20.7 Q17.25 19.95 18.9 19.55 21.15 18.95 23.55 18.9 27.8 18.85 31.65 20.7 L32.65 18.9 Q28.65 16.65 26.2 12.9 23.8 9.25 23.3 4.95 L24.1 4.4 Q24.5 8.65 26.75 12.3 29.1 16.0 33.0 18.2 L40.55 3.7 41.1 3.9 41.25 4.0 33.7 18.5 Q37.7 20.65 42.25 20.45 46.6 20.3 50.4 18.15 L50.4 19.05 Q46.45 21.2 42.05 21.3 37.4 21.4 33.3 19.25 L32.35 21.05 Q36.25 23.15 38.75 26.7 L40.5 29.7 Q41.5 31.9 41.85 34.35 L41.1 34.8 Q40.7 32.25 39.7 30.0 L38.2 27.35 Q35.75 23.8 31.95 21.8 L25.2 34.9 25.15 34.9 24.5 34.55 24.55 34.5" fill="#8c4c00" fill-rule="evenodd" stroke="none"/>
    <path d="M41.1 3.9 Q34.85 0.6 28.1 2.65 21.3 4.7 17.85 10.8 L17.6 11.25 Q14.25 17.7 16.45 24.55 18.45 31.2 24.55 34.5 M41.1 3.9 Q46.1 6.45 48.5 11.5 51.0 16.35 50.3 21.75 49.9 24.6 48.45 27.35 45.1 33.85 38.3 35.95 31.5 38.05 25.2 34.9" fill="none" stroke="#5c2e01" stroke-linecap="round" stroke-linejoin="round" stroke-width="1.0"/>
    <path d="M17.95 18.2 Q20.1 25.3 26.6 28.8 L26.55 28.85 27.25 29.25 27.3 29.25 Q34.0 32.6 41.3 30.35 46.15 28.8 49.4 25.25 L48.45 27.35 Q45.1 33.8 38.25 35.9 31.45 38.0 25.2 34.85 L25.15 34.85 24.5 34.5 24.55 34.45 Q18.45 31.15 16.45 24.5 14.45 18.35 17.0 12.45 17.0 15.3 17.95 18.2" fill="#000000" fill-opacity="0.14901961" fill-rule="evenodd" stroke="none"/>
    <path d="M56.3 29.1 L55.55 30.75 53.4 35.7 Q51.35 41.1 49.8 46.45 L48.8 49.75 47.6 54.5 45.35 63.85 Q41.05 58.25 39.2 63.85 L37.85 59.85 36.85 63.85 Q33.3 58.25 29.2 63.85 L28.55 59.85 26.9 63.85 Q24.85 58.7 20.8 63.85 L19.0 54.5 19.0 54.45 17.85 49.75 17.0 46.45 Q15.45 41.05 13.15 35.75 L10.75 30.75 9.95 29.1 8.4 26.4 12.95 26.4 20.0 26.4 26.9 26.4 33.05 26.4 39.2 26.4 46.1 26.4 53.05 26.4 57.7 26.4 56.3 29.1 M53.4 35.7 L53.2 30.75 53.15 29.1 53.05 26.4 52.2 29.1 51.8 30.75 Q50.0 36.95 49.05 43.3 L49.8 46.45 M44.7 30.75 L42.6 38.4 Q44.1 44.1 46.0 49.75 L47.6 54.5 48.1 49.75 49.05 43.3 Q47.8 36.9 46.85 30.75 L46.55 29.1 46.1 26.4 45.25 29.1 44.7 30.75 M40.5 30.75 L39.95 29.1 39.2 26.4 38.2 29.1 37.7 30.75 36.15 35.75 40.15 49.15 42.6 38.4 40.5 30.75 M19.0 54.5 L20.7 49.75 24.05 38.45 Q23.0 34.6 21.55 30.75 L21.0 29.1 20.0 26.4 19.65 29.1 19.5 30.75 Q18.9 36.95 17.65 43.3 18.3 46.5 18.55 49.75 L19.0 54.45 M17.0 46.45 L17.65 43.3 Q16.65 36.95 14.55 30.75 L14.0 29.1 12.95 26.4 13.1 29.1 13.15 30.75 13.15 35.75 M33.05 26.4 L32.25 29.1 31.85 30.75 30.4 35.75 33.35 45.15 36.15 35.75 34.55 30.75 33.95 29.1 33.05 26.4 M24.05 38.45 L25.85 30.75 26.25 29.1 26.9 26.4 28.0 29.1 28.6 30.75 30.4 35.75 26.55 49.15 26.65 49.75 28.55 59.85 32.0 49.75 33.35 45.15 34.75 49.75 37.85 59.85 40.05 49.75 40.15 49.15 40.35 49.75 Q42.5 56.8 45.35 63.85 M20.8 63.85 Q24.25 56.8 26.3 49.75 L26.55 49.15 24.05 38.45" fill="none" stroke="url(#gradient0)" stroke-linecap="round" stroke-linejoin="miter-clip" stroke-miterlimit="3.0" stroke-width="1.0"/>
    <path d="M6.45 26.4 Q6.45 25.75 6.9 25.3 7.35 24.85 8.0 24.85 L58.0 24.85 Q58.65 24.85 59.1 25.3 59.55 25.75 59.55 26.4 L6.45 26.4" fill="#ff6600" fill-rule="evenodd" stroke="none"/>
    <path d="M59.55 26.4 Q59.55 27.05 59.1 27.5 L58.0 27.95 8.0 27.95 Q7.35 27.95 6.9 27.5 6.45 27.05 6.45 26.4 L59.55 26.4" fill="#e35b02" fill-rule="evenodd" stroke="none"/>
    <path d="M59.55 26.4 Q59.55 27.05 59.1 27.5 L58.0 27.95 8.0 27.95 Q7.35 27.95 6.9 27.5 6.45 27.05 6.45 26.4 6.45 25.75 6.9 25.3 7.35 24.85 8.0 24.85 L58.0 24.85 Q58.65 24.85 59.1 25.3 59.55 25.75 59.55 26.4 Z" fill="none" stroke="#a04001" stroke-linecap="round" stroke-linejoin="miter-clip" stroke-miterlimit="3.0" stroke-width="1.0"/>
  </g>
  <defs>
    <linearGradient gradientTransform="matrix(0.0, 0.0247, -0.0236, 0.0, 32.95, 45.15)" gradientUnits="userSpaceOnUse" id="gradient0" spreadMethod="pad" x1="-819.2" x2="819.2">
      <stop offset="0.06274509803921569" stop-color="#000000" stop-opacity="0.3529412"/>
      <stop offset="0.19215686274509805" stop-color="#cccccc" stop-opacity="0.7019608"/>
    </linearGradient>
  </defs>
</svg>
