<?xml version="1.0" encoding="UTF-8" standalone="no"?>
<svg xmlns:ffdec="https://www.free-decompiler.com/flash" xmlns:xlink="http://www.w3.org/1999/xlink" ffdec:objectType="shape" height="65.55px" width="63.5px" xmlns="http://www.w3.org/2000/svg">
  <g transform="matrix(1.0, 0.0, 0.0, 1.0, -0.6, 0.25)">
    <path d="M63.0 21.85 L56.95 32.35 44.8 32.35 38.75 21.85 44.8 11.35 56.95 11.35 63.0 21.85" fill="#79d154" fill-rule="evenodd" stroke="none"/>
    <path d="M59.45 23.9 L55.75 30.3 46.05 30.3 42.4 23.9 44.5 23.9 Q44.65 22.35 43.5 21.0 45.75 21.55 46.65 23.0 47.45 20.55 46.75 18.6 48.6 20.05 48.65 22.85 49.65 21.45 49.45 19.65 50.85 21.7 51.0 23.25 50.95 20.45 52.4 18.25 52.4 21.55 53.05 23.0 53.45 20.2 56.1 19.1 54.6 20.75 55.4 23.25 56.3 21.85 58.55 21.45 57.3 22.8 57.45 23.9 L59.45 23.9" fill="#000000" fill-opacity="0.14901961" fill-rule="evenodd" stroke="none"/>
    <path d="M55.75 30.25 L46.0 30.25 41.15 21.85 46.0 13.45 55.75 13.45 60.55 21.85 55.75 30.25 Z" fill="none" stroke="#000000" stroke-linecap="butt" stroke-linejoin="round" stroke-opacity="0.14901961" stroke-width="1.0"/>
    <path d="M62.7 21.9 Q56.5 25.65 50.9 25.85 L50.65 25.9 Q44.55 26.0 39.15 21.9 L45.05 11.7 56.8 11.7 62.7 21.9" fill="url(#gradient0)" fill-rule="evenodd" stroke="none"/>
    <path d="M63.0 21.9 L56.95 32.35 44.85 32.35 38.8 21.9 44.85 11.4 56.95 11.4 63.0 21.9 Z" fill="none" stroke="#000000" stroke-linecap="round" stroke-linejoin="miter-clip" stroke-miterlimit="10.0" stroke-opacity="0.3019608" stroke-width="2.0"/>
    <path d="M44.55 32.55 L38.5 43.05 26.35 43.05 20.3 32.55 26.35 22.05 38.5 22.05 44.55 32.55" fill="#4eb1e7" fill-rule="evenodd" stroke="none"/>
    <path d="M38.25 31.8 L38.55 31.25 38.9 31.8 Q39.7 32.9 40.8 32.9 41.5 32.9 42.1 32.5 L42.1 32.55 37.25 40.95 27.55 40.95 22.9 32.9 23.15 32.9 Q24.3 32.9 25.1 31.8 L25.45 31.25 25.75 31.8 Q26.55 32.9 27.7 32.9 28.8 32.9 29.6 31.8 L29.95 31.25 30.3 31.8 Q31.0 32.8 32.0 32.9 33.0 32.8 33.7 31.8 L34.05 31.25 34.4 31.8 Q35.2 32.9 36.3 32.9 37.45 32.9 38.25 31.8" fill="#000000" fill-opacity="0.14901961" fill-rule="evenodd" stroke="none"/>
    <path d="M37.3 40.95 L27.55 40.95 22.7 32.55 27.55 24.15 37.3 24.15 42.1 32.55 37.3 40.95 Z" fill="none" stroke="#000000" stroke-linecap="butt" stroke-linejoin="round" stroke-opacity="0.14901961" stroke-width="1.0"/>
    <path d="M44.2 32.55 Q38.0 36.3 32.4 36.5 L32.15 36.55 Q26.05 36.65 20.65 32.55 L26.55 22.35 38.3 22.35 44.2 32.55" fill="url(#gradient1)" fill-rule="evenodd" stroke="none"/>
    <path d="M44.5 32.55 L38.45 43.0 26.35 43.0 20.3 32.55 26.35 22.05 38.45 22.05 44.5 32.55 Z" fill="none" stroke="#000000" stroke-linecap="round" stroke-linejoin="miter-clip" stroke-miterlimit="10.0" stroke-opacity="0.3019608" stroke-width="2.0"/>
    <path d="M63.0 43.05 L56.95 53.55 44.8 53.55 38.75 43.05 44.8 32.55 56.95 32.55 63.0 43.05" fill="#4eb1e7" fill-rule="evenodd" stroke="none"/>
    <path d="M56.7 42.3 L57.0 41.75 57.35 42.3 Q58.15 43.4 59.25 43.4 59.95 43.4 60.55 43.0 L60.55 43.05 55.7 51.45 46.0 51.45 41.35 43.4 41.6 43.4 Q42.75 43.4 43.55 42.3 L43.9 41.75 44.2 42.3 Q45.0 43.4 46.15 43.4 47.25 43.4 48.05 42.3 L48.4 41.75 48.75 42.3 Q49.45 43.3 50.45 43.4 51.45 43.3 52.15 42.3 L52.5 41.75 52.85 42.3 Q53.65 43.4 54.75 43.4 55.9 43.4 56.7 42.3" fill="#000000" fill-opacity="0.14901961" fill-rule="evenodd" stroke="none"/>
    <path d="M55.75 51.45 L46.0 51.45 41.15 43.05 46.0 34.65 55.75 34.65 60.55 43.05 55.75 51.45 Z" fill="none" stroke="#000000" stroke-linecap="butt" stroke-linejoin="round" stroke-opacity="0.14901961" stroke-width="1.0"/>
    <path d="M62.65 43.05 Q56.45 46.8 50.85 47.0 L50.6 47.05 Q44.5 47.15 39.1 43.05 L45.0 32.85 56.75 32.85 62.65 43.05" fill="url(#gradient2)" fill-rule="evenodd" stroke="none"/>
    <path d="M62.95 43.05 L56.9 53.5 44.8 53.5 38.75 43.05 44.8 32.55 56.9 32.55 62.95 43.05 Z" fill="none" stroke="#000000" stroke-linecap="round" stroke-linejoin="miter-clip" stroke-miterlimit="10.0" stroke-opacity="0.3019608" stroke-width="2.0"/>
    <path d="M26.1 21.85 L20.05 32.35 7.9 32.35 1.85 21.85 7.9 11.35 20.05 11.35 26.1 21.85" fill="#79d154" fill-rule="evenodd" stroke="none"/>
    <path d="M22.5 23.9 L18.8 30.3 9.1 30.3 5.45 23.9 7.55 23.9 Q7.7 22.35 6.55 21.0 8.8 21.55 9.7 23.0 10.5 20.55 9.8 18.6 11.65 20.05 11.7 22.85 12.7 21.45 12.5 19.65 13.9 21.7 14.05 23.25 14.0 20.45 15.45 18.25 15.45 21.55 16.1 23.0 16.5 20.2 19.15 19.1 17.65 20.75 18.45 23.25 19.35 21.85 21.6 21.45 20.35 22.8 20.5 23.9 L22.5 23.9" fill="#000000" fill-opacity="0.14901961" fill-rule="evenodd" stroke="none"/>
    <path d="M18.85 30.25 L9.1 30.25 4.25 21.85 9.1 13.45 18.85 13.45 23.65 21.85 18.85 30.25 Z" fill="none" stroke="#000000" stroke-linecap="butt" stroke-linejoin="round" stroke-opacity="0.14901961" stroke-width="1.0"/>
    <path d="M25.75 21.9 Q19.55 25.65 13.95 25.85 L13.7 25.9 Q7.6 26.0 2.2 21.9 L8.1 11.7 19.85 11.7 25.75 21.9" fill="url(#gradient3)" fill-rule="evenodd" stroke="none"/>
    <path d="M26.05 21.9 L20.0 32.35 7.9 32.35 1.85 21.9 7.9 11.4 20.0 11.4 26.05 21.9 Z" fill="none" stroke="#000000" stroke-linecap="round" stroke-linejoin="miter-clip" stroke-miterlimit="10.0" stroke-opacity="0.3019608" stroke-width="2.0"/>
    <path d="M44.55 11.25 L38.5 21.75 26.35 21.75 20.3 11.25 26.35 0.75 38.5 0.75 44.55 11.25" fill="#4eb1e7" fill-rule="evenodd" stroke="none"/>
    <path d="M38.25 10.5 L38.55 9.95 38.9 10.5 Q39.7 11.6 40.8 11.6 41.5 11.6 42.1 11.2 L42.1 11.25 37.25 19.65 27.55 19.65 22.9 11.6 23.15 11.6 Q24.3 11.6 25.1 10.5 L25.45 9.95 25.75 10.5 Q26.55 11.6 27.7 11.6 28.8 11.6 29.6 10.5 L29.95 9.95 30.3 10.5 Q31.0 11.5 32.0 11.6 33.0 11.5 33.7 10.5 L34.05 9.95 34.4 10.5 Q35.2 11.6 36.3 11.6 37.45 11.6 38.25 10.5" fill="#000000" fill-opacity="0.14901961" fill-rule="evenodd" stroke="none"/>
    <path d="M37.3 19.65 L27.55 19.65 22.7 11.25 27.55 2.85 37.3 2.85 42.1 11.25 37.3 19.65 Z" fill="none" stroke="#000000" stroke-linecap="butt" stroke-linejoin="round" stroke-opacity="0.14901961" stroke-width="1.0"/>
    <path d="M44.2 11.25 Q38.0 15.0 32.4 15.2 L32.15 15.25 Q26.05 15.35 20.65 11.25 L26.55 1.05 38.3 1.05 44.2 11.25" fill="url(#gradient4)" fill-rule="evenodd" stroke="none"/>
    <path d="M44.5 11.25 L38.45 21.7 26.35 21.7 20.3 11.25 26.35 0.75 38.45 0.75 44.5 11.25 Z" fill="none" stroke="#000000" stroke-linecap="round" stroke-linejoin="miter-clip" stroke-miterlimit="10.0" stroke-opacity="0.3019608" stroke-width="2.0"/>
    <path d="M26.0 43.05 L19.95 53.55 7.8 53.55 1.75 43.05 7.8 32.55 19.95 32.55 26.0 43.05" fill="#79d154" fill-rule="evenodd" stroke="none"/>
    <path d="M22.4 45.05 L18.7 51.45 9.0 51.45 5.35 45.05 7.45 45.05 Q7.6 43.5 6.45 42.15 8.7 42.7 9.6 44.15 10.4 41.7 9.7 39.75 11.55 41.2 11.6 44.0 12.6 42.6 12.4 40.8 13.8 42.85 13.95 44.4 13.9 41.6 15.35 39.4 15.35 42.7 16.0 44.15 16.4 41.35 19.05 40.25 17.55 41.9 18.35 44.4 19.25 43.0 21.5 42.6 20.25 43.95 20.4 45.05 L22.4 45.05" fill="#000000" fill-opacity="0.14901961" fill-rule="evenodd" stroke="none"/>
    <path d="M18.75 51.45 L9.0 51.45 4.15 43.05 9.0 34.65 18.75 34.65 23.55 43.05 18.75 51.45 Z" fill="none" stroke="#000000" stroke-linecap="butt" stroke-linejoin="round" stroke-opacity="0.14901961" stroke-width="1.0"/>
    <path d="M25.65 43.05 Q19.45 46.8 13.85 47.0 L13.6 47.05 Q7.5 47.15 2.1 43.05 L8.0 32.85 19.75 32.85 25.65 43.05" fill="url(#gradient5)" fill-rule="evenodd" stroke="none"/>
    <path d="M25.95 43.05 L19.9 53.5 7.8 53.5 1.75 43.05 7.8 32.55 19.9 32.55 25.95 43.05 Z" fill="none" stroke="#000000" stroke-linecap="round" stroke-linejoin="miter-clip" stroke-miterlimit="10.0" stroke-opacity="0.3019608" stroke-width="2.0"/>
    <path d="M44.55 53.85 L38.5 64.35 26.35 64.35 20.3 53.85 26.35 43.35 38.5 43.35 44.55 53.85" fill="#79d154" fill-rule="evenodd" stroke="none"/>
    <path d="M40.95 55.85 L37.25 62.25 27.55 62.25 23.9 55.85 26.0 55.85 Q26.15 54.3 25.0 52.95 27.25 53.5 28.15 54.95 28.95 52.5 28.25 50.55 30.1 52.0 30.15 54.8 31.15 53.4 30.95 51.6 32.35 53.65 32.5 55.2 32.45 52.4 33.9 50.2 33.9 53.5 34.55 54.95 34.95 52.15 37.6 51.05 36.1 52.7 36.9 55.2 37.8 53.8 40.05 53.4 38.8 54.75 38.95 55.85 L40.95 55.85" fill="#000000" fill-opacity="0.14901961" fill-rule="evenodd" stroke="none"/>
    <path d="M37.3 62.25 L27.55 62.25 22.7 53.85 27.55 45.45 37.3 45.45 42.1 53.85 37.3 62.25 Z" fill="none" stroke="#000000" stroke-linecap="butt" stroke-linejoin="round" stroke-opacity="0.14901961" stroke-width="1.0"/>
    <path d="M44.2 53.85 Q38.0 57.6 32.4 57.8 L32.15 57.85 Q26.05 57.95 20.65 53.85 L26.55 43.65 38.3 43.65 44.2 53.85" fill="url(#gradient6)" fill-rule="evenodd" stroke="none"/>
    <path d="M44.5 53.85 L38.45 64.3 26.35 64.3 20.3 53.85 26.35 43.35 38.45 43.35 44.5 53.85 Z" fill="none" stroke="#000000" stroke-linecap="round" stroke-linejoin="miter-clip" stroke-miterlimit="10.0" stroke-opacity="0.3019608" stroke-width="2.0"/>
  </g>
  <defs>
    <linearGradient gradientTransform="matrix(0.0, 0.013, -0.0062, 0.0, 50.95, 16.8)" gradientUnits="userSpaceOnUse" id="gradient0" spreadMethod="pad" x1="-819.2" x2="819.2">
      <stop offset="0.0" stop-color="#ffffff" stop-opacity="0.8"/>
      <stop offset="1.0" stop-color="#ffffff" stop-opacity="0.0"/>
    </linearGradient>
    <linearGradient gradientTransform="matrix(0.0, 0.013, -0.0062, 0.0, 32.45, 27.45)" gradientUnits="userSpaceOnUse" id="gradient1" spreadMethod="pad" x1="-819.2" x2="819.2">
      <stop offset="0.0" stop-color="#ffffff" stop-opacity="0.8"/>
      <stop offset="1.0" stop-color="#ffffff" stop-opacity="0.0"/>
    </linearGradient>
    <linearGradient gradientTransform="matrix(0.0, 0.013, -0.0062, 0.0, 50.9, 37.95)" gradientUnits="userSpaceOnUse" id="gradient2" spreadMethod="pad" x1="-819.2" x2="819.2">
      <stop offset="0.0" stop-color="#ffffff" stop-opacity="0.8"/>
      <stop offset="1.0" stop-color="#ffffff" stop-opacity="0.0"/>
    </linearGradient>
    <linearGradient gradientTransform="matrix(0.0, 0.013, -0.0062, 0.0, 14.0, 16.8)" gradientUnits="userSpaceOnUse" id="gradient3" spreadMethod="pad" x1="-819.2" x2="819.2">
      <stop offset="0.0" stop-color="#ffffff" stop-opacity="0.8"/>
      <stop offset="1.0" stop-color="#ffffff" stop-opacity="0.0"/>
    </linearGradient>
    <linearGradient gradientTransform="matrix(0.0, 0.013, -0.0062, 0.0, 32.45, 6.15)" gradientUnits="userSpaceOnUse" id="gradient4" spreadMethod="pad" x1="-819.2" x2="819.2">
      <stop offset="0.0" stop-color="#ffffff" stop-opacity="0.8"/>
      <stop offset="1.0" stop-color="#ffffff" stop-opacity="0.0"/>
    </linearGradient>
    <linearGradient gradientTransform="matrix(0.0, 0.013, -0.0062, 0.0, 13.9, 37.95)" gradientUnits="userSpaceOnUse" id="gradient5" spreadMethod="pad" x1="-819.2" x2="819.2">
      <stop offset="0.0" stop-color="#ffffff" stop-opacity="0.8"/>
      <stop offset="1.0" stop-color="#ffffff" stop-opacity="0.0"/>
    </linearGradient>
    <linearGradient gradientTransform="matrix(0.0, 0.013, -0.0062, 0.0, 32.45, 48.75)" gradientUnits="userSpaceOnUse" id="gradient6" spreadMethod="pad" x1="-819.2" x2="819.2">
      <stop offset="0.0" stop-color="#ffffff" stop-opacity="0.8"/>
      <stop offset="1.0" stop-color="#ffffff" stop-opacity="0.0"/>
    </linearGradient>
  </defs>
</svg>
