<?xml version="1.0" encoding="UTF-8" standalone="no"?>
<svg xmlns:ffdec="https://www.free-decompiler.com/flash" xmlns:xlink="http://www.w3.org/1999/xlink" ffdec:objectType="shape" height="345.3px" width="286.55px" xmlns="http://www.w3.org/2000/svg">
  <g transform="matrix(1.0, 0.0, 0.0, 1.0, 143.25, 173.3)">
    <path d="M101.35 -72.6 Q121.15 -52.75 132.05 -27.05 143.3 -0.45 143.3 28.7 143.3 57.85 132.05 84.5 121.15 110.2 101.35 130.05 81.5 149.85 55.8 160.75 29.2 172.0 0.05 172.0 -29.1 172.0 -55.75 160.75 -81.45 149.85 -101.3 130.05 -121.1 110.2 -132.0 84.5 -143.25 57.85 -143.25 28.7 -143.25 -0.45 -132.0 -27.05 -121.1 -52.75 -101.3 -72.6 -81.45 -92.4 -55.75 -103.3 -29.1 -114.55 0.05 -114.55 29.2 -114.55 55.8 -103.3 81.5 -92.4 101.35 -72.6" fill="#000000" fill-opacity="0.14901961" fill-rule="evenodd" stroke="none"/>
    <path d="M50.6 -108.4 Q73.95 -98.55 91.9 -80.55 109.9 -62.55 119.75 -39.25 129.95 -15.1 129.95 11.35 129.95 37.8 119.75 61.9 109.9 85.25 91.9 103.2 73.95 121.2 50.6 131.05 26.5 141.25 0.05 141.25 -26.4 141.25 -50.55 131.05 -73.85 121.2 -91.85 103.2 -109.85 85.25 -119.7 61.9 -129.9 37.8 -129.9 11.35 -129.9 -15.1 -119.7 -39.25 -109.85 -62.55 -91.85 -80.55 -73.85 -98.55 -50.55 -108.4 -26.4 -118.6 0.05 -118.6 26.5 -118.6 50.6 -108.4" fill="#b04830" fill-rule="evenodd" stroke="none"/>
    <path d="M51.85 -111.4 Q75.75 -101.25 94.2 -82.8 112.6 -64.4 122.7 -40.5 133.2 -15.75 133.2 11.35 133.2 42.7 119.35 70.55 105.9 97.5 82.15 116.2 64.85 129.75 44.2 137.0 22.9 144.5 0.05 144.5 -27.05 144.5 -51.8 134.05 -75.75 123.9 -94.15 105.5 -112.6 87.05 -122.7 63.15 -133.15 38.45 -133.15 11.35 -133.15 -15.75 -122.7 -40.5 -112.6 -64.4 -94.15 -82.8 -75.75 -101.25 -51.8 -111.4 -27.05 -121.85 0.05 -121.85 27.1 -121.85 51.85 -111.4" fill="url(#gradient0)" fill-rule="evenodd" stroke="none"/>
    <path d="M37.05 -76.3 Q54.1 -69.05 67.25 -55.9 80.4 -42.75 87.65 -25.7 95.1 -8.0 95.1 11.35 95.1 30.7 87.65 48.35 80.4 65.4 67.25 78.55 54.1 91.7 37.05 98.95 19.4 106.4 0.05 106.4 -19.3 106.4 -37.0 98.95 -54.05 91.7 -67.2 78.55 -80.35 65.4 -87.6 48.35 -95.05 30.7 -95.05 11.35 -95.05 -8.0 -87.6 -25.7 -80.35 -42.75 -67.2 -55.9 -54.05 -69.05 -37.0 -76.3 -19.3 -83.75 0.05 -83.75 19.4 -83.75 37.05 -76.3" fill="#943a27" fill-opacity="0.49803922" fill-rule="evenodd" stroke="none"/>
    <path d="M37.05 -76.3 Q19.4 -83.75 0.05 -83.75 -19.3 -83.75 -37.0 -76.3 -54.05 -69.05 -67.2 -55.9 -80.35 -42.75 -87.6 -25.7 -95.05 -8.0 -95.05 11.35 -95.05 30.7 -87.6 48.35 -80.35 65.4 -67.2 78.55 -54.05 91.7 -37.0 98.95 -19.3 106.4 0.05 106.4 19.4 106.4 37.05 98.95 54.1 91.7 67.25 78.55 80.4 65.4 87.65 48.35 95.1 30.7 95.1 11.35 95.1 -8.0 87.65 -25.7 80.4 -42.75 67.25 -55.9 54.1 -69.05 37.05 -76.3 Z" fill="none" stroke="#6b2c1e" stroke-linecap="butt" stroke-linejoin="miter-clip" stroke-miterlimit="4.0" stroke-opacity="0.49803922" stroke-width="1.0"/>
    <path d="M49.8 -106.25 Q72.75 -96.55 90.45 -78.95 108.15 -61.3 117.85 -38.45 127.9 -14.75 127.9 11.15 127.9 25.9 124.5 40.35 119.6 19.45 107.95 1.3 96.55 -16.55 80.0 -29.8 45.0 -57.8 0.05 -57.8 -44.95 -57.8 -79.95 -29.8 -96.5 -16.55 -107.9 1.3 -119.55 19.45 -124.45 40.35 -127.85 25.9 -127.85 11.15 -127.85 -14.75 -117.8 -38.45 -108.1 -61.3 -90.4 -78.95 -72.7 -96.55 -49.75 -106.25 -25.95 -116.25 0.05 -116.25 26.05 -116.25 49.8 -106.25" fill="#000000" fill-opacity="0.05882353" fill-rule="evenodd" stroke="none"/>
    <path d="M90.45 -79.1 Q72.75 -96.8 49.8 -106.5 26.05 -116.55 0.05 -116.55 -25.95 -116.55 -49.75 -106.5 -72.7 -96.8 -90.4 -79.1 -108.1 -61.4 -117.8 -38.45 -127.85 -14.65 -127.85 11.35 -127.85 37.35 -117.8 61.1 -108.1 84.05 -90.4 101.75 -72.7 119.45 -49.75 129.15 -26.0 139.2 0.05 139.2 26.05 139.2 49.8 129.15 72.75 119.45 90.45 101.75 108.15 84.05 117.85 61.1 127.9 37.35 127.9 11.35 127.9 -14.7 117.85 -38.45 108.15 -61.4 90.45 -79.1 M99.95 -88.55 Q119.5 -69.0 130.2 -43.65 141.3 -17.4 141.3 11.35 141.3 40.1 130.2 66.35 119.5 91.65 99.95 111.25 80.35 130.8 55.05 141.5 28.8 152.6 0.05 152.6 -28.7 152.6 -54.95 141.5 -80.3 130.8 -99.85 111.25 -119.4 91.65 -130.15 66.35 -141.25 40.1 -141.25 11.35 -141.25 -17.4 -130.15 -43.65 -119.45 -69.0 -99.85 -88.55 -80.3 -108.15 -54.95 -118.85 -28.7 -129.95 0.05 -129.95 28.8 -129.95 55.05 -118.85 80.35 -108.1 99.95 -88.55" fill="url(#gradient1)" fill-rule="evenodd" stroke="none"/>
    <path d="M99.95 -88.55 Q80.35 -108.1 55.05 -118.85 28.8 -129.95 0.05 -129.95 -28.7 -129.95 -54.95 -118.85 -80.3 -108.15 -99.85 -88.55 -119.45 -69.0 -130.15 -43.65 -141.25 -17.4 -141.25 11.35 -141.25 40.1 -130.15 66.35 -119.4 91.65 -99.85 111.25 -80.3 130.8 -54.95 141.5 -28.7 152.6 0.05 152.6 28.8 152.6 55.05 141.5 80.35 130.8 99.95 111.25 119.5 91.65 130.2 66.35 141.3 40.1 141.3 11.35 141.3 -17.4 130.2 -43.65 119.5 -69.0 99.95 -88.55 M90.45 -79.1 Q108.15 -61.4 117.85 -38.45 127.9 -14.7 127.9 11.35 127.9 37.35 117.85 61.1 108.15 84.05 90.45 101.75 72.75 119.45 49.8 129.15 26.05 139.2 0.05 139.2 -26.0 139.2 -49.75 129.15 -72.7 119.45 -90.4 101.75 -108.1 84.05 -117.8 61.1 -127.85 37.35 -127.85 11.35 -127.85 -14.65 -117.8 -38.45 -108.1 -61.4 -90.4 -79.1 -72.7 -96.8 -49.75 -106.5 -25.95 -116.55 0.05 -116.55 26.05 -116.55 49.8 -106.5 72.75 -96.8 90.45 -79.1 Z" fill="none" stroke="#943d29" stroke-linecap="butt" stroke-linejoin="miter-clip" stroke-miterlimit="4.0" stroke-width="3.0"/>
    <path d="M97.7 -86.3 Q116.8 -67.2 127.3 -42.4 138.2 -16.7 138.2 11.35 138.2 39.4 127.3 65.05 116.8 89.85 97.7 109.0 78.55 128.1 53.75 138.6 28.1 149.5 0.05 149.5 -28.0 149.5 -53.7 138.6 -78.5 128.1 -97.6 109.0 -116.75 89.85 -127.25 65.05 -138.15 39.4 -138.15 11.35 -138.15 -16.7 -127.25 -42.4 -116.75 -67.2 -97.6 -86.3 -78.5 -105.45 -53.7 -115.95 -28.0 -126.85 0.05 -126.85 28.1 -126.85 53.75 -115.95 78.55 -105.45 97.7 -86.3 M52.3 -112.45 Q27.35 -123.05 0.05 -123.05 -27.25 -123.05 -52.2 -112.45 -76.3 -102.25 -94.95 -83.65 -113.55 -65.0 -123.75 -40.9 -134.35 -15.95 -134.35 11.35 -134.35 38.65 -123.75 63.6 -113.55 87.7 -94.95 106.3 -76.3 124.9 -52.2 135.15 -27.25 145.7 0.05 145.7 27.35 145.7 52.3 135.15 76.4 124.9 95.0 106.3 113.6 87.7 123.85 63.6 134.4 38.65 134.4 11.35 134.4 -15.95 123.85 -40.9 113.6 -65.0 95.0 -83.65 76.4 -102.25 52.3 -112.45" fill="#eb765b" fill-rule="evenodd" stroke="none"/>
    <path d="M101.0 -89.65 Q121.2 -69.4 132.0 -43.35 142.8 -17.25 142.8 11.35 142.8 39.9 132.0 66.0 121.2 92.05 101.0 112.3 80.8 132.5 54.7 143.3 28.65 154.1 0.05 154.1 -28.55 154.1 -54.65 143.3 -80.7 132.5 -100.95 112.3 -121.15 92.05 -131.95 66.0 -142.75 39.9 -142.75 11.35 -142.75 -17.25 -131.95 -43.35 -121.15 -69.4 -100.95 -89.65 -80.7 -109.85 -54.65 -120.65 -28.55 -131.45 0.05 -131.45 28.65 -131.45 54.7 -120.65 80.8 -109.85 101.0 -89.65 M130.2 -43.65 Q119.5 -69.0 99.95 -88.55 80.35 -108.1 55.05 -118.85 28.8 -129.95 0.05 -129.95 -28.7 -129.95 -54.95 -118.85 -80.3 -108.15 -99.85 -88.55 -119.45 -69.0 -130.15 -43.65 -141.25 -17.4 -141.25 11.35 -141.25 40.1 -130.15 66.35 -119.4 91.65 -99.85 111.25 -80.3 130.8 -54.95 141.5 -28.7 152.6 0.05 152.6 28.8 152.6 55.05 141.5 80.35 130.8 99.95 111.25 119.5 91.65 130.2 66.35 141.3 40.1 141.3 11.35 141.3 -17.4 130.2 -43.65" fill="#7d3322" fill-rule="evenodd" stroke="none"/>
    <path d="M44.7 -97.75 Q65.75 -88.85 81.95 -72.6 98.2 -56.35 107.1 -35.3 116.3 -13.5 116.3 10.35 116.3 34.2 107.1 56.0 98.2 77.05 81.95 93.25 65.75 109.5 44.7 118.4 22.9 127.6 -0.95 127.6 -24.8 127.6 -46.6 118.4 -67.65 109.5 -83.9 93.25 -100.15 77.05 -109.05 56.0 -118.25 34.2 -118.25 10.35 -118.25 -13.5 -109.05 -35.3 -100.15 -56.35 -83.9 -72.6 -67.65 -88.85 -46.6 -97.75 -24.8 -106.95 -0.95 -106.95 22.9 -106.95 44.7 -97.75" fill="#ddbb42" fill-opacity="0.101960786" fill-rule="evenodd" stroke="none"/>
    <path d="M44.7 -97.75 Q65.75 -88.85 81.95 -72.6 98.2 -56.35 107.1 -35.3 116.3 -13.5 116.3 10.35 116.3 34.2 107.1 56.0 98.2 77.05 81.95 93.25 65.75 109.5 44.7 118.4 22.9 127.6 -0.95 127.6 -24.8 127.6 -46.6 118.4 -67.65 109.5 -83.9 93.25 -100.15 77.05 -109.05 56.0 -118.25 34.2 -118.25 10.35 -118.25 -13.5 -109.05 -35.3 -100.15 -56.35 -83.9 -72.6 -67.65 -88.85 -46.6 -97.75 -24.8 -106.95 -0.95 -106.95 22.9 -106.95 44.7 -97.75 M40.35 -82.3 L39.05 -84.3 Q19.9 -92.4 -0.95 -92.4 -21.85 -92.4 -40.95 -84.35 -59.4 -76.55 -73.6 -62.3 -87.85 -48.1 -95.65 -29.65 -103.7 -10.55 -103.7 10.35 -103.7 31.25 -95.65 50.3 -87.85 68.75 -73.6 82.95 -59.4 97.2 -40.95 105.0 -21.85 113.05 -0.95 113.05 19.95 113.05 39.0 105.0 57.45 97.2 71.65 82.95 85.9 68.75 93.7 50.3 101.75 31.25 101.75 10.35 101.75 -16.95 88.3 -40.5 75.25 -63.4 52.85 -77.2 L50.55 -77.0 Q47.8 -77.05 44.9 -78.55 42.05 -80.05 40.35 -82.3" fill="#ddbb42" fill-opacity="0.7019608" fill-rule="evenodd" stroke="none"/>
    <path d="M113.25 -23.15 Q102.7 -44.1 85.35 -59.95 68.0 -75.9 46.15 -84.55 23.55 -93.5 -0.95 -93.5 -25.5 -93.5 -48.1 -84.55 -69.9 -75.9 -87.3 -59.95 -104.65 -44.1 -115.15 -23.15 -126.0 -1.7 -128.25 22.35 -128.85 16.45 -128.85 10.35 -128.85 -15.65 -118.8 -39.45 -109.1 -62.4 -91.4 -80.1 -73.7 -97.8 -50.75 -107.5 -26.95 -117.55 -0.95 -117.55 25.05 -117.55 48.8 -107.5 71.75 -97.8 89.45 -80.1 107.15 -62.4 116.85 -39.45 126.9 -15.7 126.9 10.35 126.9 16.15 126.35 22.35 124.1 -1.7 113.25 -23.15" fill="#000000" fill-opacity="0.101960786" fill-rule="evenodd" stroke="none"/>
    <path d="M44.45 -97.2 Q22.8 -106.35 -0.95 -106.35 -24.7 -106.35 -46.35 -97.2 -67.3 -88.3 -83.45 -72.15 -99.6 -56.0 -108.5 -35.05 -117.65 -13.4 -117.65 10.35 -117.65 34.05 -108.5 55.75 -99.6 76.7 -83.45 92.85 -67.3 109.0 -46.35 117.85 -24.7 127.0 -0.95 127.0 22.8 127.0 44.45 117.85 65.4 109.0 81.55 92.85 97.7 76.7 106.55 55.75 115.7 34.1 115.7 10.35 115.7 -13.4 106.55 -35.05 97.7 -56.0 81.55 -72.15 65.4 -88.3 44.45 -97.2 Z" fill="none" stroke="#ffe585" stroke-linecap="butt" stroke-linejoin="miter-clip" stroke-miterlimit="4.0" stroke-opacity="0.34901962" stroke-width="3.0"/>
    <path d="M79.35 -106.0 L76.75 -105.6 Q73.65 -104.85 71.05 -102.9 68.75 -101.2 67.7 -99.45 L67.1 -98.05 69.2 -96.65 68.9 -94.75 67.95 -90.55 66.65 -85.45 52.55 -78.05 Q50.8 -79.3 51.3 -84.65 52.25 -95.35 63.35 -115.9 L79.35 -106.0" fill="#000000" fill-opacity="0.101960786" fill-rule="evenodd" stroke="none"/>
    <path d="M22.3 -32.15 Q21.2 -32.65 20.8 -33.8 20.45 -34.95 20.95 -36.05 L73.1 -147.5 72.0 -149.15 Q70.2 -151.95 70.0 -155.15 69.75 -158.4 71.15 -161.3 73.4 -165.95 78.3 -167.55 83.1 -169.2 87.7 -167.0 92.3 -164.75 93.95 -159.95 95.65 -155.15 93.4 -150.5 92.0 -147.6 89.35 -145.75 86.65 -143.95 83.45 -143.6 L81.4 -143.5 26.2 -33.5 Q25.7 -32.4 24.55 -32.0 L22.3 -32.15" fill="#ffffff" fill-opacity="0.3019608" fill-rule="evenodd" stroke="none"/>
    <path d="M22.3 -32.15 Q21.2 -32.65 20.8 -33.8 20.45 -34.95 20.95 -36.05 L73.1 -147.5 72.0 -149.15 Q70.2 -151.95 70.0 -155.15 69.75 -158.4 71.15 -161.3 73.4 -165.95 78.3 -167.55 83.1 -169.2 87.7 -167.0 92.3 -164.75 93.95 -159.95 95.65 -155.15 93.4 -150.5 92.0 -147.6 89.35 -145.75 86.65 -143.95 83.45 -143.6 L81.4 -143.5 26.2 -33.5 Q25.7 -32.4 24.55 -32.0 L22.3 -32.15" fill="#cc3535" fill-opacity="0.8" fill-rule="evenodd" stroke="none"/>
    <path d="M23.0 -33.5 Q22.45 -33.75 22.25 -34.3 22.0 -34.9 22.3 -35.45 L74.8 -147.6 73.2 -149.95 Q71.65 -152.4 71.45 -155.25 71.3 -158.05 72.55 -160.7 74.55 -164.75 78.75 -166.25 83.05 -167.7 87.1 -165.75 91.15 -163.75 92.65 -159.55 94.15 -155.25 92.15 -151.2 90.9 -148.55 88.55 -146.95 86.25 -145.3 83.3 -145.05 L80.5 -144.8 24.95 -34.15 Q24.65 -33.6 24.05 -33.4 L23.0 -33.5" fill="#bd3131" fill-rule="evenodd" stroke="none"/>
    <path d="M25.75 -28.65 Q23.2 -27.7 20.75 -28.9 18.3 -30.1 17.45 -32.65 16.55 -35.2 17.75 -37.65 L68.95 -147.2 Q66.7 -150.7 66.4 -154.8 66.1 -159.0 68.0 -162.85 70.9 -168.85 77.1 -171.0 83.35 -173.2 89.3 -170.3 95.25 -167.4 97.4 -161.2 99.6 -154.95 96.7 -148.95 94.8 -145.1 91.25 -142.75 87.9 -140.45 83.75 -140.05 L29.45 -31.95 Q28.25 -29.5 25.75 -28.65 M20.85 -33.8 Q21.25 -32.7 22.35 -32.15 L24.55 -32.0 Q25.7 -32.5 26.2 -33.55 L81.45 -143.5 83.45 -143.7 Q86.75 -143.95 89.4 -145.8 92.0 -147.6 93.45 -150.5 95.65 -155.15 94.0 -160.0 92.3 -164.8 87.7 -167.0 83.1 -169.25 78.3 -167.6 73.45 -165.95 71.25 -161.3 69.8 -158.4 70.0 -155.2 70.25 -151.95 72.0 -149.25 L73.15 -147.5 20.95 -36.1 Q20.45 -35.05 20.85 -33.8" fill="#ffffff" fill-opacity="0.6" fill-rule="evenodd" stroke="none"/>
    <path d="M29.5 -31.95 L83.8 -140.0 Q87.9 -140.4 91.25 -142.7 94.8 -145.1 96.7 -149.0 99.6 -154.95 97.4 -161.2 95.25 -167.4 89.3 -170.3 83.35 -173.2 77.1 -171.0 70.9 -168.85 68.0 -162.9 66.1 -159.0 66.45 -154.75 66.7 -150.65 69.0 -147.2 L17.8 -37.65 Q16.6 -35.2 17.45 -32.65 18.35 -30.1 20.8 -28.9 23.25 -27.7 25.75 -28.65 28.3 -29.5 29.5 -31.95 Z" fill="none" stroke="#000000" stroke-linecap="butt" stroke-linejoin="miter-clip" stroke-miterlimit="4.0" stroke-opacity="0.49803922" stroke-width="2.0"/>
    <path d="M83.9 -154.0 Q82.0 -152.75 79.8 -153.2 77.65 -153.7 76.45 -155.5 75.25 -157.35 75.75 -159.55 76.25 -161.75 78.15 -162.9 80.05 -164.15 82.2 -163.7 84.4 -163.2 85.6 -161.4 86.75 -159.55 86.25 -157.35 85.75 -155.2 83.9 -154.0" fill="#ffffff" fill-opacity="0.3019608" fill-rule="evenodd" stroke="none"/>
    <path d="M43.45 -92.9 L45.15 -90.9 Q47.25 -88.65 49.35 -87.65 51.45 -86.6 54.45 -86.35 L56.95 -86.35 M48.25 -103.3 Q48.7 -102.5 49.7 -101.4 51.6 -99.2 54.25 -97.95 56.9 -96.65 59.8 -96.5 L62.15 -96.6 M53.35 -114.2 L54.65 -112.3 Q56.65 -110.15 59.5 -108.75 62.35 -107.35 65.25 -107.2 L67.55 -107.3 M64.2 -137.7 L66.0 -135.6 Q68.3 -133.3 70.7 -132.15 73.05 -131.0 76.4 -130.55 L79.25 -130.4 M58.65 -125.65 L60.3 -123.6 Q62.55 -121.3 65.0 -120.1 67.45 -118.9 70.6 -118.6 L73.25 -118.55 M68.85 -147.3 L70.35 -145.75 Q72.6 -143.9 75.75 -142.35 78.95 -140.8 81.75 -140.25 L83.9 -140.0" fill="none" stroke="#000000" stroke-linecap="butt" stroke-linejoin="miter-clip" stroke-miterlimit="4.0" stroke-opacity="0.3019608" stroke-width="1.0"/>
    <path d="M44.9 -78.55 Q47.8 -77.05 50.55 -77.0 L52.85 -77.2 Q75.25 -63.4 88.3 -40.5 101.75 -16.95 101.75 10.35 101.75 31.25 93.7 50.3 85.9 68.75 71.65 82.95 57.45 97.2 39.0 105.0 19.95 113.05 -0.95 113.05 -21.85 113.05 -40.95 105.0 -59.4 97.2 -73.6 82.95 -87.85 68.75 -95.65 50.3 -103.7 31.25 -103.7 10.35 -103.7 -10.55 -95.65 -29.65 -87.85 -48.1 -73.6 -62.3 -59.4 -76.55 -40.95 -84.35 -21.85 -92.4 -0.95 -92.4 19.9 -92.4 39.05 -84.3 L40.35 -82.3 Q42.05 -80.05 44.9 -78.55" fill="#ddbb42" fill-opacity="0.7019608" fill-rule="evenodd" stroke="none"/>
  </g>
  <defs>
    <radialGradient cx="0" cy="0" gradientTransform="matrix(0.1869, 0.0, 0.0, 0.1869, 0.05, 11.35)" gradientUnits="userSpaceOnUse" id="gradient0" r="819.2" spreadMethod="pad">
      <stop offset="0.00392156862745098" stop-color="#9f432d"/>
      <stop offset="1.0" stop-color="#c45136"/>
    </radialGradient>
    <linearGradient gradientTransform="matrix(0.1724, 0.0, 0.0, -0.1724, 0.05, 11.35)" gradientUnits="userSpaceOnUse" id="gradient1" spreadMethod="pad" x1="-819.2" x2="819.2">
      <stop offset="0.00392156862745098" stop-color="#da5a3c"/>
      <stop offset="1.0" stop-color="#e25d3e"/>
    </linearGradient>
  </defs>
</svg>
