<?xml version="1.0" encoding="UTF-8" standalone="no"?>
<svg xmlns:ffdec="https://www.free-decompiler.com/flash" xmlns:xlink="http://www.w3.org/1999/xlink" ffdec:objectType="shape" height="52.4px" width="62.4px" xmlns="http://www.w3.org/2000/svg">
  <g transform="matrix(1.0, 0.0, 0.0, 1.0, -1.3, -7.25)">
    <path d="M41.5 51.1 L44.45 45.5 47.45 51.1 41.5 51.1" fill="#b04625" fill-rule="evenodd" stroke="none"/>
    <path d="M41.5 51.1 L47.45 51.1 44.45 45.5 41.5 51.1 Z" fill="none" stroke="#572312" stroke-linecap="butt" stroke-linejoin="miter-clip" stroke-miterlimit="4.0" stroke-width="1.5"/>
    <path d="M62.95 27.6 Q62.95 35.8 57.55 41.5 52.1 47.3 44.45 47.3 36.8 47.3 31.4 41.5 26.0 35.8 26.0 27.6 26.0 19.5 31.4 13.75 36.8 8.0 44.45 8.0 52.1 8.0 57.55 13.75 62.95 19.5 62.95 27.6" fill="url(#gradient0)" fill-rule="evenodd" stroke="none"/>
    <path d="M62.95 27.6 Q62.95 35.8 57.55 41.5 52.1 47.3 44.45 47.3 36.8 47.3 31.4 41.5 26.0 35.8 26.0 27.6 26.0 19.5 31.4 13.75 36.8 8.0 44.45 8.0 52.1 8.0 57.55 13.75 62.95 19.5 62.95 27.6 Z" fill="none" stroke="#572312" stroke-linecap="butt" stroke-linejoin="miter-clip" stroke-miterlimit="4.0" stroke-width="1.5"/>
    <path d="M27.5 27.6 Q27.5 23.45 29.15 19.75 30.8 16.15 33.65 13.65 31.25 17.9 31.25 22.9 31.25 30.4 36.25 35.7 41.2 41.05 48.25 41.05 54.3 41.05 59.05 36.85 56.8 40.9 53.0 43.3 49.05 45.75 44.45 45.75 37.45 45.75 32.45 40.45 27.5 35.1 27.5 27.6" fill="#000000" fill-opacity="0.101960786" fill-rule="evenodd" stroke="none"/>
    <path d="M56.25 16.15 Q57.9 18.65 57.5 21.4 57.1 24.15 54.95 25.55 52.8 26.95 50.15 26.2 47.5 25.45 45.85 23.0 44.2 20.5 44.6 17.75 45.0 15.0 47.15 13.6 49.3 12.2 51.95 12.95 54.6 13.7 56.25 16.15" fill="#ffffff" fill-opacity="0.14901961" fill-rule="evenodd" stroke="none"/>
    <path d="M58.15 28.1 Q58.6 28.8 58.45 29.6 58.3 30.45 57.55 30.9 56.85 31.35 56.05 31.2 55.2 31.05 54.8 30.35 54.3 29.6 54.5 28.8 54.65 28.0 55.35 27.55 56.1 27.05 56.9 27.25 57.7 27.4 58.15 28.1" fill="#ffffff" fill-opacity="0.14901961" fill-rule="evenodd" stroke="none"/>
    <path d="M18.4 58.9 L21.5 53.0 24.65 58.9 18.4 58.9" fill="#4962b0" fill-rule="evenodd" stroke="none"/>
    <path d="M18.4 58.9 L24.65 58.9 21.5 53.0 18.4 58.9 Z" fill="none" stroke="#232f57" stroke-linecap="butt" stroke-linejoin="miter-clip" stroke-miterlimit="4.0" stroke-width="1.5"/>
    <path d="M41.0 34.15 Q41.0 42.75 35.3 48.8 29.6 54.9 21.5 54.9 13.45 54.9 7.75 48.8 2.05 42.75 2.05 34.15 2.05 25.6 7.75 19.55 13.45 13.45 21.5 13.45 29.6 13.45 35.3 19.55 41.0 25.6 41.0 34.15" fill="url(#gradient1)" fill-rule="evenodd" stroke="none"/>
    <path d="M41.0 34.15 Q41.0 42.75 35.3 48.8 29.6 54.9 21.5 54.9 13.45 54.9 7.75 48.8 2.05 42.75 2.05 34.15 2.05 25.6 7.75 19.55 13.45 13.45 21.5 13.45 29.6 13.45 35.3 19.55 41.0 25.6 41.0 34.15 Z" fill="none" stroke="#232f57" stroke-linecap="butt" stroke-linejoin="miter-clip" stroke-miterlimit="4.0" stroke-width="1.5"/>
    <path d="M3.6 34.1 Q3.6 29.75 5.35 25.85 7.05 22.05 10.1 19.4 7.6 23.9 7.6 29.15 7.6 37.05 12.8 42.65 18.05 48.25 25.45 48.25 31.85 48.25 36.9 43.85 34.5 48.15 30.5 50.65 26.3 53.25 21.5 53.25 14.1 53.25 8.85 47.65 3.6 42.0 3.6 34.1" fill="#000000" fill-opacity="0.101960786" fill-rule="evenodd" stroke="none"/>
    <path d="M34.0 22.05 Q35.7 24.65 35.3 27.55 34.9 30.45 32.6 31.95 30.35 33.45 27.55 32.6 24.75 31.85 23.0 29.25 21.3 26.65 21.7 23.7 22.1 20.85 24.4 19.35 26.65 17.85 29.45 18.65 32.25 19.45 34.0 22.05" fill="#ffffff" fill-opacity="0.14901961" fill-rule="evenodd" stroke="none"/>
    <path d="M36.0 34.7 Q36.45 35.45 36.25 36.3 36.1 37.15 35.35 37.65 34.6 38.15 33.7 37.95 32.85 37.8 32.4 37.05 31.9 36.3 32.1 35.45 32.25 34.6 33.0 34.1 33.75 33.6 34.65 33.8 35.5 33.95 36.0 34.7" fill="#ffffff" fill-opacity="0.14901961" fill-rule="evenodd" stroke="none"/>
  </g>
  <defs>
    <radialGradient cx="0" cy="0" gradientTransform="matrix(0.0379, 0.0, 0.0, -0.0379, 51.7, 18.1)" gradientUnits="userSpaceOnUse" id="gradient0" r="819.2" spreadMethod="pad">
      <stop offset="0.0" stop-color="#ff7e57"/>
      <stop offset="1.0" stop-color="#c24e2a"/>
    </radialGradient>
    <radialGradient cx="0" cy="0" gradientTransform="matrix(0.04, 0.0, 0.0, -0.04, 29.2, 24.15)" gradientUnits="userSpaceOnUse" id="gradient1" r="819.2" spreadMethod="pad">
      <stop offset="0.0" stop-color="#809fff"/>
      <stop offset="1.0" stop-color="#506bc2"/>
    </radialGradient>
  </defs>
</svg>
