<?xml version="1.0" encoding="UTF-8" standalone="no"?>
<svg xmlns:ffdec="https://www.free-decompiler.com/flash" xmlns:xlink="http://www.w3.org/1999/xlink" ffdec:objectType="shape" height="498.0px" width="498.0px" xmlns="http://www.w3.org/2000/svg">
  <g transform="matrix(1.0, 0.0, 0.0, 1.0, 224.15, 224.15)">
    <path d="M200.35 -151.15 Q273.35 -78.15 273.35 24.85 273.35 127.85 200.35 200.35 127.85 273.35 24.85 273.35 -78.15 273.35 -151.15 200.35 -223.65 127.85 -223.65 24.85 -223.65 -78.15 -151.15 -151.15 -78.15 -223.65 24.85 -223.65 127.85 -223.65 200.35 -151.15" fill="#ff0000" fill-opacity="0.5019608" fill-rule="evenodd" stroke="none"/>
    <path d="M200.35 -151.15 Q273.35 -78.15 273.35 24.85 273.35 127.85 200.35 200.35 127.85 273.35 24.85 273.35 -78.15 273.35 -151.15 200.35 -223.65 127.85 -223.65 24.85 -223.65 -78.15 -151.15 -151.15 -78.15 -223.65 24.85 -223.65 127.85 -223.65 200.35 -151.15 Z" fill="none" stroke="#ffffff" stroke-linecap="round" stroke-linejoin="round" stroke-width="1.0"/>
  </g>
</svg>
