<?xml version="1.0" encoding="UTF-8" standalone="no"?>
<svg xmlns:ffdec="https://www.free-decompiler.com/flash" xmlns:xlink="http://www.w3.org/1999/xlink" ffdec:objectType="shape" height="81.6px" width="120.05px" xmlns="http://www.w3.org/2000/svg">
  <g transform="matrix(1.0, 0.0, 0.0, 1.0, 0.0, 0.0)">
    <path d="M120.05 7.7 L120.05 73.95 Q120.05 77.1 117.8 79.35 115.55 81.6 112.35 81.6 L7.7 81.6 Q4.5 81.6 2.25 79.35 0.0 77.1 0.0 73.95 L0.0 7.7 Q0.0 4.5 2.25 2.25 4.5 0.0 7.7 0.0 L112.35 0.0 Q115.55 0.0 117.8 2.25 120.05 4.5 120.05 7.7" fill="#f35561" fill-rule="evenodd" stroke="none"/>
    <path d="M86.05 11.55 Q85.55 9.8 86.0 8.05 86.45 6.25 87.75 4.95 89.75 2.95 92.55 2.95 95.3 2.95 97.3 4.95 99.25 6.9 99.25 9.7 99.25 12.45 97.3 14.5 95.25 16.45 92.55 16.45 L90.65 16.2 90.4 16.1 89.45 17.05 89.75 17.4 Q90.7 18.4 90.85 19.6 L90.75 20.65 90.65 20.85 90.75 21.05 91.15 22.3 Q91.25 23.65 90.4 24.55 89.2 25.85 86.6 25.85 L85.7 25.85 86.0 26.55 Q86.7 28.25 87.5 31.8 L87.55 32.1 92.4 33.25 92.2 35.45 92.6 35.55 Q93.3 35.8 93.75 36.55 L93.9 36.95 94.05 38.15 94.0 39.0 94.0 39.1 93.8 40.7 93.25 43.0 92.95 42.95 92.7 43.95 92.95 44.0 92.4 45.5 Q91.5 47.5 90.1 47.5 L89.85 47.5 89.5 47.4 88.95 47.8 89.0 48.15 89.15 49.4 89.1 49.75 89.1 49.95 89.25 50.1 90.1 51.3 90.3 51.75 91.65 51.05 96.8 53.45 Q97.9 53.95 98.85 55.0 99.85 56.0 100.25 57.1 L102.6 63.1 98.4 73.0 Q97.95 74.05 97.0 74.7 96.1 75.3 94.95 75.3 L93.35 74.95 91.85 74.25 90.8 76.55 Q90.35 77.55 89.4 78.15 88.5 78.75 87.35 78.75 L85.75 78.4 80.75 76.1 77.6 68.0 79.15 64.35 79.0 64.1 Q77.7 62.1 77.7 59.7 L77.8 58.55 77.85 58.4 77.75 58.2 Q76.7 56.6 76.65 54.9 L76.6 54.35 75.15 54.55 60.05 55.15 50.6 54.95 43.45 54.35 43.4 54.9 Q43.35 56.6 42.35 58.25 L42.2 58.4 42.3 58.75 42.35 59.7 Q42.35 62.1 41.05 64.1 L40.9 64.35 42.45 68.0 39.3 76.1 34.3 78.4 32.7 78.75 Q31.55 78.75 30.65 78.15 29.7 77.55 29.25 76.55 L28.2 74.25 26.7 74.95 25.1 75.3 Q24.0 75.3 23.05 74.7 22.1 74.05 21.65 73.0 L17.5 63.1 19.8 57.1 Q20.2 56.0 21.2 55.0 22.15 53.95 23.25 53.45 L28.4 51.05 29.75 51.7 29.95 51.3 30.8 50.1 30.95 49.95 30.95 49.75 30.9 49.4 Q30.9 48.75 31.05 48.15 L31.1 47.8 30.55 47.4 30.2 47.5 29.95 47.5 Q28.55 47.5 27.65 45.5 L27.1 44.05 26.25 40.7 26.05 39.05 26.05 38.9 26.0 38.3 26.0 38.15 Q26.0 37.55 26.15 37.0 L26.15 36.9 26.3 36.55 Q26.75 35.8 27.45 35.55 L27.85 35.45 27.65 33.25 32.5 32.1 32.55 31.8 Q33.4 28.25 34.05 26.55 L34.35 25.85 33.45 25.85 Q30.9 25.85 29.65 24.55 28.8 23.65 28.9 22.3 28.95 21.7 29.3 21.05 L29.4 20.85 29.3 20.65 29.2 19.6 Q29.35 18.5 30.05 17.7 L30.35 17.35 29.1 16.1 28.8 16.2 26.95 16.45 Q24.15 16.45 22.2 14.5 20.2 12.5 20.2 9.7 20.2 6.85 22.2 4.95 24.1 2.95 26.95 2.95 29.8 2.95 31.7 4.95 33.0 6.25 33.45 8.05 33.95 9.8 33.4 11.55 L33.35 11.85 35.9 14.4 36.15 14.35 38.25 14.15 Q40.2 14.15 41.2 15.0 L41.55 15.25 42.3 14.5 Q44.8 12.3 48.05 10.05 L51.0 8.25 53.3 7.25 Q58.05 5.45 60.0 5.45 61.6 5.45 64.65 6.5 67.15 7.35 68.95 8.25 L69.6 8.55 Q73.6 10.75 77.75 14.5 L78.5 15.25 78.85 15.0 Q79.85 14.15 81.8 14.15 L83.4 14.3 83.65 14.3 86.15 11.85 86.05 11.55" fill="#232c3f" fill-rule="evenodd" stroke="none"/>
    <path d="M43.4 49.4 Q43.4 51.55 41.85 53.05 40.25 54.55 38.05 54.55 35.85 54.55 34.3 53.05 32.75 51.55 32.75 49.4 32.75 47.3 34.3 45.8 35.85 44.3 38.05 44.3 40.25 44.3 41.85 45.8 43.4 47.3 43.4 49.4" fill="#232c3f" fill-rule="evenodd" stroke="none"/>
    <path d="M41.6 54.55 Q41.6 56.7 40.05 58.2 38.45 59.7 36.25 59.7 34.05 59.7 32.5 58.2 30.95 56.7 30.95 54.55 30.95 52.4 32.5 50.9 34.05 49.4 36.25 49.4 38.45 49.4 40.05 50.9 41.6 52.4 41.6 54.55" fill="#f35561" fill-rule="evenodd" stroke="none"/>
    <path d="M33.9 57.5 Q33.9 55.35 35.45 53.9 37.05 52.4 39.25 52.4 L41.25 52.75 41.6 54.55 Q41.6 56.7 40.05 58.2 38.45 59.7 36.25 59.7 L34.25 59.3 Q33.9 58.35 33.9 57.5" fill="#232c3f" fill-rule="evenodd" stroke="none"/>
    <path d="M40.5 59.7 Q40.5 62.45 38.5 64.35 36.5 66.3 33.65 66.3 30.8 66.3 28.8 64.35 26.8 62.45 26.8 59.7 26.8 56.95 28.8 55.05 30.8 53.1 33.65 53.1 36.5 53.1 38.5 55.05 40.5 56.95 40.5 59.7" fill="#232c3f" fill-rule="evenodd" stroke="none"/>
    <path d="M40.5 59.7 Q40.5 62.45 38.5 64.35 36.5 66.3 33.65 66.3 30.8 66.3 28.8 64.35 26.8 62.45 26.8 59.7 26.8 56.95 28.8 55.05 30.8 53.1 33.65 53.1 36.5 53.1 38.5 55.05 40.5 56.95 40.5 59.7" fill="#232c3f" fill-rule="evenodd" stroke="none"/>
    <path d="M40.5 59.7 Q40.5 62.45 38.5 64.35 36.5 66.3 33.65 66.3 30.8 66.3 28.8 64.35 26.8 62.45 26.8 59.7 26.8 56.95 28.8 55.05 30.8 53.1 33.65 53.1 36.5 53.1 38.5 55.05 40.5 56.95 40.5 59.7" fill="#f35561" fill-rule="evenodd" stroke="none"/>
    <path d="M29.75 62.65 Q29.75 59.9 31.75 58.0 33.75 56.05 36.6 56.05 38.4 56.05 39.8 56.8 40.5 58.2 40.5 59.7 40.5 62.45 38.5 64.35 36.5 66.3 33.65 66.3 31.9 66.3 30.45 65.55 29.75 64.25 29.75 62.65" fill="#232c3f" fill-rule="evenodd" stroke="none"/>
  </g>
</svg>
