<?xml version="1.0" encoding="UTF-8" standalone="no"?>
<svg xmlns:ffdec="https://www.free-decompiler.com/flash" xmlns:xlink="http://www.w3.org/1999/xlink" ffdec:objectType="shape" height="7.8px" width="6.45px" xmlns="http://www.w3.org/2000/svg">
  <g transform="matrix(1.0, 0.0, 0.0, 1.0, 0.0, 0.0)">
    <path d="M6.45 6.8 L2.15 7.8 Q1.9 7.9 1.45 6.9 0.95 5.75 0.55 4.05 L4.85 3.05 Q5.25 4.75 5.75 5.9 6.15 6.85 6.45 6.8" fill="#232c3f" fill-rule="evenodd" stroke="none"/>
    <path d="M4.85 3.05 L0.55 4.05 0.35 3.1 4.65 2.1 4.85 3.05" fill="#f35561" fill-rule="evenodd" stroke="none"/>
    <path d="M4.65 2.1 L0.35 3.1 0.2 2.5 4.55 1.5 4.65 2.1" fill="#f35561" fill-rule="evenodd" stroke="none"/>
    <path d="M4.55 1.5 L0.2 2.5 0.0 1.0 4.3 0.0 4.55 1.5" fill="#ffffff" fill-rule="evenodd" stroke="none"/>
  </g>
</svg>
