<?xml version="1.0" encoding="UTF-8" standalone="no"?>
<svg xmlns:ffdec="https://www.free-decompiler.com/flash" xmlns:xlink="http://www.w3.org/1999/xlink" ffdec:objectType="shape" height="23.85px" width="21.0px" xmlns="http://www.w3.org/2000/svg">
  <g transform="matrix(1.0, 0.0, 0.0, 1.0, -19.45, -53.1)">
    <path d="M36.95 66.15 L30.8 69.0 28.35 63.2 34.5 60.35 36.95 66.15" fill="#ffffff" fill-rule="evenodd" stroke="none"/>
    <path d="M34.5 60.35 L28.35 63.2 24.45 61.15 30.6 58.35 34.5 60.35" fill="#f35561" fill-rule="evenodd" stroke="none"/>
    <path d="M35.6 69.7 L29.4 72.55 30.8 69.0 36.95 66.15 35.6 69.7" fill="#ffffff" fill-rule="evenodd" stroke="none"/>
    <path d="M33.5 76.75 L32.0 76.8 Q31.25 76.55 30.9 75.8 L29.4 72.55 35.6 69.7 37.9 74.75 33.5 76.75" fill="#f35561" fill-rule="evenodd" stroke="none"/>
    <path d="M19.45 63.1 L21.5 57.75 Q21.8 57.0 22.55 56.2 L24.0 55.1 28.35 53.1 25.6 60.25 19.45 63.1" fill="#ffffff" fill-rule="evenodd" stroke="none"/>
    <path d="M25.9 73.3 L24.45 73.35 Q23.7 73.05 23.35 72.3 L19.45 63.1 25.6 60.25 30.3 71.3 25.9 73.3" fill="#f35561" fill-rule="evenodd" stroke="none"/>
    <path d="M28.35 53.1 L35.8 56.95 40.45 68.0 37.9 74.75 35.6 69.7 36.95 66.15 34.5 60.35 30.6 58.35 29.15 62.1 31.6 67.85 30.3 71.3 25.6 60.25 28.35 53.1" fill="#232c3f" fill-rule="evenodd" stroke="none"/>
  </g>
</svg>
