<?xml version="1.0" encoding="UTF-8" standalone="no"?>
<svg xmlns:ffdec="https://www.free-decompiler.com/flash" xmlns:xlink="http://www.w3.org/1999/xlink" ffdec:objectType="shape" height="50.35px" width="62.5px" xmlns="http://www.w3.org/2000/svg">
  <g transform="matrix(1.0, 0.0, 0.0, 1.0, -30.75, -15.95)">
    <path d="M36.8 18.15 L40.8 17.85 Q42.4 18.2 42.3 19.35 42.2 20.5 40.4 21.75 38.65 23.0 36.25 23.65 L32.25 23.95 Q30.65 23.6 30.75 22.45 30.85 21.35 32.65 20.1 34.4 18.85 36.8 18.15" fill="#232c3f" fill-rule="evenodd" stroke="none"/>
    <path d="M40.4 16.85 L41.2 19.15 41.25 19.55 Q41.2 20.5 39.75 21.5 38.3 22.5 36.35 23.05 L33.4 23.35 Q32.15 23.2 31.9 22.5 L31.1 20.2 Q31.35 20.9 32.6 21.05 L35.55 20.75 Q37.45 20.2 38.9 19.2 40.35 18.2 40.45 17.25 L40.4 16.85" fill="#232c3f" fill-rule="evenodd" stroke="none"/>
    <path d="M35.95 16.3 L39.2 16.05 Q40.55 16.35 40.45 17.25 40.35 18.2 38.9 19.2 37.45 20.2 35.55 20.75 L32.3 21.0 Q31.0 20.7 31.05 19.8 31.15 18.85 32.55 17.85 34.0 16.85 35.95 16.3" fill="#f35561" fill-rule="evenodd" stroke="none"/>
    <path d="M85.75 45.8 Q87.3 47.3 87.3 49.4 87.3 51.55 85.75 53.05 84.2 54.55 82.0 54.55 79.8 54.55 78.2 53.05 76.65 51.55 76.65 49.4 76.65 47.3 78.2 45.8 79.8 44.3 82.0 44.3 84.2 44.3 85.75 45.8" fill="#232c3f" fill-rule="evenodd" stroke="none"/>
    <path d="M87.55 50.9 Q89.1 52.4 89.1 54.55 89.1 56.7 87.55 58.2 86.0 59.7 83.8 59.7 81.6 59.7 80.0 58.2 78.45 56.7 78.45 54.55 78.45 52.4 80.0 50.9 81.6 49.4 83.8 49.4 86.0 49.4 87.55 50.9" fill="#232c3f" fill-rule="evenodd" stroke="none"/>
    <path d="M86.4 53.1 Q89.25 53.1 91.25 55.05 93.25 56.95 93.25 59.7 93.25 62.45 91.25 64.35 89.25 66.3 86.4 66.3 83.55 66.3 81.55 64.35 79.55 62.45 79.55 59.7 79.55 56.95 81.55 55.05 83.55 53.1 86.4 53.1" fill="#232c3f" fill-rule="evenodd" stroke="none"/>
  </g>
</svg>
