<?xml version="1.0" encoding="UTF-8" standalone="no"?>
<svg xmlns:ffdec="https://www.free-decompiler.com/flash" xmlns:xlink="http://www.w3.org/1999/xlink" ffdec:objectType="shape" height="23.85px" width="21.0px" xmlns="http://www.w3.org/2000/svg">
  <g transform="matrix(1.0, 0.0, 0.0, 1.0, -79.6, -53.1)">
    <path d="M85.55 60.35 L91.7 63.2 89.25 69.0 83.1 66.15 85.55 60.35" fill="#232c3f" fill-rule="evenodd" stroke="none"/>
    <path d="M85.55 60.35 L89.45 58.35 95.6 61.15 91.7 63.2 85.55 60.35" fill="#232c3f" fill-rule="evenodd" stroke="none"/>
    <path d="M89.25 69.0 L90.65 72.55 84.5 69.7 83.1 66.15 89.25 69.0" fill="#f35561" fill-rule="evenodd" stroke="none"/>
    <path d="M90.65 72.55 L89.15 75.8 Q88.8 76.55 88.05 76.8 L86.55 76.75 82.2 74.75 84.5 69.7 90.65 72.55" fill="#232c3f" fill-rule="evenodd" stroke="none"/>
    <path d="M100.6 63.1 L94.45 60.25 91.7 53.1 96.05 55.1 97.55 56.2 Q98.25 57.0 98.55 57.75 L100.6 63.1" fill="#232c3f" fill-rule="evenodd" stroke="none"/>
    <path d="M94.15 73.3 L89.75 71.3 94.45 60.25 100.6 63.1 96.7 72.3 Q96.35 73.05 95.6 73.35 L94.15 73.3" fill="#232c3f" fill-rule="evenodd" stroke="none"/>
    <path d="M91.7 53.1 L94.45 60.25 89.75 71.3 88.45 67.85 90.9 62.1 89.45 58.35 85.55 60.35 83.1 66.15 84.5 69.7 82.2 74.75 79.6 68.0 84.25 56.95 91.7 53.1" fill="#ffffff" fill-rule="evenodd" stroke="none"/>
  </g>
</svg>
