<?xml version="1.0" encoding="UTF-8" standalone="no"?>
<svg xmlns:ffdec="https://www.free-decompiler.com/flash" xmlns:xlink="http://www.w3.org/1999/xlink" ffdec:objectType="shape" height="48.55px" width="75.4px" xmlns="http://www.w3.org/2000/svg">
  <g transform="matrix(1.0, 0.0, 0.0, 1.0, -22.05, -4.8)">
    <path d="M86.75 38.45 L86.3 42.4 Q85.8 44.95 85.2 46.2 84.05 48.5 81.45 50.35 78.45 52.45 75.0 52.75 L60.05 53.35 60.0 53.35 45.05 52.75 Q41.6 52.45 38.6 50.35 36.0 48.5 34.85 46.2 34.25 44.95 33.75 42.4 33.3 40.0 33.35 38.45 L33.65 35.85 33.95 34.05 34.65 30.95 Q35.45 27.6 36.25 26.2 40.5 18.65 43.5 15.85 47.55 12.25 51.35 10.15 52.95 9.25 55.75 8.3 58.75 7.25 60.0 7.25 L60.05 7.25 Q61.3 7.25 64.3 8.3 67.1 9.25 68.7 10.15 72.5 12.25 76.55 15.85 79.55 18.65 83.8 26.2 85.05 28.4 86.1 34.05 L86.75 38.45" fill="#f35561" fill-rule="evenodd" stroke="none"/>
    <path d="M50.65 13.7 L50.05 28.5 Q49.8 36.8 50.1 43.3 L50.7 52.5 45.05 52.15 Q42.25 51.85 39.85 50.5 40.15 40.4 43.45 27.15 45.4 19.25 47.8 12.45 L51.3 10.2 Q50.75 11.75 50.65 13.7" fill="#ffffff" fill-rule="evenodd" stroke="none"/>
    <path d="M86.75 38.45 L86.3 42.4 Q85.8 44.95 85.2 46.2 84.05 48.5 81.45 50.35 78.45 52.45 75.0 52.75 L60.0 53.35 45.05 52.75 Q41.6 52.45 38.6 50.35 36.0 48.5 34.85 46.2 34.25 44.95 33.75 42.4 33.3 40.0 33.35 38.45 L33.65 35.85 34.3 32.4 Q34.6 33.95 35.5 33.95 37.2 33.95 40.0 31.1 45.05 28.25 57.9 28.05 58.75 28.0 59.3 27.45 59.9 26.85 59.9 26.05 L59.9 20.4 64.5 21.0 Q69.2 21.7 69.85 22.35 69.5 20.0 68.6 19.75 64.6 18.5 58.8 18.25 47.15 17.75 38.2 22.9 L40.4 19.6 Q43.25 18.35 46.9 17.45 52.6 16.1 58.05 16.35 58.9 16.4 59.45 15.9 60.05 15.4 60.0 14.65 L60.0 12.8 62.55 13.0 Q65.55 13.35 67.8 14.15 67.5 11.85 66.85 11.55 64.7 10.9 61.4 10.6 54.8 9.95 49.15 11.55 L51.35 10.15 Q52.55 9.5 54.0 8.95 60.1 7.9 67.6 9.6 L68.7 10.15 Q72.5 12.25 76.55 15.85 79.55 18.65 83.8 26.2 85.05 28.4 86.1 34.05 L86.75 38.45" fill="#232c3f" fill-rule="evenodd" stroke="none"/>
    <path d="M73.45 48.05 L63.0 48.05 63.0 37.55 73.45 37.55 73.45 48.05" fill="#ffffff" fill-rule="evenodd" stroke="none"/>
    <path d="M69.5 44.95 L65.15 44.95 65.15 40.65 69.5 40.65 69.5 44.95" fill="#232c3f" fill-rule="evenodd" stroke="none"/>
    <path d="M87.4 20.1 Q89.2 21.35 89.3 22.45 89.4 23.6 87.8 23.95 L83.8 23.65 Q81.4 23.0 79.65 21.75 77.85 20.5 77.75 19.35 77.65 18.2 79.25 17.85 L83.25 18.15 Q85.65 18.85 87.4 20.1" fill="#232c3f" fill-rule="evenodd" stroke="none"/>
    <path d="M87.5 21.05 Q88.65 20.9 88.95 20.3 L88.15 22.5 Q87.9 23.2 86.65 23.35 L83.7 23.05 Q81.75 22.5 80.3 21.5 78.9 20.5 78.8 19.55 L78.85 19.15 79.65 16.85 79.6 17.25 Q79.7 18.2 81.15 19.2 82.6 20.2 84.5 20.75 L87.5 21.05" fill="#232c3f" fill-rule="evenodd" stroke="none"/>
    <path d="M87.5 17.85 Q88.95 18.85 89.0 19.8 89.1 20.7 87.75 21.0 L84.5 20.75 Q82.6 20.2 81.15 19.2 79.7 18.2 79.6 17.25 79.55 16.35 80.85 16.05 L84.1 16.3 Q86.05 16.85 87.5 17.85" fill="#f35561" fill-rule="evenodd" stroke="none"/>
    <path d="M45.15 32.35 Q43.3 32.7 41.45 33.85 39.65 34.95 38.55 36.3 37.25 37.9 36.95 39.6 36.65 41.25 37.05 44.65 37.3 46.9 39.6 48.8 41.85 50.6 44.7 51.1 L59.95 51.8 66.35 51.7 75.35 51.1 Q78.2 50.6 80.45 48.8 82.75 46.9 83.0 44.65 83.4 41.25 83.1 39.6 82.8 37.9 81.5 36.3 80.4 34.95 78.6 33.85 76.75 32.7 74.9 32.35 L68.4 31.2 60.05 30.75 51.7 31.2 45.15 32.35 Z" fill="none" stroke="#f65662" stroke-linecap="butt" stroke-linejoin="miter-clip" stroke-miterlimit="10.0" stroke-width="1.0"/>
    <path d="M46.6 48.05 L46.6 37.55 57.05 37.55 57.05 48.05 46.6 48.05" fill="#ffffff" fill-rule="evenodd" stroke="none"/>
    <path d="M50.55 44.95 L50.55 40.65 54.9 40.65 54.9 44.95 50.55 44.95" fill="#232c3f" fill-rule="evenodd" stroke="none"/>
    <path d="M36.85 18.0 L35.2 19.65 26.1 10.55 27.75 8.9 36.85 18.0" fill="#232c3f" fill-rule="evenodd" stroke="none"/>
    <path d="M30.4 6.25 Q31.85 7.7 31.85 9.7 31.85 11.75 30.4 13.2 29.0 14.65 26.95 14.65 24.9 14.65 23.45 13.2 22.05 11.75 22.05 9.7 22.05 7.7 23.45 6.25 24.9 4.8 26.95 4.8 29.0 4.8 30.4 6.25" fill="#ffffff" fill-rule="evenodd" stroke="none"/>
    <path d="M91.7 8.9 L93.35 10.55 84.25 19.65 82.6 18.0 91.7 8.9" fill="#232c3f" fill-rule="evenodd" stroke="none"/>
    <path d="M89.05 6.25 Q90.5 4.8 92.55 4.8 94.6 4.8 96.0 6.25 97.45 7.7 97.45 9.7 97.45 11.75 96.0 13.2 94.6 14.65 92.55 14.65 90.5 14.65 89.05 13.2 87.65 11.75 87.65 9.7 87.65 7.7 89.05 6.25" fill="#ffffff" fill-rule="evenodd" stroke="none"/>
  </g>
</svg>
