<?xml version="1.0" encoding="UTF-8" standalone="no"?>
<svg xmlns:ffdec="https://www.free-decompiler.com/flash" xmlns:xlink="http://www.w3.org/1999/xlink" ffdec:objectType="shape" height="86.5px" width="126.5px" xmlns="http://www.w3.org/2000/svg">
  <g transform="matrix(1.0, 0.0, 0.0, 1.0, 63.25, 43.25)">
    <path d="M62.5 -34.5 L62.5 34.5 Q62.5 37.85 60.15 40.15 57.85 42.5 54.5 42.5 L-54.5 42.5 Q-57.8 42.5 -60.15 40.15 -62.5 37.85 -62.5 34.5 L-62.5 -34.5 Q-62.5 -37.8 -60.15 -40.15 -57.8 -42.5 -54.5 -42.5 L54.5 -42.5 Q57.85 -42.5 60.15 -40.15 62.5 -37.8 62.5 -34.5 Z" fill="none" stroke="#254da7" stroke-linecap="butt" stroke-linejoin="miter-clip" stroke-miterlimit="4.0" stroke-width="1.5"/>
    <path d="M60.5 -34.5 L60.5 34.5 Q60.5 37.0 58.75 38.75 57.0 40.5 54.5 40.5 L-54.5 40.5 Q-57.0 40.5 -58.75 38.75 -60.5 37.0 -60.5 34.5 L-60.5 -34.5 Q-60.5 -36.95 -58.75 -38.75 -56.95 -40.5 -54.5 -40.5 L54.5 -40.5 Q57.0 -40.5 58.75 -38.75 60.5 -37.0 60.5 -34.5 Z" fill="none" stroke="#ffffff" stroke-linecap="butt" stroke-linejoin="miter-clip" stroke-miterlimit="4.0" stroke-opacity="0.2" stroke-width="2.0"/>
    <path d="M61.0 -26.0 Q56.35 -22.9 46.4 -19.8 26.45 -13.65 -0.25 -13.65 -26.9 -13.65 -46.6 -19.8 -56.45 -22.9 -61.0 -26.0 L-61.0 -34.5 Q-61.0 -37.15 -59.1 -39.1 -57.15 -41.0 -54.5 -41.0 L54.5 -41.0 Q57.2 -41.0 59.1 -39.1 61.0 -37.15 61.0 -34.5 L61.0 -26.0" fill="url(#gradient0)" fill-rule="evenodd" stroke="none"/>
  </g>
  <defs>
    <linearGradient gradientTransform="matrix(0.0, 0.0245, 0.0245, 0.0, 0.0, -18.2)" gradientUnits="userSpaceOnUse" id="gradient0" spreadMethod="pad" x1="-819.2" x2="819.2">
      <stop offset="0.0" stop-color="#ffffff" stop-opacity="0.1764706"/>
      <stop offset="1.0" stop-color="#ffffff" stop-opacity="0.0"/>
    </linearGradient>
  </defs>
</svg>
