<?xml version="1.0" encoding="UTF-8" standalone="no"?>
<svg xmlns:ffdec="https://www.free-decompiler.com/flash" xmlns:xlink="http://www.w3.org/1999/xlink" ffdec:objectType="shape" height="80.5px" width="118.5px" xmlns="http://www.w3.org/2000/svg">
  <g transform="matrix(1.0, 0.0, 0.0, 1.0, 0.0, 0.0)">
    <path d="M7.9 0.0 L110.6 0.0 Q113.85 0.0 116.2 2.35 118.5 4.7 118.5 8.0 L118.5 72.5 Q118.5 75.8 116.2 78.15 113.85 80.5 110.6 80.5 L7.9 80.5 Q4.65 80.5 2.3 78.15 0.0 75.8 0.0 72.5 L0.0 8.0 Q0.0 4.7 2.3 2.35 4.65 0.0 7.9 0.0" fill="#c8a01d" fill-rule="evenodd" stroke="none"/>
    <path d="M9.25 44.95 Q9.65 45.05 9.65 45.4 L9.15 45.45 9.25 44.95" fill="#000000" fill-rule="evenodd" stroke="none"/>
    <path d="M8.2 49.55 L8.3 49.1 8.45 49.1 8.2 49.55" fill="#000000" fill-rule="evenodd" stroke="none"/>
    <path d="M8.55 48.1 L9.1 48.1 8.8 48.6 8.5 48.2 8.55 48.1" fill="#000000" fill-rule="evenodd" stroke="none"/>
    <path d="M15.4 35.1 L16.25 35.45 15.75 36.35 Q14.95 36.2 15.05 35.8 L15.4 35.1" fill="#000000" fill-rule="evenodd" stroke="none"/>
    <path d="M18.95 29.45 L19.0 29.45 19.15 29.3 19.8 28.9 19.6 29.25 Q19.45 29.45 19.6 29.55 L17.5 33.25 17.2 33.15 16.9 33.75 Q16.6 34.2 16.85 34.4 L16.65 34.75 15.8 34.85 16.5 34.95 16.4 35.15 15.4 34.85 15.05 34.35 14.15 35.05 Q13.6 35.45 13.6 35.7 L14.35 36.0 Q14.65 36.3 14.0 36.25 14.0 36.5 15.6 36.6 L13.9 39.75 Q13.1 39.7 13.0 39.95 12.9 40.25 12.2 40.2 L12.8 40.55 13.25 40.95 11.1 40.95 11.8 41.2 Q12.45 41.25 12.2 41.45 L10.4 41.4 12.55 41.9 12.6 41.75 12.9 41.65 12.15 43.1 Q11.8 43.1 11.3 43.4 L10.0 43.6 10.75 44.15 9.65 44.3 9.45 44.1 10.15 41.1 10.95 38.6 11.1 38.45 11.0 38.45 11.35 37.65 11.65 37.7 Q11.5 37.6 11.9 37.45 12.3 37.3 11.55 37.2 12.8 34.65 15.15 31.7 L18.95 29.45" fill="#000000" fill-rule="evenodd" stroke="none"/>
    <path d="M8.9 46.45 L9.0 46.15 9.65 46.1 Q9.65 46.25 10.2 46.35 L10.1 46.5 8.9 46.45" fill="#000000" fill-rule="evenodd" stroke="none"/>
    <path d="M17.2 68.4 L19.05 68.3 16.65 72.1 15.65 72.1 15.05 72.2 16.15 72.35 14.4 72.85 15.0 70.6 15.4 70.15 15.15 70.1 15.25 69.8 15.4 69.8 15.25 69.75 15.75 67.95 15.8 68.35 16.5 68.4 17.2 68.4" fill="#000000" fill-rule="evenodd" stroke="none"/>
    <path d="M19.8 57.9 Q19.8 58.55 20.8 58.3 20.4 58.65 20.4 59.05 L20.1 59.9 22.25 59.75 22.05 59.55 Q21.9 59.5 22.25 59.4 L21.2 59.3 Q23.05 58.55 21.9 57.85 L23.0 57.85 Q22.25 57.4 21.95 57.3 L20.45 56.9 Q19.75 57.25 19.8 57.9 M33.5 35.25 L34.5 35.15 35.65 34.75 25.75 55.5 23.7 55.45 Q22.9 55.7 23.3 56.5 23.55 57.05 23.0 56.9 22.8 57.6 24.4 57.85 L24.6 57.85 22.9 61.1 Q21.85 60.85 22.25 60.6 L21.7 60.75 20.8 60.6 Q21.35 60.8 20.95 61.0 20.35 61.2 20.45 61.4 L22.85 61.3 22.65 61.65 22.25 61.55 Q22.55 61.7 21.9 61.7 L21.2 61.8 Q21.6 61.9 20.8 62.1 L19.75 62.4 19.4 62.35 20.35 62.55 21.9 62.65 21.8 62.3 22.35 62.15 21.9 63.05 21.9 62.9 21.55 62.75 Q21.1 62.85 21.3 63.0 L21.55 63.25 21.8 63.25 20.45 65.8 18.65 65.85 Q18.85 66.2 18.65 66.45 L17.6 66.9 19.75 67.05 19.65 67.25 17.95 67.15 Q17.6 67.3 17.85 67.45 L18.65 67.65 18.05 67.95 Q17.8 68.2 17.2 68.25 L16.15 68.0 16.4 67.8 Q16.65 67.7 16.5 67.55 L15.8 67.65 16.6 64.75 16.75 64.35 17.95 64.4 18.95 63.8 Q19.45 63.4 18.3 63.25 L17.2 63.7 Q17.35 63.5 17.1 63.4 L17.25 63.0 17.6 62.95 18.15 62.95 19.0 63.0 Q18.95 62.6 17.5 62.45 19.85 56.65 22.85 50.45 23.5 50.6 23.85 51.15 24.15 51.7 24.5 51.7 L24.45 51.2 Q24.45 50.95 25.2 50.9 25.2 51.75 26.65 52.2 26.35 52.0 27.0 51.7 27.55 51.5 27.0 51.35 L27.0 51.5 26.65 51.6 Q26.05 51.3 26.3 50.95 26.5 50.55 25.95 50.4 L27.3 50.3 Q27.75 50.05 27.0 49.95 27.25 50.15 26.5 50.15 L25.2 50.15 Q24.8 50.25 25.05 50.55 25.25 50.75 24.65 50.8 26.9 46.2 31.0 39.55 L31.25 39.6 31.15 39.35 33.5 35.25" fill="#000000" fill-rule="evenodd" stroke="none"/>
    <path d="M14.7 73.5 L14.1 73.8 14.2 73.5 14.7 73.5" fill="#000000" fill-rule="evenodd" stroke="none"/>
    <path d="M32.85 32.3 L32.85 33.75 32.9 34.35 30.6 38.25 30.2 37.45 30.05 37.5 29.8 37.45 29.9 36.9 32.85 32.3" fill="#000000" fill-rule="evenodd" stroke="none"/>
    <path d="M25.4 56.2 L25.15 56.0 25.5 56.05 25.4 56.2" fill="#000000" fill-rule="evenodd" stroke="none"/>
    <path d="M29.8 39.0 L29.55 39.15 29.45 39.3 29.95 39.35 Q27.15 44.55 24.6 50.8 L24.5 50.85 24.55 50.55 Q24.6 50.4 24.15 50.4 L23.65 50.5 22.9 50.4 26.5 42.25 26.75 41.85 26.95 41.8 26.65 42.1 27.3 42.25 Q28.15 41.8 27.05 41.35 L28.75 38.7 29.1 38.7 Q29.0 38.9 29.8 39.0" fill="#000000" fill-rule="evenodd" stroke="none"/>
    <path d="M24.8 57.45 L24.8 57.1 24.95 57.1 24.8 57.45" fill="#000000" fill-rule="evenodd" stroke="none"/>
    <path d="M34.15 43.7 L35.0 43.7 34.8 44.8 33.8 44.4 Q34.75 44.1 34.15 43.7" fill="#000000" fill-rule="evenodd" stroke="none"/>
    <path d="M36.4 36.75 Q36.55 37.5 37.0 37.7 36.5 38.35 36.75 38.85 L36.55 39.3 36.3 39.3 35.75 39.6 36.3 39.75 36.4 39.75 36.25 40.0 35.95 39.85 35.6 39.9 35.2 40.0 Q35.9 40.1 35.6 40.5 L34.85 40.95 Q34.35 40.85 34.55 40.65 L34.85 40.25 34.0 40.4 Q35.35 37.05 36.5 34.95 36.3 35.95 36.4 36.75" fill="#000000" fill-rule="evenodd" stroke="none"/>
    <path d="M30.2 59.15 L30.35 59.35 30.55 59.5 29.6 59.4 29.6 59.3 30.2 59.15" fill="#000000" fill-rule="evenodd" stroke="none"/>
    <path d="M30.2 58.3 L29.75 58.25 29.75 58.0 30.2 58.3" fill="#000000" fill-rule="evenodd" stroke="none"/>
    <path d="M31.0 59.6 L29.9 60.8 29.5 60.7 29.6 59.75 31.0 59.6" fill="#000000" fill-rule="evenodd" stroke="none"/>
    <path d="M34.95 47.75 Q35.2 47.35 36.0 47.3 L33.6 55.15 Q33.05 57.3 31.5 59.05 L31.45 59.1 30.9 59.05 Q30.55 58.7 30.8 58.05 31.1 57.35 30.9 57.0 L31.7 57.15 Q32.05 57.2 32.0 57.0 L30.55 56.7 Q29.75 56.45 30.55 56.25 L31.25 56.4 31.3 55.65 Q31.3 55.15 30.9 55.05 L30.15 55.2 30.2 55.05 Q31.4 54.8 31.25 54.35 L30.3 54.3 30.35 54.15 Q31.05 53.75 30.55 52.95 L31.6 48.2 33.4 47.8 Q33.95 48.05 33.1 48.35 32.0 48.65 32.7 48.25 L31.7 48.5 Q31.5 48.75 32.35 48.75 L33.45 48.45 34.85 48.25 33.8 48.0 34.95 47.75" fill="#000000" fill-rule="evenodd" stroke="none"/>
    <path d="M38.35 38.1 L38.1 38.1 38.15 38.0 38.35 38.1" fill="#000000" fill-rule="evenodd" stroke="none"/>
    <path d="M34.4 41.45 Q33.8 41.3 34.5 41.2 L35.7 41.45 35.1 43.45 Q34.65 43.45 34.6 42.95 34.55 42.35 33.4 42.4 L33.3 43.7 Q33.25 44.35 32.7 44.75 L32.55 44.7 33.65 41.45 34.85 41.75 Q35.1 41.6 34.4 41.45" fill="#000000" fill-rule="evenodd" stroke="none"/>
    <path d="M33.05 46.45 Q33.85 46.25 32.25 45.75 L32.35 45.45 33.05 45.25 Q32.5 45.5 33.6 46.0 34.55 46.45 33.8 46.6 L33.05 46.45" fill="#000000" fill-rule="evenodd" stroke="none"/>
    <path d="M32.7 46.55 L32.0 46.6 32.05 46.35 32.7 46.55" fill="#000000" fill-rule="evenodd" stroke="none"/>
    <path d="M38.0 38.3 L39.0 38.15 40.4 37.85 36.55 45.8 35.6 45.95 36.4 46.15 36.35 46.3 35.6 46.45 Q35.8 46.25 35.5 46.15 L34.85 46.0 Q35.85 45.45 34.95 44.85 L36.5 41.45 37.75 41.3 37.0 40.45 37.4 39.6 38.1 39.75 Q38.5 39.5 38.35 39.2 L37.85 38.65 38.0 38.3" fill="#000000" fill-rule="evenodd" stroke="none"/>
    <path d="M40.2 46.85 L40.05 45.3 42.4 40.5 44.0 40.35 43.05 43.7 Q42.7 43.95 42.9 44.3 L40.8 51.95 38.45 51.75 38.7 52.1 38.45 52.35 39.55 52.2 39.4 52.4 39.2 52.55 40.6 52.75 39.15 57.95 37.95 55.0 37.25 52.35 Q36.85 50.25 37.0 48.75 L37.4 48.75 Q37.3 48.6 37.55 48.1 37.8 47.7 37.4 47.4 L38.95 47.35 38.8 48.7 39.0 48.0 39.55 48.25 Q40.25 47.7 40.2 46.85" fill="#000000" fill-rule="evenodd" stroke="none"/>
    <path d="M38.45 44.4 Q38.2 44.75 39.2 44.9 L37.9 45.55 40.1 40.55 41.4 37.95 Q40.85 39.1 41.5 40.1 40.3 42.35 39.6 44.5 L38.45 44.4" fill="#000000" fill-rule="evenodd" stroke="none"/>
    <path d="M46.4 43.9 L46.55 44.25 45.8 44.45 46.05 43.9 46.4 43.9" fill="#000000" fill-rule="evenodd" stroke="none"/>
    <path d="M45.4 49.9 Q45.45 49.6 46.0 49.45 L43.15 49.1 Q42.65 49.35 42.8 49.7 42.95 50.05 43.85 50.15 L44.2 50.05 44.6 50.05 Q44.3 50.15 44.55 50.3 L44.95 50.5 45.4 49.9 M43.7 45.05 L43.85 45.1 Q43.8 44.85 44.15 44.85 L45.05 45.05 44.45 47.9 44.2 47.9 Q44.55 47.7 44.05 47.6 L43.15 47.65 43.75 47.85 43.5 48.1 44.4 48.1 44.3 48.75 44.5 48.05 45.3 48.1 Q45.0 48.25 45.3 48.3 L46.5 48.45 45.6 54.15 45.55 53.65 44.6 53.5 Q45.35 53.65 44.7 54.05 43.95 54.5 44.2 54.7 L45.3 54.85 Q44.45 54.95 44.8 55.1 45.4 55.3 45.3 55.45 L43.85 55.35 44.65 56.15 45.15 56.8 45.1 57.3 44.95 57.5 44.65 57.25 Q44.45 57.15 44.6 57.0 L44.45 57.0 43.65 55.75 Q43.15 55.1 42.8 53.1 L42.5 50.25 43.7 45.05" fill="#000000" fill-rule="evenodd" stroke="none"/>
    <path d="M45.4 42.9 Q45.4 43.5 44.1 43.35 L44.85 40.2 44.9 41.25 Q45.05 42.45 45.4 42.9" fill="#000000" fill-rule="evenodd" stroke="none"/>
    <path d="M46.75 43.7 L46.1 43.8 46.15 43.65 46.75 43.7" fill="#000000" fill-rule="evenodd" stroke="none"/>
    <path d="M44.0 43.7 L44.25 43.9 43.95 44.05 44.0 43.7" fill="#000000" fill-rule="evenodd" stroke="none"/>
    <path d="M45.3 43.8 Q44.1 43.7 44.95 43.45 L45.45 43.5 45.4 43.75 45.3 43.8" fill="#000000" fill-rule="evenodd" stroke="none"/>
    <path d="M45.65 45.1 L45.55 45.05 45.8 44.5 47.15 44.4 46.6 47.75 45.65 47.65 Q46.15 47.65 46.0 47.8 L44.6 47.85 45.55 45.1 45.65 45.1" fill="#000000" fill-rule="evenodd" stroke="none"/>
    <path d="M44.95 44.15 Q44.85 44.0 45.35 43.9 L45.25 44.2 44.95 44.15" fill="#000000" fill-rule="evenodd" stroke="none"/>
    <path d="M52.25 46.7 L53.8 46.0 55.75 43.25 55.45 47.15 54.3 46.0 Q53.7 46.15 54.05 46.35 L54.65 46.6 53.2 46.6 53.05 47.05 53.95 47.2 Q53.2 46.85 54.65 46.7 52.9 47.65 54.65 48.4 L54.05 48.45 53.2 48.4 53.2 48.7 Q53.15 48.85 53.6 48.85 53.5 48.6 54.65 48.6 L54.75 48.95 Q54.7 49.2 55.2 49.3 L54.8 52.45 Q54.05 52.2 53.35 51.4 51.95 49.7 52.25 46.7" fill="#000000" fill-rule="evenodd" stroke="none"/>
    <path d="M47.6 47.85 L48.0 44.75 48.5 46.15 49.65 46.1 50.85 44.75 Q50.8 45.8 51.0 46.1 L51.75 46.45 50.95 49.2 50.3 53.2 Q49.35 52.75 48.55 50.95 L47.55 48.1 47.6 47.85" fill="#000000" fill-rule="evenodd" stroke="none"/>
    <path d="M14.7 42.75 L14.25 42.75 14.3 42.6 Q14.95 42.6 14.7 42.75" fill="#000000" fill-rule="evenodd" stroke="none"/>
    <path d="M20.1 41.2 Q19.85 41.05 20.55 41.05 L20.1 41.7 18.65 41.8 18.15 41.4 Q18.05 41.2 18.65 41.05 L20.1 41.2" fill="#000000" fill-rule="evenodd" stroke="none"/>
    <path d="M20.1 40.45 L21.35 39.95 20.7 40.9 18.65 40.85 Q19.2 40.75 18.8 40.6 L18.3 40.35 19.4 40.2 20.1 40.45" fill="#000000" fill-rule="evenodd" stroke="none"/>
    <path d="M21.45 33.35 Q22.0 31.55 20.75 30.4 23.75 26.5 25.9 25.4 25.3 26.8 25.6 27.75 22.6 31.55 21.45 33.35" fill="#000000" fill-rule="evenodd" stroke="none"/>
    <path d="M13.95 44.0 L14.05 43.6 Q14.25 43.25 15.05 43.1 14.2 43.5 14.35 43.85 L15.25 43.8 15.8 43.6 15.55 43.9 15.8 44.15 14.7 44.3 Q15.55 44.6 15.3 45.45 15.1 46.2 16.5 46.55 16.4 45.95 17.2 45.85 L17.25 45.85 13.2 51.7 Q12.95 48.25 13.5 45.75 14.75 45.85 14.7 45.5 14.0 44.5 13.95 44.0" fill="#000000" fill-rule="evenodd" stroke="none"/>
    <path d="M21.9 39.1 Q21.45 38.85 22.25 38.3 L22.45 38.35 21.9 39.1" fill="#000000" fill-rule="evenodd" stroke="none"/>
    <path d="M18.0 34.75 Q18.5 34.35 18.05 34.3 L19.95 31.45 Q20.75 31.8 20.65 32.45 L20.45 33.4 19.6 33.3 Q19.3 33.15 19.0 33.3 19.4 33.35 19.4 33.55 L20.4 33.55 20.8 33.55 20.3 33.9 Q20.05 34.05 20.95 34.1 L20.65 34.6 Q20.35 34.3 19.0 34.25 L18.85 35.1 Q18.75 35.4 19.75 35.45 19.4 35.7 19.3 36.25 19.25 36.75 18.65 36.9 L19.25 37.25 18.95 38.15 16.5 38.05 16.15 38.4 Q17.3 38.25 16.95 38.4 16.5 38.7 16.85 38.7 L17.8 38.65 18.65 38.65 Q17.75 38.6 18.9 38.3 L18.7 39.1 17.6 38.9 Q17.45 39.05 17.7 39.1 L17.95 39.3 16.95 39.35 16.15 39.25 Q15.95 39.5 16.5 39.85 15.7 39.9 15.0 40.3 L16.75 36.65 17.6 36.5 16.85 36.45 17.3 35.5 17.6 35.55 Q17.35 35.25 18.0 34.75" fill="#000000" fill-rule="evenodd" stroke="none"/>
    <path d="M16.15 45.65 L16.4 45.25 Q16.6 45.05 17.2 45.0 L17.65 45.2 17.35 45.7 16.15 45.65" fill="#000000" fill-rule="evenodd" stroke="none"/>
    <path d="M17.6 44.45 L17.25 44.2 17.2 43.85 18.7 43.7 18.2 44.45 17.6 44.45" fill="#000000" fill-rule="evenodd" stroke="none"/>
    <path d="M19.0 42.65 L19.45 42.65 19.4 42.75 19.0 42.65" fill="#000000" fill-rule="evenodd" stroke="none"/>
    <path d="M15.05 41.45 L14.6 41.55 14.75 40.9 Q15.55 40.8 15.4 40.6 16.05 40.65 16.15 40.95 L17.05 40.8 16.85 40.35 Q18.0 40.55 17.95 40.7 L17.4 40.8 Q17.8 41.0 17.6 41.1 L16.35 41.2 16.15 41.55 16.6 41.6 17.6 41.55 18.05 42.0 19.4 42.25 17.45 42.5 Q16.25 42.6 16.5 42.85 L15.4 42.0 Q15.6 41.85 16.0 42.0 L16.85 42.15 Q17.3 42.15 17.25 41.95 L17.2 41.65 15.9 41.8 Q14.9 41.7 15.05 41.45" fill="#000000" fill-rule="evenodd" stroke="none"/>
    <path d="M26.6 28.65 L29.5 28.45 24.25 35.75 Q23.05 35.75 24.05 35.95 L24.1 35.95 23.8 36.4 23.35 36.4 23.5 36.65 23.35 36.9 23.45 36.9 23.25 37.15 23.0 37.1 Q22.7 37.3 22.6 37.8 L22.8 37.8 22.55 38.2 Q21.3 38.1 20.8 37.7 L22.25 37.6 20.65 37.25 Q20.25 36.9 20.8 36.65 20.65 36.85 20.95 37.1 L21.55 37.2 Q21.05 37.0 21.2 36.85 L22.6 36.9 Q22.8 36.75 22.15 36.75 21.5 36.65 21.55 36.55 22.75 36.65 22.6 36.3 22.3 36.15 21.8 36.3 L21.2 36.3 Q21.05 36.15 21.3 36.1 L21.55 35.9 21.0 35.9 21.05 35.8 21.2 35.8 21.15 35.7 Q24.6 30.65 26.6 28.65" fill="#000000" fill-rule="evenodd" stroke="none"/>
    <path d="M19.4 39.15 L20.35 39.05 20.8 39.05 20.3 39.45 Q19.55 39.65 20.1 40.0 L17.95 40.25 17.8 40.1 17.6 39.9 18.3 39.9 19.0 39.85 18.8 39.15 19.3 38.35 Q19.7 38.45 19.5 38.7 19.3 39.0 19.4 39.15" fill="#000000" fill-rule="evenodd" stroke="none"/>
    <path d="M21.6 22.35 L25.1 20.0 27.8 19.95 25.5 21.2 Q23.05 22.6 22.5 23.25 23.7 22.95 28.1 20.4 32.9 17.65 33.35 17.45 L33.0 18.85 27.65 22.75 Q26.2 23.45 21.8 26.1 L20.8 25.25 19.4 25.15 Q18.95 25.65 19.15 25.95 19.35 26.35 20.45 26.35 20.35 26.6 20.55 26.75 L20.35 26.85 Q19.6 26.9 19.4 27.35 L18.65 27.7 18.9 27.15 18.65 26.55 19.75 26.55 Q18.0 26.05 16.75 25.2 L21.6 22.35" fill="#000000" fill-rule="evenodd" stroke="none"/>
    <path d="M13.25 28.15 Q13.2 28.0 12.65 28.0 L12.75 27.9 13.65 28.0 Q13.9 28.15 13.25 28.15" fill="#000000" fill-rule="evenodd" stroke="none"/>
    <path d="M12.6 28.0 Q13.8 28.45 14.2 28.95 L13.45 29.05 12.55 28.75 12.8 28.95 12.9 29.1 12.0 29.1 Q11.65 29.0 11.8 28.85 12.4 28.7 12.1 28.5 L12.6 28.0" fill="#000000" fill-rule="evenodd" stroke="none"/>
    <path d="M16.15 28.35 Q15.2 28.05 16.35 27.4 17.5 26.8 16.15 26.45 15.9 26.75 15.05 26.85 L13.65 27.2 14.25 26.8 14.35 26.8 Q15.7 26.2 16.85 26.1 17.5 26.35 17.55 27.0 17.6 27.7 18.05 27.95 L17.55 28.15 Q17.45 27.8 16.85 27.75 16.35 27.85 16.6 28.0 L17.2 28.25 16.15 28.35" fill="#000000" fill-rule="evenodd" stroke="none"/>
    <path d="M13.25 27.75 L13.15 27.6 13.65 27.2 Q14.8 27.2 14.7 27.5 L13.25 27.75" fill="#000000" fill-rule="evenodd" stroke="none"/>
    <path d="M27.0 25.4 L29.45 22.6 32.55 20.35 32.65 21.15 32.75 22.1 28.5 25.45 Q29.85 25.2 33.2 22.45 L33.2 22.5 Q33.75 23.15 35.3 23.05 33.5 24.55 32.1 26.3 L29.3 26.85 Q26.05 27.05 27.0 25.4" fill="#000000" fill-rule="evenodd" stroke="none"/>
    <path d="M37.0 22.95 Q36.75 23.75 36.65 24.75 L34.15 26.75 Q35.15 27.15 36.7 25.8 L36.95 26.85 Q32.65 30.9 32.5 29.95 32.3 29.0 32.6 27.3 34.25 25.1 37.0 22.95" fill="#000000" fill-rule="evenodd" stroke="none"/>
    <path d="M37.5 27.7 L39.25 27.7 36.35 30.45 39.95 28.2 40.0 29.2 36.7 32.25 Q33.95 34.35 34.05 31.9 L34.1 31.4 37.5 27.7" fill="#000000" fill-rule="evenodd" stroke="none"/>
    <path d="M44.4 35.2 L44.4 35.25 43.85 36.6 44.85 35.7 45.55 36.3 44.05 38.4 43.65 38.5 Q40.6 39.6 43.15 35.35 L43.95 34.55 44.4 35.2" fill="#000000" fill-rule="evenodd" stroke="none"/>
    <path d="M29.5 30.55 Q31.25 28.4 31.55 28.6 31.3 29.25 31.2 29.85 28.2 33.75 27.15 35.95 L26.45 35.95 25.5 36.05 25.45 35.9 29.5 30.55" fill="#000000" fill-rule="evenodd" stroke="none"/>
    <path d="M25.85 39.75 L26.95 39.65 26.45 40.4 Q25.7 40.2 25.85 39.75" fill="#000000" fill-rule="evenodd" stroke="none"/>
    <path d="M20.85 42.8 L21.85 43.15 Q22.5 43.35 22.6 43.55 21.1 43.75 22.0 44.25 23.1 44.85 22.6 45.05 21.85 45.05 21.65 44.75 21.35 44.45 20.8 44.4 L19.65 44.75 20.3 43.7 21.2 43.8 20.9 43.35 Q20.65 43.15 21.2 43.0 L20.7 43.0 20.85 42.8" fill="#000000" fill-rule="evenodd" stroke="none"/>
    <path d="M25.85 36.3 L25.05 36.45 25.15 36.3 Q25.7 36.15 25.85 36.3" fill="#000000" fill-rule="evenodd" stroke="none"/>
    <path d="M19.5 45.05 L19.75 45.0 19.55 45.0 19.6 44.85 20.45 44.8 Q19.9 44.95 20.35 45.1 20.95 45.25 20.8 45.4 L22.25 45.25 Q22.75 45.45 22.3 45.65 21.85 45.85 22.25 46.0 L23.2 45.4 Q20.0 50.55 16.8 58.45 L15.45 58.65 15.25 58.85 Q14.8 59.0 15.8 59.05 15.7 58.85 16.7 58.75 L15.15 62.8 14.55 62.7 Q14.4 60.95 14.8 57.65 15.95 57.25 16.15 56.4 L16.15 55.1 Q15.4 55.2 15.35 55.5 L15.05 55.9 15.35 54.25 Q16.15 50.9 19.5 45.05" fill="#000000" fill-rule="evenodd" stroke="none"/>
    <path d="M26.2 37.25 L25.3 36.9 Q24.85 36.7 25.15 36.55 L26.05 36.9 Q26.7 37.1 26.2 37.25" fill="#000000" fill-rule="evenodd" stroke="none"/>
    <path d="M24.05 39.5 L23.05 39.4 23.5 38.7 23.65 39.1 24.05 39.5" fill="#000000" fill-rule="evenodd" stroke="none"/>
    <path d="M25.85 39.65 Q25.05 39.55 24.9 39.85 24.65 40.25 24.05 40.35 L22.65 39.95 22.8 39.75 23.35 40.1 24.4 39.85 24.05 39.65 23.25 39.7 23.95 39.55 Q25.6 39.2 24.8 39.0 25.5 39.1 25.4 39.3 25.25 39.55 25.85 39.65" fill="#000000" fill-rule="evenodd" stroke="none"/>
    <path d="M25.85 38.8 L26.6 38.75 27.3 38.65 27.05 38.85 Q26.8 38.9 26.95 39.05 25.75 39.15 25.85 38.8" fill="#000000" fill-rule="evenodd" stroke="none"/>
    <path d="M14.55 63.05 L15.05 63.05 14.7 64.05 14.55 63.05" fill="#000000" fill-rule="evenodd" stroke="none"/>
    <path d="M23.7 40.85 Q22.85 40.8 23.7 41.35 24.7 42.05 24.05 42.25 L25.2 42.35 23.6 44.8 Q23.45 44.5 22.25 44.3 L23.4 43.45 Q23.95 42.8 22.6 42.5 22.8 42.65 22.4 42.75 L21.55 42.85 Q21.75 42.75 21.3 42.55 20.95 42.4 21.55 42.35 L21.9 42.5 Q22.05 42.35 21.8 42.25 L21.55 42.0 22.9 41.8 Q23.45 41.55 23.0 41.45 L21.75 41.35 22.15 40.75 22.25 40.8 22.25 40.55 22.45 40.3 22.6 40.25 23.6 40.55 Q24.3 40.75 23.7 40.85" fill="#000000" fill-rule="evenodd" stroke="none"/>
    <path d="M24.4 38.3 L23.8 38.25 23.9 38.05 24.4 38.3" fill="#000000" fill-rule="evenodd" stroke="none"/>
    <path d="M31.3 31.1 L31.7 31.65 31.9 32.1 29.7 35.45 29.45 35.35 29.6 35.65 29.3 36.1 29.1 36.15 Q29.05 35.9 27.95 35.8 L31.3 31.1" fill="#000000" fill-rule="evenodd" stroke="none"/>
    <path d="M26.95 39.25 L27.2 39.25 27.05 39.5 26.95 39.25" fill="#000000" fill-rule="evenodd" stroke="none"/>
    <path d="M25.15 41.55 Q24.95 41.2 26.05 41.05 L25.65 41.65 25.15 41.55" fill="#000000" fill-rule="evenodd" stroke="none"/>
    <path d="M24.8 37.95 L24.1 37.8 24.55 37.1 Q24.95 37.25 24.85 37.55 L24.8 37.95" fill="#000000" fill-rule="evenodd" stroke="none"/>
    <path d="M48.55 40.15 L48.9 39.35 49.5 39.6 49.65 41.75 50.15 39.9 51.5 40.6 51.2 41.65 50.9 42.7 50.3 43.35 Q47.85 45.75 48.55 40.15" fill="#000000" fill-rule="evenodd" stroke="none"/>
    <path d="M51.85 40.75 L53.05 41.55 52.85 42.95 53.55 41.75 55.25 42.1 53.75 44.0 Q51.8 46.05 51.5 43.5 L51.85 40.75" fill="#000000" fill-rule="evenodd" stroke="none"/>
    <path d="M40.2 30.4 Q40.4 31.15 40.9 31.65 L39.1 34.1 41.35 32.05 43.35 32.3 43.55 33.55 41.45 35.85 41.3 35.9 39.5 36.25 37.4 36.0 Q36.95 35.65 37.25 34.45 L37.7 33.05 40.2 30.4" fill="#000000" fill-rule="evenodd" stroke="none"/>
    <path d="M46.2 37.1 L46.9 38.15 46.5 40.0 47.6 38.6 48.35 39.0 Q47.9 39.9 47.65 41.1 46.35 42.25 45.75 41.2 45.25 40.3 45.5 38.35 L46.2 37.1" fill="#000000" fill-rule="evenodd" stroke="none"/>
    <path d="M46.5 35.45 Q45.65 34.45 45.35 33.75 L45.65 34.0 46.85 33.9 48.2 34.0 Q50.1 35.85 52.6 37.2 54.55 38.2 56.15 38.6 56.45 38.65 55.85 40.75 49.4 38.7 46.5 35.45" fill="#000000" fill-rule="evenodd" stroke="none"/>
    <path d="M28.85 18.75 L26.65 18.75 Q30.5 15.5 33.8 14.45 L36.0 14.1 38.05 14.75 37.85 11.6 Q37.85 9.35 38.65 7.45 40.95 10.55 41.75 15.7 L42.65 14.1 Q43.3 12.95 43.85 12.75 44.5 13.65 44.3 16.55 L43.55 21.5 46.65 20.45 46.65 22.25 Q46.2 24.4 44.0 26.45 44.75 30.05 47.3 33.05 L46.25 33.2 45.15 33.3 Q44.8 32.35 44.8 31.3 44.7 30.8 44.2 30.9 42.05 31.35 41.6 29.75 41.45 29.4 41.4 26.45 L41.15 26.1 40.7 26.05 39.55 26.6 Q38.75 26.8 38.45 26.25 37.7 24.8 38.75 21.95 L38.7 21.45 38.2 21.25 35.2 21.65 Q33.45 21.5 34.25 19.1 L34.9 16.3 34.65 15.95 34.2 15.95 Q33.2 16.2 31.5 17.25 L28.85 18.75" fill="#000000" fill-rule="evenodd" stroke="none"/>
    <path d="M47.9 33.7 L47.3 33.45 Q47.05 33.3 47.35 33.1 L47.9 33.7" fill="#000000" fill-rule="evenodd" stroke="none"/>
    <path d="M106.75 44.15 L107.45 44.2 Q107.85 44.2 107.8 44.4 L108.9 44.35 109.05 44.9 108.85 44.9 109.1 45.15 108.85 45.4 109.15 45.4 109.25 45.75 108.85 45.85 109.35 46.15 110.1 49.55 106.75 44.15" fill="#000000" fill-rule="evenodd" stroke="none"/>
    <path d="M107.8 41.1 L106.35 41.2 Q106.15 41.05 107.0 41.0 L108.1 40.95 108.3 41.6 108.15 41.65 108.3 41.65 108.4 42.15 107.8 41.7 107.8 41.1" fill="#000000" fill-rule="evenodd" stroke="none"/>
    <path d="M103.15 31.7 L103.25 31.8 Q102.9 31.95 103.2 32.2 L103.8 32.7 Q102.4 32.65 102.9 33.1 103.65 33.75 103.45 34.0 L104.2 34.1 Q104.6 34.05 104.8 33.85 L105.4 34.8 103.45 34.95 105.55 35.05 Q106.55 36.55 107.2 38.2 L107.05 38.2 107.35 38.45 107.45 38.75 107.4 38.9 Q106.8 38.9 106.7 38.7 106.45 38.7 106.35 38.9 105.9 38.65 105.7 38.55 L104.55 38.3 Q105.1 37.95 104.9 37.7 L103.35 37.8 103.25 37.6 103.45 37.35 103.1 37.35 103.0 37.15 104.2 37.15 Q104.5 37.15 104.05 36.85 103.7 36.7 104.9 36.85 L104.55 36.5 102.7 36.65 102.1 35.5 102.4 35.35 Q102.0 35.3 101.9 35.1 L101.75 34.9 101.65 34.4 101.3 33.9 Q102.25 33.85 102.15 33.55 101.9 32.85 102.0 32.7 L100.65 32.9 100.45 32.5 100.7 32.35 100.2 32.0 100.65 32.0 101.65 32.0 Q101.65 31.8 102.0 31.75 101.7 31.6 101.45 31.75 L100.55 31.85 100.4 31.05 Q100.3 30.45 100.6 30.15 L103.15 31.7" fill="#000000" fill-rule="evenodd" stroke="none"/>
    <path d="M107.05 40.35 L107.95 40.3 108.1 40.95 107.05 40.35" fill="#000000" fill-rule="evenodd" stroke="none"/>
    <path d="M106.0 41.55 Q107.15 41.8 107.1 42.45 L106.5 43.65 106.05 42.85 106.35 42.75 105.95 42.6 105.7 42.15 106.7 42.3 Q106.8 42.0 106.0 41.55" fill="#000000" fill-rule="evenodd" stroke="none"/>
    <path d="M105.6 39.05 L106.45 39.35 107.75 39.55 Q106.9 39.55 107.15 39.7 L107.4 40.0 106.7 40.05 106.0 39.9 Q106.15 40.3 104.7 40.3 L104.55 40.05 104.9 40.0 104.7 39.75 Q104.65 39.55 104.25 39.5 L104.2 39.4 104.9 39.4 Q105.0 39.1 105.6 39.05" fill="#000000" fill-rule="evenodd" stroke="none"/>
    <path d="M104.2 38.8 L104.1 39.15 103.9 38.85 104.2 38.8" fill="#000000" fill-rule="evenodd" stroke="none"/>
    <path d="M99.65 29.6 L99.4 30.7 98.1 28.6 99.65 29.6" fill="#000000" fill-rule="evenodd" stroke="none"/>
    <path d="M104.3 33.2 L103.45 33.05 104.1 32.9 104.3 33.2" fill="#000000" fill-rule="evenodd" stroke="none"/>
    <path d="M105.6 40.45 L105.05 40.95 104.8 40.5 105.6 40.45" fill="#000000" fill-rule="evenodd" stroke="none"/>
    <path d="M85.4 34.35 L85.45 33.75 85.5 32.3 91.85 42.25 97.1 53.95 94.45 53.9 94.9 54.15 94.45 54.4 95.9 54.4 95.7 54.6 95.55 54.75 95.1 54.8 94.45 54.85 Q95.2 54.9 95.3 55.3 95.35 55.6 96.25 55.55 L96.25 55.95 94.1 55.8 Q94.3 56.3 96.6 56.3 97.65 56.15 97.95 55.8 L98.15 56.25 98.05 56.3 98.2 56.35 98.9 57.85 98.8 57.85 98.9 57.9 98.95 58.0 98.8 58.2 99.05 58.25 99.45 59.15 98.9 59.1 Q99.15 59.35 98.1 59.55 L95.9 60.0 Q95.6 59.95 95.7 59.75 L95.55 59.4 Q96.25 59.45 96.05 59.55 L96.6 59.65 Q96.9 59.25 96.7 59.15 L95.2 58.9 Q95.3 59.15 94.4 59.15 L93.0 56.4 94.1 56.15 93.25 56.1 92.8 56.0 92.5 55.35 92.65 55.0 92.25 54.9 92.1 54.6 92.65 54.6 Q92.5 54.1 91.75 53.85 L91.6 53.55 92.15 53.3 Q92.5 53.1 93.0 53.05 L91.75 52.7 Q91.3 52.4 90.95 52.25 L90.9 52.2 Q92.05 52.3 92.15 51.65 92.2 50.95 90.85 50.9 L90.5 51.35 88.45 47.05 88.7 47.2 Q89.5 47.2 89.35 46.95 L88.35 46.7 Q88.65 46.85 88.35 46.85 L88.1 46.35 Q89.1 46.5 89.8 46.8 L90.45 46.25 Q90.6 45.85 91.0 45.7 L93.85 51.1 Q91.25 44.6 88.05 38.85 L85.4 34.35" fill="#000000" fill-rule="evenodd" stroke="none"/>
    <path d="M89.4 43.95 L89.85 43.65 90.95 45.6 90.15 45.65 90.35 45.35 90.5 45.0 89.4 45.15 88.35 45.0 89.8 44.8 89.2 44.5 Q88.9 44.35 89.05 44.1 L88.05 44.5 Q87.55 44.75 88.0 44.9 L87.45 45.0 87.25 44.55 88.05 44.15 Q88.4 43.9 88.0 43.7 L88.6 43.85 89.4 43.95" fill="#000000" fill-rule="evenodd" stroke="none"/>
    <path d="M102.4 71.5 Q101.8 71.65 102.15 71.95 102.5 72.25 101.75 72.25 L101.1 71.35 102.4 71.5" fill="#000000" fill-rule="evenodd" stroke="none"/>
    <path d="M101.75 72.3 L102.3 72.55 103.45 72.7 Q103.65 72.9 103.25 72.95 L102.4 73.05 102.2 72.9 101.75 72.3" fill="#000000" fill-rule="evenodd" stroke="none"/>
    <path d="M103.1 73.2 Q103.85 73.3 103.75 73.55 103.6 73.85 103.8 74.0 L104.25 73.9 104.3 74.05 Q104.0 75.15 102.7 73.5 L103.1 73.2" fill="#000000" fill-rule="evenodd" stroke="none"/>
    <path d="M82.65 34.75 L83.85 35.15 84.85 35.25 86.85 38.8 86.2 38.7 86.5 39.1 86.2 39.4 Q85.7 39.25 85.4 38.95 85.15 38.55 85.8 38.45 L85.45 38.35 85.1 38.3 84.45 38.65 84.15 38.05 84.75 38.2 85.3 38.05 84.75 37.75 84.05 37.8 84.0 37.6 Q84.75 37.0 84.0 36.15 L83.4 36.35 82.65 34.75" fill="#000000" fill-rule="evenodd" stroke="none"/>
    <path d="M101.95 65.65 L100.95 65.65 Q101.3 65.4 101.9 65.35 L101.95 65.65" fill="#000000" fill-rule="evenodd" stroke="none"/>
    <path d="M99.15 61.35 L99.15 61.55 Q98.5 61.5 98.4 61.2 L96.6 61.3 96.55 61.55 96.25 61.8 97.95 61.85 99.5 61.7 Q99.4 61.6 99.75 61.45 L99.5 61.2 Q99.2 61.25 99.15 61.35 M97.7 59.75 L99.75 59.8 100.0 60.5 Q99.45 60.3 99.85 60.25 L99.15 60.15 Q98.5 60.15 98.8 60.0 98.0 60.15 98.05 60.5 L99.2 60.75 99.15 61.1 100.25 61.05 101.55 64.3 99.5 64.1 98.9 64.9 Q98.6 65.25 100.55 65.5 L99.6 66.1 Q99.1 66.35 99.15 66.8 L102.25 66.75 103.45 71.2 103.1 71.25 102.7 71.1 102.75 70.8 Q101.45 71.0 100.8 70.8 98.9 67.8 95.35 61.05 95.9 60.45 97.7 60.25 L97.0 60.0 97.7 59.75" fill="#000000" fill-rule="evenodd" stroke="none"/>
    <path d="M86.55 39.65 Q87.25 39.75 86.65 39.9 85.9 40.05 86.2 40.15 L87.5 39.9 89.4 42.95 88.35 43.2 Q87.85 42.8 87.75 42.1 L87.6 40.85 Q86.5 40.8 86.45 41.4 86.4 41.9 86.0 41.9 L85.05 39.95 86.55 39.65" fill="#000000" fill-rule="evenodd" stroke="none"/>
    <path d="M87.25 42.85 L86.55 43.1 86.1 42.15 86.9 42.15 Q86.25 42.55 87.25 42.85" fill="#000000" fill-rule="evenodd" stroke="none"/>
    <path d="M82.65 36.55 L81.95 36.5 81.85 34.95 82.65 36.55" fill="#000000" fill-rule="evenodd" stroke="none"/>
    <path d="M81.85 43.35 L82.55 43.1 82.95 43.95 81.85 43.35" fill="#000000" fill-rule="evenodd" stroke="none"/>
    <path d="M80.8 43.0 Q81.05 43.5 80.95 44.2 L77.9 37.85 79.25 38.15 80.15 38.0 82.45 42.85 81.75 42.95 80.8 43.0" fill="#000000" fill-rule="evenodd" stroke="none"/>
    <path d="M81.1 37.75 Q81.8 37.75 81.95 36.55 L82.75 36.75 83.0 37.3 Q82.4 37.9 82.95 38.2 L83.35 38.1 83.8 39.15 83.3 39.75 84.05 39.75 85.7 44.55 Q85.25 44.7 85.45 44.9 L84.4 44.7 85.0 44.55 85.45 44.4 83.4 44.1 Q83.0 42.15 81.1 37.75" fill="#000000" fill-rule="evenodd" stroke="none"/>
    <path d="M82.1 46.5 L82.05 46.45 Q82.2 46.35 81.85 46.0 L81.8 45.9 81.85 45.85 83.65 45.85 Q83.25 46.15 83.5 46.55 L83.65 47.2 84.55 47.0 85.1 46.7 Q84.45 46.5 84.7 46.25 85.05 46.0 84.75 45.75 L85.95 46.0 86.25 46.35 86.35 46.7 86.2 46.7 86.35 46.75 Q87.75 52.0 88.5 57.55 85.75 57.65 86.55 57.25 L85.7 57.45 Q84.9 56.0 84.7 55.15 L82.1 46.5" fill="#000000" fill-rule="evenodd" stroke="none"/>
    <path d="M88.0 57.95 L87.6 58.35 Q87.25 58.5 87.6 58.7 L88.0 58.55 88.6 58.45 88.85 61.3 86.8 59.05 85.9 57.8 86.2 57.95 88.0 57.95" fill="#000000" fill-rule="evenodd" stroke="none"/>
    <path d="M76.85 40.1 Q77.4 39.15 76.95 38.0 L79.05 42.3 Q80.95 46.55 81.25 48.2 L81.35 50.35 79.0 50.45 79.65 50.65 80.4 50.65 79.95 50.8 Q79.55 50.85 79.7 51.0 L79.95 51.05 80.05 51.15 81.3 51.15 80.35 55.0 79.2 57.95 76.6 48.65 76.6 48.55 76.55 48.45 77.2 48.6 Q78.05 48.5 78.2 48.15 78.35 47.8 77.9 47.55 L76.4 47.8 76.0 46.45 77.55 46.55 77.25 46.3 77.9 46.1 77.0 46.05 Q76.45 46.15 76.8 46.35 L75.95 46.25 74.35 40.35 75.9 40.5 77.95 44.65 79.5 48.7 Q79.25 44.55 76.85 40.1" fill="#000000" fill-rule="evenodd" stroke="none"/>
    <path d="M73.55 57.5 L73.55 57.15 73.8 57.15 73.6 57.5 73.55 57.5" fill="#000000" fill-rule="evenodd" stroke="none"/>
    <path d="M74.85 46.1 L73.6 46.3 72.75 43.1 Q73.5 42.5 73.5 40.2 L74.85 46.1" fill="#000000" fill-rule="evenodd" stroke="none"/>
    <path d="M73.15 56.8 L73.95 56.9 73.25 57.3 73.15 56.8" fill="#000000" fill-rule="evenodd" stroke="none"/>
    <path d="M70.95 43.05 L71.5 43.4 72.15 43.6 Q73.45 46.35 74.0 48.75 L73.6 46.35 Q74.25 46.55 74.3 46.95 L75.05 46.8 75.3 47.9 75.0 47.9 75.3 48.0 75.85 50.25 75.65 51.95 75.5 52.45 Q75.45 52.8 74.65 52.9 75.6 53.4 74.75 54.25 73.8 55.25 73.95 55.45 L73.7 55.5 73.55 55.45 Q73.1 55.7 73.45 55.9 L74.4 56.2 74.15 56.55 73.2 56.55 73.15 56.7 72.7 54.05 73.2 54.0 Q72.75 53.9 73.0 53.75 L73.2 53.4 72.6 53.4 70.95 43.05" fill="#000000" fill-rule="evenodd" stroke="none"/>
    <path d="M65.3 47.8 L66.15 47.65 Q66.15 50.15 64.85 51.55 L63.5 52.45 63.0 47.9 62.6 43.25 Q63.6 45.1 64.5 46.0 L65.4 46.4 65.3 47.8" fill="#000000" fill-rule="evenodd" stroke="none"/>
    <path d="M70.35 44.75 L70.75 48.1 69.75 50.95 Q68.95 52.75 68.0 53.2 67.5 49.1 66.8 47.05 67.55 47.05 67.45 47.3 L67.85 47.15 67.8 46.85 66.8 46.95 66.7 46.7 67.15 46.25 67.45 45.65 68.0 45.5 67.75 45.15 68.65 46.1 Q69.8 47.2 70.35 44.75" fill="#000000" fill-rule="evenodd" stroke="none"/>
    <path d="M95.0 35.35 L95.9 35.0 Q96.2 35.15 95.75 35.35 L94.8 35.7 Q94.35 35.55 95.0 35.35" fill="#000000" fill-rule="evenodd" stroke="none"/>
    <path d="M100.55 40.85 L102.0 41.1 99.85 41.45 Q100.4 41.6 100.15 41.8 L99.85 42.25 Q101.3 42.2 101.3 41.65 L102.1 42.1 103.8 42.3 Q104.0 42.6 103.45 42.9 L102.5 42.85 102.0 42.85 Q102.75 43.05 102.85 43.2 L102.75 43.7 Q103.7 43.75 103.8 43.45 L104.25 43.5 104.4 44.15 102.75 44.2 Q102.65 44.3 102.85 44.4 L103.1 44.55 103.8 44.3 Q104.45 44.35 104.55 44.65 L104.55 45.0 104.6 44.95 Q105.0 45.95 105.15 48.35 L105.15 51.7 99.7 43.85 100.2 43.85 Q100.05 43.7 100.65 43.55 101.1 43.4 100.55 43.25 L101.45 43.35 Q101.95 43.45 101.3 43.45 L101.65 43.45 102.4 43.45 101.35 43.2 100.2 42.85 99.55 43.0 99.3 43.3 98.95 42.75 Q100.0 42.2 98.4 42.0 98.55 41.8 99.65 41.45 100.6 41.15 100.55 40.85" fill="#000000" fill-rule="evenodd" stroke="none"/>
    <path d="M97.0 37.95 L97.4 37.45 Q97.5 37.1 98.05 36.9 L98.6 37.75 97.0 37.95" fill="#000000" fill-rule="evenodd" stroke="none"/>
    <path d="M98.85 36.8 Q99.5 37.3 99.15 37.55 L98.85 36.8" fill="#000000" fill-rule="evenodd" stroke="none"/>
    <path d="M101.65 37.6 L101.5 37.15 Q101.35 36.9 101.65 36.8 L102.1 37.8 102.0 38.3 102.4 38.35 102.55 38.65 100.95 38.45 Q101.5 38.1 100.75 37.9 L100.2 37.5 100.7 37.5 101.65 37.6" fill="#000000" fill-rule="evenodd" stroke="none"/>
    <path d="M103.25 40.15 L103.6 40.95 101.65 40.7 102.9 40.5 103.25 40.15" fill="#000000" fill-rule="evenodd" stroke="none"/>
    <path d="M92.7 27.75 Q93.0 26.8 92.4 25.4 95.7 27.2 100.05 33.9 L99.85 34.25 100.25 34.2 100.3 34.35 99.5 34.35 99.75 34.55 Q100.0 34.6 99.85 34.75 L99.25 34.75 Q98.75 34.6 98.4 34.75 98.3 35.1 99.5 35.0 L98.9 35.2 Q98.25 35.2 98.4 35.35 L99.85 35.3 99.5 35.6 100.1 35.5 Q100.4 35.3 100.2 35.1 100.8 35.35 100.4 35.7 99.95 36.05 98.8 36.05 L100.2 36.15 98.75 36.6 Q96.9 32.65 92.7 27.75" fill="#000000" fill-rule="evenodd" stroke="none"/>
    <path d="M95.2 34.75 L95.7 34.7 96.55 34.75 96.65 34.85 95.2 34.75" fill="#000000" fill-rule="evenodd" stroke="none"/>
    <path d="M93.75 34.5 L93.45 34.4 93.4 34.25 93.05 34.25 88.85 28.45 91.7 28.65 Q93.5 30.45 96.15 34.2 95.35 34.3 95.55 34.5 L94.5 34.35 93.75 34.5" fill="#000000" fill-rule="evenodd" stroke="none"/>
    <path d="M98.4 38.55 L99.05 38.4 99.3 38.8 Q99.05 38.6 98.4 38.55" fill="#000000" fill-rule="evenodd" stroke="none"/>
    <path d="M98.8 38.1 L98.05 38.5 97.0 38.8 Q96.4 38.7 96.2 38.4 96.05 38.1 95.7 38.1 L95.6 37.95 95.6 37.7 Q95.6 37.5 96.25 37.45 95.45 37.65 97.1 38.0 L97.85 38.15 97.0 38.1 96.6 38.3 97.7 38.55 Q97.9 38.15 98.8 38.1" fill="#000000" fill-rule="evenodd" stroke="none"/>
    <path d="M97.9 36.65 L96.6 36.75 97.65 36.35 97.9 36.65" fill="#000000" fill-rule="evenodd" stroke="none"/>
    <path d="M100.95 38.9 L101.65 38.65 102.6 38.8 102.65 38.9 102.1 39.1 102.4 39.3 99.85 39.3 Q99.55 39.5 100.4 39.5 101.2 39.5 100.95 39.65 L102.4 39.5 102.9 39.85 102.4 40.25 99.5 39.75 98.05 39.9 Q97.6 40.0 98.15 40.25 L99.5 40.45 99.25 40.7 Q99.0 40.8 99.15 40.95 L99.4 40.9 99.5 40.75 Q100.1 40.85 99.75 41.0 99.35 41.2 99.5 41.3 L98.65 41.2 Q98.2 41.1 98.4 40.95 L97.8 41.15 97.05 40.05 97.8 39.5 Q98.05 39.25 97.35 39.3 96.75 39.2 97.4 39.0 L98.4 38.7 98.8 38.95 98.8 39.25 99.4 38.95 99.65 39.35 99.45 38.35 99.5 38.3 100.95 38.9" fill="#000000" fill-rule="evenodd" stroke="none"/>
    <path d="M96.25 36.4 L96.2 35.95 Q96.1 35.55 97.0 35.45 L97.55 36.2 96.25 36.4" fill="#000000" fill-rule="evenodd" stroke="none"/>
    <path d="M92.8 21.2 L90.5 19.95 93.25 20.0 Q94.2 20.85 99.65 24.05 98.85 24.65 99.7 25.4 L100.95 26.6 Q100.15 27.2 100.1 27.35 99.85 27.85 101.3 28.05 101.65 27.9 101.45 27.7 101.2 27.4 101.3 27.2 L101.8 27.55 102.0 27.9 Q102.9 27.85 102.55 27.55 102.15 27.15 102.75 27.05 L104.2 27.2 103.55 27.5 Q102.9 27.6 103.1 27.8 L104.55 27.55 Q104.95 27.9 105.8 28.1 L105.9 28.2 105.0 28.25 104.2 28.4 Q103.95 28.55 104.7 28.6 105.15 28.7 104.65 28.75 L105.4 28.8 Q105.7 28.9 105.5 29.1 L103.4 28.85 102.15 28.6 101.5 28.4 101.3 28.15 101.1 28.25 Q99.05 27.55 95.5 25.5 L90.65 22.75 85.35 18.85 84.95 17.45 90.2 20.4 Q94.65 22.95 95.85 23.25 L92.8 21.2" fill="#000000" fill-rule="evenodd" stroke="none"/>
    <path d="M105.6 28.65 L106.4 28.65 106.5 28.75 106.55 29.0 105.6 28.65" fill="#000000" fill-rule="evenodd" stroke="none"/>
    <path d="M100.55 24.8 L100.9 24.8 102.1 25.5 102.35 26.0 102.4 26.6 103.25 26.25 103.6 26.45 Q103.4 26.65 103.45 26.95 L101.3 26.85 Q102.35 25.2 100.2 25.3 100.75 25.2 100.55 24.8" fill="#000000" fill-rule="evenodd" stroke="none"/>
    <path d="M85.15 22.5 L85.15 22.45 Q88.5 25.2 89.85 25.45 L85.6 22.1 85.7 21.15 85.75 20.35 88.85 22.6 91.3 25.4 Q92.25 27.05 89.0 26.85 L86.25 26.3 Q84.65 24.35 83.05 23.05 84.55 23.15 85.15 22.5" fill="#000000" fill-rule="evenodd" stroke="none"/>
    <path d="M85.85 29.95 Q85.7 30.55 83.85 29.05 L81.35 26.85 81.6 25.8 Q83.2 27.15 84.15 26.75 L81.65 24.75 81.35 22.95 Q84.1 25.2 85.7 27.3 L85.85 29.95" fill="#000000" fill-rule="evenodd" stroke="none"/>
    <path d="M78.3 29.2 L78.35 28.2 82.0 30.45 79.1 27.7 80.8 27.7 84.25 31.4 84.25 31.9 Q84.4 34.35 81.6 32.25 80.5 31.4 78.3 29.2" fill="#000000" fill-rule="evenodd" stroke="none"/>
    <path d="M73.9 35.25 L73.95 35.2 74.35 34.55 75.15 35.35 75.95 36.75 Q74.6 36.95 74.55 36.4 L74.3 35.55 74.05 35.6 73.9 35.25" fill="#000000" fill-rule="evenodd" stroke="none"/>
    <path d="M74.65 38.5 L75.7 38.35 Q76.15 38.3 76.1 38.55 L74.65 38.5" fill="#000000" fill-rule="evenodd" stroke="none"/>
    <path d="M74.3 37.5 Q74.0 37.65 74.6 38.0 75.1 38.3 74.5 38.5 L74.3 38.4 74.0 37.95 74.3 37.95 73.9 37.85 73.55 37.35 Q75.2 37.25 75.0 37.6 L74.65 37.65 74.3 37.5" fill="#000000" fill-rule="evenodd" stroke="none"/>
    <path d="M76.1 37.5 Q75.65 37.45 75.7 37.3 L76.05 37.05 76.15 37.25 Q76.0 37.3 76.1 37.5" fill="#000000" fill-rule="evenodd" stroke="none"/>
    <path d="M75.0 36.9 Q75.65 37.1 74.65 37.25 L74.2 37.2 73.5 37.25 73.4 37.15 74.15 37.05 75.0 36.9" fill="#000000" fill-rule="evenodd" stroke="none"/>
    <path d="M103.8 62.1 L103.8 62.15 103.2 61.95 102.8 61.75 102.65 61.4 103.45 61.4 103.8 61.45 103.8 61.9 103.8 62.1" fill="#000000" fill-rule="evenodd" stroke="none"/>
    <path d="M95.4 39.6 L95.75 40.05 95.2 40.15 94.5 40.0 Q94.25 39.8 94.1 39.75 92.85 40.15 93.75 40.7 L94.4 40.55 94.1 40.25 95.2 40.35 94.8 40.95 96.15 40.7 97.65 43.05 Q97.1 43.45 98.3 44.15 102.2 50.7 103.0 54.25 L103.4 56.6 102.75 56.5 102.55 57.05 Q102.3 57.4 102.75 57.7 L103.5 57.5 103.8 60.85 102.55 61.1 100.8 56.75 Q101.35 56.7 101.25 56.15 101.15 55.6 100.55 55.35 L100.25 55.45 Q97.5 49.25 94.95 45.1 L90.25 37.95 91.55 37.75 91.5 37.6 91.2 37.45 91.7 37.35 91.95 37.15 Q92.9 37.1 93.0 37.35 L93.0 37.85 94.1 37.7 93.95 38.0 94.45 38.15 94.85 38.75 94.25 39.0 Q93.95 39.15 94.1 39.4 L95.4 39.6" fill="#000000" fill-rule="evenodd" stroke="none"/>
    <path d="M103.2 62.85 L103.8 62.85 103.6 64.05 103.2 62.85" fill="#000000" fill-rule="evenodd" stroke="none"/>
    <path d="M86.4 32.1 Q86.35 31.9 86.6 31.65 L87.0 31.1 90.7 36.2 90.0 37.6 86.4 32.1" fill="#000000" fill-rule="evenodd" stroke="none"/>
    <path d="M91.95 34.6 L91.3 34.35 91.55 34.0 91.95 34.6" fill="#000000" fill-rule="evenodd" stroke="none"/>
    <path d="M91.4 33.85 Q90.4 34.1 90.8 34.8 L91.2 35.9 91.15 35.9 Q90.4 34.35 87.15 29.85 L86.8 28.6 Q87.3 28.3 91.4 33.85" fill="#000000" fill-rule="evenodd" stroke="none"/>
    <path d="M68.85 39.6 L69.45 39.35 69.75 40.15 Q70.1 42.4 69.8 43.4 L68.0 43.35 67.4 42.7 67.15 41.65 66.85 40.6 68.15 39.9 68.65 41.75 68.85 39.6" fill="#000000" fill-rule="evenodd" stroke="none"/>
    <path d="M65.25 41.55 L66.5 40.75 66.85 43.5 66.4 44.7 66.2 44.85 Q65.65 45.1 64.55 44.0 L63.05 42.1 64.75 41.75 65.5 42.95 65.25 41.55" fill="#000000" fill-rule="evenodd" stroke="none"/>
    <path d="M74.85 33.1 L74.95 32.4 75.4 32.45 75.45 32.35 77.0 32.05 79.25 34.1 77.45 31.65 78.1 30.4 80.6 33.05 81.05 34.45 Q81.35 35.65 80.9 36.0 L77.0 35.9 76.9 35.85 74.75 33.55 Q75.1 33.1 75.75 33.05 L74.85 33.1" fill="#000000" fill-rule="evenodd" stroke="none"/>
    <path d="M72.55 37.85 L72.85 38.35 Q73.1 40.3 72.6 41.2 72.0 42.25 70.65 41.1 L70.0 39.0 70.75 38.6 71.85 40.0 71.45 38.15 72.15 37.1 72.45 37.65 72.15 38.05 72.5 37.85 72.55 37.85" fill="#000000" fill-rule="evenodd" stroke="none"/>
    <path d="M72.5 33.05 Q71.95 33.2 72.15 33.6 72.4 33.95 71.8 34.25 L71.45 34.15 71.4 34.0 Q70.85 34.15 71.45 34.35 72.1 34.65 71.8 34.85 L72.5 34.55 71.85 35.45 Q68.85 38.7 62.5 40.75 L62.2 39.55 62.15 38.6 Q64.05 38.15 66.25 36.9 69.15 35.25 71.1 32.9 L72.5 33.05" fill="#000000" fill-rule="evenodd" stroke="none"/>
    <path d="M83.65 15.95 Q83.4 16.05 83.4 16.3 83.4 17.25 84.05 19.1 84.85 21.5 83.1 21.65 L80.1 21.25 79.65 21.45 79.55 21.95 Q80.7 24.65 79.85 26.25 79.55 26.8 78.75 26.6 L77.6 26.05 77.15 26.1 76.9 26.45 76.75 29.75 Q76.25 31.35 74.1 30.9 L73.75 31.0 73.55 31.3 73.5 32.0 Q72.85 32.2 72.85 32.45 L73.4 32.4 73.3 32.85 73.2 32.8 71.95 32.8 Q71.2 32.8 71.4 32.6 L71.35 32.65 Q73.6 29.85 74.35 26.45 72.15 24.4 71.65 22.25 L71.65 20.45 74.75 21.5 Q73.3 14.45 74.5 12.75 75.0 12.95 75.65 14.1 L76.6 15.7 Q77.4 10.6 79.65 7.45 80.5 9.35 80.5 11.6 L80.25 14.75 Q81.45 14.2 82.35 14.1 L84.5 14.45 Q87.95 15.55 91.65 18.75 L89.5 18.75 86.85 17.25 Q85.1 16.2 84.1 15.95 L83.65 15.95" fill="#000000" fill-rule="evenodd" stroke="none"/>
  </g>
</svg>
