<?xml version="1.0" encoding="UTF-8" standalone="no"?>
<svg xmlns:ffdec="https://www.free-decompiler.com/flash" xmlns:xlink="http://www.w3.org/1999/xlink" ffdec:objectType="shape" height="83.25px" width="79.05px" xmlns="http://www.w3.org/2000/svg">
  <g transform="matrix(1.0, 0.0, 0.0, 1.0, 39.5, 41.6)">
    <path d="M2.25 13.25 L2.4 13.75 Q2.55 14.5 2.3 15.3 L0.85 14.25 -0.7 13.1 -2.45 11.6 -4.4 9.75 -5.4 8.7 Q0.55 8.85 2.25 13.25 M0.65 -2.9 L0.55 -2.95 6.25 -3.55 8.2 -3.65 10.4 -3.95 10.5 -3.95 13.45 -4.6 Q17.05 -5.5 19.55 -7.05 L19.8 -7.35 Q22.75 -9.35 23.7 -11.85 24.6 -14.15 23.5 -15.5 22.5 -16.75 19.45 -18.15 21.5 -20.1 21.6 -23.1 21.65 -24.6 21.25 -25.75 17.35 -22.75 11.2 -20.55 L7.8 -20.95 Q2.85 -22.05 -1.5 -23.9 -3.7 -24.85 -4.9 -25.55 -5.0 -22.5 -4.0 -19.75 -7.5 -18.8 -10.9 -17.15 L-17.05 -13.65 -17.6 -17.65 -17.75 -21.25 -17.4 -27.6 -17.4 -27.8 -17.25 -28.75 Q-16.6 -33.05 -15.25 -37.0 L-14.05 -40.1 Q-17.3 -38.1 -21.25 -34.35 -29.2 -26.8 -32.7 -18.0 L-33.75 -15.0 -35.0 -8.9 -35.2 -4.25 -34.95 -0.8 -33.95 4.3 -33.8 4.75 Q-38.5 13.2 -37.95 21.95 -37.4 30.9 -33.2 36.15 -30.05 40.15 -27.35 40.15 L-27.0 40.1 Q-25.75 39.65 -25.75 38.55 L-26.35 35.65 -26.4 35.5 -26.5 35.0 -26.6 34.75 -26.8 33.85 -27.0 32.55 Q-27.6 28.6 -27.25 25.15 -25.15 28.45 -22.75 30.65 -21.0 32.25 -19.15 33.35 L-19.0 33.45 -17.9 34.05 -17.7 34.1 -15.15 35.1 -13.45 35.55 -12.1 35.75 -8.25 35.95 -7.85 35.95 -6.85 36.3 -6.75 36.35 -5.1 36.85 -5.05 36.85 -1.85 37.55 -1.6 37.55 3.0 37.9 Q7.05 37.9 11.5 36.85 L13.1 36.45 13.2 36.4 14.65 36.0 14.85 35.9 17.9 34.8 17.95 34.8 19.35 34.2 19.5 34.15 22.35 32.8 22.4 32.8 23.7 32.1 23.75 32.1 Q29.1 29.25 34.1 25.3 L38.05 21.9 37.9 21.95 37.85 21.95 Q33.45 23.05 28.35 23.1 L27.65 23.1 Q21.9 23.1 16.35 21.7 L14.3 21.15 Q15.4 17.9 15.4 14.6 L15.4 13.85 Q15.25 9.8 13.7 6.95 L11.5 3.85 8.75 1.25 5.45 -0.9 5.4 -0.95 5.35 -0.95 5.1 -1.1 2.1 -2.45 2.05 -2.5 0.75 -2.95 0.7 -2.9 0.65 -2.9 M20.3 -26.9 Q20.85 -27.25 21.25 -27.25 L21.65 -27.15 Q22.4 -26.9 22.65 -26.2 L23.05 -23.65 Q23.2 -20.8 21.8 -18.65 23.9 -17.45 24.65 -16.45 25.8 -14.9 25.5 -12.75 24.85 -9.0 20.8 -6.2 L20.7 -6.05 20.3 -5.75 Q17.5 -4.05 13.85 -3.15 L10.75 -2.5 10.65 -2.45 8.75 -2.2 8.35 -2.2 6.5 -2.05 6.95 -1.8 7.0 -1.75 7.35 -1.55 8.05 -1.05 8.2 -1.0 10.3 0.6 10.35 0.65 10.5 0.75 11.5 1.7 11.65 1.8 12.5 2.7 12.6 2.85 13.1 3.4 13.8 4.4 14.1 4.75 15.0 6.25 Q16.75 9.5 16.9 13.65 L16.9 14.6 Q16.9 17.3 16.2 20.1 L16.75 20.25 Q22.0 21.6 27.65 21.6 L28.35 21.6 Q32.95 21.55 37.5 20.5 L37.55 20.5 37.6 20.45 37.9 20.4 38.1 20.4 Q38.7 20.4 39.15 20.85 39.55 21.25 39.55 21.9 39.55 22.5 39.05 23.0 32.85 28.95 24.45 33.4 L24.4 33.45 23.0 34.15 20.1 35.5 19.95 35.6 18.5 36.2 18.45 36.2 15.3 37.35 15.2 37.35 15.1 37.4 13.6 37.85 13.5 37.9 11.85 38.3 11.8 38.3 Q7.45 39.4 3.0 39.4 L-1.85 39.05 -2.0 39.0 -2.05 39.0 -3.8 38.7 -5.4 38.3 -5.5 38.3 -7.2 37.75 -7.3 37.7 -8.15 37.45 -8.25 37.45 -12.25 37.25 -14.0 36.95 -14.15 36.9 -15.2 36.65 -15.25 36.65 -15.6 36.55 -18.4 35.45 -18.5 35.4 -18.55 35.4 -19.9 34.65 Q-21.85 33.5 -23.7 31.8 L-23.8 31.75 -25.8 29.65 -25.55 32.35 -25.4 33.2 -25.3 33.5 -25.3 33.65 -25.15 34.35 -25.05 34.65 -24.95 35.15 -24.9 35.2 -24.9 35.25 -24.75 35.9 Q-24.15 38.05 -24.3 39.05 -24.5 40.8 -26.45 41.5 L-27.35 41.65 Q-30.85 41.65 -34.45 36.95 -38.9 31.25 -39.45 22.05 -40.0 13.05 -35.4 4.55 L-36.1 1.55 -36.1 1.35 -36.2 0.9 -36.3 0.05 -36.35 0.0 -36.35 -0.2 -36.4 -0.6 -36.55 -2.05 -36.6 -2.5 -36.6 -2.9 -36.7 -4.05 -36.65 -7.05 -36.2 -11.15 -35.55 -14.1 -35.5 -14.2 -35.5 -14.3 -34.95 -16.2 -34.8 -16.55 -34.55 -17.35 -34.4 -17.65 -34.1 -18.55 -34.05 -18.6 Q-30.45 -27.6 -22.5 -35.25 -18.5 -39.1 -14.85 -41.35 L-14.05 -41.6 -13.05 -41.2 Q-12.25 -40.5 -12.7 -39.45 -14.8 -35.05 -15.75 -28.55 L-15.9 -27.6 -15.9 -27.4 -16.15 -25.25 -16.15 -25.0 -16.2 -24.6 -16.2 -23.7 -16.25 -23.5 -16.1 -17.8 -15.9 -16.15 -11.6 -18.5 -5.85 -20.8 -6.4 -24.1 -6.4 -25.6 Q-6.4 -26.45 -5.65 -26.85 L-4.9 -27.05 -4.15 -26.85 Q0.5 -24.15 8.0 -22.45 L11.05 -22.1 Q16.6 -24.05 20.3 -26.9" fill="#222541" fill-rule="evenodd" stroke="none"/>
    <path d="M-30.0 -0.75 Q-24.7 -7.05 -13.7 -7.1 -8.15 -7.1 -3.7 -5.9 L-17.75 7.1 -20.25 8.6 Q-23.05 11.05 -24.75 15.5 -26.7 20.8 -27.2 24.65 -27.65 28.25 -27.0 32.55 L-25.8 37.75 Q-25.45 39.55 -27.0 40.1 -29.2 40.85 -32.75 36.7 -37.35 31.4 -37.95 21.95 -38.3 16.8 -36.65 11.4 -34.65 4.75 -30.0 -0.75" fill="#7a87e6" fill-rule="evenodd" stroke="none"/>
    <path d="M-30.0 -0.75 Q-34.65 4.75 -36.65 11.4 -38.3 16.8 -37.95 21.95 -37.35 31.4 -32.75 36.7 -29.2 40.85 -27.0 40.1 -25.45 39.55 -25.8 37.75 L-27.0 32.55 Q-27.65 28.25 -27.2 24.65 -26.7 20.8 -24.75 15.5 -23.05 11.05 -20.25 8.6 L-17.75 7.1 -3.7 -5.9 Q-8.15 -7.1 -13.7 -7.1 -24.7 -7.05 -30.0 -0.75 Z" fill="none" stroke="#222640" stroke-linecap="butt" stroke-linejoin="miter-clip" stroke-miterlimit="10.0" stroke-width="1.1"/>
    <path d="M-15.0 -7.05 L-7.05 -6.55 -3.7 -5.9 -17.75 7.1 -20.25 8.6 Q-23.05 11.05 -24.75 15.5 -26.7 20.8 -27.2 24.65 -27.65 28.25 -27.0 32.55 L-26.3 35.85 Q-32.0 30.35 -32.8 21.0 -33.65 11.6 -29.0 4.25 -24.1 -3.55 -15.0 -7.05" fill="#000000" fill-opacity="0.14901961" fill-rule="evenodd" stroke="none"/>
    <path d="M-25.0 -1.6 Q-26.35 -0.75 -27.35 0.35 L-29.4 2.8 Q-33.4 8.2 -34.8 14.45 -35.55 17.6 -35.55 20.9 -35.45 24.55 -34.8 27.35 -34.1 30.7 -32.5 33.45 -30.55 36.7 -27.95 38.1 L-28.45 39.15 Q-31.35 37.65 -33.6 34.15 -35.35 31.15 -36.2 27.7 -37.0 24.35 -37.1 20.95 -37.25 17.8 -36.5 14.1 -35.15 7.5 -31.0 1.65 L-28.9 -1.05 -26.2 -3.4 Q-23.55 -5.25 -19.8 -6.15 L-19.25 -3.9 Q-22.55 -3.25 -25.0 -1.6" fill="#c6e3fe" fill-opacity="0.49803922" fill-rule="evenodd" stroke="none"/>
    <path d="M-25.25 18.6 L-27.85 15.95 Q-31.5 13.2 -36.65 13.0" fill="none" stroke="#4e5495" stroke-linecap="butt" stroke-linejoin="miter-clip" stroke-miterlimit="10.0" stroke-width="1.1"/>
    <path d="M-27.75 29.3 L-30.0 28.4 Q-32.95 27.8 -36.35 29.0" fill="none" stroke="#4e5495" stroke-linecap="butt" stroke-linejoin="miter-clip" stroke-miterlimit="10.0" stroke-width="1.1"/>
    <path d="M0.65 -2.9 L0.75 -2.95 Q2.95 -2.35 5.7 -0.8 11.15 2.3 13.7 6.95 15.4 10.2 15.4 14.6 12.8 12.25 9.15 11.95 5.35 11.6 2.4 13.75 L2.3 13.35 Q1.0 9.85 -3.05 8.95 L-6.85 8.75 -12.75 4.35 -16.9 1.2 Q-13.9 -0.95 -10.6 -1.95 -5.75 -3.45 0.65 -2.9" fill="#8592fc" fill-rule="evenodd" stroke="none"/>
    <path d="M0.65 -2.9 L0.75 -2.95 Q2.8 -2.35 5.35 -0.95 L5.4 -0.95 Q11.0 2.1 13.7 6.95 15.4 10.2 15.4 14.6 13.05 12.45 9.7 12.0 L9.0 9.8 Q6.95 4.65 0.7 2.25 -3.6 2.65 -5.65 5.75 -6.7 7.3 -6.85 8.75 L-12.75 4.35 -16.9 1.2 Q-15.5 0.15 -14.1 -0.55 L-14.05 -0.6 -11.5 -1.7 -9.3 -2.35 -4.45 -3.0 -1.35 -3.05 -0.9 -3.0 0.65 -2.9" fill="#000000" fill-opacity="0.14901961" fill-rule="evenodd" stroke="none"/>
    <path d="M15.4 14.6 Q15.4 10.2 13.7 6.95 11.15 2.3 5.7 -0.8 2.95 -2.35 0.75 -2.95 L0.65 -2.9 Q-5.75 -3.45 -10.6 -1.95 -13.9 -0.95 -16.9 1.2 L-12.75 4.35 -6.85 8.75 -3.05 8.95 Q1.0 9.85 2.3 13.35 L2.4 13.75" fill="none" stroke="#222640" stroke-linecap="butt" stroke-linejoin="miter-clip" stroke-miterlimit="4.0" stroke-width="0.8500000000000001"/>
    <path d="M-30.1 -23.3 Q-23.85 -34.1 -14.05 -40.1 -17.1 -33.75 -17.7 -24.6 -18.85 -6.35 -6.4 7.6 5.75 21.2 23.1 22.9 31.8 23.75 38.05 21.9 28.9 30.85 16.5 35.35 -8.4 44.4 -24.9 22.2 -42.6 -1.7 -30.1 -23.3" fill="#ffffff" fill-rule="evenodd" stroke="none"/>
    <path d="M-30.1 -23.3 Q-42.6 -1.7 -24.9 22.2 -8.4 44.4 16.5 35.35 28.9 30.85 38.05 21.9 31.8 23.75 23.1 22.9 5.75 21.2 -6.4 7.6 -18.85 -6.35 -17.7 -24.6 -17.1 -33.75 -14.05 -40.1 -23.85 -34.1 -30.1 -23.3 Z" fill="none" stroke="#222640" stroke-linecap="butt" stroke-linejoin="round" stroke-width="1.1"/>
    <path d="M16.6 29.45 L20.8 29.7 Q22.75 30.45 23.75 32.1 17.5 35.45 11.5 36.85 L11.45 36.7 Q10.9 34.3 12.4 32.2 13.9 30.05 16.6 29.45 M-3.5 19.45 Q-6.05 18.95 -7.75 16.75 -9.4 14.55 -9.2 11.95 -9.0 9.35 -7.05 7.85 L-6.5 7.5 -6.4 7.6 Q-2.2 12.35 2.9 15.75 2.3 17.55 1.0 18.5 -0.95 19.95 -3.5 19.45 M-23.1 -18.8 Q-24.4 -21.05 -23.9 -23.75 -23.4 -26.35 -21.45 -27.95 -19.5 -29.55 -17.15 -29.25 -18.25 -22.45 -17.4 -16.1 -18.35 -15.95 -19.35 -16.1 -21.75 -16.55 -23.1 -18.8 M-27.4 -8.25 Q-28.0 -5.9 -30.25 -4.7 -32.55 -3.45 -35.2 -4.05 -35.35 -10.05 -33.5 -15.75 L-32.5 -15.55 Q-29.85 -14.9 -28.35 -12.8 -26.85 -10.65 -27.4 -8.25" fill="#000000" fill-opacity="0.2" fill-rule="evenodd" stroke="none"/>
    <path d="M-35.05 -2.15 Q-35.9 -11.95 -31.3 -21.1 -35.4 -4.05 -21.9 14.15 -10.75 29.15 4.6 29.8 15.85 30.3 28.35 23.1 34.2 23.0 38.05 21.9 28.9 30.85 16.5 35.35 -8.4 44.4 -24.9 22.2 -34.05 9.85 -35.05 -2.15" fill="#000000" fill-opacity="0.14901961" fill-rule="evenodd" stroke="none"/>
    <path d="M1.05 22.8 Q5.2 20.4 5.45 17.3 11.15 20.6 17.85 22.05 16.5 27.65 12.7 31.7 8.35 36.3 1.65 37.85 -13.7 37.25 -24.9 22.2 L-28.05 17.55 Q-28.75 13.35 -28.1 9.4 -26.25 -1.9 -16.05 -9.5 -13.8 -1.8 -8.85 4.65 L-10.8 6.8 Q-13.8 11.2 -12.45 17.0 -11.1 22.75 -6.9 24.05 -3.2 25.2 1.05 22.8" fill="#000000" fill-opacity="0.14901961" fill-rule="evenodd" stroke="none"/>
    <path d="M10.9 -20.45 Q16.85 -22.4 21.25 -25.75 21.65 -24.55 21.6 -22.95 21.5 -19.8 19.15 -17.85 16.8 -15.9 13.6 -17.95 12.05 -19.0 10.9 -20.45" fill="#ffffff" fill-rule="evenodd" stroke="none"/>
    <path d="M10.9 -20.45 Q16.85 -22.4 21.25 -25.75 21.65 -24.55 21.6 -22.95 21.5 -19.8 19.15 -17.85 16.8 -15.9 13.6 -17.95 12.05 -19.0 10.9 -20.45 Z" fill="none" stroke="#222541" stroke-linecap="round" stroke-linejoin="round" stroke-width="1.1"/>
    <path d="M11.8 -20.5 Q20.9 -18.9 23.5 -15.5 25.65 -12.7 21.6 -8.75 16.75 -4.05 6.25 -3.55 1.3 -3.25 -2.85 -2.25 -11.15 -0.2 -13.85 4.15 -16.65 8.65 -15.4 14.35 -14.1 20.1 -9.95 21.4 -5.95 22.65 -1.45 19.75 2.95 16.9 2.4 13.75 5.35 11.6 9.15 11.95 12.8 12.25 15.4 14.6 15.35 23.6 8.9 29.8 1.2 37.15 -12.1 35.75 -21.05 34.8 -26.95 25.65 -32.75 16.6 -31.15 6.7 -28.7 -8.35 -10.9 -17.15 0.0 -22.55 11.8 -20.5" fill="#8592fc" fill-rule="evenodd" stroke="none"/>
    <path d="M1.0 -17.9 Q-4.15 -17.05 -9.25 -14.45 -14.4 -11.85 -18.35 -8.6 -22.65 -5.0 -25.2 -0.55 -26.55 1.8 -27.25 4.25 -28.1 7.05 -28.3 9.4 -28.75 14.65 -27.0 19.95 -25.3 25.2 -21.7 29.55 L-22.5 30.4 Q-26.8 26.35 -29.05 20.75 -31.35 15.1 -31.05 9.25 -30.65 3.3 -27.75 -2.0 -25.05 -6.9 -20.2 -10.85 -16.2 -14.1 -10.45 -16.95 -5.1 -19.55 0.65 -20.3 6.65 -21.15 12.25 -20.05 15.05 -19.55 17.85 -18.45 19.4 -17.9 20.55 -17.2 L21.85 -16.45 23.2 -15.3 22.3 -14.6 Q21.7 -15.15 19.9 -16.0 L17.3 -17.0 11.9 -18.15 6.4 -18.45 1.0 -17.9" fill="#c6e3fe" fill-rule="evenodd" stroke="none"/>
    <path d="M-15.95 10.65 Q-20.2 12.05 -21.9 12.25 -27.15 12.95 -30.9 10.45" fill="none" stroke="#4e5495" stroke-linecap="butt" stroke-linejoin="miter-clip" stroke-miterlimit="10.0" stroke-width="1.1"/>
    <path d="M-10.25 -0.15 Q-13.45 -2.7 -14.8 -4.3 -18.2 -8.4 -18.05 -12.9" fill="none" stroke="#4e5495" stroke-linecap="butt" stroke-linejoin="miter-clip" stroke-miterlimit="10.0" stroke-width="1.1"/>
    <path d="M3.9 33.0 Q4.25 31.35 3.7 28.85 2.6 23.9 -1.8 19.95" fill="none" stroke="#4e5495" stroke-linecap="butt" stroke-linejoin="miter-clip" stroke-miterlimit="10.0" stroke-width="1.1"/>
    <path d="M-20.5 32.35 Q-18.75 31.55 -16.8 29.65 -12.95 25.9 -12.15 20.5" fill="none" stroke="#4e5495" stroke-linecap="butt" stroke-linejoin="miter-clip" stroke-miterlimit="10.0" stroke-width="1.1"/>
    <path d="M21.35 -11.55 Q22.55 -10.45 21.7 -9.3 L19.55 -7.05 Q14.4 -3.95 6.25 -3.55 1.3 -3.25 -2.85 -2.25 -11.15 -0.2 -13.85 4.15 -16.65 8.65 -15.4 14.35 -14.1 20.1 -9.95 21.4 L-4.55 21.25 Q-1.8 20.35 0.2 18.5 L-0.6 21.3 Q-2.4 24.35 -7.25 25.3 -12.25 26.35 -16.4 23.1 -20.45 19.9 -21.4 14.45 -21.95 11.25 -21.35 7.2 -20.75 3.05 -19.25 0.45 -15.35 -6.15 -8.5 -9.7 -4.2 -11.95 2.25 -13.3 -1.35 -13.8 -2.65 -18.55 -3.25 -20.9 -3.2 -23.2 1.55 -21.6 10.25 -19.85 L9.5 -17.65 Q8.4 -15.25 6.5 -14.15 10.45 -14.75 14.8 -14.05 19.35 -13.3 21.35 -11.55" fill="#000000" fill-opacity="0.14901961" fill-rule="evenodd" stroke="none"/>
    <path d="M9.7 12.0 Q13.05 12.45 15.4 14.6 15.35 23.6 8.9 29.8 1.2 37.15 -12.1 35.75 -17.8 35.15 -22.75 30.65 -13.65 34.15 -5.8 32.05 3.55 29.6 7.6 23.6 11.2 18.25 9.7 12.0" fill="#000000" fill-opacity="0.14901961" fill-rule="evenodd" stroke="none"/>
    <path d="M9.75 -6.8 L1.35 -5.95 -2.85 -4.9 Q-4.15 -6.15 -4.6 -9.7 L-4.85 -13.0 Q-0.7 -10.85 5.3 -10.2 L10.5 -9.95 Q9.9 -9.2 9.75 -7.9 L9.75 -6.8" fill="#ffffff" fill-rule="evenodd" stroke="none"/>
    <path d="M9.75 -6.8 L9.75 -7.9 Q9.9 -9.2 10.5 -9.95 L5.3 -10.2 Q-0.7 -10.85 -4.85 -13.0 L-4.6 -9.7 Q-4.15 -6.15 -2.85 -4.9 L1.35 -5.95 9.75 -6.8 Z" fill="none" stroke="#222640" stroke-linecap="butt" stroke-linejoin="miter-clip" stroke-miterlimit="4.0" stroke-width="1.1"/>
    <path d="M-3.8 -8.9 L1.6 -8.75" fill="none" stroke="#4e5495" stroke-linecap="butt" stroke-linejoin="miter-clip" stroke-miterlimit="10.0" stroke-width="1.1"/>
    <path d="M2.7 13.4 Q5.55 11.65 9.05 11.95 12.4 12.3 14.9 14.4" fill="none" stroke="#4e5495" stroke-linecap="butt" stroke-linejoin="miter-clip" stroke-miterlimit="10.0" stroke-width="1.1"/>
    <path d="M-3.25 8.45 Q-3.7 5.45 -2.05 2.45 -0.5 -0.45 2.15 -1.8" fill="none" stroke="#4e5495" stroke-linecap="butt" stroke-linejoin="miter-clip" stroke-miterlimit="10.0" stroke-width="1.1"/>
    <path d="M15.4 13.85 Q15.35 23.0 8.9 29.45 1.15 37.1 -12.1 35.75 -21.05 34.8 -26.95 25.65 -32.75 16.6 -31.15 6.7 -28.7 -8.35 -10.9 -17.15 0.0 -22.55 11.8 -20.5 20.9 -18.9 23.5 -15.5 25.65 -12.7 21.6 -8.75 16.75 -4.05 6.25 -3.55 1.3 -3.25 -2.85 -2.25 -11.15 -0.2 -13.85 4.15 -16.65 8.65 -15.4 14.35 -14.1 20.1 -9.95 21.4 -5.95 22.65 -1.45 19.75 2.95 16.9 2.4 13.75 L2.15 12.9" fill="none" stroke="#222640" stroke-linecap="butt" stroke-linejoin="miter-clip" stroke-miterlimit="4.0" stroke-width="1.1"/>
    <path d="M1.9 -15.55 Q-2.55 -15.25 -4.2 -20.35 -5.0 -22.9 -4.9 -25.55 -3.55 -24.75 -1.15 -23.75 3.65 -21.75 9.1 -20.65 8.65 -19.45 7.55 -18.25 5.3 -15.8 1.9 -15.55" fill="#ffffff" fill-rule="evenodd" stroke="none"/>
    <path d="M1.9 -15.55 Q-2.55 -15.25 -4.2 -20.35 -5.0 -22.9 -4.9 -25.55 -3.55 -24.75 -1.15 -23.75 3.65 -21.75 9.1 -20.65 8.65 -19.45 7.55 -18.25 5.3 -15.8 1.9 -15.55 Z" fill="none" stroke="#222541" stroke-linecap="round" stroke-linejoin="round" stroke-width="1.1"/>
  </g>
</svg>
