<?xml version="1.0" encoding="UTF-8" standalone="no"?>
<svg xmlns:ffdec="https://www.free-decompiler.com/flash" xmlns:xlink="http://www.w3.org/1999/xlink" ffdec:objectType="shape" height="80.5px" width="119.5px" xmlns="http://www.w3.org/2000/svg">
  <g transform="matrix(1.0, 0.0, 0.0, 1.0, 0.0, 0.0)">
    <path d="M119.5 8.0 L119.5 72.5 Q119.5 75.8 117.15 78.15 114.8 80.5 111.5 80.5 L7.95 80.5 Q4.65 80.5 2.35 78.15 0.0 75.8 0.0 72.5 L0.0 8.0 Q0.0 4.7 2.35 2.35 4.65 0.0 7.95 0.0 L111.5 0.0 Q114.8 0.0 117.15 2.35 119.5 4.7 119.5 8.0" fill="#000000" fill-rule="evenodd" stroke="none"/>
    <path d="M29.65 16.6 L29.6 16.55 26.4 36.2 Q25.1 43.75 21.5 53.85 29.1 44.85 32.15 36.6 36.7 24.3 29.65 16.6 M84.85 28.7 L77.25 28.25 Q73.8 27.45 68.15 22.45 62.05 17.1 57.0 15.35 48.0 12.25 39.0 13.3 36.05 13.6 33.45 14.35 L31.4 15.0 Q41.4 25.95 31.3 44.05 26.25 53.1 19.2 59.95 L21.85 59.4 28.6 58.35 Q41.1 56.9 48.9 59.45 54.7 61.3 65.2 66.55 74.9 70.65 83.65 69.65 L85.2 69.45 Q89.75 68.75 93.65 66.6 95.6 65.55 96.65 64.65 L92.75 65.45 90.25 65.6 85.15 65.3 83.05 64.9 84.4 64.75 Q90.15 64.2 94.55 61.9 97.0 60.6 98.9 58.05 L92.6 58.5 87.75 58.2 Q85.95 57.6 87.5 56.1 89.15 54.45 93.0 54.0 L102.35 53.7 Q101.1 52.7 98.6 51.7 93.65 49.6 87.5 49.4 L90.65 49.15 Q97.45 48.4 102.75 45.7 105.4 44.3 106.7 43.1 L97.9 44.45 93.35 44.8 Q89.3 44.95 89.4 43.3 89.45 41.75 92.05 41.2 L95.0 40.75 102.75 40.15 Q101.75 38.8 97.65 37.4 95.1 36.55 91.15 36.4 L87.75 36.4 Q95.65 35.1 100.45 31.25 102.9 29.35 103.7 27.7 97.55 30.4 93.9 31.0 L87.25 32.15 Q89.7 31.65 92.05 30.2 96.3 27.65 97.3 23.15 L93.95 25.6 Q89.65 28.15 84.85 28.7 M77.8 25.95 L84.6 26.35 Q88.85 25.85 92.65 23.6 L95.65 21.45 101.3 15.9 99.6 23.65 Q99.25 25.65 98.2 27.3 L102.7 25.5 108.7 22.85 105.8 28.75 104.2 31.0 Q102.0 33.45 98.65 35.25 103.2 36.85 104.65 38.7 L106.25 40.75 114.4 39.1 Q112.9 40.85 110.3 43.0 105.1 47.35 99.65 49.55 104.65 51.8 110.0 56.65 L103.2 56.1 100.8 59.4 99.5 61.0 96.5 63.5 102.25 62.1 98.2 66.45 Q96.0 68.55 93.9 69.5 90.95 70.95 85.55 71.8 L83.9 72.0 Q76.9 72.8 69.9 70.75 65.85 69.55 58.25 65.95 51.35 62.7 48.2 61.7 41.0 59.4 28.85 60.7 L22.35 61.7 19.75 62.25 18.15 62.6 17.25 64.65 18.1 67.45 Q18.55 70.45 16.25 71.65 15.2 72.2 14.2 70.1 L13.4 67.9 Q12.35 68.7 11.15 69.1 8.75 70.0 7.95 68.35 7.25 66.95 9.15 65.3 10.35 64.3 12.2 63.45 L12.85 62.8 Q19.45 49.25 22.5 32.3 23.75 25.2 24.55 14.95 24.65 13.05 22.7 10.35 21.05 8.05 21.9 6.6 22.95 4.85 25.25 6.55 L27.4 8.6 29.7 6.85 Q32.25 5.3 33.3 6.5 34.35 7.7 32.35 10.35 L30.15 12.75 30.1 13.0 30.5 12.85 32.8 12.1 Q35.6 11.3 38.75 10.95 48.4 9.9 57.8 13.1 61.4 14.4 64.75 16.7 L69.95 20.9 73.8 24.05 Q75.85 25.5 77.8 25.95" fill="#ffffff" fill-rule="evenodd" stroke="none"/>
  </g>
</svg>
