<?xml version="1.0" encoding="UTF-8" standalone="no"?>
<svg xmlns:ffdec="https://www.free-decompiler.com/flash" xmlns:xlink="http://www.w3.org/1999/xlink" ffdec:objectType="shape" height="91.15px" width="92.35px" xmlns="http://www.w3.org/2000/svg">
  <g transform="matrix(1.0, 0.0, 0.0, 1.0, 46.15, 45.55)">
    <path d="M23.35 -9.45 L30.45 -12.35 Q32.95 -6.15 32.85 0.45 32.8 6.9 30.3 12.8 L23.2 9.8 Q25.15 5.3 25.2 0.4 25.3 -4.7 23.35 -9.45" fill="#fea749" fill-rule="evenodd" stroke="none"/>
    <path d="M9.5 23.35 L12.4 30.45 Q6.2 32.95 -0.4 32.85 -6.8 32.8 -12.75 30.3 L-9.75 23.2 Q-5.25 25.15 -0.35 25.2 4.75 25.3 9.5 23.35" fill="#fea749" fill-rule="evenodd" stroke="none"/>
    <path d="M0.45 -32.8 Q6.9 -32.75 12.8 -30.25 L9.8 -23.15 Q5.3 -25.1 0.4 -25.15 -4.7 -25.2 -9.45 -23.3 L-12.35 -30.4 Q-6.15 -32.9 0.45 -32.8" fill="#fea749" fill-rule="evenodd" stroke="none"/>
    <path d="M-32.8 -0.4 Q-32.75 -6.8 -30.25 -12.75 L-23.15 -9.75 Q-25.1 -5.25 -25.15 -0.35 -25.2 4.75 -23.3 9.5 L-30.4 12.4 Q-32.9 6.2 -32.8 -0.4" fill="#fea749" fill-rule="evenodd" stroke="none"/>
    <path d="M-9.75 23.2 L-12.75 30.3 Q-18.7 27.75 -23.2 23.25 -27.9 18.6 -30.4 12.4 L-23.3 9.5 Q-21.4 14.25 -17.8 17.85 -14.3 21.3 -9.75 23.2" fill="#894911" fill-rule="evenodd" stroke="none"/>
    <path d="M9.8 -23.15 L12.8 -30.25 Q18.75 -27.7 23.25 -23.2 27.95 -18.55 30.45 -12.35 L23.35 -9.45 Q21.45 -14.2 17.85 -17.8 14.35 -21.25 9.8 -23.15" fill="#894911" fill-rule="evenodd" stroke="none"/>
    <path d="M23.2 9.8 L30.3 12.8 Q27.75 18.75 23.25 23.25 18.6 27.95 12.4 30.45 L9.5 23.35 Q14.25 21.45 17.85 17.85 21.3 14.35 23.2 9.8" fill="#894911" fill-rule="evenodd" stroke="none"/>
    <path d="M-23.15 -9.75 L-30.25 -12.75 Q-27.7 -18.7 -23.2 -23.2 -18.55 -27.9 -12.35 -30.4 L-9.45 -23.3 Q-14.2 -21.4 -17.8 -17.8 -21.25 -14.3 -23.15 -9.75" fill="#894911" fill-rule="evenodd" stroke="none"/>
    <path d="M9.8 -23.15 Q14.35 -21.25 17.85 -17.8 21.45 -14.2 23.35 -9.45 25.3 -4.7 25.2 0.4 25.15 5.3 23.2 9.8 21.3 14.35 17.85 17.85 14.25 21.45 9.5 23.35 4.9 25.2 0.05 25.2 -5.05 25.2 -9.75 23.2 -14.3 21.3 -17.8 17.85 -21.4 14.25 -23.3 9.5 -25.2 4.75 -25.15 -0.35 -25.1 -5.25 -23.15 -9.75 -21.25 -14.3 -17.8 -17.8 -14.2 -21.4 -9.45 -23.3 -4.85 -25.15 0.0 -25.15 5.1 -25.15 9.8 -23.15 M8.95 -21.35 Q4.7 -23.15 0.0 -23.15 -4.55 -23.15 -8.7 -21.45 L-8.75 -21.45 Q-13.0 -19.7 -16.3 -16.45 -19.55 -13.25 -21.35 -9.0 -23.15 -4.7 -23.2 -0.15 -23.2 4.45 -21.45 8.75 -19.7 13.05 -16.5 16.3 -13.3 19.55 -9.0 21.4 -4.65 23.2 0.05 23.2 4.6 23.2 8.75 21.5 13.05 19.75 16.3 16.55 19.55 13.35 21.4 9.05 23.2 4.75 23.25 0.2 23.25 -4.4 21.5 -8.7 19.75 -13.0 16.55 -16.25 13.35 -19.5 9.05 -21.35 L8.95 -21.35 M0.0 -34.8 Q7.15 -34.8 13.55 -32.05 20.0 -29.35 24.85 -24.45 29.65 -19.55 32.3 -13.1 34.95 -6.6 34.9 0.25 34.85 7.15 32.1 13.55 29.4 20.0 24.5 24.85 19.6 29.65 13.15 32.3 L13.1 32.3 Q6.8 34.85 0.05 34.85 -7.1 34.85 -13.5 32.1 -19.95 29.4 -24.8 24.5 -29.6 19.6 -32.25 13.15 -34.9 6.65 -34.85 -0.2 -34.8 -7.1 -32.05 -13.5 -29.35 -19.95 -24.45 -24.8 -19.55 -29.6 -13.1 -32.25 L-13.05 -32.25 Q-6.75 -34.8 0.0 -34.8 M12.8 -30.25 Q6.6 -32.8 0.0 -32.8 -6.45 -32.8 -12.35 -30.4 -18.55 -27.9 -23.2 -23.2 -27.7 -18.7 -30.25 -12.75 -32.75 -6.8 -32.8 -0.4 -32.9 6.2 -30.4 12.4 -27.9 18.6 -23.2 23.25 -18.7 27.75 -12.75 30.3 -6.55 32.85 0.05 32.85 6.5 32.85 12.4 30.45 18.6 27.95 23.25 23.25 27.75 18.75 30.3 12.8 32.8 6.9 32.85 0.45 32.95 -6.15 30.45 -12.35 27.95 -18.55 23.25 -23.2 18.75 -27.7 12.8 -30.25" fill="#072d4e" fill-rule="evenodd" stroke="none"/>
    <path d="M11.5 -4.7 L27.15 -27.1 4.75 -11.45 0.0 -43.55 -4.7 -11.45 -27.1 -27.1 -11.45 -4.7 -44.15 0.0 -11.45 4.75 -27.1 27.15 -4.7 11.5 0.0 43.6 4.75 11.5 27.15 27.15 11.5 4.75 44.2 0.0 11.5 -4.7 M29.15 -27.3 Q29.2 -26.55 28.8 -25.95 L15.0 -6.25 44.5 -1.95 Q45.2 -1.85 45.7 -1.25 46.2 -0.7 46.2 0.0 46.2 0.75 45.7 1.3 45.2 1.9 44.5 2.0 L15.0 6.3 28.8 26.0 Q29.2 26.6 29.15 27.35 29.1 28.05 28.55 28.55 28.05 29.15 27.15 29.15 L26.0 28.8 6.3 15.0 2.0 43.9 Q1.9 44.65 1.3 45.15 0.75 45.6 0.0 45.6 -0.7 45.6 -1.25 45.15 -1.85 44.65 -1.95 43.9 L-6.25 15.0 -25.95 28.8 Q-26.45 29.15 -27.1 29.15 -27.95 29.15 -28.5 28.55 -29.0 28.05 -29.1 27.35 -29.15 26.6 -28.75 26.0 L-14.95 6.3 -44.45 2.0 -45.65 1.3 Q-46.15 0.75 -46.15 0.0 -46.15 -0.7 -45.65 -1.25 L-44.45 -1.95 -14.95 -6.25 -28.75 -25.95 Q-29.15 -26.55 -29.1 -27.3 -29.0 -28.0 -28.5 -28.5 -27.95 -29.1 -27.1 -29.1 -26.45 -29.1 -25.95 -28.75 L-6.25 -14.95 -1.95 -43.85 Q-1.85 -44.6 -1.25 -45.05 -0.7 -45.55 0.0 -45.55 0.75 -45.55 1.3 -45.05 1.9 -44.6 2.0 -43.85 L6.3 -14.95 26.0 -28.75 27.15 -29.1 Q28.05 -29.1 28.55 -28.5 29.1 -28.0 29.15 -27.3" fill="#072d4e" fill-rule="evenodd" stroke="none"/>
    <path d="M11.5 -4.7 L44.2 0.0 11.5 4.75 27.15 27.15 4.75 11.5 0.0 43.6 -4.7 11.5 -27.1 27.15 -11.45 4.75 -44.15 0.0 -11.45 -4.7 -27.1 -27.1 -4.7 -11.45 0.0 -43.55 4.75 -11.45 27.15 -27.1 11.5 -4.7" fill="#fea749" fill-rule="evenodd" stroke="none"/>
    <path d="M11.35 -11.3 Q16.05 -6.65 16.05 0.0 16.05 6.7 11.35 11.35 6.7 16.05 0.0 16.05 -6.65 16.05 -11.3 11.35 -16.0 6.65 -16.0 0.0 -16.0 -6.65 -11.3 -11.3 -6.65 -16.0 0.0 -16.0 6.65 -16.0 11.35 -11.3" fill="#894911" fill-rule="evenodd" stroke="none"/>
    <path d="M11.35 -11.3 Q16.05 -6.65 16.05 0.0 16.05 6.7 11.35 11.35 6.7 16.05 0.0 16.05 -6.65 16.05 -11.3 11.35 -16.0 6.65 -16.0 0.0 -16.0 -6.65 -11.3 -11.3 -6.65 -16.0 0.0 -16.0 6.65 -16.0 11.35 -11.3 Z" fill="none" stroke="#072d4e" stroke-linecap="butt" stroke-linejoin="round" stroke-width="2.0"/>
    <path d="M7.55 -7.5 Q10.7 -4.4 10.7 0.0 10.7 4.45 7.55 7.55 4.45 10.7 0.0 10.7 -4.4 10.7 -7.5 7.55 -10.65 4.4 -10.65 0.0 -10.65 -4.4 -7.5 -7.5 -4.4 -10.65 0.0 -10.65 4.4 -10.65 7.55 -7.5" fill="#fea749" fill-rule="evenodd" stroke="none"/>
    <path d="M7.55 -7.5 Q10.7 -4.4 10.7 0.0 10.7 4.45 7.55 7.55 4.45 10.7 0.0 10.7 -4.4 10.7 -7.5 7.55 -10.65 4.4 -10.65 0.0 -10.65 -4.4 -7.5 -7.5 -4.4 -10.65 0.0 -10.65 4.4 -10.65 7.55 -7.5 Z" fill="none" stroke="#072d4e" stroke-linecap="butt" stroke-linejoin="miter-clip" stroke-miterlimit="10.0" stroke-width="2.0"/>
  </g>
</svg>
