<?xml version="1.0" encoding="UTF-8" standalone="no"?>
<svg xmlns:ffdec="https://www.free-decompiler.com/flash" xmlns:xlink="http://www.w3.org/1999/xlink" ffdec:objectType="shape" height="481.0px" width="641.0px" xmlns="http://www.w3.org/2000/svg">
  <g transform="matrix(1.0, 0.0, 0.0, 1.0, 0.5, 0.5)">
    <path d="M19.0 114.5 Q19.25 116.3 18.25 118.85 17.3 121.4 16.25 121.5 15.35 121.6 15.2 119.7 L15.0 116.0 14.45 112.2 Q14.3 110.15 15.25 110.0 16.3 109.9 17.5 111.35 18.75 112.8 19.0 114.5" fill="#70aad4" fill-opacity="0.49803922" fill-rule="evenodd" stroke="none"/>
    <path d="M19.0 114.5 Q19.25 116.3 18.25 118.85 17.3 121.4 16.25 121.5 15.35 121.6 15.2 119.7 L15.0 116.0 14.45 112.2 Q14.3 110.15 15.25 110.0 16.3 109.9 17.5 111.35 18.75 112.8 19.0 114.5 Z" fill="none" stroke="#abf0ff" stroke-linecap="butt" stroke-linejoin="miter-clip" stroke-miterlimit="4.0" stroke-width="1.0"/>
    <path d="M0.0 0.0 L640.0 0.0 640.0 480.0 0.0 480.0 0.0 0.0 M626.65 22.75 Q626.0 20.4 623.95 18.25 622.55 20.1 620.6 20.15 L616.95 20.5 Q615.8 20.95 614.4 22.5 L613.75 23.2 612.9 24.8 Q612.25 25.7 612.25 26.5 612.25 27.35 612.95 28.8 L613.6 30.9 Q613.6 31.55 612.8 33.3 611.95 35.1 611.85 36.75 611.55 44.3 608.7 44.45 605.85 44.55 605.85 36.75 L605.25 35.4 Q604.6 33.95 604.6 32.75 604.6 31.8 605.2 30.3 605.8 28.85 605.75 27.65 605.65 26.45 604.9 24.95 604.15 23.45 604.1 22.75 604.05 22.0 604.3 21.05 L604.75 19.5 Q603.1 16.85 601.55 16.2 599.5 15.3 595.55 14.75 L595.5 16.9 Q595.5 18.65 596.2 19.7 596.85 20.75 596.85 21.85 596.85 23.2 596.25 24.15 595.6 25.25 595.35 27.15 595.2 28.45 595.75 29.25 596.3 30.05 596.1 31.25 595.9 32.55 595.4 33.15 594.9 33.7 594.85 34.45 594.8 35.1 595.6 36.1 596.45 37.05 596.35 38.5 596.3 39.8 595.55 41.2 594.8 42.55 594.75 44.05 L594.5 49.25 Q594.5 56.35 591.75 56.45 588.95 56.6 588.45 49.25 588.35 47.2 587.75 45.85 587.15 44.4 587.1 43.85 587.0 42.8 587.55 41.2 L588.35 37.85 Q588.55 36.45 587.45 34.15 586.4 31.8 586.5 30.2 586.65 28.75 587.15 27.5 587.55 26.5 587.5 24.9 587.4 23.25 586.5 21.8 585.6 20.4 585.6 19.45 585.55 18.25 585.95 17.3 L587.05 14.3 580.3 14.2 580.2 17.25 Q584.6 26.95 579.6 44.5 L579.3 45.65 579.4 48.5 579.35 49.4 Q579.3 50.9 579.75 54.45 580.2 57.7 579.95 59.6 L578.7 65.2 Q577.7 68.85 577.5 70.8 577.25 72.85 577.75 77.25 578.2 81.25 577.75 83.65 577.45 85.25 577.7 87.2 L578.1 90.4 Q578.3 92.7 577.7 94.2 L576.75 98.2 Q576.0 100.7 574.45 101.45 571.85 102.7 570.5 99.35 569.6 97.0 569.75 92.65 569.95 87.4 569.7 85.8 L569.5 82.25 569.55 78.7 569.55 71.1 569.2 63.5 Q568.25 54.75 568.45 48.4 568.55 44.2 567.55 37.3 566.35 28.8 566.2 26.25 566.1 24.95 566.65 23.25 L567.55 20.4 567.65 14.3 561.35 14.65 555.1 14.8 Q550.85 14.8 542.9 13.2 534.35 11.5 530.6 11.3 527.7 11.15 517.9 11.5 L505.2 10.9 493.0 9.3 Q486.25 8.8 480.75 9.55 L468.6 11.7 456.4 13.2 454.3 13.3 448.0 14.0 Q443.4 14.95 436.25 13.8 L424.5 12.05 419.45 11.9 418.6 13.35 Q418.0 14.2 418.0 15.0 418.0 15.85 418.7 17.3 L419.35 19.4 Q419.35 20.05 418.55 21.8 417.7 23.6 417.6 25.25 417.3 32.8 414.45 32.95 411.6 33.05 411.6 25.25 L411.0 23.9 Q410.35 22.45 410.35 21.25 410.35 20.3 410.95 18.8 411.55 17.35 411.5 16.15 411.4 14.85 410.65 13.45 L402.95 14.45 403.55 15.25 Q403.9 15.75 403.85 16.5 403.85 17.55 403.25 18.3 402.6 19.15 402.35 20.7 402.2 21.75 402.75 22.35 403.3 23.0 403.1 23.95 402.9 25.0 402.4 25.45 401.9 25.9 401.85 26.5 401.8 27.05 402.6 27.8 403.45 28.55 403.35 29.7 403.3 30.75 402.55 31.85 401.8 32.9 401.75 34.1 L401.5 38.25 Q401.5 43.9 398.75 43.95 395.95 44.05 395.45 38.25 395.35 36.65 394.75 35.55 394.15 34.4 394.1 33.95 394.0 33.1 394.55 31.85 L395.35 29.2 Q395.5 28.1 394.45 26.25 393.4 24.4 393.5 23.1 393.65 21.95 394.15 21.0 394.55 20.25 394.5 18.95 394.4 17.65 393.5 16.5 392.6 15.35 392.6 14.6 L392.65 13.7 Q388.55 12.8 384.95 11.15 L382.6 11.2 373.65 11.55 369.05 12.0 363.7 12.5 362.85 13.8 Q362.35 14.55 362.35 15.25 362.35 16.1 363.05 17.55 L363.75 19.65 362.9 22.05 Q362.05 23.85 362.0 25.5 361.7 33.05 358.85 33.2 355.95 33.3 355.95 25.5 L355.35 24.15 Q354.75 22.7 354.75 21.5 354.75 20.6 355.35 19.05 355.95 17.6 355.85 16.4 355.8 15.35 355.35 14.35 L354.55 12.7 327.45 11.05 Q311.75 10.4 301.05 13.65 L296.7 13.3 290.3 11.65 Q286.3 10.55 283.85 10.4 L283.1 10.35 283.35 11.5 284.5 14.8 Q284.9 15.8 284.85 17.1 284.8 18.1 283.9 19.65 283.05 21.15 282.95 22.9 282.9 24.65 283.3 25.65 283.8 27.0 283.95 28.5 284.1 30.2 283.0 32.75 281.95 35.15 282.1 36.65 282.25 38.05 282.9 40.2 283.45 41.9 283.35 43.05 L282.7 45.15 Q282.1 46.6 282.0 48.75 281.5 56.55 278.7 56.45 275.95 56.3 275.95 48.75 L275.7 43.25 Q275.7 41.7 274.9 40.25 274.1 38.7 274.05 37.35 274.0 35.8 274.85 34.75 275.65 33.75 275.6 33.0 275.55 32.2 275.05 31.65 274.55 31.05 274.35 29.65 274.15 28.35 274.7 27.5 275.3 26.65 275.1 25.25 274.85 23.2 274.2 22.05 273.65 21.05 273.6 19.65 273.6 18.5 274.25 17.4 274.95 16.25 274.95 14.4 L274.85 11.2 267.2 12.65 267.5 14.0 Q267.45 14.75 266.6 15.9 265.85 16.95 265.85 17.75 265.85 18.6 266.55 20.05 267.25 21.5 267.25 22.15 L266.4 24.55 Q265.55 26.35 265.5 28.0 265.2 35.55 262.35 35.7 259.45 35.8 259.45 28.0 L258.85 26.65 Q258.25 25.2 258.25 24.0 258.25 23.1 258.85 21.55 259.45 20.1 259.35 18.9 259.3 17.7 258.55 16.2 257.8 14.7 257.75 14.0 L257.75 13.35 Q249.3 13.7 238.75 13.6 L234.15 13.55 Q230.2 11.9 226.25 11.5 221.7 11.0 217.9 12.15 L216.45 12.65 Q213.55 13.55 210.6 13.85 L205.35 14.2 204.0 13.95 Q200.0 13.25 196.4 11.05 L194.45 11.1 193.5 11.25 180.45 12.45 167.0 13.25 165.45 13.4 140.2 14.35 114.9 13.6 104.5 13.05 Q98.25 12.75 94.05 12.9 L86.5 13.9 87.15 15.45 87.5 17.0 Q87.45 17.75 86.6 18.9 85.85 19.95 85.85 20.75 85.85 21.6 86.55 23.05 87.25 24.5 87.25 25.15 L86.4 27.55 Q85.55 29.35 85.5 31.0 85.2 38.55 82.35 38.7 79.45 38.8 79.45 31.0 L78.85 29.65 Q78.25 28.2 78.25 27.0 78.25 26.1 78.85 24.55 79.45 23.1 79.35 21.9 79.3 20.7 78.55 19.2 77.8 17.7 77.75 17.0 77.65 16.15 77.9 15.4 L76.4 15.55 67.2 14.9 58.1 13.55 52.65 12.55 52.5 16.4 Q52.5 18.25 53.2 19.4 53.85 20.5 53.85 21.65 53.85 23.05 53.25 24.05 52.6 25.2 52.35 27.25 52.2 28.65 52.75 29.5 53.3 30.35 53.1 31.65 52.9 33.05 52.4 33.65 51.9 34.2 51.85 35.0 51.8 35.75 52.6 36.75 53.45 37.8 53.35 39.35 53.3 40.75 52.55 42.25 51.8 43.7 51.75 45.25 L51.5 50.75 Q51.5 58.3 48.75 58.45 45.95 58.55 45.45 50.75 45.35 48.6 44.75 47.15 44.15 45.65 44.1 45.05 44.0 43.9 44.55 42.2 L45.35 38.65 Q45.5 37.15 44.45 34.75 43.4 32.2 43.5 30.5 43.65 29.0 44.15 27.65 44.55 26.65 44.5 24.9 44.4 23.15 43.5 21.65 42.6 20.1 42.6 19.1 42.55 17.8 42.95 16.8 L44.1 13.5 Q44.5 12.1 44.5 10.8 L39.9 11.1 Q36.25 12.05 33.25 13.1 L33.0 15.0 Q32.85 16.1 33.65 16.75 34.5 17.5 34.35 19.5 34.2 21.5 33.6 21.9 32.95 22.25 32.85 23.5 32.7 24.95 33.75 28.65 34.85 32.55 34.85 33.9 34.85 35.25 33.65 38.1 32.35 41.35 31.85 46.65 31.65 48.8 32.65 50.3 33.65 51.85 33.6 53.5 33.55 55.4 32.75 56.85 31.9 58.5 31.75 59.75 31.1 64.7 31.1 71.15 31.1 72.85 32.05 74.55 33.05 76.3 33.1 78.0 33.2 80.9 32.1 83.95 31.0 87.1 31.0 87.5 31.0 91.0 30.2 91.95 L28.75 93.25 Q28.15 97.85 27.05 99.2 25.8 100.65 24.0 97.95 22.6 95.75 21.85 90.95 20.4 90.2 20.4 88.35 20.4 86.95 21.4 86.05 L21.25 78.7 Q19.65 77.9 19.65 75.95 19.65 74.1 21.2 73.3 L20.85 61.0 Q19.9 60.75 19.25 59.25 18.6 57.75 18.5 55.7 18.4 53.65 18.95 52.05 19.55 50.5 20.45 50.2 L20.35 47.55 Q19.15 46.7 19.15 45.1 19.15 43.7 20.15 42.8 L20.0 39.2 Q19.15 38.7 18.55 37.0 17.95 35.2 17.85 32.95 17.8 30.7 18.2 28.95 18.65 27.2 19.4 26.55 L19.2 21.95 Q17.85 23.7 17.35 25.45 16.0 29.9 15.9 36.9 L15.75 48.5 13.6 79.25 Q12.55 97.25 13.55 110.0 13.8 113.55 15.5 123.75 16.95 132.35 16.9 137.55 16.9 141.35 15.95 146.5 L14.15 155.4 Q13.8 157.35 13.75 164.25 13.65 169.65 12.3 172.9 L9.05 179.25 Q7.35 182.8 8.2 186.15 8.55 187.5 10.0 189.8 11.5 192.1 11.85 193.45 13.0 197.8 12.9 206.1 12.8 216.7 13.0 219.0 13.4 224.25 12.85 232.15 L12.7 233.9 10.35 236.6 Q9.35 238.05 10.0 239.85 L10.15 240.65 Q10.65 241.5 12.0 242.25 L11.95 243.45 10.75 257.8 Q10.3 265.6 11.95 271.85 14.5 281.3 14.55 296.55 L14.1 321.55 Q14.15 339.05 13.05 374.05 12.95 377.65 13.45 386.15 13.9 393.85 13.55 398.25 13.25 402.35 14.55 408.05 L16.85 417.7 Q18.55 426.75 17.7 441.4 L16.25 448.45 Q14.75 454.5 14.4 457.85 13.1 469.5 21.5 469.5 26.05 469.5 28.55 466.0 30.35 463.5 31.5 458.25 33.05 451.2 33.3 450.5 34.55 447.0 37.0 447.0 39.45 447.0 40.65 450.45 41.15 452.0 42.1 458.1 42.95 463.35 44.15 465.65 45.95 469.1 49.5 469.0 L71.9 466.2 Q87.95 463.85 92.55 464.65 98.5 465.75 107.05 466.05 L121.65 466.45 Q142.1 467.3 158.25 464.5 165.2 463.25 173.55 464.1 L188.65 466.05 Q192.15 466.45 201.45 465.8 L213.9 466.25 Q214.4 466.35 218.15 467.8 220.35 468.65 222.65 468.35 224.4 468.1 227.15 467.05 L231.6 465.45 Q236.75 463.95 246.1 466.2 257.15 468.85 260.95 468.75 267.5 468.6 280.4 468.6 291.75 468.4 299.8 467.05 L311.25 466.25 Q316.55 466.5 322.4 468.25 333.2 471.4 351.3 468.4 L365.85 466.1 380.6 465.6 Q387.65 466.25 397.25 465.8 L402.8 465.45 435.9 464.4 Q456.45 463.0 468.55 465.6 L473.75 466.6 487.4 468.75 Q494.9 469.55 501.35 469.05 L506.1 468.45 Q518.95 466.25 536.05 465.35 L566.4 464.35 570.3 464.7 Q574.5 465.2 578.0 466.2 582.0 467.35 590.85 470.4 598.7 472.35 603.95 469.65 606.6 468.25 608.6 456.45 610.5 445.3 613.05 445.3 615.35 445.3 618.4 450.15 619.55 452.05 620.35 452.35 621.4 452.8 622.7 450.9 623.95 449.05 625.0 446.4 626.05 443.7 626.2 441.7 626.4 439.25 627.9 435.65 L630.05 429.7 Q630.7 426.85 630.35 422.75 L629.75 415.75 629.25 405.25 Q629.05 399.1 629.55 394.75 630.05 390.4 631.25 387.05 L633.3 380.8 Q634.15 377.4 633.85 374.3 633.65 372.4 632.55 368.1 631.55 364.15 631.4 361.9 631.25 359.6 631.65 355.3 L632.05 348.65 630.65 334.4 Q629.9 325.95 631.7 320.3 633.6 314.35 633.85 308.7 634.1 303.95 633.2 296.8 632.8 293.7 630.9 288.0 629.0 282.15 628.55 279.25 628.1 276.25 629.1 271.45 630.2 266.2 630.1 263.8 L628.85 255.4 Q628.15 250.9 629.5 247.0 630.7 243.55 631.1 239.35 631.6 234.35 630.45 231.35 L628.0 225.0 Q626.6 221.9 626.5 220.15 626.4 218.25 627.55 215.75 629.85 210.85 629.25 200.1 L627.6 184.05 Q626.75 175.5 626.7 171.25 626.6 164.65 627.75 158.4 L629.15 149.65 Q629.6 144.8 629.15 140.85 628.8 137.85 626.8 131.3 625.0 125.15 624.75 121.7 624.45 116.9 627.7 113.6 631.95 109.3 632.75 107.0 634.1 103.2 631.5 98.65 627.95 93.75 626.6 91.3 625.1 88.6 624.8 85.25 624.55 82.85 624.9 79.0 L625.85 71.6 Q627.3 58.3 627.4 54.95 627.75 45.1 625.4 37.85 L625.4 34.7 Q625.7 29.6 626.9 25.05 L626.65 22.75" fill="#70aad4" fill-opacity="0.6509804" fill-rule="evenodd" stroke="none"/>
    <path d="M626.65 22.75 Q626.0 20.4 623.95 18.25 622.55 20.1 620.6 20.15 L616.95 20.5 Q615.8 20.95 614.4 22.5 L613.75 23.2 612.9 24.8 Q612.25 25.7 612.25 26.5 612.25 27.35 612.95 28.8 L613.6 30.9 Q613.6 31.55 612.8 33.3 611.95 35.1 611.85 36.75 611.55 44.3 608.7 44.45 605.85 44.55 605.85 36.75 L605.25 35.4 Q604.6 33.95 604.6 32.75 604.6 31.8 605.2 30.3 605.8 28.85 605.75 27.65 605.65 26.45 604.9 24.95 604.15 23.45 604.1 22.75 604.05 22.0 604.3 21.05 L604.75 19.5 Q603.1 16.85 601.55 16.2 599.5 15.3 595.55 14.75 L595.5 16.9 Q595.5 18.65 596.2 19.7 596.85 20.75 596.85 21.85 596.85 23.2 596.25 24.15 595.6 25.25 595.35 27.15 595.2 28.45 595.75 29.25 596.3 30.05 596.1 31.25 595.9 32.55 595.4 33.15 594.9 33.7 594.85 34.45 594.8 35.1 595.6 36.1 596.45 37.05 596.35 38.5 596.3 39.8 595.55 41.2 594.8 42.55 594.75 44.05 L594.5 49.25 Q594.5 56.35 591.75 56.45 588.95 56.6 588.45 49.25 588.35 47.2 587.75 45.85 587.15 44.4 587.1 43.85 587.0 42.8 587.55 41.2 L588.35 37.85 Q588.55 36.45 587.45 34.15 586.4 31.8 586.5 30.2 586.65 28.75 587.15 27.5 587.55 26.5 587.5 24.9 587.4 23.25 586.5 21.8 585.6 20.4 585.6 19.45 585.55 18.25 585.95 17.3 L587.05 14.3 580.3 14.2 580.2 17.25 Q584.6 26.95 579.6 44.5 L579.3 45.65 579.4 48.5 579.35 49.4 Q579.3 50.9 579.75 54.45 580.2 57.7 579.95 59.6 L578.7 65.2 Q577.7 68.85 577.5 70.8 577.25 72.85 577.75 77.25 578.2 81.25 577.75 83.65 577.45 85.25 577.7 87.2 L578.1 90.4 Q578.3 92.7 577.7 94.2 L576.75 98.2 Q576.0 100.7 574.45 101.45 571.85 102.7 570.5 99.35 569.6 97.0 569.75 92.65 569.95 87.4 569.7 85.8 L569.5 82.25 569.55 78.7 569.55 71.1 569.2 63.5 Q568.25 54.75 568.45 48.4 568.55 44.2 567.55 37.3 566.35 28.8 566.2 26.25 566.1 24.95 566.65 23.25 L567.55 20.4 567.65 14.3 561.35 14.65 555.1 14.8 Q550.85 14.8 542.9 13.2 534.35 11.5 530.6 11.3 527.7 11.15 517.9 11.5 L505.2 10.9 493.0 9.3 Q486.25 8.8 480.75 9.55 L468.6 11.7 456.4 13.2 454.3 13.3 448.0 14.0 Q443.4 14.95 436.25 13.8 L424.5 12.05 419.45 11.9 418.6 13.35 Q418.0 14.2 418.0 15.0 418.0 15.85 418.7 17.3 L419.35 19.4 Q419.35 20.05 418.55 21.8 417.7 23.6 417.6 25.25 417.3 32.8 414.45 32.95 411.6 33.05 411.6 25.25 L411.0 23.9 Q410.35 22.45 410.35 21.25 410.35 20.3 410.95 18.8 411.55 17.35 411.5 16.15 411.4 14.85 410.65 13.45 L402.95 14.45 403.55 15.25 Q403.9 15.75 403.85 16.5 403.85 17.55 403.25 18.3 402.6 19.15 402.35 20.7 402.2 21.75 402.75 22.35 403.3 23.0 403.1 23.95 402.9 25.0 402.4 25.45 401.9 25.9 401.85 26.5 401.8 27.05 402.6 27.8 403.45 28.55 403.35 29.7 403.3 30.75 402.55 31.85 401.8 32.9 401.75 34.1 L401.5 38.25 Q401.5 43.9 398.75 43.95 395.95 44.05 395.45 38.25 395.35 36.65 394.75 35.55 394.15 34.4 394.1 33.95 394.0 33.1 394.55 31.85 L395.35 29.2 Q395.5 28.1 394.45 26.25 393.4 24.4 393.5 23.1 393.65 21.95 394.15 21.0 394.55 20.25 394.5 18.95 394.4 17.65 393.5 16.5 392.6 15.35 392.6 14.6 L392.65 13.7 Q388.55 12.8 384.95 11.15 L382.6 11.2 373.65 11.55 369.05 12.0 363.7 12.5 362.85 13.8 Q362.35 14.55 362.35 15.25 362.35 16.1 363.05 17.55 L363.75 19.65 362.9 22.05 Q362.05 23.85 362.0 25.5 361.7 33.05 358.85 33.2 355.95 33.3 355.95 25.5 L355.35 24.15 Q354.75 22.7 354.75 21.5 354.75 20.6 355.35 19.05 355.95 17.6 355.85 16.4 355.8 15.35 355.35 14.35 L354.55 12.7 327.45 11.05 Q311.75 10.4 301.05 13.65 L296.7 13.3 290.3 11.65 Q286.3 10.55 283.85 10.4 L283.1 10.35 283.35 11.5 284.5 14.8 Q284.9 15.8 284.85 17.1 284.8 18.1 283.9 19.65 283.05 21.15 282.95 22.9 282.9 24.65 283.3 25.65 283.8 27.0 283.95 28.5 284.1 30.2 283.0 32.75 281.95 35.15 282.1 36.65 282.25 38.05 282.9 40.2 283.45 41.9 283.35 43.05 L282.7 45.15 Q282.1 46.6 282.0 48.75 281.5 56.55 278.7 56.45 275.95 56.3 275.95 48.75 L275.7 43.25 Q275.7 41.7 274.9 40.25 274.1 38.7 274.05 37.35 274.0 35.8 274.85 34.75 275.65 33.75 275.6 33.0 275.55 32.2 275.05 31.65 274.55 31.05 274.35 29.65 274.15 28.35 274.7 27.5 275.3 26.65 275.1 25.25 274.85 23.2 274.2 22.05 273.65 21.05 273.6 19.65 273.6 18.5 274.25 17.4 274.95 16.25 274.95 14.4 L274.85 11.2 267.2 12.65 267.5 14.0 Q267.45 14.75 266.6 15.9 265.85 16.95 265.85 17.75 265.85 18.6 266.55 20.05 267.25 21.5 267.25 22.15 L266.4 24.55 Q265.55 26.35 265.5 28.0 265.2 35.55 262.35 35.7 259.45 35.8 259.45 28.0 L258.85 26.65 Q258.25 25.2 258.25 24.0 258.25 23.1 258.85 21.55 259.45 20.1 259.35 18.9 259.3 17.7 258.55 16.2 257.8 14.7 257.75 14.0 L257.75 13.35 Q249.3 13.7 238.75 13.6 L234.15 13.55 Q230.2 11.9 226.25 11.5 221.7 11.0 217.9 12.15 L216.45 12.65 Q213.55 13.55 210.6 13.85 L205.35 14.2 204.0 13.95 Q200.0 13.25 196.4 11.05 L194.45 11.1 193.5 11.25 180.45 12.45 167.0 13.25 165.45 13.4 140.2 14.35 114.9 13.6 104.5 13.05 Q98.25 12.75 94.05 12.9 L86.5 13.9 87.15 15.45 87.5 17.0 Q87.45 17.75 86.6 18.9 85.85 19.95 85.85 20.75 85.85 21.6 86.55 23.05 87.25 24.5 87.25 25.15 L86.4 27.55 Q85.55 29.35 85.5 31.0 85.2 38.55 82.35 38.7 79.45 38.8 79.45 31.0 L78.85 29.65 Q78.25 28.2 78.25 27.0 78.25 26.1 78.85 24.55 79.45 23.1 79.35 21.9 79.3 20.7 78.55 19.2 77.8 17.7 77.75 17.0 77.65 16.15 77.9 15.4 L76.4 15.55 67.2 14.9 58.1 13.55 52.65 12.55 52.5 16.4 Q52.5 18.25 53.2 19.4 53.85 20.5 53.85 21.65 53.85 23.05 53.25 24.05 52.6 25.2 52.35 27.25 52.2 28.65 52.75 29.5 53.3 30.35 53.1 31.65 52.9 33.05 52.4 33.65 51.9 34.2 51.85 35.0 51.8 35.75 52.6 36.75 53.45 37.8 53.35 39.35 53.3 40.75 52.55 42.25 51.8 43.7 51.75 45.25 L51.5 50.75 Q51.5 58.3 48.75 58.45 45.95 58.55 45.45 50.75 45.35 48.6 44.75 47.15 44.15 45.65 44.1 45.05 44.0 43.9 44.55 42.2 L45.35 38.65 Q45.5 37.15 44.45 34.75 43.4 32.2 43.5 30.5 43.65 29.0 44.15 27.65 44.55 26.65 44.5 24.9 44.4 23.15 43.5 21.65 42.6 20.1 42.6 19.1 42.55 17.8 42.95 16.8 L44.1 13.5 Q44.5 12.1 44.5 10.8 L39.9 11.1 Q36.25 12.05 33.25 13.1 L33.0 15.0 Q32.85 16.1 33.65 16.75 34.5 17.5 34.35 19.5 34.2 21.5 33.6 21.9 32.95 22.25 32.85 23.5 32.7 24.95 33.75 28.65 34.85 32.55 34.85 33.9 34.85 35.25 33.65 38.1 32.35 41.35 31.85 46.65 31.65 48.8 32.65 50.3 33.65 51.85 33.6 53.5 33.55 55.4 32.75 56.85 31.9 58.5 31.75 59.75 31.1 64.7 31.1 71.15 31.1 72.85 32.05 74.55 33.05 76.3 33.1 78.0 33.2 80.9 32.1 83.95 31.0 87.1 31.0 87.5 31.0 91.0 30.2 91.95 L28.75 93.25 Q28.15 97.85 27.05 99.2 25.8 100.65 24.0 97.95 22.6 95.75 21.85 90.95 20.4 90.2 20.4 88.35 20.4 86.95 21.4 86.05 L21.25 78.7 Q19.65 77.9 19.65 75.95 19.65 74.1 21.2 73.3 L20.85 61.0 Q19.9 60.75 19.25 59.25 18.6 57.75 18.5 55.7 18.4 53.65 18.95 52.05 19.55 50.5 20.45 50.2 L20.35 47.55 Q19.15 46.7 19.15 45.1 19.15 43.7 20.15 42.8 L20.0 39.2 Q19.15 38.7 18.55 37.0 17.95 35.2 17.85 32.95 17.8 30.7 18.2 28.95 18.65 27.2 19.4 26.55 L19.2 21.95 Q17.85 23.7 17.35 25.45 16.0 29.9 15.9 36.9 L15.75 48.5 13.6 79.25 Q12.55 97.25 13.55 110.0 13.8 113.55 15.5 123.75 16.95 132.35 16.9 137.55 16.9 141.35 15.95 146.5 L14.15 155.4 Q13.8 157.35 13.75 164.25 13.65 169.65 12.3 172.9 L9.05 179.25 Q7.35 182.8 8.2 186.15 8.55 187.5 10.0 189.8 11.5 192.1 11.85 193.45 13.0 197.8 12.9 206.1 12.8 216.7 13.0 219.0 13.4 224.25 12.85 232.15 L12.7 233.9 10.35 236.6 Q9.35 238.05 10.0 239.85 L10.15 240.65 Q10.65 241.5 12.0 242.25 L11.95 243.45 10.75 257.8 Q10.3 265.6 11.95 271.85 14.5 281.3 14.55 296.55 L14.1 321.55 Q14.15 339.05 13.05 374.05 12.95 377.65 13.45 386.15 13.9 393.85 13.55 398.25 13.25 402.35 14.55 408.05 L16.85 417.7 Q18.55 426.75 17.7 441.4 L16.25 448.45 Q14.75 454.5 14.4 457.85 13.1 469.5 21.5 469.5 26.05 469.5 28.55 466.0 30.35 463.5 31.5 458.25 33.05 451.2 33.3 450.5 34.55 447.0 37.0 447.0 39.45 447.0 40.65 450.45 41.15 452.0 42.1 458.1 42.95 463.35 44.15 465.65 45.95 469.1 49.5 469.0 L71.9 466.2 Q87.95 463.85 92.55 464.65 98.5 465.75 107.05 466.05 L121.65 466.45 Q142.1 467.3 158.25 464.5 165.2 463.25 173.55 464.1 L188.65 466.05 Q192.15 466.45 201.45 465.8 L213.9 466.25 Q214.4 466.35 218.15 467.8 220.35 468.65 222.65 468.35 224.4 468.1 227.15 467.05 L231.6 465.45 Q236.75 463.95 246.1 466.2 257.15 468.85 260.95 468.75 267.5 468.6 280.4 468.6 291.75 468.4 299.8 467.05 L311.25 466.25 Q316.55 466.5 322.4 468.25 333.2 471.4 351.3 468.4 L365.85 466.1 380.6 465.6 Q387.65 466.25 397.25 465.8 L402.8 465.45 435.9 464.4 Q456.45 463.0 468.55 465.6 L473.75 466.6 487.4 468.75 Q494.9 469.55 501.35 469.05 L506.1 468.45 Q518.95 466.25 536.05 465.35 L566.4 464.35 570.3 464.7 Q574.5 465.2 578.0 466.2 582.0 467.35 590.85 470.4 598.7 472.35 603.95 469.65 606.6 468.25 608.6 456.45 610.5 445.3 613.05 445.3 615.35 445.3 618.4 450.15 619.55 452.05 620.35 452.35 621.4 452.8 622.7 450.9 623.95 449.05 625.0 446.4 626.05 443.7 626.2 441.7 626.4 439.25 627.9 435.65 L630.05 429.7 Q630.7 426.85 630.35 422.75 L629.75 415.75 629.25 405.25 Q629.05 399.1 629.55 394.75 630.05 390.4 631.25 387.05 L633.3 380.8 Q634.15 377.4 633.85 374.3 633.65 372.4 632.55 368.1 631.55 364.15 631.4 361.9 631.25 359.6 631.65 355.3 L632.05 348.65 630.65 334.4 Q629.9 325.95 631.7 320.3 633.6 314.35 633.85 308.7 634.1 303.95 633.2 296.8 632.8 293.7 630.9 288.0 629.0 282.15 628.55 279.25 628.1 276.25 629.1 271.45 630.2 266.2 630.1 263.8 L628.85 255.4 Q628.15 250.9 629.5 247.0 630.7 243.55 631.1 239.35 631.6 234.35 630.45 231.35 L628.0 225.0 Q626.6 221.9 626.5 220.15 626.4 218.25 627.55 215.75 629.85 210.85 629.25 200.1 L627.6 184.05 Q626.75 175.5 626.7 171.25 626.6 164.65 627.75 158.4 L629.15 149.65 Q629.6 144.8 629.15 140.85 628.8 137.85 626.8 131.3 625.0 125.15 624.75 121.7 624.45 116.9 627.7 113.6 631.95 109.3 632.75 107.0 634.1 103.2 631.5 98.65 627.95 93.75 626.6 91.3 625.1 88.6 624.8 85.25 624.55 82.85 624.9 79.0 L625.85 71.6 Q627.3 58.3 627.4 54.95 627.75 45.1 625.4 37.85 L625.4 34.7 Q625.7 29.6 626.9 25.05 L626.65 22.75 626.9 25.05 Q625.7 29.6 625.4 34.7 L625.4 37.85 Q627.75 45.1 627.4 54.95 627.3 58.3 625.85 71.6 L624.9 79.0 Q624.55 82.85 624.8 85.25 625.1 88.6 626.6 91.3 627.95 93.75 631.5 98.65 634.1 103.2 632.75 107.0 631.95 109.3 627.7 113.6 624.45 116.9 624.75 121.7 625.0 125.15 626.8 131.3 628.8 137.85 629.15 140.85 629.6 144.8 629.15 149.65 L627.75 158.4 Q626.6 164.65 626.7 171.25 626.75 175.5 627.6 184.05 L629.25 200.1 Q629.85 210.85 627.55 215.75 626.4 218.25 626.5 220.15 626.6 221.9 628.0 225.0 L630.45 231.35 Q631.6 234.35 631.1 239.35 630.7 243.55 629.5 247.0 628.15 250.9 628.85 255.4 L630.1 263.8 Q630.2 266.2 629.1 271.45 628.1 276.25 628.55 279.25 629.0 282.15 630.9 288.0 632.8 293.7 633.2 296.8 634.1 303.95 633.85 308.7 633.6 314.35 631.7 320.3 629.9 325.95 630.65 334.4 L632.05 348.65 631.65 355.3 Q631.25 359.6 631.4 361.9 631.55 364.15 632.55 368.1 633.65 372.4 633.85 374.3 634.15 377.4 633.3 380.8 L631.25 387.05 Q630.05 390.4 629.55 394.75 629.05 399.1 629.25 405.25 L629.75 415.75 630.35 422.75 Q630.7 426.85 630.05 429.7 L627.9 435.65 Q626.4 439.25 626.2 441.7 626.05 443.7 625.0 446.4 623.95 449.05 622.7 450.9 621.4 452.8 620.35 452.35 619.55 452.05 618.4 450.15 615.35 445.3 613.05 445.3 610.5 445.3 608.6 456.45 606.6 468.25 603.95 469.65 598.7 472.35 590.85 470.4 582.0 467.35 578.0 466.2 574.5 465.2 570.3 464.7 L566.4 464.35 536.05 465.35 Q518.95 466.25 506.1 468.45 L501.35 469.05 Q494.9 469.55 487.4 468.75 L473.75 466.6 468.55 465.6 Q456.45 463.0 435.9 464.4 L402.8 465.45 397.25 465.8 Q387.65 466.25 380.6 465.6 L365.85 466.1 351.3 468.4 Q333.2 471.4 322.4 468.25 316.55 466.5 311.25 466.25 L299.8 467.05 Q291.75 468.4 280.4 468.6 267.5 468.6 260.95 468.75 257.15 468.85 246.1 466.2 236.75 463.95 231.6 465.45 L227.15 467.05 Q224.4 468.1 222.65 468.35 220.35 468.65 218.15 467.8 214.4 466.35 213.9 466.25 L201.45 465.8 Q192.15 466.45 188.65 466.05 L173.55 464.1 Q165.2 463.25 158.25 464.5 142.1 467.3 121.65 466.45 L107.05 466.05 Q98.5 465.75 92.55 464.65 87.95 463.85 71.9 466.2 L49.5 469.0 Q45.95 469.1 44.15 465.65 42.95 463.35 42.1 458.1 41.15 452.0 40.65 450.45 39.45 447.0 37.0 447.0 34.55 447.0 33.3 450.5 33.05 451.2 31.5 458.25 30.35 463.5 28.55 466.0 26.05 469.5 21.5 469.5 13.1 469.5 14.4 457.85 14.75 454.5 16.25 448.45 L17.7 441.4 Q18.55 426.75 16.85 417.7 L14.55 408.05 Q13.25 402.35 13.55 398.25 13.9 393.85 13.45 386.15 12.95 377.65 13.05 374.05 14.15 339.05 14.1 321.55 L14.55 296.55 Q14.5 281.3 11.95 271.85 10.3 265.6 10.75 257.8 L11.95 243.45 12.0 242.25 Q10.65 241.5 10.15 240.65 L10.0 239.85 Q9.35 238.05 10.35 236.6 L12.7 233.9 12.85 232.15 Q13.4 224.25 13.0 219.0 12.8 216.7 12.9 206.1 13.0 197.8 11.85 193.45 11.5 192.1 10.0 189.8 8.55 187.5 8.2 186.15 7.35 182.8 9.05 179.25 L12.3 172.9 Q13.65 169.65 13.75 164.25 13.8 157.35 14.15 155.4 L15.95 146.5 Q16.9 141.35 16.9 137.55 16.95 132.35 15.5 123.75 13.8 113.55 13.55 110.0 12.55 97.25 13.6 79.25 L15.75 48.5 15.9 36.9 Q16.0 29.9 17.35 25.45 17.85 23.7 19.2 21.95 L19.4 26.55 Q18.65 27.2 18.2 28.95 17.8 30.7 17.85 32.95 17.95 35.2 18.55 37.0 19.15 38.7 20.0 39.2 L20.15 42.8 Q19.15 43.7 19.15 45.1 19.15 46.7 20.35 47.55 L20.45 50.2 Q19.55 50.5 18.95 52.05 18.4 53.65 18.5 55.7 18.6 57.75 19.25 59.25 19.9 60.75 20.85 61.0 L21.2 73.3 Q19.65 74.1 19.65 75.95 19.65 77.9 21.25 78.7 L21.4 86.05 Q20.4 86.95 20.4 88.35 20.4 90.2 21.85 90.95 22.6 95.75 24.0 97.95 25.8 100.65 27.05 99.2 28.15 97.85 28.75 93.25 L30.2 91.95 Q31.0 91.0 31.0 87.5 31.0 87.1 32.1 83.95 33.2 80.9 33.1 78.0 33.05 76.3 32.05 74.55 31.1 72.85 31.1 71.15 31.1 64.7 31.75 59.75 31.9 58.5 32.75 56.85 33.55 55.4 33.6 53.5 33.65 51.85 32.65 50.3 31.65 48.8 31.85 46.65 32.35 41.35 33.65 38.1 34.85 35.25 34.85 33.9 34.85 32.55 33.75 28.65 32.7 24.95 32.85 23.5 32.95 22.25 33.6 21.9 34.2 21.5 34.35 19.5 34.5 17.5 33.65 16.75 32.85 16.1 33.0 15.0 L33.25 13.1 Q36.25 12.05 39.9 11.1 L44.5 10.8 Q44.5 12.1 44.1 13.5 L42.95 16.8 Q42.55 17.8 42.6 19.1 42.6 20.1 43.5 21.65 44.4 23.15 44.5 24.9 44.55 26.65 44.15 27.65 43.65 29.0 43.5 30.5 43.4 32.2 44.45 34.75 45.5 37.15 45.35 38.65 L44.55 42.2 Q44.0 43.9 44.1 45.05 44.15 45.65 44.75 47.15 45.35 48.6 45.45 50.75 45.95 58.55 48.75 58.45 51.5 58.3 51.5 50.75 L51.75 45.25 Q51.8 43.7 52.55 42.25 53.3 40.75 53.35 39.35 53.45 37.8 52.6 36.75 51.8 35.75 51.85 35.0 51.9 34.2 52.4 33.65 52.9 33.05 53.1 31.65 53.3 30.35 52.75 29.5 52.2 28.65 52.35 27.25 52.6 25.2 53.25 24.05 53.85 23.05 53.85 21.65 53.85 20.5 53.2 19.4 52.5 18.25 52.5 16.4 L52.65 12.55 58.1 13.55 67.2 14.9 76.4 15.55 77.9 15.4 Q77.65 16.15 77.75 17.0 77.8 17.7 78.55 19.2 79.3 20.7 79.35 21.9 79.45 23.1 78.85 24.55 78.25 26.1 78.25 27.0 78.25 28.2 78.85 29.65 L79.45 31.0 Q79.45 38.8 82.35 38.7 85.2 38.55 85.5 31.0 85.55 29.35 86.4 27.55 L87.25 25.15 Q87.25 24.5 86.55 23.05 85.85 21.6 85.85 20.75 85.85 19.95 86.6 18.9 87.45 17.75 87.5 17.0 L87.15 15.45 86.5 13.9 94.05 12.9 Q98.25 12.75 104.5 13.05 L114.9 13.6 140.2 14.35 165.45 13.4 167.0 13.25 180.45 12.45 193.5 11.25 194.45 11.1 196.4 11.05 Q200.0 13.25 204.0 13.95 L205.35 14.2 210.6 13.85 Q213.55 13.55 216.45 12.65 L217.9 12.15 Q221.7 11.0 226.25 11.5 230.2 11.9 234.15 13.55 L238.75 13.6 Q249.3 13.7 257.75 13.35 L257.75 14.0 Q257.8 14.7 258.55 16.2 259.3 17.7 259.35 18.9 259.45 20.1 258.85 21.55 258.25 23.1 258.25 24.0 258.25 25.2 258.85 26.65 L259.45 28.0 Q259.45 35.8 262.35 35.7 265.2 35.55 265.5 28.0 265.55 26.35 266.4 24.55 L267.25 22.15 Q267.25 21.5 266.55 20.05 265.85 18.6 265.85 17.75 265.85 16.95 266.6 15.9 267.45 14.75 267.5 14.0 L267.2 12.65 274.85 11.2 274.95 14.4 Q274.95 16.25 274.25 17.4 273.6 18.5 273.6 19.65 273.65 21.05 274.2 22.05 274.85 23.2 275.1 25.25 275.3 26.65 274.7 27.5 274.15 28.35 274.35 29.65 274.55 31.05 275.05 31.65 275.55 32.2 275.6 33.0 275.65 33.75 274.85 34.75 274.0 35.8 274.05 37.35 274.1 38.7 274.9 40.25 275.7 41.7 275.7 43.25 L275.95 48.75 Q275.95 56.3 278.7 56.45 281.5 56.55 282.0 48.75 282.1 46.6 282.7 45.15 L283.35 43.05 Q283.45 41.9 282.9 40.2 282.25 38.05 282.1 36.65 281.95 35.15 283.0 32.75 284.1 30.2 283.95 28.5 283.8 27.0 283.3 25.65 282.9 24.65 282.95 22.9 283.05 21.15 283.9 19.65 284.8 18.1 284.85 17.1 284.9 15.8 284.5 14.8 L283.35 11.5 283.1 10.35 283.85 10.4 Q286.3 10.55 290.3 11.65 L296.7 13.3 301.05 13.65 Q311.75 10.4 327.45 11.05 L354.55 12.7 355.35 14.35 Q355.8 15.35 355.85 16.4 355.95 17.6 355.35 19.05 354.75 20.6 354.75 21.5 354.75 22.7 355.35 24.15 L355.95 25.5 Q355.95 33.3 358.85 33.2 361.7 33.05 362.0 25.5 362.05 23.85 362.9 22.05 L363.75 19.65 363.05 17.55 Q362.35 16.1 362.35 15.25 362.35 14.55 362.85 13.8 L363.7 12.5 369.05 12.0 373.65 11.55 382.6 11.2 384.95 11.15 Q388.55 12.8 392.65 13.7 L392.6 14.6 Q392.6 15.35 393.5 16.5 394.4 17.65 394.5 18.95 394.55 20.25 394.15 21.0 393.65 21.95 393.5 23.1 393.4 24.4 394.45 26.25 395.5 28.1 395.35 29.2 L394.55 31.85 Q394.0 33.1 394.1 33.95 394.15 34.4 394.75 35.55 395.35 36.65 395.45 38.25 395.95 44.05 398.75 43.95 401.5 43.9 401.5 38.25 L401.75 34.1 Q401.8 32.9 402.55 31.85 403.3 30.75 403.35 29.7 403.45 28.55 402.6 27.8 401.8 27.05 401.85 26.5 401.9 25.9 402.4 25.45 402.9 25.0 403.1 23.95 403.3 23.0 402.75 22.35 402.2 21.75 402.35 20.7 402.6 19.15 403.25 18.3 403.85 17.55 403.85 16.5 403.9 15.75 403.55 15.25 L402.95 14.45 410.65 13.45 Q411.4 14.85 411.5 16.15 411.55 17.35 410.95 18.8 410.35 20.3 410.35 21.25 410.35 22.45 411.0 23.9 L411.6 25.25 Q411.6 33.05 414.45 32.95 417.3 32.8 417.6 25.25 417.7 23.6 418.55 21.8 419.35 20.05 419.35 19.4 L418.7 17.3 Q418.0 15.85 418.0 15.0 418.0 14.2 418.6 13.35 L419.45 11.9 424.5 12.05 436.25 13.8 Q443.4 14.95 448.0 14.0 L454.3 13.3 456.4 13.2 468.6 11.7 480.75 9.55 Q486.25 8.8 493.0 9.3 L505.2 10.9 517.9 11.5 Q527.7 11.15 530.6 11.3 534.35 11.5 542.9 13.2 550.85 14.8 555.1 14.8 L561.35 14.65 567.65 14.3 567.55 20.4 566.65 23.25 Q566.1 24.95 566.2 26.25 566.35 28.8 567.55 37.3 568.55 44.2 568.45 48.4 568.25 54.75 569.2 63.5 L569.55 71.1 569.55 78.7 569.5 82.25 569.7 85.8 Q569.95 87.4 569.75 92.65 569.6 97.0 570.5 99.35 571.85 102.7 574.45 101.45 576.0 100.7 576.75 98.2 L577.7 94.2 Q578.3 92.7 578.1 90.4 L577.7 87.2 Q577.45 85.25 577.75 83.65 578.2 81.25 577.75 77.25 577.25 72.85 577.5 70.8 577.7 68.85 578.7 65.2 L579.95 59.6 Q580.2 57.7 579.75 54.45 579.3 50.9 579.35 49.4 L579.4 48.5 579.3 45.65 579.6 44.5 Q584.6 26.95 580.2 17.25 L580.3 14.2 587.05 14.3 585.95 17.3 Q585.55 18.25 585.6 19.45 585.6 20.4 586.5 21.8 587.4 23.25 587.5 24.9 587.55 26.5 587.15 27.5 586.65 28.75 586.5 30.2 586.4 31.8 587.45 34.15 588.55 36.45 588.35 37.85 L587.55 41.2 Q587.0 42.8 587.1 43.85 587.15 44.4 587.75 45.85 588.35 47.2 588.45 49.25 588.95 56.6 591.75 56.45 594.5 56.35 594.5 49.25 L594.75 44.05 Q594.8 42.55 595.55 41.2 596.3 39.8 596.35 38.5 596.45 37.05 595.6 36.1 594.8 35.1 594.85 34.45 594.9 33.7 595.4 33.15 595.9 32.55 596.1 31.25 596.3 30.05 595.75 29.25 595.2 28.45 595.35 27.15 595.6 25.25 596.25 24.15 596.85 23.2 596.85 21.85 596.85 20.75 596.2 19.7 595.5 18.65 595.5 16.9 L595.55 14.75 Q599.5 15.3 601.55 16.2 603.1 16.85 604.75 19.5 L604.3 21.05 Q604.05 22.0 604.1 22.75 604.15 23.45 604.9 24.95 605.65 26.45 605.75 27.65 605.8 28.85 605.2 30.3 604.6 31.8 604.6 32.75 604.6 33.95 605.25 35.4 L605.85 36.75 Q605.85 44.55 608.7 44.45 611.55 44.3 611.85 36.75 611.95 35.1 612.8 33.3 613.6 31.55 613.6 30.9 L612.95 28.8 Q612.25 27.35 612.25 26.5 612.25 25.7 612.9 24.8 L613.75 23.2 614.4 22.5 Q615.8 20.95 616.95 20.5 L620.6 20.15 Q622.55 20.1 623.95 18.25 626.0 20.4 626.65 22.75 M0.0 0.0 L640.0 0.0 640.0 480.0 0.0 480.0 0.0 0.0" fill="#ffffff" fill-opacity="0.0" fill-rule="evenodd" stroke="none"/>
    <path d="M626.65 22.75 L626.9 25.05 Q625.7 29.6 625.4 34.7 L625.4 37.85 Q627.75 45.1 627.4 54.95 627.3 58.3 625.85 71.6 L624.9 79.0 Q624.55 82.85 624.8 85.25 625.1 88.6 626.6 91.3 627.95 93.75 631.5 98.65 634.1 103.2 632.75 107.0 631.95 109.3 627.7 113.6 624.45 116.9 624.75 121.7 625.0 125.15 626.8 131.3 628.8 137.85 629.15 140.85 629.6 144.8 629.15 149.65 L627.75 158.4 Q626.6 164.65 626.7 171.25 626.75 175.5 627.6 184.05 L629.25 200.1 Q629.85 210.85 627.55 215.75 626.4 218.25 626.5 220.15 626.6 221.9 628.0 225.0 L630.45 231.35 Q631.6 234.35 631.1 239.35 630.7 243.55 629.5 247.0 628.15 250.9 628.85 255.4 L630.1 263.8 Q630.2 266.2 629.1 271.45 628.1 276.25 628.55 279.25 629.0 282.15 630.9 288.0 632.8 293.7 633.2 296.8 634.1 303.95 633.85 308.7 633.6 314.35 631.7 320.3 629.9 325.95 630.65 334.4 L632.05 348.65 631.65 355.3 Q631.25 359.6 631.4 361.9 631.55 364.15 632.55 368.1 633.65 372.4 633.85 374.3 634.15 377.4 633.3 380.8 L631.25 387.05 Q630.05 390.4 629.55 394.75 629.05 399.1 629.25 405.25 L629.75 415.75 630.35 422.75 Q630.7 426.85 630.05 429.7 L627.9 435.65 Q626.4 439.25 626.2 441.7 626.05 443.7 625.0 446.4 623.95 449.05 622.7 450.9 621.4 452.8 620.35 452.35 619.55 452.05 618.4 450.15 615.35 445.3 613.05 445.3 610.5 445.3 608.6 456.45 606.6 468.25 603.95 469.65 598.7 472.35 590.85 470.4 582.0 467.35 578.0 466.2 574.5 465.2 570.3 464.7 L566.4 464.35 536.05 465.35 Q518.95 466.25 506.1 468.45 L501.35 469.05 Q494.9 469.55 487.4 468.75 L473.75 466.6 468.55 465.6 Q456.45 463.0 435.9 464.4 L402.8 465.45 397.25 465.8 Q387.65 466.25 380.6 465.6 L365.85 466.1 351.3 468.4 Q333.2 471.4 322.4 468.25 316.55 466.5 311.25 466.25 L299.8 467.05 Q291.75 468.4 280.4 468.6 267.5 468.6 260.95 468.75 257.15 468.85 246.1 466.2 236.75 463.95 231.6 465.45 L227.15 467.05 Q224.4 468.1 222.65 468.35 220.35 468.65 218.15 467.8 214.4 466.35 213.9 466.25 L201.45 465.8 Q192.15 466.45 188.65 466.05 L173.55 464.1 Q165.2 463.25 158.25 464.5 142.1 467.3 121.65 466.45 L107.05 466.05 Q98.5 465.75 92.55 464.65 87.95 463.85 71.9 466.2 L49.5 469.0 Q45.95 469.1 44.15 465.65 42.95 463.35 42.1 458.1 41.15 452.0 40.65 450.45 39.45 447.0 37.0 447.0 34.55 447.0 33.3 450.5 33.05 451.2 31.5 458.25 30.35 463.5 28.55 466.0 26.05 469.5 21.5 469.5 13.1 469.5 14.4 457.85 14.75 454.5 16.25 448.45 L17.7 441.4 Q18.55 426.75 16.85 417.7 L14.55 408.05 Q13.25 402.35 13.55 398.25 13.9 393.85 13.45 386.15 12.95 377.65 13.05 374.05 14.15 339.05 14.1 321.55 L14.55 296.55 Q14.5 281.3 11.95 271.85 10.3 265.6 10.75 257.8 L11.95 243.45 12.0 242.25 Q10.65 241.5 10.15 240.65 L10.0 239.85 Q9.35 238.05 10.35 236.6 L12.7 233.9 12.85 232.15 Q13.4 224.25 13.0 219.0 12.8 216.7 12.9 206.1 13.0 197.8 11.85 193.45 11.5 192.1 10.0 189.8 8.55 187.5 8.2 186.15 7.35 182.8 9.05 179.25 L12.3 172.9 Q13.65 169.65 13.75 164.25 13.8 157.35 14.15 155.4 L15.95 146.5 Q16.9 141.35 16.9 137.55 16.95 132.35 15.5 123.75 13.8 113.55 13.55 110.0 12.55 97.25 13.6 79.25 L15.75 48.5 15.9 36.9 Q16.0 29.9 17.35 25.45 17.85 23.7 19.2 21.95 L19.4 26.55 Q18.65 27.2 18.2 28.95 17.8 30.7 17.85 32.95 17.95 35.2 18.55 37.0 19.15 38.7 20.0 39.2 L20.15 42.8 Q19.15 43.7 19.15 45.1 19.15 46.7 20.35 47.55 L20.45 50.2 Q19.55 50.5 18.95 52.05 18.4 53.65 18.5 55.7 18.6 57.75 19.25 59.25 19.9 60.75 20.85 61.0 L21.2 73.3 Q19.65 74.1 19.65 75.95 19.65 77.9 21.25 78.7 L21.4 86.05 Q20.4 86.95 20.4 88.35 20.4 90.2 21.85 90.95 22.6 95.75 24.0 97.95 25.8 100.65 27.05 99.2 28.15 97.85 28.75 93.25 L30.2 91.95 Q31.0 91.0 31.0 87.5 31.0 87.1 32.1 83.95 33.2 80.9 33.1 78.0 33.05 76.3 32.05 74.55 31.1 72.85 31.1 71.15 31.1 64.7 31.75 59.75 31.9 58.5 32.75 56.85 33.55 55.4 33.6 53.5 33.65 51.85 32.65 50.3 31.65 48.8 31.85 46.65 32.35 41.35 33.65 38.1 34.85 35.25 34.85 33.9 34.85 32.55 33.75 28.65 32.7 24.95 32.85 23.5 32.95 22.25 33.6 21.9 34.2 21.5 34.35 19.5 34.5 17.5 33.65 16.75 32.85 16.1 33.0 15.0 L33.25 13.1 Q36.25 12.05 39.9 11.1 L44.5 10.8 Q44.5 12.1 44.1 13.5 L42.95 16.8 Q42.55 17.8 42.6 19.1 42.6 20.1 43.5 21.65 44.4 23.15 44.5 24.9 44.55 26.65 44.15 27.65 43.65 29.0 43.5 30.5 43.4 32.2 44.45 34.75 45.5 37.15 45.35 38.65 L44.55 42.2 Q44.0 43.9 44.1 45.05 44.15 45.65 44.75 47.15 45.35 48.6 45.45 50.75 45.95 58.55 48.75 58.45 51.5 58.3 51.5 50.75 L51.75 45.25 Q51.8 43.7 52.55 42.25 53.3 40.75 53.35 39.35 53.45 37.8 52.6 36.75 51.8 35.75 51.85 35.0 51.9 34.2 52.4 33.65 52.9 33.05 53.1 31.65 53.3 30.35 52.75 29.5 52.2 28.65 52.35 27.25 52.6 25.2 53.25 24.05 53.85 23.05 53.85 21.65 53.85 20.5 53.2 19.4 52.5 18.25 52.5 16.4 L52.65 12.55 58.1 13.55 67.2 14.9 76.4 15.55 77.9 15.4 Q77.65 16.15 77.75 17.0 77.8 17.7 78.55 19.2 79.3 20.7 79.35 21.9 79.45 23.1 78.85 24.55 78.25 26.1 78.25 27.0 78.25 28.2 78.85 29.65 L79.45 31.0 Q79.45 38.8 82.35 38.7 85.2 38.55 85.5 31.0 85.55 29.35 86.4 27.55 L87.25 25.15 Q87.25 24.5 86.55 23.05 85.85 21.6 85.85 20.75 85.85 19.95 86.6 18.9 87.45 17.75 87.5 17.0 L87.15 15.45 86.5 13.9 94.05 12.9 Q98.25 12.75 104.5 13.05 L114.9 13.6 140.2 14.35 165.45 13.4 167.0 13.25 180.45 12.45 193.5 11.25 194.45 11.1 196.4 11.05 Q200.0 13.25 204.0 13.95 L205.35 14.2 210.6 13.85 Q213.55 13.55 216.45 12.65 L217.9 12.15 Q221.7 11.0 226.25 11.5 230.2 11.9 234.15 13.55 L238.75 13.6 Q249.3 13.7 257.75 13.35 L257.75 14.0 Q257.8 14.7 258.55 16.2 259.3 17.7 259.35 18.9 259.45 20.1 258.85 21.55 258.25 23.1 258.25 24.0 258.25 25.2 258.85 26.65 L259.45 28.0 Q259.45 35.8 262.35 35.7 265.2 35.55 265.5 28.0 265.55 26.35 266.4 24.55 L267.25 22.15 Q267.25 21.5 266.55 20.05 265.85 18.6 265.85 17.75 265.85 16.95 266.6 15.9 267.45 14.75 267.5 14.0 L267.2 12.65 274.85 11.2 274.95 14.4 Q274.95 16.25 274.25 17.4 273.6 18.5 273.6 19.65 273.65 21.05 274.2 22.05 274.85 23.2 275.1 25.25 275.3 26.65 274.7 27.5 274.15 28.35 274.35 29.65 274.55 31.05 275.05 31.65 275.55 32.2 275.6 33.0 275.65 33.75 274.85 34.75 274.0 35.8 274.05 37.35 274.1 38.7 274.9 40.25 275.7 41.7 275.7 43.25 L275.95 48.75 Q275.95 56.3 278.7 56.45 281.5 56.55 282.0 48.75 282.1 46.6 282.7 45.15 L283.35 43.05 Q283.45 41.9 282.9 40.2 282.25 38.05 282.1 36.65 281.95 35.15 283.0 32.75 284.1 30.2 283.95 28.5 283.8 27.0 283.3 25.65 282.9 24.65 282.95 22.9 283.05 21.15 283.9 19.65 284.8 18.1 284.85 17.1 284.9 15.8 284.5 14.8 L283.35 11.5 283.1 10.35 283.85 10.4 Q286.3 10.55 290.3 11.65 L296.7 13.3 301.05 13.65 Q311.75 10.4 327.45 11.05 L354.55 12.7 355.35 14.35 Q355.8 15.35 355.85 16.4 355.95 17.6 355.35 19.05 354.75 20.6 354.75 21.5 354.75 22.7 355.35 24.15 L355.95 25.5 Q355.95 33.3 358.85 33.2 361.7 33.05 362.0 25.5 362.05 23.85 362.9 22.05 L363.75 19.65 363.05 17.55 Q362.35 16.1 362.35 15.25 362.35 14.55 362.85 13.8 L363.7 12.5 369.05 12.0 373.65 11.55 382.6 11.2 384.95 11.15 Q388.55 12.8 392.65 13.7 L392.6 14.6 Q392.6 15.35 393.5 16.5 394.4 17.65 394.5 18.95 394.55 20.25 394.15 21.0 393.65 21.95 393.5 23.1 393.4 24.4 394.45 26.25 395.5 28.1 395.35 29.2 L394.55 31.85 Q394.0 33.1 394.1 33.95 394.15 34.4 394.75 35.55 395.35 36.65 395.45 38.25 395.95 44.05 398.75 43.95 401.5 43.9 401.5 38.25 L401.75 34.1 Q401.8 32.9 402.55 31.85 403.3 30.75 403.35 29.7 403.45 28.55 402.6 27.8 401.8 27.05 401.85 26.5 401.9 25.9 402.4 25.45 402.9 25.0 403.1 23.95 403.3 23.0 402.75 22.35 402.2 21.75 402.35 20.7 402.6 19.15 403.25 18.3 403.85 17.55 403.85 16.5 403.9 15.75 403.55 15.25 L402.95 14.45 410.65 13.45 Q411.4 14.85 411.5 16.15 411.55 17.35 410.95 18.8 410.35 20.3 410.35 21.25 410.35 22.45 411.0 23.9 L411.6 25.25 Q411.6 33.05 414.45 32.95 417.3 32.8 417.6 25.25 417.7 23.6 418.55 21.8 419.35 20.05 419.35 19.4 L418.7 17.3 Q418.0 15.85 418.0 15.0 418.0 14.2 418.6 13.35 L419.45 11.9 424.5 12.05 436.25 13.8 Q443.4 14.95 448.0 14.0 L454.3 13.3 456.4 13.2 468.6 11.7 480.75 9.55 Q486.25 8.8 493.0 9.3 L505.2 10.9 517.9 11.5 Q527.7 11.15 530.6 11.3 534.35 11.5 542.9 13.2 550.85 14.8 555.1 14.8 L561.35 14.65 567.65 14.3 567.55 20.4 566.65 23.25 Q566.1 24.95 566.2 26.25 566.35 28.8 567.55 37.3 568.55 44.2 568.45 48.4 568.25 54.75 569.2 63.5 L569.55 71.1 569.55 78.7 569.5 82.25 569.7 85.8 Q569.95 87.4 569.75 92.65 569.6 97.0 570.5 99.35 571.85 102.7 574.45 101.45 576.0 100.7 576.75 98.2 L577.7 94.2 Q578.3 92.7 578.1 90.4 L577.7 87.2 Q577.45 85.25 577.75 83.65 578.2 81.25 577.75 77.25 577.25 72.85 577.5 70.8 577.7 68.85 578.7 65.2 L579.95 59.6 Q580.2 57.7 579.75 54.45 579.3 50.9 579.35 49.4 L579.4 48.5 579.3 45.65 579.6 44.5 Q584.6 26.95 580.2 17.25 L580.3 14.2 587.05 14.3 585.95 17.3 Q585.55 18.25 585.6 19.45 585.6 20.4 586.5 21.8 587.4 23.25 587.5 24.9 587.55 26.5 587.15 27.5 586.65 28.75 586.5 30.2 586.4 31.8 587.45 34.15 588.55 36.45 588.35 37.85 L587.55 41.2 Q587.0 42.8 587.1 43.85 587.15 44.4 587.75 45.85 588.35 47.2 588.45 49.25 588.95 56.6 591.75 56.45 594.5 56.35 594.5 49.25 L594.75 44.05 Q594.8 42.55 595.55 41.2 596.3 39.8 596.35 38.5 596.45 37.05 595.6 36.1 594.8 35.1 594.85 34.45 594.9 33.7 595.4 33.15 595.9 32.55 596.1 31.25 596.3 30.05 595.75 29.25 595.2 28.45 595.35 27.15 595.6 25.25 596.25 24.15 596.85 23.2 596.85 21.85 596.85 20.75 596.2 19.7 595.5 18.65 595.5 16.9 L595.55 14.75 Q599.5 15.3 601.55 16.2 603.1 16.85 604.75 19.5 L604.3 21.05 Q604.05 22.0 604.1 22.75 604.15 23.45 604.9 24.95 605.65 26.45 605.75 27.65 605.8 28.85 605.2 30.3 604.6 31.8 604.6 32.75 604.6 33.95 605.25 35.4 L605.85 36.75 Q605.85 44.55 608.7 44.45 611.55 44.3 611.85 36.75 611.95 35.1 612.8 33.3 613.6 31.55 613.6 30.9 L612.95 28.8 Q612.25 27.35 612.25 26.5 612.25 25.7 612.9 24.8 L613.75 23.2 614.4 22.5 Q615.8 20.95 616.95 20.5 L620.6 20.15 Q622.55 20.1 623.95 18.25 626.0 20.4 626.65 22.75 M0.0 0.0 L0.0 480.0 640.0 480.0 640.0 0.0 0.0 0.0 Z" fill="none" stroke="#abf0ff" stroke-linecap="butt" stroke-linejoin="miter-clip" stroke-miterlimit="4.0" stroke-width="1.0"/>
    <path d="M616.95 20.5 Q615.8 20.95 614.4 22.5 L613.75 23.2 612.9 24.8 Q612.25 25.7 612.25 26.5 612.25 27.35 612.95 28.8 L613.6 30.9 Q613.6 31.55 612.8 33.3 611.95 35.1 611.85 36.75 611.55 44.3 608.7 44.45 605.85 44.55 605.85 36.75 L605.25 35.4 Q604.6 33.95 604.6 32.75 604.6 31.8 605.2 30.3 605.8 28.85 605.75 27.65 605.65 26.45 604.9 24.95 604.15 23.45 604.1 22.75 604.05 22.0 604.3 21.05 L604.75 19.5 Q603.1 16.85 601.55 16.2 599.5 15.3 595.55 14.75 L595.5 16.9 Q595.5 18.65 596.2 19.7 596.85 20.75 596.85 21.85 596.85 23.2 596.25 24.15 595.6 25.25 595.35 27.15 595.2 28.45 595.75 29.25 596.3 30.05 596.1 31.25 595.9 32.55 595.4 33.15 594.9 33.7 594.85 34.45 594.8 35.1 595.6 36.1 596.45 37.05 596.35 38.5 596.3 39.8 595.55 41.2 594.8 42.55 594.75 44.05 L594.5 49.25 Q594.5 56.35 591.75 56.45 588.95 56.6 588.45 49.25 588.35 47.2 587.75 45.85 587.15 44.4 587.1 43.85 587.0 42.8 587.55 41.2 L588.35 37.85 Q588.55 36.45 587.45 34.15 586.4 31.8 586.5 30.2 586.65 28.75 587.15 27.5 587.55 26.5 587.5 24.9 587.4 23.25 586.5 21.8 585.6 20.4 585.6 19.45 585.55 18.25 585.95 17.3 L587.05 14.3 580.3 14.2 580.2 17.25 Q584.6 26.95 579.6 44.5 L579.3 45.65 579.4 48.5 579.35 49.4 Q579.3 50.9 579.75 54.45 580.2 57.7 579.95 59.6 L578.7 65.2 Q577.7 68.85 577.5 70.8 577.25 72.85 577.75 77.25 578.2 81.25 577.75 83.65 577.45 85.25 577.7 87.2 L578.1 90.4 Q578.3 92.7 577.7 94.2 L576.75 98.2 Q576.0 100.7 574.45 101.45 571.85 102.7 570.5 99.35 569.6 97.0 569.75 92.65 569.95 87.4 569.7 85.8 L569.5 82.25 569.55 78.7 569.55 71.1 569.2 63.5 Q568.25 54.75 568.45 48.4 568.55 44.2 567.55 37.3 566.35 28.8 566.2 26.25 566.1 24.95 566.65 23.25 L567.55 20.4 567.65 14.3 561.35 14.65 555.1 14.8 Q550.85 14.8 542.9 13.2 534.35 11.5 530.6 11.3 527.7 11.15 517.9 11.5 L505.2 10.9 493.0 9.3 Q486.25 8.8 480.75 9.55 L468.6 11.7 456.4 13.2 454.3 13.3 448.0 14.0 Q443.4 14.95 436.25 13.8 L424.5 12.05 419.45 11.9 418.6 13.35 Q418.0 14.2 418.0 15.0 418.0 15.85 418.7 17.3 L419.35 19.4 Q419.35 20.05 418.55 21.8 417.7 23.6 417.6 25.25 417.3 32.8 414.45 32.95 411.6 33.05 411.6 25.25 L411.0 23.9 Q410.35 22.45 410.35 21.25 410.35 20.3 410.95 18.8 411.55 17.35 411.5 16.15 411.4 14.85 410.65 13.45 L402.95 14.45 403.55 15.25 Q403.9 15.75 403.85 16.5 403.85 17.55 403.25 18.3 402.6 19.15 402.35 20.7 402.2 21.75 402.75 22.35 403.3 23.0 403.1 23.95 402.9 25.0 402.4 25.45 401.9 25.9 401.85 26.5 401.8 27.05 402.6 27.8 403.45 28.55 403.35 29.7 403.3 30.75 402.55 31.85 401.8 32.9 401.75 34.1 L401.5 38.25 Q401.5 43.9 398.75 43.95 395.95 44.05 395.45 38.25 395.35 36.65 394.75 35.55 394.15 34.4 394.1 33.95 394.0 33.1 394.55 31.85 L395.35 29.2 Q395.5 28.1 394.45 26.25 393.4 24.4 393.5 23.1 393.65 21.95 394.15 21.0 394.55 20.25 394.5 18.95 394.4 17.65 393.5 16.5 392.6 15.35 392.6 14.6 L392.65 13.7 Q388.55 12.8 384.95 11.15 L382.6 11.2 373.65 11.55 369.05 12.0 363.7 12.5 362.85 13.8 Q362.35 14.55 362.35 15.25 362.35 16.1 363.05 17.55 L363.75 19.65 362.9 22.05 Q362.05 23.85 362.0 25.5 361.7 33.05 358.85 33.2 355.95 33.3 355.95 25.5 L355.35 24.15 Q354.75 22.7 354.75 21.5 354.75 20.6 355.35 19.05 355.95 17.6 355.85 16.4 355.8 15.35 355.35 14.35 L354.55 12.7 327.45 11.05 Q311.75 10.4 301.05 13.65 L296.7 13.3 290.3 11.65 Q286.3 10.55 283.85 10.4 L283.1 10.35 283.35 11.5 284.5 14.8 Q284.9 15.8 284.85 17.1 284.8 18.1 283.9 19.65 283.05 21.15 282.95 22.9 282.9 24.65 283.3 25.65 283.8 27.0 283.95 28.5 284.1 30.2 283.0 32.75 281.95 35.15 282.1 36.65 282.25 38.05 282.9 40.2 283.45 41.9 283.35 43.05 L282.7 45.15 Q282.1 46.6 282.0 48.75 281.5 56.55 278.7 56.45 275.95 56.3 275.95 48.75 L275.7 43.25 Q275.7 41.7 274.9 40.25 274.1 38.7 274.05 37.35 274.0 35.8 274.85 34.75 275.65 33.75 275.6 33.0 275.55 32.2 275.05 31.65 274.55 31.05 274.35 29.65 274.15 28.35 274.7 27.5 275.3 26.65 275.1 25.25 274.85 23.2 274.2 22.05 273.65 21.05 273.6 19.65 273.6 18.5 274.25 17.4 274.95 16.25 274.95 14.4 L274.85 11.2 267.2 12.65 267.5 14.0 Q267.45 14.75 266.6 15.9 265.85 16.95 265.85 17.75 265.85 18.6 266.55 20.05 267.25 21.5 267.25 22.15 L266.4 24.55 Q265.55 26.35 265.5 28.0 265.2 35.55 262.35 35.7 259.45 35.8 259.45 28.0 L258.85 26.65 Q258.25 25.2 258.25 24.0 258.25 23.1 258.85 21.55 259.45 20.1 259.35 18.9 259.3 17.7 258.55 16.2 257.8 14.7 257.75 14.0 L257.75 13.35 Q249.3 13.7 238.75 13.6 L234.15 13.55 Q230.2 11.9 226.25 11.5 221.7 11.0 217.9 12.15 L216.45 12.65 Q213.55 13.55 210.6 13.85 L205.35 14.2 204.0 13.95 Q200.0 13.25 196.4 11.05 L195.35 11.05 193.5 11.25 180.45 12.45 167.0 13.25 165.45 13.4 140.2 14.35 114.9 13.6 104.5 13.05 Q98.25 12.75 94.05 12.9 L86.5 13.9 87.15 15.45 87.5 17.0 Q87.45 17.75 86.6 18.9 85.85 19.95 85.85 20.75 85.85 21.6 86.55 23.05 87.25 24.5 87.25 25.15 L86.4 27.55 Q85.55 29.35 85.5 31.0 85.2 38.55 82.35 38.7 79.45 38.8 79.45 31.0 L78.85 29.65 Q78.25 28.2 78.25 27.0 78.25 26.1 78.85 24.55 79.45 23.1 79.35 21.9 79.3 20.7 78.55 19.2 77.8 17.7 77.75 17.0 77.65 16.15 77.9 15.4 L76.4 15.55 67.2 14.9 58.1 13.55 52.65 12.55 52.5 16.4 Q52.5 18.25 53.2 19.4 53.85 20.5 53.85 21.65 53.85 23.05 53.25 24.05 52.6 25.2 52.35 27.25 52.2 28.65 52.75 29.5 53.3 30.35 53.1 31.65 52.9 33.05 52.4 33.65 51.9 34.2 51.85 35.0 51.8 35.75 52.6 36.75 53.45 37.8 53.35 39.35 53.3 40.75 52.55 42.25 51.8 43.7 51.75 45.25 L51.5 50.75 Q51.5 58.3 48.75 58.45 45.95 58.55 45.45 50.75 45.35 48.6 44.75 47.15 44.15 45.65 44.1 45.05 44.0 43.9 44.55 42.2 L45.35 38.65 Q45.5 37.15 44.45 34.75 43.4 32.2 43.5 30.5 43.65 29.0 44.15 27.65 44.55 26.65 44.5 24.9 44.4 23.15 43.5 21.65 42.6 20.1 42.6 19.1 42.55 17.8 42.95 16.8 L44.1 13.5 Q44.5 12.1 44.5 10.8 L39.9 11.1 Q36.25 12.05 33.25 13.1 L33.0 15.0 Q32.85 16.1 33.65 16.75 34.5 17.5 34.35 19.5 34.2 21.5 33.6 21.9 32.95 22.25 32.85 23.5 32.7 24.95 33.75 28.65 34.85 32.55 34.85 33.9 34.85 35.25 33.65 38.1 32.35 41.35 31.85 46.65 31.65 48.8 32.65 50.3 33.65 51.85 33.6 53.5 33.55 55.4 32.75 56.85 31.9 58.5 31.75 59.75 31.1 64.7 31.1 71.15 31.1 72.85 32.05 74.55 33.05 76.3 33.1 78.0 33.2 80.9 32.1 83.95 31.0 87.1 31.0 87.5 31.0 91.0 30.2 91.95 L28.75 93.25 Q28.15 97.85 27.05 99.2 25.8 100.65 24.0 97.95 22.6 95.75 21.85 90.95 20.4 90.2 20.4 88.35 20.4 86.95 21.4 86.05 L21.25 78.7 Q19.65 77.9 19.65 75.95 19.65 74.1 21.2 73.3 L20.85 61.0 Q19.9 60.75 19.25 59.25 18.6 57.75 18.5 55.7 18.4 53.65 18.95 52.05 19.55 50.5 20.45 50.2 L20.35 47.55 Q19.15 46.7 19.15 45.1 19.15 43.7 20.15 42.8 L20.0 39.2 Q19.15 38.7 18.55 37.0 17.95 35.2 17.85 32.95 17.8 30.7 18.2 28.95 18.65 27.2 19.4 26.55 L19.2 21.95 Q17.85 23.7 17.35 25.45 16.0 29.9 15.9 36.9 L15.75 48.5 13.6 79.25 Q12.55 97.25 13.55 110.0 13.8 113.55 15.5 123.75 16.95 132.35 16.9 137.55 16.9 141.35 15.95 146.5 L14.15 155.4 Q13.8 157.35 13.75 164.25 13.65 169.65 12.3 172.9 L9.05 179.25 Q7.35 182.8 8.2 186.15 8.55 187.5 10.0 189.8 11.5 192.1 11.85 193.45 13.0 197.8 12.9 206.1 12.8 216.7 13.0 219.0 13.4 224.25 12.85 232.15 L12.7 233.9 10.35 236.6 Q9.35 238.05 10.0 239.85 L10.15 240.65 Q10.65 241.5 12.0 242.25 L11.95 243.45 10.75 257.8 Q10.3 265.6 11.95 271.85 14.5 281.3 14.55 296.55 L14.1 321.55 Q14.15 339.05 13.05 374.05 12.95 377.65 13.45 386.15 13.9 393.85 13.55 398.25 13.25 402.35 14.55 408.05 L16.85 417.7 Q18.55 426.75 17.7 441.4 L16.25 448.45 Q14.75 454.5 14.4 457.85 13.1 469.5 21.5 469.5 26.05 469.5 28.55 466.0 30.35 463.5 31.5 458.25 33.05 451.2 33.3 450.5 34.55 447.0 37.0 447.0 39.45 447.0 40.65 450.45 41.15 452.0 42.1 458.1 42.95 463.35 44.15 465.65 45.95 469.1 49.5 469.0 L71.9 466.2 Q87.95 463.85 92.55 464.65 98.5 465.75 107.05 466.05 L121.65 466.45 Q142.1 467.3 158.25 464.5 165.2 463.25 173.55 464.1 L188.65 466.05 Q192.15 466.45 201.45 465.8 L213.9 466.25 Q214.4 466.35 218.15 467.8 220.35 468.65 222.65 468.35 224.4 468.1 227.15 467.05 L231.6 465.45 Q236.75 463.95 246.1 466.2 257.15 468.85 260.95 468.75 267.5 468.6 280.4 468.6 291.75 468.4 299.8 467.05 L311.25 466.25 Q316.55 466.5 322.4 468.25 333.2 471.4 351.3 468.4 L365.85 466.1 380.6 465.6 Q387.65 466.25 397.25 465.8 L402.8 465.45 435.9 464.4 Q456.45 463.0 468.55 465.6 L473.75 466.6 487.4 468.75 Q494.9 469.55 501.35 469.05 L506.1 468.45 Q518.95 466.25 536.05 465.35 L566.4 464.35 570.3 464.7 Q574.5 465.2 578.0 466.2 582.0 467.35 590.85 470.4 598.7 472.35 603.95 469.65 606.6 468.25 608.6 456.45 610.5 445.3 613.05 445.3 615.35 445.3 618.4 450.15 619.55 452.05 620.35 452.35 621.4 452.8 622.7 450.9 623.95 449.05 625.0 446.4 626.05 443.7 626.2 441.7 626.4 439.25 627.9 435.65 L630.05 429.7 Q630.7 426.85 630.35 422.75 L629.75 415.75 629.25 405.25 Q629.05 399.1 629.55 394.75 630.05 390.4 631.25 387.05 L633.3 380.8 Q634.15 377.4 633.85 374.3 633.65 372.4 632.55 368.1 631.55 364.15 631.4 361.9 631.25 359.6 631.65 355.3 L632.05 348.65 630.65 334.4 Q629.9 325.95 631.7 320.3 633.6 314.35 633.85 308.7 634.1 303.95 633.2 296.8 632.8 293.7 630.9 288.0 629.0 282.15 628.55 279.25 628.1 276.25 629.1 271.45 630.2 266.2 630.1 263.8 L628.85 255.4 Q628.15 250.9 629.5 247.0 630.7 243.55 631.1 239.35 631.6 234.35 630.45 231.35 L628.0 225.0 Q626.6 221.9 626.5 220.15 626.4 218.25 627.55 215.75 629.85 210.85 629.25 200.1 L627.6 184.05 Q626.75 175.5 626.7 171.25 626.6 164.65 627.75 158.4 L629.15 149.65 Q629.6 144.8 629.15 140.85 628.8 137.85 626.8 131.3 625.0 125.15 624.75 121.7 624.45 116.9 627.7 113.6 631.95 109.3 632.75 107.0 634.1 103.2 631.5 98.65 627.95 93.75 626.6 91.3 625.1 88.6 624.8 85.25 624.55 82.85 624.9 79.0 L625.85 71.6 Q627.3 58.3 627.4 54.95 627.75 45.1 625.4 37.85 L625.4 34.7 Q625.7 29.6 626.9 25.05 L626.65 22.75 Q626.0 20.4 623.95 18.25 622.55 20.1 620.6 20.15 L616.95 20.5 M611.4 23.4 L611.85 22.7 Q611.9 22.3 612.3 21.8 L612.9 21.15 Q614.7 19.25 616.25 18.65 617.45 18.15 619.1 18.15 L620.25 18.2 621.25 18.05 622.35 17.0 Q623.0 16.25 623.85 16.25 L623.95 16.25 Q624.8 16.25 625.4 16.85 627.8 19.25 628.55 22.25 628.9 23.5 628.9 25.05 L628.85 25.55 Q627.7 29.7 627.4 34.8 L627.4 37.5 Q629.5 44.3 629.45 53.1 629.4 58.25 628.25 68.2 L626.9 79.2 Q626.6 82.85 626.75 84.95 627.05 87.95 628.35 90.35 L630.7 93.9 Q633.55 97.85 634.45 100.15 635.95 103.95 634.65 107.65 633.9 109.7 632.55 111.45 L630.1 114.05 Q628.15 115.9 627.55 117.0 626.6 118.8 626.75 121.6 626.95 124.95 628.95 131.4 630.8 137.85 631.15 140.6 631.65 144.65 631.15 149.5 630.85 153.0 629.75 158.75 628.65 164.75 628.7 170.85 628.75 175.4 629.6 183.85 L630.1 188.15 Q631.25 198.2 631.35 203.15 631.5 211.95 629.35 216.6 628.4 218.6 628.5 220.0 628.55 221.4 629.8 224.2 L632.3 230.65 Q633.6 234.0 633.1 239.5 632.65 243.95 631.35 247.7 630.5 250.2 630.55 252.75 630.6 254.25 631.25 257.55 L632.1 263.7 Q632.2 266.5 631.2 271.2 630.15 276.3 630.55 278.95 631.0 281.95 632.75 287.15 634.8 293.6 635.15 296.55 636.1 303.9 635.85 308.85 635.6 314.7 633.6 320.9 632.3 324.9 632.35 330.0 632.4 333.1 633.2 339.45 L634.05 348.6 633.7 355.15 Q633.25 359.4 633.35 361.75 633.5 363.85 634.55 367.95 635.55 371.55 635.8 374.1 636.15 377.2 635.4 380.45 L633.65 386.2 633.1 387.7 Q632.05 390.8 631.5 394.95 631.1 398.3 631.2 402.75 L631.5 410.6 631.75 415.65 632.1 419.8 632.5 424.9 Q632.55 427.8 632.0 430.15 L630.15 435.5 Q628.4 439.7 628.2 441.85 628.05 444.2 626.85 447.25 625.75 450.0 624.35 452.05 622.75 454.45 620.75 454.45 619.35 454.45 618.2 453.25 617.5 452.6 616.35 450.7 614.35 447.4 613.15 447.3 612.0 448.2 610.55 456.95 609.45 463.35 608.6 465.95 607.2 470.2 604.85 471.4 601.3 473.25 597.0 473.25 L589.75 472.2 582.65 469.9 577.45 468.15 Q574.15 467.15 570.05 466.7 L566.4 466.35 556.8 466.65 531.35 467.65 Q517.55 468.5 506.45 470.45 L501.5 471.05 496.2 471.25 Q487.65 471.25 473.35 468.55 L468.15 467.55 Q460.1 465.85 449.95 465.85 L430.7 466.75 410.9 467.7 402.8 467.45 397.35 467.8 389.95 468.0 380.45 467.6 375.8 467.4 365.7 468.1 355.7 469.7 Q342.5 472.0 335.5 472.0 328.15 472.0 321.85 470.15 315.3 468.2 309.1 468.2 L300.1 469.0 285.8 470.45 271.65 470.65 261.0 470.75 260.4 470.8 254.1 470.15 247.95 468.7 Q240.15 466.75 236.65 466.75 L232.15 467.35 Q231.05 467.65 229.0 468.5 224.95 470.05 222.9 470.3 L221.35 470.4 Q219.15 470.4 216.25 469.2 L213.45 468.2 207.1 467.6 200.15 467.9 192.9 468.25 188.45 468.0 181.45 467.1 167.0 465.75 158.55 466.45 Q145.75 468.65 131.1 468.65 L121.55 468.45 114.0 468.25 103.15 467.9 92.2 466.65 89.05 466.4 79.4 467.2 67.75 468.85 49.5 471.0 49.3 471.05 Q44.5 471.05 42.25 466.35 40.9 463.65 39.9 457.0 L38.9 451.6 Q38.15 449.0 37.0 449.0 35.95 449.0 35.15 451.3 34.65 452.7 33.95 456.25 32.55 463.25 30.75 466.3 27.65 471.5 21.5 471.5 16.7 471.5 14.3 468.45 11.75 465.2 12.25 458.75 12.55 454.9 14.45 447.2 L15.7 441.25 Q16.1 434.3 16.0 429.75 15.85 423.3 14.85 418.05 L13.5 412.3 Q12.35 407.65 11.95 405.35 11.3 401.4 11.55 398.1 11.9 393.15 11.35 385.05 10.95 377.8 11.05 374.0 12.1 341.35 12.1 321.55 L12.3 309.5 Q12.65 296.65 12.4 290.3 12.0 279.8 10.05 272.35 8.65 267.25 8.65 261.55 8.6 258.1 9.3 251.3 L9.95 243.3 Q8.85 242.5 8.4 241.55 L8.0 240.25 Q7.35 238.15 8.2 236.35 8.65 235.35 10.1 233.8 L10.75 233.1 10.85 232.0 Q11.45 224.85 11.0 219.2 10.75 216.15 10.85 209.3 L10.85 201.25 Q10.7 196.9 9.9 194.0 9.65 192.95 8.35 190.95 6.65 188.15 6.3 186.65 5.5 183.5 6.4 180.55 6.9 178.75 8.7 175.6 L10.45 172.15 Q11.3 170.1 11.6 167.45 L11.75 162.45 Q11.75 157.55 12.2 155.05 L13.15 150.2 14.35 143.8 Q14.9 140.35 14.9 137.5 14.95 134.1 14.4 129.75 L13.2 122.0 Q11.85 113.9 11.55 110.15 10.75 99.4 11.3 85.65 11.6 77.15 12.85 61.1 L13.75 48.4 13.9 41.0 Q13.85 35.6 14.05 32.9 14.35 28.35 15.45 24.85 16.05 22.8 17.6 20.75 18.25 19.95 19.2 19.95 L19.8 20.05 Q21.1 20.45 21.2 21.85 L21.4 26.45 Q21.5 27.5 20.7 28.1 20.4 28.4 20.15 29.5 19.8 31.0 19.85 32.85 19.9 34.7 20.4 36.2 L21.0 37.5 Q21.9 38.05 22.0 39.15 L22.15 42.7 Q22.15 43.65 21.5 44.25 21.15 44.6 21.15 45.1 21.15 45.65 21.55 45.95 22.3 46.5 22.35 47.5 L22.45 50.15 Q22.55 51.5 21.2 52.05 20.4 53.05 20.5 55.6 20.55 58.05 21.45 59.1 22.75 59.5 22.85 60.9 L23.2 73.25 Q23.2 74.5 22.1 75.05 21.65 75.3 21.65 75.95 21.65 76.65 22.1 76.85 23.25 77.45 23.25 78.65 L23.3 82.55 23.4 85.95 Q23.4 86.8 22.75 87.55 22.4 87.8 22.4 88.35 22.4 89.0 22.85 89.2 23.7 89.8 23.85 90.65 24.5 95.0 25.7 96.9 L25.85 97.15 Q26.4 95.65 26.75 93.0 L27.0 92.25 Q27.45 91.5 28.45 90.8 L28.65 90.7 Q29.0 90.1 29.0 87.5 29.0 86.4 29.8 84.45 31.15 80.85 31.1 78.05 31.05 76.8 30.35 75.55 29.1 73.4 29.1 71.15 L29.1 70.3 Q29.1 64.5 29.75 59.5 29.95 57.85 30.85 56.15 31.55 54.95 31.6 53.45 31.65 52.45 31.05 51.55 30.35 50.45 30.1 49.6 29.7 48.25 29.85 46.45 30.45 40.25 32.2 36.5 32.85 34.9 32.85 33.9 32.85 32.6 31.9 29.55 30.7 25.25 30.85 23.35 31.05 21.25 32.25 20.4 L32.35 19.4 32.3 18.25 32.25 18.2 Q30.75 17.0 31.0 14.8 L31.25 12.8 Q31.5 11.65 32.55 11.25 35.8 10.05 39.45 9.15 L43.1 8.75 44.65 8.8 Q45.4 8.9 45.95 9.4 46.45 9.95 46.5 10.75 46.5 12.45 46.0 14.1 L45.0 16.95 Q44.55 18.15 44.6 19.0 44.6 19.5 45.15 20.4 46.4 22.65 46.45 24.8 46.55 26.95 45.95 28.5 45.6 29.35 45.5 30.7 45.4 31.9 46.3 33.95 L47.15 36.15 Q47.5 37.55 47.35 38.9 L46.5 42.55 Q46.05 44.25 46.1 44.9 L46.4 46.0 Q47.3 47.9 47.45 50.65 47.7 54.1 48.65 56.05 49.5 54.1 49.5 50.75 L49.75 45.25 Q49.75 43.25 50.8 41.25 51.35 40.25 51.35 39.3 51.4 38.45 50.9 37.9 49.75 36.35 49.85 34.9 49.95 33.45 50.8 32.45 L51.1 31.35 51.15 30.8 51.1 30.65 Q50.1 29.15 50.35 27.05 50.65 24.6 51.55 23.05 L51.85 21.6 51.55 20.55 Q50.5 18.85 50.5 16.4 L50.65 12.35 Q50.75 11.45 51.5 10.9 52.0 10.55 52.65 10.55 L53.15 10.6 58.25 11.55 65.25 12.55 74.5 13.6 77.9 13.4 Q78.85 13.4 79.4 14.05 80.1 14.85 79.85 15.9 L79.7 16.85 80.2 18.05 Q81.25 20.15 81.35 21.8 81.45 23.4 80.65 25.45 L80.25 27.0 Q80.25 28.2 81.0 29.55 L81.45 31.0 Q81.45 34.55 82.3 36.35 83.3 34.8 83.5 30.95 83.55 28.85 84.75 26.35 L85.25 25.15 84.75 24.0 Q83.85 22.1 83.85 20.75 83.85 19.2 85.05 17.65 L85.5 16.85 85.25 16.2 Q84.75 15.25 84.55 14.2 84.45 13.4 84.9 12.75 85.35 12.1 86.15 11.95 L93.95 10.95 97.3 10.85 108.55 11.3 116.8 11.7 143.05 12.35 165.25 11.45 166.75 11.3 178.95 10.5 193.1 9.3 195.25 9.05 196.6 9.05 197.4 9.35 Q200.8 11.35 204.4 12.0 L205.45 12.15 206.2 12.15 210.75 11.85 215.8 10.75 Q216.6 10.5 217.35 10.2 220.35 9.35 223.55 9.35 228.95 9.35 234.6 11.6 L242.95 11.65 257.65 11.35 257.75 11.35 Q258.6 11.35 259.2 11.95 259.85 12.65 259.75 13.5 L259.7 13.85 260.2 15.05 Q261.25 17.15 261.35 18.8 261.45 20.4 260.65 22.45 L260.25 24.0 Q260.25 25.2 261.0 26.55 L261.45 28.0 Q261.45 31.55 262.3 33.35 263.3 31.8 263.5 27.95 263.55 25.85 264.75 23.35 L265.25 22.15 264.75 21.0 Q263.85 19.1 263.85 17.75 263.85 16.2 265.05 14.65 L265.5 13.85 265.4 13.5 Q265.0 12.55 265.45 11.7 265.95 10.8 266.9 10.65 L274.85 9.2 Q275.55 9.2 276.05 9.65 276.8 10.2 276.85 11.05 L276.95 14.4 Q276.95 16.9 275.85 18.55 275.6 19.0 275.6 19.6 275.6 20.55 275.9 21.05 276.8 22.6 277.1 25.05 277.35 27.15 276.35 28.65 L276.3 28.75 276.35 29.35 Q276.45 30.25 276.65 30.45 277.5 31.45 277.6 32.9 277.7 34.45 276.5 35.9 276.05 36.5 276.05 37.3 276.1 38.25 276.65 39.25 277.7 41.25 277.7 43.25 L277.95 48.75 Q277.95 52.1 278.8 54.05 279.75 52.1 280.0 48.65 280.15 46.05 281.0 44.0 L281.35 42.9 280.95 40.55 Q280.3 38.65 280.1 36.9 279.85 34.85 281.15 31.95 282.05 29.9 281.95 28.7 L281.5 26.5 Q280.9 24.95 280.95 22.8 281.05 20.65 282.3 18.4 L282.85 17.0 Q282.9 16.15 282.45 14.95 L281.45 12.1 281.1 10.7 Q280.95 9.75 281.55 9.05 282.15 8.35 283.1 8.35 L283.3 8.4 283.95 8.4 Q286.7 8.55 292.1 10.1 L297.05 11.35 300.15 11.65 300.7 11.65 Q309.8 8.95 321.8 8.95 L339.5 9.85 354.6 10.7 Q355.8 10.7 356.4 11.9 L356.7 12.55 Q357.75 14.65 357.85 16.3 357.95 17.9 357.15 19.95 356.75 20.9 356.75 21.5 356.75 22.7 357.5 24.05 L357.95 25.5 Q357.95 29.05 358.8 30.85 359.8 29.3 360.0 25.45 360.05 23.35 361.25 20.85 L361.75 19.65 361.25 18.5 Q360.35 16.6 360.35 15.25 360.35 13.7 361.55 12.15 L361.9 11.6 Q362.5 10.55 363.55 10.55 L373.5 9.55 381.6 9.2 384.95 9.15 385.75 9.35 Q389.4 10.95 393.05 11.75 393.85 11.9 394.3 12.6 394.75 13.25 394.6 14.05 L394.6 14.5 394.95 15.1 Q396.35 16.75 396.45 18.8 396.55 20.75 395.85 22.0 395.6 22.5 395.5 23.35 395.45 24.05 396.2 25.25 L397.1 27.1 Q397.5 28.3 397.3 29.5 L396.45 32.4 Q396.05 33.4 396.1 33.75 L396.3 34.25 Q397.3 36.0 397.45 38.05 397.75 40.95 398.65 41.85 399.5 40.85 399.5 38.25 L399.75 34.05 Q399.75 32.4 400.95 30.65 L401.35 29.6 401.35 29.4 401.1 29.15 Q399.7 27.9 399.85 26.3 399.95 25.0 401.05 24.0 L401.15 23.6 Q400.05 22.2 400.4 20.35 400.75 18.3 401.7 17.05 L401.8 16.9 401.85 16.45 401.85 16.3 401.75 16.15 401.25 15.55 Q400.7 14.55 401.15 13.55 401.75 12.5 402.85 12.45 L410.25 11.45 410.65 11.45 Q411.9 11.45 412.45 12.5 413.4 14.5 413.45 16.05 413.55 17.65 412.75 19.7 412.35 20.65 412.35 21.25 412.35 22.35 413.15 23.8 L413.6 25.25 Q413.6 29.0 414.45 30.6 415.5 28.8 415.6 25.2 415.7 23.1 416.9 20.6 L417.35 19.4 416.9 18.25 Q416.0 16.35 416.0 15.0 416.0 13.55 417.15 11.9 L417.6 11.25 Q418.0 9.9 419.45 9.9 L419.5 9.9 424.6 10.05 433.15 11.25 443.25 12.45 447.65 12.05 454.2 11.3 456.3 11.2 Q461.65 11.0 471.9 9.05 L480.5 7.6 487.8 7.1 Q494.5 7.1 505.5 8.95 L513.95 9.55 520.3 9.4 527.05 9.2 530.7 9.3 Q534.45 9.5 542.45 11.05 551.0 12.8 555.05 12.8 L565.05 12.4 567.65 12.3 Q568.5 12.3 569.05 12.8 569.65 13.4 569.65 14.25 569.8 19.55 569.55 20.8 L568.85 23.15 Q568.15 25.1 568.2 26.1 568.35 28.5 569.25 34.9 570.55 43.75 570.45 48.45 570.25 54.95 571.2 63.3 571.55 66.85 571.55 74.1 L571.55 78.65 571.55 80.9 Q571.45 84.1 571.7 85.5 572.0 87.5 571.8 91.5 L571.75 95.25 Q571.85 97.25 572.4 98.6 572.75 99.65 573.1 99.8 L573.55 99.65 Q574.2 99.3 574.65 98.2 L575.25 95.9 575.85 93.5 Q576.25 92.45 576.1 90.6 L575.9 89.05 Q575.4 85.6 575.8 83.3 576.2 81.2 575.7 77.0 575.25 72.7 575.5 70.6 575.7 68.3 576.8 64.45 577.75 61.2 577.95 59.35 578.2 57.7 577.7 54.15 577.3 51.05 577.4 49.25 L577.4 48.45 577.3 45.8 577.35 45.1 577.7 44.0 Q582.45 27.0 578.4 18.05 L578.2 17.2 578.3 14.1 Q578.4 13.25 578.95 12.7 579.6 12.2 580.3 12.2 L587.1 12.3 Q588.1 12.4 588.7 13.15 589.3 13.95 588.95 14.95 L588.0 17.55 Q587.55 18.65 587.6 19.35 587.6 19.75 588.1 20.6 589.4 22.6 589.45 24.8 589.55 26.85 588.95 28.4 588.6 29.1 588.5 30.35 588.4 31.4 589.3 33.35 L590.15 35.45 Q590.5 36.8 590.35 38.1 L589.5 41.6 Q589.05 43.05 589.1 43.7 L589.4 44.65 Q590.3 46.55 590.45 49.1 590.7 52.55 591.65 54.1 592.5 52.5 592.5 49.25 L592.75 44.0 Q592.75 42.1 593.85 40.15 L594.35 38.45 594.3 37.75 593.95 37.25 Q592.75 35.75 592.85 34.25 592.95 32.85 593.85 31.85 L593.9 31.8 594.1 30.95 594.15 30.5 594.1 30.4 Q593.1 28.95 593.35 26.9 593.65 24.65 594.55 23.05 L594.85 21.8 594.6 20.9 Q593.5 19.3 593.5 16.95 L593.55 14.65 Q593.65 13.8 594.25 13.25 594.85 12.75 595.55 12.75 L595.8 12.8 Q599.8 13.25 602.3 14.35 604.55 15.3 606.45 18.45 606.85 19.15 606.7 19.95 L606.4 20.95 606.1 22.6 606.55 23.8 Q607.65 26.0 607.7 27.55 607.8 29.15 607.0 31.2 L606.6 32.75 Q606.6 33.85 607.4 35.3 L607.85 36.75 Q607.85 40.5 608.7 42.1 609.75 40.3 609.85 36.7 609.95 34.6 611.15 32.1 L611.6 30.9 611.15 29.75 Q610.25 27.85 610.25 26.5 610.25 25.05 611.4 23.4" fill="#ccf5ff" fill-opacity="0.4" fill-rule="evenodd" stroke="none"/>
    <path d="M205.4 10.15 L204.4 10.0 Q200.7 9.5 197.4 7.9 L196.6 7.65 195.65 7.6 193.1 7.85 186.75 8.55 201.25 2.0 230.65 2.0 215.05 9.15 206.1 10.1 205.4 10.15" fill="#e5faff" fill-opacity="0.3019608" fill-rule="evenodd" stroke="none"/>
    <path d="M2.0 104.25 L8.8 100.0 Q8.9 105.85 9.15 110.15 L9.6 115.8 2.0 120.55 2.0 104.25" fill="#e5faff" fill-opacity="0.3019608" fill-rule="evenodd" stroke="none"/>
    <path d="M579.6 10.75 Q578.85 10.75 578.3 11.2 577.7 11.65 577.7 12.4 L576.5 16.2 574.25 17.85 572.0 19.5 571.8 12.35 Q571.8 11.8 570.6 11.2 568.9 10.4 566.0 10.5 L560.25 10.95 555.55 11.25 Q551.4 11.25 543.5 9.75 L534.35 8.4 544.1 2.0 595.45 2.0 582.4 10.8 579.6 10.75" fill="#e5faff" fill-opacity="0.3019608" fill-rule="evenodd" stroke="none"/>
    <path d="M9.9 343.5 L2.0 347.85 2.0 311.6 10.3 307.0 10.25 309.5 10.05 321.55 9.9 343.5" fill="#e5faff" fill-opacity="0.3019608" fill-rule="evenodd" stroke="none"/>
    <path d="M174.6 467.65 L150.05 478.0 123.45 478.0 144.35 469.35 158.55 467.85 167.0 467.25 174.6 467.65" fill="#e5faff" fill-opacity="0.3019608" fill-rule="evenodd" stroke="none"/>
    <path d="M630.4 181.3 L638.0 175.0 638.0 188.6 631.6 193.85 630.4 181.3" fill="#e5faff" fill-opacity="0.3019608" fill-rule="evenodd" stroke="none"/>
    <path d="M635.05 386.2 L636.25 380.45 Q636.75 377.25 636.55 374.1 L636.4 372.9 638.0 371.35 638.0 384.95 634.55 388.4 635.05 386.2" fill="#e5faff" fill-opacity="0.3019608" fill-rule="evenodd" stroke="none"/>
    <path d="M493.2 478.0 L471.15 478.0 484.0 471.8 496.25 472.55 501.5 472.4 505.4 472.05 493.2 478.0" fill="#e5faff" fill-opacity="0.3019608" fill-rule="evenodd" stroke="none"/>
    <path d="M612.1 456.25 Q612.7 449.75 613.4 448.8 614.1 448.9 615.25 452.2 L615.4 452.55 612.1 456.25" fill="#e5faff" fill-opacity="0.3019608" fill-rule="evenodd" stroke="none"/>
    <path d="M633.2 415.65 L633.0 409.85 638.0 405.5 638.0 436.8 630.3 443.45 630.5 441.85 Q630.6 439.65 631.95 435.5 L633.4 430.15 Q634.0 426.55 633.5 419.8 L633.2 415.65" fill="#e5faff" fill-opacity="0.3019608" fill-rule="evenodd" stroke="none"/>
    <path d="M574.9 478.0 L525.85 478.0 543.5 468.6 566.4 468.05 570.05 468.3 577.45 469.55 582.65 471.05 585.9 472.0 574.9 478.0" fill="#e5faff" fill-opacity="0.3019608" fill-rule="evenodd" stroke="none"/>
    <path d="M251.8 478.0 L176.75 478.0 196.95 470.15 200.15 470.0 207.1 469.75 213.45 470.25 Q214.75 470.5 216.25 471.0 219.15 472.0 221.35 472.0 L222.9 471.9 229.0 470.45 232.15 469.55 236.65 469.1 Q240.2 469.1 247.95 470.65 256.3 472.3 260.4 472.3 L261.0 472.25 266.0 472.2 251.8 478.0" fill="#e5faff" fill-opacity="0.3019608" fill-rule="evenodd" stroke="none"/>
    <path d="M631.25 224.2 Q630.25 221.35 630.15 220.0 630.05 218.55 630.85 216.6 632.15 213.3 632.45 207.45 L638.0 202.6 638.0 243.05 632.5 247.75 632.5 247.7 Q633.6 243.9 633.95 239.5 634.4 234.0 633.3 230.65 L631.25 224.2" fill="#e5faff" fill-opacity="0.3019608" fill-rule="evenodd" stroke="none"/>
    <path d="M576.85 45.9 L571.3 50.95 571.3 48.45 Q571.35 44.05 570.75 38.45 L579.1 30.8 Q578.8 36.75 577.15 44.0 L576.9 45.1 576.85 45.8 576.85 45.9" fill="#e5faff" fill-opacity="0.3019608" fill-rule="evenodd" stroke="none"/>
    <path d="M592.95 20.35 L593.15 20.9 593.25 21.8 593.15 23.05 Q592.65 24.65 592.5 26.9 592.4 29.0 592.9 30.4 L592.9 30.95 592.8 31.8 592.75 31.85 Q592.3 33.0 592.25 34.25 L592.25 34.45 591.0 36.35 590.45 33.35 Q590.05 31.2 590.1 30.35 L590.3 28.4 Q590.6 27.0 590.55 24.8 L590.55 23.95 592.95 20.35" fill="#e5faff" fill-opacity="0.3019608" fill-rule="evenodd" stroke="none"/>
    <path d="M2.0 362.7 L10.45 358.5 10.15 370.65 2.0 374.65 2.0 362.7" fill="#e5faff" fill-opacity="0.3019608" fill-rule="evenodd" stroke="none"/>
    <path d="M608.05 23.85 L607.65 22.6 Q607.6 22.2 607.9 20.95 L608.15 19.95 Q608.3 19.1 607.95 18.45 606.2 15.25 604.3 14.35 L604.25 14.3 618.5 2.0 633.6 2.0 608.15 24.1 608.05 23.85" fill="#e5faff" fill-opacity="0.3019608" fill-rule="evenodd" stroke="none"/>
    <path d="M2.0 2.0 L21.1 2.0 2.0 11.2 2.0 2.0" fill="#e5faff" fill-opacity="0.3019608" fill-rule="evenodd" stroke="none"/>
    <path d="M25.25 86.4 L25.3 85.95 25.25 82.9 29.15 79.2 28.75 83.15 25.25 86.4" fill="#abf0ff" fill-opacity="0.4" fill-rule="evenodd" stroke="none"/>
    <path d="M2.0 92.95 L8.85 88.65 8.8 92.25 2.0 96.5 2.0 92.95" fill="#e5faff" fill-opacity="0.3019608" fill-rule="evenodd" stroke="none"/>
    <path d="M163.2 9.7 L180.65 2.0 187.0 2.0 171.05 9.05 163.2 9.7" fill="#e5faff" fill-opacity="0.3019608" fill-rule="evenodd" stroke="none"/>
  </g>
</svg>
