<?xml version="1.0" encoding="UTF-8" standalone="no"?>
<svg xmlns:ffdec="https://www.free-decompiler.com/flash" xmlns:xlink="http://www.w3.org/1999/xlink" ffdec:objectType="shape" height="80.95px" width="119.0px" xmlns="http://www.w3.org/2000/svg">
  <g transform="matrix(1.0, 0.0, 0.0, 1.0, 0.0, 0.0)">
    <path d="M119.0 7.6 L119.0 73.3 Q119.0 76.45 116.8 78.7 114.55 80.95 111.4 80.95 L7.6 80.95 Q4.45 80.95 2.25 78.7 0.0 76.45 0.0 73.3 L0.0 7.6 Q0.0 4.45 2.25 2.25 4.45 0.0 7.6 0.0 L111.4 0.0 Q114.55 0.0 116.8 2.25 119.0 4.45 119.0 7.6" fill="#fecd26" fill-rule="evenodd" stroke="none"/>
    <path d="M52.75 27.25 L53.7 29.3 23.05 19.4 38.95 16.9 39.15 17.2 40.3 18.65 42.85 21.3 Q45.65 23.9 48.9 25.65 L52.75 27.25" fill="#fecd26" fill-rule="evenodd" stroke="none"/>
    <path d="M28.95 35.35 L54.25 30.5 54.85 31.9 50.35 32.7 48.3 33.2 Q44.75 34.2 41.7 35.55 40.15 36.2 38.4 37.25 L36.0 38.75 28.95 35.35" fill="#fecd26" fill-rule="evenodd" stroke="none"/>
    <path d="M65.4 30.5 L90.7 35.35 83.6 38.75 81.25 37.25 Q79.65 36.3 77.95 35.55 74.95 34.2 71.35 33.2 L69.3 32.7 64.8 31.9 65.4 30.5" fill="#fecd26" fill-rule="evenodd" stroke="none"/>
    <path d="M66.9 27.25 L70.75 25.65 Q74.05 23.85 76.75 21.3 L79.35 18.65 80.5 17.2 80.7 16.9 96.6 19.4 65.95 29.3 66.9 27.25" fill="#fecd26" fill-rule="evenodd" stroke="none"/>
    <path d="M48.3 33.2 L50.35 32.7 54.85 31.9 54.25 30.5 28.95 35.35 36.0 38.75 38.4 37.25 Q40.15 36.2 41.7 35.55 44.75 34.2 48.3 33.2 M39.15 17.2 L38.95 16.9 23.05 19.4 53.7 29.3 52.75 27.25 48.9 25.65 Q45.65 23.9 42.85 21.3 L40.3 18.65 39.15 17.2 M59.75 57.75 L56.5 56.85 59.75 64.3 62.95 56.85 59.75 57.75 M55.35 54.1 L59.75 55.4 64.15 54.1 65.65 50.6 59.75 51.95 53.8 50.6 55.35 54.1 M66.8 47.95 L67.7 45.85 59.75 47.2 51.75 45.85 52.65 47.95 59.75 49.6 66.8 47.95 M65.4 30.5 L64.8 31.9 69.3 32.7 71.35 33.2 Q74.95 34.2 77.95 35.55 79.65 36.3 81.25 37.25 L83.6 38.75 90.7 35.35 65.4 30.5 M66.9 27.25 L65.95 29.3 96.6 19.4 80.7 16.9 80.5 17.2 79.35 18.65 76.75 21.3 Q74.05 23.85 70.75 25.65 L66.9 27.25 M55.8 13.6 L55.35 13.1 Q54.0 11.75 52.9 11.75 51.95 11.7 51.4 12.3 L51.15 12.55 51.1 12.7 51.05 12.7 51.0 12.85 51.0 13.0 50.95 13.05 50.95 13.4 51.0 13.55 51.0 13.6 51.15 14.05 51.2 14.1 51.35 14.4 51.45 14.55 51.5 14.65 51.65 14.85 51.75 14.95 51.9 15.15 52.2 15.45 52.25 15.55 52.6 15.9 Q54.55 17.85 57.35 18.25 L57.35 18.1 57.3 17.75 57.3 17.5 57.25 17.4 57.25 17.2 57.2 17.1 57.2 16.85 57.15 16.75 57.1 16.5 57.1 16.4 56.55 14.85 56.3 14.4 56.25 14.25 56.1 14.0 55.95 13.85 55.8 13.6 M68.65 13.05 L68.65 12.9 68.6 12.85 68.5 12.55 68.25 12.3 Q67.7 11.7 66.75 11.75 65.65 11.75 64.3 13.1 L63.95 13.5 63.9 13.6 63.65 13.85 63.6 14.0 63.4 14.25 63.35 14.4 63.2 14.7 63.1 14.8 62.95 15.25 62.8 15.55 62.8 15.65 62.55 16.4 62.55 16.45 62.5 16.8 62.45 16.85 62.4 17.1 62.4 17.2 62.35 17.45 62.35 17.75 62.3 18.1 62.3 18.25 63.95 17.8 Q65.85 17.1 67.05 15.9 L67.5 15.45 67.75 15.1 67.9 14.95 68.1 14.65 68.2 14.55 68.3 14.4 68.35 14.3 68.45 14.15 68.5 14.05 68.55 13.85 68.6 13.8 68.65 13.6 68.65 13.4 68.7 13.35 68.7 13.15 68.65 13.05 M76.25 9.5 Q76.45 9.75 76.15 9.95 L75.95 10.0 75.7 9.85 Q74.9 8.7 73.75 7.7 L73.7 7.65 73.25 7.3 71.25 6.05 Q70.0 5.45 68.5 5.15 L67.1 4.9 66.25 4.85 65.95 5.3 65.5 6.25 Q65.05 7.15 64.9 8.15 L64.85 8.55 65.7 8.55 Q71.1 9.45 71.1 13.55 L71.05 14.05 Q70.65 16.4 64.45 19.95 L63.85 20.25 64.0 20.3 67.2 22.3 67.65 22.7 67.8 22.8 68.25 23.2 68.4 23.6 68.7 23.45 69.75 22.8 Q72.2 21.2 74.2 19.05 L76.15 16.55 77.0 15.25 77.65 13.85 77.65 13.8 78.3 12.5 111.15 18.2 73.55 29.9 100.1 33.95 83.05 44.45 82.65 43.85 80.25 41.3 Q76.95 38.45 72.45 36.55 L72.45 36.5 69.1 35.3 68.9 35.25 63.75 34.1 62.8 36.3 62.8 36.35 62.45 37.05 62.4 38.15 Q62.6 39.45 63.55 40.15 L70.5 43.45 65.4 56.65 Q60.3 70.95 60.3 77.4 L60.3 77.55 Q60.25 77.85 59.8 77.85 L59.35 77.55 59.35 77.4 Q59.35 70.95 54.25 56.65 L49.15 43.45 56.1 40.15 Q57.05 39.45 57.25 38.15 L57.2 37.05 56.85 36.35 56.85 36.3 55.9 34.1 Q53.4 34.5 50.75 35.25 L50.55 35.3 47.2 36.5 47.2 36.55 Q42.7 38.45 39.4 41.3 L37.0 43.85 36.6 44.45 19.55 33.95 46.1 29.9 8.5 18.2 39.7 12.7 39.75 12.7 41.3 12.5 42.0 13.8 42.0 13.85 42.65 15.25 43.5 16.55 45.45 19.05 Q47.45 21.2 49.9 22.8 L50.95 23.45 51.25 23.6 51.4 23.2 51.8 22.8 51.95 22.7 52.45 22.3 Q53.8 21.25 55.65 20.3 L55.8 20.25 55.2 19.95 Q48.95 16.35 48.55 14.05 L48.55 13.55 Q48.55 9.45 53.95 8.55 L54.8 8.55 54.75 8.15 54.15 6.25 53.7 5.3 53.4 4.85 52.55 4.9 51.15 5.15 Q49.65 5.45 48.4 6.05 47.5 6.45 46.4 7.3 L45.95 7.65 45.9 7.7 Q44.85 8.55 43.95 9.85 L43.7 10.0 43.5 9.95 Q43.2 9.75 43.4 9.5 44.2 7.95 45.2 6.9 L45.3 6.85 Q46.5 5.6 47.75 4.85 49.3 3.9 50.65 3.45 L52.25 3.0 53.95 2.75 54.0 2.75 54.4 2.8 54.45 2.85 54.7 3.05 54.75 3.1 56.25 5.15 57.25 7.5 57.5 8.55 62.15 8.55 62.4 7.5 Q62.65 6.45 63.4 5.15 L64.9 3.1 64.95 3.05 65.2 2.85 65.25 2.8 65.65 2.75 65.7 2.75 67.4 3.0 68.95 3.45 Q70.4 3.95 71.9 4.85 L74.35 6.85 74.4 6.9 Q75.4 7.9 76.25 9.5" fill="#221e1f" fill-rule="evenodd" stroke="none"/>
    <path d="M55.35 13.1 L55.8 13.6 55.95 13.85 56.1 14.0 56.25 14.25 56.3 14.4 56.55 14.85 57.1 16.4 57.1 16.5 57.15 16.75 57.2 16.85 57.2 17.1 57.25 17.2 57.25 17.4 57.3 17.5 57.3 17.75 57.35 18.25 Q54.55 17.85 52.6 15.9 L52.25 15.55 52.2 15.45 51.9 15.15 51.75 14.95 51.65 14.85 51.5 14.65 51.45 14.55 51.35 14.4 51.2 14.1 51.15 14.05 51.0 13.6 51.0 13.55 50.95 13.4 50.95 13.05 51.0 13.0 51.0 12.85 51.05 12.7 51.1 12.7 51.15 12.55 51.4 12.3 Q52.05 11.7 52.9 11.75 54.05 11.8 55.35 13.1" fill="#fecd26" fill-rule="evenodd" stroke="none"/>
    <path d="M68.65 12.9 L68.65 13.05 68.7 13.15 68.7 13.35 68.65 13.4 68.65 13.6 68.6 13.8 68.55 13.85 68.5 14.05 68.45 14.15 68.35 14.3 68.3 14.4 68.2 14.55 68.1 14.65 67.9 14.95 67.75 15.1 67.5 15.45 67.05 15.9 Q65.85 17.1 63.95 17.8 L62.3 18.25 62.35 17.75 62.35 17.45 62.4 17.2 62.4 17.1 62.45 16.85 62.5 16.8 62.55 16.45 62.55 16.4 62.8 15.65 62.8 15.55 62.95 15.25 63.1 14.8 63.2 14.7 63.35 14.4 63.4 14.25 63.6 14.0 63.65 13.85 63.9 13.6 63.95 13.5 64.3 13.1 Q65.6 11.8 66.75 11.75 67.65 11.7 68.25 12.3 L68.5 12.55 68.6 12.85 68.65 12.9" fill="#fecd26" fill-rule="evenodd" stroke="none"/>
    <path d="M59.75 47.2 L67.7 45.85 66.8 47.95 59.75 49.6 52.65 47.95 51.75 45.85 59.75 47.2" fill="#fecd26" fill-rule="evenodd" stroke="none"/>
    <path d="M59.75 51.95 L65.65 50.6 64.15 54.1 59.75 55.4 55.35 54.1 53.8 50.6 59.75 51.95" fill="#fecd26" fill-rule="evenodd" stroke="none"/>
    <path d="M56.5 56.85 L59.75 57.75 62.95 56.85 59.75 64.3 56.5 56.85" fill="#fecd26" fill-rule="evenodd" stroke="none"/>
  </g>
</svg>
