<?xml version="1.0" encoding="UTF-8" standalone="no"?>
<svg xmlns:ffdec="https://www.free-decompiler.com/flash" xmlns:xlink="http://www.w3.org/1999/xlink" ffdec:objectType="shape" height="81.5px" width="118.85px" xmlns="http://www.w3.org/2000/svg">
  <g transform="matrix(1.0, 0.0, 0.0, 1.0, 0.0, 0.0)">
    <path d="M118.85 9.1 L118.85 72.4 Q118.85 76.15 116.2 78.85 113.55 81.5 109.75 81.5 L9.1 81.5 Q5.35 81.5 2.7 78.85 0.0 76.15 0.0 72.4 L0.0 9.1 Q0.0 5.35 2.7 2.7 5.35 0.0 9.1 0.0 L109.75 0.0 Q113.55 0.0 116.2 2.7 118.85 5.35 118.85 9.1" fill="url(#gradient0)" fill-rule="evenodd" stroke="none"/>
    <path d="M85.1 31.6 L81.75 28.7 Q92.55 44.0 89.6 64.1 88.15 74.15 84.5 81.15 L74.25 81.2 Q76.35 78.4 77.35 74.65 L77.95 71.4 Q76.9 75.75 71.65 78.75 L66.6 80.85 40.7 80.85 Q36.7 77.5 33.75 71.9 L31.55 67.0 31.7 70.95 Q32.25 75.9 34.3 80.85 L22.45 80.85 Q18.0 75.1 15.1 67.25 L13.05 60.55 Q11.7 67.75 12.65 75.1 13.1 78.75 13.85 81.0 L8.65 81.1 Q5.25 80.6 3.0 78.3 0.7 75.9 0.65 72.4 L0.65 42.9 1.5 51.4 Q3.0 60.5 6.3 63.45 5.9 60.0 6.45 55.1 7.6 45.35 12.45 38.05 17.3 30.75 24.1 26.75 27.5 24.8 29.95 24.25 28.35 25.35 26.25 27.45 22.05 31.65 19.65 36.55 11.85 52.25 24.6 69.35 23.55 65.0 24.85 59.65 27.5 48.9 39.45 43.9 L38.15 45.6 Q36.65 47.75 35.9 50.2 33.45 58.1 39.0 66.05 44.2 73.55 51.8 74.45 58.25 75.2 64.9 71.3 72.45 66.85 74.45 57.2 75.1 54.15 75.1 51.0 L74.95 48.4 76.7 51.2 Q78.55 55.2 78.95 61.3 80.7 55.0 79.8 47.65 77.95 32.85 64.55 27.4 51.35 22.05 37.65 32.0 33.4 35.1 29.55 39.35 L26.6 43.0 28.5 38.55 Q31.2 33.25 35.0 28.85 47.1 14.9 65.85 15.6 82.55 16.25 94.0 28.2 99.7 34.2 102.1 40.05 102.75 37.65 102.55 34.0 102.15 26.7 97.95 20.6 L105.35 27.45 Q113.65 36.5 118.25 47.6 L118.25 71.9 Q118.25 75.55 116.3 77.95 114.1 80.65 110.1 80.85 115.65 68.55 112.9 55.65 112.1 51.65 110.5 48.05 L109.1 45.25 Q112.25 57.25 106.9 67.1 104.25 72.0 100.95 74.5 102.4 55.7 92.25 40.3 89.05 35.5 85.1 31.6" fill="url(#gradient1)" fill-rule="evenodd" stroke="none"/>
    <path d="M66.65 40.45 Q68.55 44.75 67.05 48.75 65.65 52.5 61.5 56.05 L57.6 58.8 60.35 55.5 Q62.75 51.25 61.0 46.45 59.3 41.75 51.95 41.3 L44.9 41.8 Q48.2 38.55 52.8 37.9 55.1 37.55 56.75 37.85 55.9 36.75 52.75 36.35 L49.75 36.2 53.1 34.65 Q57.2 33.4 60.9 34.8 64.75 36.2 66.65 40.45" fill="url(#gradient2)" fill-rule="evenodd" stroke="none"/>
    <path d="M118.4 11.25 L118.4 23.95 Q109.7 11.3 93.8 9.35 88.85 8.75 83.75 9.3 L79.65 9.95 82.95 8.2 Q87.15 6.25 91.7 5.35 106.2 2.55 118.4 11.25" fill="url(#gradient3)" fill-rule="evenodd" stroke="none"/>
    <path d="M30.1 12.6 Q37.6 13.95 42.1 16.8 26.2 12.6 12.55 19.8 5.3 23.65 0.55 29.45 L0.55 17.1 Q15.2 9.8 30.1 12.6" fill="url(#gradient4)" fill-rule="evenodd" stroke="none"/>
  </g>
  <defs>
    <linearGradient gradientTransform="matrix(0.0, -0.0512, -0.0512, 0.0, 59.45, 39.35)" gradientUnits="userSpaceOnUse" id="gradient0" spreadMethod="pad" x1="-819.2" x2="819.2">
      <stop offset="0.0" stop-color="#ff4b16"/>
      <stop offset="1.0" stop-color="#ce1801"/>
    </linearGradient>
    <linearGradient gradientTransform="matrix(0.0, 0.0494, 0.0494, 0.0, 59.45, 42.05)" gradientUnits="userSpaceOnUse" id="gradient1" spreadMethod="pad" x1="-819.2" x2="819.2">
      <stop offset="0.0" stop-color="#fe8e29"/>
      <stop offset="1.0" stop-color="#fecb81"/>
    </linearGradient>
    <linearGradient gradientTransform="matrix(0.0, 0.0494, 0.0494, 0.0, 56.3, 42.05)" gradientUnits="userSpaceOnUse" id="gradient2" spreadMethod="pad" x1="-819.2" x2="819.2">
      <stop offset="0.0" stop-color="#fe8e29"/>
      <stop offset="1.0" stop-color="#fecb81"/>
    </linearGradient>
    <linearGradient gradientTransform="matrix(0.0139, 0.0874, 0.0892, -0.0142, 107.6, 64.4)" gradientUnits="userSpaceOnUse" id="gradient3" spreadMethod="pad" x1="-819.2" x2="819.2">
      <stop offset="0.0" stop-color="#fe8e29"/>
      <stop offset="1.0" stop-color="#fecb81"/>
    </linearGradient>
    <linearGradient gradientTransform="matrix(0.0, 0.0402, 0.0402, 0.0, 21.35, 42.05)" gradientUnits="userSpaceOnUse" id="gradient4" spreadMethod="pad" x1="-819.2" x2="819.2">
      <stop offset="0.0" stop-color="#fe8e29"/>
      <stop offset="1.0" stop-color="#fecb81"/>
    </linearGradient>
  </defs>
</svg>
