<?xml version="1.0" encoding="UTF-8" standalone="no"?>
<svg xmlns:ffdec="https://www.free-decompiler.com/flash" xmlns:xlink="http://www.w3.org/1999/xlink" ffdec:objectType="shape" height="85.25px" width="94.35px" xmlns="http://www.w3.org/2000/svg">
  <g transform="matrix(1.0, 0.0, 0.0, 1.0, -0.2, 0.0)">
    <path d="M31.35 80.75 Q32.1 80.95 32.05 81.45 L31.85 82.3 Q32.1 83.1 31.1 83.25 L30.25 83.25 Q29.4 83.3 28.45 82.7 28.15 82.5 28.15 82.15 28.15 81.8 28.4 81.6 L28.8 81.25 Q29.75 80.3 31.35 80.75" fill="#000000" fill-rule="evenodd" stroke="none"/>
    <path d="M20.95 74.6 Q22.4 74.6 22.55 75.9 22.7 77.2 21.25 77.2 19.8 77.2 19.65 75.9 19.5 74.6 20.95 74.6" fill="#000000" fill-rule="evenodd" stroke="none"/>
    <path d="M33.95 77.65 Q34.95 77.65 35.05 78.5 L34.8 79.15 34.1 79.45 Q33.1 79.45 33.0 78.65 32.95 78.25 33.25 77.95 33.55 77.65 33.95 77.65" fill="#000000" fill-rule="evenodd" stroke="none"/>
    <path d="M26.2 81.85 L26.45 82.05 Q26.7 82.3 26.4 82.6 L26.35 82.65 25.8 82.75 25.5 82.5 Q25.15 82.15 25.5 81.85 25.85 81.55 26.2 81.85" fill="#000000" fill-rule="evenodd" stroke="none"/>
    <path d="M67.8 12.3 L68.05 12.5 Q68.2 12.8 67.95 13.1 L67.4 13.2 67.1 13.0 Q66.75 12.65 67.1 12.35 L67.8 12.3" fill="#000000" fill-rule="evenodd" stroke="none"/>
    <path d="M63.5 9.8 L63.3 10.05 Q63.05 10.3 62.75 10.05 L62.7 10.05 Q62.45 9.9 62.55 9.5 L62.75 9.2 Q63.0 8.8 63.4 9.1 63.75 9.4 63.5 9.8" fill="#000000" fill-rule="evenodd" stroke="none"/>
    <path d="M3.45 44.45 L4.05 44.4 4.55 44.2 Q5.4 44.2 5.5 44.85 L5.5 45.0 5.9 45.1 Q6.3 45.25 6.35 45.65 L6.15 46.3 5.4 47.0 4.85 47.5 Q4.3 47.7 3.45 47.15 L2.95 47.0 2.45 46.6 2.25 46.5 Q1.95 46.3 2.0 45.9 2.0 45.5 2.35 45.3 L2.5 45.15 Q2.9 44.6 3.45 44.45" fill="#000000" fill-rule="evenodd" stroke="none"/>
    <path d="M5.45 53.35 Q6.0 53.35 6.1 53.9 6.15 54.4 5.55 54.4 4.95 54.4 4.9 53.9 4.85 53.35 5.45 53.35" fill="#000000" fill-rule="evenodd" stroke="none"/>
    <path d="M6.75 42.2 Q7.25 42.3 7.25 42.7 L6.9 43.25 6.2 43.15 5.9 42.7 Q5.9 42.4 6.25 42.3 L6.75 42.2" fill="#000000" fill-rule="evenodd" stroke="none"/>
    <path d="M8.75 60.4 L9.6 60.5 10.05 61.1 Q10.15 61.5 9.75 61.8 9.4 62.15 8.95 62.05 L8.85 62.0 Q8.1 61.8 8.05 61.3 7.95 60.65 8.65 60.45 L8.75 60.4" fill="#000000" fill-rule="evenodd" stroke="none"/>
    <path d="M20.4 72.4 Q21.25 72.4 21.3 73.2 21.4 73.95 20.55 73.95 19.7 73.95 19.6 73.2 19.55 72.4 20.4 72.4" fill="#000000" fill-rule="evenodd" stroke="none"/>
    <path d="M13.45 70.9 L14.1 70.65 Q14.5 70.65 14.7 70.95 15.1 71.5 14.45 71.95 L13.9 72.2 Q13.35 72.3 13.05 71.9 12.75 71.5 13.1 71.1 L13.4 70.9 13.45 70.9" fill="#000000" fill-rule="evenodd" stroke="none"/>
    <path d="M89.65 61.1 Q90.1 61.05 90.15 61.5 90.15 61.9 89.75 61.85 L89.55 61.85 Q89.1 61.85 89.05 61.5 89.05 61.1 89.45 61.1 L89.65 61.1" fill="#000000" fill-rule="evenodd" stroke="none"/>
    <path d="M9.4 38.4 L9.2 38.4 Q8.8 38.45 8.55 38.2 8.3 37.95 8.35 37.6 8.45 36.95 9.25 37.05 L9.45 37.05 Q10.15 37.1 10.1 37.75 10.1 38.35 9.4 38.4" fill="#000000" fill-rule="evenodd" stroke="none"/>
    <path d="M82.15 15.55 Q82.5 15.4 82.7 15.7 82.9 16.0 82.7 16.25 81.45 17.75 77.5 19.55 L76.9 19.85 79.35 19.5 Q80.45 19.55 79.95 20.3 77.5 24.0 76.1 25.3 77.85 24.55 79.0 24.9 80.15 25.25 80.3 26.2 81.35 26.1 82.05 26.95 82.75 27.85 82.25 28.65 L81.1 30.05 81.6 30.45 82.25 30.35 88.0 30.65 Q88.95 31.05 88.15 31.65 87.45 32.25 83.75 33.6 L83.9 34.75 Q88.2 37.95 88.5 41.7 L89.15 41.8 89.6 42.2 89.35 42.7 89.25 42.75 92.15 43.25 92.4 43.6 92.1 43.95 88.15 44.1 87.75 45.15 Q86.6 47.4 84.3 49.6 88.7 50.25 90.5 51.8 L90.6 52.15 90.2 52.3 87.55 51.85 84.85 51.25 84.2 51.1 84.25 51.15 86.4 52.1 86.6 52.5 86.25 52.75 84.55 52.6 84.55 53.35 85.25 53.75 Q87.15 55.0 86.65 57.85 86.15 60.7 84.4 60.7 84.0 60.7 84.35 61.3 84.65 61.85 84.4 61.7 85.05 62.85 84.15 64.2 L82.4 66.8 Q80.8 70.35 76.95 71.55 78.2 72.5 78.45 73.1 L78.4 73.4 78.15 73.5 Q77.35 73.55 76.45 72.75 L76.55 73.0 Q77.05 74.15 76.9 75.6 76.8 77.2 75.95 76.6 L74.15 75.0 71.9 72.9 Q71.7 72.95 71.95 73.9 L72.0 74.85 Q69.75 75.3 67.65 76.85 L64.2 79.9 Q63.65 80.4 62.3 80.5 L62.3 80.4 39.05 80.4 Q38.65 80.1 38.4 80.2 L38.05 80.4 37.55 80.4 37.1 80.0 36.0 80.2 34.75 80.3 33.5 80.25 Q32.5 80.0 32.4 79.6 L31.95 79.55 31.45 79.5 30.95 80.0 30.5 79.65 Q30.15 79.15 30.05 79.25 29.05 80.35 27.5 80.6 25.9 80.85 26.2 79.5 26.85 76.5 27.9 73.75 24.35 76.3 23.9 75.3 23.8 75.1 24.05 74.2 23.3 73.75 23.45 72.25 23.55 70.95 24.0 70.55 L22.0 70.45 20.3 69.7 17.0 72.75 Q15.05 74.6 14.8 74.25 14.55 73.9 15.55 71.8 L16.7 69.55 14.2 69.7 14.2 69.2 14.35 68.6 Q14.65 68.2 15.35 67.9 L16.5 67.5 17.0 67.25 16.9 67.15 16.0 65.2 Q15.5 65.6 15.05 65.2 L14.35 65.05 13.95 65.05 Q13.65 65.5 13.35 64.85 L12.15 62.8 Q10.65 61.3 10.55 58.85 10.5 58.45 10.9 58.2 11.25 57.95 11.65 58.05 L11.65 57.65 11.55 57.45 Q11.35 57.15 11.5 56.8 L11.1 56.45 Q10.05 55.85 10.0 54.85 9.95 54.0 11.0 53.1 L8.9 52.75 8.7 52.75 Q8.1 52.65 7.95 52.2 L7.5 51.5 7.4 51.45 Q7.05 51.2 7.05 50.8 7.1 50.35 7.45 50.15 L9.3 49.35 Q7.45 47.15 8.3 44.95 9.2 42.45 12.3 40.5 L8.8 40.25 Q6.75 40.1 12.1 38.25 L11.8 38.0 Q11.1 37.35 11.15 36.55 11.2 35.65 12.1 35.3 L10.75 34.65 Q9.1 33.75 8.1 32.65 6.9 31.3 8.0 30.9 L12.1 30.8 10.2 29.6 Q10.05 29.5 10.15 29.3 10.25 29.1 10.45 29.15 L13.7 30.2 13.65 30.15 Q11.7 28.5 11.9 27.6 12.0 27.3 12.3 27.3 13.15 27.3 14.75 28.65 L16.95 30.05 17.4 30.4 Q15.95 24.95 20.3 22.3 L20.7 22.05 Q18.3 21.5 17.25 20.75 17.0 20.55 17.1 20.25 17.15 19.9 17.5 19.85 L20.55 20.05 19.25 19.0 Q19.1 18.8 19.25 18.55 L19.7 18.4 Q22.75 19.05 24.75 20.45 L24.95 20.4 25.2 18.6 Q23.9 18.2 24.3 16.85 24.7 15.45 26.25 15.45 26.95 15.45 27.3 15.75 29.95 13.65 33.3 13.8 L33.4 13.8 33.7 13.55 33.7 12.65 Q33.65 11.55 34.3 10.3 34.95 8.95 35.45 9.7 L36.35 10.85 Q36.5 9.45 37.0 8.3 37.15 8.1 37.45 8.15 L37.8 8.4 38.05 10.8 38.55 10.25 Q39.45 9.55 40.95 9.5 L41.7 9.5 42.45 9.55 42.35 10.3 Q42.05 11.2 42.25 11.3 L42.6 11.55 43.0 12.0 Q44.65 12.5 46.35 13.35 L46.3 12.0 Q46.35 11.25 46.65 10.7 46.75 10.55 46.95 10.55 47.15 10.55 47.2 10.7 47.65 11.9 47.65 13.15 L48.2 12.9 Q51.95 11.2 55.15 11.0 L55.45 11.0 55.7 10.2 56.25 9.1 56.85 9.05 57.15 9.55 Q57.8 8.55 58.85 8.1 L60.55 8.2 Q61.2 8.9 61.2 11.85 L61.5 11.95 61.7 11.75 Q62.5 11.15 63.55 11.55 64.6 11.95 64.7 12.85 L64.75 13.85 Q66.4 15.15 67.55 16.85 71.0 16.75 73.4 18.1 L73.75 17.7 Q74.65 16.8 75.15 16.7 75.45 16.6 75.55 16.95 75.75 17.6 74.9 18.55 L74.55 18.95 74.7 19.1 77.15 18.05 79.6 16.75 82.15 15.55" fill="#000000" fill-rule="evenodd" stroke="none"/>
    <path d="M87.55 48.6 Q87.0 48.6 86.95 48.1 86.9 47.6 87.45 47.6 88.0 47.6 88.05 48.1 88.1 48.6 87.55 48.6" fill="#000000" fill-rule="evenodd" stroke="none"/>
    <path d="M93.95 43.75 Q94.25 43.75 94.4 44.0 L94.5 44.4 Q94.4 44.9 93.9 44.9 L93.7 44.95 93.15 44.75 Q92.9 44.5 92.95 44.2 93.1 43.7 93.75 43.7 L93.95 43.75" fill="#000000" fill-rule="evenodd" stroke="none"/>
    <path d="M93.4 49.7 Q93.4 50.2 92.85 50.2 92.25 50.2 92.25 49.7 92.2 49.2 92.8 49.2 93.35 49.2 93.4 49.7" fill="#000000" fill-rule="evenodd" stroke="none"/>
    <path d="M91.95 52.05 Q92.75 52.15 92.65 52.85 L92.6 52.95 Q92.55 53.55 91.85 53.55 91.1 53.55 91.05 52.95 L91.0 52.85 Q90.95 52.5 91.25 52.25 L91.95 52.05" fill="#000000" fill-rule="evenodd" stroke="none"/>
    <path d="M72.15 75.25 Q73.0 75.45 73.15 76.0 L73.2 76.65 72.6 77.4 71.65 77.6 71.3 77.45 70.65 77.0 Q70.15 76.3 70.75 75.7 71.05 75.45 71.4 75.35 L72.15 75.25" fill="#000000" fill-rule="evenodd" stroke="none"/>
    <path d="M65.6 76.2 Q66.45 76.2 66.55 77.0 66.6 77.75 65.7 77.75 64.85 77.75 64.75 77.0 64.7 76.2 65.6 76.2" fill="#000000" fill-rule="evenodd" stroke="none"/>
    <path d="M7.7 55.8 Q8.45 55.95 8.55 56.6 8.7 57.2 8.2 57.5 L8.2 57.55 7.55 58.2 6.85 58.25 Q6.15 57.95 6.4 56.95 L6.5 56.7 Q6.5 56.25 6.8 55.95 L7.7 55.8" fill="#000000" fill-rule="evenodd" stroke="none"/>
    <path d="M79.4 76.1 L78.7 76.2 78.1 75.85 77.85 75.15 Q77.8 74.8 78.05 74.55 78.3 74.25 78.7 74.2 L79.45 74.4 79.8 75.0 79.8 75.1 Q80.05 75.7 79.4 76.1" fill="#000000" fill-rule="evenodd" stroke="none"/>
    <path d="M81.55 70.6 Q82.6 70.8 82.45 71.5 82.4 72.0 81.5 72.2 81.05 72.25 80.75 71.95 80.45 71.65 80.5 71.25 80.7 70.5 81.55 70.6" fill="#000000" fill-rule="evenodd" stroke="none"/>
    <path d="M68.9 15.85 L68.2 15.8 Q67.85 15.65 67.8 15.3 67.75 14.95 68.05 14.7 68.35 14.45 68.75 14.5 69.25 14.7 69.35 14.85 69.65 15.2 69.3 15.65 L68.9 15.85" fill="#000000" fill-rule="evenodd" stroke="none"/>
    <path d="M1.0 47.15 Q1.85 47.15 1.85 47.9 1.85 48.6 1.0 48.6 0.2 48.6 0.2 47.9 0.2 47.15 1.0 47.15" fill="#000000" fill-rule="evenodd" stroke="none"/>
    <path d="M82.3 23.25 Q83.6 23.65 83.25 24.8 82.95 26.0 81.65 25.6 80.4 25.2 80.75 24.0 81.05 22.85 82.3 23.25" fill="#000000" fill-rule="evenodd" stroke="none"/>
    <path d="M84.95 27.25 Q83.5 27.35 83.25 26.05 83.0 24.8 84.45 24.7 85.9 24.6 86.15 25.85 86.4 27.15 84.95 27.25" fill="#000000" fill-rule="evenodd" stroke="none"/>
    <path d="M91.2 35.95 L91.55 36.25 91.6 36.3 91.75 36.8 Q91.7 37.2 91.35 37.4 90.55 37.75 90.1 37.15 L90.0 37.05 Q89.75 36.75 89.9 36.4 90.05 36.0 90.45 35.9 L91.2 35.95" fill="#000000" fill-rule="evenodd" stroke="none"/>
    <path d="M89.95 31.4 Q89.2 31.4 89.15 30.75 89.1 30.1 89.8 30.1 90.5 30.1 90.6 30.75 90.65 31.4 89.95 31.4" fill="#000000" fill-rule="evenodd" stroke="none"/>
    <path d="M85.9 35.5 L85.85 35.05 86.1 34.5 Q86.4 34.2 86.75 34.2 L87.4 34.25 87.65 34.2 88.6 34.2 Q89.1 34.2 89.4 34.6 89.7 35.0 89.45 35.4 88.8 36.55 87.45 36.45 L86.5 36.1 85.9 35.5" fill="#000000" fill-rule="evenodd" stroke="none"/>
    <path d="M84.45 14.7 Q84.1 14.7 83.9 14.5 L83.75 14.0 Q83.8 13.45 84.4 13.45 84.9 13.45 85.05 13.85 L85.05 13.95 Q85.15 14.7 84.45 14.7" fill="#000000" fill-rule="evenodd" stroke="none"/>
    <path d="M84.75 21.45 L85.0 21.45 85.2 21.5 85.3 21.5 85.4 21.55 85.5 21.55 85.75 21.75 85.8 21.85 85.85 21.85 86.0 22.25 85.75 22.85 85.1 23.15 84.9 23.15 Q84.0 23.15 83.9 22.4 83.85 22.05 84.1 21.8 84.35 21.5 84.75 21.45" fill="#000000" fill-rule="evenodd" stroke="none"/>
    <path d="M87.7 24.3 L87.55 24.2 Q87.35 24.0 87.55 23.85 L87.65 23.75 88.15 23.8 Q88.35 24.0 88.15 24.3 L87.8 24.35 87.7 24.3" fill="#000000" fill-rule="evenodd" stroke="none"/>
    <path d="M76.6 14.3 L76.6 14.35 76.35 15.05 75.5 15.15 75.25 14.95 74.95 14.5 Q74.85 14.05 75.4 13.95 L75.6 13.85 76.2 13.9 76.6 14.3" fill="#000000" fill-rule="evenodd" stroke="none"/>
    <path d="M12.7 26.3 Q12.05 26.3 12.0 25.75 11.95 25.15 12.55 25.15 13.2 25.15 13.25 25.75 13.35 26.3 12.7 26.3" fill="#000000" fill-rule="evenodd" stroke="none"/>
    <path d="M23.05 15.95 Q22.35 15.95 22.3 15.35 22.25 14.7 22.95 14.7 23.65 14.7 23.7 15.35 23.75 15.95 23.05 15.95" fill="#000000" fill-rule="evenodd" stroke="none"/>
    <path d="M23.7 12.8 L23.0 12.7 Q22.65 12.55 22.75 12.15 L23.1 11.7 23.7 11.65 23.8 11.7 24.2 12.2 23.9 12.7 23.7 12.8" fill="#000000" fill-rule="evenodd" stroke="none"/>
    <path d="M15.4 19.35 L15.4 19.3 Q15.15 18.95 15.45 18.65 15.75 18.3 16.25 18.5 16.7 18.7 16.6 19.1 16.55 19.45 16.1 19.55 15.65 19.65 15.4 19.35" fill="#000000" fill-rule="evenodd" stroke="none"/>
    <path d="M10.35 25.15 L10.45 25.2 Q11.25 25.65 10.9 26.3 L10.35 26.75 9.65 26.7 9.5 26.65 Q8.75 26.35 8.9 25.75 8.95 25.4 9.25 25.2 L9.95 25.05 10.35 25.15" fill="#000000" fill-rule="evenodd" stroke="none"/>
    <path d="M6.95 29.65 Q6.45 29.65 6.4 29.2 6.35 28.7 6.85 28.7 7.4 28.7 7.45 29.2 7.5 29.65 6.95 29.65" fill="#000000" fill-rule="evenodd" stroke="none"/>
    <path d="M32.7 10.0 Q32.15 9.65 32.65 9.25 L33.6 9.3 33.7 9.4 Q34.0 9.75 33.6 10.05 L32.8 10.1 32.7 10.0" fill="#000000" fill-rule="evenodd" stroke="none"/>
    <path d="M42.95 10.6 Q42.6 10.4 42.6 10.1 42.6 9.75 42.95 9.55 L43.0 9.55 43.7 9.5 Q44.1 9.7 44.1 10.05 44.15 10.4 43.8 10.65 43.4 10.85 43.05 10.65 L42.95 10.6" fill="#000000" fill-rule="evenodd" stroke="none"/>
    <path d="M45.4 8.7 L45.4 8.45 45.45 8.35 45.45 8.3 45.65 8.05 45.65 8.0 45.75 7.95 Q46.0 7.7 46.35 7.7 L46.8 7.7 47.45 8.1 Q47.75 8.4 47.65 8.75 47.45 9.5 46.7 9.5 L46.25 9.5 45.55 9.1 45.4 8.7" fill="#000000" fill-rule="evenodd" stroke="none"/>
    <path d="M26.0 12.2 Q26.0 11.9 26.25 11.75 26.7 11.4 27.2 11.55 L27.25 11.55 Q28.15 11.45 28.5 11.9 L28.75 12.35 28.75 12.5 29.1 12.95 29.05 13.2 29.0 13.55 28.7 13.85 28.2 13.85 28.1 13.85 28.0 13.9 27.25 14.0 27.05 14.0 Q26.05 14.2 25.9 13.4 25.45 13.05 25.75 12.55 L26.0 12.2" fill="#000000" fill-rule="evenodd" stroke="none"/>
    <path d="M39.05 81.35 Q37.95 79.95 39.5 78.85 41.05 77.75 42.15 79.2 42.45 79.55 42.8 79.3 L43.75 78.6 Q44.95 77.85 46.2 77.8 47.95 77.7 48.85 78.7 50.5 80.8 50.6 79.8 50.8 78.0 52.7 78.3 54.6 78.6 54.4 80.35 54.25 81.9 53.1 82.9 52.0 83.9 50.35 84.0 49.55 84.05 49.0 83.35 L48.1 82.2 47.9 83.95 47.45 85.25 Q47.2 85.25 46.9 84.0 L46.6 82.35 46.0 83.1 Q45.55 83.35 45.35 82.9 44.9 81.95 45.0 81.4 L43.8 82.45 42.9 83.15 Q40.75 83.6 39.05 81.35" fill="#000000" fill-rule="evenodd" stroke="none"/>
    <path d="M85.95 53.9 Q88.05 57.05 88.05 60.55 87.95 62.55 87.2 64.15 86.45 65.95 84.75 67.2 83.2 68.3 81.15 68.65 L77.5 68.45 Q76.1 68.15 74.25 67.35 72.6 66.55 71.3 65.15 L69.25 62.6 67.5 60.5 Q66.0 59.0 63.4 58.1 L60.9 57.35 57.6 56.2 Q55.0 54.85 52.95 52.9 L53.1 53.35 53.8 55.2 54.9 56.7 Q56.35 58.3 58.1 59.4 L60.1 60.5 62.4 61.55 64.9 63.05 Q66.1 63.9 67.15 65.2 L68.75 67.7 69.85 70.45 Q70.8 73.75 69.8 76.7 69.25 78.35 68.2 79.55 67.2 80.75 65.75 81.65 L64.35 82.3 62.9 82.75 60.0 83.15 Q56.8 83.25 54.3 81.9 52.9 81.15 51.85 80.05 L50.95 78.7 50.6 78.0 50.35 77.25 Q49.95 75.75 50.1 74.3 50.35 72.6 51.15 71.4 52.15 70.0 53.6 69.5 L55.05 69.2 56.5 69.3 Q57.85 69.55 59.0 70.65 60.0 71.65 60.5 72.8 L60.4 73.1 60.1 73.05 Q58.5 70.85 56.3 70.75 L55.3 70.85 54.35 71.25 Q53.55 71.65 53.1 72.6 52.25 74.45 52.95 76.45 L53.15 76.9 53.3 77.1 53.4 77.3 54.0 77.95 Q54.65 78.55 55.7 78.85 L59.8 79.3 Q62.0 79.15 63.6 78.1 65.25 77.1 65.7 75.4 66.2 73.8 65.55 71.75 L64.75 69.9 64.15 68.95 63.55 68.2 Q62.4 66.9 60.3 66.0 L58.05 65.05 55.55 63.85 Q52.85 62.35 50.95 60.3 L49.55 58.6 49.05 57.8 47.85 55.05 47.8 54.95 47.8 55.05 46.6 57.8 46.1 58.6 44.7 60.3 Q42.65 62.45 40.1 63.85 L37.6 65.05 35.35 66.0 Q33.2 66.95 32.05 68.2 L30.9 69.9 30.1 71.75 Q29.4 73.7 29.95 75.4 30.4 77.1 32.0 78.1 33.7 79.15 35.85 79.3 38.05 79.55 39.95 78.85 40.9 78.55 41.65 77.95 L42.25 77.3 42.35 77.1 42.5 76.9 42.65 76.45 Q43.4 74.35 42.55 72.6 42.15 71.7 41.3 71.25 L40.35 70.85 39.35 70.75 Q37.2 70.85 35.55 73.05 L35.5 73.05 35.2 73.1 35.1 72.8 Q35.7 71.6 36.65 70.65 37.8 69.55 39.1 69.3 L40.6 69.2 42.05 69.5 Q43.5 70.0 44.5 71.4 45.3 72.6 45.55 74.3 45.7 75.8 45.25 77.25 L44.9 78.35 44.7 78.7 43.75 80.05 Q42.8 81.15 41.35 81.9 38.8 83.25 35.65 83.15 L32.75 82.75 31.3 82.3 29.9 81.65 Q28.45 80.75 27.45 79.55 26.4 78.35 25.85 76.7 24.85 73.85 25.8 70.45 26.1 69.3 26.9 67.7 L27.25 67.1 27.4 66.75 27.6 66.5 28.5 65.2 Q29.4 64.0 30.75 63.05 L33.25 61.55 37.55 59.4 40.7 56.7 41.85 55.2 42.55 53.35 42.65 52.9 Q40.65 54.85 38.0 56.2 L34.7 57.35 32.25 58.1 Q29.65 59.0 28.15 60.5 L26.4 62.6 24.35 65.15 Q23.05 66.55 21.4 67.35 L18.15 68.45 14.5 68.65 Q12.35 68.3 10.9 67.2 9.25 66.0 8.4 64.15 7.7 62.5 7.6 60.55 7.6 57.05 9.7 53.9 10.8 52.4 12.3 51.4 14.05 50.3 15.95 50.35 16.85 50.35 17.8 50.7 L18.25 50.85 19.45 51.5 20.8 52.75 21.75 54.4 Q22.4 56.35 21.4 58.0 20.85 58.9 20.05 59.25 L18.35 59.45 Q18.15 59.45 18.15 59.15 L18.35 59.0 Q19.65 58.7 20.0 57.35 20.25 56.15 19.65 55.25 19.1 54.3 18.05 53.85 L17.55 53.6 17.25 53.5 17.0 53.45 15.95 53.4 Q15.0 53.5 14.05 54.1 L12.55 55.8 Q11.15 58.0 11.4 60.4 11.45 61.5 11.95 62.45 12.4 63.35 13.2 63.9 14.1 64.45 15.05 64.6 L17.3 64.5 19.65 63.7 Q20.75 63.1 21.45 62.4 L22.95 60.25 24.75 57.6 Q26.9 54.8 30.2 53.25 31.7 52.5 33.3 52.1 L33.65 52.0 35.55 51.25 Q37.9 50.05 39.95 47.6 36.4 50.2 32.6 51.0 L29.95 51.35 28.6 51.35 28.25 51.35 28.0 51.3 27.3 51.25 Q24.4 50.8 22.25 49.7 19.65 48.45 18.1 46.05 16.55 43.7 16.25 40.85 16.0 38.0 16.85 35.55 17.7 32.95 19.75 31.05 21.9 29.05 24.65 28.6 27.5 28.15 30.05 29.6 31.45 30.35 32.25 31.2 33.4 32.35 33.8 33.65 34.35 35.1 34.05 36.6 33.75 38.1 32.8 39.25 31.9 40.35 30.6 40.9 L29.35 41.35 27.9 41.45 26.5 41.05 Q25.85 40.7 25.45 40.15 L24.8 39.05 24.45 37.9 24.65 37.65 Q24.75 37.55 24.85 37.75 25.5 38.75 26.3 39.25 27.0 39.7 27.9 39.6 28.3 39.55 28.65 39.3 L29.45 38.85 30.6 37.6 31.15 36.15 30.95 34.65 30.1 33.35 Q29.5 32.75 28.65 32.35 26.9 31.55 25.25 32.0 23.7 32.3 22.35 33.7 21.15 34.95 20.6 36.8 20.1 38.65 20.4 40.35 20.6 42.15 21.65 43.55 22.6 44.85 24.25 45.65 25.7 46.3 27.85 46.55 L28.3 46.55 28.55 46.6 28.8 46.6 29.7 46.55 31.5 46.25 Q32.8 45.95 34.0 45.15 L35.7 43.65 Q36.5 42.65 37.2 39.7 L38.75 41.15 Q40.5 42.6 41.7 42.6 43.8 42.6 45.4 40.85 46.95 39.15 46.95 37.2 L37.75 34.9 36.5 34.7 Q36.0 34.65 35.75 34.2 35.45 33.75 35.55 33.2 36.4 29.5 37.75 25.55 L40.95 16.5 36.1 26.45 30.6 25.25 Q30.05 25.15 29.9 24.7 29.7 24.3 30.05 23.85 33.1 19.4 47.05 0.45 47.35 0.0 47.8 0.0 48.25 0.0 48.6 0.45 L65.6 23.85 65.75 24.7 Q65.6 25.15 65.05 25.25 L59.55 26.45 54.65 16.5 57.9 25.55 Q59.25 29.5 60.1 33.2 60.2 33.75 59.9 34.2 59.65 34.65 59.1 34.7 L57.9 34.9 48.65 37.2 Q48.65 39.15 50.2 40.85 51.8 42.6 53.95 42.6 55.85 42.6 58.45 39.7 L58.75 41.3 Q59.1 43.0 59.65 43.65 L61.55 45.2 Q62.8 45.9 64.15 46.25 L65.95 46.55 66.85 46.6 67.05 46.6 67.35 46.55 67.8 46.55 Q69.95 46.3 71.4 45.65 73.05 44.85 74.0 43.55 75.05 42.15 75.25 40.35 75.55 38.55 75.0 36.8 74.55 35.0 73.3 33.7 72.0 32.3 70.35 32.0 68.75 31.55 67.0 32.35 L65.55 33.35 Q64.95 34.0 64.7 34.65 64.45 35.35 64.5 36.15 64.55 36.8 65.05 37.6 L66.2 38.85 66.95 39.3 67.75 39.6 Q68.65 39.7 69.35 39.25 L70.8 37.75 Q70.9 37.55 71.1 37.65 L71.2 37.9 70.85 39.05 70.2 40.15 69.15 41.05 Q68.65 41.35 67.75 41.45 L66.3 41.35 65.0 40.9 Q63.7 40.35 62.85 39.25 61.95 38.2 61.6 36.6 61.3 35.15 61.8 33.65 62.3 32.3 63.4 31.2 64.2 30.35 65.6 29.6 68.1 28.15 70.95 28.6 73.75 29.05 75.9 31.05 77.95 32.95 78.8 35.55 79.65 38.0 79.4 40.85 79.1 43.7 77.55 46.05 75.95 48.45 73.4 49.7 71.25 50.8 68.3 51.25 L67.65 51.3 67.4 51.35 67.05 51.35 65.7 51.35 63.05 51.0 Q59.3 50.2 55.7 47.6 57.75 50.05 60.1 51.25 L62.3 52.1 Q63.9 52.5 65.45 53.25 68.8 54.8 70.9 57.6 L72.7 60.25 74.2 62.4 Q75.0 63.2 76.0 63.7 L78.35 64.5 80.55 64.6 Q81.6 64.45 82.4 63.9 83.25 63.35 83.7 62.45 84.2 61.5 84.25 60.4 84.5 58.0 83.1 55.8 82.5 54.8 81.55 54.1 80.6 53.45 79.7 53.4 L78.65 53.45 78.4 53.5 78.1 53.6 77.55 53.85 Q76.5 54.35 75.95 55.25 75.35 56.3 75.65 57.35 76.0 58.75 77.3 59.0 77.55 59.0 77.45 59.3 L77.3 59.45 75.6 59.25 Q74.8 58.9 74.25 58.0 73.25 56.35 73.9 54.4 74.2 53.5 74.8 52.75 L76.2 51.5 Q76.8 51.2 77.4 50.85 L77.8 50.7 79.7 50.35 Q81.65 50.3 83.35 51.4 84.85 52.4 85.95 53.9" fill="#93da3e" fill-rule="evenodd" stroke="none"/>
    <path d="M88.7 57.8 Q89.2 57.8 89.25 58.35 89.3 58.85 88.8 58.85 88.3 58.85 88.25 58.35 88.2 57.8 88.7 57.8" fill="#000000" fill-rule="evenodd" stroke="none"/>
    <path d="M9.1 66.75 Q9.65 66.75 9.7 67.3 9.75 67.8 9.2 67.8 8.7 67.8 8.65 67.3 8.6 66.75 9.1 66.75" fill="#000000" fill-rule="evenodd" stroke="none"/>
    <path d="M70.9 78.25 Q71.4 78.25 71.45 78.8 71.5 79.3 71.0 79.3 70.5 79.3 70.45 78.8 70.4 78.25 70.9 78.25" fill="#000000" fill-rule="evenodd" stroke="none"/>
    <path d="M88.85 57.1 L89.0 57.2 Q89.6 57.2 89.9 57.55 L90.15 57.95 90.5 58.2 Q90.9 58.8 90.4 59.1 L90.35 59.15 90.4 59.45 90.2 60.0 89.7 60.15 88.95 59.9 88.35 59.7 Q87.95 59.35 88.05 58.6 L87.95 58.2 88.05 57.7 88.05 57.5 Q88.05 57.2 88.35 57.1 88.6 56.95 88.85 57.1" fill="#000000" fill-rule="evenodd" stroke="none"/>
  </g>
</svg>
