<?xml version="1.0" encoding="UTF-8" standalone="no"?>
<svg xmlns:ffdec="https://www.free-decompiler.com/flash" xmlns:xlink="http://www.w3.org/1999/xlink" ffdec:objectType="shape" height="13.8px" width="65.55px" xmlns="http://www.w3.org/2000/svg">
  <g transform="matrix(1.0, 0.0, 0.0, 1.0, 32.8, 8.75)">
    <path d="M31.1 -7.0 Q32.4 -5.6 32.75 -4.25 23.45 -2.5 13.8 -1.5 L-3.2 -0.45 Q-15.3 -0.4 -32.35 -3.25 L-32.8 -3.3 Q-32.6 -5.45 -31.1 -7.0 -29.3 -8.75 -26.75 -8.75 L26.8 -8.75 Q29.35 -8.75 31.1 -7.0" fill="#ffffff" fill-opacity="0.14901961" fill-rule="evenodd" stroke="none"/>
    <path d="M14.5 -5.25 L14.3 -3.5 13.35 -3.55 Q10.3 -3.55 8.65 -2.1 L8.25 -1.5 8.3 -1.4 Q8.5 -1.0 9.85 -0.95 L12.45 -0.9 Q14.0 -0.75 14.7 -0.05 15.3 0.5 15.3 1.25 15.3 2.95 12.6 4.25 11.2 4.9 9.45 5.05 L9.3 3.3 11.45 2.8 Q12.75 2.35 13.3 1.65 L13.45 1.35 Q13.45 0.95 12.1 0.8 L10.45 0.8 Q6.4 0.8 6.4 -1.4 6.4 -2.65 7.8 -3.65 L10.35 -4.9 13.25 -5.3 14.5 -5.25 M18.25 -3.1 L18.4 -0.7 22.2 -1.0 22.35 0.75 18.45 1.1 18.55 2.85 19.1 2.9 22.55 2.35 22.85 4.1 21.1 4.5 19.3 4.75 16.95 4.7 16.4 -4.75 22.05 -5.0 22.15 -3.25 18.25 -3.1 M4.25 -4.75 Q5.6 -3.35 5.6 -1.3 5.6 1.05 3.8 2.75 2.0 4.4 -0.4 4.4 -2.45 4.4 -3.75 2.95 -5.0 1.55 -5.0 -0.45 -5.0 -2.75 -3.2 -4.45 -1.35 -6.2 0.9 -6.2 2.9 -6.2 4.25 -4.75 M-10.3 -4.7 L-9.85 2.85 Q-7.75 2.75 -5.55 1.95 L-4.95 3.55 -8.2 4.45 -11.55 4.6 -12.05 -4.6 -10.3 -4.7 M3.85 -1.3 Q3.85 -2.6 3.0 -3.5 2.2 -4.4 0.9 -4.4 -0.65 -4.4 -1.95 -3.2 -3.25 -2.0 -3.25 -0.45 -3.25 0.9 -2.5 1.75 -1.7 2.6 -0.35 2.6 1.25 2.6 2.55 1.45 3.85 0.3 3.85 -1.3 M-17.05 -5.25 Q-15.05 -5.25 -13.55 -3.75 L-14.8 -2.5 Q-15.8 -3.5 -17.1 -3.5 -18.3 -3.5 -19.25 -2.65 -20.2 -1.75 -20.2 -0.6 L-20.1 0.0 Q-19.55 2.75 -16.75 2.75 -15.3 2.75 -13.2 2.05 L-12.65 3.7 Q-14.95 4.5 -16.8 4.5 -19.6 4.5 -20.9 2.6 -21.9 1.1 -21.9 -0.55 -21.9 -2.5 -20.45 -3.9 -19.0 -5.25 -17.05 -5.25" fill="#ffffff" fill-opacity="0.7490196" fill-rule="evenodd" stroke="none"/>
  </g>
</svg>
