<?xml version="1.0" encoding="UTF-8" standalone="no"?>
<svg xmlns:ffdec="https://www.free-decompiler.com/flash" xmlns:xlink="http://www.w3.org/1999/xlink" ffdec:objectType="shape" height="25.1px" width="70.35px" xmlns="http://www.w3.org/2000/svg">
  <g transform="matrix(1.0, 0.0, 0.0, 1.0, 35.2, 11.45)">
    <path d="M23.7 -9.2 Q28.45 -9.2 31.75 -5.9 35.1 -2.55 35.15 2.25 35.1 6.95 31.75 10.3 28.45 13.65 23.7 13.65 L-23.8 13.65 Q-28.55 13.65 -31.9 10.3 -35.25 6.95 -35.2 2.25 -35.25 -2.55 -31.9 -5.9 -28.55 -9.2 -23.8 -9.2 L23.7 -9.2" fill="#000000" fill-opacity="0.101960786" fill-rule="evenodd" stroke="none"/>
    <path d="M-1.5 11.4 L-23.8 11.4 Q-28.55 11.4 -31.9 8.05 -35.25 4.7 -35.2 0.0 -35.25 -4.8 -31.9 -8.15 -28.55 -11.45 -23.8 -11.45 L-1.5 -11.45 -1.5 11.4" fill="url(#gradient0)" fill-rule="evenodd" stroke="none"/>
    <path d="M-1.5 -11.45 L23.7 -11.45 Q28.45 -11.45 31.75 -8.15 35.1 -4.8 35.15 0.0 35.1 4.7 31.75 8.05 28.45 11.4 23.7 11.4 L-1.5 11.4 -1.5 -11.45" fill="url(#gradient1)" fill-rule="evenodd" stroke="none"/>
    <path d="M31.75 -8.15 L33.4 -6.15 29.05 -4.35 Q16.85 -0.05 -0.4 0.0 -17.65 -0.05 -29.8 -4.35 L-33.65 -5.9 -31.9 -8.15 Q-28.7 -11.3 -24.15 -11.45 L24.1 -11.45 Q28.6 -11.3 31.75 -8.15" fill="url(#gradient2)" fill-rule="evenodd" stroke="none"/>
  </g>
  <defs>
    <linearGradient gradientTransform="matrix(0.0, -0.014, 0.0139, 0.0, 31.15, 0.0)" gradientUnits="userSpaceOnUse" id="gradient0" spreadMethod="pad" x1="-819.2" x2="819.2">
      <stop offset="0.0" stop-color="#0083f2"/>
      <stop offset="1.0" stop-color="#027aca"/>
    </linearGradient>
    <linearGradient gradientTransform="matrix(0.0, -0.014, 0.0139, 0.0, -31.35, 0.0)" gradientUnits="userSpaceOnUse" id="gradient1" spreadMethod="pad" x1="-819.2" x2="819.2">
      <stop offset="0.0" stop-color="#0083f2"/>
      <stop offset="1.0" stop-color="#027aca"/>
    </linearGradient>
    <radialGradient cx="0" cy="0" gradientTransform="matrix(0.0428, 0.0, 0.0, 0.0786, -0.05, -5.75)" gradientUnits="userSpaceOnUse" id="gradient2" r="819.2" spreadMethod="pad">
      <stop offset="0.0" stop-color="#ffffff" stop-opacity="0.3019608"/>
      <stop offset="1.0" stop-color="#ffffff" stop-opacity="0.15294118"/>
    </radialGradient>
  </defs>
</svg>
