<?xml version="1.0" encoding="UTF-8" standalone="no"?>
<svg xmlns:ffdec="https://www.free-decompiler.com/flash" xmlns:xlink="http://www.w3.org/1999/xlink" ffdec:objectType="shape" height="51.0px" width="50.6px" xmlns="http://www.w3.org/2000/svg">
  <g transform="matrix(1.0, 0.0, 0.0, 1.0, 24.0, 24.0)">
    <path d="M-19.4 -4.3 L-19.4 -19.0 0.15 -19.0 23.75 -19.0 26.6 -19.0 26.6 -4.3 26.6 19.3 26.6 27.0 23.75 27.0 0.15 27.0 -19.4 27.0 -19.4 19.3 -19.4 -4.3" fill="#000000" fill-opacity="0.2509804" fill-rule="evenodd" stroke="none"/>
    <path d="M-23.0 -11.8 L-23.0 -23.0 -11.8 -23.0 11.8 -23.0 23.0 -23.0 23.0 -11.8 23.0 11.8 23.0 23.0 11.8 23.0 -11.8 23.0 -23.0 23.0 -23.0 11.8 -23.0 -11.8" fill="#ffffff" fill-rule="evenodd" stroke="none"/>
    <path d="M-23.0 -11.8 L-23.0 -23.0 -11.8 -23.0 11.8 -23.0 23.0 -23.0 23.0 -11.8 23.0 11.8 23.0 23.0 11.8 23.0 -11.8 23.0 -23.0 23.0 -23.0 11.8 -23.0 -11.8 Z" fill="none" stroke="#000000" stroke-linecap="round" stroke-linejoin="round" stroke-opacity="0.2509804" stroke-width="2.0"/>
  </g>
</svg>
