<?xml version="1.0" encoding="UTF-8" standalone="no"?>
<svg xmlns:ffdec="https://www.free-decompiler.com/flash" xmlns:xlink="http://www.w3.org/1999/xlink" ffdec:objectType="shape" height="44.5px" width="326.8px" xmlns="http://www.w3.org/2000/svg">
  <g transform="matrix(1.0, 0.0, 0.0, 1.0, 284.55, 14.2)">
    <path d="M-284.55 28.3 L-284.55 -14.2 -164.15 -14.2 -66.25 -14.2 39.05 -14.2 Q30.75 -13.95 24.25 -9.8 L22.15 -8.3 20.95 -7.3 Q16.45 -3.4 9.0 7.5 2.0 17.8 -3.0 21.9 -10.9 28.3 -21.75 28.3 L-66.25 28.3 -164.15 28.3 -257.8 28.3 -260.05 28.3 -284.55 28.3" fill="#0f83d0" fill-rule="evenodd" stroke="none"/>
    <path d="M39.05 -14.2 L42.25 -14.2 42.25 -12.2 39.75 -12.2 Q33.6 -12.2 28.4 -9.8 25.15 -8.3 22.25 -5.8 17.9 -2.05 10.65 8.6 L10.65 8.65 Q3.3 19.45 -1.75 23.45 -10.2 30.3 -21.75 30.3 L-66.25 30.3 -164.15 30.3 -264.0 30.3 -284.55 30.3 -284.55 28.3 -260.05 28.3 -257.8 28.3 -164.15 28.3 -66.25 28.3 -21.75 28.3 Q-10.9 28.3 -3.0 21.9 2.0 17.8 9.0 7.5 16.45 -3.4 20.95 -7.3 L22.15 -8.3 24.25 -9.8 Q30.75 -13.95 39.05 -14.2" fill="#48a2d6" fill-rule="evenodd" stroke="none"/>
  </g>
</svg>
