<?xml version="1.0" encoding="UTF-8" standalone="no"?>
<svg xmlns:ffdec="https://www.free-decompiler.com/flash" xmlns:xlink="http://www.w3.org/1999/xlink" ffdec:objectType="shape" height="15.55px" width="78.5px" xmlns="http://www.w3.org/2000/svg">
  <g transform="matrix(1.0, 0.0, 0.0, 1.0, -88.55, -1.55)">
    <path d="M166.55 7.9 Q166.65 8.3 166.1 8.75 L164.5 10.05 Q163.85 10.55 163.6 11.4 163.35 12.25 163.55 13.05 L164.05 15.05 Q164.25 15.8 163.9 16.05 L162.95 15.85 161.2 14.7 Q160.6 14.3 159.65 14.3 158.75 14.3 158.1 14.7 L156.3 15.85 155.35 16.05 Q155.05 15.8 155.25 15.05 L155.75 13.05 Q156.0 12.25 155.7 11.4 155.4 10.55 154.8 10.05 L153.2 8.75 Q152.6 8.25 152.7 7.9 152.85 7.5 153.6 7.5 L155.7 7.35 Q156.45 7.3 157.15 6.75 157.95 6.2 158.2 5.5 L159.0 3.55 Q159.25 2.85 159.65 2.85 L160.3 3.55 161.05 5.5 Q161.35 6.2 162.1 6.75 162.85 7.3 163.6 7.35 L165.7 7.5 Q166.45 7.5 166.55 7.9 M145.3 5.5 Q145.6 6.2 146.35 6.75 147.05 7.3 147.8 7.35 L149.9 7.5 Q150.7 7.5 150.8 7.9 150.95 8.3 150.35 8.75 L148.7 10.05 Q148.15 10.55 147.85 11.4 147.6 12.3 147.75 13.05 L148.3 15.05 Q148.5 15.8 148.15 16.05 L147.2 15.85 145.45 14.7 Q144.8 14.3 143.85 14.3 L142.3 14.7 140.55 15.85 139.6 16.05 Q139.25 15.8 139.45 15.05 L140.05 13.05 Q140.2 12.25 139.95 11.4 L139.05 10.05 137.4 8.75 Q136.85 8.3 137.0 7.9 137.1 7.5 137.85 7.5 L139.95 7.35 Q140.7 7.3 141.4 6.75 L142.45 5.5 143.2 3.55 Q143.5 2.85 143.85 2.85 144.3 2.85 144.55 3.55 L145.3 5.5 M134.2 7.5 Q134.95 7.5 135.05 7.9 135.2 8.3 134.55 8.75 L132.95 10.05 Q132.4 10.55 132.1 11.4 131.8 12.25 132.0 13.05 L132.5 15.05 Q132.7 15.8 132.45 16.05 L131.45 15.85 129.65 14.7 Q129.05 14.3 128.15 14.3 127.25 14.3 126.6 14.7 L124.85 15.85 123.9 16.05 Q123.55 15.8 123.75 15.05 L124.25 13.05 Q124.45 12.25 124.15 11.4 123.9 10.55 123.3 10.05 L121.7 8.75 Q121.05 8.3 121.2 7.9 121.3 7.5 122.05 7.5 L124.15 7.35 Q124.9 7.3 125.7 6.75 126.4 6.2 126.7 5.5 L127.45 3.55 Q127.7 2.85 128.15 2.85 128.55 2.85 128.8 3.55 L129.6 5.5 Q129.8 6.2 130.55 6.75 131.35 7.3 132.1 7.35 L134.2 7.5 M113.05 3.55 L113.8 5.5 Q114.1 6.2 114.85 6.75 115.55 7.3 116.3 7.35 L118.4 7.5 Q119.15 7.5 119.25 7.9 119.4 8.3 118.85 8.75 L117.25 10.05 Q116.6 10.5 116.3 11.4 116.05 12.25 116.25 13.05 L116.75 15.05 Q116.95 15.8 116.65 16.05 L115.65 15.85 113.9 14.7 Q113.3 14.3 112.4 14.3 111.5 14.3 110.8 14.7 L109.05 15.85 108.1 16.05 Q107.75 15.8 107.95 15.05 L108.5 13.05 Q108.7 12.25 108.4 11.4 108.1 10.55 107.55 10.05 L105.9 8.75 Q105.3 8.3 105.45 7.9 105.6 7.5 106.35 7.5 L108.4 7.35 Q109.15 7.3 109.9 6.75 110.65 6.2 110.9 5.5 L111.65 3.55 Q111.95 2.85 112.4 2.85 112.75 2.85 113.05 3.55 M103.05 8.75 L101.45 10.05 Q100.85 10.55 100.55 11.4 100.3 12.25 100.5 13.05 L101.05 15.05 Q101.2 15.8 100.9 16.05 L99.95 15.85 98.2 14.7 Q97.55 14.3 96.6 14.3 95.7 14.3 95.05 14.7 L93.3 15.85 92.35 16.05 Q92.0 15.8 92.2 15.05 L92.7 13.05 Q92.95 12.25 92.65 11.4 92.4 10.55 91.75 10.05 L90.15 8.75 Q89.6 8.25 89.7 7.9 89.8 7.5 90.6 7.5 L92.65 7.35 Q93.45 7.3 94.15 6.75 L95.2 5.5 95.95 3.55 Q96.25 2.85 96.6 2.85 97.0 2.85 97.3 3.55 L98.05 5.5 Q98.3 6.2 99.1 6.75 99.8 7.3 100.55 7.35 L102.65 7.5 Q103.4 7.5 103.5 7.9 103.65 8.3 103.05 8.75" fill="#0a5d94" fill-rule="evenodd" stroke="none"/>
    <path d="M166.55 7.9 Q166.65 8.3 166.1 8.75 L164.5 10.05 Q163.85 10.55 163.6 11.4 163.35 12.25 163.55 13.05 L164.05 15.05 Q164.25 15.8 163.9 16.05 L162.95 15.85 161.2 14.7 Q160.6 14.3 159.65 14.3 158.75 14.3 158.1 14.7 L156.3 15.85 155.35 16.05 Q155.05 15.8 155.25 15.05 L155.75 13.05 Q156.0 12.25 155.7 11.4 155.4 10.55 154.8 10.05 L153.2 8.75 Q152.6 8.25 152.7 7.9 152.85 7.5 153.6 7.5 L155.7 7.35 Q156.45 7.3 157.15 6.75 157.95 6.2 158.2 5.5 L159.0 3.55 Q159.25 2.85 159.65 2.85 L160.3 3.55 161.05 5.5 Q161.35 6.2 162.1 6.75 162.85 7.3 163.6 7.35 L165.7 7.5 Q166.45 7.5 166.55 7.9 M145.3 5.5 Q145.6 6.2 146.35 6.75 147.05 7.3 147.8 7.35 L149.9 7.5 Q150.7 7.5 150.8 7.9 150.95 8.3 150.35 8.75 L148.7 10.05 Q148.15 10.55 147.85 11.4 147.6 12.3 147.75 13.05 L148.3 15.05 Q148.5 15.8 148.15 16.05 L147.2 15.85 145.45 14.7 Q144.8 14.3 143.85 14.3 L142.3 14.7 140.55 15.85 139.6 16.05 Q139.25 15.8 139.45 15.05 L140.05 13.05 Q140.2 12.25 139.95 11.4 L139.05 10.05 137.4 8.75 Q136.85 8.3 137.0 7.9 137.1 7.5 137.85 7.5 L139.95 7.35 Q140.7 7.3 141.4 6.75 L142.45 5.5 143.2 3.55 Q143.5 2.85 143.85 2.85 144.3 2.85 144.55 3.55 L145.3 5.5 M134.2 7.5 Q134.95 7.5 135.05 7.9 135.2 8.3 134.55 8.75 L132.95 10.05 Q132.4 10.55 132.1 11.4 131.8 12.25 132.0 13.05 L132.5 15.05 Q132.7 15.8 132.45 16.05 L131.45 15.85 129.65 14.7 Q129.05 14.3 128.15 14.3 127.25 14.3 126.6 14.7 L124.85 15.85 123.9 16.05 Q123.55 15.8 123.75 15.05 L124.25 13.05 Q124.45 12.25 124.15 11.4 123.9 10.55 123.3 10.05 L121.7 8.75 Q121.05 8.3 121.2 7.9 121.3 7.5 122.05 7.5 L124.15 7.35 Q124.9 7.3 125.7 6.75 126.4 6.2 126.7 5.5 L127.45 3.55 Q127.7 2.85 128.15 2.85 128.55 2.85 128.8 3.55 L129.6 5.5 Q129.8 6.2 130.55 6.75 131.35 7.3 132.1 7.35 L134.2 7.5 M113.05 3.55 L113.8 5.5 Q114.1 6.2 114.85 6.75 115.55 7.3 116.3 7.35 L118.4 7.5 Q119.15 7.5 119.25 7.9 119.4 8.3 118.85 8.75 L117.25 10.05 Q116.6 10.5 116.3 11.4 116.05 12.25 116.25 13.05 L116.75 15.05 Q116.95 15.8 116.65 16.05 L115.65 15.85 113.9 14.7 Q113.3 14.3 112.4 14.3 111.5 14.3 110.8 14.7 L109.05 15.85 108.1 16.05 Q107.75 15.8 107.95 15.05 L108.5 13.05 Q108.7 12.25 108.4 11.4 108.1 10.55 107.55 10.05 L105.9 8.75 Q105.3 8.3 105.45 7.9 105.6 7.5 106.35 7.5 L108.4 7.35 Q109.15 7.3 109.9 6.75 110.65 6.2 110.9 5.5 L111.65 3.55 Q111.95 2.85 112.4 2.85 112.75 2.85 113.05 3.55 M103.05 8.75 L101.45 10.05 Q100.85 10.55 100.55 11.4 100.3 12.25 100.5 13.05 L101.05 15.05 Q101.2 15.8 100.9 16.05 L99.95 15.85 98.2 14.7 Q97.55 14.3 96.6 14.3 95.7 14.3 95.05 14.7 L93.3 15.85 92.35 16.05 Q92.0 15.8 92.2 15.05 L92.7 13.05 Q92.95 12.25 92.65 11.4 92.4 10.55 91.75 10.05 L90.15 8.75 Q89.6 8.25 89.7 7.9 89.8 7.5 90.6 7.5 L92.65 7.35 Q93.45 7.3 94.15 6.75 L95.2 5.5 95.95 3.55 Q96.25 2.85 96.6 2.85 97.0 2.85 97.3 3.55 L98.05 5.5 Q98.3 6.2 99.1 6.75 99.8 7.3 100.55 7.35 L102.65 7.5 Q103.4 7.5 103.5 7.9 103.65 8.3 103.05 8.75 Z" fill="none" stroke="#074576" stroke-linecap="butt" stroke-linejoin="miter-clip" stroke-miterlimit="4.0" stroke-width="1.0"/>
  </g>
</svg>
