<?xml version="1.0" encoding="UTF-8" standalone="no"?>
<svg xmlns:ffdec="https://www.free-decompiler.com/flash" xmlns:xlink="http://www.w3.org/1999/xlink" ffdec:objectType="shape" height="12.25px" width="75.9px" xmlns="http://www.w3.org/2000/svg">
  <g transform="matrix(1.0, 0.0, 0.0, 1.0, -90.2, -3.35)">
    <path d="M165.8 8.35 L164.2 9.65 Q163.4 10.25 163.15 11.25 162.85 12.25 163.1 13.2 L163.6 15.2 163.65 15.6 163.25 15.45 161.5 14.3 Q160.75 13.8 159.65 13.8 158.6 13.8 157.85 14.3 L156.1 15.4 156.05 15.45 155.65 15.6 155.75 15.2 156.25 13.2 Q156.55 12.25 156.2 11.25 155.85 10.25 155.15 9.7 L155.15 9.65 153.55 8.35 153.55 8.4 153.2 8.05 153.6 8.0 153.65 8.0 155.75 7.85 Q156.6 7.8 157.45 7.15 L158.7 5.7 158.65 5.7 159.45 3.75 159.5 3.75 159.65 3.35 159.85 3.75 160.6 5.7 Q160.95 6.5 161.8 7.15 162.65 7.8 163.55 7.85 L165.7 8.0 166.1 8.05 165.8 8.4 165.8 8.35 M144.1 3.75 L144.85 5.7 Q145.2 6.5 146.05 7.15 146.85 7.8 147.75 7.85 L149.9 8.0 150.35 8.05 150.35 8.1 150.05 8.35 148.4 9.65 148.4 9.7 Q147.75 10.25 147.4 11.25 L147.4 11.3 Q147.1 12.3 147.25 13.15 L147.3 13.2 147.85 15.2 147.9 15.6 147.5 15.45 145.75 14.3 145.7 14.3 Q144.95 13.8 143.85 13.8 142.8 13.8 142.05 14.3 L142.0 14.3 140.35 15.4 139.9 15.6 Q139.85 15.45 139.95 15.2 L140.55 13.2 140.55 13.15 Q140.7 12.25 140.45 11.25 140.05 10.2 139.35 9.65 L139.4 9.65 137.75 8.35 137.75 8.4 137.5 8.1 137.45 8.05 137.5 8.05 137.85 8.0 137.9 8.0 140.0 7.85 Q140.85 7.8 141.7 7.15 142.55 6.5 142.9 5.7 L143.65 3.75 143.85 3.35 144.1 3.75 M134.3 8.35 L134.25 8.35 132.65 9.65 132.65 9.7 Q132.0 10.25 131.65 11.25 131.3 12.25 131.55 13.2 L132.05 15.2 132.1 15.6 131.7 15.4 131.7 15.45 129.9 14.3 129.95 14.3 Q129.2 13.8 128.15 13.8 127.1 13.8 126.35 14.3 L126.3 14.3 124.65 15.4 124.2 15.6 124.25 15.2 124.75 13.2 Q124.95 12.25 124.65 11.25 124.35 10.25 123.65 9.7 L123.65 9.65 122.05 8.35 122.0 8.35 121.7 8.1 121.65 8.05 121.7 8.05 122.05 8.0 122.1 8.0 124.2 7.85 Q125.05 7.8 126.0 7.15 L127.15 5.7 127.9 3.75 127.95 3.75 128.15 3.35 128.35 3.75 129.15 5.7 129.15 5.65 Q129.35 6.5 130.25 7.15 L130.3 7.15 Q131.2 7.8 132.05 7.85 L134.2 8.0 134.6 8.05 134.6 8.1 134.3 8.35 M112.6 3.75 L113.35 5.7 Q113.7 6.5 114.55 7.15 115.35 7.8 116.25 7.85 L118.4 8.0 118.8 8.05 118.8 8.1 118.55 8.4 118.55 8.35 116.95 9.65 117.0 9.65 Q116.2 10.2 115.85 11.25 115.55 12.25 115.8 13.2 L116.3 15.2 116.35 15.6 115.95 15.45 114.2 14.3 Q113.45 13.8 112.4 13.8 111.35 13.8 110.55 14.3 L110.5 14.3 108.85 15.4 Q108.55 15.55 108.4 15.6 L108.45 15.2 109.0 13.2 Q109.2 12.25 108.9 11.25 108.5 10.25 107.9 9.7 L107.9 9.65 106.25 8.35 106.2 8.35 105.95 8.1 106.35 8.0 106.4 8.0 108.45 7.85 Q109.3 7.8 110.2 7.15 111.1 6.5 111.4 5.7 L111.35 5.7 112.1 3.75 112.4 3.35 112.6 3.75 M102.75 8.35 L101.15 9.65 101.15 9.7 Q100.4 10.25 100.1 11.25 99.8 12.25 100.05 13.2 L100.6 15.2 100.55 15.15 100.6 15.6 100.25 15.45 98.5 14.3 98.45 14.3 Q97.7 13.8 96.6 13.8 95.55 13.8 94.8 14.3 L94.75 14.3 93.1 15.4 92.65 15.6 92.7 15.2 93.2 13.2 Q93.5 12.25 93.15 11.25 92.85 10.25 92.05 9.65 L92.1 9.65 90.5 8.35 90.5 8.4 90.2 8.05 90.6 8.0 90.65 8.0 92.7 7.85 Q93.6 7.8 94.45 7.15 L95.65 5.7 96.4 3.75 96.6 3.35 96.85 3.75 97.6 5.7 Q97.85 6.5 98.85 7.15 L98.8 7.15 Q99.6 7.8 100.5 7.85 L102.65 8.0 103.05 8.05 103.05 8.1 102.75 8.35" fill="#0a5d94" fill-rule="evenodd" stroke="none"/>
  </g>
</svg>
