<?xml version="1.0" encoding="UTF-8" standalone="no"?>
<svg xmlns:ffdec="https://www.free-decompiler.com/flash" xmlns:xlink="http://www.w3.org/1999/xlink" ffdec:objectType="shape" height="44.5px" width="326.8px" xmlns="http://www.w3.org/2000/svg">
  <g transform="matrix(1.0, 0.0, 0.0, 1.0, 0.0, 0.0)">
    <path d="M323.6 0.0 Q315.3 0.25 308.8 4.4 L306.7 5.9 305.5 6.9 Q301.0 10.8 293.55 21.7 286.55 32.0 281.55 36.1 273.65 42.5 262.8 42.5 L120.4 42.5 26.75 42.5 24.5 42.5 0.0 42.5 0.0 0.0 120.4 0.0 323.6 0.0" fill="#0f83d0" fill-rule="evenodd" stroke="none"/>
    <path d="M323.6 0.0 L326.8 0.0 326.8 2.0 324.3 2.0 Q318.15 2.0 312.95 4.4 309.7 5.9 306.8 8.4 302.45 12.15 295.2 22.8 L295.2 22.85 Q287.85 33.65 282.8 37.65 274.35 44.5 262.8 44.5 L120.4 44.5 20.55 44.5 0.0 44.5 0.0 42.5 24.5 42.5 26.75 42.5 120.4 42.5 262.8 42.5 Q273.65 42.5 281.55 36.1 286.55 32.0 293.55 21.7 301.0 10.8 305.5 6.9 L306.7 5.9 308.8 4.4 Q315.3 0.25 323.6 0.0" fill="#48a2d6" fill-rule="evenodd" stroke="none"/>
  </g>
</svg>
