<?xml version="1.0" encoding="UTF-8" standalone="no"?>
<svg xmlns:ffdec="https://www.free-decompiler.com/flash" xmlns:xlink="http://www.w3.org/1999/xlink" ffdec:objectType="shape" height="18.55px" width="66.75px" xmlns="http://www.w3.org/2000/svg">
  <g transform="matrix(1.0, 0.0, 0.0, 1.0, 33.4, 9.25)">
    <path d="M31.1 -7.0 Q32.4 -5.6 32.75 -4.25 23.45 -2.5 13.8 -1.5 L-3.2 -0.45 Q-15.3 -0.4 -32.35 -3.25 L-32.8 -3.3 Q-32.6 -5.45 -31.1 -7.0 -29.3 -8.75 -26.75 -8.75 L26.8 -8.75 Q29.35 -8.75 31.1 -7.0" fill="#ffffff" fill-opacity="0.14901961" fill-rule="evenodd" stroke="none"/>
    <path d="M31.05 -7.0 Q29.3 -8.75 26.75 -8.75 L-26.8 -8.75 Q-29.35 -8.75 -31.15 -7.0 -32.9 -5.2 -32.9 -2.65 L-32.9 2.7 Q-32.9 5.25 -31.15 7.0 -29.35 8.8 -26.8 8.8 L26.75 8.8 Q29.35 8.8 31.05 7.0 32.85 5.2 32.85 2.7 L32.85 -2.65 Q32.85 -5.1 31.05 -7.0 Z" fill="none" stroke="#62b8fd" stroke-linecap="round" stroke-linejoin="round" stroke-width="1.0"/>
  </g>
</svg>
