<?xml version="1.0" encoding="UTF-8" standalone="no"?>
<svg xmlns:ffdec="https://www.free-decompiler.com/flash" xmlns:xlink="http://www.w3.org/1999/xlink" ffdec:objectType="shape" height="16.35px" width="16.15px" xmlns="http://www.w3.org/2000/svg">
  <g transform="matrix(1.0, 0.0, 0.0, 1.0, -609.0, -216.7)">
    <path d="M624.65 225.55 Q624.65 228.15 622.45 230.3 620.1 232.55 617.05 232.55 614.05 232.55 611.7 230.3 609.5 228.15 609.5 225.55 L611.7 225.3 617.05 225.0 624.65 225.55" fill="#ffffff" fill-rule="evenodd" stroke="none"/>
    <path d="M624.65 225.55 Q624.65 228.15 622.45 230.3 620.1 232.55 617.05 232.55 614.05 232.55 611.7 230.3 609.5 228.15 609.5 225.55 L611.7 225.3 617.05 225.0 624.65 225.55 Z" fill="none" stroke="#594b00" stroke-linecap="butt" stroke-linejoin="miter-clip" stroke-miterlimit="4.0" stroke-width="1.0"/>
    <path d="M609.5 221.05 L610.0 220.2 611.4 218.45 Q612.5 217.25 614.65 217.2" fill="none" stroke="#756300" stroke-linecap="butt" stroke-linejoin="miter-clip" stroke-miterlimit="4.0" stroke-width="1.0"/>
    <path d="M624.65 221.05 Q623.9 219.65 622.75 218.45 622.05 217.7 620.7 217.4 L619.5 217.2" fill="none" stroke="#756300" stroke-linecap="butt" stroke-linejoin="miter-clip" stroke-miterlimit="4.0" stroke-width="1.0"/>
  </g>
</svg>
