<?xml version="1.0" encoding="UTF-8" standalone="no"?>
<svg xmlns:ffdec="https://www.free-decompiler.com/flash" xmlns:xlink="http://www.w3.org/1999/xlink" ffdec:objectType="shape" height="15.35px" width="17.35px" xmlns="http://www.w3.org/2000/svg">
  <g transform="matrix(1.0, 0.0, 0.0, 1.0, -609.15, -154.5)">
    <path d="M625.4 167.35 Q623.15 169.35 617.7 169.35 612.45 169.35 610.05 167.35 608.85 166.45 611.05 163.85 613.5 161.05 617.7 161.05 621.9 161.05 624.35 163.8 626.6 166.3 625.4 167.35" fill="#806a00" fill-rule="evenodd" stroke="none"/>
    <path d="M625.4 167.35 Q623.15 169.35 617.7 169.35 612.45 169.35 610.05 167.35 608.85 166.45 611.05 163.85 613.5 161.05 617.7 161.05 621.9 161.05 624.35 163.8 626.6 166.3 625.4 167.35 Z" fill="none" stroke="#594b00" stroke-linecap="butt" stroke-linejoin="miter-clip" stroke-miterlimit="4.0" stroke-width="1.0"/>
    <path d="M610.15 158.15 Q610.9 157.15 612.05 156.25 612.75 155.7 614.1 155.3 L615.3 155.0" fill="none" stroke="#756300" stroke-linecap="butt" stroke-linejoin="miter-clip" stroke-miterlimit="4.0" stroke-width="1.0"/>
    <path d="M625.3 158.15 L623.4 156.25 Q622.7 155.7 621.35 155.3 L620.15 155.0" fill="none" stroke="#756300" stroke-linecap="butt" stroke-linejoin="miter-clip" stroke-miterlimit="4.0" stroke-width="1.0"/>
  </g>
</svg>
