<?xml version="1.0" encoding="UTF-8" standalone="no"?>
<svg xmlns:ffdec="https://www.free-decompiler.com/flash" xmlns:xlink="http://www.w3.org/1999/xlink" ffdec:objectType="shape" height="7.9px" width="36.95px" xmlns="http://www.w3.org/2000/svg">
  <g transform="matrix(1.0, 0.0, 0.0, 1.0, -599.6, -157.85)">
    <path d="M633.95 160.3 Q633.1 160.4 631.9 159.9 L630.9 159.4 631.8 158.7 Q632.85 158.0 633.65 157.9 635.45 157.7 635.65 158.9 635.75 160.15 633.95 160.3" fill="#ffffff" fill-rule="evenodd" stroke="none"/>
    <path d="M633.6 164.85 Q632.9 164.3 632.5 162.9 L632.2 161.6 633.5 161.7 Q634.9 161.9 635.6 162.5 637.15 163.85 636.15 165.05 635.15 166.2 633.6 164.85" fill="#ffffff" fill-rule="evenodd" stroke="none"/>
    <path d="M601.65 160.3 Q600.75 160.25 600.3 159.8 599.85 159.45 599.95 158.9 600.05 157.7 601.9 157.9 603.2 158.05 604.65 159.4 602.95 160.45 601.65 160.3" fill="#ffffff" fill-rule="evenodd" stroke="none"/>
    <path d="M602.6 165.0 Q601.05 166.35 600.0 165.2 599.0 164.0 600.55 162.65 601.25 162.05 602.7 161.85 L604.0 161.75 603.7 163.05 Q603.3 164.45 602.6 165.0" fill="#ffffff" fill-rule="evenodd" stroke="none"/>
  </g>
</svg>
