<?xml version="1.0" encoding="UTF-8" standalone="no"?>
<svg xmlns:ffdec="https://www.free-decompiler.com/flash" xmlns:xlink="http://www.w3.org/1999/xlink" ffdec:objectType="shape" height="13.05px" width="18.15px" xmlns="http://www.w3.org/2000/svg">
  <g transform="matrix(1.0, 0.0, 0.0, 1.0, -608.5, -186.45)">
    <path d="M609.4 198.85 Q608.2 198.1 610.4 196.05 612.85 193.85 617.05 193.85 621.3 193.85 623.75 196.05 626.0 198.0 624.75 198.85 624.15 199.25 622.05 198.45 619.25 197.45 617.05 197.45 614.85 197.45 612.1 198.45 609.95 199.2 609.4 198.85" fill="#ffffff" fill-rule="evenodd" stroke="none"/>
    <path d="M609.4 198.85 Q608.2 198.1 610.4 196.05 612.85 193.85 617.05 193.85 621.3 193.85 623.75 196.05 626.0 198.0 624.75 198.85 624.15 199.25 622.05 198.45 619.25 197.45 617.05 197.45 614.85 197.45 612.1 198.45 609.95 199.2 609.4 198.85 Z" fill="none" stroke="#80441c" stroke-linecap="butt" stroke-linejoin="miter-clip" stroke-miterlimit="4.0" stroke-width="1.0"/>
    <path d="M615.0 188.35 Q613.75 188.55 612.35 188.35 611.45 188.25 610.2 187.6 L609.15 186.95 615.0 188.35" fill="#80441c" fill-rule="evenodd" stroke="none"/>
    <path d="M615.0 188.35 Q613.75 188.55 612.35 188.35 611.45 188.25 610.2 187.6 L609.15 186.95" fill="none" stroke="#80441c" stroke-linecap="butt" stroke-linejoin="miter-clip" stroke-miterlimit="4.0" stroke-width="1.0"/>
    <path d="M619.15 188.35 L625.0 186.95 Q623.2 188.2 621.8 188.35 L619.95 188.45 619.15 188.35" fill="#80441c" fill-rule="evenodd" stroke="none"/>
    <path d="M619.15 188.35 L619.95 188.45 621.8 188.35 Q623.2 188.2 625.0 186.95" fill="none" stroke="#80441c" stroke-linecap="butt" stroke-linejoin="miter-clip" stroke-miterlimit="4.0" stroke-width="1.0"/>
    <path d="M613.8 189.15 Q613.8 189.7 613.4 190.1 613.05 190.5 612.5 190.5 611.95 190.5 611.55 190.1 611.15 189.7 611.15 189.15 611.15 188.6 611.55 188.25 611.95 187.85 612.5 187.85 613.05 187.85 613.4 188.25 613.8 188.65 613.8 189.15" fill="#80441c" fill-rule="evenodd" stroke="none"/>
    <path d="M623.15 189.15 Q623.15 189.7 622.75 190.1 622.35 190.5 621.8 190.5 621.25 190.5 620.85 190.1 620.5 189.7 620.5 189.15 620.5 188.6 620.85 188.25 621.25 187.85 621.8 187.85 622.35 187.85 622.75 188.25 623.15 188.6 623.15 189.15" fill="#80441c" fill-rule="evenodd" stroke="none"/>
  </g>
</svg>
