<?xml version="1.0" encoding="UTF-8" standalone="no"?>
<svg xmlns:ffdec="https://www.free-decompiler.com/flash" xmlns:xlink="http://www.w3.org/1999/xlink" ffdec:objectType="shape" height="55.5px" width="105.0px" xmlns="http://www.w3.org/2000/svg">
  <g transform="matrix(1.0, 0.0, 0.0, 1.0, 53.0, 28.25)">
    <path d="M44.0 -22.75 Q52.0 -22.75 52.0 -14.75 L52.0 19.25 Q52.0 27.25 44.0 27.25 L-40.0 27.25 Q-48.0 27.25 -48.0 19.25 L-48.0 -14.75 Q-48.0 -22.75 -40.0 -22.75 L44.0 -22.75" fill="#000000" fill-opacity="0.2" fill-rule="evenodd" stroke="none"/>
    <path d="M-52.0 -19.25 Q-52.0 -27.25 -44.0 -27.25 L40.0 -27.25 Q48.0 -27.25 48.0 -19.25 L48.0 14.75 Q48.0 22.75 40.0 22.75 L-44.0 22.75 Q-52.0 22.75 -52.0 14.75 L-52.0 -19.25" fill="#139ffe" fill-rule="evenodd" stroke="none"/>
    <path d="M40.0 -27.25 L-44.0 -27.25 Q-52.0 -27.25 -52.0 -19.25 L-52.0 14.75 Q-52.0 22.75 -44.0 22.75 M48.0 14.75 L48.0 -19.25 Q48.0 -27.25 40.0 -27.25" fill="none" stroke="#ffffff" stroke-linecap="round" stroke-linejoin="miter-clip" stroke-miterlimit="3.0" stroke-width="2.0"/>
    <path d="M-44.0 22.75 L40.0 22.75 Q48.0 22.75 48.0 14.75" fill="none" stroke="#ffffff" stroke-linecap="round" stroke-linejoin="miter-clip" stroke-miterlimit="3.0" stroke-width="2.0"/>
  </g>
</svg>
