<?xml version="1.0" encoding="UTF-8" standalone="no"?>
<svg xmlns:ffdec="https://www.free-decompiler.com/flash" xmlns:xlink="http://www.w3.org/1999/xlink" ffdec:objectType="shape" height="43.3px" width="220.55px" xmlns="http://www.w3.org/2000/svg">
  <g transform="matrix(1.0, 0.0, 0.0, 1.0, 213.2, 10.0)">
    <path d="M-149.2 -8.0 L-104.7 -8.0 -6.8 -8.0 7.35 -8.0 7.35 33.3 -202.2 33.3 Q-198.5 32.2 -195.2 30.1 L-193.1 28.6 -191.9 27.6 Q-187.4 23.7 -179.95 12.8 -172.95 2.5 -167.95 -1.6 -160.05 -8.0 -149.2 -8.0" fill="#0f83d0" fill-rule="evenodd" stroke="none"/>
    <path d="M7.35 -10.0 L7.35 -8.0 -6.8 -8.0 -104.7 -8.0 -149.2 -8.0 Q-160.05 -8.0 -167.95 -1.6 -172.95 2.5 -179.95 12.8 -187.4 23.7 -191.9 27.6 L-193.1 28.6 -195.2 30.1 Q-198.5 32.2 -202.2 33.3 L-213.2 33.3 -213.2 32.5 -210.7 32.5 Q-204.55 32.5 -199.35 30.1 -196.1 28.6 -193.2 26.1 -188.85 22.35 -181.6 11.7 L-181.6 11.65 Q-174.25 0.85 -169.2 -3.15 -160.75 -10.0 -149.2 -10.0 L-104.7 -10.0 -6.8 -10.0 7.35 -10.0" fill="#48a2d6" fill-rule="evenodd" stroke="none"/>
    <path d="M3.1 -10.0 L7.35 -10.0 7.35 33.3 -213.2 33.3 -213.2 32.5 -210.7 32.5 Q-204.55 32.5 -199.35 30.1 L-199.25 30.05 3.1 30.05 3.1 -10.0" fill="#000000" fill-opacity="0.101960786" fill-rule="evenodd" stroke="none"/>
    <path d="M-10.7 0.8 L-10.45 0.8 Q-3.65 0.95 -3.65 7.85 L-3.65 18.0 Q-3.65 24.9 -10.45 25.05 L-10.7 25.05 -64.6 25.05 Q-71.65 25.05 -71.65 18.0 L-71.65 7.85 Q-71.65 0.8 -64.6 0.8 L-10.7 0.8" fill="#ffffff" fill-rule="evenodd" stroke="none"/>
    <path d="M-10.7 0.8 L-64.6 0.8 Q-71.65 0.8 -71.65 7.85 L-71.65 18.0 Q-71.65 25.05 -64.6 25.05 L-10.7 25.05 -10.45 25.05 Q-3.65 24.9 -3.65 18.0 L-3.65 7.85 Q-3.65 0.95 -10.45 0.8 L-10.7 0.8 Z" fill="none" stroke="#48a2d6" stroke-linecap="round" stroke-linejoin="round" stroke-width="1.5"/>
  </g>
</svg>
