<?xml version="1.0" encoding="UTF-8" standalone="no"?>
<svg xmlns:ffdec="https://www.free-decompiler.com/flash" xmlns:xlink="http://www.w3.org/1999/xlink" ffdec:objectType="shape" height="61.5px" width="61.5px" xmlns="http://www.w3.org/2000/svg">
  <g transform="matrix(1.0, 0.0, 0.0, 1.0, 0.0, 0.0)">
    <path d="M29.85 0.0 L30.75 0.0 30.85 0.0 31.2 0.0 32.1 0.0 Q38.55 0.4 43.25 5.1 48.35 10.2 48.35 17.45 48.35 24.7 43.25 29.8 38.1 34.9 30.85 34.95 23.6 34.9 18.5 29.8 13.4 24.7 13.4 17.45 13.4 10.2 18.5 5.1 23.25 0.3 29.85 0.0" fill="url(#gradient0)" fill-rule="evenodd" stroke="none"/>
    <path d="M32.1 0.0 Q43.95 0.45 52.45 8.95 61.45 18.0 61.5 30.75 61.45 43.45 52.45 52.45 43.45 61.45 30.75 61.5 18.0 61.45 9.0 52.45 0.0 43.45 0.0 30.75 0.0 18.0 9.0 8.95 17.7 0.25 29.85 0.0 23.25 0.3 18.5 5.1 13.4 10.2 13.4 17.45 13.4 24.7 18.5 29.8 23.6 34.9 30.85 34.95 38.1 34.9 43.25 29.8 48.35 24.7 48.35 17.45 48.35 10.2 43.25 5.1 38.55 0.4 32.1 0.0" fill="url(#gradient1)" fill-rule="evenodd" stroke="none"/>
  </g>
  <defs>
    <linearGradient gradientTransform="matrix(0.0, -0.0173, 0.0213, 0.0, 30.85, 17.3)" gradientUnits="userSpaceOnUse" id="gradient0" spreadMethod="pad" x1="-819.2" x2="819.2">
      <stop offset="0.0" stop-color="#14d114"/>
      <stop offset="1.0" stop-color="#03c102"/>
    </linearGradient>
    <linearGradient gradientTransform="matrix(0.0, 0.0354, -0.0375, 0.0, 30.75, 31.75)" gradientUnits="userSpaceOnUse" id="gradient1" spreadMethod="pad" x1="-819.2" x2="819.2">
      <stop offset="0.0" stop-color="#009900"/>
      <stop offset="0.9333333333333333" stop-color="#25fc25"/>
    </linearGradient>
  </defs>
</svg>
