<?xml version="1.0" encoding="UTF-8" standalone="no"?>
<svg xmlns:ffdec="https://www.free-decompiler.com/flash" xmlns:xlink="http://www.w3.org/1999/xlink" ffdec:objectType="shape" height="40.1px" width="44.5px" xmlns="http://www.w3.org/2000/svg">
  <g transform="matrix(1.0, 0.0, 0.0, 1.0, 22.25, 20.05)">
    <path d="M13.75 -19.55 Q21.75 -19.55 21.75 -11.55 L21.75 11.55 Q21.75 19.55 13.75 19.55 L-13.75 19.55 Q-21.75 19.55 -21.75 11.55 L-21.75 -11.55 Q-21.75 -19.55 -13.75 -19.55 L13.75 -19.55" fill="url(#gradient0)" fill-rule="evenodd" stroke="none"/>
    <path d="M13.75 -19.55 L-13.75 -19.55 Q-21.75 -19.55 -21.75 -11.55 L-21.75 11.55 Q-21.75 19.55 -13.75 19.55 L13.75 19.55 Q21.75 19.55 21.75 11.55 L21.75 -11.55 Q21.75 -19.55 13.75 -19.55 Z" fill="none" stroke="#000000" stroke-linecap="round" stroke-linejoin="round" stroke-opacity="0.3019608" stroke-width="1.0"/>
    <path d="M20.25 -6.8 Q-0.4 0.4 -20.25 -6.8 L-20.25 -11.35 Q-20.25 -17.85 -13.75 -17.85 L13.75 -17.85 Q20.25 -17.85 20.25 -11.35 L20.25 -6.8" fill="url(#gradient1)" fill-rule="evenodd" stroke="none"/>
  </g>
  <defs>
    <linearGradient gradientTransform="matrix(0.0, 0.0089, -0.0239, 0.0, -0.9, 9.15)" gradientUnits="userSpaceOnUse" id="gradient0" spreadMethod="pad" x1="-819.2" x2="819.2">
      <stop offset="0.0" stop-color="#0b93ee"/>
      <stop offset="1.0" stop-color="#2eaafc"/>
    </linearGradient>
    <linearGradient gradientTransform="matrix(0.0, 0.0156, -0.0239, 0.0, -0.1, -5.2)" gradientUnits="userSpaceOnUse" id="gradient1" spreadMethod="pad" x1="-819.2" x2="819.2">
      <stop offset="0.0" stop-color="#ffffff" stop-opacity="0.3019608"/>
      <stop offset="0.6313725490196078" stop-color="#ffffff" stop-opacity="0.0"/>
    </linearGradient>
  </defs>
</svg>
