<?xml version="1.0" encoding="UTF-8" standalone="no"?>
<svg xmlns:ffdec="https://www.free-decompiler.com/flash" xmlns:xlink="http://www.w3.org/1999/xlink" ffdec:objectType="shape" height="35.5px" width="38.25px" xmlns="http://www.w3.org/2000/svg">
  <g transform="matrix(1.0, 0.0, 0.0, 1.0, 18.6, 18.25)">
    <path d="M17.9 -13.1 L17.9 15.05 13.2 12.7 Q11.35 11.75 9.4 11.75 7.75 11.75 5.7 12.5 L1.7 14.25 Q-5.35 17.25 -10.1 17.25 -13.65 17.25 -16.9 15.65 L-18.6 14.8 -18.6 -12.9 -13.95 -10.6 Q-12.15 -9.7 -10.2 -9.7 -8.45 -9.7 -6.1 -10.5 -4.6 -11.0 -1.7 -12.3 L3.65 -14.5 Q6.75 -15.5 9.55 -15.5 13.0 -15.5 16.2 -13.9 L17.9 -13.1" fill="#000000" fill-opacity="0.12941177" fill-rule="evenodd" stroke="none"/>
    <path d="M18.65 -15.05 L18.65 12.0 14.75 10.0 Q12.8 9.05 10.7 9.05 8.9 9.05 6.5 9.8 L2.1 11.55 Q-1.5 13.05 -3.15 13.55 -6.2 14.55 -8.8 14.55 -12.2 14.55 -15.35 12.95 L-16.75 12.25 -16.75 -14.3 -12.85 -12.4 Q-10.9 -11.5 -8.95 -11.5 -7.05 -11.5 -4.65 -12.25 -3.2 -12.8 -0.2 -14.1 L5.1 -16.3 Q8.15 -17.25 10.8 -17.25 14.2 -17.25 17.2 -15.75 L18.65 -15.05" fill="#ffffff" fill-rule="evenodd" stroke="none"/>
    <path d="M18.65 -15.05 L18.65 12.0 14.75 10.0 Q12.8 9.05 10.7 9.05 8.9 9.05 6.5 9.8 L2.1 11.55 Q-1.5 13.05 -3.15 13.55 -6.2 14.55 -8.8 14.55 -12.2 14.55 -15.35 12.95 L-16.75 12.25 -16.75 -14.3 -12.85 -12.4 Q-10.9 -11.5 -8.95 -11.5 -7.05 -11.5 -4.65 -12.25 -3.2 -12.8 -0.2 -14.1 L5.1 -16.3 Q8.15 -17.25 10.8 -17.25 14.2 -17.25 17.2 -15.75 L18.65 -15.05 Z" fill="none" stroke="#234a70" stroke-linecap="butt" stroke-linejoin="miter-clip" stroke-miterlimit="4.0" stroke-width="2.0"/>
  </g>
</svg>
