<?xml version="1.0" encoding="UTF-8" standalone="no"?>
<svg xmlns:ffdec="https://www.free-decompiler.com/flash" xmlns:xlink="http://www.w3.org/1999/xlink" ffdec:objectType="shape" height="27.95px" width="31.1px" xmlns="http://www.w3.org/2000/svg">
  <g transform="matrix(1.0, 0.0, 0.0, 1.0, 14.6, 15.4)">
    <path d="M16.0 7.85 Q12.4 6.05 8.25 6.8 5.8 7.2 0.95 9.35 -3.9 11.4 -6.35 11.85 -10.5 12.6 -14.1 10.8 L-14.1 -10.25 Q-10.5 -8.5 -6.35 -9.25 -3.85 -9.75 0.95 -11.85 5.8 -14.05 8.25 -14.5 12.4 -15.3 16.0 -13.55 L16.0 7.85" fill="url(#gradient0)" fill-rule="evenodd" stroke="none"/>
    <path d="M16.0 7.85 Q12.4 6.05 8.25 6.8 5.8 7.2 0.95 9.35 -3.9 11.4 -6.35 11.85 -10.5 12.6 -14.1 10.8 L-14.1 -10.25 Q-10.5 -8.5 -6.35 -9.25 -3.85 -9.75 0.95 -11.85 5.8 -14.05 8.25 -14.5 12.4 -15.3 16.0 -13.55 L16.0 7.85 Z" fill="none" stroke="#509daf" stroke-linecap="butt" stroke-linejoin="miter-clip" stroke-miterlimit="4.0" stroke-width="1.0"/>
    <path d="M7.95 -1.7 Q7.95 -0.7 6.65 1.5 L6.55 1.6 6.5 1.65 Q2.35 6.75 0.75 6.2 -0.35 5.85 -1.25 4.95 -2.3 3.85 -2.3 2.85 L-2.85 1.7 -3.5 -0.2 -3.05 -1.45 -2.65 -2.0 Q-0.7 -4.6 0.45 -5.5 1.7 -6.45 3.6 -6.9 L6.55 -6.65 Q7.9 -5.5 7.95 -1.7" fill="#c4da6e" fill-rule="evenodd" stroke="none"/>
    <path d="M7.1 -1.45 Q7.1 -0.7 5.9 1.25 2.55 5.7 1.35 5.3 L-0.5 4.2 Q-1.45 3.3 -1.45 2.5 -1.45 2.1 -2.25 0.65 -2.85 -0.55 -2.4 -1.1 L-1.0 -3.05 0.75 -4.85 Q1.7 -5.6 3.35 -5.95 L5.9 -5.9 Q6.5 -5.4 6.85 -3.65 L7.1 -1.45" fill="#4ba647" fill-rule="evenodd" stroke="none"/>
    <path d="M-5.0 -2.3 Q-5.0 -1.1 -5.9 0.45 -6.8 2.1 -7.9 2.5 L-9.35 2.35 -10.45 1.2 -10.75 0.35 -10.8 0.2 -10.8 0.1 -10.45 -2.95 Q-10.2 -3.9 -8.95 -4.2 -6.6 -4.7 -5.45 -3.55 -5.0 -3.0 -5.0 -2.3" fill="#c4da6e" fill-rule="evenodd" stroke="none"/>
    <path d="M-9.95 0.25 L-9.6 -2.8 Q-9.45 -3.55 -8.15 -3.6 -6.8 -3.65 -6.1 -2.9 -5.45 -2.2 -6.3 -0.35 -7.1 1.45 -8.15 1.75 -8.95 2.0 -9.5 1.2 L-9.95 0.25" fill="#4ba647" fill-rule="evenodd" stroke="none"/>
    <path d="M-8.0 8.3 Q-8.0 7.4 -7.2 6.65 -6.4 5.95 -5.5 5.95 -4.5 5.95 -3.6 6.65 -2.85 7.2 -2.65 7.7 L-2.6 8.0 -3.0 8.95 -4.35 9.9 -5.65 10.4 Q-6.6 10.55 -7.3 9.85 -8.0 9.2 -8.0 8.3" fill="#c4da6e" fill-rule="evenodd" stroke="none"/>
    <path d="M-5.6 9.65 Q-6.5 9.8 -7.0 8.9 -7.55 8.0 -6.7 7.15 L-4.65 7.05 Q-3.65 7.6 -3.4 8.25 -3.3 8.55 -4.15 9.05 -5.0 9.55 -5.6 9.65" fill="#4ba647" fill-rule="evenodd" stroke="none"/>
    <path d="M10.8 -11.0 Q11.7 -10.7 12.25 -10.2 13.05 -9.5 13.3 -8.2 13.5 -6.95 12.9 -6.15 12.3 -5.35 11.0 -5.2 9.85 -5.0 9.0 -5.7 8.2 -6.35 7.95 -7.95 L7.9 -9.95 8.1 -10.3 9.05 -11.1 10.8 -11.0" fill="#c4da6e" fill-rule="evenodd" stroke="none"/>
    <path d="M11.8 -9.7 Q12.75 -8.9 12.65 -7.55 12.45 -6.05 10.9 -5.85 9.5 -5.6 8.95 -7.55 8.5 -9.1 8.7 -10.1 8.85 -10.6 10.05 -10.4 11.2 -10.25 11.8 -9.7" fill="#4ba647" fill-rule="evenodd" stroke="none"/>
  </g>
  <defs>
    <linearGradient gradientTransform="matrix(0.0184, 0.0, 0.0, -0.0184, 0.95, -1.35)" gradientUnits="userSpaceOnUse" id="gradient0" spreadMethod="pad" x1="-819.2" x2="819.2">
      <stop offset="0.0" stop-color="#72d6ff"/>
      <stop offset="0.37254901960784315" stop-color="#349edb"/>
      <stop offset="0.8313725490196079" stop-color="#59bbea"/>
    </linearGradient>
  </defs>
</svg>
