<?xml version="1.0" encoding="UTF-8" standalone="no"?>
<svg xmlns:ffdec="https://www.free-decompiler.com/flash" xmlns:xlink="http://www.w3.org/1999/xlink" ffdec:objectType="shape" height="29.55px" width="52.0px" xmlns="http://www.w3.org/2000/svg">
  <g transform="matrix(1.0, 0.0, 0.0, 1.0, 51.25, -44.4)">
    <path d="M-0.25 65.95 Q-0.25 73.95 -8.25 73.95 L-42.25 73.95 Q-50.25 73.95 -50.25 65.95 L-50.25 56.65 Q-50.25 48.65 -42.25 48.65 L-8.25 48.65 Q-0.25 48.65 -0.25 56.65 L-0.25 65.95" fill="#000000" fill-opacity="0.14901961" fill-rule="evenodd" stroke="none"/>
    <path d="M-0.25 62.7 Q-0.25 70.7 -8.25 70.7 L-42.25 70.7 Q-50.25 70.7 -50.25 62.7 L-50.25 53.4 Q-50.25 45.4 -42.25 45.4 L-8.25 45.4 Q-0.25 45.4 -0.25 53.4 L-0.25 62.7" fill="#139ffe" fill-rule="evenodd" stroke="none"/>
    <path d="M-0.25 62.7 L-0.25 53.4 Q-0.25 45.4 -8.25 45.4 L-42.25 45.4 Q-50.25 45.4 -50.25 53.4 L-50.25 62.7 Q-50.25 70.7 -42.25 70.7 L-8.25 70.7 Q-0.25 70.7 -0.25 62.7 Z" fill="none" stroke="#ffffff" stroke-linecap="round" stroke-linejoin="miter-clip" stroke-miterlimit="3.0" stroke-width="2.0"/>
  </g>
</svg>
