<?xml version="1.0" encoding="UTF-8" standalone="no"?>
<svg xmlns:ffdec="https://www.free-decompiler.com/flash" xmlns:xlink="http://www.w3.org/1999/xlink" ffdec:objectType="shape" height="31.1px" width="38.5px" xmlns="http://www.w3.org/2000/svg">
  <g transform="matrix(1.0, 0.0, 0.0, 1.0, 17.75, 14.85)">
    <path d="M5.5 -13.5 L7.75 -13.5 Q6.7 -10.25 4.7 -7.1 2.65 -3.95 -0.4 -3.95 -3.45 -3.95 -4.85 -5.85 -6.3 -7.75 -6.35 -9.95 -6.4 -12.25 -5.7 -14.1 L-3.9 -13.6 -4.55 -10.85 Q-4.75 -9.55 -4.05 -8.1 -3.25 -6.4 -1.2 -6.2 1.1 -6.0 2.25 -7.4 L4.15 -10.4 5.5 -13.5 M17.6 -10.15 L20.35 -9.0 Q18.3 -8.9 17.1 -4.4 15.8 0.1 17.2 1.35 L17.15 1.4 14.3 0.4 Q13.75 -2.1 14.65 -5.3 15.65 -8.65 17.6 -10.15 M-12.65 -2.25 L-15.0 -1.85 Q-16.6 -2.95 -17.35 -5.85 -18.15 -8.8 -17.4 -11.2 L-15.3 -11.9 Q-15.8 -9.4 -15.1 -6.7 -14.35 -3.95 -12.65 -2.25" fill="#ffffff" fill-rule="evenodd" stroke="none"/>
    <path d="M7.75 -13.5 L11.35 -12.85 17.6 -10.15 Q15.65 -8.65 14.65 -5.3 13.75 -2.1 14.3 0.4 L9.85 -1.0 Q9.25 7.7 10.2 14.55 5.85 16.65 -0.2 16.15 -6.15 15.6 -9.4 13.5 -8.5 7.85 -8.8 -3.1 L-12.65 -2.25 Q-14.35 -3.95 -15.1 -6.7 -15.8 -9.4 -15.3 -11.9 L-8.2 -14.35 -5.7 -14.1 Q-6.4 -12.25 -6.35 -9.95 -6.3 -7.75 -4.85 -5.85 -3.45 -3.95 -0.4 -3.95 2.65 -3.95 4.7 -7.1 6.7 -10.25 7.75 -13.5 M11.35 -12.85 Q8.6 -10.3 8.1 -6.75 7.5 -3.2 8.9 -1.35 7.5 -3.2 8.1 -6.75 8.6 -10.3 11.35 -12.85 M-8.2 -14.35 Q-9.45 -11.95 -9.65 -8.9 -9.85 -5.85 -8.8 -3.1 -9.85 -5.85 -9.65 -8.9 -9.45 -11.95 -8.2 -14.35" fill="#4ba647" fill-rule="evenodd" stroke="none"/>
    <path d="M20.35 -9.0 Q21.35 -7.95 19.95 -3.3 18.6 1.4 17.2 1.35 15.8 0.1 17.1 -4.4 18.3 -8.9 20.35 -9.0 M-3.9 -13.6 Q-2.05 -11.5 0.85 -11.2 3.75 -10.9 5.5 -13.5 L4.15 -10.4 2.25 -7.4 Q1.1 -6.0 -1.2 -6.2 -3.25 -6.4 -4.05 -8.1 -4.75 -9.55 -4.55 -10.85 L-3.9 -13.6" fill="#377131" fill-rule="evenodd" stroke="none"/>
    <path d="M8.9 -1.35 Q7.5 -3.2 8.1 -6.75 8.6 -10.3 11.35 -12.85 M17.6 -10.15 Q15.65 -8.65 14.65 -5.3 13.75 -2.1 14.3 0.4 M7.75 -13.5 Q6.7 -10.25 4.7 -7.1 2.65 -3.95 -0.4 -3.95 -3.45 -3.95 -4.85 -5.85 -6.3 -7.75 -6.35 -9.95 -6.4 -12.25 -5.7 -14.1 M-12.65 -2.25 Q-14.35 -3.95 -15.1 -6.7 -15.8 -9.4 -15.3 -11.9 M-8.8 -3.1 Q-9.85 -5.85 -9.65 -8.9 -9.45 -11.95 -8.2 -14.35" fill="none" stroke="#377131" stroke-linecap="round" stroke-linejoin="miter-clip" stroke-miterlimit="3.0" stroke-width="1.0"/>
    <path d="M-16.9 -4.45 Q-14.1 -3.75 -9.65 -6.55 -9.5 -3.8 -8.9 -3.05 L-12.65 -2.25 -15.0 -1.85 Q-16.15 -2.65 -16.9 -4.45 M7.75 -5.7 Q12.35 -1.75 16.55 -1.95 16.25 0.05 17.25 1.35 L17.2 1.35 17.15 1.4 14.3 0.4 9.85 -1.0 Q9.25 7.7 10.2 14.55 5.85 16.65 -0.2 16.15 -6.15 15.6 -9.4 13.5 L-9.35 13.25 Q2.25 15.1 4.85 12.8 4.75 3.7 7.75 -5.7" fill="#000000" fill-opacity="0.101960786" fill-rule="evenodd" stroke="none"/>
  </g>
</svg>
