<?xml version="1.0" encoding="UTF-8" standalone="no"?>
<svg xmlns:ffdec="https://www.free-decompiler.com/flash" xmlns:xlink="http://www.w3.org/1999/xlink" ffdec:objectType="shape" height="35.75px" width="43.75px" xmlns="http://www.w3.org/2000/svg">
  <g transform="matrix(1.0, 0.0, 0.0, 1.0, 21.05, 16.2)">
    <path d="M2.55 -13.15 L3.15 -14.0 6.55 -14.0 10.5 -13.25 19.95 -9.2 20.3 -8.85 Q22.2 -7.5 20.4 -1.35 L20.4 -1.4 Q18.45 5.15 15.8 4.65 L15.75 4.75 10.2 2.95 Q9.9 10.0 10.7 15.7 L10.9 17.05 9.65 17.65 Q4.9 20.0 -1.75 19.45 -8.3 18.85 -11.85 16.5 L-12.85 15.85 -12.65 14.6 Q-11.9 9.7 -12.05 0.6 L-16.75 1.6 -17.45 1.1 Q-19.6 -0.2 -20.55 -4.0 L-20.55 -3.95 Q-21.55 -7.5 -20.6 -10.35 L-20.3 -11.25 -9.75 -14.8 -6.9 -14.55 -6.8 -14.55 -4.3 -13.85 -3.9 -13.45 Q-2.5 -11.9 -0.35 -11.7 1.45 -11.55 2.55 -13.15" fill="#000000" fill-opacity="0.12941177" fill-rule="evenodd" stroke="none"/>
    <path d="M3.95 -14.55 L4.55 -15.4 7.95 -15.4 11.9 -14.65 21.35 -10.6 21.7 -10.25 Q23.6 -8.9 21.8 -2.75 L21.8 -2.8 Q19.85 3.75 17.2 3.25 L17.15 3.35 11.6 1.55 Q11.3 8.6 12.1 14.3 L12.3 15.65 11.05 16.25 Q6.3 18.6 -0.35 18.05 -6.9 17.45 -10.45 15.1 L-11.45 14.45 -11.25 13.2 Q-10.5 8.3 -10.65 -0.8 L-15.35 0.2 -16.05 -0.3 Q-18.2 -1.6 -19.15 -5.4 L-19.15 -5.35 Q-20.15 -8.9 -19.2 -11.75 L-18.9 -12.65 -8.35 -16.2 -5.5 -15.95 -5.4 -15.95 -2.9 -15.25 -2.5 -14.85 Q-1.1 -13.3 1.05 -13.1 2.85 -12.95 3.95 -14.55" fill="#80ccff" fill-rule="evenodd" stroke="none"/>
  </g>
</svg>
