<?xml version="1.0" encoding="UTF-8" standalone="no"?>
<svg xmlns:ffdec="https://www.free-decompiler.com/flash" xmlns:xlink="http://www.w3.org/1999/xlink" ffdec:objectType="shape" height="46.6px" width="88.0px" xmlns="http://www.w3.org/2000/svg">
  <g transform="matrix(1.0, 0.0, 0.0, 1.0, 68.75, -27.6)">
    <path d="M18.25 66.2 Q18.25 74.2 10.25 74.2 L-59.75 74.2 Q-67.75 74.2 -67.75 66.2 L-67.75 56.9 Q-67.75 48.9 -59.75 48.9 L10.25 48.9 Q18.25 48.9 18.25 56.9 L18.25 66.2" fill="#000000" fill-opacity="0.14901961" fill-rule="evenodd" stroke="none"/>
    <path d="M18.25 62.95 Q18.25 70.95 10.25 70.95 L-59.75 70.95 Q-67.75 70.95 -67.75 62.95 L-67.75 53.65 Q-67.75 45.65 -59.75 45.65 L10.25 45.65 Q18.25 45.65 18.25 53.65 L18.25 62.95" fill="#139ffe" fill-rule="evenodd" stroke="none"/>
    <path d="M18.25 62.95 L18.25 53.65 Q18.25 45.65 10.25 45.65 L-59.75 45.65 Q-67.75 45.65 -67.75 53.65 L-67.75 62.95 Q-67.75 70.95 -59.75 70.95 L10.25 70.95 Q18.25 70.95 18.25 62.95 Z" fill="none" stroke="#ffffff" stroke-linecap="round" stroke-linejoin="miter-clip" stroke-miterlimit="3.0" stroke-width="2.0"/>
    <path d="M-20.1 46.9 L-8.1 32.95 -8.85 46.9 -20.1 46.9" fill="#139ffe" fill-rule="evenodd" stroke="none"/>
    <path d="M-20.1 46.9 L-22.25 46.9 -5.7 27.6 -6.7 46.9 -8.85 46.9 -8.1 32.95 -20.1 46.9" fill="#ffffff" fill-rule="evenodd" stroke="none"/>
  </g>
</svg>
