<?xml version="1.0" encoding="UTF-8" standalone="no"?>
<svg xmlns:ffdec="https://www.free-decompiler.com/flash" xmlns:xlink="http://www.w3.org/1999/xlink" ffdec:objectType="shape" height="35.7px" width="39.75px" xmlns="http://www.w3.org/2000/svg">
  <g transform="matrix(1.0, 0.0, 0.0, 1.0, 0.0, 0.0)">
    <path d="M20.7 5.15 L20.55 4.9 20.25 4.55 19.85 5.15 20.7 5.15 M32.25 7.75 Q36.0 10.3 37.3 14.1 42.05 27.75 37.65 30.55 35.8 31.7 33.55 31.95 31.2 35.2 25.3 35.65 L24.4 35.7 6.4 35.7 Q4.0 35.7 2.3 34.0 0.55 32.3 0.55 29.9 L0.55 29.8 0.6 29.7 1.25 24.0 1.05 23.75 Q-0.35 22.9 0.15 19.05 0.5 16.7 1.5 12.9 2.75 8.45 5.65 7.1 8.0 5.65 14.75 5.25 15.1 3.8 15.8 2.7 17.45 0.0 20.25 0.0 23.0 0.0 24.75 2.7 25.45 3.8 25.85 5.5 30.45 6.1 32.25 7.75" fill="#000000" fill-rule="evenodd" stroke="none"/>
  </g>
</svg>
