<?xml version="1.0" encoding="UTF-8" standalone="no"?>
<svg xmlns:ffdec="https://www.free-decompiler.com/flash" xmlns:xlink="http://www.w3.org/1999/xlink" ffdec:objectType="shape" height="32.35px" width="35.95px" xmlns="http://www.w3.org/2000/svg">
  <g transform="matrix(1.0, 0.0, 0.0, 1.0, 17.55, 16.7)">
    <path d="M0.75 -16.7 Q3.45 -16.7 5.05 -14.1 5.7 -13.2 6.05 -11.8 9.95 -11.25 11.6 -9.8 15.0 -7.55 16.25 -3.95 20.5 8.45 16.3 11.05 14.6 12.1 12.7 12.35 10.5 15.2 5.25 15.6 L4.4 15.65 -11.45 15.65 Q-13.8 15.65 -15.45 14.0 -17.05 12.4 -17.05 10.1 L-17.05 9.95 -17.0 9.85 -16.5 5.0 -16.55 5.0 Q-18.0 4.0 -17.35 0.45 L-16.2 -5.0 Q-15.5 -7.4 -14.15 -8.95 L-12.3 -10.35 Q-10.35 -11.65 -4.45 -12.05 L-3.55 -14.1 Q-1.9 -16.7 0.75 -16.7 M10.9 -6.5 L10.95 -6.55 Q12.3 -4.95 12.8 -3.4 14.4 1.85 14.45 5.15 14.5 7.6 13.65 8.35 L12.25 9.0 12.35 8.0 10.95 -5.65 10.85 -6.55 10.9 -6.5 10.85 -6.55 10.95 -5.65 12.35 8.0 12.25 9.0 13.65 8.35 Q14.5 7.6 14.45 5.15 14.4 1.85 12.8 -3.4 12.3 -4.95 10.95 -6.55 L10.9 -6.5 M0.75 -13.65 L0.8 -13.65 Q1.45 -13.65 2.1 -12.7 2.7 -11.8 2.8 -10.3 L-1.3 -10.4 Q-1.2 -11.8 -0.55 -12.7 0.05 -13.65 0.75 -13.65 0.05 -13.65 -0.55 -12.7 -1.2 -11.8 -1.3 -10.4 L2.8 -10.3 Q2.7 -11.8 2.1 -12.7 1.45 -13.65 0.8 -13.65 L0.75 -13.65 M3.55 -13.2 Q2.45 -14.95 0.75 -14.95 -0.95 -14.95 -2.05 -13.2 -2.8 -12.0 -3.0 -10.35 L-9.85 -9.5 -11.45 -8.8 -12.6 -8.05 Q-13.9 -6.8 -14.5 -4.55 -16.55 3.15 -15.45 3.55 L-15.2 3.6 -14.95 4.05 -14.6 4.15 -15.3 10.1 Q-15.3 11.7 -14.15 12.8 -13.05 13.9 -11.45 13.9 L4.4 13.9 5.05 13.85 Q10.2 13.45 11.75 10.65 13.75 10.6 15.4 9.55 18.3 7.7 14.55 -3.4 13.5 -6.45 10.5 -8.4 9.15 -9.75 4.55 -10.2 4.3 -12.0 3.55 -13.2 4.3 -12.0 4.55 -10.2 9.15 -9.75 10.5 -8.4 13.5 -6.45 14.55 -3.4 18.3 7.7 15.4 9.55 13.75 10.6 11.75 10.65 10.2 13.45 5.05 13.85 L4.4 13.9 -11.45 13.9 Q-13.05 13.9 -14.15 12.8 -15.3 11.7 -15.3 10.1 L-14.6 4.15 -14.95 4.05 -15.2 3.6 -15.45 3.55 Q-16.55 3.15 -14.5 -4.55 -13.9 -6.8 -12.6 -8.05 L-11.45 -8.8 -9.85 -9.5 -3.0 -10.35 Q-2.8 -12.0 -2.05 -13.2 -0.95 -14.95 0.75 -14.95 2.45 -14.95 3.55 -13.2" fill="#234a70" fill-rule="evenodd" stroke="none"/>
  </g>
</svg>
