<?xml version="1.0" encoding="UTF-8" standalone="no"?>
<svg xmlns:ffdec="https://www.free-decompiler.com/flash" xmlns:xlink="http://www.w3.org/1999/xlink" ffdec:objectType="shape" height="28.85px" width="30.35px" xmlns="http://www.w3.org/2000/svg">
  <g transform="matrix(1.0, 0.0, 0.0, 1.0, 13.7, 14.95)">
    <path d="M14.55 -3.4 Q18.3 7.7 15.4 9.55 13.8 10.6 11.8 10.65 L8.65 10.5 8.15 11.35 8.4 9.5 Q12.6 9.25 13.65 8.35 14.5 7.6 14.45 5.15 14.4 1.85 12.8 -3.4 12.2 -5.25 10.5 -6.95 L8.35 -8.65 8.05 -8.45 7.9 -8.5 8.85 -9.25 Q8.9 -9.2 11.2 -7.9 13.65 -6.1 14.55 -3.4" fill="#855f00" fill-rule="evenodd" stroke="none"/>
    <path d="M2.85 -9.75 Q2.85 -11.5 2.1 -12.7 1.5 -13.65 0.75 -13.65 0.0 -13.65 -0.55 -12.7 -1.35 -11.45 -1.35 -9.75 -1.35 -8.1 -0.55 -6.85 0.05 -5.85 0.75 -5.85 1.45 -5.85 2.1 -6.85 2.85 -8.05 2.85 -9.75 M3.55 -13.2 Q4.6 -11.65 4.6 -9.5 4.6 -7.3 3.55 -5.75 2.45 -3.95 0.75 -3.95 -0.95 -3.95 -2.05 -5.75 -3.05 -7.35 -3.05 -9.5 -3.05 -11.6 -2.05 -13.2 -0.95 -14.95 0.75 -14.95 2.45 -14.95 3.55 -13.2" fill="#a17300" fill-rule="evenodd" stroke="none"/>
    <path d="M12.35 8.0 Q12.35 13.6 4.25 13.9 L-3.7 13.3 -10.1 13.6 Q-11.7 13.6 -12.6 12.75 -13.55 11.8 -13.55 10.25 L-13.7 -3.75 Q-13.7 -5.3 -11.85 -6.95 -10.05 -8.65 -8.45 -8.65 L7.1 -9.45 Q8.7 -9.45 9.85 -8.35 10.95 -7.25 10.95 -5.65 L12.35 8.0" fill="#a17300" fill-rule="evenodd" stroke="none"/>
  </g>
</svg>
