<?xml version="1.0" encoding="UTF-8" standalone="no"?>
<svg xmlns:ffdec="https://www.free-decompiler.com/flash" xmlns:xlink="http://www.w3.org/1999/xlink" ffdec:objectType="shape" height="20.95px" width="28.9px" xmlns="http://www.w3.org/2000/svg">
  <g transform="matrix(1.0, 0.0, 0.0, 1.0, 0.0, 0.0)">
    <path d="M28.85 3.2 L28.9 3.55 27.5 3.2 Q25.85 3.15 25.3 5.4 24.9 7.0 24.65 12.1 24.4 16.75 24.15 17.0 L21.25 17.5 14.4 17.9 13.95 20.7 12.15 20.95 10.7 18.0 7.5 18.0 0.0 17.25 Q0.2 12.15 1.3 8.15 2.0 5.6 3.45 4.2 L4.75 3.3 Q5.25 2.5 7.15 1.65 10.85 0.0 17.6 0.0 24.45 0.0 27.0 1.0 28.85 1.7 28.85 3.2" fill="#000000" fill-rule="evenodd" stroke="none"/>
  </g>
</svg>
