<?xml version="1.0" encoding="UTF-8" standalone="no"?>
<svg xmlns:ffdec="https://www.free-decompiler.com/flash" xmlns:xlink="http://www.w3.org/1999/xlink" ffdec:objectType="shape" height="19.05px" width="25.9px" xmlns="http://www.w3.org/2000/svg">
  <g transform="matrix(1.0, 0.0, 0.0, 1.0, 15.85, 10.4)">
    <path d="M6.8 -5.8 Q6.1 -4.15 5.8 -0.25 5.5 3.25 5.2 3.55 L-5.05 3.95 -15.45 3.55 Q-16.55 3.15 -14.5 -4.55 -13.9 -6.8 -12.6 -8.05 L-11.45 -8.8 Q-10.35 -9.2 -9.3 -9.65 L-0.05 -10.4 8.4 -9.5 Q9.8 -9.1 10.05 -8.7 L8.9 -8.4 Q7.6 -7.7 6.8 -5.8" fill="url(#gradient0)" fill-rule="evenodd" stroke="none"/>
    <path d="M-3.75 8.0 L-6.8 8.0 -6.1 0.95 -3.9 0.95 -3.75 8.0" fill="url(#gradient1)" fill-rule="evenodd" stroke="none"/>
    <path d="M-3.9 0.95 L-6.1 0.95 -6.8 8.0 -3.75 8.0 -3.9 0.95 M-6.7 0.3 L-3.2 0.3 -3.1 8.65 -7.5 8.65 -6.7 0.3" fill="#525252" fill-rule="evenodd" stroke="none"/>
  </g>
  <defs>
    <linearGradient gradientTransform="matrix(0.0, -0.0083, -0.0083, 0.0, -2.85, -3.35)" gradientUnits="userSpaceOnUse" id="gradient0" spreadMethod="pad" x1="-819.2" x2="819.2">
      <stop offset="0.19215686274509805" stop-color="#c78e00"/>
      <stop offset="1.0" stop-color="#fab609"/>
    </linearGradient>
    <linearGradient gradientTransform="matrix(0.0, 0.0045, 0.0045, 0.0, -5.3, 5.85)" gradientUnits="userSpaceOnUse" id="gradient1" spreadMethod="pad" x1="-819.2" x2="819.2">
      <stop offset="0.0" stop-color="#919191"/>
      <stop offset="1.0" stop-color="#6e6e6e"/>
    </linearGradient>
  </defs>
</svg>
