<?xml version="1.0" encoding="UTF-8" standalone="no"?>
<svg xmlns:ffdec="https://www.free-decompiler.com/flash" xmlns:xlink="http://www.w3.org/1999/xlink" ffdec:objectType="shape" height="480.0px" width="640.0px" xmlns="http://www.w3.org/2000/svg">
  <g transform="matrix(1.0, 0.0, 0.0, 1.0, 320.0, 240.0)">
    <path d="M-320.0 -240.0 L320.0 -240.0 320.0 240.0 -320.0 240.0 -320.0 -240.0" fill="#000000" fill-rule="evenodd" stroke="none"/>
    <path d="M214.0 -198.1 Q229.0 -198.1 229.0 -184.25 L229.0 195.25 Q229.0 209.1 214.0 209.1 L-228.0 209.1 Q-243.0 209.1 -243.0 195.25 L-243.0 -184.25 Q-243.0 -198.1 -228.0 -198.1 L214.0 -198.1" fill="#000000" fill-opacity="0.14901961" fill-rule="evenodd" stroke="none"/>
    <path d="M220.5 -207.35 Q235.5 -207.35 235.5 -193.45 L235.5 186.5 Q235.5 200.4 220.5 200.4 L-221.5 200.4 Q-236.5 200.4 -236.5 186.5 L-236.5 -193.45 Q-236.5 -207.35 -221.5 -207.35 L220.5 -207.35" fill="#3695ff" fill-rule="evenodd" stroke="none"/>
    <path d="M220.5 -207.35 L-221.5 -207.35 Q-236.5 -207.35 -236.5 -193.45 L-236.5 186.5 Q-236.5 200.4 -221.5 200.4 L220.5 200.4 Q235.5 200.4 235.5 186.5 L235.5 -193.45 Q235.5 -207.35 220.5 -207.35 Z" fill="none" stroke="#78c0fc" stroke-linecap="round" stroke-linejoin="round" stroke-width="2.0"/>
    <path d="M220.65 -208.0 Q227.1 -208.0 231.5 -205.4 235.5 -203.0 236.25 -199.5 L236.3 -199.5 236.3 -186.9 Q110.8 -169.35 0.1 -169.35 -110.65 -169.35 -236.1 -186.9 L-236.1 -200.1 -235.95 -200.1 Q-235.2 -203.5 -231.25 -205.65 -226.95 -208.0 -220.4 -208.0 L220.65 -208.0" fill="url(#gradient0)" fill-rule="evenodd" stroke="none"/>
    <path d="M72.15 175.8 Q76.35 178.95 76.35 183.05 L76.35 191.95 Q76.35 196.1 72.15 199.1 68.2 202.1 62.2 202.1 L-62.05 202.1 Q-67.95 202.1 -72.15 199.1 -76.2 196.2 -76.2 191.95 L-76.2 183.05 Q-76.2 178.8 -72.15 175.8 -67.95 172.9 -62.05 172.9 L62.2 172.9 Q68.1 172.9 72.15 175.8" fill="#000000" fill-opacity="0.101960786" fill-rule="evenodd" stroke="none"/>
  </g>
  <defs>
    <linearGradient gradientTransform="matrix(0.0, 0.0292, -0.0447, 0.0, -71.1, -189.15)" gradientUnits="userSpaceOnUse" id="gradient0" spreadMethod="pad" x1="-819.2" x2="819.2">
      <stop offset="0.0" stop-color="#ffffff" stop-opacity="0.3019608"/>
      <stop offset="1.0" stop-color="#ffffff" stop-opacity="0.0"/>
    </linearGradient>
  </defs>
</svg>
