<?xml version="1.0" encoding="UTF-8" standalone="no"?>
<svg xmlns:ffdec="https://www.free-decompiler.com/flash" xmlns:xlink="http://www.w3.org/1999/xlink" ffdec:objectType="shape" height="46.6px" width="57.0px" xmlns="http://www.w3.org/2000/svg">
  <g transform="matrix(1.0, 0.0, 0.0, 1.0, 59.0, -27.6)">
    <path d="M-3.0 66.2 Q-3.0 74.2 -11.0 74.2 L-50.0 74.2 Q-58.0 74.2 -58.0 66.2 L-58.0 56.9 Q-58.0 48.9 -50.0 48.9 L-11.0 48.9 Q-3.0 48.9 -3.0 56.9 L-3.0 66.2" fill="#000000" fill-opacity="0.14901961" fill-rule="evenodd" stroke="none"/>
    <path d="M-3.0 62.95 Q-3.0 70.95 -11.0 70.95 L-50.0 70.95 Q-58.0 70.95 -58.0 62.95 L-58.0 53.65 Q-58.0 45.65 -50.0 45.65 L-11.0 45.65 Q-3.0 45.65 -3.0 53.65 L-3.0 62.95" fill="#139ffe" fill-rule="evenodd" stroke="none"/>
    <path d="M-3.0 62.95 L-3.0 53.65 Q-3.0 45.65 -11.0 45.65 L-50.0 45.65 Q-58.0 45.65 -58.0 53.65 L-58.0 62.95 Q-58.0 70.95 -50.0 70.95 L-11.0 70.95 Q-3.0 70.95 -3.0 62.95 Z" fill="none" stroke="#ffffff" stroke-linecap="round" stroke-linejoin="miter-clip" stroke-miterlimit="3.0" stroke-width="2.0"/>
    <path d="M-26.1 46.9 L-14.1 32.95 -14.85 46.9 -26.1 46.9" fill="#139ffe" fill-rule="evenodd" stroke="none"/>
    <path d="M-26.1 46.9 L-28.25 46.9 -11.7 27.6 -12.7 46.9 -14.85 46.9 -14.1 32.95 -26.1 46.9" fill="#ffffff" fill-rule="evenodd" stroke="none"/>
  </g>
</svg>
