<?xml version="1.0" encoding="UTF-8" standalone="no"?>
<svg xmlns:ffdec="https://www.free-decompiler.com/flash" xmlns:xlink="http://www.w3.org/1999/xlink" ffdec:objectType="shape" height="44.0px" width="49.75px" xmlns="http://www.w3.org/2000/svg">
  <g transform="matrix(1.0, 0.0, 0.0, 1.0, 27.85, 22.0)">
    <path d="M14.05 14.15 Q8.2 20.0 -0.1 20.0 -8.35 20.0 -14.2 14.15 -19.2 9.15 -19.95 2.4 L-22.5 2.4 -22.5 3.55 -25.85 3.55 -25.85 -3.55 -22.5 -3.55 -22.5 -2.4 -19.95 -2.4 Q-19.25 -9.15 -14.2 -14.15 -8.35 -20.0 -0.1 -20.0 8.2 -20.0 14.05 -14.15 19.9 -8.3 19.9 0.0 19.9 8.25 14.05 14.15" fill="#e2b447" fill-rule="evenodd" stroke="none"/>
    <path d="M14.05 14.15 Q8.2 20.0 -0.1 20.0 -8.35 20.0 -14.2 14.15 -19.2 9.15 -19.95 2.4 L-22.5 2.4 -22.5 3.55 -25.85 3.55 -25.85 -3.55 -22.5 -3.55 -22.5 -2.4 -19.95 -2.4 Q-19.25 -9.15 -14.2 -14.15 -8.35 -20.0 -0.1 -20.0 8.2 -20.0 14.05 -14.15 19.9 -8.3 19.9 0.0 19.9 8.25 14.05 14.15 Z" fill="none" stroke="#53431a" stroke-linecap="square" stroke-linejoin="miter-clip" stroke-miterlimit="3.0" stroke-width="3.0"/>
  </g>
</svg>
