<?xml version="1.0" encoding="UTF-8" standalone="no"?>
<svg xmlns:ffdec="https://www.free-decompiler.com/flash" xmlns:xlink="http://www.w3.org/1999/xlink" ffdec:objectType="shape" height="41.3px" width="47.05px" xmlns="http://www.w3.org/2000/svg">
  <g transform="matrix(1.0, 0.0, 0.0, 1.0, 26.5, 20.65)">
    <path d="M-23.5 -2.4 L-19.15 -2.4 -19.15 2.4 -23.5 2.4 -23.5 -2.4" fill="#e2b447" fill-rule="evenodd" stroke="none"/>
    <path d="M-23.5 -2.4 L-19.15 -2.4 -19.15 2.4 -23.5 2.4 -23.5 -2.4 Z" fill="none" stroke="#9a7b30" stroke-linecap="square" stroke-linejoin="miter-clip" stroke-miterlimit="3.0" stroke-width="1.0"/>
    <path d="M19.9 0.0 Q19.9 8.25 14.05 14.15 8.2 20.0 -0.1 20.0 -8.35 20.0 -14.2 14.15 -20.1 8.25 -20.1 0.0 -20.1 -8.3 -14.2 -14.15 -8.35 -20.0 -0.1 -20.0 8.2 -20.0 14.05 -14.15 19.9 -8.3 19.9 0.0" fill="#e2b447" fill-rule="evenodd" stroke="none"/>
    <path d="M19.9 0.0 Q19.9 8.25 14.05 14.15 8.2 20.0 -0.1 20.0 -8.35 20.0 -14.2 14.15 -20.1 8.25 -20.1 0.0 -20.1 -8.3 -14.2 -14.15 -8.35 -20.0 -0.1 -20.0 8.2 -20.0 14.05 -14.15 19.9 -8.3 19.9 0.0 Z" fill="none" stroke="#9a7b30" stroke-linecap="square" stroke-linejoin="miter-clip" stroke-miterlimit="3.0" stroke-width="1.0"/>
    <path d="M12.05 -12.1 Q17.05 -7.05 17.05 0.0 17.05 7.1 12.05 12.1 7.05 17.15 -0.05 17.15 -7.15 17.15 -12.15 12.1 -17.2 7.1 -17.2 0.0 -17.2 -7.05 -12.15 -12.1 -7.15 -17.1 -0.05 -17.1 7.05 -17.1 12.05 -12.1" fill="#e2b447" fill-rule="evenodd" stroke="none"/>
    <path d="M12.05 -12.1 Q17.05 -7.05 17.05 0.0 17.05 7.1 12.05 12.1 7.05 17.15 -0.05 17.15 -7.15 17.15 -12.15 12.1 -17.2 7.1 -17.2 0.0 -17.2 -7.05 -12.15 -12.1 -7.15 -17.1 -0.05 -17.1 7.05 -17.1 12.05 -12.1 Z" fill="none" stroke="#9a7b30" stroke-linecap="square" stroke-linejoin="miter-clip" stroke-miterlimit="3.0" stroke-width="1.0"/>
    <path d="M6.4 -0.55 L6.7 -1.0 7.15 -1.3 7.7 -1.4 8.3 -1.3 8.75 -1.0 9.05 -0.55 9.15 0.0 9.05 0.6 8.75 1.05 8.3 1.35 7.7 1.45 7.15 1.35 6.7 1.05 6.4 0.6 6.3 0.0 6.4 -0.55 M1.35 7.85 L1.25 8.4 0.95 8.85 0.45 9.15 -0.1 9.25 -0.65 9.15 -1.1 8.85 -1.4 8.4 -1.55 7.85 -1.4 7.25 -1.1 6.8 -0.65 6.5 -0.1 6.4 0.45 6.5 0.95 6.8 1.25 7.25 1.35 7.85 M5.25 4.35 L5.2 3.8 5.4 3.25 5.75 2.85 6.25 2.6 6.8 2.55 7.35 2.75 7.8 3.15 8.0 3.6 8.05 4.2 7.85 4.7 7.5 5.15 7.0 5.35 6.45 5.4 5.9 5.25 5.45 4.85 5.25 4.35 M4.15 5.45 L4.6 5.65 5.0 6.1 5.15 6.65 5.1 7.2 4.85 7.7 4.45 8.05 3.9 8.25 3.35 8.2 2.85 7.95 2.5 7.5 2.3 6.95 2.35 6.45 2.6 5.95 3.05 5.55 3.55 5.4 4.15 5.45 M5.25 -3.65 L5.3 -4.2 5.55 -4.65 6.0 -5.05 6.55 -5.2 7.1 -5.2 7.55 -4.9 7.95 -4.5 8.1 -3.95 8.1 -3.4 7.85 -2.9 7.4 -2.55 6.85 -2.35 6.3 -2.4 5.8 -2.65 5.45 -3.1 5.25 -3.65 M-4.9 5.6 Q-4.7 5.4 -4.4 5.35 L-3.85 5.3 -3.3 5.5 -2.9 5.9 -2.65 6.4 -2.65 6.95 -2.8 7.45 -3.2 7.9 -3.7 8.15 -4.25 8.15 -4.8 7.95 -5.2 7.6 -5.45 7.1 -5.5 6.55 -5.3 6.0 -4.9 5.6 M-8.3 4.0 L-8.25 3.45 -8.0 2.95 -7.55 2.6 -7.05 2.4 -6.5 2.45 -6.0 2.7 -5.6 3.15 -5.45 3.7 -5.5 4.25 -5.75 4.7 -6.15 5.1 -6.7 5.25 -7.25 5.25 -7.75 5.0 -8.1 4.55 -8.3 4.0 M-7.35 -1.3 L-6.9 -1.0 -6.6 -0.55 -6.45 0.05 -6.6 0.6 -6.9 1.05 -7.35 1.35 -7.9 1.45 -8.45 1.35 -8.9 1.05 -9.2 0.6 -9.35 0.05 -9.2 -0.55 -8.9 -1.0 -8.45 -1.3 -7.9 -1.4 -7.35 -1.3 M-6.6 -5.35 L-6.05 -5.15 -5.65 -4.8 -5.4 -4.3 -5.4 -3.75 -5.55 -3.2 -5.95 -2.8 Q-6.15 -2.6 -6.45 -2.55 L-7.0 -2.5 -7.55 -2.7 -7.95 -3.1 -8.2 -3.6 -8.25 -4.15 -8.05 -4.65 -7.65 -5.1 -7.15 -5.35 -6.6 -5.35 M4.05 -8.1 L4.6 -7.95 5.0 -7.55 5.25 -7.05 5.3 -6.5 5.1 -5.95 4.75 -5.55 Q4.5 -5.35 4.25 -5.3 L3.7 -5.25 3.15 -5.45 2.7 -5.85 2.5 -6.35 2.45 -6.9 2.65 -7.4 3.0 -7.85 3.5 -8.1 4.05 -8.1 M-3.5 -8.15 L-3.05 -7.9 -2.65 -7.45 -2.5 -6.9 -2.55 -6.4 -2.75 -5.9 -3.2 -5.5 -3.75 -5.35 -4.3 -5.4 Q-4.55 -5.45 -4.8 -5.6 L-5.15 -6.05 -5.35 -6.6 -5.3 -7.15 -5.05 -7.65 -4.6 -8.0 -4.05 -8.2 -3.5 -8.15 M-0.65 -9.1 L-0.1 -9.2 0.45 -9.1 0.9 -8.8 1.2 -8.35 1.35 -7.8 1.2 -7.2 0.9 -6.75 0.45 -6.45 -0.1 -6.35 -0.65 -6.45 -1.1 -6.75 -1.4 -7.2 -1.55 -7.8 -1.4 -8.35 -1.1 -8.8 -0.65 -9.1" fill="#e2b346" fill-rule="evenodd" stroke="none"/>
    <path d="M-0.65 -9.1 L-1.1 -8.8 -1.4 -8.35 -1.55 -7.8 -1.4 -7.2 -1.1 -6.75 -0.65 -6.45 -0.1 -6.35 0.45 -6.45 0.9 -6.75 1.2 -7.2 1.35 -7.8 1.2 -8.35 0.9 -8.8 0.45 -9.1 -0.1 -9.2 -0.65 -9.1 M-3.5 -8.15 L-4.05 -8.2 -4.6 -8.0 -5.05 -7.65 -5.3 -7.15 -5.35 -6.6 -5.15 -6.05 -4.8 -5.6 Q-4.55 -5.45 -4.3 -5.4 L-3.75 -5.35 -3.2 -5.5 -2.75 -5.9 -2.55 -6.4 -2.5 -6.9 -2.65 -7.45 -3.05 -7.9 -3.5 -8.15 M4.05 -8.1 L3.5 -8.1 3.0 -7.85 2.65 -7.4 2.45 -6.9 2.5 -6.35 2.7 -5.85 3.15 -5.45 3.7 -5.25 4.25 -5.3 Q4.5 -5.35 4.75 -5.55 L5.1 -5.95 5.3 -6.5 5.25 -7.05 5.0 -7.55 4.6 -7.95 4.05 -8.1 M-6.6 -5.35 L-7.15 -5.35 -7.65 -5.1 -8.05 -4.65 -8.25 -4.15 -8.2 -3.6 -7.95 -3.1 -7.55 -2.7 -7.0 -2.5 -6.45 -2.55 Q-6.15 -2.6 -5.95 -2.8 L-5.55 -3.2 -5.4 -3.75 -5.4 -4.3 -5.65 -4.8 -6.05 -5.15 -6.6 -5.35 M-7.35 -1.3 L-7.9 -1.4 -8.45 -1.3 -8.9 -1.0 -9.2 -0.55 -9.35 0.05 -9.2 0.6 -8.9 1.05 -8.45 1.35 -7.9 1.45 -7.35 1.35 -6.9 1.05 -6.6 0.6 -6.45 0.05 -6.6 -0.55 -6.9 -1.0 -7.35 -1.3 M-8.3 4.0 L-8.1 4.55 -7.75 5.0 -7.25 5.25 -6.7 5.25 -6.15 5.1 -5.75 4.7 -5.5 4.25 -5.45 3.7 -5.6 3.15 -6.0 2.7 -6.5 2.45 -7.05 2.4 -7.55 2.6 -8.0 2.95 -8.25 3.45 -8.3 4.0 M-4.9 5.6 L-5.3 6.0 -5.5 6.55 -5.45 7.1 -5.2 7.6 -4.8 7.95 -4.25 8.15 -3.7 8.15 -3.2 7.9 -2.8 7.45 -2.65 6.95 -2.65 6.4 -2.9 5.9 -3.3 5.5 -3.85 5.3 -4.4 5.35 Q-4.7 5.4 -4.9 5.6 M5.25 -3.65 L5.45 -3.1 5.8 -2.65 6.3 -2.4 6.85 -2.35 7.4 -2.55 7.85 -2.9 8.1 -3.4 8.1 -3.95 7.95 -4.5 7.55 -4.9 7.1 -5.2 6.55 -5.2 6.0 -5.05 5.55 -4.65 5.3 -4.2 5.25 -3.65 M4.15 5.45 L3.55 5.4 3.05 5.55 2.6 5.95 2.35 6.45 2.3 6.95 2.5 7.5 2.85 7.95 3.35 8.2 3.9 8.25 4.45 8.05 4.85 7.7 5.1 7.2 5.15 6.65 5.0 6.1 4.6 5.65 4.15 5.45 M5.25 4.35 L5.45 4.85 5.9 5.25 6.45 5.4 7.0 5.35 7.5 5.15 7.85 4.7 8.05 4.2 8.0 3.6 7.8 3.15 7.35 2.75 6.8 2.55 6.25 2.6 5.75 2.85 5.4 3.25 5.2 3.8 5.25 4.35 M1.35 7.85 L1.25 7.25 0.95 6.8 0.45 6.5 -0.1 6.4 -0.65 6.5 -1.1 6.8 -1.4 7.25 -1.55 7.85 -1.4 8.4 -1.1 8.85 -0.65 9.15 -0.1 9.25 0.45 9.15 0.95 8.85 1.25 8.4 1.35 7.85 M6.4 -0.55 L6.3 0.0 6.4 0.6 6.7 1.05 7.15 1.35 7.7 1.45 8.3 1.35 8.75 1.05 9.05 0.6 9.15 0.0 9.05 -0.55 8.75 -1.0 8.3 -1.3 7.7 -1.4 7.15 -1.3 6.7 -1.0 6.4 -0.55 Z" fill="none" stroke="#c39d3f" stroke-linecap="butt" stroke-linejoin="miter-clip" stroke-miterlimit="4.0" stroke-width="1.0"/>
    <path d="M6.05 -2.55 Q6.55 -1.35 6.55 0.0 6.55 1.35 6.05 2.6 5.55 3.8 4.65 4.7 3.7 5.65 2.5 6.15 L-0.1 6.65 -2.65 6.15 -4.8 4.7 Q-5.7 3.8 -6.2 2.6 -6.75 1.35 -6.75 0.0 -6.75 -1.35 -6.2 -2.55 -5.7 -3.75 -4.8 -4.7 L-2.65 -6.1 Q-1.45 -6.65 -0.1 -6.65 1.3 -6.65 2.5 -6.1 3.7 -5.6 4.65 -4.7 5.55 -3.75 6.05 -2.55" fill="#e2b346" fill-rule="evenodd" stroke="none"/>
    <path d="M6.05 -2.55 Q5.55 -3.75 4.65 -4.7 3.7 -5.6 2.5 -6.1 1.3 -6.65 -0.1 -6.65 -1.45 -6.65 -2.65 -6.1 L-4.8 -4.7 Q-5.7 -3.75 -6.2 -2.55 -6.75 -1.35 -6.75 0.0 -6.75 1.35 -6.2 2.6 -5.7 3.8 -4.8 4.7 L-2.65 6.15 -0.1 6.65 2.5 6.15 Q3.7 5.65 4.65 4.7 5.55 3.8 6.05 2.6 6.55 1.35 6.55 0.0 6.55 -1.35 6.05 -2.55 Z" fill="none" stroke="#c39d3f" stroke-linecap="butt" stroke-linejoin="miter-clip" stroke-miterlimit="4.0" stroke-width="1.0"/>
    <path d="M16.8 6.85 L15.1 10.05 Q-2.55 1.6 -10.3 -15.35 L-7.1 -17.05 Q-3.75 -18.4 -0.15 -18.4 3.4 -18.35 6.7 -17.05 10.15 -15.7 12.8 -13.05 15.45 -10.4 16.8 -6.95 18.1 -3.65 18.15 -0.1 18.15 3.5 16.8 6.85" fill="url(#gradient0)" fill-rule="evenodd" stroke="none"/>
    <path d="M-22.5 -3.55 L-22.5 3.55 -25.85 3.55 -25.85 -3.55 -22.5 -3.55" fill="#e2b447" fill-rule="evenodd" stroke="none"/>
    <path d="M-22.5 -3.55 L-22.5 3.55 -25.85 3.55 -25.85 -3.55 -22.5 -3.55 Z" fill="none" stroke="#9a7b30" stroke-linecap="square" stroke-linejoin="miter-clip" stroke-miterlimit="3.0" stroke-width="1.0"/>
  </g>
  <defs>
    <linearGradient gradientTransform="matrix(-0.0073, 0.0073, -0.0071, -0.0071, 7.0, -7.25)" gradientUnits="userSpaceOnUse" id="gradient0" spreadMethod="pad" x1="-819.2" x2="819.2">
      <stop offset="0.0" stop-color="#ffffff" stop-opacity="0.3529412"/>
      <stop offset="1.0" stop-color="#ffffff" stop-opacity="0.2"/>
    </linearGradient>
  </defs>
</svg>
