<?xml version="1.0" encoding="UTF-8" standalone="no"?>
<svg xmlns:ffdec="https://www.free-decompiler.com/flash" xmlns:xlink="http://www.w3.org/1999/xlink" ffdec:objectType="shape" height="19.4px" width="163.8px" xmlns="http://www.w3.org/2000/svg">
  <g transform="matrix(1.0, 0.0, 0.0, 1.0, -2.15, 8.1)">
    <path d="M80.55 1.95 Q80.55 1.25 80.2 0.8 L79.4 0.1 78.25 -0.15 77.15 0.1 Q76.65 0.35 76.3 0.85 76.0 1.4 76.0 2.1 76.0 3.1 76.65 3.75 77.25 4.35 78.25 4.35 L79.5 4.05 80.25 3.15 80.55 1.95 M86.4 4.5 L87.55 4.85 88.75 4.55 89.6 3.8 Q89.95 3.3 89.95 2.6 89.95 1.45 89.3 0.7 88.7 0.0 87.55 0.0 86.8 0.0 86.3 0.35 85.8 0.75 85.5 1.3 85.25 1.9 85.25 2.55 85.25 3.2 85.6 3.7 L86.4 4.5 M128.15 5.0 L128.95 4.5 129.45 3.9 129.4 3.1 129.35 2.3 128.0 2.75 Q127.35 3.0 126.95 3.4 126.55 3.8 126.55 4.4 L126.75 5.05 127.35 5.25 128.15 5.0 M161.25 2.6 Q161.25 1.45 160.6 0.7 160.0 0.0 158.85 0.0 158.1 0.0 157.6 0.35 L156.8 1.3 156.55 2.55 Q156.55 3.2 156.9 3.7 L157.7 4.5 158.85 4.85 160.05 4.55 160.9 3.8 Q161.25 3.3 161.25 2.6 M160.0 -3.65 L159.95 -5.45 164.2 -5.65 164.25 -3.85 163.05 -3.8 163.15 -0.9 163.2 2.25 163.25 5.9 164.45 5.9 164.45 7.6 161.25 7.6 161.25 5.5 160.2 6.3 158.6 6.6 Q157.35 6.6 156.45 6.05 155.6 5.5 155.1 4.6 154.65 3.65 154.6 2.5 154.65 1.2 155.2 0.25 155.75 -0.75 156.65 -1.3 157.55 -1.9 158.6 -1.9 159.65 -1.9 160.3 -1.5 L161.25 -0.7 161.2 -2.2 161.15 -3.7 160.0 -3.65 M150.95 -0.4 L149.9 -0.7 Q149.25 -0.7 148.75 -0.25 148.3 0.25 148.2 1.0 L151.45 0.45 150.95 -0.4 M148.15 -1.95 Q149.05 -2.45 150.15 -2.5 L151.9 -2.0 153.05 -0.8 Q153.45 -0.05 153.45 0.8 L153.4 1.2 153.35 1.55 148.45 2.55 148.7 3.3 149.45 3.85 150.4 4.05 Q151.2 4.05 151.75 3.55 L152.55 2.4 153.85 3.35 Q153.35 4.65 152.35 5.3 151.4 5.95 150.1 5.95 149.05 5.95 148.15 5.5 147.25 5.0 146.7 4.1 146.15 3.2 146.15 1.85 146.15 0.55 146.7 -0.45 147.25 -1.4 148.15 -1.95 M133.9 -1.75 L137.05 -1.85 136.95 0.35 136.95 2.8 137.05 5.1 138.25 5.05 138.25 7.0 133.7 7.0 133.7 5.1 135.1 5.1 135.05 3.4 135.0 1.65 135.05 0.0 133.9 0.0 133.9 -1.75 M141.25 -2.5 L141.5 -0.35 141.95 -1.45 142.75 -2.3 Q143.2 -2.65 143.8 -2.65 L144.6 -2.5 145.25 -2.15 144.85 1.1 143.85 1.1 143.6 -0.4 Q143.1 -0.35 142.75 0.05 L142.2 0.95 141.75 2.1 141.95 4.75 143.1 4.7 143.2 6.35 139.1 6.55 139.0 4.9 140.0 4.85 139.7 -0.75 138.85 -0.65 138.8 -2.25 141.25 -2.5 M135.0 -3.15 Q134.7 -3.5 134.7 -4.0 134.7 -4.6 135.0 -4.95 L135.9 -5.25 Q136.45 -5.25 136.75 -4.9 L137.05 -4.05 136.75 -3.2 Q136.5 -2.85 135.95 -2.85 135.35 -2.85 135.0 -3.15 M129.1 -0.7 Q128.8 -1.1 128.3 -1.1 L127.0 -0.8 125.9 0.0 125.05 -1.25 126.5 -2.3 128.4 -2.75 129.85 -2.45 Q130.45 -2.1 130.75 -1.3 131.1 -0.45 131.1 1.15 L131.2 4.0 131.4 5.35 Q131.55 5.7 131.75 5.65 L132.05 5.45 132.25 4.7 133.25 4.7 Q133.2 5.8 132.8 6.45 132.4 7.1 131.55 7.1 130.85 7.1 130.45 6.7 130.0 6.3 129.9 5.7 L129.05 6.5 128.0 6.95 127.0 7.1 Q125.85 7.05 125.2 6.4 124.5 5.7 124.5 4.6 124.5 3.5 125.1 2.7 L126.8 1.4 Q127.9 0.85 129.4 0.45 L129.1 -0.7 M120.65 -0.75 L119.55 -1.0 Q118.45 -1.0 117.8 -0.3 117.15 0.35 117.15 1.45 117.15 2.5 117.8 3.15 118.45 3.8 119.55 3.8 120.6 3.8 121.15 3.1 121.75 2.4 121.75 1.35 L121.45 0.05 120.65 -0.75 M113.75 -1.35 L113.7 -3.25 116.5 -3.25 116.65 -1.45 117.75 -2.4 Q118.55 -2.8 119.5 -2.85 120.75 -2.85 121.7 -2.3 122.65 -1.8 123.2 -0.8 123.7 0.15 123.7 1.55 123.7 2.75 123.25 3.65 L121.9 5.1 Q121.0 5.65 119.75 5.65 L118.2 5.35 Q117.45 5.05 117.05 4.55 L117.1 6.2 117.15 7.3 117.15 8.3 117.15 9.4 118.65 9.35 118.75 11.25 114.0 11.3 113.9 9.5 115.15 9.45 115.15 6.65 115.1 4.2 115.0 1.65 114.9 -1.4 113.75 -1.35 M107.5 -1.95 L109.5 -2.5 111.25 -2.0 112.4 -0.8 Q112.8 -0.05 112.8 0.8 L112.75 1.2 112.7 1.55 107.8 2.55 108.05 3.3 108.8 3.85 109.75 4.05 Q110.55 4.05 111.1 3.55 L111.9 2.4 113.2 3.35 Q112.7 4.65 111.7 5.3 110.75 5.95 109.45 5.95 L107.5 5.5 Q106.6 5.0 106.05 4.1 105.5 3.2 105.5 1.85 105.5 0.55 106.05 -0.45 106.6 -1.4 107.5 -1.95 M109.25 -0.7 Q108.6 -0.7 108.1 -0.25 107.65 0.25 107.55 1.0 L110.8 0.45 110.3 -0.4 109.25 -0.7 M99.05 -0.75 L98.2 -0.65 98.15 -2.25 100.6 -2.5 100.85 -0.35 101.3 -1.45 102.1 -2.3 Q102.55 -2.65 103.15 -2.65 L103.95 -2.5 104.6 -2.15 104.2 1.1 103.2 1.1 102.95 -0.4 Q102.45 -0.35 102.1 0.05 101.75 0.4 101.55 0.95 L101.1 2.1 101.3 4.75 102.45 4.7 102.55 6.35 98.45 6.55 98.35 4.9 99.35 4.85 99.05 -0.75 M88.7 -3.65 L88.65 -5.45 92.9 -5.65 92.95 -3.85 91.75 -3.8 91.85 -0.9 91.9 2.25 91.95 5.9 93.15 5.9 93.15 7.6 89.95 7.6 89.95 5.5 88.9 6.3 87.3 6.6 Q86.05 6.6 85.15 6.05 84.3 5.5 83.8 4.6 83.35 3.65 83.3 2.5 83.35 1.2 83.9 0.25 84.45 -0.75 85.35 -1.3 86.25 -1.9 87.3 -1.9 88.35 -1.9 89.0 -1.5 L89.95 -0.7 89.9 -2.2 89.85 -3.7 88.7 -3.65 M69.05 -1.75 L72.2 -1.85 72.1 0.35 72.1 2.8 72.2 5.1 73.4 5.05 73.4 7.0 68.85 7.0 68.85 5.1 70.25 5.1 70.2 3.4 70.15 1.65 70.2 0.0 69.05 0.0 69.05 -1.75 M74.6 -0.05 Q75.2 -1.0 76.15 -1.5 L78.3 -2.0 Q80.25 -2.0 81.35 -0.9 82.45 0.2 82.5 2.2 82.45 3.5 81.85 4.35 81.3 5.25 80.35 5.7 L78.3 6.15 76.2 5.7 Q75.25 5.3 74.65 4.4 74.05 3.55 74.05 2.2 74.05 0.9 74.6 -0.05 M69.85 -4.0 Q69.85 -4.6 70.15 -4.95 70.5 -5.25 71.05 -5.25 71.6 -5.25 71.9 -4.9 L72.2 -4.05 71.9 -3.2 Q71.65 -2.85 71.1 -2.85 70.5 -2.85 70.15 -3.15 69.85 -3.5 69.85 -4.0 M62.45 -0.75 L61.6 -0.65 61.55 -2.25 64.0 -2.5 64.25 -0.35 64.7 -1.45 65.5 -2.3 Q65.95 -2.65 66.55 -2.65 L67.35 -2.5 68.0 -2.15 67.6 1.1 66.6 1.1 66.35 -0.4 Q65.85 -0.35 65.5 0.05 65.15 0.4 64.95 0.95 L64.5 2.1 64.7 4.75 65.85 4.7 65.95 6.35 61.85 6.55 61.75 4.9 62.75 4.85 62.45 -0.75 M59.0 -2.0 Q59.75 -1.5 60.15 -0.8 60.55 -0.05 60.55 0.8 L60.5 1.2 60.45 1.55 55.55 2.55 55.8 3.3 56.55 3.85 57.5 4.05 Q58.3 4.05 58.85 3.55 L59.65 2.4 60.95 3.35 Q60.45 4.65 59.45 5.3 58.5 5.95 57.2 5.95 L55.25 5.5 Q54.35 5.0 53.8 4.1 53.25 3.2 53.25 1.85 53.25 0.55 53.8 -0.45 54.35 -1.4 55.25 -1.95 L57.25 -2.5 59.0 -2.0 M57.0 -0.7 Q56.35 -0.7 55.85 -0.25 55.4 0.25 55.3 1.0 L58.55 0.45 58.05 -0.4 57.0 -0.7 M49.35 -0.75 L48.25 -1.0 Q47.15 -1.0 46.5 -0.3 45.85 0.35 45.85 1.45 45.85 2.5 46.5 3.15 47.15 3.8 48.25 3.8 49.3 3.8 49.85 3.1 50.45 2.4 50.45 1.35 50.45 0.55 50.15 0.05 L49.35 -0.75 M45.2 -3.25 L45.35 -1.45 46.45 -2.4 48.2 -2.85 Q49.45 -2.85 50.4 -2.3 51.35 -1.8 51.9 -0.8 52.4 0.15 52.4 1.55 52.4 2.75 51.95 3.65 51.45 4.6 50.6 5.1 49.7 5.65 48.45 5.65 L46.9 5.35 Q46.15 5.05 45.75 4.55 L45.8 6.2 45.85 7.3 45.85 8.3 45.85 9.4 47.35 9.35 47.45 11.25 42.7 11.3 42.6 9.5 43.85 9.45 43.85 6.65 43.8 4.2 43.7 1.65 43.6 -1.4 42.45 -1.35 42.4 -3.25 45.2 -3.25 M34.45 -0.4 L33.4 -0.7 Q32.75 -0.7 32.25 -0.25 31.8 0.25 31.7 1.0 L34.95 0.45 34.45 -0.4 M31.65 -1.95 L33.65 -2.5 Q34.65 -2.45 35.4 -2.0 L36.55 -0.8 Q36.95 -0.05 36.95 0.8 L36.9 1.2 36.85 1.55 31.95 2.55 32.2 3.3 32.95 3.85 33.9 4.05 Q34.7 4.05 35.25 3.55 L36.05 2.4 37.35 3.35 Q36.85 4.65 35.85 5.3 34.9 5.95 33.6 5.95 L31.65 5.5 Q30.75 5.0 30.2 4.1 29.65 3.2 29.65 1.85 29.65 0.55 30.2 -0.45 30.75 -1.4 31.65 -1.95 M18.3 -1.35 L19.1 -2.2 20.35 -2.5 21.15 -2.35 21.95 -1.95 22.45 -1.35 23.4 -2.25 24.8 -2.6 Q26.2 -2.6 26.95 -2.0 27.7 -1.35 28.0 -0.35 L28.25 2.0 28.2 3.45 28.0 5.0 29.05 5.0 28.9 6.9 25.0 6.75 25.15 4.8 26.0 4.85 26.2 3.4 26.3 2.2 26.1 0.5 25.6 -0.35 24.85 -0.6 Q24.05 -0.6 23.7 -0.05 23.35 0.45 23.3 1.4 23.2 2.3 23.25 3.5 L23.25 5.15 24.4 5.15 24.4 7.1 20.35 7.0 20.35 5.05 21.3 5.1 21.35 3.5 21.35 2.0 Q21.4 0.6 21.1 0.0 20.8 -0.6 20.1 -0.6 L19.15 -0.25 18.6 0.5 18.45 1.1 18.45 1.75 18.45 3.2 18.4 5.0 19.5 5.0 19.5 6.85 15.25 6.85 15.25 5.0 16.4 5.0 16.4 2.1 16.35 -0.85 15.3 -0.85 15.3 -2.6 18.3 -2.55 18.3 -1.35 M10.35 -1.75 L13.5 -1.85 13.4 0.35 13.4 2.8 13.5 5.1 14.7 5.05 14.7 7.0 10.15 7.0 10.15 5.1 11.55 5.1 11.5 3.4 11.45 1.65 11.5 0.0 10.35 0.0 10.35 -1.75 M13.2 -4.9 L13.5 -4.05 13.2 -3.2 Q12.95 -2.85 12.4 -2.85 11.8 -2.85 11.45 -3.15 11.15 -3.5 11.15 -4.0 11.15 -4.6 11.45 -4.95 L12.35 -5.25 13.2 -4.9 M3.9 -0.95 L2.15 -1.05 2.3 -2.85 4.15 -2.95 4.9 -6.35 6.55 -6.3 6.15 -2.9 9.25 -2.9 9.25 -0.9 5.9 -0.9 5.7 0.5 5.55 1.85 5.5 3.5 Q5.5 4.35 5.8 4.9 6.05 5.5 6.6 5.5 L7.35 5.2 7.8 4.5 7.95 3.75 9.55 3.75 Q9.55 4.85 9.15 5.65 L8.05 6.85 6.5 7.25 Q5.35 7.2 4.7 6.7 4.05 6.15 3.8 5.25 3.55 4.4 3.55 3.4 L3.6 2.0 3.75 0.45 3.9 -0.95" fill="#000000" fill-opacity="0.2509804" fill-rule="evenodd" stroke="none"/>
    <path d="M130.95 2.15 L130.9 1.35 130.85 0.55 129.5 1.0 Q128.85 1.25 128.45 1.65 128.05 2.05 128.05 2.65 L128.25 3.3 128.85 3.5 129.65 3.25 130.45 2.75 130.95 2.15 M160.1 -3.65 Q161.15 -3.65 161.8 -3.25 L162.75 -2.45 162.7 -3.95 162.65 -5.45 161.5 -5.4 161.45 -7.2 165.7 -7.4 165.75 -5.6 164.55 -5.55 164.65 -2.65 164.7 0.5 164.75 4.15 165.95 4.15 165.95 5.85 162.75 5.85 162.75 3.75 161.7 4.55 160.1 4.85 Q158.85 4.85 157.95 4.3 157.1 3.75 156.6 2.85 156.15 1.9 156.1 0.75 156.15 -0.55 156.7 -1.5 157.25 -2.5 158.15 -3.05 159.05 -3.65 160.1 -3.65 M160.35 -1.75 Q159.6 -1.75 159.1 -1.4 L158.3 -0.45 158.05 0.8 Q158.05 1.45 158.4 1.95 L159.2 2.75 160.35 3.1 161.55 2.8 162.4 2.05 Q162.75 1.55 162.75 0.85 162.75 -0.3 162.1 -1.05 161.5 -1.75 160.35 -1.75 M149.65 -3.7 Q150.55 -4.2 151.65 -4.25 L153.4 -3.75 154.55 -2.55 Q154.95 -1.8 154.95 -0.95 L154.9 -0.55 154.85 -0.2 149.95 0.8 150.2 1.55 150.95 2.1 151.9 2.3 Q152.7 2.3 153.25 1.8 L154.05 0.65 155.35 1.6 Q154.85 2.9 153.85 3.55 152.9 4.2 151.6 4.2 150.55 4.2 149.65 3.75 148.75 3.25 148.2 2.35 147.65 1.45 147.65 0.1 147.65 -1.2 148.2 -2.2 148.75 -3.15 149.65 -3.7 M150.25 -2.0 Q149.8 -1.5 149.7 -0.75 L152.95 -1.3 152.45 -2.15 151.4 -2.45 Q150.75 -2.45 150.25 -2.0 M140.35 -2.4 L140.3 -4.0 142.75 -4.25 143.0 -2.1 143.45 -3.2 144.25 -4.05 Q144.7 -4.4 145.3 -4.4 L146.1 -4.25 146.75 -3.9 146.35 -0.65 145.35 -0.65 145.1 -2.15 Q144.6 -2.1 144.25 -1.7 143.9 -1.35 143.7 -0.8 L143.25 0.35 143.45 3.0 144.6 2.95 144.7 4.6 140.6 4.8 140.5 3.15 141.5 3.1 141.2 -2.5 140.35 -2.4 M135.4 -1.75 L135.4 -3.5 138.55 -3.6 138.45 -1.4 138.45 1.05 138.55 3.35 139.75 3.3 139.75 5.25 135.2 5.25 135.2 3.35 136.6 3.35 136.55 1.65 136.5 -0.1 136.55 -1.75 135.4 -1.75 M137.4 -7.0 L138.25 -6.65 138.55 -5.8 138.25 -4.95 Q138.0 -4.6 137.45 -4.6 136.85 -4.6 136.5 -4.9 136.2 -5.25 136.2 -5.75 136.2 -6.35 136.5 -6.7 L137.4 -7.0 M130.6 -2.45 Q130.3 -2.85 129.8 -2.85 L128.5 -2.55 Q127.9 -2.25 127.4 -1.75 L126.55 -3.0 Q127.15 -3.65 128.0 -4.05 L129.9 -4.5 131.35 -4.2 132.25 -3.05 Q132.6 -2.2 132.6 -0.6 L132.7 2.25 132.9 3.6 133.25 3.9 133.55 3.7 133.75 2.95 134.75 2.95 Q134.7 4.05 134.3 4.7 133.9 5.35 133.05 5.35 132.35 5.35 131.95 4.95 131.5 4.55 131.4 3.95 L130.55 4.75 129.5 5.2 128.5 5.35 Q127.35 5.3 126.7 4.65 126.0 3.95 126.0 2.85 126.0 1.75 126.6 0.95 127.2 0.2 128.3 -0.35 L130.9 -1.3 130.6 -2.45 M121.05 -2.75 Q119.95 -2.75 119.3 -2.05 118.65 -1.4 118.65 -0.3 118.65 0.75 119.3 1.4 119.95 2.05 121.05 2.05 122.1 2.05 122.65 1.35 123.25 0.65 123.25 -0.4 L122.95 -1.7 122.15 -2.5 121.05 -2.75 M116.4 -3.15 L115.25 -3.1 115.2 -5.0 118.0 -5.0 118.15 -3.2 119.25 -4.15 121.0 -4.6 Q122.25 -4.6 123.2 -4.05 124.15 -3.55 124.7 -2.55 125.2 -1.6 125.2 -0.2 125.2 1.0 124.75 1.9 L123.4 3.35 Q122.5 3.9 121.25 3.9 L119.7 3.6 Q118.95 3.3 118.55 2.8 L118.6 4.45 118.65 5.55 118.65 6.55 118.65 7.65 120.15 7.6 120.25 9.5 115.5 9.55 115.4 7.75 116.65 7.7 116.65 4.9 116.6 2.45 116.5 -0.1 116.4 -3.15 M109.0 -3.7 L111.0 -4.25 Q112.0 -4.2 112.75 -3.75 113.5 -3.25 113.9 -2.55 114.3 -1.8 114.3 -0.95 L114.25 -0.55 114.2 -0.2 109.3 0.8 109.55 1.55 110.3 2.1 111.25 2.3 Q112.05 2.3 112.6 1.8 L113.4 0.65 114.7 1.6 Q114.2 2.9 113.2 3.55 112.25 4.2 110.95 4.2 L109.0 3.75 Q108.1 3.25 107.55 2.35 107.0 1.45 107.0 0.1 107.0 -1.2 107.55 -2.2 108.1 -3.15 109.0 -3.7 M109.6 -2.0 Q109.15 -1.5 109.05 -0.75 L112.3 -1.3 111.8 -2.15 110.75 -2.45 Q110.1 -2.45 109.6 -2.0 M99.7 -2.4 L99.65 -4.0 102.1 -4.25 102.35 -2.1 102.8 -3.2 103.6 -4.05 Q104.05 -4.4 104.65 -4.4 L105.45 -4.25 106.1 -3.9 105.7 -0.65 104.7 -0.65 104.45 -2.15 Q103.95 -2.1 103.6 -1.7 103.25 -1.35 103.05 -0.8 L102.6 0.35 102.8 3.0 103.95 2.95 104.05 4.6 99.95 4.8 99.85 3.15 100.85 3.1 100.55 -2.5 99.7 -2.4 M88.8 -3.65 L90.5 -3.25 91.45 -2.45 91.4 -3.95 91.35 -5.45 90.2 -5.4 90.15 -7.2 94.4 -7.4 94.45 -5.6 93.25 -5.55 93.35 -2.65 93.4 0.5 93.45 4.15 94.65 4.15 94.65 5.85 91.45 5.85 91.45 3.75 Q91.1 4.25 90.4 4.55 L88.8 4.85 Q87.55 4.85 86.65 4.3 85.8 3.75 85.3 2.85 84.85 1.9 84.8 0.75 84.85 -0.55 85.4 -1.5 85.95 -2.5 86.85 -3.05 87.75 -3.65 88.8 -3.65 M87.8 -1.4 L87.0 -0.45 Q86.75 0.15 86.75 0.8 86.75 1.45 87.1 1.95 L87.9 2.75 89.05 3.1 90.25 2.8 91.1 2.05 Q91.45 1.55 91.45 0.85 91.45 -0.3 90.8 -1.05 90.2 -1.75 89.05 -1.75 88.3 -1.75 87.8 -1.4 M77.65 -3.25 Q78.6 -3.75 79.8 -3.75 81.75 -3.75 82.85 -2.65 83.95 -1.55 84.0 0.45 83.95 1.75 83.35 2.6 82.8 3.5 81.85 3.95 L79.8 4.4 77.7 3.95 Q76.75 3.55 76.15 2.65 75.55 1.8 75.55 0.45 75.55 -0.85 76.1 -1.8 76.7 -2.75 77.65 -3.25 M78.65 -1.65 Q78.15 -1.4 77.8 -0.9 77.5 -0.35 77.5 0.35 77.5 1.35 78.15 2.0 78.75 2.6 79.75 2.6 L81.0 2.3 81.75 1.4 82.05 0.2 81.7 -0.95 80.9 -1.65 79.75 -1.9 78.65 -1.65 M72.55 -7.0 Q73.1 -7.0 73.4 -6.65 L73.7 -5.8 73.4 -4.95 Q73.15 -4.6 72.6 -4.6 72.0 -4.6 71.65 -4.9 71.35 -5.25 71.35 -5.75 71.35 -6.35 71.65 -6.7 72.0 -7.0 72.55 -7.0 M70.55 -1.75 L70.55 -3.5 73.7 -3.6 73.6 -1.4 73.6 1.05 73.7 3.35 74.9 3.3 74.9 5.25 70.35 5.25 70.35 3.35 71.75 3.35 71.7 1.65 71.65 -0.1 71.7 -1.75 70.55 -1.75 M63.1 -2.4 L63.05 -4.0 65.5 -4.25 65.75 -2.1 66.2 -3.2 67.0 -4.05 Q67.45 -4.4 68.05 -4.4 L68.85 -4.25 69.5 -3.9 69.1 -0.65 68.1 -0.65 67.85 -2.15 Q67.35 -2.1 67.0 -1.7 66.65 -1.35 66.45 -0.8 L66.0 0.35 66.2 3.0 67.35 2.95 67.45 4.6 63.35 4.8 63.25 3.15 64.25 3.1 63.95 -2.5 63.1 -2.4 M59.55 -2.15 L58.5 -2.45 Q57.85 -2.45 57.35 -2.0 56.9 -1.5 56.8 -0.75 L60.05 -1.3 59.55 -2.15 M56.75 -3.7 L58.75 -4.25 60.5 -3.75 61.65 -2.55 Q62.05 -1.8 62.05 -0.95 L62.0 -0.55 61.95 -0.2 57.05 0.8 57.3 1.55 58.05 2.1 59.0 2.3 Q59.8 2.3 60.35 1.8 L61.15 0.65 62.45 1.6 Q61.95 2.9 60.95 3.55 60.0 4.2 58.7 4.2 L56.75 3.75 Q55.85 3.25 55.3 2.35 54.75 1.45 54.75 0.1 54.75 -1.2 55.3 -2.2 55.85 -3.15 56.75 -3.7 M49.75 -2.75 Q48.65 -2.75 48.0 -2.05 47.35 -1.4 47.35 -0.3 47.35 0.75 48.0 1.4 48.65 2.05 49.75 2.05 50.8 2.05 51.35 1.35 51.95 0.65 51.95 -0.4 L51.65 -1.7 50.85 -2.5 49.75 -2.75 M43.95 -3.1 L43.9 -5.0 46.7 -5.0 46.85 -3.2 Q47.2 -3.75 47.95 -4.15 48.75 -4.55 49.7 -4.6 50.95 -4.6 51.9 -4.05 52.85 -3.55 53.4 -2.55 53.9 -1.6 53.9 -0.2 53.9 1.0 53.45 1.9 52.95 2.85 52.1 3.35 51.2 3.9 49.95 3.9 L48.4 3.6 Q47.65 3.3 47.25 2.8 L47.3 4.45 47.35 5.55 47.35 6.55 47.35 7.65 48.85 7.6 48.95 9.5 44.2 9.55 44.1 7.75 45.35 7.7 45.35 4.9 45.3 2.45 45.2 -0.1 45.1 -3.15 43.95 -3.1 M34.9 -2.45 Q34.25 -2.45 33.75 -2.0 33.3 -1.5 33.2 -0.75 L36.45 -1.3 35.95 -2.15 34.9 -2.45 M31.7 -2.2 Q32.25 -3.15 33.15 -3.7 L35.15 -4.25 36.9 -3.75 38.05 -2.55 Q38.45 -1.8 38.45 -0.95 L38.4 -0.55 38.35 -0.2 33.45 0.8 33.7 1.55 Q34.0 1.9 34.45 2.1 L35.4 2.3 Q36.2 2.3 36.75 1.8 L37.55 0.65 38.85 1.6 Q38.35 2.9 37.35 3.55 36.4 4.2 35.1 4.2 L33.15 3.75 Q32.25 3.25 31.7 2.35 31.15 1.45 31.15 0.1 31.15 -1.2 31.7 -2.2 M19.8 -4.3 L19.8 -3.1 20.6 -3.95 21.85 -4.25 22.65 -4.1 23.45 -3.7 23.95 -3.1 24.9 -4.0 26.3 -4.35 Q27.7 -4.35 28.45 -3.75 29.2 -3.1 29.5 -2.1 L29.75 0.25 29.7 1.7 29.5 3.25 30.55 3.25 30.4 5.15 26.5 5.0 26.65 3.05 27.5 3.1 27.7 1.65 27.8 0.45 27.6 -1.25 Q27.45 -1.85 27.1 -2.1 L26.35 -2.35 Q25.55 -2.35 25.2 -1.8 24.85 -1.3 24.8 -0.35 24.7 0.55 24.75 1.75 L24.75 3.4 25.9 3.4 25.9 5.35 21.85 5.25 21.85 3.3 22.8 3.35 22.85 1.75 22.85 0.25 Q22.9 -1.15 22.6 -1.75 22.3 -2.35 21.6 -2.35 L20.65 -2.0 20.1 -1.25 19.95 -0.65 19.95 0.0 19.95 1.45 19.9 3.25 21.0 3.25 21.0 5.1 16.75 5.1 16.75 3.25 17.9 3.25 17.9 0.35 17.85 -2.6 16.8 -2.6 16.8 -4.35 19.8 -4.3 M12.95 -0.1 L13.0 -1.75 11.85 -1.75 11.85 -3.5 15.0 -3.6 14.9 -1.4 14.9 1.05 15.0 3.35 16.2 3.3 16.2 5.25 11.65 5.25 11.65 3.35 13.05 3.35 13.0 1.65 12.95 -0.1 M13.85 -7.0 L14.7 -6.65 15.0 -5.8 14.7 -4.95 Q14.45 -4.6 13.9 -4.6 13.3 -4.6 12.95 -4.9 12.65 -5.25 12.65 -5.75 12.65 -6.35 12.95 -6.7 L13.85 -7.0 M5.25 -1.3 L5.4 -2.7 3.65 -2.8 3.8 -4.6 5.65 -4.7 6.4 -8.1 8.05 -8.05 7.65 -4.65 10.75 -4.65 10.75 -2.65 7.4 -2.65 7.2 -1.25 7.05 0.1 7.0 1.75 Q7.0 2.6 7.3 3.15 7.55 3.75 8.1 3.75 L8.85 3.45 9.3 2.75 9.45 2.0 11.05 2.0 Q11.05 3.1 10.65 3.9 L9.55 5.1 Q8.85 5.5 8.0 5.5 6.85 5.45 6.2 4.95 5.55 4.4 5.3 3.5 5.05 2.65 5.05 1.65 L5.1 0.25 5.25 -1.3" fill="#ffffff" fill-rule="evenodd" stroke="none"/>
  </g>
</svg>
