<?xml version="1.0" encoding="UTF-8" standalone="no"?>
<svg xmlns:ffdec="https://www.free-decompiler.com/flash" xmlns:xlink="http://www.w3.org/1999/xlink" ffdec:objectType="shape" height="42.4px" width="68.0px" xmlns="http://www.w3.org/2000/svg">
  <g transform="matrix(1.0, 0.0, 0.0, 1.0, 35.0, 22.15)">
    <path d="M15.5 -20.15 L16.1 -20.65 29.65 -20.65 31.5 -17.3 31.5 -5.7 30.5 -4.95 30.8 -1.9 31.5 -1.5 31.5 18.75 23.95 18.75 23.65 18.2 23.3 18.1 22.65 18.75 4.25 18.75 3.05 18.25 1.95 18.15 0.8 18.75 -16.5 18.75 -17.05 18.15 -17.95 18.15 -17.7 18.75 -30.3 18.75 -33.5 17.1 -33.5 2.9 -32.6 3.2 -32.75 1.3 -33.5 0.45 -33.5 -13.0 -32.65 -13.4 -32.5 -16.8 -33.5 -17.75 -33.5 -20.65 -23.4 -20.65 -23.05 -19.95 -22.5 -19.4 -22.3 -20.65 11.8 -20.65 12.4 -20.15 15.5 -20.15" fill="#4797c7" fill-rule="evenodd" stroke="none"/>
    <path d="M15.5 -20.15 L16.1 -20.65 29.65 -20.65 31.5 -17.3 31.5 -5.7 30.5 -4.95 30.8 -1.9 31.5 -1.5 31.5 18.75 23.95 18.75 23.65 18.2 23.3 18.1 22.65 18.75 4.25 18.75 3.05 18.25 1.95 18.15 0.8 18.75 -16.5 18.75 -17.05 18.15 -17.95 18.15 -17.7 18.75 -30.3 18.75 -33.5 17.1 -33.5 2.9 -32.6 3.2 -32.75 1.3 -33.5 0.45 -33.5 -13.0 -32.65 -13.4 -32.5 -16.8 -33.5 -17.75 -33.5 -20.65 -23.4 -20.65 -23.05 -19.95 -22.5 -19.4 -22.3 -20.65 11.8 -20.65 12.4 -20.15 15.5 -20.15 Z" fill="none" stroke="#1d485a" stroke-linecap="round" stroke-linejoin="round" stroke-width="3.0"/>
  </g>
</svg>
