<?xml version="1.0" encoding="UTF-8" standalone="no"?>
<svg xmlns:ffdec="https://www.free-decompiler.com/flash" xmlns:xlink="http://www.w3.org/1999/xlink" ffdec:objectType="shape" height="40.4px" width="66.0px" xmlns="http://www.w3.org/2000/svg">
  <g transform="matrix(1.0, 0.0, 0.0, 1.0, 34.0, 21.15)">
    <path d="M12.4 -20.15 L15.5 -20.15 16.1 -20.65 29.65 -20.65 31.5 -17.3 31.5 -5.7 30.5 -4.95 30.8 -1.9 31.5 -1.5 31.5 18.75 23.95 18.75 23.65 18.2 23.3 18.1 22.65 18.75 4.25 18.75 3.05 18.25 1.95 18.15 0.8 18.75 -16.5 18.75 -17.05 18.15 -17.95 18.15 -17.7 18.75 -30.3 18.75 -33.5 17.1 -33.5 2.9 -32.6 3.2 -32.75 1.3 -33.5 0.45 -33.5 -13.0 -32.65 -13.4 -32.5 -16.8 -33.5 -17.75 -33.5 -20.65 -23.4 -20.65 -23.05 -19.95 -22.5 -19.4 -22.3 -20.65 11.8 -20.65 12.4 -20.15" fill="#4797c7" fill-rule="evenodd" stroke="none"/>
    <path d="M12.4 -20.15 L15.5 -20.15 16.1 -20.65 29.65 -20.65 31.5 -17.3 31.5 -5.7 30.5 -4.95 30.8 -1.9 31.5 -1.5 31.5 18.75 23.95 18.75 23.65 18.2 23.3 18.1 22.65 18.75 4.25 18.75 3.05 18.25 1.95 18.15 0.8 18.75 -16.5 18.75 -17.05 18.15 -17.95 18.15 -17.7 18.75 -30.3 18.75 -33.5 17.1 -33.5 2.9 -32.6 3.2 -32.75 1.3 -33.5 0.45 -33.5 -13.0 -32.65 -13.4 -32.5 -16.8 -33.5 -17.75 -33.5 -20.65 -23.4 -20.65 -23.05 -19.95 -22.5 -19.4 -22.3 -20.65 11.8 -20.65 12.4 -20.15 Z" fill="none" stroke="#1d485a" stroke-linecap="round" stroke-linejoin="round" stroke-width="1.0"/>
    <path d="M30.75 -17.9 L30.75 -5.55 M15.7 -20.05 L29.5 -20.05 M-32.75 -17.2 L-32.75 -20.05 -23.2 -20.05 M-32.75 0.4 L-32.75 -13.25 M-18.05 18.1 L-30.7 18.1 M30.75 -2.05 L30.75 18.1 23.65 18.1 M22.65 18.1 L3.05 18.1 M-32.75 16.55 L-32.75 3.25 M0.8 18.1 L-16.7 18.1 M-22.05 -20.05 L12.6 -20.05" fill="none" stroke="#ffffff" stroke-linecap="round" stroke-linejoin="round" stroke-opacity="0.34901962" stroke-width="1.0"/>
    <path d="M-16.65 -15.9 L14.65 -15.9" fill="none" stroke="#ffffff" stroke-linecap="round" stroke-linejoin="miter-clip" stroke-miterlimit="3.0" stroke-opacity="0.34901962" stroke-width="1.0"/>
    <path d="M1.9 -11.05 L-3.9 -11.05 -3.9 -13.0 3.85 -13.0 3.85 -7.25 9.65 -7.25 9.65 -3.35 11.6 -3.35 11.6 -7.25 25.15 -7.25 25.15 -5.3 19.35 -5.3 19.35 -1.4 27.1 -1.4 27.1 0.5 19.35 0.5 19.35 2.45 25.15 2.45 25.15 8.25 15.45 8.25 15.45 12.15 21.25 12.15 21.25 14.1 13.5 14.1 13.5 6.35 23.2 6.35 23.2 4.4 11.6 4.4 11.6 -1.4 7.7 -1.4 7.7 8.25 -0.05 8.25 -0.05 4.4 -3.9 4.4 -3.9 8.25 -15.55 8.25 -15.55 6.35 -5.85 6.35 -5.85 4.4 -25.25 4.4 -25.25 -3.35 -27.15 -3.35 -27.15 6.35 -17.5 6.35 -17.5 12.15 -13.6 12.15 -13.6 14.1 -19.4 14.1 -19.4 8.25 -29.1 8.25 -29.1 -5.3 -23.3 -5.3 -23.3 2.45 -21.35 2.45 -21.35 -7.25 1.9 -7.25 1.9 -11.05 M7.7 -5.3 L-2.0 -5.3 -2.0 -1.4 3.85 -1.4 3.85 0.5 -2.0 0.5 -2.0 2.45 5.75 2.45 5.75 -3.35 7.7 -3.35 7.7 -5.3 M13.5 -5.3 L13.5 2.45 17.4 2.45 17.4 -5.3 13.5 -5.3 M-2.3 -12.65 L-3.6 -12.65 -3.6 -11.35 -2.3 -11.35 -2.3 -12.65 M26.75 -1.1 L25.45 -1.1 25.45 0.2 26.75 0.2 26.75 -1.1 M-13.6 -1.4 L-9.75 -1.4 -9.75 -5.3 -19.4 -5.3 -19.4 2.45 -9.75 2.45 -9.75 0.5 -15.55 0.5 -15.55 -1.4 -17.5 -1.4 -17.5 -3.35 -13.6 -3.35 -13.6 -1.4 M-3.9 -5.3 L-7.8 -5.3 -7.8 -1.4 -3.9 -1.4 -3.9 -5.3 M-3.9 0.5 L-7.8 0.5 -7.8 2.45 -3.9 2.45 -3.9 0.5 M20.95 13.75 L20.95 12.5 19.65 12.5 19.65 13.75 20.95 13.75 M-15.25 12.45 L-15.25 13.75 -13.95 13.75 -13.95 12.45 -15.25 12.45 M1.9 6.35 L5.75 6.35 5.75 4.4 1.9 4.4 1.9 6.35" fill="#ffffff" fill-opacity="0.34901962" fill-rule="evenodd" stroke="none"/>
  </g>
</svg>
