<?xml version="1.0" encoding="UTF-8" standalone="no"?>
<svg xmlns:ffdec="https://www.free-decompiler.com/flash" xmlns:xlink="http://www.w3.org/1999/xlink" ffdec:objectType="shape" height="63.25px" width="42.2px" xmlns="http://www.w3.org/2000/svg">
  <g transform="matrix(1.0, 0.0, 0.0, 1.0, 20.65, 31.6)">
    <path d="M9.3 -24.95 L9.15 -23.75 9.25 -23.7 Q12.95 -20.6 12.6 -16.7 12.2 -12.85 8.05 -10.5 3.9 -8.15 -1.65 -8.65 -7.15 -9.15 -10.8 -12.25 -14.5 -15.3 -14.1 -19.15 -13.8 -22.35 -10.95 -24.5 L-11.05 -25.3 Q-11.05 -26.85 -10.0 -28.0 -8.95 -29.1 -7.55 -29.1 -6.1 -29.1 -5.1 -28.0 L-4.5 -27.15 -1.15 -27.35 -0.2 -28.6 Q1.5 -30.1 3.75 -30.1 6.05 -30.1 7.65 -28.6 9.3 -27.05 9.3 -24.95 M15.35 -14.55 Q16.4 -14.65 17.15 -14.05 18.0 -13.35 18.1 -12.3 18.25 -11.3 17.55 -10.55 16.95 -9.7 15.9 -9.6 15.15 -9.5 14.5 -9.85 12.25 -7.3 9.7 -5.3 L11.85 -2.95 Q16.95 3.45 19.2 15.2 15.1 13.75 8.35 14.6 L7.15 14.75 9.55 22.75 9.7 22.7 Q10.5 22.6 11.2 23.65 11.9 24.7 12.1 26.25 12.25 27.75 11.8 28.9 11.35 30.05 10.55 30.15 9.75 30.25 9.1 29.2 8.4 28.2 8.25 26.7 8.05 25.15 8.5 23.95 L8.7 23.55 6.1 14.8 Q1.75 14.9 -1.35 13.0 L-1.0 9.8 Q-2.1 9.4 -3.1 8.7 L-3.6 8.3 Q-6.55 10.45 -6.3 12.4 -5.9 14.35 -2.3 16.25 -1.95 15.7 -1.4 15.65 -0.6 15.55 0.1 16.6 0.8 17.65 1.0 19.2 1.15 20.7 0.7 21.85 0.25 23.0 -0.55 23.1 -1.35 23.2 -2.0 22.15 -2.7 21.15 -2.85 19.65 -3.05 18.25 -2.7 17.2 -6.9 15.0 -7.25 12.55 -7.75 10.1 -4.35 7.6 -6.05 5.75 -6.25 2.8 -6.5 -0.1 -5.65 -2.55 -12.3 -6.0 -15.2 -9.25 -15.7 -8.85 -16.4 -8.8 -17.45 -8.65 -18.25 -9.35 -19.0 -9.95 -19.15 -10.95 -19.25 -12.0 -18.65 -12.85 -18.0 -13.6 -16.95 -13.75 -15.9 -13.85 -15.15 -13.25 -14.3 -12.55 -14.2 -11.5 -14.05 -10.65 -14.55 -10.0 -11.75 -6.9 -5.3 -3.5 L-5.0 -4.15 Q-3.55 -7.2 -0.75 -7.9 1.25 -8.4 3.2 -7.45 L3.35 -7.5 Q6.0 -8.25 8.9 -5.95 11.5 -7.95 13.75 -10.45 13.25 -11.0 13.15 -11.75 13.05 -12.8 13.65 -13.65 14.3 -14.4 15.35 -14.55 Z" fill="none" stroke="#234a70" stroke-linecap="round" stroke-linejoin="miter-clip" stroke-miterlimit="3.0" stroke-width="3.0"/>
    <path d="M11.85 -2.95 Q16.95 3.45 19.2 15.2 15.1 13.75 8.35 14.6 2.55 15.4 -1.35 13.0 -0.2 4.3 -1.85 -5.6 L3.35 -7.5 Q7.3 -8.65 11.85 -2.95" fill="#0383d7" fill-rule="evenodd" stroke="none"/>
    <path d="M-5.0 -4.15 Q-3.55 -7.2 -0.75 -7.9 2.0 -8.6 4.7 -6.5 7.4 -4.35 8.45 -0.5 9.4 3.4 7.9 6.4 6.4 9.5 3.1 10.1 -0.25 10.65 -3.1 8.7 -6.0 6.7 -6.25 2.8 -6.6 -1.1 -5.0 -4.15" fill="#139ffd" fill-rule="evenodd" stroke="none"/>
    <path d="M11.95 -14.35 Q11.4 -13.2 10.4 -12.2 L8.05 -10.5 Q5.95 -9.3 3.45 -8.85 L2.9 -8.75 -1.65 -8.65 -2.3 -8.7 Q-7.35 -9.35 -10.8 -12.25 -14.5 -15.3 -14.1 -19.15 -13.75 -22.75 -10.15 -25.1 L-9.6 -25.45 Q-5.4 -27.8 0.1 -27.3 5.65 -26.8 9.25 -23.7 12.95 -20.6 12.6 -16.7 12.45 -15.45 11.95 -14.35" fill="#139ffd" fill-rule="evenodd" stroke="none"/>
    <path d="M-4.65 -2.15 L-5.0 -2.2 Q-12.95 -6.25 -15.85 -10.0 L-15.95 -10.35 -15.75 -10.7 -15.4 -10.8 -15.05 -10.6 Q-12.25 -7.05 -4.55 -3.1 L-4.3 -2.8 Q-4.25 -2.6 -4.35 -2.4 L-4.65 -2.15" fill="#139ffd" fill-rule="evenodd" stroke="none"/>
    <path d="M-14.75 -9.75 Q-15.35 -8.9 -16.4 -8.8 -17.45 -8.65 -18.25 -9.35 -19.0 -9.95 -19.15 -10.95 -19.25 -12.0 -18.65 -12.85 -18.0 -13.6 -16.95 -13.75 -15.9 -13.85 -15.15 -13.25 -14.3 -12.55 -14.2 -11.5 -14.05 -10.5 -14.75 -9.75" fill="#139ffd" fill-rule="evenodd" stroke="none"/>
    <path d="M14.05 -10.15 Q13.3 -10.75 13.15 -11.75 13.05 -12.8 13.65 -13.65 14.3 -14.4 15.35 -14.55 16.4 -14.65 17.15 -14.05 18.0 -13.35 18.1 -12.3 18.25 -11.3 17.55 -10.55 16.95 -9.7 15.9 -9.6 14.85 -9.45 14.05 -10.15" fill="#139ffd" fill-rule="evenodd" stroke="none"/>
    <path d="M4.25 8.45 Q4.15 8.3 4.3 8.1 L4.5 7.8 4.95 7.9 5.15 8.15 9.7 23.3 9.65 23.7 9.35 23.95 9.0 23.9 8.7 23.6 4.25 8.45" fill="#139ffd" fill-rule="evenodd" stroke="none"/>
    <path d="M-3.5 7.15 L-3.2 7.4 -3.1 7.75 -3.3 8.05 Q-6.55 10.35 -6.3 12.4 -5.9 14.5 -1.8 16.5 L-1.55 16.8 Q-1.5 17.0 -1.6 17.2 L-1.9 17.45 -2.25 17.4 Q-6.9 15.1 -7.25 12.55 -7.8 9.95 -3.85 7.25 L-3.5 7.15" fill="#139ffd" fill-rule="evenodd" stroke="none"/>
    <path d="M11.8 28.9 Q11.35 30.05 10.55 30.15 9.75 30.25 9.1 29.2 8.4 28.2 8.25 26.7 8.05 25.15 8.5 23.95 8.9 22.8 9.7 22.7 10.5 22.6 11.2 23.65 11.9 24.7 12.1 26.25 12.25 27.75 11.8 28.9" fill="#139ffd" fill-rule="evenodd" stroke="none"/>
    <path d="M-2.6 16.9 Q-2.2 15.75 -1.4 15.65 -0.6 15.55 0.1 16.6 0.8 17.65 1.0 19.2 1.15 20.7 0.7 21.85 0.25 23.0 -0.55 23.1 -1.35 23.2 -2.0 22.15 -2.7 21.15 -2.85 19.65 -3.05 18.1 -2.6 16.9" fill="#139ffd" fill-rule="evenodd" stroke="none"/>
    <path d="M3.7 -1.85 L3.4 -2.1 3.4 -2.5 3.65 -2.8 Q9.65 -5.65 14.1 -10.9 14.2 -11.1 14.4 -11.1 L14.8 -10.95 14.95 -10.65 14.85 -10.25 Q10.25 -4.85 4.1 -1.9 L3.7 -1.85" fill="#139ffd" fill-rule="evenodd" stroke="none"/>
    <path d="M10.4 -12.2 Q9.55 -11.4 8.45 -10.7 14.65 -23.45 -7.4 -26.45 -4.0 -27.65 0.1 -27.3 5.65 -26.8 9.25 -23.7 12.95 -20.6 12.6 -16.7 12.45 -15.45 11.95 -14.35 11.4 -13.2 10.4 -12.2" fill="#35adfd" fill-rule="evenodd" stroke="none"/>
    <path d="M8.45 -0.5 Q9.4 3.4 7.9 6.4 7.15 7.9 6.05 8.85 8.6 -4.45 -1.85 -7.5 L-0.75 -7.9 Q2.0 -8.6 4.7 -6.5 7.4 -4.35 8.45 -0.5" fill="#35adfd" fill-rule="evenodd" stroke="none"/>
    <path d="M-6.1 3.6 Q2.8 5.45 9.4 3.05" fill="none" stroke="#0370b8" stroke-linecap="round" stroke-linejoin="miter-clip" stroke-miterlimit="3.0" stroke-width="1.0"/>
    <path d="M6.1 -13.05 Q5.15 -11.95 3.1 -11.6 -1.9 -10.65 -4.7 -14.15 -1.65 -14.15 2.85 -16.4 5.55 -17.7 6.55 -15.7 7.25 -14.25 6.1 -13.05" fill="#35adfd" fill-rule="evenodd" stroke="none"/>
    <path d="M6.1 -13.05 Q5.15 -11.95 3.1 -11.6 -1.9 -10.65 -4.7 -14.15 -1.65 -14.15 2.85 -16.4 5.55 -17.7 6.55 -15.7 7.25 -14.25 6.1 -13.05 Z" fill="none" stroke="#0370b8" stroke-linecap="round" stroke-linejoin="miter-clip" stroke-miterlimit="3.0" stroke-width="1.0"/>
    <path d="M3.75 -30.1 Q6.05 -30.1 7.65 -28.6 9.3 -27.05 9.3 -24.95 L9.0 -23.3 Q8.6 -22.25 7.65 -21.4 6.05 -19.85 3.75 -19.85 1.5 -19.85 -0.2 -21.4 -1.8 -22.85 -1.8 -24.95 -1.8 -27.05 -0.2 -28.6 1.05 -29.7 2.6 -30.0 L3.75 -30.1 M-4.05 -25.3 L-4.1 -24.45 Q-4.35 -23.4 -5.1 -22.6 -6.1 -21.45 -7.55 -21.45 -8.95 -21.45 -10.0 -22.6 -11.05 -23.7 -11.05 -25.3 -11.05 -26.85 -10.0 -28.0 -9.15 -28.9 -8.1 -29.05 L-7.55 -29.1 Q-6.1 -29.1 -5.1 -28.0 -4.05 -26.85 -4.05 -25.3" fill="#35adfd" fill-rule="evenodd" stroke="none"/>
    <path d="M3.75 -30.1 Q6.05 -30.1 7.65 -28.6 9.3 -27.05 9.3 -24.95 L9.0 -23.3 Q8.6 -22.25 7.65 -21.4 6.05 -19.85 3.75 -19.85 1.5 -19.85 -0.2 -21.4 -1.8 -22.85 -1.8 -24.95 -1.8 -27.05 -0.2 -28.6 1.05 -29.7 2.6 -30.0 L3.75 -30.1 M-4.05 -25.3 L-4.1 -24.45 Q-4.35 -23.4 -5.1 -22.6 -6.1 -21.45 -7.55 -21.45 -8.95 -21.45 -10.0 -22.6 -11.05 -23.7 -11.05 -25.3 -11.05 -26.85 -10.0 -28.0 -9.15 -28.9 -8.1 -29.05 L-7.55 -29.1 Q-6.1 -29.1 -5.1 -28.0 -4.05 -26.85 -4.05 -25.3 Z" fill="none" stroke="#0370b8" stroke-linecap="round" stroke-linejoin="miter-clip" stroke-miterlimit="3.0" stroke-width="1.0"/>
    <path d="M-7.15 -25.55 Q-7.55 -25.1 -8.15 -25.1 -8.75 -25.1 -9.2 -25.55 -9.6 -25.95 -9.6 -26.55 -9.6 -27.1 -9.2 -27.55 -8.75 -27.95 -8.15 -27.95 -7.55 -27.95 -7.15 -27.55 -6.7 -27.1 -6.7 -26.55 -6.7 -25.95 -7.15 -25.55" fill="#0370b8" fill-rule="evenodd" stroke="none"/>
    <path d="M4.2 -25.75 Q3.65 -25.2 2.9 -25.2 2.15 -25.2 1.55 -25.75 1.0 -26.3 1.0 -27.05 1.0 -27.8 1.55 -28.4 2.15 -28.95 2.9 -28.95 3.65 -28.95 4.2 -28.4 4.75 -27.8 4.75 -27.05 4.75 -26.3 4.2 -25.75" fill="#0370b8" fill-rule="evenodd" stroke="none"/>
  </g>
</svg>
