<?xml version="1.0" encoding="UTF-8" standalone="no"?>
<svg xmlns:ffdec="https://www.free-decompiler.com/flash" xmlns:xlink="http://www.w3.org/1999/xlink" ffdec:objectType="shape" height="65.25px" width="44.15px" xmlns="http://www.w3.org/2000/svg">
  <g transform="matrix(1.0, 0.0, 0.0, 1.0, 21.7, 32.6)">
    <path d="M9.3 -24.95 L9.15 -23.75 9.25 -23.7 Q12.95 -20.6 12.6 -16.7 12.2 -12.85 8.05 -10.5 3.9 -8.15 -1.65 -8.65 -7.15 -9.15 -10.8 -12.25 -14.5 -15.3 -14.1 -19.15 -13.8 -22.35 -10.95 -24.5 L-11.05 -25.3 Q-11.05 -26.85 -10.0 -28.0 -8.95 -29.1 -7.55 -29.1 -6.1 -29.1 -5.1 -28.0 L-4.5 -27.15 -1.15 -27.35 -0.2 -28.6 Q1.5 -30.1 3.75 -30.1 6.05 -30.1 7.65 -28.6 9.3 -27.05 9.3 -24.95 M15.35 -14.55 Q16.4 -14.65 17.15 -14.05 18.0 -13.35 18.1 -12.3 18.25 -11.3 17.55 -10.55 16.95 -9.7 15.9 -9.6 15.15 -9.5 14.5 -9.85 12.25 -7.3 9.7 -5.3 L11.85 -2.95 Q16.95 3.45 19.2 15.2 15.1 13.75 8.35 14.6 L7.15 14.75 9.55 22.75 9.7 22.7 Q10.5 22.6 11.2 23.65 11.9 24.7 12.1 26.25 12.25 27.75 11.8 28.9 11.35 30.05 10.55 30.15 9.75 30.25 9.1 29.2 8.4 28.2 8.25 26.7 8.05 25.15 8.5 23.95 L8.7 23.55 6.1 14.8 Q1.75 14.9 -1.35 13.0 L-1.0 9.8 Q-2.1 9.4 -3.1 8.7 L-3.6 8.3 Q-6.55 10.45 -6.3 12.4 -5.9 14.35 -2.3 16.25 -1.95 15.7 -1.4 15.65 -0.6 15.55 0.1 16.6 0.8 17.65 1.0 19.2 1.15 20.7 0.7 21.85 0.25 23.0 -0.55 23.1 -1.35 23.2 -2.0 22.15 -2.7 21.15 -2.85 19.65 -3.05 18.25 -2.7 17.2 -6.9 15.0 -7.25 12.55 -7.75 10.1 -4.35 7.6 -6.05 5.75 -6.25 2.8 -6.5 -0.1 -5.65 -2.55 -12.3 -6.0 -15.2 -9.25 -15.7 -8.85 -16.4 -8.8 -17.45 -8.65 -18.25 -9.35 -19.0 -9.95 -19.15 -10.95 -19.25 -12.0 -18.65 -12.85 -18.0 -13.6 -16.95 -13.75 -15.9 -13.85 -15.15 -13.25 -14.3 -12.55 -14.2 -11.5 -14.05 -10.65 -14.55 -10.0 -11.75 -6.9 -5.3 -3.5 L-5.0 -4.15 Q-3.55 -7.2 -0.75 -7.9 1.25 -8.4 3.2 -7.45 L3.35 -7.5 Q6.0 -8.25 8.9 -5.95 11.5 -7.95 13.75 -10.45 13.25 -11.0 13.15 -11.75 13.05 -12.8 13.65 -13.65 14.3 -14.4 15.35 -14.55 Z" fill="none" stroke="#ffff00" stroke-linecap="round" stroke-linejoin="miter-clip" stroke-miterlimit="3.0" stroke-width="5.0"/>
  </g>
</svg>
