<?xml version="1.0" encoding="UTF-8" standalone="no"?>
<svg xmlns:ffdec="https://www.free-decompiler.com/flash" xmlns:xlink="http://www.w3.org/1999/xlink" ffdec:objectType="shape" height="27.7px" width="56.4px" xmlns="http://www.w3.org/2000/svg">
  <g transform="matrix(1.0, 0.0, 0.0, 1.0, 28.2, 13.85)">
    <path d="M17.75 -12.2 L19.05 -12.35 22.05 -12.05 Q25.4 -11.3 25.85 -8.9 26.3 -6.7 24.65 -4.85 26.95 -2.35 26.7 0.25 26.8 3.45 24.4 5.35 26.1 7.8 25.5 9.4 24.8 13.05 18.55 12.15 L17.3 12.1 Q14.9 11.85 12.35 10.7 10.05 9.9 7.65 8.25 L5.0 6.3 4.25 6.8 1.75 7.85 1.65 7.85 1.5 7.9 0.8 8.0 0.5 8.0 0.0 8.0 Q-2.5 8.0 -4.4 6.7 L-7.9 9.1 Q-10.4 10.35 -12.8 11.2 L-13.65 11.4 -17.75 12.2 -19.05 12.35 -22.05 12.05 Q-25.4 11.3 -25.85 8.9 -26.3 6.7 -24.65 4.85 -26.95 2.35 -26.7 -0.25 -26.8 -3.45 -24.4 -5.35 -26.1 -7.8 -25.5 -9.4 -24.8 -13.05 -18.55 -12.15 L-17.3 -12.1 Q-14.9 -11.85 -12.35 -10.7 -10.05 -9.9 -7.65 -8.25 L-4.95 -6.25 -4.0 -6.95 -0.6 -7.95 -0.1 -8.0 0.0 -8.0 Q2.5 -8.0 4.45 -6.65 L7.9 -9.1 Q10.4 -10.35 12.8 -11.2 L13.65 -11.4 17.75 -12.2" fill="#000000" fill-rule="evenodd" stroke="none"/>
    <path d="M17.75 -12.2 L19.05 -12.35 22.05 -12.05 Q25.4 -11.3 25.85 -8.9 26.3 -6.7 24.65 -4.85 26.95 -2.35 26.7 0.25 26.8 3.45 24.4 5.35 26.1 7.8 25.5 9.4 24.8 13.05 18.55 12.15 L17.3 12.1 Q14.9 11.85 12.35 10.7 10.05 9.9 7.65 8.25 L5.0 6.3 4.25 6.8 1.75 7.85 1.65 7.85 1.5 7.9 0.8 8.0 0.5 8.0 0.0 8.0 Q-2.5 8.0 -4.4 6.7 L-7.9 9.1 Q-10.4 10.35 -12.8 11.2 L-13.65 11.4 -17.75 12.2 -19.05 12.35 -22.05 12.05 Q-25.4 11.3 -25.85 8.9 -26.3 6.7 -24.65 4.85 -26.95 2.35 -26.7 -0.25 -26.8 -3.45 -24.4 -5.35 -26.1 -7.8 -25.5 -9.4 -24.8 -13.05 -18.55 -12.15 L-17.3 -12.1 Q-14.9 -11.85 -12.35 -10.7 -10.05 -9.9 -7.65 -8.25 L-4.95 -6.25 -4.0 -6.95 -0.6 -7.95 -0.1 -8.0 0.0 -8.0 Q2.5 -8.0 4.45 -6.65 L7.9 -9.1 Q10.4 -10.35 12.8 -11.2 L13.65 -11.4 17.75 -12.2 Z" fill="none" stroke="#151812" stroke-linecap="round" stroke-linejoin="round" stroke-width="3.0"/>
  </g>
</svg>
