<?xml version="1.0" encoding="UTF-8" standalone="no"?>
<svg xmlns:ffdec="https://www.free-decompiler.com/flash" xmlns:xlink="http://www.w3.org/1999/xlink" ffdec:objectType="shape" height="25.7px" width="54.4px" xmlns="http://www.w3.org/2000/svg">
  <g transform="matrix(1.0, 0.0, 0.0, 1.0, 27.2, 12.85)">
    <path d="M9.75 -9.95 L12.8 -11.2 13.65 -11.4 17.75 -12.2 19.05 -12.35 22.05 -12.05 Q25.4 -11.3 25.85 -8.9 26.3 -6.7 24.65 -4.85 26.5 -2.85 26.7 -0.8 19.1 1.9 9.75 0.7 12.7 -2.15 9.75 -5.35 12.05 -7.65 9.75 -9.95 M15.85 -6.2 Q12.65 -6.3 9.75 -5.35 12.65 -6.3 15.85 -6.2 M-26.65 0.95 L-26.7 -0.25 -26.7 -0.9 Q-26.55 -3.65 -24.4 -5.35 -26.1 -7.8 -25.5 -9.4 -24.8 -13.05 -18.55 -12.15 L-17.3 -12.1 Q-14.9 -11.85 -12.35 -10.7 -11.0 -10.25 -9.6 -9.45 -11.8 -5.8 -9.6 -3.7 -12.2 -0.55 -9.6 2.6 -18.25 3.7 -26.65 0.95 M-13.45 -4.25 L-9.6 -3.7 -13.45 -4.25 M-23.1 -6.25 Q-24.0 -6.0 -24.4 -5.35 -24.0 -6.0 -23.1 -6.25 M22.05 -6.6 L23.35 -5.8 24.65 -4.85 23.35 -5.8 22.05 -6.6" fill="#bcc9b4" fill-rule="evenodd" stroke="none"/>
    <path d="M26.7 -0.8 L26.7 0.25 Q26.8 3.45 24.4 5.35 26.1 7.8 25.5 9.4 24.8 13.05 18.55 12.15 L17.3 12.1 Q14.9 11.85 12.35 10.7 L9.75 9.55 Q8.7 9.0 7.65 8.25 4.4 6.25 2.7 3.65 1.3 1.7 1.45 -0.05 L1.55 -0.7 1.55 -0.8 1.45 -1.35 Q1.35 -3.0 2.75 -5.05 4.65 -7.15 7.9 -9.1 L9.75 -9.95 Q12.05 -7.65 9.75 -5.35 L8.0 -4.7 Q5.45 -3.8 3.75 -2.75 2.5 -1.75 2.35 -0.8 L2.35 -0.75 Q2.45 0.65 3.55 1.45 L3.65 1.55 Q5.25 2.95 7.85 3.3 L9.75 3.75 13.45 4.25 9.75 3.75 7.85 3.3 Q5.25 2.95 3.65 1.55 L3.55 1.45 Q2.45 0.65 2.35 -0.75 L2.35 -0.8 Q2.5 -1.75 3.75 -2.75 5.45 -3.8 8.0 -4.7 L9.75 -5.35 Q12.7 -2.15 9.75 0.7 19.1 1.9 26.7 -0.8 M-9.6 -9.45 L-7.65 -8.25 Q-4.4 -6.25 -2.7 -3.65 -1.65 -2.2 -1.45 -0.9 L-1.45 0.05 -1.55 0.7 -1.55 0.95 -1.45 1.35 Q-1.35 3.0 -2.75 5.05 -4.65 7.15 -7.9 9.1 L-9.6 9.9 -12.8 11.2 -13.65 11.4 -17.75 12.2 -19.05 12.35 -22.05 12.05 Q-25.4 11.3 -25.85 8.9 -26.3 6.7 -24.65 4.85 -26.4 2.95 -26.65 0.95 -18.25 3.7 -9.6 2.6 -12.2 -0.55 -9.6 -3.7 L-7.85 -3.3 Q-5.25 -2.95 -3.65 -1.55 L-3.55 -1.45 -2.95 -0.9 Q-2.4 -0.2 -2.35 0.75 L-2.35 0.95 Q-2.6 1.8 -3.75 2.75 -5.45 3.8 -8.0 4.7 L-9.6 5.3 Q-12.6 6.3 -15.85 6.2 -12.6 6.3 -9.6 5.3 L-8.0 4.7 Q-5.45 3.8 -3.75 2.75 -2.6 1.8 -2.35 0.95 L-2.35 0.75 Q-2.4 -0.2 -2.95 -0.9 L-3.55 -1.45 -3.65 -1.55 Q-5.25 -2.95 -7.85 -3.3 L-9.6 -3.7 Q-11.8 -5.8 -9.6 -9.45 M23.1 6.25 Q24.0 6.0 24.4 5.35 24.0 6.0 23.1 6.25 M-22.05 6.6 L-23.35 5.8 -24.65 4.85 -23.35 5.8 -22.05 6.6" fill="#9bac8e" fill-rule="evenodd" stroke="none"/>
    <path d="M9.75 -9.95 L12.8 -11.2 13.65 -11.4 17.75 -12.2 19.05 -12.35 22.05 -12.05 Q25.4 -11.3 25.85 -8.9 26.3 -6.7 24.65 -4.85 26.5 -2.85 26.7 -0.8 L26.7 0.25 Q26.8 3.45 24.4 5.35 26.1 7.8 25.5 9.4 24.8 13.05 18.55 12.15 L17.3 12.1 Q14.9 11.85 12.35 10.7 L9.75 9.55 Q8.7 9.0 7.65 8.25 4.4 6.25 2.7 3.65 1.3 1.7 1.45 -0.05 L1.55 -0.7 1.55 -0.8 1.45 -1.35 Q1.35 -3.0 2.75 -5.05 4.65 -7.15 7.9 -9.1 L9.75 -9.95 M9.75 -5.35 Q12.65 -6.3 15.85 -6.2 M-26.65 0.95 L-26.7 -0.25 -26.7 -0.9 Q-26.55 -3.65 -24.4 -5.35 -26.1 -7.8 -25.5 -9.4 -24.8 -13.05 -18.55 -12.15 L-17.3 -12.1 Q-14.9 -11.85 -12.35 -10.7 -11.0 -10.25 -9.6 -9.45 L-7.65 -8.25 Q-4.4 -6.25 -2.7 -3.65 -1.65 -2.2 -1.45 -0.9 L-1.45 0.05 -1.55 0.7 -1.55 0.95 -1.45 1.35 Q-1.35 3.0 -2.75 5.05 -4.65 7.15 -7.9 9.1 L-9.6 9.9 -12.8 11.2 -13.65 11.4 -17.75 12.2 -19.05 12.35 -22.05 12.05 Q-25.4 11.3 -25.85 8.9 -26.3 6.7 -24.65 4.85 -26.4 2.95 -26.65 0.95 M-9.6 -3.7 L-13.45 -4.25 M-9.6 -3.7 L-7.85 -3.3 Q-5.25 -2.95 -3.65 -1.55 L-3.55 -1.45 -2.95 -0.9 Q-2.4 -0.2 -2.35 0.75 L-2.35 0.95 Q-2.6 1.8 -3.75 2.75 -5.45 3.8 -8.0 4.7 L-9.6 5.3 Q-12.6 6.3 -15.85 6.2 M-24.4 -5.35 Q-24.0 -6.0 -23.1 -6.25 M-24.65 4.85 L-23.35 5.8 -22.05 6.6 M24.4 5.35 Q24.0 6.0 23.1 6.25 M24.65 -4.85 L23.35 -5.8 22.05 -6.6 M13.45 4.25 L9.75 3.75 7.85 3.3 Q5.25 2.95 3.65 1.55 L3.55 1.45 Q2.45 0.65 2.35 -0.75 L2.35 -0.8 Q2.5 -1.75 3.75 -2.75 5.45 -3.8 8.0 -4.7 L9.75 -5.35" fill="none" stroke="#4a5841" stroke-linecap="round" stroke-linejoin="round" stroke-width="1.0"/>
    <path d="M8.0 0.0 Q8.0 3.3 5.65 5.65 3.3 8.0 0.0 8.0 -3.3 8.0 -5.65 5.65 -8.0 3.3 -8.0 0.0 -8.0 -3.3 -5.65 -5.65 -3.3 -8.0 0.0 -8.0 3.3 -8.0 5.65 -5.65 8.0 -3.3 8.0 0.0" fill="#990000" fill-rule="evenodd" stroke="none"/>
    <path d="M-5.1 -6.15 L-5.25 -4.6 Q-5.25 -1.3 -2.9 1.05 -0.55 3.4 2.75 3.4 5.7 3.4 7.85 1.55 7.45 3.85 5.65 5.65 3.3 8.0 0.0 8.0 -3.3 8.0 -5.65 5.65 -8.0 3.3 -8.0 0.0 -8.0 -3.3 -5.65 -5.65 L-5.1 -6.15" fill="#7e0101" fill-rule="evenodd" stroke="none"/>
    <path d="M0.55 -2.2 Q-0.15 -2.9 -0.15 -3.9 -0.15 -4.9 0.55 -5.6 1.25 -6.3 2.25 -6.3 3.25 -6.3 3.95 -5.6 4.65 -4.9 4.65 -3.9 4.65 -2.9 3.95 -2.2 3.25 -1.5 2.25 -1.5 1.25 -1.5 0.55 -2.2" fill="#c10202" fill-rule="evenodd" stroke="none"/>
    <path d="M8.0 0.0 Q8.0 3.3 5.65 5.65 3.3 8.0 0.0 8.0 -3.3 8.0 -5.65 5.65 -8.0 3.3 -8.0 0.0 -8.0 -3.3 -5.65 -5.65 -3.3 -8.0 0.0 -8.0 3.3 -8.0 5.65 -5.65 8.0 -3.3 8.0 0.0 Z" fill="none" stroke="#4a5841" stroke-linecap="round" stroke-linejoin="round" stroke-width="1.0"/>
  </g>
</svg>
