<?xml version="1.0" encoding="UTF-8" standalone="no"?>
<svg xmlns:ffdec="https://www.free-decompiler.com/flash" xmlns:xlink="http://www.w3.org/1999/xlink" ffdec:objectType="shape" height="57.1px" width="57.1px" xmlns="http://www.w3.org/2000/svg">
  <g transform="matrix(1.0, 0.0, 0.0, 1.0, 28.55, 28.55)">
    <path d="M-27.55 -14.15 L-27.55 -27.55 -14.15 -27.55 14.15 -27.55 27.55 -27.55 27.55 -14.15 27.55 14.15 27.55 27.55 14.15 27.55 -14.15 27.55 -27.55 27.55 -27.55 14.15 -27.55 -14.15 Z" fill="none" stroke="#000000" stroke-linecap="round" stroke-linejoin="round" stroke-opacity="0.2509804" stroke-width="2.0"/>
    <path d="M-23.0 -11.8 L-23.0 -23.0 -11.8 -23.0 11.8 -23.0 23.0 -23.0 23.0 -11.8 23.0 11.8 23.0 23.0 11.8 23.0 -11.8 23.0 -23.0 23.0 -23.0 11.8 -23.0 -11.8" fill="#ffffff" fill-rule="evenodd" stroke="none"/>
    <path d="M-23.0 -11.8 L-23.0 -23.0 -11.8 -23.0 11.8 -23.0 23.0 -23.0 23.0 -11.8 23.0 11.8 23.0 23.0 11.8 23.0 -11.8 23.0 -23.0 23.0 -23.0 11.8 -23.0 -11.8 Z" fill="none" stroke="#000000" stroke-linecap="round" stroke-linejoin="round" stroke-opacity="0.2509804" stroke-width="2.0"/>
  </g>
</svg>
