<?xml version="1.0" encoding="UTF-8" standalone="no"?>
<svg xmlns:ffdec="https://www.free-decompiler.com/flash" xmlns:xlink="http://www.w3.org/1999/xlink" ffdec:objectType="shape" height="31.65px" width="140.5px" xmlns="http://www.w3.org/2000/svg">
  <g transform="matrix(1.0, 0.0, 0.0, 1.0, 66.95, 16.6)">
    <path d="M32.1 -8.35 L34.9 -8.5 38.8 -8.55 42.9 -8.4 Q45.4 -8.2 46.9 -7.35 48.4 -6.45 49.15 -5.15 49.95 -3.9 50.2 -2.55 L50.55 -0.2 50.4 2.75 49.65 5.55 Q49.1 6.8 48.35 7.45 L46.25 8.65 43.9 9.2 41.35 9.4 41.15 13.55 32.15 13.7 32.1 -8.35 M39.75 -0.75 L41.9 -0.75 43.65 -0.25 Q44.3 0.2 44.35 1.2 44.35 2.4 43.8 3.1 43.3 3.8 42.25 4.1 L39.8 4.4 39.75 -0.75 M38.0 -7.3 L33.65 -7.05 33.3 12.3 40.05 12.4 40.05 8.5 44.2 8.1 Q45.85 7.7 47.0 7.0 L48.25 5.9 49.1 3.55 Q49.4 2.05 49.15 -0.45 48.9 -2.95 48.1 -4.4 47.3 -5.85 45.9 -6.5 44.55 -7.15 42.7 -7.25 L38.0 -7.3 M42.6 1.0 Q42.3 0.8 41.9 0.75 L41.15 0.8 41.05 3.15 42.3 2.8 Q42.85 2.4 42.9 1.6 42.95 1.2 42.6 1.0" fill="#000000" fill-rule="evenodd" stroke="none"/>
    <path d="M38.0 -7.3 L42.7 -7.25 Q44.55 -7.15 45.9 -6.5 47.3 -5.85 48.1 -4.4 48.9 -2.95 49.15 -0.45 49.4 2.05 49.1 3.55 L48.25 5.9 47.0 7.0 Q45.85 7.7 44.2 8.1 L40.05 8.5 40.05 12.4 33.3 12.3 33.65 -7.05 38.0 -7.3 M39.75 -0.75 L39.8 4.4 42.25 4.1 Q43.3 3.8 43.8 3.1 44.35 2.4 44.35 1.2 44.3 0.2 43.65 -0.25 L41.9 -0.75 39.75 -0.75" fill="#ffffff" fill-rule="evenodd" stroke="none"/>
    <path d="M-46.55 -7.75 L-28.9 -7.7 -28.95 2.15 -33.75 2.35 -34.05 13.3 -41.25 13.45 -41.4 2.7 -46.3 2.9 -46.55 -7.75 M-29.95 -6.65 L-44.9 -6.35 -45.0 1.7 -40.1 1.55 -39.8 11.85 -35.1 12.05 -34.9 1.4 -30.25 1.3 -29.95 -6.65" fill="#000000" fill-rule="evenodd" stroke="none"/>
    <path d="M-29.95 -6.65 L-30.25 1.3 -34.9 1.4 -35.1 12.05 -39.8 11.85 -40.1 1.55 -45.0 1.7 -44.9 -6.35 -29.95 -6.65" fill="#ffffff" fill-rule="evenodd" stroke="none"/>
    <path d="M-22.55 -12.1 L-30.65 -11.7 -30.4 9.3 -23.2 8.9 -22.95 4.05 -18.05 4.1 -17.6 9.35 -11.1 9.3 -12.6 -11.5 -17.8 -11.15 -18.1 -1.45 -22.5 -1.3 -22.55 -12.1 M-32.35 -13.25 L-21.4 -13.25 -20.9 -2.8 -19.2 -3.0 -19.05 -12.65 -10.95 -13.1 -9.95 10.85 -18.95 11.2 -19.35 5.2 -21.85 5.15 -21.85 10.35 -31.8 10.55 -32.35 -13.25" fill="#000000" fill-rule="evenodd" stroke="none"/>
    <path d="M-22.55 -12.1 L-22.5 -1.3 -18.1 -1.45 -17.8 -11.15 -12.6 -11.5 -11.1 9.3 -17.6 9.35 -18.05 4.1 -22.95 4.05 -23.2 8.9 -30.4 9.3 -30.65 -11.7 -22.55 -12.1" fill="#ffffff" fill-rule="evenodd" stroke="none"/>
    <path d="M16.1 -11.4 L8.8 -11.2 8.65 9.25 16.3 9.6 16.95 0.35 21.25 8.55 23.2 8.5 27.45 -0.45 27.8 10.05 34.05 10.1 33.35 -11.95 26.6 -11.9 21.9 -0.35 16.1 -11.4 M7.15 -12.8 L16.95 -12.9 21.8 -3.8 25.9 -13.35 34.85 -13.3 35.45 11.15 26.55 11.2 26.5 3.65 24.2 9.7 20.3 9.8 17.9 4.4 17.65 10.85 7.25 10.85 7.15 -12.8" fill="#000000" fill-rule="evenodd" stroke="none"/>
    <path d="M16.1 -11.4 L21.9 -0.35 26.6 -11.9 33.35 -11.95 34.05 10.1 27.8 10.05 27.45 -0.45 23.2 8.5 21.25 8.55 16.95 0.35 16.3 9.6 8.65 9.25 8.8 -11.2 16.1 -11.4" fill="#ffffff" fill-rule="evenodd" stroke="none"/>
    <path d="M8.7 -8.5 L8.4 -14.9 -0.55 -14.65 -0.35 -11.55 -0.2 -7.85 -0.05 -4.35 -0.05 -1.9 -0.1 0.3 Q-0.25 1.35 -0.95 2.05 -1.65 2.85 -3.5 2.9 -5.1 3.05 -6.05 1.95 -7.05 0.8 -7.25 -1.4 L-7.45 -4.25 -7.55 -8.75 -7.55 -13.9 -11.8 -13.75 -11.95 -8.55 -12.15 -3.05 -12.15 2.4 Q-12.05 4.8 -10.6 6.15 -9.2 7.5 -6.6 8.0 L-0.25 8.55 4.6 8.15 Q6.5 7.7 7.4 6.9 8.4 6.15 8.7 4.9 9.1 3.75 9.1 2.25 L9.1 -2.6 8.7 -8.5 M10.05 -16.6 L10.45 -9.2 10.7 -2.4 10.7 3.1 Q10.65 4.9 10.2 6.25 9.75 7.55 8.55 8.45 7.4 9.4 5.15 9.85 L-0.55 10.2 Q-5.3 10.1 -8.15 9.25 -11.05 8.4 -12.35 6.65 -13.7 4.9 -13.8 2.1 L-13.9 -3.6 -13.8 -9.55 -13.65 -15.3 -6.05 -15.4 -6.05 -10.9 -6.05 -6.7 -5.95 -3.25 -5.8 -1.05 Q-5.6 0.35 -5.05 0.95 -4.4 1.55 -3.6 1.4 -2.95 1.3 -2.55 1.0 -2.25 0.7 -2.05 0.05 -1.85 -0.6 -1.8 -1.85 L-1.8 -4.6 -2.0 -8.55 -2.2 -12.8 -2.45 -16.35 10.05 -16.6" fill="#000000" fill-rule="evenodd" stroke="none"/>
    <path d="M8.7 -8.5 L9.1 -2.6 9.1 2.25 Q9.1 3.75 8.7 4.9 8.4 6.15 7.4 6.9 6.5 7.7 4.6 8.15 L-0.25 8.55 -6.6 8.0 Q-9.2 7.5 -10.6 6.15 -12.05 4.8 -12.15 2.4 L-12.15 -3.05 -11.95 -8.55 -11.8 -13.75 -7.55 -13.9 -7.55 -8.75 -7.45 -4.25 -7.25 -1.4 Q-7.05 0.8 -6.05 1.95 -5.1 3.05 -3.5 2.9 -1.65 2.85 -0.95 2.05 -0.25 1.35 -0.1 0.3 L-0.05 -1.9 -0.05 -4.35 -0.2 -7.85 -0.35 -11.55 -0.55 -14.65 8.4 -14.9 8.7 -8.5" fill="#ffffff" fill-rule="evenodd" stroke="none"/>
    <path d="M55.05 -5.2 L64.55 -6.95 M55.8 1.8 L72.55 2.05 M54.55 8.05 L67.55 11.55 M-53.45 -5.2 L-62.95 -6.2 M-52.7 3.55 L-65.95 5.55 M-50.2 9.55 L-58.7 14.05" fill="none" stroke="#000000" stroke-linecap="round" stroke-linejoin="miter-clip" stroke-miterlimit="3.0" stroke-opacity="0.49803922" stroke-width="2.0"/>
  </g>
</svg>
