<?xml version="1.0" encoding="UTF-8" standalone="no"?>
<svg xmlns:ffdec="https://www.free-decompiler.com/flash" xmlns:xlink="http://www.w3.org/1999/xlink" ffdec:objectType="shape" height="66.15px" width="103.4px" xmlns="http://www.w3.org/2000/svg">
  <g transform="matrix(1.0, 0.0, 0.0, 1.0, 23.75, 62.4)">
    <path d="M74.55 -28.45 L19.8 -28.2 14.55 -20.95 21.8 -21.2 -0.15 2.4 6.3 -14.45 0.05 -13.7 6.05 -28.2 -23.2 -28.2 -21.2 -48.45 79.05 -48.95 74.55 -28.45" fill="#ffffff" fill-opacity="0.49803922" fill-rule="evenodd" stroke="none"/>
    <path d="M74.55 -28.45 L19.8 -28.2 14.55 -20.95 21.8 -21.2 -0.15 2.4 6.3 -14.45 0.05 -13.7 6.05 -28.2 -23.2 -28.2 -21.2 -48.45 79.05 -48.95 74.55 -28.45 Z" fill="none" stroke="#000000" stroke-linecap="round" stroke-linejoin="miter-clip" stroke-miterlimit="3.0" stroke-opacity="0.49803922" stroke-width="1.0"/>
    <path d="M-10.0 -46.3 Q-7.6 -47.55 -6.65 -48.15 L-4.7 -49.5 Q-3.85 -50.2 -3.45 -51.1 -3.05 -52.0 -3.15 -52.9 -3.8 -53.7 -5.9 -53.3 L-7.05 -53.05 -8.25 -52.8 -10.0 -46.3 M-16.1 -53.05 L-13.95 -54.6 -11.45 -55.7 -9.15 -56.3 -5.75 -56.6 -2.65 -56.0 Q-1.3 -55.55 -0.8 -54.45 L-0.25 -52.8 Q0.3 -49.8 -2.05 -47.55 -4.35 -45.3 -8.3 -43.95 -7.9 -43.45 -6.85 -42.7 L-4.65 -41.3 -2.5 -39.7 -1.15 -37.95 -1.0 -37.65 -1.1 -37.15 -1.3 -36.6 -1.4 -35.9 -1.55 -35.2 -10.7 -41.5 -12.6 -33.75 -14.6 -34.1 -15.3 -34.2 Q-15.9 -34.25 -15.95 -34.5 L-11.8 -51.6 -13.85 -51.0 -15.8 -50.1 -15.95 -51.45 Q-15.95 -52.4 -16.1 -53.05" fill="#ffffff" fill-rule="evenodd" stroke="none"/>
    <path d="M-10.0 -46.3 Q-7.6 -47.55 -6.65 -48.15 L-4.7 -49.5 Q-3.85 -50.2 -3.45 -51.1 -3.05 -52.0 -3.15 -52.9 -3.8 -53.7 -5.9 -53.3 L-7.05 -53.05 -8.25 -52.8 -10.0 -46.3 M-16.1 -53.05 L-13.95 -54.6 -11.45 -55.7 -9.15 -56.3 -5.75 -56.6 -2.65 -56.0 Q-1.3 -55.55 -0.8 -54.45 L-0.25 -52.8 Q0.3 -49.8 -2.05 -47.55 -4.35 -45.3 -8.3 -43.95 -7.9 -43.45 -6.85 -42.7 L-4.65 -41.3 -2.5 -39.7 -1.15 -37.95 -1.0 -37.65 -1.1 -37.15 -1.3 -36.6 -1.4 -35.9 -1.55 -35.2 -10.7 -41.5 -12.6 -33.75 -14.6 -34.1 -15.3 -34.2 Q-15.9 -34.25 -15.95 -34.5 L-11.8 -51.6 -13.85 -51.0 -15.8 -50.1 -15.95 -51.45 Q-15.95 -52.4 -16.1 -53.05 Z" fill="none" stroke="#000000" stroke-linecap="round" stroke-linejoin="miter-clip" stroke-miterlimit="3.0" stroke-width="3.0"/>
    <path d="M8.75 -57.2 L7.95 -55.95 Q7.5 -55.4 7.0 -55.35 L6.35 -55.45 Q5.9 -55.95 5.8 -56.75 5.65 -57.6 6.1 -58.4 6.5 -59.25 7.15 -59.6 L7.6 -59.7 Q8.85 -59.65 9.0 -58.55 L8.75 -57.2 M7.0 -51.6 L6.0 -48.55 5.2 -46.0 4.8 -44.2 4.35 -42.5 3.8 -40.45 3.35 -38.75 3.05 -38.65 Q2.65 -38.6 2.15 -38.9 L1.3 -39.4 Q0.05 -39.85 0.0 -40.55 L2.35 -47.05 3.4 -49.9 4.4 -52.25 5.0 -53.2 5.3 -53.3 5.75 -53.25 6.2 -53.2 6.65 -53.4 7.2 -53.6 7.5 -53.45 7.0 -51.6" fill="#ffffff" fill-rule="evenodd" stroke="none"/>
    <path d="M8.75 -57.2 L7.95 -55.95 Q7.5 -55.4 7.0 -55.35 L6.35 -55.45 Q5.9 -55.95 5.8 -56.75 5.65 -57.6 6.1 -58.4 6.5 -59.25 7.15 -59.6 L7.6 -59.7 Q8.85 -59.65 9.0 -58.55 L8.75 -57.2 M7.0 -51.6 L6.0 -48.55 5.2 -46.0 4.8 -44.2 4.35 -42.5 3.8 -40.45 3.35 -38.75 3.05 -38.65 Q2.65 -38.6 2.15 -38.9 L1.3 -39.4 Q0.05 -39.85 0.0 -40.55 L2.35 -47.05 3.4 -49.9 4.4 -52.25 5.0 -53.2 5.3 -53.3 5.75 -53.25 6.2 -53.2 6.65 -53.4 7.2 -53.6 7.5 -53.45 7.0 -51.6 Z" fill="none" stroke="#000000" stroke-linecap="round" stroke-linejoin="miter-clip" stroke-miterlimit="3.0" stroke-width="3.0"/>
    <path d="M48.05 -48.4 L48.65 -49.5 48.9 -49.6 49.45 -49.3 49.9 -49.0 50.45 -49.1 51.05 -49.25 51.4 -49.05 51.05 -48.2 50.35 -47.1 51.35 -47.65 Q51.9 -48.05 52.4 -48.25 L53.5 -48.65 54.55 -48.8 Q55.4 -48.8 56.15 -48.15 57.1 -47.4 57.0 -46.05 56.95 -44.05 54.55 -40.15 L53.05 -37.55 52.2 -35.9 51.25 -34.35 Q50.9 -34.35 50.65 -34.6 L50.15 -35.05 49.6 -35.2 49.1 -35.35 Q48.95 -35.45 48.95 -35.75 49.0 -36.65 49.65 -37.95 L51.5 -41.6 53.25 -44.75 53.95 -46.45 Q53.05 -46.3 52.2 -45.65 L50.5 -44.3 49.1 -42.85 47.75 -41.35 46.45 -38.75 43.9 -34.45 43.3 -34.6 42.95 -35.0 42.75 -35.4 42.2 -35.7 41.7 -35.95 41.5 -36.4 42.4 -38.1 43.7 -40.5 44.95 -42.75 46.05 -44.65 48.05 -48.4" fill="#ffffff" fill-rule="evenodd" stroke="none"/>
    <path d="M48.05 -48.4 L48.65 -49.5 48.9 -49.6 49.45 -49.3 49.9 -49.0 50.45 -49.1 51.05 -49.25 51.4 -49.05 51.05 -48.2 50.35 -47.1 51.35 -47.65 Q51.9 -48.05 52.4 -48.25 L53.5 -48.65 54.55 -48.8 Q55.4 -48.8 56.15 -48.15 57.1 -47.4 57.0 -46.05 56.95 -44.05 54.55 -40.15 L53.05 -37.55 52.2 -35.9 51.25 -34.35 Q50.9 -34.35 50.65 -34.6 L50.15 -35.05 49.6 -35.2 49.1 -35.35 Q48.95 -35.45 48.95 -35.75 49.0 -36.65 49.65 -37.95 L51.5 -41.6 53.25 -44.75 53.95 -46.45 Q53.05 -46.3 52.2 -45.65 L50.5 -44.3 49.1 -42.85 47.75 -41.35 46.45 -38.75 43.9 -34.45 43.3 -34.6 42.95 -35.0 42.75 -35.4 42.2 -35.7 41.7 -35.95 41.5 -36.4 42.4 -38.1 43.7 -40.5 44.95 -42.75 46.05 -44.65 48.05 -48.4 Z" fill="none" stroke="#000000" stroke-linecap="round" stroke-linejoin="miter-clip" stroke-miterlimit="3.0" stroke-width="3.0"/>
    <path d="M68.45 -44.25 L69.3 -43.7 69.6 -43.95 70.0 -44.4 70.55 -44.1 Q70.8 -43.9 70.95 -43.85 L71.65 -43.9 72.4 -43.9 72.75 -43.8 70.8 -40.45 67.6 -34.95 65.65 -32.0 64.15 -29.35 62.55 -26.35 61.1 -24.25 59.65 -22.75 Q58.9 -22.3 58.0 -22.35 57.05 -22.45 56.05 -23.1 55.1 -23.75 54.5 -24.65 53.9 -25.6 54.0 -26.45 54.05 -27.3 54.85 -27.8 L55.45 -27.85 Q56.3 -27.8 56.85 -27.0 L57.7 -24.9 Q59.1 -26.4 60.4 -28.65 L61.45 -30.45 62.7 -32.4 60.25 -30.6 Q58.9 -29.9 57.8 -30.0 57.3 -30.0 56.8 -30.3 L56.05 -31.15 Q55.7 -31.7 55.55 -32.65 55.65 -33.6 56.2 -35.2 56.8 -36.75 58.1 -38.6 59.4 -40.4 61.7 -42.05 63.95 -43.65 67.15 -44.5 L68.45 -44.25 M67.45 -41.75 L67.05 -41.7 66.4 -41.5 66.05 -41.4 63.25 -39.75 Q61.55 -38.45 60.3 -36.8 59.0 -35.2 58.9 -34.05 L59.0 -33.2 Q59.65 -33.15 61.05 -34.1 62.45 -35.05 64.1 -36.5 L66.75 -39.3 Q67.8 -40.65 67.85 -41.3 L67.8 -41.6 67.45 -41.75" fill="#ffffff" fill-rule="evenodd" stroke="none"/>
    <path d="M68.45 -44.25 L69.3 -43.7 69.6 -43.95 70.0 -44.4 70.55 -44.1 Q70.8 -43.9 70.95 -43.85 L71.65 -43.9 72.4 -43.9 72.75 -43.8 70.8 -40.45 67.6 -34.95 65.65 -32.0 64.15 -29.35 62.55 -26.35 61.1 -24.25 59.65 -22.75 Q58.9 -22.3 58.0 -22.35 57.05 -22.45 56.05 -23.1 55.1 -23.75 54.5 -24.65 53.9 -25.6 54.0 -26.45 54.05 -27.3 54.85 -27.8 L55.45 -27.85 Q56.3 -27.8 56.85 -27.0 L57.7 -24.9 Q59.1 -26.4 60.4 -28.65 L61.45 -30.45 62.7 -32.4 60.25 -30.6 Q58.9 -29.9 57.8 -30.0 57.3 -30.0 56.8 -30.3 L56.05 -31.15 Q55.7 -31.7 55.55 -32.65 55.65 -33.6 56.2 -35.2 56.8 -36.75 58.1 -38.6 59.4 -40.4 61.7 -42.05 63.95 -43.65 67.15 -44.5 L68.45 -44.25 M67.45 -41.75 L67.05 -41.7 66.4 -41.5 66.05 -41.4 63.25 -39.75 Q61.55 -38.45 60.3 -36.8 59.0 -35.2 58.9 -34.05 L59.0 -33.2 Q59.65 -33.15 61.05 -34.1 62.45 -35.05 64.1 -36.5 L66.75 -39.3 Q67.8 -40.65 67.85 -41.3 L67.8 -41.6 67.45 -41.75 Z" fill="none" stroke="#000000" stroke-linecap="round" stroke-linejoin="miter-clip" stroke-miterlimit="3.0" stroke-width="3.0"/>
    <path d="M17.9 -57.7 L17.05 -56.55 Q16.55 -56.05 16.0 -56.0 L15.4 -56.1 Q14.95 -56.6 14.85 -57.35 14.8 -58.25 15.25 -59.05 15.7 -59.9 16.4 -60.2 L16.85 -60.3 Q18.1 -60.2 18.2 -59.1 18.25 -58.45 17.9 -57.7 M15.85 -52.2 L14.7 -49.2 13.8 -46.7 13.3 -44.9 12.75 -43.25 12.1 -41.3 11.55 -39.55 11.25 -39.45 Q10.85 -39.45 10.4 -39.75 L9.55 -40.35 Q8.35 -40.85 8.25 -41.5 L10.95 -47.9 12.2 -50.7 13.3 -53.0 13.95 -53.95 14.25 -54.05 14.7 -54.0 15.1 -53.9 15.6 -54.05 16.15 -54.25 16.5 -54.05 15.85 -52.2" fill="#ffffff" fill-rule="evenodd" stroke="none"/>
    <path d="M17.9 -57.7 L17.05 -56.55 Q16.55 -56.05 16.0 -56.0 L15.4 -56.1 Q14.95 -56.6 14.85 -57.35 14.8 -58.25 15.25 -59.05 15.7 -59.9 16.4 -60.2 L16.85 -60.3 Q18.1 -60.2 18.2 -59.1 18.25 -58.45 17.9 -57.7 M15.85 -52.2 L14.7 -49.2 13.8 -46.7 13.3 -44.9 12.75 -43.25 12.1 -41.3 11.55 -39.55 11.25 -39.45 Q10.85 -39.45 10.4 -39.75 L9.55 -40.35 Q8.35 -40.85 8.25 -41.5 L10.95 -47.9 12.2 -50.7 13.3 -53.0 13.95 -53.95 14.25 -54.05 14.7 -54.0 15.1 -53.9 15.6 -54.05 16.15 -54.25 16.5 -54.05 15.85 -52.2 Z" fill="none" stroke="#000000" stroke-linecap="round" stroke-linejoin="miter-clip" stroke-miterlimit="3.0" stroke-width="3.0"/>
    <path d="M27.75 -57.1 L26.8 -55.95 Q26.25 -55.5 25.7 -55.5 L25.1 -55.65 Q24.7 -56.2 24.7 -57.0 24.7 -57.9 25.2 -58.65 25.7 -59.45 26.45 -59.7 L26.9 -59.75 Q28.15 -59.55 28.15 -58.45 28.15 -57.8 27.75 -57.1 M25.25 -51.75 L23.9 -48.85 22.8 -46.45 22.15 -44.7 21.5 -43.1 20.7 -41.15 20.0 -39.45 19.7 -39.4 Q19.3 -39.4 18.85 -39.75 L18.05 -40.4 Q16.9 -41.0 16.9 -41.7 L20.05 -47.85 21.5 -50.55 22.8 -52.75 23.5 -53.65 23.8 -53.7 24.25 -53.6 24.65 -53.5 25.15 -53.6 25.7 -53.75 26.05 -53.55 25.25 -51.75" fill="#ffffff" fill-rule="evenodd" stroke="none"/>
    <path d="M27.75 -57.1 L26.8 -55.95 Q26.25 -55.5 25.7 -55.5 L25.1 -55.65 Q24.7 -56.2 24.7 -57.0 24.7 -57.9 25.2 -58.65 25.7 -59.45 26.45 -59.7 L26.9 -59.75 Q28.15 -59.55 28.15 -58.45 28.15 -57.8 27.75 -57.1 M25.25 -51.75 L23.9 -48.85 22.8 -46.45 22.15 -44.7 21.5 -43.1 20.7 -41.15 20.0 -39.45 19.7 -39.4 Q19.3 -39.4 18.85 -39.75 L18.05 -40.4 Q16.9 -41.0 16.9 -41.7 L20.05 -47.85 21.5 -50.55 22.8 -52.75 23.5 -53.65 23.8 -53.7 24.25 -53.6 24.65 -53.5 25.15 -53.6 25.7 -53.75 26.05 -53.55 25.25 -51.75 Z" fill="none" stroke="#000000" stroke-linecap="round" stroke-linejoin="miter-clip" stroke-miterlimit="3.0" stroke-width="3.0"/>
    <path d="M36.75 -56.35 L35.8 -55.2 Q35.25 -54.75 34.7 -54.75 L34.1 -54.9 Q33.7 -55.45 33.7 -56.25 33.7 -57.15 34.2 -57.9 34.7 -58.7 35.45 -58.95 L35.9 -59.0 Q37.15 -58.8 37.15 -57.7 37.15 -57.05 36.75 -56.35 M34.25 -51.0 L32.9 -48.1 31.8 -45.7 31.15 -43.95 30.5 -42.35 29.7 -40.4 29.0 -38.7 28.7 -38.65 Q28.3 -38.65 27.85 -39.0 27.35 -39.35 27.05 -39.65 25.9 -40.25 25.9 -40.95 L29.05 -47.1 30.5 -49.8 31.8 -52.0 32.5 -52.9 32.8 -52.95 33.25 -52.85 33.65 -52.75 34.15 -52.85 34.7 -53.0 35.05 -52.8 34.25 -51.0" fill="#ffffff" fill-rule="evenodd" stroke="none"/>
    <path d="M36.75 -56.35 L35.8 -55.2 Q35.25 -54.75 34.7 -54.75 L34.1 -54.9 Q33.7 -55.45 33.7 -56.25 33.7 -57.15 34.2 -57.9 34.7 -58.7 35.45 -58.95 L35.9 -59.0 Q37.15 -58.8 37.15 -57.7 37.15 -57.05 36.75 -56.35 M34.25 -51.0 L32.9 -48.1 31.8 -45.7 31.15 -43.95 30.5 -42.35 29.7 -40.4 29.0 -38.7 28.7 -38.65 Q28.3 -38.65 27.85 -39.0 27.35 -39.35 27.05 -39.65 25.9 -40.25 25.9 -40.95 L29.05 -47.1 30.5 -49.8 31.8 -52.0 32.5 -52.9 32.8 -52.95 33.25 -52.85 33.65 -52.75 34.15 -52.85 34.7 -53.0 35.05 -52.8 34.25 -51.0 Z" fill="none" stroke="#000000" stroke-linecap="round" stroke-linejoin="miter-clip" stroke-miterlimit="3.0" stroke-width="3.0"/>
    <path d="M45.6 -53.6 L44.6 -52.55 Q44.0 -52.2 43.45 -52.2 L42.85 -52.4 Q42.5 -52.95 42.55 -53.75 42.65 -54.65 43.2 -55.35 43.75 -56.1 44.55 -56.3 L45.0 -56.3 Q46.25 -56.0 46.15 -54.9 L45.6 -53.6 M42.7 -48.5 L41.1 -45.7 39.8 -43.4 39.0 -41.7 38.2 -40.15 37.25 -38.35 36.4 -36.7 36.1 -36.65 Q35.7 -36.7 35.35 -37.1 L34.6 -37.8 Q33.5 -38.5 33.55 -39.2 L37.15 -45.05 38.85 -47.6 40.3 -49.7 41.1 -50.55 41.4 -50.6 41.85 -50.45 Q42.05 -50.3 42.2 -50.3 L42.75 -50.35 43.3 -50.45 43.65 -50.25 42.7 -48.5" fill="#ffffff" fill-rule="evenodd" stroke="none"/>
    <path d="M45.6 -53.6 L44.6 -52.55 Q44.0 -52.2 43.45 -52.2 L42.85 -52.4 Q42.5 -52.95 42.55 -53.75 42.65 -54.65 43.2 -55.35 43.75 -56.1 44.55 -56.3 L45.0 -56.3 Q46.25 -56.0 46.15 -54.9 L45.6 -53.6 M42.7 -48.5 L41.1 -45.7 39.8 -43.4 39.0 -41.7 38.2 -40.15 37.25 -38.35 36.4 -36.7 36.1 -36.65 Q35.7 -36.7 35.35 -37.1 L34.6 -37.8 Q33.5 -38.5 33.55 -39.2 L37.15 -45.05 38.85 -47.6 40.3 -49.7 41.1 -50.55 41.4 -50.6 41.85 -50.45 Q42.05 -50.3 42.2 -50.3 L42.75 -50.35 43.3 -50.45 43.65 -50.25 42.7 -48.5 Z" fill="none" stroke="#000000" stroke-linecap="round" stroke-linejoin="miter-clip" stroke-miterlimit="3.0" stroke-width="3.0"/>
    <path d="M-15.85 -53.8 L-13.7 -55.35 -11.2 -56.45 -8.9 -57.05 -5.5 -57.35 -2.4 -56.75 Q-1.05 -56.3 -0.55 -55.2 L0.0 -53.55 Q0.55 -50.55 -1.8 -48.3 -4.1 -46.05 -8.05 -44.7 L-6.6 -43.45 -4.4 -42.05 -2.25 -40.45 -0.9 -38.7 -0.75 -38.4 -0.85 -37.9 -1.05 -37.35 -1.15 -36.65 -1.3 -35.95 -10.45 -42.25 -12.35 -34.5 -14.35 -34.85 -15.05 -34.95 Q-15.65 -35.0 -15.7 -35.25 L-11.55 -52.35 -13.6 -51.75 -15.55 -50.85 -15.7 -52.2 Q-15.7 -53.15 -15.85 -53.8 M-9.75 -47.05 Q-7.35 -48.3 -6.4 -48.9 L-4.45 -50.25 Q-3.6 -50.95 -3.2 -51.85 -2.8 -52.75 -2.9 -53.65 -3.55 -54.45 -5.65 -54.05 L-6.8 -53.8 -8.0 -53.55 -9.75 -47.05" fill="#ffffff" fill-rule="evenodd" stroke="none"/>
    <path d="M9.0 -57.95 L8.2 -56.7 Q7.75 -56.15 7.25 -56.1 L6.6 -56.2 Q6.15 -56.7 6.05 -57.5 5.9 -58.35 6.35 -59.15 6.75 -60.0 7.4 -60.35 L7.85 -60.45 Q9.1 -60.4 9.25 -59.3 L9.0 -57.95 M7.25 -52.35 L6.25 -49.3 5.45 -46.75 5.05 -44.95 4.6 -43.25 4.05 -41.2 3.6 -39.5 3.3 -39.4 Q2.9 -39.35 2.4 -39.65 L1.55 -40.15 Q0.3 -40.6 0.25 -41.3 L2.6 -47.8 3.65 -50.65 4.65 -53.0 5.25 -53.95 5.55 -54.05 6.0 -54.0 6.45 -53.95 Q6.65 -54.0 6.9 -54.15 L7.45 -54.35 7.75 -54.2 7.25 -52.35" fill="#ffffff" fill-rule="evenodd" stroke="none"/>
    <path d="M48.3 -49.15 L48.9 -50.25 49.15 -50.35 49.7 -50.05 50.15 -49.75 50.7 -49.85 51.3 -50.0 51.65 -49.8 51.3 -48.95 50.6 -47.85 51.6 -48.4 52.65 -49.0 53.75 -49.4 54.8 -49.55 Q55.65 -49.55 56.4 -48.9 57.35 -48.15 57.25 -46.8 57.2 -44.8 54.8 -40.9 L53.3 -38.3 52.45 -36.65 51.5 -35.1 Q51.15 -35.1 50.9 -35.35 L50.4 -35.8 49.85 -35.95 49.35 -36.1 Q49.2 -36.2 49.2 -36.5 49.25 -37.4 49.9 -38.7 L51.75 -42.35 53.5 -45.5 54.2 -47.2 Q53.3 -47.05 52.45 -46.4 L50.75 -45.05 49.35 -43.6 48.0 -42.1 46.7 -39.5 44.15 -35.2 43.55 -35.35 43.2 -35.75 43.0 -36.15 42.45 -36.45 Q42.1 -36.55 41.95 -36.7 41.75 -36.85 41.75 -37.15 L42.65 -38.85 43.95 -41.25 45.2 -43.5 46.3 -45.4 48.3 -49.15" fill="#ffffff" fill-rule="evenodd" stroke="none"/>
    <path d="M68.7 -45.0 Q69.5 -44.85 69.55 -44.45 L69.85 -44.7 70.25 -45.15 70.8 -44.85 Q71.05 -44.65 71.2 -44.6 L71.9 -44.65 72.65 -44.65 73.0 -44.55 71.05 -41.2 67.85 -35.7 65.9 -32.75 64.4 -30.1 62.8 -27.1 61.35 -25.0 59.9 -23.5 Q59.15 -23.05 58.25 -23.1 57.3 -23.2 56.3 -23.85 55.35 -24.5 54.75 -25.4 54.15 -26.35 54.25 -27.2 54.3 -28.05 55.1 -28.55 L55.7 -28.6 Q56.55 -28.55 57.1 -27.75 L57.95 -25.65 Q59.35 -27.15 60.65 -29.4 L61.7 -31.2 62.95 -33.15 60.5 -31.35 Q59.15 -30.65 58.05 -30.75 57.55 -30.75 57.05 -31.05 L56.3 -31.9 55.8 -33.4 56.45 -35.95 Q57.05 -37.5 58.35 -39.35 59.65 -41.15 61.95 -42.8 64.2 -44.4 67.4 -45.25 L68.7 -45.0 M68.05 -42.35 L67.7 -42.5 67.3 -42.45 66.65 -42.25 66.3 -42.15 Q65.15 -41.75 63.5 -40.5 61.8 -39.2 60.55 -37.55 59.25 -35.95 59.15 -34.8 L59.25 -33.95 Q59.9 -33.9 61.3 -34.85 L64.35 -37.25 67.0 -40.05 Q68.05 -41.4 68.1 -42.05 L68.05 -42.35" fill="#ffffff" fill-rule="evenodd" stroke="none"/>
    <path d="M18.15 -58.45 L17.3 -57.3 Q16.8 -56.8 16.25 -56.75 L15.65 -56.85 Q15.2 -57.35 15.1 -58.1 15.05 -59.0 15.5 -59.8 15.95 -60.65 16.65 -60.95 L17.1 -61.05 Q18.35 -60.95 18.45 -59.85 18.5 -59.2 18.15 -58.45 M16.1 -52.95 L14.95 -49.95 14.05 -47.45 13.55 -45.65 13.0 -44.0 12.35 -42.05 11.8 -40.3 11.5 -40.2 Q11.1 -40.2 10.65 -40.5 L9.8 -41.1 Q8.6 -41.6 8.5 -42.25 L11.2 -48.65 12.45 -51.45 13.55 -53.75 14.2 -54.7 14.5 -54.8 14.95 -54.75 15.35 -54.65 15.85 -54.8 16.4 -55.0 Q16.6 -55.0 16.75 -54.8 L16.1 -52.95" fill="#ffffff" fill-rule="evenodd" stroke="none"/>
    <path d="M28.0 -57.85 L27.05 -56.7 Q26.5 -56.25 25.95 -56.25 L25.35 -56.4 Q24.95 -56.95 24.95 -57.75 24.95 -58.65 25.45 -59.4 25.95 -60.2 26.7 -60.45 L27.15 -60.5 Q28.4 -60.3 28.4 -59.2 28.4 -58.55 28.0 -57.85 M25.5 -52.5 L24.15 -49.6 23.05 -47.2 22.4 -45.45 21.75 -43.85 20.95 -41.9 20.25 -40.2 19.95 -40.15 Q19.55 -40.15 19.1 -40.5 L18.3 -41.15 Q17.15 -41.75 17.15 -42.45 L20.3 -48.6 21.75 -51.3 23.05 -53.5 23.75 -54.4 24.05 -54.45 24.5 -54.35 24.9 -54.25 25.4 -54.35 25.95 -54.5 26.3 -54.3 25.5 -52.5" fill="#ffffff" fill-rule="evenodd" stroke="none"/>
    <path d="M37.0 -57.1 L36.05 -55.95 Q35.5 -55.5 34.95 -55.5 L34.35 -55.65 Q33.95 -56.2 33.95 -57.0 33.95 -57.9 34.45 -58.65 34.95 -59.45 35.7 -59.7 L36.15 -59.75 Q37.4 -59.55 37.4 -58.45 37.4 -57.8 37.0 -57.1 M34.5 -51.75 L33.15 -48.85 32.05 -46.45 31.4 -44.7 30.75 -43.1 29.95 -41.15 29.25 -39.45 28.95 -39.4 Q28.55 -39.4 28.1 -39.75 L27.3 -40.4 Q26.15 -41.0 26.15 -41.7 L29.3 -47.85 30.75 -50.55 32.05 -52.75 32.75 -53.65 33.05 -53.7 33.5 -53.6 33.9 -53.5 34.4 -53.6 34.95 -53.75 35.3 -53.55 34.5 -51.75" fill="#ffffff" fill-rule="evenodd" stroke="none"/>
    <path d="M45.85 -54.35 L44.85 -53.3 Q44.25 -52.95 43.7 -52.95 L43.1 -53.15 Q42.75 -53.7 42.8 -54.5 42.9 -55.4 43.45 -56.1 44.0 -56.85 44.8 -57.05 L45.25 -57.05 Q46.5 -56.75 46.4 -55.65 L45.85 -54.35 M42.95 -49.25 L41.35 -46.45 40.05 -44.15 39.25 -42.45 38.45 -40.9 37.5 -39.1 36.65 -37.45 36.35 -37.4 Q35.95 -37.45 35.6 -37.85 L34.85 -38.55 Q33.75 -39.25 33.8 -39.95 L37.4 -45.8 39.1 -48.35 40.55 -50.45 41.35 -51.3 41.65 -51.35 42.1 -51.2 Q42.3 -51.05 42.45 -51.05 L43.0 -51.1 43.55 -51.2 43.9 -51.0 42.95 -49.25" fill="#ffffff" fill-rule="evenodd" stroke="none"/>
  </g>
</svg>
