<?xml version="1.0" encoding="UTF-8" standalone="no"?>
<svg xmlns:ffdec="https://www.free-decompiler.com/flash" xmlns:xlink="http://www.w3.org/1999/xlink" ffdec:objectType="shape" height="39.3px" width="109.4px" xmlns="http://www.w3.org/2000/svg">
  <g transform="matrix(1.0, 0.0, 0.0, 1.0, 61.05, 19.4)">
    <path d="M2.95 -7.35 Q2.95 -7.9 2.2 -7.9 L0.4 -7.55 0.0 -5.75 -0.35 -3.95 1.4 -5.2 Q2.45 -6.05 2.8 -6.9 L2.95 -7.35 M2.9 -3.3 Q3.25 -2.35 5.95 3.0 L1.85 6.7 -0.95 -0.55 -1.0 -0.55 -1.95 5.8 -6.15 7.0 -5.55 3.5 -2.9 -11.7 Q1.25 -12.95 3.85 -12.95 7.4 -12.95 7.4 -10.45 7.35 -6.9 2.9 -3.3 M13.45 -4.35 L13.1 -2.65 14.8 -3.85 16.15 -5.45 16.25 -5.9 Q16.25 -6.4 15.55 -6.4 L13.85 -6.05 13.45 -4.35 M17.1 -11.15 Q20.45 -11.15 20.45 -8.85 20.45 -5.45 16.2 -2.05 L19.1 3.9 15.2 7.4 12.55 0.5 12.5 0.5 11.65 6.55 7.7 7.65 Q7.7 7.1 8.25 4.35 L10.75 -10.0 Q14.65 -11.15 17.1 -11.15 M28.45 -3.5 L28.6 -3.9 Q28.6 -4.35 27.9 -4.35 L26.3 -4.05 25.95 -2.45 25.6 -0.85 27.2 -1.95 28.45 -3.5 M29.4 -8.85 Q32.55 -8.85 32.55 -6.65 32.5 -3.5 28.55 -0.3 L31.25 5.3 27.6 8.65 25.1 2.15 25.05 2.15 24.2 7.85 20.5 8.9 21.0 5.75 23.4 -7.7 Q27.05 -8.85 29.4 -8.85 M39.5 -1.35 L38.0 -1.05 37.7 0.45 37.4 1.95 38.9 0.9 40.05 -0.55 40.15 -0.9 Q40.15 -1.35 39.5 -1.35 M43.85 -3.5 Q43.85 -0.55 40.1 2.45 L42.65 7.7 39.2 10.85 36.9 4.75 36.85 4.75 36.05 10.1 32.6 11.05 33.05 8.15 35.3 -4.5 Q38.75 -5.55 40.9 -5.55 43.85 -5.55 43.85 -3.5 M-41.8 -14.9 Q-37.65 -14.9 -35.95 -10.3 L-40.25 -5.75 Q-40.9 -6.75 -42.3 -6.75 -44.95 -6.75 -47.3 -3.05 -49.0 -0.35 -49.9 3.05 -50.3 4.35 -50.3 5.35 -50.3 7.05 -49.4 7.95 -48.55 9.1 -46.95 9.1 -45.1 9.1 -43.55 7.35 -42.3 6.05 -41.5 4.05 L-46.9 5.25 -45.65 -0.5 -35.35 -2.65 Q-35.2 -0.15 -36.4 3.1 -37.45 5.95 -39.0 8.45 -43.55 15.4 -49.8 15.4 -53.95 15.4 -55.6 10.95 -56.55 8.75 -56.55 5.95 -56.55 3.35 -55.75 0.25 -54.35 -5.05 -50.8 -9.5 -46.55 -14.9 -41.8 -14.9 M-28.05 -6.55 L-28.5 -4.55 -28.9 -2.55 Q-27.9 -3.1 -26.9 -3.95 -25.75 -4.9 -25.35 -5.85 L-25.2 -6.35 Q-25.2 -6.95 -26.05 -6.95 L-28.05 -6.55 M-24.2 -12.55 Q-20.25 -12.55 -20.25 -9.8 -20.3 -5.85 -25.25 -1.85 L-21.85 5.15 -26.45 9.3 -29.55 1.2 -29.6 1.2 -30.65 8.3 -35.3 9.6 -34.65 5.7 -31.7 -11.15 Q-27.1 -12.55 -24.2 -12.55 M-10.65 -8.15 Q-10.65 -8.7 -11.45 -8.7 L-13.35 -8.3 -13.8 -6.4 -14.15 -4.5 -12.25 -5.85 Q-11.15 -6.75 -10.8 -7.65 L-10.65 -8.15 M-14.85 -0.95 L-15.85 5.8 -20.25 7.0 -19.65 3.3 -16.8 -12.7 Q-12.45 -14.0 -9.7 -14.0 -5.95 -14.0 -5.95 -11.4 -6.0 -7.65 -10.7 -3.85 L-7.45 2.8 -11.85 6.75 -14.8 -0.95 -14.85 -0.95" fill="#ffffff" fill-rule="evenodd" stroke="none"/>
    <path d="M2.95 -7.35 Q2.95 -7.9 2.2 -7.9 L0.4 -7.55 0.0 -5.75 -0.35 -3.95 1.4 -5.2 Q2.45 -6.05 2.8 -6.9 L2.95 -7.35 M2.9 -3.3 Q3.25 -2.35 5.95 3.0 L1.85 6.7 -0.95 -0.55 -1.0 -0.55 -1.95 5.8 -6.15 7.0 -5.55 3.5 -2.9 -11.7 Q1.25 -12.95 3.85 -12.95 7.4 -12.95 7.4 -10.45 7.35 -6.9 2.9 -3.3 M13.45 -4.35 L13.1 -2.65 14.8 -3.85 16.15 -5.45 16.25 -5.9 Q16.25 -6.4 15.55 -6.4 L13.85 -6.05 13.45 -4.35 M17.1 -11.15 Q20.45 -11.15 20.45 -8.85 20.45 -5.45 16.2 -2.05 L19.1 3.9 15.2 7.4 12.55 0.5 12.5 0.5 11.65 6.55 7.7 7.65 Q7.7 7.1 8.25 4.35 L10.75 -10.0 Q14.65 -11.15 17.1 -11.15 M28.45 -3.5 L28.6 -3.9 Q28.6 -4.35 27.9 -4.35 L26.3 -4.05 25.95 -2.45 25.6 -0.85 27.2 -1.95 28.45 -3.5 M29.4 -8.85 Q32.55 -8.85 32.55 -6.65 32.5 -3.5 28.55 -0.3 L31.25 5.3 27.6 8.65 25.1 2.15 25.05 2.15 24.2 7.85 20.5 8.9 21.0 5.75 23.4 -7.7 Q27.05 -8.85 29.4 -8.85 M39.5 -1.35 L38.0 -1.05 37.7 0.45 37.4 1.95 38.9 0.9 40.05 -0.55 40.15 -0.9 Q40.15 -1.35 39.5 -1.35 M43.85 -3.5 Q43.85 -0.55 40.1 2.45 L42.65 7.7 39.2 10.85 36.9 4.75 36.85 4.75 36.05 10.1 32.6 11.05 33.05 8.15 35.3 -4.5 Q38.75 -5.55 40.9 -5.55 43.85 -5.55 43.85 -3.5 M-41.8 -14.9 Q-37.65 -14.9 -35.95 -10.3 L-40.25 -5.75 Q-40.9 -6.75 -42.3 -6.75 -44.95 -6.75 -47.3 -3.05 -49.0 -0.35 -49.9 3.05 -50.3 4.35 -50.3 5.35 -50.3 7.05 -49.4 7.95 -48.55 9.1 -46.95 9.1 -45.1 9.1 -43.55 7.35 -42.3 6.05 -41.5 4.05 L-46.9 5.25 -45.65 -0.5 -35.35 -2.65 Q-35.2 -0.15 -36.4 3.1 -37.45 5.95 -39.0 8.45 -43.55 15.4 -49.8 15.4 -53.95 15.4 -55.6 10.95 -56.55 8.75 -56.55 5.95 -56.55 3.35 -55.75 0.25 -54.35 -5.05 -50.8 -9.5 -46.55 -14.9 -41.8 -14.9 M-28.05 -6.55 L-28.5 -4.55 -28.9 -2.55 Q-27.9 -3.1 -26.9 -3.95 -25.75 -4.9 -25.35 -5.85 L-25.2 -6.35 Q-25.2 -6.95 -26.05 -6.95 L-28.05 -6.55 M-24.2 -12.55 Q-20.25 -12.55 -20.25 -9.8 -20.3 -5.85 -25.25 -1.85 L-21.85 5.15 -26.45 9.3 -29.55 1.2 -29.6 1.2 -30.65 8.3 -35.3 9.6 -34.65 5.7 -31.7 -11.15 Q-27.1 -12.55 -24.2 -12.55 M-10.65 -8.15 Q-10.65 -8.7 -11.45 -8.7 L-13.35 -8.3 -13.8 -6.4 -14.15 -4.5 -12.25 -5.85 Q-11.15 -6.75 -10.8 -7.65 L-10.65 -8.15 M-14.85 -0.95 L-15.85 5.8 -20.25 7.0 -19.65 3.3 -16.8 -12.7 Q-12.45 -14.0 -9.7 -14.0 -5.95 -14.0 -5.95 -11.4 -6.0 -7.65 -10.7 -3.85 L-7.45 2.8 -11.85 6.75 -14.8 -0.95 -14.85 -0.95 Z" fill="none" stroke="#000000" stroke-linecap="round" stroke-linejoin="round" stroke-width="9.0"/>
    <path d="M2.9 -3.3 Q3.25 -2.35 5.95 3.0 L1.85 6.7 -0.95 -0.55 -1.0 -0.55 -1.95 5.8 -6.15 7.0 -5.55 3.5 -2.9 -11.7 Q1.25 -12.95 3.85 -12.95 7.4 -12.95 7.4 -10.45 7.35 -6.9 2.9 -3.3 M2.95 -7.35 Q2.95 -7.9 2.2 -7.9 L0.4 -7.55 0.0 -5.75 -0.35 -3.95 1.4 -5.2 Q2.45 -6.05 2.8 -6.9 L2.95 -7.35 M17.1 -11.15 Q20.45 -11.15 20.45 -8.85 20.45 -5.45 16.2 -2.05 L19.1 3.9 15.2 7.4 12.55 0.5 12.5 0.5 11.65 6.55 7.7 7.65 Q7.7 7.1 8.25 4.35 L10.75 -10.0 Q14.65 -11.15 17.1 -11.15 M13.45 -4.35 L13.1 -2.65 14.8 -3.85 16.15 -5.45 16.25 -5.9 Q16.25 -6.4 15.55 -6.4 L13.85 -6.05 13.45 -4.35 M29.4 -8.85 Q32.55 -8.85 32.55 -6.65 32.5 -3.5 28.55 -0.3 L31.25 5.3 27.6 8.65 25.1 2.15 25.05 2.15 24.2 7.85 20.5 8.9 21.0 5.75 23.4 -7.7 Q27.05 -8.85 29.4 -8.85 M28.45 -3.5 L28.6 -3.9 Q28.6 -4.35 27.9 -4.35 L26.3 -4.05 25.95 -2.45 25.6 -0.85 27.2 -1.95 28.45 -3.5 M39.5 -1.35 L38.0 -1.05 37.7 0.45 37.4 1.95 38.9 0.9 40.05 -0.55 40.15 -0.9 Q40.15 -1.35 39.5 -1.35 M43.85 -3.5 Q43.85 -0.55 40.1 2.45 L42.65 7.7 39.2 10.85 36.9 4.75 36.85 4.75 36.05 10.1 32.6 11.05 33.05 8.15 35.3 -4.5 Q38.75 -5.55 40.9 -5.55 43.85 -5.55 43.85 -3.5 M-41.8 -14.9 Q-37.65 -14.9 -35.95 -10.3 L-40.25 -5.75 Q-40.9 -6.75 -42.3 -6.75 -44.95 -6.75 -47.3 -3.05 -49.0 -0.35 -49.9 3.05 -50.3 4.35 -50.3 5.35 -50.3 7.05 -49.4 7.95 -48.55 9.1 -46.95 9.1 -45.1 9.1 -43.55 7.35 -42.3 6.05 -41.5 4.05 L-46.9 5.25 -45.65 -0.5 -35.35 -2.65 Q-35.2 -0.15 -36.4 3.1 -37.45 5.95 -39.0 8.45 -43.55 15.4 -49.8 15.4 -53.95 15.4 -55.6 10.95 -56.55 8.75 -56.55 5.95 -56.55 3.35 -55.75 0.25 -54.35 -5.05 -50.8 -9.5 -46.55 -14.9 -41.8 -14.9 M-28.05 -6.55 L-28.5 -4.55 -28.9 -2.55 Q-27.9 -3.1 -26.9 -3.95 -25.75 -4.9 -25.35 -5.85 L-25.2 -6.35 Q-25.2 -6.95 -26.05 -6.95 L-28.05 -6.55 M-24.2 -12.55 Q-20.25 -12.55 -20.25 -9.8 -20.3 -5.85 -25.25 -1.85 L-21.85 5.15 -26.45 9.3 -29.55 1.2 -29.6 1.2 -30.65 8.3 -35.3 9.6 -34.65 5.7 -31.7 -11.15 Q-27.1 -12.55 -24.2 -12.55 M-14.85 -0.95 L-15.85 5.8 -20.25 7.0 -19.65 3.3 -16.8 -12.7 Q-12.45 -14.0 -9.7 -14.0 -5.95 -14.0 -5.95 -11.4 -6.0 -7.65 -10.7 -3.85 L-7.45 2.8 -11.85 6.75 -14.8 -0.95 -14.85 -0.95 M-10.65 -8.15 Q-10.65 -8.7 -11.45 -8.7 L-13.35 -8.3 -13.8 -6.4 -14.15 -4.5 -12.25 -5.85 Q-11.15 -6.75 -10.8 -7.65 L-10.65 -8.15" fill="#ffffff" fill-rule="evenodd" stroke="none"/>
    <path d="M2.9 -3.3 Q3.25 -2.35 5.95 3.0 L1.85 6.7 -0.95 -0.55 -1.0 -0.55 -1.95 5.8 -6.15 7.0 -5.55 3.5 -2.9 -11.7 Q1.25 -12.95 3.85 -12.95 7.4 -12.95 7.4 -10.45 7.35 -6.9 2.9 -3.3 M2.95 -7.35 Q2.95 -7.9 2.2 -7.9 L0.4 -7.55 0.0 -5.75 -0.35 -3.95 1.4 -5.2 Q2.45 -6.05 2.8 -6.9 L2.95 -7.35 M17.1 -11.15 Q20.45 -11.15 20.45 -8.85 20.45 -5.45 16.2 -2.05 L19.1 3.9 15.2 7.4 12.55 0.5 12.5 0.5 11.65 6.55 7.7 7.65 Q7.7 7.1 8.25 4.35 L10.75 -10.0 Q14.65 -11.15 17.1 -11.15 M13.45 -4.35 L13.1 -2.65 14.8 -3.85 16.15 -5.45 16.25 -5.9 Q16.25 -6.4 15.55 -6.4 L13.85 -6.05 13.45 -4.35 M29.4 -8.85 Q32.55 -8.85 32.55 -6.65 32.5 -3.5 28.55 -0.3 L31.25 5.3 27.6 8.65 25.1 2.15 25.05 2.15 24.2 7.85 20.5 8.9 21.0 5.75 23.4 -7.7 Q27.05 -8.85 29.4 -8.85 M28.45 -3.5 L28.6 -3.9 Q28.6 -4.35 27.9 -4.35 L26.3 -4.05 25.95 -2.45 25.6 -0.85 27.2 -1.95 28.45 -3.5 M39.5 -1.35 L38.0 -1.05 37.7 0.45 37.4 1.95 38.9 0.9 40.05 -0.55 40.15 -0.9 Q40.15 -1.35 39.5 -1.35 M43.85 -3.5 Q43.85 -0.55 40.1 2.45 L42.65 7.7 39.2 10.85 36.9 4.75 36.85 4.75 36.05 10.1 32.6 11.05 33.05 8.15 35.3 -4.5 Q38.75 -5.55 40.9 -5.55 43.85 -5.55 43.85 -3.5 M-41.8 -14.9 Q-37.65 -14.9 -35.95 -10.3 L-40.25 -5.75 Q-40.9 -6.75 -42.3 -6.75 -44.95 -6.75 -47.3 -3.05 -49.0 -0.35 -49.9 3.05 -50.3 4.35 -50.3 5.35 -50.3 7.05 -49.4 7.95 -48.55 9.1 -46.95 9.1 -45.1 9.1 -43.55 7.35 -42.3 6.05 -41.5 4.05 L-46.9 5.25 -45.65 -0.5 -35.35 -2.65 Q-35.2 -0.15 -36.4 3.1 -37.45 5.95 -39.0 8.45 -43.55 15.4 -49.8 15.4 -53.95 15.4 -55.6 10.95 -56.55 8.75 -56.55 5.95 -56.55 3.35 -55.75 0.25 -54.35 -5.05 -50.8 -9.5 -46.55 -14.9 -41.8 -14.9 M-28.05 -6.55 L-28.5 -4.55 -28.9 -2.55 Q-27.9 -3.1 -26.9 -3.95 -25.75 -4.9 -25.35 -5.85 L-25.2 -6.35 Q-25.2 -6.95 -26.05 -6.95 L-28.05 -6.55 M-24.2 -12.55 Q-20.25 -12.55 -20.25 -9.8 -20.3 -5.85 -25.25 -1.85 L-21.85 5.15 -26.45 9.3 -29.55 1.2 -29.6 1.2 -30.65 8.3 -35.3 9.6 -34.65 5.7 -31.7 -11.15 Q-27.1 -12.55 -24.2 -12.55 M-14.85 -0.95 L-15.85 5.8 -20.25 7.0 -19.65 3.3 -16.8 -12.7 Q-12.45 -14.0 -9.7 -14.0 -5.95 -14.0 -5.95 -11.4 -6.0 -7.65 -10.7 -3.85 L-7.45 2.8 -11.85 6.75 -14.8 -0.95 -14.85 -0.95 M-10.65 -8.15 Q-10.65 -8.7 -11.45 -8.7 L-13.35 -8.3 -13.8 -6.4 -14.15 -4.5 -12.25 -5.85 Q-11.15 -6.75 -10.8 -7.65 L-10.65 -8.15 Z" fill="none" stroke="#ffffff" stroke-linecap="round" stroke-linejoin="round" stroke-width="7.0"/>
    <path d="M-50.8 -9.5 Q-46.55 -14.9 -41.8 -14.9 -37.65 -14.9 -35.95 -10.3 L-40.25 -5.75 Q-40.9 -6.75 -42.3 -6.75 -44.95 -6.75 -47.3 -3.05 -49.0 -0.35 -49.9 3.05 -50.3 4.35 -50.3 5.35 -50.3 7.05 -49.4 7.95 -48.55 9.1 -46.95 9.1 -45.1 9.1 -43.55 7.35 -42.3 6.05 -41.5 4.05 L-46.9 5.25 -45.65 -0.5 -35.35 -2.65 Q-35.2 -0.15 -36.4 3.1 -37.45 5.95 -39.0 8.45 -43.55 15.4 -49.8 15.4 -53.95 15.4 -55.6 10.95 -56.55 8.75 -56.55 5.95 -56.55 3.35 -55.75 0.25 -54.35 -5.05 -50.8 -9.5" fill="#000000" fill-rule="evenodd" stroke="none"/>
    <path d="M-24.2 -12.55 Q-20.25 -12.55 -20.25 -9.8 -20.3 -5.85 -25.25 -1.85 L-21.85 5.15 -26.45 9.3 -29.55 1.2 -29.6 1.2 -30.65 8.3 -35.3 9.6 -34.65 5.7 -31.7 -11.15 Q-27.1 -12.55 -24.2 -12.55 M-26.05 -6.95 L-28.05 -6.55 -28.5 -4.55 -28.9 -2.55 Q-27.9 -3.1 -26.9 -3.95 -25.75 -4.9 -25.35 -5.85 L-25.2 -6.35 Q-25.2 -6.95 -26.05 -6.95" fill="#000000" fill-rule="evenodd" stroke="none"/>
    <path d="M-13.35 -8.3 L-13.8 -6.4 -14.15 -4.5 -12.25 -5.85 Q-11.15 -6.75 -10.8 -7.65 L-10.65 -8.15 Q-10.65 -8.7 -11.45 -8.7 L-13.35 -8.3 M-5.95 -11.4 Q-6.0 -7.65 -10.7 -3.85 L-7.45 2.8 -11.85 6.75 -14.8 -0.95 -14.85 -0.95 -15.85 5.8 -20.25 7.0 -19.65 3.3 -16.8 -12.7 Q-12.45 -14.0 -9.7 -14.0 -5.95 -14.0 -5.95 -11.4" fill="#000000" fill-rule="evenodd" stroke="none"/>
    <path d="M2.9 -3.3 Q3.25 -2.35 5.95 3.0 L1.85 6.7 -0.95 -0.55 -1.0 -0.55 -1.95 5.8 -6.15 7.0 -5.55 3.5 -2.9 -11.7 Q1.25 -12.95 3.85 -12.95 7.4 -12.95 7.4 -10.45 7.35 -6.9 2.9 -3.3 M0.4 -7.55 L0.0 -5.75 -0.35 -3.95 1.4 -5.2 Q2.45 -6.05 2.8 -6.9 L2.95 -7.35 Q2.95 -7.9 2.2 -7.9 L0.4 -7.55" fill="#000000" fill-rule="evenodd" stroke="none"/>
    <path d="M17.1 -11.15 Q20.45 -11.15 20.45 -8.85 20.45 -5.45 16.2 -2.05 L19.1 3.9 15.2 7.4 12.55 0.5 12.5 0.5 11.65 6.55 7.7 7.65 Q7.7 7.1 8.25 4.35 L10.75 -10.0 Q14.65 -11.15 17.1 -11.15 M15.55 -6.4 L13.85 -6.05 13.45 -4.35 13.1 -2.65 14.8 -3.85 16.15 -5.45 16.25 -5.9 Q16.25 -6.4 15.55 -6.4" fill="#000000" fill-rule="evenodd" stroke="none"/>
    <path d="M26.3 -4.05 L25.95 -2.45 25.6 -0.85 27.2 -1.95 28.45 -3.5 28.6 -3.9 Q28.6 -4.35 27.9 -4.35 L26.3 -4.05 M28.55 -0.3 L31.25 5.3 27.6 8.65 25.1 2.15 25.05 2.15 24.2 7.85 20.5 8.9 21.0 5.75 23.4 -7.7 Q27.05 -8.85 29.4 -8.85 32.55 -8.85 32.55 -6.65 32.5 -3.5 28.55 -0.3" fill="#000000" fill-rule="evenodd" stroke="none"/>
    <path d="M43.85 -3.5 Q43.85 -0.55 40.1 2.45 L42.65 7.7 39.2 10.85 36.9 4.75 36.85 4.75 36.05 10.1 32.6 11.05 33.05 8.15 35.3 -4.5 Q38.75 -5.55 40.9 -5.55 43.85 -5.55 43.85 -3.5 M40.15 -0.9 Q40.15 -1.35 39.5 -1.35 L38.0 -1.05 37.7 0.45 37.4 1.95 38.9 0.9 40.05 -0.55 40.15 -0.9" fill="#000000" fill-rule="evenodd" stroke="none"/>
  </g>
</svg>
