<?xml version="1.0" encoding="UTF-8" standalone="no"?>
<svg xmlns:ffdec="https://www.free-decompiler.com/flash" xmlns:xlink="http://www.w3.org/1999/xlink" ffdec:objectType="shape" height="58.95px" width="79.35px" xmlns="http://www.w3.org/2000/svg">
  <g transform="matrix(1.0, 0.0, 0.0, 1.0, 38.4, 25.7)">
    <path d="M5.25 -15.95 L17.7 -21.45 16.1 -11.25 27.6 -11.35 22.7 -2.55 32.8 2.2 23.25 7.75 28.65 20.45 18.15 17.95 17.8 26.75 7.35 22.55 0.2 32.3 -4.8 23.0 -14.75 28.0 -15.65 18.25 -26.75 20.15 -22.3 9.55 -32.35 4.75 -22.8 -0.75 -28.45 -11.4 -17.2 -9.95 -18.15 -20.15 -6.95 -15.5 0.75 -24.8 5.25 -15.95" fill="#ffffff" fill-opacity="0.49803922" fill-rule="evenodd" stroke="none"/>
    <path d="M5.25 -15.95 L17.7 -21.45 16.1 -11.25 27.6 -11.35 22.7 -2.55 32.8 2.2 23.25 7.75 28.65 20.45 18.15 17.95 17.8 26.75 7.35 22.55 0.2 32.3 -4.8 23.0 -14.75 28.0 -15.65 18.25 -26.75 20.15 -22.3 9.55 -32.35 4.75 -22.8 -0.75 -28.45 -11.4 -17.2 -9.95 -18.15 -20.15 -6.95 -15.5 0.75 -24.8 5.25 -15.95 Z" fill="none" stroke="#000000" stroke-linecap="round" stroke-linejoin="miter-clip" stroke-miterlimit="3.0" stroke-opacity="0.49803922" stroke-width="1.0"/>
    <path d="M-26.8 0.65 L-26.4 2.2 -26.05 3.7 Q-24.2 3.25 -23.4 2.55 -22.65 1.85 -22.8 1.15 -23.0 0.5 -23.95 0.35 L-26.8 0.65 M-29.4 -6.2 L-24.9 -6.9 -20.75 -6.7 Q-18.8 -6.3 -17.35 -5.1 -15.9 -3.9 -15.2 -1.75 -14.85 -0.7 -15.05 0.85 -15.2 2.35 -16.15 4.0 -17.05 5.6 -19.05 7.05 -21.05 8.5 -24.4 9.4 L-23.9 11.4 -23.45 13.2 -23.2 13.85 -26.25 14.8 -28.9 15.65 -30.8 16.25 -31.6 16.45 -34.1 6.3 -36.65 -3.45 -33.45 -4.85 -29.4 -6.2" fill="#ffffff" fill-rule="evenodd" stroke="none"/>
    <path d="M-29.4 -6.2 L-33.45 -4.85 -36.65 -3.45 -34.1 6.3 -31.6 16.45 -30.8 16.25 -28.9 15.65 -26.25 14.8 -23.2 13.85 -23.45 13.2 -23.9 11.4 -24.4 9.4 Q-21.05 8.5 -19.05 7.05 -17.05 5.6 -16.15 4.0 -15.2 2.35 -15.05 0.85 -14.85 -0.7 -15.2 -1.75 -15.9 -3.9 -17.35 -5.1 -18.8 -6.3 -20.75 -6.7 L-24.9 -6.9 -29.4 -6.2 M-26.8 0.65 L-23.95 0.35 Q-23.0 0.5 -22.8 1.15 -22.65 1.85 -23.4 2.55 -24.2 3.25 -26.05 3.7 L-26.4 2.2 -26.8 0.65 Z" fill="none" stroke="#000000" stroke-linecap="round" stroke-linejoin="miter-clip" stroke-miterlimit="3.0" stroke-width="3.0"/>
    <path d="M-1.7 -0.05 Q-3.3 -0.05 -4.45 0.85 -5.55 1.7 -5.65 3.05 -5.55 4.35 -4.45 5.2 -3.3 6.05 -1.7 6.1 0.0 6.05 1.1 5.2 2.25 4.35 2.25 3.05 2.25 1.7 1.1 0.85 0.0 -0.05 -1.7 -0.05 M5.8 -9.05 Q9.1 -7.35 11.05 -4.45 13.0 -1.55 13.2 2.05 13.35 4.65 12.35 7.05 11.45 9.35 9.45 11.2 7.45 13.1 4.45 14.2 1.5 15.3 -2.45 15.35 -5.55 15.35 -8.3 14.45 -11.05 13.6 -13.2 11.95 -15.25 10.3 -16.45 7.85 -17.65 5.4 -17.65 2.3 -17.55 -0.95 -16.25 -3.4 -14.9 -5.85 -12.65 -7.45 -10.4 -9.15 -7.65 -9.95 L-1.95 -10.8 Q2.5 -10.8 5.8 -9.05" fill="#ffffff" fill-rule="evenodd" stroke="none"/>
    <path d="M5.8 -9.05 Q2.5 -10.8 -1.95 -10.8 L-7.65 -9.95 Q-10.4 -9.15 -12.65 -7.45 -14.9 -5.85 -16.25 -3.4 -17.55 -0.95 -17.65 2.3 -17.65 5.4 -16.45 7.85 -15.25 10.3 -13.2 11.95 -11.05 13.6 -8.3 14.45 -5.55 15.35 -2.45 15.35 1.5 15.3 4.45 14.2 7.45 13.1 9.45 11.2 11.45 9.35 12.35 7.05 13.35 4.65 13.2 2.05 13.0 -1.55 11.05 -4.45 9.1 -7.35 5.8 -9.05 M-1.7 -0.05 Q0.0 -0.05 1.1 0.85 2.25 1.7 2.25 3.05 2.25 4.35 1.1 5.2 0.0 6.05 -1.7 6.1 -3.3 6.05 -4.45 5.2 -5.55 4.35 -5.65 3.05 -5.55 1.7 -4.45 0.85 -3.3 -0.05 -1.7 -0.05 Z" fill="none" stroke="#000000" stroke-linecap="round" stroke-linejoin="miter-clip" stroke-miterlimit="3.0" stroke-width="3.0"/>
    <path d="M12.35 -3.5 L12.2 -7.4 15.4 -7.45 18.2 -7.5 20.25 -7.4 21.05 -7.4 21.05 -6.6 21.1 -4.5 21.2 -1.55 21.3 1.85 21.75 1.25 22.9 -0.15 24.5 -2.0 24.9 -1.25 25.65 0.5 26.55 2.6 27.6 0.2 28.65 -2.2 29.45 -4.0 29.8 -4.75 31.15 -4.5 34.4 -3.95 38.9 -3.0 36.9 1.5 35.35 5.1 34.0 8.1 32.6 11.15 30.95 14.75 28.7 14.6 26.5 14.4 24.8 14.25 24.1 14.2 23.8 12.05 23.4 10.0 23.2 8.5 23.05 7.9 22.65 8.65 21.5 10.5 20.0 13.15 17.7 12.7 15.55 12.15 14.0 11.75 13.35 11.6 13.15 8.9 12.95 5.2 12.65 0.9 12.35 -3.5" fill="#ffffff" fill-rule="evenodd" stroke="none"/>
    <path d="M12.35 -3.5 L12.65 0.9 12.95 5.2 13.15 8.9 13.35 11.6 14.0 11.75 15.55 12.15 17.7 12.7 20.0 13.15 21.5 10.5 22.65 8.65 23.05 7.9 23.2 8.5 23.4 10.0 23.8 12.05 24.1 14.2 24.8 14.25 26.5 14.4 28.7 14.6 30.95 14.75 32.6 11.15 34.0 8.1 35.35 5.1 36.9 1.5 38.9 -3.0 34.4 -3.95 31.15 -4.5 29.8 -4.75 29.45 -4.0 28.65 -2.2 27.6 0.2 26.55 2.6 25.65 0.5 24.9 -1.25 24.5 -2.0 22.9 -0.15 21.75 1.25 21.3 1.85 21.2 -1.55 21.1 -4.5 21.05 -6.6 21.05 -7.4 20.25 -7.4 18.2 -7.5 15.4 -7.45 12.2 -7.4 12.35 -3.5 Z" fill="none" stroke="#000000" stroke-linecap="round" stroke-linejoin="miter-clip" stroke-miterlimit="3.0" stroke-width="3.0"/>
    <path d="M-22.8 1.15 Q-23.0 0.5 -23.95 0.35 L-26.8 0.65 -26.4 2.2 -26.05 3.7 Q-24.2 3.25 -23.4 2.55 -22.65 1.85 -22.8 1.15 M-36.65 -3.45 L-33.45 -4.85 -29.4 -6.2 -24.9 -6.9 -20.75 -6.7 Q-18.8 -6.3 -17.35 -5.1 -15.9 -3.9 -15.2 -1.75 -14.85 -0.7 -15.05 0.85 -15.2 2.35 -16.15 4.0 -17.05 5.6 -19.05 7.05 -21.05 8.5 -24.4 9.4 L-23.9 11.4 -23.45 13.2 -23.2 13.85 -26.25 14.8 -28.9 15.65 -30.8 16.25 -31.6 16.45 -34.1 6.3 -36.65 -3.45" fill="#ffffff" fill-rule="evenodd" stroke="none"/>
    <path d="M-1.7 -0.05 Q-3.3 -0.05 -4.45 0.85 -5.55 1.7 -5.65 3.05 -5.55 4.35 -4.45 5.2 -3.3 6.05 -1.7 6.1 0.0 6.05 1.1 5.2 2.25 4.35 2.25 3.05 2.25 1.7 1.1 0.85 0.0 -0.05 -1.7 -0.05 M5.8 -9.05 Q9.1 -7.35 11.05 -4.45 13.0 -1.55 13.2 2.05 13.35 4.65 12.35 7.05 11.45 9.35 9.45 11.2 7.45 13.1 4.45 14.2 1.5 15.3 -2.45 15.35 -5.55 15.35 -8.3 14.45 -11.05 13.6 -13.2 11.95 -15.25 10.3 -16.45 7.85 -17.65 5.4 -17.65 2.3 -17.55 -0.95 -16.25 -3.4 -14.9 -5.85 -12.65 -7.45 -10.4 -9.15 -7.65 -9.95 L-1.95 -10.8 Q2.5 -10.8 5.8 -9.05" fill="#ffffff" fill-rule="evenodd" stroke="none"/>
    <path d="M12.35 -3.5 L12.2 -7.4 15.4 -7.45 18.2 -7.5 20.25 -7.4 21.05 -7.4 21.05 -6.6 21.1 -4.5 21.2 -1.55 21.3 1.85 21.75 1.25 22.9 -0.15 24.5 -2.0 24.9 -1.25 25.65 0.5 26.55 2.6 27.6 0.2 28.65 -2.2 29.45 -4.0 29.8 -4.75 31.15 -4.5 34.4 -3.95 38.9 -3.0 36.9 1.5 35.35 5.1 34.0 8.1 32.6 11.15 30.95 14.75 28.7 14.6 26.5 14.4 24.8 14.25 24.1 14.2 23.8 12.05 23.4 10.0 23.2 8.5 23.05 7.9 22.65 8.65 21.5 10.5 20.0 13.15 17.7 12.7 15.55 12.15 14.0 11.75 13.35 11.6 13.15 8.9 12.95 5.2 12.65 0.9 12.35 -3.5" fill="#ffffff" fill-rule="evenodd" stroke="none"/>
  </g>
</svg>
