<?xml version="1.0" encoding="UTF-8" standalone="no"?>
<svg xmlns:ffdec="https://www.free-decompiler.com/flash" xmlns:xlink="http://www.w3.org/1999/xlink" ffdec:objectType="shape" height="50.0px" width="164.25px" xmlns="http://www.w3.org/2000/svg">
  <g transform="matrix(1.0, 0.0, 0.0, 1.0, 80.95, 22.95)">
    <path d="M-47.4 8.65 L-47.4 8.5 -47.45 8.3 -47.85 7.6 Q-48.2 7.4 -48.65 7.35 L-49.5 7.35 -50.35 7.45 -51.6 7.9 -50.35 11.7 -50.0 11.7 -49.75 11.6 -48.8 11.3 -47.95 10.85 -47.25 10.15 Q-47.05 9.75 -47.15 9.2 L-47.4 8.65 M-54.05 1.15 L-52.9 4.1 -52.0 3.8 -51.3 3.25 -50.75 2.6 -50.8 1.65 -51.15 1.05 -51.8 0.8 -52.55 0.75 -53.25 0.85 -53.65 1.0 -54.05 1.15 M-52.5 -5.0 L-50.65 -5.15 -48.9 -4.95 -47.3 -4.45 -45.95 -3.4 Q-45.5 -2.75 -45.25 -1.8 L-45.0 -0.5 -45.25 0.7 -45.9 1.75 -46.9 2.45 -46.4 2.35 -43.9 2.3 Q-42.7 2.5 -41.8 3.25 -40.9 3.95 -40.3 5.0 -39.65 6.1 -39.35 7.35 -39.0 8.65 -39.15 9.7 -39.3 10.8 -39.85 11.7 -40.4 12.65 -41.2 13.3 L-43.0 14.6 -45.1 15.55 -47.2 16.25 -51.6 17.3 -56.1 18.35 -62.25 -1.85 -58.9 -3.1 -55.5 -4.3 -54.8 -4.45 -54.1 -4.65 -52.5 -5.0" fill="#ffffff" fill-rule="evenodd" stroke="none"/>
    <path d="M-52.5 -5.0 L-54.1 -4.65 -54.8 -4.45 -55.5 -4.3 -58.9 -3.1 -62.25 -1.85 -56.1 18.35 -51.6 17.3 -47.2 16.25 -45.1 15.55 -43.0 14.6 -41.2 13.3 Q-40.4 12.65 -39.85 11.7 -39.3 10.8 -39.15 9.7 -39.0 8.65 -39.35 7.35 -39.65 6.1 -40.3 5.0 -40.9 3.95 -41.8 3.25 -42.7 2.5 -43.9 2.3 L-46.4 2.35 -46.9 2.45 -45.9 1.75 -45.25 0.7 -45.0 -0.5 -45.25 -1.8 Q-45.5 -2.75 -45.95 -3.4 L-47.3 -4.45 -48.9 -4.95 -50.65 -5.15 -52.5 -5.0 M-54.05 1.15 L-53.65 1.0 -53.25 0.85 -52.55 0.75 -51.8 0.8 -51.15 1.05 -50.8 1.65 -50.75 2.6 -51.3 3.25 -52.0 3.8 -52.9 4.1 -54.05 1.15 M-47.4 8.65 L-47.15 9.2 Q-47.05 9.75 -47.25 10.15 L-47.95 10.85 -48.8 11.3 -49.75 11.6 -50.0 11.7 -50.35 11.7 -51.6 7.9 -50.35 7.45 -49.5 7.35 -48.65 7.35 Q-48.2 7.4 -47.85 7.6 L-47.45 8.3 -47.4 8.5 -47.4 8.65 Z" fill="none" stroke="#000000" stroke-linecap="round" stroke-linejoin="miter-clip" stroke-miterlimit="3.0" stroke-width="4.0"/>
    <path d="M-30.8 -0.25 L-30.9 1.1 -30.65 2.4 -29.9 3.5 -28.95 4.35 -27.75 4.6 -26.45 4.2 -25.5 3.2 -25.05 2.05 -25.0 0.7 -25.2 -0.6 -25.85 -1.8 -26.9 -2.6 -28.2 -2.85 -29.4 -2.45 -30.25 -1.5 -30.8 -0.25 M-41.65 -1.85 L-40.5 -5.2 Q-39.7 -6.8 -38.55 -8.05 -37.35 -9.45 -35.85 -10.45 L-32.7 -12.1 -29.15 -12.75 -25.5 -12.55 Q-23.65 -12.15 -22.1 -11.35 -20.55 -10.55 -19.1 -9.35 -17.85 -8.25 -16.85 -6.75 -15.85 -5.3 -15.2 -3.6 -14.65 -1.8 -14.5 0.05 -14.4 1.95 -14.75 3.7 -15.1 5.5 -15.9 7.1 -16.7 8.65 -17.85 10.05 -19.1 11.4 -20.55 12.35 -22.0 13.35 -23.75 13.95 L-27.3 14.65 -30.95 14.4 Q-32.75 14.05 -34.3 13.25 L-37.3 11.35 -39.55 8.65 Q-40.55 7.2 -41.2 5.45 -41.75 3.75 -41.85 1.85 -42.0 0.0 -41.65 -1.85" fill="#ffffff" fill-rule="evenodd" stroke="none"/>
    <path d="M-41.65 -1.85 Q-42.0 0.0 -41.85 1.85 -41.75 3.75 -41.2 5.45 -40.55 7.2 -39.55 8.65 L-37.3 11.35 -34.3 13.25 Q-32.75 14.05 -30.95 14.4 L-27.3 14.65 -23.75 13.95 Q-22.0 13.35 -20.55 12.35 -19.1 11.4 -17.85 10.05 -16.7 8.65 -15.9 7.1 -15.1 5.5 -14.75 3.7 -14.4 1.95 -14.5 0.05 -14.65 -1.8 -15.2 -3.6 -15.85 -5.3 -16.85 -6.75 -17.85 -8.25 -19.1 -9.35 -20.55 -10.55 -22.1 -11.35 -23.65 -12.15 -25.5 -12.55 L-29.15 -12.75 -32.7 -12.1 -35.85 -10.45 Q-37.35 -9.45 -38.55 -8.05 -39.7 -6.8 -40.5 -5.2 L-41.65 -1.85 M-30.8 -0.25 L-30.25 -1.5 -29.4 -2.45 -28.2 -2.85 -26.9 -2.6 -25.85 -1.8 -25.2 -0.6 -25.0 0.7 -25.05 2.05 -25.5 3.2 -26.45 4.2 -27.75 4.6 -28.95 4.35 -29.9 3.5 -30.65 2.4 -30.9 1.1 -30.8 -0.25 Z" fill="none" stroke="#000000" stroke-linecap="round" stroke-linejoin="miter-clip" stroke-miterlimit="3.0" stroke-width="4.0"/>
    <path d="M3.8 -17.45 Q5.95 -16.85 7.75 -15.8 9.55 -14.7 11.15 -13.15 L13.7 -9.85 Q14.75 -8.05 15.35 -5.9 15.9 -3.75 15.9 -1.5 15.9 0.8 15.35 2.85 14.75 5.0 13.7 6.8 12.6 8.65 11.15 10.2 L7.75 12.75 Q5.95 13.8 3.8 14.4 L-0.6 15.0 -4.85 14.4 Q-7.0 13.8 -8.85 12.75 L-12.2 10.2 Q-13.7 8.65 -14.75 6.8 -15.85 5.0 -16.4 2.85 -17.0 0.8 -17.0 -1.5 -17.0 -3.75 -16.4 -5.9 -15.85 -8.05 -14.75 -9.85 -13.7 -11.65 -12.2 -13.15 -10.65 -14.7 -8.85 -15.8 -7.0 -16.85 -4.85 -17.45 L-0.6 -18.0 3.8 -17.45 M3.3 -1.5 L3.15 -3.15 2.45 -4.55 1.3 -5.65 -0.25 -6.05 Q-1.1 -6.05 -1.75 -5.65 L-2.8 -4.55 -3.55 -3.15 -3.8 -1.5 -3.55 0.05 -2.8 1.45 -1.75 2.5 -0.25 2.95 1.3 2.5 2.45 1.45 3.15 0.05 3.3 -1.5" fill="#ffffff" fill-rule="evenodd" stroke="none"/>
    <path d="M3.3 -1.5 L3.15 0.05 2.45 1.45 1.3 2.5 -0.25 2.95 -1.75 2.5 -2.8 1.45 -3.55 0.05 -3.8 -1.5 -3.55 -3.15 -2.8 -4.55 -1.75 -5.65 Q-1.1 -6.05 -0.25 -6.05 L1.3 -5.65 2.45 -4.55 3.15 -3.15 3.3 -1.5 M3.8 -17.45 L-0.6 -18.0 -4.85 -17.45 Q-7.0 -16.85 -8.85 -15.8 -10.65 -14.7 -12.2 -13.15 -13.7 -11.65 -14.75 -9.85 -15.85 -8.05 -16.4 -5.9 -17.0 -3.75 -17.0 -1.5 -17.0 0.8 -16.4 2.85 -15.85 5.0 -14.75 6.8 -13.7 8.65 -12.2 10.2 L-8.85 12.75 Q-7.0 13.8 -4.85 14.4 L-0.6 15.0 3.8 14.4 Q5.95 13.8 7.75 12.75 L11.15 10.2 Q12.6 8.65 13.7 6.8 14.75 5.0 15.35 2.85 15.9 0.8 15.9 -1.5 15.9 -3.75 15.35 -5.9 14.75 -8.05 13.7 -9.85 L11.15 -13.15 Q9.55 -14.7 7.75 -15.8 5.95 -16.85 3.8 -17.45 Z" fill="none" stroke="#000000" stroke-linecap="round" stroke-linejoin="miter-clip" stroke-miterlimit="3.0" stroke-width="4.0"/>
    <path d="M24.85 -1.4 L24.5 -0.05 24.6 1.25 25.05 2.45 25.85 3.45 27.05 3.95 28.35 3.7 Q28.95 3.45 29.45 2.9 L30.1 1.85 30.35 0.55 30.35 -0.8 30.0 -2.05 29.05 -3.05 27.8 -3.5 26.55 -3.3 Q26.0 -3.0 25.6 -2.5 25.1 -2.05 24.85 -1.4 M13.55 -1.25 Q13.75 -3.1 14.45 -4.8 15.1 -6.55 16.15 -7.95 L18.55 -10.45 21.55 -12.3 Q23.15 -13.05 25.0 -13.35 L28.6 -13.45 32.15 -12.6 Q33.9 -11.95 35.3 -10.85 L37.9 -8.4 Q39.0 -7.05 39.7 -5.45 40.45 -3.85 40.75 -2.0 L40.8 1.65 Q40.6 3.55 40.0 5.25 L38.25 8.35 35.85 10.95 Q34.4 12.05 32.8 12.8 L29.4 13.8 25.75 13.9 22.25 13.05 Q20.5 12.35 19.05 11.35 L16.5 8.9 Q15.45 7.45 14.7 5.85 13.95 4.25 13.7 2.45 13.35 0.65 13.55 -1.25" fill="#ffffff" fill-rule="evenodd" stroke="none"/>
    <path d="M13.55 -1.25 Q13.35 0.65 13.7 2.45 13.95 4.25 14.7 5.85 15.45 7.45 16.5 8.9 L19.05 11.35 Q20.5 12.35 22.25 13.05 L25.75 13.9 29.4 13.8 32.8 12.8 Q34.4 12.05 35.85 10.95 L38.25 8.35 40.0 5.25 Q40.6 3.55 40.8 1.65 L40.75 -2.0 Q40.45 -3.85 39.7 -5.45 39.0 -7.05 37.9 -8.4 L35.3 -10.85 Q33.9 -11.95 32.15 -12.6 L28.6 -13.45 25.0 -13.35 Q23.15 -13.05 21.55 -12.3 L18.55 -10.45 16.15 -7.95 Q15.1 -6.55 14.45 -4.8 13.75 -3.1 13.55 -1.25 M24.85 -1.4 Q25.1 -2.05 25.6 -2.5 26.0 -3.0 26.55 -3.3 L27.8 -3.5 29.05 -3.05 30.0 -2.05 30.35 -0.8 30.35 0.55 30.1 1.85 29.45 2.9 Q28.95 3.45 28.35 3.7 L27.05 3.95 25.85 3.45 25.05 2.45 24.6 1.25 24.5 -0.05 24.85 -1.4 Z" fill="none" stroke="#000000" stroke-linecap="round" stroke-linejoin="miter-clip" stroke-miterlimit="3.0" stroke-width="4.0"/>
    <path d="M43.45 -7.55 L50.95 -5.85 51.55 -0.3 54.65 -4.6 62.3 -3.9 61.05 16.05 52.45 15.1 53.8 4.65 49.55 9.8 48.0 4.0 45.55 13.6 37.3 11.25 43.45 -7.55" fill="#ffffff" fill-rule="evenodd" stroke="none"/>
    <path d="M43.45 -7.55 L37.3 11.25 45.55 13.6 48.0 4.0 49.55 9.8 53.8 4.65 52.45 15.1 61.05 16.05 62.3 -3.9 54.65 -4.6 51.55 -0.3 50.95 -5.85 43.45 -7.55 Z" fill="none" stroke="#000000" stroke-linecap="round" stroke-linejoin="miter-clip" stroke-miterlimit="3.0" stroke-width="4.0"/>
    <path d="M59.8 -18.2 Q59.8 -16.45 58.55 -15.2 57.3 -13.95 55.55 -13.95 53.8 -13.95 52.55 -15.2 51.3 -16.45 51.3 -18.2 51.3 -19.95 52.55 -21.2 53.8 -22.45 55.55 -22.45 57.3 -22.45 58.55 -21.2 59.8 -19.95 59.8 -18.2 M47.05 -17.45 Q47.05 -16.5 46.4 -15.85 45.75 -15.2 44.8 -15.2 43.85 -15.2 43.2 -15.85 42.55 -16.5 42.55 -17.45 42.55 -18.4 43.2 -19.05 43.85 -19.7 44.8 -19.7 45.75 -19.7 46.4 -19.05 47.05 -18.4 47.05 -17.45 M74.55 -2.45 Q75.8 -1.2 75.8 0.55 75.8 2.3 74.55 3.55 73.3 4.8 71.55 4.8 69.8 4.8 68.55 3.55 67.3 2.3 67.3 0.55 67.3 -1.2 68.55 -2.45 69.8 -3.7 71.55 -3.7 73.3 -3.7 74.55 -2.45 M82.8 11.55 Q82.8 12.7 82.0 13.5 81.2 14.3 80.05 14.3 78.9 14.3 78.1 13.5 77.3 12.7 77.3 11.55 77.3 10.4 78.1 9.6 78.9 8.8 80.05 8.8 81.2 8.8 82.0 9.6 82.8 10.4 82.8 11.55 M36.55 23.05 Q35.3 23.05 34.4 22.15 33.55 21.3 33.55 20.05 33.55 18.8 34.4 17.9 35.3 17.05 36.55 17.05 37.8 17.05 38.65 17.9 39.55 18.8 39.55 20.05 39.55 21.3 38.65 22.15 37.8 23.05 36.55 23.05 M19.95 18.85 Q21.3 20.2 21.3 22.05 21.3 23.9 19.95 25.2 18.65 26.55 16.8 26.55 14.95 26.55 13.6 25.2 12.3 23.9 12.3 22.05 12.3 20.2 13.6 18.85 14.95 17.55 16.8 17.55 18.65 17.55 19.95 18.85 M-43.95 -16.2 Q-43.95 -14.45 -45.2 -13.2 -46.45 -11.95 -48.2 -11.95 -49.95 -11.95 -51.2 -13.2 -52.45 -14.45 -52.45 -16.2 -52.45 -17.95 -51.2 -19.2 -49.95 -20.45 -48.2 -20.45 -46.45 -20.45 -45.2 -19.2 -43.95 -17.95 -43.95 -16.2 M-36.45 22.3 Q-36.45 23.55 -37.35 24.4 -38.2 25.3 -39.45 25.3 -40.7 25.3 -41.6 24.4 -42.45 23.55 -42.45 22.3 -42.45 21.05 -41.6 20.15 -40.7 19.3 -39.45 19.3 -38.2 19.3 -37.35 20.15 -36.45 21.05 -36.45 22.3 M-79.15 4.6 Q-77.8 3.3 -75.95 3.3 -74.1 3.3 -72.8 4.6 -71.45 5.95 -71.45 7.8 -71.45 9.65 -72.8 10.95 -74.1 12.3 -75.95 12.3 -77.8 12.3 -79.15 10.95 -80.45 9.65 -80.45 7.8 -80.45 5.95 -79.15 4.6 M-63.7 15.55 Q-63.7 17.0 -64.75 18.0 -65.75 19.05 -67.2 19.05 -68.65 19.05 -69.7 18.0 -70.7 17.0 -70.7 15.55 -70.7 14.1 -69.7 13.05 -68.65 12.05 -67.2 12.05 -65.75 12.05 -64.75 13.05 -63.7 14.1 -63.7 15.55" fill="#ffffff" fill-opacity="0.49803922" fill-rule="evenodd" stroke="none"/>
    <path d="M59.8 -18.2 Q59.8 -16.45 58.55 -15.2 57.3 -13.95 55.55 -13.95 53.8 -13.95 52.55 -15.2 51.3 -16.45 51.3 -18.2 51.3 -19.95 52.55 -21.2 53.8 -22.45 55.55 -22.45 57.3 -22.45 58.55 -21.2 59.8 -19.95 59.8 -18.2 M47.05 -17.45 Q47.05 -16.5 46.4 -15.85 45.75 -15.2 44.8 -15.2 43.85 -15.2 43.2 -15.85 42.55 -16.5 42.55 -17.45 42.55 -18.4 43.2 -19.05 43.85 -19.7 44.8 -19.7 45.75 -19.7 46.4 -19.05 47.05 -18.4 47.05 -17.45 M74.55 -2.45 Q75.8 -1.2 75.8 0.55 75.8 2.3 74.55 3.55 73.3 4.8 71.55 4.8 69.8 4.8 68.55 3.55 67.3 2.3 67.3 0.55 67.3 -1.2 68.55 -2.45 69.8 -3.7 71.55 -3.7 73.3 -3.7 74.55 -2.45 M82.8 11.55 Q82.8 12.7 82.0 13.5 81.2 14.3 80.05 14.3 78.9 14.3 78.1 13.5 77.3 12.7 77.3 11.55 77.3 10.4 78.1 9.6 78.9 8.8 80.05 8.8 81.2 8.8 82.0 9.6 82.8 10.4 82.8 11.55 M36.55 23.05 Q35.3 23.05 34.4 22.15 33.55 21.3 33.55 20.05 33.55 18.8 34.4 17.9 35.3 17.05 36.55 17.05 37.8 17.05 38.65 17.9 39.55 18.8 39.55 20.05 39.55 21.3 38.65 22.15 37.8 23.05 36.55 23.05 M19.95 18.85 Q21.3 20.2 21.3 22.05 21.3 23.9 19.95 25.2 18.65 26.55 16.8 26.55 14.95 26.55 13.6 25.2 12.3 23.9 12.3 22.05 12.3 20.2 13.6 18.85 14.95 17.55 16.8 17.55 18.65 17.55 19.95 18.85 M-43.95 -16.2 Q-43.95 -14.45 -45.2 -13.2 -46.45 -11.95 -48.2 -11.95 -49.95 -11.95 -51.2 -13.2 -52.45 -14.45 -52.45 -16.2 -52.45 -17.95 -51.2 -19.2 -49.95 -20.45 -48.2 -20.45 -46.45 -20.45 -45.2 -19.2 -43.95 -17.95 -43.95 -16.2 M-36.45 22.3 Q-36.45 23.55 -37.35 24.4 -38.2 25.3 -39.45 25.3 -40.7 25.3 -41.6 24.4 -42.45 23.55 -42.45 22.3 -42.45 21.05 -41.6 20.15 -40.7 19.3 -39.45 19.3 -38.2 19.3 -37.35 20.15 -36.45 21.05 -36.45 22.3 M-79.15 4.6 Q-77.8 3.3 -75.95 3.3 -74.1 3.3 -72.8 4.6 -71.45 5.95 -71.45 7.8 -71.45 9.65 -72.8 10.95 -74.1 12.3 -75.95 12.3 -77.8 12.3 -79.15 10.95 -80.45 9.65 -80.45 7.8 -80.45 5.95 -79.15 4.6 M-63.7 15.55 Q-63.7 17.0 -64.75 18.0 -65.75 19.05 -67.2 19.05 -68.65 19.05 -69.7 18.0 -70.7 17.0 -70.7 15.55 -70.7 14.1 -69.7 13.05 -68.65 12.05 -67.2 12.05 -65.75 12.05 -64.75 13.05 -63.7 14.1 -63.7 15.55 Z" fill="none" stroke="#000000" stroke-linecap="round" stroke-linejoin="miter-clip" stroke-miterlimit="3.0" stroke-opacity="0.49803922" stroke-width="1.0"/>
    <path d="M-47.4 8.65 L-47.4 8.5 -47.45 8.3 -47.85 7.6 Q-48.2 7.4 -48.65 7.35 L-49.5 7.35 -50.35 7.45 -51.6 7.9 -50.35 11.7 -50.0 11.7 -49.75 11.6 -48.8 11.3 -47.95 10.85 -47.25 10.15 Q-47.05 9.75 -47.15 9.2 L-47.4 8.65 M-54.05 1.15 L-52.9 4.1 -52.0 3.8 -51.3 3.25 -50.75 2.6 -50.8 1.65 -51.15 1.05 -51.8 0.8 -52.55 0.75 -53.25 0.85 -53.65 1.0 -54.05 1.15 M-54.8 -4.45 L-54.1 -4.65 -52.5 -5.0 -50.65 -5.15 -48.9 -4.95 -47.3 -4.45 -45.95 -3.4 Q-45.5 -2.75 -45.25 -1.8 L-45.0 -0.5 -45.25 0.7 -45.9 1.75 -46.9 2.45 -46.4 2.35 -43.9 2.3 Q-42.7 2.5 -41.8 3.25 -40.9 3.95 -40.3 5.0 -39.65 6.1 -39.35 7.35 -39.0 8.65 -39.15 9.7 -39.3 10.8 -39.85 11.7 -40.4 12.65 -41.2 13.3 L-43.0 14.6 -45.1 15.55 -47.2 16.25 -51.6 17.3 -56.1 18.35 -62.25 -1.85 -58.9 -3.1 -55.5 -4.3 -54.8 -4.45" fill="#ffffff" fill-rule="evenodd" stroke="none"/>
    <path d="M-30.8 -0.25 L-30.9 1.1 -30.65 2.4 -29.9 3.5 -28.95 4.35 -27.75 4.6 -26.45 4.2 -25.5 3.2 -25.05 2.05 -25.0 0.7 -25.2 -0.6 -25.85 -1.8 -26.9 -2.6 -28.2 -2.85 -29.4 -2.45 -30.25 -1.5 -30.8 -0.25 M-41.85 1.85 Q-42.0 0.0 -41.65 -1.85 L-40.5 -5.2 Q-39.7 -6.8 -38.55 -8.05 -37.35 -9.45 -35.85 -10.45 L-32.7 -12.1 -29.15 -12.75 -25.5 -12.55 Q-23.65 -12.15 -22.1 -11.35 -20.55 -10.55 -19.1 -9.35 -17.85 -8.25 -16.85 -6.75 -15.85 -5.3 -15.2 -3.6 -14.65 -1.8 -14.5 0.05 -14.4 1.95 -14.75 3.7 -15.1 5.5 -15.9 7.1 -16.7 8.65 -17.85 10.05 -19.1 11.4 -20.55 12.35 -22.0 13.35 -23.75 13.95 L-27.3 14.65 -30.95 14.4 Q-32.75 14.05 -34.3 13.25 L-37.3 11.35 -39.55 8.65 Q-40.55 7.2 -41.2 5.45 -41.75 3.75 -41.85 1.85" fill="#ffffff" fill-rule="evenodd" stroke="none"/>
    <path d="M3.3 -1.5 L3.15 -3.15 2.45 -4.55 1.3 -5.65 -0.25 -6.05 Q-1.1 -6.05 -1.75 -5.65 L-2.8 -4.55 -3.55 -3.15 -3.8 -1.5 -3.55 0.05 -2.8 1.45 -1.75 2.5 -0.25 2.95 1.3 2.5 2.45 1.45 3.15 0.05 3.3 -1.5 M3.8 -17.45 Q5.95 -16.85 7.75 -15.8 9.55 -14.7 11.15 -13.15 L13.7 -9.85 Q14.75 -8.05 15.35 -5.9 15.9 -3.75 15.9 -1.5 15.9 0.8 15.35 2.85 14.75 5.0 13.7 6.8 12.6 8.65 11.15 10.2 L7.75 12.75 Q5.95 13.8 3.8 14.4 L-0.6 15.0 -4.85 14.4 Q-7.0 13.8 -8.85 12.75 L-12.2 10.2 Q-13.7 8.65 -14.75 6.8 -15.85 5.0 -16.4 2.85 -17.0 0.8 -17.0 -1.5 -17.0 -3.75 -16.4 -5.9 -15.85 -8.05 -14.75 -9.85 -13.7 -11.65 -12.2 -13.15 -10.65 -14.7 -8.85 -15.8 -7.0 -16.85 -4.85 -17.45 L-0.6 -18.0 3.8 -17.45" fill="#ffffff" fill-rule="evenodd" stroke="none"/>
    <path d="M26.55 -3.3 Q26.0 -3.0 25.6 -2.5 25.1 -2.05 24.85 -1.4 L24.5 -0.05 24.6 1.25 25.05 2.45 25.85 3.45 27.05 3.95 28.35 3.7 Q28.95 3.45 29.45 2.9 L30.1 1.85 30.35 0.55 30.35 -0.8 30.0 -2.05 29.05 -3.05 27.8 -3.5 26.55 -3.3 M13.55 -1.25 Q13.75 -3.1 14.45 -4.8 15.1 -6.55 16.15 -7.95 L18.55 -10.45 21.55 -12.3 Q23.15 -13.05 25.0 -13.35 L28.6 -13.45 32.15 -12.6 Q33.9 -11.95 35.3 -10.85 L37.9 -8.4 Q39.0 -7.05 39.7 -5.45 40.45 -3.85 40.75 -2.0 L40.8 1.65 Q40.6 3.55 40.0 5.25 L38.25 8.35 35.85 10.95 Q34.4 12.05 32.8 12.8 L29.4 13.8 25.75 13.9 22.25 13.05 Q20.5 12.35 19.05 11.35 L16.5 8.9 Q15.45 7.45 14.7 5.85 13.95 4.25 13.7 2.45 13.35 0.65 13.55 -1.25" fill="#ffffff" fill-rule="evenodd" stroke="none"/>
    <path d="M43.45 -7.55 L50.95 -5.85 51.55 -0.3 54.65 -4.6 62.3 -3.9 61.05 16.05 52.45 15.1 53.8 4.65 49.55 9.8 48.0 4.0 45.55 13.6 37.3 11.25 43.45 -7.55" fill="#ffffff" fill-rule="evenodd" stroke="none"/>
  </g>
</svg>
