<?xml version="1.0" encoding="UTF-8" standalone="no"?>
<svg xmlns:ffdec="https://www.free-decompiler.com/flash" xmlns:xlink="http://www.w3.org/1999/xlink" ffdec:objectType="shape" height="58.0px" width="62.55px" xmlns="http://www.w3.org/2000/svg">
  <g transform="matrix(1.0, 0.0, 0.0, 1.0, 31.25, 33.8)">
    <path d="M22.6 -22.4 Q12.6 -7.75 28.4 -5.55 8.65 -0.9 23.2 11.55 8.05 5.5 8.95 22.35 0.0 8.1 -8.9 22.7 -9.15 6.9 -23.6 12.45 -12.15 -2.65 -29.4 -4.35 -15.3 -9.65 -24.2 -21.5 -9.65 -16.35 -9.95 -32.25 -0.95 -20.65 7.85 -32.65 6.55 -16.75 22.6 -22.4" fill="#ffffff" fill-opacity="0.49803922" fill-rule="evenodd" stroke="none"/>
    <path d="M22.6 -22.4 Q12.6 -7.75 28.4 -5.55 8.65 -0.9 23.2 11.55 8.05 5.5 8.95 22.35 0.0 8.1 -8.9 22.7 -9.15 6.9 -23.6 12.45 -12.15 -2.65 -29.4 -4.35 -15.3 -9.65 -24.2 -21.5 -9.65 -16.35 -9.95 -32.25 -0.95 -20.65 7.85 -32.65 6.55 -16.75 22.6 -22.4 Z" fill="none" stroke="#000000" stroke-linecap="round" stroke-linejoin="miter-clip" stroke-miterlimit="3.0" stroke-opacity="0.49803922" stroke-width="1.0"/>
    <path d="M-21.55 -5.55 L-19.3 -6.1 Q-17.4 -6.6 -17.5 -8.5 -17.6 -9.6 -18.25 -10.25 -18.95 -11.0 -20.0 -10.95 L-20.45 -10.8 -22.7 -10.3 -21.55 -5.55 M-29.25 -11.85 Q-29.4 -14.25 -26.85 -14.85 L-21.7 -16.15 -19.95 -16.4 Q-16.9 -16.6 -14.6 -15.0 -12.3 -13.45 -11.55 -10.5 L-11.35 -9.0 Q-11.2 -6.05 -12.95 -3.8 -14.75 -1.6 -17.7 -0.85 L-20.25 -0.2 -19.25 3.85 -19.15 4.5 Q-19.1 5.8 -19.9 6.65 -20.75 7.5 -22.05 7.6 -23.15 7.65 -23.95 7.0 -24.8 6.4 -25.1 5.2 L-29.15 -11.2 -29.25 -11.85" fill="#ffffff" fill-rule="evenodd" stroke="none"/>
    <path d="M-21.55 -5.55 L-19.3 -6.1 Q-17.4 -6.6 -17.5 -8.5 -17.6 -9.6 -18.25 -10.25 -18.95 -11.0 -20.0 -10.95 L-20.45 -10.8 -22.7 -10.3 -21.55 -5.55 M-29.25 -11.85 Q-29.4 -14.25 -26.85 -14.85 L-21.7 -16.15 -19.95 -16.4 Q-16.9 -16.6 -14.6 -15.0 -12.3 -13.45 -11.55 -10.5 L-11.35 -9.0 Q-11.2 -6.05 -12.95 -3.8 -14.75 -1.6 -17.7 -0.85 L-20.25 -0.2 -19.25 3.85 -19.15 4.5 Q-19.1 5.8 -19.9 6.65 -20.75 7.5 -22.05 7.6 -23.15 7.65 -23.95 7.0 -24.8 6.4 -25.1 5.2 L-29.15 -11.2 -29.25 -11.85 Z" fill="none" stroke="#000000" stroke-linecap="round" stroke-linejoin="miter-clip" stroke-miterlimit="3.0" stroke-width="4.0"/>
    <path d="M0.05 -10.55 L-0.55 -10.6 Q-2.15 -10.6 -3.2 -9.4 -4.3 -8.2 -4.6 -6.3 L-4.7 -5.1 Q-4.7 -3.4 -3.9 -2.2 -3.05 -1.05 -1.5 -0.8 L-0.85 -0.8 Q0.75 -0.8 1.85 -2.0 2.85 -3.15 3.15 -5.1 L3.25 -6.2 Q3.25 -7.95 2.45 -9.1 1.6 -10.3 0.05 -10.55 M6.15 -11.9 Q8.15 -9.35 8.15 -6.0 L8.0 -4.3 Q7.5 -0.8 5.1 1.5 2.7 3.75 -0.7 3.75 L-2.2 3.6 Q-5.6 3.1 -7.65 0.6 -9.6 -1.9 -9.6 -5.35 L-9.45 -7.05 Q-8.9 -10.6 -6.5 -12.85 -4.1 -15.1 -0.7 -15.1 L0.75 -15.0 Q4.1 -14.45 6.15 -11.9" fill="#ffffff" fill-rule="evenodd" stroke="none"/>
    <path d="M0.05 -10.55 L-0.55 -10.6 Q-2.15 -10.6 -3.2 -9.4 -4.3 -8.2 -4.6 -6.3 L-4.7 -5.1 Q-4.7 -3.4 -3.9 -2.2 -3.05 -1.05 -1.5 -0.8 L-0.85 -0.8 Q0.75 -0.8 1.85 -2.0 2.85 -3.15 3.15 -5.1 L3.25 -6.2 Q3.25 -7.95 2.45 -9.1 1.6 -10.3 0.05 -10.55 M6.15 -11.9 Q8.15 -9.35 8.15 -6.0 L8.0 -4.3 Q7.5 -0.8 5.1 1.5 2.7 3.75 -0.7 3.75 L-2.2 3.6 Q-5.6 3.1 -7.65 0.6 -9.6 -1.9 -9.6 -5.35 L-9.45 -7.05 Q-8.9 -10.6 -6.5 -12.85 -4.1 -15.1 -0.7 -15.1 L0.75 -15.0 Q4.1 -14.45 6.15 -11.9 Z" fill="none" stroke="#000000" stroke-linecap="round" stroke-linejoin="miter-clip" stroke-miterlimit="3.0" stroke-width="4.0"/>
    <path d="M18.8 -4.55 Q20.75 -4.35 21.3 -6.2 21.6 -7.25 21.25 -8.1 20.85 -9.05 19.85 -9.3 L19.4 -9.35 17.05 -9.7 16.55 -4.85 18.8 -4.55 M20.05 -14.85 L21.8 -14.5 Q24.7 -13.65 26.3 -11.3 27.85 -9.05 27.55 -6.0 L27.25 -4.55 Q26.4 -1.75 24.0 -0.25 21.5 1.2 18.5 0.9 L15.9 0.6 15.4 4.7 15.25 5.35 Q14.9 6.55 13.85 7.2 L11.55 7.3 Q10.5 7.0 9.95 6.1 9.3 5.25 9.45 4.0 L11.4 -12.75 11.5 -13.35 Q12.2 -15.7 14.85 -15.45 L20.05 -14.85" fill="#ffffff" fill-rule="evenodd" stroke="none"/>
    <path d="M18.8 -4.55 Q20.75 -4.35 21.3 -6.2 21.6 -7.25 21.25 -8.1 20.85 -9.05 19.85 -9.3 L19.4 -9.35 17.05 -9.7 16.55 -4.85 18.8 -4.55 M20.05 -14.85 L21.8 -14.5 Q24.7 -13.65 26.3 -11.3 27.85 -9.05 27.55 -6.0 L27.25 -4.55 Q26.4 -1.75 24.0 -0.25 21.5 1.2 18.5 0.9 L15.9 0.6 15.4 4.7 15.25 5.35 Q14.9 6.55 13.85 7.2 L11.55 7.3 Q10.5 7.0 9.95 6.1 9.3 5.25 9.45 4.0 L11.4 -12.75 11.5 -13.35 Q12.2 -15.7 14.85 -15.45 L20.05 -14.85 Z" fill="none" stroke="#000000" stroke-linecap="round" stroke-linejoin="miter-clip" stroke-miterlimit="3.0" stroke-width="4.0"/>
    <path d="M-21.7 -16.15 L-19.95 -16.4 Q-16.9 -16.6 -14.6 -15.0 -12.3 -13.45 -11.55 -10.5 L-11.35 -9.0 Q-11.2 -6.05 -12.95 -3.8 -14.75 -1.6 -17.7 -0.85 L-20.25 -0.2 -19.25 3.85 -19.15 4.5 Q-19.1 5.8 -19.9 6.65 -20.75 7.5 -22.05 7.6 -23.15 7.65 -23.95 7.0 -24.8 6.4 -25.1 5.2 L-29.15 -11.2 -29.25 -11.85 Q-29.4 -14.25 -26.85 -14.85 L-21.7 -16.15 M-21.55 -5.55 L-19.3 -6.1 Q-17.4 -6.6 -17.5 -8.5 -17.6 -9.6 -18.25 -10.25 -18.95 -11.0 -20.0 -10.95 L-20.45 -10.8 -22.7 -10.3 -21.55 -5.55" fill="#ffffff" fill-rule="evenodd" stroke="none"/>
    <path d="M6.15 -11.9 Q8.15 -9.35 8.15 -6.0 L8.0 -4.3 Q7.5 -0.8 5.1 1.5 2.7 3.75 -0.7 3.75 L-2.2 3.6 Q-5.6 3.1 -7.65 0.6 -9.6 -1.9 -9.6 -5.35 L-9.45 -7.05 Q-8.9 -10.6 -6.5 -12.85 -4.1 -15.1 -0.7 -15.1 L0.75 -15.0 Q4.1 -14.45 6.15 -11.9 M0.05 -10.55 L-0.55 -10.6 Q-2.15 -10.6 -3.2 -9.4 -4.3 -8.2 -4.6 -6.3 L-4.7 -5.1 Q-4.7 -3.4 -3.9 -2.2 -3.05 -1.05 -1.5 -0.8 L-0.85 -0.8 Q0.75 -0.8 1.85 -2.0 2.85 -3.15 3.15 -5.1 L3.25 -6.2 Q3.25 -7.95 2.45 -9.1 1.6 -10.3 0.05 -10.55" fill="#ffffff" fill-rule="evenodd" stroke="none"/>
    <path d="M14.85 -15.45 L20.05 -14.85 21.8 -14.5 Q24.7 -13.65 26.3 -11.3 27.85 -9.05 27.55 -6.0 L27.25 -4.55 Q26.4 -1.75 24.0 -0.25 21.5 1.2 18.5 0.9 L15.9 0.6 15.4 4.7 15.25 5.35 Q14.9 6.55 13.85 7.2 L11.55 7.3 Q10.5 7.0 9.95 6.1 9.3 5.25 9.45 4.0 L11.4 -12.75 11.5 -13.35 Q12.2 -15.7 14.85 -15.45 M18.8 -4.55 Q20.75 -4.35 21.3 -6.2 21.6 -7.25 21.25 -8.1 20.85 -9.05 19.85 -9.3 L19.4 -9.35 17.05 -9.7 16.55 -4.85 18.8 -4.55" fill="#ffffff" fill-rule="evenodd" stroke="none"/>
  </g>
</svg>
