<?xml version="1.0" encoding="UTF-8" standalone="no"?>
<svg xmlns:ffdec="https://www.free-decompiler.com/flash" xmlns:xlink="http://www.w3.org/1999/xlink" ffdec:objectType="shape" height="47.25px" width="119.2px" xmlns="http://www.w3.org/2000/svg">
  <g transform="matrix(1.0, 0.0, 0.0, 1.0, 65.75, 23.45)">
    <path d="M-25.35 -13.2 Q-26.85 1.2 -26.0 14.3 L-33.8 17.85 -36.0 4.05 -36.15 17.4 -43.6 20.9 Q-45.45 6.65 -48.5 -4.85 -45.15 -6.35 -41.9 -7.95 L-39.1 8.45 -39.0 -10.6 -35.4 -12.15 -32.0 11.15 -32.2 -10.2 -25.35 -13.2" fill="#ffffff" fill-rule="evenodd" stroke="none"/>
    <path d="M-25.35 -13.2 Q-26.85 1.2 -26.0 14.3 L-33.8 17.85 -36.0 4.05 -36.15 17.4 -43.6 20.9 Q-45.45 6.65 -48.5 -4.85 -45.15 -6.35 -41.9 -7.95 L-39.1 8.45 -39.0 -10.6 -35.4 -12.15 -32.0 11.15 -32.2 -10.2 -25.35 -13.2 Z" fill="none" stroke="#000000" stroke-linecap="round" stroke-linejoin="miter-clip" stroke-miterlimit="3.0" stroke-width="4.0"/>
    <path d="M-10.8 -9.8 Q-13.9 2.15 -14.75 10.55 L-19.75 11.85 -18.4 3.85 -20.9 4.4 -21.7 10.55 -26.75 11.85 -23.2 -8.9 -17.8 -9.8 -20.15 0.4 -17.7 -0.1 -16.2 -8.9 -10.8 -9.8" fill="#ffffff" fill-rule="evenodd" stroke="none"/>
    <path d="M-10.8 -9.8 Q-13.9 2.15 -14.75 10.55 L-19.75 11.85 -18.4 3.85 -20.9 4.4 -21.7 10.55 -26.75 11.85 -23.2 -8.9 -17.8 -9.8 -20.15 0.4 -17.7 -0.1 -16.2 -8.9 -10.8 -9.8 Z" fill="none" stroke="#000000" stroke-linecap="round" stroke-linejoin="miter-clip" stroke-miterlimit="3.0" stroke-width="4.0"/>
    <path d="M-4.2 -10.0 L-7.5 1.2 -6.05 0.95 -4.15 -10.0 -4.2 -10.0 M-6.75 4.9 L-8.7 5.15 -9.45 7.7 -15.65 8.35 Q-10.8 -2.4 -7.65 -12.5 L1.3 -13.55 Q-0.6 -4.75 -1.05 7.35 L-7.35 8.5 -6.75 4.9" fill="#ffffff" fill-rule="evenodd" stroke="none"/>
    <path d="M-4.2 -10.0 L-7.5 1.2 -6.05 0.95 -4.15 -10.0 -4.2 -10.0 M-6.75 4.9 L-8.7 5.15 -9.45 7.7 -15.65 8.35 Q-10.8 -2.4 -7.65 -12.5 L1.3 -13.55 Q-0.6 -4.75 -1.05 7.35 L-7.35 8.5 -6.75 4.9 Z" fill="none" stroke="#000000" stroke-linecap="round" stroke-linejoin="miter-clip" stroke-miterlimit="3.0" stroke-width="4.0"/>
    <path d="M8.65 -14.55 Q11.7 -14.65 13.25 -11.4 L10.1 -7.7 Q9.35 -8.35 8.5 -8.35 6.95 -8.3 5.35 -5.5 4.1 -3.25 3.75 -1.35 L3.6 0.3 Q3.7 2.25 5.1 2.9 L6.1 3.1 Q7.65 3.05 9.25 0.75 L10.3 4.2 Q7.55 7.5 4.55 7.65 1.5 7.75 -0.05 4.6 -0.95 2.7 -1.05 0.4 L-0.7 -3.2 Q0.0 -7.15 2.4 -10.4 5.2 -14.4 8.65 -14.55" fill="#ffffff" fill-rule="evenodd" stroke="none"/>
    <path d="M8.65 -14.55 Q11.7 -14.65 13.25 -11.4 L10.1 -7.7 Q9.35 -8.35 8.5 -8.35 6.95 -8.3 5.35 -5.5 4.1 -3.25 3.75 -1.35 L3.6 0.3 Q3.7 2.25 5.1 2.9 L6.1 3.1 Q7.65 3.05 9.25 0.75 L10.3 4.2 Q7.55 7.5 4.55 7.65 1.5 7.75 -0.05 4.6 -0.95 2.7 -1.05 0.4 L-0.7 -3.2 Q0.0 -7.15 2.4 -10.4 5.2 -14.4 8.65 -14.55 Z" fill="none" stroke="#000000" stroke-linecap="round" stroke-linejoin="miter-clip" stroke-miterlimit="3.0" stroke-width="4.0"/>
    <path d="M19.95 -10.85 L18.3 -7.0 23.6 -10.5 26.85 -7.5 20.3 -3.4 21.55 8.95 15.85 10.8 15.65 -0.4 Q14.0 4.1 12.75 8.55 L7.9 9.1 14.8 -10.75 19.95 -10.85" fill="#ffffff" fill-rule="evenodd" stroke="none"/>
    <path d="M19.95 -10.85 L18.3 -7.0 23.6 -10.5 26.85 -7.5 20.3 -3.4 21.55 8.95 15.85 10.8 15.65 -0.4 Q14.0 4.1 12.75 8.55 L7.9 9.1 14.8 -10.75 19.95 -10.85 Z" fill="none" stroke="#000000" stroke-linecap="round" stroke-linejoin="miter-clip" stroke-miterlimit="3.0" stroke-width="4.0"/>
    <path d="M33.25 -3.4 Q30.95 -0.15 29.0 3.9 L24.65 2.95 31.9 -12.25 Q35.05 -11.1 38.2 -10.1 L33.25 -3.4 M27.05 7.25 Q27.95 7.95 27.75 9.0 27.55 10.45 25.8 11.4 24.5 12.1 23.0 12.05 21.85 12.0 21.1 11.5 20.25 10.85 20.4 9.8 20.65 8.35 22.3 7.3 23.7 6.55 25.15 6.6 26.25 6.7 27.05 7.25" fill="#ffffff" fill-rule="evenodd" stroke="none"/>
    <path d="M33.25 -3.4 Q30.95 -0.15 29.0 3.9 L24.65 2.95 31.9 -12.25 Q35.05 -11.1 38.2 -10.1 L33.25 -3.4 M27.05 7.25 Q27.95 7.95 27.75 9.0 27.55 10.45 25.8 11.4 24.5 12.1 23.0 12.05 21.85 12.0 21.1 11.5 20.25 10.85 20.4 9.8 20.65 8.35 22.3 7.3 23.7 6.55 25.15 6.6 26.25 6.7 27.05 7.25 Z" fill="none" stroke="#000000" stroke-linecap="round" stroke-linejoin="miter-clip" stroke-miterlimit="3.0" stroke-width="4.0"/>
    <path d="M-49.25 -16.55 L-52.8 -13.0 -56.3 -16.55 -52.75 -20.1 -49.25 -16.55" fill="#ffffff" fill-opacity="0.49803922" fill-rule="evenodd" stroke="none"/>
    <path d="M-49.25 -16.55 L-52.8 -13.0 -56.3 -16.55 -52.75 -20.1 -49.25 -16.55 Z" fill="none" stroke="#000000" stroke-linecap="round" stroke-linejoin="miter-clip" stroke-miterlimit="3.0" stroke-opacity="0.49803922" stroke-width="1.0"/>
    <path d="M-61.5 5.0 L-61.3 8.75 -65.05 8.95 -65.25 5.2 -61.5 5.0" fill="#ffffff" fill-opacity="0.49803922" fill-rule="evenodd" stroke="none"/>
    <path d="M-61.5 5.0 L-61.3 8.75 -65.05 8.95 -65.25 5.2 -61.5 5.0 Z" fill="none" stroke="#000000" stroke-linecap="round" stroke-linejoin="miter-clip" stroke-miterlimit="3.0" stroke-opacity="0.49803922" stroke-width="1.0"/>
    <path d="M45.1 0.5 L43.35 5.3 38.5 3.55 40.25 -1.25 45.1 0.5" fill="#ffffff" fill-opacity="0.49803922" fill-rule="evenodd" stroke="none"/>
    <path d="M45.1 0.5 L43.35 5.3 38.5 3.55 40.25 -1.25 45.1 0.5 Z" fill="none" stroke="#000000" stroke-linecap="round" stroke-linejoin="miter-clip" stroke-miterlimit="3.0" stroke-opacity="0.49803922" stroke-width="1.0"/>
    <path d="M52.8 -4.45 L49.45 -2.75 47.75 -6.05 51.1 -7.75 52.8 -4.45" fill="#ffffff" fill-opacity="0.49803922" fill-rule="evenodd" stroke="none"/>
    <path d="M52.8 -4.45 L49.45 -2.75 47.75 -6.05 51.1 -7.75 52.8 -4.45 Z" fill="none" stroke="#000000" stroke-linecap="round" stroke-linejoin="miter-clip" stroke-miterlimit="3.0" stroke-opacity="0.49803922" stroke-width="1.0"/>
    <path d="M-52.35 12.9 L-54.95 17.15 -59.2 14.5 -56.6 10.25 -52.35 12.9" fill="#ffffff" fill-opacity="0.49803922" fill-rule="evenodd" stroke="none"/>
    <path d="M-52.35 12.9 L-54.95 17.15 -59.2 14.5 -56.6 10.25 -52.35 12.9 Z" fill="none" stroke="#000000" stroke-linecap="round" stroke-linejoin="miter-clip" stroke-miterlimit="3.0" stroke-opacity="0.49803922" stroke-width="1.0"/>
    <path d="M-8.95 -20.9 L-10.95 -17.7 -14.1 -19.65 -12.1 -22.85 -8.95 -20.9" fill="#ffffff" fill-opacity="0.49803922" fill-rule="evenodd" stroke="none"/>
    <path d="M-8.95 -20.9 L-10.95 -17.7 -14.1 -19.65 -12.1 -22.85 -8.95 -20.9 Z" fill="none" stroke="#000000" stroke-linecap="round" stroke-linejoin="miter-clip" stroke-miterlimit="3.0" stroke-opacity="0.49803922" stroke-width="1.0"/>
    <path d="M11.55 17.1 L9.55 20.3 6.4 18.35 8.4 15.15 11.55 17.1" fill="#ffffff" fill-opacity="0.49803922" fill-rule="evenodd" stroke="none"/>
    <path d="M11.55 17.1 L9.55 20.3 6.4 18.35 8.4 15.15 11.55 17.1 Z" fill="none" stroke="#000000" stroke-linecap="round" stroke-linejoin="miter-clip" stroke-miterlimit="3.0" stroke-opacity="0.49803922" stroke-width="1.0"/>
    <path d="M-24.35 -14.45 Q-25.85 -0.05 -25.0 13.05 L-32.8 16.6 -35.0 2.8 -35.15 16.15 -42.6 19.65 Q-44.45 5.4 -47.5 -6.1 -44.15 -7.6 -40.9 -9.2 L-38.1 7.2 -38.0 -11.85 -34.4 -13.4 -31.0 9.9 -31.2 -11.45 -24.35 -14.45" fill="#ffffff" fill-rule="evenodd" stroke="none"/>
    <path d="M-9.8 -11.05 Q-12.9 0.9 -13.75 9.3 L-18.75 10.6 -17.4 2.6 -19.9 3.15 -20.7 9.3 -25.75 10.6 -22.2 -10.15 -16.8 -11.05 -19.15 -0.85 -16.7 -1.35 -15.2 -10.15 -9.8 -11.05" fill="#ffffff" fill-rule="evenodd" stroke="none"/>
    <path d="M-3.2 -11.25 L-6.5 -0.05 -5.05 -0.3 -3.15 -11.25 -3.2 -11.25 M-5.75 3.65 L-7.7 3.9 -8.45 6.45 -14.65 7.1 Q-9.8 -3.65 -6.65 -13.75 L2.3 -14.8 Q0.4 -6.0 -0.05 6.1 L-6.35 7.25 -5.75 3.65" fill="#ffffff" fill-rule="evenodd" stroke="none"/>
    <path d="M9.65 -15.8 Q12.7 -15.9 14.25 -12.65 L11.1 -8.95 Q10.35 -9.6 9.5 -9.6 7.95 -9.55 6.35 -6.75 5.1 -4.5 4.75 -2.6 L4.6 -0.95 Q4.7 1.0 6.1 1.65 L7.1 1.85 Q8.65 1.8 10.25 -0.5 L11.3 2.95 Q8.55 6.25 5.55 6.4 2.5 6.5 0.95 3.35 0.05 1.45 -0.05 -0.85 -0.1 -2.55 0.3 -4.45 1.0 -8.4 3.4 -11.65 6.2 -15.65 9.65 -15.8" fill="#ffffff" fill-rule="evenodd" stroke="none"/>
    <path d="M20.95 -12.1 L19.3 -8.25 24.6 -11.75 27.85 -8.75 21.3 -4.65 22.55 7.7 16.85 9.55 16.65 -1.65 Q15.0 2.85 13.75 7.3 L8.9 7.85 15.8 -12.0 20.95 -12.1" fill="#ffffff" fill-rule="evenodd" stroke="none"/>
    <path d="M34.25 -4.65 Q31.95 -1.4 30.0 2.65 L25.65 1.7 32.9 -13.5 Q36.05 -12.35 39.2 -11.35 L34.25 -4.65 M28.05 6.0 Q28.95 6.7 28.75 7.75 28.55 9.2 26.8 10.15 25.5 10.85 24.0 10.8 22.85 10.75 22.1 10.25 21.25 9.6 21.4 8.55 21.65 7.1 23.3 6.05 24.7 5.3 26.15 5.35 27.25 5.45 28.05 6.0" fill="#ffffff" fill-rule="evenodd" stroke="none"/>
  </g>
</svg>
