<?xml version="1.0" encoding="UTF-8" standalone="no"?>
<svg xmlns:ffdec="https://www.free-decompiler.com/flash" xmlns:xlink="http://www.w3.org/1999/xlink" ffdec:objectType="shape" height="60.65px" width="129.9px" xmlns="http://www.w3.org/2000/svg">
  <g transform="matrix(1.0, 0.0, 0.0, 1.0, 43.85, 29.55)">
    <path d="M11.9 -17.5 Q1.5 -2.2 17.95 0.15 -2.65 4.95 12.55 17.95 -3.25 11.65 -2.3 29.25 -11.65 14.4 -21.0 29.6 -21.25 13.15 -36.3 18.9 -24.35 3.15 -42.35 1.4 -27.65 -4.2 -36.95 -16.55 -21.75 -11.15 -22.05 -27.75 -12.65 -15.65 -3.45 -28.15 -4.85 -11.55 11.9 -17.5" fill="#ffffff" fill-opacity="0.49803922" fill-rule="evenodd" stroke="none"/>
    <path d="M11.9 -17.5 Q1.5 -2.2 17.95 0.15 -2.65 4.95 12.55 17.95 -3.25 11.65 -2.3 29.25 -11.65 14.4 -21.0 29.6 -21.25 13.15 -36.3 18.9 -24.35 3.15 -42.35 1.4 -27.65 -4.2 -36.95 -16.55 -21.75 -11.15 -22.05 -27.75 -12.65 -15.65 -3.45 -28.15 -4.85 -11.55 11.9 -17.5 Z" fill="none" stroke="#000000" stroke-linecap="round" stroke-linejoin="miter-clip" stroke-miterlimit="3.0" stroke-opacity="0.49803922" stroke-width="1.0"/>
    <path d="M-14.9 -0.1 Q-17.9 7.1 -17.25 11.3 -17.0 13.05 -15.85 12.9 -14.4 12.65 -12.65 10.3 -10.7 7.6 -8.8 2.85 -5.5 -5.65 -6.1 -9.65 -6.35 -11.2 -7.2 -11.05 -8.6 -10.85 -10.75 -7.8 -13.15 -4.5 -14.9 -0.1 M-9.85 -15.0 Q-8.45 -15.25 -6.85 -14.55 -4.65 -13.65 -3.2 -12.3 -1.65 -11.0 -1.25 -8.15 -1.0 -6.8 -1.1 -5.3 -1.2 -0.85 -3.15 4.5 -5.6 11.05 -9.6 14.6 -11.1 15.85 -12.95 16.1 L-15.7 16.0 Q-17.8 15.6 -19.85 14.05 -22.15 12.35 -22.65 9.4 -22.9 7.65 -22.65 5.5 -22.1 1.15 -19.4 -4.35 -16.7 -9.9 -13.45 -13.0 -11.6 -14.75 -9.85 -15.0" fill="#ffffff" fill-rule="evenodd" stroke="none"/>
    <path d="M-14.9 -0.1 Q-17.9 7.1 -17.25 11.3 -17.0 13.05 -15.85 12.9 -14.4 12.65 -12.65 10.3 -10.7 7.6 -8.8 2.85 -5.5 -5.65 -6.1 -9.65 -6.35 -11.2 -7.2 -11.05 -8.6 -10.85 -10.75 -7.8 -13.15 -4.5 -14.9 -0.1 M-9.85 -15.0 Q-8.45 -15.25 -6.85 -14.55 -4.65 -13.65 -3.2 -12.3 -1.65 -11.0 -1.25 -8.15 -1.0 -6.8 -1.1 -5.3 -1.2 -0.85 -3.15 4.5 -5.6 11.05 -9.6 14.6 -11.1 15.85 -12.95 16.1 L-15.7 16.0 Q-17.8 15.6 -19.85 14.05 -22.15 12.35 -22.65 9.4 -22.9 7.65 -22.65 5.5 -22.1 1.15 -19.4 -4.35 -16.7 -9.9 -13.45 -13.0 -11.6 -14.75 -9.85 -15.0 Z" fill="none" stroke="#000000" stroke-linecap="round" stroke-linejoin="miter-clip" stroke-miterlimit="3.0" stroke-width="3.0"/>
    <path d="M16.85 -13.1 L18.6 -11.75 Q19.2 -10.8 18.95 -9.4 16.6 1.7 10.8 9.3 8.55 12.5 5.8 12.8 L3.65 12.6 Q1.4 12.1 -0.25 10.7 -1.45 9.75 -1.65 7.85 L-1.5 4.7 Q-1.1 1.95 1.0 -3.0 3.25 -8.2 5.5 -11.25 5.8 -11.85 6.15 -11.9 6.45 -11.95 6.85 -11.5 L8.1 -10.1 8.55 -9.05 Q8.65 -8.25 8.15 -7.15 5.45 -2.0 3.85 2.7 2.4 7.05 2.6 8.85 2.7 9.8 3.4 9.75 5.35 9.5 8.8 3.8 12.6 -2.75 15.55 -12.6 15.8 -13.2 16.25 -13.25 L16.85 -13.1" fill="#ffffff" fill-rule="evenodd" stroke="none"/>
    <path d="M16.85 -13.1 L18.6 -11.75 Q19.2 -10.8 18.95 -9.4 16.6 1.7 10.8 9.3 8.55 12.5 5.8 12.8 L3.65 12.6 Q1.4 12.1 -0.25 10.7 -1.45 9.75 -1.65 7.85 L-1.5 4.7 Q-1.1 1.95 1.0 -3.0 3.25 -8.2 5.5 -11.25 5.8 -11.85 6.15 -11.9 6.45 -11.95 6.85 -11.5 L8.1 -10.1 8.55 -9.05 Q8.65 -8.25 8.15 -7.15 5.45 -2.0 3.85 2.7 2.4 7.05 2.6 8.85 2.7 9.8 3.4 9.75 5.35 9.5 8.8 3.8 12.6 -2.75 15.55 -12.6 15.8 -13.2 16.25 -13.25 L16.85 -13.1 Z" fill="none" stroke="#000000" stroke-linecap="round" stroke-linejoin="miter-clip" stroke-miterlimit="3.0" stroke-width="3.0"/>
    <path d="M35.75 -8.2 L35.6 -6.9 Q34.75 -3.8 32.35 -0.7 31.9 -0.15 31.5 -0.15 31.25 -0.15 30.95 -0.4 L29.6 -1.9 Q29.1 -2.95 29.65 -4.15 31.5 -8.05 31.5 -8.65 L31.2 -8.95 Q30.4 -8.95 28.35 -6.9 26.1 -4.55 23.9 -1.4 20.35 4.05 20.35 7.5 20.35 9.1 21.4 9.1 22.65 9.1 24.7 7.7 26.9 6.2 28.9 4.0 L29.65 3.55 30.2 3.95 Q30.7 4.95 30.7 5.6 30.7 7.45 28.25 9.8 25.85 12.2 24.0 12.3 21.65 12.55 19.1 10.95 15.75 8.85 15.75 5.85 15.75 4.8 16.15 3.6 17.35 -0.3 20.7 -4.9 24.25 -9.75 27.65 -11.7 29.25 -12.55 30.4 -12.55 32.45 -12.55 35.15 -9.95 35.75 -9.3 35.75 -8.2" fill="#ffffff" fill-rule="evenodd" stroke="none"/>
    <path d="M35.75 -8.2 L35.6 -6.9 Q34.75 -3.8 32.35 -0.7 31.9 -0.15 31.5 -0.15 31.25 -0.15 30.95 -0.4 L29.6 -1.9 Q29.1 -2.95 29.65 -4.15 31.5 -8.05 31.5 -8.65 L31.2 -8.95 Q30.4 -8.95 28.35 -6.9 26.1 -4.55 23.9 -1.4 20.35 4.05 20.35 7.5 20.35 9.1 21.4 9.1 22.65 9.1 24.7 7.7 26.9 6.2 28.9 4.0 L29.65 3.55 30.2 3.95 Q30.7 4.95 30.7 5.6 30.7 7.45 28.25 9.8 25.85 12.2 24.0 12.3 21.65 12.55 19.1 10.95 15.75 8.85 15.75 5.85 15.75 4.8 16.15 3.6 17.35 -0.3 20.7 -4.9 24.25 -9.75 27.65 -11.7 29.25 -12.55 30.4 -12.55 32.45 -12.55 35.15 -9.95 35.75 -9.3 35.75 -8.2 Z" fill="none" stroke="#000000" stroke-linecap="round" stroke-linejoin="miter-clip" stroke-miterlimit="3.0" stroke-width="3.0"/>
    <path d="M43.15 -11.4 L43.95 -10.95 45.45 -9.1 45.85 -8.25 45.25 -7.0 Q42.3 -2.75 39.7 1.55 L45.6 0.85 Q49.3 -5.85 53.15 -10.9 53.45 -11.4 53.9 -11.4 L54.7 -11.05 56.3 -9.05 56.6 -8.2 Q56.6 -7.75 56.0 -6.95 48.05 4.0 44.35 12.0 L43.85 12.55 43.3 12.25 41.8 10.8 Q41.35 10.2 41.35 9.7 L41.65 8.75 Q42.45 6.75 43.55 4.65 L37.15 5.85 34.1 12.0 Q33.9 12.5 33.5 12.5 L32.95 12.2 31.55 10.85 Q30.9 10.15 30.95 9.65 L31.2 8.65 Q33.0 4.4 36.25 -1.25 39.45 -6.9 42.3 -10.8 42.75 -11.45 43.15 -11.4" fill="#ffffff" fill-rule="evenodd" stroke="none"/>
    <path d="M43.15 -11.4 L43.95 -10.95 45.45 -9.1 45.85 -8.25 45.25 -7.0 Q42.3 -2.75 39.7 1.55 L45.6 0.85 Q49.3 -5.85 53.15 -10.9 53.45 -11.4 53.9 -11.4 L54.7 -11.05 56.3 -9.05 56.6 -8.2 Q56.6 -7.75 56.0 -6.95 48.05 4.0 44.35 12.0 L43.85 12.55 43.3 12.25 41.8 10.8 Q41.35 10.2 41.35 9.7 L41.65 8.75 Q42.45 6.75 43.55 4.65 L37.15 5.85 34.1 12.0 Q33.9 12.5 33.5 12.5 L32.95 12.2 31.55 10.85 Q30.9 10.15 30.95 9.65 L31.2 8.65 Q33.0 4.4 36.25 -1.25 39.45 -6.9 42.3 -10.8 42.75 -11.45 43.15 -11.4 Z" fill="none" stroke="#000000" stroke-linecap="round" stroke-linejoin="miter-clip" stroke-miterlimit="3.0" stroke-width="3.0"/>
    <path d="M68.5 -16.9 L69.4 -17.55 Q69.75 -17.55 70.1 -17.1 L71.4 -14.75 Q71.7 -14.1 71.6 -13.65 71.55 -13.1 70.7 -12.15 64.8 -4.3 59.75 4.8 59.4 5.55 59.1 5.5 58.55 5.5 57.65 3.05 57.3 1.9 58.0 0.25 59.4 -3.05 62.95 -8.65 66.15 -13.9 68.5 -16.9 M56.1 6.05 Q57.05 6.05 57.55 7.2 57.9 8.35 57.5 10.1 57.2 11.5 56.35 12.3 55.6 13.2 54.45 13.15 53.55 13.1 52.95 12.1 52.5 11.1 52.75 9.85 53.0 8.45 54.0 7.25 55.1 6.05 56.1 6.05" fill="#ffffff" fill-rule="evenodd" stroke="none"/>
    <path d="M68.5 -16.9 L69.4 -17.55 Q69.75 -17.55 70.1 -17.1 L71.4 -14.75 Q71.7 -14.1 71.6 -13.65 71.55 -13.1 70.7 -12.15 64.8 -4.3 59.75 4.8 59.4 5.55 59.1 5.5 58.55 5.5 57.65 3.05 57.3 1.9 58.0 0.25 59.4 -3.05 62.95 -8.65 66.15 -13.9 68.5 -16.9 M56.1 6.05 Q57.05 6.05 57.55 7.2 57.9 8.35 57.5 10.1 57.2 11.5 56.35 12.3 55.6 13.2 54.45 13.15 53.55 13.1 52.95 12.1 52.5 11.1 52.75 9.85 53.0 8.45 54.0 7.25 55.1 6.05 56.1 6.05 Z" fill="none" stroke="#000000" stroke-linecap="round" stroke-linejoin="miter-clip" stroke-miterlimit="3.0" stroke-width="3.0"/>
    <path d="M75.25 -15.15 Q75.8 -15.8 76.2 -15.75 L76.8 -15.25 Q77.6 -14.0 78.0 -12.75 L78.15 -11.6 Q78.05 -11.05 77.2 -10.15 71.0 -2.65 65.65 6.1 L64.95 6.85 Q64.4 6.8 63.55 4.25 63.3 3.1 64.05 1.45 65.6 -1.75 69.35 -7.2 72.75 -12.25 75.25 -15.15 M63.3 8.4 Q63.65 9.6 63.2 11.35 62.8 12.7 62.0 13.5 61.1 14.35 60.0 14.2 59.1 14.05 58.6 13.0 58.15 12.0 58.45 10.75 58.75 9.35 59.8 8.2 60.9 7.1 61.9 7.15 62.9 7.2 63.3 8.4" fill="#ffffff" fill-rule="evenodd" stroke="none"/>
    <path d="M75.25 -15.15 Q75.8 -15.8 76.2 -15.75 L76.8 -15.25 Q77.6 -14.0 78.0 -12.75 L78.15 -11.6 Q78.05 -11.05 77.2 -10.15 71.0 -2.65 65.65 6.1 L64.95 6.85 Q64.4 6.8 63.55 4.25 63.3 3.1 64.05 1.45 65.6 -1.75 69.35 -7.2 72.75 -12.25 75.25 -15.15 M63.3 8.4 Q63.65 9.6 63.2 11.35 62.8 12.7 62.0 13.5 61.1 14.35 60.0 14.2 59.1 14.05 58.6 13.0 58.15 12.0 58.45 10.75 58.75 9.35 59.8 8.2 60.9 7.1 61.9 7.15 62.9 7.2 63.3 8.4 Z" fill="none" stroke="#000000" stroke-linecap="round" stroke-linejoin="miter-clip" stroke-miterlimit="3.0" stroke-width="3.0"/>
    <path d="M82.8 -11.9 L83.45 -11.3 84.4 -8.7 84.5 -7.5 Q84.35 -6.95 83.4 -6.15 76.75 0.6 70.8 8.85 70.3 9.55 70.0 9.45 69.45 9.3 68.95 6.7 68.75 5.5 69.6 3.95 71.35 0.85 75.5 -4.15 79.2 -8.85 81.9 -11.4 82.45 -12.0 82.8 -11.9 M68.3 10.8 Q68.55 12.1 67.95 13.8 67.5 15.15 66.6 15.85 65.7 16.55 64.6 16.3 63.75 16.05 63.35 14.95 63.0 13.85 63.4 12.7 63.8 11.3 64.9 10.25 66.05 9.25 67.05 9.4 68.0 9.6 68.3 10.8" fill="#ffffff" fill-rule="evenodd" stroke="none"/>
    <path d="M82.8 -11.9 L83.45 -11.3 84.4 -8.7 84.5 -7.5 Q84.35 -6.95 83.4 -6.15 76.75 0.6 70.8 8.85 70.3 9.55 70.0 9.45 69.45 9.3 68.95 6.7 68.75 5.5 69.6 3.95 71.35 0.85 75.5 -4.15 79.2 -8.85 81.9 -11.4 82.45 -12.0 82.8 -11.9 M68.3 10.8 Q68.55 12.1 67.95 13.8 67.5 15.15 66.6 15.85 65.7 16.55 64.6 16.3 63.75 16.05 63.35 14.95 63.0 13.85 63.4 12.7 63.8 11.3 64.9 10.25 66.05 9.25 67.05 9.4 68.0 9.6 68.3 10.8 Z" fill="none" stroke="#000000" stroke-linecap="round" stroke-linejoin="miter-clip" stroke-miterlimit="3.0" stroke-width="3.0"/>
    <path d="M-9.85 -15.0 Q-8.45 -15.25 -6.85 -14.55 -4.65 -13.65 -3.2 -12.3 -1.65 -11.0 -1.25 -8.15 -1.0 -6.8 -1.1 -5.3 -1.2 -0.85 -3.15 4.5 -5.6 11.05 -9.6 14.6 -11.1 15.85 -12.95 16.1 L-15.7 16.0 Q-17.8 15.6 -19.85 14.05 -22.15 12.35 -22.65 9.4 -22.9 7.65 -22.65 5.5 -22.1 1.15 -19.4 -4.35 -16.7 -9.9 -13.45 -13.0 -11.6 -14.75 -9.85 -15.0 M-14.9 -0.1 Q-17.9 7.1 -17.25 11.3 -17.0 13.05 -15.85 12.9 -14.4 12.65 -12.65 10.3 -10.7 7.6 -8.8 2.85 -5.5 -5.65 -6.1 -9.65 -6.35 -11.2 -7.2 -11.05 -8.6 -10.85 -10.75 -7.8 -13.15 -4.5 -14.9 -0.1" fill="#ffffff" fill-rule="evenodd" stroke="none"/>
    <path d="M16.25 -13.25 L16.85 -13.1 18.6 -11.75 Q19.2 -10.8 18.95 -9.4 16.6 1.7 10.8 9.3 8.55 12.5 5.8 12.8 L3.65 12.6 Q1.4 12.1 -0.25 10.7 -1.45 9.75 -1.65 7.85 L-1.5 4.7 Q-1.1 1.95 1.0 -3.0 3.25 -8.2 5.5 -11.25 5.8 -11.85 6.15 -11.9 6.45 -11.95 6.85 -11.5 L8.1 -10.1 8.55 -9.05 Q8.65 -8.25 8.15 -7.15 5.45 -2.0 3.85 2.7 2.4 7.05 2.6 8.85 2.7 9.8 3.4 9.75 5.35 9.5 8.8 3.8 12.6 -2.75 15.55 -12.6 15.8 -13.2 16.25 -13.25" fill="#ffffff" fill-rule="evenodd" stroke="none"/>
    <path d="M35.75 -8.2 L35.6 -6.9 Q34.75 -3.8 32.35 -0.7 31.9 -0.15 31.5 -0.15 31.25 -0.15 30.95 -0.4 L29.6 -1.9 Q29.1 -2.95 29.65 -4.15 31.5 -8.05 31.5 -8.65 L31.2 -8.95 Q30.4 -8.95 28.35 -6.9 26.1 -4.55 23.9 -1.4 20.35 4.05 20.35 7.5 20.35 9.1 21.4 9.1 22.65 9.1 24.7 7.7 26.9 6.2 28.9 4.0 L29.65 3.55 30.2 3.95 Q30.7 4.95 30.7 5.6 30.7 7.45 28.25 9.8 25.85 12.2 24.0 12.3 21.65 12.55 19.1 10.95 15.75 8.85 15.75 5.85 15.75 4.8 16.15 3.6 17.35 -0.3 20.7 -4.9 24.25 -9.75 27.65 -11.7 29.25 -12.55 30.4 -12.55 32.45 -12.55 35.15 -9.95 35.75 -9.3 35.75 -8.2" fill="#ffffff" fill-rule="evenodd" stroke="none"/>
    <path d="M43.95 -10.95 L45.45 -9.1 45.85 -8.25 45.25 -7.0 Q42.3 -2.75 39.7 1.55 L45.6 0.85 Q49.3 -5.85 53.15 -10.9 53.45 -11.4 53.9 -11.4 L54.7 -11.05 56.3 -9.05 56.6 -8.2 Q56.6 -7.75 56.0 -6.95 48.05 4.0 44.35 12.0 L43.85 12.55 43.3 12.25 41.8 10.8 Q41.35 10.2 41.35 9.7 L41.65 8.75 Q42.45 6.75 43.55 4.65 L37.15 5.85 34.1 12.0 Q33.9 12.5 33.5 12.5 L32.95 12.2 31.55 10.85 Q30.9 10.15 30.95 9.65 L31.2 8.65 Q33.0 4.4 36.25 -1.25 39.45 -6.9 42.3 -10.8 42.75 -11.45 43.15 -11.4 L43.95 -10.95" fill="#ffffff" fill-rule="evenodd" stroke="none"/>
    <path d="M68.5 -16.9 L69.4 -17.55 Q69.75 -17.55 70.1 -17.1 L71.4 -14.75 Q71.7 -14.1 71.6 -13.65 71.55 -13.1 70.7 -12.15 64.8 -4.3 59.75 4.8 59.4 5.55 59.1 5.5 58.55 5.5 57.65 3.05 57.3 1.9 58.0 0.25 59.4 -3.05 62.95 -8.65 66.15 -13.9 68.5 -16.9 M56.1 6.05 Q57.05 6.05 57.55 7.2 57.9 8.35 57.5 10.1 57.2 11.5 56.35 12.3 55.6 13.2 54.45 13.15 53.55 13.1 52.95 12.1 52.5 11.1 52.75 9.85 53.0 8.45 54.0 7.25 55.1 6.05 56.1 6.05" fill="#ffffff" fill-rule="evenodd" stroke="none"/>
    <path d="M75.25 -15.15 Q75.8 -15.8 76.2 -15.75 L76.8 -15.25 Q77.6 -14.0 78.0 -12.75 L78.15 -11.6 Q78.05 -11.05 77.2 -10.15 71.0 -2.65 65.65 6.1 L64.95 6.85 Q64.4 6.8 63.55 4.25 63.3 3.1 64.05 1.45 65.6 -1.75 69.35 -7.2 72.75 -12.25 75.25 -15.15 M63.3 8.4 Q63.65 9.6 63.2 11.35 62.8 12.7 62.0 13.5 61.1 14.35 60.0 14.2 59.1 14.05 58.6 13.0 58.15 12.0 58.45 10.75 58.75 9.35 59.8 8.2 60.9 7.1 61.9 7.15 62.9 7.2 63.3 8.4" fill="#ffffff" fill-rule="evenodd" stroke="none"/>
    <path d="M82.8 -11.9 L83.45 -11.3 84.4 -8.7 84.5 -7.5 Q84.35 -6.95 83.4 -6.15 76.75 0.6 70.8 8.85 70.3 9.55 70.0 9.45 69.45 9.3 68.95 6.7 68.75 5.5 69.6 3.95 71.35 0.85 75.5 -4.15 79.2 -8.85 81.9 -11.4 82.45 -12.0 82.8 -11.9 M68.3 10.8 Q68.55 12.1 67.95 13.8 67.5 15.15 66.6 15.85 65.7 16.55 64.6 16.3 63.75 16.05 63.35 14.95 63.0 13.85 63.4 12.7 63.8 11.3 64.9 10.25 66.05 9.25 67.05 9.4 68.0 9.6 68.3 10.8" fill="#ffffff" fill-rule="evenodd" stroke="none"/>
  </g>
</svg>
