<?xml version="1.0" encoding="UTF-8" standalone="no"?>
<svg xmlns:ffdec="https://www.free-decompiler.com/flash" xmlns:xlink="http://www.w3.org/1999/xlink" ffdec:objectType="shape" height="56.25px" width="127.75px" xmlns="http://www.w3.org/2000/svg">
  <g transform="matrix(1.0, 0.0, 0.0, 1.0, 68.0, 34.5)">
    <path d="M-50.85 -4.8 Q-50.85 -6.45 -49.1 -8.55 -47.3 -10.65 -44.65 -12.3 -42.0 -13.9 -40.35 -13.9 -38.5 -13.9 -37.3 -12.65 -36.15 -11.45 -36.15 -10.0 -36.15 -7.85 -37.5 -7.85 -39.2 -7.85 -39.55 -9.2 -39.75 -10.0 -40.1 -10.2 L-41.2 -10.45 Q-42.6 -10.45 -44.9 -8.6 -47.3 -6.8 -47.3 -5.85 -47.3 -5.45 -45.7 -5.15 -39.15 -3.95 -36.05 -2.75 -32.7 -1.45 -31.25 0.35 -29.9 2.1 -29.9 5.25 -29.9 7.6 -31.45 9.7 -32.95 11.8 -35.65 13.2 -38.3 14.55 -40.55 14.55 -42.05 14.55 -43.25 13.8 -44.4 13.05 -45.1 11.55 -45.8 10.1 -45.8 8.7 -45.8 6.75 -45.05 5.35 -44.35 3.9 -43.1 3.9 -41.25 3.9 -41.25 5.3 -41.25 5.8 -41.6 6.8 L-42.05 8.85 Q-42.05 10.2 -41.45 10.85 -40.8 11.45 -39.4 11.5 -37.1 11.5 -35.4 9.75 -33.75 8.0 -33.75 5.65 -33.75 3.8 -34.55 2.65 -35.45 1.5 -37.4 0.8 -41.05 -0.5 -47.95 -1.55 -50.85 -1.95 -50.85 -4.8" fill="#ffffff" fill-rule="evenodd" stroke="none"/>
    <path d="M-50.85 -4.8 Q-50.85 -6.45 -49.1 -8.55 -47.3 -10.65 -44.65 -12.3 -42.0 -13.9 -40.35 -13.9 -38.5 -13.9 -37.3 -12.65 -36.15 -11.45 -36.15 -10.0 -36.15 -7.85 -37.5 -7.85 -39.2 -7.85 -39.55 -9.2 -39.75 -10.0 -40.1 -10.2 L-41.2 -10.45 Q-42.6 -10.45 -44.9 -8.6 -47.3 -6.8 -47.3 -5.85 -47.3 -5.45 -45.7 -5.15 -39.15 -3.95 -36.05 -2.75 -32.7 -1.45 -31.25 0.35 -29.9 2.1 -29.9 5.25 -29.9 7.6 -31.45 9.7 -32.95 11.8 -35.65 13.2 -38.3 14.55 -40.55 14.55 -42.05 14.55 -43.25 13.8 -44.4 13.05 -45.1 11.55 -45.8 10.1 -45.8 8.7 -45.8 6.75 -45.05 5.35 -44.35 3.9 -43.1 3.9 -41.25 3.9 -41.25 5.3 -41.25 5.8 -41.6 6.8 L-42.05 8.85 Q-42.05 10.2 -41.45 10.85 -40.8 11.45 -39.4 11.5 -37.1 11.5 -35.4 9.75 -33.75 8.0 -33.75 5.65 -33.75 3.8 -34.55 2.65 -35.45 1.5 -37.4 0.8 -41.05 -0.5 -47.95 -1.55 -50.85 -1.95 -50.85 -4.8 Z" fill="none" stroke="#000000" stroke-linecap="round" stroke-linejoin="miter-clip" stroke-miterlimit="3.0" stroke-width="3.0"/>
    <path d="M-31.2 -6.6 Q-31.2 -7.5 -30.3 -8.15 -27.85 -9.7 -24.75 -10.65 -21.65 -11.6 -19.0 -11.6 -15.15 -11.6 -12.85 -10.25 -10.5 -8.95 -10.5 -6.55 -10.5 -3.4 -13.7 -0.2 -16.9 2.95 -21.95 5.25 L-21.65 7.5 -21.05 10.35 -20.75 11.55 Q-20.75 12.35 -21.7 12.95 -22.65 13.6 -23.55 13.6 L-24.65 13.35 -25.4 12.6 -26.0 8.05 -26.2 6.7 -26.5 6.2 -26.85 5.45 Q-26.85 4.65 -26.45 4.05 -26.15 3.65 -26.15 3.2 -26.15 1.9 -26.65 -2.2 L-26.95 -5.05 Q-27.15 -6.35 -27.4 -6.35 L-28.1 -6.0 -28.8 -5.6 -29.1 -5.4 -30.0 -5.2 Q-30.55 -5.2 -30.85 -5.55 -31.2 -5.95 -31.2 -6.6 M-22.3 1.5 L-22.05 1.35 Q-18.2 -0.55 -16.65 -2.25 -15.05 -4.0 -15.05 -5.9 -15.05 -7.25 -16.45 -8.0 -17.85 -8.75 -19.9 -8.75 -21.75 -8.75 -23.25 -7.95 -22.65 -6.0 -22.55 -2.6 L-22.4 -0.3 -22.3 1.5" fill="#ffffff" fill-rule="evenodd" stroke="none"/>
    <path d="M-31.2 -6.6 Q-31.2 -7.5 -30.3 -8.15 -27.85 -9.7 -24.75 -10.65 -21.65 -11.6 -19.0 -11.6 -15.15 -11.6 -12.85 -10.25 -10.5 -8.95 -10.5 -6.55 -10.5 -3.4 -13.7 -0.2 -16.9 2.95 -21.95 5.25 L-21.65 7.5 -21.05 10.35 -20.75 11.55 Q-20.75 12.35 -21.7 12.95 -22.65 13.6 -23.55 13.6 L-24.65 13.35 -25.4 12.6 -26.0 8.05 -26.2 6.7 -26.5 6.2 -26.85 5.45 Q-26.85 4.65 -26.45 4.05 -26.15 3.65 -26.15 3.2 -26.15 1.9 -26.65 -2.2 L-26.95 -5.05 Q-27.15 -6.35 -27.4 -6.35 L-28.1 -6.0 -28.8 -5.6 -29.1 -5.4 -30.0 -5.2 Q-30.55 -5.2 -30.85 -5.55 -31.2 -5.95 -31.2 -6.6 M-22.3 1.5 L-22.05 1.35 Q-18.2 -0.55 -16.65 -2.25 -15.05 -4.0 -15.05 -5.9 -15.05 -7.25 -16.45 -8.0 -17.85 -8.75 -19.9 -8.75 -21.75 -8.75 -23.25 -7.95 -22.65 -6.0 -22.55 -2.6 L-22.4 -0.3 -22.3 1.5 Z" fill="none" stroke="#000000" stroke-linecap="round" stroke-linejoin="miter-clip" stroke-miterlimit="3.0" stroke-width="3.0"/>
    <path d="M-7.8 -14.9 Q-7.75 -15.55 -7.05 -16.05 -6.4 -16.55 -5.55 -16.5 -4.45 -16.4 -3.9 -15.8 L-3.5 -15.05 -3.4 -13.05 -3.5 -8.5 Q-3.65 -0.75 -3.95 4.2 L-2.25 3.75 0.25 3.6 3.25 3.55 6.2 3.25 Q7.85 2.7 8.9 2.8 9.85 2.85 10.3 3.4 10.75 3.9 10.7 4.65 L10.25 5.8 9.25 6.55 2.4 6.8 -1.55 6.9 -2.4 6.9 -4.6 7.35 Q-4.95 7.7 -5.25 7.75 L-6.35 7.8 -7.5 7.35 Q-8.0 6.9 -8.0 6.45 L-7.85 4.75 -7.6 2.95 Q-7.4 0.2 -7.5 -5.55 L-7.7 -13.5 -7.8 -14.9" fill="#ffffff" fill-rule="evenodd" stroke="none"/>
    <path d="M-7.8 -14.9 Q-7.75 -15.55 -7.05 -16.05 -6.4 -16.55 -5.55 -16.5 -4.45 -16.4 -3.9 -15.8 L-3.5 -15.05 -3.4 -13.05 -3.5 -8.5 Q-3.65 -0.75 -3.95 4.2 L-2.25 3.75 0.25 3.6 3.25 3.55 6.2 3.25 Q7.85 2.7 8.9 2.8 9.85 2.85 10.3 3.4 10.75 3.9 10.7 4.65 L10.25 5.8 9.25 6.55 2.4 6.8 -1.55 6.9 -2.4 6.9 -4.6 7.35 Q-4.95 7.7 -5.25 7.75 L-6.35 7.8 -7.5 7.35 Q-8.0 6.9 -8.0 6.45 L-7.85 4.75 -7.6 2.95 Q-7.4 0.2 -7.5 -5.55 L-7.7 -13.5 -7.8 -14.9 Z" fill="none" stroke="#000000" stroke-linecap="round" stroke-linejoin="miter-clip" stroke-miterlimit="3.0" stroke-width="3.0"/>
    <path d="M7.9 -24.4 Q8.85 -24.4 9.45 -23.75 10.0 -23.1 10.0 -22.35 10.0 -19.85 8.25 -14.65 L7.65 -12.9 13.55 -15.7 Q12.85 -18.0 11.15 -21.45 9.45 -24.9 8.65 -24.9 8.2 -24.9 7.8 -25.4 7.4 -25.95 7.4 -26.55 7.4 -27.35 8.15 -27.8 8.9 -28.25 10.15 -28.25 11.3 -28.25 13.5 -24.45 15.7 -20.65 16.8 -17.5 18.75 -17.5 18.75 -15.8 18.75 -14.8 18.15 -14.55 L20.4 -11.15 22.6 -8.2 Q24.2 -6.55 24.2 -5.75 24.2 -3.65 22.2 -3.65 21.5 -3.65 20.9 -4.0 L19.6 -5.2 19.4 -5.45 16.85 -9.85 15.0 -12.95 6.6 -8.9 Q6.0 -6.85 6.0 -5.65 L6.05 -4.2 6.15 -2.65 Q6.15 -1.95 5.5 -1.5 4.8 -1.05 3.9 -1.05 3.0 -1.05 2.45 -1.75 1.9 -2.4 1.9 -3.6 1.9 -5.35 2.95 -9.6 3.95 -13.85 4.6 -15.3 L5.35 -18.05 5.8 -20.85 5.75 -21.9 5.7 -22.65 Q5.7 -23.35 6.35 -23.85 6.95 -24.4 7.9 -24.4" fill="#ffffff" fill-rule="evenodd" stroke="none"/>
    <path d="M7.9 -24.4 Q8.85 -24.4 9.45 -23.75 10.0 -23.1 10.0 -22.35 10.0 -19.85 8.25 -14.65 L7.65 -12.9 13.55 -15.7 Q12.85 -18.0 11.15 -21.45 9.45 -24.9 8.65 -24.9 8.2 -24.9 7.8 -25.4 7.4 -25.95 7.4 -26.55 7.4 -27.35 8.15 -27.8 8.9 -28.25 10.15 -28.25 11.3 -28.25 13.5 -24.45 15.7 -20.65 16.8 -17.5 18.75 -17.5 18.75 -15.8 18.75 -14.8 18.15 -14.55 L20.4 -11.15 22.6 -8.2 Q24.2 -6.55 24.2 -5.75 24.2 -3.65 22.2 -3.65 21.5 -3.65 20.9 -4.0 L19.6 -5.2 19.4 -5.45 16.85 -9.85 15.0 -12.95 6.6 -8.9 Q6.0 -6.85 6.0 -5.65 L6.05 -4.2 6.15 -2.65 Q6.15 -1.95 5.5 -1.5 4.8 -1.05 3.9 -1.05 3.0 -1.05 2.45 -1.75 1.9 -2.4 1.9 -3.6 1.9 -5.35 2.95 -9.6 3.95 -13.85 4.6 -15.3 L5.35 -18.05 5.8 -20.85 5.75 -21.9 5.7 -22.65 Q5.7 -23.35 6.35 -23.85 6.95 -24.4 7.9 -24.4 Z" fill="none" stroke="#000000" stroke-linecap="round" stroke-linejoin="miter-clip" stroke-miterlimit="3.0" stroke-width="3.0"/>
    <path d="M27.4 -25.55 L30.05 -25.85 32.8 -26.2 39.2 -26.85 Q39.8 -26.8 40.25 -26.15 40.7 -25.55 40.65 -24.95 40.6 -24.25 40.0 -23.75 39.35 -23.25 38.6 -23.3 L35.45 -23.25 32.1 -22.95 32.05 -22.65 31.95 -18.1 31.9 -15.8 31.85 -11.1 31.85 -7.35 32.15 -5.25 32.4 -3.1 Q32.35 -2.45 31.7 -2.1 L29.95 -1.8 Q28.95 -1.9 28.35 -2.8 27.75 -3.65 27.65 -5.7 27.45 -9.5 27.65 -12.35 L27.85 -17.5 28.0 -22.3 25.15 -21.85 21.8 -21.45 Q21.2 -21.5 20.8 -22.15 20.4 -22.8 20.45 -23.4 20.5 -24.0 20.95 -24.5 21.35 -25.05 21.9 -25.05 L27.4 -25.55" fill="#ffffff" fill-rule="evenodd" stroke="none"/>
    <path d="M27.4 -25.55 L30.05 -25.85 32.8 -26.2 39.2 -26.85 Q39.8 -26.8 40.25 -26.15 40.7 -25.55 40.65 -24.95 40.6 -24.25 40.0 -23.75 39.35 -23.25 38.6 -23.3 L35.45 -23.25 32.1 -22.95 32.05 -22.65 31.95 -18.1 31.9 -15.8 31.85 -11.1 31.85 -7.35 32.15 -5.25 32.4 -3.1 Q32.35 -2.45 31.7 -2.1 L29.95 -1.8 Q28.95 -1.9 28.35 -2.8 27.75 -3.65 27.65 -5.7 27.45 -9.5 27.65 -12.35 L27.85 -17.5 28.0 -22.3 25.15 -21.85 21.8 -21.45 Q21.2 -21.5 20.8 -22.15 20.4 -22.8 20.45 -23.4 20.5 -24.0 20.95 -24.5 21.35 -25.05 21.9 -25.05 L27.4 -25.55 Z" fill="none" stroke="#000000" stroke-linecap="round" stroke-linejoin="miter-clip" stroke-miterlimit="3.0" stroke-width="3.0"/>
    <path d="M-28.45 -20.2 Q-29.4 -19.25 -30.75 -19.25 -32.1 -19.25 -33.05 -20.2 -34.0 -21.15 -34.0 -22.5 -34.0 -23.85 -33.05 -24.8 -32.1 -25.75 -30.75 -25.75 -29.4 -25.75 -28.45 -24.8 -27.5 -23.85 -27.5 -22.5 -27.5 -21.15 -28.45 -20.2" fill="#ffffff" fill-rule="evenodd" stroke="none"/>
    <path d="M-28.45 -20.2 Q-29.4 -19.25 -30.75 -19.25 -32.1 -19.25 -33.05 -20.2 -34.0 -21.15 -34.0 -22.5 -34.0 -23.85 -33.05 -24.8 -32.1 -25.75 -30.75 -25.75 -29.4 -25.75 -28.45 -24.8 -27.5 -23.85 -27.5 -22.5 -27.5 -21.15 -28.45 -20.2 Z" fill="none" stroke="#000000" stroke-linecap="round" stroke-linejoin="miter-clip" stroke-miterlimit="3.0" stroke-width="1.0"/>
    <path d="M-26.0 -29.75 Q-26.7 -29.0 -27.75 -29.0 -28.8 -29.0 -29.55 -29.75 -30.25 -30.45 -30.25 -31.5 -30.25 -32.55 -29.55 -33.3 -28.8 -34.0 -27.75 -34.0 -26.7 -34.0 -26.0 -33.3 -25.25 -32.55 -25.25 -31.5 -25.25 -30.45 -26.0 -29.75" fill="#ffffff" fill-rule="evenodd" stroke="none"/>
    <path d="M-26.0 -29.75 Q-26.7 -29.0 -27.75 -29.0 -28.8 -29.0 -29.55 -29.75 -30.25 -30.45 -30.25 -31.5 -30.25 -32.55 -29.55 -33.3 -28.8 -34.0 -27.75 -34.0 -26.7 -34.0 -26.0 -33.3 -25.25 -32.55 -25.25 -31.5 -25.25 -30.45 -26.0 -29.75 Z" fill="none" stroke="#000000" stroke-linecap="round" stroke-linejoin="miter-clip" stroke-miterlimit="3.0" stroke-width="1.0"/>
    <path d="M-15.45 -20.2 Q-16.6 -19.0 -18.25 -19.0 -19.9 -19.0 -21.1 -20.2 -22.25 -21.35 -22.25 -23.0 -22.25 -24.65 -21.1 -25.85 -19.9 -27.0 -18.25 -27.0 -16.6 -27.0 -15.45 -25.85 -14.25 -24.65 -14.25 -23.0 -14.25 -21.35 -15.45 -20.2" fill="#ffffff" fill-rule="evenodd" stroke="none"/>
    <path d="M-15.45 -20.2 Q-16.6 -19.0 -18.25 -19.0 -19.9 -19.0 -21.1 -20.2 -22.25 -21.35 -22.25 -23.0 -22.25 -24.65 -21.1 -25.85 -19.9 -27.0 -18.25 -27.0 -16.6 -27.0 -15.45 -25.85 -14.25 -24.65 -14.25 -23.0 -14.25 -21.35 -15.45 -20.2 Z" fill="none" stroke="#000000" stroke-linecap="round" stroke-linejoin="miter-clip" stroke-miterlimit="3.0" stroke-width="1.0"/>
    <path d="M-53.75 8.0 Q-55.2 9.5 -57.25 9.5 -59.3 9.5 -60.8 8.0 -62.25 6.55 -62.25 4.5 -62.25 2.45 -60.8 0.95 -59.3 -0.5 -57.25 -0.5 -55.2 -0.5 -53.75 0.95 -52.25 2.45 -52.25 4.5 -52.25 6.55 -53.75 8.0" fill="#ffffff" fill-rule="evenodd" stroke="none"/>
    <path d="M-53.75 8.0 Q-55.2 9.5 -57.25 9.5 -59.3 9.5 -60.8 8.0 -62.25 6.55 -62.25 4.5 -62.25 2.45 -60.8 0.95 -59.3 -0.5 -57.25 -0.5 -55.2 -0.5 -53.75 0.95 -52.25 2.45 -52.25 4.5 -52.25 6.55 -53.75 8.0 Z" fill="none" stroke="#000000" stroke-linecap="round" stroke-linejoin="miter-clip" stroke-miterlimit="3.0" stroke-width="1.0"/>
    <path d="M-63.65 12.85 Q-64.3 13.5 -65.25 13.5 -66.2 13.5 -66.85 12.85 -67.5 12.2 -67.5 11.25 -67.5 10.3 -66.85 9.65 -66.2 9.0 -65.25 9.0 -64.3 9.0 -63.65 9.65 -63.0 10.3 -63.0 11.25 -63.0 12.2 -63.65 12.85" fill="#ffffff" fill-rule="evenodd" stroke="none"/>
    <path d="M-63.65 12.85 Q-64.3 13.5 -65.25 13.5 -66.2 13.5 -66.85 12.85 -67.5 12.2 -67.5 11.25 -67.5 10.3 -66.85 9.65 -66.2 9.0 -65.25 9.0 -64.3 9.0 -63.65 9.65 -63.0 10.3 -63.0 11.25 -63.0 12.2 -63.65 12.85 Z" fill="none" stroke="#000000" stroke-linecap="round" stroke-linejoin="miter-clip" stroke-miterlimit="3.0" stroke-width="1.0"/>
    <path d="M-61.05 -3.8 Q-61.85 -3.0 -63.0 -3.0 -64.15 -3.0 -64.95 -3.8 -65.75 -4.6 -65.75 -5.75 -65.75 -6.9 -64.95 -7.7 -64.15 -8.5 -63.0 -8.5 -61.85 -8.5 -61.05 -7.7 -60.25 -6.9 -60.25 -5.75 -60.25 -4.6 -61.05 -3.8" fill="#ffffff" fill-rule="evenodd" stroke="none"/>
    <path d="M-61.05 -3.8 Q-61.85 -3.0 -63.0 -3.0 -64.15 -3.0 -64.95 -3.8 -65.75 -4.6 -65.75 -5.75 -65.75 -6.9 -64.95 -7.7 -64.15 -8.5 -63.0 -8.5 -61.85 -8.5 -61.05 -7.7 -60.25 -6.9 -60.25 -5.75 -60.25 -4.6 -61.05 -3.8 Z" fill="none" stroke="#000000" stroke-linecap="round" stroke-linejoin="miter-clip" stroke-miterlimit="3.0" stroke-width="1.0"/>
    <path d="M22.9 9.65 Q21.6 11.0 19.75 11.0 17.9 11.0 16.55 9.65 15.25 8.35 15.25 6.5 15.25 4.65 16.55 3.3 17.9 2.0 19.75 2.0 21.6 2.0 22.9 3.3 24.25 4.65 24.25 6.5 24.25 8.35 22.9 9.65" fill="#ffffff" fill-rule="evenodd" stroke="none"/>
    <path d="M22.9 9.65 Q21.6 11.0 19.75 11.0 17.9 11.0 16.55 9.65 15.25 8.35 15.25 6.5 15.25 4.65 16.55 3.3 17.9 2.0 19.75 2.0 21.6 2.0 22.9 3.3 24.25 4.65 24.25 6.5 24.25 8.35 22.9 9.65 Z" fill="none" stroke="#000000" stroke-linecap="round" stroke-linejoin="miter-clip" stroke-miterlimit="3.0" stroke-width="1.0"/>
    <path d="M29.25 13.75 Q28.55 14.5 27.5 14.5 26.45 14.5 25.7 13.75 25.0 13.05 25.0 12.0 25.0 10.95 25.7 10.2 26.45 9.5 27.5 9.5 28.55 9.5 29.25 10.2 30.0 10.95 30.0 12.0 30.0 13.05 29.25 13.75" fill="#ffffff" fill-rule="evenodd" stroke="none"/>
    <path d="M29.25 13.75 Q28.55 14.5 27.5 14.5 26.45 14.5 25.7 13.75 25.0 13.05 25.0 12.0 25.0 10.95 25.7 10.2 26.45 9.5 27.5 9.5 28.55 9.5 29.25 10.2 30.0 10.95 30.0 12.0 30.0 13.05 29.25 13.75 Z" fill="none" stroke="#000000" stroke-linecap="round" stroke-linejoin="miter-clip" stroke-miterlimit="3.0" stroke-width="1.0"/>
    <path d="M-2.05 18.45 Q-2.85 19.25 -4.0 19.25 -5.15 19.25 -5.95 18.45 -6.75 17.65 -6.75 16.5 -6.75 15.35 -5.95 14.55 -5.15 13.75 -4.0 13.75 -2.85 13.75 -2.05 14.55 -1.25 15.35 -1.25 16.5 -1.25 17.65 -2.05 18.45" fill="#ffffff" fill-rule="evenodd" stroke="none"/>
    <path d="M-2.05 18.45 Q-2.85 19.25 -4.0 19.25 -5.15 19.25 -5.95 18.45 -6.75 17.65 -6.75 16.5 -6.75 15.35 -5.95 14.55 -5.15 13.75 -4.0 13.75 -2.85 13.75 -2.05 14.55 -1.25 15.35 -1.25 16.5 -1.25 17.65 -2.05 18.45 Z" fill="none" stroke="#000000" stroke-linecap="round" stroke-linejoin="miter-clip" stroke-miterlimit="3.0" stroke-width="1.0"/>
    <path d="M-30.5 20.5 Q-31.2 21.25 -32.25 21.25 -33.3 21.25 -34.05 20.5 -34.75 19.8 -34.75 18.75 -34.75 17.7 -34.05 16.95 -33.3 16.25 -32.25 16.25 -31.2 16.25 -30.5 16.95 -29.75 17.7 -29.75 18.75 -29.75 19.8 -30.5 20.5" fill="#ffffff" fill-rule="evenodd" stroke="none"/>
    <path d="M-30.5 20.5 Q-31.2 21.25 -32.25 21.25 -33.3 21.25 -34.05 20.5 -34.75 19.8 -34.75 18.75 -34.75 17.7 -34.05 16.95 -33.3 16.25 -32.25 16.25 -31.2 16.25 -30.5 16.95 -29.75 17.7 -29.75 18.75 -29.75 19.8 -30.5 20.5 Z" fill="none" stroke="#000000" stroke-linecap="round" stroke-linejoin="miter-clip" stroke-miterlimit="3.0" stroke-width="1.0"/>
    <path d="M37.25 -11.25 Q37.25 -13.0 38.5 -14.25 39.75 -15.5 41.5 -15.5 43.25 -15.5 44.5 -14.25 45.75 -13.0 45.75 -11.25 45.75 -9.5 44.5 -8.25 43.25 -7.0 41.5 -7.0 39.75 -7.0 38.5 -8.25 37.25 -9.5 37.25 -11.25" fill="#ffffff" fill-rule="evenodd" stroke="none"/>
    <path d="M37.25 -11.25 Q37.25 -13.0 38.5 -14.25 39.75 -15.5 41.5 -15.5 43.25 -15.5 44.5 -14.25 45.75 -13.0 45.75 -11.25 45.75 -9.5 44.5 -8.25 43.25 -7.0 41.5 -7.0 39.75 -7.0 38.5 -8.25 37.25 -9.5 37.25 -11.25 Z" fill="none" stroke="#000000" stroke-linecap="round" stroke-linejoin="miter-clip" stroke-miterlimit="3.0" stroke-width="1.0"/>
    <path d="M49.05 -18.45 Q48.1 -17.5 46.75 -17.5 45.4 -17.5 44.45 -18.45 43.5 -19.4 43.5 -20.75 43.5 -22.1 44.45 -23.05 45.4 -24.0 46.75 -24.0 48.1 -24.0 49.05 -23.05 50.0 -22.1 50.0 -20.75 50.0 -19.4 49.05 -18.45" fill="#ffffff" fill-rule="evenodd" stroke="none"/>
    <path d="M49.05 -18.45 Q48.1 -17.5 46.75 -17.5 45.4 -17.5 44.45 -18.45 43.5 -19.4 43.5 -20.75 43.5 -22.1 44.45 -23.05 45.4 -24.0 46.75 -24.0 48.1 -24.0 49.05 -23.05 50.0 -22.1 50.0 -20.75 50.0 -19.4 49.05 -18.45 Z" fill="none" stroke="#000000" stroke-linecap="round" stroke-linejoin="miter-clip" stroke-miterlimit="3.0" stroke-width="1.0"/>
    <path d="M58.6 -11.15 Q57.95 -10.5 57.0 -10.5 56.05 -10.5 55.4 -11.15 54.75 -11.8 54.75 -12.75 54.75 -13.7 55.4 -14.35 56.05 -15.0 57.0 -15.0 57.95 -15.0 58.6 -14.35 59.25 -13.7 59.25 -12.75 59.25 -11.8 58.6 -11.15" fill="#ffffff" fill-rule="evenodd" stroke="none"/>
    <path d="M58.6 -11.15 Q57.95 -10.5 57.0 -10.5 56.05 -10.5 55.4 -11.15 54.75 -11.8 54.75 -12.75 54.75 -13.7 55.4 -14.35 56.05 -15.0 57.0 -15.0 57.95 -15.0 58.6 -14.35 59.25 -13.7 59.25 -12.75 59.25 -11.8 58.6 -11.15 Z" fill="none" stroke="#000000" stroke-linecap="round" stroke-linejoin="miter-clip" stroke-miterlimit="3.0" stroke-width="1.0"/>
    <path d="M-50.85 -4.8 Q-50.85 -6.45 -49.1 -8.55 -47.3 -10.65 -44.65 -12.3 -42.0 -13.9 -40.35 -13.9 -38.5 -13.9 -37.3 -12.65 -36.15 -11.45 -36.15 -10.0 -36.15 -7.85 -37.5 -7.85 -39.2 -7.85 -39.55 -9.2 -39.75 -10.0 -40.1 -10.2 L-41.2 -10.45 Q-42.6 -10.45 -44.9 -8.6 -47.3 -6.8 -47.3 -5.85 -47.3 -5.45 -45.7 -5.15 -39.15 -3.95 -36.05 -2.75 -32.7 -1.45 -31.25 0.35 -29.9 2.1 -29.9 5.25 -29.9 7.6 -31.45 9.7 -32.95 11.8 -35.65 13.2 -38.3 14.55 -40.55 14.55 -42.05 14.55 -43.25 13.8 -44.4 13.05 -45.1 11.55 -45.8 10.1 -45.8 8.7 -45.8 6.75 -45.05 5.35 -44.35 3.9 -43.1 3.9 -41.25 3.9 -41.25 5.3 -41.25 5.8 -41.6 6.8 L-42.05 8.85 Q-42.05 10.2 -41.45 10.85 -40.8 11.45 -39.4 11.5 -37.1 11.5 -35.4 9.75 -33.75 8.0 -33.75 5.65 -33.75 3.8 -34.55 2.65 -35.45 1.5 -37.4 0.8 -41.05 -0.5 -47.95 -1.55 -50.85 -1.95 -50.85 -4.8" fill="#ffffff" fill-rule="evenodd" stroke="none"/>
    <path d="M-31.2 -6.6 Q-31.2 -7.5 -30.3 -8.15 -27.85 -9.7 -24.75 -10.65 -21.65 -11.6 -19.0 -11.6 -15.15 -11.6 -12.85 -10.25 -10.5 -8.95 -10.5 -6.55 -10.5 -3.4 -13.7 -0.2 -16.9 2.95 -21.95 5.25 L-21.65 7.5 -21.05 10.35 -20.75 11.55 Q-20.75 12.35 -21.7 12.95 -22.65 13.6 -23.55 13.6 L-24.65 13.35 -25.4 12.6 -26.0 8.05 -26.2 6.7 -26.5 6.2 -26.85 5.45 Q-26.85 4.65 -26.45 4.05 -26.15 3.65 -26.15 3.2 -26.15 1.9 -26.65 -2.2 L-26.95 -5.05 Q-27.15 -6.35 -27.4 -6.35 L-28.1 -6.0 -28.8 -5.6 -29.1 -5.4 -30.0 -5.2 Q-30.55 -5.2 -30.85 -5.55 -31.2 -5.95 -31.2 -6.6 M-22.3 1.5 L-22.05 1.35 Q-18.2 -0.55 -16.65 -2.25 -15.05 -4.0 -15.05 -5.9 -15.05 -7.25 -16.45 -8.0 -17.85 -8.75 -19.9 -8.75 -21.75 -8.75 -23.25 -7.95 -22.65 -6.0 -22.55 -2.6 L-22.4 -0.3 -22.3 1.5" fill="#ffffff" fill-rule="evenodd" stroke="none"/>
    <path d="M-7.8 -14.9 Q-7.75 -15.55 -7.05 -16.05 -6.4 -16.55 -5.55 -16.5 -4.45 -16.4 -3.9 -15.8 L-3.5 -15.05 -3.4 -13.05 -3.5 -8.5 Q-3.65 -0.75 -3.95 4.2 L-2.25 3.75 0.25 3.6 3.25 3.55 6.2 3.25 Q7.85 2.7 8.9 2.8 9.85 2.85 10.3 3.4 10.75 3.9 10.7 4.65 L10.25 5.8 9.25 6.55 2.4 6.8 -1.55 6.9 -2.4 6.9 -4.6 7.35 Q-4.95 7.7 -5.25 7.75 L-6.35 7.8 -7.5 7.35 Q-8.0 6.9 -8.0 6.45 L-7.85 4.75 -7.6 2.95 Q-7.4 0.2 -7.5 -5.55 L-7.7 -13.5 -7.8 -14.9" fill="#ffffff" fill-rule="evenodd" stroke="none"/>
    <path d="M7.9 -24.4 Q8.85 -24.4 9.45 -23.75 10.0 -23.1 10.0 -22.35 10.0 -19.85 8.25 -14.65 L7.65 -12.9 13.55 -15.7 Q12.85 -18.0 11.15 -21.45 9.45 -24.9 8.65 -24.9 8.2 -24.9 7.8 -25.4 7.4 -25.95 7.4 -26.55 7.4 -27.35 8.15 -27.8 8.9 -28.25 10.15 -28.25 11.3 -28.25 13.5 -24.45 15.7 -20.65 16.8 -17.5 18.75 -17.5 18.75 -15.8 18.75 -14.8 18.15 -14.55 L20.4 -11.15 22.6 -8.2 Q24.2 -6.55 24.2 -5.75 24.2 -3.65 22.2 -3.65 21.5 -3.65 20.9 -4.0 L19.6 -5.2 19.4 -5.45 16.85 -9.85 15.0 -12.95 6.6 -8.9 Q6.0 -6.85 6.0 -5.65 L6.05 -4.2 6.15 -2.65 Q6.15 -1.95 5.5 -1.5 4.8 -1.05 3.9 -1.05 3.0 -1.05 2.45 -1.75 1.9 -2.4 1.9 -3.6 1.9 -5.35 2.95 -9.6 3.95 -13.85 4.6 -15.3 L5.35 -18.05 5.8 -20.85 5.75 -21.9 5.7 -22.65 Q5.7 -23.35 6.35 -23.85 6.95 -24.4 7.9 -24.4" fill="#ffffff" fill-rule="evenodd" stroke="none"/>
    <path d="M27.4 -25.55 L30.05 -25.85 32.8 -26.2 39.2 -26.85 Q39.8 -26.8 40.25 -26.15 40.7 -25.55 40.65 -24.95 40.6 -24.25 40.0 -23.75 39.35 -23.25 38.6 -23.3 L35.45 -23.25 32.1 -22.95 32.05 -22.65 31.95 -18.1 31.9 -15.8 31.85 -11.1 31.85 -7.35 32.15 -5.25 32.4 -3.1 Q32.35 -2.45 31.7 -2.1 L29.95 -1.8 Q28.95 -1.9 28.35 -2.8 27.75 -3.65 27.65 -5.7 27.45 -9.5 27.65 -12.35 L27.85 -17.5 28.0 -22.3 25.15 -21.85 21.8 -21.45 Q21.2 -21.5 20.8 -22.15 20.4 -22.8 20.45 -23.4 20.5 -24.0 20.95 -24.5 21.35 -25.05 21.9 -25.05 L27.4 -25.55" fill="#ffffff" fill-rule="evenodd" stroke="none"/>
  </g>
</svg>
