<?xml version="1.0" encoding="UTF-8" standalone="no"?>
<svg xmlns:ffdec="https://www.free-decompiler.com/flash" xmlns:xlink="http://www.w3.org/1999/xlink" ffdec:objectType="shape" height="29.85px" width="138.6px" xmlns="http://www.w3.org/2000/svg">
  <g transform="matrix(1.0, 0.0, 0.0, 1.0, 72.3, 11.75)">
    <path d="M-46.55 -8.3 L-41.45 -9.7 -39.7 -10.0 Q-36.65 -10.3 -34.3 -8.7 -32.0 -7.15 -31.2 -4.2 L-30.95 -2.7 Q-30.7 0.25 -32.4 2.5 -34.2 4.75 -37.15 5.6 L-39.65 6.25 -38.6 10.3 -38.5 10.95 Q-38.35 12.25 -39.15 13.15 -39.95 14.05 -41.25 14.15 -42.35 14.25 -43.25 13.65 -44.1 13.05 -44.4 11.8 L-48.8 -4.55 -48.9 -5.15 Q-49.15 -7.6 -46.55 -8.3 M-42.35 -3.8 L-41.05 0.95 -38.85 0.35 Q-36.95 -0.2 -37.1 -2.1 -37.2 -3.2 -37.85 -3.8 -38.6 -4.55 -39.65 -4.45 L-40.05 -4.35 -42.35 -3.8" fill="#ffffff" fill-rule="evenodd" stroke="none"/>
    <path d="M-46.55 -8.3 L-41.45 -9.7 -39.7 -10.0 Q-36.65 -10.3 -34.3 -8.7 -32.0 -7.15 -31.2 -4.2 L-30.95 -2.7 Q-30.7 0.25 -32.4 2.5 -34.2 4.75 -37.15 5.6 L-39.65 6.25 -38.6 10.3 -38.5 10.95 Q-38.35 12.25 -39.15 13.15 -39.95 14.05 -41.25 14.15 -42.35 14.25 -43.25 13.65 -44.1 13.05 -44.4 11.8 L-48.8 -4.55 -48.9 -5.15 Q-49.15 -7.6 -46.55 -8.3 M-42.35 -3.8 L-41.05 0.95 -38.85 0.35 Q-36.95 -0.2 -37.1 -2.1 -37.2 -3.2 -37.85 -3.8 -38.6 -4.55 -39.65 -4.45 L-40.05 -4.35 -42.35 -3.8 Z" fill="none" stroke="#000000" stroke-linecap="round" stroke-linejoin="miter-clip" stroke-miterlimit="3.0" stroke-width="3.0"/>
    <path d="M-24.7 -9.85 Q-21.15 -10.35 -18.45 -7.95 -15.8 -5.75 -15.25 -2.2 -14.85 1.45 -16.65 4.25 -18.65 7.2 -22.25 7.75 -25.9 8.2 -28.55 5.95 -31.25 3.7 -31.75 0.15 -32.15 -3.4 -30.3 -6.3 -28.3 -9.3 -24.7 -9.85 M-25.75 -3.3 Q-26.3 -2.15 -26.05 -0.65 -25.9 0.8 -25.0 1.7 -24.15 2.6 -23.0 2.45 -21.85 2.3 -21.25 1.15 -20.7 0.05 -20.9 -1.4 -21.1 -2.85 -22.0 -3.8 -22.8 -4.7 -24.0 -4.55 -25.2 -4.4 -25.75 -3.3" fill="#ffffff" fill-rule="evenodd" stroke="none"/>
    <path d="M-24.7 -9.85 Q-21.15 -10.35 -18.45 -7.95 -15.8 -5.75 -15.25 -2.2 -14.85 1.45 -16.65 4.25 -18.65 7.2 -22.25 7.75 -25.9 8.2 -28.55 5.95 -31.25 3.7 -31.75 0.15 -32.15 -3.4 -30.3 -6.3 -28.3 -9.3 -24.7 -9.85 M-25.75 -3.3 Q-26.3 -2.15 -26.05 -0.65 -25.9 0.8 -25.0 1.7 -24.15 2.6 -23.0 2.45 -21.85 2.3 -21.25 1.15 -20.7 0.05 -20.9 -1.4 -21.1 -2.85 -22.0 -3.8 -22.8 -4.7 -24.0 -4.55 -25.2 -4.4 -25.75 -3.3 Z" fill="none" stroke="#000000" stroke-linecap="round" stroke-linejoin="miter-clip" stroke-miterlimit="3.0" stroke-width="3.0"/>
    <path d="M22.2 -4.5 Q22.45 -6.4 23.75 -7.45 24.95 -8.45 26.75 -8.2 29.45 -7.9 29.25 -5.9 29.0 -3.95 27.1 -4.2 26.6 -4.25 26.45 -3.65 L26.45 -2.85 26.85 -2.75 Q29.05 -2.5 28.8 -0.55 28.65 0.45 27.95 0.85 L26.35 1.1 25.9 1.1 25.05 7.85 Q24.9 8.9 24.25 9.5 23.55 10.1 22.6 10.0 21.65 9.9 21.15 9.1 20.6 8.35 20.75 7.4 L21.6 0.55 21.4 0.55 Q20.6 0.4 20.1 -0.2 19.65 -0.8 19.75 -1.7 19.85 -2.55 20.45 -3.0 21.1 -3.5 21.95 -3.45 L22.1 -3.4 22.2 -4.5" fill="#ffffff" fill-rule="evenodd" stroke="none"/>
    <path d="M22.2 -4.5 Q22.45 -6.4 23.75 -7.45 24.95 -8.45 26.75 -8.2 29.45 -7.9 29.25 -5.9 29.0 -3.95 27.1 -4.2 26.6 -4.25 26.45 -3.65 L26.45 -2.85 26.85 -2.75 Q29.05 -2.5 28.8 -0.55 28.65 0.45 27.95 0.85 L26.35 1.1 25.9 1.1 25.05 7.85 Q24.9 8.9 24.25 9.5 23.55 10.1 22.6 10.0 21.65 9.9 21.15 9.1 20.6 8.35 20.75 7.4 L21.6 0.55 21.4 0.55 Q20.6 0.4 20.1 -0.2 19.65 -0.8 19.75 -1.7 19.85 -2.55 20.45 -3.0 21.1 -3.5 21.95 -3.45 L22.1 -3.4 22.2 -4.5 Z" fill="none" stroke="#000000" stroke-linecap="round" stroke-linejoin="miter-clip" stroke-miterlimit="3.0" stroke-width="3.0"/>
    <path d="M35.15 -6.05 Q37.85 -5.65 37.6 -3.65 37.25 -1.7 35.35 -2.05 34.85 -2.1 34.75 -1.5 L34.6 -0.75 35.05 -0.65 Q37.25 -0.3 36.9 1.65 36.7 2.65 36.05 3.0 L34.45 3.2 34.0 3.2 32.85 9.95 Q32.65 11.0 31.95 11.5 31.2 12.1 30.25 11.9 29.3 11.75 28.85 10.95 28.35 10.25 28.55 9.25 L29.65 2.45 29.45 2.45 Q28.65 2.25 28.25 1.65 27.75 1.0 27.95 0.1 28.0 -0.7 28.65 -1.15 29.35 -1.6 30.15 -1.5 L30.3 -1.45 30.5 -2.55 Q30.85 -4.5 32.1 -5.45 33.35 -6.35 35.15 -6.05" fill="#ffffff" fill-rule="evenodd" stroke="none"/>
    <path d="M35.15 -6.05 Q37.85 -5.65 37.6 -3.65 37.25 -1.7 35.35 -2.05 34.85 -2.1 34.75 -1.5 L34.6 -0.75 35.05 -0.65 Q37.25 -0.3 36.9 1.65 36.7 2.65 36.05 3.0 L34.45 3.2 34.0 3.2 32.85 9.95 Q32.65 11.0 31.95 11.5 31.2 12.1 30.25 11.9 29.3 11.75 28.85 10.95 28.35 10.25 28.55 9.25 L29.65 2.45 29.45 2.45 Q28.65 2.25 28.25 1.65 27.75 1.0 27.95 0.1 28.0 -0.7 28.65 -1.15 29.35 -1.6 30.15 -1.5 L30.3 -1.45 30.5 -2.55 Q30.85 -4.5 32.1 -5.45 33.35 -6.35 35.15 -6.05 Z" fill="none" stroke="#000000" stroke-linecap="round" stroke-linejoin="miter-clip" stroke-miterlimit="3.0" stroke-width="3.0"/>
    <path d="M43.5 -3.35 Q46.25 -2.8 45.8 -0.8 45.35 1.1 43.5 0.65 43.0 0.6 42.85 1.2 L42.7 1.95 43.15 2.05 Q45.25 2.55 44.8 4.4 44.6 5.4 43.9 5.75 L42.25 5.85 41.85 5.8 40.3 12.45 Q40.1 13.5 39.35 14.0 L37.6 14.3 Q36.75 14.1 36.3 13.3 35.85 12.55 36.05 11.55 L37.6 4.85 37.4 4.8 Q36.55 4.55 36.15 3.95 35.75 3.25 35.95 2.45 36.1 1.6 36.75 1.2 37.5 0.75 38.3 0.9 L38.45 0.95 38.65 -0.1 Q39.1 -2.05 40.4 -2.9 41.75 -3.8 43.5 -3.35" fill="#ffffff" fill-rule="evenodd" stroke="none"/>
    <path d="M43.5 -3.35 Q46.25 -2.8 45.8 -0.8 45.35 1.1 43.5 0.65 43.0 0.6 42.85 1.2 L42.7 1.95 43.15 2.05 Q45.25 2.55 44.8 4.4 44.6 5.4 43.9 5.75 L42.25 5.85 41.85 5.8 40.3 12.45 Q40.1 13.5 39.35 14.0 L37.6 14.3 Q36.75 14.1 36.3 13.3 35.85 12.55 36.05 11.55 L37.6 4.85 37.4 4.8 Q36.55 4.55 36.15 3.95 35.75 3.25 35.95 2.45 36.1 1.6 36.75 1.2 37.5 0.75 38.3 0.9 L38.45 0.95 38.65 -0.1 Q39.1 -2.05 40.4 -2.9 41.75 -3.8 43.5 -3.35 Z" fill="none" stroke="#000000" stroke-linecap="round" stroke-linejoin="miter-clip" stroke-miterlimit="3.0" stroke-width="3.0"/>
    <path d="M-11.65 -4.35 Q-12.15 -3.35 -12.05 -2.0 -11.95 -0.7 -11.2 0.15 -10.45 1.0 -9.4 0.9 -8.35 0.8 -7.75 -0.2 -7.25 -1.2 -7.35 -2.55 -7.55 -3.8 -8.3 -4.7 -9.0 -5.55 -10.1 -5.45 -11.1 -5.35 -11.65 -4.35 M-10.55 -10.2 Q-7.35 -10.55 -4.95 -8.3 -2.65 -6.25 -2.3 -3.05 -2.0 0.25 -3.75 2.7 -5.6 5.3 -8.85 5.65 -12.15 6.0 -14.5 3.85 -16.8 1.8 -17.15 -1.45 -17.45 -4.65 -15.65 -7.2 -13.75 -9.85 -10.55 -10.2" fill="#ffffff" fill-rule="evenodd" stroke="none"/>
    <path d="M-11.65 -4.35 Q-12.15 -3.35 -12.05 -2.0 -11.95 -0.7 -11.2 0.15 -10.45 1.0 -9.4 0.9 -8.35 0.8 -7.75 -0.2 -7.25 -1.2 -7.35 -2.55 -7.55 -3.8 -8.3 -4.7 -9.0 -5.55 -10.1 -5.45 -11.1 -5.35 -11.65 -4.35 M-10.55 -10.2 Q-7.35 -10.55 -4.95 -8.3 -2.65 -6.25 -2.3 -3.05 -2.0 0.25 -3.75 2.7 -5.6 5.3 -8.85 5.65 -12.15 6.0 -14.5 3.85 -16.8 1.8 -17.15 -1.45 -17.45 -4.65 -15.65 -7.2 -13.75 -9.85 -10.55 -10.2 Z" fill="none" stroke="#000000" stroke-linecap="round" stroke-linejoin="miter-clip" stroke-miterlimit="3.0" stroke-width="3.0"/>
    <path d="M2.45 -8.8 Q5.35 -8.95 7.35 -6.85 9.35 -4.85 9.5 -2.0 9.6 0.95 7.95 3.1 6.15 5.35 3.2 5.5 0.25 5.65 -1.75 3.6 -3.7 1.65 -3.9 -1.25 -4.0 -4.15 -2.25 -6.35 -0.45 -8.65 2.45 -8.8 M1.15 -3.6 Q0.65 -2.75 0.7 -1.5 0.75 -0.35 1.4 0.45 2.0 1.25 2.95 1.2 3.9 1.15 4.45 0.3 4.95 -0.55 4.95 -1.75 4.85 -2.9 4.25 -3.75 3.65 -4.55 2.65 -4.5 1.7 -4.45 1.15 -3.6" fill="#ffffff" fill-rule="evenodd" stroke="none"/>
    <path d="M2.45 -8.8 Q5.35 -8.95 7.35 -6.85 9.35 -4.85 9.5 -2.0 9.6 0.95 7.95 3.1 6.15 5.35 3.2 5.5 0.25 5.65 -1.75 3.6 -3.7 1.65 -3.9 -1.25 -4.0 -4.15 -2.25 -6.35 -0.45 -8.65 2.45 -8.8 M1.15 -3.6 Q0.65 -2.75 0.7 -1.5 0.75 -0.35 1.4 0.45 2.0 1.25 2.95 1.2 3.9 1.15 4.45 0.3 4.95 -0.55 4.95 -1.75 4.85 -2.9 4.25 -3.75 3.65 -4.55 2.65 -4.5 1.7 -4.45 1.15 -3.6 Z" fill="none" stroke="#000000" stroke-linecap="round" stroke-linejoin="miter-clip" stroke-miterlimit="3.0" stroke-width="3.0"/>
    <path d="M13.1 -1.8 Q12.55 -1.0 12.6 0.15 12.6 1.25 13.1 2.0 13.65 2.75 14.55 2.8 15.4 2.8 16.0 2.0 16.5 1.25 16.5 0.15 16.55 -0.95 16.0 -1.75 15.5 -2.55 14.6 -2.55 13.65 -2.55 13.1 -1.8 M14.6 -6.55 Q17.35 -6.55 19.1 -4.45 20.85 -2.5 20.85 0.2 20.75 2.95 19.05 4.8 17.25 6.8 14.5 6.8 11.75 6.75 10.0 4.75 8.25 2.8 8.3 0.1 8.35 -2.65 10.1 -4.6 11.9 -6.55 14.6 -6.55" fill="#ffffff" fill-rule="evenodd" stroke="none"/>
    <path d="M13.1 -1.8 Q12.55 -1.0 12.6 0.15 12.6 1.25 13.1 2.0 13.65 2.75 14.55 2.8 15.4 2.8 16.0 2.0 16.5 1.25 16.5 0.15 16.55 -0.95 16.0 -1.75 15.5 -2.55 14.6 -2.55 13.65 -2.55 13.1 -1.8 M14.6 -6.55 Q17.35 -6.55 19.1 -4.45 20.85 -2.5 20.85 0.2 20.75 2.95 19.05 4.8 17.25 6.8 14.5 6.8 11.75 6.75 10.0 4.75 8.25 2.8 8.3 0.1 8.35 -2.65 10.1 -4.6 11.9 -6.55 14.6 -6.55 Z" fill="none" stroke="#000000" stroke-linecap="round" stroke-linejoin="miter-clip" stroke-miterlimit="3.0" stroke-width="3.0"/>
    <path d="M-53.05 1.3 Q-54.15 2.4 -55.65 2.4 -57.2 2.4 -58.35 1.3 -59.4 0.2 -59.4 -1.35 -59.4 -2.9 -58.35 -4.0 -57.2 -5.1 -55.65 -5.1 -54.15 -5.1 -53.05 -4.0 -51.9 -2.9 -51.9 -1.35 -51.9 0.2 -53.05 1.3" fill="#ffffff" fill-rule="evenodd" stroke="none"/>
    <path d="M-53.05 1.3 Q-54.15 2.4 -55.65 2.4 -57.2 2.4 -58.35 1.3 -59.4 0.2 -59.4 -1.35 -59.4 -2.9 -58.35 -4.0 -57.2 -5.1 -55.65 -5.1 -54.15 -5.1 -53.05 -4.0 -51.9 -2.9 -51.9 -1.35 -51.9 0.2 -53.05 1.3 Z" fill="none" stroke="#000000" stroke-linecap="round" stroke-linejoin="miter-clip" stroke-miterlimit="3.0" stroke-width="1.0"/>
    <path d="M-66.35 7.1 Q-67.3 8.05 -68.6 8.05 -69.9 8.05 -70.85 7.1 -71.8 6.2 -71.8 4.85 -71.8 3.55 -70.85 2.6 -69.9 1.7 -68.6 1.7 -67.3 1.7 -66.35 2.6 -65.4 3.55 -65.4 4.85 -65.4 6.2 -66.35 7.1" fill="#ffffff" fill-rule="evenodd" stroke="none"/>
    <path d="M-66.35 7.1 Q-67.3 8.05 -68.6 8.05 -69.9 8.05 -70.85 7.1 -71.8 6.2 -71.8 4.85 -71.8 3.55 -70.85 2.6 -69.9 1.7 -68.6 1.7 -67.3 1.7 -66.35 2.6 -65.4 3.55 -65.4 4.85 -65.4 6.2 -66.35 7.1 Z" fill="none" stroke="#000000" stroke-linecap="round" stroke-linejoin="miter-clip" stroke-miterlimit="3.0" stroke-width="1.0"/>
    <path d="M-54.1 14.85 Q-55.65 16.5 -57.9 16.5 -60.15 16.5 -61.75 14.85 -63.35 13.3 -63.35 11.05 -63.35 8.8 -61.75 7.2 -60.15 5.6 -57.9 5.6 -55.65 5.6 -54.1 7.2 -52.45 8.8 -52.45 11.05 -52.45 13.3 -54.1 14.85" fill="#ffffff" fill-rule="evenodd" stroke="none"/>
    <path d="M-54.1 14.85 Q-55.65 16.5 -57.9 16.5 -60.15 16.5 -61.75 14.85 -63.35 13.3 -63.35 11.05 -63.35 8.8 -61.75 7.2 -60.15 5.6 -57.9 5.6 -55.65 5.6 -54.1 7.2 -52.45 8.8 -52.45 11.05 -52.45 13.3 -54.1 14.85 Z" fill="none" stroke="#000000" stroke-linecap="round" stroke-linejoin="miter-clip" stroke-miterlimit="3.0" stroke-width="1.0"/>
    <path d="M51.95 17.6 Q49.6 17.6 47.95 15.95 46.3 14.3 46.3 11.95 46.3 9.65 47.95 8.0 49.6 6.35 51.95 6.35 54.25 6.35 55.9 8.0 57.55 9.65 57.55 11.95 57.55 14.3 55.9 15.95 54.25 17.6 51.95 17.6" fill="#ffffff" fill-rule="evenodd" stroke="none"/>
    <path d="M51.95 17.6 Q49.6 17.6 47.95 15.95 46.3 14.3 46.3 11.95 46.3 9.65 47.95 8.0 49.6 6.35 51.95 6.35 54.25 6.35 55.9 8.0 57.55 9.65 57.55 11.95 57.55 14.3 55.9 15.95 54.25 17.6 51.95 17.6 Z" fill="none" stroke="#000000" stroke-linecap="round" stroke-linejoin="miter-clip" stroke-miterlimit="3.0" stroke-width="1.0"/>
    <path d="M61.75 4.95 Q60.7 6.0 59.25 6.0 57.8 6.0 56.75 4.95 55.7 3.9 55.7 2.45 55.7 0.95 56.75 -0.1 57.8 -1.15 59.25 -1.15 60.7 -1.15 61.75 -0.1 62.8 0.95 62.8 2.45 62.8 3.9 61.75 4.95" fill="#ffffff" fill-rule="evenodd" stroke="none"/>
    <path d="M61.75 4.95 Q60.7 6.0 59.25 6.0 57.8 6.0 56.75 4.95 55.7 3.9 55.7 2.45 55.7 0.95 56.75 -0.1 57.8 -1.15 59.25 -1.15 60.7 -1.15 61.75 -0.1 62.8 0.95 62.8 2.45 62.8 3.9 61.75 4.95 Z" fill="none" stroke="#000000" stroke-linecap="round" stroke-linejoin="miter-clip" stroke-miterlimit="3.0" stroke-width="1.0"/>
    <path d="M65.0 14.9 Q64.15 15.75 63.0 15.75 61.85 15.75 61.0 14.9 60.2 14.1 60.2 12.9 60.2 11.75 61.0 10.95 61.85 10.1 63.0 10.1 64.15 10.1 65.0 10.95 65.8 11.75 65.8 12.9 65.8 14.1 65.0 14.9" fill="#ffffff" fill-rule="evenodd" stroke="none"/>
    <path d="M65.0 14.9 Q64.15 15.75 63.0 15.75 61.85 15.75 61.0 14.9 60.2 14.1 60.2 12.9 60.2 11.75 61.0 10.95 61.85 10.1 63.0 10.1 64.15 10.1 65.0 10.95 65.8 11.75 65.8 12.9 65.8 14.1 65.0 14.9 Z" fill="none" stroke="#000000" stroke-linecap="round" stroke-linejoin="miter-clip" stroke-miterlimit="3.0" stroke-width="1.0"/>
    <path d="M-46.55 -8.3 L-41.45 -9.7 -39.7 -10.0 Q-36.65 -10.3 -34.3 -8.7 -32.0 -7.15 -31.2 -4.2 L-30.95 -2.7 Q-30.7 0.25 -32.4 2.5 -34.2 4.75 -37.15 5.6 L-39.65 6.25 -38.6 10.3 -38.5 10.95 Q-38.35 12.25 -39.15 13.15 -39.95 14.05 -41.25 14.15 -42.35 14.25 -43.25 13.65 -44.1 13.05 -44.4 11.8 L-48.8 -4.55 -48.9 -5.15 Q-49.15 -7.6 -46.55 -8.3 M-40.05 -4.35 L-42.35 -3.8 -41.05 0.95 -38.85 0.35 Q-36.95 -0.2 -37.1 -2.1 -37.2 -3.2 -37.85 -3.8 -38.6 -4.55 -39.65 -4.45 L-40.05 -4.35" fill="#ffffff" fill-rule="evenodd" stroke="none"/>
    <path d="M-25.75 -3.3 Q-26.3 -2.15 -26.05 -0.65 -25.9 0.8 -25.0 1.7 -24.15 2.6 -23.0 2.45 -21.85 2.3 -21.25 1.15 -20.7 0.05 -20.9 -1.4 -21.1 -2.85 -22.0 -3.8 -22.8 -4.7 -24.0 -4.55 -25.2 -4.4 -25.75 -3.3 M-24.7 -9.85 Q-21.15 -10.35 -18.45 -7.95 -15.8 -5.75 -15.25 -2.2 -14.85 1.45 -16.65 4.25 -18.65 7.2 -22.25 7.75 -25.9 8.2 -28.55 5.95 -31.25 3.7 -31.75 0.15 -32.15 -3.4 -30.3 -6.3 -28.3 -9.3 -24.7 -9.85" fill="#ffffff" fill-rule="evenodd" stroke="none"/>
    <path d="M22.2 -4.5 Q22.45 -6.4 23.75 -7.45 24.95 -8.45 26.75 -8.2 29.45 -7.9 29.25 -5.9 29.0 -3.95 27.1 -4.2 26.6 -4.25 26.45 -3.65 L26.45 -2.85 26.85 -2.75 Q29.05 -2.5 28.8 -0.55 28.65 0.45 27.95 0.85 L26.35 1.1 25.9 1.1 25.05 7.85 Q24.9 8.9 24.25 9.5 23.55 10.1 22.6 10.0 21.65 9.9 21.15 9.1 20.6 8.35 20.75 7.4 L21.6 0.55 21.4 0.55 Q20.6 0.4 20.1 -0.2 19.65 -0.8 19.75 -1.7 19.85 -2.55 20.45 -3.0 21.1 -3.5 21.95 -3.45 L22.1 -3.4 22.2 -4.5" fill="#ffffff" fill-rule="evenodd" stroke="none"/>
    <path d="M35.15 -6.05 Q37.85 -5.65 37.6 -3.65 37.25 -1.7 35.35 -2.05 34.85 -2.1 34.75 -1.5 L34.6 -0.75 35.05 -0.65 Q37.25 -0.3 36.9 1.65 36.7 2.65 36.05 3.0 L34.45 3.2 34.0 3.2 32.85 9.95 Q32.65 11.0 31.95 11.5 31.2 12.1 30.25 11.9 29.3 11.75 28.85 10.95 28.35 10.25 28.55 9.25 L29.65 2.45 29.45 2.45 Q28.65 2.25 28.25 1.65 27.75 1.0 27.95 0.1 28.0 -0.7 28.65 -1.15 29.35 -1.6 30.15 -1.5 L30.3 -1.45 30.5 -2.55 Q30.85 -4.5 32.1 -5.45 33.35 -6.35 35.15 -6.05" fill="#ffffff" fill-rule="evenodd" stroke="none"/>
    <path d="M43.5 -3.35 Q46.25 -2.8 45.8 -0.8 45.35 1.1 43.5 0.65 43.0 0.6 42.85 1.2 L42.7 1.95 43.15 2.05 Q45.25 2.55 44.8 4.4 44.6 5.4 43.9 5.75 L42.25 5.85 41.85 5.8 40.3 12.45 Q40.1 13.5 39.35 14.0 L37.6 14.3 Q36.75 14.1 36.3 13.3 35.85 12.55 36.05 11.55 L37.6 4.85 37.4 4.8 Q36.55 4.55 36.15 3.95 35.75 3.25 35.95 2.45 36.1 1.6 36.75 1.2 37.5 0.75 38.3 0.9 L38.45 0.95 38.65 -0.1 Q39.1 -2.05 40.4 -2.9 41.75 -3.8 43.5 -3.35" fill="#ffffff" fill-rule="evenodd" stroke="none"/>
    <path d="M-10.55 -10.2 Q-7.35 -10.55 -4.95 -8.3 -2.65 -6.25 -2.3 -3.05 -2.0 0.25 -3.75 2.7 -5.6 5.3 -8.85 5.65 -12.15 6.0 -14.5 3.85 -16.8 1.8 -17.15 -1.45 -17.45 -4.65 -15.65 -7.2 -13.75 -9.85 -10.55 -10.2 M-11.65 -4.35 Q-12.15 -3.35 -12.05 -2.0 -11.95 -0.7 -11.2 0.15 -10.45 1.0 -9.4 0.9 -8.35 0.8 -7.75 -0.2 -7.25 -1.2 -7.35 -2.55 -7.55 -3.8 -8.3 -4.7 -9.0 -5.55 -10.1 -5.45 -11.1 -5.35 -11.65 -4.35" fill="#ffffff" fill-rule="evenodd" stroke="none"/>
    <path d="M1.15 -3.6 Q0.65 -2.75 0.7 -1.5 0.75 -0.35 1.4 0.45 2.0 1.25 2.95 1.2 3.9 1.15 4.45 0.3 4.95 -0.55 4.95 -1.75 4.85 -2.9 4.25 -3.75 3.65 -4.55 2.65 -4.5 1.7 -4.45 1.15 -3.6 M2.45 -8.8 Q5.35 -8.95 7.35 -6.85 9.35 -4.85 9.5 -2.0 9.6 0.95 7.95 3.1 6.15 5.35 3.2 5.5 0.25 5.65 -1.75 3.6 -3.7 1.65 -3.9 -1.25 -4.0 -4.15 -2.25 -6.35 -0.45 -8.65 2.45 -8.8" fill="#ffffff" fill-rule="evenodd" stroke="none"/>
    <path d="M14.6 -6.55 Q17.35 -6.55 19.1 -4.45 20.85 -2.5 20.85 0.2 20.75 2.95 19.05 4.8 17.25 6.8 14.5 6.8 11.75 6.75 10.0 4.75 8.25 2.8 8.3 0.1 8.35 -2.65 10.1 -4.6 11.9 -6.55 14.6 -6.55 M13.1 -1.8 Q12.55 -1.0 12.6 0.15 12.6 1.25 13.1 2.0 13.65 2.75 14.55 2.8 15.4 2.8 16.0 2.0 16.5 1.25 16.5 0.15 16.55 -0.95 16.0 -1.75 15.5 -2.55 14.6 -2.55 13.65 -2.55 13.1 -1.8" fill="#ffffff" fill-rule="evenodd" stroke="none"/>
  </g>
</svg>
