<?xml version="1.0" encoding="UTF-8" standalone="no"?>
<svg xmlns:ffdec="https://www.free-decompiler.com/flash" xmlns:xlink="http://www.w3.org/1999/xlink" ffdec:objectType="shape" height="104.9px" width="142.75px" xmlns="http://www.w3.org/2000/svg">
  <g transform="matrix(1.0, 0.0, 0.0, 1.0, 70.1, 47.9)">
    <path d="M46.6 -16.6 L71.4 -11.4 48.95 2.95 70.5 22.1 35.1 18.75 45.05 39.6 17.9 25.1 19.95 52.6 1.1 34.55 -13.45 55.85 -21.9 31.3 -50.0 40.4 -38.75 18.0 -68.6 14.1 -40.05 2.3 -61.5 -12.45 -33.2 -12.85 -43.2 -35.7 -16.4 -20.45 -13.45 -46.55 6.8 -26.4 19.3 -45.45 30.75 -29.4 51.3 -38.1 46.6 -16.6" fill="#ffffff" fill-opacity="0.49803922" fill-rule="evenodd" stroke="none"/>
    <path d="M46.6 -16.6 L71.4 -11.4 48.95 2.95 70.5 22.1 35.1 18.75 45.05 39.6 17.9 25.1 19.95 52.6 1.1 34.55 -13.45 55.85 -21.9 31.3 -50.0 40.4 -38.75 18.0 -68.6 14.1 -40.05 2.3 -61.5 -12.45 -33.2 -12.85 -43.2 -35.7 -16.4 -20.45 -13.45 -46.55 6.8 -26.4 19.3 -45.45 30.75 -29.4 51.3 -38.1 46.6 -16.6 Z" fill="none" stroke="#000000" stroke-linecap="round" stroke-linejoin="miter-clip" stroke-miterlimit="3.0" stroke-opacity="0.49803922" stroke-width="1.0"/>
    <path d="M-2.3 -9.0 L-4.8 -8.45 -8.8 29.15 -12.3 18.7 -10.05 -7.4 -12.8 -6.8 -12.4 -10.7 -2.0 -12.65 -2.3 -9.0 M-22.0 -9.15 L-18.4 -9.6 Q-17.05 -9.7 -16.3 -9.05 -15.65 -8.6 -15.55 -7.3 L-15.55 -6.15 -15.7 -4.4 -16.1 0.05 -22.1 1.6 -21.55 -3.95 -21.5 -4.3 -21.5 -4.4 -21.75 -5.0 Q-22.0 -5.2 -22.5 -5.0 -23.05 -4.9 -23.3 -4.55 -23.65 -4.2 -23.55 -3.45 L-24.1 1.45 -24.05 1.8 -24.1 2.15 -23.8 2.65 Q-23.6 2.95 -22.8 3.05 L-19.2 4.0 Q-18.15 4.35 -17.45 5.0 -16.95 5.6 -16.8 6.65 L-16.75 7.25 -16.85 8.0 -17.5 14.6 Q-17.7 17.25 -18.25 18.8 -18.95 20.35 -20.55 21.4 -22.2 22.45 -25.45 23.6 L-29.5 24.8 -30.4 24.95 -31.95 24.6 Q-32.8 24.1 -32.8 22.8 L-32.85 22.15 -32.8 21.5 -32.55 19.4 -31.8 11.85 -25.05 9.95 -25.85 18.0 -25.95 18.4 -25.9 18.65 Q-26.0 19.0 -25.65 19.15 L-24.85 19.05 -24.05 18.55 -23.7 17.3 -23.0 10.4 -23.0 10.0 -22.95 9.75 -23.25 9.15 Q-23.5 8.9 -24.2 8.8 L-28.35 7.85 -30.15 6.8 Q-30.85 6.1 -30.9 5.05 L-30.8 4.3 -30.8 3.4 -30.2 -1.3 Q-30.0 -4.1 -29.3 -5.55 -28.55 -7.05 -26.85 -7.8 -25.15 -8.6 -22.0 -9.15 M38.55 -25.35 Q38.4 -14.55 37.4 -3.0 L34.7 -2.2 34.45 -24.6 38.55 -25.35 M33.9 0.3 L38.1 -1.1 38.0 4.05 33.8 5.6 33.9 0.3 M29.65 -17.9 Q30.05 -17.55 30.2 -16.5 L30.2 -15.7 30.2 -14.4 30.2 -11.2 26.9 -10.35 26.95 -14.2 26.95 -14.55 26.95 -14.7 26.8 -15.0 26.4 -15.1 Q26.05 -15.1 26.0 -14.75 L25.85 -14.0 25.4 1.4 25.35 1.75 25.4 1.8 Q25.35 2.0 25.55 2.2 L26.0 2.2 26.4 1.75 26.55 1.0 26.75 -4.1 26.05 -3.95 26.15 -7.0 30.1 -8.0 29.85 3.8 28.5 4.25 27.9 3.1 26.6 4.8 24.85 5.8 Q23.45 6.2 22.7 5.8 21.9 5.4 21.8 4.2 L21.7 3.5 21.75 2.6 22.3 -12.7 Q22.35 -14.7 22.7 -15.75 23.0 -16.8 23.9 -17.3 24.75 -17.8 26.55 -18.1 L28.5 -18.3 Q29.2 -18.35 29.65 -17.9 M1.35 -13.3 L5.9 -14.15 4.2 12.9 -0.6 14.6 1.35 -13.3 M13.8 -15.55 L15.3 -3.75 15.65 -3.8 16.15 -16.05 19.4 -16.65 18.45 7.8 14.9 9.1 13.2 -3.4 13.0 -3.35 12.4 10.0 8.6 11.3 10.1 -14.95 13.8 -15.55" fill="#000000" fill-rule="evenodd" stroke="none"/>
    <path d="M13.8 -15.55 L10.1 -14.95 8.6 11.3 12.4 10.0 13.0 -3.35 13.2 -3.4 14.9 9.1 18.45 7.8 19.4 -16.65 16.15 -16.05 15.65 -3.8 15.3 -3.75 13.8 -15.55 M1.35 -13.3 L-0.6 14.6 4.2 12.9 5.9 -14.15 1.35 -13.3 M29.65 -17.9 Q29.2 -18.35 28.5 -18.3 L26.55 -18.1 Q24.75 -17.8 23.9 -17.3 23.0 -16.8 22.7 -15.75 22.35 -14.7 22.3 -12.7 L21.75 2.6 21.7 3.5 21.8 4.2 Q21.9 5.4 22.7 5.8 23.45 6.2 24.85 5.8 L26.6 4.8 27.9 3.1 28.5 4.25 29.85 3.8 30.1 -8.0 26.15 -7.0 26.05 -3.95 26.75 -4.1 26.55 1.0 26.4 1.75 26.0 2.2 25.55 2.2 Q25.35 2.0 25.4 1.8 L25.35 1.75 25.4 1.4 25.85 -14.0 26.0 -14.75 Q26.05 -15.1 26.4 -15.1 L26.8 -15.0 26.95 -14.7 26.95 -14.55 26.95 -14.2 26.9 -10.35 30.2 -11.2 30.2 -14.4 30.2 -15.7 30.2 -16.5 Q30.05 -17.55 29.65 -17.9 M33.9 0.3 L33.8 5.6 38.0 4.05 38.1 -1.1 33.9 0.3 M38.55 -25.35 L34.45 -24.6 34.7 -2.2 37.4 -3.0 Q38.4 -14.55 38.55 -25.35 M-22.0 -9.15 Q-25.15 -8.6 -26.85 -7.8 -28.55 -7.05 -29.3 -5.55 -30.0 -4.1 -30.2 -1.3 L-30.8 3.4 -30.8 4.3 -30.9 5.05 Q-30.85 6.1 -30.15 6.8 L-28.35 7.85 -24.2 8.8 Q-23.5 8.9 -23.25 9.15 L-22.95 9.75 -23.0 10.0 -23.0 10.4 -23.7 17.3 -24.05 18.55 -24.85 19.05 -25.65 19.15 Q-26.0 19.0 -25.9 18.65 L-25.95 18.4 -25.85 18.0 -25.05 9.95 -31.8 11.85 -32.55 19.4 -32.8 21.5 -32.85 22.15 -32.8 22.8 Q-32.8 24.1 -31.95 24.6 L-30.4 24.95 -29.5 24.8 -25.45 23.6 Q-22.2 22.45 -20.55 21.4 -18.95 20.35 -18.25 18.8 -17.7 17.25 -17.5 14.6 L-16.85 8.0 -16.75 7.25 -16.8 6.65 Q-16.95 5.6 -17.45 5.0 -18.15 4.35 -19.2 4.0 L-22.8 3.05 Q-23.6 2.95 -23.8 2.65 L-24.1 2.15 -24.05 1.8 -24.1 1.45 -23.55 -3.45 Q-23.65 -4.2 -23.3 -4.55 -23.05 -4.9 -22.5 -5.0 -22.0 -5.2 -21.75 -5.0 L-21.5 -4.4 -21.5 -4.3 -21.55 -3.95 -22.1 1.6 -16.1 0.05 -15.7 -4.4 -15.55 -6.15 -15.55 -7.3 Q-15.65 -8.6 -16.3 -9.05 -17.05 -9.7 -18.4 -9.6 L-22.0 -9.15 M-2.3 -9.0 L-2.0 -12.65 -12.4 -10.7 -12.8 -6.8 -10.05 -7.4 -12.3 18.7 -8.8 29.15 -4.8 -8.45 -2.3 -9.0 Z" fill="none" stroke="#000000" stroke-linecap="round" stroke-linejoin="miter-clip" stroke-miterlimit="3.0" stroke-width="4.0"/>
    <path d="M-1.2 -13.85 L-1.5 -10.2 -4.0 -9.65 -8.0 27.95 -11.5 17.5 -9.25 -8.6 -12.0 -8.0 -11.6 -11.9 -1.2 -13.85 M-21.2 -10.35 L-17.6 -10.8 Q-16.25 -10.9 -15.5 -10.25 -14.85 -9.8 -14.75 -8.5 L-14.75 -7.35 -14.9 -5.6 -15.3 -1.15 -21.3 0.4 -20.75 -5.15 -20.7 -5.5 -20.7 -5.6 -20.95 -6.2 Q-21.2 -6.4 -21.7 -6.2 L-22.5 -5.75 Q-22.85 -5.4 -22.75 -4.65 L-23.3 0.25 -23.25 0.6 -23.3 0.95 -23.0 1.45 Q-22.8 1.75 -22.0 1.85 L-18.4 2.8 Q-17.35 3.15 -16.65 3.8 -16.15 4.4 -16.0 5.45 L-15.95 6.05 -16.05 6.8 -16.7 13.4 Q-16.9 16.05 -17.45 17.6 -18.15 19.15 -19.75 20.2 -21.4 21.25 -24.65 22.4 L-28.7 23.6 -29.6 23.75 -31.15 23.4 Q-32.0 22.9 -32.0 21.6 L-32.05 20.95 -32.0 20.3 -31.75 18.2 -31.0 10.65 -24.25 8.75 -25.05 16.8 -25.15 17.2 -25.1 17.45 Q-25.2 17.8 -24.85 17.95 L-24.05 17.85 Q-23.6 17.7 -23.25 17.35 L-22.9 16.1 -22.2 9.2 -22.2 8.8 -22.15 8.55 -22.45 7.95 Q-22.7 7.7 -23.4 7.6 L-27.55 6.65 Q-28.7 6.3 -29.35 5.6 -30.05 4.9 -30.1 3.85 L-30.0 3.1 -30.0 2.2 -29.4 -2.5 Q-29.2 -5.3 -28.5 -6.75 -27.75 -8.25 -26.05 -9.0 -24.35 -9.8 -21.2 -10.35 M34.7 -0.9 L38.9 -2.3 38.8 2.85 34.6 4.4 34.7 -0.9 M39.35 -26.55 Q39.2 -15.75 38.2 -4.2 L35.5 -3.4 35.25 -25.8 39.35 -26.55 M30.45 -19.1 L31.0 -17.7 31.0 -16.9 31.0 -15.6 31.0 -12.4 27.7 -11.55 27.75 -15.4 27.75 -15.75 27.75 -15.9 27.6 -16.2 27.2 -16.3 Q26.85 -16.3 26.8 -15.95 26.6 -15.65 26.65 -15.2 L26.2 0.2 26.15 0.55 26.2 0.6 26.35 1.0 26.8 1.0 27.2 0.55 27.35 -0.2 27.55 -5.3 26.85 -5.15 26.95 -8.2 30.9 -9.2 30.65 2.6 29.3 3.05 28.7 1.9 27.4 3.6 25.65 4.6 Q24.25 5.0 23.5 4.6 22.7 4.2 22.6 3.0 L22.5 2.3 22.55 1.4 23.1 -13.9 Q23.15 -15.9 23.5 -16.95 23.8 -18.0 24.7 -18.5 25.55 -19.0 27.35 -19.3 L29.3 -19.5 Q30.0 -19.55 30.45 -19.1 M2.15 -14.5 L6.7 -15.35 5.0 11.7 0.2 13.4 2.15 -14.5 M16.1 -4.95 L16.45 -5.0 16.95 -17.25 20.2 -17.85 19.25 6.6 15.7 7.9 14.0 -4.6 13.8 -4.55 13.2 8.8 9.4 10.1 10.9 -16.15 14.6 -16.75 16.1 -4.95" fill="#ffffff" fill-rule="evenodd" stroke="none"/>
  </g>
</svg>
