<?xml version="1.0" encoding="UTF-8" standalone="no"?>
<svg xmlns:ffdec="https://www.free-decompiler.com/flash" xmlns:xlink="http://www.w3.org/1999/xlink" ffdec:objectType="shape" height="49.95px" width="195.1px" xmlns="http://www.w3.org/2000/svg">
  <g transform="matrix(1.0, 0.0, 0.0, 1.0, 95.0, 36.8)">
    <path d="M-70.75 -5.85 L-70.75 -6.4 -70.55 -8.1 -70.0 -9.5 -69.55 -10.25 -69.05 -10.85 -69.0 -10.9 -68.9 -10.95 -68.2 -11.9 -67.8 -13.1 -67.5 -13.35 -67.25 -13.7 -66.75 -14.25 -66.05 -14.55 -64.2 -16.45 Q-63.2 -17.3 -62.0 -17.5 L-61.05 -17.55 -60.1 -17.65 -59.75 -17.75 -59.45 -17.8 -58.2 -18.0 -56.9 -18.1 -56.4 -18.0 -55.95 -18.0 -55.45 -18.0 -54.95 -18.1 -54.45 -18.1 -53.95 -18.15 -53.7 -18.15 -53.45 -18.1 -53.25 -18.05 -53.0 -18.0 -52.45 -18.4 -51.7 -18.55 -51.55 -18.55 -51.35 -18.55 -51.25 -18.55 -51.15 -18.55 -51.0 -18.55 -50.85 -18.55 -50.75 -18.55 -50.7 -18.45 -50.4 -18.25 -50.2 -17.9 -50.1 -17.8 -50.05 -17.65 -50.1 -17.1 -50.1 -16.65 -50.05 -15.7 -50.0 -14.8 -50.0 -14.65 -49.95 -14.55 -49.9 -13.75 -49.9 -12.95 -49.9 -12.65 -49.9 -12.4 -49.9 -12.1 -49.95 -11.75 -49.95 -11.45 -49.9 -11.2 -49.9 -11.05 -49.85 -10.9 -49.8 -10.5 -49.8 -10.0 -49.8 -9.5 -50.0 -9.15 -50.4 -8.9 Q-50.6 -8.75 -50.75 -8.75 L-51.2 -8.9 -51.6 -9.0 -52.0 -9.2 -52.45 -9.25 -52.8 -9.2 -53.15 -8.95 -53.4 -9.0 -53.6 -9.0 -54.0 -9.0 -54.45 -8.9 -54.85 -8.75 -55.2 -8.75 -55.6 -8.8 -56.0 -9.05 -56.85 -8.5 -57.7 -7.85 -57.95 -7.7 -58.2 -7.55 -59.0 -6.9 Q-59.45 -6.6 -59.85 -6.35 L-60.2 -5.2 -60.35 -3.9 -60.35 -3.7 -60.35 -3.55 -60.1 -1.95 -59.6 -0.5 -58.85 -0.3 -58.25 0.2 -57.9 0.45 -57.6 0.7 -57.25 0.65 -56.9 0.65 -56.25 0.7 -55.6 0.75 -55.0 0.9 -54.4 0.95 -53.7 0.85 -53.05 0.5 -52.85 0.6 -52.7 0.65 -52.6 0.65 -52.5 0.65 -52.1 0.65 -51.65 0.45 -51.2 0.4 -50.75 0.4 Q-50.35 0.4 -50.05 0.65 -49.75 0.9 -49.65 1.55 L-49.55 1.7 -49.55 1.9 -49.5 2.0 -49.5 2.2 -49.55 2.55 -49.65 3.0 -49.8 3.4 -49.85 3.8 -49.8 4.15 -49.6 4.5 -49.4 4.95 -49.4 5.5 -49.45 6.0 -49.55 6.55 -49.65 7.1 -49.7 7.65 -49.65 8.1 -49.5 8.5 -49.55 8.8 -49.55 9.2 -49.75 10.1 Q-49.85 10.55 -50.3 10.75 L-50.45 10.75 -50.6 10.75 Q-50.7 10.65 -50.75 10.65 L-50.9 10.65 -51.45 10.75 -51.95 10.85 -52.5 10.9 -53.0 10.95 -53.3 10.95 -53.6 10.85 -53.9 10.75 -54.2 10.5 -55.25 10.85 -56.4 10.95 -57.65 10.85 -58.8 10.5 -59.4 10.75 -60.1 10.85 -60.25 10.85 -60.4 10.85 -60.9 10.8 -61.4 10.55 -61.6 10.6 -61.75 10.6 -62.95 10.3 -63.95 9.5 -64.75 8.9 Q-65.15 8.6 -65.7 8.45 L-66.55 7.85 -67.1 6.8 -67.15 6.8 -67.2 6.75 -67.7 5.8 -68.45 5.15 Q-69.35 3.85 -69.85 2.35 -70.35 0.9 -70.4 -0.75 L-70.85 -1.65 -71.0 -2.75 -70.95 -3.45 -70.85 -4.15 -70.8 -4.7 -70.8 -5.3 -70.75 -5.85" fill="#ffffff" fill-rule="evenodd" stroke="none"/>
    <path d="M-70.75 -5.85 L-70.75 -6.4 -70.55 -8.1 -70.0 -9.5 -69.55 -10.25 -69.05 -10.85 -69.0 -10.9 -68.9 -10.95 -68.2 -11.9 -67.8 -13.1 -67.5 -13.35 -67.25 -13.7 -66.75 -14.25 -66.05 -14.55 -64.2 -16.45 Q-63.2 -17.3 -62.0 -17.5 L-61.05 -17.55 -60.1 -17.65 -59.75 -17.75 -59.45 -17.8 -58.2 -18.0 -56.9 -18.1 -56.4 -18.0 -55.95 -18.0 -55.45 -18.0 -54.95 -18.1 -54.45 -18.1 -53.95 -18.15 -53.7 -18.15 -53.45 -18.1 -53.25 -18.05 -53.0 -18.0 -52.45 -18.4 -51.7 -18.55 -51.55 -18.55 -51.35 -18.55 -51.25 -18.55 -51.15 -18.55 -51.0 -18.55 -50.85 -18.55 -50.75 -18.55 -50.7 -18.45 -50.4 -18.25 -50.2 -17.9 -50.1 -17.8 -50.05 -17.65 -50.1 -17.1 -50.1 -16.65 -50.05 -15.7 -50.0 -14.8 -50.0 -14.65 -49.95 -14.55 -49.9 -13.75 -49.9 -12.95 -49.9 -12.65 -49.9 -12.4 -49.9 -12.1 -49.95 -11.75 -49.95 -11.45 -49.9 -11.2 -49.9 -11.05 -49.85 -10.9 -49.8 -10.5 -49.8 -10.0 -49.8 -9.5 -50.0 -9.15 -50.4 -8.9 Q-50.6 -8.75 -50.75 -8.75 L-51.2 -8.9 -51.6 -9.0 -52.0 -9.2 -52.45 -9.25 -52.8 -9.2 -53.15 -8.95 -53.4 -9.0 -53.6 -9.0 -54.0 -9.0 -54.45 -8.9 -54.85 -8.75 -55.2 -8.75 -55.6 -8.8 -56.0 -9.05 -56.85 -8.5 -57.7 -7.85 -57.95 -7.7 -58.2 -7.55 -59.0 -6.9 Q-59.45 -6.6 -59.85 -6.35 L-60.2 -5.2 -60.35 -3.9 -60.35 -3.7 -60.35 -3.55 -60.1 -1.95 -59.6 -0.5 -58.85 -0.3 -58.25 0.2 -57.9 0.45 -57.6 0.7 -57.25 0.65 -56.9 0.65 -56.25 0.7 -55.6 0.75 -55.0 0.9 -54.4 0.95 -53.7 0.85 -53.05 0.5 -52.85 0.6 -52.7 0.65 -52.6 0.65 -52.5 0.65 -52.1 0.65 -51.65 0.45 -51.2 0.4 -50.75 0.4 Q-50.35 0.4 -50.05 0.65 -49.75 0.9 -49.65 1.55 L-49.55 1.7 -49.55 1.9 -49.5 2.0 -49.5 2.2 -49.55 2.55 -49.65 3.0 -49.8 3.4 -49.85 3.8 -49.8 4.15 -49.6 4.5 -49.4 4.95 -49.4 5.5 -49.45 6.0 -49.55 6.55 -49.65 7.1 -49.7 7.65 -49.65 8.1 -49.5 8.5 -49.55 8.8 -49.55 9.2 -49.75 10.1 Q-49.85 10.55 -50.3 10.75 L-50.45 10.75 -50.6 10.75 Q-50.7 10.65 -50.75 10.65 L-50.9 10.65 -51.45 10.75 -51.95 10.85 -52.5 10.9 -53.0 10.95 -53.3 10.95 -53.6 10.85 -53.9 10.75 -54.2 10.5 -55.25 10.85 -56.4 10.95 -57.65 10.85 -58.8 10.5 -59.4 10.75 -60.1 10.85 -60.25 10.85 -60.4 10.85 -60.9 10.8 -61.4 10.55 -61.6 10.6 -61.75 10.6 -62.95 10.3 -63.95 9.5 -64.75 8.9 Q-65.15 8.6 -65.7 8.45 L-66.55 7.85 -67.1 6.8 -67.15 6.8 -67.2 6.75 -67.7 5.8 -68.45 5.15 Q-69.35 3.85 -69.85 2.35 -70.35 0.9 -70.4 -0.75 L-70.85 -1.65 -71.0 -2.75 -70.95 -3.45 -70.85 -4.15 -70.8 -4.7 -70.8 -5.3 -70.75 -5.85 Z" fill="none" stroke="#000000" stroke-linecap="round" stroke-linejoin="miter-clip" stroke-miterlimit="3.0" stroke-width="4.0"/>
    <path d="M-45.95 -12.85 L-45.75 -12.8 -45.5 -12.75 -45.35 -12.6 -45.15 -12.55 -44.9 -12.65 Q-44.75 -12.7 -44.7 -12.8 L-44.6 -12.85 -44.55 -12.9 -44.4 -13.0 -44.25 -13.05 -43.45 -13.1 -42.6 -13.1 -41.25 -13.0 Q-40.65 -12.85 -40.15 -12.5 L-39.6 -12.9 -38.95 -13.15 -38.8 -13.2 -38.65 -13.25 -38.65 -13.15 -38.7 -13.1 -38.75 -13.0 -38.75 -12.9 -38.4 -12.95 -38.0 -13.05 -37.5 -13.2 -37.0 -13.25 -36.7 -13.25 -36.45 -13.15 -36.2 -12.9 -35.95 -12.8 -35.65 -12.9 -35.3 -13.05 -34.95 -13.15 -34.65 -13.2 -34.35 -13.2 -34.05 -13.2 -33.85 -13.15 -33.6 -13.15 -32.05 -12.85 Q-31.25 -12.6 -30.95 -11.8 L-30.85 -11.8 -30.8 -11.8 -30.55 -11.85 -30.35 -11.95 -30.25 -12.05 -30.1 -12.1 Q-29.45 -12.05 -29.05 -11.65 L-28.35 -10.8 -28.3 -10.75 -28.3 -10.7 -27.75 -10.0 -27.0 -9.55 -26.8 -9.1 -26.45 -8.6 -26.05 -8.0 -25.85 -7.35 -25.95 -7.0 -26.25 -6.6 -26.25 -6.5 -26.1 -6.2 -25.85 -6.1 -25.8 -6.1 -25.6 -6.0 -25.45 -5.85 -25.25 -5.15 -25.2 -4.45 -25.4 -3.1 -25.8 -1.8 -25.9 -1.8 -26.0 -1.75 -26.2 -1.55 -26.35 -1.25 -26.35 -1.15 -26.3 -1.05 -26.1 -0.75 -26.1 -0.5 -26.2 -0.05 -26.5 0.35 -26.55 0.45 -26.6 0.5 -26.9 0.85 -27.1 1.25 -27.9 1.75 -28.75 2.1 -28.9 2.15 -29.0 2.2 -29.35 2.3 -29.7 2.45 -29.8 2.5 -29.8 2.6 -29.8 2.7 -29.8 2.8 -29.8 2.85 -29.25 3.35 -28.6 3.5 -28.0 3.6 -27.5 3.95 -26.8 3.45 -25.95 3.25 -25.65 3.3 -25.35 3.35 -25.15 3.8 -25.1 4.3 -25.1 4.5 -25.15 4.65 -25.15 5.0 -25.2 5.35 -25.4 5.65 -25.4 5.95 -25.4 6.35 -25.25 6.7 -25.15 7.1 -25.15 7.45 -25.2 7.8 -25.4 8.2 -25.5 8.3 -25.65 8.35 -25.85 8.45 -25.9 8.65 -25.9 8.7 -25.85 8.8 -25.4 9.3 Q-25.25 9.6 -25.25 9.95 L-25.25 10.25 -25.35 10.45 Q-25.65 10.8 -26.1 10.9 L-27.1 11.05 -27.35 11.05 -27.55 11.0 -28.4 10.9 -29.15 10.75 -29.45 10.55 -29.75 10.5 -29.95 10.55 -30.1 10.65 -30.55 10.85 -31.1 10.85 -31.4 10.85 -31.7 10.8 -32.4 10.55 -33.05 10.25 Q-33.15 10.15 -33.3 10.1 L-33.55 9.95 -33.65 9.8 -33.8 9.65 -34.4 9.05 Q-34.75 8.75 -35.25 8.7 L-35.45 8.5 -35.65 8.25 -35.7 8.25 -35.75 8.2 -36.5 7.45 Q-36.9 7.15 -37.4 6.95 L-37.75 7.35 -37.85 7.85 -37.95 8.15 -38.05 8.5 -37.85 8.95 -37.75 9.55 -37.75 9.65 -37.8 9.8 -37.8 9.95 -37.85 10.1 -38.1 10.5 -38.55 10.8 -38.6 10.8 -38.75 10.85 -38.8 10.85 -38.95 10.85 -39.0 10.85 -39.85 10.75 Q-40.25 10.7 -40.55 10.35 L-41.3 10.55 -42.1 10.65 -42.9 10.55 -43.6 10.15 -43.75 10.15 -44.0 10.25 -44.2 10.5 -44.4 10.7 -44.65 10.8 -44.75 10.8 -44.85 10.8 -44.95 10.8 -45.05 10.8 -45.25 10.8 -45.4 10.8 -46.55 10.55 Q-47.1 10.4 -47.3 9.75 L-47.4 9.25 -47.45 8.85 -47.35 8.0 -47.2 7.2 -47.05 6.35 -46.95 5.45 -46.95 5.1 -47.05 4.7 -47.15 4.35 -47.35 3.95 -47.4 3.75 -47.4 3.55 -47.3 3.1 -47.1 2.7 -47.05 2.5 -46.9 2.3 -46.85 2.1 -46.85 1.9 -46.85 1.75 -46.85 1.65 -47.05 1.4 -47.25 1.2 -47.3 0.65 -47.3 0.15 -47.3 -0.35 -47.3 -0.85 -47.2 -2.35 -46.7 -3.7 -46.7 -4.05 -46.85 -4.25 -46.9 -4.3 -46.95 -4.35 -47.1 -4.5 -47.2 -4.7 -47.2 -4.8 -47.15 -5.0 -47.15 -5.1 -47.15 -5.25 -47.15 -5.55 -47.2 -5.8 -47.2 -5.95 -47.2 -6.05 -47.2 -6.55 -47.25 -6.9 -47.1 -7.9 -46.65 -8.6 -46.65 -8.75 -46.75 -9.1 -47.05 -9.35 -47.15 -9.45 -47.25 -9.5 -47.3 -9.75 -47.3 -10.0 -47.35 -10.5 -47.35 -11.0 -47.35 -11.3 -47.3 -11.55 -47.25 -11.85 -47.15 -12.1 -47.1 -12.15 -47.1 -12.2 -46.55 -12.65 -45.95 -12.85 M-36.4 -7.1 L-36.55 -7.1 -37.2 -6.9 -37.8 -6.45 -38.0 -6.3 -38.05 -6.1 -38.05 -6.0 -38.0 -5.9 -37.95 -5.8 -37.95 -5.7 -37.85 -5.6 -37.8 -5.45 -37.8 -4.95 -37.8 -4.4 -37.85 -3.45 -38.15 -2.5 -38.05 -2.35 -38.0 -2.1 -37.7 -1.25 -37.6 -0.4 -37.6 -0.25 -37.65 -0.1 -37.65 0.1 -37.7 0.25 -37.7 0.3 -37.7 0.45 -37.5 0.8 -37.05 1.1 -36.95 1.1 Q-36.8 1.15 -36.65 1.3 L-36.4 1.45 -36.2 1.25 -36.0 1.0 -35.8 0.85 -35.65 0.75 -35.0 0.05 Q-34.7 -0.3 -34.7 -0.85 L-34.7 -0.9 -34.75 -1.0 -34.75 -1.05 -34.6 -1.5 -34.5 -1.9 -34.5 -1.95 -34.4 -2.4 -34.25 -2.9 -34.45 -3.6 -34.55 -4.45 -34.75 -5.75 Q-34.9 -6.4 -35.5 -6.8 L-35.5 -6.85 -35.5 -6.9 -35.55 -6.95 -35.55 -7.05 -35.9 -7.05 -36.25 -7.1 -36.4 -7.1" fill="#ffffff" fill-rule="evenodd" stroke="none"/>
    <path d="M-45.95 -12.85 L-45.75 -12.8 -45.5 -12.75 -45.35 -12.6 -45.15 -12.55 -44.9 -12.65 Q-44.75 -12.7 -44.7 -12.8 L-44.6 -12.85 -44.55 -12.9 -44.4 -13.0 -44.25 -13.05 -43.45 -13.1 -42.6 -13.1 -41.25 -13.0 Q-40.65 -12.85 -40.15 -12.5 L-39.6 -12.9 -38.95 -13.15 -38.8 -13.2 -38.65 -13.25 -38.65 -13.15 -38.7 -13.1 -38.75 -13.0 -38.75 -12.9 -38.4 -12.95 -38.0 -13.05 -37.5 -13.2 -37.0 -13.25 -36.7 -13.25 -36.45 -13.15 -36.2 -12.9 -35.95 -12.8 -35.65 -12.9 -35.3 -13.05 -34.95 -13.15 -34.65 -13.2 -34.35 -13.2 -34.05 -13.2 -33.85 -13.15 -33.6 -13.15 -32.05 -12.85 Q-31.25 -12.6 -30.95 -11.8 L-30.85 -11.8 -30.8 -11.8 -30.55 -11.85 -30.35 -11.95 -30.25 -12.05 -30.1 -12.1 Q-29.45 -12.05 -29.05 -11.65 L-28.35 -10.8 -28.3 -10.75 -28.3 -10.7 -27.75 -10.0 -27.0 -9.55 -26.8 -9.1 -26.45 -8.6 -26.05 -8.0 -25.85 -7.35 -25.95 -7.0 -26.25 -6.6 -26.25 -6.5 -26.1 -6.2 -25.85 -6.1 -25.8 -6.1 -25.6 -6.0 -25.45 -5.85 -25.25 -5.15 -25.2 -4.45 -25.4 -3.1 -25.8 -1.8 -25.9 -1.8 -26.0 -1.75 -26.2 -1.55 -26.35 -1.25 -26.35 -1.15 -26.3 -1.05 -26.1 -0.75 -26.1 -0.5 -26.2 -0.05 -26.5 0.35 -26.55 0.45 -26.6 0.5 -26.9 0.85 -27.1 1.25 -27.9 1.75 -28.75 2.1 -28.9 2.15 -29.0 2.2 -29.35 2.3 -29.7 2.45 -29.8 2.5 -29.8 2.6 -29.8 2.7 -29.8 2.8 -29.8 2.85 -29.25 3.35 -28.6 3.5 -28.0 3.6 -27.5 3.95 -26.8 3.45 -25.95 3.25 -25.65 3.3 -25.35 3.35 -25.15 3.8 -25.1 4.3 -25.1 4.5 -25.15 4.65 -25.15 5.0 -25.2 5.35 -25.4 5.65 -25.4 5.95 -25.4 6.35 -25.25 6.7 -25.15 7.1 -25.15 7.45 -25.2 7.8 -25.4 8.2 -25.5 8.3 -25.65 8.35 -25.85 8.45 -25.9 8.65 -25.9 8.7 -25.85 8.8 -25.4 9.3 Q-25.25 9.6 -25.25 9.95 L-25.25 10.25 -25.35 10.45 Q-25.65 10.8 -26.1 10.9 L-27.1 11.05 -27.35 11.05 -27.55 11.0 -28.4 10.9 -29.15 10.75 -29.45 10.55 -29.75 10.5 -29.95 10.55 -30.1 10.65 -30.55 10.85 -31.1 10.85 -31.4 10.85 -31.7 10.8 -32.4 10.55 -33.05 10.25 Q-33.15 10.15 -33.3 10.1 L-33.55 9.95 -33.65 9.8 -33.8 9.65 -34.4 9.05 Q-34.75 8.75 -35.25 8.7 L-35.45 8.5 -35.65 8.25 -35.7 8.25 -35.75 8.2 -36.5 7.45 Q-36.9 7.15 -37.4 6.95 L-37.75 7.35 -37.85 7.85 -37.95 8.15 -38.05 8.5 -37.85 8.95 -37.75 9.55 -37.75 9.65 -37.8 9.8 -37.8 9.95 -37.85 10.1 -38.1 10.5 -38.55 10.8 -38.6 10.8 -38.75 10.85 -38.8 10.85 -38.95 10.85 -39.0 10.85 -39.85 10.75 Q-40.25 10.7 -40.55 10.35 L-41.3 10.55 -42.1 10.65 -42.9 10.55 -43.6 10.15 -43.75 10.15 -44.0 10.25 -44.2 10.5 -44.4 10.7 -44.65 10.8 -44.75 10.8 -44.85 10.8 -44.95 10.8 -45.05 10.8 -45.25 10.8 -45.4 10.8 -46.55 10.55 Q-47.1 10.4 -47.3 9.75 L-47.4 9.25 -47.45 8.85 -47.35 8.0 -47.2 7.2 -47.05 6.35 -46.95 5.45 -46.95 5.1 -47.05 4.7 -47.15 4.35 -47.35 3.95 -47.4 3.75 -47.4 3.55 -47.3 3.1 -47.1 2.7 -47.05 2.5 -46.9 2.3 -46.85 2.1 -46.85 1.9 -46.85 1.75 -46.85 1.65 -47.05 1.4 -47.25 1.2 -47.3 0.65 -47.3 0.15 -47.3 -0.35 -47.3 -0.85 -47.2 -2.35 -46.7 -3.7 -46.7 -4.05 -46.85 -4.25 -46.9 -4.3 -46.95 -4.35 -47.1 -4.5 -47.2 -4.7 -47.2 -4.8 -47.15 -5.0 -47.15 -5.1 -47.15 -5.25 -47.15 -5.55 -47.2 -5.8 -47.2 -5.95 -47.2 -6.05 -47.2 -6.55 -47.25 -6.9 -47.1 -7.9 -46.65 -8.6 -46.65 -8.75 -46.75 -9.1 -47.05 -9.35 -47.15 -9.45 -47.25 -9.5 -47.3 -9.75 -47.3 -10.0 -47.35 -10.5 -47.35 -11.0 -47.35 -11.3 -47.3 -11.55 -47.25 -11.85 -47.15 -12.1 -47.1 -12.15 -47.1 -12.2 -46.55 -12.65 -45.95 -12.85 M-36.4 -7.1 L-36.55 -7.1 -37.2 -6.9 -37.8 -6.45 -38.0 -6.3 -38.05 -6.1 -38.05 -6.0 -38.0 -5.9 -37.95 -5.8 -37.95 -5.7 -37.85 -5.6 -37.8 -5.45 -37.8 -4.95 -37.8 -4.4 -37.85 -3.45 -38.15 -2.5 -38.05 -2.35 -38.0 -2.1 -37.7 -1.25 -37.6 -0.4 -37.6 -0.25 -37.65 -0.1 -37.65 0.1 -37.7 0.25 -37.7 0.3 -37.7 0.45 -37.5 0.8 -37.05 1.1 -36.95 1.1 Q-36.8 1.15 -36.65 1.3 L-36.4 1.45 -36.2 1.25 -36.0 1.0 -35.8 0.85 -35.65 0.75 -35.0 0.05 Q-34.7 -0.3 -34.7 -0.85 L-34.7 -0.9 -34.75 -1.0 -34.75 -1.05 -34.6 -1.5 -34.5 -1.9 -34.5 -1.95 -34.4 -2.4 -34.25 -2.9 -34.45 -3.6 -34.55 -4.45 -34.75 -5.75 Q-34.9 -6.4 -35.5 -6.8 L-35.5 -6.85 -35.5 -6.9 -35.55 -6.95 -35.55 -7.05 -35.9 -7.05 -36.25 -7.1 -36.4 -7.1 Z" fill="none" stroke="#000000" stroke-linecap="round" stroke-linejoin="miter-clip" stroke-miterlimit="3.0" stroke-width="4.0"/>
    <path d="M-22.25 -9.55 L-21.95 -9.65 -21.85 -9.65 -21.6 -9.4 -21.35 -9.3 -21.25 -9.35 -21.1 -9.35 -20.95 -9.35 -20.8 -9.4 -20.6 -9.35 -20.45 -9.25 -19.7 -9.65 -18.8 -9.75 -18.6 -9.75 -18.45 -9.75 -17.4 -9.55 -16.5 -9.25 -15.8 -9.5 -15.05 -9.55 -14.85 -9.55 -14.6 -9.55 -14.4 -9.5 -14.2 -9.45 -14.0 -8.7 -13.9 -7.85 Q-13.9 -7.3 -14.05 -6.85 L-14.45 -5.95 -13.9 -5.3 -13.75 -4.45 -13.75 -4.05 -13.8 -3.7 -13.85 -3.5 -13.85 -3.3 -13.95 -2.8 -14.0 -2.25 -14.0 -2.05 -13.95 -1.9 -13.9 -1.65 -13.85 -1.55 -13.85 -1.35 -13.85 -1.2 -13.85 -0.8 -13.85 -0.4 -13.95 0.4 -14.45 1.15 -14.1 1.9 -13.9 2.7 -13.9 2.75 -13.85 2.8 -13.35 4.3 Q-13.0 5.0 -11.75 5.0 L-11.65 5.0 -11.0 4.45 -10.9 3.75 -10.9 3.2 -10.7 2.7 -10.85 1.3 -10.95 -0.05 -10.95 -0.5 -10.95 -0.85 -10.9 -2.2 -10.65 -3.6 -10.9 -4.05 -10.95 -4.55 -10.9 -5.0 -10.85 -5.45 -10.75 -5.95 -10.7 -6.35 -10.75 -6.85 -11.0 -7.25 -10.9 -7.7 -10.9 -8.2 -10.75 -8.95 -10.2 -9.55 -10.05 -9.6 -9.85 -9.65 -9.7 -9.7 -9.5 -9.75 -9.05 -9.65 -8.6 -9.55 -8.15 -9.35 -7.75 -9.25 Q-7.5 -9.25 -7.3 -9.4 L-6.95 -9.8 -6.4 -9.75 -5.9 -9.7 -5.8 -9.7 -4.8 -9.6 -3.85 -9.4 -3.6 -9.6 -3.25 -9.75 -3.15 -9.8 -3.0 -9.8 -2.95 -9.85 -2.9 -9.85 -2.8 -9.85 -2.75 -9.85 -2.65 -9.85 -1.9 -9.7 -1.5 -9.2 -1.45 -8.7 -1.45 -8.15 -1.45 -8.0 -1.45 -7.9 -1.55 -6.9 -1.85 -5.95 -1.5 -4.65 -1.45 -3.25 -1.45 -3.0 -1.45 -2.8 -1.45 -2.55 -1.4 -2.3 -1.4 -2.0 -1.4 -1.75 -1.6 -1.45 -1.7 -1.1 -1.65 -1.0 -1.6 -0.85 -1.55 -0.7 -1.4 -0.55 -1.4 -0.4 -1.4 -0.35 -1.4 -0.2 -1.4 0.2 -1.35 0.65 -1.35 1.05 -1.3 1.5 -1.45 2.4 -2.15 3.25 -2.15 3.3 -2.05 3.5 -1.85 3.65 -1.7 3.7 -1.65 3.7 -1.55 4.55 -1.45 5.4 -1.4 5.65 -1.4 5.95 -1.45 6.45 -1.5 6.95 -1.2 7.5 -0.85 7.95 -0.3 8.9 -0.05 9.95 -0.05 10.15 -0.1 10.45 -1.25 10.8 -2.55 10.9 -2.9 10.9 -3.25 10.9 -3.4 10.9 -3.6 10.9 -4.1 10.85 -4.6 10.85 -5.35 10.9 -6.05 11.0 -6.4 10.9 -6.7 10.85 -6.9 10.8 -7.05 10.8 -7.2 10.8 -7.3 10.8 -7.4 10.8 -7.5 10.8 -7.65 10.85 -7.85 10.85 -8.6 10.75 -9.2 10.2 -9.4 10.15 -9.65 10.1 -9.8 10.05 -9.9 10.05 -10.1 10.05 -10.25 10.1 -10.6 10.15 -10.9 10.2 -11.1 10.2 -11.3 10.25 Q-11.85 10.7 -12.55 10.8 L-13.95 11.0 -14.35 11.0 -14.7 10.95 -15.85 10.8 -16.9 10.65 -17.25 10.55 -17.6 10.5 -18.2 10.05 -18.95 9.8 -19.05 9.8 -19.85 9.5 -20.45 8.85 -20.85 8.4 -21.1 7.85 -21.5 7.05 -22.15 6.5 -22.25 6.05 -22.35 5.65 -22.6 4.85 -22.7 3.95 -22.65 3.45 -22.5 2.95 -22.75 1.75 -22.85 0.5 -22.85 0.2 -22.85 -0.05 -22.75 -1.2 -22.55 -2.3 -22.75 -3.25 -22.85 -4.15 -22.75 -5.0 -22.4 -5.85 -22.7 -6.8 -22.8 -7.85 -22.8 -8.2 -22.75 -8.5 -22.75 -8.8 -22.7 -9.15 -22.65 -9.2 -22.55 -9.3 -22.25 -9.55" fill="#ffffff" fill-rule="evenodd" stroke="none"/>
    <path d="M-22.25 -9.55 L-21.95 -9.65 -21.85 -9.65 -21.6 -9.4 -21.35 -9.3 -21.25 -9.35 -21.1 -9.35 -20.95 -9.35 -20.8 -9.4 -20.6 -9.35 -20.45 -9.25 -19.7 -9.65 -18.8 -9.75 -18.6 -9.75 -18.45 -9.75 -17.4 -9.55 -16.5 -9.25 -15.8 -9.5 -15.05 -9.55 -14.85 -9.55 -14.6 -9.55 -14.4 -9.5 -14.2 -9.45 -14.0 -8.7 -13.9 -7.85 Q-13.9 -7.3 -14.05 -6.85 L-14.45 -5.95 -13.9 -5.3 -13.75 -4.45 -13.75 -4.05 -13.8 -3.7 -13.85 -3.5 -13.85 -3.3 -13.95 -2.8 -14.0 -2.25 -14.0 -2.05 -13.95 -1.9 -13.9 -1.65 -13.85 -1.55 -13.85 -1.35 -13.85 -1.2 -13.85 -0.8 -13.85 -0.4 -13.95 0.4 -14.45 1.15 -14.1 1.9 -13.9 2.7 -13.9 2.75 -13.85 2.8 -13.35 4.3 Q-13.0 5.0 -11.75 5.0 L-11.65 5.0 -11.0 4.45 -10.9 3.75 -10.9 3.2 -10.7 2.7 -10.85 1.3 -10.95 -0.05 -10.95 -0.5 -10.95 -0.85 -10.9 -2.2 -10.65 -3.6 -10.9 -4.05 -10.95 -4.55 -10.9 -5.0 -10.85 -5.45 -10.75 -5.95 -10.7 -6.35 -10.75 -6.85 -11.0 -7.25 -10.9 -7.7 -10.9 -8.2 -10.75 -8.95 -10.2 -9.55 -10.05 -9.6 -9.85 -9.65 -9.7 -9.7 -9.5 -9.75 -9.05 -9.65 -8.6 -9.55 -8.15 -9.35 -7.75 -9.25 Q-7.5 -9.25 -7.3 -9.4 L-6.95 -9.8 -6.4 -9.75 -5.9 -9.7 -5.8 -9.7 -4.8 -9.6 -3.85 -9.4 -3.6 -9.6 -3.25 -9.75 -3.15 -9.8 -3.0 -9.8 -2.95 -9.85 -2.9 -9.85 -2.8 -9.85 -2.75 -9.85 -2.65 -9.85 -1.9 -9.7 -1.5 -9.2 -1.45 -8.7 -1.45 -8.15 -1.45 -8.0 -1.45 -7.9 -1.55 -6.9 -1.85 -5.95 -1.5 -4.65 -1.45 -3.25 -1.45 -3.0 -1.45 -2.8 -1.45 -2.55 -1.4 -2.3 -1.4 -2.0 -1.4 -1.75 -1.6 -1.45 -1.7 -1.1 -1.65 -1.0 -1.6 -0.85 -1.55 -0.7 -1.4 -0.55 -1.4 -0.4 -1.4 -0.35 -1.4 -0.2 -1.4 0.2 -1.35 0.65 -1.35 1.05 -1.3 1.5 -1.45 2.4 -2.15 3.25 -2.15 3.3 -2.05 3.5 -1.85 3.65 -1.7 3.7 -1.65 3.7 -1.55 4.55 -1.45 5.4 -1.4 5.65 -1.4 5.95 -1.45 6.45 -1.5 6.95 -1.2 7.5 -0.85 7.95 -0.3 8.9 -0.05 9.95 -0.05 10.15 -0.1 10.45 -1.25 10.8 -2.55 10.9 -2.9 10.9 -3.25 10.9 -3.4 10.9 -3.6 10.9 -4.1 10.85 -4.6 10.85 -5.35 10.9 -6.05 11.0 -6.4 10.9 -6.7 10.85 -6.9 10.8 -7.05 10.8 -7.2 10.8 -7.3 10.8 -7.4 10.8 -7.5 10.8 -7.65 10.85 -7.85 10.85 -8.6 10.75 -9.2 10.2 -9.4 10.15 -9.65 10.1 -9.8 10.05 -9.9 10.05 -10.1 10.05 -10.25 10.1 -10.6 10.15 -10.9 10.2 -11.1 10.2 -11.3 10.25 Q-11.85 10.7 -12.55 10.8 L-13.95 11.0 -14.35 11.0 -14.7 10.95 -15.85 10.8 -16.9 10.65 -17.25 10.55 -17.6 10.5 -18.2 10.05 -18.95 9.8 -19.05 9.8 -19.85 9.5 -20.45 8.85 -20.85 8.4 -21.1 7.85 -21.5 7.05 -22.15 6.5 -22.25 6.05 -22.35 5.65 -22.6 4.85 -22.7 3.95 -22.65 3.45 -22.5 2.95 -22.75 1.75 -22.85 0.5 -22.85 0.2 -22.85 -0.05 -22.75 -1.2 -22.55 -2.3 -22.75 -3.25 -22.85 -4.15 -22.75 -5.0 -22.4 -5.85 -22.7 -6.8 -22.8 -7.85 -22.8 -8.2 -22.75 -8.5 -22.75 -8.8 -22.7 -9.15 -22.65 -9.2 -22.55 -9.3 -22.25 -9.55 Z" fill="none" stroke="#000000" stroke-linecap="round" stroke-linejoin="miter-clip" stroke-miterlimit="3.0" stroke-width="4.0"/>
    <path d="M18.95 -7.85 L19.3 -7.85 19.6 -7.9 19.95 -7.95 20.3 -7.95 20.95 -8.0 21.7 -8.05 21.95 -8.05 22.2 -8.05 22.3 -8.0 22.35 -7.95 22.4 -7.9 22.45 -7.8 22.55 -7.7 22.6 -7.55 22.6 -7.45 22.6 -7.2 22.6 -7.0 22.65 -6.8 22.75 -6.6 22.8 -6.15 22.85 -5.75 22.75 -5.3 22.45 -4.95 22.55 -4.55 22.65 -4.15 22.65 -4.0 22.7 -3.85 22.8 -3.3 22.85 -2.7 22.75 -2.05 22.4 -1.4 22.6 -0.95 22.7 -0.55 22.75 -0.1 22.8 0.35 22.75 1.0 22.7 1.7 22.6 2.4 22.6 3.1 22.6 3.15 22.6 3.25 22.6 3.3 22.6 3.4 22.45 3.5 22.35 3.55 22.3 3.65 22.3 3.7 22.35 3.9 22.5 4.1 22.6 4.3 22.65 4.5 22.7 4.8 22.75 5.1 22.75 5.3 22.8 5.5 22.85 5.85 22.85 6.2 22.75 6.95 22.35 7.6 22.65 8.3 22.85 9.05 22.85 9.15 22.85 9.35 22.75 10.0 22.4 10.65 21.85 10.9 21.2 10.9 21.0 10.9 20.85 10.9 20.65 10.9 20.45 10.85 Q20.25 10.7 20.1 10.7 L19.7 10.6 19.2 10.7 18.75 10.8 18.25 10.95 17.75 11.0 17.2 10.9 16.7 10.5 16.45 10.2 16.05 9.95 16.0 9.95 16.0 9.9 15.4 9.4 Q15.15 9.15 15.15 8.75 14.35 8.45 13.9 8.0 L13.1 7.05 12.25 6.15 Q11.85 5.65 11.05 5.45 L10.55 4.95 9.8 4.75 9.5 5.45 9.45 6.25 9.45 6.3 9.45 6.4 9.45 6.45 9.45 6.5 9.4 7.2 9.15 7.9 9.5 8.55 9.65 9.2 9.6 9.55 9.45 9.85 9.55 10.05 9.6 10.3 9.55 10.55 9.35 10.8 9.15 10.8 9.0 10.85 8.8 10.9 8.55 10.9 8.15 10.95 7.75 10.95 7.05 10.9 6.4 10.6 5.9 10.85 5.35 10.9 5.1 10.9 4.85 10.9 4.6 10.9 4.35 10.9 4.1 10.9 3.8 10.9 3.55 10.95 3.35 10.95 3.1 11.0 2.85 11.0 1.9 10.9 1.05 10.55 0.9 10.0 0.85 9.4 0.85 9.25 0.85 9.15 1.0 8.55 1.25 8.0 1.05 7.3 0.9 6.55 0.85 6.15 0.85 5.8 0.95 4.95 1.25 4.1 0.9 3.4 0.75 2.65 0.75 2.5 0.75 2.35 0.85 1.35 1.1 0.55 1.05 0.4 1.05 0.3 0.85 -0.4 0.75 -1.05 0.8 -1.2 0.8 -1.4 0.9 -1.75 1.1 -2.15 0.8 -2.75 0.7 -3.4 0.75 -3.9 0.85 -4.35 0.9 -4.85 0.9 -5.35 0.8 -6.1 0.35 -6.8 0.45 -7.1 0.65 -7.4 0.75 -7.5 0.85 -7.55 1.35 -7.75 1.85 -7.9 2.05 -7.9 2.3 -7.9 3.15 -7.8 3.9 -7.55 4.5 -7.9 5.2 -7.95 5.35 -7.95 5.6 -7.95 5.8 -7.95 5.95 -7.9 6.2 -7.9 6.35 -7.9 6.5 -7.75 6.65 -7.7 6.8 -7.6 6.9 -7.6 7.2 -7.65 7.5 -7.75 7.85 -7.9 8.2 -7.95 8.4 -7.9 8.6 -7.8 8.8 -7.75 8.95 -7.6 10.0 -6.85 10.45 -5.8 10.45 -5.75 10.65 -5.65 10.9 -5.55 11.9 -4.9 12.35 -4.0 12.95 -3.7 13.45 -3.35 13.55 -3.3 13.6 -3.25 14.0 -2.95 14.45 -2.7 14.8 -3.2 14.85 -3.7 14.85 -4.0 14.8 -4.3 14.8 -4.35 14.75 -4.7 14.7 -5.05 14.75 -5.4 14.9 -5.7 Q14.7 -6.0 14.65 -6.25 L14.6 -6.85 14.6 -7.05 14.55 -7.25 14.55 -7.4 14.5 -7.55 15.6 -7.95 16.85 -8.1 17.85 -8.0 18.85 -7.85 18.95 -7.85" fill="#ffffff" fill-rule="evenodd" stroke="none"/>
    <path d="M18.95 -7.85 L19.3 -7.85 19.6 -7.9 19.95 -7.95 20.3 -7.95 20.95 -8.0 21.7 -8.05 21.95 -8.05 22.2 -8.05 22.3 -8.0 22.35 -7.95 22.4 -7.9 22.45 -7.8 22.55 -7.7 22.6 -7.55 22.6 -7.45 22.6 -7.2 22.6 -7.0 22.65 -6.8 22.75 -6.6 22.8 -6.15 22.85 -5.75 22.75 -5.3 22.45 -4.95 22.55 -4.55 22.65 -4.15 22.65 -4.0 22.7 -3.85 22.8 -3.3 22.85 -2.7 22.75 -2.05 22.4 -1.4 22.6 -0.95 22.7 -0.55 22.75 -0.1 22.8 0.35 22.75 1.0 22.7 1.7 22.6 2.4 22.6 3.1 22.6 3.15 22.6 3.25 22.6 3.3 22.6 3.4 22.45 3.5 22.35 3.55 22.3 3.65 22.3 3.7 22.35 3.9 22.5 4.1 22.6 4.3 22.65 4.5 22.7 4.8 22.75 5.1 22.75 5.3 22.8 5.5 22.85 5.85 22.85 6.2 22.75 6.95 22.35 7.6 22.65 8.3 22.85 9.05 22.85 9.15 22.85 9.35 22.75 10.0 22.4 10.65 21.85 10.9 21.2 10.9 21.0 10.9 20.85 10.9 20.65 10.9 20.45 10.85 Q20.25 10.7 20.1 10.7 L19.7 10.6 19.2 10.7 18.75 10.8 18.25 10.95 17.75 11.0 17.2 10.9 16.7 10.5 16.45 10.2 16.05 9.95 16.0 9.95 16.0 9.9 15.4 9.4 Q15.15 9.15 15.15 8.75 14.35 8.45 13.9 8.0 L13.1 7.05 12.25 6.15 Q11.85 5.65 11.05 5.45 L10.55 4.95 9.8 4.75 9.5 5.45 9.45 6.25 9.45 6.3 9.45 6.4 9.45 6.45 9.45 6.5 9.4 7.2 9.15 7.9 9.5 8.55 9.65 9.2 9.6 9.55 9.45 9.85 9.55 10.05 9.6 10.3 9.55 10.55 9.35 10.8 9.15 10.8 9.0 10.85 8.8 10.9 8.55 10.9 8.15 10.95 7.75 10.95 7.05 10.9 6.4 10.6 5.9 10.85 5.35 10.9 5.1 10.9 4.85 10.9 4.6 10.9 4.35 10.9 4.1 10.9 3.8 10.9 3.55 10.95 3.35 10.95 3.1 11.0 2.85 11.0 1.9 10.9 1.05 10.55 0.9 10.0 0.85 9.4 0.85 9.25 0.85 9.15 1.0 8.55 1.25 8.0 1.05 7.3 0.9 6.55 0.85 6.15 0.85 5.8 0.95 4.95 1.25 4.1 0.9 3.4 0.75 2.65 0.75 2.5 0.75 2.35 0.85 1.35 1.1 0.55 1.05 0.4 1.05 0.3 0.85 -0.4 0.75 -1.05 0.8 -1.2 0.8 -1.4 0.9 -1.75 1.1 -2.15 0.8 -2.75 0.7 -3.4 0.75 -3.9 0.85 -4.35 0.9 -4.85 0.9 -5.35 0.8 -6.1 0.35 -6.8 0.45 -7.1 0.65 -7.4 0.75 -7.5 0.85 -7.55 1.35 -7.75 1.85 -7.9 2.05 -7.9 2.3 -7.9 3.15 -7.8 3.9 -7.55 4.5 -7.9 5.2 -7.95 5.35 -7.95 5.6 -7.95 5.8 -7.95 5.95 -7.9 6.2 -7.9 6.35 -7.9 6.5 -7.75 6.65 -7.7 6.8 -7.6 6.9 -7.6 7.2 -7.65 7.5 -7.75 7.85 -7.9 8.2 -7.95 8.4 -7.9 8.6 -7.8 8.8 -7.75 8.95 -7.6 10.0 -6.85 10.45 -5.8 10.45 -5.75 10.65 -5.65 10.9 -5.55 11.9 -4.9 12.35 -4.0 12.95 -3.7 13.45 -3.35 13.55 -3.3 13.6 -3.25 14.0 -2.95 14.45 -2.7 14.8 -3.2 14.85 -3.7 14.85 -4.0 14.8 -4.3 14.8 -4.35 14.75 -4.7 14.7 -5.05 14.75 -5.4 14.9 -5.7 Q14.7 -6.0 14.65 -6.25 L14.6 -6.85 14.6 -7.05 14.55 -7.25 14.55 -7.4 14.5 -7.55 15.6 -7.95 16.85 -8.1 17.85 -8.0 18.85 -7.85 18.95 -7.85 Z" fill="none" stroke="#000000" stroke-linecap="round" stroke-linejoin="miter-clip" stroke-miterlimit="3.0" stroke-width="4.0"/>
    <path d="M39.65 -12.15 L40.1 -12.15 40.6 -12.15 41.1 -12.25 41.6 -12.25 42.1 -12.3 42.35 -12.3 42.6 -12.25 42.8 -12.2 43.05 -12.15 Q43.25 -12.4 43.6 -12.5 L44.35 -12.6 44.5 -12.6 44.7 -12.6 44.8 -12.6 44.9 -12.6 45.05 -12.6 45.2 -12.6 45.3 -12.6 45.35 -12.55 45.65 -12.35 45.85 -12.1 45.95 -12.0 46.0 -11.9 45.95 -11.45 45.95 -11.1 46.0 -10.35 46.05 -9.6 46.05 -9.5 46.1 -9.4 46.15 -8.75 46.15 -8.1 46.15 -7.9 46.15 -7.7 46.15 -7.45 46.1 -7.2 46.1 -6.95 46.15 -6.75 46.15 -6.6 46.2 -6.5 46.25 -6.15 46.25 -5.75 46.25 -5.35 46.05 -5.05 45.65 -4.85 45.3 -4.75 44.85 -4.85 44.45 -4.95 44.05 -5.1 43.6 -5.15 43.25 -5.1 42.9 -4.9 42.65 -4.95 42.45 -4.95 42.05 -4.95 41.6 -4.85 41.2 -4.75 40.85 -4.75 40.45 -4.8 Q40.25 -4.85 40.05 -5.0 L39.2 -4.6 38.35 -4.05 38.1 -3.95 37.85 -3.8 37.05 -3.3 36.2 -2.85 35.85 -1.9 35.7 -0.9 35.7 -0.75 35.7 -0.6 35.95 0.7 36.45 1.85 37.2 2.0 37.8 2.4 38.15 2.6 38.45 2.8 38.8 2.75 39.15 2.75 39.8 2.8 40.45 2.85 41.05 2.95 41.65 3.0 42.35 2.9 43.0 2.65 43.2 2.7 43.35 2.75 43.45 2.75 43.55 2.75 43.95 2.75 44.4 2.6 44.85 2.55 45.3 2.55 46.0 2.75 Q46.3 2.95 46.4 3.5 L46.5 3.6 46.5 3.75 46.55 3.85 46.55 4.0 46.5 4.3 46.4 4.65 46.25 5.0 46.2 5.25 46.25 5.55 46.45 5.85 46.65 6.2 46.65 6.65 46.6 7.05 46.5 7.5 46.4 7.95 46.35 8.35 46.4 8.7 46.55 9.05 46.5 9.3 46.5 9.6 46.3 10.35 45.75 10.85 45.6 10.85 45.45 10.85 45.3 10.8 45.15 10.8 44.6 10.85 44.1 10.95 43.55 11.0 43.05 11.05 42.75 11.05 42.45 10.95 42.15 10.85 41.85 10.65 40.8 10.95 39.65 11.05 38.4 10.95 37.25 10.65 36.65 10.85 35.95 10.95 35.8 10.95 35.65 10.95 35.15 10.9 34.65 10.7 34.45 10.75 34.3 10.75 33.1 10.5 32.1 9.85 31.3 9.35 30.35 9.0 Q29.8 8.85 29.5 8.5 L28.95 7.7 28.9 7.7 28.85 7.65 28.35 6.9 Q28.05 6.55 27.6 6.35 L26.2 4.15 Q25.7 2.95 25.65 1.65 L25.2 0.95 Q25.05 0.5 25.05 0.05 L25.1 -0.55 25.2 -1.1 25.25 -1.5 25.25 -2.0 25.3 -2.45 25.3 -2.9 25.5 -4.25 26.05 -5.35 26.5 -5.95 27.0 -6.45 27.05 -6.5 27.15 -6.55 27.85 -7.3 28.25 -8.25 28.55 -8.45 28.8 -8.7 29.3 -9.15 30.0 -9.4 Q30.85 -10.25 31.85 -10.95 32.85 -11.6 34.05 -11.75 L35.0 -11.8 35.95 -11.9 36.3 -11.95 36.6 -12.0 37.85 -12.15 39.15 -12.25 39.65 -12.15" fill="#ffffff" fill-rule="evenodd" stroke="none"/>
    <path d="M39.65 -12.15 L40.1 -12.15 40.6 -12.15 41.1 -12.25 41.6 -12.25 42.1 -12.3 42.35 -12.3 42.6 -12.25 42.8 -12.2 43.05 -12.15 Q43.25 -12.4 43.6 -12.5 L44.35 -12.6 44.5 -12.6 44.7 -12.6 44.8 -12.6 44.9 -12.6 45.05 -12.6 45.2 -12.6 45.3 -12.6 45.35 -12.55 45.65 -12.35 45.85 -12.1 45.95 -12.0 46.0 -11.9 45.95 -11.45 45.95 -11.1 46.0 -10.35 46.05 -9.6 46.05 -9.5 46.1 -9.4 46.15 -8.75 46.15 -8.1 46.15 -7.9 46.15 -7.7 46.15 -7.45 46.1 -7.2 46.1 -6.95 46.15 -6.75 46.15 -6.6 46.2 -6.5 46.25 -6.15 46.25 -5.75 46.25 -5.35 46.05 -5.05 45.65 -4.85 45.3 -4.75 44.85 -4.85 44.45 -4.95 44.05 -5.1 43.6 -5.15 43.25 -5.1 42.9 -4.9 42.65 -4.95 42.45 -4.95 42.05 -4.95 41.6 -4.85 41.2 -4.75 40.85 -4.75 40.45 -4.8 Q40.25 -4.85 40.05 -5.0 L39.2 -4.6 38.35 -4.05 38.1 -3.95 37.85 -3.8 37.05 -3.3 36.2 -2.85 35.85 -1.9 35.7 -0.9 35.7 -0.75 35.7 -0.6 35.95 0.7 36.45 1.85 37.2 2.0 37.8 2.4 38.15 2.6 38.45 2.8 38.8 2.75 39.15 2.75 39.8 2.8 40.45 2.85 41.05 2.95 41.65 3.0 42.35 2.9 43.0 2.65 43.2 2.7 43.35 2.75 43.45 2.75 43.55 2.75 43.95 2.75 44.4 2.6 44.85 2.55 45.3 2.55 46.0 2.75 Q46.3 2.95 46.4 3.5 L46.5 3.6 46.5 3.75 46.55 3.85 46.55 4.0 46.5 4.3 46.4 4.65 46.25 5.0 46.2 5.25 46.25 5.55 46.45 5.85 46.65 6.2 46.65 6.65 46.6 7.05 46.5 7.5 46.4 7.95 46.35 8.35 46.4 8.7 46.55 9.05 46.5 9.3 46.5 9.6 46.3 10.35 45.75 10.85 45.6 10.85 45.45 10.85 45.3 10.8 45.15 10.8 44.6 10.85 44.1 10.95 43.55 11.0 43.05 11.05 42.75 11.05 42.45 10.95 42.15 10.85 41.85 10.65 40.8 10.95 39.65 11.05 38.4 10.95 37.25 10.65 36.65 10.85 35.95 10.95 35.8 10.95 35.65 10.95 35.15 10.9 34.65 10.7 34.45 10.75 34.3 10.75 33.1 10.5 32.1 9.85 31.3 9.35 30.35 9.0 Q29.8 8.85 29.5 8.5 L28.95 7.7 28.9 7.7 28.85 7.65 28.35 6.9 Q28.05 6.55 27.6 6.35 L26.2 4.15 Q25.7 2.95 25.65 1.65 L25.2 0.95 Q25.05 0.5 25.05 0.05 L25.1 -0.55 25.2 -1.1 25.25 -1.5 25.25 -2.0 25.3 -2.45 25.3 -2.9 25.5 -4.25 26.05 -5.35 26.5 -5.95 27.0 -6.45 27.05 -6.5 27.15 -6.55 27.85 -7.3 28.25 -8.25 28.55 -8.45 28.8 -8.7 29.3 -9.15 30.0 -9.4 Q30.85 -10.25 31.85 -10.95 32.85 -11.6 34.05 -11.75 L35.0 -11.8 35.95 -11.9 36.3 -11.95 36.6 -12.0 37.85 -12.15 39.15 -12.25 39.65 -12.15 Z" fill="none" stroke="#000000" stroke-linecap="round" stroke-linejoin="miter-clip" stroke-miterlimit="3.0" stroke-width="4.0"/>
    <path d="M50.25 -16.4 L50.55 -16.4 51.15 -16.3 51.75 -16.05 Q52.05 -16.3 52.5 -16.4 L53.3 -16.55 54.2 -16.35 54.9 -16.05 55.7 -16.3 56.5 -16.4 56.65 -16.4 56.8 -16.4 56.95 -16.35 57.1 -16.35 57.5 -15.55 57.6 -14.65 57.6 -14.25 57.55 -13.8 57.35 -13.4 57.45 -13.05 57.45 -13.0 57.5 -12.9 57.65 -12.6 57.65 -12.2 57.75 -11.9 57.75 -11.55 57.75 -11.4 57.75 -11.2 57.7 -11.05 57.7 -10.9 57.65 -10.55 57.6 -10.25 57.75 -9.7 Q57.9 -9.5 58.35 -9.35 L58.85 -9.25 59.4 -9.25 60.2 -9.35 60.75 -9.9 60.8 -11.0 60.85 -12.05 60.85 -12.6 60.85 -13.15 60.8 -14.5 60.75 -15.85 61.2 -16.35 61.8 -16.7 61.85 -16.7 61.95 -16.75 62.05 -16.75 62.5 -16.65 62.85 -16.4 64.45 -16.55 66.0 -16.6 66.6 -16.6 67.2 -16.55 68.45 -16.55 69.6 -16.5 69.8 -16.25 69.85 -16.05 69.85 -16.0 69.9 -15.95 69.9 -15.85 69.95 -15.15 70.0 -14.45 70.05 -13.7 70.05 -13.0 70.05 -12.3 69.9 -11.65 70.15 -11.0 70.25 -10.35 70.2 -9.85 70.1 -9.3 70.0 -8.7 69.95 -8.1 70.05 -7.55 70.35 -6.9 70.4 -6.6 70.45 -6.25 70.35 -5.7 70.2 -5.1 70.1 -4.75 70.0 -4.45 69.95 -4.25 69.9 -3.95 70.05 -3.4 70.4 -2.9 70.3 -2.1 70.25 -1.25 70.3 -0.4 70.35 0.4 70.4 1.35 70.45 2.3 70.35 3.6 69.95 4.95 70.35 6.05 70.4 7.2 70.4 7.7 70.4 8.3 70.35 8.9 70.35 9.45 70.35 9.75 70.35 10.05 70.25 10.2 70.2 10.4 70.0 10.65 69.75 10.9 68.2 10.75 66.65 10.65 65.1 10.75 63.5 10.85 62.75 10.85 61.95 10.9 61.9 10.9 61.85 10.85 61.2 10.3 60.75 9.5 60.75 8.95 60.7 8.45 60.7 8.2 60.7 7.95 60.65 7.15 60.55 6.3 60.65 4.8 60.7 3.25 60.65 1.75 60.45 0.35 60.05 0.0 59.6 -0.1 59.4 0.0 59.3 0.0 59.05 0.05 58.8 0.1 58.5 0.15 58.3 0.2 Q58.0 0.4 57.95 0.75 L57.9 1.35 57.9 1.5 57.8 2.05 57.55 2.6 57.8 3.6 57.9 4.7 57.9 5.0 57.9 5.25 57.75 6.15 57.5 7.1 57.8 8.05 57.9 9.1 57.85 9.8 57.6 10.5 57.2 10.8 56.8 10.85 56.45 10.8 56.15 10.75 55.8 10.65 55.45 10.6 55.05 10.65 54.7 10.9 54.35 10.8 54.05 10.75 53.75 10.65 53.4 10.65 52.7 10.75 52.0 10.8 51.3 10.9 50.55 10.95 49.8 10.9 49.0 10.55 48.6 8.9 Q48.45 8.05 48.45 7.2 L48.5 5.85 48.65 4.55 48.65 4.1 48.7 3.6 48.75 2.75 48.75 1.9 48.75 1.65 48.75 1.5 48.75 1.3 48.75 1.15 48.55 0.4 48.5 -0.3 48.5 -0.75 48.55 -1.25 48.6 -1.45 48.65 -1.7 48.7 -2.4 48.7 -3.1 48.7 -3.7 48.55 -4.3 48.5 -4.5 48.45 -4.75 48.4 -5.0 48.4 -5.15 48.45 -5.8 48.6 -6.45 48.7 -7.05 48.75 -7.7 48.75 -8.0 48.65 -8.3 48.55 -8.6 48.4 -8.9 48.35 -9.45 48.3 -10.05 48.3 -10.25 48.25 -10.4 48.25 -10.8 48.25 -11.15 48.25 -11.75 48.4 -12.3 48.15 -13.05 48.1 -13.95 48.15 -14.45 48.15 -15.0 48.2 -15.2 48.2 -15.5 48.25 -15.75 48.25 -15.95 49.05 -16.35 49.95 -16.5 50.25 -16.4" fill="#ffffff" fill-rule="evenodd" stroke="none"/>
    <path d="M50.25 -16.4 L50.55 -16.4 51.15 -16.3 51.75 -16.05 Q52.05 -16.3 52.5 -16.4 L53.3 -16.55 54.2 -16.35 54.9 -16.05 55.7 -16.3 56.5 -16.4 56.65 -16.4 56.8 -16.4 56.95 -16.35 57.1 -16.35 57.5 -15.55 57.6 -14.65 57.6 -14.25 57.55 -13.8 57.35 -13.4 57.45 -13.05 57.45 -13.0 57.5 -12.9 57.65 -12.6 57.65 -12.2 57.75 -11.9 57.75 -11.55 57.75 -11.4 57.75 -11.2 57.7 -11.05 57.7 -10.9 57.65 -10.55 57.6 -10.25 57.75 -9.7 Q57.9 -9.5 58.35 -9.35 L58.85 -9.25 59.4 -9.25 60.2 -9.35 60.75 -9.9 60.8 -11.0 60.85 -12.05 60.85 -12.6 60.85 -13.15 60.8 -14.5 60.75 -15.85 61.2 -16.35 61.8 -16.7 61.85 -16.7 61.95 -16.75 62.05 -16.75 62.5 -16.65 62.85 -16.4 64.45 -16.55 66.0 -16.6 66.6 -16.6 67.2 -16.55 68.45 -16.55 69.6 -16.5 69.8 -16.25 69.85 -16.05 69.85 -16.0 69.9 -15.95 69.9 -15.85 69.95 -15.15 70.0 -14.45 70.05 -13.7 70.05 -13.0 70.05 -12.3 69.9 -11.65 70.15 -11.0 70.25 -10.35 70.2 -9.85 70.1 -9.3 70.0 -8.7 69.95 -8.1 70.05 -7.55 70.35 -6.9 70.4 -6.6 70.45 -6.25 70.35 -5.7 70.2 -5.1 70.1 -4.75 70.0 -4.45 69.95 -4.25 69.9 -3.95 70.05 -3.4 70.4 -2.9 70.3 -2.1 70.25 -1.25 70.3 -0.4 70.35 0.4 70.4 1.35 70.45 2.3 70.35 3.6 69.95 4.95 70.35 6.05 70.4 7.2 70.4 7.7 70.4 8.3 70.35 8.9 70.35 9.45 70.35 9.75 70.35 10.05 70.25 10.2 70.2 10.4 70.0 10.65 69.75 10.9 68.2 10.75 66.65 10.65 65.1 10.75 63.5 10.85 62.75 10.85 61.95 10.9 61.9 10.9 61.85 10.85 61.2 10.3 60.75 9.5 60.75 8.95 60.7 8.45 60.7 8.2 60.7 7.95 60.65 7.15 60.55 6.3 60.65 4.8 60.7 3.25 60.65 1.75 60.45 0.35 60.05 0.0 59.6 -0.1 59.4 0.0 59.3 0.0 59.05 0.05 58.8 0.1 58.5 0.15 58.3 0.2 Q58.0 0.4 57.95 0.75 L57.9 1.35 57.9 1.5 57.8 2.05 57.55 2.6 57.8 3.6 57.9 4.7 57.9 5.0 57.9 5.25 57.75 6.15 57.5 7.1 57.8 8.05 57.9 9.1 57.85 9.8 57.6 10.5 57.2 10.8 56.8 10.85 56.45 10.8 56.15 10.75 55.8 10.65 55.45 10.6 55.05 10.65 54.7 10.9 54.35 10.8 54.05 10.75 53.75 10.65 53.4 10.65 52.7 10.75 52.0 10.8 51.3 10.9 50.55 10.95 49.8 10.9 49.0 10.55 48.6 8.9 Q48.45 8.05 48.45 7.2 L48.5 5.85 48.65 4.55 48.65 4.1 48.7 3.6 48.75 2.75 48.75 1.9 48.75 1.65 48.75 1.5 48.75 1.3 48.75 1.15 48.55 0.4 48.5 -0.3 48.5 -0.75 48.55 -1.25 48.6 -1.45 48.65 -1.7 48.7 -2.4 48.7 -3.1 48.7 -3.7 48.55 -4.3 48.5 -4.5 48.45 -4.75 48.4 -5.0 48.4 -5.15 48.45 -5.8 48.6 -6.45 48.7 -7.05 48.75 -7.7 48.75 -8.0 48.65 -8.3 48.55 -8.6 48.4 -8.9 48.35 -9.45 48.3 -10.05 48.3 -10.25 48.25 -10.4 48.25 -10.8 48.25 -11.15 48.25 -11.75 48.4 -12.3 48.15 -13.05 48.1 -13.95 48.15 -14.45 48.15 -15.0 48.2 -15.2 48.2 -15.5 48.25 -15.75 48.25 -15.95 49.05 -16.35 49.95 -16.5 50.25 -16.4 Z" fill="none" stroke="#000000" stroke-linecap="round" stroke-linejoin="miter-clip" stroke-miterlimit="3.0" stroke-width="4.0"/>
    <path d="M-14.2 -20.1 L-18.6 -15.7 -23.0 -20.1 -18.6 -24.5 -14.2 -20.1" fill="#ffffff" fill-opacity="0.49803922" fill-rule="evenodd" stroke="none"/>
    <path d="M-14.2 -20.1 L-18.6 -15.7 -23.0 -20.1 -18.6 -24.5 -14.2 -20.1 Z" fill="none" stroke="#000000" stroke-linecap="round" stroke-linejoin="miter-clip" stroke-miterlimit="3.0" stroke-opacity="0.49803922" stroke-width="1.0"/>
    <path d="M27.55 -22.6 L23.15 -18.2 18.75 -22.6 23.15 -27.0 27.55 -22.6" fill="#ffffff" fill-opacity="0.49803922" fill-rule="evenodd" stroke="none"/>
    <path d="M27.55 -22.6 L23.15 -18.2 18.75 -22.6 23.15 -27.0 27.55 -22.6 Z" fill="none" stroke="#000000" stroke-linecap="round" stroke-linejoin="miter-clip" stroke-miterlimit="3.0" stroke-opacity="0.49803922" stroke-width="1.0"/>
    <path d="M-28.0 -26.65 L-31.35 -23.3 -34.65 -26.6 -31.3 -29.95 -28.0 -26.65" fill="#ffffff" fill-opacity="0.49803922" fill-rule="evenodd" stroke="none"/>
    <path d="M-28.0 -26.65 L-31.35 -23.3 -34.65 -26.6 -31.3 -29.95 -28.0 -26.65 Z" fill="none" stroke="#000000" stroke-linecap="round" stroke-linejoin="miter-clip" stroke-miterlimit="3.0" stroke-opacity="0.49803922" stroke-width="1.0"/>
    <path d="M40.75 -24.15 L37.4 -20.8 34.1 -24.1 37.45 -27.45 40.75 -24.15" fill="#ffffff" fill-opacity="0.49803922" fill-rule="evenodd" stroke="none"/>
    <path d="M40.75 -24.15 L37.4 -20.8 34.1 -24.1 37.45 -27.45 40.75 -24.15 Z" fill="none" stroke="#000000" stroke-linecap="round" stroke-linejoin="miter-clip" stroke-miterlimit="3.0" stroke-opacity="0.49803922" stroke-width="1.0"/>
    <path d="M6.75 -24.15 L3.4 -20.8 0.1 -24.1 3.45 -27.45 6.75 -24.15" fill="#ffffff" fill-opacity="0.49803922" fill-rule="evenodd" stroke="none"/>
    <path d="M6.75 -24.15 L3.4 -20.8 0.1 -24.1 3.45 -27.45 6.75 -24.15 Z" fill="none" stroke="#000000" stroke-linecap="round" stroke-linejoin="miter-clip" stroke-miterlimit="3.0" stroke-opacity="0.49803922" stroke-width="1.0"/>
    <path d="M-5.35 -33.65 L-7.85 -31.15 -10.3 -33.6 -7.8 -36.1 -5.35 -33.65" fill="#ffffff" fill-opacity="0.49803922" fill-rule="evenodd" stroke="none"/>
    <path d="M-5.35 -33.65 L-7.85 -31.15 -10.3 -33.6 -7.8 -36.1 -5.35 -33.65 Z" fill="none" stroke="#000000" stroke-linecap="round" stroke-linejoin="miter-clip" stroke-miterlimit="3.0" stroke-opacity="0.49803922" stroke-width="1.0"/>
    <path d="M-74.75 -20.4 L-78.1 -17.05 -81.4 -20.35 -78.05 -23.7 -74.75 -20.4" fill="#ffffff" fill-opacity="0.49803922" fill-rule="evenodd" stroke="none"/>
    <path d="M-74.75 -20.4 L-78.1 -17.05 -81.4 -20.35 -78.05 -23.7 -74.75 -20.4 Z" fill="none" stroke="#000000" stroke-linecap="round" stroke-linejoin="miter-clip" stroke-miterlimit="3.0" stroke-opacity="0.49803922" stroke-width="1.0"/>
    <path d="M87.0 6.85 L83.65 10.2 80.35 6.9 83.7 3.55 87.0 6.85" fill="#ffffff" fill-opacity="0.49803922" fill-rule="evenodd" stroke="none"/>
    <path d="M87.0 6.85 L83.65 10.2 80.35 6.9 83.7 3.55 87.0 6.85 Z" fill="none" stroke="#000000" stroke-linecap="round" stroke-linejoin="miter-clip" stroke-miterlimit="3.0" stroke-opacity="0.49803922" stroke-width="1.0"/>
    <path d="M88.4 -6.15 L85.9 -3.65 83.45 -6.1 85.95 -8.6 88.4 -6.15" fill="#ffffff" fill-opacity="0.49803922" fill-rule="evenodd" stroke="none"/>
    <path d="M88.4 -6.15 L85.9 -3.65 83.45 -6.1 85.95 -8.6 88.4 -6.15 Z" fill="none" stroke="#000000" stroke-linecap="round" stroke-linejoin="miter-clip" stroke-miterlimit="3.0" stroke-opacity="0.49803922" stroke-width="1.0"/>
    <path d="M-89.35 -9.4 L-91.85 -6.9 -94.3 -9.35 -91.8 -11.85 -89.35 -9.4" fill="#ffffff" fill-opacity="0.49803922" fill-rule="evenodd" stroke="none"/>
    <path d="M-89.35 -9.4 L-91.85 -6.9 -94.3 -9.35 -91.8 -11.85 -89.35 -9.4 Z" fill="none" stroke="#000000" stroke-linecap="round" stroke-linejoin="miter-clip" stroke-miterlimit="3.0" stroke-opacity="0.49803922" stroke-width="1.0"/>
    <path d="M99.4 2.35 L96.9 4.85 94.45 2.4 96.95 -0.1 99.4 2.35" fill="#ffffff" fill-opacity="0.49803922" fill-rule="evenodd" stroke="none"/>
    <path d="M99.4 2.35 L96.9 4.85 94.45 2.4 96.95 -0.1 99.4 2.35 Z" fill="none" stroke="#000000" stroke-linecap="round" stroke-linejoin="miter-clip" stroke-miterlimit="3.0" stroke-opacity="0.49803922" stroke-width="1.0"/>
    <path d="M-70.75 -5.85 L-70.75 -6.4 -70.55 -8.1 -70.0 -9.5 -69.55 -10.25 -69.05 -10.85 -69.0 -10.9 -68.9 -10.95 -68.2 -11.9 -67.8 -13.1 -67.5 -13.35 -67.25 -13.7 -66.75 -14.25 -66.05 -14.55 -64.2 -16.45 Q-63.2 -17.3 -62.0 -17.5 L-61.05 -17.55 -60.1 -17.65 -59.75 -17.75 -59.45 -17.8 -58.2 -18.0 -56.9 -18.1 -56.4 -18.0 -55.95 -18.0 -55.45 -18.0 -54.95 -18.1 -54.45 -18.1 -53.95 -18.15 -53.7 -18.15 -53.45 -18.1 -53.25 -18.05 -53.0 -18.0 -52.45 -18.4 -51.7 -18.55 -51.55 -18.55 -51.35 -18.55 -51.25 -18.55 -51.15 -18.55 -51.0 -18.55 -50.85 -18.55 -50.75 -18.55 -50.7 -18.45 -50.4 -18.25 -50.2 -17.9 -50.1 -17.8 -50.05 -17.65 -50.1 -17.1 -50.1 -16.65 -50.05 -15.7 -50.0 -14.8 -50.0 -14.65 -49.95 -14.55 -49.9 -13.75 -49.9 -12.95 -49.9 -12.65 -49.9 -12.4 -49.9 -12.1 -49.95 -11.75 -49.95 -11.45 -49.9 -11.2 -49.9 -11.05 -49.85 -10.9 -49.8 -10.5 -49.8 -10.0 -49.8 -9.5 -50.0 -9.15 -50.4 -8.9 Q-50.6 -8.75 -50.75 -8.75 L-51.2 -8.9 -51.6 -9.0 -52.0 -9.2 -52.45 -9.25 -52.8 -9.2 -53.15 -8.95 -53.4 -9.0 -53.6 -9.0 -54.0 -9.0 -54.45 -8.9 -54.85 -8.75 -55.2 -8.75 -55.6 -8.8 -56.0 -9.05 -56.85 -8.5 -57.7 -7.85 -57.95 -7.7 -58.2 -7.55 -59.0 -6.9 Q-59.45 -6.6 -59.85 -6.35 L-60.2 -5.2 -60.35 -3.9 -60.35 -3.7 -60.35 -3.55 -60.1 -1.95 -59.6 -0.5 -58.85 -0.3 -58.25 0.2 -57.9 0.45 -57.6 0.7 -57.25 0.65 -56.9 0.65 -56.25 0.7 -55.6 0.75 -55.0 0.9 -54.4 0.95 -53.7 0.85 -53.05 0.5 -52.85 0.6 -52.7 0.65 -52.6 0.65 -52.5 0.65 -52.1 0.65 -51.65 0.45 -51.2 0.4 -50.75 0.4 Q-50.35 0.4 -50.05 0.65 -49.75 0.9 -49.65 1.55 L-49.55 1.7 -49.55 1.9 -49.5 2.0 -49.5 2.2 -49.55 2.55 -49.65 3.0 -49.8 3.4 -49.85 3.8 -49.8 4.15 -49.6 4.5 -49.4 4.95 -49.4 5.5 -49.45 6.0 -49.55 6.55 -49.65 7.1 -49.7 7.65 -49.65 8.1 -49.5 8.5 -49.55 8.8 -49.55 9.2 -49.75 10.1 Q-49.85 10.55 -50.3 10.75 L-50.45 10.75 -50.6 10.75 Q-50.7 10.65 -50.75 10.65 L-50.9 10.65 -51.45 10.75 -51.95 10.85 -52.5 10.9 -53.0 10.95 -53.3 10.95 -53.6 10.85 -53.9 10.75 -54.2 10.5 -55.25 10.85 -56.4 10.95 -57.65 10.85 -58.8 10.5 -59.4 10.75 -60.1 10.85 -60.25 10.85 -60.4 10.85 -60.9 10.8 -61.4 10.55 -61.6 10.6 -61.75 10.6 -62.95 10.3 -63.95 9.5 -64.75 8.9 Q-65.15 8.6 -65.7 8.45 L-66.55 7.85 -67.1 6.8 -67.15 6.8 -67.2 6.75 -67.7 5.8 -68.45 5.15 Q-69.35 3.85 -69.85 2.35 -70.35 0.9 -70.4 -0.75 L-70.85 -1.65 -71.0 -2.75 -70.95 -3.45 -70.85 -4.15 -70.8 -4.7 -70.8 -5.3 -70.75 -5.85" fill="#ffffff" fill-rule="evenodd" stroke="none"/>
    <path d="M-45.95 -12.85 L-45.75 -12.8 -45.5 -12.75 -45.35 -12.6 -45.15 -12.55 -44.9 -12.65 Q-44.75 -12.7 -44.7 -12.8 L-44.6 -12.85 -44.55 -12.9 -44.4 -13.0 -44.25 -13.05 -43.45 -13.1 -42.6 -13.1 -41.25 -13.0 Q-40.65 -12.85 -40.15 -12.5 L-39.6 -12.9 -38.95 -13.15 -38.8 -13.2 -38.65 -13.25 -38.65 -13.15 -38.7 -13.1 -38.75 -13.0 -38.75 -12.9 -38.4 -12.95 -38.0 -13.05 -37.5 -13.2 -37.0 -13.25 -36.7 -13.25 -36.45 -13.15 -36.2 -12.9 -35.95 -12.8 -35.65 -12.9 -35.3 -13.05 -34.95 -13.15 -34.65 -13.2 -34.35 -13.2 -34.05 -13.2 -33.85 -13.15 -33.6 -13.15 -32.05 -12.85 Q-31.25 -12.6 -30.95 -11.8 L-30.85 -11.8 -30.8 -11.8 -30.55 -11.85 -30.35 -11.95 -30.25 -12.05 -30.1 -12.1 Q-29.45 -12.05 -29.05 -11.65 L-28.35 -10.8 -28.3 -10.75 -28.3 -10.7 -27.75 -10.0 -27.0 -9.55 -26.8 -9.1 -26.45 -8.6 -26.05 -8.0 -25.85 -7.35 -25.95 -7.0 -26.25 -6.6 -26.25 -6.5 -26.1 -6.2 -25.85 -6.1 -25.8 -6.1 -25.6 -6.0 -25.45 -5.85 -25.25 -5.15 -25.2 -4.45 -25.4 -3.1 -25.8 -1.8 -25.9 -1.8 -26.0 -1.75 -26.2 -1.55 -26.35 -1.25 -26.35 -1.15 -26.3 -1.05 -26.1 -0.75 -26.1 -0.5 -26.2 -0.05 -26.5 0.35 -26.55 0.45 -26.6 0.5 -26.9 0.85 -27.1 1.25 -27.9 1.75 -28.75 2.1 -28.9 2.15 -29.0 2.2 -29.35 2.3 -29.7 2.45 -29.8 2.5 -29.8 2.6 -29.8 2.7 -29.8 2.8 -29.8 2.85 -29.25 3.35 -28.6 3.5 -28.0 3.6 -27.5 3.95 -26.8 3.45 -25.95 3.25 -25.65 3.3 -25.35 3.35 -25.15 3.8 -25.1 4.3 -25.1 4.5 -25.15 4.65 -25.15 5.0 -25.2 5.35 -25.4 5.65 -25.4 5.95 -25.4 6.35 -25.25 6.7 -25.15 7.1 -25.15 7.45 -25.2 7.8 -25.4 8.2 -25.5 8.3 -25.65 8.35 -25.85 8.45 -25.9 8.65 -25.9 8.7 -25.85 8.8 -25.4 9.3 Q-25.25 9.6 -25.25 9.95 L-25.25 10.25 -25.35 10.45 Q-25.65 10.8 -26.1 10.9 L-27.1 11.05 -27.35 11.05 -27.55 11.0 -28.4 10.9 -29.15 10.75 -29.45 10.55 -29.75 10.5 -29.95 10.55 -30.1 10.65 -30.55 10.85 -31.1 10.85 -31.4 10.85 -31.7 10.8 -32.4 10.55 -33.05 10.25 Q-33.15 10.15 -33.3 10.1 L-33.55 9.95 -33.65 9.8 -33.8 9.65 -34.4 9.05 Q-34.75 8.75 -35.25 8.7 L-35.45 8.5 -35.65 8.25 -35.7 8.25 -35.75 8.2 -36.5 7.45 Q-36.9 7.15 -37.4 6.95 L-37.75 7.35 -37.85 7.85 -37.95 8.15 -38.05 8.5 -37.85 8.95 -37.75 9.55 -37.75 9.65 -37.8 9.8 -37.8 9.95 -37.85 10.1 -38.1 10.5 -38.55 10.8 -38.6 10.8 -38.75 10.85 -38.8 10.85 -38.95 10.85 -39.0 10.85 -39.85 10.75 Q-40.25 10.7 -40.55 10.35 L-41.3 10.55 -42.1 10.65 -42.9 10.55 -43.6 10.15 -43.75 10.15 -44.0 10.25 -44.2 10.5 -44.4 10.7 -44.65 10.8 -44.75 10.8 -44.85 10.8 -44.95 10.8 -45.05 10.8 -45.25 10.8 -45.4 10.8 -46.55 10.55 Q-47.1 10.4 -47.3 9.75 L-47.4 9.25 -47.45 8.85 -47.35 8.0 -47.2 7.2 -47.05 6.35 -46.95 5.45 -46.95 5.1 -47.05 4.7 -47.15 4.35 -47.35 3.95 -47.4 3.75 -47.4 3.55 -47.3 3.1 -47.1 2.7 -47.05 2.5 -46.9 2.3 -46.85 2.1 -46.85 1.9 -46.85 1.75 -46.85 1.65 -47.05 1.4 -47.25 1.2 -47.3 0.65 -47.3 0.15 -47.3 -0.35 -47.3 -0.85 -47.2 -2.35 -46.7 -3.7 -46.7 -4.05 -46.85 -4.25 -46.9 -4.3 -46.95 -4.35 -47.1 -4.5 -47.2 -4.7 -47.2 -4.8 -47.15 -5.0 -47.15 -5.1 -47.15 -5.25 -47.15 -5.55 -47.2 -5.8 -47.2 -5.95 -47.2 -6.05 -47.2 -6.55 -47.25 -6.9 -47.1 -7.9 -46.65 -8.6 -46.65 -8.75 -46.75 -9.1 -47.05 -9.35 -47.15 -9.45 -47.25 -9.5 -47.3 -9.75 -47.3 -10.0 -47.35 -10.5 -47.35 -11.0 -47.35 -11.3 -47.3 -11.55 -47.25 -11.85 -47.15 -12.1 -47.1 -12.15 -47.1 -12.2 -46.55 -12.65 -45.95 -12.85 M-36.55 -7.1 L-37.2 -6.9 -37.8 -6.45 -38.0 -6.3 -38.05 -6.1 -38.05 -6.0 -38.0 -5.9 -37.95 -5.8 -37.95 -5.7 -37.85 -5.6 -37.8 -5.45 -37.8 -4.95 -37.8 -4.4 -37.85 -3.45 -38.15 -2.5 -38.05 -2.35 -38.0 -2.1 -37.7 -1.25 -37.6 -0.4 -37.6 -0.25 -37.65 -0.1 -37.65 0.1 -37.7 0.25 -37.7 0.3 -37.7 0.45 -37.5 0.8 -37.05 1.1 -36.95 1.1 Q-36.8 1.15 -36.65 1.3 L-36.4 1.45 -36.2 1.25 -36.0 1.0 -35.8 0.85 -35.65 0.75 -35.0 0.05 Q-34.7 -0.3 -34.7 -0.85 L-34.7 -0.9 -34.75 -1.0 -34.75 -1.05 -34.6 -1.5 -34.5 -1.9 -34.5 -1.95 -34.4 -2.4 -34.25 -2.9 -34.45 -3.6 -34.55 -4.45 -34.75 -5.75 Q-34.9 -6.4 -35.5 -6.8 L-35.5 -6.85 -35.5 -6.9 -35.55 -6.95 -35.55 -7.05 -35.9 -7.05 -36.25 -7.1 -36.4 -7.1 -36.55 -7.1" fill="#ffffff" fill-rule="evenodd" stroke="none"/>
    <path d="M-22.25 -9.55 L-21.95 -9.65 -21.85 -9.65 -21.6 -9.4 -21.35 -9.3 -21.25 -9.35 -21.1 -9.35 -20.95 -9.35 -20.8 -9.4 -20.6 -9.35 -20.45 -9.25 -19.7 -9.65 -18.8 -9.75 -18.6 -9.75 -18.45 -9.75 -17.4 -9.55 -16.5 -9.25 -15.8 -9.5 -15.05 -9.55 -14.85 -9.55 -14.6 -9.55 -14.4 -9.5 -14.2 -9.45 -14.0 -8.7 -13.9 -7.85 Q-13.9 -7.3 -14.05 -6.85 L-14.45 -5.95 -13.9 -5.3 -13.75 -4.45 -13.75 -4.05 -13.8 -3.7 -13.85 -3.5 -13.85 -3.3 -13.95 -2.8 -14.0 -2.25 -14.0 -2.05 -13.95 -1.9 -13.9 -1.65 -13.85 -1.55 -13.85 -1.35 -13.85 -1.2 -13.85 -0.8 -13.85 -0.4 -13.95 0.4 -14.45 1.15 -14.1 1.9 -13.9 2.7 -13.9 2.75 -13.85 2.8 -13.35 4.3 Q-13.0 5.0 -11.75 5.0 L-11.65 5.0 -11.0 4.45 -10.9 3.75 -10.9 3.2 -10.7 2.7 -10.85 1.3 -10.95 -0.05 -10.95 -0.5 -10.95 -0.85 -10.9 -2.2 -10.65 -3.6 -10.9 -4.05 -10.95 -4.55 -10.9 -5.0 -10.85 -5.45 -10.75 -5.95 -10.7 -6.35 -10.75 -6.85 -11.0 -7.25 -10.9 -7.7 -10.9 -8.2 -10.75 -8.95 -10.2 -9.55 -10.05 -9.6 -9.85 -9.65 -9.7 -9.7 -9.5 -9.75 -9.05 -9.65 -8.6 -9.55 -8.15 -9.35 -7.75 -9.25 Q-7.5 -9.25 -7.3 -9.4 L-6.95 -9.8 -6.4 -9.75 -5.9 -9.7 -5.8 -9.7 -4.8 -9.6 -3.85 -9.4 -3.6 -9.6 -3.25 -9.75 -3.15 -9.8 -3.0 -9.8 -2.95 -9.85 -2.9 -9.85 -2.8 -9.85 -2.75 -9.85 -2.65 -9.85 -1.9 -9.7 -1.5 -9.2 -1.45 -8.7 -1.45 -8.15 -1.45 -8.0 -1.45 -7.9 -1.55 -6.9 -1.85 -5.95 -1.5 -4.65 -1.45 -3.25 -1.45 -3.0 -1.45 -2.8 -1.45 -2.55 -1.4 -2.3 -1.4 -2.0 -1.4 -1.75 -1.6 -1.45 -1.7 -1.1 -1.65 -1.0 -1.6 -0.85 -1.55 -0.7 -1.4 -0.55 -1.4 -0.4 -1.4 -0.35 -1.4 -0.2 -1.4 0.2 -1.35 0.65 -1.35 1.05 -1.3 1.5 -1.45 2.4 -2.15 3.25 -2.15 3.3 -2.05 3.5 -1.85 3.65 -1.7 3.7 -1.65 3.7 -1.55 4.55 -1.45 5.4 -1.4 5.65 -1.4 5.95 -1.45 6.45 -1.5 6.95 -1.2 7.5 -0.85 7.95 -0.3 8.9 -0.05 9.95 -0.05 10.15 -0.1 10.45 -1.25 10.8 -2.55 10.9 -2.9 10.9 -3.25 10.9 -3.4 10.9 -3.6 10.9 -4.1 10.85 -4.6 10.85 -5.35 10.9 -6.05 11.0 -6.4 10.9 -6.7 10.85 -6.9 10.8 -7.05 10.8 -7.2 10.8 -7.3 10.8 -7.4 10.8 -7.5 10.8 -7.65 10.85 -7.85 10.85 -8.6 10.75 -9.2 10.2 -9.4 10.15 -9.65 10.1 -9.8 10.05 -9.9 10.05 -10.1 10.05 -10.25 10.1 -10.6 10.15 -10.9 10.2 -11.1 10.2 -11.3 10.25 Q-11.85 10.7 -12.55 10.8 L-13.95 11.0 -14.35 11.0 -14.7 10.95 -15.85 10.8 -16.9 10.65 -17.25 10.55 -17.6 10.5 -18.2 10.05 -18.95 9.8 -19.05 9.8 -19.85 9.5 -20.45 8.85 -20.85 8.4 -21.1 7.85 -21.5 7.05 -22.15 6.5 -22.25 6.05 -22.35 5.65 -22.6 4.85 -22.7 3.95 -22.65 3.45 -22.5 2.95 -22.75 1.75 -22.85 0.5 -22.85 0.2 -22.85 -0.05 -22.75 -1.2 -22.55 -2.3 -22.75 -3.25 -22.85 -4.15 -22.75 -5.0 -22.4 -5.85 -22.7 -6.8 -22.8 -7.85 -22.8 -8.2 -22.75 -8.5 -22.75 -8.8 -22.7 -9.15 -22.65 -9.2 -22.55 -9.3 -22.25 -9.55" fill="#ffffff" fill-rule="evenodd" stroke="none"/>
    <path d="M18.95 -7.85 L19.3 -7.85 19.6 -7.9 19.95 -7.95 20.3 -7.95 20.95 -8.0 21.7 -8.05 21.95 -8.05 22.2 -8.05 22.3 -8.0 22.35 -7.95 22.4 -7.9 22.45 -7.8 22.55 -7.7 22.6 -7.55 22.6 -7.45 22.6 -7.2 22.6 -7.0 22.65 -6.8 22.75 -6.6 22.8 -6.15 22.85 -5.75 22.75 -5.3 22.45 -4.95 22.55 -4.55 22.65 -4.15 22.65 -4.0 22.7 -3.85 22.8 -3.3 22.85 -2.7 22.75 -2.05 22.4 -1.4 22.6 -0.95 22.7 -0.55 22.75 -0.1 22.8 0.35 22.75 1.0 22.7 1.7 22.6 2.4 22.6 3.1 22.6 3.15 22.6 3.25 22.6 3.3 22.6 3.4 22.45 3.5 22.35 3.55 22.3 3.65 22.3 3.7 22.35 3.9 22.5 4.1 22.6 4.3 22.65 4.5 22.7 4.8 22.75 5.1 22.75 5.3 22.8 5.5 22.85 5.85 22.85 6.2 22.75 6.95 22.35 7.6 22.65 8.3 22.85 9.05 22.85 9.15 22.85 9.35 22.75 10.0 22.4 10.65 21.85 10.9 21.2 10.9 21.0 10.9 20.85 10.9 20.65 10.9 20.45 10.85 Q20.25 10.7 20.1 10.7 L19.7 10.6 19.2 10.7 18.75 10.8 18.25 10.95 17.75 11.0 17.2 10.9 16.7 10.5 16.45 10.2 16.05 9.95 16.0 9.95 16.0 9.9 15.4 9.4 Q15.15 9.15 15.15 8.75 14.35 8.45 13.9 8.0 L13.1 7.05 12.25 6.15 Q11.85 5.65 11.05 5.45 L10.55 4.95 9.8 4.75 9.5 5.45 9.45 6.25 9.45 6.3 9.45 6.4 9.45 6.45 9.45 6.5 9.4 7.2 9.15 7.9 9.5 8.55 9.65 9.2 9.6 9.55 9.45 9.85 9.55 10.05 9.6 10.3 9.55 10.55 9.35 10.8 9.15 10.8 9.0 10.85 8.8 10.9 8.55 10.9 8.15 10.95 7.75 10.95 7.05 10.9 6.4 10.6 5.9 10.85 5.35 10.9 5.1 10.9 4.85 10.9 4.6 10.9 4.35 10.9 4.1 10.9 3.8 10.9 3.55 10.95 3.35 10.95 3.1 11.0 2.85 11.0 1.9 10.9 1.05 10.55 0.9 10.0 0.85 9.4 0.85 9.25 0.85 9.15 1.0 8.55 1.25 8.0 1.05 7.3 0.9 6.55 0.85 6.15 0.85 5.8 0.95 4.95 1.25 4.1 0.9 3.4 0.75 2.65 0.75 2.5 0.75 2.35 0.85 1.35 1.1 0.55 1.05 0.4 1.05 0.3 0.85 -0.4 0.75 -1.05 0.8 -1.2 0.8 -1.4 0.9 -1.75 1.1 -2.15 0.8 -2.75 0.7 -3.4 0.75 -3.9 0.85 -4.35 0.9 -4.85 0.9 -5.35 0.8 -6.1 0.35 -6.8 0.45 -7.1 0.65 -7.4 0.75 -7.5 0.85 -7.55 1.35 -7.75 1.85 -7.9 2.05 -7.9 2.3 -7.9 3.15 -7.8 3.9 -7.55 4.5 -7.9 5.2 -7.95 5.35 -7.95 5.6 -7.95 5.8 -7.95 5.95 -7.9 6.2 -7.9 6.35 -7.9 6.5 -7.75 6.65 -7.7 6.8 -7.6 6.9 -7.6 7.2 -7.65 7.5 -7.75 7.85 -7.9 8.2 -7.95 8.4 -7.9 8.6 -7.8 8.8 -7.75 8.95 -7.6 10.0 -6.85 10.45 -5.8 10.45 -5.75 10.65 -5.65 10.9 -5.55 11.9 -4.9 12.35 -4.0 12.95 -3.7 13.45 -3.35 13.55 -3.3 13.6 -3.25 14.0 -2.95 14.45 -2.7 14.8 -3.2 14.85 -3.7 14.85 -4.0 14.8 -4.3 14.8 -4.35 14.75 -4.7 14.7 -5.05 14.75 -5.4 14.9 -5.7 Q14.7 -6.0 14.65 -6.25 L14.6 -6.85 14.6 -7.05 14.55 -7.25 14.55 -7.4 14.5 -7.55 15.6 -7.95 16.85 -8.1 17.85 -8.0 18.85 -7.85 18.95 -7.85" fill="#ffffff" fill-rule="evenodd" stroke="none"/>
    <path d="M39.65 -12.15 L40.1 -12.15 40.6 -12.15 41.1 -12.25 41.6 -12.25 42.1 -12.3 42.35 -12.3 42.6 -12.25 42.8 -12.2 43.05 -12.15 Q43.25 -12.4 43.6 -12.5 L44.35 -12.6 44.5 -12.6 44.7 -12.6 44.8 -12.6 44.9 -12.6 45.05 -12.6 45.2 -12.6 45.3 -12.6 45.35 -12.55 45.65 -12.35 45.85 -12.1 45.95 -12.0 46.0 -11.9 45.95 -11.45 45.95 -11.1 46.0 -10.35 46.05 -9.6 46.05 -9.5 46.1 -9.4 46.15 -8.75 46.15 -8.1 46.15 -7.9 46.15 -7.7 46.15 -7.45 46.1 -7.2 46.1 -6.95 46.15 -6.75 46.15 -6.6 46.2 -6.5 46.25 -6.15 46.25 -5.75 46.25 -5.35 46.05 -5.05 45.65 -4.85 45.3 -4.75 44.85 -4.85 44.45 -4.95 44.05 -5.1 43.6 -5.15 43.25 -5.1 42.9 -4.9 42.65 -4.95 42.45 -4.95 42.05 -4.95 41.6 -4.85 41.2 -4.75 40.85 -4.75 40.45 -4.8 Q40.25 -4.85 40.05 -5.0 L39.2 -4.6 38.35 -4.05 38.1 -3.95 37.85 -3.8 37.05 -3.3 36.2 -2.85 35.85 -1.9 35.7 -0.9 35.7 -0.75 35.7 -0.6 35.95 0.7 36.45 1.85 37.2 2.0 37.8 2.4 38.15 2.6 38.45 2.8 38.8 2.75 39.15 2.75 39.8 2.8 40.45 2.85 41.05 2.95 41.65 3.0 42.35 2.9 43.0 2.65 43.2 2.7 43.35 2.75 43.45 2.75 43.55 2.75 43.95 2.75 44.4 2.6 44.85 2.55 45.3 2.55 46.0 2.75 Q46.3 2.95 46.4 3.5 L46.5 3.6 46.5 3.75 46.55 3.85 46.55 4.0 46.5 4.3 46.4 4.65 46.25 5.0 46.2 5.25 46.25 5.55 46.45 5.85 46.65 6.2 46.65 6.65 46.6 7.05 46.5 7.5 46.4 7.95 46.35 8.35 46.4 8.7 46.55 9.05 46.5 9.3 46.5 9.6 46.3 10.35 45.75 10.85 45.6 10.85 45.45 10.85 45.3 10.8 45.15 10.8 44.6 10.85 44.1 10.95 43.55 11.0 43.05 11.05 42.75 11.05 42.45 10.95 42.15 10.85 41.85 10.65 40.8 10.95 39.65 11.05 38.4 10.95 37.25 10.65 36.65 10.85 35.95 10.95 35.8 10.95 35.65 10.95 35.15 10.9 34.65 10.7 34.45 10.75 34.3 10.75 33.1 10.5 32.1 9.85 31.3 9.35 30.35 9.0 Q29.8 8.85 29.5 8.5 L28.95 7.7 28.9 7.7 28.85 7.65 28.35 6.9 Q28.05 6.55 27.6 6.35 L26.2 4.15 Q25.7 2.95 25.65 1.65 L25.2 0.95 Q25.05 0.5 25.05 0.05 L25.1 -0.55 25.2 -1.1 25.25 -1.5 25.25 -2.0 25.3 -2.45 25.3 -2.9 25.5 -4.25 26.05 -5.35 26.5 -5.95 27.0 -6.45 27.05 -6.5 27.15 -6.55 27.85 -7.3 28.25 -8.25 28.55 -8.45 28.8 -8.7 29.3 -9.15 30.0 -9.4 Q30.85 -10.25 31.85 -10.95 32.85 -11.6 34.05 -11.75 L35.0 -11.8 35.95 -11.9 36.3 -11.95 36.6 -12.0 37.85 -12.15 39.15 -12.25 39.65 -12.15" fill="#ffffff" fill-rule="evenodd" stroke="none"/>
    <path d="M50.25 -16.4 L50.55 -16.4 51.15 -16.3 51.75 -16.05 Q52.05 -16.3 52.5 -16.4 L53.3 -16.55 54.2 -16.35 54.9 -16.05 55.7 -16.3 56.5 -16.4 56.65 -16.4 56.8 -16.4 56.95 -16.35 57.1 -16.35 57.5 -15.55 57.6 -14.65 57.6 -14.25 57.55 -13.8 57.35 -13.4 57.45 -13.05 57.45 -13.0 57.5 -12.9 57.65 -12.6 57.65 -12.2 57.75 -11.9 57.75 -11.55 57.75 -11.4 57.75 -11.2 57.7 -11.05 57.7 -10.9 57.65 -10.55 57.6 -10.25 57.75 -9.7 Q57.9 -9.5 58.35 -9.35 L58.85 -9.25 59.4 -9.25 60.2 -9.35 60.75 -9.9 60.8 -11.0 60.85 -12.05 60.85 -12.6 60.85 -13.15 60.8 -14.5 60.75 -15.85 61.2 -16.35 61.8 -16.7 61.85 -16.7 61.95 -16.75 62.05 -16.75 62.5 -16.65 62.85 -16.4 64.45 -16.55 66.0 -16.6 66.6 -16.6 67.2 -16.55 68.45 -16.55 69.6 -16.5 69.8 -16.25 69.85 -16.05 69.85 -16.0 69.9 -15.95 69.9 -15.85 69.95 -15.15 70.0 -14.45 70.05 -13.7 70.05 -13.0 70.05 -12.3 69.9 -11.65 70.15 -11.0 70.25 -10.35 70.2 -9.85 70.1 -9.3 70.0 -8.7 69.95 -8.1 70.05 -7.55 70.35 -6.9 70.4 -6.6 70.45 -6.25 70.35 -5.7 70.2 -5.1 70.1 -4.75 70.0 -4.45 69.95 -4.25 69.9 -3.95 70.05 -3.4 70.4 -2.9 70.3 -2.1 70.25 -1.25 70.3 -0.4 70.35 0.4 70.4 1.35 70.45 2.3 70.35 3.6 69.95 4.95 70.35 6.05 70.4 7.2 70.4 7.7 70.4 8.3 70.35 8.9 70.35 9.45 70.35 9.75 70.35 10.05 70.25 10.2 70.2 10.4 70.0 10.65 69.75 10.9 68.2 10.75 66.65 10.65 65.1 10.75 63.5 10.85 62.75 10.85 61.95 10.9 61.9 10.9 61.85 10.85 61.2 10.3 60.75 9.5 60.75 8.95 60.7 8.45 60.7 8.2 60.7 7.95 60.65 7.15 60.55 6.3 60.65 4.8 60.7 3.25 60.65 1.75 60.45 0.35 60.05 0.0 59.6 -0.1 59.4 0.0 59.3 0.0 59.05 0.05 58.8 0.1 58.5 0.15 58.3 0.2 Q58.0 0.4 57.95 0.75 L57.9 1.35 57.9 1.5 57.8 2.05 57.55 2.6 57.8 3.6 57.9 4.7 57.9 5.0 57.9 5.25 57.75 6.15 57.5 7.1 57.8 8.05 57.9 9.1 57.85 9.8 57.6 10.5 57.2 10.8 56.8 10.85 56.45 10.8 56.15 10.75 55.8 10.65 55.45 10.6 55.05 10.65 54.7 10.9 54.35 10.8 54.05 10.75 53.75 10.65 53.4 10.65 52.7 10.75 52.0 10.8 51.3 10.9 50.55 10.95 49.8 10.9 49.0 10.55 48.6 8.9 Q48.45 8.05 48.45 7.2 L48.5 5.85 48.65 4.55 48.65 4.1 48.7 3.6 48.75 2.75 48.75 1.9 48.75 1.65 48.75 1.5 48.75 1.3 48.75 1.15 48.55 0.4 48.5 -0.3 48.5 -0.75 48.55 -1.25 48.6 -1.45 48.65 -1.7 48.7 -2.4 48.7 -3.1 48.7 -3.7 48.55 -4.3 48.5 -4.5 48.45 -4.75 48.4 -5.0 48.4 -5.15 48.45 -5.8 48.6 -6.45 48.7 -7.05 48.75 -7.7 48.75 -8.0 48.65 -8.3 48.55 -8.6 48.4 -8.9 48.35 -9.45 48.3 -10.05 48.3 -10.25 48.25 -10.4 48.25 -10.8 48.25 -11.15 48.25 -11.75 48.4 -12.3 48.15 -13.05 48.1 -13.95 48.15 -14.45 48.15 -15.0 48.2 -15.2 48.2 -15.5 48.25 -15.75 48.25 -15.95 49.05 -16.35 49.95 -16.5 50.25 -16.4" fill="#ffffff" fill-rule="evenodd" stroke="none"/>
    <path d="M1.0 -2.5 L5.9 -2.4 8.25 1.25 13.25 2.5 M23.0 -3.75 L19.4 -2.25 M29.4 8.1 L32.5 5.35 29.0 -1.4 32.75 -5.4 M60.9 -11.5 L64.25 -10.0 67.65 -13.75 M51.65 -6.25 L54.0 -2.65 58.5 -5.5 M64.25 -10.0 L62.75 -3.9 65.75 1.0 M41.5 -12.4 L40.25 -9.15 M58.5 5.85 L53.9 3.6 54.0 -2.65 M8.25 1.25 L4.75 6.0 M39.75 7.35 L32.5 5.35 M-54.5 -12.75 L-60.85 -12.65 -64.1 -8.9 -64.5 -4.75 M-42.5 -12.75 L-41.0 -9.4 -31.75 -9.4 M-41.0 -9.4 L-43.0 -3.5 M-62.6 -17.9 L-60.85 -12.65 M-22.6 -5.25 L-20.0 -0.75 -16.75 -1.65 M-33.35 10.1 L-31.75 6.35 M-1.0 5.35 L-4.5 4.2 -6.35 0.85 -4.95 -1.8 M-58.6 10.85 L-56.85 6.75 -60.35 3.6" fill="none" stroke="#000000" stroke-linecap="round" stroke-linejoin="miter-clip" stroke-miterlimit="3.0" stroke-opacity="0.49803922" stroke-width="1.0"/>
  </g>
</svg>
