<?xml version="1.0" encoding="UTF-8" standalone="no"?>
<svg xmlns:ffdec="https://www.free-decompiler.com/flash" xmlns:xlink="http://www.w3.org/1999/xlink" ffdec:objectType="shape" height="69.1px" width="158.95px" xmlns="http://www.w3.org/2000/svg">
  <g transform="matrix(1.0, 0.0, 0.0, 1.0, 75.9, 38.85)">
    <path d="M-11.4 -33.2 L-13.5 -34.85 -10.8 -34.9 -9.9 -37.45 -9.0 -34.9 -6.35 -34.85 -8.45 -33.2 -7.7 -30.6 -9.9 -32.15 -12.15 -30.6 -11.4 -33.2" fill="#ffcc00" fill-rule="evenodd" stroke="none"/>
    <path d="M-11.4 -33.2 L-13.5 -34.85 -10.8 -34.9 -9.9 -37.45 -9.0 -34.9 -6.35 -34.85 -8.45 -33.2 -7.7 -30.6 -9.9 -32.15 -12.15 -30.6 -11.4 -33.2 Z" fill="none" stroke="#000000" stroke-linecap="round" stroke-linejoin="miter-clip" stroke-miterlimit="3.0" stroke-width="1.0"/>
    <path d="M-63.65 -15.95 L-65.75 -17.6 -63.05 -17.65 -62.15 -20.2 -61.25 -17.65 -58.6 -17.6 -60.7 -15.95 -59.95 -13.35 -62.15 -14.9 -64.4 -13.35 -63.65 -15.95" fill="#ffcc00" fill-rule="evenodd" stroke="none"/>
    <path d="M-63.65 -15.95 L-65.75 -17.6 -63.05 -17.65 -62.15 -20.2 -61.25 -17.65 -58.6 -17.6 -60.7 -15.95 -59.95 -13.35 -62.15 -14.9 -64.4 -13.35 -63.65 -15.95 Z" fill="none" stroke="#000000" stroke-linecap="round" stroke-linejoin="miter-clip" stroke-miterlimit="3.0" stroke-width="1.0"/>
    <path d="M-37.85 25.2 L-41.0 22.75 -36.95 22.65 -35.6 18.85 -34.25 22.65 -30.25 22.75 -33.4 25.2 -32.3 29.1 -35.6 26.8 -38.95 29.1 -37.85 25.2" fill="#ffcc00" fill-rule="evenodd" stroke="none"/>
    <path d="M-37.85 25.2 L-41.0 22.75 -36.95 22.65 -35.6 18.85 -34.25 22.65 -30.25 22.75 -33.4 25.2 -32.3 29.1 -35.6 26.8 -38.95 29.1 -37.85 25.2 Z" fill="none" stroke="#000000" stroke-linecap="round" stroke-linejoin="miter-clip" stroke-miterlimit="3.0" stroke-width="1.0"/>
    <path d="M10.9 -21.3 L7.75 -23.75 11.8 -23.85 13.15 -27.65 14.5 -23.85 18.5 -23.75 15.35 -21.3 16.45 -17.4 13.15 -19.7 9.8 -17.4 10.9 -21.3" fill="#ffcc00" fill-rule="evenodd" stroke="none"/>
    <path d="M10.9 -21.3 L7.75 -23.75 11.8 -23.85 13.15 -27.65 14.5 -23.85 18.5 -23.75 15.35 -21.3 16.45 -17.4 13.15 -19.7 9.8 -17.4 10.9 -21.3 Z" fill="none" stroke="#000000" stroke-linecap="round" stroke-linejoin="miter-clip" stroke-miterlimit="3.0" stroke-width="1.0"/>
    <path d="M62.3 14.45 L59.8 12.5 63.05 12.4 64.1 9.35 65.2 12.4 68.4 12.5 65.85 14.45 66.75 17.6 64.1 15.7 61.4 17.6 62.3 14.45" fill="#ffcc00" fill-rule="evenodd" stroke="none"/>
    <path d="M62.3 14.45 L59.8 12.5 63.05 12.4 64.1 9.35 65.2 12.4 68.4 12.5 65.85 14.45 66.75 17.6 64.1 15.7 61.4 17.6 62.3 14.45 Z" fill="none" stroke="#000000" stroke-linecap="round" stroke-linejoin="miter-clip" stroke-miterlimit="3.0" stroke-width="1.0"/>
    <path d="M63.4 -15.55 L60.25 -18.0 64.3 -18.1 65.65 -21.9 67.0 -18.1 71.0 -18.0 67.85 -15.55 68.95 -11.65 65.65 -13.95 62.3 -11.65 63.4 -15.55" fill="#ffcc00" fill-rule="evenodd" stroke="none"/>
    <path d="M63.4 -15.55 L60.25 -18.0 64.3 -18.1 65.65 -21.9 67.0 -18.1 71.0 -18.0 67.85 -15.55 68.95 -11.65 65.65 -13.95 62.3 -11.65 63.4 -15.55 Z" fill="none" stroke="#000000" stroke-linecap="round" stroke-linejoin="miter-clip" stroke-miterlimit="3.0" stroke-width="1.0"/>
    <path d="M76.6 -4.45 L74.5 -6.1 77.2 -6.15 78.1 -8.7 79.0 -6.15 81.65 -6.1 79.55 -4.45 80.3 -1.85 78.1 -3.4 75.85 -1.85 76.6 -4.45" fill="#ffcc00" fill-rule="evenodd" stroke="none"/>
    <path d="M76.6 -4.45 L74.5 -6.1 77.2 -6.15 78.1 -8.7 79.0 -6.15 81.65 -6.1 79.55 -4.45 80.3 -1.85 78.1 -3.4 75.85 -1.85 76.6 -4.45 Z" fill="none" stroke="#000000" stroke-linecap="round" stroke-linejoin="miter-clip" stroke-miterlimit="3.0" stroke-width="1.0"/>
    <path d="M-71.35 -3.3 L-74.5 -5.75 -70.45 -5.85 -69.1 -9.65 -67.75 -5.85 -63.75 -5.75 -66.9 -3.3 -65.8 0.6 -69.1 -1.7 -72.45 0.6 -71.35 -3.3" fill="#ffcc00" fill-rule="evenodd" stroke="none"/>
    <path d="M-71.35 -3.3 L-74.5 -5.75 -70.45 -5.85 -69.1 -9.65 -67.75 -5.85 -63.75 -5.75 -66.9 -3.3 -65.8 0.6 -69.1 -1.7 -72.45 0.6 -71.35 -3.3 Z" fill="none" stroke="#000000" stroke-linecap="round" stroke-linejoin="miter-clip" stroke-miterlimit="3.0" stroke-width="1.0"/>
    <path d="M-19.2 21.2 L-21.7 19.25 -18.45 19.15 -17.4 16.1 -16.3 19.15 -13.1 19.25 -15.65 21.2 -14.75 24.35 -17.4 22.45 -20.1 24.35 -19.2 21.2" fill="#ffcc00" fill-rule="evenodd" stroke="none"/>
    <path d="M-19.2 21.2 L-21.7 19.25 -18.45 19.15 -17.4 16.1 -16.3 19.15 -13.1 19.25 -15.65 21.2 -14.75 24.35 -17.4 22.45 -20.1 24.35 -19.2 21.2 Z" fill="none" stroke="#000000" stroke-linecap="round" stroke-linejoin="miter-clip" stroke-miterlimit="3.0" stroke-width="1.0"/>
    <path d="M9.65 -8.4 L9.45 -10.95 4.6 -10.8 4.65 -8.4 4.75 0.0 -0.05 -8.4 -1.1 -10.2 -7.1 -10.35 -7.1 -8.4 -7.05 7.05 -0.45 6.95 -0.3 -0.05 6.55 7.6 10.65 7.3 9.65 -8.4 M19.3 -8.4 L19.3 -7.9 19.3 -4.65 19.4 -2.0 19.5 -0.3 Q19.65 0.8 20.1 1.25 20.6 1.7 21.2 1.6 L22.0 1.3 22.4 0.55 22.6 -0.9 22.6 -3.05 22.45 -6.1 22.35 -8.4 22.3 -9.35 22.1 -12.1 31.75 -12.3 31.95 -8.4 32.05 -6.6 32.25 -1.35 32.25 2.9 31.85 5.35 Q31.5 6.35 30.6 7.05 29.7 7.75 27.95 8.1 L23.55 8.4 17.7 7.65 Q15.45 7.0 14.45 5.65 13.4 4.3 13.35 2.15 L13.25 -2.25 13.35 -6.85 13.4 -8.4 13.45 -11.3 19.3 -11.35 19.3 -8.4 M3.6 -4.2 L3.4 -12.05 10.85 -12.4 11.6 8.4 5.85 8.9 0.9 2.8 1.0 8.25 -8.2 8.2 -8.75 -11.6 0.15 -11.6 3.6 -4.2 M18.15 -8.4 L18.15 -10.2 14.9 -10.1 14.85 -8.4 14.75 -6.1 14.6 -1.85 14.6 2.35 Q14.7 4.2 15.8 5.25 16.9 6.3 18.9 6.7 L23.8 7.1 27.55 6.8 Q29.0 6.45 29.7 5.85 30.45 5.25 30.7 4.3 L31.0 2.25 31.0 -1.5 30.7 -6.05 30.6 -8.4 30.45 -11.0 23.55 -10.8 23.7 -8.4 23.85 -5.55 23.95 -2.85 23.95 -0.95 23.9 0.75 23.25 2.1 Q22.7 2.7 21.3 2.75 20.05 2.85 19.3 2.0 18.55 1.15 18.4 -0.55 L18.25 -2.75 18.15 -6.25 18.15 -8.4 M36.35 -10.75 Q37.85 -11.75 40.1 -12.0 L43.7 -12.15 48.05 -12.15 52.2 -12.05 51.85 -0.9 49.7 -0.95 47.65 -0.9 46.2 -0.6 Q45.6 -0.35 45.6 0.15 45.6 0.75 46.25 1.05 L47.85 1.65 49.55 2.1 Q50.8 2.5 51.5 3.55 52.25 4.55 52.15 6.1 52.1 7.15 51.55 8.05 51.05 8.95 49.65 9.5 48.3 10.1 45.7 10.1 L39.65 10.0 34.4 9.75 34.4 5.7 39.15 5.85 42.15 5.75 Q43.15 5.6 43.2 5.1 43.2 4.65 42.5 4.55 L40.65 4.3 39.35 4.1 37.7 3.7 36.0 2.8 Q35.25 2.2 34.8 1.25 34.25 -0.05 34.0 -1.55 33.75 -3.05 33.85 -4.6 33.9 -6.15 34.3 -7.6 L34.55 -8.4 Q35.15 -9.95 36.35 -10.75 M50.6 -8.4 L50.55 -10.75 46.95 -10.85 43.25 -10.85 39.9 -10.7 Q37.7 -10.5 36.45 -8.75 L36.25 -8.4 Q35.25 -6.6 35.3 -3.2 35.4 -0.5 36.3 1.05 37.2 2.55 39.1 3.0 L41.15 3.4 43.15 3.7 44.3 4.1 Q44.75 4.4 44.75 5.15 44.75 5.7 44.25 6.0 43.75 6.35 42.95 6.5 L41.2 6.6 39.75 6.6 35.65 6.5 35.7 8.8 39.15 8.9 42.8 8.95 46.3 8.85 49.1 8.3 Q50.05 7.85 50.4 7.2 50.75 6.5 50.75 5.7 50.75 4.45 49.85 3.7 48.95 2.9 47.1 2.4 L45.3 1.75 44.45 0.95 44.2 0.0 Q44.25 -0.9 44.85 -1.45 45.5 -2.0 46.4 -2.05 L47.0 -2.1 48.55 -2.25 50.65 -2.3 50.6 -8.4 M-41.3 -2.2 L-41.4 -0.25 Q-40.8 -0.2 -40.3 -0.55 -39.8 -0.8 -39.8 -1.5 -39.75 -1.85 -40.05 -2.0 L-40.65 -2.2 -41.3 -2.2 M-42.75 -3.65 L-40.7 -3.6 -39.1 -3.2 Q-38.45 -2.85 -38.45 -1.95 -38.4 -0.85 -38.9 -0.25 L-40.35 0.6 -42.7 0.9 -42.75 -3.65 M-48.15 -13.8 L-43.3 -13.75 -38.45 -13.6 Q-36.0 -13.45 -34.5 -12.6 -33.05 -11.75 -32.3 -10.5 -31.7 -9.45 -31.4 -8.4 L-31.3 -7.95 -30.95 -5.55 -30.95 -2.75 Q-31.05 -1.4 -31.45 -0.25 -31.8 0.85 -32.55 1.4 L-31.7 1.9 Q-31.3 2.25 -31.1 2.9 -30.85 3.6 -30.9 4.85 -31.0 6.35 -31.85 7.2 -32.65 8.05 -33.85 8.35 L-36.2 8.75 -43.5 8.85 -51.2 8.55 -52.2 -13.75 -48.15 -13.8 M-32.9 -8.4 L-33.4 -9.55 Q-34.15 -10.95 -35.45 -11.6 -36.7 -12.2 -38.6 -12.3 L-43.85 -12.45 -50.45 -12.4 -50.35 -8.4 -50.0 7.7 -46.8 7.85 -43.2 7.9 -39.6 7.85 -36.5 7.7 Q-34.9 7.55 -34.0 7.0 -33.1 6.45 -32.75 5.7 -32.4 5.0 -32.35 4.2 -32.25 3.1 -32.7 2.35 -33.2 1.65 -34.15 1.4 -33.4 1.2 -32.9 0.5 -32.45 -0.25 -32.3 -1.7 -32.15 -3.2 -32.4 -5.65 L-32.9 -8.4 M-24.35 -12.0 L-22.15 -12.3 -19.4 -12.45 -16.65 -12.45 -14.8 -12.15 Q-13.95 -11.9 -13.3 -11.15 -12.65 -10.45 -12.2 -9.05 L-12.0 -8.4 -11.55 -6.45 -10.85 -3.25 -10.35 0.05 -10.05 2.95 Q-9.9 5.35 -10.65 6.7 -11.35 8.0 -12.65 8.55 -13.95 9.1 -15.55 9.25 L-18.65 9.5 -22.1 9.7 -25.3 9.35 Q-26.75 9.05 -27.7 8.3 -28.7 7.6 -28.95 6.35 L-29.3 3.35 -29.3 -0.45 -29.0 -4.35 -28.4 -7.65 -28.15 -8.4 -27.3 -10.35 -25.95 -11.6 -24.35 -12.0 M-13.15 -8.4 L-14.05 -9.95 Q-14.65 -10.6 -15.4 -10.8 L-17.05 -11.1 -19.45 -11.15 -21.8 -11.0 -23.7 -10.75 -25.15 -10.3 -26.3 -9.15 -26.65 -8.4 -27.2 -6.75 -27.7 -3.85 -27.9 -0.35 -27.85 3.05 -27.5 5.7 Q-27.25 6.95 -26.3 7.6 -25.35 8.25 -24.05 8.4 L-21.25 8.55 -18.45 8.3 -15.75 8.0 Q-14.45 7.8 -13.4 7.25 -12.35 6.7 -11.75 5.55 -11.2 4.35 -11.3 2.3 L-11.65 -1.45 -12.3 -5.1 -13.05 -8.05 -13.15 -8.4 M-18.75 -1.75 L-16.3 -1.65 Q-15.45 -1.45 -15.15 -0.85 -14.8 -0.2 -14.7 1.1 -14.6 2.4 -15.0 2.95 L-15.95 3.7 -17.15 3.8 -18.5 3.75 Q-19.25 3.65 -19.85 3.15 L-20.8 1.55 Q-21.25 -0.2 -20.65 -0.95 -20.05 -1.75 -18.75 -1.75 M-16.6 -0.2 L-17.55 -0.3 -18.8 -0.2 Q-19.3 -0.05 -19.55 0.35 -19.8 0.75 -19.55 1.55 L-18.9 2.6 Q-18.55 2.95 -18.1 2.95 L-17.45 3.0 -16.7 2.95 Q-16.25 2.85 -15.95 2.55 -15.6 2.2 -15.65 1.4 -15.75 0.65 -16.0 0.25 L-16.6 -0.2 M-38.45 4.55 Q-38.4 5.6 -39.55 5.95 L-42.7 6.35 -42.75 3.45 -40.75 3.45 -39.1 3.7 Q-38.45 3.95 -38.45 4.55 M-39.8 4.95 Q-39.75 4.75 -40.05 4.65 L-40.65 4.5 -41.3 4.5 -41.4 5.65 -40.3 5.5 Q-39.8 5.3 -39.8 4.95" fill="#000000" fill-rule="evenodd" stroke="none"/>
    <path d="M4.65 -8.4 L9.65 -8.4 10.65 7.3 6.55 7.6 -0.3 -0.05 -0.45 6.95 -7.05 7.05 -7.1 -8.4 -0.05 -8.4 4.75 0.0 4.65 -8.4 M14.85 -8.4 L18.15 -8.4 18.15 -6.25 18.25 -2.75 18.4 -0.55 Q18.55 1.15 19.3 2.0 20.05 2.85 21.3 2.75 22.7 2.7 23.25 2.1 L23.9 0.75 23.95 -0.95 23.95 -2.85 23.85 -5.55 23.7 -8.4 30.6 -8.4 30.7 -6.05 31.0 -1.5 31.0 2.25 30.7 4.3 Q30.45 5.25 29.7 5.85 29.0 6.45 27.55 6.8 L23.8 7.1 18.9 6.7 Q16.9 6.3 15.8 5.25 14.7 4.2 14.6 2.35 L14.6 -1.85 14.75 -6.1 14.85 -8.4 M50.6 -8.4 L50.65 -2.3 48.55 -2.25 47.0 -2.1 46.4 -2.05 Q45.5 -2.0 44.85 -1.45 44.25 -0.9 44.2 0.0 L44.45 0.95 45.3 1.75 47.1 2.4 Q48.95 2.9 49.85 3.7 50.75 4.45 50.75 5.7 50.75 6.5 50.4 7.2 50.05 7.85 49.1 8.3 L46.3 8.85 42.8 8.95 39.15 8.9 35.7 8.8 35.65 6.5 39.75 6.6 41.2 6.6 42.95 6.5 Q43.75 6.35 44.25 6.0 44.75 5.7 44.75 5.15 44.75 4.4 44.3 4.1 L43.15 3.7 41.15 3.4 39.1 3.0 Q37.2 2.55 36.3 1.05 35.4 -0.5 35.3 -3.2 35.25 -6.6 36.25 -8.4 43.4 -9.3 50.6 -8.4 M-42.75 -3.65 L-42.7 0.9 -40.35 0.6 -38.9 -0.25 Q-38.4 -0.85 -38.45 -1.95 -38.45 -2.85 -39.1 -3.2 L-40.7 -3.6 -42.75 -3.65 M-32.9 -8.4 L-32.4 -5.65 Q-32.15 -3.2 -32.3 -1.7 -32.45 -0.25 -32.9 0.5 -33.4 1.2 -34.15 1.4 -33.2 1.65 -32.7 2.35 -32.25 3.1 -32.35 4.2 -32.4 5.0 -32.75 5.7 -33.1 6.45 -34.0 7.0 -34.9 7.55 -36.5 7.7 L-39.6 7.85 -43.2 7.9 -46.8 7.85 -50.0 7.7 -50.35 -8.4 Q-41.65 -11.3 -32.9 -8.4 M-13.15 -8.4 L-13.05 -8.05 -12.3 -5.1 -11.65 -1.45 -11.3 2.3 Q-11.2 4.35 -11.75 5.55 -12.35 6.7 -13.4 7.25 -14.45 7.8 -15.75 8.0 L-18.45 8.3 -21.25 8.55 -24.05 8.4 Q-25.35 8.25 -26.3 7.6 -27.25 6.95 -27.5 5.7 L-27.85 3.05 -27.9 -0.35 -27.7 -3.85 -27.2 -6.75 -26.65 -8.4 Q-19.45 -9.65 -13.15 -8.4 M-18.75 -1.75 Q-20.05 -1.75 -20.65 -0.95 -21.25 -0.2 -20.8 1.55 L-19.85 3.15 Q-19.25 3.65 -18.5 3.75 L-17.15 3.8 -15.95 3.7 -15.0 2.95 Q-14.6 2.4 -14.7 1.1 -14.8 -0.2 -15.15 -0.85 -15.45 -1.45 -16.3 -1.65 L-18.75 -1.75 M-38.45 4.55 Q-38.45 3.95 -39.1 3.7 L-40.75 3.45 -42.75 3.45 -42.7 6.35 -39.55 5.95 Q-38.4 5.6 -38.45 4.55" fill="#ffcc00" fill-rule="evenodd" stroke="none"/>
    <path d="M9.65 -8.4 L4.65 -8.4 4.6 -10.8 9.45 -10.95 9.65 -8.4 M-0.05 -8.4 L-7.1 -8.4 -7.1 -10.35 -1.1 -10.2 -0.05 -8.4 M14.85 -8.4 L14.9 -10.1 18.15 -10.2 18.15 -8.4 14.85 -8.4 M23.7 -8.4 L23.55 -10.8 30.45 -11.0 30.6 -8.4 23.7 -8.4 M36.25 -8.4 L36.45 -8.75 Q37.7 -10.5 39.9 -10.7 L43.25 -10.85 46.95 -10.85 50.55 -10.75 50.6 -8.4 Q43.4 -9.3 36.25 -8.4 M-50.35 -8.4 L-50.45 -12.4 -43.85 -12.45 -38.6 -12.3 Q-36.7 -12.2 -35.45 -11.6 -34.15 -10.95 -33.4 -9.55 L-32.9 -8.4 Q-41.65 -11.3 -50.35 -8.4 M-26.65 -8.4 L-26.3 -9.15 -25.15 -10.3 -23.7 -10.75 -21.8 -11.0 -19.45 -11.15 -17.05 -11.1 -15.4 -10.8 Q-14.65 -10.6 -14.05 -9.95 L-13.15 -8.4 Q-19.45 -9.65 -26.65 -8.4" fill="#feeeb4" fill-rule="evenodd" stroke="none"/>
  </g>
</svg>
