<?xml version="1.0" encoding="UTF-8" standalone="no"?>
<svg xmlns:ffdec="https://www.free-decompiler.com/flash" xmlns:xlink="http://www.w3.org/1999/xlink" ffdec:objectType="shape" height="81.95px" width="112.25px" xmlns="http://www.w3.org/2000/svg">
  <g transform="matrix(1.0, 0.0, 0.0, 1.0, 59.7, 38.1)">
    <path d="M-17.65 -11.1 L-9.3 -11.65 -4.35 14.75 -9.8 16.1 -10.55 10.45 -13.25 10.95 -13.3 16.95 -19.5 18.45 -17.65 -11.1 M-12.9 -5.8 L-13.1 -5.75 -13.2 7.15 -11.0 6.8 -12.9 -5.8 M-38.25 -1.25 L-39.6 -6.4 -24.25 -8.7 -23.2 -4.1 -24.15 22.1 -17.55 19.8 -16.55 24.2 -31.2 29.6 -32.45 24.9 -31.5 -2.5 -38.25 -1.25 M4.4 7.15 L2.2 7.55 2.1 12.95 -2.9 14.05 -1.3 -12.5 5.5 -12.85 9.5 11.25 5.0 12.3 4.4 7.15 M27.8 -10.5 L27.1 -10.5 26.9 -10.5 26.65 -2.5 26.95 -2.45 27.65 -2.85 27.85 -3.8 28.0 -9.2 28.0 -9.75 28.0 -10.0 27.8 -10.5 M31.3 -10.25 L31.3 -9.1 31.15 -4.25 30.8 -1.7 Q30.5 -0.85 29.8 -0.4 L27.35 0.2 26.5 0.25 26.2 7.7 22.65 8.3 23.4 -13.3 27.8 -13.2 29.65 -13.1 Q30.3 -12.95 30.7 -12.4 L31.25 -11.1 31.3 -10.25 M2.6 -7.6 L2.35 -7.5 2.2 4.05 3.95 3.8 2.6 -7.6 M15.4 -8.8 L15.25 -8.75 15.1 1.85 16.55 1.6 15.4 -8.8 M12.25 -13.25 L17.85 -13.5 21.1 8.45 17.35 9.35 16.8 4.65 15.05 5.0 14.95 9.9 10.85 10.8 12.25 -13.25" fill="#000000" fill-rule="evenodd" stroke="none"/>
    <path d="M12.25 -13.25 L10.85 10.8 14.95 9.9 15.05 5.0 16.8 4.65 17.35 9.35 21.1 8.45 17.85 -13.5 12.25 -13.25 M15.4 -8.8 L16.55 1.6 15.1 1.85 15.25 -8.75 15.4 -8.8 M2.6 -7.6 L3.95 3.8 2.2 4.05 2.35 -7.5 2.6 -7.6 M31.3 -10.25 L31.25 -11.1 30.7 -12.4 Q30.3 -12.95 29.65 -13.1 L27.8 -13.2 23.4 -13.3 22.65 8.3 26.2 7.7 26.5 0.25 27.35 0.2 29.8 -0.4 Q30.5 -0.85 30.8 -1.7 L31.15 -4.25 31.3 -9.1 31.3 -10.25 M27.8 -10.5 L28.0 -10.0 28.0 -9.75 28.0 -9.2 27.85 -3.8 27.65 -2.85 26.95 -2.45 26.65 -2.5 26.9 -10.5 27.1 -10.5 27.8 -10.5 M4.4 7.15 L5.0 12.3 9.5 11.25 5.5 -12.85 -1.3 -12.5 -2.9 14.05 2.1 12.95 2.2 7.55 4.4 7.15 M-38.25 -1.25 L-31.5 -2.5 -32.45 24.9 -31.2 29.6 -16.55 24.2 -17.55 19.8 -24.15 22.1 -23.2 -4.1 -24.25 -8.7 -39.6 -6.4 -38.25 -1.25 M-12.9 -5.8 L-11.0 6.8 -13.2 7.15 -13.1 -5.75 -12.9 -5.8 M-17.65 -11.1 L-19.5 18.45 -13.3 16.95 -13.25 10.95 -10.55 10.45 -9.8 16.1 -4.35 14.75 -9.3 -11.65 -17.65 -11.1 Z" fill="none" stroke="#000000" stroke-linecap="round" stroke-linejoin="miter-clip" stroke-miterlimit="3.0" stroke-width="3.0"/>
    <path d="M-35.85 -3.7 L-37.2 -8.8 -21.85 -11.15 -20.75 -6.5 -21.7 19.65 -15.15 17.4 -14.15 21.8 -28.75 27.2 -30.05 22.45 -29.1 -4.95 -35.85 -3.7" fill="#d83f3f" fill-rule="evenodd" stroke="none"/>
    <path d="M-35.85 -3.7 L-29.1 -4.95 -30.05 22.45 -28.75 27.2 -14.15 21.8 -15.15 17.4 -21.7 19.65 -20.75 -6.5 -21.85 -11.15 -37.2 -8.8 -35.85 -3.7 Z" fill="none" stroke="#000000" stroke-linecap="round" stroke-linejoin="miter-clip" stroke-miterlimit="3.0" stroke-width="3.0"/>
    <path d="M-15.2 -13.55 L-6.85 -14.05 -1.9 12.35 -7.35 13.7 -8.1 8.0 -10.8 8.5 -10.85 14.55 -17.05 16.05 -15.2 -13.55 M-10.45 -8.2 L-10.65 -8.2 -10.75 4.75 -8.55 4.35 -10.45 -8.2" fill="#d83f3f" fill-rule="evenodd" stroke="none"/>
    <path d="M-10.45 -8.2 L-8.55 4.35 -10.75 4.75 -10.65 -8.2 -10.45 -8.2 M-15.2 -13.55 L-17.05 16.05 -10.85 14.55 -10.8 8.5 -8.1 8.0 -7.35 13.7 -1.9 12.35 -6.85 -14.05 -15.2 -13.55 Z" fill="none" stroke="#000000" stroke-linecap="round" stroke-linejoin="miter-clip" stroke-miterlimit="3.0" stroke-width="3.0"/>
    <path d="M6.85 4.7 L4.65 5.1 4.55 10.5 -0.45 11.55 1.15 -15.0 7.95 -15.35 11.95 8.8 7.45 9.8 6.85 4.7 M5.05 -10.05 L4.8 -10.0 4.65 1.6 6.4 1.3 5.05 -10.05" fill="#d83f3f" fill-rule="evenodd" stroke="none"/>
    <path d="M5.05 -10.05 L6.4 1.3 4.65 1.6 4.8 -10.0 5.05 -10.05 M6.85 4.7 L7.45 9.8 11.95 8.8 7.95 -15.35 1.15 -15.0 -0.45 11.55 4.55 10.5 4.65 5.1 6.85 4.7 Z" fill="none" stroke="#000000" stroke-linecap="round" stroke-linejoin="miter-clip" stroke-miterlimit="3.0" stroke-width="3.0"/>
    <path d="M17.85 -11.25 L17.7 -11.2 17.55 -0.6 19.0 -0.85 17.85 -11.25 M19.25 2.2 L17.5 2.55 17.4 7.45 13.3 8.35 14.7 -15.7 20.3 -15.95 23.55 6.0 19.8 6.9 19.25 2.2" fill="#d83f3f" fill-rule="evenodd" stroke="none"/>
    <path d="M19.25 2.2 L19.8 6.9 23.55 6.0 20.3 -15.95 14.7 -15.7 13.3 8.35 17.4 7.45 17.5 2.55 19.25 2.2 M17.85 -11.25 L19.0 -0.85 17.55 -0.6 17.7 -11.2 17.85 -11.25 Z" fill="none" stroke="#000000" stroke-linecap="round" stroke-linejoin="miter-clip" stroke-miterlimit="3.0" stroke-width="3.0"/>
    <path d="M30.25 -12.9 L29.55 -12.9 29.35 -12.95 29.1 -4.95 29.4 -4.9 Q29.9 -5.05 30.1 -5.3 L30.3 -6.25 30.45 -11.65 30.45 -12.2 30.45 -12.4 30.25 -12.9 M30.25 -15.65 L32.1 -15.5 Q32.75 -15.4 33.15 -14.85 L33.7 -13.55 33.75 -12.7 33.75 -11.5 33.6 -6.7 33.25 -4.15 Q32.95 -3.25 32.25 -2.8 L29.8 -2.25 28.95 -2.2 28.65 5.25 25.1 5.85 25.85 -15.75 30.25 -15.65" fill="#d83f3f" fill-rule="evenodd" stroke="none"/>
    <path d="M30.25 -15.65 L25.85 -15.75 25.1 5.85 28.65 5.25 28.95 -2.2 29.8 -2.25 32.25 -2.8 Q32.95 -3.25 33.25 -4.15 L33.6 -6.7 33.75 -11.5 33.75 -12.7 33.7 -13.55 33.15 -14.85 Q32.75 -15.4 32.1 -15.5 L30.25 -15.65 M30.25 -12.9 L30.45 -12.4 30.45 -12.2 30.45 -11.65 30.3 -6.25 30.1 -5.3 Q29.9 -5.05 29.4 -4.9 L29.1 -4.95 29.35 -12.95 29.55 -12.9 30.25 -12.9 Z" fill="none" stroke="#000000" stroke-linecap="round" stroke-linejoin="miter-clip" stroke-miterlimit="3.0" stroke-width="3.0"/>
    <path d="M-38.35 -28.65 L-29.3 -19.55 -33.65 -17.15 -38.35 -28.65" fill="#d83f3f" fill-rule="evenodd" stroke="none"/>
    <path d="M-38.35 -28.65 L-29.3 -19.55 -33.65 -17.15 -38.35 -28.65 Z" fill="none" stroke="#000000" stroke-linecap="round" stroke-linejoin="miter-clip" stroke-miterlimit="3.0" stroke-width="1.0"/>
    <path d="M-9.3 -23.05 L-14.05 -21.5 -15.4 -35.65 -9.3 -23.05" fill="#d83f3f" fill-rule="evenodd" stroke="none"/>
    <path d="M-9.3 -23.05 L-14.05 -21.5 -15.4 -35.65 -9.3 -23.05 Z" fill="none" stroke="#000000" stroke-linecap="round" stroke-linejoin="miter-clip" stroke-miterlimit="3.0" stroke-width="1.0"/>
    <path d="M12.45 -22.85 L7.8 -23.1 10.5 -36.6 12.45 -22.85" fill="#d83f3f" fill-rule="evenodd" stroke="none"/>
    <path d="M12.45 -22.85 L7.8 -23.1 10.5 -36.6 12.45 -22.85 Z" fill="none" stroke="#000000" stroke-linecap="round" stroke-linejoin="miter-clip" stroke-miterlimit="3.0" stroke-width="1.0"/>
    <path d="M28.6 -20.95 L23.9 -21.8 30.05 -33.0 28.6 -20.95" fill="#d83f3f" fill-rule="evenodd" stroke="none"/>
    <path d="M28.6 -20.95 L23.9 -21.8 30.05 -33.0 28.6 -20.95 Z" fill="none" stroke="#000000" stroke-linecap="round" stroke-linejoin="miter-clip" stroke-miterlimit="3.0" stroke-width="1.0"/>
    <path d="M48.6 -22.0 L39.0 -12.75 37.45 -17.45 48.6 -22.0" fill="#d83f3f" fill-rule="evenodd" stroke="none"/>
    <path d="M48.6 -22.0 L39.0 -12.75 37.45 -17.45 48.6 -22.0 Z" fill="none" stroke="#000000" stroke-linecap="round" stroke-linejoin="miter-clip" stroke-miterlimit="3.0" stroke-width="1.0"/>
    <path d="M36.0 2.2 L37.2 -2.6 51.05 3.1 36.0 2.2" fill="#d83f3f" fill-rule="evenodd" stroke="none"/>
    <path d="M36.0 2.2 L37.2 -2.6 51.05 3.1 36.0 2.2 Z" fill="none" stroke="#000000" stroke-linecap="round" stroke-linejoin="miter-clip" stroke-miterlimit="3.0" stroke-width="1.0"/>
    <path d="M30.55 11.15 L38.4 22.4 27.35 14.0 30.55 11.15" fill="#d83f3f" fill-rule="evenodd" stroke="none"/>
    <path d="M30.55 11.15 L38.4 22.4 27.35 14.0 30.55 11.15 Z" fill="none" stroke="#000000" stroke-linecap="round" stroke-linejoin="miter-clip" stroke-miterlimit="3.0" stroke-width="1.0"/>
    <path d="M-2.2 24.15 L3.15 23.35 2.05 36.15 -2.2 24.15" fill="#d83f3f" fill-rule="evenodd" stroke="none"/>
    <path d="M-2.2 24.15 L3.15 23.35 2.05 36.15 -2.2 24.15 Z" fill="none" stroke="#000000" stroke-linecap="round" stroke-linejoin="miter-clip" stroke-miterlimit="3.0" stroke-width="1.0"/>
    <path d="M-18.45 42.35 L-20.8 30.3 -14.75 28.95 -18.45 42.35" fill="#d83f3f" fill-rule="evenodd" stroke="none"/>
    <path d="M-18.45 42.35 L-20.8 30.3 -14.75 28.95 -18.45 42.35 Z" fill="none" stroke="#000000" stroke-linecap="round" stroke-linejoin="miter-clip" stroke-miterlimit="3.0" stroke-width="1.0"/>
    <path d="M-47.25 35.9 L-40.75 22.4 -36.9 25.75 -47.25 35.9" fill="#d83f3f" fill-rule="evenodd" stroke="none"/>
    <path d="M-47.25 35.9 L-40.75 22.4 -36.9 25.75 -47.25 35.9 Z" fill="none" stroke="#000000" stroke-linecap="round" stroke-linejoin="miter-clip" stroke-miterlimit="3.0" stroke-width="1.0"/>
    <path d="M-58.05 14.35 L-43.65 7.4 -41.15 12.1 -58.05 14.35" fill="#d83f3f" fill-rule="evenodd" stroke="none"/>
    <path d="M-58.05 14.35 L-43.65 7.4 -41.15 12.1 -58.05 14.35 Z" fill="none" stroke="#000000" stroke-linecap="round" stroke-linejoin="miter-clip" stroke-miterlimit="3.0" stroke-width="1.0"/>
    <path d="M-44.75 -11.65 L-45.8 -6.25 -58.25 -11.2 -44.75 -11.65" fill="#d83f3f" fill-rule="evenodd" stroke="none"/>
    <path d="M-44.75 -11.65 L-45.8 -6.25 -58.25 -11.2 -44.75 -11.65 Z" fill="none" stroke="#000000" stroke-linecap="round" stroke-linejoin="miter-clip" stroke-miterlimit="3.0" stroke-width="1.0"/>
    <path d="M20.8 30.0 L13.6 19.4 18.3 17.85 20.8 30.0" fill="#d83f3f" fill-rule="evenodd" stroke="none"/>
    <path d="M20.8 30.0 L13.6 19.4 18.3 17.85 20.8 30.0 Z" fill="none" stroke="#000000" stroke-linecap="round" stroke-linejoin="miter-clip" stroke-miterlimit="3.0" stroke-width="1.0"/>
    <path d="M-35.85 -3.7 L-37.2 -8.8 -21.85 -11.15 -20.75 -6.5 -21.7 19.65 -15.15 17.4 -14.15 21.8 -28.75 27.2 -30.05 22.45 -29.1 -4.95 -35.85 -3.7" fill="#d83f3f" fill-rule="evenodd" stroke="none"/>
    <path d="M-10.45 -8.2 L-10.65 -8.2 -10.75 4.75 -8.55 4.35 -10.45 -8.2 M-15.2 -13.55 L-6.85 -14.05 -1.9 12.35 -7.35 13.7 -8.1 8.0 -10.8 8.5 -10.85 14.55 -17.05 16.05 -15.2 -13.55" fill="#d83f3f" fill-rule="evenodd" stroke="none"/>
    <path d="M6.85 4.7 L4.65 5.1 4.55 10.5 -0.45 11.55 1.15 -15.0 7.95 -15.35 11.95 8.8 7.45 9.8 6.85 4.7 M5.05 -10.05 L4.8 -10.0 4.65 1.6 6.4 1.3 5.05 -10.05" fill="#d83f3f" fill-rule="evenodd" stroke="none"/>
    <path d="M19.25 2.2 L17.5 2.55 17.4 7.45 13.3 8.35 14.7 -15.7 20.3 -15.95 23.55 6.0 19.8 6.9 19.25 2.2 M17.85 -11.25 L17.7 -11.2 17.55 -0.6 19.0 -0.85 17.85 -11.25" fill="#d83f3f" fill-rule="evenodd" stroke="none"/>
    <path d="M30.25 -12.9 L29.55 -12.9 29.35 -12.95 29.1 -4.95 29.4 -4.9 Q29.9 -5.05 30.1 -5.3 L30.3 -6.25 30.45 -11.65 30.45 -12.2 30.45 -12.4 30.25 -12.9 M32.1 -15.5 Q32.75 -15.4 33.15 -14.85 L33.7 -13.55 33.75 -12.7 33.75 -11.5 33.6 -6.7 33.25 -4.15 Q32.95 -3.25 32.25 -2.8 L29.8 -2.25 28.95 -2.2 28.65 5.25 25.1 5.85 25.85 -15.75 30.25 -15.65 32.1 -15.5" fill="#d83f3f" fill-rule="evenodd" stroke="none"/>
  </g>
</svg>
