<?xml version="1.0" encoding="UTF-8" standalone="no"?>
<svg xmlns:ffdec="https://www.free-decompiler.com/flash" xmlns:xlink="http://www.w3.org/1999/xlink" ffdec:objectType="shape" height="70.75px" width="126.95px" xmlns="http://www.w3.org/2000/svg">
  <g transform="matrix(1.0, 0.0, 0.0, 1.0, 76.4, 35.25)">
    <path d="M-40.9 -6.6 L-40.9 -4.15 -43.25 -3.0 -45.6 -1.95 Q-45.7 -3.45 -46.5 -3.4 -47.65 -3.3 -48.75 -1.85 -49.5 -0.8 -49.35 0.05 -49.2 0.65 -48.1 0.6 L-46.5 0.35 -44.1 -0.15 Q-41.45 -0.35 -40.9 1.5 -40.7 2.05 -40.65 2.7 -40.5 4.7 -41.85 7.2 -43.65 10.45 -47.05 12.75 -48.85 14.0 -50.65 14.15 -52.35 14.25 -53.95 13.45 L-51.8 7.65 Q-50.7 8.25 -49.6 8.2 L-48.55 7.95 -46.7 7.15 Q-45.5 6.3 -45.6 5.55 -45.65 4.75 -46.95 4.85 L-49.5 5.4 -52.05 5.95 Q-53.25 6.05 -53.9 5.6 -55.2 4.9 -55.15 3.1 -54.95 -0.45 -51.1 -5.4 -47.25 -10.4 -44.2 -10.9 -41.25 -11.3 -40.9 -6.6" fill="#ffcc00" fill-rule="evenodd" stroke="none"/>
    <path d="M-40.9 -6.6 L-40.9 -4.15 -43.25 -3.0 -45.6 -1.95 Q-45.7 -3.45 -46.5 -3.4 -47.65 -3.3 -48.75 -1.85 -49.5 -0.8 -49.35 0.05 -49.2 0.65 -48.1 0.6 L-46.5 0.35 -44.1 -0.15 Q-41.45 -0.35 -40.9 1.5 -40.7 2.05 -40.65 2.7 -40.5 4.7 -41.85 7.2 -43.65 10.45 -47.05 12.75 -48.85 14.0 -50.65 14.15 -52.35 14.25 -53.95 13.45 L-51.8 7.65 Q-50.7 8.25 -49.6 8.2 L-48.55 7.95 -46.7 7.15 Q-45.5 6.3 -45.6 5.55 -45.65 4.75 -46.95 4.85 L-49.5 5.4 -52.05 5.95 Q-53.25 6.05 -53.9 5.6 -55.2 4.9 -55.15 3.1 -54.95 -0.45 -51.1 -5.4 -47.25 -10.4 -44.2 -10.9 -41.25 -11.3 -40.9 -6.6 Z" fill="none" stroke="#000000" stroke-linecap="square" stroke-linejoin="miter-clip" stroke-miterlimit="3.0" stroke-width="3.0"/>
    <path d="M-26.0 -14.55 Q-29.1 -2.6 -29.95 5.8 L-34.95 7.1 -33.6 -0.9 -36.1 -0.35 -36.9 5.8 -41.95 7.1 -38.4 -13.65 -33.0 -14.55 -35.35 -4.35 -32.9 -4.85 -31.4 -13.65 -26.0 -14.55" fill="#ffcc00" fill-rule="evenodd" stroke="none"/>
    <path d="M-26.0 -14.55 Q-29.1 -2.6 -29.95 5.8 L-34.95 7.1 -33.6 -0.9 -36.1 -0.35 -36.9 5.8 -41.95 7.1 -38.4 -13.65 -33.0 -14.55 -35.35 -4.35 -32.9 -4.85 -31.4 -13.65 -26.0 -14.55 Z" fill="none" stroke="#000000" stroke-linecap="square" stroke-linejoin="miter-clip" stroke-miterlimit="3.0" stroke-width="3.0"/>
    <path d="M-26.75 -6.15 Q-23.8 -10.0 -20.45 -10.0 -17.65 -10.0 -16.45 -6.9 -15.9 -5.25 -15.9 -3.35 -15.9 -1.5 -16.45 0.75 -17.45 4.45 -19.85 7.6 -22.8 11.4 -26.1 11.4 -28.9 11.4 -30.15 8.3 -30.75 6.75 -30.75 4.85 -30.75 2.95 -30.15 0.75 -29.15 -3.0 -26.75 -6.15 M-24.4 -1.05 Q-25.65 0.85 -26.1 2.65 L-26.35 4.4 Q-26.35 5.45 -25.85 6.2 -25.2 6.95 -24.1 6.95 -22.6 6.95 -21.4 5.4 -20.45 4.15 -20.05 2.45 -19.5 0.45 -19.85 -1.55 -20.15 -3.45 -21.4 -3.45 -22.9 -3.45 -24.4 -1.05" fill="#ffcc00" fill-rule="evenodd" stroke="none"/>
    <path d="M-26.75 -6.15 Q-23.8 -10.0 -20.45 -10.0 -17.65 -10.0 -16.45 -6.9 -15.9 -5.25 -15.9 -3.35 -15.9 -1.5 -16.45 0.75 -17.45 4.45 -19.85 7.6 -22.8 11.4 -26.1 11.4 -28.9 11.4 -30.15 8.3 -30.75 6.75 -30.75 4.85 -30.75 2.95 -30.15 0.75 -29.15 -3.0 -26.75 -6.15 M-24.4 -1.05 Q-25.65 0.85 -26.1 2.65 L-26.35 4.4 Q-26.35 5.45 -25.85 6.2 -25.2 6.95 -24.1 6.95 -22.6 6.95 -21.4 5.4 -20.45 4.15 -20.05 2.45 -19.5 0.45 -19.85 -1.55 -20.15 -3.45 -21.4 -3.45 -22.9 -3.45 -24.4 -1.05 Z" fill="none" stroke="#000000" stroke-linecap="square" stroke-linejoin="miter-clip" stroke-miterlimit="3.0" stroke-width="3.0"/>
    <path d="M-7.2 -7.85 Q-8.75 -7.85 -10.45 -5.15 -11.8 -2.95 -12.2 -1.05 L-12.4 0.6 Q-12.4 2.55 -11.0 3.25 L-10.0 3.5 Q-8.45 3.5 -6.8 1.25 L-5.85 4.75 Q-8.75 7.95 -11.75 7.95 -14.8 7.95 -16.2 4.75 -17.05 2.85 -17.05 0.55 L-16.6 -3.05 Q-15.75 -6.95 -13.25 -10.15 -10.3 -14.05 -6.85 -14.05 -3.8 -14.05 -2.35 -10.75 L-5.65 -7.15 Q-6.35 -7.85 -7.2 -7.85" fill="#ffcc00" fill-rule="evenodd" stroke="none"/>
    <path d="M-7.2 -7.85 Q-8.75 -7.85 -10.45 -5.15 -11.8 -2.95 -12.2 -1.05 L-12.4 0.6 Q-12.4 2.55 -11.0 3.25 L-10.0 3.5 Q-8.45 3.5 -6.8 1.25 L-5.85 4.75 Q-8.75 7.95 -11.75 7.95 -14.8 7.95 -16.2 4.75 -17.05 2.85 -17.05 0.55 L-16.6 -3.05 Q-15.75 -6.95 -13.25 -10.15 -10.3 -14.05 -6.85 -14.05 -3.8 -14.05 -2.35 -10.75 L-5.65 -7.15 Q-6.35 -7.85 -7.2 -7.85 Z" fill="none" stroke="#000000" stroke-linecap="square" stroke-linejoin="miter-clip" stroke-miterlimit="3.0" stroke-width="3.0"/>
    <path d="M2.35 -7.6 L0.85 -3.7 6.05 -7.35 9.35 -4.4 2.95 -0.15 4.65 12.15 -1.0 14.2 -1.6 3.0 -4.25 12.05 -9.05 12.75 -2.75 -7.35 2.35 -7.6" fill="#ffcc00" fill-rule="evenodd" stroke="none"/>
    <path d="M2.35 -7.6 L0.85 -3.7 6.05 -7.35 9.35 -4.4 2.95 -0.15 4.65 12.15 -1.0 14.2 -1.6 3.0 -4.25 12.05 -9.05 12.75 -2.75 -7.35 2.35 -7.6 Z" fill="none" stroke="#000000" stroke-linecap="square" stroke-linejoin="miter-clip" stroke-miterlimit="3.0" stroke-width="3.0"/>
    <path d="M16.4 -12.1 L13.25 -5.15 Q11.9 -1.7 10.95 2.3 L6.9 2.35 10.25 -12.8 16.4 -12.1 M5.65 6.8 Q6.75 5.85 8.1 5.55 L9.85 5.75 Q10.85 6.2 10.9 7.2 11.0 8.5 9.6 9.7 8.6 10.6 7.3 10.9 L5.45 10.75 Q4.55 10.35 4.5 9.35 4.4 8.05 5.65 6.8" fill="#ffcc00" fill-rule="evenodd" stroke="none"/>
    <path d="M16.4 -12.1 L13.25 -5.15 Q11.9 -1.7 10.95 2.3 L6.9 2.35 10.25 -12.8 16.4 -12.1 M5.65 6.8 Q6.75 5.85 8.1 5.55 L9.85 5.75 Q10.85 6.2 10.9 7.2 11.0 8.5 9.6 9.7 8.6 10.6 7.3 10.9 L5.45 10.75 Q4.55 10.35 4.5 9.35 4.4 8.05 5.65 6.8 Z" fill="none" stroke="#000000" stroke-linecap="square" stroke-linejoin="miter-clip" stroke-miterlimit="3.0" stroke-width="3.0"/>
    <path d="M19.05 -1.3 Q17.7 2.15 16.75 6.15 L12.65 6.2 16.05 -8.95 22.15 -8.3 19.05 -1.3 M11.4 10.65 Q12.5 9.7 13.85 9.4 L15.65 9.6 Q16.65 10.0 16.7 11.0 16.8 12.3 15.4 13.5 14.35 14.45 13.05 14.7 L11.2 14.6 Q10.3 14.2 10.25 13.2 10.15 11.9 11.4 10.65" fill="#ffcc00" fill-rule="evenodd" stroke="none"/>
    <path d="M19.05 -1.3 Q17.7 2.15 16.75 6.15 L12.65 6.2 16.05 -8.95 22.15 -8.3 19.05 -1.3 M11.4 10.65 Q12.5 9.7 13.85 9.4 L15.65 9.6 Q16.65 10.0 16.7 11.0 16.8 12.3 15.4 13.5 14.35 14.45 13.05 14.7 L11.2 14.6 Q10.3 14.2 10.25 13.2 10.15 11.9 11.4 10.65 Z" fill="none" stroke="#000000" stroke-linecap="square" stroke-linejoin="miter-clip" stroke-miterlimit="3.0" stroke-width="3.0"/>
    <path d="M26.95 -4.4 Q25.3 -1.1 23.95 2.8 L19.85 2.5 24.6 -12.35 30.7 -11.1 26.95 -4.4 M22.55 6.15 Q23.5 6.65 23.45 7.65 23.45 9.0 21.95 10.05 20.8 10.9 19.45 11.05 L17.7 10.75 Q16.8 10.25 16.8 9.25 16.85 7.9 18.25 6.8 19.4 5.95 20.8 5.8 21.8 5.7 22.55 6.15" fill="#ffcc00" fill-rule="evenodd" stroke="none"/>
    <path d="M26.95 -4.4 Q25.3 -1.1 23.95 2.8 L19.85 2.5 24.6 -12.35 30.7 -11.1 26.95 -4.4 M22.55 6.15 Q23.5 6.65 23.45 7.65 23.45 9.0 21.95 10.05 20.8 10.9 19.45 11.05 L17.7 10.75 Q16.8 10.25 16.8 9.25 16.85 7.9 18.25 6.8 19.4 5.95 20.8 5.8 21.8 5.7 22.55 6.15 Z" fill="none" stroke="#000000" stroke-linecap="square" stroke-linejoin="miter-clip" stroke-miterlimit="3.0" stroke-width="3.0"/>
    <path d="M-18.35 -16.65 Q-21.05 -18.6 -20.85 -20.7 -20.7 -21.95 -19.1 -24.3 -17.55 -26.5 -17.65 -27.65 -17.75 -29.5 -20.95 -31.1" fill="none" stroke="#ffcc00" stroke-linecap="square" stroke-linejoin="miter-clip" stroke-miterlimit="3.0" stroke-width="1.0"/>
    <path d="M-0.25 -20.1 Q-2.15 -22.8 -1.25 -24.75 -0.75 -25.85 1.55 -27.55 3.7 -29.15 4.0 -30.3 4.5 -32.05 2.0 -34.6" fill="none" stroke="#ffcc00" stroke-linecap="square" stroke-linejoin="miter-clip" stroke-miterlimit="3.0" stroke-width="1.0"/>
    <path d="M19.35 -19.85 Q19.5 -23.2 21.4 -24.15 L25.35 -24.65 Q28.05 -24.6 28.95 -25.35 30.4 -26.45 30.0 -29.95" fill="none" stroke="#ffcc00" stroke-linecap="square" stroke-linejoin="miter-clip" stroke-miterlimit="3.0" stroke-width="1.0"/>
    <path d="M36.6 -11.15 Q37.8 -14.25 39.9 -14.55 41.15 -14.8 43.8 -13.75 46.35 -12.9 47.4 -13.25 49.2 -13.8 49.9 -17.3" fill="none" stroke="#ffcc00" stroke-linecap="square" stroke-linejoin="miter-clip" stroke-miterlimit="3.0" stroke-width="1.0"/>
    <path d="M32.15 5.15 Q35.4 4.35 36.85 5.85 37.75 6.7 38.55 9.45 39.25 12.05 40.2 12.7 41.7 13.85 44.95 12.4" fill="none" stroke="#ffcc00" stroke-linecap="square" stroke-linejoin="miter-clip" stroke-miterlimit="3.0" stroke-width="1.0"/>
    <path d="M21.35 19.75 Q24.5 20.85 24.9 22.95 25.15 24.15 24.25 26.85 23.5 29.4 23.9 30.45 24.55 32.2 28.05 32.85" fill="none" stroke="#ffcc00" stroke-linecap="square" stroke-linejoin="miter-clip" stroke-miterlimit="3.0" stroke-width="1.0"/>
    <path d="M-6.25 20.45 Q-3.5 22.35 -3.7 24.5 -3.75 25.7 -5.35 28.05 -6.85 30.3 -6.7 31.45 -6.6 33.3 -3.35 34.85" fill="none" stroke="#ffcc00" stroke-linecap="square" stroke-linejoin="miter-clip" stroke-miterlimit="3.0" stroke-width="1.0"/>
    <path d="M-27.9 18.15 Q-26.0 20.85 -26.9 22.8 -27.4 23.9 -29.7 25.6 -31.85 27.2 -32.15 28.35 -32.65 30.1 -30.15 32.65" fill="none" stroke="#ffcc00" stroke-linecap="square" stroke-linejoin="miter-clip" stroke-miterlimit="3.0" stroke-width="1.0"/>
    <path d="M-46.35 20.1 Q-46.45 23.45 -48.3 24.45 -49.4 25.05 -52.25 25.05 -54.95 25.05 -55.85 25.8 -57.3 26.9 -56.85 30.45" fill="none" stroke="#ffcc00" stroke-linecap="square" stroke-linejoin="miter-clip" stroke-miterlimit="3.0" stroke-width="1.0"/>
    <path d="M-61.15 11.3 Q-63.35 13.8 -65.4 13.45 -66.65 13.2 -68.8 11.45 -70.9 9.75 -72.05 9.7 -73.9 9.65 -75.75 12.7" fill="none" stroke="#ffcc00" stroke-linecap="square" stroke-linejoin="miter-clip" stroke-miterlimit="3.0" stroke-width="1.0"/>
    <path d="M-60.05 -6.4 Q-63.2 -5.3 -64.8 -6.65 -65.7 -7.45 -66.75 -10.1 -67.75 -12.65 -68.7 -13.2 -70.3 -14.15 -73.45 -12.45" fill="none" stroke="#ffcc00" stroke-linecap="square" stroke-linejoin="miter-clip" stroke-miterlimit="3.0" stroke-width="1.0"/>
    <path d="M-44.35 -17.8 Q-47.5 -18.8 -48.0 -20.9 -48.25 -22.1 -47.45 -24.85 -46.7 -27.4 -47.15 -28.45 -47.85 -30.15 -51.35 -30.7" fill="none" stroke="#ffcc00" stroke-linecap="square" stroke-linejoin="miter-clip" stroke-miterlimit="3.0" stroke-width="1.0"/>
    <path d="M-40.9 -6.6 L-40.9 -4.15 -43.25 -3.0 -45.6 -1.95 Q-45.7 -3.45 -46.5 -3.4 -47.65 -3.3 -48.75 -1.85 -49.5 -0.8 -49.35 0.05 -49.2 0.65 -48.1 0.6 L-46.5 0.35 -44.1 -0.15 Q-41.45 -0.35 -40.9 1.5 -40.7 2.05 -40.65 2.7 -40.5 4.7 -41.85 7.2 -43.65 10.45 -47.05 12.75 -48.85 14.0 -50.65 14.15 -52.35 14.25 -53.95 13.45 L-51.8 7.65 Q-50.7 8.25 -49.6 8.2 L-48.55 7.95 -46.7 7.15 Q-45.5 6.3 -45.6 5.55 -45.65 4.75 -46.95 4.85 L-49.5 5.4 -52.05 5.95 Q-53.25 6.05 -53.9 5.6 -55.2 4.9 -55.15 3.1 -54.95 -0.45 -51.1 -5.4 -47.25 -10.4 -44.2 -10.9 -41.25 -11.3 -40.9 -6.6" fill="#ffcc00" fill-rule="evenodd" stroke="none"/>
    <path d="M-26.0 -14.55 Q-29.1 -2.6 -29.95 5.8 L-34.95 7.1 -33.6 -0.9 -36.1 -0.35 -36.9 5.8 -41.95 7.1 -38.4 -13.65 -33.0 -14.55 -35.35 -4.35 -32.9 -4.85 -31.4 -13.65 -26.0 -14.55" fill="#ffcc00" fill-rule="evenodd" stroke="none"/>
    <path d="M-24.4 -1.05 Q-25.65 0.85 -26.1 2.65 L-26.35 4.4 Q-26.35 5.45 -25.85 6.2 -25.2 6.95 -24.1 6.95 -22.6 6.95 -21.4 5.4 -20.45 4.15 -20.05 2.45 -19.5 0.45 -19.85 -1.55 -20.15 -3.45 -21.4 -3.45 -22.9 -3.45 -24.4 -1.05 M-26.75 -6.15 Q-23.8 -10.0 -20.45 -10.0 -17.65 -10.0 -16.45 -6.9 -15.9 -5.25 -15.9 -3.35 -15.9 -1.5 -16.45 0.75 -17.45 4.45 -19.85 7.6 -22.8 11.4 -26.1 11.4 -28.9 11.4 -30.15 8.3 -30.75 6.75 -30.75 4.85 -30.75 2.95 -30.15 0.75 -29.15 -3.0 -26.75 -6.15" fill="#ffcc00" fill-rule="evenodd" stroke="none"/>
    <path d="M-7.2 -7.85 Q-8.75 -7.85 -10.45 -5.15 -11.8 -2.95 -12.2 -1.05 L-12.4 0.6 Q-12.4 2.55 -11.0 3.25 L-10.0 3.5 Q-8.45 3.5 -6.8 1.25 L-5.85 4.75 Q-8.75 7.95 -11.75 7.95 -14.8 7.95 -16.2 4.75 -17.05 2.85 -17.05 0.55 L-16.6 -3.05 Q-15.75 -6.95 -13.25 -10.15 -10.3 -14.05 -6.85 -14.05 -3.8 -14.05 -2.35 -10.75 L-5.65 -7.15 Q-6.35 -7.85 -7.2 -7.85" fill="#ffcc00" fill-rule="evenodd" stroke="none"/>
    <path d="M2.35 -7.6 L0.85 -3.7 6.05 -7.35 9.35 -4.4 2.95 -0.15 4.65 12.15 -1.0 14.2 -1.6 3.0 -4.25 12.05 -9.05 12.75 -2.75 -7.35 2.35 -7.6" fill="#ffcc00" fill-rule="evenodd" stroke="none"/>
    <path d="M16.4 -12.1 L13.25 -5.15 Q11.9 -1.7 10.95 2.3 L6.9 2.35 10.25 -12.8 16.4 -12.1 M4.5 9.35 Q4.4 8.05 5.65 6.8 6.75 5.85 8.1 5.55 L9.85 5.75 Q10.85 6.2 10.9 7.2 11.0 8.5 9.6 9.7 8.6 10.6 7.3 10.9 L5.45 10.75 Q4.55 10.35 4.5 9.35" fill="#ffcc00" fill-rule="evenodd" stroke="none"/>
    <path d="M19.05 -1.3 Q17.7 2.15 16.75 6.15 L12.65 6.2 16.05 -8.95 22.15 -8.3 19.05 -1.3 M10.25 13.2 Q10.15 11.9 11.4 10.65 12.5 9.7 13.85 9.4 L15.65 9.6 Q16.65 10.0 16.7 11.0 16.8 12.3 15.4 13.5 14.35 14.45 13.05 14.7 L11.2 14.6 Q10.3 14.2 10.25 13.2" fill="#ffcc00" fill-rule="evenodd" stroke="none"/>
    <path d="M26.95 -4.4 Q25.3 -1.1 23.95 2.8 L19.85 2.5 24.6 -12.35 30.7 -11.1 26.95 -4.4 M22.55 6.15 Q23.5 6.65 23.45 7.65 23.45 9.0 21.95 10.05 20.8 10.9 19.45 11.05 L17.7 10.75 Q16.8 10.25 16.8 9.25 16.85 7.9 18.25 6.8 19.4 5.95 20.8 5.8 21.8 5.7 22.55 6.15" fill="#ffcc00" fill-rule="evenodd" stroke="none"/>
  </g>
</svg>
