<?xml version="1.0" encoding="UTF-8" standalone="no"?>
<svg xmlns:ffdec="https://www.free-decompiler.com/flash" xmlns:xlink="http://www.w3.org/1999/xlink" ffdec:objectType="shape" height="61.3px" width="133.05px" xmlns="http://www.w3.org/2000/svg">
  <g transform="matrix(1.0, 0.0, 0.0, 1.0, 66.65, 28.15)">
    <path d="M-51.5 -11.1 L-50.5 -12.05 -49.55 -12.55 -48.05 -13.1 -46.7 -13.4 -45.3 -13.55 -44.05 -13.55 -42.65 -13.4 Q-42.0 -13.35 -41.55 -13.1 L-41.1 -12.85 -40.65 -12.25 -40.6 -11.7 -40.6 -10.95 -40.65 -10.2 -40.7 -9.2 -40.7 -8.35 -40.7 -8.1 -40.65 -7.25 -40.55 -6.0 -40.5 -5.1 -40.7 -3.65 Q-40.9 -3.2 -41.2 -3.05 L-41.8 -2.9 -42.15 -3.0 -42.6 -3.05 -42.95 -3.05 -43.5 -3.0 -44.0 -2.9 -44.85 -3.0 -45.9 -2.75 -46.45 -2.35 -47.1 -1.6 Q-47.45 -1.0 -47.45 0.2 L-47.45 0.65 -47.35 1.1 -47.1 1.85 -46.75 2.65 Q-46.45 3.1 -45.95 3.35 L-45.0 3.65 -44.35 3.8 -43.45 3.6 -42.4 3.4 -42.2 3.4 Q-41.2 3.4 -40.75 3.95 -40.35 4.6 -40.4 6.0 L-40.4 6.65 -40.4 7.5 -40.4 8.15 -40.4 9.15 -40.35 10.15 -40.3 10.85 -40.3 11.4 -40.35 12.0 -40.55 12.6 -41.15 13.3 Q-41.55 13.7 -42.0 13.75 L-42.4 13.8 -43.0 13.9 -43.4 13.9 -44.1 13.95 -45.0 14.0 -45.65 13.95 -46.65 13.7 -47.55 13.55 -48.45 13.35 -49.2 13.15 -49.9 12.85 -51.1 12.1 Q-51.8 11.6 -52.6 10.3 L-53.0 9.65 -53.35 9.1 -53.6 8.65 -53.85 8.25 -54.65 6.65 Q-55.05 5.5 -55.3 3.1 L-55.35 2.45 -55.4 1.8 -55.55 0.35 -55.6 -0.3 -55.55 -1.45 -55.45 -2.8 -55.3 -3.9 -55.0 -4.85 -54.7 -5.75 -54.45 -6.55 -54.2 -7.4 -53.9 -8.1 -53.55 -8.75 -53.1 -9.45 -52.5 -10.15 -51.5 -11.1" fill="#000000" fill-rule="evenodd" stroke="none"/>
    <path d="M-51.5 -11.1 L-52.5 -10.15 -53.1 -9.45 -53.55 -8.75 -53.9 -8.1 -54.2 -7.4 -54.45 -6.55 -54.7 -5.75 -55.0 -4.85 -55.3 -3.9 -55.45 -2.8 -55.55 -1.45 -55.6 -0.3 -55.55 0.35 -55.4 1.8 -55.35 2.45 -55.3 3.1 Q-55.05 5.5 -54.65 6.65 L-53.85 8.25 -53.6 8.65 -53.35 9.1 -53.0 9.65 -52.6 10.3 Q-51.8 11.6 -51.1 12.1 L-49.9 12.85 -49.2 13.15 -48.45 13.35 -47.55 13.55 -46.65 13.7 -45.65 13.95 -45.0 14.0 -44.1 13.95 -43.4 13.9 -43.0 13.9 -42.4 13.8 -42.0 13.75 Q-41.55 13.7 -41.15 13.3 L-40.55 12.6 -40.35 12.0 -40.3 11.4 -40.3 10.85 -40.35 10.15 -40.4 9.15 -40.4 8.15 -40.4 7.5 -40.4 6.65 -40.4 6.0 Q-40.35 4.6 -40.75 3.95 -41.2 3.4 -42.2 3.4 L-42.4 3.4 -43.45 3.6 -44.35 3.8 -45.0 3.65 -45.95 3.35 Q-46.45 3.1 -46.75 2.65 L-47.1 1.85 -47.35 1.1 -47.45 0.65 -47.45 0.2 Q-47.45 -1.0 -47.1 -1.6 L-46.45 -2.35 -45.9 -2.75 -44.85 -3.0 -44.0 -2.9 -43.5 -3.0 -42.95 -3.05 -42.6 -3.05 -42.15 -3.0 -41.8 -2.9 -41.2 -3.05 Q-40.9 -3.2 -40.7 -3.65 L-40.5 -5.1 -40.55 -6.0 -40.65 -7.25 -40.7 -8.1 -40.7 -8.35 -40.7 -9.2 -40.65 -10.2 -40.6 -10.95 -40.6 -11.7 -40.65 -12.25 -41.1 -12.85 -41.55 -13.1 Q-42.0 -13.35 -42.65 -13.4 L-44.05 -13.55 -45.3 -13.55 -46.7 -13.4 -48.05 -13.1 -49.55 -12.55 -50.5 -12.05 -51.5 -11.1 Z" fill="none" stroke="#000000" stroke-linecap="square" stroke-linejoin="miter-clip" stroke-miterlimit="3.0" stroke-width="4.0"/>
    <path d="M-31.4 -10.35 L-30.5 -10.1 -30.15 -9.6 -30.05 -9.35 -30.0 -8.75 -30.05 -8.4 -30.15 -7.85 -30.2 -7.5 -30.15 -7.1 -30.15 -6.65 -30.1 -6.25 -30.1 -5.8 -30.15 -5.3 -29.95 -4.6 -29.55 -4.25 -29.25 -4.1 -28.7 -4.05 -27.8 -4.0 -27.25 -3.95 -26.7 -4.05 -26.1 -4.2 Q-25.55 -4.45 -25.4 -4.85 L-25.3 -5.45 -25.3 -5.9 -25.35 -6.55 -25.35 -7.05 -25.35 -7.5 -25.35 -8.0 -25.35 -8.4 -25.35 -8.8 -25.3 -9.35 -24.95 -9.95 -24.5 -10.25 -23.7 -10.35 -23.25 -10.3 -22.8 -10.25 -22.55 -10.25 -22.15 -10.25 -21.9 -10.25 -21.55 -10.3 -21.15 -10.35 -20.6 -10.3 -20.1 -10.25 -19.75 -10.25 -19.25 -10.3 -18.85 -10.35 Q-17.8 -10.3 -17.5 -9.9 -17.2 -9.5 -17.25 -9.0 L-17.25 -8.6 -17.3 -8.05 -17.35 -7.6 -17.35 -7.35 -17.3 -7.1 -17.35 -6.8 -17.4 -6.5 -17.4 -5.65 -17.4 -5.2 -17.35 -4.75 -17.3 -4.1 -17.25 -3.4 -17.25 -3.1 -17.3 -2.7 -17.4 -1.4 -17.4 -0.15 -17.4 0.65 -17.35 1.75 -17.35 2.55 -17.35 3.7 -17.3 4.25 -17.3 5.05 -17.25 5.6 -17.3 6.15 -17.35 6.95 -17.4 7.5 -17.35 7.95 -17.25 8.65 -17.25 9.15 Q-17.25 10.1 -17.7 10.55 -18.15 11.0 -18.75 10.95 L-18.95 10.95 -19.25 10.95 -19.6 10.9 -19.8 10.9 -20.05 10.9 -20.35 10.95 -20.65 10.95 -20.95 10.95 -21.2 10.95 -21.65 10.9 -22.1 10.9 -22.4 10.9 -22.85 10.9 -23.45 10.9 -23.9 10.95 Q-24.95 10.9 -25.2 10.45 L-25.45 9.25 -25.4 8.75 -25.35 8.3 -25.4 8.0 -25.45 7.5 -25.5 7.2 -25.45 6.6 -25.45 6.05 -25.45 5.9 -25.5 5.6 Q-25.55 5.25 -25.75 4.95 L-26.25 4.5 -26.6 4.45 -27.2 4.45 -27.6 4.4 -27.95 4.45 -28.7 4.55 -29.1 4.6 -29.5 4.6 -30.05 5.1 -30.15 5.6 -30.15 6.15 -30.1 6.9 -30.1 7.5 -30.15 8.0 -30.15 8.5 -30.1 8.9 -30.05 9.35 -30.15 9.95 -30.5 10.65 -31.55 10.95 -31.85 10.95 -32.3 10.9 -32.8 10.85 -33.15 10.85 -33.55 10.85 -33.95 10.9 -34.5 10.85 -35.0 10.85 -35.5 10.85 -36.2 10.9 -36.7 10.9 -37.9 10.65 Q-38.3 10.45 -38.4 9.9 L-38.4 9.45 -38.4 8.8 -38.4 8.35 -38.4 7.95 -38.4 7.65 -38.35 7.35 -38.3 6.95 -38.3 6.65 -38.35 5.9 -38.35 4.8 -38.4 4.05 -38.4 3.75 -38.35 3.4 -38.35 3.35 -38.4 3.0 -38.4 2.5 -38.4 2.15 -38.4 1.9 -38.35 1.65 -38.3 0.8 -38.3 0.0 -38.3 -0.35 -38.3 -0.8 -38.3 -1.15 -38.3 -2.55 -38.35 -2.9 -38.35 -3.25 -38.35 -3.75 -38.3 -4.25 -38.3 -4.65 -38.25 -5.2 -38.25 -5.6 -38.25 -6.2 -38.3 -6.95 -38.4 -7.6 -38.45 -8.25 -38.4 -8.55 -38.35 -9.05 -38.35 -9.35 -37.95 -10.05 -37.25 -10.35 -37.0 -10.35 -36.7 -10.3 -36.5 -10.3 -36.05 -10.25 -35.6 -10.25 -35.1 -10.35 -34.75 -10.4 -34.6 -10.4 -34.25 -10.4 -33.6 -10.35 -32.95 -10.3 -32.55 -10.25 -32.3 -10.3 -32.0 -10.35 -31.65 -10.35 -31.4 -10.35" fill="#000000" fill-rule="evenodd" stroke="none"/>
    <path d="M-31.4 -10.35 L-31.65 -10.35 -32.0 -10.35 -32.3 -10.3 -32.55 -10.25 -32.95 -10.3 -33.6 -10.35 -34.25 -10.4 -34.6 -10.4 -34.75 -10.4 -35.1 -10.35 -35.6 -10.25 -36.05 -10.25 -36.5 -10.3 -36.7 -10.3 -37.0 -10.35 -37.25 -10.35 -37.95 -10.05 -38.35 -9.35 -38.35 -9.05 -38.4 -8.55 -38.45 -8.25 -38.4 -7.6 -38.3 -6.95 -38.25 -6.2 -38.25 -5.6 -38.25 -5.2 -38.3 -4.65 -38.3 -4.25 -38.35 -3.75 -38.35 -3.25 -38.35 -2.9 -38.3 -2.55 -38.3 -1.15 -38.3 -0.8 -38.3 -0.35 -38.3 0.0 -38.3 0.8 -38.35 1.65 -38.4 1.9 -38.4 2.15 -38.4 2.5 -38.4 3.0 -38.35 3.35 -38.35 3.4 -38.4 3.75 -38.4 4.05 -38.35 4.8 -38.35 5.9 -38.3 6.65 -38.3 6.95 -38.35 7.35 -38.4 7.65 -38.4 7.95 -38.4 8.35 -38.4 8.8 -38.4 9.45 -38.4 9.9 Q-38.3 10.45 -37.9 10.65 L-36.7 10.9 -36.2 10.9 -35.5 10.85 -35.0 10.85 -34.5 10.85 -33.95 10.9 -33.55 10.85 -33.15 10.85 -32.8 10.85 -32.3 10.9 -31.85 10.95 -31.55 10.95 -30.5 10.65 -30.15 9.95 -30.05 9.35 -30.1 8.9 -30.15 8.5 -30.15 8.0 -30.1 7.5 -30.1 6.9 -30.15 6.15 -30.15 5.6 -30.05 5.1 -29.5 4.6 -29.1 4.6 -28.7 4.55 -27.95 4.45 -27.6 4.4 -27.2 4.45 -26.6 4.45 -26.25 4.5 -25.75 4.95 Q-25.55 5.25 -25.5 5.6 L-25.45 5.9 -25.45 6.05 -25.45 6.6 -25.5 7.2 -25.45 7.5 -25.4 8.0 -25.35 8.3 -25.4 8.75 -25.45 9.25 -25.2 10.45 Q-24.95 10.9 -23.9 10.95 L-23.45 10.9 -22.85 10.9 -22.4 10.9 -22.1 10.9 -21.65 10.9 -21.2 10.95 -20.95 10.95 -20.65 10.95 -20.35 10.95 -20.05 10.9 -19.8 10.9 -19.6 10.9 -19.25 10.95 -18.95 10.95 -18.75 10.95 Q-18.15 11.0 -17.7 10.55 -17.25 10.1 -17.25 9.15 L-17.25 8.65 -17.35 7.95 -17.4 7.5 -17.35 6.95 -17.3 6.15 -17.25 5.6 -17.3 5.05 -17.3 4.25 -17.35 3.7 -17.35 2.55 -17.35 1.75 -17.4 0.65 -17.4 -0.15 -17.4 -1.4 -17.3 -2.7 -17.25 -3.1 -17.25 -3.4 -17.3 -4.1 -17.35 -4.75 -17.4 -5.2 -17.4 -5.65 -17.4 -6.5 -17.35 -6.8 -17.3 -7.1 -17.35 -7.35 -17.35 -7.6 -17.3 -8.05 -17.25 -8.6 -17.25 -9.0 Q-17.2 -9.5 -17.5 -9.9 -17.8 -10.3 -18.85 -10.35 L-19.25 -10.3 -19.75 -10.25 -20.1 -10.25 -20.6 -10.3 -21.15 -10.35 -21.55 -10.3 -21.9 -10.25 -22.15 -10.25 -22.55 -10.25 -22.8 -10.25 -23.25 -10.3 -23.7 -10.35 -24.5 -10.25 -24.95 -9.95 -25.3 -9.35 -25.35 -8.8 -25.35 -8.4 -25.35 -8.0 -25.35 -7.5 -25.35 -7.05 -25.35 -6.55 -25.3 -5.9 -25.3 -5.45 -25.4 -4.85 Q-25.55 -4.45 -26.1 -4.2 L-26.7 -4.05 -27.25 -3.95 -27.8 -4.0 -28.7 -4.05 -29.25 -4.1 -29.55 -4.25 -29.95 -4.6 -30.15 -5.3 -30.1 -5.8 -30.1 -6.25 -30.15 -6.65 -30.15 -7.1 -30.2 -7.5 -30.15 -7.85 -30.05 -8.4 -30.0 -8.75 -30.05 -9.35 -30.15 -9.6 -30.5 -10.1 -31.4 -10.35 Z" fill="none" stroke="#000000" stroke-linecap="square" stroke-linejoin="miter-clip" stroke-miterlimit="3.0" stroke-width="4.0"/>
    <path d="M0.0 1.25 L0.25 0.35 0.15 -0.3 -0.1 -0.9 -0.3 -1.2 -1.0 -1.8 Q-1.4 -2.05 -1.7 -2.1 L-1.95 -2.2 -2.15 -2.25 -2.45 -2.35 -2.75 -2.45 -3.2 -2.55 -3.6 -2.55 -4.1 -2.5 -4.6 -2.4 -4.9 -2.25 -5.2 -2.1 -5.75 -1.9 -6.3 -1.65 -6.55 -1.4 -6.9 -0.9 -7.25 -0.3 -7.4 0.3 -7.3 0.85 -7.05 1.35 -6.85 1.6 -6.65 1.85 -6.5 1.95 -6.45 2.15 -6.0 2.45 -5.25 2.85 -4.45 3.05 -4.05 3.05 -3.65 3.05 -3.3 3.0 -2.65 2.95 -2.3 2.9 -1.7 2.75 -1.25 2.45 -1.0 2.2 -0.75 1.95 -0.6 1.9 -0.45 1.8 0.0 1.25 M5.25 -6.1 L5.45 -5.9 5.65 -5.7 6.2 -5.2 6.65 -4.6 6.95 -4.2 7.2 -3.85 7.5 -3.45 7.7 -3.15 7.8 -2.8 7.9 -2.4 8.1 -1.9 8.3 -1.4 8.3 -1.05 8.35 -0.5 8.4 -0.05 8.4 0.15 8.35 0.4 8.3 0.8 8.25 1.2 8.25 1.75 8.25 1.9 8.2 2.15 8.1 2.65 7.95 3.1 7.65 3.7 7.45 4.05 7.3 4.45 7.15 4.8 7.0 5.15 6.75 5.45 6.15 6.25 5.2 7.05 4.8 7.25 4.45 7.4 4.15 7.6 3.9 7.8 3.2 8.15 2.45 8.4 2.05 8.5 1.6 8.6 1.15 8.75 0.75 8.9 0.35 9.0 -0.05 9.05 -0.65 9.2 -1.1 9.2 -1.65 9.25 -2.0 9.3 -2.3 9.35 -3.45 9.35 -3.85 9.3 -4.45 9.25 -4.85 9.25 -5.9 9.25 -6.85 9.2 -7.7 9.0 -8.05 8.9 -8.4 8.75 -8.8 8.65 -9.25 8.55 -9.6 8.4 -9.9 8.25 -10.25 8.05 -10.6 7.85 -11.15 7.55 -11.5 7.3 -11.8 7.1 -12.45 6.5 -13.0 6.0 -13.15 5.8 -13.35 5.65 -13.85 5.2 -14.3 4.7 -14.45 4.35 -14.8 3.4 -15.05 2.75 -15.25 2.1 -15.25 1.45 -15.25 1.2 -15.3 0.8 -15.3 0.55 -15.3 0.2 -15.25 -0.05 -15.1 -0.6 -15.0 -1.15 -14.95 -1.65 -14.9 -2.1 -14.55 -2.9 -14.05 -3.9 -13.75 -4.4 -13.55 -4.65 -13.25 -5.1 -12.95 -5.45 -12.65 -5.7 -12.15 -6.05 -11.75 -6.35 -10.85 -7.05 -9.45 -7.75 -8.75 -8.0 -7.65 -8.3 -7.0 -8.45 -6.55 -8.55 -6.1 -8.65 -5.8 -8.65 -5.45 -8.7 -4.95 -8.75 -4.2 -8.75 -3.7 -8.8 -3.25 -8.75 -2.2 -8.7 -1.0 -8.6 -0.1 -8.45 0.45 -8.3 1.35 -8.0 2.05 -7.75 2.35 -7.6 2.75 -7.45 3.3 -7.3 3.8 -7.1 4.8 -6.55 5.25 -6.1" fill="#000000" fill-rule="evenodd" stroke="none"/>
    <path d="M5.25 -6.1 L4.8 -6.55 3.8 -7.1 3.3 -7.3 2.75 -7.45 2.35 -7.6 2.05 -7.75 1.35 -8.0 0.45 -8.3 -0.1 -8.45 -1.0 -8.6 -2.2 -8.7 -3.25 -8.75 -3.7 -8.8 -4.2 -8.75 -4.95 -8.75 -5.45 -8.7 -5.8 -8.65 -6.1 -8.65 -6.55 -8.55 -7.0 -8.45 -7.65 -8.3 -8.75 -8.0 -9.45 -7.75 -10.85 -7.05 -11.75 -6.35 -12.15 -6.05 -12.65 -5.7 -12.95 -5.45 -13.25 -5.1 -13.55 -4.65 -13.75 -4.4 -14.05 -3.9 -14.55 -2.9 -14.9 -2.1 -14.95 -1.65 -15.0 -1.15 -15.1 -0.6 -15.25 -0.05 -15.3 0.2 -15.3 0.55 -15.3 0.8 -15.25 1.2 -15.25 1.45 -15.25 2.1 -15.05 2.75 -14.8 3.4 -14.45 4.35 -14.3 4.7 -13.85 5.2 -13.35 5.65 -13.15 5.8 -13.0 6.0 -12.45 6.5 -11.8 7.1 -11.5 7.3 -11.15 7.55 -10.6 7.85 -10.25 8.05 -9.9 8.25 -9.6 8.4 -9.25 8.55 -8.8 8.65 -8.4 8.75 -8.05 8.9 -7.7 9.0 -6.85 9.2 -5.9 9.25 -4.85 9.25 -4.45 9.25 -3.85 9.3 -3.45 9.35 -2.3 9.35 -2.0 9.3 -1.65 9.25 -1.1 9.2 -0.65 9.2 -0.05 9.05 0.35 9.0 0.75 8.9 1.15 8.75 1.6 8.6 2.05 8.5 2.45 8.4 3.2 8.15 3.9 7.8 4.15 7.6 4.45 7.4 4.8 7.25 5.2 7.05 6.15 6.25 6.75 5.45 7.0 5.15 7.15 4.8 7.3 4.45 7.45 4.05 7.65 3.7 7.95 3.1 8.1 2.65 8.2 2.15 8.25 1.9 8.25 1.75 8.25 1.2 8.3 0.8 8.35 0.4 8.4 0.15 8.4 -0.05 8.35 -0.5 8.3 -1.05 8.3 -1.4 8.1 -1.9 7.9 -2.4 7.8 -2.8 7.7 -3.15 7.5 -3.45 7.2 -3.85 6.95 -4.2 6.65 -4.6 6.2 -5.2 5.65 -5.7 5.45 -5.9 5.25 -6.1 M0.0 1.25 L-0.45 1.8 -0.6 1.9 -0.75 1.95 -1.0 2.2 -1.25 2.45 -1.7 2.75 -2.3 2.9 -2.65 2.95 -3.3 3.0 -3.65 3.05 -4.05 3.05 -4.45 3.05 -5.25 2.85 -6.0 2.45 -6.45 2.15 -6.5 1.95 -6.65 1.85 -6.85 1.6 -7.05 1.35 -7.3 0.85 -7.4 0.3 -7.25 -0.3 -6.9 -0.9 -6.55 -1.4 -6.3 -1.65 -5.75 -1.9 -5.2 -2.1 -4.9 -2.25 -4.6 -2.4 -4.1 -2.5 -3.6 -2.55 -3.2 -2.55 -2.75 -2.45 -2.45 -2.35 -2.15 -2.25 -1.95 -2.2 -1.7 -2.1 Q-1.4 -2.05 -1.0 -1.8 L-0.3 -1.2 -0.1 -0.9 0.15 -0.3 0.25 0.35 0.0 1.25 Z" fill="none" stroke="#000000" stroke-linecap="square" stroke-linejoin="miter-clip" stroke-miterlimit="3.0" stroke-width="4.0"/>
    <path d="M18.0 -10.2 L18.75 -9.55 19.0 -9.0 19.35 -8.5 19.5 -8.25 19.75 -7.95 20.25 -7.35 20.55 -6.9 20.85 -6.55 21.35 -6.0 21.75 -5.65 22.1 -5.45 22.65 -5.7 22.85 -6.0 23.0 -6.2 23.25 -6.4 23.45 -6.7 23.75 -7.2 23.9 -7.65 24.05 -7.85 24.2 -8.05 24.4 -8.35 24.55 -8.65 24.8 -9.1 25.15 -9.5 25.3 -9.65 25.45 -9.75 25.6 -9.95 25.8 -10.1 26.05 -10.25 26.3 -10.25 26.8 -10.3 27.25 -10.35 28.0 -10.35 28.05 -10.3 28.4 -10.3 29.05 -10.3 29.65 -10.35 30.45 -10.4 31.25 -10.4 32.9 -10.1 Q33.45 -9.75 33.45 -8.85 L33.45 -8.45 33.4 -8.15 33.3 -6.95 33.3 -6.05 33.3 -5.45 33.3 -4.65 33.35 -4.0 33.4 -3.55 33.4 -3.1 33.4 -2.55 33.35 -1.55 33.3 -0.45 33.25 0.3 33.25 0.85 33.3 1.6 33.3 2.2 33.3 3.85 33.35 4.4 33.4 5.0 33.4 6.45 33.45 7.1 33.5 8.05 33.55 8.7 33.55 9.0 33.5 9.5 33.3 10.25 32.5 10.85 31.9 10.9 31.3 10.95 31.0 10.9 30.7 10.9 30.15 10.85 29.4 10.85 28.85 10.85 28.6 10.85 28.4 10.9 28.05 10.9 27.5 10.95 27.15 10.95 Q25.95 10.95 25.55 10.6 25.2 10.2 25.25 9.4 L25.25 8.85 25.3 8.35 25.25 7.95 25.2 7.4 25.15 7.0 25.15 6.7 25.2 6.4 25.2 6.05 25.25 5.75 25.25 5.5 25.25 5.1 25.2 4.65 25.2 4.25 25.25 3.7 25.25 3.3 25.1 2.75 24.8 2.55 24.35 2.85 23.9 3.25 23.8 3.4 23.65 3.6 23.4 3.75 23.2 4.0 23.1 4.15 22.95 4.3 22.4 4.85 21.9 5.1 21.7 5.05 21.55 5.0 21.3 4.85 20.9 4.55 20.7 4.35 20.45 4.15 20.25 3.95 20.1 3.75 19.4 3.05 19.15 3.0 18.8 3.05 18.6 3.45 18.65 3.75 18.7 4.1 18.75 4.3 18.75 4.55 18.7 5.0 18.7 5.5 18.75 5.9 18.75 6.5 18.8 6.9 18.75 7.4 18.7 8.0 18.65 8.45 18.7 8.95 18.7 9.55 18.75 9.9 Q18.7 10.6 18.35 10.75 L17.4 10.9 16.95 10.9 16.35 10.85 15.9 10.8 15.45 10.85 14.95 10.9 14.35 10.85 13.75 10.8 13.25 10.85 12.7 10.9 11.95 10.9 11.35 10.85 10.75 10.5 10.35 9.8 10.3 8.95 10.3 8.65 10.35 7.95 10.45 7.25 10.5 6.35 10.55 5.25 10.55 4.5 10.55 3.75 10.5 2.7 10.45 1.95 10.5 1.0 10.55 -0.3 10.55 -1.3 10.55 -1.7 10.55 -2.25 10.55 -2.7 10.55 -3.25 10.6 -4.0 10.6 -4.55 10.6 -5.2 10.55 -5.9 10.4 -7.15 10.35 -8.15 10.45 -9.3 11.05 -10.15 11.45 -10.3 12.45 -10.4 13.15 -10.35 14.15 -10.3 14.9 -10.25 15.3 -10.3 15.95 -10.3 16.6 -10.35 17.0 -10.35 18.0 -10.2" fill="#000000" fill-rule="evenodd" stroke="none"/>
    <path d="M18.0 -10.2 L17.0 -10.35 16.6 -10.35 15.95 -10.3 15.3 -10.3 14.9 -10.25 14.15 -10.3 13.15 -10.35 12.45 -10.4 11.45 -10.3 11.05 -10.15 10.45 -9.3 10.35 -8.15 10.4 -7.15 10.55 -5.9 10.6 -5.2 10.6 -4.55 10.6 -4.0 10.55 -3.25 10.55 -2.7 10.55 -2.25 10.55 -1.7 10.55 -1.3 10.55 -0.3 10.5 1.0 10.45 1.95 10.5 2.7 10.55 3.75 10.55 4.5 10.55 5.25 10.5 6.35 10.45 7.25 10.35 7.95 10.3 8.65 10.3 8.95 10.35 9.8 10.75 10.5 11.35 10.85 11.95 10.9 12.7 10.9 13.25 10.85 13.75 10.8 14.35 10.85 14.95 10.9 15.45 10.85 15.9 10.8 16.35 10.85 16.95 10.9 17.4 10.9 18.35 10.75 Q18.7 10.6 18.75 9.9 L18.7 9.55 18.7 8.95 18.65 8.45 18.7 8.0 18.75 7.4 18.8 6.9 18.75 6.5 18.75 5.9 18.7 5.5 18.7 5.0 18.75 4.55 18.75 4.3 18.7 4.1 18.65 3.75 18.6 3.45 18.8 3.05 19.15 3.0 19.4 3.05 20.1 3.75 20.25 3.95 20.45 4.15 20.7 4.35 20.9 4.55 21.3 4.85 21.55 5.0 21.7 5.05 21.9 5.1 22.4 4.85 22.95 4.3 23.1 4.15 23.2 4.0 23.4 3.75 23.65 3.6 23.8 3.4 23.9 3.25 24.35 2.85 24.8 2.55 25.1 2.75 25.25 3.3 25.25 3.7 25.2 4.25 25.2 4.65 25.25 5.1 25.25 5.5 25.25 5.75 25.2 6.05 25.2 6.4 25.15 6.7 25.15 7.0 25.2 7.4 25.25 7.95 25.3 8.35 25.25 8.85 25.25 9.4 Q25.2 10.2 25.55 10.6 25.95 10.95 27.15 10.95 L27.5 10.95 28.05 10.9 28.4 10.9 28.6 10.85 28.85 10.85 29.4 10.85 30.15 10.85 30.7 10.9 31.0 10.9 31.3 10.95 31.9 10.9 32.5 10.85 33.3 10.25 33.5 9.5 33.55 9.0 33.55 8.7 33.5 8.05 33.45 7.1 33.4 6.45 33.4 5.0 33.35 4.4 33.3 3.85 33.3 2.2 33.3 1.6 33.25 0.85 33.25 0.3 33.3 -0.45 33.35 -1.55 33.4 -2.55 33.4 -3.1 33.4 -3.55 33.35 -4.0 33.3 -4.65 33.3 -5.45 33.3 -6.05 33.3 -6.95 33.4 -8.15 33.45 -8.45 33.45 -8.85 Q33.45 -9.75 32.9 -10.1 L31.25 -10.4 30.45 -10.4 29.65 -10.35 29.05 -10.3 28.4 -10.3 28.05 -10.3 28.0 -10.35 27.25 -10.35 26.8 -10.3 26.3 -10.25 26.05 -10.25 25.8 -10.1 25.6 -9.95 25.45 -9.75 25.3 -9.65 25.15 -9.5 24.8 -9.1 24.55 -8.65 24.4 -8.35 24.2 -8.05 24.05 -7.85 23.9 -7.65 23.75 -7.2 23.45 -6.7 23.25 -6.4 23.0 -6.2 22.85 -6.0 22.65 -5.7 22.1 -5.45 21.75 -5.65 21.35 -6.0 20.85 -6.55 20.55 -6.9 20.25 -7.35 19.75 -7.95 19.5 -8.25 19.35 -8.5 19.0 -9.0 18.75 -9.55 18.0 -10.2 Z" fill="none" stroke="#000000" stroke-linecap="square" stroke-linejoin="miter-clip" stroke-miterlimit="3.0" stroke-width="4.0"/>
    <path d="M44.2 -4.25 Q43.9 -3.95 43.85 -3.1 L43.9 -2.55 43.9 -2.05 43.85 -1.5 43.8 -1.0 Q43.8 -0.5 44.0 -0.3 44.2 -0.05 44.45 -0.05 L44.85 0.0 45.15 0.0 45.4 -0.1 45.8 -0.2 46.05 -0.25 46.35 -0.3 46.75 -0.35 47.1 -0.5 47.75 -1.15 48.05 -2.35 Q48.0 -3.25 47.55 -3.7 L46.55 -4.35 46.1 -4.5 45.5 -4.6 45.2 -4.6 44.9 -4.65 Q44.5 -4.65 44.2 -4.25 M37.25 -13.25 L37.55 -13.25 37.95 -13.25 38.35 -13.2 38.65 -13.2 39.55 -13.2 40.55 -13.35 41.45 -13.35 42.4 -13.35 42.9 -13.35 43.6 -13.4 44.15 -13.4 44.85 -13.35 46.1 -13.2 47.55 -13.0 48.75 -12.7 49.0 -12.55 49.2 -12.5 49.6 -12.4 49.95 -12.25 50.4 -12.05 50.8 -11.85 51.55 -11.4 52.15 -10.9 53.0 -10.1 54.25 -8.75 55.05 -7.35 55.25 -6.7 55.45 -6.1 55.85 -4.5 55.9 -2.9 55.9 -2.5 55.8 -1.65 55.75 -1.0 55.7 -0.35 55.65 0.4 55.5 1.15 55.35 1.65 54.95 2.7 54.25 3.85 53.9 4.3 53.5 4.75 53.25 5.05 52.95 5.45 52.65 5.75 52.35 6.0 52.1 6.25 51.85 6.6 51.15 7.05 Q50.7 7.3 50.2 7.5 L49.35 7.85 48.2 8.15 46.75 8.25 45.45 8.3 44.85 8.3 44.25 8.75 Q43.95 9.1 43.95 9.8 L43.95 10.35 44.05 11.2 44.15 11.95 44.2 12.2 43.9 13.35 43.3 13.75 42.65 13.9 42.3 13.8 41.8 13.8 41.45 13.8 41.05 13.9 40.4 13.9 39.95 13.95 39.7 13.9 39.35 13.9 38.95 13.8 38.7 13.8 38.2 13.9 37.55 13.9 37.05 13.95 Q36.2 13.9 35.9 13.45 35.55 13.0 35.55 12.2 L35.6 11.5 35.65 10.45 35.7 9.65 35.7 8.0 35.7 7.25 35.7 6.45 35.75 5.75 35.8 5.05 35.8 4.7 35.75 3.85 35.7 2.65 35.65 1.65 35.65 0.95 35.7 0.25 35.7 -0.35 35.75 -1.35 35.75 -2.05 35.75 -2.55 35.7 -3.3 35.7 -3.9 35.75 -4.9 35.8 -6.5 35.8 -7.6 35.8 -8.3 35.75 -9.25 35.7 -9.75 35.65 -10.55 35.6 -11.1 35.7 -11.95 36.0 -12.7 Q36.3 -13.15 36.7 -13.2 L37.25 -13.25" fill="#000000" fill-rule="evenodd" stroke="none"/>
    <path d="M37.25 -13.25 L36.7 -13.2 Q36.3 -13.15 36.0 -12.7 L35.7 -11.95 35.6 -11.1 35.65 -10.55 35.7 -9.75 35.75 -9.25 35.8 -8.3 35.8 -7.6 35.8 -6.5 35.75 -4.9 35.7 -3.9 35.7 -3.3 35.75 -2.55 35.75 -2.05 35.75 -1.35 35.7 -0.35 35.7 0.25 35.65 0.95 35.65 1.65 35.7 2.65 35.75 3.85 35.8 4.7 35.8 5.05 35.75 5.75 35.7 6.45 35.7 7.25 35.7 8.0 35.7 9.65 35.65 10.45 35.6 11.5 35.55 12.2 Q35.55 13.0 35.9 13.45 36.2 13.9 37.05 13.95 L37.55 13.9 38.2 13.9 38.7 13.8 38.95 13.8 39.35 13.9 39.7 13.9 39.95 13.95 40.4 13.9 41.05 13.9 41.45 13.8 41.8 13.8 42.3 13.8 42.65 13.9 43.3 13.75 43.9 13.35 44.2 12.2 44.15 11.95 44.05 11.2 43.95 10.35 43.95 9.8 Q43.95 9.1 44.25 8.75 L44.85 8.3 45.45 8.3 46.75 8.25 48.2 8.15 49.35 7.85 50.2 7.5 Q50.7 7.3 51.15 7.05 L51.85 6.6 52.1 6.25 52.35 6.0 52.65 5.75 52.95 5.45 53.25 5.05 53.5 4.75 53.9 4.3 54.25 3.85 54.95 2.7 55.35 1.65 55.5 1.15 55.65 0.4 55.7 -0.35 55.75 -1.0 55.8 -1.65 55.9 -2.5 55.9 -2.9 55.85 -4.5 55.45 -6.1 55.25 -6.7 55.05 -7.35 54.25 -8.75 53.0 -10.1 52.15 -10.9 51.55 -11.4 50.8 -11.85 50.4 -12.05 49.95 -12.25 49.6 -12.4 49.2 -12.5 49.0 -12.55 48.75 -12.7 47.55 -13.0 46.1 -13.2 44.85 -13.35 44.15 -13.4 43.6 -13.4 42.9 -13.35 42.4 -13.35 41.45 -13.35 40.55 -13.35 39.55 -13.2 38.65 -13.2 38.35 -13.2 37.95 -13.25 37.55 -13.25 37.25 -13.25 M44.2 -4.25 Q44.5 -4.65 44.9 -4.65 L45.2 -4.6 45.5 -4.6 46.1 -4.5 46.55 -4.35 47.55 -3.7 Q48.0 -3.25 48.05 -2.35 L47.75 -1.15 47.1 -0.5 46.75 -0.35 46.35 -0.3 46.05 -0.25 45.8 -0.2 45.4 -0.1 45.15 0.0 44.85 0.0 44.45 -0.05 Q44.2 -0.05 44.0 -0.3 43.8 -0.5 43.8 -1.0 L43.85 -1.5 43.9 -2.05 43.9 -2.55 43.85 -3.1 Q43.9 -3.95 44.2 -4.25 Z" fill="none" stroke="#000000" stroke-linecap="square" stroke-linejoin="miter-clip" stroke-miterlimit="3.0" stroke-width="4.0"/>
    <path d="M-14.45 -20.15 L-7.15 -19.6 -11.25 -13.6 -14.45 -20.15" fill="#ffffff" fill-opacity="0.49803922" fill-rule="evenodd" stroke="none"/>
    <path d="M-14.45 -20.15 L-7.15 -19.6 -11.25 -13.6 -14.45 -20.15 Z" fill="none" stroke="#000000" stroke-linecap="square" stroke-linejoin="miter-clip" stroke-miterlimit="3.0" stroke-opacity="0.49803922" stroke-width="1.0"/>
    <path d="M-0.7 -17.95 L8.25 -19.7 5.3 -11.1 -0.7 -17.95" fill="#ffffff" fill-opacity="0.49803922" fill-rule="evenodd" stroke="none"/>
    <path d="M-0.7 -17.95 L8.25 -19.7 5.3 -11.1 -0.7 -17.95 Z" fill="none" stroke="#000000" stroke-linecap="square" stroke-linejoin="miter-clip" stroke-miterlimit="3.0" stroke-opacity="0.49803922" stroke-width="1.0"/>
    <path d="M16.0 -21.75 L25.1 -22.8 21.6 -13.15 16.0 -21.75" fill="#ffffff" fill-opacity="0.49803922" fill-rule="evenodd" stroke="none"/>
    <path d="M16.0 -21.75 L25.1 -22.8 21.6 -13.15 16.0 -21.75 Z" fill="none" stroke="#000000" stroke-linecap="square" stroke-linejoin="miter-clip" stroke-miterlimit="3.0" stroke-opacity="0.49803922" stroke-width="1.0"/>
    <path d="M-31.65 -23.15 L-22.5 -23.15 -27.05 -13.9 -31.65 -23.15" fill="#ffffff" fill-opacity="0.49803922" fill-rule="evenodd" stroke="none"/>
    <path d="M-31.65 -23.15 L-22.5 -23.15 -27.05 -13.9 -31.65 -23.15 Z" fill="none" stroke="#000000" stroke-linecap="square" stroke-linejoin="miter-clip" stroke-miterlimit="3.0" stroke-opacity="0.49803922" stroke-width="1.0"/>
    <path d="M-8.5 20.3 L-15.7 18.95 -10.9 13.45 -8.5 20.3" fill="#ffffff" fill-opacity="0.49803922" fill-rule="evenodd" stroke="none"/>
    <path d="M-8.5 20.3 L-15.7 18.95 -10.9 13.45 -8.5 20.3 Z" fill="none" stroke="#000000" stroke-linecap="square" stroke-linejoin="miter-clip" stroke-miterlimit="3.0" stroke-opacity="0.49803922" stroke-width="1.0"/>
    <path d="M7.45 21.75 L-1.6 23.0 1.8 14.5 7.45 21.75" fill="#ffffff" fill-opacity="0.49803922" fill-rule="evenodd" stroke="none"/>
    <path d="M7.45 21.75 L-1.6 23.0 1.8 14.5 7.45 21.75 Z" fill="none" stroke="#000000" stroke-linecap="square" stroke-linejoin="miter-clip" stroke-miterlimit="3.0" stroke-opacity="0.49803922" stroke-width="1.0"/>
    <path d="M-21.1 20.95 L-30.1 22.55 -26.95 13.95 -21.1 20.95" fill="#ffffff" fill-opacity="0.49803922" fill-rule="evenodd" stroke="none"/>
    <path d="M-21.1 20.95 L-30.1 22.55 -26.95 13.95 -21.1 20.95 Z" fill="none" stroke="#000000" stroke-linecap="square" stroke-linejoin="miter-clip" stroke-miterlimit="3.0" stroke-opacity="0.49803922" stroke-width="1.0"/>
    <path d="M-35.25 22.3 L-41.4 20.5 -36.75 16.1 -35.25 22.3" fill="#ffffff" fill-opacity="0.49803922" fill-rule="evenodd" stroke="none"/>
    <path d="M-35.25 22.3 L-41.4 20.5 -36.75 16.1 -35.25 22.3 Z" fill="none" stroke="#000000" stroke-linecap="square" stroke-linejoin="miter-clip" stroke-miterlimit="3.0" stroke-opacity="0.49803922" stroke-width="1.0"/>
    <path d="M17.2 18.85 L12.95 20.5 13.6 15.95 17.2 18.85" fill="#ffffff" fill-opacity="0.49803922" fill-rule="evenodd" stroke="none"/>
    <path d="M17.2 18.85 L12.95 20.5 13.6 15.95 17.2 18.85 Z" fill="none" stroke="#000000" stroke-linecap="square" stroke-linejoin="miter-clip" stroke-miterlimit="3.0" stroke-opacity="0.49803922" stroke-width="1.0"/>
    <path d="M31.5 -23.15 L36.7 -21.4 32.65 -17.75 31.5 -23.15" fill="#ffffff" fill-opacity="0.49803922" fill-rule="evenodd" stroke="none"/>
    <path d="M31.5 -23.15 L36.7 -21.4 32.65 -17.75 31.5 -23.15 Z" fill="none" stroke="#000000" stroke-linecap="square" stroke-linejoin="miter-clip" stroke-miterlimit="3.0" stroke-opacity="0.49803922" stroke-width="1.0"/>
    <path d="M-43.1 -22.1 L-38.85 -23.8 -39.5 -19.3 -43.1 -22.1" fill="#ffffff" fill-opacity="0.49803922" fill-rule="evenodd" stroke="none"/>
    <path d="M-43.1 -22.1 L-38.85 -23.8 -39.5 -19.3 -43.1 -22.1 Z" fill="none" stroke="#000000" stroke-linecap="square" stroke-linejoin="miter-clip" stroke-miterlimit="3.0" stroke-opacity="0.49803922" stroke-width="1.0"/>
    <path d="M29.05 20.35 L23.45 22.5 24.25 16.25 29.05 20.35" fill="#ffffff" fill-opacity="0.49803922" fill-rule="evenodd" stroke="none"/>
    <path d="M29.05 20.35 L23.45 22.5 24.25 16.25 29.05 20.35 Z" fill="none" stroke="#000000" stroke-linecap="square" stroke-linejoin="miter-clip" stroke-miterlimit="3.0" stroke-opacity="0.49803922" stroke-width="1.0"/>
    <path d="M-51.75 -18.5 L-59.25 -23.25" fill="none" stroke="#000000" stroke-linecap="square" stroke-linejoin="miter-clip" stroke-miterlimit="3.0" stroke-opacity="0.49803922" stroke-width="1.0"/>
    <path d="M-56.0 -16.0 L-66.0 -18.75" fill="none" stroke="#000000" stroke-linecap="square" stroke-linejoin="miter-clip" stroke-miterlimit="3.0" stroke-opacity="0.49803922" stroke-width="1.0"/>
    <path d="M-59.25 -12.0 L-65.25 -13.25" fill="none" stroke="#000000" stroke-linecap="square" stroke-linejoin="miter-clip" stroke-miterlimit="3.0" stroke-opacity="0.49803922" stroke-width="1.0"/>
    <path d="M-59.25 12.5 L-63.75 13.5" fill="none" stroke="#000000" stroke-linecap="square" stroke-linejoin="miter-clip" stroke-miterlimit="3.0" stroke-opacity="0.49803922" stroke-width="1.0"/>
    <path d="M-56.0 15.75 L-62.75 21.5" fill="none" stroke="#000000" stroke-linecap="square" stroke-linejoin="miter-clip" stroke-miterlimit="3.0" stroke-opacity="0.49803922" stroke-width="1.0"/>
    <path d="M-49.75 18.5 L-55.75 27.0" fill="none" stroke="#000000" stroke-linecap="square" stroke-linejoin="miter-clip" stroke-miterlimit="3.0" stroke-opacity="0.49803922" stroke-width="1.0"/>
    <path d="M50.0 -21.25 L55.75 -27.5" fill="none" stroke="#000000" stroke-linecap="square" stroke-linejoin="miter-clip" stroke-miterlimit="3.0" stroke-opacity="0.49803922" stroke-width="1.0"/>
    <path d="M55.0 -17.5 L65.75 -20.75" fill="none" stroke="#000000" stroke-linecap="square" stroke-linejoin="miter-clip" stroke-miterlimit="3.0" stroke-opacity="0.49803922" stroke-width="1.0"/>
    <path d="M41.75 21.5 L50.0 32.5" fill="none" stroke="#000000" stroke-linecap="square" stroke-linejoin="miter-clip" stroke-miterlimit="3.0" stroke-opacity="0.49803922" stroke-width="1.0"/>
    <path d="M47.75 19.5 L62.0 26.0" fill="none" stroke="#000000" stroke-linecap="square" stroke-linejoin="miter-clip" stroke-miterlimit="3.0" stroke-opacity="0.49803922" stroke-width="1.0"/>
    <path d="M52.0 15.0 L63.5 16.75" fill="none" stroke="#000000" stroke-linecap="square" stroke-linejoin="miter-clip" stroke-miterlimit="3.0" stroke-opacity="0.49803922" stroke-width="1.0"/>
    <path d="M-51.5 -11.1 L-50.5 -12.05 -49.55 -12.55 -48.05 -13.1 -46.7 -13.4 -45.3 -13.55 -44.05 -13.55 -42.65 -13.4 Q-42.0 -13.35 -41.55 -13.1 L-41.1 -12.85 -40.65 -12.25 -40.6 -11.7 -40.6 -10.95 -40.65 -10.2 -40.7 -9.2 -40.7 -8.35 -40.7 -8.1 -40.65 -7.25 -40.55 -6.0 -40.5 -5.1 -40.7 -3.65 Q-40.9 -3.2 -41.2 -3.05 L-41.8 -2.9 -42.15 -3.0 -42.6 -3.05 -42.95 -3.05 -43.5 -3.0 -44.0 -2.9 -44.85 -3.0 -45.9 -2.75 -46.45 -2.35 -47.1 -1.6 Q-47.45 -1.0 -47.45 0.2 L-47.45 0.65 -47.35 1.1 -47.1 1.85 -46.75 2.65 Q-46.45 3.1 -45.95 3.35 L-45.0 3.65 -44.35 3.8 -43.45 3.6 -42.4 3.4 -42.2 3.4 Q-41.2 3.4 -40.75 3.95 -40.35 4.6 -40.4 6.0 L-40.4 6.65 -40.4 7.5 -40.4 8.15 -40.4 9.15 -40.35 10.15 -40.3 10.85 -40.3 11.4 -40.35 12.0 -40.55 12.6 -41.15 13.3 Q-41.55 13.7 -42.0 13.75 L-42.4 13.8 -43.0 13.9 -43.4 13.9 -44.1 13.95 -45.0 14.0 -45.65 13.95 -46.65 13.7 -47.55 13.55 -48.45 13.35 -49.2 13.15 -49.9 12.85 -51.1 12.1 Q-51.8 11.6 -52.6 10.3 L-53.0 9.65 -53.35 9.1 -53.6 8.65 -53.85 8.25 -54.65 6.65 Q-55.05 5.5 -55.3 3.1 L-55.35 2.45 -55.4 1.8 -55.55 0.35 -55.6 -0.3 -55.55 -1.45 -55.45 -2.8 -55.3 -3.9 -55.0 -4.85 -54.7 -5.75 -54.45 -6.55 -54.2 -7.4 -53.9 -8.1 -53.55 -8.75 -53.1 -9.45 -52.5 -10.15 -51.5 -11.1" fill="#ffffff" fill-rule="evenodd" stroke="none"/>
    <path d="M-31.4 -10.35 L-30.5 -10.1 -30.15 -9.6 -30.05 -9.35 -30.0 -8.75 -30.05 -8.4 -30.15 -7.85 -30.2 -7.5 -30.15 -7.1 -30.15 -6.65 -30.1 -6.25 -30.1 -5.8 -30.15 -5.3 -29.95 -4.6 -29.55 -4.25 -29.25 -4.1 -28.7 -4.05 -27.8 -4.0 -27.25 -3.95 -26.7 -4.05 -26.1 -4.2 Q-25.55 -4.45 -25.4 -4.85 L-25.3 -5.45 -25.3 -5.9 -25.35 -6.55 -25.35 -7.05 -25.35 -7.5 -25.35 -8.0 -25.35 -8.4 -25.35 -8.8 -25.3 -9.35 -24.95 -9.95 -24.5 -10.25 -23.7 -10.35 -23.25 -10.3 -22.8 -10.25 -22.55 -10.25 -22.15 -10.25 -21.9 -10.25 -21.55 -10.3 -21.15 -10.35 -20.6 -10.3 -20.1 -10.25 -19.75 -10.25 -19.25 -10.3 -18.85 -10.35 Q-17.8 -10.3 -17.5 -9.9 -17.2 -9.5 -17.25 -9.0 L-17.25 -8.6 -17.3 -8.05 -17.35 -7.6 -17.35 -7.35 -17.3 -7.1 -17.35 -6.8 -17.4 -6.5 -17.4 -5.65 -17.4 -5.2 -17.35 -4.75 -17.3 -4.1 -17.25 -3.4 -17.25 -3.1 -17.3 -2.7 -17.4 -1.4 -17.4 -0.15 -17.4 0.65 -17.35 1.75 -17.35 2.55 -17.35 3.7 -17.3 4.25 -17.3 5.05 -17.25 5.6 -17.3 6.15 -17.35 6.95 -17.4 7.5 -17.35 7.95 -17.25 8.65 -17.25 9.15 Q-17.25 10.1 -17.7 10.55 -18.15 11.0 -18.75 10.95 L-18.95 10.95 -19.25 10.95 -19.6 10.9 -19.8 10.9 -20.05 10.9 -20.35 10.95 -20.65 10.95 -20.95 10.95 -21.2 10.95 -21.65 10.9 -22.1 10.9 -22.4 10.9 -22.85 10.9 -23.45 10.9 -23.9 10.95 Q-24.95 10.9 -25.2 10.45 L-25.45 9.25 -25.4 8.75 -25.35 8.3 -25.4 8.0 -25.45 7.5 -25.5 7.2 -25.45 6.6 -25.45 6.05 -25.45 5.9 -25.5 5.6 Q-25.55 5.25 -25.75 4.95 L-26.25 4.5 -26.6 4.45 -27.2 4.45 -27.6 4.4 -27.95 4.45 -28.7 4.55 -29.1 4.6 -29.5 4.6 -30.05 5.1 -30.15 5.6 -30.15 6.15 -30.1 6.9 -30.1 7.5 -30.15 8.0 -30.15 8.5 -30.1 8.9 -30.05 9.35 -30.15 9.95 -30.5 10.65 -31.55 10.95 -31.85 10.95 -32.3 10.9 -32.8 10.85 -33.15 10.85 -33.55 10.85 -33.95 10.9 -34.5 10.85 -35.0 10.85 -35.5 10.85 -36.2 10.9 -36.7 10.9 -37.9 10.65 Q-38.3 10.45 -38.4 9.9 L-38.4 9.45 -38.4 8.8 -38.4 8.35 -38.4 7.95 -38.4 7.65 -38.35 7.35 -38.3 6.95 -38.3 6.65 -38.35 5.9 -38.35 4.8 -38.4 4.05 -38.4 3.75 -38.35 3.4 -38.35 3.35 -38.4 3.0 -38.4 2.5 -38.4 2.15 -38.4 1.9 -38.35 1.65 -38.3 0.8 -38.3 0.0 -38.3 -0.35 -38.3 -0.8 -38.3 -1.15 -38.3 -2.55 -38.35 -2.9 -38.35 -3.25 -38.35 -3.75 -38.3 -4.25 -38.3 -4.65 -38.25 -5.2 -38.25 -5.6 -38.25 -6.2 -38.3 -6.95 -38.4 -7.6 -38.45 -8.25 -38.4 -8.55 -38.35 -9.05 -38.35 -9.35 -37.95 -10.05 -37.25 -10.35 -37.0 -10.35 -36.7 -10.3 -36.5 -10.3 -36.05 -10.25 -35.6 -10.25 -35.1 -10.35 -34.75 -10.4 -34.6 -10.4 -34.25 -10.4 -33.6 -10.35 -32.95 -10.3 -32.55 -10.25 -32.3 -10.3 -32.0 -10.35 -31.65 -10.35 -31.4 -10.35" fill="#ffffff" fill-rule="evenodd" stroke="none"/>
    <path d="M0.0 1.25 L0.25 0.35 0.15 -0.3 -0.1 -0.9 -0.3 -1.2 -1.0 -1.8 Q-1.4 -2.05 -1.7 -2.1 L-1.95 -2.2 -2.15 -2.25 -2.45 -2.35 -2.75 -2.45 -3.2 -2.55 -3.6 -2.55 -4.1 -2.5 -4.6 -2.4 -4.9 -2.25 -5.2 -2.1 -5.75 -1.9 -6.3 -1.65 -6.55 -1.4 -6.9 -0.9 -7.25 -0.3 -7.4 0.3 -7.3 0.85 -7.05 1.35 -6.85 1.6 -6.65 1.85 -6.5 1.95 -6.45 2.15 -6.0 2.45 -5.25 2.85 -4.45 3.05 -4.05 3.05 -3.65 3.05 -3.3 3.0 -2.65 2.95 -2.3 2.9 -1.7 2.75 -1.25 2.45 -1.0 2.2 -0.75 1.95 -0.6 1.9 -0.45 1.8 0.0 1.25 M5.25 -6.1 L5.45 -5.9 5.65 -5.7 6.2 -5.2 6.65 -4.6 6.95 -4.2 7.2 -3.85 7.5 -3.45 7.7 -3.15 7.8 -2.8 7.9 -2.4 8.1 -1.9 8.3 -1.4 8.3 -1.05 8.35 -0.5 8.4 -0.05 8.4 0.15 8.35 0.4 8.3 0.8 8.25 1.2 8.25 1.75 8.25 1.9 8.2 2.15 8.1 2.65 7.95 3.1 7.65 3.7 7.45 4.05 7.3 4.45 7.15 4.8 7.0 5.15 6.75 5.45 6.15 6.25 5.2 7.05 4.8 7.25 4.45 7.4 4.15 7.6 3.9 7.8 3.2 8.15 2.45 8.4 2.05 8.5 1.6 8.6 1.15 8.75 0.75 8.9 0.35 9.0 -0.05 9.05 -0.65 9.2 -1.1 9.2 -1.65 9.25 -2.0 9.3 -2.3 9.35 -3.45 9.35 -3.85 9.3 -4.45 9.25 -4.85 9.25 -5.9 9.25 -6.85 9.2 -7.7 9.0 -8.05 8.9 -8.4 8.75 -8.8 8.65 -9.25 8.55 -9.6 8.4 -9.9 8.25 -10.25 8.05 -10.6 7.85 -11.15 7.55 -11.5 7.3 -11.8 7.1 -12.45 6.5 -13.0 6.0 -13.15 5.8 -13.35 5.65 -13.85 5.2 -14.3 4.7 -14.45 4.35 -14.8 3.4 -15.05 2.75 -15.25 2.1 -15.25 1.45 -15.25 1.2 -15.3 0.8 -15.3 0.55 -15.3 0.2 -15.25 -0.05 -15.1 -0.6 -15.0 -1.15 -14.95 -1.65 -14.9 -2.1 -14.55 -2.9 -14.05 -3.9 -13.75 -4.4 -13.55 -4.65 -13.25 -5.1 -12.95 -5.45 -12.65 -5.7 -12.15 -6.05 -11.75 -6.35 -10.85 -7.05 -9.45 -7.75 -8.75 -8.0 -7.65 -8.3 -7.0 -8.45 -6.55 -8.55 -6.1 -8.65 -5.8 -8.65 -5.45 -8.7 -4.95 -8.75 -4.2 -8.75 -3.7 -8.8 -3.25 -8.75 -2.2 -8.7 -1.0 -8.6 -0.1 -8.45 0.45 -8.3 1.35 -8.0 2.05 -7.75 2.35 -7.6 2.75 -7.45 3.3 -7.3 3.8 -7.1 4.8 -6.55 5.25 -6.1" fill="#ffffff" fill-rule="evenodd" stroke="none"/>
    <path d="M18.0 -10.2 L18.75 -9.55 19.0 -9.0 19.35 -8.5 19.5 -8.25 19.75 -7.95 20.25 -7.35 20.55 -6.9 20.85 -6.55 21.35 -6.0 21.75 -5.65 22.1 -5.45 22.65 -5.7 22.85 -6.0 23.0 -6.2 23.25 -6.4 23.45 -6.7 23.75 -7.2 23.9 -7.65 24.05 -7.85 24.2 -8.05 24.4 -8.35 24.55 -8.65 24.8 -9.1 25.15 -9.5 25.3 -9.65 25.45 -9.75 25.6 -9.95 25.8 -10.1 26.05 -10.25 26.3 -10.25 26.8 -10.3 27.25 -10.35 28.0 -10.35 28.05 -10.3 28.4 -10.3 29.05 -10.3 29.65 -10.35 30.45 -10.4 31.25 -10.4 32.9 -10.1 Q33.45 -9.75 33.45 -8.85 L33.45 -8.45 33.4 -8.15 33.3 -6.95 33.3 -6.05 33.3 -5.45 33.3 -4.65 33.35 -4.0 33.4 -3.55 33.4 -3.1 33.4 -2.55 33.35 -1.55 33.3 -0.45 33.25 0.3 33.25 0.85 33.3 1.6 33.3 2.2 33.3 3.85 33.35 4.4 33.4 5.0 33.4 6.45 33.45 7.1 33.5 8.05 33.55 8.7 33.55 9.0 33.5 9.5 33.3 10.25 32.5 10.85 31.9 10.9 31.3 10.95 31.0 10.9 30.7 10.9 30.15 10.85 29.4 10.85 28.85 10.85 28.6 10.85 28.4 10.9 28.05 10.9 27.5 10.95 27.15 10.95 Q25.95 10.95 25.55 10.6 25.2 10.2 25.25 9.4 L25.25 8.85 25.3 8.35 25.25 7.95 25.2 7.4 25.15 7.0 25.15 6.7 25.2 6.4 25.2 6.05 25.25 5.75 25.25 5.5 25.25 5.1 25.2 4.65 25.2 4.25 25.25 3.7 25.25 3.3 25.1 2.75 24.8 2.55 24.35 2.85 23.9 3.25 23.8 3.4 23.65 3.6 23.4 3.75 23.2 4.0 23.1 4.15 22.95 4.3 22.4 4.85 21.9 5.1 21.7 5.05 21.55 5.0 21.3 4.85 20.9 4.55 20.7 4.35 20.45 4.15 20.25 3.95 20.1 3.75 19.4 3.05 19.15 3.0 18.8 3.05 18.6 3.45 18.65 3.75 18.7 4.1 18.75 4.3 18.75 4.55 18.7 5.0 18.7 5.5 18.75 5.9 18.75 6.5 18.8 6.9 18.75 7.4 18.7 8.0 18.65 8.45 18.7 8.95 18.7 9.55 18.75 9.9 Q18.7 10.6 18.35 10.75 L17.4 10.9 16.95 10.9 16.35 10.85 15.9 10.8 15.45 10.85 14.95 10.9 14.35 10.85 13.75 10.8 13.25 10.85 12.7 10.9 11.95 10.9 11.35 10.85 10.75 10.5 10.35 9.8 10.3 8.95 10.3 8.65 10.35 7.95 10.45 7.25 10.5 6.35 10.55 5.25 10.55 4.5 10.55 3.75 10.5 2.7 10.45 1.95 10.5 1.0 10.55 -0.3 10.55 -1.3 10.55 -1.7 10.55 -2.25 10.55 -2.7 10.55 -3.25 10.6 -4.0 10.6 -4.55 10.6 -5.2 10.55 -5.9 10.4 -7.15 10.35 -8.15 10.45 -9.3 11.05 -10.15 11.45 -10.3 12.45 -10.4 13.15 -10.35 14.15 -10.3 14.9 -10.25 15.3 -10.3 15.95 -10.3 16.6 -10.35 17.0 -10.35 18.0 -10.2" fill="#ffffff" fill-rule="evenodd" stroke="none"/>
    <path d="M44.2 -4.25 Q43.9 -3.95 43.85 -3.1 L43.9 -2.55 43.9 -2.05 43.85 -1.5 43.8 -1.0 Q43.8 -0.5 44.0 -0.3 44.2 -0.05 44.45 -0.05 L44.85 0.0 45.15 0.0 45.4 -0.1 45.8 -0.2 46.05 -0.25 46.35 -0.3 46.75 -0.35 47.1 -0.5 47.75 -1.15 48.05 -2.35 Q48.0 -3.25 47.55 -3.7 L46.55 -4.35 46.1 -4.5 45.5 -4.6 45.2 -4.6 44.9 -4.65 Q44.5 -4.65 44.2 -4.25 M37.25 -13.25 L37.55 -13.25 37.95 -13.25 38.35 -13.2 38.65 -13.2 39.55 -13.2 40.55 -13.35 41.45 -13.35 42.4 -13.35 42.9 -13.35 43.6 -13.4 44.15 -13.4 44.85 -13.35 46.1 -13.2 47.55 -13.0 48.75 -12.7 49.0 -12.55 49.2 -12.5 49.6 -12.4 49.95 -12.25 50.4 -12.05 50.8 -11.85 51.55 -11.4 52.15 -10.9 53.0 -10.1 54.25 -8.75 55.05 -7.35 55.25 -6.7 55.45 -6.1 55.85 -4.5 55.9 -2.9 55.9 -2.5 55.8 -1.65 55.75 -1.0 55.7 -0.35 55.65 0.4 55.5 1.15 55.35 1.65 54.95 2.7 54.25 3.85 53.9 4.3 53.5 4.75 53.25 5.05 52.95 5.45 52.65 5.75 52.35 6.0 52.1 6.25 51.85 6.6 51.15 7.05 Q50.7 7.3 50.2 7.5 L49.35 7.85 48.2 8.15 46.75 8.25 45.45 8.3 44.85 8.3 44.25 8.75 Q43.95 9.1 43.95 9.8 L43.95 10.35 44.05 11.2 44.15 11.95 44.2 12.2 43.9 13.35 43.3 13.75 42.65 13.9 42.3 13.8 41.8 13.8 41.45 13.8 41.05 13.9 40.4 13.9 39.95 13.95 39.7 13.9 39.35 13.9 38.95 13.8 38.7 13.8 38.2 13.9 37.55 13.9 37.05 13.95 Q36.2 13.9 35.9 13.45 35.55 13.0 35.55 12.2 L35.6 11.5 35.65 10.45 35.7 9.65 35.7 8.0 35.7 7.25 35.7 6.45 35.75 5.75 35.8 5.05 35.8 4.7 35.75 3.85 35.7 2.65 35.65 1.65 35.65 0.95 35.7 0.25 35.7 -0.35 35.75 -1.35 35.75 -2.05 35.75 -2.55 35.7 -3.3 35.7 -3.9 35.75 -4.9 35.8 -6.5 35.8 -7.6 35.8 -8.3 35.75 -9.25 35.7 -9.75 35.65 -10.55 35.6 -11.1 35.7 -11.95 36.0 -12.7 Q36.3 -13.15 36.7 -13.2 L37.25 -13.25" fill="#ffffff" fill-rule="evenodd" stroke="none"/>
  </g>
</svg>
