<?xml version="1.0" encoding="UTF-8" standalone="no"?>
<svg xmlns:ffdec="https://www.free-decompiler.com/flash" xmlns:xlink="http://www.w3.org/1999/xlink" ffdec:objectType="shape" height="46.5px" width="119.75px" xmlns="http://www.w3.org/2000/svg">
  <g transform="matrix(1.0, 0.0, 0.0, 1.0, 58.55, 22.65)">
    <path d="M-30.35 -3.25 L-35.5 -3.35 -32.25 10.8 -38.7 11.55 -41.15 -2.75 -46.2 -1.6 -47.1 -7.05 -31.5 -8.6 -30.95 -6.2 -30.6 -4.4 -30.35 -3.25" fill="#ffffff" fill-rule="evenodd" stroke="none"/>
    <path d="M-30.35 -3.25 L-35.5 -3.35 -32.25 10.8 -38.7 11.55 -41.15 -2.75 -46.2 -1.6 -47.1 -7.05 -31.5 -8.6 -30.95 -6.2 -30.6 -4.4 -30.35 -3.25 Z" fill="none" stroke="#000000" stroke-linecap="round" stroke-linejoin="miter-clip" stroke-miterlimit="3.0" stroke-width="4.0"/>
    <path d="M-22.1 -10.65 L-23.55 7.45 -24.45 7.5 -25.85 7.6 -27.4 7.7 -28.65 7.75 -28.6 -0.85 -28.6 -4.5 -28.6 -7.85 -28.65 -10.4 -28.75 -11.6 -27.15 -11.35 -25.05 -11.05 -23.15 -10.8 -22.1 -10.65" fill="#ffffff" fill-rule="evenodd" stroke="none"/>
    <path d="M-22.1 -10.65 L-23.55 7.45 -24.45 7.5 -25.85 7.6 -27.4 7.7 -28.65 7.75 -28.6 -0.85 -28.6 -4.5 -28.6 -7.85 -28.65 -10.4 -28.75 -11.6 -27.15 -11.35 -25.05 -11.05 -23.15 -10.8 -22.1 -10.65 Z" fill="none" stroke="#000000" stroke-linecap="round" stroke-linejoin="miter-clip" stroke-miterlimit="3.0" stroke-width="4.0"/>
    <path d="M-17.35 -7.6 Q-15.9 -8.8 -14.15 -9.3 L-10.7 -9.6 -7.2 -8.85 -4.85 -7.35 Q-3.9 -6.5 -3.4 -5.35 -2.85 -4.25 -2.65 -3.05 L-5.15 -2.2 -7.7 -1.2 -7.7 -2.4 -7.95 -3.6 Q-8.2 -4.2 -8.7 -4.6 -9.25 -5.0 -10.2 -5.1 -11.45 -5.2 -12.35 -4.7 L-13.9 -3.35 Q-14.55 -2.5 -14.85 -1.3 L-15.35 1.05 -15.3 3.35 -14.8 5.25 -13.85 6.7 Q-13.25 7.25 -12.4 7.35 L-11.05 7.2 Q-10.4 6.95 -9.85 6.55 L-8.9 5.6 -8.25 4.5 -6.95 5.75 -4.45 7.95 -6.25 9.9 -8.15 11.15 Q-9.1 11.6 -10.25 11.75 L-12.7 11.8 Q-14.5 11.6 -16.1 10.8 -17.75 9.95 -18.95 8.45 -20.1 7.05 -20.75 5.15 -21.35 3.2 -21.15 0.95 -20.85 -2.15 -19.9 -4.2 -18.85 -6.35 -17.35 -7.6" fill="#ffffff" fill-rule="evenodd" stroke="none"/>
    <path d="M-17.35 -7.6 Q-15.9 -8.8 -14.15 -9.3 L-10.7 -9.6 -7.2 -8.85 -4.85 -7.35 Q-3.9 -6.5 -3.4 -5.35 -2.85 -4.25 -2.65 -3.05 L-5.15 -2.2 -7.7 -1.2 -7.7 -2.4 -7.95 -3.6 Q-8.2 -4.2 -8.7 -4.6 -9.25 -5.0 -10.2 -5.1 -11.45 -5.2 -12.35 -4.7 L-13.9 -3.35 Q-14.55 -2.5 -14.85 -1.3 L-15.35 1.05 -15.3 3.35 -14.8 5.25 -13.85 6.7 Q-13.25 7.25 -12.4 7.35 L-11.05 7.2 Q-10.4 6.95 -9.85 6.55 L-8.9 5.6 -8.25 4.5 -6.95 5.75 -4.45 7.95 -6.25 9.9 -8.15 11.15 Q-9.1 11.6 -10.25 11.75 L-12.7 11.8 Q-14.5 11.6 -16.1 10.8 -17.75 9.95 -18.95 8.45 -20.1 7.05 -20.75 5.15 -21.35 3.2 -21.15 0.95 -20.85 -2.15 -19.9 -4.2 -18.85 -6.35 -17.35 -7.6 Z" fill="none" stroke="#000000" stroke-linecap="round" stroke-linejoin="miter-clip" stroke-miterlimit="3.0" stroke-width="4.0"/>
    <path d="M4.7 -4.5 L8.6 -11.65 16.2 -11.6 8.95 -2.5 18.6 5.55 11.85 8.25 5.6 1.05 5.0 1.55 5.85 9.4 3.15 9.55 1.25 9.65 0.1 9.7 -0.15 4.55 -0.75 -0.9 -1.35 -5.65 -1.85 -8.8 4.2 -10.5 4.7 -4.5" fill="#ffffff" fill-rule="evenodd" stroke="none"/>
    <path d="M4.7 -4.5 L8.6 -11.65 16.2 -11.6 8.95 -2.5 18.6 5.55 11.85 8.25 5.6 1.05 5.0 1.55 5.85 9.4 3.15 9.55 1.25 9.65 0.1 9.7 -0.15 4.55 -0.75 -0.9 -1.35 -5.65 -1.85 -8.8 4.2 -10.5 4.7 -4.5 Z" fill="none" stroke="#000000" stroke-linecap="round" stroke-linejoin="miter-clip" stroke-miterlimit="3.0" stroke-width="4.0"/>
    <path d="M20.75 -7.85 L27.3 -8.65 25.75 5.55 33.55 5.0 32.8 10.35 19.45 10.25 20.75 -7.85" fill="#ffffff" fill-rule="evenodd" stroke="none"/>
    <path d="M20.75 -7.85 L27.3 -8.65 25.75 5.55 33.55 5.0 32.8 10.35 19.45 10.25 20.75 -7.85 Z" fill="none" stroke="#000000" stroke-linecap="round" stroke-linejoin="miter-clip" stroke-miterlimit="3.0" stroke-width="4.0"/>
    <path d="M49.95 6.6 L35.65 8.8 35.2 5.4 34.8 2.0 34.35 -0.95 33.85 -3.95 33.25 -6.8 32.6 -9.3 47.15 -12.4 46.95 -7.4 39.25 -6.1 39.55 -3.25 44.9 -4.0 45.0 -1.8 45.0 -0.3 43.85 -0.05 42.4 0.25 41.05 0.55 40.0 0.85 40.1 1.55 40.15 2.4 40.2 3.2 40.25 3.85 48.3 1.5 49.95 6.6" fill="#ffffff" fill-rule="evenodd" stroke="none"/>
    <path d="M49.95 6.6 L35.65 8.8 35.2 5.4 34.8 2.0 34.35 -0.95 33.85 -3.95 33.25 -6.8 32.6 -9.3 47.15 -12.4 46.95 -7.4 39.25 -6.1 39.55 -3.25 44.9 -4.0 45.0 -1.8 45.0 -0.3 43.85 -0.05 42.4 0.25 41.05 0.55 40.0 0.85 40.1 1.55 40.15 2.4 40.2 3.2 40.25 3.85 48.3 1.5 49.95 6.6 Z" fill="none" stroke="#000000" stroke-linecap="round" stroke-linejoin="miter-clip" stroke-miterlimit="3.0" stroke-width="4.0"/>
    <path d="M-50.0 -14.0 Q-55.45 -12.45 -54.25 -7.25" fill="none" stroke="#000000" stroke-linecap="round" stroke-linejoin="miter-clip" stroke-miterlimit="3.0" stroke-opacity="0.49803922" stroke-width="1.0"/>
    <path d="M-52.5 -17.5 Q-58.45 -15.65 -58.0 -8.5" fill="none" stroke="#000000" stroke-linecap="round" stroke-linejoin="miter-clip" stroke-miterlimit="3.0" stroke-opacity="0.49803922" stroke-width="1.0"/>
    <path d="M-19.9 16.35 Q-17.0 21.2 -12.3 18.75" fill="none" stroke="#000000" stroke-linecap="round" stroke-linejoin="miter-clip" stroke-miterlimit="3.0" stroke-opacity="0.49803922" stroke-width="1.0"/>
    <path d="M-22.7 19.65 Q-19.35 24.95 -12.55 22.65" fill="none" stroke="#000000" stroke-linecap="round" stroke-linejoin="miter-clip" stroke-miterlimit="3.0" stroke-opacity="0.49803922" stroke-width="1.0"/>
    <path d="M56.15 -12.5 Q57.6 -17.95 52.6 -19.65" fill="none" stroke="#000000" stroke-linecap="round" stroke-linejoin="miter-clip" stroke-miterlimit="3.0" stroke-opacity="0.49803922" stroke-width="1.0"/>
    <path d="M60.4 -12.8 Q61.95 -18.8 55.65 -22.15" fill="none" stroke="#000000" stroke-linecap="round" stroke-linejoin="miter-clip" stroke-miterlimit="3.0" stroke-opacity="0.49803922" stroke-width="1.0"/>
    <path d="M-30.35 -3.25 L-35.5 -3.35 -32.25 10.8 -38.7 11.55 -41.15 -2.75 -46.2 -1.6 -47.1 -7.05 -31.5 -8.6 -30.95 -6.2 -30.6 -4.4 -30.35 -3.25" fill="#ffffff" fill-rule="evenodd" stroke="none"/>
    <path d="M-22.1 -10.65 L-23.55 7.45 -24.45 7.5 -25.85 7.6 -27.4 7.7 -28.65 7.75 -28.6 -0.85 -28.6 -4.5 -28.6 -7.85 -28.65 -10.4 -28.75 -11.6 -27.15 -11.35 -25.05 -11.05 -23.15 -10.8 -22.1 -10.65" fill="#ffffff" fill-rule="evenodd" stroke="none"/>
    <path d="M-17.35 -7.6 Q-15.9 -8.8 -14.15 -9.3 L-10.7 -9.6 -7.2 -8.85 -4.85 -7.35 Q-3.9 -6.5 -3.4 -5.35 -2.85 -4.25 -2.65 -3.05 L-5.15 -2.2 -7.7 -1.2 -7.7 -2.4 -7.95 -3.6 Q-8.2 -4.2 -8.7 -4.6 -9.25 -5.0 -10.2 -5.1 -11.45 -5.2 -12.35 -4.7 L-13.9 -3.35 Q-14.55 -2.5 -14.85 -1.3 L-15.35 1.05 -15.3 3.35 -14.8 5.25 -13.85 6.7 Q-13.25 7.25 -12.4 7.35 L-11.05 7.2 Q-10.4 6.95 -9.85 6.55 L-8.9 5.6 -8.25 4.5 -6.95 5.75 -4.45 7.95 -6.25 9.9 -8.15 11.15 Q-9.1 11.6 -10.25 11.75 L-12.7 11.8 Q-14.5 11.6 -16.1 10.8 -17.75 9.95 -18.95 8.45 -20.1 7.05 -20.75 5.15 -21.35 3.2 -21.15 0.95 -20.85 -2.15 -19.9 -4.2 -18.85 -6.35 -17.35 -7.6" fill="#ffffff" fill-rule="evenodd" stroke="none"/>
    <path d="M4.7 -4.5 L8.6 -11.65 16.2 -11.6 8.95 -2.5 18.6 5.55 11.85 8.25 5.6 1.05 5.0 1.55 5.85 9.4 3.15 9.55 1.25 9.65 0.1 9.7 -0.15 4.55 -0.75 -0.9 -1.35 -5.65 -1.85 -8.8 4.2 -10.5 4.7 -4.5" fill="#ffffff" fill-rule="evenodd" stroke="none"/>
    <path d="M20.75 -7.85 L27.3 -8.65 25.75 5.55 33.55 5.0 32.8 10.35 19.45 10.25 20.75 -7.85" fill="#ffffff" fill-rule="evenodd" stroke="none"/>
    <path d="M49.95 6.6 L35.65 8.8 35.2 5.4 34.8 2.0 34.35 -0.95 33.85 -3.95 33.25 -6.8 32.6 -9.3 47.15 -12.4 46.95 -7.4 39.25 -6.1 39.55 -3.25 44.9 -4.0 45.0 -1.8 45.0 -0.3 43.85 -0.05 42.4 0.25 41.05 0.55 40.0 0.85 40.1 1.55 40.15 2.4 40.2 3.2 40.25 3.85 48.3 1.5 49.95 6.6" fill="#ffffff" fill-rule="evenodd" stroke="none"/>
  </g>
</svg>
