<?xml version="1.0" encoding="UTF-8" standalone="no"?>
<svg xmlns:ffdec="https://www.free-decompiler.com/flash" xmlns:xlink="http://www.w3.org/1999/xlink" ffdec:objectType="shape" height="94.5px" width="202.95px" xmlns="http://www.w3.org/2000/svg">
  <g transform="matrix(1.0, 0.0, 0.0, 1.0, 0.0, 0.0)">
    <path d="M142.55 25.35 L144.35 27.25 144.6 27.5 151.05 29.55 153.25 30.5 153.35 30.6 154.05 30.8 Q162.95 33.35 164.5 34.0 L167.7 35.3 Q171.05 36.55 173.2 39.5 L174.75 41.7 185.2 46.1 190.85 46.75 194.15 47.25 202.95 45.35 198.8 52.7 199.7 52.65 199.5 58.95 199.2 62.35 199.2 68.75 Q199.15 70.3 198.5 71.7 L198.2 72.3 198.6 72.9 Q199.75 74.6 199.6 76.8 L199.5 78.4 199.45 78.6 Q199.2 80.2 198.65 81.4 L199.95 94.5 195.2 85.1 194.8 85.35 Q193.85 86.1 192.7 86.5 L192.65 86.55 Q190.4 87.45 188.25 87.45 L185.05 86.95 Q182.0 85.95 179.9 83.1 L178.55 81.05 176.9 83.1 175.25 82.4 174.8 82.55 172.5 83.1 172.4 83.15 170.85 83.25 Q167.65 83.25 165.0 81.55 163.2 80.35 162.0 78.4 L161.8 78.1 161.0 77.75 158.05 76.7 151.85 74.65 152.4 73.5 148.75 71.75 148.6 71.25 145.85 70.75 145.8 70.9 140.2 69.0 136.95 67.65 133.4 66.05 132.85 66.35 130.05 67.5 130.1 67.65 123.0 69.85 122.55 69.95 122.25 70.4 122.2 70.5 122.15 70.65 127.25 77.55 117.0 73.3 114.3 72.9 113.4 72.8 113.35 72.75 109.45 72.65 109.05 71.45 108.5 71.25 Q105.95 70.4 102.7 69.0 L99.8 67.8 99.25 64.4 94.75 66.1 93.1 65.75 Q91.15 65.35 88.4 64.35 L88.35 64.35 85.05 63.15 83.25 62.7 82.85 62.25 82.3 62.05 Q80.85 61.55 79.85 60.7 L79.65 60.55 77.6 60.05 76.5 57.05 64.3 61.3 63.95 59.6 55.1 61.75 52.85 60.1 51.45 62.1 50.5 62.7 Q48.8 63.75 45.4 64.9 L44.15 65.3 44.3 65.65 38.7 67.6 33.3 69.1 24.5 75.5 26.55 65.2 Q22.45 51.15 19.85 43.95 L19.75 43.65 19.5 43.45 Q18.2 42.2 17.65 40.55 16.1 36.15 16.05 35.25 L15.25 27.6 13.85 23.8 13.5 23.55 Q11.7 22.4 10.95 20.15 10.6 18.95 10.65 17.55 L10.65 17.35 0.0 11.1 14.3 11.2 Q16.1 10.55 17.95 10.3 L18.1 10.3 19.7 9.6 Q33.6 3.95 36.6 3.0 L42.3 1.4 Q44.7 0.65 47.2 0.65 L51.75 1.25 57.95 3.05 57.5 4.1 58.5 4.65 Q60.35 5.65 61.75 6.8 L64.0 8.9 64.85 8.2 Q66.7 6.75 70.0 6.35 L71.9 6.15 68.15 0.0 83.0 5.55 84.35 5.5 Q86.5 5.5 88.1 6.45 91.1 8.25 91.65 12.15 91.8 13.35 92.85 16.9 L94.3 21.8 96.5 20.4 Q98.3 19.3 100.8 19.2 L102.5 19.15 99.9 12.5 113.5 20.5 113.75 20.55 Q116.35 20.8 118.0 22.2 L119.05 23.2 127.7 20.7 131.1 20.25 135.2 20.9 146.5 23.4 140.8 24.0 142.5 25.3 142.55 25.35" fill="#2b0000" fill-rule="evenodd" stroke="none"/>
    <path d="M171.85 49.75 L172.45 47.95 172.75 47.35 173.45 47.4 175.95 47.95 177.65 48.55 177.4 47.75 182.85 50.15 182.75 50.85 182.25 52.45 181.65 53.6 181.4 53.55 181.0 55.65 182.2 55.85 180.2 61.15 179.65 60.85 178.85 63.85 179.6 64.0 178.95 66.25 Q178.55 67.45 177.8 67.85 L177.45 68.05 177.05 67.9 175.25 67.25 173.75 66.7 171.0 66.0 171.05 65.95 Q168.65 65.3 168.35 64.95 L168.0 64.4 167.9 64.05 170.15 55.7 169.3 54.85 169.85 54.15 170.3 52.8 Q170.75 51.3 171.5 51.05 L171.85 49.75 M174.45 67.65 Q175.6 68.4 176.25 69.8 176.9 71.25 176.7 72.35 L177.3 72.85 Q177.55 73.4 177.3 74.0 L176.8 75.35 175.95 76.85 175.5 77.4 174.7 77.1 Q174.1 78.1 171.85 78.5 L170.85 78.55 Q168.95 78.55 167.6 77.65 166.05 76.65 165.4 74.75 164.65 72.85 165.1 71.15 165.95 68.15 168.8 67.0 L171.05 66.55 Q172.85 66.55 174.45 67.65" fill="#4a0000" fill-rule="evenodd" stroke="none"/>
    <path d="M175.65 48.9 L177.95 49.7 178.45 50.5 Q179.05 50.8 179.2 50.35 179.3 50.05 179.05 49.5 180.2 49.95 181.75 50.75 L181.35 52.0 180.75 53.2 Q180.85 52.0 180.15 51.05 L179.95 51.35 Q179.85 51.7 180.15 52.35 L180.4 53.25 Q180.4 54.35 179.9 55.85 L179.0 55.95 Q178.5 56.05 178.35 56.35 178.25 56.8 178.5 57.2 L179.6 56.85 180.9 56.65 179.7 59.75 179.05 59.05 Q178.6 58.6 178.2 58.6 178.05 58.95 178.35 59.2 L178.95 59.7 177.8 63.9 176.35 64.0 172.95 65.45 169.15 64.35 168.95 64.0 171.2 55.7 172.1 55.75 Q172.65 55.85 172.65 55.35 L172.25 55.05 171.0 55.0 170.65 54.8 171.25 53.1 Q171.6 51.95 171.9 52.0 L172.45 53.1 173.0 53.95 Q173.2 54.05 173.35 53.8 L173.0 52.65 172.35 51.6 172.85 50.0 173.35 48.4 175.65 48.9 M168.35 69.7 L169.45 70.65 Q169.75 71.05 169.75 72.15 169.75 73.15 170.55 73.5 L173.75 75.7 Q174.05 76.0 173.95 76.3 173.75 77.3 171.7 77.5 169.6 77.8 168.15 76.8 167.0 76.05 166.3 74.4 165.7 72.8 166.05 71.4 166.75 68.85 169.2 67.9 171.7 66.95 173.9 68.45 174.85 69.1 175.35 70.25 175.95 71.4 175.7 72.4 174.95 72.9 174.1 72.65 L173.05 73.45 Q172.3 73.95 171.9 73.8 L171.35 73.45 170.25 72.55 Q170.2 70.15 168.75 69.7 L168.35 69.7 M174.25 75.2 L173.05 74.4 174.4 73.55 175.9 73.4 Q176.05 73.2 176.25 73.2 176.5 73.3 176.35 73.65 L175.9 75.0 175.2 76.2 174.7 75.7 174.25 75.2 M178.0 66.0 L177.35 66.95 174.0 65.75 176.1 64.9 178.35 64.75 178.0 66.0" fill="#990000" fill-rule="evenodd" stroke="none"/>
    <path d="M174.55 51.4 L174.7 50.7 176.6 51.35 177.2 52.05 178.1 52.5 178.4 53.4 178.3 54.05 Q177.2 54.35 176.65 55.3 L176.45 55.6 176.35 56.0 Q176.2 56.75 176.5 57.6 175.65 59.05 176.7 60.35 L176.25 61.95 176.05 61.9 175.45 62.2 172.85 63.35 171.3 62.95 172.75 57.7 Q173.6 57.55 174.1 56.95 L174.65 55.4 174.65 55.3 174.85 55.15 175.25 54.7 175.35 54.05 Q175.45 52.85 174.7 51.6 L174.55 51.4 M172.2 71.6 L171.55 69.6 172.8 70.15 173.35 70.75 173.1 70.9 172.2 71.6" fill="#d95b00" fill-rule="evenodd" stroke="none"/>
    <path d="M184.2 51.8 L186.0 51.65 186.8 51.7 188.6 51.8 188.15 51.1 194.0 52.0 194.1 52.7 194.05 54.35 193.8 55.65 193.55 55.65 193.7 57.75 194.9 57.7 194.35 63.3 193.75 63.15 193.75 66.25 194.5 66.2 194.5 68.55 Q194.5 69.7 193.85 70.35 L193.55 70.65 186.8 70.35 184.55 70.3 183.95 70.1 183.45 69.6 183.25 69.35 183.25 60.65 182.2 60.05 182.55 59.25 182.6 57.85 Q182.75 56.2 183.3 55.85 L183.35 54.5 183.4 52.6 183.55 51.95 184.2 51.8 M190.55 71.05 Q191.85 71.55 192.85 72.7 193.8 73.9 193.95 75.0 194.4 75.1 194.65 75.35 195.0 75.8 194.95 76.45 L194.85 77.9 194.4 79.55 194.1 80.25 193.25 80.1 Q192.9 81.3 190.85 82.25 189.45 82.8 188.25 82.8 L186.5 82.5 Q184.8 81.95 183.65 80.35 182.4 78.55 182.4 76.9 182.4 73.8 184.95 71.9 186.55 70.7 188.45 70.7 L190.55 71.05" fill="#4a0000" fill-rule="evenodd" stroke="none"/>
    <path d="M184.4 52.8 L186.75 52.7 189.15 52.85 189.9 53.45 Q190.55 53.6 190.55 53.15 L190.2 52.35 193.1 52.85 193.05 54.15 192.8 55.5 Q192.55 54.35 191.65 53.55 L191.55 53.9 192.0 54.8 192.5 55.65 192.7 58.3 191.85 58.6 Q191.35 58.85 191.3 59.15 L191.65 59.95 192.7 59.3 Q193.25 58.85 193.85 58.75 L193.5 62.05 192.7 61.6 Q192.25 61.25 191.75 61.35 191.65 61.75 192.05 61.9 L192.75 62.2 192.75 66.6 191.4 67.05 188.5 69.35 184.55 69.25 184.25 69.0 184.25 60.4 185.15 60.2 Q185.7 60.15 185.55 59.65 L185.1 59.5 184.45 59.65 183.85 59.75 183.45 59.65 183.6 57.9 Q183.7 56.65 183.95 56.65 184.25 56.65 184.75 57.55 185.2 58.25 185.5 58.25 L185.8 58.05 185.15 57.0 184.25 56.15 184.35 54.45 Q184.3 53.55 184.4 52.8 M193.5 68.55 Q193.5 69.25 193.1 69.65 L189.6 69.35 Q190.95 68.25 191.4 68.0 192.4 67.35 193.5 67.25 L193.5 68.55 M192.95 75.35 Q192.35 76.0 191.5 76.0 L190.7 77.05 Q190.15 77.7 189.7 77.7 L189.1 77.5 Q188.7 77.4 187.8 76.9 187.05 74.65 185.55 74.55 L185.2 74.65 Q185.6 75.05 186.45 75.3 186.9 75.6 187.2 76.65 187.45 77.6 188.3 77.75 L190.2 78.35 191.95 79.05 Q192.3 79.2 192.3 79.55 192.3 80.55 190.45 81.3 L186.85 81.55 Q185.6 81.2 184.45 79.75 183.4 78.35 183.4 76.9 183.4 74.35 185.5 72.7 187.6 71.15 190.2 72.0 191.25 72.4 192.1 73.35 192.95 74.35 192.95 75.35 M193.85 77.8 L193.5 79.15 192.85 78.8 192.3 78.4 190.95 77.95 192.05 76.75 Q192.7 76.1 193.4 76.25 L193.75 75.95 Q194.05 75.95 193.95 76.35 L193.85 77.8" fill="#990000" fill-rule="evenodd" stroke="none"/>
    <path d="M186.35 55.35 L186.35 54.65 186.65 54.7 188.35 54.8 189.05 55.3 190.05 55.5 190.6 56.3 190.7 56.95 Q189.7 57.55 189.4 58.6 L189.3 58.95 189.3 59.3 Q189.4 60.15 189.85 60.85 189.4 62.4 190.75 63.45 L190.75 65.1 190.55 65.1 190.05 65.55 187.85 67.35 186.25 67.35 186.25 61.95 187.15 61.15 Q187.75 60.35 187.5 59.2 L187.5 59.15 187.9 58.35 187.8 57.7 Q187.55 56.5 186.55 55.55 L186.35 55.35 M189.35 75.45 Q189.0 74.5 188.25 73.7 L188.45 73.7 189.55 73.9 190.3 74.35 190.05 74.6 189.35 75.45" fill="#d95b00" fill-rule="evenodd" stroke="none"/>
    <path d="M147.7 35.55 L148.25 34.7 148.45 34.5 148.75 33.7 149.6 34.0 Q150.9 34.35 151.8 35.2 L152.1 35.3 152.45 35.15 152.75 35.25 Q161.4 37.75 162.8 38.35 L164.75 39.1 165.15 39.3 165.2 39.35 166.05 39.65 Q168.15 40.5 169.4 42.25 L170.05 43.2 169.5 43.5 Q171.05 45.2 171.6 47.65 172.2 50.4 171.15 52.75 L170.5 54.15 170.5 54.2 170.45 54.25 169.55 55.65 170.9 56.95 169.95 57.65 Q168.1 59.0 165.8 59.05 L164.75 59.05 163.45 59.25 163.0 59.2 162.7 59.25 162.75 59.7 163.6 64.5 164.45 69.95 164.3 70.0 164.55 70.15 164.3 70.7 164.4 71.15 Q164.6 72.1 164.4 72.65 L163.75 73.4 163.35 73.65 158.45 71.9 158.8 71.2 153.1 68.65 152.7 68.45 152.55 68.0 152.0 64.9 151.65 62.25 151.25 61.5 149.8 65.65 149.75 65.85 149.6 66.05 Q149.4 66.35 148.85 66.5 L148.65 66.55 148.5 66.55 145.5 65.7 142.9 64.75 142.75 64.7 142.7 64.95 141.7 64.6 138.9 63.4 138.0 63.0 138.4 62.15 Q141.85 53.6 143.35 48.9 L143.4 48.8 Q143.0 47.95 143.35 47.35 144.05 45.15 144.3 44.8 L145.25 43.3 145.85 44.5 Q146.6 41.35 148.1 37.1 147.3 36.45 147.7 35.55 M158.6 46.65 L158.25 46.55 157.55 46.25 Q157.45 46.25 157.4 46.35 L156.95 48.1 156.45 49.95 156.75 50.7 157.15 50.85 157.45 50.9 158.55 50.6 159.15 49.65 159.3 48.6 159.4 47.85 159.65 47.45 158.6 46.65" fill="#4a0000" fill-rule="evenodd" stroke="none"/>
    <path d="M152.5 36.2 L162.45 39.25 164.35 40.05 165.35 42.2 165.95 42.05 165.65 40.6 Q167.5 41.3 168.6 42.85 L168.1 43.4 Q167.95 43.8 168.25 43.85 L168.5 43.9 Q170.15 45.55 170.65 47.85 171.15 50.2 170.25 52.35 L169.6 53.8 168.65 55.1 Q168.35 54.8 168.1 54.75 167.15 54.4 166.45 55.05 L166.7 55.3 167.3 55.35 167.75 55.4 169.35 56.85 Q167.8 58.0 165.75 58.05 L166.0 56.6 Q166.15 55.9 165.65 55.35 165.05 55.45 164.9 55.8 L165.0 56.75 165.15 57.75 Q164.7 58.3 163.25 58.2 161.95 58.2 161.75 58.7 161.6 59.1 161.75 59.9 L162.6 64.65 163.35 69.45 162.3 69.55 161.1 69.3 160.2 69.9 Q159.65 70.3 159.2 70.3 L153.55 67.75 Q153.2 66.55 153.0 64.75 L152.6 61.7 Q152.1 61.4 152.05 60.65 L152.0 59.45 Q152.3 59.0 153.15 59.15 153.95 59.25 154.1 58.8 L153.5 57.2 Q153.3 57.2 153.25 57.3 L152.7 57.65 152.1 57.85 152.0 57.65 Q151.7 57.45 151.3 58.1 L150.1 61.75 148.85 65.4 148.6 65.55 Q147.85 65.5 145.9 64.75 L143.1 63.75 Q143.25 62.75 143.0 60.3 142.6 60.15 142.45 60.55 L142.35 61.6 142.05 63.65 139.3 62.5 Q142.7 54.2 144.3 49.25 L145.5 50.0 146.7 50.8 147.6 50.9 Q148.1 49.15 146.65 45.5 147.3 42.45 149.1 37.25 L149.9 37.3 152.5 36.2 M151.25 36.25 L148.85 36.4 Q148.5 36.25 148.6 35.9 L149.0 35.4 149.3 34.95 151.3 36.05 151.25 36.25 M160.3 48.25 L160.8 48.05 161.35 48.0 162.05 47.2 Q162.2 46.65 162.0 46.2 L161.15 46.8 160.45 46.8 159.65 46.2 Q159.1 45.65 158.75 45.65 L158.2 45.4 Q157.1 44.95 156.55 45.85 L155.95 47.95 155.35 49.95 155.65 50.65 155.35 51.0 Q155.15 51.3 155.9 51.45 L156.75 51.8 Q157.85 52.15 159.25 51.35 L160.1 50.0 160.3 48.55 160.3 48.25 M146.2 49.65 L144.9 48.9 Q144.05 48.35 144.25 47.7 L145.15 45.35 146.0 47.8 146.2 49.65 M162.75 70.6 Q162.9 70.45 163.25 70.6 L163.45 71.4 163.45 72.3 163.25 72.55 159.85 71.3 Q160.2 70.6 161.1 70.45 L162.75 70.6" fill="#990000" fill-rule="evenodd" stroke="none"/>
    <path d="M168.7 48.3 Q169.05 50.1 168.4 51.5 L167.9 52.65 167.45 52.6 Q166.25 52.6 165.3 53.4 163.55 53.7 163.05 55.05 162.8 55.65 162.9 56.2 160.55 56.25 159.9 58.0 159.5 59.0 159.8 60.3 L160.6 64.9 160.95 67.2 160.9 67.2 160.25 67.5 Q160.05 67.55 159.25 68.15 L155.25 66.35 155.0 64.5 154.55 61.35 154.5 61.0 Q155.6 60.6 155.95 59.55 L156.2 58.9 156.05 58.3 155.4 56.4 Q154.95 55.6 154.25 55.35 L153.9 55.2 153.45 55.2 Q152.7 55.2 152.15 55.65 L151.85 55.6 Q150.55 55.6 149.6 57.0 L149.4 57.3 149.35 57.65 148.25 61.0 147.45 63.2 146.6 62.9 145.15 62.35 144.85 58.9 143.7 58.45 143.15 58.3 145.35 52.35 146.0 52.65 147.3 52.9 148.05 52.85 149.2 52.55 149.5 51.45 Q150.15 49.15 148.7 45.3 L150.55 39.15 152.6 38.35 161.75 41.15 162.8 41.55 164.35 44.55 166.1 44.05 Q166.35 45.25 167.45 45.7 168.3 46.8 168.7 48.3 M160.8 44.5 Q160.0 43.85 159.4 43.75 L158.9 43.55 157.55 43.25 Q155.8 43.25 154.85 44.75 L154.8 44.85 Q154.35 45.75 154.0 47.55 L153.65 48.9 152.95 49.95 153.35 50.55 Q153.2 51.35 153.55 52.0 154.0 52.95 155.25 53.35 L155.6 53.5 155.7 53.6 156.25 53.75 157.45 53.9 Q158.85 53.9 160.25 53.05 L160.55 52.85 160.8 52.6 161.95 50.75 162.2 49.8 162.4 49.7 Q163.55 48.95 163.9 47.9 164.4 46.7 163.85 45.4 L162.6 42.5 160.8 44.5" fill="#d95b00" fill-rule="evenodd" stroke="none"/>
    <path d="M145.1 38.1 L144.7 39.2 Q143.95 41.6 141.8 43.3 L140.85 44.05 139.55 45.2 138.95 45.7 139.4 46.2 143.5 50.15 147.9 54.6 147.8 54.95 148.2 54.85 148.35 55.45 148.85 55.85 149.8 57.15 Q149.95 57.65 149.7 58.2 L149.5 58.7 149.0 58.8 Q148.0 59.0 145.05 59.95 L143.95 60.3 143.8 59.4 143.7 59.45 136.6 60.95 136.1 61.05 135.75 60.75 133.1 58.2 130.95 55.9 Q130.3 55.85 129.7 55.3 L130.0 56.45 131.3 60.6 131.4 60.8 131.4 61.05 131.0 61.9 130.9 62.05 130.75 62.15 127.4 63.4 124.3 64.3 124.0 64.45 124.1 64.65 123.1 64.95 119.65 65.8 118.7 66.0 118.5 65.05 Q115.6 53.65 114.1 49.25 L114.0 49.0 Q113.15 48.65 113.0 47.8 L112.15 44.8 112.0 42.95 113.55 43.8 Q112.3 40.95 110.35 34.8 109.25 34.8 108.95 33.7 L108.95 32.6 108.95 32.3 108.75 31.45 109.65 31.15 111.95 30.75 112.65 30.8 112.8 30.8 113.1 30.3 113.45 30.2 Q122.7 26.8 124.95 26.2 L127.3 25.6 127.75 25.5 127.8 25.5 128.9 25.2 131.1 24.9 133.75 25.35 134.8 25.7 134.5 26.4 Q137.3 26.95 139.45 28.85 141.85 30.95 142.45 33.85 L142.85 35.65 142.85 35.7 142.9 35.75 142.9 37.8 145.1 38.1 M125.7 36.8 Q125.2 36.95 125.2 37.3 L125.95 39.3 126.8 41.35 127.7 41.95 128.25 41.85 Q129.1 41.45 129.5 40.45 L129.4 39.1 128.8 37.95 128.4 37.3 128.4 36.6 127.2 36.55 126.85 36.5 126.65 36.55 126.45 36.65 125.7 36.8" fill="#4a0000" fill-rule="evenodd" stroke="none"/>
    <path d="M141.15 37.8 Q139.95 38.1 139.8 39.2 L140.2 39.3 140.8 38.95 141.25 38.6 143.75 38.9 Q143.1 41.0 141.2 42.5 L140.45 41.0 Q140.1 40.2 139.25 40.05 138.75 40.55 138.85 40.95 L139.6 41.8 140.4 42.65 Q140.35 43.45 138.95 44.4 137.75 45.25 137.9 45.9 138.05 46.4 138.75 46.95 L142.75 50.85 146.75 54.85 145.85 55.65 144.55 56.25 144.15 57.45 Q143.85 58.25 143.45 58.5 L136.4 60.0 133.85 57.55 131.4 54.95 Q130.8 55.0 130.15 54.35 L129.25 53.2 Q129.25 52.6 130.1 52.2 130.95 51.75 130.8 51.2 129.4 50.1 129.15 50.1 L128.95 50.4 128.7 51.1 128.25 51.65 128.0 51.6 Q127.65 51.6 127.65 52.5 128.25 53.8 129.05 56.7 L130.4 60.95 130.25 61.3 Q129.05 61.95 127.15 62.4 L123.9 63.4 Q123.25 62.25 121.4 60.25 120.9 60.4 121.05 60.85 L121.7 61.9 122.8 64.0 119.45 64.8 Q116.65 53.75 115.05 48.95 L116.65 48.85 118.4 48.75 Q119.0 48.6 119.25 48.25 118.5 46.2 114.65 43.85 113.15 40.4 111.3 34.4 L112.05 33.9 113.8 31.15 Q122.75 27.8 125.2 27.15 L127.5 26.6 129.95 27.9 130.4 27.35 129.15 26.2 133.45 26.3 Q133.25 26.6 133.35 27.15 133.5 27.6 133.8 27.5 L134.1 27.3 Q136.6 27.75 138.8 29.6 140.95 31.45 141.5 34.05 L141.9 35.9 141.9 37.7 141.15 37.8 M112.65 32.0 L110.5 33.8 Q110.0 33.9 109.95 33.45 L109.95 32.75 109.95 32.1 112.55 31.8 112.65 32.0 M130.15 36.1 Q130.45 35.4 130.25 34.85 130.1 34.2 129.55 33.95 L129.2 35.1 128.5 35.6 127.35 35.55 126.1 35.7 125.4 35.8 Q124.15 36.2 124.2 37.35 124.25 37.95 125.05 39.75 L125.9 42.0 126.7 42.5 126.6 43.05 127.4 43.1 128.5 42.8 Q129.8 42.35 130.5 40.7 L130.4 38.85 129.55 37.3 129.35 37.05 Q129.25 36.8 129.7 36.55 L130.15 36.1 M117.1 48.05 L115.35 48.2 Q114.2 48.35 113.95 47.55 L113.15 44.7 115.65 46.45 117.1 48.05 M145.35 57.35 L147.0 56.35 Q147.0 56.05 147.5 56.0 L148.2 56.6 Q148.7 57.05 148.8 57.45 L148.8 57.8 144.75 59.0 Q144.6 58.05 145.35 57.35" fill="#990000" fill-rule="evenodd" stroke="none"/>
    <path d="M137.85 38.65 Q136.5 39.95 136.9 41.45 137.1 42.15 137.75 42.8 135.45 44.35 136.0 46.4 136.2 47.4 137.4 48.45 L141.3 52.25 143.55 54.5 143.15 54.65 142.85 55.25 142.3 56.7 136.95 57.85 135.3 56.15 132.75 53.5 132.2 53.0 Q133.05 52.05 132.75 50.7 L132.55 50.05 132.05 49.65 Q130.1 48.1 129.15 48.1 L128.9 48.1 128.65 48.2 Q127.35 48.5 127.05 49.8 L126.35 50.3 Q125.5 51.2 125.7 52.6 L125.7 52.95 125.85 53.3 127.1 57.2 127.95 60.1 124.7 61.05 122.05 58.0 120.9 58.3 Q120.3 58.45 119.95 58.75 L117.75 50.85 118.9 50.7 Q119.95 50.4 120.75 49.55 L121.55 48.65 121.15 47.55 Q120.2 45.05 116.25 42.45 115.3 40.25 113.65 35.2 L115.15 32.75 Q124.35 29.45 125.75 29.1 L127.15 28.7 129.1 29.7 130.55 30.4 131.9 28.65 Q132.6 29.5 133.7 29.5 L133.95 29.5 134.35 29.4 Q136.1 29.85 137.5 31.1 139.1 32.55 139.55 34.5 L139.9 36.1 Q138.25 36.9 137.85 38.65 M122.2 37.6 Q122.35 38.75 123.25 40.6 L123.9 42.15 123.9 43.4 124.7 43.7 Q125.2 45.2 126.9 45.2 L128.05 45.0 128.55 44.85 128.7 44.9 129.2 44.7 Q131.3 43.9 132.35 41.45 L132.45 41.15 132.5 40.8 Q132.6 39.2 132.3 38.3 L131.85 37.2 132.05 36.85 Q132.5 35.55 132.2 34.35 131.8 32.95 130.55 32.2 L127.85 30.65 127.55 33.55 126.85 33.5 125.5 33.75 124.9 33.9 Q123.55 34.25 122.85 35.2 122.15 36.2 122.2 37.5 L122.2 37.6" fill="#d95b00" fill-rule="evenodd" stroke="none"/>
    <path d="M113.2 25.2 Q114.45 25.25 115.05 25.8 115.85 26.45 115.8 28.05 115.75 29.25 116.15 32.95 L116.7 38.25 116.75 38.7 116.4 39.0 116.8 40.95 117.3 44.35 117.3 44.9 117.05 45.0 117.85 45.05 117.9 45.95 117.95 49.15 117.95 50.65 116.6 50.05 115.65 49.75 115.4 52.0 115.7 52.25 Q117.35 52.9 117.35 54.25 L117.35 59.3 Q117.35 61.9 118.0 63.9 L118.3 65.65 118.45 67.5 118.45 67.6 118.4 67.7 118.05 68.25 117.9 68.65 117.15 68.6 115.2 68.35 113.55 68.1 112.85 68.1 112.6 67.45 112.55 67.6 111.65 67.35 Q109.3 66.7 104.5 64.7 L103.95 64.5 103.9 63.95 Q103.75 63.05 103.85 61.5 L103.9 60.05 103.05 59.7 Q102.1 59.4 101.65 58.95 L101.4 60.05 98.65 59.0 97.25 57.95 96.8 58.5 95.3 60.9 94.35 61.25 94.05 61.2 90.0 59.95 85.9 58.55 85.7 58.35 85.15 58.0 83.85 57.65 Q82.95 57.35 82.5 56.8 L82.05 56.3 86.8 48.1 87.1 47.7 87.65 47.6 87.7 47.6 88.05 47.65 Q88.5 46.7 89.85 45.1 91.25 43.35 91.7 42.1 L91.95 40.8 92.0 40.55 91.8 40.4 92.05 39.85 92.1 39.35 92.25 39.45 94.05 34.95 94.25 34.55 92.35 35.4 93.9 32.7 Q94.75 31.1 96.1 29.35 L96.95 28.3 Q97.7 26.3 98.7 24.6 L99.0 24.3 Q99.75 23.85 101.1 23.85 L104.15 24.2 109.45 25.3 109.65 25.85 110.9 27.65 109.2 23.4 111.75 24.9 111.95 25.0 113.2 25.2 M101.85 43.8 L103.5 44.15 104.65 44.75 104.65 44.25 104.15 43.2 104.05 43.35 103.6 43.75 103.05 43.6 101.75 43.4 101.25 43.45 101.35 43.75 101.85 43.8 M104.45 49.6 L104.55 46.6 103.0 49.1 104.45 49.6" fill="#4a0000" fill-rule="evenodd" stroke="none"/>
    <path d="M113.15 26.2 Q114.0 26.2 114.35 26.55 114.8 26.95 114.8 28.05 114.7 29.75 115.15 33.05 L115.7 38.3 115.5 38.35 Q115.4 38.35 115.35 38.45 115.3 38.85 115.8 41.15 116.35 43.65 116.3 44.3 L114.75 44.5 Q113.6 44.35 113.45 44.85 L113.5 45.95 116.9 46.0 116.95 49.15 114.9 48.45 114.4 51.9 Q114.35 52.75 115.35 53.2 116.35 53.6 116.35 54.3 L116.35 59.25 Q116.35 62.1 117.05 64.2 L117.3 65.8 117.45 67.35 117.35 67.5 Q117.2 67.5 117.2 67.6 L115.35 67.35 113.55 67.1 Q113.4 66.55 113.75 65.25 114.05 64.05 113.6 63.35 112.95 63.75 112.6 64.65 L111.9 66.4 Q109.7 65.8 104.85 63.75 L104.85 61.55 104.8 59.6 Q104.65 59.1 103.35 58.75 102.0 58.3 102.0 57.55 L98.9 54.3 Q98.2 54.15 97.85 55.15 97.65 55.75 97.85 56.1 98.15 56.1 98.35 55.75 98.6 55.35 98.95 55.3 L100.15 56.85 Q100.85 57.75 100.7 58.7 L99.0 58.05 Q97.9 57.6 97.85 56.8 96.7 56.65 95.95 58.0 L94.6 60.1 94.25 60.25 90.35 59.0 Q88.0 58.1 86.45 57.7 L85.45 57.05 84.15 56.7 Q83.55 56.45 83.25 56.15 L87.7 48.6 87.9 49.15 86.7 51.75 Q85.9 53.35 85.6 54.4 L85.8 55.6 Q85.8 56.4 86.05 56.65 L86.35 56.2 86.3 55.25 Q86.15 54.5 86.35 54.15 L88.35 50.15 88.75 48.55 Q89.0 47.8 90.6 45.7 92.1 43.95 92.65 42.4 L92.95 40.9 95.2 41.3 Q95.05 40.65 94.3 40.45 L93.05 40.05 94.95 35.35 Q96.3 32.6 98.35 31.9 98.65 31.5 98.15 30.9 L97.5 29.9 Q98.2 27.3 99.55 25.15 100.55 24.55 103.95 25.2 L108.7 26.2 110.2 28.4 Q111.15 29.6 110.7 30.95 110.8 31.4 111.05 31.45 L111.75 31.4 112.45 31.35 Q112.25 30.85 112.45 29.85 L112.5 28.4 Q112.15 28.15 111.2 25.75 L111.65 25.95 113.15 26.2 M97.1 31.9 L94.75 33.2 96.9 30.0 97.35 31.55 97.1 31.9 M105.45 50.05 L105.7 43.9 Q105.05 43.4 105.05 42.15 105.0 40.7 104.7 40.3 104.2 40.5 103.9 41.45 L103.35 42.65 100.15 42.55 100.25 43.6 Q100.5 44.3 100.25 44.65 L103.2 45.1 104.05 45.55 101.7 49.35 Q101.85 49.8 102.8 50.1 L104.25 50.6 104.3 50.6 105.0 50.65 105.45 50.05" fill="#990000" fill-rule="evenodd" stroke="none"/>
    <path d="M103.6 27.15 L107.45 27.95 108.6 29.6 Q108.9 29.95 108.8 30.35 L108.7 30.75 108.75 31.2 Q109.0 32.8 110.4 33.35 L111.3 33.45 112.15 33.4 112.4 33.35 113.15 33.4 113.65 37.4 113.45 37.8 113.4 37.95 113.4 38.05 Q113.25 38.95 113.85 41.6 L114.05 42.5 Q112.2 42.6 111.55 44.2 111.25 45.1 111.6 46.4 L111.95 47.9 112.95 47.9 112.95 48.05 Q112.6 49.6 112.4 51.75 112.25 54.0 114.35 54.95 L114.35 59.25 114.4 60.85 114.25 60.6 112.6 61.6 Q111.45 62.35 110.75 63.85 L110.75 63.9 106.8 62.4 106.85 61.65 Q107.0 59.8 106.7 59.0 106.25 57.6 104.05 56.85 L104.05 56.65 103.3 56.05 100.4 53.0 100.0 52.55 99.4 52.35 98.7 52.25 Q96.75 52.25 95.95 54.5 L95.75 55.3 Q94.85 55.95 94.2 56.95 L93.55 58.0 88.4 56.2 88.25 54.9 Q89.85 52.0 90.25 50.7 L90.65 49.2 Q90.65 48.8 92.15 47.0 93.9 44.9 94.45 43.25 L97.65 43.45 97.15 40.9 Q96.95 39.65 95.7 38.9 L96.8 36.15 Q97.8 34.2 99.0 33.8 L99.65 33.6 100.0 33.05 Q101.2 31.35 99.7 29.6 L99.65 29.6 100.85 26.85 101.1 26.85 103.6 27.15 M103.7 38.55 Q102.7 39.1 102.15 40.45 L101.75 40.4 99.8 40.6 98.45 40.85 98.2 42.2 Q98.05 42.95 98.35 44.05 L97.35 46.2 100.9 46.75 99.45 49.15 99.8 50.1 Q100.35 51.4 102.15 52.0 L103.5 52.45 104.65 52.7 105.8 52.45 Q107.1 51.9 107.4 50.5 L107.4 50.3 107.45 50.1 107.65 44.0 107.75 42.95 107.05 42.4 107.05 42.1 Q107.0 40.1 106.35 39.2 L105.35 37.6 103.7 38.55" fill="#d95b00" fill-rule="evenodd" stroke="none"/>
    <path d="M96.7 58.15 L92.5 58.25 91.8 58.35 91.5 57.75 91.3 57.3 91.2 57.9 90.25 57.8 Q87.1 57.5 81.65 56.2 L81.15 56.1 80.95 55.55 Q80.65 54.85 80.45 52.85 L80.15 51.1 79.05 50.85 Q77.8 50.7 77.15 50.15 L77.1 51.55 73.95 50.9 Q72.8 50.7 72.15 49.95 71.9 50.15 71.6 50.8 L70.4 53.8 69.5 54.35 69.2 54.3 64.4 53.75 59.8 53.0 59.5 52.95 59.25 52.75 58.5 52.45 57.0 52.35 Q56.05 52.2 55.4 51.65 L54.85 51.25 55.05 50.6 58.55 41.15 58.75 40.7 59.35 40.5 59.5 40.5 59.8 40.55 Q60.25 39.15 61.35 37.2 62.6 34.95 62.9 33.4 L62.95 31.85 62.9 31.45 62.75 31.35 62.85 30.75 62.85 30.4 62.95 30.45 64.15 24.9 64.45 23.95 62.45 25.3 63.5 22.4 65.35 18.2 66.1 16.85 Q66.45 14.55 67.35 12.3 L67.45 12.1 67.6 11.95 Q68.85 10.85 72.9 10.85 L79.4 11.1 79.65 11.55 81.65 13.5 Q82.4 14.25 82.75 15.05 L82.65 14.45 80.7 11.6 79.2 9.15 81.9 10.15 82.25 10.25 84.35 10.15 Q85.25 10.15 85.8 10.5 86.8 11.05 87.0 12.8 87.35 14.65 88.4 18.25 L90.1 24.1 90.15 24.55 89.9 24.9 89.85 25.0 90.7 27.15 Q91.8 29.8 91.95 30.9 L92.0 31.4 91.5 31.9 92.7 31.7 92.95 32.55 93.65 36.2 93.9 37.65 91.15 37.1 91.3 39.9 Q91.3 40.15 91.8 40.25 93.75 40.65 93.95 42.05 L94.95 47.7 Q95.4 50.6 96.6 52.85 L97.3 54.75 97.85 56.75 97.85 56.85 97.8 56.95 97.5 57.6 97.45 58.0 96.7 58.15 M73.85 33.5 L75.3 33.4 76.45 33.5 77.8 33.95 78.05 34.05 77.95 33.2 Q77.35 32.65 77.05 31.8 L76.8 32.25 76.45 32.75 75.85 32.65 75.35 32.65 73.6 32.9 73.85 33.5 M78.8 39.5 L78.2 35.4 76.65 39.15 77.0 39.25 78.75 39.5 78.8 39.5" fill="#4a0000" fill-rule="evenodd" stroke="none"/>
    <path d="M96.85 56.8 L96.7 56.95 96.55 57.15 94.45 57.2 92.35 57.3 Q92.05 56.75 92.2 55.15 92.35 53.75 91.7 53.0 91.05 53.55 90.8 54.65 L90.4 56.8 Q87.35 56.5 81.9 55.25 L81.45 52.7 81.0 50.55 Q80.8 50.1 79.15 49.85 77.6 49.7 77.45 48.75 L73.25 45.7 Q72.5 45.6 72.25 46.9 72.2 47.65 72.45 48.0 L72.95 47.45 Q73.15 46.95 73.5 46.85 L75.25 48.35 Q76.25 49.35 76.15 50.3 L74.1 49.95 Q72.85 49.65 72.6 48.75 71.35 48.75 70.65 50.45 L69.6 53.1 69.25 53.3 64.55 52.75 59.9 52.0 Q59.4 51.6 58.7 51.5 L57.15 51.35 56.0 50.9 59.5 41.5 59.85 42.05 59.0 45.25 Q58.4 47.5 58.3 48.45 L58.75 49.75 Q58.9 50.65 59.25 50.9 L59.5 50.35 59.25 49.3 Q58.95 48.55 59.1 48.0 60.35 44.55 60.55 43.1 L60.7 41.2 Q60.85 40.25 62.25 37.65 63.65 35.2 63.85 33.55 L63.95 31.75 66.55 31.8 Q66.25 31.05 65.35 31.0 L63.9 30.75 65.1 25.1 Q66.05 21.75 68.25 20.55 68.55 20.05 67.85 19.45 L66.9 18.45 Q67.2 15.3 68.3 12.7 69.15 11.85 73.25 11.85 L78.8 12.05 80.95 14.25 Q82.2 15.45 82.0 17.0 82.15 17.5 82.5 17.5 L83.3 17.35 84.05 17.1 Q83.7 16.45 83.75 15.45 L83.5 13.85 Q83.05 13.55 81.55 11.1 L82.1 11.2 83.8 11.15 85.25 11.35 Q85.8 11.65 86.05 12.95 86.3 14.75 87.4 18.55 L89.1 24.35 88.9 24.45 Q88.75 24.45 88.75 24.6 88.7 25.0 89.8 27.55 L90.95 31.0 Q90.55 31.4 89.2 31.55 87.95 31.65 87.85 32.15 L88.15 33.4 92.0 32.8 92.65 36.35 90.2 35.95 Q90.1 38.4 90.3 39.95 90.35 40.95 91.6 41.2 92.85 41.5 93.0 42.25 L93.95 47.9 Q94.5 51.15 95.7 53.3 L96.35 55.05 96.85 56.8 M64.45 22.75 L66.25 18.7 67.05 20.35 66.85 20.8 64.45 22.75 M72.95 34.55 L74.65 34.45 76.3 34.5 77.4 34.85 75.45 39.55 Q75.75 40.05 76.85 40.2 L78.6 40.5 79.45 40.4 Q79.8 40.2 79.8 39.65 L78.9 32.6 Q78.1 32.2 77.8 30.85 77.5 29.2 77.05 28.75 76.55 29.1 76.4 30.2 L76.0 31.65 Q74.45 31.5 72.4 32.25 L72.7 33.35 72.95 34.55" fill="#990000" fill-rule="evenodd" stroke="none"/>
    <path d="M72.9 13.85 L77.85 14.0 79.55 15.7 Q80.15 16.2 80.05 16.75 L80.0 17.2 80.1 17.6 Q80.65 19.25 82.15 19.5 L82.3 19.5 82.6 19.55 84.0 19.2 84.35 19.1 85.45 19.0 85.5 19.1 86.9 23.8 86.75 24.3 86.75 24.5 Q86.7 25.3 87.95 28.35 L88.45 29.6 Q86.25 30.0 85.85 31.85 85.7 32.85 86.3 34.2 L86.9 35.6 88.2 35.4 88.2 35.9 Q88.1 38.45 88.3 40.15 88.55 42.6 91.15 43.15 L92.0 48.2 Q92.25 49.95 92.65 51.1 L91.85 50.2 90.4 51.5 Q89.2 52.55 88.85 54.2 L88.75 54.55 83.55 53.55 83.4 52.45 Q83.2 50.35 82.8 49.6 82.05 48.2 79.4 47.9 L79.35 47.85 79.3 47.55 78.45 47.05 Q76.95 46.2 74.55 44.2 L74.1 43.8 73.35 43.7 73.2 43.7 Q72.2 43.7 71.45 44.35 70.55 45.15 70.3 46.6 L70.25 47.6 Q69.35 48.3 68.8 49.75 L68.2 51.25 61.5 50.2 61.1 48.5 62.55 43.35 62.65 41.55 Q62.9 40.65 64.0 38.65 65.5 35.9 65.85 33.85 L69.35 33.45 68.4 31.05 Q67.9 29.6 66.3 29.15 L67.05 25.6 Q67.8 23.1 69.2 22.35 L69.8 22.0 70.1 21.4 Q70.95 19.4 69.1 17.9 L68.95 17.8 Q69.25 15.75 69.85 14.1 L72.9 13.85 M70.4 32.2 Q70.35 32.9 70.9 34.2 L70.95 34.25 70.3 36.55 74.5 36.45 73.2 39.8 73.75 40.6 Q74.5 41.8 76.55 42.2 L78.9 42.55 Q79.7 42.55 80.55 42.05 81.75 41.25 81.8 39.75 L81.85 39.55 81.8 39.35 80.75 31.35 79.95 30.9 79.75 30.4 Q79.35 28.3 78.5 27.4 L77.25 26.0 75.8 27.2 Q74.75 28.05 74.5 29.7 73.1 29.85 71.7 30.35 L70.4 30.85 70.4 32.2" fill="#d95b00" fill-rule="evenodd" stroke="none"/>
    <path d="M66.9 24.8 Q65.9 28.35 63.05 30.65 L62.1 31.45 62.0 31.25 Q61.45 32.45 59.85 33.6 59.2 34.1 58.9 34.45 58.7 34.7 58.8 34.7 L59.7 35.75 65.85 41.25 72.35 47.3 71.95 48.3 72.1 48.25 73.0 48.05 73.2 48.65 74.0 49.25 Q75.05 50.1 75.3 50.9 L75.25 52.15 75.1 52.6 74.6 52.75 Q72.75 53.25 68.85 54.65 L67.8 55.05 67.5 53.6 67.05 53.95 66.9 54.0 56.6 56.6 56.15 56.7 55.8 56.45 51.85 52.9 48.4 49.6 Q47.25 49.45 46.25 48.45 L45.2 47.2 46.45 50.95 48.6 57.0 48.7 57.2 48.7 57.45 Q48.7 57.95 48.3 58.5 L48.2 58.65 48.0 58.75 Q46.65 59.6 43.35 60.65 39.4 61.85 38.8 62.2 L38.0 62.55 38.15 62.85 37.15 63.2 32.2 64.6 31.3 64.8 31.0 63.9 Q26.7 48.9 23.75 41.05 L23.55 40.55 Q22.45 40.2 22.05 39.05 20.7 35.1 20.7 34.75 L20.5 33.0 22.1 33.75 Q23.8 34.65 26.0 36.25 L29.1 39.35 29.5 39.2 Q28.15 36.9 23.3 34.15 L23.05 34.0 22.9 33.75 Q20.7 29.1 17.45 20.1 L17.4 19.9 17.0 19.95 Q15.8 19.95 15.4 18.75 15.25 18.3 15.35 17.35 L15.35 16.7 15.1 15.8 16.0 15.55 Q17.85 14.85 19.55 14.85 L20.15 14.9 20.65 15.0 21.15 14.05 21.5 13.95 Q34.75 8.5 38.0 7.45 L41.8 6.35 42.2 6.65 42.45 6.8 41.95 6.4 43.7 5.85 Q45.5 5.3 47.2 5.3 L50.5 5.75 51.55 6.05 51.1 7.2 51.35 7.2 Q55.45 7.7 58.85 10.45 62.35 13.35 63.35 17.35 L64.0 19.95 64.05 20.0 64.05 20.05 Q64.35 22.0 64.15 23.1 L64.1 23.35 67.25 23.65 66.9 24.8 M45.15 20.6 L43.8 21.45 42.85 21.6 41.3 21.5 40.6 21.65 40.45 21.75 39.35 22.0 Q38.25 22.35 38.35 23.25 L39.65 26.3 Q40.6 28.0 40.95 29.35 L41.8 29.8 42.45 30.25 42.4 30.45 43.7 30.1 Q45.05 29.45 45.7 27.65 L45.5 25.45 Q45.2 24.5 44.4 23.7 44.0 23.2 43.95 22.9 43.55 21.9 44.75 21.05 L45.1 20.8 45.15 20.6 M46.6 43.55 L45.8 43.0 45.65 43.4 Q45.25 44.65 44.4 44.9 L44.25 44.95 44.65 45.8 Q44.75 44.6 46.3 43.7 L46.6 43.55" fill="#4a0000" fill-rule="evenodd" stroke="none"/>
    <path d="M62.3 24.25 L65.95 24.55 Q65.05 27.7 62.4 29.9 L61.25 27.7 Q60.6 26.6 59.45 26.45 58.75 27.25 58.9 27.75 L60.05 28.95 61.3 30.15 Q61.25 31.3 59.25 32.8 57.5 34.0 57.8 35.0 L59.1 36.55 Q61.3 38.25 65.15 41.95 L71.15 47.6 Q70.9 48.35 69.9 48.8 L68.05 49.75 67.55 51.5 Q67.15 52.65 66.6 53.05 L56.4 55.65 52.55 52.2 48.8 48.6 Q47.9 48.65 47.0 47.75 L45.65 46.15 Q45.6 45.25 46.8 44.6 47.95 43.95 47.75 43.15 L45.3 41.65 45.0 42.1 44.7 43.1 44.1 43.95 43.7 43.85 Q43.2 43.85 43.25 45.2 44.3 47.35 45.5 51.25 47.05 56.0 47.7 57.4 L47.5 57.9 Q46.1 58.75 43.05 59.7 L38.35 61.3 Q37.25 59.6 34.6 56.85 33.9 57.05 34.05 57.7 L35.1 59.25 Q36.2 60.6 36.8 62.25 L32.0 63.6 Q27.65 48.7 24.7 40.7 L27.05 40.5 29.5 40.3 30.75 39.45 Q29.65 36.65 23.8 33.3 21.75 29.1 18.4 19.75 L19.55 19.0 21.85 14.85 Q35.4 9.35 38.3 8.4 L41.6 7.45 Q42.45 8.1 45.25 9.25 L45.85 8.45 44.0 6.8 Q47.0 5.85 50.2 6.7 49.95 7.35 50.15 7.95 50.35 8.6 50.8 8.45 L51.25 8.2 Q55.05 8.7 58.2 11.2 61.4 13.9 62.4 17.6 L63.05 20.25 Q63.35 22.0 63.15 22.9 L62.05 23.05 Q60.35 23.5 60.2 25.15 L60.8 25.25 61.65 24.7 62.3 24.25 M16.35 17.4 L16.35 16.5 Q18.3 15.75 20.15 15.9 L20.25 16.2 17.25 18.9 Q16.55 19.05 16.4 18.45 16.25 18.2 16.35 17.4 M21.7 34.65 L25.4 37.05 27.65 39.3 25.05 39.65 Q23.35 39.85 23.0 38.75 L21.7 34.65 M46.0 21.15 Q46.35 20.35 46.1 19.35 45.8 18.55 45.0 18.1 L44.5 19.8 Q44.1 20.35 43.55 20.5 L41.85 20.55 40.05 20.8 39.05 21.05 Q37.2 21.65 37.35 23.35 37.6 24.4 38.75 26.75 40.05 29.15 40.1 30.05 L41.25 30.65 41.15 31.5 42.4 31.55 Q43.7 31.05 43.95 31.05 45.9 30.2 46.7 27.85 46.75 26.1 46.45 25.15 46.15 24.1 45.15 23.0 L44.9 22.6 Q44.75 22.25 45.35 21.9 L46.0 21.15 M74.35 51.2 L74.3 51.8 Q72.25 52.35 68.5 53.75 68.2 52.4 69.3 51.3 L71.6 49.7 Q71.65 49.35 72.3 49.2 L73.45 50.1 Q74.2 50.7 74.35 51.2" fill="#990000" fill-rule="evenodd" stroke="none"/>
    <path d="M58.05 31.2 Q55.25 33.25 55.9 35.6 56.25 36.8 57.8 38.05 L63.8 43.4 68.1 47.5 66.6 48.2 66.3 48.8 65.45 51.3 56.85 53.45 53.95 50.8 50.1 47.1 49.5 46.55 48.7 46.6 48.45 46.4 48.2 46.1 Q49.45 45.25 49.75 44.05 49.9 43.25 49.65 42.55 L49.5 41.95 48.95 41.55 Q46.35 39.65 45.35 39.65 L45.05 39.65 44.7 39.75 Q43.4 40.15 43.05 41.65 L42.95 42.0 Q42.4 42.15 41.9 42.7 41.1 43.65 41.3 45.4 L41.3 45.75 41.45 46.05 Q42.35 47.85 43.6 51.85 L45.3 56.75 42.45 57.8 39.1 58.85 36.0 55.45 35.15 54.55 34.0 54.95 Q32.9 55.25 32.35 56.15 L32.1 56.9 27.45 42.5 30.1 42.2 Q31.45 41.75 32.3 40.75 L33.05 39.8 32.6 38.7 Q31.25 35.35 25.35 31.9 23.75 28.55 20.8 20.55 L21.05 20.35 23.25 16.45 Q36.3 11.1 38.9 10.35 L41.3 9.6 44.45 11.1 45.9 11.75 48.05 8.8 47.9 8.35 48.2 8.35 48.25 8.55 Q48.55 9.55 49.3 10.05 49.95 10.5 50.65 10.5 L51.65 10.3 Q54.6 10.85 56.95 12.75 59.7 15.05 60.45 18.1 L61.2 21.2 Q58.6 22.2 58.2 24.9 L58.0 25.05 Q56.5 26.7 57.0 28.35 57.4 29.5 58.85 30.55 L58.05 31.2 M45.9 16.3 L43.15 14.85 43.0 17.95 42.8 18.6 41.3 18.5 39.35 18.9 38.5 19.15 Q36.85 19.65 36.05 20.8 35.2 21.95 35.4 23.55 L35.4 23.7 Q35.65 25.05 37.0 27.65 38.1 29.75 38.1 30.2 L38.2 31.45 39.2 31.85 39.25 32.1 Q39.45 32.85 40.1 33.3 40.75 33.75 41.55 33.75 L43.1 33.4 44.05 33.1 44.2 33.1 44.7 32.9 Q47.4 31.8 48.6 28.55 L48.7 28.2 48.7 27.85 Q48.75 25.95 48.35 24.55 L47.45 22.65 47.9 21.85 Q48.45 20.2 48.0 18.8 47.45 17.1 45.9 16.3 M33.95 61.05 L33.35 61.2 32.9 59.6 33.95 61.05" fill="#d95b00" fill-rule="evenodd" stroke="none"/>
  </g>
</svg>
