<?xml version="1.0" encoding="UTF-8" standalone="no"?>
<svg xmlns:ffdec="https://www.free-decompiler.com/flash" xmlns:xlink="http://www.w3.org/1999/xlink" ffdec:objectType="shape" height="105.45px" width="167.1px" xmlns="http://www.w3.org/2000/svg">
  <g transform="matrix(1.0, 0.0, 0.0, 1.0, 99.9, 48.2)">
    <path d="M20.05 -8.65 L43.8 0.15 19.45 11.05 37.95 33.15 3.4 24.65 10.2 46.7 -14.55 28.4 -16.6 55.85 -32.5 35.2 -50.05 54.15 -54.8 28.6 -83.95 33.45 -69.5 13.05 -98.4 4.75 -68.45 -2.7 -87.5 -20.45 -59.5 -16.7 -65.95 -40.75 -41.75 -21.75 -34.95 -47.1 -17.9 -24.2 -2.7 -41.2 6.2 -23.65 27.85 -29.2 20.05 -8.65" fill="#ffffff" fill-opacity="0.49803922" fill-rule="evenodd" stroke="none"/>
    <path d="M20.05 -8.65 L43.8 0.15 19.45 11.05 37.95 33.15 3.4 24.65 10.2 46.7 -14.55 28.4 -16.6 55.85 -32.5 35.2 -50.05 54.15 -54.8 28.6 -83.95 33.45 -69.5 13.05 -98.4 4.75 -68.45 -2.7 -87.5 -20.45 -59.5 -16.7 -65.95 -40.75 -41.75 -21.75 -34.95 -47.1 -17.9 -24.2 -2.7 -41.2 6.2 -23.65 27.85 -29.2 20.05 -8.65 Z" fill="none" stroke="#000000" stroke-linecap="round" stroke-linejoin="miter-clip" stroke-miterlimit="3.0" stroke-opacity="0.49803922" stroke-width="1.0"/>
    <path d="M45.25 -11.8 L46.35 -11.7 47.3 -10.55 Q47.7 -9.65 47.6 -8.65 L47.2 -5.05 Q46.85 -2.5 46.05 0.0 45.25 2.55 43.75 5.35 42.45 -2.85 42.45 -5.1 42.45 -7.35 42.95 -8.95 43.5 -10.55 44.05 -11.1 44.65 -11.65 45.25 -11.8 M-23.95 -11.65 Q-23.25 -11.55 -22.9 -11.15 -22.6 -10.8 -22.65 -10.35 -22.7 -9.85 -23.0 -9.65 -23.35 -9.45 -28.0 -9.55 L-32.8 -9.6 -32.55 0.9 -32.3 11.55 -32.85 12.0 -33.8 12.05 -34.4 11.45 -34.8 0.8 -35.1 -9.5 -38.45 -9.3 -42.7 -9.15 Q-43.5 -9.25 -43.7 -9.65 -43.95 -10.0 -43.85 -10.55 L-43.5 -11.2 -39.15 -11.6 -25.4 -11.7 -23.95 -11.65 M-16.6 -7.55 L-17.75 -7.75 -19.45 -7.8 Q-20.05 -7.9 -20.4 -8.25 -20.75 -8.65 -20.6 -9.0 L-19.4 -9.85 Q-11.7 -10.15 -11.3 -9.95 L-10.7 -9.35 Q-10.45 -8.85 -10.6 -8.5 -10.8 -8.15 -11.5 -8.05 L-13.2 -7.95 -14.4 -7.95 -14.45 0.85 -14.3 9.8 -12.7 10.0 -10.7 10.1 Q-10.3 10.1 -10.1 10.6 -9.85 11.05 -10.0 11.55 -10.15 12.05 -10.6 12.2 L-14.85 12.35 -19.1 12.3 -19.75 11.8 -20.0 10.9 Q-19.95 10.4 -19.3 10.25 L-17.75 10.15 -16.55 10.1 Q-16.35 10.05 -16.45 1.35 L-16.6 -7.55 M43.65 8.55 Q44.3 8.65 44.85 9.2 45.4 9.7 45.45 10.15 L45.5 11.15 44.95 12.1 44.0 12.6 42.8 12.6 Q42.05 12.5 41.65 11.9 41.3 11.3 41.4 10.65 41.5 10.05 42.5 8.6 L43.65 8.55 M49.7 10.65 Q49.8 10.05 50.8 8.6 L51.95 8.55 Q52.6 8.65 53.15 9.2 53.7 9.7 53.75 10.15 L53.8 11.15 53.25 12.1 52.3 12.6 51.1 12.6 Q50.35 12.5 49.95 11.9 49.6 11.3 49.7 10.65 M10.85 -11.55 Q11.05 -12.1 11.4 -12.15 L12.25 -12.2 12.95 -11.6 Q13.2 -11.05 13.3 -7.9 L13.65 2.75 13.85 10.7 13.55 11.65 Q13.2 12.15 12.6 12.15 L11.6 11.9 8.15 7.8 2.65 0.65 -2.15 -5.65 -4.4 -8.55 -4.05 1.4 Q-3.6 11.3 -3.8 11.65 L-4.45 12.05 -5.45 12.05 -6.05 11.6 -6.35 5.75 -6.85 -4.95 -7.0 -10.7 -6.5 -11.6 -5.0 -11.65 -2.3 -9.25 0.05 -6.6 3.15 -2.65 8.4 4.35 11.5 8.5 11.25 2.5 10.85 -7.25 Q10.7 -11.0 10.85 -11.55 M32.85 -6.0 L32.2 -6.0 31.5 -6.45 30.45 -7.55 29.1 -8.5 27.55 -8.8 25.7 -8.55 Q24.6 -8.3 23.85 -7.75 L22.35 -6.5 21.0 -4.8 Q20.4 -3.85 20.1 -2.85 L19.7 -0.25 Q19.55 1.35 19.7 2.6 L20.1 4.9 Q20.4 5.9 21.2 6.9 L22.9 8.7 Q23.85 9.5 24.85 9.7 L26.9 10.0 29.35 9.7 Q30.65 9.3 31.6 8.65 32.5 8.05 33.2 6.95 33.95 5.9 34.25 4.5 L34.6 3.1 32.55 3.1 29.05 3.15 27.15 3.05 26.5 2.5 26.45 1.7 Q26.55 1.35 27.05 1.15 L31.5 0.95 35.8 1.05 36.35 1.5 36.65 2.6 36.6 4.3 35.85 6.75 34.75 8.8 33.5 10.05 31.95 11.2 30.0 12.0 27.4 12.35 24.9 11.95 22.8 11.2 21.1 10.1 19.65 8.55 18.35 6.5 Q17.9 5.45 17.65 4.05 17.4 2.7 17.4 0.75 17.35 -1.25 17.6 -2.55 17.9 -3.85 18.4 -4.75 L19.9 -7.05 22.2 -9.3 24.5 -10.55 26.85 -10.95 29.0 -10.8 30.6 -10.15 Q31.5 -9.6 32.85 -8.3 L33.4 -7.15 Q33.55 -6.7 33.35 -6.4 L32.85 -6.0 M64.2 -8.65 L63.8 -5.05 Q63.45 -2.5 62.65 0.0 61.85 2.55 60.35 5.35 59.05 -2.85 59.05 -5.1 59.05 -7.35 59.55 -8.95 60.1 -10.55 60.65 -11.1 61.25 -11.65 61.85 -11.8 L62.95 -11.7 63.9 -10.55 Q64.3 -9.65 64.2 -8.65 M53.55 -11.8 L54.65 -11.7 55.6 -10.55 Q56.0 -9.65 55.9 -8.65 L55.5 -5.05 Q55.15 -2.5 54.35 0.0 53.55 2.55 52.05 5.35 50.75 -2.85 50.75 -5.1 50.75 -7.35 51.25 -8.95 51.8 -10.55 52.35 -11.1 52.95 -11.65 53.55 -11.8 M-49.5 -8.1 L-50.15 -8.15 Q-50.4 -8.2 -50.7 -8.8 L-51.4 -9.9 -52.45 -10.55 -54.1 -10.6 -56.3 -9.95 Q-57.45 -9.4 -58.2 -8.45 -58.95 -7.5 -59.1 -6.35 -59.25 -5.25 -59.05 -4.55 L-58.1 -3.4 Q-57.45 -2.9 -56.35 -2.6 L-53.25 -1.85 -50.25 -1.1 -48.4 -0.15 Q-47.55 0.4 -46.85 1.3 -46.2 2.2 -45.95 3.25 L-45.65 5.35 Q-45.65 6.45 -45.8 6.9 L-46.45 8.2 -47.95 9.9 -49.85 11.45 Q-50.8 12.05 -52.05 12.2 L-54.65 12.35 -57.1 12.1 -59.25 11.4 Q-60.35 10.9 -60.9 10.45 L-61.9 9.35 -62.4 8.35 Q-62.5 8.05 -62.25 7.65 -62.0 7.25 -61.6 7.2 -61.2 7.1 -60.75 7.5 L-59.65 8.4 -57.95 9.5 -56.0 10.05 -54.0 10.1 -51.55 9.55 Q-50.25 9.1 -49.5 8.3 -48.7 7.5 -48.25 6.45 -47.8 5.4 -48.0 4.55 -48.2 3.65 -48.7 2.9 -49.15 2.15 -49.95 1.6 -50.7 1.1 -52.55 0.65 L-56.25 -0.3 Q-58.15 -0.7 -58.9 -1.05 -59.6 -1.35 -60.35 -2.2 -61.05 -3.0 -61.25 -4.05 -61.45 -5.05 -61.3 -6.3 -61.15 -7.55 -60.5 -8.85 L-58.95 -10.95 Q-58.0 -11.75 -56.65 -12.3 L-54.05 -12.85 -51.75 -12.5 Q-50.7 -12.15 -48.85 -10.2 L-48.55 -9.05 -48.85 -8.45 Q-49.1 -8.15 -49.5 -8.1 M61.45 9.2 Q62.0 9.7 62.05 10.15 L62.1 11.15 61.55 12.1 60.6 12.6 59.4 12.6 Q58.65 12.5 58.25 11.9 57.9 11.3 58.0 10.65 58.1 10.05 59.1 8.6 L60.25 8.55 Q60.9 8.65 61.45 9.2" fill="#000000" fill-rule="evenodd" stroke="none"/>
    <path d="M45.25 -11.8 L46.35 -11.7 47.3 -10.55 Q47.7 -9.65 47.6 -8.65 L47.2 -5.05 Q46.85 -2.5 46.05 0.0 45.25 2.55 43.75 5.35 42.45 -2.85 42.45 -5.1 42.45 -7.35 42.95 -8.95 43.5 -10.55 44.05 -11.1 44.65 -11.65 45.25 -11.8 M32.85 -6.0 L33.35 -6.4 Q33.55 -6.7 33.4 -7.15 L32.85 -8.3 Q31.5 -9.6 30.6 -10.15 L29.0 -10.8 26.85 -10.95 24.5 -10.55 22.2 -9.3 19.9 -7.05 18.4 -4.75 Q17.9 -3.85 17.6 -2.55 17.35 -1.25 17.4 0.75 17.4 2.7 17.65 4.05 17.9 5.45 18.35 6.5 L19.65 8.55 21.1 10.1 22.8 11.2 24.9 11.95 27.4 12.35 30.0 12.0 31.95 11.2 33.5 10.05 34.75 8.8 35.85 6.75 36.6 4.3 36.65 2.6 36.35 1.5 35.8 1.05 31.5 0.95 27.05 1.15 Q26.55 1.35 26.45 1.7 L26.5 2.5 27.15 3.05 29.05 3.15 32.55 3.1 34.6 3.1 34.25 4.5 Q33.95 5.9 33.2 6.95 32.5 8.05 31.6 8.65 30.65 9.3 29.35 9.7 L26.9 10.0 24.85 9.7 Q23.85 9.5 22.9 8.7 L21.2 6.9 Q20.4 5.9 20.1 4.9 L19.7 2.6 Q19.55 1.35 19.7 -0.25 L20.1 -2.85 Q20.4 -3.85 21.0 -4.8 L22.35 -6.5 23.85 -7.75 Q24.6 -8.3 25.7 -8.55 L27.55 -8.8 29.1 -8.5 30.45 -7.55 31.5 -6.45 32.2 -6.0 32.85 -6.0 M10.85 -11.55 Q10.7 -11.0 10.85 -7.25 L11.25 2.5 11.5 8.5 8.4 4.35 3.15 -2.65 0.05 -6.6 -2.3 -9.25 -5.0 -11.65 -6.5 -11.6 -7.0 -10.7 -6.85 -4.95 -6.35 5.75 -6.05 11.6 -5.45 12.05 -4.45 12.05 -3.8 11.65 Q-3.6 11.3 -4.05 1.4 L-4.4 -8.55 -2.15 -5.65 2.65 0.65 8.15 7.8 11.6 11.9 12.6 12.15 Q13.2 12.15 13.55 11.65 L13.85 10.7 13.65 2.75 13.3 -7.9 Q13.2 -11.05 12.95 -11.6 L12.25 -12.2 11.4 -12.15 Q11.05 -12.1 10.85 -11.55 M49.7 10.65 Q49.6 11.3 49.95 11.9 50.35 12.5 51.1 12.6 L52.3 12.6 53.25 12.1 53.8 11.15 53.75 10.15 Q53.7 9.7 53.15 9.2 52.6 8.65 51.95 8.55 L50.8 8.6 Q49.8 10.05 49.7 10.65 M43.65 8.55 L42.5 8.6 Q41.5 10.05 41.4 10.65 41.3 11.3 41.65 11.9 42.05 12.5 42.8 12.6 L44.0 12.6 44.95 12.1 45.5 11.15 45.45 10.15 Q45.4 9.7 44.85 9.2 44.3 8.65 43.65 8.55 M-16.6 -7.55 L-16.45 1.35 Q-16.35 10.05 -16.55 10.1 L-17.75 10.15 -19.3 10.25 Q-19.95 10.4 -20.0 10.9 L-19.75 11.8 -19.1 12.3 -14.85 12.35 -10.6 12.2 Q-10.15 12.05 -10.0 11.55 -9.85 11.05 -10.1 10.6 -10.3 10.1 -10.7 10.1 L-12.7 10.0 -14.3 9.8 -14.45 0.85 -14.4 -7.95 -13.2 -7.95 -11.5 -8.05 Q-10.8 -8.15 -10.6 -8.5 -10.45 -8.85 -10.7 -9.35 L-11.3 -9.95 Q-11.7 -10.15 -19.4 -9.85 L-20.6 -9.0 Q-20.75 -8.65 -20.4 -8.25 -20.05 -7.9 -19.45 -7.8 L-17.75 -7.75 -16.6 -7.55 M-23.95 -11.65 L-25.4 -11.7 -39.15 -11.6 -43.5 -11.2 -43.85 -10.55 Q-43.95 -10.0 -43.7 -9.65 -43.5 -9.25 -42.7 -9.15 L-38.45 -9.3 -35.1 -9.5 -34.8 0.8 -34.4 11.45 -33.8 12.05 -32.85 12.0 -32.3 11.55 -32.55 0.9 -32.8 -9.6 -28.0 -9.55 Q-23.35 -9.45 -23.0 -9.65 -22.7 -9.85 -22.65 -10.35 -22.6 -10.8 -22.9 -11.15 -23.25 -11.55 -23.95 -11.65 M64.2 -8.65 L63.8 -5.05 Q63.45 -2.5 62.65 0.0 61.85 2.55 60.35 5.35 59.05 -2.85 59.05 -5.1 59.05 -7.35 59.55 -8.95 60.1 -10.55 60.65 -11.1 61.25 -11.65 61.85 -11.8 L62.95 -11.7 63.9 -10.55 Q64.3 -9.65 64.2 -8.65 M53.55 -11.8 L54.65 -11.7 55.6 -10.55 Q56.0 -9.65 55.9 -8.65 L55.5 -5.05 Q55.15 -2.5 54.35 0.0 53.55 2.55 52.05 5.35 50.75 -2.85 50.75 -5.1 50.75 -7.35 51.25 -8.95 51.8 -10.55 52.35 -11.1 52.95 -11.65 53.55 -11.8 M61.45 9.2 Q60.9 8.65 60.25 8.55 L59.1 8.6 Q58.1 10.05 58.0 10.65 57.9 11.3 58.25 11.9 58.65 12.5 59.4 12.6 L60.6 12.6 61.55 12.1 62.1 11.15 62.05 10.15 Q62.0 9.7 61.45 9.2 M-49.5 -8.1 Q-49.1 -8.15 -48.85 -8.45 L-48.55 -9.05 -48.85 -10.2 Q-50.7 -12.15 -51.75 -12.5 L-54.05 -12.85 -56.65 -12.3 Q-58.0 -11.75 -58.95 -10.95 L-60.5 -8.85 Q-61.15 -7.55 -61.3 -6.3 -61.45 -5.05 -61.25 -4.05 -61.05 -3.0 -60.35 -2.2 -59.6 -1.35 -58.9 -1.05 -58.15 -0.7 -56.25 -0.3 L-52.55 0.65 Q-50.7 1.1 -49.95 1.6 -49.15 2.15 -48.7 2.9 -48.2 3.65 -48.0 4.55 -47.8 5.4 -48.25 6.45 -48.7 7.5 -49.5 8.3 -50.25 9.1 -51.55 9.55 L-54.0 10.1 -56.0 10.05 -57.95 9.5 -59.65 8.4 -60.75 7.5 Q-61.2 7.1 -61.6 7.2 -62.0 7.25 -62.25 7.65 -62.5 8.05 -62.4 8.35 L-61.9 9.35 -60.9 10.45 Q-60.35 10.9 -59.25 11.4 L-57.1 12.1 -54.65 12.35 -52.05 12.2 Q-50.8 12.05 -49.85 11.45 L-47.95 9.9 -46.45 8.2 -45.8 6.9 Q-45.65 6.45 -45.65 5.35 L-45.95 3.25 Q-46.2 2.2 -46.85 1.3 -47.55 0.4 -48.4 -0.15 L-50.25 -1.1 -53.25 -1.85 -56.35 -2.6 Q-57.45 -2.9 -58.1 -3.4 L-59.05 -4.55 Q-59.25 -5.25 -59.1 -6.35 -58.95 -7.5 -58.2 -8.45 -57.45 -9.4 -56.3 -9.95 L-54.1 -10.6 -52.45 -10.55 -51.4 -9.9 -50.7 -8.8 Q-50.4 -8.2 -50.15 -8.15 L-49.5 -8.1 Z" fill="none" stroke="#000000" stroke-linecap="round" stroke-linejoin="round" stroke-width="6.0"/>
    <path d="M46.25 -12.8 L47.35 -12.7 48.3 -11.55 Q48.7 -10.65 48.6 -9.65 L48.2 -6.05 Q47.85 -3.5 47.05 -1.0 46.25 1.55 44.75 4.35 43.45 -3.85 43.45 -6.1 43.45 -8.35 43.95 -9.95 44.5 -11.55 45.05 -12.1 45.65 -12.65 46.25 -12.8 M-22.95 -12.65 Q-22.25 -12.55 -21.9 -12.15 -21.6 -11.8 -21.65 -11.35 -21.7 -10.85 -22.0 -10.65 -22.35 -10.45 -27.0 -10.55 L-31.8 -10.6 -31.55 -0.1 -31.3 10.55 -31.85 11.0 -32.8 11.05 -33.4 10.45 -33.8 -0.2 -34.1 -10.5 -37.45 -10.3 -41.7 -10.15 Q-42.5 -10.25 -42.7 -10.65 -42.95 -11.0 -42.85 -11.55 L-42.5 -12.2 -38.15 -12.6 -24.4 -12.7 -22.95 -12.65 M-15.6 -8.55 L-16.75 -8.75 -18.45 -8.8 Q-19.05 -8.9 -19.4 -9.25 -19.75 -9.65 -19.6 -10.0 L-18.4 -10.85 Q-10.7 -11.15 -10.3 -10.95 L-9.7 -10.35 Q-9.45 -9.85 -9.6 -9.5 -9.8 -9.15 -10.5 -9.05 L-12.2 -8.95 -13.4 -8.95 -13.45 -0.15 -13.3 8.8 -11.7 9.0 -9.7 9.1 Q-9.3 9.1 -9.1 9.6 -8.85 10.05 -9.0 10.55 -9.15 11.05 -9.6 11.2 L-13.85 11.35 -18.1 11.3 Q-18.5 11.2 -18.75 10.8 L-19.0 9.9 Q-18.95 9.4 -18.3 9.25 L-16.75 9.15 -15.55 9.1 Q-15.35 9.05 -15.45 0.35 L-15.6 -8.55 M44.65 7.55 Q45.3 7.65 45.85 8.2 46.4 8.7 46.45 9.15 L46.5 10.15 Q46.4 10.7 45.95 11.1 L45.0 11.6 43.8 11.6 Q43.05 11.5 42.65 10.9 42.3 10.3 42.4 9.65 42.5 9.05 43.5 7.6 L44.65 7.55 M50.7 9.65 Q50.8 9.05 51.8 7.6 L52.95 7.55 Q53.6 7.65 54.15 8.2 54.7 8.7 54.75 9.15 L54.8 10.15 54.25 11.1 53.3 11.6 52.1 11.6 Q51.35 11.5 50.95 10.9 50.6 10.3 50.7 9.65 M11.85 -12.55 Q12.05 -13.1 12.4 -13.15 L13.25 -13.2 13.95 -12.6 Q14.2 -12.05 14.3 -8.9 L14.65 1.75 14.85 9.7 14.55 10.65 Q14.2 11.15 13.6 11.15 L12.6 10.9 9.15 6.8 3.65 -0.35 -1.15 -6.65 -3.4 -9.55 -3.05 0.4 Q-2.6 10.3 -2.8 10.65 -3.0 10.95 -3.45 11.05 L-4.45 11.05 -5.05 10.6 -5.35 4.75 -5.85 -5.95 -6.0 -11.7 -5.5 -12.6 -4.0 -12.65 Q-2.6 -11.65 -1.3 -10.25 L1.05 -7.6 4.15 -3.65 9.4 3.35 12.5 7.5 12.25 1.5 11.85 -8.25 Q11.7 -12.0 11.85 -12.55 M33.85 -9.3 L34.4 -8.15 Q34.55 -7.7 34.35 -7.4 L33.85 -7.0 33.2 -7.0 Q32.85 -7.05 32.5 -7.45 L31.45 -8.55 30.1 -9.5 28.55 -9.8 26.7 -9.55 Q25.6 -9.3 24.85 -8.75 L23.35 -7.5 22.0 -5.8 21.1 -3.85 20.7 -1.25 Q20.55 0.35 20.7 1.6 L21.1 3.9 Q21.4 4.9 22.2 5.9 L23.9 7.7 Q24.85 8.5 25.85 8.7 L27.9 9.0 30.35 8.7 Q31.65 8.3 32.6 7.65 L34.2 5.95 Q34.95 4.9 35.25 3.5 L35.6 2.1 33.55 2.1 30.05 2.15 28.15 2.05 27.5 1.5 27.45 0.7 28.05 0.15 32.5 -0.05 36.8 0.05 Q37.1 0.1 37.35 0.5 L37.65 1.6 37.6 3.3 36.85 5.75 35.75 7.8 34.5 9.05 32.95 10.2 31.0 11.0 28.4 11.35 25.9 10.95 23.8 10.2 22.1 9.1 20.65 7.55 19.35 5.5 18.65 3.05 Q18.4 1.7 18.4 -0.25 18.35 -2.25 18.6 -3.55 18.9 -4.85 19.4 -5.75 L20.9 -8.05 Q21.95 -9.5 23.2 -10.3 L25.5 -11.55 27.85 -11.95 30.0 -11.8 31.6 -11.15 33.85 -9.3 M63.95 -12.7 L64.9 -11.55 Q65.3 -10.65 65.2 -9.65 L64.8 -6.05 Q64.45 -3.5 63.65 -1.0 62.85 1.55 61.35 4.35 60.05 -3.85 60.05 -6.1 60.05 -8.35 60.55 -9.95 61.1 -11.55 61.65 -12.1 62.25 -12.65 62.85 -12.8 L63.95 -12.7 M54.55 -12.8 L55.65 -12.7 56.6 -11.55 Q57.0 -10.65 56.9 -9.65 L56.5 -6.05 Q56.15 -3.5 55.35 -1.0 54.55 1.55 53.05 4.35 51.75 -3.85 51.75 -6.1 51.75 -8.35 52.25 -9.95 52.8 -11.55 53.35 -12.1 L54.55 -12.8 M-47.85 -11.2 L-47.55 -10.05 -47.85 -9.45 -48.5 -9.1 -49.15 -9.15 -49.7 -9.8 -50.4 -10.9 -51.45 -11.55 -53.1 -11.6 Q-54.2 -11.55 -55.3 -10.95 -56.45 -10.4 -57.2 -9.45 -57.95 -8.5 -58.1 -7.35 -58.25 -6.25 -58.05 -5.55 -57.8 -4.9 -57.1 -4.4 -56.45 -3.9 -55.35 -3.6 L-52.25 -2.85 -49.25 -2.1 -47.4 -1.15 -45.85 0.3 Q-45.2 1.2 -44.95 2.25 L-44.65 4.35 Q-44.65 5.45 -44.8 5.9 L-45.45 7.2 -46.95 8.9 Q-47.95 9.85 -48.85 10.45 -49.8 11.05 -51.05 11.2 L-53.65 11.35 -56.1 11.1 -58.25 10.4 -59.9 9.45 -60.9 8.35 -61.4 7.35 -61.25 6.65 Q-61.0 6.25 -60.6 6.2 -60.2 6.1 -59.75 6.5 L-58.65 7.4 -56.95 8.5 Q-55.95 8.95 -55.0 9.05 L-53.0 9.1 -50.55 8.55 Q-49.25 8.1 -48.5 7.3 -47.7 6.5 -47.25 5.45 -46.8 4.4 -47.0 3.55 -47.2 2.65 -47.7 1.9 -48.15 1.15 -48.95 0.6 -49.7 0.1 -51.55 -0.35 L-55.25 -1.3 Q-57.15 -1.7 -57.9 -2.05 -58.6 -2.35 -59.35 -3.2 -60.05 -4.0 -60.25 -5.05 -60.45 -6.05 -60.3 -7.3 -60.15 -8.55 -59.5 -9.85 -58.85 -11.15 -57.95 -11.95 -57.0 -12.75 -55.65 -13.3 -54.35 -13.85 -53.05 -13.85 L-50.75 -13.5 Q-49.7 -13.15 -47.85 -11.2 M62.45 8.2 L63.05 9.15 63.1 10.15 62.55 11.1 61.6 11.6 60.4 11.6 Q59.65 11.5 59.25 10.9 58.9 10.3 59.0 9.65 59.1 9.05 60.1 7.6 L61.25 7.55 Q61.9 7.65 62.45 8.2" fill="#ffffff" fill-rule="evenodd" stroke="none"/>
  </g>
</svg>
