<?xml version="1.0" encoding="UTF-8" standalone="no"?>
<svg xmlns:ffdec="https://www.free-decompiler.com/flash" xmlns:xlink="http://www.w3.org/1999/xlink" ffdec:objectType="shape" height="53.25px" width="133.3px" xmlns="http://www.w3.org/2000/svg">
  <g transform="matrix(1.0, 0.0, 0.0, 1.0, 66.65, 26.6)">
    <path d="M28.35 -25.6 L40.85 -25.15 51.85 -24.0 52.75 -24.0 Q65.55 -22.1 65.65 -10.9 L65.65 -10.65 Q65.65 -8.7 63.2 10.3 L63.0 11.95 Q62.55 15.1 61.45 17.55 58.75 23.5 52.15 24.55 L-13.25 24.7 Q-26.2 24.7 -42.45 25.45 -45.85 25.75 -52.55 25.6 -62.25 24.5 -63.3 13.9 L-63.35 12.65 -64.65 -0.55 -65.55 -12.3 Q-66.1 -20.0 -62.9 -22.1 -59.75 -24.2 -53.0 -24.65 -46.3 -25.1 -2.95 -25.3 L-2.35 -25.3 0.85 -25.35 4.2 -25.4 28.35 -25.6" fill="#ffffff" fill-rule="evenodd" stroke="none"/>
    <path d="M28.35 -25.6 L40.85 -25.15 51.85 -24.0 52.75 -24.0 Q65.55 -22.1 65.65 -10.9 L65.65 -10.65 Q65.65 -8.7 63.2 10.3 L63.0 11.95 Q62.55 15.1 61.45 17.55 58.75 23.5 52.15 24.55 L-13.25 24.7 Q-26.2 24.7 -42.45 25.45 -45.85 25.75 -52.55 25.6 -62.25 24.5 -63.3 13.9 L-63.35 12.65 -64.65 -0.55 -65.55 -12.3 Q-66.1 -20.0 -62.9 -22.1 -59.75 -24.2 -53.0 -24.65 -46.3 -25.1 -2.95 -25.3 L-2.35 -25.3 0.85 -25.35 4.2 -25.4 28.35 -25.6 Z" fill="none" stroke="#000000" stroke-linecap="round" stroke-linejoin="round" stroke-opacity="0.2509804" stroke-width="2.0" vector-effect="non-scaling-stroke"/>
  </g>
</svg>
