<?xml version="1.0" encoding="UTF-8" standalone="no"?>
<svg xmlns:ffdec="https://www.free-decompiler.com/flash" xmlns:xlink="http://www.w3.org/1999/xlink" ffdec:objectType="shape" height="30.1px" width="99.7px" xmlns="http://www.w3.org/2000/svg">
  <g transform="matrix(1.0, 0.0, 0.0, 1.0, 49.8, 15.05)">
    <path d="M49.3 -10.75 L49.3 10.65 Q49.3 12.25 48.15 13.4 47.0 14.55 45.4 14.55 L-45.45 14.55 Q-47.05 14.55 -48.2 13.4 -49.3 12.25 -49.3 10.65 L-49.3 -10.75 Q-49.3 -12.35 -48.2 -13.45 -47.05 -14.55 -45.45 -14.55 L45.4 -14.55 Q47.0 -14.55 48.15 -13.45 49.3 -12.3 49.3 -10.75" fill="#1cfd02" fill-rule="evenodd" stroke="none"/>
    <path d="M49.3 -10.75 L49.3 10.65 Q49.3 12.25 48.15 13.4 47.0 14.55 45.4 14.55 L-45.45 14.55 Q-47.05 14.55 -48.2 13.4 -49.3 12.25 -49.3 10.65 L-49.3 -10.75 Q-49.3 -12.35 -48.2 -13.45 -47.05 -14.55 -45.45 -14.55 L45.4 -14.55 Q47.0 -14.55 48.15 -13.45 49.3 -12.3 49.3 -10.75 Z" fill="none" stroke="#28609c" stroke-linecap="butt" stroke-linejoin="miter-clip" stroke-miterlimit="4.0" stroke-width="1.0"/>
    <path d="M45.4 -13.55 Q46.6 -13.55 47.45 -12.7 48.3 -11.9 48.3 -10.75 L48.3 -5.9 -48.3 -5.9 -48.3 -10.75 Q-48.3 -11.9 -47.45 -12.7 -46.65 -13.55 -45.45 -13.55 L45.4 -13.55" fill="url(#gradient0)" fill-rule="evenodd" stroke="none"/>
  </g>
  <defs>
    <linearGradient gradientTransform="matrix(0.0, 0.0079, 0.0079, 0.0, 0.0, -7.85)" gradientUnits="userSpaceOnUse" id="gradient0" spreadMethod="pad" x1="-819.2" x2="819.2">
      <stop offset="0.0" stop-color="#fefefe" stop-opacity="0.49803922"/>
      <stop offset="1.0" stop-color="#fefefe" stop-opacity="0.047058824"/>
    </linearGradient>
  </defs>
</svg>
