<?xml version="1.0" encoding="UTF-8" standalone="no"?>
<svg xmlns:ffdec="https://www.free-decompiler.com/flash" xmlns:xlink="http://www.w3.org/1999/xlink" ffdec:objectType="shape" height="69.95px" width="137.7px" xmlns="http://www.w3.org/2000/svg">
  <g transform="matrix(1.0, 0.0, 0.0, 1.0, 68.45, 70.0)">
    <path d="M61.7 -68.6 Q64.35 -68.6 66.2 -66.75 68.05 -64.85 68.05 -62.25 L68.05 -15.95 Q68.05 -13.3 66.2 -11.45 64.35 -9.6 61.7 -9.6 L-62.1 -9.6 Q-64.7 -9.6 -66.6 -11.45 -68.45 -13.3 -68.45 -15.95 L-68.45 -62.25 Q-68.45 -64.85 -66.6 -66.75 -64.7 -68.6 -62.1 -68.6 L61.7 -68.6" fill="#000000" fill-opacity="0.14901961" fill-rule="evenodd" stroke="none"/>
    <path d="M62.7 -69.25 Q65.1 -69.25 66.8 -67.55 68.5 -65.9 68.5 -63.5 L68.5 -17.15 Q68.5 -14.75 66.8 -13.05 65.1 -11.35 62.7 -11.35 L9.45 -11.35 0.75 -1.2 -7.9 -11.35 -61.15 -11.35 Q-63.55 -11.35 -65.25 -13.05 -66.95 -14.75 -66.95 -17.15 L-66.95 -63.5 Q-66.95 -65.9 -65.25 -67.55 -63.55 -69.25 -61.15 -69.25 L62.7 -69.25" fill="#3398fb" fill-rule="evenodd" stroke="none"/>
    <path d="M62.7 -69.25 L-61.15 -69.25 Q-63.55 -69.25 -65.25 -67.55 -66.95 -65.9 -66.95 -63.5 L-66.95 -17.15 Q-66.95 -14.75 -65.25 -13.05 -63.55 -11.35 -61.15 -11.35 L-7.9 -11.35 0.75 -1.2 9.45 -11.35 62.7 -11.35 Q65.1 -11.35 66.8 -13.05 68.5 -14.75 68.5 -17.15 L68.5 -63.5 Q68.5 -65.9 66.8 -67.55 65.1 -69.25 62.7 -69.25 Z" fill="none" stroke="#3349a6" stroke-linecap="butt" stroke-linejoin="miter-clip" stroke-miterlimit="4.0" stroke-width="1.5"/>
    <path d="M66.5 -17.15 Q66.5 -15.55 65.4 -14.45 64.3 -13.35 62.7 -13.35 L8.55 -13.35 0.75 -4.3 -7.0 -13.35 -61.15 -13.35 Q-62.7 -13.35 -63.85 -14.45 -64.95 -15.55 -64.95 -17.15" fill="none" stroke="#4fa4fd" stroke-linecap="round" stroke-linejoin="miter-clip" stroke-miterlimit="4.0" stroke-width="2.0"/>
    <path d="M63.75 -68.55 Q65.25 -68.55 66.35 -67.5 67.4 -66.45 67.4 -64.95 L67.4 -59.85 -65.9 -59.85 -65.9 -64.95 Q-65.9 -66.45 -64.85 -67.5 -63.8 -68.55 -62.3 -68.55 L63.75 -68.55" fill="url(#gradient0)" fill-rule="evenodd" stroke="none"/>
  </g>
  <defs>
    <linearGradient gradientTransform="matrix(0.0, 0.0069, 0.0069, 0.0, 0.75, -62.65)" gradientUnits="userSpaceOnUse" id="gradient0" spreadMethod="pad" x1="-819.2" x2="819.2">
      <stop offset="0.0" stop-color="#fefefe" stop-opacity="0.29803923"/>
      <stop offset="1.0" stop-color="#fefefe" stop-opacity="0.0"/>
    </linearGradient>
  </defs>
</svg>
