<?xml version="1.0" encoding="UTF-8" standalone="no"?>
<svg xmlns:ffdec="https://www.free-decompiler.com/flash" xmlns:xlink="http://www.w3.org/1999/xlink" ffdec:objectType="shape" height="28.45px" width="38.55px" xmlns="http://www.w3.org/2000/svg">
  <g transform="matrix(1.0, 0.0, 0.0, 1.0, 19.0, 82.05)">
    <path d="M17.6 -79.6 L18.0 -78.95 18.05 -78.9 18.05 -78.85 18.1 -78.75 18.65 -77.0 18.7 -76.9 19.3 -73.1 19.5 -70.6 Q19.65 -66.6 19.4 -64.15 L18.85 -61.3 Q18.4 -60.15 17.5 -59.95 L8.35 -57.65 Q-5.8 -54.1 -9.15 -53.6 L-10.6 -53.6 -10.65 -53.65 -10.7 -53.65 -11.05 -53.7 -11.25 -53.75 -12.15 -54.1 -12.2 -54.15 -12.75 -54.4 -15.5 -56.35 Q-16.6 -57.45 -17.35 -59.85 -18.0 -61.7 -18.65 -66.0 L-18.95 -69.2 Q-19.1 -71.35 -18.85 -73.45 L-18.55 -75.05 Q-18.1 -76.6 -17.2 -77.35 L-17.15 -77.4 -16.9 -77.6 Q-16.3 -78.0 -15.7 -78.05 L-3.7 -80.05 10.05 -82.05 10.7 -82.05 Q14.0 -82.05 16.95 -80.3 L17.4 -79.85 17.6 -79.65 17.6 -79.6" fill="#000000" fill-opacity="0.14901961" fill-rule="evenodd" stroke="none"/>
  </g>
</svg>
