<?xml version="1.0" encoding="UTF-8" standalone="no"?>
<svg xmlns:ffdec="https://www.free-decompiler.com/flash" xmlns:xlink="http://www.w3.org/1999/xlink" ffdec:objectType="shape" height="17.95px" width="74.25px" xmlns="http://www.w3.org/2000/svg">
  <g transform="matrix(1.0, 0.0, 0.0, 1.0, 37.1, 8.85)">
    <path d="M35.65 -7.35 Q36.65 -6.35 36.65 -4.95 L36.65 5.0 Q36.65 6.45 35.65 7.4 34.7 8.4 33.25 8.4 L-33.2 8.4 Q-34.6 8.4 -35.6 7.4 -36.6 6.45 -36.6 5.0 L-36.6 -4.95 Q-36.6 -6.35 -35.6 -7.35 -34.6 -8.35 -33.2 -8.35 L33.25 -8.35 Q34.7 -8.35 35.65 -7.35" fill="#fffb42" fill-rule="evenodd" stroke="none"/>
    <path d="M35.65 -7.35 Q36.65 -6.35 36.65 -4.95 L36.65 5.0 Q36.65 6.45 35.65 7.4 34.7 8.4 33.25 8.4 L-33.2 8.4 Q-34.6 8.4 -35.6 7.4 -36.6 6.45 -36.6 5.0 L-36.6 -4.95 Q-36.6 -6.35 -35.6 -7.35 -34.6 -8.35 -33.2 -8.35 L33.25 -8.35 Q34.7 -8.35 35.65 -7.35 Z" fill="none" stroke="#28609c" stroke-linecap="butt" stroke-linejoin="miter-clip" stroke-miterlimit="4.0" stroke-width="1.0"/>
    <path d="M33.25 -7.5 Q34.3 -7.5 35.05 -6.75 35.8 -6.0 35.8 -4.95 L35.8 -0.7 -35.75 -0.7 -35.75 -4.95 Q-35.75 -6.0 -35.0 -6.75 -34.25 -7.5 -33.2 -7.5 L33.25 -7.5" fill="url(#gradient0)" fill-rule="evenodd" stroke="none"/>
  </g>
  <defs>
    <linearGradient gradientTransform="matrix(0.0, 0.007, 0.007, 0.0, 0.0, -2.45)" gradientUnits="userSpaceOnUse" id="gradient0" spreadMethod="pad" x1="-819.2" x2="819.2">
      <stop offset="0.0" stop-color="#fefefe" stop-opacity="0.49803922"/>
      <stop offset="1.0" stop-color="#fefefe" stop-opacity="0.047058824"/>
    </linearGradient>
  </defs>
</svg>
