<?xml version="1.0" encoding="UTF-8" standalone="no"?>
<svg xmlns:ffdec="https://www.free-decompiler.com/flash" xmlns:xlink="http://www.w3.org/1999/xlink" ffdec:objectType="shape" height="18.0px" width="94.0px" xmlns="http://www.w3.org/2000/svg">
  <g transform="matrix(1.0, 0.0, 0.0, 1.0, 47.0, 9.0)">
    <path d="M-47.0 0.0 Q-47.0 -3.75 -44.4 -6.4 -41.75 -9.0 -38.0 -9.0 L38.0 -9.0 Q41.75 -9.0 44.35 -6.4 47.0 -3.75 47.0 0.0 47.0 3.75 44.35 6.35 41.75 9.0 38.0 9.0 L-38.0 9.0 Q-41.75 9.0 -44.4 6.35 -47.0 3.75 -47.0 0.0" fill="url(#gradient0)" fill-rule="evenodd" stroke="none"/>
    <path d="M44.35 -6.4 L45.05 -5.65 Q0.0 5.0 -45.05 -5.65 L-44.4 -6.4 Q-41.75 -9.0 -38.0 -9.0 L38.0 -9.0 Q41.75 -9.0 44.35 -6.4" fill="url(#gradient1)" fill-rule="evenodd" stroke="none"/>
  </g>
  <defs>
    <linearGradient gradientTransform="matrix(0.0, -0.0132, 0.0141, 0.0, -0.95, 2.55)" gradientUnits="userSpaceOnUse" id="gradient0" spreadMethod="pad" x1="-819.2" x2="819.2">
      <stop offset="0.0" stop-color="#0083f2"/>
      <stop offset="1.0" stop-color="#027aca"/>
    </linearGradient>
    <radialGradient cx="0" cy="0" gradientTransform="matrix(0.0551, 0.0, 0.0, 0.0551, 0.0, -4.65)" gradientUnits="userSpaceOnUse" id="gradient1" r="819.2" spreadMethod="pad">
      <stop offset="0.0" stop-color="#ffffff" stop-opacity="0.3019608"/>
      <stop offset="1.0" stop-color="#ffffff" stop-opacity="0.15294118"/>
    </radialGradient>
  </defs>
</svg>
