<?xml version="1.0" encoding="UTF-8" standalone="no"?>
<svg xmlns:ffdec="https://www.free-decompiler.com/flash" xmlns:xlink="http://www.w3.org/1999/xlink" ffdec:objectType="shape" height="69.65px" width="74.75px" xmlns="http://www.w3.org/2000/svg">
  <g transform="matrix(1.0, 0.0, 0.0, 1.0, 36.55, 45.45)">
    <path d="M13.0 -40.3 L15.15 -38.65 15.8 -38.15 18.0 -36.3 Q26.4 -28.6 31.4 -17.7 34.75 -10.5 36.75 -1.6 L36.75 -1.45 37.6 3.4 38.1 6.75 Q17.15 23.0 -4.1 24.0 -19.35 24.85 -34.4 18.15 L-35.6 10.45 Q-36.95 1.4 -36.1 -7.0 -35.45 -15.85 -32.25 -23.9 -27.4 -36.3 -19.0 -41.8 -16.65 -35.1 -12.5 -31.6 L3.75 -45.0 Q9.3 -42.8 13.0 -40.3" fill="#ffffff" fill-rule="evenodd" stroke="none"/>
    <path d="M13.0 -40.3 L15.15 -38.65 15.8 -38.15 18.0 -36.3 Q26.4 -28.6 31.4 -17.7 34.75 -10.5 36.75 -1.6 L36.75 -1.45 37.6 3.4 38.1 6.75 Q17.15 23.0 -4.1 24.0 -19.35 24.85 -34.4 18.15 L-35.6 10.45 Q-36.95 1.4 -36.1 -7.0 -35.45 -15.85 -32.25 -23.9 -27.4 -36.3 -19.0 -41.8 -16.65 -35.1 -12.5 -31.6 L3.75 -45.0 Q9.3 -42.8 13.0 -40.3 Z" fill="none" stroke="#000000" stroke-linecap="round" stroke-linejoin="round" stroke-opacity="0.2" stroke-width="0.2"/>
    <path d="M30.55 -20.4 Q34.75 -12.15 37.1 0.2 23.2 12.95 0.9 17.15 -5.6 -5.8 -5.6 -21.55 -5.8 -37.3 3.6 -45.35 8.3 -43.85 13.0 -40.5 L15.15 -38.8 15.8 -38.3 18.0 -36.45 Q26.4 -28.75 30.55 -20.4 M-22.85 -39.15 Q-20.5 -41.5 -19.0 -42.3 -22.05 -34.6 -21.2 -21.2 -20.35 -8.5 -19.35 -2.1 -18.5 4.25 -14.5 17.45 -26.05 16.15 -35.75 11.95 L-36.1 6.6 Q-36.75 -0.6 -36.1 -7.15 -35.45 -16.0 -32.25 -24.05 -28.05 -34.45 -22.85 -39.15" fill="#6c431e" fill-rule="evenodd" stroke="none"/>
    <path d="M30.55 -20.4 Q34.75 -12.15 37.1 0.2 23.2 12.95 0.9 17.15 -5.6 -5.8 -5.6 -21.55 -5.8 -37.3 3.6 -45.35 8.3 -43.85 13.0 -40.5 L15.15 -38.8 15.8 -38.3 18.0 -36.45 Q26.4 -28.75 30.55 -20.4 M-22.85 -39.15 Q-20.5 -41.5 -19.0 -42.3 -22.05 -34.6 -21.2 -21.2 -20.35 -8.5 -19.35 -2.1 -18.5 4.25 -14.5 17.45 -26.05 16.15 -35.75 11.95 L-36.1 6.6 Q-36.75 -0.6 -36.1 -7.15 -35.45 -16.0 -32.25 -24.05 -28.05 -34.45 -22.85 -39.15 Z" fill="none" stroke="#000000" stroke-linecap="round" stroke-linejoin="round" stroke-opacity="0.2" stroke-width="0.2"/>
    <path d="M14.0 -20.1 L22.45 -20.55 17.05 -14.95 20.8 -6.25 10.95 -11.4 2.5 -3.45 3.9 -13.5 -3.15 -18.9 6.0 -19.6 8.6 -30.2 Q11.2 -25.0 14.0 -20.1" fill="#ffcf0f" fill-rule="evenodd" stroke="none"/>
    <path d="M-12.5 -31.9 Q-12.95 -18.85 -11.0 -5.3 -8.95 9.3 -5.1 23.35" fill="none" stroke="#cccccc" stroke-linecap="round" stroke-linejoin="round" stroke-width="0.2"/>
    <path d="M-14.7 -26.3 Q-15.0 -25.8 -15.5 -25.8 -16.0 -25.8 -16.35 -26.3 -16.7 -26.65 -16.7 -27.2 L-16.35 -28.05 -15.5 -28.4 Q-15.0 -28.4 -14.7 -28.05 -14.15 -27.7 -14.15 -27.2 -14.15 -26.65 -14.7 -26.3" fill="#999999" fill-rule="evenodd" stroke="none"/>
    <path d="M-13.85 -10.7 Q-14.15 -10.2 -14.65 -10.2 -15.15 -10.2 -15.5 -10.7 -15.85 -11.05 -15.85 -11.6 L-15.5 -12.45 Q-15.15 -12.8 -14.65 -12.8 -14.15 -12.8 -13.85 -12.45 -13.3 -12.1 -13.3 -11.6 -13.3 -11.05 -13.85 -10.7" fill="#999999" fill-rule="evenodd" stroke="none"/>
    <path d="M-11.45 4.85 L-12.25 5.35 Q-12.75 5.35 -13.1 4.85 L-13.45 3.95 Q-13.45 3.45 -13.1 3.1 -12.75 2.75 -12.25 2.75 -11.75 2.75 -11.45 3.1 -10.9 3.45 -10.9 3.95 -10.9 4.5 -11.45 4.85" fill="#999999" fill-rule="evenodd" stroke="none"/>
    <path d="M-8.5 20.45 Q-8.8 20.95 -9.3 20.95 L-10.15 20.45 Q-10.5 20.1 -10.5 19.55 -10.5 19.05 -10.15 18.7 -9.8 18.35 -9.3 18.35 -8.8 18.35 -8.5 18.7 -7.95 19.05 -7.95 19.55 -7.95 20.1 -8.5 20.45" fill="#999999" fill-rule="evenodd" stroke="none"/>
  </g>
</svg>
