<?xml version="1.0" encoding="UTF-8" standalone="no"?>
<svg xmlns:ffdec="https://www.free-decompiler.com/flash" xmlns:xlink="http://www.w3.org/1999/xlink" ffdec:objectType="shape" height="124.7px" width="135.35px" xmlns="http://www.w3.org/2000/svg">
  <g transform="matrix(1.0, 0.0, 0.0, 1.0, 0.0, 0.0)">
    <path d="M114.35 21.95 Q123.7 24.6 125.9 30.2 120.15 27.65 115.85 30.4 111.5 33.15 115.65 35.15 119.8 37.1 123.85 41.3 127.85 45.45 131.7 55.65 135.5 65.8 135.35 85.5 135.15 105.2 124.1 114.95 113.05 124.7 95.15 124.7 78.6 124.7 66.5 113.45 55.1 122.95 39.9 122.95 21.95 122.95 7.85 111.45 -6.3 99.95 5.1 98.85 16.45 97.7 13.9 84.4 11.3 71.1 7.25 55.35 3.15 39.6 9.5 26.75 15.85 13.85 27.65 9.6 22.45 19.15 25.05 23.7 27.65 28.2 29.95 27.75 31.5 22.65 32.7 19.95 33.9 17.2 37.3 13.05 40.65 8.85 43.95 6.7 47.2 4.55 52.2 2.85 57.15 1.15 70.7 0.0 61.0 5.6 59.25 10.25 57.5 14.85 57.25 17.65 56.95 20.45 57.5 20.2 67.15 10.25 80.45 8.4 93.75 6.5 105.45 10.6 94.05 11.4 87.65 24.1 L86.9 25.2 Q89.0 24.05 97.0 21.7 105.0 19.3 114.35 21.95" fill="#df8b37" fill-rule="evenodd" stroke="none"/>
  </g>
</svg>
