<?xml version="1.0" encoding="UTF-8" standalone="no"?>
<svg xmlns:ffdec="https://www.free-decompiler.com/flash" xmlns:xlink="http://www.w3.org/1999/xlink" ffdec:objectType="shape" height="68.5px" width="74.7px" xmlns="http://www.w3.org/2000/svg">
  <g transform="matrix(1.0, 0.0, 0.0, 1.0, 36.55, 45.2)">
    <path d="M-25.1 -2.6 Q-24.55 -10.45 -24.05 -27.0 -14.2 -20.3 4.5 -27.5 -1.2 -6.6 11.85 20.2 -4.05 25.05 -24.25 21.5 -25.75 11.5 -25.1 -2.6" fill="#ffffff" fill-rule="evenodd" stroke="none"/>
    <path d="M-25.1 -2.6 Q-24.55 -10.45 -24.05 -27.0 -14.2 -20.3 4.5 -27.5 -1.2 -6.6 11.85 20.2 -4.05 25.05 -24.25 21.5 -25.75 11.5 -25.1 -2.6 Z" fill="none" stroke="#000000" stroke-linecap="round" stroke-linejoin="round" stroke-opacity="0.12941177" stroke-width="0.2"/>
    <path d="M17.85 -36.2 Q26.05 -28.5 29.55 -21.5 33.05 -14.45 35.25 -6.75 L37.75 3.1 38.05 6.8 Q23.2 19.2 6.65 22.35 -0.2 -6.6 0.15 -21.35 0.5 -36.2 3.5 -45.1 10.5 -43.6 17.85 -36.2 M-19.05 -41.9 Q-26.75 -18.8 -21.05 23.2 -25.6 23.05 -34.45 18.15 L-35.6 10.45 Q-36.95 1.45 -36.1 -6.95 -35.45 -15.8 -32.25 -23.85 -27.4 -36.05 -19.05 -41.9" fill="#000000" fill-rule="evenodd" stroke="none"/>
    <path d="M17.85 -36.2 Q26.05 -28.5 29.55 -21.5 33.05 -14.45 35.25 -6.75 L37.75 3.1 38.05 6.8 Q23.2 19.2 6.65 22.35 -0.2 -6.6 0.15 -21.35 0.5 -36.2 3.5 -45.1 10.5 -43.6 17.85 -36.2 M-19.05 -41.9 Q-26.75 -18.8 -21.05 23.2 -25.6 23.05 -34.45 18.15 L-35.6 10.45 Q-36.95 1.45 -36.1 -6.95 -35.45 -15.8 -32.25 -23.85 -27.4 -36.05 -19.05 -41.9 Z" fill="none" stroke="#000000" stroke-linecap="round" stroke-linejoin="round" stroke-opacity="0.12941177" stroke-width="0.2"/>
  </g>
</svg>
